<?xml version="1.0" encoding="UTF-8"?>
<!-- The Best Svg Icon site in the world: iconSvg.co, Visit us! https://iconsvg.co -->
<svg fill="#000000" width="800px" height="800px" version="1.1" viewBox="144 144 512 512" xmlns="http://www.w3.org/2000/svg">
 <path d="m399.5 202c-84.641 0-143.08 106.81-143.08 202.53 0 58.945 14.609 107.31 42.32 139.55 25.695 29.727 61.465 45.344 103.28 45.344 70.535 0 145.6-48.367 145.6-184.9-0.003907-106.3-70.535-202.53-148.12-202.53zm2.5195 376.85c-84.641 0-135.52-65.496-135.52-174.82 0-102.27 62.473-192.46 133-192.46 72.043 0 137.54 91.691 137.54 192.46 0.50391 107.81-51.391 174.82-135.02 174.82z"/>
</svg>