<?xml version="1.0" encoding="UTF-8"?>
<!-- The Best Svg Icon site in the world: iconSvg.co, Visit us! https://iconsvg.co -->
<svg fill="#000000" width="800px" height="800px" version="1.1" viewBox="144 144 512 512" xmlns="http://www.w3.org/2000/svg">
 <g>
  <path d="m203.51 601.52h392.97c2.7852 0 5.0391-2.2539 5.0391-5.0391v-37.785c0-2.7812-2.2539-5.0391-5.0391-5.0391h-1.5742v-307.32h1.5742c2.7852 0 5.0391-2.2539 5.0391-5.0391v-37.785c0-2.7812-2.2539-5.0391-5.0391-5.0391l-392.97 0.003906c-2.7852 0-5.0391 2.2539-5.0391 5.0391v37.785c0 2.7812 2.2539 5.0391 5.0391 5.0391h1.5742v307.32l-1.5742-0.003906c-2.7852 0-5.0391 2.2539-5.0391 5.0391l0.003906 37.785c0 2.7812 2.25 5.0391 5.0352 5.0391zm387.93-10.078h-382.89v-27.711h382.89zm-382.89-382.89h382.89v27.711h-382.89zm6.6133 37.785h369.67v307.32h-369.67z"/>
  <path d="m385.51 382.87c0.46094-1.2734 0.39844-2.6797-0.1875-3.9023-8.1875-17.164-23.512-29.969-42.59-35.992l2.2188-18.785c0.023437-0.19531 0.035156-0.39453 0.035156-0.58984 0-11.285-9.0625-20.465-20.203-20.465s-20.203 9.1797-20.203 20.465c0 0.18359 0.011719 0.37109 0.03125 0.55469l2.0547 18.539c-18.449 5.2461-34 18.328-42.43 36.129-0.59375 1.2656-0.64453 2.7266-0.12109 4.0273 0.52344 1.3008 1.5586 2.3242 2.8672 2.8281 0.125 0.046874 0.63672 0.23828 1.4219 0.49609-2.9258 8.1484-4.4961 16.746-4.4961 25.68 0 38.5 27.152 85.004 60.875 85.004 33.719 0 60.871-46.5 60.871-85.004 0-8.8555-1.5469-17.387-4.4219-25.48 0.89453-0.33984 1.4805-0.58984 1.6133-0.64844 1.2383-0.55469 2.1992-1.5859 2.6641-2.8555zm-60.723-69.66c5.4961 0 9.9844 4.5156 10.121 10.121l-2.0352 17.242c-6.707-0.98438-12.91-0.46094-16.297 0.015625l-1.9102-17.242c0.12891-5.6133 4.6211-10.137 10.121-10.137zm-8.9922 37.715c0.089843-0.023437 9.0977-1.9453 17.996 0.015625 17.137 3.7812 31.312 13.605 39.699 27.312-6.6914 1.75-18.742 3.3984-29.75-2.9141-1.418-0.8125-3.1484-0.89062-4.625-0.19922-1.4844 0.6875-2.5391 2.0547-2.832 3.6602-1.4336 7.7969-4.5742 18.129-11.477 25.73-7.0508-7.75-10.188-18.328-11.582-26.312-0.28906-1.6367-1.3672-3.0312-2.8828-3.7188-0.66406-0.30078-1.3711-0.44922-2.082-0.44922-0.91016 0-1.8164 0.24609-2.6133 0.73047-10.035 6.0859-22.426 4.6562-29.457 3.0781 8.6445-14.277 23.004-24.172 39.605-26.934zm59.789 60.934c0 33.027-23.918 74.926-50.793 74.926-26.883 0-50.801-41.898-50.801-74.926 0-8.1523 1.4883-15.969 4.2773-23.332 7.2539 1.1602 17.023 1.5039 26.418-2.1016 2.5156 9.7305 7.3984 21.031 16.891 28.949 0.93359 0.78125 2.082 1.1719 3.2266 1.1719s2.293-0.39062 3.2266-1.1719c9.3398-7.793 14.203-18.875 16.742-28.418 9.8672 3.7812 19.562 3.3711 26.715 2.0703 2.668 7.2188 4.0977 14.871 4.0977 22.832z"/>
  <path d="m290.62 412.83c0.89453 1.7227 2.6523 2.7109 4.4727 2.7109 0.78125 0 1.5781-0.18359 2.3203-0.56641 2.4648-1.2852 3.4258-4.3281 2.1406-6.7969l-3.4922-6.7109c-1.2773-2.4648-4.3242-3.4336-6.793-2.1445-2.4648 1.2852-3.4258 4.3281-2.1406 6.7969z"/>
  <path d="m319.63 462.76c-1.2891-2.4688-4.3203-3.4375-6.793-2.1484-2.4688 1.2812-3.4297 4.3242-2.1484 6.793l3.4883 6.7148c0.89844 1.7266 2.6562 2.7148 4.4766 2.7148 0.78125 0 1.5742-0.18359 2.3164-0.56641 2.4688-1.2812 3.4297-4.3242 2.1484-6.793z"/>
  <path d="m355.06 416.92c-2.4688 1.2812-3.4297 4.3242-2.1484 6.793l3.4883 6.7148c0.89844 1.7266 2.6562 2.7148 4.4766 2.7148 0.78125 0 1.5742-0.18359 2.3164-0.56641 2.4688-1.2812 3.4297-4.3242 2.1484-6.793l-3.4883-6.7148c-1.2852-2.4688-4.3164-3.4297-6.793-2.1484z"/>
  <path d="m344.42 443.54c-1.2891-2.4688-4.3242-3.4336-6.793-2.1484-2.4688 1.2812-3.4297 4.3242-2.1484 6.793l3.4883 6.7148c0.89844 1.7266 2.6562 2.7148 4.4766 2.7148 0.78125 0 1.5742-0.18359 2.3164-0.56641 2.4688-1.2812 3.4297-4.3242 2.1484-6.793z"/>
  <path d="m314.07 444.66c1.2344-2.4961 0.21094-5.5156-2.2812-6.7461-2.5039-1.2305-5.5195-0.20703-6.75 2.2852l-3.3516 6.7812c-1.2344 2.4961-0.21094 5.5156 2.2812 6.7461 0.71875 0.35547 1.4805 0.52344 2.2305 0.52344 1.8594 0 3.6445-1.0273 4.5234-2.8086z"/>
  <path d="m300.67 425.3c-1.543-2.3164-4.6836-2.9336-6.9883-1.3867l-6.2773 4.1992c-2.3125 1.5469-2.9375 4.6758-1.3867 6.9883 0.96875 1.4531 2.5664 2.2344 4.1914 2.2344 0.96484 0 1.9336-0.27734 2.793-0.85156l6.2773-4.1992c2.3164-1.543 2.9414-4.668 1.3906-6.9844z"/>
  <path d="m359.77 396.79c-1.5508-2.3164-4.6797-2.9297-6.9883-1.3867l-6.2773 4.1992c-2.3125 1.5469-2.9375 4.6758-1.3867 6.9883 0.96875 1.4531 2.5664 2.2344 4.1914 2.2344 0.96484 0 1.9336-0.27734 2.793-0.85156l6.2773-4.1992c2.3164-1.543 2.9414-4.668 1.3906-6.9844z"/>
  <path d="m340.1 424.34c-1.543-2.3164-4.6797-2.9336-6.9883-1.3867l-6.2773 4.1992c-2.3125 1.5469-2.9375 4.6758-1.3867 6.9883 0.96875 1.4531 2.5664 2.2344 4.1914 2.2344 0.96484 0 1.9336-0.27734 2.793-0.85156l6.2773-4.1992c2.3164-1.5391 2.9414-4.668 1.3906-6.9844z"/>
  <path d="m533.27 385.73c1.2344-0.55859 2.1953-1.5898 2.6602-2.8594 0.46094-1.2734 0.39844-2.6797-0.1875-3.9023-8.1914-17.164-23.516-29.973-42.59-35.992l2.2188-18.785c0.023438-0.19531 0.035156-0.39453 0.035156-0.58984 0-11.285-9.0625-20.465-20.203-20.465s-20.203 9.1797-20.203 20.465c0 0.18359 0.011719 0.37109 0.03125 0.55469l2.0547 18.543c-18.441 5.2461-33.996 18.328-42.422 36.129-0.60156 1.2656-0.64844 2.7266-0.12891 4.0273 0.52344 1.3008 1.5586 2.3281 2.8672 2.832 0.125 0.046875 0.64062 0.23828 1.4219 0.49609-2.9219 8.1523-4.4922 16.746-4.4922 25.676 0 38.5 27.152 85.004 60.871 85.004 33.723 0 60.875-46.5 60.875-85.004 0-8.8555-1.5469-17.387-4.4219-25.48 0.89453-0.33984 1.4805-0.58984 1.6133-0.64844zm-58.062-72.52c5.4961 0 9.9844 4.5156 10.121 10.121l-2.0352 17.242c-6.7148-0.98438-12.914-0.45703-16.297 0.015625l-1.9102-17.242c0.12891-5.6133 4.6211-10.137 10.121-10.137zm-9 37.719c0.089843-0.015626 9.1953-1.9258 18.008 0.015624 17.137 3.7812 31.305 13.605 39.695 27.312-6.6992 1.7422-18.746 3.3906-29.746-2.9141-1.418-0.8125-3.1484-0.89062-4.625-0.19922-1.4844 0.6875-2.5391 2.0547-2.832 3.6602-1.4336 7.7969-4.5742 18.129-11.484 25.73-7.0508-7.75-10.188-18.332-11.582-26.312-0.28906-1.6367-1.3672-3.0312-2.8828-3.7188-0.66406-0.30078-1.3711-0.44922-2.082-0.44922-0.91016 0-1.8164 0.24609-2.6133 0.73047-10.031 6.0898-22.414 4.6602-29.457 3.0781 8.6523-14.281 23.012-24.176 39.602-26.934zm59.801 60.93c0 33.027-23.918 74.926-50.801 74.926-26.879 0-50.793-41.898-50.793-74.926 0-8.1484 1.4883-15.965 4.2773-23.328 7.25 1.1602 17.016 1.5 26.414-2.1055 2.5156 9.7305 7.3945 21.027 16.891 28.949 0.93359 0.78125 2.082 1.1719 3.2266 1.1719 1.1445 0 2.293-0.39062 3.2266-1.1719 9.3398-7.793 14.211-18.875 16.746-28.418 9.8672 3.7773 19.562 3.3711 26.715 2.0703 2.668 7.2188 4.0977 14.871 4.0977 22.832z"/>
  <path d="m441.05 412.83c0.89844 1.7227 2.6562 2.7148 4.4766 2.7148 0.78125 0 1.5742-0.18359 2.3164-0.56641 2.4688-1.2812 3.4297-4.3242 2.1484-6.793l-3.4883-6.7109c-1.2852-2.4648-4.3242-3.4336-6.793-2.1445-2.4688 1.2812-3.4297 4.3242-2.1484 6.793z"/>
  <path d="m470.06 462.76c-1.2852-2.4688-4.3203-3.4375-6.793-2.1484-2.4688 1.2812-3.4297 4.3242-2.1484 6.793l3.4883 6.7148c0.89844 1.7266 2.6562 2.7148 4.4766 2.7148 0.78125 0 1.5742-0.18359 2.3164-0.56641 2.4688-1.2812 3.4297-4.3242 2.1484-6.793z"/>
  <path d="m505.48 416.92c-2.4648 1.2852-3.4258 4.3281-2.1406 6.793l3.4922 6.7148c0.89453 1.7266 2.6523 2.7148 4.4727 2.7148 0.78125 0 1.5781-0.18359 2.3203-0.56641 2.4648-1.2852 3.4258-4.3281 2.1406-6.793l-3.4922-6.7148c-1.2812-2.4727-4.3242-3.4297-6.793-2.1484z"/>
  <path d="m494.84 443.54c-1.2773-2.4688-4.3242-3.4297-6.793-2.1445-2.4648 1.2852-3.4258 4.3281-2.1406 6.793l3.4922 6.7148c0.89453 1.7266 2.6523 2.7148 4.4727 2.7148 0.78125 0 1.5781-0.18359 2.3203-0.56641 2.4648-1.2852 3.4258-4.3281 2.1406-6.793z"/>
  <path d="m464.5 444.66c1.2344-2.4961 0.21094-5.5156-2.2812-6.7461-2.5-1.2305-5.5195-0.20703-6.75 2.2852l-3.3555 6.7773c-1.2344 2.4961-0.21094 5.5156 2.2812 6.7461 0.71875 0.35547 1.4805 0.52344 2.2305 0.52344 1.8594 0 3.6445-1.0273 4.5234-2.8086z"/>
  <path d="m451.1 425.3c-1.543-2.3164-4.6836-2.9336-6.9883-1.3867l-6.2773 4.1992c-2.3125 1.5469-2.9375 4.6758-1.3867 6.9883 0.96875 1.4531 2.5664 2.2344 4.1914 2.2344 0.96484 0 1.9336-0.27734 2.793-0.85156l6.2773-4.1992c2.3164-1.543 2.9414-4.668 1.3906-6.9844z"/>
  <path d="m510.2 396.79c-1.5508-2.3164-4.6758-2.9297-6.9883-1.3867l-6.2773 4.1992c-2.3125 1.5469-2.9375 4.6758-1.3867 6.9883 0.96875 1.4531 2.5664 2.2344 4.1914 2.2344 0.96484 0 1.9336-0.27734 2.793-0.85156l6.2773-4.1992c2.3164-1.543 2.9414-4.668 1.3906-6.9844z"/>
  <path d="m490.53 424.34c-1.543-2.3164-4.6797-2.9336-6.9883-1.3867l-6.2773 4.1992c-2.3125 1.5469-2.9375 4.6758-1.3867 6.9883 0.96875 1.4531 2.5664 2.2344 4.1914 2.2344 0.96484 0 1.9336-0.27734 2.793-0.85156l6.2773-4.1992c2.3164-1.5391 2.9414-4.668 1.3906-6.9844z"/>
 </g>
</svg>