<?xml version="1.0" encoding="UTF-8"?>
<!-- The Best Svg Icon site in the world: iconSvg.co, Visit us! https://iconsvg.co -->
<svg fill="#000000" width="800px" height="800px" version="1.1" viewBox="144 144 512 512" xmlns="http://www.w3.org/2000/svg">
 <g>
  <path d="m406.92 295.95c0.98438 0.98438 2.2734 1.4766 3.5625 1.4766s2.5781-0.49219 3.5625-1.4766c1.9688-1.9688 1.9688-5.1562 0-7.125l-8.8945-8.8945c-1.9688-1.9688-5.1562-1.9688-7.125 0s-1.9688 5.1562 0 7.125z"/>
  <path d="m431.67 320.71c0.98438 0.98438 2.2734 1.4766 3.5625 1.4766s2.5781-0.49219 3.5625-1.4766c1.9688-1.9688 1.9688-5.1562 0-7.125l-8.8945-8.8945c-1.9688-1.9688-5.1562-1.9688-7.125 0s-1.9688 5.1562 0 7.125z"/>
  <path d="m539.01 241.43c0.98438 0.98438 2.2734 1.4766 3.5625 1.4766 1.2891 0 2.5781-0.49219 3.5625-1.4766 1.9688-1.9648 1.9688-5.1562 0-7.125l-8.8945-8.8984c-1.9688-1.9688-5.1562-1.9688-7.125 0-1.9688 1.9648-1.9688 5.1562 0 7.125z"/>
  <path d="m563.77 266.19c0.98438 0.98047 2.2734 1.4727 3.5625 1.4727 1.2891 0 2.5781-0.49219 3.5625-1.4766 1.9688-1.9688 1.9688-5.1602 0-7.125l-8.8984-8.8945c-1.9688-1.9648-5.1562-1.9648-7.125 0.003907s-1.9688 5.1602 0 7.125z"/>
  <path d="m596.48 198.48h-260.88c-2.7852 0-5.0391 2.2539-5.0391 5.0391v49.48l-127.05-0.003906c-2.7852 0-5.0391 2.2539-5.0391 5.0391l0.003906 338.45c0 2.7812 2.2539 5.0391 5.0391 5.0391h260.88c2.7852 0 5.0391-2.2539 5.0391-5.0391v-49.48h127.05c2.7852 0 5.0391-2.2539 5.0391-5.0391v-338.45c0-2.7812-2.2539-5.0352-5.0391-5.0352zm-255.84 10.074h165.49l8.1289 8.1289c0.98438 0.98437 2.2734 1.4766 3.5625 1.4766 1.2891 0 2.5781-0.49219 3.5625-1.4766 1.9688-1.9688 1.9688-5.1562 0-7.125l-1.0039-1.0039h71.062v71.062l-4.6953-4.6953c-1.9688-1.9688-5.1562-1.9688-7.125 0-1.9688 1.9648-1.9688 5.1562 0 7.125l3.4961 3.4961h-113.69v-27.508c0-2.7812-2.2539-5.0391-5.0391-5.0391h-123.75zm33.395 54.52 8.1289 8.1289c0.98438 0.98438 2.2734 1.4766 3.5625 1.4766 1.2891 0 2.5781-0.49219 3.5625-1.4766 1.9688-1.9688 1.9688-5.1562 0-7.125l-1.0039-1.0039h71.066v71.062l-4.6953-4.6953c-1.9688-1.9688-5.1562-1.9688-7.125 0-1.9688 1.9648-1.9688 5.1562 0 7.125l3.4961 3.4961h-242.48v-76.988zm-165.49 328.38v-241.31h250.8l0.003907 241.31zm260.88-54.52v-241.31h122.02v241.31z"/>
  <path d="m334.5 387.86c-46.535 0-84.387 37.855-84.387 84.387s37.855 84.387 84.387 84.387c46.535 0 84.387-37.855 84.387-84.387s-37.855-84.387-84.387-84.387zm0 158.7c-40.973 0-74.312-33.336-74.312-74.312 0-40.973 33.34-74.309 74.312-74.309s74.312 33.336 74.312 74.309c0 40.977-33.34 74.312-74.312 74.312z"/>
  <path d="m334.5 415.75c-2.7852 0-5.0391 2.2539-5.0391 5.0391v16.992c0 2.7812 2.2539 5.0391 5.0391 5.0391s5.0391-2.2539 5.0391-5.0391v-16.992c0-2.7812-2.2539-5.0391-5.0391-5.0391z"/>
  <path d="m301.68 432.3c-1.9688-1.9688-5.1562-1.9688-7.125 0s-1.9688 5.1562 0 7.125l12.016 12.016c0.98438 0.98438 2.2734 1.4766 3.5625 1.4766 1.2891 0 2.5781-0.49219 3.5625-1.4766 1.9688-1.9688 1.9688-5.1562 0-7.125z"/>
  <path d="m305.08 472.25c0-2.7812-2.2539-5.0391-5.0391-5.0391h-16.988c-2.7852 0-5.0391 2.2539-5.0391 5.0391 0 2.7812 2.2539 5.0391 5.0391 5.0391h16.988c2.7852 0 5.0391-2.2578 5.0391-5.0391z"/>
  <path d="m306.57 493.05-12.016 12.016c-1.9688 1.9688-1.9688 5.1562 0 7.125 0.98438 0.98438 2.2734 1.4766 3.5625 1.4766 1.2891 0 2.5781-0.49219 3.5625-1.4766l12.016-12.016c1.9688-1.9688 1.9688-5.1562 0-7.125s-5.1602-1.9688-7.125 0z"/>
  <path d="m334.5 501.67c-2.7852 0-5.0391 2.2539-5.0391 5.0391v16.992c0 2.7812 2.2539 5.0391 5.0391 5.0391s5.0391-2.2539 5.0391-5.0391v-16.992c0-2.7852-2.2539-5.0391-5.0391-5.0391z"/>
  <path d="m362.43 493.05c-1.9688-1.9688-5.1562-1.9688-7.125 0s-1.9688 5.1562 0 7.125l12.016 12.016c0.98438 0.98438 2.2734 1.4766 3.5625 1.4766 1.2891 0 2.5781-0.49219 3.5625-1.4766 1.9688-1.9688 1.9688-5.1562 0-7.125z"/>
  <path d="m368.97 467.21c-2.7852 0-5.0391 2.2539-5.0391 5.0391 0 2.7812 2.2539 5.0391 5.0391 5.0391h16.988c2.7852 0 5.0391-2.2539 5.0391-5.0391 0-2.7812-2.2539-5.0391-5.0391-5.0391z"/>
  <path d="m358.87 452.91c1.2891 0 2.5781-0.49219 3.5625-1.4766l12.016-12.016c1.9688-1.9688 1.9688-5.1562 0-7.125s-5.1562-1.9688-7.125 0l-12.016 12.016c-1.9688 1.9688-1.9688 5.1562 0 7.125 0.98438 0.98438 2.2734 1.4766 3.5625 1.4766z"/>
 </g>
</svg>