<?xml version="1.0" encoding="UTF-8"?>
<!-- The Best Svg Icon site in the world: iconSvg.co, Visit us! https://iconsvg.co -->
<svg fill="#000000" width="800px" height="800px" version="1.1" viewBox="144 144 512 512" xmlns="http://www.w3.org/2000/svg">
 <path d="m453.58 270.71c-12.121 0-23.348 3.832-32.594 10.309l6.918-52.312c0.03125-0.21875 0.042968-0.4375 0.042968-0.66016 0-16.305-13.266-29.566-29.566-29.566-10.395 0-19.531 5.4023-24.809 13.531-0.71875-0.76172-1.4805-1.5312-2.4336-2.4844l-1.0781-1.0742c-5.8711-5.8711-12.793-11.594-19.559-9.5586-6.6484 2.0039-8.793 9.7734-10.898 19.902-23.902-10.406-60.195-12.434-61.863-12.52-1.4062-0.046876-2.8203 0.46094-3.8281 1.4688-1.0078 1.0078-1.543 2.4023-1.4727 3.8281 0.089844 1.6641 2.1172 37.961 12.527 61.863-10.129 2.1055-17.902 4.25-19.906 10.898-2.0352 6.7695 3.6914 13.684 9.5586 19.555 4.8555 4.8594 10.207 9.1406 15.891 12.797-0.70312 3.5703-1.0898 7.25-1.0898 11.023 0 4.8125 0.66406 9.4609 1.793 13.926-30.504 1.0586-55.012 26.141-55.012 56.898 0 30.895 24.719 56.066 55.41 56.918-1.457 5.082-2.1914 10.348-2.1914 15.715 0 31.094 25.035 56.406 56 56.949-1.5938 5.3008-2.4219 10.801-2.4219 16.418 0.003906 31.422 25.574 56.992 57.004 56.992s57-25.57 57-57c0-5.6211-0.82422-11.117-2.4219-16.418 30.965-0.53906 56-25.855 56-56.949 0-5.3633-0.74609-10.625-2.2031-15.715 30.695-0.84375 55.422-26.02 55.422-56.918 0-30.758-24.508-55.84-55.012-56.898 1.1289-4.4648 1.793-9.1133 1.793-13.926-0.003906-31.426-25.57-56.992-57-56.992zm0 10.074c25.875 0 46.922 21.051 46.922 46.922s-21.047 46.922-46.922 46.922-46.922-21.051-46.922-46.922 21.047-46.922 46.922-46.922zm-6.2969 117.75c0 25.871-21.047 46.922-46.922 46.922s-46.922-21.051-46.922-46.922c0-5.0234 0.82031-9.9453 2.375-14.668 20.5-3.418 37.293-17.789 44.188-36.898 6.9766 19.348 24.102 33.828 44.949 37.016 1.5234 4.6797 2.332 9.5625 2.332 14.551zm-48.902-189.98c10.641 0 19.316 8.5742 19.484 19.18l-8.4609 64.02c-4.0312 4.9414-7.1992 10.59-9.4023 16.699-2.4883-6.9062-6.2617-13.184-11.051-18.562l-10.055-62.227c0.19922-10.574 8.8633-19.109 19.484-19.109zm-5.0391 119.15c0 25.871-21.047 46.922-46.922 46.922s-46.922-21.051-46.922-46.922 21.047-46.922 46.922-46.922 46.922 21.051 46.922 46.922zm-111.59-30.945c-7-7-7.0312-9.418-7.0742-9.4258 1.1523-1.7695 9.7227-3.5117 15.395-4.6602l3.3242-0.67969c1.5742-0.32422 2.8984-1.3828 3.5625-2.8438 0.66406-1.4648 0.59375-3.1562-0.19141-4.5547-9.2461-16.461-12.723-45.539-13.82-57.824 12.285 1.0938 41.344 4.5625 57.828 13.816 1.3984 0.78516 3.0859 0.85937 4.5508 0.19141 1.4648-0.66797 2.5195-1.9883 2.8477-3.5625l0.67578-3.3203c1.1523-5.6719 2.8945-14.246 4.5-15.344 0.18359 0.011719 2.5625-0.007812 9.5938 7.0195l1.0938 1.0938c2.4648 2.4531 3.3828 3.3945 5.293 6.0156-0.32031 1.7422-0.51172 3.5312-0.51172 5.3633 0 0.26953 0.019531 0.53906 0.0625 0.80469l8.2266 50.898c-8.8672-5.6953-19.383-9.0391-30.68-9.0391-23.922 0-44.414 14.828-52.855 35.766-4.168-2.8984-8.1758-6.0703-11.82-9.7148zm-35.469 101.77c0-25.871 21.047-46.922 46.922-46.922 0.5 0 0.95312-0.14844 1.4102-0.28516 7.8477 17.145 23.93 29.707 43.172 32.656 1.5312 4.6953 2.3398 9.5742 2.3398 14.551 0 25.871-21.047 46.922-46.922 46.922s-46.922-21.051-46.922-46.922zm53.219 72.633c0-5.6797 1.0234-11.211 2.9922-16.461 20.547-3.3906 37.387-17.773 44.289-36.918 6.8164 18.898 23.305 33.168 43.492 36.793 2.0039 5.2969 3.0703 10.855 3.0703 16.582 0 25.871-21.047 46.922-46.922 46.922-25.871 0.003906-46.922-21.047-46.922-46.918zm100.5 120.29c-25.875 0-46.922-21.051-46.922-46.922 0-5.9766 1.1094-11.793 3.2891-17.293 20.25-3.5859 36.801-17.875 43.633-36.816 6.8242 18.926 23.355 33.211 43.59 36.809 2.1875 5.5078 3.332 11.316 3.332 17.301 0 25.871-21.051 46.922-46.922 46.922zm53.578-73.363c-25.875 0-46.922-21.051-46.922-46.922 0-5.6758 1.0195-11.207 2.9922-16.461 20.195-3.332 36.812-17.281 43.93-35.938 7.1211 18.656 23.734 32.605 43.938 35.938 1.9727 5.2578 2.9883 10.789 2.9883 16.457-0.003906 25.875-21.051 46.926-46.926 46.926zm100.14-119.55c0 25.871-21.047 46.922-46.922 46.922s-46.922-21.051-46.922-46.922c0-4.9766 0.8125-9.8594 2.3398-14.551 19.121-2.9258 35.113-15.348 43.016-32.324 0.52344-0.015625 1.043-0.046875 1.5664-0.046875 25.875 0 46.922 21.051 46.922 46.922z"/>
</svg>