<?xml version="1.0" encoding="UTF-8"?>
<!-- The Best Svg Icon site in the world: iconSvg.co, Visit us! https://iconsvg.co -->
<svg width="800px" height="800px" version="1.1" viewBox="144 144 512 512" xmlns="http://www.w3.org/2000/svg">
 <defs>
  <clipPath id="a">
   <path d="m148.09 186h503.81v428h-503.81z"/>
  </clipPath>
 </defs>
 <g clip-path="url(#a)">
  <path d="m631.67 417.55c5.3672 0 10.512-2.1328 14.305-5.9258 3.7969-3.7969 5.9258-8.9414 5.9258-14.309v-66.281c0-5.3633-2.1289-10.512-5.9258-14.305-3.793-3.793-8.9375-5.9258-14.305-5.9258h-21.961v-55.105c-0.027344-2.2734-0.83203-4.4688-2.2852-6.2188l-50.539-59.434c-1.8242-2.1484-4.5-3.3867-7.3203-3.3867-2.8203 0-5.4961 1.2383-7.3203 3.3867l-50.539 59.199c-1.4727 1.7656-2.2812 3.9961-2.2812 6.2969v55.105h-29.285v-55.105c0.015625-2.2812-0.79688-4.4883-2.2812-6.2188l-50.539-59.277c-1.8242-2.1484-4.5039-3.3867-7.3203-3.3867-2.8203 0-5.4961 1.2383-7.3242 3.3867l-50.539 59.199h0.003906c-1.4766 1.7656-2.2852 3.9961-2.2852 6.2969v55.105h-29.281v-55.105c0.011719-2.2812-0.79688-4.4883-2.2852-6.2188l-50.539-59.277c-1.8242-2.1484-4.5-3.3867-7.3203-3.3828-2.8125 0.019531-5.4805 1.2539-7.3203 3.3828l-50.539 59.199c-1.4414 1.7852-2.2422 4.0039-2.2812 6.2969v55.105h-21.965c-5.3906 0-10.562 2.1523-14.359 5.9805-3.8008 3.8281-5.9141 9.0156-5.8711 14.406v66.281c0 5.3672 2.1328 10.512 5.9258 14.309 3.793 3.793 8.9414 5.9258 14.305 5.9258h21.965v32.039h-21.965c-5.3594 0.019531-10.492 2.1562-14.281 5.9453-3.7891 3.793-5.9297 8.9258-5.9492 14.285v66.359c0 5.3672 2.1328 10.512 5.9258 14.305 3.793 3.7969 8.9414 5.9258 14.305 5.9258h21.965v47.234c0 2.5664 1.0195 5.0312 2.8359 6.8477 1.8164 1.8125 4.2773 2.8359 6.8438 2.8359h101c2.5586 0 5.0156-1.0234 6.8203-2.8438 1.8008-1.8164 2.8047-4.2812 2.7852-6.8398v-47.23h29.285v47.23h-0.003906c0 5.3164 4.2891 9.6406 9.6055 9.6836h101.07c5.3203-0.042969 9.6055-4.3672 9.6055-9.6836v-47.23h29.285v47.23c-0.023437 2.5586 0.98047 5.0234 2.7852 6.8398 1.8008 1.8203 4.2578 2.8438 6.8164 2.8438h101c5.3477 0 9.6836-4.3359 9.6836-9.6836v-47.23h21.965l-0.003906-0.003907c5.3672 0 10.512-2.1289 14.305-5.9258 3.7969-3.793 5.9258-8.9375 5.9258-14.305v-66.359c-0.019532-5.3594-2.1562-10.492-5.9492-14.285-3.7891-3.7891-8.9219-5.9258-14.281-5.9453h-21.961v-32.039zm-123.04-158.46 40.934-48.02 40.855 47.941v51.719h-81.789zm-149.57 0 40.938-48.02 40.855 47.941v51.719h-81.711zm-149.57 0 40.938-48.02 40.934 47.941v51.719h-81.789zm81.871 334.95h-81.789v-37.629h81.789zm149.57 0h-81.789v-37.629h81.711zm149.57 0h-81.871v-37.629h81.789zm41.25-125.16h-0.003906c0.25 0 0.49219 0.097656 0.66797 0.27734 0.17969 0.17578 0.27734 0.41797 0.27734 0.66797v66.359c0 0.25-0.097656 0.49219-0.27734 0.66797-0.17578 0.17969-0.41797 0.27734-0.66797 0.27734h-463.43c-0.51953 0-0.94531-0.42188-0.94531-0.94531v-66.359c0-0.52344 0.42578-0.94531 0.94531-0.94531zm-422.18-19.285v-32.039h81.789v32.039zm101 0v-32.039h29.285l-0.003906 32.039zm48.57 0v-32.039h81.711v32.039zm101 0-0.003906-32.039h29.285v32.039zm48.492 0-0.003907-32.039h81.789v32.039zm-340.31-51.25c-0.26562 0.003906-0.51562-0.10938-0.69531-0.30078-0.17969-0.19531-0.26953-0.45703-0.25-0.72266v-66.281c-0.019531-0.26172 0.070313-0.52344 0.25-0.71875 0.17969-0.19531 0.42969-0.30469 0.69531-0.30469h463.35c0.26562 0 0.51953 0.10938 0.69922 0.30469 0.17969 0.19531 0.26953 0.45703 0.24609 0.71875v66.281c0.023437 0.26563-0.066407 0.52734-0.24609 0.72266-0.17969 0.19141-0.43359 0.30469-0.69922 0.30078z"/>
 </g>
 <path d="m250.43 350.09c-5.6992 0-10.836 3.4336-13.02 8.6992-2.1797 5.2656-0.97266 11.324 3.0547 15.355 4.0312 4.0312 10.094 5.2344 15.359 3.0547 5.2617-2.1797 8.6953-7.3203 8.6953-13.02 0-7.7812-6.3086-14.09-14.09-14.09z"/>
 <path d="m250.43 517.13c5.7461 0.035157 10.941-3.4062 13.156-8.7109 2.2109-5.3008 1.0039-11.414-3.0586-15.477s-10.176-5.2695-15.477-3.0547c-5.3047 2.2109-8.7422 7.4062-8.7109 13.152 0 7.7812 6.3086 14.09 14.09 14.09z"/>
 <path d="m400 350.09c-5.6992 0-10.84 3.4336-13.02 8.6992-2.1797 5.2656-0.97656 11.324 3.0547 15.355s10.09 5.2344 15.355 3.0547c5.2656-2.1797 8.6992-7.3203 8.6992-13.02 0-7.7812-6.3086-14.09-14.09-14.09z"/>
 <path d="m400 517.13c5.7422 0.035157 10.941-3.4062 13.152-8.7109 2.2148-5.3008 1.0078-11.414-3.0547-15.477s-10.176-5.2695-15.48-3.0547c-5.3008 2.2109-8.7422 7.4062-8.7109 13.152 0 7.7812 6.3086 14.09 14.094 14.09z"/>
 <path d="m549.57 350.09c-5.6992 0-10.836 3.4336-13.02 8.6992-2.1797 5.2656-0.97266 11.324 3.0547 15.355 4.0312 4.0312 10.094 5.2344 15.359 3.0547 5.2656-2.1797 8.6953-7.3203 8.6953-13.02 0-7.7812-6.3086-14.09-14.09-14.09z"/>
 <path d="m549.57 517.13c5.7461 0.035157 10.941-3.4062 13.156-8.7109 2.2109-5.3008 1.0039-11.414-3.0586-15.477s-10.176-5.2695-15.477-3.0547c-5.3008 2.2109-8.7422 7.4062-8.7109 13.152 0 7.7812 6.3086 14.09 14.09 14.09z"/>
</svg>