<?xml version="1.0" encoding="UTF-8"?>
<!-- The Best Svg Icon site in the world: iconSvg.co, Visit us! https://iconsvg.co -->
<svg fill="#000000" width="800px" height="800px" version="1.1" viewBox="144 144 512 512" xmlns="http://www.w3.org/2000/svg">
 <g>
  <path d="m267.91 399.21h12.91v41.562h-12.91z"/>
  <path d="m296.56 399.21h12.91v41.562h-12.91z"/>
  <path d="m338.12 411.65v-12.438h-12.91v41.566h12.91z"/>
  <path d="m353.87 399.21h12.91v41.562h-12.91z"/>
  <path d="m395.27 411.65v-12.438h-12.75v41.566h12.75z"/>
  <path d="m411.02 399.21h12.91v41.562h-12.91z"/>
  <path d="m452.58 411.65v-12.438h-12.91v41.566h12.91z"/>
  <path d="m468.33 399.21h12.91v41.562h-12.91z"/>
  <path d="m496.98 399.21h12.91v41.562h-12.91z"/>
  <path d="m274.36 448.65 7.875 7.8711 20.781 20.781h171.77l14.328-14.324 14.328-14.328z"/>
  <path d="m286.33 471.79-40.621 148.62 67.699-135.24h-13.699z"/>
  <path d="m478.09 485.17h-13.699l67.699 135.24-40.617-148.62z"/>
  <path d="m388.98 620.41 13.383-135.24h-26.922z"/>
  <path d="m517.77 342.06v-22.199h-13.699v28.5h13.699z"/>
  <path d="m339.54 291.21h163.89l-12.598-7.8711-101.86-63.766-102.02 63.766-12.598 7.8711z"/>
  <path d="m496.2 391.34v-92.262h-42.195v92.262z"/>
  <path d="m438.26 391.34v-92.262h-41.406v92.262z"/>
  <path d="m381.11 391.34v-92.262h-41.562v92.262z"/>
  <path d="m323.8 391.34v-92.262h-42.195v92.262z"/>
  <path d="m546.42 326.32h-20.781v15.742h12.91v20.625c0 4.4102 3.4648 7.8711 7.8711 7.8711 4.25 0 7.8711-3.4648 7.8711-7.8711v-28.496c0-4.4062-3.6211-7.8711-7.8711-7.8711z"/>
 </g>
</svg>