<?xml version="1.0" encoding="UTF-8"?>
<!-- The Best Svg Icon site in the world: iconSvg.co, Visit us! https://iconsvg.co -->
<svg fill="#000000" width="800px" height="800px" version="1.1" viewBox="144 144 512 512" xmlns="http://www.w3.org/2000/svg">
 <path d="m636.16 396.06c-0.023437-17.051-6.5508-33.449-18.254-45.852-11.707-12.398-27.703-19.859-44.723-20.863v-0.19922c0-6.2617-2.4883-12.27-6.918-16.695-4.4297-4.4297-10.434-6.918-16.699-6.918h-47.23v-55.105c0-14.062-7.5039-27.055-19.68-34.086-12.18-7.0312-27.184-7.0312-39.363 0-12.176 7.0312-19.68 20.023-19.68 34.086v55.105h-47.23c-6.2656 0-12.27 2.4883-16.699 6.918-4.4297 4.4258-6.918 10.434-6.918 16.695v65.504l-93.109-50.434c2.2734-16.977-3.4883-34.039-15.586-46.164-3.0742-3.0703-8.0586-3.0703-11.133 0l-66.793 66.805c-3.0742 3.0742-3.0742 8.0547 0 11.129 7.1094 7.1016 16.027 12.129 25.785 14.535 9.7578 2.4062 19.988 2.0977 29.586-0.88281l131.25 116.24v59.434c0 6.2617 2.4883 12.27 6.918 16.699 4.4297 4.4258 10.434 6.9141 16.699 6.9141h173.18c6.2656 0 12.27-2.4883 16.699-6.9141 4.4297-4.4297 6.918-10.438 6.918-16.699v-102.54c17.02-1.0039 33.016-8.4648 44.723-20.863 11.703-12.402 18.23-28.801 18.254-45.852zm-196.8-145.63c0-8.4375 4.5-16.234 11.809-20.453 7.3047-4.2188 16.309-4.2188 23.613 0 7.3086 4.2188 11.809 12.016 11.809 20.453v55.105h-47.23zm-62.977 70.848h173.18c2.0898 0 4.0898 0.83203 5.5664 2.3047 1.4766 1.4766 2.3047 3.4805 2.3047 5.5664v196.62h-188.93v-196.62c0-4.3477 3.5234-7.8711 7.8711-7.8711zm-192.99 48.586 54.555-54.547v0.003906c6.7344 10.172 8.375 22.891 4.4336 34.434-3.9375 11.547-13.004 20.613-24.551 24.551s-24.266 2.2969-34.438-4.4414zm53.355 12.227h0.003906c2.6094-1.8203 5.0586-3.8594 7.3203-6.1016 4.6797-4.6953 8.4648-10.203 11.168-16.254l97.527 52.859v72.289zm312.82 191.09h-173.18c-4.3477 0-7.8711-3.5234-7.8711-7.8711v-23.797h188.93v23.797c0 2.0859-0.82812 4.0898-2.3047 5.5664-1.4766 1.4766-3.4766 2.3047-5.5664 2.3047zm23.617-126.1v-102.04c17.301 1.3281 32.75 11.328 41.039 26.574 8.293 15.242 8.293 33.648 0 48.891-8.2891 15.246-23.738 25.246-41.039 26.574z"/>
</svg>