<?xml version="1.0" encoding="UTF-8"?>
<!-- The Best Svg Icon site in the world: iconSvg.co, Visit us! https://iconsvg.co -->
<svg fill="#000000" width="800px" height="800px" version="1.1" viewBox="144 144 512 512" xmlns="http://www.w3.org/2000/svg">
 <g>
  <path d="m308.56 481.02 5.2305 3.6484c1.1562-4.9375 0.15625-10.133-2.75-14.285-2.125-3.1797-4.0391-6.5-5.7266-9.9297-0.23047-1.6641-0.078125-3.3555 0.44141-4.9531 1.8789 0.089844 3.707 0.63672 5.3281 1.5938 2.4414 2.8984 3.9297 6.5859 6.2812 9.5781 2.8633 3.6445 6.2422 2.9492 7.8398-1.4531v0.003906c1.375-5.1367 0.25391-10.621-3.0312-14.801-1.3555-1.8047-2.543-3.7344-3.543-5.7617-0.24219-1.707-0.17187-3.4453 0.21484-5.1289 1.9375 0.26172 3.8086 0.90234 5.5039 1.8828 1.8711 1.7109 2.625 4.6875 4.5586 6.2773l-0.003906 0.003907c1.9727 1.8477 4.5547 2.918 7.2578 3 1.9805-1.4297 3.2891-3.6133 3.6133-6.0352 0.94141-4.1016 3.2891-8.8047-2.7031-11.625l0.003906-0.003906c-1.1445-1.0938-1.7891-2.6094-1.7773-4.1953-0.86328-12.102-8.457-20.23-16.445-28.102-1.0312-1.0195-2.957-1.0781-4.1445-2.0039v0.003906c-1.5-0.92969-2.6641-2.3086-3.3281-3.9414-0.1875-1.6758 0.48828-3.3359 1.7891-4.4062 1.6445-0.32812 3.3438 0.14453 4.5859 1.2734 9.0391 7.4492 16.391 16.738 21.566 27.246 2.2891 4.8828 4.9805 9.5664 8.0469 14 7.9688 12.027 11.176 26.586 9 40.848-1.2656 8.6094-1.918 17.332-3.6602 25.836-1.5195 7.4023-4.2812 14.543-6.2344 21.871h0.003907c-0.17188 1.4492 0.30078 2.8984 1.293 3.9648 7.6641 7.3281 16.418 13.418 25.953 18.055 10.895 5.4922 23.051 8 35.23 7.2773 4.0664-0.125 5.2695-1.6992 3.0234-4.9805-1.7344-2.5352-4.3555-4.4492-6.2344-6.9062v-0.003906c-1.5273-2.2773-2.9102-4.6484-4.1328-7.1016 4.2773-1.8594 9.2695-0.35156 11.801 3.5664 0.79297 1.3281 2.1133 2.2539 3.6328 2.543 1.5195 0.28906 3.0859-0.089844 4.3125-1.0352-0.73047-4.0898-3.3711-7.5859-7.1094-9.4062-3.3203-1.7578-8.8789-3.7383-5.7305-8.5859 3.1641-4.8711 6.4219 0.69531 9.6016 1.9492l0.003906 0.003907c3.0703 1.4375 6.2695 2.5859 9.5586 3.4258 1.2383 0.24219 2.5117-0.14453 3.4062-1.0312 0.89453-0.89062 1.2891-2.1641 1.0547-3.4023 0.74609-5.2734-2.0938-10.402-6.9609-12.574-9.7344-5.2344-18.887-11.496-27.289-18.68-5.4336-5.8555-10.023-12.441-13.645-19.562-0.91797-2.6289-1.4102-5.3867-1.4609-8.1719-3.2227-2.4062-6.5742-4.6367-10.039-6.6797-8.3398-4.8438-14.727-12.445-18.062-21.496-2.7578-6.3711-6.3086-12.441-8.6211-18.957-2.3398-6.6914-4.0977-13.57-5.2578-20.562-0.71875-5.8906-1.0977-11.816-1.1289-17.754-0.35938-6.957-1.0664-13.926-0.91016-20.875 0.19141-8.5117 1.2109-17.004 1.6992-25.516 0.26562-4.6289 0.71484-9.2539-4.6289-12.141v0.003906c-0.92969-2.2344-1.293-4.6641-1.0625-7.0703-3.0547-0.082031-6.1055-0.32031-9.1328-0.72266-6.6523-1.1641-7.9609-5.0781-3.4453-10.172 2.1875-2.4688 4.7031-4.6484 7.4688-7.3477v0.003907c-2.625-0.89844-5.1367-2.0938-7.4883-3.5703-1.7695-1.293-2.8984-3.2812-3.1055-5.4609 0.96875-1.8945 2.6172-3.3555 4.6133-4.0898 3.375-1.75 7.1172-2.8125 10.43-4.6602v0.003906c1.1562-1.1484 1.9414-2.6133 2.2617-4.207 1.8242-6.1133 4.0625-12.098 6.7031-17.906 1.7227-3.2148 4.4883-5.7461 7.8477-7.1758 3.3555-1.4258 7.1016-1.6641 10.613-0.67188 7.9414 1.2031 16.055 0.62109 23.746-1.707 4.9492-0.73047 9.9727-0.80469 14.945-0.22266 1.5352 0.61719 2.918 1.5625 4.0469 2.7695l-8.1211 11.977c3.4922 0.66406 6.2148 1.3086 8.9766 1.6758 5.082 0.67578 6.1445 2.4258 4.6016 7.4023-1.832 5.9062-3.4961 11.867-5.1719 17.824-0.31641 0.82031-0.34766 1.7227-0.082031 2.5625 4.5898 8.3398 8.0625 17.695 17.895 21.625 6.5469 2.6172 13.25 4.8438 19.82 7.4062h-0.003907c2.5977 0.98438 5.0859 2.2305 7.4297 3.7188 13.738 8.8867 27.484 17.77 41.07 26.883h0.003907c9.7461 6.1016 19.121 12.773 28.078 19.992 7.1719 6.8945 13.898 14.246 20.133 22.004 1.168 1.3008 2.1172 2.8242 3.3945 3.9961 2.3203 2.125 3.6641 2.6133 7.1523-0.015625 10.547-7.9531 20.902-17.086 35.449-17.035v-0.003906c0.85156 0.027343 1.6953-0.19922 2.418-0.65234 11.375-8.3438 22.172-2.7188 32.879 1.5742h-0.003906c1.5703 1.2617 2.4609 3.1875 2.4062 5.1992-0.10938 3.2344-1.3633 6.4141-1.7734 9.6641-0.28906 1.7539-0.066406 3.5586 0.63672 5.1953 3.2539 6.2305 4.2891 11.988-1.0195 17.867h-0.003907c-0.91406 2.0156-0.91797 4.3281-0.003906 6.3438 3.457 8.793 5.875 17.516 1.0117 26.555-0.86328 1.2031-1.832 2.3242-2.8984 3.3477-0.125-1.7344-0.18359-2.5508-0.24219-3.3633-5.918 1.1094-11.836 2.2109-17.422 3.2539 1.5352 4.2578 3.1992 8.3242 4.4648 12.508 1.2734 3.3203 0.92969 7.0469-0.93359 10.078-1.8672 3.0312-5.0352 5.0195-8.5742 5.3828-1.5625 0.16406-3.1016 0.46484-4.6094 0.89844-4.2773 1.8008-9.2266 0.73828-12.383-2.6641-4.4336-4.3633-9.3633-8.1914-14.684-11.41-5.3633-2.1836-10.863-4.0195-16.465-5.4961-1.6172-1.1211-2.9883-2.5664-4.0234-4.2422 1.7852-1.2695 3.8438-2.0977 6.0117-2.4258 9.2422 1.1055 17.824 5.3359 24.324 11.996 2.8984 3.5195 6.7305 6.1484 11.055 7.5898 4.5156 0.78906 9.1641 0.023437 13.184-2.1719 3.3086-1.832 1.7891-6.5234-0.0625-9.418v0.003906c-2.457-3.5352-5.2148-6.8477-8.2422-9.9023-1.5586-1.0859-3.0469-2.2695-4.4492-3.5469-0.73047-1.6562-1.1719-3.4258-1.3008-5.2305 1.625-0.75781 3.4258-1.0703 5.2109-0.90234 5.2461 3.8867 10.762 1.7812 16.211 1.418v-0.003907c0.87109-0.058593 1.7344-0.23828 2.5586-0.53125 2.9336-0.57031 5.75-1.6484 8.3164-3.1836-0.44141-4.8867-1.5117-9.6992-3.1914-14.312-1.5039-0.65234-3.2031-0.69922-4.7461-0.13672-5.1367 2.3359-11.043 2.2891-16.145-0.125-1.4961-0.41797-2.5781-1.7188-2.7109-3.2695-0.13672-1.5469 0.70703-3.0156 2.1133-3.6836 4.3047-3.4023 9.8906-4.7305 15.266-3.625 3.0195 1.707 6.8516 0.64844 8.5664-2.3633 2.1953-2.793 2.207-6.7188 0.035156-9.5273-5.9023 1.9141-11.344 3.8789-16.898 5.4219v0.003906c-2.0742 0.80469-4.3906 0.71484-6.3984-0.25391-2.0039-0.96875-3.5156-2.7266-4.1758-4.8516-1.4141-4.0117 0.64453-8.418 4.625-9.9102 6.8125-3.125 13.547-8.1328 21.227-2.0078 3.0117-6.8047 1.6094-9.5352-5.1836-10.922-6.4141-1.75-13.227-1.2812-19.34 1.3281-6.2148 2.8789-13.578 3.3242-19.711 6.3203-7.2227 4.082-14.184 8.6133-20.84 13.566 1.5781 0.85938 3.2109 1.6289 4.8789 2.3008 9.0039 2.5938 11.832 6.5273 11.312 15.379 0.48047 1.7773 0.76953 3.6016 0.85938 5.4414-2.3359 6.3125-2.9531 13.598-8.5703 18.207h0.003906c-1.7969 1.4062-4.1562 1.8711-6.3516 1.2578-2.2188-1.832-4.0195-4.125-5.2734-6.7148-0.054687-1.0234 0.50391-1.9805 1.4219-2.4375 0.91797-0.45312 2.0195-0.31641 2.7969 0.35156 1.2109 1.3008 2.2852 2.7227 3.2109 4.2383l2.8711-5.0703c-2.8438-1.1328-4.7461-3.8438-4.8398-6.9062 1.1172-1.3086 2.6445-2.2031 4.3359-2.5352 1.2812-0.35547 2.6016-0.5625 3.9297-0.625-0.90625-1.1562-1.8203-2.3125-2.7188-3.4727-1.2773-1.6484-2.5508-3.3047-4.0898-5.3086l4.5742-1.9805h-0.007812c0.035156-0.375-0.007813-0.75-0.12891-1.1094-11.156-4.6992-18.848-13.465-26.664-22.207-1.4727-1.6484-5.3164-1.1172-6.9062-2.7305-5.1211-5.1914-11.422-0.55859-16.898-2.4922-1.6602 0.82812-3.0938 2.0508-4.1758 3.5547-1.0703 1.5703-2.9336 2.4062-4.8164 2.168-1.8867-0.24219-3.4766-1.5156-4.1211-3.3047-1.5625-3.6289-2.5977-7.4648-3.0781-11.387 0.45703-1.3867 1.2695-2.625 2.3633-3.5938 1.6055 1.043 2.9922 2.3867 4.0898 3.9531 0.71094 2.3633 1.1289 4.8047 1.2461 7.2734l1.8828 0.082031 2.1875-10.637v-0.003906c1.7617 0.21094 3.4453 0.85937 4.8945 1.8906 3.0742 4.5234 6.5312 5.2109 11.621 1.3984-7.3945-5.5703-14.594-11.441-22.242-16.656-15.383-10.484-30.957-20.695-46.578-30.824-4.0586-2.6914-8.3984-4.9297-12.949-6.6719-11.34-4.1719-22.457-8.543-30.727-17.926l0.003906 0.003906c-4.7344-4.7695-7.9805-10.812-9.3359-17.391-1.9023-10.762-5.8125-21.5-15.742-27.59-9.0117-5.5312-18.91-9.9258-29.801-4.3086-1.7344 0.76953-3.1875 2.0547-4.168 3.6797-4.3477 8.0547-5.9336 17.309-4.5195 26.348 1.0469 5.0977 1.6758 10.281 2.4883 15.426l0.003906 0.003906c0.054687 0.16797 0.050781 0.34766-0.011719 0.51172-7.3047 8.1719 1.4023 16.156 0.32031 24.406-1.2188 9.2578-0.97266 18.703-1.4414 28.062-0.19922 3.9609-0.13281 7.3477 4.7422 8.9336v0.003907c1.9805 1.0195 3.3008 2.9844 3.4961 5.2031-1.4062 1.9023-3.2461 3.4375-5.3672 4.4805l-1.4844-0.85937c-0.074219 9.0938 0.48047 18.184 1.6602 27.203 2.9961 15.402 9.418 29.93 18.797 42.512 7.2891 8.832 17.109 15.223 28.141 18.312 4.6016 0.71875 9.2891 0.67188 13.875-0.14453 4.1797-0.375 8.3711-0.51953 12.566-0.4375 1.7578 0.74609 3.3125 1.8984 4.5312 3.3711-1.2344 1.3633-2.7383 2.4609-4.418 3.2148-4.3047 0.78125-8.7305 0.91406-13.105 1.3047l-0.16406 1.3984c9.1016 1.7227 18.27 3.1562 27.289 5.2422h-0.003906c10.648 1.8047 21.496 2.1289 32.234 0.96484 6.3828-0.28906 12.719-1.5352 19.094-2.168 2.8867-0.28516 5.8164-0.097656 8.7227-0.15625 14.105-0.86328 27.789-5.1562 39.863-12.5 0.66797-0.5625 1.4648-0.95312 2.3164-1.1406 1.9961 0.27344 3.9766 0.65625 5.9336 1.1484-0.37891 2.0586-1.2891 3.9844-2.6484 5.582-11.641 5.0391-23.434 9.75-35.301 14.234-2.3516 0.41016-4.7578 0.41406-7.1133 0.011718-5.2539-0.050781-10.512-0.14453-15.766-0.11719-6.6562 0.035156-7.2891 0.97656-6.4258 7.6992v0.003906c0.53906 3.7891 0.76172 7.6172 0.66406 11.441-0.67578 5.1094 0.38672 10.297 3.0117 14.73s6.6602 7.8594 11.461 9.7266c3.1914 1.3789 6.2344 3.0508 3.957 7.3633-0.49219 1.1641-1.375 2.1211-2.4961 2.707-1.1211-0.19922-2.1406-0.78125-2.8828-1.6445-2.6055-2.1406-5.1367-4.375-8.1797-6.9883-2 5.1211 3.8633 11.84-4.2617 12.246-1.5156 0.074219-3.3203-5.6602-4.8633-8.4766v0.003906c-2.0312 2-4.5273 3.457-7.2656 4.2461-2.0898 0.09375-4.3438-3.5352-6.6992-5.6641-0.1875 1.9922-0.66016 3.9453-1.4023 5.8047-0.97266 2.0078-2.5977 3.6289-4.6094 4.5938-2.082-1.1406-3.9062-2.6914-5.3672-4.5586-3.1133 2.4609-7.3086 5.5781-11.254 8.9766-2.1758 1.875-3.8672 4.2344-7.1602 1.957h-0.003906c-0.91406-0.003906-1.8008 0.31641-2.4961 0.90625-2.0273 1.2852-3.9766 2.6914-6.4453 4.3867v-0.003906c-0.15625 0.24219-0.23438 0.52344-0.22266 0.80469-0.53906 11.348-0.93359 11.516-12.539 9.8047-7.1992-1.0625-15.059-0.066406-21.613-2.6016-16.352-6.3164-32.723-13.18-44.18-27.602h-0.003906c-0.73828-0.85156-1.7617-1.4141-2.8789-1.5781-16.352-1.8164-19.113-5.1211-29.98-14.711-0.83203 2.0234-1.6289 3.8594-2.3438 5.7227-3.7617 9.7969-9.7734 13.496-19.875 10.359-8.1133-3.0078-16.039-6.4922-23.746-10.426-5.6055 4.7891-12.82 7.2773-20.188 6.9531-3.7383-0.21875-7.3008-1.668-10.129-4.1211-2.8242-2.4531-4.7617-5.7773-5.5039-9.4453-5.9453 0.49609-10.945 1.2617-15.945 1.2617-14.188 0.003907-19.801-15.816-18.352-27.152 2.2266-11.977 7.4023-23.203 15.066-32.672 0.90625-1.3711 1.4141-2.9648 1.4609-4.6094 0.1875-7.8164 0.15625-15.637 0.19531-23.453 0.003906-0.87109-0.035156-1.7461-0.082032-2.6172-0.44531-8.4219-1.2578-16.848-1.1914-25.266v-0.003906c0.53125-4.0703 1.418-8.0898 2.6484-12.008 0.95312-4.9844 1.4297-10.066 2.5703-15.004v-0.003906c0.80469-1.6367 1.9297-3.0938 3.3086-4.2891 0.78516 1.6367 1.3984 3.3477 1.8359 5.1055 0.72656 4.8828 1.2773 9.7969 1.668 14.719h0.003906c0.34766 1.8633 0.097657 3.7852-0.71094 5.5-1.7617 0.63672-3.6523 0.82031-5.5 0.53906 1.0742 16.258-2.2109 33.344 7.2344 49.109l-1.7578 0.55859-4.1992-2.3086c0.63672 14.602 0.98438 30.344 9.0977 39.41 1.0469-2.1719 1.9688-4.1562 2.9492-6.1094 1.8516-3.6992 3.6953-7.3984 5.6133-11.062 2.5547-4.8789 5.1719-9.7188 7.7656-14.578l0.003906-0.003907c1.2695-3.0547 4.4102-4.8984 7.6992-4.5156 13.391-0.003907 16.941 10.426 22.223 19.23v-0.003906c0.51172 0.95312 0.94531 1.9492 1.2852 2.9766 4.0977-1.9297 8.3672-3.4609 12.758-4.5703 3.7734-0.67969 7.6641 0.11328 10.871 2.2109 3.2109 2.1016 5.4922 5.3477 6.3828 9.0781 3.2188 9.4766 5.0234 19.426 7.6211 29.121h0.003906c0.58984 1.7539 1.5469 3.3594 2.8086 4.7109 2.2539 2.8555 4.7539 5.5039 7.4727 7.918 6.5625 5.3125 15.039 7.6523 23.398 6.4531 2.082-8.1328 4.4336-17.117 6.6211-26.137v0.003906c0.17578-1.1836-0.058594-2.3906-0.66406-3.4219-4.8828-8.7539-9.9336-17.418-14.77-26.199v-0.003906c-0.63281-1.8164-1.0273-3.7109-1.1758-5.6328l-3.2422 19.141c3.4453 5.2305 3.6289 16.211 16.004 19.453l-1.9375 10.914c-11.664-7.8086-15.461-19.805-21.762-29.812l-1.3516 0.41406h0.003906c-0.42969 3.1328-0.69531 6.2812-0.80078 9.4414 0.20312 3.0625-2.0586 5.7344-5.1133 6.0352-3.0547 0.30078-5.793-1.8789-6.1914-4.9219-0.25-1.8984-0.59375-3.7852-0.89453-5.6797zm-78.566 14.914c1.5117 0.42578 2.7266 1.543 3.2734 3.0117 0.55078 1.4727 0.36719 3.1133-0.49219 4.4258-1.8984 5.1133 5.5859 13.816 10.844 13.539 8.043-0.75781 15.27-5.2266 19.539-12.082 4.2695-6.8594 5.0938-15.316 2.2266-22.867-0.94141-2.4141-0.875-5.1055 0.18359-7.4688 2.1875-4.293 1.7305-9.457-1.1797-13.293-2.0625-3.4453-4.4141-6.7109-7.0312-9.7539-2.5156-2.9258-6.3008-4.4414-10.145-4.0625-9.5859 15.527-21.957 28.961-17.219 48.551zm161.26-31.523-1.2383 1.0352c0.52344 1.5859 1.1836 3.1211 1.9766 4.5938 2.418 3.9883 5.0898 7.8164 8 11.461 3.1445 4.0625 6.832 7.6758 10.953 10.738 6.7539 4.5117 14.27 7.8633 21.258 12.051 7.0352 4.2148 7.1484 11.555 6.7188 18.418-0.41406 6.6016-6.2461 7.8633-11.785 9.2422l1.3438 3.6328c8.9297-6.6562 17.516-12.746 25.652-19.383 1.7734-1.9648 2.6094-4.6055 2.293-7.2305-1.0391-7.7422-2.5664-15.414-4.5664-22.965-0.95703-2.4336-2.9648-4.3008-5.4648-5.082-8.1133-1.8516-16.477-2.6133-24.602-4.4414h0.003906c-6.9453-1.6055-13.773-3.6758-20.438-6.1953-3.5391-1.6523-6.918-3.6211-10.105-5.8789zm-90.18 34.461c-0.42969-9.8789-2.9961-19.547-7.5234-28.34-1.9766-3.7422-6.418-5.4414-10.387-3.9766-5.875 1.8789-9.6055 5.2969-9.6211 10.184-0.035156 8.1328-0.82812 16.25-2.375 24.234-1.9727 10.145 0.28125 15.461 9.9453 19.016 11.266 4.1484 21.898-0.86328 20.457-14.387-0.23828-2.2344-0.33203-4.4844-0.49609-6.7305zm-92.48-37.719c-4.3125 4.4961-7.2812 10.109-8.5625 16.207-1.2812 6.0977-0.82422 12.434 1.3125 18.285 4.0469 8.3789 10.676 11.207 18.332 7.4727h0.003906c1.4961-0.94531 2.5234-2.4844 2.8242-4.2266-0.48437-1.3945-1.4102-2.5898-2.6328-3.4062-1.1914-1-2.4453-1.9219-3.7539-2.7578l6.5117-1.9492c-0.98828-2.3906-1.8086-4.6953-2.8711-6.8906-3.7031-7.6602-7.4922-15.277-11.164-22.734zm256.32 58.367 1.7891 0.10156c1.75-3.1055 5.1289-6.3125 4.9453-9.3008-0.60156-9.8672-2.4922-19.656-3.8359-29.105h-9.3164c2.1836 13.047 4.3008 25.676 6.418 38.305zm-126.67-62.09c3.6719 8.6445 7.3242 17.25 10.961 25.816l1.4102-0.63672c2.5781-21.301 1.2305-32.223-4.8594-39.332-1.2109 5.2617-0.875 11.305-7.5117 14.152zm-0.039063-163.39-10.391 7.5703 10.391 2.8711v-10.445zm256.96 103.75 0.25781 1.4688c5.125 2.1875 11.078 0.32812 14.047-4.3867z"/>
  <path d="m371.88 354.43c5.0977-1.043 7.168 0.26562 7.2266 4.7969 0.17578 14 6.0195 26.625 10.242 39.586 1.6797 4.0586 4.3516 7.6328 7.7734 10.387 11.395 10.168 22.613 20.836 37.773 25.281v0.003906c3.0977 1.1172 6.5312 0.83984 9.4102-0.76953 2.9219-3.6289-1.7656-5.8477-3.9219-8.3398-5.0039-5.7852-10.258-11.371-14.891-17.438-0.73047-2.2305-0.91016-4.6055-0.52344-6.9219 2.1875 0.91406 4.2383 2.1328 6.0898 3.6133 5.5781 5.8984 10.738 12.195 16.348 18.066 1.5703 0.6875 3.293 0.96094 5.0039 0.79297-0.5-1.4688-1.1094-2.9102-1.4805-4.4141-0.49219-1.9961-0.66797-4.0703-1.2227-6.043v0.003906c-0.26562-1.3281-0.88672-2.5625-1.7969-3.5664-4.4688-3.8984-9.3242-7.3828-13.559-11.504-1.5938-1.6641-2.3086-3.9883-1.9219-6.2617 2.3242-3.0469 4.7539-0.75 6.8906 1.2617v0.003906c3.6836 3.5938 7.6758 6.8594 11.926 9.7617-1.6562-7.8242-7.5508-11.375-13.988-14.371-1.3398-0.27734-2.6094-0.83984-3.7227-1.6445-0.78906-1.5664-1.3281-3.2461-1.6016-4.9805 1.4883-0.53516 3.0508-0.82812 4.6289-0.86719 3.8984 0.55078 7.7344 1.5156 11.598 2.3164l0.625-1.9258c-5.7305-4.3711-11.398-8.8242-17.215-13.074-3.1992-2.3398-7.2305-3.7188-5.2344-9.2656 0.88281-2.4531-6.5742-8.0508-9.4922-6.9258-1.4531 0.68359-3.1406 0.63672-4.5508-0.12109-1.4141-0.75781-2.3828-2.1406-2.6133-3.7266-0.34375-1.75-0.34766-3.5508-0.003907-5.2969 1.5898-0.085937 3.1797 0.10938 4.6992 0.57813 5.5078 2.9297 10.859 6.1445 16.566 9.4258 0.91406-5.3281 4.4492-4.0039 8.375-3.0352 9.4141 2.3242 18.984 4.0312 28.359 6.4922v0.003906c2.2773 0.82031 4.0586 2.6328 4.832 4.9258 1.043 4.7539 0.62109 4.8438-7.7578 6.8711 3.7383 1.9453 6.5859 3.3789 9.3867 4.8984 3.4414 1.6367 6.75 3.5352 9.9023 5.6797 2.0586 1.3359 3.4531 3.4844 3.8359 5.9102-1.9922 8.1523 4.9648 10.961 8.3086 16.016h0.003906c1.8672 3.25 2.9258 6.9023 3.0781 10.648-0.73828 1.9805-2.332 3.5195-4.332 4.1992-3.0195 0.83984-6.1133 1.3828-9.2422 1.6289 9.4766 4.9258 17.605 12.082 23.691 20.855 1.9766 3.6875 3.5117 7.5977 4.5703 11.645-3.9102 0.91406-7.9023 1.4219-11.914 1.5117-3.4336-0.63281-6.7773-1.6992-9.9414-3.1797 1.1602 5.7188 2.4102 11.887 3.668 18.09-10.242 1.9258-29.691-11.723-45.406-30.598-0.41016 0.17969-0.78516 0.43359-1.1055 0.75-4.5469 6.6797-5.1602 6.7812-13.699 4.8906-11.062-2.7109-21.207-8.3047-29.406-16.211-4.5273-4.0859-9.1914-8.0391-13.938-11.867-5.0156-4.3984-8.4961-10.281-9.9375-16.793-2.7305-9.5352-5.75-18.992-8.3086-28.57-0.92969-4.3555-1.625-8.7539-2.0859-13.184zm61.008-0.19531c3.8867 4.5938 8.2617 7.4844 8.7383 10.918h0.003906c0.51562 3.1406 2.5977 5.8008 5.5234 7.0547 4.4727 3.1641 12.113 4.4336 7.1953 13.984l28.129 1.918c-0.39844-1.543-1.0742-3-1.9883-4.3047-8.5195-4.9023-17.152-9.6094-25.672-14.508h-0.003906c-1.6797-1.1562-3.2578-2.457-4.7148-3.8828 1.5234-1.5 3.2656-2.7656 5.1602-3.75 2.0312-0.37109 4.1094-0.41797 6.1523-0.14062l0.11328-2.2617zm29.156 56.156c-4.1836 2.6797-4.0234 4.9453-0.98047 7.418 2.5703 2.0898 4.8789 4.5391 7.5859 6.4258 9.418 6.5547 18.832 13.137 28.539 19.246h-0.003906c2.9258 1.2031 6.0312 1.9219 9.1875 2.1289-3.8711-9.1836-10.684-16.82-19.363-21.711-8.1094-4.8555-16.625-9.0312-24.965-13.504zm26.406 48.684v0.003906c0.16797-0.70703 0.25391-1.4336 0.24609-2.1641-3.5703-15.934-15.684-23.508-29.238-29.508h0.003907c-1.6133-0.003906-3.1328 0.75-4.1055 2.0352-0.53125 1.293-0.37109 2.7695 0.42578 3.918 3.1172 3.5391 7.0586 6.4336 9.7773 10.223 5.8555 7.3984 13.848 12.809 22.891 15.496zm-32.824-66.473-1.2969 1.4102c1.5977 3.1406 3.8281 5.918 6.543 8.1602 6.2266 2.6445 12.625 4.8633 19.152 6.6445 4.6016 2.0625 9.9414 1.6172 14.137-1.1836-9.5898-14.332-24.262-14.156-38.535-15.031z"/>
  <path d="m230.88 369.1c-0.39453 5.1055-0.66016 9.6211-1.1523 14.113h-0.003906c-0.34375 1.0234-0.875 1.9727-1.5742 2.7969-0.875-0.57422-1.6406-1.2969-2.2617-2.1406-1.4961-3.1523-2.7734-6.4102-4.2969-10.02 4.0352-3.625 3.5508-6.75-2.4062-10.18-2.8516-1.6445-5.5703-3.5195-8.3203-5.2734-2.5898 4.1953-5.4883 8.1914-8.6797 11.949-2.0469 2-4.8633 3.0117-7.7148 2.7695-2.2461-1.3789-3.7539-3.6953-4.1055-6.3086-1.3047-7.5039-2.0547-15.113-2.7266-22.707 0.1875-1.9258 0.67969-3.8125 1.4609-5.582-3.8281-3.8984-14.742 1.8867-13.137-9.7812 4.5586-2.1719 9.4727-4.7305 14.562-6.8672l0.003906 0.003906c3.457-1.3281 5.9453-4.4023 6.5195-8.0625 0.33984-3.4766 1.6484-6.7891 3.7773-9.5625 2.1289-2.7695 4.9922-4.8906 8.2617-6.1172 5.2266-1.7188 10.211-4.1641 15.379-6.0742 3.4375-0.78516 6.0977-3.5039 6.8047-6.957 0.70703-2.5078 1.7578-4.9062 3.1172-7.125 2.2539-4.3633 5.0859-6.1016 9.3711-2.0586h0.003907c1.0781 0.79688 2.4844 1.0039 3.7461 0.55078 1.7227-1.375 3.9414-1.957 6.1133-1.6055 2.1719 0.35547 4.0938 1.6094 5.293 3.457 7.1797-4.3008 12.141-2.3672 12.422 5.4375h-0.003907c-0.003906 9.3203 3.6172 18.277 10.098 24.973 8.6875 8.8203 11.5 20.043 14.488 31.414 0.99609 2.7734 2.9141 5.1211 5.4336 6.6484 9.1055 5.7617 18.57 10.953 27.73 16.637 1.5039 0.89062 2.5156 2.4297 2.7344 4.1641 0.22266 1.7383-0.37109 3.4805-1.6016 4.7227-2.0977-2.0586-4.3633-3.9336-6.7734-5.6094-8.7266-5.0273-17.492-10.012-26.484-14.543-3.4336-1.3359-6.0039-4.2578-6.8789-7.8359-1.3164-5.7227-2.5547-11.484-4.293-17.086-0.96094-2.6016-2.375-5.0117-4.1719-7.1211-4.1914-5.9648-8.8711-11.57-13.984-16.762-4.4492-4.2617-9.8359-7.418-15.727-9.2188-4.0039-0.73047-8.1055-0.71484-12.102 0.054687-8.5234 1.9141-16.848 4.6289-24.859 8.1133-9.3242 3.4609-10.816 11.91-11.816 20.23v-0.003906c-0.53125 4.2852-0.37109 8.6289 0.47266 12.863 0.55078 4.0625 2.2031 7.8906 4.7773 11.078 5.2148 4.8711 10.887 9.2266 16.938 13.008 7.4648 4.957 15.688 2.5859 23.738 1.6328 5.4141-0.53906 10.512-2.7969 14.551-6.4414 1.2695-0.63672 2.6562-0.99219 4.0703-1.0391 0.15234 1.4141 0.019531 2.8398-0.37891 4.2031-4.0039 7.1016-11.207 8.332-18.332 9.3594-5.8594 0.84766-11.781 1.2578-18.082 1.9023zm-33.141-2.2109c8.0977-10.305 9.3711-11.82-0.81641-23.605-0.94922 8.0625-3.1211 15.508 0.8125 23.605zm67.484-82.664-1.5586-0.33203-3.9922 5.3164 6.3906 3.4922z"/>
  <path d="m364.36 515.88c1.0977-6.2266 3.4844-5.0234 9.9883-0.89453v0.003906c-0.80859-1.4648-1.5273-2.9766-2.1484-4.5273-1.125-1.8984-1.6406-4.0938-1.4766-6.293 1.5273-2.5 4.1367-1.1953 6.2031 0.46484 1.4219 0.94531 2.9102 1.7891 4.4492 2.5273 0.84375-4.6719-1.2852-9.375-5.3516-11.824-1.5-1.0156-2.7539-2.3555-3.6602-3.9258 0.15234-0.92578 0.66406-1.7578 1.4219-2.3086 1.9922 0.058594 3.9258 0.6875 5.5703 1.8086 4.4805 4.7812 8.5312 10.508 6.6914 17.199-1.4258 5.1836-6.1055 9.1172-8.5664 14.199v-0.003907c-1.8359 2.793-4.3789 5.0469-7.3672 6.5312-1.6875 0.91797-3.7148 0.96094-5.4414 0.11719-2.2109-1.9141-3.9766-4.2891-5.1758-6.957-2.4023-5.1875-0.91797-6.8711 4.8633-6.1172z"/>
  <path d="m261.61 417.89c1.4102-8.3984 2.8867-17.648 4.625-26.852 0.55078-1.168 1.6797-1.9609 2.9648-2.082 1.3906 0.31641 2.5312 1.293 3.0586 2.6172 0.24219 2.3906-0.027344 4.8086-0.78516 7.0938-5.4531 15.395-2.6914 30.48 1.3164 45.574 0.52734 3.9219 3.4961 7.0703 7.3789 7.832 1.2188 0.71484 2.2461 1.7148 2.9961 2.9102-1.0273 0.75391-2.1562 1.3516-3.3555 1.7734-6.8594 1.332-11.211-2.0703-13.293-11.324-1.9688-8.7578-3.1836-17.684-4.9062-27.543z"/>
  <path d="m373.53 272.61c-3.3164 2.332-6.0039 4.4883-8.9453 6.2188-1.0664 0.85938-2.5195 1.0625-3.7812 0.52734-1.2617-0.53516-2.1289-1.7188-2.2539-3.0859-0.29688-3.125 0.33203-6.2734 1.8086-9.0469 2.0781-0.78125 4.3438-0.92188 6.5-0.39844 2.2305 0.15234 4.4375 0.53516 6.582 1.1484 1.6094 0.20312 3.0938 0.97266 4.1797 2.1797 0.19531 1.8359-0.003907 3.6914-0.58984 5.4453l-1.3008 0.09375z"/>
  <path d="m228.56 397.28c2.2969 0.45312 4.5391 1.1289 6.6992 2.0195 2.4414 0.87109 4.5273 2.5195 5.9375 4.6914 0.76562 3.3945-2.3477 4.3984-5.4961 4.3633h-0.003906c-0.82031 0.16797-1.6133 0.46484-2.3438 0.88672-1.5469 0.92187-3.2812 1.4805-5.0781 1.6367-1.4766-1.5469-2.293-3.6094-2.2734-5.7461 0.53125-2.7109 1.3906-5.3477 2.5586-7.8516z"/>
  <path d="m535.19 414.21c-1.625-1.457-3.1094-3.0625-4.4297-4.7969-0.61328-1.1367-0.63281-2.5039-0.046875-3.6562 0.99219-0.82031 2.3438-1.0703 3.5664-0.66406 2.4766 1.2383 4.7344 2.875 6.6758 4.8477 0.96094 1.375 1.1953 3.1289 0.63281 4.707-1.1367 2.3242-2.793 4.3516-4.8477 5.9258-1.8125 0.8125-3.7656 1.2695-5.7539 1.3398 0.70312-1.7969 1.3281-3.6289 2.1445-5.3711 0.58984-0.85938 1.2812-1.6406 2.0586-2.332z"/>
  <path d="m227.68 311.97c-1.7656 4.0742 0.22266 10.391-6.7383 10.363-1.8359-0.24609-3.4492-1.3359-4.3633-2.9453s-1.0195-3.5547-0.28516-5.2539c1.3594-4.2461 3.9336-4.832 11.387-2.1641z"/>
  <path d="m379.35 305.56c0.26172-0.09375 0.51953-0.19922 0.76953-0.32422 1.8633-1.2227 3.7266-2.4492 5.5859-3.6797h-0.003906c-0.53516 2.3008-1.5234 4.4688-2.9141 6.375-2.2695 1.6211-4.8594 2.7305-7.5977 3.2617-1.1641-0.39844-2.0781-1.3203-2.4727-2.4883-0.14062-1.4805-0.039062-2.9766 0.30469-4.4219 1.5742 0.17578 3.1562 0.29297 4.7148 0.55469h-0.003906c0.57031 0.16016 1.1133 0.40625 1.6172 0.72266z"/>
  <path d="m239.49 388.08c-4.25-2.9766-6.4805-8.0742-5.7891-13.215 0.72266-1.1211 1.7734-1.9922 3.0117-2.4922 0.80859 0.027344 1.5469 0.46484 1.9609 1.1602 0.90625 3.9844 1.6953 8.0039 2.2656 12.051-0.25781 0.94141-0.75781 1.8008-1.4492 2.4961z"/>
  <path d="m355.88 393.98c5.2461 1.3086 6.6484 3.2969 5.0117 7.9453v0.003906c-1.0664 1.332-2.4414 2.3867-4.0078 3.0703-1.2266-1.3711-2.1484-2.9844-2.7148-4.7305 0.22266-2.1758 0.80078-4.3008 1.7109-6.2891z"/>
  <path d="m230.41 346.83c-1.207 1.7852-2.8125 3.2656-4.6953 4.3164-2.082-0.69922-4.0117-1.7891-5.6875-3.207l4.2422-5.8555z"/>
  <path d="m254.74 398.77c-1.6484-2.1641-3.0859-4.4805-4.293-6.918 0.54297-1.1758 1.4727-2.125 2.6367-2.6914 1.9727 1.0156 3.6992 2.4492 5.0586 4.2031-0.82422 1.9805-1.9766 3.8086-3.4023 5.4062z"/>
  <path d="m256.27 330.71 4.4023-4.0742c1.082 0.77344 1.9492 1.8125 2.5195 3.0117-0.8125 2.2383-1.8477 4.3867-3.0898 6.418z"/>
  <path d="m349.93 350.5c-1.4258-1.3906-2.5234-3.0781-3.2188-4.9453 0.80859-1.7188 1.9219-3.2773 3.2773-4.6016 1.2773 0.62109 2.4023 1.5195 3.2852 2.6289-0.83984 2.4258-1.9648 4.75-3.3438 6.918z"/>
 </g>
</svg>