<?xml version="1.0" encoding="UTF-8"?>
<!-- The Best Svg Icon site in the world: iconSvg.co, Visit us! https://iconsvg.co -->
<svg fill="#000000" width="800px" height="800px" version="1.1" viewBox="144 144 512 512" xmlns="http://www.w3.org/2000/svg">
 <g>
  <path d="m486.53 250.66v14.719h-47.625v-14.719c0-13.145 10.707-23.852 23.852-23.852 13.148 0 23.773 10.707 23.773 23.852z"/>
  <path d="m486.53 425.98v123.36c0 13.145-10.625 23.852-23.773 23.852-13.145 0-23.852-10.707-23.852-23.852v-123.36z"/>
  <path d="m333.97 442.43c-11.445 3.5391-34.059 24.816-41.566 5.9844-26.105-114.05-13.258-156.93-0.23438-206.17 7.5078-17.973 29.07 2.5898 40.227 5.9844-22.75 71.004-22.199 127.29 1.5742 194.2z"/>
  <path d="m522.74 291.36v108.64c0 5.668-4.5664 10.234-10.234 10.234l-110.13-0.003906-1.418 0.55078c-20.309 8.1875-37 16.453-52.82 24.402-21.961-62.504-22.434-113.52-1.4961-179.88 16.297 8.3438 33.379 16.848 54.316 25.27l1.418 0.55078h110.13c5.6719 0 10.234 4.5664 10.234 10.234z"/>
 </g>
</svg>