<?xml version="1.0" encoding="UTF-8"?>
<!-- The Best Svg Icon site in the world: iconSvg.co, Visit us! https://iconsvg.co -->
<svg fill="#000000" width="800px" height="800px" version="1.1" viewBox="144 144 512 512" xmlns="http://www.w3.org/2000/svg">
 <g>
  <path d="m585.57 440.05v41.984h-7.6875v-82.562c0-20.859-10.047-40.02-27.051-51.938v-43.055h-87.738v43.055c-3.1602 2.2109-5.9844 4.75-8.6406 7.4258-2.6719-2.6992-5.4961-5.2344-8.6094-7.4258v-43.055h-87.727v43.055c-3.3164 2.3281-6.3516 4.9883-9.1602 7.8906-2.7773-2.8555-5.7617-5.5508-9.0977-7.8906v-43.055h-87.734v43.055c-17 11.922-27.043 31.078-27.043 51.938v82.562h-10.652v-41.984h-36.945v146.11h445.04v-146.11zm-112.84-83.789 2.9688-1.8477v-16.969h42.703v-12.594h-42.707v-7.7734h62.543v37.336l2.9688 1.8477c15.078 9.3906 24.082 25.543 24.082 43.211v82.562l-94.75 0.003906v-72.594h-12.594v72.59h-9.2891l-0.003907-82.562c0-17.66 9-33.82 24.078-43.211zm-104.98 0 2.9688-1.8477v-16.969h39.141v-12.594h-39.141v-7.7734h62.543v37.336l2.9688 1.8477c3.7891 2.3633 7.2305 5.1875 10.27 8.418-6.6914 10.16-10.43 22.148-10.43 34.789v82.562l-69.156 0.003906v-82.562c0-12.375-3.6055-24.105-10.035-34.129 3.1797-3.5078 6.8164-6.5586 10.871-9.082zm-130.06 43.211c0-17.664 9.0039-33.816 24.078-43.211l2.9688-1.8477v-16.969h41.238v-12.594h-41.238v-7.7734h62.543v37.336l2.9688 1.8477c15.078 9.3906 24.078 25.543 24.078 43.211v82.562l-92.23 0.003906v-72.594h-12.594v72.59h-11.809zm-35.84 53.176v41.984h396.33v-41.984h11.758v74.73l-419.85-0.003906v-74.727zm-11.758 120.91v-8.3984h111.47v-12.594l-111.47-0.003906v-12.594h419.84v12.594h-110.63v12.594h110.63v8.3984z"/>
  <path d="m259.77 296.3h72.211c3.4766 0 6.2969-2.8203 6.2969-6.2969 0-3.4766-2.8203-6.2969-6.2969-6.2969l-72.211-0.003906c-3.4766 0-6.2969 2.8203-6.2969 6.2969s2.8203 6.3008 6.2969 6.3008z"/>
  <path d="m365.62 296.3h72.211c3.4766 0 6.2969-2.8203 6.2969-6.2969 0-3.4766-2.8203-6.2969-6.2969-6.2969l-72.211-0.003906c-3.4766 0-6.2969 2.8203-6.2969 6.2969-0.003906 3.4766 2.8203 6.3008 6.2969 6.3008z"/>
  <path d="m470.86 296.3h72.211c3.4766 0 6.2969-2.8203 6.2969-6.2969 0-3.4766-2.8203-6.2969-6.2969-6.2969l-72.211-0.003906c-3.4766 0-6.2969 2.8203-6.2969 6.2969s2.8203 6.3008 6.2969 6.3008z"/>
  <path d="m207.71 517.56h8.3984c3.4766 0 6.2969-2.8203 6.2969-6.2969 0-3.4766-2.8203-6.2969-6.2969-6.2969h-8.3984c-3.4766 0-6.2969 2.8203-6.2969 6.2969-0.003906 3.4727 2.8203 6.2969 6.2969 6.2969z"/>
  <path d="m583.05 517.56h8.3984c3.4766 0 6.2969-2.8203 6.2969-6.2969 0-3.4766-2.8203-6.2969-6.2969-6.2969h-8.3984c-3.4766 0-6.2969 2.8203-6.2969 6.2969 0 3.4727 2.8203 6.2969 6.2969 6.2969z"/>
 </g>
</svg>