<?xml version="1.0" encoding="UTF-8"?>
<!-- The Best Svg Icon site in the world: iconSvg.co, Visit us! https://iconsvg.co -->
<svg fill="#000000" width="800px" height="800px" version="1.1" viewBox="144 144 512 512" xmlns="http://www.w3.org/2000/svg">
 <g>
  <path d="m643.98 636.05-7.0859-2.5c-24.047-8.4766-48.535-15.633-73.363-21.441v-94.578c1.4609 0.16406 2.9297 0.24609 4.3984 0.25 17.82 0 33.902-11.5 42.316-23.832 6.125-8.9688 7.5977-17.531 3.9375-22.883l-0.003906-0.003906c-2.4844-3.3047-6.4219-5.1914-10.555-5.0586 2.4453-2.4102 4.6602-5.0469 6.6172-7.8711 6.125-8.9766 7.5977-17.531 3.9375-22.887h-0.003906c-2.4805-3.3008-6.418-5.1875-10.547-5.0508 2.4453-2.4102 4.6562-5.0469 6.6133-7.8711 6.125-8.9727 7.5977-17.527 3.9375-22.887h-0.003906c-2.4844-3.3047-6.4258-5.1914-10.555-5.0508 2.4492-2.418 4.668-5.0625 6.6211-7.8984 6.125-8.9688 7.5977-17.527 3.9375-22.883h-0.003906c-2.4727-3.2812-6.3828-5.1641-10.492-5.0469 2.4219-2.3984 4.6172-5.0195 6.5547-7.8281 6.125-8.9688 7.5977-17.531 3.9375-22.887h-0.003907c-2.4844-3.3008-6.4219-5.1875-10.551-5.0508 2.4453-2.418 4.6602-5.0586 6.6172-7.8906 6.125-8.9727 7.5977-17.527 3.9375-22.887-2.3164-3.3945-7.5547-6.8633-19.328-4.1523h-0.003906c-3.1289 0.71484-6.1953 1.6641-9.1836 2.8359l12.648-19.332h0.003906c2.9961-4.5703 4.5898-9.9141 4.582-15.379v-25.238c0-2.1719-1.7617-3.9375-3.9336-3.9375-2.1758 0-3.9375 1.7656-3.9375 3.9375v25.191c0.003906 3.9336-1.1445 7.7812-3.3008 11.066l-10.672 16.336c0.10937-1.5234 0.18359-3.0703 0.18359-4.6523 0-20.523-9.4961-36.605-21.625-36.605-12.125 0-21.648 16.078-21.648 36.605 0 1.5742 0.078125 3.1484 0.1875 4.6562l-10.684-16.32h0.003906c-2.1523-3.2891-3.3008-7.1367-3.2969-11.066v-25.211c0-2.1719-1.7617-3.9375-3.9375-3.9375-2.1719 0-3.9336 1.7656-3.9336 3.9375v25.191c-0.003907 5.4609 1.5898 10.809 4.5859 15.379l12.648 19.332c-2.9805-1.168-6.043-2.1133-9.1641-2.832-11.773-2.7109-17.012 0.75781-19.328 4.1523-3.6562 5.3594-2.1836 13.914 3.9375 22.887v0.003906c1.9531 2.832 4.168 5.4727 6.6172 7.8906-4.1289-0.13281-8.0664 1.75-10.555 5.0508-3.6562 5.3555-2.1836 13.918 3.9375 22.887 1.9336 2.8086 4.1289 5.4297 6.5508 7.8281-4.1094-0.11719-8.0195 1.7617-10.492 5.0469-3.6562 5.3555-2.1836 13.914 3.9375 22.883 1.9531 2.8359 4.168 5.4805 6.6172 7.8984-4.1328-0.13672-8.0703 1.7461-10.559 5.0469-3.6562 5.3594-2.1836 13.918 3.9375 22.887v0.003906c1.9531 2.8242 4.1641 5.4609 6.6094 7.8711-4.1289-0.13672-8.0664 1.75-10.551 5.0508-3.6562 5.3555-2.1836 13.914 3.9375 22.887 1.9531 2.8242 4.168 5.4609 6.6133 7.8711-4.1328-0.13281-8.0703 1.7539-10.555 5.0586-3.6562 5.3555-2.1836 13.914 3.9375 22.883 8.418 12.336 24.488 23.832 42.316 23.832l-0.003906 0.003907c1.457-0.003907 2.9141-0.085938 4.3633-0.24609v92.797c-48.652-10.812-98.301-16.484-148.14-16.926v-127c1.4609 0.16406 2.9297 0.24609 4.3984 0.25 17.82 0 33.898-11.5 42.316-23.832 6.125-8.9688 7.5977-17.527 3.9375-22.883l-0.003906-0.003907c-2.4766-3.2969-6.4062-5.1836-10.531-5.0586 2.4492-2.4102 4.6641-5.0469 6.6211-7.8711 6.125-8.9727 7.5977-17.531 3.9375-22.887h-0.003906c-2.4805-3.3086-6.4219-5.1992-10.555-5.0664 2.4453-2.4102 4.6562-5.0469 6.6133-7.8711 6.125-8.9688 7.5977-17.527 3.9375-22.887l-0.003906-0.003906c-2.4805-3.3008-6.418-5.1914-10.547-5.0586 2.4492-2.418 4.668-5.0625 6.6211-7.8984 6.125-8.9688 7.5977-17.527 3.9375-22.883h-0.003906c-2.4727-3.2852-6.3828-5.1641-10.492-5.0469 2.4219-2.4023 4.6133-5.0234 6.5547-7.8281 6.125-8.9688 7.5977-17.531 3.9375-22.883h-0.003907c-2.4844-3.3047-6.4219-5.1914-10.551-5.0586 2.4453-2.4102 4.6602-5.0469 6.6172-7.8711 6.125-8.9727 7.5977-17.527 3.9375-22.887-2.3164-3.3945-7.5547-6.8594-19.328-4.1523l-0.003906-0.003906c-3.1445 0.72266-6.2305 1.6758-9.2305 2.8594l12.699-19.406c2.9922-4.5703 4.5859-9.9141 4.5781-15.379v-25.191c0-2.1758-1.7617-3.9375-3.9336-3.9375-2.1758 0-3.9375 1.7617-3.9375 3.9375v25.191c0.003906 3.9297-1.1445 7.7773-3.2969 11.066l-10.672 16.309c0.10547-1.5039 0.17578-3.0312 0.17578-4.5898 0-20.523-9.4961-36.605-21.625-36.605-12.125 0-21.625 16.078-21.625 36.605 0 1.5742 0.074219 3.0859 0.17969 4.5938l-10.672-16.34c-2.1523-3.2891-3.3008-7.1367-3.2969-11.066v-25.191c0-2.1758-1.7617-3.9375-3.9375-3.9375-2.1719 0-3.9336 1.7617-3.9336 3.9375v25.191c-0.007812 5.4688 1.5859 10.82 4.582 15.395l12.699 19.406h-0.003906c-3-1.1836-6.0859-2.1367-9.2305-2.8594-11.777-2.707-17.012 0.75781-19.328 4.1523-3.6602 5.3594-2.1875 13.914 3.9375 22.887v0.003907c1.9531 2.8242 4.168 5.4609 6.6133 7.8711-4.1289-0.13281-8.0664 1.75-10.551 5.0547-3.6602 5.3555-2.1875 13.918 3.9375 22.887 1.9336 2.8086 4.1289 5.4297 6.5508 7.8281-4.1094-0.11719-8.0195 1.7617-10.492 5.0469-3.6562 5.3555-2.1875 13.914 3.9375 22.883 1.9531 2.8359 4.168 5.4766 6.6133 7.8984-4.1289-0.13672-8.0664 1.7461-10.551 5.0469-3.6641 5.3594-2.1914 13.914 3.9375 22.887v0.003907c1.9492 2.8242 4.1641 5.4609 6.6094 7.8711-4.1289-0.13281-8.0625 1.75-10.547 5.0508-3.6641 5.3555-2.1914 13.91 3.9375 22.887 1.9531 2.8242 4.168 5.4609 6.6133 7.8711-4.1328-0.13281-8.0703 1.7539-10.555 5.0586-3.6602 5.3516-2.1875 13.914 3.9375 22.883 8.418 12.332 24.488 23.832 42.316 23.832h-0.003906c1.457 0 2.9141-0.082031 4.3633-0.24219v127.03c-49.73 0.10156-99.316 5.418-147.94 15.859v-91.711c1.4609 0.16406 2.9297 0.24609 4.3984 0.25 17.82 0 33.898-11.5 42.316-23.832 6.125-8.9688 7.5977-17.531 3.9375-22.887v-0.003906c-2.4844-3.3008-6.4219-5.1875-10.555-5.0547 2.4453-2.4102 4.6602-5.0469 6.6172-7.8711 6.125-8.9766 7.5977-17.531 3.9375-22.887-2.4844-3.3008-6.4219-5.1875-10.551-5.0508 2.4453-2.4102 4.6602-5.0469 6.6133-7.8711 6.125-8.9727 7.5977-17.527 3.9375-22.887v-0.003906c-2.4883-3.3008-6.4297-5.1875-10.562-5.0469 2.4609-2.418 4.6875-5.0625 6.6523-7.9023 6.125-8.9688 7.5977-17.527 3.9375-22.883-2.4727-3.2852-6.3867-5.168-10.496-5.0469 2.4258-2.3984 4.6211-5.0195 6.5586-7.8281 6.1289-8.9688 7.6016-17.531 3.9375-22.883-2.4883-3.3047-6.4258-5.1914-10.559-5.0547 2.4492-2.418 4.6641-5.0625 6.6211-7.8906 6.125-8.9727 7.5977-17.527 3.9375-22.887-2.3164-3.3945-7.5586-6.8633-19.332-4.1523l-0.003907-0.003907c-3.1758 0.73047-6.2891 1.6992-9.3203 2.8945l12.688-19.391v0.003906c2.9844-4.5742 4.5664-9.918 4.5547-15.379v-25.211c0-2.1719-1.7656-3.9375-3.9375-3.9375-2.1758 0-3.9375 1.7656-3.9375 3.9375v25.191c0.003906 3.9297-1.1445 7.7773-3.3008 11.066l-10.555 16.137c0.10156-1.4688 0.16797-2.9531 0.16797-4.4727 0-20.523-9.4961-36.605-21.625-36.605-12.125 0-21.625 16.078-21.625 36.605 0 1.6484 0.082032 3.2539 0.19922 4.8398l-10.801-16.504 0.003906 0.003907c-2.1602-3.2891-3.3047-7.1367-3.3008-11.066v-25.195c0-2.1719-1.7617-3.9375-3.9336-3.9375-2.1758 0-3.9375 1.7656-3.9375 3.9375v25.191c-0.003906 5.4609 1.5859 10.809 4.582 15.379l12.617 19.285c-2.9453-1.1445-5.9727-2.0742-9.0508-2.7852-11.777-2.7109-17.012 0.75781-19.328 4.1523-3.6602 5.3594-2.1875 13.918 3.9375 22.887l-0.003907 0.003906c1.9531 2.8242 4.168 5.4609 6.6172 7.8711-4.1328-0.13672-8.0703 1.7539-10.555 5.0586-3.6602 5.3555-2.1875 13.914 3.9375 22.883 1.9336 2.8086 4.1289 5.4297 6.5508 7.8281-4.1094-0.11719-8.0195 1.7617-10.492 5.0469-3.6602 5.3555-2.1875 13.914 3.9375 22.883 1.9531 2.8359 4.1719 5.4766 6.6211 7.8984-4.1328-0.13672-8.0703 1.7461-10.559 5.0469-3.6602 5.3594-2.1875 13.914 3.9375 22.887v0.003906c1.9531 2.8242 4.168 5.4609 6.6133 7.8711-4.1289-0.13672-8.0664 1.75-10.551 5.0508-3.6602 5.3555-2.1875 13.91 3.9375 22.887 1.957 2.8242 4.1719 5.4609 6.6211 7.8711-4.1328-0.13281-8.0742 1.7539-10.559 5.0586-3.6602 5.3516-2.1875 13.914 3.9375 22.883 8.4453 12.379 24.52 23.891 42.348 23.891 1.457-0.003906 2.9102-0.085938 4.3555-0.24609v93.434c-25.031 5.6719-49.734 12.711-73.996 21.09l-11.5 3.9844c-2.0391 0.71875-3.1172 2.9531-2.4062 4.9961 0.70703 2.043 2.9297 3.1328 4.9805 2.4414l11.477-3.9688c149.73-51.531 312.48-51.012 461.88 1.4648 0 0 7.957 2.7188 8.3906 2.7188 1.918 0 3.5586-1.3789 3.8828-3.2695 0.32422-1.8906-0.76172-3.7383-2.5703-4.375zm-348.11-160.55c1.3555 1.9688 0.69531 7.2109-3.9375 14.008-7.8711 11.559-23.516 22.297-40.113 20.117 0.58984-7.8711 4.8516-28.562 32.988-35.055 5.6406-1.3047 9.7812-0.97266 11.062 0.92969zm-44.152 11.48v-0.26172h0.17578c-0.054687 0.082032-0.11719 0.16797-0.17578 0.26172zm44.152-47.316c1.3555 1.9688 0.69531 7.2109-3.9375 14.008-7.8711 11.566-23.492 22.309-40.148 20.117 0.54297-7.8711 4.7227-28.523 33.008-35.031 5.6641-1.3164 9.7969-0.97656 11.078 0.90625zm-44.152 11.477v-0.35156h0.24219c-0.078126 0.11719-0.16016 0.23047-0.24219 0.35156zm44.152-47.297c1.3555 1.9688 0.69531 7.2109-3.9375 14.008-7.8711 11.566-23.492 22.301-40.148 20.117 0.54297-7.8711 4.7227-28.523 33.008-35.031 5.6641-1.3164 9.7969-0.97656 11.078 0.90625zm0-35.816c1.3555 1.9688 0.69531 7.2148-3.9375 14.004-7.8711 11.566-23.496 22.305-40.113 20.125h0.003907c0.49219-6.9648 2.9375-13.652 7.0547-19.289 4.1172-5.6406 9.7422-10.004 16.227-12.594l0.16406-0.078125c3.082-1.3125 6.2734-2.3398 9.543-3.0781 5.6406-1.3359 9.7773-0.97266 11.059 0.89844zm0-35.758c1.3555 1.9688 0.69922 7.2109-3.9375 14.012-4.8516 6.9844-11.41 12.617-19.047 16.363-0.71875 0.30078-1.4062 0.61719-2.0938 0.93359-5.9609 2.6133-12.508 3.5859-18.969 2.8203 0.58984-7.8711 4.8555-28.566 32.992-35.055 5.6328-1.3203 9.7734-0.97266 11.051 0.91016zm-11.059-36.754c5.6484-1.3047 9.7812-0.95703 11.059 0.92188 1.3555 1.9688 0.69922 7.2109-3.9375 14.008-7.8711 11.566-23.492 22.305-40.148 20.117 0.55469-7.8789 4.7188-28.539 33.023-35.062zm-81.141 14.914c-4.6367-6.7969-5.293-12.023-3.9375-14.008 1.3398-1.332 3.2227-1.9609 5.0938-1.6992 2.0117 0.039063 4.0156 0.30078 5.9688 0.78516 28.133 6.4883 32.398 27.16 32.988 35.051-16.578 2.168-32.223-8.5625-40.113-20.129zm0 35.836c-4.6367-6.7969-5.293-12.027-3.9375-14.012 1.3438-1.3398 3.2383-1.9727 5.1172-1.707 2.0117 0.039063 4.0117 0.30469 5.9648 0.78906 28.133 6.4883 32.398 27.16 32.988 35.055-6.5312 0.76953-13.148-0.23438-19.156-2.9062-0.61328-0.28125-1.2227-0.56641-1.8672-0.83594h0.003906c-7.6641-3.7383-14.246-9.3789-19.113-16.379zm0 35.754c-4.6367-6.793-5.293-12.023-3.9375-14.008v0.003906c1.3438-1.3398 3.2383-1.9727 5.1172-1.707 2.0117 0.042969 4.0117 0.30469 5.9648 0.78906 3.2344 0.73047 6.3945 1.7461 9.4492 3.0352l0.29688 0.14062h-0.003906c6.4805 2.5938 12.094 6.9609 16.207 12.602 4.1094 5.6367 6.5469 12.32 7.0352 19.281-16.641 2.2148-32.242-8.5742-40.129-20.133zm0 35.816c-4.6367-6.7969-5.293-12.023-3.9375-14.008v0.003907c1.3398-1.332 3.2227-1.9609 5.0938-1.6992 2.0117 0.039062 4.0156 0.30078 5.9688 0.78516 28.133 6.4844 32.398 27.16 32.988 35.051-16.578 2.1719-32.223-8.5508-40.113-20.117zm0 35.816c-4.6367-6.7969-5.293-12.023-3.9375-14.008v0.003906c1.3359-1.332 3.2227-1.9609 5.0938-1.7031 2.0117 0.039062 4.0156 0.30469 5.9688 0.78906 28.133 6.4844 32.398 27.16 32.988 35.051-16.578 2.1758-32.223-8.5469-40.113-20.109zm0 35.816c-4.6367-6.7969-5.293-12.027-3.9375-14.008v0.007812c1.3398-1.3438 3.2383-1.9766 5.1172-1.7109 2.0117 0.042969 4.0117 0.30469 5.9648 0.78906 28.133 6.4922 32.398 27.16 32.988 35.055-16.598 2.1992-32.242-8.5352-40.133-20.094zm40.176-2.5898-0.13672-0.20312h0.13672zm0-35.816c-0.066406-0.10156-0.13672-0.19922-0.20312-0.30078h0.20312zm-9.7969-172.4c0-16.926 7.2461-28.734 13.754-28.734 6.5078 0 13.754 11.809 13.754 28.734s-7.2461 28.734-13.754 28.734c-6.5117 0.003906-13.758-11.785-13.758-28.711zm217.63 145.63c1.3555 1.9688 0.69531 7.2148-3.9375 14.008-7.8906 11.559-23.512 22.309-40.113 20.117 0.58984-7.8711 4.8516-28.562 32.988-35.055 5.6406-1.2734 9.7617-0.9375 11.062 0.96484zm0-35.816c1.3555 1.9688 0.69531 7.2109-3.9375 14.008-7.8906 11.566-23.52 22.309-40.148 20.117 0.54297-7.8711 4.7031-28.52 33.008-35.031 5.6602-1.3008 9.7969-0.96094 11.078 0.92188zm-44.152-95.938v-0.16016h0.11719zm44.152 60.133c1.3555 1.9688 0.69531 7.2109-3.9375 14.008-7.8906 11.562-23.52 22.301-40.148 20.117 0.54297-7.8711 4.7031-28.52 33.008-35.031 5.6602-1.3203 9.7969-0.97656 11.078 0.90625zm0-35.816c1.3555 1.9688 0.69531 7.2148-3.9375 14.008-7.8906 11.566-23.523 22.293-40.148 20.121 0.45703-6.9453 2.8672-13.617 6.957-19.25 4.0859-5.6289 9.6875-9.9883 16.148-12.57l0.49609-0.22656c3.043-1.2812 6.1914-2.2891 9.4102-3.0156 5.6523-1.3125 9.7734-0.94922 11.074 0.92187zm0-35.758c1.3555 1.9688 0.69531 7.2109-3.9375 14.012-4.8633 6.9961-11.434 12.637-19.09 16.379-0.63672 0.26562-1.2383 0.54297-1.8477 0.82422h0.003906c-6.0156 2.6758-12.641 3.6836-19.18 2.9141 0.58984-7.8711 4.8516-28.566 32.988-35.055 5.6406-1.3203 9.7812-0.97656 11.062 0.91016zm-11.062-36.754c5.6484-1.3086 9.7852-0.95703 11.062 0.92188 1.3555 1.9688 0.69531 7.2109-3.9375 14.008-7.8906 11.566-23.496 22.305-40.148 20.117 0.55469-7.8789 4.7148-28.539 33.02-35.062zm-81.141 14.914c-4.6367-6.7969-5.293-12.023-3.9375-14.008h0.003907c1.3398-1.332 3.2227-1.9609 5.0938-1.6992 2.0156 0.039062 4.0195 0.30078 5.9727 0.78516 28.133 6.4883 32.398 27.16 32.988 35.031-16.613 2.1797-32.23-8.543-40.121-20.109zm0 35.836c-4.6367-6.8008-5.293-12.027-3.9375-14.012h0.003907c1.3398-1.3398 3.2344-1.9727 5.1133-1.707 2.0156 0.039063 4.0156 0.30469 5.9688 0.78906 28.133 6.4883 32.398 27.16 32.988 35.055-6.4062 0.76172-12.898-0.19141-18.82-2.7578-0.73828-0.34766-1.4883-0.6875-2.2656-1.0117-7.6367-3.7422-14.195-9.3711-19.051-16.352zm0 143.24c-4.6406-6.7969-5.293-12.027-3.9375-14.008l0.003907 0.003907c1.3359-1.3398 3.2227-1.9727 5.0938-1.7109 2.0156 0.039062 4.0156 0.30469 5.9688 0.78906 28.133 6.4922 32.402 27.16 32.992 35.055-16.594 2.1445-32.227-8.5664-40.117-20.125zm0-35.816c-4.6367-6.7969-5.2891-12.023-3.9375-14.008h0.003907c1.332-1.3398 3.2188-1.9766 5.0938-1.7188 2.0156 0.039063 4.0156 0.30469 5.9688 0.78906 28.133 6.4844 32.402 27.16 32.992 35.051-16.59 2.1836-32.23-8.5664-40.121-20.129zm0-35.816c-4.6367-6.7969-5.2891-12.023-3.9375-14.008h0.003907c1.332-1.3398 3.2188-1.9766 5.0938-1.7188 2.0156 0.039062 4.0156 0.30078 5.9688 0.78516 28.133 6.4844 32.402 27.16 32.992 35.051-16.59 2.1602-32.23-8.5625-40.121-20.129zm0-35.816c-4.6367-6.793-5.2891-12.023-3.9375-14.008h0.003907c1.332-1.3477 3.2188-1.9922 5.0938-1.7383 2.0156 0.039063 4.0156 0.30469 5.9688 0.78906 3.2344 0.73047 6.3945 1.7461 9.4453 3.0391l0.27734 0.12891c6.4805 2.5938 12.098 6.9609 16.211 12.598 4.1133 5.6406 6.5547 12.32 7.0469 19.285-16.625 2.2031-32.219-8.5664-40.109-20.125zm40.18-38.344-0.085938-0.125h0.085938zm-9.8008-65.023c0-16.926 7.2461-28.734 13.754-28.734s13.754 11.809 13.754 28.734c0 16.926-7.2461 28.734-13.754 28.734-6.5078-0.003906-13.754-11.809-13.754-28.734zm217.83 247.97c1.3555 1.9688 0.69922 7.2109-3.9375 14.008-7.8711 11.559-23.527 22.297-40.113 20.117 0.58984-7.8711 4.8516-28.562 32.988-35.055 5.6406-1.293 9.7812-0.96094 11.062 0.94141zm0-35.816c1.3555 1.9688 0.69922 7.2109-3.9375 14.008-7.8711 11.566-23.508 22.309-40.148 20.117 0.54297-7.8711 4.7031-28.523 33.008-35.031 5.6602-1.3242 9.7969-0.98438 11.078 0.89844zm0-35.816c1.3555 1.9688 0.69922 7.2109-3.9375 14.008-7.8711 11.566-23.508 22.301-40.148 20.117 0.54297-7.8711 4.7031-28.523 33.008-35.031 5.6602-1.3281 9.7969-0.98828 11.078 0.89453zm-40.359 6.6094v-0.1875h0.15625c-0.054687 0.054688-0.10156 0.11719-0.15625 0.17578zm40.359-42.438c1.3555 1.9688 0.69922 7.2148-3.9375 14.008-7.8711 11.562-23.516 22.312-40.113 20.121v-0.003906c0.49219-6.9648 2.9375-13.648 7.0547-19.289 4.1172-5.6367 9.7383-10.004 16.219-12.594l0.24609-0.11719h0.003906c3.0586-1.293 6.2266-2.3125 9.4648-3.043 5.6445-1.3281 9.7812-0.96484 11.062 0.90625zm0-35.758c1.3555 1.9688 0.69922 7.2109-3.9375 14.012v-0.003906c-4.8594 6.9883-11.422 12.625-19.066 16.367-0.69141 0.28906-1.3516 0.59375-2.0117 0.89844-5.9727 2.6367-12.547 3.6211-19.035 2.8516 0.58984-7.8711 4.8516-28.566 32.988-35.055 5.6406-1.3164 9.7734-0.96875 11.062 0.91406zm-11.062-36.754c5.6484-1.3047 9.7852-0.95703 11.062 0.92188 1.3555 1.9688 0.69922 7.2109-3.9375 14.008-7.8711 11.566-23.508 22.305-40.148 20.117 0.55469-7.8789 4.7148-28.539 33.02-35.062zm-81.137 193.99c-4.6406-6.793-5.293-12.027-3.9375-14.008h0.003907c1.3398-1.3438 3.2344-1.9766 5.1133-1.7109 2.0156 0.042969 4.0156 0.30469 5.9688 0.78906 28.133 6.4922 32.398 27.16 32.988 35.055-16.633 2.168-32.246-8.5664-40.137-20.125zm0-35.816c-4.6406-6.7969-5.293-12.023-3.9375-14.008l0.003907-0.003906c1.3359-1.332 3.2188-1.9648 5.0898-1.7031 2.0156 0.039062 4.0195 0.30469 5.9727 0.78906 28.133 6.4844 32.398 27.16 32.988 35.051-16.613 2.1641-32.23-8.582-40.117-20.141zm0-35.816c-4.6406-6.7969-5.293-12.023-3.9375-14.008l0.003907-0.003906c1.3359-1.332 3.2227-1.9609 5.0898-1.6992 2.0156 0.039062 4.0195 0.30469 5.9727 0.78516 28.133 6.4844 32.398 27.16 32.988 35.051-16.613 2.1406-32.23-8.582-40.117-20.148zm0-35.816c-4.6406-6.793-5.293-12.023-3.9375-14.008l0.003907-0.003907c1.3398-1.3398 3.2383-1.9727 5.1133-1.707 2.0156 0.042969 4.0156 0.30469 5.9688 0.78906 3.2344 0.73047 6.3945 1.7461 9.4453 3.0391 0.089844 0.042969 0.17969 0.089844 0.27344 0.12891 6.4805 2.5938 12.098 6.9609 16.211 12.598 4.1133 5.6406 6.5547 12.324 7.0469 19.285-16.633 2.1914-32.238-8.5938-40.125-20.156zm21.059-18.5c-0.65625-0.30469-1.3086-0.60547-1.9961-0.89062v-0.003906c-7.6445-3.7422-14.207-9.3789-19.062-16.367-4.6406-6.8008-5.2969-12.027-3.9375-14.012h0.003907c1.332-1.3398 3.2188-1.9727 5.0898-1.7109 2.0156 0.039063 4.0156 0.30469 5.9688 0.78906 28.133 6.4883 32.402 27.16 32.992 35.055-6.4961 0.75781-13.078-0.24219-19.059-2.8906zm-21.062-53.098c-4.6367-6.7969-5.293-12.023-3.9375-14.008l0.003906-0.003906c1.3359-1.332 3.2227-1.9609 5.0898-1.6992 2.0156 0.039063 4.0156 0.30469 5.9688 0.78516 28.133 6.4883 32.402 27.16 32.992 35.051-16.609 2.1406-32.227-8.5898-40.117-20.156zm30.379-31.742c0-16.926 7.25-28.734 13.777-28.734s13.754 11.809 13.754 28.734c0 16.926-7.25 28.734-13.754 28.734-6.5039-0.007812-13.777-11.84-13.777-28.766z"/>
  <path d="m273.12 631.14c0 3.2617-2.6445 5.9023-5.9023 5.9023-3.2617 0-5.9062-2.6406-5.9062-5.9023s2.6445-5.9023 5.9062-5.9023c3.2578 0 5.9023 2.6406 5.9023 5.9023"/>
  <path d="m337.2 626.09c0 3.2617-2.6445 5.9062-5.9023 5.9062-3.2617 0-5.9062-2.6445-5.9062-5.9062 0-3.2578 2.6445-5.9023 5.9062-5.9023 3.2578 0 5.9023 2.6445 5.9023 5.9023"/>
  <path d="m404.5 617.24c0 3.2617-2.6406 5.9062-5.9023 5.9062-3.2617 0-5.9062-2.6445-5.9062-5.9062s2.6445-5.9023 5.9062-5.9023c3.2617 0 5.9023 2.6406 5.9023 5.9023"/>
  <path d="m468.82 628.97c0 3.2617-2.6445 5.9023-5.9062 5.9023-3.2578 0-5.9023-2.6406-5.9023-5.9023s2.6445-5.9062 5.9023-5.9062c3.2617 0 5.9062 2.6445 5.9062 5.9062"/>
  <path d="m545.38 628.97c0 3.2617-2.6445 5.9023-5.9023 5.9023-3.2617 0-5.9062-2.6406-5.9062-5.9023s2.6445-5.9062 5.9062-5.9062c3.2578 0 5.9023 2.6445 5.9023 5.9062"/>
 </g>
</svg>