<?xml version="1.0" encoding="UTF-8"?>
<!-- The Best Svg Icon site in the world: iconSvg.co, Visit us! https://iconsvg.co -->
<svg width="800px" height="800px" version="1.1" viewBox="144 144 512 512" xmlns="http://www.w3.org/2000/svg">
 <defs>
  <clipPath id="a">
   <path d="m148.09 330h48.906v18h-48.906z"/>
  </clipPath>
 </defs>
 <path d="m558.54 413.7c-7.0781 0.015626-14.129 0.83594-21.02 2.4414 0.73047-5.2148 1.0977-10.477 1.1016-15.746-0.011719-28.199-10.695-55.352-29.906-75.996-19.211-20.648-45.523-33.258-73.652-35.293-28.129-2.0391-55.984 6.6445-77.969 24.305-8.3086-22.633-27.094-39.824-50.375-46.098-23.281-6.2734-48.156-0.84766-66.715 14.547-18.555 15.395-28.477 38.844-26.609 62.883 1.8711 24.039 15.297 45.672 36.008 58.016-18.797 17.895-26.812 44.352-21.098 69.668-17.277-0.71484-34.102 5.6211-46.621 17.551-12.516 11.93-19.652 28.434-19.77 45.723-0.11719 17.293 6.793 33.891 19.148 45.992 12.352 12.098 29.09 18.66 46.379 18.184h331.1c32.609-0.94922 62.348-18.898 78.387-47.309 16.039-28.414 16.039-63.148 0-91.559-16.039-28.414-45.777-46.359-78.387-47.309zm-328.19-74.625c0.10156-18.832 9.5078-36.398 25.133-46.914 15.621-10.516 35.438-12.625 52.922-5.6289 17.484 6.9922 30.379 22.188 34.438 40.578-14.016 15.938-23.191 35.547-26.449 56.52-17.57-3.8164-35.934-1.0156-51.562 7.8711-10.246-4.4062-18.977-11.723-25.105-21.039-6.1289-9.3203-9.3867-20.234-9.375-31.387zm328.19 243.48h-331.1c-12.641 0.51953-24.945-4.1367-34.07-12.895-9.1289-8.7578-14.289-20.863-14.289-33.512 0-12.648 5.1602-24.75 14.289-33.512 9.125-8.7578 21.43-13.414 34.07-12.895 3.8008 0.003907 7.5859 0.50781 11.254 1.4961 3.2148 0.78516 6.5977-0.30859 8.7383-2.832 2.1602-2.543 2.6484-6.1016 1.2617-9.1328-6.2109-13.82-6.6562-29.543-1.2344-43.691s16.262-25.551 30.113-31.684c13.855-6.1289 29.582-6.4844 43.699-0.98438 2.5977 1.0352 5.5352 0.74219 7.8711-0.78516 2.2891-1.5195 3.7188-4.0312 3.8594-6.7695 1.5-26.863 14.387-51.809 35.418-68.582 21.035-16.773 48.223-23.781 74.742-19.27 26.523 4.5117 49.863 20.117 64.164 42.902 14.305 22.785 18.211 50.59 10.746 76.438-0.85547 3.1875 0.16016 6.5859 2.625 8.7852 2.4648 2.1953 5.957 2.8164 9.0273 1.6055 9.2617-3.9258 19.223-5.9336 29.281-5.9062 26.492 0.85547 50.609 15.48 63.613 38.574 13.004 23.09 13.004 51.297 0 74.391s-37.121 37.719-63.613 38.574z"/>
 <path d="m287.35 248.07c4.7812 0 8.6562-3.8789 8.6562-8.6602v-30.625c0-4.7812-3.875-8.6562-8.6562-8.6562-4.7852 0-8.6602 3.875-8.6602 8.6562v30.625c0 4.7812 3.875 8.6602 8.6602 8.6602z"/>
 <g clip-path="url(#a)">
  <path d="m196.35 339.07c0.003906-2.3398-0.94141-4.5781-2.6172-6.2109-1.6758-1.6289-3.9375-2.5117-6.2773-2.4492h-30.387c-4.7812 0-8.6562 3.875-8.6562 8.6602 0 4.7812 3.875 8.6562 8.6562 8.6562h30.387c2.3398 0.066407 4.6016-0.82031 6.2773-2.4492 1.6758-1.6328 2.6211-3.8711 2.6172-6.207z"/>
 </g>
 <path d="m211.07 274.68c1.6172 1.6523 3.8281 2.5859 6.1406 2.5977 2.2891 0.003906 4.4844-0.9375 6.0625-2.5977 1.6289-1.6133 2.5469-3.8086 2.5469-6.1016s-0.91797-4.4883-2.5469-6.1016l-21.887-21.645c-1.625-1.6367-3.8359-2.5547-6.1406-2.5547-2.3047 0-4.5156 0.91797-6.1406 2.5547-3.3164 3.418-3.3164 8.8594 0 12.277z"/>
 <path d="m357.88 277.27c2.3125-0.011719 4.5234-0.94531 6.1406-2.5977l21.57-21.57c1.6328-1.625 2.5508-3.8359 2.5508-6.1406 0-2.3047-0.91797-4.5117-2.5508-6.1367-1.6133-1.6328-3.8086-2.5469-6.1016-2.5469-2.293 0-4.4883 0.91406-6.1016 2.5469l-21.648 21.648v-0.003906c-2.4102 2.5039-3.1094 6.2031-1.7773 9.4141 1.332 3.2109 4.4414 5.3281 7.918 5.3867z"/>
 <path d="m189.11 437.31c3.4062 3.3594 8.8789 3.3594 12.281 0l21.57-21.57c2.5312-3.4023 2.2227-8.1406-0.72656-11.188-2.9492-3.0508-7.6758-3.5117-11.16-1.0938l-21.965 21.648c-3.3086 3.3945-3.3086 8.8086 0 12.203z"/>
</svg>