<?xml version="1.0" encoding="UTF-8"?>
<!-- The Best Svg Icon site in the world: iconSvg.co, Visit us! https://iconsvg.co -->
<svg fill="#000000" width="800px" height="800px" version="1.1" viewBox="144 144 512 512" xmlns="http://www.w3.org/2000/svg">
 <path d="m611.6 308.37-62.031-51.324c-4.7227-3.7773-11.652-3.1484-15.742 1.5742-11.336 13.539-15.113 31.805-10.391 48.492l1.2578 4.4102-65.496 66.438-6.6133-113.67c-0.31641-5.9844-5.3516-10.391-11.336-10.391h-164.05c-5.9844 0-11.02 4.7227-11.336 10.707l-1.2578 18.895h-0.62891c-44.082 0-79.664 35.895-79.664 79.664 0 27.395 13.855 52.27 36.84 67.07l33.691 21.727-2.2031 37.473h-4.7227c-6.2969 0-11.336 5.0391-11.336 11.336v34.637c0 6.2969 5.0391 11.336 11.336 11.336h222.62c6.2969 0 11.336-5.0391 11.336-11.336v-34.637c0-6.2969-5.0391-11.336-11.336-11.336h-4.7227v-2.2031l99.812-143.91h1.8906c17.32 1.5742 34.32-5.668 45.656-19.207 1.8906-2.2031 2.832-5.3516 2.5195-8.1875-0.3125-2.8359-1.8906-5.668-4.0938-7.5586zm-378.48 102.97c-16.375-10.707-26.449-28.652-26.449-48.176 0-31.488 25.504-56.992 56.68-57.309l-7.2422 120.6zm226.08 112.41h-200.26v-11.965h200.27zm110.21-202.78-8.1875-0.62891c-4.0938-0.31641-7.8711 1.5742-10.078 4.7227l-105.8 152.4c-1.5742 2.2031-2.2031 4.4102-1.8906 6.9258l0.31641 4.7227h-168.77l2.5195-43.453 8.8164-150.2v-1.2578l0.94531-18.262h142.96l7.5586 128.16c0.31641 4.4102 3.1484 8.1875 7.2422 9.7617s8.8164 0.62891 11.965-2.5195l87.852-88.48c2.832-2.832 3.7773-6.9258 2.832-11.02l-3.1484-10.707c-1.8906-5.9844-1.5742-12.594 0.31641-18.262l41.562 34.32c-4.7266 3.1445-10.707 4.4062-17.004 3.7773z"/>
</svg>