<?xml version="1.0" encoding="UTF-8"?>
<!-- The Best Svg Icon site in the world: iconSvg.co, Visit us! https://iconsvg.co -->
<svg fill="#000000" width="800px" height="800px" version="1.1" viewBox="144 144 512 512" xmlns="http://www.w3.org/2000/svg">
 <g>
  <path d="m565.31 321.28h-7.875v-39.359c0-2.0859-0.82812-4.0898-2.3047-5.5664-1.4766-1.4766-3.4766-2.3047-5.5664-2.3047h-31.488c-4.3477 0-7.8711 3.5234-7.8711 7.8711v39.359h-112.31l-45.496-144.06c-1.0312-3.2773-4.0703-5.5078-7.5078-5.5078h-181.06v15.742h15.746v138.44l-13.438 13.438c-1.4766 1.4766-2.3047 3.4805-2.3086 5.5664v204.67c0 2.0898 0.83203 4.0898 2.3086 5.5664 1.4766 1.4766 3.4766 2.3047 5.5664 2.3047h20.75c8.9219 27.625 29.16 50.156 55.676 61.977 26.512 11.824 56.797 11.824 83.309 0 26.512-11.82 46.754-34.352 55.676-61.977h60.512c2.75 26.117 18.34 49.141 41.566 61.387 23.23 12.25 51.035 12.109 74.137-0.37109 23.102-12.48 38.461-35.66 40.949-61.801 8.957-1.7461 17.031-6.543 22.844-13.578 5.8125-7.0352 9.0039-15.871 9.0312-24.996v-125.95c-0.023437-18.781-7.4922-36.789-20.773-50.074-13.285-13.281-31.293-20.75-50.074-20.773zm-39.359-31.488h15.742v31.488h-15.746zm-236.16 322.75c-22.965 0-44.988-9.1211-61.23-25.363-16.238-16.238-25.359-38.262-25.359-61.23 0-22.965 9.1211-44.988 25.359-61.227 16.242-16.242 38.266-25.363 61.23-25.363 22.969 0 44.992 9.1211 61.23 25.363 16.238 16.238 25.363 38.262 25.363 61.227-0.027343 22.961-9.1602 44.969-25.391 61.203-16.234 16.23-38.246 25.363-61.203 25.391zm0-188.93c-29.953-0.20703-58.473 12.805-77.941 35.57-19.469 22.762-27.906 52.953-23.055 82.512h-9.2109v-193.54l13.438-13.438c1.4766-1.4766 2.3047-3.4766 2.3047-5.5664v-141.7h143.8l45.492 144.06c1.0312 3.2812 4.0703 5.5117 7.5078 5.5117h23.617v204.67h-24.953c4.8477-29.559-3.5859-59.75-23.059-82.512-19.469-22.766-47.988-35.777-77.941-35.57zm236.16 188.93c-16.699 0-32.719-6.6367-44.527-18.445-11.812-11.809-18.445-27.828-18.445-44.531s6.6328-32.719 18.445-44.531c11.809-11.809 27.828-18.445 44.527-18.445 16.703 0 32.723 6.6367 44.531 18.445 11.812 11.812 18.445 27.828 18.445 44.531-0.015625 16.695-6.6602 32.703-18.465 44.512-11.805 11.805-27.812 18.445-44.512 18.465zm94.465-94.465c-0.023437 4.9688-1.6133 9.8047-4.543 13.816-2.9297 4.0117-7.0508 6.9961-11.773 8.5312-3.0977-25.863-18.793-48.523-41.918-60.516-23.125-11.996-50.688-11.77-73.617 0.59766-22.926 12.367-38.25 35.273-40.93 61.188h-16.145v-204.67h133.82c14.609 0.015624 28.613 5.8281 38.945 16.156 10.328 10.332 16.141 24.336 16.156 38.945z"/>
  <path d="m342.81 400h-107.01c-13.168-0.019531-25.469 6.5625-32.758 17.531l-6.3906 9.5898 13.098 8.7383 6.3984-9.5977 0.003907-0.003907c4.3711-6.5781 11.75-10.527 19.648-10.516h107.01c8.2891 0.027343 15.969 4.375 20.254 11.469l14.445 24.074 13.492-8.1094-14.445-24.066v0.003906c-7.1367-11.832-19.93-19.078-33.746-19.113z"/>
  <path d="m211.07 337.02h149.57c2.5117 0 4.8711-1.1914 6.3555-3.2109 1.4844-2.0234 1.918-4.6328 1.1641-7.0234l-39.359-125.95c-1.0312-3.2812-4.0781-5.5156-7.5195-5.5117h-110.21c-4.3477 0-7.8711 3.5273-7.8711 7.875v125.95c0 2.0898 0.82812 4.0938 2.3047 5.5664 1.4766 1.4766 3.4766 2.3086 5.5664 2.3086zm7.8711-125.95h96.551l34.441 110.21h-130.99z"/>
  <path d="m462.98 360.64h15.742v39.359h-15.742z"/>
  <path d="m494.46 360.64h15.742v39.359h-15.742z"/>
  <path d="m525.95 360.64h15.742v39.359h-15.742z"/>
  <path d="m289.79 494.46c-8.3516 0-16.359 3.3203-22.266 9.2227-5.9023 5.9062-9.2227 13.918-9.2227 22.266 0 8.3516 3.3203 16.363 9.2227 22.266 5.9062 5.9062 13.914 9.2227 22.266 9.2227 8.3516 0 16.363-3.3164 22.266-9.2227 5.9062-5.9023 9.2227-13.914 9.2227-22.266 0-8.3477-3.3164-16.359-9.2227-22.266-5.9023-5.9023-13.914-9.2227-22.266-9.2227zm0 47.23v0.003906c-4.1758 0-8.1797-1.6602-11.133-4.6133-2.9531-2.9492-4.6094-6.957-4.6094-11.133s1.6562-8.1797 4.6094-11.133c2.9531-2.9492 6.957-4.6094 11.133-4.6094 4.1758 0 8.1797 1.6602 11.133 4.6094 2.9531 2.9531 4.6133 6.957 4.6133 11.133s-1.6602 8.1836-4.6133 11.133c-2.9531 2.9531-6.957 4.6133-11.133 4.6133z"/>
  <path d="m525.95 518.08c-8.3477 0-16.359 3.3164-22.266 9.2227-5.9023 5.9062-9.2227 13.914-9.2227 22.266 0 8.3516 3.3203 16.359 9.2227 22.266 5.9062 5.9062 13.918 9.2227 22.266 9.2227 8.3516 0 16.363-3.3164 22.266-9.2227 5.9062-5.9062 9.2227-13.914 9.2227-22.266 0-8.3516-3.3164-16.359-9.2227-22.266-5.9023-5.9062-13.914-9.2227-22.266-9.2227zm0 47.23v0.003906c-4.1758 0-8.1797-1.6602-11.133-4.6133-2.9492-2.9531-4.6094-6.957-4.6094-11.133 0-4.1758 1.6602-8.1797 4.6094-11.133 2.9531-2.9531 6.957-4.6094 11.133-4.6094s8.1836 1.6562 11.133 4.6094c2.9531 2.9531 4.6133 6.957 4.6133 11.133 0 4.1758-1.6602 8.1797-4.6133 11.133-2.9492 2.9531-6.957 4.6133-11.133 4.6133z"/>
 </g>
</svg>