<?xml version="1.0" encoding="UTF-8"?>
<!-- The Best Svg Icon site in the world: iconSvg.co, Visit us! https://iconsvg.co -->
<svg fill="#000000" width="800px" height="800px" version="1.1" viewBox="144 144 512 512" xmlns="http://www.w3.org/2000/svg">
 <path d="m510.06 370.13h-0.34375c-17.078 0.019532-33.176 1.4258-46.965 3.9258 11.527-8.0195 23.906-18.461 35.996-30.582 32.207-32.277 57.555-72.207 43.676-86.062-13.863-13.828-53.746 11.594-85.961 43.883-12.062 12.09-22.449 24.461-30.434 35.98 2.4805-13.82 3.8555-29.953 3.8359-47.074-0.058594-45.59-10.359-91.727-29.965-91.727h-0.011719c-9.2148 0.011719-16.949 10.066-22.363 29.078-4.7969 16.828-7.4219 39.105-7.3906 62.723 0.019531 17.078 1.4219 33.172 3.9258 46.965-8.0156-11.527-18.453-23.906-30.578-35.996-16.723-16.688-34.363-30.539-49.672-39.004-17.297-9.5742-29.887-11.195-36.387-4.6641-6.5078 6.5195-4.8672 19.094 4.7461 36.375 8.5039 15.285 22.398 32.895 39.125 49.578 12.09 12.066 24.465 22.453 35.988 30.434-13.723-2.4648-29.73-3.8359-46.723-3.8359h-0.35938c-23.625 0.03125-45.891 2.707-62.711 7.543-18.992 5.4648-29.027 13.223-29.016 22.434 0.023438 19.559 45.973 29.754 91.461 29.754h0.34375c17.078-0.019531 33.176-1.4258 46.965-3.9258-11.527 8.0195-23.906 18.461-35.996 30.582-32.207 32.281-57.555 72.207-43.672 86.062 2.6562 2.6445 6.2617 3.8633 10.586 3.8633 18.27 0 49.328-21.633 75.371-47.746 12.062-12.09 22.449-24.461 30.434-35.98-2.4805 13.82-3.8555 29.953-3.8359 47.074 0.050782 45.602 10.359 91.742 29.957 91.738h0.011718c9.2148-0.011719 16.949-10.066 22.363-29.078 4.7969-16.828 7.4219-39.105 7.3906-62.723-0.019531-17.078-1.4219-33.172-3.9258-46.965 8.0156 11.527 18.453 23.906 30.578 35.996 16.723 16.688 34.363 30.539 49.672 39.004 10.332 5.7227 18.988 8.6016 25.664 8.6016 4.5 0 8.1016-1.3086 10.723-3.9336 6.5078-6.5195 4.8672-19.094-4.7461-36.375-8.5039-15.285-22.398-32.895-39.125-49.578-12.09-12.066-24.465-22.453-35.988-30.434 13.723 2.4648 29.73 3.8359 46.723 3.8359h0.35937c23.625-0.03125 45.891-2.707 62.711-7.543 19-5.4609 29.039-13.219 29.031-22.43-0.035156-19.57-45.98-29.773-91.469-29.773zm-110.06 55.469c-14.117 0-25.605-11.488-25.605-25.605 0-14.117 11.488-25.605 25.605-25.605s25.605 11.488 25.605 25.605c-0.003907 14.121-11.488 25.605-25.605 25.605zm63.598-117.18c37.336-37.422 66.961-48.598 71.707-43.863 4.7578 4.7422-6.3594 34.395-43.691 71.812-22.539 22.59-46.543 39.5-61.98 43.793-2.5703-3.8242-5.8555-7.1289-9.668-9.7148 4.2773-15.441 21.121-39.457 43.633-62.027zm-76.379-78.102c4.9023-17.211 10.438-21.766 12.688-21.766 6.7148 0 19.82 28.824 19.879 81.672 0.039063 31.91-4.9844 60.836-12.855 74.781-2.2422-0.44141-4.5586-0.68359-6.9258-0.68359-2.3164 0-4.5781 0.24219-6.7773 0.66406-7.8945-13.945-12.973-42.832-13.008-74.711-0.035156-22.715 2.4531-44.008 7-59.957zm-116.24 58.738c-8.707-15.637-8.0039-22.773-6.418-24.359 1.5859-1.5859 8.7109-2.3008 24.375 6.3672 14.508 8.0312 31.355 21.285 47.434 37.32 22.598 22.547 39.504 46.551 43.793 61.98-3.8242 2.5703-7.1289 5.8555-9.7148 9.668-15.445-4.2773-39.457-21.113-62.027-43.637-16.078-16.039-29.375-32.855-37.441-47.34zm19.293 130.73h-0.36328c-52.629 0-81.352-12.992-81.355-19.688 0-2.2422 4.5352-7.793 21.734-12.734 15.941-4.5781 37.227-7.1172 59.934-7.1484h0.33594c31.781 0 60.555 5.0117 74.441 12.863-0.44141 2.2422-0.68359 4.5586-0.68359 6.9258 0 2.3164 0.24219 4.5781 0.66406 6.7695-13.934 7.8867-42.82 12.969-74.707 13.012zm46.129 71.793c-37.332 37.422-66.945 48.598-71.707 43.863-4.7578-4.7422 6.3594-34.395 43.691-71.812 22.539-22.59 46.543-39.5 61.98-43.793 2.5703 3.8242 5.8555 7.1289 9.668 9.7148-4.2773 15.438-21.117 39.457-43.633 62.027zm76.383 78.098c-4.9062 17.211-10.445 21.766-12.688 21.766-6.7148-0.003906-19.82-28.824-19.879-81.672-0.039063-31.91 4.9844-60.836 12.855-74.781 2.2422 0.44141 4.5586 0.68359 6.9258 0.68359 2.3164 0 4.5781-0.24219 6.7773-0.66406 7.8945 13.945 12.973 42.832 13.008 74.711 0.03125 22.719-2.457 44.008-7 59.957zm116.24-58.738c8.707 15.637 8.0039 22.773 6.418 24.359-1.5859 1.5781-8.7148 2.3008-24.375-6.3672-14.508-8.0312-31.355-21.285-47.434-37.32-22.598-22.547-39.504-46.551-43.793-61.98 3.8242-2.5703 7.1289-5.8555 9.7148-9.668 15.445 4.2773 39.457 21.113 62.027 43.637 16.078 16.039 29.375 32.855 37.441 47.34zm40.691-98.301c-15.941 4.5781-37.227 7.1172-59.934 7.1484h-0.33594c-31.781 0-60.555-5.0117-74.441-12.863 0.44141-2.2422 0.68359-4.5586 0.68359-6.9258 0-2.3164-0.24219-4.5781-0.66406-6.7695 13.934-7.8945 42.824-12.977 74.711-13.012h0.36328c52.629 0 81.352 12.992 81.355 19.688-0.003907 2.2383-4.5391 7.7852-21.738 12.734z"/>
</svg>