<?xml version="1.0" encoding="UTF-8"?>
<!-- The Best Svg Icon site in the world: iconSvg.co, Visit us! https://iconsvg.co -->
<svg fill="#000000" width="800px" height="800px" version="1.1" viewBox="144 144 512 512" xmlns="http://www.w3.org/2000/svg">
 <path d="m171.71 218.94h89.223-0.003906c-27.746 21.328-50.227 48.746-65.695 80.137-15.469 31.395-23.52 65.922-23.523 100.92 0.011718 53.648 18.914 105.58 53.391 146.68 34.477 41.102 82.324 68.754 135.15 78.109 52.828 9.3516 107.26-0.19531 153.75-26.969 22.375-12.945 42.402-29.582 59.234-49.199-0.035156 0.3125-0.054687 0.62891-0.054687 0.94141v31.488c0 0.84766 0.13672 1.6875 0.40625 2.4883l15.742 47.23h0.003907c1.0703 3.2148 4.0742 5.3828 7.4648 5.3867h15.742c3.3906 0 6.3984-2.168 7.4688-5.3828l15.742-47.23v-0.003906c0.26953-0.80078 0.40625-1.6406 0.40625-2.4883v-31.488c0-2.0859-0.83203-4.0898-2.3047-5.5664-1.4766-1.4766-3.4805-2.3047-5.5664-2.3047v-141.7c-0.003906-55.094-19.926-108.33-56.094-149.89-36.168-41.559-86.145-68.637-140.71-76.238v-2.1641c0-2.0898-0.83203-4.0898-2.3086-5.5664-1.4766-1.4766-3.4766-2.3086-5.5664-2.3086h-47.23c-4.3477 0-7.8711 3.5273-7.8711 7.875h-196.8c-4.3477 0-7.875 3.5234-7.875 7.8711v31.488c0 2.0859 0.83203 4.0898 2.3086 5.5664 1.4766 1.4766 3.4766 2.3047 5.5664 2.3047zm435.16 401.47h-4.3984l-10.496-31.488h25.387zm13.543-47.23h-31.488v-15.746h31.488zm-188.93-383.41c50.352 7.5508 96.32 32.926 129.55 71.504 33.227 38.578 51.504 87.801 51.508 138.72v141.7h-15.742v-141.7c0-96.75-70.59-179.06-165.31-194.28zm0 31.895c85.875 15.039 149.57 90.168 149.57 178.33 0 99.836-81.223 181.05-181.05 181.05-99.836 0-181.06-81.223-181.06-181.05 0-88.156 63.695-163.29 149.57-178.32v16.012c-37.68 7.3203-71.637 27.52-96.051 57.133-24.418 29.613-37.773 66.797-37.773 105.18 0 91.152 74.16 165.31 165.31 165.31s165.31-74.16 165.31-165.31c-0.003906-38.383-13.359-75.566-37.773-105.18-24.418-29.613-58.375-49.812-96.051-57.133zm-47.234-42.09h31.488v70.848c-0.003907 4.3477-3.5273 7.8672-7.8711 7.8711h-15.746c-4.3438-0.003906-7.8672-3.5234-7.8711-7.8711zm-15.512 74.129c0.79687 5.6367 3.6016 10.797 7.8984 14.531 4.293 3.7344 9.793 5.7969 15.484 5.8047h15.746c5.6914-0.007813 11.191-2.0703 15.484-5.8047 4.2969-3.7344 7.1016-8.8945 7.8984-14.531 33.484 7.1641 63.496 25.594 85.027 52.219 21.535 26.625 33.281 59.828 33.285 94.07 0 82.473-67.098 149.57-149.57 149.57-82.469-0.003906-149.57-67.098-149.57-149.57 0.003906-34.242 11.754-67.445 33.285-94.07s51.547-45.055 85.027-52.219zm-0.23047-47.992c-94.723 15.223-165.31 97.531-165.31 194.28 0 108.52 88.285 196.8 196.8 196.8 81.164 0 151-49.391 181.05-119.69v34.23c-19.004 30.945-45.629 56.496-77.328 74.215-31.699 17.719-67.414 27.012-103.73 26.988-55.137 0-108.12-21.426-147.75-59.75-39.633-38.328-62.824-90.559-64.676-145.66-1.8477-55.105 17.785-108.77 54.762-149.67 13.535-14.961 29.121-27.93 46.297-38.516h1.1602v-0.71484 0.003907c24.082-14.637 50.848-24.309 78.723-28.453zm-188.93-18.266h136.99c-11.172 4.3867-21.98 9.6523-32.32 15.746h-104.67z"/>
</svg>