<?xml version="1.0" encoding="UTF-8"?>
<!-- The Best Svg Icon site in the world: iconSvg.co, Visit us! https://iconsvg.co -->
<svg fill="#000000" width="800px" height="800px" version="1.1" viewBox="144 144 512 512" xmlns="http://www.w3.org/2000/svg">
 <path d="m623.88 321.3c1.6641 7.0117-1.6562 14.258-8.0547 17.574-2.293 1.1875-4.7695 1.7617-7.2305 1.7617-4.1445 0-8.2305-1.6367-11.266-4.75l-27.281-28.023-15.961 77.938-32.656 38.703 34.43 32.145-0.015625 65.203-25.809 12.844 0.46484-21.242 10.602-3.1094-3.543-43.066-43.07-24.797h-80.398l-35.352 38.965 29.434 53.137 5.9844 21.254h-21.246v-14.172l-45.414-68.75 25.285-30.449c13.195-15.891 20.465-36.012 20.465-56.668h-10.633c0 18.184-6.3984 35.895-18.012 49.879l-47.316 54.367v44.535l7.7266 21.254h-21.219l-1.0898-8.7656-0.68359-5.5273-8.3047-60.098 14.172-28.34-10.078-35.273c-2.7148-9.5-4.0898-19.336-4.0898-29.223v-38.238c-8.6445 0-16.504 5.0078-20.164 12.844l-18.887 40.473c-9.6719 20.73-30.215 32.844-51.594 32.844-8.543 0-17.219-1.9297-25.391-6.0195l-4.4023-2.1953 62.855-73.336c14.066-16.41 34.602-25.855 56.215-25.855h171.41l41.082-48.387c19.711-23.215 48.621-36.59 79.074-36.59h42.793c0 7.0195-4.4883 13.246-11.145 15.473l-5.8555 1.9531zm-88.828 102.36h47.379l27.66 48.734-3.8945 13.621 20.43 5.8438 0.082032-22.082-29.582-65.668-39.801-6.7656z"/>
</svg>