<?xml version="1.0" encoding="UTF-8"?>
<!-- The Best Svg Icon site in the world: iconSvg.co, Visit us! https://iconsvg.co -->
<svg fill="#000000" width="800px" height="800px" version="1.1" viewBox="144 144 512 512" xmlns="http://www.w3.org/2000/svg">
 <g>
  <path d="m596.48 263.13h-14.016v-29.688c0-19.281-15.684-34.969-34.965-34.969s-34.973 15.688-34.973 34.969v29.688h-28.398l-0.003906-29.688c0-19.281-15.684-34.969-34.965-34.969s-34.965 15.688-34.965 34.969v29.688h-28.398v-29.688c0-19.281-15.684-34.969-34.965-34.969s-34.965 15.688-34.965 34.969v29.688h-28.398l-0.003906-29.688c0-19.281-15.691-34.969-34.973-34.969s-34.965 15.688-34.965 34.969v29.688h-14.02c-2.7852 0-5.0391 2.2539-5.0391 5.0391v59.859c0 2.7812 2.2539 5.0391 5.0391 5.0391h14.016v103.09l-14.016-0.003906c-2.7852 0-5.0391 2.2539-5.0391 5.0391v59.859c0 2.7812 2.2539 5.0391 5.0391 5.0391h14.016l0.003906 83.445c0 6.6094 5.3711 11.984 11.98 11.984h45.973c6.6094 0 11.984-5.375 11.984-11.984v-83.445h28.398v83.445c0 6.6094 5.3711 11.984 11.98 11.984h45.973c6.6094 0 11.98-5.375 11.98-11.984v-83.445h28.398v83.445c0 6.6094 5.3711 11.984 11.98 11.984h45.973c6.6094 0 11.98-5.375 11.98-11.984l-0.003906-83.445h28.398v83.445c0 6.6094 5.3789 11.984 11.984 11.984h45.973c6.6094 0 11.98-5.375 11.98-11.984l0.003906-83.445h14.016c2.7852 0 5.0391-2.2539 5.0391-5.0391v-59.859c0-2.7812-2.2539-5.0391-5.0391-5.0391h-14.016v-103.09h14.016c2.7852 0 5.0391-2.2539 5.0391-5.0391v-59.859c0-2.7812-2.2539-5.0352-5.0391-5.0352zm-73.879-29.688c0-13.727 11.168-24.895 24.895-24.895s24.891 11.164 24.891 24.895v29.688h-49.785zm-98.332 0c0-13.727 11.164-24.895 24.891-24.895 13.727 0 24.891 11.164 24.891 24.895v29.688h-49.781zm-98.332 0c0-13.727 11.164-24.895 24.891-24.895 13.727 0 24.891 11.164 24.891 24.895v29.688h-49.781zm-98.336 0c0-13.727 11.164-24.895 24.891-24.895 13.727 0 24.895 11.164 24.895 24.895v29.688h-49.785zm49.785 356.09c0 1.0508-0.85547 1.9062-1.9102 1.9062h-45.973c-1.0469 0-1.9023-0.85547-1.9023-1.9062v-83.445h49.785zm98.332 0c0 1.0508-0.85547 1.9062-1.9023 1.9062h-45.973c-1.0469 0-1.9023-0.85547-1.9023-1.9062l-0.003906-83.445h49.781zm98.332 0c0 1.0508-0.85547 1.9062-1.9023 1.9062h-45.973c-1.0469 0-1.9023-0.85547-1.9023-1.9062l-0.003906-83.445h49.781zm98.336 0c0 1.0508-0.85547 1.9062-1.9023 1.9062h-45.973c-1.0547 0-1.9102-0.85547-1.9102-1.9062v-83.445h49.785zm19.055-143.3v49.781h-382.89v-49.781zm-363.84-10.078v-103.09h49.785v103.09zm59.863 0v-103.09h28.398v103.09zm38.473 0v-103.09h49.781v103.09zm59.859 0v-103.09h28.398v103.09zm38.473 0v-103.09h49.781v103.09zm59.855 0v-103.09h28.398v103.09zm38.477 0v-103.09h49.785v103.09zm68.84-113.16h-382.89v-49.781h382.89z"/>
  <path d="m539.73 303.14h15.531c2.7852 0 5.0391-2.2539 5.0391-5.0391 0-2.7812-2.2539-5.0391-5.0391-5.0391h-15.531c-2.7852 0-5.0391 2.2539-5.0391 5.0391 0.003906 2.7812 2.2539 5.0391 5.0391 5.0391z"/>
  <path d="m539.73 476.16h15.531c2.7852 0 5.0391-2.2539 5.0391-5.0391 0-2.7812-2.2539-5.0391-5.0391-5.0391h-15.531c-2.7852 0-5.0391 2.2539-5.0391 5.0391 0.003906 2.7812 2.2539 5.0391 5.0391 5.0391z"/>
  <path d="m441.4 303.14h15.531c2.7852 0 5.0391-2.2539 5.0391-5.0391 0-2.7812-2.2539-5.0391-5.0391-5.0391h-15.531c-2.7852 0-5.0391 2.2539-5.0391 5.0391 0 2.7812 2.2539 5.0391 5.0391 5.0391z"/>
  <path d="m441.4 476.16h15.531c2.7852 0 5.0391-2.2539 5.0391-5.0391 0-2.7812-2.2539-5.0391-5.0391-5.0391h-15.531c-2.7852 0-5.0391 2.2539-5.0391 5.0391 0 2.7812 2.2539 5.0391 5.0391 5.0391z"/>
  <path d="m343.06 303.14h15.531c2.7852 0 5.0391-2.2539 5.0391-5.0391 0-2.7812-2.2539-5.0391-5.0391-5.0391h-15.531c-2.7852 0-5.0391 2.2539-5.0391 5.0391 0.003906 2.7812 2.2578 5.0391 5.0391 5.0391z"/>
  <path d="m343.06 476.16h15.531c2.7852 0 5.0391-2.2539 5.0391-5.0391 0-2.7812-2.2539-5.0391-5.0391-5.0391h-15.531c-2.7852 0-5.0391 2.2539-5.0391 5.0391 0.003906 2.7812 2.2578 5.0391 5.0391 5.0391z"/>
  <path d="m244.73 303.14h15.531c2.7852 0 5.0391-2.2539 5.0391-5.0391 0-2.7812-2.2539-5.0391-5.0391-5.0391h-15.531c-2.7852 0-5.0391 2.2539-5.0391 5.0391 0 2.7812 2.2539 5.0391 5.0391 5.0391z"/>
  <path d="m244.73 476.16h15.531c2.7852 0 5.0391-2.2539 5.0391-5.0391 0-2.7812-2.2539-5.0391-5.0391-5.0391h-15.531c-2.7852 0-5.0391 2.2539-5.0391 5.0391 0 2.7812 2.2539 5.0391 5.0391 5.0391z"/>
 </g>
</svg>