<?xml version="1.0" encoding="UTF-8"?>
<!-- The Best Svg Icon site in the world: iconSvg.co, Visit us! https://iconsvg.co -->
<svg fill="#000000" width="800px" height="800px" version="1.1" viewBox="144 144 512 512" xmlns="http://www.w3.org/2000/svg">
 <path d="m566.25 452.9c-3.4648-3.7773-8.8164-4.7227-13.227-2.832l-92.262 43.77c-20.152 9.4453-37.156 23.93-49.438 41.562l0.31641-58.254c27.078-4.7227 49.121-25.82 54.473-53.844l24.875-135.4c0.94531-5.3516-1.8906-10.707-6.9258-12.594-5.0391-1.8906-10.707 0-13.855 4.4102l-13.227 20.781c-6.6055-61.406-25.812-113.05-56.984-113.05-31.176 0-50.383 51.641-56.996 113.04l-13.227-20.781c-2.832-4.7227-8.5-6.6133-13.855-4.4102-5.0391 1.8906-7.8711 7.2422-6.9258 12.594l24.875 135.4c5.0391 28.023 27.395 49.438 54.789 53.844l0.003906 58.258c-12.281-17.633-29.285-32.117-49.438-41.562l-92.262-43.77c-4.4102-2.2031-10.078-0.94531-13.227 2.832-3.4648 3.7773-3.7773 9.1328-1.2578 13.539l53.844 86.906c22.984 37.156 63.605 59.512 107.06 59.512h13.227c43.453 0 83.758-22.355 107.06-59.512l53.844-86.906c2.8359-4.4062 2.207-10.074-1.2578-13.539zm-236.47 61.402c30.543 14.484 51.957 42.824 57.625 75.57-33.379-1.8906-63.922-19.836-81.555-48.492l-33.691-54.16zm82.812 75.258c5.668-32.746 27.078-61.086 57.625-75.57l57.625-27.078-33.383 54.156c-17.945 28.652-48.488 46.602-81.867 48.492zm-22.043-171.93c2.2031 3.1484 5.668 5.3516 9.4453 5.3516s7.5586-1.8906 9.4453-5.3516l48.176-76.516-14.168 78.09c-3.7773 21.098-22.043 36.211-43.453 36.211s-39.676-15.43-43.453-36.211l-14.168-78.09zm9.4492-207.51c11.652 0 34.008 43.141 36.211 122.8l-36.211 57.621-36.211-57.621c2.2031-79.664 24.559-122.8 36.211-122.8z"/>
</svg>