<?xml version="1.0" encoding="UTF-8"?>
<!-- The Best Svg Icon site in the world: iconSvg.co, Visit us! https://iconsvg.co -->
<svg fill="#000000" width="800px" height="800px" version="1.1" viewBox="144 144 512 512" xmlns="http://www.w3.org/2000/svg">
 <g>
  <path d="m377.43 241.95c2.7852 0 5.0391-2.2539 5.0391-5.0391 0-7.5898 6.1445-13.766 13.699-13.766 2.7852 0 5.0391-2.2539 5.0391-5.0391 0-2.7812-2.2539-5.0391-5.0391-5.0391-13.105 0-23.773 10.695-23.773 23.84-0.003906 2.7852 2.25 5.043 5.0352 5.043z"/>
  <path d="m377.43 321.54c2.7852 0 5.0391-2.2539 5.0391-5.0391v-62.445c0-2.7812-2.2539-5.0391-5.0391-5.0391-2.7852 0-5.0391 2.2539-5.0391 5.0391v62.445c0 2.7852 2.2539 5.0391 5.0391 5.0391z"/>
  <path d="m501.83 406.65h-67.906v-64.496h40.422c14.414 0 26.141-11.762 26.141-26.215v-74.617c0-6.3633-2.6602-12.527-7.2969-16.918-4.3555-4.1133-9.9297-6.1836-15.703-5.8789-5.3047 0.33594-10.289 2.5898-14.027 6.3477-4.0234 4.0352-6.332 9.6445-6.332 15.379v51.742h-23.203v-55.082c0-21.195-17.188-38.438-38.32-38.438-10.195 0-19.824 3.9844-27.148 11.254-7.2031 7.3047-11.168 16.961-11.168 27.184v81.801h-21.477v-43.324c0-4.8281-1.8945-9.3906-5.2852-12.793-3.6602-3.7734-8.7812-5.7578-14.184-5.3906-9.4414 0.72656-16.836 9.0078-16.836 18.852v55.445c0 14.016 11.371 25.414 25.344 25.414h32.438v49.734h-59.125c-2.7852 0-5.0391 2.2539-5.0391 5.0391v43.801c0 2.7812 2.2539 5.0391 5.0391 5.0391h10.598l22.195 136.76c0.39844 2.4375 2.5039 4.2305 4.9727 4.2305h128.14c2.4688 0 4.5742-1.7891 4.9727-4.2305l22.195-136.76h10.598c2.7852 0 5.0391-2.2539 5.0391-5.0391v-43.801c0-2.7812-2.2539-5.0391-5.0391-5.0391zm-139.51-59.809h-37.477c-8.418 0-15.266-6.8789-15.266-15.34v-55.441c0-4.5352 3.3789-8.4883 7.4727-8.8008 2.4414-0.16016 4.6094 0.67969 6.2812 2.4023 1.543 1.5508 2.3945 3.5859 2.3945 5.7305v48.363c0 2.7812 2.2539 5.0391 5.0391 5.0391h31.551c2.7852 0 5.0391-2.2539 5.0391-5.0391l0.003906-86.844c0-7.5625 2.9375-14.703 8.2266-20.074 5.3867-5.3438 12.496-8.2891 20.016-8.2891 15.578 0 28.246 12.723 28.246 28.363v60.121c0 2.7812 2.2539 5.0391 5.0391 5.0391h33.277c2.7852 0 5.0391-2.2539 5.0391-5.0391v-56.781c0-3.0938 1.2344-6.1016 3.3945-8.2695 2.0039-2.0117 4.6797-3.2227 7.4883-3.3984 2.957-0.14844 5.8594 0.94922 8.1758 3.1406 2.6367 2.4922 4.1484 5.9883 4.1484 9.5977v74.617c0 8.8984-7.207 16.141-16.062 16.141h-45.461c-2.7852 0-5.0391 2.2539-5.0391 5.0391v69.535l-56.488-0.003906v-54.773c0-2.7812-2.2539-5.0352-5.0391-5.0352zm97.457 244.6h-119.57l-21.242-130.92h162.05zm37.012-140.99h-9.8008c-0.015626 0-0.027344-0.011719-0.042969-0.011719l-173.9 0.003906c-0.015625 0-0.027344 0.011719-0.042969 0.011719h-9.8008v-33.723h193.59z"/>
 </g>
</svg>