<?xml version="1.0" encoding="UTF-8"?>
<!-- The Best Svg Icon site in the world: iconSvg.co, Visit us! https://iconsvg.co -->
<svg fill="#000000" width="800px" height="800px" version="1.1" viewBox="144 144 512 512" xmlns="http://www.w3.org/2000/svg">
 <g>
  <path d="m484.29 339.33-21.309-21.309-32.168-32.164 12.484-12.488 19.68 19.68 81.98-81.977-50.492-50.492-81.977 81.98 19.68 19.68-12.484 12.484-19.68-19.68-19.68 19.68-12.488-12.484 19.68-19.68-81.977-81.98-50.492 50.492 81.98 81.98 19.68-19.68 12.484 12.484-32.164 32.164-11.133 11.129-10.18 10.18-60.668 60.672 46.973 46.973-21.02 189.19h238l-21.02-189.19 46.973-46.973zm10.176-156.49 28.23 28.23-59.715 59.719-28.23-28.23zm-217.16 28.23 28.23-28.23 59.715 59.719-28.227 28.23zm245.39 188.93-28.23 28.227-59.715-59.715 28.23-28.23 10.18 10.18zm-70.848-70.848-7.8711 7.8711h-1.3555l-31.488-31.488 8.5508-8.5508zm-31.488 7.8711h-40.715l20.359-20.359zm-20.355-59.719 8.5469 8.5508-8.5469 8.5469-8.5508-8.5469zm-19.68 19.68 8.5469 8.5508-31.488 31.488h-1.3555l-7.8711-7.8711zm-53.477 53.477 10.18-10.18 28.227 28.227-59.379 59.379-0.33594 0.33984-28.23-28.227zm57.41 269.95v-55.102h31.488v55.105zm47.23 0 0.003906-70.848h-62.977v70.848h-69.93l20.371-183.35 68.559-68.555-15.742-15.742h56.457l-15.742 15.742 68.559 68.559 20.371 183.34z"/>
  <path d="m415.74 478.72h47.23l0.003906-47.23h-47.234zm15.742-31.488h15.742v15.742l-15.738 0.003906z"/>
  <path d="m337.02 525.95h47.23v-47.23h-47.23zm15.742-31.488h15.742v15.742l-15.742 0.003906z"/>
 </g>
</svg>