<?xml version="1.0" encoding="UTF-8"?>
<!-- The Best Svg Icon site in the world: iconSvg.co, Visit us! https://iconsvg.co -->
<svg fill="#000000" width="800px" height="800px" version="1.1" viewBox="144 144 512 512" xmlns="http://www.w3.org/2000/svg">
 <g>
  <path d="m258.2 388.06h-4.4766c-10.562 0-19.16 8.5938-19.16 19.16v24.301c0 8.8516 6.0664 16.25 14.238 18.438v24.836c0 69.875 56.852 126.73 126.73 126.73h48.934c69.879 0 126.73-56.852 126.73-126.73v-24.836c8.1719-2.1875 14.238-9.5859 14.238-18.438v-24.301c0-10.562-8.5938-19.16-19.16-19.16h-4.4766v-47.789c0-78.188-63.609-141.8-141.8-141.8-78.191 0-141.8 63.609-141.8 141.8zm166.27 203.38h-48.934c-55.906 0-102.73-39.539-114.04-92.113h43.051c2.7852 0 5.0391-2.2539 5.0391-5.0391 0-2.7812-2.2539-5.0391-5.0391-5.0391h-44.738c-0.58984-4.7422-0.92969-9.5625-0.92969-14.461v-24.117h282.24v24.117c0 4.8984-0.33984 9.7188-0.92969 14.461h-70.344c-2.7852 0-5.0391 2.2539-5.0391 5.0391 0 2.7812 2.2539 5.0391 5.0391 5.0391h68.652c-11.301 52.574-58.129 92.113-114.04 92.113zm130.89-184.22v24.301c0 5.0078-4.0742 9.082-9.082 9.082h-0.11719l-292.32-0.003907h-0.11719c-5.0078 0-9.082-4.0742-9.082-9.082v-24.301c0-5.0078 4.0742-9.082 9.082-9.082h292.55c5.0078 0.003906 9.082 4.0742 9.082 9.0859zm-101.57-85.605c1.3789-3.2695 2.4844-3.957 2.6484-3.957 0.16406 0 1.2695 0.6875 2.6523 3.9648 1.6641 3.9414 4.9609 6.875 9.0391 8.0469 22.516 6.4727 38.445 30.23 39.602 58.395l-102.59-0.003906c1.1523-27.969 16.945-51.688 39.266-58.293 4.3086-1.2773 7.7266-4.2461 9.3789-8.1523zm-9.2812-3.918c-0.47266 1.1133-1.5508 1.9883-2.957 2.4062-19.078 5.6523-34.137 21.551-41.551 42.078-7.457-20.691-22.676-36.648-41.973-42.195-1.1406-0.32812-2.0664-1.1602-2.5391-2.2812-1.8008-4.2734-4.0859-7.1914-6.8164-8.7617 0.85156-28.352 16.742-52.5 39.297-59.176 4.3047-1.2773 7.7227-4.2422 9.3789-8.1484 1.3789-3.2734 2.4844-3.9609 2.6484-3.9609s1.2695 0.6875 2.6523 3.9648c1.6641 3.9414 4.9609 6.875 9.0391 8.0469 22.75 6.5391 38.777 30.73 39.633 59.273-2.7344 1.5664-5.0156 4.4844-6.8125 8.7539zm-103.6 3.918c1.3789-3.2695 2.4844-3.957 2.6484-3.957 0.16406 0 1.2695 0.6875 2.6523 3.9648 1.6641 3.9414 4.9609 6.875 9.0391 8.0469 22.516 6.4727 38.445 30.23 39.602 58.395l-102.59-0.003906c1.1523-27.969 16.945-51.688 39.266-58.293 4.3047-1.2773 7.7266-4.2461 9.3789-8.1523zm59.09-113.07c72.633 0 131.72 59.094 131.72 131.72v47.789h-13.918c-1.1953-32.641-20.109-60.379-46.891-68.074-1.1406-0.32812-2.0664-1.1602-2.5391-2.2812-1.8398-4.3594-4.1836-7.2969-6.9844-8.8438-0.91016-32.988-19.918-61.117-46.918-68.875-1.1406-0.32812-2.0664-1.1602-2.5391-2.2812-2.832-6.7188-6.8477-10.125-11.934-10.125s-9.1016 3.4062-11.93 10.117c-0.47266 1.1133-1.5508 1.9883-2.957 2.4062-26.762 7.9297-45.594 36.004-46.504 68.758-2.8008 1.543-5.1445 4.4805-6.9805 8.8359-0.47266 1.1133-1.5508 1.9883-2.957 2.4062-26.543 7.8633-45.285 35.551-46.477 67.957h-13.914v-47.789c-0.007812-72.629 59.082-131.72 131.72-131.72z"/>
  <path d="m359.84 494.29c0-2.7812-2.2539-5.0391-5.0391-5.0391h-21.781c-2.7852 0-5.0391 2.2539-5.0391 5.0391 0 2.7812 2.2539 5.0391 5.0391 5.0391h21.781c2.7891 0 5.0391-2.2578 5.0391-5.0391z"/>
  <path d="m400.03 544.11h-50.32c-2.7852 0-5.0391 2.2539-5.0391 5.0391 0 2.7812 2.2539 5.0391 5.0391 5.0391h50.32c2.7852 0 5.0391-2.2539 5.0391-5.0391 0-2.7812-2.2539-5.0391-5.0391-5.0391z"/>
  <path d="m450.29 544.11h-21.781c-2.7852 0-5.0391 2.2539-5.0391 5.0391 0 2.7812 2.2539 5.0391 5.0391 5.0391h21.781c2.7852 0 5.0391-2.2539 5.0391-5.0391 0-2.7812-2.2539-5.0391-5.0391-5.0391z"/>
 </g>
</svg>