<?xml version="1.0" encoding="UTF-8"?>
<!-- The Best Svg Icon site in the world: iconSvg.co, Visit us! https://iconsvg.co -->
<svg fill="#000000" width="800px" height="800px" version="1.1" viewBox="144 144 512 512" xmlns="http://www.w3.org/2000/svg">
 <path d="m283.94 268.77h-40.723v-25.191h41.238l0.87109-42.738c0.26562-12.348 10.352-22.215 22.703-22.215h73.91c12.348 0 22.434 9.8711 22.703 22.215l0.87109 42.738h39.383v25.191h-38.867l0.19531 9.7656h-0.054687c-0.60938 33.297-27.746 60.113-61.188 60.113-33.449 0-60.586-26.816-61.195-60.113h-0.054687zm14.105 178.91h91.75v-93.32h-91.75zm-17.5 0v-93.32h-9.6328c-44.562 0-80.684 36.125-80.684 80.684v172.14c0 13.98 10.551 26.188 24.5 27.09 15.285 0.98828 27.992-11.113 27.992-26.191l-0.023437-160.4h37.848zm-17.434 17.496h161.89v169.09h-161.89zm34.934 101.36c0 5.7383 4.6484 10.387 10.387 10.387h70.973c5.7383 0 10.387-4.6484 10.387-10.387l0.003906-52.559h-91.75zm320.71-197.09v-73.707c0-28.996-23.504-52.496-52.496-52.496-28.996 0-52.496 23.504-52.496 52.496v73.707h26.047v-44.824h17.633v171.09h-59.527v-60.68c0-44.562-36.125-80.684-80.684-80.684h-9.9414v93.32h38.129v73.148c0 15.125 12.262 27.391 27.387 27.391h84.633v86.047h17.633l0.003907-86.09c13.516-0.22656 25.496-10.137 26.789-23.625 1.4922-15.652-10.777-28.828-26.121-28.828h-0.66797v-126.27z"/>
</svg>