<?xml version="1.0" encoding="UTF-8"?>
<!-- The Best Svg Icon site in the world: iconSvg.co, Visit us! https://iconsvg.co -->
<svg fill="#000000" width="800px" height="800px" version="1.1" viewBox="144 144 512 512" xmlns="http://www.w3.org/2000/svg">
 <g>
  <path d="m422.67 248.86h-45.344c-1.3828 0.027343-2.4922 1.1406-2.5195 2.5195v5.0391c0.027344 1.3789 1.1367 2.4922 2.5195 2.5195h18.895v20.152h7.5586l-0.003906-20.152h18.895c1.3789-0.027344 2.4922-1.1406 2.5156-2.5195v-5.0391c-0.023438-1.3789-1.1367-2.4922-2.5156-2.5195z"/>
  <path d="m437.79 349.62h-75.57l-32.75 40.305v161.22h141.07v-161.22zm-70.535 10.078h66l27.207 33.805v56.879h-120.91v-56.879z"/>
  <path d="m362.67 309.31-6.0469 30.23h86.656l-6.0469-30.23c-0.45312 0.023438-0.90625 0.023438-1.3594 0z"/>
  <path d="m444.79 285.63c-1.2305-3.8906-4.8359-6.5391-8.918-6.5469h-105.25c-4.8359 0.4375-8.5586 4.4609-8.6172 9.3203l-22.77 97.234c0.13672 1.6992 1.2617 3.1602 2.8711 3.7266 1.793 0.72266 3.8516 0.16797 5.0352-1.3594l32.094-88.77h96.633c3.8867-0.015625 7.3711-2.4141 8.7656-6.0469h25.895v-7.5586z"/>
  <path d="m498.24 285.63h-17.633v7.5586h17.633c0.66797 0 1.3086-0.26562 1.7812-0.73828 0.47266-0.47266 0.73828-1.1133 0.73828-1.7812v-2.4688c0-1.3984-1.1211-2.543-2.5195-2.5703z"/>
 </g>
</svg>