<?xml version="1.0" encoding="UTF-8"?>
<!-- The Best Svg Icon site in the world: iconSvg.co, Visit us! https://iconsvg.co -->
<svg fill="#000000" width="800px" height="800px" version="1.1" viewBox="144 144 512 512" xmlns="http://www.w3.org/2000/svg">
 <path d="m618.37 522.34c-0.41016-4.3125-4.1562-7.4609-8.5664-7.1016l-109.61 10.125-0.0625-0.70703c-1.8594-18.973-16.801-34.668-35.535-37.312-1.5742-0.21875-2.8516-0.0625-4.25-0.09375l-229.06-244.76c-9.3047-9.918-24.938-10.457-34.871-1.1484-9.918 9.3047-10.438 24.938-1.1484 34.855l224.2 239.53c-1.8125 5.4805-2.8672 11.098-2.3125 16.688l0.0625 0.59766-109.82 10.141c-2.0781 0.20312-4 1.2109-5.3203 2.8164-1.3398 1.6211-1.9688 3.668-1.7773 5.7617l3.1328 33.488c0.37891 4.0781 3.8086 7.1328 7.8398 7.1328 0.23438 0 0.47266-0.015625 0.72266-0.03125l13.555-1.2422 34.242 28.449c1.4648 1.2109 3.2578 1.8125 5.0234 1.8125 2.2656 0 4.5039-0.97656 6.0625-2.8516l25.457-30.637 30.652 25.457c3.3359 2.7695 8.2969 2.3125 11.082-1.0234l25.457-30.637 30.637 25.473c1.6055 1.3242 3.6992 1.9219 5.7617 1.7773 2.0781-0.20312 4-1.1953 5.3359-2.8164l25.457-30.637 30.652 25.457c3.3516 2.7695 8.2969 2.2969 11.082-1.0234l28.434-34.227 13.492-1.2422c4.3281-0.41016 7.5117-4.25 7.1172-8.582zm-133.92 3.7344 0.0625 0.67578-51.625 4.8008-0.0625-0.67578c-0.45703-4.5977 0.42578-9.1953 2.5977-13.664 4.0469-8.2188 11.793-13.57 20.484-14.328 0.70703 0.09375 1.4336 0.078125 2.1719-0.03125 1.1797-0.1875 2.5352-0.15625 4.3125 0.09375 11.637 1.6367 20.926 11.414 22.059 23.129zm-277.29-273.24c1.7188-1.6055 3.9062-2.4102 6.1094-2.4102 2.3789 0 4.7695 0.94531 6.5195 2.8164l222.01 237.21c-1.5898 0.69141-3.0078 1.6992-4.5039 2.5977-0.88281 0.53516-1.8281 0.94531-2.6758 1.543-2.6445 1.875-5.1172 4.0156-7.2734 6.5039l-220.59-235.66c-3.3555-3.5898-3.1836-9.2422 0.40625-12.609zm156.62 349.56-16.074-13.352 29.426-2.7227zm67.195-6.2031-16.074-13.352 29.41-2.707zm67.195-6.2031-16.059-13.352 29.426-2.7227zm67.195-6.2031-16.074-13.352 29.41-2.707zm-247.01-7.8242-1.668-17.84 286.71-26.48 1.668 17.84z"/>
</svg>