<?xml version="1.0" encoding="UTF-8"?>
<!-- The Best Svg Icon site in the world: iconSvg.co, Visit us! https://iconsvg.co -->
<svg fill="#000000" width="800px" height="800px" version="1.1" viewBox="144 144 512 512" xmlns="http://www.w3.org/2000/svg">
 <g>
  <path d="m301.13 316.61c-14.555 0-26.398 11.844-26.398 26.398 0 14.559 11.844 26.402 26.398 26.402h30.672c22.812 0 41.375 18.562 41.375 41.375v20.215h-26.812c-45.723 0-82.922 37.199-82.922 82.922v20.844c-13.699 1.8984-24.289 13.652-24.289 27.867v33.785c0 2.7812 2.2539 5.0391 5.0391 5.0391h311.61c2.7812 0 5.0391-2.2539 5.0391-5.0391v-33.785c0-14.211-10.59-25.969-24.289-27.867l-0.003906-20.844c0-45.723-37.199-82.922-82.922-82.922h-26.812v-20.215c0-22.812 18.562-41.375 41.375-41.375h30.672c14.555 0 26.398-11.844 26.398-26.402 0-14.555-11.844-26.398-26.398-26.398h-31c-25.625 0-50.055 10.414-67.867 28.762-17.812-18.348-42.242-28.762-67.867-28.762zm249.63 246.02v28.746h-301.54v-28.746c0-9.9727 8.1172-18.09 18.09-18.09h265.36c9.9727 0 18.086 8.1172 18.086 18.09zm-24.289-48.707v20.543h-252.96v-20.543c0-40.168 32.68-72.848 72.848-72.848h107.27c40.164 0 72.844 32.68 72.844 72.848zm-130.29-157.8c1.9141 2.2227 5.7188 2.2227 7.6328 0 16.129-18.707 39.477-29.434 64.051-29.434h31c9 0 16.32 7.3203 16.32 16.32s-7.3203 16.324-16.32 16.324h-30.672c-28.371 0-51.449 23.078-51.449 51.449v20.215h-33.484v-20.215c0-28.371-23.078-51.449-51.449-51.449h-30.672c-9 0-16.32-7.3242-16.32-16.324s7.3203-16.32 16.32-16.32h31c24.566 0 47.914 10.727 64.043 29.434z"/>
  <path d="m200.75 252.9c0.85547 0.5625 1.8125 0.82812 2.7617 0.82812 1.6406 0 3.25-0.80078 4.2148-2.2734 1.3203-2.0078 2.707-3.9609 4.1641-5.8594 1.6914-2.207 1.2773-5.3711-0.93359-7.0625-2.1953-1.6875-5.3672-1.2734-7.0625 0.93359-1.6055 2.0898-3.1406 4.2461-4.5898 6.4609-1.5273 2.3242-0.87891 5.4492 1.4453 6.9727z"/>
  <path d="m307.12 210.87c4.9453 1.1484 9.8359 2.7227 14.543 4.6797 0.63281 0.26172 1.2891 0.39062 1.9336 0.39062 1.9766 0 3.8477-1.168 4.6562-3.1055 1.0664-2.5664-0.14844-5.5195-2.7148-6.5898-5.2188-2.1719-10.648-3.918-16.137-5.1914-2.7227-0.63281-5.4219 1.0586-6.0469 3.7695-0.63281 2.7109 1.0586 5.4219 3.7656 6.0469z"/>
  <path d="m375.6 273.72c0.71484 2.0938 2.6719 3.4141 4.7656 3.4141 0.53906 0 1.0859-0.089843 1.625-0.27344 2.6328-0.89453 4.0391-3.7578 3.1445-6.3945-1.8164-5.3242-4.0625-10.543-6.6797-15.52-1.293-2.457-4.3359-3.4062-6.8047-2.1094-2.4609 1.293-3.4062 4.3438-2.1094 6.8047 2.375 4.5156 4.4102 9.25 6.0586 14.078z"/>
  <path d="m226.88 228.62c1.0625 0 2.1367-0.33594 3.0508-1.0312 4.0586-3.0938 8.3906-5.8789 12.875-8.2656 2.457-1.3047 3.3867-4.3594 2.0781-6.8125-1.3086-2.457-4.3516-3.3867-6.8125-2.0781-4.9609 2.6406-9.7539 5.7188-14.246 9.1445-2.2109 1.6836-2.6367 4.8477-0.94922 7.0586 0.98438 1.3008 2.4844 1.9844 4.0039 1.9844z"/>
  <path d="m265.59 210.68c0.35156 0 0.71094-0.035157 1.0703-0.11328 4.9609-1.0742 10.059-1.7383 15.148-1.9805 2.7812-0.13281 4.9258-2.4922 4.793-5.2734-0.13281-2.7812-2.5234-4.918-5.2734-4.793-5.6445 0.26953-11.297 1.0078-16.801 2.1953-2.7188 0.58984-4.4492 3.2695-3.8594 5.9883 0.51172 2.3672 2.5977 3.9766 4.9219 3.9766z"/>
  <path d="m354.84 238.81c0.99219 1.0742 2.3477 1.6211 3.7031 1.6211 1.2227 0 2.4492-0.44141 3.418-1.3359 2.043-1.8867 2.1719-5.0742 0.28516-7.1211-3.8281-4.1445-8.0078-8.0078-12.426-11.477-2.1875-1.7227-5.3516-1.3477-7.0742 0.84766-1.7188 2.1875-1.3398 5.3555 0.84766 7.0742 4 3.1406 7.7812 6.6367 11.246 10.391z"/>
  <path d="m380.67 298.86c0.16797 2.3828 0.25391 4.7812 0.25391 7.207 0 2.7812 2.2539 5.0391 5.0391 5.0391 2.7812 0 5.0391-2.2539 5.0391-5.0391 0-2.6602-0.097656-5.2969-0.27734-7.9102-0.19531-2.7734-2.6016-4.875-5.3789-4.6758s-4.8711 2.6055-4.6758 5.3789z"/>
  <path d="m221.66 290.16c0.85156 0.55859 1.8125 0.82812 2.7617 0.82812 1.6406 0 3.25-0.80078 4.2148-2.2734 1.2734-1.9414 2.6758-3.832 4.1562-5.6094 1.7812-2.1367 1.4922-5.3125-0.64453-7.0938-2.1445-1.7852-5.3125-1.4883-7.0938 0.64453-1.7305 2.0742-3.3594 4.2734-4.8398 6.5312-1.5273 2.3203-0.87891 5.4453 1.4453 6.9727z"/>
  <path d="m289.98 262.98c4.7812 1.0156 9.4336 2.6445 13.824 4.8398 0.72266 0.36328 1.4922 0.53125 2.25 0.53125 1.8516 0 3.6289-1.0195 4.5117-2.7852 1.2461-2.4883 0.23438-5.5156-2.2539-6.7617-5.1562-2.5781-10.617-4.4883-16.238-5.6797-2.7188-0.59375-5.3945 1.1602-5.9727 3.8828-0.58203 2.7188 1.1562 5.3945 3.8789 5.9727z"/>
  <path d="m245.1 265.68c0.88672 1.7578 2.6602 2.7695 4.5039 2.7695 0.76172 0 1.5352-0.17187 2.2617-0.53906 4.3828-2.2109 9.0273-3.8516 13.805-4.8828 2.7227-0.58984 4.4492-3.2656 3.8633-5.9883-0.58984-2.7227-3.2656-4.4414-5.9883-3.8633-5.6094 1.2109-11.066 3.1406-16.215 5.7344-2.4844 1.2539-3.4844 4.2852-2.2305 6.7695z"/>
  <path d="m323.6 275.9c-2.1367 1.7852-2.4219 4.9609-0.63672 7.0977 1.5 1.7891 2.9023 3.6758 4.1719 5.6055 0.96875 1.4688 2.5742 2.2617 4.2109 2.2617 0.95312 0 1.9141-0.26953 2.7695-0.83203 2.3203-1.5312 2.9609-4.6602 1.4336-6.9805-1.4805-2.2422-3.1133-4.4336-4.8516-6.5156-1.7812-2.1367-4.9648-2.418-7.0977-0.63672z"/>
  <path d="m592.27 251.46c0.96484 1.4727 2.5742 2.2734 4.2148 2.2734 0.94531 0 1.9062-0.26562 2.7617-0.82812 2.3242-1.5234 2.9727-4.6484 1.4453-6.9766-1.4531-2.2148-2.9844-4.3672-4.5898-6.4609-1.6953-2.2109-4.8594-2.6211-7.0625-0.93359-2.2109 1.6914-2.625 4.8555-0.93359 7.0625 1.4531 1.9023 2.8438 3.8555 4.1641 5.8633z"/>
  <path d="m418 276.86c0.53906 0.18359 1.0859 0.27344 1.625 0.27344 2.0977 0 4.0547-1.3203 4.7656-3.4141 1.6484-4.8281 3.6836-9.5664 6.0586-14.074 1.2969-2.4609 0.35156-5.5117-2.1094-6.8047-2.4766-1.2969-5.5117-0.35156-6.8047 2.1094-2.6172 4.9727-4.8672 10.195-6.6797 15.52-0.89453 2.6328 0.51172 5.4961 3.1445 6.3906z"/>
  <path d="m476.4 215.94c0.64453 0 1.3008-0.125 1.9336-0.39062 4.707-1.957 9.5977-3.5312 14.543-4.6797 2.707-0.62891 4.3984-3.3359 3.7695-6.0469-0.62891-2.7109-3.3281-4.4023-6.0469-3.7695-5.4844 1.2734-10.914 3.0195-16.137 5.1914-2.5664 1.0703-3.7852 4.0195-2.7148 6.5898 0.80469 1.9336 2.6797 3.1055 4.6523 3.1055z"/>
  <path d="m557.2 219.32c4.4805 2.3867 8.8125 5.1719 12.875 8.2656 0.91406 0.69531 1.9844 1.0312 3.0508 1.0312 1.5195 0 3.0195-0.68359 4.0117-1.9844 1.6875-2.2109 1.2617-5.375-0.94922-7.0586-4.4922-3.4258-9.2852-6.5039-14.246-9.1445-2.4531-1.3125-5.5078-0.37891-6.8125 2.0781-1.3164 2.4531-0.38281 5.5078 2.0703 6.8125z"/>
  <path d="m518.19 208.59c5.0898 0.24219 10.188 0.90625 15.148 1.9805 0.35938 0.078125 0.71875 0.11328 1.0703 0.11328 2.3203 0 4.4102-1.6133 4.9219-3.9727 0.58984-2.7227-1.1406-5.4023-3.8594-5.9883-5.5039-1.1914-11.156-1.9297-16.801-2.1953-2.7031-0.046876-5.1445 2.0117-5.2773 4.793-0.12891 2.7812 2.0156 5.1367 4.7969 5.2695z"/>
  <path d="m441.45 240.43c1.3555 0 2.707-0.54688 3.7031-1.6211 3.4648-3.7539 7.2461-7.25 11.246-10.391 2.1875-1.7188 2.5664-4.8867 0.84766-7.0742-1.7188-2.1914-4.8867-2.5703-7.0742-0.84766-4.418 3.4727-8.5977 7.332-12.426 11.477-1.8867 2.043-1.7578 5.2344 0.28516 7.1211 0.97266 0.89453 2.1953 1.3359 3.418 1.3359z"/>
  <path d="m414.03 311.11c2.7812 0 5.0391-2.2539 5.0391-5.0391 0-2.4219 0.085938-4.8242 0.25391-7.207 0.19531-2.7734-1.8984-5.1836-4.6758-5.3789-2.8281-0.19531-5.1797 1.8984-5.3789 4.6758-0.18359 2.6133-0.27734 5.25-0.27734 7.9102 0.003906 2.7812 2.2578 5.0391 5.0391 5.0391z"/>
  <path d="m567.84 276.01c-2.1367 1.7812-2.4258 4.957-0.64453 7.0938 1.4844 1.7812 2.8828 3.6719 4.1562 5.6094 0.96484 1.4727 2.5742 2.2734 4.2148 2.2734 0.94922 0 1.9102-0.26953 2.7617-0.82812 2.3281-1.5273 2.9727-4.6523 1.4453-6.9766-1.4844-2.2578-3.1133-4.457-4.8398-6.5312-1.7852-2.1328-4.9609-2.4258-7.0938-0.64063z"/>
  <path d="m530.46 257.04c-0.58984 2.7227 1.1406 5.3984 3.8633 5.9883 4.7773 1.0312 9.4219 2.6758 13.805 4.8828 0.72656 0.36719 1.5039 0.53906 2.2617 0.53906 1.8438 0 3.6172-1.0117 4.5039-2.7695 1.2539-2.4844 0.25391-5.5156-2.2305-6.7656-5.1484-2.5938-10.605-4.5234-16.215-5.7344-2.7383-0.58594-5.4023 1.1367-5.9883 3.8594z"/>
  <path d="m489.43 265.57c0.88281 1.7656 2.6602 2.7852 4.5117 2.7852 0.75391 0 1.5234-0.16797 2.25-0.53125 4.3867-2.1953 9.0391-3.8242 13.824-4.8398 2.7227-0.57422 4.4609-3.2539 3.8828-5.9727-0.57813-2.7227-3.2617-4.4766-5.9727-3.8828-5.6211 1.1914-11.082 3.1016-16.238 5.6797-2.4922 1.2461-3.5039 4.2695-2.2578 6.7617z"/>
  <path d="m465.88 290.04c0.85547 0.5625 1.8164 0.83203 2.7695 0.83203 1.6367 0 3.2422-0.79297 4.2109-2.2617 1.2695-1.9297 2.6758-3.8164 4.1719-5.6055 1.7852-2.1367 1.5-5.3125-0.63672-7.0977-2.1328-1.7852-5.3125-1.5-7.0977 0.63672-1.7383 2.082-3.3711 4.2734-4.8516 6.5156-1.5273 2.3203-0.88672 5.4492 1.4336 6.9805z"/>
 </g>
</svg>