<?xml version="1.0" encoding="UTF-8"?>
<!-- The Best Svg Icon site in the world: iconSvg.co, Visit us! https://iconsvg.co -->
<svg fill="#000000" width="800px" height="800px" version="1.1" viewBox="144 144 512 512" xmlns="http://www.w3.org/2000/svg">
 <g>
  <path d="m230.98 325.27h58.422c2.7812 0 5.0391-2.2539 5.0391-5.0391 0-2.7812-2.2539-5.0391-5.0391-5.0391l-58.422 0.003906c-2.7812 0-5.0391 2.2539-5.0391 5.0391 0 2.7812 2.2578 5.0352 5.0391 5.0352z"/>
  <path d="m294.44 348.12c0-2.7812-2.2539-5.0391-5.0391-5.0391h-58.422c-2.7812 0-5.0391 2.2539-5.0391 5.0391 0 2.7812 2.2539 5.0391 5.0391 5.0391h58.422c2.7812 0 5.0391-2.2578 5.0391-5.0391z"/>
  <path d="m256.52 599.93c0.95312 1.0156 2.2852 1.5938 3.6758 1.5938s2.7227-0.57422 3.6758-1.5898l56.68-60.457c0.875-0.9375 1.3594-2.1719 1.3594-3.4492v-332.52c0-2.7812-2.2539-5.0391-5.0391-5.0391l-113.36 0.003906c-2.7812 0-5.0391 2.2539-5.0391 5.0391v332.52c0 1.2773 0.48828 2.5117 1.3633 3.4453zm-47.965-391.38h103.28v325.48l-51.641 55.082-51.641-55.082z"/>
  <path d="m370.79 325.27h58.422c2.7812 0 5.0391-2.2539 5.0391-5.0391 0-2.7812-2.2539-5.0391-5.0391-5.0391l-58.422 0.003906c-2.7812 0-5.0391 2.2539-5.0391 5.0391 0 2.7812 2.2578 5.0352 5.0391 5.0352z"/>
  <path d="m434.25 348.12c0-2.7812-2.2539-5.0391-5.0391-5.0391h-58.418c-2.7812 0-5.0391 2.2539-5.0391 5.0391 0 2.7812 2.2539 5.0391 5.0391 5.0391h58.422c2.7812 0 5.0352-2.2578 5.0352-5.0391z"/>
  <path d="m400 601.52c1.3906 0 2.7227-0.57422 3.6758-1.5898l56.68-60.457c0.87109-0.9375 1.3594-2.1719 1.3594-3.4492v-332.52c0-2.7812-2.2539-5.0391-5.0391-5.0391h-113.36c-2.7812 0-5.0391 2.2539-5.0391 5.0391v332.52c0 1.2773 0.48828 2.5117 1.3633 3.4453l56.68 60.457c0.94922 1.0156 2.2812 1.5938 3.6758 1.5938zm-51.641-392.97h103.28v325.48l-51.641 55.082-51.641-55.082z"/>
  <path d="m510.59 325.27h58.422c2.7812 0 5.0391-2.2539 5.0391-5.0391 0-2.7812-2.2539-5.0391-5.0391-5.0391l-58.422 0.003906c-2.7812 0-5.0391 2.2539-5.0391 5.0391 0.003906 2.7812 2.2578 5.0352 5.0391 5.0352z"/>
  <path d="m510.59 353.16h58.422c2.7812 0 5.0391-2.2539 5.0391-5.0391 0-2.7812-2.2539-5.0391-5.0391-5.0391h-58.422c-2.7812 0-5.0391 2.2539-5.0391 5.0391 0.003906 2.7812 2.2578 5.0391 5.0391 5.0391z"/>
  <path d="m596.48 198.48h-113.36c-2.7812 0-5.0391 2.2539-5.0391 5.0391v332.52c0 1.2773 0.48828 2.5117 1.3633 3.4453l56.68 60.457c0.94922 1.0117 2.2812 1.5898 3.6719 1.5898 1.3906 0 2.7227-0.57422 3.6758-1.5898l56.68-60.457c0.875-0.9375 1.3633-2.1719 1.3633-3.4492v-332.52c0-2.7812-2.2578-5.0352-5.0391-5.0352zm-5.0391 335.56-51.641 55.082-51.641-55.082v-325.48h103.28z"/>
  <path d="m400 291.05c17.977 0 32.602-14.621 32.602-32.598-0.003906-17.973-14.629-32.598-32.602-32.598-17.977 0-32.602 14.625-32.602 32.602 0 17.973 14.625 32.594 32.602 32.594zm0-55.121c12.422 0 22.523 10.102 22.523 22.523 0 12.418-10.102 22.52-22.523 22.52s-22.523-10.102-22.523-22.52 10.102-22.523 22.523-22.523z"/>
  <path d="m260.19 291.05c17.977 0 32.602-14.621 32.602-32.598 0-17.973-14.625-32.598-32.602-32.598-17.977 0-32.602 14.625-32.602 32.602 0 17.973 14.625 32.594 32.602 32.594zm0-55.121c12.422 0 22.523 10.102 22.523 22.523 0 12.418-10.102 22.52-22.523 22.52s-22.523-10.102-22.523-22.52 10.102-22.523 22.523-22.523z"/>
  <path d="m539.8 291.05c17.977 0 32.602-14.621 32.602-32.598 0-17.973-14.625-32.598-32.602-32.598-17.977 0-32.602 14.625-32.602 32.602 0.003906 17.973 14.629 32.594 32.602 32.594zm0-55.121c12.422 0 22.523 10.102 22.523 22.523 0 12.418-10.102 22.52-22.523 22.52-12.422 0-22.523-10.102-22.523-22.52s10.105-22.523 22.523-22.523z"/>
 </g>
</svg>