<?xml version="1.0" encoding="UTF-8"?>
<!-- The Best Svg Icon site in the world: iconSvg.co, Visit us! https://iconsvg.co -->
<svg fill="#000000" width="800px" height="800px" version="1.1" viewBox="144 144 512 512" xmlns="http://www.w3.org/2000/svg">
 <g>
  <path d="m552.2 443h-49.824c-16.305 0-29.574 13.332-29.574 29.723l0.011719 15.602c-1.3672 21.445-28.402 25.871-31.598 26.316-12.164 0.13672-23.23 7.3789-28.246 18.469l-13.199 28.223c-1.2109 2.6016-3.6406 4.1523-6.4961 4.1523-2.8555 0-5.2852-1.5508-6.4961-4.1641l-13.176-28.152c-4.9883-11.047-15.898-18.254-27.922-18.527-4.1133-1.1562-30.586-9.2461-31.887-26.004l0.003906-15.914c0-7.9102-3.0742-15.379-8.6797-21.047-5.5938-5.5977-13.02-8.6797-20.895-8.6797h-36.422c-2.7852 0-5.0391 2.2539-5.0391 5.0391v148.42c0 2.7812 2.2539 5.0391 5.0391 5.0391h304.4c2.7852 0 5.0391-2.2539 5.0391-5.0391l-0.003907-148.42c0-2.7812-2.2539-5.0352-5.0391-5.0352zm-5.0391 148.42h-294.32v-138.35h31.387c5.1875 0 10.078 2.0352 13.75 5.707 3.7031 3.75 5.7461 8.6992 5.7461 13.941l0.015625 16.309c1.9727 25.691 38.469 35.145 40.023 35.531 0.39844 0.10156 0.8125 0.15234 1.2266 0.15234 8.3477 0 15.98 4.9453 19.465 12.668l13.199 28.203c2.8633 6.1562 8.8516 9.9766 15.625 9.9766 6.7734 0 12.762-3.8242 15.625-9.9688l13.227-28.273c3.457-7.6562 11.09-12.605 19.438-12.605 0.20312 0 0.40234-0.011719 0.60547-0.035157 13.391-1.6172 39.133-11.168 40.707-36.035v-15.922c0-10.832 8.7461-19.648 19.496-19.648h44.785z"/>
  <path d="m406.78 389.88c0.47656 0.39062 1.0195 0.69531 1.6055 0.88672 1.0977 0.36328 2.5586 0.62891 4.2109 0.62891 4.4375 0 10.262-1.9062 14.105-8.918 5.1328-9.3594 5.1641-25.438 5.1523-27.242-0.015624-1.8242-1.0117-3.5-2.6133-4.3789-1.6055-0.87891-3.543-0.82422-5.0977 0.14453-1.5234 0.95312-15.047 9.5859-20.176 18.949-5.2656 9.6055-0.46484 17.238 2.8125 19.93zm6.0234-15.086c1.6445-3 4.9414-6.2617 8.2656-9.0547-0.56641 4.3242-1.5547 8.8867-3.2031 11.895v0.003907c-1.7773 3.2383-3.8633 3.8125-5.3281 3.7227-0.71875-1.0586-1.5547-3.2461 0.26562-6.5664z"/>
  <path d="m445.43 443.41c0.23438 0 0.46875-0.015625 0.70312-0.050781 4.3242-0.60938 12.629-4.7461 13.121-16.059 0.48828-11.102-6.8828-26.137-7.7227-27.812-0.81641-1.6328-2.457-2.6953-4.2812-2.7734-1.8516-0.035157-3.5508 0.83594-4.5117 2.3867-0.98438 1.5977-9.6328 15.93-10.121 27.027-0.49609 11.312 7.418 16.164 11.676 17.148 0.375 0.085937 0.75391 0.13281 1.1367 0.13281zm1.082-29.801c1.5508 4.4766 2.8438 9.4766 2.6758 13.25v0.003906c-0.17578 4.1094-2.2031 5.6562-3.5312 6.2305-1.2109-0.65625-3.1523-2.3594-2.9727-6.5195 0.16406-3.7656 1.8906-8.6367 3.8281-12.965z"/>
  <path d="m404.12 461.93c3.9766-0.55859 11.617-4.3516 12.07-14.703 0.43359-9.9219-6.1172-23.285-6.8633-24.777-0.81641-1.6328-2.457-2.6953-4.2812-2.7734-1.7617-0.066406-3.5508 0.83203-4.5117 2.3867-0.875 1.418-8.5664 14.156-9 24.082-0.45312 10.348 6.8281 14.797 10.746 15.703 0.375 0.085938 0.75391 0.12891 1.1367 0.12891 0.23438 0 0.46875-0.015624 0.70312-0.046874zm-2.5195-15.348c0.12109-2.8281 1.2773-6.4023 2.6953-9.7578 1.1133 3.4648 1.9492 7.125 1.8242 9.9648-0.13281 3-1.4258 4.2812-2.4609 4.8203-1.0195-0.64453-2.1875-2.0391-2.0586-5.0273z"/>
  <path d="m357.92 491.83c0.375 0.085938 0.75391 0.12891 1.1367 0.12891 0.23437 0 0.46875-0.015626 0.70312-0.050782 4.2461-0.59766 12.41-4.6602 12.891-15.758 0.47656-10.84-6.7148-25.508-7.5391-27.145-0.81641-1.6328-2.4609-2.6953-4.2812-2.7734-1.8398-0.0625-3.5508 0.83203-4.5117 2.3906-0.96094 1.5586-9.3906 15.535-9.8711 26.375-0.47656 11.098 7.2969 15.863 11.473 16.832zm2.1758-28.652c1.457 4.2578 2.6484 8.9648 2.4883 12.531v0.003906c-0.16797 3.8672-2.043 5.3594-3.3008 5.9219-1.1445-0.64062-2.9375-2.2773-2.7656-6.1914 0.15625-3.5547 1.7578-8.1445 3.5781-12.266z"/>
  <path d="m423.89 501.66c0.375 0.085938 0.75391 0.12891 1.1367 0.12891 0.23438 0 0.46875-0.015625 0.70312-0.050781 4.3438-0.60938 12.695-4.7734 13.195-16.148v-0.003907c0.48828-11.18-6.9375-26.328-7.7891-28.02-0.81641-1.6328-2.457-2.6953-4.2812-2.7734-1.7852-0.023437-3.5469 0.83203-4.5117 2.3867-0.98828 1.6094-9.707 16.051-10.195 27.23-0.5 11.379 7.4609 16.258 11.742 17.25zm2.2266-29.977c1.5781 4.5469 2.9062 9.6445 2.7422 13.465-0.18359 4.1875-2.2578 5.75-3.6055 6.3242-1.2266-0.65625-3.2227-2.3828-3.0352-6.6211 0.16406-3.8203 1.9258-8.7773 3.8984-13.168z"/>
  <path d="m383.94 392.76c-0.37891-1.7852-1.6914-3.2305-3.4336-3.7695-1.7422-0.53516-3.6445-0.097656-4.9688 1.1602-1.3555 1.2891-13.328 12.895-16.609 23.477-3.3359 10.777 3.0664 17.477 6.9141 19.512 0.54688 0.28906 1.1406 0.47656 1.7578 0.54688 0.41797 0.050781 0.875 0.078125 1.3672 0.078125 4.6484 0 12.355-2.4648 15.375-12.223 3.2812-10.578-0.015625-26.949-0.40234-28.781zm-9.2227 25.805c-1.1992 3.8711-3.5078 4.8555-4.9297 5.0742-1.0938-1.0234-2.4297-3.1562-1.2344-7.0273 1.1055-3.5664 3.9844-7.8047 6.9336-11.465 0.36328 4.7031 0.33984 9.8438-0.76953 13.418z"/>
  <path d="m387.78 530.12c0.30469 0.054687 0.60938 0.085937 0.92188 0.085937 0.30859 0 0.61328-0.03125 0.92188-0.085937 4.4883-0.83203 12.965-5.543 12.965-17.398 0-11.969-9.0977-28.426-9.4844-29.117-0.88672-1.5977-2.5742-2.5859-4.3984-2.5859s-3.5078 0.98828-4.3984 2.582c-0.39453 0.69922-9.4961 17.152-9.4961 29.125 0 11.852 8.4805 16.562 12.969 17.395zm0.91797-32.285c2.0039 4.9219 3.8086 10.609 3.8086 14.891 0 4.707-2.3164 6.5078-3.7969 7.1719-1.5234-0.67969-3.8242-2.4844-3.8242-7.1719 0-4.2852 1.8086-9.9688 3.8125-14.891z"/>
  <path d="m383.59 349.82c1.0195 1.0195 2.4023 1.5469 3.8633 1.4766 1.4414-0.082031 2.7734-0.78125 3.6641-1.9102 0.39844-0.5 0.78906-0.95312 1.2461-1.4102 5.9844-6.0117 13.938-9.3203 22.41-9.3242 8.4688 0 16.434 3.3125 22.414 9.3242 3.7539 3.7695 6.3828 8.1758 7.8125 13.094 0.49609 1.7109 1.8594 3.0312 3.5859 3.4727 0.41406 0.10547 0.83203 0.15625 1.25 0.15625 1.3242 0 2.6133-0.52344 3.5703-1.4844l67.055-67.352c0.003906-0.003906 0.007812-0.003906 0.011718-0.007812 0.003906-0.003907 0.003906-0.007813 0.007813-0.011719l19.129-19.211c1.9531-1.9648 1.9531-5.1445 0-7.1094l-69.293-69.594c-1.8984-1.8984-5.2539-1.8984-7.1445 0l-110.87 111.36c-1.9531 1.9648-1.9531 5.1445 0 7.1094zm64.035-119.99c0.98047 0.97656 2.2656 1.4727 3.5508 1.4727 1.2852 0 2.5664-0.48828 3.5508-1.4648 1.9727-1.9609 1.9844-5.1523 0.019532-7.125l-0.015625-0.019532 12.012-12.066 62.184 62.457-12.016 12.066c-1.9727-1.957-5.1445-1.9648-7.1094 0-1.9688 1.9648-1.9766 5.1523-0.015625 7.125l0.015625 0.015624-58.188 58.445c-1.9023-3.5898-4.3594-6.9258-7.2852-9.8672-7.8906-7.9258-18.391-12.289-29.562-12.289-10.297 0.003906-20.023 3.7148-27.656 10.5l-24.129-24.234z"/>
  <path d="m464.88 247.16c0.98438 0.98828 2.2773 1.4844 3.5703 1.4844 1.2852 0 2.5742-0.48828 3.5508-1.4648 1.9727-1.9648 1.9844-5.1523 0.019531-7.125l-6.9062-6.9414c-1.9648-1.9727-5.1602-1.9844-7.125-0.015626-1.9727 1.9609-1.9844 5.1523-0.019531 7.125z"/>
  <path d="m482.15 264.51c0.98438 0.98828 2.2773 1.4844 3.5703 1.4844 1.2852 0 2.5742-0.48828 3.5508-1.4688 1.9727-1.9609 1.9844-5.1523 0.019531-7.125l-6.9062-6.9414c-1.9648-1.9727-5.1602-1.9844-7.125-0.015626-1.9727 1.9609-1.9844 5.1523-0.019531 7.125z"/>
  <path d="m499.43 281.86c0.98438 0.98828 2.2734 1.4844 3.5664 1.4844 1.2852 0 2.5742-0.48828 3.5586-1.4688 1.9688-1.9648 1.9766-5.1523 0.011718-7.125l-6.9141-6.9414c-1.9648-1.9727-5.1523-1.9844-7.125-0.015625-1.9688 1.9648-1.9766 5.1523-0.011719 7.125z"/>
  <path d="m414.17 310.96c0.45312 0.29297 11.18 7.1914 22.445 8.6094 0.76172 0.097656 1.5234 0.14453 2.2969 0.14453 4.0312 0 8.2188-1.3711 12.496-3.9531 0.20312 0.023438 0.40234 0.035157 0.60547 0.035157 1.1914 0 2.3555-0.41406 3.2656-1.1914 0.53125-0.45703 13.039-11.305 14.957-26.781 1.9375-15.484-7.4844-29.09-7.8828-29.664-0.81641-1.1602-2.0859-1.9219-3.4922-2.1016-1.3984-0.16797-2.8242 0.24609-3.9023 1.168-0.53125 0.45703-13.027 11.297-14.957 26.773-0.42188 3.3438-0.28516 6.832 0.29297 10.414-0.17188-0.023437-0.35156-0.0625-0.51953-0.082031-11.902-1.4922-24.434 7.3203-25.82 8.3281-1.3438 0.97656-2.1211 2.5469-2.082 4.2109 0.050781 1.6562 0.90625 3.1875 2.2969 4.0898zm35.832-25.703c0.80078-6.4219 4.2344-11.969 7.1484-15.652 1.9141 4.3086 3.8906 10.566 3.0898 16.973-0.79688 6.4219-4.2422 11.98-7.1562 15.656-0.015626-0.03125-0.027344-0.058594-0.042969-0.089844-0.39844-0.90234-0.80469-1.8906-1.1875-2.9648-1.7656-4.9805-2.3906-9.6602-1.8516-13.922zm-11.48 19.07c1.5703 0.19531 3.1914 0.47656 4.8477 0.83203 0.058594 0.14453 0.12109 0.25391 0.17969 0.39453 0.21094 0.49609 0.41406 0.92969 0.625 1.3867 0.16797 0.35938 0.33594 0.76953 0.5 1.1016-2.1406 1.0742-4.5117 1.8125-6.793 1.5312-3.6211-0.45703-7.2852-1.6953-10.371-3.0117 3.4961-1.5117 7.5352-2.6719 11.012-2.2344z"/>
 </g>
</svg>