<?xml version="1.0" encoding="UTF-8"?>
<!-- The Best Svg Icon site in the world: iconSvg.co, Visit us! https://iconsvg.co -->
<svg fill="#000000" width="800px" height="800px" version="1.1" viewBox="144 144 512 512" xmlns="http://www.w3.org/2000/svg">
 <path d="m635.61 312.57c-1.4805-2.2227-3.7031-2.9648-6.668-2.9648-51.121 2.9648-87.426-6.668-121.51-29.637l15.559-15.559c2.9648-2.9648 4.4453-7.4102 4.4453-11.855 0-4.4453-1.4805-8.1484-4.4453-11.855l-18.523-18.52c-6.668-6.668-17.039-6.668-22.969 0l-20.004 20.004c-2.9648-2.9648-5.9258-5.1875-8.8906-8.1484-5.9258-5.9258-14.816-5.9258-20.746 0l-46.676 45.934c-5.9258 5.9258-5.9258 14.816 0 20.746 2.9648 2.9648 5.9258 5.9258 8.1484 8.8906l-134.84 134.84c-2.9648 2.9648-2.9648 7.4102 0 10.371 1.4805 1.4805 3.7031 2.2227 5.1875 2.2227 1.4805 0 3.7031-0.74219 5.1875-2.2227l134.1-134.1c6.668 8.1484 13.336 15.559 19.262 22.969l-220.05 220.79-21.484-21.484 64.457-64.457c2.9648-2.9648 2.9648-7.4102 0-10.371-2.9648-2.9648-7.4102-2.9648-10.371 0l-69.645 69.645c-1.4844 2.2188-2.2266 3.6992-2.2266 5.9219 0 2.2227 0.74219 3.7031 2.2227 5.1875l31.859 31.859c1.4805 1.4805 3.7031 2.2227 5.1875 2.2227 1.4805 0 3.7031-0.74219 5.1875-2.2227l224.49-224.49c22.227 34.082 33.34 70.387 29.637 121.51 0 2.2227 0.74219 5.1875 2.9648 6.668 1.4805 0.74219 2.9648 1.4805 4.4453 1.4805 0.74219 0 2.2227 0 2.9648-0.74219 20.004-8.1484 39.266-17.781 56.309-28.895 3.7031-2.2227 4.4453-6.668 2.2227-10.371s-6.668-4.4453-10.371-2.2227c-13.336 8.8906-27.414 16.301-42.973 22.969v-20.746c53.344-27.414 94.094-68.164 121.51-121.51 6.668 0 13.336 0.74219 20.746 0-16.301 37.785-39.266 69.645-67.422 94.836-2.9648 2.9648-2.9648 7.4102-0.74219 10.371 2.9648 2.9648 7.4102 2.9648 10.371 0.74219 32.598-29.637 58.531-66.68 76.312-111.13-0.003906-2.2227-0.74609-4.4453-2.2266-6.668zm-143.73-80.02c0.74219-0.74219 1.4805-0.74219 2.2227 0l19.262 19.262s0.74219 0.74219 0.74219 0.74219 0 0.74219-0.74219 0.74219l-17.781 17.781c-7.4102-5.9258-15.559-11.855-22.969-19.262zm-17.043 197.08c-6.668-49.641-28.895-85.203-65.199-124.47-4.4453-4.4453-8.8906-8.8906-13.336-14.078l46.676-46.676c4.4453 4.4453 9.6328 8.8906 14.078 13.336 39.266 36.305 75.57 59.273 125.21 65.199-25.93 45.938-61.492 81.5-107.43 106.69z"/>
</svg>