<?xml version="1.0" encoding="UTF-8"?>
<!-- The Best Svg Icon site in the world: iconSvg.co, Visit us! https://iconsvg.co -->
<svg fill="#000000" width="800px" height="800px" version="1.1" viewBox="144 144 512 512" xmlns="http://www.w3.org/2000/svg">
 <g>
  <path d="m474.56 447.16c0.078125 1.1797 1.4961 29.914-16.059 47.469-14.957 14.879-37.863 16.137-45.184 16.137h-2.2812c-4.0156-0.23828-7.2422-3.4648-7.3984-7.4805-0.078125-1.1797-1.4961-29.914 16.059-47.469 17.555-17.555 46.289-16.137 47.469-16.059 4.0117 0.23828 7.2383 3.3867 7.3945 7.4023z"/>
  <path d="m419.69 315.14c17.555-17.555 46.289-16.137 47.469-16.059 4.0156 0.15625 7.2422 3.3867 7.3984 7.3984 0.078125 1.1797 1.4961 29.914-16.059 47.469-7.4805 7.4805-16.926 11.492-25.426 13.617-8.5 2.2031-16.059 2.5195-19.758 2.5195-1.3398 0-2.125-0.078125-2.2812-0.078125-4.0156-0.15625-7.2422-3.3867-7.3984-7.3984-0.082031-1.1836-1.5-29.914 16.055-47.469z"/>
  <path d="m405.29 316.95c-1.4961 1.3398-3.3867 2.0469-5.2734 2.0469-1.8906 0-3.7773-0.70703-5.2734-2.0469-0.86719-0.78906-22.121-20.152-22.121-44.949s21.254-44.16 22.121-44.949c2.9922-2.6758 7.5586-2.6758 10.547 0 0.86719 0.78906 22.121 20.152 22.121 44.949s-21.254 44.164-22.121 44.949z"/>
  <path d="m380.33 455.82c17.555 17.555 16.137 46.289 16.059 47.469-0.15625 4.0156-3.3867 7.2422-7.3984 7.4805h-2.2812c-7.3203 0-30.23-1.2617-45.184-16.137-14.801-14.879-16.137-37.863-16.137-45.184 0-1.2578 0.078125-2.125 0.078125-2.2812 0.23438-4.0156 3.3867-7.1641 7.3984-7.3984 1.1758-0.16406 29.91-1.5039 47.465 16.051z"/>
  <path d="m380.33 385.52c17.555 17.555 16.137 46.207 16.059 47.469-0.15625 4.0156-3.3867 7.1641-7.3984 7.3984-0.15625 0-0.94531 0.078125-2.2812 0.078125-7.3203 0-30.23-1.2617-45.184-16.219-14.801-14.879-16.137-37.785-16.137-45.105 0-1.2578 0.078125-2.125 0.078125-2.2812 0.23438-4.0156 3.3867-7.2422 7.3984-7.4805 1.1758-0.074218 29.91-1.4141 47.465 16.141z"/>
  <path d="m341.52 353.95c-14.801-14.879-16.137-37.863-16.137-45.184 0-1.2578 0.078125-2.125 0.078125-2.2812 0.23438-4.0156 3.3867-7.2422 7.3984-7.3984 1.1797-0.078125 29.914-1.4961 47.469 16.059 17.555 17.555 16.137 46.289 16.059 47.469-0.15625 4.0156-3.3867 7.2422-7.3984 7.3984-0.15625 0-0.94531 0.078125-2.2812 0.078125-7.3242-0.003906-30.23-1.2617-45.188-16.141z"/>
  <path d="m474.56 376.86c0.078125 1.1797 1.4961 29.836-16.059 47.391-7.4805 7.4805-16.926 11.492-25.426 13.699-8.5 2.2031-16.059 2.5195-19.758 2.5195-1.3398 0-2.125-0.078125-2.2812-0.078125-4.0156-0.23828-7.2422-3.3867-7.3984-7.3984-0.078125-1.2617-1.4961-29.914 16.059-47.469 17.555-17.555 46.289-16.215 47.469-16.137 4.0117 0.23047 7.2383 3.457 7.3945 7.4727z"/>
  <path d="m400.01 574.95c-4.3516 0-7.8711-3.5195-7.8711-7.8711v-46.902c0-4.3516 3.5195-7.8711 7.8711-7.8711 4.3516 0 7.8711 3.5195 7.8711 7.8711v46.902c0 4.3516-3.5195 7.8711-7.8711 7.8711z"/>
  <path d="m254.7 355.05c-1.4961 1.3398-3.3867 1.9688-5.2734 1.9688-1.8906 0-3.7773-0.62891-5.2734-1.9688-0.78906-0.70703-19.285-17.555-19.285-39.203 0-21.648 18.5-38.414 19.285-39.125 2.9922-2.6758 7.5586-2.6758 10.547 0 0.70703 0.70703 19.207 17.555 19.207 39.125 0 21.648-18.5 38.496-19.207 39.203z"/>
  <path d="m314.05 464.95c0.078125 1.0234 1.2578 25.977-14.09 41.25-6.5352 6.5352-14.719 9.9961-22.121 11.887-7.3984 1.8906-14.012 2.2031-17.16 2.2031h-1.9688c-4.0156-0.23437-7.2422-3.4648-7.3984-7.4805-0.078125-1.0234-1.2578-25.977 14.012-41.25 15.273-15.273 40.305-14.168 41.328-14.09 4.0117 0.23828 7.1602 3.4648 7.3984 7.4805z"/>
  <path d="m265.32 351.83c15.273-15.352 40.305-14.09 41.328-14.09 4.0156 0.23828 7.1641 3.3867 7.3984 7.3984 0.078125 1.1016 1.2578 25.977-14.09 41.328-12.988 12.988-32.906 14.09-39.281 14.09-1.1016 0-1.8086-0.078126-1.9688-0.078126-4.0156-0.15625-7.2422-3.3867-7.3984-7.3984-0.078125-1.0234-1.2578-25.98 14.012-41.25z"/>
  <path d="m314.05 405.04c0.078125 1.0234 1.2578 25.977-14.09 41.328-12.988 12.988-32.906 14.09-39.281 14.09-1.1016 0-1.8086-0.078126-1.9688-0.078126-4.0156-0.23437-7.2422-3.3867-7.3984-7.3984-0.078125-1.1016-1.2578-25.977 14.012-41.328 15.273-15.273 40.305-14.09 41.328-14.012 4.0117 0.23438 7.1602 3.3828 7.3984 7.3984z"/>
  <path d="m198.8 386.46c-12.91-12.988-14.09-32.746-14.09-39.203 0-1.1797 0.078125-1.9688 0.078125-2.125 0.15625-4.0156 3.3867-7.1641 7.3984-7.3984 1.0234-0.078125 25.977-1.2578 41.25 14.09 15.352 15.273 14.168 40.227 14.09 41.25-0.23828 4.0156-3.4648 7.2422-7.4805 7.3984-0.078125 0-0.78516 0.078126-1.9688 0.078126-6.293 0-26.289-1.1016-39.277-14.09z"/>
  <path d="m198.8 446.37c-15.273-15.352-14.09-40.305-14.012-41.328 0.15625-4.0156 3.3867-7.1641 7.3984-7.3984 1.0234-0.078125 25.977-1.2617 41.25 14.012 15.352 15.352 14.168 40.227 14.09 41.328-0.23828 4.0156-3.4648 7.1641-7.4805 7.3984-0.078125 0-0.78516 0.078126-1.9688 0.078126-6.293 0-26.289-1.1016-39.277-14.09z"/>
  <path d="m233.44 471.56c15.352 15.273 14.168 40.227 14.09 41.25-0.23828 4.0156-3.4648 7.2422-7.4805 7.4805h-1.9688c-6.2969 0-26.293-1.0234-39.281-14.09-12.91-12.91-14.09-32.746-14.09-39.203 0-1.1797 0.078124-1.8906 0.078124-2.0469 0.15625-4.0156 3.3867-7.2422 7.3984-7.4805 1.0273-0.078125 25.98-1.1797 41.254 14.09z"/>
  <path d="m249.4 574.95c-4.3516 0-7.8711-3.5195-7.8711-7.8711v-39.93c0-4.3516 3.5195-7.8711 7.8711-7.8711 4.3516 0 7.8711 3.5195 7.8711 7.8711v39.93c0 4.3516-3.5195 7.8711-7.8711 7.8711z"/>
  <path d="m558.48 527.14v39.91c0 4.4102-3.4648 7.8711-7.8711 7.8711-4.3281 0-7.8711-3.4648-7.8711-7.8711l-0.003906-39.91c0-4.3281 3.543-7.8711 7.8711-7.8711 4.4102 0 7.875 3.543 7.875 7.8711z"/>
  <path d="m526.12 315.85c0-21.57 18.5-38.414 19.207-39.125 2.9922-2.6758 7.5586-2.6758 10.547 0 0.78906 0.70703 19.285 17.477 19.285 39.125 0 21.648-18.5 38.496-19.285 39.203-1.4961 1.3398-3.3867 1.9688-5.2734 1.9688-1.8906 0-3.7773-0.62891-5.2734-1.9688-0.70703-0.70703-19.207-17.555-19.207-39.203z"/>
  <path d="m541.32 520.29h-1.9688c-6.375 0-26.293-1.0234-39.281-14.09-12.988-12.91-14.172-32.746-14.172-39.203 0-1.1797 0.078125-1.8906 0.078125-2.0469 0.23828-4.0156 3.3867-7.2422 7.3984-7.4805 1.0234-0.078125 26.055-1.1797 41.328 14.09 15.273 15.273 14.09 40.227 14.012 41.25-0.15234 4.0156-3.3789 7.2422-7.3945 7.4805z"/>
  <path d="m615.23 464.95c0.078125 1.0234 1.2578 25.977-14.012 41.25-6.457 6.5352-14.719 9.9961-22.121 11.887-7.4805 1.8906-14.012 2.2031-17.16 2.2031h-1.9688c-4.0156-0.23437-7.2422-3.4648-7.4805-7.4805-0.078126-1.0234-1.2578-25.977 14.09-41.25 15.273-15.273 40.227-14.168 41.25-14.09 4.0156 0.23828 7.2422 3.4648 7.4023 7.4805z"/>
  <path d="m615.23 405.04c0.078125 1.0234 1.2578 25.977-14.012 41.328-12.988 12.988-32.984 14.09-39.281 14.09-1.1797 0-1.8906-0.078126-1.9688-0.078126-4.0156-0.23437-7.2422-3.3867-7.4805-7.3984-0.078126-1.1016-1.2578-25.977 14.09-41.328 15.273-15.273 40.227-14.09 41.25-14.012 4.0156 0.23438 7.2422 3.3828 7.4023 7.3984z"/>
  <path d="m552.49 393.08c-0.078126-1.0234-1.2578-25.977 14.09-41.25 15.273-15.352 40.227-14.09 41.25-14.09 4.0156 0.23828 7.2422 3.3867 7.3984 7.3984 0.078125 1.1016 1.2578 25.977-14.012 41.328-12.988 12.988-32.984 14.09-39.281 14.09-1.1797 0-1.8906-0.078126-1.9688-0.078126-4.0117-0.15625-7.2383-3.3867-7.4766-7.3984z"/>
  <path d="m534.7 411.66c15.273 15.352 14.09 40.227 14.012 41.328-0.15625 4.0156-3.3867 7.1641-7.3984 7.3984-0.15625 0-0.86719 0.078126-1.9688 0.078126-6.375 0-26.293-1.1016-39.281-14.09-15.352-15.352-14.172-40.305-14.09-41.328 0.23828-4.0156 3.3867-7.1641 7.3984-7.3984 1.0234-0.082031 26.055-1.2617 41.328 14.012z"/>
  <path d="m500.07 386.46c-12.988-12.988-14.172-32.828-14.172-39.281 0-1.1797 0.078125-1.8906 0.078125-2.0469 0.23828-4.0156 3.3867-7.1641 7.3984-7.3984 1.0234-0.078125 26.055-1.2578 41.328 14.09 15.273 15.273 14.09 40.227 14.012 41.25-0.15625 4.0156-3.3867 7.2422-7.3984 7.3984-0.15625 0-0.86719 0.078126-1.9688 0.078126-6.3711 0-26.289-1.1016-39.277-14.09z"/>
 </g>
</svg>