<?xml version="1.0" encoding="UTF-8"?>
<!-- The Best Svg Icon site in the world: iconSvg.co, Visit us! https://iconsvg.co -->
<svg fill="#000000" width="800px" height="800px" version="1.1" viewBox="144 144 512 512" xmlns="http://www.w3.org/2000/svg">
 <g>
  <path d="m581.05 486.59h-39.359v-15.742h31.488v-105.26l-150.43-16.52c-3.9883-0.44141-7.0117-3.8125-7.0117-7.8281v-90.812h-157.44v101.63c0 1.9219-0.70312 3.7773-1.9766 5.2148l-21.637 24.453v73.375h-15.746v-76.359c0-1.9219 0.70312-3.7773 1.9766-5.2148l21.641-24.449v-106.52c0-4.3477 3.5234-7.8711 7.8711-7.8711h173.18c4.3477 0 7.8711 3.5234 7.8711 7.8711v91.633l150.43 16.52c3.9922 0.4375 7.0117 3.8086 7.0117 7.8242v120.18c0 4.3516-3.5234 7.8711-7.8711 7.8711z"/>
  <path d="m376.38 368.51h-86.594c-4.3477 0-7.8711-3.5234-7.8711-7.8711v-70.848c0-4.3477 3.5234-7.8711 7.8711-7.8711h86.594c4.3477 0 7.8711 3.5234 7.8711 7.8711v70.848c0 4.3438-3.5234 7.8711-7.8711 7.8711zm-78.719-15.746h70.848v-55.105h-70.848z"/>
  <path d="m533.82 352.77h-15.742v-30.648l-36.645-9.1602 3.8203-15.273 42.605 10.652c3.5 0.87109 5.9609 4.0195 5.9609 7.6328z"/>
  <path d="m431.49 384.25h15.742v31.488h-15.742z"/>
  <path d="m462.98 384.25h15.742v31.488h-15.742z"/>
  <path d="m502.34 384.25h15.742v31.488h-15.742z"/>
  <path d="m281.92 549.57c-39.062 0-70.848-31.781-70.848-70.848s31.785-70.848 70.848-70.848 70.848 31.781 70.848 70.848-31.785 70.848-70.848 70.848zm0-125.95c-30.387 0-55.105 24.723-55.105 55.105s24.719 55.105 55.105 55.105 55.105-24.723 55.105-55.105-24.719-55.105-55.105-55.105z"/>
  <path d="m490.53 549.57c-32.559 0-59.039-26.484-59.039-59.039 0-32.559 26.484-59.039 59.039-59.039 32.559 0 59.039 26.484 59.039 59.039 0 32.555-26.484 59.039-59.039 59.039zm0-102.34c-23.875 0-43.297 19.426-43.297 43.297s19.422 43.297 43.297 43.297 43.297-19.426 43.297-43.297-19.426-43.297-43.297-43.297z"/>
  <path d="m344.89 478.72h102.34v15.742h-102.34z"/>
 </g>
</svg>