<?xml version="1.0" encoding="UTF-8"?>
<!-- The Best Svg Icon site in the world: iconSvg.co, Visit us! https://iconsvg.co -->
<svg fill="#000000" width="800px" height="800px" version="1.1" viewBox="144 144 512 512" xmlns="http://www.w3.org/2000/svg">
 <g>
  <path d="m508.57 399.04c0-20.285-15.605-36.977-35.438-38.746 0.46875-2.4102 0.73047-4.8945 0.73047-7.4375 0-21.465-17.461-38.926-38.922-38.926-6.9141 0-13.398 1.832-19.031 5.0039l4.0195-30.418c0.03125-0.21484 0.042968-0.4375 0.042968-0.66016 0-11.598-9.4375-21.031-21.031-21.031-6.6172 0-12.461 3.1328-16.32 7.9297-0.074219-0.074218-0.12891-0.13281-0.20703-0.20703l-0.70312-0.70312c-4.1953-4.1914-9.1797-8.2695-14.496-6.6719-4.7383 1.4258-6.5078 6.2383-7.8711 12.242-15.848-6.2109-37.93-7.4375-38.98-7.5-1.4062-0.054687-2.8203 0.45703-3.8281 1.4727-1.0078 1.0078-1.543 2.4023-1.4727 3.8281 0.058594 1.0586 1.293 23.133 7.5039 38.98-6.0078 1.3594-10.812 3.1289-12.242 7.8672-1.5977 5.3008 2.4766 10.301 6.6719 14.5 2.9844 2.9844 6.2734 5.5742 9.7109 7.8789-0.34766 2.0938-0.57422 4.2266-0.57422 6.418 0 2.5469 0.26172 5.0273 0.73047 7.4375-19.832 1.7695-35.438 18.461-35.438 38.746 0 20.375 15.746 37.113 35.703 38.758-0.63672 2.8125-0.99609 5.6836-0.99609 8.6055 0 20.492 15.93 37.297 36.051 38.777-0.70703 2.957-1.1055 5.9883-1.1055 9.0703 0 21.461 17.461 38.922 38.922 38.922s38.922-17.461 38.922-38.922c0-3.0898-0.39844-6.1172-1.1055-9.0703 20.121-1.4805 36.051-18.285 36.051-38.777 0-2.9219-0.35938-5.7969-0.99609-8.6055 19.953-1.6484 35.699-18.387 35.699-38.762zm-44.785-46.184c0 15.906-12.941 28.848-28.848 28.848s-28.848-12.941-28.848-28.848 12.941-28.852 28.848-28.852c15.91 0 28.848 12.945 28.848 28.852zm-34.703 46.184c0 15.906-12.941 28.848-28.848 28.848s-28.848-12.941-28.848-28.848c0-2.7461 0.47266-5.418 1.2227-8.0117 12.074-2.3867 22.121-10.379 27.391-21.137 5.3359 10.898 15.59 18.945 27.875 21.211 0.73828 2.5781 1.207 5.2305 1.207 7.9375zm-35.18-46.184c0 15.906-12.941 28.848-28.848 28.848s-28.848-12.941-28.848-28.848 12.941-28.852 28.848-28.852c15.91 0 28.848 12.945 28.848 28.852zm5.0391-75.957c5.9453 0 10.793 4.7539 10.953 10.656l-5.4414 41.172c-1.7305 2.1875-3.2188 4.5625-4.4531 7.0898-1.4922-3.0469-3.3555-5.875-5.5586-8.4141l-6.4531-39.918c0.19922-5.8672 5.0352-10.586 10.953-10.586zm-74.82 54.535c-2.0625-2.0625-3.0898-3.4258-3.5977-4.2305 1.8242-0.71875 5.3867-1.4414 8.1328-1.9961l2.1758-0.44141c1.5742-0.32812 2.8984-1.3828 3.5625-2.8477 0.66406-1.4609 0.59375-3.1523-0.19141-4.5508-5.4023-9.6172-7.7109-26.18-8.5938-34.914 8.7266 0.87891 25.273 3.1836 34.906 8.5938 1.4023 0.78906 3.0898 0.85156 4.5508 0.19141 1.4609-0.66406 2.5195-1.9883 2.8477-3.5625l0.44141-2.1797c0.5625-2.7461 1.2773-6.3008 1.9961-8.1211 0.8125 0.50781 2.168 1.5312 4.2305 3.5898l0.72266 0.71875c1.3945 1.3906 1.9766 1.9883 2.8984 3.2109-0.14062 0.97656-0.30078 1.9492-0.30078 2.9609 0 0.26953 0.019531 0.53516 0.0625 0.80078l4.7773 29.566c-5.3164-2.7266-11.32-4.2969-17.691-4.2969-15.559 0-28.973 9.1953-35.199 22.422-1.9922-1.5039-3.9297-3.1133-5.7305-4.9141zm-22.617 67.605c0-15.875 12.895-28.793 28.758-28.84 5.3789 10.742 15.555 18.66 27.727 20.906 0.73828 2.5742 1.207 5.2188 1.207 7.9375 0 15.906-12.941 28.848-28.848 28.848-15.902-0.003906-28.844-12.945-28.844-28.852zm34.707 47.363c0-3.1562 0.59375-6.2188 1.5859-9.1758 12.121-2.3594 22.215-10.367 27.496-21.152 5.2031 10.625 15.07 18.562 26.949 21.055 1.0156 2.9883 1.6602 6.0781 1.6602 9.2773 0 15.906-12.941 28.848-28.848 28.848-15.906-0.003906-28.844-12.945-28.844-28.852zm63.789 76.695c-15.906 0-28.848-12.941-28.848-28.848 0-3.3516 0.64062-6.6016 1.7578-9.7227 11.941-2.4531 21.863-10.418 27.09-21.086 5.2188 10.656 15.125 18.613 27.047 21.078 1.1211 3.125 1.8008 6.3711 1.8008 9.7344-0.003906 15.902-12.941 28.844-28.848 28.844zm34.941-47.848c-15.906 0-28.848-12.941-28.848-28.848 0-3.1602 0.58984-6.2266 1.582-9.1758 11.938-2.3242 21.918-10.121 27.262-20.664 5.3477 10.543 15.328 18.344 27.266 20.664 0.99219 2.9531 1.582 6.0195 1.582 9.1758 0 15.906-12.938 28.848-28.844 28.848zm34.703-47.363c-15.906 0-28.848-12.941-28.848-28.848 0-2.7109 0.46484-5.3555 1.2031-7.9375 12.172-2.2422 22.352-10.16 27.73-20.906 15.863 0.046876 28.758 12.965 28.758 28.84 0.003907 15.91-12.938 28.852-28.844 28.852z"/>
  <path d="m203.51 601.52h392.97c2.7852 0 5.0391-2.2539 5.0391-5.0391v-37.785c0-2.7852-2.2539-5.0391-5.0391-5.0391h-1.5742v-307.32h1.5742c2.7852 0 5.0391-2.2539 5.0391-5.0391v-37.785c0-2.7852-2.2539-5.0391-5.0391-5.0391l-392.97 0.003906c-2.7852 0-5.0391 2.2539-5.0391 5.0391v37.785c0 2.7852 2.2539 5.0391 5.0391 5.0391h1.5742v307.32l-1.5742-0.003906c-2.7852 0-5.0391 2.2539-5.0391 5.0391l0.003906 37.785c0 2.7852 2.25 5.0391 5.0352 5.0391zm387.93-10.078h-382.89v-27.711h382.89zm-382.89-382.89h382.89v27.711h-382.89zm6.6133 37.785h369.67v307.32h-369.67z"/>
 </g>
</svg>