<?xml version="1.0" encoding="UTF-8"?>
<!-- The Best Svg Icon site in the world: iconSvg.co, Visit us! https://iconsvg.co -->
<svg width="800px" height="800px" version="1.1" viewBox="144 144 512 512" xmlns="http://www.w3.org/2000/svg">
 <defs>
  <clipPath id="a">
   <path d="m148.09 154h503.81v492h-503.81z"/>
  </clipPath>
 </defs>
 <g clip-path="url(#a)">
  <path d="m642.54 223.11c-1.3359-4.3828-5.5039-7.2773-10.074-7.0039l-147.29 9.8398c-1.6953-5.5078-5.5586-10.082-10.703-12.676l-111.55-56.836c-5.1797-2.4922-11.121-2.8906-16.59-1.1172-5.4688 1.7734-10.043 5.5859-12.773 10.645l-38.336 75.336v-0.003906c-2.6133 5.1484-3.0781 11.121-1.2891 16.613 1.7852 5.4883 5.6719 10.047 10.812 12.672l2.0469 1.0234c-0.39453 0.62891-0.86719 1.1016-1.1797 1.7305l-155.16 304.65c-2.6172 5.1602-3.082 11.145-1.2969 16.648 1.7852 5.5 5.6758 10.074 10.82 12.715l70.848 36.055c5.1602 2.6133 11.145 3.082 16.648 1.2969 5.5-1.7852 10.074-5.6758 12.715-10.824l155.55-304.73c0-0.62891 0.47266-1.2578 0.78906-1.8906v0.003907c5.1055 2.5664 11.016 3.0195 16.449 1.2578l78.719 124.85h0.003906c1.8047 2.875 4.9492 4.625 8.3438 4.6445 1.0977-0.023437 2.1836-0.21094 3.2266-0.55078 47.066-15.082 86.348-48.004 109.42-91.711 21.84-44.422 25.375-95.641 9.8398-142.64zm-244.74 97.141-155.23 304.65c-0.31641 0.71875-1.0273 1.1836-1.8125 1.1797l-71.793-36.367c-0.49219-0.23438-0.86719-0.66406-1.0352-1.1875-0.16406-0.52344-0.10156-1.0938 0.17188-1.5664l155.16-304.65c0.36328-0.6875 1.1211-1.0703 1.8906-0.94531h0.86719l40.383 20.547 30.465 15.742c0.91016 0.51562 1.3125 1.6172 0.94141 2.5977zm217.27 36.527c-19.434 36.906-51.941 65.23-91.16 79.43l-79.742-126.66c-1.7305-2.7188-4.6562-4.4453-7.8711-4.6445-3.1445 0.039062-6.0742 1.5938-7.8711 4.1719-0.625 0.71484-1.5977 1.0195-2.5195 0.78516l-112.49-56.836c-1.0039-0.55469-1.4141-1.7852-0.94531-2.832l38.73-75.258c0.39453-0.78906 1.1797-1.1016 2.7539-0.86719l111.55 56.836c0.85937 0.48438 1.2031 1.5469 0.78906 2.4414-1.0039 3.1172-0.41406 6.5312 1.5742 9.1328 2.0625 2.5586 5.2188 3.9883 8.5 3.8555l149.57-9.9961c11.48 40.102 7.6055 83.039-10.863 120.44z"/>
 </g>
 <path d="m588.93 267.83c-5.1367 1.8203-7.8438 7.4453-6.0586 12.594 0.94531 2.5977 21.648 64.785-46.207 89.742h-0.003906c-2.457 0.90234-4.4531 2.7461-5.5469 5.125-1.0938 2.3789-1.1914 5.0938-0.27734 7.5469 1.4062 3.9102 5.1328 6.5 9.2891 6.457 1.1602 0.019531 2.3086-0.19531 3.3828-0.62891 86.594-31.488 58.254-113.99 58.016-114.85l0.003907-0.003906c-1.8516-5.1055-7.4688-7.7734-12.598-5.9805z"/>
</svg>