<?xml version="1.0" encoding="UTF-8"?>
<!-- The Best Svg Icon site in the world: iconSvg.co, Visit us! https://iconsvg.co -->
<svg fill="#000000" width="800px" height="800px" version="1.1" viewBox="144 144 512 512" xmlns="http://www.w3.org/2000/svg">
 <path d="m625.27 253.37-44.684-34.93c-2.8555-2.2422-6.875-2.2422-9.7305 0l-44.219 34.93h0.003907c-1.8906 1.4922-2.9922 3.7695-2.9922 6.1797v44.414h-71.328v-44.391c0.003906-2.4219-1.1094-4.7109-3.0156-6.2031l-44.68-34.93c-2.8555-2.2422-6.875-2.2422-9.7305 0l-44.227 34.93c-1.8867 1.4961-2.9844 3.7695-2.9844 6.1797v44.414h-71.328v-44.391c0-2.4219-1.1133-4.7109-3.0234-6.2031l-44.68-34.93c-2.8555-2.2227-6.8633-2.2148-9.707 0.023438l-44.238 34.93c-1.8906 1.4922-2.9961 3.7695-2.9922 6.1797v315.79c0 2.0898 0.82812 4.0898 2.3047 5.5664s3.4766 2.3047 5.5664 2.3047h88.898c2.0898 0 4.0898-0.82812 5.5664-2.3047s2.3047-3.4766 2.3047-5.5664v-52.152h71.328v52.152c0 2.0898 0.83203 4.0898 2.3086 5.5664 1.4766 1.4766 3.4766 2.3047 5.5664 2.3047h88.891c2.0859 0 4.0898-0.82812 5.5664-2.3047 1.4766-1.4766 2.3047-3.4766 2.3047-5.5664v-52.152h71.328v52.152c0 2.0898 0.82812 4.0898 2.3047 5.5664 1.4766 1.4766 3.4805 2.3047 5.5664 2.3047h88.898c2.0898 0 4.0898-0.82812 5.5664-2.3047 1.4766-1.4766 2.3086-3.4766 2.3086-5.5664v-315.79c0-2.4219-1.1172-4.7109-3.0234-6.2031zm-172.95 125.16h71.328v70.062h-71.328zm71.328-58.828v43.082l-71.328 0.003906v-43.086zm-247.29 58.828h71.328v70.062h-71.328zm71.328-58.828v43.082l-71.328 0.003906v-43.086zm-87.07 247.78h-73.156v-304.11l36.371-28.691 36.785 28.75zm15.742-60.023v-43.086h71.328v43.082zm87.074 60.023v-304.11l36.367-28.691 36.777 28.75v46.75c-0.16797 0.54297-0.27734 1.1055-0.32812 1.6758 0.046874 0.57031 0.16016 1.1328 0.32812 1.6758v55.445c-0.16797 0.54297-0.28125 1.1055-0.32812 1.6758 0.050781 0.57031 0.16016 1.1289 0.32812 1.6758v82.492c-0.16797 0.54297-0.28125 1.1055-0.32812 1.6758 0.050781 0.57031 0.16016 1.1328 0.32812 1.6758v55.477c-0.16797 0.54297-0.28125 1.1055-0.32812 1.6758 0.050781 0.57031 0.16016 1.1289 0.32812 1.6758v50.477zm88.891-60.023v-43.086h71.328v43.082zm160.23 60.023h-73.156v-304.11l36.371-28.691 36.785 28.715zm-388.52-255.61c-6.1133 0-11.977 2.4297-16.301 6.7539-4.3203 4.3203-6.75 10.184-6.75 16.297 0.003907 6.1133 2.4297 11.977 6.7539 16.301 4.3242 4.3203 10.188 6.75 16.301 6.7461 6.1133 0 11.977-2.4297 16.301-6.7539 4.3203-4.3242 6.7461-10.188 6.7461-16.301-0.007813-6.1133-2.4375-11.969-6.7617-16.289-4.3203-4.3203-10.18-6.75-16.289-6.7539zm0 30.348c-2.9531 0-5.6172-1.7812-6.75-4.5117-1.1289-2.7305-0.50391-5.8711 1.5859-7.9609 2.0859-2.0898 5.2305-2.7148 7.9609-1.582 2.7266 1.1289 4.5078 3.793 4.5078 6.75 0 1.9375-0.76953 3.793-2.1406 5.1641-1.3672 1.3711-3.2266 2.1406-5.1641 2.1406zm0 123.43c-6.1133 0-11.977 2.4258-16.297 6.75-4.3242 4.3242-6.7539 10.184-6.7539 16.297 0 6.1133 2.4297 11.977 6.7539 16.301 4.3203 4.3203 10.184 6.75 16.297 6.75 6.1133 0 11.977-2.4297 16.297-6.75 4.3242-4.3242 6.7539-10.188 6.7539-16.301-0.003906-6.1094-2.4336-11.973-6.7578-16.293-4.3203-4.3203-10.18-6.75-16.293-6.7539zm0 30.348v-0.003907c-2.957 0-5.6211-1.7773-6.75-4.5117-1.1289-2.7305-0.50391-5.8711 1.5859-7.9609 2.0938-2.0898 5.2344-2.7109 7.9648-1.5781s4.5078 3.8008 4.5039 6.7539c-0.003906 4.0312-3.2734 7.2969-7.3047 7.2969zm175.97-184.12c-6.1133 0-11.977 2.4297-16.301 6.7539-4.3242 4.3203-6.75 10.184-6.75 16.297s2.4297 11.977 6.7539 16.301c4.3242 4.3203 10.188 6.75 16.301 6.7461 6.1133 0 11.977-2.4297 16.297-6.7539 4.3242-4.3242 6.75-10.188 6.7461-16.301-0.007813-6.1094-2.4375-11.969-6.7578-16.289-4.3242-4.3164-10.18-6.7461-16.289-6.7539zm0 30.348c-2.957 0-5.6211-1.7812-6.75-4.5117-1.1328-2.7305-0.50781-5.8711 1.582-7.9609 2.0898-2.0898 5.2305-2.7148 7.9609-1.582 2.7305 1.1289 4.5117 3.793 4.5117 6.75-0.003907 4.0312-3.2734 7.3008-7.3047 7.3047zm0 123.43c-6.1133 0-11.977 2.4258-16.301 6.75-4.3203 4.3242-6.75 10.184-6.75 16.297 0 6.1133 2.4297 11.977 6.75 16.301 4.3242 4.3203 10.188 6.75 16.301 6.75s11.973-2.4297 16.297-6.75c4.3242-4.3242 6.75-10.188 6.75-16.301-0.003906-6.1094-2.4375-11.969-6.7578-16.289-4.3203-4.3242-10.18-6.7539-16.289-6.7578zm0 30.348v-0.003907c-2.957 0-5.6211-1.7773-6.75-4.5117-1.1328-2.7305-0.50391-5.8711 1.5859-7.9609 2.0898-2.0898 5.2344-2.7109 7.9648-1.5781 2.7266 1.1328 4.5078 3.8008 4.5039 6.7539-0.003907 4.0312-3.2734 7.2969-7.3047 7.2969zm152.92-161.08c-0.003906 6.1133 2.4219 11.977 6.7461 16.301 4.3203 4.3242 10.184 6.7539 16.297 6.7539 6.1133 0.003906 11.977-2.4258 16.301-6.7461 4.3242-4.3242 6.7539-10.188 6.7539-16.301s-2.4297-11.977-6.75-16.297c-4.3242-4.3242-10.188-6.7539-16.301-6.7539-6.1094 0.007812-11.965 2.4375-16.289 6.7539-4.3203 4.3203-6.75 10.18-6.7578 16.289zm23.051-7.2969h-0.003906c2.957 0 5.6211 1.7773 6.75 4.5078 1.1328 2.7344 0.50391 5.875-1.5859 7.9648-2.0898 2.0859-5.2344 2.7109-7.9648 1.5781-2.7305-1.1328-4.5078-3.8008-4.5039-6.7539 0.003907-4.0312 3.2734-7.2969 7.3047-7.2969zm0 138.03h-0.003906c-6.1133-0.003906-11.977 2.4219-16.301 6.7461-4.3242 4.3203-6.7539 10.184-6.7539 16.297-0.003906 6.1133 2.4258 11.977 6.7461 16.301 4.3242 4.3242 10.188 6.7539 16.301 6.7539 6.1133 0 11.977-2.4258 16.297-6.75 4.3242-4.3242 6.7539-10.188 6.7539-16.301-0.007813-6.1094-2.4375-11.965-6.7539-16.289-4.3203-4.3203-10.18-6.75-16.289-6.7578zm0 30.348-0.003906-0.003907c-2.957 0.003907-5.6211-1.7734-6.7539-4.5039-1.1328-2.7305-0.50781-5.875 1.582-7.9648 2.0898-2.0898 5.2344-2.7148 7.9648-1.582s4.5078 3.8008 4.5039 6.7539c-0.003906 4.0312-3.2656 7.293-7.2969 7.2969z"/>
</svg>