<?xml version="1.0" encoding="UTF-8"?>
<!-- The Best Svg Icon site in the world: iconSvg.co, Visit us! https://iconsvg.co -->
<svg fill="#000000" width="800px" height="800px" version="1.1" viewBox="144 144 512 512" xmlns="http://www.w3.org/2000/svg">
 <g>
  <path d="m329.15 400h78.723c2.0859 0 4.0898-0.83203 5.5664-2.3086 1.4766-1.4766 2.3047-3.4766 2.3047-5.5664v-47.23c0-2.0898-0.82813-4.0898-2.3047-5.5664s-3.4805-2.3047-5.5664-2.3047h-78.723c-4.3477 0-7.8711 3.5234-7.8711 7.8711v47.23c0 2.0898 0.83203 4.0898 2.3047 5.5664 1.4766 1.4766 3.4805 2.3086 5.5664 2.3086zm7.8711-47.23h62.977v31.488l-62.973-0.003906z"/>
  <path d="m575.49 202.25c-4.4141-4.4453-10.43-6.9375-16.695-6.9219h-2.707c-6.2695-0.015625-12.281 2.4766-16.699 6.9219l-66.234 66.234c-2.25 2.25-2.9219 5.6367-1.7031 8.5781 1.2148 2.9414 4.0859 4.8594 7.2695 4.8594h7.8711v30.699l-114.75-53.531v0.003906c-2.1094-0.98438-4.5469-0.98438-6.6602 0l-118.08 55.105h0.003906c-0.83203 0.39063-1.5859 0.92578-2.2383 1.5742l-86.594 86.594 0.003907-0.003906c-3.0742 3.0742-3.0742 8.0586 0 11.133l15.742 15.742c3.0742 3.0742 8.0586 3.0742 11.133 0l10.176-10.234v169.93h-7.8711v15.742l448.71 0.003906v-15.746h-7.8711v-307.01h7.8711c3.1836 0 6.0508-1.918 7.2695-4.8594s0.54687-6.3281-1.7031-8.5781zm-24.969 11.129c1.4766-1.4766 3.4766-2.3047 5.5664-2.3047h2.707c2.0859 0 4.0898 0.82813 5.5664 2.3047l52.797 52.801h-119.43zm-370.94 199.11-4.6133-4.6133 80.051-80.043 113.49-52.996 113.49 52.965 80.047 80.074-4.6133 4.6133-81.023-81.027c-0.66016-0.65234-1.4258-1.1836-2.2695-1.5742l-102.34-47.23v-0.003906c-2.0938-0.96484-4.5039-0.96484-6.5977 0l-102.34 47.23v0.003906c-0.83984 0.39063-1.6094 0.92188-2.2656 1.5742zm31.488-9.2266 59.68-59.68 97.762-45.129 97.762 45.113 59.676 59.695v185.67h-39.359v-133.82c0-2.0859-0.82812-4.0898-2.3047-5.5664-1.4766-1.4766-3.4805-2.3047-5.5664-2.3047h-220.42c-4.3477 0-7.8711 3.5234-7.8711 7.8711v133.82h-39.359zm259.78 163.74-37-44.98 37-44.973zm-47.23-57.355-38.426-46.664h76.848zm-62.977 57.355-35.574-43.203 35.57-45.742zm15.742-89.938 37 44.965-37 44.965zm-61.574 34.281-39.824-48.363h77.43zm-9.9102 12.723-38.723 49.797v-96.824zm10.234 12.461 43.184 52.402h-83.918zm108.48-2.125 44.91 54.527h-89.781zm188.93-55.68h-39.359v15.742h39.359v7.8711l-23.617 0.003907v15.742h23.617v31.488h-39.359v15.742h39.359v23.617h-70.848v-169.93l10.18 10.18c3.0742 3.0742 8.0547 3.0742 11.129 0l15.742-15.742h0.003906c3.0703-3.0742 3.0703-8.0586 0-11.133l-76.414-76.414v-43.973h110.21z"/>
  <path d="m557.44 525.95h39.359v15.742h-39.359z"/>
  <path d="m549.57 502.34h31.488v15.742h-31.488z"/>
  <path d="m549.57 549.57h15.742v15.742h-15.742z"/>
  <path d="m533.82 337.02h47.23c2.0898 0 4.0898-0.83203 5.5664-2.3086 1.4766-1.4727 2.3047-3.4766 2.3047-5.5664v-7.8711c0-11.25-6-21.645-15.742-27.27-9.7422-5.625-21.746-5.625-31.488 0-9.7422 5.625-15.746 16.02-15.746 27.27v7.8711c0 2.0898 0.83203 4.0938 2.3086 5.5664 1.4766 1.4766 3.4766 2.3086 5.5664 2.3086zm23.617-31.488h-0.003906c4.1758 0 8.1797 1.6562 11.133 4.6094 2.9531 2.9531 4.6133 6.957 4.6133 11.133h-31.488c0-4.1758 1.6602-8.1797 4.6094-11.133 2.9531-2.9531 6.957-4.6094 11.133-4.6094z"/>
 </g>
</svg>