<?xml version="1.0" encoding="UTF-8"?>
<!-- The Best Svg Icon site in the world: iconSvg.co, Visit us! https://iconsvg.co -->
<svg fill="#000000" width="800px" height="800px" version="1.1" viewBox="144 144 512 512" xmlns="http://www.w3.org/2000/svg">
 <path d="m448.11 200.12c-9.2266-4.1484-20.23-0.066407-24.531 9.0859-0.09375 0.19531-0.17188 0.39453-0.23438 0.59766l-23.352 72.664-23.352-72.664c-0.0625-0.20312-0.14453-0.40234-0.23438-0.59766-4.3203-9.207-15.332-13.273-24.602-9.0586-9.1914 4.2891-13.234 15.289-9.0078 24.543l36.953 79.797c-22.668 6.6602-31.707 31.039-31.707 83.652 0 63.812 17.672 213.38 51.949 213.38s51.953-149.57 51.953-213.38c0-52.621-9.043-77-31.707-83.656l36.953-79.797c0.003907-0.011719 0.011719-0.015625 0.011719-0.023438 4.2109-9.2266 0.16797-20.223-9.0938-24.543zm-92.086 9.1797c1.125-0.51172 2.3086-0.75391 3.4766-0.75391 3.1289 0 6.1562 1.7383 7.6562 4.6836l28.039 87.246c0.22656 0.70703 0.60547 1.3398 1.0859 1.8672-2.043 0.035156-3.9531 0.125-5.8164 0.26562-0.15234 0.011719-0.32031 0.007812-0.46875 0.019531l-38.047-82.152c-1.9219-4.2148-0.078125-9.2383 4.0742-11.176zm67.5 331.68c-0.67188-0.33203-1.4023-0.55859-2.207-0.55859h-42.648c-0.80078 0-1.5312 0.22656-2.207 0.55859-3.6406-14.758-7.0039-31.82-9.8281-50.008h66.711c-2.8164 18.188-6.1836 35.25-9.8203 50.008zm-58.371-60.086c-2.293-16.234-4.1406-33.113-5.3633-49.82 0.56641 0.22266 1.1758 0.36719 1.8242 0.36719h76.762c0.64844 0 1.2578-0.14453 1.8242-0.36719-1.2227 16.707-3.0703 33.586-5.3633 49.82zm76.715-92.754c0 10.957-0.375 22.367-1.0664 33.938-0.73047-0.41016-1.5273-0.70703-2.4258-0.70703l-76.762-0.003907c-0.89844 0-1.6953 0.29688-2.4258 0.70703-0.69141-11.57-1.0664-22.977-1.0664-33.938 0-6.3164 0.14453-12.082 0.41406-17.371 0.85938 0.67969 1.8984 1.1484 3.0781 1.1484h76.762c1.1836 0 2.2227-0.46875 3.0781-1.1484 0.26953 5.293 0.41406 11.059 0.41406 17.375zm-41.875 203.3c-6.7188 0-14.258-16.16-21.066-40.945h42.129c-6.8047 24.789-14.34 40.945-21.062 40.945zm40.91-228.82c-0.75391-0.44922-1.5859-0.77734-2.5312-0.77734h-76.758c-0.94141 0-1.7734 0.32812-2.5312 0.77734 3.5508-42.109 16.398-47.902 28.57-49.598 3.6758-0.52344 7.5898-0.63281 12.34-0.63281 4.7461 0 8.6641 0.10938 12.34 0.63281h0.027343c12.156 1.6992 24.996 7.5039 28.543 49.598zm7.1367-142.15-38.047 82.16c-0.14453-0.011718-0.30859-0.007812-0.45312-0.019531-1.8711-0.14062-3.7852-0.23047-5.832-0.26562 0.48047-0.52734 0.85937-1.1562 1.0859-1.8672l28.039-87.25c2.0859-4.0938 6.9141-5.8203 11.09-3.9492 4.1875 1.957 6.0391 6.9766 4.1172 11.191z"/>
</svg>