<?xml version="1.0" encoding="UTF-8"?>
<!-- The Best Svg Icon site in the world: iconSvg.co, Visit us! https://iconsvg.co -->
<svg fill="#000000" width="800px" height="800px" version="1.1" viewBox="144 144 512 512" xmlns="http://www.w3.org/2000/svg">
 <path d="m358.94 251.38c27.457-5.0391 54.664-5.0391 82.121 0l16.879-49.121c2.5195-6.8008-0.25-11.336-8.3125-13.855-33.754-10.328-65.496-10.328-99.25 0-8.0625 2.5195-10.832 7.0547-8.3125 13.855zm-110.08 179.11 0.50391 45.594c0.25 48.871 22.922 75.066 75.824 75.066h151.14c50.129 0 75.066-23.93 75.066-68.016v-55.922c0-92.449-39.551-130.74-110.34-163.23-27.457-5.0391-54.664-5.0391-82.121 0-71.793 33.504-110.59 67.258-110.08 166.51zm151.14-44.59c-10.832 0-23.93-7.5586-23.93-24.688 0-12.344 7.0547-24.688 23.93-51.891 17.129 27.457 24.184 39.551 24.184 51.891 0 17.129-13.602 24.688-24.184 24.688zm-12.094 45.598c-7.5586 7.8086-23.426 12.09-36.023-0.75391-9.3203-9.0703-13.098-23.176-20.906-56.176 33 7.5586 47.359 11.586 56.426 20.656 12.594 12.848 8.5664 28.215 0.50391 36.273zm26.199 0.25c-4.2812-4.5352-7.5586-10.832-7.5586-18.137 0-6.0469 2.5195-12.344 8.3125-18.137 9.0703-9.0703 23.176-13.098 56.426-20.906-7.8086 33.25-12.09 47.359-20.906 56.426-12.848 12.848-28.719 8.5664-36.273 0.75391zm-27.207 68.266c-8.3125 8.3125-25.191 13.352-39.297-0.75391-10.078-10.078-14.359-25.191-22.672-61.465 36.023 8.3125 51.641 12.848 61.465 22.672 14.105 14.105 9.5742 30.48 0.50391 39.551zm27.711 0c-8.5664-9.3203-13.602-25.441 0.50391-39.551 9.8242-9.8242 25.441-14.359 61.465-22.672-8.3125 36.273-12.594 51.641-22.672 61.465-14.359 13.855-31.234 9.3203-39.297 0.75391z"/>
</svg>