<?xml version="1.0" encoding="UTF-8"?>
<!-- The Best Svg Icon site in the world: iconSvg.co, Visit us! https://iconsvg.co -->
<svg fill="#000000" width="800px" height="800px" version="1.1" viewBox="144 144 512 512" xmlns="http://www.w3.org/2000/svg">
 <path d="m529.48 409.07v-77.082c0-72.043-58.441-130.49-130.49-130.49-72.043 0-130.99 58.445-130.99 130.49v77.586c-9.5742 0-17.129 8.0625-17.129 17.633v2.0156c0 9.5742 7.5586 17.129 17.129 17.633v30.73c0 60.961 49.375 110.34 110.34 110.34h40.809c60.961 0 110.34-49.375 110.34-110.34v-30.73c9.5742 0 17.129-8.0625 17.129-17.633v-2.0156c-0.003906-10.074-8.0625-17.633-17.133-18.137zm-130.99-198c66.504 0 120.41 53.906 120.41 120.41v77.082h-5.0391c-1.0078-26.199-18.641-48.367-38.289-48.367h-2.0156c-2.0156-25.191-19.145-46.352-38.289-46.352-20.656 0-35.266 23.176-37.281 46.352h-0.50391-3.0234c-2.0156-25.191-19.145-46.352-38.289-46.352-20.656 0-35.266 23.176-37.281 46.352-21.664 0-36.273 24.688-37.281 48.367h-4.5352v-76.578c1.0078-66.504 54.914-120.91 121.42-120.91zm-78.594 159.71c14.105 0 27.207 18.137 28.215 38.289h-55.418c1.0039-20.152 13.598-38.289 27.203-38.289zm38.289 38.289c-1.0078-21.664-13.098-40.809-28.719-46.855 1.0078-20.152 13.602-38.289 27.207-38.289 14.105 0 27.711 18.641 28.215 39.297-14.609 7.5586-23.68 26.703-24.688 45.344h-2.0156zm39.801-38.289c14.105 0 27.207 18.137 28.215 38.289h-55.418c1.0039-20.152 13.598-38.289 27.203-38.289zm38.289 38.289c-1.0078-21.16-12.594-40.305-27.711-46.352 1.0078-20.152 13.602-38.289 27.207-38.289 14.105 0 27.207 18.641 28.215 38.793-15.113 7.0547-24.688 26.703-25.191 45.848zm39.801-38.289c14.105 0 27.207 18.137 28.215 38.289h-55.418c1.0039-20.152 13.602-38.289 27.203-38.289zm-56.93 207.07h-40.809c-55.418 0-100.26-44.84-100.26-100.26v-30.73h241.32v30.73c0 55.418-45.344 100.26-100.26 100.26zm117.39-148.62c0 4.0312-3.5273 7.5586-7.5586 7.5586h-260.97c-4.0312 0-7.5586-3.5273-7.5586-7.5586v-2.0156c0-4.0312 3.5273-7.5586 7.5586-7.5586h260.47c4.0312 0 7.5586 3.5273 7.5586 7.5586v2.0156z"/>
</svg>