<?xml version="1.0" encoding="UTF-8"?>
<!-- The Best Svg Icon site in the world: iconSvg.co, Visit us! https://iconsvg.co -->
<svg fill="#000000" width="800px" height="800px" version="1.1" viewBox="144 144 512 512" xmlns="http://www.w3.org/2000/svg">
 <path d="m598.56 287.7-196.48-88.773c-1.3203-0.60156-2.832-0.60156-4.1523 0l-196.48 88.773c-1.8008 0.8125-2.9609 2.6133-2.9609 4.5898v50.637c0 1.7031 0.85938 3.293 2.293 4.2227 1.4219 0.93359 3.2266 1.0781 4.7891 0.38281l18.25-8.0898-0.003906 257.05c0 2.7852 2.2539 5.0391 5.0391 5.0391h342.32c2.7852 0 5.0391-2.2539 5.0391-5.0391l-0.003907-257.05 18.25 8.0898c0.65234 0.28906 1.3438 0.43359 2.0391 0.43359 0.96094 0 1.918-0.27734 2.7461-0.81641 1.4297-0.92969 2.293-2.5195 2.293-4.2227v-50.637c0-1.9766-1.1641-3.7773-2.9648-4.5898zm-364.68 47.273 37.52-16.637v273.11h-37.52zm47.598 81.039h30.746l-0.003906 175.44h-30.746zm40.82 70.668 46.68 26.66v37.91h-46.68zm56.758 32.414 56.297 32.152-56.297 0.003906zm76.613 32.156-133.37-76.172v-18.297h24.621l130.78 74.691v19.777zm22.031-31.383-48.551-27.727v-35.363h48.551zm-58.625-33.48-51.84-29.605h51.84zm58.625-39.684h-155.4v-30.691h155.4zm-155.4 114.62h155.4v30.125h-155.4zm165.48-145.31h30.176l-0.003906 175.44h-30.176zm30.172-10.074h-236.48v-92.066l118.53-52.555 117.95 52.297zm48.168 185.51h-38.09v-273.37l38.09 16.891zm25.328-256.27-189.41-83.977c-0.64844-0.29297-1.3477-0.43359-2.0391-0.43359-0.69531 0-1.3906 0.14453-2.043 0.43359l-189.41 83.977v-39.641l191.45-86.492 191.45 86.492z"/>
</svg>