<?xml version="1.0" encoding="UTF-8"?>
<!-- The Best Svg Icon site in the world: iconSvg.co, Visit us! https://iconsvg.co -->
<svg fill="#000000" width="800px" height="800px" version="1.1" viewBox="144 144 512 512" xmlns="http://www.w3.org/2000/svg">
 <path d="m416.48 503.46v80.742h-66.402l-3.0977-49.414 0.33594-0.28906 28.059-23.785-27.105-0.24219-17.828 15.113 10.531 58.617h-33.125l-0.015625-49.438 37.676-31.941 0.33203 0.003906zm-16.477-287.66-226.71 141.7 17.574 28.34 24.934-15.195v213.57h82.898l-10.855-79.652 7.8203-11.73-7.1172-34.719-9.0469-13.27c-2.2227-3.2344-3.3945-7.0117-3.3945-10.934v-5.5391l25.285 12.785 0.80469-0.83203c7.8945-8.1719 18.934-12.852 30.293-12.852h106.48l24.992-40.996h-2.7344c-7.0195 0-13.551-3.4648-17.488-9.2812l-3.0781-4.5508h23.594l-11.645-15.355c-3.2656-4.3008-7.6445-7.6289-12.66-9.6133l-15.633-6.1719h17.609c7.4023 0 14.359 2.8828 19.59 8.1172l23.043 23.043 0.35156 0.011719c5.5117 0.14062 10.68 2.3516 14.555 6.2266l19.703 19.703c3.043 3.043 4.7188 7.0898 4.7266 11.391 0.003906 3.9453-3.0664 7.2969-6.9922 7.6367l-0.8125 0.070312v19.461l-6.3594 0.007812-9.75-19.496h-11.035l-6.207 33.762c-3.7344 20.309-13.43 38.742-28.059 53.316l-24.328 24.242-5.1602 55.219h32.305l-12.766-58.773 10.211-10.176 11.508 68.953h117.76v-213.57l24.934 15.195 17.57-28.34z"/>
</svg>