<?xml version="1.0" encoding="UTF-8"?>
<!-- The Best Svg Icon site in the world: iconSvg.co, Visit us! https://iconsvg.co -->
<svg fill="#000000" width="800px" height="800px" version="1.1" viewBox="144 144 512 512" xmlns="http://www.w3.org/2000/svg">
 <path d="m625.36 232.09c-7.5352-17.719-25-30.18-45.41-30.461-0.011719-0.011718-0.019531-0.015625-0.03125-0.019531-0.10547 0-0.21094 0.011719-0.32422 0.011719-0.11719 0-0.22656-0.015625-0.33594-0.015625-3.6992 0-7.2891 0.42188-10.758 1.1836-0.51562 0.10547-1.0117 0.23047-1.5156 0.35156-0.22656 0.054687-0.45312 0.10156-0.67578 0.16016-23.051 5.7773-36.527 24.551-37.668 26.199-0.74609-0.45312-1.4922-0.90625-2.2734-1.3242-19.48-10.375-43.605-5.2617-57.203 12.125l-58.898 75.309c-72.488 8.1875-136.47 52.023-170.09 117.34l-15.875 30.844h36.984c55.871 0 107.01-27.645 138.63-70.922h17.281c-10.246 15.891-22.879 30.285-37.551 42.484-33.512 27.871-74.441 42.605-118.36 42.605h-44.273l-43.727 84.949 113.36-28.34h61.094l-13.934 49.66h-6.4531l-8.457 14.172h69.516l-13.008-14.172h-26.879l13.934-49.66h0.41406c13.195 0 25.977-1.4141 38.238-4.0703l15.074 53.73h-6.9844l-8.457 14.172h69.516l-13.008-14.172h-26.344l-16.07-57.281c89.785-27.156 146.84-122.73 119.82-219l9.7422-16.879h27.629l-1.2461-3.1797c-3.6211-9.2656-11.039-16.48-20.297-19.891-0.089843-11.309-4.4102-22.348-12.258-30.742l4.707-6.3242c6.0352-7.4453 15.23-12.223 25.562-12.223 14.809 0 27.316 9.7227 31.508 23.125 2.0117 6.4375 8.207 10.73 15.133 9.6914 9.5938-1.4492 14.027-10.508 10.23-19.438zm-101.59 39.996c-4.4531 0-8.0664-3.6133-8.0664-8.0664s3.6133-8.0664 8.0664-8.0664c4.4531 0 8.0664 3.6133 8.0664 8.0664s-3.6133 8.0664-8.0664 8.0664z"/>
</svg>