<?xml version="1.0" encoding="UTF-8"?>
<!-- The Best Svg Icon site in the world: iconSvg.co, Visit us! https://iconsvg.co -->
<svg fill="#000000" width="800px" height="800px" version="1.1" viewBox="144 144 512 512" xmlns="http://www.w3.org/2000/svg">
 <g>
  <path d="m246.68 419.46c-10.848 0-19.672 8.8281-19.672 19.672 0 10.848 8.8281 19.672 19.672 19.672s19.668-8.8281 19.672-19.672c0.007812-10.844-8.8203-19.672-19.672-19.672zm0 29.277c-5.2969 0-9.5977-4.3008-9.5977-9.5977s4.3008-9.5977 9.5977-9.5977 9.5977 4.3008 9.5977 9.5938-4.3086 9.6016-9.5977 9.6016z"/>
  <path d="m309.02 403.66c0-10.848-8.8203-19.668-19.668-19.668-10.848 0-19.672 8.8203-19.672 19.668s8.8281 19.672 19.672 19.672c10.848 0 19.668-8.8242 19.668-19.672zm-19.668 9.5977c-5.2969 0-9.5977-4.3008-9.5977-9.5977 0-5.2891 4.3008-9.5938 9.5977-9.5938 5.2891 0 9.5938 4.3008 9.5938 9.5938 0 5.2891-4.3047 9.5977-9.5938 9.5977z"/>
  <path d="m309.4 479.1c10.848 0 19.672-8.8281 19.672-19.672 0-10.848-8.8281-19.672-19.672-19.672-10.848 0-19.672 8.8281-19.672 19.672s8.8203 19.672 19.672 19.672zm0-29.273c5.2969 0 9.5977 4.3008 9.5977 9.5977s-4.3086 9.5977-9.5977 9.5977c-5.2891 0-9.5977-4.3008-9.5977-9.5977 0-5.293 4.3008-9.5977 9.5977-9.5977z"/>
  <path d="m342.07 432.52c10.848 0 19.672-8.8281 19.672-19.672 0-10.848-8.8281-19.672-19.672-19.672-10.848 0-19.672 8.8281-19.672 19.672-0.003906 10.844 8.8242 19.672 19.672 19.672zm0-29.273c5.2969 0 9.5977 4.3008 9.5977 9.5977s-4.3008 9.5977-9.5977 9.5977-9.5977-4.3008-9.5977-9.5977c0-5.293 4.3008-9.5977 9.5977-9.5977z"/>
  <path d="m566.17 375.04c-6.0625-14.148-19.938-23.418-35.559-23.418-9.4102 0-18.438 3.4414-25.457 9.5781-7.0195-6.1406-16.043-9.5781-25.453-9.5781-15.617 0-29.492 9.2734-35.559 23.406-19.711 1.7852-35.199 18.391-35.199 38.555 0 5.8203 1.3359 11.586 3.8828 16.836-2.5508 5.2539-3.8828 11.023-3.8828 16.844 0 20.016 15.355 36.598 34.914 38.52 5.8906 14.547 19.879 24.078 35.848 24.078 7.2969 0 14.344-2.0859 20.414-5.875l-0.003906 87.461h-200.39v-87.457c6.0703 3.7852 13.113 5.875 20.414 5.875 15.961 0 29.941-9.5312 35.836-24.059 19.645-1.8398 35.074-18.43 35.074-38.535 0-5.8203-1.3359-11.586-3.8828-16.844 2.5508-5.25 3.8828-11.02 3.8828-16.836 0-20.168-15.492-36.777-35.352-38.547-6.0664-14.148-19.945-23.418-35.562-23.418-9.4102 0-18.434 3.4414-25.453 9.5781-7.0195-6.1406-16.047-9.5781-25.457-9.5781-15.617 0-29.492 9.2734-35.555 23.406-19.699 1.7773-35.195 18.391-35.195 38.555 0 5.8242 1.3359 11.594 3.8789 16.836-2.5469 5.25-3.8789 11.02-3.8789 16.844 0 20.016 15.355 36.598 34.914 38.52 5.8906 14.547 19.875 24.078 35.84 24.078 7.2969 0 14.344-2.0859 20.418-5.875v87.457h-86.137c-2.7852 0-5.0391 2.2539-5.0391 5.0391s2.2539 5.0391 5.0391 5.0391h392.97c2.7852 0 5.0391-2.2539 5.0391-5.0391s-2.2539-5.0391-5.0391-5.0391h-86.289v-87.457c6.0742 3.7891 13.121 5.875 20.418 5.875 15.957 0 29.938-9.5312 35.836-24.059 19.645-1.8398 35.074-18.426 35.074-38.539 0-5.8242-1.3359-11.594-3.8789-16.844 2.543-5.2461 3.8789-11.012 3.8789-16.836 0-20.168-15.492-36.777-35.352-38.547zm-296.94 124.75c-12.699 0-23.715-8.1602-27.398-20.312-0.64062-2.1172-2.5859-3.5664-4.7969-3.5781-15.707-0.085938-28.484-12.93-28.484-28.633 0-5.0039 1.3359-9.957 3.8633-14.316 0.90625-1.5625 0.90625-3.4883 0-5.0547-2.5273-4.3516-3.8633-9.3047-3.8633-14.309 0-15.793 12.848-28.641 28.668-28.641 2.1797 0 4.1172-1.4023 4.793-3.4766 3.8477-11.828 14.785-19.773 27.215-19.773 8.293 0 16.188 3.6211 21.648 9.9297 1.9102 2.2109 5.707 2.2109 7.6172 0 5.4609-6.3086 13.352-9.9297 21.645-9.9297 12.434 0 23.375 7.9492 27.227 19.785 0.67969 2.0742 2.793 3.4648 4.9688 3.4648 15.793 0 28.641 12.848 28.641 28.641 0 4.9961-1.3398 9.9492-3.8711 14.309-0.90625 1.5664-0.90625 3.4922 0 5.0547 2.5273 4.3672 3.8711 9.3203 3.8711 14.316 0 15.781-12.836 28.621-28.621 28.637-2.2148 0-4.1719 1.4492-4.8164 3.5781-3.6836 12.148-14.695 20.309-27.398 20.309-8.293 0-16.184-3.6172-21.645-9.9297-0.035157-0.039063-0.097657-0.054687-0.13281-0.10156-0.34375-0.37109-0.76562-0.64844-1.2109-0.90625-0.15625-0.089843-0.27734-0.22266-0.4375-0.29687-0.625-0.27734-1.3047-0.44141-2.0312-0.44141-0.72656 0-1.4062 0.16797-2.0312 0.44141-0.16797 0.070312-0.28906 0.20703-0.44141 0.29687-0.44141 0.25781-0.86328 0.52734-1.2031 0.90234-0.039062 0.039063-0.097656 0.054688-0.13281 0.10156-5.4531 6.3164-13.344 9.9336-21.641 9.9336zm318.35-66.84c2.5273 4.3633 3.8633 9.3125 3.8633 14.316 0 15.781-12.836 28.621-28.617 28.637-2.2109 0-4.1719 1.4492-4.8164 3.5781-3.6836 12.148-14.699 20.309-27.398 20.309-8.2969 0-16.188-3.6172-21.648-9.9297-0.035156-0.039063-0.097656-0.054687-0.13281-0.10156-0.34375-0.37109-0.76562-0.64844-1.2109-0.90625-0.15625-0.089843-0.27734-0.22266-0.4375-0.29687-0.625-0.27734-1.3047-0.44141-2.0312-0.44141-0.72656 0-1.4062 0.16797-2.0312 0.44141-0.16016 0.070312-0.28906 0.20703-0.44141 0.29687-0.44141 0.25781-0.86328 0.52734-1.2031 0.90234-0.039062 0.039063-0.097656 0.054688-0.13281 0.10156-5.4609 6.3125-13.348 9.9297-21.645 9.9297-12.707 0-23.719-8.1602-27.402-20.312-0.64062-2.1172-2.5859-3.5664-4.7969-3.5781-15.703-0.085937-28.48-12.922-28.48-28.633 0-4.9961 1.3398-9.9492 3.8711-14.316 0.90625-1.5625 0.90625-3.4883 0-5.0547-2.5273-4.3594-3.8711-9.3086-3.8711-14.309 0-15.793 12.848-28.641 28.668-28.641 2.1797 0 4.1094-1.4023 4.793-3.4766 3.8555-11.828 14.793-19.773 27.223-19.773 8.293 0 16.184 3.6211 21.645 9.9297 1.9102 2.2109 5.707 2.2109 7.6172 0 5.4609-6.3086 13.352-9.9297 21.648-9.9297 12.438 0 23.375 7.9492 27.223 19.785 0.67578 2.0703 2.7852 3.4648 4.9688 3.4648 15.793 0 28.641 12.848 28.641 28.641 0 5.0039-1.3359 9.957-3.8633 14.309-0.90234 1.5703-0.90234 3.4961 0 5.0586z"/>
  <path d="m457.16 419.46c-10.848 0-19.668 8.8281-19.668 19.672 0 10.848 8.8203 19.672 19.668 19.672s19.672-8.8281 19.672-19.672c0.003907-10.844-8.8242-19.672-19.672-19.672zm0 29.277c-5.2891 0-9.5938-4.3008-9.5938-9.5977s4.3008-9.5977 9.5938-9.5977c5.2969 0 9.5977 4.3008 9.5977 9.5977s-4.3086 9.5977-9.5977 9.5977z"/>
  <path d="m519.5 403.66c0-10.848-8.8281-19.668-19.672-19.668-10.848 0-19.672 8.8203-19.672 19.668s8.8281 19.672 19.672 19.672 19.672-8.8242 19.672-19.672zm-19.68 9.5977c-5.2969 0-9.5977-4.3008-9.5977-9.5977 0-5.2891 4.3008-9.5938 9.5977-9.5938s9.5977 4.3008 9.5977 9.5938c0.003906 5.2891-4.3047 9.5977-9.5977 9.5977z"/>
  <path d="m519.87 439.75c-10.848 0-19.668 8.8281-19.668 19.672 0 10.848 8.8203 19.676 19.668 19.676s19.672-8.8281 19.672-19.672c0-10.852-8.8242-19.676-19.672-19.676zm0 29.27c-5.2891 0-9.5938-4.3008-9.5938-9.5977s4.3008-9.5977 9.5938-9.5977c5.2969 0 9.5977 4.3008 9.5977 9.5977s-4.3047 9.5977-9.5977 9.5977z"/>
  <path d="m552.54 393.17c-10.848 0-19.668 8.8281-19.668 19.672 0 10.848 8.8203 19.672 19.668 19.672s19.672-8.8281 19.672-19.672c0.003907-10.848-8.8164-19.672-19.672-19.672zm0 29.27c-5.2891 0-9.5938-4.3008-9.5938-9.5977s4.3008-9.5977 9.5938-9.5977c5.2969 0 9.5977 4.3008 9.5977 9.5977s-4.3008 9.5977-9.5977 9.5977z"/>
  <path d="m366.74 269.71c0 18.34 14.922 33.262 33.262 33.262s33.262-14.922 33.262-33.262-14.926-33.262-33.262-33.262c-18.34 0-33.262 14.922-33.262 33.262zm33.262-23.188c12.781 0 23.184 10.398 23.184 23.184 0 12.789-10.402 23.184-23.184 23.184s-23.184-10.398-23.184-23.184c-0.003906-12.789 10.402-23.184 23.184-23.184z"/>
  <path d="m405.04 220.89v-17.379c0-2.7852-2.2539-5.0391-5.0391-5.0391s-5.0391 2.2539-5.0391 5.0391v17.375c0 2.7852 2.2539 5.0391 5.0391 5.0391 2.7891 0 5.0391-2.25 5.0391-5.0352z"/>
  <path d="m371.26 209.87c-1.3906-2.4141-4.4844-3.2383-6.8828-1.8438-2.4141 1.3906-3.2383 4.4727-1.8438 6.8828l8.6953 15.047c0.9375 1.6172 2.625 2.5195 4.3672 2.5195 0.85547 0 1.7227-0.21484 2.5156-0.67578 2.4141-1.3906 3.2383-4.4727 1.8438-6.8828z"/>
  <path d="m360.24 240.94-15.047-8.6914c-2.4102-1.3906-5.4922-0.5625-6.8828 1.8438-1.3906 2.4102-0.5625 5.4922 1.8438 6.8828l15.047 8.6914c0.78906 0.45703 1.6562 0.67578 2.5156 0.67578 1.7422 0 3.4375-0.90625 4.3672-2.5195 1.3945-2.4141 0.57031-5.4922-1.8438-6.8828z"/>
  <path d="m328.76 269.71c0 2.7852 2.2539 5.0391 5.0391 5.0391h17.375c2.7852 0 5.0391-2.2539 5.0391-5.0391s-2.2539-5.0391-5.0391-5.0391h-17.379c-2.7812 0-5.0352 2.25-5.0352 5.0391z"/>
  <path d="m362.09 291.6c-1.3945-2.4141-4.4844-3.2461-6.8828-1.8438l-15.047 8.6953c-2.4141 1.3906-3.2383 4.4727-1.8438 6.8828 0.9375 1.6172 2.625 2.5195 4.3672 2.5195 0.85547 0 1.7227-0.21484 2.5156-0.67578l15.047-8.6953c2.4102-1.3906 3.2344-4.4688 1.8438-6.8828z"/>
  <path d="m364.38 331.41c0.78906 0.45703 1.6562 0.67578 2.5156 0.67578 1.7422 0 3.4375-0.90234 4.3672-2.5195l8.6953-15.047c1.3906-2.4141 0.5625-5.4922-1.8438-6.8828-2.4102-1.3906-5.4922-0.57031-6.8828 1.8438l-8.6953 15.047c-1.3945 2.4062-0.57031 5.4844 1.8438 6.8828z"/>
  <path d="m394.96 318.53v17.375c0 2.7852 2.2539 5.0391 5.0391 5.0391s5.0391-2.2539 5.0391-5.0391l-0.003906-17.375c0-2.7852-2.2539-5.0391-5.0391-5.0391-2.7852 0.003906-5.0352 2.2539-5.0352 5.0391z"/>
  <path d="m421.89 307.62c-2.4141 1.3906-3.2383 4.4727-1.8438 6.8828l8.6953 15.047c0.9375 1.6172 2.625 2.5195 4.3672 2.5195 0.85547 0 1.7227-0.21484 2.5156-0.67578 2.4141-1.3906 3.2383-4.4727 1.8438-6.8828l-8.6953-15.047c-1.3984-2.4141-4.4922-3.2344-6.8828-1.8438z"/>
  <path d="m439.76 298.48 15.047 8.6953c0.78906 0.45703 1.6562 0.67578 2.5156 0.67578 1.7422 0 3.4375-0.90234 4.3672-2.5195 1.3906-2.4141 0.5625-5.4922-1.8438-6.8828l-15.047-8.6953c-2.4102-1.3945-5.4922-0.57031-6.8828 1.8438-1.3945 2.4102-0.56641 5.4883 1.8438 6.8828z"/>
  <path d="m471.24 269.71c0-2.7852-2.2539-5.0391-5.0391-5.0391h-17.383c-2.7852 0-5.0391 2.2539-5.0391 5.0391s2.2539 5.0391 5.0391 5.0391h17.375c2.7891-0.003906 5.0469-2.2578 5.0469-5.0391z"/>
  <path d="m454.81 232.25-15.047 8.6914c-2.4141 1.3906-3.2383 4.4727-1.8438 6.8828 0.9375 1.6172 2.625 2.5195 4.3672 2.5195 0.85547 0 1.7227-0.21484 2.5156-0.67578l15.047-8.6914c2.4141-1.3906 3.2383-4.4727 1.8438-6.8828-1.3984-2.4141-4.4922-3.2344-6.8828-1.8438z"/>
  <path d="m435.62 208.02c-2.4102-1.3906-5.4922-0.57031-6.8828 1.8438l-8.6953 15.047c-1.3906 2.4141-0.5625 5.4922 1.8438 6.8828 0.78906 0.45703 1.6562 0.67578 2.5156 0.67578 1.7422 0 3.4375-0.90234 4.3672-2.5195l8.6953-15.047c1.3945-2.4141 0.57031-5.4922-1.8438-6.8828z"/>
 </g>
</svg>