<?xml version="1.0" encoding="UTF-8"?>
<!-- The Best Svg Icon site in the world: iconSvg.co, Visit us! https://iconsvg.co -->
<svg fill="#000000" width="800px" height="800px" version="1.1" viewBox="144 144 512 512" xmlns="http://www.w3.org/2000/svg">
 <g>
  <path d="m596.48 580.36h-77.082c7.0547-2.5195 14.105-6.5508 20.152-12.09 20.152-19.648 18.137-53.906 18.137-55.418 0-2.5195-2.0156-4.5352-4.5352-4.5352-1.5117 0-35.266-3.0234-55.922 16.625-3.5273 3.0234-6.0469 7.0547-8.0625 10.578v-25.695c8.0625 0 24.688-1.5117 35.266-12.594 15.113-14.609 13.602-39.297 13.602-40.305 0-2.5195-2.0156-4.5352-4.5352-4.5352-1.0078 0-25.695-2.5195-40.809 12.09-1.5117 1.5117-2.5195 2.5195-3.5273 4.0312v-13.098c4.0312-4.0312 14.105-15.113 13.602-28.719 0-16.625-15.113-29.223-15.617-29.727-2.0156-1.5117-4.5352-1.5117-6.5508 0-0.50391 0.50391-15.617 13.602-15.113 30.23 0 13.098 9.5742 23.68 13.602 27.711v12.594c-0.50391-1.0078-1.5117-1.5117-2.0156-2.5195-14.609-15.113-39.297-13.602-40.305-13.602-2.5195 0-4.5352 2.0156-4.5352 4.5352 0 1.0078-2.5195 25.695 12.09 40.809 10.578 11.082 26.703 13.098 35.266 13.602v25.191c-2.0156-4.0312-5.0391-7.5586-8.0625-10.578-20.152-19.648-54.41-16.625-55.922-16.625-2.5195 0-4.5352 2.0156-4.5352 4.5352 0 1.5117-2.0156 35.266 18.137 55.418 6.0469 5.543 13.098 9.5742 20.152 12.09h-90.688c7.0547-2.5195 14.105-6.5508 20.152-12.09 20.152-19.648 18.137-53.906 18.137-55.418 0-2.5195-2.0156-4.5352-4.5352-4.5352-1.5117 0-35.266-3.0234-55.922 16.625-3.5273 3.0234-6.0469 7.0547-8.0625 10.578v-25.695c8.0625 0 24.688-1.5117 35.266-12.594 15.113-14.609 13.602-39.297 13.602-40.305 0-2.5195-2.0156-4.5352-4.5352-4.5352-1.0078 0-25.695-2.5195-40.809 12.09-1.5117 1.5117-2.5195 2.5195-3.5273 4.0312v-13.098c4.0312-4.0312 14.105-15.113 13.602-28.719 0-16.625-15.113-29.223-15.617-29.727-2.0156-1.5117-4.5352-1.5117-6.5508 0-0.50391 0.50391-15.617 13.602-15.113 30.23 0 13.098 9.5742 23.68 13.602 27.711v12.594c-0.50391-1.0078-1.5117-1.5117-2.0156-2.5195-14.609-15.113-39.297-13.602-40.305-13.602-2.5195 0-4.5352 2.0156-4.5352 4.5352 0 1.0078-2.5195 25.695 12.09 40.809 10.578 11.082 26.703 13.098 35.266 13.602v25.191c-2.0156-4.0312-5.0391-7.5586-8.0625-10.578-20.152-19.648-54.41-16.625-55.922-16.625-2.5195 0-4.5352 2.0156-4.5352 4.5352 0 1.5117-2.0156 35.266 18.137 55.418 6.0469 5.543 13.098 9.5742 20.152 12.09h-85.117c-3.0234 0-5.0391 2.0156-5.0391 5.0391 0 3.0234 2.0156 5.0391 5.0391 5.0391l392.97-0.003906c3.0234 0 5.0391-2.0156 5.0391-5.0391 0-3.0195-2.5195-5.0352-5.0391-5.0352zm-92.199-47.863c13.098-12.594 33.754-14.105 43.328-14.105 0 9.0703-2.0156 30.23-15.113 42.824s-34.258 14.105-43.328 14.105c0-9.0703 2.0156-30.23 15.113-42.824zm-4.5312-59.953c8.0625-8.0625 21.16-9.5742 28.215-9.5742-0.50391 7.0547-2.0156 19.648-10.578 27.711-8.0625 8.0625-21.16 9.5742-28.215 9.5742 0.5-7.0547 2.0117-20.152 10.578-27.711zm-24.688-44.84c0-8.0625 5.0391-15.113 8.5664-19.145 3.5273 4.0312 9.0703 11.082 9.0703 18.641 0 8.0625-5.0391 15.113-8.5664 19.145-3.5273-4.0273-8.5664-11.082-9.0703-18.641zm-23.68 62.473c-8.0625-8.0625-9.5742-21.16-9.5742-28.215 7.0547 0.50391 19.648 2.0156 27.711 10.578 7.5586 7.5586 9.0703 19.648 9.5742 26.703v1.5156c-7.0547-0.50391-20.152-2.0156-27.711-10.582zm-30.73 28.215c9.0703 0 30.23 1.5117 43.328 14.105s15.113 33.754 15.113 42.824c-9.0703 0-30.23-1.5117-43.328-14.105-13.098-12.598-15.113-33.758-15.113-42.824zm-77.086 14.105c13.098-12.594 33.754-14.105 43.328-14.105 0 9.0703-2.0156 30.23-15.113 42.824s-34.258 14.105-43.328 14.105c0-9.0703 2.0156-30.23 15.113-42.824zm-5.0352-59.953c8.0625-8.0625 21.16-9.5742 28.215-9.5742-0.50391 7.0547-2.0156 19.648-10.578 27.711-8.0625 8.0625-21.16 9.5742-28.215 9.5742 0.5-7.0547 2.5156-20.152 10.578-27.711zm-24.184-44.84c0-8.0625 5.0391-15.113 8.5664-19.145 3.5273 4.0312 8.5664 11.082 9.0703 19.145 0 8.0625-5.0391 15.113-8.5664 19.145-3.5273-4.5312-9.0703-11.586-9.0703-19.145zm-24.184 62.473c-8.0625-8.0625-9.5742-21.16-9.5742-28.215 7.0547 0.50391 19.648 2.0156 27.711 10.578 7.5586 7.5586 9.0703 19.648 9.5742 26.703v1.5156c-6.5508-0.50391-19.648-2.0156-27.711-10.582zm-30.73 28.215c9.0703 0 30.23 1.5117 43.328 14.105s15.113 33.754 15.113 42.824c-9.0703 0-30.23-1.5117-43.328-14.105-12.598-12.598-14.609-33.758-15.113-42.824z"/>
  <path d="m400.5 325.43c20.656 0 37.785-16.625 37.785-37.785 0-21.16-16.625-37.785-37.785-37.785s-37.785 16.625-37.785 37.785c-0.003906 21.16 17.129 37.785 37.785 37.785zm0-64.992c15.113 0 27.711 12.09 27.711 27.711 0 15.617-12.09 27.711-27.711 27.711-15.617 0-27.711-12.09-27.711-27.711 0-15.617 12.594-27.711 27.711-27.711z"/>
  <path d="m400.5 235.25c3.0234 0 5.0391-2.0156 5.0391-5.0391v-20.152c0-3.0234-2.0156-5.0391-5.0391-5.0391-3.0234 0-5.0391 2.0156-5.0391 5.0391v20.152c0 2.5195 2.5195 5.0391 5.0391 5.0391z"/>
  <path d="m426.7 241.8c1.0078 0.50391 1.5117 0.50391 2.5195 0.50391 1.5117 0 3.5273-1.0078 4.5352-2.5195l10.078-17.633c1.5117-2.5195 0.50391-5.543-2.0156-7.0547-2.5195-1.5117-5.543-0.50391-7.0547 2.0156l-10.078 17.633c-1.0078 3.0273-0.50391 6.0469 2.0156 7.0547z"/>
  <path d="m450.38 263.46c1.0078 0 1.5117 0 2.5195-0.50391l17.129-10.078c2.5195-1.5117 3.0234-4.5352 2.0156-7.0547-1.5117-2.5195-4.5352-3.0234-7.0547-2.0156l-17.129 10.078c-2.5195 1.5117-3.0234 4.5352-2.0156 7.0547 1.0078 1.5117 2.5195 2.5195 4.5352 2.5195z"/>
  <path d="m453.4 286.64c0 2.5195 2.5195 5.0391 5.0391 5.0391l20.152-0.50391c3.0234 0 5.0391-2.5195 5.0391-5.0391s-2.5195-5.0391-5.0391-5.0391l-20.152 0.50391c-3.0234 0-5.0391 2.5195-5.0391 5.0391z"/>
  <path d="m448.87 319.89 17.633 9.5742c1.0078 0.50391 1.5117 0.50391 2.5195 0.50391 2.0156 0 3.5273-1.0078 4.5352-2.5195 1.5117-2.5195 0.50391-5.543-2.0156-7.0547l-17.633-9.5742c-2.5195-1.5117-5.543-0.50391-7.0547 2.0156-1.5117 2.5195-0.50391 5.543 2.0156 7.0547z"/>
  <path d="m435.27 334c-1.5117-2.5195-4.5352-3.0234-7.0547-1.5117-2.5195 1.5117-3.0234 4.5352-1.5117 7.0547l10.578 17.129c1.0078 1.5117 2.5195 2.5195 4.5352 2.5195 1.0078 0 2.0156 0 2.5195-0.50391 2.5195-1.5117 3.0234-4.5352 1.5117-7.0547z"/>
  <path d="m402.52 340.55c-3.0234 0-5.0391 2.5195-5.0391 5.0391l0.50391 20.152c0 2.5195 2.5195 5.0391 5.0391 5.0391 3.0234 0 5.0391-2.5195 5.0391-5.0391l-0.50391-20.152c0-3.0273-2.5195-5.543-5.0391-5.0391z"/>
  <path d="m369.27 336.52-9.5742 17.633c-1.5117 2.5195-0.50391 5.543 2.0156 7.0547 0.50391 0.50391 1.5117 0.50391 2.5195 0.50391 2.0156 0 3.5273-1.0078 4.5352-2.5195l9.5742-17.633c1.5117-2.5195 0.50391-5.543-2.0156-7.0547-2.5195-1.5117-5.543-0.50391-7.0547 2.0156z"/>
  <path d="m349.11 314.35-17.129 10.578c-2.5195 1.5117-3.0234 4.5352-1.5117 7.0547 1.0078 1.5117 2.5195 2.5195 4.0312 2.5195 1.0078 0 2.0156-0.50391 2.5195-1.0078l17.129-10.578c2.5195-1.5117 3.0234-4.5352 1.5117-7.0547-1.5117-2.5195-4.0312-3.0234-6.5508-1.5117z"/>
  <path d="m322.91 296.72s0.50391 0 0 0l20.152-1.0078c3.0234 0 5.0391-2.5195 4.5352-5.0391 0-3.0234-2.5195-5.0391-5.0391-4.5352l-20.152 1.0078c-3.0234 0-5.0391 2.5195-4.5352 5.0391 0.50781 2.5195 2.5234 4.5352 5.0391 4.5352z"/>
  <path d="m328.96 257.42 17.633 9.0703c0.50391 0.50391 1.5117 0.50391 2.5195 0.50391 2.0156 0 3.5273-1.0078 4.5352-2.5195 1.0078-2.5195 0.50391-5.543-2.0156-6.5508l-17.633-9.0703c-2.5195-1.0078-5.543-0.50391-6.5508 2.0156-2.0156 2.0156-1.0078 5.0391 1.5117 6.5508z"/>
  <path d="m364.73 242.3c1.0078 1.5117 2.5195 2.0156 4.0312 2.0156 1.0078 0 2.0156-0.50391 3.0234-1.0078 2.5195-1.5117 3.0234-4.5352 1.5117-7.0547l-11.082-16.625c-1.5117-2.5195-4.5352-3.0234-7.0547-1.5117-2.5195 1.5117-3.0234 4.5352-1.5117 7.0547z"/>
 </g>
</svg>