<?xml version="1.0" encoding="UTF-8"?>
<!-- The Best Svg Icon site in the world: iconSvg.co, Visit us! https://iconsvg.co -->
<svg fill="#000000" width="800px" height="800px" version="1.1" viewBox="144 144 512 512" xmlns="http://www.w3.org/2000/svg">
 <path d="m194.04 623.17c-5.5781 0-10.137-1.4961-13.547-5.0703-8.75-9.168-3.2188-24.645 5.5664-45.508 6.207-14.762 14.777-32.867 25.453-53.809 3.957-7.75 118.46-199.2 126.3-211.17 0.050782-0.078125 0.10156-0.15625 0.15234-0.23047 4.0742-5.8125 7.7773-11.035 11.34-15.949 8.7734-12.133 19.719-18.797 32.527-19.805 31.801-2.5039 65.887 31.691 88.426 54.332 2.4141 2.4258 4.6875 4.7109 6.7969 6.7656 0.15234 0.15625 0.29297 0.30859 0.43359 0.46094 2.0039 2.2617 4.0742 4.5703 6.1797 6.9219 21.98 24.516 46.906 52.312 43.461 81.312-1.7266 14.48-10.5 27.273-26.078 38.012-26.066 17.965-53.117 35.5-80.395 52.109l-37.328 22.105c-50.879 29.289-105.17 57.102-161.45 82.715-0.20703 0.089844-0.41016 0.17969-0.625 0.25781-10.68 3.918-19.848 6.5508-27.23 6.5508zm-0.125-17.867c2.2969 0.027343 8.0078-0.63672 20.879-5.3477 55.656-25.348 109.33-52.852 159.54-81.746l37.137-21.988c26.895-16.383 53.664-33.738 79.449-51.512 11.328-7.8125 17.367-16.113 18.477-25.398 2.4922-20.965-20.52-46.645-39.012-67.266-2.0703-2.2969-4.1016-4.5703-6.0547-6.7812-2.082-2.043-4.3164-4.2891-6.7031-6.6758-19.004-19.066-50.816-51-74.367-49.125-7.4336 0.58984-13.793 4.6602-19.438 12.465-3.4844 4.8125-7.1133 9.9219-11.098 15.602-9.8477 15.121-122.36 203.86-125.28 209.41-10.473 20.531-18.852 38.23-24.891 52.594-5.582 13.254-8.4805 21.91-8.6328 25.781zm108.63-84.543c-2.668 0-5.3008-1.1875-7.0625-3.457-5.1719-6.6562-15.746-17.547-27.688-26.844-3.8945-3.0391-4.5977-8.6445-1.5586-12.539 3.0273-3.8945 8.6445-4.5938 12.543-1.5547 11.582 9.0117 23.676 20.785 30.828 29.98 3.0273 3.8945 2.3242 9.5117-1.5703 12.539-1.6367 1.2617-3.5664 1.875-5.4805 1.875zm89.051-23.391c-2.7969 0-5.543-1.3047-7.293-3.7539-10.586-14.852-25.398-30.176-37.75-39.023-4.0117-2.8711-4.9297-8.4648-2.0547-12.473 2.8711-4.0117 8.4648-4.9297 12.477-2.0586 14.023 10.062 30.074 26.609 41.887 43.172 2.8633 4.0234 1.9297 9.6016-2.0938 12.465-1.5703 1.1211-3.3828 1.6602-5.1836 1.6602zm2.9883-99.434c-2.668 0-5.3008-1.1875-7.0625-3.4609-10.422-13.418-23.141-24.691-37.812-33.504-4.2305-2.543-5.5938-8.0312-3.0547-12.27 2.543-4.2266 8.0352-5.6055 12.273-3.0547 16.562 9.9609 30.93 22.691 42.719 37.863 3.0273 3.8945 2.3242 9.5117-1.5703 12.539-1.6367 1.2617-3.5625 1.875-5.4805 1.875zm173.07-56.297c-1.1992 0-2.4141-0.24219-3.5742-0.75391-18.211-7.9688-34.75-5.4375-57.637-1.9414l-5.0547 0.76563c-4.8789 0.74219-9.4375-2.6289-10.168-7.5078-0.72656-4.875 2.6328-9.4336 7.5117-10.164l5.0156-0.76562c23.91-3.6523 44.559-6.8047 67.508 3.2305 4.5234 1.9805 6.5898 7.2539 4.6094 11.773-1.4648 3.3594-4.75 5.3633-8.1953 5.3633zm45.898-18.539c-0.75391 0-1.5195-0.10547-2.2734-0.29687-16-4.1992-24.559-11.926-32.117-18.742-8.0977-7.3047-14.496-13.09-30.074-14.711-1.625-0.16406-3.1055-0.76562-4.332-1.6602-0.40625 0.027344-0.81641 0.027344-1.2227 0-19.145 7.1758-37.215 17.559-55.16 31.488-3.8945 3.0273-9.5156 2.3242-12.539-1.582-3.0273-3.8945-2.3125-9.5117 1.582-12.539 21.035-16.309 42.691-28.258 65.836-36.125 27.316-17.16 26.051-37.348 24.723-58.672-0.16406-2.582-0.32031-5.1328-0.43359-7.6367-0.21875-4.9297 3.6133-9.1055 8.543-9.3086 4.9414-0.21875 9.1055 3.6133 9.3086 8.543 0.10547 2.3867 0.25781 4.8125 0.41016 7.2773 0.94531 15.043 2.1211 33.723-8.6836 51.332 12.105-2.0039 24.648-3.0508 37.75-3.207 4.9297 0 8.9766 3.9102 9.043 8.8359 0.050782 4.9453-3.8945 8.9922-8.8398 9.043-13.957 0.15234-27.109 1.3672-39.664 3.7031 6.4375 3.5625 11.238 7.8906 15.719 11.949 6.9102 6.2461 12.875 11.621 24.66 14.711 4.7773 1.25 7.6406 6.1406 6.3867 10.918-1.0469 4.0078-4.6719 6.6797-8.6445 6.6797zm-143.91-21.848c-1.9141 0-3.8438-0.61328-5.4805-1.8789-3.8945-3.0273-4.6094-8.6445-1.582-12.539 4.1641-5.3516 8.1992-10.66 12.07-15.984l-0.11719-1.293c-2.2227-25.715-4.3164-50.004-19.859-70.445-2.9883-3.9336-2.2188-9.5391 1.7109-12.527 3.9336-2.9883 9.543-2.2227 12.531 1.7109 13.867 18.246 18.773 38.422 21.34 58.711 10.457-18.297 18.031-38.254 20.457-62.859 0.48437-4.918 4.8672-8.5156 9.7695-8.0195 4.918 0.48438 8.5078 4.8672 8.0195 9.7695-4.7344 47.895-26.254 79.012-51.797 111.91-1.7617 2.2734-4.4062 3.4609-7.0625 3.4609z"/>
</svg>