<?xml version="1.0" encoding="UTF-8"?>
<!-- The Best Svg Icon site in the world: iconSvg.co, Visit us! https://iconsvg.co -->
<svg fill="#000000" width="800px" height="800px" version="1.1" viewBox="144 144 512 512" xmlns="http://www.w3.org/2000/svg">
 <g>
  <path d="m596.48 476.25h-1.7695v-272.74c0-2.7812-2.2539-5.0391-5.0391-5.0391l-252.42 0.003906c-2.7812 0-5.0391 2.2539-5.0391 5.0391v69.492h-70.219c-11.219 0-21.395 7.0586-25.328 17.562l-13.926 37.215c-10.82 28.918-16.309 59.246-16.309 90.129v58.348l-2.9219-0.007813c-2.7812 0-5.0391 2.2539-5.0391 5.0391l0.003906 55.602c0 2.7812 2.2539 5.0391 5.0391 5.0391h20.77c-0.80078 3.4961-1.2617 7.1211-1.2617 10.859-0.003907 26.867 21.855 48.73 48.73 48.73 26.871 0 48.734-21.863 48.734-48.734 0-3.7383-0.46094-7.3594-1.2617-10.859h161.73c-0.80078 3.4961-1.2617 7.1211-1.2617 10.859 0 26.871 21.859 48.734 48.734 48.734 26.871 0 48.734-21.863 48.734-48.734 0-3.7383-0.46094-7.3594-1.2617-10.859h20.578c2.7812 0 5.0391-2.2539 5.0391-5.0391v-55.598c0-2.7852-2.2578-5.0391-5.0391-5.0391zm-254.19-267.7h242.35v267.7h-242.35zm-110.11 122.76 5.2812-14.117h58.453v57.43l-75.586 0.003906c2.6211-14.715 6.5664-29.191 11.852-43.316zm-15.672 86.594c0-11.16 0.74609-22.242 2.2305-33.203h82.215c2.7812 0 5.0391-2.2539 5.0391-5.0391v-67.504c0-2.7812-2.2539-5.0391-5.0391-5.0391h-59.723l4.875-13.023c2.4688-6.5898 8.8555-11.02 15.891-11.02h70.219v193.18h-115.71zm55.246 173.54c-21.316 0-38.66-17.34-38.66-38.656 0-21.316 17.344-38.66 38.66-38.66s38.656 17.344 38.656 38.66c0 21.316-17.34 38.656-38.656 38.656zm256.68 0c-21.316 0-38.66-17.34-38.66-38.656 0-21.316 17.344-38.66 38.66-38.66s38.656 17.344 38.656 38.66c0 21.316-17.34 38.656-38.656 38.656zm63.012-59.59h-19.074c-7.8516-16.41-24.57-27.801-43.941-27.801-19.371 0-36.09 11.391-43.941 27.801h-168.79c-7.8516-16.41-24.57-27.801-43.941-27.801s-36.09 11.391-43.941 27.801h-19.262v-45.523h382.89z"/>
  <path d="m378.57 405.76c-3.6875 8.9297-3.2656 15.754 1.2617 20.285 4.5234 4.5195 11.344 4.9531 20.289 1.2578 2.082-0.85938 4.3945-0.73438 6.3398 0.34766 12.168 6.793 25.883 10.074 40.027 10.074 27.027 0 55.617-11.98 77.969-34.336 33.949-33.949 43.98-82.379 24.391-117.77-1.1523-2.082-1.293-4.5664-0.37891-6.8086 3.5859-8.8125 3.125-15.559-1.3594-20.043-4.4883-4.4883-11.23-4.9492-20.047-1.3633-2.2188 0.90625-4.8945 0.66016-7.332-0.66797-35.32-19.18-83.531-9.0352-117.25 24.68-34.055 34.051-44.031 82.574-24.262 118 1.082 1.9453 1.207 4.2539 0.34766 6.3438zm31.035-117.22c30.582-30.574 73.887-40.016 105.32-22.945 5.1055 2.7734 10.918 3.1953 15.941 1.1445 2.6406-1.0781 7.3438-2.6289 9.125-0.84375 1.7695 1.7656 0.22656 6.4688-0.85156 9.1172-2.0664 5.082-1.7383 10.727 0.89453 15.488 17.426 31.484 8.0938 74.98-22.699 105.77-30.879 30.879-74.457 40.172-105.97 22.586-2.6211-1.457-5.5117-2.1953-8.418-2.1953-2.2539 0-4.5195 0.44141-6.6797 1.3359-2.707 1.1172-7.5195 2.7188-9.3125 0.92969-1.8008-1.8047-0.19531-6.6094 0.92578-9.3203 2.0469-4.957 1.7305-10.457-0.86328-15.102-17.582-31.508-8.293-75.082 22.59-105.96z"/>
  <path d="m493.57 372.57c1.3672 0 2.7227-0.55078 3.7188-1.6328 10.418-11.371 17.121-25.34 18.875-39.344 0.34375-2.7617-1.6133-5.2773-4.375-5.625-2.7812-0.35547-5.2812 1.6094-5.625 4.3711-1.5 11.949-7.2891 23.949-16.309 33.789-1.8789 2.0508-1.7422 5.2383 0.30859 7.1211 0.97266 0.88281 2.1914 1.3203 3.4062 1.3203z"/>
 </g>
</svg>