<?xml version="1.0" encoding="UTF-8"?>
<!-- The Best Svg Icon site in the world: iconSvg.co, Visit us! https://iconsvg.co -->
<svg fill="#000000" width="800px" height="800px" version="1.1" viewBox="144 144 512 512" xmlns="http://www.w3.org/2000/svg">
 <path d="m524.23 348.93 21.242 28.25h-42.477zm-28.156-37.453v56.496l21.242-28.25zm49.398-9.2031h-42.477l21.234 28.25zm73.828 57.238v17.668h-10.57v0.085938h-45.273v-86.062h-78.453v86.062h-55.711v-17.754h10.469v-122.53l88.312-58.02 80.66 57.879v122.67zm-83.805-128.51h-22.523v28.156h22.523zm16.895 136.98v-56.5l-21.234 28.25zm-146.87-23.742-1.3594 1.918c-1.5234 2.1445-4.2031 3.1445-6.7578 2.5195l-22.105-5.4531-14.297 40.027c-2.0664 5.7891-5.082 11.195-8.9219 15.996l-8.1367 10.168-5.2148 39.613h-15.688v-39.613h-41.805l-24.383-3.4805-33.094 34.84v34.84l5.2227 10.453h-12.191l-5.2227-10.453-3.4883-41.805 6.9688-17.418-6.9688-31.355v-27.871c-3.8477 0-6.9688 3.1172-6.9688 6.9688v69.676h-17.422v-65.758c0-11.785 9.5508-21.336 21.336-21.336h107.56l62.711-55.742v10.449l29.859 34.969c1.9102 2.2266 2.0547 5.457 0.36328 7.8477zm53.707 229.61-1.5352 11.672h161.64v17.598h-163.96l-1.5352 11.672h165.49v17.598l-435.64 0.003907v-17.598h116.75l-0.97266-11.672-115.78-0.003907v-17.598h114.31l-0.97266-11.672h-113.34v-17.598h82.457v-72.414c0-14.574 11.812-26.391 26.391-26.391h133.02l77.551-68.938v12.93l36.93 43.246c2.3516 2.7539 2.5352 6.75 0.44141 9.707l-1.6836 2.3711c-1.8789 2.6562-5.1953 3.8906-8.3516 3.1133l-27.34-6.7422-17.68 49.504c-2.5586 7.1602-6.2891 13.844-11.039 19.785l-10.062 12.574-2.7969 21.246 157.79 0.007813v17.598zm-102.6-43.156-24.277 25.555h106.14v-21.246h-51.703zm-68.938 25.551h12.184l5.0547-12.629-8.6133-38.777v-34.465c-4.7617 0-8.6133 3.8594-8.6133 8.6133zm150.8 46.875h-122.79v11.672h122.79zm0-29.27h-122.79v11.672h122.79z"/>
</svg>