<?xml version="1.0" encoding="UTF-8"?>
<!-- The Best Svg Icon site in the world: iconSvg.co, Visit us! https://iconsvg.co -->
<svg fill="#000000" width="800px" height="800px" version="1.1" viewBox="144 144 512 512" xmlns="http://www.w3.org/2000/svg">
 <path d="m572.72 468.16-9.7695 9.7695-49.594-21.258-70.844-141.7h0.44141c38.883 0 70.406-31.523 70.406-70.406v-71.289l-147.07 92.121c-14.383 9.0898-22.973 24.672-22.973 41.695v36.219h-14.172v-36.219c0-15.516 5.5625-30.078 15.355-41.414l-142.88-35.727v396.75h155.34c47.02 0 93.477-10.203 136.17-29.91l88.805-40.988c10.016-4.625 16.43-14.652 16.43-25.68l0.003906-51.344c0-8.3047-6.7305-15.027-15.027-15.027-3.9883 0-7.8125 1.5859-10.629 4.4023zm-120.44-24.883h-22.152l-22.152-16.207 44.305-6.4844z"/>
</svg>