<?xml version="1.0" encoding="UTF-8"?>
<!-- The Best Svg Icon site in the world: iconSvg.co, Visit us! https://iconsvg.co -->
<svg fill="#000000" width="800px" height="800px" version="1.1" viewBox="144 144 512 512" xmlns="http://www.w3.org/2000/svg">
 <g>
  <path d="m402.34 267.76h-0.1875c-16.547 0.10156-29.918 13.641-29.82 30.184 0.12891 21.141 25.492 49.094 26.574 50.273 0.95312 1.043 2.3008 1.6367 3.7148 1.6367h0.050781c1.4336-0.015625 2.7891-0.63672 3.7344-1.7109 1.0664-1.2109 26.055-29.898 25.934-50.559-0.050782-8.0156-3.2188-15.531-8.9141-21.16-5.6641-5.5938-13.145-8.6641-21.086-8.6641zm0.20703 69.25c-7.8125-9.5391-20.062-27.043-20.137-39.121-0.070312-10.988 8.8164-19.984 19.805-20.051h0.12109c5.2773 0 10.25 2.0391 14.004 5.75 3.7891 3.7383 5.8906 8.7305 5.9219 14.051 0.066407 11.801-12.012 29.617-19.715 39.371z"/>
  <path d="m401.99 450.14c-1.4336 0.015625-2.7891 0.63672-3.7344 1.7109-1.0664 1.2109-26.055 29.898-25.93 50.562 0.097656 16.48 13.539 29.82 30.004 29.82h0.18359c16.547-0.10156 29.918-13.641 29.82-30.184-0.12891-21.141-25.496-49.094-26.578-50.273-0.96875-1.0547-2.5312-1.7695-3.7656-1.6367zm0.46094 72.016h-0.12109c-10.934 0-19.863-8.8594-19.926-19.805v-0.003906c-0.074219-11.797 12.008-29.617 19.715-39.367 7.8125 9.5273 20.062 27.02 20.137 39.125 0.066407 10.992-8.8164 19.984-19.805 20.051z"/>
  <path d="m347 400.89c-0.015625-1.4336-0.64062-2.7891-1.7109-3.7344-1.2109-1.0586-29.758-25.93-50.406-25.93h-0.15234c-8.0156 0.050782-15.531 3.2148-21.164 8.918-5.6328 5.6992-8.7031 13.254-8.6562 21.266 0.050782 8.0156 3.2109 15.531 8.9141 21.16 5.6523 5.5898 13.137 8.6602 21.078 8.6602h0.1875c21.141-0.12891 49.098-25.492 50.273-26.57 1.0586-0.96875 1.6523-2.3398 1.6367-3.7695zm-51.969 20.262h-0.12109c-5.2773 0-10.242-2.0391-14.004-5.75-3.7852-3.7422-5.8828-8.7344-5.918-14.055-0.035157-5.3242 2.0078-10.34 5.7461-14.125s8.7344-5.8906 14.055-5.9219h0.10938c11.793 0 29.535 12.035 39.258 19.715-9.543 7.8125-27.043 20.062-39.125 20.137z"/>
  <path d="m504.9 371.22c-21.141 0.12891-49.098 25.492-50.273 26.574-1.0586 0.96484-1.6523 2.3359-1.6367 3.7695 0.015624 1.4336 0.64062 2.7891 1.7109 3.7344 1.2109 1.0586 29.758 25.93 50.406 25.93h0.15234c8.0156-0.050781 15.531-3.2148 21.164-8.918 5.6328-5.6992 8.7031-13.254 8.6562-21.266-0.050781-8.0156-3.2109-15.531-8.9141-21.16-5.6562-5.5898-13.137-8.6602-21.078-8.6602-0.0625-0.003906-0.12891-0.003906-0.1875-0.003906zm20.105 29.879c0.035157 5.3242-2.0078 10.34-5.7461 14.125-3.7383 3.7852-8.7344 5.8906-14.055 5.9219h-0.10938c-11.793 0-29.535-12.035-39.258-19.715 9.5234-7.8125 27.016-20.062 39.125-20.137h0.12109c5.2773 0 10.242 2.0391 14.004 5.75 3.7812 3.7422 5.8828 8.7344 5.918 14.055z"/>
  <path d="m326.43 297.29h-0.1875c-8.0156 0.050782-15.527 3.2148-21.156 8.918-11.633 11.766-11.512 30.801 0.25 42.43 15.047 14.855 52.742 16.688 54.34 16.758 0.074219 0.003906 0.14844 0.003906 0.22266 0.003906 1.3516 0 2.6484-0.54297 3.5977-1.5117 1.0039-1.0195 1.5234-2.4219 1.4336-3.8516-0.10156-1.6094-2.7227-39.566-17.418-54.09-5.6562-5.5898-13.137-8.6562-21.082-8.6562zm-14.008 44.176c-7.8164-7.7227-7.8906-20.363-0.16797-28.184 3.7383-3.7852 8.7266-5.8906 14.051-5.9219h0.12109c5.2734 0 10.242 2.0391 13.996 5.75 8.3945 8.2891 12.449 29.43 13.898 41.773-12.266-1.2109-33.305-4.9258-41.898-13.418z"/>
  <path d="m440.76 433.77c-1.4414-0.082031-2.8203 0.48828-3.8164 1.5078-1.0039 1.0195-1.5234 2.4219-1.4336 3.8516 0.10156 1.6094 2.7148 39.566 17.41 54.09h0.003906c5.8359 5.7656 13.457 8.6406 21.082 8.6406 7.7422 0 15.484-2.9727 21.348-8.9023 5.6289-5.6992 8.7031-13.254 8.6562-21.266-0.050781-8.0156-3.2188-15.531-8.9141-21.16-15.043-14.863-52.738-16.691-54.336-16.762zm47.426 52.102c-7.7305 7.8242-20.367 7.8906-28.188 0.17578h0.003906c-8.3945-8.2891-12.449-29.43-13.895-41.777 12.266 1.2188 33.309 4.9336 41.902 13.426 3.7852 3.7383 5.8906 8.7305 5.918 14.055 0.039063 5.3203-2 10.34-5.7422 14.121z"/>
  <path d="m359.38 437.89c-1.6094 0.10547-39.57 2.7148-54.086 17.414-5.6328 5.7031-8.7148 13.254-8.6602 21.27 0.050782 8.0156 3.2109 15.531 8.9141 21.16 5.6562 5.5898 13.137 8.6602 21.082 8.6602h0.1875c8.0156-0.050782 15.527-3.2148 21.16-8.918 14.855-15.039 16.688-52.738 16.758-54.336 0.0625-1.4336-0.48047-2.8203-1.5039-3.8242-1.0234-1-2.4492-1.5391-3.8516-1.4258zm-18.574 52.508c-3.7383 3.7852-8.7266 5.8906-14.051 5.9219-5.1875 0.003906-10.344-2.0117-14.121-5.75-3.7891-3.7422-5.8945-8.7344-5.9297-14.055-0.03125-5.3203 2.0117-10.336 5.75-14.121 0-0.003907 0.003906-0.003907 0.003906-0.003907 8.2852-8.3906 29.426-12.445 41.77-13.895-1.2148 12.266-4.9297 33.305-13.422 41.902z"/>
  <path d="m442.17 366.3c0.10938 0 0.21484-0.003906 0.32422-0.011719 1.6094-0.10547 39.566-2.7188 54.086-17.414 0-0.003906 0-0.003906 0.003907-0.003906 5.6289-5.6992 8.7031-13.254 8.6562-21.266-0.050782-8.0156-3.2188-15.531-8.9141-21.16-11.773-11.629-30.801-11.512-42.434 0.25781-14.855 15.039-16.684 52.738-16.754 54.336-0.0625 1.4297 0.48828 2.8203 1.5039 3.8203 0.94531 0.92578 2.2148 1.4414 3.5273 1.4414zm18.891-52.516c3.8984-3.9414 9.0312-5.9141 14.18-5.9141 5.0625 0 10.125 1.9141 14.008 5.7422 3.7852 3.7383 5.8906 8.7305 5.918 14.055 0.035156 5.3203-2.0078 10.336-5.7461 14.121-8.2969 8.3945-29.438 12.449-41.777 13.898 1.2188-12.27 4.9297-33.309 13.418-41.902z"/>
  <path d="m400 240.79c-87.789 0-159.21 71.422-159.21 159.21 0 87.785 71.418 159.21 159.21 159.21 87.785 0 159.21-71.422 159.21-159.21 0-87.789-71.422-159.21-159.21-159.21zm0 308.34c-82.234 0-149.13-66.898-149.13-149.13-0.003906-82.234 66.895-149.13 149.13-149.13 82.23 0 149.13 66.898 149.13 149.13 0 82.23-66.898 149.13-149.13 149.13z"/>
  <path d="m400 198.48c-111.12 0-201.52 90.402-201.52 201.52s90.406 201.52 201.52 201.52 201.52-90.402 201.52-201.52-90.406-201.52-201.52-201.52zm0 392.97c-105.56 0-191.45-85.883-191.45-191.45 0-105.56 85.883-191.45 191.45-191.45 105.56 0 191.45 85.883 191.45 191.45-0.003907 105.57-85.887 191.45-191.45 191.45z"/>
 </g>
</svg>