<?xml version="1.0" encoding="UTF-8"?>
<!-- The Best Svg Icon site in the world: iconSvg.co, Visit us! https://iconsvg.co -->
<svg fill="#000000" width="800px" height="800px" version="1.1" viewBox="144 144 512 512" xmlns="http://www.w3.org/2000/svg">
 <g>
  <path d="m305.38 464.71-4.5625-6.457-13.383-18.578h-0.16016l-4.5625-6.4531-4.5664-6.457-40.777 28.973-6.457 4.5625 4.5664 6.457 26.922 37.941 47.547-33.691z"/>
  <path d="m394.17 392.6h11.652v11.492h-11.652z"/>
  <path d="m394.17 447.07h11.652v11.652h-11.652z"/>
  <path d="m394.17 501.7h11.652v11.492h-11.652z"/>
  <path d="m318.13 548.46-13.695 68.172h81.867v-40.934h27.395v40.934h81.871l-13.699-68.172z"/>
  <path d="m499.5 241.77 13.539 18.578 4.5664 6.2969 4.5664 6.3008 0.15625 0.15625 46.762-33.219-4.5664-6.457-26.922-38.102-47.391 33.695 4.5664 6.2969z"/>
  <path d="m283.49 267.43 4.4102-6.4531 13.066-18.895 4.5664-6.6133 4.4062-6.4531-47.547-33.695-26.922 38.102-4.5664 6.457 48.02 34.008z"/>
  <path d="m296.25 276.57-4.4102 6.4531 46.762 33.219 5.668 3.9375 6.4531 4.5664-5.3516 5.3516-13.539 27.238h44.242l-11.02 7.8711h-20.156l-0.94531 14.957-5.3516 3.7773-47.547 33.691 9.1328 12.906 13.383 18.734h0.15625l4.4102 6.2969 4.5664 6.2969 17.004-11.965-5.668 90.688h132.09l-5.668-90.527 16.848 11.965 9.4453-12.594 14.012-18.262 9.4453-12.594-48.805-34.637-5.3516-3.7773-0.94531-14.957h-20.152l-11.02-7.8711h44.242l-13.539-27.238-5.3516-5.3516 6.1406-4.4102 5.9844-4.0938 48.02-34.164-4.5664-6.2969-4.7227-6.4531-13.555-18.578-4.7227-6.2969-4.5664-6.2969-47.387 33.531 22.355 31.645-8.1875 5.8242h-0.15625l-7.8711 5.668-36.055-11.961-36.055 11.965-7.8711-5.668h-0.16016l-8.1875-5.8242 22.355-31.645-47.23-33.535-4.4102 6.4531-4.5664 6.6133-13.062 18.891zm117.45 244.5h-27.395v-27.238h27.395zm0-54.473h-27.395v-27.395h27.395zm0-54.633h-27.395v-27.238h27.395zm-8.8164-48.809c-1.2578 0.94531-2.9922 1.5742-4.8789 1.5742-1.8906 0-3.6211-0.62891-4.8789-1.5742-1.7305-1.418-2.832-3.4648-2.9922-5.8242v-0.47266c0-0.78906 0.15625-1.5742 0.47266-2.3633 0.62891-2.3633 2.3633-4.25 4.7227-5.0391h5.3516c2.3633 0.78906 4.0938 2.6758 4.7227 5.0391 0.31641 0.78906 0.47266 1.5742 0.47266 2.3633v0.47266c-0.15625 2.3633-1.2617 4.4102-2.9922 5.8242z"/>
  <path d="m523.12 427.71-4.7227 6.2969-4.7227 6.3008h-0.16016l-13.852 18.262-4.8828 6.2969-4.7227 6.1406 47.547 33.691 26.922-37.941 4.5664-6.457-6.457-4.5625z"/>
 </g>
</svg>