<?xml version="1.0" encoding="UTF-8"?>
<!-- The Best Svg Icon site in the world: iconSvg.co, Visit us! https://iconsvg.co -->
<svg fill="#000000" width="800px" height="800px" version="1.1" viewBox="144 144 512 512" xmlns="http://www.w3.org/2000/svg">
 <path d="m400 215.8-226.71 141.7 17.574 28.34 24.934-15.195v213.57h368.41v-213.57l24.934 15.195 17.574-28.34zm126.39 245.04c-3.0234 5.9609-9.0547 9.6562-15.734 9.6562h-20.34v1.7734c0 23.371-10.254 45.41-28.129 60.469l-10.48 8.832v14.785h1.7734c9.418 0 17.125 7.4609 17.523 16.781h-63.512c-2.3438-15.168-15.34-26.418-30.867-26.418h-1.2734v-2.0859l15.457-13.02c14.715-12.395 23.156-30.535 23.156-49.777v-10.66h-9.6367v10.66c0 16.395-7.1875 31.852-19.73 42.406l-18.887 15.906v16.207h10.918c10.121 0 18.848 7.082 21.059 16.781h-38.336c-19.09 0-37.031-7.4414-50.523-20.949l-1.9453-1.7617-31.078-31.074c-2.6484-2.6562-4.1094-6.1758-4.1094-9.9258 0-7.7383 6.2969-14.035 14.035-14.035h2.5l0.17578-1.5781c4-36.18 34.5-63.461 70.945-63.461h74.938v-19.801h-28.867c-7.8281 0-15.184-3.0469-20.723-8.5859l-29.832-29.832c-2.1562-2.1562-2.457-5.5352-0.71875-8.0469 1.6836-2.4336 4.7852-3.3555 7.5273-2.2539l47.152 18.973-6.6562-40.621c-0.48438-2.9492 1.1133-5.793 3.875-6.9219 2.8164-1.1445 6.0625-0.13672 7.7227 2.4023l40.77 62.164h21.145c12.852 0 24.676 6.4531 31.633 17.254l18.172 28.227c3.3789 5.2539 3.7227 11.969 0.90234 17.531zm-30.711-31.629 1.0977 7.543h-9.2031c-4.4453 0-8.2734-3.3164-8.9141-7.7148l-1.0977-7.543h9.2031c4.4375 0 8.2734 3.3164 8.9141 7.7148z"/>
</svg>