<?xml version="1.0" encoding="UTF-8"?>
<!-- The Best Svg Icon site in the world: iconSvg.co, Visit us! https://iconsvg.co -->
<svg fill="#000000" width="800px" height="800px" version="1.1" viewBox="144 144 512 512" xmlns="http://www.w3.org/2000/svg">
 <path d="m474.23 274.05h-290.71c-5.4492 0-10.516 2.8164-13.383 7.4453-2.8672 4.6289-3.1484 10.422-0.72266 15.305l70.391 141.7c2.6602 5.3516 8.125 8.7383 14.105 8.7383h25.426l-22.371 22.371c-7.793-4.2188-16.734-6.6289-26.215-6.6289-30.418 0-55.105 24.688-55.105 55.105s24.688 55.105 55.105 55.105c30.418 0 55.105-24.688 55.105-55.105 0-9.4766-2.4102-18.422-6.6289-26.215l41.375-41.375c0.99219-0.99219 1.8281-2.0938 2.5039-3.2578h42.414l81.918 89.363c2.9766 3.2422 7.1953 5.1016 11.602 5.1016h23.617c8.6914 0 15.742-7.0547 15.742-15.742v-231.39l24.168-36.258h93.914c8.6914 0 15.742-7.0547 15.742-15.742 0-8.6914-7.0547-15.742-15.742-15.742h-102.34c-5.2578 0-10.188 2.6289-13.098 7.0078l-26.812 40.227zm-226.95 227.17c-4.2656-4.1719-10.094-6.7539-16.531-6.7539-13.035 0-23.617 10.578-23.617 23.617 0 13.035 10.578 23.617 23.617 23.617 13.035 0 23.617-10.578 23.617-23.617 0-6.4375-2.582-12.266-6.7539-16.531-0.0625-0.0625-0.10938-0.10938-0.17188-0.15625-0.046875-0.0625-0.09375-0.10938-0.15625-0.17188zm219.63-53.988v62.977h-0.94531s-57.734-62.977-57.734-62.977zm0-31.488h-203.26l-54.742-110.21h258v110.21z" fill-rule="evenodd"/>
</svg>