<?xml version="1.0" encoding="UTF-8"?>
<!-- The Best Svg Icon site in the world: iconSvg.co, Visit us! https://iconsvg.co -->
<svg fill="#000000" width="800px" height="800px" version="1.1" viewBox="144 144 512 512" xmlns="http://www.w3.org/2000/svg">
 <g>
  <path d="m429.62 364.13c0.80469-0.85547 1.6133-1.6641 2.4688-2.418l0.45312-0.45313c1.0586-0.90625 2.1172-1.7148 3.2227-2.5195l0.50391-0.35156c0.95703-0.65625 1.9141-1.2578 2.8711-1.8125l1.0078-0.55469c0.90625-0.50391 1.8633-0.95703 2.8203-1.3594l0.90625-0.40234c1.2578-0.55469 2.5195-1.0078 3.8281-1.4102l2.0156-0.60547-1.3594-1.5117-39.5-38.391-21.766 31.488 34.41 33.453 0.70703-1.7617c0.70703-1.5117 1.2109-2.5703 1.7617-3.6289 0.90625-1.6133 1.6641-2.7695 2.4688-3.8789l0.35156-0.45312c0.70703-0.95703 1.4102-1.8633 2.2148-2.7227z"/>
  <path d="m403.78 232.13 38.492 25.141 0.55469 0.50391 9.6719 6.3477 12.445-17.984-58.293-38.141-12.492 17.988 9.168 5.9922z"/>
  <path d="m478.59 425.34c-0.70703 0.40234-1.1094 0.60547-1.4609 0.75391-1.0586 0.50391-2.168 0.90625-3.2734 1.3594l-0.55469 0.20312c-4.4336 1.5625-9.0703 2.3672-13.602 2.3672-0.80469 0-1.6641-0.10156-2.4688-0.15234l-1.8125-0.15234c-0.95703-0.10156-1.8633-0.25-2.8203-0.40234-0.80469-0.15234-1.5625-0.30078-2.3164-0.45312-0.70703-0.20312-1.4102-0.35156-2.1172-0.55469 0 0-1.1602-0.30078-1.4102-0.40234l-1.6641-0.55469v85.848l1.4609-0.20312 0.75391-0.10156c2.2148-0.30078 4.4844-0.55469 6.75-0.75391 0.80469-0.050781 1.6641-0.10156 2.4688-0.15234 2.3164-0.15234 4.6367-0.25 6.9531-0.25h1.6133c2.3164 0 4.5859 0.10156 6.9023 0.25 0.85547 0.050781 1.6641 0.10156 2.5195 0.15234 2.2148 0.20312 4.4336 0.45312 6.5508 0.75391l1.9141 0.20312 0.45312-1.3594-0.003906-89.168-1.9141 1.1602-0.65625 0.40234c-0.75391 0.45313-1.5117 0.85547-2.2656 1.207z"/>
  <path d="m454.26 390.53c0 2.8203 2.5195 5.1367 5.4414 5.1367s5.3906-2.3164 5.3906-5.1367c0-2.7695-2.4688-5.1406-5.3906-5.1406s-5.4414 2.3672-5.4414 5.1406z"/>
  <path d="m459.2 358.64-0.45312 0.050781c-15.922 0.55469-28.969 11.688-31.488 26.449-0.35156 1.7109-0.50391 3.5781-0.50391 5.3906 0 11.336 6.2969 21.914 16.426 27.609 4.8867 2.7188 10.531 4.1836 16.324 4.1836 1.8633 0 3.8281-0.15234 5.6914-0.50391 7.5078-1.2109 14.359-4.8867 19.246-10.227 5.2891-5.8945 8.2109-13.402 8.2109-21.059 0-17.582-14.812-31.891-32.949-31.891zm13.453 31.891c0 7.0039-5.793 12.695-12.949 12.695-7.1523 0-13-5.6914-13-12.695s5.8438-12.695 13-12.695 12.949 5.6914 12.949 12.695z"/>
  <path d="m389.12 327.6 16.02-23.277 29.676-42.723-31.793-20.809-75.316 108.82 31.789 20.758z"/>
  <path d="m270.62 563.89h258.76v28.113h-258.76z"/>
  <path d="m486.5 521.47c-3.5273-0.70703-7.2031-1.2578-10.934-1.6641-3.7266-0.35156-7.5078-0.55469-11.285-0.55469-7.6562 0-15.316 0.75391-22.168 2.2148-24.789 5.0898-42.473 18.844-42.926 33.555l-0.050781 1.3086h130.23v-1.3086c-0.5-14.711-18.137-28.465-42.871-33.551z"/>
  <path d="m292.84 480.61c5.543 5.3906 12.949 7.9102 18.188 9.0195l1.9648 0.45312-0.45313-1.9648c-1.2109-5.0391-3.7773-12.09-9.2188-17.383-5.543-5.3906-12.949-7.9102-18.188-9.0703l-1.9648-0.40234 0.45312 1.9648c1.207 4.9883 3.7773 12.09 9.2188 17.383z"/>
  <path d="m368.61 385.34-58.344-38.086-13.953 20.102 58.34 38.09z"/>
  <path d="m350.32 461.26-1.9648 0.45312c-5.2383 1.1602-12.645 3.6289-18.188 9.0195-5.4414 5.2891-8.0117 12.395-9.2188 17.383l-0.45312 1.9648 1.9648-0.45312c5.2383-1.1602 12.695-3.6758 18.188-9.0195 5.4414-5.2891 8.0117-12.344 9.2188-17.383z"/>
  <path d="m316.75 492.81c-2.0781 0-3.7617 1.6836-3.7617 3.7617v38.043c-15.914 1.1094-25.738 8.7148-25.738 15.465 0 1.9648 0.75391 3.8789 2.2148 5.7422l0.40234 0.50391h53.809l0.35156-0.50391c1.5117-1.8633 2.2148-3.7773 2.2148-5.7422 0-6.75-9.7695-14.355-25.734-15.465v-38.043c0.003906-2.0781-1.6836-3.7617-3.7578-3.7617z"/>
 </g>
</svg>