<?xml version="1.0" encoding="UTF-8"?>
<!-- The Best Svg Icon site in the world: iconSvg.co, Visit us! https://iconsvg.co -->
<svg fill="#000000" width="800px" height="800px" version="1.1" viewBox="144 144 512 512" xmlns="http://www.w3.org/2000/svg">
 <path d="m620.41 390.16-214.77-0.35547 2.2227-86.797c0.054687-2.125-0.75-4.1797-2.2344-5.6992-1.4805-1.5195-3.5156-2.3789-5.6367-2.3789h-93.922c-2.6328 0-5.0898 1.3164-6.5508 3.5039l-61.18 91.727h-47.809c-13.043 0-18.828 19.348-18.828 26.699v79.555c0 2.0898 0.82812 4.0898 2.3047 5.5664 1.4766 1.4766 3.4766 2.3047 5.5664 2.3047h31.77c-0.11719 1.332-0.20312 2.668-0.20312 4.0312 0 16.848 8.9883 32.414 23.578 40.836 14.59 8.4258 32.562 8.4258 47.152 0 14.59-8.4219 23.578-23.988 23.578-40.836 0-1.3633-0.085937-2.6992-0.20312-4.0312h194.17c-0.11719 1.332-0.20312 2.668-0.20312 4.0312-0.16406 12.613 4.7305 24.762 13.59 33.738 8.8594 8.9727 20.945 14.027 33.559 14.027 12.609 0 24.695-5.0547 33.559-14.027 8.8594-8.9766 13.754-21.125 13.59-33.738 0-1.3633-0.1875-2.6914-0.30859-4.0312h27.207c2.0898 0 4.0898-0.82812 5.5664-2.3047 1.4766-1.4766 2.3086-3.4766 2.3086-5.5664v-98.383c0-2.0898-0.83203-4.0898-2.3086-5.5664-1.4766-1.4766-3.4766-2.3047-5.5664-2.3047zm-310.16-79.508h81.633l-2.0234 79.508h-132.6zm-51.957 229.07c-8.3281 0-16.316-3.3086-22.207-9.1992s-9.1992-13.879-9.1992-22.211c0-8.3281 3.3086-16.316 9.1992-22.207s13.879-9.2031 22.207-9.2031c8.332 0 16.32 3.3125 22.211 9.2031s9.1992 13.879 9.1992 22.207c-0.011719 8.3281-3.3242 16.312-9.2109 22.199s-13.871 9.1992-22.199 9.2109zm0-78.562c-8.9922 0.019532-17.793 2.6055-25.367 7.457-7.5742 4.8516-13.605 11.762-17.383 19.922h-28.098v-71.684c0.375-3.957 1.8086-7.7422 4.1484-10.957h198.11v82.656h-88.656c-3.7773-8.1641-9.8086-15.078-17.383-19.93-7.5742-4.8555-16.375-7.4453-25.371-7.4648zm288.07 78.562c-7.7734 0.003907-15.273-2.875-21.047-8.0781-5.7734-5.207-9.4141-12.367-10.211-20.102-0.80078-7.7305 1.293-15.484 5.8828-21.762 4.5859-6.2773 11.336-10.629 18.945-12.215 7.6094-1.5859 15.539-0.29687 22.254 3.625 6.7109 3.918 11.73 10.191 14.09 17.598 3.0234 9.543 1.3203 19.961-4.5898 28.043-5.9062 8.0859-15.312 12.871-25.324 12.891zm66.172-51.184h-23.465c-5.0391-10.953-14.094-19.551-25.289-24.023-11.199-4.4688-23.684-4.4688-34.883 0-11.195 4.4727-20.25 13.07-25.289 24.023h-98.164v-82.996l207.09 0.34766z"/>
</svg>