<?xml version="1.0" encoding="UTF-8"?>
<!-- The Best Svg Icon site in the world: iconSvg.co, Visit us! https://iconsvg.co -->
<svg fill="#000000" width="800px" height="800px" version="1.1" viewBox="144 144 512 512" xmlns="http://www.w3.org/2000/svg">
 <g>
  <path d="m518.36 211.3 54.539 31.488-7.8711 13.633 13.633 7.8711 11.809-20.469-0.003906 0.003907c2.1484-3.7539 0.86328-8.5391-2.8789-10.711l-68.172-39.359v-0.003906c-3.7656-2.1719-8.582-0.88281-10.754 2.8828l-11.809 20.469 13.633 7.8711z"/>
  <path d="m533.82 431.49c-2.7695 0-5.5977 0.13281-8.5273 0.40234v-0.003906c-2.5586-25.734-13.355-49.961-30.785-69.066l44.32-76.762h-0.003906c12.305 4.9141 25.965 5.2305 38.48 0.89453 12.516-4.3398 23.051-13.039 29.676-24.512l11.809-20.469v0.003906c2.0742-3.6133 2.6289-7.8984 1.5508-11.922-1.0781-4.0195-3.7109-7.4492-7.3125-9.5391l-95.449-55.105v0.003906c-3.6211-2.0742-7.9102-2.6289-11.941-1.5469-4.0273 1.0859-7.4609 3.7148-9.5547 7.3242l-11.809 20.469v-0.003906c-6.6367 11.469-8.9062 24.941-6.3984 37.949 2.5117 13.008 9.6328 24.672 20.055 32.844l-41.477 71.816c-17.594-8.543-36.898-12.984-56.457-12.988-32.871-0.47656-64.586 12.102-88.199 34.977-23.609 22.871-37.188 54.172-37.754 87.039 0 1.4492 0 2.8984 0.078125 4.3594v0.003906c-16.305 1.8555-31.465 9.3008-42.902 21.066-11.438 11.77-18.445 27.133-19.836 43.484-19.926 5.1445-36.082 19.695-43.27 38.98-7.1914 19.281-4.5039 40.859 7.1914 57.789 11.695 16.934 30.926 27.082 51.504 27.184h314.88c1.0312 0 2.0508-0.21875 2.9922-0.64453 34.902-3.9375 65.352-25.496 80.652-57.113 15.305-31.621 13.32-68.875-5.2539-98.691-18.57-29.812-51.137-48.02-86.262-48.223zm-79.777-30.074-6.8164-3.9336-6.8164-3.9375 70.848-122.72 13.633 7.875zm-34.652 107.22-14.84 25.695c-11.195 0.83203-22.387-1.7227-32.109-7.3398-9.7227-5.6172-17.531-14.031-22.402-24.148l14.816-25.664c4.1445-7.293 11.027-12.629 19.121-14.824 8.0938-2.1992 16.73-1.0742 23.996 3.1172 7.2617 4.1953 12.551 11.113 14.695 19.223s0.96484 16.738-3.2773 23.973zm-3.6523-56.625c-10.859-6.2578-23.754-7.9492-35.859-4.6992-12.105 3.2461-22.422 11.168-28.691 22.02l-7.5039 12.98h0.003906c-1.0039-8.1992 0.61328-16.508 4.6211-23.734l27.551-47.695 95.441 55.105-27.551 47.695h-0.003906c-4.2617 7.1367-10.676 12.742-18.324 16.004l7.6367-13.18c6.2344-10.852 7.9141-23.738 4.668-35.824-3.2461-12.09-11.152-22.402-21.988-28.672zm63.457 0.30859-95.441-55.105 7.8711-13.656 95.449 55.109zm18.711-252.83 11.809-20.469 95.441 55.105-11.809 20.469c-5.2227 9.0391-13.82 15.633-23.902 18.332-10.082 2.7031-20.824 1.2852-29.863-3.9336l-27.27-15.742c-9.0391-5.2227-15.633-13.816-18.332-23.898-2.7031-10.082-1.2891-20.82 3.9258-29.863zm43.129 420.55 0.003907 0.003906c-0.59766 0.054688-1.1875 0.18359-1.7578 0.375h-312.47c-15.977-0.13281-30.801-8.3398-39.402-21.801-8.6016-13.465-9.8125-30.367-3.2188-44.918 6.5938-14.555 20.098-24.789 35.891-27.203 3.9648-0.83984 6.7812-4.3633 6.7305-8.4141 0-14.57 5.7734-28.547 16.051-38.875 10.281-10.328 24.23-16.16 38.805-16.227 2.5156 0.19141 4.9922-0.75 6.7461-2.5664 1.4922-1.6641 2.207-3.8867 1.9648-6.1094-0.39062-3.6562-0.58594-7.3281-0.58984-11.008 0.5625-28.691 12.48-55.992 33.141-75.914 20.66-19.922 48.375-30.836 77.07-30.355 16.777 0.054687 33.336 3.8359 48.473 11.066l-21.711 37.582-34.086-19.68c-3.7617-2.1758-8.5781-0.88281-10.75 2.8789l-47.23 81.805-0.003906 0.003907c-8.418 15.555-9.3984 34.07-2.668 50.426 5.9688 16.535 17.469 30.504 32.551 39.535 11.398 6.3438 24.25 9.6289 37.297 9.5234 22.301 1.0586 43.473-9.8594 55.547-28.637l47.23-81.805c2.1758-3.7656 0.88281-8.582-2.8789-10.754l-34.086-19.68 18.484-32.023h-0.003907c14.895 17.949 23.316 40.391 23.918 63.707 0.050781 2.2852 1.0938 4.4375 2.8555 5.8945 1.7617 1.4375 4.0547 2.0547 6.2969 1.6953 23.273-4.0195 47.176 1.6445 66.164 15.688 18.988 14.039 31.414 35.234 34.387 58.66 2.9766 23.426-3.7539 47.055-18.629 65.395-14.875 18.344-36.602 29.809-60.137 31.734z"/>
  <path d="m533.82 581.05h15.742v15.742h-15.742z"/>
  <path d="m533.82 494.46h15.742v15.742h-15.742z"/>
  <path d="m573.18 525.95h15.742v15.742h-15.742z"/>
  <path d="m455.1 557.44h15.742v15.742h-15.742z"/>
  <path d="m321.28 392.12h15.742v15.742h-15.742z"/>
  <path d="m289.79 510.21h15.742v15.742h-15.742z"/>
  <path d="m313.41 541.7h15.742v15.742h-15.742z"/>
  <path d="m234.69 581.05h15.742v15.742h-15.742z"/>
  <path d="m360.64 596.8h15.742v15.742h-15.742z"/>
  <path d="m203.2 549.57h15.742v15.742h-15.742z"/>
 </g>
</svg>