<?xml version="1.0" encoding="UTF-8"?>
<!-- The Best Svg Icon site in the world: iconSvg.co, Visit us! https://iconsvg.co -->
<svg fill="#000000" width="800px" height="800px" version="1.1" viewBox="144 144 512 512" xmlns="http://www.w3.org/2000/svg">
 <g>
  <path d="m599.89 379.76-196.48-179.96c-1.9297-1.7656-4.8789-1.7656-6.8086 0l-196.48 179.96c-1.043 0.95313-1.6367 2.3047-1.6367 3.7148v213.02c0 2.7812 2.2539 5.0391 5.0391 5.0391h392.97c2.7852 0 5.0391-2.2539 5.0391-5.0391l-0.003906-182.79v-30.23c0-1.4102-0.59766-2.7617-1.6328-3.7148zm-154.55 206.65h-90.684v-60.457h90.688zm0-70.535h-90.684v-20.152h90.688zm146.11 75.57h-136.03v-100.77c0-2.7812-2.2539-5.0391-5.0391-5.0391h-45.344v-46.203c6.9141-1.1992 18.992-4.5273 27.961-13.637 12.988-13.195 14.008-33.012 14.047-33.848 0.0625-1.4141-0.47266-2.7891-1.4727-3.7891-1.0039-1.0039-2.3906-1.5273-3.793-1.4688-0.82812 0.039063-20.395 1.0781-33.418 14.305-3.668 3.7305-6.3594 7.9844-8.3633 12.195-2.0078-4.2109-4.6953-8.4688-8.3633-12.199-13.023-13.223-32.59-14.262-33.418-14.301-1.4258-0.050781-2.7852 0.46875-3.793 1.4688-1 1-1.5352 2.375-1.4727 3.7891 0.039062 0.83594 1.0586 20.652 14.047 33.848 8.9727 9.1094 21.051 12.434 27.965 13.637v46.211h-45.344c-2.7852 0-5.0391 2.2539-5.0391 5.0391v100.77l-136.03-0.007813v-175.52l191.45-175.35 191.45 175.35zm-186.17-162.33c1.1953-5.8438 3.9648-14.641 10.273-21.051 6.2539-6.3555 14.824-9.1641 20.547-10.387-1.1953 5.8438-3.9648 14.641-10.277 21.051-6.2578 6.3516-14.816 9.1641-20.543 10.387zm-10.551 0c-5.7266-1.2266-14.289-4.0352-20.543-10.387-6.3203-6.4141-9.0859-15.23-10.281-21.07 5.707 1.2109 14.254 4.0117 20.551 10.406 6.3086 6.4102 9.0781 15.211 10.273 21.051zm196.72-26.863-188.04-172.23c-1.9297-1.7656-4.8789-1.7656-6.8086 0l-188.04 172.23v-16.566l191.45-175.34 191.45 175.34z"/>
  <path d="m394.96 274.11v53.918c0 2.7812 2.2539 5.0391 5.0391 5.0391s5.0391-2.2539 5.0391-5.0391l-0.003906-53.918c0-2.7812-2.2539-5.0391-5.0391-5.0391-2.7812 0-5.0352 2.2578-5.0352 5.0391z"/>
  <path d="m400 350.5c-2.7852 0-5.0391 2.2539-5.0391 5.0391v7.9102c0 2.7812 2.2539 5.0391 5.0391 5.0391s5.0391-2.2539 5.0391-5.0391l-0.003906-7.9102c0-2.7812-2.25-5.0391-5.0352-5.0391z"/>
  <path d="m306.68 401.63h-53.074c-2.7852 0-5.0391 2.2539-5.0391 5.0391 0 2.7812 2.2539 5.0391 5.0391 5.0391h53.07c2.7852 0 5.0391-2.2539 5.0391-5.0391 0.003906-2.7812-2.25-5.0391-5.0352-5.0391z"/>
  <path d="m493.32 411.71h53.07c2.7852 0 5.0391-2.2539 5.0391-5.0391 0-2.7812-2.2539-5.0391-5.0391-5.0391h-53.07c-2.7852 0-5.0391 2.2539-5.0391 5.0391 0.003906 2.7812 2.2539 5.0391 5.0391 5.0391z"/>
  <path d="m457.6 366.4c1.3047 0 2.6016-0.5 3.5898-1.5039l24.215-24.602c1.9531-1.9844 1.9219-5.1719-0.058594-7.125-1.9844-1.9531-5.1719-1.9219-7.125 0.054687l-24.215 24.602c-1.9531 1.9844-1.9219 5.1719 0.058594 7.125 0.98047 0.96875 2.2617 1.4492 3.5352 1.4492z"/>
  <path d="m321.77 333.23c-1.957-1.9805-5.1445-2.0117-7.125-0.054687-1.9844 1.9531-2.0117 5.1445-0.058594 7.125l24.215 24.602c0.98828 1 2.2891 1.5039 3.5898 1.5039 1.2734 0 2.5547-0.48047 3.5312-1.4453 1.9844-1.9531 2.0117-5.1445 0.058594-7.125z"/>
 </g>
</svg>