<?xml version="1.0" encoding="UTF-8"?>
<!-- The Best Svg Icon site in the world: iconSvg.co, Visit us! https://iconsvg.co -->
<svg fill="#000000" width="800px" height="800px" version="1.1" viewBox="144 144 512 512" xmlns="http://www.w3.org/2000/svg">
 <path d="m620.41 604.67h-62.977v-83.332l23.617-23.617 10.172 10.172c3.0703 3.0703 8.0625 3.0703 11.133 0 3.0703-3.0703 3.0703-8.0625 0-11.133l-15.742-15.742c-3.0703-3.0703-8.0625-3.0703-11.133 0l-18.047 18.055v-72.203l23.617-23.617 10.172 10.172c3.0703 3.0703 8.0625 3.0703 11.133 0 3.0703-3.0703 3.0703-8.0625 0-11.133l-15.742-15.742c-3.0703-3.0703-8.0625-3.0703-11.133 0l-18.047 18.062v-24.969l23.617-23.617 10.172 10.172c3.0703 3.0703 8.0625 3.0703 11.133 0 3.0703-3.0703 3.0703-8.0625 0-11.133l-15.742-15.742c-3.0703-3.0703-8.0625-3.0703-11.133 0l-1.7617 1.7617c0.91406-4.3281 1.418-8.4844 1.418-11.934 0-15.02-16.168-36.211-19.414-40.32l-6.1602-7.7969-6.1719 7.793c-3.2422 4.0938-19.414 25.285-19.414 40.32 0 3.4492 0.51953 7.6211 1.418 11.934l-1.7617-1.7617c-3.0703-3.0703-8.0625-3.0703-11.133 0l-15.742 15.742c-3.0703 3.0703-3.0703 8.0625 0 11.133 3.0703 3.0703 8.0625 3.0703 11.133 0l10.172-10.172 23.617 23.617v72.203l-18.043-18.043c-3.0703-3.0703-8.0625-3.0703-11.133 0l-15.742 15.742c-3.0703 3.0703-3.0703 8.0625 0 11.133 3.0703 3.0703 8.0625 3.0703 11.133 0l10.172-10.172 23.617 23.617v72.203l-18.043-18.043c-3.0703-3.0703-8.0625-3.0703-11.133 0l-15.742 15.742c-3.0703 3.0703-3.0703 8.0625 0 11.133 3.0703 3.0703 8.0625 3.0703 11.133 0l10.172-10.172 23.617 23.617-0.011718 36.07h-133.82v-83.332l23.617-23.617 10.172 10.172c3.0703 3.0703 8.0625 3.0703 11.133 0 3.0703-3.0703 3.0703-8.0625 0-11.133l-15.742-15.742c-3.0703-3.0703-8.0625-3.0703-11.133 0l-18.031 18.055v-72.203l23.617-23.617 10.172 10.172c3.0703 3.0703 8.0625 3.0703 11.133 0 3.0703-3.0703 3.0703-8.0625 0-11.133l-15.742-15.742c-3.0703-3.0703-8.0625-3.0703-11.133 0l-18.047 18.062v-24.969l23.617-23.617 10.172 10.172c3.0703 3.0703 8.0625 3.0703 11.133 0 3.0703-3.0703 3.0703-8.0625 0-11.133l-15.742-15.742c-3.0703-3.0703-8.0625-3.0703-11.133 0l-1.7617 1.7617c0.91406-4.3281 1.418-8.4844 1.418-11.934 0-15.02-16.168-36.211-19.414-40.32l-6.1602-7.7969-6.1719 7.793c-3.2422 4.0938-19.414 25.285-19.414 40.32 0 3.4492 0.51953 7.6211 1.418 11.934l-1.7617-1.7617c-3.0703-3.0703-8.0625-3.0703-11.133 0l-15.742 15.742c-3.0703 3.0703-3.0703 8.0625 0 11.133 3.0703 3.0703 8.0625 3.0703 11.133 0l10.184-10.172 23.617 23.617v72.203l-18.043-18.043c-3.0703-3.0703-8.0625-3.0703-11.133 0l-15.742 15.742c-3.0703 3.0703-3.0703 8.0625 0 11.133 3.0703 3.0703 8.0625 3.0703 11.133 0l10.168-10.188 23.617 23.617v72.203l-18.043-18.043c-3.0703-3.0703-8.0625-3.0703-11.133 0l-15.742 15.742c-3.0703 3.0703-3.0703 8.0625 0 11.133 3.0703 3.0703 8.0625 3.0703 11.133 0l10.168-10.188 23.617 23.617-0.003906 36.102h-133.82v-36.102l23.617-23.617 10.172 10.172c3.0703 3.0703 8.0625 3.0703 11.133 0 3.0703-3.0703 3.0703-8.0625 0-11.133l-15.742-15.742c-3.0703-3.0703-8.0625-3.0703-11.133 0l-18.047 18.059v-72.203l23.617-23.617 10.172 10.172c3.0703 3.0703 8.0625 3.0703 11.133 0 3.0703-3.0703 3.0703-8.0625 0-11.133l-15.742-15.742c-3.0703-3.0703-8.0625-3.0703-11.133 0l-18.047 18.059v-72.203l23.617-23.617 10.172 10.172c3.0703 3.0703 8.0625 3.0703 11.133 0 3.0703-3.0703 3.0703-8.0625 0-11.133l-15.742-15.742c-3.0703-3.0703-8.0625-3.0703-11.133 0l-1.7617 1.7617c0.91406-4.3281 1.418-8.4844 1.418-11.934 0-15.02-16.168-36.211-19.414-40.32l-6.1602-7.793-6.1719 7.793c-3.2422 4.1094-19.41 25.301-19.41 40.32 0 3.4492 0.51953 7.6211 1.418 11.934l-1.7617-1.7617c-3.0703-3.0703-8.0625-3.0703-11.133 0l-15.742 15.742c-3.0703 3.0703-3.0703 8.0625 0 11.133 3.0703 3.0703 8.0625 3.0703 11.133 0l10.18-10.172 23.617 23.617v24.969l-18.043-18.043c-3.0703-3.0703-8.0625-3.0703-11.133 0l-15.742 15.742c-3.0703 3.0703-3.0703 8.0625 0 11.133 3.0703 3.0703 8.0625 3.0703 11.133 0l10.168-10.184 23.617 23.617v72.203l-18.043-18.043c-3.0703-3.0703-8.0625-3.0703-11.133 0l-15.742 15.742c-3.0703 3.0703-3.0703 8.0625 0 11.133 3.0703 3.0703 8.0625 3.0703 11.133 0l10.168-10.188 23.617 23.617v83.332h-62.977c-4.3438 0-7.8711 3.5273-7.8711 7.8711s3.5273 7.8711 7.8711 7.8711h440.83c4.3438 0 7.8711-3.5273 7.8711-7.8711 0.003906-4.3438-3.5234-7.8711-7.8711-7.8711z"/>
</svg>