<?xml version="1.0" encoding="UTF-8"?>
<!-- The Best Svg Icon site in the world: iconSvg.co, Visit us! https://iconsvg.co -->
<svg fill="#000000" width="800px" height="800px" version="1.1" viewBox="144 144 512 512" xmlns="http://www.w3.org/2000/svg">
 <g>
  <path d="m455.1 394.64c1.3047 0 2.6133-0.50391 3.5977-1.5117 1.3086-1.3398 31.977-33.32 25.555-79.77-0.375-2.7539-2.9219-4.6836-5.6758-4.3008s-4.6836 2.9258-4.3008 5.6797c5.7266 41.445-22.5 71.059-22.785 71.355-1.9375 1.9922-1.8984 5.1797 0.09375 7.1211 0.97656 0.95312 2.2461 1.4258 3.5156 1.4258z"/>
  <path d="m469.75 295.47c0.86719 1.7773 2.6523 2.8281 4.5273 2.8281 0.58203 0 1.1719-0.10156 1.7422-0.30859 2.4258-0.89453 3.7852-3.4844 3.1406-5.9844-1.7461-6.7734-6.3867-13.273-6.5781-13.543-1.5234-2.1211-4.4336-2.7266-6.6758-1.3867-2.25 1.3438-3.0938 4.1836-1.9453 6.5352z"/>
  <path d="m528.4 520.02h-44.984v-28.043c0-2.7812-2.2539-5.0391-5.0391-5.0391-7.1914 0-13.047-5.8008-13.047-12.934 0-2.7812-2.2539-5.0391-5.0391-5.0391h-37.172v-33.52c33.551-1.3711 65.793-34.539 78.035-81.418 14.18-54.109-4.7461-106.42-42.199-116.61-0.003906-0.003906-0.011719-0.003906-0.015625-0.003906-15.027-4.043-35.902-7.3477-54.312 4.957-0.17188-2.6719-0.62891-5.2188-1.2578-7.6445 5.5156-0.5625 11.645-2.5859 15.676-4.9883 8.1016-4.8281 11.836-11.398 15.453-17.746 0.82031-1.4492 1.6641-2.9297 2.582-4.4336 1.2773-2.0938 1.2109-4.5625-0.17188-6.4414-0.8125-1.1055-3.2969-4.4766-15.672-1.3984-12.094 2.9922-20.504 8.8594-26.008 18.094-3.5547-4.9297-6.8281-7.8789-7.1719-8.1875-2.0898-1.8398-5.2578-1.6367-7.0977 0.42969-1.8438 2.0742-1.6562 5.2578 0.41406 7.1055 0.15234 0.13672 12.844 11.75 13.188 27.289-15.355-11.539-34.801-13.52-59.203-5.8359-36.953 11.656-53.777 64.672-37.496 118.18 13.633 44.805 46.277 76.703 79.012 78.184v33.992h-37.172c-2.7852 0-5.0391 2.2539-5.0391 5.0391 0 7.1328-5.8555 12.934-13.047 12.934-2.7852 0-5.0391 2.2539-5.0391 5.0391v28.043h-44.984c-2.7852 0-5.0391 2.2539-5.0391 5.0391v71.445c0 2.7812 2.2539 5.0391 5.0391 5.0391h256.8c2.7852 0 5.0391-2.2539 5.0391-5.0391v-71.449c0-2.7812-2.25-5.0391-5.0352-5.0391zm-104.73-310.52c0.23047-0.054688 0.48047-0.11328 0.74609-0.16797-2.8125 4.8438-5.4844 8.7539-10.523 11.758-3.4883 2.0781-7.875 3.207-11.047 3.6289 4.1055-8.0234 10.566-12.68 20.824-15.219zm-116.16 144.36c-14.68-48.242-0.82812-95.629 30.879-105.63 24.801-7.8047 42.672-4.7461 56.266 9.6172 0.96094 1.0117 2.1094 1.6992 3.6953 1.5742 0.054688 0 0.10156-0.03125 0.15625-0.035157 0.58594-0.019531 1.1445-0.14844 1.6758-0.35937 0.16016-0.0625 0.29687-0.15234 0.44922-0.23438 0.42969-0.22266 0.81641-0.49609 1.168-0.83594 0.066406-0.066406 0.16016-0.09375 0.22656-0.16016 13.055-14.195 29.293-17.383 54.309-10.648 32.133 8.7539 47.867 55.551 35.078 104.33-11.488 44.004-42.82 75.719-73.133 73.938-2.6914-0.10156-5.3828-0.52734-7.9297-1.2383-3.1523-0.92578-5.9453-2.0273-8.5156-3.3594-0.72266-0.37109-1.5078-0.55078-2.293-0.55469-0.007812 0-0.011718-0.003907-0.019531-0.003907-0.76562 0-1.5352 0.17578-2.2383 0.52734-1.7969 0.88672-3.8086 1.7031-5.8555 2.3672-3.0938 1.0234-6.375 1.625-9.7852 1.7891-29.906 1.75-61.105-28.25-74.133-71.082zm79.441 80.676c0.34375-0.050781 0.67578-0.13672 1.0156-0.19531 0.39453-0.066406 0.77734-0.14844 1.168-0.22656 1.8438-0.36719 3.6641-0.80078 5.418-1.3828 1.6875-0.54688 3.332-1.168 4.9102-1.8555 2.5 1.1406 5.1602 2.125 8.1016 2.9922 1.75 0.48828 3.5273 0.85937 5.3008 1.1289 0.058594 0.007812 0.11719 0.027344 0.17188 0.035156v33.934h-26.098zm-60.293 61.926c8.7031-1.9297 15.578-8.7617 17.531-17.418h111.62c1.9531 8.6602 8.8281 15.488 17.531 17.418v23.543l-146.69 0.003906zm196.71 95.004h-246.73v-61.367h246.73z"/>
  <path d="m289.69 564.71c2.7852 0 5.0391-2.2539 5.0391-5.0391v-11.605h26.895c2.7852 0 5.0391-2.2539 5.0391-5.0391 0-2.7812-2.2539-5.0391-5.0391-5.0391h-31.93c-2.7852 0-5.0391 2.2539-5.0391 5.0391v16.641c-0.003906 2.7852 2.25 5.043 5.0352 5.043z"/>
  <path d="m478.38 583.57h31.93c2.7852 0 5.0391-2.2539 5.0391-5.0391v-18.859c0-2.7812-2.2539-5.0391-5.0391-5.0391s-5.0391 2.2539-5.0391 5.0391v13.82h-26.895c-2.7852 0-5.0391 2.2539-5.0391 5.0391 0.003906 2.7812 2.2578 5.0391 5.043 5.0391z"/>
 </g>
</svg>