<?xml version="1.0" encoding="UTF-8"?>
<!-- The Best Svg Icon site in the world: iconSvg.co, Visit us! https://iconsvg.co -->
<svg fill="#000000" width="800px" height="800px" version="1.1" viewBox="144 144 512 512" xmlns="http://www.w3.org/2000/svg">
 <path d="m462.98 488.81v96.18c0 8.6914 7.0547 15.742 15.742 15.742h141.7c8.6914 0 15.742-7.0547 15.742-15.742v-31.852l-173.18-64.332zm-202.55 111.93v-59.039c0-8.6914 7.0547-15.742 15.742-15.742h70.25c8.6914 0 15.742 7.0547 15.742 15.742v59.039h66.219c8.6914 0 15.742-7.0547 15.742-15.742v-105.2c-0.37891 0.015625-0.73828 0.03125-1.1172 0.03125h-263.43c-0.37891 0-0.73828-0.015625-1.1016-0.03125v105.2c0 8.6914 7.0391 15.742 15.742 15.742zm70.25 0h-38.762v-43.297h38.762zm305.48-121.34v40.18l-173.18-64.332v-40.18zm-177.4-90.512c0-81.445-66.016-147.46-147.46-147.46-81.445 0-147.46 66.016-147.46 147.46v67.32c0 8.6914 7.0547 15.742 15.742 15.742h263.43c8.6914 0 15.742-7.0547 15.742-15.742zm177.4 16.766v40.18l-173.18-64.332v-40.18zm-273.99-67.527c0-8.6914-7.0547-15.742-15.742-15.742h-70.25c-8.6914 0-15.742 7.0547-15.742 15.742v52.898c0 8.6914 7.0547 15.742 15.742 15.742h70.25c8.6914 0 15.742-7.0547 15.742-15.742zm-31.488 15.742v21.41h-38.762v-21.41zm132.3-46.113 173.18 64.332v-95.219c0-20.578-8.1719-40.32-22.734-54.867-14.547-14.562-34.289-22.734-54.867-22.734h-17.98c-20.578 0-40.32 8.1719-54.867 22.734-14.562 14.547-22.734 34.289-22.734 54.867v30.891zm141.7-29.773h-110.21v-1.1172c0-12.234 4.8633-23.961 13.508-32.605 8.6445-8.6445 20.371-13.508 32.605-13.508h17.98c12.234 0 23.961 4.8633 32.605 13.508 8.6445 8.6445 13.508 20.371 13.508 32.605z" fill-rule="evenodd"/>
</svg>