<?xml version="1.0" encoding="UTF-8"?>
<!-- The Best Svg Icon site in the world: iconSvg.co, Visit us! https://iconsvg.co -->
<svg fill="#000000" width="800px" height="800px" version="1.1" viewBox="144 144 512 512" xmlns="http://www.w3.org/2000/svg">
 <g>
  <path d="m318.64 250.13h13.414c2.7812 0 5.0391-2.2539 5.0391-5.0391 0-2.7812-2.2539-5.0391-5.0391-5.0391h-13.414c-2.7812 0-5.0391 2.2539-5.0391 5.0391s2.2578 5.0391 5.0391 5.0391z"/>
  <path d="m355.97 250.13h13.414c2.7812 0 5.0391-2.2539 5.0391-5.0391 0-2.7812-2.2539-5.0391-5.0391-5.0391h-13.414c-2.7812 0-5.0391 2.2539-5.0391 5.0391s2.2539 5.0391 5.0391 5.0391z"/>
  <path d="m393.29 250.13h13.41c2.7812 0 5.0391-2.2539 5.0391-5.0391 0-2.7812-2.2539-5.0391-5.0391-5.0391h-13.41c-2.7812 0-5.0391 2.2539-5.0391 5.0391s2.2578 5.0391 5.0391 5.0391z"/>
  <path d="m430.62 250.13h13.414c2.7812 0 5.0391-2.2539 5.0391-5.0391 0-2.7812-2.2539-5.0391-5.0391-5.0391h-13.414c-2.7812 0-5.0391 2.2539-5.0391 5.0391s2.2539 5.0391 5.0391 5.0391z"/>
  <path d="m467.94 250.13h13.414c2.7812 0 5.0391-2.2539 5.0391-5.0391 0-2.7812-2.2539-5.0391-5.0391-5.0391h-13.414c-2.7812 0-5.0391 2.2539-5.0391 5.0391s2.2578 5.0391 5.0391 5.0391z"/>
  <path d="m520.98 198.48h-241.96c-2.7812 0-5.0391 2.2539-5.0391 5.0391v41.02l-7.5 37.797c-1.8164 9.168-2.7422 18.559-2.7422 27.91l0.003907 286.24c0 2.7812 2.2539 5.0391 5.0391 5.0391h262.44c2.7812 0 5.0391-2.2539 5.0391-5.0391v-286.25c0-9.3516-0.92187-18.742-2.7422-27.914l-7.5-37.793v-41.02c0-2.7812-2.2578-5.0352-5.0391-5.0352zm-244.61 85.812 6.7773-34.16h11.586c2.7812 0 5.0391-2.2539 5.0391-5.0391 0-2.7812-2.2539-5.0391-5.0391-5.0391h-10.672v-31.5h231.88v31.504h-10.672c-2.7812 0-5.0391 2.2539-5.0391 5.0391 0 2.7812 2.2539 5.0391 5.0391 5.0391h11.586l6.7773 34.156c0.92188 4.6523 1.5742 9.3672 1.9961 14.102h-251.25c0.42188-4.7344 1.0742-9.4492 1.9961-14.102zm-2.5508 25.949c0-0.58984 0.035156-1.1836 0.042969-1.7734h252.27c0.007813 0.58984 0.042969 1.1836 0.042969 1.7734v224l-252.36 0.003907zm0 281.21v-47.129h252.36v47.129z"/>
  <path d="m392.77 408.23c12.52 0 22.707-10.188 22.707-22.707v-1.2734c0-16.254-6.875-31.875-18.859-42.867-12.152-11.141-27.957-16.496-44.469-15.051-29.691 2.582-52.953 28.582-52.953 59.188 0 12.52 10.188 22.707 22.707 22.707h15.188l-0.93359 22.758c-0.19141 4.6602 1.4805 9.0781 4.707 12.441 3.2266 3.3633 7.5742 5.2148 12.234 5.2148h8.4727c4.6602 0 9.0078-1.8516 12.234-5.2148 3.2266-3.3633 4.8984-7.7812 4.707-12.441l-0.92969-22.758zm-20.434-10.078c-1.3711 0-2.6836 0.55859-3.6328 1.5508-0.95312 0.98828-1.457 2.3242-1.3984 3.6953l1.1445 28.004c0.078125 1.8906-0.60156 3.6836-1.9102 5.0508-1.3125 1.3633-3.0742 2.1172-4.9648 2.1172h-8.4727c-1.8906 0-3.6562-0.75391-4.9648-2.1172s-1.9883-3.1562-1.9102-5.0469l1.1484-28.004c0.054688-1.3711-0.44922-2.707-1.3984-3.6953-0.95312-0.99219-2.2617-1.5508-3.6367-1.5508h-20.434c-6.9648 0-12.629-5.668-12.629-12.633 0-25.43 19.215-47.02 43.746-49.152 13.703-1.1719 26.746 3.2344 36.789 12.441 9.9102 9.0859 15.594 22.004 15.594 35.438v1.2734c0 6.9648-5.668 12.633-12.633 12.633z"/>
  <path d="m495.44 477.98-16.754-15.434 10.734-10.738c4.2891-4.2891 6.6523-9.9883 6.6523-16.055s-2.3633-11.77-6.6523-16.055l-0.89844-0.89844c-11.492-11.492-27.395-17.645-43.645-16.977-16.473 0.71484-31.418 8.1016-42.09 20.805-19.172 22.82-17.234 57.648 4.4102 79.293 4.2891 4.2891 9.9883 6.6523 16.055 6.6523h0.003906c6.0625 0 11.766-2.3633 16.055-6.6523l10.738-10.734 15.434 16.754c3.1602 3.4297 7.4648 5.3711 12.129 5.4648 0.12109 0.003906 0.24219 0.003906 0.35938 0.003906 4.5273 0 8.7656-1.7578 11.977-4.9648l5.9922-5.9922c3.2969-3.293 5.0586-7.6758 4.9609-12.336-0.089844-4.6719-2.0312-8.9766-5.4609-12.137zm-6.6211 17.34-5.9922 5.9922c-1.3398 1.3359-3.1133 2.0508-5.0078 2.0117-1.8906-0.035156-3.6406-0.82812-4.9258-2.2188l-18.988-20.613c-0.92969-1.0078-2.2305-1.5938-3.6016-1.625h-0.10156c-1.3359 0-2.6172 0.52734-3.5625 1.4766l-14.449 14.449c-2.3867 2.3867-5.5586 3.6992-8.9297 3.6992h-0.003906c-3.3711 0-6.5469-1.3125-8.9336-3.6992-17.98-17.98-19.656-46.832-3.8164-65.691 8.832-10.512 21.191-16.625 34.809-17.219 13.398-0.61719 26.582 4.5352 36.086 14.035l0.89844 0.89844c2.3867 2.3867 3.6992 5.5586 3.6992 8.9336s-1.3125 6.5469-3.6992 8.9336l-14.449 14.449c-0.97266 0.96875-1.5039 2.293-1.4766 3.6641 0.03125 1.3711 0.61328 2.6719 1.625 3.6016l20.613 18.988c1.3906 1.2852 2.1836 3.0312 2.2188 4.9258 0.039063 1.8945-0.67578 3.668-2.0117 5.0078z"/>
 </g>
</svg>