<?xml version="1.0" encoding="UTF-8"?>
<!-- The Best Svg Icon site in the world: iconSvg.co, Visit us! https://iconsvg.co -->
<svg fill="#000000" width="800px" height="800px" version="1.1" viewBox="144 144 512 512" xmlns="http://www.w3.org/2000/svg">
 <path d="m602.67 206.55c-5.707 0.007813-11.18 2.2773-15.215 6.3125s-6.3008 9.5078-6.3086 15.215v20.266h-88.168l0.003907-6.7852c0-6.5234-5.2891-11.809-11.809-11.809h-161.12c-6.5234 0-11.809 5.2852-11.809 11.809v6.7852h-88.168v-20.266c0-7.6914-4.1016-14.793-10.762-18.641-6.6562-3.8438-14.859-3.8438-21.52 0-6.6602 3.8477-10.762 10.949-10.762 18.641v381.54-0.003907c0 6.5234 5.2852 11.809 11.809 11.809h19.43-0.003906c6.5234 0 11.809-5.2852 11.809-11.809v-353.4h88.168v6.7812c0 6.5234 5.2852 11.809 11.809 11.809h130.14v89.895c-16.465-1.7617-33.016-2.6406-49.574-2.6328-31.43-0.35938-62.789 3.1289-93.371 10.383-0.13281 0.019532-0.25391 0.070313-0.39453 0.10156-24.234 6.5078-40.57 15.949-40.57 28.121l0.003906 178.46c0 10.949 13.203 19.68 33.492 26.078 0.054687 0.023437 0.11719 0.03125 0.17187 0.054687 26.172 8.1953 64.062 12.469 100.66 12.469 35.605 0 72.422-4.0547 98.48-11.809 0.09375-0.035157 0.19531-0.046875 0.28906-0.085938 21.449-6.4297 35.562-15.387 35.562-26.699l-0.003906-178.46c0-11.414-14.402-20.469-36.211-26.895-0.10937-0.039063-0.21875-0.070313-0.32812-0.097656-13.223-3.707-26.707-6.3945-40.34-8.043v-90.836h23.117c6.5195 0 11.809-5.2852 11.809-11.809v-6.7812h88.168v353.4h-0.003906c0 6.5234 5.2891 11.809 11.809 11.809h19.43c6.5195 0 11.809-5.2852 11.809-11.809v-381.54c-0.007812-5.707-2.2773-11.18-6.3125-15.215-4.0352-4.0352-9.5078-6.3047-15.215-6.3125zm-390.45 403.07c0 1.0469-0.41406 2.0469-1.1523 2.7852-0.73828 0.73828-1.7383 1.1523-2.7812 1.1523h-19.441c-2.1758 0-3.9375-1.7617-3.9375-3.9375v-381.54c0-7.5391 6.1133-13.652 13.652-13.652 7.5391 0 13.648 6.1133 13.648 13.652zm61.953-195.23c7.0195 5.1836 14.891 9.0977 23.258 11.574v51.359c-14.859-5.2188-23.258-11.328-23.258-17.164zm35.598-9.793v0.003906c2.3086 3.8203 5.7891 6.8008 9.9219 8.4883l-18.543 5.9844c-13.629-4.3281-22.605-9.4102-25.73-14.473zm94.781 86.27v-51.609c30.074 0.09375 60.051-3.3672 89.305-10.32v51.469c-29.215 7.1992-59.215 10.711-89.305 10.461zm-3.9375 59.512h0.003906c-18.93 0.058594-37.848-1.082-56.633-3.418v-51.664c18.789 2.332 37.703 3.4883 56.633 3.4688 18.93 0.019531 37.84-1.1367 56.625-3.4688v51.664c-18.781 2.3359-37.695 3.4766-56.625 3.418zm-3.9375-125.19v6.1953l0.003906-0.003906c-27.441 0.10156-54.812-2.75-81.641-8.5117l16.477-5.3164c21.32 5.25 43.211 7.8164 65.164 7.6367zm75.125-8.2656 14.047 6.0312 0.007812-0.003906c-26.723 5.7031-53.98 8.5312-81.305 8.4336v-6.1953c24.809-0.25781 50.191-2.9258 67.258-8.2656zm4.8789-22.312 0.14062 0.0625c5.0625 2.1875 7.7227 4.3281 7.7227 6.0078 0 3.1484-9.1367 7.9062-26.488 11.543l0.007813-23.098c6.3672 1.2266 12.605 3.0625 18.625 5.4766zm-80 44.645v51.609c-37.895-0.29297-69.699-4.7695-91.391-11.02v-51.473c24.848 6.8984 58.441 10.594 91.391 10.883zm101.5-19.574-16.012-6.8711v-0.003906c3.8867-1.6758 7.1406-4.543 9.3008-8.1836h34.348c-3.2656 5.2773-12.945 10.574-27.637 15.059zm-6.6914-22.93v-0.003906c-1.3125-2.4414-3.2383-4.5-5.582-5.9766l12.711-8.957c14.461 4.4492 23.984 9.6953 27.223 14.957zm-13.453-10.094c-6.4648-2.5078-13.156-4.3984-19.977-5.6445v-7.5508c10.328 1.3086 20.578 3.1914 30.699 5.6328zm-27.848-7.0312c-15.113-2.2227-30.363-3.3828-45.641-3.4727v-6.1914c15.254 0.085937 30.492 0.94141 45.66 2.5586zm-53.531-3.4727c-25.828 0.26562-52.262 3.1484-69.305 8.9453l-10.234-7.1094v0.003907c26.168-5.4102 52.82-8.1016 79.539-8.0312zm3.9375 7.8477v0.003906c16.602-0.125 33.188 1.0938 49.594 3.6523v26.027c-16.398 2.5586-32.98 3.7773-49.574 3.6523-54.316 0-83.938-11.02-83.938-16.664-0.003906-5.6445 29.625-16.668 83.938-16.668zm-126.44 89.926c11.496 9.3594 34.551 16.168 61.953 20.27v51.648c-11.148-1.6133-22.168-4.0156-32.98-7.1836-0.37109-0.17969-0.76953-0.29688-1.1797-0.35156-17.711-5.5117-27.809-12.258-27.809-18.672zm122.52 84.301v51.609c-37.895-0.29297-69.699-4.7695-91.391-11.02v-51.477c24.848 6.8945 58.441 10.605 91.391 10.887zm7.8711 0c30.074 0.097657 60.051-3.3672 89.305-10.324v51.477c-29.215 7.1953-59.215 10.707-89.305 10.457zm92.598-19.285h0.003907c-0.39453 0.054688-0.77344 0.16797-1.1328 0.33594-10.148 2.8477-20.473 5.0391-30.902 6.5586v-51.641c11.516-1.6328 22.906-4.0625 34.086-7.2734 0.046875-0.019531 0.097656-0.019531 0.14453-0.039063 9.9648-2.5586 19.367-6.9531 27.723-12.957v45.727c0 6.6484-10.934 13.656-29.918 19.289zm4.5781-60.926 0.003906-51.359c9.1172-2.5234 17.703-6.6758 25.344-12.258v45.758c-0.003906 6.1055-9.1953 12.496-25.344 17.867zm-194.73-97.488 11.773 8.1758h-0.003906c-3.7656 1.6719-6.918 4.4805-9.0078 8.0312h-34.352c3.5547-5.7539 14.676-11.508 31.59-16.207zm-32.836 198.6v-45.758c7.0195 5.1836 14.891 9.0977 23.258 11.57v51.352c-14.859-5.2188-23.258-11.324-23.258-17.164zm227.57 17.871v-51.363c9.1172-2.5273 17.703-6.6797 25.344-12.262v45.754c0 6.1055-9.1953 12.504-25.344 17.871zm-84.199-359.36h10.051v29.312h-10.051zm-7.8711 29.312h-10.051v-29.332h10.047zm-93.543-3.9375-0.003906-21.457c0-2.1758 1.7617-3.9375 3.9375-3.9375h71.688v29.312h-71.688c-2.1758 0-3.9375-1.7617-3.9375-3.9375zm119.34 3.9375-0.003906-29.332h14.738v29.312zm49.66-3.9375h-0.003906c0 1.0469-0.41406 2.0469-1.1523 2.7852s-1.7383 1.1523-2.7812 1.1523h-23.117v-29.332h23.117c1.043 0 2.043 0.41406 2.7812 1.1523s1.1523 1.7422 1.1523 2.7852zm131.21 346.62h-0.003906c0 1.0469-0.41406 2.0469-1.1523 2.7852-0.73828 0.73828-1.7383 1.1523-2.7812 1.1523h-19.43c-2.1719 0-3.9336-1.7617-3.9336-3.9375v-381.56c0-7.5391 6.1094-13.652 13.648-13.652 7.5391 0 13.648 6.1133 13.648 13.652z"/>
</svg>