<?xml version="1.0" encoding="UTF-8"?>
<!-- The Best Svg Icon site in the world: iconSvg.co, Visit us! https://iconsvg.co -->
<svg fill="#000000" width="800px" height="800px" version="1.1" viewBox="144 144 512 512" xmlns="http://www.w3.org/2000/svg">
 <path d="m437.39 229.63c-5.6914-1.6836-10.133-5.4414-12.184-10.297-5.8594-13.898-13.332-20.656-22.848-20.656s-16.988 6.7578-22.848 20.656c-2.0703 4.9141-6.1562 8.5586-11.211 10.016-65.879 18.938-111.89 89.195-111.89 170.86 0 81.91 46.184 152.21 112.31 170.97 4.8125 1.3672 8.6797 4.8281 10.621 9.4961 5.8828 14.168 13.418 21.055 23.016 21.055s17.125-6.8867 23.016-21.055c1.9414-4.6719 5.8125-8.1328 10.621-9.4961 66.125-18.758 112.31-89.062 112.31-170.97 0.003906-81.086-45.609-151.23-110.91-170.57zm-4.1406 331.86c-7.7852 2.207-14.047 7.793-17.176 15.32-6.1719 14.848-11.844 14.848-13.707 14.848-1.8633 0-7.543 0-13.707-14.844-3.125-7.5273-9.3867-13.113-17.176-15.324-61.816-17.531-104.98-83.855-104.98-161.28 0-77.195 43.012-143.47 104.6-161.17 7.9961-2.2969 14.449-8.0508 17.707-15.781 6.1094-14.496 11.719-14.496 13.562-14.496s7.4531 0 13.562 14.496c3.2305 7.6523 10.004 13.496 18.602 16.047 61.062 18.086 103.7 84.254 103.7 160.91 0 77.426-43.172 143.75-104.98 161.28z"/>
</svg>