<?xml version="1.0" encoding="UTF-8"?>
<!-- The Best Svg Icon site in the world: iconSvg.co, Visit us! https://iconsvg.co -->
<svg fill="#000000" width="800px" height="800px" version="1.1" viewBox="144 144 512 512" xmlns="http://www.w3.org/2000/svg">
 <g>
  <path d="m535.48 493c9.2383-18.531 14.059-38.949 14.082-59.656v-49.09c0-2.0859-0.82812-4.0898-2.3047-5.5664-1.4766-1.4766-3.4805-2.3047-5.5664-2.3047-17.219-0.046874-33.738 6.7969-45.879 19.004l-4.6133 4.6133h-138.44v-196.8c-0.011719-10.438-4.1641-20.441-11.543-27.82s-17.383-11.527-27.816-11.543h-39.359c-7.168 0.011718-14.121 2.4609-19.711 6.9531-5.5898 4.4883-9.4805 10.746-11.039 17.742l-30.699 5.125c-6.875 1.1523-12.707 5.6914-15.508 12.074-2.8008 6.3828-2.1914 13.75 1.6172 19.586 3.8086 5.8398 10.305 9.3594 17.273 9.3711h58.066v212.54c0.03125 22.148 7.2422 43.691 20.551 61.395 13.305 17.707 31.992 30.625 53.258 36.816l-9.3203 43.484h-9.3867c-6.2617 0-12.27 2.4883-16.695 6.918-4.4297 4.4297-6.918 10.438-6.918 16.699v15.746c0 2.0859 0.82812 4.0898 2.3047 5.5664 1.4766 1.4727 3.4805 2.3047 5.5664 2.3047h157.44c2.0859 0 4.0898-0.83203 5.5664-2.3047 1.4766-1.4766 2.3047-3.4805 2.3047-5.5664v-15.746c0-6.2617-2.4883-12.27-6.918-16.699-4.4297-4.4297-10.434-6.918-16.699-6.918h-6.0078l8.6602-40.289c33.559-4.4531 62.695-25.309 77.73-55.637zm-98.676-77.258c12.391-0.007813 24.062 5.8242 31.488 15.746h-76.172v15.742h83.547l7.8711 23.617h-126.84c-7.293-0.003906-14.289-2.8945-19.453-8.043-5.1602-5.1523-8.0742-12.141-8.0938-19.43-0.019531-7.293 2.8516-14.297 7.9844-19.477 5.1602-5.2383 12.211-8.1758 19.562-8.1562zm-220.83-196.8c-2.5586 0.003906-4.6914-1.9648-4.8984-4.5156-0.20703-2.5547 1.5859-4.8359 4.1133-5.2461l36.551-6.0938c3.7852-0.64063 6.5547-3.918 6.5547-7.7617 0-4.1758 1.6602-8.1797 4.6133-11.133 2.9531-2.9492 6.957-4.6094 11.133-4.6094v39.359zm73.809 228.29v-267.65h23.617c6.2617 0 12.27 2.4883 16.699 6.918 4.4297 4.4258 6.918 10.434 6.918 16.699v201.73c-11.629 5.9102-19.965 16.762-22.672 29.52-2.7109 12.762 0.49609 26.062 8.7188 36.188 8.2266 10.125 20.586 15.988 33.633 15.949h137.76c2.5312 0 4.9062-1.2188 6.3828-3.2695 1.4805-2.0508 1.8828-4.6914 1.082-7.0898l-12.855-38.574v0.003906c-2.7578-8.293-7.4531-15.805-13.695-21.918h19.086c2.0898 0 4.0898-0.82813 5.5664-2.3047l6.9219-6.9219c7.2773-7.3125 16.684-12.133 26.875-13.766v40.598-0.003906c-0.023438 18.262-4.2773 36.27-12.422 52.609-7.1484 14.418-18.191 26.547-31.879 35.008-13.691 8.4609-29.477 12.918-45.566 12.863h-67.574c-22.957-0.027344-44.969-9.1602-61.199-25.395-16.234-16.23-25.367-38.242-25.395-61.199zm102.34 141.7c-2.1016 0.03125-4.1914 0.34375-6.2109 0.9375l8.6367-40.297h15.391l-8.4297 39.359zm-28.859-40.297h0.003906c4.3438 0.59375 8.7266 0.90625 13.113 0.9375h2.0703l-8.4375 39.359h-15.383zm-41.988 63.914c0-4.3477 3.5234-7.8711 7.8711-7.8711h40.809c-0.92969 2.5195-1.4219 5.1836-1.4453 7.8711v7.8711h-47.234zm141.7 0v7.8711h-78.719v-7.8711c0-4.3477 3.5234-7.8711 7.8711-7.8711h62.977c2.0898 0 4.0898 0.82812 5.5664 2.3047 1.4766 1.4766 2.3086 3.4805 2.3086 5.5664zm-45.367-23.617 8.4297-39.359h15.391l-8.4375 39.359z"/>
  <path d="m305.54 195.32h15.742v15.742h-15.742z"/>
 </g>
</svg>