<?xml version="1.0" encoding="UTF-8"?>
<!-- The Best Svg Icon site in the world: iconSvg.co, Visit us! https://iconsvg.co -->
<svg fill="#000000" width="800px" height="800px" version="1.1" viewBox="144 144 512 512" xmlns="http://www.w3.org/2000/svg">
 <g>
  <path d="m390.33 520.88c-0.023437-3.3398-0.042969-6.6641-0.070312-10.008v-0.003906c-1.0156 0.125-2.0117-0.34766-2.5547-1.2148-2.4844-3.75-5.043-7.4062-7.6445-11.02 1.5 3.875 2.6406 7.8789 3.4062 11.965 0.45312 2.8945 1.1484 5.6406 1.6953 8.4805 0.17578 0.98828 2.9023 1.5391 5.168 1.8008zm-1.5742-219.63c-0.046874-8.1211-0.09375-16.234-0.14062-24.34-22.387 0-43.816 1.3867-64.051 11.965l-0.19141 0.074219-0.003906 7.1328c0 5.2109-0.16406 10.582-0.35547 16.055 11.18-3.543 21.328-8.3359 33.203-9.9375h0.003906c10.469-1.1406 21.016-1.4648 31.535-0.96484zm-28.57 147.21c9.3398-11.086 17.848-23.82 29.145-32.922 0.09375-0.070312 0.21094-0.14062 0.33203-0.21484 0-1.1797-0.023437-2.3633-0.023437-3.543v-0.003906c-4.2148 5.3281-8.7773 10.371-13.652 15.102-6.3555 6.0469-10.965 13.594-17.156 19.754 0.44531 0.59766 0.90234 1.1953 1.3555 1.8164zm121.86-152.38c0 21 2.1055 44.477-1.8633 65.172l0.003906 0.003907c-0.14844 0.875-0.79297 1.582-1.6484 1.8125 0.23828 39.395 1.4375 78.738 2.1953 118.14 0.48047 25.301 0.95703 50.504 1.4844 75.805 0.33594 15.047 1.5312 30.074 0.76172 45.055 1.4336 0.19922 2.8867 0.25391 4.332 0.16406h0.027344c0.023437 0.097656 0.023437 0 0.023437 0h-0.023437v-0.023437c-0.027344-0.71484 0.21094-0.85938 0.57031-1.2891 1.4102-10.391-0.57031-22.598-0.64062-32.824-0.074219-14.051-0.16016-28.113-0.26562-42.191-0.19531-26.781-0.42578-53.555-0.69141-80.316-0.50391-51.648-0.95703-103.3-0.95703-154.95-1.0742-0.30859-2.1836-0.48438-3.3008-0.52734zm-6.6133 195.87c-2.2734-1.5664-4.2422-3.5352-5.8086-5.8086-2.8672-4.1055-6.6406-7.0859-9.7969-10.867-2.3828-2.6719-4.5156-5.5586-6.375-8.6211-1.2695-1.9883-2.7852-3.8008-4.5156-5.4023-0.69141 0.88672-1.3867 1.7656-2.1016 2.6523 2.832 2.1133 5.4414 4.5078 7.7891 7.1445 2.5312 3.3164 5.3008 6.6641 8.0508 9.793 4.1797 4.7539 8.7695 9.3633 12.828 14.262zm-51.695 13.449c-0.71875 2.6758-1.3633 5.3516-1.9688 8.0547 16.844-0.35938 47.348 0.85938 54.133 1.1445-0.070313-3.9375-0.14063-7.832-0.23438-11.754h-0.003906c-0.76172-0.10938-1.4414-0.53906-1.8672-1.1836-4.8242-6.5938-11.18-12.137-16.293-18.539l0.003906 0.003906c-4.3242-5.3047-9.0273-10.289-14.07-14.91 0 0-13.129 16.797-14.309 19.031-2.4766 5.8281-4.2852 11.918-5.3906 18.152zm51.441-26.543c-0.33984-17.078-0.74219-34.16-1.125-51.219-6.832 10.031-14.141 19.711-21.648 29.219 1.8438 1.5977 3.4805 3.418 4.8711 5.4219 1.8516 3.2344 4.0039 6.2812 6.4297 9.1055 2.4609 2.9609 5.4219 5.3945 8 8.2656 1.3398 1.4805 2.3633 3.1055 3.543 4.6328 0.011718-1.8164-0.03125-3.6328-0.070313-5.4258zm-1.5547-72.312c-0.19531-9.3906-0.34766-18.781-0.45703-28.168-5.5625 18.703-13.973 36.434-21.164 54.637 5.543-6.9766 11.02-14 16.172-21.309h0.003906c1.2812-2.2109 3.1797-4.0039 5.4609-5.1602zm-62.121-129.65c-0.046875 8.1211-0.070312 16.219-0.14453 24.34 11.879-0.84766 23.82-0.29297 35.57 1.6523 9.6914 2.5156 19.246 5.5391 28.621 9.0508-0.33203-6.9766-0.66797-13.879-0.66797-20.52v-2.582c-19.992-10.438-39.992-11.895-63.379-11.941zm56.043-66.316c-17.871-12.969-37.465-23.383-58.215-30.938-0.53906-0.1875-1.0078-0.53906-1.3398-1.0039-3.1641-0.47656-6.3828-0.4375-9.5312 0.11719-2.3281 0.40625-4.6836 0.61328-7.0469 0.625h-0.023437c-0.16797 0-0.36328 0.1875-0.57422 0.28516v-0.003907c-21.445 7.7734-41.645 18.633-59.961 32.227 24.34-4.9453 49.426-5.3945 74.152-5.3945 21.188 0 42.164-1.125 62.539 4.0859zm-56.734 288.87c-0.26562 0.31641-0.58984 0.57812-0.95703 0.76562 0 1.1797 0 2.3438-0.023437 3.543 19.902-29.289 44.293-55.105 63.547-84.879v-0.003906c0.13281-0.20312 0.29297-0.38672 0.47656-0.55078-0.042968-1.8398-0.070312-3.6797-0.09375-5.543h-0.003906c-2.0547 2.7109-3.9258 5.5625-5.5859 8.5312-2.625 3.5117-5.3008 7.0234-8.0547 10.438-6.7578 8.457-13.902 16.723-20.074 25.637-9.8086 14.043-18.555 28.637-29.23 42.062zm13.332-72.574c-4.5625-5.043-9.293-9.9844-13.664-15.215 0 1.2148 0 2.4375-0.023437 3.6523l0.35938 0.21484c11.277 9.1016 19.754 21.785 29.098 32.875 0.45312-0.59766 0.90625-1.1797 1.3867-1.793-6.1445-6.0469-11.383-13.383-17.16-19.734zm-4.0703 71.742c-2.6016 3.6289-5.1602 7.2852-7.6211 11.02h0.003906c-0.55859 0.89062-1.5898 1.3672-2.6289 1.2148 0 3.3438-0.023438 6.668-0.023438 10.008 2.2656-0.26172 4.9961-0.8125 5.1836-1.8164 0.55078-2.8438 1.2422-5.5898 1.6953-8.4805v0.003906c0.77344-4.0781 1.9102-8.0781 3.3906-11.949zm-8.0273-93.676 0.003906-0.003906c5.4141 7.0234 11.355 13.621 17.773 19.734 5.0859 4.8008 8.8125 10.82 13.449 16.027 9.5273-26.328 23.027-51.434 28.426-79.051-8.0664-2.8125-16.352-4.9609-24.773-6.4258-11.941-1.125-23.934-1.625-35.93-1.5039-0.15625 16.727-0.30469 33.465-0.44922 50.211 0.58984 0.16797 1.1133 0.52344 1.4844 1.0117zm24.531 48.02c-4.4688-5.1836-8.9805-10.297-13.332-15.621l0.007812-0.003906c-3.957-5.2148-8.2422-10.172-12.828-14.84-0.070313 9.4141-0.16797 18.824-0.23828 28.238-0.09375 13.645-0.17969 27.277-0.26172 40.898 9.4375-12.488 17.535-25.938 26.637-38.672zm-25.457-118.7c-0.023438 4.6562-0.070313 9.3164-0.09375 13.949 11.508-0.35938 23.023 0.070312 34.473 1.293 9.6133 1.625 19.09 3.9922 28.34 7.0859 0.33203-0.27344 0.72656-0.46875 1.1484-0.57422 0.58984-4.0547 0.96875-8.1367 1.1445-12.23-20.512-6.8398-42.082-9.9453-63.688-9.1719-0.46484 0.015624-0.92578-0.10547-1.3242-0.35156zm0.21094-27.551c-0.042969 7.5781-0.11719 15.145-0.16406 22.719 0.38672-0.21484 0.82422-0.33203 1.2695-0.33594 21.648-0.76172 43.266 2.2539 63.879 8.9141 0.09375-6.6914-0.14453-13.473-0.48047-20.23h-0.023437c-10.234-3.1484-19.637-7.7891-30.34-9.6328h0.003906c-11.309-1.5664-22.742-2.0391-34.141-1.4141zm64.102-87.965c-22.742-8.2422-46.562-6.7578-70.426-6.7578-26.875 0-54.254 0.45312-80.484 6.9258-0.54688 4.4844-0.77734 9.0039-0.69531 13.52 10.535-6.2109 23.84-5.8047 35.645-7.6211v0.003906c13.492-2.3789 27.148-3.7109 40.848-3.9922 13.738 0 26.184-0.14062 39.465 3.6797 11.781 3.3945 23.961 5.3516 35.859 8.5781h0.003906c0.33594-4.7773 0.26562-9.5742-0.21484-14.336zm-0.09375 19.902c-23.059-6.7227-46.605-12.332-70.613-12.332-14.266 0-27.695 2.7227-41.836 3.7031-12.395 0.86328-27.879 1.1797-38.316 8.457v0.003906c-0.19531 0.13672-0.40234 0.25-0.625 0.33594 0.19141 5.1172 0.42969 10.234 0.42969 15.121v7.2852c19.586-13.211 49.953-14.453 72.266-14.734 14.562-0.16406 29.98-0.5 44.027 3.9922 11.059 3.5117 23.293 4.8477 34.207 8.8125l0.003906-10.047c0-3.4336 0.21484-6.9922 0.45312-10.602zm-69.234 23.191c-1.9258-0.43359-3.9023-0.63281-5.8789-0.59766-1.6797-0.21094-3.3828-0.19531-5.0625 0.046875-0.39453 0.14062-0.78906 0.26562-1.1484 0.35938 0.28906 63.047 0.98047 126.07 1.4336 189.09 0.23828 33.207 0.41406 66.402 0.52734 99.582 0.023438 14.242 0.47656 28.547-0.57422 42.789-0.88281 12.16 0.57422 24.344 0.11719 36.551v-0.003906c0.12109 0.011719 0.24219 0.035156 0.36328 0.070312 1.4258 0.26563 2.8828 0.33203 4.3281 0.19531 1.4492 0.17578 2.9219 0.10938 4.3477-0.19531 0-0.011718 0.011718-0.023437 0.023437-0.023437-0.57031-13.02 0.64453-26.016-0.070313-39.035-0.83984-15.004-0.39453-30.078-0.35937-45.102 0.09375-31.605 0.26172-63.227 0.5-94.859 0.5-62.91 1.168-125.89 1.4531-188.86zm-17.824-92.258c-2.5781-0.11719-2.4805 3.8984-2.2188 6.0469 1.0508-0.39453 2.1016-0.83984 3.1758-1.2422v-0.003906c0.21094-0.14844 0.44531-0.26172 0.69141-0.33594 1.4844-0.41406 3.0312-0.55859 4.5664-0.42969 1.9336 0.046875 3.7969-0.57422 5.7305-0.57422 3.6445-0.35547 7.3242-0.12109 10.895 0.69531 0.67578 0.22656 1.2383 0.70703 1.5742 1.3359l4.9219 1.9375c0.09375-2.3633 0.070313-5.6641-0.71484-5.6875h-0.003907c-3.7773-0.078125-7.543-0.49609-11.25-1.2383-5.7695-0.59766-11.574-0.76562-17.367-0.50391zm0.66797 159.87c-0.046874-7.5742-0.11719-15.141-0.16406-22.719-12.773-0.68359-25.582 0.097656-38.18 2.3203-9.1758 1.8672-17.371 6.0234-26.281 8.7461-0.15625 0.039063-0.31641 0.070313-0.47656 0.09375-0.23828 6.7344-0.39453 13.52-0.23828 20.211 20.672-6.707 42.355-9.7461 64.074-8.9883 0.44141 0.003906 0.87891 0.12109 1.2656 0.33594zm1.2188 162.14c-0.070312-13.617-0.14453-27.234-0.21484-40.852-0.070313-9.4102-0.14844-18.82-0.23438-28.238-4.6406 4.625-8.9297 9.582-12.832 14.84-4.2734 5.418-8.8828 10.484-13.383 15.691 9.0547 12.734 17.23 26.113 26.66 38.559zm-65.793-223.68v14.934c20.379-9.8906 41.723-11.441 64.219-11.441-0.027344-3.6094-0.050782-7.1914-0.074219-10.801 0.007813-0.48047 0.14453-0.95312 0.39453-1.3633-0.10156-0.58594 0.054688-1.1914 0.42188-1.6602 0.37109-0.46875 0.92188-0.75781 1.5156-0.80078 1.5117-0.42578 3.0508-0.74609 4.6094-0.95312h4.7773c3.0859-0.10938 6.1641 0.32031 9.1055 1.2656 0.94141 0.28906 1.6445 1.082 1.8125 2.0547 0.30078 0.42578 0.45703 0.93359 0.45312 1.457 0 3.6094-0.046875 7.1914-0.046875 10.801 22.312 0.046875 43.34 1.6445 63.332 11.227v-17.488c-5.7266-1.7852-11.559-3.2148-17.461-4.2773-6.1172-1.5312-12.113-3.5625-18.203-5.0898-13.941-3.3047-28.281-4.5781-42.586-3.7734-22.043 1.0742-53.586 0.91016-71.812 15.625-0.14062 0.11328-0.29297 0.20703-0.45703 0.28516zm0.097656 234.93c-0.070312 3.9375-0.16797 7.8711-0.23828 11.809 18.18-0.11719 36.289-1.6211 54.039-1.1797-0.73828-3.5117-1.5977-6.9258-2.4102-10.465-3.2031-14.168-10.086-23.387-19.141-34.781v-0.003907c-5.0273 4.6406-9.7266 9.6211-14.066 14.91-5.1836 6.3281-11.492 11.965-16.297 18.539v-0.003906c-0.4375 0.64062-1.1211 1.0664-1.8867 1.1758zm1.7422-146.32 0.003906-0.003907c9.1406-3.043 18.5-5.3789 27.996-6.9961 11.523-1.0508 23.094-1.4844 34.664-1.293 0.09375 0 0.14453 0.046875 0.23828 0.046875-0.046875-4.6562-0.070312-9.3398-0.11719-13.996-0.39453 0.23828-0.85547 0.35547-1.3164 0.33594-21.676-0.78516-43.316 2.3438-63.879 9.2422 0.21484 4.1094 0.59766 8.1719 1.1797 12.137 0.44922 0.070312 0.875 0.25 1.2344 0.52344zm26.492-1.2891 0.003906-0.003906c-8.2109 1.6406-16.32 3.7812-24.273 6.4023 5.3984 27.645 18.895 52.742 28.43 79.074 4.6328-5.207 8.3828-11.203 13.449-16.027 6.418-6.1133 12.363-12.711 17.777-19.734 0.375-0.48437 0.89062-0.83594 1.4766-1.0117-0.14062-16.742-0.28516-33.48-0.42969-50.215-0.09375 0-0.16797 0.023438-0.26562 0.023438h0.003906c-12.074-0.5625-24.18-0.066407-36.168 1.4883zm-25.777 23.152c-0.11719 9.3867-0.26562 18.801-0.42969 28.191 3.582 1.5039 5.4453 5.3242 7.7852 8.5781 4.3984 6.1406 9.1055 12.016 13.836 17.895-7.1875-18.215-15.598-35.965-21.188-54.668zm-0.54688 34.242c-0.050781 1.8906-0.074218 3.8008-0.097656 5.6875l0.003906-0.003906c0.16797 0.16797 0.32031 0.35156 0.45312 0.55078 19.258 29.777 43.621 55.578 63.5 84.82-0.023437-1.1797-0.023437-2.3164-0.023437-3.4922v0.003906c-0.34766-0.17578-0.65234-0.42969-0.88281-0.74219-10.703-13.426-19.164-28.238-29.219-42.066-7.2148-9.9141-15.098-19.285-22.695-28.883-1.9688-2.5078-7.2148-12.449-11.023-15.867zm-1.5586 71.75c1.5898-2.2461 3.2969-4.4062 5.1172-6.4727 2.7305-2.543 5.3125-5.2383 7.7383-8.0742 2.3906-2.918 4.1094-6.0469 6.1875-9.1523 1.1406-1.3945 2.4141-2.6758 3.8008-3.8203-7.4766-9.5312-14.793-19.184-21.621-29.219-0.39453 17.895-0.83984 35.785-1.1797 53.656zm14.246-7.6289c-4.8945 4.7539-8.7656 11.277-14.379 15.168-0.027344 1.0742-0.050781 2.1523-0.074219 3.2266 4.1328-4.875 8.793-9.3398 12.832-14.312 2.6758-3.25 5.5117-6.4492 8.0508-9.793l-0.003906 0.003907c2.3477-2.6367 4.957-5.0312 7.7891-7.1445-0.69141-0.86328-1.3633-1.7188-2.0352-2.582-1.8164 2.293-3.6289 4.5391-5.3945 6.9023v0.003906c-2.0234 3.0234-4.293 5.875-6.7852 8.5273zm-26.23 96.039c-0.046876 8.7891-1.7422 19.156-0.62109 28.137v0.003907c0.40234 0.47656 0.60938 1.0938 0.57422 1.7188 0 0.14453-0.023437 0.28906-0.023437 0.45703 0.21094-0.019531 0.42578-0.027344 0.64062-0.023438 1.2578-0.11719 2.5039-0.31641 3.7305-0.59766-0.78906-15.504 0.47656-31.344 0.78906-46.945 0.54688-25.559 1.0547-51.113 1.5273-76.66 0.73828-38.676 1.9141-77.355 2.125-116.03-0.51562-0.37891-0.85547-0.94531-0.95312-1.5742-4.2773-22.195-1.0312-47.375-1.0312-69.852v-1.3867c-1.6211-0.066406-3.2461 0.09375-4.8203 0.47656 0 53.273-0.48047 106.52-0.98047 159.8-0.26172 26.781-0.49219 53.555-0.69141 80.316-0.097656 14.047-0.1875 28.102-0.26562 42.16zm-5.4492 32.582c-1.8867-8.957-0.11719-18.824-0.070313-27.945 0.070313-14.023 0.15234-28.047 0.23828-42.066 0.1875-28.359 0.4375-56.707 0.73828-85.051 0.5-53.68 0.98047-107.36 0.98047-161.04h0.003906c-0.035156-0.9375 0.47656-1.8125 1.3125-2.2461 0.26953-0.77734 0.90234-1.375 1.6953-1.6016 2.375-0.66797 4.8398-0.96484 7.3086-0.88281v-39.988c-0.66016-9.5469-0.62891-19.125 0.097656-28.668-0.35547-0.9375-0.054687-1.9961 0.74219-2.6055 18.086-15.043 38.488-27.062 60.418-35.594-0.046874-0.22656-0.078124-0.46094-0.097656-0.69141 0-4.7773-1.7695-11.348 3.8945-12.879 3.1484-0.28906 6.3164-0.20703 9.4453 0.23828 3.5703-0.30469 7.1641-0.28906 10.73 0.050782 4.0117 0.81641 8.0273 1.1797 12.062 1.6719 1.8398 0.21484 3.5117 0.046875 4.8945 1.4336 2.4844 2.4844 1.2148 9.2461 1.1797 11.73l0.003906-0.003906c20.434 8.3047 39.469 19.703 56.43 33.805 0.84766 0.23828 1.4688 0.96484 1.5742 1.8359 1.3047 11.402 1.6641 22.895 1.0742 34.355v35.379c1.7383 0.066406 3.4648 0.33984 5.1367 0.8125 0.69531 0.19531 1.2773 0.67188 1.6016 1.3125 1.2227 0.21484 2.0977 1.2969 2.0547 2.5352 0 55.254 0.52344 110.51 1.0508 165.75 0.26172 28.355 0.49219 56.711 0.69141 85.07 0.09375 14 0.17578 28.004 0.23828 42 0.023438 7.7617 1.5273 15.621-0.09375 23.266h0.003906c-0.070312 0.33203-0.20703 0.64844-0.39453 0.93359-0.53516 1.1953-1.6758 2.0078-2.9805 2.125-2.8125 0.25781-5.6445 0.007813-8.3672-0.73828-0.35547-0.082031-0.69531-0.22656-1.0039-0.42969-0.71484 0.078124-1.4258-0.17578-1.9336-0.6875-0.50781-0.51172-0.75391-1.2266-0.66797-1.9414 1.0273-16.137-0.35938-32.824-0.69141-49.094-0.24219-11.809-0.47266-23.602-0.69141-35.379-18.684-0.070313-37.102-1.668-55.352-1.1797-0.027343 0-0.050781-0.023438-0.09375-0.023438-1.1016 5.7344-5.4727 6.9492-10.801 7.4531-0.046875 7.9766-0.09375 15.957-0.09375 23.934-0.046875 14.242-0.48047 28.547 0.54688 42.789 0.98047 13.332-0.90625 26.734 0.046875 40.086l-0.003906-0.003907c0 1.5234-1.2305 2.7539-2.7539 2.7539-1.6641 0.24219-3.3477 0.26562-5.0195 0.078125-0.55859-0.023438-1.0938-0.22656-1.5312-0.57812-0.26562-0.023438-0.5-0.023438-0.73828-0.023438-0.39453 0.023438-0.73828 0.023438-1.0977 0.046875-0.42578 0.33203-0.94531 0.52344-1.4844 0.55469-1.6758 0.1875-3.3672 0.16406-5.0391-0.078125-1.5195 0-2.7539-1.2305-2.7539-2.7539 1.0039-14.168-0.52344-28.34 0.26562-42.508 0.83594-15.004 0.39453-30.078 0.33594-45.102-0.023438-6.4023-0.070313-12.809-0.097657-19.184-5.707-0.57422-9.5039-2.0312-11.02-7.4766-0.074219 0-0.14453 0.046875-0.21484 0.046875-16.055-0.42969-46.703 0.76172-54.992 1.0977-0.26562 12.375-0.48047 24.773-0.73828 37.148-0.33594 15.719-1.6719 31.801-0.64453 47.398l-0.011718-0.003907c0.070312 0.71484-0.17969 1.4258-0.69141 1.9375-0.50781 0.50781-1.2227 0.76172-1.9375 0.69141-0.29688 0.20312-0.62891 0.34766-0.98047 0.42969-2.8438 0.91016-5.8672 1.1406-8.8164 0.66797-1.0547-0.26953-1.9453-0.97266-2.457-1.9336-0.22266-0.3125-0.37109-0.67188-0.44141-1.0508z"/>
  <path d="m487.35 602.23s0 0.097657-0.023437 0z"/>
 </g>
</svg>