<?xml version="1.0" encoding="UTF-8"?>
<!-- The Best Svg Icon site in the world: iconSvg.co, Visit us! https://iconsvg.co -->
<svg fill="#000000" width="800px" height="800px" version="1.1" viewBox="144 144 512 512" xmlns="http://www.w3.org/2000/svg">
 <g>
  <path d="m203.51 601.52h392.97c2.7852 0 5.0391-2.2578 5.0391-5.0391v-145.48c0-2.7812-2.2539-5.0391-5.0391-5.0391-16.012 0-31.363-0.21484-45.762-0.62109v-54.527c0-15.07-10.797-27.766-25.426-30.137l-97.492-20.812-19.895-107.11c8.0156-1.5078 14.113-8.5312 14.113-16.977 0-9.543-7.7656-17.301-17.305-17.301l-146.27-0.003906c-9.543 0-17.301 7.7656-17.301 17.301 0 8.4141 6.0391 15.426 14.012 16.969v94.234h-10.926c-2.7852 0-5.0391 2.2578-5.0391 5.0391v22.223c0 2.7812 2.2539 5.0391 5.0391 5.0391h10.926v36.023c0 0.089844 0.046875 0.16797 0.050782 0.25-4.7656 6.1758-8.5391 13.133-11.078 20.672-12.855-0.31641-26.492-0.48047-40.621-0.48047-2.7852 0-5.0391 2.2578-5.0391 5.0391l-0.003906 175.7c0.007812 2.7812 2.2578 5.0391 5.043 5.0391zm337.14-210.7v78.832h-10.594c0.039062-0.76953 0.11719-1.5352 0.11719-2.3164 0-23.527-19.141-42.668-42.668-42.668s-42.668 19.141-42.668 42.668c0 0.78125 0.074218 1.5469 0.11719 2.3164h-18.383v-38.117c0-33.477-15.875-63.254-40.43-82.402h36.789l100.5 21.441c9.9727 1.6289 17.215 10.137 17.215 20.246zm-20.559 76.512c0 17.973-14.621 32.59-32.59 32.59-17.973 0-32.59-14.621-32.59-32.59 0-17.973 14.621-32.59 32.59-32.59 17.973 0 32.59 14.621 32.59 32.59zm-268.86-251.55c0-3.9844 3.2461-7.2266 7.2266-7.2266h146.26c3.9844 0 7.2305 3.2461 7.2305 7.2266 0 3.9805-3.2461 7.2266-7.2305 7.2266l-146.27-0.003906c-3.9805 0-7.2188-3.2383-7.2188-7.2227zm14.008 17.301h132.48l19.688 105.98h-46.758c-14.547-7.6797-31.074-12.078-48.633-12.078h-56.773zm-15.965 103.97h72.738c52.098 0 94.48 42.387 94.48 94.48v50.035h-12.141v-45.551c0-47.871-38.945-86.816-86.816-86.816h-68.262zm68.258 22.227c42.316 0 76.742 34.426 76.742 76.742v33.633h-18.746c4.5039-9.332 7.1055-19.746 7.1055-30.781 0-39.223-31.906-71.129-71.129-71.129-17.664 0-33.812 6.5156-46.266 17.211v-25.68l52.293-0.003907zm-67.082 79.59c0-33.664 27.391-61.051 61.051-61.051s61.051 27.387 61.051 61.051c0 33.664-27.391 61.051-61.051 61.051s-61.051-27.387-61.051-61.051zm-8.8906-12.613c-0.74219 4.1016-1.1875 8.3047-1.1875 12.617 0 11.586 2.8477 22.512 7.7852 32.188l-11.895-0.003906c-2.7852 0-5.0391 2.2578-5.0391 5.0391s2.2539 5.0391 5.0391 5.0391h18.164c12.973 17.473 33.695 28.863 57.078 28.863 24.012 0 45.242-11.996 58.129-30.27h24.641v6.8711c0 2.7812 2.2539 5.0391 5.0391 5.0391h22.219c2.7852 0 5.0391-2.2578 5.0391-5.0391v-6.8711h20.117c5.3242 17.496 21.598 30.27 40.82 30.27 19.219 0 35.492-12.773 40.82-30.27h17.367c2.7852 0 5.0391-2.2578 5.0391-5.0391v-19.262c12.891 0.36328 26.527 0.57031 40.723 0.60938v67.707l-136.29 0.003906c-2.7852 0-5.0391 2.2578-5.0391 5.0391s2.2539 5.0391 5.0391 5.0391l136.27-0.003907v57.625h-382.89v-21.723h136.34c2.7852 0 5.0391-2.2578 5.0391-5.0391s-2.2539-5.0391-5.0391-5.0391h-136.34v-133.82c11.441 0.03125 22.445 0.19141 33.008 0.42969z"/>
  <path d="m371.98 564.68c0 2.7812 2.2539 5.0391 5.0391 5.0391h107.56c2.7852 0 5.0391-2.2578 5.0391-5.0391s-2.2539-5.0391-5.0391-5.0391h-107.56c-2.7852 0-5.0391 2.2578-5.0391 5.0391z"/>
  <path d="m297.66 533.82h125.39c2.7852 0 5.0391-2.2578 5.0391-5.0391s-2.2539-5.0391-5.0391-5.0391l-125.39 0.003906c-2.7852 0-5.0391 2.2578-5.0391 5.0391 0 2.7773 2.2539 5.0352 5.0391 5.0352z"/>
 </g>
</svg>