<?xml version="1.0" encoding="UTF-8"?>
<!-- The Best Svg Icon site in the world: iconSvg.co, Visit us! https://iconsvg.co -->
<svg fill="#000000" width="800px" height="800px" version="1.1" viewBox="144 144 512 512" xmlns="http://www.w3.org/2000/svg">
 <g>
  <path d="m558.23 465.18c-0.88281-0.039063-21.941-1.0586-32.355 11.645-10.418 12.699-5.3047 33.145-5.0781 34.008 0.55078 2.125 2.4102 3.6523 4.6016 3.7734 0.13672 0.003906 0.74219 0.035156 1.7148 0.035156 5.3711 0 21.82-0.92188 30.641-11.68 10.414-12.699 5.3008-33.145 5.0781-34.008-0.55078-2.125-2.4102-3.6523-4.6016-3.7734zm-8.2734 31.395c-5.0078 6.1094-14.691 7.5781-20.102 7.8984-0.74219-5.375-1.1992-15.156 3.8086-21.266 5.0078-6.1055 14.688-7.5703 20.102-7.8984 0.73828 5.3789 1.1992 15.16-3.8086 21.266z"/>
  <path d="m405.94 478.59c6.3398 5.1992 14.605 6.5312 21.406 6.5312 6.8203 0 12.172-1.3398 12.602-1.4492 2.125-0.55078 3.6523-2.4102 3.7734-4.6016 0.050781-0.89062 1.0586-21.941-11.637-32.355-12.699-10.414-33.152-5.3047-34.008-5.0781-2.125 0.55078-3.6523 2.4102-3.7734 4.6016-0.054687 0.89062-1.0625 21.941 11.637 32.352zm19.75-24.086c6.1016 5.0039 7.5703 14.672 7.8984 20.094-5.3867 0.72656-15.199 1.1758-21.262-3.7969-6.1055-5.0078-7.5703-14.688-7.8984-20.102 5.375-0.75 15.156-1.2031 21.262 3.8047z"/>
  <path d="m395.89 504.6c-0.89844-0.050781-21.941-1.0625-32.359 11.637-10.414 12.699-5.3008 33.145-5.0781 34.008 0.55078 2.125 2.4102 3.6523 4.6016 3.7734 0.13672 0.003906 0.74609 0.035156 1.7148 0.035156 5.3711 0 21.82-0.92188 30.641-11.672 10.414-12.699 5.3008-33.145 5.0781-34.008-0.54688-2.125-2.4062-3.6523-4.5977-3.7734zm-8.2734 31.395c-5.0117 6.1055-14.691 7.5703-20.105 7.8984-0.74219-5.375-1.1992-15.156 3.8086-21.262 5.0117-6.1055 14.691-7.5703 20.105-7.8984 0.74219 5.375 1.1992 15.156-3.8086 21.262z"/>
  <path d="m215.75 476.9c-2.125 0.55078-3.6523 2.4102-3.7734 4.6016-0.050781 0.89062-1.0586 21.941 11.645 32.355 6.3398 5.1992 14.605 6.5312 21.406 6.5312 6.8203 0 12.172-1.3398 12.602-1.4492 2.125-0.55078 3.6523-2.4102 3.7734-4.6016 0.050781-0.89063 1.0586-21.941-11.637-32.355-12.711-10.414-33.156-5.3086-34.016-5.082zm14.254 29.16c-6.1055-5.0078-7.5703-14.688-7.8984-20.102 5.3711-0.74609 15.156-1.1992 21.262 3.8086 6.1016 5.0039 7.5703 14.672 7.8984 20.094-5.3867 0.72656-15.203 1.1719-21.262-3.8008z"/>
  <path d="m294.24 459.91v131.64h-10.898c-2.7812 0-5.0391 2.2578-5.0391 5.0391s2.2578 5.0391 5.0391 5.0391h32.102c2.7812 0 5.0391-2.2578 5.0391-5.0391s-2.2578-5.0391-5.0391-5.0391h-11.129l0.003906-131.62c39.055-2.0742 72.918-26.098 87.5-61.906 21.043 23.172 51.055 38.129 84.551 39.441v154.09h-10.695c-2.7812 0-5.0391 2.2578-5.0391 5.0391s2.2578 5.0391 5.0391 5.0391h32.102c2.7812 0 5.0391-2.2578 5.0391-5.0391s-2.2578-5.0391-5.0391-5.0391h-11.332v-154.11c63.926-2.7539 115.08-55.281 115.08-119.47 0-65.949-53.988-119.61-120.36-119.61-55.137 0-101.7 37.051-115.89 87.406-18.363-16.188-41.684-25.129-66.438-25.129-55.34 0-100.36 44.75-100.36 99.75 0 53.457 42.566 97.105 95.766 99.516zm186.93-251.46c60.809 0 110.28 49.133 110.28 109.53 0 58.637-46.633 106.65-105 109.4v-58.383l41.422-40.109c1.9961-1.9336 2.0508-5.125 0.10937-7.125-1.9336-2-5.125-2.0469-7.125-0.10938l-34.414 33.316v-46.75c0-2.7812-2.2578-5.0391-5.0391-5.0391s-5.0391 2.2578-5.0391 5.0391v82.348l-34.898-33.785c-2.0039-1.9336-5.1953-1.8828-7.125 0.10937-1.9336 2-1.8828 5.1875 0.10937 7.125l41.906 40.578v22.797c-58.57-2.5078-105.46-50.609-105.46-109.41 0-60.395 49.477-109.53 110.28-109.53zm-182.32 62.277c24.098 0 46.758 9.3164 63.809 26.227 0.015625 0.015625 0.039062 0.019531 0.054687 0.035156-1.2188 6.8203-1.8945 13.828-1.8945 20.988 0 26.57 8.7695 51.133 23.578 71.008-11.789 34.883-43.301 58.699-80.07 60.871v-58.473l37.781-36.578c1.9961-1.9336 2.0508-5.125 0.10938-7.125-1.9297-1.9961-5.125-2.0508-7.125-0.10938l-30.77 29.789v-41.77c0-2.7812-2.2578-5.0391-5.0391-5.0391s-5.0391 2.2578-5.0391 5.0391v74.352l-31.211-30.219c-2-1.9336-5.1875-1.8828-7.125 0.10938-1.9336 2-1.8828 5.1875 0.10938 7.125l38.219 37.004v25.875c-47.633-2.3945-85.68-41.535-85.68-89.438 0-49.449 40.508-89.672 90.293-89.672z"/>
 </g>
</svg>