<?xml version="1.0" encoding="UTF-8"?>
<!-- The Best Svg Icon site in the world: iconSvg.co, Visit us! https://iconsvg.co -->
<svg fill="#000000" width="800px" height="800px" version="1.1" viewBox="144 144 512 512" xmlns="http://www.w3.org/2000/svg">
 <path d="m622.48 367.74-75.68 12.609c-18.812 3.1484-33.754 17.176-38.055 35.77l-20.277 87.867v-86.324c9.793-3.3047 16.91-12.484 16.91-23.379 0-13.664-11.117-24.781-24.781-24.781l-253.64 0.003906c-13.664 0-24.781 11.117-24.781 24.781 0 13.664 11.117 24.781 24.781 24.781h4.832l67.465 121.54-17.238 3.4492c-8.0312-22.781-29.566-39.266-55.059-39.266-32.309 0-58.598 26.293-58.598 58.598 0 32.324 26.293 58.613 58.598 58.613 32.309 0 58.598-26.293 58.598-58.613 0-1.3398-0.30078-2.5977-0.39453-3.9062l26.055-5.2109c0.09375 0 0.1875 0.078124 0.28516 0.078124 0.50391 0 1.0234-0.046874 1.543-0.15625l87.93-17.586 51.277 64.141c3.4961 4.3594 8.6289 6.8008 14.043 6.8008 1.3398 0 2.707-0.15625 4.0625-0.45703 6.8164-1.5586 12.027-6.7539 13.602-13.555l40.117-173.85c2.8672-12.359 12.801-21.695 25.285-23.789l75.68-12.609c4.2812-0.70703 7.1953-4.7695 6.4727-9.0547-0.72266-4.2812-4.8008-7.2383-9.0352-6.5zm-352.66 195.64c0 23.633-19.223 42.871-42.855 42.871-23.633 0-42.855-19.238-42.855-42.871s19.223-42.855 42.855-42.855c17.887 0 33.203 11.02 39.613 26.609l-13.445 2.6914c-4.9453-9.4922-14.754-16.059-26.184-16.059-16.328 0-29.613 13.289-29.613 29.613 0 16.328 13.289 29.613 29.613 29.613 15.695 0 28.449-12.312 29.426-27.758l13.352-2.6758c0.011719 0.28516 0.09375 0.53516 0.09375 0.82031zm-33.441 5.8555 3.4023-0.67578c-2.0625 5.0859-7.0078 8.6914-12.816 8.6914-7.6523 0-13.871-6.2344-13.871-13.871s6.2188-13.871 13.871-13.871c3.5898 0 6.7852 1.4648 9.2578 3.6992l-2.9297 0.58203c-4.2656 0.85156-7.0234 4.9922-6.1719 9.2578 0.83594 4.2852 4.9609 7.0547 9.2578 6.1875zm-9.4141-165.93c-4.9766 0-9.0352-4.0469-9.0352-9.0352 0-4.9922 4.0625-9.0352 9.0352-9.0352l253.65-0.003906c4.9766 0 9.0352 4.0625 9.0352 9.0352 0 4.9766-4.0625 9.0352-9.0352 9.0352l-244.19 0.003907zm22.844 15.742h222.94v87.145l-69.258 13.855c-0.36328 0.015625-0.70703-0.15625-1.0703-0.078125l-86.953 17.398zm218.84 170.92c-0.28516 1.1641-1.0859 1.6055-1.7461 1.7305-0.66016 0.17188-1.5898 0.125-2.2969-0.82031l-46.207-57.766 63.762-12.754c1.0547-0.20312 1.9844-0.67578 2.832-1.2422z"/>
</svg>