<?xml version="1.0" encoding="UTF-8"?>
<!-- The Best Svg Icon site in the world: iconSvg.co, Visit us! https://iconsvg.co -->
<svg fill="#000000" width="800px" height="800px" version="1.1" viewBox="144 144 512 512" xmlns="http://www.w3.org/2000/svg">
 <path d="m202.74 207.89h-23.16c-8.6914 0-15.742 7.0391-15.742 15.742v75.664c0 63.449 24.859 124.29 69.086 169.15 2.0625 2.0938 4.1719 4.1562 6.3125 6.1719l5.6055 113.8c1.0547 21.223 18.562 37.895 39.801 37.895h230.71c21.238 0 38.746-16.672 39.801-37.895l5.6055-113.81c2.1406-2.0156 4.2344-4.0781 6.3125-6.1719 44.227-44.871 69.086-105.72 69.086-169.17v-75.633c0-8.707-7.0547-15.742-15.742-15.742h-23.16v-20.438c0-8.6914-7.0391-15.742-15.742-15.742h-363.03c-8.707 0-15.742 7.0547-15.742 15.742v20.438zm325.23 292.55c-37.863 24.734-82.23 38.18-127.97 38.18h-0.03125c-45.723 0-90.07-13.43-127.94-38.164l4.2656 86.418c0.21875 4.457 3.8906 7.9492 8.3438 7.9492h230.71c4.457 0 8.125-3.4961 8.3438-7.9492l4.2656-86.434zm2-40.605c-36.449 30.449-82.355 47.297-129.97 47.297h-0.03125c-47.609 0-93.488-16.848-129.94-47.262l-9.0859-184.33h278.1l-9.0859 184.3zm-300.54-184.3 7.3516 149.16c-26.75-35.895-41.453-79.887-41.453-125.4v-59.922h7.4141v20.422 0.41016l0.015624 0.41016 0.0625 0.78906 0.046876 0.41016 0.046874 0.37891 0.0625 0.39453 0.078126 0.39453 0.078124 0.37891 0.09375 0.37891 0.21875 0.75781 0.10938 0.36328 0.125 0.36328 0.14062 0.36328 0.14063 0.34766 0.15625 0.36328 0.15625 0.34766 0.17187 0.33203 0.17188 0.34766 0.375 0.66406 0.40625 0.63281 0.4375 0.63281 0.23437 0.30078 0.23438 0.28516 0.23437 0.30078 0.25 0.28516 0.26953 0.26953 0.25 0.26953 0.28516 0.26953 0.26953 0.25 0.57031 0.5 0.60156 0.46875 0.36328 0.25 0.31641 0.21875 0.31641 0.20312 0.31641 0.1875 0.66406 0.375 0.66406 0.34375 0.34766 0.15625 0.34766 0.14062 0.36328 0.14062 0.34766 0.14062 0.36328 0.125 0.37891 0.125 0.36328 0.10938 0.75781 0.1875 0.78906 0.15625 0.78906 0.125 0.41016 0.03125 0.41016 0.046875 0.33203 0.015625 0.41016 0.015625h0.20312 0.20313 10.941zm367.83-36.164h7.4141v59.891c0 45.516-14.703 89.504-41.453 125.42l7.3516-149.14h11.352l0.41016-0.015624 0.39453-0.03125 0.41016-0.03125 0.78906-0.09375 0.37891-0.0625 0.39453-0.078126 0.37891-0.078124 0.37891-0.09375 0.75781-0.21875 0.36328-0.10938 0.36328-0.125 0.72656-0.28125 0.69531-0.3125 0.34766-0.17187 0.33203-0.17188 0.33203-0.1875 0.33203-0.20312 0.31641-0.1875 0.33203-0.21875 0.30078-0.20313 0.31641-0.21875 0.60156-0.46875 0.57031-0.5 0.26953-0.25 0.28516-0.26953 0.25-0.26953 0.26953-0.26953 0.25-0.28516 0.23438-0.30078 0.23438-0.28516 0.23438-0.30078 0.4375-0.63281 0.40625-0.63281 0.375-0.66406 0.17188-0.34766 0.17188-0.33203 0.15625-0.34766 0.15625-0.36328 0.14062-0.34766 0.14062-0.36328 0.125-0.36328 0.10938-0.36328 0.21875-0.75781 0.09375-0.37891 0.078125-0.37891 0.078125-0.39453 0.0625-0.39453 0.046875-0.37891 0.046875-0.41016 0.0625-0.78906 0.015625-0.41016v-20.832zm-31.488-36.18v40.855h-331.54v-40.855z" fill-rule="evenodd"/>
</svg>