<?xml version="1.0" encoding="UTF-8"?>
<!-- The Best Svg Icon site in the world: iconSvg.co, Visit us! https://iconsvg.co -->
<svg fill="#000000" width="800px" height="800px" version="1.1" viewBox="144 144 512 512" xmlns="http://www.w3.org/2000/svg">
 <g>
  <path d="m590.82 433.07c-2.2344 0-4.3711-0.88672-5.9414-2.4609l-184.88-184.86-184.89 184.86c-1.5703 1.5742-3.707 2.4609-5.9375 2.4609-2.2344 0-4.3711-0.88672-5.9414-2.4609l-24.699-24.691c-3.2734-3.2773-3.2734-8.6055 0-11.879l215.52-215.49c1.5742-1.5703 3.7109-2.4609 5.9414-2.4609 2.2344 0 4.3672 0.89062 5.9414 2.4609l215.51 215.49c3.2773 3.2734 3.2773 8.5898 0 11.879l-24.699 24.691c-1.5703 1.5742-3.707 2.4609-5.9375 2.4609zm-394.46-33.094 12.816 12.816 184.88-184.86c1.5742-1.5703 3.7109-2.457 5.9414-2.457 2.2344 0 4.3672 0.88672 5.9414 2.457l184.89 184.86 12.816-12.816-203.64-203.61z"/>
  <path d="m567.62 622.27h-335.25c-4.6445 0-8.3984-3.7539-8.3984-8.3984v-176.72c0-4.6406 3.7539-8.3984 8.3984-8.3984s8.4023 3.7578 8.4023 8.3984v168.32h318.44v-168.32c0-4.6406 3.7578-8.3984 8.4023-8.3984 4.6445 0 8.3984 3.7578 8.3984 8.3984v176.72c0 4.6445-3.7539 8.3984-8.3984 8.3984z"/>
  <path d="m437.47 612.03c-4.6445 0-8.3984-3.7539-8.3984-8.3984v-92.02h-58.156v92.02c0 4.6445-3.7578 8.3984-8.4023 8.3984s-8.3984-3.7539-8.3984-8.3984v-100.42c0-4.6406 3.7539-8.3984 8.3984-8.3984h74.957c4.6445 0 8.4023 3.7578 8.4023 8.3984v100.42c0 4.6445-3.7578 8.3984-8.4023 8.3984z"/>
  <path d="m361.31 534.86h-128.94c-4.6445 0-8.3984-3.7578-8.3984-8.4023 0-4.6406 3.7539-8.3984 8.3984-8.3984h128.94c4.6445 0 8.4023 3.7578 8.4023 8.3984 0 4.6445-3.7578 8.4023-8.4023 8.4023z"/>
  <path d="m336.53 598.26c-1.3203 0-2.6641-0.3125-3.9141-0.97266l-74.227-39.094c-4.1016-2.1602-5.6758-7.2461-3.5156-11.352 2.1602-4.1016 7.25-5.6758 11.355-3.5156l74.223 39.094c4.1055 2.1602 5.6758 7.2461 3.5156 11.352-1.5 2.8555-4.4141 4.4883-7.4375 4.4883z"/>
  <path d="m262.74 598.04c-3.0117 0-5.9414-1.6289-7.4414-4.4844-2.1602-4.1055-0.58594-9.1797 3.5156-11.352l73.41-38.66c4.1055-2.1602 9.1797-0.58984 11.352 3.5156 2.1602 4.1016 0.58984 9.1758-3.5156 11.348l-73.41 38.664c-1.2461 0.66016-2.5898 0.96875-3.9102 0.96875z"/>
  <path d="m283.23 359.01c-4.6328 0-8.3984-3.7539-8.3984-8.3984s3.7539-8.3984 8.3984-8.3984l233.44-0.074219c4.6328 0 8.4023 3.7578 8.4023 8.4023 0 4.6406-3.7578 8.3984-8.4023 8.3984z"/>
  <path d="m404.39 359.08c-2.3984 0-4.7734-1.0195-6.4297-3-2.9883-3.5508-2.5234-8.8555 1.0195-11.832l39.746-33.395c3.5508-2.9883 8.8555-2.5195 11.832 1.0195 2.9883 3.5547 2.5195 8.8555-1.0195 11.832l-39.746 33.395c-1.5742 1.3203-3.4922 1.9688-5.4023 1.9688z"/>
  <path d="m395.6 359.08c-1.9062 0-3.8281-0.64844-5.3984-1.9688l-41.547-34.918c-3.5547-2.9883-4.0078-8.2773-1.0195-11.832 2.9883-3.5508 8.2773-4.0078 11.832-1.0195l41.547 34.918c3.5508 2.9883 4.0078 8.2812 1.0195 11.832-1.6562 1.9805-4.043 3-6.4336 3z"/>
  <path d="m400 359.08c-4.6445 0-8.4023-3.7578-8.4023-8.4023v-81.242c0-4.6445 3.7578-8.4023 8.4023-8.4023 4.6445 0 8.3984 3.7578 8.3984 8.4023v81.242c0 4.6445-3.7539 8.4023-8.3984 8.4023z"/>
  <path d="m362.4 475.05h-72.688c-4.6445 0-8.4023-3.7539-8.4023-8.3984v-56.91c0-4.6445 3.7578-8.4023 8.4023-8.4023h72.688c4.6445 0 8.4023 3.7578 8.4023 8.4023v56.91c0 4.6445-3.7578 8.3984-8.4023 8.3984zm-64.285-16.797h55.887v-40.113h-55.887z"/>
  <path d="m510.28 475.05h-72.688c-4.6445 0-8.4023-3.7539-8.4023-8.3984v-56.91c0-4.6445 3.7578-8.4023 8.4023-8.4023h72.688c4.6445 0 8.4023 3.7578 8.4023 8.4023v56.91c0 4.6445-3.7578 8.3984-8.4023 8.3984zm-64.289-16.797h55.891v-40.113h-55.891z"/>
  <path d="m326.07 475.05c-4.6445 0-8.4023-3.7539-8.4023-8.3984v-56.91c0-4.6445 3.7578-8.4023 8.4023-8.4023 4.6445 0 8.3984 3.7578 8.3984 8.4023v56.91c0 4.6445-3.7539 8.3984-8.3984 8.3984z"/>
  <path d="m473.93 475.05c-4.6445 0-8.4023-3.7539-8.4023-8.3984v-56.91c0-4.6445 3.7578-8.4023 8.4023-8.4023 4.6445 0 8.4023 3.7578 8.4023 8.4023v56.91c0 4.6445-3.7578 8.3984-8.4023 8.3984z"/>
  <path d="m567.62 534.86h-120.6c-4.6445 0-8.4023-3.7578-8.4023-8.4023 0-4.6406 3.7578-8.3984 8.4023-8.3984h120.6c4.6445 0 8.3984 3.7578 8.3984 8.3984 0 4.6445-3.7539 8.4023-8.3984 8.4023z"/>
  <path d="m542.04 598.26c-1.3203 0-2.6641-0.3125-3.9141-0.97266l-74.227-39.094c-4.1016-2.1602-5.6758-7.2461-3.5156-11.352 2.1602-4.1016 7.25-5.6758 11.355-3.5156l74.223 39.094c4.1055 2.1602 5.6758 7.2461 3.5156 11.352-1.5 2.8555-4.4141 4.4883-7.4375 4.4883z"/>
  <path d="m468.23 598.04c-3.0117 0-5.9414-1.6289-7.4414-4.4844-2.1602-4.1055-0.58984-9.1797 3.5156-11.352l73.41-38.66c4.1055-2.1602 9.1797-0.58984 11.352 3.5156 2.1602 4.1016 0.58984 9.1758-3.5156 11.348l-73.41 38.664c-1.2461 0.66016-2.5898 0.96875-3.9102 0.96875z"/>
 </g>
</svg>