<?xml version="1.0" encoding="UTF-8"?>
<!-- The Best Svg Icon site in the world: iconSvg.co, Visit us! https://iconsvg.co -->
<svg fill="#000000" width="800px" height="800px" version="1.1" viewBox="144 144 512 512" xmlns="http://www.w3.org/2000/svg">
 <g>
  <path d="m595.29 295.09c-0.58594 0-1.1836-0.023438-1.7773-0.0625l-51.266-3.4141c-2.1445-0.14063-4.1758-1.0664-5.6875-2.5781l-25.645-25.641c-1.5234-1.5234-2.4375-3.5391-2.5781-5.6992l-3.4141-51.254c-0.78516-11.805 6.4258-23.039 17.938-27.938 4.3047-1.8438 8.9375-2.668 13.406-2.3633 7.0859 0.46875 13.547 3.4297 18.676 8.5547l60.34 60.332c5.1289 5.1289 8.1016 11.59 8.5703 18.672 0.29297 4.4297-0.51953 9.0625-2.3594 13.391-1.5625 3.668-3.7969 7.0195-6.4766 9.6992-5.332 5.332-12.414 8.3008-19.691 8.3008zm-48.523-20.98 47.938 3.1836c3.7852 0.24219 6.4609-1.8125 7.7188-3.0703 1.0664-1.0781 2.0312-2.5273 2.6914-4.0859 0.75-1.7773 1.0938-3.5938 0.99219-5.2578-0.19141-2.8047-1.2969-5.1758-3.4023-7.2852l-60.344-60.332c-2.0938-2.0938-4.4805-3.2109-7.2852-3.3867-1.6758-0.10156-3.4922 0.22656-5.2422 0.97656-3.6953 1.5742-7.5039 5.4961-7.1875 10.41l3.1875 47.93 20.922 20.918z"/>
  <path d="m304.29 422c-2.2734 0-4.543-0.86328-6.2852-2.6016l-18.586-18.582c-3.4648-3.4688-3.4648-9.1016 0-12.566 3.4648-3.4648 9.1055-3.4648 12.57 0l18.586 18.582c3.4648 3.4648 3.4648 9.1016 0 12.566-1.7383 1.7383-4.0117 2.6016-6.2852 2.6016z"/>
  <path d="m334.82 519.43c-2.2734 0-4.5469-0.86328-6.2852-2.6016-3.4688-3.4648-3.4688-9.1016 0-12.566l54.664-54.656-32.828-32.828-54.668 54.66c-3.4648 3.4648-9.1016 3.4648-12.566 0-3.4688-3.4648-3.4688-9.1016 0-12.566l60.949-60.941c3.4648-3.4648 9.1016-3.4648 12.566 0l45.398 45.391c3.4688 3.4648 3.4688 9.1016 0 12.566l-60.949 60.941c-1.7383 1.7383-4.0117 2.6016-6.2812 2.6016z"/>
  <path d="m313.25 623.87c-1.8164 0-3.6445-0.28125-5.3984-0.85156l-104.95-9.2773c-8.6094-0.76172-15.945-8.1484-16.707-16.82l-9.2695-104.81c-2.0039-6.1836-0.39453-13.152 4.2422-17.797l86.086-86.074c3.3008-3.3008 7.6914-5.1133 12.363-5.1133 4.9141 0 8.8867 3.9727 8.8867 8.8828 0 4.9141-3.9219 8.8242-8.7695 8.8867l-85.848 85.832c0.34375 0.83984 0.57031 1.7266 0.64844 2.6289l9.3828 106c0.050781 0.20312 0.42969 0.625 0.67188 0.69922l106.03 9.3672c0.90234 0.078125 1.7891 0.29297 2.6289 0.64844l85.73-85.719-18.383-18.379c-3.4648-3.4648-3.4648-9.1016 0-12.566 3.4648-3.4648 9.1016-3.4648 12.566 0l18.586 18.582c3.2891 3.2891 5.1172 7.6797 5.1172 12.363 0 4.6836-1.8125 9.0625-5.1172 12.363l-86.074 86.062c-3.3242 3.3242-7.8438 5.1016-12.402 5.1016z"/>
  <path d="m285.7 403.41c-2.2344 0-4.4688-0.83594-6.1836-2.5-4.8594-0.050781-8.7852-4.0117-8.7852-8.8828 0-4.875 3.9766-8.8867 8.8867-8.8867 4.9141 0 9.0547 1.8164 12.355 5.1016 3.4766 3.4648 3.4766 9.0898 0.011719 12.566-1.7383 1.7422-4.0117 2.6172-6.2969 2.6172z"/>
  <path d="m379.73 398.22c-2.2734 0-4.5469-0.86328-6.2852-2.6055-3.4648-3.4648-3.4648-9.0977 0-12.566l136.09-136.07c3.4648-3.4688 9.1016-3.4688 12.57 0 3.4648 3.4648 3.4648 9.1016 0 12.566l-136.09 136.07c-1.7422 1.7422-4.0156 2.6055-6.2852 2.6055z"/>
  <path d="m410.65 429.14c-2.2734 0-4.5469-0.86328-6.2852-2.6016-3.4648-3.4648-3.4648-9.1016 0-12.566l136.09-136.07c3.4648-3.4648 9.1016-3.4648 12.57 0 3.4648 3.4688 3.4648 9.1016 0 12.57l-136.1 136.07c-1.7383 1.7383-4.0078 2.6016-6.2812 2.6016z"/>
 </g>
</svg>