<?xml version="1.0" encoding="UTF-8"?>
<!-- The Best Svg Icon site in the world: iconSvg.co, Visit us! https://iconsvg.co -->
<svg fill="#000000" width="800px" height="800px" version="1.1" viewBox="144 144 512 512" xmlns="http://www.w3.org/2000/svg">
 <g>
  <path d="m606.39 364.31c-4.4648-4.1094-9.1602-7.9648-14.059-11.543l-9.2812 12.715c4.4258 3.2305 8.668 6.707 12.707 10.414z"/>
  <path d="m495.17 337.02c25.969-0.039063 51.5 6.6953 74.074 19.539l7.8242-13.664v-0.003907c-24.957-14.203-53.184-21.652-81.898-21.617-0.94531 0-1.9219 0-3.6836 0.078125l-91.711 2.5742 0.44141 15.742 91.742-2.582c1.5508-0.066406 2.3984-0.066406 3.2109-0.066406z"/>
  <path d="m604.5 629.94 17.492-81.746c4.1758-19.469 6.2891-39.328 6.3008-59.242 0.1875-16.414-2.6133-32.723-8.2656-48.129-9.4531-25.473-26.492-47.434-48.816-62.918-22.328-15.484-48.867-23.75-76.035-23.676l-167.94 4.7227c-5.6797-11.59-14.383-21.434-25.191-28.488-2.6445-1.7617-6.0859-1.7617-8.7305 0-2.7539 1.8438-26.859 18.477-27.094 37.785-10.84 5.168-20.453 12.594-28.191 21.773-10.023 12.012-23.855 20.234-39.195 23.301l-12.949 2.5742c-3.6641 0.75-6.2969 3.9766-6.2969 7.7148v47.234c0 2.0859 0.82812 4.0898 2.3047 5.5664 1.4766 1.4766 3.4805 2.3047 5.5664 2.3047h10.281l5.1016 13.625c5.3672 14.176 14.828 26.434 27.18 35.219 12.348 8.7891 27.031 13.707 42.18 14.133 3.5195 1.668 12.445 5.7148 25.68 10.629v-0.003907c1.0977 20.105 8.9648 39.25 22.316 54.32l-6.3828 19.152c-0.80469 2.4023-0.40234 5.043 1.0781 7.0977s3.8594 3.2695 6.3906 3.2695h31.488c3.7148 0 6.9219-2.5977 7.6992-6.2266l9.2656-43.367c3.5391 7.2773 8.0625 14.039 13.438 20.09l-6.3828 19.145c-0.80078 2.3984-0.39844 5.0391 1.082 7.0898 1.4805 2.0547 3.8555 3.2695 6.3867 3.2695h31.488c3.7148 0 6.9219-2.5977 7.6992-6.2266l10.586-49.484c6.9062 0.36328 13.934 0.60547 21.074 0.60547 10.367 0 20.309-0.34766 29.914-0.96875 3.8164 9.7461 9.3203 18.738 16.266 26.57l-6.3828 19.145h-0.003907c-0.79688 2.3945-0.39844 5.0273 1.0742 7.0781 1.4727 2.0508 3.8398 3.2695 6.3672 3.2812h31.488c3.457 0 6.5078-2.2539 7.5234-5.5586l12.043-39.211h0.003906c3.0586 5.4531 6.6914 10.566 10.832 15.258l-6.3828 19.152h-0.003906c-0.80078 2.3984-0.39453 5.0391 1.0859 7.0898 1.4766 2.0547 3.8555 3.2695 6.3867 3.2695h31.488c3.7109 0 6.918-2.5898 7.6953-6.2188zm-258.1-9.5273h-14.168l4.4258-13.258-0.003906 0.003906c0.94141-2.8281 0.20312-5.9492-1.9062-8.0547-11.051-11.156-18.223-25.566-20.465-41.109 3.0781 1.0078 6.2969 2.0312 9.6445 3.0469 11.156 3.3516 22.293 6.1562 33.34 8.6602zm181.61 0h-14.754l4.4258-13.258-0.003907 0.003906c0.94141-2.8281 0.20703-5.9492-1.9023-8.0547-5.918-5.9492-10.766-12.871-14.328-20.469 14.055-1.4453 27.984-3.9375 41.676-7.4453zm48.223 0 4.4258-13.258-0.003906 0.003906c0.94141-2.8281 0.20312-5.9492-1.9023-8.0547-13.594-13.672-21.25-32.148-21.312-51.43v-13.852h-15.742v13.855c0 2.4883 0.13281 4.9688 0.34766 7.4375-28.395 7.2812-57.633 10.711-86.941 10.195-6 0-11.902-0.17969-17.734-0.44922l2.9219-13.633-15.391-3.3203-15.523 72.504h-14.168l4.4258-13.258-0.003906 0.003906c0.94141-2.8281 0.20312-5.9492-1.9062-8.0547-13.637-13.645-21.309-32.137-21.34-51.43v-21.727h-15.746v21.727c0 2.2344 0.1875 4.4961 0.36328 6.7461-10.785-2.4492-21.664-5.1797-32.551-8.4531-17.418-5.1133-34.43-11.527-50.883-19.191-1.0938-0.54297-2.3008-0.82812-3.5195-0.82812-12.266-0.042969-24.23-3.8047-34.312-10.793-10.082-6.9844-17.809-16.867-22.152-28.336l-3.0312-8.1016h28.008v-15.742h-47.234v-32.922l6.5664-1.3164c18.867-3.7773 35.879-13.891 48.207-28.66 5.1875-6.1797 11.422-11.391 18.422-15.398 1.5312 5.5117 3.8477 10.777 6.8711 15.633l13.074-8.7773h0.003906c-3.5156-5.8789-5.6875-12.461-6.3633-19.277-0.125-1.2461-0.1875-2.4961-0.1875-3.7461 0-7.0156 8.8789-16.137 15.742-21.688 6.5352 5.2812 14.957 13.926 15.609 20.867h0.003907c0.023437 0.30078 0.066406 0.59766 0.125 0.89062-0.13281 8.0781-2.3828 15.984-6.5273 22.922l13.051 8.8086h0.003906c4.8125-7.7852 7.8359-16.543 8.8555-25.637l162.95-4.5898 3.4648-0.078126c41.48-0.11719 79.91 21.789 100.94 57.543-4.6133 2.5664-9.8008 3.9219-15.082 3.9375h-15.742c-8.3516 0-16.363 3.3164-22.266 9.2227-5.9062 5.9023-9.2227 13.914-9.2227 22.266 0 8.3477 3.3164 16.359 9.2227 22.262 5.9023 5.9062 13.914 9.2227 22.266 9.2227s16.359-3.3164 22.266-9.2227c5.9023-5.9023 9.2227-13.914 9.2227-22.262h-15.746c0.007812 4.1758-1.6562 8.1797-4.6211 11.121-2.9883 2.8711-6.9766 4.4766-11.121 4.4766-4.1484 0-8.1328-1.6055-11.125-4.4766-2.9453-2.9531-4.6016-6.9531-4.6016-11.125s1.6562-8.1719 4.6055-11.125c2.9492-2.9531 6.9492-4.6133 11.121-4.6172h15.742c7.75-0.039063 15.371-2 22.184-5.6992 0.69141 1.6211 1.4336 3.2188 2.0625 4.8789 4.9727 13.625 7.4258 28.039 7.2422 42.543-0.003907 18.785-1.9922 37.52-5.9258 55.891l-16.188 75.57z"/>
  <path d="m258.3 415.74h15.742v15.742h-15.742z"/>
 </g>
</svg>