<?xml version="1.0" encoding="UTF-8"?>
<!-- The Best Svg Icon site in the world: iconSvg.co, Visit us! https://iconsvg.co -->
<svg fill="#000000" width="800px" height="800px" version="1.1" viewBox="144 144 512 512" xmlns="http://www.w3.org/2000/svg">
 <path d="m283.23 451.36c-13.91 0-25.227 11.316-25.227 25.227 0 13.902 11.316 25.219 25.227 25.219 13.902 0 25.219-11.316 25.219-25.219 0-13.91-11.316-25.227-25.219-25.227zm0 40.367c-8.3555 0-15.148-6.793-15.148-15.145 0-8.3555 6.793-15.148 15.148-15.148 8.3477 0 15.145 6.793 15.145 15.148 0 8.3516-6.7969 15.145-15.145 15.145zm33.711-81.879v-12.652c0-2.7812 2.2539-5.0391 5.0391-5.0391 2.7852 0 5.0391 2.2539 5.0391 5.0391v12.652c0 2.7812-2.2539 5.0391-5.0391 5.0391-2.7852 0-5.0391-2.2578-5.0391-5.0391zm218.19 41.512c-13.91 0-25.227 11.316-25.227 25.227 0 13.902 11.316 25.219 25.227 25.219 13.91 0 25.227-11.316 25.227-25.219 0-13.91-11.316-25.227-25.227-25.227zm0 40.367c-8.3555 0-15.148-6.793-15.148-15.145 0-8.3555 6.793-15.148 15.148-15.148 8.3555 0 15.148 6.793 15.148 15.148 0 8.3516-6.793 15.145-15.148 15.145zm71.941-104.32h-13.711v-94.227c0-8.3359-6.7812-15.113-15.113-15.113h-155.48c-8.3359 0-15.113 6.7812-15.113 15.113v94.227h-16.375v-70.344c0-8.0117-6.5195-14.527-14.527-14.527h-94.977c-3.6172 0-7.0781 1.3359-9.7617 3.7656l-68.402 62c-6.0078 5.4375-9.4531 13.211-9.4531 21.316l0.23047 38.203-4.6289 0.83984c-6.9258 1.2461-11.957 7.2578-11.957 14.297v23.836c0 5.3984 4.3906 9.7852 9.7852 9.7852h50.293c0 25.004 20.34 45.344 45.344 45.344 25.004 0 45.344-20.34 45.344-45.344h161.22c0 25.004 20.34 45.344 45.344 45.344 25.004 0 45.344-20.34 45.344-45.344h26.598c8.3359 0 15.113-6.7812 15.113-15.113v-58.941c0-8.3359-6.7773-15.117-15.113-15.117zm-323.84 124.44c-19.445 0-35.266-15.824-35.266-35.266 0-19.445 15.824-35.266 35.266-35.266 19.445 0 35.266 15.824 35.266 35.266 0 19.441-15.824 35.266-35.266 35.266zm97.977-49.797c0 2.457-1.9961 4.4531-4.4531 4.4531h-49.348c-1.5703-6.8828-4.6836-13.176-8.9961-18.477 0.28125-0.14844 0.57812-0.25781 0.83984-0.46484l18.082-14.527c4.582-3.6758 7.2031-9.1523 7.2031-15.027v-36.516h5.3008c2.7852 0 5.0391-2.2539 5.0391-5.0391v-45.152c0-2.7812-2.2539-5.0391-5.0391-5.0391h-62.566c-1.25 0-2.457 0.46484-3.3867 1.3047l-49.82 45.152c-1.5391 1.3984-2.0664 3.6016-1.3125 5.543 0.74609 1.9453 2.6172 3.2266 4.6992 3.2266h97.008v36.516c0 2.8008-1.2539 5.4141-3.4336 7.1719l-18.082 14.531c-0.55859 0.44531-0.98438 0.99219-1.2969 1.5859-7.7812-6.2773-17.66-10.059-28.414-10.059-21.574 0-39.641 15.156-44.203 35.371l-51.145 0.1875v-23.836c0-2.1562 1.5391-4 3.6719-4.3789l4.6328-0.83984c4.6641-0.83984 8.0508-4.8906 8.0508-9.6289v-38.492c0-5.2656 2.2383-10.316 6.1406-13.852l68.402-62.004c0.82031-0.74219 1.8828-1.1523 2.9961-1.1523h94.977c2.457 0 4.4531 1.9961 4.4531 4.4531zm-130.7-90.637 38.699-35.078h55.582v35.078zm255.04-83.273h72.699c2.7812 0 5.0391 2.2617 5.0391 5.0391v49.832h-77.738zm0 64.949h77.734v34.32l-77.734-0.003906zm-87.816-59.91c0-2.7773 2.2578-5.0391 5.0391-5.0391h72.703v54.871h-77.742zm0 59.91h77.742v34.32l-77.742-0.003906zm117.4 158.76c-19.445 0-35.266-15.824-35.266-35.266 0-19.445 15.824-35.266 35.266-35.266 19.445 0 35.266 15.824 35.266 35.266 0.003906 19.441-15.82 35.266-35.266 35.266zm76.98-50.383c0 2.7812-2.2578 5.0391-5.0391 5.0391h-27.766c-4.5977-20.164-22.641-35.266-44.176-35.266-21.535 0-39.578 15.105-44.176 35.266h-100.45c0.46094-1.4102 0.76953-2.8906 0.76953-4.4531l0.003906-64.566h215.79c2.7812 0 5.0391 2.2617 5.0391 5.0391z"/>
</svg>