<?xml version="1.0" encoding="UTF-8"?>
<!-- The Best Svg Icon site in the world: iconSvg.co, Visit us! https://iconsvg.co -->
<svg fill="#000000" width="800px" height="800px" version="1.1" viewBox="144 144 512 512" xmlns="http://www.w3.org/2000/svg">
 <path d="m499.25 334.5c-1.5117-0.50391-3.0234-0.50391-4.5352 0-1.0078 0.50391-11.082 6.0469-25.191 16.121l-5.0391-87.16c-2.0156-31.738-28.719-56.93-60.457-56.93-31.738 0-58.441 25.191-60.457 56.93l-7.0547 88.168c-15.113-11.082-26.199-17.129-26.703-17.129-1.5117-1.0078-3.0234-1.0078-4.5352 0-1.5117 0.50391-2.5195 2.0156-3.0234 3.5273 0 1.0078-6.0469 28.719-6.0469 66 0 34.258 4.5352 84.137 27.711 123.94 24.688 42.32 48.367 56.93 63.48 61.969 4.5352 1.5117 9.0703 2.0156 13.602 2.0156 4.5352 0 9.0703-0.50391 13.602-2.0156h0.50391c0.50391 0 1.0078-0.50391 1.5117-0.50391 16.625-6.0469 40.305-21.16 63.48-61.465 23.176-39.801 27.711-89.176 27.711-123.94 0-37.281-5.543-64.488-6.0469-66 0.007812-2.0156-1-3.0234-2.5117-3.5273zm-134.02 40.305h33.25v33.25c-11.082-13.098-22.668-24.184-33.25-33.25zm43.328 0h29.727c-9.5742 8.5664-20.152 18.137-29.727 29.223zm41.816-10.078h-41.816v-20.656h50.383l1.0078 13.602c-3.0234 2.0195-6.0469 4.5352-9.5742 7.0547zm-97.234-100.76c0.50391-4.5352 1.5117-9.0703 2.5195-13.602h42.824v21.16h-46.352zm103.28 38.793h-47.863v-20.656h46.855zm-2.0156-38.793 0.50391 8.0625h-45.848v-21.16h42.824c1.0078 4.0312 2.0156 8.5664 2.5195 13.098zm-55.922 18.137v20.656h-48.367l1.5117-20.656zm-49.375 30.734h49.375v20.656h-50.887zm59.449 0h48.367l1.0078 20.656h-49.879v-20.656zm38.289-72.047h-37.785v-23.68c15.617 1.5156 29.727 10.582 37.785 23.68zm-48.363-23.676v23.68h-37.785c8.0586-13.102 22.164-22.168 37.785-23.68zm-51.391 126.96h51.891l0.003907 20.656h-44.84c-2.5195-2.0156-5.0391-4.0312-7.5586-6.0469zm43.328 235.79c-13.602-4.5352-35.266-18.137-57.938-57.434-36.273-61.969-25.695-150.14-21.664-175.32 21.664 13.602 95.723 63.48 118.9 131.5 14.609 43.328 10.578 68.016 5.0391 81.617-3.5273 8.0625-10.078 14.609-18.137 18.137-1.0078 0.50391-1.5117 0.50391-2.5195 1.0078-0.50391 0-1.0078 0.50391-1.5117 0.50391-7.5586 2.0117-15.113 2.0117-22.168-0.003906zm81.113-57.434c-8.5664 14.609-17.129 25.695-25.191 33.754 4.5352-16.121 6.0469-41.816-7.5586-81.113-7.0547-20.152-18.137-38.793-30.73-55.418 30.73-37.281 70.031-63.48 84.641-72.547 4.5352 25.188 15.113 113.36-21.16 175.32z"/>
</svg>