<?xml version="1.0" encoding="UTF-8"?>
<!-- The Best Svg Icon site in the world: iconSvg.co, Visit us! https://iconsvg.co -->
<svg fill="#000000" width="800px" height="800px" version="1.1" viewBox="144 144 512 512" xmlns="http://www.w3.org/2000/svg">
 <g>
  <path d="m543.94 447.66c-4.4805-20.719-10.926-40.961-19.246-60.457 6.9922-0.015625 13.699-2.793 18.652-7.7266 4.9531-4.9375 7.7578-11.629 7.7969-18.625v-11.234h-302.29v11.336c0.011719 7.0117 2.8047 13.73 7.7617 18.688 4.957 4.957 11.676 7.75 18.688 7.7617-16.238 37.84-25.211 78.398-26.449 119.55 0 23.68 67.66 42.824 151.14 42.824 83.48 0 151.14-19.145 151.14-42.824h-0.003906c-0.61328-19.941-3.0234-39.789-7.2031-59.297zm-161.22 58.895c-1.4102 0-21.562 0-31.789-16.273h-0.003907c-3.9688-6.4336-5.7383-13.984-5.0352-21.512h-8.5664c-6.957 0-12.594-5.6406-12.594-12.598 0-6.9531 5.6367-12.594 12.594-12.594h8.5156c-0.70312-7.543 1.0664-15.109 5.0391-21.562 10.078-16.172 30.23-16.273 31.789-16.223 0.23828 4.6953-0.11719 9.3984-1.0586 14.004-3.2812 14.418-11.43 27.266-23.074 36.375 11.645 9.0898 19.797 21.922 23.074 36.324 0.91016 4.6289 1.2305 9.3516 0.95703 14.059zm37.082 0h-0.003906c-12.395-0.77734-23.91-6.6719-31.789-16.273-1.7656-2.2617-3.3008-4.6914-4.5859-7.2539 0 0-0.50391-1.0586-0.95703-2.1172-2.832-7.6367-4.2148-15.734-4.0781-23.879v-1.6133c-0.125-8.1445 1.2578-16.242 4.0781-23.883l0.95703-2.0664v0.003906c1.2734-2.5898 2.8086-5.0352 4.5859-7.3047 7.875-9.6016 19.398-15.48 31.789-16.223 0.24219 4.6914-0.11328 9.3984-1.0586 14.004-3.2695 14.434-11.441 27.285-23.121 36.375 11.68 9.0664 19.852 21.906 23.121 36.324 0.87891 4.5781 1.1836 9.25 0.91016 13.906zm38.996-23.125h-0.003906c1.0039 3.4141 1.3789 6.9805 1.1094 10.531-12.375-0.35156-24.316-4.6211-34.109-12.195-1.8828-1.6289-3.5742-3.4727-5.0391-5.4922 0 0-0.55469-0.75391-1.0078-1.5625v0.003906c-1.1758-2.1016-2.1055-4.3359-2.7695-6.6523-1.1719-3.6328-1.8008-7.418-1.8633-11.234v-1.4102c-0.003906-3.8086 0.55859-7.5938 1.6602-11.234 0.67187-2.332 1.6016-4.5781 2.7734-6.7031 0.45312-0.75391 0.95703-1.4609 1.0078-1.5625v0.003906c1.4648-2.0039 3.1523-3.8281 5.0391-5.4414 12.543-11.184 31.188-12.09 34.109-12.191l-0.003906-0.003906c0.26953 3.5508-0.10938 7.1172-1.1094 10.531-1.8867 6.0234-5.2266 11.488-9.7227 15.922 9.5703 2.2031 18.688 6.0391 26.953 11.336-8.2773 5.2734-17.391 9.1055-26.953 11.336 4.5391 4.4414 7.8984 9.9492 9.7734 16.02z"/>
  <path d="m320.14 339.54h8.7148l-2.418-6.6484v-0.003906c-0.83594-2.3086-1.2617-4.7461-1.2578-7.2031 0.35938-5.6953 2.5781-11.113 6.3203-15.418 3.7422-4.3086 8.7969-7.2617 14.387-8.4141 3.1602-0.90234 6.4336-1.3633 9.7227-1.3594h5.0391v-5.0391c0-15.113 17.633-27.711 39.094-27.711h0.85547c21.664 0 39.297 12.445 39.297 27.711v5.0391h5.0391c3.2891-0.003906 6.5625 0.45703 9.7227 1.3594 5.6094 1.1055 10.699 4.0312 14.48 8.3203 3.7773 4.2891 6.0391 9.707 6.4297 15.41 0.011719 2.457-0.41406 4.8984-1.2617 7.2031l-2.5664 6.7539h52.094c-6.8164-8.6055-16.184-14.832-26.754-17.785-1.9141-18.488-17.027-34.512-37.684-39.648-7.5078-20.152-31.641-34.512-58.793-34.512h-0.60547c-27.66 0-51.289 14.055-58.793 34.512-20.656 5.0391-35.77 21.16-37.684 39.648h-0.003907c-10.59 2.9453-19.973 9.1719-26.805 17.785z"/>
  <path d="m401.51 303.57c0 5.5625-4.5117 10.074-10.078 10.074s-10.074-4.5117-10.074-10.074c0-5.5664 4.5078-10.078 10.074-10.078s10.078 4.5117 10.078 10.078"/>
  <path d="m382.62 319.94c0 4.1758-3.3828 7.5586-7.5586 7.5586-4.1719 0-7.5547-3.3828-7.5547-7.5586 0-4.1719 3.3828-7.5547 7.5547-7.5547 4.1758 0 7.5586 3.3828 7.5586 7.5547"/>
  <path d="m406.55 327.5c0 4.1758-3.3828 7.5586-7.5547 7.5586-4.1758 0-7.5586-3.3828-7.5586-7.5586 0-4.1719 3.3828-7.5586 7.5586-7.5586 4.1719 0 7.5547 3.3867 7.5547 7.5586"/>
 </g>
</svg>