<?xml version="1.0" encoding="UTF-8"?>
<!-- The Best Svg Icon site in the world: iconSvg.co, Visit us! https://iconsvg.co -->
<svg fill="#000000" width="800px" height="800px" version="1.1" viewBox="144 144 512 512" xmlns="http://www.w3.org/2000/svg">
 <path d="m627.87 401.54c-6.2969-25.09-45.695-39.215-108.18-38.664h-0.003906c-2.1719 0.007812-3.9297 1.7773-3.918 3.9492 0.007813 2.1758 1.7773 3.9297 3.9492 3.9219h0.035156c57.727-0.47656 95.219 11.754 100.49 32.707 9.3359 37.184-82.402 93.617-200.34 123.24-58.738 14.754-115.78 21.16-160.63 18.004-42.766-2.9961-69.793-14.648-74.137-31.953-5.7188-22.75 28.383-55.199 87.258-83.395v-0.003906c0.37891 13.875 1.7031 27.711 3.957 41.406 1.0859 5.6562 5.8789 9.8516 11.633 10.172 3.8828 0.13281 7.7969 0.19922 11.75 0.19531v0.003907c35.527-0.24609 70.895-4.8164 105.32-13.609 38.328-9.4023 75.176-24.039 109.51-43.5 5.0117-2.9258 7.2852-8.9648 5.4453-14.469-7.1523-21.215-60.77-157.94-163.74-136.31-68.406 14.359-84.949 116.56-83.949 147.45-66.387 31.117-101.81 66.164-94.82 93.984 5.3047 21.129 34.156 34.582 81.238 37.883 7.6367 0.52344 15.602 0.78906 23.891 0.78906v-0.003906c46.996-0.75391 93.73-7.1406 139.21-19.02 126.27-31.703 216.78-90.031 206.04-132.77zm-130.89-26.633c-33.898 15.777-69.238 28.246-105.53 37.238-36.434 9.2812-73.68 15-111.22 17.082-0.37891-14.602 0.55469-29.203 2.7891-43.637 32.949-2.7344 65.613-8.1797 97.664-16.289 31.887-7.9531 63.07-18.508 93.234-31.555 8.7852 11.672 16.504 24.109 23.062 37.16zm13.621 42.297c-33.688 19.094-69.848 33.453-107.45 42.68-37.512 9.6406-76.168 14.074-114.89 13.176-2.0586-0.078126-3.7852-1.5898-4.1367-3.6211-1.8047-10.719-3.0039-21.531-3.582-32.387 38.086-2.082 75.879-7.8711 112.84-17.273 36.824-9.1328 72.676-21.809 107.06-37.844 4.5977 9.8008 8.6367 19.859 12.09 30.121 0.65625 1.957-0.15234 4.1094-1.9336 5.1484zm-152.44-136.34c47.305-8.3867 78.207 13.957 110.75 50.434-29.188 12.508-59.328 22.656-90.133 30.348-30.973 7.8281-62.527 13.145-94.352 15.895 11.836-49.766 38.129-90.348 73.734-96.676z"/>
</svg>