<?xml version="1.0" encoding="UTF-8"?>
<!-- The Best Svg Icon site in the world: iconSvg.co, Visit us! https://iconsvg.co -->
<svg fill="#000000" width="800px" height="800px" version="1.1" viewBox="144 144 512 512" xmlns="http://www.w3.org/2000/svg">
 <g>
  <path d="m356.67 297.22c0 24.184 19.648 43.328 43.328 43.328s43.328-19.648 43.328-43.328c0-24.184-19.648-43.328-43.328-43.328s-43.328 19.145-43.328 43.328zm43.328-33.758c18.641 0 33.25 15.113 33.25 33.25 0 18.641-15.113 33.25-33.25 33.25-18.641 0-33.25-15.113-33.25-33.25-0.003906-18.133 14.609-33.25 33.25-33.25z"/>
  <path d="m405.04 228.7v-23.68c0-3.0234-2.0156-5.0391-5.0391-5.0391-3.0234 0-5.0391 2.0156-5.0391 5.0391l0.003907 23.68c0 3.0234 2.0156 5.0391 5.0391 5.0391 3.0195 0 5.0352-2.0156 5.0352-5.0391z"/>
  <path d="m358.69 214.6c-1.5117-2.5195-4.5352-3.0234-7.0547-2.0156-2.5195 1.5117-3.0234 4.5352-2.0156 7.0547l11.586 20.656c1.0078 1.5117 2.5195 2.5195 4.5352 2.5195 1.0078 0 1.5117 0 2.5195-0.50391 2.5195-1.5117 3.0234-4.5352 2.0156-7.0547z"/>
  <path d="m344.07 257.93-20.152-12.09c-2.5195-1.5117-5.543-0.50391-7.0547 2.0156-1.5117 2.5195-0.50391 5.543 2.0156 7.0547l20.152 12.09c1.0078 0.50391 1.5117 0.50391 2.5195 0.50391 1.5117 0 3.5273-1.0078 4.5352-2.5195 1.0078-2.5234 0-5.543-2.0156-7.0547z"/>
  <path d="m308.3 290.67c-2.5195 0-5.0391 2.0156-5.0391 5.0391 0 3.0234 2.0156 5.0391 5.0391 5.0391l23.68 0.50391c2.5195 0 5.0391-2.0156 5.0391-5.0391 0-3.0234-2.0156-5.0391-5.0391-5.0391z"/>
  <path d="m338.03 325.43-20.656 11.586c-2.5195 1.5117-3.5273 4.5352-2.0156 7.0547 1.0078 1.5117 2.5195 2.5195 4.5352 2.5195 1.0078 0 1.5117 0 2.5195-0.50391l20.656-11.586c2.5195-1.5117 3.5273-4.5352 2.0156-7.0547-2.0195-2.5195-5.0391-3.5273-7.0547-2.0156z"/>
  <path d="m349.11 379.85c1.0078 0.50391 1.5117 0.50391 2.5195 0.50391 1.5117 0 3.5273-1.0078 4.5352-2.5195l12.594-20.152c1.5117-2.5195 0.50391-5.543-1.5117-7.0547-2.5195-1.5117-5.543-0.50391-7.0547 1.5117l-12.594 20.152c-1.5117 3.0234-0.50391 6.0469 1.5117 7.5586z"/>
  <path d="m392.95 365.23-1.0078 23.68c0 3.0234 2.0156 5.0391 5.0391 5.0391 2.5195 0 5.0391-2.0156 5.0391-5.0391l1.0078-23.68c0-3.0234-2.0156-5.0391-5.0391-5.0391-2.5195 0.003907-5.0391 2.0156-5.0391 5.0391z"/>
  <path d="m429.72 353.14c-2.5195 1.5117-3.5273 4.5352-2.0156 7.0547l11.082 21.16c1.0078 1.5117 2.5195 2.5195 4.5352 2.5195 1.0078 0 1.5117 0 2.5195-0.50391 2.5195-1.5117 3.5273-4.5352 2.0156-7.0547l-11.082-21.16c-1.5117-2.5195-5.0391-3.5273-7.0547-2.0156z"/>
  <path d="m453.4 330.98c-1.5117 2.5195-1.0078 5.543 1.5117 7.0547l20.152 12.594c1.0078 0.50391 2.0156 1.0078 2.5195 1.0078 1.5117 0 3.5273-1.0078 4.0312-2.5195 1.5117-2.5195 1.0078-5.543-1.5117-7.0547l-19.648-12.594c-2.5195-1.5117-5.543-0.50391-7.0547 1.5117z"/>
  <path d="m462.98 300.25c0 3.0234 2.0156 5.0391 4.5352 5.0391l23.68 1.0078h0.50391c2.5195 0 5.0391-2.0156 5.0391-5.0391 0-3.0234-2.0156-5.0391-4.5352-5.0391l-23.68-1.0078c-2.5234 0-5.043 2.5195-5.543 5.0391z"/>
  <path d="m479.6 251.38-21.16 10.578c-2.5195 1.0078-3.5273 4.5352-2.0156 6.5508 1.0078 1.5117 2.5195 2.5195 4.5352 2.5195 1.0078 0 1.5117 0 2.5195-0.50391l21.16-10.578c2.5195-1.0078 3.5273-4.5352 2.0156-6.5508-1.5156-2.5195-4.5352-3.5273-7.0547-2.0156z"/>
  <path d="m453.4 216.11c-2.5195-1.5117-5.543-1.0078-7.0547 1.5117l-13.098 19.648c-1.5117 2.5195-1.0078 5.543 1.5117 7.0547 1.0078 0.50391 2.0156 1.0078 3.0234 1.0078 1.5117 0 3.0234-1.0078 4.0312-2.0156l13.098-19.648c1.5117-3.0273 1.0078-6.0469-1.5117-7.5586z"/>
  <path d="m596.99 601.52c1.5117 0 2.5195-0.50391 3.5273-1.5117 2.0156-2.0156 2.0156-5.0391 0-7.0547-21.664-21.664-44.84-40.809-68.52-57.434 21.664-7.5586 43.832-14.105 66-19.648 2.5195-0.50391 4.5352-3.5273 3.5273-6.0469-0.50391-2.5195-3.5273-4.5352-6.0469-3.5273-25.191 6.0469-49.879 13.602-73.555 22.672-12.594-8.5664-25.695-16.625-38.289-23.68 36.777-14.105 75.066-24.688 114.36-32.242 2.5195-0.50391 4.5352-3.0234 4.0312-6.0469-0.50391-2.5195-3.0234-4.5352-6.0469-4.0312-42.32 8.0625-84.137 20.152-123.94 35.77-14.609-8.0625-29.223-15.113-43.832-21.664 67.512-27.711 128.98-40.305 169.28-45.848 2.5195-0.50391 4.5352-3.0234 4.5352-5.543-0.50391-2.5195-3.0234-4.5352-5.543-4.5352-42.824 6.0469-108.82 19.648-180.87 50.383-16.625-7.0547-33.25-13.098-48.871-18.641 119.4-55.922 229.74-60.961 230.75-60.961 3.0234 0 5.0391-2.5195 5.0391-5.0391 0-3.0234-2.5195-5.0391-5.0391-5.0391-1.0078 0-118.9 5.543-244.35 66.504-83.633-26.199-147.11-29.223-148.12-29.223-2.5195 0-5.0391 2.0156-5.0391 5.0391 0 3.0234 2.0156 5.0391 5.0391 5.0391 2.5195 0 230.24 11.586 389.45 170.79 0 1.0117 1.5117 1.5156 2.5195 1.5156z"/>
  <path d="m521.92 601.52c1.5117 0 3.0234-0.50391 4.0312-2.0156 1.5117-2.0156 1.5117-5.543-0.50391-7.0547-115.88-94.211-250.39-124.44-320.42-134.01-2.5195-0.50391-5.543 1.5117-5.543 4.5352-0.50391 2.5195 1.5117 5.543 4.5352 5.543 69.023 9.5742 201.52 39.297 315.38 132 0.50391 0.5 1.5117 1.0039 2.5195 1.0039z"/>
  <path d="m437.28 601.52c1.5117 0 3.5273-1.0078 4.0312-2.5195 1.5117-2.5195 1.0078-5.543-1.5117-7.0547-85.648-55.418-175.32-80.609-235.28-92.195-2.5195-0.50391-5.543 1.0078-6.0469 4.0312-0.50391 2.5195 1.0078 5.543 4.0312 6.0469 58.945 11.586 147.11 36.273 231.75 90.688 1.5078 0.5 2.5156 1.0039 3.0195 1.0039z"/>
  <path d="m205.53 543.59c-2.5195-0.50391-5.543 1.0078-6.0469 3.5273-0.50391 2.5195 1.0078 5.543 3.5273 6.0469 47.359 11.586 92.195 27.711 134.01 48.367 0.50391 0.50391 1.5117 0.50391 2.0156 0.50391 2.0156 0 3.5273-1.0078 4.5352-3.0234 1.0078-2.5195 0-5.543-2.5195-6.5508-41.812-20.66-87.66-37.285-135.52-48.871z"/>
 </g>
</svg>