<?xml version="1.0" encoding="UTF-8"?>
<!-- The Best Svg Icon site in the world: iconSvg.co, Visit us! https://iconsvg.co -->
<svg fill="#000000" width="800px" height="800px" version="1.1" viewBox="144 144 512 512" xmlns="http://www.w3.org/2000/svg">
 <g>
  <path d="m612.54 305.54h-9.6992c-3.5781-15.637-12.352-29.598-24.887-39.605-12.535-10.012-28.094-15.473-44.133-15.5h-351.88c-5.2344-0.023438-10.223 2.2188-13.68 6.1523-3.457 3.9297-5.043 9.1641-4.3477 14.352 0.69141 5.1875 3.5977 9.8242 7.9648 12.707l10.312 6.8711v0.003906c6.8516 4.5898 15.609 5.2578 23.082 1.7617l-9.8398 59.191c-0.70312 4.1797 2.0352 8.1641 6.1875 9.0117l29 5.8008c8.7891 1.7812 17.922-0.27344 25.102-5.6445l12.406-9.3047 13.785 96.457v93.906c0 2.0859 0.82812 4.0898 2.3047 5.5664 1.4766 1.4766 3.4805 2.3047 5.5664 2.3047h31.488c4.0586 0.019532 7.4688-3.0469 7.8711-7.0859l7.1641-71.637 94.324 0.003906c5.7383-0.019531 11.402-1.293 16.594-3.7305 2.4688 2.6406 5.0977 5.125 7.8711 7.4375v19.906c0 8.4375 4.5039 16.234 11.809 20.453 7.3086 4.2188 16.309 4.2188 23.617 0 7.3047-4.2188 11.809-12.016 11.809-20.453v-0.35547 0.003906c5.2344 0.47266 10.504 0.47266 15.742 0v0.35156c0 8.4375 4.5 16.234 11.809 20.453 7.3086 4.2188 16.309 4.2188 23.617 0 7.3047-4.2188 11.809-12.016 11.809-20.453v-17.625l15.742 7v57.859c0 2.0859 0.82812 4.0898 2.3047 5.5664 1.4766 1.4766 3.4805 2.3047 5.5664 2.3047h31.488c2.0898 0 4.0898-0.82812 5.5664-2.3047 1.4766-1.4766 2.3086-3.4805 2.3086-5.5664v-86.594c0-2.6289-1.3164-5.0898-3.5039-6.5469l-20.113-13.406v-113.87h7.8711c2.0898 0 4.0898 0.83203 5.5664 2.3047 1.4766 1.4766 2.3047 3.4805 2.3047 5.5664v94.465h15.742l0.003906-94.465c0-6.2617-2.4883-12.27-6.918-16.695-4.4297-4.4297-10.438-6.918-16.699-6.918zm-149.57-39.359v59.039c0 15.469-8.2539 29.762-21.648 37.496-13.398 7.7344-29.902 7.7344-43.297 0-13.398-7.7344-21.648-22.027-21.648-37.496v-59.039zm-263.29 11.238c-2.6445 1.7617-6.0859 1.7617-8.7305 0l-10.312-6.8711c-0.90625-0.5625-1.3242-1.6602-1.0195-2.6797 0.30078-1.0234 1.2539-1.7148 2.3203-1.6875h27.707l-0.86719 5.1797zm349.88 217.05c0 4.3477-3.5234 7.875-7.8711 7.875-4.3477 0-7.8711-3.5273-7.8711-7.875v-9.4453c0-2.3594-1.0625-4.5977-2.8906-6.0938-1.8203-1.5078-4.2266-2.1055-6.543-1.6211-9.3516 1.8867-18.984 1.8867-28.336 0-2.3164-0.47266-4.7227 0.12109-6.5547 1.6172-1.832 1.4961-2.8945 3.7344-2.8945 6.0977v9.4453c0 4.3477-3.5234 7.875-7.8711 7.875s-7.8711-3.5273-7.8711-7.875v-23.723c0-2.4805-1.168-4.8125-3.1484-6.3008-2.207-1.7109-4.3086-3.5508-6.2969-5.5078l13.918-8.3516h-0.003907c3.6602-2.1914 7.8438-3.3438 12.109-3.3477h35.977c6.7891 9.5781 15.859 17.309 26.395 22.492-0.10938 0.32812-0.19141 0.66797-0.24609 1.0156zm39.359-55.105v0.003906c0 2.6289 1.3164 5.0898 3.5039 6.5469l20.113 13.406v74.512h-15.742v-55.105c0-3.1133-1.832-5.9336-4.6758-7.1953l-33.449-14.848c-9.7461-4.3281-18.023-11.395-23.832-20.336-5.8086-8.9453-8.8984-19.379-8.8945-30.043v-6.2969h-15.742v6.2969c0.054688 8.6211 1.6875 17.16 4.8242 25.191h-27.59c-7.1328 0-14.137 1.9375-20.254 5.6016l-24.402 14.641-0.003906 0.003906c-3.668 2.1992-7.8672 3.3633-12.145 3.3672h-93.613v-31.488h-15.746v38.957l-7.082 71.254h-16.531v-86.594c0-0.375-0.027343-0.74609-0.082031-1.1172l-15.742-110.21c-0.39453-2.7539-2.2148-5.0938-4.7812-6.1602-2.5703-1.0625-5.5117-0.69141-7.7344 0.98047l-23.043 17.32v-0.003906c-3.582 2.6875-8.1406 3.7188-12.531 2.8438l-21.531-4.3047 10.973-65.906 0.11719-0.078125-0.085938-0.11719 2.3867-14.305h101.18c1.0703-0.039062 2.0312 0.64844 2.3398 1.6758 0.3125 1.0234-0.10547 2.1289-1.0195 2.6914l-11.445 7.6289c-2.3477 1.5508-5.3477 1.7344-7.8711 0.48828l-7.5742-3.7852-7.0391 14.09 7.5742 3.7773c3.7266 1.8594 7.875 2.6992 12.031 2.4414 4.1562-0.25781 8.168-1.6094 11.633-3.9141l11.445-7.6289c5.0391-3.3711 8.0508-9.043 8.0312-15.105-0.027343-0.79297-0.10938-1.582-0.24609-2.3594h15.988v59.039c0 21.094 11.254 40.582 29.523 51.129 18.266 10.547 40.77 10.547 59.039 0 18.266-10.547 29.52-30.035 29.52-51.129v-59.039h55.105c14.609 0.015625 28.613 5.8242 38.945 16.156 10.328 10.332 16.141 24.336 16.156 38.945v118.08z"/>
  <path d="m525.95 289.79c-8.3477 0-16.359 3.3203-22.266 9.2227-5.9023 5.9062-9.2227 13.914-9.2227 22.266v31.488c0 11.25 6.0039 21.645 15.746 27.27 9.7422 5.625 21.746 5.625 31.488 0 9.7422-5.625 15.742-16.02 15.742-27.27v-31.488c0-8.3516-3.3164-16.359-9.2227-22.266-5.9023-5.9023-13.914-9.2227-22.266-9.2227zm15.742 62.977h0.003906c0 5.625-3 10.824-7.8711 13.637-4.8711 2.8125-10.875 2.8125-15.746 0s-7.8711-8.0117-7.8711-13.637v-31.488c0-5.625 3-10.82 7.8711-13.633s10.875-2.8125 15.746 0c4.8711 2.8125 7.8711 8.0078 7.8711 13.633z"/>
 </g>
</svg>