<?xml version="1.0" encoding="UTF-8"?>
<!-- The Best Svg Icon site in the world: iconSvg.co, Visit us! https://iconsvg.co -->
<svg width="800px" height="800px" version="1.1" viewBox="144 144 512 512" xmlns="http://www.w3.org/2000/svg">
 <defs>
  <clipPath id="a">
   <path d="m148.09 157h503.81v486h-503.81z"/>
  </clipPath>
 </defs>
 <g clip-path="url(#a)">
  <path d="m551.38 472.27 98.637-140.28c2.168-3.1719 2.4375-7.2734 0.70703-10.707-1.5742-2.9922-4.5156-5.0195-7.8711-5.4297 1.3555-4.1133 2.2539-8.3633 2.6758-12.676 2.1992-19.734-4.957-39.363-19.344-53.055-14.383-13.688-34.344-19.863-53.945-16.691-1.832-25.27-15.309-48.254-36.465-62.195-21.156-13.941-47.59-17.258-71.535-8.9766-23.945 8.2812-42.68 27.223-50.699 51.258-4.1016-1.25-8.3242-2.0703-12.598-2.4414-22.375-2.2109-44.273 7.4688-57.699 25.504-7.0586-3.6797-14.754-5.9766-22.672-6.7695-21.988-2.3359-43.617 6.8867-57.156 24.367-13.539 17.484-17.051 40.734-9.2852 61.438h-95.566c-2.7539-0.019531-5.4062 1.0547-7.3711 2.9883-1.9609 1.9336-3.0781 4.5703-3.0977 7.3242v32.906c-0.019531 2.7812 1.0742 5.457 3.043 7.4258s4.6445 3.0664 7.4258 3.043h120.52l34.32 100.29c1.4297 4.2578 5.4297 7.1172 9.918 7.0859h113.52l-131.3 85.961c-2.5664 1.3984-4.4297 3.8047-5.1445 6.6406-0.71094 2.832-0.21094 5.832 1.3867 8.2812 1.5977 2.4453 4.1445 4.1094 7.0273 4.5977 2.8789 0.48438 5.832-0.25391 8.1445-2.043l152.01-99.422 24.875 38.18c-17.992 15.984-26.637 40.012-22.957 63.797 3.6836 23.785 19.188 44.074 41.172 53.875 21.98 9.7969 47.438 7.7656 67.586-5.3945 20.152-13.16 32.242-35.652 32.105-59.719-0.13672-24.07-12.484-46.422-32.785-59.352-20.297-12.93-45.773-14.672-67.645-4.6211l-20.074-30.781h51.562c3.4062 0.015625 6.6094-1.6289 8.582-4.4062zm-19.602 104.77c3.2383 4.9141 9.8477 6.2695 14.758 3.0312 4.9141-3.2383 6.2695-9.8477 3.0312-14.758l-26.293-40.305c5.5898-2.2109 11.543-3.3594 17.555-3.3867 15.41-0.046875 29.969 7.0703 39.395 19.266 9.4219 12.195 12.645 28.074 8.7148 42.977-3.9336 14.902-14.566 27.129-28.777 33.086-14.215 5.9609-30.391 4.9727-43.773-2.668-13.379-7.6406-22.449-21.07-24.539-36.34-2.0898-15.27 3.0352-30.641 13.871-41.598zm-260.64-287.8c1.1562-11.387 6.7734-21.855 15.621-29.113 8.8516-7.2578 20.219-10.715 31.613-9.6172 7.9141 0.83203 15.441 3.8555 21.727 8.7383 2.4688 1.9336 5.6797 2.6484 8.7344 1.9453 3.0586-0.70312 5.6328-2.7461 7.0078-5.5664 3.8945-7.8555 10.098-14.332 17.785-18.555 7.6836-4.2227 16.477-5.9883 25.195-5.0625 5.9375 0.46094 11.707 2.1797 16.926 5.0391 2.9844 1.8438 6.6992 2.0508 9.875 0.55859 3.1758-1.4922 5.3828-4.4844 5.8711-7.957 2.7383-15.199 11.176-28.781 23.59-37.973 12.41-9.1875 27.863-13.293 43.203-11.473 15.336 1.8203 29.402 9.4258 39.32 21.262 10.125 12.254 14.969 28.027 13.461 43.848-0.61719 3.7344 0.83203 7.5117 3.7852 9.8789 2.9531 2.3633 6.9531 2.9531 10.465 1.5352 13.992-5.7461 29.977-3.7266 42.102 5.3203s18.617 23.793 17.094 38.844c-0.50391 5.0781-1.8906 10.035-4.0938 14.641h-343.3c-4.7031-7.918-6.7969-17.117-5.9844-26.293zm59.277 166.49-33.93-100.21c-1.4219-4.2734-5.4141-7.1602-9.918-7.1641h-117.53v-11.969h452.25l-83.914 119.34z"/>
 </g>
</svg>