<?xml version="1.0" encoding="UTF-8"?>
<!-- The Best Svg Icon site in the world: iconSvg.co, Visit us! https://iconsvg.co -->
<svg fill="#000000" width="800px" height="800px" version="1.1" viewBox="144 144 512 512" xmlns="http://www.w3.org/2000/svg">
 <g>
  <path d="m626.93 253.69c-12.141-12.207-28.66-19.047-45.879-19-6.2266 0-12.422 0.89062-18.398 2.6523 1.7617-5.9766 2.6562-12.172 2.6562-18.398 0.046875-17.215-6.7969-33.738-19.004-45.879l-12.484-12.484-12.488 12.484c-8.9688 8.8828-15.117 20.215-17.676 32.578-2.5547 12.363-1.4062 25.207 3.3047 36.918h-48.602l15.742-15.742-34.746-34.75-50.492 50.492h-225.03v47.23h149.57v31.488h-31.488c-6.2617 0-12.27 2.4883-16.699 6.918-4.4297 4.4297-6.918 10.438-6.918 16.699 0.027344 2.6875 0.51562 5.3516 1.4492 7.8711h-17.191c-8.3516 0-16.359 3.3164-22.266 9.2227s-9.2227 13.914-9.2227 22.266c0.03125 5.543 1.543 10.98 4.375 15.746h-4.375c-7.6562 0-15.051 2.793-20.797 7.8516-5.7461 5.0625-9.4492 12.039-10.422 19.633-0.97266 7.5938 0.85156 15.285 5.1367 21.629-8.2812 2.832-15 9.0078-18.52 17.027-3.5195 8.0156-3.5195 17.141 0 25.156 3.5195 8.0195 10.238 14.195 18.52 17.027-4.2852 6.3438-6.1094 14.035-5.1367 21.629 0.97266 7.5938 4.6758 14.57 10.422 19.633 5.7461 5.0586 13.141 7.8516 20.797 7.8516h4.375c-2.832 4.7656-4.3438 10.203-4.375 15.746 0 8.3516 3.3164 16.359 9.2227 22.266s13.914 9.2227 22.266 9.2227h17.191c-0.93359 2.5195-1.4219 5.1836-1.4492 7.8711 0 6.2617 2.4883 12.27 6.918 16.699 4.4297 4.4297 10.438 6.918 16.699 6.918h118.08c6.2617 0 12.27-2.4883 16.699-6.918 4.4258-4.4297 6.9141-10.438 6.9141-16.699-0.023437-2.6875-0.51562-5.3516-1.4453-7.8711h17.191c8.3516 0 16.359-3.3164 22.266-9.2227 5.9023-5.9062 9.2227-13.914 9.2227-22.266-0.03125-5.543-1.543-10.98-4.3789-15.746h4.3789c7.6562 0 15.047-2.793 20.793-7.8516 5.7461-5.0625 9.4531-12.039 10.426-19.633s-0.85547-15.285-5.1406-21.629c8.2852-2.832 15.004-9.0078 18.523-17.027 3.5195-8.0156 3.5195-17.141 0-25.156-3.5195-8.0195-10.238-14.195-18.523-17.027 4.2852-6.3438 6.1133-14.035 5.1406-21.629s-4.6797-14.57-10.426-19.633c-5.7461-5.0586-13.137-7.8516-20.793-7.8516h-4.3789c2.8359-4.7656 4.3477-10.203 4.3789-15.746 0-8.3516-3.3203-16.359-9.2227-22.266-5.9062-5.9062-13.914-9.2227-22.266-9.2227h-17.191c0.92969-2.5195 1.4219-5.1836 1.4453-7.8711 0-6.2617-2.4883-12.27-6.9141-16.699-4.4297-4.4297-10.438-6.918-16.699-6.918h-39.363v-31.488h181.06v-5.5117 0.003906c12.469 9.5664 27.996 14.27 43.68 13.234s30.453-7.7422 41.559-18.863l12.484-12.477zm-94.465-69.496 1.3555-1.3516 1.3555 1.3555h-0.003907c9.2148 9.2148 14.391 21.715 14.391 34.746s-5.1758 25.531-14.391 34.746l-1.3516 1.3555-1.3555-1.3555c-2.3164-2.3203-4.3945-4.8711-6.2109-7.6016-6.2656-9.4492-9.0703-20.77-7.9414-32.051 1.1328-11.277 6.1289-21.816 14.145-29.832zm-337.14 341.76c0-4.1758 1.6602-8.1797 4.6133-11.133 2.9531-2.9492 6.957-4.6094 11.133-4.6094h87.379c-0.0625 0.28516 0 0.57422-0.085938 0.85938-0.45312 2.3086-0.6875 4.6562-0.69922 7.0117v23.617h-86.594c-4.1758 0-8.1797-1.6602-11.133-4.6133-2.9531-2.9492-4.6133-6.957-4.6133-11.133zm162.02-19.68c2.1406 3.5703 3.2773 7.6484 3.2969 11.809v23.617h-47.23v-23.617c-0.035156-6.9766 3.0273-13.609 8.3633-18.105 5.332-4.4961 12.387-6.3906 19.258-5.1758s12.848 5.418 16.312 11.473zm50.531 106.27c0 2.0898-0.82812 4.0898-2.3047 5.5664-1.4766 1.4766-3.4805 2.3047-5.5664 2.3047h-118.08c-4.3477 0-7.8711-3.5234-7.8711-7.8711 0-4.3477 3.5234-7.8711 7.8711-7.8711h118.08c2.0859 0 4.0898 0.82812 5.5664 2.3047 1.4766 1.4766 2.3047 3.4805 2.3047 5.5664zm47.23-39.359c0 4.1758-1.6562 8.1797-4.6094 11.133-2.9531 2.9531-6.957 4.6094-11.133 4.6094h-196.8c-5.625 0-10.824-3-13.637-7.8711-2.8125-4.8711-2.8125-10.871 0-15.742s8.0117-7.875 13.637-7.875h196.8c4.1758 0 8.1797 1.6602 11.133 4.6133 2.9531 2.9531 4.6094 6.957 4.6094 11.133zm15.742-31.488h-94.461v-23.617c-0.027343-2.3555-0.26953-4.7031-0.73437-7.0117-0.054688-0.28516 0-0.57422-0.085938-0.85938h95.285c5.625 0 10.82 3 13.633 7.8711s2.8125 10.875 0 15.746c-2.8125 4.8711-8.0078 7.8711-13.633 7.8711zm31.488-62.977h0.003907c0 4.1758-1.6602 8.1797-4.6133 11.133-2.9531 2.9531-6.957 4.6094-11.133 4.6094h-118.25c-0.0625-0.078126-0.13281-0.14844-0.19531-0.23438-0.27734-0.36328-0.58984-0.68359-0.88281-1.0391-0.78906-0.91406-1.5195-1.8125-2.3633-2.6523-0.41016-0.41797-0.84375-0.78906-1.2656-1.1875-0.78906-0.70703-1.5742-1.4102-2.3633-2.0547-0.48828-0.39453-1-0.78906-1.5039-1.1172-0.78906-0.58203-1.6289-1.1328-2.4727-1.6523-0.55078-0.33984-1.1016-0.65234-1.6602-0.96094-0.86719-0.47266-1.7383-0.90625-2.6367-1.3086-0.58203-0.26953-1.1562-0.52734-1.7539-0.78906-0.92969-0.37109-1.8828-0.68359-2.8438-0.97656-0.58984-0.17969-1.1641-0.37891-1.7617-0.53516-1.0547-0.27734-2.1328-0.47266-3.2109-0.65234-0.51953-0.085937-1.0312-0.21094-1.5742-0.28516v0.003906c-3.2383-0.44141-6.5234-0.44141-9.7617 0-0.52734 0.070313-1.0391 0.1875-1.5742 0.28516-1.0781 0.17969-2.1562 0.37891-3.2109 0.65234-0.59766 0.15625-1.1719 0.35547-1.7617 0.53516-0.96094 0.30078-1.9062 0.60547-2.8438 0.97656-0.59766 0.23438-1.1719 0.49609-1.7539 0.78906-0.89844 0.41016-1.7695 0.83594-2.6367 1.3086-0.55859 0.30859-1.1172 0.62891-1.6602 0.96094-0.85156 0.51953-1.668 1.0703-2.4727 1.6523-0.51172 0.36328-1.0156 0.72266-1.5039 1.1172-0.78906 0.64453-1.5742 1.3477-2.3633 2.0547-0.42578 0.39453-0.85938 0.78906-1.2656 1.1875-0.78906 0.84375-1.5742 1.7383-2.3633 2.6523-0.29297 0.35547-0.60547 0.67578-0.88281 1.0391-0.0625 0.078125-0.13281 0.14844-0.19531 0.23438l-110.28-0.003906c-5.625 0-10.82-3-13.633-7.8711s-2.8125-10.871 0-15.742 8.0078-7.8711 13.633-7.8711h291.27c4.1758 0 8.1797 1.6562 11.133 4.6094 2.9531 2.9531 4.6133 6.957 4.6133 11.133zm-15.742-47.23c0 4.1758-1.6562 8.1797-4.6094 11.133-2.9531 2.9492-6.957 4.6094-11.133 4.6094h-259.78c-5.625 0-10.824-3-13.637-7.8711s-2.8125-10.875 0-15.746c2.8125-4.8711 8.0117-7.8711 13.637-7.8711h259.78c4.1758 0 8.1797 1.6602 11.133 4.6133 2.9531 2.9492 4.6094 6.957 4.6094 11.133zm-31.488-47.23v-0.003906c0 4.1758-1.6562 8.1797-4.6094 11.133-2.9531 2.9531-6.957 4.6133-11.133 4.6133h-196.8c-5.625 0-10.824-3.0039-13.637-7.875s-2.8125-10.871 0-15.742c2.8125-4.8711 8.0117-7.8711 13.637-7.8711h196.8c4.1758 0 8.1797 1.6562 11.133 4.6094 2.9531 2.9531 4.6094 6.957 4.6094 11.133zm-55.105-47.23 0.003906-0.003906c4.3477 0 7.8711 3.5234 7.8711 7.8711 0 4.3477-3.5234 7.8711-7.8711 7.8711h-118.08c-4.3477 0-7.8711-3.5234-7.8711-7.8711 0-4.3477 3.5234-7.8711 7.8711-7.8711h118.08zm-55.105-15.742-15.742-0.007812v-31.488h15.742zm181.05-47.23-346.36-0.007813v-15.746h215.8l43.973-43.973 12.484 12.484-31.488 31.488h95.289c0.17188 0.22656 0.37891 0.41016 0.55078 0.62891l0.003907 0.003906c1.5898 2.0625 3.3008 4.0312 5.1289 5.8867l4.6133 4.6133zm89.852-6.5195 0.003906-0.007812c-9.2148 9.2148-21.715 14.391-34.746 14.391s-25.531-5.1758-34.746-14.391l-1.3555-1.3516 1.3555-1.3555c9.2148-9.2148 21.715-14.391 34.746-14.391s25.531 5.1758 34.746 14.391l1.3555 1.3555z"/>
  <path d="m610.24 370.82-4.1953-4.1953h-0.003907c6.7305-2.8672 11.75-8.6875 13.598-15.762 1.8477-7.0781 0.3125-14.609-4.1562-20.398-4.4688-5.7852-11.367-9.1797-18.68-9.1836h-1.3555c-6.2656-0.011719-12.277 2.4766-16.695 6.9219l-5.5664 5.5625-2.3047-2.3047h-0.003906c-3.7578-3.7344-8.4375-6.4062-13.562-7.7461-5.125-1.3398-10.512-1.3047-15.617 0.10937v-18.285h-15.746v23.617l-23.613-0.003906v15.742h18.285v0.003906c-1.4141 5.1055-1.4531 10.492-0.10938 15.617 1.3398 5.125 4.0117 9.8047 7.7461 13.562l2.3047 2.3047-5.5664 5.5664 0.003906 0.003907c-4.4453 4.418-6.9375 10.43-6.9219 16.695v1.3555c0.003906 7.3125 3.3984 14.211 9.1836 18.68 5.7891 4.4688 13.32 6.0039 20.398 4.1562 7.0742-1.8477 12.895-6.8672 15.762-13.594l4.1953 4.1953c4.6602 4.6875 10.746 7.6914 17.301 8.5469 6.5508 0.85547 13.203-0.48828 18.91-3.8242l11.02 11.02 11.133-11.133-11.02-11.02c3.293-5.7188 4.6133-12.359 3.7578-18.902-0.85156-6.543-3.832-12.625-8.4805-17.309zm-14.793-33.793h1.3555c4.3477 0 7.8711 3.5234 7.8711 7.8711 0 4.3477-3.5234 7.8711-7.8711 7.8711h-20.359l13.438-13.438c1.4805-1.4688 3.4805-2.3008 5.5664-2.3047zm-35.699 5.5664 2.3047 2.3047-20.355 20.355-2.3047-2.3047h-0.003906c-2.6914-2.7031-4.2031-6.3594-4.2031-10.176 0-3.8125 1.5117-7.4727 4.2031-10.172 2.7031-2.6914 6.3633-4.2031 10.176-4.2031s7.4727 1.5117 10.176 4.2031zm-10.18 57.41c0 4.3477-3.5234 7.8711-7.8711 7.8711-4.3477 0-7.8711-3.5234-7.8711-7.8711v-1.3555c0.003906-2.0859 0.83203-4.0859 2.3047-5.5664l13.438-13.438zm15.742-11.133 0.003906-20.355h20.355l3.9375 3.9375-20.359 20.355zm15.23 14.902 20.027-20.027h0.003906c2.7031 3.7148 3.4648 8.4961 2.0469 12.863-1.418 4.3672-4.8438 7.793-9.2109 9.2109-4.3672 1.418-9.1523 0.65625-12.863-2.0469z"/>
 </g>
</svg>