<?xml version="1.0" encoding="UTF-8"?>
<!-- The Best Svg Icon site in the world: iconSvg.co, Visit us! https://iconsvg.co -->
<svg fill="#000000" width="800px" height="800px" version="1.1" viewBox="144 144 512 512" xmlns="http://www.w3.org/2000/svg">
 <path d="m525.95 200.57h-167.93v-20.992c0-2.7852-1.1055-5.4531-3.0742-7.4219s-4.6406-3.0742-7.4219-3.0742h-41.984c-5.7969 0-10.496 4.6992-10.496 10.496v20.992h-20.992c-5.7969 0-10.496 4.6992-10.496 10.496v115.46c0 2.7812 1.1055 5.4531 3.0742 7.4219s4.6367 3.0742 7.4219 3.0742h20.992v283.39c0 2.7852 1.1055 5.4531 3.0742 7.4219s4.6367 3.0742 7.4219 3.0742h41.984c2.7812 0 5.4531-1.1055 7.4219-3.0742s3.0742-4.6367 3.0742-7.4219v-283.39h38.414l66.547 51.535 25.402 19.734-0.003906-0.003907c2.6875 2.1758 6.2773 2.8828 9.5898 1.8984s5.9297-3.5391 6.9922-6.832c19.656-62.254 30.262-127.01 31.488-192.29 0-2.7852-1.1055-5.4531-3.0742-7.4219-1.9648-1.9688-4.6367-3.0742-7.4219-3.0742zm-209.92-10.496h20.992v10.496h-20.992zm20.992 419.84h-20.992v-272.89h20.992zm62.977-293.89-115.46 0.003906v-94.465h199.42c-2.1055 47.516-9.1406 94.688-20.988 140.75l-56.68-44.082c-1.8047-1.3984-4.0156-2.1758-6.2969-2.2031zm89.008 66.441-7.8711-6.1914h-0.003907c13.727-50.512 21.723-102.41 23.824-154.71h10.496c-2.332 54.5-11.211 108.52-26.449 160.9z"/>
</svg>