<?xml version="1.0" encoding="UTF-8"?>
<!-- The Best Svg Icon site in the world: iconSvg.co, Visit us! https://iconsvg.co -->
<svg fill="#000000" width="800px" height="800px" version="1.1" viewBox="144 144 512 512" xmlns="http://www.w3.org/2000/svg">
 <g>
  <path d="m502.34 297.66c0 4.3477-3.5273 7.8711-7.875 7.8711-4.3477 0-7.8711-3.5234-7.8711-7.8711 0-4.3477 3.5234-7.875 7.8711-7.875 4.3477 0 7.875 3.5273 7.875 7.875"/>
  <path d="m171.71 636.16h456.58c2.0859 0 4.0898-0.83203 5.5664-2.3047 1.4727-1.4766 2.3047-3.4805 2.3047-5.5664v-204.68c0-2.0859-0.83203-4.0898-2.3047-5.5664-1.4766-1.4766-3.4805-2.3047-5.5664-2.3047h-15.578c2.1016-55.762 23.156-217.68 23.383-219.4 0.29297-2.2461-0.39453-4.5078-1.8906-6.2109-1.4961-1.7031-3.6523-2.6797-5.9141-2.6797h-15.746c-3.0469 0-5.8203 1.7578-7.1172 4.5117-7.168 15.195-13.676 36.875-19.465 64.801-1.1445-31.145-2.7344-61.52-4.9375-85.77-0.37109-4.0547-3.7695-7.1602-7.8398-7.1602h-23.617c-4.3477 0-7.8711 3.5273-7.8711 7.875v244.03h-20.453l12.203-103.77h-0.003906c1.5234-12.871-1.543-25.863-8.6602-36.695-7.1172-10.828-17.824-18.801-30.242-22.512v-10.207c6.0547-0.046875 11.863-2.3945 16.246-6.5742 4.3828-4.1758 7.0078-9.8672 7.3398-15.91 0.32031-6.1953-1.832-12.266-5.9844-16.875 4.1523-4.6133 6.3047-10.68 5.9844-16.879-0.33984-6.1172-3.0312-11.871-7.5078-16.059-4.4766-4.1914-10.395-6.4883-16.523-6.4258h-23.172c-6.2617 0.007812-12.266 2.5-16.691 6.9258-4.4297 4.4297-6.918 10.43-6.9258 16.691v68.277c-10.438 4.918-19.066 12.996-24.66 23.09-5.5977 10.094-7.875 21.691-6.5195 33.152l5.7266 48.707c-0.58594 0.019531-1.168 0.042968-1.75 0.078124l-32.656-38.594c13.828-20.016 16.414-45.73 6.8555-68.102-9.5625-22.371-29.938-38.27-53.961-42.105-24.023-3.8359-48.336 4.9219-64.395 23.203-19.895-10.637-43.664-11.164-64.012-1.4141-20.344 9.75-34.828 28.605-39.004 50.777-4.1758 22.168 2.457 45.004 17.863 61.484-7.3672 11.391-11.262 24.68-11.211 38.246 0.011719 10.926 2.543 21.699 7.3945 31.488h-15.266c-4.3477 0-7.875 3.5234-7.875 7.8711v204.68c0 2.0859 0.83203 4.0898 2.3086 5.5664 1.4766 1.4727 3.4766 2.3047 5.5664 2.3047zm415.66-283.49 0.95312-0.015625c-0.035156-2.4141-0.074218-4.8828-0.11328-7.3711 5.6641-48.703 15.051-108.18 29.438-142.08h1.6875c-4.5273 35.301-20.598 163.27-22.371 212.54h-15.363c0.84375-11.875 2.6797-35.316 5.7695-63.074zm-29.93-173.09h8.5234c3.8516 46.914 5.6484 113.36 6.4844 164.72-3.6641 31.68-5.7578 58.883-6.6328 71.438h-8.375zm-94.391 7.8711c0.007813-4.3438 3.5273-7.8672 7.875-7.8711h23.172c4.3008-0.074219 7.9297 3.1914 8.3047 7.4766 0.10937 2.1562-0.67188 4.2578-2.1562 5.8203-1.4883 1.5625-3.5508 2.4453-5.707 2.4453-4.3477 0-7.8711 3.5273-7.8711 7.875 0 4.3477 3.5234 7.8711 7.8711 7.8711 2.1562 0 4.2188 0.88281 5.707 2.4453 1.4844 1.5625 2.2656 3.668 2.1562 5.8203-0.375 4.2891-4.0039 7.5547-8.3047 7.4766h-7.4297c-4.3477 0-7.8711 3.5273-7.8711 7.875v15.742h-7.9727c-2.6016 0.003906-5.1992 0.19531-7.7734 0.57031zm-0.070313 118.08c4.3477 0 7.8711-3.5234 7.8711-7.8711 0-4.3477-3.5234-7.875-7.8711-7.875h-28.195c3.0547-7.0156 8.0938-12.988 14.496-17.184 6.3984-4.1953 13.887-6.4297 21.543-6.4297h7.9258c11.234 0.003907 21.934 4.8125 29.395 13.211 7.4648 8.3984 10.98 19.59 9.6641 30.746l-3.1641 26.891h-37.844v0.24609c-3.4961 0.875-5.9492 4.0195-5.9492 7.625s2.4531 6.75 5.9492 7.625v0.24609h35.992l-7.4023 62.977h-26.668c0-5.332-0.77734-10.637-2.3047-15.742h10.176c4.3477 0 7.8711-3.5273 7.8711-7.875s-3.5234-7.8711-7.8711-7.8711h-17.793c-7.4219-10.637-18.352-18.328-30.875-21.719l-6.1602-52.398v-0.003907c-0.17578-1.5273-0.26172-3.0625-0.25781-4.5977zm-39.359 70.848h-0.003907c10.438 0.011719 20.441 4.1602 27.82 11.539s11.531 17.387 11.543 27.82h-78.723c0.011719-10.434 4.1641-20.441 11.543-27.82s17.383-11.527 27.816-11.539zm-236.16-78.719c0.003906-13.402 4.8867-26.34 13.738-36.398 8.8516-10.062 21.062-16.551 34.352-18.258 13.289-1.707 26.746 1.4844 37.855 8.9805 3.5391 2.3945 8.3438 1.5273 10.824-1.957 8.6797-12.238 21.977-20.406 36.816-22.617 14.84-2.2109 29.941 1.7227 41.812 10.898 11.871 9.1797 19.488 22.801 21.086 37.719 1.6016 14.918-2.9531 29.844-12.609 41.328-0.28516 0.33984-0.53906 0.70312-0.76172 1.082l-0.089844-0.078125c-10.465 11.855-25.512 18.652-41.328 18.66-4.3477 0-7.8711 3.5234-7.8711 7.8711 0 4.3477 3.5234 7.8711 7.8711 7.8711 17.707-0.003906 34.773-6.6367 47.836-18.59l25.844 30.543 0.003906 0.003906c-10.5 4.3047-19.422 11.73-25.562 21.27-10.406-11.148-24.977-17.48-40.227-17.48-15.254 0-29.82 6.332-40.227 17.48-7.6367-11.906-19.562-20.422-33.305-23.777-13.746-3.3555-28.254-1.2969-40.52 5.7461-12.266 7.0469-21.355 18.539-25.383 32.102-1.5234-5.1289-2.293-10.457-2.2852-15.809-0.039063-12.457 4.1836-24.551 11.977-34.273 2.6133-3.2891 2.1836-8.0547-0.98047-10.824-11.98-10.461-18.859-25.59-18.867-41.492zm182.7 104.73c-1.0938 4.3672-1.6445 8.8516-1.6445 13.352h-70.059c2.1016-10.293 8.2266-19.316 17.016-25.066 8.793-5.75 19.516-7.75 29.789-5.5469 10.27 2.1992 19.234 8.4141 24.898 17.262zm-83.289-1.5547c-2.1641 4.7344-3.6367 9.7539-4.3789 14.906h-71.418c-0.007812-12.262 5.7031-23.824 15.438-31.277 9.7383-7.4492 22.391-9.9375 34.227-6.7305 11.832 3.2109 21.496 11.75 26.133 23.102zm-107.29 30.652h440.83v31.488h-440.83zm0 47.23h440.83v15.742h-440.83zm0 31.488h440.83v31.488h-440.83zm0 47.23h440.83v15.742l-440.83 0.003906zm0 31.488h440.83v31.488h-440.83z"/>
 </g>
</svg>