<?xml version="1.0" encoding="UTF-8"?>
<!-- The Best Svg Icon site in the world: iconSvg.co, Visit us! https://iconsvg.co -->
<svg fill="#000000" width="800px" height="800px" version="1.1" viewBox="144 144 512 512" xmlns="http://www.w3.org/2000/svg">
 <g>
  <path d="m242.6 245.12c2.4766 1.7148 5.2578 2.9336 8.1953 3.5977-1.8203 4.8633-1.9648 10.195-0.41016 15.152 1.5508 4.957 4.7109 9.2539 8.9805 12.211 2.4766 1.707 5.2539 2.9297 8.1875 3.5977-2.4414 6.5352-1.8477 13.824 1.6211 19.879 3.4727 6.0547 9.457 10.254 16.332 11.449 6.875 1.1992 13.93-0.72656 19.242-5.25 4.332 6.668 11.73 10.699 19.68 10.723 1.3906 0 2.7812-0.12109 4.1484-0.36328 4.0547-0.73828 7.8438-2.5312 10.984-5.2031 4.3086 6.6875 11.723 10.73 19.68 10.73 1.4023-0.003907 2.8047-0.12891 4.1875-0.37109 6.1719-1.0781 11.656-4.5742 15.238-9.7148l180.55 126.43c3.9492 2.7852 8.668 4.2773 13.5 4.2734 1.3906 0.003906 2.7773-0.12109 4.1484-0.35938 6.168-1.0898 11.652-4.582 15.246-9.7109 3.5938-5.1328 5-11.48 3.9141-17.648-1.0898-6.168-4.582-11.652-9.7148-15.246l-180.56-126.41c4.4922-6.4219 5.5078-14.656 2.707-21.977-2.8008-7.3203-9.0508-12.773-16.68-14.559 2.3125-6.3242 1.8008-13.336-1.4062-19.258-3.2031-5.9219-8.7969-10.184-15.355-11.703 2.4258-6.5391 1.8203-13.816-1.6562-19.859-3.4766-6.0469-9.4609-10.23-16.328-11.426-6.8711-1.1914-13.914 0.73438-19.227 5.2539-3.6523-5.6758-9.5781-9.5-16.254-10.488-6.6758-0.98828-13.453 0.95703-18.594 5.332-4.2734-6.5742-11.531-10.594-19.371-10.727-7.8359-0.12891-15.227 3.6445-19.715 10.07l-27.07 38.691c-3.5938 5.1289-5 11.477-3.9141 17.645 1.0859 6.168 4.5781 11.652 9.707 15.246zm337.92 172.19c0.75391 4.2812-2.1055 8.3594-6.3828 9.1172-2.0586 0.375-4.1797-0.09375-5.8828-1.3086l-180.56-126.45 9.0273-12.902 180.56 126.43c1.7188 1.1992 2.8867 3.043 3.2344 5.1094zm-187.66-153.46-27.098 38.691c-1.1914 1.7148-3.0195 2.8789-5.0742 3.2344-3.1367 0.55078-6.2969-0.83984-8.0078-3.5273-1.707-2.6836-1.6328-6.1367 0.19531-8.7461l27.086-38.684 0.003906 0.003907c1.1875-1.7188 3.0195-2.8867 5.0781-3.2461 0.45703-0.078125 0.91797-0.11719 1.3828-0.11719 2.9336 0.003906 5.6211 1.6406 6.9727 4.2461 1.3516 2.6016 1.1445 5.7422-0.53906 8.1445zm-16.766-30.961-45.145 64.488h-0.003907c-2.4961 3.5625-7.4062 4.4258-10.965 1.9297-3.5625-2.4961-4.4258-7.4062-1.9297-10.969l45.152-64.48v0.003906c1.1914-1.7148 3.0195-2.8828 5.0781-3.2383 0.45703-0.082031 0.91797-0.125 1.3789-0.125 2.9336 0.007812 5.6211 1.6406 6.9727 4.2461 1.3516 2.6055 1.1406 5.7422-0.54297 8.1445zm-24.578-43.227c0.45703-0.078124 0.92188-0.11719 1.3828-0.11719 2.9336 0.007813 5.6211 1.6445 6.9727 4.2461 1.3516 2.6055 1.1445 5.7422-0.53906 8.1445l-63.246 90.277c-2.4922 3.5547-7.3984 4.418-10.957 1.9297-1.7109-1.1992-2.8711-3.0273-3.2344-5.0859-0.36328-2.0547 0.10938-4.1719 1.3086-5.8828l63.266-90.273c1.1914-1.7031 3.0039-2.8672 5.0469-3.2383zm-34.824-5.1641h-0.003906c0.45703-0.082031 0.92188-0.125 1.3867-0.125 2.9375 0.003906 5.625 1.6406 6.9805 4.25 1.3516 2.6055 1.1406 5.7461-0.55078 8.1484l-45.152 64.48c-2.4961 3.5547-7.3984 4.418-10.957 1.9297-3.5586-2.4961-4.418-7.3984-1.9297-10.957l45.145-64.488h0.003906c1.1914-1.7148 3.0195-2.8789 5.0742-3.2383zm-66.992 36.805 27.094-38.73c1.1914-1.7148 3.0195-2.8789 5.0781-3.2383 0.45703-0.078126 0.92188-0.12109 1.3867-0.125 2.9336 0.007812 5.6211 1.6445 6.9727 4.25 1.3477 2.6094 1.1367 5.75-0.55078 8.1484l-27.086 38.684c-2.4922 3.5586-7.3984 4.4258-10.961 1.9375-3.5391-2.4922-4.4023-7.3711-1.9336-10.926z"/>
  <path d="m361.51 419.55c5.0078-6.1719 7.4805-14.02 6.918-21.949-0.56641-7.9297-4.125-15.348-9.957-20.75-5.832-5.4023-13.5-8.3828-21.449-8.3398h-94.465c-7.9492-0.042969-15.617 2.9375-21.449 8.3398-5.832 5.4023-9.3945 12.82-9.957 20.75-0.56641 7.9297 1.9062 15.777 6.9141 21.949-6.7734 3.1562-12.508 8.1758-16.535 14.473-4.0273 6.293-6.1797 13.605-6.207 21.078v141.7c0.015625 10.434 4.1641 20.438 11.543 27.816 7.3789 7.3789 17.383 11.531 27.82 11.543h110.21c10.434-0.011718 20.438-4.1641 27.816-11.543 7.3789-7.3789 11.531-17.383 11.543-27.816v-141.7c-0.023437-7.4727-2.1758-14.785-6.2031-21.078-4.0273-6.2969-9.7656-11.316-16.539-14.473zm-103.21-3.8086v-31.488h23.617v31.488zm39.359-31.488h23.617v31.488h-23.613zm55.105 15.742v0.003906c0 4.1758-1.6562 8.1797-4.6094 11.133-2.9531 2.9492-6.957 4.6094-11.133 4.6094v-31.488c4.1758 0 8.1797 1.6602 11.133 4.6133 2.9531 2.9531 4.6094 6.957 4.6094 11.133zm-110.21-15.742v31.488c-5.625 0-10.824-3-13.637-7.8711s-2.8125-10.875 0-15.746 8.0117-7.8711 13.637-7.8711zm-7.8711 47.23 110.21 0.003906c6.2617 0 12.27 2.4883 16.699 6.9141 4.4297 4.4297 6.918 10.438 6.918 16.699v7.8711l-157.44 0.003906v-7.875c0-6.2617 2.4883-12.27 6.918-16.699 4.4258-4.4258 10.434-6.9141 16.699-6.9141zm133.82 47.23v94.469h-157.44v-94.465zm-23.617 141.7h-110.21c-6.2656 0-12.273-2.4883-16.699-6.9141-4.4297-4.4297-6.918-10.438-6.918-16.699v-7.875h157.44v7.875c0 6.2617-2.4883 12.27-6.918 16.699-4.4297 4.4258-10.438 6.9141-16.699 6.9141z"/>
  <path d="m226.81 281.92h15.742v15.742h-15.742z"/>
  <path d="m226.81 321.28h15.742v15.742h-15.742z"/>
  <path d="m274.05 329.15h15.742v15.742h-15.742z"/>
  <path d="m321.28 329.15h15.742v15.742h-15.742z"/>
  <path d="m297.66 344.89h15.742v15.742h-15.742z"/>
  <path d="m250.43 344.89h15.742v15.742h-15.742z"/>
  <path d="m582.36 549.57 21.184-35.305c1.4961-2.4961 1.4961-5.6133 0-8.1094l-23.617-39.359c-1.4219-2.3672-3.9844-3.8164-6.7461-3.8164h-47.234c-2.7617 0-5.3203 1.4492-6.7461 3.8164l-21.324 35.543h-42.777c-2.7617 0-5.3242 1.4492-6.7461 3.8164l-23.617 39.359h0.003907c-1.5 2.4961-1.5 5.6133 0 8.1094l23.617 39.359h-0.003906c1.4219 2.3672 3.9844 3.8164 6.7461 3.8203h42.777l21.324 35.543v-0.003906c1.4258 2.3711 3.9844 3.8203 6.7461 3.8203h47.234c2.7617 0 5.3242-1.4492 6.7461-3.8203l23.617-39.359c1.4961-2.4961 1.4961-5.6133 0-8.1094zm-51.957-70.848h38.32l18.895 31.488-18.895 31.488h-38.32l-18.891-31.484zm-89.742 70.848 18.895-31.488h38.32l18.891 31.484-18.891 31.484-38.32 0.007813zm128.06 70.848h-38.32l-18.895-31.488 18.891-31.484h38.32l18.895 31.488z"/>
 </g>
</svg>