<?xml version="1.0" encoding="UTF-8"?>
<!-- The Best Svg Icon site in the world: iconSvg.co, Visit us! https://iconsvg.co -->
<svg fill="#000000" width="800px" height="800px" version="1.1" viewBox="144 144 512 512" xmlns="http://www.w3.org/2000/svg">
 <path d="m317.71 512.12c-1.2344-2.793-2.1562-6.0625-2.4727-9.9531-0.30078-3.6758-2.4102-6.6523-5.6445-7.957-5.1133-2.0469-11.504 0.61328-15.289 3.9609-6.8047 6.0234-12.871 9.8711-18.543 11.77-14.547 4.8516-20.832 0.61328-24.289-2.9961-2.1836-2.2812-5.1523-3.418-8.4023-3.2773-7.9609 0.42188-17.152 9.6484-22.375 15.727-17.117 1.5195-33.961 10.059-45.812 25.051-10.629 13.445-15.715 29.988-14.324 46.574 1.3984 16.707 9.1914 31.457 21.945 41.535 10.34 8.1758 22.914 12.469 36.145 12.469 3.0859 0 6.207-0.23438 9.3438-0.70703 16.457-2.4766 31.371-11.246 42.004-24.695 1.3672-1.7266 2.6289-3.5 3.8008-5.3086 0.75 1.1602 1.4609 2.3359 2.293 3.4609 13.133 17.797 33.457 27.211 54.039 27.211 13.832 0 27.777-4.2539 39.734-13.078 29.75-21.953 36.09-64.023 14.133-93.777-15.746-21.332-41.82-30.547-66.285-26.008zm63.859 90.117c-11.5-34-39.902-65.727-59.609-80.656 1.1953-0.16797 2.3945-0.32422 3.5938-0.41797 22.434 10.34 53.273 40.953 57.387 77.75-0.44141 1.1133-0.86328 2.2344-1.3711 3.3242zm-29.371 28.148c-34.105-19.91-61.18-67.402-65.781-89.004 0.30469-0.36328 0.57813-0.74219 0.89453-1.1016 10.887 19.566 39.719 62.164 66.168 89.586-0.42578 0.19531-0.85937 0.33984-1.2812 0.51953zm-88.723-44.973c-9.7109 19.273-26.625 39.711-49.043 49.301-0.52734-0.042969-1.0547-0.09375-1.5781-0.15625 21.098-15.008 38.93-38.152 50.238-57.875-0.058594 2.9102 0.0625 5.8203 0.38281 8.7305zm-90.445 16.562c5.9531-34.41 36.141-63.004 57.371-72.637 0.56641 0.046875 1.1328 0.13672 1.6953 0.20312-18.805 13.992-45.953 42.875-58.551 73.938-0.17969-0.5-0.34766-1-0.51562-1.5039zm7.6719 14.488c10.582-35.848 47.172-72.941 65.539-83.031 0.023438 0.011718 0.042969 0.023437 0.066407 0.03125-15.227 15.184-46.758 52.125-65.586 83.027-0.003906-0.007813-0.011719-0.019532-0.019531-0.027344zm8.0508 8.1914s-0.003906 0-0.003906-0.003906l-0.003906-0.003906c18.312-30.875 52.848-71.406 67.355-85.254 0.003906 0.003907 0.011719 0.007813 0.015625 0.011719 0.007813 0.007812 0.015625 0.015625 0.023438 0.019531-10.133 17.328-41.602 60.297-67.387 85.23zm9.7852 5.9219c25.695-25.434 54.348-64.637 65.621-82.969 0.015625 0.023437 0.035156 0.046875 0.050781 0.070313-5.5977 20.215-33.223 64.352-65.637 82.914-0.011718-0.007812-0.023437-0.011719-0.035156-0.015625zm80.008-76.988c8.4492 23.23 30.398 59.742 59.508 80.762-1.1875 0.16797-2.3828 0.23828-3.5781 0.33203-33.891-14.75-54.047-53.137-57.371-77.633 0.46094-1.1602 0.91016-2.3242 1.4414-3.4609zm17.16-21.078c0.17188-0.12891 0.32031-0.27734 0.49609-0.40625 0.17188-0.12891 0.35547-0.23438 0.53125-0.35938 14.777 14.738 49.828 58.488 67.621 91.664-0.16406 0.125-0.30859 0.26562-0.47656 0.39062s-0.34766 0.22266-0.51953 0.34375c-26.453-26.789-57.926-73.172-67.652-91.633zm10.953-6.4844c0.41797-0.1875 0.82422-0.39844 1.2422-0.57422 19.266 10.719 56.73 50.637 65.711 89.129-0.29688 0.35156-0.5625 0.72266-0.87109 1.0703-18.398-33.344-50.594-73.441-66.082-89.625zm-63.555-9.6289c8.9531 8.7734 21.27 10.617 36.648 5.4922 7.3125-2.4453 14.801-7.1133 22.898-14.277 0.16406-0.14844 0.33984-0.28516 0.52344-0.41406 0.51562 3.0977 1.3125 5.8906 2.3008 8.4336-5.3086 2.0898-10.453 4.8203-15.254 8.3633-7.0898 5.2344-12.809 11.633-17.176 18.715-3-4.1133-6.5195-7.9141-10.68-11.203-7.4492-5.8867-15.957-9.5586-24.812-11.27 2.2539-1.9609 4.2539-3.3906 5.5508-3.8398zm-60.32 34.301c5.3945-6.8281 12.008-12.062 19.199-15.68-11.043 9.3633-21.758 21.656-29.512 35.945 2.0156-7.2344 5.4609-14.129 10.312-20.266zm79.301 62.676c-4.8555 6.1445-10.773 11.09-17.348 14.719 8.9766-8.0352 16.477-17.379 22.426-26.961 0.32812 0.89063 0.69922 1.7695 1.0703 2.6484-1.7031 3.3203-3.7383 6.5391-6.1484 9.5938zm22.105-1.5859c-6.3398-8.5898-9.8359-18.387-10.789-28.312 6.6406 16.035 17.453 33.031 32.559 46.105-8.3672-3.8867-15.91-9.8555-21.77-17.793zm68.082-86.188c9.0938 3.8438 17.336 10.008 23.613 18.512 5.8398 7.918 9.3242 16.859 10.578 25.984-7.9961-18.148-20.93-33.449-34.191-44.496zm-19.441-104.19c1.1445-2.5352 4.1367-3.6602 6.6602-2.5273l4.5938 2.0664c2.5391 1.1406 3.6719 4.1211 2.5273 6.6602-0.83984 1.8633-2.6758 2.9727-4.5977 2.9727-0.69141 0-1.3945-0.14453-2.0625-0.44141l-4.5938-2.0664c-2.5352-1.1445-3.668-4.125-2.5273-6.6641zm-30.824-13.867c1.1445-2.543 4.1211-3.668 6.6602-2.5273l10.277 4.6211c2.5391 1.1406 3.6719 4.125 2.5273 6.6602-0.83984 1.8633-2.6758 2.9727-4.5977 2.9727-0.69141 0-1.3906-0.14453-2.0625-0.44141l-10.277-4.625c-2.5391-1.1406-3.6719-4.125-2.5273-6.6602zm-25.145-11.312c1.1406-2.5391 4.1289-3.6602 6.6602-2.5273l4.5938 2.0664c2.5391 1.1406 3.6719 4.1211 2.5273 6.6602-0.83984 1.8672-2.6758 2.9727-4.5977 2.9727-0.69141 0-1.3906-0.14453-2.0625-0.44531l-4.5938-2.0664c-2.5391-1.1367-3.668-4.1211-2.5273-6.6602zm69.754 55.527c1.1406 2.5391 0.011719 5.5195-2.5273 6.6602l-4.5938 2.0664c-0.67188 0.30078-1.3711 0.44141-2.0625 0.44141-1.9219 0-3.7578-1.1055-4.5977-2.9727-1.1406-2.5391-0.011719-5.5195 2.5273-6.6602l4.5938-2.0664c2.5352-1.1289 5.5156-0.003907 6.6602 2.5312zm-42.082 13.406 10.273-4.625c2.5352-1.1328 5.5195-0.015625 6.6602 2.5273 1.1445 2.5352 0.011718 5.5195-2.5234 6.6602l-10.273 4.625c-0.67188 0.30078-1.375 0.44141-2.0664 0.44141-1.9219 0-3.7578-1.1016-4.5938-2.9727-1.1445-2.5273-0.011718-5.5156 2.5234-6.6562zm-27.672 17.973c-1.1406-2.5391-0.011719-5.5195 2.5273-6.6602l4.5938-2.0664c2.5273-1.1367 5.5195-0.015624 6.6602 2.5273 1.1406 2.5391 0.011719 5.5195-2.5273 6.6602l-4.5938 2.0664c-0.66797 0.30078-1.3711 0.44141-2.0625 0.44141-1.9219 0.003906-3.7578-1.0977-4.5977-2.9688zm14.672-43.453c0 2.7852-2.2539 5.0391-5.0391 5.0391h-5.0391c-2.7812 0-5.0391-2.2539-5.0391-5.0391s2.2539-5.0391 5.0391-5.0391h5.0391c2.7812 0 5.0391 2.2539 5.0391 5.0391zm10.117 0c0-2.7852 2.2539-5.0391 5.0391-5.0391h10.098c2.7812 0 5.0391 2.2539 5.0391 5.0391s-2.2539 5.0391-5.0391 5.0391h-10.098c-2.7852 0-5.0391-2.2539-5.0391-5.0391zm30.293 0c0-2.7852 2.2539-5.0391 5.0391-5.0391h5.0391c2.7812 0 5.0391 2.2539 5.0391 5.0391s-2.2539 5.0391-5.0391 5.0391h-5.0391c-2.7852 0-5.0391-2.2539-5.0391-5.0391zm157.47-140.87c-8.1445 0-14.277-4.1836-14.277-9.7227 0-2.3633 1.9141-4.2812 4.2812-4.2812 2.2305 0 4.0625 1.7031 4.2656 3.8828 0.11328 0.10938 0.32812 0.25391 0.57812 0.39844 0.89062 0.52344 2.6133 1.1602 5.1562 1.1602s4.2617-0.63672 5.1562-1.1602c0.25-0.14844 0.46094-0.28906 0.57812-0.39844 0.20312-2.1758 2.0352-3.8828 4.2656-3.8828 2.3672 0 4.2812 1.918 4.2812 4.2812-0.007813 5.543-6.1445 9.7227-14.285 9.7227zm-16.723-36.09c0 4.6055-2.9648 8.082-6.9023 8.082-3.9336 0-6.9023-3.4766-6.9023-8.082s2.9688-8.0781 6.9023-8.0781c3.9336 0 6.9023 3.4727 6.9023 8.0781zm33.445 0c0-4.6055 2.9648-8.0781 6.9023-8.0781 3.9336 0 6.9023 3.4727 6.9023 8.0781s-2.9688 8.082-6.9023 8.082c-3.9336 0-6.9023-3.4727-6.9023-8.082zm128.5 362.13c-28.52 0-51.723-26.691-51.723-59.496l-0.003906-81.695c0-1.5938-0.10547-3.1562-0.26172-4.6992h10.129c0.12891 1.5469 0.20703 3.1133 0.20703 4.6992v81.691c0 27.254 18.68 49.422 41.648 49.422 2.7852 0 5.0352-2.2539 5.0352-5.0391s-2.2539-5.0391-5.0391-5.0391c-17.406 0-31.57-17.648-31.57-39.344l0.003906-81.691c0-2.7617-0.23047-5.457-0.55859-8.1172 1.582-1.7812 2.5703-4.0938 2.5703-6.6562v-12.172c0-6.9297-3.5195-13.051-8.8594-16.68l-32.758-76.449c-5.4062-11.352-13.305-20.879-22.785-27.789-0.14062-5.4336-4.582-9.8164-10.051-9.8164h-13.27c-1.5039 0-2.918 0.35547-4.2031 0.94922v-7.8125c1.6094-1.0195 3.1758-2.1211 4.6953-3.3203h23.191c8.1875 0 15.012-6.2109 15.543-14.141l1.6719-25.262c0.21875-0.48438 0.46875-0.94531 0.65625-1.4531 1.8359-4.9531 1.8984-10.211 0.41797-14.84l1.5898-24.066c13.125-5.1484 21.531-12.105 21.531-20.848 0-11.855-15.383-20.453-37.191-25.652-8.5938-20.246-30.555-34.57-55.84-34.57s-47.242 14.32-55.84 34.57c-21.805 5.1992-37.188 13.801-37.188 25.652 0 8.7383 8.3984 15.691 21.516 20.84l1.5977 24.098c-1.4727 4.6211-1.4062 9.8711 0.42969 14.812 0.1875 0.50391 0.43359 0.95703 0.64844 1.4414l1.6758 25.277c0.52344 7.9297 7.3438 14.141 15.539 14.141h23.191c1.5156 1.1992 3.082 2.3008 4.6953 3.3203v7.8086c-1.2812-0.59375-2.6953-0.94531-4.1953-0.94531h-13.27c-5.4648 0-9.9102 4.3828-10.051 9.8164-9.4883 6.9219-17.402 16.484-22.871 27.973l-26.051 60.793h-23.906c-5.5586 0-10.078 4.5234-10.078 10.078v10.078c0 5.5547 4.5195 10.078 10.078 10.078h8.6172c-0.0625 0.64453-0.19531 1.2656-0.19531 1.9219v12.172c0 5.5547 4.5234 10.078 10.078 10.078h29.406c5.5547 0 10.078-4.5234 10.078-10.078v-12.172c0-0.66016-0.13281-1.2812-0.19531-1.9219h2.5859l-2.2266 31.465v76.109c-1.793 1.8203-2.9062 4.3125-2.9062 7.0625v24.594c-10.668 3.7305-18.352 13.863-18.352 25.785 0 8.3359 6.7812 15.113 15.113 15.113h63.547c2.7852 0 5.0391-2.2539 5.0391-5.0391v-60.457c0-1.8359-0.53125-3.5352-1.3906-5.0195l2.6367-65.027c0.054687-1.3086 1.043-2.3359 2.25-2.3359s2.1875 1.0273 2.2422 2.3438l2.6445 65.004c-0.86719 1.4883-1.3984 3.1914-1.3984 5.0312v60.457c0 2.7852 2.2539 5.0391 5.0391 5.0391h63.551c8.3359 0 15.113-6.7812 15.113-15.113 0-11.922-7.6836-22.059-18.352-25.785v-24.594c0-2.7539-1.1172-5.25-2.9141-7.0703l-0.007812-76.457-2.1875-30.84c0.83984 0.14062 1.6641 0.33984 2.4727 0.59375-0.019532 0.35938-0.10547 0.69922-0.10547 1.0625v12.172c0 5.5547 4.5234 10.078 10.078 10.078h6.9141c0.19922 1.5312 0.32813 3.0938 0.32813 4.6992v81.691c0 38.363 27.723 69.574 61.801 69.574 2.7852 0 5.0391-2.2539 5.0391-5.0391-0.003906-2.7891-2.2578-5.043-5.043-5.043zm-93.938-275.92c5.4883 5.2383 10.145 11.594 13.586 18.809l29.484 68.824h-1.7539c-7.8086-6.6094-17.273-10.852-27.59-11.762l-4.043-8.8789-2.6172-36.887c-0.28516-4.082-3.2031-7.4102-7.0664-8.5742zm-23.348-12.875h13.27v33.93h-13.27zm29.172-35.07c-0.17578 2.6562-2.5898 4.7344-5.4844 4.7344h-13.109c4.0117-4.9609 7.4453-10.547 10.199-16.52 0.67188 0.085937 1.3438 0.17187 2.0234 0.17187 2.4727 0 4.9297-0.62891 7.2539-1.6953zm2.9375-29.543c-1.4375 3.875-4.3828 6.6719-7.3867 7.5391 2.0977-6.707 3.3281-13.629 3.5977-20.449 0.0625 0.019531 0.13281 0.011719 0.19531 0.035156 1.9219 0.69922 2.9922 2.2852 3.5469 3.4883 1.2227 2.6445 1.2422 6.1562 0.046875 9.3867zm0.48047-22.043c-0.21484-0.089844-0.40234-0.22266-0.62109-0.30078-1.3125-0.48047-2.6602-0.72266-4.0117-0.83594-0.14844-1.3203-0.28516-2.6406-0.51563-3.9648-0.1875-1.1211-0.5625-2.168-1.0859-3.1133 2.375-0.54297 4.6719-1.125 6.8945-1.7461zm-60.523-84.359c25.992 0 47.742 17.742 49.5 40.359-6.5625 4.7852-24.418 9.6094-49.5 9.6094-25.086 0-42.934-4.8281-49.516-9.5703 1.7695-22.656 23.523-40.398 49.516-40.398zm-82.953 50.145c0-4.5078 8.6445-10.059 23.902-14.387-0.20703 1.2773-0.41016 2.5547-0.51172 3.8594-0.26562 3.4336 1.3203 6.8359 4.1328 8.8828 9.7656 7.1211 31.008 11.543 55.43 11.543 24.422 0 45.664-4.4219 55.438-11.547 2.8125-2.0586 4.3945-5.4648 4.1211-8.8867-0.10156-1.3047-0.30859-2.5781-0.51172-3.8516 15.262 4.3281 23.906 9.8789 23.906 14.391 0 8.7461-32.316 21.449-82.957 21.449-50.633-0.003907-82.949-12.707-82.949-21.453zm28.402 25.941c-0.23047 0.56641-0.45703 1.1406-0.57422 1.7539-0.34375 1.8008-0.57422 3.5938-0.77734 5.3828-1.3477 0.11719-2.6875 0.35937-4 0.83984-0.22266 0.082031-0.41406 0.21484-0.63281 0.30859l-0.66406-9.9727c2.1445 0.59766 4.3594 1.1602 6.6484 1.6875zm-5.4453 20.926c0.55469-1.2031 1.625-2.7852 3.5469-3.4844 0.0625-0.023437 0.12891-0.011719 0.19141-0.035156 0.26953 6.8242 1.5 13.746 3.6016 20.457-3.0078-0.86719-5.9492-3.6719-7.3828-7.5469-1.1953-3.2344-1.1836-6.7422 0.042969-9.3906zm8.375 43.668c-2.8984 0-5.3086-2.0781-5.4805-4.7344l-0.88672-13.305c2.3242 1.0664 4.7773 1.6953 7.25 1.6953 0.67578 0 1.3516-0.085938 2.0234-0.17188 2.7578 5.9727 6.1914 11.559 10.199 16.52zm5.3164-49.957c0-3.5625 0.36328-7.2617 0.91016-10.652 1.2148-0.48438 2.3477-1 3.4727-1.5234 13.074 2.0703 27.523 3.125 41.918 3.125 11.324 0 22.672-0.66016 33.367-1.9453 4.2109 0.70703 8.3008 1.1992 12.117 1.4453 0.54297 3.2266 0.81641 6.4375 0.81641 9.5508 0 27.977-20.227 60.496-46.301 60.496-26.074 0-46.301-32.52-46.301-60.496zm64.164 84.891v29.332h-35.715v-29.336c11.816 1.7773 23.832 1.7812 35.715 0.003906zm-31.52-9.6094v-7.0898c4.3516 1.4883 8.9023 2.3789 13.656 2.3789 4.7578 0 9.3086-0.89453 13.656-2.3789v7.0898c-9.0703 1.1367-18.238 1.1367-27.312 0zm-27.543 5.0117h13.27v33.93h-13.27zm-7.1289 44.004 96.648 0.023438 3.1602 44.48h-14.117v-21.539c0-5.5586-4.5234-10.078-10.078-10.078h-54.57c-5.5547 0-10.078 4.5195-10.078 10.078v21.539h-14.117zm75.621 44.504h-54.578v-21.539h54.574zm-92.234-56.645c3.4883-7.3203 8.168-13.723 13.668-18.984v21.52c-3.8633 1.1602-6.7812 4.4922-7.0664 8.5703l-2.6094 36.879-3.9453 8.6562h-24.312zm-11.227 100.97h-29.41v-12.172c0-5.5547 4.5234-10.078 10.082-10.078h9.2539c5.5547 0 10.078 4.5234 10.078 10.078zm62.602 155.96h-58.508c-2.7812 0-5.0391-2.2578-5.0391-5.0391 0-9.5156 7.7422-17.258 17.266-17.258h29.023c9.5156 0 17.258 7.7422 17.258 17.258zm0-26.211c-4.7109-3.8477-10.719-6.1602-17.258-6.1602h-27.938v-23.047h45.195zm13.574-111.66c-6.6328 0-12.043 5.2734-12.316 12.004l-2.4531 60.375h-41.102l-0.007813-72.742 2.2539-31.816h107.25l2.2344 31.465v73.098h-41.094l-2.4531-60.367c-0.26953-6.7422-5.6758-12.016-12.309-12.016zm58.766 82.453v23.047h-27.938c-6.543 0-12.555 2.3164-17.266 6.1602v-29.207zm18.352 50.383c0 2.7812-2.2578 5.0391-5.0391 5.0391l-58.516-0.003906v-5.0391c0-9.5156 7.7422-17.258 17.266-17.258h29.023c9.5195 0 17.266 7.7461 17.266 17.262zm-7.9062-173.75c-2.6836-0.85156-5.4883-1.3516-8.3945-1.3516h-130.97c-3.6758-4.918-9.4922-8.1523-16.098-8.1523h-9.2539c-6.6016 0-12.418 3.2344-16.098 8.1523h-12.477v-10.078h184.9c5.957 0 11.629 1.4141 16.785 3.9492-3.4609 1.6602-6.3672 4.25-8.3906 7.4805zm6.9609 22.824v-12.172c0-5.5547 4.5234-10.078 10.078-10.078h9.2539c5.5547 0 10.078 4.5234 10.078 10.078v12.172z"/>
</svg>