<?xml version="1.0" encoding="UTF-8"?>
<!-- The Best Svg Icon site in the world: iconSvg.co, Visit us! https://iconsvg.co -->
<svg fill="#000000" width="800px" height="800px" version="1.1" viewBox="144 144 512 512" xmlns="http://www.w3.org/2000/svg">
 <path d="m596.48 476.25h-2.918v-58.348c0-30.883-5.4922-61.211-16.316-90.129l-13.922-37.211c-3.0859-8.25-10.051-14.316-18.32-16.566v-9.7227c0-36.281-29.523-65.801-65.809-65.801-2.7852 0-5.0391 2.2539-5.0391 5.0391v35.98c0 2.7852 2.2539 5.0391 5.0391 5.0391 10.887 0 19.75 8.8594 19.75 19.75v8.7227h-50.383c-2.7852 0-5.0391 2.2539-5.0391 5.0391v55.129l-230.71-0.003906c-2.7852 0-5.0391 2.2539-5.0391 5.0391v138.05l-4.2656-0.003906c-2.7852 0-5.0391 2.2539-5.0391 5.0391l0.003906 55.602c0 2.7852 2.2539 5.0391 5.0391 5.0391h20.578c-0.80078 3.4961-1.2617 7.1211-1.2617 10.859-0.003906 26.871 21.859 48.73 48.734 48.73s48.734-21.859 48.734-48.734c0-3.7383-0.46094-7.3594-1.2617-10.859h161.73c-0.80078 3.4961-1.2617 7.1211-1.2617 10.859 0 26.875 21.859 48.734 48.73 48.734 26.875 0 48.734-21.859 48.734-48.734 0-3.7383-0.46094-7.3594-1.2617-10.859h20.77c2.7852 0 5.0391-2.2539 5.0391-5.0391v-55.598c0-2.7852-2.2539-5.0391-5.0391-5.0391zm-16.816-101.63h-95.039v-57.426h77.906l5.2812 14.109c5.2852 14.125 9.2344 28.602 11.852 43.316zm-95.43-139.74v-26.105c28.379 2.5547 50.691 26.469 50.691 55.504v8.7227h-25.902v-8.7227c0-14.73-10.73-27.004-24.789-29.398zm53.762 48.195c7.0352 0 13.422 4.4297 15.891 11.02l4.875 13.023h-79.176c-2.7852 0-5.0391 2.2539-5.0391 5.0391v67.504c0 2.7852 2.2539 5.0391 5.0391 5.0391h101.67c1.4844 10.965 2.2305 22.047 2.2305 33.207v58.348l-129.88-0.003906v-193.18zm-320.14 107.86h225.68v37.617h-225.68zm225.68-47.695v37.617h-225.68v-37.617zm-225.68 95.391h225.68v37.617h-225.68zm53.711 152.81c-21.32 0-38.66-17.344-38.66-38.656 0-21.32 17.344-38.66 38.66-38.66 21.312 0 38.656 17.344 38.656 38.66 0 21.312-17.344 38.656-38.656 38.656zm256.68 0c-21.312 0-38.656-17.344-38.656-38.656 0-21.32 17.344-38.66 38.656-38.66s38.656 17.344 38.656 38.66c0 21.312-17.34 38.656-38.656 38.656zm63.203-59.59h-19.262c-7.8516-16.41-24.566-27.805-43.941-27.805s-36.09 11.391-43.941 27.805h-168.79c-7.8516-16.41-24.566-27.805-43.941-27.805s-36.094 11.391-43.945 27.805h-19.07v-45.523h382.89z"/>
</svg>