<?xml version="1.0" encoding="UTF-8"?>
<!-- The Best Svg Icon site in the world: iconSvg.co, Visit us! https://iconsvg.co -->
<svg fill="#000000" width="800px" height="800px" version="1.1" viewBox="144 144 512 512" xmlns="http://www.w3.org/2000/svg">
 <g>
  <path d="m520.81 377.54c-0.48828-0.28906-11.246-6.4922-32.582-13.023 5.9844-10.203 11.387-23.871 9.9297-38.602-0.23828-2.3945-2.125-4.2812-4.5156-4.5195-14.941-1.4766-28.773 4.0703-39.117 10.227-5.7383-20.02-12.293-32.098-12.602-32.652-0.95703-1.7422-2.8047-2.7773-4.8359-2.6016-1.9805 0.16797-3.6797 1.4766-4.3359 3.3594-1.2344 3.5312-2.6367 7.1953-4.082 10.949-6.1406 16.027-12.871 33.629-10.316 49.473-4.1602-1.7539-8.6953-2.5898-13.273-2.3008-8.4375 0.52344-16.258 4.6445-21.457 11.309l-101.21 129.84c-8.4102 10.797-7.457 26.227 2.2148 35.902 5.2656 5.2617 12.227 7.9453 19.219 7.9453 5.8633 0 11.758-1.8906 16.688-5.7266l129.84-101.21c6.6641-5.1953 10.793-13.012 11.309-21.453 0.29688-4.8555-0.64844-9.6445-2.6133-13.98 2.4727 0.38672 4.9688 0.64453 7.5078 0.64453 14.27 0 29.332-5.6133 43.211-10.781 3.4609-1.2852 6.8477-2.5508 10.133-3.6875 1.8594-0.64063 3.1758-2.3086 3.3672-4.2656 0.1875-1.9609-0.77734-3.8516-2.4805-4.8438zm-132.02 93.602-40.395-40.395 24.309-31.188 47.266 47.273zm-39.195 30.551-31.75-31.75 24.312-31.191 38.629 38.629zm-35.242 27.473c-6.8008 5.2891-16.504 4.6836-22.586-1.3945-6.0859-6.0859-6.6875-15.793-1.3906-22.586l21.23-27.234 29.988 29.988zm129.83-101.2-16.199 12.625-49.035-49.035 12.629-16.203c3.4219-4.3945 8.5703-7.1055 14.125-7.4531 5.6367-0.33594 11.008 1.7188 14.941 5.6523l25.332 25.336c3.9336 3.9414 5.9961 9.3828 5.6523 14.938-0.33594 5.5703-3.0547 10.719-7.4453 14.141zm4.9453-41.68c-9.4727-6.0898-15.816-15.75-16.016-16.051-10.707-14.883-2.8281-35.613 4.875-55.695 2.6055 6.375 5.8242 15.348 8.5898 26.301 0.40625 1.6016 1.5703 2.9062 3.125 3.4883 1.5508 0.57422 3.2852 0.36328 4.6445-0.58984 8.3164-5.8047 20.641-12.363 33.973-12.496-0.125 13.09-6.4688 25.199-12.082 33.383-0.92188 1.3398-1.1367 3.043-0.57812 4.5703 0.55078 1.5273 1.8086 2.6953 3.375 3.1328 11.352 3.1758 20.094 6.4141 26.188 8.9688-20.066 7.4648-40.707 14.883-56.094 4.9883z"/>
  <path d="m203.11 208.55h74.387v18.262h-44.582c-2.7852 0-5.0391 2.2578-5.0391 5.0391v364.63c0 2.7812 2.2539 5.0391 5.0391 5.0391h333.36c2.7852 0 5.0391-2.2578 5.0391-5.0391v-364.63c0-2.7812-2.2539-5.0391-5.0391-5.0391h-44.582v-18.262h74.391c2.7852 0 5.0391-2.2578 5.0391-5.0391s-2.2539-5.0391-5.0391-5.0391h-392.97c-2.7852 0-5.0391 2.2578-5.0391 5.0391 0.003906 2.7812 2.2578 5.0391 5.043 5.0391zm358.12 28.34v354.55h-323.28v-354.55h39.543v19.289c-10.098 2.3008-17.672 11.316-17.672 22.102 0 12.52 10.188 22.707 22.711 22.707s22.711-10.188 22.711-22.707c0-10.785-7.5781-19.801-17.672-22.102v-19.289h224.04v19.289c-10.098 2.3008-17.668 11.316-17.668 22.102 0 12.52 10.184 22.707 22.707 22.707 12.523 0 22.711-10.188 22.711-22.707 0-10.785-7.5781-19.801-17.672-22.102v-19.289zm-278.7 28.758c6.9688 0 12.637 5.668 12.637 12.629 0 6.9609-5.668 12.629-12.637 12.629s-12.637-5.668-12.637-12.629c0-6.9609 5.668-12.629 12.637-12.629zm234.11 0c6.9688 0 12.637 5.668 12.637 12.629 0 6.9609-5.668 12.629-12.637 12.629-6.9609 0-12.629-5.668-12.629-12.629 0-6.9609 5.668-12.629 12.629-12.629zm-5.0352-38.836h-224.04l-0.003906-18.262h224.04z"/>
 </g>
</svg>