<?xml version="1.0" encoding="UTF-8"?>
<!-- The Best Svg Icon site in the world: iconSvg.co, Visit us! https://iconsvg.co -->
<svg fill="#000000" width="800px" height="800px" version="1.1" viewBox="144 144 512 512" xmlns="http://www.w3.org/2000/svg">
 <path d="m346.74 280.32c-11.668-3.8633-24.5-4.5234-39.223-1.9883-58.398 10.012-76.922 58.305-60.07 156.59 8.6953 50.691 22.848 92.652 40.93 121.33 18.121 28.758 40.082 43.676 64.004 43.676 3.3438 0 6.7266-0.29688 10.141-0.88281 4.2891-0.73438 8.4453-1.9062 12.344-3.4805 0.10547-0.039063 0.17187-0.13281 0.26562-0.17578 7.8203 4.0117 16.312 6.125 25.441 6.125 8.9141 0 17.215-2.0117 24.883-5.8398 3.8086 1.5156 7.8477 2.6602 12.02 3.375 3.4141 0.58594 6.7969 0.88281 10.141 0.88281 23.922 0 45.875-14.922 64.004-43.676 18.082-28.684 32.23-70.641 40.93-121.33 16.852-98.289-1.6719-146.58-60.07-156.59-14.348-2.4688-26.887-1.8828-38.32 1.7227-10.375-10.918-23.391-17.406-39.191-19.77l5.3945-41.324c0.023438-0.21484 0.039063-0.4375 0.039063-0.65625 0-10.938-8.9023-19.84-19.84-19.84s-19.84 8.9023-19.84 19.84c0 0.21094 0.011719 0.41797 0.039063 0.62891l5.1992 41.371c-15.824 2.4141-28.852 8.9844-39.219 20.012zm14.074 308.8c-23.859 4.0742-45.348-8.7773-63.918-38.238-17.383-27.574-31.043-68.262-39.52-117.66-15.883-92.656-0.38281-136.01 51.84-144.97 11.473-1.9648 21.492-1.6641 30.598 0.66406-16.949 24.43-24.918 64.434-24.918 121.94 0 89.332 17.938 151.71 49.438 177.46-1.1602 0.29297-2.3203 0.59375-3.5195 0.80078zm129.96-300.87c52.219 8.9609 67.723 52.312 51.836 144.97-8.4727 49.402-22.137 90.09-39.52 117.66-18.57 29.461-40.09 42.301-63.922 38.238-0.88672-0.15234-1.7422-0.39453-2.6094-0.58984 31.656-25.629 49.676-88.109 49.676-177.67 0-57.707-8.0195-97.781-25.086-122.19 8.8477-2.0938 18.555-2.3086 29.625-0.42188zm-99.969-70.234c0.15234-5.25 4.4688-9.4766 9.7617-9.4766 5.2852 0 9.6016 4.2227 9.7578 9.4648l-5.4023 41.328c-1.4375-0.058594-2.8828-0.10938-4.3594-0.10938-1.5469 0-3.0625 0.050781-4.5664 0.11719zm9.7617 51.289c52.984 0 75.59 42.336 75.59 141.56 0 87.289-19.859 180.57-75.59 180.57-55.738 0-75.598-93.281-75.598-180.57 0-99.219 22.605-141.55 75.598-141.55z"/>
</svg>