<?xml version="1.0" encoding="UTF-8"?>
<!-- The Best Svg Icon site in the world: iconSvg.co, Visit us! https://iconsvg.co -->
<svg fill="#000000" width="800px" height="800px" version="1.1" viewBox="144 144 512 512" xmlns="http://www.w3.org/2000/svg">
 <g>
  <path d="m308.05 344.89c-52.113 0-94.465 42.352-94.465 94.465 0 49.438 38.102 90.055 86.594 94.148v0.31641 7.5586l-0.003906 47.543h-7.8711c-4.4102 0-7.8711 3.4648-7.8711 7.8711 0 3.4648 2.0469 6.2969 5.0391 7.3984l-2.8359 2.8359c-2.9922 2.9922-2.9922 8.0312 0 11.02 1.5742 1.5781 3.6211 2.3633 5.668 2.3633 1.8906 0 3.9375-0.78906 5.5117-2.3633l13.383-13.379h12.594c4.25 0 7.8711-3.4648 7.8711-7.8711 0-4.4102-3.6211-7.8711-7.8711-7.8711h-7.8711v-55.102h31.488v55.098h-7.8711c-4.4102 0-7.8711 3.4648-7.8711 7.8711 0 3.4648 2.0469 6.2812 5.0234 7.3828l-2.7852 2.7852c-3.0703 3.0703-3.0703 8.0625 0 11.133 1.5234 1.5469 3.5391 2.3164 5.5508 2.3164 2.0156 0 4.0312-0.76953 5.5742-2.2969l13.43-13.445h12.484c4.3438 0 7.8711-3.5273 7.8711-7.8711s-3.5273-7.8711-7.8711-7.8711l-7.793-0.003907v-55.102-0.31641c22.828-1.8906 43.453-11.965 58.883-27.395 17.16-17.004 27.711-40.621 27.711-66.754h-47.23c-0.003906-52.113-42.352-94.465-94.465-94.465zm-70.852 62.977c0-4.4102 3.4648-7.8711 7.8711-7.8711h15.742c4.25 0 7.8711 3.4648 7.8711 7.8711 0 4.4102-3.6211 7.8711-7.8711 7.8711h-15.742c-4.4062 0-7.8711-3.4648-7.8711-7.8711zm125.95 0c0 4.4102-3.6211 7.8711-7.8711 7.8711h-15.742c-4.4102 0-7.8711-3.4648-7.8711-7.8711 0-4.4102 3.4648-7.8711 7.8711-7.8711h15.742c4.25 0 7.8711 3.4609 7.8711 7.8711zm-42.508 23.617-28.34 56.992-28.496-56.992z"/>
  <path d="m292.31 470.85 15.746-31.488h-31.488z"/>
  <path d="m549.72 338.44c14.645-14.484 23.461-34.477 23.461-56.52h-39.832c0-44.082-35.895-79.98-80.137-79.98-35.109 0-65.023 22.984-75.57 54.633-1.8906-0.62891-3.9375-0.47266-5.8242 0.31641l-2.9922 1.5742-32.906 16.375c-3.3047 1.7305-4.8789 5.3516-4.0938 8.8164 0.78516 3.6172 3.9336 6.1367 7.7148 6.1367h34.32c3.9375 40.461 38.102 72.109 79.352 72.109 0.62891 0 0.94531 0 1.5742-0.15625 0.15625 0.15625 0.31641 0.15625 0.78906 0.15625h6.4531l-0.15625 7.8711-0.47266 29.125-5.668-1.418c-4.0938-1.2578-8.5 1.2578-9.6055 5.5117-0.92969 3.2734 0.47266 6.6758 3.0859 8.4219l-3.4648 1.9844c-3.7773 2.1719-5.0703 6.9766-2.9141 10.738 1.4648 2.5352 4.1094 3.9531 6.832 3.9531 1.3398 0 2.6914-0.33203 3.9219-1.0391l19.301-11.117c0.03125-0.015626 0.046875-0.046876 0.0625-0.0625 0.30078-0.046876 0.58203-0.30078 0.88281-0.44141 0.31641-0.15625 0.62891-0.47266 0.78906-0.78906 0.125-0.125 0.125-0.31641 0.25-0.44141 0.85156-0.97656 1.4492-2.1094 1.7305-3.3359 0.10938-0.28516 0.23438-0.58203 0.23438-0.92969 0.47266 3.3047 2.9922 5.8242 5.9844 6.2969l-2.5352 3.3359c-2.6289 3.4648-1.9531 8.3906 1.5117 11.035 1.4336 1.0703 3.1016 1.6055 4.7695 1.6055 2.3633 0 4.7227-1.0703 6.2656-3.1016l13.477-17.727c0.03125-0.046875 0.03125-0.09375 0.0625-0.14062 0.21875-0.23438 0.39453-0.39453 0.53516-0.66016 0.31641-0.47266 0.62891-0.94531 0.62891-1.5742 0.046876-0.078125 0.03125-0.20312 0.0625-0.28516 0.03125-0.125 0.046876-0.25 0.078126-0.37891 0.15625-0.48828 0.33203-0.99219 0.33203-1.5273 0-0.47266-0.15625-0.94531-0.15625-1.5742-0.15625-0.62891-0.15625-1.1016-0.47266-1.5742-0.15625-0.15625-0.15625-0.47266-0.31641-0.62891l-13.227-33.219-3.1484-7.8711h2.6758c21.879-0.042968 42.031-9.0195 56.355-23.504zm-139.33-72.262c-4.5664 0-7.8711-3.4648-7.8711-7.8711 0-4.4102 3.3047-7.8711 7.8711-7.8711 4.4102 0 7.8711 3.4648 7.8711 7.8711s-3.4648 7.8711-7.8711 7.8711zm66.438 140.28v-0.15625l0.78906-34.793 11.336 28.652-5.5117 0.62891c-3.1484 0.47266-5.8242 2.8359-6.6133 5.668z"/>
 </g>
</svg>