<?xml version="1.0" encoding="UTF-8"?>
<!-- The Best Svg Icon site in the world: iconSvg.co, Visit us! https://iconsvg.co -->
<svg fill="#000000" width="800px" height="800px" version="1.1" viewBox="144 144 512 512" xmlns="http://www.w3.org/2000/svg">
 <g>
  <path d="m328.75 582.32c0 5.7305 4.6797 10.391 10.434 10.391h7.5586c5.75 0 10.434-4.6328 10.434-10.332v-217.1l-28.422-4.1367z"/>
  <path d="m357.18 217.68c0-5.7305-4.6797-10.391-10.434-10.391h-7.5586c-5.75 0-10.434 4.6602-10.434 10.391v18.734l28.422-4.1367z"/>
  <path d="m453.34 227.08-0.24609-1.1523-154.96 22.629-0.17969 0.85937c-6.832 32.758-6.832 65.977 0 98.734l0.17969 0.85937 153.96 22.48 0.23047-1.1758c10.188-51.754 10.523-98.602 1.0234-143.23z"/>
  <path d="m496.54 220.67-0.3125-1.0469-35.645 5.207 0.27734 1.3125c9.5508 45.332 9.2148 92.805-1.0312 145.14l-0.25391 1.2969 36.5 5.332 0.27734-1.1055c14.367-57.301 14.426-108.37 0.1875-156.13z"/>
 </g>
</svg>