<?xml version="1.0" encoding="UTF-8"?>
<!-- The Best Svg Icon site in the world: iconSvg.co, Visit us! https://iconsvg.co -->
<svg fill="#000000" width="800px" height="800px" version="1.1" viewBox="144 144 512 512" xmlns="http://www.w3.org/2000/svg">
 <g>
  <path d="m354.45 283.6-10.73-11.523c36.125-33.641 75.02-33.742 112.48-0.27734l-10.484 11.738c-31.773-28.367-60.781-28.352-91.27 0.0625z"/>
  <path d="m336.98 316.18c-0.91016 0-1.8281-0.15625-2.7227-0.48438-30.555-11.254-48.395-26.805-53.023-46.227-6.1094-25.594 13.582-47.121 14.426-48.023 1.9453-2.0938 4.8867-2.9688 7.6367-2.2812 28.652 7.0391 46.352 19.715 52.609 37.688 9.4844 27.223-11.797 55.109-12.707 56.281-1.5234 1.9648-3.8359 3.0469-6.2188 3.0469zm-32.586-80.445c-4.0742 5.7461-10.855 17.672-7.8242 30.172 3.0586 12.641 15.938 23.906 37.363 32.766 4.5664-7.6094 11.902-22.949 7.0859-36.699-4.0977-11.676-16.41-20.492-36.625-26.238z"/>
  <path d="m463.02 316.18c-2.3828 0-4.6953-1.082-6.2188-3.0469-0.91016-1.1719-22.191-29.059-12.707-56.281 6.2578-17.973 23.957-30.648 52.609-37.688 2.7578-0.6875 5.6914 0.1875 7.6367 2.2812 0.83984 0.90234 20.535 22.43 14.426 48.023-4.6328 19.418-22.469 34.969-53.023 46.227-0.88672 0.32812-1.8086 0.48438-2.7227 0.48438zm32.586-80.441c-20.25 5.75-32.562 14.582-36.645 26.293-4.7461 13.633 2.582 29.008 7.1211 36.637 21.422-8.8594 34.285-20.117 37.348-32.758 3.0273-12.492-3.7422-24.418-7.8242-30.172z"/>
  <path d="m341.45 503.9-36.629-137.36c-3.082-11.562-2.8125-23.699 0.76953-35.105l10.484-33.371 15.02 4.7188-10.484 33.371c-2.6914 8.5508-2.8867 17.66-0.57812 26.324l36.629 137.36z"/>
  <path d="m458.54 503.9-15.215-4.0586 36.629-137.36c2.3125-8.6641 2.1133-17.766-0.57812-26.324l-10.484-33.371 15.02-4.7188 10.484 33.371c3.5859 11.414 3.8516 23.551 0.76953 35.105z"/>
  <path d="m407.66 581.05h-15.312c-10.781 0-21.449-3.6836-30.035-10.363-1.3633-1.0625-33.484-26.285-34.852-48.277-0.38672-6.1953 1.6367-11.699 5.8555-15.922 8.6289-8.6328 17.312-9.7539 23.109-9.1797 16.699 1.6523 28.469 18.633 29.754 20.562l-13.098 8.7344c-2.375-3.5195-10.309-12.867-18.238-13.637-3.4883-0.34766-6.9219 1.1836-10.395 4.6523-0.73828 0.73828-1.4023 1.7148-1.2734 3.8047 0.58594 9.3711 15.406 26.414 28.805 36.84 5.9219 4.6055 12.961 7.043 20.363 7.043h15.312c7.4023 0 14.445-2.4375 20.363-7.043 13.402-10.426 28.227-27.469 28.809-36.84 0.12891-2.0898-0.53516-3.0664-1.2734-3.8047-3.4688-3.4688-6.8906-5.0039-10.395-4.6523-7.9297 0.76953-15.863 10.117-18.25 13.652l-13.09-8.75c1.2891-1.9297 13.059-18.91 29.754-20.562 5.793-0.57031 14.48 0.54688 23.109 9.1797 4.2148 4.2188 6.2422 9.7266 5.8555 15.922-1.3672 21.992-33.488 47.215-34.855 48.277-8.5781 6.6797-19.242 10.363-30.023 10.363z"/>
  <path d="m349.06 384.72c0 8.4375-6.8438 15.281-15.281 15.281-8.4414 0-15.281-6.8438-15.281-15.281 0-8.4414 6.8398-15.281 15.281-15.281 8.4375 0 15.281 6.8398 15.281 15.281"/>
  <path d="m481.5 384.72c0 8.4375-6.8398 15.281-15.281 15.281-8.4375 0-15.281-6.8438-15.281-15.281 0-8.4414 6.8438-15.281 15.281-15.281 8.4414 0 15.281 6.8398 15.281 15.281"/>
  <path d="m400 316.18c-21.68 0-35.605-19.246-38.207-52.801l15.699-1.2148c0.69531 8.9805 4.375 38.273 22.508 38.273 17.582 0 21.527-26.621 22.41-38.066l15.723 0.60156c-2.5977 34.035-16.488 53.207-38.133 53.207z"/>
 </g>
</svg>