<?xml version="1.0" encoding="UTF-8"?>
<!-- The Best Svg Icon site in the world: iconSvg.co, Visit us! https://iconsvg.co -->
<svg fill="#000000" width="800px" height="800px" version="1.1" viewBox="144 144 512 512" xmlns="http://www.w3.org/2000/svg">
 <g>
  <path d="m335.21 531.85c-34.254-25.34-54.703-68.273-54.703-114.85 0-64.168 39.758-120.39 94.535-133.69l3.7148 15.297c-47.805 11.609-82.504 61.395-82.504 118.39 0 41.609 18.066 79.812 48.324 102.19z"/>
  <path d="m464.78 531.85-9.3633-12.66c30.258-22.379 48.324-60.582 48.324-102.19 0-42.133-18.359-80.539-49.113-102.74l9.2188-12.762c34.84 25.152 55.637 68.336 55.637 115.5 0 46.578-20.449 89.512-54.703 114.85z"/>
  <path d="m400 527.9c-2.0156 0-4.0273-0.76953-5.5664-2.3047l-25.758-25.758c-3.0742-3.0742-3.0742-8.0547 0-11.133l25.758-25.758c3.0742-3.0742 8.0547-3.0742 11.133 0l25.758 25.758c3.0742 3.0742 3.0742 8.0547 0 11.133l-25.758 25.758c-1.5391 1.5391-3.5547 2.3047-5.5664 2.3047zm-14.629-33.629 14.629 14.625 14.625-14.625-14.625-14.625z"/>
  <path d="m366.79 592.7c-9.4023 0-20.598-3.7305-32.453-15.586-9.0586-9.0586-12.988-19.477-11.68-30.961 3.5039-30.777 45.629-57.43 47.422-58.551l8.3477 13.348c-10.422 6.5352-37.945 27.715-40.129 47-0.74219 6.5625 1.6016 12.461 7.1719 18.031 11.52 11.52 22.414 13.941 33.312 7.3984 8.2344-4.9375 13.348-14.758 13.348-25.617v-10.559h15.742v10.559c0 16.359-8.0469 31.352-20.992 39.117-4.7109 2.8281-11.68 5.8164-20.09 5.8203z"/>
  <path d="m433.21 592.7c-8.4102 0-15.379-2.9922-20.094-5.8203-12.945-7.7695-20.992-22.758-20.992-39.117v-10.559h15.742v10.559c0 10.863 5.1172 20.68 13.348 25.617 10.898 6.543 21.789 4.1211 33.312-7.3984 5.5703-5.5703 7.9141-11.469 7.1719-18.031-2.1836-19.289-29.707-40.469-40.129-47l8.3477-13.348c1.793 1.1211 43.914 27.773 47.422 58.551 1.3086 11.484-2.6211 21.902-11.68 30.961-11.848 11.852-23.047 15.582-32.449 15.586z"/>
  <path d="m374.24 417c0 9.4844-7.6875 17.172-17.172 17.172-9.4844 0-17.172-7.6875-17.172-17.172 0-9.4805 7.6875-17.168 17.172-17.168 9.4844 0 17.172 7.6875 17.172 17.168"/>
  <path d="m460.1 417c0 9.4844-7.6875 17.172-17.172 17.172-9.4805 0-17.172-7.6875-17.172-17.172 0-9.4805 7.6914-17.168 17.172-17.168 9.4844 0 17.172 7.6875 17.172 17.168"/>
  <path d="m431.82 321.8c-12.734 0-26.273-2.3008-36.914-6.2305-13.723-5.0586-22.434-12.473-25.293-21.492-4.6484-8.0859-21.004-39.117-9.2734-56.195 5.3477-7.7734 14.852-10.961 28.273-9.5156l6.2422-6.2383c7.9414-7.9453 18.902-11.918 30.102-10.902 11.184 1.0156 21.266 6.8945 27.648 16.137 3.2422 4.6914 5.4102 10.191 6.2734 15.895 1.3281 8.8203 3.043 12.535 3.7812 13.801 0.51562 0.55859 1.0391 1.1953 1.5664 1.9219 11.906 16.332 18.992 40.582-0.22656 55.164-0.078125 0.0625-0.15625 0.12109-0.23828 0.17578-7.4297 5.2109-19.285 7.4805-31.941 7.4805zm-49.316-78.039c-3.8438 0-7.5742 0.69141-9.1875 3.0352-4.668 6.793 3.0234 27.691 10.371 40.168 0.37109 0.63281 0.65234 1.3164 0.83984 2.0312 1.0664 4.1289 6.9805 8.543 15.828 11.809 18.188 6.707 44.973 7.0469 54.25 0.70703 3.3633-2.5938 5.1172-5.6172 5.5117-9.5 0.98828-9.6719-6.6094-21.227-9.0977-24.418-0.45703-0.41797-0.87109-0.89453-1.2305-1.4297-0.007812-0.007812-0.011718-0.015624-0.015625-0.027343-2.8906-4.3164-5.0664-11.223-6.4648-20.527-0.51563-3.3945-1.7461-6.5234-3.6602-9.293-3.7227-5.3867-9.5938-8.8125-16.117-9.4062-6.4922-0.61328-12.914 1.7188-17.547 6.3555l-9.0078 9.0039c-1.8008 1.7969-4.3359 2.6094-6.8594 2.1992-2.1055-0.35938-4.8906-0.70703-7.6133-0.70703z"/>
 </g>
</svg>