<?xml version="1.0" encoding="UTF-8"?>
<!-- The Best Svg Icon site in the world: iconSvg.co, Visit us! https://iconsvg.co -->
<svg fill="#000000" width="800px" height="800px" version="1.1" viewBox="144 144 512 512" xmlns="http://www.w3.org/2000/svg">
 <g>
  <path d="m500.76 451.04-40.305-15.113v5.6445l-127.06-0.003906-3.9297-5.6406h-30.23c3.375 5.0391 6.6992 10.078 10.078 15.113-3.3242 5.0391-6.6484 10.078-10.078 15.113h30.23l3.9297-5.6914h127.06v5.6914z"/>
  <path d="m400 400c-3.2734-0.35156-6.6484-0.80469-10.078-1.3594v152.5h20.152v-150.84c-3.3594 0.30078-6.7422 0.19922-10.074-0.30078z"/>
  <path d="m495.17 311.48c-4.8203-13.223-12.43-25.254-22.32-35.27l14.711-1.0078h0.003906c-11.125-8.543-25.438-11.766-39.148-8.8164-9.8594 3.0586-18.469 9.2148-24.551 17.559-6.082 8.3398-9.3086 18.422-9.2031 28.742-4.2812 2.0508-9.0273 2.918-13.754 2.5195-11.082-1.1094-14.812-10.078-27.809-20.859-18.441-15.918-34.363-18.184-33.555-25.895 0.50391-5.5938 8.8164-7.9102 7.8594-13.148-1.2148-3.8477-4.7852-6.4609-8.8164-6.4492-7.7578 0-12.543 13.148-15.871 11.84-1.7617-0.70703-0.70703-4.5859-2.8203-5.4922-2.1172-0.90625-7.8594 3.2227-9.7734 8.5156h-0.003906c-0.91406 2.3906-1.1914 4.9766-0.80469 7.5078-1.832 2.2812-3.8359 4.4219-5.9961 6.3984-1.3594 1.2109-2.7188 2.3164-3.9805 3.2734 3.4922 0.46484 6.8906 1.4688 10.078 2.9727 21.41 10.078 26.754 40.656 28.918 53 3.8789 22.32-1.2578 25.191 3.375 35.266 7.5586 16.375 28.312 23.426 48.062 26.652 3.375 0.55469 6.75 1.0078 10.078 1.3594 3.3359 0.50391 6.7188 0.60547 10.074 0.30469l2.4688-0.30078c21.109-3.4766 35.266-24.285 35.266-35.266l0.003906-0.003907c-0.003906-5.8789-1.4766-11.664-4.2852-16.828l13.754-4.2305c-1.832-4.168-2.6758-8.7031-2.4688-13.25 0.35156-6.1406 2.5664-12.027 6.3516-16.879 17.234 9.2656 31.133 23.695 39.75 41.262 1.3906-14.727-0.51953-29.582-5.5938-43.477z"/>
 </g>
</svg>