<?xml version="1.0" encoding="UTF-8"?>
<!-- The Best Svg Icon site in the world: iconSvg.co, Visit us! https://iconsvg.co -->
<svg fill="#000000" width="800px" height="800px" version="1.1" viewBox="144 144 512 512" xmlns="http://www.w3.org/2000/svg">
 <g>
  <path d="m400 558.41c-60.77 0-110.21-67.098-110.21-149.57 0-78.793 45.316-133.82 110.21-133.82s110.21 55.031 110.21 133.82c0 82.477-49.438 149.57-110.21 149.57zm0-267.65c-55.621 0-94.465 48.559-94.465 118.08 0 73.793 42.379 133.82 94.465 133.82s94.465-60.031 94.465-133.82c-0.003906-69.523-38.848-118.08-94.465-118.08z"/>
  <path d="m400 479.7c-2.4805 0-4.8125-1.1641-6.2969-3.1484l-23.617-31.488c-1.793-2.3867-2.0781-5.5781-0.74609-8.2461 1.3359-2.6641 4.0586-4.3477 7.043-4.3477h47.23c2.9844 0 5.707 1.6836 7.043 4.3516 1.332 2.668 1.0469 5.8594-0.74609 8.2461l-23.617 31.488c-1.4805 1.9805-3.8164 3.1445-6.293 3.1445zm-7.875-31.488 7.8711 10.496 7.8711-10.496z"/>
  <path d="m374.24 402.23c0 9.4844-7.6875 17.172-17.172 17.172-9.4844 0-17.172-7.6875-17.172-17.172 0-9.4805 7.6875-17.172 17.172-17.172 9.4844 0 17.172 7.6914 17.172 17.172"/>
  <path d="m460.1 402.23c0 9.4844-7.6875 17.172-17.172 17.172-9.4805 0-17.172-7.6875-17.172-17.172 0-9.4805 7.6914-17.172 17.172-17.172 9.4844 0 17.172 7.6914 17.172 17.172"/>
  <path d="m226.81 440.34c-0.83594 0-1.6758-0.12891-2.4922-0.40234-0.77344-0.25781-77.246-26.793-60.332-111.35 7.1641-35.754 32.469-64.258 69.418-78.199 48.887-18.449 106.23-7.9883 153.42 27.984l-9.5469 12.523c-42.84-32.656-94.555-42.305-138.3-25.777-31.766 11.984-53.465 36.246-59.543 66.559-10.031 50.16 17.625 75.566 35.691 86.48l-3.8164-15.266c-7.2148-40.766-0.66016-69.941 19.363-87.254 35.734-30.902 99.367-10.324 102.06-9.4297l-4.9492 14.945c-19.863-6.5781-63.574-13.703-86.812 6.3906-15.539 13.438-20.34 37.684-14.273 72.066l7.7578 30.945c0.69531 2.7852-0.17969 5.7344-2.2852 7.6875-1.4805 1.3711-3.3984 2.0977-5.3516 2.0977z"/>
  <path d="m573.18 440.34c-1.9531 0-3.8711-0.72656-5.3516-2.0938-2.1055-1.9531-2.9844-4.9023-2.2852-7.6875l7.8711-31.488c5.9531-33.84 1.1523-58.086-14.387-71.523-23.242-20.094-66.949-12.965-86.812-6.3906l-4.9492-14.945c2.6953-0.89453 66.328-21.473 102.06 9.4297 20.027 17.312 26.578 46.488 19.48 86.711l-3.9219 15.723c18.055-11.004 45.66-36.504 35.68-86.391-6.0781-30.312-27.777-54.574-59.543-66.559-43.773-16.516-95.473-6.8828-138.3 25.777l-9.5469-12.523c47.184-35.961 104.54-46.426 153.42-27.984 36.949 13.941 62.254 42.441 69.418 78.199 16.914 84.559-59.559 111.09-60.332 111.35-0.81641 0.26172-1.6602 0.39453-2.4922 0.39453z"/>
  <path d="m392.12 471.82h15.742v39.359h-15.742z"/>
  <path d="m297.82 424.59h-11.965c-19.535 0-35.426-15.891-35.426-35.426 0-9.5117 3.7148-18.41 10.453-25.051 6.5586-6.6602 15.457-10.375 24.969-10.375h17.637v15.742l-17.633 0.007812c-5.2617 0-10.18 2.043-13.836 5.7617-3.8008 3.7383-5.8438 8.6562-5.8438 13.918 0 10.852 8.8281 19.68 19.68 19.68h11.965z"/>
  <path d="m514.14 424.59h-11.965v-15.742h11.965c10.852 0 19.68-8.8281 19.68-19.68 0-5.2617-2.043-10.18-5.7578-13.832-3.7461-3.8047-8.6602-5.8477-13.922-5.8477h-17.637v-15.742l17.637-0.003906c9.5117 0 18.41 3.7148 25.055 10.457 6.6562 6.5547 10.367 15.453 10.367 24.969 0 19.531-15.891 35.422-35.422 35.422z"/>
  <path d="m400 521.08c-11.914 0-23.832-3.6992-35.664-11.094l8.3477-13.352c18.383 11.492 36.246 11.492 54.629 0l8.3477 13.352c-11.832 7.3945-23.746 11.094-35.66 11.094z"/>
  <path d="m389.87 620.41c-4.3477 0-7.8711-3.5234-7.8711-7.8711 0-0.10156-0.23047-13.754-9.0078-27.184-13.09-20.031 0.96875-40.027 1.5703-40.871l12.816 9.1445c-0.34375 0.49219-8.3398 12.199-1.207 23.117 6.6133 10.121 9.4492 20.258 10.664 27.148 6.7734-1.3359 16.027-4.9922 16.027-14.973 0-24.004 2.8672-41.18 2.9922-41.898l15.52 2.6328c-0.027344 0.16406-2.7656 16.676-2.7656 39.266 0 24.91-25.34 31.488-38.738 31.488z"/>
 </g>
</svg>