<?xml version="1.0" encoding="UTF-8"?>
<!-- The Best Svg Icon site in the world: iconSvg.co, Visit us! https://iconsvg.co -->
<svg fill="#000000" width="800px" height="800px" version="1.1" viewBox="144 144 512 512" xmlns="http://www.w3.org/2000/svg">
 <g>
  <path d="m201 397.64c2.4141 1.3867 5.4922 0.55469 6.8789-1.8555l15.23-26.445-0.003906 227.14c0 2.7812 2.2539 5.0391 5.0391 5.0391h347.18c2.7852 0 5.0391-2.2578 5.0391-5.0391v-222.09l11.707 21.301c0.91797 1.668 2.6367 2.6094 4.418 2.6094 0.82031 0 1.6523-0.20312 2.418-0.625 2.4375-1.3398 3.332-4.4023 1.9883-6.8398l-72.449-131.81c-0.50781-0.93359-1.3008-1.6719-2.2539-2.125l-122.3-57.953c-1.3672-0.64453-2.9531-0.64453-4.3164 0l-122.3 57.961c-0.93359 0.4375-1.6992 1.1523-2.207 2.0391l-75.922 131.81c-1.3945 2.4062-0.5625 5.4844 1.8516 6.875zm157.41 122.35-29.066 54.93v-110.32zm5.6719 10.816 31.816 60.637h-63.902zm43.348-63.395 26.148 53.629-26.148 51.039zm-10.078 105.11-27.555-52.516 27.555-52.074zm41.746-40.156 28.805 59.074h-59.07zm35.027 48.848-29.289-60.059 29.285-57.164zm-34.805-71.379-30.242-62.031h62.023zm-75.199-0.64453-32.207-61.387h64.688zm120.08 82.25v-148.67c0-2.7812-2.2539-5.0391-5.0391-5.0391h-154.86c-2.7852 0-5.0391 2.2578-5.0391 5.0391l0.003906 148.67h-86.082v-186.41h337.1v186.41zm-201.19-326.09 118.72-56.262 118.67 56.242 49.879 90.742v38.887h-337.09v-42.598c0-0.13672-0.066406-0.24609-0.074219-0.37891z"/>
  <path d="m324.3 364.96h154.86c2.7852 0 5.0391-2.2578 5.0391-5.0391v-61.52c0-2.7812-2.2539-5.0391-5.0391-5.0391h-154.86c-2.7852 0-5.0391 2.2578-5.0391 5.0391v61.52c0.003906 2.7852 2.2539 5.0391 5.0391 5.0391zm149.82-10.078h-67.352v-51.441h67.348zm-144.78-51.441h67.355v51.445l-67.355-0.003906z"/>
 </g>
</svg>