<?xml version="1.0" encoding="UTF-8"?>
<!-- The Best Svg Icon site in the world: iconSvg.co, Visit us! https://iconsvg.co -->
<svg fill="#000000" width="800px" height="800px" version="1.1" viewBox="144 144 512 512" xmlns="http://www.w3.org/2000/svg">
 <g>
  <path d="m203.51 601.52h392.97c2.7852 0 5.0391-2.2539 5.0391-5.0391v-53.809c0-2.7812-2.2539-5.0391-5.0391-5.0391h-13.211v-275.28h13.211c2.7852 0 5.0391-2.2539 5.0391-5.0391v-53.809c0-2.7812-2.2539-5.0391-5.0391-5.0391l-392.97 0.003906c-2.7852 0-5.0391 2.2539-5.0391 5.0391v53.809c0 2.7812 2.2539 5.0391 5.0391 5.0391h13.211v275.28l-13.211-0.007812c-2.7852 0-5.0391 2.2539-5.0391 5.0391l0.003906 53.809c0 2.7812 2.25 5.0391 5.0352 5.0391zm369.69-63.887h-48.934l-0.003906-275.28h48.934zm-59.012-275.28v85.043h-228.38v-85.043zm-228.38 95.117h228.38v85.043h-228.38zm0 95.121h228.38v85.043l-228.38-0.003906zm-77.258-244.05h382.89v43.73h-382.89zm18.25 53.809h48.934v275.28h-48.934zm-18.25 285.36h382.89v43.73h-382.89z"/>
  <path d="m559.82 564.54h-13.484c-2.7852 0-5.0391 2.2539-5.0391 5.0391 0 2.7812 2.2539 5.0391 5.0391 5.0391h13.484c2.7852 0 5.0391-2.2539 5.0391-5.0391 0-2.7852-2.2539-5.0391-5.0391-5.0391z"/>
  <path d="m253.66 564.54h-13.484c-2.7852 0-5.0391 2.2539-5.0391 5.0391 0 2.7812 2.2539 5.0391 5.0391 5.0391h13.484c2.7852 0 5.0391-2.2539 5.0391-5.0391-0.003906-2.7852-2.2578-5.0391-5.0391-5.0391z"/>
  <path d="m559.82 225.38h-13.484c-2.7852 0-5.0391 2.2539-5.0391 5.0391 0 2.7812 2.2539 5.0391 5.0391 5.0391h13.484c2.7852 0 5.0391-2.2539 5.0391-5.0391 0-2.7812-2.2539-5.0391-5.0391-5.0391z"/>
  <path d="m253.66 225.38h-13.484c-2.7852 0-5.0391 2.2539-5.0391 5.0391 0 2.7812 2.2539 5.0391 5.0391 5.0391h13.484c2.7852 0 5.0391-2.2539 5.0391-5.0391-0.003906-2.7812-2.2578-5.0391-5.0391-5.0391z"/>
  <path d="m421.07 490.08h-42.145c-2.7852 0-5.0391 2.2539-5.0391 5.0391 0 2.7812 2.2539 5.0391 5.0391 5.0391h42.145c2.7852 0 5.0391-2.2539 5.0391-5.0391 0-2.7812-2.2539-5.0391-5.0391-5.0391z"/>
  <path d="m421.07 394.64h-42.145c-2.7852 0-5.0391 2.2539-5.0391 5.0391 0 2.7812 2.2539 5.0391 5.0391 5.0391h42.145c2.7852 0 5.0391-2.2539 5.0391-5.0391s-2.2539-5.0391-5.0391-5.0391z"/>
  <path d="m378.93 309.29h42.145c2.7852 0 5.0391-2.2539 5.0391-5.0391 0-2.7812-2.2539-5.0391-5.0391-5.0391h-42.145c-2.7852 0-5.0391 2.2539-5.0391 5.0391s2.2539 5.0391 5.0391 5.0391z"/>
 </g>
</svg>