<?xml version="1.0" encoding="UTF-8"?>
<!-- The Best Svg Icon site in the world: iconSvg.co, Visit us! https://iconsvg.co -->
<svg fill="#000000" width="800px" height="800px" version="1.1" viewBox="144 144 512 512" xmlns="http://www.w3.org/2000/svg">
 <path d="m331.95 225.94c-3-6.5781-0.13672-14.41 6.3906-17.453 1.7188-0.78906 3.5469-1.1875 5.4375-1.1875 5.0273 0 9.7266 2.9062 12.051 7.5781l35.305 109.87c0.5 1.5703 1.9492 2.6211 3.5977 2.6211 1.6445 0.003906 3.0938-1.0508 3.5938-2.6211l35.379-110.05c2.2891-4.5742 6.8477-7.418 11.906-7.418 1.8789 0 3.7148 0.39453 5.4727 1.1797 6.543 3.0547 9.4336 10.891 6.4297 17.473l-48.633 105.02-0.87891-0.082031c-4.6797-0.42969-9.3047-0.46484-13.27-0.46484s-8.5859 0.035156-13.266 0.46484l-0.87891 0.082031zm-62.316 236.36c-0.007813-0.085938-0.019531-0.14453-0.03125-0.23047-0.003907-0.039062 0.011719-0.074219 0.007812-0.11328-0.1875-1.4102-0.1875-2.7344-0.1875-4.4219 0-65.672 58.617-119.1 130.67-119.1 70.84 0 128.99 52.051 130.61 116.4 0.03125 2.6797 0.019531 7.5039-0.34766 11.445-5.4414 2.0781-10.762 3.1406-16.055 3.1406-10.941 0-19.527-4.5508-25.797-7.875-2.3672-1.2578-4.4141-2.3438-6.3438-3.0977-0.91406-0.35938-1.832-0.75-3.0391-1.2656-4.5508-1.9375-10.211-4.3438-17.562-4.3438-0.72266 0-1.4609 0.023438-2.2148 0.070313-7.9023 0.51562-12.359 3.4375-16.289 6.0156-3.0508 2.0039-5.9375 3.8906-10.535 4.5859-1.0781 0.16406-2.0898 0.23438-3.0508 0.23438-5.2383 0-8.9336-2.2266-13.27-4.8398-4.7461-2.8633-10.137-6.1094-17.93-6.1094-0.83984 0-1.707 0.035157-2.6016 0.11328-9.3047 0.79297-14.52 5.5117-18.715 9.3047-3.9258 3.5469-7.0273 6.3477-13.328 6.543-6.6172 0-10.812-3.3711-15.836-7.4062-4.9844-4.0039-10.629-8.543-18.848-8.543-0.70312 0-1.4258 0.03125-2.1758 0.10156-7.3125 0.63281-11.34 4.1758-15.605 7.9297-3.2266 2.8477-6.5664 5.7891-12.098 8.2305-5.3477 2.3672-11.387 3.5664-17.93 3.5664-3.3086 0-6.7812-0.3125-10.387-0.92188-0.38281-2.957-0.85547-6.7773-1.1094-9.4141zm271.85 9.2852c-6.1484 63.398-73.539 121.14-141.39 121.14-73.734 0-138.64-52.43-141.73-114.49l-0.082032-1.75 1.6875 0.47656c7.5898 2.1523 14.715 3.2461 21.172 3.2461 7.5859 0 14.641-1.418 20.969-4.2109 6.5781-2.9062 10.711-6.5469 14.043-9.4805 3.8711-3.3984 6.4258-5.6445 11.258-6.0625 0.46875-0.039062 0.92188-0.058594 1.3672-0.058594 5.7383 0 9.6914 3.1836 14.445 7.0039 5.4648 4.3945 11.121 8.9336 20.23 8.9336l0.85156-0.015624c8.6211-0.27734 13.445-4.6328 17.723-8.4961 3.8633-3.4922 7.5117-6.793 14.277-7.3672 0.63281-0.054687 1.25-0.078125 1.8438-0.078125 5.8242 0 9.8906 2.4492 14.211 5.0547 4.8008 2.8945 9.7695 5.8906 17.039 5.8906 1.3398 0 2.7461-0.10156 4.2461-0.32812 6.2344-0.94531 10.121-3.4922 13.551-5.7383 3.6055-2.3672 6.7266-4.4102 12.625-4.793 0.62891-0.042969 1.2383-0.0625 1.8359-0.0625 5.7109 0 9.9414 1.8047 14.578 3.7812 1.0664 0.45312 2.1172 0.89844 3.168 1.3125 1.5312 0.60156 3.3984 1.5898 5.5664 2.7383 6.5352 3.457 16.41 8.6836 29.293 8.6836 8.2969 0 16.84-2.207 25.398-6.5625l2.0469-1.043z"/>
</svg>