<?xml version="1.0" encoding="UTF-8"?>
<!-- The Best Svg Icon site in the world: iconSvg.co, Visit us! https://iconsvg.co -->
<svg fill="#000000" width="800px" height="800px" version="1.1" viewBox="144 144 512 512" xmlns="http://www.w3.org/2000/svg">
 <path d="m620.67 249.86c-16.121-3.5273-27.207-10.078-38.289-23.68 0 0-2.0156-4.5352-4.5352-10.578-4.5352-10.578-12.09-19.648-21.664-25.695-9.5742-6.0469-20.656-9.5742-32.242-9.5742-12.594 0-24.184 4.0312-33.754 10.578-9.5742 7.0547-17.129 16.625-21.664 28.215-10.578 29.223-6.5508 61.465 10.578 87.16l20.152 30.23h-26.199c-37.281 0-74.059 5.543-109.33 16.121l-124.44 37.281c59.449 65.496 137.04 61.969 162.23 58.945 5.0391-0.50391 10.078-1.5117 15.113-2.5195l82.625-16.121v15.113l-79.602 15.117c-5.543 1.0078-11.082 2.0156-16.121 2.5195-5.543 0.50391-14.105 1.5117-24.184 1.5117-38.793 0-104.79-10.578-156.18-71.539l-49.879-0.003907 20.656 34.762c53.402 87.664 145.6 102.78 188.93 104.79l12.594 52.898 62.473 33.754 40.809-42.32-81.109 0.003907-10.578-44.84c6.0469-0.50391 11.586-1.5117 17.129-2.5195l132-25.191c20.656-4.0312 38.289-15.113 50.883-30.23 12.594-15.113 20.152-34.762 20.152-55.418 0-17.633-5.0391-34.258-15.113-48.871l-70.531-104.29h77.082c4.5352 0 8.0625-3.5273 8.0625-8.0625-0.003906-3.5234-2.5195-6.5469-6.0469-7.5547zm-68.52-23.68h-21.16c0-1.0078-0.50391-1.5117-0.50391-2.5195 0-6.0469 5.0391-11.082 11.082-11.082 6.0469 0 11.082 5.0391 11.082 11.082 0.003906 0.50391 0.003906 1.5117-0.5 2.5195z"/>
</svg>