<?xml version="1.0" encoding="UTF-8"?>
<!-- The Best Svg Icon site in the world: iconSvg.co, Visit us! https://iconsvg.co -->
<svg fill="#000000" width="800px" height="800px" version="1.1" viewBox="144 144 512 512" xmlns="http://www.w3.org/2000/svg">
 <g>
  <path d="m326.96 569.6c-0.9375 0-1.8633-0.074218-2.8086-0.20703-4.8789-0.74219-9.168-3.332-12.098-7.3047-1.8633-2.5195-3.043-5.4727-3.4414-8.5703l-28.062-140.9-17.363-2.7461c-4.6445-0.74219-7.8086-5.0938-7.0781-9.7383 0.74219-4.6445 5.0938-7.8047 9.7383-7.0742l23.215 3.6836c3.5117 0.55859 6.3203 3.2461 7.0117 6.7461l29.293 147.04c0.046874 0.25391 0.085937 0.52344 0.12109 0.77734 0.023438 0.25391 0.10938 0.48828 0.26953 0.69141 0.28906 0.40234 0.66797 0.53516 0.93359 0.57422 0.23047 0.035156 0.54688 0.023438 0.88672-0.14844 0.20703-0.15625 0.42578-0.31641 0.66016-0.46094l66.812-42.477c1.8203-1.168 4.0234-1.5781 6.1484-1.1797l59.203 11.234c4.6211 0.875 7.6484 5.3242 6.7734 9.9453-0.875 4.6172-5.3281 7.6562-9.9453 6.7695l-55.895-10.602-63.492 40.363c-3.1992 2.3438-6.9922 3.5859-10.898 3.5859zm214.89-17.457c-0.52344 0-1.0586-0.050781-1.5938-0.14844l-31.371-5.9414c-4.6211-0.87891-7.6484-5.3281-6.7734-9.9453 0.87891-4.6211 5.3281-7.6484 9.9492-6.7734l31.367 5.9453c4.6211 0.875 7.6484 5.3242 6.7734 9.9453-0.77734 4.0859-4.3398 6.9297-8.3516 6.9297zm-69.805-57.93c-0.41406 0-0.83984-0.035157-1.2539-0.097657l-129.32-19.109c-8.9102-1.3125-15.574-7.9492-16.973-16.91 0-0.046875-0.011718-0.085938-0.023437-0.12109l-19.113-136.63c-0.69531-4.6445 0.66797-9.2266 3.8398-12.945 3.5391-4.1328 8.9141-6.6016 14.383-6.6016h278.06c5.3594 0 9.9062 2.6719 12.184 7.1484 2.3438 4.6172 1.8594 10.344-1.2305 15.195l-12.109 30.039c-0.18359 0.5-0.41406 0.97266-0.69141 1.4102-0.64453 1.0586-1.4961 1.9453-2.4805 2.6133-1.0117 0.69531-2.1797 1.168-3.4414 1.375-0.51172 0.085937-1.0352 0.12109-1.5703 0.10938h-237.57c-4.707 0-8.5117-3.8047-8.5117-8.5117 0-4.7031 3.8047-8.5078 8.5117-8.5078h232.03l9.6172-23.84h-272.81c-0.50781 0-1.043 0.27734-1.3242 0.51172l19.055 136.2c0.26562 1.6172 1.0547 2.4102 2.625 2.6406l129.32 19.109c4.6445 0.69531 7.8672 5.0078 7.1758 9.6641-0.62109 4.2305-4.2578 7.2695-8.4141 7.2695zm73.051-30.852c-0.80469 0-1.6172-0.10938-2.4219-0.35547-4.5078-1.3359-7.0742-6.0664-5.7383-10.574l24.086-81.332c1.3398-4.5078 6.0703-7.0742 10.578-5.7383 4.5117 1.3398 7.0781 6.0664 5.7383 10.578l-24.086 81.328c-1.0938 3.6953-4.4844 6.0938-8.1562 6.0938zm-317.39-44.969c-0.875 0-1.7617-0.0625-2.6484-0.18359l-32.223-4.4141c-10.59-1.4453-18.02-11.242-16.574-21.832l1.6562-12.109c0.70312-5.1172 3.3555-9.6641 7.4883-12.801s9.2305-4.4727 14.336-3.7695l32.223 4.4141c5.1172 0.70313 9.6641 3.3555 12.801 7.4883 3.1367 4.1328 4.4727 9.2266 3.7695 14.332l-1.6523 12.109c-0.70703 5.1172-3.3555 9.6641-7.4922 12.801-3.4141 2.5898-7.4883 3.9492-11.684 3.9492zm-30.578-38.258c-0.66797 0-1.168 0.28906-1.4219 0.48438-0.29297 0.21875-0.80469 0.71875-0.92578 1.543l-1.6523 12.109c-0.17188 1.2656 0.75391 2.4805 2.0156 2.6641l32.223 4.4102c0.82422 0.125 1.4453-0.24219 1.7383-0.47266 0.29297-0.21875 0.80078-0.71875 0.92578-1.543l1.6523-12.109c0.10938-0.82812-0.24219-1.4453-0.47656-1.7383-0.21875-0.29297-0.71484-0.80078-1.543-0.91016l-32.219-4.4141c-0.10937-0.011719-0.21875-0.023438-0.31641-0.023438zm139.66-88.504c-2.1406 0-4.293-0.80078-5.9453-2.418-3.3711-3.2852-3.4297-8.668-0.14844-12.035l71.922-73.637c6.5156-9.8359 18.918-17.188 34.215-20.266 22.469-4.5195 46.992 0.71875 65.594 13.992 0.40234 0.29297 0.77734 0.60938 1.1328 0.96094l77.621 78.922c3.293 3.3555 3.2461 8.7422-0.097656 12.039-3.3438 3.293-8.7422 3.2422-12.035-0.097656l-77.09-78.391c-14.773-10.285-34.066-14.309-51.77-10.746-10.98 2.2148-19.82 7.2109-23.637 13.398-0.32812 0.53516-0.71875 1.0195-1.1445 1.4688l-72.516 74.258c-1.6641 1.6992-3.8789 2.5625-6.0898 2.5625z"/>
  <path d="m548.49 619.54c-41.582 0-75.422-33.832-75.422-75.41 0-41.574 33.84-75.41 75.422-75.41 41.582 0 75.422 33.836 75.422 75.41 0 41.578-33.84 75.41-75.422 75.41zm0-133.8c-32.195 0-58.398 26.199-58.398 58.391s26.203 58.391 58.398 58.391c32.195 0 58.398-26.188 58.398-58.391s-26.203-58.391-58.398-58.391zm0 75.41c-9.3867 0-17.023-7.6328-17.023-17.02 0-9.3867 7.6367-17.02 17.023-17.02 9.3867 0 17.023 7.6328 17.023 17.02 0 9.3867-7.6367 17.02-17.023 17.02z"/>
 </g>
</svg>