<?xml version="1.0" encoding="UTF-8"?>
<!-- The Best Svg Icon site in the world: iconSvg.co, Visit us! https://iconsvg.co -->
<svg fill="#000000" width="800px" height="800px" version="1.1" viewBox="144 144 512 512" xmlns="http://www.w3.org/2000/svg">
 <g>
  <path d="m400.92 431.74c49.188 0 89.203-40.02 89.203-89.211s-40.02-89.203-89.203-89.203c-49.188 0-89.203 40.02-89.203 89.203-0.003906 49.191 40.012 89.211 89.203 89.211zm0-168.34c43.629 0 79.129 35.5 79.129 79.129 0 43.637-35.5 79.133-79.129 79.133s-79.129-35.5-79.129-79.133c0-43.633 35.492-79.129 79.129-79.129z"/>
  <path d="m264.2 601.49h273.27c15.391 0 27.91-12.52 27.91-27.91v-11.734c0-2.7812-2.2578-5.0391-5.0391-5.0391h-19.594l-67.18-129.89c23.719-20.449 38.777-50.684 38.777-84.387 0-59.75-47.281-108.66-106.39-111.3v-26.875c0-2.7812-2.2578-5.0391-5.0391-5.0391s-5.0391 2.2578-5.0391 5.0391v26.875c-59.117 2.6445-106.4 51.551-106.4 111.3 0 33.613 14.984 63.777 38.598 84.227l-67.262 130.05h-19.48c-2.7812 0-5.0391 2.2578-5.0391 5.0391v11.734c-0.003907 15.391 12.516 27.91 27.91 27.91zm35.355-258.96c0-55.887 45.469-101.36 101.36-101.36s101.36 45.469 101.36 101.36c0 55.887-45.469 101.36-101.36 101.36-55.891-0.003907-101.36-45.473-101.36-101.36zm36.578 90.582c18.273 13.105 40.633 20.852 64.785 20.852 24.062 0 46.352-7.6914 64.59-20.711l63.91 123.55h-47.312c-1.4844-21.176-18.582-38.125-39.957-39.625-2.4102-21.332-20.723-37.98-42.898-37.98-22.312 0-40.734 16.844-42.961 38.363-19.766 2.9688-35.141 19.211-36.547 39.242h-47.578zm26.629 93.988c17.242 0 31.426 13.074 32.961 29.703h-65.918c1.5312-16.625 15.719-29.703 32.957-29.703zm3.7539-9.8867c2.3359-15.773 16.102-27.941 32.723-27.941 16.777 0 30.641 12.383 32.789 28.371-13.496 2.207-24.91 10.59-31.109 22.148-6.707-12.492-19.48-21.297-34.402-22.578zm72.551 9.8867c17.242 0 31.426 13.074 32.953 29.703h-65.914c1.5312-16.625 15.719-29.703 32.961-29.703zm-192.7 39.781h308.95v6.6953c0 9.8359-8 17.836-17.836 17.836l-273.27-0.003907c-9.8359 0-17.84-8-17.84-17.836v-6.6914z"/>
  <path d="m379.36 342.54c0 11.844 9.6367 21.477 21.477 21.477s21.477-9.6367 21.477-21.477c0-10.102-7.0273-18.535-16.438-20.816v-28.203l4.5547 4.5547c1.9688 1.9688 5.1523 1.9688 7.125 0 1.9688-1.9688 1.9688-5.1523 0-7.125l-13.059-13.059c-1.9688-1.9688-5.1523-1.9688-7.125 0l-13.098 13.098c-1.9688 1.9648-1.9688 5.1523 0 7.125 0.98438 0.98438 2.2734 1.4766 3.5625 1.4766 1.2891 0 2.5781-0.49219 3.5625-1.4766l4.4023-4.4023v28.012c-9.4102 2.2812-16.441 10.719-16.441 20.816zm32.879 0c0 6.2891-5.1133 11.402-11.402 11.402-6.2891 0-11.402-5.1133-11.402-11.402 0-6.2891 5.1133-11.402 11.402-11.402 6.2891 0.003907 11.402 5.1172 11.402 11.402z"/>
 </g>
</svg>