<?xml version="1.0" encoding="UTF-8"?>
<!-- The Best Svg Icon site in the world: iconSvg.co, Visit us! https://iconsvg.co -->
<svg fill="#000000" width="800px" height="800px" version="1.1" viewBox="144 144 512 512" xmlns="http://www.w3.org/2000/svg">
 <g>
  <path d="m218.54 322.21c0.47266 1.3242 1.4727 2.3867 2.7656 2.9414 0.62891 0.27344 1.3086 0.41016 1.9844 0.41016 0.69922 0 1.3984-0.14453 2.0508-0.43359 0.19922-0.089844 1.168-0.52734 2.6562-1.3164 4.4922 9.8867 10.66 18.941 18.578 26.852 15.777 15.781 39.223 28.176 62.707 33.156 7.4648 1.5859 14.574 2.3672 21.25 2.3672 16.941-0.003906 31.051-5.0391 40.828-14.82 28.828-28.828 12.246-91.836-20.703-124.79-7.8398-7.8398-16.797-13.965-26.57-18.453 0.77734-1.6289 1.1992-2.6992 1.2773-2.9102 0.48047-1.2656 0.43359-2.6758-0.13672-3.9102-0.57031-1.2344-1.6172-2.1797-2.8984-2.6328-21.977-7.7422-46.406-5.3398-68.121 6.2891-0.097657-0.16016-0.12891-0.33984-0.25-0.49219l-14.578-18.496c-0.12109-0.15625-0.25-0.30078-0.39453-0.44141-9.3125-9.3164-24.402-9.4023-33.633-0.18359-9.2266 9.2266-9.1445 24.316 0.17578 33.637 0.13281 0.13281 0.26953 0.25391 0.41406 0.37109l18.559 14.848c-11.73 20.43-14.043 45.285-5.9609 68.004zm124.99-68.508c14.461 14.461 25.836 36.02 30.426 57.676 4.7969 22.617 1.2539 41.887-9.7227 52.863-10.977 10.977-30.242 14.516-52.859 9.7227-21.652-4.5938-43.211-15.969-57.672-30.426-7.3711-7.3672-13.055-15.812-17.082-25.055 7.5664-5.3555 17.02-13.98 22.023-26.059 10.566 6.4141 24.816 12.344 40.148 10.895 2.4141-0.22266 4.3281-2.1367 4.5547-4.5547 1.3867-15.094-4.3281-29.141-10.555-39.562 12.699-5.3086 21.145-14.73 26.254-22.32 9.0195 4.0156 17.273 9.6094 24.484 16.82zm-131.06-22.023c-5.2109-5.4062-5.2305-13.965 0.003906-19.203 5.2344-5.2266 13.785-5.2148 19.188-0.011718l13.934 17.68c-7.75 5.5156-13.293 12.406-15.586 15.562zm24.664 21.438c0.0625-0.097656 6.4336-9.8555 16.004-15.977 18.867-12.066 40.59-15.824 60.434-10.617-4.0195 7.293-13.387 20.656-29.809 25.148-1.5742 0.42969-2.8438 1.5977-3.4062 3.1289-0.5625 1.5352-0.33984 3.2461 0.58594 4.5898 5.7695 8.375 12.305 20.746 12.527 34.059-13.57-0.22266-26.156-6.9805-34.66-12.945-1.3633-0.95312-3.0938-1.1719-4.6641-0.59375-1.5547 0.58594-2.7227 1.8984-3.1211 3.5117-3.75 15.211-17.27 25.242-24.742 29.758-5.5-20.613-1.6367-42.617 10.852-60.062z"/>
  <path d="m273.18 318.42-8.8359-2.7773c-2.6797-0.83984-5.4805 0.64453-6.3164 3.2969-0.83203 2.6562 0.64062 5.4844 3.2969 6.3164l8.8359 2.7773c0.5 0.15625 1.0117 0.23438 1.5117 0.23438 2.1445 0 4.1289-1.3789 4.8086-3.5312 0.82813-2.6523-0.64453-5.4805-3.3008-6.3164z"/>
  <path d="m346.65 350.99-8.8359-2.7773c-2.6758-0.84375-5.4844 0.64062-6.3164 3.2969s0.64062 5.4844 3.2969 6.3164l8.8359 2.7773c0.5 0.15625 1.0117 0.23438 1.5117 0.23438 2.1445 0 4.1289-1.3789 4.8086-3.5312 0.82422-2.6562-0.64453-5.4844-3.3008-6.3164z"/>
  <path d="m333.66 283.37 8.8359 2.7773c0.5 0.15625 1.0117 0.23437 1.5117 0.23437 2.1445 0 4.1289-1.3789 4.8086-3.5312 0.83203-2.6562-0.64062-5.4844-3.2969-6.3164l-8.8359-2.7773c-2.6758-0.84766-5.4844 0.64453-6.3164 3.2969-0.83594 2.6562 0.63672 5.4844 3.293 6.3164z"/>
  <path d="m336.39 313.36c-0.83203 2.6562 0.64453 5.4844 3.2969 6.3164l8.8398 2.7773c0.5 0.15625 1.0117 0.23438 1.5117 0.23438 2.1445 0 4.1328-1.3789 4.8086-3.5312 0.83203-2.6562-0.64453-5.4844-3.2969-6.3164l-8.8398-2.7773c-2.6797-0.83984-5.4922 0.64453-6.3203 3.2969z"/>
  <path d="m316.61 336.68c-0.88672-2.6328-3.7383-4.0547-6.3828-3.168-2.6367 0.88672-4.0547 3.7461-3.1641 6.3828l2.957 8.7773c0.70703 2.1016 2.668 3.4336 4.7734 3.4336 0.53125 0 1.0781-0.085937 1.6094-0.26562 2.6367-0.88672 4.0547-3.7461 3.1641-6.3828z"/>
  <path d="m289.09 332.3c-2.7695-0.54688-5.3867 1.2266-5.9297 3.9531l-1.8164 9.082c-0.54688 2.7266 1.2266 5.3828 3.9492 5.9258 0.33594 0.066406 0.66797 0.097656 0.99219 0.097656 2.3516 0 4.457-1.6562 4.9336-4.0508l1.8164-9.082c0.55469-2.7266-1.2188-5.3828-3.9453-5.9258z"/>
  <path d="m309.8 260.28-1.8164 9.082c-0.54688 2.7266 1.2266 5.3828 3.9492 5.9258 0.33594 0.066407 0.66797 0.097657 0.99219 0.097657 2.3516 0 4.457-1.6562 4.9336-4.0508l1.8164-9.082c0.54687-2.7266-1.2266-5.3828-3.9492-5.9258-2.7656-0.54688-5.3828 1.2266-5.9258 3.9531z"/>
  <path d="m316.56 301.19-1.8164 9.082c-0.54688 2.7266 1.2266 5.3828 3.9492 5.9258 0.33594 0.066407 0.66797 0.097657 0.99219 0.097657 2.3516 0 4.457-1.6562 4.9336-4.0508l1.8164-9.082c0.54688-2.7266-1.2266-5.3828-3.9492-5.9258-2.75-0.55469-5.3828 1.2266-5.9258 3.9531z"/>
  <path d="m238.98 594.46c0.13281-0.12891 0.25391-0.26953 0.375-0.41406l14.852-18.57c12.316 7.0742 26.234 10.754 40.336 10.754 9.2852 0 18.637-1.5742 27.656-4.7812 1.3242-0.47266 2.3906-1.4727 2.9414-2.7617 0.55469-1.2891 0.54688-2.7539-0.03125-4.0352-0.089843-0.19922-0.52734-1.168-1.3164-2.6562 9.8867-4.4961 18.938-10.664 26.855-18.578 32.949-32.949 49.531-95.961 20.703-124.79-13.629-13.633-35.695-18.055-62.074-12.453-23.484 4.9805-46.926 17.375-62.707 33.156-7.8398 7.8359-13.965 16.793-18.453 26.574-1.6328-0.77734-2.7031-1.1992-2.9102-1.2812-1.2773-0.48047-2.6797-0.42969-3.9102 0.14063-1.2305 0.57422-2.1797 1.6172-2.6328 2.8984-7.7383 21.973-5.3398 46.402 6.293 68.117-0.16016 0.097657-0.33984 0.12891-0.49219 0.24609l-18.5 14.574c-0.15234 0.12109-0.30469 0.25391-0.44141 0.39453-9.3242 9.3203-9.4023 24.41-0.17578 33.637 4.582 4.5781 10.602 6.8633 16.648 6.8633 6.1367 0.007813 12.293-2.3438 16.984-7.0391zm14.719-138c14.461-14.457 36.02-25.832 57.672-30.426 22.629-4.8008 41.883-1.25 52.859 9.7227 10.977 10.977 14.52 30.246 9.7227 52.863-4.5898 21.656-15.965 43.215-30.426 57.676-7.3672 7.3672-15.812 13.055-25.059 17.078-5.3516-7.5664-13.977-17.016-26.051-22.02 6.4102-10.562 12.305-24.805 10.898-40.148-0.22266-2.418-2.1406-4.3359-4.5547-4.5547-15.094-1.3906-29.141 4.3281-39.57 10.551-5.3047-12.703-14.727-21.145-22.312-26.254 4.0117-9.0234 9.6094-17.277 16.82-24.488zm-27.184 29.957c7.2969 4.0195 20.66 13.387 25.145 29.809 0.43359 1.5742 1.5977 2.8438 3.1328 3.4062 1.5352 0.55469 3.2422 0.33984 4.5859-0.58594 8.3672-5.7695 20.742-12.305 34.062-12.527-0.22266 13.57-6.9805 26.156-12.945 34.66-0.95312 1.3594-1.1758 3.1055-0.59375 4.6602 0.58594 1.5586 1.8984 2.7266 3.5117 3.125 15.211 3.7422 25.238 17.27 29.758 24.742-20.609 5.4961-42.617 1.6328-60.059-10.855-0.097657-0.0625-9.8594-6.4336-15.977-16.004v0.003907c-12.066-18.871-15.824-40.594-10.621-60.434zm-14.059 81.91 17.684-13.93c5.5156 7.7461 12.402 13.285 15.562 15.574l-14.035 17.543c-5.3984 5.2109-13.957 5.2344-19.199 0.003907-5.2266-5.2344-5.2109-13.785-0.011718-19.191z"/>
  <path d="m318.42 526.82-2.7734 8.8398c-0.83203 2.6562 0.64453 5.4805 3.2969 6.3164 0.5 0.15625 1.0117 0.23438 1.5117 0.23438 2.1445 0 4.1328-1.3789 4.8086-3.5312l2.7734-8.8398c0.83203-2.6562-0.64453-5.4805-3.2969-6.3164-2.6758-0.84766-5.4922 0.64453-6.3203 3.2969z"/>
  <path d="m351.51 468.5c0.5 0.15625 1.0117 0.23438 1.5117 0.23438 2.1445 0 4.1328-1.3789 4.8086-3.5312l2.7734-8.8359c0.83203-2.6562-0.64453-5.4844-3.2969-6.3164-2.6797-0.84375-5.4922 0.64453-6.3164 3.2969l-2.7734 8.8359c-0.83594 2.6562 0.64062 5.4805 3.293 6.3164z"/>
  <path d="m277.06 469.64c0.5 0.15625 1.0117 0.23438 1.5117 0.23438 2.1445 0 4.1328-1.3789 4.8086-3.5312l2.7734-8.8359c0.83203-2.6562-0.64453-5.4844-3.2969-6.3164-2.6719-0.83984-5.4922 0.64844-6.3164 3.2969l-2.7734 8.8359c-0.83594 2.6562 0.64062 5.4805 3.293 6.3164z"/>
  <path d="m313.36 463.61c0.5 0.15625 1.0117 0.23438 1.5117 0.23438 2.1445 0 4.1328-1.3789 4.8086-3.5312l2.7734-8.8359c0.83203-2.6562-0.64453-5.4844-3.2969-6.3164-2.6758-0.83984-5.4922 0.64844-6.3164 3.2969l-2.7734 8.8359c-0.83203 2.6562 0.64453 5.4844 3.293 6.3164z"/>
  <path d="m338.29 493.2c0.53125 0 1.0781-0.085937 1.6094-0.26562l8.7773-2.9609c2.6367-0.89062 4.0547-3.75 3.1641-6.3828-0.88672-2.6328-3.7422-4.0508-6.3828-3.168l-8.7773 2.9609c-2.6367 0.89062-4.0547 3.75-3.1641 6.3828 0.70703 2.1055 2.668 3.4336 4.7734 3.4336z"/>
  <path d="m336.25 516.84 9.082 1.8164c0.33594 0.066406 0.66797 0.097656 0.99219 0.097656 2.3516 0 4.457-1.6562 4.9336-4.0508 0.54688-2.7266-1.2266-5.3828-3.9492-5.9258l-9.082-1.8164c-2.7617-0.55859-5.3867 1.2266-5.9297 3.9531-0.54297 2.7266 1.2266 5.3789 3.9531 5.9258z"/>
  <path d="m260.28 490.19 9.082 1.8164c0.33594 0.066407 0.66406 0.097657 0.99219 0.097657 2.3516 0 4.457-1.6562 4.9336-4.0508 0.54688-2.7266-1.2188-5.3828-3.9492-5.9297l-9.082-1.8164c-2.7305-0.54688-5.3828 1.2188-5.9297 3.9492-0.54688 2.7344 1.2227 5.3867 3.9531 5.9336z"/>
  <path d="m301.18 483.43 9.082 1.8164c0.33594 0.066406 0.66406 0.097656 0.99219 0.097656 2.3516 0 4.457-1.6562 4.9336-4.0508 0.54688-2.7266-1.2188-5.3828-3.9492-5.9297l-9.082-1.8164c-2.7344-0.55469-5.3867 1.2188-5.9297 3.9492-0.54297 2.7344 1.2227 5.3867 3.9531 5.9336z"/>
  <path d="m594.05 560.64-18.559-14.848c11.73-20.43 14.043-45.285 5.9609-68-0.47266-1.3242-1.4727-2.3867-2.7656-2.9414-1.2773-0.55469-2.7461-0.54297-4.0352 0.027344-0.19922 0.089844-1.168 0.52734-2.6562 1.3164-4.4922-9.8867-10.66-18.941-18.578-26.852-15.777-15.781-39.223-28.176-62.707-33.156-26.391-5.5977-48.441-1.1758-62.074 12.453-28.828 28.828-12.246 91.836 20.703 124.79 7.8398 7.8398 16.797 13.965 26.57 18.453-0.77734 1.6289-1.1992 2.6992-1.2773 2.9102-0.48047 1.2656-0.43359 2.6758 0.13672 3.9102 0.57031 1.2344 1.6172 2.1797 2.8984 2.6328 8.5898 3.0273 17.562 4.5195 26.602 4.5195 14.086 0 28.324-3.6484 41.555-10.734 0.085937 0.13281 0.10938 0.28906 0.21094 0.41797l14.578 18.496c0.12109 0.15625 0.25 0.30078 0.39453 0.44141 4.6953 4.6953 10.848 7.0469 16.984 7.0469 6.0469 0 12.07-2.2852 16.648-6.8633 9.2266-9.2266 9.1445-24.316-0.17578-33.637-0.13281-0.14062-0.27344-0.26562-0.41406-0.37891zm-137.59-14.344c-14.461-14.461-25.836-36.02-30.426-57.676-4.7969-22.617-1.2539-41.887 9.7227-52.863 10.977-10.973 30.258-14.508 52.859-9.7227 21.652 4.5938 43.211 15.969 57.672 30.426 7.3711 7.3672 13.055 15.812 17.082 25.055-7.5664 5.3555-17.02 13.98-22.023 26.059-10.566-6.4102-24.812-12.32-40.148-10.895-2.4141 0.22266-4.3281 2.1367-4.5547 4.5547-1.3867 15.094 4.3281 29.141 10.555 39.562-12.699 5.3086-21.145 14.73-26.254 22.32-9.0156-4.0117-17.27-9.6094-24.484-16.82zm29.957 27.18c4.0195-7.293 13.387-20.656 29.809-25.148 1.5742-0.42969 2.8438-1.5977 3.4062-3.1289 0.5625-1.5352 0.33984-3.2461-0.58594-4.5898-5.7695-8.375-12.305-20.746-12.527-34.059 13.57 0.22266 26.156 6.9805 34.66 12.945 1.3633 0.95312 3.1016 1.1719 4.6641 0.59375 1.5547-0.58594 2.7227-1.8984 3.1211-3.5117 3.75-15.211 17.27-25.242 24.742-29.758 5.4961 20.613 1.6328 42.617-10.855 60.062-0.0625 0.097657-6.4336 9.8555-16.004 15.977-18.859 12.07-40.574 15.836-60.43 10.617zm101.1 14.047c-5.2344 5.2266-13.785 5.2148-19.188 0.011718l-13.934-17.68c7.75-5.5156 13.293-12.406 15.586-15.562l17.543 14.031c5.207 5.4023 5.2266 13.961-0.007813 19.199z"/>
  <path d="m526.82 481.58 8.8359 2.7773c0.5 0.15625 1.0117 0.23438 1.5117 0.23438 2.1445 0 4.1289-1.3789 4.8086-3.5312 0.83203-2.6562-0.64062-5.4844-3.2969-6.3164l-8.8359-2.7773c-2.6719-0.84766-5.4805 0.64453-6.3164 3.2969-0.83203 2.6523 0.63672 5.4805 3.293 6.3164z"/>
  <path d="m453.35 449.01 8.8359 2.7773c0.5 0.15625 1.0117 0.23438 1.5117 0.23438 2.1445 0 4.1289-1.3789 4.8086-3.5312 0.83203-2.6562-0.64062-5.4844-3.2969-6.3164l-8.8359-2.7773c-2.6758-0.84766-5.4844 0.64062-6.3164 3.2969-0.83594 2.6523 0.63281 5.4805 3.293 6.3164z"/>
  <path d="m466.34 516.62-8.8359-2.7773c-2.6758-0.83984-5.4805 0.64453-6.3164 3.2969-0.83203 2.6562 0.64062 5.4844 3.2969 6.3164l8.8359 2.7773c0.5 0.15625 1.0117 0.23438 1.5117 0.23438 2.1445 0 4.1289-1.3789 4.8086-3.5312 0.82812-2.6523-0.64453-5.4844-3.3008-6.3164z"/>
  <path d="m458.8 490.17c2.1445 0 4.1328-1.3789 4.8086-3.5312 0.83203-2.6562-0.64453-5.4844-3.2969-6.3164l-8.8398-2.7773c-2.6719-0.84766-5.4844 0.64453-6.3164 3.2969-0.83203 2.6562 0.64453 5.4844 3.2969 6.3164l8.8398 2.7773c0.5 0.16016 1.0117 0.23438 1.5078 0.23438z"/>
  <path d="m483.38 463.31c0.70703 2.1016 2.668 3.4336 4.7734 3.4336 0.53125 0 1.0781-0.085938 1.6094-0.26562 2.6367-0.88672 4.0547-3.7461 3.1641-6.3828l-2.957-8.7773c-0.88672-2.6328-3.7383-4.0508-6.3828-3.168-2.6367 0.88672-4.0547 3.7461-3.1641 6.3828z"/>
  <path d="m510.91 467.69c0.33594 0.066406 0.66797 0.097656 0.99219 0.097656 2.3516 0 4.457-1.6562 4.9336-4.0508l1.8164-9.082c0.54687-2.7266-1.2266-5.3828-3.9492-5.9258-2.7656-0.54688-5.3867 1.2266-5.9297 3.9531l-1.8164 9.082c-0.54297 2.7305 1.2266 5.3828 3.9531 5.9258z"/>
  <path d="m490.19 539.71 1.8164-9.082c0.54688-2.7266-1.2266-5.3828-3.9492-5.9258-2.7656-0.54688-5.3867 1.2266-5.9297 3.9531l-1.8164 9.082c-0.54688 2.7266 1.2266 5.3828 3.9492 5.9258 0.33594 0.066406 0.66797 0.097656 0.99219 0.097656 2.3555 0 4.4609-1.6562 4.9375-4.0508z"/>
  <path d="m483.44 498.81 1.8164-9.082c0.54688-2.7266-1.2266-5.3828-3.9492-5.9258-2.7617-0.5625-5.3867 1.2266-5.9297 3.9531l-1.8164 9.082c-0.54688 2.7266 1.2266 5.3828 3.9492 5.9258 0.33594 0.066406 0.66797 0.097656 0.99219 0.097656 2.3555 0 4.4609-1.6523 4.9375-4.0508z"/>
  <path d="m561.01 205.53c-0.13281 0.12891-0.25391 0.26953-0.375 0.41406l-14.844 18.559c-20.43-11.73-45.281-14.035-68-5.9648-1.3242 0.47266-2.3906 1.4727-2.9414 2.7617-0.55469 1.2891-0.54687 2.7539 0.03125 4.0352 0.089844 0.19922 0.52734 1.168 1.3164 2.6562-9.8867 4.4961-18.938 10.664-26.855 18.578-32.949 32.949-49.531 95.961-20.703 124.79 9.7773 9.7773 23.887 14.82 40.828 14.82 6.6758 0 13.789-0.78125 21.25-2.3672 23.484-4.9805 46.926-17.375 62.707-33.156 7.8398-7.8359 13.965-16.793 18.453-26.574 1.6328 0.77734 2.7031 1.1992 2.9102 1.2812 0.58203 0.21875 1.1875 0.32812 1.7891 0.32812 0.72266 0 1.4531-0.15625 2.1211-0.46875 1.2305-0.57422 2.1797-1.6172 2.6328-2.8984 7.7383-21.969 5.3398-46.391-6.2812-68.105 0.15625-0.097656 0.33203-0.14453 0.48047-0.26172l18.5-14.574c0.15234-0.12109 0.30469-0.25391 0.44141-0.39453 9.3242-9.3203 9.4023-24.41 0.17578-33.637-9.2305-9.2188-24.312-9.1328-33.637 0.18359zm-14.715 138c-14.461 14.457-36.02 25.832-57.672 30.426-22.621 4.793-41.883 1.2539-52.859-9.7227-10.977-10.977-14.52-30.246-9.7227-52.863 4.5898-21.656 15.965-43.215 30.426-57.676 7.3672-7.3672 15.812-13.055 25.059-17.078 5.3516 7.5664 13.977 17.016 26.051 22.02-6.4102 10.562-12.305 24.805-10.898 40.148 0.22266 2.418 2.1406 4.3359 4.5547 4.5547 15.113 1.3945 29.145-4.3281 39.57-10.551 5.3047 12.703 14.723 21.145 22.312 26.254-4.0156 9.0195-9.6133 17.277-16.82 24.488zm27.18-29.961c-7.2969-4.0195-20.66-13.387-25.145-29.809-0.43359-1.5742-1.5977-2.8438-3.1328-3.4062-0.5625-0.20312-1.1445-0.30469-1.7266-0.30469-1.0078 0-2.0078 0.30078-2.8594 0.89062-8.3672 5.7695-20.742 12.305-34.062 12.527 0.22266-13.57 6.9805-26.156 12.945-34.66 0.95312-1.3594 1.1758-3.1055 0.59375-4.6602-0.58594-1.5586-1.8984-2.7266-3.5117-3.125-15.211-3.7422-25.238-17.27-29.758-24.742 20.625-5.4844 42.617-1.6328 60.059 10.855 0.097656 0.0625 9.8594 6.4336 15.977 16.004v-0.003906c12.07 18.875 15.824 40.594 10.621 60.434zm14.059-81.91-17.684 13.93c-5.5156-7.7461-12.406-13.285-15.562-15.574l14.035-17.543c5.3906-5.2109 13.953-5.2383 19.199-0.003906 5.2266 5.2344 5.2109 13.785 0.011718 19.191z"/>
  <path d="m481.58 273.18 2.7734-8.8398c0.83203-2.6562-0.64453-5.4805-3.2969-6.3164-2.6719-0.84766-5.4844 0.64844-6.3164 3.3008l-2.7734 8.8398c-0.83203 2.6562 0.64453 5.4805 3.2969 6.3164 0.5 0.15625 1.0117 0.23438 1.5117 0.23438 2.1406-0.003907 4.1289-1.3828 4.8047-3.5352z"/>
  <path d="m448.48 331.5c-2.6797-0.84375-5.4922 0.64453-6.3164 3.2969l-2.7734 8.8359c-0.83203 2.6562 0.64453 5.4844 3.2969 6.3164 0.5 0.15625 1.0117 0.23438 1.5117 0.23438 2.1445 0 4.1328-1.3789 4.8086-3.5312l2.7734-8.8359c0.82812-2.6562-0.64844-5.4805-3.3008-6.3164z"/>
  <path d="m522.94 330.36c-2.6758-0.84375-5.4922 0.64844-6.3164 3.2969l-2.7734 8.8359c-0.83203 2.6562 0.64453 5.4844 3.2969 6.3164 0.5 0.15625 1.0117 0.23438 1.5117 0.23438 2.1445 0 4.1328-1.3789 4.8086-3.5312l2.7734-8.8359c0.82422-2.6562-0.65234-5.4805-3.3008-6.3164z"/>
  <path d="m486.64 336.39c-2.6719-0.84375-5.4922 0.64844-6.3164 3.2969l-2.7734 8.8359c-0.83203 2.6562 0.64453 5.4844 3.2969 6.3164 0.5 0.15625 1.0117 0.23438 1.5117 0.23438 2.1445 0 4.1328-1.3789 4.8086-3.5312l2.7734-8.8359c0.82812-2.6562-0.64844-5.4844-3.3008-6.3164z"/>
  <path d="m460.1 307.07-8.7773 2.9609c-2.6367 0.89062-4.0547 3.75-3.1641 6.3828 0.70703 2.1016 2.668 3.4336 4.7734 3.4336 0.53125 0 1.0781-0.085938 1.6094-0.26562l8.7773-2.9609c2.6367-0.89063 4.0547-3.75 3.1641-6.3828-0.88672-2.6328-3.7383-4.0508-6.3828-3.168z"/>
  <path d="m463.74 283.16-9.082-1.8164c-2.7617-0.54688-5.3867 1.2266-5.9297 3.9531-0.54688 2.7266 1.2266 5.3828 3.9492 5.9258l9.082 1.8164c0.33594 0.066406 0.66797 0.097656 0.99219 0.097656 2.3516 0 4.457-1.6562 4.9336-4.0508 0.55078-2.7305-1.2188-5.3828-3.9453-5.9258z"/>
  <path d="m539.72 309.8-9.082-1.8164c-2.7266-0.55078-5.3867 1.2188-5.9297 3.9492-0.54688 2.7266 1.2188 5.3828 3.9492 5.9297l9.082 1.8164c0.33594 0.066406 0.66406 0.097656 0.99219 0.097656 2.3516 0 4.457-1.6562 4.9336-4.0508 0.55078-2.7266-1.2148-5.3789-3.9453-5.9258z"/>
  <path d="m498.81 316.56-9.082-1.8164c-2.7266-0.54688-5.3867 1.2188-5.9297 3.9492-0.54688 2.7266 1.2188 5.3828 3.9492 5.9297l9.082 1.8164c0.33594 0.066406 0.66406 0.097656 0.99219 0.097656 2.3516 0 4.457-1.6562 4.9336-4.0508 0.55078-2.7266-1.2148-5.3789-3.9453-5.9258z"/>
 </g>
</svg>