<?xml version="1.0" encoding="UTF-8"?>
<!-- The Best Svg Icon site in the world: iconSvg.co, Visit us! https://iconsvg.co -->
<svg fill="#000000" width="800px" height="800px" version="1.1" viewBox="144 144 512 512" xmlns="http://www.w3.org/2000/svg">
 <g>
  <path d="m476.58 408.37c-0.85156-0.85156-1.9766-1.3711-3.1797-1.4609l-10.762-0.82422c-8.3633-14.77-21.77-25.535-39.266-31.203-10.469-3.4531-17.426-13.344-17.305-24.617 0.078125-7.5195 1.2734-13.652 3.4492-17.738 0.83203-1.5625 0.78125-3.4453-0.12891-4.9609-0.91016-1.5195-2.5508-2.4453-4.3203-2.4453h-32.957c-1.7695 0-3.4102 0.92578-4.3203 2.4453-0.91016 1.5156-0.96094 3.3984-0.12891 4.9609 2.1758 4.0859 3.3711 10.219 3.4492 17.734 0.11719 11.273-6.8359 21.168-17.594 24.715-30.246 9.793-48.305 35.145-48.305 67.809 0 41.539 35.059 71.691 83.367 71.695h0.003906 0.003907 0.003906c8.6914 0 17.109-1.0195 25.059-2.9727 6.0586 1.9336 12.434 2.9727 18.973 2.9727 16.602 0 32.215-6.4688 43.953-18.207 24.242-24.23 24.242-63.664 0.003906-87.902zm-26.074-2.5586c-0.45703 0.20312-0.91406 0.41016-1.2969 0.74219-1.0117 0.87891-1.6367 2.1211-1.7305 3.4609-1.0586 15.125-8.1055 29.039-16.941 40.816 4.4336-26.098-2.707-50.309-9.5508-66.105 12.422 4.1094 22.461 11.344 29.52 21.086zm-52.715-70.613c-1.1367 4.3086-1.7422 9.3125-1.8008 14.961-0.082031 7.9219 2.375 15.348 6.75 21.406 0.050781 0.082032 0.054688 0.17969 0.10547 0.26172 0.32812 0.49219 32.516 49.398 12.062 96.461-13.035 12.473-25.055 19.98-25.312 20.141-1.3125 0.80859-2.1836 2.1758-2.3672 3.7031-0.17969 1.5312 0.35156 3.0586 1.4414 4.1484 1.1172 1.1172 2.3008 2.1406 3.4844 3.1602-1.1562 1.0625-2.3555 2.1016-3.5742 3.1406-26.52-22.535-37.262-50.852-31.852-84.266 4.2773-26.395 17.473-46.293 17.602-46.488 0.039063-0.058594 0.039063-0.125 0.074219-0.18359 4.3711-6.0586 6.8633-13.52 6.7812-21.484-0.058594-5.6445-0.66406-10.648-1.8008-14.961zm-82.5 107.59c0-27.887 15.254-49.531 41.148-58.145-11.309 26.523-23.688 76.844 18.188 118.75-35.09-5.0352-59.336-28.949-59.336-60.602zm154.16 46.367c-9.8359 9.8359-22.918 15.258-36.828 15.258-11.816 0-23.035-3.9102-32.176-11.117 14.277-10.012 50.992-39.16 56.535-77.535l13.738 1.0547c19.027 20.391 18.605 52.465-1.2695 72.34z"/>
  <path d="m318.64 250.13h13.414c2.7812 0 5.0391-2.2539 5.0391-5.0391 0-2.7812-2.2539-5.0391-5.0391-5.0391h-13.414c-2.7812 0-5.0391 2.2539-5.0391 5.0391s2.2578 5.0391 5.0391 5.0391z"/>
  <path d="m355.97 250.13h13.414c2.7812 0 5.0391-2.2539 5.0391-5.0391 0-2.7812-2.2539-5.0391-5.0391-5.0391h-13.414c-2.7812 0-5.0391 2.2539-5.0391 5.0391s2.2539 5.0391 5.0391 5.0391z"/>
  <path d="m393.29 250.13h13.41c2.7812 0 5.0391-2.2539 5.0391-5.0391 0-2.7812-2.2539-5.0391-5.0391-5.0391h-13.41c-2.7812 0-5.0391 2.2539-5.0391 5.0391s2.2578 5.0391 5.0391 5.0391z"/>
  <path d="m430.62 250.13h13.414c2.7812 0 5.0391-2.2539 5.0391-5.0391 0-2.7812-2.2539-5.0391-5.0391-5.0391h-13.414c-2.7812 0-5.0391 2.2539-5.0391 5.0391s2.2539 5.0391 5.0391 5.0391z"/>
  <path d="m467.94 250.13h13.414c2.7812 0 5.0391-2.2539 5.0391-5.0391 0-2.7812-2.2539-5.0391-5.0391-5.0391h-13.414c-2.7812 0-5.0391 2.2539-5.0391 5.0391s2.2578 5.0391 5.0391 5.0391z"/>
  <path d="m520.98 198.48h-241.96c-2.7812 0-5.0391 2.2539-5.0391 5.0391v41.02l-7.5 37.797c-1.8164 9.168-2.7422 18.559-2.7422 27.91l0.003907 286.24c0 2.7812 2.2539 5.0391 5.0391 5.0391h262.44c2.7812 0 5.0391-2.2539 5.0391-5.0391v-286.25c0-9.3516-0.92187-18.742-2.7422-27.914l-7.5-37.793v-41.02c0-2.7812-2.2578-5.0352-5.0391-5.0352zm-244.61 85.812 6.7773-34.16h11.586c2.7812 0 5.0391-2.2539 5.0391-5.0391 0-2.7812-2.2539-5.0391-5.0391-5.0391h-10.672v-31.5h231.88v31.504h-10.672c-2.7812 0-5.0391 2.2539-5.0391 5.0391 0 2.7812 2.2539 5.0391 5.0391 5.0391h11.586l6.7773 34.156c0.92188 4.6523 1.5742 9.3672 1.9961 14.102h-251.25c0.42188-4.7344 1.0742-9.4492 1.9961-14.102zm-2.5508 25.949c0-0.58984 0.035156-1.1836 0.042969-1.7734h252.27c0.007813 0.58984 0.042969 1.1836 0.042969 1.7734v224l-252.36 0.003907zm0 281.21v-47.129h252.36v47.129z"/>
 </g>
</svg>