<?xml version="1.0" encoding="UTF-8"?>
<!-- The Best Svg Icon site in the world: iconSvg.co, Visit us! https://iconsvg.co -->
<svg fill="#000000" width="800px" height="800px" version="1.1" viewBox="144 144 512 512" xmlns="http://www.w3.org/2000/svg">
 <path d="m456.52 462.49-8.7656-19.488c-0.86719-1.9219-2.1211-3.5273-3.5898-4.8281 0.13281-0.96484 0.082031-1.9453-0.34375-2.8398l-35.684-74.918c-5.4062-11.352-13.305-20.875-22.785-27.789-0.14062-5.4336-4.582-9.8164-10.051-9.8164h-13.273c-1.5039 0-2.9141 0.35156-4.1953 0.94531v-7.8086c1.6094-1.0195 3.1758-2.1211 4.6914-3.3203h23.191c8.1875 0 15.016-6.2109 15.543-14.145l1.6719-25.262c0.21875-0.48828 0.46875-0.94531 0.65625-1.4531h0.003906c1.832-4.9531 1.8984-10.207 0.41797-14.832l1.9023-28.781c0-33.031-29.219-59.902-65.137-59.902h-13.352c-35.918 0-65.137 26.871-65.125 60.234l1.8867 28.465c-1.4766 4.6211-1.4062 9.8672 0.42578 14.816 0.1875 0.50391 0.4375 0.96094 0.65234 1.4453l1.6758 25.266c0.52734 7.9336 7.3516 14.145 15.543 14.145h23.188c1.5156 1.1992 3.0859 2.3008 4.6953 3.3203v7.8086c-1.2812-0.59375-2.6953-0.94531-4.1992-0.94531h-13.277c-5.4688 0-9.9102 4.3828-10.051 9.8164-9.4844 6.9102-17.379 16.438-22.785 27.789l-35.684 74.918c-0.42578 0.89453-0.47656 1.8789-0.34375 2.8438-1.4688 1.3008-2.7266 2.9062-3.5938 4.8281l-8.7656 19.484c-1.4844 3.2969-1.6914 6.957-0.57422 10.309 1.1602 3.5 3.6055 6.2383 6.8789 7.7109l18.555 8.3477c1.6484 0.74219 3.3984 1.1133 5.1641 1.1133 1.7383 0 3.4844-0.35938 5.1641-1.0781 2.7617-1.1797 5.0586-3.2344 6.5977-5.8516 0.90625 0.62109 1.9141 1.1016 3 1.4258 2.9492 0.87891 6.2109 0.47266 8.9375-1.1406 1.1406-0.67187 2.0977-1.5352 2.9297-2.4883l-0.16016 2.2422v76.117c-1.793 1.8203-2.9062 4.3125-2.9062 7.0625v24.59c-10.668 3.7305-18.352 13.867-18.352 25.793 0 8.3359 6.7812 15.113 15.113 15.113h63.551c2.7812 0 5.0391-2.2539 5.0391-5.0391v-60.457c0-1.8359-0.53125-3.5391-1.3945-5.0234l2.6406-65.023c0.054688-1.3086 1.0391-2.332 2.2461-2.332 1.207 0 2.1914 1.0273 2.2461 2.3359l2.6406 65.012c-0.86719 1.4883-1.3984 3.1914-1.3984 5.0312v60.457c0 2.7852 2.2539 5.0391 5.0391 5.0391h63.551c8.3359 0 15.113-6.7812 15.113-15.113 0-11.922-7.6836-22.062-18.352-25.793v-24.59c0-2.7539-1.1172-5.25-2.9141-7.0703l-0.007813-76.461-0.13281-1.8711c0.83203 0.94531 1.7812 1.8008 2.9141 2.4688 2.7344 1.6172 5.9922 2.0312 8.9375 1.1445 1.0859-0.32422 2.0938-0.80859 3.0039-1.4258 2.5625 4.3477 7.1211 6.918 11.785 6.918 1.7305 0 3.4805-0.35547 5.1406-1.1016l18.555-8.3477c3.2734-1.4766 5.7188-4.2109 6.8789-7.7109 1.1133-3.3516 0.91016-7.0117-0.57422-10.309zm-71.148-116.72c5.5 5.2617 10.176 11.66 13.664 18.977l33.477 70.293-22.617 10.301-14.844-32.586-2.6172-36.895c-0.28516-4.0781-3.2031-7.4102-7.0664-8.5742zm7.4883 220.49v23.039h-27.938c-6.543 0-12.551 2.3164-17.262 6.1641v-29.203zm-30.836-233.38h13.273v33.93h-13.273zm29.176-35.066c-0.17578 2.6562-2.5859 4.7344-5.4844 4.7344h-13.109c4.0117-4.9609 7.4414-10.547 10.199-16.52 0.67188 0.085937 1.3438 0.17188 2.0195 0.17188 2.4727 0 4.9297-0.62891 7.2578-1.6953zm2.9375-29.547c-1.4375 3.8789-4.375 6.6914-7.3906 7.5547 2.1016-6.7109 3.332-13.637 3.6016-20.465 0.0625 0.019531 0.13281 0.011719 0.19531 0.035156 1.9219 0.69922 2.9883 2.2812 3.543 3.4844 1.2266 2.6484 1.2422 6.1562 0.050781 9.3906zm-66.723-89.945h13.352c30.359 0 55.059 22.352 55.07 49.492l-1.2188 18.414c-0.21484-0.089843-0.40234-0.22266-0.62109-0.30078-1.3125-0.48047-2.6602-0.72266-4.0117-0.83594-0.14844-1.3203-0.28516-2.6445-0.51172-3.9727-0.77344-4.5-4.5-7.8438-9.0625-8.125h-0.003906c-18.895-1.1602-46.137-9.0625-57.199-19.805-1.8633-1.8047-4.4219-2.7656-7.0586-2.6406-2.6797 0.13281-5.2109 1.3828-6.9414 3.4258-7.2227 8.543-13.504 14.32-24.242 18.602-3.1445 1.2539-5.3906 3.9219-6.0039 7.1328-0.34375 1.8008-0.57422 3.5938-0.77734 5.3789-1.3477 0.11328-2.6914 0.35937-4 0.83594-0.22266 0.082031-0.41406 0.21484-0.62891 0.30859l-1.2031-18.082c0.003906-27.473 24.703-49.828 55.062-49.828zm-53.32 80.559c0.55859-1.207 1.625-2.7891 3.5469-3.4883 0.0625-0.023437 0.13281-0.011719 0.19531-0.035156 0.26953 6.8281 1.5039 13.754 3.6016 20.465-3.0117-0.86328-5.9531-3.6758-7.3867-7.5547-1.1953-3.2344-1.1797-6.7422 0.042968-9.3867zm8.3789 43.668c-2.8984 0-5.3125-2.0781-5.4844-4.7344l-0.88281-13.305c2.3242 1.0664 4.7812 1.6953 7.2539 1.6953 0.67578 0 1.3477-0.085937 2.0234-0.17188 2.7578 5.9727 6.1875 11.559 10.199 16.52zm5.3164-49.961c0-3.5586 0.36328-7.2578 0.91406-10.652 12.48-4.9727 19.977-11.777 27.914-21.113 13.059 12.254 42.066 20.883 62.965 22.215 0.54297 3.2305 0.8125 6.4414 0.8125 9.5508 0 27.977-20.227 60.5-46.301 60.5-26.078 0-46.305-32.52-46.305-60.5zm64.16 84.898v29.324h-35.715v-29.336c11.82 1.7812 23.832 1.7852 35.715 0.011719zm-31.516-9.6172v-7.0859c4.3516 1.4883 8.9023 2.3789 13.656 2.3789 4.7578 0 9.3086-0.89453 13.66-2.3828v7.0859c-9.0742 1.1445-18.242 1.1445-27.316 0.003907zm-27.547 5.0117h13.27v33.93h-13.27zm-23.738 31.863c3.4883-7.3164 8.1641-13.719 13.664-18.977v21.52c-3.8594 1.1641-6.7773 4.4922-7.0664 8.5742l-2.6094 36.883-14.852 32.598-22.617-10.301zm-8.8906 109.91c-0.32031 0.1875-0.64062 0.24609-0.90625 0.16797-0.22266-0.070312-0.39453-0.22656-0.52344-0.49219l-1.7422-3.5781c-0.85547-1.7617-2.7031-2.832-4.6055-2.832-1.957 0.03125-3.7148 1.1875-4.5195 2.9727l-2.9688 6.5977c-0.44531 0.98828-1.1914 1.75-2.1055 2.1406-0.53906 0.23438-1.3672 0.43359-2.2305 0.039062l-0.48828-0.21875 3.3672-7.4844c0.85547-1.9023 0.007813-4.1367-1.8984-4.9922-1.8945-0.85547-4.1406-0.015625-4.9961 1.8945l-3.3672 7.4844-3.793-1.707 3.3672-7.4844c0.85547-1.9023 0.007813-4.1367-1.8984-4.9922-1.8945-0.85156-4.1406-0.015624-4.9961 1.8945l-3.3672 7.4805-0.48828-0.21875c-0.85937-0.39062-1.2656-1.1367-1.4492-1.6992-0.31641-0.94531-0.24219-2.0078 0.20312-2.9961l8.7656-19.484c0.625-1.3906 1.8945-2.2773 3.1289-2.3594l20.797 9.4727c0.41016 0.625 0.59375 1.3828 0.57812 2.0547-0.015625 0.80078 0.15625 1.5938 0.50781 2.3125l6.5156 13.391c0.42969 0.85156 0.003906 2.1133-0.88672 2.6367zm4.0781-19.129c0.40625-0.41016 0.77734-0.86719 1.0312-1.4258l5.7305-12.578-1.7227 24.355zm56.188 166.16h-58.512c-2.7773 0-5.0391-2.2578-5.0391-5.0391 0-9.5195 7.7422-17.266 17.262-17.266h29.023c9.5195 0 17.266 7.7422 17.266 17.266zm0-26.215c-4.7109-3.8477-10.723-6.1641-17.266-6.1641h-27.934v-23.039h45.199zm13.57-111.66c-6.6328 0-12.039 5.2734-12.312 12l-2.4492 60.379h-41.105l-0.007813-72.746 7.543-106.55 96.648 0.019531 7.5391 106.18v73.102h-41.094l-2.4531-60.379c-0.27344-6.7344-5.6836-12.004-12.309-12.004zm77.117 132.84c0 2.7812-2.2617 5.0391-5.0391 5.0391h-58.512v-5.0391c0-9.5195 7.7422-17.266 17.262-17.266h29.027c9.5156 0 17.262 7.7461 17.262 17.266zm-12.391-150.78-1.7227-24.316 5.7188 12.555c0.25391 0.55859 0.61719 1.0234 1.0273 1.4336zm48.715 3.7617c-0.18359 0.5625-0.58984 1.3086-1.4492 1.6992l-0.48828 0.21875-3.3672-7.4805c-0.85547-1.9102-3.0977-2.7461-4.9961-1.8945-1.9023 0.85547-2.7539 3.0898-1.8984 4.9922l3.3672 7.4844-3.793 1.707-3.3672-7.4844c-0.85547-1.9102-3.1016-2.75-4.9961-1.8945-1.9023 0.85547-2.7539 3.0898-1.8984 4.9922l3.3672 7.4844-0.48828 0.21875c-1.5117 0.6875-3.5-0.30859-4.3398-2.1797l-2.9688-6.5977c-0.80469-1.7852-2.5664-2.9414-4.5234-2.9727h-0.074219c-1.9258 0-3.6875 1.0977-4.5312 2.832l-1.7383 3.5781c-0.12891 0.26563-0.29688 0.42188-0.52344 0.49219-0.27344 0.082031-0.58984 0.019531-0.91406-0.17188-0.88672-0.52344-1.3086-1.7773-0.89062-2.6367l6.5156-13.391c0.34766-0.71875 0.52344-1.5156 0.50781-2.3125-0.015625-0.67188 0.16797-1.4297 0.57812-2.0547l20.836-9.4883c1.2266 0.097657 2.4766 1 3.0938 2.3789l8.7656 19.488c0.45312 0.98828 0.52734 2.0508 0.21484 2.9922zm-76.082-34.953v-34.82c0-5.5547-4.5195-10.078-10.078-10.078h-54.57c-5.5586 0-10.078 4.5234-10.078 10.078v34.82c0 5.5547 4.5195 10.078 10.078 10.078h54.57c5.5586 0 10.078-4.5234 10.078-10.078zm-64.645-34.816h54.57l0.007813 34.82-54.578-0.003907zm215.45 167.47c-0.95703-1.1016-2.3477-1.7383-3.8047-1.7383h-0.011719c-1.4648 0.003907-2.8555 0.64062-3.8086 1.75-0.25 0.28516-0.50781 0.57031-0.78125 0.85938l-7.7344 8.1445c-7.8438 8.2617-13.195 18.355-15.473 29.184-0.3125 1.4844 0.0625 3.0352 1.0195 4.2109 0.95703 1.1797 2.3945 1.8633 3.9102 1.8633h45.758c1.5195 0 2.9531-0.68359 3.9102-1.8633 0.95703-1.1758 1.332-2.7266 1.0195-4.2109-2.2812-10.832-7.6328-20.926-15.477-29.184l-7.7188-8.1211zm12.449 34.203h-32.504c2.3477-6.6992 6.1641-12.922 11.223-18.25l5.0273-5.293 5.0273 5.293c5.0586 5.3281 8.875 11.547 11.227 18.25zm44.824-428.68h-10.098c-5.5547 0-10.078 4.5195-10.078 10.078v79.797h-7.1055l0.003907-79.801c0-5.5586-4.5234-10.078-10.074-10.078h-10.098c-5.5586 0-10.078 4.5195-10.078 10.078v79.797h-7.1016v-79.797c0-5.5586-4.5195-10.078-10.078-10.078h-10.098c-5.5586 0-10.078 4.5195-10.078 10.078v79.797h-7.0977v-79.797c0-5.5586-4.5195-10.078-10.078-10.078h-10.102c-5.5586 0-10.078 4.5195-10.078 10.078v97.73c0 11.113 9.0391 20.152 20.152 20.152h30.402v52.711c0 1.957 1.1484 3.6016 2.7734 4.4375v192.9c0 1.3008-0.49219 2.5273-1.3867 3.4688l-7.7344 8.1445c-11.191 11.785-18.516 26.297-21.164 41.984l-2.6289 15.559c-0.49609 2.9258 0.32031 5.9141 2.2422 8.1836 1.918 2.2695 4.7227 3.5703 7.6914 3.5703h81.613c2.9727 0 5.7773-1.3008 7.6914-3.5664 1.9219-2.2695 2.7422-5.2539 2.25-8.1914l-2.6328-15.551c-2.6562-15.68-9.9727-30.199-21.164-41.984l-7.7383-8.1484c-0.89062-0.93359-1.3828-2.1641-1.3828-3.4648l0.003906-192.91c1.6289-0.83594 2.7734-2.4844 2.7734-4.4375v-52.711h30.398c11.113 0 20.152-9.0391 20.152-20.152v-97.73c0-5.5547-4.5195-10.074-10.074-10.074zm-41.438 396.55c9.8086 10.328 16.215 23.027 18.535 36.727l2.6328 15.551-81.617 0.003906 2.6289-15.551c2.3203-13.703 8.7266-26.402 18.539-36.727l7.7305-8.1367c2.6797-2.8203 4.1562-6.5156 4.1562-10.41l0.003907-192.3h15.5v192.3c0 3.8984 1.4766 7.5898 4.1562 10.406zm-9.1133-220.93h-21.051v-47.672h21.051zm50.551-67.824c0 5.5586-4.5234 10.078-10.078 10.078l-102-0.003906c-5.5586 0-10.078-4.5195-10.078-10.078v-97.727h10.102v79.797c0 5.5586 4.5195 10.078 10.078 10.078h7.0977c5.5586 0 10.078-4.5195 10.078-10.078l-0.003906-79.797h10.098v79.797c0 5.5586 4.5195 10.078 10.078 10.078h7.1016c5.5586 0 10.078-4.5195 10.078-10.078v-79.797h10.098v79.797c0 5.5586 4.5234 10.078 10.078 10.078h7.1055c5.5547 0 10.078-4.5195 10.078-10.078l-0.007813-79.797h10.098zm-245.45 14.992c-8.1406 0-14.281-4.1836-14.281-9.7227 0-2.3633 1.918-4.2812 4.2812-4.2812 2.2305 0 4.0625 1.7031 4.2617 3.8828 0.11328 0.10938 0.32812 0.25391 0.57812 0.40234 0.89453 0.52344 2.6133 1.1602 5.1562 1.1602 2.5469 0 4.2656-0.63672 5.1602-1.1602 0.25-0.14453 0.46094-0.28906 0.57422-0.39844 0.20312-2.1797 2.0312-3.8828 4.2617-3.8828 2.3633 0 4.2812 1.918 4.2812 4.2812 0.007812 5.5352-6.1328 9.7188-14.273 9.7188zm-16.723-36.09c0 4.6055-2.9648 8.082-6.9023 8.082-3.9336 0-6.9023-3.4766-6.9023-8.082s2.9688-8.0781 6.9023-8.0781c3.9375-0.003906 6.9023 3.4688 6.9023 8.0781zm33.449 0c0-4.6055 2.9648-8.0781 6.9023-8.0781 3.9336 0 6.9023 3.4727 6.9023 8.0781s-2.9688 8.082-6.9023 8.082c-3.9375 0-6.9023-3.4766-6.9023-8.082z"/>
</svg>