<?xml version="1.0" encoding="UTF-8"?>
<!-- The Best Svg Icon site in the world: iconSvg.co, Visit us! https://iconsvg.co -->
<svg fill="#000000" width="800px" height="800px" version="1.1" viewBox="144 144 512 512" xmlns="http://www.w3.org/2000/svg">
 <g>
  <path d="m363.72 280.09c0 20.152 16.121 36.273 36.273 36.273s36.273-16.121 36.273-36.273c0.003907-20.152-16.117-36.277-36.27-36.277-19.648 0-36.277 16.125-36.277 36.277zm62.977 0c0 14.609-11.586 26.199-26.199 26.199-14.609 0-26.199-11.586-26.199-26.199 0.003907-14.613 11.59-26.199 25.699-26.199 14.105 0 26.699 11.586 26.699 26.199z"/>
  <path d="m400 229.21c3.0234 0 5.0391-2.0156 5.0391-5.0391v-19.145c0-3.0234-2.0156-5.0391-5.0391-5.0391s-5.0391 2.0156-5.0391 5.0391v19.145c0 3.0234 2.5195 5.0391 5.0391 5.0391z"/>
  <path d="m368.26 234.25c1.0078 1.5117 2.5195 2.5195 4.5352 2.5195 1.0078 0 1.5117 0 2.5195-0.50391 2.5195-1.5117 3.0234-4.5352 2.0156-7.0547l-9.5742-16.625c-1.5117-2.5195-4.5352-3.0234-7.0547-2.0156-2.5195 1.5117-3.0234 4.5352-2.0156 7.0547z"/>
  <path d="m332.99 246.34 16.625 10.078c1.0078 0.50391 1.5117 0.50391 2.5195 0.50391 1.5117 0 3.5273-1.0078 4.5352-2.5195 1.5117-2.5195 0.50391-5.543-2.0156-7.0547l-16.625-10.078c-2.5195-1.5117-5.543-0.50391-7.0547 2.0156-1.0078 2.5195-0.50391 5.543 2.0156 7.0547z"/>
  <path d="m324.93 283.62 19.648 0.50391c2.5195 0 5.0391-2.0156 5.0391-5.0391 0-3.0234-2.0156-5.0391-5.0391-5.0391l-19.145-0.50391c-2.5195 0-5.0391 2.0156-5.0391 5.0391-0.5 3.0234 2.0156 5.0391 4.5352 5.0391z"/>
  <path d="m349.11 302.26-17.129 9.0703c-2.5195 1.5117-3.5273 4.5352-2.0156 7.0547 1.0078 1.5117 2.5195 2.5195 4.5352 2.5195 1.0078 0 1.5117 0 2.5195-0.50391l17.129-9.0703c2.5195-1.5117 3.5273-4.5352 2.0156-7.0547-1.5117-2.5195-4.5352-3.0234-7.0547-2.0156z"/>
  <path d="m358.18 348.11c1.0078 0.50391 1.5117 0.50391 2.5195 0.50391 1.5117 0 3.5273-1.0078 4.5352-2.5195l10.078-16.625c1.5117-2.5195 0.50391-5.543-1.5117-7.0547-2.5195-1.5117-5.543-0.50391-7.0547 1.5117l-10.078 16.625c-1.5117 3.0234-1.0078 6.0469 1.5117 7.5586z"/>
  <path d="m393.45 335.51-0.50391 19.145c0 3.0234 2.0156 5.0391 5.0391 5.0391 2.5195 0 5.0391-2.0156 5.0391-5.0391l0.50391-19.145c0-3.0234-2.0156-5.0391-5.0391-5.0391-2.5195 0-5.0391 2.5195-5.0391 5.0391z"/>
  <path d="m423.68 324.93c-2.5195 1.5117-3.5273 4.5352-2.0156 7.0547l9.0703 17.129c1.0078 1.5117 2.5195 2.5195 4.5352 2.5195 1.0078 0 1.5117 0 2.5195-0.50391 2.5195-1.5117 3.5273-4.5352 2.0156-7.0547l-9.0703-17.129c-1.5117-2.5195-4.5352-3.5273-7.0547-2.0156z"/>
  <path d="m449.88 305.79c-2.5195-1.5117-5.543-1.0078-7.0547 1.5117-1.5117 2.5195-1.0078 5.543 1.5117 7.0547l16.121 10.578c1.0078 0.50391 2.0156 1.0078 2.5195 1.0078 1.5117 0 3.5273-1.0078 4.0312-2.5195 1.5117-2.5195 1.0078-5.543-1.5117-7.0547z"/>
  <path d="m450.88 282.61c0 3.0234 2.0156 5.0391 4.5352 5.0391l19.145 1.0078h0.50391c2.5195 0 5.0391-2.0156 5.0391-5.0391 0-3.0234-2.0156-5.0391-4.5352-5.0391l-19.145-1.0078c-3.0234 0.003907-5.543 2.0195-5.543 5.0391z"/>
  <path d="m445.34 257.42c1.0078 1.5117 2.5195 2.5195 4.5352 2.5195 1.0078 0 1.5117 0 2.5195-0.50391l17.129-8.5664c2.5195-1.0078 3.5273-4.5352 2.0156-6.5508-1.0078-2.5195-4.5352-3.5273-6.5508-2.0156l-17.129 8.5664c-2.5195 1.0078-3.5273 4.0312-2.5195 6.5508z"/>
  <path d="m428.21 237.77c1.0078 0.50391 2.0156 1.0078 3.0234 1.0078 1.5117 0 3.0234-1.0078 4.0312-2.0156l10.578-16.121c1.5117-2.5195 1.0078-5.543-1.5117-7.0547-2.5195-1.5117-5.543-1.0078-7.0547 1.5117l-10.578 16.121c-1.5117 2.0156-1.0078 5.0391 1.5117 6.5508z"/>
  <path d="m532.5 535.52c21.664-7.5586 43.832-14.105 66-19.648 2.5195-0.50391 4.5352-3.5273 3.5273-6.0469-0.50391-2.5195-3.5273-4.5352-6.0469-3.5273-25.191 6.0469-49.879 13.602-73.555 22.672-12.594-8.5664-25.695-16.625-38.289-23.68 36.777-13.602 75.066-24.688 114.36-32.242 2.5195-0.50391 4.5352-3.0234 4.0312-6.0469-0.50391-2.5195-3.0234-4.5352-6.0469-4.0312-42.32 8.0625-84.137 20.152-123.94 35.77-14.609-8.0625-29.223-15.113-43.832-21.664 67.512-27.711 128.98-40.305 169.28-45.848 2.5195-0.50391 4.5352-3.0234 4.5352-5.543-0.50391-2.5195-3.0234-4.5352-5.543-4.5352-42.824 6.0469-108.82 19.648-180.87 50.383-16.625-7.0547-33.25-13.098-48.871-18.641 119.4-55.918 229.23-61.461 230.24-61.461 3.0234 0 5.0391-2.5195 5.0391-5.0391 0-3.0234-2.5195-5.0391-5.0391-5.0391-0.50391 0-19.648 1.0078-49.879 6.0469v-11.586h3.5273c7.5586 0 18.137-1.5117 25.695-8.5664 11.586-11.586 8.0625-32.746 8.0625-33.25-0.50391-2.0156-2.0156-4.0312-4.0312-4.0312-0.50391 0-11.082-1.5117-21.664 1.5117 2.5195-4.5352 4.5352-9.0703 4.5352-14.609 0-16.121-17.129-28.719-18.137-29.223-1.5117-1.0078-4.0312-1.0078-6.0469 0-0.50391 0.50391-18.137 13.098-18.137 29.223 0 5.543 2.0156 10.578 4.5352 14.609-10.078-3.0234-20.656-1.5117-21.16-1.0078-2.0156 0.50391-4.0312 2.0156-4.0312 4.0312 0 1.0078-3.5273 21.664 8.0625 33.25 7.0547 7.0547 18.137 8.5664 25.695 8.5664h3.0234v13.602c-46.352 8.0625-113.86 25.191-184.39 58.945-29.223-9.0703-55.922-15.113-78.09-19.648v-14.105h3.5273c7.5586 0 18.137-1.5117 25.695-8.5664 11.586-11.586 8.0625-32.746 8.0625-33.25-0.50391-2.0156-2.0156-4.0312-4.0312-4.0312-0.50391 0-11.082-2.0156-21.664 1.5117 2.5195-4.5352 4.5352-9.0703 4.5352-14.609 0-16.121-17.129-28.719-18.137-29.223-1.5117-1.0078-4.0312-1.0078-6.0469 0-1.0156-1.0078-18.145 11.086-18.145 27.711 0 5.543 2.0156 10.578 4.5352 14.609-10.078-3.0234-20.656-1.5117-21.16-1.0078-2.0156 0.50391-4.0312 2.0156-4.0312 4.0312 0 1.0078-3.5273 21.664 8.0625 33.25 7.0547 7.0547 18.137 8.5664 25.695 8.5664h3.0234v12.594c-36.273-6.5508-59.449-7.5586-59.953-7.5586-2.5195 0-5.0391 2.0156-5.0391 5.0391 0 3.0234 2.0156 5.0391 5.0391 5.0391 2.5195 0 230.24 11.586 389.45 170.79 1.0078 1.0078 2.5195 1.5117 3.5273 1.5117s2.5195-0.50391 3.5273-1.5117c2.0156-2.0156 2.0156-5.0391 0-7.0547-22.172-22.168-45.348-40.809-69.027-57.434zm41.816-196.48c0.50391 6.0469-0.50391 15.617-5.543 20.656-5.0391 5.0391-14.609 6.0469-20.656 5.543-0.50391-5.543 0-15.617 5.543-20.656 5.0391-5.0391 14.609-6.0469 20.656-5.543zm-32.242-41.816c4.5352 4.0312 10.578 11.586 10.578 18.641 0 7.5586-6.5508 14.609-10.578 18.641-4.5352-4.0312-10.578-11.586-10.578-18.641-0.003906-7.0547 6.043-14.613 10.578-18.641zm-5.543 68.516c-6.0469 0.50391-15.617-0.50391-20.656-5.543-5.0391-5.0391-6.0469-14.609-5.543-20.656 5.543 0 15.617 0 20.656 5.543 5.0391 5.0391 5.543 14.613 5.543 20.656zm-234.78 12.094c0.50391 5.543 0 15.617-5.543 20.656-5.0391 5.0391-14.609 6.0469-20.656 5.543-0.50391-5.543 0-15.617 5.543-20.656 5.0391-5.0391 14.613-6.0469 20.656-5.543zm-32.242-41.816c4.0312 3.5273 10.578 11.082 10.578 18.641s-6.0469 14.609-10.578 18.641c-4.0312-3.5273-10.578-11.086-10.578-18.641 0-7.5586 6.043-14.609 10.578-18.641zm-5.543 68.012c-6.0469 0.50391-15.617-0.50391-20.656-5.543s-6.0469-14.609-5.543-20.656c6.0469-0.50391 15.617 0.50391 20.656 5.543 5.0391 5.0391 5.543 14.613 5.543 20.656z"/>
  <path d="m522.43 601.52c1.5117 0 3.0234-0.50391 4.0312-2.0156 1.5117-2.0156 1.5117-5.543-0.50391-7.0547-115.88-94.211-250.39-124.44-320.42-134.01-2.5195-0.50391-5.543 1.5117-5.543 4.5352-0.50391 2.5195 1.5117 5.543 4.5352 5.543 69.023 9.5742 201.52 39.297 315.38 132 0 0.5 1.5117 1.0039 2.5195 1.0039z"/>
  <path d="m205.53 499.75c-2.5195-0.50391-5.543 1.0078-6.0469 4.0312-0.50391 2.5195 1.0078 5.543 4.0312 6.0469 58.945 11.586 147.11 36.777 231.75 90.688 1.0078 0.50391 2.0156 1.0078 2.5195 1.0078 1.5117 0 3.5273-1.0078 4.0312-2.5195 1.5117-2.5195 1.0078-5.543-1.5117-7.0547-85.648-54.918-174.82-80.613-234.78-92.199z"/>
  <path d="m339.54 601.52c2.0156 0 3.5273-1.0078 4.5352-3.0234 1.0078-2.5195 0-5.543-2.5195-6.5508-42.32-20.656-88.168-37.281-136.03-48.871-2.5195-0.50391-5.543 1.0078-6.0469 3.5273s1.0078 5.543 3.5273 6.0469c47.359 11.586 92.699 27.711 134.01 48.367 1.0078 0.50391 1.5117 0.50391 2.5195 0.50391z"/>
 </g>
</svg>