<?xml version="1.0" encoding="UTF-8"?>
<!-- The Best Svg Icon site in the world: iconSvg.co, Visit us! https://iconsvg.co -->
<svg fill="#000000" width="800px" height="800px" version="1.1" viewBox="144 144 512 512" xmlns="http://www.w3.org/2000/svg">
 <path d="m210.06 426.2 136.03-10.078c2.5195 0 4.5352-2.5195 4.5352-5.0391v-9.5742h19.648c1.0078 4.5352 2.5195 9.0703 5.0391 12.594l-14.105 14.105-6.5508-7.5469c-2.0156-2.0156-5.0391-2.0156-7.0547-0.50391l-102.78 89.172c-1.0078 1.0078-1.5117 2.0156-1.5117 3.5273 0 1.5117 0.50391 2.5195 1.5117 3.5273l35.266 35.266c1.0078 1.0078 2.0156 1.5117 3.5273 1.5117 1.5117 0 2.5195-0.50391 3.5273-1.5117l88.672-102.78c1.5117-2.0156 1.5117-5.0391-0.50391-7.0547l-7.0547-7.0547 14.105-14.105c3.5273 2.5195 8.0625 4.5352 12.594 5.0391v19.648h-10.074c-2.5195 0-5.0391 2.0156-5.0391 4.5352l-10.078 135.52c0 1.5117 0.50391 3.0234 1.5117 4.0312 1.0078 1.0078 2.5195 1.5117 3.5273 1.5117h49.879c1.5117 0 2.5195-0.50391 3.5273-1.5117 1.0078-1.0078 1.5117-2.5195 1.5117-4.0312l-10.078-135.52c0-2.5195-2.5195-4.5352-5.0391-4.5352h-9.5703v-19.648c4.5352-1.0078 9.0703-2.5195 12.594-5.0391l14.105 14.105-7.0547 7.0547c-2.0156 2.0156-2.0156 5.0391-0.50391 7.0547l88.672 102.78c1.0078 1.0078 2.0156 1.5117 3.5273 1.5117s2.5195-0.50391 3.5273-1.5117l35.266-35.266c1.0078-1.0078 1.5117-2.5195 1.5117-3.5273 0-1.5117-0.50391-2.5195-1.5117-3.5273l-102.77-88.668c-2.0156-1.5117-5.0391-1.5117-7.0547 0.50391l-7.0547 7.0547-14.105-14.105c2.5195-3.5273 4.5352-8.0625 5.0391-12.594h20.152v9.5742c0 2.5195 2.0156 5.0391 4.5352 5.0391l135.52 10.078h0.50391c1.5117 0 2.5195-0.50391 3.5273-1.5117 1.0078-1.0078 1.5117-2.5195 1.5117-3.5273v-49.879c0-1.5117-0.50391-2.5195-1.5117-3.5273-1.0078-1.0078-2.5195-1.5117-4.0312-1.5117l-135.52 10.078c-2.5195 0-4.5352 2.5195-4.5352 5.0391v9.5742h-20.152c-1.0078-4.5352-2.5195-8.5664-5.0391-12.594l14.105-14.105 7.0547 7.0547c1.0078 1.0078 2.5195 1.5117 3.5273 1.5117 1.0078 0 2.5195-0.50391 3.5273-1.0078l102.78-88.672c1.0078-1.0078 1.5117-2.0156 1.5117-3.5273 0-1.5117-0.50391-2.5195-1.5117-3.5273l-35.266-35.266c-1.0078-1.0078-2.5195-1.5117-3.5273-1.5117-1.5117 0-2.5195 0.50391-3.5273 1.5117l-88.672 103.27c-1.5117 2.0156-1.5117 5.0391 0.50391 7.0547l7.0547 7.0547-14.105 14.105c-3.5273-2.5195-8.0625-4.5352-12.594-5.0391v-19.648h9.5742c2.5195 0 5.0391-2.0156 5.0391-4.5352l10.078-135.52c0-1.5117-0.50391-3.0234-1.5117-4.0312-1.0078-1.0078-2.5195-1.5117-3.5273-1.5117h-49.883c-1.5117 0-2.5195 0.50391-3.5273 1.5117-1.0078 1.0078-1.5117 2.5195-1.5117 4.0312l10.078 135.52c0 2.5195 2.5195 4.5352 5.0391 4.5352h10.074v19.648c-4.5352 1.0078-8.5664 2.5195-12.594 5.0391l-13.602-13.602 7.0547-7.0547c2.0156-2.0156 2.0156-5.0391 0.50391-7.0547l-89.18-103.28c-1.0078-1.0078-2.0156-1.5117-3.5273-1.5117-1.5117 0-2.5195 0.50391-3.5273 1.5117l-35.266 35.266c-1.0078 1.0078-1.5117 2.5195-1.5117 3.5273 0 1.5117 0.50391 2.5195 1.5117 3.5273l102.78 88.672c1.0078 1.0078 2.0156 1.0078 3.5273 1.0078 1.5117 0 2.5195-0.50391 3.5273-1.5117l7.0547-7.0547 13.602 13.602c-2.5195 3.5273-4.5352 8.0625-5.0391 12.594h-19.648v-9.5742c0-2.5195-2.0156-5.0391-4.5352-5.0391l-135.52-10.078c-1.5117 0-3.0234 0.50391-4.0312 1.5117-1.0078 1.0078-1.5117 2.5195-1.5117 3.5273v49.879c0 1.5117 0.50391 2.5195 1.5117 3.5273 1.0078 1.0117 2.0156 1.5156 3.5273 1.5156zm73.051 114.87-27.711-27.711 95.219-82.121 14.609 14.609zm136.03 40.305h-38.793l9.5742-125.45h20.152zm30.227-150.14 95.219 82.121-27.707 27.711-82.121-95.223zm10.078-44.84 125.45-9.5742v38.793l-125.45-9.5742zm57.434-134.52 27.711 27.711-95.223 81.617-14.609-14.609zm-136.53-40.809h38.793l-9.0703 125.45h-20.152zm-29.727 150.64-95.219-82.121 27.711-27.711 82.121 95.219zm49.375 14.609c11.082 0 20.152 9.0703 20.152 20.152 0 11.082-9.0703 20.152-20.152 20.152s-20.152-9.0703-20.152-20.152c0-11.086 9.0664-20.152 20.152-20.152zm-184.9 0.50391 125.45 9.5742v20.152l-125.45 9.5742z"/>
</svg>