<?xml version="1.0" encoding="UTF-8"?>
<!-- The Best Svg Icon site in the world: iconSvg.co, Visit us! https://iconsvg.co -->
<svg fill="#000000" width="800px" height="800px" version="1.1" viewBox="144 144 512 512" xmlns="http://www.w3.org/2000/svg">
 <path d="m599.06 469.25c-0.94922-0.97266-2.25-1.5234-3.6094-1.5234h-34.465c-2.2734 0-4.4023-0.39062-6.3438-1.1562-0.99219-0.39062-2.1445-0.91016-3.3281-1.5273l2.0391-142.71c0-1.1719 0.44141-2.2891 1.2578-3.1406l7.3555-7.75c10.695-11.254 17.684-25.121 20.223-40.102l2.5039-14.801c0.48047-2.8594-0.30859-5.7734-2.1836-7.9883-1.875-2.2188-4.6133-3.4922-7.5195-3.4922l-77.707-0.007813c-2.9023 0-5.6367 1.2734-7.5117 3.4883-1.875 2.2188-2.668 5.1289-2.1836 7.9844l2.5 14.812c2.5391 14.98 9.5312 28.848 20.227 40.102l7.3555 7.75c0.8125 0.85156 1.2539 1.9688 1.2539 3.2109l2.0391 142.64c-1.1875 0.62109-2.3398 1.1406-3.3359 1.5312-1.9336 0.76172-4.0625 1.1523-6.332 1.1523h-34.469c-1.3633 0-2.668 0.55078-3.6094 1.5234-0.94922 0.98047-1.4609 2.2969-1.4258 3.6562l2.082 73.043c0.73828 25.871 20.508 49.441 50.359 60.059l5.1562 1.8359c2.1758 0.77344 4.4609 1.1602 6.75 1.1602 2.293 0 4.582-0.39062 6.7617-1.1602l5.1445-1.8359c29.855-10.617 49.625-34.188 50.367-60.059l2.0781-73.043c0.03125-1.3555-0.48047-2.6719-1.4297-3.6523zm-81.441-164.75c-0.003907 0-0.003907-0.003906-0.003907-0.003906-9.3086-9.7969-15.391-21.844-17.59-34.84l-2.7422-14.527 77.469-0.28125-2.5039 14.805c-2.1992 13-8.2812 25.051-17.59 34.848l-7.3555 7.7461c-2.5977 2.7305-4.0312 6.3125-4.0312 10.012l-3.0586 213.93c-0.03125 2.2148-1.8594 4.0195-4.0781 4.0195s-4.0508-1.8047-4.0781-4.0234l-3.0586-213.86c0-3.7656-1.4258-7.3438-4.0195-10.078zm70.715 241.17c-0.61328 21.676-17.758 41.637-43.672 50.848l-5.1445 1.8359c-2.1797 0.77344-4.5703 0.78125-6.75 0l-5.1562-1.8359c-25.914-9.2109-43.051-29.172-43.664-50.848l-1.9336-67.863h29.285c3.4648 0 6.7656-0.61719 9.8242-1.793l0.86328 60.316c0.10938 7.6953 6.4531 13.957 14.156 13.957 7.6992 0 14.047-6.2617 14.156-13.953l0.86328-60.328c3.0586 1.1836 6.3594 1.7969 9.8281 1.7969h29.277zm-298.41 48.387h81.023c5.5586 0 10.078-4.5234 10.078-10.078v-46.234c0-5.5547-4.5195-10.078-10.078-10.078l-81.023 0.003907c-5.5586 0-10.078 4.5234-10.078 10.078v46.234c0 5.5547 4.5195 10.074 10.078 10.074zm0-56.309h81.023l0.007813 46.234h-81.031zm242.56-233.88c0.94922 1 2.2695 1.5664 3.6523 1.5664 1.3828 0 2.6992-0.56641 3.6523-1.5664l6.7461-7.0977c6.5234-6.875 11.223-15.203 13.59-24.086 0.40234-1.5117 0.082031-3.125-0.87109-4.3672-0.95312-1.2383-2.4297-1.9688-3.9961-1.9688h-38.238c-1.5664 0-3.0391 0.72656-3.9961 1.9688-0.95313 1.2383-1.2734 2.8555-0.87109 4.3672 2.3711 8.8867 7.0742 17.215 13.594 24.082zm15.68-27.441c-2.1406 4.875-5.1719 9.4336-8.9414 13.406l-3.0898 3.2539-3.0859-3.25c-3.7734-3.9688-6.8008-8.5273-8.9414-13.406zm-177.43 77.094c0 6.082-3.9219 10.672-9.1172 10.672-5.1953 0-9.1094-4.5859-9.1094-10.672 0-6.082 3.9141-10.668 9.1094-10.668 5.1953 0 9.1172 4.5859 9.1172 10.668zm90.617-78.543c0-15.906-21.969-27.629-52.613-34.773-11.629-28.754-42.57-49.219-78.312-49.219-35.738 0-66.684 20.465-78.309 49.219-30.645 7.1406-52.613 18.863-52.613 34.773 0 12.059 12.629 21.711 32.078 28.789-0.11328 1.7031-0.28125 3.3945-0.28125 5.1211l2.6836 40.488c-2.0742 6.168-2.0273 13.246 0.44531 19.93 0.29297 0.79297 0.67969 1.5156 1.0273 2.2695l2.3828 35.953c0.66797 10.098 9.3867 18.004 19.844 18.004h33.25c2.6016 2.0977 5.3047 4.0195 8.1055 5.7227v12.551c-1.8398-1.9492-4.4258-3.1875-7.3125-3.1875h-24.242c-5.5586 0-10.078 4.5234-10.078 10.078v1.4141c-32.305 31.043-53.156 84.824-55.105 144.05-0.089844 2.6992 0.90234 5.2656 2.793 7.2227 1.875 1.9336 4.4883 3.0469 7.1719 3.0469h33.637c1.832 1.6289 4.1797 2.5898 6.6562 2.5898h155.73c2.4727 0 4.8203-0.96094 6.6562-2.5898h33.637c2.6875 0 5.3047-1.1133 7.1719-3.0508 1.8945-1.9531 2.8828-4.5234 2.7891-7.2188-1.9453-59.23-22.797-113.01-55.105-144.05v-1.4141c0-5.5547-4.5156-10.078-10.074-10.078h-24.242c-2.8867 0-5.4727 1.2344-7.3125 3.1836v-12.547c2.8008-1.7031 5.5039-3.625 8.1055-5.7227h33.25c10.453 0 19.168-7.9062 19.844-18.004l2.3789-35.953c0.34766-0.75391 0.73047-1.4766 1.0273-2.2734 2.4766-6.6914 2.5273-13.773 0.44531-19.945l2.6992-40.805c0-1.6211-0.16406-3.2031-0.26562-4.8008 19.445-7.0742 32.062-16.723 32.062-28.773zm-130.92-73.914c38.316 0 70.379 26.266 73 59.793 0.054687 0.70312-0.29688 1.418-0.91016 1.8711-11.621 8.4727-40.59 14.164-72.09 14.164-31.496 0-60.469-5.6914-72.09-14.164-0.61719-0.44922-0.96484-1.1641-0.91016-1.8633 2.6211-33.535 34.688-59.801 73-59.801zm-86.543 164.74c-1.9023-5.1289-1.8555-10.527 0.12109-14.809 0.94922-2.0508 2.7891-4.7539 6.1641-5.9844 0.94531-0.34375 1.9219-0.50391 2.9023-0.5625 0.16797 11.238 2.2812 22.758 6.0391 33.746-6.0273 0.1875-12.395-4.75-15.227-12.391zm-2.5156-57.246c0-0.53125 0.074219-1.0469 0.089844-1.5742 8.5625 2.4883 18.07 4.5508 28.141 6.1992-2.3867 1.2422-4.8789 2.4336-7.6289 3.5273-3.7773 1.5039-6.4688 4.6875-7.1992 8.5195-0.58203 3.0547-1.0117 6.1016-1.3008 9.1172-2.2734 0.011719-4.5469 0.39062-6.75 1.1953-1.207 0.44141-2.3516 1.0195-3.4453 1.6797zm16.316 106.9c-5.168 0-9.4688-3.7734-9.7891-8.5938l-1.4922-22.473c3.875 2.4805 8.1797 3.918 12.512 3.918 1.3398 0 2.6758-0.17188 4-0.44531 4.5117 10.156 10.43 19.602 17.496 27.594zm9.8008 35.238h24.242l0.003906 45.5h-24.191c-0.019531 0-0.039063 0.003906-0.054687 0.003906zm-14.961 58.91-9.8242 86.867-30.328 0.019531c1.7227-52.246 18.578-99.828 45.035-129.84v33.441c-2.6445 2.3945-4.4531 5.7188-4.8828 9.5078zm150.92-42.953c26.465 30.012 43.336 77.574 45.141 129.7l-30.441 0.019532-9.8086-86.766c-0.42969-3.793-2.2383-7.1172-4.8906-9.5117zm-34.32-15.957h24.242l0.003906 45.504c-0.019531 0-0.039062-0.003906-0.058594-0.003906h-24.188zm24.188 55.574c2.5664 0 4.7188 1.918 5.0078 4.4688l9.9766 88.199-155.73-0.003906 9.9727-88.195c0.28906-2.5469 2.4414-4.4688 5.0078-4.4688zm-34.262-46.07v35.996h-57.242v-35.996c18.98 4.9414 38.266 4.9414 57.242 0zm-49.93-8.6445v-15.293c6.7188 2.6445 13.852 4.1328 21.309 4.1328 7.457 0 14.59-1.4883 21.309-4.1328v15.293c-14.152 2.9883-28.461 2.9883-42.617 0zm21.309-21.238c-37.91 0-67.312-46.938-67.312-87.316 0-5.1445 0.52344-10.488 1.5508-15.875 0.078125-0.41406 0.49219-0.83203 1.0312-1.0508 7.6172-3.0352 13.848-6.6094 19.43-10.727 14.676 1.6953 30.098 2.5703 45.297 2.5703 5.2734 0 10.57-0.11328 15.855-0.32031 16.219 5.4727 33.91 9 48.672 9.9102h0.003907c0.79687 0.050782 1.418 0.60156 1.5508 1.3789 0.81641 4.8008 1.2344 9.5508 1.2344 14.117 0 40.375-29.402 87.312-67.312 87.312zm82.531-23.453c-0.32031 4.8203-4.6211 8.5938-9.7852 8.5938h-22.727c7.0664-7.9922 12.98-17.438 17.496-27.594 1.3242 0.26953 2.6602 0.44141 3.9961 0.44141 4.332 0 8.6367-1.4375 12.512-3.9141zm4.0117-41.059c-2.8281 7.6406-9.1992 12.555-15.227 12.383 3.7578-10.988 5.8672-22.504 6.0352-33.738 0.98438 0.058594 1.957 0.21875 2.9023 0.5625 3.375 1.2305 5.2148 3.9336 6.1602 5.9844 1.9844 4.2812 2.0312 9.6797 0.12891 14.809zm0.60156-28.586c-1.0898-0.66016-2.2305-1.2344-3.4375-1.6758-2.2109-0.80469-4.4922-1.1875-6.7734-1.1953-0.22656-2.375-0.51563-4.7617-0.92578-7.1641-0.91406-5.3984-5.3867-9.4062-10.867-9.7422-5.6445-0.34766-11.828-1.1406-18.199-2.2891 15.25-1.832 29.637-4.5742 42.055-8.1797 0.007812 0.42188 0.070312 0.82812 0.070312 1.25zm-87.145-29.383c-69.164 0-120.84-17.344-120.84-32.855 0-8.293 14.785-17.109 39.109-23.52-0.60156 2.8242-1.082 5.6875-1.3086 8.6172-0.32812 4.1641 1.5977 8.3008 5.0195 10.793 13.414 9.7773 44.039 16.098 78.023 16.098 33.988 0 64.613-6.3203 78.023-16.098 3.418-2.4922 5.3477-6.6289 5.0234-10.793-0.23047-2.9297-0.71094-5.793-1.3125-8.6172 24.324 6.4102 39.113 15.227 39.113 23.52 0 15.508-51.68 32.855-120.85 32.855zm-22.078 45.688c0 6.082-3.9141 10.672-9.1094 10.672-5.1953 0-9.1172-4.5859-9.1172-10.672 0-6.082 3.9219-10.668 9.1172-10.668 5.1914 0 9.1094 4.5859 9.1094 10.668zm41.203 36.434c0 7.2461-8.2227 12.707-19.125 12.707s-19.125-5.4609-19.125-12.707c0-2.7852 2.2539-5.0391 5.0391-5.0391 2.7812 0 5.0391 2.2539 5.0391 5.0391 0.33594 0.58203 3.5859 2.6328 9.0508 2.6328 5.0547 0 8.1055-1.7227 8.8438-2.6328 0.058594-0.074219 0.21484-0.17578 0.24219-0.23828 0-2.7812 2.2344-4.9219 5.0195-4.9219 2.7812 0.003906 5.0156 2.375 5.0156 5.1602z"/>
</svg>