<?xml version="1.0" encoding="UTF-8"?>
<!-- The Best Svg Icon site in the world: iconSvg.co, Visit us! https://iconsvg.co -->
<svg fill="#000000" width="800px" height="800px" version="1.1" viewBox="144 144 512 512" xmlns="http://www.w3.org/2000/svg">
 <path d="m633.33 411.12c0-13.723-4.0547-27.164-11.754-39.027 1.7578-5.8828 2.6406-11.957 2.6406-18.078 0-16.535-6.5039-32.355-18.387-44.867 1.0469-4.0352 1.5742-8.1406 1.5742-12.242 0-29.551-26.367-53.598-58.781-53.598-32.41 0-58.777 24.047-58.777 53.598 0 4.0977 0.52734 8.2031 1.5742 12.238-2.8125 2.9609-5.2969 6.1211-7.4922 9.418-1.4219-16.281-8.4961-31.68-20.398-44.113 1.2148-4.5938 1.832-9.2578 1.832-13.914-0.003906-32.828-29.32-59.539-65.359-59.539s-65.359 26.707-65.359 59.539c0 4.6641 0.61328 9.332 1.832 13.918-11.902 12.43-18.98 27.824-20.402 44.109-2.1953-3.2969-4.6797-6.457-7.4922-9.418 1.0469-4.0469 1.5742-8.1484 1.5742-12.238 0-29.551-26.367-53.598-58.781-53.598-32.41 0-58.781 24.043-58.781 53.598 0 4.0977 0.52734 8.2031 1.5703 12.242-11.875 12.512-18.383 28.332-18.383 44.867 0 6.1367 0.88672 12.203 2.6445 18.078-7.6992 11.863-11.758 25.305-11.758 39.027 0 37.98 30.426 69.547 70.262 75.809l-1.1719 101.74c-0.03125 2.75 1.0195 5.3477 2.9531 7.3008 1.9414 1.957 4.5195 3.0352 7.2734 3.0352h10.789c2.7539 0 5.3398-1.0781 7.2734-3.0352 1.9336-1.957 2.9805-4.5547 2.9492-7.3047l-1.1719-101.73c27.484-4.3203 50.418-20.691 62.031-42.922 14.148 15.227 34.016 25.859 56.559 29.285l-1.3203 114.73c-0.03125 2.9258 1.0781 5.6836 3.1367 7.7656 2.0547 2.0664 4.793 3.2148 7.7188 3.2148h12.105c2.9258 0 5.668-1.1445 7.7227-3.2266 2.0547-2.082 3.168-4.8359 3.1328-7.7578l-1.3203-114.73c22.543-3.4219 42.41-14.059 56.559-29.281 11.613 22.23 34.547 38.602 62.031 42.922l-1.1719 101.73c-0.035156 2.75 1.0117 5.3477 2.9531 7.3047 1.9375 1.957 4.5195 3.0352 7.2734 3.0352h10.785c2.7539 0 5.3398-1.0781 7.2734-3.0352 1.9375-1.957 2.9883-4.5547 2.9531-7.3047l-1.1719-101.73c39.832-6.2656 70.258-37.832 70.258-75.812zm-395.79 23.328-23.828-25.781 4.0078-4.0078 19.953 18.445zm0.75391-65.41-15.027-16.516 2.6523-2.6523 12.465 11.418zm7.543 219.75 3.1133-269.9c0.015626-1.3203 1.1055-2.3984 2.4297-2.3984s2.4141 1.0781 2.4297 2.3984v0.003907l2.9648 270.04zm18.539-227.57 12.469-11.344 2.6523 2.6484-15.027 16.516zm0.71094 61.887 19.953-18.445 4.0039 4.0078h0.003907l-23.828 25.781zm0.62109 53.688-0.32031-27.68 31.062-33.605c3.6836-3.9883 3.5625-10.121-0.27734-13.961l-4.0078-4.0078c-3.8438-3.8398-9.9727-3.9609-13.965-0.27734l-13.27 12.27-0.29688-25.703 22.309-24.52c3.625-3.9844 3.4844-10.094-0.32422-13.902 0-0.003906-0.003906-0.003906-0.003906-0.003906l-2.6523-2.6484c-3.8086-3.8125-9.9219-3.9531-13.906-0.32812l-5.8398 5.3125-0.33203-28.965v0.003907c-0.078125-6.8164-5.6875-12.363-12.508-12.363-6.8164 0-12.426 5.543-12.504 12.359l-0.33203 28.965-5.8398-5.3125c-3.9844-3.6367-10.098-3.4844-13.906 0.32812l-2.6523 2.6523c-3.8125 3.8125-3.957 9.9219-0.32812 13.906l22.309 24.52-0.29688 25.703-13.273-12.27c-3.9883-3.6836-10.125-3.5586-13.961 0.27734l-4.0039 4.0039c-3.8438 3.8398-3.9688 9.9766-0.27734 13.965l31.059 33.602-0.32031 27.68c-34.312-6.0117-60.301-33.156-60.301-65.668 0-12.469 3.9258-24.695 11.355-35.359 0.92188-1.3203 1.1523-2.9961 0.63281-4.5156-1.9062-5.5703-2.8711-11.367-2.8711-17.234 0-14.762 6.207-28.898 17.477-39.812 1.3828-1.3398 1.8828-3.3438 1.2852-5.1758-1.2969-3.9844-1.9531-8.0625-1.9531-12.121 0-23.996 21.848-43.52 48.703-43.52 26.855 0 48.707 19.523 48.707 43.52 0 4.043-0.65625 8.1211-1.9531 12.125-0.59375 1.8281-0.09375 3.832 1.2852 5.1719 9.8945 9.582 15.879 21.652 17.195 34.441-7.2305 12.363-11.062 26.086-11.062 40.09 0 17.211 5.6562 33.223 15.293 46.672-9.1797 21.055-29.867 36.957-55.133 41.387zm119.36-60.316-27.797-30.07c-0.22656-0.24609-0.21875-0.62109 0.015625-0.85547l4.4961-4.4961c0.12109-0.12109 0.28125-0.18359 0.4375-0.18359 0.14844 0 0.30078 0.054687 0.41797 0.16406l22.594 21.059zm0.84766-73.398-17.922-19.695c-0.22266-0.24219-0.21094-0.61328 0.023438-0.84766h0.003906l2.9727-2.9805c0.12109-0.12109 0.27734-0.17969 0.43359-0.17969 0.14844 0 0.29688 0.054687 0.41797 0.16406l14.191 13.078zm20.695 245.62c-0.10156 0.10547-0.28516 0.23047-0.55469 0.23047h-12.105c-0.26953 0-0.45312-0.12891-0.55469-0.23047-0.10547-0.10937-0.23047-0.28906-0.22656-0.5625l3.4922-302.93c0.023438-1.8242 1.5234-3.3047 3.3438-3.3047 1.8242 0 3.3242 1.4844 3.3438 3.3047l3.4883 302.93c0.007813 0.27344-0.11719 0.45313-0.22656 0.5625zm7.3633-256.25 14.199-12.922c0.11719-0.10547 0.26562-0.15625 0.41406-0.15625 0.15234 0 0.30859 0.058594 0.43359 0.17969l2.9766 2.9805c0.23047 0.23438 0.24219 0.60547 0.019531 0.85156l-17.922 19.695zm0.79688 69.469 22.59-20.887c0.12109-0.10938 0.27734-0.16797 0.42188-0.16797 0.15625 0 0.31641 0.0625 0.4375 0.18359l4.4961 4.4961v0.003906c0.23437 0.23438 0.24609 0.60938 0.019531 0.85547l-27.801 30.074zm0.70703 61.23-0.36719-32.016 35.031-37.895c3.9102-4.2344 3.7852-10.746-0.29688-14.82l-4.4961-4.4922c-4.0625-4.0781-10.586-4.2031-14.82-0.29688l-15.914 14.711-0.35156-30.484 25.199-27.691c3.8516-4.2305 3.6992-10.711-0.34375-14.758l-2.9766-2.9805c-4.0508-4.0508-10.527-4.1953-14.754-0.34766l-7.5703 6.8867-0.39062-33.883c-0.089844-7.3125-6.1055-13.266-13.422-13.266-7.3125 0-13.336 5.9492-13.422 13.266l-0.39062 33.883-7.5664-6.8867c-4.2344-3.8516-10.719-3.7031-14.762 0.34766l-2.9766 2.9805c-4.043 4.0469-4.1953 10.527-0.34766 14.754l25.203 27.695-0.35156 30.484-15.914-14.707c-4.2344-3.9141-10.746-3.7852-14.82 0.28906l-4.4961 4.4961c-4.0781 4.0742-4.2031 10.582-0.28906 14.82l35.027 37.895-0.36719 32.016c-39.152-6.5508-68.906-37.398-68.906-74.418 0-14.125 4.4453-27.969 12.855-40.039 0.92188-1.3203 1.1523-2.9961 0.63281-4.5156-2.1641-6.3086-3.2578-12.887-3.2578-19.543 0-16.738 7.0312-32.766 19.805-45.129 1.3828-1.3398 1.8828-3.3477 1.2852-5.1797-1.4727-4.5273-2.2227-9.1719-2.2227-13.793 0-27.273 24.801-49.465 55.285-49.465s55.281 22.188 55.281 49.465c0 4.6133-0.74609 9.2539-2.2188 13.801-0.59375 1.8281-0.09375 3.832 1.2891 5.1719 12.766 12.367 19.797 28.395 19.797 45.129 0 6.6484-1.0977 13.227-3.2578 19.551-0.51562 1.5195-0.28516 3.1914 0.63281 4.5078 8.4102 12.078 12.852 25.922 12.852 40.043 0 37.016-29.754 67.863-68.906 74.414zm119.31-28.703-23.828-25.777 4.0117-4.0117 19.949 18.441zm0.75391-65.41-15.027-16.516 2.6523-2.6523 12.465 11.422zm7.543 219.75 3.1094-269.89c0.015625-1.3242 1.1055-2.4023 2.4297-2.4023 1.3242 0 2.4141 1.0781 2.4297 2.4023v-0.003907l2.9648 270.04zm18.539-227.57 12.465-11.344 2.6523 2.6523-15.027 16.516zm0.71094 61.895 19.957-18.449 4.0039 4.0078-23.832 25.781zm0.61719 53.684-0.32031-27.68 31.062-33.605c3.6836-3.9883 3.5664-10.121-0.27734-13.961l-4.0039-4.0078c-3.8359-3.8438-9.9844-3.9609-13.969-0.27734l-13.27 12.27-0.29688-25.711 22.305-24.516c3.6328-3.9883 3.4883-10.098-0.32422-13.906l-2.6523-2.6562c-3.8164-3.8047-9.9219-3.957-13.91-0.32812l-5.8359 5.3125-0.33203-28.961v-0.003907c-0.082031-6.8125-5.6914-12.355-12.508-12.355-6.8125 0-12.422 5.543-12.508 12.359l-0.33203 28.965-5.8359-5.3125c-3.9883-3.6289-10.098-3.4805-13.91 0.32813l-2.6523 2.6523c-3.8125 3.8125-3.957 9.918-0.32422 13.906l22.305 24.516-0.29688 25.703-13.266-12.266c-4-3.6914-10.129-3.5664-13.965 0.27734l-4.0117 4.0078c-3.8438 3.8359-3.9648 9.9688-0.27734 13.965l31.059 33.602-0.32031 27.684c-25.266-4.4258-45.953-20.328-55.137-41.383 9.6367-13.449 15.297-29.461 15.297-46.672 0-14-3.832-27.723-11.062-40.094 1.3164-12.793 7.3008-24.859 17.195-34.438 1.3828-1.3398 1.8828-3.3477 1.2891-5.1797-1.293-3.9844-1.9531-8.0625-1.9531-12.121 0-23.996 21.852-43.52 48.703-43.52 26.852 0 48.703 19.523 48.703 43.52 0 4.0586-0.66016 8.1367-1.9531 12.121-0.59375 1.8281-0.09375 3.8359 1.2891 5.1758 11.266 10.914 17.477 25.055 17.477 39.812 0 5.8555-0.96484 11.656-2.875 17.238-0.51562 1.5195-0.28516 3.1914 0.63281 4.5078 7.4258 10.668 11.352 22.895 11.352 35.363 0.011719 32.508-25.973 59.652-60.289 65.668z"/>
</svg>