<?xml version="1.0" encoding="UTF-8"?>
<!-- The Best Svg Icon site in the world: iconSvg.co, Visit us! https://iconsvg.co -->
<svg fill="#000000" width="800px" height="800px" version="1.1" viewBox="144 144 512 512" xmlns="http://www.w3.org/2000/svg">
 <g>
  <path d="m400.63 540.28h-1.2617l0.63281 0.78906z"/>
  <path d="m254.05 555.71c1.2578 0.47266 2.3633 1.2578 3.6211 2.0469 0.62891 0.47266 1.2617 0.78906 1.8906 1.2578 0.15625 0.15625 0.47266 0.31641 0.62891 0.47266 1.7305 1.1016 3.1484 2.2031 4.7227 3.4648 0.31641 0.15625 0.47266 0.47266 0.78906 0.78906 1.418 1.1016 2.832 2.5195 4.0938 3.9375 0.47266 0.47266 0.94531 0.94531 1.2578 1.418l-0.47266-68.801v-16.215c-9.2891 16.215-23.145 42.824-23.145 54.316 0 4.0938 0.78906 9.4453 2.3633 15.273 1.5742 0.62109 2.9922 1.4102 4.25 2.0391z"/>
  <path d="m296.25 560.59c0.62891-0.47266 1.2578-0.94531 1.8906-1.418 2.0469-1.2578 3.6211-2.2031 5.3516-3.3047 0.78906-0.47266 1.7305-0.94531 2.832-1.2578 1.5742-6.1406 2.5195-11.809 2.5195-16.215 0-11.336-13.539-37.312-22.516-53.531v17.004l0.47266 67.383c2.6797-2.9922 5.8281-5.9805 9.4492-8.6602z"/>
  <path d="m496.04 555.71c1.1016 0.47266 2.3633 1.2578 3.4648 2.0469 0.62891 0.47266 1.2578 0.78906 1.8906 1.2578 0.15625 0.15625 0.47266 0.31641 0.62891 0.47266 1.7305 1.1016 3.1484 2.2031 4.7227 3.4648 2.0469 1.5742 3.7773 3.4648 5.3516 5.1953v-83.602c-9.1328 16.215-22.828 42.508-22.828 53.844 0 4.0938 0.78906 9.4453 2.3633 15.273 1.7266 0.62891 3.1445 1.418 4.4062 2.0469z"/>
  <path d="m534.77 563.27c1.1016-0.94531 2.2031-1.8906 3.3047-2.6758 0.62891-0.47266 1.2578-0.94531 1.8906-1.418l5.1953-2.9922c0.94531-0.47266 1.7305-0.94531 2.832-1.2578 1.7305-6.2969 2.6758-12.121 2.6758-16.531 0-11.336-13.699-37.629-22.828-53.844v85.648c0.62891-0.78906 1.418-1.5742 2.2031-2.5195 1.4219-1.4219 2.9961-2.9961 4.7266-4.4102z"/>
  <path d="m620.41 604.67h-45.5c18.578-11.652 51.168-55.418 51.168-55.418s-48.965 2.9922-71.32 11.18c-1.8906 0.62891-3.7773 1.418-5.1953 2.2031-1.7305 0.94531-3.4648 1.8906-5.0391 2.832v0.15625c-6.7695 4.5664-11.809 10.078-14.801 15.742-0.78906 1.2578-1.418 2.6758-1.8906 3.9375-0.78906 2.2031-1.2578 4.4102-1.418 6.4531h-0.15625c-0.15625 2.2031 0 4.25 0.47266 6.1406v0.15625c-1.1016 1.5742-2.6758 2.6758-4.4102 3.1484-0.78906 0.31641-1.5742 0.47266-2.3633 0.47266h-0.47266c-1.7305-0.15625-3.4648-0.78906-4.7227-2.0469 0.78906-2.2031 0.94531-4.5664 0.78906-6.9258-0.15625-3.7773-1.2578-7.5586-3.4648-11.336-3.3047-6.2969-9.4453-12.438-17.16-17.16-0.78906-0.62891-1.7305-1.1016-2.6758-1.5742-1.8906-1.1016-4.25-2.0469-7.0859-2.9922-22.824-7.5547-69.426-10.387-69.426-10.387s32.906 44.082 51.484 55.418h-134.3c18.578-11.652 51.324-55.418 51.324-55.418s-49.438 2.9922-71.477 11.18c-1.8906 0.62891-3.6211 1.418-5.0391 2.2031-1.7305 0.94531-3.4648 1.8906-5.0391 2.832l-0.15625 0.15625c-6.6133 4.5664-11.652 10.078-14.641 15.742-0.31641 0.62891-0.62891 1.1016-0.94531 1.7305v0.15625c-0.62891 1.418-1.2578 2.832-1.5742 4.25-0.47266 1.4219-0.62891 2.9961-0.78906 4.2578h-0.15625c-0.31641 2.6758-0.15625 5.0391 0.62891 7.2422-1.1016 1.2578-2.6758 2.2031-4.5664 2.5195-0.47266 0.15625-0.94531 0.15625-1.418 0.15625-0.47266 0-0.94531 0-1.418-0.15625-1.8906-0.31641-3.4648-1.2578-4.5664-2.5195 0.15625-0.31641 0.15625-0.62891 0.15625-0.94531 0.31641-0.62891 0.31641-1.418 0.31641-2.0469 0.15625-1.1016 0.31641-2.2031 0.15625-3.3047 0-0.94531-0.15625-1.8906-0.31641-2.832-0.15625-0.62891-0.31641-1.2578-0.47266-1.8906-0.31641-1.2578-0.78906-2.5195-1.2578-3.7773-0.15625-0.31641-0.31641-0.62891-0.47266-0.94531v-0.15625c-0.31641-0.62891-0.62891-1.1016-0.94531-1.7305-3.4648-6.2969-9.4453-12.438-17.16-17.16-0.94531-0.62891-1.7305-1.1016-2.6758-1.5742-1.8906-1.1016-4.25-2.0469-7.0859-2.9922-22.984-7.5586-69.43-10.391-69.43-10.391 0.003906-0.003906 32.75 44.078 51.328 55.414h-45.656c-4.4102 0-7.8711 3.4648-7.8711 7.8711 0 4.4102 3.4609 7.8711 7.8711 7.8711h440.83c4.4102 0 7.8711-3.4648 7.8711-7.8711 0.003906-4.4062-3.4609-7.8711-7.8711-7.8711z"/>
  <path d="m561.06 265.39v-14.957c0-4.4102-3.4648-7.8711-7.8711-7.8711-4.25 0-7.8711 3.4648-7.8711 7.8711v15.113c2.5195-0.62891 5.1953-0.94531 7.8711-0.94531 2.6758 0.003906 5.3555 0.31641 7.8711 0.78906z"/>
  <path d="m561.06 353.24v-15.113c-2.5195 0.62891-5.1953 0.94531-7.8711 0.94531s-5.3516-0.31641-7.8711-0.94531v15.113c0 4.4102 3.6211 7.8711 7.8711 7.8711 4.4102 0 7.8711-3.4609 7.8711-7.8711z"/>
  <path d="m590.5 301.91c0 2.6758-0.31641 5.3516-0.94531 7.8711h15.117c4.4102 0 7.8711-3.6211 7.8711-7.8711 0-4.4102-3.4648-7.8711-7.8711-7.8711h-14.957c0.47266 2.5156 0.78516 5.1953 0.78516 7.8711z"/>
  <path d="m501.86 309.79h15.113c-0.62891-2.5195-0.94531-5.1953-0.94531-7.8711 0-2.6758 0.31641-5.3516 0.94531-7.8711h-15.113c-4.4102 0-7.8711 3.4648-7.8711 7.8711 0 4.25 3.4609 7.8711 7.8711 7.8711z"/>
  <path d="m584.68 281.6 10.863-10.863c3.1484-3.1484 3.1484-8.1875 0-11.18-3.1484-3.1484-8.0312-3.1484-11.18 0l-10.863 10.863c4.4102 2.9961 8.1875 6.7734 11.18 11.18z"/>
  <path d="m522.02 321.91-11.02 11.18c-3.1484 2.9922-3.1484 8.0312 0 11.02 1.418 1.5742 3.4648 2.3633 5.5117 2.3633 2.0469 0 4.0938-0.78906 5.5117-2.3633l11.18-11.02c-4.5703-2.832-8.3516-6.6133-11.184-11.18z"/>
  <path d="m573.34 333.09 11.02 11.02c1.5742 1.5742 3.6211 2.3633 5.668 2.3633 1.8906 0 3.9375-0.78906 5.5117-2.3633 3.1484-2.9922 3.1484-8.0312 0-11.02l-10.863-11.02c-2.9922 4.4062-6.9258 8.1875-11.336 11.02z"/>
  <path d="m522.02 281.76c2.832-4.4102 6.6133-8.3438 11.02-11.336l-11.02-10.863c-2.9922-3.1484-8.0312-3.1484-11.02 0-3.1484 2.9922-3.1484 8.0312 0 11.18z"/>
  <path d="m528.16 286.96c-1.5742 2.2031-2.5195 4.7227-2.9922 7.2422-0.94531 2.5195-1.2578 5.0391-1.2578 7.7148 0 2.6758 0.31641 5.1953 1.2578 7.7148 0.47266 2.5195 1.418 4.8789 2.9922 7.0859 2.2031 4.25 5.8242 7.8711 10.078 10.234 2.2031 1.418 4.7227 2.5195 7.2422 2.9922 2.5195 0.94531 5.0391 1.2578 7.7148 1.2578 2.6758 0 5.1953-0.31641 7.7148-1.2578 2.5195-0.47266 5.0391-1.418 7.2422-2.9922 4.25-2.3633 7.8711-5.8242 10.234-10.078 1.418-2.2031 2.5195-4.7227 2.9922-7.2422 0.94531-2.5195 1.2578-5.0391 1.2578-7.7148 0-2.6758-0.31641-5.1953-1.2578-7.7148-0.47266-2.5195-1.5742-5.0391-2.9922-7.2422-2.3633-4.25-5.9844-7.8711-10.234-10.234-2.2031-1.418-4.7227-2.5195-7.2422-2.9922-2.5234-0.94531-5.043-1.2578-7.7188-1.2578s-5.1953 0.31641-7.7148 1.2578c-2.5195 0.47266-5.0391 1.5742-7.2422 2.9922-4.25 2.3633-7.7148 5.9844-10.074 10.234z"/>
 </g>
</svg>