<?xml version="1.0" encoding="UTF-8"?>
<!-- The Best Svg Icon site in the world: iconSvg.co, Visit us! https://iconsvg.co -->
<svg fill="#000000" width="800px" height="800px" version="1.1" viewBox="144 144 512 512" xmlns="http://www.w3.org/2000/svg">
 <g>
  <path d="m596.48 279.45h-39.23c-1.5273-20.574-17.551-37.156-37.887-39.508-0.75781-23.059-19.707-41.598-42.949-41.598-16.438 0-30.738 9.2773-37.977 22.863-7.2383-13.586-21.539-22.863-37.977-22.863s-30.742 9.2773-37.98 22.863c-7.2383-13.586-21.539-22.863-37.977-22.863-23.242 0-42.188 18.539-42.945 41.598-20.336 2.3516-36.367 18.934-37.891 39.508h-40.16c-2.7852 0-5.0391 2.2539-5.0391 5.0391v41.863c0 2.7812 2.2539 5.0391 5.0391 5.0391h8.5625v159.48h-8.5625c-2.7852 0-5.0391 2.2539-5.0391 5.0391v41.863c0 2.7812 2.2539 5.0391 5.0391 5.0391h8.5625v53.668c0 2.7812 2.2539 5.0391 5.0391 5.0391h40.16c2.7852 0 5.0391-2.2539 5.0391-5.0391v-53.668h275.63v53.668c0 2.7812 2.2539 5.0391 5.0391 5.0391h40.16c2.7852 0 5.0391-2.2539 5.0391-5.0391v-53.668h8.3047c2.7852 0 5.0391-2.2539 5.0391-5.0391v-41.863c0-2.7812-2.2539-5.0391-5.0391-5.0391h-8.3047v-159.48h8.3047c2.7852 0 5.0391-2.2539 5.0391-5.0391v-41.863c0-2.7812-2.2539-5.0391-5.0391-5.0391zm-49.309 0h-65.559c1.6172-16.668 15.699-29.742 32.781-29.742 17.086 0 31.164 13.074 32.777 29.742zm-70.758-71.031c17.695 0 32.137 14.031 32.875 31.547-14.258 1.6992-26.395 10.375-32.875 22.531-6.4766-12.156-18.609-20.836-32.871-22.531 0.73828-17.516 15.176-31.547 32.871-31.547zm-5.2031 71.031h-65.555c1.6133-16.668 15.691-29.742 32.777-29.742s31.164 13.074 32.777 29.742zm-70.754-71.031c17.695 0 32.129 14.031 32.867 31.547-14.258 1.6992-26.395 10.375-32.871 22.531-6.4766-12.156-18.613-20.836-32.875-22.531 0.74609-17.516 15.184-31.547 32.879-31.547zm-5.1992 71.031h-65.562c1.6133-16.668 15.691-29.742 32.777-29.742 17.086 0 31.168 13.074 32.785 29.742zm-70.762-71.031c17.695 0 32.129 14.031 32.867 31.547-14.258 1.6992-26.391 10.375-32.867 22.531-6.4766-12.156-18.609-20.832-32.867-22.531 0.73828-17.516 15.176-31.547 32.867-31.547zm-37.977 41.289c17.086 0 31.164 13.074 32.777 29.742h-65.559c1.6133-16.668 15.695-29.742 32.781-29.742zm-34.289 341.73h-30.086v-48.629h30.086zm325.87 0h-30.086v-48.629h30.086zm13.344-90.492v31.789h-382.89v-31.789zm-369.3-10.078v-159.48h30.086v159.48zm293.67-79.695 22.125-56.633v113.27zm20.316 79.695h-51.453l25.727-65.852zm-25.727-93.543-25.762-65.938h51.52zm-5.4102 13.848-31.137 79.695h-0.63281l-31.137-79.695 31.168-79.785h0.5625zm-42.586 79.695h-51.449l25.727-65.852zm-25.727-93.543-25.762-65.938h51.52zm-5.4102 13.848-31.137 79.695h-0.63281l-31.137-79.695 31.168-79.785h0.5625zm-42.586 79.695h-51.449l25.727-65.852zm-25.723-93.543-25.762-65.938h51.52zm-5.4102 13.848-29.41 75.277-29.41-75.277 29.41-75.277zm-38.504 79.695h-51.449l25.727-65.852zm-25.727-93.543-25.758-65.938h51.52zm-5.4102 13.848-25.605 65.539 0.003906-131.08zm260.1 79.695v-159.48h30.086v159.48zm43.43-169.56h-382.89v-31.789h382.89z"/>
  <path d="m557.85 310.46h10.426c2.7852 0 5.0391-2.2539 5.0391-5.0391 0-2.7812-2.2539-5.0391-5.0391-5.0391h-10.426c-2.7852 0-5.0391 2.2539-5.0391 5.0391s2.2539 5.0391 5.0391 5.0391z"/>
  <path d="m557.85 521.88h10.426c2.7852 0 5.0391-2.2539 5.0391-5.0391 0-2.7812-2.2539-5.0391-5.0391-5.0391h-10.426c-2.7852 0-5.0391 2.2539-5.0391 5.0391s2.2539 5.0391 5.0391 5.0391z"/>
  <path d="m231.98 310.46h10.426c2.7852 0 5.0391-2.2539 5.0391-5.0391 0-2.7812-2.2539-5.0391-5.0391-5.0391h-10.426c-2.7852 0-5.0391 2.2539-5.0391 5.0391s2.2539 5.0391 5.0391 5.0391z"/>
  <path d="m231.98 521.88h10.426c2.7852 0 5.0391-2.2539 5.0391-5.0391 0-2.7812-2.2539-5.0391-5.0391-5.0391h-10.426c-2.7852 0-5.0391 2.2539-5.0391 5.0391s2.2539 5.0391 5.0391 5.0391z"/>
 </g>
</svg>