<?xml version="1.0" encoding="UTF-8"?>
<!-- The Best Svg Icon site in the world: iconSvg.co, Visit us! https://iconsvg.co -->
<svg fill="#000000" width="800px" height="800px" version="1.1" viewBox="144 144 512 512" xmlns="http://www.w3.org/2000/svg">
 <g>
  <path d="m281.25 601.52h315.22c2.7812 0 5.0391-2.2539 5.0391-5.0391v-283.28c0-1.8516-1.0117-3.5469-2.6367-4.4297l-156.85-85.02c-1.4922-0.81641-3.2891-0.80859-4.7852-0.011718l-102.05 54.785v-11.699c0-37.691-30.664-68.352-68.355-68.352s-68.355 30.66-68.355 68.355v277.18c0 2.7852 2.2539 5.0391 5.0391 5.0391h72.688v47.434c0 2.7852 2.2539 5.0391 5.0391 5.0391zm310.18-10.078h-58.672v-162.32c0-0.23438-0.10156-0.4375-0.13281-0.66406-0.046875-0.35156-0.085937-0.69531-0.20703-1.0273-0.10938-0.30859-0.27734-0.57031-0.44531-0.84766-0.16406-0.27734-0.3125-0.54297-0.53125-0.78516-0.23828-0.26953-0.52734-0.46875-0.81641-0.67969-0.18359-0.13281-0.30859-0.31641-0.51172-0.42578-0.070313-0.039062-0.14844-0.03125-0.21875-0.066406-0.29688-0.14453-0.62109-0.20703-0.94531-0.28906-0.33984-0.085938-0.66797-0.19141-1.0117-0.20313-0.074218-0.003906-0.13672-0.042968-0.21484-0.042968l-177.73-0.007813c-0.078125 0-0.14062 0.039063-0.21484 0.042969-0.34375 0.015625-0.67188 0.11719-1.0117 0.20312-0.32422 0.082031-0.64844 0.14453-0.94531 0.28906-0.070313 0.035156-0.14844 0.027343-0.21875 0.066406-0.20312 0.10938-0.32812 0.29297-0.51172 0.42578-0.29297 0.21094-0.57812 0.41016-0.81641 0.67969-0.21484 0.24219-0.36719 0.51172-0.53125 0.78516-0.16797 0.27734-0.33203 0.53906-0.44531 0.84766-0.12109 0.33203-0.16016 0.67578-0.20703 1.0273-0.03125 0.22656-0.13281 0.42969-0.13281 0.66406l-0.003906 162.33h-58.672v-227.48l153.32-82.309 151.82 82.293zm-72.152-157.29-75.383 139.79v-139.79zm-85.457 139.79-75.383-139.79h75.383zm-78.789-124.87 76.773 142.37h-76.773zm167.65 0v142.37h-76.77zm-246.47-135.88v57.152h-67.648v-78.426h101.66l-31.363 16.836c-1.6328 0.875-2.6523 2.5859-2.6523 4.4375zm-67.648 67.227h67.648v82.633h-67.648zm231.05-146.52 151.82 82.297v36.289l-149.41-80.984c-1.4922-0.8125-3.2891-0.8125-4.7852-0.011719l-150.95 81.031v-36.312zm-172.77-25.359c32.137 0 58.277 26.145 58.277 58.277v15.027h-116.55v-15.027c0-32.133 26.145-58.277 58.277-58.277zm-58.277 330.42v-65.828h67.648v65.828z"/>
  <path d="m386.09 384.82v8.7969c0 2.7852 2.2539 5.0391 5.0391 5.0391h95.457c2.7812 0 5.0391-2.2539 5.0391-5.0391v-8.7969c0-29.098-23.672-52.766-52.766-52.766-29.098 0-52.77 23.668-52.77 52.766zm95.457 0v3.7578h-85.379v-3.7578c0-23.543 19.152-42.691 42.691-42.691 23.535 0 42.688 19.148 42.688 42.691z"/>
 </g>
</svg>