<?xml version="1.0" encoding="UTF-8"?>
<!-- The Best Svg Icon site in the world: iconSvg.co, Visit us! https://iconsvg.co -->
<svg fill="#000000" width="800px" height="800px" version="1.1" viewBox="144 144 512 512" xmlns="http://www.w3.org/2000/svg">
 <g>
  <path d="m213.84 369.84c-1.5625 0-3.125-0.35156-4.7852-1.0586l-1.7617-0.75391v143.43c0 6.6484 2.7695 12.797 7.6562 16.879 3.5273 2.9727 7.6562 4.5352 12.039 4.5352 1.0078 0 2.0664-0.10156 3.125-0.30078l339.92-61.215c13.148-2.2656 22.672-14.359 22.672-28.719v-73.758zm59.5 116.79c-10.68 0-19.297-8.6641-19.297-19.297 0-10.629 8.6133-19.297 19.297-19.297 10.629 0 19.246 8.6641 19.246 19.297 0 10.633-8.6133 19.297-19.246 19.297zm36.176-56.879c-7.8086 0-14.105-6.3477-14.105-14.105 0-7.8086 6.2969-14.156 14.105-14.156 7.7578 0 14.105 6.3477 14.105 14.156 0 7.7539-6.3477 14.105-14.105 14.105zm41.363 56.879c-13.504 0-24.484-10.984-24.484-24.484 0-13.453 10.984-24.434 24.484-24.434 13.504 0 24.484 10.984 24.484 24.434 0 13.5-10.984 24.484-24.484 24.484zm101.36-65.496c-7.0547 0-12.746-5.7422-12.746-12.746 0-7.0039 5.6914-12.746 12.746-12.746 7.0039 0 12.695 5.7422 12.695 12.746 0.003906 7.0039-5.6914 12.746-12.695 12.746zm35.82 40.305c-9.4727 0-17.23-7.707-17.23-17.18 0-9.5234 7.7578-17.23 17.23-17.23 9.5234 0 17.23 7.707 17.23 17.23 0 9.4727-7.707 17.18-17.23 17.18z"/>
  <path d="m403.48 345.86c6.6484 0 12.043-5.4414 12.043-12.043 0-6.6484-5.3906-12.043-12.043-12.043-6.6016 0-11.992 5.3906-11.992 12.043 0 6.6016 5.3906 12.043 11.992 12.043z"/>
  <path d="m351.18 307.52c2.2656 0 4.1328-1.8633 4.1328-4.1328 0-2.2656-1.8633-4.1328-4.1328-4.1328-2.2656 0.003907-4.1328 1.8672-4.1328 4.1367 0 2.2656 1.8672 4.1289 4.1328 4.1289z"/>
  <path d="m297.68 345.86c4.4336 0 8.0625-3.6289 8.0625-8.1133 0-4.4336-3.6289-8.0625-8.0625-8.0625-4.4844 0-8.1094 3.6289-8.1094 8.0625-0.003906 4.4883 3.625 8.1133 8.1094 8.1133z"/>
  <path d="m273.34 455.59c-6.5 0-11.738 5.2891-11.738 11.738s5.2383 11.738 11.738 11.738c6.4492 0 11.688-5.2891 11.688-11.738s-5.2383-11.738-11.688-11.738z"/>
  <path d="m452.24 403.2c-2.8711 0-5.1875 2.3164-5.1875 5.1875 0 2.8711 2.3164 5.1875 5.1875 5.1875 2.8203 0 5.1406-2.3164 5.1406-5.1875 0-2.8711-2.3164-5.1875-5.1406-5.1875z"/>
  <path d="m309.52 409.04c-3.6289 0-6.5508 2.9727-6.5508 6.6016 0 3.5781 2.9219 6.5508 6.5508 6.5508s6.5508-2.9727 6.5508-6.5508c-0.003906-3.6289-2.9258-6.6016-6.5508-6.6016z"/>
  <path d="m350.88 445.27c-9.3203 0-16.93 7.5586-16.93 16.879 0 9.3203 7.6094 16.93 16.93 16.93 9.3203 0 16.93-7.6094 16.93-16.93-0.003906-9.3203-7.6094-16.879-16.93-16.879z"/>
  <path d="m488.06 434.59c-5.3398 0-9.6719 4.332-9.6719 9.6719 0 5.2891 4.332 9.6211 9.6719 9.6211s9.6719-4.332 9.6719-9.6211c0.003906-5.3398-4.3281-9.6719-9.6719-9.6719z"/>
  <path d="m213.84 362.29 363.65-0.90625 0.40234-2.4688-263.29-90.988c-1.4609-0.55469-3.0234-0.80859-4.582-0.80859-3.2227 0-6.2969 1.2109-8.8164 3.4766l-90.535 82.172c-0.75391 0.70703-1.2109 1.3594-1.5625 2.1172-0.60547 1.6641-0.30078 3.7266 0.75391 5.2891 0.95703 1.3594 2.3203 2.1172 3.9805 2.1172zm189.64-48.062c10.832 0 19.598 8.7656 19.598 19.598 0 10.781-8.7656 19.598-19.598 19.598-10.781 0-19.547-8.8164-19.547-19.598-0.003907-10.832 8.7617-19.598 19.547-19.598zm-52.297-22.523c6.4492 0 11.688 5.2383 11.688 11.688s-5.2383 11.688-11.688 11.688c-6.4492 0-11.688-5.2383-11.688-11.688 0-6.4453 5.2383-11.688 11.688-11.688zm-53.504 30.43c8.6172 0 15.617 7.0039 15.617 15.617 0 8.6172-7.0039 15.668-15.617 15.668-8.6641 0-15.668-7.0547-15.668-15.668s7-15.617 15.668-15.617z"/>
 </g>
</svg>