<?xml version="1.0" encoding="UTF-8"?>
<!-- The Best Svg Icon site in the world: iconSvg.co, Visit us! https://iconsvg.co -->
<svg fill="#000000" width="800px" height="800px" version="1.1" viewBox="144 144 512 512" xmlns="http://www.w3.org/2000/svg">
 <g>
  <path d="m381.7 247.89c-9.6055 23.539-17.082 55.969-22.277 96.746-8.5-2.8359-15.035-6.375-19.051-10.312 7.1641-32.98 19.758-70.531 41.328-86.434z"/>
  <path d="m357.53 360.54c-2.125 18.656-3.3867 35.738-4.1719 48.887-9.1328-1.9688-16.848-4.5664-22.828-7.5586 1.5742-18.105 3.7773-34.953 6.5352-50.301 5.5859 3.6211 12.438 6.6133 20.465 8.9727z"/>
  <path d="m468.92 334.33v0.078125c-4.1719 4.0938-10.941 7.6367-19.996 10.547-4.4883-36.055-11.336-71.32-21.492-97.219 21.73 15.824 34.324 53.531 41.488 86.594z"/>
  <path d="m433.57 348.58c-18.578 3.3047-40.305 3.2266-58.805-0.15625 6.2969-48.809 15.742-85.961 27.789-108.24 1.418-0.078126 2.8359-0.078126 4.1719 0 11.418 21.254 20.547 58.57 26.844 108.4z"/>
  <path d="m439.48 412.26c-22.434 3.0703-48.254 3.0703-70.531-0.15625 0.78516-12.754 1.9688-29.598 4.0156-48.02 9.9961 1.7305 20.859 2.5977 31.723 2.5977 10.469 0 20.941-0.78906 30.699-2.4414 1.6523 15.035 2.9922 31.098 4.0938 48.02z"/>
  <path d="m478.76 401.87c-6.1406 3.0703-14.172 5.7461-23.695 7.793-1.0234-15.586-2.4414-32.117-4.25-48.805 8.5-2.5195 15.742-5.5898 21.492-9.2891 2.6758 15.348 4.8789 32.195 6.4531 50.301z"/>
  <path d="m352.41 425.41c-0.70703 15.352-1.0234 29.836-1.1797 39.598-7.3984-5.1953-15.191-9.6055-23.457-12.91 0.078125-5.1172 0.31641-17.398 1.4961-33.535 6.6094 2.7539 14.324 4.957 23.141 6.8477z"/>
  <path d="m396.81 552.38c-0.23438 0.70703-3.0703 3.7773-12.676 5.8242-23.93 5.1172-70.926-0.70703-95.488-29.363-35.738-41.723-61.637-73.523-61.637-94.465 0-1.418 0.15625-2.7539 0.39453-4.0938 0.94531-5.1172 4.5664-8.8945 9.7617-10.156 1.1797-0.31641 2.2812-0.47266 3.4648-0.47266 3.9375 0 7.5586 1.8086 10.074 5.0391 16.137 20.625 35.344 33.379 57.07 37.707 48.969 9.7656 89.035 72.348 89.035 89.98z"/>
  <path d="m442.08 468.39c-22.043 15.191-40.305 31.723-48.648 39.676-7.2422-10.547-16.297-21.254-26.844-30.859h0.31641c0-0.31641 0-23.379 1.1797-49.277 11.57 1.5742 24.09 2.3633 36.605 2.3633 12.203 0 24.324-0.70703 35.738-2.2812 0.70703 13.297 1.2578 26.84 1.6523 40.379z"/>
  <path d="m481.12 445.72c-7.9492 3.543-15.98 7.8711-23.617 12.594-0.39453-11.02-0.86719-21.965-1.4961-32.746 9.1328-1.8906 17.16-4.1719 24.008-7.0078 0.55078 9.2109 0.86719 18.973 1.1055 27.16z"/>
  <path d="m572.12 489.33c-1.418 3.6211-4.3281 6.457-7.9492 7.793-11.258 3.9375-32.512 3.6992-46.129-2.9922-5.668-2.7539-9.2109-6.1406-10.547-10.156l-14.957 4.9609c2.6758 8.0312 9.1328 14.719 18.578 19.367 3.7773 1.8086 7.8711 3.3047 12.121 4.4102-8.9727 13.539-29.047 33.141-53.531 41.328-20.152 6.7695-39.52 4.7227-57.543-6.1406-1.1797-7.0039-4.7227-16.215-10.234-26.215 24.719-24.09 89.66-77.617 128.31-69.902 19.836 4.0156 33.691 13.066 41.25 27 1.7305 3.2266 1.9648 7.0078 0.62891 10.547z"/>
  <path d="m322.89 341.49c-3.6992 19.129-6.6133 40.699-8.5 64.078-1.5742 18.422-2.0469 33.379-2.2031 41.723-0.47266-0.15625-0.86719-0.23828-1.3398-0.31641-11.258-2.2812-21.727-7.3203-31.41-15.195-12.594-30.781-21.254-103.36-7.5586-124.3 2.5195-3.8555 4.7227-3.8555 5.668-3.8555 12.516 0 26.371 16.059 37.473 28.969 2.6758 3.1523 5.3516 6.2227 7.8711 8.8984z"/>
  <path d="m532.05 436.2c-11.02-1.9688-23.066-0.39453-35.344 3.543-0.31641-10.863-0.86719-23.539-1.7305-34.164-1.6523-19.758-4.0156-38.258-6.8477-55.023l2.4414-2.5195c12.832-12.988 28.734-29.207 43.691-34.242 2.0469-0.62891 2.5977-0.15625 3.3047 0.62891 12.195 12.828 6.9219 83.754-5.5156 121.78z"/>
 </g>
</svg>