<?xml version="1.0" encoding="UTF-8"?>
<!-- The Best Svg Icon site in the world: iconSvg.co, Visit us! https://iconsvg.co -->
<svg fill="#000000" width="800px" height="800px" version="1.1" viewBox="144 144 512 512" xmlns="http://www.w3.org/2000/svg">
 <g>
  <path d="m266.04 490.05c1.1797-0.31641 2.4414-0.62891 3.6992-0.94531-1.2578 0.31641-2.4414 0.62891-3.6211 1.0234-0.078126 0-0.078126-0.078124-0.078126-0.078124z"/>
  <path d="m258.32 475.73c0.31641 0 0.70703-0.078124 1.0234-0.23828-0.39453 0.15625-0.70703 0.23828-1.0234 0.31641z"/>
  <path d="m467.01 408.82v0.078125c-11.73 18.262-33.613 35.738-65.023 52.113-11.18 5.7461-23.695 11.492-37.234 17.004-12.359 4.8789-25.82 9.6836-39.91 14.168-18.656 5.9844-35.266 10.312-47.074 13.148-4.3281-4.7227-8.1875-9.8398-11.652-15.191 1.1797-0.39453 2.3633-0.70703 3.6211-1.0234 11.492-3.0703 25.977-7.2422 41.879-12.594 7.0078-2.4414 14.406-5.0391 21.805-7.793 3.6992-1.418 7.3984-2.832 11.18-4.4102h0.078126c13.066-5.1953 25.742-11.02 37.785-17.32 38.023-19.836 63.133-41.879 74.941-65.574 4.4883 8.6562 7.6367 17.711 9.6055 27.395z"/>
  <path d="m447.09 365.05c-20.672 59.754-124.87 93.816-188.77 110.68-2.4414-5.5117-4.4883-11.18-5.9844-17.004 61.832-17.707 156.53-53.027 179.88-109.97 5.5898 4.8828 10.551 10.312 14.879 16.297z"/>
  <path d="m469.21 431.57c-0.15625 21.727-6.457 42.508-18.5 60.379-9.918-5.4336-20.547-12.91-31.566-22.438 21.254-11.887 38.023-24.637 50.066-37.941z"/>
  <path d="m549.75 491.55c-4.6445-12.438-19.445-21.02-34.324-19.996-15.191 1.0234-26.527 11.73-30.309 28.574-1.8906 8.5-3.0703 16.297-3.543 23.301-12.668 0.55469-25.422-0.078126-35.969-1.1016-4.4883 4.3281-9.3672 8.2656-14.562 11.887-0.94531 0.62891-1.8086 1.2578-2.7539 1.8906 8.1094 1.2617 30.148 4.25 53.609 3.0703 1.3398 11.18 5.3516 19.367 12.043 24.641 5.5117 4.25 12.121 5.9844 18.812 5.9844 8.0312 0 16.297-2.5195 22.984-5.8242l-7.0859-14.09c-6.0625 3.0703-18.184 6.7695-24.953 1.4961-2.2852-1.8164-5.1172-5.5938-6.2188-13.547 14.879-2.0469 29.047-6.2188 39.438-14.012 17.555-13.145 14.801-27 12.832-32.273zm-22.277 19.68c-7.4805 5.5898-18.184 8.8945-29.992 10.707 0.47266-5.2734 1.4961-11.336 3.0703-18.422 2.2031-10.074 7.7148-15.664 15.98-16.297h1.2617c7.4766 0 15.191 4.25 17.238 9.7617 2.043 5.5898-2.9922 10.863-7.5586 14.25z"/>
  <path d="m440.95 504.54c-4.6445 5.2734-9.8398 9.9961-15.43 14.168-13.617-6.2188-28.262-16.531-43.691-30.859 7.8711-3.3867 15.43-6.8477 22.438-10.469 12.754 11.496 25.035 20.547 36.684 27.16z"/>
  <path d="m343.03 407.79c-7.0078 3.543-14.25 6.9258-21.805 10.074-20.387-28.102-34.559-52.27-41.012-63.762 5.3516-5.7461 11.492-10.785 18.262-15.191 10.074 18.102 25.82 43.371 44.555 68.879z"/>
  <path d="m410.25 528.55c-7.793 4.0938-16.059 7.2422-24.719 9.3672-13.777-7.793-28.574-19.445-43.926-34.715 8.4219-2.832 16.531-5.7461 24.246-8.7383 15.352 14.801 30.23 26.293 44.398 34.086z"/>
  <path d="m306.27 424.09c-7.3711 2.9336-15.242 5.7422-22.906 8.4219-11.57-16.531-20.781-31.172-27-41.566 3.3047-8.6602 7.7148-16.688 12.988-24.09 10.387 18.109 23.535 38.5 36.918 57.234z"/>
  <path d="m267.77 437.55c-1.418 0.47266-2.7539 0.94531-4.1719 1.3398-4.7227 1.4961-9.5234 2.9141-14.172 4.25-0.39453-4.0156-0.62891-8.1094-0.62891-12.203 0-6.5352 0.55078-12.988 1.7305-19.367 4.8828 7.7188 10.629 16.535 17.242 25.98z"/>
  <path d="m378.61 386.77c-6.457 4.5664-13.617 9.0508-21.492 13.461-4.0938-5.5117-8.1094-11.02-11.887-16.453 9.2891-1.3359 20.625-1.1016 33.379 2.9922z"/>
  <path d="m402.3 366.23c-2.8359 3.0703-5.9844 6.2188-9.4492 9.1328-22.75-9.918-42.824-9.1328-57.23-5.8242-2.7539-4.1719-5.4336-8.2656-7.8711-12.203 19.129-3.8594 45.109-4.1719 74.551 8.8945z"/>
  <path d="m366.88 257.75c0 14.641-9.9961 27-23.617 30.465-2.5195 0.70703-5.1172 1.0234-7.8711 1.0234s-5.3516-0.31641-7.8711-1.0234c-13.617-3.4648-23.617-15.824-23.617-30.465 0-17.32 14.09-31.488 31.488-31.488s31.488 14.172 31.488 31.488z"/>
  <path d="m469.21 257.75c0 17.398-14.09 31.488-31.488 31.488-4.4883 0-8.7383-0.94531-12.594-2.5977-4.9609-2.2031-9.2109-5.5117-12.438-9.7617-4.0156-5.2734-6.4531-11.887-6.4531-19.129 0-17.32 14.09-31.488 31.488-31.488 17.395 0 31.484 14.172 31.484 31.488z"/>
  <path d="m419.23 338.68c-1.5742 4.9609-3.9375 9.8398-7.0859 14.719-25.664-12.121-49.199-15.113-68.879-13.934v-17.555c5.1953-0.78516 10.469-1.1797 15.742-1.1797 21.652 0 42.355 6.2188 60.223 17.949z"/>
  <path d="m327.52 325.37v15.98c-2.9141 0.55078-5.7461 1.1797-8.4219 1.8086-2.5977-4.25-4.8789-8.2656-6.9258-11.965 4.957-2.3594 10.074-4.3281 15.348-5.8242z"/>
  <path d="m343.26 288.21v17.789c-5.3516 0.62891-10.547 1.6523-15.742 2.9922v-20.781c2.5195 0.70703 5.1172 1.0234 7.8711 1.0234s5.3555-0.3125 7.8711-1.0234z"/>
  <path d="m343.26 321.91v17.555c-5.5898 0.31641-10.863 1.0234-15.742 1.8906v-15.98c5.1172-1.5742 10.391-2.7539 15.742-3.4648z"/>
  <path d="m361.61 541.07c-0.86719 0.078125-1.7305 0.078125-2.5977 0.078125-5.3516 0-10.629-0.39453-15.742-1.1016v-13.777c6.2148 5.5898 12.355 10.547 18.34 14.801z"/>
  <path d="m327.52 511.31v25.27c-12.988-3.7773-25.113-10.074-35.898-18.5 9.5234-2.4414 20.859-5.5898 33.297-9.3672 0.78906 0.86719 1.6562 1.7305 2.6016 2.5977z"/>
  <path d="m343.26 526.27v47.469h-15.742v-62.426c5.2734 5.4336 10.469 10.469 15.742 14.957z"/>
  <path d="m425.13 286.64-19.836 27.16c-5.1172-2.0469-10.391-3.7773-15.824-5.0391l23.223-31.883c3.2266 4.25 7.4766 7.5586 12.438 9.7617z"/>
 </g>
</svg>