<?xml version="1.0" encoding="UTF-8"?>
<!-- The Best Svg Icon site in the world: iconSvg.co, Visit us! https://iconsvg.co -->
<svg fill="#000000" width="800px" height="800px" version="1.1" viewBox="144 144 512 512" xmlns="http://www.w3.org/2000/svg">
 <path d="m632.9 338.38c-5.9141-5.8867-13.914-9.2031-22.262-9.2266h-4.0625c-8.3438 0.023437-16.344 3.3398-22.262 9.2266l-34.746 34.789-27.402-27.434c-19.898-19.977-46.742-31.5-74.934-32.168v-55.262h15.746c16.695-0.015625 32.703-6.6602 44.508-18.465 11.809-11.805 18.449-27.812 18.465-44.512 0-2.0859-0.82812-4.0898-2.3047-5.5664-1.4766-1.4727-3.4766-2.3047-5.5664-2.3047h-23.617c-11.254 0.007813-22.305 3.0312-31.996 8.7578-9.6914 5.7266-17.668 13.945-23.105 23.801-5.4375-9.8555-13.418-18.074-23.109-23.801-9.6914-5.7266-20.738-8.75-31.996-8.7578h-23.617c-4.3477 0-7.8711 3.5234-7.8711 7.8711 0.019531 16.699 6.6602 32.707 18.465 44.512 11.809 11.805 27.816 18.449 44.512 18.465h15.742v55.262h0.003906c-28.176 0.65625-55.012 12.16-74.91 32.117l-30.699 30.699h-0.22656l-0.003906 0.003906c-25.07-0.070312-49.125 9.8906-66.805 27.668l-39.902 39.922-2.3047-2.3047v-0.003907c-3.0742-3.0703-8.0586-3.0703-11.133 0l-47.23 47.23v0.003907c-3.0742 3.0742-3.0742 8.0547 0 11.129l110.21 110.21v0.003906c3.0742 3.0703 8.0586 3.0703 11.133 0l47.23-47.23v-0.003906c3.0742-3.0742 3.0742-8.0547 0-11.129l-2.3047-2.3086 9.7852-9.7852h-0.003907c8.8398-8.8867 20.867-13.867 33.402-13.832h97.297c25.98-0.042969 50.805-10.746 68.668-29.605l101.74-107.73c5.5391-5.8398 8.6172-13.582 8.6055-21.625v-4.4414c0.023438-8.3555-3.3008-16.375-9.2266-22.27zm-138.44-135.18h15.094c-1.875 11-7.5781 20.98-16.102 28.184-8.5234 7.2031-19.32 11.16-30.477 11.176h-15.094c1.875-11 7.5781-20.984 16.102-28.188s19.32-11.16 30.477-11.172zm-78.719 39.359c-11.16-0.015625-21.953-3.9727-30.477-11.176-8.5234-7.2031-14.227-17.184-16.102-28.184h15.09c11.16 0.011719 21.953 3.9688 30.477 11.172 8.5234 7.2031 14.227 17.188 16.102 28.188zm-48.02 114.27c17.676-17.773 41.727-27.742 66.793-27.68h9.668c25.078-0.054688 49.133 9.9219 66.809 27.711l27.402 27.434-23.617 23.617h0.003906c-3.0586-7.0234-8.0977-13.004-14.504-17.207s-13.898-6.4414-21.559-6.4492h-71.086c-9.6484-0.003906-19.258-1.1836-28.621-3.5195l-1.4258-0.36328v0.003906c-9.6641-2.4023-19.562-3.7227-29.52-3.9375zm-93.676 236.71-99.078-99.078 36.102-36.098 99.078 99.074zm354.24-226.55c0 4.0195-1.5391 7.8906-4.3008 10.816l-101.75 107.73c-14.895 15.711-35.578 24.629-57.23 24.672h-97.289c-16.707-0.042969-32.742 6.5977-44.523 18.445l-9.793 9.7852-83.332-83.336 39.918-39.918c14.73-14.812 34.777-23.117 55.672-23.059h19.465c9.6484 0.003906 19.262 1.1875 28.625 3.5195l1.4258 0.36328c10.613 2.6484 21.516 3.9883 32.453 3.9922h71.086c8.4375 0 16.234 4.5 20.453 11.805 4.2188 7.3086 4.2188 16.312 0 23.617-4.2188 7.3086-12.016 11.809-20.453 11.809h-86.594v15.742l86.594 0.003906c9.7812-0.03125 19.199-3.7109 26.41-10.32 7.2109-6.6094 11.699-15.672 12.578-25.414l77.734-77.734h0.003906c2.957-2.9453 6.957-4.6016 11.129-4.6133h4.0625c4.1758 0.011719 8.1758 1.668 11.133 4.6133l1.9062 1.9062c2.9609 2.9453 4.6211 6.957 4.6133 11.137z"/>
</svg>