<?xml version="1.0" encoding="UTF-8"?>
<!-- The Best Svg Icon site in the world: iconSvg.co, Visit us! https://iconsvg.co -->
<svg fill="#000000" width="800px" height="800px" version="1.1" viewBox="144 144 512 512" xmlns="http://www.w3.org/2000/svg">
 <path d="m400.03 485.05c-0.78516 0-1.5547 0.38281-2.293 1.1445l-0.21484 0.22266-0.34766 0.64844-0.1875 0.41406c-0.09375 0.24219-0.1875 0.51562-0.25 0.78516l-3.0117 16-0.019531 88.438h12.594v-87.941l-3.1094-16.605c-0.19141-0.49609-0.23438-0.67578-0.28906-0.85547l-0.070313-0.25-0.25-0.39063-0.32031-0.41406c-0.36719-0.40234-1.1016-1.1953-2.2305-1.1953zm0.011718-7.2812c1.4102 0.003906 2.7734 0.26172 4.043 0.76953 1.3125 0.51953 2.4609 1.2773 3.418 2.2539 0.42969 0.39062 0.77344 0.79297 1.043 1.2188 0.6875 0.91406 1.1641 1.8125 1.4766 2.7383 0.32812 0.78516 0.46484 1.4258 0.56641 1.8789l9.9297 52.621h23.871v-91.746c0-6.0703 1.1406-12.07 3.3867-17.832l0.66797-1.7188h-96.934l0.66797 1.7188c2.25 5.7656 3.3867 11.766 3.3867 17.832v91.742h23.871l9.8984-52.492c0.16406-0.75 0.37109-1.3828 0.58203-1.9492 0.18359-0.65625 0.63281-1.6641 1.4336-2.7227 0.33594-0.51953 0.6875-0.93359 1.0742-1.2734 1.9766-1.957 4.7188-3.0469 7.582-3.0469zm-105.73-79.336h12.441c16.141 0 31.23 8.043 40.367 21.516l0.42969 0.62891 0.75391-0.082031 7.6211-0.097656v-54.059h-61.613zm149.78 21.965h7.207l0.75391 0.085937 0.79297-0.53516c9.1328-13.473 24.223-21.516 40.367-21.516h12.488v-32.094h-61.609zm-18.438 0h10.883v-54.059h-10.883zm-43.781 0h36.223v-54.059h-3.1133l-0.30078 0.18359c-0.40234 0.24219-0.8125 0.4375-1.2188 0.63281l-1.4023 0.71484c-0.38281 0.21094-0.76562 0.41406-1.1602 0.58594-1.6367 0.70703-3.1328 1.2188-4.5781 1.5586-2.2617 0.51562-4.25 0.76172-6.2578 0.76172-1 0-2.0234-0.0625-3.0859-0.18359-0.33594-0.035156-2.0703-0.31641-2.0703-0.31641-0.36328-0.050781-0.72656-0.10156-1.1211-0.18359-1.5234-0.36328-3.1055-0.89453-4.8008-1.625-0.32812-0.14062-0.64062-0.31641-0.95703-0.48438l-1.4062-0.71484c-0.48828-0.23438-0.97656-0.46484-1.4453-0.75l-0.30078-0.18359h-3zm-18.391 0h10.832v-54.059h-10.832zm155.88-62.836c-3.3438 0-6.082 2.7461-6.1016 6.1211l-0.003906 47.938h10.773l0.22266-0.98047c4.1484-18.156 4.4844-33.055 1.0898-48.305-0.61719-2.7656-3.1289-4.7734-5.9805-4.7734zm-238.73 0c-2.8281 0-5.332 2.0117-5.9492 4.7891-3.4102 15.254-3.0859 30.148 1.0547 48.293l0.22266 0.98047h10.789l-0.042969-48.41c-0.42969-3.3477-2.9805-5.6523-6.0742-5.6523zm90.168-51.125c-0.14844 3.1875-0.13281 6.5625-0.11719 10.07l0.011719 3.4375c0 16.941 6.8203 32.438 17.379 39.473 1.0195 0.67969 2.0195 1.2109 3.0234 1.6992 1.5586 0.75391 2.9609 1.2695 4.2812 1.582 1.332 0.30469 2.7891 0.46484 4.3359 0.48047 0.10938 0.003906 0.21484 0.003906 0.32031 0.003906 1.7109 0 3.1523-0.18359 4.5234-0.52344 1.1562-0.27734 2.3008-0.67969 3.4336-1.168 1.332-0.58984 2.5938-1.2812 3.7578-2.0625 10.652-7.0977 17.477-22.582 17.477-39.488 0-1.6172 0.015625-3.2109 0.035156-4.7891 0.035156-3.0273 0.066406-5.9453-0.035156-8.707l-0.039062-1.2109h-58.332zm-24.246-8.7617h106.86l-14.078-19.816h-78.703zm26.547-27.625h53.762v-12.98h-14.82l-0.26953 0.13672c-0.61719 0.31641-1.1523 0.46094-1.6914 0.46094h-20.152c-0.53516 0-1.0742-0.14453-1.6875-0.46094l-0.26953-0.13672h-14.871zm20.609-20.539h12.594v-42.223h-12.594z"/>
</svg>