<?xml version="1.0" encoding="UTF-8"?>
<!-- The Best Svg Icon site in the world: iconSvg.co, Visit us! https://iconsvg.co -->
<svg fill="#000000" width="800px" height="800px" version="1.1" viewBox="144 144 512 512" xmlns="http://www.w3.org/2000/svg">
 <g>
  <path d="m557.44 462.98c-8.3516 0-16.359 3.3164-22.266 9.2227-5.9023 5.9023-9.2227 13.914-9.2227 22.262 0 8.3516 3.3203 16.363 9.2227 22.266 5.9062 5.9062 13.914 9.2227 22.266 9.2227s16.363-3.3164 22.266-9.2227c5.9062-5.9023 9.2227-13.914 9.2227-22.266 0-8.3477-3.3164-16.359-9.2227-22.262-5.9023-5.9062-13.914-9.2227-22.266-9.2227zm0 47.23c-4.1758 0-8.1797-1.6602-11.133-4.6133-2.9492-2.9492-4.6094-6.957-4.6094-11.133 0-4.1719 1.6602-8.1797 4.6094-11.133 2.9531-2.9492 6.957-4.6094 11.133-4.6094s8.1797 1.6602 11.133 4.6094c2.9531 2.9531 4.6133 6.9609 4.6133 11.133 0 4.1758-1.6602 8.1836-4.6133 11.133-2.9531 2.9531-6.957 4.6133-11.133 4.6133z"/>
  <path d="m636.16 502.34v-15.746h-16.289c-1.4023-11.195-5.8047-21.801-12.742-30.699l11.02-11.02-11.133-11.133-11.02 11.02c-8.8945-6.9297-19.496-11.328-30.684-12.727v-16.289h-15.746v16.289c-11.195 1.4023-21.801 5.8047-30.699 12.742l-11.02-11.02-11.133 11.133 11.02 11.02c-6.9297 8.8945-11.328 19.496-12.727 30.684h-16.289v15.742h16.289v0.003907c1.4023 11.195 5.8047 21.801 12.742 30.699l-11.02 11.02 11.133 11.133 11.02-11.02c8.8945 6.9297 19.496 11.328 30.684 12.727v16.289h-307.01v-16.531c4.9258-1.0156 9.6133-2.9727 13.801-5.7617l12.121 12.121 11.133-11.133-12.121-12.121h-0.003907c2.793-4.1875 4.7539-8.875 5.7695-13.809h16.531v-15.742h-16.531c-1.0156-4.9297-2.9688-9.6133-5.7617-13.801l12.121-12.121-11.133-11.133-12.121 12.121 0.003907 0.003906c-4.1914-2.7969-8.8789-4.7539-13.809-5.7695v-16.531h-15.746v16.531c-4.9258 1.0117-9.6133 2.9688-13.797 5.7617l-12.121-12.121-11.133 11.137 12.121 12.121c-2.793 4.1875-4.7539 8.8711-5.7695 13.801h-16.531v15.742h16.531c1.0156 4.9297 2.9727 9.6133 5.7617 13.801l-12.121 12.121 11.133 11.133 12.121-12.121c4.1875 2.793 8.875 4.7539 13.805 5.7695v16.531h-62.977v15.742h472.32v-15.742h-70.848v-16.289c11.195-1.4023 21.801-5.8047 30.699-12.742l11.02 11.02 11.133-11.133-11.02-11.02c6.9297-8.8945 11.324-19.496 12.727-30.684zm-425.09 15.742c0-6.2617 2.4883-12.27 6.918-16.699 4.4258-4.4297 10.434-6.918 16.699-6.918 6.2617 0 12.27 2.4883 16.699 6.918 4.4258 4.4297 6.9141 10.438 6.9141 16.699 0 6.2656-2.4883 12.27-6.9141 16.699-4.4297 4.4297-10.438 6.918-16.699 6.918-6.2656 0-12.273-2.4883-16.699-6.918-4.4297-4.4297-6.918-10.434-6.918-16.699zm346.37 23.617c-12.523 0-24.539-4.9766-33.398-13.836-8.8555-8.8555-13.832-20.871-13.832-33.398 0-12.523 4.9766-24.539 13.832-33.395 8.8594-8.8594 20.875-13.836 33.398-13.836 12.527 0 24.543 4.9766 33.398 13.836 8.8594 8.8555 13.836 20.871 13.836 33.395-0.015625 12.523-4.9961 24.531-13.852 33.383-8.8555 8.8555-20.859 13.836-33.383 13.852z"/>
  <path d="m305.54 518.08v7.8711h157.44v-31.488c0.027344-25.043 9.9883-49.055 27.699-66.762 17.707-17.711 41.719-27.672 66.762-27.699h23.617v-15.746h-15.742v-127.4c7.0547-2.4883 12.508-8.1719 14.699-15.324 2.1914-7.1523 0.85547-14.918-3.5977-20.93-4.4531-6.0078-11.496-9.5469-18.977-9.5312h-244.03c-8.4375 0-16.234 4.5-20.453 11.809-4.2188 7.3047-4.2188 16.309 0 23.613 4.2188 7.3086 12.016 11.809 20.453 11.809h7.8711v94.465h-47.23v-47.23h-15.746v-34.746l-25.922-25.922-11.129 11.129 21.309 21.309v28.23h-15.746v47.23h-23.613c-10.438 0.011719-20.441 4.1641-27.82 11.543s-11.527 17.383-11.543 27.816v55.105h70.852c18.781 0.019531 36.789 7.4922 50.074 20.773 13.281 13.281 20.75 31.293 20.773 50.074zm7.8711-275.52c-4.3477 0-7.8711-3.5234-7.8711-7.8711s3.5234-7.875 7.8711-7.875h244.03c4.3477 0 7.875 3.5273 7.875 7.875s-3.5273 7.8711-7.875 7.8711zm204.67 47.23v68.676c-23.992 6.8945-45.727 20.039-62.977 38.086v-106.76zm-78.391 125.95c-8.0703 12.105-14.227 25.379-18.254 39.359h-84.41v-165.31h102.34v125.95zm-197.13-94.465h15.742v31.488h-15.742zm-62.977 70.848c0-6.2617 2.4883-12.27 6.918-16.699 4.4258-4.4258 10.434-6.9141 16.699-6.9141h118.08v102.34h112.41l1.457-6.0234c5.375-22.496 16.879-43.062 33.234-59.418 16.352-16.355 36.922-27.859 59.418-33.234l6.0234-1.457v-96.668h-196.8v-15.746h212.54v126.23c-0.59766 0.039062-1.1719 0.15625-1.7617 0.21094-1.668 0.14062-3.3125 0.37109-4.9609 0.58984-1.9375 0.26172-3.8711 0.52734-5.7773 0.88281-1.6445 0.30859-3.2578 0.68359-4.8711 1.0625-1.8594 0.43359-3.6992 0.89062-5.5117 1.418-1.5742 0.46484-3.1484 0.98438-4.7227 1.5195-1.7695 0.60547-3.5195 1.2344-5.2422 1.9219-1.5742 0.61328-3.0547 1.2734-4.5664 1.9609-1.6758 0.78906-3.3281 1.5742-4.9688 2.3633-1.4688 0.75391-2.918 1.543-4.3438 2.3633-1.5742 0.90625-3.1484 1.8594-4.668 2.8438-1.3867 0.89062-2.7539 1.8008-4.1016 2.7461-1.4805 1.0469-2.9297 2.1406-4.3516 3.2578-1.3008 1.0156-2.582 2.0391-3.8242 3.1094-1.3789 1.1797-2.707 2.4102-4.0234 3.6602-1.1875 1.125-2.3633 2.25-3.5195 3.4336-1.2656 1.3086-2.4727 2.668-3.6758 4.0469-1.0781 1.2266-2.1484 2.4414-3.1484 3.7148-1.1484 1.4336-2.2266 2.9297-3.3047 4.4258-0.94531 1.3086-1.9062 2.6055-2.793 3.9375-1.0312 1.5742-1.9688 3.1484-2.9219 4.8008-0.78906 1.3789-1.6445 2.7305-2.3633 4.1484-0.89844 1.6914-1.6914 3.4492-2.5039 5.1875-0.66016 1.4258-1.3633 2.8164-1.9609 4.2734-0.78906 1.8359-1.3945 3.7305-2.0625 5.6133-0.50391 1.4414-1.0625 2.8516-1.5117 4.3125-0.61328 2.0156-1.0859 4.0781-1.5742 6.1406-0.33984 1.4023-0.78906 2.7773-1.0391 4.2031-0.46484 2.3203-0.78906 4.7227-1.0781 7.0859-0.16406 1.2188-0.41016 2.4102-0.53516 3.6367-0.36328 3.6211-0.55859 7.2969-0.55859 11.02v15.742l-126.39-0.003906c-2.0039-21.496-11.949-41.473-27.898-56.023-15.949-14.547-36.754-22.625-58.34-22.648h-55.105z"/>
 </g>
</svg>