<?xml version="1.0" encoding="UTF-8"?>
<!-- The Best Svg Icon site in the world: iconSvg.co, Visit us! https://iconsvg.co -->
<svg fill="#000000" width="800px" height="800px" version="1.1" viewBox="144 144 512 512" xmlns="http://www.w3.org/2000/svg">
 <g>
  <path d="m163.84 620.41h15.742v15.742h-15.742z"/>
  <path d="m636.16 620.41h-52.059l-157.57-143.87c-7.2305-6.6641-16.703-10.363-26.535-10.363-9.8359 0-19.309 3.6992-26.539 10.363l-157.57 143.87h-20.57v15.742l440.84 0.003906zm-252.09-132.25c4.3398-4 10.023-6.2188 15.926-6.2188 5.8984 0 11.586 2.2188 15.922 6.2188l144.84 132.25h-321.53z"/>
  <path d="m352.77 573.18h15.742v15.742h-15.742z"/>
  <path d="m289.79 588.93h15.742v15.742h-15.742z"/>
  <path d="m384.25 510.21h15.742v15.742h-15.742z"/>
  <path d="m407.87 557.44h15.742v15.742h-15.742z"/>
  <path d="m470.85 581.05h15.742v15.742h-15.742z"/>
  <path d="m384.25 400h7.8711v47.23h15.742l0.003906-31.488h7.8711c10.434-0.011719 20.441-4.1641 27.82-11.543 7.375-7.3789 11.527-17.383 11.539-27.816v-15.746c0-2.0859-0.82812-4.0898-2.3047-5.5664-1.4766-1.4727-3.4766-2.3047-5.5664-2.3047h-0.20312c5.207-6.7734 8.0469-15.07 8.0742-23.617v-15.742c0-2.0859-0.82812-4.0898-2.3047-5.5664-1.4766-1.4766-3.4766-2.3047-5.5664-2.3047h-0.20312c5.207-6.7734 8.0469-15.07 8.0742-23.617v-15.742c0-2.0898-0.82812-4.0898-2.3047-5.5664s-3.4766-2.3086-5.5664-2.3086h-7.8711v-39.359h-15.746v40.148c-5.7266 1.2148-11.109 3.7031-15.742 7.2812v-63.172h-15.746v47.438-0.003907c-4.6328-3.5781-10.016-6.0664-15.742-7.2812v-24.41h-15.746v23.617h-7.8711c-4.3477 0-7.8711 3.5234-7.8711 7.8711v15.746c0.027344 8.543 2.8672 16.84 8.0781 23.613h-0.20703c-4.3477 0-7.8711 3.5273-7.8711 7.875v15.742c0.027344 8.543 2.8672 16.844 8.0781 23.617h-0.20703c-4.3477 0-7.8711 3.5234-7.8711 7.8711v15.742c0.011719 10.438 4.1641 20.441 11.543 27.82 7.3789 7.3789 17.383 11.527 27.816 11.543zm-23.617-39.359v-7.875h7.875c6.2617 0 12.27 2.4883 16.699 6.918 4.4258 4.4297 6.9141 10.434 6.9141 16.699v7.8711h-7.8711c-6.2617 0-12.27-2.4883-16.699-6.918-4.4297-4.4258-6.918-10.434-6.918-16.699zm47.23-7.8711 0.003906-7.875c0-6.2617 2.4883-12.27 6.918-16.699 4.4258-4.4297 10.434-6.918 16.699-6.918h7.8711v7.8711c0 6.2656-2.4883 12.273-6.918 16.699-4.4297 4.4297-10.434 6.918-16.699 6.918zm-47.23-47.23h7.8711l0.003907-0.003906c6.2617 0 12.27 2.4883 16.699 6.918 4.4258 4.4258 6.9141 10.434 6.9141 16.695v7.8711l-7.8711 0.003907c-6.2617 0-12.27-2.4883-16.699-6.918-4.4297-4.4297-6.918-10.438-6.918-16.699zm78.719 70.848 0.003906-0.003907c0 6.2617-2.4883 12.27-6.918 16.699-4.4297 4.4297-10.434 6.918-16.699 6.918h-7.8711v-7.875c0-6.2617 2.4883-12.27 6.918-16.699 4.4258-4.4258 10.434-6.9141 16.699-6.9141h7.8711zm-7.8672-102.34h7.8711v7.8711c0 6.2617-2.4883 12.27-6.918 16.699-4.4297 4.4297-10.434 6.918-16.699 6.918h-7.8711v-7.8711c0-6.2656 2.4883-12.273 6.918-16.699 4.4258-4.4297 10.434-6.918 16.699-6.918zm-70.848-15.742h7.8711v-0.003907c6.2617 0 12.27 2.4883 16.699 6.918 4.4258 4.4297 6.9141 10.438 6.9141 16.699v7.8711h-7.8711c-6.2617 0-12.27-2.4883-16.699-6.9141-4.4297-4.4297-6.918-10.438-6.918-16.699z"/>
  <path d="m250.43 478.72h7.8711v70.848h15.742l0.003906-55.105h7.8711c10.434-0.011719 20.438-4.1602 27.816-11.539s11.531-17.383 11.543-27.82v-15.742c0-2.0898-0.82812-4.0898-2.3047-5.5664-1.4766-1.4766-3.4805-2.3047-5.5664-2.3047h-0.20312c5.207-6.7734 8.0469-15.074 8.0742-23.617v-15.746c0-2.0859-0.82812-4.0898-2.3047-5.5664-1.4766-1.4766-3.4805-2.3047-5.5664-2.3047h-0.20312c5.207-6.7734 8.0469-15.07 8.0742-23.617v-15.742c0-2.0898-0.82812-4.0898-2.3047-5.5664-1.4766-1.4766-3.4805-2.3047-5.5664-2.3047h-0.20312c5.207-6.7734 8.0469-15.074 8.0742-23.617v-15.742c0-2.0898-0.82812-4.0938-2.3047-5.5664-1.4766-1.4766-3.4805-2.3086-5.5664-2.3086h-7.8711v-39.359h-15.746v40.148c-5.7266 1.2148-11.109 3.7031-15.742 7.2812v-63.172h-15.746v47.438-0.003906c-4.6328-3.5781-10.016-6.0664-15.742-7.2812v-24.41h-15.746v23.617h-7.8711c-4.3477 0-7.8711 3.5234-7.8711 7.8711v15.746c0.027344 8.543 2.8672 16.84 8.0781 23.613h-0.20703c-4.3477 0-7.8711 3.5234-7.8711 7.8711v15.746c0.027344 8.543 2.8672 16.844 8.0781 23.617h-0.20703c-4.3477 0-7.8711 3.5234-7.8711 7.8711v15.742c0.027344 8.5469 2.8672 16.844 8.0781 23.617h-0.20703c-4.3477 0-7.8711 3.5234-7.8711 7.8711v15.746c0.011719 10.434 4.1641 20.438 11.543 27.816 7.3789 7.3789 17.383 11.531 27.816 11.543zm-23.617-39.359v-7.8711h7.875c6.2617 0 12.27 2.4883 16.699 6.9141 4.4258 4.4297 6.9141 10.438 6.9141 16.699v7.8711l-7.8711 0.003906c-6.2617 0-12.27-2.4883-16.699-6.918-4.4297-4.4297-6.918-10.438-6.918-16.699zm47.23-7.8711 0.003906-7.875c0-6.2617 2.4883-12.27 6.918-16.699 4.4258-4.4258 10.434-6.9141 16.699-6.9141h7.8711v7.8711c0 6.2617-2.4883 12.27-6.918 16.699-4.4297 4.4297-10.438 6.918-16.699 6.918zm0-47.23 0.003906-7.875c0-6.2656 2.4883-12.27 6.918-16.699 4.4258-4.4297 10.434-6.918 16.699-6.918h7.8711v7.8711c0 6.2656-2.4883 12.273-6.918 16.699-4.4297 4.4297-10.438 6.918-16.699 6.918zm-47.23-47.23h7.8711l0.003906-0.003906c6.2617 0 12.27 2.4883 16.699 6.9141 4.4258 4.4297 6.9141 10.438 6.9141 16.699v7.8711l-7.8711 0.003907c-6.2617 0-12.27-2.4883-16.699-6.918-4.4297-4.4297-6.918-10.438-6.918-16.699zm0 47.23h7.8711l0.003906-0.003906c6.2617 0 12.27 2.4883 16.699 6.918 4.4258 4.4297 6.9141 10.434 6.9141 16.699v7.8711h-7.8711c-6.2617 0-12.27-2.4883-16.699-6.918-4.4297-4.4258-6.918-10.434-6.918-16.699zm78.719 70.848 0.003906-0.003907c0 6.2656-2.4883 12.27-6.918 16.699-4.4297 4.4297-10.438 6.918-16.699 6.918h-7.8711v-7.8711c0-6.2656 2.4883-12.27 6.918-16.699 4.4258-4.4297 10.434-6.918 16.699-6.918h7.8711zm-7.8672-149.57h7.8711v7.8711c0 6.2617-2.4883 12.27-6.918 16.699-4.4297 4.4297-10.438 6.918-16.699 6.918h-7.8711v-7.875c0-6.2617 2.4883-12.27 6.918-16.695 4.4258-4.4297 10.434-6.918 16.699-6.918zm-70.848-15.742h7.8711v-0.003907c6.2617 0 12.27 2.4883 16.699 6.918 4.4258 4.4297 6.9141 10.438 6.9141 16.699v7.8711h-7.8711c-6.2617 0-12.27-2.4883-16.699-6.918-4.4297-4.4258-6.918-10.434-6.918-16.695z"/>
  <path d="m518.08 478.72h7.8711v70.848h15.742l0.003906-55.105h7.8711c10.438-0.011719 20.441-4.1602 27.82-11.539 7.3789-7.3789 11.527-17.383 11.539-27.82v-15.742c0-2.0898-0.82812-4.0898-2.3047-5.5664-1.4766-1.4766-3.4766-2.3047-5.5664-2.3047h-0.20313c5.207-6.7734 8.0469-15.074 8.0742-23.617v-15.746c0-2.0859-0.82812-4.0898-2.3047-5.5664-1.4766-1.4766-3.4766-2.3047-5.5664-2.3047h-0.20313c5.207-6.7734 8.0469-15.07 8.0742-23.617v-15.742c0-2.0898-0.82812-4.0898-2.3047-5.5664-1.4766-1.4766-3.4766-2.3047-5.5664-2.3047h-0.20313c5.207-6.7734 8.0469-15.074 8.0742-23.617v-15.742c0-2.0898-0.82812-4.0938-2.3047-5.5664-1.4766-1.4766-3.4766-2.3086-5.5664-2.3086h-7.8711v-39.359h-15.746v40.148c-5.7266 1.2148-11.109 3.7031-15.742 7.2812v-63.172h-15.746v47.438-0.003906c-4.6328-3.5781-10.016-6.0664-15.742-7.2812v-24.41h-15.746v23.617h-7.8711c-4.3477 0-7.8711 3.5234-7.8711 7.8711v15.746c0.027344 8.543 2.8672 16.84 8.0781 23.613h-0.20703c-4.3477 0-7.8711 3.5234-7.8711 7.8711v15.746c0.027344 8.543 2.8672 16.844 8.0781 23.617h-0.20703c-4.3477 0-7.8711 3.5234-7.8711 7.8711v15.742c0.027344 8.5469 2.8672 16.844 8.0781 23.617h-0.20703c-4.3477 0-7.8711 3.5234-7.8711 7.8711v15.746c0.011719 10.434 4.1641 20.438 11.543 27.816 7.3789 7.3789 17.383 11.531 27.816 11.543zm-23.617-39.359v-7.8711h7.875c6.2617 0 12.27 2.4883 16.699 6.9141 4.4258 4.4297 6.9141 10.438 6.9141 16.699v7.8711l-7.8711 0.003906c-6.2617 0-12.27-2.4883-16.699-6.918-4.4297-4.4297-6.918-10.438-6.918-16.699zm47.23-7.8711 0.003906-7.875c0-6.2617 2.4883-12.27 6.918-16.699 4.4258-4.4258 10.434-6.9141 16.699-6.9141h7.8711v7.8711c0 6.2617-2.4883 12.27-6.918 16.699-4.4297 4.4297-10.434 6.918-16.699 6.918zm0-47.23 0.003906-7.875c0-6.2656 2.4883-12.27 6.918-16.699 4.4258-4.4297 10.434-6.918 16.699-6.918h7.8711v7.8711c0 6.2656-2.4883 12.273-6.918 16.699-4.4297 4.4297-10.434 6.918-16.699 6.918zm-47.23-47.23h7.8711l0.003907-0.003906c6.2617 0 12.27 2.4883 16.699 6.9141 4.4258 4.4297 6.9141 10.438 6.9141 16.699v7.8711l-7.8711 0.003907c-6.2617 0-12.27-2.4883-16.699-6.918-4.4297-4.4297-6.918-10.438-6.918-16.699zm0 47.23h7.8711l0.003907-0.003906c6.2617 0 12.27 2.4883 16.699 6.918 4.4258 4.4297 6.9141 10.434 6.9141 16.699v7.8711h-7.8711c-6.2617 0-12.27-2.4883-16.699-6.918-4.4297-4.4258-6.918-10.434-6.918-16.699zm78.719 70.848 0.003906-0.003907c0 6.2656-2.4883 12.27-6.918 16.699-4.4297 4.4297-10.434 6.918-16.699 6.918h-7.8711v-7.8711c0-6.2656 2.4883-12.27 6.918-16.699 4.4258-4.4297 10.434-6.918 16.699-6.918h7.8711zm-7.8672-149.57h7.8711v7.8711c0 6.2617-2.4883 12.27-6.918 16.699-4.4297 4.4297-10.434 6.918-16.699 6.918h-7.8711v-7.875c0-6.2617 2.4883-12.27 6.918-16.695 4.4258-4.4297 10.434-6.918 16.699-6.918zm-70.848-15.742h7.8711v-0.003907c6.2617 0 12.27 2.4883 16.699 6.918 4.4258 4.4297 6.9141 10.438 6.9141 16.699v7.8711h-7.8711c-6.2617 0-12.27-2.4883-16.699-6.918-4.4297-4.4258-6.918-10.434-6.918-16.695z"/>
 </g>
</svg>