<?xml version="1.0" encoding="UTF-8"?>
<!-- The Best Svg Icon site in the world: iconSvg.co, Visit us! https://iconsvg.co -->
<svg fill="#000000" width="800px" height="800px" version="1.1" viewBox="144 144 512 512" xmlns="http://www.w3.org/2000/svg">
 <g>
  <path d="m385.46 349.25 10.34-10.34c4.3242-4.3242 6.707-10.086 6.707-16.234 0-6.1445-2.3828-11.91-6.707-16.234-3.4062-3.4102-7.7266-5.5586-12.414-6.332 2.7422-3.8477 4.2656-8.4219 4.2656-13.262 0-6.1445-2.3828-11.906-6.707-16.234-3.7578-3.7578-8.5156-5.8438-13.422-6.4492 1.668-3.2227 2.6484-6.7773 2.6484-10.523 0-6.1445-2.3828-11.91-6.707-16.234-4.3164-4.3242-10.086-6.707-16.234-6.707-3.75 0-7.3008 0.98438-10.523 2.6562-0.59766-4.9062-2.6836-9.6641-6.4453-13.422-8.0156-8.0273-20.52-8.8008-29.477-2.4375-0.76172-4.5508-2.8477-8.9141-6.3477-12.414-8.957-8.9414-23.52-8.9375-32.465 0l-56.879 56.879c-8.9414 8.9492-8.9414 23.52 0 32.465 3.5 3.5078 7.8633 5.5859 12.414 6.3477-6.3594 8.957-5.582 21.457 2.4375 29.477 3.7578 3.7617 8.5156 5.8438 13.422 6.4453-1.6719 3.2227-2.6562 6.7812-2.6562 10.523 0 6.1445 2.3828 11.91 6.707 16.234 4.3164 4.3242 10.086 6.707 16.234 6.707 3.75 0 7.3047-0.98437 10.523-2.6562 0.59766 4.9062 2.6836 9.6641 6.4453 13.422 4.3242 4.3242 10.086 6.707 16.234 6.707 4.8398 0 9.418-1.5273 13.262-4.2656 0.77734 4.6836 2.9219 9.0039 6.332 12.414 4.3164 4.3242 10.086 6.707 16.234 6.707 6.1445 0 11.906-2.3828 16.234-6.707l10.34-10.34 208.29 208.29c4.8359 4.8359 11.262 7.4961 18.102 7.4961 6.8398 0 13.266-2.6602 18.102-7.4961 4.8359-4.8359 7.4961-11.262 7.4961-18.102 0-6.8398-2.6602-13.266-7.4961-18.102zm-173.23-80.148 56.879-56.879c5.0117-5.0117 13.195-5.0234 18.219 0 5.0234 5.0234 5.0234 13.191 0 18.211l-56.883 56.883c-5.0195 5.0195-13.184 5.0195-18.211 0-5.0273-5.0234-5.0273-13.195-0.003906-18.215zm14.852 35.824 77.855-77.855c2.5078-2.5078 5.8086-3.7617 9.1094-3.7617 3.3008 0 6.6016 1.2539 9.1094 3.7617 5.0234 5.0234 5.0234 13.191 0 18.211l-77.859 77.855c-5.0195 5.0195-13.195 5.0195-18.211 0-5.0234-5.0195-5.0234-13.188-0.003906-18.211zm17.48 51.414c-2.418-2.418-3.7539-5.6523-3.7539-9.1094s1.3359-6.6875 3.7539-9.1094l93.582-93.582c2.418-2.418 5.6523-3.7539 9.1094-3.7539 3.457 0 6.6875 1.3359 9.1094 3.7539s3.7539 5.6523 3.7539 9.1094c0 3.457-1.3359 6.6875-3.7539 9.1094l-7.8633 7.8633-77.867 77.855-7.8633 7.8633c-4.8359 4.8398-13.371 4.8398-18.207 0zm33.195 17.477c-5.0234-5.0234-5.0234-13.191 0-18.211l77.855-77.855c2.5078-2.5078 5.8086-3.7617 9.1094-3.7617 3.3008 0 6.6016 1.2539 9.1094 3.7617 2.418 2.418 3.7539 5.6523 3.7539 9.1094s-1.3359 6.6875-3.7539 9.1094l-77.855 77.848c-4.8438 4.8438-13.379 4.8438-18.219 0zm54.043 14.852c-4.8398 4.8398-13.371 4.8398-18.211 0-2.418-2.418-3.7539-5.6523-3.7539-9.1094s1.3359-6.6875 3.7539-9.1094l56.879-56.879c2.418-2.418 5.6523-3.7539 9.1094-3.7539 3.457 0 6.6875 1.3359 9.1094 3.7539 2.4219 2.418 3.7539 5.6523 3.7539 9.1094 0 3.457-1.3359 6.6875-3.7539 9.1094zm254.83 197.95c-5.8633 5.8633-16.086 5.8633-21.949 0l-208.3-208.29 21.949-21.949 208.29 208.29c2.9336 2.9336 4.543 6.8281 4.543 10.977 0.003906 4.1523-1.6016 8.0391-4.5352 10.973z"/>
  <path d="m249.77 385.73c-2.7852 0-5.0391 2.2539-5.0391 5.0391v83.438c0 2.7852 2.2539 5.0391 5.0391 5.0391 2.7852 0 5.0391-2.2539 5.0391-5.0391v-83.438c0-2.7891-2.2578-5.0391-5.0391-5.0391z"/>
  <path d="m322.91 427.44c-2.7852 0-5.0391 2.2539-5.0391 5.0391v83.438c0 2.7852 2.2539 5.0391 5.0391 5.0391s5.0391-2.2539 5.0391-5.0391v-83.438c0-2.7812-2.2539-5.0391-5.0391-5.0391z"/>
  <path d="m286.34 399.73c-2.7852 0-5.0391 2.2539-5.0391 5.0391v45.609c0 2.7852 2.2539 5.0391 5.0391 5.0391 2.7852 0 5.0391-2.2539 5.0391-5.0391v-45.609c-0.003906-2.7812-2.2539-5.0391-5.0391-5.0391z"/>
  <path d="m249.77 499.08c-2.7852 0-5.0391 2.2539-5.0391 5.0391v32.746c0 2.7852 2.2539 5.0391 5.0391 5.0391 2.7852 0 5.0391-2.2539 5.0391-5.0391v-32.746c0-2.7852-2.2578-5.0391-5.0391-5.0391z"/>
  <path d="m286.34 474.2c-2.7852 0-5.0391 2.2539-5.0391 5.0391v32.746c0 2.7852 2.2539 5.0391 5.0391 5.0391 2.7852 0 5.0391-2.2539 5.0391-5.0391v-32.746c-0.003906-2.7852-2.2539-5.0391-5.0391-5.0391z"/>
 </g>
</svg>