<?xml version="1.0" encoding="UTF-8"?>
<!-- The Best Svg Icon site in the world: iconSvg.co, Visit us! https://iconsvg.co -->
<svg fill="#000000" width="800px" height="800px" version="1.1" viewBox="144 144 512 512" xmlns="http://www.w3.org/2000/svg">
 <path d="m560.21 485.76c-44.289 39.062-101.16 60.742-160.21 60.742h-0.03125c-59.055 0-115.91-21.68-160.18-60.727l5.0547 102.65c1.0547 21.223 18.562 37.895 39.801 37.895h230.71c21.238 0 38.746-16.672 39.801-37.895l5.0547-102.67zm-357.47-277.87h-23.16c-8.6914 0-15.742 7.0391-15.742 15.742v75.664c0 63.449 24.859 124.29 69.086 169.15 44.305 44.934 104.38 70.172 167.04 70.172h0.03125c62.66 0 122.76-25.238 167.07-70.188 44.227-44.871 69.086-105.72 69.086-169.17v-75.633c0-8.707-7.0547-15.742-15.742-15.742h-23.16v-20.438c0-8.6914-7.0391-15.742-15.742-15.742h-363.03c-8.707 0-15.742 7.0547-15.742 15.742v20.438zm394.52 31.488h7.4141v59.891c0 55.152-21.586 108.07-60.031 147.07-38.352 38.918-90.387 60.805-144.64 60.805h-0.03125c-54.254 0-106.27-21.883-144.62-60.789-38.43-38.996-60.016-91.898-60.016-147.05v-59.922h7.4141v20.422 0.41016l0.015624 0.41016 0.0625 0.78906 0.046876 0.41016 0.046874 0.37891 0.0625 0.39453 0.078126 0.39453 0.078124 0.37891 0.09375 0.37891 0.21875 0.75781 0.10938 0.36328 0.125 0.36328 0.14062 0.36328 0.14063 0.34766 0.15625 0.36328 0.15625 0.34766 0.17187 0.33203 0.17188 0.34766 0.375 0.66406 0.40625 0.63281 0.4375 0.63281 0.23437 0.30078 0.23438 0.28516 0.23437 0.30078 0.25 0.28516 0.26953 0.26953 0.25 0.26953 0.28516 0.26953 0.26953 0.25 0.57031 0.5 0.60156 0.46875 0.36328 0.25 0.31641 0.21875 0.31641 0.20312 0.31641 0.1875 0.66406 0.375 0.66406 0.34375 0.34766 0.15625 0.34766 0.14063 0.36328 0.14062 0.34766 0.14063 0.36328 0.125 0.37891 0.125 0.36328 0.10937 0.75781 0.1875 0.78906 0.15625 0.78906 0.125 0.41016 0.03125 0.41016 0.046876 0.33203 0.015624 0.41016 0.015626h0.20312 0.20313 363.44l0.41016-0.015626 0.39453-0.03125 0.41016-0.03125 0.78906-0.09375 0.37891-0.0625 0.39453-0.078124 0.37891-0.078126 0.37891-0.09375 0.75781-0.21875 0.36328-0.10937 0.36328-0.125 0.72656-0.28125 0.69531-0.3125 0.34766-0.17188 0.33203-0.17187 0.33203-0.1875 0.33203-0.20313 0.31641-0.1875 0.33203-0.21875 0.30078-0.20312 0.31641-0.21875 0.60156-0.46875 0.57031-0.5 0.26953-0.25 0.28516-0.26953 0.25-0.26953 0.26953-0.26953 0.25-0.28516 0.23438-0.30078 0.23437-0.28516 0.23438-0.30078 0.4375-0.63281 0.40625-0.63281 0.375-0.66406 0.17187-0.34766 0.17188-0.33203 0.15625-0.34766 0.15625-0.36328 0.14062-0.34766 0.14063-0.36328 0.125-0.36328 0.10937-0.36328 0.21875-0.75781 0.09375-0.37891 0.078126-0.37891 0.078124-0.39453 0.0625-0.39453 0.046876-0.37891 0.046874-0.41016 0.0625-0.78906 0.015626-0.41016v-20.832zm-33.297 170.51c-7.2109 11.051-15.555 21.41-24.922 30.922-36.871 37.406-86.875 58.457-139.04 58.457h-0.03125c-52.145 0-102.15-21.035-139.02-58.441-9.3672-9.5078-17.695-19.867-24.906-30.906l-6.2344-126.5h340.39l-6.2344 126.47z" fill-rule="evenodd"/>
</svg>