<?xml version="1.0" encoding="UTF-8"?>
<!-- The Best Svg Icon site in the world: iconSvg.co, Visit us! https://iconsvg.co -->
<svg fill="#000000" width="800px" height="800px" version="1.1" viewBox="144 144 512 512" xmlns="http://www.w3.org/2000/svg">
 <path d="m269.01 502.78h24.32l-26.199 18.797 3.4062 51.535h-12.844l-10.652-54.125zm122.2-0.37891-7.7891 13.809 13.758 56.895h12.715l-13.422-71.633c-1.7305 0.39062-3.4766 0.71875-5.2617 0.92969zm231.82-178.41-38.824-57.637c-3.1875-4.6289-7.5-5.543-13.285-4.4297l-3.8945-8.75c-2.5078-5.6328 0.19531-12.219 5.9414-14.465l30.199-11.812h-39.559c-14.801 0-24.766 15.145-18.914 28.738l4.4883 10.422-2.6445 0.44922-12.004-7.6172c-3.7578-2.3867-8.1211-3.6523-12.574-3.6523h-14.434l15.809 15.199-40.562 6.8398-281.15 0.003906c-15.629 0-28.34 12.711-28.34 28.336v140.52h14.172v-140.52c0-7.8125 6.3594-14.172 14.172-14.172v112.35c5.6055-7.9258 13.246-14.48 22.488-18.902 7.7383-3.7031 16.344-5.5781 25.574-5.5781h108.42c5.2812 0 10.262-2.5625 13.324-6.8633l8.9609-12.555-4.4531-6.6758-11.012-16.52h56.027c12.195 0 23.98 4.4023 33.191 12.402l22.742 19.758c5.8828 5.1133 8.8672 12.617 7.9766 20.07-1.3711 11.477-11.094 20.133-22.621 20.133h-13.602l-9.0742 39.922 6.0859 12.5 7.4727 70.844h17.715v-106.88c15.531-2.2812 29.453-11.273 37.82-24.867l36.672-59.566 28.34 7.082 22.852 0.035156 8.1914 2.168c6.7266 2.2422 14.137-0.003906 18.484-5.6133 4.7422-6.1016 4.668-14.668-0.17188-20.699zm-148.71 63.684c0.48828-4.0742-1.293-8.0977-4.3945-10.793l-22.742-19.758c-7.2734-6.3164-16.586-9.8008-26.219-9.8008h-36.172l8.5195 12.777-13.219 18.523c-5.0664 7.0977-13.254 11.316-21.977 11.316h-108.42c-7.2383 0-14.461 1.4141-20.988 4.5391-16.852 8.0625-27.008 24.801-27.008 42.707v0.39844c0 4.7188 3.8281 8.5508 8.5508 8.5508l-0.007812 37.5-8.6133 12.777 11.18 76.695 12.82-0.023438v-51.508l39.898-29.422h70.715l13.23 29.207 6.2578 51.75 12.398-0.039063v-51.367l16.672-29.555c19.93 0 37.211-13.793 41.629-33.23l13.742-60.48h22.086c6.0469 0 11.309-4.4883 12.059-10.766z"/>
</svg>