<?xml version="1.0" encoding="UTF-8"?>
<!-- The Best Svg Icon site in the world: iconSvg.co, Visit us! https://iconsvg.co -->
<svg fill="#000000" width="800px" height="800px" version="1.1" viewBox="144 144 512 512" xmlns="http://www.w3.org/2000/svg">
 <g>
  <path d="m415.74 251.82c-10.102-0.11328-119.51-5.2031-190.45 57.758-35.527 31.531-55.008 74.785-57.902 128.51v-0.003906c-1.4375 21.824 5.0547 43.434 18.289 60.848 15.742 20.188 38.898 32.332 68.832 36.09 5.5664 0.69141 11.172 1.0391 16.781 1.0352 16.934-0.074219 33.734-2.9727 49.715-8.5781 11.527-4.0039 22.828-8.6406 33.848-13.891 17.105-8.1602 39.945-12.328 69.828-12.734 17.875-0.26172 35.668 2.457 52.648 8.043 11.262 3.8945 22.23 8.582 32.828 14.027 11.996 6.0938 50.18 17.984 82.324 0.039062 25.027-13.965 39.484-42.215 42.941-83.758 15.039-191.34-193.34-187.08-219.68-187.39zm193.04 221.71c1.6523 1.4062 4.1367 1.207 5.5469-0.44531 3.9883-4.7266 7.4375-9.8828 10.281-15.379 0.21094-0.39453 0.39453-0.84766 0.58594-1.2578-5.4062 29.047-17.641 49.094-36.539 59.637-29 16.172-64.707 5.0039-74.926-0.18359h0.003906c-10.957-5.625-22.293-10.465-33.934-14.488-17.805-5.8711-36.469-8.7227-55.215-8.4336-31.039 0.42578-54.953 4.8398-73.113 13.504h0.003907c-10.766 5.1211-21.801 9.6484-33.062 13.559-20.156 7.168-41.684 9.6172-62.934 7.1641-27.793-3.4883-49.199-14.629-63.605-33.121-9.0352-11.781-14.637-25.828-16.191-40.59 2.0273 4.1094 4.4766 7.9961 7.3047 11.602 15.934 20.184 39.359 32.32 69.668 36.07l-0.003906-0.003906c5.6367 0.69922 11.309 1.043 16.984 1.0391 17.129-0.074219 34.125-2.9727 50.312-8.5703 11.672-4.0039 23.117-8.6406 34.285-13.891 17.34-8.168 40.48-12.336 70.75-12.746 18.102-0.26562 36.121 2.4531 53.336 8.0508 11.398 3.8945 22.508 8.582 33.25 14.031 14.027 7.0391 44.656 14.211 71.523 5.1406 2-0.73828 3.0469-2.9336 2.3633-4.9531-0.67969-2.0156-2.8438-3.125-4.8828-2.5-27.488 9.2695-56.59-0.26953-65.48-4.7227v-0.003906c-11.094-5.6289-22.57-10.469-34.348-14.484-18.043-5.8555-36.926-8.707-55.891-8.4336-31.418 0.42969-55.625 4.8398-73.996 13.496-10.898 5.1328-22.07 9.6641-33.465 13.57-20.445 7.1602-42.242 9.6133-63.766 7.1758-28.172-3.4961-49.859-14.652-64.664-33.398-9.5469-12.086-13.723-27.555-11.547-42.801 23.941-160.9 215.89-157.99 236.85-157.53 155.42 3.4375 203.41 64.484 212.03 140.45h0.003907c2.5273 18.453-0.48438 37.242-8.6602 53.98-2.5703 4.9727-5.6875 9.6406-9.2969 13.918-0.67969 0.79297-1.0156 1.8242-0.93359 2.8672 0.082032 1.0391 0.57422 2.0039 1.3672 2.6836z"/>
  <path d="m571.67 317.41c-18.859-19.453-46.113-32.812-81.023-39.711-28.305-5.1211-57.129-6.7969-85.836-4.9961-3.2734 0-80.902 0.46875-140.68 33.988-43.57 24.43-66.008 59.879-66.688 105.35-0.22656 15.941 6.4648 31.203 18.344 41.84 14.328 13.133 34.688 20.41 60.52 21.621 2.1836 0.10156 4.3789 0.14844 6.5859 0.14844 17.031-0.078125 33.941-2.8789 50.086-8.2969 5.1172-1.6992 10.566-3.6836 16.207-5.9023 4.6172-1.8125 8.5352-3.4297 12.32-5.1172 14.395-6.3398 33.852-10.215 59.492-11.848 6.7734-0.41797 13.566-0.42969 20.344-0.042969 8.4609 0.41797 16.883 1.4688 25.188 3.1484 9.707 2.1133 19.273 4.8125 28.656 8.0703 10.363 3.1211 21.137 4.6641 31.961 4.5781 15.93 0.49219 31.645-3.7422 45.172-12.168 17.066-11.531 26.402-30.492 27.723-56.125 1.4883-27.738-8.8203-54.816-28.375-74.543zm-79.316-31.258c30.145 6.4102 54.059 17.855 71.062 34.152-24.125 27.348-70.102 21.223-86.023 8.2266 5.0117-15.254 9.9336-29.188 14.961-42.379zm-161.86 173.74c-17.316 5.832-35.555 8.457-53.812 7.7461-23.941-1.1211-42.641-7.7031-55.57-19.559-10.211-9.125-15.973-22.227-15.797-35.922 0.63281-41.488 20.762-74.105 59.879-97.004l1.9688 2.293c35.562 41.289 72.312 83.965 76.484 137.71-4.5547 1.75-8.9727 3.332-13.152 4.7305zm108.05-23.434v-0.003906c-6.0039-0.24219-12.02-0.17578-18.02 0.19531-26.578 1.6914-46.914 5.7812-62.164 12.504-2.2812 1.0078-4.6406 2-7.1602 3.0273-5.2266-55.145-42.184-98.207-78.062-139.86l-0.90234-1.0469c57.465-30.215 131.82-30.699 132.77-30.699v-0.003906c26.57-1.625 53.238-0.26953 79.508 4.0352-5.207 13.719-10.297 28.176-15.496 44.129v0.019532c-9.9844 30.711-19.152 63.059-30.477 107.7zm153.66-45.113c-1.2031 23.262-9.3789 40.148-24.289 50.234-24.637 16.641-59.797 10.234-70.168 6.6914-9.7031-3.3711-19.598-6.1562-29.633-8.3398-7.1211-1.4375-14.324-2.4258-21.566-2.9648 10.453-41.164 19.074-71.82 28.254-100.45h-0.003906c15.07 7.3477 31.918 10.27 48.582 8.4219 16.664-1.8438 32.465-8.3867 45.559-18.855 15.957 17.895 24.305 41.309 23.266 65.266z"/>
 </g>
</svg>