<?xml version="1.0" encoding="UTF-8"?>
<!-- The Best Svg Icon site in the world: iconSvg.co, Visit us! https://iconsvg.co -->
<svg fill="#000000" width="800px" height="800px" version="1.1" viewBox="144 144 512 512" xmlns="http://www.w3.org/2000/svg">
 <g>
  <path d="m252.2 411.54c2.7812 0 5.0391-2.2539 5.0391-5.0391v-19.742c0-15.359 2.7344-22.668 10.453-27.922 2.3008-1.5664 2.8945-4.6992 1.3281-7-1.5664-2.2969-4.6992-2.8867-7-1.3281-12.332 8.3984-14.859 20.566-14.859 36.25v19.746c0 2.7812 2.2578 5.0352 5.0391 5.0352z"/>
  <path d="m469.45 411.54c2.7812 0 5.0391-2.2539 5.0391-5.0391v-19.742c0-15.359 2.7344-22.668 10.453-27.922 2.3008-1.5664 2.8945-4.6992 1.332-7-1.5664-2.2969-4.6953-2.8867-7-1.3281-12.336 8.3984-14.859 20.566-14.859 36.25v19.746c0 2.7812 2.2539 5.0352 5.0352 5.0352z"/>
  <path d="m596.48 458.51h-12.887v-89.352c0-16.539-8.9258-32.383-24.488-43.477-3.875-2.7617-7.3203-4.8164-10.363-6.6289-7.6914-4.5859-10.84-6.5-11.453-13.02 4.7969-0.71484 8.5-4.8242 8.5-9.8164v-29.84c0-5.4961-4.4688-9.9648-9.9648-9.9648h-54.41c-5.4961 0-9.9648 4.4688-9.9648 9.9648v29.84c0 5.4609 4.4141 9.8984 9.8633 9.9531-0.69922 6.0742-3.7031 7.8164-11.254 12.098-3.125 1.7695-6.6602 3.7773-10.711 6.543-16.336 11.148-25.703 27.312-25.703 44.348v89.352h-28.613v-210.11h43.883c13.754 0 24.941-11.199 24.941-24.961 0.003906-13.77-11.184-24.965-24.938-24.965h-97.844c-13.754 0-24.941 11.199-24.941 24.965s11.188 24.961 24.941 24.961h43.883v210.11h-28.613l-0.003906-89.352c0-16.539-8.9258-32.387-24.484-43.477-3.875-2.7617-7.3203-4.8164-10.363-6.6289-7.6914-4.5859-10.84-6.5-11.453-13.02 4.7969-0.71484 8.4961-4.8242 8.4961-9.8164v-29.84c0-5.4961-4.4688-9.9648-9.9648-9.9648h-54.406c-5.4961 0-9.9648 4.4688-9.9648 9.9648v29.84c0 5.4609 4.418 9.8984 9.8633 9.957-0.69922 6.0742-3.707 7.8164-11.254 12.098-3.1211 1.7695-6.6602 3.7773-10.711 6.543-16.336 11.152-25.703 27.316-25.703 44.348v89.352l-12.887-0.003906c-2.7812 0-5.0391 2.2539-5.0391 5.0391l0.003906 132.93c0 2.7812 2.2539 5.0391 5.0391 5.0391h392.97c2.7812 0 5.0391-2.2539 5.0391-5.0391l-0.003906-132.94c0-2.7812-2.2578-5.0352-5.0391-5.0352zm-260.27-235.07c0-8.207 6.668-14.887 14.867-14.887h97.844c8.1953 0 14.867 6.6797 14.867 14.887 0 8.2109-6.668 14.887-14.867 14.887h-97.844c-8.1992 0-14.867-6.6758-14.867-14.887zm199.51 42.941v29.73l-54.188 0.10938-0.11328-29.73zm-91.992 102.78c0-13.652 7.7656-26.781 21.309-36.027 3.7031-2.5273 7.0469-4.4219 9.9961-6.0977 8.4805-4.8086 15.254-8.7969 16.324-20.852h35.922c0.9375 12.203 7.75 16.418 16.312 21.523 2.875 1.7109 6.1289 3.6562 9.6719 6.1797 13.066 9.3125 20.262 21.836 20.262 35.273v89.352h-99.031v-21.152c0-2.7812-2.2539-5.0391-5.0391-5.0391-2.7812 0-5.0391 2.2539-5.0391 5.0391v21.152h-20.688zm-125.26-102.78v29.73l-54.188 0.10938-0.10938-29.73zm-91.992 102.78c0-13.648 7.7656-26.781 21.309-36.027 3.7031-2.5273 7.0469-4.4219 10-6.0977 8.4805-4.8086 15.254-8.793 16.324-20.852h35.922c0.9375 12.203 7.75 16.418 16.312 21.523 2.875 1.7109 6.1289 3.6562 9.6719 6.1797 13.066 9.3125 20.258 21.836 20.258 35.273v89.352h-99.027v-21.152c0-2.7812-2.2539-5.0391-5.0391-5.0391-2.7812 0-5.0391 2.2539-5.0391 5.0391v21.152h-20.691zm364.97 222.29h-382.89v-122.86h382.89z"/>
 </g>
</svg>