<?xml version="1.0" encoding="UTF-8"?>
<!-- The Best Svg Icon site in the world: iconSvg.co, Visit us! https://iconsvg.co -->
<svg fill="#000000" width="800px" height="800px" version="1.1" viewBox="144 144 512 512" xmlns="http://www.w3.org/2000/svg">
 <g>
  <path d="m529.81 235.7-125.95-70.848v-0.003906c-2.3945-1.3438-5.3203-1.3438-7.7148 0l-125.95 70.848v0.003906c-3.1211 1.75-4.668 5.3906-3.7617 8.8555 0.90625 3.4648 4.0391 5.8828 7.6211 5.8789h7.8711v204.67h-15.742v15.742h39.359v165.32h15.742v-27.48l78.719-57.246 78.719 57.246 0.003906 27.48h15.742v-165.31h31.488v-15.746h-7.8711v-204.67h7.8711c3.582 0.003906 6.7148-2.4141 7.6211-5.8789 0.90625-3.4648-0.64062-7.1055-3.7617-8.8555zm-129.81-54.957 95.902 53.949h-191.81zm102.34 242.88h-204.67v-141.7h204.67zm-181.06 165.6v-95.031l65.34 47.516zm92.105-47.516 65.336-47.516v95.031zm65.336-66.984-78.719 57.246-78.723-57.246v-3.8633h157.44zm-181.05-19.609v-15.742h204.67v15.742zm204.67-188.93h-204.67v-15.746h204.67z"/>
  <path d="m400 407.87c12.52-0.011719 24.527-4.9922 33.383-13.848 8.8555-8.8555 13.836-20.863 13.848-33.387 0-24.191-37.281-63.961-41.531-68.406-3.1602-3.1172-8.2383-3.1172-11.398 0-4.2539 4.4492-41.535 44.219-41.535 68.406 0.011719 12.523 4.9922 24.531 13.848 33.387 8.8555 8.8555 20.863 13.836 33.387 13.848zm0-98.566c14.004 15.816 31.488 39.477 31.488 51.332 0 11.25-6.0039 21.645-15.746 27.27-9.7422 5.625-21.746 5.625-31.488 0-9.7422-5.625-15.742-16.02-15.742-27.27 0-11.805 17.492-35.5 31.488-51.332z"/>
  <path d="m400 384.25c4.3477 0 7.8711-3.5234 7.8711-7.8711 0-4.3477-3.5234-7.8711-7.8711-7.8711s-7.875-3.5273-7.875-7.875c0-4.3477-3.5234-7.8711-7.8711-7.8711s-7.8711 3.5234-7.8711 7.8711c0 6.2656 2.4883 12.273 6.918 16.699 4.4258 4.4297 10.434 6.918 16.699 6.918z"/>
 </g>
</svg>