<?xml version="1.0" encoding="UTF-8"?>
<!-- The Best Svg Icon site in the world: iconSvg.co, Visit us! https://iconsvg.co -->
<svg fill="#000000" width="800px" height="800px" version="1.1" viewBox="144 144 512 512" xmlns="http://www.w3.org/2000/svg">
 <g>
  <path d="m475.57 350.42c-6.6797 0-13.09 2.6562-17.812 7.3789-4.7227 4.7266-7.3789 11.133-7.3789 17.812v45.344h-12.594v50.383h37.785c6.6797 0 13.086-2.6562 17.812-7.3789 4.7227-4.7266 7.3789-11.133 7.3789-17.812v-70.535c0-6.6797-2.6562-13.086-7.3789-17.812-4.7266-4.7227-11.133-7.3789-17.812-7.3789z"/>
  <path d="m352.14 370.57h-2.5195v-45.344 0.003906c0-9-4.8008-17.316-12.594-21.816-7.7969-4.5-17.398-4.5-25.191 0s-12.594 12.816-12.594 21.816v70.535-0.003906c0 6.6836 2.6523 13.09 7.375 17.812 4.7266 4.7266 11.133 7.3789 17.812 7.3789h37.785v-50.383z"/>
  <path d="m469.83 539.7h-32.043v-257.34c-0.027344-8.8789-3.5664-17.383-9.8438-23.66-6.2773-6.2773-14.781-9.8164-23.66-9.8438h-8.5664c-8.875 0.027343-17.383 3.5664-23.66 9.8438-6.2773 6.2773-9.8164 14.781-9.8438 23.66v257.34h-32.039c-3.1523 0-5.7188 2.543-5.7461 5.6953v5.7422h151.14v-5.7422c-0.027343-3.1523-2.5898-5.6953-5.7422-5.6953z"/>
 </g>
</svg>