<?xml version="1.0" encoding="UTF-8"?>
<!-- The Best Svg Icon site in the world: iconSvg.co, Visit us! https://iconsvg.co -->
<svg fill="#000000" width="800px" height="800px" version="1.1" viewBox="144 144 512 512" xmlns="http://www.w3.org/2000/svg">
 <g>
  <path d="m441.88 481.55c0 10.078-8.1875 18.578-18.578 18.578s-18.578-8.1875-18.578-18.578 8.1875-18.578 18.578-18.578c10.391 0.003906 18.578 8.5039 18.578 18.578z"/>
  <path d="m489.74 529.41c0 10.391-8.1875 18.578-18.578 18.578-10.078 0-18.578-8.1875-18.578-18.578 0-10.078 8.1875-18.578 18.578-18.578 10.078 0 18.578 8.1875 18.578 18.578z"/>
  <path d="m614.12 326c0-17.633-14.168-31.805-31.805-31.805h-3.7773c0.94531-3.1484 1.5742-6.2969 1.5742-9.4453 0-17.633-14.168-31.805-31.805-31.805l-91.941 0.003907-10.078-25.82c-5.3516-13.539-18.895-22.355-34.32-22.355h-72.422c-13.855 0-27.078 5.0391-37.156 14.484l-57.309 51.324c-4.4102 4.0938-10.391 6.2969-16.688 6.2969h-31.172c-6.2969 0-11.02 5.0391-11.336 11.02 0 6.2969 5.0391 11.336 11.02 11.336h31.172c11.652 0 22.984-4.4102 31.488-12.281l57.309-51.957c5.9844-5.668 14.168-8.5 22.355-8.5h72.422c6.2969 0 11.652 3.1484 13.539 8.1875l25.504 64.867c0.94531 2.2031 0.31641 4.0938-0.31641 5.3516-1.2578 2.5195-3.4648 4.4102-6.6133 5.3516-0.62891 0.31641-1.5742 0.31641-2.2031 0.62891-10.078 2.2031-20.469-2.832-25.82-12.594l-3.4648-6.2969 6.9258-29.598c1.2578-5.9844-2.2031-11.965-8.5-13.539-5.9844-1.2578-11.965 2.2031-13.539 8.5l-11.965 51.641c-3.4648 14.168-9.7617 28.023-18.895 39.676-3.7773 4.7227-3.1484 11.965 1.8906 15.742 2.2031 1.5742 4.4102 2.5195 6.9258 2.5195 3.1484 0 6.6133-1.5742 8.8164-4.4102 9.7617-12.281 17.004-26.766 21.41-41.879 8.5 8.1875 19.836 12.91 31.488 12.91 3.1484 0 6.6133-0.31641 9.7617-1.2578 1.2578-0.31641 2.5195-0.62891 3.7773-0.94531 8.1875-2.5195 15.113-8.1875 19.207-15.742h112.1c5.3516 0 9.4453 4.4102 9.4453 9.4453 0 5.0391-4.4102 9.4453-9.4453 9.4453h-109.89c-6.2969 0-11.336 5.0391-11.336 11.336 0 6.2969 5.0391 11.336 11.336 11.336h85.648c5.3516 0 9.4453 4.4102 9.4453 9.4453 0 5.3516-4.4102 9.4453-9.4453 9.4453h-105.17c-6.2969 0-11.336 5.0391-11.336 11.336 0 6.2969 5.0391 11.336 11.336 11.336h71.164c5.3516 0 9.4453 4.4102 9.4453 9.4453 0 5.3516-4.4102 9.4453-9.4453 9.4453l-123.74 0.007812c-48.176 0-96.355-6.6133-142.96-20.152-9.7617-2.832-19.836-4.0938-29.914-4.0938h-29.914c-6.2969 0-11.336 5.0391-11.336 11.336s5.0391 11.336 11.336 11.336h29.914c8.1875 0 16.059 1.2578 23.617 3.4648 48.492 13.855 98.559 21.098 148.94 21.098h124.38c17.633 0 31.805-14.168 31.805-31.805 0-3.1484-0.62891-6.6133-1.5742-9.4453h3.7773c17.633 0 31.805-14.168 31.805-31.805 0-3.4648-0.62891-6.9258-1.5742-10.078 14.797-2.832 26.133-15.742 26.133-31.488zm-120.6-31.801h-21.098c-0.31641-0.94531-0.31641-1.5742-0.62891-2.5195l-6.6133-16.688h83.129c5.3516 0 9.4453 4.4102 9.4453 9.4453 0 5.3516-4.4102 9.4453-9.4453 9.4453h-54.789z"/>
  <path d="m394.33 529.41c0 10.391-8.1875 18.578-18.578 18.578-10.078 0-18.578-8.1875-18.578-18.578 0-10.078 8.1875-18.578 18.578-18.578s18.578 8.1875 18.578 18.578z"/>
  <path d="m441.88 576.96c0 10.078-8.1875 18.578-18.578 18.578s-18.578-8.1875-18.578-18.578c0-10.391 8.1875-18.578 18.578-18.578s18.578 8.1875 18.578 18.578z"/>
 </g>
</svg>