<?xml version="1.0" encoding="UTF-8"?>
<!-- The Best Svg Icon site in the world: iconSvg.co, Visit us! https://iconsvg.co -->
<svg fill="#000000" width="800px" height="800px" version="1.1" viewBox="144 144 512 512" xmlns="http://www.w3.org/2000/svg">
 <g>
  <path d="m508.09 276.55c-1.4883-1.5977-3.5742-2.5039-5.7539-2.5039-4.1953 0.046875-8.3633 0.62891-12.406 1.7383-12.344-66.352-48.508-111.95-89.93-111.95-40.211 0-74.988 41.762-88.457 104.9l-0.003907 0.003907c-4.4453-1.6367-9.1367-2.5078-13.875-2.5664-2.1836-0.007812-4.2695 0.89453-5.7617 2.4844-1.4922 1.5898-2.2578 3.7305-2.1133 5.9062l15.746 235.64c-0.03125 18.102 5.1562 35.828 14.941 51.055 9.7852 15.23 23.754 27.312 40.234 34.805 0 0.26172-0.070313 0.46484-0.070313 0.73047l-0.003906 0.003906c0 14.059 7.5039 27.055 19.684 34.086 12.176 7.0312 27.18 7.0312 39.359 0 12.176-7.0312 19.68-20.027 19.68-34.086 0-0.26172-0.0625-0.46484-0.070313-0.72266v-0.003906c14.426-6.5547 26.961-16.652 36.438-29.355 12.156-16.129 18.73-35.773 18.734-55.969l15.742-228.29h0.003906c0.14453-2.1797-0.62109-4.3203-2.1172-5.9102zm-108.09-96.969c34.258 0 64.605 41.723 74.988 102.06-27.758 14.523-55.688 47.578-77.594 78.812-17.766-29.125-44.242-66.668-71.289-84.285 11.137-57.113 41.066-96.59 73.895-96.59zm0 440.83c-5.4062-0.003906-10.645-1.8594-14.844-5.2578-4.2031-3.3984-7.1094-8.1367-8.2383-13.422 15.129 3.8867 30.988 3.9141 46.129 0.085937-1.1445 5.2656-4.0547 9.9766-8.2461 13.359-4.1953 3.3828-9.4141 5.2305-14.801 5.2344zm0-31.488c-20.969 0-41.07-8.3633-55.848-23.238-14.781-14.875-23.012-35.031-22.875-56l-15.09-226.2c22.121 7.668 53.238 42.801 83.938 95.504 35.621 61.148 63.883 133.16 71.047 180.8-14.898 18.512-37.414 29.23-61.172 29.125zm78.719-78.719c0.023438 9.9141-1.8281 19.742-5.457 28.969-14.68-57.434-37.246-112.56-67.051-163.8 33.008-48.336 64.211-78.281 87.609-84.41z"/>
  <path d="m400 211.07c21.332 0 39.359 36.055 39.359 78.719 0 4.3477 3.5234 7.875 7.8711 7.875 4.3477 0 7.8711-3.5273 7.8711-7.875 0-52.973-24.207-94.465-55.105-94.465h0.003906c-4.3477 0-7.875 3.5273-7.875 7.875 0 4.3477 3.5273 7.8711 7.875 7.8711z"/>
  <path d="m344.89 352.77c-4.3477 0-7.8711 3.5234-7.8711 7.8711v102.34c0 4.3477 3.5234 7.8711 7.8711 7.8711 4.3477 0 7.8711-3.5234 7.8711-7.8711v-102.34c0-2.0859-0.82812-4.0898-2.3047-5.5664-1.4766-1.4727-3.4805-2.3047-5.5664-2.3047z"/>
  <path d="m344.89 486.59c-4.3477 0-7.8711 3.5234-7.8711 7.8711v15.746c0 4.3477 3.5234 7.8711 7.8711 7.8711 4.3477 0 7.8711-3.5234 7.8711-7.8711v-15.746c0-2.0859-0.82812-4.0898-2.3047-5.5664-1.4766-1.4727-3.4805-2.3047-5.5664-2.3047z"/>
 </g>
</svg>