<?xml version="1.0" encoding="UTF-8"?>
<!-- The Best Svg Icon site in the world: iconSvg.co, Visit us! https://iconsvg.co -->
<svg fill="#000000" width="800px" height="800px" version="1.1" viewBox="144 144 512 512" xmlns="http://www.w3.org/2000/svg">
 <g>
  <path d="m325.63 553.79 19.965-204.09-7.7695-32.793 0.12109-0.34766c0.14062-0.39844 14.398-39.664 46.664-41.242 1.1523-0.054687 2.3281-0.085937 3.5156-0.085937 21.688 0 44.648 9.1328 58.508 23.27 10.605 10.82 16.055 24.477 15.754 39.477-0.17969 9.1133-0.75 19.512-1.3594 30.527-2.1875 39.777-4.9062 89.27 9.7344 110.95l0.80078 1.1836-1.2812 0.64453zm14.82-236.73 7.6914 32.465-0.019531 0.21094-19.543 199.75 139.32-69.832c-14.238-22.918-11.551-71.844-9.3828-111.29 0.59766-10.988 1.168-21.367 1.3555-30.434 0.29297-14.52-4.7656-27.191-15.035-37.664-13.406-13.68-35.664-22.516-56.707-22.516-1.1484 0-2.2812 0.023437-3.3945 0.082031-29.035 1.418-42.84 35.434-44.285 39.223z"/>
  <path d="m346.32 348.54h-22.48l10.305-9.3125-19.148 5.7734 23.168-28.809 1.9609 1.5781-18.07 22.473 22.09-6.6602-13.758 12.441h15.934z"/>
  <path d="m370.93 317.76c0 2.5742-2.5 4.6602-5.582 4.6602-3.0859 0-5.582-2.0859-5.582-4.6602s2.4961-4.6602 5.582-4.6602c3.082 0 5.582 2.0859 5.582 4.6602"/>
  <path d="m365.35 323.68c-3.7734 0-6.8398-2.6562-6.8398-5.918 0-3.2656 3.0664-5.918 6.8398-5.918 3.7734 0 6.8398 2.6562 6.8398 5.918 0 3.2656-3.0664 5.918-6.8398 5.918zm0-9.3242c-2.3828 0-4.3242 1.5273-4.3242 3.4023s1.9414 3.4023 4.3242 3.4023c2.3828 0 4.3242-1.5273 4.3242-3.4023-0.003906-1.875-1.9414-3.4023-4.3242-3.4023z"/>
  <path d="m431.18 245.19c-20.988-7.4414-27.207 15.84-27.832 10.867-0.63672-4.9766-8.1836-9.3828-14-4.957-5.8125 4.4141-0.69141 26.098-0.69141 26.098s23.461-5.1836 52.516 18.609c0 0 19.922-12.809 18.605-19.754-1.3438-6.9531-10.531-8.4805-14.66-5.1953-4.1406 3.293 8.0391-17.879-13.938-25.668"/>
  <path d="m441.08 297.36-0.71094-0.57812c-28.457-23.305-51.387-18.375-51.449-18.359l-1.2109 0.26172-0.28906-1.2031c-0.54297-2.3008-5.1328-22.617 1.1523-27.391 1.7891-1.3594 3.8789-2.082 6.0469-2.082 4.2578 0 8.293 2.7773 9.5859 6.3398 0.074219-0.10547 0.14453-0.20703 0.22266-0.30859 2.707-3.7617 8.332-11.598 18.777-11.598 2.6562 0 5.4805 0.52344 8.3867 1.5508 16.668 5.9062 14.816 19.109 14.031 24.746-0.015625 0.10547-0.03125 0.21484-0.050782 0.32812 1.457-0.75391 3.1133-1.1328 4.8906-1.1328 4.3438 0 9.4961 2.4648 10.539 7.875 1.4297 7.5664-17.051 19.699-19.164 21.055zm-46.441-21.906c8.7422 0 26.336 2.457 46.613 18.793 7.4219-4.8906 18.102-13.664 17.285-17.965-1.1758-6.1211-9.4102-7.0195-12.641-4.4375-0.35938 0.28906-0.85156 0.62109-1.4375 0.62109h-0.57422l-0.54297-0.50781c-0.60547-0.69531-0.46875-1.6523-0.20312-3.5586 0.76172-5.457 2.3477-16.801-12.379-22.023-2.6367-0.9375-5.1758-1.4102-7.5469-1.4102-9.1445 0-14.082 6.8633-16.727 10.551-1.2344 1.7188-1.7969 2.5039-2.7852 2.5039-0.41797 0-1.4023-0.17578-1.6016-1.8047-0.38672-3.0234-3.875-5.6797-7.4648-5.6797-1.6328 0-3.1523 0.52344-4.5195 1.5664-3.5859 2.7266-2.2734 15.48-0.48828 23.66 1.0469-0.14062 2.7578-0.30859 5.0117-0.30859z"/>
  <path d="m331.23 508.22c-1.6914-0.34766-3.5938-0.58984-5.6016-0.85156-10.879-1.3867-25.77-3.293-28.043-25.93-2.5898-25.73 44.691-113.54 46.707-117.26l2.2109 1.1953c-0.48828 0.90625-48.926 90.848-46.414 115.81 2.0742 20.652 14.711 22.27 25.859 23.695 2.0625 0.26172 4 0.51563 5.7891 0.875z"/>
 </g>
</svg>