<?xml version="1.0" encoding="UTF-8"?>
<!-- The Best Svg Icon site in the world: iconSvg.co, Visit us! https://iconsvg.co -->
<svg fill="#000000" width="800px" height="800px" version="1.1" viewBox="144 144 512 512" xmlns="http://www.w3.org/2000/svg">
 <g>
  <path d="m226.51 282.61c2.7852 0 5.0391-2.2539 5.0391-5.0391v-5.1016c0-2.7812-2.2539-5.0391-5.0391-5.0391-2.7852 0-5.0391 2.2539-5.0391 5.0391v5.1016c0 2.7852 2.2539 5.0391 5.0391 5.0391z"/>
  <path d="m228.45 288.24c-1.8633-0.75781-4.1328-0.30078-5.4961 1.0586-0.95312 0.95703-1.4609 2.2656-1.4609 3.5781 0 0.65625 0.10156 1.3086 0.35547 1.9141 0.25 0.65625 0.65625 1.207 1.1055 1.6641 0.20312 0.20312 0.50781 0.45312 0.75781 0.60547 0.25 0.19922 0.55469 0.35156 0.85547 0.5 0.30469 0.10156 0.65625 0.20312 0.96094 0.25391 0.34766 0.10156 0.65625 0.10156 1.0039 0.10156 1.3125 0 2.6211-0.55469 3.5273-1.4609 0.96094-0.95703 1.5117-2.2695 1.5117-3.5781 0-1.3125-0.55078-2.6211-1.5117-3.5781-0.45312-0.45703-1.0078-0.80859-1.6094-1.0586z"/>
  <path d="m252.02 571.07h-16.566c-2.1562 0-3.9062-1.7539-3.9062-3.9102v-258.97c0-2.7812-2.2539-5.0391-5.0391-5.0391-2.7852 0-5.0391 2.2539-5.0391 5.0391v258.98c0 7.7109 6.2734 13.984 13.984 13.984h16.566c2.7852 0 5.0391-2.2539 5.0391-5.0391-0.003906-2.7812-2.2578-5.0391-5.0391-5.0391z"/>
  <path d="m293.15 571.07h-25.82c-2.7852 0-5.0391 2.2539-5.0391 5.0391 0 2.7812 2.2539 5.0391 5.0391 5.0391h25.82c2.7852 0 5.0391-2.2539 5.0391-5.0391 0-2.7812-2.2539-5.0391-5.0391-5.0391z"/>
  <path d="m566.91 464.33-45.93-13.641c-27.477-8.1055-46.672-34.441-46.672-64.051l0.003906-152.9c0-2.3555-1.6328-4.4023-3.9375-4.9141-24.277-5.4414-46.844-8.375-68.855-9.1367v-4.5586c0-2.3555-1.6328-4.3984-3.9375-4.9141-69.973-15.723-133.03-15.703-192.77 0.042968-2.2148 0.58203-3.7539 2.582-3.7539 4.8711v365.64c0 11.465 9.3281 20.789 20.793 20.789h85.039c2.3203 0 4.3438-1.5898 4.8945-3.8438 4.5078-18.508 22.184-30.16 40.242-26.535l20.797 4.2227 48.457 15.176c22.449 7.0938 45.746 10.746 69.199 10.867 8.7656 0.11719 16.078 0.11719 17.094 0.11719 23.336 0 43.41-16.992 47.734-40.402 0.92969-4.9922 1.0781-10.141 0.52734-15.188h2.918c19.316 0 35.906-13.977 39.449-33.238 4.2031-22.406-10.031-44.168-31.297-48.406zm-165.39-234.66c20.074 0.71875 40.684 3.3867 62.715 8.1172v24.242c-21.113-3.4531-42.164-5.4375-62.715-5.9922zm-190.38-10.641c55.906-14.07 114.97-14.027 180.3 0.14453v32.445c-32.898-5.4141-65.098-8.1758-95.715-8.1758-28.727 0-57.18 2.4375-84.59 7.2148zm334.26 340.28v0.011718c-3.4375 18.637-19.344 32.164-37.824 32.164-1.0039 0-8.2539 0-17-0.11719-22.484-0.11328-44.777-3.6094-66.273-10.402l-48.715-15.258c-0.16797-0.050781-0.33594-0.097656-0.5-0.12891l-21.062-4.2773c-2.8984-0.58203-5.7812-0.85938-8.625-0.85938-18.887 0-36.039 12.344-42.293 31.043h-81.254c-5.9102 0-10.715-4.8086-10.715-10.715v-320.1c0.33594 0.011719 0.66016 0.085937 1.0039 0.027343 27.066-4.7617 55.188-7.1719 83.586-7.1719 30.281 0 62.164 2.7383 94.766 8.1367 0.27734 0.046875 0.55469 0.070313 0.82812 0.070313 0.042969 0 0.082032-0.019531 0.12109-0.023438v143.2c0 41.672 27.18 78.828 66.09 90.355l57.441 17.098c1.8203 0.36719 3.5938 0.875 5.3164 1.5039 12.055 4.418 21.488 15.02 24.719 28.273 1.3203 5.5547 1.457 11.492 0.39063 17.176zm42.898-48.43c-0.003906 0.003906-0.003906 0.011719-0.003906 0.019532-2.6562 14.484-15.078 24.996-29.539 24.996h-5.0469c-0.18359-0.55469-0.44531-1.0664-0.64453-1.6094-0.35547-0.97656-0.73828-1.9297-1.1523-2.875-0.50781-1.1719-1.0586-2.3125-1.6484-3.4336-0.47656-0.90234-0.96094-1.7891-1.4844-2.6602-0.65234-1.082-1.3555-2.1211-2.082-3.1445-0.57812-0.81641-1.1562-1.6289-1.7773-2.4062-0.78906-0.98438-1.6289-1.9062-2.4844-2.8242-0.66797-0.71484-1.3203-1.4375-2.0234-2.1133-0.92188-0.87891-1.8945-1.6797-2.8789-2.4805-0.73047-0.59766-1.4414-1.2227-2.2031-1.7773-1.0625-0.76953-2.1797-1.4414-3.2969-2.1211-0.76172-0.46484-1.4961-0.96875-2.2812-1.3867-1.2695-0.67578-2.5938-1.2227-3.9219-1.7812-0.69922-0.29297-1.3633-0.64844-2.0781-0.90625-2.0625-0.74609-4.1758-1.3555-6.3438-1.793l-57.008-16.992c-34.672-10.27-58.883-43.449-58.883-80.691v-138.78c20.543 0.57031 41.598 2.5703 62.715 6.0977v114.43c0 34.043 22.164 64.355 53.883 73.711l46.367 13.75c16.332 3.2734 27.012 19.77 23.816 36.777z"/>
 </g>
</svg>