<?xml version="1.0" encoding="UTF-8"?>
<!-- The Best Svg Icon site in the world: iconSvg.co, Visit us! https://iconsvg.co -->
<svg fill="#000000" width="800px" height="800px" version="1.1" viewBox="144 144 512 512" xmlns="http://www.w3.org/2000/svg">
 <g>
  <path d="m360.66 418.47c0.070313-1.0742 0.10547-2.1562 0.10547-3.25 0-15.992-7.0977-29.855-18.871-38.867 2.293-0.66406 4.5547-1.5352 6.6758-2.8477 14.062-8.6992 16.691-28.719 16.797-29.562 0.29297-2.3477-1.0938-4.5859-3.3203-5.3711-0.80078-0.28125-19.887-6.8633-33.953 1.8281-6.8789 4.2539-11.012 11.238-13.758 17.816-2.1367-6.6484-6.4531-14.73-15.215-21.301-2.2148-1.6719-5.3789-1.2148-7.0469 1.0078-1.6719 2.2266-1.2188 5.3867 1.0078 7.0547 9.1133 6.8359 11.965 15.758 12.855 21.074-1.6641 0.21094-2.6211 0.44141-2.5938 0.44141-21.156 3.5469-37.973 20.816-40.898 41.996-0.40234 2.8984-0.54297 5.8359-0.42187 8.7148 0.26562 6.5508-2.0508 13.359-6.5195 19.176-9.5312 12.391-14.57 27.223-14.57 42.883 0 19.367 8.0977 38.082 22.219 51.348 13.203 12.402 30.156 19.094 48.164 19.094 1.5234 0 3.043-0.046875 4.5781-0.14062 34.285-2.1445 62.492-29.523 65.617-63.691 1.7148-18.801-3.9297-37.105-15.891-51.531-3.5898-4.3281-5.3594-9.9727-4.9609-15.871zm-27.262-69.5c6.6953-4.1406 15.809-3.125 21.074-2.0117-1.3672 5.2148-4.543 13.859-11.203 17.977-6.5742 4.0742-15.816 2.8164-21.289 1.5078 2.1953-6.4141 5.4883-13.805 11.418-17.473zm38.078 135.99c-2.6719 29.262-26.84 52.707-56.211 54.547-16.879 1.043-32.945-4.7148-45.219-16.238-12.277-11.539-19.039-27.164-19.039-44.004 0-13.422 4.3125-26.129 12.484-36.742 5.9062-7.6836 8.957-16.82 8.5938-25.734-0.10156-2.2891 0.015624-4.6133 0.33203-6.918 2.332-16.867 15.734-30.617 32.965-33.52 0.035157-0.003906 2.3281-0.55078 5.8594-0.55078 1.8438 0 4.0273 0.14453 6.3945 0.59375h0.003906c19.77 3.7188 33.055 19.32 33.055 38.824 0 0.86719-0.03125 1.7266-0.089843 2.5742-0.5625 8.4883 2.0117 16.652 7.2617 22.98 10.25 12.363 15.082 28.055 13.609 44.188z"/>
  <path d="m527.02 373c-7.1797-1.2305-13.758-0.96094-19.668 0.62891-5.7539-5.5625-13.285-9.2188-23.055-10.246 1.1289-6.0156 4.375-16.293 13.652-22.484 2.3164-1.5469 2.9414-4.6719 1.3945-6.9883-1.5469-2.3164-4.6836-2.9414-6.9883-1.3945-13.262 8.8438-17.133 23.398-18.273 30.793-10.359 0.87109-18.297 4.6094-24.273 10.438-6.0312-1.707-12.766-2.0039-20.133-0.74609-16.188 2.7773-27.094 11.395-32.422 25.613-5.0742 13.543-5.3672 32.809-0.89062 58.887 4.5859 26.762 12.086 48.961 21.695 64.195 11.984 19.02 25.109 23.914 35.438 23.914 2.0117 0 3.918-0.1875 5.6992-0.48828 2.1328-0.36328 4.1914-0.95703 6.1719-1.6992 4.1094 1.9258 8.5195 3.0195 13.273 3.0195 4.6562 0 8.9766-1.0547 13.012-2.9023 1.8789 0.67969 3.8242 1.2383 5.8359 1.582 1.7734 0.30078 3.6797 0.48828 5.6992 0.48828 10.328 0 23.453-4.8906 35.438-23.914 9.6016-15.234 17.109-37.434 21.695-64.195 4.4805-26.078 4.1797-45.344-0.89062-58.887-5.3164-14.215-16.223-22.836-32.41-25.613zm-100.43 143.32c-8.9023-14.125-15.914-35.055-20.285-60.523-4.1602-24.273-4.0352-41.82 0.39453-53.652 4.0898-10.922 11.934-17.027 24.688-19.215 4.2461-0.73047 8.0664-0.8125 11.598-0.34766-9.6016 16.199-11.445 39.988-11.445 61.953 0 43.676 8.2617 75.285 22.93 90.891-10.215 0.42578-19.578-5.9375-27.879-19.105zm15.023-71.781c0-62.977 18.727-71.465 37.047-71.465s37.039 8.4883 37.039 71.465c0 44.391-9.7344 91.824-37.039 91.824-27.32-0.007813-37.047-47.434-37.047-91.824zm108.79 11.258c-4.3672 25.469-11.387 46.395-20.285 60.523-8.1523 12.934-17.336 19.324-27.316 19.156 14.695-15.594 22.969-47.227 22.969-90.941 0-21.996-1.8477-45.82-11.488-62.016 3.375-0.37891 7.0078-0.28125 11.039 0.40625 12.75 2.1875 20.598 8.293 24.688 19.215 4.4219 11.836 4.5547 29.383 0.39453 53.656z"/>
  <path d="m203.51 601.52h392.97c2.7852 0 5.0391-2.2578 5.0391-5.0391v-312.25c0-2.7812-2.2539-5.0391-5.0391-5.0391h-53.656v-28.344h33.43c14.438 0 26.188-11.75 26.188-26.188 0-14.441-11.75-26.188-26.195-26.188h-350.66c-14.438 0-26.188 11.75-26.188 26.188s11.75 26.188 26.188 26.188h33.43v28.344h-55.504c-2.7852 0-5.0391 2.2578-5.0391 5.0391l0.003906 312.25c0 2.7812 2.25 5.0391 5.0352 5.0391zm5.9609-376.86c0-8.8828 7.2305-16.113 16.113-16.113h350.67c8.8867 0 16.113 7.2305 16.113 16.113 0 8.8867-7.2305 16.113-16.113 16.113l-350.67-0.003906c-8.8867 0-16.113-7.2305-16.113-16.109zm59.617 26.188h263.66v28.344h-263.66zm-60.539 38.418h382.89v302.18h-382.89z"/>
 </g>
</svg>