<?xml version="1.0" encoding="UTF-8"?>
<!-- The Best Svg Icon site in the world: iconSvg.co, Visit us! https://iconsvg.co -->
<svg fill="#000000" width="800px" height="800px" version="1.1" viewBox="144 144 512 512" xmlns="http://www.w3.org/2000/svg">
 <g>
  <path d="m546.21 248.36h-12.32l-4.5703-45.359c-0.25781-2.5703-2.4219-4.5273-5.0117-4.5273h-248.63c-2.5898 0-4.7539 1.957-5.0117 4.5312l-4.5703 45.359h-12.316c-2.6992 0-4.9258 2.1289-5.0312 4.832l-2.4102 58.832c-0.058594 1.3711 0.44922 2.707 1.3984 3.6953 0.94531 0.98438 2.2617 1.5469 3.6328 1.5469h7.5703v248.98c0 19.445 15.93 35.266 35.512 35.266h209.16c19.586 0 35.52-15.824 35.52-35.266v-248.98h9.4883c1.3711 0 2.6875-0.5625 3.6367-1.5508 0.94922-0.98828 1.457-2.3203 1.3984-3.6953l-2.4062-58.832c-0.10938-2.7031-2.332-4.832-5.0352-4.832zm-265.97-39.812h239.52l4.0117 39.812h-247.54zm45.863 108.72v39.379h-57.082v-39.379zm202.95 214.36h-260.03v-164.91h57.289c1.6055 13.492 13.172 24 27.18 24 14.012 0 25.582-10.508 27.188-24h59.434v12.684c0 15 12.289 27.207 27.395 27.207 15.105 0 27.391-12.207 27.391-27.207v-12.684h34.156zm-44.23-152.22c0 9.4453-7.7695 17.133-17.312 17.133-9.5508 0-17.32-7.6836-17.32-17.133v-62.141h34.633zm-44.707-22.762h-59.227v-39.379h59.227zm-69.305 6.8711c0 9.4453-7.7695 17.133-17.32 17.133-9.543 0-17.312-7.6836-17.312-17.133v-46.25h34.633zm132.8 227.92h-209.15c-14.027 0-25.438-11.301-25.438-25.191v-24.543h260.03v24.543c0 13.891-11.414 25.191-25.441 25.191zm25.441-234.79h-34.156v-39.379h34.156zm-272.43-49.457 1.9961-48.758 282.76 0.003906 1.9922 48.758z"/>
  <path d="m504.71 269.05c-2.7852 0-5.0391 2.2539-5.0391 5.0391v16.82c0 2.7852 2.2539 5.0391 5.0391 5.0391 2.7852 0 5.0391-2.2539 5.0391-5.0391v-16.82c0-2.7852-2.2539-5.0391-5.0391-5.0391z"/>
  <path d="m452.36 269.05c-2.7852 0-5.0391 2.2539-5.0391 5.0391v16.82c0 2.7852 2.2539 5.0391 5.0391 5.0391 2.7852 0 5.0391-2.2539 5.0391-5.0391v-16.82c0-2.7852-2.2539-5.0391-5.0391-5.0391z"/>
  <path d="m400 269.05c-2.7852 0-5.0391 2.2539-5.0391 5.0391v16.82c0 2.7852 2.2539 5.0391 5.0391 5.0391s5.0391-2.2539 5.0391-5.0391v-16.82c-0.003906-2.7852-2.2539-5.0391-5.0391-5.0391z"/>
  <path d="m347.64 269.05c-2.7852 0-5.0391 2.2539-5.0391 5.0391v16.82c0 2.7852 2.2539 5.0391 5.0391 5.0391s5.0391-2.2539 5.0391-5.0391v-16.82c0-2.7852-2.2539-5.0391-5.0391-5.0391z"/>
  <path d="m295.29 269.05c-2.7852 0-5.0391 2.2539-5.0391 5.0391v16.82c0 2.7852 2.2539 5.0391 5.0391 5.0391s5.0391-2.2539 5.0391-5.0391v-16.82c0-2.7852-2.2539-5.0391-5.0391-5.0391z"/>
  <path d="m430.16 401.71c-0.89844-1.5508-2.5586-2.5039-4.3555-2.5039h-52.32c-1.7969 0-3.4531 0.95312-4.3555 2.5039l-26.156 44.938c-0.91016 1.5664-0.91016 3.5039 0 5.0664l26.156 44.934c0.89844 1.5508 2.5586 2.5039 4.3555 2.5039h52.32c1.7969 0 3.4531-0.95312 4.3555-2.5039l26.156-44.934c0.91016-1.5664 0.91016-3.5039 0-5.0664zm-7.2539 87.371h-46.523l-23.223-39.895 23.223-39.902h46.523l23.223 39.902z"/>
 </g>
</svg>