<?xml version="1.0" encoding="UTF-8"?>
<!-- The Best Svg Icon site in the world: iconSvg.co, Visit us! https://iconsvg.co -->
<svg fill="#000000" width="800px" height="800px" version="1.1" viewBox="144 144 512 512" xmlns="http://www.w3.org/2000/svg">
 <g>
  <path d="m400 449.13-35.527-20.512v-41.02l35.527-20.512 35.527 20.512v41.02zm-19.785-29.598 19.785 11.422 19.785-11.422v-22.848l-19.785-11.422-19.785 11.422z"/>
  <path d="m356.21 523.44-35.527-20.512v-41.02l35.527-20.512 35.527 20.512v41.02zm-19.785-29.598 19.785 11.422 19.785-11.422v-22.848l-19.785-11.422-19.785 11.422z"/>
  <path d="m443.78 523.44-35.527-20.512v-41.02l35.527-20.512 35.527 20.512v41.02zm-19.781-29.598 19.785 11.422 19.785-11.422v-22.848l-19.785-11.422-19.785 11.422z"/>
  <path d="m495.29 588.93h-190.59c-19.652 0-39.02-15.383-43.164-34.301-22.59-73.238-26.848-146.05-12.148-209.95l15.344 3.5352c-14.078 61.191-9.9258 131.19 12.016 202.41 2.7266 12.309 15.711 22.555 27.953 22.555h190.59c12.242 0 25.227-10.246 27.789-21.926 22.105-71.855 26.262-141.85 12.18-203.04l15.344-3.5352c14.699 63.891 10.441 136.71-12.316 210.58-3.9766 18.285-23.344 33.668-42.996 33.668z"/>
  <path d="m305.39 268.24h189.21v15.742h-189.21z"/>
  <path d="m514.35 283.98h-228.7c-20.102 0-36.457-16.352-36.457-36.453-0.003906-20.102 16.352-36.461 36.457-36.461h228.7c20.102 0 36.457 16.359 36.457 36.461s-16.355 36.453-36.457 36.453zm-228.7-57.172c-11.422 0-20.715 9.293-20.715 20.719 0 11.414 9.2891 20.711 20.715 20.711h228.7c11.422 0 20.715-9.293 20.715-20.711-0.003906-11.422-9.293-20.719-20.715-20.719z"/>
  <path d="m536.64 355.94c-23.93 0-51.441-16.699-61.484-23.371l-16.031 6.0195c-38.129 14.285-80.125 14.285-118.25 0l-16.035-6.0195c-11.543 7.6641-46.152 28.566-71.859 22.172-9.75-2.4219-17.367-8.6172-22.02-17.926-17.797-35.602 13.699-64.098 32.836-74.199l7.3594 13.922c-1.7031 0.90625-41.473 22.523-26.113 53.234 2.6367 5.2734 6.3633 8.3555 11.719 9.6875 19.105 4.7734 51.539-14.344 62.434-22.109l3.4102-2.4297 23.797 8.9258c34.562 12.961 72.633 12.961 107.2 0l23.793-8.9258 3.4141 2.4297c10.895 7.7734 43.297 26.883 62.434 22.109 5.3594-1.3281 9.082-4.4141 11.719-9.6875 15.359-30.711-24.41-52.328-26.113-53.234l7.3594-13.922c19.137 10.102 50.633 38.598 32.836 74.199-4.6562 9.3086-12.27 15.504-22.02 17.926-3.332 0.83203-6.8164 1.1992-10.375 1.1992z"/>
 </g>
</svg>