<?xml version="1.0" encoding="UTF-8"?>
<!-- The Best Svg Icon site in the world: iconSvg.co, Visit us! https://iconsvg.co -->
<svg fill="#000000" width="800px" height="800px" version="1.1" viewBox="144 144 512 512" xmlns="http://www.w3.org/2000/svg">
 <g>
  <path d="m318.64 250.13h13.418c2.7852 0 5.0391-2.2539 5.0391-5.0391s-2.2539-5.0391-5.0391-5.0391h-13.418c-2.7852 0-5.0391 2.2539-5.0391 5.0391s2.2539 5.0391 5.0391 5.0391z"/>
  <path d="m355.96 250.13h13.418c2.7852 0 5.0391-2.2539 5.0391-5.0391s-2.2539-5.0391-5.0391-5.0391h-13.418c-2.7852 0-5.0391 2.2539-5.0391 5.0391s2.2539 5.0391 5.0391 5.0391z"/>
  <path d="m393.29 250.13h13.41c2.7852 0 5.0391-2.2539 5.0391-5.0391s-2.2539-5.0391-5.0391-5.0391h-13.41c-2.7852 0-5.0391 2.2539-5.0391 5.0391s2.2539 5.0391 5.0391 5.0391z"/>
  <path d="m430.62 250.13h13.418c2.7852 0 5.0391-2.2539 5.0391-5.0391s-2.2539-5.0391-5.0391-5.0391h-13.418c-2.7852 0-5.0391 2.2539-5.0391 5.0391s2.2539 5.0391 5.0391 5.0391z"/>
  <path d="m467.94 250.13h13.418c2.7852 0 5.0391-2.2539 5.0391-5.0391s-2.2539-5.0391-5.0391-5.0391h-13.418c-2.7852 0-5.0391 2.2539-5.0391 5.0391 0.003906 2.7852 2.2539 5.0391 5.0391 5.0391z"/>
  <path d="m520.98 198.48h-241.96c-2.7852 0-5.0391 2.2539-5.0391 5.0391v41.02l-7.5 37.797c-1.8203 9.1641-2.7461 18.559-2.7461 27.91l0.003906 286.24c0 2.7852 2.2539 5.0391 5.0391 5.0391h262.45c2.7852 0 5.0391-2.2539 5.0391-5.0391l-0.003907-286.25c0-9.3516-0.92578-18.746-2.7461-27.91l-7.5-37.797 0.003906-41.02c0-2.7852-2.2539-5.0352-5.0391-5.0352zm-244.61 85.809 6.7773-34.156h11.59c2.7852 0 5.0391-2.2539 5.0391-5.0391s-2.2539-5.0391-5.0391-5.0391h-10.672v-31.5h231.88v31.504h-10.672c-2.7852 0-5.0391 2.2539-5.0391 5.0391s2.2539 5.0391 5.0391 5.0391h11.59l6.7773 34.156c0.92188 4.6523 1.5742 9.3711 1.9961 14.105l-251.26-0.003906c0.42187-4.7383 1.0742-9.4531 1.9961-14.105zm-2.5469 25.953c0-0.58984 0.035156-1.1797 0.042969-1.7695h252.28c0.007813 0.58984 0.042969 1.1797 0.042969 1.7695v224h-252.37zm0 281.21v-47.129h252.37v47.129z"/>
  <path d="m373.03 461.23c-7.3398 4.2109-13.227 5.7617-17.02 4.5-2.6367-0.86719-5.4922 0.55078-6.3711 3.1914-0.875 2.6367 0.55078 5.4922 3.1914 6.3711 1.9102 0.63281 3.9297 0.95313 6.0859 0.95313 5.4961 0 11.812-2.082 19.129-6.2812 2.4102-1.3828 3.2461-4.4609 1.8594-6.8789-1.3789-2.4062-4.4531-3.2383-6.875-1.8555z"/>
  <path d="m425.91 412.29c-4.6914 6.0664-10.793 12.828-18.645 20.688-3.3867 3.3867-6.668 6.5391-9.8359 9.4453-2.0508 1.8828-2.1875 5.0742-0.30859 7.1211 0.99219 1.082 2.3516 1.6328 3.7148 1.6328 1.2188 0 2.4414-0.4375 3.4062-1.3242 3.2773-3.0078 6.6562-6.2578 10.148-9.75 8.1641-8.1562 14.535-15.242 19.492-21.652 1.7031-2.1992 1.3008-5.3633-0.90625-7.0664-2.1914-1.6992-5.3594-1.293-7.0664 0.90625z"/>
  <path d="m491.91 325.21c-1.4453-2.3867-4.543-3.1523-6.9141-1.7109-1.5469 0.92969-13.211 8.1328-20.176 17.09-12.824-10.117-27.637-12.633-44.102-7.4492-18.016 5.6641-39.074 20.715-64.363 46.008-53.828 53.828-67.684 94.566-41.172 121.08 8.6484 8.6484 18.938 12.984 30.742 12.984 7.0078 0 14.543-1.5234 22.586-4.582 19.449-7.3867 42.242-24.062 67.75-49.574 33.648-33.648 67.766-76.516 35.922-111.53 4.7148-6.5 14.254-13.129 18.008-15.398 2.3867-1.4375 3.1523-4.5391 1.7188-6.918zm-62.77 126.72c-24.496 24.496-46.094 40.402-64.195 47.277-17.824 6.7539-31.762 4.7617-42.633-6.1055-21.785-21.785-7.9297-57.727 41.172-106.83 24.117-24.117 43.828-38.352 60.262-43.516 4.6484-1.4609 9.0312-2.1992 13.207-2.1992 9.6055 0 18.074 3.9062 26.043 11.871 23.004 23.008 12.879 52.77-33.855 99.504z"/>
 </g>
</svg>