<?xml version="1.0" encoding="UTF-8"?>
<!-- The Best Svg Icon site in the world: iconSvg.co, Visit us! https://iconsvg.co -->
<svg fill="#000000" width="800px" height="800px" version="1.1" viewBox="144 144 512 512" xmlns="http://www.w3.org/2000/svg">
 <g>
  <path d="m244.25 312.05c7.4414 5.4062 16.262 8.8008 25.355 9.9258-17.984 38.023-28.754 83.441-28.754 131.11 0.003906 133.04 90.828 148.43 159.15 148.43 68.32 0 159.15-15.387 159.15-148.43 0-47.645-10.758-93.047-28.727-131.05 9.2539-1.0586 18.254-4.4844 25.82-9.9805 19.93-14.473 31.074-51.816 24.555-61.52-1.7734-2.6289-5.0039-4.3828-9.6094-5.1992-9.0547-1.5977-23.539 0.44922-36.793 5.5703 7.2852-11.418 12.992-25.449 12.918-41.383-0.019531-4.3516-2.5156-8.1875-6.5039-10.012-4.0742-1.8633-8.707-1.2109-12.078 1.6914-13.531 11.621-39.16 32.207-60.32 41.117-20.977-15.656-44.27-24.602-68.41-24.602-24.078 0-47.301 8.8867-68.234 24.461-21.094-8.9766-46.535-29.414-60.004-40.977-3.3789-2.9062-8.0039-3.5508-12.082-1.6914-3.9883 1.8203-6.4844 5.6562-6.5039 10.012-0.074219 15.93 5.6328 29.961 12.918 41.379-13.254-5.125-27.746-7.168-36.789-5.5703-4.6094 0.81641-7.8438 2.5625-9.6133 5.1992-6.5195 9.707 4.625 47.047 24.555 61.523zm155.75 279.39c-86.43 0-132.69-30.008-145.4-96.078 0.003907-0.050782 0.035157-0.089844 0.039063-0.14453 3.8828-69.656 67.727-124.22 145.34-124.22 77.961 0 141.73 54.742 145.36 124.69-12.801 65.844-59.051 95.758-145.34 95.758zm172.32-335.48c1.9453 4.6562-4.6367 35.32-22 47.938-7.1836 5.2148-15.945 8.1133-24.777 8.3516-5.2539-10.035-11.035-19.461-17.25-28.207 3.7422-5.9688 9.0977-11.633 15.684-16.414 18.309-13.297 45.109-14.504 48.344-11.668zm-37.027-47.117c0.50781-0.43359 1.0547-0.29688 1.3281-0.17188 0.60938 0.27734 0.60938 0.74219 0.60938 0.89062 0.15234 32.891-29.508 57.816-37.094 63.645-7.1836-8.8828-14.887-16.832-22.969-23.809 21.309-10.25 45.141-29.406 58.125-40.555zm13.777 244.24c0 2.6719-0.050781 5.2852-0.12109 7.875-19.324-58.207-78.777-100.04-148.98-100.04-69.988 0-129.52 41.82-148.93 99.938-0.070313-2.5547-0.12109-5.1328-0.12109-7.7695 0.003906-117.91 71.059-225.29 149.08-225.29s149.07 107.38 149.07 225.29zm-285.21-244.41c0.27734-0.125 0.82031-0.27344 1.3359 0.17188 12.922 11.094 36.582 30.117 57.809 40.406-8.0742 6.9531-15.773 14.871-22.957 23.723-7.9961-6.1836-36.934-30.812-36.789-63.41-0.011719-0.14844-0.007813-0.61328 0.60156-0.89062zm-35.922 47.617c3.4648-3.168 30.266-1.9531 48.562 11.336 6.4531 4.6836 11.715 10.223 15.445 16.062-6.3086 8.8359-12.16 18.375-17.48 28.527-8.6719-0.33203-17.25-3.1875-24.309-8.3125-17.359-12.613-23.941-43.285-22.219-47.613z"/>
  <path d="m365.75 480.04c11.16 0 20.242-9.0352 20.242-20.141 0-11.109-9.082-20.141-20.242-20.141-11.164 0-20.25 9.0352-20.25 20.141 0 11.109 9.0859 20.141 20.25 20.141zm0-30.203c5.6055 0 10.168 4.5156 10.168 10.066s-4.5586 10.066-10.168 10.066c-5.6055 0-10.172-4.5156-10.172-10.066s4.5586-10.066 10.172-10.066z"/>
  <path d="m434.25 480.04c11.164 0 20.25-9.0352 20.25-20.141 0-11.109-9.082-20.141-20.25-20.141-11.16 0-20.242 9.0352-20.242 20.141 0 11.109 9.0859 20.141 20.242 20.141zm0-30.203c5.6055 0 10.172 4.5156 10.172 10.066s-4.5586 10.066-10.172 10.066c-5.6055 0-10.168-4.5156-10.168-10.066 0.003906-5.5508 4.5664-10.066 10.168-10.066z"/>
  <path d="m490.61 491.06c-2.8125-0.30859-5.2344 1.7578-5.5 4.5234-2.1367 21.906-40.305 39.727-85.094 39.727-45.047 0-83.23-17.926-85.113-39.957-0.23828-2.7695-2.6562-4.8477-5.4531-4.5898-2.7695 0.23828-4.8281 2.6797-4.5898 5.4531 2.4023 28.031 43.309 49.172 95.156 49.172 51.516 0 92.41-20.992 95.121-48.824 0.26953-2.7695-1.7617-5.2383-4.5273-5.5039z"/>
  <path d="m327.42 340.84c2.7812 0 5.0391-2.2578 5.0391-5.0391 0-9.793 8.0664-17.766 17.977-17.766s17.977 7.9688 17.977 17.766c0 2.7812 2.2578 5.0391 5.0391 5.0391s5.0391-2.2578 5.0391-5.0391c0-15.352-12.586-27.84-28.051-27.84-15.469 0-28.051 12.488-28.051 27.84-0.003907 2.7812 2.2539 5.0391 5.0312 5.0391z"/>
  <path d="m426.73 340.84c2.7812 0 5.0391-2.2578 5.0391-5.0391 0-9.793 8.0664-17.766 17.977-17.766 9.9102 0 17.977 7.9688 17.977 17.766 0 2.7812 2.2578 5.0391 5.0391 5.0391s5.0391-2.2578 5.0391-5.0391c0-15.352-12.586-27.84-28.051-27.84-15.469 0-28.051 12.488-28.051 27.84-0.007812 2.7812 2.25 5.0391 5.0312 5.0391z"/>
 </g>
</svg>