<?xml version="1.0" encoding="UTF-8"?>
<!-- The Best Svg Icon site in the world: iconSvg.co, Visit us! https://iconsvg.co -->
<svg fill="#000000" width="800px" height="800px" version="1.1" viewBox="144 144 512 512" xmlns="http://www.w3.org/2000/svg">
 <path d="m553.5 344.89v55.105h-98.398v-23.617h35.426c5.4648 0 10.516-2.8164 13.398-7.4609 2.8672-4.6445 3.1172-10.438 0.67578-15.32l-19.523-39.062 10.676-16.012c3.7773-5.668 3.4805-13.113-0.72266-18.469l-43.297-55.105c-2.9766-3.793-7.543-6.0156-12.375-6.0156s-9.3984 2.2188-12.375 6.0156l-43.297 55.105c-4.2031 5.3516-4.5039 12.801-0.72266 18.469l10.676 16.012-19.523 39.062c-2.4414 4.8789-2.1875 10.676 0.67578 15.32 2.8828 4.6445 7.9336 7.4609 13.398 7.4609h35.426v23.617h-70.848v-78.719h7.8711c6.4375 0 12.219-3.9062 14.609-9.8867 2.3945-5.9688 0.91406-12.785-3.7305-17.238l-90.527-86.594c-6.0781-5.8086-15.68-5.8086-21.758 0l-90.527 86.594c-4.6445 4.457-6.125 11.273-3.7305 17.238 2.3945 5.9844 8.1719 9.8867 14.609 9.8867h7.8711v78.719h-7.8711c-8.6914 0-15.742 7.0547-15.742 15.742 0 8.2188 6.3281 14.988 14.375 15.68l-11.887 24.734c-3.7461 7.8398-0.44141 17.254 7.3828 21.02 7.8398 3.7461 17.254 0.44141 21.02-7.3828l18.375-38.305h35.93l-83.648 174.24c-3.7461 7.8398-0.44141 17.254 7.3828 21.02 7.8398 3.7461 17.254 0.44141 21.02-7.3828l90.168-187.88h51.672l-83.648 174.24c-3.7461 7.8398-0.44141 17.254 7.3828 21.02 7.8398 3.7461 17.254 0.44141 21.02-7.3828l90.168-187.88h51.672l-83.648 174.24c-3.7461 7.8398-0.44141 17.254 7.3828 21.02 7.8398 3.7461 17.254 0.44141 21.02-7.3828l90.168-187.88h51.672l-83.648 174.24c-3.7461 7.8398-0.44141 17.254 7.3828 21.02 7.8398 3.7461 17.254 0.44141 21.02-7.3828l90.168-187.88h51.672l-83.648 174.24c-3.7461 7.8398-0.44141 17.254 7.3828 21.02 7.8398 3.7461 17.254 0.44141 21.02-7.3828l94.371-196.61c0.53516-1.1016 0.96094-2.25 1.2422-3.4805l0.015625-0.0625c0.33203-1.4805 0.44141-2.9766 0.34766-4.457-0.17188-2.6914-1.0078-5.2109-2.3789-7.3672l-0.03125-0.046874c-1.3555-2.1562-3.2578-4.0156-5.6055-5.3359-1.2891-0.70703-2.6914-1.2578-4.1719-1.6055l-0.0625-0.015625c-1.2266-0.26953-2.457-0.39453-3.668-0.37891h-35.219v-55.105h35.426c5.4648 0 10.516-2.8164 13.398-7.4609 2.8672-4.6445 3.1172-10.438 0.67578-15.32l-19.523-39.062s10.676-16.012 10.676-16.012c3.7773-5.668 3.4805-13.113-0.72266-18.469l-43.297-55.105c-2.9766-3.793-7.543-6.0156-12.375-6.0156s-9.3984 2.2188-12.375 6.0156l-43.297 55.105c-4.2031 5.3516-4.5039 12.801-0.72266 18.469l10.676 16.012-19.523 39.062c-2.4414 4.8789-2.1875 10.676 0.67578 15.32 2.8828 4.6445 7.9336 7.4609 13.398 7.4609h35.426zm-247.97 55.105h15.742v-78.719h-102.34v78.719h47.832v-36.133c0-3.9219 2.6914-7.0859 6-7.0859h26.766c3.3047 0 6 3.1641 6 7.0859v36.133zm157.69-109.45-9.4141 14.121c-3.1328 4.707-3.5117 10.723-0.97656 15.777l12.219 24.449h-51.387l12.219-24.449c2.5352-5.0547 2.1562-11.066-0.97656-15.777l-9.4141-14.121 23.867-30.371 23.867 30.371zm129.89-31.488-9.4141 14.121c-3.1328 4.707-3.5117 10.723-0.97656 15.777l12.219 24.449h-51.387l12.219-24.449c2.5352-5.0547 2.1562-11.066-0.97656-15.777l-9.4141-14.121s23.867-30.371 23.867-30.371l23.867 30.371zm-271.71 30.73h-102.59l51.293-49.059 51.293 49.059z" fill-rule="evenodd"/>
</svg>