<?xml version="1.0" encoding="UTF-8"?>
<!-- The Best Svg Icon site in the world: iconSvg.co, Visit us! https://iconsvg.co -->
<svg fill="#000000" width="800px" height="800px" version="1.1" viewBox="144 144 512 512" xmlns="http://www.w3.org/2000/svg">
 <g>
  <path d="m472.48 248.8c-4.6836-4.4609-10.906-6.9492-17.375-6.9492s-12.688 2.4883-17.371 6.9492l-6.2422 6.2422-7.8711-7.8711-0.003907-36.102h7.875c3.1836 0 6.0508-1.918 7.2695-4.8594 1.2188-2.9414 0.54688-6.3281-1.707-8.5781l-31.488-31.488c-1.4727-1.4766-3.4766-2.3047-5.5625-2.3086h-110.21c-2.0859 0.003906-4.0898 0.83203-5.5625 2.3086l-31.488 31.488c-2.2539 2.25-2.9258 5.6367-1.707 8.5781 1.2188 2.9414 4.0859 4.8594 7.2695 4.8594h7.8711v36.102l-7.8711 7.8711-6.2422-6.2422c-4.6836-4.4609-10.902-6.9492-17.371-6.9492s-12.691 2.4883-17.375 6.9492c-4.6016 4.6133-7.1836 10.859-7.1836 17.375 0 6.5117 2.582 12.762 7.1836 17.371l9.5 9.5039v272.26c0 2.0859 0.83203 4.0898 2.3086 5.5664 1.4766 1.4766 3.4766 2.3047 5.5664 2.3047h7.8711v15.742h-7.8711c-4.3477 0-7.875 3.5273-7.875 7.875v31.488c0 2.0859 0.83203 4.0898 2.3086 5.5664 1.4766 1.4727 3.4766 2.3047 5.5664 2.3047h220.41c2.0898 0 4.0898-0.83203 5.5664-2.3047 1.4766-1.4766 2.3086-3.4805 2.3086-5.5664v-31.488c0-2.0898-0.83203-4.0898-2.3086-5.5664-1.4766-1.4766-3.4766-2.3086-5.5664-2.3086h-7.8711v-15.742h7.8711c2.0898 0 4.0898-0.82812 5.5664-2.3047 1.4766-1.4766 2.3086-3.4805 2.3086-5.5664v-272.26l9.5-9.5v-0.003906c4.6016-4.6094 7.1836-10.859 7.1836-17.371 0-6.5156-2.582-12.762-7.1836-17.375zm-59.992 9.5 23.617 23.617h-182.41l23.617-23.617zm-119.43-78.719h103.69l15.742 15.742h-135.18zm114.82 31.488v31.488h-125.95v-31.488zm-179.43 48.859c1.6523-1.6562 3.8984-2.5859 6.2422-2.5859 2.3398 0 4.5859 0.92969 6.2422 2.5859l6.2422 6.2422-12.484 12.488-6.2422-6.2422c-3.4375-3.4531-3.4375-9.0352 0-12.488zm218.79 360.48h-204.67v-15.742h204.67zm-15.742-31.488h-173.19v-15.742h173.19zm15.742-31.488h-204.67v-259.77h204.67zm14.113-285.02-6.2422 6.2461-12.484-12.484 6.2422-6.2422v-0.003906c3.4922-3.3359 8.9922-3.3359 12.484 0 3.4375 3.4531 3.4375 9.0352 0 12.488z"/>
  <path d="m573.14 502.34c-0.20312-12.449-5.25-24.332-14.066-33.117-5.832-5.8828-9.207-13.766-9.4492-22.043 4.3047-0.03125 7.7891-3.5117 7.8164-7.8164v-31.488c0-2.0898-0.82812-4.0898-2.3047-5.5664-1.4766-1.4766-3.4766-2.3047-5.5664-2.3047h-47.23c-4.3477 0-7.875 3.5234-7.875 7.8711v31.488c0 4.3086 3.4688 7.8203 7.7812 7.8711-0.24219 8.2812-3.6172 16.16-9.4492 22.043-8.7891 8.7812-13.82 20.637-14.027 33.062h-0.046875v110.21c0 6.2617 2.4883 12.27 6.918 16.699 4.4297 4.4297 10.434 6.918 16.699 6.918h47.23c6.2656 0 12.27-2.4883 16.699-6.918 4.4297-4.4297 6.918-10.438 6.918-16.699v-110.21zm-15.699 15.742v31.488h-62.977v-31.488zm-47.23-102.34h31.488v15.742l-31.488 0.003906zm-6.2422 64.605c8.832-8.7812 13.898-20.66 14.113-33.117h15.746c0.21484 12.453 5.2734 24.332 14.105 33.117 5.8047 5.875 9.1719 13.73 9.4141 21.988h-62.785c0.24219-8.2539 3.6016-16.113 9.4062-21.988zm53.473 132.2c0 2.0898-0.82812 4.0898-2.3047 5.5664-1.4766 1.4766-3.4766 2.3047-5.5664 2.3047h-47.23c-4.3477 0-7.875-3.5234-7.875-7.8711v-47.23h62.977z"/>
 </g>
</svg>