<?xml version="1.0" encoding="UTF-8"?>
<!-- The Best Svg Icon site in the world: iconSvg.co, Visit us! https://iconsvg.co -->
<svg fill="#000000" width="800px" height="800px" version="1.1" viewBox="144 144 512 512" xmlns="http://www.w3.org/2000/svg">
 <path d="m596.48 318.71h-7.6133c-0.55859-20.812-16.402-37.855-36.707-40.277-0.75-20.633-16.512-37.477-36.688-39.883-0.80859-22.301-19.152-40.207-41.648-40.207-15.82 0-29.613 8.8516-36.688 21.863-7.0742-13.012-20.863-21.863-36.688-21.863-15.82 0-29.613 8.8516-36.688 21.863-7.0742-13.012-20.863-21.863-36.688-21.863-22.492 0-40.84 17.906-41.648 40.207-20.176 2.4062-35.938 19.25-36.688 39.883-20.305 2.4219-36.148 19.465-36.707 40.277h-8.5234c-2.7812 0-5.0391 2.2539-5.0391 5.0391v43.453c0 2.7812 2.2539 5.0391 5.0391 5.0391h3.4648v175.75h-3.4648c-2.7812 0-5.0391 2.2539-5.0391 5.0391l0.003906 43.453c0 2.7812 2.2539 5.0391 5.0391 5.0391h392.97c2.7812 0 5.0391-2.2539 5.0391-5.0391v-43.453c0-2.7812-2.2539-5.0391-5.0391-5.0391h-3.4648l-0.003907-175.75h3.4648c2.7812 0 5.0391-2.2539 5.0391-5.0391v-43.453c0-2.7812-2.2578-5.0391-5.0391-5.0391zm-17.691 0h-63.18c0.59766-16.93 14.52-30.523 31.59-30.523s30.992 13.598 31.59 30.523zm-36.703-40.25c-13.641 1.6797-25.273 9.9336-31.574 21.516-6.2969-11.586-17.934-19.84-31.574-21.516 0.78906-16.754 14.625-30.152 31.574-30.152s30.785 13.395 31.574 30.152zm-36.668 40.25h-63.184c0.59766-16.93 14.52-30.523 31.59-30.523 17.074 0 30.996 13.598 31.594 30.523zm-31.59-110.29c16.949 0 30.785 13.398 31.574 30.156-13.641 1.6797-25.273 9.9336-31.574 21.516-6.2969-11.586-17.934-19.84-31.574-21.516 0.78906-16.758 14.625-30.156 31.574-30.156zm-5.1133 70.039c-13.641 1.6797-25.273 9.9336-31.574 21.516-6.2969-11.586-17.934-19.84-31.574-21.516 0.78906-16.754 14.625-30.152 31.574-30.152 16.945 0 30.785 13.395 31.574 30.152zm-36.668 40.25h-63.184c0.59766-16.93 14.52-30.523 31.59-30.523 17.074 0 30.992 13.598 31.594 30.523zm-31.594-110.29c16.949 0 30.785 13.398 31.574 30.156-13.641 1.6797-25.273 9.9336-31.574 21.516-6.2969-11.586-17.934-19.84-31.574-21.516 0.79297-16.758 14.629-30.156 31.574-30.156zm-5.1133 70.039c-13.641 1.6797-25.273 9.9336-31.574 21.516-6.2969-11.586-17.934-19.84-31.574-21.516 0.78906-16.754 14.625-30.152 31.574-30.152s30.785 13.395 31.574 30.152zm-36.668 40.25h-63.18c0.59766-16.93 14.52-30.523 31.59-30.523 17.07 0 30.992 13.598 31.59 30.523zm-31.59-110.29c16.949 0 30.785 13.398 31.574 30.156-13.641 1.6797-25.273 9.9336-31.574 21.516-6.2969-11.586-17.934-19.84-31.574-21.516 0.78906-16.758 14.629-30.156 31.574-30.156zm-36.688 39.887c16.945 0 30.785 13.398 31.574 30.152-13.641 1.6797-25.273 9.9336-31.574 21.516-6.2969-11.586-17.934-19.84-31.574-21.516 0.79297-16.758 14.629-30.152 31.574-30.152zm-36.684 39.879c17.07 0 30.992 13.594 31.59 30.523h-63.18c0.59766-16.926 14.516-30.523 31.59-30.523zm337.73 303.26h-382.89v-33.379h382.89zm-374.39-43.453v-175.75h34.832l0.003907 175.75zm88.77-114.39v53.332h-43.859v-53.332zm-43.859-10.074v-51.285h43.859v51.285zm43.859 73.484v50.98h-43.859v-50.98zm59.297-63.41v53.332h-49.219v-53.332zm-49.219-10.074v-51.285h49.219v51.285zm49.219 73.484v50.98h-49.219v-50.98zm59.301-63.41v53.332h-49.223v-53.332zm-49.223-10.074v-51.285h49.223v51.285zm49.223 73.484v50.98h-49.223v-50.98zm59.293-63.41v53.332h-49.219v-53.332zm-49.219-10.074v-51.285h49.219v51.285zm49.219 73.484v50.98h-49.219v-50.98zm54.324-63.41v53.332h-44.246v-53.332zm-44.246-10.074v-51.285h44.246v51.285zm44.246 73.484v50.98h-44.246v-50.98zm10.074 50.98v-175.75h34.836v175.75zm43.336-185.82h-382.89v-33.379h382.89z"/>
</svg>