<?xml version="1.0" encoding="UTF-8"?>
<!-- The Best Svg Icon site in the world: iconSvg.co, Visit us! https://iconsvg.co -->
<svg fill="#000000" width="800px" height="800px" version="1.1" viewBox="144 144 512 512" xmlns="http://www.w3.org/2000/svg">
 <g>
  <path d="m443.2 465.54c44.477 0 89.457-9.2852 89.457-27.031-0.11328-3.418-1.6289-6.6406-4.1914-8.9102-1.5469-1.5273-4.0391-1.5117-5.5664 0.035156-1.5273 1.5508-1.5117 4.043 0.039062 5.5703 1 0.83594 1.6562 2.0156 1.8477 3.3047 0 7.8125-31.781 19.16-81.586 19.16-49.805 0-81.586-11.348-81.586-19.16 0-5.3789 17.883-14.859 56.285-18.105 2.168-0.18359 3.7734-2.0898 3.5898-4.2539-0.18359-2.168-2.0859-3.7734-4.2539-3.5898-30.699 2.6055-63.473 10.793-63.473 25.977-0.019531 17.723 44.984 27.004 89.438 27.004z"/>
  <path d="m632.95 595.26c-13.023-12.129-43.57-51.691-45.941-156.84v-0.058594c-0.14062-14.562-21.23-24.039-41.93-29.832h-0.003906c29.621-20.848 50.457-51.934 58.488-87.254 0.37109-1.7109-0.42969-3.4609-1.9688-4.2969l-54.625-29.492c-7.2227-3.8633-13.441-9.3594-18.164-16.051l-15.656-22.188 12.148-8.5742h-0.003906c2.918-2.0586 4.8984-5.1914 5.5078-8.7109 0.60547-3.5195-0.20703-7.1367-2.2695-10.055l-10.758-15.25h0.003906c-2.0625-2.918-5.1953-4.8984-8.7148-5.5039-3.5234-0.60938-7.1406 0.20703-10.059 2.2695l-2.6875 1.8945c-1.7461 1.2617-2.1484 3.6953-0.90625 5.457 1.2422 1.7578 3.668 2.1953 5.4453 0.97266l2.6875-1.8984v0.003907c1.2148-0.85938 2.7188-1.1953 4.1797-0.94141 1.4648 0.25 2.7656 1.0742 3.6211 2.2891l10.758 15.246c1.7812 2.5234 1.1797 6.0156-1.3477 7.8008l-12.148 8.5664-28.879-40.934 0.003907-0.003906c-3.5078-4.6758-10.133-5.6328-14.82-2.1406l-91.383 64.469c-2.293 1.5977-3.9023 3.9961-4.5078 6.7266-0.62891 2.7539-0.054687 5.6445 1.5742 7.9531l7.1172 10.117-211.48 149.2c-6.0703 4.2891-7.5195 12.688-3.2383 18.766l10.758 15.25c2.0508 2.9297 5.1875 4.9141 8.7148 5.5117 0.76562 0.13281 1.5391 0.19922 2.3164 0.19922 2.7734 0 5.4766-0.86328 7.7383-2.4648l195.57-137.99c0.86719-0.59766 1.457-1.5156 1.6445-2.5508 0.18359-1.0391-0.050781-2.1055-0.66016-2.9648-0.60547-0.85938-1.5312-1.4414-2.5703-1.6133-1.0391-0.17188-2.1016 0.078125-2.9531 0.69531l-195.57 137.98c-2.5195 1.7891-6.0117 1.1914-7.8008-1.3281l-10.758-15.262c-1.7773-2.5273-1.1719-6.0156 1.3516-7.7969l211.47-149.21 37.391 53.008h0.003906c4.7344 6.6836 7.8359 14.391 9.0508 22.492l4.0117 25.977c-66.984 1.3516-133.3 15.836-133.3 41.598 0 0.18359 0.039063 0.36328 0.046875 0.54297v0.042969 0.10937c0.039063 0.84375 0.15234 1.6797 0.33594 2.5 2.2188 17.277 13.129 117.27-27.035 145.38-2.918 2.0391-10.652 7.4531-8.1523 13.75 1.6797 4.2344 6.1445 15.48 124.97-1.8867l-0.003907 0.003906c13.461-1.9648 27.039-2.9883 40.637-3.0586 38.539 0.11719 76.996 3.6016 114.93 10.41 20.836 4.0312 41.969 6.3477 63.184 6.9336 6.9883 0.1875 13.973-0.53516 20.773-2.1484 3.2578-0.87891 5.7695-3.4727 6.5469-6.7578 0.80469-3.2891-0.22656-6.7539-2.6953-9.0664zm-187.47-167.14-1.7148-11.09c0.4375 0 0.87891 0.03125 1.3125 0.03125 61.445 0 120.21-41.797 140.27-99.914l9.8828 5.3203c-6.7578 60.348-86.461 116.11-149.75 105.65zm-59.062-140.44-9.4023-13.324c-0.33984-0.51172-0.45312-1.1445-0.30078-1.7422 0.1875-0.80078 0.67187-1.5039 1.3555-1.9688l91.387-64.48c1.1445-0.94922 2.8359-0.83594 3.8477 0.25781l49.062 69.543c5.4258 7.6836 12.566 14 20.863 18.438l35.105 18.957c-18.836 56.48-76.359 97.129-135.79 95.797l-6.082-39.43c-1.4258-9.293-4.9766-18.133-10.375-25.832zm47.488 117.09 1.3633 8.8164 2.8906 18.691h-0.003906c0.26953 1.7344 1.6523 3.082 3.3906 3.3047 5.8359 0.75 11.711 1.125 17.594 1.125 27.285-0.16016 53.992-7.8867 77.145-22.324 31.512 7.7344 42.848 17.492 42.848 24.129 0 16.004-55.828 33.852-135.94 33.852-76.805 0-131.25-16.391-135.62-31.852-0.13281-1-0.23047-1.7031-0.30078-2.1523 0.38672-15.039 52.105-32.254 126.63-33.59zm194.11 197.7c-0.10937 0.50781-0.49609 0.91016-1 1.043-9.1914 2.5469-30.609 3.7461-80.504-4.957-38.395-6.9102-77.324-10.43-116.34-10.523-13.965 0.074218-27.906 1.1289-41.723 3.1484-72.359 10.566-110.47 11.02-116.22 6.918 1.3945-1.8086 3.1055-3.3516 5.0547-4.543 37.637-26.348 35.031-104.65 31.863-139.13 22.328 16.867 79.539 25.812 134.07 25.812 56.594 0 116.06-9.6367 136.45-27.75 4.75 97.82 34.785 136.3 47.934 148.55h-0.003906c0.39453 0.36328 0.55469 0.91797 0.41406 1.4375z"/>
  <path d="m372.72 506.17c0.8125-1.9922-0.125-4.2695-2.1094-5.1094-1.9805-0.83984-4.2695 0.066406-5.1367 2.0352-2.8711 8.4688-2.9297 17.637-0.17578 26.145 3.0586 10.793-1.6914 35.594-3.7773 44.242v-0.003906c-0.50781 2.1133 0.78906 4.2383 2.9023 4.75 0.30469 0.074219 0.61328 0.10938 0.92969 0.10938 1.8125-0.003906 3.3906-1.2422 3.8203-3.0078 0.32812-1.3555 7.9414-33.246 3.7031-48.234-2.207-6.793-2.2617-14.102-0.15625-20.926z"/>
  <path d="m529.05 524.96c-0.5625-2.1016-2.7227-3.3477-4.8203-2.7812-2.1016 0.5625-3.3477 2.7227-2.7812 4.8203 0.94141 3.4844 2.8047 13.723 0.23438 19.23-4.1445 8.8789-0.71484 29.66-0.3125 32l0.003906 0.003906c0.32422 1.8828 1.957 3.2617 3.8711 3.2656 0.22656 0 0.44922-0.019531 0.67188-0.054688 1.0312-0.17969 1.9453-0.75781 2.5469-1.6094 0.60156-0.85547 0.83984-1.9141 0.66406-2.9414-1.3633-7.9062-2.6484-22.316-0.3125-27.332 4.2188-9.0469 0.67578-23.039 0.23438-24.602z"/>
 </g>
</svg>