<?xml version="1.0" encoding="UTF-8"?>
<!-- The Best Svg Icon site in the world: iconSvg.co, Visit us! https://iconsvg.co -->
<svg fill="#000000" width="800px" height="800px" version="1.1" viewBox="144 144 512 512" xmlns="http://www.w3.org/2000/svg">
 <path d="m331.36 406.93v85.586c0 6.9766-1.2109 13.902-3.5586 20.469l-5.0703 14.105c-6.3438 17.68-7.1328 36.887-2.2344 55.043l4.8945 18.23c5.6992 21.129 24.844 35.801 46.727 35.801h55.766c21.883 0 41.027-14.672 46.727-35.801l4.8945-18.23c4.8945-18.152 4.1094-37.359-2.2344-55.043l-5.0703-14.105c-2.3477-6.5664-3.5586-13.492-3.5586-20.469v-85.586h45.973c12.328 0 24.152-4.8945 32.875-13.617s13.617-20.547 13.617-32.875v-62.27c0-35.629-14.152-69.793-39.344-94.984-25.191-25.191-59.355-39.344-94.984-39.344h-53.562c-35.629 0-69.793 14.152-94.984 39.344-25.191 25.191-39.344 59.355-39.344 94.984v62.27c0 12.328 4.8945 24.152 13.617 32.875s20.547 13.617 32.875 13.617zm31.488 0h74.312v85.586c0 10.613 1.8281 21.129 5.4141 31.109l5.0547 14.09c4.1875 11.652 4.6914 24.277 1.4805 36.227l-4.9141 18.23c-1.9844 7.3828-8.6602 12.5-16.312 12.5h-55.766c-7.6523 0-14.328-5.1172-16.312-12.5l-4.9141-18.23c-3.2109-11.949-2.707-24.578 1.4805-36.227l5.0547-14.09c3.5898-9.9805 5.4141-20.5 5.4141-31.109v-85.586zm-77.461-31.488h229.23c3.9844 0 7.793-1.5742 10.613-4.3945 2.8008-2.8164 4.3945-6.6289 4.3945-10.613v-62.27c0-27.27-10.832-53.434-30.117-72.723-19.285-19.285-45.453-30.117-72.723-30.117h-53.562c-27.27 0-53.434 10.832-72.723 30.117-19.285 19.285-30.117 45.453-30.117 72.723v62.27c0 3.9844 1.5898 7.793 4.3945 10.613 2.8164 2.8164 6.6289 4.3945 10.613 4.3945zm181.56-69.902c-10.879 0-19.711 8.832-19.711 19.711 0 10.863 8.832 19.695 19.711 19.695 10.863 0 19.695-8.832 19.695-19.695 0-10.879-8.832-19.711-19.695-19.711zm-129.92-55.105c-21.727 0-39.359 17.633-39.359 39.359 0 21.727 17.633 39.359 39.359 39.359 21.727 0 39.359-17.633 39.359-39.359 0-21.727-17.633-39.359-39.359-39.359zm82.688-35.457c-10.879 0-19.711 8.832-19.711 19.711s8.832 19.711 19.711 19.711c10.863 0 19.695-8.832 19.695-19.711s-8.832-19.711-19.695-19.711z" fill-rule="evenodd"/>
</svg>