<?xml version="1.0" encoding="UTF-8"?>
<!-- The Best Svg Icon site in the world: iconSvg.co, Visit us! https://iconsvg.co -->
<svg fill="#000000" width="800px" height="800px" version="1.1" viewBox="144 144 512 512" xmlns="http://www.w3.org/2000/svg">
 <g>
  <path d="m327.18 381.31c2.7812 0 5.0391-2.2539 5.0391-5.0391 0-9.7969 8.0664-17.762 17.98-17.762 9.9141 0 17.977 7.9648 17.977 17.762 0 2.7852 2.2539 5.0391 5.0391 5.0391 2.7812 0 5.0391-2.2539 5.0391-5.0391 0-15.352-12.586-27.836-28.055-27.836-15.473 0-28.055 12.488-28.055 27.836-0.003906 2.7852 2.2539 5.0391 5.0352 5.0391z"/>
  <path d="m426.49 381.31c2.7812 0 5.0391-2.2539 5.0391-5.0391 0-9.7969 8.0625-17.762 17.977-17.762 9.9141 0 17.98 7.9648 17.98 17.762 0 2.7852 2.2539 5.0391 5.0391 5.0391 2.7812 0 5.0391-2.2539 5.0391-5.0391 0-15.352-12.586-27.836-28.055-27.836s-28.055 12.488-28.055 27.836c-0.003906 2.7852 2.2539 5.0391 5.0352 5.0391z"/>
  <path d="m271.47 259.31c-22.09-13.691-63.664-12.449-70.863-3.5703-1.9336 2.3828-2.5586 5.7031-1.8555 9.8633 2.1211 12.574 17.027 34.363 35.031 45.52 7.4922 4.6445 15.43 8.0234 23.219 10.055-8.7695 17.793-13.965 40.359-13.965 69.078 0 112.54 73.223 211.27 156.7 211.27 83.473 0 156.7-98.723 156.7-211.27 0-28.656-5.1758-51.188-13.91-68.965 7.9414-2.0156 16.047-5.4297 23.691-10.172 18.004-11.16 32.91-32.945 35.031-45.52 0.69922-4.1641 0.078125-7.4844-1.8555-9.8633-7.1992-8.875-48.781-10.125-70.863 3.5703-5.4258 3.3633-10.219 7.5469-14.199 12.27 3.1445-20.633 11.348-44.156 16.641-57.941 1.5312-3.9844 0.59375-8.4102-2.4414-11.531-3.2461-3.3438-8.2227-4.4961-12.668-2.9336-37.32 13.113-52.367 50.852-56.344 63.039-20.016-4.2773-40.777-5.3828-59.77-5.3828-18.84 0-39.418 1.0898-59.285 5.2773-4.0273-12.293-19.094-49.859-56.312-62.938-4.4453-1.5664-9.4219-0.41406-12.668 2.9336-3.0391 3.125-3.9727 7.5469-2.4414 11.531 5.293 13.785 13.496 37.309 16.641 57.941-3.9883-4.7148-8.7812-8.9023-14.207-12.262zm-32.379 43.25c-19.711-12.215-31.492-35.391-30.547-40.488 5.1758-3.168 38.309-6.1758 57.621 5.7969 7.8281 4.8516 14.059 11.676 17.805 19.355-8.3398 6.7305-15.785 14.891-21.953 24.816-7.5859-1.6445-15.473-4.8594-22.926-9.4805zm294.74-34.691c19.312-11.965 52.445-8.9688 57.621-5.7969 0.94141 5.0977-10.84 28.27-30.547 40.488-7.6016 4.7109-15.652 7.9805-23.379 9.5898-6.0898-9.8242-13.434-17.914-21.652-24.613 3.7305-7.8047 10.023-14.75 17.957-19.668zm-14.641-59.191c1.1953-0.39844 1.9648 0.30078 2.1016 0.44141 0.4375 0.45312 0.32031 0.75781 0.26172 0.90625-6.1875 16.105-16.188 45.125-18.211 68.691-10.531-6.3047-22.059-10.828-34.004-14.09 3.9062-11.414 17.77-44.676 49.852-55.949zm27.164 181.58c0 105.29-69.883 201.19-146.62 201.19-76.738 0-146.62-95.895-146.62-201.19 0-85.309 45.219-123.35 146.62-123.35 101.4 0 146.62 38.043 146.62 123.35zm-267.65-181.14c0.14453-0.14453 0.91797-0.86719 2.1016-0.44141 31.852 11.191 45.801 44.262 49.797 55.82-11.926 3.2188-23.438 7.6992-33.977 13.938-2.0781-23.52-12.023-52.371-18.188-68.41-0.054688-0.14844-0.17188-0.45312 0.26562-0.90625z"/>
  <path d="m366.54 448.54c0 16.254 12.348 29.723 28.395 32.098v24.465c0 9.1797-7.8945 16.652-17.598 16.652s-17.598-7.4727-17.598-16.652c0-2.7852-2.2539-5.0391-5.0391-5.0391-2.7812 0-5.0391 2.2539-5.0391 5.0391 0 14.742 12.414 26.73 27.672 26.73 9.3555 0 17.625-4.5156 22.633-11.398 5.0117 6.8828 13.281 11.398 22.633 11.398 15.258 0 27.672-11.988 27.672-26.73 0-2.7852-2.2539-5.0391-5.0391-5.0391-2.7812 0-5.0391 2.2539-5.0391 5.0391 0 9.1797-7.8906 16.652-17.594 16.652-9.7031 0-17.594-7.4727-17.594-16.652v-24.465c16.047-2.375 28.395-15.844 28.395-32.098 0-9.2852-4.3438-24.859-33.43-24.859-29.086 0-33.43 15.574-33.43 24.859zm33.434-14.785c23.355 0 23.355 10.742 23.355 14.785 0 12.367-10.477 22.43-23.355 22.43-12.879 0-23.359-10.062-23.359-22.43 0-4.043 0-14.785 23.359-14.785z"/>
 </g>
</svg>