<?xml version="1.0" encoding="UTF-8"?>
<!-- The Best Svg Icon site in the world: iconSvg.co, Visit us! https://iconsvg.co -->
<svg fill="#000000" width="800px" height="800px" version="1.1" viewBox="144 144 512 512" xmlns="http://www.w3.org/2000/svg">
 <g>
  <path d="m565.31 470.29v-86.035c0-0.32422-0.019531-0.65234-0.066406-0.97656l-7.8711-62.977c-0.13281-1.1172-0.51172-2.1914-1.1016-3.1484l-21.766-35.359 43.609-43.617v-0.003906c4.4297-4.4258 6.918-10.434 6.918-16.695 0-6.2617-2.4883-12.27-6.918-16.695l-22.254-22.262c-4.4258-4.4297-10.434-6.9141-16.695-6.9141s-12.27 2.4844-16.695 6.9141l-35.629 35.637c-16.312-13.113-35.383-22.355-55.781-27.027-1.3281-10.113-7.4961-18.949-16.535-23.68-9.0391-4.7344-19.816-4.7656-28.883-0.09375-9.0703 4.6758-15.293 13.473-16.684 23.578-20.52 4.5664-39.73 13.738-56.176 26.828l-35.25-35.242c-4.4297-4.4297-10.438-6.9141-16.699-6.9141-6.2617 0-12.266 2.4844-16.695 6.9141l-22.262 22.254c-4.4297 4.4258-6.9141 10.434-6.9141 16.695s2.4844 12.27 6.9141 16.695l44.145 44.152-22.223 34.711c-0.63281 0.98828-1.0352 2.1094-1.1797 3.2734l-7.8711 62.977c-0.046875 0.32422-0.066406 0.65234-0.0625 0.97656v86.035l-12.809 12.812c-4.4297 4.4297-6.9141 10.438-6.9141 16.699s2.4844 12.266 6.9141 16.695l12.547 12.547-7.6133 98.637c-0.16797 2.1914 0.58594 4.3555 2.082 5.9648 1.4961 1.6094 3.5938 2.5195 5.793 2.5156h330.62c2.1953 0.003906 4.2969-0.90625 5.7891-2.5156 1.4961-1.6094 2.25-3.7734 2.082-5.9648l-7.5898-98.637 12.523-12.539c4.4297-4.4297 6.918-10.434 6.918-16.695 0-6.2617-2.4883-12.27-6.918-16.695zm-23.34-146.34 6.5469 52.434h-61.93v15.742h62.977v62.418l-49.375-49.383 0.003906 0.003906c-3.4609-3.4453-7.8984-5.7344-12.711-6.5625-4.8086-0.82422-9.7578-0.14062-14.164 1.957l-27.742-27.734c2.2109-7.9844 2.2109-16.418 0-24.402l27.742-27.734c4.4062 2.0977 9.3555 2.7773 14.168 1.9531 4.8086-0.82812 9.25-3.1211 12.707-6.5664l22.875-22.867zm-97.441 136.88 77.934 77.934c3.6406 3.6719 8.4023 6.0312 13.531 6.707 5.1289 0.67578 10.336-0.37109 14.809-2.9766l3.5664 46.445h-308.76l3.5664-46.445c4.4688 2.6055 9.6758 3.6523 14.805 2.9766 5.1289-0.67578 9.8906-3.0352 13.535-6.707l77.934-77.934h-0.003906c3.4492-3.457 5.7383-7.8945 6.5625-12.707 0.82422-4.8086 0.14062-9.7578-1.957-14.168l27.734-27.742v0.003906c7.9844 2.207 16.418 2.207 24.402 0l27.734 27.742v-0.003907c-2.1055 4.4062-2.793 9.3594-1.9688 14.172s3.1211 9.25 6.5742 12.703zm-44.531-68.707c-8.3516 0-16.363-3.3164-22.266-9.2227-5.9062-5.9023-9.2227-13.914-9.2227-22.266 0-8.3477 3.3164-16.359 9.2227-22.266 5.9023-5.9023 13.914-9.2227 22.266-9.2227s16.359 3.3203 22.266 9.2227c5.9023 5.9062 9.2227 13.918 9.2227 22.266 0 8.3516-3.3203 16.363-9.2227 22.266-5.9062 5.9062-13.914 9.2227-22.266 9.2227zm-44.535-131.68-2.6758-2.6758c0.25391-30.164 21.32-54.566 47.211-54.566s46.957 24.402 47.23 54.562l-2.6836 2.6836v-0.003906c-3.4453 3.4609-5.7383 7.8984-6.5625 12.711-0.82422 4.8086-0.14062 9.7578 1.957 14.168l-27.758 27.738c-7.9844-2.2109-16.418-2.2109-24.402 0l-27.734-27.742v0.003906c2.1094-4.4062 2.8008-9.3555 1.9805-14.168-0.82031-4.8125-3.1133-9.2539-6.5625-12.711zm178.13-66.793c3.0742-3.0742 8.0586-3.0742 11.133 0l22.262 22.262c3.0742 3.0742 3.0742 8.0586 0 11.133l-77.934 77.934c-1.4766 1.4766-3.4805 2.3086-5.5703 2.3086s-4.0938-0.83203-5.5703-2.3086c-3.0742-3.0742-8.0547-3.0742-11.129 0l-28.34 28.34c-3.0625-4.3086-6.8242-8.0703-11.133-11.133l28.34-28.34c3.0742-3.0742 3.0742-8.0547 0-11.129-1.4766-1.4766-2.3086-3.4805-2.3086-5.5703 0-2.0898 0.83203-4.0938 2.3086-5.5703zm-72.043 49.766v0.003907c-2.0312-10.867-6.4492-21.145-12.934-30.098 9.6641 4.1484 18.754 9.5234 27.047 15.988zm-61.551-63.832c2.875 0.007813 5.6914 0.81641 8.1367 2.3359 2.4414 1.5195 4.4141 3.6914 5.6914 6.2695-4.5781-0.45703-9.1836-0.73438-13.828-0.73438h-0.84375c-4.375 0-8.7305 0.21875-13.051 0.62891 1.3125-2.5508 3.3047-4.6953 5.7539-6.1953 2.4531-1.5 5.2656-2.2969 8.1406-2.3047zm-48.188 33.195c-6.7266 9.0703-11.301 19.547-13.383 30.648l-14.484-14.484v-0.003906c8.543-6.582 17.91-12.016 27.867-16.16zm-118.8 3.1484 22.262-22.262c3.0742-3.0703 8.0586-3.0703 11.133 0l77.934 77.934c1.4766 1.4766 2.3086 3.4805 2.3086 5.5703 0 2.0898-0.83203 4.0938-2.3086 5.5703-3.0742 3.0742-3.0742 8.0547 0 11.129l28.34 28.34c-4.3086 3.0625-8.0703 6.8242-11.133 11.133l-28.34-28.34c-3.0742-3.0742-8.0547-3.0742-11.129 0-1.4766 1.4766-3.4805 2.3086-5.5703 2.3086s-4.0938-0.83203-5.5703-2.3086l-77.934-77.934c-1.4805-1.4805-2.3125-3.4844-2.3125-5.5781 0.003906-2.0938 0.83594-4.1016 2.3203-5.5781zm17.422 176.2h55.105v-15.742h-54.059l6.543-52.355 19.402-30.301 22.379 22.387h0.003907c3.457 3.4453 7.8945 5.7383 12.707 6.5625s9.7578 0.14062 14.168-1.957l27.742 27.734h-0.003906c-2.207 7.9844-2.207 16.418 0 24.402l-27.742 27.734h0.003907c-4.4102-2.0977-9.3594-2.7773-14.168-1.9531-4.8125 0.82812-9.25 3.1211-12.707 6.5664l-49.375 49.34zm-17.422 102.11 77.934-77.934c1.4766-1.4766 3.4805-2.3086 5.5703-2.3086 2.0898 0 4.0938 0.83203 5.5703 2.3086 3.0742 3.0742 8.0547 3.0742 11.129 0l28.34-28.34c3.0625 4.3086 6.8242 8.0703 11.133 11.133l-28.34 28.34c-3.0742 3.0742-3.0742 8.0547 0 11.129 1.4766 1.4766 2.3086 3.4805 2.3086 5.5703 0 2.0898-0.83203 4.0938-2.3086 5.5703l-77.934 77.934c-3.0742 3.0703-8.0586 3.0703-11.133 0l-22.262-22.262c-1.4766-1.4766-2.3086-3.4805-2.3125-5.5703 0-2.0898 0.82812-4.0938 2.3047-5.5703zm10.18 126.18 1.2109-15.742h311.2l1.2109 15.742zm323.8-115.05-22.262 22.262c-3.0742 3.0703-8.0586 3.0703-11.133 0l-77.934-77.934c-1.4766-1.4766-2.3086-3.4805-2.3086-5.5703s0.83203-4.0938 2.3086-5.5703c3.0742-3.0742 3.0742-8.0547 0-11.129l-28.34-28.34h0.003907c4.3047-3.0625 8.0664-6.8242 11.129-11.133l28.34 28.34c3.0742 3.0742 8.0586 3.0742 11.129 0 1.4766-1.4766 3.4805-2.3086 5.5703-2.3086 2.0898 0 4.0938 0.83203 5.5703 2.3086l77.934 77.934c1.4766 1.4766 2.3047 3.4805 2.3047 5.5703s-0.83203 4.0938-2.3125 5.5703z"/>
  <path d="m528.03 499.8 11.133-11.133 11.133 11.133-11.133 11.133z"/>
  <path d="m249.71 499.8 11.133-11.133 11.133 11.133-11.133 11.133z"/>
  <path d="m249.7 221.48 11.133-11.133 11.133 11.133-11.133 11.133z"/>
  <path d="m528.02 221.48 11.133-11.133 11.133 11.133-11.133 11.133z"/>
  <path d="m415.74 360.64c0 8.6953-7.0469 15.746-15.742 15.746s-15.746-7.0508-15.746-15.746c0-8.6953 7.0508-15.742 15.746-15.742s15.742 7.0469 15.742 15.742"/>
  <path d="m352.77 486.59v78.723c0 2.0859 0.83203 4.0898 2.3047 5.5664 1.4766 1.4766 3.4805 2.3047 5.5664 2.3047h78.723c2.0859 0 4.0898-0.82812 5.5664-2.3047 1.4766-1.4766 2.3047-3.4805 2.3047-5.5664v-78.723c0-2.0859-0.82812-4.0898-2.3047-5.5664-1.4766-1.4766-3.4805-2.3047-5.5664-2.3047h-78.723c-4.3477 0-7.8711 3.5234-7.8711 7.8711zm15.742 47.23h23.617v23.617h-23.613zm39.359 23.617 0.003906-23.613h23.617v23.617zm23.617-39.359h-23.613v-23.617h23.617zm-39.359-23.617v23.617h-23.613v-23.617z"/>
 </g>
</svg>