<?xml version="1.0" encoding="UTF-8"?>
<!-- The Best Svg Icon site in the world: iconSvg.co, Visit us! https://iconsvg.co -->
<svg fill="#000000" width="800px" height="800px" version="1.1" viewBox="144 144 512 512" xmlns="http://www.w3.org/2000/svg">
 <path d="m375.17 502.75c-1.3906 0-2.793-0.40625-4.0195-1.2578-3.2188-2.2266-4.0273-6.6367-1.7969-9.8555l4.8477-7.0078c2.2266-3.2188 6.6367-4.0312 9.8594-1.7969 3.2188 2.2266 4.0273 6.6367 1.7969 9.8555l-4.8477 7.0078c-1.3828 1.9883-3.5938 3.0547-5.8398 3.0547zm53.523-1.1836c3.2188-2.2266 4.0273-6.6367 1.7969-9.8555l-4.8477-7.0117c-2.2266-3.2188-6.6367-4.0273-9.8555-1.7969-3.2188 2.2266-4.0273 6.6406-1.7969 9.8555l4.8477 7.0117c1.375 1.9883 3.5859 3.0586 5.8359 3.0586 1.3867-0.007812 2.7891-0.41406 4.0195-1.2617zm198.02-285.77-21.445 57.207c-12.664 33.773-44.953 56.148-81.012 56.148h-10.898l38.633 126.45c19.555 63.957-28.285 128.61-95.164 128.61h-113.64c-66.879 0-114.72-64.648-95.164-128.61l38.625-126.45h-10.891c-36.062 0-68.352-22.371-81.012-56.148l-21.453-57.207h91.574c25.113 0 48.602 12.469 62.664 33.297l15.801 23.383h113.36l15.801-23.383c14.062-20.828 37.551-33.297 62.664-33.297zm-329.64 78.254-8.6758-13.27c-7.7539-11.859-20.836-18.938-35.008-18.938h-23.422v10.625h23.422c10.57 0 20.328 5.2812 26.113 14.125l13.586 20.781zm53.336 113.03v-21.254l-17.609 4.4102c-6.3086 1.5781-10.73 7.2461-10.73 13.742v10.273zm102.64 88.629-27.332-39.535c-12.414-17.977-38.965-17.977-51.398 0l-27.312 39.535c-9.3008 13.441 0.31641 31.809 16.688 31.809h72.676c16.348 0.007813 25.98-18.359 16.68-31.809zm24.891-91.727c0-6.5-4.4297-12.168-10.73-13.742l-17.609-4.4102v21.254l28.34 7.1758zm92.211-142.03h-23.09c-14.168 0-27.258 7.0781-35.008 18.938l-8.6758 13.27 3.9805 13.332 13.586-20.781c5.7852-8.8477 15.543-14.125 26.113-14.125h23.09v-10.633z"/>
</svg>