<?xml version="1.0" encoding="UTF-8"?>
<!-- The Best Svg Icon site in the world: iconSvg.co, Visit us! https://iconsvg.co -->
<svg fill="#000000" width="800px" height="800px" version="1.1" viewBox="144 144 512 512" xmlns="http://www.w3.org/2000/svg">
 <path d="m385.49 554.46-22.48 22.051c-1.9883 1.9492-2.0156 5.1406-0.070313 7.125 0.98828 1.0078 2.293 1.5117 3.5977 1.5117 1.2734 0 2.5508-0.48047 3.5273-1.4414l24.895-24.418v37.195c0 2.7812 2.2578 5.0391 5.0391 5.0391s5.0391-2.2578 5.0391-5.0391v-37.195l24.887 24.414c0.97656 0.96094 2.2539 1.4414 3.5273 1.4414 1.3047 0 2.6094-0.50391 3.5977-1.5117 1.9492-1.9844 1.918-5.1758-0.070312-7.125l-22.184-21.758c44.527-2.7266 86.082-19.895 116.55-48.785 29.301-27.773 45.438-63.793 45.438-101.41 0-62.285-45.309-118.92-112.74-140.94-11.227-3.6641-21.176-9.1523-29.367-15.977l-0.23828-0.22656c-0.070312-0.066406-0.16016-0.085937-0.23828-0.15234-10.637-8.9883-18.234-20.262-21.684-32.754l-2.5039-9.0625c-1.1992-4.3438-5.1875-7.1445-10.09-7.0938-4.8047 0.10156-8.7109 3.1016-9.7188 7.4648l-1.7539 7.6172c-5.2617 22.867-24.363 42.055-51.102 51.316-71.723 24.891-115.43 86.449-108.75 153.2 7.1914 71.836 74.156 129.67 156.89 136.51zm-3.9844-10.883c-53.375-40.387-82.016-84.641-85.129-131.54-3.2227-48.453 21.039-100.15 70.086-149.71-20.953 58.242-46.16 186.58 19.824 282.08-1.4766-0.12109-2.9414-0.26172-4.4102-0.41797-0.13672-0.12891-0.21484-0.30469-0.37109-0.42188zm124.3-136.16c-2.4336 47.77-31.523 93.836-86.445 136.93-1.4922 0.13281-2.9922 0.20312-4.4883 0.30078 66.453-95.922 40.738-225.11 19.719-283.05 24.234 23.863 74.633 78.645 71.215 145.82zm60.914-2.8516c0 34.828-15.02 68.246-42.289 94.098-23.172 21.961-53.16 36.762-86.004 43.039 48.984-41.984 75.062-86.918 77.445-133.77 2.9336-57.57-30.648-105.87-56.977-135.45 0.67969 0.23828 1.3516 0.5 2.0391 0.72656 63.273 20.652 105.79 73.441 105.79 131.36zm-168.43-188.85 1.6719-7.2617c0.19141-0.054688 0.40625-0.10547 0.36328-0.29297l2.5 9.0469c2.1797 7.9062 5.7852 15.367 10.578 22.191 0.023437 0.035157 0.023437 0.070313 0.050781 0.10547 15.629 20.418 74.918 189.88-10.812 305.08-0.10938 0.15234-0.13672 0.33203-0.23047 0.49219-1.1758 0-2.3516-0.023438-3.5273-0.046875-0.085937-0.14453-0.10547-0.30859-0.21094-0.44141-85.73-115.2-26.438-284.66-10.816-305.08 0.03125-0.039062 0.035156-0.097656 0.066406-0.13672 4.8906-7.2852 8.4336-15.242 10.367-23.656zm-57.621 58.578c0.52344-0.17969 1.0195-0.39453 1.5352-0.57812-39.629 46.047-58.898 93.68-55.887 139.01 3.0391 45.715 28.484 88.73 75.566 128.07-66.34-14.488-117.27-63.973-123.25-123.84-6.207-62.02 34.797-119.35 102.04-142.66z"/>
</svg>