<?xml version="1.0" encoding="UTF-8"?>
<!-- The Best Svg Icon site in the world: iconSvg.co, Visit us! https://iconsvg.co -->
<svg fill="#000000" width="800px" height="800px" version="1.1" viewBox="144 144 512 512" xmlns="http://www.w3.org/2000/svg">
 <path d="m192.71 450.13c-18.043-21.348-28.875-48.965-28.875-79.098 0-68.094 55.277-123.37 123.37-123.37 53.184 0 98.543 33.738 115.53 81.035 20.719 4 38.652 15.84 50.602 32.293 6.957-1.9375 14.297-2.9609 21.852-2.9609 33.691 0 62.629 20.422 75.145 49.547 4.1719-0.75391 8.4688-1.1328 12.863-1.1328 40.273 0 72.957 32.684 72.957 72.941 0 38.383-29.711 69.871-67.352 72.754-1.8438 0.125-8.9258 0.14062-10.562 0.03125h-293.58c-1.6836 0.10938-3.3867 0.17188-5.1016 0.17188-40.273 0-72.957-32.684-72.957-72.957 0-10.391 2.1875-20.293 6.1094-29.254zm200.44-91.062c17.352 2.0469 31.992 12.957 39.297 28.055 3.793 7.8242 13.18 11.098 21.004 7.3359 6.582-3.1797 13.965-4.9453 21.742-4.9453 24.434 0 44.824 17.477 49.344 40.59 0.91406 4.707 3.9219 8.7539 8.1875 10.957 4.25 2.2188 9.2891 2.3633 13.664 0.42578 5.1328-2.2969 10.832-3.5586 16.816-3.5586 22.891 0 41.469 18.578 41.469 41.453 0 21.82-16.863 39.723-38.258 41.344-1.0547 0.078125-7.6055-0.046875-7.6055-0.046875h-294.86l-4.3945 0.17188c-22.891 0-41.469-18.578-41.469-41.469 0-6.6914 1.5898-13.02 4.4258-18.625 1.5117-1.2109 2.8008-2.6914 3.793-4.3945 6.3125-10.816 17.949-17.758 31.219-18.391l3.2734-0.03125c1.0078 0.03125 2 0.09375 2.9922 0.1875l7.1484 1.3711 5.0078 1.793 3.3516 1.543c7.3359 2.8984 15.809-0.078125 19.633-7.1484 3.1953-5.8867 7.543-11.082 12.723-15.258l3.9375-2.8828 2.6289-1.6055 5.4336-2.6914 5.6836-2.2344c0.21875-0.10938 0.44141-0.21875 0.66016-0.34766 4.0156-2.2656 6.8945-6.2188 7.7461-10.863l2.7227-9.4453 4.582-8.8164 6.0938-7.6055 4.2344-3.8906c8.4688-6.9258 19.238-11.148 30.984-11.336l0.85156 0.09375c1.1641 0.28516 2.3633 0.42578 3.6055 0.42578l2.332-0.17187zm-24.355-29.758c-14.973-29.805-45.926-50.16-81.586-50.16-50.711 0-91.883 41.172-91.883 91.883 0 19.711 6.2188 37.977 16.863 52.883 9.9336-8.5 22.199-14.375 35.676-16.547l10.848-0.92969h0.85156c5.543 0 10.926 0.61328 16.105 1.793l3.2578 0.80469 3.9375-4.6289c7.2891-7.9492 16.121-14.469 26.039-19.051l4.0781-10.738 7.8711-13.414 4.5664-5.7617 8.8164-8.7539 9.0547-6.6758 10.125-5.5117 11.32-4.1562 4.0625-1.0391z" fill-rule="evenodd"/>
</svg>