<?xml version="1.0" encoding="UTF-8"?>
<!-- The Best Svg Icon site in the world: iconSvg.co, Visit us! https://iconsvg.co -->
<svg fill="#000000" width="800px" height="800px" version="1.1" viewBox="144 144 512 512" xmlns="http://www.w3.org/2000/svg">
 <path d="m568.96 261.25h0.003906c7.4453 0 14.434-2.9922 19.684-8.4219 18.016-18.66 11.965-47.391 11.699-48.605-0.375-1.7188-1.625-3.1172-3.293-3.6875-1.1055-0.375-27.391-9.0547-47.773 12.043-9.5586 9.8984-10.531 25.301-3.0391 36.395l-13.109 13.574c-0.42969-0.0625-0.85547-0.14453-1.2891-0.20312-2.1641-35.578-31.102-63.863-66.449-63.863-27.785 0-51.633 17.473-61.633 42.219-10-24.75-33.844-42.219-61.629-42.219-35.18 0-64.012 28.012-66.43 63.348-2.9766 0.0625-5.8984 0.35156-8.7695 0.79688l-13.188-13.652c7.4922-11.094 6.5195-26.496-3.0391-36.395-20.375-21.094-46.668-12.422-47.773-12.043-1.668 0.57031-2.918 1.9688-3.293 3.6875-0.26562 1.2148-6.3164 29.941 11.703 48.605 5.2461 5.4336 12.234 8.4219 19.68 8.4219h0.003906c5.6914 0 11.105-1.7812 15.695-5.0352l8.8984 9.2148c-25.398 8.8359-43.906 32.898-45.109 61.52h-7c-2.7852 0-5.0391 2.2539-5.0391 5.0391l0.003906 37.785c0 2.7812 2.2539 5.0391 5.0391 5.0391h1.5742v178.85h-1.5781c-2.7852 0-5.0391 2.2539-5.0391 5.0391l0.003906 37.785c0 2.7812 2.2539 5.0391 5.0391 5.0391h392.97c2.7852 0 5.0391-2.2539 5.0391-5.0391v-37.785c0-2.7812-2.2539-5.0391-5.0391-5.0391h-1.5742l-0.003906-178.85h1.5742c2.7852 0 5.0391-2.2539 5.0391-5.0391v-37.785c0-2.7812-2.2539-5.0391-5.0391-5.0391h-6.4102c-1.2109-28.785-19.918-52.973-45.551-61.688l8.7422-9.0547c4.5898 3.2617 10.004 5.043 15.695 5.043zm-350.36-15.426c-11.273-11.672-10.434-29.457-9.5742-36.469 6.3164-1.2773 21.941-2.7227 34.434 10.219 6.9922 7.2383 6.9922 19.012 0 26.25-6.6406 6.8945-18.188 6.9023-24.859 0zm246.8-37.27c29.637 0 53.98 23.508 56.355 53.297-27.004 0.74219-50.047 17.922-59.828 42.129-8.9336-22.113-28.938-38.348-52.914-41.57 2.1133-30.055 26.562-53.855 56.387-53.855zm-65.102 63.277c30.234 0 54.938 24.473 56.445 55.117h-112.89c1.5078-30.641 26.211-55.117 56.449-55.117zm-58.16-63.277c29.637 0 53.984 23.508 56.355 53.297-27.004 0.74609-50.047 17.922-59.828 42.129-8.9336-22.109-28.934-38.348-52.91-41.57 2.1133-30.051 26.562-53.855 56.383-53.855zm-65.102 63.277c30.234 0 54.938 24.473 56.445 55.117h-112.89c1.5078-30.641 26.211-55.117 56.445-55.117zm314.41 319.62h-382.89v-27.711h382.89zm-6.6133-37.785h-369.67l0.003906-178.85h369.67zm6.6133-188.93h-382.89v-27.711h382.89zm-11.445-37.785h-112.89c1.5078-30.641 26.211-55.117 56.445-55.117 30.238 0 54.941 24.477 56.449 55.117zm-23.461-107.38c12.586-13.039 28.156-11.539 34.445-10.234 0.875 6.9805 1.7617 24.734-9.5781 36.48-3.3359 3.4492-7.75 5.3477-12.438 5.3477s-9.1016-1.8984-12.43-5.3477c-6.9922-7.2344-6.9922-19.008 0-26.246z"/>
</svg>