<?xml version="1.0" encoding="UTF-8"?>
<!-- The Best Svg Icon site in the world: iconSvg.co, Visit us! https://iconsvg.co -->
<svg fill="#000000" width="800px" height="800px" version="1.1" viewBox="144 144 512 512" xmlns="http://www.w3.org/2000/svg">
 <g>
  <path d="m622.6 569.12h-4.5156v-264.63c5.3828-1.7656 9.0312-6.7773 9.0508-12.441v-18.082c-0.007812-7.2695-5.8984-13.164-13.168-13.172h-190.54c-7.2695 0.011719-13.156 5.9023-13.168 13.172v18.082c0.023438 5.6641 3.6719 10.676 9.0547 12.441v154.82c-84.578-24.055-130.65 7.6797-154.51 38.934v0.003906c-12.086 16.098-18.582 35.699-18.5 55.828v15.039h-2.3633 0.003906c-7.2773 0-13.18 5.8945-13.188 13.168v11.418c0.007812 7.2695 5.9023 13.16 13.176 13.168h235.86c4.5703 0.015625 8.8164-2.3516 11.207-6.2422l12.414-20.074 12.414 20.074c2.3906 3.8945 6.6367 6.2578 11.207 6.2422h95.574c7.2695-0.007813 13.164-5.8984 13.172-13.168v-11.418c-0.007812-7.2695-5.9023-13.16-13.172-13.168zm-204.47-295.15c0-2.9258 2.3711-5.293 5.293-5.3008h190.53c2.9219 0.007813 5.293 2.375 5.2969 5.3008v18.082c-0.003906 2.9219-2.375 5.293-5.2969 5.2969h-190.53c-2.9219-0.003906-5.293-2.375-5.293-5.2969zm-163.98 280.11c-0.085938-18.402 5.8438-36.332 16.891-51.051 22.828-29.891 67.543-60.172 151.04-34.684 1.1953 0.36328 2.4883 0.14062 3.4922-0.60156 1.0039-0.74219 1.5938-1.9141 1.5938-3.1602v-159.37h183.04v263.9h-356.06zm230.14 42.395h0.003906c-0.97266 1.5547-2.6719 2.5039-4.5078 2.5117h-235.86c-2.9258-0.003906-5.2969-2.375-5.3047-5.2969v-11.418c0.007812-2.9219 2.3789-5.293 5.3047-5.2969h252.42zm143.61-2.7852h0.003907c-0.007813 2.9219-2.3789 5.293-5.3008 5.2969h-95.574c-1.8398 0.007813-3.5508-0.94531-4.5117-2.5117l-12.047-19.484h112.13c2.9219 0.003907 5.293 2.375 5.3008 5.2969z"/>
  <path d="m238.62 536.11c0-1.043-0.41406-2.043-1.1523-2.7812s-1.7383-1.1562-2.7812-1.1562h-56.062c-2.9258-0.003907-5.293-2.3711-5.3008-5.2969v-11.414c0.007812-2.9258 2.375-5.293 5.3008-5.2969h66.934c2.1719 0 3.9336-1.7617 3.9336-3.9375 0-2.1719-1.7617-3.9336-3.9336-3.9336h-56.707v-15.023c-0.085937-18.406 5.8477-36.336 16.895-51.055 22.828-29.895 67.555-60.176 151.04-34.68 1.1953 0.36328 2.4883 0.14062 3.4922-0.60156 1.0039-0.74609 1.5938-1.918 1.5938-3.168v-159.36h183.04v9.3125c0 2.1719 1.7617 3.9336 3.9375 3.9336 2.1719 0 3.9336-1.7617 3.9336-3.9336v-10.043c5.3828-1.7656 9.0312-6.7812 9.0547-12.445v-18.078c-0.007813-7.2695-5.9023-13.164-13.176-13.172h-190.5 0.003906c-7.2734 0.007812-13.168 5.9023-13.176 13.172v18.086c0.023438 5.668 3.668 10.684 9.0547 12.445v154.84c-84.574-24.059-130.68 7.6758-154.51 38.93v0.003906c-12.09 16.094-18.586 35.699-18.5 55.828v15.039h-2.3633c-3.4961-0.007812-6.8516 1.3711-9.332 3.8398-2.4805 2.4648-3.875 5.8164-3.8828 9.3125v11.414c0.015625 7.2656 5.9062 13.148 13.172 13.156h56.062c1.043 0 2.043-0.41406 2.7812-1.1523s1.1523-1.7422 1.1523-2.7852zm114.21-328.95c0.003906-2.9258 2.375-5.2969 5.3047-5.3008h190.52-0.003906c2.9297 0.003907 5.3008 2.375 5.3047 5.3008v18.086c-0.003906 2.9258-2.375 5.2969-5.3047 5.3047h-190.5 0.003906c-1.4102 0.003906-2.7656-0.55469-3.7617-1.5469-1-0.99609-1.5586-2.3477-1.5625-3.7578z"/>
 </g>
</svg>