<?xml version="1.0" encoding="UTF-8"?>
<!-- The Best Svg Icon site in the world: iconSvg.co, Visit us! https://iconsvg.co -->
<svg fill="#000000" width="800px" height="800px" version="1.1" viewBox="144 144 512 512" xmlns="http://www.w3.org/2000/svg">
 <path d="m580.33 384.25c-0.83203-9.7695-2.457-19.457-4.8672-28.961l41.172-11.234 17.223-17.215-11.133-11.133-14.277 14.266-37.582 10.234c-3.4219-9.7695-7.6797-19.223-12.727-28.262l42.43-23.145 17.547-17.09-11.133-11.133-14.957 14.957-42.145 23.004c-4.9844-7.3281-10.492-14.285-16.484-20.812l45.352-45.352-11.133-11.129-45.352 45.352v-0.003906c-7.4297-6.7969-15.414-12.969-23.867-18.449l18.359-40.391 14.738-14.738-11.109-11.133-16.754 16.754-18.836 41.445c-8.0547-4.2852-16.418-7.9492-25.027-10.965l10.234-37.582 14.273-14.266-11.125-11.129-17.223 17.215-11.234 41.172c-9.5039-2.4062-19.184-4.0352-28.953-4.8633v-55.832h-15.742v201.41l-228.97 228.97c-6.207 6.207-8.6289 15.254-6.3594 23.73 2.2734 8.4805 8.8945 15.102 17.375 17.375 8.4805 2.2695 17.527-0.15234 23.734-6.3594l194.22-194.22 11.129-11.133 23.617-23.617 201.41 0.003906v-15.746zm-24.836-39.832-28.285 7.7148c-2.1719-6.5078-4.8711-12.828-8.0781-18.895l25.145-13.715v0.003906c4.4219 7.9727 8.1758 16.297 11.219 24.891zm-19.562-38.266-25.082 13.68c-2.6836-3.7852-5.5742-7.4219-8.6602-10.895l19.949-19.938c4.9727 5.4062 9.5781 11.137 13.793 17.152zm-24.941-28.301-19.949 19.949h0.003906c-3.5586-3.1641-7.2891-6.1211-11.18-8.8633l11.957-26.301c6.7578 4.5938 13.164 9.6797 19.168 15.215zm-32.723-23.41-11.918 26.223c-5.9414-3.1172-12.121-5.75-18.484-7.875l7.7148-28.285v0.003907c7.8008 2.7344 15.387 6.0586 22.688 9.9336zm-37.785-14.531-7.8711 28.742v-0.003906c-5.5703-1.0703-11.207-1.7656-16.871-2.0781v-31.102c8.3555 0.84375 16.637 2.3281 24.766 4.4414zm-245.84 377.92c-3.4453 3.4492-9.0352 3.4492-12.484 0-3.4492-3.4453-3.4492-9.0352 0-12.484l194.22-194.22 12.484 12.484zm233.58-233.58-28.227 28.23-12.488-12.484 28.23-28.23v-89.574c26.43 1.9297 51.281 13.301 70.02 32.039s30.109 43.59 32.043 70.02zm105.2 0c-0.30859-5.6797-1.0039-11.336-2.0781-16.926l28.742-7.8711c2.1133 8.1406 3.5977 16.43 4.4375 24.797z"/>
</svg>