<?xml version="1.0" encoding="UTF-8"?>
<!-- The Best Svg Icon site in the world: iconSvg.co, Visit us! https://iconsvg.co -->
<svg fill="#000000" width="800px" height="800px" version="1.1" viewBox="144 144 512 512" xmlns="http://www.w3.org/2000/svg">
 <g>
  <path d="m203.91 320.17c-0.027344 7.9258 3.1211 15.535 8.7383 21.125l63.93 63.918c13.914 13.91 32.785 21.727 52.461 21.73 1.5273 0 3.0586-0.046875 4.5938-0.14062l62.266-3.8594v3.5-0.003906c0 6.5195 5.2852 11.809 11.809 11.809h8.1758-0.003906c6.5234 0 11.809-5.2891 11.809-11.809v-41.918c0-6.5234-5.2852-11.809-11.809-11.809h-8.1719c-6.5234 0-11.809 5.2852-11.809 11.809v30.531l-62.75 3.8945-0.003906-0.003906c-18.98 1.1797-37.551-5.8438-51.004-19.285l-63.914-63.93c-4.125-4.125-6.4453-9.7227-6.4453-15.559 0-5.8359 2.3203-11.434 6.4453-15.559l84.664-84.664c7.0352 18.5 37.52 49.414 41.824 53.723 12.012 12.254 25.035 23.477 38.934 33.543 4.5547 3.3398 9.4609 6.168 14.633 8.4297l-58.613 58.617c-3.3398 3.3398-4.3672 8.3438-2.6133 12.73 1.75 4.3828 5.9453 7.3008 10.664 7.4219l32.691 0.82812 0.003906-0.003906c2.1719 0.058594 3.9805-1.6602 4.0352-3.8359 0.054688-2.1719-1.6602-3.9805-3.8359-4.0352l-32.695-0.82812v0.003906c-1.5742-0.039062-2.9727-1.0156-3.5586-2.4766-0.58203-1.4609-0.23828-3.1328 0.875-4.2422l64.66-64.656c11.512-11.512-36.035-59.727-41.492-65.184h-0.003907c-12.012-12.254-25.039-23.473-38.938-33.543-13.945-9.7031-22.043-12.164-26.246-7.9492l-4.793 4.7891c-4.9844-11.949-19.02-43.18-51.406-35.152-21.168 5.25-40.305 28.34-48.758 58.863-7.7773 28.074-4.2734 54.316 9.0234 69.379h0.003906c-2.2227 4.2617-3.3828 8.9961-3.375 13.801zm199.86 64.352c0-2.1758 1.7617-3.9375 3.9375-3.9375h8.1758-0.003906c1.0469 0 2.0469 0.41406 2.7852 1.1523 0.73828 0.73828 1.1523 1.7383 1.1523 2.7852v41.918c0 1.043-0.41406 2.043-1.1523 2.7812-0.73828 0.73828-1.7383 1.1523-2.7852 1.1523h-8.1719c-2.1758 0-3.9375-1.7617-3.9375-3.9336zm-40.938-128.97c28.367 28.367 40.32 48.156 41.105 53.668-5.5547-0.78906-25.305-12.762-53.66-41.113-28.355-28.352-40.328-48.152-41.109-53.668 5.5039 0.75391 25.301 12.75 53.664 41.113zm-156.98-16.453c7.707-27.816 24.613-48.75 43.062-53.328 2.7031-0.69141 5.4766-1.0469 8.2656-1.0664 18.297 0 27.945 17.055 34.422 32.668 0.28516 0.67969 0.53516 1.2852 0.78906 1.832l-70.008 70.102c-7.1719-9.7891-8.7188-25.977-3.8359-43.598 5.668-20.469 18.02-35.816 31.488-39.156 9.8398-2.4453 17.789 0.98047 24.301 10.473h-0.003906c1.25 1.7422 3.6602 2.168 5.4297 0.95703 1.7656-1.2148 2.2383-3.6172 1.0625-5.4062-8.3438-12.176-19.645-16.898-32.668-13.66-16.16 4.0078-30.75 21.555-37.16 44.695-5.668 20.469-3.4102 39.668 5.7695 51.359l-4.8125 4.7852c-10.543-13.297-12.922-36.047-6.1016-60.656z"/>
  <path d="m328.28 320.4c-9.7305-6.8789-22.152-8.7188-33.457-4.9492 1.4023-7.7148-0.28516-15.672-4.6992-22.152-4.1445-6.6328-8.3711-7.3828-11.184-6.8594-4.3984 0.83203-7.6641 5.2461-8.957 12.117-2.1758 10.938 1.5625 22.215 9.8398 29.688 0.085937 0.30469 0.21094 0.60156 0.37109 0.87891 7.5508 10.941 20.168 17.27 33.453 16.781 2.6719 0.003906 5.3359-0.23828 7.9609-0.72266 8.6094-1.6211 14.348-5.7539 15.352-11.047 0.63672-3.4062-0.33203-8.5234-8.6797-13.734zm-50.773-18.926c0.60938-4.9844 2.3633-7.125 2.8555-7.293 0.29297 0.03125 1.4844 0.70312 3.1016 3.293 7.1328 11.414 3.207 19.969 0.37109 23.945l-0.003907 0.003906c-5.0469-5.3359-7.3828-12.68-6.3438-19.949zm42.668 35.973c-10.02 1.9023-23.488-0.48828-31.242-9.7227 0.23047-0.27734 0.46484-0.5625 0.69922-0.86719 5.4805-4.1133 17.785-10.234 34.492 0.21094 3.8125 2.3906 5.3203 4.5352 5.1172 5.6055-0.25 1.2266-2.9141 3.6055-9.0859 4.7734z"/>
  <path d="m338.57 279.81c-10.301-10.289-24.27-16.07-38.828-16.066-14.559 0.007812-28.523 5.793-38.816 16.09-10.293 10.297-16.078 24.262-16.078 38.824 0 14.559 5.7852 28.523 16.078 38.82s24.258 16.086 38.816 16.09c14.559 0.003907 28.527-5.7734 38.828-16.066 10.285-10.309 16.066-24.281 16.066-38.844 0-14.566-5.7812-28.539-16.066-38.848zm-5.5664 72.125c-8.8242 8.8164-20.789 13.766-33.266 13.762-12.473-0.003907-24.434-4.9609-33.254-13.781-8.8203-8.8242-13.773-20.785-13.773-33.262 0-12.473 4.9531-24.438 13.773-33.258 8.8203-8.8242 20.781-13.781 33.254-13.785 12.477-0.003906 24.441 4.9492 33.266 13.766 8.8125 8.832 13.762 20.801 13.762 33.277 0 12.48-4.9492 24.445-13.762 33.281z"/>
  <path d="m643.21 611.78h-74.453v-29.09c0.82031 0.0625 1.6406 0.13672 2.4492 0.13672 13.434-0.61328 25.777-7.5547 33.281-18.715 4.9297-7.2188 6.0586-14.168 3.0234-18.617-1.9414-2.8438-6.2539-5.7695-15.812-3.5703h0.003906c-11.566 2-21.52 9.3203-26.875 19.766-5.3594-10.445-15.312-17.766-26.879-19.766-9.5547-2.1992-13.875 0.72656-15.812 3.5703-3.0352 4.4414-1.9062 11.414 3.0234 18.617 7.5039 11.156 19.852 18.098 33.281 18.715 0.78906 0 1.625-0.074219 2.4453-0.13672v29.09h-155.26v-29.125c1.0469 0.10156 2.0898 0.17188 3.125 0.17188 13.426-0.61328 25.77-7.5469 33.277-18.699 4.9297-7.2188 6.0625-14.168 3.0312-18.617-1.9453-2.8438-6.2578-5.7656-15.816-3.5703-11.566 1.9961-21.527 9.3086-26.891 19.75-5.3555-10.445-15.309-17.766-26.875-19.766-9.5547-2.1992-13.875 0.72656-15.816 3.5703-3.0312 4.4414-1.9023 11.414 3.0273 18.617 7.5039 11.16 19.852 18.102 33.285 18.715 0.58203 0 1.1797-0.066406 1.7656-0.097656v29.051h-155.25v-29.09c0.82031 0.0625 1.6367 0.13672 2.4492 0.13672h-0.003907c13.434-0.61719 25.777-7.5586 33.281-18.715 4.9297-7.2188 6.0586-14.168 3.0273-18.617-1.9414-2.8438-6.2578-5.7656-15.812-3.5703-11.566 2-21.52 9.3203-26.879 19.766-5.3555-10.445-15.309-17.766-26.875-19.766-9.5625-2.1992-13.875 0.72656-15.816 3.5703-3.0352 4.4414-1.9023 11.414 3.0273 18.617 7.5039 11.16 19.852 18.102 33.285 18.715 0.78906 0 1.625-0.074219 2.4453-0.13672v29.09h-74.453c-2.1719 0-3.9336 1.7617-3.9336 3.9336 0 2.1758 1.7617 3.9375 3.9336 3.9375h483.04c2.1758 0 3.9375-1.7617 3.9375-3.9375 0-2.1719-1.7617-3.9336-3.9375-3.9336zm-49.742-62.188c4.3633-1.0156 6.9336-0.55859 7.5469 0.33594 0.69922 1.0234 0.5 4.5781-3.0273 9.7422-5.7656 8.4492-17.004 16.332-29.082 15.168 0.69141-6.3594 4.5156-20.617 24.562-25.238zm-61.797 10.078c-3.543-5.1641-3.7266-8.7188-3.0273-9.7422 0.36719-0.53516 1.4336-0.91016 3.1484-0.91016l0.003906-0.003906c1.4766 0.027344 2.9453 0.21875 4.3789 0.57422 20.047 4.6211 23.871 18.895 24.566 25.246-12.059 1.1758-23.312-6.707-29.082-15.156zm-100.65-10.078c4.3672-1.0156 6.9336-0.55859 7.5469 0.33594 0.69922 1.0234 0.49609 4.5781-3.0273 9.7383-5.7734 8.4609-17.02 16.359-29.125 15.168 0.66016-6.3398 4.3867-20.578 24.598-25.234zm-61.797 10.07c-3.543-5.1641-3.7266-8.7148-3.0273-9.7383 0.36328-0.53516 1.4297-0.91016 3.1484-0.91016h0.003907c1.4766 0.027344 2.9492 0.22266 4.3828 0.57422 20.047 4.6211 23.867 18.895 24.566 25.246-12.062 1.1758-23.328-6.707-29.094-15.16zm-102-10.07c4.3594-1.0156 6.9336-0.55859 7.5469 0.33594 0.69922 1.0234 0.49609 4.5781-3.0312 9.7383-5.7695 8.4609-17.023 16.359-29.125 15.168 0.64062-6.3398 4.375-20.578 24.59-25.234zm-61.797 10.07c-3.5234-5.1641-3.7227-8.7148-3.0273-9.7383 0.36719-0.53516 1.4336-0.91016 3.168-0.91016h0.003906c1.4766 0.027344 2.9453 0.22266 4.3789 0.57422 20.051 4.6211 23.875 18.895 24.57 25.246-12.109 1.1758-23.359-6.707-29.129-15.16z"/>
  <path d="m443.21 390.39c18.113-0.59375 35.742 5.8867 49.156 18.066 21.91 19.887 33.023 53.965 33.023 101.29 0 2.1758 1.7617 3.9375 3.9375 3.9375 2.1719 0 3.9375-1.7617 3.9375-3.9375 0-49.73-12.023-85.805-35.734-107.23h-0.003906c-14.98-13.715-34.812-20.895-55.102-19.949-2.1094 0.27734-3.6133 2.1797-3.4023 4.2969 0.21484 2.1133 2.0664 3.6797 4.1875 3.5312z"/>
  <path d="m442.11 433.9c1.0352 0.51562 15.598 9.3984 15.598 95.613 0 2.1758 1.7617 3.9375 3.9375 3.9375 2.1719 0 3.9375-1.7617 3.9375-3.9375 0-94.859-17.27-103.12-22.566-103.42-2.1602-0.085938-3.9961 1.5625-4.1406 3.7188-0.10547 1.9844 1.2812 3.7344 3.2344 4.0859z"/>
  <path d="m471.43 419.65c-1.8555-1.1406-4.2812-0.55859-5.4219 1.2969-1.1367 1.8555-0.55469 4.2812 1.3008 5.4219 0.21484 0.12891 21.57 13.672 21.57 51.895 0 2.1758 1.7617 3.9375 3.9336 3.9375 2.1758 0 3.9375-1.7617 3.9375-3.9375 0.003906-42.586-24.289-57.98-25.32-58.613z"/>
  <path d="m492.81 491.52c-2.1719 0-3.9336 1.7617-3.9336 3.9336v12.566c0 2.1719 1.7617 3.9336 3.9336 3.9336 2.1758 0 3.9375-1.7617 3.9375-3.9336v-12.566c0-1.043-0.41406-2.043-1.1523-2.7812-0.73828-0.73828-1.7383-1.1523-2.7852-1.1523z"/>
 </g>
</svg>