<?xml version="1.0" encoding="UTF-8"?>
<!-- The Best Svg Icon site in the world: iconSvg.co, Visit us! https://iconsvg.co -->
<svg fill="#000000" width="800px" height="800px" version="1.1" viewBox="144 144 512 512" xmlns="http://www.w3.org/2000/svg">
 <path d="m455.13 213.07c-15.523-11.164-34.559-17.742-55.137-17.742h-0.03125c-20.562 0-39.598 6.582-55.121 17.742-15.477-11.18-34.496-17.742-55.059-17.742h-0.03125c-52.16 0-94.434 42.273-94.434 94.434v0.03125h-15.742c-8.6914 0-15.742 7.0547-15.742 15.742v110.21c0 8.6914 7.0547 15.742 15.742 15.742h7.8711v31.488h-7.8711c-8.6914 0-15.742 7.0547-15.742 15.742v110.21c0 8.6914 7.0547 15.742 15.742 15.742h440.83c8.6914 0 15.742-7.0547 15.742-15.742v-110.21c0-8.6914-7.0547-15.742-15.742-15.742h-7.8711v-31.488h7.8711c8.6914 0 15.742-7.0547 15.742-15.742v-110.21c0-8.6914-7.0547-15.742-15.742-15.742h-15.742c0-52.176-42.289-94.465-94.465-94.465 0 0-4.2344 0 0 0-20.562 0-39.582 6.5664-55.074 17.742zm149.54 281.39v78.719h-409.34v-78.719zm-362.11 19.648c-10.879 0-19.711 8.832-19.711 19.711 0 10.879 8.832 19.711 19.711 19.711 10.879 0 19.711-8.832 19.711-19.711 0-10.879-8.832-19.711-19.711-19.711zm-23.617-51.137h362.11v-31.488h-362.11v31.488zm385.73-141.7v78.719h-409.34v-78.719zm-362.11 19.648c-10.879 0-19.711 8.832-19.711 19.711s8.832 19.711 19.711 19.711c10.879 0 19.711-8.832 19.711-19.711s-8.832-19.711-19.711-19.711zm79.824-105.01c-9.4922-5.7773-20.656-9.1016-32.59-9.1016h-0.03125c-34.762 0-62.945 28.184-62.945 62.945v0.03125h78.719v-0.55078l0.015625-0.92969 0.015625-0.69141 0.015625-0.72266 0.015625-0.44141 0.015625-0.64453 0.046875-0.91406 0.046875-0.89844 0.046875-0.78906 0.0625-0.91406 0.0625-0.70703 0.0625-0.64453 0.046875-0.47266 0.0625-0.66016 0.078125-0.69141c1.7773-15.934 7.543-30.668 16.246-43.203zm172.08 53.875h78.719c0-34.777-28.199-62.977-62.977-62.977-11.934 0-23.098 3.3203-32.605 9.1172 8.7227 12.516 14.484 27.27 16.262 43.219l0.078125 0.69141 0.078125 0.70703 0.03125 0.44141 0.0625 0.62891 0.0625 0.76953 0.0625 0.92969 0.0625 0.91406 0.03125 0.69141 0.03125 0.70703 0.015625 0.45703 0.03125 0.66016 0.015625 0.89844 0.03125 0.91406v1.2305zm-51.277-45.832c-11.273-10.629-26.465-17.145-43.188-17.145h-0.03125c-16.703 0-31.898 6.5195-43.172 17.145-0.30078 0.33203-0.59766 0.66016-0.91406 0.96094-10.297 10.043-17.113 23.602-18.562 38.73l-0.0625 0.61328-0.046875 0.61328-0.0625 0.82031-0.046875 0.80469-0.03125 0.82031-0.03125 0.80469-0.015625 0.82031v0.84766h125.95v-0.82031l-0.015625-0.82031-0.03125-0.67578-0.03125-0.80469-0.0625-1.1953-0.046875-0.58203c-1.1953-15.633-8.1094-29.645-18.672-39.957-0.33203-0.31641-0.62891-0.64453-0.92969-0.97656z" fill-rule="evenodd"/>
</svg>