<?xml version="1.0" encoding="UTF-8"?>
<!-- The Best Svg Icon site in the world: iconSvg.co, Visit us! https://iconsvg.co -->
<svg fill="#000000" width="800px" height="800px" version="1.1" viewBox="144 144 512 512" xmlns="http://www.w3.org/2000/svg">
 <path d="m448.52 202.85c-7.3164 0-13.23 5.9336-13.23 13.25s5.9141 13.23 13.23 13.23c7.3164 0 13.25-5.9141 13.25-13.23 0-7.3203-5.9336-13.25-13.25-13.25zm0 0c-7.3164 0-13.23 5.9336-13.23 13.25s5.9141 13.23 13.23 13.23c7.3164 0 13.25-5.9141 13.25-13.23 0-7.3203-5.9336-13.25-13.25-13.25zm68.246 10.465-18.742-4.6758c-2.2305-19.891-19.074-35.352-39.566-35.352h-47.398c-15.781 0-30.535 5.332-42.352 14.469l-54.602 42.207h28.762l-24.051 99.191h73.223c3.9141 0 7.082 3.168 7.082 7.082s-3.168 7.082-7.082 7.082l-76.66 0.003906-4.5898 18.898c-6.5703 27.102-25.77 49.398-51.617 59.902 67.332 39.871 119.56 130.2 131.61 204.59 20.242-12.68 36.52-30.113 47.734-50.355 11.211-20.242 17.355-43.273 17.355-67.164l0.003906-223.06 15.461-4.9766c16.082-5.1758 26.973-20.137 26.973-37.02h42.512c0-14.578-9.918-27.277-24.051-30.82zm-40.582 13.215s-0.054688 0.089844-0.17578 0.24609c-0.79687 1.1875-4.4648 6.4844-12.012 15.586-8.2734 9.957-18.953 15.34-30.289 15.766-0.49219 0.035156-1.0078 0.054688-1.5234 0.054688-9.7578 0-18.156-5.6875-22.141-13.906l-3.4219-7.7227c-9.5977-21.84 6.4141-46.336 30.27-46.336h19.926c12.879 0 23.328 10.449 23.328 23.328 0.011719 4.8164-1.4609 9.2812-3.9609 12.984zm-27.664-23.68c-7.3164 0-13.23 5.9336-13.23 13.25s5.9141 13.23 13.23 13.23c7.3164 0 13.25-5.9141 13.25-13.23 0-7.3203-5.9336-13.25-13.25-13.25zm0 0c-7.3164 0-13.23 5.9336-13.23 13.25s5.9141 13.23 13.23 13.23c7.3164 0 13.25-5.9141 13.25-13.23 0-7.3203-5.9336-13.25-13.25-13.25zm0 0c-7.3164 0-13.23 5.9336-13.23 13.25s5.9141 13.23 13.23 13.23c7.3164 0 13.25-5.9141 13.25-13.23 0-7.3203-5.9336-13.25-13.25-13.25z"/>
</svg>