<?xml version="1.0" encoding="UTF-8"?>
<!-- The Best Svg Icon site in the world: iconSvg.co, Visit us! https://iconsvg.co -->
<svg fill="#000000" width="800px" height="800px" version="1.1" viewBox="144 144 512 512" xmlns="http://www.w3.org/2000/svg">
 <g>
  <path d="m580.36 168.46c-1.1797-2.625-3.6953-4.4023-6.5664-4.6289l-33.008-2.5352c-46.152-3.5312-93.078-5.3359-139.47-5.3359h-2.6289c-46.391 0-93.316 1.8008-139.47 5.3594l-33.008 2.5117c-2.8711 0.21875-5.3984 1.9844-6.582 4.6094-1.1875 2.625-0.84375 5.6875 0.89062 7.9883l21.711 28.938-6.5977 52.742c-11.754 94.203-11.754 189.5 0 283.71l6.5977 52.742-21.711 29c-1.7344 2.3008-2.0781 5.3633-0.89062 7.9883 1.1836 2.625 3.7109 4.3945 6.582 4.6094l33.008 2.5352c46.152 3.5586 93.078 5.3594 139.47 5.3594h2.6289c46.391 0 93.316-1.8008 139.47-5.3594l33.008-2.5352c2.8711-0.21484 5.3984-1.9844 6.5859-4.6094 1.1836-2.625 0.84375-5.6875-0.89453-7.9883l-21.711-28.938 6.5977-52.742c5.8789-47.156 8.8242-94.637 8.8164-142.16-0.011719-47.328-2.9531-94.613-8.8164-141.58l-6.5977-52.742 21.711-28.969c1.7227-2.2969 2.0586-5.3516 0.875-7.9688zm-22.043 453.07-18.711 1.4336c-45.754 3.5273-92.27 5.3125-138.26 5.3125h-2.6289c-45.988 0-92.504-1.7852-138.26-5.3125l-18.711-1.4336 12.621-16.867h291.27zm-307.01-361.44 6.0781-49.031h285.23l6.1328 49.035c5.7891 46.496 8.6914 93.312 8.6875 140.17-0.003906 46.676-2.8945 93.301-8.6562 139.62l-6.1641 49.035h-285.23l-6.1641-49.035c-11.59-92.902-11.59-186.88 0-279.79zm294.33-64.777h-291.27l-12.652-16.867 18.711-1.4336c45.754-3.5273 92.27-5.3125 138.26-5.3125h2.6289c45.988 0 92.504 1.7852 138.26 5.3125l18.711 1.4336z"/>
  <path d="m498.4 471.92-43.297-32.52c-13.637-10.195-30.203-15.719-47.23-15.746v-55.141h15.742c16.699-0.019531 32.707-6.6602 44.512-18.469 11.805-11.805 18.445-27.812 18.465-44.508 0-2.0898-0.82812-4.0898-2.3047-5.5664-1.4766-1.4766-3.4805-2.3047-5.5664-2.3047h-23.617c-11.254 0.003907-22.305 3.0273-31.996 8.7539-9.6914 5.7266-17.672 13.945-23.105 23.805-5.4375-9.8594-13.418-18.078-23.109-23.805-9.6914-5.7266-20.738-8.75-31.996-8.7539h-23.617c-4.3477 0-7.8711 3.5234-7.8711 7.8711 0.019531 16.695 6.6602 32.703 18.465 44.508 11.809 11.809 27.816 18.449 44.512 18.469h15.742v55.105-0.003907c-17.027 0.03125-33.59 5.5547-47.23 15.746l-44.082 33.062c-2.7109 2.0312-3.8164 5.5703-2.7461 8.7852 1.0703 3.2148 4.0781 5.3828 7.4688 5.3828h188.23 0.64453c0.53125 0.003906 1.0586-0.050782 1.5742-0.15625 3.2188-0.63281 5.707-3.1992 6.2461-6.4336s-0.98828-6.4648-3.8281-8.1055zm-43.297-158.51h15.09c-1.875 11-7.5781 20.984-16.102 28.188-8.5234 7.1992-19.316 11.16-30.477 11.172h-15.09c1.875-11 7.5781-20.984 16.102-28.184 8.5234-7.2031 19.32-11.16 30.477-11.176zm-78.719 39.359c-11.16-0.011719-21.953-3.9727-30.477-11.172-8.5234-7.2031-14.227-17.188-16.102-28.188h15.09c11.16 0.015625 21.953 3.9727 30.477 11.176 8.5234 7.1992 14.227 17.184 16.102 28.184zm-47.234 118.08 25.191-18.895c10.914-8.1523 24.164-12.57 37.785-12.594h15.746c13.621 0.027344 26.871 4.4414 37.785 12.594l25.121 18.895z"/>
  <path d="m281.92 541.7h236.16c2.0898 0 4.0898-0.82812 5.5664-2.3047 1.4766-1.4766 2.3047-3.4805 2.3047-5.5664v-267.65c0-2.0898-0.82812-4.0898-2.3047-5.5664-1.4766-1.4766-3.4766-2.3086-5.5664-2.3086h-236.16c-4.3477 0-7.8711 3.5273-7.8711 7.875v267.65c0 2.0859 0.82812 4.0898 2.3047 5.5664 1.4766 1.4766 3.4805 2.3047 5.5664 2.3047zm7.8711-267.65h220.42v251.9h-220.42z"/>
 </g>
</svg>