<?xml version="1.0" encoding="UTF-8"?>
<!-- The Best Svg Icon site in the world: iconSvg.co, Visit us! https://iconsvg.co -->
<svg fill="#000000" width="800px" height="800px" version="1.1" viewBox="144 144 512 512" xmlns="http://www.w3.org/2000/svg">
 <g>
  <path d="m488.04 371.46h-7.9453c-2.7812 0-5.0391 2.2539-5.0391 5.0391 0 2.7812 2.2539 5.0391 5.0391 5.0391h7.9453c2.7812 0 5.0391-2.2539 5.0391-5.0391-0.003906-2.7812-2.2578-5.0391-5.0391-5.0391z"/>
  <path d="m522.83 341.37h-7.9453c-2.7812 0-5.0391 2.2539-5.0391 5.0391 0 2.7812 2.2539 5.0391 5.0391 5.0391h7.9453c2.7812 0 5.0391-2.2539 5.0391-5.0391s-2.2578-5.0391-5.0391-5.0391z"/>
  <path d="m521.66 387h-7.9453c-2.7812 0-5.0391 2.2539-5.0391 5.0391 0 2.7812 2.2539 5.0391 5.0391 5.0391h7.9453c2.7812 0 5.0391-2.2539 5.0391-5.0391 0-2.7812-2.2578-5.0391-5.0391-5.0391z"/>
  <path d="m560.16 416.12h-7.9453c-2.7812 0-5.0391 2.2539-5.0391 5.0391 0 2.7812 2.2539 5.0391 5.0391 5.0391h7.9453c2.7812 0 5.0391-2.2539 5.0391-5.0391-0.003906-2.7812-2.2578-5.0391-5.0391-5.0391z"/>
  <path d="m485.51 413.21h-7.9453c-2.7812 0-5.0391 2.2539-5.0391 5.0391 0 2.7812 2.2539 5.0391 5.0391 5.0391h7.9453c2.7812 0 5.0391-2.2539 5.0391-5.0391s-2.2539-5.0391-5.0391-5.0391z"/>
  <path d="m554.39 374.45c0-2.7812-2.2539-5.0391-5.0391-5.0391h-7.9453c-2.7812 0-5.0391 2.2539-5.0391 5.0391 0 2.7812 2.2539 5.0391 5.0391 5.0391h7.9453c2.7812 0 5.0391-2.2578 5.0391-5.0391z"/>
  <path d="m264.29 496.35h76.906c2.7812 0 5.0391-2.2539 5.0391-5.0391 0-2.7812-2.2539-5.0391-5.0391-5.0391l-76.906 0.003906c-2.7812 0-5.0391 2.2539-5.0391 5.0391 0 2.7812 2.2578 5.0352 5.0391 5.0352z"/>
  <path d="m213.5 547.25c19.039 32.434 54.266 54.273 94.52 54.273h183.97c40.25 0 75.477-21.836 94.516-54.273 0.007812-0.019531 0.023438-0.03125 0.027344-0.050781 9.5156-16.227 14.996-35.086 14.996-55.215v-51.906c0-2.7812-2.2539-5.0391-5.0391-5.0391h-7.082c0.37109-6.2773-0.03125-12.582-1.293-18.785l-11.949-58.582c-5.5234-27.078-29.543-46.754-57.164-46.852-0.042969 0.003907-0.089844 0.003907-0.13672 0-0.046875 0-0.097656-0.003906-0.13672 0-27.621 0.097657-51.641 19.773-57.164 46.852l-11.949 58.582c-1.2656 6.2031-1.6641 12.508-1.293 18.785h-20.051l26.602-126.33c4.9531-23.523-5.7773-46.715-25.023-58.832 0.64453-11.746 8.7539-30.125 12.07-36.652 0.70703-1.3945 0.72656-3.043 0.050782-4.457-0.67578-1.4102-1.9727-2.4297-3.5039-2.7539l-35.094-7.3867c-2.3008-0.5-4.6445 0.69141-5.6211 2.8398-7.1602 15.684-7.918 32.684-7.8047 40.754-21.59 4.0352-39.723 20.648-44.52 43.43l-31.871 149.39h-16.75v-28.641c0.007813-0.82813 1.1562-83.668 46.02-157.29 0.94531-1.5547 0.98047-3.5 0.089844-5.0898-0.89453-1.5859-2.5742-2.5703-4.3945-2.5703h-39.781c0.98047-18.805 4.4414-36.785 4.4766-36.977 0.28906-1.4766-0.10156-3.0078-1.0586-4.168-0.95703-1.1562-2.3789-1.8281-3.8867-1.8281h-68.441c-1.5195 0-2.9531 0.68359-3.9102 1.8594-0.95703 1.1797-1.332 2.7227-1.0234 4.207 2.0781 9.9609 2.9258 28.496 3.2148 36.832l-24.582-0.066406h-0.011719c-1.5664 0-3.0469 0.72656-3.9961 1.9727-0.95703 1.2461-1.2773 2.8711-0.86328 4.3867 19.312 71.031 24.301 173.55 24.898 187.38h-20.039c-2.7812 0-5.0391 2.2539-5.0391 5.0391v51.902c0 20.129 5.4805 38.992 14.992 55.219 0.011718 0.015625 0.023437 0.027344 0.03125 0.046875zm245.99-128.98 11.949-58.582c4.5781-22.449 24.516-38.754 47.426-38.789 22.906 0.035157 42.848 16.34 47.426 38.789l11.949 58.582c1.1328 5.543 1.4648 11.176 1.0781 16.773l-120.91 0.003907c-0.38672-5.6016-0.054688-11.234 1.0781-16.777zm-14.477-111.63-27.035 128.41h-41.703l38.191-181.39c21.902 7.1875 35.402 29.918 30.547 52.988zm-39.641-97.289 24.773 5.2148c-3.2344 7.1953-8.2461 19.676-9.8516 30.523-2.7695-1.0703-5.625-1.9922-8.6211-2.6211-3.9062-0.82422-7.8047-1.1953-11.645-1.1875-0.023438-6.7695 0.66406-19.645 5.3438-31.93zm-50.09 78.398c4.8555-23.074 26.375-38.422 49.32-36.172l-38.629 183.47h-42.117zm-68.555 118.62v28.68h-52.996c0.97266-91.266 41.223-168.88 49.289-183.52h46.695c-41.934 73.883-42.965 151.43-42.988 154.84zm-50.945-197.81h56.488c-1.1719 7.1406-2.9609 19.738-3.6094 32.898h-8.5859c-1.7773 0-3.4258 0.94141-4.3359 2.4688-0.14453 0.24609-4.2617 7.293-10.113 19.59-0.95312-4.793-2.2461-10.703-4.0234-18.188-0.53906-2.2656-2.5586-3.8633-4.8867-3.8711l-18.516-0.050781c-0.23437-7.0352-0.88281-21.785-2.418-32.848zm16.922 42.965c2.832 12.344 5.4531 25.777 5.3008 28.84-0.015625 0.050781 0 0.10547-0.015625 0.15625-9.9414 23.414-21.664 56.516-28.535 94.758-3.4219-36.953-9.3672-84.398-19.398-123.87zm-44.148 193.6h382.89v41.16h-143.22c-2.7812 0-5.0391 2.2539-5.0391 5.0391 0 2.7812 2.2539 5.0391 5.0391 5.0391h143c-0.69531 15.855-5.0273 30.766-12.324 43.859l-164.88-0.003906c-2.7812 0-5.0391 2.2539-5.0391 5.0391 0 2.7812 2.2539 5.0391 5.0391 5.0391h158.37c-18.098 24.883-47.352 41.156-80.406 41.156h-183.97c-33.055 0-62.312-16.273-80.406-41.16l95.559 0.003906c2.7812 0 5.0391-2.2539 5.0391-5.0391 0-2.7812-2.2539-5.0391-5.0391-5.0391h-102.07c-7.9648-14.297-12.543-30.73-12.543-48.227z"/>
 </g>
</svg>