<?xml version="1.0" encoding="UTF-8"?>
<!-- The Best Svg Icon site in the world: iconSvg.co, Visit us! https://iconsvg.co -->
<svg fill="#000000" width="800px" height="800px" version="1.1" viewBox="144 144 512 512" xmlns="http://www.w3.org/2000/svg">
 <g>
  <path d="m227.31 548.84c-11.551 12.223-11.348 31.57 0.62109 43.535 5.8984 5.8984 13.738 9.1484 22.078 9.1484 8.3438 0 16.188-3.25 22.086-9.1484l5.4297-5.4297c19.129 4.4297 131.92 28.121 244.98 0.023438l5.4023 5.4023c5.9023 5.9023 13.742 9.1523 22.086 9.1523 8.3398 0 16.184-3.25 22.082-9.1484 11.965-11.965 12.172-31.309 0.62109-43.535l-8.6562-17.887-9.9336-171.86c6.7773-4.3164 11.316-11.859 11.316-20.477v-29.316c0-13.41-10.906-24.32-24.312-24.32h-0.38281c-1.2109-24.469-21.438-44.027-46.199-44.027-6.4805 0-12.855 1.3672-18.75 3.9883-8.4023-27.285-33.883-46.465-62.949-46.465-22.984 0-43.953 11.812-55.934 31.16-9.7344-5.3945-20.645-8.2266-31.867-8.2266-35.543 0-64.527 28.32-65.746 63.57h-0.38281c-13.406 0-24.312 10.914-24.312 24.32v29.316c0 8.6211 4.5352 16.156 11.316 20.477l-9.9414 171.86zm97.719-317.36c11.039 0 21.723 3.2344 30.898 9.3516 1.1953 0.79687 2.6719 1.0469 4.0664 0.68359 1.3867-0.36328 2.5586-1.3008 3.2148-2.5742 9.6055-18.746 28.625-30.395 49.617-30.395 26.531 0 49.531 18.863 54.699 44.844 0.32422 1.6328 1.4258 2.9922 2.957 3.6484 1.5234 0.65625 3.2734 0.51953 4.6797-0.37109 5.8242-3.6875 12.516-5.6445 19.355-5.6445 19.211 0 34.934 15.035 36.125 33.953h-261.29c1.2148-29.695 25.684-53.496 55.672-53.496zm-80.367 77.812c0-7.8555 6.3867-14.242 14.238-14.242h282.2c7.8555 0 14.238 6.3867 14.238 14.242v29.316c0 7.8555-6.3867 14.242-14.238 14.242h-282.2c-7.8555 0-14.238-6.3867-14.238-14.242zm0.80859 225.14c0.28906-0.59375 0.45703-1.2461 0.49219-1.9062l9.8203-169.92c1.0312 0.13672 2.0508 0.3125 3.1133 0.3125h282.2c1.0664 0 2.0859-0.17969 3.1133-0.3125l9.8203 169.92c0.035156 0.66016 0.20703 1.3086 0.49219 1.9062l9.4453 19.523c0.24609 0.50781 0.57422 0.96875 0.97266 1.3672 8.2461 8.2461 8.2461 21.668 0 29.918-3.9922 3.9961-9.3008 6.1953-14.953 6.1953-5.6523 0-10.969-2.2031-14.965-6.1953l-7.4258-7.4258c-1.2578-1.2578-3.0898-1.7578-4.8125-1.3203-121.81 31.211-244.35 0.31641-245.58 0-1.7422-0.44922-3.5625 0.054688-4.8203 1.3164l-7.4258 7.4258c-3.9961 3.9961-9.3086 6.1953-14.965 6.1953-5.6484 0-10.965-2.2031-14.957-6.1953-8.2461-8.2461-8.2461-21.668 0-29.918 0.39844-0.39844 0.73047-0.86328 0.97266-1.3672z"/>
  <path d="m395.17 531.17v21.023c0 2.7812 2.2539 5.0391 5.0391 5.0391 2.7852 0 5.0391-2.2578 5.0391-5.0391v-20.98c0.13281 0 0.23047 0.003906 0.36719 0.003906 9.4258 0 29.242-1.5117 42.473-13.129 17.77-15.609 16.035-42.492 15.949-43.625-0.17578-2.4688-2.1211-4.4375-4.5859-4.6562-1.2383-0.10938-30.273-2.4336-47.785 12.941-2.5234 2.2148-4.6211 4.6758-6.4141 7.2461v-17.207c5.4922-4.7188 22.695-21.145 22.52-41.301-0.21094-23.461-23.922-41.488-24.93-42.246-1.8086-1.3594-4.3164-1.3398-6.1094 0.054687-0.99609 0.76953-24.391 19.215-24.18 42.676 0.17188 19.457 16.473 35.137 22.621 40.371v14.902c-1.2578-1.6172-2.6211-3.1992-4.1914-4.6641-16.992-15.852-46.098-14.324-47.348-14.242-2.457 0.14453-4.4531 2.0508-4.7109 4.5-0.12109 1.1328-2.7461 27.965 14.516 44.059 12.719 11.867 32.203 13.984 41.73 14.273zm23.145-40.844c10.594-9.3047 27.543-10.578 35.656-10.609-0.33594 7.3359-2.3672 21.871-12.535 30.805-10.602 9.3047-27.562 10.578-35.664 10.609 0.32031-7.3203 2.3164-21.824 12.543-30.805zm-35.691-58.434c-0.125-14.031 11.559-26.66 17.25-31.977 5.7773 5.2148 17.688 17.637 17.816 31.664 0.12109 14.035-11.566 26.672-17.254 31.988-5.7852-5.1992-17.691-17.59-17.812-31.676zm1.4883 58.059c7.4531 6.9492 10.141 16.965 11.059 24.609v6.5156c-8.2227-0.28125-24.703-2.0742-34.867-11.547-9.875-9.2109-11.402-23.82-11.496-31.145 8.0742 0.23438 24.977 1.9375 35.305 11.566z"/>
 </g>
</svg>