<?xml version="1.0" encoding="UTF-8"?>
<!-- The Best Svg Icon site in the world: iconSvg.co, Visit us! https://iconsvg.co -->
<svg fill="#000000" width="800px" height="800px" version="1.1" viewBox="144 144 512 512" xmlns="http://www.w3.org/2000/svg">
 <path d="m623.21 365.08c-4.3477 5.6016-11.754 7.8555-18.484 5.6133l-8.1875-2.168-22.852-0.035157-28.34-7.082-36.672 59.566c-8.3672 13.594-22.285 22.586-37.82 24.867v106.88h-17.715l-7.4727-70.852-7.0078-14.391c2.5859-3.9258 4.5352-8.332 5.6211-13.133l12.992-57.176h20.879c4.9609 0 9.3594-3.1875 10.906-7.9062 1.4375-4.3867 0.10547-9.2109-3.3789-12.238l-21.77-18.918c-6.8789-5.9766-15.68-9.2656-24.789-9.2656h-34.199l8.0547 12.082-12.5 17.512c-4.793 6.7109-12.531 10.695-20.777 10.695l-103.21 0.003906c-10.672 0-20.992 3.8242-29.09 10.77-9.8828 8.4844-15.574 20.863-15.574 33.891v3.6133c0 4.4648 3.6172 8.082 8.082 8.082v4.6367l-13.48 17.574v85.02h-17.715l-7.082-99.184 7.082-42.512-7.082-49.152v-50.039c-7.8125 0-14.172 6.3594-14.172 14.168v120.44h-14.172v-120.44c0-15.629 12.711-28.34 28.34-28.34h281.14l40.562-6.8398-15.809-15.199h14.438c4.4531 0 8.8164 1.2656 12.574 3.6523l12.004 7.6172 2.6445-0.44922-4.4883-10.422c-5.8555-13.594 4.1172-28.738 18.914-28.738h39.559l-30.199 11.812c-5.7422 2.2461-8.4453 8.832-5.9414 14.465l3.8945 8.75c5.7852-1.1172 10.098-0.20312 13.285 4.4297l38.824 57.637c4.8438 6.0234 4.918 14.59 0.17969 20.699zm-238.52 67.25v-0.066406h6.4453c0-2.6133-1.543-4.9883-3.9297-6.0508l-2.5352-1.125-2.0195-4.7188c-1.375-3.2188-4.543-5.3086-8.0469-5.3086h-6.3672c-1.375 0-2.2969 1.4102-1.7422 2.6719l0.71484 1.6328 0.16016 0.39453c-5.0547 1.1797-9.2344 4.9375-10.848 10.047l-7.043 22.371c-1.5586 4.9492-5.6875 8.6562-10.777 9.6719l-14.316 2.8633-31.031-35.543-2.6914 3.9766c-5.9648 8.8047-9.1523 19.207-9.1523 29.84 0 13.023 4.6406 25.617 13.094 35.527l4.0469 4.7422v9.6797l25.809 20.434 3.6836 15.059h0.011719l-4.3008 4.3008h23.66l-4.3008-4.3008h-9.8555l-3.8086-15.473 27.32-14.465c11.395-6.0312 20.383-15.773 25.484-27.613 5.375-12.484 5.9492-26.516 1.6055-39.398l-4.6484-13.828h0.066406c2.9336-0.011719 5.3125-2.3945 5.3125-5.3203z"/>
</svg>