<?xml version="1.0" encoding="UTF-8"?>
<!-- The Best Svg Icon site in the world: iconSvg.co, Visit us! https://iconsvg.co -->
<svg fill="#000000" width="800px" height="800px" version="1.1" viewBox="144 144 512 512" xmlns="http://www.w3.org/2000/svg">
 <g>
  <path d="m303.47 473.35c7.4062 32.848 24.184 60.457 46.148 77.082l0.90625 0.70703h98.949l0.90625-0.70703c21.965-16.828 38.742-44.234 46.148-77.082 2.0742-9.2109 3.3711-18.582 3.8789-28.012h-200.82c0.50781 9.4297 1.8086 18.801 3.8789 28.012z"/>
  <path d="m435.27 267.75c-0.011719-5-2-9.7891-5.5312-13.328-3.5273-3.5391-8.3125-5.5391-13.312-5.5664-5.0039 0.011719-9.8047 2.0078-13.344 5.5469-3.5391 3.543-5.5352 8.3398-5.5469 13.348-6.75 0-12.988 3.5977-16.363 9.4453-3.375 5.8438-3.375 13.047 0 18.891 3.375 5.8477 9.6133 9.4492 16.363 9.4492 0.011719 5.0039 2.0078 9.8047 5.5469 13.344 3.5391 3.5391 8.3398 5.5352 13.344 5.5469 5-0.023437 9.7852-2.0273 13.312-5.5664 3.5312-3.5352 5.5195-8.3281 5.5312-13.324 6.75 0 12.988-3.6016 16.359-9.4492 3.375-5.8438 3.375-13.047 0-18.891-3.3711-5.8477-9.6094-9.4453-16.359-9.4453zm-18.895 34.66c-4.1836 0.015625-8.2031-1.6367-11.172-4.5898-2.9648-2.9492-4.6367-6.9609-4.6445-11.145-0.011719-4.1875 1.6445-8.2031 4.5977-11.168 2.957-2.9648 6.9688-4.6328 11.152-4.6367 4.1875-0.003906 8.1992 1.6562 11.16 4.6133 2.9609 2.957 4.625 6.9727 4.625 11.156 0 4.1641-1.6445 8.1602-4.582 11.117-2.9336 2.9531-6.9219 4.625-11.086 4.6523z"/>
  <path d="m415.11 375.71c11.234-2.6914 22.207-6.3633 32.797-10.984 19.625-8.4219 37.539-20.375 52.852-35.266-10.68-9.3203-39.699-7.6094-68.418 4.5859-12.754 5.375-23.711 14.27-31.59 25.645h-0.75391c-4.6875-16.535-13.453-31.625-25.496-43.883-28.012-27.812-59.852-41.766-74.965-33.957 18.504 40.707 48.078 75.395 85.344 100.11v18.039h30.23z"/>
  <path d="m500.76 428.26v-0.60547c-0.82031-7.6016-4.4258-14.633-10.117-19.738-5.6914-5.1055-13.07-7.9258-20.719-7.918h-139.86c-7.6484-0.007812-15.027 2.8125-20.719 7.918-5.6914 5.1055-9.293 12.137-10.113 19.738v0.60547 6.8516h201.52v-6.8516z"/>
 </g>
</svg>