<?xml version="1.0" encoding="UTF-8"?>
<!-- The Best Svg Icon site in the world: iconSvg.co, Visit us! https://iconsvg.co -->
<svg fill="#000000" width="800px" height="800px" version="1.1" viewBox="144 144 512 512" xmlns="http://www.w3.org/2000/svg">
 <path d="m596.48 591.56h-33.492l2.1641-30.852c0.85938-6.9336-1.3008-13.906-5.9219-19.137-2.2227-2.5156-4.9336-4.4844-7.9102-5.8789 9.8906-8.0156 15.949-21.211 21.461-33.285 1.207-2.6406 2.3867-5.2266 3.5781-7.6836 0.85938-1.7695 0.60938-3.8789-0.64062-5.3984s-3.2695-2.1758-5.1719-1.6719c-0.42578 0.11328-9.5195 2.5547-24.453 10.379-2.4961-8.9062-7.1797-19.109-15.98-26.34-1.8594-1.5312-4.5352-1.5312-6.3945 0-8.9141 7.3242-13.617 17.691-16.098 26.766-13.836-7.5391-23.758-10.48-24.23-10.621-1.918-0.55859-3.9688 0.058594-5.2539 1.5781-1.2852 1.5156-1.5586 3.6484-0.69922 5.4414 1.2773 2.6523 2.5312 5.4766 3.8164 8.3633 5.0781 11.414 11.062 24.781 20.84 32.699-2.8125 1.3828-5.3945 3.25-7.5156 5.6484-4.625 5.2305-6.7852 12.203-5.9531 18.875l2.1953 31.117h-60.727v-151.24h110.08c2.7812 0 5.0391-2.2539 5.0391-5.0391v-192.88c0-2.7812-2.2539-5.0391-5.0391-5.0391h-110.08v-10.836c0-15.539-12.641-28.18-28.176-28.18h-3.8477c-15.539 0-28.176 12.641-28.176 28.18v10.836h-110.08c-2.7812 0-5.0391 2.2539-5.0391 5.0391v192.88c0 2.7812 2.2539 5.0391 5.0391 5.0391h110.08v151.24h-60.723l2.168-30.855c0.85547-6.9336-1.3047-13.906-5.9297-19.137-2.2227-2.5156-4.9336-4.4805-7.9062-5.875 9.8906-8.0156 15.953-21.215 21.465-33.289 1.2031-2.6367 2.3828-5.2266 3.5742-7.6836 0.86328-1.7695 0.60938-3.875-0.64062-5.3945s-3.2695-2.1758-5.1719-1.6719c-0.42578 0.11328-9.5195 2.5547-24.453 10.379-2.4922-8.9062-7.1797-19.105-15.98-26.34-1.8594-1.5312-4.5352-1.5312-6.3945 0-8.9219 7.3281-13.625 17.691-16.102 26.766-13.832-7.5391-23.758-10.48-24.23-10.621-1.9141-0.55859-3.9688 0.058594-5.2539 1.5781-1.2852 1.5156-1.5586 3.6484-0.69922 5.4414 1.2773 2.6523 2.5352 5.4766 3.8203 8.3672 5.0781 11.414 11.059 24.781 20.836 32.695-2.8125 1.3828-5.3984 3.25-7.5195 5.6523-4.6211 5.2305-6.7812 12.203-5.9492 18.871l2.1914 31.117h-33.488c-2.7812 0-5.0391 2.2539-5.0391 5.0391 0 2.7812 2.2539 5.0391 5.0391 5.0391h392.97c2.7812 0 5.0391-2.2539 5.0391-5.0391 0-2.7812-2.2578-5.0391-5.0391-5.0391zm-104.83-89.758c4.6289 2.0547 10.414 4.9141 16.801 8.7344 1.4219 0.85156 3.1719 0.94531 4.6758 0.25781 1.5039-0.6875 2.5781-2.0703 2.8672-3.6992 1.3242-7.4531 4.293-17.316 10.918-24.574 6.4961 7.1211 9.4648 16.746 10.82 24.023 0.29688 1.5977 1.3477 2.9531 2.8203 3.6445 1.4727 0.6875 3.1914 0.62109 4.6055-0.17578 6.7227-3.7891 12.457-6.543 16.949-8.4922-6.5859 14.301-13.766 28.23-26.594 31.016-8.4297 1.8281-17.141 0.035157-17.465-0.03125-12.938-2.1172-19.938-16.277-26.398-30.703zm8.0938 73.188h29.934c2.7812 0 5.0391-2.2539 5.0391-5.0391 0-2.7812-2.2539-5.0391-5.0391-5.0391h-30.645l-0.38281-5.4414c-0.50391-4.0703 0.76172-8.1602 3.4727-11.227 2.6992-3.0586 6.5898-4.8086 10.66-4.8086h28.234c4.0742 0 7.9609 1.7539 10.664 4.8086 2.7109 3.0664 3.9766 7.1602 3.4453 11.492l-2.2422 31.828-51.969-0.003906zm-136.8-144.74-1.7031-24.137h42.527c2.7812 0 5.0391-2.2539 5.0391-5.0391 0-2.7812-2.2539-5.0391-5.0391-5.0391h-43.238l-0.63281-8.9609c-0.74609-6.0312 1.1289-12.094 5.1484-16.641 4.0039-4.5312 9.7656-7.1289 15.805-7.1289h19.438c0.042969 0 0.085937 0.003906 0.12891 0.003906 0.015625 0 0.035156-0.003906 0.054687-0.003906h18.676c6.0391 0 11.801 2.5977 15.805 7.1289 4.0195 4.5469 5.8984 10.609 5.125 16.902l-3.0234 42.91zm49.125-78.176c-11.832 2.5703-24 0.046875-24.359-0.023438-19.598-3.2031-29.789-26.109-38.785-46.316-0.082032-0.1875-0.16406-0.375-0.25-0.5625 6.8594 2.8477 16.418 7.3086 27.223 13.766 1.418 0.85547 3.1641 0.94922 4.6758 0.25781 1.5078-0.6875 2.582-2.0703 2.8672-3.6992 1.9297-10.832 6.3633-25.348 16.578-35.617 10.023 10.086 14.469 24.273 16.438 34.859 0.29687 1.5977 1.3477 2.9531 2.8203 3.6445 1.4727 0.68359 3.1914 0.61719 4.6055-0.17578 11.453-6.4609 20.812-10.719 27.422-13.391-9.2266 20.215-19.715 43.02-39.234 47.258zm-32.102-125.54c0-9.9844 8.1211-18.102 18.102-18.102h3.8477c9.9805 0 18.102 8.1211 18.102 18.102v10.836h-40.051zm-115.12 20.914h270.29v182.8h-87.977l2.9492-41.938c1.1016-8.8906-1.6719-17.836-7.6016-24.547-3.5391-4-8.0156-6.957-12.945-8.707 14.57-10.34 23.215-29.195 31.039-46.336 1.6406-3.5977 3.25-7.1211 4.875-10.469 0.85938-1.7695 0.60938-3.8789-0.64062-5.3984s-3.2695-2.168-5.1719-1.6719c-0.58984 0.15625-13.527 3.6328-34.777 14.984-3.1445-12.289-9.3633-26.875-21.664-36.98-1.8594-1.5312-4.5352-1.5312-6.3945 0-12.477 10.25-18.711 25.078-21.824 37.602-19.633-10.949-33.871-15.176-34.527-15.367-1.8945-0.54688-3.9648 0.0625-5.2539 1.5781-1.2852 1.5195-1.5586 3.6523-0.69922 5.4453 1.7383 3.6094 3.4492 7.457 5.1992 11.395 7.5391 16.941 15.84 35.578 29.996 45.504-4.6406 1.7773-8.8594 4.6211-12.223 8.4258-5.9297 6.7109-8.6992 15.656-7.625 24.285l2.9727 42.203-87.992-0.007812zm115.12 192.88h40.051v151.24h-40.051zm-142.13 61.48c4.6289 2.0547 10.414 4.9141 16.801 8.7344 1.4258 0.85156 3.168 0.94531 4.6758 0.25781 1.5078-0.6875 2.582-2.0703 2.8672-3.7031 1.3242-7.4492 4.2891-17.312 10.918-24.574 6.5 7.125 9.4648 16.75 10.812 24.023 0.29688 1.5977 1.3477 2.957 2.8203 3.6445 1.4766 0.6875 3.1875 0.62109 4.6094-0.17578 6.7227-3.7891 12.457-6.543 16.953-8.4922-6.5898 14.301-13.77 28.23-26.594 31.016-8.4297 1.8281-17.137 0.035156-17.465-0.03125-12.941-2.1133-19.938-16.273-26.398-30.699zm8.0938 73.188h29.938c2.7812 0 5.0391-2.2539 5.0391-5.0391 0-2.7812-2.2539-5.0391-5.0391-5.0391h-30.648l-0.38281-5.4453c-0.5-4.0664 0.76172-8.1562 3.4727-11.227 2.7031-3.0547 6.5898-4.8086 10.664-4.8086h28.234c4.0742 0 7.9609 1.75 10.66 4.8086 2.7109 3.0664 3.9766 7.1602 3.4492 11.492l-2.2422 31.828h-51.977z"/>
</svg>