<?xml version="1.0" encoding="UTF-8"?>
<!-- The Best Svg Icon site in the world: iconSvg.co, Visit us! https://iconsvg.co -->
<svg fill="#000000" width="800px" height="800px" version="1.1" viewBox="144 144 512 512" xmlns="http://www.w3.org/2000/svg">
 <g>
  <path d="m451.27 251.9 7.6445-13.762 108.93 60.512-7.6445 13.762z"/>
  <path d="m210.28 389.7 11.367-10.895c-22.844-24.441-31.059-59.141-21.594-91.227 9.4609-32.09 35.191-56.777 67.641-64.91 32.449-8.1328 66.781 1.5039 90.258 25.332l11.344-10.895c-27.422-27.633-67.395-38.75-105.15-29.238-37.754 9.5117-67.688 38.234-78.746 75.566-11.059 37.328-1.6016 77.723 24.879 106.27z"/>
  <path d="m581.05 433.22 29.914 5.9844 3.0859-15.43-34.883-6.9844-30.008-90.125c-0.62109-1.8711-1.9219-3.4375-3.6445-4.3945l-141.7-78.719c-2.3789-1.3242-5.2734-1.3242-7.6523 0l-141.7 78.719c-1.7227 0.95703-3.0234 2.5234-3.6445 4.3945l-30.039 90.125-34.914 6.9844 3.1484 15.43 29.914-5.9844v187.2h-23.617v15.742l440.84 0.003906v-15.746h-55.105zm-346.37-8.3203 30.117-90.355 135.2-75.105 135.2 75.105 30.117 90.355v195.52h-78.723v-110.21h31.488v-15.746h-236.16v15.742h31.488v110.21h-78.719zm204.67 125.56-25.191-40.25h50.383zm31.488-20.672v71.055l-22.207-35.527zm-62.977 0 22.207 35.527-22.207 35.523zm-15.742 71.055-22.211-35.527 22.207-35.527zm-31.488-50.383-25.191-40.25h50.379zm-9.2852 14.855-22.207 35.523v-71.051zm9.2812 14.852 25.191 40.25h-50.379zm78.719 0 25.195 40.25h-50.383z"/>
  <path d="m163.84 620.41h15.742v15.742h-15.742z"/>
  <path d="m352.77 415.74c0 2.0898 0.83203 4.0898 2.3047 5.5664 1.4766 1.4766 3.4805 2.3047 5.5664 2.3047h78.723c2.0859 0 4.0898-0.82812 5.5664-2.3047 1.4766-1.4766 2.3047-3.4766 2.3047-5.5664v-70.848h23.617v-15.746h-141.7v15.742h23.617zm58.363-39.359 20.359-20.359v40.715zm9.2266 31.488h-40.715l20.359-20.359zm-20.355-42.621-20.359-20.355h40.715zm-11.133 11.133-20.355 20.355v-40.715z"/>
  <path d="m297.66 376.38h15.742v15.742h-15.742z"/>
  <path d="m266.18 557.44h15.742v15.742h-15.742z"/>
  <path d="m518.08 557.44h15.742v15.742h-15.742z"/>
  <path d="m486.59 376.38h15.742v15.742h-15.742z"/>
 </g>
</svg>