<?xml version="1.0" encoding="UTF-8"?>
<!-- The Best Svg Icon site in the world: iconSvg.co, Visit us! https://iconsvg.co -->
<svg fill="#000000" width="800px" height="800px" version="1.1" viewBox="144 144 512 512" xmlns="http://www.w3.org/2000/svg">
 <g>
  <path d="m604.67 423.61h-7.8711v-23.613c-0.019531-7.7227-1.1055-15.406-3.2305-22.832l-3.6523-12.91-24.605 24.609-23.617-23.617-23.617 23.617-24.605-24.609-3.6562 12.91c-2.1211 7.4258-3.207 15.109-3.2266 22.832v23.617l-31.488-0.003907v-23.613c0.0625-22.262-8.7852-43.625-24.566-59.324-7.3672-7.4062-17.391-11.555-27.836-11.527h-5.4023c-10.445-0.027344-20.465 4.1211-27.832 11.527-15.785 15.699-24.633 37.062-24.57 59.324v23.617l-31.488-0.003907v-23.613c0.0625-22.262-8.7852-43.625-24.57-59.324-7.3672-7.4062-17.387-11.555-27.832-11.527h-5.4023c-10.445-0.027344-20.469 4.1211-27.836 11.527-15.781 15.699-24.629 37.062-24.566 59.324v23.617l-7.875-0.003907c-11.246 0-21.645 6.0039-27.27 15.746s-5.625 21.746 0 31.488c5.625 9.7422 16.023 15.742 27.27 15.742h7.875v7.8711c0.011719 10.438 4.1602 20.441 11.539 27.82 7.3789 7.3789 17.383 11.527 27.82 11.543h31.488c10.434-0.015625 20.438-4.1641 27.816-11.543 7.3789-7.3789 11.531-17.383 11.543-27.82v-7.8711h31.488v7.8711c0.011719 10.438 4.1641 20.441 11.543 27.82s17.383 11.527 27.816 11.543h31.488c10.434-0.015625 20.441-4.1641 27.82-11.543 7.375-7.3789 11.527-17.383 11.539-27.82v-7.8711h31.488v7.8711c0.011718 10.438 4.1641 20.441 11.543 27.82 7.3789 7.3789 17.383 11.527 27.816 11.543h31.488c10.438-0.015625 20.441-4.1641 27.82-11.543 7.3789-7.3789 11.527-17.383 11.543-27.82v-7.8711h7.8711c11.25 0 21.645-6 27.27-15.742 5.625-9.7422 5.625-21.746 0-31.488s-16.02-15.746-27.27-15.746zm-102.34-23.613c0-1.4805 0.054687-2.9688 0.15625-4.457l15.586 15.586 23.617-23.617 23.617 23.617 15.586-15.586c0.10156 1.4883 0.15625 2.9766 0.15625 4.457v23.617l-78.719-0.003907zm-141.7 0c-0.050781-18.086 7.1367-35.441 19.957-48.195 4.4219-4.4414 10.438-6.9297 16.703-6.9102h5.4023c6.2656-0.019531 12.281 2.4688 16.703 6.9102 12.824 12.754 20.008 30.109 19.957 48.195v23.617l-78.723-0.003907zm-141.7 0c-0.050781-18.086 7.1328-35.441 19.957-48.195 4.4219-4.4414 10.438-6.9297 16.703-6.9102h5.4023c6.2656-0.019531 12.281 2.4688 16.703 6.9102 12.82 12.754 20.008 30.109 19.957 48.195v23.617l-78.723-0.003907zm78.723 94.461c0 6.2656-2.4883 12.273-6.918 16.699-4.4297 4.4297-10.438 6.918-16.699 6.918h-31.488c-6.2656 0-12.27-2.4883-16.699-6.918-4.4297-4.4258-6.918-10.434-6.918-16.699v-7.8711h78.723zm141.7 0c0 6.2656-2.4883 12.273-6.918 16.699-4.4297 4.4297-10.434 6.918-16.699 6.918h-31.488c-6.2617 0-12.27-2.4883-16.699-6.918-4.4297-4.4258-6.918-10.434-6.918-16.699v-7.8711h78.723zm141.7 0c0 6.2656-2.4883 12.273-6.918 16.699-4.4258 4.4297-10.434 6.918-16.699 6.918h-31.488c-6.2617 0-12.27-2.4883-16.699-6.918-4.4258-4.4258-6.9141-10.434-6.9141-16.699v-7.8711h78.719zm23.617-23.617-409.35 0.003906c-5.625 0-10.82-3-13.633-7.8711-2.8125-4.875-2.8125-10.875 0-15.746 2.8125-4.8711 8.0078-7.8711 13.633-7.8711h409.35c5.625 0 10.82 3 13.633 7.8711 2.8125 4.8711 2.8125 10.871 0 15.746-2.8125 4.8711-8.0078 7.8711-13.633 7.8711z"/>
  <path d="m565.31 352.77h43.98l2.25-4.0312c6.8984-11.965 10.48-25.551 10.383-39.359 0.027344-10.445-4.125-20.469-11.531-27.836l-3.8164-3.8164h-0.003906c-7.3594-7.4141-17.379-11.57-27.824-11.547-14.336 0.019531-28.43 3.707-40.938 10.711l-3.9883 2.2539v41.645l31.488 0.39453zm-15.742-47.531-0.003906-16.688c9.1172-4.3477 19.082-6.6094 29.184-6.6289 6.2578 0.015625 12.254 2.5 16.695 6.9102l3.8164 3.8164v0.003907c4.4453 4.4219 6.9336 10.434 6.9219 16.703 0.10938 9.5898-2.0508 19.074-6.2969 27.672h-18.832v-31.387z"/>
  <path d="m502.34 266.18h15.742v31.488h-15.742z"/>
  <path d="m457.41 287.48 11.133-11.133 23.617 23.617-11.133 11.133z"/>
  <path d="m447.23 321.28h31.488v15.742h-31.488z"/>
 </g>
</svg>