<?xml version="1.0" encoding="UTF-8"?>
<!-- The Best Svg Icon site in the world: iconSvg.co, Visit us! https://iconsvg.co -->
<svg fill="#000000" width="800px" height="800px" version="1.1" viewBox="144 144 512 512" xmlns="http://www.w3.org/2000/svg">
 <path d="m599.63 530.68h-75.887-1.5742l-136.03 20.469c-6.6133 0.62891-13.539-0.62891-19.523-3.4648l-153.98-77.145c-0.94531-0.62891-1.2578-1.8906-0.62891-2.832 2.2031-3.7773 5.668-7.8711 16.375-8.1875 5.3516 0 10.707 1.2578 16.375 3.4648l61.086 26.137c3.4648 13.855 15.742 23.93 30.543 23.93h83.445c5.0391 0 9.1328-3.1484 10.707-7.5586 0.31641-1.2578 0.62891-2.5195 0.62891-3.7773 0-0.94531 0-1.5742-0.31641-2.5195-1.2578-5.0391-5.668-8.8164-11.02-8.8164h-83.445c-4.7227 0-8.8164-4.0938-8.8164-9.1328 0-5.0391 4.0938-9.1328 8.8164-9.1328h43.453c10.707 0 32.117-5.668 64.234-16.688 13.855-4.7227 27.395-6.9258 40.305-5.9844 6.2969 0.31641 12.281 1.2578 17.004 2.832 10.707 3.4648 20.781 9.4453 29.598 14.484 5.9844 3.4648 12.281 5.668 19.207 6.6133 1.8906 0.31641 4.0938 0.31641 6.2969 0.31641h43.77c6.2969 0 11.336-5.0391 11.336-11.336s-5.0391-11.336-11.336-11.336h-43.77c-4.7227 0-9.4453-1.2578-13.855-3.7773-9.7617-5.9844-21.098-12.594-34.008-16.688-6.6133-2.2031-14.168-3.4648-22.355-3.7773h-4.7227c-21.41-26.457-46.602-49.441-75.254-67.074l-0.31641-0.31641c-2.5195-1.5742-4.7227-2.5195-7.5586-3.4648l0.003906-32.43c7.2422 2.2031 14.801 3.4648 22.043 3.4648 4.4102 0 8.8164-0.31641 12.91-1.2578 23.93-4.4102 45.973-16.688 62.031-34.637 9.7617-11.02 22.355-18.578 36.84-22.355 4.0938-0.94531 7.2422-4.0938 8.1875-8.1875s0-8.1875-3.1484-11.02l-0.62891-0.62891c-17.949-17.633-43.141-26.137-68.016-22.672l-3.7773 0.62891c-26.137 3.7773-49.75 17.32-66.441 37.785-6.6133 8.1875-11.652 17.633-15.113 27.711l-1.5742 4.4102c-1.8906-3.1484-4.0938-6.2969-6.2969-9.4453-16.375-20.781-39.988-34.32-66.441-37.785l-4.4102-0.62891c-24.246-3.4648-49.75 5.0391-67.699 22.672l-0.62891 0.62891c-2.832 2.832-4.0938 7.2422-3.1484 11.02 0.94531 4.0938 4.0938 6.9258 8.1875 8.1875 14.168 3.4648 27.078 11.336 36.84 22.355 16.059 18.262 38.102 30.543 62.031 34.637 4.4102 0.62891 8.5 1.2578 12.91 1.2578 7.5586 0 15.113-1.2578 22.043-3.4648l-0.003906 9.7539c-2.5195 0.94531-5.3516 1.8906-7.8711 3.4648-36.523 23.617-68.012 55.418-90.684 93.203l-22.984-9.7617c-8.5-3.7773-17.32-5.3516-25.504-5.3516-21.098 0.31641-31.172 11.02-35.895 19.836-6.6133 11.965-2.2031 27.078 10.078 33.691l154.29 77.145c7.8711 4.0938 16.688 5.9844 25.82 5.9844 2.2031 0 4.4102 0 6.6133-0.31641l135.71-20.469h74.941c6.2969 0 11.336-5.0391 11.336-11.336-0.011719-6.293-5.0508-11.328-11.348-11.328zm-230.49-205.93c-7.8711 2.5195-16.375 3.1484-24.562 1.5742-18.895-3.4648-36.527-13.227-49.121-27.395-7.8711-8.8164-17.004-16.059-27.395-21.41 10.391-5.3516 22.355-7.5586 34.32-5.668l3.7773 0.62891c20.469 2.832 38.73 13.539 51.641 29.598 5.0391 6.2969 8.8164 13.227 11.336 20.781l0.62891 1.8906zm99.188-75.258 4.0938-0.62891c11.652-1.5742 23.301 0.62891 34.008 5.9844-10.391 5.3516-19.523 12.594-27.395 21.41-12.594 14.484-30.23 23.93-49.121 27.395-8.1875 1.5742-16.688 0.94531-24.562-1.5742l-0.62891-0.31641 0.62891-1.8906c2.5195-7.5586 6.2969-14.484 11.336-20.781 12.594-16.371 31.172-26.762 51.641-29.598zm-87.852 129.1c1.8906-1.2578 4.0938-1.8906 6.2969-1.8906h0.31641 0.31641c2.2031 0 4.4102 0.62891 6.2969 1.8906l0.31641 0.31641c22.355 13.855 42.195 31.172 59.199 50.695-5.668 1.2578-11.652 2.5195-17.32 4.7227-33.062 11.336-51.012 15.43-56.68 15.43h-43.141c-11.965 0-22.043 6.6133-27.395 16.375l-11.02-4.7227c20.781-33.379 49.121-61.719 82.812-82.816z"/>
</svg>