<?xml version="1.0" encoding="UTF-8"?>
<!-- The Best Svg Icon site in the world: iconSvg.co, Visit us! https://iconsvg.co -->
<svg fill="#000000" width="800px" height="800px" version="1.1" viewBox="144 144 512 512" xmlns="http://www.w3.org/2000/svg">
 <path d="m601.52 391.09c0-51.055-41.793-92.59-93.164-92.59s-93.164 41.535-93.164 92.59c0 49.426 39.199 89.812 88.309 92.348v108h-117.59v-305.41c0-48.281-39.281-87.555-87.559-87.555-48.281 0-87.559 39.277-87.559 87.555v305.41h-7.2891c-2.7812 0-5.0391 2.2539-5.0391 5.0391 0 2.7812 2.2539 5.0391 5.0391 5.0391h392.97c2.7812 0 5.0391-2.2539 5.0391-5.0391 0-2.7812-2.2539-5.0391-5.0391-5.0391h-82.902v-108.02c48.938-2.7148 87.941-43.027 87.941-92.328zm-225.68 12.301h-154.96v-84.098h154.96zm-154.96 10.078h154.96v88.578h-154.96zm77.484-204.92c42.727 0 77.484 34.758 77.484 77.48v23.188h-154.97v-23.188c0-42.723 34.758-77.48 77.484-77.48zm-77.484 303.58h154.96v79.316h-154.96zm204.4-121.04c0-45.496 37.273-82.512 83.086-82.512 45.816-0.003906 83.086 37.012 83.086 82.512 0 43.75-34.484 79.555-77.863 82.254v-48.332l31.297-30.301c1.9961-1.9336 2.0508-5.125 0.11328-7.125-1.9297-2-5.125-2.0469-7.125-0.11328l-24.285 23.512v-32.922c0-2.7812-2.2539-5.0391-5.0391-5.0391-2.7812 0-5.0391 2.2539-5.0391 5.0391v60.125l-24.652-23.867c-2.0039-1.9375-5.1953-1.8828-7.125 0.11328-1.9375 2-1.8828 5.1914 0.11328 7.125l31.664 30.656v21.148c-43.551-2.5195-78.23-38.402-78.23-82.273z"/>
</svg>