<?xml version="1.0" encoding="UTF-8"?>
<!-- The Best Svg Icon site in the world: iconSvg.co, Visit us! https://iconsvg.co -->
<svg fill="#000000" width="800px" height="800px" version="1.1" viewBox="144 144 512 512" xmlns="http://www.w3.org/2000/svg">
 <g>
  <path d="m327.25 298.21h-36.906c-4.3438 0-7.8711 3.5273-7.8711 7.8711v36.918c0 4.3438 3.5273 7.8711 7.8711 7.8711h36.918c4.3438 0 7.8711-3.5273 7.8711-7.8711v-36.918c-0.011718-4.3633-3.5234-7.8711-7.8828-7.8711zm-7.8711 36.902h-21.16v-21.176h21.176v21.176z"/>
  <path d="m569.06 470.85h51.355c4.3438 0 7.8711-3.5273 7.8711-7.8711s-3.5273-7.8711-7.8711-7.8711h-7.8711v-15.742h8.5352c4.3438 0 7.8711-3.5273 7.8711-7.8711s-3.5273-7.8711-7.8711-7.8711l-8.5352-0.007813v-7.8711c0-4.3438-3.5273-7.8711-7.8711-7.8711s-7.8711 3.5273-7.8711 7.8711v7.8711h-9.5547v-16.359c21.363-3.7461 37.676-22.324 37.676-44.746 0-12.66-5.0078-24.293-13.918-32.746 0.89844-3.5586 1.3711-7.3359 1.3711-11.195 0-21.648-14.801-39.266-32.984-39.266s-32.984 17.617-32.984 39.266c0 3.8711 0.45703 7.6523 1.3555 11.211-2.2812 2.1719-4.2969 4.5508-6.0469 7.1016-1.7461-2.5508-3.7617-4.9453-6.0469-7.1016 0.89844-3.5586 1.3555-7.3359 1.3555-11.211 0-21.648-14.801-39.266-32.984-39.266-18.184 0-32.984 17.617-32.984 39.266 0 3.8555 0.47266 7.6523 1.3711 11.195-8.9102 8.4531-13.918 20.09-13.918 32.746 0 22.418 16.312 40.996 37.676 44.746l-0.003906 16.359h-9.5898v-7.8711c0-4.3438-3.5273-7.8711-7.8711-7.8711s-7.8711 3.5273-7.8711 7.8711v7.8711h-8.5352c-4.3438 0-7.8711 3.5273-7.8711 7.8711s3.5273 7.8711 7.8711 7.8711l8.5352 0.003906v15.742h-43.438v-79.98l7.8242 2.9297c0.91406 0.33203 1.8438 0.50391 2.7539 0.50391 3.1797 0 6.1875-1.9531 7.3672-5.1016 1.5273-4.0781-0.53516-8.6133-4.5977-10.141l-68.723-25.773v-37.641c0-2.8672-1.5586-5.4961-4.0469-6.8789l-55.371-30.75c-2.3789-1.3242-5.2578-1.3242-7.6367 0l-55.387 30.75c-2.5 1.3672-4.0586 4.0117-4.0586 6.8789v37.645l-68.723 25.773c-4.0625 1.5273-6.125 6.0625-4.5977 10.141 1.1797 3.1445 4.1875 5.0977 7.3672 5.0977 0.92969 0 1.8594-0.15625 2.7539-0.50391l7.8242-2.9297v79.98h-10.578c-4.3438 0-7.8711 3.5273-7.8711 7.8711s3.5273 7.8711 7.8711 7.8711h51.344l-58.664 146.64c-1.6211 4.0312 0.34766 8.6133 4.3945 10.234 0.95703 0.39453 1.9492 0.57031 2.9258 0.57031 3.1172 0 6.0781-1.875 7.3047-4.9453l61.008-152.5h47.062l-44.195 147.3c-1.2422 4.1562 1.1172 8.5508 5.2734 9.8086 0.75391 0.21875 1.5273 0.33203 2.2656 0.33203 3.3867 0 6.5195-2.2031 7.543-5.6055l45.547-151.84h47.516l-29.598 148.03c-0.85156 4.2656 1.9219 8.4062 6.1719 9.2578 0.51953 0.10938 1.0391 0.15625 1.5586 0.15625 3.668 0 6.957-2.582 7.7148-6.3281l30.23-151.11h17.16l-0.003906 149.57c0 4.3438 3.5273 7.8711 7.8711 7.8711s7.8711-3.5273 7.8711-7.8711v-149.57h17.164l30.23 151.11c0.72266 3.75 4.0117 6.332 7.6992 6.332 0.50391 0 1.0234-0.046874 1.5586-0.15625 4.2656-0.85156 7.0234-4.9922 6.1719-9.2578l-29.617-148.03h47.516l45.547 151.84c1.0234 3.3984 4.1562 5.6055 7.543 5.6055 0.73828 0 1.5117-0.10937 2.2656-0.33203 4.1719-1.2578 6.5352-5.6367 5.2734-9.8086l-44.191-147.3h47.059l60.992 152.5c1.2461 3.0703 4.2031 4.9453 7.3203 4.9453 0.97656 0 1.9688-0.17187 2.9297-0.56641 4.0312-1.6211 6-6.2031 4.3945-10.234zm-35.234-31.488h15.742v15.742h-15.742zm-15.746 15.742h-6.1875v-15.742h6.1875zm47.234-15.742h6.1875v15.742h-6.1875zm31.488 0v15.742h-9.5547v-15.742zm-35.27-100.64c2.9609-2.1562 4.0312-6.0625 2.5977-9.4297-1.3086-3.1016-2-6.8164-2-10.738 0-12.754 7.8867-23.523 17.238-23.523 9.3516 0 17.238 10.77 17.238 23.523 0 3.9219-0.69141 7.6367-2.0156 10.754-1.418 3.3711-0.34766 7.2734 2.6133 9.4297 7.6055 5.543 11.965 14.219 11.965 23.773 0 16.438-13.367 29.805-29.805 29.805s-29.805-13.367-29.805-29.805c0.007812-9.5703 4.3711-18.23 11.973-23.789zm-87.316 23.789c0-9.5547 4.3594-18.23 11.965-23.773 2.9609-2.1562 4.0312-6.0625 2.6133-9.4297-1.3086-3.1172-2.0156-6.832-2.0156-10.754 0-12.754 7.8867-23.523 17.238-23.523s17.238 10.77 17.238 23.523c0 3.9375-0.69141 7.6367-2 10.738-1.4336 3.3711-0.34766 7.2734 2.5977 9.4297 7.6055 5.5586 11.965 14.219 11.965 23.773 0 16.438-13.367 29.805-29.805 29.805-16.43 0.015625-29.797-13.352-29.797-29.789zm37.676 44.746c12.344-2.1719 23.02-9.2266 29.805-19.207 6.7852 9.9805 17.461 17.035 29.805 19.207v16.355h-6.1875v-7.8711c0-4.3438-3.5273-7.8711-7.8711-7.8711s-7.8711 3.5273-7.8711 7.8711v7.8711h-15.742l-0.003906-7.8711c0-4.3438-3.5273-7.8711-7.8711-7.8711s-7.8711 3.5273-7.8711 7.8711v7.8711h-6.1875zm-25.301 32.102h9.5547v15.742h-9.5547zm-201.49 15.742 23.695-18.957 23.695 18.957zm61.969-8.5156-25.664-20.531 25.664-20.531zm-38.273-30.605-23.695-18.957h47.391zm-12.609 10.074-25.664 20.531v-41.059zm66.629 29.047v-65.953c0-0.34766-0.15625-0.64453-0.20312-0.99219-0.0625-0.55078-0.14062-1.0703-0.33203-1.6055-0.1875-0.51953-0.45703-0.96094-0.72266-1.418-0.17188-0.30078-0.25-0.62891-0.47266-0.91406-0.09375-0.125-0.23438-0.17188-0.33203-0.28516-0.36328-0.41016-0.78906-0.70703-1.2266-1.0391-0.39453-0.28516-0.76953-0.59766-1.1953-0.80469-0.42578-0.20312-0.88281-0.30078-1.3555-0.42578-0.53516-0.14062-1.0547-0.30078-1.6055-0.33203-0.14063-0.015625-0.26953-0.078125-0.42578-0.078125l-92.293 0.007813c-0.15625 0-0.30078 0.078125-0.45703 0.09375-0.50391 0.03125-0.96094 0.17188-1.4492 0.30078-0.51953 0.14062-1.0391 0.23438-1.5117 0.47266-0.39453 0.1875-0.72266 0.47266-1.0859 0.73828-0.47266 0.33203-0.92969 0.66016-1.3086 1.0859-0.09375 0.10938-0.23438 0.15625-0.33203 0.26953-0.21875 0.28516-0.28516 0.61328-0.47266 0.91406-0.28516 0.45703-0.55078 0.91406-0.73828 1.4336-0.1875 0.51953-0.25 1.0547-0.31641 1.5898-0.046874 0.34766-0.20312 0.64453-0.20312 0.99219l0.003906 65.949h-12.328-0.0625-36.48v-85.883l50.27-18.844c0.046875-0.015625 0.078125-0.0625 0.14062-0.078125 0.58203-0.23438 1.0547-0.61328 1.5586-0.97656 0.33203-0.23437 0.72266-0.41016 1.0234-0.67578 0.37891-0.36328 0.61328-0.83594 0.91406-1.2734 0.26953-0.39453 0.61328-0.75391 0.80469-1.1953 0.17187-0.37891 0.1875-0.82031 0.30078-1.2266 0.15625-0.58203 0.34766-1.1641 0.36328-1.7773 0-0.0625 0.03125-0.09375 0.03125-0.15625l-0.003906-38.488 47.516-26.371 47.5 26.371v38.461c0 0.0625 0.03125 0.09375 0.03125 0.15625 0.015625 0.61328 0.20312 1.1953 0.36328 1.7773 0.10938 0.41016 0.125 0.85156 0.30078 1.2266 0.1875 0.44141 0.53516 0.78906 0.80469 1.1953 0.30078 0.44141 0.53516 0.91406 0.91406 1.2734 0.28516 0.28516 0.67578 0.44141 1.0234 0.67578 0.50391 0.36328 0.97656 0.73828 1.5586 0.97656 0.046876 0.015625 0.078126 0.0625 0.14063 0.078125l50.27 18.844-0.003907 85.91z"/>
 </g>
</svg>