<?xml version="1.0" encoding="UTF-8"?>
<!-- The Best Svg Icon site in the world: iconSvg.co, Visit us! https://iconsvg.co -->
<svg fill="#000000" width="800px" height="800px" version="1.1" viewBox="144 144 512 512" xmlns="http://www.w3.org/2000/svg">
 <g>
  <path d="m338.28 264.57v76.934l57.938-54.109v-77.688l-58.137 53.656 0.097657 0.65234z"/>
  <path d="m265.23 330.62-52.043 48.062h52.043z"/>
  <path d="m488.82 377.12-88.82-82.926-88.824 82.926z"/>
  <path d="m298.93 378.29 31.891-29.828-0.050781-0.55078-0.046876-77.738-57.941 53.504v55.016h25.746z"/>
  <path d="m534.77 330.62v48.062h52.047z"/>
  <path d="m461.71 264.47 0.050781-0.60547-0.35156-0.90625-57.637-53.25v77.688l57.938 54.109z"/>
  <path d="m500.96 378.13 0.40234 0.40234 0.60547 0.15234h25.242v-55.016l-57.938-53.504v77.484l-0.050782 0.60547 0.40234 0.60547z"/>
  <path d="m207.29 386.25v204.04h385.41v-204.04zm144.29 97.586c2.0664 0 3.7773 1.6641 3.7773 3.7773v69.273c0 2.1172-1.7148 3.7773-3.7773 3.7773h-47.762c-2.1172 0-3.7773-1.6641-3.7773-3.7773v-69.273c0-2.1172 1.6641-3.7773 3.7773-3.7773h19.398v-29.523l-1.0586-0.15234c-5.6914-1.0078-16.426-3.8281-24.336-11.789-11.133-11.387-12.09-28.566-12.09-29.273-0.050781-1.0586 0.35156-2.0664 1.1094-2.8203 0.70703-0.70703 1.7148-1.1094 2.7695-1.1094 0.75391 0 17.684 0.95703 28.918 12.344 2.5703 2.6211 4.8359 5.793 6.6484 9.3711l1.1602 2.2148 1.1094-2.2148c1.8125-3.5781 4.082-6.75 6.6484-9.3711 11.234-11.387 28.164-12.344 28.867-12.344 1.1602 0 2.1172 0.40234 2.8203 1.1094 0.75391 0.75391 1.1602 1.7617 1.1094 2.8203 0 0.70703-0.95703 17.887-12.09 29.273-7.1055 7.2031-16.426 10.227-23.023 11.539l-1.0078 0.20312v29.727zm150.59-41.465c-7.1055 7.2031-16.426 10.227-23.023 11.539l-1.0078 0.20312v29.727h19.398c2.1172 0 3.7773 1.6641 3.7773 3.7773v69.273c0 2.1172-1.6641 3.7773-3.7773 3.7773h-47.711c-2.1172 0-3.7773-1.6641-3.7773-3.7773v-69.273c0-2.1172 1.6641-3.7773 3.7773-3.7773h20.758v-29.523l-1.0625-0.15625c-5.6914-1.0078-16.426-3.8281-24.336-11.789-11.133-11.387-12.09-28.566-12.09-29.273-0.050781-1.0586 0.35156-2.0664 1.1094-2.8203 0.70703-0.70703 1.6641-1.1094 2.7695-1.1094 0.75391 0 17.684 0.95703 28.918 12.344 2.5703 2.6211 4.8359 5.793 6.6484 9.3711l1.1094 2.2148 1.1602-2.2148c1.8125-3.5781 4.082-6.75 6.6484-9.3711 11.234-11.387 28.164-12.344 28.867-12.344 1.1094 0 2.1172 0.40234 2.8203 1.1094 0.75391 0.75391 1.1602 1.7617 1.1094 2.8203 0.003907 0.71094-0.95312 17.891-12.086 29.273z"/>
  <path d="m460.51 426.8c-5.2891-5.3398-12.344-7.8594-17.383-9.0703l-1.9648-0.45312 0.45312 1.9648c1.1602 5.1406 3.6758 12.395 8.9688 17.785 5.3398 5.3906 12.395 7.9609 17.383 9.1211l1.9609 0.45312-0.45312-1.9648c-1.1562-5.1406-3.6758-12.445-8.9648-17.836z"/>
  <path d="m453.61 491.39h40.152v61.715h-40.152z"/>
  <path d="m486.86 426.8c-5.3398 5.4414-7.8594 12.695-8.9688 17.836l-0.45312 1.9141 1.9648-0.45312c4.9883-1.1602 12.09-3.6797 17.383-9.0703 5.2891-5.3906 7.8086-12.645 8.9688-17.785l0.45312-1.9648-1.9648 0.45312c-5.0391 1.2109-12.094 3.7305-17.383 9.0703z"/>
  <path d="m313.14 426.8c-5.2891-5.3398-12.344-7.8594-17.383-9.0703l-1.9648-0.45312 0.45312 1.9648c1.1602 5.1406 3.6758 12.395 8.9688 17.785 5.3398 5.3906 12.395 7.9609 17.383 9.1211l1.9648 0.45312-0.45312-1.9648c-1.1602-5.1406-3.6758-12.445-8.9688-17.836z"/>
  <path d="m307.6 491.39h40.203v61.715h-40.203z"/>
  <path d="m349.42 437.03c5.2891-5.3906 7.8086-12.645 8.9688-17.785l0.45312-1.9648-1.9648 0.45312c-5.0391 1.2109-12.09 3.7266-17.383 9.0703-5.3398 5.4414-7.8594 12.695-8.9688 17.836l-0.45313 1.9141 1.9648-0.45312c4.9883-1.1602 12.09-3.6797 17.383-9.0703z"/>
 </g>
</svg>