<?xml version="1.0" encoding="UTF-8"?>
<!-- The Best Svg Icon site in the world: iconSvg.co, Visit us! https://iconsvg.co -->
<svg fill="#000000" width="800px" height="800px" version="1.1" viewBox="144 144 512 512" xmlns="http://www.w3.org/2000/svg">
 <g>
  <path d="m577.24 285.86 7.6406-13.758 12.637 7.0156-7.6406 13.758z"/>
  <path d="m443.41 211.48 7.6484-13.762 118.07 65.629-7.6484 13.762z"/>
  <path d="m620.13 577.34c0.1875-1.3789 0.28125-2.7656 0.28125-4.1562 0-8.3516-3.3164-16.359-9.2227-22.266-5.9023-5.9062-13.914-9.2227-22.266-9.2227-2.6562 0.007813-5.3008 0.35938-7.8711 1.0391v-109.52l29.914 5.9844c0.51953 0.10547 1.0469 0.16016 1.5742 0.15625 3.6094-0.003906 6.7539-2.4648 7.6289-5.9688l7.8711-31.488c0.53125-2.1367 0.14453-4.4023-1.0742-6.2422-1.2148-1.8398-3.1484-3.0859-5.3242-3.4297l-18.422-2.9297-28.07-84.23c-0.625-1.8633-1.9219-3.4297-3.6367-4.3867l-167.69-93.156c-2.3789-1.3242-5.2734-1.3242-7.6523 0l-167.68 93.164h0.003906c-1.7188 0.95703-3.0156 2.5234-3.6367 4.3867l-28.07 84.23-18.422 2.9297c-2.1797 0.34375-4.1094 1.5898-5.3281 3.4297-1.2148 1.8398-1.6055 4.1055-1.0742 6.2422l7.8711 31.488c1.0234 4.0781 5.0703 6.6328 9.1875 5.8047l29.914-5.9844v72.422c-7.0156 3.0625-12.988 8.1055-17.18 14.508-4.1953 6.4023-6.4336 13.891-6.4375 21.547 0.019531 5.5859 1.2383 11.102 3.5742 16.176-9.2539 0.9375-17.871 5.1523-24.293 11.887-6.418 6.7305-10.219 15.539-10.711 24.832-0.49609 9.2891 2.3516 18.449 8.0195 25.824h-8.0781v15.742l472.32 0.003906v-15.746h-4.3789c4.3086-7.2227 5.4961-15.887 3.3008-24.004-2.1953-8.1211-7.5898-15-14.949-19.07zm-430.83-170.92 14.648-2.3633c2.9023-0.45703 5.3047-2.4961 6.2344-5.2812l28.613-85.852 161.2-89.52 161.2 89.559 28.613 85.852c0.92969 2.7891 3.332 4.8242 6.2344 5.2852l14.648 2.3633-3.9375 15.871-27.551-5.5117-30.039-90.16c-0.62109-1.8711-1.9219-3.4375-3.6445-4.3945l-141.7-78.719c-2.3789-1.3242-5.2734-1.3242-7.6523 0l-141.7 78.719c-1.7227 0.95703-3.0234 2.5234-3.6445 4.3945l-30.039 90.125-27.551 5.5117zm45.383 18.477 30.117-90.348 135.2-75.113 135.2 75.113 30.117 90.348v127.68c-1.4062 1.5898-2.6523 3.3125-3.7188 5.1484-6.2188-0.79688-12.531 0.27344-18.141 3.0781-5.6055 2.8047-10.254 7.2109-13.348 12.664-1.375-0.1875-2.7656-0.28125-4.1562-0.28125-8.3477 0-16.359 3.3164-22.266 9.2227-5.9023 5.9062-9.2227 13.914-9.2227 22.266 0.035156 5.543 1.5469 10.977 4.3789 15.742h-43.738v-125.95h23.617c2.0859 0 4.0898-0.82813 5.5664-2.3047 1.4766-1.4766 2.3047-3.4766 2.3047-5.5664v-31.488c0-2.0859-0.82812-4.0898-2.3047-5.5664-1.4766-1.4766-3.4805-2.3047-5.5664-2.3047h-157.44c-4.3477 0-7.8711 3.5234-7.8711 7.8711v31.488c0 2.0898 0.82812 4.0898 2.3047 5.5664 1.4766 1.4766 3.4805 2.3047 5.5664 2.3047h23.617v125.95h-47.438c5.6719-7.375 8.5156-16.535 8.0234-25.824-0.49609-9.293-4.2969-18.102-10.715-24.832-6.4219-6.7344-15.035-10.949-24.293-11.887 2.3398-5.0742 3.5586-10.59 3.5742-16.176-0.011719-10.434-4.1641-20.441-11.543-27.82-7.3789-7.375-17.383-11.527-27.816-11.539zm204.67 87.672v89.738l-29.914-44.871zm-39.359 30.699-32.527-48.809h65.055zm-70.852-64.551v-15.742h141.7v15.742zm61.402 78.719-29.914 44.871v-89.738zm9.4492 14.172 32.527 48.805h-65.055zm-157.44 25.191c0-6.2656 2.4883-12.273 6.918-16.699 4.4258-4.4297 10.434-6.918 16.699-6.918 6.2617 0 12.27 2.4883 16.699 6.918 4.4258 4.4258 6.9141 10.434 6.9141 16.699 0 6.2617-2.4883 12.27-6.9141 16.699-4.4297 4.4258-10.438 6.9141-16.699 6.9141-6.2656 0-12.273-2.4883-16.699-6.9141-4.4297-4.4297-6.918-10.438-6.918-16.699zm-7.668 23.617h-0.41016c0.070312-0.085938 0.14062-0.15625 0.20312-0.24219 0.066406 0.082031 0.13672 0.15234 0.20703 0.23828zm-0.20312-102.34c6.2617 0 12.27 2.4883 16.699 6.918 4.4258 4.4297 6.9141 10.434 6.9141 16.699 0 6.2617-2.4883 12.27-6.9141 16.699-4.4297 4.4297-10.438 6.918-16.699 6.918-6.2656 0-12.273-2.4883-16.699-6.918-4.4297-4.4297-6.918-10.438-6.918-16.699 0-6.2656 2.4883-12.27 6.918-16.699 4.4258-4.4297 10.434-6.918 16.699-6.918zm-55.105 78.723c0-6.2656 2.4883-12.273 6.918-16.699 4.4258-4.4297 10.434-6.918 16.699-6.918 6.2617 0 12.27 2.4883 16.699 6.918 4.4258 4.4258 6.9141 10.434 6.9141 16.699 0 6.2617-2.4883 12.27-6.9141 16.699-4.4297 4.4258-10.438 6.9141-16.699 6.9141-6.2656 0-12.273-2.4883-16.699-6.9141-4.4297-4.4297-6.918-10.438-6.918-16.699zm346.37 23.617v-0.003907c-4.707 0.019532-9.1797-2.0703-12.188-5.6953-3.0039-3.625-4.2305-8.4062-3.3359-13.031 0.89062-4.625 3.8086-8.6094 7.9492-10.855 4.1406-2.2461 9.0703-2.5195 13.434-0.74609 2.082 0.85156 4.4336 0.75781 6.4375-0.26172 2.0117-1.0039 3.5-2.8203 4.0859-4.9922 1.1953-4.3047 4.1562-7.9023 8.1484-9.9023 3.9961-2 8.6523-2.2148 12.816-0.58984 2.082 0.85547 4.4336 0.76172 6.4375-0.25781 2.0117-1.0039 3.5-2.8203 4.0859-4.9922 1.1055-4.1953 3.8984-7.7461 7.7148-9.8086 3.8203-2.0625 8.3203-2.4492 12.434-1.0742 4.1172 1.3789 7.4766 4.3984 9.2852 8.3398 1.8086 3.9453 1.9023 8.4609 0.26172 12.477-0.83984 2.0859-0.74609 4.4297 0.25391 6.4453 1.0039 2.0117 2.8164 3.5 4.9883 4.0898 4.9492 1.3242 8.9375 4.9844 10.688 9.8008 1.75 4.8125 1.0391 10.18-1.9023 14.375-2.9453 4.1953-7.75 6.6875-12.871 6.6797z"/>
  <path d="m400 407.87c12.523 0 24.539-4.9766 33.398-13.836 8.8555-8.8555 13.832-20.871 13.832-33.398 0-12.523-4.9766-24.539-13.832-33.398-8.8594-8.8555-20.875-13.832-33.398-13.832-12.527 0-24.543 4.9766-33.398 13.832-8.8594 8.8594-13.836 20.875-13.836 33.398 0.011719 12.523 4.9922 24.531 13.848 33.387 8.8555 8.8555 20.863 13.836 33.387 13.848zm-30.371-39.359h22.496v22.5-0.003907c-5.4102-1.4141-10.344-4.2422-14.297-8.1992-3.957-3.9531-6.7852-8.8867-8.1992-14.297zm38.242 22.496v-22.496h22.5-0.003906c-1.4141 5.4102-4.2422 10.344-8.1953 14.297-3.957 3.957-8.8906 6.7852-14.301 8.1992zm22.496-38.242h-22.496v-22.496c5.4102 1.4141 10.344 4.2422 14.301 8.1953 3.9531 3.957 6.7812 8.8906 8.1953 14.301zm-38.242-22.496v22.496h-22.496c1.4141-5.4102 4.2422-10.344 8.1992-14.301 3.9531-3.9531 8.8867-6.7812 14.297-8.1953z"/>
  <path d="m313.41 352.77h15.742v15.742h-15.742z"/>
  <path d="m470.85 352.77h15.742v15.742h-15.742z"/>
 </g>
</svg>