<?xml version="1.0" encoding="UTF-8"?>
<!-- The Best Svg Icon site in the world: iconSvg.co, Visit us! https://iconsvg.co -->
<svg fill="#000000" width="800px" height="800px" version="1.1" viewBox="144 144 512 512" xmlns="http://www.w3.org/2000/svg">
 <g>
  <path d="m581.51 563.38c-7.4648 0-14.484-2.9062-19.766-8.1875l-63.867-63.867c-5.2812-5.2812-8.1875-12.301-8.1875-19.758 0-7.4648 2.9062-14.484 8.1875-19.758 10.555-10.555 28.953-10.57 39.523 0l63.867 63.867c10.895 10.895 10.895 28.621 0 39.516-5.2812 5.2812-12.301 8.1875-19.758 8.1875zm-63.875-104.01c-3.1211 0-6.2422 1.1914-8.625 3.5664-2.3047 2.3047-3.5742 5.3672-3.5742 8.625 0 3.25 1.2695 6.3203 3.5742 8.625l63.867 63.867c4.7656 4.7578 12.492 4.7422 17.258 0 4.7578-4.7578 4.7578-12.492 0-17.25l-63.867-63.867c-2.3828-2.3711-5.5039-3.5664-8.6328-3.5664z"/>
  <path d="m367.5 372.91c-54.289-7.7578-69.758-67.227-70.387-69.758l-1.082-4.3203 24.438-24.438 11.133 11.133-17.926 17.934c4.25 12.383 19.711 48.668 56.059 53.859z"/>
  <path d="m416.46 493.42c-6.4648-1.5391-12.016-8.043-14.145-16.559-2.043-8.1641-2.3516-23.555 13.961-42.68-36.676-12.438-54.312-64.082-55.137-66.566l-1.5469-4.6211 24.73-24.723 11.133 11.133-17.695 17.695c5.5195 13.676 24.355 54.02 54.711 54.02h20.773l-15.551 13.77c-19.395 17.16-21.164 29.898-20.496 35.969 0.53906 4.8672 2.7734 7.0938 3.3047 7.3789z"/>
  <path d="m426.91 423.42 21.285-21.285 11.133 11.133-21.285 21.285z"/>
  <path d="m446.67 550.05c-11.484 0-22.277-4.4727-30.402-12.602-16.766-16.758-16.766-44.043 0-60.801 8.125-8.125 18.918-12.602 30.402-12.602s22.285 4.4727 30.402 12.602c16.766 16.758 16.766 44.043 0 60.801-8.1133 8.1289-18.914 12.602-30.402 12.602zm0-70.254c-7.2812 0-14.121 2.8359-19.273 7.9883-10.625 10.625-10.625 27.914 0 38.539 10.301 10.301 28.242 10.301 38.547 0 10.625-10.625 10.625-27.914 0-38.539-5.1484-5.1523-11.992-7.9883-19.273-7.9883z"/>
  <path d="m480.62 491.33-11.133-11.133 22.816-22.816-221.43-221.44c-4.8125-4.8125-12.621-4.8125-17.434 0-2.3672 2.375-3.1758 5.918-2.0508 9.0156 15.297 42.129 52.906 48.27 54.496 48.508l-2.2617 15.582c-1.9688-0.28516-48.43-7.4805-67.035-58.719-3.1992-8.8164-0.96094-18.836 5.7109-25.516 10.945-10.961 28.758-10.953 39.707-0.007813l232.56 232.57z"/>
  <path d="m249.12 441.24c-83.035-95.801-22.52-200.44-7.1602-217.07 5.3047-5.7578 10.68-2.0898 11.27-1.6523 0.97656 0.71484 5.6289 4.6523 1.5625 11.699l-13.637-7.8711 6.7188 3.875-3.8672 5.0508c3.5195 2.5078 7.7969 1.3359 9.5469-0.45312-0.85156 0.88281-74.602 101.43 7.4648 196.1z"/>
  <path d="m269.26 478.21c-7.1484 0-14.305-2.7227-19.758-8.1719-5.2812-5.2812-8.1875-12.301-8.1875-19.758 0-7.4648 2.9062-14.484 8.1875-19.766 10.91-10.887 28.637-10.871 39.516 0 5.2812 5.2812 8.1875 12.301 8.1875 19.766 0 7.457-2.9062 14.477-8.1875 19.758-5.4453 5.4414-12.602 8.1719-19.758 8.1719zm-8.625-19.305c4.7578 4.7578 12.508 4.7422 17.25 0 4.7578-4.7578 4.7578-12.5 0-17.258-4.7422-4.7422-12.492-4.7578-17.25 0-4.7617 4.7578-4.7617 12.5 0 17.258z"/>
  <path d="m297.64 534.98c-7.1484 0-14.305-2.7227-19.758-8.1641l-1.5312-1.5312-8.625 8.625-11.133-11.133 19.758-19.758 12.66 12.66c4.7656 4.7578 12.523 4.7422 17.258 0 4.7578-4.7578 4.7578-12.5 0-17.258l-28.391-28.383 11.133-11.133 28.391 28.383c5.2812 5.2812 8.1875 12.301 8.1875 19.766 0 7.457-2.9062 14.477-8.1875 19.758-5.4492 5.4453-12.605 8.168-19.762 8.168z"/>
 </g>
</svg>