<?xml version="1.0" encoding="UTF-8"?>
<!-- The Best Svg Icon site in the world: iconSvg.co, Visit us! https://iconsvg.co -->
<svg fill="#000000" width="800px" height="800px" version="1.1" viewBox="144 144 512 512" xmlns="http://www.w3.org/2000/svg">
 <g>
  <path d="m203.5 601.52h392.97c2.7812 0 5.0391-2.2539 5.0391-5.0391s-2.2539-5.0391-5.0391-5.0391h-191.45v-126.71c5.3672 5.6328 11.973 9.9883 19.457 12.676 5.4961 1.9727 11.172 2.9531 16.832 2.9531 7.3633 0 14.695-1.6562 21.535-4.9531 12.121-5.8359 21.242-16.043 25.684-28.738 3.5195-10.055 3.7695-20.719 0.82031-30.746 10.594 0.74609 21.105-1.8555 30.262-7.6094 11.387-7.1602 19.309-18.32 22.301-31.434 5.5508-24.328-7.6133-48.645-29.988-57.805 7.1914-7.8086 11.711-17.656 12.922-28.406 1.5039-13.367-2.2852-26.52-10.672-37.039-15.559-19.496-42.766-24.363-63.895-12.586-3.75-24.086-24.633-42.574-49.754-42.574-24.953 0-45.73 18.25-49.68 42.102-9.2109-5.2734-19.82-7.4766-30.574-6.2773-13.367 1.5039-25.348 8.1289-33.734 18.648-15.562 19.512-14.242 47.133 1.9375 65.086-9.8711 3.918-18.215 10.828-23.969 19.988-7.1523 11.387-9.4453 24.879-6.4531 37.996 2.9922 13.113 10.914 24.273 22.301 31.434 9.0312 5.6719 19.379 8.2891 29.793 7.6406-3.0898 10.156-2.8867 20.988 0.6875 31.199 4.4414 12.695 13.562 22.898 25.684 28.738 20.16 9.6992 43.668 4.6758 58.426-10.75v127.16h-191.45c-2.7812 0-5.0391 2.2539-5.0391 5.0391 0.003906 2.7852 2.2578 5.0391 5.043 5.0391zm137.39-135.58c-9.6953-4.6641-16.988-12.832-20.543-22.984-3.5508-10.156-2.9414-21.086 1.9688-31.211 0.03125-0.058594 0.35547-0.64453 0.38672-0.70312 0.91797-1.75 0.72266-3.8828-0.5-5.4414-1.2227-1.5586-3.2383-2.2539-5.168-1.7812-0.089843 0.019531-0.83203 0.23047-0.92187 0.26172-10.484 2.3867-21.285 0.55469-30.395-5.1641-9.1094-5.7227-15.445-14.652-17.836-25.141-2.3945-10.488-0.5625-21.285 5.1641-30.395 5.7227-9.1055 14.652-15.445 25.617-17.918 0.0625-0.011719 0.74219-0.12109 0.80469-0.13672 1.9492-0.37891 3.4922-1.8711 3.9453-3.8047 0.44922-1.9297-0.27734-3.9492-1.8555-5.1523-0.0625-0.042969-0.69141-0.49609-0.75391-0.54297-17.363-13.844-20.223-39.238-6.3789-56.605 6.707-8.4141 16.293-13.707 26.984-14.914 10.695-1.1992 21.215 1.8242 29.988 8.8555 0.050781 0.042969 0.5625 0.5 0.61328 0.54688 1.5117 1.2773 3.6367 1.5508 5.4219 0.70703 1.7891-0.85547 2.9141-2.6758 2.875-4.6602-0.003906-0.078125-0.046875-0.84766-0.050781-0.92969-0.007813-22.211 18.059-40.281 40.27-40.281s40.281 18.07 40.254 40.781c-0.003906 0.058594-0.039062 0.73828-0.042968 0.80078-0.058594 1.9844 1.0469 3.8125 2.8281 4.6836 1.7773 0.85547 3.9102 0.60156 5.4336-0.66016 0.0625-0.054688 0.63672-0.56641 0.69531-0.62109 17.371-13.852 42.762-10.992 56.605 6.3828 6.707 8.4102 9.7383 18.926 8.5352 29.625-1.207 10.691-6.5 20.273-15.305 27.262l-0.65625 0.46094c-1.5859 1.1758-2.3398 3.1797-1.9219 5.1055 0.41797 1.9336 1.9297 3.4453 3.8633 3.8633 0.03125 0.003906 0.89063 0.15625 0.97266 0.17188 21.648 4.9453 35.242 26.578 30.301 48.23-4.9414 21.656-26.605 35.246-48.68 30.18-0.0625-0.019531-0.74609-0.21484-0.80859-0.23047-1.918-0.49609-3.9648 0.17578-5.2031 1.7266-1.2422 1.5547-1.457 3.6914-0.54297 5.457 0.03125 0.0625 0.40234 0.73438 0.4375 0.79297 4.668 9.6914 5.2812 20.625 1.7266 30.781-3.5508 10.156-10.848 18.32-20.543 22.984-9.6523 4.6602-20.52 5.2188-30.59 1.5977-10.062-3.6094-18.188-10.965-23.07-21.164-0.023437-0.058594-0.28516-0.6875-0.30859-0.74219-0.80859-1.8203-2.6094-2.9922-4.6016-2.9922h-0.003906c-1.9883 0-3.7891 1.1719-4.6016 2.9883-0.03125 0.0625-0.31641 0.76172-0.34375 0.82812-9.7305 20.203-33.992 28.781-54.066 19.102z"/>
  <path d="m399.99 307.64c14.652 0 26.578-11.922 26.578-26.578 0-14.652-11.922-26.574-26.578-26.574-14.652 0-26.574 11.922-26.574 26.574 0 14.656 11.922 26.578 26.574 26.578zm0-43.078c9.0977 0 16.5 7.3984 16.5 16.496 0 9.0977-7.4023 16.5-16.5 16.5-9.0977 0-16.5-7.4062-16.5-16.5s7.4023-16.496 16.5-16.496z"/>
  <path d="m343.66 312.84c-14.652 0-26.574 11.922-26.574 26.578-0.003906 14.656 11.918 26.578 26.574 26.578 14.652 0 26.578-11.922 26.578-26.578-0.003906-14.656-11.926-26.578-26.578-26.578zm0 43.078c-9.0977 0-16.5-7.4062-16.5-16.5 0-9.0977 7.4023-16.5 16.5-16.5s16.5 7.4062 16.5 16.5c0 9.0977-7.4023 16.5-16.5 16.5z"/>
  <path d="m456.32 365.99c14.652 0 26.578-11.922 26.578-26.578s-11.922-26.578-26.578-26.578c-14.652 0-26.574 11.922-26.574 26.578-0.003906 14.656 11.918 26.578 26.574 26.578zm0-43.082c9.0977 0 16.5 7.4062 16.5 16.5 0 9.1016-7.4023 16.504-16.5 16.504-9.0977 0-16.5-7.4062-16.5-16.5 0-9.0977 7.4023-16.504 16.5-16.504z"/>
  <path d="m426.57 395.91c0-14.656-11.922-26.578-26.578-26.578-14.652 0-26.574 11.922-26.574 26.578 0 14.652 11.922 26.574 26.574 26.574 14.656-0.003907 26.578-11.922 26.578-26.574zm-43.078 0c0-9.0977 7.4023-16.5 16.5-16.5 9.0977 0 16.5 7.4062 16.5 16.5 0 9.0977-7.4023 16.496-16.5 16.496-9.0977 0-16.5-7.3984-16.5-16.496z"/>
 </g>
</svg>