<?xml version="1.0" encoding="UTF-8"?>
<!-- The Best Svg Icon site in the world: iconSvg.co, Visit us! https://iconsvg.co -->
<svg fill="#000000" width="800px" height="800px" version="1.1" viewBox="144 144 512 512" xmlns="http://www.w3.org/2000/svg">
 <path d="m510.21 400h-23.66c0.03125-2.7148 0.046875-5.4414 0.046875-8.1523 0-63.059-8.3633-120.5-23.543-161.75-14.531-39.488-34.762-62.562-57.434-65.828v-0.003906c-1.8203-0.54297-3.7266-0.73047-5.6172-0.55469-1.8906-0.17578-3.793 0.007813-5.6094 0.55078-22.672 3.2695-42.902 26.34-57.438 65.828-15.184 41.258-23.547 98.703-23.547 161.76 0 2.7148 0.015625 5.4375 0.046875 8.1523l-23.664 0.003906c-4.3477 0-7.8711 3.5234-7.8711 7.8711v110.21c0 42.188 22.508 81.168 59.039 102.26 36.535 21.094 81.547 21.094 118.08 0 36.535-21.094 59.039-60.074 59.039-102.26v-110.21c0-2.0898-0.82812-4.0898-2.3047-5.5664-1.4766-1.4766-3.4805-2.3047-5.5664-2.3047zm-139.69-201.29c-1.9297 6.2305-3.7109 13.32-5.3477 21.262-0.45703 2.2109-0.89844 4.4961-1.3281 6.832h-8.7578c4.75-11.332 9.9531-20.734 15.434-28.094zm-21.332 43.844h12.078c-1.3984 9.6484-2.6289 20.145-3.6836 31.488h-16.992c2.3164-10.641 5.1875-21.148 8.5977-31.488zm-11.742 47.23h18.824c-0.73828 9.9297-1.3633 20.426-1.8711 31.488h-21.504c1.2461-11.086 2.7617-21.582 4.5508-31.488zm-6.0859 47.23h22.414c-0.34375 10.078-0.60156 20.57-0.76562 31.488l-23.469 0.003907c0.36328-10.914 0.96875-21.41 1.8203-31.488zm-2.1641 47.23h23.629c-0.035156 5.168-0.054687 10.418-0.054687 15.75v1.7852c-5.1641-1.1836-10.445-1.7812-15.742-1.7852h-7.8242c-0.03125-2.7188-0.03125-13.234-0.003907-15.746zm62.934 235.87c-25.691-2.0156-49.68-13.637-67.188-32.547-17.508-18.91-27.246-43.727-27.273-69.496v-102.34h39.359c14.609 0.015624 28.613 5.8281 38.945 16.156 10.332 10.332 16.141 24.34 16.156 38.949zm0-193.73c-6.418-7.9414-14.465-14.41-23.598-18.973-0.011719-2.4492-0.015625-4.9219-0.015625-7.418 0-5.3789 0.019531-10.629 0.058593-15.742l23.555-0.003906zm0-57.879h-23.379c0.17188-11.137 0.43359-21.633 0.78125-31.488h22.598zm0-47.23-21.957-0.003906c0.53125-11.383 1.1719-21.855 1.9023-31.488h20.055zm0-47.23-18.719-0.003906c1.1328-11.934 2.4102-22.367 3.7734-31.488h14.945zm0-47.23-12.281-0.007812c4.1406-21.551 8.6836-33.352 12.281-39.793zm78.672 173.18-7.8203-0.003906c-5.3008 0.003906-10.582 0.60156-15.746 1.7852v-1.7852c0-5.3359-0.019531-10.586-0.058594-15.742h23.629c0.027344 2.5078 0.027344 13.023-0.003906 15.742zm-0.33594-31.488-23.465-0.003906c-0.16406-10.906-0.42188-21.402-0.76562-31.488h22.41c0.84375 10.074 1.4492 20.57 1.8203 31.488zm-3.3516-47.238h-21.512c-0.50391-11.051-1.1289-21.547-1.8633-31.488h18.824c1.7773 9.9023 3.293 20.398 4.5508 31.488zm-7.6953-47.23h-16.992c-1.0547-11.348-2.2852-21.844-3.6836-31.488h12.074c3.4102 10.34 6.2812 20.848 8.5977 31.488zm-14.492-47.234h-8.7578c-0.42969-2.3359-0.87109-4.625-1.3281-6.832-1.6406-7.9531-3.4219-15.043-5.3477-21.262 5.4727 7.3555 10.676 16.758 15.434 28.094zm-37.051-39.637c3.375 6.1016 7.6133 16.906 11.543 35.98 0.24609 1.1992 0.49219 2.418 0.73047 3.6562h-12.273zm0 55.383h14.957c1.4414 9.582 2.7031 20.078 3.7852 31.488h-18.742zm0 47.23h20.078c0.75 9.9102 1.3828 20.406 1.8945 31.488h-21.973zm0 47.23h22.609c0.34766 10.062 0.60547 20.559 0.77344 31.488l-23.383 0.003907zm0 47.23h23.559c0.039062 5.1641 0.058593 10.41 0.058593 15.742 0 2.5-0.003906 4.9727-0.015625 7.4141v0.007812c-9.1367 4.5625-17.184 11.031-23.602 18.969zm94.465 133.82v0.003906c-0.03125 25.77-9.7695 50.586-27.277 69.496-17.508 18.91-41.496 30.531-67.188 32.547v-149.27c0.015625-14.609 5.8281-28.617 16.156-38.949 10.332-10.328 24.336-16.141 38.949-16.156h39.359z"/>
</svg>