<?xml version="1.0" encoding="UTF-8"?>
<!-- The Best Svg Icon site in the world: iconSvg.co, Visit us! https://iconsvg.co -->
<svg fill="#000000" width="800px" height="800px" version="1.1" viewBox="144 144 512 512" xmlns="http://www.w3.org/2000/svg">
 <g>
  <path d="m394.5 474.3c38.531 0 69.879-31.594 69.879-70.426 0-38.832-31.348-70.426-69.879-70.426s-69.879 31.59-69.879 70.426c0 38.832 31.348 70.426 69.879 70.426zm0-130.78c32.977 0 59.805 27.074 59.805 60.348 0 33.277-26.828 60.352-59.805 60.352-32.977 0-59.805-27.074-59.805-60.352 0.003906-33.273 26.828-60.348 59.805-60.348z"/>
  <path d="m597.29 216.14-42.254-6.8125v-5.8164c0-2.7812-2.2539-5.0391-5.0391-5.0391h-47.234c-2.7812 0-5.0391 2.2539-5.0391 5.0391v2.7227h-103.21c-108.09 0-196.03 88.664-196.03 197.64 0 108.98 87.938 197.64 196.03 197.64 108.09 0 196.03-88.664 196.03-197.64 0-45.066-15.215-88.547-43.008-123.52h2.4648c2.7812 0 5.0391-2.2539 5.0391-5.0391v-5.8164l42.254-6.8125c2.4414-0.39453 4.2383-2.5039 4.2383-4.9766v-36.602c0-2.4727-1.7969-4.582-4.2383-4.9766zm-89.488-7.5898h37.16v61.734h-37.16zm72.664 195.33c0 103.43-83.422 187.57-185.96 187.57s-185.95-84.141-185.95-187.57c0-103.42 83.418-187.57 185.95-187.57h103.21v46.234h-103.21c-77.301 0-140.19 63.402-140.19 141.33 0 77.93 62.891 141.33 140.19 141.33 77.301 0 140.19-63.402 140.19-141.33 0-59.453-36.625-110.42-88.305-131.26h51.328v2.6992c0 2.7812 2.2539 5.0391 5.0391 5.0391h31.66c29.688 34.188 46.043 77.992 46.043 123.52zm-185.96-131.26c71.746 0 130.11 58.879 130.11 131.26 0.003906 72.375-58.367 131.25-130.11 131.25s-130.11-58.879-130.11-131.25 58.367-131.26 130.11-131.26zm196.94-19.191-36.414 5.8711v-39.766l36.414 5.8711z"/>
 </g>
</svg>