<?xml version="1.0" encoding="UTF-8"?>
<!-- The Best Svg Icon site in the world: iconSvg.co, Visit us! https://iconsvg.co -->
<svg fill="#000000" width="800px" height="800px" version="1.1" viewBox="144 144 512 512" xmlns="http://www.w3.org/2000/svg">
 <g>
  <path d="m422.21 344.52c0-3.375-2.7188-6.0977-6.0469-6.0977l-32.344 0.003906c-3.3242 0-6.0469 2.7227-6.0469 6.0977v16.777h44.438z"/>
  <path d="m362.92 368.85h74.16v22.824h-74.16z"/>
  <path d="m599.96 500.34c-0.80469-21.715-18.137-38.742-39.398-38.742-19.902 0-36.727 15.215-39.145 35.418l-0.10156 1.1094h-106.51v-98.898h-29.625v98.898h-106.5l-0.10156-1.1094c-2.418-20.203-19.246-35.418-39.145-35.418-21.262 0-38.594 17.027-39.449 39.094-0.14844 0.45703-0.25 0.80859-0.25 1.2109 0 2.0664 1.7148 3.7773 3.7773 3.7773h392.97c2.0664 0 3.7773-1.7109 3.7773-3.7773 0-0.40234-0.10156-0.75391-0.30078-1.5625z"/>
  <path d="m324.44 315.35c0.71484 0.73438 1.6719 1.1367 2.6992 1.1367 0.99219 0 1.9336-0.38281 2.6406-1.0781 0.72266-0.70703 1.125-1.6523 1.1367-2.6602 0.011719-1.0078-0.36719-1.9648-1.0781-2.6836l-14.297-14.625c-0.71484-0.73047-1.6719-1.1328-2.6953-1.1328-1 0-1.9375 0.38281-2.6484 1.0742-0.72266 0.70703-1.125 1.6523-1.1367 2.6602-0.011719 1.0078 0.36719 1.9648 1.0781 2.6836z"/>
  <path d="m284.04 340.98 18.477 3.9883c0.26953 0.058594 0.53516 0.085938 0.80859 0.085938 1.7617 0 3.3164-1.2539 3.6914-2.9805 0.4375-2.0352-0.85938-4.0547-2.8984-4.4961l-18.477-3.9883c-0.25391-0.054688-0.52344-0.082032-0.78125-0.082032-1.7773 0-3.3398 1.2539-3.7148 2.9727-0.44141 2.043 0.85547 4.0586 2.8945 4.5z"/>
  <path d="m284.83 396.6c0.26953 0 0.53516-0.027344 0.80078-0.082031l18.48-3.9922c2.0352-0.44141 3.3359-2.457 2.8984-4.4961-0.37891-1.75-1.9023-2.9727-3.7109-2.9727-0.26562 0-0.53125 0.027343-0.78125 0.078124l-18.48 3.9922c-2.0352 0.44141-3.3359 2.457-2.8984 4.4922 0.375 1.7227 1.9297 2.9805 3.6914 2.9805z"/>
  <path d="m321.86 417.39-11.723 11.988c-1.457 1.4922-1.4258 3.8867 0.058594 5.3438 0.70703 0.69531 1.6484 1.0781 2.6406 1.0781 1.0234 0 1.9844-0.40234 2.6992-1.1367l11.727-11.988c0.70703-0.72266 1.0859-1.6758 1.0781-2.6836-0.011719-1.0078-0.41406-1.9531-1.1367-2.6602-0.70703-0.69531-1.6445-1.0742-2.6328-1.0742-1.0273-0.003906-1.9922 0.40234-2.7109 1.1328z"/>
  <path d="m478.09 316.49c1.0273 0 1.9883-0.40234 2.6992-1.1367l14.301-14.621c0.70703-0.72266 1.0859-1.6758 1.0781-2.6836-0.011719-1.0078-0.41406-1.9531-1.1367-2.6602-0.70703-0.69531-1.6484-1.0742-2.6406-1.0742-1.0273 0-1.9883 0.40234-2.6992 1.1328l-14.297 14.621c-0.70703 0.72266-1.0859 1.6758-1.0781 2.6836 0.011719 1.0078 0.41406 1.9531 1.1367 2.6602 0.70312 0.69531 1.6445 1.0781 2.6367 1.0781z"/>
  <path d="m501.91 345.06c0.26953 0 0.53516-0.027344 0.80078-0.082032l18.48-3.9922c2.0352-0.44141 3.3359-2.457 2.8984-4.4922-0.375-1.7227-1.9336-2.9766-3.7109-2.9766-0.26172 0-0.53125 0.027344-0.78125 0.078125l-18.48 3.9922c-2.0352 0.44141-3.3359 2.457-2.8984 4.4922 0.375 1.7227 1.9297 2.9805 3.6914 2.9805z"/>
  <path d="m501.12 392.52 18.477 3.9883c0.26953 0.058594 0.53516 0.085938 0.80859 0.085938 1.7617 0 3.3164-1.2539 3.6914-2.9805 0.4375-2.0352-0.85938-4.0547-2.8984-4.4961l-18.469-3.9883c-0.26172-0.054687-0.52734-0.082031-0.78906-0.082031-1.7773 0-3.3398 1.2539-3.7148 2.9727-0.44141 2.043 0.85547 4.0586 2.8945 4.5z"/>
  <path d="m483.37 417.39c-0.71875-0.73438-1.6758-1.1406-2.707-1.1406-0.99219 0-1.9297 0.38281-2.6367 1.0781-0.72266 0.70703-1.125 1.6523-1.1367 2.6602-0.007813 1.0117 0.37109 1.9648 1.0781 2.6875l11.723 11.988c0.71875 0.73438 1.6758 1.1367 2.6992 1.1367 0.99219 0 1.9336-0.38281 2.6406-1.0781 1.4844-1.457 1.5156-3.8516 0.058594-5.3438z"/>
 </g>
</svg>