<?xml version="1.0" encoding="UTF-8"?>
<!-- The Best Svg Icon site in the world: iconSvg.co, Visit us! https://iconsvg.co -->
<svg fill="#000000" width="800px" height="800px" version="1.1" viewBox="144 144 512 512" xmlns="http://www.w3.org/2000/svg">
 <g>
  <path d="m202.76 393.43c46.105 6.9727 206.46 42.453 334.1 206.16 0.99219 1.2734 2.4727 1.9414 3.9727 1.9414 1.0859 0 2.1758-0.34766 3.0938-1.0664 2.1953-1.7109 2.5898-4.875 0.875-7.0703-10.852-13.918-21.953-26.848-33.184-39.004 27.543-16.562 55.844-29.383 86.387-39.047 2.6523-0.83984 4.1211-3.6719 3.2852-6.3242-0.84375-2.6562-3.6719-4.1211-6.3242-3.2852-31.992 10.125-61.59 23.609-90.402 41.133-13.418-14.027-27.016-26.855-40.652-38.613 52.988-32.168 101.87-49.359 133.9-58.129 2.6836-0.73438 4.2617-3.5039 3.5273-6.1875-0.73438-2.6836-3.5078-4.2695-6.1875-3.5273-33.234 9.0977-84.23 27.059-139.31 60.949-15.617-12.973-31.23-24.496-46.645-34.824 83.695-52.812 159.09-68.723 188.04-73.102 2.7539-0.41406 4.6445-2.9844 4.2305-5.7344-0.41406-2.7539-3.0117-4.6562-5.7344-4.2305-30.035 4.543-108.96 21.133-195.83 76.965-86.789-55.699-165.36-72.383-195.64-76.965-2.7188-0.41797-5.3164 1.4766-5.7344 4.2305-0.41797 2.75 1.4727 5.3164 4.2266 5.7344z"/>
  <path d="m202.18 450.11c64.512 17.656 159.89 57.988 247.91 149.86 0.99219 1.0352 2.3125 1.5547 3.6367 1.5547 1.2539 0 2.5078-0.46484 3.4844-1.3984 2.0117-1.9258 2.0781-5.1133 0.15234-7.125-89.617-93.527-186.79-134.61-252.53-152.6-2.6836-0.74219-5.457 0.84375-6.1875 3.5273-0.73828 2.6836 0.84375 5.4531 3.5273 6.1875z"/>
  <path d="m202.08 512.1c50.137 14.887 100.02 45.316 144.26 88.012 0.97656 0.94141 2.2383 1.4141 3.5 1.4141 1.3203 0 2.6367-0.51563 3.625-1.5391 1.9297-2.0039 1.875-5.1914-0.12891-7.125-45.398-43.812-96.711-75.078-148.39-90.418-2.6797-0.80469-5.4727 0.72656-6.2617 3.3945-0.79297 2.668 0.72656 5.4688 3.3945 6.2617z"/>
  <path d="m443.62 302c0-24.055-19.57-43.625-43.625-43.625s-43.625 19.57-43.625 43.625 19.57 43.625 43.625 43.625 43.625-19.57 43.625-43.625zm-43.625 33.547c-18.5 0-33.551-15.051-33.551-33.547 0-18.5 15.051-33.551 33.551-33.551s33.551 15.051 33.551 33.551c-0.003906 18.5-15.055 33.547-33.551 33.547z"/>
  <path d="m400 236.59c2.7812 0 5.0391-2.2539 5.0391-5.0391l-0.003906-28.043c0-2.7812-2.2539-5.0391-5.0391-5.0391-2.7812 0-5.0391 2.2539-5.0391 5.0391v28.043c0.003907 2.7812 2.2578 5.0391 5.043 5.0391z"/>
  <path d="m360.41 243.51c0.93359 1.6172 2.6289 2.5195 4.3672 2.5195 0.85547 0 1.7227-0.21484 2.5156-0.67578 2.4102-1.3906 3.2344-4.4766 1.8438-6.8828l-14.023-24.285c-1.3945-2.4102-4.4805-3.2422-6.8828-1.8438-2.4102 1.3906-3.2344 4.4766-1.8438 6.8828z"/>
  <path d="m312.19 257.12 24.285 14.023c0.79297 0.45703 1.6602 0.67578 2.5156 0.67578 1.7422 0 3.4336-0.90234 4.3672-2.5195 1.3906-2.4102 0.56641-5.4922-1.8438-6.8828l-24.285-14.023c-2.4141-1.3984-5.4922-0.56641-6.8828 1.8438-1.3906 2.4102-0.57031 5.4922 1.8438 6.8828z"/>
  <path d="m301.51 307.04h28.043c2.7812 0 5.0391-2.2539 5.0391-5.0391 0-2.7812-2.2539-5.0391-5.0391-5.0391h-28.043c-2.7812 0-5.0391 2.2539-5.0391 5.0391 0.003906 2.7852 2.2578 5.0391 5.0391 5.0391z"/>
  <path d="m336.47 332.86-24.285 14.023c-2.4102 1.3906-3.2344 4.4766-1.8438 6.8828 0.93359 1.6172 2.6289 2.5195 4.3672 2.5195 0.85547 0 1.7227-0.21484 2.5156-0.67578l24.281-14.02c2.4102-1.3906 3.2344-4.4766 1.8438-6.8828-1.3906-2.4141-4.4727-3.2383-6.8789-1.8477z"/>
  <path d="m348.23 391.66c0.79297 0.45703 1.6602 0.67578 2.5156 0.67578 1.7422 0 3.4336-0.90234 4.3672-2.5195l14.023-24.289c1.3906-2.4102 0.56641-5.4922-1.8438-6.8828-2.4102-1.3984-5.4922-0.5625-6.8828 1.8438l-14.023 24.285c-1.3906 2.4102-0.56641 5.4922 1.8438 6.8867z"/>
  <path d="m394.96 372.45v28.043c0 2.7812 2.2539 5.0391 5.0391 5.0391 2.7812 0 5.0391-2.2539 5.0391-5.0391v-28.043c0-2.7812-2.2539-5.0391-5.0391-5.0391s-5.0391 2.2578-5.0391 5.0391z"/>
  <path d="m444.88 389.81c0.93359 1.6172 2.6289 2.5195 4.3672 2.5195 0.85547 0 1.7227-0.21484 2.5156-0.67578 2.4102-1.3906 3.2344-4.4766 1.8438-6.8828l-14.023-24.285c-1.3906-2.4102-4.4766-3.2422-6.8828-1.8438-2.4102 1.3906-3.2344 4.4766-1.8438 6.8828z"/>
  <path d="m458.49 341.59 24.285 14.023c0.79297 0.45703 1.6602 0.67578 2.5156 0.67578 1.7422 0 3.4336-0.90234 4.3672-2.5195 1.3906-2.4102 0.56641-5.4922-1.8438-6.8828l-24.285-14.023c-2.4141-1.3906-5.4961-0.56641-6.8828 1.8438-1.3906 2.4062-0.56641 5.4883 1.8438 6.8828z"/>
  <path d="m465.41 302c0 2.7812 2.2539 5.0391 5.0391 5.0391h28.043c2.7812 0 5.0391-2.2539 5.0391-5.0391 0-2.7812-2.2539-5.0391-5.0391-5.0391h-28.043c-2.7812 0.003906-5.0391 2.2578-5.0391 5.0391z"/>
  <path d="m461.01 271.82c0.85547 0 1.7227-0.21484 2.5156-0.67578l24.285-14.023c2.4102-1.3906 3.2344-4.4766 1.8438-6.8828-1.3945-2.4141-4.4805-3.2422-6.8828-1.8438l-24.285 14.023c-2.4102 1.3906-3.2344 4.4766-1.8438 6.8828 0.93359 1.6172 2.625 2.5195 4.3672 2.5195z"/>
  <path d="m432.7 245.36c0.79297 0.45703 1.6602 0.67578 2.5156 0.67578 1.7422 0 3.4336-0.90234 4.3672-2.5195l14.023-24.285c1.3906-2.4102 0.56641-5.4922-1.8438-6.8828-2.4141-1.3984-5.4922-0.56641-6.8828 1.8438l-14.027 24.281c-1.3867 2.4102-0.5625 5.4922 1.8477 6.8867z"/>
 </g>
</svg>