<?xml version="1.0" encoding="UTF-8"?>
<!-- The Best Svg Icon site in the world: iconSvg.co, Visit us! https://iconsvg.co -->
<svg fill="#000000" width="800px" height="800px" version="1.1" viewBox="144 144 512 512" xmlns="http://www.w3.org/2000/svg">
 <g>
  <path d="m244.28 601.52h169.11c10.332 0 18.738-8.4023 18.738-18.738l-0.003906-230.82h6.9219c2.7852 0 5.0391-2.2539 5.0391-5.0391v-36.066c0-2.7852-2.2539-5.0391-5.0391-5.0391l-220.41 0.003906c-2.7852 0-5.0391 2.2539-5.0391 5.0391v36.066c0 2.7852 2.2539 5.0391 5.0391 5.0391h6.9219v230.82c0 10.328 8.4023 18.734 18.73 18.734zm29.676-249.55v30.309h-38.328v-30.309zm148.09 195.61h-186.42v-155.23h38.355c0.125 11.633 9.6133 21.07 21.281 21.07 11.664 0 21.148-9.4297 21.277-21.07h25.078v11.426c0 11.742 9.5508 21.301 21.301 21.301s21.301-9.5508 21.301-21.301v-11.426h37.832v155.23zm-80.43-165.3h-25.059v-30.309h25.059zm32.52 21.504c0 6.1914-5.0312 11.227-11.227 11.227-6.1914 0-11.227-5.0312-11.227-11.227l0.003906-87.875h22.445v87.875zm-32.52-61.883h-25.059v-25.992h25.059zm-35.137 50.23c0 6.1914-5.0312 11.227-11.227 11.227-6.1914 0-11.23-5.0312-11.23-11.227l0.003906-76.223h22.449v76.223zm106.9 199.32h-169.1c-4.7695 0-8.6562-3.8828-8.6562-8.6602v-25.129h186.42v25.129c0.003906 4.7773-3.8867 8.6602-8.6602 8.6602zm8.6641-209.17h-37.832v-30.309h37.832zm11.957-40.379h-49.793v-25.992h49.793zm-210.34-25.992h50.289v25.992h-50.289z"/>
  <path d="m352.23 437.47c-0.90234-1.5625-2.5625-2.5195-4.3633-2.5195h-38.059c-1.7969 0-3.4648 0.95703-4.3633 2.5195l-19.027 32.961c-0.90234 1.5625-0.90234 3.4766 0 5.0391l19.027 32.961c0.90234 1.5625 2.5625 2.5195 4.3633 2.5195h38.059c1.7969 0 3.4648-0.95703 4.3633-2.5195l19.027-32.961c0.90234-1.5625 0.90234-3.4766 0-5.0391zm-7.2734 63.398h-32.238l-16.121-27.922 16.121-27.922h32.238l16.121 27.922z"/>
  <path d="m586.41 273.85c0-7.9766-4.9219-14.812-11.891-17.668 1.9844-3.0117 3.1523-6.6055 3.1523-10.469 0-8.8906-6.1367-16.32-14.375-18.438 1.6992-2.8516 2.7344-6.1406 2.7344-9.6914 0-10.535-8.5703-19.105-19.105-19.105l-63.148-0.003907c-10.539 0-19.109 8.5703-19.109 19.105 0 3.5508 1.0391 6.8398 2.7344 9.6914-8.2422 2.1211-14.375 9.5469-14.375 18.438 0 3.8711 1.1758 7.4609 3.1523 10.469-6.9609 2.8555-11.891 9.6875-11.891 17.668 0 7.9805 4.9219 14.812 11.891 17.664-1.9844 3.0117-3.1523 6.6016-3.1523 10.469 0 8.8906 6.1367 16.32 14.375 18.438-1.6992 2.8516-2.7344 6.1406-2.7344 9.6914 0 10.539 8.5703 19.109 19.109 19.109h10.395l-0.003907 230.19c0 11.68 9.5 21.18 21.18 21.18s21.188-9.4961 21.188-21.18v-230.18h10.398c10.535 0 19.105-8.5703 19.105-19.109 0-3.5508-1.0391-6.8398-2.7344-9.6914 8.2422-2.1211 14.375-9.5469 14.375-18.438 0-3.8633-1.1758-7.457-3.1523-10.469 6.9609-2.8555 11.883-9.6914 11.883-17.664zm-102.63-65.301h63.156c4.9766 0 9.0273 4.0508 9.0273 9.0273s-4.0508 9.0273-9.0273 9.0273l-63.156 0.003906c-4.9766 0-9.0352-4.0508-9.0352-9.0273 0-4.9805 4.0547-9.0312 9.0352-9.0312zm-11.648 28.133h86.449c4.9766 0 9.0273 4.0508 9.0273 9.0273 0 4.9766-4.0508 9.0352-9.0273 9.0352h-86.449c-4.9766 0-9.0273-4.0547-9.0273-9.0352-0.003906-4.9766 4.0469-9.0273 9.0273-9.0273zm54.328 342.72c0 6.125-4.9766 11.105-11.105 11.105-6.125 0-11.105-4.9766-11.105-11.105l0.003906-230.18h22.207zm20.477-240.26h-63.156c-4.9766 0-9.0352-4.0547-9.0352-9.0352 0-4.9766 4.0547-9.0273 9.0352-9.0273h63.156c4.9766 0 9.0273 4.0508 9.0273 9.0273 0 4.9805-4.0508 9.0352-9.0273 9.0352zm11.645-28.137h-86.449c-4.9766 0-9.0273-4.0508-9.0273-9.0273s4.0508-9.0273 9.0273-9.0273h86.445c4.9766 0 9.0273 4.0508 9.0273 9.0273s-4.0469 9.0273-9.0234 9.0273zm8.7227-28.133h-103.9c-4.9766 0-9.0352-4.0508-9.0352-9.0273 0-4.9766 4.0547-9.0273 9.0352-9.0273h103.9c4.9766 0 9.0352 4.0508 9.0352 9.0273-0.003906 4.9766-4.0547 9.0273-9.0352 9.0273z"/>
 </g>
</svg>