<?xml version="1.0" encoding="UTF-8"?>
<!-- The Best Svg Icon site in the world: iconSvg.co, Visit us! https://iconsvg.co -->
<svg fill="#000000" width="800px" height="800px" version="1.1" viewBox="144 144 512 512" xmlns="http://www.w3.org/2000/svg">
 <g>
  <path d="m571.16 272.35c2.2266-0.39844 3.918-2.2383 4.125-4.4922 0.21094-2.2578-1.1133-4.375-3.2305-5.1758-2.1875-0.82813-49.82-18.348-100.1 1.9336 24.586-38.023 61.211-55.707 61.766-55.969 2.0391-0.95703 3.2031-3.1602 2.832-5.3867-0.37109-2.2266-2.1719-3.9336-4.4141-4.1875-0.69922-0.085937-55.535-5.5352-99.836 31.023-4.5938-7.6523-13.75-21.758-23.453-30.188-1.9414-1.6875-4.8359-1.6406-6.7227 0.10547-0.63672 0.58594-14.141 13.203-23.566 29.887-44.266-36.355-98.914-30.914-99.602-30.828-2.2422 0.24609-4.0508 1.9609-4.4141 4.1875-0.36719 2.2266 0.78906 4.4297 2.8359 5.3867 0.55469 0.25781 37.398 17.973 61.984 56.234-50.523-20.707-98.551-3.0391-100.75-2.207-2.1211 0.80078-3.4414 2.9219-3.2344 5.1797 0.21094 2.2578 1.9102 4.0977 4.1367 4.4922 0.69531 0.12109 69.531 13 103.16 74.332-25.68 19.211-42.406 49.766-42.406 84.23v100.46c0 38.793 31.562 70.352 70.352 70.352h69.812c38.789 0 70.352-31.559 70.352-70.352v-100.46c0-34.602-16.852-65.258-42.703-84.453 33.625-60.996 102.36-73.984 103.07-74.105zm-165.51-61.594c8.082 8.3281 15.613 20.418 19 26.184-6.8125 6.6211-13.262 14.367-19.09 23.449-5.875-9.1484-12.379-16.941-19.246-23.598 6.043-11.352 14.645-21.148 19.336-26.035zm-108.03-1.7852c19.441 1.2305 51.535 7.3555 78.609 31.992 0.17188 0.21094 0.38281 0.37109 0.58984 0.55859 8.8828 8.1953 17.211 18.383 24.348 31.094 0.058594 0.10938 0.17188 0.17578 0.24219 0.27734 0.17969 0.27734 0.40625 0.50781 0.64453 0.75 0.24609 0.24609 0.48438 0.47266 0.76953 0.66016 0.10156 0.066407 0.16016 0.17188 0.27344 0.23828 0.17578 0.097657 0.36719 0.10156 0.55078 0.17578 0.32422 0.13672 0.62891 0.24609 0.97266 0.3125 0.31641 0.058594 0.62109 0.074218 0.9375 0.074218 0.32812 0 0.63672-0.015624 0.96094-0.082031 0.33594-0.066406 0.64062-0.17578 0.95703-0.30859 0.17969-0.074219 0.37891-0.082032 0.55859-0.17969 0.10938-0.058594 0.17188-0.16797 0.27734-0.23828 0.28125-0.1875 0.51953-0.41406 0.76562-0.66016 0.24219-0.24219 0.46484-0.47266 0.64844-0.75391 0.070312-0.10547 0.17578-0.16797 0.24219-0.27734 28.984-51.637 77.566-62.004 103.55-63.645-24.867 16.742-70.211 56.316-73.18 122.71-10.902-3.8281-22.57-6.0195-34.762-6.0195s-23.859 2.1914-34.762 6.0195c-2.9805-66.383-48.324-105.96-73.191-122.7zm-37.621 58.574c20.223-3.7227 54.699-5.7539 87.895 12.539 7.5312 15.738 12.641 34.242 13.043 55.641-3.4023 1.6016-6.6914 3.375-9.8789 5.3164-25.074-45.078-66.879-65.246-91.059-73.496zm240.74 163.38v100.46c0 33.234-27.039 60.277-60.277 60.277l-69.812-0.003906c-33.234 0-60.277-27.039-60.277-60.277v-100.46c0-52.48 42.703-95.18 95.184-95.18 52.484 0.003906 95.184 42.699 95.184 95.184zm-40.996-90.07c-3.0938-1.8672-6.2773-3.5781-9.5664-5.125 0.40625-21.527 5.5859-40.137 13.219-55.949 32.91-17.879 67.121-15.887 87.238-12.219-24.145 8.2539-65.824 28.387-90.891 73.293z"/>
  <path d="m443.25 428.25c-1.9688 1.9648-1.9688 5.1523 0 7.125l17.211 17.215c0.94531 0.94531 2.2227 1.4766 3.5625 1.4766s2.6211-0.52734 3.5625-1.4766l17.211-17.215c1.9688-1.9688 1.9688-5.1602 0-7.125-1.9688-1.9688-5.1523-1.9688-7.125 0l-13.648 13.648-13.648-13.648c-1.9688-1.9688-5.1523-1.9688-7.125 0z"/>
  <path d="m384.79 428.25c-1.9688 1.9648-1.9688 5.1523 0 7.125l17.211 17.215c0.94531 0.94531 2.2227 1.4766 3.5625 1.4766s2.6211-0.52734 3.5625-1.4766l17.211-17.215c1.9688-1.9688 1.9688-5.1602 0-7.125-1.9688-1.9688-5.1523-1.9688-7.125 0l-13.648 13.648-13.648-13.648c-1.9648-1.9688-5.1562-1.9688-7.125 0z"/>
  <path d="m343.54 452.59c0.94531 0.94531 2.2227 1.4766 3.5625 1.4766s2.6211-0.52734 3.5625-1.4766l17.211-17.215c1.9688-1.9688 1.9688-5.1602 0-7.125-1.9688-1.9688-5.1523-1.9688-7.125 0l-13.648 13.648-13.648-13.648c-1.9688-1.9688-5.1523-1.9688-7.125 0-1.9688 1.9648-1.9688 5.1523 0 7.125z"/>
  <path d="m431.23 406.04c0.98438 0.98438 2.2734 1.4766 3.5625 1.4766 1.2891 0 2.5781-0.49219 3.5625-1.4766l17.211-17.211c1.9688-1.9688 1.9688-5.1523 0-7.125-1.9688-1.9688-5.1523-1.9688-7.125 0l-13.648 13.648-13.648-13.648c-1.9688-1.9688-5.1523-1.9688-7.125 0-1.9688 1.9688-1.9688 5.1523 0 7.125z"/>
  <path d="m372.77 406.04c0.98437 0.98438 2.2734 1.4766 3.5625 1.4766 1.2891 0 2.5781-0.49219 3.5625-1.4766l17.211-17.211c1.9688-1.9688 1.9688-5.1523 0-7.125-1.9688-1.9688-5.1523-1.9688-7.125 0l-13.648 13.648-13.648-13.648c-1.9688-1.9688-5.1523-1.9688-7.125 0-1.9688 1.9688-1.9688 5.1523 0 7.125z"/>
  <path d="m477.68 522.66-13.648 13.648-13.648-13.648c-1.9688-1.9688-5.1523-1.9688-7.125 0-1.9688 1.9648-1.9688 5.1523 0 7.125l17.211 17.215c0.94531 0.94531 2.2227 1.4766 3.5625 1.4766s2.6211-0.52734 3.5625-1.4766l17.211-17.215c1.9688-1.9688 1.9688-5.1602 0-7.125-1.9727-1.9688-5.1562-1.9688-7.125 0z"/>
  <path d="m419.21 522.66-13.648 13.648-13.648-13.648c-1.9688-1.9688-5.1523-1.9688-7.125 0-1.9688 1.9648-1.9688 5.1523 0 7.125l17.211 17.215c0.94531 0.94531 2.2227 1.4766 3.5625 1.4766s2.6211-0.52734 3.5625-1.4766l17.211-17.215c1.9688-1.9688 1.9688-5.1602 0-7.125-1.9648-1.9688-5.1523-1.9688-7.125 0z"/>
  <path d="m360.75 522.66-13.648 13.648-13.648-13.648c-1.9688-1.9688-5.1523-1.9688-7.125 0-1.9688 1.9648-1.9688 5.1523 0 7.125l17.211 17.215c0.94531 0.94531 2.2227 1.4766 3.5625 1.4766s2.6211-0.52734 3.5625-1.4766l17.211-17.215c1.9688-1.9688 1.9688-5.1602 0-7.125-1.9688-1.9688-5.1562-1.9688-7.125 0z"/>
  <path d="m455.56 476.11c-1.9688-1.9688-5.1523-1.9688-7.125 0l-13.648 13.648-13.648-13.648c-1.9688-1.9688-5.1523-1.9688-7.125 0-1.9688 1.9688-1.9688 5.1523 0 7.125l17.211 17.211c0.98438 0.98438 2.2734 1.4766 3.5625 1.4766 1.2891 0 2.5781-0.49219 3.5625-1.4766l17.211-17.211c1.9727-1.9648 1.9727-5.1562 0-7.125z"/>
  <path d="m397.11 476.11c-1.9688-1.9688-5.1523-1.9688-7.125 0l-13.648 13.648-13.648-13.648c-1.9688-1.9688-5.1523-1.9688-7.125 0-1.9688 1.9688-1.9688 5.1523 0 7.125l17.211 17.211c0.98438 0.98438 2.2734 1.4766 3.5625 1.4766 1.2891 0 2.5781-0.49219 3.5625-1.4766l17.211-17.211c1.9648-1.9648 1.9648-5.1562 0-7.125z"/>
 </g>
</svg>