<?xml version="1.0" encoding="UTF-8"?>
<!-- The Best Svg Icon site in the world: iconSvg.co, Visit us! https://iconsvg.co -->
<svg fill="#000000" width="800px" height="800px" version="1.1" viewBox="144 144 512 512" xmlns="http://www.w3.org/2000/svg">
 <g>
  <path d="m598.56 287.63-196.48-88.773c-1.3203-0.59375-2.8281-0.59375-4.1484 0l-196.48 88.773c-1.8086 0.8125-2.9648 2.6094-2.9648 4.5898v50.633c0 1.7031 0.85938 3.293 2.2891 4.2227 1.4297 0.92578 3.2383 1.0781 4.7891 0.38281l27.578-12.227v261.19c0 2.7812 2.2539 5.0391 5.0391 5.0391h323.66c2.7812 0 5.0391-2.2539 5.0391-5.0391l-0.003906-261.19 27.578 12.227c0.64844 0.28906 1.3438 0.43359 2.0391 0.43359 0.96094 0 1.918-0.27734 2.7461-0.8125 1.4297-0.92969 2.293-2.5195 2.293-4.2266v-50.633c0-1.9805-1.1602-3.7773-2.9648-4.5898zm-141.19 179.25h-114.74v-96.984h114.74zm-114.74 10.074h114.74v114.43h-114.74zm214.16 114.43h-89.344v-226.52c0-2.7812-2.2539-5.0391-5.0391-5.0391l-124.82 0.003906c-2.7812 0-5.0391 2.2539-5.0391 5.0391v226.52l-89.344-0.003906v-260.61l156.79-69.516 156.79 69.516zm34.656-256.27-189.41-83.977c-0.64844-0.28516-1.3438-0.43359-2.0391-0.43359s-1.3906 0.14453-2.043 0.43359l-189.41 83.977v-39.637l191.45-86.496 191.45 86.496z"/>
  <path d="m273.04 531.32c-1.9688-1.9688-5.1562-1.9688-7.125 0s-1.9688 5.1562 0 7.125l11.039 11.039c0.98438 0.98438 2.2734 1.4766 3.5625 1.4766 1.2891 0 2.5781-0.49219 3.5625-1.4766 1.9688-1.9688 1.9688-5.1562 0-7.125z"/>
  <path d="m278.57 503.6c-1.9688-1.9688-5.1562-1.9688-7.125 0s-1.9688 5.1562 0 7.125l31.277 31.277c0.98438 0.98438 2.2734 1.4766 3.5625 1.4766s2.5781-0.49219 3.5625-1.4766c1.9688-1.9688 1.9688-5.1562 0-7.125z"/>
  <path d="m502.29 404.2c0.98438 0.98438 2.2734 1.4766 3.5625 1.4766 1.2891 0 2.5781-0.49219 3.5625-1.4766 1.9688-1.9688 1.9688-5.1562 0-7.125l-11.039-11.039c-1.9688-1.9688-5.1562-1.9688-7.125 0s-1.9688 5.1562 0 7.125z"/>
  <path d="m528.04 396.71c0.98438 0.98438 2.2734 1.4766 3.5625 1.4766 1.2891 0 2.5781-0.49219 3.5625-1.4766 1.9688-1.9688 1.9688-5.1562 0-7.125l-31.277-31.277c-1.9688-1.9688-5.1562-1.9688-7.125 0s-1.9688 5.1562 0 7.125z"/>
  <path d="m418.55 497.6h-37.102c-2.7812 0-5.0391 2.2539-5.0391 5.0391 0 2.7812 2.2539 5.0391 5.0391 5.0391h37.102c2.7812 0 5.0391-2.2539 5.0391-5.0391-0.003906-2.7852-2.2578-5.0391-5.0391-5.0391z"/>
 </g>
</svg>