<?xml version="1.0" encoding="UTF-8"?>
<!-- The Best Svg Icon site in the world: iconSvg.co, Visit us! https://iconsvg.co -->
<svg fill="#000000" width="800px" height="800px" version="1.1" viewBox="144 144 512 512" xmlns="http://www.w3.org/2000/svg">
 <g>
  <path d="m437.51 601.13c1.6523 0 3.2734-0.8125 4.2422-2.3086 1.5078-2.3359 0.83203-5.457-1.5078-6.9688-85.676-55.238-175.16-80.691-235.14-92.309-2.7539-0.53906-5.3711 1.2578-5.9062 3.9844-0.52734 2.7305 1.2539 5.375 3.9844 5.9062 59.105 11.457 147.27 36.527 231.6 90.898 0.84766 0.53516 1.793 0.79687 2.7266 0.79687z"/>
  <path d="m205.35 543c-2.707-0.64844-5.4375 0.97266-6.1016 3.6797-0.67188 2.6992 0.97656 5.4297 3.6797 6.1016 47.277 11.688 92.43 27.918 134.2 48.234 0.71094 0.34375 1.4648 0.50781 2.1992 0.50781 1.8672 0 3.668-1.043 4.5352-2.832 1.2148-2.5039 0.17188-5.5156-2.3281-6.7344-42.406-20.629-88.223-37.102-136.18-48.957z"/>
  <path d="m602.15 386.13c-0.10156-2.7852-2.6602-5.0078-5.2148-4.8516-0.38281 0.015625-21.926 0.90234-56.266 6.7227v-24.898c1.168 0.074219 2.457 0.13672 3.9492 0.13672 7.8906 0 19.555-1.4961 27.258-9.1992 12.332-12.332 8.7617-34.77 8.6055-35.719-0.35156-2.125-2.0156-3.7891-4.1406-4.1406-0.9375-0.15625-23.328-3.7188-35.668 8.5586l-0.003906-18.211c0.95312 0.050781 1.9961 0.082031 3.1289 0.082031 7.8828 0 19.543-1.5 27.246-9.2031 12.328-12.328 8.7617-34.77 8.6055-35.719-0.35156-2.125-2.0156-3.7891-4.1406-4.1406-0.92578-0.15625-22.359-3.5156-34.84 7.8281v-2.9219c5.0039-4.1328 17.062-15.566 17.062-29.695 0-17.441-18.383-30.781-19.176-31.348-1.7539-1.25-4.1016-1.25-5.8555 0-0.78516 0.55859-19.176 13.906-19.176 31.348 0 14.125 12.062 25.559 17.062 29.695v23.051c-0.24219-0.26172-0.44922-0.54297-0.69922-0.79688-12.332-12.332-34.773-8.7617-35.719-8.6055-2.125 0.35156-3.7891 2.0156-4.1406 4.1406-0.15625 0.94531-3.7227 23.391 8.6055 35.719 7.7031 7.707 19.363 9.2031 27.246 9.2031 1.8398 0 3.375-0.089843 4.7109-0.19141v18.238c-12.359-12.184-34.648-8.6523-35.586-8.4883-2.125 0.35156-3.7891 2.0156-4.1406 4.1406-0.15625 0.94531-3.7227 23.387 8.6094 35.719 7.7031 7.707 19.367 9.2031 27.258 9.1992 1.4492 0 2.7148-0.054688 3.8633-0.13281v8.1211c-26.359 4.8828-58.914 12.504-94.629 24.398-4.6445 0.91797-9.3828 2.4648-13.773 4.8281-0.16797 0.039062-0.33203 0.011718-0.5 0.070312-3.7383 1.3242-7.4102 2.8047-11.125 4.1953v-27.004c1.7852 0.13672 3.9453 0.24219 6.375 0.24219 10.602 0 26.18-2 36.406-12.227 16.426-16.43 11.621-46.637 11.41-47.918-0.35156-2.125-2.0156-3.7891-4.1406-4.1406-1.2812-0.20703-31.5-5.0234-47.918 11.406-0.76953 0.76953-1.4453 1.5977-2.125 2.418v-9.8711c6.1602-4.9414 23.711-20.738 23.711-40.32 0-23.227-24.762-41.203-25.816-41.953-1.7617-1.25-4.1016-1.25-5.8633 0-1.0547 0.75-25.809 18.727-25.809 41.953 0 19.578 17.547 35.379 23.703 40.32v38.641c-1.2539-1.9062-2.6562-3.7383-4.3164-5.4062-16.426-16.43-46.637-11.621-47.918-11.41-2.125 0.35156-3.7891 2.0156-4.1406 4.1406-0.21094 1.2812-5.0195 31.492 11.41 47.918 10.223 10.227 25.789 12.227 36.398 12.227 3.5586 0 6.5195-0.22656 8.5703-0.4375v5.2188c-9.7656 3.8281-19.426 7.8047-28.84 12.016-0.125 0.054687-0.20703 0.16797-0.32812 0.23047-11.383-1.5469-21.199 0.019531-21.914 0.13672-2.125 0.35156-3.7891 2.0156-4.1406 4.1406-0.023438 0.15625-0.12109 0.76562-0.24219 1.7266-24.938-7.4297-47.988-12.809-67.914-16.688v-33.66c1.6133 0.13281 3.5938 0.23047 5.8477 0.23047 9.3359 0 23.062-1.7617 32.109-10.809 14.504-14.5 10.277-41.07 10.09-42.195-0.35156-2.125-2.0156-3.7891-4.1406-4.1406-1.1289-0.17969-27.688-4.4102-42.188 10.098-0.62109 0.62109-1.1641 1.2891-1.7188 1.9531v-25.805c1.4141 0.089843 3.0312 0.16016 4.8477 0.16016 9.3359 0 23.059-1.7617 32.102-10.809 14.508-14.5 10.281-41.07 10.098-42.195-0.35156-2.125-2.0156-3.7891-4.1406-4.1406-1.125-0.17969-27.695-4.4023-42.195 10.098-0.25781 0.25781-0.46484 0.54297-0.71094 0.80469v-6.4922c5.6289-4.5742 20.586-18.312 20.586-35.344 0-20.512-21.766-36.305-22.691-36.969-1.7617-1.25-4.1055-1.25-5.8594 0-0.93359 0.66406-22.703 16.461-22.703 36.969 0 17.023 14.953 30.762 20.59 35.336v31.105c-0.80078-1.0547-1.668-2.0664-2.625-3.0234-14.504-14.504-41.059-10.273-42.195-10.09-2.125 0.35156-3.7891 2.0156-4.1406 4.1406-0.1875 1.125-4.4141 27.688 10.098 42.188 9.0469 9.0469 22.781 10.812 32.113 10.812 2.6953 0 5.0078-0.14453 6.75-0.3125v25.836c-0.52344-0.62109-1.0312-1.2539-1.6172-1.8398-14.5-14.5-41.059-10.273-42.188-10.09-2.125 0.35156-3.7891 2.0156-4.1406 4.1406-0.1875 1.125-4.4141 27.684 10.09 42.188 9.043 9.0469 22.777 10.812 32.109 10.812 2.207 0 4.1562-0.10156 5.7539-0.22656v9.3906c-37.953-6.8164-62.285-7.9453-62.676-7.9609-2.75-0.15625-5.1289 2.0352-5.2461 4.8203-0.11719 2.7812 2.0391 5.1289 4.8203 5.2461 0.60938 0.023438 61.082 2.8477 140.53 26.828 0.070313 10.59 2.1602 25.781 12.211 35.832 10.227 10.227 25.797 12.227 36.398 12.227 2.9336 0 5.457-0.15625 7.418-0.32812v11.551c-77.293-35.645-150.18-50.656-195.68-56.926-2.8164-0.42969-5.3047 1.5469-5.6797 4.3008-0.38281 2.7539 1.5469 5.3008 4.3008 5.6797 68.922 9.5078 201.55 39.285 315.5 132 0.9375 0.76172 2.0547 1.1328 3.1758 1.1328 1.4648 0 2.918-0.63672 3.9102-1.8594 1.7578-2.1562 1.4297-5.332-0.73047-7.082-37.23-30.293-76.402-53.949-114.75-72.465v-40.344c71.426 29.828 132.97 70.242 182.99 120.27 0.98438 0.98438 2.2734 1.4766 3.5625 1.4766 1.2891 0 2.5781-0.49219 3.5625-1.4766 1.9688-1.9688 1.9688-5.1523 0-7.125-20.824-20.828-43.621-39.992-68.227-57.48 21.406-7.5703 43.492-14.258 65.879-19.789 2.6992-0.67188 4.3477-3.4023 3.6797-6.1016-0.67187-2.6992-3.4102-4.332-6.1016-3.6797-25.074 6.2031-49.836 13.777-73.652 22.48-12.312-8.3477-25.074-16.273-38.25-23.785 36.703-13.82 75.016-24.68 114.07-32.254 2.7305-0.52344 4.5156-3.1758 3.9844-5.9062-0.52734-2.7266-3.1523-4.5508-5.9062-3.9844-42.441 8.2266-84.035 20.25-123.66 35.734-13.617-7.375-27.68-14.305-42.148-20.797 7.9258-1.3008 16.34-4.2266 22.91-10.176 58.801-21.629 111.04-31.676 144.54-36.293 2.7539-0.37891 4.6836-2.9219 4.3008-5.6797-0.37109-2.7539-2.8633-4.7266-5.6797-4.3008-31.512 4.3438-79.363 13.438-133.69 32.207 6.1836-15.793 3.3359-33.926 3.168-34.91-0.13281-0.79687-0.49219-1.4844-0.94531-2.1094 75.855-22.023 131.73-24.34 132.34-24.359 2.7852-0.10547 4.9609-2.4414 4.8555-5.2227zm-54.406-56.23c6.2188-6.2188 17.32-6.5156 23.156-6.1602 0.32812 5.8281 0.03125 16.992-6.1445 23.172-6.2109 6.2188-17.348 6.5-23.156 6.1602-0.32422-5.8359-0.023437-17 6.1445-23.172zm-0.83203-58.629c6.2109-6.2109 17.352-6.4922 23.156-6.1602 0.32422 5.8281 0.023438 17-6.1445 23.172-6.2188 6.2188-17.312 6.5234-23.156 6.1602-0.33203-5.832-0.027344-16.996 6.1445-23.172zm-17.98 41.715c-5.8203 0.33594-16.988 0.03125-23.172-6.1445-6.2227-6.2227-6.5039-17.348-6.1602-23.172 5.8086-0.33203 16.938-0.058594 23.172 6.1602 6.2188 6.2188 6.5 17.332 6.1602 23.156zm0.83594 58.625c-5.8398 0.30859-17 0.019531-23.172-6.1445-6.2188-6.2188-6.5039-17.332-6.168-23.156 5.8086-0.33594 16.992-0.023438 23.172 6.1445 6.2227 6.2227 6.5039 17.332 6.168 23.156zm-6.1641-140.85c0-8.8008 7.6641-16.871 12.027-20.742 4.3594 3.875 12.027 11.941 12.027 20.742 0 8.8008-7.6641 16.867-12.027 20.738-4.3594-3.8711-12.027-11.938-12.027-20.738zm-103.79 120c9.8438-9.8398 27.703-9.6133 35.414-9.0039 0.64063 7.7148 0.87109 25.52-9.0117 35.406-9.8477 9.8477-27.68 9.6289-35.418 9.0078-0.13281-1.5703-0.21484-3.6367-0.23047-5.8984l-0.003906-1.8828c0.17188-8.6914 1.9336-20.32 9.25-27.629zm-32.953-54.902c0-13.93 12.766-26.395 18.672-31.414 5.9102 5.0039 18.668 17.434 18.668 31.414 0 13.926-12.762 26.383-18.672 31.402-5.9062-5.0156-18.668-17.477-18.668-31.402zm11.188 116.09c-7.7148 0.625-25.562 0.83594-35.406-9.0078s-9.6328-27.68-9.0078-35.406c7.7266-0.60938 25.562-0.83594 35.406 9.0078 9.8477 9.8438 9.6328 27.676 9.0078 35.406zm-112.1-56.68c8.1484-8.1406 22.828-8.168 29.699-7.6719 0.58984 7.9766-0.10156 22.062-7.7031 29.668-8.1484 8.1406-22.844 8.1758-29.703 7.668-0.58984-7.9727 0.10547-22.055 7.707-29.664zm-19.98 52.059c-6.8633 0.50391-21.539 0.45703-29.668-7.6719-8.1406-8.1406-8.1719-22.832-7.668-29.699 7.9766-0.59375 22.059 0.10547 29.664 7.7031 8.125 8.1367 8.1719 22.793 7.6719 29.668zm18.973-122.79c8.1367-8.1328 22.801-8.1758 29.668-7.6719 0.50391 6.8789 0.45703 21.531-7.6719 29.668-8.1406 8.1484-22.836 8.168-29.699 7.668-0.058594-0.84766-0.10156-1.793-0.125-2.7656v-2.8008c0.125-7.9141 1.7734-18.043 7.8281-24.098zm-28.418-48.152c0-11.516 10.367-21.926 15.578-26.426 6.0547 5.2188 15.523 15.668 15.523 26.426 0 11.523-10.367 21.93-15.574 26.43-6.0625-5.2227-15.527-15.668-15.527-26.43zm8.4336 100.21c-6.8789 0.50781-21.527 0.44922-29.664-7.6719-8.1484-8.1484-8.1758-22.832-7.6719-29.699 7.9766-0.59375 22.059 0.10156 29.668 7.7031 8.1289 8.1367 8.1719 22.793 7.668 29.668zm182.41 122.02c-9.8398 9.8438-27.695 9.6211-35.414 9.0039-0.64062-7.7148-0.87109-25.52 9.0117-35.406 9.8477-9.8398 27.68-9.6211 35.418-9.0078 0.63672 7.7148 0.875 25.52-9.0156 35.41zm-46.879-20.773v16.73c-0.96094-1.2891-1.9961-2.5391-3.1602-3.7031-3.1172-3.125-6.7422-5.4727-10.566-7.2344 4.5664-1.9453 9.082-3.9375 13.727-5.793zm-1.2812 55.559c-7.7188 0.625-25.562 0.83594-35.406-9.0078s-9.6328-27.688-9.0078-35.418c7.7227-0.625 25.523-0.86328 35.414 9.0195 9.8359 9.8438 9.625 27.68 9 35.406z"/>
 </g>
</svg>