<?xml version="1.0" encoding="UTF-8"?>
<!-- The Best Svg Icon site in the world: iconSvg.co, Visit us! https://iconsvg.co -->
<svg fill="#000000" width="800px" height="800px" version="1.1" viewBox="144 144 512 512" xmlns="http://www.w3.org/2000/svg">
 <g>
  <path d="m400.65 298.75c11.074 0 22.391 5.707 22.391 48.027 0 2.7852 2.2539 5.0391 5.0391 5.0391 2.7812 0 5.0391-2.2539 5.0391-5.0391 0-27.055-3.6914-58.105-32.469-58.105-2.7812 0-5.0391 2.2539-5.0391 5.0391 0 2.7852 2.2578 5.0391 5.0391 5.0391z"/>
  <path d="m370.12 474.6c2.207 0 4.4492-0.1875 6.7188-0.56641 2.5234-0.41797 4.957-1.0977 7.2852-1.9492 4.8477 2.2148 10.043 3.4727 15.645 3.4727 5.7188 0 11.02-1.3008 15.953-3.6094 2.4453 0.92578 5.0234 1.6406 7.6914 2.0859 2.2695 0.37891 4.5078 0.56641 6.7188 0.56641 31.277 0 56.34-37.441 67.805-102.26 6.7227-38.004 4.6133-63.113-6.6328-79.02-7.1992-10.18-17.898-16.324-32.703-18.785-9.0898-1.5234-17.074-1.1484-24.398 1-5.3359-5.1875-11.984-9.0078-20.223-11.031l1.2539-9.5469c0.027344-0.21484 0.042969-0.43359 0.042969-0.65625 0-8.0547-6.9492-14.602-15.492-14.602-8.543 0-15.492 6.5469-15.492 14.602 0 0.20703 0.011719 0.41406 0.035156 0.61328l1.1797 9.5977c-8.1367 2.0078-14.723 5.7734-20.02 10.875-7.168-2-14.965-2.3359-23.836-0.85938-14.805 2.4609-25.504 8.6055-32.699 18.785-11.25 15.906-13.359 41.02-6.6328 79.02 11.461 64.828 36.52 102.27 67.801 102.27zm86.824-190.12c12.016 1.9961 20.562 6.793 26.129 14.668 9.4609 13.379 11.074 36.746 4.9375 71.449-8.4883 47.973-29.023 97.207-61.227 93.703 18.348-17.504 28.75-54.781 28.75-106.98 0-26.031-2.2266-54.332-14.289-73.102 4.7305-0.77734 9.9062-0.69922 15.699 0.26172zm-62.57-30.414c0.15234-2.3828 2.5195-4.2812 5.4062-4.2812 2.8789 0 5.2422 1.8906 5.4062 4.2656l-1.1758 8.9531c-1.3789-0.085938-2.7891-0.13672-4.2422-0.13672-1.4688 0-2.8984 0.050781-4.293 0.14062zm5.3906 18.875c22.594 0 45.691 10.023 45.691 84.375 0 52.293-12.004 108.17-45.691 108.17-33.691 0-45.691-55.875-45.691-108.17 0-74.352 23.098-84.375 45.691-84.375zm-82.59 26.207c5.5664-7.8711 14.113-12.668 26.129-14.668 5.5234-0.91797 10.469-1 15.027-0.33594-12.105 18.77-14.332 47.109-14.332 73.172 0 52.277 10.434 89.582 28.832 107.05-31.883 2.8242-52.164-46.121-60.594-93.777-6.1367-34.699-4.5234-58.07 4.9375-71.445z"/>
  <path d="m601.52 203.51c0-2.7852-2.2539-5.0391-5.0391-5.0391l-392.97 0.003906c-2.7812 0-5.0391 2.2539-5.0391 5.0391v299.61c0 2.7852 2.2539 5.0391 5.0391 5.0391h29.07v81.316c0 6.6406 5.4023 12.043 12.043 12.043h22.25c6.6406 0 12.047-5.4023 12.047-12.043v-81.32h242.15v81.32c0 6.6406 5.4062 12.043 12.047 12.043h22.25c6.6406 0 12.047-5.4023 12.047-12.043v-81.32h29.066c2.7812 0 5.0391-2.2539 5.0391-5.0391zm-332.68 385.96c0 1.0859-0.88281 1.9688-1.9688 1.9688h-22.25c-1.0859 0-1.9688-0.87891-1.9688-1.9688l0.003906-81.32h26.188zm288.5 0c0 1.0859-0.88281 1.9688-1.9688 1.9688h-22.25c-1.0859 0-1.9688-0.87891-1.9688-1.9688v-81.32h26.188zm34.105-91.398h-382.89v-289.53h382.89z"/>
 </g>
</svg>