<?xml version="1.0" encoding="UTF-8"?>
<!-- The Best Svg Icon site in the world: iconSvg.co, Visit us! https://iconsvg.co -->
<svg fill="#000000" width="800px" height="800px" version="1.1" viewBox="144 144 512 512" xmlns="http://www.w3.org/2000/svg">
 <path d="m596.78 227.3c-12.129 0-22.879 5.9219-29.629 15.008-2.7188-13.359-7.168-27.301-11.953-34.168-4.2773-6.1406-10.969-9.6602-18.359-9.6602s-14.082 3.5234-18.359 9.6641c-4.7812 6.8672-9.2305 20.809-11.949 34.168-6.75-9.0859-17.504-15.008-29.633-15.008-2.7812 0-5.0391 2.2539-5.0391 5.0391s2.2539 5.0391 5.0391 5.0391c14.84 0 26.918 12.148 26.918 27.078 0 0.011719 0.007813 0.019531 0.007813 0.03125 0 0.078125-0.007813 0.16406-0.007813 0.23828 0 33.008 13.668 46.957 27.984 49.531v40.461c-6.75-7.2109-16.305-11.746-26.914-11.746-2.7812 0-5.0391 2.2539-5.0391 5.0391 0 2.7852 2.2539 5.0391 5.0391 5.0391 14.84 0 26.914 12.148 26.914 27.078v27.82c-6.75-7.2109-16.305-11.746-26.914-11.746-2.7812 0-5.0391 2.2539-5.0391 5.0391 0 2.7852 2.2539 5.0391 5.0391 5.0391 14.84 0 26.914 12.148 26.914 27.078v27.82c-6.75-7.2109-16.305-11.746-26.914-11.746-2.7812 0-5.0391 2.2539-5.0391 5.0391s2.2539 5.0391 5.0391 5.0391c14.84 0 26.914 12.148 26.914 27.078v27.82c-6.75-7.2109-16.305-11.746-26.914-11.746-2.7812 0-5.0391 2.2539-5.0391 5.0391s2.2539 5.0391 5.0391 5.0391c14.84 0 26.914 12.148 26.914 27.078v51.625h-126.62v-80.594c0-14.934 12.078-27.078 26.918-27.078 2.7812 0 5.0391-2.2539 5.0391-5.0391s-2.2539-5.0391-5.0391-5.0391c-10.609 0-20.164 4.5352-26.918 11.746v-27.82c0-14.934 12.078-27.078 26.918-27.078 2.7812 0 5.0391-2.2539 5.0391-5.0391s-2.2539-5.0391-5.0391-5.0391c-10.609 0-20.164 4.5352-26.918 11.746v-27.824c0-14.934 12.078-27.078 26.918-27.078 2.7812 0 5.0391-2.2539 5.0391-5.0391 0-2.7852-2.2539-5.0391-5.0391-5.0391-10.609 0-20.164 4.5352-26.918 11.746v-64.723c14.316-2.5703 27.984-16.523 27.984-49.531 0-0.074218-0.003907-0.16406-0.007813-0.23828 0-0.011719 0.007813-0.019531 0.007813-0.03125 0-14.934 12.078-27.078 26.918-27.078 2.7812 0 5.0391-2.2539 5.0391-5.0391 0-2.7852-2.2539-5.0391-5.0391-5.0391-12.129 0-22.883 5.9219-29.633 15.008-2.7148-13.359-7.168-27.301-11.949-34.164-4.2734-6.1445-10.965-9.6641-18.359-9.6641-7.3906 0-14.082 3.5234-18.355 9.6641-4.7812 6.8633-9.2344 20.809-11.953 34.164-6.75-9.0859-17.504-15.008-29.633-15.008-2.7812 0-5.0391 2.2539-5.0391 5.0391 0 2.7852 2.2539 5.0391 5.0391 5.0391 14.84 0 26.918 12.148 26.918 27.078 0 0.011719 0.007812 0.019531 0.007812 0.03125 0 0.078125-0.007812 0.16406-0.007812 0.23828 0 33.008 13.668 46.957 27.984 49.531v40.461c-6.75-7.2109-16.305-11.746-26.914-11.746-2.7812 0-5.0391 2.2539-5.0391 5.0391 0 2.7852 2.2539 5.0391 5.0391 5.0391 14.84 0 26.914 12.148 26.914 27.078v27.82c-6.75-7.2109-16.305-11.746-26.914-11.746-2.7812 0-5.0391 2.2539-5.0391 5.0391 0 2.7852 2.2539 5.0391 5.0391 5.0391 14.84 0 26.914 12.148 26.914 27.078v27.82c-6.75-7.2109-16.305-11.746-26.914-11.746-2.7812 0-5.0391 2.2539-5.0391 5.0391s2.2539 5.0391 5.0391 5.0391c14.84 0 26.914 12.148 26.914 27.078v27.82c-6.75-7.2109-16.305-11.746-26.914-11.746-2.7812 0-5.0391 2.2539-5.0391 5.0391 0 2.7852 2.2539 5.0391 5.0391 5.0391 14.84 0 26.914 12.148 26.914 27.078l0.003906 51.629h-126.62v-80.594c0-14.934 12.074-27.078 26.914-27.078 2.7812 0 5.0391-2.2539 5.0391-5.0391s-2.2539-5.0391-5.0391-5.0391c-10.609 0-20.164 4.5352-26.914 11.746v-27.82c0-14.934 12.074-27.078 26.914-27.078 2.7812 0 5.0391-2.2539 5.0391-5.0391s-2.2539-5.0391-5.0391-5.0391c-10.609 0-20.164 4.5352-26.914 11.746v-27.824c0-14.934 12.074-27.078 26.914-27.078 2.7812 0 5.0391-2.2539 5.0391-5.0391 0-2.7852-2.2539-5.0391-5.0391-5.0391-10.609 0-20.164 4.5352-26.914 11.746v-64.727c14.316-2.5703 27.984-16.523 27.984-49.531 0-0.074219-0.003906-0.16406-0.007812-0.23828 0-0.011719 0.007812-0.019531 0.007812-0.03125 0-14.934 12.078-27.078 26.918-27.078 2.7812 0 5.0391-2.2539 5.0391-5.0391 0-2.7852-2.2539-5.0391-5.0391-5.0391-12.129 0-22.883 5.9219-29.633 15.008-2.7148-13.359-7.168-27.301-11.949-34.164-4.2773-6.1406-10.969-9.6602-18.359-9.6602s-14.082 3.5234-18.355 9.6641c-4.7852 6.8633-9.2383 20.809-11.953 34.168-6.75-9.0898-17.504-15.012-29.633-15.012-2.7812 0-5.0391 2.2539-5.0391 5.0391 0 2.7852 2.2539 5.0391 5.0391 5.0391 14.84 0 26.914 12.148 26.914 27.078 0 0.011719 0.007813 0.019531 0.007813 0.03125 0 0.078125-0.007813 0.16406-0.007813 0.23828 0 33.008 13.672 46.957 27.988 49.531v40.461c-6.7539-7.2109-16.309-11.746-26.918-11.746-2.7812 0-5.0391 2.2539-5.0391 5.0391 0 2.7852 2.2539 5.0391 5.0391 5.0391 14.84 0 26.918 12.148 26.918 27.078v27.82c-6.7539-7.2109-16.309-11.746-26.918-11.746-2.7812 0-5.0391 2.2539-5.0391 5.0391 0 2.7852 2.2539 5.0391 5.0391 5.0391 14.84 0 26.918 12.148 26.918 27.078v27.82c-6.7539-7.2109-16.309-11.746-26.918-11.746-2.7812 0-5.0391 2.2539-5.0391 5.0391s2.2539 5.0391 5.0391 5.0391c14.84 0 26.918 12.148 26.918 27.078v27.82c-6.7539-7.2109-16.309-11.746-26.918-11.746-2.7812 0-5.0391 2.2539-5.0391 5.0391 0 2.7852 2.2539 5.0391 5.0391 5.0391 14.84 0 26.918 12.148 26.918 27.078v51.629h-55.215c-2.7812 0-5.0391 2.2539-5.0391 5.0391s2.2539 5.0391 5.0391 5.0391h392.43c2.7812 0 5.0391-2.2539 5.0391-5.0391s-2.2539-5.0391-5.0391-5.0391h-53.754v-80.594c0-14.934 12.078-27.078 26.918-27.078 2.7812 0 5.0391-2.2539 5.0391-5.0391s-2.2539-5.0391-5.0391-5.0391c-10.609 0-20.164 4.5352-26.918 11.746v-27.82c0-14.934 12.078-27.078 26.918-27.078 2.7812 0 5.0391-2.2539 5.0391-5.0391s-2.2539-5.0391-5.0391-5.0391c-10.609 0-20.164 4.5352-26.918 11.746v-27.824c0-14.934 12.078-27.078 26.918-27.078 2.7812 0 5.0391-2.2539 5.0391-5.0391 0-2.7852-2.2539-5.0391-5.0391-5.0391-10.609 0-20.164 4.5352-26.918 11.746v-64.723c14.316-2.5703 27.988-16.523 27.988-49.531 0-0.074218-0.003907-0.16406-0.007813-0.23828 0-0.011719 0.007813-0.019531 0.007813-0.03125 0-14.934 12.074-27.078 26.914-27.078 2.7812 0 5.0391-2.2539 5.0391-5.0391-0.003906-2.7852-2.2578-5.0391-5.0391-5.0391zm-219.58 37.426c0-14.824 6.9688-42.375 12.859-50.828 2.3633-3.3945 6.0391-5.3438 10.086-5.3438s7.7227 1.9492 10.09 5.3438c5.8867 8.4531 12.855 36.004 12.855 50.828 0 24.633-8.793 39.938-22.945 39.938-14.152 0-22.945-15.305-22.945-39.938zm-136.7 0c0-14.824 6.9727-42.375 12.859-50.828 2.3672-3.3945 6.043-5.3438 10.09-5.3438s7.7227 1.9492 10.09 5.3438c5.8867 8.4531 12.855 36.004 12.855 50.828 0 24.633-8.793 39.938-22.945 39.938-14.156 0-22.949-15.305-22.949-39.938zm296.34 39.938c-14.156 0-22.945-15.301-22.945-39.938 0-14.82 6.9688-42.371 12.859-50.828 2.3594-3.3945 6.0391-5.3438 10.086-5.3438s7.7227 1.9492 10.09 5.3438c5.8867 8.4531 12.859 36.004 12.859 50.828 0 24.633-8.7969 39.938-22.949 39.938z"/>
</svg>