<?xml version="1.0" encoding="UTF-8"?>
<!-- The Best Svg Icon site in the world: iconSvg.co, Visit us! https://iconsvg.co -->
<svg fill="#000000" width="800px" height="800px" version="1.1" viewBox="144 144 512 512" xmlns="http://www.w3.org/2000/svg">
 <g>
  <path d="m423.61 465.98v-73.855h-15.742v86.594c-0.015625 2.7344 1.3906 5.2812 3.7148 6.7266 2.3203 1.4453 5.2266 1.582 7.6758 0.35938l31.488-15.742-7.0391-14.09z"/>
  <path d="m376.38 418.75-20.098-10.094-7.0391 14.09 31.488 15.742v0.003907c2.4375 1.2188 5.3242 1.0898 7.6445-0.33594 2.3164-1.4258 3.7344-3.9492 3.7461-6.668v-39.363h-15.742z"/>
  <path d="m439.36 258.3c0-6.2617-2.4883-12.27-6.918-16.699-4.4297-4.4258-10.434-6.9141-16.699-6.9141-6.2617 0-12.27 2.4883-16.699 6.9141-4.4297 4.4297-6.918 10.438-6.918 16.699 0 6.2656 2.4883 12.273 6.918 16.699 4.4297 4.4297 10.438 6.918 16.699 6.918 6.2656 0 12.27-2.4883 16.699-6.918 4.4297-4.4258 6.918-10.434 6.918-16.699zm-31.488 0c0-3.1836 1.918-6.0547 4.8594-7.2734 2.9414-1.2148 6.3281-0.54297 8.5781 1.707 2.25 2.2539 2.9258 5.6367 1.707 8.582-1.2188 2.9414-4.0898 4.8594-7.2734 4.8594-4.3477 0-7.8711-3.5273-7.8711-7.875z"/>
  <path d="m376.38 329.15c0-6.2617-2.4883-12.27-6.918-16.695-4.4297-4.4297-10.434-6.918-16.699-6.918-6.2617 0-12.27 2.4883-16.699 6.918-4.4297 4.4258-6.918 10.434-6.918 16.695 0 6.2656 2.4883 12.273 6.918 16.699 4.4297 4.4297 10.438 6.918 16.699 6.918 6.2656 0 12.27-2.4883 16.699-6.918 4.4297-4.4258 6.918-10.434 6.918-16.699zm-31.488 0c0-3.1836 1.918-6.0508 4.8594-7.2695s6.3281-0.54688 8.5781 1.7031c2.2539 2.2539 2.9258 5.6406 1.707 8.582-1.2188 2.9414-4.0898 4.8594-7.2734 4.8594-4.3477 0-7.8711-3.5273-7.8711-7.875z"/>
  <path d="m462.98 337.02c-6.2656 0-12.273 2.4883-16.699 6.9141-4.4297 4.4297-6.918 10.438-6.918 16.699 0 6.2656 2.4883 12.273 6.918 16.699 4.4258 4.4297 10.434 6.918 16.699 6.918 6.2617 0 12.27-2.4883 16.695-6.918 4.4297-4.4258 6.918-10.434 6.918-16.699 0-6.2617-2.4883-12.27-6.918-16.699-4.4258-4.4258-10.434-6.9141-16.695-6.9141zm0 31.488c-3.1875 0-6.0547-1.918-7.2734-4.8594s-0.54688-6.3281 1.707-8.582c2.25-2.25 5.6367-2.9219 8.5781-1.7031 2.9414 1.2188 4.8594 4.0859 4.8594 7.2695 0 2.0898-0.83203 4.0898-2.3047 5.5664-1.4766 1.4766-3.4805 2.3086-5.5664 2.3086z"/>
  <path d="m510.21 431.49c-6.2617 0-12.27 2.4883-16.699 6.9141-4.4297 4.4297-6.918 10.438-6.918 16.699 0 6.2656 2.4883 12.27 6.918 16.699 4.4297 4.4297 10.438 6.918 16.699 6.918s12.27-2.4883 16.699-6.918c4.4297-4.4297 6.918-10.434 6.918-16.699 0-6.2617-2.4883-12.27-6.918-16.699-4.4297-4.4258-10.438-6.9141-16.699-6.9141zm0 31.488c-3.1836 0-6.0547-1.918-7.2734-4.8633-1.2188-2.9414-0.54297-6.3242 1.707-8.5781 2.25-2.25 5.6367-2.9219 8.5781-1.707 2.9414 1.2188 4.8594 4.0898 4.8594 7.2734 0 2.0898-0.82812 4.0898-2.3047 5.5664-1.4766 1.4766-3.4805 2.3086-5.5664 2.3086z"/>
  <path d="m289.79 407.87c-6.2617 0-12.27 2.4883-16.699 6.918-4.4258 4.4258-6.9141 10.434-6.9141 16.699 0 6.2617 2.4883 12.27 6.9141 16.699 4.4297 4.4258 10.438 6.9141 16.699 6.9141 6.2656 0 12.27-2.4883 16.699-6.9141 4.4297-4.4297 6.918-10.438 6.918-16.699 0-6.2656-2.4883-12.273-6.918-16.699-4.4297-4.4297-10.434-6.918-16.699-6.918zm0 31.488c-3.1836 0-6.0547-1.918-7.2734-4.8594-1.2148-2.9414-0.54297-6.3281 1.707-8.5781 2.2539-2.2539 5.6367-2.9258 8.5781-1.707 2.9453 1.2188 4.8633 4.0859 4.8633 7.2734 0 2.0859-0.83203 4.0898-2.3086 5.5664-1.4766 1.4727-3.4766 2.3047-5.5664 2.3047z"/>
  <path d="m588.93 423.61c0.035157-12.703-6.1367-24.625-16.531-31.934 0.51172-2.4453 0.77344-4.9297 0.78906-7.4258 0.070312-11.023-4.5195-21.566-12.637-29.031-8.1133-7.4609-19.004-11.152-29.984-10.164-2.7695-6.2734-7.1289-11.715-12.648-15.781 5.9531-7.8125 8.7617-17.57 7.8789-27.352-0.88281-9.7773-5.3984-18.875-12.656-25.492-7.2539-6.6172-16.727-10.277-26.547-10.258-0.003906-7.6953-2.2734-15.219-6.5195-21.633-4.2461-6.4141-10.285-11.441-17.363-14.453-0.82031-6.8633-3.4336-13.387-7.582-18.914-4.1445-5.5312-9.6758-9.8672-16.035-12.574-1.5078-12.887-9.2734-24.199-20.75-30.246-11.48-6.043-25.203-6.043-36.68 0-11.48 6.0469-19.242 17.359-20.754 30.246-6.3594 2.707-11.891 7.043-16.035 12.574-4.1484 5.5273-6.7617 12.051-7.582 18.914-7.0781 3.0117-13.117 8.0391-17.363 14.453-4.2461 6.4141-6.5117 13.938-6.5195 21.633-9.8203-0.019531-19.293 3.6406-26.547 10.258-7.2578 6.6172-11.77 15.715-12.656 25.492-0.88281 9.7812 1.9297 19.539 7.8789 27.352-5.5195 4.0664-9.8789 9.5078-12.648 15.781-10.98-0.98047-21.863 2.7148-29.977 10.176-8.1094 7.4609-12.703 18-12.645 29.02 0.015625 2.4961 0.27734 4.9805 0.78906 7.4258-10.672 7.5625-16.855 19.957-16.488 33.031 0.37109 13.074 7.25 25.098 18.328 32.043-4.1836 10.914-3.3008 23.125 2.4062 33.32 5.7109 10.199 15.656 17.332 27.148 19.473 1.6953 9.0195 6.4844 17.168 13.543 23.039 7.0586 5.8672 15.945 9.0898 25.125 9.1094 7.1289-0.003906 14.121-1.9766 20.207-5.6992 3.293 6.4258 8.2891 11.828 14.445 15.609 6.1523 3.7812 13.227 5.7969 20.449 5.832 8.5469-0.027344 16.844-2.8672 23.617-8.0742v15.816-0.003907c-0.015624 14.648-5.8398 28.688-16.195 39.043-10.355 10.359-24.398 16.184-39.043 16.195h-86.457v15.742l330.62 0.003906v-15.746h-86.461c-14.645-0.011718-28.688-5.8359-39.043-16.195-10.355-10.355-16.18-24.395-16.195-39.043v-15.812c6.7734 5.207 15.074 8.0469 23.617 8.0742 7.2227-0.035156 14.297-2.0508 20.449-5.832 6.1562-3.7812 11.152-9.1836 14.449-15.609 6.082 3.7227 13.074 5.6953 20.207 5.6992 9.1836-0.011718 18.078-3.2305 25.141-9.1016 7.0664-5.8672 11.859-14.02 13.559-23.047 11.488-2.1406 21.434-9.2734 27.145-19.473 5.7109-10.195 6.5898-22.406 2.4062-33.32 11.391-7.1719 18.312-19.68 18.34-33.141zm-31.613 22.168c-2.2969 0.80859-4.0938 2.6289-4.8633 4.9414-0.76953 2.3086-0.42578 4.8438 0.92969 6.8672 3.2266 4.7578 4.6055 10.531 3.8828 16.234-0.72656 5.7031-3.5078 10.945-7.8203 14.746-4.3164 3.8008-9.8672 5.8945-15.617 5.8906-4.3477 0-7.875 3.5273-7.875 7.875 0.039062 6.5078-2.625 12.742-7.3594 17.211-4.7305 4.4688-11.105 6.7734-17.605 6.3633-6.4961-0.41406-12.527-3.5-16.66-8.5312-1.9922-2.3906-5.207-3.3828-8.1992-2.5312-2.9922 0.85156-5.2031 3.3867-5.6406 6.4648-1.0977 7.957-6.1719 14.809-13.465 18.168-7.2969 3.3633-15.801 2.7773-22.562-1.5547-6.7617-4.3359-10.852-11.816-10.844-19.848v-3.0078l42.879-21.395-7.0391-14.09-47.23 23.617v-0.003906c-2.6562 1.3281-4.3398 4.0391-4.3516 7.0078v54.969c0.003906 21.48 9.7539 41.797 26.504 55.238h-68.754c16.75-13.441 26.5-33.758 26.504-55.238v-102.2c0.019531-3-1.6719-5.7461-4.3516-7.0859l-47.23-23.617-7.0391 14.09 42.879 21.477v50.238c0.015626 8.0352-4.0664 15.523-10.828 19.863-6.7617 4.3398-15.27 4.9297-22.57 1.5664-7.2969-3.3594-12.375-10.211-13.473-18.172-0.4375-3.0781-2.6484-5.6133-5.6406-6.4648-2.9922-0.85156-6.2031 0.14062-8.1992 2.5312-4.1328 5.0312-10.168 8.1211-16.668 8.5312s-12.879-1.8984-17.609-6.375c-4.7305-4.4727-7.3945-10.711-7.3477-17.223 0-2.0898-0.83203-4.0898-2.3047-5.5664-1.4766-1.4766-3.4805-2.3086-5.5664-2.3086-5.7461 0-11.289-2.0898-15.602-5.8867-4.3125-3.793-7.0938-9.0273-7.8242-14.723-0.73047-5.6953 0.64062-11.465 3.8555-16.223 1.3516-2.0234 1.6953-4.5586 0.92578-6.8672-0.76953-2.3125-2.5664-4.1328-4.8633-4.9414-5.9375-2.0039-10.824-6.3047-13.566-11.938-2.7422-5.6328-3.1133-12.133-1.0273-18.043 2.0859-5.9062 6.4531-10.734 12.121-13.402 3.6719-1.7734 5.3789-6.0586 3.9375-9.8711-2.1992-5.4648-2.2422-11.559-0.12109-17.055 2.1211-5.4922 6.25-9.9766 11.551-12.547 5.2969-2.5703 11.375-3.0312 17.004-1.2969 2.0977 0.59766 4.3477 0.29297 6.2148-0.83203s3.1797-2.9766 3.6328-5.1094c1.7891-7.9961 7.6094-14.484 15.367-17.129 2.7812-0.96484 4.793-3.4023 5.2109-6.3164 0.42187-2.918-0.82422-5.8203-3.2188-7.5312-6.3125-4.2852-10.145-11.375-10.27-19.004-0.12891-7.6289 3.4648-14.844 9.6328-19.336 6.1641-4.4922 14.133-5.707 21.355-3.25 2.8086 0.90625 5.8867 0.16016 7.9727-1.9258 2.0859-2.0859 2.832-5.1641 1.9297-7.9766-2.1211-6.1602-1.5312-12.926 1.6172-18.629 3.1523-5.6992 8.5703-9.8008 14.914-11.285 3.6055-0.91797 6.0742-4.2383 5.918-7.957 0.011719-0.23438-0.015625-0.47266-0.078125-0.69922 0.011719-5.2383 1.7695-10.32 4.9922-14.449 3.2227-4.125 7.7305-7.0625 12.809-8.3398 3.6055-0.92188 6.0742-4.2422 5.918-7.9609 0.003906-0.25-0.027344-0.5-0.10156-0.73828-0.089843-8.4375 4.3242-16.285 11.586-20.582 7.2617-4.2969 16.266-4.3945 23.617-0.25391 7.3516 4.1367 11.938 11.887 12.027 20.324-0.039062 0.26172-0.11719 1-0.125 1.25-0.15625 3.7188 2.3125 7.0391 5.9219 7.9609 5.0039 1.2383 9.4609 4.0938 12.684 8.1172 3.2188 4.0273 5.0273 9.0039 5.1367 14.16-0.039063 0.26172-0.11719 1-0.125 1.25-0.15625 3.7188 2.3125 7.0391 5.918 7.957 6.3438 1.4844 11.762 5.5859 14.914 11.285 3.1484 5.7031 3.7383 12.473 1.6172 18.629-0.89063 2.8164-0.13672 5.8945 1.9609 7.9727 2.0977 2.082 5.1836 2.8086 7.9922 1.8906 7.1914-2.332 15.07-1.0625 21.164 3.4219 6.0938 4.4805 9.6562 11.621 9.5742 19.184-0.085938 7.5625-3.8047 14.625-9.9961 18.969-2.3984 1.7109-3.6406 4.6133-3.2227 7.5312 0.41797 2.9141 2.4297 5.3516 5.2148 6.3164 7.7461 2.6562 13.555 9.1484 15.332 17.145 0.45312 2.1328 1.7695 3.9844 3.6328 5.1094 1.8672 1.125 4.1172 1.4297 6.2148 0.83203 5.6211-1.6797 11.672-1.1836 16.945 1.3906 5.2734 2.5742 9.3828 7.0391 11.516 12.508 2.1289 5.4688 2.1211 11.539-0.019531 17-1.4414 3.8125 0.26562 8.0977 3.9375 9.8711 5.6523 2.6719 10.004 7.4961 12.082 13.395 2.0781 5.8984 1.7109 12.383-1.0195 18.008s-7.5977 9.9258-13.52 11.941z"/>
  <path d="m407.87 313.41h15.742v15.742h-15.742z"/>
  <path d="m510.21 392.12h15.742v15.742h-15.742z"/>
  <path d="m329.15 478.72h15.742v15.742h-15.742z"/>
  <path d="m305.54 368.51h15.742v15.742h-15.742z"/>
 </g>
</svg>