<?xml version="1.0" encoding="UTF-8"?>
<!-- The Best Svg Icon site in the world: iconSvg.co, Visit us! https://iconsvg.co -->
<svg fill="#000000" width="800px" height="800px" version="1.1" viewBox="144 144 512 512" xmlns="http://www.w3.org/2000/svg">
 <g>
  <path d="m561.11 258.22h-48.855c-4.3516 0-7.8711 3.5234-7.8711 7.8711v4.8086l-51.453 28.289v-20.855c0-4.3477-3.5195-7.8711-7.8711-7.8711h-22.641v-16.586c0-4.3477-3.5195-7.8711-7.8711-7.8711h-19.609v-16.555c0-4.3477-3.5195-7.8711-7.8711-7.8711h-54.957c-4.3516 0-7.8711 3.5234-7.8711 7.8711v16.555h-19.609c-4.3516 0-7.8711 3.5234-7.8711 7.8711v16.586h-22.664c-4.3516 0-7.8711 3.5234-7.8711 7.8711v77.727l-72.414-0.003906c-4.3516 0-7.8711 3.5234-7.8711 7.8711v15.109l-14.129-0.17969c-2.1445 0.085937-4.1367 0.79688-5.6289 2.2734-1.5 1.4766-2.3477 3.4961-2.3477 5.6016 0 24.836 8.2852 47.715 22.102 66.242v93.035c0 17.871 14.535 32.406 32.402 32.406h113.28c17.867 0 32.402-14.535 32.402-32.406v-64.406h81.043c4.3516 0 7.8711-3.5234 7.8711-7.8711v-119.91l57.105-31.457c0.71875 0.21484 1.4297 0.44922 2.2188 0.44922h48.855c4.3516 0 7.8711-3.5234 7.8711-7.8711v-48.855c0-4.3477-3.5195-7.8711-7.8711-7.8711zm-221.13-20.898h39.215v8.6836h-39.215zm-27.48 24.426h94.176v8.6836h-94.176zm35.777 110.05v75.871c-17.52 21.027-43.82 34.492-73.262 34.492-29.484 0-55.812-13.5-73.332-34.574v-75.789zm15.742 22.801h6.1055c-0.76172 9.2812-2.8672 18.184-6.1055 26.531zm-184.11 0.10547 6.0273 0.078124v26.199c-3.1914-8.2695-5.2656-17.09-6.0273-26.277zm168.36 151.3c0 9.1875-7.4727 16.664-16.66 16.664h-113.27c-9.1875 0-16.66-7.4766-16.66-16.664v-75.934c19.598 17.266 45.227 27.832 73.332 27.832 28.074 0 53.672-10.543 73.262-27.77zm88.914-80.148h-73.168v-12.793c13.855-18.543 22.172-41.457 22.172-66.336 0-4.3477-3.5195-7.8711-7.8711-7.8711h-14.297l-0.007813-14.93c0-4.3477-3.5195-7.8711-7.8711-7.8711h-74.184v-69.852h155.23v21.637l-44.766 24.617c-3.8125 2.0938-5.2031 6.8828-3.1055 10.691 2.0898 3.8125 6.8945 5.1992 10.688 3.1055l104.38-57.395v18.641l-63.121 34.777c-0.31641 0.17578-0.50781 0.46094-0.79297 0.66797-0.44531 0.32812-0.875 0.64062-1.2422 1.0508-0.33984 0.38672-0.58203 0.80859-0.83984 1.2461-0.25391 0.42969-0.50391 0.83594-0.67188 1.3125-0.1875 0.52734-0.25391 1.0625-0.32812 1.6172-0.046875 0.34375-0.20312 0.64453-0.20312 1zm116.05-158.79h-27.031v-33.109h27.031z"/>
  <path d="m591.65 298.39h36.641c4.3516 0 7.8711-3.5234 7.8711-7.8711 0-4.3477-3.5195-7.8711-7.8711-7.8711h-36.641c-4.3516 0-7.8711 3.5234-7.8711 7.8711 0 4.3477 3.5195 7.8711 7.8711 7.8711z"/>
  <path d="m592.7 267.86c0.86719 0 1.7539-0.14453 2.6211-0.45312l34.547-12.215c4.1055-1.4492 6.25-5.9453 4.7969-10.047-1.4453-4.0898-5.9336-6.2461-10.039-4.7969l-34.547 12.215c-4.1055 1.4492-6.25 5.9453-4.7969 10.047 1.1367 3.2266 4.1719 5.25 7.418 5.25z"/>
  <path d="m629.86 325.84-34.547-12.215c-4.1133-1.4492-8.5938 0.70312-10.039 4.7969-1.4531 4.1016 0.69141 8.5977 4.7969 10.047l34.547 12.215c0.86719 0.30859 1.7539 0.45312 2.6211 0.45312 3.2422 0 6.2812-2.0234 7.418-5.25 1.4531-4.1016-0.69141-8.5977-4.7969-10.047z"/>
 </g>
</svg>