<?xml version="1.0" encoding="UTF-8"?>
<!-- The Best Svg Icon site in the world: iconSvg.co, Visit us! https://iconsvg.co -->
<svg fill="#000000" width="800px" height="800px" version="1.1" viewBox="144 144 512 512" xmlns="http://www.w3.org/2000/svg">
 <g>
  <path d="m482.97 552.32c-3.9375 2.5977-7.793 3.8555-11.73 3.8555-3.7773 0-7.5586-1.1797-11.492-3.6211-26.922-16.137-41.172-24.246-55.418-24.246-14.25 0-28.496 8.1094-55.418 24.246-8.1094 4.8789-15.43 4.8008-23.223-0.23438-31.723-20.309-55.105-110.45-47.152-181.92 1.9688-17.555 8.1875-28.574 18.973-33.613 28.418-13.227 83.602 16.453 102.41 29.047 2.6758 1.7305 6.1406 1.7305 8.7383 0 18.895-12.594 73.996-42.273 102.41-29.047 10.863 5.0391 17.082 16.059 18.973 33.613 7.9492 71.477-15.355 161.61-47.078 181.92z"/>
  <path d="m423.54 339.06c-8.3438 4.3281-15.113 8.3438-19.207 10.863-4.7227-2.9141-12.91-7.793-22.988-12.832 0.31641-21.492 6.1406-62.426 22.988-62.426 16.297 0 25.977 3.0703 31.094 5.3516-5.8242 13.465-16.215 41.094-11.887 59.043z"/>
  <path d="m365.92 284.9c-10.078 7.1641-20.781 10.078-32.512 8.8164-27.867-2.9141-53.688-28.34-65.023-41.09 19.285-9.2109 37.312-11.18 53.688-5.9844 23.379 7.5586 38.02 28.34 43.848 38.258z"/>
 </g>
</svg>