<?xml version="1.0" encoding="UTF-8"?>
<!-- The Best Svg Icon site in the world: iconSvg.co, Visit us! https://iconsvg.co -->
<svg fill="#000000" width="800px" height="800px" version="1.1" viewBox="144 144 512 512" xmlns="http://www.w3.org/2000/svg">
 <path d="m631.28 354.51c-2.5078-8.2383-8.1758-15.141-15.77-19.199-7.5898-4.0586-16.484-4.9414-24.723-2.4492l-176.62 53.52-7.6836-25.34c-2.1641-7.1172-7.0625-13.086-13.625-16.598-6.5586-3.5078-14.242-4.2734-21.367-2.1211l-100.66 30.527c-7.125 2.1641-13.098 7.0703-16.609 13.637-3.5117 6.5664-4.2695 14.258-2.1133 21.387l1.4648 4.832-70.988 44.164c-3.0234 1.8789-4.4102 5.5547-3.3789 8.9648l15.785 52.082c1.0039 3.3203 4.0664 5.5898 7.5312 5.5898 0.77344 0 1.543-0.11328 2.2852-0.33984l76.523-23.191c0.26953-0.11719 0.53516-0.25391 0.78516-0.41016 2.3555 2.9102 5.2656 5.3203 8.5664 7.0859 1.6133 0.80859 3.3008 1.4609 5.0391 1.9531 0.11719 0.046876 0.19531 0.14063 0.32422 0.17969h-0.003906c0.097656 0.023438 0.19531 0.039062 0.29297 0.046875 2.4492 0.73047 4.9883 1.1172 7.543 1.1523 2.7695-0.003907 5.5273-0.41797 8.1758-1.2305l100.7-30.512c6.207-1.8828 11.566-5.8555 15.176-11.242 3.6094-5.3867 5.2422-11.855 4.625-18.309l177.12-53.68c8.2227-2.5195 15.117-8.1992 19.164-15.789s4.9258-16.477 2.4336-24.711zm-435.24 112.54 62.266-38.77 17.32 56.988-67.84 20.551zm71.148-63.762c-1.9609-6.5078 1.7148-13.379 8.2148-15.359l100.69-30.527c6.5117-1.9688 13.387 1.7109 15.359 8.2188l1.8359 6.0391-61.617 18.672c-2.4219 0.73438-4.3438 2.5898-5.1641 4.9844l-32.273 94.25c-0.97656-1.2148-1.7109-2.6016-2.1641-4.0938zm148.26 53.906c-1.5352 2.8867-4.1602 5.0391-7.293 5.9766l-98.398 29.836 30.371-88.773 57.75-17.508 18.516 61.086h-0.003906c0.94531 3.1289 0.60547 6.5-0.94141 9.375zm189.61-77.25-176.59 53.531-9.707-32.008 176.59-53.531v0.003906c5.7148-1.7344 11.926-0.28516 16.285 3.7969 4.3594 4.0859 6.2109 10.188 4.8516 16.004-1.3555 5.8203-5.7148 10.473-11.43 12.207zm-238.61 29.215c-6.2227 1.8906-11.441 6.1758-14.504 11.91-3.0664 5.7344-3.7266 12.453-1.8398 18.676 1.8906 6.2227 6.1719 11.441 11.906 14.504 5.7344 3.0664 12.453 3.7266 18.676 1.8398s11.441-6.168 14.508-11.902c3.0664-5.7344 3.7305-12.453 1.8438-18.676-1.8945-6.2227-6.1797-11.438-11.914-14.5-5.7344-3.0664-12.453-3.7305-18.676-1.8516zm14.863 27.605-0.003906 0.003907c-1.9727 3.6875-6.2773 5.4648-10.277 4.2461-4.0039-1.2148-6.5898-5.0898-6.1758-9.25 0.41016-4.1641 3.7031-7.457 7.8672-7.8672 4.1602-0.41016 8.0312 2.1758 9.25 6.1797 0.68359 2.2266 0.44531 4.6367-0.66406 6.6914zm-76.918-27.312-17.012 5.1562c-4.1484 1.2227-8.5117-1.1289-9.7656-5.2656-1.2539-4.1406 1.0664-8.5195 5.1992-9.8008l17.012-5.1562c2-0.625 4.1719-0.42188 6.0234 0.5625 1.8516 0.98047 3.2383 2.6641 3.8477 4.6719 0.60547 2.0078 0.38672 4.1719-0.60547 6.0195-0.99609 1.8477-2.6875 3.2188-4.6992 3.8125z"/>
</svg>