<?xml version="1.0" encoding="UTF-8"?>
<!-- The Best Svg Icon site in the world: iconSvg.co, Visit us! https://iconsvg.co -->
<svg fill="#000000" width="800px" height="800px" version="1.1" viewBox="144 144 512 512" xmlns="http://www.w3.org/2000/svg">
 <g>
  <path d="m187.45 573.18h32.41l5.2891 42.289c0.71484 5.7109 3.4883 10.965 7.8047 14.773 4.3164 3.8125 9.875 5.9141 15.633 5.9141h50.918-0.003906c5.7578 0 11.316-2.1016 15.629-5.9141 4.3164-3.8086 7.0938-9.0625 7.8047-14.773l5.293-42.289h17.586l5.2891 42.289c0.71484 5.7109 3.4883 10.965 7.8047 14.773 4.3164 3.8125 9.875 5.9141 15.629 5.9141h50.918c5.7578 0 11.312-2.1016 15.629-5.9141 4.3164-3.8086 7.0938-9.0625 7.8047-14.773l5.293-42.289h17.586l5.2891 42.289c0.71484 5.7109 3.4883 10.965 7.8047 14.773 4.3164 3.8125 9.875 5.9141 15.629 5.9141h50.918c5.7539 0 11.312-2.1016 15.629-5.9141 4.3164-3.8086 7.0898-9.0625 7.8047-14.773l5.2891-42.289h32.41c8.4375 0 16.234-4.5 20.453-11.809s4.2188-16.309 0-23.617c-4.2188-7.3047-12.016-11.809-20.453-11.809v-196.8c-0.015625-14.609-5.8281-28.613-16.156-38.945-10.332-10.328-24.34-16.141-38.949-16.156h-314.88c-14.609 0.015625-28.617 5.8281-38.945 16.156-10.332 10.332-16.145 24.336-16.16 38.945v196.8c-8.4375 0-16.234 4.5039-20.453 11.809-4.2188 7.3086-4.2188 16.309 0 23.617s12.016 11.809 20.453 11.809zm15.746-244.04c0.011719-10.434 4.1602-20.438 11.539-27.816 7.3789-7.3789 17.383-11.531 27.82-11.543h314.88c10.438 0.011719 20.441 4.1641 27.82 11.543 7.3789 7.3789 11.527 17.383 11.543 27.816v196.8h-16.156c0.24219-2.6133 0.41016-5.2344 0.41016-7.8711 0-37.234-22.633-78.719-55.105-78.719-5.0742 0.039063-10.094 1.0938-14.758 3.1016-9.8633-25.742-28.434-42.461-48.215-42.461s-38.352 16.719-48.215 42.461h-0.003907c-9.4062-4.1367-20.113-4.1367-29.52 0-9.8633-25.742-28.434-42.461-48.215-42.461s-38.352 16.719-48.215 42.461h-0.003906c-4.6641-2.0078-9.6797-3.0625-14.758-3.1016-32.473 0-55.105 41.484-55.105 78.719 0 2.6367 0.16406 5.2578 0.41016 7.8711h-16.152zm31.984 196.8c-0.32031-2.6094-0.48828-5.2383-0.49609-7.8711 0-32.371 19.129-62.977 39.359-62.977s39.359 30.605 39.359 62.977c-0.011719 2.6328-0.17578 5.2617-0.49609 7.8711zm67.258-74.66c7.1719-21.109 20.898-35.547 34.582-35.547 13.68 0 27.41 14.438 34.582 35.551-17.395 17.848-27 41.867-26.711 66.785 0 2.6367 0.16406 5.2578 0.41016 7.8711h-16.531c0.24219-2.6133 0.41016-5.2344 0.41016-7.8711 0.27734-24.922-9.3398-48.941-26.742-66.785zm58.691 74.66c-0.31641-2.6094-0.48437-5.2383-0.49609-7.8711 0-32.371 19.129-62.977 39.359-62.977 20.23 0 39.359 30.605 39.359 62.977h0.003906c-0.011719 2.6328-0.17578 5.2617-0.49609 7.8711zm67.258-74.66c7.1719-21.109 20.902-35.547 34.586-35.547 13.68 0 27.41 14.438 34.582 35.551h-0.003906c-17.391 17.848-26.996 41.867-26.707 66.785 0 2.6367 0.16406 5.2578 0.41016 7.8711h-16.531c0.24219-2.6133 0.41016-5.2344 0.41016-7.8711h-0.003907c0.28125-24.922-9.3359-48.941-26.738-66.785zm58.695 74.66c-0.32031-2.6094-0.48438-5.2383-0.49609-7.8711 0-32.371 19.129-62.977 39.359-62.977s39.359 30.605 39.359 62.977h0.003906c-0.011719 2.6328-0.17969 5.2617-0.49609 7.8711zm-299.63 15.746h425.09c4.3477 0 7.8711 3.5234 7.8711 7.8711s-3.5234 7.8711-7.8711 7.8711h-39.359c-3.9688 0.003906-7.3164 2.957-7.8086 6.8984l-6.1484 49.184c-0.49219 3.9414-3.8438 6.8984-7.8164 6.8945h-50.918c-3.9727 0.003907-7.3242-2.9531-7.8164-6.8945l-5.0391-40.336h14.699v-15.746h-55.105c-3.9688 0.003906-7.3164 2.957-7.8086 6.8984l-6.1484 49.184c-0.49219 3.9414-3.8438 6.8984-7.8164 6.8945h-50.918c-3.9727 0.003907-7.3242-2.9531-7.8164-6.8945l-5.0391-40.336h14.699v-15.746h-55.105c-3.9688 0.003906-7.3164 2.957-7.8086 6.8984l-6.1484 49.184c-0.49219 3.9414-3.8438 6.8984-7.8164 6.8945h-50.914c-3.9727 0.003907-7.3281-2.9531-7.8203-6.8945l-5.0352-40.336h14.695v-15.746h-62.977c-4.3477 0-7.8711-3.5234-7.8711-7.8711s3.5234-7.8711 7.8711-7.8711z"/>
  <path d="m234.69 337.02c0-4.1758 1.6562-8.1797 4.6094-11.133s6.957-4.6133 11.133-4.6133h299.14c4.1758 0 8.1797 1.6602 11.133 4.6133s4.6133 6.957 4.6133 11.133v110.21h15.742v-110.21c0-8.3516-3.3164-16.363-9.2227-22.266-5.9062-5.9062-13.914-9.2227-22.266-9.2227h-299.14c-8.3516 0-16.359 3.3164-22.266 9.2227-5.9062 5.9023-9.2227 13.914-9.2227 22.266v110.21h15.742z"/>
  <path d="m313.41 242.56h212.54v15.742h-212.54z"/>
  <path d="m541.7 242.56h15.742v15.742h-15.742z"/>
 </g>
</svg>