<?xml version="1.0" encoding="UTF-8"?>
<!-- The Best Svg Icon site in the world: iconSvg.co, Visit us! https://iconsvg.co -->
<svg fill="#000000" width="800px" height="800px" version="1.1" viewBox="144 144 512 512" xmlns="http://www.w3.org/2000/svg">
 <g>
  <path d="m364.57 281.92c-4.7773 0-9.082 2.8789-10.91 7.2891-1.8281 4.4141-0.81641 9.4922 2.5625 12.867 3.375 3.3789 8.4531 4.3906 12.867 2.5625 4.4102-1.8281 7.2891-6.1328 7.2891-10.91 0-6.5234-5.2852-11.809-11.809-11.809z"/>
  <path d="m435.42 281.92c-4.7734 0-9.082 2.8789-10.91 7.2891-1.8242 4.4141-0.81641 9.4922 2.5625 12.867 3.375 3.3789 8.4531 4.3906 12.867 2.5625 4.4141-1.8281 7.2891-6.1328 7.2891-10.91 0-6.5234-5.2852-11.809-11.809-11.809z"/>
  <path d="m329.15 510.21h15.742v15.742h-15.742z"/>
  <path d="m455.1 510.21h15.742v15.742h-15.742z"/>
  <path d="m329.15 612.54c0.003906 2.0859 0.83203 4.0898 2.3086 5.5664l15.742 15.742c1.4766 1.4766 3.4805 2.3086 5.5664 2.3086h94.465c2.0859 0 4.0898-0.83203 5.5664-2.3086l15.742-15.742c1.4766-1.4766 2.3086-3.4805 2.3086-5.5664v-62.977c0-2.0859-0.83203-4.0898-2.3047-5.5664-1.4766-1.4766-3.4805-2.3047-5.5664-2.3047h-125.95c-4.3477 0-7.875 3.5234-7.875 7.8711zm15.742-55.105h110.21v51.844l-11.129 11.133h-87.949l-11.129-11.129z"/>
  <path d="m211.07 518.08h-7.8711c-4.3477 0-7.875 3.5234-7.875 7.8711v78.723c0 2.0859 0.83203 4.0898 2.3086 5.5664 1.4766 1.4766 3.4766 2.3047 5.5664 2.3047h7.8711v23.617h15.742v-23.617h15.742v23.617h15.742v-0.54297h0.003906c15.234-1.9336 29.234-9.375 39.363-20.918v21.461h15.742v-141.7h173.18v141.7h15.742l0.003907-55.105h39.359v55.105h15.742v-55.105h7.875c2.0859 0 4.0898-0.82813 5.5664-2.3047 1.4766-1.4766 2.3047-3.4805 2.3047-5.5664v-31.488c0-2.0898-0.82812-4.0898-2.3047-5.5664-1.4766-1.4766-3.4805-2.3047-5.5664-2.3047h-7.875v-70.848c-0.015625-16.699-6.6602-32.707-18.465-44.512-11.805-11.805-27.812-18.449-44.512-18.465h-39.359v-6.9141c13.117-12.867 21.324-29.914 23.199-48.191h0.41797c6.7773-0.023437 13.367-2.2383 18.781-6.3125 5.418-4.0742 9.3711-9.793 11.273-16.297 9.3164-6.3672 15.453-16.426 16.848-27.621 1.3984-11.199-2.0781-22.457-9.543-30.918-7.4648-8.457-18.203-13.309-29.488-13.316h-7.8711v-35.59c0-21.254-6.4531-35.906-19.75-44.77v0.003907c-6.0977-4.0742-13.27-6.2461-20.602-6.2383h-5.8906c-7.332-0.007813-14.5 2.1641-20.598 6.2383-3.5156 2.3516-7.6523 3.6055-11.879 3.6055-4.2305 0-8.3633-1.2539-11.879-3.6055-6.0977-4.0742-13.27-6.2461-20.602-6.2383h-5.8906c-7.332-0.007813-14.504 2.1641-20.602 6.2383-13.293 8.8633-19.75 23.504-19.75 44.766v35.59h-7.8711c-8.543 0.03125-16.844 2.8672-23.617 8.0781v-48.809c-0.03125-12.176 4.8047-23.859 13.438-32.449l-11.129-11.105c-11.598 11.531-18.098 27.227-18.051 43.578v64.324c-0.019531 4.8672-1.543 9.6094-4.3633 13.574-2.8164 3.9688-6.793 6.9688-11.383 8.5938v-86.492c-0.03125-12.176 4.8047-23.859 13.438-32.449l-11.129-11.129c-11.598 11.531-18.098 27.227-18.051 43.578v87.941h-15.746v-87.941c-0.03125-12.176 4.8047-23.859 13.438-32.449l-11.129-11.129c-11.598 11.531-18.098 27.227-18.051 43.578v86.492c-4.5898-1.625-8.5625-4.625-11.383-8.5938-2.8164-3.9648-4.3398-8.707-4.3633-13.574v-64.324c-0.03125-12.176 4.8047-23.859 13.438-32.449l-11.129-11.129c-11.598 11.531-18.098 27.227-18.051 43.578v64.324c0.011719 9.0703 3.1484 17.859 8.8867 24.883 5.7344 7.0273 13.719 11.863 22.602 13.688zm15.742-173.18h15.742l0.003906 173.18h-15.746zm47.23 204.67h23.617v15.742l-23.613 0.003906zm23.617-62.977v47.23l-25.062 0.003907c-2.3828-6.668-7.6289-11.914-14.297-14.297v-56.551c0.023438-11.152 3.9844-21.938 11.188-30.449 7.1992-8.5156 17.18-14.207 28.176-16.078zm-78.719 110.21h-7.8711v-62.977h39.359c2.0898 0 4.0898 0.82812 5.5664 2.3047 1.4766 1.4766 2.3047 3.4766 2.3047 5.5664v47.23c0 2.0898-0.82812 4.0898-2.3047 5.5664-1.4766 1.4766-3.4766 2.3086-5.5664 2.3086zm39.359 22.898v-8.6055c4.5898-1.6211 8.5664-4.6211 11.383-8.5898 2.8203-3.9688 4.3438-8.7109 4.3633-13.578v-7.8711h22.961c-1.6562 9.6562-6.2695 18.559-13.203 25.484-6.9336 6.9219-15.844 11.52-25.504 13.16zm55.105-140.98v-62.977h15.742v62.977zm33.852-62.977c2.9805 9.9414 8.7109 18.836 16.531 25.664l22.324 37.312h-41.219v-62.977zm52.742 23.617c-10.438-0.011719-20.441-4.1641-27.82-11.543-7.3789-7.3789-11.527-17.383-11.543-27.816v-31.488c0-14.062 7.5039-27.059 19.684-34.09 12.176-7.0312 27.18-7.0312 39.359 0 12.176 7.0312 19.68 20.027 19.68 34.09v31.488c-0.011719 10.434-4.1641 20.438-11.543 27.816s-17.383 11.531-27.816 11.543zm10.094 14.777-10.094 17.078-10.234-17.113c3.3711 0.65625 6.7969 0.99219 10.234 1 3.3867-0.011718 6.7617-0.33594 10.09-0.96875zm147.34 111.18h-55.102v-15.746h55.105zm-15.742-102.34v70.848h-39.359v-117.38c10.992 1.8711 20.973 7.5625 28.176 16.078 7.1992 8.5117 11.164 19.297 11.184 30.449zm-55.105-47.23v62.977l-15.742-0.003906v-62.977zm-31.488 0v62.977l-41.281-0.003906 21.781-36.738h0.003907c8.1406-6.9023 14.105-16.016 17.176-26.238zm-0.054687-48.262v-0.003906c-0.32812-19.445-10.891-37.277-27.789-46.906-16.898-9.6289-37.621-9.6289-54.52 0-16.895 9.6289-27.461 27.461-27.789 46.906-5.1758-9.3203-7.9062-19.797-7.9258-30.457v-70.848h125.95v70.848c-0.023437 10.66-2.75 21.137-7.9297 30.457zm23.672-38.336v-31.484c5.625 0 10.824 3 13.633 7.8711 2.8125 4.8711 2.8125 10.871 0 15.742-2.8086 4.8711-8.0078 7.8711-13.633 7.8711zm7.8711-62.977v0.003906c8.2617 0.003907 15.918 4.3242 20.191 11.391 4.2773 7.0703 4.5469 15.855 0.71875 23.172-2.457-5.5898-6.4844-10.344-11.594-13.684-5.1094-3.3438-11.082-5.1289-17.188-5.1367v-15.742zm-136.83-82.992c3.5156-2.3516 7.6445-3.6016 11.871-3.5977h5.8906c4.2266-0.003906 8.3555 1.2461 11.871 3.5977 6.0977 4.0781 13.27 6.2539 20.609 6.2539 7.3359 0 14.508-2.1758 20.609-6.2539 3.5117-2.3516 7.6445-3.6016 11.867-3.5977h5.8906c4.2266-0.003906 8.3594 1.2461 11.871 3.5977 5.4609 3.6367 12.738 10.887 12.738 31.66v4.1016h-125.95v-4.1016c0-20.773 7.2734-28.023 12.734-31.66zm-12.734 51.508h125.95v15.742h-125.95zm-23.617 31.488h7.8711v15.742c-6.082 0.011719-12.031 1.7852-17.125 5.1055-5.0977 3.3203-9.125 8.0469-11.59 13.605-3.9023-7.2852-3.668-16.09 0.60938-23.164 4.2773-7.0703 11.969-11.363 20.234-11.289zm-7.8711 47.23c0-4.1758 1.6562-8.1797 4.6094-11.133 2.9531-2.9531 6.957-4.6094 11.133-4.6094v31.488-0.003906c-4.1758 0-8.1797-1.6562-11.133-4.6094-2.9531-2.9531-4.6094-6.957-4.6094-11.133zm-29.008-10.125c2.8164 7.6641 7.9375 14.266 14.664 18.895 1.8828 6.5312 5.832 12.277 11.258 16.375 5.4258 4.0938 12.031 6.3203 18.828 6.3438h0.41797c1.8789 18.277 10.082 35.324 23.199 48.191v6.9141h-39.359c-18.102 0.007812-35.32 7.832-47.234 21.457v-108.84c6.7969-1.4336 13.09-4.6562 18.227-9.3359zm-33.969 25.867h-15.746v-15.742h15.742z"/>
  <path d="m389.85 347.26-11.195 11.02c5.2031 6.457 13.051 10.207 21.344 10.207 8.2891 0 16.137-3.75 21.34-10.207l-11.195-11.02c-2.2305 3.4336-6.0508 5.5078-10.145 5.5078-4.0977 0-7.918-2.0742-10.148-5.5078z"/>
 </g>
</svg>