<?xml version="1.0" encoding="UTF-8"?>
<!-- The Best Svg Icon site in the world: iconSvg.co, Visit us! https://iconsvg.co -->
<svg fill="#000000" width="800px" height="800px" version="1.1" viewBox="144 144 512 512" xmlns="http://www.w3.org/2000/svg">
 <g>
  <path d="m424.07 601.52h149.77c2.7852 0 5.0391-2.2539 5.0391-5.0391v-107.02c0-26.348-21.438-47.781-47.781-47.781h-27.098l-0.003906-127.91c15.703-1.5312 29.762-10.098 38.238-23.676 14.523-23.246 22.199-50.023 22.199-77.438v-9.1523c0-2.7852-2.2539-5.0391-5.0391-5.0391l-120.88 0.003906c-2.7852 0-5.0391 2.2539-5.0391 5.0391v9.1523c0 27.41 7.6758 54.188 22.195 77.43 8.4805 13.586 22.535 22.148 38.242 23.68v127.91h-27.098c-26.348 0-47.781 21.438-47.781 47.781v107.02c0 2.7852 2.2539 5.0391 5.0352 5.0391zm40.148-316.76c-13.52-21.645-20.664-46.578-20.664-72.098v-4.1133h110.8v4.1133c0 25.523-7.1445 50.453-20.668 72.098-7.5273 12.055-20.512 19.258-34.73 19.258s-27.199-7.1992-34.734-19.258zm-35.109 204.7c0-20.793 16.914-37.707 37.707-37.707h64.273c20.793 0 37.707 16.914 37.707 37.707l0.003906 101.98h-139.69z"/>
  <path d="m221.23 596.48c0 2.7852 2.2539 5.0391 5.0391 5.0391 2.7852 0 5.0391-2.2539 5.0391-5.0391l-0.003906-107.02c0-20.793 16.914-37.707 37.707-37.707h2.4023v144.73c0 2.7852 2.2539 5.0391 5.0391 5.0391s5.0391-2.2539 5.0391-5.0391l-0.003907-144.73h39.32l0.003906 144.73c0 2.7852 2.2539 5.0391 5.0391 5.0391 2.7852 0 5.0391-2.2539 5.0391-5.0391l-0.003906-144.73h2.4023c20.793 0 37.711 16.914 37.711 37.707v107.02c0 2.7852 2.2539 5.0391 5.0391 5.0391 2.7852 0 5.0391-2.2539 5.0391-5.0391l-0.003906-107.02c0-26.348-21.438-47.781-47.789-47.781h-27.098v-127.91c15.703-1.5312 29.762-10.098 38.25-23.68 14.516-23.242 22.188-50.023 22.188-77.43v-9.1562c0-2.7852-2.2539-5.0391-5.0391-5.0391l-120.87 0.003906c-2.7852 0-5.0391 2.2539-5.0391 5.0391v9.1523c0 27.414 7.6758 54.188 22.199 77.43 8.4805 13.582 22.535 22.148 38.238 23.68v127.91h-27.098c-26.348 0-47.781 21.438-47.781 47.781zm45.184-311.73c-13.52-21.637-20.664-46.566-20.664-72.094v-4.1133h110.8v4.1133c0 25.52-7.1445 50.453-20.66 72.098-7.5312 12.055-20.52 19.258-34.734 19.258s-27.203-7.2031-34.738-19.262z"/>
 </g>
</svg>