<?xml version="1.0" encoding="UTF-8"?>
<!-- The Best Svg Icon site in the world: iconSvg.co, Visit us! https://iconsvg.co -->
<svg fill="#000000" width="800px" height="800px" version="1.1" viewBox="144 144 512 512" xmlns="http://www.w3.org/2000/svg">
 <path d="m377.72 550.84c7.6328 27.785 15.129 41.871 22.281 41.871 7.1484 0 14.648-14.09 22.277-41.871l0.4375-1.5938h-45.438zm-12.32-59.664c2.7891 17.973 6.1992 35.305 9.8516 50.117l0.37891 1.5234 1.4062-0.69531c0.58203-0.28906 1.1172-0.42969 1.6445-0.42969h42.648c0.52734 0 1.0547 0.13672 1.6484 0.42969l1.4023 0.69531 0.37891-1.5195c3.6562-14.832 7.0586-32.164 9.8438-50.121l0.22656-1.4531h-69.656zm-6.8594-60c1.1914 16.309 2.9961 33.098 5.3711 49.902l0.15234 1.082h71.867l0.15234-1.082c2.3711-16.781 4.1836-33.57 5.3789-49.902l0.14844-1.9844-1.8594 0.72266c-0.48828 0.1875-0.93359 0.28125-1.3672 0.28125h-76.762c-0.4375 0-0.88672-0.089844-1.3672-0.28125l-1.8594-0.72656zm-1.2578-60.461c-0.27734 5.3789-0.41406 11.246-0.41406 17.434 0 10.727 0.35937 22.172 1.0664 34.012l0.12109 2.0117 1.7578-0.99219c0.66016-0.37109 1.2344-0.54688 1.8047-0.54688h76.762c0.56641 0 1.1406 0.17578 1.8125 0.54688l1.75 0.98047 0.12109-2.0078c0.70703-11.922 1.0664-23.363 1.0664-34.008 0-6.0898-0.13672-11.957-0.41406-17.434l-0.12109-2.4414-1.918 1.5195c-0.73438 0.58203-1.5039 0.875-2.2969 0.875l-76.758 0.003906c-0.79297 0-1.5664-0.29688-2.2969-0.875l-1.9141-1.5234zm81.102-7.6016c0.60156 0 1.1953 0.19141 1.8828 0.60156l2.1055 1.2617-0.20703-2.4492c-3.6719-43.512-17.215-49.004-29.629-50.738-3.7734-0.53516-7.7383-0.64844-12.535-0.64844s-8.7617 0.10938-12.516 0.64453c-12.418 1.7305-25.977 7.2188-29.648 50.738l-0.20703 2.4492 2.1055-1.2617c0.6875-0.41016 1.2852-0.60156 1.8828-0.60156zm-78.871-155.82c-1.3867 0-2.7344 0.28906-4 0.86719-4.8086 2.2422-6.9062 8.0039-4.6992 12.848l38.422 82.957 0.875-0.074218c2.3008-0.15625 4.1875-0.24219 6.2109-0.28125l2.7891-0.050782-1.8828-2.0586c-0.37891-0.41016-0.65625-0.87891-0.81641-1.3984l-28.039-87.25c-1.7461-3.4492-5.1914-5.5586-8.8594-5.5586zm80.922-0.019531c-3.6836 0-7.0273 2.0625-8.7188 5.3906l-28.117 87.434c-0.16406 0.52344-0.4375 0.99219-0.81641 1.4023l-1.8828 2.0586 2.7891 0.050782c2.0234 0.035156 3.918 0.12109 5.7617 0.26172l0.87109 0.0625 0.82031-0.77344 38.047-82.156c2.2148-4.8438 0.089844-10.609-4.7266-12.859-1.2969-0.58203-2.6445-0.87109-4.0273-0.87109z"/>
</svg>