<?xml version="1.0" encoding="UTF-8"?>
<!-- The Best Svg Icon site in the world: iconSvg.co, Visit us! https://iconsvg.co -->
<svg fill="#000000" width="800px" height="800px" version="1.1" viewBox="144 144 512 512" xmlns="http://www.w3.org/2000/svg">
 <g>
  <path d="m233.3 617.82-34.82-1.4805c-7.4102-0.74219-14.078-6.668-14.078-14.078l-6.668-115.58c0-4.4453 1.4805-8.1484 4.4453-11.113l80.016-79.277 11.113 11.113c2.9648 2.9648 7.4102 2.9648 10.371 0 2.9648-2.9648 2.9648-7.4102 0-10.371l-17.039-17.039c-2.9648-2.9648-7.4102-2.9648-10.371 0l-84.465 84.461c-5.9258 5.9258-8.8906 14.078-8.8906 22.969l5.9258 115.58c0.74219 15.559 12.594 27.414 28.152 28.152l34.82 1.4805h0.74219c3.7031 0 7.4102-2.9648 7.4102-6.668 0.003906-4.4414-2.9609-7.4062-6.6641-8.1484z"/>
  <path d="m632.64 239.22-71.867-71.867c-5.9258-5.9258-15.559-5.9258-20.746 0l-20.746 20.746s-0.73828 0.74219-0.73828 0.74219h-0.74219s0 0.74219-0.74219 0.74219c-17.039 18.523-22.227 43.711-14.816 65.941l-179.3 180.04-17.039-17.039c-2.9648-2.9648-7.4102-2.9648-10.371 0-2.9648 2.9648-2.9648 7.4102 0 10.371l109.65 109.65-80.02 79.273c-2.9648 2.9648-7.4102 4.4453-11.113 4.4453l-49.641-2.9648c-4.4453 0-7.4102 2.9648-8.1484 6.668 0 4.4453 2.9648 7.4102 6.668 8.1484l49.641 2.9648h1.4805c8.1484 0 15.559-2.9648 20.746-8.8906l85.203-85.203c1.4805-1.4805 2.2227-2.9648 2.2227-5.1875 0-2.2227-0.74219-3.7031-2.2227-5.1875l-56.309-56.309 100.02-100.02c2.9648-2.9648 2.9648-7.4102 0-10.371-2.9648-2.9648-7.4102-2.9648-10.371 0l-99.281 100.77-20.746-20.746 175.59-175.59c2.2227 3.7031 4.4453 6.668 7.4102 9.6328 3.7031 4.4453 8.1484 7.4102 12.594 10.371l-53.344 53.344c-2.9648 2.9648-2.9648 7.4102 0 10.371 1.4805 1.4805 3.7031 2.2227 5.1875 2.2227 1.4805 0 3.7031-0.74219 5.1875-2.2227l57.051-57.051c6.668 2.2227 13.336 2.9648 20.004 3.7031h0.74219c17.781 0 34.082-6.668 45.938-19.262l22.227-22.227c6.6602-5.1797 6.6602-14.812 0.73438-20zm-68.902 47.418c-6.668 0-13.336-1.4805-19.262-3.7031-6.668-2.9648-11.855-6.668-17.039-11.855-16.301-17.039-17.039-44.453-3.7031-64.457l70.387 70.387c-8.1562 5.9258-19.27 9.6289-30.383 9.6289zm58.527-37.043-17.039 17.039-71.867-71.867 17.043-17.039z"/>
 </g>
</svg>