<?xml version="1.0" encoding="UTF-8"?>
<!-- The Best Svg Icon site in the world: iconSvg.co, Visit us! https://iconsvg.co -->
<svg width="800px" height="800px" version="1.1" viewBox="144 144 512 512" xmlns="http://www.w3.org/2000/svg">
 <defs>
  <clipPath id="b">
   <path d="m152 148.09h233v502.91h-233z"/>
  </clipPath>
  <clipPath id="a">
   <path d="m415 148.09h234v502.91h-234z"/>
  </clipPath>
 </defs>
 <g>
  <g clip-path="url(#b)">
   <path d="m278.85 424.48c19.285 0 55.105-3.543 78.719-27 32.043-32.039 26.688-87.461 26.688-89.742-0.39844-4.4336-3.9102-7.9453-8.3438-8.3438 0 0-4.25-0.47266-11.098-0.47266-19.285 0-55.105 3.4648-78.719 27h-0.003906c-3.0391 3.1094-5.8281 6.4531-8.3438 10v-23.617c10.547-9.5234 41.328-40.777 41.328-79.27-0.15625-45.582-43.059-81.004-45.027-82.5-3.4531-2.7656-8.3594-2.7656-11.809 0-1.7305 1.4961-44.633 36.918-44.633 82.262 0 38.496 30.859 69.746 41.328 79.27v23.617c-2.5508-3.4922-5.3945-6.7578-8.5039-9.7617-23.617-23.617-59.434-27-78.719-27-6.8477 0-11.098 0.47266-11.098 0.47266h-0.003906c-4.3242 0.53516-7.6953 4.0039-8.1055 8.3438 0 2.2812-5.5117 57.703 26.527 89.742 23.617 23.617 59.355 27 78.719 27h1.2578l0.003907 52.664c-2.5391-3.6211-5.4141-6.9922-8.582-10.078-23.617-23.617-59.434-27-78.719-27-6.8477 0-11.098 0.47266-11.098 0.47266h-0.003906c-4.3125 0.5625-7.668 4.0195-8.1055 8.3438 0 2.3633-5.5117 57.703 26.527 89.82 23.617 23.617 59.355 27 78.719 27h1.2578v76.594l0.003907 0.003906c0.44141 4.8203 4.4844 8.5078 9.3281 8.5078 4.8398 0 8.8828-3.6875 9.3281-8.5078v-76.988h1.2578c19.285 0 55.105-3.543 78.719-27 31.965-31.727 26.609-87.066 26.609-89.43-0.42969-4.418-3.9258-7.9141-8.3438-8.3438 0 0-4.25-0.47266-11.098-0.47266-19.285 0-55.105 3.543-78.719 27h-0.003906c-3.0586 3.1211-5.8516 6.4922-8.3438 10.078v-52.664zm20.309-85.332c19.363-19.445 52.191-21.57 65.418-21.57h1.1797c0 14.879-1.9688 47.23-21.492 66.598-19.523 19.363-53.844 21.883-66.598 21.492-0.15234-14.801 1.9727-47.078 21.492-66.52zm-106.9 45.105c-19.363-19.363-21.57-51.719-21.492-66.598h0.94922c13.227 0 46.051 2.125 65.496 21.57 19.445 19.445 21.57 51.719 21.41 66.598-12.516 0.31641-46.367-1.5742-66.363-21.57zm0 141.22c-19.363-19.445-21.57-51.719-21.492-66.676 12.832 0 46.68 1.4961 66.676 21.492 19.996 19.996 21.57 51.719 21.41 66.676-12.746 0.31641-46.598-1.4961-66.594-21.488zm106.9-45.184c19.363-19.363 52.191-21.492 65.418-21.492h1.1797c0 14.879-1.9688 47.23-21.492 66.676-19.523 19.445-52.191 21.492-65.418 21.492h-1.1797c-0.15234-14.957 2.0508-47.23 21.492-66.676zm-30.855-185.15c-10.707-10.547-31.961-34.953-31.961-62.348s21.254-51.797 31.961-62.27c10.629 10.469 31.883 34.875 31.883 62.27-0.003906 27.395-21.258 51.797-31.883 62.348z"/>
  </g>
  <g clip-path="url(#a)">
   <path d="m639.15 440.54s-4.25-0.47266-11.098-0.47266c-19.285 0-55.105 3.543-78.719 27h-0.003907c-2.8984 3.1367-5.5312 6.5078-7.875 10.078v-52.664h1.2578c19.285 0 55.105-3.543 78.719-27 32.039-32.039 26.766-87.457 26.527-89.742h0.007812c-0.43359-4.418-3.9297-7.9141-8.3477-8.3438 0 0-4.25-0.47266-11.098-0.47266-19.285 0-55.105 3.4648-78.719 27-2.8828 3.125-5.5117 6.4648-7.875 10v-23.617c10.469-9.5234 41.328-40.777 41.328-79.27-0.86328-45.582-43.766-81.004-45.656-82.5-3.4492-2.7656-8.3555-2.7656-11.809 0-1.8086 1.4961-44.711 36.918-44.711 82.262 0 38.496 30.781 69.746 41.328 79.27v23.617c-2.5156-3.5469-5.3047-6.8906-8.3477-9.9961-23.617-23.617-59.355-27-78.719-27-6.8477 0-11.098 0.47266-11.098 0.47266v-0.003906c-4.5781 0.34375-8.2031 4.0039-8.5039 8.582 0 2.2812-5.5898 57.703 26.527 89.742 23.617 23.617 59.355 27 78.719 27h1.2578l0.003906 52.664c-2.4922-3.5859-5.2852-6.957-8.3438-10.078-23.617-23.617-59.355-27-78.719-27-6.8477 0-11.098 0.47266-11.098 0.47266h-0.003906c-4.418 0.42969-7.9141 3.9258-8.3438 8.3438 0 2.3633-5.5898 57.703 26.527 89.82 23.617 23.617 59.355 27 78.719 27h1.2578v76.594l0.003906 0.003906c0.44531 4.8203 4.4883 8.5078 9.3281 8.5078 4.8438 0 8.8867-3.6875 9.3281-8.5078v-76.988h1.2578c19.285 0 55.105-3.543 78.719-27 32.039-32.117 26.766-87.457 26.527-89.82l0.007813-0.003907c-0.625-4.2227-4.0234-7.4922-8.2656-7.9492zm-183.42-56.285c-19.445-19.363-21.648-51.719-21.492-66.598h1.1797c13.227 0 46.051 2.125 65.418 21.57 19.363 19.445 21.648 51.719 21.492 66.598-12.754 0.31641-46.605-1.5742-66.598-21.57zm0 141.22c-19.445-19.445-21.648-51.719-21.492-66.676h1.1797c13.227 0 46.051 2.125 65.418 21.492 19.363 19.363 21.648 51.719 21.492 66.676-12.754 0.31641-46.605-1.4961-66.598-21.488zm106.82-186.33c19.445-19.445 52.27-21.57 65.496-21.57h1.1797c0 14.879-1.9688 47.23-21.492 66.598-19.523 19.363-52.27 21.492-65.418 21.492h-1.2578c-0.074219-14.801 2.0508-47.078 21.492-66.52zm-30.859-44.004c-10.629-10.547-31.488-34.953-31.488-62.348s21.254-51.875 31.961-62.348c10.629 10.469 31.488 34.793 31.488 62.348 0 27.551-21.254 51.797-31.957 62.348zm76.043 230.34c-19.363 19.363-52.27 21.492-65.418 21.492h-1.2578c0-14.957 2.125-47.23 21.492-66.676 19.363-19.445 52.27-21.492 65.496-21.492h1.1797c0.16016 14.875-1.9648 47.152-21.488 66.676z"/>
  </g>
 </g>
</svg>