<?xml version="1.0" encoding="UTF-8"?>
<!-- The Best Svg Icon site in the world: iconSvg.co, Visit us! https://iconsvg.co -->
<svg fill="#000000" width="800px" height="800px" version="1.1" viewBox="144 144 512 512" xmlns="http://www.w3.org/2000/svg">
 <path d="m610.75 223.95c-5.6875 13-16.031 23.398-28.996 29.172l-0.37109 0.16016c-7.5117 3.3438-15.551 5.0469-23.68 5.0469h-44.352l-14.172-14.172h-198.37l-14.172 14.172h-47.504c-7.0117 0-13.941-1.4375-20.383-4.2305-13.32-5.9141-23.895-17.305-29.703-30.586-7.0859-16.215-15.766-36.035-15.766-36.035v67.289c0 41.109 33.367 74.441 74.5 74.391l38.859-0.054688-85.02 28.41 23.77 15.852c12.223 8.1484 26.566 12.488 41.266 12.488h19.98v16.879c0 9.1602 2.3711 18.172 6.8711 26.145l16.152 28.57 23.023 85.02-3.668 16.758c-4.8359 22.066 9.1055 43.891 31.156 48.801l1.2031 0.26562c25.418 5.6484 51.758 5.6484 77.172 0l1.0078-0.21094c22.285-4.957 36.219-26.816 31.387-48.906-2.0547-9.3867-3.6484-16.703-3.6484-16.703l23.023-85.02 16.152-28.57c4.5-7.9688 6.8711-16.984 6.8711-26.145v-16.879h19.98c14.699 0 29.051-4.3359 41.266-12.488l23.77-15.852-85.004-28.344h38.965c41.098 0 74.391-33.297 74.391-74.387v-67.309zm-276.8 204.38c-10.469 0-18.969-8.5-18.969-18.969v-23.559l12.699 12.75c-2.1758 2.2461-3.5078 5.3164-3.5078 8.6953 0 6.9414 5.6328 12.574 12.574 12.574 3.3438 0 6.3789-1.3086 8.6445-3.4727l11.922 11.977zm101.02 158.98-1.0078 0.21094c-11.125 2.4805-22.566 3.7383-33.953 3.7383-11.426 0-22.848-1.2578-33.988-3.7383l-1.2031-0.26562c-10.59-2.3594-17.32-12.891-15.004-23.504l1.8242-9.3711c1.3438-6.9258 7.4219-11.922 14.469-11.922h67.816c7.0469 0 13.109 4.9922 14.469 11.922l1.8086 9.3164c2.3359 10.633-4.5 21.223-15.23 23.613zm50.156-177.9c0 10.484-8.4844 18.969-18.969 18.969h-23.363l11.922-11.977c2.2656 2.1758 5.2969 3.4727 8.6445 3.4727 6.9414 0 12.574-5.6328 12.574-12.574 0-3.3789-1.3281-6.4297-3.5078-8.6953l12.699-12.75 0.007812 23.555zm-99.285 159.38v3.7773h-14.504c-3.7266 0-6.75-3.0234-6.75-6.75v-7.3789c0-1.7031 1.7344-2.8555 3.3008-2.2031l13.27 5.5273c2.8359 1.1836 4.6836 3.9531 4.6836 7.0273zm49.59-10.355v7.3789c0 3.7266-3.0234 6.75-6.75 6.75h-14.5v-3.7773c0-3.0742 1.8477-5.8438 4.6836-7.0273l13.27-5.5273c1.5703-0.65234 3.2969 0.50391 3.2969 2.2031z"/>
</svg>