<?xml version="1.0" encoding="UTF-8"?>
<!-- The Best Svg Icon site in the world: iconSvg.co, Visit us! https://iconsvg.co -->
<svg fill="#000000" width="800px" height="800px" version="1.1" viewBox="144 144 512 512" xmlns="http://www.w3.org/2000/svg">
 <path d="m620.41 465.59h-37.91l10.816-105.07v-0.003906c0.22266-2.2148-0.50391-4.418-1.9961-6.0664-1.4922-1.6523-3.6133-2.5938-5.8359-2.5938h-192.57l-3.4727-139.14c-0.10547-4.2695-3.5977-7.6758-7.8711-7.6758h-132.71c-4.0977-0.015624-7.5234 3.1211-7.8711 7.2031l-12.344 145.42v57.078c-30.164 12.914-51.402 40.633-56.02 73.117-4.6172 32.488 8.0586 65.027 33.434 85.832 25.371 20.805 59.766 26.855 90.715 15.961 30.953-10.895 53.973-37.156 60.719-69.266h147.84c-4.0977 15.844-0.63281 32.691 9.3867 45.629 10.02 12.941 25.461 20.512 41.828 20.512 16.363 0 31.809-7.5703 41.824-20.512 10.02-12.938 13.488-29.785 9.3906-45.629h12.656c2.0898 0 4.0898-0.83203 5.5664-2.3086 1.4766-1.4766 2.3086-3.4766 2.3086-5.5664v-39.051c0-2.0898-0.83203-4.0898-2.3086-5.5664-1.4766-1.4766-3.4766-2.3047-5.5664-2.3047zm-243.25-113.76h-36.289v-131.04h33.016zm-121.05-131.04h69.023v131.04h-80.219zm9.5117 358.43c-20.734 0-40.621-8.2383-55.281-22.898-14.664-14.664-22.898-34.547-22.898-55.281s8.2383-40.621 22.902-55.281c14.66-14.66 34.547-22.895 55.281-22.895s40.617 8.2383 55.277 22.902c14.66 14.66 22.895 34.547 22.895 55.281-0.023437 20.727-8.2695 40.598-22.926 55.254-14.656 14.652-34.527 22.895-55.25 22.918zm0-172.09v-0.003906c-7.1602 0.023437-14.293 0.87109-21.258 2.5195v-42.066h332.4l-0.63672 6.2344h-183.7c-4.3477 0-7.8711 3.5234-7.8711 7.8711v122.96h-25.191c0.046875-1.2031 0.17969-2.3633 0.17969-3.5977-0.027343-24.902-9.9297-48.777-27.539-66.383-17.609-17.609-41.484-27.512-66.387-27.539zm290.92 163.44c-9.8555 0-19.305-3.9141-26.273-10.883s-10.883-16.418-10.883-26.27c0-9.8555 3.9102-19.305 10.879-26.273s16.418-10.887 26.27-10.887c9.8555 0 19.305 3.9102 26.273 10.879 6.9688 6.9648 10.887 16.414 10.891 26.27-0.011719 9.8516-3.9297 19.297-10.895 26.266-6.9648 6.9648-16.41 10.887-26.262 10.898zm56-65.922h-11.668c-9.7266-15.047-26.422-24.133-44.336-24.133-17.918 0-34.613 9.0859-44.34 24.133h-28.664v-31.18c0-4.3477-3.5234-7.8711-7.8711-7.8711-4.3477 0-7.8711 3.5234-7.8711 7.8711v31.18h-67.488v-115.09h11.809v33.277c0 4.3477 3.5234 7.8711 7.8711 7.8711s7.875-3.5234 7.875-7.8711v-33.277h14.754l-0.003906 33.277c0 4.3477 3.5234 7.8711 7.8711 7.8711 4.3477 0 7.875-3.5234 7.875-7.8711v-33.277h14.762l-0.003907 33.277c0 4.3477 3.5234 7.8711 7.8711 7.8711s7.875-3.5234 7.875-7.8711v-33.277h14.754l-0.003906 33.277c0 4.3477 3.5234 7.8711 7.8711 7.8711 4.3477 0 7.875-3.5234 7.875-7.8711v-33.277h14.781v33.277c0 4.3477 3.5273 7.8711 7.875 7.8711 4.3438 0 7.8711-3.5234 7.8711-7.8711v-33.277h24.625l-8.5586 83.098c-0.22266 2.2148 0.5 4.418 1.9922 6.0664 1.4883 1.6484 3.6094 2.5898 5.832 2.5938h38.77zm-56-2.8828v0.003907c-8.3945 0-16.445 3.332-22.379 9.2695-5.9336 5.9336-9.2695 13.984-9.2695 22.379 0.003907 8.3906 3.3359 16.441 9.2734 22.375 5.9336 5.9336 13.984 9.2656 22.379 9.2656s16.441-3.3359 22.375-9.2734 9.2656-13.984 9.2656-22.379c-0.011719-8.3906-3.3477-16.434-9.2812-22.363-5.9336-5.9297-13.977-9.2656-22.363-9.2734zm0 47.539v0.003906c-4.2188 0-8.2617-1.6758-11.246-4.6602-2.9805-2.9805-4.6562-7.0273-4.6562-11.242 0-4.2188 1.6758-8.2617 4.6562-11.246 2.9844-2.9805 7.0273-4.6562 11.246-4.6562 4.2148 0 8.2617 1.6758 11.242 4.6562 2.9844 2.9844 4.6562 7.0273 4.6562 11.246-0.003906 4.2148-1.6797 8.2578-4.6602 11.238s-7.0234 4.6602-11.238 4.6641zm-290.92-106c-15.32 0-30.016 6.0859-40.848 16.922-10.832 10.832-16.918 25.523-16.918 40.844 0 15.32 6.0859 30.016 16.918 40.848 10.832 10.832 25.527 16.918 40.848 16.918 15.316 0 30.012-6.0859 40.844-16.918s16.918-25.527 16.918-40.848c-0.015625-15.312-6.1094-29.996-16.938-40.824s-25.512-16.922-40.824-16.941zm0 99.785v0.003906c-11.148 0-21.836-4.4297-29.715-12.309-7.8789-7.8828-12.309-18.57-12.309-29.715 0-11.145 4.4297-21.832 12.309-29.711 7.8789-7.8828 18.566-12.309 29.715-12.309 11.145 0 21.832 4.4258 29.711 12.309 7.8789 7.8789 12.309 18.566 12.309 29.711-0.019531 11.137-4.4531 21.812-12.328 29.688-7.8789 7.875-18.555 12.305-29.691 12.32z"/>
</svg>