<?xml version="1.0" encoding="UTF-8"?>
<!-- The Best Svg Icon site in the world: iconSvg.co, Visit us! https://iconsvg.co -->
<svg fill="#000000" width="800px" height="800px" version="1.1" viewBox="144 144 512 512" xmlns="http://www.w3.org/2000/svg">
 <g>
  <path d="m436.02 198.48h-72.039c-11.129 0-20.188 9.0547-20.188 20.188v41.402c-46.164 0.27344-83.641 37.887-83.641 84.113v232.45c0 13.727 11.164 24.895 24.891 24.895h229.91c13.727 0 24.891-11.168 24.891-24.895l-0.003906-232.45c0-46.227-37.477-83.84-83.641-84.113v-41.402c0-11.129-9.0547-20.184-20.184-20.184zm-72.039 10.074h72.039c5.5742 0 10.109 4.5352 10.109 10.109v41.379h-92.262v-41.379c0-5.5742 4.5391-10.109 10.113-10.109zm165.79 135.62v232.45c0 8.1758-6.6484 14.82-14.816 14.82h-229.91c-8.168 0-14.812-6.6484-14.812-14.82l-0.003907-232.45c0-40.84 33.227-74.062 74.062-74.062h111.42c40.836 0 74.062 33.223 74.062 74.062z"/>
  <path d="m424.41 246c2.7852 0 5.0391-2.2539 5.0391-5.0391v-10.16c0-2.7812-2.2539-5.0391-5.0391-5.0391s-5.0391 2.2539-5.0391 5.0391v10.16c0 2.7852 2.2539 5.0391 5.0391 5.0391z"/>
  <path d="m400 246c2.7852 0 5.0391-2.2539 5.0391-5.0391v-10.16c0-2.7812-2.2539-5.0391-5.0391-5.0391s-5.0391 2.2539-5.0391 5.0391v10.16c0 2.7852 2.2539 5.0391 5.0391 5.0391z"/>
  <path d="m375.59 246c2.7852 0 5.0391-2.2539 5.0391-5.0391v-10.16c0-2.7812-2.2539-5.0391-5.0391-5.0391s-5.0391 2.2539-5.0391 5.0391v10.16c0 2.7852 2.2539 5.0391 5.0391 5.0391z"/>
  <path d="m432.54 471.38c0.96484 0 1.9375-0.27734 2.8047-0.85547 10.555-7.0859 17.348-17.312 19.129-28.793 0.42969-2.75-1.457-5.3242-4.207-5.75-2.7539-0.40234-5.3281 1.4609-5.75 4.207-1.3438 8.668-6.5938 16.469-14.789 21.969-2.3086 1.5508-2.9219 4.6797-1.3711 6.9922 0.96875 1.4453 2.5625 2.2305 4.1836 2.2305z"/>
  <path d="m436.29 327.7c2.707-0.62109 4.4023-3.3164 3.7891-6.0234-0.61328-2.7148-3.2812-4.418-6.0312-3.7969-8.0977 1.832-20.375 7.5391-29.012 18.258v-25.645c0-2.7812-2.2539-5.0391-5.0391-5.0391s-5.0391 2.2539-5.0391 5.0391v25.551c-8.6328-10.688-20.914-16.336-29-18.168-2.7461-0.625-5.418 1.0859-6.0312 3.7969-0.61328 2.7148 1.0859 5.4102 3.7969 6.0273 1.2227 0.27734 28.371 6.832 30.965 33.531-0.19141 0.007813-0.375-0.007812-0.56641 0.003907-45.316 2.4219-82.453 33.797-86.375 72.973-3.5664 35.652 19.684 68.5 57.855 81.73 10.52 3.6445 16.68 8.9453 19.969 17.184 2.2109 5.5352 7.8516 9.2344 14.066 9.2344h0.10156c6.1797-0.042968 11.641-3.625 13.914-9.125 3.5195-8.5 9.1953-13.492 18.988-16.688 35.863-11.707 59.957-41.918 59.957-75.168 0-20.121-8.6094-39.363-24.246-54.188-16.465-15.609-38.996-24.758-63.082-25.945 2.5898-26.582 29.797-33.262 31.02-33.543zm46.238 113.67c0 28.879-21.305 55.238-53.008 65.59-12.535 4.0898-20.531 11.211-25.164 22.414-0.71484 1.7227-2.5938 2.8867-4.6758 2.9023h-0.039063c-2.125 0-4.0117-1.1602-4.7031-2.8945-4.418-11.047-12.688-18.344-26.031-22.965-33.676-11.676-54.223-40.289-51.125-71.207 3.4297-34.277 36.488-61.758 76.891-63.914 1.7773-0.097657 3.543-0.14453 5.3047-0.14453 23.488 0 45.648 8.3633 61.449 23.344 13.609 12.902 21.102 29.547 21.102 46.875z"/>
 </g>
</svg>