<?xml version="1.0" encoding="UTF-8"?>
<!-- The Best Svg Icon site in the world: iconSvg.co, Visit us! https://iconsvg.co -->
<svg fill="#000000" width="800px" height="800px" version="1.1" viewBox="144 144 512 512" xmlns="http://www.w3.org/2000/svg">
 <g>
  <path d="m400 198.48c-78.188 0-141.8 63.609-141.8 141.8v47.789h-4.4766c-10.562 0-19.16 8.5938-19.16 19.16v24.301c0 8.8516 6.0664 16.25 14.238 18.438v24.84c0 69.867 56.852 126.72 126.73 126.72h48.934c69.879 0 126.73-56.852 126.73-126.73v-24.84c8.1719-2.1875 14.238-9.5859 14.238-18.438v-24.301c0-10.562-8.5938-19.16-19.16-19.16h-4.4766v-47.789c0-78.184-63.609-141.79-141.8-141.79zm-131.73 141.8c0-72.633 59.09-131.72 131.73-131.72 72.633 0 131.72 59.09 131.72 131.72v47.789h-23.305c-2.0547-34.211-24.609-71.48-53.785-73.797-6.4023-29.461-27.125-59.574-54.633-59.574-24.68 0-47.836 25.426-54.781 59.562-25.07 2.1914-51.645 31.625-53.645 73.809h-23.297zm79.926-16.168c24.527 0 44.5 33.828 46.555 63.957h-93.117c1.9492-34.066 23.238-63.957 46.562-63.957zm7.1758-9.2773c6.2969-28.797 24.988-50.062 44.625-50.062 21.004 0 38.508 24.781 44.48 50.133-18.242 3.8281-36.484 21.496-44.816 47.562-8.0156-23.398-24.344-43.617-44.289-47.633zm96.422 9.2773c24.523 0 44.492 33.828 46.551 63.957h-93.121c1.9492-34.066 23.242-63.957 46.57-63.957zm-27.332 267.34h-48.934c-55.906 0-102.73-39.539-114.04-92.113h43.051c2.7852 0 5.0391-2.2539 5.0391-5.0391 0-2.7852-2.2539-5.0391-5.0391-5.0391h-44.738c-0.58984-4.7422-0.92969-9.5625-0.92969-14.461v-24.117h282.24v24.117c0 4.8984-0.33984 9.7188-0.92969 14.461l-70.344 0.003906c-2.7852 0-5.0391 2.2539-5.0391 5.0391s2.2539 5.0391 5.0391 5.0391h68.652c-11.305 52.574-58.129 92.109-114.04 92.109zm130.89-184.22v24.301c0 5.0078-4.0742 9.082-9.082 9.082h-0.11719l-292.32-0.003907h-0.11719c-5.0078 0-9.082-4.0742-9.082-9.082v-24.301c0-5.0078 4.0742-9.082 9.082-9.082h292.55c5.0078 0.003906 9.082 4.0742 9.082 9.0859z"/>
  <path d="m359.84 494.3c0-2.7852-2.2539-5.0391-5.0391-5.0391h-21.781c-2.7852 0-5.0391 2.2539-5.0391 5.0391s2.2539 5.0391 5.0391 5.0391h21.781c2.7891-0.003907 5.0391-2.2539 5.0391-5.0391z"/>
  <path d="m400.03 544.11h-50.32c-2.7852 0-5.0391 2.2539-5.0391 5.0391 0 2.7852 2.2539 5.0391 5.0391 5.0391h50.32c2.7852 0 5.0391-2.2539 5.0391-5.0391 0-2.7852-2.2539-5.0391-5.0391-5.0391z"/>
  <path d="m450.29 544.11h-21.781c-2.7852 0-5.0391 2.2539-5.0391 5.0391 0 2.7852 2.2539 5.0391 5.0391 5.0391h21.781c2.7852 0 5.0391-2.2539 5.0391-5.0391 0-2.7852-2.2539-5.0391-5.0391-5.0391z"/>
 </g>
</svg>