<?xml version="1.0" encoding="UTF-8"?>
<!-- The Best Svg Icon site in the world: iconSvg.co, Visit us! https://iconsvg.co -->
<svg fill="#000000" width="800px" height="800px" version="1.1" viewBox="144 144 512 512" xmlns="http://www.w3.org/2000/svg">
 <g>
  <path d="m481.36 466.1h23.832l16.574-28.164h-56.98z"/>
  <path d="m501.06 410.58 20.656-35.016-0.050781-0.45312c-2.8203-22.723-15.516-41.211-28.414-41.211-12.848 0-25.594 18.488-28.363 41.211l-0.050781 0.45312 20.656 35.016zm-1.2578-55.219c0.30078-0.95703 0.95703-1.7617 1.8125-2.2148 0.55469-0.30078 1.1602-0.45312 1.8125-0.45312 1.3594 0 2.6719 0.75391 3.3242 2.0156 2.8203 5.2891 4.9375 11.438 6.0977 17.785 0.35156 2.0664-1.0078 4.0312-3.0742 4.3828-0.20312 0.050781-0.45312 0.050781-0.65625 0.050781-1.8633 0-3.4258-1.3086-3.7266-3.0742-1.2578-7.0547-3.5781-12.395-5.2891-15.617-0.50391-0.85938-0.60547-1.918-0.30078-2.875z"/>
  <path d="m407.91 410.38 20.555-34.812-0.050782-0.45312c-2.8203-22.727-15.57-41.215-28.414-41.215-12.848 0-25.594 18.488-28.414 41.211l-0.050782 0.45312 20.656 35.016zm-1.2109-55.02c0.30078-0.95703 0.95703-1.7617 1.8633-2.2148 0.55469-0.30078 1.1602-0.45312 1.7617-0.45312 1.4102 0 2.6719 0.75391 3.3242 2.0156 2.8711 5.2891 4.9375 11.438 6.0977 17.785 0.40625 2.0625-1.0078 4.0273-3.0195 4.3828-0.25 0.050781-0.45312 0.050781-0.70703 0.050781-1.8125 0-3.375-1.3086-3.6758-3.0742-1.3086-7.0547-3.6289-12.395-5.3398-15.617-0.45703-0.85938-0.55469-1.918-0.30469-2.875z"/>
  <path d="m294.8 466.1h23.828l16.574-28.164h-56.98z"/>
  <path d="m388.11 466.1h23.777l16.629-28.164h-57.031z"/>
  <path d="m580.97 418.14h-4.3828c-1.3086 0-2.5703-0.70703-3.2227-1.8633l-21.562-36.477h-23.781l-21.512 36.477c-0.71094 1.1562-1.918 1.8633-3.2773 1.8633h-19.902c-1.3594 0-2.5703-0.70703-3.2734-1.8633l-21.512-36.477h-23.781l-21.562 36.477c-0.65625 1.1602-1.9141 1.8633-3.2227 1.8633h-19.949c-1.3086 0-2.5703-0.70703-3.2227-1.8633l-21.562-36.477h-23.781l-21.512 36.477c-0.70703 1.1602-1.9141 1.8633-3.2734 1.8633h-19.902c-1.3594 0-2.5703-0.70703-3.2734-1.8633l-21.512-36.477h-23.781l-21.562 36.477c-0.65625 1.1602-1.9141 1.8633-3.2227 1.8633h-4.3828l-8.3633 12.242h378.66zm-302.44-6.9023c-0.25 1.0078-0.85547 1.8125-1.7148 2.3672-0.60547 0.35156-1.2578 0.50391-1.9648 0.50391-1.3086 0-2.5195-0.65625-3.2227-1.8125l-3.0742-5.1875c-0.55469-0.85547-0.70703-1.8633-0.45313-2.8711 0.25-0.95703 0.85547-1.7617 1.7109-2.3164 0.60547-0.35156 1.2578-0.50391 1.9648-0.50391 1.3086 0 2.5703 0.70703 3.2227 1.8125l3.125 5.1875c0.50391 0.85547 0.65625 1.8633 0.40625 2.8203zm93.051 0c-0.20312 1.0078-0.85547 1.8125-1.7109 2.3672-0.55469 0.35156-1.2578 0.50391-1.9141 0.50391-1.3594 0-2.5703-0.65625-3.2734-1.8125l-3.0742-5.1875c-0.50391-0.85938-0.65625-1.8672-0.45312-2.875 0.25391-0.95703 0.85547-1.7617 1.7617-2.3164 0.55469-0.35156 1.2109-0.50391 1.9141-0.50391 1.3086 0 2.5703 0.70703 3.2227 1.8125l3.125 5.1875c0.50391 0.85938 0.65625 1.8672 0.40234 2.8242zm93.105 0c-0.25 1.0078-0.85547 1.8125-1.7109 2.3672-0.60547 0.35156-1.2578 0.50391-1.9648 0.50391-1.3594 0-2.5703-0.65625-3.2227-1.8125l-3.125-5.1875c-0.50781-0.85938-0.65625-1.8672-0.40625-2.875 0.25-0.95703 0.85547-1.7617 1.7109-2.3164 0.60547-0.35156 1.2578-0.50391 1.9141-0.50391 1.3594 0 2.5703 0.65625 3.2734 1.8125l3.0781 5.1875c0.55469 0.85938 0.70703 1.8672 0.45312 2.8242zm93.055 0c-0.25 1.0078-0.85547 1.8125-1.7148 2.3672-0.60547 0.35156-1.2578 0.50391-1.9648 0.50391-1.3086 0-2.5195-0.65625-3.2227-1.8125l-3.0742-5.1875c-0.55469-0.85547-0.70703-1.8633-0.45312-2.8711 0.25-0.95703 0.85547-1.7617 1.7148-2.3164 0.60547-0.35156 1.2578-0.50391 1.9648-0.50391 1.3086 0 2.5195 0.65625 3.2227 1.8125l3.125 5.1875c0.50391 0.85547 0.65234 1.8633 0.40234 2.8203z"/>
  <path d="m314.65 410.38 20.504-34.812-0.050781-0.45312c-2.7695-22.723-15.516-41.211-28.363-41.211-12.898 0-25.594 18.488-28.414 41.211l-0.050781 0.45312 20.656 35.016zm-1.0078-55.02c0.30078-0.95703 0.95703-1.7617 1.8633-2.2148 0.55469-0.30078 1.1602-0.45312 1.7617-0.45312 1.4102 0 2.6719 0.75391 3.3242 2.0156 2.8203 5.2891 4.9375 11.438 6.0977 17.785 0.35156 2.0664-1.0078 4.0312-3.0742 4.3828-0.19922 0.050781-0.44922 0.050781-0.65234 0.050781-1.8125 0-3.375-1.3086-3.7266-3.0742-1.2578-7.0547-3.5781-12.395-5.2891-15.617-0.50391-0.85938-0.60547-1.918-0.30469-2.875z"/>
 </g>
</svg>