<?xml version="1.0" encoding="UTF-8"?>
<!-- The Best Svg Icon site in the world: iconSvg.co, Visit us! https://iconsvg.co -->
<svg fill="#000000" width="800px" height="800px" version="1.1" viewBox="144 144 512 512" xmlns="http://www.w3.org/2000/svg">
 <g>
  <path d="m385.38 505.86c-18.078 0-55.223-3.1289-78.523-26.688-1.2031 5.5625-6.2773 17.871-27.562 21.125l-1.0391 0.15625-0.34375-0.99219c-0.28906-0.82813-6.6406-20.398 17.617-43.18 0.55469-5.6172 5.7734-59.66 4.9883-84.758 0.78125-20.34-4.332-63.777-4.9609-69.059-24.348-18.711-17.895-34.91-17.609-35.594l0.37109-0.875 0.94531 0.11719c21.398 2.6758 26.43 12.621 27.613 17.297 31.523-26.094 88.48-21.543 89.059-21.496l-0.003906 0.085938c6.8203-0.67188 57.453-3.5469 86.906 21.375 1.168-4.6836 6.125-14.59 27.023-17.262l0.95312-0.12109 0.36719 0.89062c0.28125 0.68359 6.5898 16.871-17.23 35.578-0.62109 5.2539-5.6172 48.715-4.8633 68.977-0.76563 25.184 4.3438 79.258 4.8828 84.852 23.73 22.777 17.516 42.34 17.242 43.168l-0.33594 1.0039-1.0547-0.16016c-20.789-3.2539-25.781-15.508-26.973-21.09-30.145 31.086-83.898 26.555-87.023 26.25-0.78125 0.070312-4.6328 0.39844-10.445 0.39844zm10.309-2.918 0.125 1.2031 0.13281-1.2031c0.5625 0.082032 57.234 5.7031 86.836-27.367l2.1797-2.4297 0.019531 3.2656c0.003906 0.70703 0.37891 16.992 24.086 21.211 0.87109-4.2539 2.6602-20.984-17.18-39.832l-0.33594-0.32422-0.050781-0.46875c-0.054688-0.58594-5.7422-59.031-4.9336-85.551-0.8125-21.594 4.8828-69.324 4.9375-69.805l0.066406-0.52344 0.41406-0.32422c19.773-15.324 18.078-28.5 17.148-32.043-23.723 3.4023-24.148 16.523-24.152 17.094l-0.03125 2.8125-2.0742-1.8906c-29.684-27.055-86.383-22.398-86.941-22.348-0.80469-0.050781-58.82-4.6641-89.117 22.359l-2.1016 1.875v-2.8164c-0.003906-0.55859-0.44141-13.695-24.742-17.09-0.94531 3.5234-2.6992 16.695 17.523 32.039l0.42188 0.32422 0.066406 0.52734c0.058594 0.48047 5.8789 48.215 5.0469 69.898 0.83203 26.43-4.9883 84.875-5.043 85.465l-0.046875 0.47266-0.34766 0.32422c-20.375 18.934-18.465 35.621-17.562 39.824 24.289-4.207 24.676-20.512 24.68-21.215l0.019531-3.2148 2.1719 2.3672c30.266 33.086 88.195 27.449 88.785 27.383z"/>
  <path d="m468.44 412.7h-147.79v-71.023h147.79zm-145.27-2.5195h142.75v-65.984h-142.75z"/>
  <path d="m355.51 364.34h76.414v2.5195h-76.414z"/>
  <path d="m337.88 380.96h112.52v2.5195h-112.52z"/>
 </g>
</svg>