<?xml version="1.0" encoding="UTF-8"?>
<!-- The Best Svg Icon site in the world: iconSvg.co, Visit us! https://iconsvg.co -->
<svg fill="#000000" width="800px" height="800px" version="1.1" viewBox="144 144 512 512" xmlns="http://www.w3.org/2000/svg">
 <path d="m265.48 240.98c0-29.852 49.422-52.348 114.93-52.348 65.516-0.003907 114.99 22.434 114.99 52.348 0 21.254-24.586 39.07-65.77 47.57-0.51953 0.10547-1.0469 0.15625-1.5742 0.15625-4.0312-0.015626-7.3984-3.0703-7.8008-7.0781-0.40625-4.0117 2.2812-7.6797 6.2266-8.5 31.34-6.4727 53.215-19.68 53.215-32.148 0-17.277-42.43-36.605-99.188-36.605-56.758 0-99.188 19.324-99.188 36.605 0.57031 5.4609 3.5117 10.395 8.0352 13.5 3.2617 2.8281 3.6406 7.7539 0.84375 11.043-2.7969 3.293-7.7188 3.7148-11.035 0.95312-8.2031-5.9727-13.238-15.359-13.684-25.496zm160.84-20.168c1.207-4.1562-1.1641-8.5117-5.3164-9.7461-13.195-3.7109-26.855-5.5312-40.562-5.4102-36.77 0-73.996 12.129-73.996 35.328s37.219 35.328 73.996 35.328v0.003906c4.3477 0 7.8711-3.5234 7.8711-7.8711 0-4.3477-3.5234-7.8711-7.8711-7.8711-35.016 0-58.254-11.809-58.254-19.586 0-7.7773 23.23-19.586 58.254-19.586 12.195-0.125 24.348 1.4805 36.094 4.7617 2.0078 0.59375 4.168 0.35938 6.0039-0.64453 1.8359-1.0039 3.1953-2.6992 3.7812-4.707zm182.77 111.62-68.297 68.297-0.003906 158.27c0 16.27-11.809 31.055-31.789 42.918l0.003907 0.003906c-0.91406 0.92188-2.0469 1.5977-3.293 1.9648-26.371 13.305-55.039 21.461-84.465 24.035-0.125 0-0.22656 0.070312-0.35547 0.070312h-0.09375c-13.391 1.5039-26.855 2.2617-40.328 2.2734-37.145 0.6875-74.086-5.6289-108.89-18.617-0.77734-0.17578-1.5195-0.47266-2.2031-0.87891-30.449-12.887-49.254-31.125-49.254-51.711l-0.003906-318.09c0-39.926 70.43-71.211 160.35-71.211s160.35 31.285 160.35 71.211v86.594l43.496-43.496c1.9023-1.8984 4.6367-2.6992 7.2617-2.1211 2.6211 0.57422 4.7695 2.4492 5.6992 4.9727l13.664 37.289c1.0234 2.8672 0.30469 6.0664-1.8516 8.2188zm-373.26-91.457c0 26.23 59.379 55.465 144.61 55.465 85.23 0 144.61-29.238 144.61-55.465 0-26.23-59.387-55.5-144.61-55.5-85.223 0-144.61 29.23-144.61 55.5zm289.22 31.086c-8.7969 7.8828-18.812 14.289-29.656 18.973v164.06c0 4.3477-3.5234 7.875-7.8711 7.875s-7.8711-3.5273-7.8711-7.875v-157.9c-32.027 10.348-65.531 15.402-99.188 14.957-17.008 0.015625-33.992-1.1758-50.832-3.5742v170.14c0 4.3477-3.5234 7.8711-7.8711 7.8711s-7.8711-3.5234-7.8711-7.8711v-172.82c-19.949-3.5938-39.27-10.078-57.348-19.254v85.176c0 4.3477-3.5234 7.8711-7.8711 7.8711-4.3477 0-7.875-3.5234-7.875-7.8711v-95.41c-1.7773-1.4102-3.4023-2.8594-4.9688-4.3281l0.003907 286.93c0 11.148 10.793 22.828 29.645 32.559v-102.15c0-4.3477 3.5234-7.875 7.8711-7.875 4.3477 0 7.875 3.5273 7.875 7.875v109.11c31.859 11.137 65.441 16.547 99.188 15.98 11.352 0 22.199-0.55078 32.551-1.5117v-197.78c0-4.3477 3.5234-7.8711 7.8711-7.8711 4.3477 0 7.8711 3.5234 7.8711 7.8711v195.9c23.164-2.8398 45.707-9.4492 66.738-19.562v-71.121c0-4.3477 3.5273-7.8711 7.875-7.8711 4.3477 0 7.8711 3.5234 7.8711 7.8711v61c7.7188-5.0508 12.797-13.266 13.863-22.43zm69.383 52.797-7.6914-20.996-11.367 11.359-7.4531 30.188v0.003906c-0.46094 2.0664-1.7383 3.8633-3.5391 4.9805-1.8008 1.1133-3.9766 1.457-6.0352 0.94922-2.0586-0.51172-3.8242-1.8281-4.8984-3.6523-1.0703-1.8281-1.3633-4.0117-0.80859-6.0547l1.2031-4.8711-13.012 13.012v28.695z"/>
</svg>