<?xml version="1.0" encoding="UTF-8"?>
<!-- The Best Svg Icon site in the world: iconSvg.co, Visit us! https://iconsvg.co -->
<svg fill="#000000" width="800px" height="800px" version="1.1" viewBox="144 144 512 512" xmlns="http://www.w3.org/2000/svg">
 <path d="m578.43 494.46c13.922 0 27.27-5.5273 37.109-15.371 9.8438-9.8398 15.371-23.188 15.371-37.105 0-2.7852-1.1055-5.457-3.0742-7.4219-1.9688-1.9688-4.6367-3.0742-7.4219-3.0742h-31.488c-7.3984 0.03125-14.652 2.0586-20.992 5.875v-26.867h10.496c13.922 0 27.27-5.5312 37.109-15.371 9.8438-9.8438 15.371-23.191 15.371-37.109 0-2.7852-1.1055-5.4531-3.0742-7.4219s-4.6367-3.0742-7.4219-3.0742h-31.488c-7.3984 0.03125-14.652 2.0625-20.992 5.875v-18.262c6.125-2.1641 11.43-6.1719 15.191-11.473 3.7578-5.2969 5.7852-11.629 5.8008-18.125 0-24.664-21.621-46.918-24.035-49.438-1.9688-1.9883-4.6523-3.1055-7.4531-3.1055-2.7969 0-5.4805 1.1172-7.4492 3.1055-2.4141 2.5195-24.039 24.77-24.039 49.438 0.019531 6.4961 2.0469 12.828 5.8047 18.125 3.7578 5.3008 9.0625 9.3086 15.188 11.473v18.262c-6.3398-3.8125-13.59-5.8438-20.992-5.875h-31.488c-5.7969 0-10.496 4.6992-10.496 10.496 0 13.918 5.5312 27.266 15.371 37.109 9.8438 9.8398 23.191 15.371 37.109 15.371h10.496v26.871-0.003907c-6.3398-3.8164-13.59-5.8438-20.992-5.875h-31.488c-5.7969 0-10.496 4.6992-10.496 10.496 0 13.918 5.5312 27.266 15.371 37.105 9.8438 9.8438 23.191 15.371 37.109 15.371h10.496v31.488h-136.45v-31.488h10.496c13.918 0 27.266-5.5273 37.109-15.371 9.8398-9.8398 15.371-23.188 15.371-37.105 0-2.7852-1.1094-5.457-3.0742-7.4219-1.9688-1.9688-4.6406-3.0742-7.4219-3.0742h-31.488c-7.4023 0.03125-14.652 2.0586-20.992 5.875v-26.867h10.496c13.918 0 27.266-5.5312 37.109-15.371 9.8398-9.8438 15.371-23.191 15.371-37.109 0-2.7852-1.1094-5.4531-3.0742-7.4219-1.9688-1.9688-4.6406-3.0742-7.4219-3.0742h-31.488c-7.4023 0.03125-14.652 2.0625-20.992 5.875v-18.262c6.125-2.1641 11.43-6.1719 15.188-11.473 3.7578-5.2969 5.7852-11.629 5.8047-18.125 0-24.664-21.621-46.918-24.035-49.438h-0.003906c-1.9688-1.9883-4.6523-3.1055-7.4492-3.1055-2.8008 0-5.4844 1.1172-7.4531 3.1055-2.4141 2.5195-24.035 24.77-24.035 49.438 0.015625 6.4961 2.043 12.828 5.8008 18.125 3.7617 5.3008 9.0664 9.3086 15.191 11.473v18.262c-6.3398-3.8125-13.594-5.8438-20.992-5.875h-31.488c-5.7969 0-10.496 4.6992-10.496 10.496 0 13.918 5.5273 27.266 15.371 37.109 9.8398 9.8398 23.188 15.371 37.109 15.371h10.496v26.871-0.003907c-6.3398-3.8164-13.594-5.8438-20.992-5.875h-31.488c-5.7969 0-10.496 4.6992-10.496 10.496 0 13.918 5.5273 27.266 15.371 37.105 9.8398 9.8438 23.188 15.371 37.109 15.371h10.496v31.488h-136.45v-31.488h10.496c13.918 0 27.266-5.5273 37.109-15.371 9.8398-9.8398 15.371-23.188 15.371-37.105 0-2.7852-1.1055-5.457-3.0742-7.4219-1.9688-1.9688-4.6406-3.0742-7.4219-3.0742h-31.488c-7.3984 0.03125-14.652 2.0586-20.992 5.875v-26.867h10.496c13.918 0 27.266-5.5312 37.109-15.371 9.8398-9.8438 15.371-23.191 15.371-37.109 0-2.7852-1.1055-5.4531-3.0742-7.4219s-4.6406-3.0742-7.4219-3.0742h-31.488c-7.3984 0.03125-14.652 2.0625-20.992 5.875v-18.262c6.125-2.1641 11.43-6.1719 15.188-11.473 3.7578-5.2969 5.7852-11.629 5.8047-18.125 0-24.664-21.621-46.918-24.035-49.438-1.9727-1.9883-4.6562-3.1055-7.4531-3.1055-2.8008 0-5.4805 1.1172-7.4531 3.1055-2.4141 2.5195-24.035 24.77-24.035 49.438 0.019532 6.4961 2.0469 12.828 5.8047 18.125 3.7578 5.3008 9.0625 9.3086 15.188 11.473v18.262c-6.3398-3.8125-13.594-5.8438-20.992-5.875h-31.488c-5.7969 0-10.496 4.6992-10.496 10.496 0 13.918 5.5273 27.266 15.371 37.109 9.8438 9.8398 23.191 15.371 37.109 15.371h10.496v26.871-0.003907c-6.3398-3.8164-13.594-5.8438-20.992-5.875h-31.488c-5.7969 0-10.496 4.6992-10.496 10.496 0 13.918 5.5273 27.266 15.371 37.105 9.8438 9.8438 23.191 15.371 37.109 15.371h10.496v31.488h-41.984c-5.7969 0-10.496 4.6992-10.496 10.496 0 5.7969 4.6992 10.496 10.496 10.496h419.84c5.7969 0 10.496-4.6992 10.496-10.496 0-5.7969-4.6992-10.496-10.496-10.496h-41.984v-31.488zm-146.94-41.98h19.207c-2.1719 6.1406-6.1953 11.457-11.516 15.219-5.3203 3.7578-11.676 5.7734-18.188 5.7734h-10.496c0-5.5703 2.2109-10.91 6.1484-14.844 3.9336-3.9375 9.2734-6.1484 14.844-6.1484zm0-83.969h19.207c-2.1719 6.1406-6.1953 11.457-11.516 15.219-5.3203 3.7578-11.676 5.7773-18.188 5.7734h-10.496c0-5.5703 2.2109-10.91 6.1484-14.844 3.9336-3.9375 9.2734-6.1484 14.844-6.1484zm-31.488-88.586c5.8984 7.3398 9.5469 16.234 10.496 25.609 0 5.7969-4.6992 10.496-10.496 10.496s-10.496-4.6992-10.496-10.496c0.94531-9.375 4.5938-18.27 10.496-25.609zm-50.699 88.586h19.211c5.5664 0 10.906 2.2109 14.844 6.1484 3.9336 3.9336 6.1484 9.2734 6.1484 14.844h-10.496c-6.5156 0.003906-12.871-2.0156-18.191-5.7734-5.3203-3.7617-9.3438-9.0781-11.516-15.219zm0 83.969h19.211c5.5664 0 10.906 2.2109 14.844 6.1484 3.9336 3.9336 6.1484 9.2734 6.1484 14.844h-10.496c-6.5156 0-12.871-2.0156-18.191-5.7734-5.3203-3.7617-9.3438-9.0781-11.516-15.219zm-75.254 0h19.207c-2.1719 6.1406-6.1953 11.457-11.516 15.219-5.3203 3.7578-11.672 5.7734-18.188 5.7734h-10.496c0-5.5703 2.2109-10.91 6.1484-14.844 3.9375-3.9375 9.2773-6.1484 14.844-6.1484zm0-83.969h19.207c-2.1719 6.1406-6.1953 11.457-11.516 15.219-5.3203 3.7578-11.672 5.7773-18.188 5.7734h-10.496c0-5.5703 2.2109-10.91 6.1484-14.844 3.9375-3.9375 9.2773-6.1484 14.844-6.1484zm-31.488-88.586c5.9023 7.3398 9.5469 16.234 10.496 25.609 0 5.7969-4.6992 10.496-10.496 10.496s-10.496-4.6992-10.496-10.496c0.94922-9.375 4.5938-18.27 10.496-25.609zm-50.695 88.586h19.207c5.5664 0 10.906 2.2109 14.844 6.1484 3.9375 3.9336 6.1484 9.2734 6.1484 14.844h-10.496c-6.5156 0.003906-12.871-2.0156-18.191-5.7734-5.3203-3.7617-9.3398-9.0781-11.512-15.219zm0 83.969h19.207c5.5664 0 10.906 2.2109 14.844 6.1484 3.9375 3.9336 6.1484 9.2734 6.1484 14.844h-10.496c-6.5156 0-12.871-2.0156-18.191-5.7734-5.3203-3.7617-9.3398-9.0781-11.512-15.219zm397.06 0h19.211c-2.1719 6.1406-6.1953 11.457-11.516 15.219-5.3203 3.7578-11.676 5.7734-18.191 5.7734h-10.496c0-5.5703 2.2148-10.91 6.1484-14.844 3.9375-3.9375 9.2773-6.1484 14.844-6.1484zm0-83.969h19.211c-2.1719 6.1406-6.1953 11.457-11.516 15.219-5.3203 3.7578-11.676 5.7773-18.191 5.7734h-10.496c0-5.5703 2.2148-10.91 6.1484-14.844 3.9375-3.9375 9.2773-6.1484 14.844-6.1484zm-31.488-88.586c5.9023 7.3398 9.5508 16.234 10.496 25.609 0 5.7969-4.6992 10.496-10.496 10.496s-10.496-4.6992-10.496-10.496c0.94922-9.375 4.5977-18.27 10.496-25.609zm-50.695 88.586h19.207c5.5703 0 10.91 2.2109 14.844 6.1484 3.9375 3.9336 6.1484 9.2734 6.1484 14.844h-10.496c-6.5117 0.003906-12.867-2.0156-18.188-5.7734-5.3203-3.7617-9.3438-9.0781-11.516-15.219zm0 83.969h19.207c5.5703 0 10.91 2.2109 14.844 6.1484 3.9375 3.9336 6.1484 9.2734 6.1484 14.844h-10.496c-6.5117 0-12.867-2.0156-18.188-5.7734-5.3203-3.7617-9.3438-9.0781-11.516-15.219z"/>
</svg>