<?xml version="1.0" encoding="UTF-8"?>
<!-- The Best Svg Icon site in the world: iconSvg.co, Visit us! https://iconsvg.co -->
<svg fill="#000000" width="800px" height="800px" version="1.1" viewBox="144 144 512 512" xmlns="http://www.w3.org/2000/svg">
 <g>
  <path d="m555.95 364.24-11.848 10.375-2.0625-39.168c6.9609-2.5938 12.293-8.3125 14.391-15.438 2.0938-7.125 0.71094-14.824-3.7422-20.77-4.4492-5.9492-11.441-9.4531-18.867-9.4531h-204.68c-7.4258 0-14.418 3.5039-18.867 9.4531-4.4492 5.9453-5.8359 13.645-3.7383 20.77 2.0938 7.125 7.4258 12.844 14.391 15.438l-7.3672 140.12-39.52-39.469v-20.359c0-2.0859-0.83203-4.0898-2.3086-5.5664l-15.742-15.742c-3.0742-3.0742-8.0586-3.0742-11.133 0l-55.105 55.105h0.003907c-3.0742 3.0703-3.0742 8.0547 0 11.129l15.742 15.742v0.003906c1.4766 1.4727 3.4766 2.3047 5.5664 2.3047h20.355l77.871 77.879-1.5742 29.852c-0.67969 12.938 3.9844 25.59 12.906 34.992 8.9219 9.3984 21.312 14.719 34.27 14.719h153.18c12.957 0 25.348-5.3203 34.27-14.719 8.9219-9.4023 13.586-22.055 12.906-34.992l-1.1562-21.875 59.551-160.64c1.4609-4.0156 2.207-8.2578 2.2031-12.531 0.03125-9.5898-3.7734-18.793-10.57-25.559-6.5117-6.4297-15.207-10.164-24.352-10.461-9.1406-0.29297-18.062 2.8672-24.973 8.8594zm-28.355-3.6055h-192.22l1.2422-23.617h189.71zm-198.45-55.102h204.68c4.3477 0 7.8711 3.5234 7.8711 7.8711s-3.5234 7.8711-7.8711 7.8711h-204.68c-4.3477 0-7.8711-3.5234-7.8711-7.8711s3.5234-7.8711 7.8711-7.8711zm-122.69 149.57 43.973-43.973 7.8711 7.8711v17.098l-26.875 26.879h-17.098zm39.359 15.742 20.359-20.355 48.75 48.75v0.003907c2.1953 2.1992 5.4844 2.8984 8.3867 1.7852 2.9023-1.1133 4.8789-3.8281 5.043-6.9336l6.1953-117.71h193.87l9.8398 187v0.19531l0.92969 17.477h-215.41l1.4258-27.137v0.003906c0.11719-2.2305-0.71875-4.4062-2.3008-5.9844zm262.26 149.57h-153.18c-6.9727 0.046876-13.762-2.2617-19.266-6.5469-5.5078-4.2812-9.4102-10.297-11.078-17.066h213.87c-1.6719 6.7695-5.5742 12.785-11.082 17.066-5.5039 4.2852-12.289 6.5938-19.266 6.5469zm90.797-221.89-46.863 126.39-6.8555-130.28 21.145-18.516c3.8984-3.3867 8.9336-5.1797 14.094-5.0156 5.1641 0.16016 10.074 2.2656 13.754 5.8906 3.8359 3.8203 5.9805 9.0156 5.9609 14.43 0.003906 2.4219-0.41406 4.8242-1.2344 7.1016z"/>
  <path d="m431.49 541.7c12.52-0.011718 24.527-4.9922 33.383-13.848 8.8555-8.8555 13.836-20.863 13.848-33.387 0-42.652-40.59-75.57-42.312-76.996-2.875-2.3008-6.9648-2.3008-9.8398 0-1.7227 1.4258-42.312 34.348-42.312 76.996 0.011719 12.523 4.9922 24.531 13.848 33.387 8.8555 8.8555 20.863 13.836 33.387 13.848zm0-107.52c9.9492 9.5 31.488 33.211 31.488 60.285v-0.003906c0 11.25-6.0039 21.648-15.746 27.27-9.7422 5.625-21.746 5.625-31.488 0-9.7422-5.6211-15.742-16.02-15.742-27.27 0-27.07 21.535-50.781 31.488-60.281z"/>
  <path d="m360.64 258.3h125.95v15.742h-125.95z"/>
  <path d="m502.34 258.3h15.742v15.742h-15.742z"/>
 </g>
</svg>