<?xml version="1.0" encoding="UTF-8"?>
<!-- The Best Svg Icon site in the world: iconSvg.co, Visit us! https://iconsvg.co -->
<svg fill="#000000" width="800px" height="800px" version="1.1" viewBox="144 144 512 512" xmlns="http://www.w3.org/2000/svg">
 <path d="m532.5 412.59v-77.586c0-72.043-58.441-130.49-130.49-130.49-72.043 0-130.99 58.441-130.99 130.49v77.586c-9.5742 0-17.129 8.0625-17.129 17.633v2.0156c0 9.5742 7.5586 17.129 17.129 17.633v30.734c0 60.961 49.375 110.34 110.34 110.34h40.809c60.961 0 110.34-49.375 110.34-110.34v-30.73c9.5742 0 17.129-8.0625 17.129-17.633l-0.003906-2.0195c0.50391-9.5703-7.5547-17.633-17.129-17.633zm-130.48-198c66.504 0 120.41 53.906 120.41 120.41v77.082h-22.168l1.5117-24.688c1.0078-7.5586-1.5117-15.113-7.0547-21.16-4.0312-4.5352-9.5742-7.5586-15.113-8.5664v-4.5352c4.5352-2.5195 15.113-9.0703 24.688-14.609 2.5195-1.5117 3.0234-4.5352 2.0156-7.0547-1.5117-2.5195-4.5352-3.0234-7.0547-2.0156-9.0703 5.0391-15.113 9.0703-19.648 11.586v-11.582c4.0312-2.5195 13.098-7.5586 21.664-12.594 2.5195-1.5117 3.0234-4.5352 2.0156-7.0547-1.5117-2.5195-4.5352-3.0234-7.0547-2.0156-7.5586 4.0312-12.594 7.5586-16.625 9.5742v-12.594c3.0234-2.0156 9.5742-5.543 15.113-9.0703 2.5195-1.5117 3.0234-4.5352 2.0156-7.0547-1.5117-2.5195-4.5352-3.0234-7.0547-2.0156-4.0312 2.5195-7.5586 4.5352-10.078 6.0469v-8.0625c0-3.0234-2.0156-5.0391-5.0391-5.0391-3.0234 0-5.0391 2.0156-5.0391 5.0391v8.0625c-2.5195-1.5117-6.0469-3.5273-10.078-6.0469-2.5195-1.5117-5.543-0.50391-7.0547 2.0156s-0.50391 5.543 2.0156 7.0547c5.543 3.5273 11.586 7.0547 15.113 9.0703v12.594c-4.0312-2.5195-9.0703-5.543-16.121-9.5742-2.5195-1.5117-5.543-0.50391-7.0547 2.0156-1.5117 2.5195-0.50391 5.543 2.0156 7.0547 8.0625 4.5352 17.129 10.078 21.16 12.594v12.594c-4.5352-2.5195-10.578-6.0469-19.648-11.586-2.5195-1.5117-5.543-0.50391-7.0547 2.0156s-0.50391 5.543 2.0156 7.0547c9.5742 5.543 20.152 11.586 24.688 14.609v4.5352c-6.0469 1.0078-11.082 4.0312-15.113 8.5664-5.0391 5.543-7.5586 13.602-7.0547 20.656l1.5117 24.688h-21.16l1.5117-24.688c1.0078-7.5586-1.5117-15.113-7.0547-21.16-4.0312-4.5352-9.5742-7.5586-15.113-8.5664v-4.5352c4.5352-2.5195 15.113-9.0703 24.688-14.609 2.5195-1.5117 3.0234-4.5352 2.0156-7.0547-1.5117-2.5195-4.5352-3.0234-7.0547-2.0156-9.0703 5.0391-15.113 9.0703-19.648 11.586l0.007812-12.09c4.0312-2.5195 13.098-7.5586 21.664-12.594 2.5195-1.5117 3.0234-4.5352 2.0156-7.0547-1.5117-2.5195-4.5352-3.0234-7.0547-2.0156-7.5586 4.0312-12.594 7.5586-16.625 9.5742v-12.594c3.0234-2.0156 9.5742-5.543 15.113-9.0703 2.5195-1.5117 3.0234-4.5352 2.0156-7.0547-1.5117-2.5195-4.5352-3.0234-7.0547-2.0156-4.0312 2.5195-7.5586 4.5352-10.078 6.0469v-8.0625c0-3.0234-2.0156-5.0391-5.0391-5.0391-3.0234 0-5.0391 2.0156-5.0391 5.0391v8.0625c-2.5195-1.5117-6.0469-3.5273-10.078-6.0469-2.5195-1.5117-5.543-0.50391-7.0547 2.0156-1.5117 2.5195-0.50391 5.543 2.0156 7.0547 5.543 3.5273 11.586 7.0547 15.113 9.0703v12.594c-4.0312-2.5195-9.0703-5.543-16.121-9.5742-2.5195-1.5117-5.543-0.50391-7.0547 2.0156-1.5117 2.5195-0.50391 5.543 2.0156 7.0547 8.0625 4.5352 17.129 10.078 21.16 12.594v12.594c-4.5352-2.5195-10.578-6.0469-19.648-11.586-2.5195-1.5117-5.543-0.50391-7.0547 2.0156s-0.50391 5.543 2.0156 7.0547c9.5742 5.543 20.152 11.586 24.688 14.609v4.5352c-6.0469 1.0078-11.082 4.0312-15.113 8.5664-5.0391 5.543-7.5586 13.602-7.0547 20.656l1.5117 24.688h-21.16l1.5117-24.688c1.0078-7.5586-1.5117-15.113-7.0547-21.16-4.0312-4.5352-9.5742-7.5586-15.113-8.5664v-4.5352c4.5352-2.5195 15.113-9.0703 24.688-14.609 2.5195-1.5117 3.0234-4.5352 2.0156-7.0547-1.5117-2.5195-4.5352-3.0234-7.0547-2.0156-9.0703 5.0391-15.113 9.0703-19.648 11.586l0.011718-12.09c4.0312-2.5195 13.098-7.5586 21.664-12.594 2.5195-1.5117 3.0234-4.5352 2.0156-7.0547-1.5117-2.5195-4.5352-3.0234-7.0547-2.0156-7.5586 4.0312-12.594 7.5586-16.625 9.5742v-12.594c3.0234-2.0156 9.5742-5.543 15.113-9.0703 2.5195-1.5117 3.0234-4.5352 2.0156-7.0547-1.5117-2.5195-4.5352-3.0234-7.0547-2.0156-4.0312 2.5195-7.5586 4.5352-10.078 6.0469v-8.0625c0-3.0234-2.0156-5.0391-5.0391-5.0391-3.0234 0-5.0391 2.0156-5.0391 5.0391v8.0625c-2.5195-1.5117-6.0469-3.5273-10.078-6.0469-2.5195-1.5117-5.543-0.50391-7.0547 2.0156-1.5117 2.5195-0.50391 5.543 2.0156 7.0547 5.543 3.5273 11.586 7.0547 15.113 9.0703v12.594c-4.0312-2.5195-9.0703-5.543-16.121-9.5742-2.5195-1.5117-5.543-0.50391-7.0547 2.0156-1.5117 2.5195-0.50391 5.543 2.0156 7.0547 8.0625 4.5352 17.129 10.078 21.16 12.594v12.594c-4.5352-2.5195-10.578-6.0469-19.648-11.586-2.5195-1.5117-5.543-0.50391-7.0547 2.0156-1.5117 2.5195-0.50391 5.543 2.0156 7.0547 9.5742 5.543 20.152 11.586 24.688 14.609v4.5352c-6.0469 1.0078-11.082 4.0312-15.113 8.5664-5.0391 5.543-7.5586 13.602-7.0547 20.656l1.5117 24.688h-22.672l0.007812-77.59c0-66.504 54.414-120.41 120.92-120.41zm72.547 153.16c5.0391 0 9.5742 2.0156 12.594 5.543 3.0234 3.5273 4.5352 8.0625 4.5352 12.594h-34.258c-0.50391-4.5352 1.0078-9.0703 4.5352-12.594 3.0195-3.5273 7.5547-5.543 12.594-5.543zm-15.617 44.84-1.0078-16.121h33.25l-1.0078 16.121zm-56.93-44.84c5.0391 0 9.5742 2.0156 12.594 5.543 3.0234 3.5273 4.5352 8.0625 4.5352 12.594h-34.262c-0.50391-4.5352 1.0078-9.0703 4.5352-12.594 3.0234-3.5273 7.5586-5.543 12.598-5.543zm-15.117 44.84-1.0078-16.121h33.25l-1.0078 16.121zm-57.434-44.84c5.0391 0 9.5742 2.0156 12.594 5.543 3.0234 3.5273 4.5352 8.0625 4.5352 12.594h-34.258c-0.50391-4.5352 1.0078-9.0703 4.5352-12.594 3.5273-3.5273 8.0586-5.543 12.594-5.543zm-15.113 44.84-1.0078-16.121h33.25l-1.0078 16.121zm107.82 168.27h-40.809c-55.418 0-100.26-44.84-100.26-100.26v-30.73h241.32v30.73c0 55.418-44.84 100.26-100.26 100.26zm117.89-148.62c0 4.0312-3.5273 7.5586-7.5586 7.5586h-260.97c-4.0312 0-7.5586-3.5273-7.5586-7.5586v-2.0156c0-4.0312 3.5273-7.5586 7.5586-7.5586h260.47c4.0312 0 7.5586 3.5273 7.5586 7.5586v2.0156z"/>
</svg>