<?xml version="1.0" encoding="UTF-8"?>
<!-- The Best Svg Icon site in the world: iconSvg.co, Visit us! https://iconsvg.co -->
<svg fill="#000000" width="800px" height="800px" version="1.1" viewBox="144 144 512 512" xmlns="http://www.w3.org/2000/svg">
 <path d="m542.21 347.3c2.7812 0 5.0391-2.2539 5.0391-5.0391v-27.07h49.234c2.3047 0 4.3164-1.5664 4.8828-3.7969 0.56641-2.2344-0.45703-4.5703-2.4805-5.668l-196.48-106.64c-1.5-0.81641-3.3047-0.81641-4.8086 0l-196.48 106.64c-2.0234 1.0977-3.0469 3.4336-2.4805 5.668 0.57031 2.2344 2.5781 3.7969 4.8828 3.7969h49.238v27.07c0 2.7852 2.2539 5.0391 5.0391 5.0391h4.8047v86.867h-4.8047c-2.7812 0-5.0391 2.2539-5.0391 5.0391v30.199c0 2.7852 2.2539 5.0391 5.0391 5.0391h4.8047v86.805h-4.8047c-2.7812 0-5.0391 2.2539-5.0391 5.0391v30.195c0 2.7852 2.2539 5.0391 5.0391 5.0391h284.42c2.7812 0 5.0391-2.2539 5.0391-5.0391v-30.199c0-2.7852-2.2539-5.0391-5.0391-5.0391h-4.6211v-86.805h4.6211c2.7812 0 5.0391-2.2539 5.0391-5.0391v-30.199c0-2.7852-2.2539-5.0391-5.0391-5.0391h-4.6211v-86.863zm-142.21-138.05 176.64 95.871h-353.28zm137.17 105.95v22.031h-274.35v-22.031zm0 129.05v20.121h-274.35v-20.121zm-235.43 117v-38.332h196.7v38.332zm196.7-48.406h-196.7v-38.395h196.7zm-196.7-78.672v-38.395h196.7v38.395zm196.7-48.473h-196.7v-38.395h196.7zm-225.77-38.395h18.992v86.867h-18.992zm0 127.14h18.992v86.805h-18.992zm264.5 117h-274.35v-20.121h274.34zm-9.6602-30.199h-18.992v-86.805h18.992zm0-127.08h-18.992v-86.867h18.992z"/>
</svg>