<?xml version="1.0" encoding="UTF-8"?>
<!-- The Best Svg Icon site in the world: iconSvg.co, Visit us! https://iconsvg.co -->
<svg fill="#000000" width="800px" height="800px" version="1.1" viewBox="144 144 512 512" xmlns="http://www.w3.org/2000/svg">
 <path d="m596.95 382.48h-7.4609c-1.457-27.402-19.914-50.387-45.168-58.793l8.4844-8.4766c4.7031 3.2266 10.164 4.8867 15.648 4.8867 7.0898 0 14.18-2.6953 19.578-8.082 18.066-18.051 11.996-45.855 11.723-47.031-0.39062-1.7227-1.6523-3.1133-3.332-3.668-1.1055-0.35547-27.254-8.6875-47.539 11.586-5.2344 5.2227-8.1172 12.168-8.1172 19.555 0 5.6758 1.7344 11.07 4.8906 15.645l-12.887 12.883c-0.44141-0.0625-0.87891-0.14453-1.3203-0.19922-2.1523-32.664-28.496-58.848-61.484-61.195-2.4141-34.09-31.176-61.109-66.266-61.109-35.09 0-63.852 27.023-66.266 61.109-32.82 2.3359-59.07 28.262-61.457 60.695-2.9844 0.058594-5.9062 0.33984-8.7812 0.77734l-12.977-12.961c3.1602-4.5703 4.8945-9.9688 4.8945-15.645 0-7.3867-2.8828-14.332-8.1172-19.555h0.003906c-20.305-20.273-46.434-11.941-47.543-11.586-1.6758 0.55469-2.9414 1.9453-3.332 3.6641-0.26953 1.1758-6.3477 28.984 11.73 47.031 5.3984 5.3906 12.48 8.082 19.57 8.082 5.4883 0 10.949-1.6562 15.648-4.8867l8.6445 8.6328c-25.027 8.5273-43.289 31.391-44.738 58.637l-7.4648 0.003906c-2.7852 0-5.0391 2.2539-5.0391 5.0391v82.305c0 2.7812 2.2539 5.0391 5.0391 5.0391h10.988v34.281h-10.988c-2.7852 0-5.0391 2.2539-5.0391 5.0391l0.003906 82.305c0 2.7812 2.2539 5.0391 5.0391 5.0391h393.43c2.7852 0 5.0391-2.2539 5.0391-5.0391l-0.003906-82.309c0-2.7812-2.2539-5.0391-5.0391-5.0391h-11.211v-34.281h11.211c2.7852 0 5.0391-2.2539 5.0391-5.0391v-82.301c0-2.7812-2.2539-5.0391-5.0391-5.0391zm-40.941-102.45h0.003906c8.6562-8.6406 18.727-10.652 26.219-10.652 3.375 0 6.2305 0.41016 8.1914 0.80078 0.86719 6.7539 1.6523 23.559-9.5039 34.707-6.8633 6.8477-18.016 6.8555-24.895 0.011719 0 0-0.003906-0.003906-0.003906-0.007812-0.003906-0.003907-0.007813-0.003907-0.011719-0.007813-3.3203-3.3203-5.1523-7.7305-5.1523-12.426-0.003906-4.6914 1.8281-9.1016 5.1523-12.426zm-312.14 24.855c-6.8633 6.8633-18.035 6.8555-24.898 0-11.094-11.078-10.348-27.918-9.5-34.695 6.3359-1.2266 21.938-2.6055 34.402 9.8398h0.003906c3.3203 3.3203 5.1562 7.7344 5.1562 12.426-0.003906 4.6953-1.8398 9.1094-5.1641 12.43zm335.54 77.594h-112.5c1.8281-29.07 26.32-52.188 56.25-52.188 29.93 0.003907 54.422 23.121 56.25 52.188zm-58.066-62.172c-26.914 0.72656-49.883 17.277-59.648 40.605-8.918-21.309-28.852-36.953-52.746-40.066 2.2031-28.715 26.543-51.426 56.211-51.426 29.48 0.003906 53.719 22.43 56.184 50.887zm-64.863 62.172h-112.5c1.8281-29.07 26.32-52.188 56.25-52.188 29.926 0.003907 54.418 23.121 56.25 52.188zm-52.785-173.93c29.543 0 53.809 22.52 56.191 51.059-25.414 1.9844-46.848 18.109-56.191 40.434-9.3438-22.324-30.777-38.449-56.191-40.434 2.3789-28.539 26.648-51.059 56.191-51.059zm-61.469 60.871c29.484 0 53.719 22.426 56.184 50.887-26.914 0.72656-49.883 17.277-59.648 40.605-8.918-21.309-28.852-36.953-52.746-40.066 2.207-28.715 26.543-51.426 56.211-51.426zm-64.93 60.871c29.93 0 54.422 23.117 56.25 52.188l-112.5-0.003907c1.832-29.066 26.324-52.184 56.25-52.184zm314.61 188.92v72.23h-383.36v-72.23zm-367.34-10.074v-34.281h351.08v34.281zm367.34-44.359h-383.36v-72.227h383.36z"/>
</svg>