<?xml version="1.0" encoding="UTF-8"?>
<!-- The Best Svg Icon site in the world: iconSvg.co, Visit us! https://iconsvg.co -->
<svg fill="#000000" width="800px" height="800px" version="1.1" viewBox="144 144 512 512" xmlns="http://www.w3.org/2000/svg">
 <g>
  <path d="m400 326.53c11.133 0 21.812-4.4258 29.688-12.297 7.8711-7.875 12.297-18.555 12.297-29.688 0-11.137-4.4258-21.816-12.297-29.688-7.875-7.875-18.555-12.297-29.688-12.297-11.137 0-21.816 4.4219-29.688 12.297-7.875 7.8711-12.297 18.551-12.297 29.688 0 11.133 4.4219 21.812 12.297 29.688 7.8711 7.8711 18.551 12.297 29.688 12.297zm0-62.977c5.5664 0 10.906 2.2109 14.844 6.1484 3.9336 3.9375 6.1484 9.2773 6.1484 14.844 0 5.5664-2.2148 10.906-6.1484 14.844-3.9375 3.9375-9.2773 6.1484-14.844 6.1484-5.5703 0-10.91-2.2109-14.844-6.1484-3.9375-3.9375-6.1484-9.2773-6.1484-14.844 0-5.5664 2.2109-10.906 6.1484-14.844 3.9336-3.9375 9.2734-6.1484 14.844-6.1484z"/>
  <path d="m389.5 347.52v10.496c0 5.7969 4.6992 10.496 10.496 10.496s10.496-4.6992 10.496-10.496v-10.496c0-5.7969-4.6992-10.496-10.496-10.496s-10.496 4.6992-10.496 10.496z"/>
  <path d="m400 232.06c2.7812 0 5.4531-1.1055 7.4219-3.0742s3.0742-4.6367 3.0742-7.4219v-10.496c0-5.7969-4.6992-10.496-10.496-10.496s-10.496 4.6992-10.496 10.496v10.496c0 2.7852 1.1055 5.4531 3.0742 7.4219s4.6367 3.0742 7.4219 3.0742z"/>
  <path d="m348.04 321.7-7.4531 7.3477c-1.9844 1.9688-3.1055 4.6523-3.1055 7.4492 0 2.8008 1.1211 5.4844 3.1055 7.4531 1.9727 1.9883 4.6562 3.1055 7.4531 3.1055s5.4805-1.1172 7.4531-3.1055l7.3477-7.4531c2.2188-1.9023 3.5469-4.6445 3.6602-7.5664 0.11328-2.9219-1-5.7578-3.0664-7.8281-2.0664-2.0664-4.9062-3.1758-7.8281-3.0625-2.9219 0.10938-5.6641 1.4375-7.5664 3.6602z"/>
  <path d="m444.5 250.54c2.8086-0.011718 5.4922-1.1445 7.4531-3.1484l7.4531-7.3477c4.1172-4.1172 4.1172-10.789 0-14.906-4.1172-4.1133-10.789-4.1133-14.906 0l-7.3477 7.4531h0.003906c-4.0703 4.0938-4.0703 10.707 0 14.801 1.9375 1.9766 4.5781 3.1094 7.3438 3.1484z"/>
  <path d="m326.53 295.04h10.496c5.7969 0 10.496-4.6992 10.496-10.496s-4.6992-10.496-10.496-10.496h-10.496c-5.7969 0-10.496 4.6992-10.496 10.496s4.6992 10.496 10.496 10.496z"/>
  <path d="m452.48 284.54c0 2.7812 1.1055 5.4531 3.0742 7.4219 1.9648 1.9688 4.6367 3.0742 7.4219 3.0742h10.496c5.793 0 10.492-4.6992 10.492-10.496s-4.6992-10.496-10.492-10.496h-10.496c-5.7969 0-10.496 4.6992-10.496 10.496z"/>
  <path d="m348.04 247.39c1.9648 2.0039 4.6484 3.1367 7.4531 3.1484 2.7695-0.039062 5.4102-1.1719 7.3477-3.1484 4.0703-4.0938 4.0703-10.707 0-14.801l-7.3477-7.4531c-4.1172-4.1133-10.789-4.1133-14.906 0-4.1133 4.1172-4.1133 10.789 0 14.906z"/>
  <path d="m437.05 321.7c-4.0703 4.0938-4.0703 10.703 0 14.797l7.3477 7.4531c1.9688 1.9883 4.6523 3.1055 7.4492 3.1055 2.8008 0 5.4844-1.1172 7.4531-3.1055 1.9883-1.9688 3.1055-4.6523 3.1055-7.4531 0-2.7969-1.1172-5.4805-3.1055-7.4492l-7.4531-7.3477c-4.0938-4.0703-10.703-4.0703-14.797 0z"/>
  <path d="m609.92 578.43h-41.984v-31.488h10.496c13.922 0 27.27-5.5273 37.109-15.371 9.8438-9.8398 15.371-23.188 15.371-37.109 0-2.7812-1.1055-5.4531-3.0742-7.4219-1.9688-1.9648-4.6367-3.0742-7.4219-3.0742h-31.488c-7.3984 0.03125-14.652 2.0625-20.992 5.8789v-18.262c6.125-2.168 11.43-6.1719 15.191-11.473 3.7578-5.2969 5.7852-11.629 5.8008-18.125 0-24.664-21.621-46.918-24.035-49.438-1.9688-1.9883-4.6523-3.1055-7.4531-3.1055-2.7969 0-5.4805 1.1172-7.4492 3.1055-2.4141 2.5195-24.039 24.77-24.039 49.438 0.019531 6.4961 2.0469 12.828 5.8047 18.125 3.7578 5.3008 9.0625 9.3047 15.188 11.473v18.262c-6.3398-3.8164-13.59-5.8477-20.992-5.8789h-31.488c-5.7969 0-10.496 4.6992-10.496 10.496 0 13.922 5.5312 27.27 15.371 37.109 9.8438 9.8438 23.191 15.371 37.109 15.371h10.496v31.488h-136.45v-31.488h10.496c13.918 0 27.266-5.5273 37.109-15.371 9.8398-9.8398 15.371-23.188 15.371-37.109 0-2.7812-1.1094-5.4531-3.0742-7.4219-1.9688-1.9648-4.6406-3.0742-7.4219-3.0742h-31.488c-7.4023 0.03125-14.652 2.0625-20.992 5.8789v-18.262c6.125-2.168 11.43-6.1719 15.188-11.473 3.7578-5.2969 5.7852-11.629 5.8047-18.125 0-24.664-21.621-46.918-24.035-49.438h-0.003906c-1.9688-1.9883-4.6523-3.1055-7.4492-3.1055-2.8008 0-5.4844 1.1172-7.4531 3.1055-2.4141 2.5195-24.035 24.77-24.035 49.438 0.015625 6.4961 2.043 12.828 5.8008 18.125 3.7617 5.3008 9.0664 9.3047 15.191 11.473v18.262c-6.3398-3.8164-13.594-5.8477-20.992-5.8789h-31.488c-5.7969 0-10.496 4.6992-10.496 10.496 0 13.922 5.5273 27.27 15.371 37.109 9.8398 9.8438 23.188 15.371 37.109 15.371h10.496v31.488h-136.45v-31.488h10.496c13.918 0 27.266-5.5273 37.109-15.371 9.8398-9.8398 15.371-23.188 15.371-37.109 0-2.7812-1.1055-5.4531-3.0742-7.4219-1.9688-1.9648-4.6406-3.0742-7.4219-3.0742h-31.488c-7.3984 0.03125-14.652 2.0625-20.992 5.8789v-18.262c6.125-2.168 11.43-6.1719 15.188-11.473 3.7578-5.2969 5.7852-11.629 5.8047-18.125 0-24.664-21.621-46.918-24.035-49.438-1.9727-1.9883-4.6562-3.1055-7.4531-3.1055-2.8008 0-5.4805 1.1172-7.4531 3.1055-2.4141 2.5195-24.035 24.77-24.035 49.438 0.019532 6.4961 2.0469 12.828 5.8047 18.125 3.7578 5.3008 9.0625 9.3047 15.188 11.473v18.262c-6.3398-3.8164-13.594-5.8477-20.992-5.8789h-31.488c-5.7969 0-10.496 4.6992-10.496 10.496 0 13.922 5.5273 27.27 15.371 37.109 9.8438 9.8438 23.191 15.371 37.109 15.371h10.496v31.488h-41.984c-5.7969 0-10.496 4.6992-10.496 10.496s4.6992 10.496 10.496 10.496h419.84c5.7969 0 10.496-4.6992 10.496-10.496s-4.6992-10.496-10.496-10.496zm-20.992-73.473h19.211c-2.1719 6.1445-6.1953 11.461-11.516 15.219-5.3203 3.7617-11.676 5.7773-18.191 5.7734h-10.496c0-5.5664 2.2148-10.906 6.1484-14.844 3.9375-3.9336 9.2773-6.1484 14.844-6.1484zm-31.488-88.586c5.9023 7.3438 9.5508 16.238 10.496 25.613 0 5.7969-4.6992 10.496-10.496 10.496s-10.496-4.6992-10.496-10.496c0.94922-9.375 4.5977-18.27 10.496-25.613zm-50.695 88.586h19.207c5.5703 0 10.91 2.2148 14.844 6.1484 3.9375 3.9375 6.1484 9.2773 6.1484 14.844h-10.496c-6.5117 0.003906-12.867-2.0117-18.188-5.7734-5.3203-3.7578-9.3438-9.0742-11.516-15.219zm-75.254 0h19.207c-2.1719 6.1445-6.1953 11.461-11.516 15.219-5.3203 3.7617-11.676 5.7773-18.188 5.7734h-10.496c0-5.5664 2.2109-10.906 6.1484-14.844 3.9336-3.9336 9.2734-6.1484 14.844-6.1484zm-31.488-88.586c5.8984 7.3438 9.5469 16.238 10.496 25.613 0 5.7969-4.6992 10.496-10.496 10.496s-10.496-4.6992-10.496-10.496c0.94531-9.375 4.5938-18.27 10.496-25.613zm-50.699 88.586h19.211c5.5664 0 10.906 2.2148 14.844 6.1484 3.9336 3.9375 6.1484 9.2773 6.1484 14.844h-10.496c-6.5156 0.003906-12.871-2.0117-18.191-5.7734-5.3203-3.7578-9.3438-9.0742-11.516-15.219zm-75.254 0h19.207c-2.1719 6.1445-6.1953 11.461-11.516 15.219-5.3203 3.7617-11.672 5.7773-18.188 5.7734h-10.496c0-5.5664 2.2109-10.906 6.1484-14.844 3.9375-3.9336 9.2773-6.1484 14.844-6.1484zm-31.488-88.586c5.9023 7.3438 9.5469 16.238 10.496 25.613 0 5.7969-4.6992 10.496-10.496 10.496s-10.496-4.6992-10.496-10.496c0.94922-9.375 4.5938-18.27 10.496-25.613zm-50.695 88.586h19.207c5.5664 0 10.906 2.2148 14.844 6.1484 3.9375 3.9375 6.1484 9.2773 6.1484 14.844h-10.496c-6.5156 0.003906-12.871-2.0117-18.191-5.7734-5.3203-3.7578-9.3398-9.0742-11.512-15.219z"/>
 </g>
</svg>