<?xml version="1.0" encoding="UTF-8"?>
<!-- The Best Svg Icon site in the world: iconSvg.co, Visit us! https://iconsvg.co -->
<svg fill="#000000" width="800px" height="800px" version="1.1" viewBox="144 144 512 512" xmlns="http://www.w3.org/2000/svg">
 <g>
  <path d="m525.95 447.23c-6.2617 0-12.27 2.4883-16.699 6.918-4.4258 4.4297-6.9141 10.434-6.9141 16.699 0 6.2617 2.4883 12.27 6.9141 16.699 4.4297 4.4297 10.438 6.9141 16.699 6.9141 6.2656 0 12.273-2.4844 16.699-6.9141 4.4297-4.4297 6.918-10.438 6.918-16.699 0-6.2656-2.4883-12.27-6.918-16.699-4.4258-4.4297-10.434-6.918-16.699-6.918zm0 31.488c-3.1836 0-6.0508-1.918-7.2695-4.8594s-0.54688-6.3281 1.7031-8.5781c2.2539-2.2539 5.6406-2.9258 8.582-1.707s4.8594 4.0898 4.8594 7.2734c0 2.0859-0.83203 4.0898-2.3086 5.5664-1.4766 1.4766-3.4766 2.3047-5.5664 2.3047z"/>
  <path d="m321.28 447.23h15.742v15.742h-15.742z"/>
  <path d="m179.58 494.46h6.3906c5.7305 9.9531 14.895 17.473 25.773 21.145 10.883 3.6719 22.73 3.2422 33.316-1.2031 10.586-4.4453 19.188-12.605 24.184-22.945 3.457 1.9453 7.3555 2.9805 11.324 3.0039h9.2188c6.6797-0.019532 13.035-2.8828 17.477-7.8711h146.11c4.4414 4.9883 10.797 7.8516 17.477 7.8711h1.3477-0.003906c3.9727-0.023438 7.8711-1.0586 11.328-3.0039 5.168 10.691 14.18 19.039 25.234 23.371 11.055 4.3359 23.34 4.3359 34.395 0 11.055-4.332 20.066-12.68 25.234-23.371 3.457 1.9453 7.3555 2.9805 11.324 3.0039h1.3477c4.8672-0.019532 9.6094-1.543 13.578-4.3594 3.9688-2.8203 6.9688-6.793 8.5898-11.383h1.4492c6.2617 0 12.27-2.4883 16.699-6.918 4.4297-4.4297 6.918-10.434 6.918-16.699v-55.102c4.1719 0 8.1797-1.6602 11.133-4.6133 2.9492-2.9531 4.6094-6.957 4.6094-11.133v-7.8711c0-4.1758-1.6602-8.1797-4.6094-11.133-2.9531-2.9531-6.9609-4.6133-11.133-4.6133h-15.746v-7.8711h15.742l0.003906-15.742h-15.746v-15.746h15.742l0.003906-15.742h-15.746v-7.8711c0-2.0898-0.82812-4.0938-2.3047-5.5664-1.4766-1.4766-3.4805-2.3086-5.5664-2.3086h-23.617c-4.3477 0-7.8711 3.5273-7.8711 7.875v7.8711h-23.617v-7.8711c0-2.0898-0.82812-4.0938-2.3047-5.5664-1.4766-1.4766-3.4805-2.3086-5.5664-2.3086h-23.617c-4.3477 0-7.8711 3.5273-7.8711 7.875v7.8711h-23.617v-7.8711c0-2.0898-0.82812-4.0938-2.3047-5.5664-1.4766-1.4766-3.4805-2.3086-5.5664-2.3086h-23.617c-4.3477 0-7.8711 3.5273-7.8711 7.875v7.8711h-24.734c-1.7383-6.7422-5.6641-12.715-11.16-16.988-5.4922-4.2695-12.25-6.6016-19.211-6.6289h-45.145c-13.812 0.035156-26.609 7.2812-33.746 19.105l-31.18 51.957h-0.003907c-2.8555 4.7383-7.9805 7.6406-13.516 7.6562h-57.465c-8.3516 0-16.359 3.3203-22.266 9.2227-5.9062 5.9062-9.2227 13.914-9.2227 22.266v14.266c-14.594 8.4258-23.594 23.988-23.617 40.84v23.617c0 6.2617 2.4883 12.27 6.918 16.699 4.4297 4.4297 10.438 6.9141 16.699 6.9141zm47.23 7.8711v0.003907c-8.3516 0-16.359-3.3203-22.266-9.2227-5.9023-5.9062-9.2227-13.914-9.2227-22.266 0-8.3516 3.3203-16.359 9.2227-22.266 5.9062-5.9062 13.914-9.2227 22.266-9.2227s16.363 3.3164 22.266 9.2227c5.9062 5.9062 9.2227 13.914 9.2227 22.266 0 8.3516-3.3164 16.359-9.2227 22.266-5.9023 5.9023-13.914 9.2227-22.266 9.2227zm299.14 0v0.003907c-8.3477 0-16.359-3.3203-22.266-9.2227-5.9023-5.9062-9.2227-13.914-9.2227-22.266 0-8.3516 3.3203-16.359 9.2227-22.266 5.9062-5.9062 13.918-9.2227 22.266-9.2227 8.3516 0 16.363 3.3164 22.266 9.2227 5.9062 5.9062 9.2227 13.914 9.2227 22.266 0 8.3516-3.3164 16.359-9.2227 22.266-5.9023 5.9023-13.914 9.2227-22.266 9.2227zm62.977-31.488v0.003906c0 2.0859-0.82812 4.0898-2.3047 5.5664-1.4766 1.4766-3.4766 2.3047-5.5664 2.3047h-1.3477c-2.0898 0-4.0938-0.82812-5.5703-2.3047l-1.1719-1.1719c0.13281-1.4492 0.21875-2.9141 0.21875-4.3945 0-16.875-9.0039-32.469-23.617-40.906-14.613-8.4375-32.617-8.4375-47.23 0-14.613 8.4375-23.617 24.031-23.617 40.906 0 1.4805 0.085938 2.9453 0.21875 4.3945l-1.1719 1.1719c-1.4766 1.4766-3.4844 2.3047-5.5742 2.3047h-1.3438c-4.3477 0-7.8711-3.5234-7.8711-7.8711v-7.8711c0.011719-12.523 4.9922-24.531 13.848-33.387 8.8516-8.8555 20.859-13.836 33.383-13.848h31.488c12.523 0.011718 24.527 4.9922 33.383 13.848 8.8555 8.8555 13.836 20.863 13.848 33.387zm39.359-86.594-7.8711 0.003906c-4.3477 0-7.8711 3.5234-7.8711 7.8711v62.977c0 2.0898-0.82812 4.0898-2.3047 5.5664-1.4766 1.4766-3.4805 2.3086-5.5664 2.3086-0.019531-16.699-6.6602-32.707-18.465-44.512-11.809-11.805-27.816-18.449-44.512-18.465h-31.488c-16.695 0.015625-32.703 6.6602-44.512 18.465-11.805 11.805-18.445 27.812-18.465 44.512v7.8711h-23.617v-94.465h204.68zm-181.05-23.613h-23.617v-7.8711h23.617zm62.977 0h-23.617v-7.8711h23.617zm62.977 0h-23.617v-7.8711h23.617zm23.617-55.105v55.105h-7.875v-55.102zm-23.617 15.742v15.742l-23.617 0.007813v-15.746zm-39.359-15.742v55.105h-7.875v-55.102zm-23.617 15.742v15.742l-23.617 0.007813v-15.746zm-39.359-15.742v55.105h-7.8711v-55.102zm-23.617 31.488-23.617 0.003907v-15.746h23.617zm-251.91 55.105c0-4.1758 1.6602-8.1797 4.6133-11.133 2.9531-2.9492 6.957-4.6094 11.133-4.6094h57.465c11.055-0.03125 21.289-5.8242 27-15.289l31.18-51.957 0.003906 0.003906c4.2852-7.1055 11.965-11.457 20.262-11.477h45.145c4.1758 0 8.1797 1.6562 11.133 4.6094 2.9531 2.9531 4.6133 6.957 4.6133 11.133v133.82h-62.977v15.742h62.977v7.8711l-94.465 0.003906c-0.023438-18.785-7.4961-36.793-20.777-50.074s-31.289-20.754-50.07-20.773h-39.359c-2.6406 0.015625-5.2734 0.25-7.875 0.70703zm-23.613 55.105c0-8.3516 3.3164-16.359 9.2227-22.266 5.9023-5.9062 13.914-9.2227 22.266-9.2227h39.359c14.609 0.015624 28.613 5.8281 38.945 16.16 10.332 10.328 16.141 24.336 16.16 38.945 0 2.0859-0.83203 4.0898-2.3086 5.5664-1.4766 1.4766-3.4766 2.3047-5.5664 2.3047h-9.2188c-2.0898 0-4.0938-0.82812-5.5703-2.3047l-1.1719-1.1719c0.13281-1.4492 0.21875-2.9141 0.21875-4.3945 0.074219-13.262-5.4258-25.945-15.16-34.949-9.7383-9.0039-22.809-13.5-36.023-12.391-13.215 1.1094-25.355 7.7227-33.453 18.223-8.0977 10.504-11.406 23.926-9.1211 36.988h-0.70703c-4.3477 0-7.8711-3.5234-7.8711-7.8711z"/>
  <path d="m313.41 376.38h78.719c2.0898 0 4.0898-0.82812 5.5664-2.3047 1.4766-1.4766 2.3086-3.4805 2.3086-5.5664v-47.234c0-4.1758-1.6602-8.1797-4.6133-11.133s-6.957-4.6094-11.133-4.6094h-30.219c-4.1641 0.003906-8.2539 1.1055-11.852 3.1953-3.6016 2.0898-6.5859 5.0938-8.6562 8.707l-26.953 47.137c-1.4102 2.4375-1.4062 5.4414 0.003906 7.8789s4.0117 3.9336 6.8281 3.9297zm33.785-51.168c1.4102-2.4453 4.0234-3.9453 6.8438-3.9375h30.219v39.359h-57.285z"/>
  <path d="m368.51 384.25h23.617v15.742h-23.617z"/>
  <path d="m226.81 447.23c-6.2617 0-12.27 2.4883-16.699 6.918-4.4258 4.4297-6.9141 10.434-6.9141 16.699 0 6.2617 2.4883 12.27 6.9141 16.699 4.4297 4.4297 10.438 6.9141 16.699 6.9141 6.2656 0 12.273-2.4844 16.699-6.9141 4.4297-4.4297 6.918-10.438 6.918-16.699 0-6.2656-2.4883-12.27-6.918-16.699-4.4258-4.4297-10.434-6.918-16.699-6.918zm0 31.488c-3.1836 0-6.0547-1.918-7.2695-4.8594-1.2188-2.9414-0.54688-6.3281 1.7031-8.5781 2.2539-2.2539 5.6406-2.9258 8.582-1.707s4.8594 4.0898 4.8594 7.2734c0 2.0859-0.83203 4.0898-2.3086 5.5664-1.4766 1.4766-3.4766 2.3047-5.5664 2.3047z"/>
 </g>
</svg>