<?xml version="1.0" encoding="UTF-8"?>
<!-- The Best Svg Icon site in the world: iconSvg.co, Visit us! https://iconsvg.co -->
<svg fill="#000000" width="800px" height="800px" version="1.1" viewBox="144 144 512 512" xmlns="http://www.w3.org/2000/svg">
 <g>
  <path d="m492 459.65h-55.875c-14.559 0-26.398 11.84-26.398 26.348v106.71h108.67v-106.71c0-14.512-11.84-26.352-26.398-26.352zm-61.617 116.18c0 2.0664-1.6641 3.7773-3.7773 3.7773-2.0664 0-3.7773-1.7109-3.7773-3.7773l-0.003907-72.398c0-2.1172 1.7109-3.7773 3.7773-3.7773 2.1172 0 3.7773 1.6641 3.7773 3.7773zm5.6914-95.523c-3.125 0-5.6914 2.5703-5.6914 5.6914 0 2.1172-1.6641 3.7773-3.7773 3.7773-2.0664 0-3.7773-1.6641-3.7773-3.7773 0-7.3047 5.9453-13.25 13.25-13.25 2.1172 0 3.7773 1.7109 3.7773 3.7773 0 2.1211-1.6641 3.7812-3.7812 3.7812z"/>
  <path d="m445.24 421.26h37.633v30.832h-37.633z"/>
  <path d="m410.18 355.11c0-8.2109 5.0898-15.469 12.594-17.984 2.2148-0.75391 4.4336-1.4102 6.6016-1.9141 1.4102-0.30078 2.8203-0.45313 4.2305-0.45313 4.2305 0 8.3125 1.4102 11.738 4.1328 4.6367 3.7266 7.3047 9.2188 7.3047 15.164v25.039c0 2.9219 1.3086 5.6914 3.5781 7.6094 1.8633 1.5625 4.1328 2.418 6.6016 2.418 0.60547 0 1.1602-0.050782 1.7617-0.15234 4.7852-0.80469 8.4141-5.3906 8.4141-10.73 0-19.145-0.10156-50.633-0.25-53.504-0.15234-1.4648 0.50391-2.8281 1.7109-3.6328 28.316-18.539 43.934-47.914 43.934-82.676 0-14.559-2.6719-23.68-8.1602-27.859-2.8242-2.168-6.7539-3.2227-11.992-3.2227-9.0703 0-21.262 3.2734-34.109 6.6992-18.992 5.1367-40.504 10.883-64.133 10.883s-45.141-5.7422-64.137-10.883c-12.848-3.4258-25.039-6.6992-34.109-6.6992-5.2383 0-9.168 1.0586-11.992 3.2227-5.4883 4.1797-8.1602 13.301-8.1602 27.859 0 34.762 15.617 64.137 43.934 82.676 1.2109 0.80469 1.8633 2.168 1.7148 3.5781-0.15234 2.9727-0.25 34.914-0.25 54.41 0 2.9219 1.3086 5.6914 3.5781 7.6094 1.8633 1.6133 4.1328 2.418 6.6016 2.418 0.55469 0 1.1602-0.050782 1.7617-0.15234 4.7852-0.80469 8.4141-5.3906 8.4141-10.73v-24.184c0-5.9453 2.6719-11.438 7.3047-15.164 3.375-2.6719 7.5586-4.1328 11.738-4.1328 1.4102 0 2.8203 0.15234 4.2305 0.45312 2.168 0.50391 4.3828 1.1602 6.6016 1.9141 7.5078 2.5195 12.594 9.7734 12.594 17.984v37.785c0 2.9219 1.3086 5.6914 3.5781 7.6094 1.8594 1.6133 4.1289 2.4727 6.5977 2.4727 0.60547 0 1.1602-0.050781 1.7617-0.15234 4.7852-0.80469 8.4141-5.4414 8.4141-10.781zm-108.22-116.68c0-2.7188 0.15234-5.1875 0.35156-7.2539 0.20312-1.9141 1.8633-3.4258 3.8281-3.4258 1.3086 0.15234 2.2148 0.65625 2.8711 1.4102 0.65625 0.80469 0.90625 1.7617 0.80469 2.7695-0.20312 1.8633-0.30078 4.0312-0.30078 6.5 0 2.1172-1.6641 3.7773-3.7773 3.7773-2.0625 0.003906-3.7773-1.6602-3.7773-3.7773zm40.102 64.891c-0.70703 1.0586-1.9141 1.6641-3.1758 1.6641-0.70703 0-1.4609-0.20312-2.0664-0.60547-15.469-10.125-25.945-23.781-31.188-40.605-0.60547-2.0156 0.50391-4.1328 2.5195-4.7344 0.35156-0.10156 0.75391-0.20312 1.1094-0.20312 1.6641 0 3.125 1.1094 3.5781 2.6719 4.6836 15.113 14.156 27.406 28.113 36.578 1.7656 1.1055 2.2695 3.4727 1.1094 5.2344z"/>
 </g>
</svg>