<?xml version="1.0" encoding="UTF-8"?>
<!-- The Best Svg Icon site in the world: iconSvg.co, Visit us! https://iconsvg.co -->
<svg fill="#000000" width="800px" height="800px" version="1.1" viewBox="144 144 512 512" xmlns="http://www.w3.org/2000/svg">
 <g>
  <path d="m510.59 325.27h58.422c2.7812 0 5.0391-2.2539 5.0391-5.0391 0-2.7812-2.2539-5.0391-5.0391-5.0391l-58.422 0.003906c-2.7812 0-5.0391 2.2539-5.0391 5.0391 0.003906 2.7812 2.2578 5.0352 5.0391 5.0352z"/>
  <path d="m510.59 353.16h58.422c2.7812 0 5.0391-2.2539 5.0391-5.0391 0-2.7812-2.2539-5.0391-5.0391-5.0391h-58.422c-2.7812 0-5.0391 2.2539-5.0391 5.0391 0.003906 2.7812 2.2578 5.0391 5.0391 5.0391z"/>
  <path d="m596.48 198.48h-113.36c-2.7812 0-5.0391 2.2539-5.0391 5.0391v332.52c0 1.2773 0.48828 2.5117 1.3633 3.4453l56.68 60.457c0.94922 1.0117 2.2812 1.5898 3.6719 1.5898 1.3906 0 2.7227-0.57422 3.6758-1.5898l56.68-60.457c0.875-0.9375 1.3633-2.1719 1.3633-3.4492v-332.52c0-2.7812-2.2578-5.0352-5.0391-5.0352zm-5.0391 335.56-51.641 55.082-51.641-55.082v-325.48h103.28z"/>
  <path d="m539.8 291.05c17.977 0 32.602-14.621 32.602-32.598 0-17.973-14.625-32.598-32.602-32.598-17.977 0-32.602 14.625-32.602 32.602 0.003906 17.973 14.629 32.594 32.602 32.594zm0-55.121c12.422 0 22.523 10.102 22.523 22.523 0 12.418-10.102 22.52-22.523 22.52-12.422 0-22.523-10.102-22.523-22.52s10.105-22.523 22.523-22.523z"/>
  <path d="m199.04 480.68c5.8281 64.672 58.535 116.51 122.59 120.57 2.8594 0.18359 5.707 0.26953 8.543 0.26953 33.312 0 64.766-12.438 89.344-35.508 26.812-25.172 42.195-60.836 42.195-97.852 0-29.641-9.4062-57.707-27.195-81.16-9.3398-12.309-14.168-26.801-13.605-40.805 0.21484-5.3789-0.042968-10.84-0.78125-16.223-1.1133-8.1484-2.2852-13.801-5.1484-20.562 4.8633-1.418 7.9375-2.7539 8.3477-2.9375 1.2383-0.55469 2.1992-1.5898 2.6641-2.8633 0.46875-1.2734 0.39844-2.6836-0.1875-3.9102-14.258-29.754-42.133-51.289-76.621-59.336l2.3242-19.617c0.023437-0.19531 0.035156-0.39453 0.035156-0.59375 0.003906-11.953-9.6211-21.68-21.453-21.68s-21.457 9.7266-21.457 21.684c0 0.1875 0.011719 0.37109 0.03125 0.55469l2.1758 19.57c-33.258 6.1758-61.77 28.148-76.523 59.184-0.60156 1.2656-0.64844 2.7266-0.12891 4.0312 0.52344 1.3047 1.5664 2.332 2.875 2.832 0.41797 0.16016 3.3984 1.2617 8.0195 2.4531-4.8164 11.512-5.8867 21.625-5.8867 33.727 0 2.0312 0.066406 4.043 0.19531 6.043 0.84766 12.844-2.9453 25.129-10.688 34.594-22.34 27.309-32.875 61.949-29.668 97.535zm131.05-272.13c6.1875 0 11.234 5.0586 11.379 11.336l-2.2305 18.785c-7.0898-0.70703-13.625-0.42188-18.434 0.054687l-2.0938-18.828c0.13672-6.2773 5.1875-11.348 11.379-11.348zm-15.348 41.23c0.14844-0.03125 15.52-3.3047 30.684 0.03125 30.207 6.6406 54.953 24.465 68.734 49.285-10.055 3.1719-33.477 8.2695-54.805-3.9023-1.418-0.80859-3.1367-0.88281-4.6211-0.19141-1.4766 0.6875-2.5352 2.0508-2.8281 3.6562-2.5586 13.91-8.4141 32.668-21.812 45.73-13.648-13.297-19.492-32.473-21.988-46.699-0.28906-1.6367-1.3633-3.0273-2.8789-3.7148-0.66406-0.30078-1.375-0.45312-2.082-0.45312-0.90625 0-1.8086 0.24219-2.6094 0.72656-19.453 11.766-43.801 7.2344-54.453 4.3477 14.254-25.914 39.453-43.977 68.66-48.816zm-65.289 98.113c-0.11719-1.7773-0.17578-3.5742-0.17578-5.3867 0-13.641 1.582-22.156 5.8906-31.66 12.223 1.9062 28.855 2.3086 44.367-4.7109 3.6641 16.039 11.332 35.59 27.34 48.902 0.93359 0.77344 2.0781 1.1641 3.2188 1.1641 1.1445 0 2.2891-0.39062 3.2188-1.1641 15.758-13.102 23.41-32.297 27.133-48.02 16.281 7.2383 32.59 6.7812 44.543 4.6914 2.9961 6.5586 4.0391 11.43 5.1602 19.625 0.65625 4.8008 0.88672 9.6641 0.69531 14.453-0.66016 16.336 4.8984 33.133 15.645 47.301 16.449 21.691 25.148 47.652 25.148 75.074 0 34.246-14.223 67.23-39.016 90.504-24.621 23.109-56.727 34.648-90.348 32.527-59.148-3.75-107.81-51.648-113.2-111.42-2.9727-32.945 6.7734-64.996 27.43-90.25 9.3633-11.449 13.961-26.234 12.945-41.633z"/>
  <path d="m409.25 492.67c0.43359 0.11719 0.875 0.17188 1.3047 0.17188 2.2266 0 4.2617-1.4883 4.8672-3.7383 2.0312-7.6094 3.0625-15.5 3.0625-23.453 0-2.7812-2.2539-5.0391-5.0391-5.0391-2.7812 0-5.0391 2.2539-5.0391 5.0391 0 7.0781-0.91406 14.094-2.7227 20.852-0.71875 2.6875 0.87891 5.4492 3.5664 6.168z"/>
  <path d="m324.41 555c1.9023 0.12109 3.7969 0.17969 5.6836 0.17969 31.625 0 60.594-16.793 76.566-44.773 1.3789-2.4141 0.53906-5.4922-1.8789-6.875-2.4141-1.3711-5.4922-0.53516-6.875 1.8789-15 26.281-42.934 41.383-72.855 39.531-2.8438-0.17578-5.1719 1.9336-5.3477 4.707-0.17578 2.7812 1.9336 5.1758 4.707 5.3516z"/>
 </g>
</svg>