<?xml version="1.0" encoding="UTF-8"?>
<!-- The Best Svg Icon site in the world: iconSvg.co, Visit us! https://iconsvg.co -->
<svg fill="#000000" width="800px" height="800px" version="1.1" viewBox="144 144 512 512" xmlns="http://www.w3.org/2000/svg">
 <path d="m279.12 337.56c10.609-5.3398 17.254-14.609 17.777-24.793l1.8242-35.648c0.09375-1.793-0.77344-3.5-2.2812-4.4805-1.5039-0.98047-3.4102-1.0898-5.0156-0.27734l-28.773 14.488c-3.4102 1.7148-6.3555 3.8711-8.875 6.2969v-10.598c6.0469-8.9727 11.293-17.66 16.387-27.215 4.4688-8.3828 4.4688-18.387 0-26.766-5.3438-10.023-10.828-19.094-17.258-28.539-0.94141-1.3789-2.4961-2.2031-4.1641-2.2031-1.6641 0-3.2266 0.82422-4.1641 2.2031-6.4336 9.4375-11.918 18.508-17.266 28.535-4.4688 8.3828-4.4688 18.387 0 26.77 5.0977 9.5586 10.344 18.25 16.387 27.215v10.598c-2.5195-2.4258-5.4648-4.582-8.875-6.2969l-28.773-14.488c-1.6055-0.8125-3.5117-0.69922-5.0156 0.27734-1.5039 0.98047-2.375 2.6875-2.2812 4.4805l1.8242 35.648c0.52344 10.188 7.1641 19.457 17.777 24.793l25.348 12.762v13.082c-2.5195-2.4258-5.4648-4.582-8.875-6.2969l-28.773-14.488c-1.6055-0.8125-3.5117-0.69531-5.0156 0.27734-1.5039 0.98047-2.375 2.6875-2.2812 4.4805l1.8242 35.648c0.52344 10.184 7.1641 19.453 17.777 24.793l25.348 12.762v13.078c-2.5195-2.4297-5.4648-4.582-8.875-6.3008l-28.773-14.48c-1.6055-0.80859-3.5117-0.69922-5.0195 0.27734-1.5039 0.98047-2.3711 2.6875-2.2773 4.4766l1.8242 35.652c0.52344 10.184 7.1641 19.453 17.777 24.797l25.348 12.762v13.078c-2.5195-2.4297-5.4648-4.582-8.875-6.3008l-28.773-14.484c-1.6055-0.80859-3.5117-0.69922-5.0195 0.28125-1.5039 0.98047-2.3711 2.6875-2.2773 4.4766l1.8242 35.645c0.52344 10.184 7.1641 19.457 17.777 24.801l25.348 12.762v36.031c0 2.7852 2.2539 5.0391 5.0391 5.0391 2.7812 0 5.0391-2.2539 5.0391-5.0391v-36.031l25.344-12.758c10.609-5.3438 17.254-14.617 17.777-24.801l1.8242-35.645c0.09375-1.7891-0.77344-3.5-2.2773-4.4766-1.5078-0.98047-3.4102-1.0859-5.0195-0.28125l-28.773 14.484c-3.4102 1.7188-6.3555 3.875-8.875 6.3008v-13.082l25.344-12.758c10.609-5.3438 17.254-14.613 17.777-24.797l1.8242-35.652c0.09375-1.7891-0.77344-3.4961-2.2812-4.4766-1.5039-0.98047-3.4102-1.0859-5.0156-0.27734l-28.773 14.48c-3.4102 1.7188-6.3555 3.875-8.875 6.3008v-13.082l25.344-12.762c10.609-5.3438 17.254-14.613 17.777-24.793l1.8242-35.648c0.09375-1.793-0.77344-3.5-2.2812-4.4805-1.5039-0.97266-3.4102-1.0898-5.0156-0.27734l-28.773 14.488c-3.4102 1.7148-6.3555 3.8711-8.875 6.2969v-13.082zm-35.422 212.26-20.816-10.484c-7.332-3.6914-11.91-9.7891-12.246-16.309l-1.3789-26.996 21.035 10.594c7.332 3.6914 11.91 9.7891 12.242 16.309l1.1641 22.742zm0-70.258-20.816-10.484c-7.332-3.6914-11.91-9.7852-12.246-16.305l-1.3789-27 21.035 10.594c7.332 3.6914 11.91 9.7891 12.242 16.309l1.1641 22.742zm0-70.258-20.816-10.48c-7.332-3.6914-11.91-9.7891-12.246-16.312l-1.3789-26.992 21.035 10.59c7.332 3.6914 11.91 9.7891 12.242 16.309l1.1641 22.746zm0-70.258-20.816-10.48c-7.332-3.6914-11.91-9.7891-12.246-16.312l-1.3789-26.992 21.035 10.59c7.332 3.6914 11.91 9.7891 12.242 16.312l1.1641 22.746zm11.242-26.887c0.33203-6.5195 4.9102-12.621 12.242-16.309l21.031-10.59-1.3789 26.992c-0.33594 6.5234-4.9141 12.621-12.246 16.312l-20.812 10.477v-4.1367zm-18.738-61.566c-2.8438-5.332-2.8438-11.953 0-17.285 3.9805-7.4648 8.0391-14.383 12.535-21.332 4.4961 6.957 8.5547 13.871 12.535 21.336 2.8438 5.332 2.8438 11.953 0 17.285-3.9766 7.4648-8.0391 14.379-12.535 21.332-4.4961-6.957-8.5547-13.871-12.535-21.336zm18.738 272.34c0.33203-6.5234 4.9102-12.621 12.242-16.309l21.031-10.586-1.3789 26.992c-0.33594 6.5195-4.9141 12.621-12.246 16.309l-20.812 10.48v-4.1406zm0-70.258c0.33203-6.5234 4.9102-12.621 12.242-16.309l21.031-10.586-1.3789 26.996c-0.33594 6.5195-4.9141 12.613-12.246 16.305l-20.812 10.48v-4.1406zm0-70.262c0.33203-6.5195 4.9102-12.617 12.242-16.309l21.031-10.59-1.3789 26.992c-0.33594 6.5195-4.9141 12.621-12.246 16.312l-20.812 10.477v-4.1367zm334.25-50.105c-11.547-17.188-29.973-30.727-51.871-38.121-21.91-7.4023-44.758-7.8008-64.359-1.1328-0.71094 0.24219-1.3594 0.55469-2.0586 0.8125-12.406-4.582-26.223-7.2266-40.844-7.2266-52.758 0-95.676 33.395-95.676 74.441 0 10.23 2.6875 20.215 7.9844 29.672 0.59375 1.0547 0.90625 2.1562 0.90625 3.1875l-0.003907 103.02c0 9.0391 7.3516 16.395 16.391 16.395h140.79c6.0781 0 11.332-3.3633 14.16-8.293l17.09 5.7734c1.6133 0.54688 3.2773 0.81641 4.9336 0.81641 2.332 0 4.6484-0.53516 6.8008-1.5977 3.6758-1.8203 6.4258-4.9648 7.7344-8.8516l29.973-88.746c0.27734-0.8125 0.82031-1.6055 1.5859-2.2969 7.3789-6.6641 12.641-14.547 15.641-23.43 5.9102-17.492 2.6484-36.82-9.1797-54.426zm-80.23 53.52c-1.4375 2.5547-2.1953 5.3672-2.1953 8.1211v103.02c0 3.4844-2.832 6.3164-6.3125 6.3164h-140.79c-3.4805 0-6.3164-2.832-6.3164-6.3164l0.003906-103.02c0-2.75-0.75781-5.5547-2.1875-8.1133-4.4492-7.9336-6.6992-16.262-6.6992-24.746 0-35.492 38.402-64.367 85.602-64.367 47.203 0 85.602 28.875 85.602 64.367-0.003906 8.4766-2.2578 16.801-6.7031 24.742zm1.2344-65.281c5.6523 0.59766 11.332 1.8086 16.965 3.7109 28.121 9.5 47.344 33.949 41.141 52.32-1.2461 3.6797-3.5469 7.0547-6.8438 10.031-4.7773 4.3125-8.3672 9.7383-10.383 15.699l-24.734 73.223-9.5-3.207v-78.379c0-1.0312 0.31641-2.1328 0.91016-3.1914 5.3008-9.4688 7.9844-19.449 7.9844-29.668 0.003906-14.953-5.7461-28.863-15.539-40.539zm78.629 62.961c-2.4453 7.2305-6.7656 13.684-12.84 19.172-2.043 1.8359-3.5586 4.0977-4.3828 6.5469l-29.973 88.754c-0.45312 1.332-1.3984 2.4141-2.6602 3.0391-1.2656 0.62109-2.6992 0.71875-4.0352 0.26953l-18.09-6.1094v-12.23l11.051 3.7305c0.52734 0.17578 1.0742 0.26562 1.6133 0.26562 0.76563 0 1.5352-0.17578 2.2344-0.52344 1.1992-0.59375 2.1094-1.6367 2.5391-2.9023l26.34-78c1.4609-4.3281 4.082-8.2812 7.5859-11.441 4.5938-4.1445 7.8359-8.9531 9.6367-14.289 8.0625-23.871-13.672-53.676-47.457-65.09-9.2305-3.1172-18.602-4.6992-27.867-4.6992-0.99609 0-1.9648 0.046875-2.9414 0.082031-4.418-3.6445-9.2812-6.9492-14.559-9.8438 15.406-3.2539 32.484-2.1211 49.07 3.4844 19.816 6.6914 36.414 18.836 46.734 34.195 10.039 14.953 12.883 31.137 8 45.59zm-158.77-75.203c-40.117 0-74.016 24.172-74.016 52.781 0 6.4727 1.7578 12.895 5.2188 19.078 2.4023 4.2891 3.6719 9.0547 3.6719 13.777v92.711c0 2.7852 2.2539 5.0391 5.0391 5.0391h120.17c2.7852 0 5.0391-2.2539 5.0391-5.0391v-92.707c0-4.7266 1.2695-9.4922 3.6641-13.777 3.4688-6.1875 5.2266-12.605 5.2266-19.082 0-28.609-33.895-52.781-74.012-52.781zm59.996 66.938c-3.2422 5.7852-4.9531 12.25-4.9531 18.699v87.676h-110.09v-87.672c0-6.4492-1.7148-12.914-4.957-18.703-2.6133-4.6641-3.9375-9.4258-3.9375-14.156 0-23.148 29.281-42.707 63.938-42.707s63.938 19.559 63.938 42.707c0 4.7305-1.3242 9.4922-3.9375 14.156zm-28.348-25.762h-5.8359c-2.0859 0-3.7773-1.6914-3.7773-3.7773s1.6914-3.7773 3.7773-3.7773h5.8359c2.0859 0 3.7773 1.6914 3.7773 3.7773s-1.6914 3.7773-3.7773 3.7773zm-31.488-8.8164c0 2.0859-1.6914 3.7773-3.7773 3.7773h-5.8359c-2.0859 0-3.7773-1.6914-3.7773-3.7773 0-2.0859 1.6914-3.7773 3.7773-3.7773h5.8359c2.0859-0.003907 3.7773 1.6914 3.7773 3.7773zm15.113 30.227c0 2.0859-1.6914 3.7773-3.7773 3.7773h-5.8359c-2.0859 0-3.7773-1.6914-3.7773-3.7773s1.6914-3.7773 3.7773-3.7773h5.8359c2.0859 0 3.7773 1.6914 3.7773 3.7773zm30.23 15.117c0 2.0859-1.6914 3.7773-3.7773 3.7773h-5.8359c-2.0859 0-3.7773-1.6914-3.7773-3.7773 0-2.0859 1.6914-3.7773 3.7773-3.7773h5.8359c2.0859-0.003907 3.7773 1.6875 3.7773 3.7773zm-30.23 20.152c0 2.0859-1.6914 3.7773-3.7773 3.7773h-5.8359c-2.0859 0-3.7773-1.6914-3.7773-3.7773 0-2.0859 1.6914-3.7773 3.7773-3.7773h5.8359c2.0859-0.003906 3.7773 1.6914 3.7773 3.7773zm30.23 15.113c0 2.0859-1.6914 3.7773-3.7773 3.7773h-5.8359c-2.0859 0-3.7773-1.6914-3.7773-3.7773 0-2.0859 1.6914-3.7773 3.7773-3.7773h5.8359c2.0859 0 3.7773 1.6914 3.7773 3.7773z"/>
</svg>