<?xml version="1.0" encoding="UTF-8"?>
<!-- The Best Svg Icon site in the world: iconSvg.co, Visit us! https://iconsvg.co -->
<svg fill="#000000" width="800px" height="800px" version="1.1" viewBox="144 144 512 512" xmlns="http://www.w3.org/2000/svg">
 <path d="m561.11 610.55c-26.676-10.238-51.496-24.777-73.473-43.035l-1.4688-1.0508 14.379-11.23c2.6914-1.9141 4.3242-4.9883 4.4062-8.293v-167.93c0-2.7852-1.1055-5.4531-3.0742-7.4219-1.9648-1.9688-4.6367-3.0742-7.4219-3.0742h-62.973v-41.984c2.7812 0 5.4531-1.1055 7.4219-3.0742 1.9648-1.9688 3.0742-4.6406 3.0742-7.4219v-115.46c0-8.3516-3.3203-16.359-9.2227-22.266-5.9062-5.9062-13.914-9.2227-22.266-9.2227h-20.992c-8.3516 0-16.363 3.3164-22.266 9.2227-5.9062 5.9062-9.2227 13.914-9.2227 22.266v115.46c0 2.7812 1.1055 5.4531 3.0742 7.4219s4.6367 3.0742 7.4219 3.0742v41.984h-62.977c-5.7969 0-10.496 4.6992-10.496 10.496v162.16c-25.086 12.805-45.238 35.582-62.137 75.152v-0.003907c-1.3711 3.2422-1.0312 6.9531 0.91016 9.8867 1.9453 2.9336 5.2266 4.7031 8.7461 4.7031h314.88c5.1133 0.046875 9.5156-3.5977 10.426-8.6328 0.90625-5.0312-1.9453-9.9844-6.75-11.727zm-182.11-409.98c0-5.7969 4.6992-10.496 10.496-10.496h20.992c2.7812 0 5.4531 1.1055 7.4219 3.0742 1.9648 1.9688 3.0742 4.6367 3.0742 7.4219v104.96h-41.984zm31.488 125.95v83.969c0 5.7969-4.6992 10.496-10.496 10.496s-10.496-4.6992-10.496-10.496v-83.969zm-94.465 206.35v-143.38h52.48v20.992c0 11.25 6 21.645 15.742 27.27 9.7422 5.625 21.746 5.625 31.488 0 9.7422-5.625 15.746-16.02 15.746-27.27v-20.992h52.48l-0.003906 152.3-15.008 11.652v-0.003906c-26.242-18.605-57.789-28.25-89.949-27.5-21.207-0.48828-42.387 1.8398-62.977 6.9297zm-56.996 77.039c14.906-29.074 31.488-45.133 53.949-53.738h0.003906c21.25-7.1094 43.629-10.242 66.02-9.2383 30.066-0.80469 59.473 8.9219 83.129 27.5 4.3047 3.043 8.6055 6.4023 13.121 9.7617h-0.003906c11.656 9.2852 23.855 17.875 36.527 25.715z"/>
</svg>