<?xml version="1.0" encoding="UTF-8"?>
<!-- The Best Svg Icon site in the world: iconSvg.co, Visit us! https://iconsvg.co -->
<svg width="800px" height="800px" version="1.1" viewBox="144 144 512 512" xmlns="http://www.w3.org/2000/svg">
 <defs>
  <clipPath id="a">
   <path d="m280 148.09h240v503.81h-240z"/>
  </clipPath>
 </defs>
 <g clip-path="url(#a)">
  <path d="m509.03 281.92c-0.66406-4.1211-4.2656-7.1172-8.4375-7.0195-4.1719 0.10156-7.6289 3.2656-8.0938 7.4141-2.6758 22.277-6.0625 42.746-9.8398 61.559-4.7266-99.66-33.379-195.78-82.656-195.78-46.129 0-74.156 83.996-81.477 176.25-4.7422-25.098-7.8945-50.469-9.4453-75.965-0.31641-4.1875-3.6914-7.4883-7.8867-7.707-4.1914-0.22266-7.8945 2.7109-8.6445 6.8398-2.125 13.227-49.988 317.8 60.848 351.33v35.582-0.003907c-0.019531 4.6445 1.8164 9.1016 5.0977 12.383s7.7383 5.1172 12.379 5.0938h62.977c4.6367 0 9.082-1.8398 12.359-5.1172 3.2773-3.2773 5.1172-7.7227 5.1172-12.359v-36.445c102.26-45.578 59.59-305.04 57.703-316.06zm-109.03-117.14c31.488 0 66.676 85.57 66.676 208.29 0 12.121 0 24.324-1.1016 36.211-22.75 69.828-50.617 104.86-62.586 117.45-31.449-42.711-55.016-90.695-69.586-141.7v-12.359c-0.16016-122.25 35.109-207.9 66.598-207.9zm40.07 419.66-0.003906 0.003906c-3.3594 1.1484-5.6094 4.3164-5.5898 7.8711v42.117-0.003907c0 0.21094-0.082031 0.41016-0.23047 0.55859-0.14453 0.14844-0.34766 0.23047-0.55469 0.23047h-62.977c-0.21484 0.023437-0.42969-0.050782-0.58594-0.20312-0.15234-0.15234-0.22656-0.36719-0.20312-0.58594v-42.113c-0.12109-3.8906-2.9414-7.1719-6.7695-7.8711-67.777-12.988-70.848-159.41-62.582-263.32 25.27 145.71 92.102 220.42 95.41 223.8 2.9453 3.2422 7.8945 3.6523 11.336 0.94531 2.7539-2.2031 62.426-50.852 92.18-201.29 7.0078 80.137 7.9531 216.17-59.434 239.86z"/>
 </g>
</svg>