<?xml version="1.0" encoding="UTF-8"?>
<!-- The Best Svg Icon site in the world: iconSvg.co, Visit us! https://iconsvg.co -->
<svg fill="#000000" width="800px" height="800px" version="1.1" viewBox="144 144 512 512" xmlns="http://www.w3.org/2000/svg">
 <path d="m362.71 586.91h1.0078 77.586 1.0078c81.117-16.121 138.05-77.586 139.05-149.12 0.50391-63.984-45.344-122.43-114.36-146.11-23.68-8.0625-37.785-24.184-45.344-51.387-2.5195-12.09 0-37.281 0-37.785 0-1.5117-0.50391-3.5273-2.0156-4.5352-1.5117-1.0078-3.0234-1.5117-4.5352-1.0078l-27.711 7.5586c-2.5195 0.50391-4.0312 3.0234-3.5273 5.543 2.5195 17.129 0.50391 28.719 0.50391 28.719-6.5508 26.199-22.168 43.832-47.863 52.395-74.059 24.688-119.4 87.664-113.36 156.18 6.0469 67.004 63.48 124.44 139.55 139.55zm32.246-296.74v286.16 0.50391h-5.0391c-47.359-32.746-74.059-73.051-79.602-118.9-10.074-81.617 49.375-158.2 62.473-173.82 4.5352 2.0156 12.594 5.0391 22.168 6.0469zm99.25 157.19c-4.5352 49.375-34.258 92.699-87.664 129.48h-1.5117v-0.50391-285.66c8.0625-0.50391 16.625-2.5195 24.688-8.0625 14.105 15.621 72.047 86.152 64.488 164.75zm77.082-9.5703c-0.50391 67.008-54.41 123.94-130.49 139.05h-17.129c48.871-36.777 76.074-80.105 80.609-128.47 6.0469-62.977-26.703-119.4-49.375-150.64 3.0234 1.5117 5.543 2.5195 9.0703 3.5273 64.488 21.664 107.82 76.582 107.31 136.54zm-177.34-196.49c0-0.50391 2.5195-11.586 0.50391-28.215l16.625-4.5352c-0.50391 9.0703-1.0078 24.184 1.0078 33.754 3.0234 11.586 7.5586 21.664 13.098 30.23-16.121 13.602-38.289 6.0469-47.359 2.5195 7.5586-9.0664 13.102-20.652 16.125-33.754zm-53.906 59.953c3.5273-1.0078 7.0547-2.5195 10.078-4.0312-22.672 32.242-57.938 94.715-49.879 161.72 5.543 45.344 29.727 85.145 72.547 117.89h-8.5664c-71.539-14.105-125.45-67.512-130.99-129.98-5.5391-63.98 37.285-122.42 106.81-145.6z"/>
</svg>