<?xml version="1.0" encoding="UTF-8"?>
<!-- The Best Svg Icon site in the world: iconSvg.co, Visit us! https://iconsvg.co -->
<svg fill="#000000" width="800px" height="800px" version="1.1" viewBox="144 144 512 512" xmlns="http://www.w3.org/2000/svg">
 <path d="m606.05 349.11-9.5703-3.0234h-22.672l-31.738-7.0547-37.281 67.512h-171.3c-12.09 0-22.168 7.5586-26.199 17.633h-34.762l14.105 106.3h-17.633l-28.215-105.8-14.609 20.656v85.145h-17.633l-7.0547-99.25 7.0547-42.32-7.0547-49.371v-49.879c-8.0625 0-14.105 6.5508-14.105 14.105v120.41h-14.105v-120.41c0-15.617 12.594-28.215 28.215-28.215h281.12l39.801-6.5508-15.617-15.113 14.105 0.003906c4.5352 0 8.5664 1.5117 12.594 3.5273l12.09 7.5586 2.5195-0.50391-4.5312-10.582c-6.0469-13.602 4.0312-28.719 19.145-28.719h39.801l-30.23 11.586c-5.543 2.0156-8.5664 9.0703-6.0469 14.609l4.0312 8.5664c7.0547-1.0078 12.09 1.0078 15.113 6.0469l39.297 57.434c3.5273 5.0391 3.5273 11.586 0 16.625l-3.0195 3.0234c-3.5273 5.0391-9.5742 7.5586-15.621 6.0469zm-8.5625 98.746-25.191-37.785c-2.5195-4.0312-7.0547-5.543-11.586-5.0391l-2.5195 0.50391-5.0391-5.5391c-2.0156-3.0234-5.0391-4.5352-8.5664-4.5352h-3.5273v14.105l-36.777 7.5586h-170.79c-8.0625 0-17.633 6.5508-17.633 17.633v78.594h11.082v-75.57c0-5.0391 4.0312-8.5664 8.5664-8.5664v14.609l8.0625 43.832-8.0625 26.199 10.578 61.465h11.586l-4.0312-49.375 20.152-29.727 68.52 9.5742 4.0312 69.527h11.586l4.0312-67.008 9.5742 1.5117 14.105 65.496h11.586l-8.0625-63.48 49.879-48.871c3.5273-3.5273 9.0703-5.0391 14.105-3.5273l11.586 3.5273c1.5117 0.50391 3.0234 0.50391 4.5352 0.50391h19.145c2.5195 0 4.5352-1.5117 5.543-3.5273l3.0234-5.543c1.5156-2.0117 1.5156-4.5312 0.50781-6.5469zm-227.72 73.559 25.695 53.402h11.586l-17.633-49.375 7.0547-16.121-17.129-2.5195z"/>
</svg>