<?xml version="1.0" encoding="UTF-8"?>
<!-- The Best Svg Icon site in the world: iconSvg.co, Visit us! https://iconsvg.co -->
<svg fill="#000000" width="800px" height="800px" version="1.1" viewBox="144 144 512 512" xmlns="http://www.w3.org/2000/svg">
 <path d="m620.41 400c2.7852 0 5.4531-1.1055 7.4219-3.0742s3.0742-4.6406 3.0742-7.4219v-41.984c0-2.7852-1.1055-5.4531-3.0742-7.4219s-4.6367-3.0742-7.4219-3.0742h-20.992v-41.984c-0.011719-2.3672-0.82812-4.6602-2.3086-6.5078l-41.984-52.48c-1.9922-2.4844-5.0039-3.9297-8.1875-3.9297s-6.1914 1.4453-8.1836 3.9297l-41.984 52.48c-1.4844 1.8477-2.2969 4.1406-2.3125 6.5078v41.984h-41.98v-41.984c-0.015625-2.3672-0.82812-4.6602-2.3125-6.5078l-41.984-52.48c-1.9922-2.4844-5-3.9297-8.1836-3.9297s-6.1953 1.4453-8.1875 3.9297l-41.984 52.48c-1.4805 1.8477-2.2969 4.1406-2.3086 6.5078v41.984h-41.984v-41.984c-0.015625-2.3672-0.82812-4.6602-2.3086-6.5078l-41.984-52.48c-1.9922-2.4844-5.0039-3.9297-8.1875-3.9297-3.1836 0-6.1953 1.4453-8.1875 3.9297l-41.984 52.48c-1.4805 1.8477-2.2969 4.1406-2.3086 6.5078v41.984h-20.992c-5.7969 0-10.496 4.6992-10.496 10.496v41.984c0 2.7812 1.1055 5.4531 3.0742 7.4219s4.6367 3.0742 7.4219 3.0742h20.992v52.48h-20.992c-5.7969 0-10.496 4.6992-10.496 10.496v41.984-0.003907c0 2.7852 1.1055 5.457 3.0742 7.4219 1.9688 1.9688 4.6367 3.0742 7.4219 3.0742h20.992v41.984c0 2.7852 1.1055 5.4531 3.0742 7.4219s4.6367 3.0742 7.4219 3.0742h83.969c2.7812 0 5.4531-1.1055 7.4219-3.0742s3.0742-4.6367 3.0742-7.4219v-41.984h41.984v41.984c0 2.7852 1.1055 5.4531 3.0742 7.4219s4.6367 3.0742 7.4219 3.0742h83.969c2.7812 0 5.4531-1.1055 7.4219-3.0742 1.9648-1.9688 3.0742-4.6367 3.0742-7.4219v-41.984h41.984v41.984h-0.003906c0 2.7852 1.1094 5.4531 3.0742 7.4219 1.9688 1.9688 4.6406 3.0742 7.4219 3.0742h83.969c2.7852 0 5.4531-1.1055 7.4219-3.0742s3.0742-4.6367 3.0742-7.4219v-41.984h20.992c2.7852 0 5.4531-1.1055 7.4219-3.0742 1.9688-1.9648 3.0742-4.6367 3.0742-7.4219v-41.98c0-2.7852-1.1055-5.457-3.0742-7.4219-1.9688-1.9688-4.6367-3.0742-7.4219-3.0742h-20.992v-52.48zm-104.96-101.29 31.488-39.359 31.488 39.359v38.312h-62.977zm-146.95 0 31.488-39.359 31.488 39.359 0.003906 38.312h-62.977zm-146.95 0 31.488-39.359 31.488 39.359 0.003907 38.312h-62.977zm-31.484 59.305h419.84v20.992h-419.84zm262.4 94.465v-52.48h41.984v52.48zm-146.95 0v-52.48h41.984v52.48zm62.977-52.48h62.977v52.48h-62.977zm-146.95 0h62.977v52.48h-62.977zm62.977 146.95-62.977-0.003906v-31.488h62.977zm146.95 0-62.977-0.003906v-31.488h62.977zm146.95 0-62.98-0.003906v-31.488h62.977zm31.488-52.48-419.84-0.003906v-20.988h419.84zm-31.488-41.984h-62.98v-52.48h62.977z"/>
</svg>