<?xml version="1.0" encoding="UTF-8"?>
<!-- The Best Svg Icon site in the world: iconSvg.co, Visit us! https://iconsvg.co -->
<svg fill="#000000" width="800px" height="800px" version="1.1" viewBox="144 144 512 512" xmlns="http://www.w3.org/2000/svg">
 <g>
  <path d="m258.93 459.84c0 78.125 63.281 141.68 141.07 141.68s141.07-63.559 141.07-141.68c0-76.496-60.676-138.98-136.23-141.56v-12.902c14.105-0.41406 55.16-3.668 78.449-27.062 28.203-28.324 19.742-71.012 19.371-72.816-0.39062-1.875-1.8047-3.3672-3.6602-3.8516-2.0977-0.55078-51.68-13.098-80.004 15.363-9.7891 9.832-15.676 22.785-19.195 35.562-3.5234-12.777-9.4062-25.73-19.195-35.562-28.324-28.457-77.914-15.918-80.004-15.363-1.8555 0.48828-3.2734 1.9766-3.6602 3.8516-0.375 1.8047-8.832 44.492 19.371 72.816 23.289 23.402 64.355 26.648 78.453 27.062v12.914c-75.367 2.7773-135.83 65.188-135.83 141.55zm272.05 0c0 72.566-58.758 131.61-130.99 131.61s-130.99-59.039-130.99-131.61 58.758-131.61 130.99-131.61c72.23 0 130.99 59.039 130.99 131.61zm-104.85-235.72c12.422-12.477 30.473-15.531 45.18-15.531 9.5547 0 17.699 1.2891 21.957 2.125 1.2383 9.7969 3.1289 40.148-17.133 60.5-20.281 20.375-58.016 23.582-71.27 24.07-0.011719-0.78906-0.019532-1.6758-0.019532-2.6328v-0.14453c0.042969-15.117 2.3672-49.379 21.285-68.387zm-102.68 47.094c-20.266-20.359-18.371-50.719-17.133-60.512 10.805-2.1367 46.586-7.2227 67.137 13.418 18.922 19.016 21.242 53.277 21.281 68.391v0.14844c0 0.95312-0.003906 1.8398-0.019531 2.6289-13.238-0.47656-50.945-3.6602-71.266-24.074z"/>
  <path d="m313.33 464c0 2.7852 2.2539 5.0391 5.0391 5.0391 2.7852 0 5.0391-2.2539 5.0391-5.0391 0-45.23 36.719-82.027 81.855-82.027 2.7852 0 5.0391-2.2539 5.0391-5.0391s-2.2539-5.0391-5.0391-5.0391c-50.695 0-91.934 41.32-91.934 92.105z"/>
 </g>
</svg>