<?xml version="1.0" encoding="UTF-8"?>
<!-- The Best Svg Icon site in the world: iconSvg.co, Visit us! https://iconsvg.co -->
<svg fill="#000000" width="800px" height="800px" version="1.1" viewBox="144 144 512 512" xmlns="http://www.w3.org/2000/svg">
 <g>
  <path d="m425.95 520.91-20.152-3.375v26.902l20.152-3.375z"/>
  <path d="m256.41 551.14c-4.1719 0-7.5586-4.1719-7.5586-7.5586v-287.17c0-4.1719 3.3828-7.5586 7.5586-7.5586 4.1719 0 7.5586 4.1719 7.5586 7.5586v287.17c0 4.1719-3.3828 7.5586-7.5586 7.5586z"/>
  <path d="m289.16 309.31h-25.191v-20.152h25.191z"/>
  <path d="m306.79 264.27h15.113v14.812h-15.113z"/>
  <path d="m300.65 249.16h27.406c4.1719 0 7.5586 3.3867 7.5586 7.5586 0 4.1758-3.3867 7.5586-7.5586 7.5586h-27.406c-4.1758 0-7.5586-3.3828-7.5586-7.5586 0-4.1719 3.3828-7.5586 7.5586-7.5586z"/>
  <path d="m306.79 279.09h32.75v40.305h-50.383v-40.305z"/>
  <path d="m457.18 518.39v25.191c0 4.1719-4.1719 7.5586-7.5586 7.5586-4.1719 0-7.5586-3.3828-7.5586-7.5586v-25.191c0-4.1719 4.1719-7.5586 7.5586-7.5586 4.1719 0 7.5586 3.3828 7.5586 7.5586z"/>
  <path d="m405.04 358.18c0.20703 5.2539 4.4219 9.4648 9.6758 9.6719h83.531c6.957 0 12.594 5.6406 12.594 12.594 0 6.957-5.6367 12.598-12.594 12.598h-83.531c-9.2383-0.027344-18.09-3.7109-24.625-10.242-6.5312-6.5312-10.215-15.383-10.238-24.621v-6.0977h25.191z"/>
  <path d="m359.7 289.16c11.348 0.027344 22.227 4.5469 30.25 12.574 8.0234 8.0234 12.547 18.902 12.57 30.25v5.0391h-20.152v-5.0391c0.007813-4.4922-1.3477-8.8828-3.8789-12.594-4.1953-6.2812-11.238-10.059-18.789-10.078h-20.152v-20.152z"/>
  <path d="m379.85 336.97h25.191-0.003906c4.1758 0 7.5586 3.3828 7.5586 7.5547 0 4.1758-3.3828 7.5586-7.5586 7.5586h-25.188c-4.1758 0-7.5586-3.3828-7.5586-7.5586 0-4.1719 3.3828-7.5547 7.5586-7.5547z"/>
  <path d="m508.32 428.36h-125.95c-6.957 0-12.594-6.957-12.594-12.594 0-6.957 5.6406-12.594 12.594-12.594h125.95c6.957 0 12.594 6.957 12.594 12.594 0 6.957-5.6406 12.594-12.594 12.594z"/>
  <path d="m375.87 438.44h122.38c18.898 0 36.363 10.086 45.812 26.453 9.4492 16.367 9.4492 36.531 0 52.898-9.4492 16.367-26.914 26.449-45.812 26.449h-41.062v-25.191h41.062c9.8984 0 19.047-5.2812 23.996-13.852 4.9492-8.5742 4.9492-19.137 0-27.711s-14.098-13.855-23.996-13.855h-122.38c-6.957 0-12.598-5.6367-12.598-12.594 0-6.957 5.6406-12.598 12.598-12.598z"/>
  <path d="m449.62 544.24h-15.113v-25.191h15.113z"/>
  <path d="m434.51 510.84v40.305l-30.23-5.0391 0.003906-30.227z"/>
  <path d="m374.05 520.91 20.152-3.375v26.902l-20.152-3.375z"/>
 </g>
</svg>