<?xml version="1.0" encoding="UTF-8"?>
<!-- The Best Svg Icon site in the world: iconSvg.co, Visit us! https://iconsvg.co -->
<svg fill="#000000" width="800px" height="800px" version="1.1" viewBox="144 144 512 512" xmlns="http://www.w3.org/2000/svg">
 <g>
  <path d="m636.16 516.5c0-5.668-4.7227-10.391-10.391-10.391h-303.23l-10.391-24.246h313.62c5.668 0 10.391-4.7227 10.391-10.391 0-5.668-4.7227-10.391-10.391-10.391h-145.16v-53.531c8.5 4.4102 17.949 6.9258 27.711 6.9258 32.746 0 59.512-26.766 59.512-59.828 0-25.191-16.059-47.863-39.047-56.047 0.62891-3.7773 0.94531-7.2422 0.94531-11.02 0-33.062-26.766-59.828-59.512-59.828s-59.512 26.766-59.512 59.828c0 3.7773 0.31641 7.5586 0.94531 11.02-22.984 8.5-39.047 30.859-39.047 56.047 0 33.062 26.766 59.828 59.512 59.828 9.7617 0 19.207-2.5195 27.711-6.9258v53.215h-285.6c-5.668 0-10.391 4.7227-10.391 10.391 0 5.668 4.7227 10.391 10.391 10.391h31.488l11.02 81.238c0.62891 5.3516 5.0391 9.1328 10.391 9.1328h1.2578c5.668-0.62891 9.7617-5.9844 9.1328-11.652l-10.391-78.402h20.469l22.355 82.812c1.2578 4.7227 5.3516 7.8711 10.078 7.8711 0.94531 0 1.8906 0 2.832-0.31641 5.668-1.5742 8.8164-7.2422 7.2422-12.91l-20.781-77.457h19.836l35.895 84.074c0.31641 0.94531 0.94531 1.5742 1.2578 2.2031 0 0.31641 0.31641 0.31641 0.31641 0.62891 0.62891 0.62891 1.2578 1.2578 1.8906 1.5742 0 0 0.31641 0 0.31641 0.31641 0.62891 0.31641 1.2578 0.62891 2.2031 0.94531 0.31641 0 0.31641 0 0.62891 0.31641 0.94531 0.31641 1.5742 0.31641 2.5195 0.31641h290.64c5.668 0 10.391-4.7227 10.391-10.391 0-5.668-4.7227-10.391-10.391-10.391l-283.08-0.003907-10.391-24.246h294.1c5.9844-0.31641 10.707-5.0391 10.707-10.707zm-204.36-122.8c-21.098 0-38.414-17.32-38.414-38.73 0-19.207 14.168-35.582 32.746-38.414 3.1484-0.31641 5.9844-2.2031 7.5586-5.0391 1.5742-2.832 1.8906-5.9844 0.62891-9.1328-1.8906-4.7227-2.832-9.4453-2.832-14.484 0-21.41 17.32-38.73 38.414-38.73 21.098 0 38.414 17.32 38.414 38.73 0 5.0391-0.94531 10.078-2.832 14.484-1.2578 2.832-0.94531 6.2969 0.62891 9.1328 1.5742 2.832 4.4102 4.7227 7.5586 5.0391 18.578 2.832 32.746 19.207 32.746 38.414 0 21.41-17.32 38.73-38.414 38.73-11.652 0-22.672-5.3516-29.914-14.484-1.8906-2.5195-5.0391-3.7773-8.1875-3.7773-3.1484 0-5.9844 1.2578-8.1875 3.7773-7.2422 9.1328-18.262 14.484-29.914 14.484z"/>
  <path d="m525.01 354.66c0 8.5-6.9258 15.43-15.113 15.43-8.5 0-15.113-6.9258-15.113-15.43 0-8.5 6.9258-15.43 15.113-15.43 8.1836 0.31641 15.113 6.9258 15.113 15.43z"/>
  <path d="m483.44 284.44c0 7.8711-6.6133 14.484-14.484 14.484-7.8711 0-14.484-6.6133-14.484-14.484s6.2969-14.484 14.484-14.484c7.8711 0 14.484 6.6133 14.484 14.484z"/>
 </g>
</svg>