<?xml version="1.0" encoding="UTF-8"?>
<!-- The Best Svg Icon site in the world: iconSvg.co, Visit us! https://iconsvg.co -->
<svg fill="#000000" width="800px" height="800px" version="1.1" viewBox="144 144 512 512" xmlns="http://www.w3.org/2000/svg">
 <g>
  <path d="m400 299.24c-4.0117 0-7.8555 1.5898-10.688 4.4258-2.8359 2.832-4.4297 6.6797-4.4297 10.688v186.41h30.23v-186.41c0-4.0078-1.5938-7.8555-4.4258-10.688-2.8359-2.8359-6.6797-4.4258-10.688-4.4258z"/>
  <path d="m415.11 450.38h30.23v25.191h-30.23z"/>
  <path d="m354.66 450.38h30.23v25.191h-30.23z"/>
  <path d="m294.2 450.38h30.23v25.191h-30.23z"/>
  <path d="m248.86 450.38h15.113v25.191h-15.113z"/>
  <path d="m475.57 450.38h30.23v25.191h-30.23z"/>
  <path d="m536.03 450.38h15.113v25.191h-15.113z"/>
  <path d="m294.2 324.43h30.23v25.191h-30.23z"/>
  <path d="m248.86 324.43h15.113v25.191h-15.113z"/>
  <path d="m354.66 324.43h30.23v25.191h-30.23z"/>
  <path d="m415.11 324.43h30.23v25.191h-30.23z"/>
  <path d="m536.03 324.43h15.113v25.191h-15.113z"/>
  <path d="m475.57 324.43h30.23v25.191h-30.23z"/>
  <path d="m279.09 299.24c-4.0117 0-7.8555 1.5898-10.688 4.4258-2.8359 2.832-4.4297 6.6797-4.4297 10.688v186.41h30.23v-186.41c0-4.0078-1.5938-7.8555-4.4258-10.688-2.8359-2.8359-6.6797-4.4258-10.688-4.4258z"/>
  <path d="m339.54 299.24c-4.0117 0-7.8555 1.5898-10.688 4.4258-2.8359 2.832-4.4297 6.6797-4.4297 10.688v186.41h30.23v-186.41c0-4.0078-1.5938-7.8555-4.4258-10.688-2.8359-2.8359-6.6797-4.4258-10.688-4.4258z"/>
  <path d="m460.46 299.24c-4.0117 0-7.8555 1.5898-10.688 4.4258-2.8359 2.832-4.4297 6.6797-4.4297 10.688v186.41h30.23v-186.41c0-4.0078-1.5938-7.8555-4.4258-10.688-2.8359-2.8359-6.6797-4.4258-10.688-4.4258z"/>
  <path d="m520.91 299.24c-4.0117 0-7.8555 1.5898-10.688 4.4258-2.8359 2.832-4.4297 6.6797-4.4297 10.688v186.41h30.23v-186.41c0-4.0078-1.5938-7.8555-4.4258-10.688-2.8359-2.8359-6.6797-4.4258-10.688-4.4258z"/>
 </g>
</svg>