<?xml version="1.0" encoding="UTF-8"?>
<!-- The Best Svg Icon site in the world: iconSvg.co, Visit us! https://iconsvg.co -->
<svg fill="#000000" width="800px" height="800px" version="1.1" viewBox="144 144 512 512" xmlns="http://www.w3.org/2000/svg">
 <path d="m565.45 623.89h-118.08c-4.8633 0-8.793-3.9297-8.793-8.7891s3.9297-8.7891 8.793-8.7891h118.08c1.5195 0 2.7031-0.84375 2.9414-1.6836v-0.35156l1.168-85.18h-107.51c-4.8594 0-8.7891-3.9297-8.7891-8.7891v-105.47c0-4.8594 3.9297-8.7891 8.7891-8.7891h109.21l0.14844-11.09c0-0.25 0.015625-0.48828 0.039062-0.72656 0-0.089843-0.011718-0.1875-0.011718-0.27734-0.82812-16.875-3.8555-30.965-8.0391-43.473-44.234 14.516-73.449 4.3945-97.109-3.8047-8.2539-2.8633-16.039-5.5664-23.551-6.8945-4.7852-0.84375-7.9766-5.4141-7.1211-10.184 0.84375-4.7852 5.4141-7.9766 10.188-7.1211 8.8906 1.5703 17.316 4.4961 26.25 7.582 23.109 8.0156 46.957 16.277 84.965 4.0195-3.4688-7.8477-7.2461-15.207-10.992-22.488-6.3555-12.371-12.32-24-15.598-36.746-1.207-4.6953 1.6211-9.4922 6.332-10.699 4.6953-1.2031 9.4922 1.6211 10.699 6.332 2.7891 10.848 8.3125 21.621 14.18 33.039 11.832 23.055 25.207 49.109 27.316 88.832 0.039063 0.27344 0.0625 0.53906 0.074219 0.81641 0.039062 0.81641 0.027344 1.6328-0.035156 2.4102l-2.9883 218.12c0.023438 0.28906 0.035156 0.57813 0.035156 0.86719-0.125 10.676-9.3438 19.352-20.559 19.352zm-94.621-122.37h98.969l1.207-87.891h-100.18zm-68.602 122.37h-163.39c-11.344 0-20.562-8.7773-20.562-19.574 0-0.36328 0-0.73047 0.039062-1.0938l-2.9883-218.1c-0.039062-0.30078-0.050781-0.61328-0.0625-0.91406 0-0.79297 0.035157-1.5977 0.125-2.3633 2.1836-39.48 15.512-65.426 27.266-88.328 5.8672-11.43 11.406-22.215 14.191-33.066 1.207-4.7109 6.0039-7.5352 10.703-6.3281 4.6953 1.2031 7.5352 6 6.3281 10.699-3.2773 12.746-9.2422 24.387-15.574 36.703-11.527 22.453-23.445 45.66-25.383 81.574 0 0.19141-0.023437 0.36719-0.046875 0.55469v0.33984l3.0117 219.36c0 0.27734 0 0.55469-0.023437 0.82812v0.14062c0 0.92969 1.2695 1.9844 2.9766 1.9844h167.59c2.1484 0 2.8125-1.1445 2.9531-1.4219 0-0.19922-0.015625-0.39844-0.015625-0.60156l1.1719-85.406c-0.62891 0.14062-1.2695 0.21484-1.9375 0.21484h-109.71c-4.8594 0-8.793-3.9297-8.793-8.7891v-105.47c0-4.8594 3.9336-8.7891 8.793-8.7891h110.98c0.81641 0 1.6094 0.11328 2.3477 0.3125l0.15234-11.402c0-0.25 0.011719-0.48828 0.039063-0.72656 0-0.089844-0.015625-0.1875-0.015625-0.27734-0.81641-16.562-3.7422-30.441-7.7969-42.773-42.879 13.465-69.844 3.168-91.762-5.1953-15.234-5.8164-27.266-10.41-41.91-6.8086-4.7109 1.168-9.4844-1.7188-10.641-6.4297-1.1523-4.707 1.7227-9.4805 6.4336-10.637 19.969-4.9219 35.719 1.0938 52.383 7.4492 21.09 8.0469 42.844 16.348 79.164 5.1836-3.5547-8.1094-7.4453-15.695-11.289-23.18-6.332-12.332-12.309-23.973-15.586-36.719-1.207-4.6953 1.6172-9.4922 6.3281-10.699 4.6992-1.207 9.4961 1.6211 10.699 6.3281 2.7891 10.852 8.3281 21.637 14.195 33.066 11.816 23.004 25.191 49.062 27.305 88.781 0.035157 0.26562 0.0625 0.53906 0.074219 0.81641 0.039062 0.82812 0.023438 1.6562-0.050781 2.4609l-3 218.62c0.23828 4.6445-1.5469 9.3789-4.9492 13.07-3.9453 4.2812-9.4688 6.6445-15.574 6.6445h-4.207zm-94.551-122.37h100.92c0.75391 0 1.4688 0.085937 2.1719 0.26172l1.2188-88.418c-0.67578 0.16406-1.3945 0.25-2.1211 0.25h-102.19zm108.64-209.45c-1.2305 0-2.4844-0.26562-3.6641-0.80469-4.4102-2.0352-6.3438-7.2578-4.3086-11.664 3.9062-8.4766 6.4297-14.922 7.5234-19.152 1.2031-4.6953 6.0039-7.5352 10.699-6.3281 4.6992 1.2031 7.5352 6 6.332 10.699-1.3711 5.3242-4.1719 12.555-8.5781 22.125-1.4844 3.2148-4.6602 5.1133-7.9883 5.1133zm-49.684-44.906c-0.96875 0-1.8828 0-2.7383-0.027344l-94.16-1.1172c-11.227 0-20.457-8.7773-20.457-19.578 0-0.625 0.023438-1.2539 0.085938-1.8711l0.89062-28.617c-0.023437-0.28906-0.023437-0.57812-0.011718-0.86719 0.32812-10.648 9.3594-19 20.547-19h103.67c11.34 0 20.559 8.7773 20.559 19.578v0.28906 0.33984l0.87891 28.707c0.039062 0.28906 0.066406 0.57812 0.078124 0.87891 0.21094 7.0195-2.7148 11.527-5.1992 14.051-6.457 6.582-16.781 7.2344-24.141 7.2344zm-98.77-51.812v0.30078l-0.92969 29.824c0 0.28906-0.035156 0.57812-0.0625 0.85547 0 1.0547 1.2695 2.0938 2.9766 2.0938l94.262 1.1172c8.0117 0.10156 12.758-0.55078 14.117-1.9453 0.074219-0.074219 0.13672-0.32422 0.16016-0.65234-0.011719-0.17578-0.023437-0.36328-0.035156-0.53906l-0.92969-29.852v-0.55078-0.40234c-0.050781-0.91797-1.3086-1.9219-2.9648-1.9219h-103.67c-1.4922 0-2.6758 0.82812-2.9258 1.6719zm161 50.668c-11.34 0-20.559-8.7773-20.559-19.578 0-0.625 0.039062-1.2539 0.089844-1.8711l0.89062-28.629c-0.011718-0.27734-0.027343-0.55469-0.011718-0.84375 0.32422-10.66 9.3438-18.996 20.547-18.996h103.68c11.34 0 20.559 8.7773 20.559 19.562v0.28906 0.33984l0.87891 28.68c0.039063 0.28906 0.0625 0.58984 0.078125 0.89453 0.14844 5.0586-1.7109 9.9062-5.2656 13.66-3.7539 3.9688-9.1172 6.3281-14.73 6.4805h-0.16406-105.98zm-1.9688-50.656v0.30078l-0.92969 29.824c0 0.28906-0.039062 0.57812-0.074219 0.86719 0 1.043 1.2656 2.0977 2.9727 2.0977h105.74c0.94141-0.039063 1.8086-0.39062 2.3477-0.98047 0.22656-0.23828 0.375-0.5 0.44141-0.75391 0-0.10156 0-0.19922-0.015626-0.30078l-0.92969-29.848v-0.56641-0.40234c-0.046875-0.91797-1.3047-1.9219-2.9609-1.9219h-103.68c-1.4961 0-2.6875 0.82812-2.9297 1.6719z"/>
</svg>