<?xml version="1.0" encoding="UTF-8"?>
<!-- The Best Svg Icon site in the world: iconSvg.co, Visit us! https://iconsvg.co -->
<svg fill="#000000" width="800px" height="800px" version="1.1" viewBox="144 144 512 512" xmlns="http://www.w3.org/2000/svg">
 <path d="m583.81 229.97-141.36-56.672-141.14 56.672-42.965 85.012h28.285v101.42c29.441 3.1016 59.355 8.9844 85.527 15.23v-70.008h140.8v123.91h85.379v-170.55h28.363zm-123.61 85.012h-35.422v-35.422h35.422zm-193.79 110.39c-0.11719-0.003906-0.23828-0.015625-0.35156-0.019531-3.1523-0.1875-6.2891-0.33203-9.3945-0.43359-0.23047-0.011719-0.46875-0.015625-0.69922-0.023437-3.2031-0.10156-6.3828-0.15625-9.5273-0.15625-5.3008 0-10.504 0.14453-15.578 0.45312-15.625 0.95312-30.336 6.0898-41.188 17.246l-3.668 4.3516c-2.9414-3.0078-4.7617-7.1172-4.7617-11.652 0-8.0312 5.707-14.762 13.273-16.355v-8.0703c-11.984 1.6641-21.234 11.992-21.234 24.43 0 7.2109 3.125 13.695 8.0703 18.207-6.8516 11.582-9.5234 25.297-7.3047 38.793l20.402 120.84 9.3594 13.715h11.945l-3.4141-13.715-0.039062-19.887 16.258-40.52 45.367 15.496c10.707 3.6562 21.938 5.5234 33.246 5.5234h31.508l-0.52734-8.7461c-0.32812-5.4453 1.6914-10.777 5.5508-14.637l3.1875-3.1875h13.551l-7.4414 7.543c-3.0469 3.0469-4.5859 7.2969-4.1875 11.586l4.3164 46.82 4.6602 13.715h11.945v-13.715l14.586-39.383h47.047c25.652 0 50.789-7.2109 72.543-20.809l9.1914-5.7422h0.003906v-21.008c0-2.1562-1.6172-4.0898-3.7695-4.2031-0.070313-0.003907-0.14453-0.003907-0.21484-0.003907-2.1953 0-3.9805 1.7852-3.9844 3.9805l-13.332-5.5469-22.305-39.898h0.94141c11.828 0 21.418-9.5859 21.418-21.418v-25.441l-20.305 20.305-22.598 10.848s-0.125-0.046875-0.36328-0.125c-0.015625-0.003906-0.039062-0.015625-0.054687-0.019531-0.38281-0.13281-1.0117-0.34766-1.8984-0.64453-0.003906 0-0.011719-0.003906-0.011719-0.003906-0.28125-0.097657-0.58984-0.19531-0.91797-0.30859-0.050782-0.015625-0.10547-0.035156-0.16016-0.054688-0.30859-0.10156-0.63672-0.21094-0.97656-0.32812-0.066406-0.019531-0.125-0.039062-0.19141-0.066406-0.78906-0.26172-1.6758-0.55469-2.6602-0.87109-0.039062-0.011719-0.074218-0.023437-0.10937-0.035156-0.50781-0.16797-1.043-0.33594-1.6016-0.51953h-0.003906c-12.652-4.0859-37.609-11.766-67.832-19.062-26.105-6.3086-56.141-12.328-85.566-15.516-6.7852-0.73828-13.535-1.3203-20.199-1.7266zm198.89 80.637v9.1992h-10.789l-7.25-7.0781zm-219.23 106.97-9.8555-46.566 32.57 11.129-6.2422 15.551v19.887l3.6641 13.715h-11.945zm163.07 13.715-17.004-42.473h33.465l-4.5156 28.758v13.715z"/>
</svg>