<?xml version="1.0" encoding="UTF-8"?>
<!-- The Best Svg Icon site in the world: iconSvg.co, Visit us! https://iconsvg.co -->
<svg fill="#000000" width="800px" height="800px" version="1.1" viewBox="144 144 512 512" xmlns="http://www.w3.org/2000/svg">
 <path d="m419.06 289.44v-21.164c-2.9336 0-5.3086-2.3789-5.3086-5.3086v-2.375c0-8.5586 3.7383-16.691 10.23-22.27 5.3203-4.5664 12.102-7.0781 19.113-7.0781h67.812c5.4141 0 10.504-2.6211 13.652-7.0273l8.2109-11.508-5.2891-7.9414h22.469c5.9844 0 11.77 2.1602 16.281 6.0859l14.305 12.43c2.2891 1.9883 3.1641 5.1602 2.2227 8.0391-1.0117 3.0977-3.9062 5.1953-7.1641 5.1953h-13.719l-8.5391 37.57c-2.7461 12.07-13.477 20.641-25.859 20.641l-9.6719 18.715-2.5742 31.57h-7.793l-1.9062-32.145-7.1641-18.141h-44.98l-24.781 18.277v31.996l-7.9531 0.019532-6.9414-47.641zm106.8 17.07 9.3086 38.512h7.8984l-8.8203-47.086c-1.4102 0.32422-2.8477 0.55078-4.2969 0.66406zm-71.164-7.8047-13.348 9.8438 7.1797 36.477h7.9805l-2.1172-32.012 19.945-14.309zm104.48 222.41 2.7695 14.773 64.754-0.003906v22.277h-60.582l2.7695 14.773h57.812v22.273h-453.43v-22.273h219.83l-2.1523-14.773h-217.68v-22.277h214.43l-2.1523-14.773-212.28 0.003906v-22.273h8.5234l-8.5234-58.488 6.9727-10.344v-27.578c-3.8203 0-6.918-3.0977-6.918-6.918v-3.0898c0-11.156 4.8711-21.75 13.336-29.016 6.9336-5.9492 15.77-9.2266 24.902-9.2266h88.359c7.0586 0 13.684-3.4102 17.789-9.1602l10.699-14.992-6.8984-10.344h29.281c7.8008 0 15.332 2.8164 21.219 7.9297l18.641 16.199c2.9844 2.5938 4.1211 6.7227 2.8906 10.473-1.3242 4.0352-5.0898 6.7656-9.3359 6.7656h-17.875l-11.125 48.949c-3.5781 15.73-17.562 26.895-33.695 26.895l-12.605 24.391-3.0586 37.543h24.824l-11.266-46.586 5.3242-10.309c1.8906-0.15625 3.7578-0.44922 5.6016-0.87109l10.828 57.766h46.961l2.9023-4.3086 0.007813-30.395c-4.2109 0-7.6289-3.4141-7.6289-7.6289v-3.4023c0-12.297 5.3711-23.977 14.695-31.988 7.6445-6.5586 17.383-10.168 27.453-10.168h97.402c7.7852 0 15.086-3.7578 19.609-10.098l11.801-16.531-7.6016-11.402h32.273c8.5938 0 16.902 3.1016 23.391 8.7422l20.547 17.855c3.2891 2.8555 4.543 7.4062 3.1875 11.547-1.457 4.4492-5.6133 7.4609-10.293 7.4609h-19.703l-12.262 53.965c-2.7305 12.004-10.965 21.59-21.664 26.355h64.457v22.277zm-46.73 0h-60.531l-10.133 7.2695 0.5 7.5078h73.422l-0.45703-7.6992zm-68.691 37.047 0.97656 14.773h73.164l-0.875-14.773zm-251.05-59.32h25.25l-8.6523-43.938 17.387-12.82h25.59l-25.988 18.641 2.5195 38.117h66.391l-2.2656-38.293-9.332-23.641h-58.609l-32.289 23.816zm212.05 37.047h21.039l-2.7422-13.922 1.1602-0.85547h-9.6016l-9.8555 7.2695zm0 37.051h28.336l-2.9062-14.773h-25.426zm149.14-14.777h-23.402l-1.2031 14.773h28.18zm-8.9609-37.047h-7.9844l-4.0859 7.9062-0.55859 6.8711h16.203z"/>
</svg>