<?xml version="1.0" encoding="UTF-8"?>
<!-- The Best Svg Icon site in the world: iconSvg.co, Visit us! https://iconsvg.co -->
<svg fill="#000000" width="800px" height="800px" version="1.1" viewBox="144 144 512 512" xmlns="http://www.w3.org/2000/svg">
 <g>
  <path d="m350.59 503.64c-2.2578 0-4.5039-0.85156-6.2461-2.5664-1.6367-1.6094-2.5117-3.7188-2.6289-5.8359-0.40625-1.8828-1.9023-7.2617-2.918-10.934-0.875-3.1328-1.7383-6.2695-2.3633-8.6445-0.42969-1.6641-0.85156-3.25-1.0391-4.7734l-19.684-77.961-50.289-63.258c-3.2148-3.2383-5.0547-7.5039-5.2188-12.098-0.17969-4.8516 1.5469-9.4727 4.8477-13.012 6.8203-7.3281 18.324-7.7461 25.648-0.92969l56.707 53.676 28.262-44.051c2.4258-4.0898 6.2734-7.0078 10.867-8.2539 4.6758-1.2695 9.5625-0.63281 13.766 1.7773 4.2031 2.4141 7.2109 6.3125 8.4688 10.996 1.2305 4.543 0.66016 9.293-1.5859 13.418l-29.332 61.609 27.617 54.867 33.582-24.652 48.91-70.965c3.9844-8.5703 14.043-12.723 22.98-9.2578 9.332 3.6055 13.992 14.133 10.387 23.461-0.089844 0.23047-0.19141 0.45703-0.29297 0.67578l-34.027 70.102c-0.11328 0.23828-0.24219 0.46875-0.38281 0.69531l-30 49.805c-2.5273 4.1992-8 5.5586-12.203 3.0312-4.2031-2.5352-5.5625-7.9961-3.0352-12.199l29.789-49.457 33.582-69.191c0-0.15234-0.089843-0.28906-0.24219-0.35547-0.17578-0.0625-0.40625 0.027344-0.46875 0.21875-0.25391 0.64453-0.57031 1.2695-0.96484 1.8281l-50.254 72.906c-0.55859 0.8125-1.2578 1.5352-2.0586 2.1211l-43.27 31.762c-2.1094 1.5508-4.7852 2.082-7.3398 1.4727-2.5391-0.60938-4.6836-2.3086-5.8672-4.6445l-34.293-68.137c-1.2305-2.4492-1.2695-5.332-0.089844-7.8047l31.324-65.801c0.10156-0.20312 0.20312-0.40625 0.31641-0.60938 0.027344-0.039063 0.078125-0.125 0.039063-0.27734-0.039063-0.14062-0.125-0.19141-0.16406-0.21484-0.039062-0.027344-0.12891-0.078126-0.28125-0.039063-0.13672 0.039063-0.1875 0.125-0.21484 0.16406-0.074219 0.12891-0.15234 0.25391-0.22656 0.38281l-34.602 53.914c-1.8516 2.8945-5.2188 4.457-8.6328 4.0117-3.1758-0.41797-5.8672-2.5156-7.0586-5.4453l-61.898-58.602c-0.089844-0.089844-0.33203-0.074218-0.46875 0.078125-0.027344 0.035157-0.10156 0.11328-0.10156 0.26562s0.085938 0.22656 0.11328 0.25391c0.32812 0.30469 0.63281 0.63281 0.90234 0.97656l51.828 65.203c0.78516 0.98828 1.3438 2.1328 1.6641 3.3516l20.301 80.445c0.14062 0.54688 0.23047 1.1055 0.25391 1.6523 0.40625 1.8398 1.8789 7.1328 2.8711 10.738 0.875 3.1875 1.7656 6.375 2.3984 8.8008 1.2461 4.7578 2.3125 8.8711-1.4102 12.641-1.7383 1.7656-4.0352 2.6406-6.3242 2.6406zm-6.3984-15.043c-0.31641 0.32812-0.59375 0.67188-0.85156 1.0156 0.25781-0.35547 0.53516-0.69922 0.85156-1.0156zm7.0977-13.953c-0.14062 0.20312-0.30469 0.39453-0.45703 0.57031 0.16406-0.1875 0.31641-0.37891 0.45703-0.57031z"/>
  <path d="m201.7 623.86c-3.8594 0-7.4023-2.5273-8.5352-6.4258-1.3555-4.707 1.3594-9.6328 6.0703-11.004 46.219-13.367 114.89-21.469 188.4-22.215h0.089844c4.8633 0 8.8359 3.9219 8.8867 8.7969 0.050781 4.9102-3.8828 8.9219-8.7969 8.9727-71.969 0.73828-138.91 8.582-183.64 21.52-0.82812 0.24219-1.6523 0.35547-2.4766 0.35547z"/>
  <path d="m444.03 572.51c-4.2773 0-8.0625-3.1094-8.7617-7.4648l-10.258-63.438c-0.41797-2.625 0.35547-5.3047 2.1211-7.3125l15.246-17.238c3.2539-3.6836 8.8789-4.0234 12.547-0.77344 3.6836 3.25 4.0234 8.8594 0.77344 12.543l-12.453 14.09 9.5859 59.273c0.78516 4.8516-2.5156 9.4062-7.3516 10.195-0.48437 0.074219-0.95312 0.11328-1.4375 0.11328z"/>
  <path d="m502.84 533.74c-0.875 0-1.75-0.023438-2.6289-0.078126-14.918-0.82422-28.121-8.375-37.176-21.273-2.8203-4.0117-1.8555-9.5625 2.1719-12.379 4.0117-2.8164 9.5586-1.8555 12.379 2.1719 5.8672 8.3398 14.246 13.227 23.617 13.746 9.9648 0.54687 20.047-3.832 27.004-11.715 3.2539-3.6836 8.8633-4.0391 12.547-0.78906s4.0352 8.8633 0.78516 12.543c-9.9258 11.262-24.223 17.785-38.676 17.785z"/>
  <path d="m549.66 496.96c-10.512 0-20.965-2.2734-29.672-7.4648-4.2148-2.5156-5.5898-7.9727-3.0742-12.188s7.9727-5.5859 12.191-3.0742c16.441 9.8281 44.234 3.25 53.656-6.2305 10.957-11.047 17-25.695 17-41.262 0-8.4648-1.7891-16.68-5.332-24.41-2.043-4.4688-4.6602-8.6719-7.7578-12.492-3.0469-3.7461-2.5391-9.2422 1.1406-12.379 3.0742-2.6133 5.7266-5.6602 7.8594-9.0625 3.9766-6.3242 6.082-13.598 6.082-21.062 0-8.6055-2.7148-16.781-7.8438-23.652-3.875-5.1758-9.0039-9.3555-14.844-12.07-3.0742-1.4336-5.0664-4.4805-5.1289-7.8711-0.32031-15.312-6.4492-29.734-17.242-40.613-11.125-11.195-25.879-17.367-41.57-17.367-10.832 0-15.758 0.71094-23.555 4.9531-4.3164 2.3477-9.7109 0.75-12.051-3.5664-2.3477-4.3164-0.74609-9.7148 3.5703-12.051 11.121-6.043 19.184-7.1055 32.035-7.1055 20.453 0 39.703 8.0352 54.191 22.621 12.758 12.859 20.504 29.543 22.105 47.441 6.5 3.832 12.215 8.9375 16.746 15.004 7.4414 9.9648 11.375 21.824 11.375 34.289 0 10.805-3.0469 21.367-8.8125 30.52-1.625 2.5898-3.4648 5.0391-5.4844 7.3398 2.0195 3.1094 3.8086 6.3711 5.3477 9.7344 4.6094 10.055 6.9453 20.77 6.9453 31.816 0 20.285-7.875 39.391-22.156 53.789-9.8047 9.875-27.848 16.438-45.723 16.438z"/>
  <path d="m342.75 577.12c-0.32031 0-0.63672-0.011719-0.95312-0.050782-4.875-0.51953-8.418-4.9023-7.8984-9.7734l7.6953-71.906-0.90234-3.5664c-1.207-4.7617 1.6758-9.5859 6.4375-10.793 4.7617-1.2031 9.5859 1.6875 10.793 6.4375l1.293 5.1172c0.25391 1.0156 0.33203 2.0664 0.21875 3.1211l-7.8594 73.48c-0.48437 4.5547-4.3438 7.9453-8.8242 7.9453z"/>
  <path d="m294.2 523.28c-7.25 0-14.777-1.5234-21.902-4.7109-18.75-8.418-34.711-28.805-28.594-61.887-15.02 1.1523-28.312-3.4805-37.098-13.371-11.402-12.82-13.219-31.711-4.8516-50.562 1.9922-4.4805 7.2383-6.5117 11.73-4.5195 4.4844 1.9922 6.5156 7.2383 4.5234 11.73-5.4492 12.289-4.75 24.082 1.8906 31.547 6.9336 7.7969 19.098 9.7266 33.391 5.293 3.2031-0.98828 6.6797-0.10156 9.0039 2.3008 2.3359 2.3984 3.1094 5.9023 2.0312 9.0625-8.7852 25.695-3.0703 45.957 15.273 54.195 13.5 6.0547 29.332 3.3398 34.574-5.9414 2.4141-4.2773 7.8359-5.7773 12.113-3.3633 4.2812 2.4102 5.7773 7.832 3.3672 12.109-6.5664 11.605-20.395 18.117-35.414 18.117z"/>
  <path d="m231.98 384.92c-3.7344 0-7.4805-0.55859-11.238-1.6875-22.129-6.6641-34.598-30.344-35.121-31.344-6.2344-12.074-9.5352-25.645-9.5352-39.254 0-22.711 8.8008-44.09 24.785-60.188 16.012-16.137 37.293-25.023 59.918-25.023 4.9141 0 8.8867 3.9766 8.8867 8.8867 0 4.9141-3.9727 8.8867-8.8867 8.8867-17.852 0-34.652 7.0195-47.309 19.766-12.66 12.746-19.629 29.684-19.629 47.672 0 10.941 2.5391 21.391 7.5391 31.09 2.4023 4.6445 12.062 18.75 24.457 22.484 5.8125 1.75 11.504 0.98828 17.434-2.3008 4.2891-2.3867 9.6992-0.84766 12.086 3.4414 2.3867 4.293 0.85156 9.6992-3.4414 12.086-6.5625 3.6562-13.242 5.4844-19.973 5.4844z"/>
  <path d="m467.21 320.36c-4.9141 0-8.8867-3.9727-8.8867-8.8867 0-4.9141 3.9727-8.8867 8.8867-8.8867 0.76172 0 3.3398-1.1055 6.0156-4.3789 3.0508-3.7227 4.5742-8.2539 3.9141-11.527-1.8164-8.8867-5.7266-9.6094-17.852-10.59-1.043-0.085938-2.0859-0.16406-3.125-0.26562-2.5547-0.23047-4.8906-1.5625-6.3984-3.6445-1.5117-2.082-2.0312-4.707-1.4609-7.2109l0.49609-2.1055c5.5352-23.805 8.0625-34.672-10.59-53.461-9.957-10.016-23.16-15.539-37.18-15.539-11.043 0-21.582 3.4023-30.535 9.8398-6.4609 7.5156-12.57 15.008-15.91 19.082-3.3359 4.0859-5.75 7.0469-11.043 5.9648-29.117-6.1289-43.922 6.3086-47.781 18.828-2.6016 8.4688-0.63281 18.93 8.1641 22.535 4.5469 1.8633 6.7031 7.0586 4.8516 11.59-1.8555 4.5312-7.0586 6.7148-11.594 4.8359-16.469-6.7656-24.199-25.352-18.398-44.203 3.5312-11.477 11.582-20.973 22.664-26.738 11.137-5.8008 25.004-7.5781 40.34-5.2305 3.6562-4.4688 9.6367-11.766 15.91-19.043 0.41797-0.49219 0.90234-0.92578 1.4102-1.3164 12.199-9.1172 26.699-13.93 41.922-13.93 18.805 0 36.48 7.3906 49.801 20.797 22.828 23.004 21.66 41.031 17.062 62.219 10.719 1.5078 22.969 5.875 26.664 24.02 1.7383 8.543-1.0781 18.379-7.5547 26.316-5.6641 6.9297-12.875 10.914-19.781 10.914z"/>
  <path d="m596.51 623.91c-0.8125 0-1.6523-0.11328-2.4766-0.35547-47.41-13.711-118.46-21.57-194.93-21.57-3.7812 0-7.5508 0.027344-11.297 0.050781h-0.089844c-4.8633 0-8.8359-3.9219-8.8867-8.7969-0.050781-4.9102 3.8945-8.9258 8.7969-8.9766 3.7969-0.035156 7.6172-0.046875 11.465-0.046875 78.074 0 150.92 8.1094 199.86 22.266 4.7109 1.3594 7.4297 6.2969 6.0703 11.008-1.1289 3.8828-4.6719 6.4219-8.5312 6.4219z"/>
 </g>
</svg>