<?xml version="1.0" encoding="UTF-8"?>
<!-- The Best Svg Icon site in the world: iconSvg.co, Visit us! https://iconsvg.co -->
<svg fill="#000000" width="800px" height="800px" version="1.1" viewBox="144 144 512 512" xmlns="http://www.w3.org/2000/svg">
 <g>
  <path d="m628.65 581.12v-7.9414c-0.003907-5.375-1.8438-10.586-5.2148-14.777-3.3672-4.1875-8.0664-7.0977-13.316-8.2578l-114.71-221.18c12.988-22.457 17.637-48.773 13.129-74.32-4.5078-25.543-17.879-48.684-37.766-65.34s-45.012-25.762-70.953-25.719c-25.941 0.042968-51.035 9.2383-70.863 25.961-19.832 16.723-33.125 39.906-37.547 65.469-4.418 25.559 0.31641 51.859 13.379 74.273l-114.54 220.86c-5.25 1.1602-9.9492 4.0703-13.316 8.2578-3.3711 4.1914-5.2109 9.4023-5.2148 14.777v7.8711c-4.3477 0-7.875 3.5234-7.875 7.8711v7.875c0.015624 10.434 4.1641 20.438 11.543 27.816 7.3789 7.3789 17.383 11.531 27.82 11.543h393.6c10.434-0.011718 20.438-4.1641 27.816-11.543 7.3789-7.3789 11.531-17.383 11.543-27.816v-7.875c-0.035156-4.1797-3.332-7.6094-7.5117-7.8008zm-15.742-0.070312h-15.742l-0.003906-7.8711c0-4.3477 3.5273-7.8711 7.875-7.8711 4.3438 0 7.8711 3.5234 7.8711 7.8711zm-212.91-401.47c25.051 0 49.078 9.9531 66.793 27.668 17.719 17.715 27.668 41.742 27.668 66.797s-9.9492 49.082-27.668 66.797c-17.715 17.715-41.742 27.668-66.793 27.668-25.055 0-49.082-9.9531-66.797-27.668s-27.668-41.742-27.668-66.797c0.027344-25.047 9.9883-49.059 27.695-66.766 17.711-17.711 41.723-27.672 66.77-27.699zm0 204.67c33.086 0 64.418-14.891 85.316-40.547l108.33 208.91c-3.6914 2.0234-6.7734 4.9961-8.9219 8.6133-2.1523 3.6211-3.2969 7.7461-3.3086 11.957v7.8711h-23.617c9.4492-18.363 10.359-39.949 2.4922-59.039-7.8711-19.094-23.727-33.77-43.367-40.145-19.645-6.375-41.094-3.8008-58.676 7.0352-18.898-20.84-47.473-30.027-74.98-24.113l-4.9844-15.352v-0.046875l-12.137-37.406-14.957 4.8633 3.7852 11.652c-5.4023-1.2227-11.035-0.98438-16.316 0.69922l-22.465 7.2969h-0.003906c-4.1289 1.3438-6.3906 5.7812-5.0508 9.9102 2.5742 7.9492 8.207 14.543 15.648 18.34 7.4414 3.793 16.086 4.4766 24.031 1.8945l14.957-4.8711 2.5586 7.8711v-0.003906c-10.078 4.4414-19.102 10.961-26.48 19.137-17.621-10.668-39.016-13.121-58.594-6.7148s-35.387 21.031-43.289 40.055c-7.9062 19.02-7.1172 40.543 2.1523 58.938h-23.184v-7.8711c-0.015625-4.2109-1.1562-8.3398-3.3125-11.961-2.1523-3.6172-5.2422-6.5898-8.9375-8.6094l108.21-208.61h0.003906c20.902 25.488 52.133 40.258 85.098 40.25zm-139.48 196.8c-9.6172-13.703-12.465-31.043-7.7344-47.105 4.7305-16.059 16.52-29.09 32.027-35.395 15.508-6.3086 33.043-5.207 47.641 2.9922-7.1797 11.996-11.02 25.695-11.125 39.676-0.10156 13.977 3.5352 27.73 10.535 39.832zm90.418 0c-11.684-14.566-16.297-33.566-12.59-51.867 3.7109-18.301 15.352-34.012 31.785-42.883 16.43-8.8672 35.949-9.9844 53.285-3.043 17.336 6.9414 30.691 21.223 36.461 38.98 6.457 20.191 2.3672 42.273-10.891 58.812zm123.91-63.676c-1.8125-5.5312-4.2344-10.84-7.2188-15.832 3.1211-1.7734 6.4023-3.2422 9.8086-4.3828 14.727-4.8125 30.805-3.1914 44.277 4.4688 13.469 7.6602 23.086 20.645 26.484 35.766 3.3984 15.117 0.26172 30.969-8.6367 43.656h-71.637c11.191-19.297 13.703-42.426 6.9219-63.676zm-115.97-69.93-12.965 4.2109v0.003906c-5.3477 1.7305-11.211 0.48438-15.391-3.2773l12.965-4.2109c5.3477-1.7344 11.215-0.48438 15.391 3.2734zm-171.42 125.73c0-4.3477 3.5234-7.8711 7.8711-7.8711 4.3477 0 7.875 3.5234 7.875 7.8711v7.8711h-15.746zm409.34 47.23h-393.6c-6.2656 0-12.273-2.4883-16.699-6.9141-4.4297-4.4297-6.918-10.438-6.918-16.699h440.83c0 6.2617-2.4883 12.27-6.9141 16.699-4.4297 4.4258-10.438 6.9141-16.699 6.9141z"/>
  <path d="m404.45 297.25c6.8359-1.2969 12.75-5.5508 16.156-11.621 3.4062-6.0664 3.9531-13.332 1.4961-19.844-2.4531-6.5078-7.6641-11.602-14.227-13.91v-25.066c0-2.0859-0.82812-4.0898-2.3047-5.5664-1.4766-1.4766-3.4805-2.3047-5.5664-2.3047-4.3477 0-7.875 3.5234-7.875 7.8711v25.066c-7.5664 2.6484-13.27 8.9648-15.137 16.766-1.8633 7.8008 0.36719 16.012 5.918 21.801 5.5547 5.7852 13.668 8.3516 21.539 6.8086zm-4.4453-31.078c3.1836 0 6.0547 1.918 7.2695 4.8594 1.2188 2.9414 0.54688 6.3242-1.7031 8.5781-2.2539 2.25-5.6406 2.9258-8.582 1.707s-4.8594-4.0898-4.8594-7.2734c0-4.3477 3.5273-7.8711 7.875-7.8711z"/>
  <path d="m400 352.77c20.875 0 40.898-8.293 55.664-23.055 14.762-14.766 23.055-34.785 23.055-55.664s-8.293-40.902-23.055-55.664c-14.766-14.762-34.789-23.059-55.664-23.059-20.879 0-40.902 8.2969-55.664 23.059-14.766 14.762-23.059 34.785-23.059 55.664 0.023437 20.871 8.3242 40.879 23.082 55.637 14.758 14.758 34.77 23.059 55.641 23.082zm0-141.7c16.699 0 32.719 6.6328 44.531 18.445 11.809 11.809 18.445 27.828 18.445 44.531s-6.6367 32.719-18.445 44.531c-11.812 11.809-27.832 18.445-44.531 18.445-16.703 0-32.723-6.6367-44.531-18.445-11.812-11.812-18.445-27.828-18.445-44.531 0.019531-16.699 6.6602-32.703 18.465-44.512 11.805-11.805 27.812-18.445 44.512-18.465z"/>
 </g>
</svg>