<?xml version="1.0" encoding="UTF-8"?>
<!-- The Best Svg Icon site in the world: iconSvg.co, Visit us! https://iconsvg.co -->
<svg fill="#000000" width="800px" height="800px" version="1.1" viewBox="144 144 512 512" xmlns="http://www.w3.org/2000/svg">
 <path d="m384.25 393.48-20.355-20.355c-6.1406-6.1406-16.121-6.1406-22.262 0s-6.1406 16.121 0 22.262l42.617 42.617v97.977l-20.355-20.355c-6.1406-6.1562-16.121-6.1562-22.262 0-6.1406 6.1406-6.1406 16.121 0 22.262l42.617 42.617v39.91c0 8.6914 7.0547 15.742 15.742 15.742 8.6914 0 15.742-7.0547 15.742-15.742v-39.832l42.051-42.051c6.1406-6.1406 6.1406-16.121 0-22.262-6.1406-6.1406-16.121-6.1406-22.262 0l-19.789 19.789v-97.977l42.051-42.051c6.1406-6.1406 6.1406-16.121 0-22.262-6.1406-6.1406-16.121-6.1406-22.262 0l-19.789 19.789v-9.3047c0-8.6914-7.0547-15.742-15.742-15.742-8.6914 0-15.742 7.0547-15.742 15.742zm-177.15 12.973c-4.375 0.92969-8.1562 3.668-10.391 7.543-2.2344 3.8711-2.7227 8.5156-1.3398 12.77 0 0 11.398 34.699 26.371 60.238 7.6992 13.145 16.719 23.82 25.285 28.766 16.469 9.5078 41.645 13.539 62.598 9.1797 16.168-3.3711 29.727-11.652 37.062-24.355 7.3359-12.723 7.7461-28.59 2.5664-44.289-6.6914-20.324-22.781-40.102-39.25-49.609-8.5664-4.9453-22.324-7.4297-37.551-7.5273-29.613-0.1875-65.355 7.2891-65.355 7.2891zm396.78 20.309c1.4023-4.25 0.91406-8.8945-1.3242-12.77-2.2344-3.8711-6.0156-6.6133-10.391-7.543 0 0-35.738-7.4766-65.355-7.2891-15.242 0.09375-28.984 2.582-37.551 7.5273-16.469 9.5078-32.559 29.285-39.25 49.609-5.1797 15.695-4.7695 31.566 2.5664 44.289 7.3359 12.707 20.875 20.988 37.062 24.355 20.957 4.3594 46.129 0.33203 62.598-9.1797 8.5664-4.9453 17.586-15.617 25.285-28.766 14.973-25.535 26.355-60.238 26.355-60.238zm-36.18 7.3516c-3.1172 7.9336-7.2266 17.68-11.949 27.031-5.9023 11.668-12.121 23.238-19.254 27.348-10.629 6.1406-26.922 8.4375-40.43 5.6211-6.8164-1.418-13.129-3.9219-16.215-9.2734-3.1016-5.3516-2.1094-12.074 0.0625-18.688 4.3281-13.113 14.469-26.055 25.098-32.195 7.1328-4.125 20.246-3.7305 33.312-3.0078 10.469 0.58203 20.957 1.8906 29.379 3.1641zm-336.14 0c8.4219-1.2734 18.91-2.582 29.379-3.1641 13.051-0.72266 26.184-1.1172 33.312 3.0078 10.629 6.1406 20.766 19.082 25.098 32.195 2.1719 6.6133 3.1484 13.336 0.0625 18.688-3.0859 5.3516-9.3984 7.8555-16.215 9.2734-13.523 2.8164-29.805 0.51953-40.43-5.6211-7.1328-4.1094-13.367-15.68-19.254-27.348-4.7227-9.3516-8.8477-19.098-11.949-27.031zm-24.465-170.14c-4.375 0.91406-8.1562 3.6523-10.391 7.5273-2.2344 3.8711-2.7227 8.5156-1.3398 12.77 0 0 11.398 34.699 26.371 60.254 7.6992 13.129 16.719 23.805 25.285 28.75 16.469 9.5078 41.645 13.555 62.598 9.1953 16.168-3.3711 29.727-11.652 37.062-24.371 7.3359-12.707 7.7461-28.59 2.5664-44.273-6.6914-20.324-22.781-40.117-39.25-49.625-8.5664-4.9453-22.324-7.4141-37.551-7.5273-29.613-0.1875-65.355 7.3047-65.355 7.3047zm396.78 20.293c1.4023-4.25 0.91406-8.8945-1.3242-12.77-2.2344-3.8711-6.0156-6.6133-10.391-7.5273 0 0-35.738-7.4961-65.355-7.3047-15.242 0.10938-28.984 2.582-37.551 7.5273-16.469 9.5078-32.559 29.301-39.25 49.625-5.1797 15.68-4.7695 31.566 2.5664 44.273 7.3359 12.723 20.875 21.004 37.062 24.371 20.957 4.3594 46.129 0.31641 62.598-9.1953 8.5664-4.9453 17.586-15.617 25.285-28.75 14.973-25.551 26.355-60.254 26.355-60.254zm-36.18 7.3516c-3.1172 7.9492-7.2266 17.68-11.949 27.031-5.9023 11.668-12.121 23.238-19.254 27.348-10.629 6.1406-26.922 8.4375-40.43 5.6367-6.8164-1.4336-13.129-3.9375-16.215-9.2891-3.1016-5.3516-2.1094-12.074 0.0625-18.672 4.3281-13.113 14.469-26.07 25.098-32.211 7.1328-4.1094 20.246-3.7305 33.312-3.0078 10.469 0.58203 20.957 1.8906 29.379 3.1641zm-336.14 0c8.4219-1.2734 18.91-2.582 29.379-3.1641 13.051-0.72266 26.184-1.1016 33.312 3.0078 10.629 6.1406 20.766 19.098 25.098 32.211 2.1719 6.5977 3.1484 13.32 0.0625 18.672-3.0859 5.3516-9.3984 7.8555-16.215 9.2891-13.523 2.8008-29.805 0.50391-40.43-5.6367-7.1328-4.1094-13.367-15.68-19.254-27.348-4.7227-9.3516-8.8477-19.082-11.949-27.031zm180.14-122.55c-2.9766-3.3203-7.2422-5.2266-11.715-5.2266s-8.7383 1.9062-11.715 5.2266c0 0-24.371 27.223-38.996 52.965-7.543 13.242-12.266 26.387-12.266 36.273 0 19.02 9.0859 42.84 23.348 58.805 11.004 12.328 24.953 19.918 39.629 19.918 14.672 0 28.621-7.5898 39.629-19.918 14.266-15.965 23.348-39.785 23.348-58.805 0-9.8867-4.7227-23.035-12.266-36.273-14.625-25.742-38.996-52.965-38.996-52.965zm-11.715 35.016c5.3203 6.6758 11.699 15.098 17.43 23.867 7.1641 10.941 14.059 22.121 14.059 30.355 0 12.266-6.1406 27.535-15.352 37.832-4.6289 5.1953-9.9492 9.3984-16.137 9.3984s-11.508-4.2031-16.137-9.3984c-9.2109-10.297-15.352-25.566-15.352-37.832 0-8.2344 6.8945-19.414 14.059-30.355 5.7305-8.7695 12.105-17.191 17.43-23.867z" fill-rule="evenodd"/>
</svg>