<?xml version="1.0" encoding="UTF-8"?>
<!-- The Best Svg Icon site in the world: iconSvg.co, Visit us! https://iconsvg.co -->
<svg fill="#000000" width="800px" height="800px" version="1.1" viewBox="144 144 512 512" xmlns="http://www.w3.org/2000/svg">
 <path d="m406.99 322.36v-11.961c3.6562 0.4375 9.8359 1.0078 17.461 1.0078 19.02 0 46.719-3.5586 64.758-21.59 29.125-29.125 20.484-83.449 20.102-85.754-0.35156-2.125-2.0156-3.7891-4.1406-4.1406-2.3008-0.38281-56.617-9.0273-85.754 20.102-8.9375 8.9375-14.309 20.254-17.461 31.711-3.1523-11.457-8.5234-22.773-17.469-31.711-29.137-29.137-83.449-20.488-85.754-20.102-2.125 0.35156-3.7891 2.0156-4.1406 4.1406-0.38281 2.2969-9.0195 56.625 20.102 85.754 18.035 18.035 45.734 21.59 64.758 21.59 7.6172 0 13.801-0.57031 17.457-1.0078v11.949c-74.766 2.5586-134.81 64.145-134.81 139.52 0.003906 77 62.645 139.65 139.65 139.65 77.004 0 139.65-62.648 139.65-139.64-0.007812-75.246-59.828-136.75-134.41-139.52zm19.551-95.215c21.453-21.445 61.098-19.094 73.301-17.754 1.3242 12.219 3.6914 51.848-17.754 73.301-21.457 21.445-61.082 19.07-73.301 17.75-1.3359-12.207-3.7422-51.801 17.754-73.297zm-31.426 73.297c-12.207 1.3516-51.797 3.7344-73.301-17.754-21.445-21.453-19.078-61.082-17.754-73.301 12.227-1.3398 51.848-3.6875 73.301 17.754 21.457 21.453 19.078 61.09 17.754 73.301zm6.6289 291c-71.445 0-129.57-58.125-129.57-129.57 0-71.449 58.125-129.57 129.57-129.57 71.449 0 129.57 58.125 129.57 129.57-0.003906 71.445-58.129 129.57-129.57 129.57z"/>
</svg>