<?xml version="1.0" encoding="UTF-8"?>
<!-- The Best Svg Icon site in the world: iconSvg.co, Visit us! https://iconsvg.co -->
<svg fill="#000000" width="800px" height="800px" version="1.1" viewBox="144 144 512 512" xmlns="http://www.w3.org/2000/svg">
 <g>
  <path d="m184.96 342.42c-3.1523 0-6.207-1.6836-7.8125-4.6602-2.332-4.3008-0.72266-9.6836 3.5938-12l275.51-148.61c2.6953-1.457 5.9648-1.4062 8.6211 0.11328 54.473 31.32 98.789 68.719 128.19 108.14 3.5078 4.6953 6.8125 9.4453 9.8359 14.102 1.9141 2.9492 3.7734 5.9531 5.5352 8.9258 2.4805 4.2148 1.0898 9.6484-3.1289 12.141-4.2148 2.4844-9.6484 1.0898-12.141-3.125-1.6328-2.7617-3.3555-5.5469-5.1289-8.2812-2.8242-4.3438-5.9141-8.7734-9.1797-13.164-27.199-36.488-68.121-71.301-118.55-100.9l-271.14 146.26c-1.3438 0.72266-2.7852 1.0625-4.2031 1.0625z"/>
  <path d="m233.16 351.9c-4.9023 0-8.8633-3.9648-8.8633-8.8633 0-4.8984 3.9609-8.8633 8.8633-8.8633h196.26c4.9023 0 8.8633 3.9648 8.8633 8.8633 0 4.8984-3.9609 8.8633-8.8633 8.8633z"/>
  <path d="m614.73 353.57h-0.25391l-58.359-1.6719c-4.8867-0.14062-8.7461-4.2148-8.6094-9.1172 0.14062-4.8984 4.2188-8.7227 9.1172-8.6094l58.359 1.6719c4.8867 0.14062 8.75 4.2188 8.6094 9.1172-0.14062 4.8086-4.0781 8.6094-8.8516 8.6094z"/>
  <path d="m614.73 623.9h-53.914c-2.7109 0-5.2773-1.2422-6.9492-3.3672-1.6836-2.1289-2.293-4.9141-1.6602-7.5469 0.51953-2.1758 0.78516-4.4062 0.78516-6.6445 0-15.727-12.789-28.512-28.516-28.512-15.727 0-28.512 12.785-28.512 28.512 0 2.2383 0.26562 4.4688 0.78125 6.6445 0.63672 2.6328 0.015625 5.418-1.6562 7.5469-1.6836 2.125-4.2422 3.3672-6.9531 3.3672h-301.25c-4.9023 0-8.8633-3.9648-8.8633-8.8633v-152.11c0-2.9102 1.4297-5.6445 3.8359-7.293 2.3945-1.6562 5.457-2.0234 8.1797-0.98828 3.2266 1.2305 6.6328 1.8516 10.129 1.8516 15.727 0 28.516-12.789 28.516-28.512 0-15.723-12.789-28.512-28.516-28.512-3.4961 0-6.9023 0.62109-10.117 1.8516-2.6719 1.0117-5.6836 0.68359-8.0664-0.91406-2.3789-1.582-3.8477-4.2266-3.9492-7.0898l-1.9258-59.477c-0.16406-4.8867 3.6875-8.9883 8.5742-9.1406 4.8867-0.16406 8.9883 3.6875 9.1406 8.5742l1.582 48.715c1.5703-0.16797 3.168-0.24219 4.7617-0.24219 25.5 0 46.242 20.738 46.242 46.234 0 25.496-20.742 46.234-46.242 46.234-1.4805 0-2.9492-0.0625-4.4062-0.20312v132.17h282.47c0.089844-25.422 20.793-46.07 46.242-46.07 25.453 0 46.152 20.648 46.242 46.07h35.16v-261.47c0-4.8984 3.9648-8.8594 8.8672-8.8594 4.8984 0 8.8633 3.9609 8.8633 8.8594v270.33c0 4.8984-3.9648 8.8633-8.8633 8.8633z"/>
  <path d="m277.94 582.08c-24.957 0-45.254-20.293-45.254-45.246 0-24.953 20.297-45.246 45.254-45.246 24.957 0 45.254 20.293 45.254 45.246 0 24.953-20.297 45.246-45.254 45.246zm0-72.77c-15.184 0-27.527 12.344-27.527 27.523 0 15.18 12.344 27.523 27.527 27.523 15.18 0 27.527-12.344 27.527-27.523 0-15.18-12.348-27.523-27.527-27.523z"/>
  <path d="m403.27 518.02c-20.613 0-37.391-16.773-37.391-37.383 0-20.613 16.777-37.387 37.391-37.387s37.391 16.773 37.391 37.387c0 20.609-16.777 37.383-37.391 37.383zm0-57.043c-10.84 0-19.664 8.8242-19.664 19.66s8.8242 19.66 19.664 19.66c10.836 0 19.664-8.8242 19.664-19.66s-8.8281-19.66-19.664-19.66z"/>
  <path d="m301.75 435.59c-17.285 0-31.352-14.066-31.352-31.348s14.066-31.332 31.352-31.332c17.281 0 31.352 14.051 31.352 31.332s-14.07 31.348-31.352 31.348zm0-44.957c-7.5078 0-13.625 6.1016-13.625 13.609 0 7.5078 6.1172 13.621 13.625 13.621 7.5078 0 13.625-6.1133 13.625-13.621 0-7.5078-6.1172-13.609-13.625-13.609z"/>
  <path d="m556.69 542.52c-16.852 0-30.555-13.711-30.555-30.547 0-16.84 13.715-30.551 30.555-30.551s30.555 13.711 30.555 30.551c0 16.836-13.715 30.547-30.555 30.547zm0-43.387c-7.0781 0-12.824 5.7617-12.824 12.824 0 7.0664 5.7578 12.824 12.824 12.824s12.828-5.7578 12.828-12.824c0-7.0625-5.7617-12.824-12.828-12.824z"/>
  <path d="m491.04 392.14c-24.953 0-45.254-20.297-45.254-45.25 0-24.949 20.301-45.246 45.254-45.246 24.957 0 45.254 20.297 45.254 45.246 0 24.953-20.297 45.25-45.254 45.25zm0-72.77c-15.18 0-27.523 12.344-27.523 27.52 0 15.18 12.344 27.523 27.523 27.523 15.184 0 27.527-12.344 27.527-27.523 0-15.176-12.344-27.52-27.527-27.52z"/>
 </g>
</svg>