<?xml version="1.0" encoding="UTF-8"?>
<!-- The Best Svg Icon site in the world: iconSvg.co, Visit us! https://iconsvg.co -->
<svg fill="#000000" width="800px" height="800px" version="1.1" viewBox="144 144 512 512" xmlns="http://www.w3.org/2000/svg">
 <path d="m386.55 598.78c0.53906 0.19141 1.0742 0.39453 1.6172 0.57031 0.10156 0.035157 0.21094 0.074219 0.3125 0.10938 0.070313 0.019531 0.13672 0.015624 0.20703 0.035156 4.7109 1.4492 9.5273 2.2305 14.305 2.2305 4.5352 0 9.0273-0.66016 13.34-1.9961 16.359-5.0547 41.324-20.445 67.355-65.078 24.305-41.676 29.16-93.508 28.949-129.64-0.22266-38.969-6.0469-67.766-6.2969-68.977-0.32422-1.5703-1.375-2.8984-2.832-3.5664-1.4609-0.67188-3.1484-0.60547-4.5547 0.17969-0.71094 0.39844-12.148 6.8281-28.34 18.383l-7.2617-92.902c-2.1211-33.344-29.953-59.461-63.359-59.461s-61.242 26.117-63.363 59.484l-5.3789 91.543c-14.973-10.543-25.523-16.496-26.52-17.051-1.4023-0.77734-3.0938-0.83984-4.5547-0.17969-1.4609 0.67188-2.5156 1.9961-2.832 3.5664-0.24609 1.2109-6.0703 30.008-6.2969 68.977-0.20703 36.137 4.6445 87.965 28.953 129.64 24.387 41.84 49.309 57.996 66.551 64.133zm88.422-69.199c-24.395 41.832-46.977 56.004-61.621 60.523-7.0703 2.1914-14.812 2.0117-22.219-0.38672-0.62891-0.21094-1.2734-0.43359-1.9648-0.69141-0.80078-0.30859-1.6016-0.60547-2.3867-0.96875-8.6602-3.9336-15.41-10.566-19.016-18.668-6.2266-14.008-10.41-40.34 5.0391-86.223 24.094-71.551 102.29-124.08 124.88-138.04 4.1602 26.156 15.344 119.2-22.715 184.46zm-128.29-270.8c0.31641-5.0234 1.3555-9.8359 2.9688-14.379h27.195v28.496h-30.988zm76.109 101.34h35.562c-5.1094 3.9336-10.484 8.2578-15.996 12.957-6.1953 5.2852-12.836 11.32-19.562 17.961l0.003906-30.918zm-79.801-38.574h33.852v28.496h-35.523zm43.926 0h25.805v28.496h-25.805zm70.488-10.074h-34.613v-28.496h32.387zm-44.688 0h-25.805v-28.496h25.805zm10.074 10.074h35.398l2.2266 28.496h-37.625zm30.504-62.688 1.0977 14.047h-31.594v-28.496h27.52c1.6094 4.5586 2.6523 9.4023 2.9766 14.449zm-40.578 14.039h-25.805v-28.496h25.805zm-35.875 10.078v28.496h-33.258l1.6719-28.496zm0 77.145v26.922c-10.82-10.332-21.625-19.352-31.465-26.922zm10.074 0h25.805v41.312c-3.6523 3.9336-7.2734 8.0469-10.836 12.332-4.8555-5.8398-9.875-11.402-14.965-16.688v-36.957zm58.582-125.79h-22.707v-20.375c9.3789 4.4609 17.289 11.543 22.707 20.375zm-32.699-23.949c-0.011719 0.13281-0.074219 0.24609-0.074219 0.38281v23.566h-25.805v-23.566c0-0.10547-0.054688-0.19531-0.058594-0.30078 4.2188-1.0742 8.6016-1.7031 13.129-1.7031 4.4102 0.003906 8.6875 0.59766 12.809 1.6211zm-35.957 3.7266v20.223h-22.383c5.3516-8.7227 13.148-15.754 22.383-20.223zm-70.867 131.03c15.496 9.5508 57.152 37.238 89.465 76.684-13.254 17.215-24.988 36.781-32.184 58.145-14.137 41.984-12.59 69.203-7.4766 85.98-8.6367-8.793-17.875-20.555-27.09-36.359-38.027-65.203-26.855-158.31-22.715-184.45z"/>
</svg>