<?xml version="1.0" encoding="UTF-8"?>
<!-- The Best Svg Icon site in the world: iconSvg.co, Visit us! https://iconsvg.co -->
<svg fill="#000000" width="800px" height="800px" version="1.1" viewBox="144 144 512 512" xmlns="http://www.w3.org/2000/svg">
 <g>
  <path d="m356.51 297.11c0 24.012 19.531 43.543 43.539 43.543s43.539-19.531 43.539-43.543c0-24.008-19.527-43.539-43.539-43.539-24.008 0-43.539 19.531-43.539 43.539zm43.543-33.457c18.449 0 33.465 15.008 33.465 33.465 0 18.453-15.008 33.469-33.465 33.469-18.453 0-33.465-15.008-33.465-33.469 0-18.457 15.012-33.465 33.465-33.465z"/>
  <path d="m405.09 228.86v-23.711c0-2.7852-2.2578-5.0391-5.0391-5.0391s-5.0391 2.2539-5.0391 5.0391v23.711c0 2.7852 2.2578 5.0391 5.0391 5.0391s5.0391-2.2539 5.0391-5.0391z"/>
  <path d="m358.89 214.73c-1.375-2.418-4.457-3.2656-6.8711-1.8828-2.418 1.375-3.2578 4.457-1.8828 6.8711l11.738 20.598c0.92578 1.6289 2.6289 2.543 4.3828 2.543 0.84766 0 1.7031-0.21094 2.4883-0.66016 2.418-1.375 3.2578-4.457 1.8828-6.8711z"/>
  <path d="m343.9 258-20.398-12.082c-2.4023-1.4141-5.4883-0.625-6.9023 1.7695-1.4219 2.3984-0.62891 5.4883 1.7695 6.9023l20.398 12.082c0.80469 0.48047 1.6875 0.70703 2.5625 0.70703 1.7227 0 3.4023-0.88281 4.3359-2.4688 1.418-2.4023 0.62891-5.4922-1.7656-6.9102z"/>
  <path d="m308.11 290.54c-2.7422 0-4.9883 2.2031-5.0391 4.9531-0.046875 2.7812 2.1719 5.0742 4.9531 5.125l23.703 0.39453h0.085938c2.7422 0 4.9883-2.2031 5.0391-4.9531 0.046875-2.7812-2.1719-5.0742-4.9531-5.125l-23.703-0.39453h-0.085937z"/>
  <path d="m337.78 325.49-20.789 11.402c-2.4375 1.3398-3.3359 4.3984-1.9961 6.8359 0.91797 1.6719 2.6406 2.6211 4.4219 2.6211 0.82031 0 1.6484-0.19531 2.418-0.62109l20.789-11.402c2.4375-1.3398 3.3359-4.3984 1.9961-6.8359-1.3359-2.4453-4.3945-3.3477-6.8398-2z"/>
  <path d="m349.24 379.73c0.82812 0.50781 1.7344 0.74609 2.6367 0.74609 1.6914 0 3.3438-0.85156 4.2969-2.4023l12.418-20.199c1.457-2.3672 0.71484-5.4727-1.6523-6.9258-2.3711-1.4609-5.4727-0.72656-6.9336 1.6523l-12.418 20.199c-1.4531 2.3633-0.71484 5.4727 1.6523 6.9297z"/>
  <path d="m392.74 365.15-0.78906 23.695c-0.097656 2.7812 2.0859 5.1133 4.8672 5.1992 0.054688 0.003906 0.10938 0.003906 0.17188 0.003906 2.707 0 4.9414-2.1445 5.0312-4.8711l0.78906-23.695c0.097656-2.7812-2.0859-5.1133-4.8672-5.1992-2.6719-0.26562-5.1094 2.082-5.2031 4.8672z"/>
  <path d="m429.5 353.04c-2.4648 1.293-3.4062 4.3438-2.1094 6.8047l11.047 20.98c0.90234 1.7148 2.6484 2.6914 4.4648 2.6914 0.78906 0 1.5938-0.1875 2.3438-0.57812 2.4648-1.293 3.4062-4.3438 2.1094-6.8047l-11.047-20.98c-1.2969-2.4609-4.332-3.4102-6.8086-2.1133z"/>
  <path d="m453.33 331.11c-1.4961 2.3477-0.8125 5.4609 1.5352 6.957l19.984 12.758c0.83984 0.53516 1.7773 0.78906 2.707 0.78906 1.6641 0 3.2891-0.82031 4.2539-2.3281 1.4961-2.3477 0.8125-5.4609-1.5352-6.957l-19.984-12.758c-2.3477-1.4922-5.4609-0.80469-6.9609 1.5391z"/>
  <path d="m463.18 300.27c-0.14063 2.7812 2 5.1445 4.7812 5.2852l23.68 1.1836c0.085937 0.003906 0.17188 0.003906 0.25781 0.003906 2.6641 0 4.8906-2.0898 5.0273-4.7852 0.14062-2.7812-2-5.1445-4.7812-5.2852l-23.68-1.1836c-2.668-0.15625-5.1484 1.9922-5.2852 4.7812z"/>
  <path d="m479.84 251.12-21.16 10.695c-2.4844 1.2539-3.4766 4.2891-2.2227 6.7695 0.88672 1.7578 2.6602 2.7656 4.5039 2.7656 0.76172 0 1.543-0.17187 2.2656-0.53906l21.16-10.695c2.4844-1.2539 3.4766-4.2891 2.2227-6.7695-1.2578-2.4883-4.293-3.4961-6.7695-2.2266z"/>
  <path d="m453.58 216.22c-2.3242-1.5352-5.4531-0.90234-6.9844 1.4219l-13.09 19.77c-1.5352 2.3164-0.90234 5.4453 1.4219 6.9844 0.85547 0.5625 1.8242 0.83594 2.7773 0.83594 1.6328 0 3.2383-0.78906 4.207-2.2578l13.09-19.77c1.5391-2.3164 0.90234-5.4453-1.4219-6.9844z"/>
  <path d="m597.11 601.52c1.2891 0 2.5781-0.49219 3.5625-1.4766 1.9688-1.9688 1.9688-5.1523 0-7.125-21.754-21.754-44.773-40.777-68.32-57.445 21.461-7.5938 43.59-14.289 65.969-19.824 2.6992-0.67188 4.3477-3.4023 3.6797-6.1016-0.67188-2.6992-3.4102-4.3477-6.1016-3.6797-25.078 6.2031-49.887 13.793-73.777 22.523-12.695-8.5703-25.512-16.465-38.344-23.75 36.77-13.859 75.16-24.758 114.29-32.34 2.7305-0.52344 4.5156-3.1758 3.9883-5.9062-0.52734-2.7305-3.1758-4.5234-5.9062-3.9844-42.527 8.2383-84.219 20.297-123.92 35.832-14.629-7.8906-29.23-15.008-43.641-21.41 67.375-27.867 128.81-40.379 169.2-45.953 2.7539-0.37891 4.6797-2.9219 4.3008-5.6797-0.38281-2.7617-2.9375-4.7148-5.6797-4.3008-42.777 5.8984-108.8 19.438-180.68 50.391-16.793-7.043-33.246-13.156-49.102-18.434 119.64-55.781 229.55-61.074 230.68-61.125 2.7812-0.11719 4.9375-2.4648 4.8203-5.2461-0.11719-2.7852-2.4883-5.0391-5.2461-4.8203-1.1797 0.050781-118.98 5.6523-244.25 66.684-83.527-25.953-147.09-29.125-148.3-29.176-2.7305-0.17969-5.1289 2.0352-5.2461 4.8203-0.11719 2.7812 2.0391 5.1289 4.8203 5.2461 2.2812 0.10156 230.37 11.547 389.62 170.8 0.98828 0.98828 2.2773 1.4844 3.5664 1.4844z"/>
  <path d="m522.13 601.53c1.4648 0 2.918-0.63672 3.9102-1.8594 1.7539-2.1562 1.4297-5.332-0.73047-7.082-115.86-94.27-250.52-124.52-320.48-134.16-2.7422-0.41797-5.3008 1.543-5.6797 4.3008-0.37891 2.7539 1.5469 5.3008 4.3008 5.6797 68.918 9.5 201.54 39.285 315.5 132 0.93359 0.75781 2.0586 1.125 3.1797 1.125z"/>
  <path d="m437.51 601.52c1.6562 0 3.2734-0.8125 4.2383-2.3086 1.5078-2.3359 0.83594-5.457-1.5-6.9688-85.688-55.242-175.17-80.688-235.14-92.312-2.7344-0.54297-5.375 1.2539-5.9062 3.9844-0.52734 2.7305 1.2578 5.375 3.9883 5.9062 59.105 11.453 147.27 36.52 231.6 90.898 0.83594 0.53906 1.7852 0.80078 2.7227 0.80078z"/>
  <path d="m205.35 543.39c-2.6992-0.65625-5.4375 0.97656-6.1016 3.6797-0.67188 2.6992 0.97656 5.4297 3.6797 6.1016 47.297 11.699 92.449 27.926 134.2 48.234 0.71094 0.34375 1.4609 0.50781 2.2031 0.50781 1.8672 0 3.6641-1.043 4.5352-2.832 1.2148-2.5039 0.17578-5.5234-2.3281-6.7344-42.391-20.617-88.215-37.09-136.19-48.957z"/>
 </g>
</svg>