<?xml version="1.0" encoding="UTF-8"?>
<!-- The Best Svg Icon site in the world: iconSvg.co, Visit us! https://iconsvg.co -->
<svg fill="#000000" width="800px" height="800px" version="1.1" viewBox="144 144 512 512" xmlns="http://www.w3.org/2000/svg">
 <path d="m423.5 340.09c0-12.961-10.543-23.504-23.504-23.504s-23.504 10.543-23.504 23.504c-0.003906 12.965 10.539 23.508 23.504 23.508 12.961 0 23.504-10.543 23.504-23.508zm-23.504 13.43c-7.4062 0-13.43-6.0234-13.43-13.43 0-7.4023 6.0234-13.43 13.43-13.43s13.43 6.0234 13.43 13.43c-0.003907 7.4062-6.0273 13.43-13.43 13.43zm-166.26 1.6875c-10.941 0-19.844 8.8984-19.844 19.844 0 10.941 8.8984 19.844 19.844 19.844 10.941 0 19.844-8.8984 19.844-19.844 0-10.945-8.9023-19.844-19.844-19.844zm0 29.605c-5.3867 0-9.7656-4.3828-9.7656-9.7656 0-5.3867 4.3828-9.7656 9.7656-9.7656 5.3867 0 9.7656 4.3828 9.7656 9.7656 0 5.3867-4.3789 9.7656-9.7656 9.7656zm332.52-29.605c-10.941 0-19.844 8.8984-19.844 19.844 0 10.941 8.8984 19.844 19.844 19.844 10.941 0 19.844-8.8984 19.844-19.844 0-10.945-8.9023-19.844-19.844-19.844zm0 29.605c-5.3867 0-9.7656-4.3828-9.7656-9.7656 0-5.3867 4.3789-9.7656 9.7656-9.7656 5.3867 0 9.7656 4.3828 9.7656 9.7656 0 5.3867-4.3789 9.7656-9.7656 9.7656zm69.215 127.84h-55.867v-12.379l10.586-10.586c0.43359 0.011719 0.91406 0.015626 1.4453 0.015626 7.6562 0 24.887-1.3477 36.082-12.551 14.449-14.453 12.508-38.918 12.418-39.949-0.21094-2.4414-2.1445-4.375-4.5859-4.5859-1.0234-0.082031-25.496-2.0312-39.945 12.418-12.004 11.996-12.695 30.867-12.535 37.523l-3.4648 3.4648v-64.039c1.6133-1.2344 3.0547-2.668 4.2227-4.332 6.5781 1.1914 13.586-1.043 18.793-6.2422 5.207-5.207 7.4375-12.207 6.2422-18.793 5.4375-3.8203 8.7617-10.297 8.7617-17.57 0-7.2734-3.3242-13.754-8.7617-17.57 1.1953-6.5898-1.0391-13.586-6.2422-18.793-5.2109-5.2031-12.203-7.4258-18.793-6.2461-3.8164-5.4375-10.297-8.7656-17.574-8.7656-7.2734 0-13.75 3.3281-17.57 8.7656-6.5742-1.2031-13.578 1.0391-18.785 6.2422-5.2109 5.207-7.4453 12.203-6.25 18.793-5.4375 3.8203-8.7656 10.297-8.7656 17.57 0 7.2734 3.332 13.754 8.7656 17.57-1.1953 6.5898 1.043 13.59 6.25 18.793 5.207 5.207 12.211 7.4453 18.785 6.2422 1.168 1.6641 2.6094 3.1016 4.2227 4.332v64.035l-3.4648-3.4648c0.16016-6.6602-0.53125-25.527-12.531-37.523-14.449-14.449-38.91-12.5-39.953-12.418-2.4375 0.21094-4.3711 2.1445-4.582 4.5859-0.089844 1.0312-2.0312 25.496 12.418 39.949 11.199 11.203 28.422 12.551 36.082 12.551 0.53125 0 1.0117-0.007813 1.4453-0.015625l10.582 10.582v12.383h-138.8v-23.75l9.0586-9.0977c1.0977 0.0625 2.4688 0.11328 4.1445 0.11328 9.8711 0 28.469-1.7773 40.535-13.895v-0.003907c16.711-16.781 13.531-46.004 13.387-47.238-0.26953-2.332-2.1133-4.168-4.4453-4.4297-1.2266-0.12109-30.469-3.1875-47.18 13.598-14.121 14.184-14.039 37.188-13.586 44.738l-1.918 1.9258 0.007813-75.703c2.8906-1.8281 5.3828-4.1914 7.2461-7.0508 8.0625 1.75 16.723-0.88281 23.125-7.2852 6.4102-6.4062 9.0391-15.082 7.293-23.133 6.8477-4.4609 11.07-12.395 11.07-21.348s-4.2227-16.887-11.07-21.352c1.75-8.0469-0.88281-16.723-7.2852-23.129-6.4062-6.4062-15.074-9.0391-23.129-7.2852-4.4648-6.8477-12.398-11.074-21.352-11.07-8.9531 0-16.887 4.2227-21.348 11.07-8.0508-1.7422-16.723 0.88672-23.129 7.2852-6.4023 6.4062-9.0352 15.082-7.2852 23.129-6.8477 4.4609-11.074 12.398-11.07 21.352 0 8.9531 4.2227 16.887 11.07 21.348-1.75 8.0469 0.88281 16.719 7.2891 23.125 6.4062 6.4102 15.078 9.0352 23.125 7.2852 1.8594 2.8555 4.3516 5.2227 7.2422 7.0508v75.727l-1.918-1.9258c0.45312-7.5469 0.54297-30.555-13.582-44.742-16.715-16.793-45.941-13.727-47.18-13.598-2.3281 0.26172-4.1719 2.0977-4.4414 4.4297-0.14453 1.2344-3.3242 30.453 13.387 47.238v0.003906c12.07 12.117 30.668 13.895 40.535 13.895 1.6797 0 3.0547-0.054688 4.1523-0.11719l9.0547 9.0938v23.754h-138.8v-12.383l10.582-10.582c0.43359 0.011719 0.91406 0.015626 1.4453 0.015626 7.6562 0 24.879-1.3477 36.082-12.551 14.449-14.453 12.508-38.918 12.418-39.949-0.21094-2.4414-2.1445-4.375-4.582-4.5859-1.0352-0.082031-25.5-2.0273-39.949 12.418-11.996 11.996-12.691 30.859-12.531 37.52l-3.4648 3.4648-0.015625-64.035c1.6133-1.2344 3.0547-2.668 4.2227-4.332 6.5859 1.2109 13.586-1.0391 18.789-6.2422 5.207-5.207 7.4375-12.203 6.2461-18.793 5.4375-3.8164 8.7656-10.297 8.7656-17.57 0.003907-7.2734-3.3242-13.754-8.7656-17.574 1.1953-6.5859-1.0391-13.586-6.2422-18.789-5.1992-5.207-12.203-7.4258-18.793-6.2461-3.8203-5.4375-10.301-8.7656-17.574-8.7656-7.2734 0-13.75 3.3281-17.57 8.7656-6.582-1.1914-13.586 1.0391-18.793 6.2461-5.207 5.2031-7.4375 12.203-6.2461 18.789-5.4375 3.8203-8.7656 10.297-8.7656 17.57 0 7.2734 3.3242 13.754 8.7656 17.57-1.1914 6.5898 1.0391 13.59 6.2461 18.793 5.207 5.207 12.203 7.457 18.793 6.2422 1.168 1.6602 2.6094 3.0977 4.2188 4.332v64.039l-3.4609-3.4609c0.16016-6.6602-0.53516-25.527-12.535-37.523-14.449-14.453-38.906-12.5-39.949-12.418-2.4375 0.21094-4.3711 2.1445-4.582 4.5859-0.089844 1.0312-2.0312 25.496 12.418 39.949 11.203 11.203 28.426 12.551 36.082 12.551 0.53125 0 1.0117-0.007813 1.4453-0.015626l10.582 10.582v12.383h-55.863c-2.7812 0-5.0391 2.2539-5.0391 5.0391 0 2.7852 2.2539 5.0391 5.0391 5.0391h470.95c2.7852 0 5.0391-2.2539 5.0391-5.0391 0-2.7852-2.2539-5.0391-5.0391-5.0391zm-32.742-60.488c7.9102-7.9102 20.68-9.3828 27.434-9.5703-0.1875 6.7617-1.6562 19.523-9.5703 27.438-5.4141 5.4141-13.078 7.7773-19.559 8.8125l16.504-16.504c1.9688-1.9688 1.9688-5.1562 0-7.125s-5.1562-1.9688-7.125 0l-16.527 16.527c1.0273-6.4688 3.3906-14.133 8.8438-19.578zm-87.758 10.18 16.531 16.527c-6.4727-1.0273-14.137-3.3906-19.586-8.8359-7.9102-7.918-9.3828-20.68-9.5664-27.438 6.7539 0.1875 19.52 1.6562 27.438 9.5703 5.4141 5.4141 7.7773 13.074 8.8125 19.555l-16.504-16.5c-1.9688-1.9688-5.1562-1.9688-7.125 0-1.9688 1.9648-1.9688 5.1523 0 7.1211zm-78.223-27.281c9.9883-10.031 26.914-11.098 34.707-10.898 0.16406 7.832-0.76172 24.723-10.746 34.754v-0.003906c-7.4727 7.5-18.812 9.9102-27.32 10.625l28.078-28.199c1.9648-1.9727 1.957-5.1641-0.015625-7.1289-1.9766-1.9648-5.1641-1.9453-7.125 0.015625l-28.113 28.238c0.66016-8.5273 3.0547-19.891 10.535-27.402zm-91.078-0.83203c-1.9609-1.9688-5.1484-1.9766-7.125-0.019531-1.9727 1.9648-1.9766 5.1562-0.015625 7.125l28.168 28.293c-8.5039-0.67578-19.887-3.1523-27.41-10.715v0.003906c-9.9883-10.035-10.914-26.938-10.746-34.766 7.832-0.16406 24.672 0.83203 34.707 10.906 7.4805 7.5156 9.875 18.883 10.535 27.406zm-75.461 17.934c7.9102-7.9102 20.68-9.3828 27.434-9.5703-0.18359 6.7617-1.6562 19.523-9.5664 27.438-5.418 5.418-13.082 7.7812-19.562 8.8125l16.504-16.504c1.9688-1.9688 1.9688-5.1562 0-7.125s-5.1562-1.9688-7.125 0l-16.523 16.523c1.0273-6.4688 3.3945-14.129 8.8398-19.574zm-87.754 10.18 16.504 16.504c-6.4805-1.0352-14.145-3.3984-19.562-8.8125-7.9102-7.918-9.3828-20.68-9.5664-27.438 6.7539 0.1875 19.523 1.6562 27.434 9.5703 5.418 5.4141 7.7812 13.074 8.8164 19.555l-16.5-16.5c-1.9688-1.9688-5.1562-1.9688-7.125 0-1.9688 1.9648-1.9688 5.1523 0 7.1211zm54.555 50.309h-6.5469v-86.492c1.0703 0.15234 2.1602 0.25391 3.2734 0.25391 1.1172 0 2.2031-0.10547 3.2734-0.25391zm7.1367-102.82c-1.8555 4.7969-6.5938 6.5039-10.41 6.5039-3.8164 0-8.5547-1.707-10.41-6.5039-0.5-1.293-1.5039-2.3203-2.7852-2.8438-0.61328-0.25-1.2656-0.37891-1.9141-0.37891-0.70703 0-1.4102 0.14844-2.0664 0.44141-4.7266 2.1289-9.332-0.042969-12.062-2.7695-2.7344-2.7383-4.8984-7.3438-2.7734-12.07 0.56641-1.2617 0.58984-2.6992 0.066407-3.9805-0.52734-1.2773-1.5547-2.2891-2.8477-2.7852-4.7969-1.8555-6.5078-6.5938-6.5078-10.41s1.7109-8.5547 6.5078-10.41c1.293-0.49609 2.3203-1.5039 2.8477-2.7852 0.52344-1.2773 0.5-2.7227-0.066407-3.9805-2.125-4.7266 0.035157-9.3281 2.7734-12.062 2.7344-2.7344 7.3359-4.8984 12.062-2.7734 1.2578 0.5625 2.6953 0.58984 3.9805 0.066406 1.2773-0.52734 2.2852-1.5547 2.7852-2.8438 1.8555-4.8008 6.5938-6.5078 10.41-6.5078 3.8164 0 8.5547 1.7109 10.41 6.5078 0.5 1.2891 1.5039 2.3164 2.7852 2.8438 1.2812 0.52344 2.7227 0.5 3.9805-0.066406 4.7266-2.1289 9.3242 0.035156 12.062 2.7734 2.7344 2.7344 4.8984 7.3398 2.7734 12.062-0.56641 1.2617-0.59375 2.6992-0.070312 3.9844 0.52734 1.2773 1.5547 2.2852 2.8438 2.7852 4.8008 1.8555 6.5117 6.5938 6.5078 10.41 0 3.8125-1.7109 8.5508-6.5078 10.406-1.293 0.49609-2.3203 1.5039-2.8477 2.7852-0.52344 1.2773-0.5 2.7188 0.066407 3.9805 2.1289 4.7266-0.035157 9.332-2.7734 12.07-2.7344 2.7344-7.3477 4.8945-12.062 2.7695-1.2617-0.57031-2.6992-0.58984-3.9805-0.0625-1.2695 0.51953-2.2773 1.5508-2.7773 2.8438zm159.88 102.82h-8.0625v-110.05c1.3203 0.19141 2.6602 0.32422 4.0352 0.32422s2.7109-0.13281 4.0312-0.32422zm-4.0273-119.8c-5.1719 0-11.605-2.3438-14.148-8.9141-0.49609-1.293-1.5039-2.3203-2.7852-2.8477-0.61328-0.25-1.2656-0.375-1.9141-0.375-0.70703 0-1.4102 0.14844-2.0664 0.44141-6.4688 2.9141-12.734-0.011718-16.441-3.7109-3.7031-3.7031-6.6289-9.9688-3.7148-16.441 0.56641-1.2578 0.58984-2.6992 0.066406-3.9805-0.52734-1.2773-1.5547-2.2891-2.8477-2.7852-6.5703-2.543-8.9141-8.9727-8.9141-14.145-0.003906-5.1719 2.3398-11.605 8.9141-14.148 1.293-0.5 2.3203-1.5039 2.8477-2.7852 0.52344-1.2812 0.5-2.7227-0.066406-3.9805-2.9141-6.4727 0.011718-12.734 3.7148-16.441 3.7031-3.7109 9.9648-6.6328 16.441-3.7148 1.2578 0.5625 2.6953 0.58594 3.9805 0.066406 1.2773-0.52734 2.2852-1.5547 2.7852-2.8477 2.543-6.5703 8.9727-8.9141 14.145-8.9141 5.1719-0.003906 11.605 2.3398 14.148 8.9141 0.5 1.2891 1.5039 2.3164 2.7852 2.8438 1.2812 0.52344 2.7227 0.5 3.9805-0.066406 6.4766-2.9141 12.734 0.007812 16.441 3.7148 3.7031 3.7031 6.6289 9.9688 3.7148 16.441-0.56641 1.2578-0.58984 2.6992-0.066406 3.9805 0.52734 1.2773 1.5547 2.2852 2.8477 2.7852 6.5703 2.543 8.9141 8.9727 8.9141 14.148 0 5.1719-2.3438 11.605-8.9141 14.145-1.293 0.5-2.3203 1.5039-2.8477 2.7852-0.52344 1.2773-0.5 2.7188 0.066406 3.9805 2.9141 6.4727-0.011718 12.738-3.7188 16.441-3.7031 3.7031-9.9688 6.6211-16.438 3.7109-1.2656-0.56641-2.6992-0.59375-3.9805-0.066406-1.2773 0.52734-2.2891 1.5547-2.7852 2.8477-2.5391 6.5742-8.9727 8.918-14.145 8.918zm169.53 119.8h-6.5469l-0.003906-86.492c1.0703 0.15234 2.1562 0.25391 3.2734 0.25391 1.1172 0 2.2031-0.10547 3.2773-0.25391zm7.1328-102.82c-1.8555 4.7969-6.5938 6.5039-10.41 6.5039-3.8125 0-8.5508-1.707-10.406-6.5039-0.49609-1.2891-1.5039-2.3203-2.7852-2.8438-0.61328-0.25-1.2656-0.37891-1.9141-0.37891-0.70313 0-1.4102 0.14844-2.0664 0.44141-4.7266 2.1289-9.3242-0.042969-12.059-2.7695-2.7344-2.7344-4.8984-7.3438-2.7734-12.07 0.56641-1.2617 0.58984-2.6992 0.0625-3.9805-0.52734-1.2773-1.5547-2.2891-2.8438-2.7852-4.7969-1.8555-6.5078-6.5938-6.5078-10.41s1.7109-8.5547 6.5078-10.41c1.2891-0.49609 2.3164-1.5039 2.8438-2.7852 0.52734-1.2773 0.5-2.7227-0.0625-3.9805-2.125-4.7266 0.039062-9.332 2.7734-12.062 2.7305-2.7344 7.332-4.8984 12.059-2.7734 1.2578 0.56641 2.6992 0.59375 3.9805 0.066406 1.2773-0.52734 2.2891-1.5547 2.7852-2.8477 1.8555-4.7969 6.5938-6.5078 10.406-6.5078 3.8164 0 8.5547 1.7109 10.41 6.5078 0.49609 1.293 1.5039 2.3203 2.7852 2.8477 1.2773 0.52344 2.7227 0.5 3.9805-0.066406 4.7031-2.1289 9.3281 0.035156 12.07 2.7734 2.7305 2.7344 4.8945 7.3398 2.7695 12.062-0.56641 1.2578-0.58984 2.6992-0.0625 3.9805 0.52344 1.2773 1.5508 2.2852 2.8438 2.7852 4.7969 1.8555 6.5039 6.5938 6.5039 10.41s-1.707 8.5508-6.5039 10.406c-1.2891 0.5-2.3164 1.5039-2.8438 2.7852-0.52734 1.2773-0.5 2.7227 0.0625 3.9805 2.125 4.7266-0.039062 9.332-2.7734 12.062-2.7344 2.7344-7.3516 4.8984-12.062 2.7734-1.2539-0.56641-2.6992-0.58594-3.9805-0.0625-1.2852 0.53516-2.293 1.5625-2.7891 2.8516z"/>
</svg>