<?xml version="1.0" encoding="UTF-8"?>
<!-- The Best Svg Icon site in the world: iconSvg.co, Visit us! https://iconsvg.co -->
<svg fill="#000000" width="800px" height="800px" version="1.1" viewBox="144 144 512 512" xmlns="http://www.w3.org/2000/svg">
 <path d="m203.51 591.45c-2.7852 0-5.0391 2.2539-5.0391 5.0391 0 2.7812 2.2539 5.0391 5.0391 5.0391h392.97c2.7852 0 5.0391-2.2539 5.0391-5.0391 0-2.7812-2.2539-5.0391-5.0391-5.0391h-36.887v-41.523c1.2344 0.082031 2.6484 0.14062 4.2305 0.14062 8.1641 0 20.223-1.5469 28.184-9.5117 12.746-12.746 9.0547-35.977 8.8906-36.961-0.35547-2.125-2.0156-3.7891-4.1445-4.1445-0.97656-0.15234-24.203-3.8555-36.957 8.8984-0.074219 0.074219-0.12891 0.15625-0.20312 0.23047v-11.367c0-0.046875-0.023437-0.085937-0.027344-0.13281 5.1133-4.207 17.77-16.102 17.77-30.797 0-18.023-19.039-31.844-19.852-32.422-1.75-1.2539-4.0977-1.2539-5.8594 0-0.80859 0.58203-19.844 14.395-19.844 32.422 0 14.699 12.656 26.594 17.762 30.797 0 0.046875-0.027344 0.085937-0.027344 0.13281v39.285c-0.10156-0.10547-0.18359-0.22266-0.28516-0.32422-12.754-12.746-35.977-9.0586-36.961-8.8945-2.125 0.35156-3.7891 2.0156-4.1445 4.1445-0.16406 0.98438-3.8555 24.215 8.8906 36.961 7.9609 7.9648 20.02 9.5117 28.184 9.5117 1.6172 0 3.0625-0.0625 4.3164-0.14844l0.003907 13.703h-91.027v-157.04c40.52-2.3086 72.703-32.031 72.703-68.336 0-14.98-5.5898-29.562-15.812-41.441 3.2539-7.0625 4.8984-14.477 4.8984-22.082 0-13-4.8789-25.621-13.809-35.902 2.543-5.8047 3.832-11.875 3.832-18.09 0-27.742-25.504-50.309-56.852-50.309-31.352 0-56.855 22.566-56.855 50.309 0 6.2148 1.2891 12.281 3.832 18.09-6.3438 7.3008-10.598 15.797-12.555 24.758-4.9688 1.5977-9.6289 4.1641-13.586 7.6133-6.9609-6.0781-15.902-9.4844-25.234-9.4844-15.492 0-29.254 9.1914-35.281 23.211-19.547 1.7773-34.906 18.262-34.906 38.262 0 5.7695 1.3242 11.484 3.8438 16.695-2.5195 5.207-3.8438 10.922-3.8438 16.691 0 19.855 15.227 36.305 34.621 38.227 5.8555 14.418 19.73 23.875 35.566 23.875 7.2031 0 14.164-2.0508 20.172-5.7734l0.003906 150.73h-118.76v-51.195c1.25 0.082031 2.6953 0.14844 4.3164 0.14844 8.1641 0 20.223-1.5469 28.184-9.5117 12.746-12.746 9.0547-35.977 8.8906-36.961-0.35547-2.125-2.0156-3.7891-4.1445-4.1445-0.98438-0.16797-24.211-3.8594-36.961 8.8906-0.10156 0.10156-0.18359 0.21875-0.28516 0.32422v-39.434c5.1289-4.2266 17.738-16.105 17.738-30.777 0-18.027-19.035-31.844-19.848-32.422-1.75-1.2539-4.1016-1.2539-5.8555 0-0.8125 0.57812-19.852 14.395-19.852 32.422 0 14.668 12.609 26.551 17.742 30.777v11.52c-0.070313-0.074219-0.12891-0.15625-0.20313-0.23047-12.742-12.746-35.98-9.0586-36.961-8.8906-2.125 0.35156-3.7891 2.0156-4.1445 4.1445-0.16406 0.98438-3.8555 24.215 8.8906 36.961 7.9609 7.9648 20.02 9.5117 28.184 9.5117 1.582 0 3-0.0625 4.2305-0.14062v22.082c-0.070312-0.074219-0.12891-0.15625-0.20312-0.23047-12.742-12.746-35.98-9.0508-36.961-8.8906-2.125 0.35156-3.7891 2.0156-4.1445 4.1445-0.16406 0.98047-3.8555 24.211 8.8906 36.957 7.9609 7.9648 20.02 9.5117 28.184 9.5117 1.582 0 3-0.0625 4.2305-0.14062l0.007813 15.574zm363.41-75.98c6.5977-6.6016 18.422-6.8281 24.441-6.4492 0.42969 6.8281-0.28516 18.223-6.4805 24.414-6.5977 6.5977-18.426 6.8203-24.441 6.4492-0.42969-6.8242 0.28516-18.223 6.4805-24.414zm-18.363 52.262c-6.832 0.42969-18.219-0.28906-24.414-6.4805-6.5898-6.5898-6.8242-18.383-6.4492-24.414 6.0234-0.37891 17.82-0.13672 24.414 6.4531 6.5977 6.5977 6.8242 18.418 6.4492 24.441zm-6.6992-101.45c0-9.332 8.1953-17.852 12.723-21.844 5.125 4.5273 12.68 13.086 12.68 21.844 0 9.3125-8.1719 17.824-12.703 21.824-4.5273-4-12.699-12.512-12.699-21.824zm-283.98 39.527c6.5977-6.5938 18.422-6.8359 24.441-6.4492 0.42969 6.8281-0.28516 18.223-6.4805 24.414-6.5898 6.5898-18.414 6.8125-24.414 6.4492-0.37109-6.0312-0.13281-17.824 6.4531-24.414zm-18.359-3.375c-6.8555 0.43359-18.219-0.28906-24.414-6.4805-6.5977-6.5977-6.8242-18.422-6.4492-24.441 6.832-0.43359 18.219 0.28906 24.414 6.4805 6.5977 6.5977 6.8203 18.418 6.4492 24.441zm0 63.43c-6.8555 0.42969-18.219-0.28906-24.414-6.4805-6.5977-6.5977-6.8242-18.418-6.4492-24.441 6.832-0.4375 18.219 0.28906 24.414 6.4805 6.5977 6.5977 6.8203 18.418 6.4492 24.441zm-6.7891-137.07c0-9.332 8.2031-17.852 12.723-21.844 5.125 4.5273 12.68 13.086 12.68 21.844 0 9.332-8.1953 17.852-12.723 21.844-5.1289-4.5234-12.68-13.086-12.68-21.844zm178.18-163.61c-2.8086-5.3086-4.2344-10.898-4.2344-16.625 0-22.184 20.984-40.234 46.781-40.234 25.789 0 46.773 18.051 46.773 40.234 0 5.7227-1.4258 11.316-4.2344 16.625-1.0234 1.9336-0.68359 4.3086 0.84766 5.8789 8.6211 8.8242 13.367 20.008 13.367 31.488 0 7.0859-1.7852 13.988-5.3047 20.523-1.0312 1.918-0.71484 4.2852 0.79297 5.8633 9.9492 10.438 15.426 23.625 15.426 37.133 0 32.25-30.355 58.484-67.664 58.484-37.312 0-67.668-26.234-67.668-58.484 0-13.512 5.4766-26.695 15.426-37.133 1.5039-1.5781 1.8242-3.9453 0.79297-5.8633-3.5195-6.5352-5.3047-13.441-5.3047-20.523 0-11.48 4.7461-22.664 13.367-31.488 1.5195-1.5664 1.8555-3.9453 0.83594-5.8789zm-61.855 171.23c-12.574 0-23.477-8.082-27.125-20.109-0.64062-2.1172-2.582-3.5664-4.7969-3.5781-15.543-0.082031-28.191-12.793-28.191-28.336 0-4.9453 1.3242-9.8438 3.8242-14.168 0.90625-1.5625 0.90625-3.4844 0-5.0469-2.5-4.3242-3.8242-9.2227-3.8242-14.168 0-15.629 12.719-28.344 28.375-28.344 2.1797 0 4.1133-1.4062 4.793-3.4766 3.8086-11.707 14.637-19.57 26.945-19.57 8.2109 0 16.016 3.582 21.422 9.8281 1.9102 2.2148 5.707 2.2148 7.6172 0 2.3867-2.7578 5.332-4.9531 8.543-6.6133 0.039063 7.5078 1.6719 14.828 4.8867 21.809-10.223 11.875-15.812 26.461-15.812 41.441 0 27.164 18.055 50.621 44.098 61.711-5.293 5.4453-12.559 8.6289-20.285 8.6289-8.2109 0-16.02-3.582-21.426-9.8281-1.9102-2.2148-5.707-2.2148-7.6172 0-5.4102 6.2383-13.215 9.8203-21.426 9.8203zm30.246 4.2773c6.0156 3.7383 12.992 5.8008 20.215 5.8008 11.988 0 23.16-5.6289 30.418-15.078 5.8828 1.6523 12.082 2.6328 18.477 3l0.003906 157.04h-69.113z"/>
</svg>