<?xml version="1.0" encoding="UTF-8"?>
<!-- The Best Svg Icon site in the world: iconSvg.co, Visit us! https://iconsvg.co -->
<svg fill="#000000" width="800px" height="800px" version="1.1" viewBox="144 144 512 512" xmlns="http://www.w3.org/2000/svg">
 <g>
  <path d="m549.57 478.72h7.8711c4.1758 0 8.1797-1.6602 11.133-4.6094 2.9531-2.9531 4.6133-6.9609 4.6133-11.133v-31.488c0-4.1758-1.6602-8.1836-4.6133-11.133-2.9531-2.9531-6.957-4.6133-11.133-4.6133h-7.8711v-165.31h23.617v31.488c0 2.0898 0.82812 4.0898 2.3047 5.5664 1.4766 1.4766 3.4805 2.3047 5.5664 2.3047h31.488v-15.742h-23.617v-31.488c0-2.0898-0.82812-4.0898-2.3047-5.5664-1.4766-1.4766-3.4766-2.3047-5.5664-2.3047h-31.488v-23.617c0-8.4375-4.5-16.234-11.809-20.453-7.3047-4.2188-16.309-4.2188-23.613 0-7.3086 4.2188-11.809 12.016-11.809 20.453v23.617h-15.746v-15.746c0-2.0859-0.82812-4.0898-2.3047-5.5664-1.4766-1.4766-3.4805-2.3047-5.5664-2.3047h-157.44c-4.3477 0-7.8711 3.5234-7.8711 7.8711v15.742l-15.742 0.003906v-23.617c0-8.4375-4.5039-16.234-11.809-20.453-7.3086-4.2188-16.309-4.2188-23.617 0-7.3086 4.2188-11.809 12.016-11.809 20.453v204.67h-7.8711c-4.1758 0-8.1797 1.6602-11.133 4.6133-2.9531 2.9492-4.6133 6.957-4.6133 11.133v31.488c0 4.1719 1.6602 8.1797 4.6133 11.133 2.9531 2.9492 6.957 4.6094 11.133 4.6094h7.8711v141.7h-55.105v15.742l440.84 0.003906v-15.746h-86.594zm-283.39 39.359h39.359v23.617h-39.359zm141.7-39.359v23.617h-62.977v-23.617zm125.95 102.34h-31.488v-23.617h31.488zm-110.21 0v-23.617h62.977v23.617zm-78.719 0v-23.617h62.977v23.617zm118.08-62.977v23.617h-62.977v-23.617zm70.848 23.617h-55.105v-23.617h55.105zm-110.21-39.359v-23.617h62.977v23.617zm-39.359 15.742v23.617h-62.977v-23.617zm-118.08 39.359h62.977v23.617h-62.977zm118.08 39.359v23.617h-62.98v-23.613zm15.742 0h62.977v23.617h-62.977zm78.719 0h55.105v23.617h-55.105zm55.105-94.465-31.488 0.003907v-23.617h31.488zm-15.746-291.26c0-4.3477 3.5234-7.8711 7.8711-7.8711 4.3477 0 7.875 3.5234 7.875 7.8711v204.67h-15.746zm-15.742 39.359v165.31h-15.746v-39.359c0-2.0898-0.82812-4.0898-2.3047-5.5664-1.4766-1.4766-3.4805-2.3047-5.5664-2.3047h-7.8711v-15.746c-0.027344-6.9609-2.3594-13.715-6.6328-19.211-4.2734-5.4961-10.246-9.418-16.984-11.16v-48.348h31.488c2.0859 0 4.0898-0.83203 5.5664-2.3047 1.4766-1.4766 2.3047-3.4805 2.3047-5.5664v-15.746zm-62.977 86.594c4.1758 0 8.1797 1.6562 11.133 4.6094 2.9531 2.9531 4.6094 6.957 4.6094 11.133v15.742l-31.488 0.003907v-15.746c0-4.1758 1.6602-8.1797 4.6133-11.133 2.9531-2.9531 6.957-4.6094 11.133-4.6094zm-99.078-78.723 31.488-31.488h17.098l-31.488 31.488zm70.848-31.488h17.098l-31.488 31.488h-17.098zm39.359 0h17.098l-31.488 31.488h-17.098zm20.359 19.004v12.484h-12.484zm0 138.44v31.488h-62.977v-31.488zm-121.34-157.44-20.359 20.359v-20.359zm-36.102 23.617v15.746c0 2.0859 0.82812 4.0898 2.3047 5.5664 1.4766 1.4727 3.4805 2.3047 5.5664 2.3047h110.21v48.352-0.003907c-6.7422 1.7422-12.715 5.6641-16.988 11.16-4.2734 5.4961-6.6016 12.25-6.6289 19.211v15.742l-7.8711 0.003907c-4.3477 0-7.875 3.5234-7.875 7.8711v39.359h-94.461v-165.31zm-47.23-39.359c0-4.3477 3.5234-7.8711 7.8711-7.8711s7.8711 3.5234 7.8711 7.8711v204.67h-15.742zm-23.617 220.42h314.88v31.488h-314.88zm86.594 47.23v23.617h-62.977v-23.617zm-62.977 118.08h39.359v23.617l-39.359-0.003907z"/>
  <path d="m163.84 620.41h15.742v15.742h-15.742z"/>
 </g>
</svg>