<?xml version="1.0" encoding="UTF-8"?>
<!-- The Best Svg Icon site in the world: iconSvg.co, Visit us! https://iconsvg.co -->
<svg fill="#000000" width="800px" height="800px" version="1.1" viewBox="144 144 512 512" xmlns="http://www.w3.org/2000/svg">
 <g>
  <path d="m378 275.83c1.2773 0 2.5586-0.48438 3.5391-1.4531 4.9531-4.8867 9.8242-10.129 14.484-15.586 1.8047-2.1172 1.5547-5.2969-0.5625-7.1016-2.1094-1.8047-5.2891-1.5586-7.1055 0.55859-4.4727 5.2383-9.1445 10.27-13.895 14.961-1.9844 1.9531-2.0039 5.1445-0.050782 7.125 0.99219 0.99609 2.293 1.4961 3.5898 1.4961z"/>
  <path d="m355.32 296.6c2.2578-1.625 2.7734-4.7695 1.1523-7.0312-1.625-2.2617-4.7734-2.7773-7.0352-1.1523-5.9883 4.3008-12.203 8.2461-18.477 11.719-31.105 17.246-49.672 45.75-49.672 76.246 0 2.7812 2.2539 5.0391 5.0391 5.0391 2.7852 0 5.0391-2.2539 5.0391-5.0391 0-26.781 16.629-51.988 44.48-67.434 6.6094-3.6602 13.16-7.8164 19.473-12.348z"/>
  <path d="m553.25 550.24c-0.027344-0.11719 0-0.23047-0.039062-0.34375-3.3359-10.539-17.008-45.184-57.145-68.652 34.723-24.344 55.211-61.059 55.211-99.688 0-44.535-26.316-85.285-70.387-109.02-19.969-10.797-36-22.844-48.988-36.816l-32.93-35.625c-1-1.0781-2.5469-1.6836-3.8867-1.6172-1.4727 0.054687-2.8438 0.75-3.7578 1.9023l-21.797 27.453c-15.723 19.789-33.25 35.113-52.094 45.559-43.035 23.863-68.734 64.297-68.734 108.16 0 38.637 20.492 75.355 55.207 99.691-40.137 23.469-53.805 58.113-57.141 68.652-0.035157 0.11719-0.007813 0.23047-0.039063 0.34375-1.2383 1.543-1.5039 3.7344-0.49609 5.5742 1.332 2.4336 4.3984 3.332 6.8398 1.9961l51.199-28.082 13.652 45.168c0.52734 1.7383 1.9453 3.0586 3.7148 3.457 1.7773 0.40234 3.6172-0.1875 4.8398-1.5312l41.008-45.234 27.848 66.84c0.78125 1.8789 2.6172 3.1016 4.6484 3.1016s3.8672-1.2227 4.6484-3.1016l27.848-66.84 41.008 45.234c1.2188 1.3438 3.0547 1.9297 4.8398 1.5312 1.7695-0.39844 3.1875-1.7188 3.7148-3.457l13.652-45.168 51.211 28.074c2.4414 1.3398 5.5039 0.44141 6.8398-1.9961 1.0078-1.8398 0.74219-4.0312-0.49609-5.5703zm-294.46-168.69c0-40.148 23.754-77.289 63.543-99.352 20.004-11.086 38.543-27.27 55.098-48.102l18.141-22.848 28.949 31.316c13.762 14.801 30.633 27.504 51.598 38.836 40.758 21.945 65.094 59.383 65.094 100.15 0 37.68-21.504 73.492-57.543 95.809-24.246 15.121-53.18 23.109-83.664 23.109s-59.418-7.9883-83.68-23.117c-36.031-22.309-57.535-58.121-57.535-95.801zm236.32 136.35c-1.3242-0.72266-2.9219-0.82422-4.3242-0.24609-1.4062 0.57422-2.4805 1.75-2.918 3.207l-12.875 42.594-40.359-44.52c-1.1602-1.2773-2.8984-1.8633-4.5898-1.5781-1.7031 0.29297-3.1289 1.4336-3.793 3.0273l-26.25 63.004-26.246-63.008c-0.66406-1.5898-2.0898-2.7344-3.793-3.0273-1.6914-0.28906-3.4297 0.30078-4.5898 1.5781l-40.359 44.52-12.875-42.594c-0.4375-1.4531-1.5117-2.6289-2.918-3.207-1.4023-0.57812-3-0.47656-4.3242 0.24609l-44.242 24.266c6.8594-14.742 22.035-38.281 52.961-54.762 25.309 15.102 55.078 23.137 86.391 23.137s61.09-8.0391 86.387-23.141c30.926 16.48 46.102 40.023 52.961 54.762z"/>
 </g>
</svg>