<?xml version="1.0" encoding="UTF-8"?>
<!-- The Best Svg Icon site in the world: iconSvg.co, Visit us! https://iconsvg.co -->
<svg fill="#000000" width="800px" height="800px" version="1.1" viewBox="144 144 512 512" xmlns="http://www.w3.org/2000/svg">
 <g>
  <path d="m492.58 323.85c0.34766 0.003906 0.64453 0.015625 1.0195 0.015625 11.156 0 34.48-1.9766 49.988-17.027 20.566-19.957 18.555-54.336 18.461-55.785-0.16016-2.4648-2.0859-4.4492-4.543-4.6836-1.4648-0.14453-35.762-3.1797-56.316 16.781-6.3164 6.1328-10.496 13.629-13.262 21.109-2.5508-7.2188-6.3867-14.434-12.238-20.465-19.957-20.566-54.355-18.551-55.785-18.461-2.4648 0.16016-4.4492 2.0859-4.6836 4.543-0.14062 1.4492-3.1797 35.762 16.777 56.316 15.559 16.035 39.863 18.34 50.512 18.535v13.43c0 0.074219 0.039063 0.14062 0.046876 0.21484-30.32 2.5195-54.387 27.141-56.109 57.676h-52.348c-1.7266-30.621-25.926-55.277-56.359-57.688 0-0.070313 0.039063-0.13281 0.039063-0.20312v-14.309c0.34766 0.003906 0.64453 0.015625 1.0195 0.015625 11.156 0 34.48-1.9766 49.988-17.027 20.566-19.957 18.559-54.336 18.465-55.785-0.16016-2.4648-2.0859-4.4492-4.543-4.6836-1.4648-0.14063-35.762-3.1758-56.32 16.781-6.3164 6.1328-10.496 13.629-13.262 21.109-2.5508-7.2188-6.3867-14.434-12.238-20.465-19.949-20.566-54.355-18.551-55.785-18.461-2.4648 0.16016-4.4492 2.0859-4.6836 4.543-0.14062 1.4492-3.1797 35.762 16.777 56.316 15.559 16.035 39.863 18.34 50.512 18.535v13.43c0 0.074219 0.039063 0.14062 0.046875 0.21484-30.32 2.5195-54.387 27.141-56.109 57.676h-6.418c-2.7852 0-5.0391 2.2539-5.0391 5.0391 0 2.7852 2.2539 5.0391 5.0391 5.0391h311.88c2.7852 0 5.0391-2.2539 5.0391-5.0391 0-2.7852-2.2539-5.0391-5.0391-5.0391h-8.1953c-1.7266-30.621-25.926-55.277-56.359-57.688 0-0.070313 0.039062-0.13281 0.039062-0.20312zm15.625-53.473c13.246-12.855 34.52-14.344 43.832-14.156-0.19531 9.2305-2.1758 30.484-15.461 43.379-13.234 12.855-34.516 14.379-43.832 14.156 0.1875-9.2266 2.168-30.484 15.461-43.379zm-68.984 28.797c-12.852-13.238-14.211-34.586-14.152-43.832 9.2305 0.19531 30.484 2.1758 43.379 15.461 11.059 11.402 13.598 28.758 14.051 39.277v4.5508c-9.2695-0.20312-30.418-2.207-43.277-15.457zm-105.83-28.797c13.246-12.855 34.656-14.367 43.836-14.156-0.19531 9.2305-2.1797 30.484-15.469 43.379-13.238 12.855-34.582 14.379-43.832 14.156 0.19922-9.2266 2.1797-30.484 15.465-43.379zm-68.977 28.797c-12.852-13.238-14.211-34.586-14.152-43.832 9.2305 0.19531 30.484 2.1758 43.379 15.461 11.059 11.402 13.598 28.758 14.051 39.277v4.5508c-9.2695-0.20312-30.422-2.207-43.277-15.457zm48.445 49.016c27.129 0 49.352 21.176 51.156 47.855h-102.31c1.8008-26.688 24.023-47.855 51.152-47.855zm225.96 47.855h-102.31c1.7969-26.684 24.023-47.855 51.156-47.855s49.352 21.168 51.152 47.855z"/>
  <path d="m203.51 559.78h29.07v36.699c0 2.7852 2.2539 5.0391 5.0391 5.0391s5.0391-2.2539 5.0391-5.0391v-36.699h26.188v36.699c0 2.7852 2.2539 5.0391 5.0391 5.0391 2.7852 0 5.0391-2.2539 5.0391-5.0391v-36.699h242.15v36.699c0 2.7852 2.2539 5.0391 5.0391 5.0391 2.7852 0 5.0391-2.2539 5.0391-5.0391v-36.699h26.188v36.699c0 2.7852 2.2539 5.0391 5.0391 5.0391 2.7852 0 5.0391-2.2539 5.0391-5.0391v-36.699h29.062c2.7852 0 5.0391-2.2539 5.0391-5.0391v-78.105c0-2.7852-2.2539-5.0391-5.0391-5.0391h-29.07v-18.711h29.07c2.7852 0 5.0391-2.2539 5.0391-5.0391v-244.34c0-2.7852-2.2539-5.0391-5.0391-5.0391h-392.97c-2.7852 0-5.0391 2.2539-5.0391 5.0391v244.34c0 2.7852 2.2539 5.0391 5.0391 5.0391h29.07v18.711h-29.07c-2.7852 0-5.0391 2.2539-5.0391 5.0391v78.105c0.003906 2.7852 2.2539 5.0352 5.0391 5.0352zm353.83-88.18h-26.188v-18.711h26.188zm-36.266-18.715v18.711l-242.15 0.003906v-18.711zm-312.52-244.34h382.89v234.27h-382.89zm34.109 244.34h26.188v18.711l-26.188 0.003906zm-34.109 28.789h382.89v68.031h-382.89z"/>
  <path d="m462.98 510.65h-123.73c-2.7852 0-5.0391 2.2539-5.0391 5.0391s2.2539 5.0391 5.0391 5.0391h123.73c2.7852 0 5.0391-2.2539 5.0391-5.0391s-2.2539-5.0391-5.0391-5.0391z"/>
 </g>
</svg>