<?xml version="1.0" encoding="UTF-8"?>
<!-- The Best Svg Icon site in the world: iconSvg.co, Visit us! https://iconsvg.co -->
<svg fill="#000000" width="800px" height="800px" version="1.1" viewBox="144 144 512 512" xmlns="http://www.w3.org/2000/svg">
 <g>
  <path d="m618.16 354.94h-33.914v-30.023c0-3.3867-2.1719-6.3906-5.3672-7.4609-3.2422-1.0547-6.7539 0.03125-8.8008 2.7227l-26.23 34.762h-33.93l-26.055-34.746c-2.0469-2.707-5.5898-3.8242-8.8008-2.7383-3.2109 1.0703-5.3828 4.0781-5.3828 7.4609v30.023h-34.086c-4.3438 0-7.8711 3.5273-7.8711 7.8711 0 21.129 17.191 38.32 38.336 38.32h7.3516v0.50391h-150.5l-5.7305 0.003907c-0.97656 0-1.9062 0.23438-2.7695 0.55078-23.129 2.5195-43.926 15.207-57.465 35.094-1.7969 0.25-3.6055 0.56641-5.418 0.56641-18.703 0-34.969-13.289-38.652-31.566l-4.9141-24.562c9.1016-3.668 15.555-12.562 15.555-22.953 0-10.957-14.027-32.102-18.309-38.32-2.9609-4.2656-10.012-4.2656-12.957 0-4.2812 6.2188-18.309 27.363-18.309 38.32 0 11.352 7.7148 20.828 18.137 23.758l5.3672 26.859c4.9297 24.496 25.977 42.383 50.695 43.926-2.9766 7.1172-5.0547 14.609-6.0625 22.387-0.10938 0.51953-0.45703 0.96094-0.45703 1.5117v5.1016c-0.074219 1.6055-0.32812 3.2109-0.32812 4.8633v108.46c0 13.668 10.66 24.781 23.934 24.781 11.164 0 20.5-7.9805 23.129-18.703 2.7852 1.1328 5.8242 1.7773 9.0195 1.7773 11.195 0 20.531-7.7461 23.145-18.137 2.9297 0.67578 5.9023 1.1953 9.0039 1.1953 19.867 0 36.242-14.719 39.219-33.832h81.492v42.902c0 13.664 10.676 24.781 23.945 24.781 13.098 0 23.773-11.117 23.773-24.781v-59.812h16.406v59.812c0 13.664 10.738 24.781 24.105 24.781 13.113 0 23.789-11.117 23.789-24.781v-108.46c0-1.2734-0.10937-2.4414-0.15625-3.6523 11.211-8.4531 18.262-21.617 18.262-36.777v-45.594h7.3672c10.391 0 20.027-4.0312 26.953-11.18 7.3359-7.1016 11.367-16.734 11.367-27.145-0.015625-4.3438-3.5273-7.8711-7.8867-7.8711zm-419.42 12.863c-4.9922 0-9.0547-4.0625-9.0547-9.0352 0.015625-2.6602 3.8242-10.598 9.0547-19.301 5.2266 8.707 9.0352 16.641 9.0547 19.301 0 4.9727-4.0625 9.0352-9.0547 9.0352zm296.55 82.672c1.8594-0.47266 3.8086-0.88281 5.8086-1.2734 1.3086-0.25 2.5977-0.50391 3.9531-0.70703 2.2656-0.34766 4.6289-0.61328 7.0234-0.85156 1.2109-0.125 2.3789-0.28516 3.6211-0.37891 3.6836-0.26953 7.4453-0.44141 11.289-0.44141 3.7617 0 7.543 0.17188 10.91 0.31641 4.4102 0.33203 8.5977 0.91406 12.641 1.6211 0.83594 0.14063 1.6836 0.28516 2.4883 0.44141 3.8242 0.75391 7.4297 1.6367 10.691 2.6914 0.20312 0.0625 0.39453 0.14062 0.59766 0.21875-1.2422 8.7227-6.3594 16.375-14.074 20.906-2.582 1.4336-5.0547 2.3945-7.2266 2.9609-3.6836 0.34766-7.6836 0.45703-11.668 0.56641-2.832 0.0625-5.5898 0.0625-8.3125 0.015625-4.0625-0.10938-8.1094-0.23438-11.98-0.58203-2.9297-0.75391-5.6211-1.9531-8.0938-3.4648-1.0391-0.64453-1.8906-1.543-2.832-2.332-1.3086-1.0703-2.6133-2.125-3.7148-3.3867-1.1172-1.3086-2-2.8008-2.8828-4.3125-0.58203-0.97656-1.1797-1.9375-1.6367-2.9766-0.73828-1.7148-1.2422-3.5742-1.668-5.4648-0.14062-0.66016-0.23438-1.3242-0.33203-2 0.59766-0.20312 1.1484-0.42578 1.7773-0.61328 1.1484-0.32031 2.3789-0.63672 3.6211-0.95312zm-170.24-33.094h68.863v7.1953l-16.09 32.18c-1.5117 3.0234-0.92969 6.6914 1.4805 9.0859l9.1953 9.1953-20.547 10.281-25.961-12.988v-28.969c0-4.3438-3.5273-7.8711-7.8711-7.8711l-9.0703-0.003906zm-67.684 78.816 3.4805 3.4805c1.4805 1.4805 3.4805 2.2969 5.5742 2.2969h13.664l9.0547 9.0352-9.0547 9.0547h-22.719zm48.207 83.348c0 4.4414-3.7617 8.2031-8.375 8.2031-4.4258 0-8.0312-3.6836-8.0312-8.2031v-26.812h0.80469c0.14062 0.94531 0.48828 1.8281 0.70703 2.7539 0.21875 0.96094 0.44141 1.875 0.72266 2.8008 0.75391 2.4414 1.7148 4.7539 2.8984 6.9922 0.28516 0.53516 0.47266 1.1172 0.78906 1.6367 1.5273 2.582 3.3867 4.9609 5.4805 7.1328 0.66016 0.69141 1.418 1.2734 2.1406 1.9219 0.96094 0.86719 1.8281 1.8281 2.8672 2.582zm23.789-8.707c-4.2812 0-8.2656-1.0859-12.059-3.4023-1.6836-0.94531-3.1641-2.125-4.5352-3.4336-0.41016-0.37891-0.76953-0.82031-1.1484-1.2266-0.92969-1.0078-1.7617-2.0938-2.5039-3.2422-0.31641-0.48828-0.62891-0.96094-0.89844-1.4648-0.82031-1.5117-1.4961-3.0859-1.9688-4.7539-0.046874-0.15625-0.125-0.31641-0.17187-0.47266-0.015626-0.03125 0-0.0625-0.015626-0.09375h46.777c-2.7266 10.391-12.172 18.09-23.477 18.09zm132.22-46.145-12.312 12.297h-22.703v-18.09h9.0547c2.9766 0 5.6992-1.6836 7.0391-4.3438l12.027-24.059 6.8945 6.8945zm84.938 70.941c0 4.9766-3.6055 9.0352-8.2031 9.0352-4.4414 0-8.2031-4.1406-8.2031-9.0352v-67.684c0-4.3438-3.5273-7.8711-7.8711-7.8711h-32.148c-4.3438 0-7.8711 3.5273-7.8711 7.8711v67.684c0 4.9766-3.6055 9.0352-8.2031 9.0352-4.4258 0-8.0469-4.0625-8.0469-9.0352v-50.773c0-0.67578-0.21875-1.2891-0.39453-1.9219l9.4297-9.4141c1.4805-1.4805 2.2969-3.4805 2.2969-5.5742v-33.832c0-2.0938-0.83594-4.0938-2.2969-5.5742l-16.926-16.926c-1.7773-1.7773-4.2969-2.5977-6.832-2.2031-2.5039 0.41016-4.6445 1.9844-5.7773 4.25l-14.738 29.488h-12.074c-4.3438 0-7.8711 3.5273-7.8711 7.8711v25.961h-49.309l-64.109 0.003906h-16.074c-4.3438 0-7.8711 3.5273-7.8711 7.8711v50.758c0 4.9141-3.75 9.0547-8.3633 9.0547-4.4258 0-8.0312-4.0625-8.0312-9.0352v-59.812h26.293c2.0938 0 4.0938-0.83594 5.5742-2.2969l16.926-16.926c1.4805-1.4805 2.2969-3.4805 2.2969-5.5742s-0.83594-4.0938-2.2969-5.5742l-16.926-16.91c-1.4766-1.4805-3.4766-2.2969-5.5703-2.2969h-13.652l-11.477-11.477c1.5898-9.2578 4.8164-18.074 9.8398-25.93 9.5898-15.57 24.465-26.07 41.266-29.836v24.355c0 4.3438 3.5273 7.8711 7.8711 7.8711h9.0547v25.961c0 2.9766 1.6836 5.6992 4.3438 7.0391l33.832 16.926c1.1016 0.55078 2.3125 0.83594 3.5273 0.83594 1.2109 0 2.4102-0.28516 3.5273-0.83594l33.832-16.926c2.2656-1.1328 3.8398-3.2734 4.25-5.7773 0.39453-2.5039-0.41016-5.0391-2.2031-6.832l-12.91-12.91 14.391-28.766c0.55078-1.0859 0.83594-2.2969 0.83594-3.5273v-9.0547h63.777v30.527c0 20.734 14.105 38.637 34.684 43.609 0.20312 0.03125 0.44141 0.03125 0.66016 0.0625 0.03125 0 0.046875 0.015625 0.078125 0.03125 0.125 0.015625 0.25 0 0.37891 0.015625 2.8516 0.47266 5.8086 0.86719 8.7852 0.86719h17.914c3.3867 0 6.582-0.39453 9.7461-0.99219 0.046875-0.015625 0.078125-0.046875 0.125-0.046875 0.09375-0.015625 0.17188-0.015625 0.25-0.03125 0.14062-0.046875 0.30078-0.078125 0.44141-0.125l0.007813 104.35zm57.027-216.81c-4.1094 4.2344-9.7148 6.5664-15.824 6.5664h-15.242c-4.3438 0-7.8711 3.5273-7.8711 7.8711v42.43c-0.62891-0.17188-1.3711-0.26953-2.0156-0.44141-2.5664-0.66016-5.2422-1.2422-8.0469-1.7461-1.1641-0.21875-2.2969-0.44141-3.5117-0.62891-3.9219-0.61328-7.9648-1.1328-12.234-1.4492-5.1328-0.23438-10.406-0.21875-15.695-0.0625-0.64453 0.015625-1.2734 0.0625-1.9219 0.09375-11.414 0.42578-22.688 1.7305-32.039 4.2812v-42.461c0-4.3438-3.5273-7.8711-7.8711-7.8711h-15.223c-9.6836 0-17.98-6.125-21.176-14.703h163.97c-1.082 3.0039-2.8789 5.7578-5.3008 8.1211z"/>
  <path d="m502.27 386.24c-7.1328 0-12.941 5.7305-12.941 12.785 0 7.0391 5.8086 12.785 12.941 12.785 7.0547 0 12.801-5.7305 12.801-12.785-0.003907-7.0547-5.75-12.785-12.801-12.785zm-2.9453 12.785c0-1.6367 1.3242-2.9609 2.9609-2.9609 1.5273 0 2.8008 1.3555 2.8008 2.9609-0.015625 3.3203-5.7773 3.1484-5.7617 0z"/>
  <path d="m551.69 386.24c-7.1328 0-12.941 5.7305-12.941 12.785 0 7.0391 5.8086 12.785 12.941 12.785 7.0391 0 12.785-5.7305 12.785-12.785-0.015624-7.0547-5.7461-12.785-12.785-12.785zm-2.9766 12.785c0-1.6367 1.3398-2.9609 2.9609-2.9609 1.5273 0 2.8008 1.3555 2.8008 2.9609 0.003907 3.3203-5.7422 3.1484-5.7617 0z"/>
 </g>
</svg>