<?xml version="1.0" encoding="UTF-8"?>
<!-- The Best Svg Icon site in the world: iconSvg.co, Visit us! https://iconsvg.co -->
<svg fill="#000000" width="800px" height="800px" version="1.1" viewBox="144 144 512 512" xmlns="http://www.w3.org/2000/svg">
 <path d="m620.63 541.8 15.297-61.18h-0.003906c0.73438-2.9414-0.28516-6.0391-2.6172-7.9688-2.332-1.9297-5.5664-2.3516-8.3164-1.0859l-100.77 46.508h-84.859v-55.102h7.8711c26.059-0.035156 51.129-9.9922 70.105-27.852 18.977-17.863 30.438-42.281 32.051-68.293l25.703-6.4297c2.5742-0.64453 4.6523-2.543 5.5234-5.0508 0.87109-2.5039 0.42188-5.2852-1.1953-7.3867l-19.051-24.68c-1.3359-1.9609-1.6836-4.4297-0.94531-6.6836l0.52734-1.4961c0.65234-1.9844 2.0664-3.6328 3.9336-4.5742 1.8672-0.94141 4.0312-1.1016 6.0195-0.44531l32.273 10.785v-0.003906c2.7539 0.92187 5.7891 0.25391 7.9023-1.7422 2.1094-1.9922 2.9531-4.9883 2.1914-7.7891l-13.777-50.625c-4.5195-16.828-16.527-30.645-32.562-37.465-16.035-6.8203-34.316-5.8828-49.57 2.5391s-25.789 23.391-28.562 40.594l-2.3633 14.168c-1.5391 9.1875-6.2852 17.531-13.395 23.547-7.1094 6.0156-16.125 9.3164-25.438 9.3125h-83.602c-9.5938-0.015625-18.852-3.5234-26.047-9.8672s-11.836-15.09-13.055-24.605l-1.1797-9.7852c-0.76172-6.1562 0.30859-12.402 3.0781-17.953l18.309-36.613c0.92969-1.8672 1.0781-4.0234 0.41797-6l-7.8711-23.617c-0.77734-2.3164-2.5898-4.1445-4.9023-4.9414-2.3125-0.79297-4.8672-0.46875-6.9062 0.88281l-16.254 10.797-11.715-23.512c-1.3281-2.8516-4.2812-4.582-7.4141-4.3555-3.0977 0.12891-5.832 2.0664-6.9844 4.9453l-12.594 31.41-23.805-11.91c-2.4414-1.2188-5.3398-1.0898-7.6602 0.34766-2.3203 1.4336-3.7344 3.9688-3.7305 6.6953v19.438l-2.5273 1.707c-13.199 8.7227-21.125 23.496-21.09 39.312v6.1797l-20.113 13.383c-2.3672 1.5508-3.7227 4.2539-3.5469 7.0781 0.17578 2.8242 1.8555 5.3359 4.3984 6.582l27.551 13.77v-0.003907c1.2227 7.3633 5.0156 14.055 10.703 18.883 5.6875 4.832 12.906 7.4883 20.367 7.4961h4.1719c3.6562 0.011718 7.2578-0.83984 10.527-2.4766l1.2109-0.61328v-0.003906c0.64844 9.9805 3.4336 19.703 8.1641 28.516l28.898 54.262c15.832 29.672 45.25 49.656 78.672 53.434l-35.227 55.812h-112.07l-0.09375-31.488c-0.023438-3.1719-1.9492-6.0234-4.8867-7.2266s-6.3086-0.52734-8.5508 1.7188l-55.105 55.105v-0.003906c-3.0742 3.0742-3.0742 8.0586 0 11.133l55.105 55.105v-0.003906c2.2578 2.2578 5.6562 2.9297 8.6016 1.6953 2.9453-1.2305 4.8555-4.1211 4.8359-7.3125l0.09375-31.488h141.6v70.848h15.742v-70.848h15.742v70.848h15.742l0.003906-70.848h100.36l100.59 54.168-0.003906-0.003907c2.7188 1.4688 6.0391 1.2148 8.5-0.64844 2.4609-1.8672 3.6055-4.9961 2.9219-8.0078zm-303.34-140.38-28.914-54.316c-4.25-7.9453-6.4648-16.816-6.457-25.828v-3.0078l11.391-5.6914-7.0391-14.09-15.742 7.8711-12.43 6.2188c-1.082 0.55078-2.2812 0.83594-3.4961 0.82812h-4.1719c-4.1758 0-8.1797-1.6602-11.133-4.6094-2.9531-2.9531-4.6094-6.9609-4.6094-11.133 0-2.9844-1.6875-5.7148-4.3555-7.0469l-19.355-9.6758 12.336-8.2188c2.1875-1.4609 3.5-3.918 3.5-6.5469v-10.395c-0.019531-10.555 5.2773-20.41 14.094-26.219l6.0625-4.0938h-0.003906c2.168-1.4648 3.4648-3.9102 3.4648-6.5273v-10.879l20.098 10.094c1.9688 0.98438 4.2617 1.0977 6.3203 0.3125 2.0586-0.78125 3.6953-2.3945 4.5117-4.4375l9.2188-23.121 7.8711 15.809v-0.003906c1.0078 2.0234 2.8398 3.5156 5.0234 4.0938 2.1836 0.58203 4.5117 0.19531 6.3906-1.0625l15.043-10.02 3.582 10.746-16.773 33.66c-4.1523 8.3125-5.7617 17.668-4.6289 26.891l1.1875 9.8086c1.6914 13.328 8.1797 25.586 18.254 34.48 10.07 8.8906 23.035 13.812 36.473 13.836h83.602c13.043 0.019531 25.672-4.6016 35.629-13.027 9.957-8.4297 16.598-20.121 18.734-32.992l2.3633-14.168c1.5508-9.5625 6.4609-18.254 13.844-24.523 10.703-9.0508 25.281-12.023 38.672-7.8789 13.387 4.1445 23.738 14.832 27.453 28.348l9.9102 36.414-18.324-6.125v0.003907c-5.9219-1.957-12.375-1.5-17.957 1.2773-5.5859 2.7773-9.8477 7.6445-11.863 13.543l-0.51953 1.4648c-2.3789 7.0938-1.2539 14.895 3.0391 21.02l12.02 15.586-19.812 4.9609c-3.4883 0.86719-5.9453 3.9922-5.9648 7.5859-0.027344 22.961-9.1602 44.969-25.395 61.203-16.23 16.23-38.242 25.363-61.199 25.391h-53.531c-15.691 0.011719-31.094-4.2422-44.555-12.312-13.461-8.0703-24.473-19.648-31.855-33.496zm82.961 61.555h23.363v55.105l-58.141-0.003906zm129.43 87.527c-1.1484-0.61328-2.4297-0.9375-3.7344-0.9375h-299.02c-4.3477 0-7.875 3.5234-7.875 7.8711l-0.0625 20.469-36.156-36.211 36.156-36.156 0.0625 20.41c0 2.0898 0.83203 4.0898 2.3086 5.5664 1.4766 1.4766 3.4766 2.3086 5.5664 2.3086h299.02c1.1406 0 2.2656-0.24609 3.3008-0.72656l87.379-40.344-11.723 47.035c-0.29688 1.1836-0.31641 2.4219-0.054688 3.6133l12.02 54.051z"/>
</svg>