<?xml version="1.0" encoding="UTF-8"?>
<!-- The Best Svg Icon site in the world: iconSvg.co, Visit us! https://iconsvg.co -->
<svg fill="#000000" width="800px" height="800px" version="1.1" viewBox="144 144 512 512" xmlns="http://www.w3.org/2000/svg">
 <g>
  <path d="m525.6 461.24c-0.55078 0.62891-1.7344 1.7344-3.7812 1.7344h-161.22c-2.7539 0-5.0391-2.2812-5.0391-5.0391l0.003906-163.27c0-2.6797 2.2031-4.8828 4.8789-4.8828h139.18c2.5195 0 4.6445 1.8906 4.9609 4.3281l22.199 163.19c0.31641 1.9688-0.62891 3.3086-1.1797 3.9375z"/>
  <path d="m597.31 376.86c0 34.793-22.828 65.023-55.34 74.785l-2.125-15.664-2.2031-16.059c17.004-7.1641 28.34-23.93 28.34-43.059 0-23.695-17.633-43.375-40.539-46.445l-2.2031-16.059-2.125-15.664c42.188 1.0195 76.195 35.734 76.195 78.164z"/>
  <path d="m339.82 391.57v48.887l-75.258-59.672-1.7305-1.3359-23.066-2.9141 23.223-41.723 8.1875 14.406z"/>
  <path d="m253.78 318.84-30.859 55.574-20.23-2.5195 39.754-72.895z"/>
  <path d="m552.36 493.68v1.5742c0 8.2656-6.6914 14.957-14.957 14.957h-174.76c-8.2656 0-14.957-6.6914-14.957-14.957v-1.5742c0-8.2656 6.6914-14.957 14.957-14.957h174.76c8.2695 0 14.961 6.6914 14.961 14.957z"/>
 </g>
</svg>