<?xml version="1.0" encoding="UTF-8"?>
<!-- The Best Svg Icon site in the world: iconSvg.co, Visit us! https://iconsvg.co -->
<svg fill="#000000" width="800px" height="800px" version="1.1" viewBox="144 144 512 512" xmlns="http://www.w3.org/2000/svg">
 <path d="m626.71 357.49-17.574 28.34-24.934-15.195v213.57h-111.31l-14.051-74.984c-1.9453 0.40625-3.918 0.71094-5.8789 0.88672l-6.418 12.418 14.914 61.668h-34.223l4.1172-50.492 16.402-31.75h0.53906c20.297 0 37.621-13.824 42.117-33.621l14.348-63.137h23.508c5.0469 0 9.4961-3.2227 11.07-8.0195 1.4609-4.4648 0.11719-9.3398-3.4297-12.418l-23.773-20.66c-7.3438-6.3828-16.75-9.8984-26.484-9.8984h-35.695l8.2188 12.328-14.008 19.625c-5.3867 7.5469-14.137 12.055-23.41 12.055l-112.72-0.003906c-11.438 0-22.516 4.1016-31.195 11.551-10.617 9.1094-16.703 22.355-16.703 36.34v3.9453c0 4.3789 3.5625 7.9414 7.9414 7.9414h0.88672v36.34l-8.8516 13.133 11.184 76.746-55.504 0.003906v-213.57l-24.934 15.195-17.578-28.34 226.71-141.7zm-226.19 144.47h-75.656l-41.781 30.816v51.426h34.461l-11.422-58.02 21.496-15.855h29.598l-31.312 22.465 3.4023 51.41h86.445l-3.0391-51.254z"/>
</svg>