<?xml version="1.0" encoding="UTF-8"?>
<!-- The Best Svg Icon site in the world: iconSvg.co, Visit us! https://iconsvg.co -->
<svg fill="#000000" width="800px" height="800px" version="1.1" viewBox="144 144 512 512" xmlns="http://www.w3.org/2000/svg">
 <g>
  <path d="m288.48 514.91c5.332 5.3398 12.398 8.0547 19.496 8.0547 5.9688 0 11.961-1.9219 16.969-5.832l132.42-103.27c6.7812-5.2891 10.977-13.246 11.504-21.824 0.30469-4.9922-0.67578-9.9062-2.7227-14.352 2.5625 0.41016 5.1484 0.68359 7.7773 0.68359 14.539 0 29.91-5.7383 44.07-11.02 3.5234-1.3125 6.9766-2.6016 10.328-3.7695 1.8594-0.64453 3.168-2.3125 3.3594-4.2695 0.19141-1.957-0.77734-3.8477-2.4766-4.8398-0.49609-0.28906-11.488-6.6211-33.285-13.266 6.1211-10.406 11.672-24.363 10.199-39.395-0.23047-2.3906-2.1289-4.2852-4.5234-4.5234-15.281-1.4922-29.383 4.207-39.918 10.504-5.8359-20.453-12.531-32.797-12.84-33.363-0.96094-1.7461-2.8672-2.75-4.832-2.6016-1.9844 0.16797-3.6836 1.4805-4.3398 3.3555-1.2656 3.6055-2.6992 7.3516-4.1758 11.18-6.293 16.383-13.195 34.395-10.527 50.562-4.25-1.8125-8.8945-2.6758-13.621-2.4102-8.582 0.53125-16.543 4.7227-21.836 11.508l-103.25 132.41c-8.5547 10.973-7.6016 26.648 2.2188 36.469zm58.633-98.117 39.488 39.488-31.969 24.93-32.449-32.445zm31.172-39.973 48.289 48.289-31.969 24.93-41.25-41.25zm66.621-86.836c2.6602 6.5039 5.9844 15.734 8.8281 27.027 0.40234 1.6094 1.5742 2.9141 3.125 3.4883 1.543 0.58594 3.293 0.35938 4.6445-0.58594 8.5156-5.9492 21.137-12.668 34.785-12.789-0.11719 13.398-6.6172 25.805-12.363 34.188-0.92188 1.3398-1.1367 3.0391-0.58203 4.5703 0.55469 1.5312 1.8164 2.6953 3.3789 3.1289 11.703 3.2656 20.684 6.5977 26.914 9.2109-19.656 7.3242-41.742 15.352-57.496 5.2188-9.6641-6.2148-16.129-16.07-16.336-16.367-10.965-15.25-2.8008-36.52 5.1016-57.09zm-47.441 62.238c3.5195-4.5117 8.8086-7.2969 14.508-7.6523 0.41016-0.023437 0.81641-0.035156 1.2188-0.035156 5.2539 0 10.316 2.082 14.047 5.8086l25.801 25.801c4.0195 4.0195 6.125 9.5898 5.7773 15.273-0.34766 5.7031-3.1406 10.988-7.6445 14.504l-16.59 12.938-50.051-50.051zm-103.26 132.42 21.734-27.871 30.688 30.684-27.875 21.738c-6.9648 5.4258-16.914 4.8281-23.145-1.4062-6.2305-6.2305-6.8281-16.184-1.4023-23.145z"/>
  <path d="m596.48 198.48h-392.97c-2.7852 0-5.0391 2.2539-5.0391 5.0391v37.785c0 2.7852 2.2539 5.0391 5.0391 5.0391h1.5742v307.32l-1.5742-0.003906c-2.7852 0-5.0391 2.2539-5.0391 5.0391l0.003906 37.785c0 2.7852 2.2539 5.0391 5.0391 5.0391h392.97c2.7852 0 5.0391-2.2539 5.0391-5.0391v-37.785c0-2.7852-2.2539-5.0391-5.0391-5.0391h-1.5742v-307.32h1.5703c2.7852 0 5.0391-2.2539 5.0391-5.0391v-37.785c0-2.7852-2.2539-5.0352-5.0391-5.0352zm-387.93 10.074h382.89v27.711h-382.89zm382.89 382.89h-382.89v-27.711h382.89zm-6.6133-37.785h-369.67v-307.32h369.67z"/>
 </g>
</svg>