<?xml version="1.0" encoding="UTF-8"?>
<!-- The Best Svg Icon site in the world: iconSvg.co, Visit us! https://iconsvg.co -->
<svg fill="#000000" width="800px" height="800px" version="1.1" viewBox="144 144 512 512" xmlns="http://www.w3.org/2000/svg">
 <path d="m572.74 221.33 6.2305-44.047c0.20312-1.4453-0.22656-2.9062-1.1875-4.0117-0.95312-1.1016-2.3438-1.7344-3.8047-1.7344h-347.96c-1.4609 0-2.8477 0.63281-3.8047 1.7344-0.96094 1.1016-1.3867 2.5625-1.1875 4.0117l6.2305 44.047v370.47l-6.1797 30.621c-0.30078 1.4805 0.082031 3.0195 1.043 4.1914 0.95312 1.168 2.3867 1.8438 3.8984 1.8438h347.96c1.5117 0 2.9414-0.67969 3.8984-1.8438 0.96094-1.1719 1.3438-2.7109 1.043-4.1914l-6.1797-30.621zm-340.57 397.05 4.0195-19.918h327.61l4.0195 19.918zm5.1602-29.992v-363.89h325.33v363.89zm326.21-373.97h-327.09l-4.6367-32.805h336.36zm-82.328 137.99c0-2.8281-0.27344-5.5977-0.67578-8.3398 1.8633-4.043 9.6953-22.797 5.3828-43.965l-2.4883-12.223c-0.26953-1.3242-1.082-2.4805-2.2188-3.2188-1.1328-0.73828-2.5391-0.98437-3.8555-0.6875l-12.137 2.6992c-8.2031 1.8242-15.301 5.1875-21.121 8.8086-12.723-6.9023-27.844-10.957-44.102-10.957s-31.379 4.0547-44.094 10.957c-5.8164-3.6211-12.914-6.9883-21.113-8.8086l-12.188-2.707c-1.3242-0.28906-2.6992-0.042969-3.832 0.69141-1.1367 0.73438-1.9219 1.8945-2.1953 3.2188l-2.4961 12.23c-4.3242 21.184 3.5234 39.949 5.3789 43.973-0.40234 2.7344-0.67578 5.5039-0.67578 8.332 0 1.1445 0.074219 2.2773 0.16797 3.4023-4.4023 8.7266-6.6328 17.957-6.6328 27.445 0 39.637 39.332 71.883 87.676 71.883s87.676-32.246 87.676-71.883c0-9.4883-2.2305-18.711-6.6289-27.438 0.097656-1.1367 0.17188-2.2656 0.17188-3.4141zm-13.812-55.902 7.1719-1.5938 1.4727 7.1992c1.9141 9.3906 0.93359 18.348-0.62891 25.262-4.7578-9.9766-12.266-18.77-21.742-25.77 4.0664-2.1289 8.6719-3.9727 13.727-5.0977zm-143.45 5.6094 1.4727-7.1992 7.1797 1.5938c5.0508 1.1211 9.6562 2.9688 13.719 5.0938-9.4844 7.0117-17 15.816-21.754 25.809-1.5664-6.8984-2.5391-15.855-0.61719-25.297zm76.047 142.95c-42.789 0-77.598-27.727-77.598-61.809 0-8.3086 2.0664-16.402 6.1445-24.051 0.45312-0.85547 0.65625-1.8242 0.57031-2.7891l-0.054688-0.64062c-0.09375-1.1172-0.19531-2.2305-0.19531-3.3672 0-31.875 31.91-57.805 71.133-57.805 39.227 0 71.137 25.93 71.137 57.805 0 1.168-0.10938 2.3164-0.21094 3.4648l-0.042969 0.52734c-0.082031 0.97266 0.11328 1.9453 0.57031 2.8086 4.0781 7.6523 6.1445 15.742 6.1445 24.051 0 34.074-34.809 61.805-77.598 61.805zm0-68.797c-21.789 0-38.863 10.852-38.863 24.699 0 13.852 17.07 24.699 38.863 24.699 21.789 0 38.863-10.852 38.863-24.699s-17.074-24.699-38.863-24.699zm0 39.324c-16.965 0-28.785-7.707-28.785-14.625-0.003906-6.918 11.82-14.625 28.785-14.625s28.785 7.707 28.785 14.625-11.824 14.625-28.785 14.625zm-1.5625-14.625c0 5.6367-2.8477 9.5781-6.9258 9.5781s-6.9258-3.9375-6.9258-9.5781c0-5.6367 2.8477-9.5742 6.9258-9.5742s6.9258 3.9375 6.9258 9.5742zm16.977 0c0 5.6367-2.8477 9.5781-6.9258 9.5781s-6.9258-3.9375-6.9258-9.5781c0-5.6367 2.8477-9.5742 6.9258-9.5742 4.0742 0 6.9258 3.9375 6.9258 9.5742zm-55.43-51.371c0-4.5586 3.6953-8.2578 8.2578-8.2578 4.5586 0 8.2578 3.6953 8.2578 8.2578 0 4.5586-3.6953 8.2578-8.2578 8.2578s-8.2578-3.6992-8.2578-8.2578zm80.031 0c0 4.5586-3.6953 8.2578-8.2578 8.2578-4.5586 0-8.2578-3.6953-8.2578-8.2578 0-4.5586 3.6953-8.2578 8.2578-8.2578 4.5586 0 8.2578 3.6953 8.2578 8.2578zm-100.7 154.41c-2.7852 0-5.0391-2.2539-5.0391-5.0391s2.2539-5.0391 5.0391-5.0391h121.36c2.7852 0 5.0391 2.2539 5.0391 5.0391s-2.2539 5.0391-5.0391 5.0391zm137.88 32.824c0 2.7852-2.2539 5.0391-5.0391 5.0391h-144.33c-2.7852 0-5.0391-2.2539-5.0391-5.0391 0-2.7852 2.2539-5.0391 5.0391-5.0391h144.33c2.7852 0.003906 5.0391 2.2578 5.0391 5.0391z"/>
</svg>