<?xml version="1.0" encoding="UTF-8"?>
<!-- The Best Svg Icon site in the world: iconSvg.co, Visit us! https://iconsvg.co -->
<svg fill="#000000" width="800px" height="800px" version="1.1" viewBox="144 144 512 512" xmlns="http://www.w3.org/2000/svg">
 <g>
  <path d="m628.29 344.89h-70.852v-121.23c12.297-14.766 22.449-31.199 30.152-48.805 1.0625-2.4336 0.82422-5.2383-0.62891-7.4609-1.4531-2.2188-3.9297-3.5586-6.582-3.5625h-360.76c-2.6523 0.003906-5.1289 1.3438-6.582 3.5625-1.4531 2.2227-1.6875 5.0273-0.62891 7.4609 7.7031 17.605 17.855 34.039 30.152 48.805v176.34c0.011718 10.434 4.1641 20.438 11.543 27.816 7.3789 7.3789 17.383 11.531 27.816 11.543 8.5469-0.03125 16.844-2.8672 23.617-8.0781v23.82c0.011719 10.438 4.1641 20.441 11.543 27.82s17.383 11.527 27.816 11.539h15.742c0 14.062 7.5039 27.059 19.684 34.09 12.176 7.0312 27.18 7.0312 39.359 0 12.176-7.0312 19.68-20.027 19.68-34.09h188.93c2.0859 0 4.0898-0.82813 5.5664-2.3047 1.4727-1.4766 2.3047-3.4766 2.3047-5.5664v-133.82c0-2.0859-0.83203-4.0898-2.3047-5.5664-1.4766-1.4766-3.4805-2.3047-5.5664-2.3047zm-346.37 78.719c-6.2617 0-12.27-2.4883-16.699-6.9141-4.4297-4.4297-6.918-10.438-6.918-16.699v-179.24c0-1.875-0.67188-3.6875-1.8867-5.1094-9.4609-11.055-17.621-23.156-24.324-36.07h335.82c-6.7031 12.914-14.867 25.016-24.324 36.07-1.2188 1.4219-1.8906 3.2344-1.8906 5.1094v179.24c0 8.4375-4.5 16.23-11.809 20.449-7.3086 4.2188-16.309 4.2188-23.617 0-7.3047-4.2188-11.809-12.012-11.809-20.449v-130.32c0.007812-2.7188-1.3906-5.2539-3.6992-6.6953-2.3086-1.4414-5.1992-1.5898-7.6406-0.38672-16.695 8.207-34.52 13.883-52.887 16.844-3.8125 0.61719-6.6172 3.9062-6.6211 7.7695v34.07h-47.23v-34.055c0-3.8633-2.8047-7.1523-6.6211-7.7695-18.367-2.9609-36.188-8.6367-52.883-16.844-2.4453-1.2031-5.3359-1.0547-7.6445 0.38672s-3.707 3.9766-3.6992 6.6953v130.31c0 6.2617-2.4883 12.27-6.918 16.699-4.4297 4.4258-10.438 6.9141-16.699 6.9141zm196.8-91.801-34.242-39.133c11.707-2.5703 23.168-6.1719 34.242-10.762zm-118.08-10.535h-15.742c-8.5469 0.03125-16.844 2.8672-23.617 8.0781v-47.438c12.684 5.293 25.871 9.2852 39.359 11.918zm-15.742 157.44c-6.2617 0-12.27-2.4883-16.699-6.918-4.4297-4.4297-6.918-10.434-6.918-16.699v-94.465c0-6.2617 2.4883-12.27 6.918-16.699 4.4297-4.4258 10.438-6.9141 16.699-6.9141h70.848c2.0898 0 4.0898 0.82812 5.5664 2.3047 1.4766 1.4766 2.3047 3.4766 2.3047 5.5664v15.742h-62.977v15.742h62.977v23.617l-62.977 0.003906v15.742h62.977v23.617h-62.977v15.742h62.977v15.746c0 2.0859-0.82812 4.0898-2.3047 5.5664-1.4766 1.4766-3.4766 2.3047-5.5664 2.3047zm55.105 39.359c-6.2656 0-12.273-2.4883-16.699-6.918-4.4297-4.4258-6.918-10.434-6.918-16.699h47.23c0 6.2656-2.4883 12.273-6.9141 16.699-4.4297 4.4297-10.438 6.918-16.699 6.918zm220.42-39.359h-181.06v-167.97l39.359 44.98v44.273c0 14.059 7.5039 27.055 19.68 34.086 12.18 7.0312 27.184 7.0312 39.359 0 12.18-7.0312 19.68-20.027 19.68-34.086v-39.363h62.977z"/>
  <path d="m431.49 604.67v-1.332c0-5.707-1.5508-11.305-4.4883-16.199l-20.254-33.754c-1.5273-2.2266-4.0508-3.5547-6.7461-3.5547-2.6992 0-5.2227 1.3281-6.7461 3.5547l-20.258 33.746c-2.9375 4.8945-4.4883 10.5-4.4844 16.207v1.332c0 11.25 6 21.645 15.742 27.27 9.7422 5.625 21.746 5.625 31.488 0 9.7422-5.625 15.746-16.02 15.746-27.27zm-47.23 0v-1.332h-0.003906c0-2.8516 0.77734-5.6523 2.2422-8.0977l13.504-22.5 13.5 22.484c1.4688 2.4492 2.2461 5.2539 2.2422 8.1133v1.332c0 5.625-3 10.82-7.8711 13.633s-10.875 2.8125-15.746 0-7.8711-8.0078-7.8711-13.633z"/>
 </g>
</svg>