<?xml version="1.0" encoding="UTF-8"?>
<!-- The Best Svg Icon site in the world: iconSvg.co, Visit us! https://iconsvg.co -->
<svg fill="#000000" width="800px" height="800px" version="1.1" viewBox="144 144 512 512" xmlns="http://www.w3.org/2000/svg">
 <g>
  <path d="m628.29 400h-251.91c-4.3477 0-7.8711 3.5234-7.8711 7.8711v47.23c0 2.0898 0.82812 4.0898 2.3047 5.5664 1.4766 1.4766 3.4766 2.3086 5.5664 2.3086h7.8711v165.31c0 2.0859 0.82812 4.0898 2.3047 5.5664 1.4766 1.4727 3.4805 2.3047 5.5664 2.3047h220.42c2.0898 0 4.0898-0.83203 5.5664-2.3047 1.4766-1.4766 2.3047-3.4805 2.3047-5.5664v-165.31h7.875c2.0859 0 4.0898-0.83203 5.5664-2.3086 1.4727-1.4766 2.3047-3.4766 2.3047-5.5664v-47.23c0-2.0898-0.83203-4.0898-2.3047-5.5664-1.4766-1.4766-3.4805-2.3047-5.5664-2.3047zm-23.617 220.41h-204.67v-157.44h204.67zm15.742-173.18h-236.16v-31.488h236.16z"/>
  <path d="m466.19 321.04c4.0625 9.4883 11.691 17 21.242 20.914 9.5508 3.9102 20.258 3.9102 29.809 0 9.5547-3.9141 17.184-11.426 21.246-20.914 17.914-1.1836 34.711-9.1211 46.996-22.211 12.285-13.09 19.145-30.355 19.191-48.309 0.011719-2.0977-0.80859-4.1172-2.2852-5.6133-1.4766-1.4922-3.4883-2.3398-5.5859-2.3516h-64.078c2.2422-8.0469 1.0312-16.66-3.3477-23.773l12.32-12.328c3.0742-3.0742 3.0742-8.0586 0-11.133-3.0742-3.0703-8.0586-3.0703-11.133 0l-12.391 12.391c-9.8477-5.4766-21.828-5.4766-31.676 0l-12.391-12.391c-3.0742-3.0703-8.0586-3.0703-11.129 0-3.0742 3.0742-3.0742 8.0586 0 11.133l12.316 12.328c-4.375 7.1133-5.5898 15.727-3.3438 23.773h-64.078c-2.1016 0.011718-4.1094 0.85938-5.5859 2.3516-1.4766 1.4961-2.3008 3.5156-2.2852 5.6133 0.042969 17.953 6.9023 35.219 19.188 48.309 12.289 13.09 29.086 21.027 47 22.211zm54.969-61.102c3.082 4.0586 4.7656 9.0078 4.793 14.105v15.742h-47.23v-15.742c0.003906-5.1211 1.6875-10.098 4.7852-14.172 5.4336 4.0625 12.035 6.2617 18.82 6.2695 6.7852 0.007813 13.391-2.1797 18.832-6.2305zm-18.82 69.207c-6.2656 0-12.27-2.4844-16.699-6.9141-4.4297-4.4297-6.918-10.438-6.918-16.699h47.23c0 6.2617-2.4883 12.27-6.9141 16.699-4.4297 4.4297-10.438 6.9141-16.699 6.9141zm39.359-24.238v-30.863c-0.015624-5.4258-1.1641-10.789-3.3711-15.746h50.043c-1.7227 11.762-7.1953 22.648-15.605 31.047-8.4102 8.3984-19.305 13.855-31.066 15.566zm-28.238-81.348c2.6914 2.6641 4.3203 6.2188 4.582 9.9961 0.26172 3.7773-0.85937 7.5234-3.1562 10.535-0.32812 0.37109-0.64062 0.76172-0.92969 1.1641-3.082 3.2578-7.3867 5.0781-11.871 5.0234-4.4883-0.058594-8.7461-1.9883-11.746-5.3203-0.16797-0.30469-0.35938-0.59375-0.57422-0.86719-3.2188-4.2773-4.0352-9.8984-2.1719-14.914 1.8672-5.0195 6.1562-8.7383 11.387-9.875 5.2305-1.1367 10.68 0.46875 14.457 4.2578zm-47.16 34.738c-2.1797 4.9648-3.3125 10.324-3.3203 15.746v30.867c-11.762-1.7109-22.66-7.168-31.066-15.566-8.4102-8.3984-13.883-19.285-15.609-31.047z"/>
  <path d="m455.1 486.59h94.465v15.742h-94.465z"/>
  <path d="m343.77 317.22-23.617-39.359c-1.4219-2.3672-3.9844-3.8164-6.7461-3.8164h-47.23c-2.7656 0-5.3242 1.4492-6.7461 3.8164l-21.328 35.543h-42.777c-2.7617 0-5.3203 1.4492-6.7461 3.8164l-23.617 39.359 0.003906 0.003907c-1.5 2.4922-1.5 5.6133 0 8.1055l21.184 35.309-21.184 35.305c-1.5 2.4961-1.5 5.6133 0 8.1094l23.617 39.359h-0.003906c1.4258 2.3672 3.9844 3.8164 6.7461 3.8164h42.777l21.324 35.543h0.003907c1.4219 2.3672 3.9805 3.8164 6.7461 3.8164h47.23c2.7617 0 5.3242-1.4492 6.7461-3.8164l23.617-39.359c1.5-2.4961 1.5-5.6133 0-8.1094l-21.184-35.305 21.184-35.305v-0.003907c1.5-2.4922 1.5-5.6133 0-8.1055l-21.184-35.309 21.184-35.305c1.5-2.4961 1.5-5.6133 0-8.1094zm-143.99 11.926h38.32l18.895 31.488-18.895 31.488h-38.32l-18.895-31.488zm-18.895 110.21 18.895-31.488h38.32l18.895 31.488-18.895 31.488-38.32 0.003906zm128.06 70.848-38.32 0.003906-18.895-31.488 18.895-31.488h38.32l18.895 31.488zm0-78.719-38.32 0.003906-18.895-31.488 18.891-31.484h38.32l18.895 31.488zm0-78.719h-38.32l-18.895-31.488 18.895-31.488h38.32l18.895 31.488z"/>
 </g>
</svg>