<?xml version="1.0" encoding="UTF-8"?>
<!-- The Best Svg Icon site in the world: iconSvg.co, Visit us! https://iconsvg.co -->
<svg fill="#000000" width="800px" height="800px" version="1.1" viewBox="144 144 512 512" xmlns="http://www.w3.org/2000/svg">
 <path d="m227.31 548.84c-5.5078 5.8203-8.5312 13.402-8.5312 21.445 0 8.3438 3.25 16.188 9.1484 22.086 12.176 12.184 31.988 12.172 44.168 0l5.4297-5.4375c19.133 4.4375 131.91 28.137 244.98 0.03125l5.4062 5.4062c6.0859 6.0898 14.086 9.1289 22.082 9.1289 7.9961 0 15.996-3.043 22.082-9.1289 5.8984-5.8984 9.1445-13.742 9.1445-22.086 0-8.0469-3.0234-15.629-8.5312-21.445l-8.6562-17.891-9.9297-171.86c6.7773-4.3242 11.316-11.859 11.316-20.48v-29.316c0-13.41-10.914-24.32-24.32-24.32h-0.37891c-1.2109-24.469-21.438-44.027-46.203-44.027-6.4805 0-12.852 1.3672-18.746 3.9883-8.3867-27.281-33.875-46.461-62.941-46.461-22.984 0-43.953 11.809-55.934 31.16-9.7344-5.3945-20.645-8.2266-31.867-8.2266-35.543 0-64.527 28.32-65.746 63.57h-0.37891c-13.41 0-24.32 10.906-24.32 24.32v29.316c0 8.6211 4.5352 16.156 11.316 20.48l-9.9297 171.86zm97.719-317.36c11.039 0 21.723 3.2344 30.895 9.3438 1.1953 0.79688 2.6719 1.043 4.0625 0.68359s2.5586-1.3008 3.2148-2.5742c9.6172-18.738 28.633-30.387 49.625-30.387 26.527 0 49.535 18.859 54.699 44.844 0.32422 1.6289 1.4297 2.9922 2.957 3.6484 1.5273 0.66406 3.2812 0.51562 4.6797-0.37109 5.8203-3.6875 12.508-5.6445 19.348-5.6445 19.211 0 34.934 15.039 36.129 33.953h-261.28c1.2148-29.695 25.684-53.496 55.672-53.496zm-80.367 77.812c0-7.8555 6.3867-14.242 14.242-14.242h282.2c7.8555 0 14.242 6.3945 14.242 14.242v29.316c0 7.8555-6.3867 14.242-14.242 14.242h-282.2c-7.8555 0-14.242-6.3945-14.242-14.242zm0.80859 225.15c0.28906-0.59375 0.45312-1.2461 0.49219-1.9062l9.8203-169.92c1.0312 0.13672 2.0508 0.3125 3.1133 0.3125h282.2c1.0664 0 2.0859-0.17969 3.1133-0.3125l9.8203 169.92c0.039062 0.66016 0.20703 1.3086 0.49219 1.9062l9.4453 19.523c0.24609 0.50781 0.57422 0.96875 0.97266 1.3672 3.9961 3.9961 6.1914 9.3086 6.1914 14.957 0 5.6523-2.2031 10.969-6.1914 14.965-3.9883 3.9922-9.2969 6.1875-14.949 6.1875-5.6523 0-10.965-2.2031-14.957-6.1914l-7.4258-7.4297c-1.2578-1.2539-3.082-1.7734-4.8164-1.3203-121.8 31.195-244.35 0.3125-245.58 0.003906-1.7188-0.44922-3.5625 0.058594-4.8281 1.3164l-7.4219 7.4297c-3.9883 3.9922-9.2969 6.1914-14.953 6.1914-5.6523 0-10.965-2.2031-14.957-6.1914-3.9961-3.9961-6.1953-9.3086-6.1953-14.965 0-5.6484 2.2031-10.965 6.1953-14.957 0.39844-0.39844 0.73047-0.86328 0.97266-1.3672z"/>
</svg>