<?xml version="1.0" encoding="UTF-8"?>
<!-- The Best Svg Icon site in the world: iconSvg.co, Visit us! https://iconsvg.co -->
<svg fill="#000000" width="800px" height="800px" version="1.1" viewBox="144 144 512 512" xmlns="http://www.w3.org/2000/svg">
 <path d="m533.3 523.11c0.6875-2.4141 1.0781-4.8672 1.0781-7.3633 0-35.074-69.461-62.547-158.13-62.547s-158.12 27.473-158.12 62.547c0 35.074 69.457 62.547 158.12 62.547 8.6055 0 17.02-0.26562 25.215-0.76562-0.011719 0.43359-0.09375 0.85937-0.09375 1.2969 0 31.91 34.582 51.734 90.254 51.734 55.664 0 90.246-19.824 90.246-51.734 0-24.195-19.746-45.207-48.57-55.715zm11.785 16.477c-0.47656 0.52734-0.90625 1.0625-1.4062 1.582-7.0938 7.4062-12.418 9.5898-14.234 9.7383-0.51172-2.707 1.7109-9.0469 6.3477-16.105 3.2891 1.4375 6.3672 3.0547 9.293 4.7852zm-81.094-65.852c-3.5781 2.9453-7.9336 6.0664-13.387 9.2109-18.781 10.848-31.691 11.484-33.668 9.9219-0.37109-2.4922 6.5898-13.242 25.16-24.031 7.7734 1.4141 15.078 3.0586 21.895 4.8984zm-60.777-9.5781c-3.4766 4.7578-10.664 11.762-22.84 18.789-18.773 10.84-31.684 11.488-33.668 9.9219-0.375-2.5039 6.6445-13.352 25.426-24.195 3.8359-2.2148 7.3477-3.9062 10.648-5.3398 7.0117 0.10938 13.824 0.39062 20.434 0.82422zm-71.492 1.5664c-3.8242 4.668-10.664 10.922-21.586 17.227-18.781 10.844-31.684 11.492-33.668 9.9219-0.33984-2.2891 5.5781-11.516 20.848-21.344 10.492-2.4258 22.008-4.3945 34.406-5.8047zm44.527 102.49c-88.559 0-148.05-27.133-148.05-52.473 0-13.363 16.559-27.219 45.184-37.336-8.3828 9.6484-7.7227 15.934-5.6602 19.512 2.2891 3.9648 6.7461 5.6289 12.387 5.6289 9.8633 0 23.332-5.0977 35.066-11.871 9.5234-5.5 17.805-11.98 23.312-18.258 2.9688-3.3828 4.7734-6.3281 5.8516-8.918 5.5078-0.43359 11.176-0.74609 16.98-0.95312-7.0625 4.6328-13.188 9.7031-17.539 14.664-8.5742 9.7656-7.8984 16.109-5.8164 19.711 1.6055 2.7734 5.0352 5.6484 12.375 5.6484 2.1758 0 4.6914-0.25 7.6016-0.83203 8.1914-1.6328 17.949-5.5586 27.473-11.059 9.5234-5.4961 17.805-11.98 23.316-18.258 2.7656-3.1523 4.4922-5.9102 5.5938-8.375 4.4297 0.42188 8.7422 0.92188 12.957 1.4844-5.2266 3.7891-9.8281 7.7656-13.27 11.684-8.5703 9.7656-7.8984 16.109-5.8164 19.711 1.6055 2.7734 5.0391 5.6484 12.379 5.6484 2.1758 0 4.6875-0.25 7.6016-0.83203 8.1875-1.6328 17.941-5.5586 27.469-11.059 7.6562-4.418 14.43-9.4766 19.688-14.551 30.941 10.211 48.973 24.68 48.973 38.617 0 1.457-0.21875 2.918-0.60547 4.3789-9.9844-2.6562-20.766-4.1758-32.074-4.1758-44.133 0-80.902 22.199-88.676 51.402-8.5742 0.55078-17.469 0.85938-26.703 0.85938zm118.87-42.078c3.918 0.11328 7.7734 0.375 11.531 0.84375-2.3828 4.4219-5.8359 9.418-10.41 14.188-7.0938 7.3984-12.418 9.5859-14.234 9.7383-0.71484-3.8008 3.8711-14.699 13.113-24.77zm-57.129 13.551c5.543-3.2969 11.77-6.0859 18.547-8.2695-2.1016 3.1953-4.6484 6.5234-7.7422 9.75-7.0938 7.3984-12.414 9.5859-14.23 9.7383-0.39062-2.0625 0.80469-6.2383 3.4258-11.219zm53.637 80.793c-38.762 0-80.176-10.941-80.176-41.656 0-10.621 4.8281-20.5 13.051-28.789-0.011719 1.5273 0.13281 2.9805 0.55078 4.293 1.0547 3.3008 3.5273 5.6289 6.7852 6.3828 0.82031 0.1875 1.6562 0.27734 2.5039 0.27734 8.4375 0 17.832-8.7734 21.723-12.836 5.5938-5.832 10.695-13.121 13.82-20.102 3.8828-0.72266 7.875-1.2617 11.973-1.5938-6.9805 9.6367-11.676 20.637-9.3711 27.867 0 0 0.003906 0 0.003906 0.003907 1.0547 3.3008 3.5273 5.6289 6.7852 6.3828 0.82031 0.1875 1.6562 0.27734 2.5039 0.27734 8.4414 0 17.836-8.7734 21.727-12.836 5.3945-5.6289 10.359-12.613 13.512-19.367 3.1289 0.69141 6.1484 1.5195 9.0938 2.4492-5.1172 8.3359-8.1133 17.039-6.1758 23.098 1.0547 3.3008 3.5273 5.6289 6.7852 6.3828 0.82031 0.1875 1.6562 0.27734 2.5039 0.27734 8.4414 0 17.836-8.7734 21.727-12.836 0.86719-0.90625 1.707-1.8945 2.5469-2.8633 11.426 9.125 18.297 20.812 18.297 33.539 0.003906 30.707-41.41 41.648-80.168 41.648zm3.1445-356.46c0.31641-2.0625 2.2031-3.5 4.3008-3.1758l5.4375 0.8125c2.0625 0.30859 3.4844 2.2344 3.1797 4.2969-0.28516 1.8711-1.8945 3.2188-3.7344 3.2188-0.1875 0-0.375-0.011718-0.56641-0.042968l-5.4375-0.8125c-2.0664-0.3125-3.4883-2.2344-3.1797-4.2969zm-32.148-9.6016c0.30859-2.0625 2.2695-3.5 4.2969-3.1797l5.4375 0.8125c2.0664 0.30859 3.4883 2.2305 3.1836 4.2969-0.28125 1.875-1.8945 3.2188-3.7344 3.2188-0.1875 0-0.375-0.011719-0.5625-0.042969l-5.4375-0.8125c-2.0664-0.30859-3.4883-2.2305-3.1836-4.293zm14.168 27.078 5.4375 0.8125c2.0625 0.30859 3.4844 2.2344 3.1797 4.2969-0.28516 1.8711-1.8945 3.2188-3.7344 3.2188-0.1875 0-0.375-0.011718-0.56641-0.042968l-5.4375-0.8125c-2.0625-0.30859-3.4844-2.2344-3.1797-4.2969 0.31641-2.0625 2.2148-3.5117 4.3008-3.1758zm26.047 18.289 5.4375 0.8125c2.0625 0.30859 3.4844 2.2344 3.1797 4.2969-0.28516 1.8711-1.8945 3.2188-3.7344 3.2188-0.1875 0-0.375-0.011719-0.56641-0.042969l-5.4375-0.8125c-2.0625-0.30859-3.4844-2.2344-3.1797-4.2969 0.31641-2.0625 2.2266-3.5039 4.3008-3.1758zm-22.348 19.668c-0.28516 1.8711-1.8945 3.2188-3.7344 3.2188-0.1875 0-0.375-0.011718-0.56641-0.042968l-5.4375-0.8125c-2.0625-0.30859-3.4844-2.2344-3.1797-4.2969 0.31641-2.0625 2.2188-3.4961 4.3008-3.1758l5.4375 0.8125c2.0664 0.30859 3.4883 2.2344 3.1797 4.2969zm13.137 16.355c0.30859-2.0664 2.2227-3.4922 4.3008-3.1797l5.4336 0.8125c2.0625 0.30859 3.4844 2.2305 3.1797 4.2969-0.28125 1.875-1.8945 3.2188-3.7344 3.2188-0.1875 0-0.375-0.011719-0.56641-0.042969l-5.4336-0.8125c-2.0625-0.30469-3.4844-2.2266-3.1797-4.293zm-247.34-42.629c0.81641 1.1328 1.3242 2.3633 1.457 3.5508l12.84 111.46c0.53125 4.6211 2.8281 8.7539 6.4688 11.641 3.1055 2.4648 6.875 3.7734 10.781 3.7734 0.67578 0 1.3516-0.039062 2.0312-0.11719h-0.003907l152.32-17.543c3.9609-0.45703 7.4102-2.2656 10.07-4.8516l86.332 12.914c0.50781 0.074218 1.0117 0.11328 1.5156 0.11328 2.1406 0 4.2148-0.68359 5.9688-1.9766 2.1641-1.5977 3.5703-3.9453 3.9766-6.6133l26.23-175.36c0.82031-5.4922-2.9766-10.633-8.4766-11.457l-138.25-20.688c-20.844-20.52-54.859-31.922-91.672-27.695-56.832 6.5508-98.93 47.805-93.84 91.965 1.2656 10.992 5.3906 21.383 12.254 30.891zm193.88-54.633c-0.21484-1.8516-0.62109-3.6445-0.98828-5.4453l92.438 13.824-19.809 132.41-66.316-9.918-10.852-94.215c-0.13281-1.1914 0.078125-2.5039 0.61328-3.7891 4.5273-10.832 6.1797-21.891 4.9141-32.871zm116.14-9.8828-26.23 175.37-82.828-12.387c0.28516-1.6133 0.42578-3.2695 0.23047-4.9805l-0.79297-6.8711 63.629 9.5195c0.50781 0.074218 1.0039 0.11328 1.5 0.11328 4.8984-0.003907 9.2109-3.5977 9.9648-8.5898l19.805-132.41c0.39844-2.6602-0.26562-5.3203-1.8633-7.4844-1.6055-2.1641-3.9492-3.5781-6.6133-3.9727l-96.988-14.512c-1.7734-4.4883-4.1016-8.7461-6.8242-12.793zm-227.28-48.324c4.8047-0.55469 9.5508-0.82031 14.223-0.82031 45.219 0 82.879 25.16 86.91 60.18 1.0625 9.2461-0.34766 18.613-4.207 27.84-1.1992 2.875-1.6562 5.9219-1.3242 8.8203l12.844 111.45c0.45703 4.0117-2.4297 7.6562-6.4414 8.1172l-152.32 17.543h-0.003907c-1.9414 0.20312-3.8555-0.32031-5.3867-1.5391-1.5312-1.2148-2.5-2.957-2.7227-4.8984l-12.84-111.46c-0.33594-2.8984-1.4727-5.7656-3.3008-8.293-5.8438-8.0977-9.3477-16.895-10.414-26.145-4.4492-38.645 33.672-74.895 84.98-80.801zm-65.176 100.16c2.9883 4.1289 4.8594 8.8867 5.418 13.754l11.777 102.21c0.29688 2.5664 2.4766 4.4609 5 4.4609 0.19531 0 0.39062-0.011719 0.58203-0.035157l133.84-15.414c1.3281-0.15234 2.5391-0.82812 3.3711-1.875 0.83203-1.043 1.2109-2.375 1.0586-3.7031l-11.773-102.22c-0.5625-4.8633 0.18359-9.918 2.1484-14.621 3.0781-7.3672 4.2109-14.781 3.375-22.035-3.2734-28.461-35.68-49.922-75.383-49.922-4.2812 0-8.6211 0.25-12.906 0.74609-22.582 2.5977-42.879 11.625-57.156 25.418-13.082 12.641-19.344 27.746-17.641 42.539 0.83984 7.2617 3.6289 14.223 8.293 20.691zm16.352-55.98c12.695-12.262 30.914-20.309 51.309-22.656 3.9023-0.44922 7.8555-0.67969 11.75-0.67969 34.582 0 62.684 17.625 65.375 41 0.63281 5.5195-0.26172 11.238-2.668 16.992-2.6289 6.2852-3.6172 13.086-2.8594 19.66l11.199 97.215-123.83 14.262-11.199-97.211c-0.76172-6.582-3.2734-12.98-7.2617-18.5-3.6445-5.0508-5.8164-10.414-6.4492-15.941-1.3398-11.609 3.8594-23.734 14.633-34.141z"/>
</svg>