<?xml version="1.0" encoding="UTF-8"?>
<!-- The Best Svg Icon site in the world: iconSvg.co, Visit us! https://iconsvg.co -->
<svg fill="#000000" width="800px" height="800px" version="1.1" viewBox="144 144 512 512" xmlns="http://www.w3.org/2000/svg">
 <g>
  <path d="m514.62 433.15c0.09375 0 0.18359-0.003906 0.27734-0.007813 2.7812-0.14844 4.9102-2.5234 4.7617-5.3008-0.21094-3.918-0.39844-7.8828-0.55469-11.816-0.11328-2.7812-2.4453-4.8984-5.2344-4.832-2.7812 0.10938-4.9453 2.4531-4.832 5.2344 0.15625 3.9844 0.34375 7.9961 0.55469 11.961 0.14453 2.6797 2.3672 4.7617 5.0273 4.7617z"/>
  <path d="m550.59 492.43c-10.273 0-13.066-1.7773-13.789-2.543-7.0391-7.4141-9.5-11.637-13.418-27.227-0.94531-3.7891-1.8008-9.8086-2.5273-17.895-0.25-2.7656-2.7227-4.7656-5.4727-4.5625-2.7734 0.25-4.8164 2.6992-4.5664 5.4727 0.77734 8.5977 1.7188 15.137 2.793 19.434 4.1562 16.562 7.125 22.492 15.875 31.711 3.7227 3.9297 10.234 5.6836 21.102 5.6836 2.7852 0 5.0391-2.2539 5.0391-5.0391 0-2.7773-2.25-5.0352-5.0352-5.0352z"/>
  <path d="m596.95 375.5c-0.39453-1.625-1.5664-2.9531-3.1328-3.5391-1.5586-0.58203-3.3242-0.35547-4.6836 0.61328-0.28516 0.20312-5.6992 4.0938-13.691 11.211-5.3633-36.105-14.805-74.758-30.695-74.758-16.082 0-25.543 39.215-30.883 75.84-8.6367-7.8164-14.562-12.082-14.871-12.301-1.5352-1.0898-3.5586-1.2344-5.2305-0.36719-1.6758 0.86328-2.7266 2.5938-2.7266 4.4805 0 2.8242 0.12109 69.43 5.9297 92.574 4.5547 18.18 8.4141 27.727 20.516 39.789 7.3594 7.3398 22.316 10.566 32.828 10.566 4.0156 0 7.3867-0.47266 9.4258-1.3672 6.9414-3.1133 11.805-9.0039 16.969-16.891 0.035156-0.054687 0.039063-0.12109 0.074219-0.17578 2.707-4.1992 5.7383-9.3828 9.457-15.875 0.003906-0.003906 0.003906-0.003906 0.003906-0.007812 25.805-45.23 11.336-107.18 10.711-109.79zm-52.199-56.395c4.1523 0 14.68 21.473 21.723 73.066-0.43359 0.42578-0.82812 0.89453-1.2617 1.3242-3.1445 3.1328-6.207 6.3398-9.1797 9.6289-0.55859 0.61719-1.1367 1.2188-1.6875 1.8438-3.2617 3.6758-6.3906 7.4414-9.418 11.277-0.27734 0.35156-0.58594 0.67969-0.86328 1.0312-0.25391-0.32812-0.54688-0.63672-0.80469-0.96484-2.8516-3.6133-5.8086-7.1719-8.8828-10.656-0.55859-0.63281-1.1406-1.25-1.7109-1.8789-2.75-3.0586-5.582-6.0547-8.4922-8.9922-0.45312-0.45703-0.86719-0.94922-1.3281-1.4023 7.0078-52.453 17.672-74.277 21.906-74.277zm10.906 189.93c-3.6953 1.5195-23.945-0.027344-31.059-7.125-10.254-10.219-13.594-18.082-17.859-35.105-4.1836-16.676-5.2539-59.652-5.5312-79.633 3.4844 2.9375 7.8906 6.8477 12.797 11.645 7.1523 6.9805 13.863 14.363 20.023 22.023 2.0508 2.5469 4.0352 5.125 5.957 7.7305 4.9336 6.7773 9.418 13.676 13.309 20.512 9.082 15.945 14.141 28.812 15.035 38.27 0.17969 1.8086 0.20703 3.4961 0.10938 5.0781-0.03125 0.50391-0.15234 0.92969-0.21094 1.4102-0.12109 0.96875-0.25 1.9297-0.48828 2.7969-4.7461 7.1367-8.1875 10.652-12.082 12.398zm21.836-28.73c-0.019532 0.035156-0.039063 0.070312-0.058594 0.10156-0.12891-0.61719-0.30469-1.2617-0.46094-1.8945-0.10938-0.45312-0.21094-0.90234-0.33203-1.3633-0.32812-1.25-0.70703-2.5312-1.1211-3.8398-0.070312-0.21484-0.12109-0.42188-0.19141-0.63672-0.5-1.5273-1.0625-3.0977-1.6758-4.7109-0.1875-0.48828-0.40234-1-0.60156-1.5-0.45703-1.1445-0.92969-2.3047-1.4453-3.4961-0.27344-0.63281-0.56641-1.2812-0.85938-1.9297-0.5-1.1133-1.0234-2.2422-1.5742-3.3906-0.32422-0.67578-0.65234-1.3555-0.99219-2.0469-0.61328-1.2383-1.2656-2.5078-1.9336-3.793-0.32031-0.60938-0.62109-1.2109-0.95312-1.832-1.0234-1.918-2.0938-3.8672-3.2383-5.8789-1.9102-3.3438-3.9727-6.7031-6.1289-10.051-0.69141-1.0742-1.4375-2.1367-2.1523-3.2109-1.1406-1.707-2.2383-3.4219-3.4336-5.1211 0.76562-1.0039 1.5352-2.0078 2.3164-3.0039 0.84766-1.0742 1.6875-2.1562 2.5547-3.2188 1.2578-1.543 2.5508-3.0586 3.8516-4.5742 0.85156-0.99219 1.6875-1.9961 2.5547-2.9766 1.4297-1.6172 2.9023-3.1992 4.3789-4.7812 0.77734-0.83594 1.5391-1.6875 2.3281-2.5156 2.2812-2.3789 4.6016-4.7188 6.9727-7.0039 5.2695-5.0703 9.9102-9.082 13.359-11.918 2.9102 17.742 7.5156 61.832-11.164 94.586z"/>
  <path d="m449.32 281.49c-6.2969-2.8281-13.816-0.042969-16.758 6.2031-0.089844 0.19531-0.16797 0.39453-0.23438 0.60156l-11.129 34.633-11.129-34.633c-0.070312-0.20312-0.14844-0.40625-0.23437-0.60156-2.9531-6.2812-10.484-9.0586-16.828-6.1758-6.2812 2.9336-9.0547 10.453-6.1562 16.785l19.898 42.973c-12.062 5.043-17.133 19.82-17.133 48.594 0 26.027 7.8984 122.92 31.582 122.92 23.684 0 31.582-96.895 31.582-122.92 0-28.781-5.0703-43.559-17.129-48.598l19.895-42.969c0.003906-0.011719 0.011719-0.015626 0.011719-0.023438 2.8828-6.3047 0.11328-13.824-6.2383-16.789zm-16.379 192.36h-23.438c-1.668-7.0664-3.2461-15.062-4.6289-23.605h32.66c-1.375 8.543-2.9375 16.539-4.5938 23.605zm9.7617-83.973c0 5.4258-0.16797 10.996-0.46094 16.613h-42.086c-0.29297-5.6172-0.46094-11.188-0.46094-16.613 0-2.4883 0.042969-4.8047 0.11719-6.9922h42.773c0.074218 2.1875 0.11719 4.5039 0.11719 6.9922zm-39.328 50.293c-1.0508-7.6797-1.9258-15.633-2.5586-23.605h40.758c-0.63281 7.9727-1.5039 15.926-2.5469 23.605zm-2.8672-67.363c2.375-21.598 9.4453-22.633 14.012-23.27 1.957-0.28125 4.082-0.33594 6.6758-0.33594 2.5391 0 4.6211 0.058593 6.5586 0.32422 0.035156 0.003906 0.082032 0.007812 0.11719 0.011718h0.027344c4.5547 0.63672 11.613 1.6875 13.984 23.266zm-3.2852-82.129c0.34375-0.15625 0.70703-0.23047 1.0742-0.23047 0.92188 0 1.8164 0.48828 2.3008 1.3242l12.871 40.043-17.465-37.715c-0.59375-1.2969-0.027344-2.8438 1.2188-3.4219zm24.113 212.06c-2.7891-0.86719-6.0586-7.9648-9.2031-18.809h18.211c-3.1016 10.844-6.3125 17.941-9.0078 18.809zm25.055-208.64-17.465 37.723 12.871-40.043c0.67969-1.1797 2.1211-1.6602 3.332-1.1133 1.2852 0.59766 1.8555 2.1367 1.2617 3.4336z"/>
  <path d="m349.27 426.61c-0.10156-0.32812-0.21875-0.63281-0.37891-0.92578-0.074219-0.13672-0.085937-0.28906-0.17188-0.42188-0.09375-0.14062-0.23828-0.21484-0.34375-0.34375-0.21875-0.26953-0.45312-0.50391-0.72656-0.72266-0.25-0.20312-0.5-0.375-0.77734-0.52344-0.28125-0.15234-0.56641-0.26562-0.87891-0.35938-0.32812-0.10156-0.64844-0.16797-0.99219-0.19922-0.16797-0.015626-0.30859-0.097657-0.48047-0.097657-0.16016 0-0.29688 0.078125-0.45313 0.089844-0.023437 0.003906-0.046874-0.003906-0.070312 0-1.3242-30.355-25.602-55.41-57.203-60.832l21.23-45.852c0.003906-0.007812 0.003906-0.015625 0.011718-0.019531 3.0195-6.6016 0.12891-14.469-6.5195-17.574-6.5898-2.9531-14.453-0.050781-17.535 6.4961-0.089844 0.19531-0.16797 0.39453-0.23438 0.60156l-12.348 38.434-12.348-38.434c-0.0625-0.20313-0.14453-0.40234-0.23438-0.59766-3.0742-6.5742-10.957-9.4766-17.598-6.4648-6.5781 3.0664-9.4727 10.934-6.4453 17.562l21.695 46.84c-30.199 7.1914-52.598 32.406-52.598 62.406 0 0.84766 0.046875 1.6562 0.125 2.4883-0.69141 0.19141-1.3086 0.51172-1.8633 0.96875-2.1289 0.60547-3.7109 2.4883-3.6914 4.8047 0.28125 34.121 35.59 64.055 75.559 64.055 38.84 0 75.562-33.988 75.562-69.938 0-0.15625-0.074218-0.28906-0.089844-0.44141-0.035156-0.34375-0.10547-0.66406-0.20312-1zm-56.051-117.23c0.82812-1.4648 2.5977-2.0742 4.1094-1.3906 1.5781 0.73828 2.2734 2.6289 1.5508 4.2109l-21.445 46.316zm-47.789-1.3711c0.42188-0.19531 0.87109-0.28516 1.3086-0.28516 1.1406 0 2.25 0.61328 2.8398 1.6562l15.777 49.105-21.438-46.277c-0.72266-1.5938-0.027344-3.4844 1.5117-4.1992zm28.566 63.203c32.871 0 59.812 24.254 60.059 54.062 0.007812 0.75391 0.20312 1.4531 0.50781 2.0898-7.0938 2.2031-12.074-0.38281-16.254-2.5938-1.2852-0.67969-2.4219-1.2656-3.4062-1.6523l-1.3984-0.57812c-2.6094-1.1094-6.168-2.6172-11.031-2.3164-4.668 0.30078-7.4258 2.1094-9.4375 3.4336-1.4258 0.93359-2.2891 1.5-3.8242 1.7305-2.125 0.32422-3.2969-0.31641-5.7422-1.7891-2.6875-1.6211-6.3477-3.8242-11.891-3.3672-5.5781 0.47656-8.6797 3.2734-10.941 5.3203-1.8789 1.6992-2.6094 2.2891-4.1875 2.3438-2.1094 0.054687-3.3516-0.93359-5.7305-2.8438-2.793-2.2461-6.5742-5.3242-12.508-4.8125-4.5898 0.39453-7.2539 2.7422-9.3906 4.625-1.4531 1.2773-2.8203 2.4805-5.0312 3.457-2.8555 1.2656-6.2344 1.6055-9.9961 1.2227 0.21484-0.68359 0.31641-1.4062 0.21484-2.1602-0.078125-0.58203-0.0625-1.1289-0.0625-1.7148-0.003907-30.031 26.938-54.457 60.051-54.457zm0 116.7c-32.566 0-61.547-22.328-65.102-48.93 2.5898 0.51953 5.1211 0.87109 7.5195 0.87109 4.1211 0 7.9453-0.77344 11.445-2.3164 3.6367-1.6055 5.9375-3.6328 7.6211-5.1133 1.8789-1.6523 2.4336-2.0508 3.6016-2.1523 1.6758-0.11719 2.8047 0.60156 5.332 2.6328 2.75 2.2109 6.4336 5.1602 12.359 5.0586 5.3516-0.17188 8.4023-2.9258 10.629-4.9375 1.9141-1.7344 2.9336-2.5742 5.0391-2.7539 2.1484-0.20313 3.4922 0.54297 5.832 1.9531 2.8086 1.6875 6.6406 4.0039 12.453 3.125 3.7109-0.5625 6.0039-2.0625 7.8438-3.2695 1.5898-1.0391 2.5469-1.6719 4.5625-1.8008 2.5195-0.16016 4.2148 0.58984 6.4336 1.5312 0.5625 0.23828 1.1133 0.47656 1.6641 0.69141 0.6875 0.26953 1.4727 0.69922 2.3672 1.1719 4.9609 2.625 13.371 7.0664 24.938 3.0234-5.375 26.977-34.664 51.215-64.539 51.215z"/>
 </g>
</svg>