<?xml version="1.0" encoding="UTF-8"?>
<!-- The Best Svg Icon site in the world: iconSvg.co, Visit us! https://iconsvg.co -->
<svg fill="#000000" width="800px" height="800px" version="1.1" viewBox="144 144 512 512" xmlns="http://www.w3.org/2000/svg">
 <path d="m545.12 306.7c7.0664-15.828 5.6367-34.16-3.8008-48.699-9.4336-14.543-25.59-23.316-42.926-23.312-1.2305 0-2.4688 0.042969-3.6992 0.13281-19.812-43.949-55.656-70.984-94.699-70.984-36.68 0-70.316 23.473-90.883 63.098-1.1992-0.078125-2.3945-0.12109-3.582-0.12109-19.074 0.007812-36.789 9.8711-46.836 26.082-10.047 16.211-11 36.465-2.5195 53.547-13.383 2.4688-25.379 9.8047-33.676 20.594-8.3008 10.785-12.312 24.262-11.266 37.832 1.0469 13.57 7.0781 26.273 16.93 35.66-4.5156 25.23 2.3828 51.164 18.836 70.816s40.77 31 66.402 30.992c11.004 0.023437 21.906-2.0664 32.121-6.1562 6.7031 6.4102 14.484 11.598 22.984 15.312v77.434c0 10.621-3.0352 19.184-9.0156 25.445h-0.003906c-2.582 2.7656-5.7188 4.9609-9.1992 6.4414-3.6719 1.2148-5.9141 4.9141-5.3008 8.7266 0.61719 3.8164 3.9102 6.6211 7.7734 6.6211h94.465c3.8711 0.007813 7.1719-2.8008 7.7891-6.6211 0.61719-3.8203-1.6367-7.5234-5.3125-8.7305-3.2773-1.375-6.2461-3.3984-8.7227-5.9492-6.3008-6.2891-9.4961-15.02-9.4961-25.934v-77.434c8.5-3.7148 16.277-8.9023 22.98-15.312 10.215 4.0898 21.121 6.1797 32.121 6.1562 25.633 0.011718 49.949-11.34 66.406-30.992 16.453-19.652 23.348-45.586 18.832-70.816 9.7461-9.2812 15.758-21.809 16.898-35.219 1.1445-13.406-2.6602-26.773-10.691-37.57-8.0352-10.797-19.738-18.281-32.91-21.039zm-128.06 144.04c-0.86328 1.293-1.3242 2.8125-1.3242 4.3672v133.82c0 14.195 4.1406 24.348 9.293 31.488h-50.074c5.1523-7.1406 9.293-17.293 9.293-31.488v-133.82c0-1.5547-0.46094-3.0742-1.3203-4.3672l-54.82-82.223h28.16l37.047 59.277 0.003907-0.003906c1.4375 2.3047 3.9609 3.7031 6.6758 3.7031 2.7109 0 5.2344-1.3984 6.6758-3.7031l37.047-59.273h28.16zm141.23-59.281-0.003907 0.003906c-2.3867 1.8945-3.4609 5-2.7617 7.9688 5 21.078 0.074218 43.285-13.363 60.273-13.438 16.992-33.91 26.898-55.574 26.891-10.578 0.027344-21.023-2.3359-30.559-6.9141-3.1484-1.5078-6.9141-0.76172-9.25 1.8281-4.4219 4.9023-9.582 9.0859-15.293 12.395v-36.406l61.652-92.48c1.6133-2.418 1.7656-5.5234 0.39453-8.0859s-4.0391-4.1602-6.9453-4.1602h-47.23c-2.7148 0-5.2383 1.3984-6.6758 3.6992l-32.684 52.293-32.688-52.293c-1.4375-2.3008-3.9609-3.6992-6.6758-3.6992h-47.23c-2.9023 0-5.5703 1.5977-6.9414 4.1602-1.3672 2.5586-1.2188 5.6641 0.39062 8.0781l61.656 92.48v36.41c-5.7148-3.3125-10.875-7.4961-15.297-12.398-2.3398-2.5938-6.1055-3.3359-9.25-1.8281-9.5352 4.582-19.98 6.9453-30.559 6.9219-21.664 0.007812-42.137-9.8984-55.574-26.891-13.438-16.992-18.359-39.195-13.363-60.273 0.69922-2.9688-0.375-6.0742-2.7617-7.9727-8.5859-6.8125-13.941-16.895-14.777-27.824-0.83594-10.926 2.9258-21.707 10.371-29.746 7.4492-8.0391 17.914-12.605 28.875-12.605 1.1484 0 2.3359 0.058594 3.6328 0.17578 3.2266 0.29297 6.3047-1.4258 7.7539-4.3281 1.4453-2.9023 0.96484-6.3945-1.2109-8.7969-6.8516-7.5703-10.492-17.512-10.156-27.719 0.33984-10.207 4.6328-19.879 11.973-26.98 7.3398-7.1016 17.152-11.07 27.367-11.07 2.2812 0.003906 4.5625 0.20312 6.8086 0.60156 3.4844 0.60547 6.9453-1.1875 8.4648-4.3828 17.59-37.066 47.195-59.195 79.191-59.195 34.145 0 65.773 25.594 82.531 66.797l-0.003906-0.003906c1.4258 3.5039 5.1367 5.5 8.8438 4.7539 9.6328-1.9531 19.645 0.1875 27.637 5.9062 7.9961 5.7148 13.258 14.5 14.523 24.246s-1.5742 19.582-7.8398 27.152c-1.9883 2.3984-2.375 5.7383-0.99219 8.5273 1.3828 2.7852 4.2773 4.4961 7.3867 4.3633 0.57812-0.023438 1.1562-0.046875 1.7422-0.046875v0.003906c10.961-0.003906 21.426 4.5625 28.875 12.602 7.4492 8.043 11.207 18.824 10.371 29.75-0.83594 10.93-6.1914 21.012-14.777 27.824z"/>
</svg>