<?xml version="1.0" encoding="UTF-8"?>
<!-- The Best Svg Icon site in the world: iconSvg.co, Visit us! https://iconsvg.co -->
<svg fill="#000000" width="800px" height="800px" version="1.1" viewBox="144 144 512 512" xmlns="http://www.w3.org/2000/svg">
 <g>
  <path d="m396.28 358.51 17-17c10.781-10.781 10.781-28.32 0-39.098-4.8164-4.8164-10.996-7.3555-17.309-7.8672 9.1914-10.852 8.793-27.102-1.4375-37.332-6.5938-6.5938-15.723-9.1055-24.285-7.6289 1.4805-8.5664-1.0312-17.691-7.6328-24.293-10.227-10.234-26.484-10.629-37.332-1.4453-0.51172-6.3086-3.0547-12.484-7.8711-17.301-10.773-10.785-28.324-10.773-39.098 0l-71.77 71.773c-10.781 10.781-10.781 28.316 0 39.094 4.8164 4.8203 10.992 7.3594 17.305 7.8711-9.1914 10.852-8.793 27.105 1.4414 37.336 5.3867 5.3867 12.469 8.082 19.547 8.082 1.5859 0 3.168-0.18359 4.7383-0.45312-1.4805 8.5625 1.0352 17.688 7.6328 24.289 5.3867 5.3906 12.469 8.082 19.547 8.082 6.3633 0 12.652-2.293 17.785-6.6406 0.51172 6.3086 3.0547 12.48 7.8711 17.297 5.3906 5.3867 12.473 8.082 19.551 8.082 7.0781 0 14.16-2.6953 19.547-8.082l17.012-17.012 197.43 197.43c5.0391 5.0469 11.746 7.8281 18.875 7.8281 7.1328 0 13.836-2.7812 18.879-7.8242s7.8242-11.742 7.8242-18.879c0-7.1328-2.7812-13.836-7.8242-18.879zm-182.61-73.066 71.773-71.777c3.4258-3.4258 7.9258-5.1367 12.43-5.1367 4.4961 0 9 1.7109 12.422 5.1367 6.8398 6.8477 6.8477 17.973 0.019531 24.828l-35.906 35.91-35.891 35.887c-6.8477 6.8477-17.996 6.8477-24.848 0-6.8477-6.8516-6.8477-18 0-24.848zm18.746 70.051c-6.8477-6.8555-6.8477-17.996 0-24.852l49.113-49.117 35.891-35.887c0.007812-0.007813 0.011719-0.015625 0.019531-0.023437l13.207-13.207c3.4258-3.4258 7.9258-5.1367 12.422-5.1367 4.5 0 9.0039 1.7109 12.43 5.1367 6.7617 6.7617 6.8164 17.699 0.22656 24.566-0.089844 0.085938-0.19531 0.14453-0.28125 0.23047l-98.238 98.234c-0.089844 0.089844-0.15234 0.20312-0.24219 0.29688-6.8672 6.5742-17.789 6.5156-24.547-0.24219zm31.914 31.922c-6.7578-6.7617-6.8164-17.688-0.24219-24.555 0.09375-0.089843 0.20312-0.14844 0.29297-0.24219l98.234-98.238c0.085938-0.085937 0.14453-0.19141 0.22656-0.28125 6.8672-6.5859 17.805-6.5312 24.562 0.23047 6.8477 6.8477 6.8477 17.996 0 24.848l-49.113 49.117-35.891 35.891c-0.007813 0.007812-0.011719 0.011719-0.015626 0.019531l-13.211 13.211c-6.8438 6.8555-18 6.8438-24.844 0zm70.051 18.742c-6.8477 6.8555-18.004 6.8438-24.852 0-6.8438-6.8438-6.8477-17.977-0.015625-24.828l35.906-35.91 35.891-35.891c6.8477-6.8477 17.996-6.8477 24.848 0 6.8477 6.8555 6.8477 17.996 0 24.852zm252.2 180.41c-6.2773 6.2695-17.219 6.2773-23.508 0l-197.43-197.43 23.512-23.512 197.42 197.43c3.1406 3.1406 4.8711 7.3164 4.8711 11.754s-1.7305 8.6172-4.8711 11.754z"/>
  <path d="m249.97 425.03c-2.7852 0-5.0391 2.2539-5.0391 5.0391v83.422c0 2.7852 2.2539 5.0391 5.0391 5.0391s5.0391-2.2539 5.0391-5.0391l-0.003906-83.422c0-2.7852-2.25-5.0391-5.0352-5.0391z"/>
  <path d="m323.09 444.58c-2.7852 0-5.0391 2.2539-5.0391 5.0391v105.59c0 2.7852 2.2539 5.0391 5.0391 5.0391s5.0391-2.2539 5.0391-5.0391v-105.59c0-2.7852-2.2539-5.0391-5.0391-5.0391z"/>
  <path d="m286.53 444.58c-2.7852 0-5.0391 2.2539-5.0391 5.0391v40.062c0 2.7852 2.2539 5.0391 5.0391 5.0391s5.0391-2.2539 5.0391-5.0391v-40.062c0-2.7852-2.2539-5.0391-5.0391-5.0391z"/>
  <path d="m249.97 538.38c-2.7852 0-5.0391 2.2539-5.0391 5.0391v32.742c0 2.7852 2.2539 5.0391 5.0391 5.0391s5.0391-2.2539 5.0391-5.0391v-32.742c-0.003906-2.7852-2.2539-5.0391-5.0391-5.0391z"/>
  <path d="m286.53 513.49c-2.7852 0-5.0391 2.2539-5.0391 5.0391v32.746c0 2.7852 2.2539 5.0391 5.0391 5.0391s5.0391-2.2539 5.0391-5.0391v-32.746c0-2.7852-2.2539-5.0391-5.0391-5.0391z"/>
 </g>
</svg>