<?xml version="1.0" encoding="UTF-8"?>
<!-- The Best Svg Icon site in the world: iconSvg.co, Visit us! https://iconsvg.co -->
<svg fill="#000000" width="800px" height="800px" version="1.1" viewBox="144 144 512 512" xmlns="http://www.w3.org/2000/svg">
 <g>
  <path d="m218.94 456.36-7.8711-1.5742v118.39l23.617 7.0859v-79.664l9.2891 1.8906c0.15625 0 0.31641 0 0.62891 0.15625l77.777 15.586h0.78906c1.5742 0.47266 3.1484 1.418 4.25 2.832 1.1016 1.418 1.7305 3.1484 1.7305 4.8789v82.656l31.488 9.4453 7.8711 2.3633v-133.04l-7.8711-1.5742z"/>
  <path d="m332.77 391.97-1.418-2.0469-8.0312-5.3516-34.793-23.145-8.1836-5.5117-37.785 12.598-62.977 62.977h31.488v7.875h3.6211l4.25 0.94531 141.7 29.285 7.8711 1.7305 0.003907-25.668-7.8711-11.809zm-3.6211 58.566-78.719-12.281v-47.23l78.719 9.918z"/>
  <path d="m330.57 376.38 6.9258-0.47266h0.31641l230.02-17.32 10.391-0.78906-20.781-20.777-254.89 14.957-12.754 0.78516 37.312 24.875c0.94531-0.78516 2.207-1.1016 3.4648-1.2578z"/>
  <path d="m590.66 372.61-8.3438 0.62891-231.44 17.477-9.1328 0.62891 18.891 28.34 15.746 23.613 1.7305 2.6797 21.887 32.746 204.67-29.285 15.742-2.2031z"/>
  <path d="m396.22 487.22-19.836-29.598v160.75l228.29-60.93v-99.977l-7.8711 1.1016zm125.64 2.3633 35.578-4.5664v45.816l-35.582 8.0312zm-66.758 14.641-1.2578 53.215-36.84 8.1875-0.31641-56.836z"/>
  <path d="m250.43 531.93-7.8711-9.4453v56.523c0.31641-0.31641 0.47266-0.62891 0.78906-0.78906l3.1484-2.5195 3.9375-3.1484 20.309-16.215z"/>
  <path d="m306.16 598.69-5.8242-6.9258-19.523-23.461-15.902 12.754h-0.15625l-7.3984 5.9844 48.176 14.484 3.9336 1.1016-0.47266-0.47266z"/>
  <path d="m303.17 530.36 8.0312-6.457-56.363-11.176 8.0273 9.6016 20.152 24.246z"/>
  <path d="m293.1 558.54 20.309 24.402 7.8711 9.4453v-56.363l-7.8711 6.2969z"/>
  <path d="m321.28 407.87-62.977-7.8711v31.488l62.977 9.7578z"/>
  <path d="m446.13 551.14 0.94531-37.941-22.516 2.5195 0.31641 39.988z"/>
  <path d="m529.73 528.94 19.836-4.4062v-30.543l-19.836 2.5156z"/>
 </g>
</svg>