<?xml version="1.0" encoding="UTF-8"?>
<!-- The Best Svg Icon site in the world: iconSvg.co, Visit us! https://iconsvg.co -->
<svg fill="#000000" width="800px" height="800px" version="1.1" viewBox="144 144 512 512" xmlns="http://www.w3.org/2000/svg">
 <path d="m541.54 390.79h-15.738v-17.145c0-5.5586-4.5234-10.078-10.078-10.078h-40.184l-1.5039-3.1602c-5.4062-11.352-13.301-20.883-22.785-27.793-0.14062-5.4336-4.5781-9.8125-10.047-9.8125h-13.27c-1.5039 0-2.918 0.35156-4.1992 0.94531v-7.8086c1.6094-1.0195 3.1758-2.1211 4.6914-3.3203h23.195c8.1914 0 15.016-6.2148 15.539-14.145l1.6719-25.266c0.21484-0.48438 0.46875-0.94141 0.65625-1.4492 1.8359-4.9531 1.8984-10.207 0.42188-14.836l1.9062-28.781c-0.003906-33.027-29.223-59.898-65.145-59.898h-13.352c-35.918 0-65.137 26.871-65.125 60.234l1.8867 28.465c-1.4766 4.6211-1.4062 9.8672 0.42578 14.816 0.1875 0.50391 0.4375 0.95703 0.65234 1.4414l1.6758 25.273c0.52734 7.9336 7.3516 14.145 15.543 14.145h23.191c1.5156 1.1992 3.082 2.3008 4.6953 3.3203v7.8086c-1.2812-0.59375-2.6953-0.94531-4.1992-0.94531h-13.27c-5.4688 0-9.9062 4.3828-10.051 9.8164-9.4805 6.9102-17.375 16.438-22.785 27.789l-1.5039 3.1602h-63.23c-5.5586 0-10.078 4.5195-10.078 10.078v17.215c0 5.5547 4.5195 10.078 10.078 10.078h15.738v17.145c0 0.027343 0.007812 0.050781 0.007812 0.078124h-18.516c-5.5586 0-10.078 4.5234-10.078 10.078v17.215c0 5.5547 4.5195 10.078 10.078 10.078h10.133c0 0.027344-0.007813 0.050782-0.007813 0.078125v17.215c0 5.5547 4.5195 10.078 10.078 10.078h8.3906v1.3008c0 5.5547 4.5195 10.078 10.078 10.078h29.406c3.0078 0 5.6797-1.3516 7.5273-3.4453v68.363c-1.793 1.8125-2.9062 4.3047-2.9062 7.0508v24.59c-10.668 3.7305-18.352 13.871-18.352 25.793 0 8.3359 6.7812 15.113 15.113 15.113h63.551c2.7812 0 5.0391-2.2539 5.0391-5.0391v-60.457c0-1.8359-0.53125-3.5391-1.3945-5.0234l2.6406-65.023c0.054688-1.3086 1.0391-2.3359 2.2461-2.3359s2.1914 1.0273 2.2461 2.3438l2.6406 65.012c-0.86328 1.4844-1.3945 3.1875-1.3945 5.0273v60.457c0 2.7852 2.2539 5.0391 5.0391 5.0391h63.551c8.3359 0 15.113-6.7812 15.113-15.113 0-11.922-7.6836-22.062-18.352-25.793l-0.003906-24.59c0-2.7539-1.1172-5.25-2.9141-7.0703l-0.007812-68.375c1.8477 2.1055 4.5273 3.4648 7.543 3.4648h29.406c5.5547 0 10.078-4.5234 10.078-10.078v-1.3008h20.215c5.5547 0 10.078-4.5234 10.078-10.078v-17.215c0-5.5547-4.5234-10.078-10.078-10.078h-10.133c0-0.027344 0.007812-0.050782 0.007812-0.078126v-17.215c0-0.027344-0.007812-0.050781-0.007812-0.078125h18.512c5.5547 0 10.078-4.5234 10.078-10.078v-17.215c-0.003907-5.543-4.5234-10.066-10.078-10.066zm-90.262-45.031c5.1992 4.9727 9.6328 10.984 13.047 17.809h-13.047zm-23.344-12.883h13.27l0.007813 30.691h-13.277zm29.168-35.066c-0.17187 2.6562-2.582 4.7344-5.4805 4.7344h-13.109c4.0117-4.9609 7.4453-10.547 10.199-16.516 0.67187 0.085938 1.3438 0.17188 2.0195 0.17188 2.4727 0 4.9297-0.62891 7.2539-1.6953zm2.9375-29.547v0.003906c-1.4336 3.8789-4.3711 6.6836-7.3828 7.5469 2.0977-6.7109 3.332-13.633 3.6016-20.457 0.0625 0.019531 0.12891 0.011719 0.19141 0.035156 1.9219 0.69922 2.9922 2.2812 3.5469 3.4844 1.2227 2.6445 1.2383 6.1523 0.042968 9.3867zm-66.719-89.941h13.352c30.363 0 55.062 22.352 55.07 49.492l-1.2227 18.414c-0.21484-0.089844-0.40625-0.22266-0.625-0.30469-1.3125-0.48047-2.6562-0.72266-4.0078-0.83594-0.14844-1.3203-0.28516-2.6367-0.51172-3.9648-0.76562-4.5039-4.4922-7.8477-9.0586-8.1289h-0.003906c-18.895-1.1602-46.133-9.0625-57.199-19.805-1.8672-1.8125-4.5078-2.7617-7.0586-2.6406-2.6797 0.13281-5.2109 1.3789-6.9453 3.4258-7.2266 8.543-13.504 14.324-24.242 18.602-3.1445 1.2539-5.3906 3.9219-6.0039 7.1328-0.34375 1.8008-0.57422 3.5938-0.77344 5.3828-1.3477 0.11328-2.6914 0.35938-4.0039 0.83594-0.22266 0.082031-0.41406 0.21484-0.62891 0.30859l-1.2031-18.082c0.007813-27.48 24.707-49.832 55.066-49.832zm-53.32 80.555c0.55859-1.207 1.625-2.7891 3.5469-3.4883 0.0625-0.023437 0.13281-0.011719 0.19531-0.035156 0.26953 6.8281 1.5 13.75 3.6016 20.461-3.0117-0.86328-5.9531-3.6719-7.3867-7.5508-1.1953-3.2344-1.1797-6.7422 0.042969-9.3867zm8.3789 43.668c-2.8984 0-5.3125-2.0781-5.4844-4.7344l-0.88281-13.305c2.3242 1.0664 4.7812 1.6953 7.2578 1.6953 0.67578 0 1.3477-0.085937 2.0234-0.17188 2.7578 5.9727 6.1875 11.559 10.199 16.52zm5.3203-49.961c0-3.5703 0.36328-7.2656 0.91016-10.652 12.48-4.9727 19.977-11.777 27.918-21.113 13.055 12.254 42.062 20.883 62.961 22.215 0.54297 3.2539 0.81641 6.4648 0.81641 9.5508 0 27.977-20.227 60.5-46.305 60.5s-46.301-32.52-46.301-60.5zm64.156 84.895v26.09h-35.719v-26.102c11.82 1.7812 23.836 1.7852 35.719 0.011719zm-31.516-9.6133v-7.0859c4.3516 1.4883 8.9023 2.3789 13.656 2.3789 4.7578 0 9.3086-0.89453 13.66-2.3828v7.0859c-9.0742 1.1445-18.242 1.1445-27.316 0.003907zm-27.547 5.0117h13.27l0.007812 30.691h-13.277zm-10.074 12.883v17.809h-13.043c3.4141-6.8242 7.8438-12.836 13.043-17.809zm-87.492 45.102v-17.215h254.5l0.011719 17.145h-228.69c-0.23438 0-0.45312 0.054687-0.67969 0.070312zm25.824 81.164v0.79688h-8.3906v-17.215h16.934c-5.1523 3.6523-8.543 9.6328-8.543 16.418zm10.078 12.172v-12.172c0-5.5547 4.5195-10.078 10.078-10.078h9.2539c5.5586 0 10.078 4.5234 10.078 10.078l0.003907 12.172zm89.301 137.48h-58.512c-2.7773 0-5.0391-2.2578-5.0391-5.0391 0-9.5195 7.7422-17.266 17.262-17.266h29.023c9.5195 0 17.266 7.7422 17.266 17.266zm0-26.215c-4.7109-3.8477-10.723-6.1641-17.266-6.1641h-27.934l0.003906-23.043h45.199zm13.57-111.66c-6.6328 0-12.039 5.2734-12.312 12.004l-2.4492 60.379h-41.105l-0.007812-72.746 0.039062-0.53125h111.68l0.011719 0.17578v73.102h-41.094l-2.4531-60.375c-0.26953-6.7344-5.6758-12.008-12.309-12.008zm58.766 82.457v23.039h-27.938c-6.543 0-12.551 2.3164-17.262 6.1641v-29.203zm18.352 50.383c0 2.7812-2.2578 5.0391-5.0391 5.0391h-58.512v-5.0391c0-9.5195 7.7422-17.266 17.262-17.266h29.023c9.5195 0 17.266 7.7461 17.266 17.266zm-13.734-144.61v0.79688h-126.77v-0.79688c0-6.7852-3.3906-12.766-8.543-16.418h143.86c-5.1484 3.6523-8.543 9.6328-8.543 16.418zm-204.93-26.574v-17.215h254.5l0.003907 17.215zm215 38.746v-12.172c0-5.5547 4.5234-10.078 10.078-10.078h9.2539c5.5547 0 10.078 4.5234 10.078 10.078l0.003906 12.172zm59.699-28.59 0.003906 17.215h-20.223l0.003906-0.79688c0-6.7852-3.3906-12.766-8.543-16.418zm-246.12-37.523v-17.215h254.5l0.011719 17.215zm112.95-122.45c-8.1406 0-14.277-4.1836-14.277-9.7227 0-2.3633 1.918-4.2812 4.2812-4.2812 2.2305 0 4.0625 1.7031 4.2617 3.8828 0.11328 0.10938 0.32422 0.25391 0.57422 0.39844 0.89062 0.52344 2.6133 1.1602 5.1562 1.1602 2.5469 0 4.2656-0.63672 5.1602-1.1602 0.25-0.14453 0.46094-0.28906 0.57422-0.39844 0.20313-2.1797 2.0312-3.8828 4.2617-3.8828 2.3633 0 4.2812 1.918 4.2812 4.2812 0.007813 5.5391-6.1328 9.7227-14.273 9.7227zm-16.723-36.094c0 4.6055-2.9648 8.082-6.9023 8.082-3.9336 0-6.9023-3.4766-6.9023-8.082s2.9688-8.0781 6.9023-8.0781c3.9375 0 6.9023 3.4727 6.9023 8.0781zm33.449 0c0-4.6055 2.9648-8.0781 6.9023-8.0781 3.9336 0 6.9023 3.4727 6.9023 8.0781s-2.9688 8.082-6.9023 8.082c-3.9375 0-6.9023-3.4727-6.9023-8.082z"/>
</svg>