<?xml version="1.0" encoding="UTF-8"?>
<!-- The Best Svg Icon site in the world: iconSvg.co, Visit us! https://iconsvg.co -->
<svg fill="#000000" width="800px" height="800px" version="1.1" viewBox="144 144 512 512" xmlns="http://www.w3.org/2000/svg">
 <path d="m381.53 449-73.23-73.23c-3.9688-3.9688-3.9531-10.32-0.027344-14.25l15.465-15.465c3.9336-3.9336 10.309-3.9141 14.25 0.027343l43.543 43.543v-44.246c0-5.543 4.4922-10.035 10.055-10.035h21.871c5.5547 0 10.055 4.5078 10.055 10.035v44.246l43.543-43.543c3.9414-3.9414 10.316-3.9609 14.25-0.027343l15.465 15.465c3.9258 3.9297 3.9414 10.281-0.027344 14.25l-73.23 73.23v54.281h42.031l2.3594-1.5156 2.7109-0.83984c21.746-6.7656 36.867-26.98 36.867-50.125 0-2.6133-0.1875-5.1914-0.5625-7.7305l-2.0977-14.258 12.555-7.082c19.676-11.102 32.09-31.902 32.09-54.898 0-34.855-28.27-62.977-63.625-62.977l-18.535 0.003906-2.2969-18.398c-3.8984-31.297-30.641-55.078-62.488-55.078-31.824 0-58.746 23.812-63.18 55.398l-2.5352 18.074h-18.25c-34.781 0-62.977 28.195-62.977 62.977 0 22.996 12.414 43.797 32.09 54.898l12.555 7.082-2.0977 14.258c-0.375 2.5391-0.5625 5.1172-0.5625 7.7305 0 23.156 15.137 43.383 36.902 50.137l2.7109 0.83984 2.3477 1.5039h42.008zm41.98 96.262v52.941c0 5.543-4.4922 10.035-10.055 10.035h-21.871c-5.5547 0-10.055-4.5078-10.055-10.035v-52.941h-42.395c-0.11328 0-0.22656 0-0.33984-0.003907-6.7695-0.10937-13.316-1.8477-19.16-5-37.922-12.875-64.055-48.621-64.059-89.445-26.039-19.531-41.984-50.367-41.984-83.98 0-52.156 38.043-95.43 87.895-103.58 13.48-43.648 53.934-74.852 101.03-74.852 47.156 0 87.57 31.258 100.58 74.859 50.23 8.1523 88.348 51.32 88.348 103.57 0 33.613-15.945 64.449-41.984 83.98-0.003907 40.797-26.102 76.527-63.992 89.422-0.16406 0.089844-0.33203 0.17969-0.49609 0.26562-1.7852 2.8594-4.9688 4.7617-8.5742 4.7617z"/>
</svg>