<?xml version="1.0" encoding="UTF-8"?>
<!-- The Best Svg Icon site in the world: iconSvg.co, Visit us! https://iconsvg.co -->
<svg fill="#000000" width="800px" height="800px" version="1.1" viewBox="144 144 512 512" xmlns="http://www.w3.org/2000/svg">
 <g>
  <path d="m271.86 381.43c-2.1758 0-3.9375 1.7617-3.9375 3.9336v217.95c0 2.9922-2.4258 5.418-5.418 5.418-2.9883 0-5.4141-2.4258-5.4141-5.418v-230.35c1.5742 0.14453 3.1797 0.23828 4.7969 0.23828v0.003906c13.719-0.015625 26.867-5.4727 36.57-15.168 9.6992-9.6992 15.152-22.852 15.168-36.566v-54.039c0-13.156-26.023-20.043-51.738-20.043-25.715 0-51.734 6.8828-51.734 20.043v54.039c0.023437 11.504 3.8711 22.672 10.945 31.742 7.0742 9.0742 16.969 15.531 28.121 18.359v93.539c-7.3203-9.0547-22.121-25.543-37.879-32.426h-0.003907c-0.95703-0.42578-2.043-0.44922-3.0195-0.070313-0.97656 0.38281-1.7617 1.1328-2.1797 2.0938-0.41797 0.96094-0.4375 2.0469-0.054687 3.0234 0.38672 0.97266 1.1445 1.7539 2.1055 2.168 15.816 6.9023 31.375 25.586 37.078 32.918l-0.058594 0.027344c-12.562 5.9062-26.918 6.7578-40.094 2.3828-20.57-6.5391-20.512-32.898-20.508-34.293-0.59375-10.352-7.9258-20.031-13.973-26.324h0.003906c-0.30469-0.29688-0.40625-0.74219-0.26562-1.1406 0.10156-0.36328 0.41406-0.62891 0.78906-0.67188 9.8281-1.4688 19.812-1.5586 29.668-0.26562 11.16 1.1562 21.777 5.4023 30.66 12.262 1.3906 1.1016 2.6836 2.2227 3.8711 3.3672l0.003906-0.003906c0.75 0.75 1.7695 1.1641 2.8281 1.1484 1.0586-0.011719 2.0664-0.44922 2.7969-1.2148 0.73438-0.76562 1.125-1.793 1.0898-2.8516-0.039063-1.0586-0.49609-2.0586-1.2812-2.7734-1.3789-1.3242-2.8672-2.6133-4.4219-3.8398h0.003906c-10.027-7.7656-22.023-12.582-34.637-13.91-10.602-1.4023-21.344-1.293-31.914 0.32812-3.2461 0.54688-5.9219 2.8477-6.9414 5.9766-1.043 3.168-0.24609 6.6523 2.0703 9.0508 7.2461 7.5469 11.414 15.113 11.785 21.039 0 1.3555-0.18359 33.309 25.977 41.629 14.977 4.9219 31.266 3.9727 45.574-2.6523l0.625-0.26563c0.10547-0.042968 0.1875-0.12109 0.29297-0.16797v123.66c0 7.3398 5.9492 13.289 13.285 13.289 7.3398 0 13.289-5.9492 13.289-13.289v-217.95c0-2.168-1.7578-3.9297-3.9258-3.9336zm22.949-31.066c-5.6133-29.711-25.859-51.785-38.449-63.004 1.8398 0.070313 3.6836 0.11719 5.5312 0.11719 17.066 0 34.242-3.0547 43.867-8.9414l-0.003906 42.934c-0.003906 10.641-3.8945 20.918-10.945 28.895zm-32.922-95.105c28.383 0 43.867 8.043 43.867 12.172 0 4.1289-15.484 12.176-43.867 12.176-28.383 0-43.863-8.043-43.863-12.176 0-4.1328 15.484-12.172 43.863-12.172zm-43.863 66.211v-42.938c7.5391 4.0469 15.777 6.6094 24.277 7.5547 5.3281 3.8828 40.621 31.004 45.523 70.676-8.7383 6.457-19.57 9.4336-30.387 8.3477-10.816-1.082-20.84-6.1523-28.125-14.219-7.2812-8.0664-11.309-18.555-11.289-29.422z"/>
  <path d="m634.85 287.34c-4.8672-4.8945-11.727-7.2539-18.574-6.3906-6.75 0.80469-12.746 4.6953-16.227 10.535-39.289 65.586-82.535 86.199-104.81 92.621-7.2734 2.1562-15.051 1.8945-22.164-0.74609-3.1016-1.1992-6.3281-2.0469-9.6211-2.5273-2.7656-0.38672-5.5781-0.30078-8.3164 0.25-2.9141-2.9453-6.1328-5.5742-9.5977-7.8438-12.98-8.5039-28.938-11.145-43.961-7.2734 0.50781-9.3672 2.8164-18.547 6.8008-27.039 25.434-56.02 69.473-101.51 124.64-128.76 3.1406-1.4766 6.707-1.7773 10.051-0.84375 3.3398 0.92969 6.2383 3.0312 8.1602 5.9219 1.9219 2.8906 2.7422 6.3711 2.3125 9.8164-0.51562 4.3398-3.0117 8.1953-6.7617 10.438-67.902 40.672-89.383 85.988-96.141 109.4-2.2734 7.6992-2.3477 15.875-0.22266 23.617 0.58984 2.0938 2.7617 3.3125 4.8555 2.7227 2.0938-0.58594 3.3125-2.7617 2.7266-4.8516-1.7344-6.332-1.6641-13.016 0.19922-19.309 6.4375-22.281 27.039-65.527 92.625-104.81h0.003906c5.8359-3.4805 9.7227-9.4766 10.523-16.227 0.66406-5.3164-0.60547-10.695-3.5781-15.152-2.9688-4.4609-7.4414-7.7031-12.605-9.1406-5.1602-1.4336-10.668-0.96875-15.512 1.3164-56.824 28.039-102.2 74.879-128.42 132.56-4.8008 10.223-7.3828 21.348-7.5703 32.641-1.5234 0.53516-3.0547 1.1055-4.5898 1.7461v0.003907c-15.312 6.5195-28.332 17.457-37.391 31.418-7.6055 11.504-14.055 23.727-19.262 36.492-7.8086 18.988-19.5 36.133-34.328 50.336l-0.78906 0.76172 0.003907 0.003907c-2.6914 2.5156-3.5391 6.4375-2.1289 9.8398 1.4609 3.5273 4.9219 5.8086 8.7422 5.7617h0.042969c12.316-0.082031 24.625-0.79297 36.871-2.1289-5.4766 5.293-11.406 10.102-17.711 14.371-3.1055 2.0195-4.6758 5.7227-3.9609 9.3594 0.71094 3.6367 3.5625 6.4727 7.1992 7.1719 8.4531 1.6484 17.043 2.4766 25.652 2.4805 34.73 0.035156 67.961-14.176 91.93-39.309 10.508-10.305 18.715-22.719 24.078-36.426 5.2109-13.676 9.5781-34.074 0.78906-53.562-0.14062-0.24609-0.30859-0.48047-0.5-0.69141-1.2031-6.1875-3.625-12.074-7.125-17.316 0.39453 0.027343 0.76172 0 1.1406 0.042969 2.7031 0.39453 5.3516 1.0898 7.8984 2.082 8.7109 3.2461 18.238 3.582 27.156 0.95312 23.395-6.7617 68.711-28.242 109.38-96.141 2.2461-3.75 6.1016-6.25 10.445-6.7617 3.4453-0.42969 6.9258 0.39062 9.8164 2.3125s4.9922 4.8203 5.9219 8.1602c0.93359 3.3438 0.63281 6.9102-0.84375 10.051-27.238 55.16-72.719 99.199-128.73 124.64-5.5664 2.5977-11.43 4.5039-17.457 5.6836-1.9922 0.38281-3.3672 2.2188-3.1758 4.2383 0.19141 2.0195 1.8867 3.5625 3.9141 3.5625 0.25 0 0.5-0.023438 0.74609-0.070313 6.6562-1.3008 13.133-3.4023 19.285-6.2656 57.684-26.223 104.52-71.59 132.57-128.41 1.9609-4.1602 2.5898-8.8242 1.8008-13.355-0.78906-4.5312-2.957-8.7109-6.207-11.961zm-330.91 209.43c-0.61719 0.054688-1.1992-0.28906-1.4453-0.85938-0.18359-0.44141-0.046875-0.95312 0.33203-1.25l0.78906-0.75781-0.003906-0.003906c15.605-14.957 27.91-33.016 36.125-53.008 5.0156-12.285 11.227-24.051 18.539-35.121 8.1992-12.656 19.984-22.578 33.848-28.496 7.4492-3.2812 15.48-5.043 23.617-5.1797 9.0742-0.023438 17.949 2.6641 25.488 7.7148 12.676 7.5469 20.406 21.242 20.324 35.992-0.40234 16.391-7.8633 31.805-20.469 42.289-38.969 34.426-108.89 38.52-137.14 38.68zm134.44-5.7344c-28.434 29.77-70.156 42.859-110.5 34.66-0.51172-0.074218-0.91406-0.47266-0.99609-0.98047-0.10938-0.48047 0.10547-0.98047 0.53125-1.2266 9.5703-6.6133 18.426-14.207 26.418-22.656 31.262-4.6797 67.605-14.887 92.457-36.84v-0.003907c8.6836-7.5469 15.363-17.129 19.445-27.887-0.70312 7.2812-2.4023 14.434-5.0508 21.254-4.9727 12.676-12.574 24.152-22.305 33.68z"/>
  <path d="m244.85 271.79c6.2188 1.3516 12.559 2.0391 18.922 2.0469 5.582 0.066406 11.145-0.63672 16.531-2.0938 1.0273-0.26562 1.8984-0.9375 2.4258-1.8594 0.52344-0.91797 0.65625-2.0117 0.36328-3.0312s-0.98047-1.8789-1.9141-2.3828c-0.93359-0.5-2.0312-0.60547-3.043-0.28906-10.375 2.2617-21.121 2.2461-31.488-0.046875-2.1172-0.50391-4.2383 0.80469-4.7383 2.918-0.50391 2.1172 0.80469 4.2383 2.918 4.7383z"/>
  <path d="m408.6 399.51c-5.5664 0-10.906 2.2109-14.84 6.1484-3.9375 3.9336-6.1484 9.2734-6.1484 14.84s2.2109 10.906 6.1484 14.844c3.9336 3.9375 9.2734 6.1484 14.84 6.1484s10.906-2.2109 14.844-6.1484 6.1484-9.2773 6.1484-14.844c-0.007813-5.5625-2.2188-10.898-6.1562-14.836-3.9336-3.9336-9.2695-6.1484-14.836-6.1523zm0 34.109c-5.3047 0-10.09-3.1992-12.117-8.0977-2.0312-4.9023-0.91016-10.547 2.8438-14.297 3.75-3.7539 9.3945-4.875 14.293-2.8438 4.9023 2.0273 8.1016 6.8125 8.1016 12.117-0.011719 7.2422-5.8789 13.109-13.121 13.121z"/>
 </g>
</svg>