<?xml version="1.0" encoding="UTF-8"?>
<!-- The Best Svg Icon site in the world: iconSvg.co, Visit us! https://iconsvg.co -->
<svg fill="#000000" width="800px" height="800px" version="1.1" viewBox="144 144 512 512" xmlns="http://www.w3.org/2000/svg">
 <g>
  <path d="m360.22 339.36h8.1484c2.7812 0 5.0391-2.2539 5.0391-5.0391s-2.2539-5.0391-5.0391-5.0391h-8.1484c-2.7812 0-5.0391 2.2539-5.0391 5.0391 0.003906 2.7852 2.2578 5.0391 5.0391 5.0391z"/>
  <path d="m395.92 308.47h8.1523c2.7812 0 5.0391-2.2539 5.0391-5.0391s-2.2539-5.0391-5.0391-5.0391h-8.1523c-2.7812 0-5.0391 2.2539-5.0391 5.0391s2.2578 5.0391 5.0391 5.0391z"/>
  <path d="m394.72 355.3h8.1523c2.7812 0 5.0391-2.2539 5.0391-5.0391 0-2.7852-2.2539-5.0391-5.0391-5.0391h-8.1523c-2.7812 0-5.0391 2.2539-5.0391 5.0391 0 2.7852 2.2539 5.0391 5.0391 5.0391z"/>
  <path d="m429.18 380.14c0 2.7852 2.2539 5.0391 5.0391 5.0391h8.1523c2.7812 0 5.0391-2.2539 5.0391-5.0391 0-2.7852-2.2539-5.0391-5.0391-5.0391h-8.1523c-2.7812 0-5.0391 2.2539-5.0391 5.0391z"/>
  <path d="m357.63 382.19h8.1484c2.7812 0 5.0391-2.2539 5.0391-5.0391 0-2.7852-2.2539-5.0391-5.0391-5.0391l-8.1484 0.003906c-2.7812 0-5.0391 2.2539-5.0391 5.0391 0 2.7812 2.2578 5.0352 5.0391 5.0352z"/>
  <path d="m423.14 337.25h8.1523c2.7812 0 5.0391-2.2539 5.0391-5.0391 0-2.7852-2.2539-5.0391-5.0391-5.0391h-8.1523c-2.7812 0-5.0391 2.2539-5.0391 5.0391 0 2.7852 2.2578 5.0391 5.0391 5.0391z"/>
  <path d="m577 434.99c-0.011718-2.2656-0.046875-4.5156-0.10547-6.7617 1.2344-25.113 6.7422-115.45 24.445-180.55 0.41406-1.5195 0.09375-3.1406-0.86328-4.3867-0.95312-1.2461-2.4297-1.9727-3.9961-1.9727h-0.015625l-24.582 0.066406c0.28906-8.3359 1.1367-26.867 3.2188-36.832 0.30859-1.4844-0.066407-3.0312-1.0234-4.207-0.95312-1.1797-2.3867-1.8633-3.9062-1.8633h-68.445c-1.5039 0-2.9297 0.67578-3.8867 1.8359-0.96094 1.1602-1.3438 2.6875-1.0586 4.168 0.035156 0.19141 3.4961 18.145 4.4766 36.973h-39.781c-1.8203 0-3.5 0.98438-4.3945 2.5742-0.89063 1.5859-0.85547 3.5312 0.089843 5.0859 37.281 61.18 43.938 120.45 45.121 139.09-3.2578-0.43359-6.5664-0.65625-9.9023-0.65625-6.8359 0-13.539 1.0469-20.008 2.8477 0.023437-5.1133-0.43359-10.219-1.4609-15.262l-12.262-60.113c-5.6562-27.719-30.254-47.863-58.527-47.965h-0.14062-0.14062c-28.273 0.10156-52.871 20.246-58.527 47.965l-12.262 60.113c-1.1016 5.4062-1.5977 8.4648-1.7227 12.625-10.879 0.85156-21.145 4.4609-29.996 10.242 1.7461-24.562 9.6758-90.145 45.469-148.88 0.94531-1.5547 0.98047-3.5039 0.089844-5.0859-0.89453-1.5898-2.5742-2.5742-4.3945-2.5742h-39.781c0.98047-18.805 4.4414-36.781 4.4766-36.973 0.28906-1.4805-0.10156-3.0078-1.0586-4.168-0.95313-1.1641-2.375-1.8359-3.8828-1.8359h-68.441c-1.5195 0-2.9531 0.68359-3.9102 1.8594-0.95703 1.1758-1.332 2.7227-1.0234 4.207 2.0781 9.9609 2.9297 28.496 3.2188 36.832l-24.582-0.066406h-0.015625c-1.5664 0-3.0469 0.72656-3.9961 1.9727-0.95703 1.25-1.2773 2.8672-0.86328 4.3867 19.117 70.312 24.199 171.43 24.875 186.87-15.203 11.727-25.051 30.066-25.051 50.703v111.24c0 2.7852 2.2539 5.0391 5.0391 5.0391h392.97c2.7812 0 5.0391-2.2539 5.0391-5.0391l-0.003906-111.24c0-19.941-9.4492-38.336-24.52-50.254zm-6.1328-62.852c-7.0234-37.613-18.824-69.906-28.812-92.699 0.28516-3.168 2.7266-15.668 5.3203-27.922l42.566-0.11328c-9.8164 38.613-15.672 84.523-19.074 120.73zm-63.141-163.59h56.488c-1.5391 11.062-2.1836 25.812-2.418 32.852l-18.512 0.050781c-2.3672 0.003906-4.4141 1.6641-4.9141 3.9766-1.0938 5.0781-2.5078 11.77-3.7344 17.98-6.0273-12.301-10.273-19.312-10.422-19.555-0.91406-1.4922-2.543-2.4023-4.293-2.4023h-8.5859c-0.64844-13.168-2.4375-25.766-3.6094-32.902zm-37.422 42.977h46.727c7.9844 14.004 47.379 87.414 49.793 176.32-0.007813 0.16797-0.015625 0.32813-0.023437 0.49219-3.0469-1.5781-6.2383-2.9258-9.5664-4.0078-10.094-16.84-26.23-28.891-44.699-34.027-0.64844-15.645-5.5547-74.723-42.23-138.78zm-119.11 65.504c4.7148-23.098 25.227-39.871 48.797-39.906 23.566 0.035156 44.082 16.809 48.793 39.906l12.262 60.113c1.1367 5.5625 1.4844 11.219 1.1328 16.852-10.664 4.6875-20.277 11.746-27.871 20.871-16.148-10.316-36.562-12.836-54.801-6.6406-10.988-11.945-25.965-19.156-42.082-20.422 0.125-3.4336 0.55469-5.9844 1.5117-10.66zm-64.406 89.594c-4.5547 4.6172-8.4688 9.9297-11.5 15.875-4.2617-0.87891-8.5352-1.3242-12.75-1.3242-10.344 0-20.09 2.5195-28.746 6.8906 2.3438-88.941 41.254-162.46 49.18-176.54h46.73c-39.547 69.777-42.668 143.99-42.914 155.1zm-51.02-198.07h56.488c-1.1719 7.1367-2.9609 19.734-3.6094 32.898h-8.5859c-1.7617 0-3.3945 0.92188-4.3086 2.4258-0.14453 0.23828-4.1992 7.0352-9.9844 18.934-1.668-7.5586-3.582-15.133-4.2031-17.57-0.56641-2.2227-2.5703-3.7852-4.8672-3.7891l-18.512-0.050781c-0.23437-7.0352-0.87891-21.785-2.418-32.848zm16.988 42.965c2.8711 11.555 5.5078 23.668 5.6914 27.238-10.094 23.227-22.148 56.555-29.109 95.395-3.4375-36.789-9.3672-83.676-19.297-122.75zm338.68 339.93h-382.89v-106.2c0-29.77 24.223-53.992 53.996-53.992 4.6875 0 9.4766 0.66016 14.238 1.9648 2.4062 0.64453 4.9609-0.5625 5.957-2.875 8.5352-19.875 28.016-32.723 49.629-32.723 16.215 0 31.426 7.1914 41.734 19.738 1.3906 1.7031 3.7383 2.2969 5.7734 1.4766 6.457-2.5977 13.223-3.918 20.121-3.918 11.715 0 22.898 3.7422 32.34 10.832 1.0781 0.8125 2.4414 1.1445 3.7695 0.95312 1.332-0.20312 2.5352-0.92969 3.3242-2.0234 12.328-16.945 32.129-27.066 52.961-27.066 23.598 0 45.473 12.812 57.086 33.43 0.64844 1.1445 1.7188 1.9961 2.9883 2.3672 22.949 6.6445 38.977 27.961 38.977 51.836z"/>
 </g>
</svg>