<?xml version="1.0" encoding="UTF-8"?>
<!-- The Best Svg Icon site in the world: iconSvg.co, Visit us! https://iconsvg.co -->
<svg width="800px" height="800px" version="1.1" viewBox="144 144 512 512" xmlns="http://www.w3.org/2000/svg">
 <defs>
  <clipPath id="a">
   <path d="m154 148.09h492v503.81h-492z"/>
  </clipPath>
 </defs>
 <g clip-path="url(#a)">
  <path d="m642.54 281.92c-12.438-13.305-41.484-19.996-86.594-19.996h-8.8164c10-33.242 5.6328-69.152-12.043-99.027-6.2188-10-12.359-14.801-18.578-14.801-4.9844-0.023438-9.4258 3.1484-11.02 7.8711-2.7539 7.3984-16.926 32.906-27.395 51.012h-156.18c-10.469-18.184-24.242-43.691-27.395-51.012-1.5938-4.7227-6.0352-7.8945-11.02-7.8711-6.2188 0-12.359 4.8008-18.578 14.801-17.742 29.938-22.113 65.949-12.043 99.266h-9.0547c-44.871 0-73.918 6.6914-86.594 19.996h0.003906c-3.1562 3.3633-3.5469 8.4688-0.94531 12.277 4.0156 5.9844 37.707 54.395 75.965 62.977-15.742 38.102-55.812 150.98-8.5 226.24 28.652 45.344 82.969 68.25 161.69 68.25h14.25 14.879c78.719 0 133.12-22.906 161.54-68.094 47.23-75.18 7.3203-188.06-8.582-226.16 38.258-8.8945 71.949-57.309 75.965-62.977v0.003906c2.8672-3.9062 2.4648-9.3164-0.94531-12.754zm-83.207 291.27c-24.562 39.359-73.211 58.805-144.77 58.805h-29.129c-71.477 0.15625-120.12-19.445-144.69-58.805-12.59-21.484-19.195-45.949-19.129-70.848 34.875-10.469 200.66-54.473 356.84 0 0.03125 24.895-6.5703 49.352-19.129 70.848zm18.656-92.652c-153.43-50.617-309.53-12.988-355.97 0.47266v-0.003906c4.2656-44.102 15.73-87.207 33.93-127.61 1.5586-3.1641 1.2891-6.9297-0.71094-9.8398-1.9922-2.9102-5.3711-4.5547-8.8945-4.3281-24.48 1.6523-53.371-29.441-67.855-48.176 12.121-5.9062 35.422-9.1328 65.336-9.1328 13.305 0 22.984 0.62891 23.145 0.62891 3.5078 0.26562 6.8945-1.3633 8.875-4.2695 1.9805-2.9062 2.2578-6.6523 0.73047-9.8203-13.969-30.359-12.234-65.625 4.6445-94.465 8.5781 17.242 24.324 44.004 26.449 47.703 1.7305 3.0664 4.9805 4.9609 8.5 4.9609h9.2891c10 34.086 59.906 166.26 232.38 166.26h1.6523c9.7305 28.391 15.945 57.867 18.5 87.773zm-24.324-141.7v-0.003907c-3.5195-0.22656-6.9023 1.418-8.8945 4.332-1.9844 2.9141-2.2539 6.668-0.71094 9.8398 0 0 3.543 7.8711 8.2656 19.68-148.78-2.6758-194.99-110.21-206.32-146.42l137.84-0.003906c3.5195 0.003906 6.7695-1.8945 8.5-4.957 2.125-3.3086 17.871-30.07 26.453-47.312 16.875 28.84 18.609 64.105 4.6445 94.465-1.5312 3.168-1.2539 6.9141 0.72656 9.8203 1.9844 2.9062 5.3672 4.5352 8.875 4.2695 0 0 9.8398-0.62891 23.145-0.62891 29.914 0 53.293 3.3047 65.336 9.2109-14.402 18.656-43.453 49.75-67.855 48.098z"/>
 </g>
 <path d="m296.64 546.1c-2.3477-4.9102-8.2344-6.9922-13.148-4.6445-4.9141 2.3477-6.9922 8.2344-4.6445 13.148l17.633 36.762c1.7227 3.3984 5.2422 5.5117 9.0547 5.4336 1.4766 0.007813 2.9375-0.34375 4.25-1.0234 2.3633-1.125 4.1797-3.1445 5.0508-5.6094 0.87109-2.4688 0.72656-5.1797-0.40625-7.5391z"/>
 <path d="m490.37 596.01c1.2852 0.57422 2.6836 0.84375 4.0898 0.78906 3.8164-0.007812 7.2812-2.2148 8.8984-5.668l17.633-36.762v-0.003906c2.3477-4.9102 0.26953-10.797-4.6445-13.145-4.9141-2.3477-10.801-0.26953-13.148 4.6445l-17.633 36.762c-1.1992 2.4023-1.3633 5.1914-0.45703 7.7188s2.8086 4.5703 5.2617 5.6641z"/>
 <path d="m305.54 299.08c-6.1367 0.10547-11.98 2.6328-16.258 7.0312-4.2773 4.4023-6.6406 10.316-6.5703 16.449 0.070313 6.1367 2.5625 11.996 6.9375 16.297 4.375 4.3047 10.277 6.6992 16.414 6.6641 6.1328-0.03125 12.008-2.4961 16.336-6.8438 4.3242-4.3516 6.7539-10.238 6.7539-16.375 0.003906-6.2266-2.4961-12.195-6.9375-16.562-4.4414-4.3633-10.449-6.7656-16.676-6.6602z"/>
 <path d="m494.46 299.08c-6.1602-0.019531-12.082 2.4102-16.449 6.7578-4.3711 4.3438-6.8359 10.25-6.8516 16.414-0.011718 6.1641 2.4258 12.078 6.7734 16.445 4.3516 4.3633 10.262 6.8203 16.426 6.8281 6.1602 0.007812 12.074-2.4375 16.438-6.793 4.3594-4.3555 6.8086-10.266 6.8086-16.43 0.023437-6.1523-2.4062-12.059-6.75-16.414-4.3438-4.3594-10.242-6.8086-16.395-6.8086z"/>
</svg>