<?xml version="1.0" encoding="UTF-8"?>
<!-- The Best Svg Icon site in the world: iconSvg.co, Visit us! https://iconsvg.co -->
<svg fill="#000000" width="800px" height="800px" version="1.1" viewBox="144 144 512 512" xmlns="http://www.w3.org/2000/svg">
 <g>
  <path d="m438.39 368.36c0-13.77-5.4688-26.977-15.207-36.715-9.7344-9.7383-22.941-15.207-36.711-15.207-13.77 0-26.977 5.4688-36.715 15.207-9.7383 9.7383-15.207 22.941-15.207 36.715 0 13.77 5.4727 26.977 15.207 36.711 9.7383 9.7383 22.945 15.207 36.715 15.207 13.766-0.011719 26.965-5.4844 36.699-15.219s15.207-22.934 15.219-36.699zm-95.965 0c0-11.68 4.6406-22.887 12.898-31.148 8.2617-8.2578 19.465-12.902 31.148-12.902 11.68 0 22.887 4.6406 31.148 12.898 8.2578 8.2617 12.902 19.465 12.902 31.148s-4.6406 22.887-12.902 31.148c-8.2617 8.2617-19.465 12.902-31.148 12.902-11.676-0.011718-22.875-4.6523-31.133-12.91-8.2578-8.2578-12.902-19.457-12.914-31.137z"/>
  <path d="m409.77 368.36c0-6.1758-2.457-12.102-6.8242-16.473-4.3711-4.3672-10.297-6.8242-16.477-6.8242-6.1758 0-12.102 2.457-16.473 6.8242-4.3672 4.3711-6.8242 10.297-6.8242 16.473 0 6.1797 2.457 12.105 6.8242 16.477 4.3711 4.3672 10.297 6.8203 16.473 6.8203 6.1797-0.007812 12.098-2.4648 16.465-6.832s6.8242-10.285 6.8359-16.465zm-38.723 0c0-4.0898 1.625-8.0117 4.5156-10.906 2.8945-2.8906 6.8164-4.5156 10.906-4.5156 4.0938 0 8.0156 1.625 10.91 4.5156 2.8906 2.8945 4.5156 6.8164 4.5156 10.906 0 4.0938-1.625 8.0156-4.5156 10.91-2.8945 2.8906-6.8164 4.5156-10.91 4.5156-4.0898-0.003906-8.0078-1.6289-10.902-4.5234-2.8906-2.8906-4.5156-6.8125-4.5195-10.902z"/>
  <path d="m434.96 452.16c-13.766 0-26.973 5.4688-36.707 15.207-9.7344 9.7344-15.203 22.941-15.203 36.711s5.4688 26.973 15.207 36.707c9.7344 9.7383 22.941 15.207 36.711 15.207 13.766-0.003907 26.973-5.4727 36.707-15.207 9.7383-9.7383 15.207-22.941 15.207-36.711-0.011719-13.766-5.4844-26.965-15.219-36.699s-22.934-15.207-36.703-15.215zm0 95.961v-0.003906c-11.68 0-22.883-4.6406-31.141-12.902-8.2578-8.2578-12.898-19.461-12.898-31.145 0-11.68 4.6406-22.883 12.902-31.141 8.2578-8.2578 19.461-12.898 31.145-12.898 11.68 0 22.883 4.6406 31.141 12.898 8.2617 8.2617 12.902 19.465 12.902 31.145-0.011719 11.68-4.6562 22.875-12.914 31.133-8.2578 8.2578-19.457 12.902-31.137 12.91z"/>
  <path d="m434.96 480.78c-6.1797-0.003906-12.105 2.4492-16.477 6.8164-4.3711 4.3672-6.8281 10.293-6.832 16.473 0 6.1797 2.4531 12.105 6.8203 16.477 4.3672 4.3711 10.293 6.8281 16.473 6.8281 6.1797 0 12.105-2.4531 16.477-6.8203 4.3711-4.3711 6.8242-10.297 6.8242-16.477-0.003906-6.1758-2.4609-12.094-6.8242-16.461-4.3672-4.3672-10.285-6.8242-16.461-6.8359zm0 38.719c-4.0898 0.003906-8.0156-1.6211-10.91-4.5117-2.8945-2.8906-4.5234-6.8164-4.5273-10.906 0-4.0938 1.625-8.0195 4.5156-10.91 2.8945-2.8945 6.8164-4.5234 10.91-4.5234 4.0898 0 8.0156 1.625 10.91 4.5195 2.8906 2.8945 4.5156 6.8203 4.5156 10.91-0.003906 4.0859-1.6289 8.0039-4.5195 10.895s-6.8047 4.5195-10.895 4.5273z"/>
  <path d="m284.54 452.16c-13.77 0-26.973 5.4688-36.711 15.203-9.7344 9.7383-15.203 22.941-15.203 36.711s5.4688 26.973 15.203 36.711c9.7383 9.7344 22.941 15.207 36.711 15.207s26.973-5.4727 36.711-15.207c9.7344-9.7383 15.207-22.941 15.207-36.711-0.011719-13.766-5.4844-26.965-15.219-36.699-9.7344-9.7344-22.934-15.207-36.699-15.215zm0 95.961v-0.003906c-11.68 0-22.883-4.6406-31.145-12.898-8.2578-8.2617-12.898-19.465-12.898-31.145 0-11.68 4.6406-22.883 12.898-31.145 8.2617-8.2578 19.465-12.898 31.145-12.898 11.684 0 22.883 4.6406 31.145 12.898 8.2578 8.2617 12.898 19.465 12.898 31.145-0.007813 11.68-4.6523 22.875-12.91 31.133-8.2578 8.2578-19.453 12.902-31.133 12.91z"/>
  <path d="m284.54 480.78c-6.1797 0-12.105 2.4531-16.477 6.8203-4.3672 4.3711-6.8242 10.297-6.8242 16.473 0 6.1797 2.4531 12.105 6.8242 16.477 4.3672 4.3711 10.293 6.8242 16.473 6.8242 6.1797 0 12.105-2.4531 16.473-6.8242 4.3711-4.3672 6.8242-10.293 6.8242-16.473-0.007813-6.1758-2.4648-12.094-6.832-16.461-4.3633-4.3672-10.285-6.8281-16.461-6.8359zm0 38.719c-4.0898 0-8.0156-1.625-10.91-4.5156-2.8906-2.8945-4.5195-6.8164-4.5195-10.91 0-4.0898 1.625-8.0156 4.5195-10.906 2.8906-2.8945 6.8164-4.5195 10.906-4.5195 4.0938 0 8.0156 1.6289 10.91 4.5195 2.8906 2.8945 4.5156 6.8203 4.5156 10.91-0.003906 4.0898-1.6328 8.0078-4.5234 10.898s-6.8086 4.5195-10.898 4.5234z"/>
  <path d="m644.3 568h-41.105c11.801-6 21.715-15.145 28.645-26.426s10.609-24.258 10.625-37.496c0-40.254-32.695-71.789-74.43-71.789h-13.336c19.32-9.8047 33.172-27.812 37.695-49 4.5195-21.188-0.77344-43.281-14.41-60.117-13.633-16.836-34.145-26.609-55.809-26.594h-135.71c-25.52 0.19141-49.023 13.914-61.73 36.051-12.707 22.133-12.707 49.352 0 71.484 12.707 22.137 36.211 35.859 61.73 36.047h15.969c-15.824 8.0234-28.113 21.633-34.484 38.191-6.3711 16.562-6.3711 34.898 0 51.457 6.3711 16.562 18.66 30.168 34.484 38.191h-85.375c15.836-8.0156 28.137-21.621 34.512-38.184 6.375-16.566 6.375-34.906 0-51.469-6.375-16.566-18.676-30.172-34.512-38.188h21.426c2.1719 0 3.9336-1.7617 3.9336-3.9336 0-2.1758-1.7617-3.9375-3.9336-3.9375h-53.949c-21.664-0.015625-42.176 9.7539-55.809 26.59-13.633 16.832-18.934 38.93-14.414 60.113 4.5195 21.188 18.367 39.199 37.684 49.008h-90.746c-2.1719 0-3.9336 1.7617-3.9336 3.9336v67.832c0 1.043 0.41406 2.043 1.1523 2.7812 0.73828 0.73828 1.7383 1.1523 2.7812 1.1523h483.05c1.043 0 2.043-0.41406 2.7812-1.1523 0.73828-0.73828 1.1523-1.7383 1.1523-2.7812v-67.832c0-1.043-0.41406-2.043-1.1523-2.7812-0.73828-0.73828-1.7383-1.1523-2.7812-1.1523zm-321.75-199.63c-0.003906-16.949 6.7305-33.211 18.715-45.199 11.984-11.988 28.242-18.723 45.195-18.723 16.953-0.003906 33.211 6.7305 45.199 18.715 11.988 11.988 18.723 28.246 18.723 45.199 0 16.949-6.7344 33.211-18.719 45.195-11.988 11.988-28.246 18.723-45.199 18.723-16.941-0.019532-33.188-6.7578-45.168-18.738-11.984-11.98-18.727-28.227-18.746-45.172zm96.434 63.922h-0.003907c15.832-8.0195 28.121-21.629 34.492-38.188 6.3711-16.562 6.3711-34.898 0-51.461-6.3711-16.562-18.66-30.168-34.492-38.188h103.19c17.039-0.13672 33.426 6.5391 45.523 18.543 12.098 12 18.898 28.336 18.898 45.375 0 17.039-6.8008 33.375-18.898 45.375-12.098 12.004-28.484 18.676-45.523 18.543h-11.066c-2.1758 0-3.9375 1.7617-3.9375 3.9375 0 2.1719 1.7617 3.9336 3.9375 3.9336h56.926c37.32 0 66.559 28.074 66.559 63.918-0.019531 16.945-6.7617 33.195-18.746 45.176-11.98 11.984-28.23 18.727-45.176 18.746h-103.19c15.828-8.0234 28.117-21.629 34.488-38.191 6.3711-16.559 6.3711-34.895 0-51.457-6.3711-16.559-18.66-30.168-34.488-38.191h15.863c2.1719 0 3.9375-1.7617 3.9375-3.9336 0-2.1758-1.7656-3.9375-3.9375-3.9375zm-47.941 71.789c0-16.953 6.7344-33.207 18.723-45.195 11.984-11.984 28.242-18.719 45.195-18.719 16.953 0.003906 33.207 6.7383 45.195 18.723 11.984 11.988 18.719 28.246 18.719 45.195 0 16.953-6.7344 33.211-18.723 45.195-11.984 11.988-28.242 18.723-45.195 18.723-16.945-0.019532-33.191-6.7617-45.176-18.746-11.98-11.98-18.723-28.23-18.738-45.176zm-150.42 0h-0.003906c0-16.953 6.7344-33.211 18.723-45.199 11.988-11.988 28.246-18.723 45.199-18.723s33.215 6.7383 45.199 18.727c11.988 11.984 18.723 28.246 18.723 45.199s-6.7383 33.211-18.727 45.199c-11.988 11.984-28.246 18.719-45.199 18.719-16.945-0.019532-33.191-6.7617-45.176-18.746-11.98-11.98-18.723-28.23-18.742-45.176zm419.74 131.75h-475.18v-59.957h475.17z"/>
  <path d="m228.45 594.61c-1.8594-1.125-4.2773-0.53125-5.4062 1.3242l-8.4023 13.855-9.7852-12.746c-1.3242-1.7227-3.7969-2.0469-5.5195-0.72266-1.7266 1.3242-2.0469 3.7969-0.72266 5.5195l13.285 17.32c0.74219 0.96875 1.8984 1.5352 3.1211 1.5352h0.21484c1.2969-0.070312 2.4727-0.77734 3.1484-1.8867l11.387-18.758c0.55078-0.89453 0.72266-1.9727 0.47656-2.9961-0.25-1.0234-0.89844-1.9023-1.7969-2.4453z"/>
  <path d="m343.64 594.61c-1.8594-1.125-4.2773-0.53125-5.4062 1.3242l-8.4062 13.855-9.7812-12.746c-1.3242-1.7227-3.7969-2.0469-5.5195-0.72266-1.7266 1.3242-2.0469 3.7969-0.72266 5.5195l13.285 17.32h-0.003906c0.74609 0.96875 1.9023 1.5352 3.125 1.5352h0.21484c1.2969-0.070312 2.4727-0.77734 3.1484-1.8867l11.391-18.758c0.55078-0.89453 0.72266-1.9766 0.47266-2.9961-0.25-1.0234-0.89844-1.9023-1.7969-2.4453z"/>
  <path d="m475.73 594.61c-1.8555-1.125-4.2773-0.53125-5.4023 1.3242l-8.4062 13.855-9.7852-12.746h0.003906c-1.3281-1.7227-3.7969-2.0469-5.5234-0.72266-1.7227 1.3242-2.0469 3.7969-0.72266 5.5195l13.285 17.32c0.74609 0.96875 1.8984 1.5352 3.1211 1.5352h0.21875c1.2969-0.070312 2.4727-0.77734 3.1484-1.8867l11.387-18.758c0.55078-0.89453 0.72266-1.9727 0.47266-2.9961-0.24609-1.0234-0.89453-1.9023-1.7969-2.4453z"/>
  <path d="m559.85 596.31c-1.7188 1.3203-2.043 3.7852-0.72266 5.5078l13.285 17.32h-0.003906c0.74609 0.96875 1.8984 1.5352 3.1211 1.5352h0.21875c1.2969-0.066406 2.4766-0.77344 3.1484-1.8867l11.391-18.758c1.043-1.8516 0.42969-4.1992-1.3867-5.3008-1.8164-1.1016-4.1797-0.5625-5.3398 1.2188l-8.4102 13.84-9.7812-12.746c-0.63672-0.82812-1.5742-1.3711-2.6094-1.5078-1.0352-0.13672-2.082 0.14062-2.9102 0.77734z"/>
  <path d="m484.76 340.1c1.668-0.007812 3.1484-1.0664 3.6992-2.6445 0.54687-1.5742 0.042968-3.3242-1.2617-4.3672l-13.035-10.234c-0.82031-0.64453-1.8633-0.9375-2.9023-0.8125-1.0352 0.125-1.9805 0.65625-2.625 1.4766-1.3438 1.7109-1.0469 4.1836 0.66406 5.5273l13.031 10.234c0.69531 0.53516 1.5508 0.82422 2.4297 0.82031z"/>
  <path d="m554.06 344.38c1.7109 1.3438 4.1836 1.0469 5.5273-0.66406 1.3438-1.7109 1.0469-4.1836-0.66406-5.5273l-13.027-10.234c-1.707-1.3438-4.1836-1.0469-5.5273 0.66016s-1.0508 4.1836 0.66016 5.5273z"/>
  <path d="m525.89 371.46c1.7109 1.3008 4.1484 0.98828 5.4766-0.69922 1.3281-1.6914 1.0547-4.1328-0.60938-5.4883l-13.031-10.234v0.003906c-0.82031-0.66797-1.8711-0.97656-2.9219-0.85937-1.0469 0.11719-2.0078 0.64844-2.6602 1.4766-0.65234 0.83203-0.94141 1.8867-0.80859 2.9336 0.13281 1.0469 0.68359 1.9961 1.5234 2.6367z"/>
  <path d="m491.2 390.37c-1.3438-1.6992-3.8047-1.9922-5.5117-0.66016l-13.031 10.234c-1.707 1.3438-2.0039 3.8164-0.66016 5.5273 1.3477 1.707 3.8203 2.0039 5.5312 0.65625l13.027-10.234v0.003906c1.7031-1.3477 1.9922-3.8242 0.64453-5.5273z"/>
  <path d="m539.77 406.97c0.88281 0.003906 1.7383-0.29297 2.4297-0.84375l13.031-10.234v0.003907c1.7109-1.3477 2.0039-3.8203 0.66016-5.5312-1.3438-1.707-3.8203-2-5.5273-0.65625l-13.027 10.234h-0.003907c-1.3164 1.0352-1.832 2.7969-1.2852 4.3789 0.55078 1.5859 2.0469 2.6484 3.7227 2.6484z"/>
  <path d="m531.46 478.85c1.707 1.332 4.168 1.0391 5.5117-0.66016 1.332-1.707 1.0352-4.168-0.66406-5.5117l-13.027-10.234c-0.82031-0.64453-1.8633-0.9375-2.9023-0.8125-1.0352 0.125-1.9805 0.65625-2.625 1.4766-1.3477 1.707-1.0508 4.1836 0.66016 5.5273z"/>
  <path d="m603.17 483.97c1.707 1.3438 4.1836 1.0508 5.5273-0.66016 1.3438-1.707 1.0508-4.1836-0.66016-5.5273l-13.031-10.234c-0.81641-0.66406-1.8711-0.97266-2.918-0.85938-1.0508 0.11719-2.0078 0.65234-2.6602 1.4805-0.65234 0.83203-0.94531 1.8867-0.80859 2.9336 0.13281 1.0469 0.68359 1.9961 1.5234 2.6328z"/>
  <path d="m575 511.06c1.7109 1.3438 4.1875 1.0469 5.5312-0.66406 1.3438-1.707 1.0469-4.1836-0.66016-5.5273l-13.031-10.234c-1.7109-1.3008-4.1484-0.98828-5.4766 0.69922-1.3281 1.6914-1.0547 4.1328 0.60938 5.4883z"/>
  <path d="m534.78 529.3-13.027 10.234h-0.003906c-1.3164 1.0352-1.8359 2.7969-1.2852 4.3828 0.55078 1.5859 2.043 2.6484 3.7227 2.6445 0.88281 0.003906 1.7383-0.29297 2.4297-0.83984l13.031-10.234c1.7109-1.3438 2.0039-3.8203 0.66016-5.5312s-3.8203-2.0039-5.5273-0.66016z"/>
  <path d="m588.88 546.57c0.88281 0.003906 1.7383-0.29297 2.4297-0.83984l13.027-10.234c1.7109-1.3438 2.0078-3.8203 0.66406-5.5273-1.3438-1.7109-3.8203-2.0078-5.5273-0.66406l-13.031 10.234c-1.3203 1.0352-1.8359 2.7969-1.2852 4.3828 0.55078 1.5859 2.043 2.6484 3.7227 2.6445z"/>
 </g>
</svg>