<?xml version="1.0" encoding="UTF-8"?>
<!-- The Best Svg Icon site in the world: iconSvg.co, Visit us! https://iconsvg.co -->
<svg fill="#000000" width="800px" height="800px" version="1.1" viewBox="144 144 512 512" xmlns="http://www.w3.org/2000/svg">
 <path d="m517.76 421.29 28.859-38.477v77.152zm21.16-53.867h-61.559l30.777 41.039zm-69.254 15.395v77.512l28.859-39.035zm-207.32 241.77h-92.211v-16.977h84.602l27.035-27.035h-111.64v-17.395h128.42v0.60938l27.645-27.645h-156.07v-17.391h173.35v0.10938l27.98-27.98h-201.33v-15.723h49.805v-22.023c-10.656-1.7227-18.816-10.891-18.816-22.035v-89.551c0-15.348 12.438-27.785 27.785-27.785s27.785 12.438 27.785 27.785v89.547c0 12.016-9.4883 21.746-21.367 22.293v21.766h69.082v-22.023c-10.656-1.7227-18.816-10.891-18.816-22.035v-89.547c0-15.348 12.438-27.785 27.785-27.785s27.785 12.438 27.785 27.785v89.547c0 12.016-9.4883 21.746-21.367 22.293v21.766h72.906v-191.68l120.7-79.27 110.16 79.066v207.61h-33.625l-133.7 133.71h-24.59l133.7-133.7h-39.711l-133.7 133.7h-24.59l133.7-133.7h-40.023l-133.7 133.7h-24.59l133.7-133.7h-40.375zm230.4-310.82h30.777v-38.477h-30.777zm-38.477 161.39h23.363l30.504-41.039 30.777 41.039h23.086v-123.12h-107.73zm169.29 24.062-125.37 125.37h24.59l100.77-100.77v-24.598zm-60.652 125.37h24.59l36.059-36.059v-24.594z"/>
</svg>