<?xml version="1.0" encoding="UTF-8"?>
<!-- The Best Svg Icon site in the world: iconSvg.co, Visit us! https://iconsvg.co -->
<svg fill="#000000" width="800px" height="800px" version="1.1" viewBox="144 144 512 512" xmlns="http://www.w3.org/2000/svg">
 <g>
  <path d="m564.98 546.07 6.9258-3.7773-42.664-57.781-10.234 5.5117-13.855 7.3984-3.7773 2.0469 25.031 67.699 6.9297-3.9336z"/>
  <path d="m595.37 573.94-14.012-18.895-6.9258 3.7773-35.582 19.363-6.9258 3.9375 8.0312 21.727c8.1875 15.273 27.238 21.098 42.668 12.754 15.266-8.1836 20.934-27.391 12.746-42.664z"/>
  <path d="m427.54 298.89c0.31641-0.47266 0.47266-0.94531 0.78906-1.2578 4.4102-7.7148 5.668-14.641 3.3047-20.309-9.1328-21.41-67.855-16.688-131.3 10.234-63.449 27.078-107.38 66.441-98.242 87.695 2.0469 5.0391 7.2422 8.6602 14.328 10.863 13.539-15.742 46.602-36.684 87.535-54.16 44.242-18.895 85.02-28.34 104.38-25.191 2.5195 0.47266 5.0391 0.47266 7.5586-0.15625 4.7227-0.94922 8.9727-3.4688 11.648-7.7188z"/>
  <path d="m516.18 482.46c-7.3984-17.004-17.633-33.219-29.914-47.391l-7.3984-8.3438c-17.477-19.836-29.758-43.77-35.426-69.273l-11.652-51.168c-3.6211 4.0938-8.5 6.9258-14.168 8.0312l10.391 46.602c6.2969 28.023 19.836 54.473 39.047 76.203l7.3984 8.3438c11.652 13.383 21.254 28.652 27.551 44.715z"/>
 </g>
</svg>