<?xml version="1.0" encoding="UTF-8"?>
<!-- The Best Svg Icon site in the world: iconSvg.co, Visit us! https://iconsvg.co -->
<svg fill="#000000" width="800px" height="800px" version="1.1" viewBox="144 144 512 512" xmlns="http://www.w3.org/2000/svg">
 <g>
  <path d="m570.41 484.46h-14.816v-25.93c0-48.898-40.008-88.906-88.906-88.906h-59.273c-4.4453 0-7.4102 2.9648-7.4102 7.4102 0 4.4453 2.9648 7.4102 7.4102 7.4102h59.273c40.75 0 74.09 33.34 74.09 74.09v25.93h-22.227v-25.93c0-28.895-22.969-51.863-51.863-51.863l-133.37-0.003906c-40.75 0-74.09-33.34-74.09-74.09s33.34-74.09 74.09-74.09h18.523v22.227h-18.523c-28.895 0-51.863 22.969-51.863 51.863s22.969 51.863 51.863 51.863h37.043c4.4453 0 7.4102-2.9648 7.4102-7.4102s-2.9648-7.4102-7.4102-7.4102h-37.043c-20.746 0-37.043-16.301-37.043-37.043 0-20.746 16.301-37.043 37.043-37.043h18.523v18.523c0 4.4453 2.9648 7.4102 7.4102 7.4102h37.043c4.4453 0 7.4102-2.9648 7.4102-7.4102v-8.8906l68.164-14.816c3.7031-0.74219 5.9258-3.7031 5.9258-7.4102v-26.672c0-3.7031-2.2227-6.668-5.9258-7.4102l-18.523-3.7031c-3.7031-0.74219-8.1484 1.4805-8.8906 5.9258-0.74219 3.7031 1.4805 8.1484 5.9258 8.8906l12.594 2.9648v14.816l-59.273 12.594v-40.008l17.039 3.7031h1.4805c3.7031 0 6.668-2.2227 7.4102-5.9258 0.74219-3.7031-1.4805-8.1484-5.9258-8.8906l-20.004-4.4453v-8.8906c0-4.4453-2.9648-7.4102-7.4102-7.4102h-37.043c-4.4453 0-7.4102 2.9648-7.4102 7.4102v18.523l-18.52-0.003906c-48.898 0-88.906 40.008-88.906 88.906 0 48.898 40.008 88.906 88.906 88.906h133.36c20.746 0 37.043 16.301 37.043 37.043v25.93h-33.34c-4.4453 0-7.4102 2.9648-7.4102 7.4102 0 4.4453 2.9648 7.4102 7.4102 7.4102l40.75 0.003906h59.27c5.9258 0 11.113 5.1875 11.113 11.113 0 5.9258-5.1875 11.113-11.113 11.113h-377.86c-5.9258 0-11.113-5.1875-11.113-11.113 0-5.9258 5.1875-11.113 11.113-11.113h244.5c4.4453 0 7.4102-2.9648 7.4102-7.4102s-2.9648-7.4102-7.4102-7.4102l-244.5 0.003906c-14.078 0-25.93 11.855-25.93 25.93 0 7.4102 2.9648 14.078 8.1484 18.523-5.1875 4.4453-8.1484 11.113-8.1484 18.523 0 7.4102 2.9648 14.078 8.1484 18.523-5.1875 4.4453-8.1484 11.113-8.1484 18.523 0 14.078 11.855 25.93 25.93 25.93h377.86c14.078 0 25.93-11.855 25.93-25.93 0-7.4102-2.9648-14.078-8.1484-18.523 5.1875-4.4453 8.1484-11.113 8.1484-18.523 0-7.4102-2.9648-14.078-8.1484-18.523 5.1875-4.4453 8.1484-11.113 8.1484-18.523 0.003907-14.816-11.852-26.672-25.926-26.672zm-203.75-251.91h22.227v73.348h-22.227zm-55.566 340.81h259.31c5.9258 0 11.113 5.1875 11.113 11.113s-5.1875 11.113-11.113 11.113h-377.86c-5.9258 0-11.113-5.1875-11.113-11.113s5.1875-11.113 11.113-11.113h88.906c4.4453 0 7.4102-2.9648 7.4102-7.4102 0-4.4453-2.9648-7.4102-7.4102-7.4102l-88.906 0.003906c-5.9258 0-11.113-5.1875-11.113-11.113s5.1875-11.113 11.113-11.113h377.86c5.9258 0 11.113 5.1875 11.113 11.113s-5.1875 11.113-11.113 11.113h-259.31c-4.4453 0-7.4102 2.9648-7.4102 7.4102 0.003906 4.4453 2.9648 7.4062 7.4102 7.4062z"/>
  <path d="m514.84 254.78c1.4805 0 2.9648 0 3.7031-0.74219l6.668-3.7031c3.7031-2.2227 4.4453-6.668 2.2227-10.371-2.2227-3.7031-6.668-4.4453-10.371-2.2227l-5.9258 2.9648c-3.7031 2.2227-4.4453 6.668-2.2227 10.371 0.74219 2.2227 3.7031 3.7031 5.9258 3.7031z"/>
  <path d="m550.4 233.3c1.4805 0 2.9648 0 3.7031-0.74219l11.855-7.4102c3.7031-2.2227 4.4453-6.668 2.2227-10.371-2.2227-3.7031-6.668-4.4453-10.371-2.2227l-11.855 7.4102c-3.7031 2.2227-4.4453 6.668-2.2227 10.371 1.4805 1.4844 4.4453 2.9648 6.668 2.9648z"/>
  <path d="m594.11 191.07-6.668 3.7031c-3.7031 2.2227-4.4453 6.668-2.2227 10.371 1.4805 2.2227 3.7031 3.7031 6.668 3.7031 1.4805 0 2.9648 0 3.7031-0.74219l6.668-3.7031c3.7031-2.2227 4.4453-6.668 2.2227-10.371-2.2227-4.4453-6.668-5.1836-10.371-2.9609z"/>
  <path d="m511.13 297.75 6.668 3.7031c1.4805 0.74219 2.2227 0.74219 3.7031 0.74219 2.2227 0 5.1875-1.4805 6.668-3.7031 2.2227-3.7031 0.74219-8.1484-2.2227-10.371l-7.4062-2.9648c-3.7031-2.2227-8.1484-0.74219-10.371 2.2227-1.4844 3.7031-0.74219 8.8906 2.9609 10.371z"/>
  <path d="m565.96 314.05-11.855-7.4102c-3.7031-2.2227-8.1484-0.74219-10.371 2.2227-2.2227 3.7031-0.74219 8.1484 2.2227 10.371l11.855 7.4102c1.4805 0.74219 2.2227 0.74219 3.7031 0.74219 2.2227 0 5.1875-1.4805 6.668-3.7031 2.2227-2.9648 1.4805-7.4102-2.2227-9.6328z"/>
  <path d="m601.52 335.54-6.668-3.7031c-3.7031-2.2227-8.1484-0.74219-10.371 2.2227-2.2227 3.7031-0.74219 8.1484 2.2227 10.371l6.668 3.7031c1.4805 0.74219 2.2227 0.74219 3.7031 0.74219 2.2227 0 5.1875-1.4805 6.668-3.7031 2.9609-2.9648 1.4805-7.4102-2.2227-9.6328z"/>
  <path d="m544.47 277.01h7.4102c4.4453 0 7.4102-2.9648 7.4102-7.4102 0-4.4453-2.9648-7.4102-7.4102-7.4102h-7.4102c-4.4453 0-7.4102 2.9648-7.4102 7.4102 0 3.707 2.9648 7.4102 7.4102 7.4102z"/>
  <path d="m580.04 277.01h11.113c4.4453 0 7.4102-2.9648 7.4102-7.4102 0-4.4453-2.9648-7.4102-7.4102-7.4102h-11.113c-4.4453 0-7.4102 2.9648-7.4102 7.4102 0.003906 3.707 2.9648 7.4102 7.4102 7.4102z"/>
  <path d="m625.97 262.19h-7.4102c-4.4453 0-7.4102 2.9648-7.4102 7.4102 0 4.4453 2.9648 7.4102 7.4102 7.4102h7.4102c4.4453 0 7.4102-2.9648 7.4102-7.4102 0-4.4453-2.9648-7.4102-7.4102-7.4102z"/>
 </g>
</svg>