<?xml version="1.0" encoding="UTF-8"?>
<!-- The Best Svg Icon site in the world: iconSvg.co, Visit us! https://iconsvg.co -->
<svg fill="#000000" width="800px" height="800px" version="1.1" viewBox="144 144 512 512" xmlns="http://www.w3.org/2000/svg">
 <path d="m539.05 281.1 45.848-11.082-29.223-30.73c-1.0078-36.277-38.289-66-84.137-66-65.496 0-108.82 88.668-108.82 88.668-6.5469 2.0156-13.098 4.5352-19.145 7.0547-93.707 39.801-148.12 122.93-121.42 186.41 15.113 35.77 52.898 57.938 100.26 62.977l6.5508 1.0078 20.656 86.152-21.664 21.156h127.46l-21.16-21.16-58.945 0.003907-12.09-52.395 57.938-46.855c6.5508-2.0156 13.098-4.5352 19.648-7.5586 93.707-39.297 148.12-122.93 121.42-186.41-6.0469-11.59-13.605-22.168-23.176-31.238zm-115.88 148.12c-11.082 6.0469-23.176 9.0703-35.266 9.0703-21.16 0-42.32-9.0703-56.93-26.199l10.578-9.0703c18.137 21.664 49.375 27.207 74.562 14.105 21.16-11.586 33.754-34.258 31.234-58.441v-0.50391h7.0547l7.0547-0.50391c3.5273 28.719-12.09 57.438-38.289 71.543zm75.07-174.32c-7.0547 0-13.098-4.0312-13.098-9.0703 0-5.0391 6.0469-9.0703 13.098-9.0703 7.0547 0 13.098 4.0312 13.098 9.0703 0 5.0391-5.543 9.0703-13.098 9.0703z"/>
</svg>