<?xml version="1.0" encoding="UTF-8"?>
<!-- The Best Svg Icon site in the world: iconSvg.co, Visit us! https://iconsvg.co -->
<svg fill="#000000" width="800px" height="800px" version="1.1" viewBox="144 144 512 512" xmlns="http://www.w3.org/2000/svg">
 <path d="m204.43 487.74h6.0195l0.003906 108.74c0 2.7812 2.2578 5.0391 5.0391 5.0391h370.16c2.7812 0 5.0391-2.2578 5.0391-5.0391v-108.74h6.7148c2.7812 0 5.0391-2.2578 5.0391-5.0391v-32.172c0-2.7812-2.2578-5.0391-5.0391-5.0391h-18.707v-100.41c13.176-2.9609 23.051-14.695 23.051-28.703 0-0.23047-0.015625-0.46484-0.050781-0.69531l-15.715-112.86c-0.34375-2.4922-2.4727-4.3438-4.9883-4.3438h-362.11c-2.5352 0-4.6758 1.8828-4.9961 4.3984l-14.461 112.86c-0.023438 0.21094-0.039063 0.42188-0.039063 0.64062 0 14.008 9.875 25.738 23.051 28.703v100.41h-18.012c-2.7812 0-5.0391 2.2578-5.0391 5.0391v32.172c0.003907 2.7812 2.2539 5.0391 5.0391 5.0391zm376.18 103.7h-360.08v-103.7h360.08zm-8.418-255.7c-9.9219 0-18.043-7.4414-19.234-16.988h38.473c-1.2031 9.5469-9.3164 16.988-19.238 16.988zm-68.512-27.062v-100.13h39.074v100.13zm-10.078 0h-38.961l0.003907-100.13h38.961zm-49.035 0h-39.023v-100.13h39.023zm-49.102 0h-38.895v-100.13h38.895zm-48.969 0h-38.961v-100.13h38.961zm-49.035 0h-38.953l-0.003907-100.13h38.953zm-0.24219 10.074c-1.1953 9.5469-9.3164 16.988-19.234 16.988-9.9219 0-18.043-7.4414-19.234-16.988zm49.035 0c-1.1953 9.5469-9.3164 16.988-19.234 16.988-9.9258 0-18.043-7.4414-19.242-16.988zm49.035 0c-1.1953 9.5469-9.3164 16.988-19.234 16.988-9.9258 0-18.043-7.4414-19.242-16.988zm49.035 0c-1.1953 9.5469-9.3164 16.988-19.242 16.988-9.9219 0-18.043-7.4414-19.234-16.988zm49.035 0c-1.1953 9.5469-9.3164 16.988-19.242 16.988-9.9219 0-18.043-7.4414-19.234-16.988zm49.031 0c-1.1953 9.5469-9.3164 16.988-19.242 16.988-9.9219 0-18.043-7.4414-19.234-16.988zm48.16-10.074h-37.719v-100.13h23.781zm-367.23-100.13h25.105v100.13h-37.934zm-13.609 110.21h38.473c-1.1953 9.5469-9.3164 16.988-19.242 16.988-9.9141 0-18.035-7.4414-19.23-16.988zm22.809 26.828c8.707-1.0547 16.262-5.8711 20.949-12.785 5.3164 7.8477 14.316 13.023 24.516 13.023 10.195 0 19.207-5.1758 24.516-13.023 5.3164 7.8477 14.324 13.023 24.52 13.023 10.195 0 19.207-5.1758 24.516-13.023 5.3164 7.8477 14.324 13.023 24.52 13.023 10.195 0 19.199-5.1758 24.516-13.02 5.3164 7.8477 14.316 13.02 24.516 13.02 10.195 0 19.207-5.1758 24.52-13.023 5.3164 7.8477 14.316 13.023 24.516 13.023 10.195 0 19.207-5.1758 24.52-13.023 5.3164 7.8477 14.316 13.023 24.516 13.023 10.195 0 19.207-5.1758 24.52-13.023 4.6797 6.918 12.238 11.734 20.945 12.785v99.906h-17.773c-1.3594-16.348-14.488-29.418-30.969-30.859-2.3672-16.363-16.574-28.996-33.738-28.996-12.309 0-23.086 6.5078-29.09 16.211-6.0039-9.7031-16.777-16.211-29.09-16.211-12.188 0-22.867 6.3789-28.91 15.922-6.0391-9.543-16.723-15.922-28.91-15.922-12.309 0-23.086 6.5078-29.09 16.211-6.0039-9.7031-16.777-16.211-29.09-16.211-17.312 0-31.617 12.836-33.805 29.398-15.059 2.6602-26.719 15.105-27.992 30.457h-17.645zm255.25 85.109c-5.3594-8.6719-14.531-14.773-25.207-15.98 2.2266-10.828 11.945-19.004 23.566-19.004 11.805 0 21.598 8.4453 23.617 19.52-9.2852 1.957-17.16 7.6797-21.977 15.465zm-58.176 0c-5.3594-8.6719-14.531-14.773-25.207-15.98 2.2266-10.828 11.945-19.004 23.566-19.004 11.805 0 21.598 8.4453 23.617 19.52-9.2891 1.957-17.164 7.6797-21.977 15.465zm-58.18 0c-5.3008-8.5703-14.328-14.625-24.852-15.926 2.2031-10.852 11.93-19.055 23.574-19.055 11.773 0 21.559 8.4023 23.613 19.438-9.4453 1.8867-17.461 7.6641-22.336 15.543zm-58.18 0c-5.3008-8.5703-14.328-14.625-24.852-15.926 2.2031-10.852 11.93-19.055 23.574-19.055 11.773 0 21.559 8.4023 23.613 19.438-9.4453 1.8906-17.461 7.6641-22.336 15.543zm-29.09-6.1367c12.293 0 22.344 9.1797 23.766 20.934h-47.531c1.4219-11.754 11.473-20.934 23.766-20.934zm58.18 0c12.293 0 22.344 9.1797 23.766 20.934h-47.531c1.4219-11.754 11.473-20.934 23.766-20.934zm58.18 0c12.293 0 22.344 9.1797 23.766 20.934h-47.531c1.4219-11.754 11.473-20.934 23.766-20.934zm58.176 0c12.293 0 22.344 9.1797 23.766 20.934h-47.531c1.4219-11.754 11.473-20.934 23.766-20.934zm58.18 0c12.293 0 22.344 9.1797 23.766 20.934h-47.531c1.4219-11.754 11.473-20.934 23.766-20.934zm-307.39 31.012h382.89v22.098h-382.89z"/>
</svg>