<?xml version="1.0" encoding="UTF-8"?>
<!-- The Best Svg Icon site in the world: iconSvg.co, Visit us! https://iconsvg.co -->
<svg fill="#000000" width="800px" height="800px" version="1.1" viewBox="144 144 512 512" xmlns="http://www.w3.org/2000/svg">
 <g>
  <path d="m494.73 452.93c-8.5508-5.5664-13.461-14.371-13.461-24.16 0-9.7891 4.9102-18.594 13.461-24.16 1.8945-1.2305 2.7344-3.5664 2.0664-5.7188-0.67578-2.1562-2.6484-3.6992-4.9453-3.5391-10.496 0.31641-20.766-4.5742-26.781-13.008-5.5352-7.7656-6.8125-17.285-3.5039-26.113 0.78125-2.0859 0.097656-4.4336-1.6719-5.7852-1.7695-1.3398-4.2148-1.3672-6.0156-0.050781-8.4023 6.1445-19.43 7.8242-29.473 4.5078-9.5977-3.1758-16.742-10.273-19.598-19.477-0.64844-2.1094-2.5977-3.5469-4.8047-3.5469-2.2109 0-4.1562 1.4375-4.8125 3.543-2.8555 9.2031-9.9961 16.301-19.598 19.477-10.047 3.3164-21.062 1.6367-29.473-4.5078-1.7969-1.3125-4.2422-1.2852-6.0156 0.050781-1.7695 1.3477-2.457 3.6992-1.6719 5.7852 3.3125 8.8281 2.0312 18.348-3.5039 26.113-6.0117 8.4297-16.117 13.219-26.781 13.008-2.3281-0.15234-4.2695 1.3867-4.9453 3.5391-0.66797 2.1523 0.17188 4.4883 2.0664 5.7188 8.5508 5.5664 13.461 14.371 13.461 24.16s-4.9102 18.594-13.461 24.16c-1.8945 1.2305-2.7344 3.5664-2.0664 5.7188 0.67578 2.1523 2.6172 3.6016 4.9453 3.5391 10.555-0.26172 20.773 4.582 26.781 13.008 5.5352 7.7656 6.8125 17.281 3.5039 26.109-0.78125 2.0859-0.097657 4.4336 1.6719 5.7852 1.7773 1.3438 4.2227 1.3711 6.0156 0.050781 8.4102-6.1445 19.426-7.8281 29.473-4.5078 9.5977 3.1758 16.742 10.273 19.598 19.477 0.65234 2.1133 2.6016 3.5508 4.8125 3.5508s4.1562-1.4375 4.8125-3.543c2.8555-9.2031 9.9961-16.301 19.598-19.477 10.043-3.3203 21.066-1.6367 29.473 4.5078 1.8008 1.3203 4.2461 1.293 6.0156-0.050781 1.7695-1.3477 2.457-3.6992 1.6719-5.7852-3.3125-8.8281-2.0312-18.348 3.5039-26.109 6.0039-8.4297 16.082-13.285 26.781-13.008 2.3008 0.0625 4.2695-1.3867 4.9453-3.5391 0.66406-2.1562-0.17969-4.4961-2.0742-5.7227zm-14.473 0.51172c-9.4102 2.4062-17.723 7.9609-23.391 15.906-5.1953 7.293-7.625 15.738-7.1328 24.23-9.0117-3.3672-19.09-3.625-28.488-0.50781-8.9727 2.9688-16.34 8.5586-21.242 15.922-4.9062-7.3672-12.27-12.957-21.246-15.922-4.4219-1.4648-9-2.1836-13.539-2.1836-5.1055 0-10.176 0.90625-14.945 2.6875 0.49219-8.4922-1.9375-16.938-7.1328-24.23-5.668-7.9453-13.977-13.5-23.391-15.906 5.7969-6.9062 9.0625-15.578 9.0625-24.672s-3.2656-17.766-9.0625-24.672c9.4102-2.4062 17.723-7.9609 23.387-15.906 5.1992-7.2969 7.6328-15.738 7.1406-24.234 9.0117 3.3672 19.086 3.6172 28.488 0.50781 8.9727-2.9648 16.34-8.5586 21.246-15.922 4.9062 7.3672 12.27 12.957 21.246 15.922 9.4023 3.1172 19.473 2.8594 28.488-0.50781-0.49219 8.4961 1.9375 16.938 7.1406 24.234 5.6641 7.9453 13.973 13.5 23.387 15.906-5.7969 6.9062-9.0625 15.578-9.0625 24.672-0.015625 9.0977 3.25 17.766 9.0469 24.676z"/>
  <path d="m400 376.44c-28.855 0-52.336 23.477-52.336 52.332s23.48 52.332 52.336 52.332 52.336-23.477 52.336-52.332c-0.003907-28.855-23.48-52.332-52.336-52.332zm0 94.586c-23.301 0-42.258-18.957-42.258-42.254 0-23.301 18.957-42.258 42.258-42.258s42.258 18.957 42.258 42.254c0 23.301-18.957 42.258-42.258 42.258z"/>
  <path d="m325.94 246.4h12.211c2.7852 0 5.0391-2.2539 5.0391-5.0391 0-2.7812-2.2539-5.0391-5.0391-5.0391h-12.211c-2.7852 0-5.0391 2.2539-5.0391 5.0391 0.003906 2.7812 2.2539 5.0391 5.0391 5.0391z"/>
  <path d="m359.92 246.4h12.207c2.7852 0 5.0391-2.2539 5.0391-5.0391 0-2.7812-2.2539-5.0391-5.0391-5.0391h-12.207c-2.7852 0-5.0391 2.2539-5.0391 5.0391 0 2.7812 2.2539 5.0391 5.0391 5.0391z"/>
  <path d="m393.89 246.4h12.211c2.7852 0 5.0391-2.2539 5.0391-5.0391 0-2.7812-2.2539-5.0391-5.0391-5.0391h-12.211c-2.7852 0-5.0391 2.2539-5.0391 5.0391 0 2.7812 2.2539 5.0391 5.0391 5.0391z"/>
  <path d="m427.87 246.4h12.207c2.7852 0 5.0391-2.2539 5.0391-5.0391 0-2.7812-2.2539-5.0391-5.0391-5.0391h-12.207c-2.7852 0-5.0391 2.2539-5.0391 5.0391 0 2.7812 2.2539 5.0391 5.0391 5.0391z"/>
  <path d="m461.84 246.4h12.211c2.7852 0 5.0391-2.2539 5.0391-5.0391 0-2.7812-2.2539-5.0391-5.0391-5.0391h-12.211c-2.7852 0-5.0391 2.2539-5.0391 5.0391 0 2.7812 2.2539 5.0391 5.0391 5.0391z"/>
  <path d="m510.12 198.48h-220.24c-2.7852 0-5.0391 2.2539-5.0391 5.0391v37.293l-6.8125 34.355c-1.668 8.375-2.5078 16.953-2.5078 25.496v295.82c0 2.7812 2.2539 5.0391 5.0391 5.0391h238.89c2.7852 0 5.0391-2.2539 5.0391-5.0391l-0.003906-295.81c0-8.543-0.83984-17.125-2.5078-25.496l-6.8125-34.355v-37.293c-0.003906-2.7852-2.2578-5.043-5.043-5.043zm-222.21 78.652 6.0977-30.727h10.18c2.7852 0 5.0391-2.2539 5.0391-5.0391 0-2.7812-2.2539-5.0391-5.0391-5.0391h-9.2656v-27.77h210.16v27.77h-9.2656c-2.7852 0-5.0391 2.2539-5.0391 5.0391 0 2.7812 2.2539 5.0391 5.0391 5.0391h10.18l6.0977 30.727c1.5352 7.7305 2.3125 15.648 2.3125 23.535v1.9297h-228.81v-1.9297c0-7.8867 0.77734-15.805 2.3125-23.535zm-2.3125 35.543h228.81v232.19h-228.81zm0 278.77v-36.504h228.81v36.504z"/>
 </g>
</svg>