<?xml version="1.0" encoding="UTF-8"?>
<!-- The Best Svg Icon site in the world: iconSvg.co, Visit us! https://iconsvg.co -->
<svg fill="#000000" width="800px" height="800px" version="1.1" viewBox="144 144 512 512" xmlns="http://www.w3.org/2000/svg">
 <path d="m453.47 315.45c0 2.7812-2.2539 5.0391-5.0391 5.0391-2.1758 0-4.0312-1.3789-4.7344-3.3125-0.70703 1.9336-2.5625 3.3125-4.7383 3.3125-2.4219 0-4.3438-1.7383-4.832-4.0156-0.48438 2.2734-2.4102 4.0156-4.832 4.0156-2.1797 0-4.0352-1.3867-4.7383-3.3203-0.70312 1.9375-2.5586 3.3203-4.7383 3.3203-2.7852 0-5.0391-2.2539-5.0391-5.0391 0-6.3359 4.2969-11.297 9.7773-11.297 4.7812 0 8.6562 3.7773 9.5703 8.9492 0.91016-5.1719 4.7812-8.9492 9.5664-8.9492 5.4844 0 9.7773 4.9609 9.7773 11.297zm6.6094-50.582c3.7266 0 6.7461-3.0195 6.7461-6.7461 0-3.7266-3.0195-6.7461-6.7461-6.7461-3.7266 0-6.7461 3.0195-6.7461 6.7461-0.003907 3.7266 3.0195 6.7461 6.7461 6.7461zm-51.898 0c3.7266 0 6.7461-3.0195 6.7461-6.7461 0-3.7266-3.0195-6.7461-6.7461-6.7461-3.7266 0-6.7461 3.0195-6.7461 6.7461 0 3.7266 3.0195 6.7461 6.7461 6.7461zm-72.547 214.46c0-6.7148-4.5234-11.98-10.293-11.98s-10.293 5.2656-10.293 11.98c0 2.7852 2.2539 5.0391 5.0391 5.0391 2.7812 0 5.0391-2.2539 5.0391-5.0391 0-0.52734 0.097656-0.96094 0.21484-1.2891 0.12109 0.32812 0.21484 0.76172 0.21484 1.2891 0 2.7852 2.2539 5.0391 5.0391 5.0391 2.7812 0 5.0391-2.2539 5.0391-5.0391zm5.6797 5.0391c2.7812 0 5.0391-2.2539 5.0391-5.0391 0-0.52734 0.097656-0.96094 0.21484-1.2891 0.12109 0.32812 0.21484 0.76172 0.21484 1.2891 0 2.7852 2.2539 5.0391 5.0391 5.0391 2.7812 0 5.0391-2.2539 5.0391-5.0391 0-6.7148-4.5234-11.98-10.293-11.98-5.7695 0-10.293 5.2656-10.293 11.98 0 2.7852 2.2539 5.0391 5.0391 5.0391zm-34.148-76.121c-4.1328 0-7.4844 3.3516-7.4844 7.4844 0 4.1328 3.3516 7.4844 7.4844 7.4844 4.1328 0 7.4844-3.3516 7.4844-7.4844 0-4.1367-3.3516-7.4844-7.4844-7.4844zm57.574 14.969c4.1328 0 7.4844-3.3516 7.4844-7.4844 0-4.1328-3.3516-7.4844-7.4844-7.4844-4.1328 0-7.4844 3.3516-7.4844 7.4844 0 4.1328 3.3516 7.4844 7.4844 7.4844zm279.61 133.21c0 20.156-18.027 35.887-18.793 36.547-0.94531 0.8125-2.1172 1.2188-3.2852 1.2188-1.1719 0-2.3438-0.41016-3.2852-1.2188-0.67578-0.58203-14.773-12.902-18.086-29.641v57.113c0 3.4844-1.7891 6.6211-4.7969 8.3945-3.0117 1.7617-6.6172 1.8125-9.6641 0.12891l-7.5273-4.1758-7.5234 4.1719c-1.4844 0.82812-3.1094 1.2383-4.7266 1.2383-1.7031 0-3.3984-0.45312-4.9414-1.3594-3.0078-1.7695-4.8008-4.9102-4.8008-8.3984l-0.003907-63.324-12.789 0.33594 0.33594 62.984c0 3.4883-1.7969 6.6328-4.8008 8.3984-3 1.7656-6.6172 1.8125-9.6641 0.11719l-7.5234-4.1719-7.5234 4.1719c-3.0547 1.6914-6.668 1.6484-9.668-0.11719-3.0078-1.7695-4.8008-4.9102-4.8008-8.3984v-50.906c-2.6992 1.9883-5.6914 3.6172-8.8789 4.8125v0.96484c0 6.4766-5.8594 11.742-13.062 11.742-7.207 0-13.066-5.2695-13.066-11.742l-0.003906-0.96484c-1.1602-0.43359-2.2109-1.0469-3.3125-1.5859-1.1367 0.5625-2.2695 1.1445-3.4805 1.5938v0.96094c0 6.4766-5.8594 11.742-13.062 11.742-7.207 0-13.066-5.2695-13.066-11.742v-0.96094c-8.5312-3.168-15.332-9.2852-19.254-16.895h-6.1602l0.33594 62.984c0 3.4883-1.7969 6.6289-4.8008 8.3984-3.0078 1.7695-6.6211 1.8125-9.6719 0.11719l-7.5195-4.1719-7.5195 4.1719c-3.0547 1.6992-6.6641 1.6445-9.6719-0.12109-3.0039-1.7695-4.7969-4.9102-4.7969-8.3945v-63.324l-12.789 0.33594 0.33594 62.992c0 3.4883-1.793 6.6289-4.8008 8.3945-3.0039 1.7695-6.6172 1.8125-9.668 0.11719l-7.5234-4.1719-7.5195 4.1719c-3.0508 1.6992-6.6719 1.6445-9.6719-0.12109-3.0039-1.7695-4.7969-4.9062-4.7969-8.3945l0.003906-107.72c-12.371-6.4023-21.52-18.113-24.035-32.43l-5.0039-28.469c-1.8594 0.19922-3.7578-0.10156-5.4688-1.0547l-6.5391-3.625-6.543 3.625c-2.8984 1.6133-6.3398 1.5703-9.2031-0.11328-2.8633-1.6875-4.5742-4.6758-4.5742-7.9961l-0.003906-56.281h-10.23v56.281c0 3.3203-1.7109 6.3125-4.5703 7.9961-2.8672 1.6758-6.3086 1.7266-9.2109 0.11328l-6.5391-3.625-6.543 3.625c-2.9023 1.6172-6.3477 1.5586-9.207-0.11719-2.8594-1.6875-4.5664-4.6758-4.5664-7.9961v-47.523c-4.1602 13.254-14.918 22.656-15.48 23.141-0.94141 0.8125-2.1133 1.2188-3.2852 1.2188-1.1719 0-2.3398-0.41016-3.2852-1.2188-0.69922-0.60156-17.117-14.93-17.117-33.324 0-10.742 2.6211-20.02 6.8828-26.254v-38.301c0-41.297 33.598-74.895 74.891-74.895h136.06c-1.5781-9.5586 0.10547-19.246 4.6484-27.668-16.078-13.418-14.172-31.234-6.5859-43.918 1.9102-3.1953 5.7578-4.7656 9.332-3.8438 13.316 3.4453 20.547 10.875 24.199 18.605 2.457-1.2656 5.1641-2.0078 8.0312-2.0078 3.7422 0 7.3945 1.2383 10.508 3.5 6.2383-4.5195 14.793-4.5156 21.023 0 3.1133-2.2578 6.7656-3.5 10.508-3.5 2.8672 0 5.5742 0.74609 8.0312 2.0117 3.6523-7.7305 10.883-15.16 24.199-18.609 3.582-0.91406 7.418 0.64844 9.3281 3.8477 7.5898 12.68 9.5 30.492-6.582 43.914 4.6172 8.5547 6.2969 18.418 4.5938 28.121l-12.383 70.457c-2.2812 12.957-10.516 23.574-21.664 29.445v56.422h93.5c45.512 0 82.535 37.027 82.535 82.539v42.617c4.7227 6.8125 7.6367 17.086 7.6367 28.992zm-172.07-241.25c-0.47656-8.4492-15.984-17.68-38.141-17.68-22.16 0-37.672 9.2383-38.141 17.688 0.21484 1.1172 0.55078 2.1836 0.88281 3.25 3.1992-0.16797 6.3477 1.3398 8.0352 4.168 1.5039 2.5117 3.9219 7.2305 5.2891 13.078 5.0742 3.1836 11.059 5.0781 17.496 5.0781h12.875c15.605 0 28.828-10.734 31.703-25.582zm-42.156 70.406v16.695h20.48v-30.156c-0.33594 0.51953-0.73047 1.0508-1.2148 1.5859-2.4609 2.707-6.4141 4.3281-10.156 4.3281-0.96484 0-1.9102-0.10547-2.8125-0.32813-3.7852-0.93359-6.5352-3.7188-7.5508-7.6523-0.58203-2.2383-0.87109-4.3242-1.125-6.1641-0.1875-1.3594-0.4375-3.1641-0.73438-3.918-4.2461-2.0352-5.4492-6.3125-5.5117-9.6172-3.6484-0.52344-7.1484-1.4961-10.445-2.8711-0.78125 7.6289-4.4883 15.883-13.711 23.387 1.6797 3.0352 3.0156 6.2227 3.9922 9.5156 1.6719-2.457 4.4883-4.0781 7.6797-4.0781h11.828c5.1211-0.003906 9.2812 4.1602 9.2812 9.2734zm-20.309 0.80078v15.898h10.234v-15.898zm-13.066-57.789c-13.34 3.75-18.52 11.66-20.441 18.344 1.0312 1.6016 1.9102 3.3242 2.5742 5.1914 4.7578 2.7383 9.0625 6.2617 12.723 10.492 14.129-12.008 9.6992-26.004 5.1445-34.027zm74.316-132.54c0.85938 1.3672 1.6016 2.8281 2.1719 4.4023 4.125 2.3984 7.8555 5.4609 11.078 9.0977 11.82-10.367 8.2891-22.32 4.3711-29.379-11.371 3.3164-15.891 10.086-17.621 15.879zm-67.438 12.852c0 6.6992 4.2539 12.148 9.4922 12.148 2.4336 0 4.7734-1.2383 6.582-3.4883 0.95313-1.1875 2.3945-1.8828 3.9258-1.8828 1.5234 0 2.9648 0.69141 3.9258 1.8789 3.6211 4.5 9.5508 4.5 13.172 0.003906 0.95312-1.1914 2.4023-1.8828 3.9258-1.8828 1.5234 0 2.9727 0.69141 3.9258 1.8828 1.8086 2.25 4.1445 3.4883 6.582 3.4883 5.2344 0 9.4922-5.4531 9.4922-12.148 0-6.6992-4.2539-12.148-9.4922-12.148-2.4336 0-4.7734 1.2383-6.582 3.4883-1.9102 2.3828-5.9453 2.3828-7.8516 0-3.6211-4.4961-9.5508-4.5-13.172 0.003906-0.96094 1.1875-2.4023 1.8789-3.9258 1.8789-1.5312 0-2.9727-0.69531-3.9258-1.8828-1.8125-2.25-4.1484-3.4883-6.582-3.4883-5.2383-0.003907-9.4922 5.4492-9.4922 12.148zm-9.6055 4.7383c-1.1055 1.0156-2.168 2.082-3.1445 3.2461-6.4141 7.6445-9.1133 17.602-7.4062 27.324l3.9414 22.41c2.1445-0.67578 5.4219-0.68359 9.1602 2.8398 2.3359 2.2031 3.2383 2.3477 4.4883 2.5508 1.4062 0.23047 3.5234 0.57031 5.9023 2.4531 3.7734 2.9883 6.4648 9.0078 6.2539 13.996-0.023438 0.60938-0.14844 1.1758-0.25781 1.75 6.3711-1.7773 13.527-2.7969 21.184-2.7969 17.383 0 32.309 5.1172 40.789 12.953l9.5938-54.586c-1.4258 0.17188-3.0547 0.16016-4.9766-0.16797-5.5898-0.95312-7.4375-0.12891-9.5938 0.82031-1.7422 0.76562-3.8555 1.7031-6.9805 1.7031-0.42969 0-0.875-0.015625-1.3398-0.054688-5.5195-0.44141-13.363-4.7031-16.93-11.062-1.5352-2.7344-2.0391-5.6055-1.6953-8.3984-6.0312 3.4414-13.668 3.1406-19.383-1-3.1133 2.2617-6.7656 3.5-10.508 3.5-9.3594 0.003906-17.18-7.5-19.098-17.48zm-10.059-4.0898c3.2188-3.6367 6.9492-6.6992 11.07-9.0977 0.57422-1.5742 1.3164-3.0391 2.1758-4.4062-1.7305-5.793-6.2539-12.559-17.625-15.875-3.9102 7.0625-7.4375 19.016 4.3789 29.379zm-197.58 175.4c0-14.934-6.1133-24.465-10.32-24.465-4.2109 0-10.328 9.5312-10.328 24.465 0 3.7617 1.0312 7.3633 2.5039 10.637v-4.457c0-1.8086 1.4648-3.2734 3.2734-3.2734s3.2734 1.4648 3.2734 3.2734v14.699c0.4375 0.52344 0.87109 1.0352 1.2734 1.4805 0.39844-0.44531 0.83203-0.95703 1.2695-1.4766v-20.887c0-1.8086 1.4648-3.2734 3.2734-3.2734s3.2734 1.4648 3.2734 3.2734v10.641c1.4727-3.2734 2.5078-6.875 2.5078-10.637zm8.4414-86.328c-3.4336 6.6523-5.25 14.055-5.25 21.773v38.297c2.2617 3.3086 4.0625 7.4648 5.25 12.258zm30.562 130.32h-20.488v12.355l7.8008-4.3242c1.5195-0.84766 3.3672-0.84766 4.8867 0l7.7969 4.3242zm30.383-43.367v33.293h16.457l-2.9414-16.742c-1.9023-10.805 0.046875-21.785 5.293-31.266-22.633-18.414-11.664-41.426-7.5664-48.27 1.9883-3.332 5.9922-4.9766 9.7305-4.0156 14.895 3.8555 22.84 12.254 26.746 20.898 2.7812-1.5352 5.8594-2.4688 9.1523-2.4688 4.168 0 8.2266 1.4258 11.66 4.0195 6.8672-5.1875 16.449-5.1875 23.32 0 3.4336-2.5938 7.4922-4.0195 11.66-4.0195 3.293 0 6.3711 0.93359 9.1523 2.4688 3.1328-6.9336 8.9023-13.68 18.742-18.078-0.5-1.625-0.94141-3.2812-1.2422-4.9922l-10.695-60.832h-33.277c1.8594 2.0742 3.3906 4.6836 3.6719 7.793 0.30078 3.3438-0.77734 8.3633-7.6367 13.262-7.1602 5.1133-8.3672 8.2695-9.6484 11.609-1.0742 2.8086-2.2969 5.9922-6.1172 9.2695-4.2695 3.6602-11.914 6.5156-19.465 6.5156-2.3555 0-4.7031-0.27734-6.9375-0.89844-5.8633-1.625-10.082-5.4844-11.875-10.871-1.3984-4.2031-2.1172-8.2109-2.7461-11.738-1.3438-7.5234-2.0859-10.246-5.1445-11.266-7.5742-2.5234-10.117-8.6016-10.59-13.676h-28.039c-35.738 0-64.816 29.078-64.816 64.82v30.5c1.1172-0.29688 2.2578-0.48828 3.4414-0.48828 1.1797 0 2.3242 0.19141 3.4375 0.48828l0.003907-30.5c0-15.949 6.7461-31.379 18.508-42.34 1.6523-1.5391 4.125-1.7852 6.0469-0.62109 1.9297 1.1719 2.8438 3.4766 2.2422 5.6523-0.92578 3.3438-1.3945 6.707-1.3945 10v8.9609c1.7266-1.875 4.0234-3.5938 6.9492-3.9414 2.6992-0.32422 6.7734 0.42969 10.863 5.8242 4.1406 5.4648 6.6172 6.3359 9.2383 7.2539 2.1562 0.75391 4.8359 1.6953 7.5508 4.6875 3.957 4.3594 6.9375 13.383 5.0781 20.926-1.1719 4.7461-4.1797 8.2188-8.4727 9.7891-3.2969 1.2031-6.4492 1.8594-9.2266 2.4375-6.1406 1.2773-7.9023 1.9336-8.5625 4.125-2.1641 7.1523-8.3477 8.9805-12.672 8.9805-0.27734 0-0.48828-0.046875-0.75-0.058594v56.805h20.488v-33.293c0-5.1133 4.1641-9.2773 9.2773-9.2773h11.832c5.1133-0.003906 9.2734 4.1602 9.2734 9.2734zm103.52-38.492c-2.875 0-5.6211 1.4492-7.7344 4.0781-1.9102 2.3828-5.9453 2.3828-7.8516 0-4.2266-5.2578-11.238-5.2578-15.465 0-1.9102 2.3828-5.9453 2.3828-7.8516 0-2.1133-2.6289-4.8594-4.0781-7.7344-4.0781-6.1094 0-11.082 6.2969-11.082 14.031 0 7.7383 4.9727 14.031 11.082 14.031 2.875 0 5.6211-1.4492 7.7344-4.0781 1.9141-2.3828 5.9375-2.3828 7.8516 0 4.2266 5.2539 11.238 5.25 15.465 0 0.95703-1.1914 2.4023-1.8828 3.9258-1.8828 1.5234 0 2.9688 0.69141 3.9258 1.8828 2.1133 2.6289 4.8594 4.0781 7.7344 4.0781 6.1094 0 11.082-6.293 11.082-14.031s-4.9727-14.031-11.082-14.031zm-83.121 94.164-2.1641-12.301h-18.23v12.355l7.8008-4.3242c1.5195-0.84766 3.3672-0.84766 4.8867 0zm4.1562-78.633c3.6602-4.2344 7.9688-7.7539 12.727-10.492 0.66016-1.8672 1.543-3.5859 2.5742-5.1875-1.9219-6.6875-7.1016-14.59-20.441-18.344-4.5586 8.0234-8.9922 22.016 5.1406 34.023zm10.02 101.08c9.1406-8.9922 25.945-14.926 45.621-14.926 8.7695 0 16.949 1.1992 24.164 3.2969-0.22266-0.85547-0.35938-1.7617-0.39844-2.707-0.25-5.9023 3.2266-12.301 6.7266-15.078 2.5273-1.9961 4.7031-2.3516 6.293-2.6094 1.4258-0.23047 2.5508-0.41406 5.2656-2.9727 4.043-3.8125 7.5508-3.7305 9.7773-2.9805 0.16016 0.054687 0.28125 0.14453 0.43359 0.20703l4.4922-25.547c1.9219-10.945-1.1133-22.16-8.3398-30.762-1.3203-1.5703-2.7812-2.9805-4.3086-4.3086-1.7539 11.289-10.379 19.91-20.785 19.91-4.168 0-8.2227-1.4258-11.66-4.0156-6.5 4.8984-15.387 5.1094-22.141 0.74219 0.69922 3.3203 0.13281 6.8008-1.7109 10.09-3.8711 6.8945-12.367 11.52-18.348 12-0.49609 0.042969-0.97266 0.058594-1.4297 0.058594-3.3672 0-5.6523-1.0117-7.5352-1.8438-2.4727-1.0898-4.6133-2.0352-10.953-0.94531-2.4219 0.41016-4.4258 0.37109-6.1133 0.074219zm38.48 44.25h14.289c17.578 0 32.496-12.082 35.734-28.805-0.38281-9.668-17.867-20.289-42.879-20.289-25.016 0-42.504 10.629-42.879 20.297 3.2422 16.715 18.156 28.797 35.734 28.797zm12.148 96.734h-23.828v15.188l9.4648-5.25c1.5195-0.84766 3.3672-0.83984 4.8867-0.003906l9.4727 5.2539zm56.434 0h-23.828v15.191l9.4688-5.2539c1.5195-0.84766 3.3711-0.84766 4.8906 0l9.4727 5.2539zm55.035-38.922c-2.4375-2.4766-4.6055-5.207-6.1992-8.3047h-20.84c3.3555 3.9375 7.9844 6.9297 13.438 8.3164 2.2344 0.56641 3.7969 2.5781 3.7969 4.8789v4.6602c0 0.66406 1.1914 1.668 2.9922 1.668 1.7969 0 2.9883-1.0039 2.9883-1.668v-4.6602c0-2.3008 1.5664-4.3164 3.7969-4.8789 0.007812-0.003906 0.015625-0.007813 0.027344-0.011719zm81.953 38.922h-23.828v15.191l9.4727-5.2539c1.5234-0.84766 3.3672-0.84766 4.8906 0l9.4648 5.25zm56.434 0h-23.828v15.191l9.4727-5.2539c1.5234-0.84766 3.3672-0.84766 4.8906 0l9.4648 5.25zm27.086-119.87v34.535c1.4062-0.44531 2.8594-0.69141 4.3633-0.69141s2.9648 0.24609 4.3672 0.69141v-34.535c0-39.957-32.508-72.461-72.457-72.461h-31.59c-0.38672 5.5508-3.0625 12.41-11.441 15.203-3.6641 1.2188-4.5742 4.5117-6.082 12.926-0.69531 3.8984-1.4805 8.3203-3.0195 12.945-1.9375 5.7969-6.4844 9.9531-12.801 11.699-2.4414 0.67969-5 0.98047-7.5703 0.98047-8.2305 0-16.562-3.1094-21.211-7.0977-4.1367-3.543-5.4609-7.0078-6.6328-10.062-1.4531-3.7852-2.8203-7.3594-10.898-13.133-5.9375-4.2422-8.7148-9.0195-8.2422-14.211 0.34375-3.8125 2.4766-6.8867 4.8672-9.25h-38.723l-11.945 67.941c-3.4766 19.793-19.602 34.629-39.457 37.27 0.046874 3.6562-1.2031 8.6875-6.2148 10.832-0.12891 0.37891-0.48047 2.9141-0.71484 4.5898-0.28125 2.0273-0.60156 4.3242-1.2344 6.7734-1.0781 4.1641-3.9883 7.1094-7.9805 8.0938-0.96484 0.23438-1.9766 0.34766-3 0.34766-3.9961 0-8.2188-1.7305-10.844-4.625-1.1445-1.2578-1.8281-2.4961-2.3086-3.6367v54.668h23.828v-37.484c0-5.3711 4.3672-9.7422 9.7422-9.7422h13.125c5.3711 0 9.7383 4.3672 9.7383 9.7422v37.484h23.832v-37.484c0-5.3711 4.3672-9.7422 9.7422-9.7422h42.348c2.082 0 3.9453 1.2773 4.6992 3.2188 2.8828 7.4336 9.4453 13.105 17.562 15.172 2.2344 0.56641 3.7969 2.5781 3.7969 4.8789v4.6602c0 0.66406 1.1914 1.668 2.9922 1.668 1.7969 0 2.9883-1.0039 2.9883-1.668v-4.6602c0-2.3008 1.5664-4.3164 3.7969-4.8789 6.6797-1.7031 12.461-5.9531 15.867-11.672 0.92578-1.5547 2.5898-2.4609 4.3281-2.4609 0.44141 0 0.89062 0.058594 1.3398 0.18359 2.1836 0.60156 3.6992 2.5898 3.6992 4.8555v37.93h23.828v-37.484c0-5.3711 4.3672-9.7422 9.7422-9.7422h13.121c5.3711 0 9.7422 4.3672 9.7422 9.7422v37.484l23.824 0.003906v-63.613c-0.45703 0.042969-0.87109 0.10938-1.3828 0.10938-4.7969 0-11.66-2.0273-14.059-9.9609-0.73438-2.4297-2.6836-3.1562-9.4961-4.5742-3.082-0.64062-6.5781-1.3672-10.234-2.7031-4.7617-1.7383-8.0977-5.5938-9.3984-10.859-2.0664-8.3711 1.2422-18.375 5.6328-23.215 3.0078-3.3164 5.9844-4.3633 8.375-5.1992 2.9102-1.0195 5.6562-1.9844 10.25-8.0469 4.5391-5.9844 9.0586-6.8203 12.055-6.4609 3.5547 0.42188 6.3008 2.6562 8.2578 4.9609v-10.531c0-3.7148-0.52734-7.4922-1.5664-11.23-0.60156-2.1758 0.31641-4.4805 2.2422-5.6523 1.918-1.1758 4.3945-0.92578 6.0469 0.62109 12.941 12.047 20.363 29.02 20.363 46.559zm-10.078 0c0-9.4062-2.4023-18.395-6.9336-26.336v88.215c1.1211-7.7461 3.5547-14.398 6.9336-19.27zm26.445 71.613c0-17.156-6.9922-27.691-12.004-27.691s-12.004 10.535-12.004 27.691c0 4.9805 1.5781 9.6836 3.6836 13.828v-6.9688c0-1.8125 1.4648-3.2773 3.2773-3.2773s3.2773 1.4648 3.2773 3.2773v16.777c0.61719 0.73047 1.2109 1.4023 1.7578 1.9961 0.55078-0.60156 1.1523-1.2812 1.7773-2.0234v-16.75c0-1.8125 1.4648-3.2773 3.2773-3.2773s3.2773 1.4648 3.2773 3.2773v6.9258c2.1055-4.1445 3.6797-8.8398 3.6797-13.785zm-168.64-57.969c-6.1055-4.3633-7.1328-7.0352-8.2148-9.8711-0.92188-2.4023-2.0625-5.3867-5.5312-8.3555-5.0273-4.3164-15.266-7.3672-23.672-5.0469-5.3398 1.4805-9.1758 5.0039-10.812 9.918-1.2461 3.7227-1.875 7.2461-2.4297 10.363-1.1953 6.6953-1.8359 8.6133-4.0781 9.3633-9.6055 3.1992-10.422 12.66-9.5117 17.215 0.48828 2.4453 2.7656 4.207 5.1914 4.043l1.6055-0.082031c2.7344 7.6758 12.93 13.055 25.824 13.055 14.293 0 25.27-6.6094 26.449-15.621 0.60547-0.050782 1.1992-0.20703 1.75-0.46094 0.98828-0.46875 9.6758-4.7617 10.367-12.348 0.27734-3.0938-0.69531-7.7148-6.9375-12.172z"/>
</svg>