<?xml version="1.0" encoding="UTF-8"?>
<!-- The Best Svg Icon site in the world: iconSvg.co, Visit us! https://iconsvg.co -->
<svg fill="#000000" width="800px" height="800px" version="1.1" viewBox="144 144 512 512" xmlns="http://www.w3.org/2000/svg">
 <path d="m573.18 483.97c-0.089844-40.449-19.129-78.523-51.438-102.86l-52.477-39.359h0.003907c-13.844-10.438-22-26.75-22.043-44.082v-7.875h-15.742v-7.3125c-0.054687-18.441 7.2773-36.141 20.355-49.145 12.207-12.141 19.051-28.66 19.004-45.879v-7.8711h-7.8711c-17.219-0.046875-33.738 6.7969-45.879 19.004-4.6211 4.6523-8.8164 9.7109-12.535 15.113-5.4297-11.434-12.754-21.867-21.66-30.859-12.145-12.207-28.664-19.051-45.879-19.004h-7.875v7.875c-0.046876 17.215 6.7969 33.734 19.004 45.879 13.078 13.004 20.41 30.699 20.359 49.145v23.055h-15.746v7.875c-0.042969 17.332-8.1992 33.645-22.039 44.082l-52.477 39.359c-28.754 21.551-47.172 54.152-50.785 89.906-3.6133 35.75 7.9062 71.379 31.766 98.246 23.859 26.871 57.875 42.52 93.805 43.16-5.2578 6.8008-8.1211 15.145-8.1406 23.742h15.742c0.019531-5.0664 1.668-9.9883 4.7031-14.043 3.0391-4.0547 7.2969-7.0195 12.152-8.4648-0.70313 2.1875-1.0742 4.4648-1.1094 6.7617v15.742h15.742v-15.742c0-4.3477 3.5273-7.8711 7.875-7.8711s7.8711 3.5234 7.8711 7.8711v15.742h15.742v-15.742c-0.03125-2.2969-0.40625-4.5742-1.1094-6.7617 4.8555 1.4453 9.1172 4.4102 12.152 8.4648 3.0352 4.0547 4.6836 8.9766 4.7031 14.043h15.742c-0.03125-8.5977-2.9023-16.941-8.1719-23.734 33.672-0.63281 65.75-14.438 89.355-38.453 23.602-24.016 36.852-56.328 36.898-90.004zm-189.22-178.03c-1.3906 36.824-12.387 72.645-31.891 103.91l-14.895 23.859c-20.676 32.969-27.918 72.609-20.23 110.76 3.0586 15.199 10.254 29.258 20.789 40.629-29.281-15.164-49.57-43.391-54.613-75.98-5.043-32.59 5.7695-65.625 29.102-88.93l36.328-36.328v-0.003907c20.902-20.789 33.492-48.496 35.41-77.914zm-51.578 235.43c-6.8984-34.199-0.41797-69.746 18.105-99.312l14.902-23.836c18.363-29.348 29.77-62.508 33.352-96.945h2.5117c3.5742 34.43 14.973 67.586 33.324 96.938l14.902 23.836h-0.003906c18.523 29.566 25.004 65.113 18.105 99.312-4.1992 21.004-17.922 38.863-37.137 48.332-19.211 9.4688-41.734 9.4688-60.949 0s-32.938-27.328-37.137-48.332zm150.66 3.0938h-0.003906c7.6875-38.148 0.44531-77.789-20.23-110.76l-14.902-23.836c-16.746-26.859-27.25-57.133-30.73-88.594h0.92188c4.6016 23.719 16.203 45.512 33.305 62.574l36.328 36.328v0.003906c23.328 23.305 34.137 56.34 29.094 88.926-5.043 32.59-25.332 60.812-54.613 75.977 10.551-11.363 17.758-25.422 20.828-40.621zm-54.824-334.75c7.0977-7.1289 16.223-11.891 26.129-13.641-1.75 9.9062-6.5156 19.031-13.645 26.125-16.039 15.949-25.031 37.656-24.969 60.277v-20.355c0-2.6758-0.10938-5.3438-0.30078-8.0039-0.0625-0.85938-0.17969-1.707-0.26172-2.5586-0.17188-1.8125-0.35547-3.6133-0.61328-5.4141-0.14844-1.0156-0.34766-2.0234-0.51953-3.0312-0.28516-1.6211-0.56641-3.2344-0.92188-4.8477-0.23438-1.0938-0.51953-2.1797-0.78906-3.2734-0.23438-0.94531-0.42578-1.8984-0.68359-2.8438l0.003906-0.003907c4.3984-8.2461 9.9844-15.801 16.57-22.43zm-68.941-3.2578c-7.1328-7.0938-11.898-16.219-13.645-26.129 9.9062 1.75 19.031 6.5156 26.129 13.645 18.047 18.09 28.199 42.594 28.23 68.148v27.668h-15.746v-23.055c0.0625-22.621-8.9297-44.328-24.969-60.277zm-116.73 277.51c0.082031-35.496 16.781-68.902 45.129-90.27l52.477-39.359c15.598-11.754 25.684-29.398 27.898-48.805h0.0625c-1.7852 25.367-12.691 49.234-30.703 67.188l-36.328 36.328c-24.555 24.512-37.188 58.523-34.582 93.125 2.6055 34.598 20.188 66.336 48.137 86.895-21.199-8.2227-39.426-22.656-52.289-41.41-12.863-18.75-19.766-40.949-19.801-63.691zm242.79 105.1c27.949-20.559 45.531-52.297 48.137-86.895 2.6055-34.602-10.023-68.613-34.582-93.125l-36.328-36.328c-18.012-17.953-28.918-41.82-30.703-67.188h0.0625c2.2109 19.402 12.297 37.051 27.891 48.805l52.477 39.359c21.574 16.168 36.641 39.531 42.469 65.855 5.8242 26.32 2.0273 53.859-10.711 77.621-12.734 23.762-33.566 42.172-58.711 51.895z"/>
</svg>