<?xml version="1.0" encoding="UTF-8"?>
<!-- The Best Svg Icon site in the world: iconSvg.co, Visit us! https://iconsvg.co -->
<svg fill="#000000" width="800px" height="800px" version="1.1" viewBox="144 144 512 512" xmlns="http://www.w3.org/2000/svg">
 <g>
  <path d="m269.93 336.94c1.3203-0.31641 2.4375-0.64062 3.0469 1.2734 2.7852 8.7695 4.9922 17.691 7.1094 26.637h-0.003906c0.15625 1.7617 0.13281 3.5391-0.066407 5.2969-0.15234 9.6641 0.33984 19.324 1.4688 28.922 0.41016 2.3359 1.043 4.625 1.8867 6.8359 0.48438 1.3438 1.0273 2.9297-0.42188 3.4102-1.8398 0.60938-1.3281-1.6484-2-2.5391-0.19922-0.22266-0.41406-0.4375-0.63672-0.64063-0.21484 1.5586-0.12109 3.1406 0.27734 4.6562 1.0742 1.9883 1.1094 5.8398 3.4766 5.5938v0.003907c3.2148-0.36719 6.0742-2.2266 7.707-5.0195 2.6445-4.8906 4.6055-10.117 5.8242-15.539 0.87109-3.625 2.543-4.2383 5.7969-2.4688 4.2852 2.9023 6.8711 7.7148 6.9297 12.891 0.78125 3.5703 1.9609 7.0469 3.5156 10.359 1.1406 2.1797 3.4062 3.543 5.8672 3.5273 1.7773-0.21094 3.5508 0.39453 4.832 1.6445 1.2773 1.2461 1.9258 3.0078 1.7617 4.7852 0.22266 6.3906-0.36328 12.785-1.75 19.023-0.35156 4.5039-0.28125 9.0273 0.21094 13.516 0.25 1.2383 0.19922 2.5195-0.14453 3.7344-1.4453 2.2148-1.0352 5.1562 0.96094 6.8945 1.4609 1.2969-0.98047 2.3828-0.35547 3.8203 0.84375 1.9375 1.3359 4.0273 2.1484 5.9805h0.003906c4.6289 10.648 7.2461 22.066 7.7148 33.668 0.30078 10.527 1.4258 21.035 1.082 31.574-0.10938 3.3633 1.0977 4.1562 4.0156 3.375 3.6719-0.83984 7.5234-0.31641 10.84 1.4727 0.65234-3.2695 0.28906-6.5469 0.64453-9.7539h-0.003906c1.2891-11.703 1.6992-23.484 1.2305-35.25-0.28125-7.2617 1.2578-14.578 1.4492-21.883 0.16797-6.3203 1.8477-12.402 2.1133-18.719h0.003906c0.52344-5.375 2.0742-10.602 4.5703-15.395 4.3164-9.4727 8.4102-19.039 12.422-28.648 1.7109-6.2578 5.8906-11.555 11.578-14.672 3.4961-1.8164 7.5391-2.2773 11.355-1.3008 3.8164 0.97656 7.1406 3.3242 9.3359 6.5938 3.7109 5.9258 9.1055 10.605 15.492 13.445 4.9141 3.3594 11.031 4.457 16.805 3.0156 1.2617-0.27734 2.3867-0.98438 3.1836-2.0039 5.6523-6.7383 10.766-13.91 15.293-21.453 4.1602-7.9297 11.094-7.0859 18.27-2.6523 2.7109 1.9023 5.6523 3.4531 8.7578 4.6094 3.3828 0.92969 6.9609 0.89062 10.324-0.10938 3.3633-1.0039 6.375-2.9297 8.6992-5.5586 1.8672-1.6602 3.4258-3.6602 5.207-5.4258 0.875-0.86719 2.1562-1.6328 3.0312-0.26172 0.75781 1.1875-0.69141 1.5586-1.4609 1.9492h-0.003906c-2.9453 2.0156-5.6562 4.3516-8.0898 6.9609-3.6289 3.1094-8.2305 4.8516-13.008 4.9219-4.7773 0.074219-9.4297-1.5273-13.152-4.5234-2.8594-2.1836-6.2891-3.4844-9.8711-3.7539-3.9414 0.082032-7.3516 2.7617-8.3633 6.5742-3.5312 7.6016-10.031 12.977-14.215 20.039v-0.003906c-1.3164 1.582-3.2852 2.4727-5.3398 2.418-5.2812 1.6992-11.051 0.83594-15.605-2.3359-1.6211-1.2109-3.4297-2.1445-5.3555-2.7578-5.168-2.168-9.3672-6.1445-11.816-11.188-2.5898-3.7266-6.7031-6.1055-11.227-6.4883-4.5195-0.38281-8.9766 1.2695-12.156 4.5078-3.2734 3.0039-5.4531 7.0156-6.1953 11.398-0.31641 8.1797-6.6289 13.445-8.5352 20.691-0.19922 0.75-1.2031 1.4258-0.51563 2.2305v-0.003906c0.69141 0.51953 1.6523 0.46875 2.2852-0.11719 8.7383-3.8984 17.961-6.6133 27.422-8.0703 7.6094-1.0547 15.27-1.6875 22.953-1.8867 12.699-0.42969 25.43-0.83203 38.059-2.1094 10.359-1.0469 20.609-3.2461 30.902-4.9648 7.457-1.2461 15.035-1.9492 22.488-3.3242 3.9648-0.73047 7.9805-1.0312 11.957-1.668 2.9219-0.46875 2.3555-1.625 1.5273-3.168v0.003906c-2.9961-6.0508-5.0625-12.52-6.1211-19.188-0.25-1.5273-0.40234-3.0703-0.46094-4.6172-0.058593-0.83203-0.10547-1.832 1.0859-1.8555 0.42969-0.003906 0.83984 0.17969 1.125 0.5 0.28516 0.32031 0.41797 0.75 0.36719 1.1758 0.46484 7.7617 2.5156 15.348 6.0195 22.289 3.3438 7.8008 5.6367 16.062 9.6094 23.602 5.125 9.7227 10.246 19.445 16.062 28.793 4.9219 7.2227 8.7031 15.16 11.203 23.535 2.6055 10.336 4.7695 20.695 0.71484 31.707-2.9766 8.0898-4.0742 16.945-7.1836 25.133-0.64063 1.6836-0.058594 2.0195 1.5312 2.1484 5.3008 0.42969 10.586 1.0078 15.879 1.5195 0.47266 0.046875 0.96875-0.042969 1.4336 0.039062l0.003906 0.003906c1.8438 0.84375 3.9375 0.96484 5.8672 0.33984 0.75-1.8477 0.91406-3.8828 0.46875-5.8281-0.20312-8.332 0.10547-16.668 0.19141-24.992 0.125-11.848 0.26172-23.711 1.1836-35.566 0.49609-6.3516 0.28125-12.785 0.98047-19.168 1.168-10.676 2.0078-21.328 4.0195-31.969 2.5469-13.469 9.918-24.719 14.375-37.238l0.003907 0.003906c1.3477-3.5195 2.0664-7.2461 2.1211-11.012-0.11328-9.4805 1.7266-18.84 1.3242-28.32v-0.003906c-0.027344-3.9258-1.5391-7.6953-4.2383-10.551-0.39453-0.41016-1.2383-0.79688-0.85547-1.375 2.7617-4.1758-0.73047-7.3203-2.1328-10.43h0.003906c-2.5039-5-5.8789-9.5078-9.9688-13.32-8.75-8.6367-20.062-14.207-32.242-15.875-4.332-0.70703-8.7031-1.1445-13.09-1.3047-11.59-0.40234-23.184 0.42969-34.746 0.19531-7.2383-0.14844-14.379 0.88672-21.648 0.49609h-0.003906c-9.6523-0.17578-19.305 0.51562-28.832 2.0625-2.4258 0.30859-4.707-0.47266-7.0938-0.25781-5.1836 0.46484-10.379 1.0078-15.574 1.0781-11.898 0.16016-23.82 0.50781-35.691-0.082031-10.543-0.52344-21.152-0.58984-31.617-1.7852h-0.003906c-9.8828-0.82031-19.609-2.9883-28.91-6.4375-5.7344-2.3203-11.902-3.6719-17.656-6.1016-1.9492-0.82422-3.75-2-5.7148-2.7812-1.0547-0.41797-2.1992-1.918-3.5234 0.027344-0.59375 0.875-1.5391-0.29688-1.9609-0.83203h0.003906c-0.87891-0.84766-1.082-2.1797-0.49219-3.25 0.65625-0.73828 1.7617-0.88281 2.582-0.33203 4.1016 1.5508 7.8477 3.8906 11.879 5.5352v0.003906c10.148 4.1055 20.613 7.3945 31.285 9.8359 9.5195 1.7266 19.148 2.7656 28.816 3.1133 12.473 1.0703 24.965 0.78516 37.441 1.3164 8.8633 0.37891 17.828-0.75391 26.699-0.80469 13.73-0.078126 27.301-2.3633 41.035-2.082h-0.003906c7.625 0.26172 15.254 0.12891 22.863-0.40625 12.207-0.71484 24.445-0.75781 36.656-0.12891 7.7109 0.23828 15.32 1.8242 22.484 4.6875 12.426 4.9961 22.727 14.152 29.148 25.906 2.1172 4.4531 3.8398 9.0781 5.1523 13.828 1.8594 6.0039 2.4102 12.332 1.6094 18.566 0.03125 8.2656-0.49609 16.527-1.5781 24.727-0.16797 0.82812-2.2188 3.3047 1.0273 3.6484h-0.003906c0.28125 0.21484 0.44141 0.55469 0.42188 0.90625-2.0195 7.1445 1.8359 13.469 3.0273 20.117 1.418 7.918 3.0859 15.789 4.2969 23.758 0.78125 3.9414 1.7734 7.8359 2.9805 11.664 0.81641 3.0508 4.0234 5.168 4.9492 8.6758v0.003906c4.1289 12.305 5.3828 25.395 3.6641 38.262-0.42578 2.4531-0.62109 4.9375-0.58203 7.4258 0.15234 2.0938-0.76562 4.1211-2.4375 5.3867-3.875-6.8945-7.3438-14.008-10.395-21.305-4.7188-10.32-5.0859-21.496-6.8047-32.406-0.16016-0.83203 0.007813-1.6953 0.47266-2.4023 3.75-4.1016 2.3594-8.7305 1.7773-13.422-1.0039-8.1445-3.7812-15.871-5.3438-23.879-0.35937-2.0195-1.1953-3.9219-2.4336-5.5547-5.5508 19.297-7.4648 29.328-5.6992 47.672 0.83984 8.7148 0.90234 17.48 1.7539 26.195 0.61328 6.25 0.26953 12.812 0.33203 19.23 0.074218 7.6289 0.85937 15.219 1.3477 22.828 0.38672 6.0547-0.11328 12.16 0.097656 18.23l0.003906-0.003906c-0.019531 4.3438-0.375 8.6758-1.0586 12.961 0.11328 3.5508-2.2461 6.7109-5.6797 7.6094-1.4883 0.43359-2.8086 1.3086-3.793 2.5039-0.98828 1.2148-2.5273 1.8477-4.0859 1.6836-2.1484-0.54297 0.09375-2.4961-0.66797-3.6484-0.92188 0.34375-1.5078 1.2461-1.4492 2.2266-0.44531 4.4219-2.9414 3.4375-5.3516 2.043-3.5117-2.0234-7.6641-2.6406-11.613-1.7227-3.7578 0.80469-7.6758 0.26172-11.074-1.5352-1.6875-0.72656-2.6094-2.5547-2.1914-4.3438 0.80859-6.7461 2.2734-13.398 4.3672-19.863 3.5625-10.141 6.2461-20.57 8.0234-31.176 0.42187-5.3555-0.24609-10.742-1.9648-15.832-3.3438-11.234-8.3125-21.918-14.746-31.719-6.457-10.652-12.242-21.695-17.32-33.07-0.64844-1.5703-0.89063-1.8516-2.6875-1.3828-5.0898 2.1562-10.016 4.6875-14.73 7.5742-10.605 4.4102-20.375 10.609-28.883 18.324-2.3281 2.0234-4.4297 4.2969-6.2578 6.7773-1.0508 1.5-2.3516 3.8398-4.5625 1.0547-0.91016-1.1484-1.4961-0.13672-2.0156 0.33203-1.7383 1.293-2.7656 3.3281-2.7734 5.4922 0.11719 0.34375 0.09375 0.71875-0.074219 1.043-0.16406 0.32031-0.45312 0.5625-0.80078 0.66406-0.66797 0.26953-1.4297 0.074218-1.8867-0.48438-5.6953-5.1289-12.059-9.4609-18.922-12.879-8.0898-4.3711-16.688-7.7422-25.594-10.031-6.6328-2.3008-13.66-1.0469-20.133-3.5742-1.7188-0.67188-2.7656 0.53906-3.1328 2.3555-1.8633 8.4258-2.8164 17.031-2.8359 25.664 0.097656 6.9414-1.1797 13.895-1.3672 20.855-0.85547 7.1875-0.84766 14.453 0.027343 21.641 0.25781 3.1992 0.19531 6.418-0.1875 9.6055-0.011719 11.125 0.26562 22.25-0.13672 33.375h-0.003906c0.19141 1.3047-0.25 2.625-1.1914 3.5508-0.94141 0.92578-2.2656 1.3477-3.5664 1.1367-3.1055 0.050781-6.207 0.33984-9.3125 0.40625v0.003907c-1.9062 0.30469-3.8477-0.32031-5.2188-1.6797s-2.0117-3.293-1.7227-5.2031c-0.058594-9.4648 0.023437-18.938-0.37109-28.391-0.37891-9.0742-2.1719-18.008-3.4102-27-1.1641-8.4492-1.6602-16.988-3.4023-25.367-0.95312-5.2422-2.7539-10.301-5.3242-14.969-2.5273 16.34-3.7148 32.859-3.5586 49.391 0.34766 11.832-0.89844 23.629-1.6953 35.406-0.26953 7.2305-1.1719 14.418-2.7031 21.488-0.59375 2.3828-1.4922 3.6836-4.4805 2.4688-3.1758-1.2734-6.5156-2.0977-9.918-2.4453-1.1211-0.046875-2.168-0.57031-2.8789-1.4375-0.71094-0.86719-1.0195-1.9961-0.84766-3.1055-0.14844-3.5352 0.30859-7.0859 0.37891-10.637 0.13672-6.8867 1.2109-13.719 0.75-20.648-0.53516-8.082-0.51562-16.195-1.0039-24.281l0.007812 0.003907c-0.76172-9.7891-3.1289-19.383-7.0078-28.402-1.9453-3.6641-3.2188-7.6484-3.7578-11.762-0.15625-1.1797-0.71875-2.2734-1.5859-3.0898-8.2969-10.02-16.832-19.859-24.973-29.992v0.003906c-6.8125-8.1016-12.957-16.742-18.375-25.836-5.4141-9.5508-12.672-18.043-18.957-27.117-3.1484-4.1875-6.543-8.1875-10.16-11.98-1.4531-1.5859-3.2148-2.8594-5.1758-3.7383-0.56641-0.10938-1.0938-0.35547-1.543-0.71875-1.4023-4.7656-5.3086-2.918-7.9531-2.5195-5.5273 0.83984-10.406-2.4375-15.695-1.9141l0.003907 0.003907c-3.6133 0.23047-7.2227-0.54688-10.422-2.2539-3.1992-1.7031-5.8555-4.2656-7.6758-7.3984-2.3438-3.5742-2.5859-8.1328-0.63281-11.934 3.2773-8.6523 4.707-17.898 4.2031-27.137-0.37891-5.3711-0.082031-10.766 0.88672-16.062-1.8594 0.40625-3.6211 1.1758-5.1875 2.2617-0.71094 0.4375-1.6758 0.78516-2.043-0.39062-0.29297-0.9375-0.28516-1.9844 1.1328-2.1016h0.003906c1.8086-0.15234 3.3828-1.3086 4.0625-2.9922-1.8789-0.015625-3.3867-0.046875-4.8945-0.035156v-0.003907c-0.86328 0.14844-1.6914-0.39062-1.9102-1.2344-0.19922-1.0195 0.61328-1.3359 1.4727-1.6523v-0.003906c1.9766-0.86719 4.1836-1.0625 6.2812-0.55078 2.7383 1.0312 3.207-0.62109 3.6445-2.1484 1.2227-4.3711 3.6055-8.3281 6.8984-11.457 0.58594-0.41406 0.95312-1.0703 1-1.7852 0.046875-0.71875-0.23047-1.418-0.75781-1.9023-1.6211-2.4219-2.5547-5.2344-2.6953-8.1406s0.51172-5.7969 1.8867-8.3633c3.8242-9.9609 6.8711-19.832 1.8867-30.258l0.003906 0.003906c-0.63672-0.74219-0.56641-1.8555 0.15625-2.5117 0.70312-0.48438 1.6484-0.41797 2.2773 0.16016 1.2383 0.69531 2.5469 1.2656 3.8984 1.7031 4.9961 1.4844 8.0078 6.5664 6.9102 11.66-1.168 4.5586-1.3398 9.3164-0.49609 13.949 0.62891 2.5312 5.8164 7.5156 7.8516 6.5547 2.5938-0.79688 5.375-0.75391 7.9453 0.12109 4.4844 0.52344 9.1172-1.5703 13.469 0.84766 1.0703 0.38672 2.2539-0.16797 2.6445-1.2383 3.8477-5.2422 9.2148-9.4219 9.9219-16.762-0.058594-5.1797 2.1133-10.133 5.9609-13.598 1.957-1.3359 4.1484-2.2891 6.4609-2.8008 0.99609-0.30078 1.8047-0.73828 2.4766 0.32031 0.20313 0.375 0.24219 0.82031 0.11328 1.2305-0.13281 0.40625-0.42188 0.74609-0.80859 0.9375-5.4219 3.6602-5.4648 9.0742-4.9336 14.691-0.042968 0.83594 0.097656 1.668 0.41406 2.4414 3.0664 4.6758 1.2266 9.9727 1.8711 14.938 0.62109 4.8086-3.5781 7.4375-6.7461 10.078-1.5508 1.2969-3.6797 2.0898-5.3828 3.3789-0.57031 0.43359-1.1328 1.0273-1.8008 0.22266-0.35156-0.51172-0.22656-1.2148 0.28125-1.5742 0.91016-1.2617 2.1484-2.2539 3.582-2.8594 4.4297-1.3438 7.3359-5.5781 6.9922-10.191-0.16797-6.25-1.0117-12.457-2.5195-18.523-1.6719 1.3828-2.9258 3.1992-3.6211 5.2539-1.4766 3.8242-4.7539 6.5898-6.3789 10.094-1.7227 3.7148-5.793 5.6211-6.5117 9.9492-0.48438 1.4531 0.0625 3.0508 1.332 3.9023 5.25 4.4258 9.1367 10.242 11.215 16.785 0.11719-0.003906 0.23047-0.035156 0.33203-0.09375 7.6445-9.6992 17.598-8.5039 27.84-5.8906 2.9805 0.76172 5.9297 1.6367 8.9102 2.4023 1.9258 0.49219 2.3633 1.8477 1.0977 3.0156h0.003906c-1.3359 2.3438-3.332 4.2422-5.7422 5.4492-1.4492 0.83203-2.6758 1.9961-3.5742 3.4023-3.6055 3.7852-7.9062 6.8398-12.664 9.0039-2.1328 0.74219-4.3906 1.0586-6.6445 0.9375-0.58594 0.11719-1.1914-0.015625-1.6758-0.36719-0.48438-0.34766-0.80078-0.88281-0.87109-1.4766-0.011719-1.082 1.418-1.1289 2.3516-0.99609 8.8633 1.2578 13.914-4.6758 19.105-10.207v0.003906c0.91406-1.0742 2.0273-1.957 3.2734-2.6055 1.2383-0.55859 2.0156-1.8125 1.9648-3.168-0.066406-1.375-1.543-1.207-2.4922-1.5664h0.003907c-7.4102-2.9648-15.566-3.4961-23.301-1.5234-3.8008 1.7422-6.1055 5.6758-5.7695 9.8477 2.625-1.4219 5.1328-2.8711 7.7344-4.1406v-0.003906c0.94141-0.78906 2.3203-0.78125 3.2539 0.027343 0.62109 1.0898 0.25391 2.4727-0.82031 3.1133-2.0273 1.5703 0.37109 3.6367-0.29688 5.5078v-0.003906c0.10156 1.0586-0.097656 2.125-0.57812 3.0742-0.47656-1.7422-1.6641-3.1992-3.2734-4.0195-1.6094-0.82031-3.4883-0.92188-5.1758-0.27734 0.47266 2.3086 1.2148 4.5547 2.2109 6.6953 1.7305 4.6445 2.7891 9.5156 3.1445 14.465-0.21875 4.1523-1.8008 8.1172-4.4922 11.285-1.7695 2.7891-3.6094 5.5312-5.4141 8.293l-0.003906 0.003906c-0.70703 0.36328-1.3008 0.91406-1.7266 1.5859 0.054688 1.4453-0.30078 2.6016-1.7578 2.0117-1.3125-0.53516-0.65234-1.9062-0.19141-3.0508v-0.003906c1.0078-1.7539 2.3008-3.3281 3.8242-4.6602 4.0156-3.6016 6.5-8.6016 6.9492-13.973-0.20703-5.6719-1.3281-11.273-3.3281-16.586-2.5078-6.2734-4.4609-12.734-7.0156-19v-0.003906c-2.2227-6.0977-6.8672-11.004-12.832-13.559s-12.723-2.5273-18.672 0.070312c-0.55469 0.47266-1.375 0.45313-1.9062-0.050781-0.26172-0.26172-0.36328-0.64453-0.26562-1.0039 0.09375-0.35938 0.37109-0.64062 0.72656-0.74219 1.5625-0.72656 1.0156-1.6406 0.66016-2.8906-0.55469-1.7109-1.7734-3.1328-3.3867-3.9414-4.5469-2.4258-7.1484-7.3828-6.5586-12.5 0.21094-2.4805 0.57031-4.9492 0.89062-7.418v-0.003907c0.45312-3.0859 0.058594-6.2344-1.1328-9.1172-0.60937-1.6562-2.3672-2.5898-4.082-2.168-1.5938 0.45703-0.6875 2.3945-0.39453 3.4258l0.003906 0.003906c1.1797 6.5547 0.52734 13.309-1.8789 19.516-1.8086 4.2578-2.9375 8.7695-3.3438 13.375 0.042969 2.3438 0.87109 4.6055 2.3516 6.4219 0.33594 0.5625 0.91016 0.94141 1.5586 1.0195 0.65234 0.082031 1.3008-0.14062 1.7656-0.60547 2.082-1.5547 4.3789-2.8047 6.8164-3.7031 1.0977-0.40234 2.2578-2.3789 3.2109-0.62891 0.89844 1.6484-1.3008 2.0664-2.3438 2.832v-0.003906c-0.33984 0.10547-0.68359 0.17969-1.0352 0.21875-7.1094 2.543-12.906 7.8203-16.102 14.66-0.4375 0.48438-0.66406 1.1289-0.625 1.7812 0.035156 0.65625 0.33203 1.2695 0.82422 1.7031 3.7617 3.5742 5.7891 8.6055 5.5625 13.789 0.15625 2.4609-0.90625 2.7422-2.7617 3.0195-1.3086-0.070313-2.5391-0.64453-3.4336-1.6016-2.3203-1.2891-4.3984-0.51953-4.3867 2.0391l-0.003906 0.003906c-0.48438 5.3281-0.57813 10.688-0.27734 16.031 0.58203 1.9141 0.48438 3.9727-0.28125 5.8203-0.80078 1.5312-0.28906 2.7695 2.043 2.0195 3.6445-1.0664 7.4258-1.6094 11.223-1.6094 4.0703-0.078125 7.9883 1.5312 10.828 4.4453 2.8398 2.918 4.3438 6.875 4.1602 10.941-0.39453 4.3906-1.8359 8.6211-4.1992 12.34-0.45703 0.75391-1.9492 1.25-1.2891 2.2305 0.82422 1.2227 2.1445 0.50391 3.2266 0.003906v-0.003906c4.6953-1.6758 9.0977-4.0742 13.059-7.1055 0.59375-0.93359 1.5391-1.5898 2.6211-1.8164 1.0859-0.22656 2.2148-0.003906 3.1328 0.61719-5.7812 3.9102-11.777 7.4922-17.961 10.734 2.4102-0.082032 4.8203 0.019531 7.2148 0.30078 9.4688 1.5977 17.684 7.4453 22.293 15.867 0.26562 0.36328 0.38281 0.80859 0.32812 1.2539-0.375 0.50391-1.0859 0.625-1.6055 0.26953-1.2539-0.89062-2.3359-2.0078-3.1875-3.2891-1.7812-3.6055-5.0195-6.2812-8.9023-7.3438 11.645 11.246 19.293 25.57 29.301 38.07 1.0898-0.86328-0.11328-2.9336 1.4453-2.6172 2.3359 0.47266 1.1562-1.0664 1.0195-1.5586l0.003906 0.003907c-2.0703-10.242-2.7773-20.715-2.1055-31.141-0.050781-5.543-0.875-11.051-2.4414-16.367-1.7539-6.0898-3.6328-12.148-5.457-18.223zm103.02 107.77c1.1641 1.2383 2.9844 1.6172 4.5508 0.94141 3.6914-0.94141 7.5703-0.83203 11.203 0.31641 1.25 0.32422 2.5586 0.375 3.832 0.14453 8.25-0.84766 16.582-0.035157 24.512 2.3906 10.199 1.918 20.035 5.4336 29.141 10.414 5.2383 3.1719 10.715 6.0273 15.742 9.5039 2.4492 1.6953 3.4023 1.6719 4.9375-0.69922 0.78516-2.3477 3.082-3.8477 5.5508-3.625 0.76172 0.44922 1.6797 0.54297 2.5195 0.26562 0.83594-0.28125 1.5156-0.90625 1.8594-1.7227 1.3906-1.6172 2.9883-3.0469 4.7461-4.2539 6.5469-5.8281 13.727-10.895 21.41-15.109 7.7891-3.3984 15.27-7.4727 22.348-12.184 0.61719-0.26172 1.1016-0.76953 1.332-1.4023 0.23047-0.63281 0.1875-1.332-0.11719-1.9336-1.2852-4.7656-4.6836-2.8672-7.3125-2.5195-9.5156 1.2461-18.953 3.1641-28.496 4.0703-9.6875 0.92188-19.172 3.0312-28.793 4.3086-11.008 1.4609-22.008 1.8594-33.035 2.375v0.003906c-6.7422-0.058593-13.48 0.25-20.188 0.91797-5.793 0.90625-11.648 1.3086-17.434 2.4062h-0.003906c-6.2188 1.3672-12.34 3.1641-18.305 5.3906zm0.23828 88.816c0.097656 2.7305 0.26172 5.4648 0.27344 8.1992 0.007812 1.7852 0.61328 2.7969 2.5273 2.4492l-0.003906-0.003907c2.9531-0.21875 5.9141 0.17578 8.707 1.1562 5.1914 1.1758 5.5703 1.2031 5.75-3.5938 0.30078-8.0781 0.46094-16.199-0.015625-24.262-0.35547-6.0273-0.40625-12.066-0.15625-18.102 0.28125-6.8398 1.3008-13.645 1.9141-20.477 0.75-8.3711-0.64453-16.879 1.625-25.168l-0.003906 0.003906c0.64062-1.543 0.83203-3.2344 0.55078-4.8828-0.80469-2.1016-2.8477 0.050781-4.3086-0.41016-0.46875-0.046876-0.93359-0.13672-1.3906-0.26563-5.9297-3.2461-12.133 0.44922-18.441-0.86328-6.1641-1.2812-11.012 7.1953-9.1484 13.594v0.003907c2.8867 8.2461 5 16.738 6.3203 25.375 0.58984 5.8672 1.2539 11.754 2.1172 17.578v-0.003906c1.8242 9.8086 3.0547 19.715 3.6836 29.668zm223.46-116.25-0.003907-0.003906c-4.5234 7.3086-7.3438 15.543-8.2422 24.094-2.457 13.637-3.8477 27.449-4.1602 41.305-0.59375 14.148-1.0469 28.301-0.83594 42.453 0.10938 7.3125-0.75 14.602-0.10938 21.934-0.28125 3.2227-0.27734 6.4609 0.011719 9.6836 2.8281-0.44531 5.6094-1.1406 8.3125-2.082 0.75781-0.36719 1.7031-0.77344 2.0898 0.34375 0.16016 0.46484 0.10156 0.98047-0.16406 1.3945s-0.70703 0.68359-1.1953 0.72656c-1.8359 0.45312-3.6914 0.81641-5.5625 1.0859-0.84375 0.11328-2.2656 0.26172-1.9297 0.91406 1.0156 1.957-1.0742 3.8789 0.21484 5.7031 1.668-1.543 1.3281-4.6562 4.3359-5.332h0.003906c-0.066406 0.84766 0.054688 1.6953 0.36328 2.4883 2.5391 3.1055 0.33203 3.9141-2.1055 4.7617h-0.003906c-1.1797 0.64062-1.9062 1.8867-1.8867 3.2305 1.3984-0.70312 2.7227-1.543 3.957-2.5078 3.5859-0.68359 6-4.0742 5.4688-7.6875 0.45703-8.7539 0.67969-17.535 0.52344-26.297-0.13281-7.4805-1.543-14.973-1.2344-22.414 0.31641-7.6641-0.48047-15.254-0.45312-22.887 0.035156-9.5938-1.2383-19.188-1.6875-28.793-1.2188-10.883-0.24219-21.902 2.8711-32.402 1.1797-3.0977 1.6641-6.4102 1.418-9.7148zm-275.09 47.559c0.41797-3.3633 0.53906-6.7539 0.36719-10.141-0.35547-8.6992 2.5938-16.988 2.2695-25.641-0.16797-4.4805-0.93359-5.875-5.5117-6.3633v0.003906c-3.668-0.36719-6.7344-2.9414-7.7383-6.4883-1.2422-3.5664-1.7695-7.375-2.9648-10.961-0.30078-3.6914-2.1992-7.0664-5.1953-9.2383-1.8203-0.90234-3.0938-1.0469-3.6367 1.4258h-0.003906c-0.4375 1.957-1.0391 3.875-1.8047 5.7305-2.3672 5.8086-3.3828 12.504-10.52 15.121-2.1562 0.78906-0.70312 2.3633 0.14453 3.4336 4.4023 5.5469 8.5 11.312 12.996 16.801 6.9727 8.5195 14.598 16.484 21.598 26.316zm-120.54-114.87c4.3945 8.4727 9.332 10.781 18.914 9.7734 3.8711-0.066406 7.3281-2.4414 8.7812-6.0312 0.94922-2.2891 1.6289-4.6797 2.0273-7.1289 0.53125-3.832-0.64844-7.7031-3.2344-10.582-2.5859-2.8789-6.3086-4.4727-10.176-4.3555-4.0859 0.66016-8.1367 1.5273-12.137 2.5938-1.4297 0.66016-2.4219 2.0039-2.6328 3.5664-0.16797 0.25391-0.19922 0.57031-0.085937 0.85156s0.35938 0.49219 0.65234 0.55859c2.3672 1.1016 4.3984 2.8164 5.8789 4.9648 2.1016 2.4336 4.168 1.7383 5.0781-1.25 0.35547-1.1602 0.85547-2.8828 2.418-2.543 3.9219 0.23438 7.5469 2.1797 9.9062 5.3203 0.73828 0.96484 1 2.2109 0.71484 3.3945-0.28125 1.1836-1.0781 2.1758-2.1719 2.707-2.7031 0.90625-5.6523 0.72266-8.2227-0.50781-2.3008-1.9414-5.2109-3.0117-8.2227-3.0273-2.4531 0.60547-4.9766 1.1289-7.4883 1.6953zm413.37 103.48c-3.7695-17.758-6.5938-35.395-10.848-52.664-2.6328 3.8984-3.0078 8.8984-0.99219 13.148 3.9648 11.676 6.668 23.742 8.0664 35.988 0 0.98047 0.40234 1.918 1.1211 2.5859 0.71484 0.66797 1.6758 1.0117 2.6523 0.94141zm0.30859 34.871 0.33203-0.10547c-0.27734-7.668-0.58203-15.332-0.79688-23-0.027343-0.94141-0.75781-2.4531 0.62109-2.7617 1.5859-0.35547 1.9141 1.3398 2.0391 2.3906 0.52344 4.3672 1.875 8.5898 2.1328 13.012v0.003907c0.32422 2.7695 0.80078 5.5156 1.4219 8.2344 0.79297-1.2461 1.0781-2.7461 0.79688-4.1914-0.25391-3.2578-0.24219-6.5273 0.039062-9.7812 0.34375-3.8438-0.41406-7.707-2.1797-11.137-1.6055-1.9727-3.7461-3.4336-6.168-4.2109-1.1953-0.76953-1.0039 1.0781-1.1094 1.8906h0.003907c-0.37109 5.5273-0.13281 11.078 0.70703 16.555 0.38281 4.3945 1.418 8.7383 2.1602 13.102zm-41.141 77.043c2.4414-0.61328 2.6406-5.6875 6.6016-3.1406 0.17969-2.2031-1.4336-4.1445-3.6289-4.3711-4.707-0.60156-9.4219-1.1602-14.145-1.625-0.87891-0.085937-2.1836-0.625-2.4648 1.1133h-0.003906c-0.99609 3.1211-1.1914 6.4375-0.56641 9.6523 1.5742-2.2422 2.8555-4.1875 4.2773-6.0234 0.44922-0.57812 0.86328-1.7969 1.8047-1.3086 0.55859 0.58984 0.92969 1.3281 1.0703 2.1289-0.30078 1.4531-0.23047 2.9609 0.19922 4.3828 1.7188-1.832 1.9688-5.1602 4.6289-5.1055 1.918 0.039062 1.5234 2.8008 2.2266 4.2969zm49.945-82.91c-3.2539 6.9297 1.0547 13.508-0.90234 19.594l-1.082-0.039063c-1.6641-9.375-3.3281-18.75-4.9922-28.121-0.79297 14.145 2.1797 29.113 6.3477 33.797 2.793-8.0625 0.51562-16.152 0.62891-25.23zm-237.75 72.859c-0.65625 1.793-1.1367 3.6445-1.4297 5.5312-0.050781 0.92969-1.9297 2.9062 0.59375 2.9688 1.9648 0.67188 4.1211-0.22656 5.0234-2.0977 0.65234-3.6133 0.80859-7.3008 0.46094-10.957 0.007813-0.53906 0.17188-1.5352-0.92578-1.6094-4.2031-0.29297-8.0391-2.9258-12.527-1.9688 1.0508 2.25 1.7539 4.6484 2.0859 7.1094 1.207-0.95703 1.0586-3.1523 2.875-3 1.7422 0.14844 1.1289 2.1055 1.6719 3.2891 0.39062-1.207 0.69531-2.2109 1.043-3.2031v0.003906c0.25-0.69141 0.91406-1.1406 1.6484-1.1172 0.42578-0.042968 0.85156 0.089844 1.1758 0.37109 0.32422 0.27734 0.51953 0.67969 0.53906 1.1055 0.25 3.0469 0.28125 6.1094 0.39062 9.168l-0.9375 0.082031zm-43.242 3.9492v-0.003906c-0.99609 1.7344-1.6016 3.6602-1.7734 5.6523-0.16016 0.79297-0.73438 1.4375-1.5 1.6914-1.3555 0.074219-0.81641-1.1641-0.94922-1.8203-0.42578-2.0781-0.71875-4.1836-1.0586-6.2773-0.71094 1.3867-0.63672 2.9883-1.3438 4.0859-2.0234 3.1562 0.007813 4.3359 2.3555 5.1797 2.3438 0.75781 4.7305 1.3711 7.1484 1.8359 0.77734 0.17578 1.7656 0.35547 1.7305-1.0117 0.44141-3.4023 0.47266-6.8477 0.089844-10.254-0.89844 1.8867-1.4727 3.918-1.6914 6 0.050781 0.875-0.61328 1.6289-1.4883 1.6875-0.42187-0.039063-0.80859-0.25391-1.0625-0.59375-0.25391-0.33984-0.35547-0.76953-0.27734-1.1836-0.050781-1.4219-0.10156-2.8398-0.17969-4.9922zm-87.031-294.63c-1.4258-1.4297-3.3984-2.1758-5.4141-2.0469-3.707 0.67969-7.5195 0.54297-11.172-0.39844-0.41797-0.25781-0.92578-0.31641-1.3867-0.16016-0.46484 0.15234-0.83203 0.50781-1.0117 0.96094-0.097656 0.53906 0.082032 1.0938 0.48047 1.4727 0.39453 0.37891 0.95703 0.53125 1.4922 0.40234 1.1719 0.03125 2.3477-0.015625 3.5156-0.14062 2.2266-0.46094 4.543-0.19531 6.6055 0.76562 2.2344 1.25 5.0273 0.90625 6.8906-0.85547zm314.87 300.36c-1.4336 0.80469-2.3281 2.3164-2.3438 3.9609 0.48438 1.8594 2.6328 1.1484 4.0547 1.1211h0.003907c1.7852-0.17188 3.5625 0.41406 4.8945 1.6172 0.48047 0.44922 1.5117 1.8516 2.2031 0.24219 0.45703-1.0625 1.6172-2.8906 0.11719-3.4453-1.3281-0.93359-2.0781-2.4805-1.9922-4.1016-4.8555 5.8633-4.8555 5.8633-6.9375 0.60547zm-225.66-6.9062c0.67188-2.4141 1.6836-4.7227 3.0078-6.8516-2.0078-0.85937-4.25-1.0039-6.3516-0.41016-0.64844 0.14062-2.0625 0.125-1.7109 1.2422 0.29297 0.92578 0.25781 2.832 1.2383 2.6719 2.8047-0.46094 2.9531 1.5664 3.8164 3.3477zm219.09 6.1016c-1.2852 1.6641-2.0938 2.8242-3.0117 3.8867-2.1602 2.5-3.2969 1.9453-4.3867-2.2617-1.0469 1.2773-3.1562 2.3906-0.47656 3.8242l0.003906 0.003906c2.0625 1.2852 4.6172 1.5 6.8633 0.57422 1.3867-1.6875 1.7695-3.9805 1.0078-6.0273zm-187.01-10.574c-1.4219 2.3125-2.2656 4.9336-2.4609 7.6367 0.027344 1.125 0.87109 2.0547 1.9883 2.1914 0.75391 0.23828 0.82812-0.51562 0.79688-1.1602-0.11719-2.6133-0.19922-5.2305-0.32422-8.668zm0.78125 10.527c4.0742-0.30469 4.4961-1.4219 3.1211-6.5234-0.19141 2.4883-1.3047 4.8164-3.1211 6.5273z"/>
  <path d="m201.82 309.87c-6 0.12891-11.867-1.7773-16.645-5.4023-3.2031-2.2578-6.3516-4.6016-9.5742-6.832v-0.003906c-1.6289-0.87109-2.5156-2.6914-2.1953-4.5117 0.64453-1.3281 2.0859-2.0703 3.5391-1.8242 6.7148-1.2734 13.164-3.6602 19.086-7.0664 3.625-1.8164 7.082 0.058594 11.023 0.17188-0.82812 1.3984-1.4844 2.5938-2.5625 2.1953-5.4297-2.0078-9.918 1.1641-14.688 2.5508-3.7891 1.1016-6.9805 4.0312-11.293 3.6836h-0.003906c-0.86719-0.039063-1.6523 0.50781-1.9219 1.332-0.046875 0.86719 0.53516 1.6484 1.3828 1.8438 6.3984 3.9219 11.867 9.5938 19.859 10.543 1.6211 0.70312 3.0039 1.8555 3.9922 3.3203z"/>
  <path d="m244.89 307.38c0.47656-3.1406 0.80078-6.3164 1.5078-9.4062h-0.003907c-0.078125-1.3828 0.97266-2.5703 2.3555-2.6602 1.207 0.12891 2.1992 1.0195 2.4531 2.2109 1.3438 2.8906 3.082 5.5859 5.1641 8.0039 0.89453 0.78906 1.2227 2.0391 0.83984 3.168-0.58594 1.1641-1.6523 0.25-2.4727 0.37891-1.8594 0.28125-3.6797 0.76953-5.4297 1.4531-3.2461 1.293-4.5156 0.20312-4.4141-3.1484z"/>
  <path d="m229.57 298.14c0.1875-5.0312 1.1406-10.008 2.8281-14.75 0.55078-3.3906 2.0898-6.5391 4.4297-9.0547 0.37109-0.33594 0.66406-1.0703 1.3867-0.44531l0.003906 0.003906c0.32031 0.16797 0.52344 0.5 0.52734 0.86328 0 0.36328-0.19531 0.69922-0.51172 0.875-2.793 3.2461-4.6406 7.1992-5.3398 11.426-1.125 3.6875-2.2148 7.3867-3.3242 11.082z"/>
 </g>
</svg>