<?xml version="1.0" encoding="UTF-8"?>
<!-- The Best Svg Icon site in the world: iconSvg.co, Visit us! https://iconsvg.co -->
<svg fill="#000000" width="800px" height="800px" version="1.1" viewBox="144 144 512 512" xmlns="http://www.w3.org/2000/svg">
 <path d="m548.88 432.01c11.504 0 28.375-2.1641 39.438-13.227 17.781-17.781 12.566-50.566 12.336-51.957-0.35547-2.125-2.0156-3.7891-4.1445-4.1445-1.3984-0.23438-34.18-5.4531-51.957 12.336-1.6211 1.625-2.9961 3.4023-4.2539 5.2422v-12.512c6.5117-5.1953 25.91-22.457 25.91-43.848 0-25.145-26.875-44.645-28.02-45.461-1.75-1.25-4.0977-1.25-5.8594 0-1.1406 0.81641-28.008 20.316-28.008 45.461 0 21.391 19.395 38.652 25.902 43.848v31.965c-1.293-1.9062-2.707-3.75-4.3828-5.4258-17.781-17.785-50.562-12.574-51.957-12.34-2.125 0.35547-3.7891 2.0156-4.1445 4.1445-0.23047 1.3867-5.4453 34.176 12.34 51.957 11.059 11.066 27.922 13.227 39.43 13.227 3.5117 0 6.5195-0.19922 8.7148-0.41406v29.641c-1.293-1.9062-2.707-3.75-4.3828-5.4258-17.781-17.781-50.562-12.57-51.957-12.336-2.125 0.35547-3.7891 2.0156-4.1445 4.1445-0.23047 1.3867-5.4453 34.176 12.34 51.957 11.059 11.066 27.922 13.227 39.43 13.227 3.5117 0 6.5195-0.19922 8.7148-0.41406v34.793c-35.094-7.4648-78.488-11.824-125.12-12.117l-0.003906-60.5c2.0078 0.17969 4.625 0.34375 7.6719 0.34375 10.793 0 26.648-2.0312 37.047-12.438 16.719-16.719 11.828-47.484 11.609-48.785-0.35547-2.125-2.0156-3.7891-4.1445-4.1445-1.3047-0.22266-32.07-5.1172-48.785 11.605-1.2656 1.2656-2.3711 2.6328-3.3984 4.0391v-26.027c2.0078 0.17969 4.6211 0.34375 7.6641 0.34375 10.801 0 26.648-2.0352 37.051-12.441 16.719-16.715 11.828-47.484 11.609-48.785-0.35547-2.125-2.0156-3.7891-4.1445-4.1445-1.3047-0.22266-32.074-5.1133-48.785 11.609-1.2656 1.2656-2.3711 2.6328-3.3984 4.0391v-26.031c2.0078 0.17969 4.625 0.34375 7.6719 0.34375 10.793 0 26.648-2.0312 37.047-12.438 16.719-16.719 11.828-47.488 11.609-48.793-0.35547-2.125-2.0156-3.7891-4.1445-4.1445-1.3047-0.21484-32.074-5.1055-48.785 11.609-1.2656 1.2656-2.3711 2.6328-3.3984 4.0391v-10.438c6.2383-4.9961 24.184-21.105 24.184-41.082 0-23.645-25.215-41.938-26.293-42.707-1.75-1.25-4.1016-1.25-5.8555 0-1.0781 0.76562-26.293 19.059-26.293 42.707 0 19.977 17.945 36.082 24.184 41.082v28.59c-1.0625-1.4688-2.1992-2.8984-3.5195-4.2148-16.723-16.723-47.484-11.828-48.785-11.605-2.125 0.35547-3.7891 2.0156-4.1445 4.1445-0.21484 1.3047-5.1055 32.07 11.609 48.785 10.406 10.41 26.254 12.441 37.051 12.441 3.1016 0 5.7656-0.16797 7.7852-0.35547v26.211c-1.0625-1.4688-2.1992-2.8984-3.5195-4.2148-16.723-16.723-47.484-11.828-48.785-11.605-2.125 0.35547-3.7891 2.0156-4.1445 4.1445-0.21484 1.3047-5.1055 32.07 11.609 48.785 10.406 10.406 26.254 12.438 37.047 12.438 3.1055 0 5.7656-0.16797 7.7891-0.35547v117.94c-46.73 0.30078-90.152 4.6758-125.24 12.168v-34.848c2.1953 0.21094 5.2031 0.41406 8.7148 0.41406 11.508 0 28.367-2.1641 39.43-13.227 17.785-17.781 12.57-50.566 12.34-51.957-0.35547-2.125-2.0156-3.7891-4.1445-4.1445-1.3984-0.23438-34.18-5.4531-51.957 12.336-1.6758 1.6797-3.0898 3.5195-4.3828 5.4258v-29.641c2.1953 0.21094 5.2031 0.41406 8.7148 0.41406 11.508 0 28.367-2.1641 39.43-13.227 17.785-17.781 12.57-50.566 12.34-51.957-0.35547-2.125-2.0156-3.7891-4.1445-4.1445-1.3906-0.24219-34.184-5.4414-51.957 12.34-1.6758 1.6758-3.0898 3.5195-4.3828 5.4258v-31.965c6.5078-5.1953 25.902-22.457 25.902-43.848 0-25.145-26.867-44.645-28.008-45.461-1.7617-1.25-4.1094-1.25-5.8594 0-1.1445 0.81641-28.02 20.316-28.02 45.461 0 21.391 19.398 38.652 25.91 43.848v12.512c-1.2617-1.8398-2.6328-3.6172-4.2539-5.2422-17.781-17.785-50.562-12.57-51.957-12.336-2.125 0.35547-3.7891 2.0156-4.1445 4.1445-0.23047 1.3867-5.4453 34.176 12.336 51.957 11.066 11.059 27.938 13.227 39.438 13.227 3.4414 0 6.3984-0.19531 8.582-0.40234v29.441c-1.2617-1.8359-2.6328-3.6172-4.2539-5.2383-17.781-17.781-50.562-12.57-51.957-12.336-2.125 0.35547-3.7891 2.0156-4.1445 4.1445-0.23047 1.3867-5.4453 34.176 12.336 51.957 11.059 11.059 27.926 13.219 39.43 13.219 3.4453 0 6.4062-0.19531 8.5898-0.40234v56.402c-25.758 6.2422-46.324 14.242-59.164 23.617-2.25 1.6445-2.7344 4.793-1.0977 7.0391 1 1.3711 2.5312 2.0898 4.0859 2.0898 1.0273 0 2.0703-0.31641 2.9648-0.96875 29.648-21.652 107.47-36.203 193.66-36.203 85.828 0 163.55 14.469 193.39 36.008 2.2539 1.6289 5.4062 1.1172 7.0312-1.1367 1.6289-2.2539 1.1211-5.4023-1.1367-7.0312-12.898-9.3086-33.453-17.254-59.137-23.457v-56.34c2.1836 0.20703 5.1406 0.40234 8.5898 0.40234 11.504 0 28.367-2.1602 39.43-13.219 17.781-17.781 12.566-50.566 12.336-51.957-0.35547-2.125-2.0156-3.7891-4.1445-4.1445-1.3984-0.24219-34.18-5.4531-51.957 12.336-1.6211 1.6211-2.9961 3.4023-4.2539 5.2383v-29.441c2.1836 0.20312 5.1367 0.39844 8.582 0.39844zm2.7969-49.863c11.07-11.066 31.188-10.652 39.465-9.9414 0.72656 8.2812 1.1562 28.355-9.9492 39.457-11.059 11.059-31.168 10.641-39.465 9.9492-0.70703-8.2969-1.1094-28.402 9.9492-39.465zm-23.016 58.73c-8.2695 0.73828-28.355 1.1562-39.457-9.9531-11.066-11.066-10.656-31.18-9.9492-39.465 8.2773-0.72266 28.348-1.1562 39.457 9.9531 11.066 11.066 10.66 31.18 9.9492 39.465zm0 80.789c-8.2695 0.73828-28.355 1.1562-39.457-9.9531-11.066-11.066-10.656-31.18-9.9492-39.465 8.2969-0.71875 28.355-1.1523 39.457 9.9492 11.066 11.066 10.66 31.184 9.9492 39.469zm-113.04-74.129c10.102-10.102 28.418-9.8594 36.281-9.207 0.64453 7.8516 0.89453 26.176-9.2109 36.281-10.102 10.102-28.406 9.8633-36.281 9.207-0.64453-7.8516-0.89453-26.176 9.2109-36.281zm0-75.402c10.109-10.105 28.441-9.8594 36.281-9.2109 0.64453 7.8516 0.89453 26.176-9.2109 36.281-10.105 10.105-28.434 9.8711-36.281 9.2109-0.64453-7.8555-0.89453-26.176 9.2109-36.281zm0-75.41c10.109-10.105 28.441-9.8633 36.281-9.2109 0.64453 7.8516 0.89453 26.18-9.2109 36.285-10.102 10.102-28.406 9.8594-36.281 9.207-0.64453-7.8555-0.89453-26.176 9.2109-36.281zm-22.035 54.262c-7.8477 0.66016-26.18 0.89453-36.281-9.2109-10.105-10.105-9.8555-28.43-9.2109-36.281 7.8672-0.66016 26.18-0.89453 36.281 9.207 10.109 10.105 9.8555 28.434 9.2109 36.285zm0 75.406c-7.8672 0.66016-26.18 0.89453-36.281-9.207-10.105-10.105-9.8555-28.43-9.2109-36.281 7.8672-0.65625 26.18-0.89453 36.281 9.207 10.109 10.105 9.8555 28.43 9.2109 36.281zm-112.3 55.805c11.07-11.066 31.18-10.656 39.465-9.9414 0.72656 8.2812 1.1562 28.355-9.9531 39.457-11.059 11.07-31.184 10.672-39.465 9.9492-0.73047-8.2812-1.1562-28.355 9.9531-39.465zm0-80.785c11.059-11.066 31.188-10.656 39.465-9.9492 0.72656 8.2812 1.1562 28.355-9.9531 39.457-11.059 11.07-31.184 10.668-39.465 9.9492-0.73047-8.2773-1.1562-28.352 9.9531-39.457zm-23.016 20.195c-8.3086 0.69531-28.398 1.1133-39.465-9.9492-11.066-11.066-10.652-31.18-9.9414-39.465 8.3008-0.72266 28.355-1.1523 39.457 9.9492 11.059 11.066 10.656 31.172 9.9492 39.465zm0 80.789c-8.2891 0.71875-28.402 1.1211-39.465-9.9414-11.066-11.066-10.652-31.18-9.9414-39.465 8.2812-0.73828 28.348-1.1602 39.457 9.9492 11.059 11.059 10.656 31.168 9.9492 39.457zm-14.402-178.49c0-15.641 14.504-29.574 20.871-34.934 6.3672 5.3594 20.867 19.293 20.867 34.934s-14.5 29.574-20.867 34.938c-6.3672-5.3633-20.871-19.297-20.871-34.938zm137.04-81.781c0-14.297 13.145-27.078 19.148-32.172 6.0078 5.0781 19.141 17.82 19.141 32.172 0 14.297-13.145 27.078-19.148 32.172-6.0078-5.0781-19.141-17.82-19.141-32.172zm170.76 220.81c11.07-11.066 31.188-10.656 39.465-9.9414 0.72656 8.2812 1.1562 28.355-9.9492 39.457-11.066 11.066-31.18 10.66-39.469 9.9414-0.72266-8.2773-1.1523-28.352 9.9531-39.457zm-37.281-139.03c0-15.641 14.5-29.574 20.867-34.934 6.3672 5.3594 20.871 19.293 20.871 34.934 0 15.645-14.516 29.586-20.875 34.941-6.3711-5.3438-20.863-19.238-20.863-34.941z"/>
</svg>