<?xml version="1.0" encoding="UTF-8"?>
<!-- The Best Svg Icon site in the world: iconSvg.co, Visit us! https://iconsvg.co -->
<svg fill="#000000" width="800px" height="800px" version="1.1" viewBox="144 144 512 512" xmlns="http://www.w3.org/2000/svg">
 <g>
  <path d="m195.32 313.41c6.9805 0.015625 13.441 3.6914 17.02 9.6836l53.953 90.781 0.003906-0.003906c-24.891 19.336-39.465 49.078-39.488 80.594v133.83c0 2.0859 0.83203 4.0898 2.3086 5.5664 1.4766 1.4727 3.4766 2.3047 5.5664 2.3047 20.168-0.023437 39.883-5.9961 56.676-17.172 16.789-11.18 29.906-27.062 37.707-45.664 8.2891 23.797 22.902 44.887 42.266 61.008 1.418 1.1836 3.2031 1.8281 5.0469 1.8281h47.23c1.8438 0 3.6328-0.64453 5.0469-1.8281 3.7383-3.1406 7.3086-6.4688 10.699-9.9805 1.0703-1.0938 2.0312-2.2812 3.0625-3.4102 2.2109-2.4336 4.3828-4.8789 6.4141-7.4453 1.1797-1.5039 2.2578-3.0625 3.3867-4.6055 1.6445-2.2812 3.2578-4.5742 4.7617-6.9414 1.1953-1.8828 2.3125-3.8086 3.418-5.7461 1.1641-2.0625 2.2891-4.1328 3.3516-6.25 1.1797-2.3633 2.2812-4.7227 3.3281-7.0859 0.73047-1.6914 1.4102-3.4102 2.0781-5.1406 1.1016-2.8594 2.1562-5.7227 3.0703-8.6602 0.37891-1.2031 0.68359-2.4336 1.0312-3.6523 0.96875-3.4102 1.8828-6.832 2.582-10.32 0.14062-0.66797 0.21094-1.3711 0.33984-2.0391 0.73047-3.9375 1.4023-7.8711 1.793-11.863l0.003907-0.28516c0.039062-0.37891 0-0.78906 0.0625-1.1484 18.52 30.488 51.594 49.125 87.27 49.168 2.0859 0 4.0898-0.82812 5.5664-2.3047 1.4766-1.4766 2.3047-3.4766 2.3047-5.5664v-206.56c0.003906-2.0078-0.19922-4.0156-0.60547-5.9805-1.3867-6.668-5.0234-12.656-10.305-16.957-5.2812-4.3008-11.879-6.6523-18.688-6.6602h-64.867v-74.887c0.019531-23.406-7.332-46.223-21.02-65.207-13.684-18.988-33.004-33.18-55.215-40.562-1.6133-0.53516-3.3594-0.53516-4.9727 0-22.211 7.3828-41.531 21.574-55.215 40.562-13.688 18.984-21.039 41.801-21.02 65.207v38.445c-9.4414-6.9883-20.875-10.77-32.621-10.789h-93.332c-4.3477 0-7.8711 3.5234-7.8711 7.8711s3.5234 7.8711 7.8711 7.8711zm125.95 220.42c-0.023438 21.594-8.1094 42.402-22.668 58.355-14.559 15.949-34.547 25.891-56.051 27.883v-125.6c0-17.984 5.6367-35.52 16.121-50.137-0.23828 2.1992-0.36719 4.4102-0.37891 6.6211v130.11h15.742l0.003906-130.11c0.015625-11.199 3.8516-22.059 10.871-30.785 4.0469-2.4336 8.293-4.5234 12.688-6.25-5.0664 7.8789-7.7812 17.047-7.8164 26.418v109.24h15.742l0.003906-109.24c-0.003906-11.57 5.9414-22.328 15.742-28.473zm15.895-267.65h31.34v31.488h-31.488v-27.656c0-1.293 0.09375-2.5586 0.14844-3.832zm31.34-47.234v31.488h-29.418c2.3281-11.172 6.6328-21.836 12.719-31.488zm-4.3203-15.742c1.4023-1.4336 2.832-2.8516 4.3203-4.1953v4.1953zm83.996 15.742h-0.003906c6.0859 9.6523 10.395 20.316 12.723 31.488h-29.418v-31.488zm-16.699-15.742v-4.1953c1.4883 1.3477 2.9219 2.7617 4.3203 4.1953zm6.0781 251.91 25.41-0.003907v32.348zm-100.54-94.469h31.488v31.488h-31.488zm78.719-47.23v31.488h-31.488v-31.488zm-31.488-15.742v-31.488h31.488v31.488zm31.488 62.977v31.488l-31.488-0.003906v-31.488zm47.23 78.719h-31.484v-31.488h31.488zm0-47.23-31.484-0.003906v-31.488h31.488zm-47.23 15.742v19.461l-15.297-19.461zm15.742-62.977 0.003906-31.488h31.488v31.488zm31.488-74.887 0.003906 27.656h-31.488v-31.488h31.34c0.050781 1.2734 0.14844 2.5391 0.14844 3.832zm-47.23-19.578h-31.488v-31.488h31.488zm-47.23 62.977v31.488h-31.488v-31.488zm10.77 307.01c-26.891-23.406-42.305-57.32-42.258-92.969v-95.957c0-6.2656 2.4883-12.273 6.9141-16.699 4.4297-4.4297 10.438-6.918 16.699-6.918h8.3164c7.25-0.019532 14.102 3.3086 18.566 9.0195l75.391 95.953-0.64453 27.277c-0.29297 2.8164-0.78906 5.582-1.2578 8.3438-0.20312 1.2188-0.34766 2.4648-0.58984 3.6758-0.48047 2.3633-1.125 4.668-1.7305 6.9922-0.45703 1.7227-0.88281 3.457-1.418 5.1562-0.62109 2.0078-1.3555 3.9375-2.0781 5.9336-0.72266 2-1.4805 3.9375-2.3047 5.8945-0.73828 1.7148-1.5742 3.4102-2.3633 5.0938-1.0508 2.125-2.1406 4.2266-3.2734 6.2969-0.78906 1.4805-1.6523 2.9531-2.543 4.3945-1.3477 2.2031-2.8008 4.3438-4.2891 6.4648-0.88281 1.2422-1.7305 2.5117-2.6602 3.7305-1.7383 2.2891-3.6211 4.4883-5.5117 6.6602-0.84375 0.96094-1.6211 1.9531-2.4883 2.8828l-0.003906-0.003906c-2.8633 3.0781-5.8789 6.0078-9.0352 8.7773zm177.91-248.71c0.17969 0.91797 0.26562 1.8516 0.25 2.7852v198.34c-21.504-1.9883-41.488-11.934-56.051-27.883-14.559-15.949-22.641-36.758-22.668-58.355v-29.332l15.742-26.48v71.559h15.742l0.003906-98.039 11.699-19.68c2.6133 6.0312 3.9883 12.523 4.043 19.098v130.11h15.742l0.003906-130.11c-0.03125-12.418-3.6133-24.57-10.328-35.016l2.3125-3.9375c3.5859-3.6602 8.8984-5.0469 13.812-3.6016 4.918 1.4453 8.6328 5.4883 9.6641 10.508zm-39.344-11.07-39.125 65.82v-65.82zm-117.84-180.59c5.4648 2.0078 10.734 4.5117 15.742 7.4766v15.676h-31.488v-15.676c5.0117-2.9648 10.281-5.4688 15.746-7.4766zm-167.68 133.36c8.3242 0 16.035 4.3789 20.293 11.531l30.254 55.223 13.809-7.5586-30.355-55.418c-0.76953-1.3047-1.6055-2.5625-2.5117-3.7773 8.3516 0 16.086 4.4102 20.332 11.602l15.16 27.016 13.73-7.707-15.207-27.133c-0.62891-1.0703-1.3633-2.0625-2.0781-3.0625 10.227 1.8516 19.305 7.6797 25.246 16.211l0.28125 0.39453v61.781-0.003906c-14.707 1.1094-29 5.4062-41.879 12.594l-53.531-90.055c-0.33984-0.55859-0.68359-1.1094-1.0469-1.6445z"/>
  <path d="m352.77 431.49h15.742v15.742h-15.742z"/>
  <path d="m368.51 462.98h-15.746v64.473-0.003907c-0.023437 14.426 2.8633 28.703 8.4961 41.984l14.5-6.1406c-4.8086-11.34-7.2734-23.527-7.25-35.844z"/>
 </g>
</svg>