<?xml version="1.0" encoding="UTF-8"?>
<!-- The Best Svg Icon site in the world: iconSvg.co, Visit us! https://iconsvg.co -->
<svg fill="#000000" width="800px" height="800px" version="1.1" viewBox="144 144 512 512" xmlns="http://www.w3.org/2000/svg">
 <g>
  <path d="m567.34 198.48h-28.207c-2.7852 0-5.0391 2.2539-5.0391 5.0391v51.754l-296.16-0.003906c-21.559 0-39.211 17.492-39.352 38.848l-0.10938 3.0547c0 0.03125 0.015626 0.054687 0.015626 0.082031 0 0.035156-0.015626 0.0625-0.015626 0.097656v264.79c0 21.719 17.711 39.387 39.484 39.387h18.223c2.7852 0 5.0391-2.2539 5.0391-5.0391v-34.105h301.4c19.777 0 36.727-14.754 38.598-33.594 0.03125-0.32031 0.12891-1.2969 0.30078-295.7 0.003907 0 0.003907-0.003906 0.003907-0.003906v-0.50781c0-18.801-15.336-34.094-34.184-34.094zm-23.172 10.074h23.168c13.297 0 24.109 10.773 24.109 24.016v0.51172c0 12.234-9.9531 22.188-22.188 22.188h-25.086zm-293.02 382.89h-13.188c-16.215 0-29.41-13.145-29.41-29.309v-238.54c7.2383 8.0547 17.742 13.133 29.41 13.133h13.188zm311.48-39.145h-301.4v-220.61c0-2.7852-2.2539-5.0391-5.0391-5.0391h-18.223c-16.211 0-29.402-13.137-29.41-29.293l0.10547-3.0352c0.10156-15.98 13.238-28.984 29.277-28.984h331.32c8.5898 0 16.387-3.3945 22.176-8.8906-0.042969 69.68-0.17188 267.88-0.23828 271.34-1.3594 13.742-13.91 24.504-28.566 24.504z"/>
  <path d="m425.43 342.79c2.5898-26.32 29.547-32.938 30.758-33.223 2.707-0.62109 4.4023-3.3164 3.7891-6.0273-0.62109-2.7109-3.2852-4.4023-6.0312-3.7969-8.0195 1.8242-20.176 7.4688-28.754 18.07v-25.355c0-2.7852-2.2539-5.0391-5.0391-5.0391-2.7852 0-5.0391 2.2539-5.0391 5.0391v25.258c-8.5742-10.562-20.734-16.152-28.742-17.973-2.7148-0.58984-5.3984 1.082-6.0234 3.7891-0.62109 2.707 1.0742 5.4062 3.7773 6.0352 1.2109 0.28516 28.102 6.9258 30.719 33.211-0.17578 0.007812-0.34766-0.007813-0.52344 0.003906-45.008 2.4102-81.883 33.57-85.777 72.477-3.543 35.41 19.547 68.027 57.449 81.164 10.434 3.6211 16.543 8.875 19.809 17.047 2.2031 5.5039 7.8164 9.1797 13.988 9.1797h0.10938c6.1445-0.039063 11.578-3.6016 13.844-9.0781 3.4922-8.4336 9.1211-13.383 18.828-16.551 35.609-11.621 59.535-41.625 59.535-74.652 0-19.984-8.5508-39.098-24.078-53.82-16.34-15.484-38.684-24.578-62.598-25.758zm24.02 144.66c-12.453 4.0586-20.398 11.141-25.008 22.27-0.70312 1.6992-2.5469 2.8438-4.5938 2.8594h-0.003906c-2.0508-0.035156-3.9883-1.1328-4.6797-2.8477-4.3828-10.973-12.602-18.223-25.859-22.824-33.406-11.578-53.797-39.965-50.727-70.641 3.3984-34.008 36.195-61.27 76.289-63.414 1.7617-0.097657 3.5195-0.14453 5.2656-0.14453 23.305 0 45.293 8.3008 60.973 23.164 13.5 12.797 20.934 29.312 20.934 46.504 0 28.656-21.133 54.805-52.59 65.074z"/>
  <path d="m470.06 416.99c-2.7461-0.39844-5.3242 1.457-5.75 4.207-1.332 8.5938-6.543 16.336-14.668 21.785-2.3086 1.5508-2.9219 4.6797-1.3711 6.9922 0.96875 1.4453 2.5625 2.2305 4.1875 2.2305 0.96484 0 1.9375-0.27734 2.8047-0.85547 10.484-7.0352 17.234-17.195 19.008-28.605 0.42578-2.7539-1.457-5.3281-4.2109-5.7539z"/>
 </g>
</svg>