<?xml version="1.0" encoding="UTF-8"?>
<!-- The Best Svg Icon site in the world: iconSvg.co, Visit us! https://iconsvg.co -->
<svg fill="#000000" width="800px" height="800px" version="1.1" viewBox="144 144 512 512" xmlns="http://www.w3.org/2000/svg">
 <path d="m204.14 601.52h392.97c2.7852 0 5.0391-2.2539 5.0391-5.0391s-2.2539-5.0391-5.0391-5.0391h-19.215c-2.5234-24.031-22.902-42.824-47.59-42.824s-45.066 18.793-47.59 42.824h-35.109c-2.4805-33.93-29.641-61.059-63.586-63.48v-72.082c3.4102 0.44922 10.254 1.1758 18.906 1.1758 19.219 0 47.211-3.5938 65.43-21.816 29.438-29.434 20.695-84.328 20.309-86.648-0.35156-2.125-2.0156-3.7891-4.1406-4.1406-2.3242-0.38281-57.219-9.1289-86.648 20.309-6.1445 6.1445-10.617 13.41-13.855 21.07v-35.246c9.168-7.0742 45.266-37.285 45.266-74.789 0-42.027-45.445-74.992-47.379-76.371-1.7539-1.25-4.1016-1.25-5.8555 0-1.9414 1.3789-47.379 34.344-47.379 76.371 0 37.504 36.098 67.723 45.266 74.789v34.727c-3.2227-7.4648-7.6172-14.547-13.629-20.551-29.434-29.441-84.328-20.695-86.656-20.309-2.125 0.35156-3.7891 2.0156-4.1406 4.1406-0.38672 2.3242-9.125 57.219 20.309 86.648 18.223 18.227 46.211 21.816 65.434 21.816 8.4805 0 15.199-0.69531 18.68-1.1445v72.066c-27.539 2.0547-50.559 20.367-59.535 45.379-8.1641-14.738-23.863-24.738-41.867-24.738-24.688 0-45.066 18.793-47.59 42.824h-20.801c-2.7852 0-5.0391 2.2539-5.0391 5.0391s2.25 5.0391 5.0352 5.0391zm200.86-229.64c21.73-21.738 61.898-19.316 74.207-17.961 1.3555 12.293 3.8203 52.418-17.965 74.199-21.734 21.738-61.906 19.305-74.207 17.961-1.3555-12.297-3.8203-52.422 17.965-74.199zm-33.848 74.195c-12.309 1.3398-52.477 3.7617-74.207-17.961-21.73-21.73-19.301-61.895-17.961-74.199 12.297-1.3555 52.461-3.7695 74.207 17.961 21.73 21.73 19.305 61.895 17.961 74.199zm159.16 112.62c19.125 0 34.934 14.293 37.406 32.746h-74.816c2.4766-18.453 18.285-32.746 37.41-32.746zm-191.55-282.91c0-31.109 30.516-58.105 40.23-65.914 9.7188 7.8086 40.23 34.805 40.23 65.914 0 31.117-30.52 58.113-40.234 65.918-9.7188-7.7891-40.227-34.738-40.227-65.918zm40.344 262.01c30.66 0 55.867 23.645 58.438 53.652l-116.88-0.003907c2.5703-30.008 27.777-53.648 58.441-53.648zm-106.56 20.902c19.125 0 34.934 14.293 37.406 32.746h-74.816c2.4766-18.453 18.285-32.746 37.41-32.746z"/>
</svg>