<?xml version="1.0" encoding="UTF-8"?>
<!-- The Best Svg Icon site in the world: iconSvg.co, Visit us! https://iconsvg.co -->
<svg fill="#000000" width="800px" height="800px" version="1.1" viewBox="144 144 512 512" xmlns="http://www.w3.org/2000/svg">
 <g>
  <path d="m258.71 465.36c40.07 0 60.387-41.383 60.387-123.01 0-75.465-17.785-110.05-57.422-111.71-1.4922-8.6211 0.76953-21.258 1.9219-25.922 0.66797-2.6992-0.98047-5.4336-3.6797-6.1016-2.7148-0.65234-5.4336 0.98047-6.1016 3.6758-0.46875 1.8945-3.9102 16.469-2.2891 28.574-36.719 3.8789-53.211 38.707-53.211 111.48 0.003906 81.625 20.32 123.01 60.395 123.01zm0-224.8c35.266 0 50.312 30.441 50.312 101.79 0 74.938-16.926 112.93-50.312 112.93-33.387 0-50.316-37.996-50.316-112.93 0-71.348 15.051-101.79 50.316-101.79z"/>
  <path d="m265.96 418.34c0.75781 0 1.5234-0.16797 2.25-0.53516 6.7734-3.3906 11.656-10.906 14.934-22.984 0.72656-2.6875-0.85938-5.4531-3.543-6.1836-2.6953-0.72266-5.4531 0.85938-6.1836 3.543-2.4102 8.8945-5.7695 14.637-9.7188 16.613-2.4883 1.2461-3.4961 4.2695-2.25 6.7617 0.88672 1.7656 2.6641 2.7852 4.5117 2.7852z"/>
  <path d="m277.68 359.25c-0.12109 2.7812 2.0352 5.1328 4.8164 5.25 0.074218 0.003906 0.14844 0.003906 0.22266 0.003906 2.6797 0 4.9141-2.1172 5.0273-4.8203 0.20312-4.7656 0.30469-9.8086 0.30469-15.113 0-12.383-0.53516-22.605-1.6367-31.242-0.35547-2.7617-2.8867-4.6914-5.6367-4.3633-2.7617 0.35547-4.7148 2.875-4.3633 5.6367 1.0469 8.2109 1.5586 18.016 1.5586 29.969 0.003906 5.1523-0.09375 10.051-0.29297 14.68z"/>
  <path d="m452.59 257.89v-1.2734c0-16.254-6.875-31.875-18.859-42.867-12.152-11.141-27.957-16.492-44.469-15.047-29.695 2.582-52.953 28.578-52.953 59.188 0 12.52 10.188 22.707 22.707 22.707h15.184l-0.92969 22.758c-0.19141 4.6602 1.4805 9.0781 4.707 12.441 3.2266 3.3633 7.5742 5.2148 12.234 5.2148h8.4727c4.6602 0 9.0078-1.8516 12.234-5.2148 3.2266-3.3672 4.8984-7.7852 4.707-12.441l-0.93359-22.758h15.188c12.523 0 22.711-10.188 22.711-22.707zm-43.141 12.629c-1.3711 0-2.6836 0.55859-3.6367 1.5508-0.94922 0.98828-1.4531 2.3242-1.3984 3.6953l1.1484 28.004c0.078125 1.8906-0.60156 3.6836-1.9102 5.0469-1.3125 1.3672-3.0742 2.1172-4.9648 2.1172h-8.4727c-1.8906 0-3.6562-0.75391-4.9648-2.1172-1.3086-1.3672-1.9883-3.1602-1.9102-5.0508l1.1445-28.004c0.054687-1.3711-0.44922-2.707-1.3984-3.6953-0.94922-0.99219-2.2617-1.5508-3.6328-1.5508h-20.434c-6.9648 0-12.633-5.668-12.633-12.633 0-25.43 19.219-47.02 43.75-49.152 1.4648-0.125 2.918-0.1875 4.3633-0.1875 12.074 0 23.453 4.4023 32.426 12.629 9.9102 9.0859 15.594 22.004 15.594 35.441v1.2734c0 6.9648-5.6641 12.633-12.629 12.633z"/>
  <path d="m248.77 510.81c-19.172 22.82-17.234 57.648 4.4102 79.293 8.8555 8.8555 23.262 8.8555 32.113 0l10.738-10.734 15.434 16.75c3.1602 3.4336 7.4648 5.3711 12.129 5.4648 0.11719 0.003906 0.23828 0.003906 0.35547 0.003906 4.5273 0 8.7695-1.7578 11.98-4.9688l5.9883-5.9883c3.3008-3.2969 5.0586-7.6797 4.9648-12.344-0.097656-4.6602-2.0352-8.9648-5.4648-12.121l-16.754-15.434 10.734-10.738c8.8555-8.8555 8.8555-23.258 0-32.113l-0.89844-0.89844c-11.488-11.492-27.379-17.691-43.645-16.973-16.469 0.71094-31.414 8.0977-42.086 20.801zm78.609 3.293 0.89844 0.89844c4.9258 4.9258 4.9258 12.941 0 17.863l-14.449 14.449c-0.97266 0.96875-1.5039 2.293-1.4766 3.6641 0.03125 1.3711 0.61328 2.6719 1.625 3.6016l20.613 18.988c1.3906 1.2812 2.1758 3.0312 2.2148 4.9219 0.039063 1.8906-0.67578 3.6719-2.0156 5.0117l-5.9922 5.9883c-1.3359 1.3398-3.0547 2.1406-5.0078 2.0156-1.8906-0.039062-3.6406-0.82812-4.9219-2.2188l-18.988-20.613c-0.92969-1.0078-2.2305-1.5938-3.6016-1.625h-0.10156c-1.3359 0-2.6172 0.52734-3.5625 1.4766l-14.449 14.449c-4.9258 4.9258-12.941 4.9258-17.863 0-17.98-17.98-19.656-46.832-3.8164-65.691 8.832-10.512 21.191-16.629 34.809-17.219 13.422-0.60547 26.586 4.5391 36.086 14.039z"/>
  <path d="m590.03 230.56-0.89844-0.89844c-11.492-11.492-27.379-17.672-43.645-16.973-16.469 0.71484-31.418 8.1016-42.086 20.805-19.172 22.82-17.234 57.648 4.4102 79.293 8.8555 8.8555 23.262 8.8555 32.113 0l10.738-10.734 15.434 16.75c3.1602 3.4336 7.4648 5.3711 12.129 5.4648 0.11719 0.003907 0.23828 0.003907 0.35547 0.003907 4.5273 0 8.7695-1.7578 11.98-4.9688l5.9883-5.9883c3.2969-3.2969 5.0586-7.6797 4.9648-12.34-0.09375-4.6641-2.0352-8.9688-5.4648-12.129l-16.754-15.434 10.734-10.738c8.8555-8.8555 8.8555-23.262 0-32.113zm-7.125 24.988-14.445 14.449c-0.97266 0.96875-1.5039 2.293-1.4766 3.6641 0.03125 1.3711 0.61328 2.6719 1.625 3.6016l20.613 18.988c1.3906 1.2812 2.1758 3.0312 2.2148 4.9219s-0.67578 3.6719-2.0156 5.0078l-5.9922 5.9883c-1.332 1.3398-3 2.0625-5.0078 2.0156-1.8906-0.039062-3.6406-0.82812-4.9219-2.2188l-18.988-20.613c-0.92969-1.0078-2.2305-1.5938-3.6016-1.625h-0.10156c-1.3359 0-2.6172 0.52734-3.5625 1.4766l-14.449 14.449c-4.9258 4.9258-12.941 4.9258-17.863 0-17.98-17.98-19.656-46.832-3.8164-65.691 8.832-10.512 21.191-16.629 34.809-17.219 13.43-0.61328 26.582 4.5312 36.082 14.031l0.89844 0.89844c4.9258 4.9336 4.9258 12.949 0 17.875z"/>
  <path d="m369.76 493.44c8.3359 13.785 23.148 22.219 39.391 22.219 1.5977 0 3.1719-0.10938 4.7305-0.26953 5.3008 6.5977 27.387 36.773 27.387 81.094 0 2.7812 2.2539 5.0391 5.0391 5.0391h32.848c2.7812 0 5.0391-2.2539 5.0391-5.0391 0-44.156 22.094-74.461 27.391-81.094 1.5586 0.16016 3.1328 0.26953 4.7266 0.26953 16.242 0 31.051-8.4336 39.391-22.219 25.352-0.51562 45.816-21.297 45.816-46.766 0-22.586-16.184-41.672-37.824-45.871 0.69531-3.2695 1.043-6.5781 1.043-9.8906 0-26.699-21.723-48.422-48.422-48.422-5.0391 0-9.9961 0.82812-14.801 2.3789-8.3281-12.586-22.594-20.918-38.781-20.918s-30.453 8.332-38.781 20.918c-4.8047-1.5508-9.7617-2.3789-14.797-2.3789-26.699 0-48.422 21.723-48.422 48.422 0 3.3125 0.34766 6.6211 1.043 9.8906-21.645 4.1992-37.824 23.285-37.824 45.871-0.003906 25.469 20.461 46.25 45.809 46.766zm104.44 98.004h-22.945c-1.3633-39.305-18.301-67.152-26.57-78.512 13.379-4.8047 24.055-15.625 28.41-29.535 6.3633 1.3828 12.902 1.3828 19.266 0 4.3555 13.91 15.031 24.73 28.41 29.535-8.2695 11.359-25.207 39.211-26.57 78.512zm-105.73-181.35c1.5703-0.09375 3.0078-0.92188 3.8828-2.2305 0.875-1.3125 1.0859-2.9531 0.57422-4.4414-1.4141-4.0977-2.1289-8.3008-2.1289-12.508 0-21.145 17.203-38.348 38.348-38.348 3.4414 0 6.8438 0.48828 10.16 1.4102-1.9492 5.125-3.0664 10.656-3.0664 16.457 0 2.7812 2.2539 5.0391 5.0391 5.0391 2.7812 0 5.0391-2.2539 5.0391-5.0391 0-20.074 16.332-36.406 36.406-36.406s36.406 16.332 36.406 36.406c0 2.7812 2.2539 5.0391 5.0391 5.0391 2.7812 0 5.0391-2.2539 5.0391-5.0391 0-5.8008-1.1172-11.332-3.0664-16.457 3.3164-0.92187 6.7188-1.4102 10.164-1.4102 21.145 0 38.348 17.203 38.348 38.348 0 4.2031-0.71484 8.4102-2.1289 12.508-0.51562 1.4883-0.30078 3.1328 0.57422 4.4414 0.875 1.3086 2.3125 2.1367 3.8828 2.2305 19.32 1.1719 34.453 17.238 34.453 36.582 0 20.234-16.465 36.699-36.699 36.699-0.30078 0-0.60156-0.023438-0.89453-0.042969l-0.81641-0.050781c-1.9648-0.0625-3.8086 0.98047-4.707 2.7266-6.2148 12.074-18.477 19.574-32.008 19.574-17.312 0-32.184-12.344-35.363-29.348-0.26953-1.4375-1.1484-2.6875-2.4141-3.4258-1.2656-0.74219-2.7891-0.89062-4.168-0.41406-7.6172 2.6094-15.648 2.6094-23.266 0-1.3867-0.47656-2.9062-0.32031-4.168 0.41406-1.2656 0.73828-2.1445 1.9883-2.4141 3.4258-3.1797 17.008-18.055 29.348-35.363 29.348-13.531 0-25.793-7.5-32.008-19.574-0.90234-1.75-2.7656-2.7969-4.707-2.7266l-0.81641 0.050781c-0.29688 0.019531-0.59375 0.042969-0.89453 0.042969-20.238 0-36.703-16.465-36.703-36.699-0.007812-19.344 15.125-35.414 34.445-36.582z"/>
  <path d="m410.51 424.84c17.648 0 32.004 14.359 32.004 32.008 0 2.7812 2.2539 5.0391 5.0391 5.0391 2.7812 0 5.0391-2.2539 5.0391-5.0391 0-23.207-18.879-42.082-42.082-42.082-2.7812 0-5.0391 2.2539-5.0391 5.0391 0 2.7812 2.2539 5.0352 5.0391 5.0352z"/>
  <path d="m515.52 458.8c0.47266 0 0.94922-0.070313 1.4258-0.20703 2.668-0.78906 4.1953-3.5859 3.4102-6.2539-2.375-8.0742-1.4688-16.59 2.5625-23.98s10.695-12.766 18.766-15.141c2.668-0.78906 4.1953-3.5859 3.4102-6.2539-0.78906-2.6719-3.5898-4.1914-6.2539-3.4102-10.656 3.1367-19.453 10.234-24.77 19.988-5.3203 9.75-6.5195 20.992-3.3828 31.645 0.64844 2.1875 2.6562 3.6133 4.832 3.6133z"/>
 </g>
</svg>