<?xml version="1.0" encoding="UTF-8"?>
<!-- The Best Svg Icon site in the world: iconSvg.co, Visit us! https://iconsvg.co -->
<svg fill="#000000" width="800px" height="800px" version="1.1" viewBox="144 144 512 512" xmlns="http://www.w3.org/2000/svg">
 <path d="m538.55 525.95h-125.95v-38.793c0-2.5195 0-5.0391-0.25-7.5586v-40.809c0-42.824 16.121-76.832 68.016-102.78-26.449 27.207-40.305 53.906-42.824 85.395 94.465-1.5117 133.76-69.023 138.8-147.36-120.41 7.0547-181.88 49.625-188.43 129.73-31.234-42.32-90.184-60.711-164.24-60.711 2.2656 78.344 38.793 145.35 138.55 146.86 4.0312-21.664-7.8086-45.848-42.57-82.875 54.914 18.391 67.762 41.059 67.762 92.699v26.199h-125.95c-12.594 0-12.594 0-12.594 12.594s0 12.594 12.594 12.594h138.3 0.25 138.55c12.594 0 12.594 0 12.594-12.594s0-12.594-12.594-12.594z"/>
</svg>