<?xml version="1.0" encoding="UTF-8"?>
<!-- The Best Svg Icon site in the world: iconSvg.co, Visit us! https://iconsvg.co -->
<svg fill="#000000" width="800px" height="800px" version="1.1" viewBox="144 144 512 512" xmlns="http://www.w3.org/2000/svg">
 <g>
  <path d="m256.18 395.14 1.0586 6.4844 6.4336-1.3281c45.363-9.3711 51.52-57.531 51.578-58.012l1.1172-9.543-9.1953 2.7812c-57.203 17.289-51.062 59.199-50.992 59.617zm43.984-43.711c-3.6523 10.918-12.16 27.25-31.312 34.328 1.3906-8.957 7.4648-24.082 31.312-34.328z"/>
  <path d="m307.17 394.21c-57.203 17.289-51.062 59.191-50.992 59.613l1.0586 6.4805 6.4336-1.3242c45.363-9.3672 51.52-57.523 51.578-58.012l1.1172-9.543zm-38.328 50.234c1.3945-8.9609 7.4648-24.082 31.312-34.324-3.6445 10.918-12.156 27.246-31.312 34.324z"/>
  <path d="m307.17 452.9c-57.203 17.297-51.062 59.191-50.992 59.617l1.0586 6.4805 6.4336-1.3242c45.363-9.3672 51.52-57.523 51.578-58.012l1.1172-9.543zm-38.328 50.238c1.3945-8.9609 7.4648-24.082 31.312-34.324-3.6445 10.914-12.156 27.242-31.312 34.324z"/>
  <path d="m256.18 571.2 1.0586 6.4805 6.4336-1.3242c45.363-9.3672 51.52-57.523 51.578-58.012l1.1172-9.543-9.1953 2.7812c-57.203 17.293-51.062 59.195-50.992 59.617zm12.695-9.3906c1.4297-8.9336 7.5352-24.078 31.281-34.309-3.6445 10.918-12.152 27.23-31.281 34.309z"/>
  <path d="m229.25 400.29 6.4336 1.3281 1.0547-6.4844c0.070312-0.41797 6.1953-42.324-50.996-59.617l-9.1992-2.7812 1.1172 9.543c0.0625 0.48828 6.2266 48.641 51.59 58.012zm-5.1797-14.535c-19.156-7.0781-27.664-23.41-31.316-34.328 23.84 10.246 29.918 25.367 31.316 34.328z"/>
  <path d="m229.25 458.98 6.4336 1.3281 1.0547-6.4844c0.070312-0.42188 6.1953-42.32-50.996-59.617l-9.1992-2.7812 1.1172 9.543c0.0625 0.48438 6.2266 48.645 51.59 58.012zm-5.1797-14.539c-19.156-7.0781-27.664-23.406-31.316-34.324 23.84 10.246 29.918 25.363 31.316 34.324z"/>
  <path d="m229.25 517.67 6.4336 1.3281 1.0547-6.4844c0.070312-0.42188 6.1953-42.32-50.996-59.617l-9.1992-2.7812 1.1172 9.543c0.0625 0.48828 6.2266 48.645 51.59 58.012zm-5.1797-14.535c-19.156-7.0781-27.664-23.406-31.316-34.324 23.84 10.242 29.918 25.363 31.316 34.324z"/>
  <path d="m229.25 576.36 6.4336 1.3281 1.0547-6.4844c0.070312-0.42188 6.1953-42.328-50.996-59.617l-9.1992-2.7812 1.1172 9.543c0.0625 0.48438 6.2266 48.641 51.59 58.012zm-5.1797-14.543c-19.156-7.0781-27.664-23.406-31.316-34.324 23.84 10.25 29.918 25.367 31.316 34.324z"/>
  <path d="m402.91 395.14 1.0586 6.4844 6.4336-1.3281c45.359-9.3711 51.523-57.523 51.574-58.012l1.125-9.543-9.1953 2.7812c-57.207 17.289-51.066 59.199-50.996 59.617zm43.891-43.676c-3.7188 10.906-12.281 27.223-31.223 34.277 1.3984-8.9453 7.4648-24.035 31.223-34.277z"/>
  <path d="m453.89 394.21c-57.199 17.289-51.059 59.191-50.988 59.613l1.0586 6.4844 6.4336-1.3281c45.359-9.3672 51.523-57.523 51.574-58.012l1.125-9.543zm-38.324 50.23c1.3945-8.957 7.4648-24.078 31.316-34.324-3.6562 10.922-12.164 27.25-31.316 34.324z"/>
  <path d="m453.89 452.9c-57.203 17.297-51.062 59.191-50.996 59.617l1.0586 6.4844 6.4336-1.3281c45.359-9.3672 51.523-57.523 51.574-58.012l1.125-9.543zm-38.324 50.234c1.3945-8.957 7.4648-24.078 31.316-34.324-3.6562 10.918-12.164 27.246-31.316 34.324z"/>
  <path d="m402.91 571.2 1.0586 6.4844 6.4336-1.3281c45.359-9.3672 51.523-57.523 51.574-58.012l1.125-9.543-9.1953 2.7812c-57.207 17.293-51.066 59.195-50.996 59.617zm12.695-9.3906c1.4297-8.9375 7.5352-24.078 31.281-34.309-3.6523 10.918-12.156 27.23-31.281 34.309z"/>
  <path d="m375.98 400.29 6.4336 1.3281 1.0586-6.4844c0.070312-0.42187 6.2031-42.328-50.996-59.621l-9.1992-2.7812 1.1172 9.543c0.0625 0.49219 6.2266 48.645 51.586 58.016zm-5.1719-14.535c-19.156-7.0781-27.664-23.41-31.316-34.328 23.84 10.246 29.914 25.367 31.316 34.328z"/>
  <path d="m375.98 458.98 6.4336 1.3281 1.0586-6.4844c0.070312-0.42188 6.2031-42.32-50.996-59.617l-9.1992-2.7812 1.1172 9.543c0.0625 0.48438 6.2266 48.645 51.586 58.012zm-5.1719-14.539c-19.156-7.0742-27.664-23.406-31.316-34.324 23.84 10.246 29.914 25.363 31.316 34.324z"/>
  <path d="m375.98 517.67 6.4336 1.3281 1.0586-6.4844c0.070312-0.42188 6.2031-42.32-50.996-59.617l-9.1992-2.7812 1.1172 9.543c0.0625 0.48828 6.2266 48.645 51.586 58.012zm-5.1719-14.535c-19.156-7.0742-27.664-23.406-31.316-34.324 23.84 10.242 29.914 25.363 31.316 34.324z"/>
  <path d="m375.98 576.36 6.4336 1.3281 1.0586-6.4844c0.070312-0.42188 6.2031-42.324-50.996-59.617l-9.1992-2.7812 1.1172 9.543c0.0625 0.48438 6.2266 48.641 51.586 58.012zm-5.1719-14.543c-19.156-7.0781-27.664-23.406-31.316-34.324 23.84 10.25 29.914 25.367 31.316 34.324z"/>
  <path d="m546.38 601.19h27.727v-12.594h-27.727v-250.75c9.4219-8.8359 14.707-19.246 15.625-31.031 1.9258-24.828-16.363-46.406-17.141-47.312l-4.8711-5.6641-4.7578 5.7539c-13.445 16.254-19.301 32.379-17.406 47.926 1.918 15.742 11.34 26.199 15.961 30.465v250.59l-134.13 0.003907v-250.75c9.418-8.832 14.707-19.246 15.617-31.023 1.9258-24.828-16.359-46.402-17.141-47.312l-4.8672-5.6641-4.7617 5.7539c-13.441 16.254-19.301 32.379-17.402 47.926 1.918 15.742 11.34 26.203 15.957 30.465v250.59h-134.13v-250.75c9.4219-8.832 14.707-19.246 15.625-31.023 1.918-24.828-16.363-46.406-17.145-47.312l-4.8672-5.6641-4.7617 5.7539c-13.441 16.254-19.301 32.379-17.402 47.926 1.918 15.742 11.34 26.203 15.957 30.465v250.59h-27.711v12.594h27.711v9.168l-51.172 0.007813v12.594h405.95v-12.594h-48.727l-0.003906-9.1484zm-16.051-295.18c-1.2188-10.016 2.0117-20.676 9.6133-31.785 2.543 4.0273 5.5625 9.6289 7.5273 16.008 4.3281 14.066 1.8242 26.223-7.4453 36.223-3.5664-3.8984-8.5273-10.883-9.6953-20.445zm-146.72 0c-1.2188-10.02 2.0156-20.688 9.6289-31.797 4.4844 7.0742 10.461 19.074 9.4883 31.641-0.58984 7.5859-3.75 14.5-9.4102 20.605-3.582-3.9023-8.543-10.887-9.707-20.449zm-146.73 0c-1.2188-10.02 2.0156-20.688 9.6289-31.797 4.4844 7.0742 10.461 19.074 9.4883 31.641-0.58984 7.5859-3.75 14.5-9.418 20.605-3.5742-3.8984-8.5352-10.887-9.6992-20.449zm296.91 295.18v9.168h-134.13v-9.168zm-280.86 0h134.13v9.168h-134.13z"/>
  <path d="m549.63 395.14 1.0547 6.4844 6.4336-1.3281c45.363-9.3711 51.523-57.531 51.574-58.012l1.125-9.543-9.1953 2.7812c-57.191 17.289-51.059 59.195-50.992 59.617zm43.98-43.707c-3.6523 10.914-12.152 27.227-31.277 34.316 1.4297-8.9414 7.5352-24.082 31.277-34.316z"/>
  <path d="m549.63 453.82 1.0547 6.4844 6.4336-1.3281c45.363-9.3672 51.523-57.523 51.574-58.012l1.125-9.543-9.1953 2.7812c-57.191 17.293-51.059 59.195-50.992 59.617zm12.672-9.3828c1.3945-8.957 7.4648-24.078 31.312-34.324-3.6523 10.922-12.164 27.25-31.312 34.324z"/>
  <path d="m549.63 512.52 1.0547 6.4844 6.4336-1.3281c45.363-9.3672 51.523-57.523 51.574-58.012l1.125-9.543-9.1953 2.7812c-57.191 17.297-51.059 59.191-50.992 59.617zm12.672-9.3828c1.3945-8.957 7.4648-24.078 31.312-34.324-3.6523 10.918-12.164 27.246-31.312 34.324z"/>
  <path d="m549.63 571.2 1.0547 6.4844 6.4336-1.3281c45.363-9.3672 51.523-57.523 51.574-58.012l1.125-9.543-9.1953 2.7812c-57.191 17.293-51.059 59.195-50.992 59.617zm12.672-9.3828c1.3906-8.957 7.4648-24.078 31.312-34.324-3.6523 10.926-12.164 27.254-31.312 34.324z"/>
  <path d="m522.7 400.29 6.4336 1.3281 1.0547-6.4844c0.070313-0.42187 6.2031-42.328-50.992-59.621l-9.1953-2.7812 1.125 9.543c0.054688 0.48828 6.2148 48.645 51.574 58.016zm-5.1797-14.535c-19.156-7.082-27.66-23.41-31.312-34.328 23.84 10.246 29.914 25.367 31.312 34.328z"/>
  <path d="m522.7 458.98 6.4336 1.3281 1.0547-6.4844c0.070313-0.42188 6.2031-42.32-50.992-59.617l-9.1953-2.7812 1.125 9.543c0.054688 0.48438 6.2148 48.645 51.574 58.012zm-5.1797-14.539c-19.148-7.0742-27.66-23.406-31.312-34.324 23.84 10.246 29.914 25.363 31.312 34.324z"/>
  <path d="m522.7 517.67 6.4336 1.3281 1.0547-6.4844c0.070313-0.42188 6.2031-42.32-50.992-59.617l-9.1953-2.7812 1.125 9.543c0.054688 0.48828 6.2148 48.645 51.574 58.012zm-5.1797-14.535c-19.148-7.0742-27.66-23.406-31.312-34.324 23.84 10.242 29.914 25.363 31.312 34.324z"/>
  <path d="m522.7 576.36 6.4336 1.3281 1.0547-6.4844c0.070313-0.42188 6.2031-42.324-50.992-59.617l-9.1953-2.7812 1.125 9.543c0.054688 0.48438 6.2148 48.641 51.574 58.012zm-5.1797-14.543c-19.156-7.0781-27.66-23.406-31.312-34.324 23.844 10.25 29.922 25.367 31.312 34.324z"/>
  <path d="m240.06 184.62h12.594v56.367h-12.594z"/>
  <path d="m177.63 253.89h12.594v67.18h-12.594z"/>
  <path d="m206.32 209.18h12.594v63.605h-12.594z"/>
  <path d="m302.69 253.89h12.594v67.18h-12.594z"/>
  <path d="m274 209.18h12.594v63.605h-12.594z"/>
  <path d="m386.68 184.62h12.594v56.367h-12.594z"/>
  <path d="m324.25 253.89h12.594v67.18h-12.594z"/>
  <path d="m352.95 209.18h12.594v63.605h-12.594z"/>
  <path d="m449.32 253.89h12.594v67.18h-12.594z"/>
  <path d="m420.62 209.18h12.594v63.605h-12.594z"/>
  <path d="m533.41 184.62h12.594v56.367h-12.594z"/>
  <path d="m470.98 253.89h12.594v67.18h-12.594z"/>
  <path d="m499.68 209.18h12.594v63.605h-12.594z"/>
  <path d="m596.05 253.89h12.594v67.18h-12.594z"/>
  <path d="m567.36 209.18h12.594v63.605h-12.594z"/>
 </g>
</svg>