<?xml version="1.0" encoding="UTF-8"?>
<!-- The Best Svg Icon site in the world: iconSvg.co, Visit us! https://iconsvg.co -->
<svg fill="#000000" width="800px" height="800px" version="1.1" viewBox="144 144 512 512" xmlns="http://www.w3.org/2000/svg">
 <g>
  <path d="m311.01 309.82c37.969 0 68.855 30.887 68.855 68.855 0 2.7812 2.2539 5.0391 5.0391 5.0391s5.0391-2.2578 5.0391-5.0391c0-43.523-35.406-78.934-78.934-78.934-2.7852 0-5.0391 2.2578-5.0391 5.0391 0 2.7852 2.25 5.0391 5.0391 5.0391z"/>
  <path d="m313.68 459.28c12.207 0 24.105-2.7422 35-7.9453 4.0039 15.125 17.531 71.672 17.531 145.36 0 2.7812 2.2539 5.0391 5.0391 5.0391h61.168c2.7852 0 5.0391-2.2578 5.0391-5.0391 0-60.809 7.4102-103.83 11.875-124.21 16.191-8.7266 28.832-23.496 34.598-41.82 1.7695 0.125 3.4492 0.19141 5.0781 0.19141 43.379 0 78.676-35.293 78.676-78.676 0-37.598-27.137-70.102-63.727-77.164-5.9141-43.387-42.582-75.641-86.832-75.641-28.285 0-54.285 13.371-70.797 36.082-11.441-11.551-26.902-18.062-43.348-18.062-33.715 0-61.152 27.434-61.152 61.148 0 15.059 5.3867 29.199 15.281 40.375-15.973 15.367-25.027 36.492-25.027 58.758 0 45.004 36.609 81.609 81.598 81.609zm113.71 132.38h-51.125c-0.52734-63.758-10.871-114.34-16.086-135.93 13.574 15.926 33.578 25.391 54.949 25.391 7.957 0 15.66-1.3008 22.883-3.7148-4.3984 22.145-10.266 61.324-10.621 114.25zm-159.57-276.14c-10.262-9.7656-15.914-22.895-15.914-36.98 0-28.164 22.914-51.07 51.078-51.07 15.629 0 30.188 7.043 39.961 19.324 1.0195 1.2812 2.625 2 4.2383 1.8906 1.6367-0.097657 3.125-0.98438 3.9883-2.3789 14.293-23.078 38.945-36.859 65.953-36.859 40.324 0 73.531 30.254 77.238 70.371 0.21484 2.3242 2 4.1953 4.3125 4.5234 33.594 4.7461 58.93 33.91 58.93 67.832 0 37.824-30.773 68.598-68.598 68.598-2.4844 0-5.1602-0.17578-8.1836-0.53906-2.457-0.28906-4.8711 1.3164-5.4883 3.7773-6.9336 27.688-31.691 47.027-60.207 47.027-22.645 0-43.516-12.344-54.457-32.219-0.68359-1.2383-1.8477-2.1328-3.2305-2.4648-0.38672-0.097656-0.78516-0.14062-1.1836-0.14062-0.99219 0-1.9766 0.29297-2.8125 0.85547-11.812 7.9336-25.562 12.133-39.777 12.133-39.438 0-71.52-32.086-71.52-71.527 0-21.086 9.2734-41.012 25.441-54.66 1.0938-0.92578 1.7422-2.2734 1.7852-3.6992 0.046875-1.4219-0.51562-2.8047-1.5547-3.793z"/>
 </g>
</svg>