<?xml version="1.0" encoding="UTF-8"?>
<!-- The Best Svg Icon site in the world: iconSvg.co, Visit us! https://iconsvg.co -->
<svg fill="#000000" width="800px" height="800px" version="1.1" viewBox="144 144 512 512" xmlns="http://www.w3.org/2000/svg">
 <path d="m518.08 305.52c0-51.84-27.227-94.445-76.664-119.97-26.445-13.422-55.539-20.816-85.188-21.648-29.18-0.73828-54.395 5.3242-70.996 17.113v0.003906c-2.6484 1.8789-3.8711 5.1953-3.0742 8.3477 0.79688 3.1523 3.4492 5.4883 6.6758 5.8828 0.32422 0.039062 32.832 4.1914 64.691 20.281 41.285 20.844 62.219 51.125 62.219 89.988 0 39.469-14.738 71.34-43.805 94.73-13.281 10.699-28.465 18.785-44.754 23.836-3.4766 0.89453-5.9062 4.0312-5.9062 7.6211v172.96c0 11.25 6.0039 21.645 15.746 27.27 9.7422 5.625 21.746 5.625 31.488 0 9.7422-5.625 15.742-16.02 15.742-27.27v-127.22c22.688-4.8438 44.234-14 63.469-26.969 32.094-21.812 70.355-64.672 70.355-144.96zm-149.57 299.15c0 5.625-3.0039 10.82-7.875 13.633-4.8711 2.8125-10.871 2.8125-15.742 0-4.8711-2.8125-7.8711-8.0078-7.8711-13.633v-15.746h31.488zm0-31.488h-31.488v-94.465h31.488zm7.3242-110.21h-38.812v-25.5c16.004-5.6875 30.961-13.98 44.266-24.543 22.898-18.254 50.199-51.703 50.199-107.41 0-44.785-24.637-80.832-71.25-104.24h-0.003906c-14.555-7.1953-29.828-12.84-45.566-16.836 11.816-3.5 25.938-5.1953 41.152-4.8008 27.273 0.75781 54.039 7.5547 78.371 19.902 20.59 10.629 36.914 24.484 48.527 41.18 13.016 18.711 19.617 40.516 19.617 64.797 0 32.414-6.6328 60.812-19.719 84.41v0.003906c-10.52 18.891-25.328 35.051-43.23 47.176-29.559 20.266-59.668 25.285-63.551 25.867z"/>
</svg>