<?xml version="1.0" encoding="UTF-8"?>
<!-- The Best Svg Icon site in the world: iconSvg.co, Visit us! https://iconsvg.co -->
<svg fill="#000000" width="800px" height="800px" version="1.1" viewBox="144 144 512 512" xmlns="http://www.w3.org/2000/svg">
 <g>
  <path d="m368.51 337.02h15.742v-7.875c0-8.4336-4.5-16.23-11.809-20.449-7.3047-4.2188-16.309-4.2188-23.613 0-7.3086 4.2188-11.809 12.016-11.809 20.449v7.8711h15.742v-7.8711c0-4.3477 3.5234-7.8711 7.8711-7.8711 4.3477 0 7.875 3.5234 7.875 7.8711z"/>
  <path d="m431.49 329.15c0-4.3477 3.5234-7.8711 7.8711-7.8711s7.8711 3.5234 7.8711 7.8711v7.8711h15.742l0.003906-7.8711c0-8.4336-4.5039-16.23-11.809-20.449-7.3086-4.2188-16.309-4.2188-23.617 0-7.3086 4.2188-11.809 12.016-11.809 20.449v7.8711h15.742z"/>
  <path d="m431.49 368.51v-15.746h-62.977v15.746c0 11.25 6 21.645 15.742 27.27 9.7422 5.625 21.746 5.625 31.488 0 9.7422-5.625 15.746-16.02 15.746-27.27zm-47.23 0h31.488-0.003906c0 5.625-3 10.82-7.8711 13.633s-10.875 2.8125-15.746 0-7.8711-8.0078-7.8711-13.633z"/>
  <path d="m557.44 486.59c-0.023438-17.418-6.4531-34.219-18.066-47.195-11.617-12.98-27.602-21.234-44.91-23.188v-0.46484h-42.508c21.801-14.434 36.691-37.215 41.164-62.977h9.2188c8.4375 0 16.23-4.5 20.449-11.809 4.2188-7.3047 4.2188-16.309 0-23.613-4.2188-7.3086-12.012-11.809-20.449-11.809h-7.875v-15.746h23.617c8.4375 0 16.234-4.5 20.453-11.809 4.2188-7.3047 4.2188-16.309 0-23.613-4.2188-7.3086-12.016-11.809-20.453-11.809h-23.617v-37.457c0-10.941-4.3516-21.434-12.09-29.172-7.7383-7.7383-18.234-12.086-29.176-12.086-10.941 0-21.438 4.3438-29.18 12.078l-4.0625 4.0625c-4.7773 4.8008-11.277 7.4883-18.051 7.4688h-3.8086c-6.7734 0.019531-13.273-2.668-18.051-7.4688l-4.0625-4.0625c-7.7383-7.7344-18.234-12.078-29.18-12.078-10.941 0-21.438 4.3477-29.176 12.086-7.7383 7.7383-12.086 18.23-12.09 29.172v37.457h-23.617c-8.4375 0-16.234 4.5-20.453 11.809-4.2188 7.3047-4.2188 16.309 0 23.613 4.2188 7.3086 12.016 11.809 20.453 11.809h23.617v15.742l-7.8711 0.003906c-8.4375 0-16.234 4.5-20.453 11.809-4.2188 7.3047-4.2188 16.309 0 23.613 4.2188 7.3086 12.016 11.809 20.453 11.809h9.2188-0.003906c4.4766 25.762 19.363 48.543 41.164 62.977h-42.508v0.46484c-17.309 1.9531-33.293 10.207-44.906 23.188-11.617 12.977-18.047 29.777-18.07 47.195v39.359h15.742v110.21h283.39v-110.21h15.742zm-157.44-23.613c8.3516 0 16.359-3.3203 22.266-9.2227 5.9023-5.9062 9.2227-13.918 9.2227-22.266h15.742v47.23h-94.465v-47.23h15.746c0 8.3477 3.3164 16.359 9.2227 22.266 5.9023 5.9023 13.914 9.2227 22.266 9.2227zm102.34-141.7c4.3477 0 7.8711 3.5234 7.8711 7.8711 0 4.3477-3.5234 7.875-7.8711 7.875h-7.875v-15.746zm-181.06-116.18c0.003906-6.7656 2.6953-13.258 7.4805-18.043 4.7852-4.7852 11.277-7.4727 18.043-7.4727 6.7695-0.003907 13.262 2.6836 18.051 7.4648l4.0625 4.0625h-0.003906c7.7266 7.7656 18.234 12.117 29.184 12.086h3.8086c10.953 0.03125 21.461-4.3203 29.184-12.086l4.0625-4.0625c4.7852-4.7812 11.277-7.4688 18.047-7.4648 6.7695 0 13.258 2.6875 18.043 7.4727 4.7891 4.7852 7.4766 11.277 7.4805 18.043v37.457h-157.44zm-39.359 68.945c-4.3477 0-7.8711-3.5234-7.8711-7.8711 0-4.3477 3.5234-7.875 7.8711-7.875h236.16c4.3477 0 7.8711 3.5273 7.8711 7.875 0 4.3477-3.5234 7.8711-7.8711 7.8711zm15.742 62.977h0.003906c-4.3477 0-7.875-3.5273-7.875-7.875 0-4.3477 3.5273-7.8711 7.875-7.8711h7.8711v15.742zm23.617 0v-47.234h157.44v47.234c-0.054688 17.113-5.668 33.742-15.992 47.391-10.324 13.648-24.801 23.574-41.254 28.281l-5.7305 1.6211v17.172c0 5.625-3 10.82-7.8711 13.633s-10.875 2.8125-15.746 0-7.8711-8.0078-7.8711-13.633v-17.172l-5.7305-1.6211c-16.453-4.707-30.93-14.633-41.254-28.281-10.324-13.648-15.938-30.277-15.992-47.391zm-62.977 149.57c0.019531-13.246 4.7969-26.043 13.469-36.059s20.656-16.574 33.766-18.484v78.16h-47.234zm47.23 133.82h-31.484v-94.465h31.488zm173.18 0h-157.44v-188.93h15.742v62.977l125.96-0.003906v-62.973h15.742v188.93zm47.23 0h-31.484v-94.465h31.488zm15.742-110.21h-47.227v-78.16c13.109 1.9102 25.094 8.4688 33.766 18.484 8.6719 10.016 13.453 22.812 13.469 36.059z"/>
 </g>
</svg>