<?xml version="1.0" encoding="UTF-8"?>
<!-- The Best Svg Icon site in the world: iconSvg.co, Visit us! https://iconsvg.co -->
<svg fill="#000000" width="800px" height="800px" version="1.1" viewBox="144 144 512 512" xmlns="http://www.w3.org/2000/svg">
 <g>
  <path d="m374.81 475.57v50.379c0 9 4.8008 17.316 12.594 21.816 7.793 4.5 17.398 4.5 25.191 0s12.594-12.816 12.594-21.816v-50.379z"/>
  <path d="m500.36 341.51c-15.457-4.9336-32.086-4.793-47.457 0.40234-30.23 10.934-51.035 43.43-53.102 82.625-2.0664-39.195-23.023-71.691-53.102-82.625-15.371-5.1953-32-5.3359-47.457-0.40234 14.348 12.98 27.102 27.629 37.984 43.629 3.1758 35.266 18.641 71.34 37.434 89.68l0.15234 0.75391v-0.40234c6.3477 7.0195 15.148 11.328 24.586 12.039 9.5547-0.73828 18.453-5.1406 24.836-12.293l0.35156 0.65625v-1.2578c18.438-18.391 33.605-53.707 36.879-88.469l0.003906-0.003906c11.098-16.316 24.16-31.203 38.891-44.332z"/>
  <path d="m333.2 374.36h1.9141l6.6484-7.1055h-7.2539c-0.65625 2.5195-1.0586 4.6875-1.3086 7.1055z"/>
  <path d="m458.24 367.25 6.6484 7.1055h1.9141c0-2.418-0.65625-4.7344-1.0586-7.1055z"/>
  <path d="m400 248.86c-20.504 20.152-57.082 61.867-65.496 118.39h9.6211l15.113-15.113 0.65625-2.9219c6.2969-29.676 24.184-54.562 40.305-71.996 16.172 17.434 34.059 42.32 40.305 71.996l0.65625 2.9219 15.113 15.113h9.6211c-8.8125-56.527-45.391-98.242-65.895-118.39z"/>
 </g>
</svg>