<?xml version="1.0" encoding="UTF-8"?>
<!-- The Best Svg Icon site in the world: iconSvg.co, Visit us! https://iconsvg.co -->
<svg fill="#000000" width="800px" height="800px" version="1.1" viewBox="144 144 512 512" xmlns="http://www.w3.org/2000/svg">
 <g>
  <path d="m577.21 285.09c0.21484 0 0.43359-0.015625 0.64844-0.054688 7.0664-1.1875 14.23-1.7344 21.395-1.6289 1.0508 0.042969 2.0742-0.34766 2.832-1.082 0.75391-0.73047 1.1758-1.7383 1.168-2.793 0.035156-2.1719-1.6953-3.9609-3.8672-3.9961-7.6484-0.10547-15.289 0.47656-22.832 1.7383-2.0117 0.33984-3.4336 2.168-3.2656 4.2031 0.16797 2.0352 1.8672 3.6055 3.9102 3.6133z"/>
  <path d="m539.84 296.88c0.57031 0 1.1328-0.125 1.6523-0.36328 6.8008-3.1562 13.824-5.8047 21.016-7.9258 2.0859-0.60938 3.2852-2.7969 2.6758-4.8828-0.60938-2.0859-2.7969-3.2852-4.8828-2.6758-7.5664 2.2305-14.957 5.0195-22.113 8.3398-1.6758 0.77734-2.582 2.6172-2.1875 4.418 0.39844 1.8047 1.9961 3.0859 3.8398 3.0898z"/>
  <path d="m509.22 314.84c0.82422 0 1.625-0.26172 2.293-0.74219 5.4531-3.9258 11.109-7.5586 16.945-10.891 0.92969-0.50391 1.6133-1.3633 1.9023-2.3789 0.28906-1.0156 0.15625-2.1055-0.36719-3.0195-0.52344-0.91797-1.3906-1.5898-2.4102-1.8594-1.0234-0.26953-2.1094-0.12109-3.0156 0.41797-6.0781 3.4688-11.969 7.2539-17.648 11.34-1.3906 0.99609-1.9766 2.7773-1.4492 4.4062 0.52344 1.625 2.0391 2.7266 3.75 2.7266z"/>
  <path d="m485.6 325.56c-1.5078 1.5625-1.457 4.0547 0.10938 5.5625 1.5625 1.5078 4.0547 1.4609 5.5625-0.10547 0.035157-0.03125 3.3203-3.4336 9.1719-8.3281 1.6211-1.4062 1.8164-3.8555 0.4375-5.5-1.3789-1.6445-3.8203-1.8828-5.4922-0.53516-6.2031 5.1953-9.6406 8.7578-9.7891 8.9062z"/>
  <path d="m470.48 207.36c0.94922 0 1.8633-0.34375 2.5781-0.96484 5.4023-4.7109 11.223-8.9297 17.383-12.598 1.6602-1.1875 2.1328-3.4531 1.0898-5.207-1.043-1.7578-3.2578-2.4219-5.0977-1.5352-6.5703 3.8984-12.773 8.375-18.539 13.383-1.2422 1.0781-1.6797 2.8125-1.1055 4.3516 0.57813 1.5391 2.0469 2.5586 3.6914 2.5586z"/>
  <path d="m444.77 236.94c1.3203 0 2.5508-0.66016 3.2812-1.7539 4.1484-6.25 8.7539-12.184 13.773-17.758 1.4609-1.6094 1.3359-4.1016-0.27734-5.5586-1.6094-1.457-4.1016-1.3359-5.5586 0.27734-5.2812 5.8594-10.121 12.102-14.484 18.672-0.80469 1.207-0.88281 2.7617-0.19922 4.0391 0.6875 1.2812 2.0195 2.082 3.4688 2.082z"/>
  <path d="m426.57 267.96c0.96094 0.40625 2.0469 0.41406 3.0156 0.019531 0.96484-0.39844 1.7344-1.1641 2.1328-2.1289 2.5938-6.1992 5.5156-12.254 8.75-18.145 0.97266-1.8945 0.26172-4.2227-1.6055-5.25-1.8672-1.0234-4.2109-0.37891-5.2891 1.457-3.375 6.1328-6.4141 12.438-9.1133 18.895-0.40234 0.96484-0.41016 2.0469-0.011719 3.0117 0.39453 0.96875 1.1562 1.7383 2.1211 2.1406z"/>
  <path d="m418.63 293.88c0.27734 0.0625 0.55859 0.09375 0.84375 0.089844 1.8477 0 3.4492-1.2852 3.8438-3.0938 0-0.042969 1.0312-4.6602 3.4531-11.895h-0.003907c0.69141-2.0625-0.42188-4.2969-2.4883-4.9883-2.0664-0.6875-4.2969 0.42578-4.9883 2.4922-2.5703 7.6797-3.6367 12.512-3.6797 12.715v-0.003906c-0.22266 1.0234-0.027343 2.0898 0.53906 2.9688s1.457 1.4961 2.4805 1.7148z"/>
  <path d="m579.65 450.71c-0.80859 0.65625-1.3281 1.6094-1.4336 2.6484-0.10938 1.0391 0.19922 2.0781 0.85547 2.8906 4.5234 5.5586 8.5312 11.52 11.98 17.801 1.0547 1.8867 3.4297 2.5742 5.3281 1.5352 1.8945-1.0352 2.6016-3.4062 1.582-5.3086-3.6797-6.7031-7.9531-13.059-12.773-18.988-0.65625-0.8125-1.6094-1.3281-2.6484-1.4375-1.0391-0.10938-2.0781 0.19922-2.8906 0.85938z"/>
  <path d="m555.75 423.88c-1.7656-1.207-4.1719-0.78125-5.418 0.95703-1.2461 1.7383-0.875 4.1523 0.83203 5.4375 6.1016 4.3594 11.875 9.1641 17.27 14.371 1.5625 1.4922 4.0352 1.4414 5.5391-0.10547 1.5039-1.5508 1.4805-4.0234-0.058594-5.543-5.6719-5.4805-11.746-10.535-18.164-15.117z"/>
  <path d="m524.38 405.74c-1.9727-0.91016-4.3125-0.042969-5.2227 1.9297-0.90625 1.9766-0.042969 4.3164 1.9336 5.2266 6.1055 2.8008 12.059 5.9258 17.836 9.3633 1.8672 1.1133 4.2812 0.5 5.3945-1.3672 1.1133-1.8672 0.5-4.2812-1.3672-5.3945-6.0117-3.5781-12.215-6.8359-18.574-9.7578z"/>
  <path d="m498.3 396.01c-2.1055-0.54297-4.2539 0.72266-4.7969 2.8281-0.54297 2.1055 0.72266 4.2539 2.8281 4.7969 0.042968 0 4.625 1.1797 11.77 3.8633 2.0352 0.76172 4.3047-0.27344 5.0664-2.3086 0.75781-2.0391-0.27344-4.3047-2.3125-5.0664-7.5586-2.832-12.355-4.0625-12.555-4.1133z"/>
  <path d="m203.05 283.41c7.168-0.10547 14.328 0.44141 21.398 1.6289 0.21484 0.039063 0.42969 0.054688 0.64844 0.054688 2.043-0.007812 3.7422-1.5781 3.9102-3.6133 0.16406-2.0352-1.2539-3.8633-3.2695-4.2031-7.5391-1.2617-15.18-1.8438-22.828-1.7383-2.1719 0.035157-3.9023 1.8242-3.8672 3.9961 0.058594 2.168 1.8398 3.8906 4.0078 3.875z"/>
  <path d="m239.8 288.57c7.1914 2.1133 14.215 4.7578 21.016 7.9102 0.95313 0.46484 2.0508 0.52734 3.0469 0.17188 1-0.35156 1.8125-1.0938 2.2539-2.0547 0.44531-0.96094 0.48438-2.0625 0.10547-3.0508-0.375-0.98828-1.1328-1.7852-2.1016-2.2109-7.1562-3.3203-14.547-6.1094-22.113-8.3398-2.0859-0.60938-4.2734 0.58984-4.8828 2.6758s0.58594 4.2734 2.6758 4.8828z"/>
  <path d="m273.84 303.2c5.832 3.332 11.48 6.9648 16.926 10.887 0.84766 0.61719 1.9062 0.86719 2.9414 0.69922 1.0352-0.16797 1.9609-0.73828 2.5703-1.5898 0.61328-0.85156 0.86719-1.9102 0.69922-2.9414-0.16797-1.0352-0.74219-1.9609-1.5938-2.5703-5.6797-4.0898-11.57-7.875-17.648-11.34-0.91016-0.53906-1.9961-0.6875-3.0156-0.41797-1.0195 0.26953-1.8906 0.94141-2.4102 1.8555-0.52344 0.91797-0.65625 2.0078-0.36719 3.0234 0.28906 1.0156 0.97266 1.875 1.8984 2.3789z"/>
  <path d="m311.04 331.02c1.5078 1.5664 4 1.6133 5.5664 0.10547s1.6133-4 0.10547-5.5625c-0.14453-0.14453-3.582-3.707-9.7891-8.9023v-0.003906c-1.668-1.3477-4.1094-1.1094-5.4883 0.53516-1.3789 1.6445-1.1836 4.0938 0.4375 5.5 5.8398 4.8828 9.125 8.2969 9.168 8.3281z"/>
  <path d="m311.87 193.82c6.1602 3.6641 11.977 7.8789 17.383 12.594 1.6406 1.4258 4.125 1.25 5.5508-0.39062s1.2539-4.1289-0.38672-5.5547c-5.7656-5.0156-11.969-9.5-18.539-13.406-1.8672-1.0469-4.2305-0.41406-5.3203 1.4258-1.0898 1.8438-0.50781 4.2188 1.3125 5.3516z"/>
  <path d="m354.25 235.19c1.207 1.8086 3.6484 2.2969 5.4609 1.0938 1.8086-1.207 2.2969-3.6523 1.0938-5.4609-4.3633-6.5703-9.2031-12.812-14.484-18.672-1.4609-1.6133-3.9492-1.7344-5.5625-0.27734-1.6094 1.457-1.7344 3.9492-0.27734 5.5586 5.0234 5.5703 9.625 11.508 13.77 17.758z"/>
  <path d="m361.84 247.71c3.2344 5.8906 6.1562 11.949 8.75 18.148 0.39453 0.97656 1.1641 1.75 2.1367 2.1562 0.96875 0.40234 2.0625 0.40234 3.0312-0.007813 0.97266-0.40625 1.7383-1.1836 2.1289-2.1602 0.39453-0.97656 0.37891-2.0703-0.039063-3.0352-2.7031-6.4531-5.7422-12.762-9.1133-18.895-1.0781-1.8359-3.4219-2.4805-5.2891-1.457-1.8672 1.0273-2.582 3.3555-1.6055 5.25z"/>
  <path d="m375.53 278.98c2.4258 7.2344 3.4492 11.852 3.4609 11.898 0.46484 2.125 2.5625 3.4688 4.6875 3.0039s3.4688-2.5625 3.0039-4.6875c-0.046875-0.20312-1.1133-5.0352-3.6836-12.715v0.003907c-0.69141-2.0664-2.9258-3.1797-4.9883-2.4922-2.0664 0.69141-3.1797 2.9258-2.4922 4.9883z"/>
  <path d="m217.12 451.29c-4.8203 5.9297-9.0977 12.285-12.773 18.988-0.51172 0.91406-0.63672 2-0.34375 3.0078 0.28906 1.0078 0.97266 1.8594 1.8945 2.3633 0.92188 0.5 2.0039 0.61719 3.0117 0.31641 1.0039-0.30078 1.8477-0.98828 2.3438-1.9141 3.4492-6.2812 7.4609-12.242 11.98-17.801 1.3711-1.6914 1.1133-4.1719-0.57812-5.5391-1.6875-1.3711-4.168-1.1094-5.5352 0.57812z"/>
  <path d="m246.56 423.87c-6.4219 4.5859-12.496 9.6406-18.172 15.121-1.4844 1.5273-1.4883 3.957-0.003907 5.4883 1.4844 1.5312 3.9141 1.6016 5.4844 0.16016 5.3945-5.207 11.168-10.012 17.27-14.371 1.7695-1.2656 2.1758-3.7227 0.91016-5.4922-1.2656-1.7656-3.7266-2.1719-5.4922-0.90625z"/>
  <path d="m277.95 405.74c-6.3594 2.9219-12.559 6.1797-18.574 9.7578-1.8672 1.1172-2.4727 3.5352-1.3555 5.4023 1.1172 1.8672 3.5352 2.4766 5.4023 1.3594 5.7734-3.4336 11.727-6.5625 17.832-9.3633 1.9766-0.91016 2.8398-3.2461 1.9336-5.2227s-3.2461-2.8438-5.2227-1.9336z"/>
  <path d="m304 396.01c-0.19922 0.046875-4.9961 1.2812-12.594 4.1133h-0.003906c-0.97656 0.36328-1.7695 1.1055-2.2031 2.0547-0.43359 0.94922-0.47266 2.0312-0.10547 3.0117 0.76172 2.0352 3.0273 3.0703 5.0664 2.3086 7.1484-2.668 11.727-3.8516 11.77-3.8633 2.0391-0.58984 3.2461-2.6953 2.7188-4.7539-0.52344-2.0625-2.5898-3.332-4.6641-2.8711z"/>
  <path d="m642.67 613.13h-38.613v-21.309c0.39453 0 0.78906 0.066407 1.1797 0.066407h0.003907c11.035-0.49609 21.18-6.1914 27.355-15.352 4.1992-6.1562 5.0898-11.922 2.4297-15.82-1.6953-2.4805-5.4102-5.043-13.508-3.1797l-0.003906 0.003906c-8.9258 1.6523-16.715 7.0547-21.395 14.832-4.6758-7.7773-12.465-13.18-21.391-14.832-8.0938-1.8633-11.809 0.70313-13.508 3.1797-2.6562 3.8984-1.7695 9.6641 2.4336 15.82l-0.003906-0.003906c6.1719 9.1641 16.316 14.859 27.352 15.352 0.39453 0 0.78906-0.050781 1.1797-0.066407v21.309h-113.36v-21.309c0.39453 0 0.78906 0.066407 1.1797 0.066407 11.035-0.49609 21.184-6.1875 27.355-15.352 4.2031-6.1562 5.0898-11.922 2.4297-15.82-1.6953-2.4805-5.4102-5.043-13.504-3.1797v0.003906c-8.9297 1.6523-16.719 7.0547-21.398 14.832-4.6758-7.7773-12.465-13.18-21.391-14.832-8.0977-1.8633-11.809 0.70313-13.508 3.1797-2.6602 3.8984-1.7734 9.6641 2.4297 15.82l-0.003906-0.003906c6.1719 9.1641 16.32 14.855 27.355 15.352 0.39453 0 0.78906-0.050781 1.1797-0.066407v21.309h-53.535v-193.03c0-2.1758-1.7617-3.9375-3.9375-3.9375-2.1719 0-3.9336 1.7617-3.9336 3.9375v193.03h-24.797v-204.8h54.852c5.5469-0.007813 10.867-2.2148 14.789-6.1406 3.9219-3.9219 6.125-9.2422 6.1289-14.793v-39.703c0-2.1719-1.7656-3.9336-3.9375-3.9336-2.1758 0-3.9375 1.7617-3.9375 3.9336v39.703c-0.007812 7.2031-5.8438 13.035-13.043 13.043h-4.75c0.46484-1.2578 0.71094-2.5898 0.72266-3.9336v-4.5938c0-6.5234-5.2852-11.809-11.809-11.809h-17.574l7.293-6.1562c2.4219-2.043 4.2461-4.7031 5.2852-7.6992l3.5938-10.383c1.3555-3.9219 1.2812-8.1992-0.20703-12.074s-4.3008-7.1016-7.9336-9.1055c-3.6367-2.0078-7.8633-2.6641-11.934-1.8555l-5.1172 1.0195-5.1172-1.0156c-4.5898-0.91797-9.3555 0.035156-13.246 2.6406s-6.582 6.6523-7.4805 11.242c-0.59375 3.0547-0.375 6.2109 0.64062 9.1523l3.5938 10.379c1.0352 2.9961 2.8633 5.6562 5.2812 7.6992l7.2812 6.1562h-17.586c-6.5195 0-11.809 5.2852-11.809 11.809v4.6094c0.015625 1.3438 0.26172 2.6758 0.72656 3.9375h-5.6484c-7.207-0.011719-13.043-5.8555-13.043-13.062v-39.703c0-2.1719-1.7617-3.9336-3.9375-3.9336-2.1719 0-3.9375 1.7617-3.9375 3.9336v39.703c0.007813 5.5469 2.2148 10.863 6.1367 14.785 3.918 3.918 9.2344 6.125 14.781 6.1328h23.078v204.79h-53.555v-21.309c0.39453 0 0.78906 0.066406 1.1797 0.066406 11.035-0.49609 21.184-6.1914 27.355-15.352 4.2031-6.1562 5.0898-11.922 2.4297-15.82-1.6953-2.4844-5.418-5.043-13.508-3.1797v0.003907c-8.9258 1.6523-16.715 7.0547-21.395 14.832-4.6758-7.7812-12.469-13.18-21.395-14.832-8.0938-1.8633-11.809 0.70312-13.504 3.1797-2.6602 3.8984-1.7734 9.6641 2.4297 15.82l-0.003906-0.003907c6.1719 9.1641 16.32 14.859 27.355 15.352 0.39453 0 0.78906-0.050782 1.1797-0.066406v21.309h-113.36v-21.309c0.39453 0 0.78906 0.066406 1.1797 0.066406h0.003906c11.031-0.49609 21.18-6.1914 27.352-15.352 4.2031-6.1562 5.0898-11.922 2.4336-15.82-1.6953-2.4844-5.4219-5.043-13.508-3.1797l-0.003906 0.003907c-8.9258 1.6523-16.715 7.0547-21.395 14.832-4.6797-7.7773-12.469-13.18-21.395-14.832-8.0977-1.8633-11.809 0.70312-13.508 3.1797-2.6562 3.8984-1.7695 9.6641 2.4297 15.82v-0.003907c6.1719 9.1641 16.32 14.855 27.355 15.352 0.39453 0 0.78906-0.050782 1.1797-0.066406v21.309h-38.594c-2.1719 0-3.9336 1.7617-3.9336 3.9375 0 2.1719 1.7617 3.9336 3.9336 3.9336h483.04c2.1758 0 3.9375-1.7617 3.9375-3.9336 0-2.1758-1.7617-3.9375-3.9375-3.9375zm-19.391-47.926c3.7734-0.86719 5.1172-0.21484 5.2383-0.050781 0.29688 0.43359 0.27344 2.9844-2.4297 6.9414l0.003906 0.003906c-4.8398 7.3633-13.039 11.828-21.852 11.895 0.72266-5.2031 4.0859-15.34 19.043-18.789zm-49.133 6.8906c-2.6992-3.9609-2.7227-6.5078-2.4297-6.9414 0.070312-0.10156 0.61719-0.39453 1.9219-0.39453l0.003906 0.003907c1.1172 0.019531 2.2305 0.16797 3.3164 0.4375 14.805 3.4141 18.234 13.562 19.012 18.785v0.003906c-8.8047-0.070312-16.992-4.5312-21.82-11.891zm-72.078-6.8906c3.7656-0.86719 5.1172-0.21484 5.2344-0.050781 0.30078 0.43359 0.27734 2.9844-2.4297 6.9414l0.007812 0.003906c-4.8398 7.3672-13.039 11.828-21.852 11.895 0.72656-5.2031 4.082-15.34 19.043-18.789zm-49.133 6.8906c-2.7031-3.9609-2.7227-6.5078-2.4336-6.9414 0.070313-0.10156 0.62109-0.39453 1.9219-0.39453l0.003907 0.003907c1.1211 0.019531 2.2305 0.16797 3.3203 0.4375 14.809 3.4141 18.238 13.562 19.012 18.785l-0.003907 0.003906c-8.8008-0.074219-16.984-4.5352-21.816-11.891zm-45.125-231.53c3.4258-0.68359 6.9531 0.51953 9.2461 3.1523 2.2969 2.6328 3.0078 6.2891 1.8633 9.5898l-3.5742 10.367c-0.57422 1.6562-1.582 3.1289-2.918 4.2617l-7.3203 6.1797v-33.016zm-20.832 23.121-3.5938-10.379-0.003907-0.003906c-1.0273-2.9727-0.55469-6.2617 1.2695-8.8281 1.8203-2.5664 4.7695-4.0938 7.918-4.1016 0.64844 0 1.293 0.066406 1.9258 0.19141l2.7188 0.54297v33.016l-7.3164-6.1797c-1.3398-1.1367-2.3477-2.6094-2.9219-4.2695zm-16.375 32.852v-4.6211c0-2.1758 1.7617-3.9375 3.9336-3.9375h53.227c1.0469 0 2.0469 0.41797 2.7852 1.1523 0.73828 0.73828 1.1523 1.7422 1.1523 2.7852v4.6094c0 1.043-0.41406 2.043-1.1523 2.7812-0.73828 0.73828-1.7383 1.1562-2.7852 1.1562h-53.227c-2.1719 0-3.9336-1.7656-3.9336-3.9375zm-24.047 168.68c3.7656-0.86719 5.1172-0.21484 5.2344-0.050781 0.29688 0.43359 0.27734 2.9844-2.4297 6.9414l0.003907-0.003906c-4.8398 7.3477-13.02 11.809-21.82 11.895 0.77344-5.2305 4.207-15.383 19.012-18.797zm-49.133 6.8789c-2.7031-3.9609-2.7266-6.5078-2.4336-6.9414 0.070312-0.10156 0.61719-0.39453 1.9219-0.39453 1.1211 0.019531 2.2305 0.16797 3.3164 0.4375 14.805 3.4141 18.234 13.562 19.012 18.785v0.003906c-8.8008-0.074219-16.984-4.5352-21.816-11.891zm-72.082-6.8906c3.7695-0.86719 5.1172-0.21484 5.2383-0.050781 0.29688 0.43359 0.27344 2.9844-2.4297 6.9414h0.003906c-4.8398 7.3516-13.02 11.812-21.82 11.895 0.77344-5.2227 4.207-15.375 19.012-18.789zm-49.133 6.8906c-2.6992-3.9609-2.7227-6.5078-2.4297-6.9414 0.070312-0.10156 0.61719-0.39453 1.918-0.39453 1.1211 0.019531 2.2344 0.16797 3.3242 0.4375 14.805 3.4141 18.234 13.562 19.012 18.785v0.003906c-8.8047-0.0625-16.996-4.5273-21.824-11.891z"/>
 </g>
</svg>