<?xml version="1.0" encoding="UTF-8"?>
<!-- The Best Svg Icon site in the world: iconSvg.co, Visit us! https://iconsvg.co -->
<svg fill="#000000" width="800px" height="800px" version="1.1" viewBox="144 144 512 512" xmlns="http://www.w3.org/2000/svg">
 <g>
  <path d="m203.5 601.52h392.97c2.7852 0 5.0391-2.2539 5.0391-5.0391 0-2.7812-2.2539-5.0391-5.0391-5.0391h-102.64v-99.09c6.1562 3.6914 13.172 5.6523 20.316 5.6523 4.5469 0 9.1367-0.78516 13.578-2.4023 13.418-4.8828 22.996-16.449 25.453-30.238 14.008-0.027344 27.059-7.4531 34.203-19.816 7.1328-12.363 7.0352-27.379 0.058594-39.523 10.715-9.0273 15.941-23.105 13.457-37.16-2.4766-14.059-12.203-25.5-25.359-30.316 2.4062-13.797-2.6367-27.941-13.574-37.117-10.934-9.1797-25.742-11.699-38.914-6.9219-7.0312-12.117-19.984-19.711-34.258-19.711-10.84 0-21.238 4.5312-28.664 12.297-4.7734-4.3477-10.43-7.7656-16.727-9.918 3.3398-17.023-2.7461-34.609-16.246-45.938-13.504-11.332-31.883-14.27-48.059-8.0234-8.3828-15.184-24.348-24.742-41.969-24.742-17.629 0-33.594 9.5625-41.973 24.746-16.176-6.2461-34.559-3.3086-48.059 8.0234-13.5 11.332-19.582 28.918-16.242 45.938-16.41 5.6133-28.602 19.676-31.66 37.035s3.582 34.742 17.078 45.629c-8.9531 14.852-9.2539 33.457-0.44141 48.723 8.8164 15.266 25.199 24.195 42.422 23.977 2.6797 17.133 14.41 31.578 30.977 37.605 14.52 5.2969 30.367 3.2227 42.863-5.0625l-0.003906 126.36h-128.59c-2.7852 0-5.0391 2.2539-5.0391 5.0391 0 2.7812 2.2539 5.0391 5.0391 5.0391zm285.3-316.64c11.926 0 22.617 7.1055 27.242 18.105 0.54688 1.293 1.6055 2.3008 2.9219 2.7812 1.3125 0.47656 2.7812 0.38672 4.0234-0.25391 10.613-5.4531 23.371-4.0234 32.508 3.6445 9.1367 7.6641 12.758 19.984 9.2305 31.379-0.41797 1.3398-0.25 2.793 0.44922 4.0117 0.70312 1.2148 1.8789 2.082 3.2461 2.3945 11.637 2.6406 20.492 11.938 22.562 23.684 2.0703 11.742-3.0703 23.508-13.102 29.969-1.1758 0.76172-1.9883 1.9766-2.2305 3.3594-0.24609 1.3828 0.097656 2.8047 0.94531 3.9219 7.2109 9.5039 8.0234 22.316 2.0625 32.645-5.9648 10.328-17.484 16.055-29.297 14.539-1.3906-0.18359-2.8008 0.23438-3.8711 1.1406-1.0781 0.90234-1.7266 2.2109-1.7969 3.6133-0.58203 11.918-8.1953 22.254-19.406 26.332-11.191 4.0781-23.676 1.0625-31.793-7.6992-1.9102-2.0547-5.4805-2.0547-7.3906 0-8.1094 8.75-20.574 11.781-31.793 7.6953-11.207-4.0781-18.824-14.414-19.406-26.328-0.070312-1.4023-0.71875-2.7109-1.7969-3.6133-1.0742-0.90234-2.4883-1.3203-3.8711-1.1406-6.6719 0.85156-13.484-0.67969-19.191-4.1797 3.5039-5.4922 5.9297-11.703 6.9648-18.332 17.285 0.21484 33.598-8.7109 42.422-23.977 8.8125-15.27 8.5117-33.875-0.44922-48.723 13.5-10.887 20.141-28.273 17.078-45.629-1.2695-7.2031-4.1797-13.781-8.2422-19.48 5.6055-6.2812 13.461-9.8594 21.98-9.8594zm-196.12 175.8c-14.371-5.2266-24.137-18.48-24.879-33.758-0.070312-1.4023-0.71875-2.7109-1.7969-3.6133-1.0742-0.89844-2.5195-1.3125-3.8672-1.1406-15.199 1.9219-29.93-5.4023-37.57-18.641-7.6445-13.242-6.6133-29.672 2.6367-41.855 0.84766-1.1172 1.1914-2.5391 0.94531-3.9219-0.24219-1.3828-1.0547-2.6016-2.2305-3.3594-12.855-8.2812-19.449-23.363-16.797-38.426 2.6602-15.059 14.012-26.98 28.93-30.367 1.3672-0.30859 2.543-1.1758 3.2461-2.3945 0.69922-1.2148 0.86719-2.668 0.44922-4.0078-4.5234-14.613 0.12109-30.406 11.832-40.234 11.715-9.832 28.07-11.664 41.684-4.668 1.2461 0.63672 2.7109 0.73438 4.0234 0.25 1.3203-0.48047 2.3828-1.4883 2.9219-2.7812 5.9258-14.098 19.637-23.211 34.93-23.211 15.285 0 29 9.1133 34.926 23.211 0.54688 1.293 1.6055 2.3008 2.9219 2.7812 1.3203 0.47656 2.7812 0.39062 4.0234-0.25391 13.609-6.9922 29.957-5.1602 41.676 4.6719 11.715 9.8281 16.359 25.621 11.836 40.234-0.41797 1.3398-0.25 2.793 0.44922 4.0078 0.70312 1.2148 1.8789 2.082 3.2461 2.3945 14.918 3.3906 26.27 15.309 28.926 30.363v0.003906c2.6562 15.059-3.9375 30.141-16.797 38.426-1.1758 0.76172-1.9883 1.9766-2.2305 3.3594-0.24609 1.3828 0.097657 2.8047 0.94531 3.9219 9.25 12.184 10.289 28.609 2.6406 41.855-7.6523 13.246-22.383 20.566-37.57 18.641-1.3633-0.17969-2.793 0.23438-3.8672 1.1406-1.0781 0.90234-1.7266 2.2109-1.7969 3.6133-0.74219 15.277-10.508 28.527-24.879 33.758-14.371 5.2188-30.367 1.3555-40.762-9.8633-0.94922-1.0312-2.293-1.6172-3.6953-1.6172s-2.7461 0.58594-3.6953 1.6172c-10.391 11.223-26.391 15.086-40.754 9.8633zm49.492 4.3555c7.8711 5.2266 17.055 8.0234 26.422 8.0234 5.5039 0 11.066-0.95312 16.441-2.9102 6.8164-2.4805 12.75-6.4453 17.633-11.375 6.4453 4.25 14.031 6.5547 21.742 6.5898 2.4609 13.793 12.039 25.363 25.457 30.246 11.426 4.1641 23.824 2.7656 33.895-3.2812v99.117h-141.59z"/>
  <path d="m337.14 307.64c14.656 0 26.578-11.922 26.578-26.574s-11.922-26.578-26.578-26.578-26.578 11.922-26.578 26.578c0 14.652 11.922 26.574 26.578 26.574zm0-43.078c9.0977 0 16.5 7.4023 16.5 16.5s-7.4062 16.5-16.5 16.5c-9.0977 0-16.5-7.4023-16.5-16.5-0.003907-9.0977 7.4023-16.5 16.5-16.5z"/>
  <path d="m280.8 312.84c-14.656 0-26.578 11.922-26.578 26.574 0 14.652 11.922 26.578 26.578 26.578 14.652 0 26.574-11.922 26.574-26.578s-11.922-26.574-26.574-26.574zm0 43.074c-9.0977 0-16.5-7.4023-16.5-16.5 0-9.0977 7.4062-16.5 16.5-16.5 9.0977 0 16.496 7.4023 16.496 16.5 0 9.0977-7.3984 16.5-16.496 16.5z"/>
  <path d="m393.47 365.99c14.656 0 26.578-11.922 26.578-26.578 0-14.652-11.922-26.574-26.578-26.574s-26.578 11.922-26.578 26.574c0 14.652 11.922 26.578 26.578 26.578zm0-43.078c9.0977 0 16.5 7.4023 16.5 16.5 0 9.0977-7.4062 16.5-16.5 16.5-9.0977 0-16.5-7.4023-16.5-16.5 0-9.0977 7.4023-16.5 16.5-16.5z"/>
  <path d="m363.71 395.9c0-14.652-11.922-26.574-26.578-26.574s-26.578 11.922-26.578 26.574 11.922 26.578 26.578 26.578 26.578-11.922 26.578-26.578zm-43.082 0c0-9.0977 7.4062-16.5 16.5-16.5 9.0977 0 16.5 7.4023 16.5 16.5s-7.4062 16.5-16.5 16.5c-9.0938 0.003906-16.5-7.3984-16.5-16.5z"/>
  <path d="m521.09 387.53c14.656 0 26.578-11.922 26.578-26.574s-11.922-26.578-26.578-26.578c-14.652 0-26.574 11.922-26.574 26.578s11.922 26.574 26.574 26.574zm0-43.074c9.0977 0 16.5 7.4023 16.5 16.5s-7.4062 16.5-16.5 16.5c-9.0977 0-16.496-7.4023-16.496-16.5s7.3984-16.5 16.496-16.5z"/>
  <path d="m494.64 461.13c14.652 0 26.574-11.922 26.574-26.574 0-14.652-11.922-26.578-26.574-26.578-14.656 0-26.578 11.922-26.578 26.578 0 14.652 11.922 26.574 26.578 26.574zm0-43.078c9.0977 0 16.496 7.4023 16.496 16.5 0 9.0977-7.3984 16.5-16.496 16.5s-16.5-7.4023-16.5-16.5c-0.003906-9.0977 7.4023-16.5 16.5-16.5z"/>
  <path d="m238.62 519.54c4.5078 0 9.0742-1.1445 13.246-3.5547 6.1484-3.5508 10.543-9.2812 12.383-16.141 1.8359-6.8555 0.89062-14.016-2.6562-20.164-7.332-12.691-23.621-17.047-36.305-9.7305-12.688 7.3281-17.055 23.613-9.7266 36.305 4.918 8.5195 13.867 13.285 23.059 13.285zm-15.98-30.844c1.1367-4.2539 3.8672-7.8164 7.6836-10.016 2.543-1.4688 5.3633-2.2188 8.2227-2.2188 1.4375 0 2.8789 0.1875 4.3008 0.56641 4.2539 1.1406 7.8125 3.8711 10.016 7.6914 2.2031 3.8164 2.7891 8.2617 1.6484 12.52-1.1367 4.2578-3.8672 7.8164-7.6836 10.02-3.8242 2.2109-8.2695 2.7852-12.52 1.6523-4.2539-1.1406-7.8125-3.8711-10.016-7.6914-2.207-3.8203-2.793-8.2656-1.6523-12.523z"/>
  <path d="m564.17 500.66c-14.656 0-26.578 11.922-26.578 26.574s11.922 26.578 26.578 26.578 26.578-11.922 26.578-26.578c0-14.652-11.918-26.574-26.578-26.574zm0 43.078c-9.0977 0-16.5-7.4023-16.5-16.5 0-9.0977 7.4062-16.5 16.5-16.5 9.0977 0 16.5 7.4023 16.5 16.5 0.003906 9.0977-7.4023 16.5-16.5 16.5z"/>
  <path d="m400.01 509.47c-14.656 0-26.578 11.922-26.578 26.578 0 14.652 11.922 26.574 26.578 26.574s26.578-11.922 26.578-26.574c0-14.656-11.918-26.578-26.578-26.578zm0 43.074c-9.0977 0-16.5-7.4023-16.5-16.5s7.4062-16.5 16.5-16.5c9.0977 0 16.5 7.4023 16.5 16.5 0.003906 9.0977-7.4023 16.5-16.5 16.5z"/>
 </g>
</svg>