<?xml version="1.0" encoding="UTF-8"?>
<!-- The Best Svg Icon site in the world: iconSvg.co, Visit us! https://iconsvg.co -->
<svg fill="#000000" width="800px" height="800px" version="1.1" viewBox="144 144 512 512" xmlns="http://www.w3.org/2000/svg">
 <g>
  <path d="m601.2 500.31c-0.82812-22.164-18.715-39.945-40.641-39.945-20.773 0-37.938 15.965-40.387 36.492l-96.555 0.003906v-96.352h17.258c2.7852 0 5.0391-2.2539 5.0391-5.0391v-30.406c0-2.7812-2.2539-5.0391-5.0391-5.0391h-9.8242v-15.504c0-8.2188-6.6875-14.906-14.906-14.906h-32.297c-8.2227 0-14.906 6.6875-14.906 14.906v15.504h-9.8242c-2.7852 0-5.0391 2.2539-5.0391 5.0391v30.406c0 2.7812 2.2539 5.0391 5.0391 5.0391h17.258v96.348l-96.559 0.003906c-2.4492-20.527-19.613-36.492-40.387-36.492-21.926 0-39.812 17.781-40.641 39.945-0.16797 0.50391-0.31641 1.0234-0.31641 1.582 0 2.7812 2.2539 5.0391 5.0391 5.0391h392.97c2.7852 0 5.0391-2.2539 5.0391-5.0391 0-0.5625-0.15234-1.0781-0.32031-1.5859zm-40.641-29.867c15.223 0 27.852 11.465 30.211 26.414h-60.422c2.3594-14.949 14.992-26.414 30.211-26.414zm-181.54-125.92c0-2.6602 2.168-4.8281 4.832-4.8281h32.297c2.6602 0 4.832 2.168 4.832 4.8281v15.504h-41.957zm-14.863 25.578h71.684v20.332h-71.68zm-124.72 100.34c15.223 0 27.852 11.465 30.211 26.414h-60.422c2.3594-14.949 14.988-26.414 30.211-26.414zm147.02 26.418v-96.352h27.09v96.348z"/>
  <path d="m323.54 316.25c0.98438 1.0078 2.293 1.5156 3.6016 1.5156 1.2695 0 2.543-0.47656 3.5234-1.4375 1.9883-1.9453 2.0273-5.1328 0.078125-7.125l-14.297-14.621c-1.9336-1.9844-5.1328-2.0234-7.125-0.078125-1.9883 1.9453-2.0273 5.1328-0.078125 7.125z"/>
  <path d="m283.77 342.22 18.48 3.9922c0.35938 0.078125 0.71484 0.11328 1.0664 0.11328 2.3203 0 4.4102-1.6133 4.9219-3.9727 0.58594-2.7227-1.1406-5.4023-3.8633-5.9883l-18.48-3.9922c-2.707-0.56641-5.3984 1.1406-5.9883 3.8594-0.58594 2.7188 1.1406 5.3984 3.8633 5.9883z"/>
  <path d="m284.83 397.87c0.35547 0 0.70703-0.035157 1.0664-0.11328l18.48-3.9922c2.7227-0.58984 4.4492-3.2695 3.8633-5.9883-0.58594-2.7188-3.2617-4.4258-5.9883-3.8594l-18.48 3.9922c-2.7227 0.58984-4.4492 3.2695-3.8633 5.9883 0.51172 2.3594 2.5977 3.9727 4.9219 3.9727z"/>
  <path d="m320.96 416.52-11.723 11.988c-1.9453 1.9883-1.9102 5.1797 0.078124 7.125 0.98047 0.96094 2.2539 1.4375 3.5234 1.4375 1.3086 0 2.6133-0.50781 3.6016-1.5156l11.723-11.988c1.9492-1.9883 1.9102-5.1797-0.078125-7.125-1.9844-1.9492-5.1719-1.9062-7.125 0.078125z"/>
  <path d="m478.09 317.76c1.3086 0 2.6172-0.50781 3.6016-1.5156l14.297-14.621c1.9492-1.9883 1.9102-5.1797-0.078126-7.125-1.9883-1.9453-5.1875-1.9062-7.125 0.078125l-14.297 14.621c-1.9492 1.9883-1.9102 5.1797 0.078124 7.125 0.98047 0.96094 2.2539 1.4375 3.5234 1.4375z"/>
  <path d="m496.99 342.36c0.51172 2.3594 2.5977 3.9727 4.9219 3.9727 0.35547 0 0.70703-0.035156 1.0664-0.11328l18.48-3.9922c2.7227-0.58984 4.4492-3.2695 3.8633-5.9883-0.58984-2.7188-3.2656-4.4297-5.9883-3.8594l-18.48 3.9922c-2.7227 0.58594-4.4492 3.2656-3.8633 5.9883z"/>
  <path d="m500.86 393.76 18.48 3.9922c0.35937 0.078125 0.71484 0.11328 1.0664 0.11328 2.3203 0 4.4102-1.6133 4.9219-3.9727 0.58594-2.7227-1.1406-5.4023-3.8633-5.9883l-18.48-3.9922c-2.7109-0.56641-5.3984 1.1406-5.9883 3.8594-0.58594 2.7188 1.1406 5.3984 3.8633 5.9883z"/>
  <path d="m484.27 416.52c-1.9492-1.9844-5.1367-2.0273-7.125-0.078125-1.9883 1.9453-2.0273 5.1328-0.078125 7.125l11.723 11.988c0.98828 1.0078 2.293 1.5156 3.6016 1.5156 1.2695 0 2.543-0.47656 3.5234-1.4375 1.9883-1.9453 2.0234-5.1328 0.078126-7.125z"/>
 </g>
</svg>