<?xml version="1.0" encoding="UTF-8"?>
<!-- The Best Svg Icon site in the world: iconSvg.co, Visit us! https://iconsvg.co -->
<svg fill="#000000" width="800px" height="800px" version="1.1" viewBox="144 144 512 512" xmlns="http://www.w3.org/2000/svg">
 <g>
  <path d="m553.19 369.96-23.93 3.3047-17.082-59.984c-0.86719-2.9141-3.2266-5.0391-6.2188-5.5898l-104.54-18.973c-0.94531-0.23828-1.9688-0.23828-2.9141 0l-96.746 18.973c-2.9141 0.62891-5.1953 2.7539-6.0625 5.5898l-17.164 60.145-31.723-3.6992 25.586-89.27 127.61-36.918 127.61 36.918z"/>
  <path d="m447.23 375.4v-31.488c0-4.3281-3.543-7.8711-7.8711-7.8711h-78.719c-4.3281 0-7.8711 3.543-7.8711 7.8711v31.488h-58.41l15.191-53.137 90.527-17.789 98.32 17.871 15.113 53.055z"/>
  <path d="m435.11 556.45h-70.219l35.109-32.59z"/>
  <path d="m447.23 480.02v66.285l-35.66-33.141z"/>
  <path d="m388.43 513.16-35.66 33.141v-66.285z"/>
  <path d="m435.11 469.86-35.109 32.59-35.109-32.59z"/>
  <path d="m518.08 391.14v165.31h-55.105v-94.465c0-4.3281-3.543-7.8711-7.8711-7.8711h-110.21c-4.3281 0-7.8711 3.543-7.8711 7.8711v94.465h-47.23v-165.31h62.977v31.488c0 4.3281 3.543 7.8711 7.8711 7.8711h78.719c4.3281 0 7.8711-3.543 7.8711-7.8711v-31.488z"/>
 </g>
</svg>