<?xml version="1.0" encoding="UTF-8"?>
<!-- The Best Svg Icon site in the world: iconSvg.co, Visit us! https://iconsvg.co -->
<svg fill="#000000" width="800px" height="800px" version="1.1" viewBox="144 144 512 512" xmlns="http://www.w3.org/2000/svg">
 <g>
  <path d="m596.48 349.62h-10.977v-69.281c0-45.137-36.723-81.859-81.863-81.859h-207.29c-45.141 0-81.863 36.723-81.863 81.863v69.277h-10.977c-2.7852 0-5.0391 2.2539-5.0391 5.0391v241.83c0 2.7812 2.2539 5.0391 5.0391 5.0391h392.97c2.7852 0 5.0391-2.2539 5.0391-5.0391v-241.83c0-2.7812-2.2539-5.0391-5.0391-5.0391zm-371.92-69.281c0-39.582 32.199-71.785 71.785-71.785h207.29c39.586 0 71.789 32.203 71.789 71.785v69.281h-32.383v-64.129c0-26.23-21.34-47.57-47.566-47.57h-190.96c-26.23 0-47.566 21.34-47.566 47.57v64.129h-32.383zm308.41 69.281h-265.95v-64.129c0-20.676 16.816-37.492 37.492-37.492h190.96c20.676 0 37.492 16.82 37.492 37.492zm-324.42 241.83v-45.805h56.719c2.7852 0 5.0391-2.2539 5.0391-5.0391 0-2.7812-2.2539-5.0391-5.0391-5.0391l-56.719 0.003906v-119.99h56.719c2.7852 0 5.0391-2.2539 5.0391-5.0391 0-2.7812-2.2539-5.0391-5.0391-5.0391h-56.719v-45.801h382.89v110.84l-54.105-0.003906c-2.7852 0-5.0391 2.2539-5.0391 5.0391 0 2.7812 2.2539 5.0391 5.0391 5.0391h54.105v110.84z"/>
  <path d="m477.14 443.27c-16.625-2.3398-30.977-0.85938-43.008 4.2188-0.68359-13.305-5.5117-39.145-30.945-58.852-1.8125-1.4062-4.3594-1.4062-6.168 0-25.434 19.711-30.266 45.551-30.949 58.855-12.027-5.0742-26.379-6.5547-43.008-4.2188-2.4844 0.34766-4.3359 2.4766-4.3359 4.9883 0 43.188 33.816 78.625 76.359 81.223l-0.003907 29.215c0 2.7812 2.2539 5.0391 5.0391 5.0391s5.0391-2.2539 5.0391-5.0391v-29.219c42.523-2.6211 76.312-38.051 76.312-81.223 0-2.5117-1.8477-4.6406-4.332-4.9883zm-82.059 76.113c-35.512-2.4805-63.941-31.086-66.145-66.672 19.207-1.8984 34.598 2.0508 45.77 11.73 18.164 15.742 20.137 42.316 20.348 47.406-0.015626 0.45703-0.015626 0.74609-0.015626 0.85547 0 0.21484 0.015626 0.42578 0.039063 0.63281zm5.0195-33.883c-3.4141-9.7031-9.1406-20.285-18.73-28.621-1.6953-1.4766-3.4766-2.8203-5.3203-4.0742-0.26172-7.7422 0.76953-33.613 24.051-53.688 23.285 20.074 24.309 45.949 24.047 53.688-1.8398 1.2539-3.6211 2.5977-5.3164 4.0703-9.5898 8.3398-15.316 18.918-18.73 28.625zm5.0586 33.879v-6.6797c0-0.10938 0-0.39844-0.015625-0.85156 0.21094-5.1016 2.1875-31.672 20.348-47.41 11.172-9.6836 26.562-13.629 45.766-11.73-2.1953 35.578-30.605 64.172-66.098 66.672z"/>
 </g>
</svg>