<?xml version="1.0" encoding="UTF-8"?>
<!-- The Best Svg Icon site in the world: iconSvg.co, Visit us! https://iconsvg.co -->
<svg fill="#000000" width="800px" height="800px" version="1.1" viewBox="144 144 512 512" xmlns="http://www.w3.org/2000/svg">
 <path d="m580.42 307.23-6.2266 2.5078c-24.137 9.7148-39.996 32.301-41.141 58.055l-27.816 16.047v-87.652h-17.754c-14.055-53.332-62.805-91.41-118.56-91.41l-7.3086 0.070312v91.34h-106.97v49.969c-45.398 14.59-76.742 57.074-76.742 105.11 0 48.027 31.348 90.516 76.746 105.11v45.16h250.59v-93.57l57.32-82.297c10.387 6.8672 22.812 10.898 36.18 10.898 5.4102 0 10.988-0.73438 16.555-2.1797l6.5039-1.6875zm-313.18 25.691h225.4v109.64l-225.4-0.003906zm-12.594 169.91c-17.219-11.285-27.93-30.586-27.93-51.57 0-21.07 10.695-40.289 27.93-51.559zm12.594-47.672h225.4v110.93l-225.4-0.003906zm106.96-237.66c46.719 2.2539 87.141 34.172 100.32 78.691h-100.32zm118.44 91.285v11.543h-225.41v-11.543zm-302.14 142.48c0-41.195 25.996-77.855 64.148-91.879v25.746c-24.781 12.645-40.527 38.051-40.527 66.137 0 27.965 15.789 53.449 40.527 66.105v25.773c-38.156-14.031-64.148-50.688-64.148-91.883zm76.738 137.67v-10.254h225.4l0.003906 10.254zm238-103.01v-87.539l28.703-16.559c2.3789 13.945 9.1055 26.41 18.793 35.906zm93.492-61.953c-29.332 0-53.203-23.867-53.203-53.203 0-19.539 10.508-37.117 27.266-46.43l32.695 99.164c-2.2734 0.3125-4.5352 0.46875-6.7578 0.46875z"/>
</svg>