<?xml version="1.0" encoding="UTF-8"?>
<!-- The Best Svg Icon site in the world: iconSvg.co, Visit us! https://iconsvg.co -->
<svg fill="#000000" width="800px" height="800px" version="1.1" viewBox="144 144 512 512" xmlns="http://www.w3.org/2000/svg">
 <g>
  <path d="m278.1 421.37c0 22.488 17.973 40.852 40.305 41.492 7.4336 12.055 20.48 19.422 34.781 19.422 1.2812 0 2.5156-0.1875 3.7695-0.30469 4.8555 6.1367 23.656 32.348 23.656 70.285 0 2.7812 2.2539 5.0391 5.0391 5.0391h28.703c2.7852 0 5.0391-2.2539 5.0391-5.0391 0-37.938 18.801-64.148 23.656-70.285 1.2539 0.11719 2.4883 0.30469 3.7695 0.30469 14.297 0 27.344-7.3672 34.781-19.422 22.332-0.64062 40.305-19.008 40.305-41.492 0-19.82-14.047-36.602-32.934-40.574 0.53125-2.6953 0.79688-5.418 0.79688-8.1445 0-23.68-19.266-42.945-42.945-42.945-4.3086 0-8.5469 0.67188-12.66 1.9492-7.4375-10.941-19.973-18.148-34.164-18.148s-26.73 7.2031-34.152 18.148c-4.1133-1.2773-8.3516-1.9492-12.66-1.9492-23.68 0-42.945 19.266-42.945 42.945 0 2.7266 0.26562 5.4492 0.79687 8.1445-18.891 3.9727-32.938 20.754-32.938 40.574zm131.31 125.86h-18.824c-1.3203-33.426-15.48-57.395-22.863-67.723 11.332-4.332 20.406-13.496 24.285-25.309 5.2852 1.0664 10.695 1.0664 15.98 0 3.8789 11.812 12.953 20.977 24.289 25.309-7.3867 10.328-21.543 34.293-22.867 67.723zm-87.27-163.86c-1.2109-3.5117-1.8242-7.1172-1.8242-10.719 0-18.125 14.746-32.871 32.871-32.871 2.7188 0 5.4062 0.375 8.0391 1.0469-1.5742 4.3594-2.4766 9.0352-2.4766 13.93 0 2.7812 2.2539 5.0391 5.0391 5.0391 2.7852 0 5.0391-2.2539 5.0391-5.0391 0-17.188 13.984-31.172 31.172-31.172 17.191 0 31.172 13.984 31.172 31.172 0 2.7812 2.2539 5.0391 5.0391 5.0391 2.7852 0 5.0391-2.2539 5.0391-5.0391 0-4.8945-0.90234-9.5703-2.4727-13.93 2.6328-0.67188 5.3164-1.0469 8.0391-1.0469 18.125 0 32.871 14.746 32.871 32.871 0 3.6016-0.61328 7.207-1.8242 10.719-0.51172 1.4883-0.30078 3.1328 0.57422 4.4414 0.87109 1.3086 2.3086 2.1328 3.8828 2.2305 16.547 1.0039 29.504 14.766 29.504 31.328 0 17.332-14.102 31.434-31.43 31.434l-1.4805-0.082031c-1.8008-0.035156-3.793 0.98047-4.6953 2.7266-5.3242 10.336-15.824 16.758-27.406 16.758-14.82 0-27.547-10.566-30.27-25.121-0.26953-1.4375-1.1523-2.6875-2.4141-3.4258-1.2578-0.74219-2.7852-0.88672-4.168-0.41406-6.5234 2.2305-13.402 2.2305-19.926 0-1.3828-0.47266-2.9023-0.32422-4.168 0.41406-1.2656 0.73828-2.1445 1.9883-2.4141 3.4258-2.7227 14.555-15.449 25.121-30.27 25.121-11.582 0-22.082-6.4219-27.406-16.758-0.89844-1.7461-2.8398-2.7539-4.6953-2.7266l-1.4805 0.082031c-17.328 0-31.43-14.102-31.43-31.434 0-16.562 12.961-30.324 29.504-31.328 1.5742-0.097656 3.0117-0.92187 3.8828-2.2305 0.87891-1.3125 1.0938-2.9531 0.58203-4.4414z"/>
  <path d="m354.37 402.93c15.066 0 27.324 12.258 27.324 27.328 0 2.7812 2.2539 5.0391 5.0391 5.0391s5.0391-2.2539 5.0391-5.0391c0-20.625-16.777-37.406-37.402-37.406-2.7852 0-5.0391 2.2539-5.0391 5.0391s2.2539 5.0391 5.0391 5.0391z"/>
  <path d="m446.13 432.6c0.46875 0 0.94922-0.070312 1.4219-0.20703 2.6719-0.78906 4.1953-3.5859 3.4102-6.2539-4.1875-14.23 3.9805-29.207 18.203-33.395 2.6719-0.78906 4.1953-3.5859 3.4102-6.2539-0.78125-2.6602-3.5664-4.1836-6.2539-3.4102-19.551 5.7578-30.781 26.348-25.023 45.906 0.64453 2.1914 2.6523 3.6133 4.832 3.6133z"/>
  <path d="m285.12 198.48c-2.7852 0-5.0391 2.2539-5.0391 5.0391v16.367h-47.98c-2.7852 0-5.0391 2.2539-5.0391 5.0391v371.56c0 2.7812 2.2539 5.0391 5.0391 5.0391h335.74c2.7852 0 5.0391-2.2539 5.0391-5.0391v-371.57c0-2.7812-2.2539-5.0391-5.0391-5.0391h-47.98v-16.367c0-2.7812-2.2539-5.0391-5.0391-5.0391-2.7852 0-5.0391 2.2539-5.0391 5.0391v16.367h-66.492v-16.367c0-2.7812-2.2539-5.0391-5.0391-5.0391s-5.0391 2.2539-5.0391 5.0391v16.367h-66.488v-16.367c0-2.7812-2.2539-5.0391-5.0391-5.0391s-5.0391 2.2539-5.0391 5.0391v16.367h-66.492v-16.367c0-2.7812-2.25-5.0352-5.0352-5.0352zm71.531 31.48v14.633c-9.6797 2.2891-16.926 10.953-16.926 21.32 0 12.109 9.8555 21.965 21.965 21.965s21.957-9.8516 21.957-21.965c0-10.367-7.2422-19.031-16.922-21.32v-14.633h66.488v14.633c-9.6797 2.2891-16.926 10.953-16.926 21.32 0 12.109 9.8555 21.965 21.965 21.965s21.965-9.8516 21.965-21.965c0-10.367-7.2461-19.031-16.926-21.32v-14.633h66.492v14.633c-9.6797 2.2891-16.926 10.953-16.926 21.32 0 12.109 9.8555 21.965 21.965 21.965 12.109 0 21.957-9.8516 21.957-21.965 0-10.367-7.2422-19.031-16.922-21.32v-14.633h42.941l0.003906 361.49h-325.66v-361.49h42.941v14.633c-9.6797 2.2891-16.926 10.953-16.926 21.32 0 12.109 9.8555 21.965 21.965 21.965 12.109 0 21.965-9.8516 21.965-21.965 0-10.367-7.2461-19.031-16.926-21.32v-14.633zm5.0391 24.07c6.5547 0 11.883 5.332 11.883 11.883 0 6.5547-5.3281 11.887-11.883 11.887s-11.887-5.332-11.887-11.887c0-6.5508 5.332-11.883 11.887-11.883zm76.562 0c6.5547 0 11.887 5.332 11.887 11.883 0 6.5547-5.332 11.887-11.887 11.887s-11.887-5.332-11.887-11.887c0-6.5508 5.3359-11.883 11.887-11.883zm76.57 0c6.5547 0 11.883 5.332 11.883 11.883 0 6.5547-5.3281 11.887-11.883 11.887-6.5547 0-11.887-5.332-11.887-11.887 0-6.5508 5.3359-11.883 11.887-11.883zm-229.7 0c6.5547 0 11.887 5.332 11.887 11.883 0 6.5547-5.332 11.887-11.887 11.887-6.5547 0-11.887-5.332-11.887-11.887 0-6.5508 5.332-11.883 11.887-11.883z"/>
 </g>
</svg>