<?xml version="1.0" encoding="UTF-8"?>
<!-- The Best Svg Icon site in the world: iconSvg.co, Visit us! https://iconsvg.co -->
<svg fill="#000000" width="800px" height="800px" version="1.1" viewBox="144 144 512 512" xmlns="http://www.w3.org/2000/svg">
 <g>
  <path d="m424.48 557.44c-30.395 0-57.973-18.289-70.012-45.949-4.4883-0.96094-8.8164-2.2969-12.949-3.9961-12.555 10.109-28.156 15.621-44.488 15.621-39.5 0-71.637-32.133-71.637-71.633 0-30.195 19.305-56.902 46.75-67.152-8.9141-11.004-13.844-24.781-13.844-39.434 0-2.6602 0.17969-5.418 0.53906-8.2344-8.957-10.379-13.84-23.438-13.84-37.184 0-31.387 25.527-56.918 56.914-56.918 25.191 0 47.184 16.93 54.281 40.566 8.3125-1.5977 16.805-1.8359 25.535-0.48438 13.277-24.547 39.051-40.082 67.312-40.082 42.191 0 76.52 34.324 76.52 76.516 0 5.4727-0.59375 10.902-1.7695 16.227 30.285 10.73 50.812 39.285 50.812 72.016 0 41.25-32.746 74.992-73.582 76.543-1.5547 40.832-35.293 73.578-76.543 73.578zm-85.695-68.688 4.9023 2.4531c5.4062 2.6992 11.363 4.5742 17.691 5.5586l4.5859 0.71484 1.5977 4.3672c8.707 23.84 31.582 39.852 56.918 39.852 33.551 0 60.852-27.262 60.852-60.77 0-1.4922-0.13281-2.8594-0.26562-4.2812l-0.85547-9.3867 9.375 0.62891c1.7656 0.16016 3.0742 0.28516 4.5 0.28516 33.512 0 60.773-27.297 60.773-60.855 0-28.168-19.141-52.438-46.551-59.016l-8.3711-2.0156 2.75-8.1562c2.0781-6.1641 3.1328-12.578 3.1328-19.059-0.003906-33.508-27.27-60.77-60.777-60.77-24.148 0-46.004 14.277-55.684 36.379l-2.6367 6.0117-6.3867-1.5156c-11.055-2.6211-21.672-2.0742-31.762 1.0469l-8.8477 2.7383-1.2734-9.1719c-2.8086-20.234-20.238-35.488-40.539-35.488-22.703 0-41.172 18.473-41.172 41.176 0 10.926 4.2773 21.258 12.043 29.09l2.8906 2.9141-0.73438 4.0352c-0.59375 3.2656-0.89453 6.4258-0.89453 9.3789 0 14.781 6.6797 28.367 18.328 37.285l14.77 11.301-18.395 2.7383c-27.137 4.0352-47.605 27.797-47.605 55.266 0 30.82 25.074 55.887 55.891 55.887 14.113 0 27.523-5.2812 37.758-14.867z"/>
  <path d="m423.61 478.72v-15.742c13.023 0 23.617-10.594 23.617-23.617h15.742c0.003906 21.699-17.656 39.359-39.359 39.359z"/>
  <path d="m478.52 407.96-11.133-11.133c5.9453-5.9492 9.2227-13.859 9.2227-22.27 0-8.4102-3.2734-16.312-9.2227-22.262-11.895-11.898-32.625-11.898-44.531 0l-11.133-11.133c8.9219-8.9258 20.781-13.836 33.395-13.836 12.617 0 24.477 4.9141 33.398 13.836 8.9219 8.918 13.832 20.781 13.832 33.395 0.003906 12.613-4.9062 24.477-13.828 33.402z"/>
  <path d="m329.15 478.72c-26.047 0-47.23-21.188-47.23-47.23h15.742c0 17.367 14.125 31.488 31.488 31.488z"/>
 </g>
</svg>