<?xml version="1.0" encoding="UTF-8"?>
<!-- The Best Svg Icon site in the world: iconSvg.co, Visit us! https://iconsvg.co -->
<svg fill="#000000" width="800px" height="800px" version="1.1" viewBox="144 144 512 512" xmlns="http://www.w3.org/2000/svg">
 <g>
  <path d="m426.91 499.68c0-31.73-25.602-57.547-57.066-57.547s-57.066 25.816-57.066 57.547 25.602 57.547 57.066 57.547 57.066-25.816 57.066-57.547zm-57.066 47.469c-25.91 0-46.992-21.297-46.992-47.473s21.078-47.473 46.992-47.473c25.91 0 46.992 21.297 46.992 47.473 0 26.18-21.082 47.473-46.992 47.473z"/>
  <path d="m369.84 475.29c-13.348 0-24.207 10.941-24.207 24.383 0 13.445 10.859 24.383 24.207 24.383s24.207-10.941 24.207-24.383c0-13.445-10.859-24.383-24.207-24.383zm0 38.691c-7.7891 0-14.129-6.418-14.129-14.309s6.3398-14.309 14.129-14.309 14.129 6.418 14.129 14.309-6.3398 14.309-14.129 14.309z"/>
  <path d="m600.98 480.34c-0.85547-1.7031-2.5977-2.7734-4.5-2.7734l-66.746-0.003906c7.1133-11.863 10.895-25.273 10.895-39.344 0-42.309-34.129-76.727-76.074-76.727-11.926 0-23.406 2.7617-34.125 8.2148-3.9453 1.2578-7.7461 2.8438-11.32 4.7148-3.7031 1.1719-7.4219 2.7109-11.332 4.6992-3.6641 1.1562-7.4219 2.707-11.457 4.7266-3.875 1.2969-7.6172 2.8398-11.414 4.7031-3.7148 1.2461-7.4375 2.8086-11.352 4.7695-3.5547 1.1406-7.3086 2.6875-11.445 4.7227-3.9141 1.3125-7.7383 2.8945-11.387 4.7188-3.5391 1.1875-7.2344 2.7188-11.566 4.7852-0.19141 0.070313-0.39453 0.10547-0.57812 0.19922-1.5234 0.51562-3.0273 1.1016-4.5195 1.6836l-1.5781 0.62109c-2.25 1.0195-4.5 2.0859-6.7344 3.2344-2.1562 1.1328-4.2539 2.3164-6.4609 3.6367-2.457 1.5156-4.3984 2.8398-6.0469 4.1133-0.039063 0.027344-0.085938 0.027344-0.125 0.058594-1.4727 1.0625-2.8633 2.2148-4.2578 3.3594-0.10547 0.085938-0.22266 0.17188-0.32422 0.25781-0.94141 0.78125-1.8555 1.5781-2.7578 2.3945-0.38672 0.34375-0.82031 0.69531-1.1953 1.0391-0.94922 0.83203-1.8242 1.7148-2.5938 2.5312-0.070312 0.074218-0.15625 0.14062-0.22656 0.21484-0.011719 0.011719-0.015625 0.03125-0.027344 0.042969-2.3594 2.3203-4.7617 5.0156-7.3398 8.2578-0.74219 0.92969-1.4688 1.9492-2.1992 2.9531l-0.007812-90.91c36.266-7.9727 58.637-39.891 58.637-84.508 0-5.293 0.027343-10.102 0.054687-14.742 0.023438-4.3438 0.050782-8.5391 0.050782-12.844v-0.10156c0-14.109-11.406-25.586-25.43-25.586-2.7812 0-5.0391 2.2539-5.0391 5.0391v48.234c0 15.969-3.6992 29.082-10.789 38.605l-0.003906-78.602c0-6.2773-2.4414-12.199-6.8398-16.641-4.3867-4.5078-10.289-6.9883-16.617-6.9883-2.7812 0-5.0391 2.2539-5.0391 5.0391v113.28c-4.2266 0.47656-8.707 0.47656-12.953-0.003906l0.003906-113.28c0-2.7812-2.2539-5.0391-5.0391-5.0391-12.969 0-23.523 10.602-23.523 23.629v78.449c-6.9727-9.5664-10.719-22.812-10.719-38.457v-48.234c0-2.7812-2.2539-5.0391-5.0391-5.0391-6.7812 0-13.145 2.6484-17.93 7.4531-4.8672 4.8867-7.5312 11.43-7.5 18.391 0 4.2305 0.023438 8.625 0.050782 13.117 0.027343 4.6836 0.054687 9.4766 0.054687 14.312 0 44.668 22.398 76.598 58.637 84.516v227.72c0 4.6914 1.8906 9.2305 5.1094 12.371 3.2734 3.3477 7.6562 5.1914 12.348 5.1914 9.6562 0 17.512-7.8789 17.512-17.562v-21.82c17.93 24.582 46.746 39.746 77.664 39.746 2.9102 0 5.6641-0.16016 8.3008-0.39453 0.57812 0.23047 1.1914 0.39062 1.8398 0.39062h135.31c1.5938 0 3.0938-0.75391 4.043-2.0312l81.184-109.24c1.1406-1.5273 1.3164-3.5664 0.46094-5.2656zm-223.26-77.836c3.7188-1.8789 7.2109-3.3477 10.68-4.4922 0.22266-0.078125 0.44141-0.16406 0.65625-0.26953 3.5938-1.7812 7.1211-3.2344 10.777-4.4414 0.23438-0.078126 0.46875-0.17578 0.6875-0.28906 3.8125-1.9219 7.293-3.3594 10.645-4.3945 0.28516-0.085938 0.5625-0.19922 0.82422-0.33594 3.6836-1.8945 7.1328-3.3242 10.543-4.375 0.30859-0.09375 0.60547-0.21484 0.88672-0.36719 3.2734-1.7422 6.7812-3.207 10.434-4.3477 0.27734-0.089843 0.54688-0.19922 0.80469-0.33203 9.3906-4.8398 19.449-7.293 29.895-7.293 36.395 0 66 29.898 66 66.652 0 15.113-4.9375 29.383-14.297 41.289-3.2031 4.1211-6.9258 7.875-11.066 11.164-0.21484 0.17188-0.42187 0.36328-0.60937 0.56641-2.7461 3.0469-5.4922 5.6523-8.3984 7.9727-0.21484 0.16797-0.41406 0.35547-0.59375 0.55859-2.7969 3.0977-5.5312 5.6719-8.3555 7.8711-0.23047 0.17969-0.44922 0.38281-0.64844 0.60156-2.7344 3.0312-5.4844 5.6406-8.4023 7.9727-0.21094 0.16797-0.41016 0.35938-0.59375 0.5625-2.5352 2.8125-5.375 5.5039-8.4414 8.0117-0.18359 0.14844-0.35547 0.30859-0.51562 0.48047-1.4102 1.5234-2.8008 2.9375-4.1953 4.2617-0.48047 0.45703-0.96484 0.84766-1.4453 1.2812-0.88281 0.80078-1.7656 1.6133-2.6602 2.3477 0.046874-0.13281 0.09375-0.26953 0.14062-0.40234 0.054688-0.15234 0.12891-0.29688 0.18359-0.44922 3.6953-10.418 5.5703-21.398 5.5703-32.633 0-2.8398-0.18359-5.6367-0.42188-8.418-0.03125-0.35547-0.019532-0.72656-0.054688-1.082-0.19922-2.0586-0.55469-4.0664-0.87891-6.0859-0.17969-1.1094-0.29297-2.2422-0.50781-3.3398-0.36328-1.8398-0.85938-3.6289-1.3203-5.4297-0.31641-1.2266-0.57812-2.4766-0.94141-3.6836-0.51172-1.7031-1.1328-3.3516-1.7305-5.0117-0.44922-1.25-0.86328-2.5195-1.3633-3.7461-0.64453-1.5859-1.3906-3.1211-2.1172-4.6641-0.58203-1.2344-1.1328-2.4805-1.7617-3.6875-0.77344-1.4766-1.625-2.8984-2.4688-4.332-0.70703-1.1992-1.3984-2.4062-2.1562-3.5742-0.88672-1.3672-1.8398-2.6797-2.793-4-0.82812-1.1484-1.6484-2.293-2.5234-3.4023-0.99219-1.2578-2.0391-2.4609-3.0898-3.668-0.94531-1.082-1.8906-2.1562-2.8828-3.1953-1.0859-1.1406-2.2148-2.2305-3.3555-3.3164-1.0586-1.0078-2.1211-1.9961-3.2227-2.957-1.1719-1.0195-2.375-1.9961-3.5938-2.9609-1.1641-0.91797-2.3438-1.8125-3.5508-2.6797-1.2461-0.89062-2.5078-1.75-3.7969-2.582-1.2695-0.82422-2.5625-1.6094-3.8711-2.375-1.3086-0.76172-2.6289-1.4961-3.9727-2.1953-1.3672-0.71094-2.7578-1.3789-4.1641-2.0273-1.3633-0.62891-2.7305-1.2383-4.125-1.8008-1.4609-0.58984-2.9492-1.125-4.4453-1.6445-1.4062-0.48828-2.8164-0.97266-4.25-1.3945-1.5508-0.45703-3.125-0.84375-4.707-1.2227-1.4414-0.34766-2.8789-0.69922-4.3438-0.97656-1.6367-0.3125-3.3008-0.53906-4.9648-0.76562-1.4609-0.19922-2.9141-0.41797-4.3945-0.55078-0.42969-0.039062-0.83984-0.125-1.2695-0.16016 0.17969-0.074219 0.36328-0.15234 0.53516-0.24219zm-82.09-185.36c2.5508 2.5742 3.957 5.9805 3.957 9.5859v88.152c-0.24219 0.16016-0.47656 0.33203-0.72266 0.48828-0.75391 0.48047-1.5273 0.92578-2.3164 1.3516-0.57031 0.30859-1.1445 0.61719-1.7344 0.89844-0.81641 0.39062-1.6523 0.73828-2.5 1.0742-0.35547 0.14062-0.71094 0.27734-1.0742 0.40625l0.003906-104.94c1.625 0.67188 3.1172 1.6758 4.3867 2.9844zm-37.492-2.9844v104.93c-0.375-0.13672-0.74609-0.27734-1.1133-0.42187-0.82812-0.32813-1.6484-0.67188-2.4492-1.0508-0.61328-0.29297-1.2109-0.60938-1.8086-0.92969-0.75-0.40625-1.4922-0.83203-2.2148-1.2852-0.27734-0.17578-0.54688-0.36719-0.82031-0.54687v-88.133c0-5.6797 3.4805-10.551 8.4062-12.566zm-49.488 52.559c0-4.8555-0.027344-9.6641-0.054688-14.367-0.023437-4.4766-0.050781-8.8477-0.050781-13.082-0.019531-4.2852 1.6016-8.2852 4.5625-11.258 1.6484-1.6562 3.6094-2.8867 5.75-3.6367v42.348c0 24.121 8.0898 43.59 22.809 54.848 1.2109 0.91406 2.4844 1.7266 3.7656 2.5234 0.30859 0.19141 0.59375 0.42188 0.90234 0.60547 0.98438 0.58203 2.0273 1.0625 3.0508 1.5742 0.64844 0.32422 1.2695 0.70312 1.9375 1 3.4336 1.5312 7.0664 2.6875 10.871 3.4492 7.8945 1.5703 17.168 1.5625 25.008 0 7.625-1.5273 14.52-4.6094 20.488-9.1641 14.73-11.219 22.844-30.691 22.844-54.832l-0.003906-42.344c5.9961 2.1094 10.316 7.8789 10.316 14.648v0.10156c0 4.2852-0.023437 8.4609-0.050781 12.785-0.027343 4.6602-0.054687 9.4844-0.054687 14.801 0 41.062-20.848 69.977-54.488 75.469-5.2734 0.94531-11.648 1.1875-17.5 0.71484-1.9648-0.16016-3.8828-0.40234-5.6953-0.72656-33.559-5.4648-54.406-34.375-54.406-75.457zm73.453 312.24c0 4.1289-3.3359 7.4883-7.4375 7.4883-1.957 0-3.7812-0.76562-5.2266-2.2422-1.3711-1.3398-2.1562-3.2539-2.1562-5.2461l0.003907-226.06c0.078125 0.007812 0.16406 0.003906 0.24219 0.011718 2.3086 0.20313 4.6875 0.3125 7.1406 0.3125h0.015625c0.13672 0 0.26562-0.015624 0.40234-0.015624 2.3242-0.011719 4.5859-0.10938 6.7617-0.29688 0.082031-0.007812 0.17578-0.003906 0.25781-0.011718v185.9zm10.078-41.285v-76.039c0.15234-0.30859 0.30859-0.61328 0.46094-0.91797l0.74219-1.4961c0.98828-1.9219 2.0742-3.7461 3.1094-5.4883 1.9414-3.1289 3.832-5.832 5.7695-8.2695 2.3555-2.9648 4.5234-5.4062 6.7617-7.6016 0.011719-0.011719 0.023438-0.023438 0.035156-0.035157 1.2344-1.2383 2.5469-2.4375 3.8867-3.6211 0.51562-0.44922 1.0156-0.90234 1.5586-1.3555 0.76953-0.64844 1.5781-1.2695 2.375-1.8945 0.75391-0.59375 1.4648-1.1719 2.2812-1.7812 1.4844-1.1562 3.1523-2.2891 5.3438-3.6406 1.9883-1.1914 3.9219-2.2852 5.8672-3.3047 2.0508-1.0469 4.1484-2.0469 5.9844-2.8867l1.3594-0.52734c1.4844-0.57812 2.9727-1.1641 4.4961-1.6602 0.14844-0.046875 0.29688-0.10156 0.44141-0.16797 0.054688-0.015626 0.10547-0.03125 0.15625-0.050782 8.7656-2.918 17.855-4.4023 27.023-4.4023 47.582 0 86.293 39.09 86.293 87.137 0 10.168-1.6758 20.004-4.9922 29.266-3.75 10.719-9.5742 20.559-17.305 29.246-0.066407 0.066406-0.13281 0.125-0.19531 0.19141-0.17578 0.16016-0.35938 0.32422-0.52344 0.45312-0.1875 0.15625-0.36719 0.32031-0.53516 0.5-1.7969 1.9375-3.7031 3.7734-5.6719 5.5391-2.6797 2.4023-5.543 4.6094-8.5273 6.6797-0.77344 0.53906-1.5117 1.1172-2.3047 1.6289-2.0312 1.3164-4.1211 2.5547-6.2734 3.7109-1.3594 0.73047-2.7852 1.4258-4.2812 2.1055-0.14844 0.066406-0.31641 0.13281-0.46875 0.19922-1.0391 0.46484-2.1523 0.91406-3.2734 1.3633-0.41016 0.16406-0.80078 0.32422-1.2305 0.48828-1.1367 0.44922-2.3242 0.87891-3.5273 1.2891-0.26172 0.089843-0.50391 0.17578-0.77734 0.26562-0.56641 0.20703-1.1602 0.35547-1.7344 0.52734-0.78906 0.23438-1.5469 0.48047-2.4102 0.71875-0.54687 0.15625-1.0938 0.27344-1.6406 0.41797-2.0625 0.51953-4.1289 0.96484-6.3711 1.3125-1.1875 0.28516-2.4375 0.44922-3.6836 0.5625-0.03125 0.003906-0.058594 0.015625-0.085938 0.019531-0.039062 0.003906-0.066406 0.011719-0.10547 0.015625-3.1992 0.42188-6.6914 0.63281-10.371 0.63281-32.977 0.007812-63.336-19.242-77.656-49.129zm220.58 49.133h-100.18c0.67969-0.33984 1.3516-0.67969 1.9961-1.0312 0.34766-0.1875 0.66797-0.41016 1.0156-0.60156 9.4648-5.1367 17.957-11.746 25.234-19.719 0.019531-0.019532 0.046875-0.039063 0.066406-0.058594 0.85547-0.70312 1.7344-1.5156 2.6094-2.3086 0.37891-0.34375 0.74609-0.63672 1.1328-1 1.3203-1.25 2.6914-2.625 4.1523-4.1719 3.0391-2.5 5.9961-5.3008 9.0117-8.5469 2.9258-2.4062 5.8672-5.1758 8.9805-8.4492 3.0547-2.5156 6.0117-5.3164 9.0195-8.5508 3.2461-2.6719 6.2695-5.5391 9-8.5352 3.0859-2.4961 6.1016-5.3555 8.9766-8.5078 3.0742-2.4258 6.0312-5.2109 9.0195-8.4883 3.1211-2.5195 6.0664-5.3164 8.9922-8.5312 2.168-1.7422 4.2109-3.6133 6.168-5.5703 0.64453-0.64453 1.2227-1.332 1.8398-1.9961 0.95703-1.0273 1.957-2.0195 2.8516-3.0938h63.812z"/>
 </g>
</svg>