<?xml version="1.0" encoding="UTF-8"?>
<!-- The Best Svg Icon site in the world: iconSvg.co, Visit us! https://iconsvg.co -->
<svg fill="#000000" width="800px" height="800px" version="1.1" viewBox="144 144 512 512" xmlns="http://www.w3.org/2000/svg">
 <g>
  <path d="m199.95 599.65c0.98438 0.98828 2.2734 1.4805 3.5664 1.4805 1.2852 0 2.5742-0.48828 3.5586-1.4727 159.25-158.66 387.34-170.06 389.62-170.16 2.7812-0.11719 4.9414-2.4648 4.8203-5.2461-0.11328-2.7812-2.4102-4.9844-5.2461-4.8203-1.2109 0.050781-64.773 3.2109-148.3 29.066-125.27-60.809-243.07-66.391-244.25-66.441-2.8008-0.15234-5.1328 2.043-5.2461 4.8203-0.11328 2.7812 2.043 5.1289 4.8242 5.2461 1.125 0.046875 110.91 5.2656 230.63 60.871-15.836 5.2617-32.273 11.34-49.051 18.352-71.906-30.852-137.92-44.328-180.68-50.199-2.7695-0.40234-5.293 1.5508-5.6719 4.3047s1.543 5.3008 4.3047 5.6719c40.363 5.5469 101.77 18 169.15 45.762-14.395 6.375-28.984 13.461-43.602 21.316-39.691-15.469-81.375-27.48-123.92-35.695-2.7227-0.52734-5.3711 1.2578-5.8984 3.9883-0.53125 2.7305 1.2578 5.3711 3.9883 5.8984 39.129 7.5586 77.504 18.41 114.24 32.203-12.816 7.2539-25.621 15.109-38.305 23.641-23.887-8.707-48.691-16.262-73.781-22.441-2.6797-0.67969-5.4258 0.98438-6.0977 3.6836-0.66797 2.6992 0.98438 5.4336 3.6836 6.0977 22.375 5.5156 44.488 12.18 65.934 19.738-23.535 16.602-46.539 35.543-68.285 57.207-1.9531 1.9688-1.9648 5.1562 0.003906 7.1289z"/>
  <path d="m595.8 458.52c-69.961 9.6094-204.63 39.758-320.48 133.67-2.1602 1.75-2.4961 4.9219-0.73828 7.0859 0.99219 1.2266 2.4453 1.8633 3.918 1.8633 1.1133 0 2.2344-0.36719 3.168-1.125 113.94-92.363 246.58-122.04 315.5-131.51 2.7617-0.37891 4.6836-2.918 4.3047-5.6719-0.37891-2.7617-2.9141-4.7383-5.6719-4.3086z"/>
  <path d="m363.12 601.13c0.92969 0 1.875-0.25391 2.7148-0.79687 84.324-54.164 172.49-79.145 231.61-90.562 2.7305-0.52734 4.5234-3.168 3.9883-5.8984-0.52734-2.7305-3.1875-4.5352-5.8984-3.9883-59.984 11.582-149.47 36.945-235.14 91.969-2.3438 1.5039-3.0195 4.625-1.5195 6.9609 0.96484 1.5 2.5898 2.3164 4.2461 2.3164z"/>
  <path d="m601.38 546.86c-0.66406-2.6992-3.4062-4.375-6.0977-3.6836-47.996 11.828-93.82 28.242-136.19 48.777-2.5039 1.2109-3.5469 4.2266-2.332 6.7305 0.86719 1.7969 2.668 2.8398 4.5391 2.8398 0.73828 0 1.4844-0.16406 2.1953-0.50781 41.738-20.227 86.887-36.395 134.2-48.059 2.6992-0.66406 4.3516-3.3945 3.6836-6.0977z"/>
  <path d="m305.27 319.71c-1.8945 1.2305-2.7344 3.5625-2.0664 5.7188 0.67578 2.1562 2.6758 3.5703 4.9453 3.543 10.648-0.34375 20.766 4.5742 26.781 13.004 5.5352 7.7695 6.8125 17.289 3.5039 26.121-0.78125 2.0859-0.097656 4.4336 1.6719 5.7812 1.7812 1.3516 4.2266 1.3633 6.0156 0.054688 8.4141-6.1484 19.43-7.8281 29.473-4.5117 9.5977 3.1719 16.742 10.273 19.598 19.473 0.64844 2.1055 2.5977 3.543 4.8086 3.543s4.1562-1.4375 4.8125-3.5469c2.8555-9.1992 9.9961-16.301 19.598-19.473 10.035-3.3125 21.055-1.6367 29.473 4.5117 1.8008 1.3086 4.2461 1.2891 6.0156-0.054688 1.7695-1.3477 2.457-3.6953 1.6719-5.7812-3.3125-8.832-2.0312-18.352 3.5039-26.121 6.0117-8.4219 16.059-13.348 26.781-13.004 2.2383 0.03125 4.2695-1.3867 4.9453-3.543 0.66797-2.1562-0.17188-4.4883-2.0664-5.7188-8.5508-5.5664-13.461-14.371-13.461-24.156 0-9.7891 4.9062-18.598 13.465-24.168 1.8906-1.2305 2.7305-3.5664 2.0625-5.7188-0.67578-2.1562-2.7109-3.6016-4.9453-3.543-0.29688 0.011719-0.58984 0.015625-0.89062 0.015625-10.422 0-20.051-4.8281-25.891-13.02-5.5352-7.7695-6.8125-17.285-3.5039-26.117 0.78125-2.082 0.097657-4.4336-1.6719-5.7812-1.7695-1.332-4.2148-1.3594-6.0156-0.054687-8.418 6.1445-19.445 7.8164-29.477 4.5078-9.5977-3.1719-16.738-10.273-19.59-19.473-0.66016-2.1055-2.6094-3.543-4.8164-3.543-2.2109 0-4.1562 1.4375-4.8125 3.5469-2.8555 9.1992-9.9922 16.301-19.59 19.473-10.051 3.3242-21.066 1.6367-29.477-4.5078-1.7891-1.3047-4.2344-1.2773-6.0156 0.054687-1.7695 1.3477-2.457 3.6992-1.6719 5.7812 3.3125 8.832 2.0312 18.348-3.5039 26.117-6.0039 8.4219-16.141 13.332-26.781 13.004-2.2695-0.058594-4.2695 1.3867-4.9453 3.543-0.66797 2.1484 0.17188 4.4883 2.0625 5.7188 8.5625 5.5703 13.465 14.375 13.465 24.168 0 9.7852-4.9102 18.59-13.461 24.156zm14.473-48.836c9.4102-2.4062 17.723-7.9609 23.391-15.906 5.1953-7.293 7.625-15.734 7.1328-24.227 9.0117 3.3555 19.078 3.6211 28.492 0.5 8.9688-2.9648 16.336-8.5547 21.242-15.922 4.9062 7.3672 12.27 12.953 21.238 15.922 9.4102 3.1133 19.477 2.8477 28.492-0.5-0.49219 8.4922 1.9375 16.934 7.1328 24.227 5.668 7.9492 13.977 13.5 23.391 15.906-5.7969 6.9141-9.0625 15.582-9.0625 24.68 0 9.0938 3.2656 17.762 9.0625 24.668-9.4102 2.4062-17.723 7.957-23.387 15.902-5.1992 7.2969-7.6328 15.742-7.1406 24.234-9.0078-3.3555-19.078-3.6211-28.488-0.50781-8.9648 2.9688-16.328 8.5625-21.238 15.926-4.9102-7.3672-12.277-12.961-21.246-15.926-4.4219-1.4648-8.9922-2.1836-13.535-2.1836-5.1133 0-10.18 0.91016-14.953 2.6914 0.49219-8.4922-1.9375-16.941-7.1406-24.234-5.6641-7.9453-13.973-13.496-23.387-15.902 5.7969-6.9062 9.0625-15.578 9.0625-24.668 0.003907-9.0977-3.2617-17.77-9.0586-24.68z"/>
  <path d="m400 347.89c28.855 0 52.336-23.477 52.336-52.336-0.003907-28.855-23.48-52.328-52.336-52.328s-52.336 23.473-52.336 52.328 23.48 52.336 52.336 52.336zm0-94.59c23.301 0 42.258 18.957 42.258 42.254 0 23.301-18.957 42.258-42.258 42.258s-42.258-18.957-42.258-42.258c0-23.297 18.957-42.254 42.258-42.254z"/>
 </g>
</svg>