<?xml version="1.0" encoding="UTF-8"?>
<!-- The Best Svg Icon site in the world: iconSvg.co, Visit us! https://iconsvg.co -->
<svg fill="#000000" width="800px" height="800px" version="1.1" viewBox="144 144 512 512" xmlns="http://www.w3.org/2000/svg">
 <path d="m598.61 287.69-196.48-88.773c-1.3203-0.59375-2.832-0.59375-4.1523 0l-196.48 88.773c-1.8008 0.8125-2.9609 2.6094-2.9609 4.5898v50.637c0 1.7031 0.85938 3.293 2.293 4.2227 1.4219 0.93359 3.2266 1.0742 4.7891 0.38281l27.578-12.227v261.18c0 2.7812 2.2539 5.0391 5.0391 5.0391h323.66c2.7852 0 5.0391-2.2539 5.0391-5.0391l-0.011719-261.18 27.578 12.227c0.65625 0.28906 1.3477 0.43359 2.043 0.43359 0.96094 0 1.918-0.27734 2.7461-0.8125 1.4336-0.92969 2.293-2.5195 2.293-4.2227v-50.641c0-1.9805-1.1641-3.7734-2.9648-4.5898zm-355.35 43.137 34.926-15.484v276.1h-34.926zm45.004 95.289h28.52v165.33h-28.52zm38.598 67.012 43.586 24.895v35.41h-43.586zm53.66 30.648 51.922 29.656h-51.922zm72.238 29.652-125.9-71.906v-16.863h22.934l123.45 70.508v18.262zm20.48-29.863-45.352-25.902v-33h45.352zm-55.43-31.656-47.703-27.246h47.703zm55.43-37.324h-146.38v-28.469h146.38zm-146.38 108.92h146.38v27.938h-146.38zm156.46-137.39h27.98v165.33h-27.98zm27.98-10.078h-223.04v-105.16l111.79-49.562 111.25 49.324zm45.543 175.41h-35.469v-276.34l35.469 15.727zm34.656-256.27-189.41-83.977c-0.64844-0.28906-1.3477-0.43359-2.043-0.43359-0.69531 0-1.3906 0.14453-2.043 0.43359l-189.41 83.977v-39.641l191.45-86.496 191.45 86.496z"/>
</svg>