<?xml version="1.0" encoding="UTF-8"?>
<!-- The Best Svg Icon site in the world: iconSvg.co, Visit us! https://iconsvg.co -->
<svg fill="#000000" width="800px" height="800px" version="1.1" viewBox="144 144 512 512" xmlns="http://www.w3.org/2000/svg">
 <g>
  <path d="m379.01 504.96h10.496v41.984c0 5.7969 4.6992 10.496 10.496 10.496s10.496-4.6992 10.496-10.496v-41.984h10.496c13.918 0 27.266-5.5273 37.109-15.371 9.8398-9.8398 15.371-23.188 15.371-37.105 0-2.7852-1.1094-5.457-3.0742-7.4219-1.9688-1.9688-4.6406-3.0742-7.4219-3.0742h-31.488c-7.4023 0.027344-14.652 2.0586-20.992 5.875v-18.262c6.125-2.1641 11.43-6.1719 15.188-11.473 3.7578-5.2969 5.7852-11.629 5.8047-18.125 0-24.664-21.621-46.918-24.035-49.438h-0.003906c-1.9688-1.9883-4.6523-3.1055-7.4492-3.1055-2.8008 0-5.4844 1.1172-7.4531 3.1055-2.4141 2.5195-24.035 24.77-24.035 49.438 0.015625 6.4961 2.043 12.828 5.8008 18.125 3.7617 5.3008 9.0664 9.3086 15.191 11.473v18.262c-6.3398-3.8164-13.594-5.8477-20.992-5.875h-31.488c-5.7969 0-10.496 4.6992-10.496 10.496 0 13.918 5.5273 27.266 15.371 37.105 9.8398 9.8438 23.188 15.371 37.109 15.371zm52.48-41.984h19.207v0.003906c-2.1719 6.1406-6.1953 11.457-11.516 15.219-5.3203 3.7578-11.676 5.7734-18.188 5.7695h-10.496c0-5.5664 2.2109-10.906 6.1484-14.84 3.9336-3.9375 9.2734-6.1484 14.844-6.1484zm-31.488-88.586c5.8984 7.3438 9.5469 16.238 10.496 25.613 0 5.7969-4.6992 10.496-10.496 10.496s-10.496-4.6992-10.496-10.496c0.94531-9.375 4.5938-18.27 10.496-25.613zm-31.488 88.59c5.5664 0 10.906 2.2109 14.844 6.1484 3.9336 3.9336 6.1484 9.2734 6.1484 14.84h-10.496c-6.5156 0.003906-12.871-2.0117-18.191-5.7695-5.3203-3.7617-9.3438-9.0781-11.516-15.219z"/>
  <path d="m567.93 316.03v-31.488c0-2.7852-1.1055-5.4531-3.0742-7.4219s-4.6367-3.0742-7.4219-3.0742h-20.992c-2.625-28.77-15.938-55.504-37.312-74.938-21.375-19.43-49.258-30.145-78.141-30.023-30.133-0.054688-59.062 11.789-80.508 32.957-18.656 2.4453-36.059 10.723-49.727 23.656-13.668 12.934-22.898 29.855-26.367 48.348h-21.832c-5.7969 0-10.496 4.6992-10.496 10.496v31.488c-0.050781 5.2656 3.8086 9.7578 9.0273 10.496-12.07 84.801-12.07 170.88 0 255.68-5.6445 3.9141-9.0156 10.344-9.0273 17.211v20.992c0 2.7852 1.1055 5.4531 3.0742 7.4219s4.6367 3.0742 7.4219 3.0742h314.88c2.7852 0 5.4531-1.1055 7.4219-3.0742s3.0742-4.6367 3.0742-7.4219v-20.992c0-7.0586-3.5508-13.645-9.4453-17.527 12.07-84.801 12.07-170.88 0-255.68 5.2656-0.52734 9.3125-4.8906 9.4453-10.18zm-30.016 262.4h-275.84c-11.965-83.539-11.965-168.36 0-251.9h275.84c11.965 83.539 11.965 168.36 0 251.9zm-116.93-388.35c23.227 0.011719 45.637 8.5781 62.945 24.07 17.312 15.488 28.309 36.812 30.887 59.898h-62.977c-5.2461-38.102-39.676-66.336-76.621-72.109 13.984-7.8164 29.746-11.898 45.766-11.859zm-74.418 32.328c3.7891-0.53906 7.6133-0.82031 11.441-0.83984 36.316 0 66.543 22.777 72.316 52.48h-144.64c3.5547-13.852 11.32-26.258 22.223-35.508 10.906-9.25 24.41-14.887 38.656-16.133zm-93.52 72.633h293.89v10.496h-293.89zm293.89 314.88h-293.89v-10.496h293.89z"/>
 </g>
</svg>