<?xml version="1.0" encoding="UTF-8"?>
<!-- The Best Svg Icon site in the world: iconSvg.co, Visit us! https://iconsvg.co -->
<svg fill="#000000" width="800px" height="800px" version="1.1" viewBox="144 144 512 512" xmlns="http://www.w3.org/2000/svg">
 <g>
  <path d="m581.05 179.58c-40.676 0-55.105 16.957-55.105 31.488v62.977h-70.848v-62.977c0-14.531-14.43-31.488-55.105-31.488-40.676 0-55.105 16.957-55.105 31.488v62.977h-70.844v-62.977c0-14.531-14.43-31.488-55.105-31.488-40.676 0-55.105 16.957-55.105 31.488v377.86c0 14.531 14.43 31.488 55.105 31.488 40.676 0 55.105-16.957 55.105-31.488v-62.977h70.848v62.977c0 14.531 14.43 31.488 55.105 31.488s55.105-16.957 55.105-31.488l-0.003907-62.977h70.848v62.977c0 14.531 14.43 31.488 55.105 31.488 40.676 0 55.105-16.957 55.105-31.488v-377.86c0-14.531-14.43-31.488-55.105-31.488zm-322.75 409.34c0 7.6367-13.793 15.742-39.359 15.742s-39.359-8.1094-39.359-15.742v-354.52c12.223 5.9922 25.762 8.793 39.359 8.1484 13.598 0.64453 27.137-2.1562 39.359-8.1484zm-39.359-362.11c-25.566 0-39.359-8.1055-39.359-15.742 0-7.6367 13.793-15.746 39.359-15.746s39.359 8.1094 39.359 15.742c0 7.6406-13.789 15.746-39.359 15.746zm125.95 283.39h-70.848v-47.23h15.742v15.742c0 2.0859 0.83203 4.0898 2.3086 5.5664 1.4727 1.4766 3.4766 2.3047 5.5664 2.3047h15.742c1.2188 0.015625 2.4219-0.25391 3.5195-0.78516l15.742-7.8711v-0.003906c2.6836-1.3398 4.3711-4.0859 4.3555-7.082v-7.8711h7.8711zm0-62.977h-15.746c-4.3477 0-7.8711 3.5234-7.8711 7.8711v10.879l-9.7305 4.8672h-6.0117v-15.746c0-2.0859-0.83203-4.0898-2.3047-5.5664-1.4766-1.4766-3.4805-2.3047-5.5664-2.3047h-23.617v-94.465h70.848zm0-110.21h-70.848v-47.234h70.848zm94.465 251.9c0 7.6367-13.793 15.742-39.359 15.742v-31.484h-15.746v30.254c-15.391-2.5273-23.617-8.6602-23.617-14.508v-354.52c12.227 5.9922 25.766 8.793 39.363 8.1484 13.594 0.64453 27.137-2.1562 39.359-8.1484zm-39.359-362.11c-25.566 0-39.359-8.1094-39.359-15.742 0-7.6367 13.793-15.742 39.359-15.742s39.359 8.1094 39.359 15.742c0 7.6367-13.793 15.742-39.359 15.742zm125.95 244.04h-31.488v15.742h31.488v23.617h-70.848v-47.23h70.848zm0-23.617h-70.848v-94.465h70.848zm0-110.21h-70.848v-7.7305l15.816-0.14453-0.14062-15.742-15.676 0.14062v-23.758h70.848zm94.465 251.9c0 7.6367-13.793 15.742-39.359 15.742v0.003906c-5.2734 0.019531-10.539-0.39453-15.742-1.2383v-38.121h-15.746v33.133c-5.0938-2.793-7.8711-6.1875-7.8711-9.5156v-354.52c12.223 5.9922 25.762 8.793 39.359 8.1484 13.598 0.64453 27.137-2.1562 39.359-8.1484zm-39.359-362.11c-25.566 0-39.359-8.1094-39.359-15.742 0-7.6367 13.793-15.742 39.359-15.742 25.566 0 39.359 8.1094 39.359 15.742 0 7.6367-13.789 15.742-39.359 15.742z"/>
  <path d="m218.94 289.79c-6.2617 0-12.27 2.4883-16.699 6.918-4.4297 4.4297-6.918 10.438-6.918 16.699s2.4883 12.27 6.918 16.699c4.4297 4.4297 10.438 6.918 16.699 6.918 6.2656 0 12.27-2.4883 16.699-6.918 4.4297-4.4297 6.918-10.438 6.918-16.699s-2.4883-12.27-6.918-16.699c-4.4297-4.4297-10.434-6.918-16.699-6.918zm0 31.488c-3.1836 0-6.0547-1.918-7.2734-4.8594-1.2188-2.9414-0.54297-6.3281 1.707-8.5781 2.2539-2.25 5.6367-2.9258 8.5781-1.707s4.8594 4.0898 4.8594 7.2734c0 2.0859-0.82812 4.0898-2.3047 5.5664-1.4766 1.4766-3.4766 2.3047-5.5664 2.3047z"/>
  <path d="m218.94 462.98c-6.2617 0-12.27 2.4844-16.699 6.9141-4.4297 4.4297-6.918 10.438-6.918 16.699 0 6.2656 2.4883 12.27 6.918 16.699 4.4297 4.4297 10.438 6.918 16.699 6.918 6.2656 0 12.27-2.4883 16.699-6.918 4.4297-4.4297 6.918-10.434 6.918-16.699 0-6.2617-2.4883-12.27-6.918-16.699s-10.434-6.9141-16.699-6.9141zm0 31.488v-0.003906c-3.1836 0-6.0547-1.918-7.2734-4.8594-1.2188-2.9414-0.54297-6.3242 1.707-8.5781 2.2539-2.25 5.6367-2.9258 8.5781-1.707s4.8594 4.0898 4.8594 7.2734c0 2.0898-0.82812 4.0898-2.3047 5.5664-1.4766 1.4766-3.4766 2.3047-5.5664 2.3047z"/>
  <path d="m400 337.02c6.2617 0 12.27-2.4883 16.699-6.918 4.4258-4.4297 6.9141-10.438 6.9141-16.699s-2.4883-12.27-6.9141-16.699c-4.4297-4.4297-10.438-6.918-16.699-6.918-6.2656 0-12.273 2.4883-16.699 6.918-4.4297 4.4297-6.918 10.438-6.918 16.699s2.4883 12.27 6.918 16.699c4.4258 4.4297 10.434 6.918 16.699 6.918zm0-31.488c3.1836 0 6.0547 1.918 7.2695 4.8594 1.2188 2.9414 0.54688 6.3281-1.7031 8.5781-2.2539 2.25-5.6406 2.9258-8.582 1.707s-4.8594-4.0898-4.8594-7.2734c0-4.3477 3.5273-7.8711 7.875-7.8711z"/>
  <path d="m400 462.98c-6.2656 0-12.273 2.4844-16.699 6.9141-4.4297 4.4297-6.918 10.438-6.918 16.699 0 6.2656 2.4883 12.27 6.918 16.699 4.4258 4.4297 10.434 6.918 16.699 6.918 6.2617 0 12.27-2.4883 16.699-6.918 4.4258-4.4297 6.9141-10.434 6.9141-16.699 0-6.2617-2.4883-12.27-6.9141-16.699-4.4297-4.4297-10.438-6.9141-16.699-6.9141zm0 31.488v-0.003906c-3.1836 0-6.0547-1.918-7.2734-4.8594-1.2188-2.9414-0.54687-6.3242 1.707-8.5781 2.25-2.25 5.6367-2.9258 8.5781-1.707 2.9414 1.2188 4.8594 4.0898 4.8594 7.2734 0 2.0898-0.82812 4.0898-2.3047 5.5664-1.4766 1.4766-3.4805 2.3047-5.5664 2.3047z"/>
  <path d="m557.44 313.41c0 6.2617 2.4883 12.27 6.918 16.699 4.4297 4.4297 10.438 6.918 16.699 6.918 6.2656 0 12.27-2.4883 16.699-6.918 4.4297-4.4297 6.918-10.438 6.918-16.699s-2.4883-12.27-6.918-16.699c-4.4297-4.4297-10.434-6.918-16.699-6.918-6.2617 0-12.27 2.4883-16.699 6.918-4.4297 4.4297-6.918 10.438-6.918 16.699zm31.488 0c0 3.1836-1.918 6.0547-4.8594 7.2734s-6.3281 0.54297-8.5781-1.707-2.9258-5.6367-1.707-8.5781c1.2188-2.9414 4.0898-4.8594 7.2734-4.8594 2.0898 0 4.0898 0.82812 5.5664 2.3047 1.4766 1.4766 2.3047 3.4805 2.3047 5.5664z"/>
  <path d="m581.05 462.98c-6.2617 0-12.27 2.4844-16.699 6.9141-4.4297 4.4297-6.918 10.438-6.918 16.699 0 6.2656 2.4883 12.27 6.918 16.699 4.4297 4.4297 10.438 6.918 16.699 6.918 6.2656 0 12.27-2.4883 16.699-6.918 4.4297-4.4297 6.918-10.434 6.918-16.699 0-6.2617-2.4883-12.27-6.918-16.699-4.4297-4.4297-10.434-6.9141-16.699-6.9141zm0 31.488v-0.003906c-3.1836 0-6.0547-1.918-7.2734-4.8594-1.2188-2.9414-0.54297-6.3242 1.707-8.5781 2.25-2.25 5.6367-2.9258 8.5781-1.707s4.8594 4.0898 4.8594 7.2734c0 2.0898-0.82812 4.0898-2.3047 5.5664-1.4766 1.4766-3.4766 2.3047-5.5664 2.3047z"/>
  <path d="m195.32 203.2h15.742v15.742h-15.742z"/>
  <path d="m187.45 360.64h15.742v15.742h-15.742z"/>
  <path d="m226.81 384.25h15.742v15.742h-15.742z"/>
  <path d="m203.2 431.49h15.742v15.742h-15.742z"/>
  <path d="m187.45 541.7h15.742v31.488h-15.742z"/>
  <path d="m226.81 573.18h15.742v15.742h-15.742z"/>
  <path d="m281.92 297.66h23.617v15.742h-23.617z"/>
  <path d="m321.28 297.66h15.742v15.742h-15.742z"/>
  <path d="m321.28 486.59h15.742v15.742h-15.742z"/>
  <path d="m392.12 203.2h15.742v15.742h-15.742z"/>
  <path d="m573.18 203.2h15.742v15.742h-15.742z"/>
  <path d="m415.74 250.43h15.742v23.617h-15.742z"/>
  <path d="m368.51 352.77h15.742v39.359h-15.742z"/>
  <path d="m368.51 407.87h15.742v15.742h-15.742z"/>
  <path d="m573.18 360.64h15.742v39.359h-15.742z"/>
  <path d="m573.18 415.74h15.742v15.742h-15.742z"/>
  <path d="m549.57 250.43h15.742v15.742h-15.742z"/>
  <path d="m384.25 541.7h15.742v15.742h-15.742z"/>
  <path d="m415.74 384.25h15.742v15.742h-15.742z"/>
  <path d="m588.93 541.7h15.742v31.488h-15.742z"/>
  <path d="m549.57 533.82h15.742v15.742h-15.742z"/>
  <path d="m486.59 313.41h15.742v15.742h-15.742z"/>
  <path d="m462.98 470.85h15.742v15.742h-15.742z"/>
 </g>
</svg>