<?xml version="1.0" encoding="UTF-8"?>
<!-- The Best Svg Icon site in the world: iconSvg.co, Visit us! https://iconsvg.co -->
<svg fill="#000000" width="800px" height="800px" version="1.1" viewBox="144 144 512 512" xmlns="http://www.w3.org/2000/svg">
 <g>
  <path d="m315.66 478.44c24.434 15.215 53.605 23.277 84.34 23.277 30.73 0 59.902-8.0625 84.336-23.277 36.375-22.57 58.141-58.746 58.141-96.883 0-41.262-24.586-79.098-65.746-101.27-20.859-11.234-37.637-23.879-51.289-38.59l-29.926-32.395-19.043 24.031c-16.477 20.656-34.914 36.777-54.766 47.762-40.203 22.27-64.188 59.852-64.188 100.46 0 38.137 21.766 74.309 58.141 96.879zm59.703-210.34c4.7344-4.6836 9.4727-9.7734 13.957-15.016 0.70703-0.85547 1.7617-1.3594 2.8711-1.3594 0.90625 0 1.7617 0.35156 2.4688 0.90625 0.75391 0.65625 1.2109 1.5625 1.3086 2.5703 0.050781 1.0078-0.25 2.0156-0.90625 2.7695-4.6367 5.4414-9.4727 10.629-14.41 15.516-0.70703 0.70703-1.6641 1.0586-2.6719 1.0586-1.0078 0-1.9648-0.40234-2.6719-1.1094-0.70703-0.70703-1.1094-1.6641-1.1094-2.6719 0.003906-1.0039 0.40625-1.9609 1.1641-2.6641zm-89.023 112.05c-2.1172 0-3.7773-1.6641-3.7773-3.7773 0-30.027 18.289-58.09 49.02-75.117 6.2969-3.5273 12.543-7.457 18.59-11.789 0.65625-0.50391 1.4102-0.75391 2.2148-0.75391 1.2109 0 2.3672 0.60547 3.0742 1.6133 1.2109 1.6641 0.80469 4.0312-0.85547 5.2383-6.2969 4.5352-12.797 8.6641-19.398 12.293-28.215 15.668-45.09 41.262-45.09 68.52 0 2.1094-1.7109 3.7734-3.7773 3.7734z"/>
  <path d="m486.96 486.3-0.60547-0.35156-0.60547 0.35156c-25.191 15.062-54.816 22.973-85.75 22.973s-60.559-7.9102-85.75-22.973l-0.60547-0.35156-0.60547 0.35156c-32.145 17.129-47.359 42.016-53.555 55.316l-1.6133 3.5273 47.609-26.148c0.55469-0.30078 1.2109-0.45312 1.8125-0.45312 0.50391 0 1.0078 0.10156 1.4102 0.25 1.1094 0.45312 1.8633 1.3594 2.2148 2.418l13.512 44.742 41.867-46.148c0.70703-0.80469 1.7617-1.2578 2.8203-1.2578 0.20312 0 0.40234 0 0.65625 0.050781 1.2578 0.20312 2.3164 1.0586 2.8203 2.2656l27.41 65.797 27.406-65.797c0.50391-1.2109 1.5625-2.0664 2.8203-2.2695 0.25-0.050781 0.45313-0.050781 0.65625-0.050781 1.0586 0 2.1172 0.45312 2.8203 1.2578l41.867 46.152 13.504-44.738c0.35156-1.0586 1.1094-1.9648 2.168-2.3672 0.45312-0.20312 0.95703-0.30078 1.4609-0.30078 0.60547 0 1.2578 0.15234 1.8125 0.45312l47.609 26.148-1.6133-3.5273c-6.1992-13.301-21.414-38.191-53.555-55.32z"/>
 </g>
</svg>