<?xml version="1.0" encoding="UTF-8"?>
<!-- The Best Svg Icon site in the world: iconSvg.co, Visit us! https://iconsvg.co -->
<svg fill="#000000" width="800px" height="800px" version="1.1" viewBox="144 144 512 512" xmlns="http://www.w3.org/2000/svg">
 <path d="m198.61 328.77c-0.76562 1.0938-1.0742 2.4453-0.84766 3.7617l6.9258 40.02c0.42188 2.4492 2.5547 4.1758 4.957 4.1758 0.28906 0 0.57422-0.023437 0.86719-0.074218l7.918-1.3711 51.152 183.3-54.453 9.668-6.7148-29.156c-0.625-2.7109-3.332-4.4023-6.0391-3.7773-2.7109 0.625-4.4023 3.332-3.7773 6.0391l7.793 33.82c0.53516 2.3242 2.6055 3.9062 4.9062 3.9062 0.29297 0 0.58984-0.023438 0.88672-0.082031l94.324-16.746 65.426-11.32c9.5234 29.344 37.09 50.633 69.57 50.633 40.336 0 73.152-32.816 73.152-73.152 0-0.73047-0.089844-1.4375-0.10938-2.1602l82.406-14.258c2.5508-0.44141 4.3477-2.7422 4.1602-5.3203l-13.793-195.23 9.168-1.5859c2.7422-0.47266 4.5742-3.0781 4.1016-5.8242l-6.9219-40.02c-0.22656-1.3164-0.96875-2.4844-2.0625-3.2539-1.0938-0.76562-2.4453-1.0664-3.7617-0.84766l-28.703 4.9688c-4.1094-17.875-14.445-33.441-29.555-44.098-16.254-11.457-36.004-15.906-55.586-12.504-12.727 2.2031-24.531 7.6016-34.441 15.73-17.074-19.594-42.926-28.898-68.754-24.441-32.641 5.6484-57.469 32.312-61.25 64.688-7.2734-1.9609-14.871-2.3242-22.34-1.0312-26.949 4.6641-45.469 29.363-42.996 56.148l-42.367 7.332c-1.2969 0.22656-2.4648 0.97266-3.2422 2.0625zm242.9 262.73c-34.781 0-63.082-28.293-63.082-63.078 0-34.781 28.293-63.082 63.082-63.082 34.777 0 63.078 28.293 63.078 63.082 0 34.785-28.297 63.078-63.078 63.078zm149.24-88.645-77.195 13.352c-5.8398-34.531-35.883-60.941-72.043-60.941-40.34 0-73.156 32.816-73.156 73.156 0 4.3438 0.45313 8.5703 1.1797 12.707l-90.004 15.566-51.109-183.13 348.93-60.375zm-301.8-229.7c7.8242-1.3594 15.852-0.45312 23.242 2.625 1.5352 0.62891 3.2734 0.47266 4.6797-0.42969 1.3906-0.90625 2.2461-2.4375 2.293-4.0977 0.76172-30.562 23.207-56.531 53.367-61.75 23.887-4.1211 47.785 5.3711 62.41 24.793 0.86719 1.1484 2.1758 1.8672 3.6055 1.9883 1.4727 0.13672 2.8398-0.37891 3.8828-1.3672 9.2266-8.7578 20.738-14.535 33.293-16.703 16.934-2.9414 34.008 0.91016 48.062 10.812 12.906 9.1055 21.785 22.355 25.426 37.578l-295.05 51.051c-1.5547-21.301 13.312-40.785 34.789-44.5zm295.66-2.4453 5.1992 30.094-376.05 65.062-5.2031-30.094z"/>
</svg>