<?xml version="1.0" encoding="UTF-8"?>
<!-- The Best Svg Icon site in the world: iconSvg.co, Visit us! https://iconsvg.co -->
<svg fill="#000000" width="800px" height="800px" version="1.1" viewBox="144 144 512 512" xmlns="http://www.w3.org/2000/svg">
 <path d="m512.33 348.28-8.4219-1.9688 2.7539-8.1875c2.125-6.1406 3.1484-12.594 3.1484-19.051 0-33.531-27.238-60.77-60.77-60.77-24.168 0-45.973 14.25-55.656 36.367l-2.6758 5.9844-6.375-1.4961c-11.02-2.5977-21.648-2.0469-31.723 1.1016l-8.8945 2.6758-1.2617-9.1328c-2.8359-20.227-20.234-35.5-40.543-35.5-22.672 0-41.172 18.5-41.172 41.172 0 10.941 4.25 21.254 12.043 29.125l2.9141 2.9141-0.78906 4.0156c-0.55078 3.2266-0.86328 6.375-0.86328 9.3672 0 14.801 6.6914 28.34 18.344 37.312l14.719 11.258-18.344 2.7539c-27.156 4.0156-47.625 27.789-47.625 55.262 0 30.859 25.031 55.891 55.891 55.891 14.09 0 27.551-5.2734 37.785-14.879l3.9375-3.7773 4.9609 2.5195c5.3516 2.6758 11.336 4.5664 17.633 5.5117l4.6445 0.70703 1.5742 4.4102c8.7383 23.852 31.566 39.832 56.914 39.832 33.535 0 60.852-27.238 60.852-60.773 0-1.4961-0.15625-2.832-0.23828-4.25l-0.86719-9.4453 9.3672 0.62891c1.7305 0.15625 3.0703 0.31641 4.4883 0.31641 33.535 0 60.773-27.316 60.773-60.852 0-28.184-19.129-52.43-46.523-59.043zm-183.18 130.44c-26.055 0-47.23-21.176-47.23-47.23h15.742c0 17.398 14.09 31.488 31.488 31.488zm94.465 0v-15.742c12.988 0 23.617-10.629 23.617-23.617h15.742c0.003906 21.727-17.633 39.359-39.359 39.359zm54.871-70.77-11.102-11.102c5.9844-5.9844 9.2109-13.855 9.2109-22.277 0-8.4219-3.2266-16.293-9.2109-22.277-11.887-11.887-32.59-11.887-44.555 0l-11.102-11.102c8.8945-8.9727 20.781-13.855 33.379-13.855 12.594 0 24.48 4.8828 33.379 13.855 8.9727 8.8945 13.855 20.781 13.855 33.379-0.003906 12.598-4.8828 24.484-13.855 33.379z"/>
</svg>