<?xml version="1.0" encoding="UTF-8"?>
<!-- The Best Svg Icon site in the world: iconSvg.co, Visit us! https://iconsvg.co -->
<svg fill="#000000" width="800px" height="800px" version="1.1" viewBox="144 144 512 512" xmlns="http://www.w3.org/2000/svg">
 <g>
  <path d="m541.7 384.25v-62.977h-55.105c-16.902 0.089844-33.414 5.0977-47.523 14.406s-25.207 22.523-31.938 38.031c-14.379-10.285-22.898-26.887-22.875-44.566v-78.719c-0.019531-18.785-7.4922-36.793-20.773-50.074s-31.289-20.754-50.074-20.773h-23.617c-8.2969 0.011719-16.445 2.207-23.625 6.3672-7.1797 4.1602-13.137 10.141-17.27 17.336l-41.926 13.973c-5.1602 1.7109-9.1914 5.7891-10.852 10.965-1.6562 5.1797-0.73828 10.84 2.4688 15.23 3.207 4.3906 8.3203 6.9805 13.758 6.9766h36.605c8.4258 14.594 23.988 23.594 40.84 23.617 4.2109 0.019531 8.2383 1.7148 11.195 4.7109 2.9531 3 4.5938 7.0508 4.5508 11.262 0.058594 22.98-9.0781 45.031-25.371 61.234l-2.6914 2.6992h-0.003906c-22.352 22.355-34.91 52.676-34.91 84.289 0 31.617 12.559 61.934 34.914 84.289 22.355 22.352 52.676 34.91 84.293 34.906h22.488v47.23l-23.617 0.003906v15.742h39.359l0.003906-62.977h39.359v47.23l-23.617 0.003906v15.742h39.359v-62.977h31.488c31.309-0.035156 61.32-12.484 83.457-34.621 22.137-22.137 34.59-52.152 34.625-83.457v-55.105zm-55.105-47.23h39.359v78.719c-0.015625 16.695-6.6562 32.703-18.465 44.512-11.805 11.805-27.812 18.445-44.508 18.465h-47.234v-70.848c0.007812-6.8477 1.0078-13.656 2.9688-20.215 4.4062-14.594 13.379-27.387 25.598-36.5 12.219-9.1172 27.039-14.07 42.281-14.133zm-244.03-102.34h-30.215c-0.625 0-1.1641-0.45312-1.2617-1.0742-0.10156-0.62109 0.26562-1.2188 0.86328-1.4141l30.613-10.211zm346.37 204.67c-0.03125 27.133-10.82 53.141-30.008 72.328-19.184 19.184-45.195 29.977-72.328 30.008h-124.82c-27.441 0-53.758-10.898-73.16-30.305-19.402-19.402-30.301-45.719-30.297-73.156 0-27.441 10.902-53.758 30.309-73.156l2.6914-2.6992c19.293-19.215 30.086-45.359 29.969-72.59 0-8.3516-3.3164-16.359-9.2227-22.266-5.9023-5.9023-13.914-9.2227-22.266-9.2227-11.25 0-21.645-6-27.27-15.742-5.625-9.7422-5.625-21.746 0-31.488 5.625-9.7422 16.02-15.746 27.27-15.746h23.617c14.609 0.019531 28.617 5.8281 38.945 16.16 10.332 10.328 16.141 24.336 16.16 38.945v78.719c-0.066407 24.523 12.633 47.312 33.52 60.16 0 0.11719 0 0.24219-0.0625 0.37109-0.55859 2.5898-0.96875 5.1953-1.2812 7.8164-0.085938 0.69922-0.16406 1.4023-0.22656 2.1016-0.26953 2.7539-0.45703 5.5117-0.45703 8.2812l-0.003906 86.582h62.977c20.867-0.019532 40.879-8.3203 55.637-23.082 14.758-14.758 23.059-34.766 23.082-55.637v-15.742h47.23z"/>
  <path d="m297.66 226.81c0 4.3477-3.5273 7.875-7.875 7.875-4.3477 0-7.8711-3.5273-7.8711-7.875s3.5234-7.8711 7.8711-7.8711c4.3477 0 7.875 3.5234 7.875 7.8711"/>
 </g>
</svg>