<?xml version="1.0" encoding="UTF-8"?>
<!-- The Best Svg Icon site in the world: iconSvg.co, Visit us! https://iconsvg.co -->
<svg fill="#000000" width="800px" height="800px" version="1.1" viewBox="144 144 512 512" xmlns="http://www.w3.org/2000/svg">
 <g>
  <path d="m297.66 274.05c-20.879 0-40.902 8.293-55.664 23.055-14.766 14.766-23.059 34.785-23.059 55.664s8.293 40.902 23.059 55.664c14.762 14.762 34.785 23.059 55.664 23.059 20.875 0 40.898-8.2969 55.66-23.059 14.766-14.762 23.059-34.785 23.059-55.664-0.023437-20.871-8.3242-40.879-23.082-55.637-14.758-14.758-34.77-23.059-55.637-23.082zm0 141.7c-16.703 0-32.723-6.6328-44.531-18.445-11.812-11.809-18.445-27.828-18.445-44.531s6.6328-32.719 18.445-44.531c11.809-11.809 27.828-18.445 44.531-18.445 16.699 0 32.719 6.6367 44.527 18.445 11.812 11.812 18.445 27.828 18.445 44.531-0.015625 16.699-6.6562 32.703-18.465 44.512-11.805 11.805-27.812 18.445-44.508 18.465z"/>
  <path d="m297.66 313.41c-10.441 0-20.453 4.1484-27.832 11.527-7.3828 7.3828-11.531 17.395-11.531 27.832 0 10.441 4.1484 20.449 11.531 27.832 7.3789 7.3828 17.391 11.527 27.832 11.527 10.438 0 20.449-4.1445 27.828-11.527 7.3828-7.3828 11.531-17.391 11.531-27.832-0.011719-10.434-4.1641-20.438-11.543-27.816-7.3789-7.3789-17.383-11.531-27.816-11.543zm0 62.977c-6.2656 0-12.273-2.4883-16.699-6.918-4.4297-4.4297-6.918-10.434-6.918-16.699 0-6.2617 2.4883-12.27 6.918-16.699 4.4258-4.4297 10.434-6.918 16.699-6.918 6.2617 0 12.27 2.4883 16.695 6.918 4.4297 4.4297 6.918 10.438 6.918 16.699 0 6.2656-2.4883 12.27-6.918 16.699-4.4258 4.4297-10.434 6.918-16.695 6.918z"/>
  <path d="m439.36 234.69h-141.7c-29.691 0.011719-58.277 11.262-80.012 31.488h-53.816v15.742h39.582c-7.2188 9.5742-12.934 20.191-16.949 31.488h-22.633v15.742h18.109c-1.5781 7.7734-2.3672 15.688-2.3633 23.617 0 2.6602 0.22656 5.2578 0.40234 7.8711h-16.148v15.742l18.109 0.003906c2.2539 10.984 6.0742 21.59 11.34 31.488h-29.449v15.742h39.363v-0.30078 0.003906c9.6523 12.914 21.832 23.73 35.801 31.785h-75.164v15.742l472.32 0.003906v-15.746h-138.14c13.969-8.0547 26.148-18.871 35.805-31.785v0.29688h70.848v-15.742h-60.953c5.2734-9.8984 9.0977-20.504 11.359-31.488h81.082v-15.746h-79.121c0.17188-2.6133 0.40234-5.2109 0.40234-7.8711h-0.003906c0.007812-7.9297-0.78516-15.844-2.3594-23.617h10.234v-15.742h-14.762c-4.0156-11.297-9.7305-21.914-16.949-31.488h102.56v-15.742h-116.79c-21.734-20.227-50.32-31.477-80.012-31.488zm-244.04 118.08c0-27.141 10.785-53.172 29.977-72.363 19.191-19.191 45.219-29.973 72.363-29.973 27.141 0 53.168 10.781 72.359 29.973 19.191 19.191 29.977 45.223 29.977 72.363s-10.785 53.172-29.977 72.363c-19.191 19.191-45.219 29.973-72.359 29.973-27.133-0.03125-53.145-10.82-72.328-30.008-19.188-19.184-29.98-45.195-30.012-72.328zm244.04 102.34h-83.035c24.176-13.797 42.684-35.711 52.246-61.852s9.5625-54.824 0-80.965c-9.5625-26.145-28.07-48.055-52.246-61.855h83.035c36.559 0 70.344 19.504 88.625 51.168 18.281 31.664 18.281 70.676 0 102.34-18.281 31.664-52.066 51.168-88.625 51.168z"/>
  <path d="m457.91 431.16 10.125 12.051h-0.003906c6.2031-5.2031 11.852-11.031 16.863-17.387l-12.359-9.7461c-4.3516 5.5078-9.25 10.562-14.625 15.082z"/>
  <path d="m484.61 308.92c14.656 30.969 12.871 67.215-4.7617 96.59l13.477 8.1172c20.359-33.898 22.426-75.727 5.5117-111.47z"/>
  <path d="m489.04 285.3c-3.7656-5.4023-7.9805-10.477-12.594-15.172l-11.242 11.02v0.003907c3.9922 4.0664 7.6367 8.4609 10.895 13.137z"/>
  <path d="m461.79 335.91-15.594 2.2188c0.69141 4.8477 1.0391 9.7383 1.0391 14.633 0.023437 30.258-13.363 58.969-36.559 78.398l10.141 12.051c26.75-22.422 42.191-55.543 42.164-90.449-0.003906-5.6367-0.40234-11.27-1.1914-16.852z"/>
  <path d="m458.09 319.04c-5.5039-18.406-15.406-35.199-28.852-48.926l-11.242 11.02v0.003906c11.652 11.883 20.23 26.426 24.996 42.375z"/>
  <path d="m581.05 313.41h55.105v15.742h-55.105z"/>
  <path d="m620.41 407.87h15.742v15.742h-15.742z"/>
  <path d="m163.84 502.34h291.27v15.742h-291.27z"/>
  <path d="m242.56 549.57h393.6v15.742h-393.6z"/>
  <path d="m163.84 549.57h62.977v15.742h-62.977z"/>
  <path d="m470.85 502.34h31.488v15.742h-31.488z"/>
  <path d="m518.08 502.34h118.08v15.742h-118.08z"/>
 </g>
</svg>