<?xml version="1.0" encoding="UTF-8"?>
<!-- The Best Svg Icon site in the world: iconSvg.co, Visit us! https://iconsvg.co -->
<svg fill="#000000" width="800px" height="800px" version="1.1" viewBox="144 144 512 512" xmlns="http://www.w3.org/2000/svg">
 <g>
  <path d="m472.65 437.48c-38.945 7.8594-63.18 34.461-72.648 46.25-9.4727-11.789-33.703-38.34-72.648-46.25h-0.003906c-9.2422-1.8906-18.684-2.6367-28.109-2.2148 0 2.7695 0 43.176 32.496 63.582h-0.003906c12.891 7.9336 28.008 11.469 43.078 10.074v17.027c0 9 4.8008 17.316 12.594 21.816 7.793 4.5 17.398 4.5 25.191 0s12.594-12.816 12.594-21.816v-17.027c15.074 1.3945 30.188-2.1406 43.078-10.074 32.496-20.254 32.496-60.66 32.496-63.582-9.4258-0.42188-18.871 0.32422-28.113 2.2148z"/>
  <path d="m472.65 363.37c-38.945 7.8594-63.18 34.461-72.648 46.25-9.4727-11.789-33.703-38.391-72.648-46.25h-0.003906c-9.2422-1.8828-18.688-2.5938-28.109-2.1172 1.4961 24.797 13.273 47.844 32.492 63.582 4.5234 3.5391 9.4023 6.5938 14.562 9.1211 0 0 2.1172 1.0586 4.1797 1.9648 15.277 5.6641 31.473 8.4336 47.762 8.1602h3.5273c16.27 0.24609 32.445-2.5234 47.711-8.1602 2.1172-0.90625 3.9805-1.8125 4.2305-1.9648 5.1602-2.5273 10.039-5.582 14.562-9.1211 19.219-15.738 30.996-38.785 32.496-63.582-9.4219-0.47656-18.867 0.23438-28.113 2.1172z"/>
  <path d="m454.51 283.27c-12.055 3.7656-22.988 10.445-31.84 19.449-4.4258-19.117-12.094-37.336-22.672-53.859-10.602 16.512-18.273 34.734-22.672 53.859-8.8516-9.0039-19.789-15.684-31.844-19.449-6.8281-1.9883-13.957-2.7578-21.059-2.2656 0 5.8438 2.0664 43.176 24.383 68.316h0.003906c3.2383 3.7695 6.9102 7.1523 10.93 10.074 0 0 1.5625 1.1094 3.125 2.0664 4.2266 2.3516 8.7031 4.2109 13.352 5.543 7.293 2.1719 14.863 3.2578 22.469 3.2227h2.6211c7.6133 0.046875 15.188-1.0586 22.469-3.2734 4.6484-1.3047 9.1328-3.1484 13.352-5.4922 1.5625-0.95703 2.9727-1.9648 3.125-2.0664 4.0234-2.9219 7.6914-6.3047 10.934-10.074 22.316-24.891 24.383-62.473 24.383-68.316-7.0977-0.49219-14.227 0.27734-21.059 2.2656z"/>
 </g>
</svg>