<?xml version="1.0" encoding="UTF-8"?>
<!-- The Best Svg Icon site in the world: iconSvg.co, Visit us! https://iconsvg.co -->
<svg fill="#000000" width="800px" height="800px" version="1.1" viewBox="144 144 512 512" xmlns="http://www.w3.org/2000/svg">
 <g>
  <path d="m206.03 601.52h392.97c3.0234 0 5.0391-2.0156 5.0391-5.0391v-47.863c0-3.0234-2.0156-5.0391-5.0391-5.0391h-7.0547v-113.36h7.0547c3.0234 0 5.0391-2.0156 5.0391-5.0391v-47.863c0-3.0234-2.0156-5.0391-5.0391-5.0391h-60.457v-51.383c9.0703-0.50391 28.215-2.5195 40.809-15.113 16.625-17.129 14.105-45.344 14.105-46.352 0-2.5195-2.0156-4.5352-4.5352-4.5352-1.0078 0-16.625-1.0078-31.234 5.543 1.5117-4.5352 3.0234-9.5742 3.0234-15.113 0-24.688-22.168-44.336-23.176-45.344-2.0156-1.5117-4.5352-1.5117-6.5508 0-1.0078 1.0078-23.68 20.152-23.68 44.84 0 6.0469 1.5117 12.09 3.5273 17.129-15.617-7.0547-32.746-5.543-33.754-5.543-2.5195 0-4.5352 2.0156-4.5352 4.5352 0 1.0078-1.5117 29.727 15.113 46.352 12.594 12.594 31.738 14.105 41.312 14.105v50.883h-122.93v-51.387c9.0703-0.50391 28.215-2.5195 40.809-15.113 16.625-17.129 14.105-45.344 14.105-46.352 0-2.5195-2.0156-4.5352-4.5352-4.5352-1.0078 0-16.625-1.0078-31.234 5.543 1.5117-4.5352 3.0234-9.5742 3.0234-15.113 0-24.688-22.168-44.336-23.176-45.344-2.0156-1.5117-4.5352-1.5117-6.5508 0-1.0078 1.0078-23.68 20.152-23.68 44.84 0 6.0469 1.5117 12.09 3.5273 17.129-15.617-7.0547-32.746-5.543-33.754-5.543-2.5195 0-4.5352 2.0156-4.5352 4.5352 0 1.0078-1.5117 29.727 15.113 46.352 12.594 12.594 31.738 14.105 41.312 14.105v50.883h-122.93v-51.387c9.0703-0.50391 28.215-2.5195 40.809-15.113 16.625-17.129 14.105-45.344 14.105-46.352 0-2.5195-2.0156-4.5352-4.5352-4.5352-1.0078 0-16.625-1.0078-31.234 5.543 1.5117-4.5352 3.0234-9.5742 3.0234-15.113 0-24.688-22.168-44.336-23.176-45.344-2.0156-1.5117-4.5352-1.5117-6.5508 0-1.0078 1.0078-23.68 20.152-23.68 44.84 0 6.0469 1.5117 12.09 3.5273 17.129-15.617-7.0547-32.746-5.543-33.754-5.543-2.5195 0-4.5352 2.0156-4.5352 4.5352 0 1.0078-1.5117 29.727 15.113 46.352 12.594 12.594 31.738 14.105 41.312 14.105v50.883h-57.938c-3.0234 0-5.0391 2.0156-5.0391 5.0391v47.859c0 3.0234 2.0156 5.0391 5.0391 5.0391h7.0547v113.36h-7.0547c-3.0234 0-5.0391 2.0156-5.0391 5.0391v47.863c0 3.0234 2.0156 5.0391 5.0391 5.0391zm365.77-302.79c-9.5742 10.078-25.695 12.09-33.754 12.09v-3.0234c0.50391-8.5664 2.5195-22.168 11.082-31.234 9.5742-10.078 25.695-12.09 33.754-12.09 0.50781 8.0586-1.0039 24.18-11.082 34.258zm-38.289-88.168c5.543 6.0469 16.625 19.145 16.121 34.258 0 15.113-11.082 28.215-17.129 33.754-5.543-6.0469-16.625-19.145-16.121-34.258 0.50391-15.113 11.586-28.211 17.129-33.754zm-39.297 89.176c-10.078-9.5742-12.09-25.695-12.09-33.754 8.0625 0 23.68 1.5117 34.258 11.082 10.578 9.5742 12.09 25.695 12.09 33.754-8.0586 0-24.184-1.0078-34.258-11.082zm-54.914-1.0078c-9.5742 10.078-25.695 12.09-33.754 12.09v-3.0234c0.50391-8.5664 2.5195-22.168 11.082-31.234 9.5742-10.078 25.695-12.09 33.754-12.09 0.50391 8.0586-1.0078 24.18-11.082 34.258zm-38.289-88.168c5.543 6.0469 16.625 19.145 16.121 34.258 0 15.113-11.082 28.215-17.129 33.754-5.543-6.0469-16.625-19.145-16.121-34.258 0.5-14.609 11.586-28.211 17.129-33.754zm-39.297 89.176c-10.078-9.5742-12.09-25.695-12.09-33.754 7.5586 0 23.68 1.5117 34.258 11.082 10.078 9.5742 12.09 25.695 12.09 33.754-8.0625 0-24.184-1.0078-34.258-11.082zm-54.918-1.0078c-9.5742 10.078-25.695 12.09-33.754 12.09v-3.0234c0.50391-8.5664 2.5195-22.168 11.082-31.234 9.5742-10.078 25.695-12.09 33.754-12.09 0.50781 8.0586-1.0039 24.18-11.082 34.258zm-38.289-88.168c5.543 6.0469 16.625 19.145 16.121 34.258 0 15.113-11.082 28.215-17.129 33.754-5.543-6.0469-16.625-19.145-16.121-34.258 0.50391-14.609 11.586-28.211 17.129-33.754zm-39.297 89.176c-10.078-9.5742-12.09-25.695-12.09-33.754 8.0625 0 23.68 1.5117 34.258 11.082 10.078 9.5742 12.09 25.695 12.09 33.754-8.0586 0-24.18-1.0078-34.258-11.082zm-18.137 82.121h382.89v38.289h-382.89zm12.09 48.363h358.71v113.36l-358.71 0.003907zm-12.09 123.43h382.89v37.785h-382.89z"/>
  <path d="m580.87 401.01c0 3.6172-2.9336 6.5469-6.5508 6.5469-3.6172 0-6.5508-2.9297-6.5508-6.5469 0-3.6172 2.9336-6.5508 6.5508-6.5508 3.6172 0 6.5508 2.9336 6.5508 6.5508"/>
  <path d="m580.87 572.3c0 3.6172-2.9336 6.5508-6.5508 6.5508-3.6172 0-6.5508-2.9336-6.5508-6.5508 0-3.6172 2.9336-6.5508 6.5508-6.5508 3.6172 0 6.5508 2.9336 6.5508 6.5508"/>
  <path d="m236.77 401.01c0 3.6172-2.9336 6.5469-6.5508 6.5469-3.6172 0-6.5508-2.9297-6.5508-6.5469 0-3.6172 2.9336-6.5508 6.5508-6.5508 3.6172 0 6.5508 2.9336 6.5508 6.5508"/>
  <path d="m236.77 572.3c0 3.6172-2.9336 6.5508-6.5508 6.5508-3.6172 0-6.5508-2.9336-6.5508-6.5508 0-3.6172 2.9336-6.5508 6.5508-6.5508 3.6172 0 6.5508 2.9336 6.5508 6.5508"/>
 </g>
</svg>