<?xml version="1.0" encoding="UTF-8"?>
<!-- The Best Svg Icon site in the world: iconSvg.co, Visit us! https://iconsvg.co -->
<svg fill="#000000" width="800px" height="800px" version="1.1" viewBox="144 144 512 512" xmlns="http://www.w3.org/2000/svg">
 <path d="m611.48 383.86c-1.4414-2.6836-2.8008-5.2188-3.418-7.5664-0.66406-2.5078-0.74609-5.4922-0.83594-8.6484-0.14844-5.0469-0.30859-10.77-3.1211-15.68-2.8555-4.9922-7.7109-8.0117-12-10.676-2.6211-1.6289-5.0977-3.168-6.8555-4.9414-1.75-1.7773-3.2773-4.2891-4.8867-6.9453-2.6289-4.3359-5.6094-9.2539-10.547-12.148-4.8789-2.8594-10.559-3.0273-15.562-3.1719-3.1094-0.09375-6.0469-0.17969-8.5078-0.84375-2.2969-0.62109-4.7969-1.9961-7.4453-3.4531-4.4688-2.457-9.5234-5.2383-15.379-5.2383-8.1367 0-12.422 1.6953-16.207 3.1875-3.375 1.332-6.2891 2.4844-12.508 2.4844-6.2227 0-9.1367-1.1523-12.512-2.4844-3.7852-1.4922-8.0703-3.1875-16.207-3.1875-8.1328 0-12.418 1.6953-16.203 3.1914-3.3672 1.332-6.2773 2.4805-12.488 2.4805-6.2109 0-9.1172-1.1523-12.48-2.4805-1.707-0.67578-3.5391-1.3828-5.7578-1.9688 1.0742-2.1992 1.6719-4.6211 1.5625-7.1094-0.17578-4.0781-2.0664-7.9102-5.1797-10.508-14.375-11.984-31.438-10.48-42.348-7.6094 0.14453-1.3633 0.23828-2.7422 0.23828-4.1484 0-19.555-14.371-35.465-32.035-35.465-7.1797 0-13.953 2.5938-19.527 7.3984-5.5703-4.8047-12.348-7.3984-19.527-7.3984-7.1797 0-13.953 2.5938-19.527 7.3984-5.5742-4.8047-12.348-7.3984-19.527-7.3984-17.664 0-32.035 15.91-32.035 35.465 0 1.4062 0.09375 2.7852 0.23828 4.1484-10.914-2.8711-27.977-4.3711-42.348 7.6094-3.1133 2.6016-5.0039 6.4297-5.1797 10.508-0.17969 4.1562 1.4141 8.2305 4.375 11.164 7.2578 7.207 20.031 16.977 35.922 16.973 2.043 0 4.1562-0.23047 6.3008-0.58203l14.359 75.484c2.4727 13.008 10.785 23.875 22.207 30.625 0.14844 4.7305 0.48438 9.9102 3.0664 14.422 2.4688 4.3203 6.4297 7.1367 10.234 9.5469 0 0.015625-0.007812 0.03125-0.007812 0.046875v92.629c0 3.6055 1.8555 6.8555 4.9648 8.6836 1.5898 0.93359 3.3477 1.4062 5.1055 1.4062 1.6758 0 3.3516-0.42969 4.8906-1.2852l8.2344-4.5664 8.2305 4.5664c3.1445 1.75 6.8906 1.707 10-0.12109 3.1094-1.832 4.9648-5.0781 4.9648-8.6836v-63.773c0.57422 0.09375 1.2031 0.13281 1.7344 0.27344 2.2969 0.625 4.793 1.9961 7.4375 3.4531 1.543 0.84766 3.1914 1.7031 4.8867 2.5v57.547c0 3.6055 1.8555 6.8555 4.9648 8.6836 1.5898 0.93359 3.3477 1.4062 5.1055 1.4062 1.6758 0 3.3516-0.42969 4.8906-1.2852l8.2344-4.5664 8.2305 4.5664c3.1484 1.75 6.8945 1.707 10-0.12109 3.1094-1.832 4.9648-5.0781 4.9648-8.6836l0.007813-59.762c1.9883 0.45703 3.5977 1.0898 5.3203 1.7695 3.7852 1.4961 8.0703 3.1875 16.207 3.1875s12.422-1.6914 16.207-3.1875c3.3711-1.332 6.2773-2.4844 12.492-2.4844 6.2031 0 9.1133 1.1523 12.477 2.4844 3.7773 1.4961 8.0625 3.1875 16.191 3.1875 8.1328 0 12.414-1.6914 16.195-3.1875 1.707-0.67578 3.3008-1.3047 5.2656-1.7617v59.758c0 3.6055 1.8555 6.8555 4.9688 8.6836 1.5898 0.93359 3.3438 1.4062 5.1055 1.4062 1.6758 0 3.3516-0.42969 4.8906-1.2852l8.2305-4.5664 8.2344 4.5664c3.1445 1.75 6.8945 1.7031 9.9961-0.12109 3.1133-1.832 4.9688-5.0781 4.9688-8.6836l0.007813-57.547c1.6953-0.80078 3.3398-1.6523 4.8867-2.5 2.6484-1.457 5.1406-2.8281 7.4336-3.4492 0.53516-0.14453 1.1641-0.17969 1.7383-0.27734v63.773c0 3.6055 1.8555 6.8555 4.9688 8.6836 1.5898 0.93359 3.3516 1.4062 5.1055 1.4062 1.6758 0 3.3516-0.42969 4.8906-1.2773l8.2344-4.5703 8.2305 4.5664c3.1445 1.75 6.8945 1.7031 9.9961-0.12109 3.1133-1.832 4.9688-5.0781 4.9688-8.6836l0.003907-92.633c0-0.015625-0.007813-0.027344-0.007813-0.042969 3.8047-2.4102 7.7656-5.2266 10.234-9.543 2.8086-4.9102 2.9727-10.637 3.1211-15.684 0.089844-3.1602 0.17188-6.1445 0.83594-8.6562 0.62109-2.3438 1.9766-4.875 3.418-7.5625 2.4141-4.5078 5.1562-9.6133 5.1562-15.5-0.003906-5.8867-2.7422-10.992-5.1602-15.496zm-242.02-91.719c7.3164-2.7539 25.305-7.6914 39.027 3.7539 0.96094 0.79688 1.5156 1.9336 1.5703 3.2031 0.058594 1.332-0.45703 2.6328-1.4102 3.582-8.0352 7.9805-19.855 15.926-33.738 13.578 0.39062-8.3008-1.5156-16.422-5.5859-23.797 0.046875-0.10547 0.089844-0.21484 0.13672-0.32031zm-106.77-41.133c5.9102 0 11.477 2.7422 15.676 7.7188 1.9141 2.2695 5.7852 2.2695 7.6992 0 4.1992-4.9805 9.7656-7.7188 15.676-7.7188s11.477 2.7422 15.676 7.7188c0.95703 1.1367 2.3633 1.7891 3.8516 1.7891 1.4844 0 2.8945-0.65625 3.8516-1.7891 4.2031-4.9805 9.7695-7.7188 15.676-7.7188 12.109 0 21.961 11.391 21.961 25.387 0 13.996-9.8516 25.387-21.961 25.387-5.9102 0-11.477-2.7422-15.676-7.7188-0.95703-1.1367-2.3672-1.7891-3.8516-1.7891-1.4844 0-2.8945 0.65625-3.8516 1.7891-4.1953 4.9805-9.7656 7.7188-15.676 7.7188s-11.477-2.7422-15.676-7.7188c-1.9141-2.2695-5.7852-2.2695-7.6992 0-4.2031 4.9805-9.7695 7.7188-15.676 7.7188-12.109 0-21.961-11.391-21.961-25.387 0-13.996 9.8516-25.387 21.961-25.387zm-34.113 65.246c-13.879 2.3398-25.699-5.6016-33.742-13.574-0.95312-0.94531-1.4648-2.25-1.4062-3.582 0.054687-1.2695 0.60938-2.4062 1.5664-3.2031 13.719-11.445 31.711-6.5039 39.027-3.75 0.046875 0.10547 0.089844 0.21484 0.14062 0.32031-4.0664 7.3672-5.9766 15.488-5.5859 23.789zm25.641 83.562-15.035-79.023c-1.207-6.3516-0.62891-12.699 1.5703-18.621 5.7383 5.9883 13.445 9.6875 21.938 9.6875 7.1797 0 13.953-2.5938 19.527-7.3984 5.5742 4.8047 12.348 7.3984 19.527 7.3984s13.957-2.5938 19.527-7.3984c5.5742 4.8008 12.348 7.3984 19.527 7.3984 8.4883 0 16.199-3.6992 21.938-9.6875 2.1992 5.9258 2.7773 12.27 1.5703 18.621l-15.031 79.023c-3.2891 17.289-19.988 29.84-39.711 29.84h-15.637c-19.723 0-36.422-12.551-39.711-29.84zm61.918 149.16-10.676-5.9219c-1.5195-0.84766-3.3672-0.84766-4.8867 0l-10.68 5.9219v-17.246h26.246zm0-27.32h-26.246v-57.469c1.1719 1.5273 2.2969 3.2383 3.4414 5.1289 2.6289 4.3359 5.6055 9.25 10.547 12.145 3.8359 2.25 8.1523 2.8242 12.258 3.043zm60.457 27.32-10.676-5.9219c-1.5195-0.84766-3.3672-0.84766-4.8867 0l-10.68 5.9219v-17.246h26.246zm0-27.32h-26.246v-27.535c0.14453 0.003906 0.27734 0.046874 0.42578 0.046874 8.1367 0 12.422-1.6914 16.203-3.1875 2.7969-1.1055 5.3047-2.0742 9.6172-2.3789zm146.76 27.316-10.68-5.9219c-1.5234-0.83594-3.3672-0.83984-4.8906 0.003906l-10.676 5.9219v-17.246h26.25zm0-27.316h-26.25v-33.059c4.3242 0.30078 6.832 1.2734 9.6289 2.3789 3.7773 1.4961 8.0625 3.1875 16.195 3.1875 0.14453 0 0.27734-0.042968 0.42187-0.046875zm60.457 27.32-10.676-5.9219c-1.5234-0.84766-3.3672-0.83984-4.8906-0.003906l-10.68 5.9297v-17.246h26.25zm0-27.32h-26.25v-37.152c4.1055-0.21875 8.4219-0.79297 12.262-3.043 4.9336-2.8945 7.918-7.8086 10.543-12.145 1.1445-1.8906 2.2734-3.6016 3.4453-5.1328zm18.793-111.56c-1.6523 3.0781-3.3594 6.2617-4.2812 9.75-0.96094 3.6328-1.0664 7.3438-1.1719 10.938-0.11719 4.2461-0.23438 8.25-1.7891 10.973-1.5898 2.7812-4.9805 4.8867-8.5703 7.1133-3.0078 1.8633-6.1172 3.793-8.7031 6.4141-2.5938 2.6211-4.4961 5.7695-6.3438 8.8125-2.2031 3.6367-4.2852 7.0703-7.0195 8.668-2.6562 1.5586-6.5977 1.6758-10.77 1.8008-3.5508 0.10156-7.2344 0.21094-10.84 1.1875-3.457 0.94141-6.6133 2.6719-9.6562 4.3438-3.7344 2.0547-7.2578 3.9961-10.527 3.9961-6.2109 0-9.1211-1.1523-12.488-2.4844-3.7773-1.4961-8.0625-3.1875-16.191-3.1875-8.1328 0-12.414 1.6914-16.195 3.1875-3.3672 1.332-6.2773 2.4844-12.488 2.4844-6.2109 0-9.1172-1.1523-12.48-2.4844-3.7773-1.4961-8.0586-3.1875-16.188-3.1875-8.1328 0-12.418 1.6914-16.195 3.1875-3.375 1.332-6.2812 2.4844-12.5 2.4844-6.2148 0-9.1289-1.1523-12.5-2.4844-3.7852-1.4961-8.0703-3.1875-16.211-3.1875s-12.43 1.6914-16.211 3.1875c-3.3711 1.332-6.2852 2.4844-12.5 2.4844-3.2734 0-6.7969-1.9375-10.527-3.9961-3.0508-1.6719-6.2031-3.4102-9.668-4.3477-3.6055-0.96875-7.2773-1.0781-10.836-1.1797-4.168-0.12109-8.1094-0.24219-10.77-1.8008-2.7383-1.6055-4.8164-5.0391-7.0195-8.668-1.8398-3.0469-3.7461-6.1875-6.3359-8.8125-2.5938-2.6211-5.7031-4.5508-8.707-6.4219-3.5898-2.2305-6.9805-4.3359-8.5664-7.1094-0.74609-1.3047-1.1484-2.9219-1.3945-4.7031 5.3242 1.7305 11.043 2.6875 16.984 2.6875h15.633c24.555 0 45.418-15.996 49.609-38.031l14.359-75.48c2.1445 0.35156 4.2578 0.58203 6.3008 0.58203 12.496 0 23.016-6.043 30.488-12.125 4.7578 0.23828 7.3516 1.2656 10.293 2.4297 3.7773 1.4961 8.0625 3.1914 16.191 3.1914 8.1328 0 12.414-1.6953 16.195-3.1875 3.3672-1.332 6.2773-2.4844 12.492-2.4844 6.2188 0 9.1328 1.1523 12.508 2.4844 3.7852 1.4922 8.0703 3.1875 16.211 3.1875 8.1367 0 12.422-1.6953 16.207-3.1875 3.375-1.332 6.2891-2.4844 12.508-2.4844 3.2656 0 6.7891 1.9375 10.523 3.9883 3.0508 1.6758 6.2031 3.4141 9.6719 4.3516 3.6016 0.97266 7.2773 1.082 10.832 1.1875 4.1719 0.12109 8.1094 0.23828 10.77 1.7969 2.7344 1.6016 4.8203 5.0391 7.0273 8.6758 1.8398 3.0391 3.7422 6.1836 6.332 8.8047 2.5938 2.625 5.7031 4.5547 8.707 6.4219 3.5859 2.2305 6.9766 4.3359 8.5664 7.1172 1.5547 2.7227 1.6719 6.7266 1.7891 10.965 0.10156 3.5898 0.21094 7.3047 1.1719 10.934 0.92188 3.4922 2.6328 6.6758 4.2812 9.7578 2.0352 3.793 3.9609 7.3789 3.9609 10.73-0.007813 3.3516-1.9336 6.9336-3.9688 10.73zm-300.86 7.043c-3.3438 3.375-8.1406 5.1055-14.301 5.1055-2.7812 0-5.0391-2.2539-5.0391-5.0391 0-2.7852 2.2539-5.0391 5.0391-5.0391 2.3516 0 5.5156-0.375 7.2266-2.1641 0.058594-0.0625 0.082031-0.12891 0.13672-0.19141l-10.762-9.8242c-1.5352-1.4023-2.0508-3.6055-1.3008-5.543 0.75-1.9414 2.6172-3.2188 4.6953-3.2188h28.609c2.0781 0 3.9453 1.2773 4.6953 3.2188 0.75391 1.9375 0.23438 4.1406-1.3008 5.543l-10.727 9.7891c1.6758 1.9219 4.8438 2.3906 7.3242 2.3906 2.7812 0 5.0391 2.2539 5.0391 5.0391 0 2.7852-2.2539 5.0391-5.0391 5.0391-6.1562 0-10.953-1.7305-14.297-5.1055zm-22.785-80.762c0 4.4219-3.5859 8.0039-8.0039 8.0039-4.4219 0-8.0039-3.5859-8.0039-8.0039 0-4.4219 3.5859-8.0039 8.0039-8.0039 4.418-0.003907 8.0039 3.582 8.0039 8.0039zm45.57 0c0-4.4219 3.5859-8.0039 8.0039-8.0039 4.4219 0 8.0039 3.5859 8.0039 8.0039 0 4.4219-3.5859 8.0039-8.0039 8.0039-4.4219 0-8.0039-3.582-8.0039-8.0039z"/>
</svg>