<?xml version="1.0" encoding="UTF-8"?>
<!-- The Best Svg Icon site in the world: iconSvg.co, Visit us! https://iconsvg.co -->
<svg fill="#000000" width="800px" height="800px" version="1.1" viewBox="144 144 512 512" xmlns="http://www.w3.org/2000/svg">
 <g>
  <path d="m540.64 333.21c0-23.82-16.625-37.801-29.277-45 9.9609-5.0898 16.809-15.426 16.809-27.359v-31.371c0-16.945-13.781-30.727-30.727-30.727h-194.89c-16.945 0-30.727 13.785-30.727 30.727v31.371c0 11.883 6.7891 22.188 16.684 27.301-12.586 7.2148-29.156 21.219-29.156 45.062v225.73c-0.011718 0.74609-0.14453 18.438 12.195 30.969 7.7734 7.8906 18.559 11.895 32.062 11.895h192.77c13.504 0 24.289-4.0039 32.062-11.895 12.34-12.531 12.207-30.223 12.195-30.891zm-258.74-72.359v-31.371c0-11.387 9.2656-20.652 20.648-20.652h194.89c11.387 0 20.648 9.2656 20.648 20.652v31.371c0 11.387-9.2656 20.652-20.648 20.652h-194.89c-11.383 0-20.648-9.2656-20.648-20.652zm248.66 298.24c0.003906 0.14062 0.10938 14.184-9.3047 23.742-5.8047 5.8984-14.176 8.8867-24.879 8.8867h-192.77c-10.668 0-19.016-2.9688-24.82-8.8242-9.3828-9.4688-9.3633-23.68-9.3633-23.883v-12.246h261.13zm0-22.398h-261.14v-186.32h261.13zm0-196.4h-261.14v-7.0859c0-29.367 32.648-40.656 35.656-41.633h189.4c1.8477 0.57812 36.078 11.691 36.078 41.633z"/>
  <path d="m308.29 271.51c2.7852 0 5.0391-2.2539 5.0391-5.0391v-40.598c0-2.7812-2.2539-5.0391-5.0391-5.0391-2.7852 0-5.0391 2.2539-5.0391 5.0391v40.598c0 2.7812 2.2539 5.0391 5.0391 5.0391z"/>
  <path d="m334.49 271.51c2.7852 0 5.0391-2.2539 5.0391-5.0391v-40.598c0-2.7812-2.2539-5.0391-5.0391-5.0391-2.7852 0-5.0391 2.2539-5.0391 5.0391v40.598c0.003906 2.7812 2.2539 5.0391 5.0391 5.0391z"/>
  <path d="m360.69 271.51c2.7852 0 5.0391-2.2539 5.0391-5.0391v-40.598c0-2.7812-2.2539-5.0391-5.0391-5.0391s-5.0391 2.2539-5.0391 5.0391v40.598c0.003906 2.7812 2.2539 5.0391 5.0391 5.0391z"/>
  <path d="m386.9 271.51c2.7852 0 5.0391-2.2539 5.0391-5.0391v-40.598c0-2.7812-2.2539-5.0391-5.0391-5.0391-2.7852 0-5.0391 2.2539-5.0391 5.0391v40.598c0 2.7812 2.2539 5.0391 5.0391 5.0391z"/>
  <path d="m413.1 271.51c2.7852 0 5.0391-2.2539 5.0391-5.0391v-40.598c0-2.7812-2.2539-5.0391-5.0391-5.0391-2.7852 0-5.0391 2.2539-5.0391 5.0391v40.598c0 2.7812 2.2539 5.0391 5.0391 5.0391z"/>
  <path d="m439.3 271.51c2.7852 0 5.0391-2.2539 5.0391-5.0391v-40.598c0-2.7812-2.2539-5.0391-5.0391-5.0391-2.7852 0-5.0391 2.2539-5.0391 5.0391v40.598c0 2.7812 2.2539 5.0391 5.0391 5.0391z"/>
  <path d="m465.5 271.51c2.7852 0 5.0391-2.2539 5.0391-5.0391v-40.598c0-2.7812-2.2539-5.0391-5.0391-5.0391s-5.0391 2.2539-5.0391 5.0391v40.598c0 2.7812 2.2539 5.0391 5.0391 5.0391z"/>
  <path d="m491.71 271.51c2.7852 0 5.0391-2.2539 5.0391-5.0391v-40.598c0-2.7812-2.2539-5.0391-5.0391-5.0391-2.7852 0-5.0391 2.2539-5.0391 5.0391v40.598c0 2.7812 2.2539 5.0391 5.0391 5.0391z"/>
  <path d="m330.23 497.48 33.625 19.414c0.77734 0.44922 1.6484 0.67578 2.5195 0.67578s1.7422-0.22266 2.5195-0.67578l31.109-17.961 31.109 17.961c0.77734 0.44922 1.6484 0.67578 2.5195 0.67578s1.7422-0.22266 2.5195-0.67578l33.625-19.414c1.5586-0.89844 2.5195-2.5625 2.5195-4.3633v-38.828c0-1.8008-0.96094-3.4648-2.5195-4.3633l-31.105-17.957v-35.93c0-1.8008-0.96094-3.4648-2.5195-4.3633l-33.633-19.422c-1.5547-0.89844-3.4844-0.89844-5.0391 0l-33.629 19.414c-1.5586 0.89844-2.5195 2.5625-2.5195 4.3633v35.93l-31.105 17.957c-1.5586 0.89844-2.5195 2.5625-2.5195 4.3633v38.828c0.003906 1.8086 0.96484 3.4688 2.5234 4.3711zm131.98-40.285v33.012l-28.586 16.504-28.59-16.504v-33.012l28.59-16.504zm-90.801-58.254 28.59-16.504 28.59 16.504v33.012l-28.59 16.504-28.59-16.504zm-33.625 58.254 28.586-16.5 28.59 16.5v33.012l-28.59 16.504-28.586-16.504z"/>
 </g>
</svg>