<?xml version="1.0" encoding="UTF-8"?>
<!-- The Best Svg Icon site in the world: iconSvg.co, Visit us! https://iconsvg.co -->
<svg fill="#000000" width="800px" height="800px" version="1.1" viewBox="144 144 512 512" xmlns="http://www.w3.org/2000/svg">
 <g>
  <path d="m608.89 440.9c-1.9062-2.1094-2.6055-5.043-1.8555-7.7852 4.6484-16.949 13.383-59.289-5.8633-86.422v-0.003906c-1.9531-2.7969-5.3906-4.1523-8.7305-3.4453-3.3984 0.64844-6.0859 3.2656-6.8281 6.6484-2.9492 13.082-9.8633 36.879-23.098 49.258-5.5547 4.9453-14.055 4.5-19.062-1-26.281-27.797-97.664-92.453-192.72-92.453-8.2422 0.003907-16.477 0.48047-24.664 1.4258 18.57-18.746 42.281-31.57 68.133-36.855 1.8594-0.35547 3.7656 0.30469 5 1.7383 1.2383 1.4336 1.6133 3.418 0.98438 5.2031-1.7773 4.9648-3.3516 9.8164-4.6758 14.422-0.30859 1.0078-0.19922 2.1016 0.30469 3.0273 0.50391 0.92969 1.3555 1.6172 2.3711 1.9062 1.0156 0.29297 2.1055 0.16406 3.0234-0.35547s1.5898-1.3867 1.8672-2.4062c1.2734-4.4414 2.7969-9.1328 4.5234-13.938h-0.003906c1.5898-4.4609 0.65625-9.4297-2.4375-13.012-3.0938-3.582-7.875-5.2266-12.52-4.3047-30.727 6.3125-58.504 22.613-79.004 46.363-66.285 11.582-113.61 51.852-137.78 77.422-5.25 5.5703-8.375 12.809-8.832 20.453-0.45313 7.6406 1.7891 15.199 6.3438 21.352 25.895 35.23 90.477 98.914 215.04 91.961 13.602 12.094 33.77 27.574 55.105 35.172 4.2031 1.5 8.875 0.79688 12.449-1.875 3.5117-2.6406 5.4648-6.8711 5.1914-11.254-0.32422-5.3945-0.55078-10.629-0.67578-15.504-0.14062-2.1367-1.8984-3.8086-4.0391-3.8359-2.1719 0.058594-3.8867 1.8672-3.832 4.0391 0.125 4.9844 0.35938 10.289 0.6875 15.773h0.003906c0.12109 1.75-0.65625 3.4414-2.0664 4.4844-1.4531 1.1055-3.3672 1.3906-5.0781 0.75391-17.711-6.2969-35.008-18.895-46.617-28.551 43.297-3.7773 93.48-15.941 151.43-40.34 0.12891-0.0625 13.109-6.7578 23.43-0.51172 9.6328 5.8203 14.711 21.551 14.695 45.48h0.003906c-0.03125 3.4766 2.0391 6.6289 5.2461 7.9805 1.1055 0.48438 2.3008 0.73438 3.5117 0.73438 2.1953 0 4.3086-0.84766 5.9023-2.3594 13.902-13.105 42.242-48.023 5.1328-89.387zm-10.516 83.641c-0.24609 0.21875-0.59375 0.27734-0.89453 0.14844s-0.5-0.42188-0.50781-0.75c0-27.273-6.2227-44.852-18.559-52.266v-0.003906c-4.2891-2.5312-9.1875-3.8398-14.168-3.7812-5.7695 0.074219-11.449 1.4297-16.633 3.9688-61.109 25.723-113.36 37.59-157.77 40.285-0.19141-0.003906-0.38281 0.007813-0.57031 0.03125-121.69 7.1797-184.45-54.543-209.57-88.699-3.457-4.6719-5.1641-10.406-4.8242-16.207 0.34375-5.8008 2.7109-11.301 6.6914-15.531 20.508-21.699 58.199-54.316 110.24-69.637 8.5664 12.289 49.113 76.445 5.2422 132.12-1.3438 1.707-1.0508 4.1836 0.65625 5.5312 1.7109 1.3477 4.1875 1.0508 5.5312-0.65625 44.871-56.93 8.2461-121.52-3.4375-139.2h0.003906c16.645-4.2109 33.75-6.3359 50.922-6.332 91.996 0 161.42 62.93 187 89.988 3.8359 4.1523 9.1562 6.6211 14.805 6.875 5.6445 0.25 11.164-1.7383 15.355-5.5312 14.773-13.828 22.254-39.312 25.398-53.277 0.070312-0.34375 0.34766-0.60547 0.69531-0.66016 0.28906-0.09375 0.60156 0.023438 0.76172 0.27734 17.293 24.402 9.0547 63.926 4.6992 79.789v0.003906c-1.4727 5.3203-0.12109 11.023 3.582 15.121 31.32 34.934 10.523 64.098-4.6562 78.391z"/>
  <path d="m246.83 360.39c-8.0625 0-15.797 3.2031-21.5 8.9023-5.7031 5.7031-8.9102 13.438-8.9102 21.5 0 8.0664 3.2031 15.801 8.9062 21.5 5.6992 5.7031 13.434 8.9102 21.5 8.9102 8.0625 0 15.797-3.2031 21.5-8.9062s8.9062-13.438 8.9062-21.5c-0.007813-8.0625-3.2148-15.789-8.9141-21.492-5.6992-5.6992-13.426-8.9062-21.488-8.9141zm0 52.934c-5.9766 0.003907-11.707-2.3711-15.934-6.5977-4.2266-4.2227-6.6016-9.957-6.6055-15.934 0-5.9766 2.375-11.707 6.6016-15.934 4.2266-4.2266 9.957-6.6016 15.934-6.6016 5.9805 0 11.711 2.375 15.938 6.6016 4.2227 4.2266 6.5977 9.9609 6.5977 15.938-0.007813 5.9727-2.3828 11.699-6.6094 15.922-4.2227 4.2227-9.9492 6.6016-15.922 6.6055z"/>
  <path d="m437.29 407.87c5.2422-4.1797 8.1602-10.621 7.8438-17.32-0.97656-15.602-20-28.891-20.809-29.449-1.793-1.2344-4.2422-0.78125-5.4766 1.0078s-0.78516 4.2422 1.0039 5.4766c4.6367 3.1953 16.809 13.641 17.426 23.453 0.12891 4.2852-1.8203 8.3711-5.2305 10.969-3.8398 3.4688-4.2734 9.3438-0.98438 13.34 3.2109 3.8203 8.418 11.305 7.2188 18.5-1.3516 5.3633-5.0156 9.8516-10 12.254-3.043 1.8359-4.8281 5.2031-4.6367 8.7539 0.53516 4.0938-0.75 8.2188-3.5156 11.289-3.6406 3.0352-10.051 2.3359-14.785 1.2148-2.1172-0.5-4.2383 0.8125-4.7383 2.9297-0.5 2.1172 0.80859 4.2383 2.9258 4.7383 2.9844 0.74219 6.043 1.1367 9.1172 1.1797 4.5156 0.20312 8.957-1.2148 12.516-4 4.8008-4.5742 7.1523-11.152 6.3438-17.734-0.042968-0.65234 0.28125-1.2734 0.83594-1.6133 7.0039-3.5391 12.035-10.047 13.707-17.711 1.625-9.7891-3.9766-18.918-8.957-24.848h-0.003906c-0.58594-0.73438-0.5-1.8008 0.19922-2.4297z"/>
  <path d="m484.56 391.27c-0.80469-0.69531-1.8555-1.0352-2.9141-0.94141-1.0547 0.09375-2.0312 0.60938-2.7031 1.4336-0.67187 0.82422-0.98437 1.8828-0.86328 2.9375 0.12109 1.0547 0.66406 2.0156 1.5078 2.668 4.5039 3.8555 7.4336 9.2383 8.2305 15.117-0.14062 5.3711-2.6367 10.41-6.8281 13.773-3.457 3.168-4.9258 7.957-3.8359 12.52 2.4414 9.5273 2.3633 21.676-11.773 25.43-1.9141 0.50391-3.1562 2.3516-2.8984 4.3125 0.25391 1.9648 1.9258 3.4336 3.9062 3.4297 0.34375 0 0.68359-0.042969 1.0117-0.12891 15.441-4.1016 21.938-17.184 17.383-34.996-0.39844-1.7852 0.21875-3.6406 1.6055-4.8281 5.8867-4.8906 9.293-12.148 9.2969-19.801-0.85938-8.1523-4.8477-15.652-11.125-20.926z"/>
  <path d="m386.53 365.42c-3.2617-2.1328-7.3086-2.6875-11.023-1.5117-11.379 3.293-22.977 5.7656-34.711 7.3984-1.0547 0.11328-2.0195 0.64844-2.6758 1.4805-0.65625 0.83594-0.94531 1.8984-0.80469 2.9492 0.13672 1.0547 0.69531 2.0039 1.5469 2.6406 0.85156 0.63281 1.9219 0.89844 2.9688 0.73047 12.188-1.6719 24.23-4.2422 36.039-7.6914 1.4727-0.46875 3.082-0.24609 4.3711 0.60547 1.3633 0.88281 2.2578 2.3281 2.4414 3.9375 1.668 14.301 2.1328 41.418-13.484 62.359-1.4531 1.9531-4.0547 2.6602-6.2969 1.7109-5.9531-2.1484-11.152-5.9883-14.957-11.043-0.54687-0.91016-1.4336-1.5586-2.4648-1.8047-1.0312-0.24609-2.1172-0.066407-3.0117 0.5-0.89453 0.56641-1.5273 1.4688-1.75 2.5039-0.21875 1.0352-0.015625 2.1172 0.57031 3 4.6602 6.4453 11.133 11.359 18.598 14.113 5.5742 2.3242 12.016 0.5625 15.629-4.2734 17.246-23.125 16.801-52.52 14.992-67.984-0.45312-3.9414-2.6445-7.4688-5.9766-9.6211z"/>
  <path d="m252.73 390.8c0 3.2617-2.6445 5.9023-5.9062 5.9023s-5.9023-2.6406-5.9023-5.9023c0-3.2617 2.6406-5.9062 5.9023-5.9062s5.9062 2.6445 5.9062 5.9062"/>
 </g>
</svg>