<?xml version="1.0" encoding="UTF-8"?>
<!-- The Best Svg Icon site in the world: iconSvg.co, Visit us! https://iconsvg.co -->
<svg fill="#000000" width="800px" height="800px" version="1.1" viewBox="144 144 512 512" xmlns="http://www.w3.org/2000/svg">
 <path d="m514.93 267.75c-6.6133-38.871-72.422-68.258-153.64-69.062v-21.074c0-2.0859-0.83203-4.0898-2.3086-5.5664-1.4766-1.4766-3.4766-2.3047-5.5664-2.3047h-40.305c-4.3477 0-7.8711 3.5234-7.8711 7.8711v25.246c-4.7227 0.78906-9.4453 1.6367-14.043 2.6445-3.6133 0.79297-6.1875 3.9922-6.1875 7.6914v41.57c0 2.4023 1.0977 4.6719 2.9766 6.1641 1.8789 1.4922 4.3359 2.0469 6.6758 1.5039 3.4102-0.78906 7.0859-1.4023 10.578-2.0938v341.88c-0.046875 7.3789 2.832 14.473 8.0117 19.73 5.1758 5.2578 12.227 8.2461 19.605 8.3086h0.82813-0.003907c7.3789-0.066406 14.426-3.0547 19.602-8.3125 5.1758-5.2539 8.0547-12.352 8.0078-19.727v-348.31c5.6758-0.22656 11.367-0.44922 17.113-0.44922 48.359 0 94.086 8.2969 125.47 22.766 2.6523 1.2266 5.7695 0.88281 8.0898-0.89844 2.3203-1.7773 3.4609-4.6914 2.9688-7.5703zm-193.97-82.266h24.562l-0.003906 13.43c-8.3281 0.30078-16.531 0.875-24.562 1.7695zm0 349.2h24.562l-0.003906 21.027h-24.562zm24.562-15.742h-24.562v-21.027h24.562zm-11.867 95.574h-0.82812 0.003906c-6.6719-0.12891-11.977-5.6289-11.871-12.297v-30.762h24.562v30.766l-0.003906-0.003906c0.10938 6.668-5.1953 12.168-11.863 12.297zm11.863-132.34h-24.562l0.003906-224.53c7.9961-1.1719 16.191-2.0703 24.562-2.7383zm32.859-244.46c-8.3047 0-16.531 0.32422-24.695 0.78906-0.10156 0-0.1875-0.054688-0.29297-0.054688-0.10156 0-0.39453 0.10156-0.59766 0.11719v-0.003906c-13.289 0.77734-26.531 2.2227-39.676 4.3281-0.14062 0-0.26172 0.070312-0.40234 0.078125-4.0156 0.65234-8.0703 1.2656-11.957 2.0469l0.003906-25.402c18.836-3.5625 37.969-5.3242 57.141-5.2578 65.133 0 113.6 18.57 132.79 39.777-36.348-11.328-74.25-16.867-112.32-16.422z"/>
</svg>