<?xml version="1.0" encoding="UTF-8"?>
<!-- The Best Svg Icon site in the world: iconSvg.co, Visit us! https://iconsvg.co -->
<svg fill="#000000" width="800px" height="800px" version="1.1" viewBox="144 144 512 512" xmlns="http://www.w3.org/2000/svg">
 <g>
  <path d="m633.95 402.36-228.29-236.16h0.003906c-3.1523-3.0547-8.1641-3.0547-11.312 0l-228.29 236.16c-2.2227 2.2695-2.8672 5.6484-1.6328 8.5742 1.2383 2.9258 4.1094 4.8203 7.2852 4.8086h7.8711v220.42h440.83v-220.42h7.875c3.1758 0.015624 6.0508-1.8789 7.2852-4.8047 1.2383-2.9258 0.59766-6.3086-1.6289-8.5781zm-233.95-219.33 209.73 216.97h-419.47zm-121.34 405.89-20.359 20.359v-40.715zm11.129 11.133 20.359 20.355h-40.715zm28.23-89.852-20.355 20.355v-40.711zm11.129 11.129 20.359 20.359h-40.715zm11.133-11.129 20.355-20.355v40.715zm-3.2578 58.363 20.355 20.355-20.355 20.359zm-15.742 40.715-20.359-20.359 20.355-20.355zm47.23-9.2266 20.355 20.355h-40.715zm11.129-11.133 20.359-20.355v40.715zm-11.129-11.129-20.359-20.359h40.715zm-39.359-78.719-20.359-20.359h40.715zm-19.004 58.359-20.359 20.359-20.355-20.359zm188.93 31.488-20.359 20.359v-40.715zm11.129 11.133 20.355 20.355h-40.711zm11.129-11.133 20.359-20.355v40.715zm-11.129-11.129-20.355-20.359h40.715zm47.23 42.617v-78.719h-94.461v78.719h-47.234v-78.719h-39.359v-78.719h-94.465v78.719h-39.359v78.719h-15.746v-173.18h346.37v173.18zm47.23 0h-15.742v-188.93h-377.86v188.93h-15.746v-204.67h409.35z"/>
  <path d="m407.87 242.56h-47.234v110.21h78.723v-110.21zm15.742 15.742v31.488h-15.742v-31.488zm-31.488 0v31.488h-15.742v-31.488zm-15.742 78.723v-31.488h15.742v31.488zm31.488 0v-31.488h15.742v31.488z"/>
 </g>
</svg>