<?xml version="1.0" encoding="UTF-8"?>
<!-- The Best Svg Icon site in the world: iconSvg.co, Visit us! https://iconsvg.co -->
<svg fill="#000000" width="800px" height="800px" version="1.1" viewBox="144 144 512 512" xmlns="http://www.w3.org/2000/svg">
 <g>
  <path d="m509.68 504.41h-71.574c-14.5 0-39.77 35.359-51.836 53.598-12.07-18.238-37.34-53.598-51.832-53.598h-62.934c-2.7852 0-5.0391 2.2539-5.0391 5.0391v87.035c0 2.7812 2.2539 5.0391 5.0391 5.0391h238.18c2.7852 0 5.0391-2.2539 5.0391-5.0391l-0.003906-87.039c0-2.7812-2.2539-5.0352-5.0391-5.0352zm-5.0352 87.035h-228.1v-76.961h57.895c7.3516 0 30.535 28.688 47.582 55.48 1.8516 2.9062 6.6523 2.9062 8.5 0 17.043-26.793 40.23-55.48 47.586-55.48h66.539z"/>
  <path d="m528.49 386.29h-57.082l1.4805-14.785c0.078125-0.71094 0.15234-1.457 0.15234-2.1211 0-13.316-10.137-24.398-23.582-25.777-9.9727-1.0391-19.145 3.8008-24.355 11.75 0.4375-5.9219 0.67969-11.586 0.67969-16.871 0-38.113-6.5195-56.383-22.766-62l26.492-56.914c0.003907-0.007812 0.011719-0.015624 0.011719-0.023437 3.418-7.4297 0.14844-16.277-7.3438-19.758-7.4492-3.3242-16.305-0.039062-19.773 7.3008-0.09375 0.19531-0.17188 0.39453-0.23438 0.60156l-15.891 49.191-15.891-49.191c-0.0625-0.20312-0.14453-0.40625-0.23438-0.60156-3.4844-7.3789-12.359-10.652-19.836-7.2695-7.4297 3.4531-10.699 12.301-7.2734 19.75l26.492 56.914c-16.254 5.625-22.77 23.898-22.77 62 0 8.1719 0.55859 17.207 1.5977 26.832-8.6953 2.6992-15.133 11.125-15.133 21.039v49.426c0 12.137 9.4023 22.008 20.961 22.008h13.004c7.4688 27.145 14.25 46.879 14.324 47.086 0.69922 2.0312 2.6133 3.3945 4.7617 3.3945s4.0625-1.3633 4.7617-3.3945c0.070312-0.20312 6.8281-19.871 14.324-47.086h17.641c0.03125 0 0.0625-0.003906 0.09375-0.003906 0.011719 0 0.019532 0.003906 0.027344 0.003906l19.02-0.0625c0.64844 0.054688 1.293 0.085938 1.9375 0.085938 5.5898 0 10.879-2.1289 14.93-5.7734 3.4727 3.9961 8.5781 6.4961 14.133 6.4961h55.344c2.7852 0 5.0391-2.2539 5.0391-5.0391l-0.003906-62.172c0-2.7812-2.2539-5.0352-5.0391-5.0352zm-5.0352 24.863h-33.801v-14.789h33.801zm-43.879-14.789v14.789h-10.656l1.4805-14.789zm-63.867-57.883c0 7.0195-0.43359 14.73-1.2383 22.938h-56.395c-0.80469-8.207-1.2383-15.914-1.2383-22.938 0-3.8789 0.097656-7.375 0.23828-10.703 0.33203 0.070312 0.64062 0.19922 0.99219 0.19922h56.414c0.35156 0 0.66016-0.13281 0.99219-0.19922 0.13672 3.332 0.23438 6.8281 0.23438 10.703zm-4.0742-127.34c1.2266-2.2891 3.9961-3.2383 6.3633-2.1875 2.4062 1.1172 3.4688 3.9766 2.3711 6.375l-27.562 59.219c-0.33984-0.023437-0.68359-0.035156-1.0273-0.054687-0.085938-0.003906-0.17578-0.007813-0.26172-0.011719-0.11328-0.003906-0.22266-0.011719-0.33203-0.015625zm-57.129-2.168c0.65625-0.29687 1.3438-0.43359 2.0156-0.43359 1.7852 0 3.5039 0.96484 4.3867 2.6055l20.453 63.32c-0.10938 0.003906-0.21484 0.011719-0.32812 0.015625-0.089844 0.003906-0.18359 0.011719-0.27344 0.015625-0.34375 0.015625-0.68359 0.03125-1.0234 0.050781l-27.562-59.211c-1.0977-2.4023-0.035156-5.2656 2.332-6.3633zm22.887 75.934c2.6289-0.375 5.4531-0.44922 8.8789-0.44922 3.4297 0 6.2539 0.078124 8.8984 0.45312 8.2305 1.1406 16.902 5.1133 19.641 33.055-0.11719-0.007812-0.21484-0.066406-0.33203-0.066406h-56.41c-0.11719 0-0.21875 0.058594-0.33203 0.066406 2.7344-27.941 11.41-31.918 19.656-33.059zm-34.09 150.87v-49.426c0-6.4531 4.793-11.809 10.566-11.934h68.004c0.74609 0 1.5781 0.125 2.457 0.35156 2.3516 0.69531 4.3828 2.3672 5.6133 4.6484 1.5195 2.7266 2.8516 5.5039 3.9961 8.3164 0.64844 1.5977 1.1016 3.2188 1.6289 4.832 0.40234 1.2305 0.91016 2.4453 1.2422 3.6797 0.58594 2.1719 0.96094 4.3438 1.3281 6.5156 0.11719 0.68359 0.32422 1.3672 0.41797 2.0508 1.9727 14.25-0.73828 28.184-8.1562 39.02-0.21094 0.30078-0.48047 0.53906-0.72266 0.80859-0.24609 0.27344-0.46094 0.57812-0.73438 0.82031-0.21094 0.18359-0.45703 0.30859-0.68359 0.47266-0.35547 0.25781-0.69531 0.53906-1.082 0.74219-0.26172 0.13672-0.55469 0.20703-0.82812 0.32031-0.38672 0.15625-0.76172 0.33984-1.168 0.44141-0.30078 0.074219-0.62109 0.078125-0.92969 0.12109-0.41406 0.058594-0.82422 0.15234-1.25 0.15234h-68.816c-6.0039 0-10.883-5.3555-10.883-11.934zm42.973 51.172c-2.3203-7.3867-5.2891-17.191-8.4219-28.418h16.852c-3.1445 11.23-6.1133 21.035-8.4297 28.418zm56.594-39.281c-0.16406-0.015625-0.32813-0.023438-0.49609-0.023438h-0.015625l-2.4141 0.007813c0.20703-0.32812 0.37891-0.67969 0.57812-1.0117 0.39453-0.65625 0.77344-1.3203 1.1406-1.9922 0.36719-0.67188 0.71484-1.3555 1.0547-2.043 0.33594-0.67969 0.66016-1.3594 0.96875-2.0508 0.32031-0.71094 0.61719-1.4336 0.91016-2.1602 0.27734-0.69531 0.55078-1.3906 0.80469-2.0977 0.26953-0.74609 0.51172-1.5039 0.75391-2.2617 0.22266-0.70703 0.44531-1.418 0.64453-2.1367 0.21484-0.78125 0.40625-1.5742 0.59375-2.3672 0.16797-0.71875 0.33984-1.4336 0.48438-2.1602 0.16406-0.8125 0.29688-1.6328 0.42969-2.4531 0.11719-0.72656 0.23828-1.4492 0.33203-2.1836 0.10938-0.83984 0.18359-1.6836 0.26172-2.5312 0.066406-0.73047 0.14062-1.457 0.18359-2.1914 0.050781-0.86328 0.070313-1.7305 0.089844-2.5977 0.015625-0.73437 0.042969-1.4648 0.039063-2.2031-0.003907-0.87891-0.046876-1.7617-0.085938-2.6484-0.03125-0.73438-0.050781-1.4648-0.10547-2.1992-0.066406-0.89844-0.16797-1.7969-0.26562-2.6953-0.078125-0.73047-0.14453-1.457-0.24219-2.1875-0.125-0.91016-0.28906-1.8242-0.44922-2.7344-0.125-0.71875-0.23438-1.4375-0.37891-2.1562-0.1875-0.93359-0.42188-1.8633-0.64453-2.793-0.16797-0.69922-0.31641-1.3984-0.5-2.0938-0.25391-0.95312-0.55469-1.8984-0.84766-2.8477-0.20703-0.67188-0.39062-1.3477-0.61719-2.0195-0.33203-0.98438-0.71094-1.9609-1.082-2.9414-0.23828-0.625-0.44922-1.2578-0.69922-1.8789-0.4375-1.082-0.92969-2.1484-1.418-3.2188-0.23438-0.51172-0.4375-1.0312-0.68359-1.5391-0.75391-1.5742-1.5586-3.1328-2.418-4.6797-0.55469-1.0273-1.2266-1.9727-1.9453-2.8789-0.19531-0.24609-0.40234-0.47266-0.60938-0.71094-0.625-0.71094-1.293-1.3711-2.0078-1.9844-0.17188-0.14844-0.33203-0.30469-0.50781-0.44531-0.85547-0.67969-1.7461-1.3125-2.6992-1.8398 1.4648-8.1484 8.9922-13.949 17.426-13.086 8.2852 0.85156 14.535 7.625 14.535 15.754 0 0.30859-0.050782 0.65625-0.089844 0.98828l-2.0312 20.297c-0.007812 0.058594-0.042969 0.10547-0.046875 0.16797l-4.5742 46.008c-0.12891 1.3164-0.46094 2.5625-0.99219 3.7031-0.058594 0.12891-0.11719 0.26172-0.16406 0.40234-2.2812 4.5312-7.1367 7.207-12.199 6.7148zm22.238-4.6836c0.14453-0.40625 0.23828-0.82812 0.35547-1.2461 0.082031-0.28516 0.17578-0.5625 0.24609-0.85156 0.24219-1 0.4375-2.0156 0.53906-3.0508l1.6641-16.605h11.664v27.227h-6.4297c-3.6445-0.003906-6.7812-2.1953-8.0391-5.4727zm24.547 5.4688v-27.227h33.801v27.227z"/>
 </g>
</svg>