<?xml version="1.0" encoding="UTF-8"?>
<!-- The Best Svg Icon site in the world: iconSvg.co, Visit us! https://iconsvg.co -->
<svg fill="#000000" width="800px" height="800px" version="1.1" viewBox="144 144 512 512" xmlns="http://www.w3.org/2000/svg">
 <g>
  <path d="m291.2 456.18c-29.859 0-54.152 24.297-54.152 54.156s24.293 54.148 54.152 54.148 54.148-24.293 54.148-54.152-24.289-54.152-54.148-54.152zm0 98.227c-24.301 0-44.074-19.773-44.074-44.074 0-24.305 19.773-44.078 44.074-44.078s44.074 19.773 44.074 44.078c0 24.301-19.773 44.074-44.074 44.074z"/>
  <path d="m520.64 524.5c-12.645 0-22.93 10.289-22.93 22.934 0 12.645 10.285 22.926 22.93 22.926s22.93-10.281 22.93-22.926c0-12.645-10.289-22.934-22.93-22.934zm0 35.781c-7.0859 0-12.855-5.7656-12.855-12.852 0-7.0898 5.7656-12.855 12.855-12.855 7.0859 0 12.855 5.7656 12.855 12.855-0.003907 7.0859-5.7695 12.852-12.855 12.852z"/>
  <path d="m212.31 405.04h6.9727v48.492c0 0.25781 0.10938 0.47656 0.14453 0.72656-12.125 15.488-19.43 34.926-19.43 56.078 0.003906 50.281 40.914 91.191 91.199 91.191 31.078 0 58.547-15.652 75.016-39.465h34.414v1.6992c0 7.6328 6.207 13.836 13.836 13.836h11.371c7.6328 0 13.836-6.2031 13.836-13.836v-1.6992h28.934c6.4062 22.73 27.277 39.465 52.031 39.465 24.75 0 45.625-16.73 52.027-39.465h23.82c2.7812 0 5.0391-2.2539 5.0391-5.0391v-109.33c0-18.895-13.535-34.809-31.938-37.797l-128.09-27.344-26.387-142.03h3.5117c2.7812 0 5.0391-2.2539 5.0391-5.0391v-31.969c0-2.7852-2.2539-5.0391-5.0391-5.0391l-202.49 0.003906c-2.7812 0-5.0391 2.2539-5.0391 5.0391v31.969c0 2.7852 2.2539 5.0391 5.0391 5.0391h3.3125c-0.042968 0.26172-0.16016 0.5-0.16016 0.77344v124.69l-6.9727 0.003907c-7.6328 0-13.836 6.2031-13.836 13.836v11.375c0 7.6289 6.2031 13.832 13.836 13.832zm78.887 186.41c-44.727 0-81.117-36.387-81.117-81.117 0-44.734 36.387-81.121 81.117-81.121 44.727 0 81.117 36.387 81.117 81.121 0 44.73-36.391 81.117-81.117 81.117zm81.027-39.461c6.4531-12.504 10.164-26.641 10.164-41.652 0-50.289-40.91-91.199-91.195-91.199-23.871 0-45.562 9.293-61.836 24.363l0.003906-38.461h69.695c56.004 0 101.57 45.566 101.57 101.57v45.379zm148.41 39.461c-24.27 0-44.016-19.742-44.016-44.016 0-24.27 19.742-44.016 44.016-44.016 24.27 0 44.016 19.742 44.016 44.016-0.003906 24.273-19.746 44.016-44.016 44.016zm70.809-143.76v104.29h-16.953c0.125-1.5039 0.23047-3.0156 0.23047-4.5508 0-29.824-24.266-54.09-54.09-54.09-29.824 0-54.09 24.266-54.09 54.094 0 1.5352 0.10547 3.0469 0.23047 4.5508h-27.102v-51.223c0-44.734-21.926-84.422-55.574-108.95h52.535l131.09 27.98c13.746 2.2344 23.723 13.965 23.723 27.895zm-370.27-239.14h192.41v21.895h-192.41zm8.0352 31.969h175.65l26.234 141.21h-62.898c-0.042968 0-0.078124 0.023437-0.12109 0.023437-18.855-10.047-40.355-15.766-63.172-15.766h-75.539v-124.7c0-0.27344-0.11328-0.51172-0.15625-0.77734zm-20.656 139.31c0-2.0742 1.6875-3.7617 3.7617-3.7617h92.59c68.758 0 124.7 55.938 124.7 124.7v62.996c0 2.0703-1.6875 3.7578-3.7617 3.7578h-11.371c-2.0742 0-3.7617-1.6875-3.7617-3.7578v-57.152c0-61.559-50.086-111.64-111.64-111.64h-86.746c-2.0742 0-3.7617-1.6875-3.7617-3.7578z"/>
 </g>
</svg>