<?xml version="1.0" encoding="UTF-8"?>
<!-- The Best Svg Icon site in the world: iconSvg.co, Visit us! https://iconsvg.co -->
<svg fill="#000000" width="800px" height="800px" version="1.1" viewBox="144 144 512 512" xmlns="http://www.w3.org/2000/svg">
 <path d="m548.41 269.86c2.6953-0.69141 4.3203-3.4375 3.6289-6.1328-0.69141-2.6953-3.4297-4.3164-6.1328-3.6289-25.461 6.5312-38.145 27.012-43.629 39.312-1.7617-2.3516-3.7344-4.6289-6.0117-6.7578-13.223-12.359-15.988-27.734-16.555-34.465h4.4766c10.859 0 19.695-8.832 19.695-19.691v-20.328c0-10.859-8.8359-19.691-19.695-19.691h-168.37c-10.859 0-19.691 8.832-19.691 19.691v20.328c0 10.859 8.832 19.691 19.691 19.691h4.5508c-0.44141 6.7305-2.9648 22.352-16.527 34.375-2.3438 2.082-4.375 4.3398-6.1758 6.6914-5.5234-12.316-18.211-32.656-43.562-39.156-2.707-0.6875-5.4375 0.9375-6.1328 3.6289-0.69141 2.6953 0.93359 5.4414 3.6289 6.1328 27.363 7.0156 37.617 34.492 39.551 40.477-6.7227 15.09-6.2422 30.262-6.207 31.008l-0.003906 234.99c0 13.891 11.301 25.191 25.191 25.191h179.75c13.891 0 25.191-11.301 25.191-25.191l-0.003906-234.78c0.035156-0.875 0.49609-15.777-6.2852-30.984 1.6836-5.3984 11.723-33.555 39.629-40.711zm-253.4 86.379h209.98v146.32h-209.98zm11.191-117.75v-20.328c0-5.2969 4.3164-9.6133 9.6172-9.6133h168.37c5.3047 0 9.6172 4.3164 9.6172 9.6172v20.328c0 5.3008-4.3164 9.6172-9.6172 9.6172l-168.37-0.003906c-5.3008 0-9.6172-4.3125-9.6172-9.6172zm4.3281 61.609c16.758-14.867 19.555-33.801 19.949-41.914h139.12c0.50781 7.9531 3.4961 26.594 19.789 41.824 16.391 15.324 15.625 40.879 15.609 41.332v4.8164h-209.98v-5.0195c-0.007812-0.26172-0.82422-26.543 15.52-41.039zm179.35 291.34h-179.75c-8.3359 0-15.113-6.7812-15.113-15.113v-63.703h209.98l-0.003907 63.703c0 8.3359-6.7773 15.113-15.113 15.113z"/>
</svg>