<?xml version="1.0" encoding="UTF-8"?>
<!-- The Best Svg Icon site in the world: iconSvg.co, Visit us! https://iconsvg.co -->
<svg fill="#000000" width="800px" height="800px" version="1.1" viewBox="144 144 512 512" xmlns="http://www.w3.org/2000/svg">
 <path d="m537.78 338.62-3.7852 6.543c-0.92969 1.6172-2.6211 2.5156-4.3633 2.5156-0.85547 0-1.7227-0.21484-2.5195-0.67578-2.4062-1.3945-3.2344-4.4766-1.8359-6.8828l3.7852-6.543c1.3867-2.4141 4.4609-3.2383 6.8828-1.8398 2.4062 1.3945 3.2344 4.4766 1.8359 6.8828zm39.566-78.43c-2.4219-1.3984-5.5-0.57031-6.8828 1.8359l-6.8984 11.922c-1.3984 2.4102-0.57031 5.4922 1.8359 6.8867 0.79688 0.46094 1.6641 0.67578 2.5195 0.67578 1.7422 0 3.4336-0.89844 4.3633-2.5156l6.8984-11.922c1.3984-2.4062 0.57031-5.4883-1.8359-6.8828zm-20.699 35.777c-2.4062-1.3984-5.4922-0.57422-6.8828 1.8359l-6.9023 11.922c-1.3984 2.4102-0.57031 5.4922 1.8359 6.8828 0.79297 0.46094 1.6641 0.67969 2.5195 0.67969 1.7422 0 3.4297-0.89844 4.3633-2.5156l6.9023-11.922c1.3984-2.4062 0.57031-5.4922-1.8359-6.8828zm38.285-66.168c-2.4258-1.4023-5.5-0.57031-6.8828 1.8398l-3.7852 6.543c-1.3984 2.4102-0.57031 5.4883 1.8359 6.8828 0.79688 0.46094 1.6641 0.67578 2.5195 0.67578 1.7422 0 3.4336-0.89844 4.3633-2.5156l3.7852-6.543c1.3945-2.4062 0.57031-5.4883-1.8359-6.8828zm-165.25-52.516h0.078125l7.5508-0.11328c2.7852-0.042969 5.0039-2.332 4.9648-5.1133-0.042969-2.7812-2.2773-4.9453-5.1133-4.9609l-7.5586 0.11328c-2.7812 0.042968-5.0039 2.332-4.9609 5.1133 0.046874 2.7539 2.2969 4.9609 5.0391 4.9609zm53.926-5.8359c-0.039062-2.7852-2.2617-4.8945-5.1133-4.9648l-13.777 0.20703c-2.7852 0.042969-5.0039 2.3281-4.9648 5.1133 0.039063 2.7578 2.2891 4.9648 5.0391 4.9648h0.074219l13.777-0.20313c2.7852-0.046874 5.0039-2.332 4.9648-5.1172zm41.328-0.60547c-0.039062-2.7812-2.5195-5.1172-5.1133-4.9648l-13.777 0.20313c-2.7812 0.042968-5.0039 2.3281-4.9648 5.1133 0.039062 2.7578 2.2891 4.9648 5.0391 4.9648h0.074219l13.777-0.20312c2.7812-0.042969 5.0039-2.332 4.9648-5.1133zm29.992-5.4844-7.5586 0.10938c-2.7812 0.042969-5.0039 2.3281-4.9648 5.1133 0.039063 2.7578 2.2891 4.9648 5.0391 4.9648h0.074219l7.5586-0.10938c2.7812-0.042968 5.0039-2.3281 4.9648-5.1133-0.042969-2.7852-2.3867-5.1523-5.1133-4.9648zm12.262 45.785c0.86719 0 1.7422-0.22266 2.543-0.69531l6.5195-3.8242c2.4023-1.4062 3.2031-4.4961 1.7969-6.8945-1.4023-2.3984-4.4922-3.1992-6.8945-1.7969l-6.5195 3.8242c-2.4023 1.4062-3.2031 4.4961-1.7969 6.8945 0.94141 1.6016 2.6211 2.4922 4.3516 2.4922zm-69.754 30.031-13.438 7.8828c-2.4023 1.4062-3.2031 4.4961-1.7969 6.8945 0.93359 1.5977 2.6211 2.4883 4.3477 2.4883 0.86719 0 1.7422-0.22266 2.543-0.69531l13.438-7.8828c2.4023-1.4062 3.2031-4.4961 1.7969-6.8945-1.4023-2.3984-4.4844-3.1992-6.8906-1.793zm31.977-7.0742 13.441-7.8828c2.4023-1.4102 3.2031-4.4961 1.7969-6.8945-1.4023-2.4023-4.4922-3.1992-6.8945-1.7969l-13.441 7.8828c-2.4023 1.4102-3.2031 4.4961-1.7969 6.8945 0.93359 1.5977 2.6211 2.4883 4.3477 2.4883 0.86719 0 1.7461-0.22266 2.5469-0.69141zm-72.293 30.723-6.5195 3.8242c-2.4023 1.4062-3.2031 4.4961-1.7969 6.8945 0.94141 1.5977 2.6211 2.4883 4.3477 2.4883 0.86719 0 1.7422-0.22266 2.543-0.69531l6.5195-3.8242c2.4023-1.4062 3.2031-4.4961 1.7969-6.8945-1.4023-2.3945-4.4922-3.1953-6.8906-1.793zm-0.54688 156.88c0.30859 2.0312 7.3008 50.051-18.879 76.23-16.828 16.832-42.68 19.957-59.543 19.957-6.2773 0-11.254-0.42969-14.109-0.75l-20.457 20.457c-0.015625 0.015625-0.039063 0.019531-0.054688 0.035156l-0.003906 86.926h67.152c2.7812 0 5.0391 2.2539 5.0391 5.0391 0 2.7852-2.2539 5.0391-5.0391 5.0391h-161.16c-2.7812 0-5.0391-2.2539-5.0391-5.0391 0-2.7852 2.2539-5.0391 5.0391-5.0391h67.148v-86.922c-0.015625-0.015625-0.039063-0.019531-0.054688-0.035156l-20.457-20.457c-2.8555 0.32031-7.8359 0.75-14.109 0.75-16.863 0-42.715-3.125-59.543-19.957-26.184-26.18-19.191-74.199-18.879-76.23 0.33203-2.1758 2.0391-3.8867 4.2148-4.2148 2.0352-0.31641 50.059-7.3008 76.234 18.875 23.09 23.086 20.383 63.117 19.207 73.656l13.387 13.387v-113.36c-0.007813-0.007813-0.019531-0.011719-0.03125-0.019532l-17.445-17.449c-2.5312 0.27344-6.7188 0.60937-11.91 0.60937-14.695 0-37.266-2.7266-51.98-17.441-22.871-22.875-16.781-64.707-16.508-66.473 0.33203-2.1797 2.0391-3.8867 4.2148-4.2188 1.7773-0.27734 43.609-6.3672 66.477 16.508 19.914 19.914 17.867 54.191 16.828 63.891l10.355 10.355v-86.625c0-0.39844 0.14062-0.75 0.22656-1.1211-10.191-11.438-24.504-31.66-24.504-55.246 0-35.809 33.059-64.008 34.469-65.191 1.875-1.5742 4.6094-1.5742 6.4844 0 1.4062 1.1836 34.469 29.383 34.469 65.191 0 23.582-14.312 43.805-24.504 55.246 0.085937 0.37109 0.22656 0.72266 0.22656 1.1211l-0.003906 86.625 10.355-10.355c-1.0391-9.6953-3.0859-43.977 16.832-63.891 22.867-22.867 64.715-16.781 66.473-16.508 2.1758 0.33203 3.8867 2.0391 4.2148 4.2188 0.26953 1.7695 6.3633 43.602-16.508 66.473-14.715 14.715-37.289 17.441-51.98 17.441-5.1914 0-9.3789-0.33984-11.91-0.60937l-17.449 17.449c-0.007813 0.007813-0.019532 0.011719-0.03125 0.019532l0.003906 113.36 13.387-13.387c-1.1758-10.539-3.8828-50.57 19.207-73.656 26.176-26.18 74.195-19.188 76.234-18.875 2.1758 0.32812 3.8867 2.0391 4.2188 4.2148zm-93.156-45.785 43.699-43.699c1.9688-1.9688 5.1562-1.9688 7.125 0s1.9688 5.1562 0 7.125l-43.699 43.699c12.824 0.26172 34.297-1.4844 47.23-14.418 15.641-15.645 14.926-43.812 14.074-54.016-10.195-0.83984-38.367-1.5625-54.012 14.078-12.934 12.934-14.676 34.406-14.418 47.23zm-73.75 7.1406-43.711-43.715c-1.9688-1.9688-1.9688-5.1562 0-7.125s5.1562-1.9688 7.125 0l43.695 43.699c0.25781-12.828-1.4844-34.297-14.418-47.23-15.641-15.641-43.805-14.922-54.016-14.078-0.84766 10.203-1.5625 38.371 14.082 54.016 12.969 12.977 34.43 14.707 47.242 14.434zm-2.9883 124.61-51.852-51.855c-1.9688-1.9688-1.9688-5.1562 0-7.125s5.1562-1.9688 7.125 0l51.855 51.855c0.50391-14.672-1.0508-41.258-16.859-57.062-18.73-18.73-52.492-17.484-63.789-16.461-1.0078 11.305-2.2188 45.105 16.461 63.789 15.805 15.809 42.383 17.363 57.059 16.859zm38.379-205.62v-55.277c0-2.7812 2.2539-5.0391 5.0391-5.0391 2.7812 0 5.0391 2.2539 5.0391 5.0391v55.254c9.1484-10.156 22.594-28.582 22.594-49.203 0-25.02-19.699-46.746-27.629-54.473-7.9258 7.7461-27.637 29.523-27.637 54.473 0 20.688 13.449 39.094 22.594 49.227zm8.3945 322.52v-310.34h-6.7109v310.34zm113.59-197.53c-11.305-1.0039-45.113-2.2227-63.793 16.457-15.809 15.805-17.363 42.387-16.859 57.062l51.855-51.855c1.9688-1.9688 5.1562-1.9688 7.125 0s1.9688 5.1562 0 7.125l-51.855 51.855c14.672 0.50391 41.254-1.0469 57.062-16.859 18.727-18.734 17.48-52.484 16.465-63.785z"/>
</svg>