<?xml version="1.0" encoding="UTF-8"?>
<!-- The Best Svg Icon site in the world: iconSvg.co, Visit us! https://iconsvg.co -->
<svg fill="#000000" width="800px" height="800px" version="1.1" viewBox="144 144 512 512" xmlns="http://www.w3.org/2000/svg">
 <path d="m248 325.21-0.21875 3.9375h-27.129c-31.379 0-56.82 25.441-56.82 56.82v77.004c0 8.6914 7.0547 15.742 15.742 15.742 8.6914 0 15.742-7.0547 15.742-15.742v-77.004c0-13.996 11.336-25.332 25.332-25.332h25.379l-11.32 203.81c-0.25 4.3125 1.3086 8.5508 4.2812 11.684 2.9609 3.1484 7.1016 4.9297 11.43 4.9297h220.42c8.6914 0 15.742-7.0547 15.742-15.742v-100.95l70.863-39.469 0.14063 0.94531c1.1016 7.7617 7.7461 13.523 15.586 13.523h47.23c8.6914 0 15.742-7.0547 15.742-15.742v-110.21c0-8.6914-7.0547-15.742-15.742-15.742h-62.977c-4.5664 0-8.9102 1.9844-11.887 5.4336-2.9922 3.4492-4.3438 8.0156-3.6992 12.531l2.5039 17.555-57.766 14.988v-22.953c8.6914 0 15.742-7.0547 15.742-15.742v-74.785c0-8.6914-7.0547-15.742-15.742-15.742h-244.03c-8.6914 0-15.742 7.0547-15.742 15.742v74.785c0 8.6914 7.0547 15.742 15.742 15.742h5.4492zm207.1 0v224.35h-188.03l12.469-224.35zm31.488 55.48 62.254-16.137 3.8555 26.953-66.109 36.809zm118.08 27.176h-17.84l-11.242-78.719h29.078v78.719zm-133.82-114.14h-212.54v-43.297h212.54z" fill-rule="evenodd"/>
</svg>