<?xml version="1.0" encoding="UTF-8"?>
<!-- The Best Svg Icon site in the world: iconSvg.co, Visit us! https://iconsvg.co -->
<svg fill="#000000" width="800px" height="800px" version="1.1" viewBox="144 144 512 512" xmlns="http://www.w3.org/2000/svg">
 <path d="m529.78 228.44c0.26562 2.3984-0.94141 4.7266-3.0586 5.8906s-4.7305 0.9375-6.6172-0.57031c-1.8828-1.5117-2.6758-4.0117-2-6.332 0.67188-2.3203 2.6758-4.0078 5.0781-4.2734 1.5742-0.17188 3.1562 0.28516 4.3945 1.2773 1.2344 0.98828 2.0273 2.4297 2.2031 4.0078zm96.754 49.742c-8.8555 8.6602-20.898 6.0859-37.559 2.5195-16.512-3.8906-33.363-6.1797-50.316-6.8359-7.5273-0.19531-9.1641 1.4023-9.1719 1.418-3.3125 6.125 19.223 35.172 28.844 47.578 7.7227 9.3398 14.738 19.242 20.988 29.625 6.9766 13.227 7.8711 39.289-5.9023 67.699-12.082 24.984-44.082 68.055-124.64 87.805v78.281h6.4141l-0.003906-0.003906c4.3477 0 7.875 3.5234 7.875 7.8711 0 4.3477-3.5273 7.875-7.875 7.875h-28.559c-4.3477 0-7.8711-3.5273-7.8711-7.875 0-4.3477 3.5234-7.8711 7.8711-7.8711h6.4414v-74.871c-0.66016 0.125-1.25 0.28516-1.9219 0.41016-12.66 2.3516-25.473 3.8125-38.336 4.3711v70.062l6.4062-0.003906c4.3477 0 7.8711 3.5234 7.8711 7.8711 0 4.3477-3.5234 7.875-7.8711 7.875h-28.59c-4.3477 0-7.8711-3.5273-7.8711-7.875 0-4.3477 3.5234-7.8711 7.8711-7.8711h6.3984v-69.91c-99.621-1.2891-177.23-55.027-201.34-73.871l-1.2188-0.95312c-2.9609-2.1328-4.0938-6-2.7539-9.3906 1.3477-3.3438 4.7969-5.3398 8.3672-4.8516 11.879 1.8125 55.938-4.6602 116.8-54.781 67.18-55.316 166.48-45.809 183.25-41.652v0.003906c1.8984 0.64453 3.9219 0.81641 5.9023 0.50391 0.042969-0.21094 0.09375-0.41797 0.15625-0.625 0.26563-12.645-1.7578-25.23-5.9805-37.152-7.2969-27.301-15.57-58.254 6.9414-79.703v-0.003906c12.41-12.918 30.645-18.461 48.148-14.633 19.695 4.9023 36.348 18.004 45.75 35.992l0.20312 0.41016c0.046876 0.11719 0.14063 0.26172 0.1875 0.38672 3.5977 9.0195 27.137 22.578 42.707 29.324l0.003906-0.003906c2.4023 1.043 4.1328 3.2188 4.6055 5.7969 0.47266 2.582-0.36719 5.2266-2.2461 7.0586zm-87.379-20.051c9.5312 0.30078 19.035 1.1523 28.465 2.5508l-1.2266-19.68c-7.4961-13.043-19.902-22.539-34.449-26.371-12.383-2.6328-25.242 1.3906-33.914 10.609-15.742 14.957-9.0352 40.012-2.5742 64.211 4.3359 16.215 8.4219 31.488 6.1484 44.562-1.4414 5.6133-6.4883 16.703-25.238 12.066-14.648-3.6445-108.11-11.965-169.44 38.52-47.727 39.297-84.316 52.453-106.17 56.68 39.359 26.984 125.61 73.996 227.5 55.051 86.859-16.137 119.37-58.922 131.02-82.996 12.066-24.922 10.289-45.656 6.1484-53.492l0.003906 0.003906c-5.8477-9.5586-12.367-18.688-19.508-27.324-19.625-25.309-38.156-49.207-30.418-64.387 3.543-7.0273 11.492-10.352 23.656-10.004zm50.578 6.6289c-2.1719-1.4102-4.2969-2.9062-6.3594-4.4492l0.19531 3.1484c2.1406 0.46484 4.2188 0.89062 6.1484 1.3008zm-82.766 106.85c-4.043-1.5781-8.5977 0.41016-10.188 4.4453-1.4805 3.7461-36.211 86.324-198 67.887l58.488-20.184v0.003906c4.1094-1.418 6.293-5.8984 4.875-10.012-1.4141-4.1094-5.8984-6.293-10.008-4.875l-89.023 30.699c-3.3906 1.168-5.5625 4.4805-5.2852 8.0586 0.28125 3.5742 2.9414 6.5078 6.4727 7.1367 26.133 4.8438 52.641 7.375 79.215 7.5625 135.1 0 166.48-76.777 167.94-80.602 1.5312-4.0352-0.47266-8.5508-4.4922-10.121z"/>
</svg>