<?xml version="1.0" encoding="UTF-8"?>
<!-- The Best Svg Icon site in the world: iconSvg.co, Visit us! https://iconsvg.co -->
<svg fill="#000000" width="800px" height="800px" version="1.1" viewBox="144 144 512 512" xmlns="http://www.w3.org/2000/svg">
 <g>
  <path d="m488.08 297.52c-22.023-24.922-53.711-39.219-86.938-39.219-7.3047 0-14.5 0.67969-21.395 2.0234-23.094 4.2734-44.027 15.293-60.617 31.875-1.6914 1.6914-3.2891 3.3906-4.8047 5.1797l-12.039-10.148c1.793-2.1289 3.6992-4.1445 5.7031-6.1602 18.859-18.852 42.652-31.371 68.82-36.215 7.8125-1.5195 16.02-2.2969 24.332-2.2969 37.738 0 73.723 16.23 98.73 44.539z"/>
  <path d="m401.14 557.44c-72.594 0-131.65-59.059-131.65-131.65v-22.281h15.742v22.281c0 63.914 52 115.91 115.91 115.91 63.914 0 115.91-51.996 115.91-115.91v-24.551h15.742v24.551c0 72.594-59.062 131.65-131.66 131.65z"/>
  <path d="m401.14 505.86c-1.5234 0-3.043-0.44141-4.3672-1.3203l-30.941-20.629c-3.3047-2.2031-4.4492-6.5195-2.6758-10.07l10.316-20.629c1.3359-2.668 4.0586-4.3516 7.043-4.3516h41.258c2.9844 0 5.7109 1.6836 7.043 4.3555l10.309 20.629c1.7773 3.5469 0.62891 7.8633-2.6758 10.066l-30.941 20.629c-1.3242 0.87891-2.8438 1.3203-4.3672 1.3203zm-20.797-31.195 20.793 13.863 20.793-13.863-5.0273-10.062h-31.527z"/>
  <path d="m370.2 400c0 8.543-6.9258 15.473-15.473 15.473-8.5469 0-15.473-6.9297-15.473-15.473 0-8.5469 6.9258-15.473 15.473-15.473 8.5469 0 15.473 6.9258 15.473 15.473"/>
  <path d="m463.04 400c0 8.543-6.9258 15.473-15.473 15.473s-15.473-6.9297-15.473-15.473c0-8.5469 6.9258-15.473 15.473-15.473s15.473 6.9258 15.473 15.473"/>
  <path d="m492.3 360.34c-39.223-8.5508-47.457-25.227-47.457-37.707 0-7.5977 0-7.5977-11.469-7.5977-12.078 0-30.336 0-48.117-17.781-17.383-17.387-17.566-34.918-14.652-46.562l15.266 3.8125c-2.7969 11.203 0.73828 21.844 10.516 31.617 13.168 13.168 25.824 13.168 36.984 13.168 10.84 0 27.215 0 27.215 23.344 0 13.25 24.523 20.027 35.062 22.324z"/>
  <path d="m256.73 415.61c-32.781 0-59.449-26.668-59.449-59.449v-25.789c0-25.672 20.887-46.555 46.555-46.555h64.469c4.3516 0 7.8711 3.5234 7.8711 7.8711v64.473c0 32.781-26.668 59.449-59.445 59.449zm-12.891-116.05c-16.988 0-30.812 13.82-30.812 30.812v25.789c0 24.098 19.602 43.703 43.703 43.703s43.703-19.605 43.703-43.703v-56.598z"/>
  <path d="m544.41 413.03c-32.148 0-58.301-26.152-58.301-58.301v-63.039c0-4.3477 3.5195-7.8711 7.8711-7.8711h63.039c25.199 0 45.695 20.5 45.695 45.695v25.215c-0.003906 32.148-26.156 58.301-58.305 58.301zm-42.559-113.46v55.164c0 23.465 19.09 42.559 42.559 42.559s42.559-19.094 42.559-42.559v-25.215c0-16.516-13.438-29.949-29.949-29.949z"/>
  <path d="m384.75 522.93c-12.371 0-25.152-5.9727-28.383-7.582l7.0352-14.086c7.7891 3.8633 21.785 8.0312 27.113 4.7305 1.8281-1.1367 2.7617-3.8281 2.7617-8.0039h15.742c0 12.457-5.5664 18.512-10.23 21.398-4.1836 2.582-9.082 3.543-14.039 3.543z"/>
  <path d="m417.54 522.93c-4.957 0-9.8555-0.96094-14.039-3.543-4.668-2.8867-10.23-8.9414-10.23-21.398h15.742c0 4.1758 0.92969 6.8633 2.7617 8.0039 5.3438 3.2969 19.336-0.86719 27.113-4.7305l7.0352 14.086c-3.2305 1.6094-16.016 7.582-28.383 7.582z"/>
 </g>
</svg>