<?xml version="1.0" encoding="UTF-8"?>
<!-- The Best Svg Icon site in the world: iconSvg.co, Visit us! https://iconsvg.co -->
<svg fill="#000000" width="800px" height="800px" version="1.1" viewBox="144 144 512 512" xmlns="http://www.w3.org/2000/svg">
 <path d="m551.9 500.76-51.641-37.785v25.191h-87.664v-22.672c56.68-5.0391 82.371-41.562 82.371-82.875 0-14.359-0.25-23.176-0.25-30.48 2.0156 1.7617 4.2812 2.5195 7.0547 2.5195 6.2969 0 11.84-5.2891 11.84-11.84 0-8.0625-9.5742-16.375-7.8086-26.703 4.5352-0.50391 8.5664-1.2578 15.871-3.0234-0.75391-4.0312-5.543-10.832-12.344-15.113-0.25-19.648-8.8164-17.887-3.7773-30.23 5.543-13.855-0.25-28.719-7.0547-30.73-6.0469-1.7617-3.5273 6.8008-7.0547 14.863-1.5117 3.5273-4.7852 3.7773-5.543-1.0078-1.7617-11.84-8.8164-24.184-14.105-24.184-7.3047 0-3.0234 12.594-4.5352 24.938-0.25 3.2734-2.7695 3.7773-4.0312 1.0078-4.0312-8.5664-17.383-22.922-22.672-20.906-6.8008 2.5195 1.2578 14.863 4.2812 26.703 1.0078 3.7773-1.0078 4.0312-3.5273 1.7617-5.793-5.543-20.656-11.586-24.688-8.3125-8.0625 7.0547 20.402 28.969 20.402 39.551 0 47.863-34.008 38.543-82.121 38.543-52.648 0-76.328 40.809-76.328 81.367 0 6.2969 0.75391 12.594 2.0156 18.895 8.5664-8.3125 15.367-14.609 21.16-19.145 0 10.578 2.2656 21.16 6.2969 31.488 18.391-18.641 40.559-24.938 64.234-22.168l-39.551 17.383c20.906 18.137 39.551 25.191 54.664 27.457v22.922h-68.77l-15.113-12.594h-56.93l25.191 24.938-25.191 25.441h56.93l14.863-12.594h181.88v25.191zm-66.504-210.34c4.7852 0 8.8164 3.7773 8.8164 8.5664 0 4.5352-4.0312 8.8164-8.8164 8.8164-4.5352 0-8.5664-4.2812-8.5664-8.8164 0-4.7852 4.0312-8.5664 8.5664-8.5664zm-97.992 260.72h25.191v-25.191h-25.191z"/>
</svg>