<?xml version="1.0" encoding="UTF-8"?>
<!-- The Best Svg Icon site in the world: iconSvg.co, Visit us! https://iconsvg.co -->
<svg fill="#000000" width="800px" height="800px" version="1.1" viewBox="144 144 512 512" xmlns="http://www.w3.org/2000/svg">
 <g>
  <path d="m357.77 535.54 18.004 7.7148c6.8359 2.9375 12.41 8.1992 15.742 14.855l0.58984 1.1797v76.871h15.742l0.003907-76.871 0.58984-1.1797c3.332-6.6562 8.9062-11.918 15.742-14.855l18.004-7.7148c8.5117-3.6328 15.762-9.6875 20.859-17.41 5.0938-7.7266 7.8047-16.777 7.7969-26.027v-52.742c0-2.9062-1.5977-5.5742-4.1602-6.9414-2.5586-1.3711-5.668-1.2188-8.082 0.39062l-33.312 22.207c-6.7227 4.543-12.613 10.203-17.422 16.738v-6.9258l0.58984-1.1797v-0.003907c3.332-6.6523 8.9102-11.914 15.742-14.855l18.004-7.7148c8.5078-3.6367 15.758-9.6914 20.848-17.414 5.0938-7.7227 7.8008-16.773 7.793-26.023v-52.742c0-2.9023-1.5977-5.5742-4.1602-6.9414-2.5586-1.3711-5.668-1.2188-8.082 0.39062l-33.312 22.207c-6.7227 4.543-12.613 10.203-17.422 16.738v-6.9258l0.58984-1.1797v-0.003906c3.332-6.6523 8.9102-11.914 15.742-14.855l18.004-7.7148c8.5078-3.6367 15.758-9.6914 20.848-17.414 5.0938-7.7227 7.8008-16.773 7.793-26.023v-92.102h-15.746v35.148l-29.812 19.867h0.003907c-6.7227 4.543-12.613 10.203-17.422 16.738v-4.8438l15.742-11.805c9.9141-7.4336 15.746-19.102 15.746-31.488 0-12.391-5.832-24.055-15.746-31.488l-15.742-11.809v-27.555h-15.746v27.555l-15.742 11.809c-9.9102 7.4336-15.746 19.098-15.746 31.488 0 12.387 5.8359 24.055 15.746 31.488l15.742 11.809v4.8398c-4.8047-6.5352-10.699-12.195-17.418-16.738l-29.812-19.867v-35.148h-15.746v92.102c-0.003907 9.2461 2.7031 18.289 7.793 26.008s12.332 13.77 20.832 17.406l18.004 7.7148c6.8359 2.9414 12.41 8.2031 15.742 14.855l0.58984 1.1797v6.9297c-4.8047-6.5352-10.699-12.195-17.418-16.738l-33.312-22.207h-0.003906c-2.418-1.6055-5.5234-1.75-8.082-0.375-2.5547 1.375-4.1484 4.0469-4.1445 6.9492v52.742c-0.003907 9.2461 2.7031 18.289 7.793 26.008 5.0898 7.7148 12.332 13.77 20.832 17.406l18.004 7.7148c6.8359 2.9414 12.41 8.1992 15.742 14.855l0.58984 1.1797v6.9258c-4.8047-6.5312-10.699-12.191-17.418-16.734l-33.312-22.207h-0.003906c-2.418-1.6055-5.5234-1.75-8.082-0.375-2.5547 1.375-4.1484 4.0469-4.1445 6.9492v52.742c-0.007813 9.25 2.6992 18.297 7.7852 26.02 5.0898 7.7227 12.336 13.781 20.84 17.418zm57.527-46.207c4.2969-8.5781 10.746-15.887 18.719-21.219l21.082-14.051v38.039c0.003907 6.1641-1.8047 12.191-5.1992 17.336-3.3906 5.1445-8.2188 9.1797-13.883 11.609l-18.004 7.7148c-3.6172 1.5625-7.0273 3.5781-10.145 5.9883v-30.559zm0-94.465c4.2969-8.5781 10.746-15.887 18.719-21.215l21.082-14.055v38.039c0.003907 6.1641-1.8047 12.191-5.1992 17.336-3.3906 5.1445-8.2188 9.1797-13.883 11.609l-18.004 7.7148c-3.6172 1.5664-7.0273 3.5781-10.145 5.9922v-30.562zm0-94.465c4.2969-8.5781 10.746-15.887 18.719-21.215l21.082-14.051v38.035c0.003907 6.1641-1.8047 12.191-5.1992 17.336-3.3906 5.1445-8.2188 9.1836-13.883 11.609l-18.004 7.7148c-3.6172 1.5664-7.0273 3.5781-10.145 5.9922v-30.559zm-38.918-65.715c0.019532-7.4297 3.5156-14.422 9.4453-18.895l14.172-10.629 14.168 10.629c5.9453 4.4609 9.4453 11.461 9.4453 18.895s-3.5 14.43-9.4453 18.891l-14.168 10.629-14.172-10.629c-5.9297-4.4727-9.4258-11.465-9.4453-18.891zm5.5977 105.17-18.004-7.7148v-0.003906c-5.668-2.4297-10.496-6.4688-13.891-11.617-3.3906-5.1523-5.1953-11.184-5.1914-17.352v-38.035l21.082 14.051c7.9805 5.3398 14.43 12.664 18.719 21.254l7.4297 14.824v30.559c-3.1172-2.4062-6.5273-4.4102-10.145-5.9688zm0 94.465-18.004-7.7148v-0.003906c-5.668-2.4297-10.496-6.4688-13.891-11.621-3.3906-5.1484-5.1953-11.18-5.1914-17.348v-38.039l21.082 14.051v0.003906c7.9805 5.3359 14.43 12.664 18.719 21.254l7.4297 14.82v30.562c-3.1172-2.4062-6.5273-4.4102-10.145-5.9688zm-37.086 19.738 21.082 14.051c7.9805 5.3398 14.43 12.668 18.719 21.258l7.4297 14.82v30.559c-3.1172-2.4023-6.5273-4.4062-10.145-5.9648l-18.004-7.7148c-5.668-2.4297-10.496-6.4688-13.891-11.621-3.3906-5.1484-5.1953-11.18-5.1914-17.348z"/>
  <path d="m184.59 535.54 18.004 7.7148h-0.003906c6.8359 2.9375 12.414 8.1992 15.746 14.855l0.58984 1.1797v76.871h15.742l0.003906-76.871 0.58984-1.1797c3.332-6.6562 8.9062-11.918 15.742-14.855l18.004-7.7148c8.5078-3.6328 15.762-9.6875 20.855-17.41 5.0977-7.7266 7.8086-16.777 7.8008-26.027v-52.742c0-2.9062-1.6016-5.5742-4.1602-6.9414-2.5586-1.3711-5.668-1.2188-8.082 0.39062l-33.312 22.207h-0.003906c-6.7188 4.543-12.613 10.203-17.418 16.738v-6.9258l0.58984-1.1797v-0.003907c3.332-6.6523 8.9062-11.914 15.742-14.855l18.004-7.7148c8.5078-3.6367 15.754-9.6914 20.848-17.414 5.0898-7.7227 7.8008-16.773 7.793-26.023v-52.742c0-2.9023-1.6016-5.5742-4.1602-6.9414-2.5586-1.3711-5.668-1.2188-8.082 0.39062l-33.312 22.207h-0.003906c-6.7188 4.543-12.613 10.203-17.418 16.738v-6.9258l0.58984-1.1797v-0.003906c3.332-6.6523 8.9062-11.914 15.742-14.855l18.004-7.7148c8.5078-3.6367 15.754-9.6914 20.848-17.414 5.0898-7.7227 7.8008-16.773 7.793-26.023v-92.102h-15.746v35.148l-29.812 19.867c-6.7188 4.543-12.613 10.203-17.418 16.738v-4.8438l15.742-11.805c9.9102-7.4336 15.746-19.102 15.746-31.488 0-12.391-5.8359-24.055-15.746-31.488l-15.742-11.809v-27.555h-15.746v27.555l-15.742 11.809c-9.9141 7.4336-15.746 19.098-15.746 31.488 0 12.387 5.832 24.055 15.746 31.488l15.742 11.809v4.8398c-4.8086-6.5352-10.699-12.195-17.422-16.738l-29.809-19.867v-35.148h-15.746v92.102c-0.003906 9.2461 2.7031 18.289 7.793 26.008 5.0859 7.7188 12.332 13.77 20.832 17.406l18.004 7.7148h-0.003906c6.8359 2.9414 12.414 8.2031 15.746 14.855l0.58984 1.1797v6.9297c-4.8086-6.5352-10.699-12.195-17.422-16.738l-33.297-22.184c-2.4141-1.6094-5.5234-1.7617-8.082-0.39062-2.5625 1.3672-4.1602 4.0391-4.1602 6.9414v52.742c-0.003906 9.2461 2.7031 18.289 7.793 26.008 5.0859 7.7148 12.332 13.77 20.832 17.406l18.004 7.7148h-0.003906c6.8359 2.9414 12.414 8.1992 15.746 14.855l0.58984 1.1797v6.9258c-4.8086-6.5312-10.699-12.191-17.422-16.734l-33.297-22.184c-2.4141-1.6094-5.5234-1.7617-8.082-0.39062-2.5625 1.3672-4.1602 4.0352-4.1602 6.9414v52.742c-0.011719 9.25 2.6953 18.297 7.7852 26.02s12.336 13.781 20.84 17.418zm57.527-46.207c4.293-8.5781 10.746-15.887 18.719-21.219l21.082-14.051v38.039c0 6.1641-1.8047 12.191-5.1992 17.336-3.3906 5.1445-8.2188 9.1797-13.883 11.609l-18.004 7.7148c-3.6172 1.5625-7.0273 3.5781-10.145 5.9883v-30.559zm0-94.465c4.293-8.5781 10.746-15.887 18.719-21.215l21.082-14.055v38.039c0 6.1641-1.8047 12.191-5.1992 17.336-3.3906 5.1445-8.2188 9.1797-13.883 11.609l-18.004 7.7148c-3.6172 1.5664-7.0273 3.5781-10.145 5.9922v-30.562zm0-94.465c4.293-8.5781 10.746-15.887 18.719-21.215l21.082-14.051v38.035c0 6.1641-1.8047 12.191-5.1992 17.336-3.3906 5.1445-8.2188 9.1836-13.883 11.609l-18.004 7.7148c-3.6172 1.5664-7.0273 3.5781-10.145 5.9922v-30.559zm-38.918-65.715c0.015625-7.4297 3.5117-14.422 9.4453-18.895l14.168-10.629 14.172 10.629c5.9453 4.4609 9.4453 11.461 9.4453 18.895s-3.5 14.43-9.4453 18.891l-14.172 10.629-14.168-10.629c-5.9336-4.4727-9.4297-11.465-9.4453-18.891zm5.5977 105.17-18.004-7.7148v-0.003906c-5.668-2.4297-10.5-6.4688-13.891-11.617-3.3945-5.1523-5.1992-11.184-5.1914-17.352v-38.035l21.082 14.051c7.9766 5.3398 14.43 12.664 18.719 21.254l7.4297 14.824v30.559c-3.1172-2.4062-6.5273-4.4102-10.145-5.9688zm0 94.465-18.004-7.7148v-0.003906c-5.668-2.4297-10.5-6.4688-13.891-11.621-3.3945-5.1484-5.1992-11.18-5.1914-17.348v-38.039l21.082 14.051v0.003906c7.9766 5.3359 14.43 12.664 18.719 21.254l7.4297 14.82v30.562c-3.1172-2.4062-6.5273-4.4102-10.145-5.9688zm-37.086 19.738 21.082 14.051c7.9766 5.3398 14.43 12.668 18.719 21.258l7.4297 14.82v30.559c-3.1172-2.4023-6.5273-4.4062-10.145-5.9648l-18.004-7.7148c-5.668-2.4297-10.5-6.4688-13.891-11.621-3.3945-5.1484-5.1992-11.18-5.1914-17.348z"/>
  <path d="m628.29 246.22-29.812 19.867c-6.7227 4.543-12.613 10.203-17.422 16.738v-4.8438l15.746-11.805c9.9102-7.4336 15.742-19.102 15.742-31.488 0-12.391-5.832-24.055-15.742-31.488l-15.746-11.809v-27.555h-15.742v27.555l-15.746 11.809c-9.9102 7.4336-15.742 19.098-15.742 31.488 0 12.387 5.832 24.055 15.742 31.488l15.742 11.809v4.8398h0.003906c-4.8086-6.5352-10.703-12.195-17.422-16.738l-29.812-19.867v-35.148h-15.742v92.102c-0.007813 9.2461 2.7031 18.289 7.7891 26.008 5.0898 7.7188 12.332 13.77 20.832 17.406l18.004 7.7148c6.8359 2.9414 12.414 8.2031 15.742 14.855l0.58984 1.1797v6.9258l0.003906 0.003906c-4.8086-6.5352-10.703-12.195-17.422-16.738l-33.312-22.207h-0.003906c-2.418-1.6055-5.5234-1.75-8.0781-0.375-2.5586 1.375-4.1523 4.0469-4.1445 6.9492v52.742c-0.007813 9.2461 2.7031 18.289 7.7891 26.008 5.0898 7.7148 12.332 13.77 20.832 17.406l18.004 7.7148c6.8359 2.9414 12.414 8.1992 15.742 14.855l0.58984 1.1797v6.9258h0.003906c-4.8086-6.5312-10.703-12.191-17.422-16.734l-33.312-22.207h-0.003906c-2.418-1.6055-5.5234-1.75-8.0781-0.375-2.5586 1.375-4.1523 4.0469-4.1445 6.9492v52.742c-0.007813 9.2461 2.7031 18.289 7.7891 26.004 5.0898 7.7188 12.332 13.773 20.832 17.41l18.004 7.7148c6.8359 2.9375 12.414 8.1992 15.742 14.855l0.58984 1.1797 0.003906 76.895h15.742v-76.871l0.58984-1.1797c3.332-6.6562 8.9102-11.918 15.746-14.855l18.004-7.7148c8.5078-3.6328 15.762-9.6875 20.855-17.41 5.0938-7.7266 7.8047-16.777 7.7969-26.027v-52.742c0-2.9062-1.5977-5.5742-4.1602-6.9414-2.5586-1.3711-5.6641-1.2188-8.082 0.39062l-33.312 22.207c-6.7227 4.543-12.613 10.203-17.422 16.738v-6.9258l0.58984-1.1797v-0.003907c3.332-6.6523 8.9102-11.914 15.746-14.855l18.004-7.7148c8.5039-3.6367 15.754-9.6914 20.844-17.414 5.0938-7.7227 7.8047-16.773 7.793-26.023v-52.742c0-2.9023-1.5977-5.5742-4.1602-6.9414-2.5586-1.3711-5.6641-1.2188-8.082 0.39062l-33.312 22.207c-6.7227 4.543-12.613 10.203-17.422 16.738v-6.9258l0.58984-1.1797v-0.003906c3.332-6.6523 8.9102-11.914 15.746-14.855l18.004-7.7148c8.5039-3.6367 15.754-9.6914 20.844-17.414 5.0938-7.7227 7.8047-16.773 7.793-26.023v-92.102h-15.742zm-78.723-11.531c0.019532-7.4297 3.5156-14.422 9.4453-18.895l14.172-10.629 14.168 10.629c5.9492 4.4609 9.4492 11.461 9.4492 18.895s-3.5 14.43-9.4492 18.891l-14.168 10.629-14.172-10.629c-5.9297-4.4727-9.4258-11.465-9.4453-18.891zm5.5977 105.17-18.004-7.7148v-0.003906c-5.668-2.4297-10.496-6.4688-13.891-11.617-3.3906-5.1523-5.1953-11.184-5.1914-17.352v-38.035l21.082 14.051c7.9805 5.3398 14.43 12.664 18.719 21.254l7.4336 14.824v30.559c-3.1211-2.4062-6.5312-4.4102-10.148-5.9688zm0 94.465-18.004-7.7148v-0.003906c-5.668-2.4297-10.496-6.4688-13.891-11.621-3.3906-5.1484-5.1953-11.18-5.1914-17.348v-38.039l21.082 14.051v0.003906c7.9805 5.3359 14.43 12.664 18.719 21.254l7.4336 14.82v30.562c-3.1211-2.4062-6.5312-4.4102-10.148-5.9688zm0 94.465-18.004-7.7148v-0.003907c-5.668-2.4297-10.496-6.4688-13.891-11.621-3.3906-5.1484-5.1953-11.18-5.1914-17.348v-38.039l21.082 14.051c7.9805 5.3398 14.43 12.668 18.719 21.258l7.4336 14.82v30.559c-3.1211-2.4023-6.5312-4.4062-10.148-5.9648zm33.324-39.453-0.003906-0.003907c4.2969-8.5781 10.746-15.887 18.723-21.219l21.082-14.051v38.039c0 6.1641-1.8086 12.191-5.1992 17.336-3.3945 5.1445-8.2188 9.1797-13.883 11.609l-18.004 7.7148c-3.6211 1.5625-7.0312 3.5781-10.148 5.9883v-30.559zm0-94.465-0.003906-0.003906c4.2969-8.5781 10.746-15.887 18.723-21.215l21.082-14.055v38.039c0 6.1641-1.8086 12.191-5.1992 17.336-3.3945 5.1445-8.2188 9.1797-13.883 11.609l-18.004 7.7148c-3.6211 1.5664-7.0312 3.5781-10.148 5.9922v-30.562zm20.719-62.723-18.004 7.7148v-0.007812c-3.6211 1.5586-7.0273 3.5625-10.148 5.9688v-30.559l7.4297-14.863c4.2969-8.5781 10.746-15.887 18.723-21.215l21.082-14.051v38.035c0.003907 6.168-1.8008 12.199-5.1953 17.352-3.3906 5.1484-8.2188 9.1875-13.887 11.617z"/>
 </g>
</svg>