<?xml version="1.0" encoding="UTF-8"?>
<!-- The Best Svg Icon site in the world: iconSvg.co, Visit us! https://iconsvg.co -->
<svg fill="#000000" width="800px" height="800px" version="1.1" viewBox="144 144 512 512" xmlns="http://www.w3.org/2000/svg">
 <path d="m597.86 321.91h-7.4766c-1.8125-34.273-30.152-61.668-65.07-62.348-2.5-34.086-31.258-61.082-66.332-61.082-27.738 0-51.543 16.887-61.535 40.805-9.9922-23.918-33.797-40.805-61.535-40.805-35.246 0-64.105 27.262-66.355 61.586-31.66 3.9141-56.418 29.887-58.109 61.848h-7.4766c-2.7812 0-5.0391 2.2539-5.0391 5.0391v63.238c0 2.7852 2.2578 5.0391 5.0391 5.0391h11.23v29.84h-11.23c-2.7812 0-5.0391 2.2539-5.0391 5.0391v63.234c0 2.7852 2.2578 5.0391 5.0391 5.0391h11.23v29.84h-11.23c-2.7812 0-5.0391 2.2539-5.0391 5.0391v63.227c0 2.7852 2.2578 5.0391 5.0391 5.0391h393.89c2.7812 0 5.0391-2.2539 5.0391-5.0391l-0.003906-63.238c0-2.7852-2.2578-5.0391-5.0391-5.0391h-11v-29.84h11.004c2.7812 0 5.0391-2.2539 5.0391-5.0391l-0.003906-63.227c0-2.7852-2.2578-5.0391-5.0391-5.0391h-11v-29.84h11.004c2.7812 0 5.0391-2.2539 5.0391-5.0391l-0.003906-63.238c0-2.7852-2.2578-5.0391-5.0391-5.0391zm-17.551 0h-112.64c1.8242-29.156 26.348-52.34 56.32-52.34 29.969 0 54.496 23.188 56.32 52.34zm-179.39-52.34c29.973 0 54.496 23.184 56.32 52.34h-112.64c1.8203-29.152 26.348-52.34 56.32-52.34zm58.062-61.016c29.711 0 54.078 22.777 56.281 51.574-23.93 3.1172-43.891 18.809-52.812 40.172-9.7695-23.391-32.77-39.992-59.723-40.711 2.4688-28.547 26.73-51.035 56.254-51.035zm-123.07 0c29.711 0 54.078 22.777 56.281 51.574-23.93 3.1172-43.891 18.809-52.812 40.172-9.7695-23.391-32.77-39.992-59.723-40.711 2.4609-28.547 26.73-51.035 56.254-51.035zm-58.07 61.016c29.973 0 54.496 23.184 56.32 52.34h-112.64c1.8242-29.152 26.352-52.34 56.32-52.34zm314.98 321.88h-383.82v-53.16h383.82zm-16.043-63.238h-351.51v-29.84h351.51zm16.043-39.914h-383.82v-53.152h383.82zm-16.043-63.23h-351.51v-29.84h351.51zm16.043-39.918h-383.82v-53.16h383.82z"/>
</svg>