<?xml version="1.0" encoding="UTF-8"?>
<!-- The Best Svg Icon site in the world: iconSvg.co, Visit us! https://iconsvg.co -->
<svg fill="#000000" width="800px" height="800px" version="1.1" viewBox="144 144 512 512" xmlns="http://www.w3.org/2000/svg">
 <g>
  <path d="m224.2 532.93h-20.684c-2.7812 0-5.0391 2.2539-5.0391 5.0391 0 2.7812 2.2539 5.0391 5.0391 5.0391h20.684c2.7812 0 5.0391-2.2539 5.0391-5.0391s-2.2539-5.0391-5.0391-5.0391z"/>
  <path d="m601.52 537.94c0 2.8203-2.2656 5.0391-5.0391 5.0391h-341.28c-2.7695 0-5.0391-2.2148-5.0391-5.0391 0-2.7695 2.2656-5.0391 5.0391-5.0391h36.324v-82.32c-10.176-1.5625-30.531-6.5-45.395-21.863-20-20.809-21.613-52.094-21.664-53.453-0.050781-1.4102 0.50391-2.7695 1.5117-3.7773 1.0078-1.0078 2.418-1.5117 3.7773-1.4609 1.2578 0.050781 31.59 1.7148 51.691 22.57 4.082 4.2812 7.4062 8.9688 10.078 13.754v-60.965c-19.898-5.6445-33.855-43.781-33.855-70.184 0-6.5 0.65625-13.551 5.6445-16.727 5.0391-3.2227 10.832-0.55469 16.93 2.3164 4.9883 2.3164 10.629 4.9375 16.324 4.9375 5.6914 0 11.336-2.6211 16.324-4.9375 6.1445-2.8711 11.941-5.543 16.977-2.3164 4.9883 3.1758 5.6445 10.227 5.6445 16.727 0 26.398-13.957 64.539-33.906 70.18v62.625c2.8711-5.3906 6.4492-10.68 11.035-15.418 20.051-20.859 50.383-22.52 51.691-22.57 1.3594-0.10156 2.7695 0.45312 3.7773 1.4609 1.0078 1.0078 1.5625 2.3672 1.4609 3.7773-0.050781 1.3594-1.6133 32.648-21.664 53.453-15.266 15.871-36.477 20.605-46.301 21.965v82.223h186.41l-0.003906-82.316c-10.176-1.5625-30.531-6.5-45.395-21.863-20-20.809-21.613-52.094-21.664-53.453-0.050781-1.4102 0.50391-2.7695 1.5117-3.7773 1.0078-1.0078 2.3672-1.5117 3.7773-1.4609 1.2578 0.050781 31.59 1.7148 51.691 22.57 4.082 4.2812 7.4062 8.9688 10.078 13.754v-60.965c-19.902-5.6445-33.859-43.781-33.859-70.184 0-6.5 0.65625-13.551 5.6445-16.727 5.0391-3.2227 10.832-0.55469 16.93 2.3164 4.9883 2.3164 10.629 4.9375 16.324 4.9375 5.6914 0 11.336-2.6211 16.324-4.9375 6.1445-2.8711 11.941-5.543 16.977-2.3164 4.9883 3.1758 5.6445 10.227 5.6445 16.727 0 26.398-13.957 64.539-33.906 70.18v62.625c2.8711-5.3906 6.4492-10.68 11.035-15.418 20.051-20.859 50.383-22.52 51.691-22.57 1.3594-0.10156 2.7695 0.45312 3.7773 1.4609 1.0078 1.0078 1.5625 2.3672 1.4609 3.7773-0.050782 1.3594-1.6133 32.648-21.664 53.453-15.266 15.871-36.477 20.605-46.301 21.965v82.223l98.391 0.003906c2.7695 0 5.0391 2.2695 5.0391 5.0391z"/>
 </g>
</svg>