<?xml version="1.0" encoding="UTF-8"?>
<!-- The Best Svg Icon site in the world: iconSvg.co, Visit us! https://iconsvg.co -->
<svg fill="#000000" width="800px" height="800px" version="1.1" viewBox="144 144 512 512" xmlns="http://www.w3.org/2000/svg">
 <g>
  <path d="m596.48 580.36h-9.0703c-1.0078-23.176-18.137-41.816-40.809-44.336v-19.145c8.0625 0 24.184-1.5117 35.266-12.594 15.113-14.609 13.602-39.297 13.602-40.305 0-2.5195-2.0156-4.5352-4.5352-4.5352-1.0078 0-25.695-2.5195-40.809 12.09-3.5273 3.5273-6.0469 7.5586-8.0625 12.09-2.0156-4.0312-4.0312-8.0625-7.5586-11.586-14.609-15.113-39.297-13.602-40.305-13.602-2.5195 0-4.5352 2.0156-4.5352 4.5352 0 1.0078-2.5195 25.695 12.09 40.809 10.578 11.082 26.703 13.098 35.266 13.602v18.641c-22.672 2.5195-40.305 21.16-40.809 44.336h-49.375c-1.0078-23.176-18.137-41.816-40.809-44.336v-19.145c8.0625 0 24.688-1.5117 35.266-12.594 15.113-14.609 13.602-39.297 13.602-40.305 0-2.5195-2.0156-4.5352-4.5352-4.5352-1.0078 0-25.695-2.5195-40.809 12.09-4.5195 4.0312-7.5391 8.0625-9.5547 12.594-2.0156-4.0312-4.0312-8.0625-7.5586-11.586-14.609-15.113-39.297-13.602-40.305-13.602-2.5195 0-4.5352 2.0156-4.5352 4.5352 0 1.0078-2.5195 25.695 12.09 40.809 10.578 11.082 26.703 13.098 35.266 13.602v18.641c-22.672 2.5195-40.305 21.16-40.809 44.336h-49.375c-1.0078-23.176-18.137-41.816-40.809-44.336v-19.145c8.0625 0 24.688-1.5117 35.266-12.594 15.113-14.609 13.602-39.297 13.602-40.305 0-2.5195-2.0156-4.5352-4.5352-4.5352-1.0078 0-25.695-2.5195-40.809 12.09-3.5273 3.5273-6.0469 7.5586-8.0625 12.09-2.0156-4.0312-4.0312-8.0625-7.5586-11.586-14.609-15.113-39.297-13.602-40.305-13.602-2.5195 0-4.5352 2.0156-4.5352 4.5352 0 1.0078-2.5195 25.695 12.09 40.809 10.578 11.082 26.703 13.098 35.266 13.602v18.641c-22.672 2.5195-40.305 21.16-40.809 44.336h-10.062c-3.0234 0-5.0391 2.0156-5.0391 5.0391s2.0156 5.0391 5.0391 5.0391l392.97-0.003906c3.0234 0 5.0391-2.0156 5.0391-5.0391 0-3.0195-2.5195-5.5391-5.0391-5.5391zm-39.801-101.27c8.0625-8.0625 21.16-9.5742 28.215-9.5742-0.50391 7.0547-2.0156 19.648-10.578 27.711-8.0625 8.0625-21.16 9.5742-28.215 9.5742 0.5-6.5508 2.5156-19.652 10.578-27.711zm-48.367 18.137c-8.0625-8.0625-9.5742-21.16-9.5742-28.215 7.0547 0.50391 19.648 2.0156 27.711 10.578 7.5586 7.5586 9.0703 19.648 9.5742 26.703v1.5117c-6.5508-0.50391-19.648-2.0156-27.711-10.578zm32.75 48.867c19.145 0 34.762 15.113 35.77 34.258l-71.543 0.003906c1.0078-18.641 16.629-34.262 35.773-34.262zm-125.45-67.004c8.0625-8.0625 21.16-9.5742 28.215-9.5742-0.50391 7.0547-2.0156 19.648-10.578 27.711-8.0664 8.5625-21.164 10.074-28.219 10.074 0.50391-7.0508 2.0156-20.152 10.582-28.211zm-48.367 18.137c-8.0625-8.0625-9.5742-21.16-9.5742-28.215 7.0547 0.50391 19.648 2.0156 27.711 10.578 7.5586 7.5586 9.0703 19.648 9.5742 26.703v1.5117c-7.0547-0.50391-19.648-2.0156-27.711-10.578zm32.75 48.867c19.145 0 34.762 15.113 35.77 34.258l-71.543 0.003906c0.50391-18.641 16.629-34.262 35.773-34.262zm-125.95-67.004c8.0625-8.0625 21.16-9.5742 28.215-9.5742-0.50391 7.0547-2.0156 19.648-10.578 27.711-8.0625 8.0625-21.16 9.5742-28.215 9.5742 0.5-6.5508 2.5156-19.652 10.578-27.711zm-48.367 18.137c-8.0625-8.0625-9.5742-21.16-9.5742-28.215 7.0547 0.50391 19.648 2.0156 27.711 10.578 7.5586 7.5586 9.0703 19.648 9.5742 26.703v1.5117c-6.5508-0.50391-19.648-2.0156-27.711-10.578zm32.75 48.867c19.145 0 34.762 15.113 35.77 34.258l-71.543 0.003906c1.0078-18.641 16.629-34.262 35.773-34.262z"/>
  <path d="m439.8 305.28c0-23.176-19.145-42.32-42.32-42.32s-42.32 19.145-42.32 42.32 19.145 42.32 42.32 42.32 42.32-18.641 42.32-42.32zm-42.32 32.246c-17.633 0-32.242-14.609-32.242-32.242 0-17.633 14.609-32.242 32.242-32.242 17.633 0 32.242 14.609 32.242 32.242 0 18.133-14.105 32.242-32.242 32.242z"/>
  <path d="m402.52 239.29v-23.176c0-3.0234-2.0156-5.0391-5.0391-5.0391-3.0234 0-5.0391 2.0156-5.0391 5.0391v23.176c0 3.0234 2.0156 5.0391 5.0391 5.0391 3.0273-0.003907 5.0391-2.5234 5.0391-5.0391z"/>
  <path d="m430.23 252.89c1.5117 0 3.5273-1.0078 4.5352-2.5195l11.586-20.152c1.5117-2.5195 0.50391-5.543-2.0156-7.0547-2.5195-1.5117-5.543-0.50391-7.0547 2.0156l-11.586 20.152c-1.5117 2.5195-0.50391 5.543 2.0156 7.0547 1.0078 0.50391 2.0156 0.50391 2.5195 0.50391z"/>
  <path d="m456.93 276.06 19.648-11.586c2.5195-1.5117 3.0234-4.5352 2.0156-7.0547-1.5117-2.5195-4.5352-3.0234-7.0547-2.0156l-19.648 11.586c-2.5195 1.5117-3.0234 4.5352-2.0156 7.0547 1.0078 1.5117 2.5195 2.5195 4.5352 2.5195 1.0078 0 2.0156 0 2.5195-0.50391z"/>
  <path d="m491.69 303.77c0-2.5195-2.5195-5.0391-5.0391-5.0391l-23.176 0.50781c-3.0234 0-5.0391 2.5195-5.0391 5.0391 0 2.5195 2.5195 5.0391 5.0391 5.0391l23.176-0.50391c3.0234-0.003906 5.0391-2.0195 5.0391-5.043z"/>
  <path d="m453.4 341.55 20.152 11.082c1.0078 0.50391 1.5117 0.50391 2.5195 0.50391 2.0156 0 3.5273-1.0078 4.5352-2.5195 1.5117-2.5195 0.50391-5.543-2.0156-7.0547l-20.152-11.082c-2.5195-1.5117-5.543-0.50391-7.0547 2.0156-1.5117 2.5234-0.50391 5.5469 2.0156 7.0547z"/>
  <path d="m439.8 383.88c1.0078 1.5117 2.5195 2.5195 4.5352 2.5195 1.0078 0 2.0156 0 2.5195-0.50391 2.5195-1.5117 3.0234-4.5352 1.5117-7.0547l-12.09-19.648c-1.5117-2.5195-4.5352-3.0234-7.0547-1.5117-2.5195 1.5117-3.0234 4.5352-1.5117 7.0547z"/>
  <path d="m400 366.24s-0.50391 0 0 0c-3.0234 0-5.0391 2.5195-5.0391 5.0391l1.0078 23.176c0 2.5195 2.5195 5.0391 5.0391 5.0391 3.0234 0 5.0391-2.5195 5.0391-5.0391l-1.0117-23.176c-0.50391-2.5195-2.5195-5.0391-5.0352-5.0391z"/>
  <path d="m353.65 388.91c0.50391 0.50391 1.5117 0.50391 2.5195 0.50391 2.0156 0 3.5273-1.0078 4.5352-2.5195l10.578-20.152c1.5117-2.5195 0.50391-5.543-2.0156-7.0547-2.5195-1.5117-5.543-0.50391-7.0547 2.0156l-10.578 20.152c-1.5117 2.5195-0.50391 5.543 2.0156 7.0547z"/>
  <path d="m322.41 358.18c1.0078 0 2.0156-0.50391 2.5195-1.0078l19.145-12.594c2.5195-1.5117 3.0234-4.5352 1.5117-7.0547-1.5117-2.5195-4.5352-3.0234-7.0547-1.5117l-19.145 12.594c-2.5195 1.5117-3.0234 4.5352-1.5117 7.0547 1.5156 2.0156 3.0273 2.5195 4.5352 2.5195z"/>
  <path d="m303.27 309.82c0 2.5195 2.5195 5.0391 5.0391 5.0391h0.50391l23.176-1.0078c3.0234 0 5.0391-2.5195 4.5352-5.0391 0-3.0234-2.5195-5.0391-5.0391-4.5352l-23.176 1.0078c-3.0234-0.50391-5.0391 2.0156-5.0391 4.5352z"/>
  <path d="m336.52 280.09c0.50391 0.50391 1.5117 0.50391 2.5195 0.50391 2.0156 0 3.5273-1.0078 4.5352-2.5195 1.0078-2.5195 0.50391-5.543-2.0156-6.5508l-20.656-10.578c-2.5195-1.0078-5.543-0.50391-6.5508 2.0156-1.0078 2.5195-0.50391 5.543 2.0156 6.5508z"/>
  <path d="m361.21 255.41c1.0078 0 2.0156-0.50391 3.0234-1.0078 2.5195-1.5117 3.0234-4.5352 1.5117-7.0547l-12.594-19.145c-1.5117-2.5195-4.5352-3.0234-7.0547-1.5117s-3.0234 4.5352-1.5117 7.0547l12.594 19.145c0.50391 1.5117 2.5195 2.5195 4.0312 2.5195z"/>
 </g>
</svg>