<?xml version="1.0" encoding="UTF-8"?>
<!-- The Best Svg Icon site in the world: iconSvg.co, Visit us! https://iconsvg.co -->
<svg fill="#000000" width="800px" height="800px" version="1.1" viewBox="144 144 512 512" xmlns="http://www.w3.org/2000/svg">
 <g>
  <path d="m384.25 321.28h31.488v15.742h-31.488z"/>
  <path d="m638.25 301.65c-0.90625-5.5195-3.7461-10.539-8.0156-14.152-4.2695-3.6172-9.6836-5.5977-15.277-5.582h-4.8203c-5.5938-0.015625-11.008 1.9648-15.277 5.582-4.2695 3.6133-7.1094 8.6328-8.0156 14.152l-3.4219 20.578c-1.5703 9.4102-2.3594 18.934-2.3633 28.473v2.0625c0 6.2656 2.4883 12.27 6.918 16.699 4.4297 4.4297 10.434 6.918 16.699 6.918v15.742h-26.16l-9.8008-24.52c-1.7422-4.3906-4.7656-8.1523-8.6758-10.801-3.9141-2.6445-8.5312-4.0547-13.254-4.0391h-10.172c-4.7227-0.015625-9.3438 1.3945-13.254 4.043-3.9141 2.6484-6.9375 6.4141-8.6758 10.805l-9.8008 24.512h-18.289v-28.227l2.3047 2.3047 11.133-11.133-47.23-47.23c-0.86719-0.86328-1.918-1.5117-3.0781-1.8945l-47.23-15.742-0.003906-0.003906c-1.6133-0.54297-3.3594-0.54297-4.9727 0l-47.23 15.742-0.003906 0.003906c-1.1562 0.38281-2.2109 1.0312-3.0781 1.8945l-47.23 47.23 11.133 11.133 2.3047-2.3047v28.227h-47.23v-15.742c6.2617 0 12.27-2.4883 16.699-6.918 4.4258-4.4297 6.9141-10.434 6.9141-16.699v-2.0625c0-9.5391-0.79297-19.062-2.3594-28.473l-3.4258-20.578c-0.90625-5.5195-3.7461-10.539-8.0156-14.152-4.2656-3.6172-9.6836-5.5977-15.277-5.582h-4.8164c-5.5938-0.015625-11.012 1.9648-15.281 5.582-4.2656 3.6133-7.1094 8.6328-8.0117 14.152l-3.4258 20.578c-1.5703 9.4102-2.3594 18.934-2.3633 28.473v2.0625c0 6.2656 2.4883 12.27 6.918 16.699 4.4297 4.4297 10.438 6.918 16.699 6.918v15.742h-55.105v-15.742c6.2656 0 12.273-2.4883 16.699-6.918 4.4297-4.4297 6.918-10.434 6.918-16.699v-2.0625c-0.003906-9.5391-0.79297-19.062-2.3594-28.473l-3.4258-20.578c-0.90625-5.5195-3.7461-10.539-8.0156-14.152-4.2656-3.6172-9.6836-5.5977-15.277-5.582h-4.8164c-5.5977-0.015625-11.012 1.9648-15.281 5.582-4.2656 3.6133-7.1094 8.6328-8.0156 14.152l-3.4219 20.578c-1.5703 9.4102-2.3594 18.934-2.3633 28.473v2.0625c0 6.2656 2.4883 12.27 6.918 16.699 4.4297 4.4297 10.438 6.918 16.699 6.918v15.742h-15.746c-4.3477 0-7.8711 3.5273-7.8711 7.875v236.16c0 2.0859 0.83203 4.0898 2.3047 5.5664 1.4766 1.4766 3.4805 2.3047 5.5664 2.3047h472.32c2.0859 0 4.0898-0.82812 5.5664-2.3047 1.4766-1.4766 2.3047-3.4805 2.3047-5.5664v-236.16c0-2.0898-0.82812-4.0898-2.3047-5.5664-1.4766-1.4766-3.4805-2.3086-5.5664-2.3086h-15.746v-15.742c6.2656 0 12.27-2.4883 16.699-6.918 4.4297-4.4297 6.918-10.434 6.918-16.699v-2.0625c-0.003906-9.5391-0.79297-19.062-2.3633-28.473zm-395.69 51.113v-2.0625c0.003906-8.6719 0.71875-17.332 2.1406-25.891l3.4336-20.578c0.63281-3.793 3.9141-6.5703 7.7617-6.5703h4.8164c3.8438 0 7.1289 2.7773 7.7617 6.5703l3.4336 20.578c1.418 8.5586 2.1367 17.219 2.1406 25.891v2.0625c0 2.0898-0.83203 4.0898-2.3047 5.5664-1.4766 1.4766-3.4805 2.3047-5.5664 2.3047h-15.746c-4.3477 0-7.8711-3.5234-7.8711-7.8711zm-70.848 0v-2.0625c0.003906-8.6719 0.71875-17.332 2.1406-25.891l3.4336-20.578c0.63281-3.793 3.9141-6.5703 7.7617-6.5703h4.8164c3.8438 0 7.125 2.7773 7.7617 6.5703l3.4336 20.578c1.418 8.5586 2.1367 17.219 2.1406 25.891v2.0625c0 2.0898-0.83203 4.0898-2.3086 5.5664-1.4766 1.4766-3.4766 2.3047-5.5664 2.3047h-15.742c-4.3477 0-7.8711-3.5234-7.8711-7.8711zm357.59 20.695c1.1836-2.9961 4.082-4.9609 7.3047-4.9492h10.172c3.2148 0 6.1094 1.957 7.3047 4.9414l7.4688 18.672h-39.723zm-145.05 18.664v-23.613h31.488v23.617zm-212.54 75.414 104.42-59.668h9.6055l-114.03 107.69zm0 69.668 136.97-129.34h5.3672l-142.34 203.32zm161.54-129.34h7.1562l-102.86 220.42h-58.582zm24.527 0h8.6602l-51.402 220.42h-60.117zm84.434 0 102.87 220.42h-60.117l-51.426-220.42zm17.375 0h7.1562l154.29 220.42h-58.582zm26.379 0h5.3477l136.98 129.34v73.996zm142.32 107.69-114.03-107.69h9.6055l104.42 59.668zm-299.14-167.41 27.867-27.867 42.984-14.324 42.98 14.328 27.867 27.863v43.973h-39.359v-31.488c0-2.0859-0.83203-4.0898-2.3086-5.5664-1.4766-1.4727-3.4766-2.3047-5.5664-2.3047h-47.23c-4.3477 0-7.8711 3.5234-7.8711 7.8711v31.488h-39.363zm-84.742 59.719-72.695 41.539v-41.539zm86.789 220.42 51.43-220.42h9.5v220.42zm76.676-220.42h9.5l51.43 220.42h-60.93zm220.42 41.539-72.699-41.539h72.699zm0-96.645c0 2.0898-0.83203 4.0898-2.3086 5.5664-1.4766 1.4766-3.4766 2.3047-5.5664 2.3047h-15.742c-4.3477 0-7.8711-3.5234-7.8711-7.8711v-2.0625c0.003907-8.6719 0.71875-17.332 2.1406-25.891l3.4336-20.578h-0.003906c0.63672-3.793 3.918-6.5703 7.7617-6.5703h4.8203c3.8438 0 7.125 2.7773 7.7617 6.5703l3.4336 20.578h-0.003907c1.4219 8.5586 2.1367 17.219 2.1445 25.891z"/>
  <path d="m470.85 234.69c0 10.438 4.1445 20.449 11.527 27.832 7.3828 7.3789 17.395 11.527 27.832 11.527s20.449-4.1484 27.832-11.527c7.3828-7.3828 11.527-17.395 11.527-27.832 0-10.441-4.1445-20.453-11.527-27.832-7.3828-7.3828-17.395-11.531-27.832-11.531-10.434 0.015625-20.438 4.1641-27.816 11.543-7.3789 7.3789-11.531 17.383-11.543 27.82zm39.359-23.617c6.2617 0 12.27 2.4883 16.699 6.918 4.4297 4.4258 6.918 10.434 6.918 16.699 0 6.2617-2.4883 12.27-6.918 16.699-4.4297 4.4258-10.438 6.9141-16.699 6.9141s-12.27-2.4883-16.699-6.9141c-4.4297-4.4297-6.918-10.438-6.918-16.699 0-6.2656 2.4883-12.273 6.918-16.699 4.4297-4.4297 10.438-6.918 16.699-6.918z"/>
  <path d="m439.36 226.81h23.617v15.742h-23.617z"/>
  <path d="m502.27 163.86 15.742-0.046875 0.070312 23.617-15.742 0.046875z"/>
  <path d="m502.27 305.51 0.070313-23.617 15.742 0.046875-0.070313 23.617z"/>
  <path d="m536.13 197.63 15.742-15.742 11.133 11.133-15.742 15.742z"/>
  <path d="m457.41 193.02 11.133-11.133 15.742 15.742-11.133 11.133z"/>
  <path d="m536.13 271.74 11.137-11.129 15.738 15.746-11.137 11.129z"/>
  <path d="m457.41 276.35 15.742-15.742 11.133 11.133-15.742 15.742z"/>
  <path d="m557.44 226.81h23.617v15.742h-23.617z"/>
 </g>
</svg>