<?xml version="1.0" encoding="UTF-8"?>
<!-- The Best Svg Icon site in the world: iconSvg.co, Visit us! https://iconsvg.co -->
<svg fill="#000000" width="800px" height="800px" version="1.1" viewBox="144 144 512 512" xmlns="http://www.w3.org/2000/svg">
 <g>
  <path d="m596.48 263.13h-14.016v-49.375c0-8.4258-6.8555-15.281-15.285-15.281h-39.375c-8.4297 0-15.281 6.8555-15.281 15.281v49.375h-28.398v-49.375c0-8.4258-6.8516-15.281-15.273-15.281h-39.375c-8.4297 0-15.281 6.8555-15.281 15.281v49.375h-28.398v-49.375c0-8.4258-6.8555-15.281-15.281-15.281h-39.375c-8.4219 0-15.277 6.8555-15.277 15.281v49.375h-28.398v-49.375c0-8.4258-6.8555-15.281-15.281-15.281h-39.375c-8.4297 0-15.281 6.8555-15.281 15.281v49.375h-14.02c-2.7852 0-5.0391 2.2539-5.0391 5.0391v59.859c0 2.7812 2.2539 5.0391 5.0391 5.0391h14.016v103.09l-14.016-0.003906c-2.7852 0-5.0391 2.2539-5.0391 5.0391v59.859c0 2.7812 2.2539 5.0391 5.0391 5.0391h14.016v80.152c0.003906 8.4219 6.8555 15.277 15.277 15.277h39.383c8.4219 0 15.277-6.8555 15.277-15.277l0.003906-80.152h28.398v80.152c0 8.4219 6.8477 15.277 15.273 15.277h39.383c8.4219 0 15.277-6.8555 15.277-15.277v-80.152h28.398v80.152c0 8.4219 6.8516 15.277 15.273 15.277h39.383c8.4219 0 15.273-6.8555 15.273-15.277v-80.152h28.398v80.152c0 8.4219 6.8555 15.277 15.277 15.277h39.383c8.4219 0 15.277-6.8555 15.277-15.277l0.003906-80.152h14.016c2.7852 0 5.0391-2.2539 5.0391-5.0391v-59.859c0-2.7812-2.2539-5.0391-5.0391-5.0391h-14.016v-103.09h14.016c2.7852 0 5.0391-2.2539 5.0391-5.0391v-59.859c0-2.7812-2.2539-5.0352-5.0391-5.0352zm-73.879-49.375c0-2.8711 2.3359-5.207 5.207-5.207h39.375c2.8672 0 5.207 2.3359 5.207 5.207v49.375h-49.785zm-98.332 0c0-2.8711 2.3359-5.207 5.207-5.207h39.375c2.8672 0 5.1992 2.3359 5.1992 5.207v49.375h-49.781zm-98.332 0c0-2.8711 2.332-5.207 5.2031-5.207h39.375c2.8672 0 5.207 2.3359 5.207 5.207v49.375h-49.781zm-98.336 0c0-2.8711 2.3359-5.207 5.207-5.207h39.375c2.8672 0 5.207 2.3359 5.207 5.207v49.375h-49.785zm49.785 372.49c0 2.8672-2.332 5.1992-5.1992 5.1992h-39.383c-2.8672 0-5.1992-2.332-5.1992-5.1992l-0.003906-80.152h49.785zm98.332 0c0 2.8672-2.332 5.1992-5.1992 5.1992h-39.383c-2.8633 0-5.1953-2.332-5.1953-5.1992l-0.003906-80.152h49.781zm98.332 0c0 2.8672-2.332 5.1992-5.1953 5.1992h-39.383c-2.8672 0-5.1992-2.332-5.1992-5.1992l-0.003906-80.152h49.781zm98.336 0c0 2.8672-2.332 5.1992-5.1992 5.1992h-39.383c-2.8672 0-5.1992-2.332-5.1992-5.1992l-0.003906-80.152h49.785zm19.055-140.01v49.781h-382.89v-49.781zm-363.84-10.078v-103.09h49.785v103.09zm59.863 0v-103.09h28.398v103.09zm38.473 0v-103.09h49.781v103.09zm59.859 0v-103.09h28.398v103.09zm38.473 0v-103.09h49.781v103.09zm59.855 0v-103.09h28.398v103.09zm38.477 0v-103.09h49.785v103.09zm68.84-113.16h-382.89v-49.781h382.89z"/>
  <path d="m539.73 303.14h15.531c2.7852 0 5.0391-2.2539 5.0391-5.0391 0-2.7812-2.2539-5.0391-5.0391-5.0391h-15.531c-2.7852 0-5.0391 2.2539-5.0391 5.0391 0.003906 2.7812 2.2539 5.0391 5.0391 5.0391z"/>
  <path d="m539.73 476.16h15.531c2.7852 0 5.0391-2.2539 5.0391-5.0391 0-2.7812-2.2539-5.0391-5.0391-5.0391h-15.531c-2.7852 0-5.0391 2.2539-5.0391 5.0391 0.003906 2.7812 2.2539 5.0391 5.0391 5.0391z"/>
  <path d="m441.4 303.14h15.531c2.7852 0 5.0391-2.2539 5.0391-5.0391 0-2.7812-2.2539-5.0391-5.0391-5.0391h-15.531c-2.7852 0-5.0391 2.2539-5.0391 5.0391 0 2.7812 2.2539 5.0391 5.0391 5.0391z"/>
  <path d="m441.4 476.16h15.531c2.7852 0 5.0391-2.2539 5.0391-5.0391 0-2.7812-2.2539-5.0391-5.0391-5.0391h-15.531c-2.7852 0-5.0391 2.2539-5.0391 5.0391 0 2.7812 2.2539 5.0391 5.0391 5.0391z"/>
  <path d="m343.06 303.14h15.531c2.7852 0 5.0391-2.2539 5.0391-5.0391 0-2.7812-2.2539-5.0391-5.0391-5.0391h-15.531c-2.7852 0-5.0391 2.2539-5.0391 5.0391 0.003906 2.7812 2.2578 5.0391 5.0391 5.0391z"/>
  <path d="m343.06 476.16h15.531c2.7852 0 5.0391-2.2539 5.0391-5.0391 0-2.7812-2.2539-5.0391-5.0391-5.0391h-15.531c-2.7852 0-5.0391 2.2539-5.0391 5.0391 0.003906 2.7812 2.2578 5.0391 5.0391 5.0391z"/>
  <path d="m244.73 303.14h15.531c2.7852 0 5.0391-2.2539 5.0391-5.0391 0-2.7812-2.2539-5.0391-5.0391-5.0391h-15.531c-2.7852 0-5.0391 2.2539-5.0391 5.0391 0 2.7812 2.2539 5.0391 5.0391 5.0391z"/>
  <path d="m244.73 476.16h15.531c2.7852 0 5.0391-2.2539 5.0391-5.0391 0-2.7812-2.2539-5.0391-5.0391-5.0391h-15.531c-2.7852 0-5.0391 2.2539-5.0391 5.0391 0 2.7812 2.2539 5.0391 5.0391 5.0391z"/>
 </g>
</svg>