<?xml version="1.0" encoding="UTF-8"?>
<!-- The Best Svg Icon site in the world: iconSvg.co, Visit us! https://iconsvg.co -->
<svg fill="#000000" width="800px" height="800px" version="1.1" viewBox="144 144 512 512" xmlns="http://www.w3.org/2000/svg">
 <g>
  <path d="m436.27 390.93h25.695v18.641l-10.578 146.61c-0.50391 10.578 3.0234 20.656 9.5742 28.215 6.5508 7.0547 14.609 10.578 23.68 10.578h5.543c9.0703 0 17.633-3.5273 23.68-10.578 7.0547-7.5586 10.578-17.633 9.5742-28.215l-10.578-146.61v-18.641h25.695c9.5742 0 17.129-7.5586 17.129-17.129l-0.011719-74.562c0-25.191-7.5586-49.879-21.664-69.023-11.586-16.121-26.703-27.711-44.84-35.266-1.0078-0.50391-2.5195-0.50391-4.0312 0-18.137 7.0547-33.25 19.145-44.84 35.266-14.105 19.145-21.664 43.832-21.664 69.023v75.066c0.50781 9.0664 8.0625 16.625 17.637 16.625zm70.531 186.91c-4.5352 4.5352-10.078 7.5586-16.625 7.5586h-5.543c-6.0469 0-12.09-2.5195-16.625-7.5586-5.0391-5.543-7.5586-12.594-7.0547-20.656l10.078-142.07h32.242l10.078 142.07c1.0078 7.5586-1.5117 15.113-6.5508 20.656zm-3.5234-173.31h-31.234v-13.602h31.234zm23.172-168.27c12.598 17.129 19.648 39.801 19.648 62.977v75.066c0 4.0312-3.0234 7.0547-7.0547 7.0547h-46.352l0.003907-173.82c13.098 6.5508 24.184 16.121 33.754 28.719zm-97.234 62.977c0-23.176 7.0547-45.344 19.648-62.977 9.0703-12.594 20.152-22.168 33.754-28.719v173.31h-46.352c-4.0312 0-7.0547-3.0234-7.0547-7.0547z"/>
  <path d="m265.98 390.93h25.695v18.641l-10.578 146.61c-0.50391 10.578 3.0234 20.656 9.5742 28.215 6.5508 7.0547 14.609 10.578 23.68 10.578h5.543c9.0703 0 17.633-3.5273 23.68-10.578 7.0547-7.5586 10.578-17.633 9.5742-28.215l-10.578-146.61v-18.641h25.695c9.5742 0 17.129-7.5586 17.129-17.129l-0.011719-160.21c0-3.0234-2.0156-5.0391-5.0391-5.0391-3.0234 0-5.0391 2.0156-5.0391 5.0391v118.39h-28.719l0.003906-118.39c0-3.0234-2.0156-5.0391-5.0391-5.0391-3.0234 0-5.0391 2.0156-5.0391 5.0391v118.39h-35.266v-118.39c0-3.0234-2.0156-5.0391-5.0391-5.0391-3.0234 0-5.0391 2.0156-5.0391 5.0391v118.39h-32.238v-118.39c0-3.0234-2.0156-5.0391-5.0391-5.0391-3.0234 0-5.0391 2.0156-5.0391 5.0391v160.21c0 9.5703 7.5586 17.129 17.129 17.129zm70.535 186.91c-4.5352 4.5352-10.078 7.5586-16.625 7.5586h-5.543c-6.0469 0-12.09-2.5195-16.625-7.5586-5.0391-5.543-7.5586-12.594-7.0547-20.656l10.078-142.07h32.242l10.078 142.07c1.0039 7.5586-1.5156 15.113-6.5508 20.656zm-3.5273-173.31h-31.234v-13.602h31.234zm42.824-62.473v31.738c0 4.0312-3.0234 7.0547-7.0547 7.0547l-102.78 0.003907c-4.0312 0-7.0547-3.0234-7.0547-7.0547v-31.738z"/>
 </g>
</svg>