<?xml version="1.0" encoding="UTF-8"?>
<!-- The Best Svg Icon site in the world: iconSvg.co, Visit us! https://iconsvg.co -->
<svg fill="#000000" width="800px" height="800px" version="1.1" viewBox="144 144 512 512" xmlns="http://www.w3.org/2000/svg">
 <path d="m258.19 440.1 11.723 98.062h-18.141l-14.82-77.113zm353.44-152.72 15.078-25.551-26.199 16.898c-4.4102 2.8477-9.5469 4.3594-14.793 4.3594h-24.703l-5.1523-7.082h-46.055l-7.082 7.082h-14.172l-70.852 28.449-153.11-0.097656c-17.625-0.011718-34.406 7.0703-46.699 19.469h-7.4219c-20.5 0-37.184 16.688-37.184 37.195v88.691h14.172v-88.691c0-11.527 8.5234-21.078 19.598-22.742-7.9805 14.43-10.328 31.477-6.2578 47.758l7.9141 17.496-10.625 35.422 3.543 92.102 18.066 0.015625-0.35156-74.664 39.066-38.52 71.395 21.035 44.004 0.035157h72.387l17.91 92.102 17.938 0.019531-11.027-92.238 49.438-63.645h21.254l28.34-7.082h28.34l7.418-11.125c4.0625-6.0859 3.8945-14.062-0.40625-19.98l-31.484-43.289h14.227c9.6445 0 18.582-5.1055 23.492-13.422zm-199.23 250.76h17.914l3.1094-81.477h-24.137z"/>
</svg>