<?xml version="1.0" encoding="UTF-8"?>
<!-- The Best Svg Icon site in the world: iconSvg.co, Visit us! https://iconsvg.co -->
<svg fill="#000000" width="800px" height="800px" version="1.1" viewBox="144 144 512 512" xmlns="http://www.w3.org/2000/svg">
 <g>
  <path d="m596.48 425.19h-4.3594c-1.3633-18.273-11.242-34.234-25.766-43.91 17.492-17.711 11.598-44.82 11.34-45.973-0.39453-1.7227-1.6641-3.1133-3.3398-3.6719-0.92188-0.30078-21.707-6.9023-40.379 6.2422-17.215-11.273-38.746-6.5898-39.711-6.3711-1.7266 0.39453-3.1211 1.6562-3.6719 3.3359-0.35547 1.0742-8.3672 26.359 10.977 46.184-11.098 7.2617-19.566 18.141-23.668 30.949-4.0508-12.652-12.352-23.438-23.246-30.699 17.492-17.711 11.598-44.82 11.34-45.973-0.39453-1.7227-1.6641-3.1133-3.3398-3.6719-0.92188-0.30078-21.707-6.9023-40.379 6.2422-17.215-11.273-38.75-6.5898-39.711-6.3711-1.7266 0.39453-3.1211 1.6562-3.6719 3.3359-0.35547 1.0742-8.3672 26.359 10.977 46.184-14.742 9.6562-24.809 25.723-26.184 44.168h-14.32v-107.67h79.129c2.7852 0 5.0391-2.2539 5.0391-5.0391v-108.96c0-2.7852-2.2539-5.0391-5.0391-5.0391l-168.33 0.003906c-2.7852 0-5.0391 2.2539-5.0391 5.0391v108.96c0 2.7852 2.2539 5.0391 5.0391 5.0391h79.129v107.67h-14.691c-1.3633-18.273-11.242-34.234-25.766-43.91 17.488-17.711 11.598-44.82 11.34-45.969-0.39453-1.7266-1.6641-3.1211-3.3398-3.6758-0.92578-0.30078-21.707-6.9023-40.379 6.2422-17.215-11.273-38.75-6.5898-39.711-6.3711-1.7266 0.39453-3.1211 1.6562-3.6719 3.3359-0.35547 1.0742-8.3672 26.359 10.977 46.184-14.746 9.6523-24.809 25.719-26.184 44.164h-4.3594c-2.7852 0-5.0391 2.2539-5.0391 5.0391v63.188c0 2.7852 2.2539 5.0391 5.0391 5.0391h11.191v29.805h-11.191c-2.7852 0-5.0391 2.2539-5.0391 5.0391l0.003906 63.188c0 2.7852 2.2539 5.0391 5.0391 5.0391h392.97c2.7852 0 5.0391-2.2539 5.0391-5.0391l-0.003906-63.188c0-2.7852-2.2539-5.0391-5.0391-5.0391h-10.965v-29.805h10.965c2.7852 0 5.0391-2.2539 5.0391-5.0391v-63.188c0-2.7852-2.2539-5.0391-5.0391-5.0391zm-331.28-216.64h158.26v98.887h-158.26zm243.88 165.76c-12.164-12.172-10.84-27.242-9.6133-33.457 6.1641-0.77344 20.719-1.4414 31.434 7.2344 1.875 1.5195 4.5742 1.4844 6.4141-0.0625 11.672-9.8398 25.211-8.6406 31.027-7.5195 0.81641 6.6719 1.5039 23.039-9.2539 33.809-0.625 0.625-1.4062 1.2148-2.2852 1.8086-7.0781-3.0117-14.863-4.6953-23.043-4.6953-8.0312 0-15.688 1.6133-22.66 4.5273-0.77344-0.54297-1.4609-1.0781-2.0195-1.6445zm24.676 7.1914c25.281 0 46.078 19.238 48.289 43.684h-96.578c2.2109-24.445 23.008-43.684 48.289-43.684zm-136.38-7.1914c-12.164-12.172-10.84-27.242-9.6133-33.457 6.1602-0.77344 20.723-1.4414 31.434 7.2344 1.8789 1.5195 4.5742 1.4844 6.4141-0.0625 11.672-9.8398 25.211-8.6406 31.027-7.5195 0.81641 6.6719 1.5039 23.039-9.2539 33.809-0.625 0.625-1.4062 1.2148-2.2852 1.8086-7.0781-3.0117-14.863-4.6953-23.043-4.6953-8.0312 0-15.688 1.6133-22.66 4.5273-0.77344-0.54297-1.4609-1.0781-2.0195-1.6445zm24.676 7.1914c25.281 0 46.078 19.238 48.289 43.684h-96.578c2.2109-24.445 23.008-43.684 48.289-43.684zm-180.5-7.1914c-12.164-12.172-10.84-27.242-9.6133-33.457 6.1641-0.77344 20.719-1.4414 31.434 7.2344 1.875 1.5195 4.5742 1.4844 6.4141-0.0625 11.672-9.8398 25.215-8.6406 31.027-7.5195 0.81641 6.6719 1.5 23.035-9.25 33.805-0.62891 0.62891-1.4102 1.2188-2.2891 1.8125-7.0781-3.0117-14.863-4.6953-23.043-4.6953-8.0312 0-15.688 1.6133-22.66 4.5273-0.76953-0.54297-1.4609-1.0781-2.0195-1.6445zm24.68 7.1914c25.281 0 46.078 19.238 48.289 43.684h-96.582c2.2109-24.445 23.012-43.684 48.293-43.684zm325.21 209.94h-382.89v-53.109h382.89zm-16.004-63.188h-350.66v-29.805h350.66zm16.004-39.883h-382.89v-53.109h382.89z"/>
  <path d="m303.66 246.05h81.336c2.7852 0 5.0391-2.2539 5.0391-5.0391 0-2.7852-2.2539-5.0391-5.0391-5.0391l-81.336 0.003906c-2.7852 0-5.0391 2.2539-5.0391 5.0391 0 2.7812 2.2539 5.0352 5.0391 5.0352z"/>
  <path d="m390.04 274.98c0-2.7852-2.2539-5.0391-5.0391-5.0391h-81.336c-2.7852 0-5.0391 2.2539-5.0391 5.0391 0 2.7852 2.2539 5.0391 5.0391 5.0391h81.336c2.7852 0 5.0391-2.2539 5.0391-5.0391z"/>
 </g>
</svg>