<?xml version="1.0" encoding="UTF-8"?>
<!-- The Best Svg Icon site in the world: iconSvg.co, Visit us! https://iconsvg.co -->
<svg fill="#000000" width="800px" height="800px" version="1.1" viewBox="144 144 512 512" xmlns="http://www.w3.org/2000/svg">
 <path d="m362.07 181.77h-24.281c-5.5586 0-10.078 4.5195-10.078 10.078v23.066l-111.74-0.003906v-23.066c0-5.5586-4.5195-10.078-10.078-10.078l-24.281 0.003906c-5.5586 0-10.078 4.5195-10.078 10.078l0.003906 409.99c0 5.5547 4.5195 10.078 10.078 10.078h24.281c5.5586 0 10.078-4.5234 10.078-10.078v-23.066h111.75l-0.007812 23.066c0 5.5547 4.5195 10.078 10.078 10.078h24.281c5.5547 0 10.078-4.5234 10.078-10.078l-0.003906-409.99c0-5.5586-4.5234-10.078-10.078-10.078zm-156.18 420.07h-24.281v-409.99h24.281zm121.82-33.141h-111.75v-21.273h111.75zm0-31.352h-111.75v-39.18h111.75zm0-49.258h-111.75v-21.273h111.75zm0-31.352h-111.75v-39.18h111.75zm0-49.258h-111.75v-21.273h111.75zm0-31.352h-111.75v-39.184h111.75zm0-49.262h-111.75v-21.273h111.75zm0-31.348h-111.75v-39.184h111.75zm0-49.262h-111.75v-21.273h111.75zm34.355 355.58h-24.281l0.003906-409.99h24.281zm266.32 4.7656-29.59-271.33c-0.58203-5.3359-5.0664-9.3594-10.434-9.3594h-23.793c-2.8594 0-5.5938 1.2188-7.5 3.3477-1.9102 2.1289-2.8281 4.9805-2.5195 7.8203l0.42188 3.8516h-74.312l0.42188-3.8516c0.30859-2.8438-0.60547-5.6914-2.5156-7.8203-1.9102-2.1289-4.6445-3.3477-7.5039-3.3477l-24.172-0.003906c-5.1445 0-9.457 3.8594-10.016 8.9844l-29.676 272.17c-0.30859 2.8438 0.60547 5.6914 2.5156 7.8242 1.9102 2.125 4.6445 3.3438 7.5039 3.3438h24.168c5.1523 0 9.457-3.8633 10.016-8.9844l3.2617-29.895h126.32l3.2188 29.523c0.58594 5.332 5.0742 9.3516 10.434 9.3516h23.332c2.9766 0 5.8242-1.2734 7.8125-3.4883 1.9805-2.2148 2.9375-5.1797 2.6094-8.1367zm-148.83-255.6h76.512l2.375 21.793h-81.262zm-3.4766 31.871h83.465l6.1367 56.293h-95.742zm-9.6133 88.164 2.3789-21.797h97.938l2.375 21.797zm103.79 10.074 6.1367 56.293-117.17 0.003906 6.1406-56.293zm-128.88 127.04h-24.168l29.676-272.17h24.172zm14.375-38.879 2.375-21.789h119.37l2.375 21.789zm162.2 38.879h-23.332c-0.21484 0-0.39453-0.16406-0.41797-0.375l-29.637-271.8h23.793c0.21094 0 0.39453 0.16406 0.41797 0.37109v0.003906l29.59 271.33z"/>
</svg>