<?xml version="1.0" encoding="UTF-8"?>
<!-- The Best Svg Icon site in the world: iconSvg.co, Visit us! https://iconsvg.co -->
<svg fill="#000000" width="800px" height="800px" version="1.1" viewBox="144 144 512 512" xmlns="http://www.w3.org/2000/svg">
 <path d="m504.7 444.51v-58.824c0-2.7812-2.2539-5.0391-5.0391-5.0391h-6.8594c-0.80469-7.1836-4.7227-13.184-10.652-16.754 0.99219-0.75 2.2188-1.4492 3.8008-1.9219 2.0039-0.59375 3.1445-2.6953 2.5469-4.6992-0.59375-1.9961-2.6953-3.1328-4.6953-2.5469-4.5742 1.3555-7.543 3.9336-9.3828 6.1758-0.0625-0.011719-0.12109-0.039063-0.18359-0.050782l-0.20703-0.43359c-5.4062-11.352-13.297-20.875-22.785-27.793-0.14062-5.4336-4.5859-9.8164-10.051-9.8164h-13.27c-1.5 0-2.9141 0.35156-4.1953 0.94531l0.003906-7.8086c1.6094-1.0195 3.1758-2.1211 4.6953-3.3203h23.191c8.1914 0 15.016-6.2148 15.539-14.145l1.6719-25.266c0.21484-0.48438 0.46875-0.94141 0.65625-1.4492 1.8359-4.9531 1.8984-10.207 0.42188-14.836l1.9062-28.781c0-33.031-29.219-59.902-65.141-59.902h-13.352c-35.914 0-65.133 26.871-65.125 60.234l1.8867 28.465c-1.4766 4.6211-1.4062 9.8672 0.42578 14.816 0.1875 0.50391 0.4375 0.95703 0.65234 1.4414l1.6758 25.273c0.52734 7.9297 7.3516 14.145 15.543 14.145h23.191c1.5156 1.1992 3.082 2.3008 4.6914 3.3203v7.8086c-1.2812-0.59375-2.6953-0.94531-4.1992-0.94531h-13.27c-5.4688 0-9.9102 4.3828-10.051 9.8164-9.4844 6.9102-17.379 16.438-22.785 27.789l-0.14453 0.30078c-4.6445-4.5273-11.391-4.3828-14.867-3.4102-2.0078 0.5625-3.1797 2.6484-2.6172 4.6602 0.56641 2.0117 2.6484 3.1875 4.6602 2.6172 0.16797-0.046875 2.832-0.73047 5.3477 0.14844-5.2344 3.6328-8.6758 9.2539-9.4219 15.918h-8.582c-2.7812 0-5.0391 2.2539-5.0391 5.0391v58.824c-4.9727 3.6719-8.2422 9.5273-8.2422 16.172v12.172c0 5.5547 4.5195 10.078 10.078 10.078h29.406c3.1641 0 5.957-1.4961 7.8086-3.7852l-0.27734 3.9414v76.109c-1.793 1.8203-2.9062 4.3125-2.9062 7.0625v24.59c-10.668 3.7305-18.352 13.867-18.352 25.793 0 8.3359 6.7812 15.113 15.113 15.113h63.551c2.7852 0 5.0391-2.2539 5.0391-5.0391v-60.457c0-1.8359-0.53125-3.5352-1.3945-5.0195l2.6406-65.02c0.054687-1.3086 1.0391-2.3359 2.2422-2.3359 1.207 0 2.1875 1.0273 2.2422 2.3438l2.6445 65.004c-0.86719 1.4883-1.3984 3.1914-1.3984 5.0312v60.457c0 2.7852 2.2539 5.0391 5.0391 5.0391h63.551c8.3359 0 15.113-6.7812 15.113-15.113 0-11.922-7.6836-22.062-18.352-25.793v-24.59c0-2.7539-1.1172-5.25-2.9141-7.0703l-0.007813-76.457-0.25391-3.5742c1.8477 2.2812 4.6367 3.7734 7.7969 3.7734h29.406c5.5547 0 10.078-4.5234 10.078-10.078v-12.172c-0.003907-6.6484-3.2734-12.5-8.2461-16.172zm-21.977-63.863h-27.707c1.2266-6.0859 6.6719-10.277 13.855-10.277 7.1797 0 12.625 4.1914 13.852 10.277zm-31.449-34.879c4.5352 4.3359 8.4883 9.4648 11.691 15.234-4.5664 1.0156-8.5586 3.1562-11.629 6.1836-0.019532-0.011719-0.042969-0.019532-0.0625-0.03125zm-23.344-12.883h13.27l0.003906 30.871c-1.3672-0.19141-2.7344-0.38672-4.1758-0.38672-3.2383 0-6.2578 0.60156-9.0977 1.5234zm9.0938 40.559c3.3828 0 6.4141 0.85547 9 2.2852-0.53906 1.5625-0.89453 3.2031-1.0859 4.918h-22.445c3.0352-4.4453 8.2461-7.2031 14.531-7.2031zm20.074-75.629c-0.17187 2.6562-2.582 4.7344-5.4805 4.7344h-13.109c4.0117-4.9609 7.4414-10.547 10.199-16.516 0.67187 0.085938 1.3438 0.17188 2.0195 0.17188 2.4727 0 4.9297-0.62891 7.2539-1.6953zm2.9375-29.547v0.003906c-1.4336 3.875-4.3711 6.6797-7.3828 7.543 2.0977-6.7109 3.332-13.629 3.5977-20.457 0.0625 0.019531 0.12891 0.011719 0.19141 0.035156 1.9219 0.69922 2.9922 2.2812 3.5469 3.4844 1.2305 2.6484 1.2422 6.1602 0.046874 9.3906zm-66.719-89.941h13.352c30.363 0 55.066 22.352 55.074 49.492l-1.2227 18.414c-0.21484-0.089844-0.40625-0.22266-0.625-0.30469-1.3125-0.48047-2.6562-0.72266-4.0078-0.83594-0.14844-1.3203-0.28516-2.6367-0.51172-3.9648-0.76562-4.5039-4.4922-7.8477-9.0625-8.1289-18.895-1.1602-46.129-9.0625-57.199-19.805-1.8594-1.8047-4.4219-2.7383-7.0586-2.6406-2.6797 0.13281-5.2109 1.3828-6.9414 3.4258-7.2227 8.543-13.504 14.32-24.242 18.602-3.1445 1.2539-5.3906 3.9219-6.0039 7.1328-0.34375 1.8008-0.57422 3.5938-0.77344 5.3789-1.3477 0.11328-2.6914 0.35938-4.0039 0.83594-0.22266 0.082031-0.41406 0.21484-0.62891 0.30859l-1.2031-18.082c0-27.477 24.699-49.828 55.059-49.828zm-53.32 80.555c0.55859-1.207 1.625-2.7891 3.5469-3.4883 0.0625-0.023437 0.13281-0.011719 0.19531-0.035156 0.26953 6.8281 1.5 13.75 3.6016 20.461-3.0117-0.86328-5.9531-3.6719-7.3867-7.5508-1.1953-3.2305-1.1797-6.7383 0.042969-9.3867zm8.3789 43.668c-2.8984 0-5.3125-2.0781-5.4844-4.7344l-0.88281-13.305c2.3242 1.0664 4.7812 1.6953 7.2578 1.6953 0.67578 0 1.3477-0.085937 2.0234-0.17188 2.7578 5.9727 6.1875 11.559 10.199 16.52zm5.3203-49.957c0-3.5703 0.36328-7.2656 0.91016-10.652 12.48-4.9727 19.977-11.777 27.914-21.113 13.059 12.254 42.07 20.883 62.965 22.215 0.54297 3.2539 0.81641 6.4648 0.81641 9.5508 0 27.977-20.227 60.5-46.301 60.5-26.078-0.003906-46.305-32.523-46.305-60.5zm44.645 107.7c-6.3789 0-11.969 2.1836-16.203 5.75v-28.57c11.82 1.7812 23.832 1.7891 35.715 0.011719v29.328h-2.3242c-4.3203-4.0703-10.332-6.5195-17.188-6.5195zm13.449 19.043c-0.18359 0.42187-0.30078 0.875-0.46094 1.3086h-26.84c1.2266-6.0859 6.6719-10.277 13.852-10.277 6.6406 0 11.742 3.6133 13.449 8.9688zm-25.453-51.465v-7.0898c4.3516 1.4883 8.9062 2.3828 13.664 2.3828 4.7578 0 9.3086-0.89453 13.656-2.3789v7.0859c-9.0781 1.1367-18.246 1.1367-27.32 0zm-27.543 5.0117h13.27l0.007813 29.809c-2.9062-1.1172-6.043-1.75-9.3672-1.75-1.3359 0-2.6328 0.13281-3.9102 0.32031zm3.9062 38.133c4.9336 0 9.2539 2.2539 12.402 5.9727-0.33203 1.1797-0.55078 2.3945-0.69531 3.6562h-17.641c-0.29297-2.6289-0.96875-5.1016-2.0625-7.3516 2.3906-1.4141 5.0703-2.2773 7.9961-2.2773zm-13.984-25.25v19.25c-0.17969 0.11719-0.35547 0.24219-0.53125 0.35938-3.0898-2.3633-6.7969-4.0234-10.992-4.6914 3.1719-5.6445 7.0703-10.66 11.523-14.918zm-15.875 24.602c7.1797 0 12.625 4.1875 13.852 10.277h-27.703c1.2266-6.0859 6.6719-10.277 13.852-10.277zm-27.473 20.352h189.25v19.258l-189.25 0.003907zm-8.2422 82.129v-12.172c0-5.5547 4.5195-10.078 10.078-10.078h9.2539c5.5586 0 10.078 4.5234 10.078 10.078l0.003907 12.172zm89.301 148.82h-58.508c-2.7773 0-5.0391-2.2578-5.0391-5.0391 0-9.5195 7.7422-17.266 17.262-17.266h29.023c9.5195 0 17.266 7.7422 17.266 17.266zm0-26.215c-4.7109-3.8477-10.723-6.1641-17.266-6.1641h-27.934v-23.039h45.199zm13.57-111.66c-6.6328 0-12.039 5.2734-12.309 12.004l-2.4531 60.375h-41.105l-0.007812-72.742 0.375-5.3242h111l0.35156 4.9688v73.098h-41.094l-2.4492-60.371c-0.27344-6.7344-5.6797-12.008-12.312-12.008zm58.766 82.453v23.039h-27.938c-6.543 0-12.555 2.3164-17.266 6.1641v-29.203zm18.352 50.383c0 2.7812-2.2578 5.0391-5.0391 5.0391l-58.512-0.003906v-5.0391c0-9.5195 7.7422-17.266 17.266-17.266h29.023c9.5195 0.003906 17.262 7.7461 17.262 17.27zm-13.73-155.96v7.3594h-126.77v-7.3594c0-3.8164-1.125-7.3477-2.9727-10.391h132.72c-1.8516 3.043-2.9766 6.5742-2.9766 10.391zm-158.02-20.469v-20.152h189.25v20.152zm168.09 32.641v-12.172c0-5.5547 4.5234-10.078 10.078-10.078h9.2539c5.5547 0 10.078 4.5234 10.078 10.078l0.003906 12.172zm-73.461-177.21c-8.1445 0-14.277-4.1836-14.277-9.7227 0-2.3633 1.9141-4.2812 4.2812-4.2812 2.2305 0 4.0625 1.7031 4.2656 3.8828 0.11328 0.10938 0.32422 0.25391 0.57422 0.39844 0.89062 0.52344 2.6133 1.1602 5.1562 1.1602 2.5391 0 4.2617-0.63672 5.1523-1.1602 0.25-0.14844 0.46484-0.28906 0.57812-0.40234 0.20312-2.1758 2.0352-3.8828 4.2656-3.8828 2.3672 0 4.2812 1.918 4.2812 4.2812 0 5.543-6.1328 9.7266-14.277 9.7266zm-16.723-36.09c0 4.6055-2.9648 8.082-6.9023 8.082-3.9336 0-6.9023-3.4766-6.9023-8.082s2.9688-8.0781 6.9023-8.0781c3.9336-0.003906 6.9023 3.4688 6.9023 8.0781zm33.445 0c0-4.6055 2.9648-8.0781 6.9023-8.0781 3.9336 0 6.9023 3.4727 6.9023 8.0781s-2.9688 8.082-6.9023 8.082c-3.9375 0-6.9023-3.4766-6.9023-8.082z"/>
</svg>