<?xml version="1.0" encoding="UTF-8"?>
<!-- The Best Svg Icon site in the world: iconSvg.co, Visit us! https://iconsvg.co -->
<svg fill="#000000" width="800px" height="800px" version="1.1" viewBox="144 144 512 512" xmlns="http://www.w3.org/2000/svg">
 <path d="m511.94 456.33-101.94-14.613 13.051-259.78v0.003906c0.10938-2.1562-0.67188-4.2617-2.1602-5.8242s-3.5547-2.4453-5.7109-2.4414h-212.3c-2.1172-0.003907-4.1484 0.85156-5.6289 2.3633-1.4805 1.5156-2.2891 3.5625-2.2422 5.6797l1.3008 57.465 4.1172 181.54-4.5195 165.05c-1.1328 2.0664-1.1992 4.5508-0.18359 6.6758l-0.70703 25.82c-0.058594 2.125 0.74609 4.1836 2.2266 5.7031 1.4844 1.5234 3.5195 2.3828 5.6445 2.3828h394.24c2.0898 0 4.0898-0.83203 5.5664-2.3047 1.4766-1.4766 2.3047-3.4805 2.3047-5.5664v-77.508c0-67.668-60.535-78.715-93.055-84.648zm-5.9023 14.957 3.0781 0.56641c31.914 5.8164 80.137 14.609 80.137 69.156v40.367h-377.48l4.3945-160.59-3.9375-173.73h191.79l-10.098 201.04c-0.20703 4.0625 2.7148 7.6172 6.7461 8.1953zm-181.44 132.86v6.4297h-19.219v-6.4297c0-3.0391-1.7617-5.8008-4.5156-7.0859h28.289c-2.7656 1.2734-4.5469 4.0391-4.5547 7.0859zm-51.957-7.0859h21.547c-2.7539 1.2852-4.5156 4.0469-4.5195 7.0859v6.4297h-12.539v-6.4297c-0.015625-3.0273-1.7773-5.7734-4.5195-7.0547zm134.27-407.64-2.1016 41.863h-192.95l-0.92578-41.863zm-195.57 407.67h54.555c-2.7422 1.2969-4.4961 4.0508-4.5117 7.0859v6.4297h-50.383zm129 13.484v-6.4297c-0.011719-3.0352-1.7656-5.7891-4.5117-7.0859h253.43v13.516z"/>
</svg>