<?xml version="1.0" encoding="UTF-8"?>
<!-- The Best Svg Icon site in the world: iconSvg.co, Visit us! https://iconsvg.co -->
<svg fill="#000000" width="800px" height="800px" version="1.1" viewBox="144 144 512 512" xmlns="http://www.w3.org/2000/svg">
 <g>
  <path d="m598.13 356.62-280.51-96.922c-7.5703-2.8945-16.117-1.2188-22.336 4.3789l-90.633 82.266c-0.74219 0.69922-1.3555 1.4258-1.9219 2.1875-2.3945 0.39062-4.2539 2.375-4.2539 4.8828v158.07c0 9.25 3.9375 17.871 10.797 23.645 5.0781 4.2773 11.367 6.5664 17.777 6.5664 1.5273 0 3.0664-0.12891 4.5938-0.39453l339.93-61.207c17.355-3.0273 29.953-18.773 29.953-37.445v-81.266c0-2.1484-1.3633-4.0625-3.3945-4.7656zm-387.87-1.1992c0.27344-0.625 0.64844-1.1328 1.2305-1.6836l90.551-82.188c2.3086-2.0781 5.0898-3.168 7.9531-3.168 1.3906 0 2.7969 0.25391 4.1797 0.78516l263.29 90.977-363.64 0.89453c-1.2148 0-2.1953-0.52344-2.9062-1.5547-0.85547-1.2422-1.0781-2.9258-0.65625-4.0625zm381.18 87.23c0 13.762-9.0859 25.336-21.637 27.523l-339.92 61.207c-5.0312 0.87891-10.062-0.53125-14.129-3.957-4.582-3.8594-7.2109-9.668-7.2109-15.938v-141.52c1.6484 0.69922 3.4102 1.1484 5.2852 1.1484l377.61-0.92188z"/>
  <path d="m309.51 431.03c8.4805 0 15.379-6.8984 15.379-15.379 0-8.4805-6.8984-15.379-15.379-15.379s-15.379 6.8984-15.379 15.379c0 8.4805 6.8984 15.379 15.379 15.379zm0-20.684c2.9258 0 5.3047 2.3789 5.3047 5.3047 0 2.9258-2.3789 5.3047-5.3047 5.3047s-5.3047-2.3789-5.3047-5.3047c0-2.9258 2.3789-5.3047 5.3047-5.3047z"/>
  <path d="m273.32 487.91c11.332 0 20.547-9.2188 20.547-20.551s-9.2188-20.547-20.547-20.547c-11.332 0-20.551 9.2188-20.551 20.547 0 11.332 9.2227 20.551 20.551 20.551zm0-31.023c5.7734 0 10.473 4.6992 10.473 10.473 0 5.7773-4.6992 10.477-10.473 10.477-5.7773 0-10.477-4.6992-10.477-10.477 0.003906-5.7734 4.7031-10.473 10.477-10.473z"/>
  <path d="m350.88 487.91c14.184 0 25.723-11.539 25.723-25.723s-11.539-25.719-25.723-25.719-25.723 11.539-25.723 25.719c0 14.184 11.539 25.723 25.723 25.723zm0-41.363c8.6289 0 15.645 7.0195 15.645 15.645 0 8.6289-7.0195 15.645-15.645 15.645-8.6289 0-15.645-7.0195-15.645-15.645-0.003906-8.6289 7.0156-15.645 15.645-15.645z"/>
  <path d="m351.18 316.36c7.1367 0 12.945-5.8086 12.945-12.945 0-7.1406-5.8086-12.945-12.945-12.945-7.1406 0-12.945 5.8086-12.945 12.945-0.003906 7.1406 5.8047 12.945 12.945 12.945zm0-15.812c1.582 0 2.8672 1.2891 2.8672 2.8711s-1.2852 2.8672-2.8672 2.8672c-1.582 0-2.8711-1.2852-2.8711-2.8672s1.2891-2.8711 2.8711-2.8711z"/>
  <path d="m297.65 354.68c9.3203 0 16.898-7.582 16.898-16.898 0-9.3203-7.582-16.898-16.898-16.898-9.3203 0-16.898 7.582-16.898 16.898 0 9.3203 7.582 16.898 16.898 16.898zm0-23.723c3.7656 0 6.8242 3.0586 6.8242 6.8242s-3.0586 6.8242-6.8242 6.8242c-3.7656 0-6.8242-3.0586-6.8242-6.8242s3.0625-6.8242 6.8242-6.8242z"/>
  <path d="m403.5 354.68c11.5 0 20.852-9.3555 20.852-20.852 0-11.5-9.3555-20.852-20.852-20.852-11.5 0-20.852 9.3555-20.852 20.852 0 11.496 9.3555 20.852 20.852 20.852zm0-31.629c5.9453 0 10.777 4.832 10.777 10.777 0 5.9453-4.832 10.777-10.777 10.777-5.9453 0-10.777-4.832-10.777-10.777 0-5.9453 4.8359-10.777 10.777-10.777z"/>
  <path d="m452.22 422.41c7.7188 0 14-6.2812 14-14 0-7.7227-6.2812-14.004-14-14.004s-14 6.2812-14 14.004 6.2812 14 14 14zm0-17.926c2.1641 0 3.9219 1.7617 3.9219 3.9258 0 2.1641-1.7617 3.9219-3.9219 3.9219-2.1641 0-3.9219-1.7617-3.9219-3.9219-0.003906-2.1641 1.7578-3.9258 3.9219-3.9258z"/>
  <path d="m488.07 462.74c10.191 0 18.48-8.2891 18.48-18.48 0-10.191-8.2891-18.48-18.48-18.48-10.191 0-18.48 8.2891-18.48 18.48 0 10.191 8.2891 18.48 18.48 18.48zm0-26.887c4.6328 0 8.4062 3.7695 8.4062 8.4062 0 4.6328-3.7695 8.4062-8.4062 8.4062-4.6328 0-8.4062-3.7695-8.4062-8.4062 0-4.6328 3.7734-8.4062 8.4062-8.4062z"/>
 </g>
</svg>