<?xml version="1.0" encoding="UTF-8"?>
<!-- The Best Svg Icon site in the world: iconSvg.co, Visit us! https://iconsvg.co -->
<svg fill="#000000" width="800px" height="800px" version="1.1" viewBox="144 144 512 512" xmlns="http://www.w3.org/2000/svg">
 <path d="m382.65 458.73-36.023 36.023c-3.9258 3.9258-10.297 3.9219-14.23-0.011718l-18.387-18.387c-3.9336-3.9336-3.9297-10.312-0.015624-14.23l32.566-32.562c-14.031-2.1562-28.867 2.1719-39.672 12.977-14.164 14.164-36.105 49.75-49.574 82.715-7.0859 17.34-11.395 32.746-12.449 44.012-0.019531 0.20703-0.039062 0.41406-0.054687 0.61328 0.19922-0.015624 0.40625-0.035156 0.61328-0.054687 11.266-1.0547 26.672-5.3633 44.012-12.449 32.965-13.469 68.551-35.41 82.715-49.574 13.266-13.266 16.766-32.602 10.5-49.07zm65.883-222.62 27.094 27.098c3.9258 3.9258 3.9219 10.297-0.011719 14.227l-18.391 18.391c-3.9297 3.9336-10.312 3.9297-14.227 0.011719l-27.094-27.094c-4.1133 15.395-0.12891 32.504 11.949 44.582 14.164 14.164 49.746 36.105 82.711 49.574 17.34 7.082 32.746 11.391 44.016 12.445 0.20703 0.019531 0.41016 0.039062 0.60938 0.054688-0.015625-0.19922-0.035156-0.40234-0.054688-0.60938-1.0547-11.27-5.3633-26.676-12.445-44.016-13.469-32.965-35.41-68.547-49.574-82.711-12.078-12.078-29.188-16.062-44.582-11.953zm-239.54 369.59c-36.043-36.043 29.219-159.74 65.262-195.79 36.043-36.043 94.48-36.043 130.52 0 36.043 36.043 36.043 94.48 0 130.52-36.043 36.043-159.74 101.3-195.79 65.262zm382.01-194.48c-36.043 36.043-159.74-29.219-195.79-65.262s-36.043-94.48 0-130.52c36.043-36.043 94.48-36.043 130.52 0 36.043 36.043 101.3 159.74 65.262 195.79zm-373.44-62.293c-14.383-14.383 11.66-63.746 26.043-78.129 14.383-14.383 37.699-14.383 52.082 0 14.383 14.383 14.383 37.703 0 52.086-14.383 14.383-63.742 40.426-78.125 26.043zm343.47 216.91c-14.383 14.383-63.742-11.66-78.125-26.043-14.383-14.383-14.383-37.699 0-52.082s37.699-14.383 52.082 0c14.383 14.383 40.426 63.742 26.043 78.125z"/>
</svg>