<?xml version="1.0" encoding="UTF-8"?>
<!-- The Best Svg Icon site in the world: iconSvg.co, Visit us! https://iconsvg.co -->
<svg fill="#000000" width="800px" height="800px" version="1.1" viewBox="144 144 512 512" xmlns="http://www.w3.org/2000/svg">
 <g>
  <path d="m437.61 188.24c-51.641-3.3047-97.77 2.0469-127.05 13.066v50.852c33.535-8.8164 88.641-13.066 150.36-10.547 50.383 2.0469 95.566 8.5 128.31 16.688 1.418-2.5195 2.3633-5.1953 2.5195-7.7148 1.7344-28.969-67.066-56.836-154.13-62.344z"/>
  <path d="m223.96 384.25h39.359v-31.488h-39.359c-8.6602 0-15.742 7.0859-15.742 15.742-0.003906 8.6602 7.082 15.746 15.742 15.746z"/>
  <path d="m223.96 588.93c-8.6602 0-15.742 7.0859-15.742 15.742 0 8.6602 7.0859 15.742 15.742 15.742h78.719v-31.484z"/>
  <path d="m271.2 581.05h31.488v-385.73h-31.488z"/>
 </g>
</svg>