<?xml version="1.0" encoding="UTF-8"?>
<!-- The Best Svg Icon site in the world: iconSvg.co, Visit us! https://iconsvg.co -->
<svg fill="#000000" width="800px" height="800px" version="1.1" viewBox="144 144 512 512" xmlns="http://www.w3.org/2000/svg">
 <path d="m415.88 486.11-9.8789 79.688h19.07l17.371-79.688zm-153.71-14.914-22.082 21.781 15.547 72.816h18.965zm308.56-185.14-4.3359-0.039063v-5.5117c0-5.5273 3.0078-10.625 7.8633-13.301l18.668-10.309c4.7812-2.6406 7.7383-7.6484 7.7383-13.082v-9.5977l-3.2734 4.9062c-2.6406 3.9492-6.6602 6.7305-11.281 7.8086l-28.512 6.5703c-7.668 1.7695-13.992 7.1172-17.02 14.379l-7.4727 17.922h-0.23047c-8.7109 0-17.281 2.1758-24.934 6.3594l-54.805 29.891c-9.5078 5.1875-20.348 7.457-31.129 6.5352l-133.63-10.699h-19.477c-10.676 0-21.496 1.7891-30.406 6.3398-0.35156 0.17578-0.69141 0.35156-1.043 0.52734-0.24609 0.14062-0.49219 0.26562-0.74609 0.38672-6.7656 3.6133-12.113 8.2539-17.391 13.992h-6.6875c-21.637 0-39.348 17.703-39.348 39.348v98.777h14.168v-99.168c0-11.617 9.4922-21.531 20.488-23.676 0.44141-0.089844 0.85156-0.125 1.2227-0.16016-4.1055 8.5547-6.4102 18.133-6.4102 28.242 0 30.406 7.3867 58.027 7.3867 58.027l-11.07 36.848 3.6836 88.414h18.434l0.003906-69.988 41.207-40.34 58.508 17.23c10.449 3.082 22.117 4.5703 33.008 4.5703h99.164l7.5273 88.539h17.266v-88.543c15.688-0.65625 31.188-9.3867 38.832-23.215l33.77-68.867h15.934l24.793-7.082h24.793l8.5664-12.891c2.9062-4.375 2.8828-10.066-0.054688-14.414l-38.039-56.285c-3.543-5.2266-9.418-8.3867-15.73-8.4453z"/>
</svg>