<?xml version="1.0" encoding="UTF-8"?>
<!-- The Best Svg Icon site in the world: iconSvg.co, Visit us! https://iconsvg.co -->
<svg fill="#000000" width="800px" height="800px" version="1.1" viewBox="144 144 512 512" xmlns="http://www.w3.org/2000/svg">
 <g>
  <path d="m573.18 447.23h-39.359v-174.3c2.5625 0.70703 5.2109 1.082 7.8711 1.1172 8.3516 0 16.359-3.3164 22.266-9.2227s9.2227-13.914 9.2227-22.266v-70.848c0-2.0898-0.82812-4.0898-2.3047-5.5664-1.4766-1.4766-3.4805-2.3086-5.5664-2.3086h-330.62c-4.3477 0-7.875 3.5273-7.875 7.875v70.848c0 8.3516 3.3203 16.359 9.2227 22.266 5.9062 5.9062 13.914 9.2227 22.266 9.2227 2.6641-0.035156 5.3086-0.41016 7.875-1.1172v174.3h-39.363c-4.3477 0-7.8711 3.5234-7.8711 7.8711v173.19c0 2.0859 0.82812 4.0898 2.3047 5.5664 1.4766 1.4727 3.4805 2.3047 5.5664 2.3047h346.37c2.0859 0 4.0898-0.83203 5.5664-2.3047 1.4766-1.4766 2.3047-3.4805 2.3047-5.5664v-173.19c0-2.0859-0.82813-4.0898-2.3047-5.5664-1.4766-1.4766-3.4805-2.3047-5.5664-2.3047zm-330.62-224.79c2.0234 1.1758 4.1758 2.1172 6.4141 2.8008-1.3086 3.0625-3.5547 5.625-6.4141 7.332zm39.359-6.5039c3.832 4.3945 8.8164 7.6289 14.391 9.3438-1.6562 3.7344-4.6992 6.6797-8.4883 8.2109-3.7852 1.5312-8.0195 1.5312-11.805 0-3.7891-1.5312-6.832-4.4766-8.4883-8.2109 5.5742-1.7148 10.559-4.9492 14.391-9.3438zm47.23 0c3.8359 4.3945 8.8203 7.6289 14.391 9.3438-1.6562 3.7344-4.6992 6.6797-8.4844 8.2109-3.7891 1.5312-8.0195 1.5312-11.809 0-3.7852-1.5312-6.8281-4.4766-8.4844-8.2109 5.5703-1.7148 10.555-4.9492 14.387-9.3438zm47.23 0h0.003906c3.832 4.3945 8.8164 7.6289 14.391 9.3438-1.6562 3.7344-4.7031 6.6797-8.4883 8.2109s-8.0195 1.5312-11.805 0c-3.7891-1.5312-6.832-4.4766-8.4883-8.2109 5.5742-1.7148 10.555-4.9492 14.391-9.3438zm47.23 0h0.003906c3.8359 4.3945 8.8203 7.6289 14.391 9.3438-1.6562 3.7344-4.6992 6.6797-8.4844 8.2109-3.7891 1.5312-8.0234 1.5312-11.809 0-3.7852-1.5312-6.8281-4.4766-8.4883-8.2109 5.5742-1.7148 10.559-4.9492 14.391-9.3438zm47.23 0h0.007812c3.832 4.3945 8.8164 7.6289 14.391 9.3438-1.6602 3.7344-4.7031 6.6797-8.4883 8.2109s-8.0195 1.5312-11.805 0c-3.7891-1.5312-6.832-4.4766-8.4883-8.2109 5.5742-1.7148 10.555-4.9492 14.391-9.3438zm47.23 0h0.007813c3.8359 4.3945 8.8164 7.6289 14.391 9.3438-1.6562 3.7344-4.6992 6.6797-8.4883 8.2109-3.7852 1.5312-8.0195 1.5312-11.805 0-3.7852-1.5312-6.8281-4.4766-8.4883-8.2109 5.5742-1.7148 10.559-4.9492 14.391-9.3438zm32.953 9.3047c2.2383-0.68359 4.3906-1.625 6.4141-2.8008v10.133c-2.8594-1.707-5.1055-4.2695-6.4141-7.332zm-245.49 14.312c3.832 4.3945 8.8164 7.6289 14.391 9.3438-1.6602 3.7344-4.7031 6.6758-8.4883 8.207s-8.0195 1.5312-11.805 0c-3.7891-1.5312-6.832-4.4727-8.4883-8.207 5.5742-1.7148 10.555-4.9492 14.391-9.3438zm47.23 0c3.8359 4.3945 8.8164 7.6289 14.391 9.3438-1.6562 3.7344-4.6992 6.6758-8.4883 8.207-3.7852 1.5312-8.0195 1.5312-11.805 0-3.7852-1.5312-6.8281-4.4727-8.4883-8.207 5.5742-1.7148 10.559-4.9492 14.391-9.3438zm47.23 0h0.003906c3.832 4.3945 8.8164 7.6289 14.387 9.3438-1.6562 3.7344-4.6992 6.6758-8.4844 8.207s-8.0195 1.5312-11.809 0c-3.7852-1.5312-6.8281-4.4727-8.4844-8.207 5.5703-1.7148 10.555-4.9492 14.391-9.3438zm47.23 0h0.003907c3.832 4.3945 8.8164 7.6289 14.391 9.3438-1.6562 3.7344-4.6992 6.6758-8.4883 8.207-3.7852 1.5312-8.0195 1.5312-11.805 0-3.7891-1.5312-6.832-4.4727-8.4883-8.207 5.5742-1.7148 10.559-4.9492 14.391-9.3438zm47.23 0h0.003907c3.8359 4.3945 8.8203 7.6289 14.391 9.3438-1.6562 3.7344-4.6992 6.6758-8.4844 8.207-3.7891 1.5312-8.0195 1.5312-11.809 0-3.7852-1.5312-6.8281-4.4727-8.4844-8.207 5.5703-1.7148 10.555-4.9492 14.387-9.3438zm47.238 18.75c-3.0586-0.007812-6.0469-0.90234-8.6016-2.582-2.5547-1.6758-4.5664-4.0625-5.7891-6.8633 5.5703-1.7031 10.551-4.9258 14.391-9.3047 3.832 4.3945 8.8164 7.6289 14.391 9.3438-1.2305 2.793-3.2422 5.1719-5.7969 6.8398-2.5547 1.6719-5.543 2.5625-8.5938 2.5664zm15.742-62.977c0 5.625-3 10.824-7.8711 13.637s-10.871 2.8125-15.742 0c-4.8711-2.8125-7.875-8.0117-7.875-13.637v-15.742h31.488zm-47.23 0c0 5.625-3 10.824-7.8711 13.637-4.8711 2.8125-10.875 2.8125-15.746 0s-7.8711-8.0117-7.8711-13.637v-15.742h31.488zm-47.23 0c0 5.625-3.0039 10.824-7.875 13.637-4.8711 2.8125-10.871 2.8125-15.742 0s-7.8711-8.0117-7.8711-13.637v-15.742h31.488zm-47.234 0c0 5.625-3 10.824-7.8711 13.637s-10.875 2.8125-15.746 0-7.8711-8.0117-7.8711-13.637v-15.742h31.488zm-47.23 0c0 5.625-3.0039 10.824-7.875 13.637-4.8711 2.8125-10.871 2.8125-15.742 0-4.8711-2.8125-7.8711-8.0117-7.8711-13.637v-15.742h31.488zm-47.234 0c0 5.625-3 10.824-7.8711 13.637s-10.871 2.8125-15.742 0c-4.875-2.8125-7.875-8.0117-7.875-13.637v-15.742h31.488zm-47.23 0c0 5.625-3 10.824-7.8711 13.637-4.8711 2.8125-10.875 2.8125-15.746 0-4.8711-2.8125-7.8711-8.0117-7.8711-13.637v-15.742h31.488zm-30.133 53.57h-0.003906c5.5742-1.7148 10.559-4.9492 14.391-9.3438 3.8359 4.3945 8.8203 7.6289 14.391 9.3438-1.6562 3.7344-4.6992 6.6758-8.4844 8.207-3.7891 1.5312-8.0234 1.5312-11.809 0-3.7852-1.5312-6.8281-4.4727-8.4883-8.207zm38.004 14.273c5.9023 6.9023 14.531 10.879 23.617 10.879 9.082 0 17.711-3.9766 23.613-10.879 5.9062 6.9023 14.535 10.879 23.617 10.879 9.0859 0 17.715-3.9766 23.617-10.879 5.9023 6.9023 14.531 10.879 23.617 10.879 9.082 0 17.711-3.9766 23.613-10.879 5.9062 6.9023 14.535 10.879 23.617 10.879 9.0859 0 17.715-3.9766 23.617-10.879 5.9023 6.9023 14.531 10.879 23.613 10.879 9.0859 0 17.715-3.9766 23.617-10.879v184.06h-7.8711v-55.105c0-2.0859-0.82812-4.0898-2.3047-5.5664-1.4766-1.4766-3.4805-2.3047-5.5664-2.3047h-62.977c-4.3477 0-7.8711 3.5234-7.8711 7.8711v55.105h-35.867c5.457-9.1641 5.8359-20.484 1.0078-29.996-4.8242-9.5117-14.188-15.887-24.805-16.898 3.875-6.3945 5.3477-13.965 4.1523-21.348-1.1914-7.3828-4.9766-14.098-10.672-18.945-5.6953-4.8477-12.93-7.5117-20.41-7.5117s-14.715 2.6641-20.41 7.5117c-5.6953 4.8477-9.4805 11.562-10.672 18.945-1.1953 7.3828 0.27734 14.953 4.1523 21.348-10.617 1.0117-19.98 7.3867-24.809 16.898-4.8242 9.5117-4.4453 20.832 1.0117 29.996h-12.25zm165.31 160.45h47.23v23.617h-47.23zm47.23-15.742h-47.23v-7.8711h47.23zm-188.93 23.617c0-4.1758 1.6562-8.1836 4.6094-11.133 2.9531-2.9531 6.957-4.6133 11.133-4.6133 4.1758 0 8.1797 1.6602 11.133 4.6133 2.9531 2.9492 4.6133 6.957 4.6133 11.133s-1.6602 8.1797-4.6133 11.133c-2.9531 2.9492-6.957 4.6094-11.133 4.6094-4.1758 0-8.1797-1.6602-11.133-4.6094-2.9531-2.9531-4.6094-6.957-4.6094-11.133zm39.359-31.488c-4.1758 0-8.1797-1.6602-11.133-4.6133s-4.6133-6.957-4.6133-11.133c0-4.1758 1.6602-8.1797 4.6133-11.133s6.957-4.6094 11.133-4.6094 8.1797 1.6562 11.133 4.6094 4.6094 6.957 4.6094 11.133c0 4.1758-1.6562 8.1797-4.6094 11.133s-6.957 4.6133-11.133 4.6133zm7.8711 31.488c0-4.1758 1.6602-8.1836 4.6133-11.133 2.9531-2.9531 6.957-4.6133 11.133-4.6133s8.1797 1.6602 11.133 4.6133c2.9531 2.9492 4.6094 6.957 4.6094 11.133s-1.6562 8.1797-4.6094 11.133c-2.9531 2.9492-6.957 4.6094-11.133 4.6094s-8.1797-1.6602-11.133-4.6094c-2.9531-2.9531-4.6133-6.957-4.6133-11.133zm-118.08 188.93v-125.95h125.95v-15.742h-125.95v-15.742h330.62v15.742h-125.95v15.742h125.95v125.95z"/>
  <path d="m470.85 518.08h-15.746c-8.2031-0.007813-16.328 1.5977-23.914 4.7227 0.19922-1.5664 0.29688-3.1445 0.30078-4.7227 0-25.402-25.688-44.871-26.766-45.656-2.8008-2.1016-6.6484-2.1016-9.4492 0-1.0938 0.78906-26.766 20.27-26.766 45.656h0.003907c0 1.5781 0.10156 3.1562 0.29688 4.7227-7.582-3.125-15.711-4.7305-23.914-4.7227h-15.746c-4.3477 0-7.8711 3.5234-7.8711 7.8711 0.019531 16.699 6.6602 32.707 18.469 44.512 11.805 11.805 27.812 18.449 44.508 18.465h7.8711v23.617h15.742l0.003906-23.617h7.8711c16.695-0.015625 32.703-6.6602 44.512-18.465 11.805-11.805 18.445-27.812 18.465-44.512 0-2.0859-0.82812-4.0898-2.3047-5.5664-1.4766-1.4727-3.4805-2.3047-5.5664-2.3047zm-70.848-28.938c8.707 7.3164 14.328 17.652 15.742 28.938-1.3828 11.297-7.0117 21.641-15.742 28.938-8.707-7.3164-14.332-17.652-15.746-28.938 1.3828-11.293 7.0117-21.641 15.746-28.938zm-15.746 84.043c-11.16-0.015625-21.953-3.9727-30.477-11.176-8.5234-7.2031-14.227-17.184-16.102-28.184h7.2188c11.16 0.011719 21.953 3.9688 30.477 11.172 8.5234 7.2031 14.227 17.188 16.102 28.188zm31.488 0h-7.2188c1.875-11 7.5781-20.984 16.102-28.188s19.32-11.16 30.477-11.172h7.2188c-1.875 11-7.5781 20.98-16.102 28.184-8.5234 7.2031-19.316 11.16-30.477 11.176z"/>
 </g>
</svg>