<?xml version="1.0" encoding="UTF-8"?>
<!-- The Best Svg Icon site in the world: iconSvg.co, Visit us! https://iconsvg.co -->
<svg fill="#000000" width="800px" height="800px" version="1.1" viewBox="144 144 512 512" xmlns="http://www.w3.org/2000/svg">
 <path d="m274.97 365.5c-0.42969 1.3516-0.26953 2.8164 0.4375 4.043l25.82 44.723c0.70703 1.2266 1.9023 2.0977 3.2852 2.4023 0.35547 0.078126 0.72266 0.11719 1.0781 0.11719 1.0312 0 2.0508-0.31641 2.9062-0.92188l46.598-32.93-29.156 212.87c-0.19531 1.4414 0.23828 2.8984 1.1953 3.9961 0.96094 1.0938 2.3438 1.7266 3.8008 1.7266h138.12c1.457 0 2.8398-0.62891 3.7969-1.7266s1.3906-2.5547 1.1953-3.9961l-29.156-212.87 46.598 32.93c0.85938 0.60547 1.875 0.92188 2.9062 0.92188 0.35938 0 0.72266-0.039062 1.0781-0.11719 1.3828-0.30078 2.5742-1.1719 3.2852-2.4023l25.82-44.723c0.70703-1.2266 0.86719-2.6953 0.4375-4.043-0.42969-1.3516-1.4062-2.457-2.6953-3.0508l-75.961-35.02 75.961-35.02c1.2852-0.59375 2.2656-1.6992 2.6953-3.0508 0.42969-1.3516 0.26953-2.8164-0.4375-4.043l-25.82-44.719c-0.70703-1.2266-1.9023-2.0977-3.2852-2.4023-1.3789-0.30078-2.8281-0.011718-3.9883 0.80469l-68.309 48.273 7.6523-83.293c0.12891-1.4102-0.33984-2.8086-1.293-3.8555-0.95703-1.0508-2.3086-1.6445-3.7227-1.6445h-51.641c-1.418 0-2.7656 0.59375-3.7227 1.6445-0.95312 1.0469-1.4258 2.4453-1.293 3.8555l7.6523 83.293-68.309-48.273c-1.1523-0.8125-2.5977-1.1055-3.9883-0.80469-1.3828 0.30078-2.5742 1.1719-3.2852 2.4023l-25.82 44.719c-0.70703 1.2266-0.86719 2.6953-0.4375 4.043 0.42969 1.3516 1.4062 2.457 2.6953 3.0508l75.961 35.023-75.965 35.016c-1.2891 0.59375-2.2656 1.6992-2.6953 3.0508zm188.31 225.95h-126.57l29.648-216.47 10.453-7.3867-7.6523 83.293c-0.12891 1.4102 0.33984 2.8086 1.293 3.8555s2.3047 1.6445 3.7227 1.6445h51.641c1.418 0 2.7656-0.59375 3.7227-1.6445 0.95313-1.0469 1.4258-2.4453 1.293-3.8555l-7.6523-83.293 10.453 7.3867zm-63.285-289.84c14.238 0 25.82 11.582 25.82 25.82s-11.582 25.82-25.82 25.82-25.82-11.582-25.82-25.82 11.582-25.82 25.82-25.82zm-12.469 59.438c3.8906 1.4492 8.0781 2.2773 12.469 2.2773 4.3867 0 8.5781-0.83203 12.469-2.2773l7.832 85.258h-40.594zm105.27 43.402-69.902-49.402c6.4648-5.3711 10.988-12.973 12.453-21.602l77.746 35.844zm0-154.04 20.297 35.156-77.746 35.848c-1.4648-8.6328-5.9844-16.234-12.453-21.605zm-72.504-41.859-7.832 85.258c-3.8906-1.4492-8.0781-2.2773-12.465-2.2773s-8.5781 0.83203-12.469 2.2773l-7.832-85.258zm-113.1 41.859 69.902 49.398c-6.4648 5.3711-10.988 12.973-12.453 21.605l-77.746-35.848zm57.453 83.031c1.4648 8.6328 5.9883 16.23 12.453 21.602l-69.902 49.398-20.297-35.16z"/>
</svg>