<?xml version="1.0" encoding="UTF-8"?>
<!-- The Best Svg Icon site in the world: iconSvg.co, Visit us! https://iconsvg.co -->
<svg fill="#000000" width="800px" height="800px" version="1.1" viewBox="144 144 512 512" xmlns="http://www.w3.org/2000/svg">
 <path d="m237.43 340.49v-97.41c0-10.723 8.7109-19.418 19.418-19.418h116.97c10.727 0 21.516 8.3789 24.156 18.949l24.469 97.879h68.176v-77.547c0-5.5586 4.4688-10.066 10.031-10.066h18.891c5.543 0 10.031 4.5117 10.031 10.066v77.547h38.926c24.605 0 38.883 22.309 30.715 45.137l-24.355 77.023-0.32422 0.9375c-3.0039 8.0508-8.4219 15.254-15.18 20.781 5.8086 9.0781 9.1719 19.867 9.1719 31.441 0 32.27-26.16 58.43-58.43 58.43-32.27 0-58.43-26.16-58.43-58.43 0-7.0898 1.2656-13.883 3.5781-20.172h-81.945c-4.5234 44.156-41.832 78.602-87.184 78.602-48.402 0-87.641-39.238-87.641-87.645v-0.03125-105.64c0-22.008 17.152-40.418 38.953-40.434zm38.949 0h105.92l-19.469-77.875h-86.449zm137.53 38.953c-0.36328 0.023438-0.73047 0.03125-1.1055 0.03125h-155.99c-0.37109 0-0.73828-0.007812-1.1055-0.03125h-18.254c0.33203 0-0.027343 0.39063-0.027343 1.4805v32.785c13.926-9.3203 30.672-14.758 48.688-14.758 37.902 0 70.184 24.059 82.41 57.734h161.03c2.4219 0 6.9844-3.2578 8.3633-6.4219l22.395-70.82zm-127.79 155.84c26.895 0 48.691-21.801 48.691-48.691s-21.797-48.691-48.691-48.691c-26.891 0-48.688 21.801-48.688 48.691s21.797 48.691 48.688 48.691zm223.98 0c10.758 0 19.477-8.7188 19.477-19.477s-8.7188-19.477-19.477-19.477c-10.754 0-19.477 8.7188-19.477 19.477s8.7227 19.477 19.477 19.477z"/>
</svg>