<?xml version="1.0" encoding="UTF-8"?>
<!-- The Best Svg Icon site in the world: iconSvg.co, Visit us! https://iconsvg.co -->
<svg fill="#000000" width="800px" height="800px" version="1.1" viewBox="144 144 512 512" xmlns="http://www.w3.org/2000/svg">
 <path d="m394.86 247.42 18.41-11.602-15.582-30.926 50.109-31.59 21.18 27.398 18.52-11.672c4.9492 7.8477 2.5938 18.227-5.2539 23.176l-3.3398 2.1055c5.8945 6.0703 9.5391 14.34 9.5391 23.469 0 18.617-15.09 33.703-33.703 33.703-14.504 0-26.828-9.1797-31.582-22.027l-5.1133 3.2227c-7.8594 4.9453-18.238 2.5938-23.184-5.2578zm124.67 30.711c-11.457-11.539-30.098-11.602-41.629-0.15234-5.6055 5.5664-8.4844 12.832-8.6641 20.152-0.11719 0.79688-0.19531 54.312-0.19531 54.312l-70.246-0.003906c-9.2812 0-16.801 7.5234-16.801 16.801 0 9.2891 7.5352 16.816 16.828 16.801 20.668-0.03125 89.395-0.011718 89.395-0.011718 8.0547-0.5 14.465-7.1875 14.465-15.371v-14.02h8.4141v14.02c0 13.141-10.691 23.832-23.832 23.832h-10.941l29.965 213.39c1.5156 10.809 10.766 18.848 21.68 18.848 11.402 0 20.895-8.75 21.82-20.113 0 0 16.535-187.87 16.535-204.16-0.011718-35.988-24.309-101.68-46.793-124.32zm-102.17 305.71c-4.2539 0-7.6992 3.4453-7.6992 7.6992 0 4.2539 3.4453 7.6992 7.6992 7.6992 4.2539 0 7.6992-3.4453 7.6992-7.6992 0.003907-4.25-3.4453-7.6992-7.6992-7.6992zm-35.363 17.797c-4.2539 0-7.6992 3.4453-7.6992 7.6992 0 4.2539 3.4453 7.6992 7.6992 7.6992 4.2539 0 7.6992-3.4453 7.6992-7.6992-0.003906-4.25-3.4492-7.6992-7.6992-7.6992zm51.777 2.1016c-4.2539 0-7.6992 3.4453-7.6992 7.6992s3.4453 7.6992 7.6992 7.6992 7.6992-3.4453 7.6992-7.6992c0.003906-4.2539-3.4492-7.6992-7.6992-7.6992zm-61.617-115.05c2.6445 7.793 3.918 15.871 3.918 23.992 0 10.105-2.0312 20.168-6.0898 29.613-6.9414 16.105-19.176 29.379-34.711 37.594l-37.172 19.648 5.1953 21.062h13.41l5.8555 5.8555h-32.207l5.8555-5.8555-5.0078-20.5-35.137-27.77-0.003906-13.172-5.4766-6.4688c-5.7617-6.75-10.203-14.402-13.227-22.574-3.0234-8.1719-4.6289-16.863-4.6289-25.738 0-14.5 4.3438-28.621 12.469-40.617l3.6836-5.4297 42.223 48.359 19.457-3.875c6.9414-1.3711 12.566-6.4219 14.688-13.176l9.5859-30.414c2.1719-6.9883 7.8828-12.09 14.738-13.699l-0.19141-0.51953-0.99219-2.2227c-0.75391-1.6992 0.51953-3.6367 2.3633-3.6367h8.6914c4.7695 0 9.0703 2.832 10.957 7.2266l2.7422 6.4219 3.4453 1.5117c3.2578 1.4648 5.3359 4.6758 5.3359 8.2617h-8.7852v0.097656c0 2.125-0.94141 4.0156-2.4102 5.3359-1.2305 1.1328-2.832 1.8438-4.5781 1.8906h-0.14062l1.2734 4.3945zm-12.312-32.875c0 1.6992 1.4141 3.1094 3.1094 3.1094 1.6992 0 3.0547-1.4141 3.0547-3.1094 0-1.6992-1.3555-3.0547-3.0547-3.0547-1.6992 0.003906-3.1094 1.3594-3.1094 3.0547zm-15.668 48.91h-7.9336v3.8047c0 8.3125-2.4453 16.348-7.0625 23.234-7.75 11.461-20.617 18.305-34.426 18.305h-15.277l12.848-19.035h-9.6133l-18.164 26.969h30.199c16.453 0 31.781-8.168 40.996-21.844 5.5117-8.1523 8.4297-17.703 8.4297-27.629z"/>
</svg>