<?xml version="1.0" encoding="UTF-8"?>
<!-- The Best Svg Icon site in the world: iconSvg.co, Visit us! https://iconsvg.co -->
<svg fill="#000000" width="800px" height="800px" version="1.1" viewBox="144 144 512 512" xmlns="http://www.w3.org/2000/svg">
 <g>
  <path d="m449.58 390.38h-135.32l-39.348 201.17c-0.40234 2.0156 0.95703 4.0312 2.9727 4.4336 0.25 0.050781 0.50391 0.050781 0.75391 0.050781 1.7617 0 3.3242-1.3086 3.6797-3.0742l11.539-58.996h176.08l11.539 58.996c0.35156 1.7617 1.9141 3.0742 3.7266 3.0742 0.25391 0 0.45312-0.050781 0.70703-0.050781 1.0078-0.20312 1.8633-0.80469 2.418-1.6133 0.55469-0.85547 0.75391-1.8633 0.55469-2.8203zm-119.35 57.789h108.77l-55.367 30.883-54.008-28.516zm-19.75 0.80469 65.094 34.359-79.703 40.406zm141.57 77.438h-139.55l-0.55469-2.3672 71.793-36.375 68.922 36.375zm-60.457-43.129 61.715-34.461 14.609 74.715z"/>
  <path d="m308.01 354.2v28.617h147.57v-28.617c0-2.418-1.3086-4.5859-3.4258-5.7422-0.95703-0.55469-2.0156-0.85547-3.125-0.85547l-134.46-0.003907c-1.0586 0-2.0664 0.25-2.9219 0.75391-2.2656 1.1602-3.6289 3.3281-3.6289 5.8477z"/>
  <path d="m381.67 203.96-80.965 60.156h162.33zm-20.758 44.891c-0.65625 0.45312-1.4609 0.75391-2.2656 0.75391-1.2109 0-2.3164-0.55469-3.0234-1.5117-0.60547-0.80469-0.85547-1.8125-0.70703-2.8203 0.15234-1.0078 0.65625-1.8633 1.4609-2.4688l20.656-15.516c0.70703-0.50391 1.4609-0.75391 2.2656-0.75391 1.2109 0 2.3164 0.55469 3.0234 1.5117 0.60547 0.80469 0.90625 1.7617 0.75391 2.7695-0.15234 1.0078-0.70703 1.9141-1.5117 2.5195z"/>
  <path d="m450.19 271.68h-136.58v68.367h136.58zm-68.316 55.469c-8.0625 0-14.609-6.5508-14.609-14.609 0-5.1875 5.8438-17.434 11.336-27.207 0.60547-1.0586 1.8633-1.7617 3.2734-1.7617 1.4609 0 2.7188 0.70703 3.3242 1.7617 5.4922 9.7734 11.336 22.016 11.336 27.207 0 8.0586-6.5469 14.609-14.66 14.609z"/>
  <path d="m483.49 298.68h-25.746v7.5586h25.746c18.844 0 34.109 15.316 34.109 34.16v251.65c0 2.0664 1.7109 3.7773 3.7773 3.7773 2.1172 0 3.7773-1.7109 3.7773-3.7773l0.003906-251.66c0-22.973-18.691-41.715-41.668-41.715z"/>
 </g>
</svg>