<?xml version="1.0" encoding="UTF-8"?>
<!-- The Best Svg Icon site in the world: iconSvg.co, Visit us! https://iconsvg.co -->
<svg fill="#000000" width="800px" height="800px" version="1.1" viewBox="144 144 512 512" xmlns="http://www.w3.org/2000/svg">
 <g>
  <path d="m361.27 402.52h133.84c2.7812 0 5.0391-2.2578 5.0391-5.0391v-51.75c0-2.7812-2.2578-5.0391-5.0391-5.0391l-133.84 0.003906c-2.7812 0-5.0391 2.2578-5.0391 5.0391l0.003906 51.75c0 2.7812 2.2539 5.0352 5.0352 5.0352zm128.8-10.074h-56.844v-41.676h56.844zm-123.77-41.676h56.844v41.676h-56.844z"/>
  <path d="m203.3 562.93h69.812v33.559c0 2.7812 2.2578 5.0391 5.0391 5.0391h300.06c2.7812 0 5.0391-2.2578 5.0391-5.0391v-183.69l8.9844 16.883c0.90625 1.7031 2.6484 2.6719 4.4531 2.6719 0.79688 0 1.6055-0.19141 2.3633-0.58984 2.4531-1.3047 3.3867-4.3594 2.082-6.8164l-18.469-34.719c-0.011719-0.019531-0.023438-0.023437-0.035157-0.046874-0.015624-0.023438-0.019531-0.054688-0.03125-0.082032l-44.324-77.945c-0.51953-0.91797-1.3164-1.6484-2.2656-2.0859l-105.7-48.754c-1.3398-0.61328-2.8828-0.61328-4.2227 0l-97.77 45.098v-42.914c-0.003906-35.852-29.172-65.02-65.027-65.02-35.852 0-65.023 29.172-65.023 65.023v294.39c0.003906 2.7812 2.2578 5.0352 5.0391 5.0352zm5.0391-165.29h60.141l-15.957 27.125c-1.4102 2.3984-0.60938 5.4883 1.7891 6.8984 0.80078 0.47266 1.6758 0.69531 2.5508 0.69531 1.7266 0 3.4102-0.88672 4.3477-2.4844l11.91-20.25v64.371h-64.781zm66.055-10.078h-66.055v-72.426h108.04zm-66.055 165.29v-68.785h64.773v68.785zm181.59-20.715-23.629 43.465v-87.301zm5.707 10.594 26.266 48.719h-52.75zm38.148-51.883 21.125 42.168-21.125 40.129zm-10.074 82.723-22.324-41.414 22.324-41.066zm36.754-29.473 23.719 47.352h-48.645zm29.602 36.602-23.832-47.57 23.832-45.273zm-29.383-58.652-24.965-49.832h51.188zm-65.004-0.48047-26.602-49.348h53.43zm104.46 69.883v-124.27c0-2.7812-2.2578-5.0391-5.0391-5.0391h-133.84c-2.7812 0-5.0391 2.2578-5.0391 5.0391l0.003906 124.27h-73.035v-154.53h289.98v154.53zm-71.961-320 102.13 47.105 42.863 75.379v32.914h-289.98v-34.371l42.844-73.914zm-164.9-62.891c30.301 0 54.945 24.652 54.945 54.945v41.559h-109.89v-41.559c0-30.293 24.652-54.945 54.945-54.945z"/>
 </g>
</svg>