<?xml version="1.0" encoding="UTF-8"?>
<!-- The Best Svg Icon site in the world: iconSvg.co, Visit us! https://iconsvg.co -->
<svg fill="#000000" width="800px" height="800px" version="1.1" viewBox="144 144 512 512" xmlns="http://www.w3.org/2000/svg">
 <path d="m407.08 200.29v79.641c22.41 2.3125 41.609 15.41 52.297 34.047l-43.207 0.003906c0.55078 1.6719 0.85547 3.457 0.85547 5.3164 0 9.4062-7.6211 17.027-17.027 17.027s-17.027-7.6211-17.027-17.027c0-1.8594 0.30859-3.6406 0.85547-5.3164h-43.207c10.68-18.637 29.887-31.738 52.297-34.047l-0.003907-79.645-219.63 137.27 17.574 28.34 24.934-15.195v248.99h368.41v-248.99l24.934 15.195 17.574-28.344zm-14.168 153.21h14.172v30.93h-14.172zm-103.67 220.89c-23.543 0-42.621-20.223-42.621-45.172 0-31.801 21.496-71.648 42.621-71.648 21.418 0 42.621 39.023 42.621 71.648 0 24.949-19.086 45.172-42.621 45.172zm51.199-218.53 23.695-19.879 9.1094 10.855-23.695 19.879zm59.559 218.53c-23.543 0-42.621-20.223-42.621-45.172 0-31.801 21.496-71.648 42.621-71.648 21.418 0 42.621 39.023 42.621 71.648 0 24.949-19.078 45.172-42.621 45.172zm50.445-207.68-23.695-19.879 9.1094-10.855 23.695 19.879zm60.312 207.68c-23.543 0-42.621-20.223-42.621-45.172 0-31.801 21.496-71.648 42.621-71.648 21.418 0 42.621 39.023 42.621 71.648 0 24.949-19.078 45.172-42.621 45.172z"/>
</svg>