<?xml version="1.0" encoding="UTF-8"?>
<!-- The Best Svg Icon site in the world: iconSvg.co, Visit us! https://iconsvg.co -->
<svg fill="#000000" width="800px" height="800px" version="1.1" viewBox="144 144 512 512" xmlns="http://www.w3.org/2000/svg">
 <g>
  <path d="m325.61 355.66c-3.6914 6.2773-1.957 14.34 3.9883 18.547-1.9883 2.4805-3.0703 5.5664-3.0703 8.75v0.51172c-0.027344 6.5195 4.4609 12.188 10.812 13.656 23.453 5.4102 47.434 8.207 71.5 8.3398 15.133 0.085937 30.234-1.3164 45.094-4.1836 0.15625-0.03125 0.30859-0.070312 0.46094-0.12109 11.062-3.6836 21.918-7.957 32.523-12.801 9.1953-4.2891 19.211-6.5273 29.359-6.5625l87.578-0.60156h-0.003907c4.8125-0.039062 8.6953-3.9375 8.7148-8.75v-46.195c-0.003906-4.8398-3.9219-8.7578-8.7617-8.7656h-78.129c-0.33594 0-33.641-1.2031-54.176-27.27-8.9297-11.875-19.258-22.633-30.762-32.039-4.0078-3.0938-9.1445-4.3281-14.125-3.3984l-0.44531 0.085937c-4.2734 0.79688-8.1055 3.1328-10.773 6.5664-2.668 3.4336-3.9805 7.7266-3.6914 12.066 0.28516 4.3398 2.1562 8.4219 5.25 11.473l14.996 14.797h-77.852c-4.2227-0.003906-8.3008 1.5273-11.48 4.3008-3.1836 2.7773-5.25 6.6094-5.8203 10.793s0.39062 8.4297 2.7148 11.957h-8.8477c-7.7461 0.011719-14.023 6.2891-14.031 14.035v1.7109c0.003907 5.8008 3.5703 11 8.9766 13.098zm5.9375 7.0859c0.003906-3.4023 2.7617-6.1562 6.1602-6.1602h52.844v12.316h-52.836c-3.3945-0.003906-6.1484-2.75-6.1602-6.1406zm22.543-55.125h83.301c-0.19531 8.3906 0.71484 27.051 11.59 39.113 6.7344 7.2773 16.332 11.227 26.238 10.789 2.1758 0 3.9375-1.7617 3.9375-3.9336 0-2.1758-1.7617-3.9375-3.9375-3.9375-7.6602 0.39453-15.109-2.5938-20.375-8.1758-11.723-12.988-9.4141-37.148-9.3867-37.391v-0.027344c0.035157-0.46484-0.007812-0.92969-0.13672-1.3789-0.035156-0.13281-0.082031-0.26563-0.13672-0.39453-0.11719-0.30859-0.27344-0.60156-0.46875-0.87109-0.078125-0.11719-0.16016-0.23047-0.25-0.33984-0.058594-0.066407-0.09375-0.14453-0.15625-0.20703l-21.828-21.535h-0.003907c-2.6211-2.582-3.5938-6.4102-2.5195-9.9297 1.0742-3.5234 4.0195-6.1562 7.6367-6.832l0.44531-0.085937v-0.003906c2.7734-0.51953 5.6367 0.16797 7.8711 1.8906 11.004 9.0195 20.887 19.332 29.426 30.715 22.785 28.934 58.625 30.23 60.25 30.273l78.219-0.003906c0.49219 0.003906 0.89062 0.40234 0.89062 0.89453v46.195c0 0.49219-0.39453 0.89063-0.88672 0.89453l-87.578 0.60156h0.003906c-11.293 0.046875-22.441 2.543-32.672 7.3203-10.242 4.668-20.719 8.793-31.391 12.363-46.414 9.2266-94.465 0.17188-113.02-4.1484-2.7812-0.64844-4.7422-3.1367-4.7227-5.9922v-0.52734c-0.003907-3.3984 2.7383-6.1602 6.1367-6.1797h49.984v1.6836c0 2.1719 1.7617 3.9375 3.9375 3.9375 2.1719 0 3.9375-1.7656 3.9375-3.9375v-51.066c0-1.043-0.41797-2.043-1.1562-2.7812s-1.7383-1.1562-2.7812-1.1562c-1.9297 0.015625-3.5586 1.4453-3.8203 3.3594h-36.57c-5.2227-0.10547-9.3984-4.3672-9.3984-9.5898 0-5.2227 4.1758-9.4844 9.3984-9.5898zm-29.586 33.23c0.003906-3.4023 2.7617-6.1602 6.1602-6.1641h59.887v14.039h-59.887c-3.3984-0.003906-6.1523-2.7617-6.1602-6.1641z"/>
  <path d="m439.38 448.77c3.7422 0.074219 7.2344-1.8633 9.1523-5.0781 5.0547-9.3867 5.25-20.645 0.52344-30.199-1.6797-3.832-5.4961-6.2812-9.6797-6.207-4.1836-0.074218-8 2.375-9.6758 6.2109-4.7227 9.5586-4.5273 20.809 0.51953 30.199 1.9219 3.2109 5.418 5.1484 9.1602 5.0742zm-2.3633-9.0547c-3.7773-6.4766-3.7969-14.277-0.058593-23.191v0.003906c0.45703-0.89453 1.3984-1.4297 2.3984-1.3711 1.0117-0.066406 1.9648 0.47656 2.418 1.3828 3.7422 8.9141 3.7188 16.715-0.058594 23.191-0.5625 0.73438-1.4336 1.168-2.3594 1.168s-1.8008-0.43359-2.3633-1.168z"/>
  <path d="m402.49 484.06c5.0547-9.3867 5.25-20.641 0.51953-30.199-1.6719-3.832-5.4922-6.2812-9.6719-6.207-4.1836-0.074219-8 2.3711-9.6797 6.2031-4.7266 9.5547-4.5312 20.809 0.51953 30.195 1.918 3.2148 5.4141 5.1523 9.1562 5.0781 3.7422 0.078126 7.2383-1.8555 9.1562-5.0703zm-6.793-3.9648c-0.5625 0.73438-1.4336 1.168-2.3594 1.168-0.92578 0-1.8008-0.43359-2.3633-1.168-3.7773-6.4688-3.7969-14.266-0.058594-23.18 0.45703-0.90625 1.4102-1.4531 2.4219-1.3867 1.0078-0.066406 1.9609 0.48047 2.4141 1.3828 3.7422 8.9141 3.7266 16.711-0.054688 23.184z"/>
  <path d="m415.38 592.75c1.2461 0 2.4805-0.23438 3.6367-0.6875 9.7969-4.2109 16.941-12.91 19.18-23.336 0.98828-4.043-0.46484-8.2891-3.7227-10.879-3.2617-2.5859-7.7305-3.0391-11.441-1.1562-9.6367 4.5508-16.48 13.488-18.355 23.98-0.49219 3.7109 1.0391 7.4023 4.0156 9.668 1.8945 1.5391 4.25 2.3867 6.6875 2.4102zm11.445-29.156 0.003907-0.003906c0.92578-0.35156 1.9727-0.19141 2.7539 0.42969 0.77734 0.61719 1.1719 1.6016 1.0352 2.5859-2.6094 9.3047-7.4766 15.402-14.457 18.105-0.89844 0.23047-1.8516 0.027343-2.5781-0.54688-0.72656-0.57812-1.1406-1.4609-1.1172-2.3906 1.0586-7.4102 5.8867-13.52 14.363-18.184z"/>
  <path d="m379.88 537.56c-3.5859-2.1289-8.0859-1.9648-11.504 0.42188-3.4219 2.3867-5.1289 6.5508-4.3711 10.648 1.5898 10.547 8.1914 19.668 17.711 24.477 1.3203 0.60938 2.7539 0.92578 4.207 0.92188 2.2266-0.015625 4.3945-0.71484 6.207-2.0039 3.1133-2.082 4.8711-5.668 4.6055-9.4023-1.2266-10.59-7.5117-19.93-16.855-25.062zm7.7383 28.008c-0.74609 0.57031-1.7305 0.71875-2.6055 0.39453-6.8047-3.1484-11.281-9.5352-13.312-18.984-0.14453-1 0.32031-1.9883 1.1797-2.5195 0.48828-0.34766 1.0664-0.54688 1.6641-0.56641 0.39453-0.003906 0.77734 0.10938 1.1055 0.32031 8.168 5.168 12.594 11.574 13.215 19.043 0.007813 0.93359-0.46094 1.8047-1.2461 2.3125z"/>
  <path d="m423.96 377.53c3.7461 0.074218 7.2422-1.8633 9.1641-5.082 5.0547-9.3867 5.25-20.645 0.51953-30.199-1.7227-3.7969-5.5078-6.2344-9.6758-6.2344-4.1719 0-7.957 2.4375-9.6797 6.2344-4.7305 9.5547-4.5352 20.812 0.51953 30.199 1.918 3.2148 5.4102 5.1562 9.1523 5.082zm-2.4141-32.238c0.50781-0.85547 1.4258-1.3789 2.4219-1.3789 0.99219 0 1.9102 0.52344 2.418 1.3789 3.7422 8.918 3.7227 16.719-0.054687 23.188-0.5625 0.73828-1.4375 1.1719-2.3633 1.1719-0.92578 0-1.8008-0.43359-2.3633-1.1719-3.7812-6.4688-3.8008-14.266-0.058593-23.188z"/>
  <path d="m645.18 573.52c-8.6641-2.0586-17.746-1.4648-26.07 1.7031-4.1523 1.4219-8.1836 3.1797-12.074 4.8828h-0.003906c-5.125 2.4102-10.434 4.4062-15.875 5.9727-18.645 4.7227-37.785-1.1797-58.016-7.4141-19.992-6.1641-40.586-12.488-60.562-7.5h-0.003907c1.9297-6.6406 2.9141-13.52 2.9219-20.438v-26.609 0.003906c0-2.1758 1.7617-3.9375 3.9336-3.9375h164.64c2.1758 0 3.9375-1.7617 3.9375-3.9336 0-2.1758-1.7617-3.9375-3.9375-3.9375h-164.64c-6.5195 0-11.805 5.2852-11.805 11.809v26.609-0.003906c0.054687 17.363-6.8438 34.02-19.156 46.262-12.266 12.254-28.898 19.133-46.238 19.129-17.34-0.003906-33.965-6.8906-46.23-19.148-12.262-12.262-19.156-28.887-19.168-46.227v-26.609 0.003906c0-6.5234-5.2852-11.809-11.809-11.809h-142.39c-2.5977-4.5742-3.2891-9.9883-1.9258-15.07 1.6953-4.2266 6.1523-7.2578 13.25-9.0078v-0.003906c1.5547-0.39062 2.7188-1.6836 2.9492-3.2695 0-0.10938 1.6602-10.957 9.0859-14.711 4.8594-2.4688 11.477-1.4844 19.68 2.8945v-0.003906c1.0039 0.53906 2.1953 0.61719 3.2578 0.21094 1.0664-0.40625 1.9023-1.2539 2.2969-2.3242 0.046875-0.13281 4.957-13.25 15.156-17.594 5.1094-2.0352 10.852-1.7617 15.746 0.74609 5.6328 1.8672 10.156 6.125 12.359 11.641 1.0742 4.8672 0.22656 9.9609-2.3633 14.219-0.71094 1.0938-0.83594 2.4688-0.32422 3.6758 0.50781 1.2031 1.5781 2.0742 2.8594 2.3281 4.9961 0.99609 18.809 5.5508 22.656 14.59 0.38281 1 1.1562 1.7969 2.1367 2.2148 0.98438 0.41406 2.0938 0.41406 3.0781-0.003907s1.7539-1.2188 2.1328-2.2148c0.38281-1 0.34375-2.1094-0.10938-3.0781-4.4766-10.527-16.66-15.742-23.527-17.938v0.003907c2.082-5.0742 2.4336-10.691 1.0078-15.988-2.1094-7.0859-7.7461-12.699-16.75-16.656-6.8789-3.4062-14.887-3.6914-21.992-0.78906-7.7734 3.8828-14.008 10.281-17.688 18.156-8.9961-4-16.793-4.3672-23.203-1.1016-6.5781 3.957-11.203 10.488-12.75 18.008-7.1562 1.5703-13.172 6.3984-16.246 13.051-2 5.8789-1.7617 12.289 0.66797 18h-13.219c-2.1758 0-3.9375 1.7617-3.9375 3.9375 0 2.1719 1.7617 3.9336 3.9375 3.9336h164.17-0.003907c1.0469 0 2.0469 0.41406 2.7852 1.1523 0.73828 0.73828 1.1523 1.7422 1.1523 2.7852v26.609-0.003906c0.003907 10.07 2.0938 20.027 6.1328 29.25-5.1523-2.2773-10.52-4.0195-16.027-5.2031-17.961-3.5859-35.633 1.207-52.742 5.8477-11.625 3.6328-23.617 5.9492-35.758 6.9102-14.488 0.46875-28.809-3.1758-41.305-10.516-1.0039-0.59375-2.0078-1.2148-3.0195-1.8438v0.003907c-5.625-4.2266-12.316-6.793-19.324-7.4141h-0.52344c-2.2617 0.070313-4.5078 0.46094-6.6602 1.1602-1.0273 0.28125-1.8945 0.96484-2.4062 1.8945-0.51562 0.93359-0.62891 2.0312-0.31641 3.0508 0.30859 1.0156 1.0195 1.8633 1.9648 2.3477 0.94531 0.48828 2.0469 0.57031 3.0547 0.23047 1.4688-0.48047 2.9961-0.75391 4.543-0.80859 5.2461-0.17188 10.234 2.957 15.527 6.2266 1.0508 0.65234 2.0977 1.3008 3.1484 1.9219v-0.003906c12.938 7.6016 27.664 11.629 42.672 11.66 0.98047 0 1.9688 0 2.9375-0.054687h-0.003907c12.742-0.96484 25.332-3.3711 37.531-7.1758 16.969-4.6055 32.996-8.9492 49.125-5.7266 8.3047 2.0039 16.324 5.0312 23.883 9.0117 12.188 18.219 31.891 30.02 53.703 32.156 21.812 2.1406 43.438-5.6055 58.93-21.105 6.3633-6.3906 11.5-13.895 15.156-22.141h0.046874c19.383-7.2305 39.879-0.90234 61.578 5.793 15.133 4.668 30.652 9.4453 46.148 9.4453 5.4414 0.027343 10.859-0.625 16.137-1.9375 5.8555-1.6719 11.57-3.8086 17.082-6.3906 3.9375-1.7109 7.6211-3.3281 11.469-4.6445h0.003906c6.7852-2.6367 14.207-3.1914 21.312-1.5977 2.0859 0.61328 4.2734-0.58594 4.8828-2.6719 0.61328-2.0859-0.58594-4.2734-2.6719-4.8828z"/>
  <path d="m190.56 617.24c0 3.2344-2.6211 5.8555-5.8555 5.8555s-5.8555-2.6211-5.8555-5.8555 2.6211-5.8555 5.8555-5.8555 5.8555 2.6211 5.8555 5.8555"/>
  <path d="m274.99 611.38c0 3.2344-2.625 5.8555-5.8594 5.8555s-5.8555-2.6211-5.8555-5.8555c0-3.2344 2.6211-5.8594 5.8555-5.8594s5.8594 2.625 5.8594 5.8594"/>
  <path d="m345.14 623.65c0 3.2344-2.6211 5.8555-5.8555 5.8555-3.2344 0-5.8555-2.6211-5.8555-5.8555 0-3.2383 2.6211-5.8594 5.8555-5.8594 3.2344 0 5.8555 2.6211 5.8555 5.8594"/>
  <path d="m463.84 627.39c0 3.2344-2.6211 5.8555-5.8555 5.8555s-5.8555-2.6211-5.8555-5.8555 2.6211-5.8594 5.8555-5.8594 5.8555 2.625 5.8555 5.8594"/>
  <path d="m518.94 599.8c0 3.2344-2.6211 5.8594-5.8555 5.8594-3.2383 0-5.8594-2.625-5.8594-5.8594s2.6211-5.8555 5.8594-5.8555c3.2344 0 5.8555 2.6211 5.8555 5.8555"/>
  <path d="m622.62 625.23c0 3.2344-2.625 5.8555-5.8594 5.8555-3.2344 0-5.8555-2.6211-5.8555-5.8555 0-3.2344 2.6211-5.8594 5.8555-5.8594 3.2344 0 5.8594 2.625 5.8594 5.8594"/>
 </g>
</svg>