<?xml version="1.0" encoding="UTF-8"?>
<!-- The Best Svg Icon site in the world: iconSvg.co, Visit us! https://iconsvg.co -->
<svg fill="#000000" width="800px" height="800px" version="1.1" viewBox="144 144 512 512" xmlns="http://www.w3.org/2000/svg">
 <g>
  <path d="m557.83 294.69c-2.8633-2.918-7.0859-4.0508-11.027-2.9609-3.9414 1.0898-6.9805 4.2305-7.9414 8.207-6.1406 25.035-30.465 83.27-122.96 83.27-28.031 0-50.699-8.6172-67.383-25.613-31.035-31.613-34.781-84.016-34.242-112.44v0.003906c0.17578-11.25-4.3281-22.07-12.438-29.871-6.2734-6.0234-14.68-9.3125-23.375-9.1367 6.2188-16.137 16.637-33.82 28.52-37.426 5.668-1.7266 11.414-0.23047 17.785 4.6953h0.003906c3.957 2.7812 6.6328 7.0352 7.4258 11.809 0.28125 4.6953-2.5156 9.5977-8.3008 14.562-1.5977 1.3789-2.2461 3.5664-1.6523 5.5938 0.59375 2.0273 2.3164 3.5234 4.4102 3.8203 3.8906 0.55469 13.227 2.4688 15.973 8.2461 1.7656 3.7109 0.67969 8.8906-3.2227 15.383h-0.003906c-1.582 2.5625-1.6445 5.7852-0.16406 8.4062 2.1484 3.7305 6.8672 13.336 4.2422 21.828v0.003906c-1.9648 5.3711-6.1211 9.6523-11.434 11.77-1.8516 1-2.5898 3.2773-1.6797 5.1758 0.91406 1.8945 3.1562 2.7344 5.0938 1.9102 7.3086-3.0273 12.969-9.0469 15.543-16.531 3.4102-11.02-1.6328-22.332-4.9453-28.078-0.035157-0.14844 0-0.30078 0.089843-0.41797 5.3477-8.8984 6.5586-16.582 3.5898-22.828-3.2891-6.9102-10.887-10.18-17.113-11.719 4.8594-4.5508 7.5703-10.949 7.457-17.605-0.91797-7.1406-4.793-13.57-10.68-17.711-6.6953-6.0234-15.996-8.2266-24.684-5.8555-19.254 5.8398-31.18 34.965-35.16 46.348-4.6758 1.3906-8.9766 3.8125-12.594 7.0859l-0.10156 0.09375c-8.8555 8.0508-13.676 19.617-13.164 31.574l-39.082 18.453c-3.5586 1.6836-5.8594 5.2344-5.9453 9.1719-0.082031 3.9375 2.0664 7.582 5.5547 9.418l41.867 22.082c0.35938 15.887 0.58203 34.461 0.58203 55.988 0 50.141 14.637 96.387 41.219 130.21 22.699 29.234 55.438 49.008 91.875 55.496v56.234l-30.434 5.8242 0.003907 0.003907c-1.0977 0.11328-2.0938 0.67969-2.75 1.5625-0.65625 0.88672-0.91406 2.0039-0.71094 3.0859 0.20703 1.082 0.85547 2.0273 1.793 2.6094 0.93359 0.57812 2.0703 0.74219 3.1289 0.44531l21.098-4.0352-8.2188 8.2383v0.003906c-0.75781 0.73438-1.1875 1.7422-1.1953 2.7969-0.007813 1.0547 0.41016 2.0703 1.1562 2.8164 0.74609 0.74609 1.7617 1.1602 2.8203 1.1484 1.0547-0.011719 2.0625-0.44531 2.793-1.207l14.023-14.059 10.152 13.609c1.3047 1.7422 3.7695 2.0938 5.5117 0.78906 1.7383-1.3047 2.0898-3.7695 0.78516-5.5117l-12.109-16.234v-56.84c8.6875 1.2266 17.457 1.8438 26.23 1.8398 10.918 0.019532 21.816-0.80078 32.609-2.457v55.531l-30.5 5.8359h-0.003906c-1.043 0.17578-1.9727 0.76562-2.5781 1.6367-0.60547 0.86719-0.83594 1.9453-0.63672 2.9844 0.19922 1.043 0.80859 1.957 1.6914 2.543 0.88281 0.58594 1.9648 0.78906 3 0.56641l21.098-4.0352-8.2188 8.2578c-0.75781 0.73438-1.1875 1.7422-1.1953 2.7969-0.007813 1.0547 0.40625 2.0703 1.1562 2.8164 0.74609 0.74609 1.7617 1.1602 2.8203 1.1484 1.0547-0.011718 2.0625-0.44531 2.793-1.207l14.031-14.059 10.148 13.609c1.3047 1.7422 3.7695 2.0938 5.5117 0.78906 1.7383-1.3047 2.0898-3.7695 0.78516-5.5117l-12.043-16.137v-58.918c73.934-14.684 99.16-67.148 102.16-73.996 76.32-84.398 26.422-152.39 1.3633-177.73zm-349.95-18.328c-0.84766-0.44141-1.3711-1.3281-1.3477-2.2852 0.019531-0.95703 0.57812-1.8164 1.4453-2.2227l36.176-17.094c0.60547 10.551 1.2227 24.289 1.6914 41.633zm324.97 136.93c-2.1055-0.23828-4.0234 1.2266-4.3398 3.3203-0.31641 2.0938 1.0781 4.0625 3.1562 4.457 4.4805 0.62109 8.9961 0.91797 13.516 0.89062 10.988 0 26.586-1.7031 38.848-9.6719-6.918 20.004-17.98 38.32-32.461 53.754-4.8906-0.92969-9.5195-2.9023-13.574-5.7891-1.7188-1.2852-4.1523-0.96094-5.4688 0.73438s-1.0352 4.1328 0.63672 5.4805c4.3086 3.1133 9.1523 5.4023 14.289 6.7539-8.0391 15.965-41.691 69.152-133.59 69.152-110.06 0-159.33-90.895-159.33-180.98 0-57.465-1.6133-94.008-2.9727-114.54-0.67578-9.8984 3.1953-19.57 10.523-26.266l0.09375-0.085938c4.6992-4.2656 10.844-6.5938 17.191-6.5078 6.3477 0.089844 12.422 2.582 17.004 6.9766 6.5352 6.2812 10.164 14.992 10.023 24.055-0.55078 29.652 3.4648 84.43 36.508 118.1 18.219 18.559 42.785 27.945 73.004 27.945 98.07 0 124.02-62.422 130.62-89.258 0.27344-1.2188 1.1992-2.1836 2.4062-2.5078 1.1875-0.33984 2.4688 0.011718 3.3164 0.90625 9.3477 9.4297 17.32 20.129 23.684 31.777-6.168 32.691-42.715 38.914-44.289 39.164-1.0391 0.14844-1.9766 0.71094-2.6016 1.5547-0.625 0.84766-0.88672 1.9062-0.72656 2.9453 0.16406 1.0391 0.73438 1.9727 1.5859 2.5859 0.85547 0.61719 1.918 0.86328 2.957 0.69141 0.39453-0.0625 36.469-6.0469 48.219-36.176 7.5156 17.688 9.7031 37.184 6.2969 56.098-16.277 20.008-54.148 14.484-54.535 14.434z"/>
  <path d="m278.48 237.54c-5.4258 0-10.633 2.1562-14.473 5.9961-3.8359 3.8359-5.9922 9.043-5.9922 14.473 0 5.4258 2.1562 10.633 5.9922 14.473 3.8398 3.8359 9.0469 5.9922 14.473 5.9922 5.4297 0 10.637-2.1562 14.473-5.9922 3.8398-3.8398 5.9961-9.0469 5.9961-14.473-0.007813-5.4258-2.1641-10.629-6.0039-14.465-3.8359-3.8359-9.0391-5.9961-14.465-6.0039zm0 33.062c-5.0938 0-9.6836-3.0664-11.637-7.7734-1.9492-4.707-0.87109-10.125 2.7305-13.727 3.6055-3.6016 9.0195-4.6797 13.727-2.7305 4.707 1.9492 7.7773 6.543 7.7773 11.637-0.007813 6.9531-5.6406 12.594-12.598 12.605z"/>
  <path d="m497.43 465.89c-10.629-5.8047-35.617-20.977-37.738-36.367-0.12891-1.043-0.67188-1.9844-1.5078-2.6172-0.83594-0.63281-1.8906-0.90234-2.9258-0.74609-2.1523 0.30078-3.6562 2.2852-3.3594 4.4375 2.5156 18.262 27.246 34.277 41.762 42.207 0.61719 0.33203 1.0352 0.94141 1.125 1.6367 0.11328 0.71875-0.12109 1.4492-0.62891 1.9688-0.62891 0.63672-1.2578 1.2539-1.8867 1.8633v-0.003906c-8.1328 7.8047-17.547 14.156-27.828 18.777-10.887-5.7969-35.887-21.922-34.586-34.723 0.21875-2.1602-1.3594-4.0898-3.5195-4.3086-2.1641-0.21875-4.0938 1.3594-4.3125 3.5234-1.6602 16.355 20.59 31.914 32.93 39.223-8.3672 2.793-17.051 4.5391-25.852 5.1875-15.246-7.8711-38.035-24.152-36.836-35.918 0.21484-2.1641-1.3633-4.0938-3.5273-4.3125-2.1641-0.21484-4.0938 1.3633-4.3125 3.5273-1.4609 14.391 16.227 28.496 29.215 36.824-7.25-0.45703-14.438-1.5859-21.48-3.375-19.785-5.0117-31.93-14.484-36.094-28.148-7.3398-24.113 11.859-54.711 14.602-57.922h0.003907c1.5312-1.3867 1.7305-3.7148 0.46094-5.3438-1.2695-1.625-3.582-1.9961-5.2969-0.84375-2.4727 1.6445-23.406 32.883-18.594 60.914 3.3438 19.484 17.801 32.598 42.988 38.965h0.003907c9.9922 2.5391 20.262 3.8242 30.57 3.832 28.594 0.28906 56.18-10.551 76.926-30.23 0.67578-0.65234 1.3555-1.3164 2.0234-1.9961 2.2383-2.2617 3.2852-5.4453 2.8281-8.5938-0.45703-3.1523-2.3633-5.9062-5.1523-7.4414z"/>
  <path d="m282.41 258.02c0 5.2461-7.8711 5.2461-7.8711 0 0-5.25 7.8711-5.25 7.8711 0"/>
 </g>
</svg>