<?xml version="1.0" encoding="UTF-8"?>
<!-- The Best Svg Icon site in the world: iconSvg.co, Visit us! https://iconsvg.co -->
<svg fill="#000000" width="800px" height="800px" version="1.1" viewBox="144 144 512 512" xmlns="http://www.w3.org/2000/svg">
 <g>
  <path d="m286.4 565.45c2.7852 0 5.0391-2.2539 5.0391-5.0391v-11.258h26.199c2.7852 0 5.0391-2.2539 5.0391-5.0391 0-2.7812-2.2539-5.0391-5.0391-5.0391h-31.238c-2.7852 0-5.0391 2.2539-5.0391 5.0391v16.297c0 2.7852 2.2539 5.0391 5.0391 5.0391z"/>
  <path d="m470.98 583.92h31.238c2.7852 0 5.0391-2.2539 5.0391-5.0391v-18.469c0-2.7812-2.2539-5.0391-5.0391-5.0391s-5.0391 2.2539-5.0391 5.0391v13.43h-26.199c-2.7852 0-5.0391 2.2539-5.0391 5.0391 0.003906 2.7812 2.2578 5.0391 5.0391 5.0391z"/>
  <path d="m535.38 253.34c-3.0273-7.9766-12.035-12.086-20.059-9.168-0.19531 0.070313-0.39062 0.15625-0.57422 0.25l-50.523 25.863 25.977-50.215c0.10938-0.20312 0.19531-0.41016 0.27734-0.625 2.8633-8.0469-1.3047-17.027-9.3398-20.035-8.0547-2.9258-17.027 1.2266-20.008 9.2617l-23.59 63.609c-16.508-8.2188-35.316 0.60547-64.473 29.605-27.773 27.625-55.504 71.262-73.875 103l-0.003906 0.003906c-0.023438 0.042969-0.046875 0.082031-0.070313 0.12109-0.10156 0.1875-0.24219 0.35547-0.32031 0.55469-15.027 25.988-25.355 46.727-26.309 48.781-0.87891 1.9102-0.48047 4.168 1.0039 5.6641 0.96484 0.97266 2.2578 1.4844 3.5703 1.4844 0.70703 0 1.418-0.14844 2.0859-0.45312 2.0547-0.93359 23.086-11.281 49.723-26.555 0.003906 0 0.003906-0.003906 0.007812-0.003906h0.003906c15.586-8.9805 29.848-17.754 42.695-26.195v63.195h-36.246c-2.7852 0-5.0391 2.2539-5.0391 5.0391 0 6.9258-5.6758 12.562-12.652 12.562-2.7852 0-5.0391 2.2539-5.0391 5.0391v27.359h-43.891c-2.7852 0-5.0391 2.2539-5.0391 5.0391v69.961c0 2.7812 2.2539 5.0391 5.0391 5.0391h251.2c2.7852 0 5.0391-2.2539 5.0391-5.0391l-0.003907-69.965c0-2.7812-2.2539-5.0391-5.0391-5.0391h-43.891v-27.355c0-2.7812-2.2539-5.0391-5.0391-5.0391-6.9766 0-12.652-5.6367-12.652-12.562 0-2.7812-2.2539-5.0391-5.0391-5.0391h-36.246v-96.637c5.4609-4.5859 10.648-9.2422 15.32-13.895 29.121-28.965 38.027-47.68 29.84-64.137l63.883-23.402c0.015625-0.003906 0.023438-0.007812 0.035157-0.011718 8.0547-3.0234 12.215-11.996 9.2578-20.062zm-20.504 338.11h-241.12v-59.887h241.12zm-44.301-379.27c1.0586-2.8594 4.2539-4.3359 7.0742-3.3125 2.7812 1.0391 4.2695 4.1055 3.4258 6.9297l-33.023 63.824c-0.03125 0.054687-0.058594 0.10937-0.082031 0.16797-0.11719-0.10547-0.23828-0.21094-0.35547-0.31641s-0.23438-0.20703-0.35156-0.31641c-0.38281-0.34375-0.75781-0.69141-1.1484-1.0273zm-96.785 182.57c-1.8164 1.2305-3.7578 2.4922-5.6406 3.7422l-32.855-32.68c6.8984-10.312 14.211-20.598 21.734-30.242l41.523 41.305c-7.5039 5.8125-15.75 11.789-24.762 17.875zm-44.152-20.352 29.879 29.719c-10.004 6.4141-20.77 12.996-32.332 19.719l-17.328-17.238c5.8281-9.9766 12.523-20.988 19.781-32.199zm-24.996 41.23 12.375 12.309 1.1016 1.0938c-11.883 6.7031-22.086 12.137-29.578 16.023 3.9141-7.4883 9.3906-17.66 16.102-29.426zm161.3 82.98v22.867l-143.27 0.003906v-22.867c8.4883-1.9219 15.188-8.5859 17.125-17.039h109.02c1.9375 8.4492 8.6367 15.113 17.125 17.035zm-84.289-27.113v-69.906c2.4766-1.6914 4.8906-3.3711 7.2617-5.0469 0.47266-0.33594 0.92578-0.66797 1.3945-1 2.3906-1.6992 4.7148-3.3906 6.9883-5.0703 0.71094-0.52344 1.418-1.0508 2.1172-1.5742 2.5898-1.9375 5.1289-3.8672 7.5508-5.7734v88.375zm43.605-117.68c-5.0391 5.0117-10.637 10.055-16.664 15.02-0.6875 0.57812-1.457 1.1719-2.1602 1.7539-0.066406-0.074219-0.089844-0.16797-0.16016-0.23828l-42.699-42.473c-0.070313-0.070313-0.16797-0.09375-0.24219-0.16016 5.5664-6.7461 11.203-13.074 16.836-18.676 3.0898-3.0742 5.9492-5.7539 8.7031-8.2656 0.23047 0.42188 0.44922 0.85156 0.80859 1.2109l42.699 42.473c0.33984 0.33594 0.74609 0.53516 1.1445 0.75391-2.5156 2.7227-5.1953 5.543-8.2656 8.6016zm14.648-15.863c-0.15234-0.20703-0.23828-0.44922-0.42578-0.64062l-42.699-42.473c-0.18359-0.18359-0.41797-0.26172-0.62109-0.41016 23.898-19.68 33.699-16.09 40.945-10.625 2.4961 1.8711 4.9102 4.1875 7.1406 6.4023 2.3672 2.3555 4.6406 4.668 6.4414 7.043 5.4453 7.207 9.0039 16.949-10.781 40.703zm82.691-73.992-66.281 24.281c-0.32812-0.37109-0.67188-0.73438-1.0078-1.1016-0.085938-0.09375-0.17578-0.19141-0.26172-0.28516-0.11719-0.125-0.22656-0.25-0.34375-0.375 0.039063-0.015625 0.074219-0.035156 0.11328-0.054687l64.195-32.863c2.8008-0.86719 5.8906 0.58594 6.9219 3.3047 1.0391 2.8281-0.45703 6.0117-3.3359 7.0938z"/>
 </g>
</svg>