<?xml version="1.0" encoding="UTF-8"?>
<!-- The Best Svg Icon site in the world: iconSvg.co, Visit us! https://iconsvg.co -->
<svg fill="#000000" width="800px" height="800px" version="1.1" viewBox="144 144 512 512" xmlns="http://www.w3.org/2000/svg">
 <path d="m596.36 453.8h-32.809c-15.508 0-28.301 11.82-29.855 26.922h-52.414l27.68-27.68 3.6406 3.6406c0.94531 0.94531 2.2266 1.4766 3.5625 1.4766 1.3359 0 2.6172-0.53125 3.5625-1.4766l31.289-31.293c1.9688-1.9688 1.9688-5.1562 0-7.125l-8.5156-8.5156 30.281-30.281c39.664-39.664 37.793-106.07-4.1641-148.03-20.289-20.285-46.828-31.91-74.73-32.738-27.965-0.77344-54.043 9.3281-73.297 28.574l-30.281 30.277-8.5195-8.5195c-1.8906-1.8906-5.2344-1.8906-7.125 0l-31.289 31.293c-1.9688 1.9688-1.9688 5.1562 0 7.125l3.6367 3.6367-147.19 147.19c-1.9688 1.9688-1.9688 5.1562 0 7.125l154.82 154.83c0.94531 0.94531 2.2266 1.4766 3.5625 1.4766 1.3359 0 2.6172-0.53125 3.5625-1.4766l50.105-50.105h121.82c1.5508 15.105 14.348 26.922 29.855 26.922h32.809c2.7812 0 5.0391-2.2539 5.0391-5.0391v-113.17c0-2.7852-2.2578-5.0391-5.0391-5.0391zm-168.65-219.4c17.27-17.266 40.648-26.41 65.879-25.629 25.324 0.74609 49.438 11.332 67.902 29.789 38.027 38.031 39.898 98.047 4.1641 133.78l-30.281 30.281-19-19 30.285-30.277c26.086-26.09 24.891-69.73-2.668-97.289-27.551-27.551-71.199-28.746-97.285-2.6602l-30.281 30.277-18.996-18.996zm-4.1602 56.398 30.281-30.277c22.156-22.16 59.406-20.969 83.039 2.6602 23.629 23.629 24.824 60.879 2.668 83.039l-30.285 30.277zm-45.324-31.074 162.11 162.11-24.164 24.168-158.46-158.46c-0.003907-0.003906-0.003907-0.003906-0.003907-0.007812-0.003906-0.003906-0.003906-0.003906-0.007812-0.003906l-3.6328-3.6328zm75.551 138.13c-7.5938 7.9648-17.969 12.496-29.035 12.496-12.316 0-23.801-5.5703-31.516-15.281-1.9141-2.4102-5.9766-2.3945-7.8906 0-7.7109 9.7109-19.199 15.281-31.512 15.281-12.316 0-23.801-5.5703-31.512-15.281-1.9141-2.4023-5.9766-2.4023-7.8906 0-7.7109 9.7109-19.199 15.281-31.512 15.281-10.922 0-21.176-4.3984-28.738-12.164l99.973-99.973zm-95.562 191.69-147.7-147.7 36.523-36.523c9.4453 9.6523 22.238 15.113 35.867 15.113 13.426 0 26.055-5.2852 35.457-14.672 9.4023 9.3867 22.035 14.672 35.457 14.672 13.426 0 26.055-5.2852 35.457-14.672 9.4062 9.3867 22.035 14.672 35.461 14.672 13.77 0 26.688-5.5938 36.16-15.445l40.934 40.934-36.289 36.289-59.301 59.309c-0.007812 0.007813-0.011719 0.011719-0.019531 0.019531zm112.99-98.746h62.332v49.25h-111.58zm120.12 76.172h-27.77c-10.992 0-19.938-8.9453-19.938-19.938l-0.003906-63.215c0-10.996 8.9453-19.941 19.938-19.941h27.77z"/>
</svg>