<?xml version="1.0" encoding="UTF-8"?>
<!-- The Best Svg Icon site in the world: iconSvg.co, Visit us! https://iconsvg.co -->
<svg fill="#000000" width="800px" height="800px" version="1.1" viewBox="144 144 512 512" xmlns="http://www.w3.org/2000/svg">
 <path d="m626.46 414.83c-1.6836-4.6133-4.4258-7.7617-8.1406-9.3516-6.2344-2.6758-12.391 0.015626-18.375 2.5977l-97.41 40.32 22.121-44.258c1.2266-2.4414 1.0859-5.3359-0.34766-7.6523-1.4336-2.3125-3.9688-3.7305-6.6914-3.7305l-304.31 0.003906c-2.8672 0-5.5117 1.5586-6.8945 4.0625-1.3867 2.5039-1.3086 5.5742 0.21875 7.9961l50.949 81.27-11.777 27.41c-5.1328-1.418-10.312-2.3789-15.586-2.3789-32.309 0-58.582 26.293-58.582 58.598 0 32.312 26.273 58.574 58.582 58.574s58.598-26.293 58.598-58.598c0-3.5898-0.39453-7.0234-0.99219-10.328l80.879-26.039 79.805 79.805c2.9453 2.9609 6.8633 4.5039 10.848 4.5039 1.9844 0 3.9844-0.37891 5.9023-1.1797 5.793-2.3945 9.5391-8.0156 9.5391-14.297v-102.98l139.38-44.871c3.1172-0.97656 7.4609-3.418 10.578-9.6055 4.668-9.3242 4.3828-22.297 1.707-29.871zm-240.9 113.09 73.539-23.68 0.51953 97.754zm119.32-119.42-24.547 49.09-69.746 28.875-109.47 39.848-27.52-44.098c-0.15625-0.36328-0.33203-0.72266-0.55078-1.0547l-45.531-72.66zm-281.91 158.09c-0.09375 0.21875-0.0625 0.45703-0.14062 0.69141-0.23438 0.72266-0.45703 1.4648-0.47266 2.25-0.015625 0.51953 0.14062 1.0078 0.23438 1.5117 0.078125 0.45703 0.046875 0.91406 0.21875 1.3711 0.015625 0.03125 0.046875 0.046875 0.0625 0.078125 0.50391 1.3086 1.418 2.3945 2.5508 3.2891 0.26953 0.20312 0.50391 0.37891 0.80469 0.55078 0.31641 0.1875 0.53516 0.45703 0.88281 0.61328 1.0078 0.42578 2.0625 0.62891 3.1016 0.62891 0.78906 0 1.6055-0.125 2.3945-0.36328l10.645-3.4336c-1.7617 5.6367-6.832 9.8086-13.051 9.8086-7.6367 0-13.855-6.2344-13.855-13.871 0-6.6289 4.7695-11.934 11.004-13.289zm25.68-19.867 5.4141-12.594c4.7695 3.2109 8.832 7.3359 11.98 12.188l-12.609 5.2422c-1.4023-1.8164-3.0078-3.4219-4.7852-4.8359zm31.941-6.457c-4.9609-8.5-11.855-15.523-20.309-20.609l7.3984-17.223 21.41 34.32zm-50.379 72.281c-23.617 0-42.84-19.223-42.84-42.855s19.223-42.855 42.84-42.855c3.1484 0 6.2812 0.42578 9.3672 1.1172l-5.3828 12.516c-1.3242-0.17188-2.6133-0.41016-3.9844-0.41016-16.328 0-29.598 13.289-29.598 29.613 0 16.328 13.289 29.613 29.598 29.613 16.328 0 29.613-13.289 29.613-29.613 0-0.42578-0.10938-0.82031-0.125-1.2422l12.941-4.1719c0.23438 1.7773 0.42578 3.5742 0.42578 5.4141-0.015624 23.652-19.223 42.875-42.855 42.875zm379.24-173.28c-0.015625 0.015625-0.046875 0.015625-0.078125 0.03125l-196.8 63.371 5.5742-2.2969 70.863-29.238c0.14062-0.0625 0.23438-0.17187 0.37891-0.23437l114.3-47.281 2.5508-1.0859c1.668-0.72266 3.9844-1.7305 5.4805-2.1719 2.1875 6.5469 0.09375 17.676-2.2695 18.906z"/>
</svg>