<?xml version="1.0" encoding="UTF-8"?>
<!-- The Best Svg Icon site in the world: iconSvg.co, Visit us! https://iconsvg.co -->
<svg fill="#000000" width="800px" height="800px" version="1.1" viewBox="144 144 512 512" xmlns="http://www.w3.org/2000/svg">
 <path d="m597.64 237.37c2.7812 0 5.0391-2.2539 5.0391-5.0391 0-2.7852-2.2539-5.0391-5.0391-5.0391-12.203 0-23.02 5.9414-29.797 15.055-2.7305-13.375-7.2109-27.348-12.023-34.223-4.293-6.1328-11.008-9.6484-18.426-9.6484s-14.133 3.5195-18.426 9.6523c-4.8125 6.875-9.293 20.852-12.023 34.223-6.7773-9.1133-17.594-15.055-29.797-15.055-2.7812 0-5.0391 2.2539-5.0391 5.0391 0 2.7852 2.2539 5.0391 5.0391 5.0391 14.934 0 27.078 12.148 27.078 27.078 0 0.011719 0.007813 0.019531 0.007813 0.03125 0 0.078125-0.007813 0.16406-0.007813 0.23828 0 33.023 13.742 46.973 28.129 49.535v40.508c-6.7852-7.2422-16.398-11.797-27.078-11.797-2.7812 0-5.0391 2.2539-5.0391 5.0391 0 2.7852 2.2539 5.0391 5.0391 5.0391 14.934 0 27.078 12.148 27.078 27.078v27.871c-6.7852-7.2422-16.398-11.797-27.078-11.797-2.7812 0-5.0391 2.2539-5.0391 5.0391 0 2.7852 2.2539 5.0391 5.0391 5.0391 14.934 0 27.078 12.148 27.078 27.078v27.871c-6.7852-7.2422-16.398-11.797-27.078-11.797-2.7812 0-5.0391 2.2539-5.0391 5.0391s2.2539 5.0391 5.0391 5.0391c14.934 0 27.078 12.148 27.078 27.078v27.871c-6.7852-7.2422-16.398-11.797-27.078-11.797-2.7812 0-5.0391 2.2539-5.0391 5.0391 0 2.7852 2.2539 5.0391 5.0391 5.0391 14.934 0 27.078 12.148 27.078 27.078l0.003907 51.629h-128.59v-13.578c0.09375 0 0.16797 0.003906 0.26562 0.003906 9.6992 0 30.016-1.7188 43.551-14.879 17.93-17.43 16.18-47.383 16.098-48.648-0.16406-2.4648-2.0898-4.4492-4.5469-4.6836-0.98047-0.097656-19.562-1.6992-36.191 6.0156 2.2852-5.7422 3.8047-12.078 3.7461-18.785-0.23047-26.117-24.098-46.387-25.113-47.23-1.8945-1.5938-4.6641-1.5664-6.5352 0.058594-1 0.86719-24.5 21.555-24.27 47.672 0.050781 5.8438 1.3242 11.367 3.2227 16.477-15.699-6.8867-32.484-5.918-33.434-5.8633-2.4648 0.16406-4.4492 2.0898-4.6836 4.5469-0.12109 1.2656-2.7578 31.148 14.641 49.105 13.188 13.617 33.531 15.902 43.176 16.18l-0.003906 13.609h-126.04v-27.363c0-14.934 12.148-27.078 27.078-27.078 2.7812 0 5.0391-2.2539 5.0391-5.0391s-2.2539-5.0391-5.0391-5.0391c-10.68 0-20.297 4.5547-27.078 11.797v-27.871c0-14.934 12.148-27.078 27.078-27.078 2.7812 0 5.0391-2.2539 5.0391-5.0391s-2.2539-5.0391-5.0391-5.0391c-10.68 0-20.297 4.5547-27.078 11.797v-27.871c0-14.934 12.148-27.078 27.078-27.078 2.7812 0 5.0391-2.2539 5.0391-5.0391s-2.2539-5.0391-5.0391-5.0391c-10.68 0-20.297 4.5547-27.078 11.797v-27.875c0-14.934 12.148-27.078 27.078-27.078 2.7812 0 5.0391-2.2539 5.0391-5.0391 0-2.7852-2.2539-5.0391-5.0391-5.0391-10.68 0-20.297 4.5547-27.078 11.797v-64.77c14.387-2.5625 28.129-16.508 28.129-49.535 0-0.078125-0.003907-0.16406-0.007813-0.23828 0-0.011719 0.007813-0.019531 0.007813-0.03125 0-14.934 12.148-27.078 27.078-27.078 2.7812 0 5.0391-2.2539 5.0391-5.0391 0-2.7852-2.2539-5.0391-5.0391-5.0391-12.203 0-23.02 5.9414-29.797 15.055-2.7305-13.375-7.2109-27.348-12.023-34.223-4.293-6.1367-11.008-9.6523-18.426-9.6523s-14.133 3.5195-18.426 9.6523c-4.8125 6.875-9.293 20.848-12.023 34.223-6.7773-9.1133-17.594-15.055-29.797-15.055-2.7812 0-5.0391 2.2539-5.0391 5.0391 0 2.7852 2.2539 5.0391 5.0391 5.0391 14.934 0 27.078 12.148 27.078 27.078 0 0.011719 0.007812 0.019531 0.007812 0.03125 0 0.078125-0.007812 0.16406-0.007812 0.23828 0 33.023 13.742 46.973 28.129 49.535v40.508c-6.7852-7.2422-16.398-11.797-27.078-11.797-2.7812 0-5.0391 2.2539-5.0391 5.0391 0 2.7852 2.2539 5.0391 5.0391 5.0391 14.934 0 27.078 12.148 27.078 27.078v27.871c-6.7852-7.2422-16.398-11.797-27.078-11.797-2.7812 0-5.0391 2.2539-5.0391 5.0391 0 2.7852 2.2539 5.0391 5.0391 5.0391 14.934 0 27.078 12.148 27.078 27.078v27.871c-6.7852-7.2422-16.398-11.797-27.078-11.797-2.7812 0-5.0391 2.2539-5.0391 5.0391s2.2539 5.0391 5.0391 5.0391c14.934 0 27.078 12.148 27.078 27.078v27.871c-6.7852-7.2422-16.398-11.797-27.078-11.797-2.7812 0-5.0391 2.2539-5.0391 5.0391 0 2.7852 2.2539 5.0391 5.0391 5.0391 14.934 0 27.078 12.148 27.078 27.078v51.629h-54.055c-2.7812 0-5.0391 2.2539-5.0391 5.0391s2.2539 5.0391 5.0391 5.0391h392.97c2.7812 0 5.0391-2.2539 5.0391-5.0391s-2.2539-5.0391-5.0391-5.0391h-54.055v-27.363c0-14.934 12.148-27.078 27.078-27.078 2.7812 0 5.0391-2.2539 5.0391-5.0391s-2.2539-5.0391-5.0391-5.0391c-10.68 0-20.297 4.5547-27.078 11.797v-27.871c0-14.934 12.148-27.078 27.078-27.078 2.7812 0 5.0391-2.2539 5.0391-5.0391s-2.2539-5.0391-5.0391-5.0391c-10.68 0-20.297 4.5547-27.078 11.797v-27.871c0-14.934 12.148-27.078 27.078-27.078 2.7812 0 5.0391-2.2539 5.0391-5.0391s-2.2539-5.0391-5.0391-5.0391c-10.68 0-20.297 4.5547-27.078 11.797v-27.875c0-14.934 12.148-27.078 27.078-27.078 2.7812 0 5.0391-2.2539 5.0391-5.0391 0-2.7852-2.2539-5.0391-5.0391-5.0391-10.68 0-20.297 4.5547-27.078 11.797v-64.77c14.387-2.5625 28.129-16.512 28.129-49.535 0-0.078125-0.003906-0.16406-0.007813-0.23828 0-0.011719 0.007813-0.019531 0.007813-0.03125 0-14.934 12.148-27.082 27.078-27.082zm-144 282.18c-0.25 8.1914-2.1445 25.586-13.09 36.227-10.895 10.594-28.332 11.984-36.527 12.004 0.25-8.1914 2.1445-25.586 13.086-36.227 10.895-10.59 28.332-11.984 36.531-12.004zm-55.246-59.035c5.9961 6.0703 18.066 20.301 18.207 36.473 0.14453 16.184-11.684 30.621-17.562 36.801-5.9922-6.0508-18.055-20.242-18.199-36.48-0.14062-16.176 11.672-30.617 17.555-36.793zm-52.641 57.523c8.1836 0.25391 25.527 2.1484 36.141 13.113 10.582 10.918 11.973 28.398 11.992 36.609-8.1797-0.25391-25.527-2.1484-36.141-13.105-10.582-10.926-11.973-28.406-11.992-36.617zm-106.24-253.31c0-14.82 7.0039-42.367 12.922-50.82 2.3789-3.3984 6.0859-5.3516 10.168-5.3516s7.7891 1.9531 10.168 5.3516c5.918 8.4531 12.922 36 12.922 50.82 0 24.633-8.8477 39.938-23.094 39.938-14.238 0-23.086-15.305-23.086-39.938zm297.88 39.938c-14.242 0-23.094-15.301-23.094-39.938 0-14.82 7.0039-42.367 12.922-50.82 2.3867-3.3984 6.0938-5.3516 10.172-5.3516 4.082 0 7.7891 1.9531 10.168 5.3516 5.918 8.4531 12.922 36 12.922 50.82 0 24.633-8.8477 39.938-23.09 39.938z"/>
</svg>