<?xml version="1.0" encoding="UTF-8"?>
<!-- The Best Svg Icon site in the world: iconSvg.co, Visit us! https://iconsvg.co -->
<svg fill="#000000" width="800px" height="800px" version="1.1" viewBox="144 144 512 512" xmlns="http://www.w3.org/2000/svg">
 <path d="m572.74 221.33 6.2266-44.047c0.20312-1.4453-0.23047-2.9062-1.1875-4.0117-0.95703-1.1016-2.3438-1.7344-3.8047-1.7344h-347.96c-1.457 0-2.8477 0.63281-3.8047 1.7344-0.95703 1.1016-1.3906 2.5625-1.1875 4.0117l6.2266 44.047v370.47l-6.1758 30.621c-0.29688 1.4805 0.082031 3.0156 1.0391 4.1875 0.95703 1.168 2.3867 1.8438 3.8984 1.8438h347.96c1.5117 0 2.9414-0.67969 3.8984-1.8438 0.95703-1.1719 1.3398-2.707 1.0391-4.1875l-6.1758-30.621zm-340.57 397.05 4.0195-19.918h327.61l4.0195 19.918zm5.1602-29.992v-363.89h325.33v363.89zm326.21-373.97h-327.09l-4.6367-32.805h336.36zm-213 114c-2.7578 6.543-4.2539 13.625-4.2539 20.832v48.355l-6.8672 54.746c-0.36328 2.8633 0.52734 5.75 2.4375 7.918 1.9141 2.168 4.668 3.4141 7.5586 3.4141h101.16c2.8867 0 5.6445-1.2461 7.5547-3.4102 1.9102-2.1641 2.8008-5.0547 2.4414-7.918l-6.8672-54.75v-46.691c0-7.9141-1.668-15.445-4.5938-22.289 8.1953-4.8008 13.727-13.68 13.727-23.844 0-15.238-12.402-27.637-27.645-27.637-2.0547 0-4.0977 0.24219-6.1133 0.71875-3.7578-12.707-15.332-21.672-29.082-21.672s-25.324 8.9609-29.086 21.672c-2.0156-0.48047-4.0586-0.72266-6.1172-0.72266-15.238 0-27.637 12.398-27.637 27.637 0.003906 10.027 5.3828 18.793 13.387 23.641zm100.04 125.19h-101.16l6.9062-55.059c0.027343-0.20703 0.039062-0.41406 0.039062-0.625v-48.668c0-12.191 4.8984-23.5 13.801-31.84 8.1758-7.6641 18.664-11.793 29.805-11.793 0.97266 0 1.957 0.03125 2.9414 0.097656 22.832 1.4727 40.719 21.328 40.719 45.199v47.004c0 0.21094 0.011719 0.41797 0.039063 0.625zm-85.781-166.39c2.6016 0 5.1992 0.63281 7.7266 1.8828 1.4922 0.74219 3.2578 0.69531 4.7148-0.12891 1.4531-0.82031 2.4062-2.3086 2.543-3.9688 0.88281-10.68 9.5742-18.738 20.219-18.738 10.641 0 19.332 8.0547 20.215 18.734 0.13672 1.6641 1.0898 3.1484 2.543 3.9688 1.4531 0.82031 3.2188 0.87109 4.7109 0.12891 2.5312-1.25 5.1289-1.8828 7.7266-1.8828 9.6875 0 17.566 7.8789 17.566 17.562 0 6.3359-3.4023 11.848-8.4453 14.938-9.0273-13.629-23.758-22.965-40.754-24.062-15.02-0.97266-29.34 4.1445-40.285 14.402-3.0391 2.8477-5.6641 6.0508-7.9375 9.4766-4.8594-3.1289-8.1016-8.5547-8.1016-14.754-0.003906-9.6758 7.875-17.559 17.559-17.559zm13.887 76.172c-2.1289 4.3477-1.6133 9.4297 1.3516 13.254l11.996 15.48c1.9219 2.4844 4.8281 3.9062 7.9648 3.9062 3.1406 0 6.043-1.4219 7.9648-3.9062l11.992-15.477c2.9688-3.8281 3.4883-8.9062 1.3594-13.258-2.1289-4.3477-6.4648-7.0547-11.312-7.0547h-20.008c-4.8398 0-9.1758 2.7031-11.309 7.0547zm9.0469 4.4336c0.21094-0.42578 0.84375-1.4102 2.2617-1.4102h20.008c1.418 0 2.0547 0.98828 2.2617 1.4102 0.20703 0.42578 0.59375 1.5312-0.27344 2.6523l-11.996 15.48-11.996-15.484c-0.86328-1.1172-0.47266-2.2227-0.26562-2.6484zm26.883-26.945c0-4.0078 3.2461-7.2539 7.2539-7.2539 4.0078 0 7.2539 3.2461 7.2539 7.2539 0 4.0078-3.2461 7.2539-7.2539 7.2539-4.0117 0-7.2539-3.2461-7.2539-7.2539zm-43.734 0c0-4.0078 3.2461-7.2539 7.2539-7.2539 4.0039 0 7.2539 3.2461 7.2539 7.2539 0 4.0078-3.25 7.2539-7.2539 7.2539-4.0078 0-7.2539-3.2461-7.2539-7.2539zm67.301 81.219c0 4.7773-1.3789 9.4023-3.9883 13.379-3.3047 5.043-8.7266 8-14.867 8.1016-6.2695 0-12.281-2.9023-15.918-8.0547l-3.4062-4.832-3.4062 4.832c-3.5664 5.0625-9.375 8.0586-15.586 8.0586-0.10937 0-0.21484-0.003906-0.32422-0.003906-6.1445-0.10156-11.562-3.0547-14.875-8.0977-2.6094-3.9805-3.9883-8.6094-3.9883-13.383 0-13.461 10.953-24.414 24.414-24.414 2.7812 0 5.0391 2.2539 5.0391 5.0391s-2.2539 5.0391-5.0391 5.0391c-7.9062 0-14.336 6.4297-14.336 14.336 0 2.8047 0.80859 5.5195 2.3398 7.8555 1.4492 2.2109 3.8594 3.5039 6.6133 3.5469 3 0.29688 5.7969-1.3594 7.5039-3.7852l7.5234-10.672c1.8906-2.6758 6.3477-2.6758 8.2344 0l7.5234 10.672c1.707 2.4141 4.3867 3.6641 7.5078 3.7852 2.7539-0.042969 5.1641-1.3438 6.6133-3.5508 1.5312-2.332 2.3398-5.0469 2.3398-7.8516 0-7.9062-6.4297-14.336-14.336-14.336-2.7812 0-5.0391-2.2539-5.0391-5.0391s2.2539-5.0391 5.0391-5.0391c13.465 0 24.418 10.953 24.418 24.414zm-103.9 76.879c0-2.7852 2.2539-5.0391 5.0391-5.0391h121.36c2.7812 0 5.0391 2.2539 5.0391 5.0391 0 2.7852-2.2539 5.0391-5.0391 5.0391h-121.36c-2.7812 0-5.0391-2.2539-5.0391-5.0391zm142.92 37.859c0 2.7852-2.2539 5.0391-5.0391 5.0391h-144.33c-2.7812 0-5.0391-2.2539-5.0391-5.0391 0-2.7852 2.2539-5.0391 5.0391-5.0391h144.33c2.7852 0.003906 5.0391 2.2578 5.0391 5.0391z"/>
</svg>