<?xml version="1.0" encoding="UTF-8"?>
<!-- The Best Svg Icon site in the world: iconSvg.co, Visit us! https://iconsvg.co -->
<svg fill="#000000" width="800px" height="800px" version="1.1" viewBox="144 144 512 512" xmlns="http://www.w3.org/2000/svg">
 <g>
  <path d="m403.54 242.01c-9.6055-12.125-23.777-19.129-38.891-19.129h-40.148c-15.113 0-29.285 7.0078-38.887 19.129-10.547 13.305-14.328 30.543-10.391 47.312l5.3516 12.594 1.1016-3.3867h14.484l-5.7461-13.461c-2.5977-11.809 0.15625-23.93 7.5586-33.219 6.6133-8.4219 16.297-13.227 26.527-13.227h40.148c10.234 0 19.914 4.8008 26.527 13.227 7.3984 9.2891 10.156 21.41 7.5586 33.219l-5.7461 13.461h14.484l1.1016 3.4648 4.8789-11.336 0.47266-1.3398c3.9375-16.766 0.16016-34.004-10.387-47.309z"/>
  <path d="m451.13 509.58c-2.832 3.8555-7.2422 6.0625-12.043 6.0625l-189.09-0.003906c-4.8008 0-9.2109-2.2031-12.043-6.0625-2.8359-3.9375-3.6992-8.8164-2.2031-13.383l57.387-181.92h102.81l57.387 181.92c1.4961 4.5703 0.62891 9.4492-2.207 13.387z"/>
  <path d="m381.58 531.38c-3.6211 17.082-18.812 29.992-37 29.992-18.184 0-33.379-12.91-37-29.992z"/>
  <path d="m564.96 285.86c0 17.391-14.098 31.488-31.488 31.488-17.391 0-31.488-14.098-31.488-31.488s14.098-31.488 31.488-31.488c17.391 0 31.488 14.098 31.488 31.488"/>
  <path d="m549.22 330.33v215.3c0 8.6602-7.0859 15.742-15.742 15.742-8.6602 0-15.742-7.0859-15.742-15.742l-0.003906-215.3c4.9609 1.8125 10.234 2.7539 15.742 2.7539 5.5156 0 10.789-0.94531 15.746-2.7539z"/>
 </g>
</svg>