<?xml version="1.0" encoding="UTF-8"?>
<!-- The Best Svg Icon site in the world: iconSvg.co, Visit us! https://iconsvg.co -->
<svg fill="#000000" width="800px" height="800px" version="1.1" viewBox="144 144 512 512" xmlns="http://www.w3.org/2000/svg">
 <g>
  <path d="m406.92 295.95c0.98438 0.98438 2.2734 1.4766 3.5625 1.4766s2.5781-0.49219 3.5625-1.4766c1.9688-1.9688 1.9688-5.1562 0-7.125l-8.8945-8.8945c-1.9688-1.9688-5.1562-1.9688-7.125 0s-1.9688 5.1562 0 7.125z"/>
  <path d="m431.67 320.7c0.98438 0.98438 2.2734 1.4766 3.5625 1.4766s2.5781-0.49219 3.5625-1.4766c1.9688-1.9688 1.9688-5.1562 0-7.125l-8.8945-8.8945c-1.9688-1.9688-5.1562-1.9688-7.125 0s-1.9688 5.1562 0 7.125z"/>
  <path d="m539.01 241.43c0.98438 0.98437 2.2734 1.4766 3.5625 1.4766 1.2891 0 2.5781-0.49219 3.5625-1.4766 1.9688-1.9688 1.9688-5.1562 0-7.125l-8.8945-8.8945c-1.9688-1.9688-5.1562-1.9688-7.125 0s-1.9688 5.1562 0 7.125z"/>
  <path d="m563.77 266.19c0.98438 0.98438 2.2734 1.4766 3.5625 1.4766 1.2891 0 2.5781-0.49219 3.5625-1.4766 1.9688-1.9688 1.9688-5.1562 0-7.125l-8.8984-8.8984c-1.9688-1.9688-5.1562-1.9688-7.125 0s-1.9688 5.1562 0 7.125z"/>
  <path d="m596.48 198.48h-260.88c-2.7852 0-5.0391 2.2539-5.0391 5.0391v49.48l-127.05-0.003906c-2.7852 0-5.0391 2.2539-5.0391 5.0391l0.003906 338.45c0 2.7852 2.2539 5.0391 5.0391 5.0391h260.88c2.7852 0 5.0391-2.2539 5.0391-5.0391v-49.48h127.05c2.7852 0 5.0391-2.2539 5.0391-5.0391v-338.45c0-2.7852-2.2539-5.0352-5.0391-5.0352zm-255.84 10.074h165.49l8.1289 8.1289c0.98438 0.98437 2.2734 1.4766 3.5625 1.4766 1.2891 0 2.5781-0.49219 3.5625-1.4766 1.9688-1.9688 1.9688-5.1562 0-7.125l-1.0039-1.0039h71.062v71.066l-4.6953-4.6953c-1.9688-1.9688-5.1562-1.9688-7.125 0s-1.9688 5.1562 0 7.125l3.4922 3.4922h-113.69v-27.508c0-2.7852-2.2539-5.0391-5.0391-5.0391h-123.75zm33.395 54.52 8.1289 8.1289c0.98438 0.98438 2.2734 1.4766 3.5625 1.4766 1.2891 0 2.5781-0.49219 3.5625-1.4766 1.9688-1.9688 1.9688-5.1562 0-7.125l-1.0039-1.0039h71.066v71.066l-4.6953-4.6953c-1.9688-1.9688-5.1562-1.9688-7.125 0s-1.9688 5.1562 0 7.125l3.4922 3.4922h-242.48v-76.988zm-165.49 328.38v-241.31h250.8l0.003907 241.31zm260.88-54.52v-241.31h122.02v241.31z"/>
  <path d="m352.97 417.62-8.0352-1.2773 1.2773-8.0312c0.4375-2.75-1.4375-5.332-4.1836-5.7656-2.793-0.44922-5.3281 1.4375-5.7656 4.1836l-1.2773 8.0312-8.0312-1.2773c-2.8008-0.44922-5.3281 1.4375-5.7656 4.1836-0.4375 2.75 1.4375 5.3281 4.1836 5.7656l8.0352 1.2773-1.2773 8.0312c-0.4375 2.75 1.4375 5.332 4.1836 5.7656 0.26953 0.042969 0.53516 0.0625 0.79688 0.0625 2.4336 0 4.5742-1.7656 4.9688-4.2461l1.2773-8.0312 8.0312 1.2773c0.26953 0.042969 0.53516 0.0625 0.79688 0.0625 2.4336 0 4.5742-1.7656 4.9688-4.2461 0.4375-2.75-1.4375-5.3281-4.1836-5.7656z"/>
  <path d="m403.15 406.75c-8.4062-1.332-16.996 0.042969-24.523 3.7812-1.2539-4.9453-3.4258-9.6602-6.5117-13.91-6.3867-8.7969-15.816-14.582-26.555-16.285-10.742-1.707-21.496 0.86719-30.293 7.2578-8.8008 6.3867-14.586 15.812-16.289 26.547-3.5234 22.164 11.645 43.066 33.805 46.582 2.1562 0.34375 4.2969 0.50781 6.4102 0.50781 6.4375 0 12.609-1.5586 18.137-4.3242 3.9297 15.473 16.801 27.652 33.047 30.234 2.1641 0.34375 4.3242 0.51562 6.4766 0.51562 8.5156 0 16.797-2.6719 23.824-7.7695 8.7969-6.3867 14.582-15.816 16.285-26.555 1.707-10.734-0.87109-21.496-7.2578-30.293-6.3867-8.8008-15.816-14.59-26.555-16.289zm-68.781 44.023c-16.68-2.6523-28.09-18.375-25.441-35.051 1.2852-8.0781 5.6367-15.172 12.262-19.98 5.2852-3.8359 11.512-5.8438 17.922-5.8438 1.6133 0 3.2422 0.12891 4.8672 0.38281 8.0781 1.2852 15.18 5.6367 19.98 12.254 4.8008 6.6211 6.7461 14.715 5.4609 22.793-2.6484 16.684-18.367 28.105-35.051 25.445zm92.641 0.97266c-2.6523 16.68-18.375 28.074-35.051 25.441-13.523-2.1523-23.855-13.152-25.488-26.551 6.6406-6.0117 11.383-14.207 12.891-23.723 0.28906-1.8164 0.41016-3.6328 0.45703-5.4414 6.4141-4.2852 14.062-5.9961 21.746-4.7773 16.684 2.6523 28.094 18.379 25.445 35.051z"/>
  <path d="m410.56 444.04-8.0312-1.2773 1.2773-8.0312c0.4375-2.75-1.4375-5.3281-4.1836-5.7656-2.8008-0.45703-5.3281 1.4375-5.7656 4.1836l-1.2773 8.0352-8.0312-1.2773c-2.7852-0.4375-5.3281 1.4375-5.7656 4.1836-0.4375 2.75 1.4375 5.332 4.1836 5.7656l8.0312 1.2773-1.2773 8.0312c-0.4375 2.75 1.4375 5.3281 4.1836 5.7656 0.26953 0.042968 0.53516 0.0625 0.79688 0.0625 2.4336 0 4.5742-1.7656 4.9688-4.2461l1.2773-8.0352 8.0312 1.2773c0.26953 0.042969 0.53516 0.0625 0.79688 0.0625 2.4336 0 4.5742-1.7656 4.9688-4.2461 0.4375-2.75-1.4375-5.3359-4.1836-5.7656z"/>
  <path d="m283.81 484.48h-8.1328v-8.1328c0-2.7852-2.2539-5.0391-5.0391-5.0391s-5.0391 2.2539-5.0391 5.0391v8.1328h-8.1328c-2.7852 0-5.0391 2.2539-5.0391 5.0391s2.2539 5.0391 5.0391 5.0391h8.1328v8.1328c0 2.7852 2.2539 5.0391 5.0391 5.0391s5.0391-2.2539 5.0391-5.0391v-8.1328h8.1328c2.7852 0 5.0391-2.2539 5.0391-5.0391s-2.2539-5.0391-5.0391-5.0391z"/>
  <path d="m319.47 489.58c-2.7734 0-5.5078 0.27734-8.1758 0.82422 0.007813-0.29688 0.042969-0.58594 0.042969-0.88672 0-22.445-18.258-40.703-40.699-40.703s-40.699 18.258-40.699 40.703c0 22.441 18.258 40.699 40.699 40.699 2.8008 0 5.5391-0.28516 8.1836-0.82812-0.007813 0.30078-0.050781 0.59766-0.050781 0.89453 0 22.441 18.258 40.699 40.699 40.699 22.445 0 40.703-18.258 40.703-40.699 0-22.445-18.258-40.703-40.703-40.703zm-79.453-0.066406c0-16.887 13.738-30.629 30.621-30.629 16.887 0 30.621 13.742 30.621 30.629s-13.738 30.621-30.621 30.621c-16.883 0.003907-30.621-13.734-30.621-30.621zm79.453 71.391c-16.887 0-30.621-13.738-30.621-30.621 0-1.5508 0.16016-3.0859 0.38672-4.6094 9.6875-5.0039 17.125-13.762 20.344-24.355 3.168-1.0859 6.4805-1.6602 9.8906-1.6602 16.887 0 30.629 13.742 30.629 30.629 0 16.879-13.742 30.617-30.629 30.617z"/>
  <path d="m332.64 525.24h-8.1328v-8.1328c0-2.7852-2.2539-5.0391-5.0391-5.0391s-5.0391 2.2539-5.0391 5.0391v8.1328h-8.1328c-2.7852 0-5.0391 2.2539-5.0391 5.0391s2.2539 5.0391 5.0391 5.0391h8.1328v8.1328c0 2.7852 2.2539 5.0391 5.0391 5.0391s5.0391-2.2539 5.0391-5.0391v-8.1328h8.1328c2.7852 0 5.0391-2.2539 5.0391-5.0391-0.003906-2.7852-2.2539-5.0391-5.0391-5.0391z"/>
 </g>
</svg>