<?xml version="1.0" encoding="UTF-8"?>
<!-- The Best Svg Icon site in the world: iconSvg.co, Visit us! https://iconsvg.co -->
<svg fill="#000000" width="800px" height="800px" version="1.1" viewBox="144 144 512 512" xmlns="http://www.w3.org/2000/svg">
 <g>
  <path d="m495.4 421.73c-0.77734-0.49219-1.6484-0.85156-2.6367-0.85156h-42.109l-11.531-4.5664c0.65625-0.63281 1.3242-1.2383 1.9609-1.9023 0.625-0.44531 1.1523-0.98437 1.5117-1.6406 14.133-15.652 23.133-38.863 23.133-64.785 0-2.5898 0.035156-5.1523 0.070312-7.6758 0.035157-2.6602 0-5.1797-0.003906-7.75h26.965c13.738 0 24.918-11.09 24.918-24.719s-11.18-24.719-24.918-24.719h-20.207v-52.477c0-16.547-15.445-30.621-35.16-32.039-12.785-0.91406-25.332 3.1992-33.551 11.055-1.832 1.7773-5.8633 1.7773-7.7266-0.023437-8.1953-7.832-20.742-11.957-33.527-11.031-19.715 1.418-35.16 15.492-35.16 32.039v52.477h-20.207c-13.738 0-24.918 11.09-24.918 24.719 0 13.633 11.18 24.719 24.918 24.719h26.938c-0.027344 3.1016-0.078125 6.168-0.058594 9.3867l0.023438 6.043c0 26.465 9.3516 50.148 24 65.801 0.16016 0.16797 0.30859 0.33203 0.49219 0.47656 0.69531 0.73047 1.4336 1.3945 2.1523 2.0859l-11.438 4.5273h-42.102c-0.89062 0-1.6836 0.34375-2.4102 0.8125-28.055 4.5273-49.012 28.734-49.012 57.098v117.69c0 2.7812 2.2539 5.0391 5.0391 5.0391h278.3c2.7812 0 5.0391-2.2539 5.0391-5.0391v-117.69c0-28.305-20.871-52.465-48.785-57.059zm-127.64-12.457c5.1523-10.512 17.863-17.676 32.219-17.676 14.32 0 27.008 7.1328 32.184 17.609-9.1094 8.7617-20.219 13.969-32.234 13.969-11.984 0-23.07-5.1836-32.168-13.902zm-30.25-134.74h124.97v8.4883h-124.97zm0-31.004h124.97v20.93h-124.97zm25.805-34.879c10-0.74219 19.668 2.3633 25.82 8.2422 5.6836 5.5039 16.035 5.5039 21.695 0.023437 6.168-5.8984 15.797-9.0195 25.844-8.2656 14.469 1.0391 25.805 10.699 25.805 21.988v2.8125h-124.97v-2.8125c0-11.289 11.336-20.949 25.805-21.988zm-70.93 99.184c0-8.0742 6.6562-14.641 14.84-14.641h185.54c8.1836 0 14.84 6.5664 14.84 14.641 0 8.0742-6.6562 14.645-14.84 14.645h-185.54c-8.1836 0-14.84-6.5703-14.84-14.645zm51.797 34.047c-0.015625-3.1641-0.035156-6.2773-0.007812-9.3281h111.62c0.003906 2.4922-0.03125 5.0312-0.070313 7.6094-0.035156 2.5703-0.070312 5.1797-0.070312 7.8164 0 20.809-6.3047 39.664-16.461 53.293-7.7227-11.898-22.672-19.758-39.215-19.758-16.574 0-31.551 7.8867-39.258 19.82-10.188-13.633-16.516-32.512-16.516-53.355zm55.746 91.367c11 0 21.359-3.5586 30.48-9.7695 0.28516 0.19141 0.53125 0.42969 0.86328 0.55859l13.383 5.3008v37.457l-89.32 0.003907v-37.457l13.383-5.3008c0.30859-0.12109 0.52734-0.34766 0.79688-0.51562 9.1055 6.1758 19.438 9.7227 30.414 9.7227zm-134.05 45.539c0-21.957 15.238-40.898 36.309-46.277v158.93h-36.309zm46.383 112.65v-160.43c0.65625-0.023437 1.2891-0.0625 1.9844-0.0625h31.008v40.883c0 2.7812 2.2539 5.0391 5.0391 5.0391h99.395c2.7812 0 5.0391-2.2539 5.0391-5.0391v-40.883h31.008c0.69531 0 1.332 0.035157 1.9844 0.0625v160.43zm221.84 0h-36.309v-158.93c21.047 5.3594 36.309 24.312 36.309 46.285z"/>
  <path d="m446.38 519.29h-92.77c-2.7812 0-5.0391 2.2539-5.0391 5.0391v23.562c0 15.105 12.289 27.395 27.395 27.395h48.055c15.105 0 27.395-12.289 27.395-27.395l0.003906-23.566c0-2.7812-2.2578-5.0352-5.0391-5.0352zm-5.0391 28.602c0 9.5508-7.7695 17.32-17.32 17.32l-48.051-0.003906c-9.5508 0-17.32-7.7695-17.32-17.32v-18.523h82.691z"/>
 </g>
</svg>