<?xml version="1.0" encoding="UTF-8"?>
<!-- The Best Svg Icon site in the world: iconSvg.co, Visit us! https://iconsvg.co -->
<svg fill="#000000" width="800px" height="800px" version="1.1" viewBox="144 144 512 512" xmlns="http://www.w3.org/2000/svg">
 <g>
  <path d="m540.05 198.48h-277.09c-2.7852 0-5.0391 2.2539-5.0391 5.0391v37.785c0 2.7852 2.2539 5.0391 5.0391 5.0391h1.5742v307.32h-1.5742c-2.7852 0-5.0391 2.2539-5.0391 5.0391v37.781c0 2.7852 2.2539 5.0391 5.0391 5.0391h277.09c2.7852 0 5.0391-2.2539 5.0391-5.0391v-37.785c0-2.7852-2.2539-5.0391-5.0391-5.0391h-1.5742v-307.32h1.5742c2.7852 0 5.0391-2.2539 5.0391-5.0391v-37.785c0-2.7852-2.2539-5.0352-5.0391-5.0352zm-272.06 10.074h267.02v27.711h-267.02zm260.41 294.79h-253.79v-206.68h253.79zm6.6133 88.105h-267.02v-27.711h267.02zm-260.41-37.785v-40.246h253.79v40.246zm253.79-267.08h-253.79v-40.246h253.79z"/>
  <path d="m336.21 465.28c8.5547 8.5547 20.746 12.281 34.125 12.281 23.898 0 51.57-11.887 69.023-29.344 6.2617-6.2617 11.199-13.387 14.891-21.145 0.875 0.39453 1.4688 0.62891 1.6016 0.67969 0.57422 0.21484 1.1758 0.32422 1.7812 0.32422 0.72656 0 1.4531-0.15625 2.1211-0.46875 1.2305-0.57031 2.1797-1.6133 2.6289-2.8945 6.3438-17.93 4.5664-37.82-4.668-55.559l14.852-11.719c0.15625-0.12109 0.30469-0.25 0.44141-0.39453 3.8516-3.8516 6.0039-8.9531 6.0508-14.371 0.042969-5.4531-2.0352-10.559-5.8633-14.383-3.8281-3.8281-8.8672-5.7188-14.383-5.8633-5.418 0.050781-10.52 2.1992-14.371 6.0508-0.13281 0.13281-0.25391 0.26953-0.36719 0.41406l-11.66 14.566c-16.754-9.332-37-11.086-55.547-4.4531-1.3242 0.47266-2.3867 1.4727-2.9375 2.7617-0.55078 1.2852-0.54688 2.7461 0.023437 4.0234 0.054688 0.12109 0.28516 0.62109 0.65625 1.3633-7.832 3.6992-15.023 8.6641-21.336 14.977-27.223 27.227-40.902 79.312-17.062 103.15zm115.54-129.85c1.9492-1.8633 4.4766-2.8984 7.1523-2.9219h0.089844c2.6914 0 5.1992 1.0312 7.0781 2.9141 1.9023 1.8984 2.9375 4.4492 2.9141 7.168-0.023437 2.6719-1.0547 5.1953-2.9141 7.1445l-13.633 10.754c-4.0508-5.4492-8.8047-9.4609-11.535-11.516zm-18.707 20.301c0.078125 0.050781 7.8125 5.0625 12.719 12.742 9.4414 14.785 12.516 31.754 8.7539 47.379-5.9688-3.5-15.652-10.848-18.977-23.094-0.42969-1.5781-1.5938-2.8555-3.1289-3.4141-0.56641-0.20312-1.1523-0.30469-1.7305-0.30469-1.0078 0-2.0117 0.30469-2.8633 0.89062-6.5195 4.5078-16.051 9.5898-26.312 10.082 0.49219-10.473 5.7578-20.168 10.418-26.797 0.95312-1.3633 1.1797-3.1094 0.59375-4.668-0.58594-1.5586-1.9023-2.7266-3.5234-3.125-11.398-2.7852-19.148-12.555-23.008-18.652 16.223-3.9805 33.371-0.83203 47.059 8.9609zm-53.121 0.050781c4.3086 5.9492 10.973 13.094 20.168 17.191-5.1055 8.6562-9.6445 20.094-8.5312 32.414 0.22266 2.4258 2.1406 4.3438 4.5664 4.5664 12.109 1.0859 23.395-3.2969 31.938-8.25 4.3047 9.6445 11.449 16.211 17.426 20.352-3.2188 6.9922-7.6211 13.406-13.25 19.039-23.355 23.355-69.891 36.059-88.898 17.062-19.008-19.008-6.293-65.543 17.062-88.898 5.7578-5.7656 12.34-10.238 19.52-13.477z"/>
  <path d="m374.77 388.03c0.5 0.16406 1.0117 0.23438 1.5156 0.23438 2.1406 0 4.1289-1.3711 4.8008-3.5234l2.2773-7.2109c0.83984-2.6523-0.62891-5.4805-3.2852-6.3164-2.6328-0.85547-5.4805 0.63281-6.3164 3.2852l-2.2773 7.2109c-0.84375 2.6562 0.62891 5.4844 3.2852 6.3203z"/>
  <path d="m348.09 448.03c0.5 0.15625 1.0117 0.23047 1.5156 0.23047 2.1406 0 4.1289-1.3711 4.8086-3.5234l2.2773-7.2188c0.83594-2.6523-0.63281-5.4805-3.293-6.3203-2.6406-0.82812-5.4844 0.64063-6.3203 3.293l-2.2773 7.2188c-0.83594 2.6484 0.63281 5.4805 3.2891 6.3203z"/>
  <path d="m408.82 446.98c0.50781 0.16406 1.0195 0.23438 1.5195 0.23438 2.1406 0 4.1211-1.3711 4.8008-3.5195l2.2812-7.2109c0.83984-2.6523-0.62891-5.4844-3.2812-6.3203-2.668-0.84766-5.4844 0.63281-6.3203 3.2812l-2.2812 7.2109c-0.83984 2.6523 0.62891 5.4883 3.2812 6.3242z"/>
  <path d="m384.52 435.13c-2.6406-0.82031-5.4844 0.64063-6.3203 3.293l-2.2773 7.2188c-0.83594 2.6523 0.63281 5.4805 3.293 6.3203 0.5 0.15625 1.0117 0.23047 1.5156 0.23047 2.1406 0 4.1289-1.3711 4.8086-3.5234l2.2773-7.2188c0.83203-2.6523-0.64062-5.4805-3.2969-6.3203z"/>
  <path d="m356.77 423.49c0.53516 0 1.082-0.082032 1.6172-0.26563l7.1641-2.4297c2.6367-0.89453 4.043-3.7539 3.1523-6.3906-0.89453-2.6367-3.7539-4.0391-6.3906-3.1523l-7.1641 2.4297c-2.6367 0.89453-4.043 3.7539-3.1523 6.3906 0.71484 2.0977 2.6719 3.418 4.7734 3.418z"/>
  <path d="m356.43 400.12 7.4062 1.4727c0.33594 0.070313 0.66406 0.097656 0.98828 0.097656 2.3555 0 4.4609-1.6562 4.9336-4.0547 0.54688-2.7305-1.2305-5.3828-3.957-5.9219l-7.4062-1.4727c-2.7539-0.56641-5.3867 1.2305-5.9219 3.957-0.54687 2.7305 1.2305 5.3828 3.957 5.9219z"/>
  <path d="m418.38 421.75 7.4102 1.4727c0.32813 0.070313 0.66016 0.097656 0.98438 0.097656 2.3555 0 4.4609-1.6562 4.9336-4.0586 0.54688-2.7266-1.2305-5.3789-3.9609-5.918l-7.4102-1.4727c-2.7148-0.57422-5.3828 1.2305-5.918 3.9609-0.54688 2.7266 1.2305 5.375 3.9609 5.918z"/>
  <path d="m381.04 421.41c-0.54688 2.7266 1.2305 5.3789 3.9609 5.918l7.4102 1.4727c0.32812 0.070313 0.66016 0.097656 0.98438 0.097656 2.3555 0 4.4609-1.6562 4.9336-4.0586 0.54688-2.7266-1.2305-5.3789-3.9609-5.918l-7.4102-1.4727c-2.7266-0.56641-5.3789 1.2305-5.918 3.9609z"/>
 </g>
</svg>