<?xml version="1.0" encoding="UTF-8"?>
<!-- The Best Svg Icon site in the world: iconSvg.co, Visit us! https://iconsvg.co -->
<svg fill="#000000" width="800px" height="800px" version="1.1" viewBox="144 144 512 512" xmlns="http://www.w3.org/2000/svg">
 <g>
  <path d="m565.31 478.72h-56.406c11.156-19.113 17.039-40.848 17.043-62.977v-7.8711h7.875c6.2617 0 12.27-2.4883 16.699-6.918 4.4258-4.4297 6.9141-10.434 6.9141-16.699v-15.742c0-6.2656-2.4883-12.273-6.9141-16.699-4.4297-4.4297-10.438-6.918-16.699-6.918h-7.875v-7.8711h23.617c11.25 0 21.645-6.0039 27.27-15.746 5.625-9.7422 5.625-21.746 0-31.488-5.625-9.7422-16.02-15.742-27.27-15.742h-31.488v-102.34c0-2.293-0.99609-4.4688-2.7344-5.9648-1.7344-1.4961-4.0352-2.1602-6.3008-1.8203l-155.43 23.316-61.062-22.906v-0.003907c-2.418-0.90625-5.1289-0.56641-7.25 0.90625-2.1211 1.4688-3.3867 3.8906-3.3867 6.4727v102.34h-31.488c-11.25 0-21.645 6-27.27 15.742-5.625 9.7422-5.625 21.746 0 31.488 5.625 9.7422 16.02 15.746 27.27 15.746h23.617v7.8711h-7.8711c-6.2656 0-12.273 2.4883-16.699 6.918-4.4297 4.4258-6.918 10.434-6.918 16.699v15.742c0 6.2656 2.4883 12.27 6.918 16.699 4.4258 4.4297 10.434 6.918 16.699 6.918h7.8711v7.8711c0.007813 22.129 5.8867 43.863 17.043 62.977h-56.402c-18.785 0.023438-36.793 7.4961-50.074 20.777s-20.754 31.289-20.777 50.07v78.723c0 2.0859 0.83203 4.0898 2.3086 5.5664 1.4766 1.4727 3.4766 2.3047 5.5664 2.3047h456.58c2.0859 0 4.0898-0.83203 5.5664-2.3047 1.4727-1.4766 2.3047-3.4805 2.3047-5.5664v-78.723c-0.023437-18.781-7.4961-36.789-20.777-50.07s-31.289-20.754-50.07-20.777zm-31.488-118.08c2.0859 0 4.0898 0.83203 5.5664 2.3086 1.4766 1.4766 2.3047 3.4766 2.3047 5.5664v15.742c0 2.0898-0.82812 4.0898-2.3047 5.5664-1.4766 1.4766-3.4805 2.3047-5.5664 2.3047h-7.875v-31.488zm-299.14-55.102c0-4.1758 1.6562-8.1797 4.6094-11.133s6.957-4.6133 11.133-4.6133h39.359c2.0898 0 4.0898-0.82812 5.5664-2.3047 1.4766-1.4766 2.3086-3.4766 2.3086-5.5664v-98.848l52.34 19.633c1.2578 0.46094 2.6094 0.60156 3.9336 0.40625l148.4-22.262v93.199h-157.44v15.742h204.67c5.625 0 10.824 3 13.637 7.875 2.8125 4.8711 2.8125 10.871 0 15.742s-8.0117 7.8711-13.637 7.8711h-299.14c-4.1758 0-8.1797-1.6562-11.133-4.6094s-4.6094-6.957-4.6094-11.133zm31.488 86.594v-0.003906c-4.3477 0-7.875-3.5234-7.875-7.8711v-15.742c0-4.3477 3.5273-7.875 7.875-7.875h7.8711v31.488zm23.617-55.105h220.41v78.719c0 39.375-21.004 75.758-55.105 95.445-34.098 19.684-76.109 19.684-110.21 0-34.098-19.688-55.105-56.07-55.105-95.445zm178.31 184.51c-5.6016 19.934-19.656 36.414-38.457 45.09-18.805 8.6758-40.465 8.6758-59.266 0-18.805-8.6758-32.859-25.156-38.461-45.09 20.277 13.148 43.926 20.141 68.094 20.141 24.164 0 47.816-6.9922 68.09-20.141zm-154.47-14.359c1.6562 29.715 18.469 56.488 44.512 70.891 26.047 14.398 57.664 14.398 83.707 0 26.043-14.402 42.855-41.176 44.512-70.891 4.2188-3.9609 8.1641-8.2109 11.801-12.715h43.531v125.95h-283.77l0.375-125.95h43.535c3.6367 4.5039 7.5781 8.7539 11.797 12.715zm-134.05 42.391c0.015625-14.609 5.8281-28.613 16.156-38.945 10.332-10.332 24.34-16.141 38.949-16.16h7.8711l-0.35547 125.95h-62.621zm440.83 70.848h-62.977v-125.95h7.875c14.609 0.019531 28.613 5.8281 38.945 16.16 10.328 10.332 16.141 24.336 16.156 38.945z"/>
  <path d="m313.41 274.05h15.742v15.742h-15.742z"/>
 </g>
</svg>