<?xml version="1.0" encoding="UTF-8"?>
<!-- The Best Svg Icon site in the world: iconSvg.co, Visit us! https://iconsvg.co -->
<svg fill="#000000" width="800px" height="800px" version="1.1" viewBox="144 144 512 512" xmlns="http://www.w3.org/2000/svg">
 <g>
  <path d="m380.6 315.59c0 5.3086 2.1094 10.398 5.8633 14.152 3.7539 3.7539 8.8438 5.8633 14.152 5.8633 5.3086 0 10.398-2.1094 14.152-5.8633s5.8633-8.8438 5.8633-14.152-2.1094-10.398-5.8633-14.152-8.8438-5.8633-14.152-5.8633c-5.3086 0.007813-10.395 2.1172-14.145 5.8711-3.7539 3.7539-5.8633 8.8398-5.8711 14.145zm20.016-12.145v0.003906c4.9102 0 9.3398 2.957 11.219 7.4961 1.8789 4.5352 0.83984 9.7578-2.6328 13.23-3.4727 3.4727-8.6953 4.5117-13.234 2.6328-4.5352-1.8789-7.4961-6.3047-7.4961-11.219 0.011719-6.7031 5.4414-12.133 12.145-12.141z"/>
  <path d="m205.87 303.45h30.215l-9.0859 12.824h0.003906c-0.61328 0.85156-0.86328 1.9102-0.6875 2.9453 0.17188 1.0352 0.75 1.957 1.6055 2.5664 0.85547 0.60547 1.918 0.84375 2.9531 0.66406 1.0312-0.17969 1.9531-0.76562 2.5508-1.6289l10.273-14.504 16.508 23.297h-38.512c-0.21875 0.023437-0.43359 0.066406-0.64453 0.13281h-22.969c-1.2188 0-2.3711 0.5625-3.1172 1.5273s-1 2.2188-0.69531 3.3984c2.1758 8.3242 7.0469 15.691 13.855 20.949s15.168 8.1133 23.77 8.1133h108.91v26.27c0.003907 0.74219-0.47266 1.4023-1.1797 1.625l-2.4961 0.78906v-4.9766c0.19531-3.875-1.2109-7.6602-3.8867-10.473-2.6719-2.8125-6.3828-4.4023-10.266-4.4023-3.8828 0-7.5938 1.5898-10.266 4.4023-2.6758 2.8125-4.082 6.5977-3.8867 10.473v21.105c0.37891 7.543 6.6016 13.461 14.152 13.461 7.5508 0 13.773-5.918 14.152-13.461v-7.8711l4.8633-1.5352c3.9922-1.25 6.7031-4.9492 6.6914-9.1328v-26.27h4.0859c12.703 12.66 29.906 19.77 47.84 19.77 17.934 0 35.137-7.1094 47.84-19.77h4.5664v26.27c-0.011719 4.1836 2.7031 7.8828 6.6914 9.1328l4.8633 1.5352v7.8711h0.003906c0.375 7.543 6.6016 13.461 14.152 13.461 7.5469 0 13.773-5.918 14.148-13.461v-21.105c0.19531-3.875-1.207-7.6602-3.8828-10.473s-6.3867-4.4023-10.266-4.4023c-3.8828 0-7.5938 1.5898-10.27 4.4023s-4.0781 6.5977-3.8828 10.473v4.9805l-2.5-0.78906c-0.70703-0.22656-1.1836-0.88281-1.1836-1.625v-26.27h108.44c8.6055 0 16.965-2.8555 23.77-8.1133 6.8086-5.2578 11.684-12.625 13.855-20.949 0.30859-1.1797 0.050781-2.4336-0.69141-3.3984-0.74609-0.96094-1.8945-1.5273-3.1133-1.5273h-20.863c-0.21094-0.066406-0.42578-0.10938-0.64844-0.13281h-40.621l16.508-23.297 11.137 15.715-0.003906 0.003907c1.2617 1.7539 3.707 2.1602 5.4688 0.91016 1.7656-1.25 2.1914-3.6875 0.95703-5.4609l-9.9453-14.039h30.215c9.793-0.003906 19.312-3.2539 27.062-9.2383 7.75-5.9883 13.301-14.375 15.777-23.852 0.30859-1.1797 0.050782-2.4375-0.69531-3.4023-0.74609-0.96484-1.8945-1.5312-3.1172-1.5312h-165.87c-2.1719 0-3.9336 1.7617-3.9336 3.9375 0 2.1719 1.7617 3.9336 3.9336 3.9336h160.39c-2.7812 6.6016-7.4492 12.238-13.418 16.199-5.9648 3.9648-12.969 6.0781-20.133 6.0781h-129.84c-2.8984-9.2812-7.7578-17.832-14.25-25.074l-11.02-38.789c-3.2891-11.57-11.473-21.129-22.402-26.156-10.926-5.0312-23.508-5.0312-34.438 0-10.926 5.0273-19.109 14.586-22.398 26.156l-11.02 38.789c-6.4961 7.2422-11.359 15.793-14.258 25.082h-129.85c-7.1641-0.003907-14.168-2.1172-20.137-6.082-5.9688-3.9609-10.633-9.5977-13.414-16.199h160.86c2.1758 0 3.9375-1.7617 3.9375-3.9336 0-2.1758-1.7617-3.9375-3.9375-3.9375h-166.34c-1.2148 0.007812-2.3594 0.57422-3.1016 1.5352-0.73828 0.96484-0.99219 2.2188-0.6875 3.3945 2.4766 9.4727 8.0195 17.855 15.77 23.844 7.7461 5.9883 17.258 9.2383 27.051 9.2461zm123.37 105.09c-0.25 3.2852-2.9844 5.8281-6.2812 5.8281-3.2969 0-6.0312-2.543-6.2812-5.8281v-21.098c-0.12891-1.7461 0.47266-3.4688 1.6641-4.7539s2.8633-2.0156 4.6172-2.0156c1.7539 0 3.4258 0.73047 4.6172 2.0156s1.793 3.0078 1.6641 4.7539zm143.21-21.105c-0.13281-1.7461 0.47266-3.4688 1.6641-4.7539 1.1914-1.2852 2.8633-2.0156 4.6172-2.0156 1.75 0 3.4219 0.73047 4.6133 2.0156 1.1953 1.2852 1.7969 3.0078 1.6641 4.7539v21.105c-0.24609 3.2852-2.9844 5.8281-6.2773 5.8281-3.2969 0-6.0352-2.543-6.2812-5.8281zm77.461-83.996-16.508 23.309-16.504-23.297zm-24.121 26.18h-33.012l16.504-23.301zm-58.41-26.172h34.289l-18.621 26.305h-16.027c1.8828-8.6562 2.0039-17.602 0.35938-26.301zm130.21 34.176c-2.457 5.4375-6.4336 10.051-11.445 13.289-5.0156 3.2344-10.855 4.957-16.824 4.957h-114.14c4.1211-5.5547 7.3672-11.707 9.6211-18.246zm-229.02-103.76c2.6602-9.3594 9.2773-17.086 18.117-21.156 8.8398-4.0664 19.016-4.0664 27.855 0 8.8359 4.0703 15.457 11.797 18.117 21.156l7.5898 26.691c-11.523-8.3672-25.398-12.875-39.637-12.875s-28.113 4.5078-39.633 12.875zm32.047 21.688c15.922 0 31.195 6.3281 42.453 17.59 11.262 11.262 17.586 26.531 17.586 42.457 0 15.926-6.3281 31.195-17.586 42.457-11.262 11.258-26.535 17.586-42.461 17.582-15.922 0-31.195-6.3242-42.453-17.586-11.262-11.258-17.586-26.531-17.586-42.457 0.015625-15.918 6.3477-31.184 17.605-42.441 11.258-11.258 26.52-17.59 42.441-17.605zm-64.18 82.074c2.2539 6.5391 5.5 12.691 9.6172 18.246h-114.14c-5.9648 0-11.809-1.7227-16.82-4.9609-5.0156-3.2344-8.9883-7.8477-11.445-13.285zm-2.5898-34.172c-1.6484 8.6992-1.5234 17.645 0.35547 26.301h-16.016l-18.633-26.301zm-25.398 26.168h-33.016l16.508-23.301zm-24.121-26.172-16.504 23.301-16.508-23.297z"/>
  <path d="m397.04 478.3c-2.1602 3.3984-20.918 33.602-12.789 48.441 1.9688 3.582 6.3516 7.8711 16.098 7.8711 9.7461 0 14.133-4.2695 16.098-7.8711 8.1367-14.836-10.629-45.039-12.781-48.438h0.003906c-0.76953-1.0625-2-1.6953-3.3125-1.6953s-2.5469 0.62891-3.3164 1.6914zm12.512 44.652c-0.50781 0.92969-2.0625 3.7617-9.1953 3.7617s-8.6836-2.8281-9.1953-3.7617c-3.7969-6.9219 2.7266-23.172 9.1992-34.824 6.4727 11.648 13.02 27.887 9.1914 34.828z"/>
  <path d="m555.36 457.34c-2.1602 3.3984-20.91 33.598-12.777 48.438 1.9688 3.582 6.3516 7.8516 16.098 7.8516 9.7461 0 14.133-4.2695 16.098-7.8516 8.1328-14.84-10.629-45.039-12.781-48.438h0.003906c-0.76953-1.0703-2.0039-1.7031-3.3203-1.7031-1.3164 0-2.5508 0.63281-3.3203 1.7031zm12.516 44.652c-0.51172 0.92969-2.0664 3.7617-9.1953 3.7617-7.1289 0-8.6836-2.832-9.1953-3.7617-3.8008-6.9219 2.7227-23.172 9.1953-34.828 6.4766 11.648 13 27.891 9.1992 34.828z"/>
  <path d="m224.66 503.8c1.9688 3.582 6.3516 7.8516 16.098 7.8516 9.7461 0 14.133-4.2695 16.098-7.8516 8.1367-14.84-10.629-45.039-12.777-48.434h0.003906c-0.76953-1.0703-2.0039-1.7031-3.3203-1.7031-1.3164 0-2.5508 0.63281-3.3203 1.7031-2.1641 3.3906-20.914 33.582-12.781 48.434zm16.102-38.609c6.4727 11.648 12.988 27.887 9.1953 34.824-0.51172 0.92969-2.0664 3.7617-9.1992 3.7617-7.1328 0-8.6836-2.832-9.1953-3.7617-3.7969-6.9219 2.7305-23.172 9.1992-34.824z"/>
  <path d="m642.13 612.47h-68.625v-13.637c0.21875 0 0.44531 0.039063 0.66406 0.039063h0.003906c10.059-0.44922 19.309-5.6367 24.938-13.984 3.8789-5.6836 4.6719-11.02 2.1836-14.672-1.5938-2.3359-5.0742-4.7539-12.562-3.0273v-0.003906c-7.9023 1.4805-14.836 6.1641-19.16 12.938-4.3203-6.7734-11.258-11.457-19.156-12.938-7.5117-1.7266-10.969 0.69141-12.566 3.0273-2.4883 3.6445-1.6914 8.9883 2.1836 14.672v0.003907c5.6289 8.3477 14.883 13.535 24.941 13.984 0.21875 0 0.44141-0.03125 0.66016-0.039063v13.637h-111.39v-13.637c0.21875 0 0.44531 0.039063 0.66406 0.039063h0.003906c10.059-0.44922 19.312-5.6367 24.938-13.984 3.8789-5.6836 4.6719-11.02 2.1836-14.672-1.5938-2.3359-5.0742-4.7539-12.562-3.0273v-0.003906c-7.8984 1.4805-14.836 6.1641-19.16 12.938-4.3242-6.7734-11.258-11.457-19.156-12.938-7.5078-1.7266-10.973 0.69141-12.566 3.0273-2.4883 3.6445-1.6914 8.9922 2.1875 14.672v0.003907c5.625 8.3477 14.879 13.535 24.938 13.984 0.21484 0 0.44141-0.03125 0.66016-0.039063v13.637h-104v-13.637c0.21875 0 0.44531 0.039063 0.66406 0.039063 10.059-0.44922 19.312-5.6406 24.941-13.984 3.8789-5.6797 4.6719-11.02 2.1836-14.672-1.5977-2.3359-5.0664-4.7578-12.566-3.0273v-0.003906c-7.9023 1.4805-14.836 6.1641-19.16 12.938-4.3203-6.7734-11.254-11.457-19.156-12.938-7.5039-1.7266-10.973 0.69141-12.566 3.0273-2.4883 3.6406-1.6914 8.9883 2.1836 14.672v0.003907c5.6289 8.3477 14.883 13.535 24.941 13.984 0.21875 0 0.44531-0.03125 0.66406-0.039063v13.637h-111.94v-13.637c0.21875 0 0.44141 0.039063 0.66016 0.039063 10.062-0.44922 19.312-5.6367 24.945-13.984 3.8789-5.6836 4.6719-11.02 2.1797-14.672-1.5938-2.3359-5.0742-4.7539-12.562-3.0273v-0.003906c-7.9023 1.4805-14.836 6.1641-19.156 12.938-4.3242-6.7734-11.258-11.457-19.16-12.938-7.5117-1.7266-10.973 0.69141-12.566 3.0273-2.4883 3.6406-1.6914 8.9883 2.1836 14.672v0.003907c5.6289 8.3477 14.883 13.535 24.941 13.984 0.21875 0 0.44531-0.03125 0.66406-0.039063v13.637h-55.598c-2.1719 0-3.9336 1.7617-3.9336 3.9375 0 2.1719 1.7617 3.9336 3.9336 3.9336h483.04c2.1758 0 3.9375-1.7617 3.9375-3.9336 0-2.1758-1.7617-3.9375-3.9375-3.9375zm-51.629-37.613c1.3828-0.45703 2.8633-0.53906 4.2852-0.22656 0.24609 0.53125-0.085937 3.375-3.293 7.3203h-0.003907c-4.2461 5.543-10.773 8.8711-17.754 9.0508 0.75391-4.6914 3.9336-13.184 16.766-16.145zm-42.844 7.0859c-1.9648-1.9219-3.1602-4.5-3.3555-7.2422 0.44922-0.19922 0.94141-0.28125 1.4336-0.23828 0.98438 0.023437 1.9609 0.15625 2.9141 0.39453 4.1328 0.58984 7.9727 2.4648 10.977 5.3633 3.0039 2.8945 5.0156 6.668 5.7539 10.773-6.9609-0.22656-13.457-3.543-17.727-9.043zm-76.41-7.0859h0.003906c1.3789-0.45703 2.8594-0.53906 4.2812-0.22656 0.24609 0.53125-0.085938 3.375-3.293 7.3203h-0.003906c-4.2461 5.543-10.773 8.8711-17.754 9.0508 0.75781-4.6914 3.9336-13.184 16.762-16.145zm-42.84 7.0859h0.003906c-1.9727-1.9219-3.168-4.5-3.3633-7.2422 0.44922-0.19922 0.94141-0.28125 1.4336-0.23828 0.98438 0.023437 1.9609 0.15625 2.918 0.39453 4.1289 0.58594 7.9727 2.4648 10.973 5.3594 3.0039 2.8984 5.0195 6.6719 5.7539 10.777-6.9531-0.24219-13.445-3.5547-17.719-9.043zm-69.047-7.0859h0.003906c1.3789-0.46094 2.8594-0.53906 4.2812-0.22656 0.24609 0.53125-0.082031 3.375-3.2891 7.3203-4.25 5.5391-10.773 8.8633-17.754 9.0508 0.75391-4.6914 3.9258-13.184 16.758-16.145zm-42.84 7.0859h0.003907c-1.9688-1.9219-3.168-4.5-3.3594-7.2422 0.44922-0.19922 0.94141-0.27734 1.4297-0.23828 0.98438 0.023437 1.9648 0.15625 2.918 0.39453 4.1328 0.58984 7.9727 2.4648 10.977 5.3633 3.0039 2.8945 5.0195 6.668 5.7539 10.773-6.957-0.23047-13.453-3.543-17.723-9.043zm-76.973-7.0859h0.003906c1.3828-0.45703 2.8633-0.53906 4.2852-0.22656 0.24219 0.53125-0.085938 3.375-3.2969 7.3203-4.2539 5.5391-10.777 8.8633-17.754 9.0508 0.75781-4.6914 3.9297-13.184 16.762-16.145zm-42.84 7.0859h0.003907c-1.9688-1.9219-3.168-4.5-3.3594-7.2422 0.44922-0.19922 0.94141-0.27734 1.4297-0.23828 0.98438 0.023437 1.9648 0.15625 2.918 0.39453 4.1328 0.58594 7.9727 2.4648 10.977 5.3594 3.0039 2.8984 5.0195 6.6719 5.7539 10.777-6.9531-0.24219-13.445-3.5547-17.723-9.043z"/>
  <path d="m231.85 405.07v-22.609c0-2.1758-1.7617-3.9375-3.9336-3.9375-2.1758 0-3.9375 1.7617-3.9375 3.9375v22.609c0 2.1758 1.7617 3.9375 3.9375 3.9375 2.1719 0 3.9336-1.7617 3.9336-3.9375z"/>
  <path d="m296.88 436.39v22.613c0 2.1719 1.7617 3.9336 3.9375 3.9336 2.1719 0 3.9336-1.7617 3.9336-3.9336v-22.613c0-2.1719-1.7617-3.9375-3.9336-3.9375-2.1758 0-3.9375 1.7656-3.9375 3.9375z"/>
  <path d="m577.25 382.46c0-2.1758-1.7617-3.9375-3.9375-3.9375-2.1719 0-3.9375 1.7617-3.9375 3.9375v22.609c0 2.1758 1.7656 3.9375 3.9375 3.9375 2.1758 0 3.9375-1.7617 3.9375-3.9375z"/>
  <path d="m496.46 436.39v22.613c0 2.1719 1.7617 3.9336 3.9375 3.9336 2.1719 0 3.9375-1.7617 3.9375-3.9336v-22.613c0-2.1719-1.7656-3.9375-3.9375-3.9375-2.1758 0-3.9375 1.7656-3.9375 3.9375z"/>
  <path d="m360.58 335.29c0.97656-0.375 1.7617-1.1211 2.1836-2.0742 0.42188-0.95703 0.44922-2.0391 0.074219-3.0117-2.8281-7.3203-3.4727-15.305-1.8516-22.98 1.6172-7.6797 5.4297-14.723 10.973-20.273 6.2695-6.3125 14.465-10.355 23.285-11.496 2.1562-0.28516 3.6719-2.2656 3.3867-4.4219-0.28125-2.1523-2.2617-3.668-4.418-3.3867-10.539 1.3633-20.328 6.1992-27.816 13.738-6.6211 6.6328-11.176 15.039-13.113 24.211-1.9336 9.168-1.168 18.699 2.207 27.441 0.58594 1.5195 2.0469 2.5234 3.6758 2.5234 0.48438 0 0.96484-0.089844 1.4141-0.26953z"/>
  <path d="m412.66 354.28c-1.8672 0.57422-3.0312 2.4297-2.7344 4.3594 0.29297 1.9297 1.9609 3.3516 3.9141 3.3398 0.40234 0 0.80078-0.058593 1.1836-0.17578 12.793-3.9805 23.359-13.086 29.188-25.148s6.3906-26.004 1.5547-38.5c-0.78125-2.0273-3.0586-3.0352-5.0898-2.2539-2.0273 0.78125-3.0352 3.0625-2.2539 5.0898 4.0508 10.457 3.582 22.129-1.293 32.23s-13.723 17.727-24.434 21.059z"/>
  <path d="m400.16 359.8c0 5.2266-7.8398 5.2266-7.8398 0 0-5.2266 7.8398-5.2266 7.8398 0"/>
  <path d="m412.28 271.85c0 5.2266-7.8398 5.2266-7.8398 0 0-5.2305 7.8398-5.2305 7.8398 0"/>
 </g>
</svg>