<?xml version="1.0" encoding="UTF-8"?>
<!-- The Best Svg Icon site in the world: iconSvg.co, Visit us! https://iconsvg.co -->
<svg fill="#000000" width="800px" height="800px" version="1.1" viewBox="144 144 512 512" xmlns="http://www.w3.org/2000/svg">
 <path d="m573.18 470.85v-79.188c17.309-1.9492 33.293-10.203 44.906-23.184 11.613-12.98 18.047-29.781 18.07-47.199v-47.23h-7.8711c-5.5742 0.011719-11.121 0.69141-16.531 2.0234-5.2578-9.2227-11.707-17.707-19.188-25.238l-27.258-27.277-27.27 27.277c-7.4766 7.5312-13.926 16.016-19.176 25.238-5.4102-1.332-10.961-2.0117-16.531-2.0234h-7.875v47.23c0.027343 17.418 6.457 34.219 18.07 47.199 11.617 12.98 27.602 21.234 44.906 23.184v40.699c-10.336-10.625-24.535-16.617-39.359-16.617h-39.359v7.8711c0.015625 14.609 5.8281 28.617 16.156 38.949 10.332 10.328 24.34 16.141 38.949 16.156h23.617v39.359h-149.57v-102.34h23.617c14.609-0.015626 28.613-5.8281 38.945-16.156 10.328-10.332 16.141-24.34 16.156-38.949v-7.8711h-39.359c-14.824 0-29.02 5.9922-39.359 16.617v-40.633c19.406-1.9766 37.391-11.078 50.477-25.543 13.086-14.465 20.344-33.27 20.371-52.777v-39.359h-7.8711c-7.9844 0-15.922 1.2227-23.539 3.6211-5.3906-9.8359-12.137-18.871-20.035-26.836l-27.273-27.277-27.27 27.277c-7.9023 7.9648-14.648 16.996-20.043 26.836-7.6133-2.3984-15.551-3.6211-23.539-3.6211h-7.8711v39.359c0.027344 19.508 7.2852 38.312 20.371 52.777 13.086 14.465 31.07 23.566 50.477 25.543v87.867c-10.336-10.625-24.535-16.621-39.359-16.617h-31.488v7.8711c0.019531 14.609 5.8281 28.613 16.16 38.945 10.328 10.332 24.336 16.141 38.945 16.16h15.742v55.105l-149.57-0.003906v-31.488h23.617c10.434-0.011719 20.438-4.1641 27.816-11.543 7.3789-7.3789 11.531-17.383 11.543-27.816v-7.8711h-39.359c-8.5469 0.03125-16.844 2.8672-23.617 8.0742v-24.285c17.309-1.9492 33.293-10.203 44.906-23.184 11.613-12.98 18.047-29.781 18.07-47.199v-47.23h-7.8711c-5.5742 0.011719-11.121 0.69141-16.531 2.0234-5.2578-9.2227-11.707-17.707-19.188-25.238l-27.258-27.277-27.27 27.277c-7.4766 7.5312-13.926 16.016-19.176 25.238-5.4102-1.332-10.961-2.0117-16.531-2.0234h-7.875v47.23c0.027343 17.418 6.457 34.219 18.07 47.199 11.617 12.98 27.602 21.234 44.906 23.184v94.93h-62.977v47.23l16.574 0.003906 7.8711 70.848h414.82l15.742-70.848h17.32v-47.234h-62.977zm47.23-149.57c-0.015624 13.246-4.7969 26.047-13.469 36.062-8.6719 10.012-20.652 16.574-33.762 18.484v-30.93c0.042968-13.238 4.8359-26.02 13.504-36.023 8.6641-10.004 20.633-16.566 33.727-18.5zm-71.242-59.316 16.141-16.145 16.145 16.145c5.875 5.8789 11.023 12.438 15.344 19.539-0.085937 0.039062-0.16406 0.10156-0.24219 0.14844l-0.003906 0.003906c-3.1797 1.6016-6.2305 3.4453-9.1328 5.5078-0.73828 0.52734-1.3867 1.1484-2.0938 1.6992-2.0938 1.5859-4.0977 3.2891-6.0039 5.0938-0.9375 0.90625-1.7695 1.8906-2.6523 2.8438-1.5195 1.6367-3 3.2891-4.3594 5.0625-0.85938 1.1172-1.6367 2.2734-2.4258 3.4336-1.2031 1.7695-2.3633 3.582-3.3789 5.457-0.36328 0.64453-0.78906 1.2188-1.1641 1.8828-0.33984-0.65234-0.78906-1.2344-1.1641-1.8828-1.0469-1.8828-2.1719-3.6836-3.3789-5.457-0.78906-1.1641-1.5742-2.3203-2.4258-3.4336-1.3633-1.7695-2.8438-3.4258-4.3594-5.0625-0.88281-0.95312-1.7148-1.9375-2.6523-2.8438-1.9102-1.8047-3.918-3.5078-6.0156-5.0938-0.70703-0.55078-1.3555-1.1719-2.0859-1.6914-2.8984-2.0625-5.9531-3.9062-9.1328-5.5078-0.085937-0.046875-0.15625-0.10938-0.24219-0.14844v-0.003907c4.2969-7.1016 9.4297-13.664 15.285-19.547zm-38.965 59.316v-30.906c3.3789 0.50781 6.7031 1.3164 9.9336 2.4258 10.828 3.7812 20.223 10.816 26.898 20.145 6.6758 9.3242 10.309 20.484 10.398 31.953v30.93c-13.105-1.9102-25.09-8.4727-33.762-18.484-8.6719-10.016-13.453-22.816-13.469-36.062zm23.617 141.7v0.003906c-9.0703-0.011718-17.859-3.1523-24.887-8.8867s-11.859-13.719-13.688-22.602h22.828c9.0703 0.011719 17.859 3.1484 24.887 8.8828 7.0273 5.7383 11.859 13.719 13.688 22.605zm-86.594-94.461h22.828c-1.8242 8.8828-6.6602 16.867-13.688 22.602-7.0234 5.7344-15.812 8.875-24.883 8.8867h-22.832c1.8281-8.8867 6.6641-16.867 13.688-22.605 7.0273-5.7344 15.816-8.8711 24.887-8.8828zm15.742-118.08h0.003906c-0.019531 15.336-5.625 30.137-15.766 41.637-10.145 11.504-24.129 18.914-39.34 20.852v-23.129c0.007812-4.6992 0.53516-9.3867 1.5742-13.973 4.5312-19.836 18.355-36.27 37.125-44.129 5.2422-2.1992 10.762-3.6719 16.406-4.3867zm-79.113-51.441 16.141-16.148 16.137 16.145v0.003906c6.5 6.5234 12.109 13.879 16.68 21.875-0.10938 0.0625-0.20312 0.14844-0.32422 0.21094h0.003906c-3.1992 1.8008-6.2656 3.8242-9.1797 6.0547-0.78906 0.58984-1.4883 1.25-2.2422 1.875h-0.003907c-2.1094 1.7305-4.1328 3.5664-6.0508 5.5078-0.82812 0.84375-1.6367 1.6836-2.4258 2.5586-1.8438 2.0508-3.5781 4.1953-5.1953 6.4258-0.55078 0.78906-1.1484 1.4727-1.6758 2.2422-2.0547 3.0156-3.8945 6.1719-5.5117 9.4453-0.070313 0.14062-0.16406 0.26172-0.22656 0.39453-0.0625-0.14062-0.16406-0.26172-0.22656-0.39453h-0.003906c-1.6133-3.2734-3.457-6.4297-5.5117-9.4453-0.52734-0.78906-1.125-1.4883-1.6758-2.2422-1.6172-2.2305-3.3516-4.375-5.1953-6.4258-0.78906-0.875-1.5742-1.7227-2.4258-2.5586-1.918-1.9414-3.9414-3.7773-6.0508-5.5078-0.78906-0.62109-1.4648-1.2812-2.2422-1.875h-0.003906c-2.9141-2.2305-5.9805-4.2539-9.1758-6.0547-0.10938-0.0625-0.20312-0.14844-0.32422-0.21094 4.5781-8 10.199-15.355 16.711-21.875zm-46.836 51.441v-23.129c5.6133 0.70703 11.105 2.1719 16.324 4.3477 18.77 7.8594 32.594 24.293 37.125 44.129 1.0703 4.5938 1.625 9.2969 1.6523 14.012v23.129c-15.211-1.9375-29.195-9.3477-39.336-20.852-10.145-11.5-15.746-26.301-15.766-41.637zm39.359 196.8c-9.0703-0.011719-17.859-3.1484-24.887-8.8867-7.0273-5.7344-11.859-13.719-13.688-22.602h14.957c9.0703 0.011718 17.859 3.1484 24.887 8.8867 7.0273 5.7344 11.859 13.719 13.688 22.602zm-110.21 7.8711h22.27c-1.6328 4.6016-4.6523 8.5859-8.6406 11.406-3.9844 2.8164-8.7461 4.3359-13.629 4.3398h-22.273c1.6367-4.6016 4.6523-8.5859 8.6406-11.406 3.9844-2.8164 8.75-4.332 13.633-4.3398zm23.617-102.34h-0.003907c-0.015624 13.246-4.7969 26.047-13.469 36.059-8.6719 10.016-20.652 16.578-33.762 18.488v-30.93c0.042968-13.238 4.8359-26.02 13.504-36.023 8.6641-10.004 20.633-16.566 33.727-18.5zm-71.246-59.316 16.141-16.145 16.145 16.145c5.875 5.8789 11.023 12.438 15.344 19.539-0.085937 0.039063-0.16406 0.10156-0.24219 0.14844h-0.003906c-3.1797 1.6055-6.2305 3.4453-9.1328 5.5117-0.73828 0.52734-1.3867 1.1484-2.0938 1.6992-2.0938 1.5859-4.0977 3.2891-6.0039 5.0938-0.9375 0.90625-1.7695 1.8906-2.6523 2.8438-1.5195 1.6367-3 3.2891-4.3594 5.0625-0.85938 1.1172-1.6367 2.2734-2.4258 3.4336-1.2031 1.7695-2.3633 3.582-3.3789 5.457-0.36328 0.64453-0.78906 1.2188-1.1641 1.8828-0.33984-0.65234-0.78906-1.2344-1.1641-1.8828-1.0469-1.8828-2.1719-3.6836-3.3789-5.457-0.78906-1.1641-1.5742-2.3203-2.4258-3.4336-1.3633-1.7695-2.8438-3.4258-4.3594-5.0625-0.88281-0.95312-1.7148-1.9375-2.6523-2.8438-1.9102-1.8047-3.918-3.5078-6.0156-5.0938-0.70703-0.55078-1.3555-1.1719-2.0859-1.6914-2.8984-2.0625-5.9531-3.9062-9.1328-5.5117-0.085937-0.046875-0.15625-0.10938-0.24219-0.14844 4.2969-7.1016 9.4297-13.664 15.285-19.547zm-38.965 59.316v-30.906c3.3789 0.50781 6.7031 1.3164 9.9336 2.4258 9.7344 3.3633 18.34 9.375 24.84 17.359 6.5039 7.9844 10.648 17.629 11.969 27.844 0.30859 2.2852 0.46875 4.5859 0.48828 6.8945v30.93c-13.105-1.9102-25.09-8.4727-33.762-18.488-8.6719-10.012-13.453-22.812-13.469-36.059zm410.92 267.65h-388.09l-6.125-55.105 406.44 0.003906zm29.914-70.848h-440.83v-15.742h440.83z"/>
</svg>