<?xml version="1.0" encoding="UTF-8"?>
<!-- The Best Svg Icon site in the world: iconSvg.co, Visit us! https://iconsvg.co -->
<svg fill="#000000" width="800px" height="800px" version="1.1" viewBox="144 144 512 512" xmlns="http://www.w3.org/2000/svg">
 <g>
  <path d="m293.73 344.89c0-4.7773-2.8789-9.082-7.2891-10.91-4.4141-1.8281-9.4922-0.81641-12.867 2.5586-3.3789 3.3789-4.3906 8.457-2.5625 12.871 1.8281 4.4102 6.1328 7.2891 10.91 7.2891 6.5234 0 11.809-5.2891 11.809-11.809zm-15.742 0h-0.003906c0-1.5938 0.96094-3.0273 2.4297-3.6367 1.4727-0.60937 3.1641-0.27344 4.293 0.85156 1.125 1.1289 1.4609 2.8203 0.85156 4.293-0.60938 1.4688-2.043 2.4297-3.6367 2.4297-2.1719 0-3.9375-1.7656-3.9375-3.9375z"/>
  <path d="m313.41 356.7c4.7773 0 9.082-2.8789 10.91-7.2891 1.8281-4.4141 0.81641-9.4922-2.5625-12.871-3.375-3.375-8.4531-4.3867-12.867-2.5586-4.4102 1.8281-7.2891 6.1328-7.2891 10.91 0 6.5195 5.2891 11.809 11.809 11.809zm0-15.742v-0.003907c1.5938 0 3.0273 0.96094 3.6367 2.4297 0.60938 1.4727 0.27344 3.1641-0.85547 4.2891-1.125 1.1289-2.8164 1.4648-4.2891 0.85547-1.4688-0.60938-2.4297-2.0469-2.4297-3.6367 0-2.1758 1.7656-3.9375 3.9375-3.9375z"/>
  <path d="m636.16 333.09c0-7.3086-2.9023-14.316-8.0703-19.48-5.168-5.168-12.176-8.0703-19.484-8.0703h-11.805v15.742h11.809-0.003906c6.5234 0 11.809 5.2891 11.809 11.809 0 6.5234-5.2852 11.809-11.809 11.809h-2.7617c-22.312-25.023-54.238-39.34-87.766-39.359h-118.08v-15.824c3.3125-1.1523 6.3242-3.0352 8.8164-5.5117l1.9219-1.9219-0.003906 0.003906c13.324-13.25 20.793-31.273 20.754-50.059-0.003906-5.6094-2.2344-10.988-6.2031-14.953-3.9648-3.9648-9.3438-6.1953-14.949-6.1992h-36.418c-4.6562 0.011719-9.1758 1.5625-12.859 4.4102-3.6797 2.8477-6.3203 6.832-7.5039 11.332h-111.79c-1.1836-4.5-3.8242-8.4844-7.5039-11.332-3.6836-2.8477-8.2031-4.3984-12.859-4.4102h-36.418c-5.6055 0.003907-10.984 2.2344-14.949 6.1992-3.9688 3.9648-6.1953 9.3438-6.2031 14.953-0.050782 18.805 7.4258 36.848 20.762 50.105l1.9062 1.9062h-0.003906c2.4961 2.4609 5.5117 4.332 8.8242 5.4766v39.438c0.03125 21.59 8.1172 42.395 22.68 58.336 14.559 15.941 34.543 25.875 56.043 27.855v8.2734c-0.011719 29.676 11.242 58.254 31.488 79.949v69.621h47.23v15.742h62.977v-47.23h31.488v31.488h47.23v15.742h62.977v-54.016c22.953-8.2383 42.82-23.332 56.902-43.242 14.082-19.91 21.699-43.668 21.82-68.055 0.007813-22.883-6.6758-45.27-19.23-64.398 5.5586-1.7539 10.422-5.2305 13.879-9.9258 3.457-4.6992 5.3281-10.371 5.3516-16.203zm-262.24-106.27h36.426c2.9844 0 5.4062 2.4219 5.4062 5.4102 0.039062 14.617-5.7695 28.645-16.129 38.957l-1.9219 1.9141c-1.4766 1.4766-3.4805 2.3086-5.5703 2.3086-2.0859 0-4.0898-0.83203-5.5664-2.3086l-1.9062-1.9062c-9.7891-9.8086-15.512-22.957-16.02-36.809l-0.125-2.2812c0.058593-2.9414 2.4648-5.293 5.4062-5.2852zm-194.34 5.4102c0-2.9883 2.4219-5.4102 5.4062-5.4102h36.418c2.9297 0.007812 5.3164 2.3555 5.375 5.2852l-0.085938 2.2812c-0.50781 13.848-6.2266 26.992-16.012 36.801l-1.9219 1.9141c-1.4766 1.4766-3.4766 2.3086-5.5664 2.3086-2.0898 0-4.0938-0.83203-5.5703-2.3086l-1.9062-1.9062c-10.363-10.312-16.176-24.344-16.137-38.965zm31.488 96.926v-39.359c0.17969-0.0625 0.33984-0.17969 0.51953-0.25 1.0117-0.40625 1.9961-0.88281 2.9453-1.4258 0.48828-0.26953 0.99219-0.48047 1.4648-0.78906l-0.003906 0.003906c1.4062-0.91016 2.707-1.9688 3.8906-3.1523l1.9219-1.9219v0.003906c2.418-2.457 4.6562-5.0898 6.6914-7.875 0.33203-0.44922 0.67578-0.875 1-1.3242v0.003906c1.875-2.6641 3.5625-5.4531 5.0508-8.3516 0.29297-0.55859 0.55859-1.125 0.83594-1.6914v-0.003906c1.4453-2.9609 2.6836-6.0234 3.6992-9.1602 0.11719-0.37109 0.19531-0.73828 0.30859-1.1094 0.9375-3.1172 1.6602-6.2891 2.1641-9.5039 0.039062-0.25 0.13281-0.48828 0.17188-0.73828h111.86c0 0.25 0.13281 0.49609 0.17188 0.74609 0.49609 3.2266 1.2148 6.4141 2.1484 9.543 0.10938 0.37109 0.19531 0.78906 0.31641 1.125 1.0156 3.1328 2.2539 6.1914 3.6992 9.1562 0.27734 0.56641 0.54297 1.1328 0.83594 1.6992 1.4883 2.8984 3.1758 5.6875 5.0508 8.3516 0.32422 0.44922 0.66797 0.88281 1 1.332 2.0352 2.7812 4.2734 5.4141 6.6914 7.8711l1.9062 1.9062c1.1953 1.1836 2.5156 2.2383 3.9375 3.1484 0.46484 0.30078 0.97656 0.51172 1.4648 0.78906l-0.003906-0.003906c0.94922 0.54297 1.9336 1.0195 2.9453 1.4258 0.17969 0.070312 0.33984 0.1875 0.51953 0.25v39.363c-0.019532 18.781-7.4922 36.789-20.773 50.074-13.281 13.281-31.289 20.75-50.074 20.773h-31.512c-18.793-0.023438-36.809-7.5-50.094-20.793-13.285-13.297-20.746-31.316-20.754-50.113zm110.21 228.29v-39.492c0.49609 0.37109 1.0234 0.69141 1.5195 1.0547 1.4336 1.0508 2.8867 2.0625 4.3594 3.0391 0.88281 0.58203 1.7617 1.1641 2.6523 1.7227 1.5742 0.98438 3.1484 1.9141 4.7852 2.8164 0.78906 0.45703 1.5742 0.9375 2.4336 1.3711 2.3633 1.2656 4.8086 2.4727 7.2734 3.5664l0.36328 0.15625c2.457 1.0859 4.9609 2.0703 7.4844 2.9844 0.20312 0.070312 0.40234 0.17188 0.60547 0.24219l0.003906 22.539zm141.7 0 0.003906-15.742h31.488v15.742zm84.348-35.785-5.625 1.6758v49.855h-31.488v-47.234h-110.21v47.23l-31.488 0.003906v-49.855l-5.6289-1.6758c-21.078-6.3555-39.559-19.312-52.719-36.961-13.16-17.652-20.301-39.062-20.375-61.078v-7.8711h23.617c22.957-0.023438 44.969-9.1562 61.203-25.391 16.234-16.234 25.363-38.242 25.391-61.203v-7.8711h118.08c33.027 0.035156 64.008 16.004 83.195 42.887 19.188 26.883 24.219 61.371 13.516 92.613-10.703 31.246-35.824 55.406-67.465 64.875z"/>
  <path d="m258.3 281.92c0-4.3477 3.5273-7.8711 7.875-7.8711 4.3477 0 7.8711 3.5234 7.8711 7.8711v7.8711h15.742v-7.8711c0-8.4375-4.5-16.234-11.809-20.453-7.3047-4.2188-16.309-4.2188-23.613 0-7.3086 4.2188-11.809 12.016-11.809 20.453v7.8711h15.742z"/>
  <path d="m321.28 281.92c0-4.3477 3.5234-7.8711 7.8711-7.8711 4.3477 0 7.875 3.5234 7.875 7.8711v7.8711h15.742v-7.8711c0-8.4375-4.5-16.234-11.809-20.453-7.3047-4.2188-16.309-4.2188-23.613 0-7.3086 4.2188-11.809 12.016-11.809 20.453v7.8711h15.742z"/>
  <path d="m313.41 384.25c14.062 0 27.055-7.5 34.086-19.68 7.0312-12.18 7.0312-27.184 0-39.359-7.0312-12.18-20.023-19.68-34.086-19.68h-31.488c-14.062 0-27.055 7.5-34.086 19.68-7.0312 12.176-7.0312 27.18 0 39.359 7.0312 12.18 20.023 19.68 34.086 19.68zm-55.105-39.359c0-6.2617 2.4883-12.27 6.918-16.699 4.4297-4.4297 10.438-6.918 16.699-6.918h31.488c8.4375 0 16.234 4.5039 20.453 11.809 4.2188 7.3086 4.2188 16.309 0 23.617-4.2188 7.3047-12.016 11.809-20.453 11.809h-31.488c-6.2617 0-12.27-2.4883-16.699-6.918s-6.918-10.438-6.918-16.699z"/>
 </g>
</svg>