<?xml version="1.0" encoding="UTF-8"?>
<!-- The Best Svg Icon site in the world: iconSvg.co, Visit us! https://iconsvg.co -->
<svg fill="#000000" width="800px" height="800px" version="1.1" viewBox="144 144 512 512" xmlns="http://www.w3.org/2000/svg">
 <g>
  <path d="m601.46 384.56c-0.03125-0.45703-0.11719-0.89453-0.26562-1.3242-0.0625-0.17969-0.12109-0.35156-0.20312-0.51953-0.19531-0.41016-0.45312-0.78125-0.76172-1.1289-0.089843-0.10156-0.15234-0.21484-0.24609-0.30859-0.027344-0.027344-0.042969-0.066406-0.074219-0.09375l-196.48-181.37c-1.9375-1.7812-4.8984-1.7812-6.8398 0l-196.48 181.37c-0.03125 0.027344-0.042968 0.066406-0.074218 0.09375-0.097657 0.09375-0.16016 0.21094-0.24609 0.30859-0.30469 0.34766-0.5625 0.71875-0.76172 1.1289-0.082031 0.16797-0.14062 0.33984-0.20312 0.51953-0.15234 0.42969-0.23828 0.87109-0.26562 1.3242-0.015625 0.11328-0.070313 0.21094-0.070313 0.32422v211.6c0 2.7812 2.2539 5.0391 5.0391 5.0391h392.97c2.7852 0 5.0391-2.2539 5.0391-5.0391l-0.003906-211.6c0-0.11328-0.058594-0.21094-0.066407-0.32422zm-65.43-48.625 47.57 43.914h-47.57zm-65.496 14.156v-74.613l55.418 51.156v53.215h-23.961c-0.058593-0.0625-0.09375-0.13672-0.15625-0.19531l-31.355-29.281c0.003907-0.10156 0.054688-0.18359 0.054688-0.28125zm-65.496-135.07 55.543 51.27c-0.023437 0.21484-0.12109 0.40234-0.12109 0.62109v74.102l-55.422-51.75zm-5.0352 83.324 85.617 79.949h-171.24zm-5.0391-83.324v74.242l-55.418 51.75v-74.102c0-0.21875-0.097657-0.40625-0.125-0.61719zm-120.91 111.61 55.418-51.156v74.613c0 0.097656 0.050781 0.17969 0.054687 0.27734l-31.355 29.281c-0.0625 0.058593-0.097656 0.13672-0.15625 0.19922h-23.961zm-10.078 9.3008v43.914h-47.57zm327.48 255.51h-382.89v-201.52h382.89z"/>
  <path d="m469.33 457.8v25.273c0 0.67188 0.14453 1.3047 0.38281 1.8906h-19.906c-2.7852 0-5.0391 2.2539-5.0391 5.0391v69.316c0 2.7812 2.2539 5.0391 5.0391 5.0391h47.754c2.7852 0 5.0391-2.2539 5.0391-5.0391l-0.003906-69.316c0-2.7812-2.2539-5.0391-5.0391-5.0391h-18.535c0.23828-0.58594 0.38281-1.2227 0.38281-1.8906v-25.527c6.2734-1.2344 16.16-4.3008 23.645-11.902 11.547-11.73 12.453-29.328 12.488-30.07 0.0625-1.4141-0.47266-2.7891-1.4727-3.7891-1.0039-1-2.4023-1.5-3.793-1.4688-0.73438 0.035157-18.121 0.96094-29.703 12.723-2.9297 2.9766-5.168 6.3281-6.8867 9.6914-1.7188-3.3594-3.957-6.7148-6.8867-9.6914-11.582-11.762-28.969-12.688-29.703-12.719-1.4062-0.023438-2.7891 0.46875-3.793 1.4688-1 1-1.5352 2.375-1.4727 3.7891 0.035156 0.74219 0.94141 18.34 12.488 30.074 8.0508 8.168 18.898 11.105 25.016 12.148zm18.422-27.695c5.043-5.125 11.855-7.5703 16.754-8.7227-1.1328 5.0078-3.543 12.016-8.6406 17.191-5.0469 5.1328-11.871 7.5781-16.773 8.7266 1.1211-4.9883 3.5273-11.98 8.6602-17.195zm4.7695 64.938v59.242h-37.676v-59.242zm-32.91-64.941c5.1016 5.1875 7.5117 12.211 8.6445 17.219-4.8789-1.1406-11.676-3.5781-16.758-8.7422-5.0977-5.1797-7.5078-12.188-8.6406-17.195 4.9023 1.1523 11.711 3.5977 16.754 8.7188z"/>
  <path d="m321.96 457.8v25.273c0 0.67188 0.14453 1.3047 0.38281 1.8906h-18.543c-2.7852 0-5.0391 2.2539-5.0391 5.0391v69.316c0 2.7812 2.2539 5.0391 5.0391 5.0391h47.758c2.7852 0 5.0391-2.2539 5.0391-5.0391v-69.316c0-2.7812-2.2539-5.0391-5.0391-5.0391h-19.902c0.23828-0.58594 0.38281-1.2227 0.38281-1.8906v-25.527c6.2734-1.2344 16.16-4.3008 23.645-11.902 11.547-11.73 12.453-29.328 12.488-30.07 0.0625-1.4141-0.47266-2.7891-1.4727-3.7891-1.0078-1-2.375-1.5-3.793-1.4688-0.73438 0.035157-18.121 0.96094-29.703 12.723-2.9297 2.9766-5.168 6.3281-6.8867 9.6914-1.7188-3.3594-3.957-6.7148-6.8867-9.6914-11.582-11.762-28.969-12.688-29.703-12.719-1.4219-0.023438-2.7852 0.46875-3.793 1.4688-1 1-1.5352 2.375-1.4727 3.7891 0.035156 0.74219 0.94141 18.34 12.488 30.074 8.0508 8.168 18.895 11.105 25.012 12.148zm18.426-27.695c5.043-5.125 11.855-7.5703 16.754-8.7227-1.1328 5.0078-3.543 12.016-8.6406 17.191-5.0469 5.1328-11.871 7.5781-16.773 8.7266 1.1172-4.9883 3.5234-11.98 8.6602-17.195zm6.1367 64.938v59.242h-37.684v-59.242zm-34.277-64.941c5.1016 5.1875 7.5117 12.211 8.6445 17.219-4.8789-1.1406-11.676-3.5781-16.758-8.7422-5.0977-5.1797-7.5078-12.188-8.6406-17.195 4.9023 1.1523 11.711 3.5977 16.754 8.7188z"/>
 </g>
</svg>