<?xml version="1.0" encoding="UTF-8"?>
<!-- The Best Svg Icon site in the world: iconSvg.co, Visit us! https://iconsvg.co -->
<svg fill="#000000" width="800px" height="800px" version="1.1" viewBox="144 144 512 512" xmlns="http://www.w3.org/2000/svg">
 <g>
  <path d="m562.16 272.68c2.7812 0 5.0391-2.2539 5.0391-5.0391 0-2.7812-2.2539-5.0391-5.0391-5.0391-8.9297 0-16.934 3.9766-22.406 10.238-2.1719-9.7852-5.4492-19.602-8.9492-24.633-3.4844-5-9.1602-7.9844-15.184-7.9844-6.0234 0.003906-11.695 2.9883-15.172 7.9844-3.5039 5.0312-6.7852 14.848-8.957 24.633-5.4727-6.2617-13.477-10.238-22.406-10.238-2.7812 0-5.0391 2.2539-5.0391 5.0391 0 2.7812 2.2539 5.0391 5.0391 5.0391 10.902 0 19.77 8.9258 19.77 19.898 0 0.007812 0.003906 0.015625 0.003906 0.023437 0 0.058594-0.003906 0.125-0.003906 0.18359 0 25.535 10.812 36.789 21.73 39.352v27.852c-5.2734-4.6992-12.184-7.582-19.77-7.582-2.7812 0-5.0391 2.2539-5.0391 5.0391 0 2.7812 2.2539 5.0391 5.0391 5.0391 10.902 0 19.77 8.9258 19.77 19.898v18.934c-5.2734-4.6992-12.184-7.582-19.77-7.582-2.7812 0-5.0391 2.2539-5.0391 5.0391 0 2.7812 2.2539 5.0391 5.0391 5.0391 10.902 0 19.77 8.9258 19.77 19.898v36.289l-106.13 0.003906v-17.445c0-10.973 8.8672-19.898 19.77-19.898 2.7812 0 5.0391-2.2539 5.0391-5.0391 0-2.7812-2.2539-5.0391-5.0391-5.0391-7.5859 0-14.5 2.8828-19.77 7.582v-18.938c0-10.973 8.8672-19.898 19.77-19.898 2.7812 0 5.0391-2.2539 5.0391-5.0391 0-2.7812-2.2539-5.0391-5.0391-5.0391-7.5859 0-14.5 2.8828-19.77 7.582v-46.691c10.914-2.5625 21.727-13.816 21.727-39.352 0-0.058594-0.003907-0.125-0.003907-0.18359 0-0.007812 0.003907-0.015624 0.003907-0.023437 0-10.973 8.8711-19.898 19.773-19.898 2.7812 0 5.0391-2.2539 5.0391-5.0391 0-2.7812-2.2539-5.0391-5.0391-5.0391-8.9297 0-16.934 3.9766-22.41 10.238-2.1719-9.7891-5.4492-19.602-8.9531-24.633-3.4805-5-9.1523-7.9844-15.176-7.9844h-0.003906c-6.0234 0-11.699 2.9844-15.18 7.9844-3.5039 5.0312-6.7812 14.844-8.9531 24.633-5.4766-6.2617-13.48-10.238-22.41-10.238-2.7812 0-5.0391 2.2539-5.0391 5.0391 0 2.7812 2.2539 5.0391 5.0391 5.0391 10.902 0 19.773 8.9258 19.773 19.898 0 0.007813 0.003906 0.015625 0.003906 0.023437 0 0.058594-0.003906 0.125-0.003906 0.18359 0 25.535 10.812 36.789 21.73 39.352v27.852c-5.2734-4.6992-12.188-7.582-19.773-7.582-2.7812 0-5.0391 2.2539-5.0391 5.0391 0 2.7812 2.2539 5.0391 5.0391 5.0391 10.902 0 19.773 8.9258 19.773 19.898v18.934c-5.2734-4.6992-12.188-7.582-19.773-7.582-2.7812 0-5.0391 2.2539-5.0391 5.0391 0 2.7812 2.2539 5.0391 5.0391 5.0391 10.902 0 19.773 8.9258 19.773 19.898v36.289h-106.13v-17.445c0-10.973 8.8672-19.898 19.77-19.898 2.7812 0 5.0391-2.2539 5.0391-5.0391 0-2.7812-2.2539-5.0391-5.0391-5.0391-7.5859 0-14.5 2.8828-19.77 7.582v-18.938c0-10.973 8.8672-19.898 19.77-19.898 2.7812 0 5.0391-2.2539 5.0391-5.0391 0-2.7812-2.2539-5.0391-5.0391-5.0391-7.5859 0-14.5 2.8828-19.77 7.582v-46.691c10.914-2.5625 21.73-13.816 21.73-39.352 0-0.058594-0.003906-0.125-0.003906-0.18359 0-0.007812 0.003906-0.015624 0.003906-0.023437 0-10.973 8.8672-19.898 19.77-19.898 2.7812 0 5.0391-2.2539 5.0391-5.0391 0-2.7812-2.2539-5.0391-5.0391-5.0391-8.9297 0-16.934 3.9766-22.406 10.238-2.1719-9.7891-5.4492-19.602-8.9531-24.633-3.4805-5-9.1523-7.9844-15.176-7.9844h-0.003906c-6.0234 0-11.699 2.9844-15.18 7.9844-3.5039 5.0312-6.7812 14.844-8.9492 24.633-5.4727-6.2617-13.477-10.238-22.406-10.238-2.7812 0-5.0391 2.2539-5.0391 5.0391 0 2.7812 2.2539 5.0391 5.0391 5.0391 10.902 0 19.77 8.9258 19.77 19.898 0 0.007813 0.003906 0.015625 0.003906 0.023437 0 0.058594-0.003906 0.125-0.003906 0.18359 0 25.535 10.812 36.789 21.73 39.352v27.852c-5.2734-4.6992-12.184-7.582-19.77-7.582-2.7812 0-5.0391 2.2539-5.0391 5.0391 0 2.7812 2.2539 5.0391 5.0391 5.0391 10.902 0 19.77 8.9258 19.77 19.898v18.934c-5.2734-4.6992-12.184-7.582-19.77-7.582-2.7812 0-5.0391 2.2539-5.0391 5.0391 0 2.7812 2.2539 5.0391 5.0391 5.0391 10.902 0 19.77 8.9258 19.77 19.898v36.289h-40.547c-2.7812 0-5.0391 2.2539-5.0391 5.0391 0 2.7812 2.2539 5.0391 5.0391 5.0391h323.59c2.7812 0 5.0391-2.2539 5.0391-5.0391 0-2.7812-2.2539-5.0391-5.0391-5.0391h-40.547v-17.445c0-10.973 8.8711-19.898 19.773-19.898 2.7812 0 5.0391-2.2539 5.0391-5.0391 0-2.7812-2.2539-5.0391-5.0391-5.0391-7.5898 0-14.5 2.8828-19.773 7.582v-18.938c0-10.973 8.8711-19.898 19.773-19.898 2.7812 0 5.0391-2.2539 5.0391-5.0391 0-2.7812-2.2539-5.0391-5.0391-5.0391-7.5898 0-14.5 2.8828-19.773 7.582v-46.691c10.914-2.5625 21.73-13.816 21.73-39.352 0-0.058594-0.003906-0.125-0.003906-0.18359 0-0.007812 0.003906-0.015624 0.003906-0.023437-0.003906-10.977 8.8672-19.902 19.77-19.902zm-179.44 20.109c0-11.348 5.3008-32.391 9.7812-38.82 1.6211-2.332 4.1406-3.668 6.9102-3.668 2.7695 0 5.2852 1.3359 6.9102 3.668 4.4766 6.4297 9.7773 27.473 9.7773 38.82 0 18.43-6.3945 29.879-16.688 29.879-10.293 0-16.691-11.449-16.691-29.879zm-116.21 0c0-11.344 5.3008-32.387 9.7812-38.82 1.6211-2.332 4.1406-3.668 6.9102-3.668s5.2852 1.3359 6.9102 3.668c4.4805 6.4297 9.7812 27.473 9.7812 38.82 0 18.43-6.3945 29.879-16.691 29.879s-16.691-11.449-16.691-29.879zm249.11 29.879c-10.297 0-16.691-11.449-16.691-29.879 0-11.348 5.3008-32.387 9.7852-38.82 1.6211-2.3281 4.1367-3.6641 6.9062-3.6641 2.7695 0 5.2891 1.3359 6.9102 3.6641 4.4805 6.4336 9.7812 27.477 9.7812 38.82 0 18.43-6.3945 29.879-16.691 29.879z"/>
  <path d="m203.51 508.16h29.07v81.316c0 6.6445 5.4023 12.051 12.043 12.051h22.25c6.6406 0 12.047-5.4062 12.047-12.047v-81.316h242.15v81.316c0 6.6406 5.4062 12.047 12.047 12.047h22.25c6.6406 0 12.047-5.4062 12.047-12.047v-81.316l29.066-0.003906c2.7812 0 5.0391-2.2539 5.0391-5.0391v-299.61c0-2.7812-2.2539-5.0391-5.0391-5.0391l-392.97 0.003906c-2.7812 0-5.0391 2.2539-5.0391 5.0391v299.61c0.003906 2.7812 2.2578 5.0352 5.0391 5.0352zm65.332 81.32c0 1.0859-0.88281 1.9688-1.9688 1.9688h-22.25c-1.0859 0-1.9688-0.88281-1.9688-1.9688v-81.316h26.188zm288.5 0c0 1.0859-0.88281 1.9688-1.9688 1.9688h-22.25c-1.0859 0-1.9688-0.88281-1.9688-1.9688v-81.316h26.188zm-348.79-380.93h382.89v289.53h-382.89z"/>
 </g>
</svg>