<?xml version="1.0" encoding="UTF-8"?>
<!-- The Best Svg Icon site in the world: iconSvg.co, Visit us! https://iconsvg.co -->
<svg fill="#000000" width="800px" height="800px" version="1.1" viewBox="144 144 512 512" xmlns="http://www.w3.org/2000/svg">
 <g>
  <path d="m304.12 285.94c9.0156-24.488 26.551-46 50.078-57.438l1.8125-0.85547v3.2227c0 2.0664 1.7109 3.7773 3.7773 3.7773l80.41 0.003907c2.0664 0 3.7773-1.7148 3.7773-3.7773v-3.2266l1.8125 0.85547c24.031 11.688 41.867 33.906 50.684 59.098 3.8281 10.934 5.9453 22.371 6.1445 33.805h7.6094c-0.19922-11.387-2.2656-22.824-5.8945-33.754-9.7227-29.473-31.086-55.469-59.602-67.863l-0.75391-0.30078v-12.191c0-2.0664-1.7109-3.7773-3.7773-3.7773l-80.41-0.003906c-2.0664 0-3.7773 1.7109-3.7773 3.7773v12.191l-0.75391 0.30078c-27.961 12.141-48.969 37.332-58.996 66.051-4.0312 11.488-6.2461 23.527-6.5 35.57h7.6094c0.19922-11.988 2.5664-24.082 6.75-35.465z"/>
  <path d="m315.36 564.75h169.28v31.738h-169.28z"/>
  <path d="m322.91 557.19h154.16l23.125-181.07h-200.41zm15.367-13.148h-0.45312c-1.9141 0-3.5273-1.4102-3.7773-3.2734l-14.105-110.64c-0.30078-2.0664 1.1602-3.9805 3.2227-4.2305 0.20312-0.050782 0.35156-0.050782 0.55469-0.050782 1.8633 0 3.4766 1.4102 3.6797 3.3242l14.156 110.63c0.25 2.0664-1.2109 3.9805-3.2773 4.2344zm-19.297-154.77h18.941c2.1172 0 3.7773 1.6641 3.7773 3.7773 0 2.0664-1.6641 3.7773-3.7773 3.7773l-14.656 0.003907 1.5117 11.637c0.25 2.0664-1.2109 3.9805-3.2734 4.2305l-0.50391 0.050782c-1.8633 0-3.4766-1.4102-3.7266-3.3242l-2.0156-15.922c-0.15234-1.0586 0.20312-2.168 0.90625-2.9727 0.70312-0.80469 1.7617-1.2578 2.8164-1.2578z"/>
  <path d="m283.21 328.96h233.57v39.602h-233.57z"/>
 </g>
</svg>