<?xml version="1.0" encoding="UTF-8"?>
<!-- The Best Svg Icon site in the world: iconSvg.co, Visit us! https://iconsvg.co -->
<svg fill="#000000" width="800px" height="800px" version="1.1" viewBox="144 144 512 512" xmlns="http://www.w3.org/2000/svg">
 <g>
  <path d="m528.27 299.69c-0.25 22.922-16.625 42.383-38.855 46.289-0.1875 0.0625-0.44141 0.0625-0.62891 0.125h-0.0625c-11.965 2.0781-23.051 2.3945-28.086 2.3945h-0.88281c-0.94531 0-1.5742-0.0625-1.8906-0.0625h-0.1875c-3.3398-0.125-5.9844-2.7695-6.1094-6.1094v-0.1875c0-0.31641-0.0625-0.94531-0.0625-1.8906 0-4.6602 0.1875-16.246 2.3945-28.969v-0.0625c0.0625-0.1875 0.0625-0.44141 0.125-0.62891 3.9062-22.23 23.363-38.605 46.289-38.855 7.6211 0 14.547 2.7695 19.902 8.0625 5.2812 5.3438 8.1797 12.398 8.0547 19.895z"/>
  <path d="m453.9 311.21v0.0625c-2.2031 12.723-2.3945 24.309-2.3945 28.969-5.668-4.2188-26.641-12.344-31.301-14.672-21.789-10.957-43.137-36.148-39.047-53.531 1.6367-7.0547 7.8086-15.492 27.582-15.492 27.965 0 39.996 29.16 45.16 54.664z"/>
  <path d="m543.45 391.25c0 19.773-8.4375 25.945-15.492 27.582-1.4492 0.31641-3.0234 0.50391-4.5352 0.50391-17.004 0-38.98-19.586-48.996-39.551-2.3281-4.6602-10.453-25.633-14.672-31.301h0.88281c5.0391 0 16.121-0.31641 28.086-2.3945h0.0625c25.508 5.168 54.664 17.199 54.664 45.16z"/>
  <path d="m308.43 528.57c-13.066 6.2188-24.875 11.258-33.93 14.168-5.0391 1.6523-10.234 0.39453-13.934-3.3047-3.6992-3.6992-4.9609-8.8945-3.3047-13.934 2.7539-8.6602 7.4805-19.758 13.305-32.039 8.8164 13.539 24.168 27.629 37.863 35.109z"/>
  <path d="m379.91 488.89c-15.902 10.156-34.242 20.625-51.797 29.836 0 0-0.078125 0.078126-0.15625 0-2.3633 0.31641-8.1875-1.1016-17.398-7.2422-17.555-11.809-29.52-28.18-31.566-35.109 9.7617-19.129 21.332-39.438 32.434-56.758 10.465 30.387 36.836 59.746 68.484 69.273z"/>
  <path d="m434.38 439.85c-4.9609 7.4805-10.941 14.719-17.789 21.57-4.4102 4.4102-10.469 9.4453-17.949 14.879h-0.078125c-36.605-1.7305-69.98-39.754-75.336-74.156 5.5898-7.793 10.785-14.25 15.352-18.734 6.457-6.457 13.305-12.125 20.309-16.926 12.91 29.52 44.633 60.457 75.492 73.367z"/>
  <path d="m442.57 426.07c-28.18-10.941-59.355-41.172-69.98-67.938 27.789-14.719 55.812-16.375 70.691-1.5742l0.15625 0.16016c14.562 14.641 13.145 42.035-0.86719 69.352z"/>
  <path d="m404 491.64v0.39453h-0.62891c0.23437-0.078124 0.39453-0.23828 0.62891-0.39453z"/>
 </g>
</svg>