<?xml version="1.0" encoding="UTF-8"?>
<!-- The Best Svg Icon site in the world: iconSvg.co, Visit us! https://iconsvg.co -->
<svg fill="#000000" width="800px" height="800px" version="1.1" viewBox="144 144 512 512" xmlns="http://www.w3.org/2000/svg">
 <path d="m581.67 345.55h-8.4883c12.074-6.5898 20.285-19.406 20.285-34.105 0-21.41-17.418-38.828-38.828-38.828s-38.828 17.418-38.828 38.828c0 14.699 8.2109 27.516 20.285 34.105h-8.4922c-10.988 0-19.922 8.9375-19.922 19.922v20.477h-49.242c-0.80469-2.8398-1.8164-5.6094-3.0117-8.3203 26.676-4.0938 54.406-28.367 54.406-58.969 0-8.5195-2.0664-16.934-5.9961-24.527 3.9297-6.5156 5.9961-13.902 5.9961-21.551 0-15.766-8.7969-30.055-22.652-37.211-2.4688-20.926-20.156-36.898-41.543-36.898-23.098 0-41.891 18.789-41.891 41.887 0 3.418 0.42969 6.8125 1.2695 10.148-4.9648 2.2383-9.5312 5.3438-13.523 9.082-2.3242-0.33203-4.668-0.55859-7.0312-0.55859-27.32 0-49.543 22.227-49.543 49.547 0 4.3359 0.57422 8.6367 1.7227 12.848-21.363 9.1836-35.391 30.199-35.391 53.762 0 3.6367 0.45703 7.2266 1.1211 10.766h-9.9141v-20.477c0-10.984-8.9336-19.922-19.922-19.922h-8.4922c12.074-6.5898 20.285-19.406 20.285-34.105 0-21.41-17.418-38.828-38.828-38.828s-38.828 17.418-38.828 38.828c0 14.699 8.2109 27.516 20.285 34.105l-8.4922-0.003906c-10.988 0-19.926 8.9375-19.926 19.922v231.01c0 2.7812 2.2539 5.0391 5.0391 5.0391h392.97c2.7852 0 5.0391-2.2539 5.0391-5.0391l-0.003906-231.01c0-10.984-8.9336-19.922-19.918-19.922zm-55.785-34.105c0-15.855 12.898-28.754 28.754-28.754 15.852 0 28.754 12.898 28.754 28.754s-12.898 28.754-28.754 28.754c-15.852-0.003906-28.754-12.898-28.754-28.754zm-309.14 0c0-15.855 12.898-28.754 28.754-28.754 15.852 0 28.754 12.898 28.754 28.754s-12.898 28.754-28.754 28.754c-15.852-0.003906-28.754-12.898-28.754-28.754zm196.08-53.191c1.3047-0.43359 2.375-1.3789 2.9609-2.6211 0.58984-1.2422 0.64453-2.6719 0.15625-3.957-1.4062-3.6758-2.1211-7.4844-2.1211-11.32 0-17.539 14.273-31.809 31.812-31.809 17.027 0 30.961 13.336 31.73 30.363 0.089844 1.9336 1.2734 3.6484 3.0547 4.4102 11.742 5.0117 19.336 16.5 19.336 29.266 0 6.6211-2.043 12.988-5.9102 18.41-1.1602 1.6289-1.25 3.7852-0.22656 5.5039 4.0156 6.7383 6.1367 14.402 6.1367 22.168 0 24.422-21.43 44.047-42.926 48.578 2.7109-6.1953 4.1289-12.879 4.1289-19.742 0-11.027-3.7188-21.383-10.082-29.809l0.007812-20.176c13.621-2.3945 24.016-14.285 24.016-28.582 0-2.7812-2.2539-5.0391-5.0391-5.0391s-5.0391 2.2539-5.0391 5.0391c0 8.707-5.9297 15.984-13.938 18.207v-31.41c0-2.7812-2.2539-5.0391-5.0391-5.0391s-5.0391 2.2539-5.0391 5.0391v51.969c-2.2461-1.6562-4.5938-3.1992-7.1406-4.4766-1.9453-18.094-13.664-33.488-30.148-40.363 2.9023-1.9336 6.0156-3.5156 9.3086-4.6094zm-101.5 116.93c0-20.895 13.332-39.375 33.176-45.984 1.3008-0.43359 2.3711-1.3789 2.957-2.6211 0.58984-1.2383 0.64453-2.668 0.15625-3.9531-1.7422-4.5625-2.6211-9.2891-2.6211-14.051 0-21.766 17.707-39.473 39.469-39.473 2.8047 0 5.5938 0.29688 8.3008 0.875 17.492 3.7461 30.27 18.879 31.074 36.801 0.089843 1.9336 1.2734 3.6484 3.0547 4.4102 14.578 6.2227 23.996 20.477 23.996 36.312 0 8.2148-2.5352 16.117-7.332 22.848-0.15234 0.21484-0.23438 0.45703-0.35156 0.68359-0.074219 0.14453-0.15625 0.27344-0.21484 0.42188-0.21875 0.5625-0.33984 1.1445-0.35156 1.7383 0 0.027344-0.015625 0.050782-0.015625 0.078125 0 0.085938 0.042968 0.15234 0.046875 0.23828 0.023437 0.49609 0.12109 0.97656 0.29297 1.4492 0.0625 0.17188 0.125 0.33203 0.20312 0.49609 0.0625 0.12891 0.089844 0.26953 0.16406 0.39453 1.918 3.2188 3.4492 6.6094 4.6523 10.102l-58.227 0.003906v-9.2266c16.383-2.4492 29.004-16.574 29.004-33.629 0-2.7812-2.2539-5.0391-5.0391-5.0391s-5.0391 2.2539-5.0391 5.0391c0 11.484-8.125 21.09-18.926 23.414v-39.359c0-2.7812-2.2539-5.0391-5.0391-5.0391s-5.0391 2.2539-5.0391 5.0391v58.801h-67.051c-0.80469-3.5195-1.3008-7.1172-1.3008-10.77zm-102.7 216.26v-69.57h23.406c2.7852 0 5.0391-2.2539 5.0391-5.0391 0-2.7812-2.2539-5.0391-5.0391-5.0391h-23.406v-67.637h23.406c2.7852 0 5.0391-2.2539 5.0391-5.0391 0-2.7812-2.2539-5.0391-5.0391-5.0391h-23.406v-68.605c0-5.4297 4.418-9.8438 9.8516-9.8438h54.066c5.4258 0 9.8438 4.4141 9.8438 9.8438v26.887h-23.406c-2.7852 0-5.0391 2.2539-5.0391 5.0391 0 2.7812 2.2539 5.0391 5.0391 5.0391h23.406v67.637h-23.406c-2.7852 0-5.0391 2.2539-5.0391 5.0391 0 2.7812 2.2539 5.0391 5.0391 5.0391h23.406v67.641h-23.406c-2.7852 0-5.0391 2.2539-5.0391 5.0391 0 2.7812 2.2539 5.0391 5.0391 5.0391h23.406v33.574zm83.836 0v-195.42h215.23v195.41zm225.3 0v-69.57h23.398c2.7852 0 5.0391-2.2539 5.0391-5.0391 0-2.7812-2.2539-5.0391-5.0391-5.0391h-23.398v-67.637h23.398c2.7852 0 5.0391-2.2539 5.0391-5.0391 0-2.7812-2.2539-5.0391-5.0391-5.0391h-23.398v-68.605c0-5.4297 4.418-9.8438 9.8438-9.8438h54.066c5.4258 0 9.8438 4.4141 9.8438 9.8438v26.887h-23.398c-2.7852 0-5.0391 2.2539-5.0391 5.0391 0 2.7812 2.2539 5.0391 5.0391 5.0391h23.398v67.637h-23.398c-2.7852 0-5.0391 2.2539-5.0391 5.0391 0 2.7812 2.2539 5.0391 5.0391 5.0391h23.398v67.641h-23.398c-2.7852 0-5.0391 2.2539-5.0391 5.0391 0 2.7812 2.2539 5.0391 5.0391 5.0391h23.398v33.574z"/>
</svg>