<?xml version="1.0" encoding="UTF-8"?>
<!-- The Best Svg Icon site in the world: iconSvg.co, Visit us! https://iconsvg.co -->
<svg fill="#000000" width="800px" height="800px" version="1.1" viewBox="144 144 512 512" xmlns="http://www.w3.org/2000/svg">
 <g>
  <path d="m242.39 478.98c11.754 39.613 33.156 73.859 60.25 96.418 27.68 23.051 58.027 31.246 85.477 23.109 4.0273-1.1953 8.0117-2.7812 11.887-4.7266 3.875 1.9414 7.8633 3.5273 11.891 4.7266 6.918 2.0547 14.016 3.0664 21.211 3.0664 21.355 0 43.559-8.9375 64.262-26.18 27.094-22.566 48.492-56.805 60.25-96.418 11.645-39.223 11.391-75.555-0.71875-105.08-11.531-28.113-33.387-48.195-61.547-56.551-31.434-9.332-63.773-2.0664-90.309 19.887v-30.266c12.43 1.4844 55.176 4.5 79.629-19.945 28.219-28.219 19.852-80.812 19.477-83.031-0.35156-2.125-2.0156-3.7891-4.1406-4.1406-2.2266-0.37891-54.82-8.7422-83.031 19.477-15.168 15.164-19.77 37.277-21.246 57.246-4.3008-12.832-10.496-27.07-19.418-40.328-1.5508-2.3086-4.6797-2.9258-6.9922-1.3672-2.3086 1.5508-2.9219 4.6836-1.3672 6.9922 22.398 33.301 26.801 74.664 27.016 76.805v18.566c-26.535-21.949-58.875-29.211-90.309-19.887-28.156 8.3594-50.02 28.441-61.547 56.551-12.113 29.52-12.367 65.852-0.72266 105.07zm181.7-252.53c20.605-20.605 58.652-18.402 70.578-17.129 1.2812 11.941 3.4766 49.973-17.129 70.578-21.875 21.871-63.383 18.047-72.473 16.906 0.22656-21.727 1.2734-52.609 19.023-70.355zm-171.66 151.27c10.352-25.23 29.918-43.242 55.098-50.715 31.25-9.2734 63.652-0.10156 88.914 25.18 0.011719 0.011718 0.03125 0.015625 0.039062 0.023437 0.90625 0.89062 2.1523 1.4492 3.5273 1.4492s2.6133-0.55859 3.5273-1.4492c0.011719-0.011719 0.03125-0.015625 0.039062-0.023437 25.262-25.277 57.68-34.449 88.914-25.18 25.18 7.4727 44.742 25.488 55.098 50.715 11.23 27.379 11.359 61.398 0.38281 98.391-11.199 37.73-31.457 70.242-57.043 91.547-25.004 20.816-52.059 28.348-76.156 21.195-4.1914-1.2461-8.3438-2.9883-12.344-5.168-0.75-0.41406-1.582-0.62109-2.4141-0.62109-0.83203 0-1.6641 0.20703-2.4141 0.62109-4 2.1875-8.1562 3.9258-12.344 5.168-24.098 7.1484-51.152-0.36719-76.156-21.195-25.582-21.305-45.84-53.816-57.043-91.547-10.984-36.988-10.852-71.012 0.375-98.391z"/>
  <path d="m282.3 466.88c0.48438 0 0.97266-0.070312 1.4609-0.21484 2.6641-0.80469 4.1719-3.6172 3.3672-6.2812-7.9805-26.434-6.9531-50.996 2.8984-69.164 7.1875-13.266 18.625-22.5 33.07-26.719 2.6719-0.78125 4.2031-3.5781 3.4258-6.2461-0.78125-2.6719-3.5664-4.2031-6.2461-3.4258-17.078 4.9844-30.602 15.906-39.105 31.59-11.141 20.551-12.449 47.852-3.6875 76.875 0.65625 2.1836 2.6562 3.5859 4.8164 3.5859z"/>
 </g>
</svg>