<?xml version="1.0" encoding="UTF-8"?>
<!-- The Best Svg Icon site in the world: iconSvg.co, Visit us! https://iconsvg.co -->
<svg fill="#000000" width="800px" height="800px" version="1.1" viewBox="144 144 512 512" xmlns="http://www.w3.org/2000/svg">
 <path d="m597.64 227.3c-12.203 0-23.02 5.9414-29.797 15.055-2.7305-13.375-7.2109-27.348-12.02-34.223-4.2969-6.1367-11.012-9.6523-18.43-9.6523s-14.133 3.5156-18.426 9.6523c-4.8125 6.8789-9.2969 20.848-12.027 34.223-6.7773-9.1133-17.594-15.055-29.801-15.055-2.7812 0-5.0391 2.2539-5.0391 5.0391 0 2.7852 2.2578 5.0391 5.0391 5.0391 14.934 0 27.078 12.148 27.078 27.078 0 0.011719 0.003906 0.019531 0.003906 0.03125 0 0.074219-0.003906 0.16797-0.003906 0.24219 0 33.023 13.742 46.969 28.129 49.535v40.508c-6.7852-7.2383-16.398-11.793-27.078-11.793-2.7812 0-5.0391 2.2539-5.0391 5.0391s2.2578 5.0391 5.0391 5.0391c14.934 0 27.078 12.148 27.078 27.078v27.871c-6.7852-7.2383-16.398-11.793-27.078-11.793-2.7812 0-5.0391 2.2539-5.0391 5.0391s2.2578 5.0391 5.0391 5.0391c14.934 0 27.078 12.148 27.078 27.078v27.871c-6.7852-7.2383-16.398-11.793-27.078-11.793-2.7812 0-5.0391 2.2539-5.0391 5.0391s2.2578 5.0391 5.0391 5.0391c14.934 0 27.078 12.148 27.078 27.078v27.871c-6.7852-7.2383-16.398-11.793-27.078-11.793-2.7812 0-5.0391 2.2539-5.0391 5.0391s2.2578 5.0391 5.0391 5.0391c14.934 0 27.078 12.148 27.078 27.078l0.003906 51.609h-127.31v-12.082c0-14.934 12.148-27.078 27.078-27.078 2.7812 0 5.0391-2.2539 5.0391-5.0391s-2.2578-5.0391-5.0391-5.0391c-10.68 0-20.293 4.5547-27.078 11.793v-27.871c0-14.934 12.148-27.078 27.078-27.078 2.7812 0 5.0391-2.2539 5.0391-5.0391 0-2.7852-2.2578-5.0391-5.0391-5.0391-10.68 0-20.293 4.5547-27.078 11.793v-27.871c0-14.934 12.148-27.078 27.078-27.078 2.7812 0 5.0391-2.2539 5.0391-5.0391s-2.2578-5.0391-5.0391-5.0391c-10.68 0-20.293 4.5547-27.078 11.793v-64.762c14.391-2.5586 28.129-16.512 28.129-49.535 0-0.074219-0.003906-0.16016-0.003906-0.23828 0-0.011719 0.003906-0.019532 0.003906-0.03125 0-14.934 12.148-27.078 27.078-27.078 2.7812 0 5.0391-2.2539 5.0391-5.0391s-2.2578-5.0391-5.0391-5.0391c-12.203 0-23.02 5.9414-29.797 15.055-2.7305-13.375-7.2109-27.352-12.027-34.23-4.293-6.1367-11.008-9.6523-18.426-9.6523-7.418 0-14.133 3.5156-18.426 9.6523-4.8164 6.8789-9.2969 20.852-12.027 34.23-6.7773-9.1133-17.594-15.055-29.797-15.055-2.7812 0-5.0391 2.2539-5.0391 5.0391s2.2578 5.0391 5.0391 5.0391c14.934 0 27.078 12.148 27.078 27.078 0 0.011718 0.003907 0.019531 0.003907 0.03125 0 0.074218-0.003907 0.16016-0.003907 0.23828 0 33.023 13.742 46.969 28.129 49.535v40.508c-6.7852-7.2383-16.398-11.793-27.078-11.793-2.7812 0-5.0391 2.2539-5.0391 5.0391 0 2.7852 2.2578 5.0391 5.0391 5.0391 14.934 0 27.078 12.148 27.078 27.078v27.871c-6.7852-7.2383-16.398-11.793-27.078-11.793-2.7812 0-5.0391 2.2539-5.0391 5.0391 0 2.7852 2.2578 5.0391 5.0391 5.0391 14.934 0 27.078 12.148 27.078 27.078v27.875c-6.7852-7.2383-16.398-11.793-27.078-11.793-2.7812 0-5.0391 2.2539-5.0391 5.0391s2.2578 5.0391 5.0391 5.0391c14.934 0 27.078 12.148 27.078 27.078l0.011719 36.332h-127.32v-27.367c0-14.934 12.148-27.078 27.078-27.078 2.7812 0 5.0391-2.2539 5.0391-5.0391 0-2.7852-2.2578-5.0391-5.0391-5.0391-10.68 0-20.293 4.5547-27.078 11.793v-27.871c0-14.934 12.148-27.078 27.078-27.078 2.7812 0 5.0391-2.2539 5.0391-5.0391 0-2.7852-2.2578-5.0391-5.0391-5.0391-10.68 0-20.293 4.5547-27.078 11.793v-27.871c0-14.934 12.148-27.078 27.078-27.078 2.7812 0 5.0391-2.2539 5.0391-5.0391 0-2.7852-2.2578-5.0391-5.0391-5.0391-10.68 0-20.293 4.5547-27.078 11.793v-27.875c0-14.934 12.148-27.078 27.078-27.078 2.7812 0 5.0391-2.2539 5.0391-5.0391s-2.2578-5.0391-5.0391-5.0391c-10.68 0-20.293 4.5547-27.078 11.793v-64.754c14.391-2.5586 28.129-16.512 28.129-49.535 0-0.074219-0.003907-0.16016-0.003907-0.24219 0-0.011718 0.003907-0.019531 0.003907-0.03125 0-14.934 12.148-27.078 27.078-27.078 2.7812 0 5.0391-2.2539 5.0391-5.0391s-2.2578-5.0391-5.0391-5.0391c-12.203 0-23.02 5.9414-29.801 15.055-2.7305-13.375-7.2109-27.348-12.027-34.223-4.2852-6.1289-11.004-9.6445-18.418-9.6445-7.418 0-14.133 3.5156-18.426 9.6523-4.8125 6.8789-9.2891 20.848-12.02 34.223-6.7773-9.1133-17.594-15.055-29.797-15.055-2.7812 0-5.0391 2.2539-5.0391 5.0391 0 2.7852 2.2578 5.0391 5.0391 5.0391 14.934 0 27.078 12.148 27.078 27.078 0 0.011719 0.003906 0.019531 0.003906 0.03125 0 0.074219-0.003906 0.16797-0.003906 0.24219 0 33.023 13.738 46.969 28.129 49.535v40.508c-6.7852-7.2383-16.398-11.793-27.078-11.793-2.7812 0-5.0391 2.2539-5.0391 5.0391s2.2578 5.0391 5.0391 5.0391c14.934 0 27.078 12.148 27.078 27.078v27.871c-6.7852-7.2383-16.398-11.793-27.078-11.793-2.7812 0-5.0391 2.2539-5.0391 5.0391s2.2578 5.0391 5.0391 5.0391c14.934 0 27.078 12.148 27.078 27.078v27.871c-6.7852-7.2383-16.398-11.793-27.078-11.793-2.7812 0-5.0391 2.2539-5.0391 5.0391s2.2578 5.0391 5.0391 5.0391c14.934 0 27.078 12.148 27.078 27.078v27.871c-6.7852-7.2383-16.398-11.793-27.078-11.793-2.7812 0-5.0391 2.2539-5.0391 5.0391s2.2578 5.0391 5.0391 5.0391c14.934 0 27.078 12.148 27.078 27.078v51.609h-54.059c-2.7812 0-5.0391 2.2539-5.0391 5.0391s2.2578 5.0391 5.0391 5.0391h392.97c2.7812 0 5.0391-2.2539 5.0391-5.0391s-2.2578-5.0391-5.0391-5.0391h-54.055v-27.367c0-14.934 12.148-27.078 27.078-27.078 2.7812 0 5.0391-2.2539 5.0391-5.0391 0-2.7852-2.2578-5.0391-5.0391-5.0391-10.68 0-20.293 4.5547-27.078 11.793v-27.871c0-14.934 12.148-27.078 27.078-27.078 2.7812 0 5.0391-2.2539 5.0391-5.0391 0-2.7852-2.2578-5.0391-5.0391-5.0391-10.68 0-20.293 4.5547-27.078 11.793v-27.871c0-14.934 12.148-27.078 27.078-27.078 2.7812 0 5.0391-2.2539 5.0391-5.0391 0-2.7852-2.2578-5.0391-5.0391-5.0391-10.68 0-20.293 4.5547-27.078 11.793v-27.875c0-14.934 12.148-27.078 27.078-27.078 2.7812 0 5.0391-2.2539 5.0391-5.0391s-2.2578-5.0391-5.0391-5.0391c-10.68 0-20.293 4.5547-27.078 11.793v-64.754c14.391-2.5586 28.129-16.512 28.129-49.535 0-0.074219-0.003906-0.16016-0.003906-0.24219 0-0.011718 0.003906-0.019531 0.003906-0.03125 0-14.934 12.148-27.078 27.078-27.078 2.7812 0 5.0391-2.2539 5.0391-5.0391s-2.2578-5.0312-5.0391-5.0312zm-220.73 105.94c0-14.816 7.0039-42.367 12.922-50.82 2.3828-3.4023 6.0859-5.3516 10.172-5.3516 4.0859 0 7.7891 1.9531 10.172 5.3516 5.918 8.4531 12.922 36.004 12.922 50.82 0 24.637-8.8477 39.938-23.09 39.938-14.242 0-23.098-15.301-23.098-39.938zm-137.39-68.516c0-14.816 7.0039-42.367 12.918-50.82 2.3828-3.3945 6.0898-5.3477 10.172-5.3477s7.7891 1.9531 10.172 5.3516c5.918 8.4531 12.922 36.004 12.922 50.82 0 24.637-8.8477 39.938-23.09 39.938-14.246-0.003906-23.094-15.305-23.094-39.941zm297.88 39.938c-14.242 0-23.09-15.301-23.09-39.938 0-14.816 7.0039-42.367 12.922-50.82 2.3789-3.3945 6.0898-5.3477 10.168-5.3477 4.082 0 7.7891 1.9531 10.172 5.3516 5.9141 8.4531 12.918 36.004 12.918 50.82 0 24.633-8.8438 39.934-23.09 39.934z"/>
</svg>