<?xml version="1.0" encoding="UTF-8"?>
<!-- The Best Svg Icon site in the world: iconSvg.co, Visit us! https://iconsvg.co -->
<svg fill="#000000" width="800px" height="800px" version="1.1" viewBox="144 144 512 512" xmlns="http://www.w3.org/2000/svg">
 <path d="m595.52 437.55c-13.801-52.723-43.465-105.92-78.645-105.92-1.7617 0-3.5547 0.16797-5.3555 0.46875-16.641-30.469-36.43-47.234-55.984-47.234-22.594 0-48.973 25.559-65.559 62.895-8.082-6.2539-16.711-10-25.66-10-3.2344 0-6.5391 0.51172-9.8789 1.4844-16.543-29.945-36.164-46.41-55.531-46.41-32.234 0-69.766 50.703-78.738 106.38-3.4844 21.602-4.0078 40.012-1.6055 54.809-5.1523 12.406-9.0898 25.781-11.297 39.465-6.6523 41.266-2.7031 69.762 12.082 87.121 16.367 19.219 42.992 20.824 66.66 20.824 22.57 0 54.602-2.6289 72.145-25.352 5.1562-6.6836 8.6992-14.711 10.648-24.027 7.3672-0.12109 13.871-0.59766 19.965-1.4453 2.2422 12.832 6.7188 23.184 13.508 31.156 16.367 19.219 42.992 20.828 66.66 20.828 22.57 0 54.602-2.6289 72.145-25.352 7.1094-9.2109 11.156-20.965 12.164-35.145 17.852-4.5625 30.918-13.41 38.859-26.336 11.109-18.094 12.262-44.41 3.418-78.211zm-139.98-142.84c15.215 0 31.941 14.605 46.359 40.277-18.246 7.8633-36.973 29.039-49.992 57.629-7.043 3.4453-14.055 8.8242-20.719 15.711-8.4609-20.086-20.023-40.121-33.469-53.684 14.566-34.371 39.078-59.934 57.82-59.934zm-225.66 106.08c8.9062-55.25 44.418-98.105 69.027-98.105 15.219 0 31.965 14.637 46.387 40.34-15.266 8.1289-30.516 25.262-42.324 48.246-5.4727-2.6719-11.141-4.1562-16.965-4.1562-20.441 0-43.004 20.402-59.074 49.523-0.17969-10.531 0.80078-22.52 2.9492-35.848zm120.48 169.29c-14.891 19.293-43.859 21.523-64.355 21.523-22.453 0-45.52-1.3438-59.168-17.367-12.621-14.82-15.938-41.457-9.8594-79.172 2.2031-13.672 6.043-26.586 10.938-38.281 0.13672-0.25391 0.24609-0.52344 0.33984-0.80078 14.918-35.117 39.371-59.023 57.75-59.023 25.512 0 53.934 40.531 69.121 98.566 8.8672 33.887 7.2656 58.969-4.7656 74.555zm19.855-27.895c1.1836-14-0.66406-30.406-5.5664-49.152-10.32-39.426-29.516-79.113-53.254-96.625 14.758-28.918 36.16-48.797 52.926-48.797 19.699 0 42.945 26.984 59.605 68.973-15.961 19.938-28.938 48.289-33.738 78.07-2.8555 17.715-3.7422 33.066-2.6719 46.199-5.2891 0.74609-10.949 1.1797-17.301 1.332zm163.07 29.055c-14.891 19.293-43.859 21.523-64.355 21.523-22.453 0-45.52-1.3438-59.168-17.367-12.621-14.82-15.938-41.457-9.8594-79.172 4.9688-30.82 18.219-57.77 33.234-75.59 0.15234-0.16797 0.30469-0.33594 0.43359-0.52344 11.785-13.812 24.613-21.992 35.359-21.992 25.512 0 53.934 40.531 69.121 98.566 8.8711 33.883 7.2656 58.969-4.7656 74.555zm50.43-60.621c-6.2656 10.195-16.199 17.176-30.258 21.234-0.30469-11.262-2.2617-23.828-5.8789-37.656-13.801-52.723-43.465-105.92-78.645-105.92-1.3516 0-2.7148 0.12109-4.0781 0.29688 14.656-27.793 35.594-47.094 52.031-47.094 25.512 0 53.934 40.531 69.121 98.566 8.1367 31.109 7.3672 54.852-2.293 70.57z"/>
</svg>