<?xml version="1.0" encoding="UTF-8"?>
<!-- The Best Svg Icon site in the world: iconSvg.co, Visit us! https://iconsvg.co -->
<svg fill="#000000" width="800px" height="800px" version="1.1" viewBox="144 144 512 512" xmlns="http://www.w3.org/2000/svg">
 <g>
  <path d="m570.18 163.84h-340.36l-50.238 100.48v41.219c0.035157 11.199 6.0352 21.527 15.742 27.109v146.07h-15.742v157.44h440.83v-157.44h-15.742v-146.07c9.707-5.582 15.707-15.91 15.742-27.109v-41.219zm-12.738 141.7c0 5.625-3 10.82-7.8711 13.633s-10.871 2.8125-15.742 0c-4.8711-2.8125-7.875-8.0078-7.875-13.633v-15.746h31.488zm-47.23 0c0 5.625-3 10.82-7.8711 13.633-4.8711 2.8125-10.875 2.8125-15.746 0s-7.8711-8.0078-7.8711-13.633v-15.746h31.488zm-47.23 0c0 5.625-3.0039 10.82-7.875 13.633-4.8711 2.8125-10.871 2.8125-15.742 0s-7.8711-8.0078-7.8711-13.633v-15.746h31.488zm-47.23 0h-0.003906c0 5.625-3 10.82-7.8711 13.633s-10.875 2.8125-15.746 0-7.8711-8.0078-7.8711-13.633v-15.746h31.488zm-47.23 0h-0.003906c0 5.625-3.0039 10.82-7.875 13.633-4.8711 2.8125-10.871 2.8125-15.742 0-4.8711-2.8125-7.8711-8.0078-7.8711-13.633v-15.746h31.488zm-47.23 0h-0.007812c0 5.625-3 10.82-7.8711 13.633s-10.871 2.8125-15.742 0c-4.875-2.8125-7.875-8.0078-7.875-13.633v-15.746h31.488zm-47.23 0h-0.007813c0 5.625-3 10.82-7.8711 13.633-4.8711 2.8125-10.875 2.8125-15.746 0-4.8711-2.8125-7.8711-8.0078-7.8711-13.633v-15.746h31.488zm110.21-31.488-0.007813-94.465h31.488v94.465zm-15.742 0h-31.496v-94.465h31.488zm-47.23 0h-30.293l13.492-94.465h16.789zm-46.184 0h-29.98l26.984-94.465h16.477zm250.84 0h-1.0469l-13.492-94.465h16.477l26.992 94.465zm-30.438-94.465 13.492 94.465h-30.285v-94.465zm-32.535 94.465h-31.488v-94.465h31.488zm-267.65-6.0156 44.227-88.449h16.184l-26.984 94.465h-33.426zm31.488 21.758v15.746c0 5.625-3 10.82-7.8711 13.633s-10.871 2.8125-15.742 0c-4.8711-2.8125-7.875-8.0078-7.875-13.633v-15.746zm377.86 330.62h-409.35v-125.95h409.35zm-362.11-165.31v-7.8711h7.8711c6.2656 0 12.27 2.4883 16.699 6.918 4.4297 4.4297 6.918 10.434 6.918 16.699v7.8711h-7.8711c-6.2656 0-12.273-2.4883-16.699-6.918-4.4297-4.4297-6.918-10.434-6.918-16.699zm125.95 23.617h-7.875c-6.2617 0-12.27-2.4883-16.699-6.918-4.4258-4.4297-6.9141-10.434-6.9141-16.699v-7.8711h7.8711c6.2617 0 12.27 2.4883 16.699 6.918 4.4297 4.4297 6.918 10.434 6.918 16.699zm-78.723-23.617v-7.8711h7.875c6.2617 0 12.27 2.4883 16.695 6.918 4.4297 4.4297 6.918 10.434 6.918 16.699v7.8711h-7.8711c-6.2617 0-12.27-2.4883-16.699-6.918-4.4297-4.4297-6.918-10.434-6.918-16.699zm47.23-23.617-7.8711 0.003906c-6.2617 0-12.27-2.4883-16.695-6.918-4.4297-4.4297-6.918-10.438-6.918-16.699v-7.8711h7.8711c6.2617 0 12.27 2.4883 16.699 6.9141 4.4297 4.4297 6.918 10.438 6.918 16.699zm-47.23 0-7.8711 0.003906c-6.2617 0-12.27-2.4883-16.699-6.918-4.4297-4.4297-6.918-10.438-6.918-16.699v-7.8711h7.875c6.2617 0 12.27 2.4883 16.699 6.9141 4.4258 4.4297 6.9141 10.438 6.9141 16.699zm173.18-47.23h0.003906c2.0859 0 4.0898 0.82812 5.5664 2.3047 1.4727 1.4766 2.3047 3.4805 2.3047 5.5664v23.617h-15.746v-23.617c0-4.3477 3.5273-7.8711 7.875-7.8711zm23.617 7.8711c0-4.3477 3.5234-7.8711 7.8711-7.8711 4.3477 0 7.875 3.5234 7.875 7.8711v23.617h-15.746zm31.488 0c0-4.3477 3.5234-7.8711 7.8711-7.8711 4.3477 0 7.875 3.5234 7.875 7.8711v23.617h-15.746zm-47.23 39.359 86.59 0.003906v47.23h-125.95v-47.23h39.359zm118.08 47.23-15.746 0.003906v-62.977h-23.617v-23.617c-0.015625-4.4531-1.2891-8.8125-3.6758-12.57-2.3828-3.7617-5.7852-6.7734-9.8086-8.6836l5.2109-15.625-14.957-4.9844-6.3594 19.09c-3.6328 0.96094-6.9844 2.7773-9.7695 5.3008-1.6797-1.5195-3.5703-2.793-5.6133-3.7734l5.2109-15.625-14.957-4.9844-6.3594 19.09c-3.6328 0.95703-6.9844 2.7734-9.7695 5.293-1.6797-1.5195-3.5703-2.793-5.6133-3.7734l5.2109-15.625-14.957-4.9844-6.3594 19.09c-5.0391 1.3203-9.5039 4.2656-12.691 8.3828-3.1914 4.1172-4.9336 9.1758-4.9492 14.383v23.617h-23.617v62.977h-31.488v-7.8711c-0.011718-9.082-3.1602-17.883-8.9141-24.91-5.75-7.0273-13.754-11.855-22.652-13.664 0-0.26953 0.078125-0.51953 0.078125-0.78906v-7.8711c-0.011719-10.434-4.1641-20.438-11.543-27.816s-17.383-11.531-27.816-11.543h-7.8711c-3.0234 0.007813-5.9805 0.88281-8.5195 2.5234-2.5352 1.6445-4.5469 3.9805-5.793 6.7344-7-5.9375-15.871-9.2188-25.047-9.2578h-7.875c-4.1758 0-8.1797 1.6602-11.133 4.6133-2.9531 2.9531-4.6094 6.957-4.6094 11.133v7.8711c0.035156 8.5469 2.8789 16.844 8.0938 23.617h-8.0938c-4.1758 0-8.1797 1.6562-11.133 4.6094s-4.6133 6.957-4.6133 11.133v7.8711c0.03125 8.5469 2.8711 16.844 8.0781 23.617h-23.82v-141.7c9.0781-0.03125 17.695-4 23.617-10.879 5.8984 6.9062 14.531 10.883 23.613 10.883 9.0859 0 17.715-3.9766 23.617-10.883 5.9023 6.9062 14.531 10.883 23.617 10.883 9.082 0 17.715-3.9766 23.613-10.883 5.9023 6.9062 14.531 10.883 23.617 10.883s17.715-3.9766 23.617-10.883c5.9023 6.9062 14.531 10.883 23.617 10.883 9.082 0 17.715-3.9766 23.613-10.883 5.9023 6.9062 14.531 10.883 23.617 10.883 9.0859 0 17.715-3.9766 23.617-10.883 5.9023 6.9062 14.531 10.883 23.613 10.883 9.0859 0 17.715-3.9766 23.617-10.883 5.9023 6.9062 14.531 10.883 23.617 10.883 9.0859 0 17.715-3.9766 23.617-10.883 5.918 6.8789 14.539 10.848 23.613 10.879zm15.742-173.18v0.003906c0 5.625-3 10.82-7.8711 13.633-4.8711 2.8125-10.875 2.8125-15.746 0-4.8711-2.8125-7.8711-8.0078-7.8711-13.633v-15.746h31.488zm-31.488-31.488h-1.9375l-26.984-94.461h16.184l44.227 88.449v6.0156z"/>
  <path d="m447.23 447.23h94.465v15.742h-94.465z"/>
  <path d="m492.16 515.77-11.133-11.133-18.105 18.105c-4.9375-3.0156-10.605-4.6289-16.395-4.668h-2.5195c-10.398 0.011719-20.152 5.0312-26.207 13.484l-12.484 17.484c-10.25-14.504-26.914-23.117-44.676-23.098h-7.8711c-4.1758 0-8.1797 1.6602-11.133 4.6133-2.9531 2.9531-4.6094 6.957-4.6094 11.133v7.8711c0.015624 14.609 5.8281 28.617 16.156 38.945 10.332 10.332 24.336 16.145 38.945 16.16h7.875c0.69531 0 1.3906-0.074219 2.0703-0.22266 0.65234 0.10938 1.3125 0.17969 1.9727 0.22266h1.0078c3.0742-0.003906 6.1094-0.71875 8.8594-2.0938l47.012-23.508c5.3594-2.6562 9.8672-6.7617 13.012-11.852 3.1484-5.0898 4.8047-10.961 4.7852-16.941 0-0.24219-0.0625-0.47266-0.070312-0.70703l15.812-0.003906v-15.742h-20.355zm-139.39 33.793v-7.8711h7.8711c7.8945-0.023437 15.609 2.3398 22.133 6.7812 6.5273 4.4375 11.559 10.746 14.434 18.094 1.8438 4.6055 2.793 9.5234 2.7969 14.484l-0.046875 7.7227-7.8281 0.14844c-10.434-0.011719-20.438-4.1602-27.816-11.539-7.3789-7.3789-11.531-17.383-11.543-27.82zm101.12 15.422-38.141 19.074v-3.0078c-0.019532-2.4336-0.19922-4.8633-0.54297-7.2734-0.070313-0.52734-0.14062-1.0469-0.22656-1.5742-0.375-2.3594-0.89844-4.6914-1.5742-6.9844 0-0.09375 0-0.19531-0.0625-0.29297l17.32-24.23-0.003906 0.003906c3.0898-4.3008 8.0547-6.8594 13.352-6.8789h2.5117c4.9766 0 9.6836 2.2539 12.809 6.1289 3.1211 3.875 4.3203 8.957 3.2617 13.82-1.0586 4.8633-4.2617 8.9883-8.7109 11.215z"/>
 </g>
</svg>