<?xml version="1.0" encoding="UTF-8"?>
<!-- The Best Svg Icon site in the world: iconSvg.co, Visit us! https://iconsvg.co -->
<svg fill="#000000" width="800px" height="800px" version="1.1" viewBox="144 144 512 512" xmlns="http://www.w3.org/2000/svg">
 <path d="m203.51 601.52h392.97c2.7852 0 5.0391-2.2539 5.0391-5.0391v-298.98c0-1.9375-1.1133-3.7031-2.8555-4.543l-195.53-93.984c-1.3789-0.66016-2.9727-0.66797-4.3477-0.007812l-197.44 93.988c-1.7578 0.83203-2.8711 2.6016-2.8711 4.5469v298.98c0 2.7812 2.25 5.0391 5.0352 5.0391zm293.61-10.078h-89.461l89.461-164.82zm-92.086-16.289v-160.01h86.852zm-10.074 0-86.852-160.01h86.852zm-92.082-148.53 89.457 164.82h-89.457zm204.32 164.82v-181.34c0-2.7812-2.2539-5.0391-5.0391-5.0391h-204.32c-2.7852 0-5.0391 2.2539-5.0391 5.0391v181.34h-84.25v-59.934h17.25c2.7852 0 5.0391-2.2539 5.0391-5.0391 0-2.7812-2.2539-5.0391-5.0391-5.0391h-17.25v-62.59h17.25c2.7852 0 5.0391-2.2539 5.0391-5.0391 0-2.7812-2.2539-5.0391-5.0391-5.0391h-17.25v-62.594h17.25c2.7852 0 5.0391-2.2539 5.0391-5.0391 0-2.7812-2.2539-5.0391-5.0391-5.0391h-17.25v-21.984l192.39-91.586 190.5 91.578v21.992h-18.934c-2.7852 0-5.0391 2.2539-5.0391 5.0391 0 2.7812 2.2539 5.0391 5.0391 5.0391h18.934v62.594h-18.934c-2.7852 0-5.0391 2.2539-5.0391 5.0391 0 2.7812 2.2539 5.0391 5.0391 5.0391h18.934v62.594h-18.934c-2.7852 0-5.0391 2.2539-5.0391 5.0391 0 2.7812 2.2539 5.0391 5.0391 5.0391l18.934-0.003906v59.934zm-106.25-382.35 190.5 91.57v42.25l-188.31-90.516c-1.3789-0.66016-2.9727-0.66797-4.3477-0.007813l-190.24 90.559v-42.273z"/>
</svg>