<?xml version="1.0" encoding="UTF-8"?>
<!-- The Best Svg Icon site in the world: iconSvg.co, Visit us! https://iconsvg.co -->
<svg fill="#000000" width="800px" height="800px" version="1.1" viewBox="144 144 512 512" xmlns="http://www.w3.org/2000/svg">
 <path d="m559.21 603.02h-58.793c-10.289 0-18.695-6.7656-20.914-16.816l-9.207-41.727-10.484 0.058594-10.637 41.91c-2.5586 10.066-10.742 16.574-20.855 16.574h-58.797c-10.285 0-18.691-6.7656-20.91-16.816l-9.207-41.715-9.9023 0.046875-10.637 41.91c-2.5586 10.066-10.742 16.574-20.855 16.574h-58.797c-10.137 0-18.527-6.7188-20.891-16.699l-16.434-69.645c-1.0352-4.3711 1.6719-8.75 6.0547-9.7852 4.3711-1.0352 8.7539 1.6719 9.7891 6.043l16.438 69.645c0.37109 1.5547 1.5078 4.1719 5.043 4.1719h58.797c3.3008 0 4.582-2.3359 5.0781-4.3008l12.184-48.016c0.90625-3.5898 4.1406-6.1133 7.8477-6.1367l22.773-0.11328h0.042969c3.8125 0 7.1289 2.6484 7.9414 6.3789l10.625 48.141c0.26562 1.2227 1.3008 4.0586 5.0195 4.0586h58.797c3.3008 0 4.582-2.3359 5.082-4.3008l12.18-48.016c0.90625-3.5898 4.1406-6.1133 7.8477-6.1367l23.355-0.11328h0.042969c3.8164 0 7.1289 2.6484 7.9414 6.3789l10.625 48.141c0.26562 1.2227 1.3008 4.0586 5.0234 4.0586h58.793c2.6055 0 4.3242-1.4883 5.1172-4.4297l17.992-66.609c1.1758-4.3359 5.6406-6.9023 9.9766-5.7305 4.3359 1.1758 6.9023 5.6367 5.7305 9.9727l-17.996 66.609c-2.6953 9.9961-10.867 16.457-20.82 16.457zm43.223-102.68h-404.87c-11.848 0-21.484-9.6367-21.484-21.48v-17.305c0-11.844 9.6367-21.48 21.484-21.48h404.87c11.844 0 21.48 9.6367 21.48 21.48v17.305c0 11.844-9.6367 21.48-21.48 21.48zm-404.87-43.992c-2.8242 0-5.2109 2.3828-5.2109 5.207v17.305c0 2.8242 2.3867 5.207 5.2109 5.207h404.87c2.8242 0 5.207-2.3828 5.207-5.207v-17.305c0-2.8242-2.3828-5.207-5.207-5.207zm22.062-23.258c-3.7656 0-7.1484-2.6406-7.9531-6.4727-1.3008-6.2422-1.9648-13.055-1.9648-20.246 0-20.316 6.2656-44.285 16.344-62.555 13.148-23.816 32.016-36.938 53.137-36.938 18.938 0 36.77 11.344 50.195 31.941 12.25 18.805 19.285 43.422 19.285 67.551 0 7.1562-0.58203 13.91-1.7461 20.07-0.82422 4.418-5.0664 7.3242-9.4961 6.4961-4.418-0.82422-7.3242-5.0781-6.4961-9.4961 0.96484-5.1836 1.4648-10.922 1.4648-17.082 0-43.551-25.355-83.219-53.207-83.219-35.418 0-53.203 53.348-53.203 83.219 0 6.0781 0.54297 11.762 1.625 16.91 0.91797 4.3906-1.9062 8.7031-6.3008 9.6211-0.55469 0.11719-1.1133 0.17578-1.6719 0.17578zm360.93 0c-0.5 0-1-0.046875-1.5117-0.14062-4.418-0.82422-7.3242-5.0781-6.4961-9.4961 0.96484-5.1836 1.4648-10.922 1.4648-17.082 0-43.551-25.355-83.219-53.207-83.219-19.133 0-31.711 15.516-38.883 28.52-2.1758 3.9414-7.1133 5.3711-11.055 3.1992-3.9297-2.1758-5.3711-7.1133-3.1992-11.055 13.148-23.816 32.016-36.938 53.137-36.938 18.938 0 36.77 11.344 50.195 31.941 12.25 18.805 19.285 43.422 19.285 67.551 0 7.1562-0.58203 13.91-1.7461 20.07-0.73047 3.918-4.1484 6.6367-7.9844 6.6367zm-120.81 0c-0.5 0-1-0.046875-1.5-0.14062-4.418-0.82422-7.3242-5.0781-6.4961-9.4961 0.96484-5.1836 1.4648-10.922 1.4648-17.082 0-43.551-25.355-83.219-53.207-83.219-19.133 0-31.711 15.516-38.883 28.52-2.1758 3.9297-7.125 5.3711-11.055 3.1992-3.9414-2.1758-5.3711-7.1133-3.1992-11.055 13.148-23.816 32.016-36.938 53.137-36.938 18.938 0 36.77 11.344 50.195 31.941 12.25 18.805 19.285 43.422 19.285 67.551 0 7.1445-0.58203 13.898-1.7461 20.07-0.73047 3.918-4.1484 6.6367-7.9844 6.6367zm-24.656-31.777c-3.9766 0-7.4492-2.9062-8.043-6.9609-2.4883-16.957-9.7891-32.52-18.598-39.656-3.4883-2.8242-4.0352-7.9492-1.2109-11.449 2.8242-3.4883 7.9531-4.0312 11.449-1.207 12.172 9.8555 21.32 28.52 24.457 49.941 0.65234 4.4531-2.4258 8.5781-6.8672 9.2266-0.39453 0.058593-0.80469 0.09375-1.1875 0.09375zm-120.81 0c-3.9766 0-7.4492-2.9062-8.043-6.9609-2.4883-16.957-9.7891-32.52-18.598-39.656-3.4883-2.8242-4.0352-7.9492-1.2109-11.449 2.8242-3.4883 7.9531-4.0312 11.449-1.207 12.184 9.8555 21.32 28.52 24.457 49.941 0.65234 4.4531-2.4258 8.5781-6.8672 9.2266-0.39453 0.058593-0.80469 0.09375-1.1875 0.09375zm241.62 0c-3.9727 0-7.4492-2.9062-8.043-6.9609-2.4883-16.957-9.7773-32.52-18.598-39.656-3.4883-2.8242-4.0352-7.9492-1.2109-11.449 2.8242-3.4883 7.9531-4.0312 11.449-1.207 12.184 9.8555 21.32 28.52 24.457 49.941 0.65234 4.4531-2.4258 8.5781-6.8672 9.2266-0.39453 0.058593-0.80469 0.09375-1.1875 0.09375zm-277.65-100.08c-4.4766 0-8.1133-3.625-8.1367-8.1016v-0.71875c0-20.352 6.2539-44.316 16.332-62.59 13.148-23.812 32.016-36.938 53.137-36.938 18.934 0 36.766 11.344 50.191 31.941 12.254 18.805 19.285 43.422 19.285 67.551v0.74219c-0.011719 4.4883-3.6602 8.1133-8.1367 8.1133h-0.023437c-4.4961-0.011718-8.125-3.6719-8.1133-8.1602v-0.71875c0-43.527-25.352-83.195-53.191-83.195-35.422 0-53.207 53.348-53.207 83.219v0.68359c0.023437 4.5-3.6016 8.1484-8.1016 8.1719zm243.48 0h-0.023437c-4.4961-0.011718-8.125-3.6719-8.1133-8.1602v-0.71875c0-43.527-25.352-83.195-53.203-83.195-19.137 0-31.715 15.516-38.887 28.523-2.1719 3.9258-7.1133 5.3672-11.055 3.1953-3.9375-2.1758-5.3672-7.1133-3.1953-11.055 13.148-23.812 32.016-36.938 53.137-36.938 18.934 0 36.766 11.344 50.191 31.941 12.254 18.805 19.285 43.422 19.285 67.551v0.74219c-0.011719 4.4883-3.6602 8.1133-8.1367 8.1133zm-26.234-13.91c-3.9766 0-7.4531-2.9062-8.0469-6.9648-2.4844-16.957-9.7852-32.52-18.598-39.656-3.4883-2.8242-4.0352-7.9492-1.1953-11.449 2.8242-3.4844 7.9492-4.0312 11.449-1.207 12.168 9.8555 21.32 28.523 24.457 49.941 0.65234 4.4531-2.4297 8.5781-6.8711 9.2305-0.39453 0.058594-0.80078 0.09375-1.1836 0.09375zm-120.81 0c-3.9766 0-7.4531-2.9062-8.0469-6.9648-2.4844-16.957-9.7852-32.52-18.598-39.656-3.4883-2.8242-4.0352-7.9492-1.207-11.449 2.8242-3.4844 7.9492-4.0312 11.449-1.207 12.184 9.8555 21.32 28.523 24.457 49.941 0.65234 4.4531-2.4297 8.5781-6.8711 9.2305-0.39453 0.058594-0.80078 0.09375-1.1836 0.09375z"/>
</svg>