<?xml version="1.0" encoding="UTF-8"?>
<!-- The Best Svg Icon site in the world: iconSvg.co, Visit us! https://iconsvg.co -->
<svg fill="#000000" width="800px" height="800px" version="1.1" viewBox="144 144 512 512" xmlns="http://www.w3.org/2000/svg">
 <g>
  <path d="m203.51 601.52h392.97c2.7812 0 5.0391-2.2539 5.0391-5.0391v-41.727c0-2.7812-2.2539-5.0391-5.0391-5.0391h-8.3047v-123.77h8.3047c2.7812 0 5.0391-2.2539 5.0391-5.0391v-41.727c0-2.7812-2.2539-5.0391-5.0391-5.0391h-8.3047v-123.86h8.3047c2.7812 0 5.0391-2.2539 5.0391-5.0391v-41.727c0-2.7812-2.2539-5.0391-5.0391-5.0391l-392.97 0.003906c-2.7812 0-5.0391 2.2539-5.0391 5.0391v41.727c0 2.7812 2.2539 5.0391 5.0391 5.0391h8.5625v123.86l-8.5625-0.003906c-2.7812 0-5.0391 2.2539-5.0391 5.0391v41.727c0 2.7812 2.2539 5.0391 5.0391 5.0391h8.5625v123.77h-8.5625c-2.7812 0-5.0391 2.2539-5.0391 5.0391l0.003906 41.727c0 2.7812 2.2539 5.0391 5.0352 5.0391zm374.59-51.805h-30.09l0.003906-123.77h30.09zm-131.28 0h-93.645v-48.32c0-25.816 21.004-46.82 46.82-46.82s46.82 21.004 46.82 46.82zm-46.82-105.21c-31.371 0-56.898 25.523-56.898 56.895v48.32h-80.789v-123.77h275.62v123.77h-81.043v-48.32c0-31.375-25.523-56.895-56.895-56.895zm178.1-70.363h-30.09l0.003906-123.86h30.09zm-40.164-123.86v123.86h-275.62v-123.86zm-329.39-41.727h382.89v31.652h-382.89zm13.598 41.727h30.09v123.86h-30.09zm-13.598 133.94h382.89v31.652l-382.89-0.003906zm13.598 41.727h30.09v123.77h-30.09zm-13.598 133.85h382.89v31.648h-382.89z"/>
  <path d="m568.27 395h-10.422c-2.7812 0-5.0391 2.2539-5.0391 5.0391 0 2.7812 2.2539 5.0391 5.0391 5.0391h10.422c2.7812 0 5.0391-2.2539 5.0391-5.0391 0-2.7812-2.2578-5.0391-5.0391-5.0391z"/>
  <path d="m568.27 570.58h-10.422c-2.7812 0-5.0391 2.2539-5.0391 5.0391 0 2.7812 2.2539 5.0391 5.0391 5.0391h10.422c2.7812 0 5.0391-2.2539 5.0391-5.0391 0-2.7812-2.2578-5.0391-5.0391-5.0391z"/>
  <path d="m242.41 395h-10.422c-2.7812 0-5.0391 2.2539-5.0391 5.0391 0 2.7812 2.2539 5.0391 5.0391 5.0391h10.422c2.7812 0 5.0391-2.2539 5.0391-5.0391 0-2.7812-2.2578-5.0391-5.0391-5.0391z"/>
  <path d="m568.27 219.34h-10.422c-2.7812 0-5.0391 2.2539-5.0391 5.0391 0 2.7812 2.2539 5.0391 5.0391 5.0391h10.422c2.7812 0 5.0391-2.2539 5.0391-5.0391s-2.2578-5.0391-5.0391-5.0391z"/>
  <path d="m242.41 219.34h-10.422c-2.7812 0-5.0391 2.2539-5.0391 5.0391 0 2.7812 2.2539 5.0391 5.0391 5.0391h10.422c2.7812 0 5.0391-2.2539 5.0391-5.0391s-2.2578-5.0391-5.0391-5.0391z"/>
  <path d="m242.41 570.58h-10.422c-2.7812 0-5.0391 2.2539-5.0391 5.0391 0 2.7812 2.2539 5.0391 5.0391 5.0391h10.422c2.7812 0 5.0391-2.2539 5.0391-5.0391 0-2.7812-2.2578-5.0391-5.0391-5.0391z"/>
 </g>
</svg>