<?xml version="1.0" encoding="UTF-8"?>
<!-- The Best Svg Icon site in the world: iconSvg.co, Visit us! https://iconsvg.co -->
<svg fill="#000000" width="800px" height="800px" version="1.1" viewBox="144 144 512 512" xmlns="http://www.w3.org/2000/svg">
 <g>
  <path d="m521.4 386.53c-54.254 0-98.391 44.145-98.391 98.395s44.141 98.391 98.391 98.391 98.395-44.141 98.395-98.391-44.145-98.395-98.395-98.395zm0 184.19c-47.309 0-85.793-38.492-85.793-85.793 0-47.312 38.492-85.797 85.793-85.797 47.312 0 85.797 38.492 85.797 85.797 0 47.301-38.488 85.793-85.797 85.793z"/>
  <path d="m521.4 424.07c-33.547 0-60.844 27.297-60.844 60.852 0 33.547 27.297 60.844 60.844 60.844 33.555 0 60.855-27.297 60.855-60.844 0-33.555-27.301-60.852-60.855-60.852zm0 109.11c-26.605 0-48.25-21.645-48.25-48.25s21.645-48.254 48.25-48.254c26.609 0 48.262 21.648 48.262 48.254-0.003906 26.605-21.652 48.25-48.262 48.25z"/>
  <path d="m263.59 437.63c-40.164 0-72.84 32.672-72.84 72.84 0 40.168 32.676 72.84 72.84 72.84 40.164 0.003906 72.844-32.676 72.844-72.84 0-40.164-32.68-72.84-72.844-72.84zm0 133.09c-33.215 0-60.246-27.023-60.246-60.246 0-33.219 27.031-60.246 60.246-60.246 33.215 0 60.246 27.023 60.246 60.246s-27.023 60.246-60.246 60.246z"/>
  <path d="m263.59 470.76c-21.895 0-39.711 17.816-39.711 39.711 0 21.902 17.816 39.715 39.711 39.715 21.895 0 39.711-17.816 39.711-39.715 0.003906-21.895-17.809-39.711-39.711-39.711zm0 66.832c-14.953 0-27.113-12.168-27.113-27.121s12.168-27.113 27.113-27.113c14.949 0 27.113 12.16 27.113 27.113 0.003906 14.953-12.16 27.121-27.113 27.121z"/>
  <path d="m521.4 367.41c16.922 0 33.422 3.6406 49.027 10.816l8.9258 4.1055v-12.398h34.32v-52.754h-34.32v-28.324c0-37.32-30.363-67.691-67.695-67.691h-135.49v104.98h-22.777v-56.422c0-18.602-15.133-33.738-33.746-33.738v12.594c11.656 0 21.148 9.4883 21.148 21.145v56.422h-82.355c-34.566 0-63.117 26.066-67.152 59.566h-10.828v12.594h10.293v62.492l10.801-11.039c16.488-16.859 38.52-26.137 62.039-26.137 25.961 0 50.359 11.492 66.945 31.527l1.8906 2.2812h74.719l1.293-4.5781c14.262-50.309 60.715-85.445 112.96-85.445zm79.676-37.633v27.57h-21.723v-27.57zm-203.37 115.06h-59.426c-18.918-21.523-45.973-33.812-74.699-33.812-22.078 0-43.016 7.1445-60.246 20.348v-33.066h43.457v-12.594h-42.793c3.9492-26.531 26.812-46.969 54.426-46.969l130.33 0.003907v-104.98h122.9c30.379 0 55.102 24.719 55.102 55.098v74.207c-14.59-5.4766-29.805-8.2461-45.363-8.2461-56.254-0.003906-106.44 36.777-123.69 90.016z"/>
  <path d="m548.2 297.24c0-33.016-28.41-43.586-43.84-44.582h-102.98v89.164h146.82zm-134.22-31.988 54.508-0.011718v63.984h-54.508zm121.62 63.973h-54.52v-63.984h22.844c1.2891 0.097656 31.676 2.6133 31.676 32.004z"/>
  <path d="m263.59 366.44h114.36v57.434h12.598v-70.031h-126.96z"/>
  <path d="m347.09 470.76h58.176v12.594h-58.176z"/>
 </g>
</svg>