<?xml version="1.0" encoding="UTF-8"?>
<!-- The Best Svg Icon site in the world: iconSvg.co, Visit us! https://iconsvg.co -->
<svg fill="#000000" width="800px" height="800px" version="1.1" viewBox="144 144 512 512" xmlns="http://www.w3.org/2000/svg">
 <path d="m383.73 283.96c-53.828 6.9258-94.637 48.902-94.637 98.543 0 3.5117 0.21875 6.9922 0.80469 10.391 2.8516 27.598-1.2422 55.527-11.934 81.191-5.543 13.02-8.5664 27.109-8.5664 41.832 0 64.016 57.797 116.99 130.08 116.99 72.266 0 130.06-52.98 130.06-116.99 0-14.656-3.0078-28.703-8.2969-41.754l-0.046875-0.14062c-10.754-25.789-14.848-53.891-11.887-81.68 0.34766-3.2109 0.53516-6.5039 0.53516-9.8398 0-28.828-13.762-55.059-35.816-73.352 9.7773-2.0469 18.91-5.3516 26.418-9.6992 9.4766-5.4648 19.398-17.301 27.914-31.836 16.863-28.797 29.691-67.902 29.691-67.902 1.3867-4.25 0.91406-8.8789-1.3242-12.754-2.2344-3.8711-6.0156-6.6133-10.391-7.543 0 0-40.289-8.4375-73.652-8.2344-16.848 0.125-32.055 2.7852-41.531 8.25-5.4492 3.1484-10.848 7.3047-15.934 12.172v-12.027c0-8.6914-7.0703-15.742-15.742-15.742-8.6914 0-15.742 7.0547-15.742 15.742v104.38zm-76.77 202.39c0.015625-0.046875 0.03125-0.09375 0.0625-0.125 12.785-30.715 17.648-64.156 14.121-97.234-0.046876-0.41016-0.10938-0.80469-0.17188-1.1953-0.33203-1.7305-0.39453-3.4961-0.39453-5.2891 0-38.117 35.832-68.062 78.895-68.062 43.043 0 78.879 29.945 78.879 68.062l-0.36328 6.5039c-3.5117 33.016 1.3398 66.375 14.09 97.031 3.7773 9.3516 5.9688 19.383 5.9688 29.883 0 47.75-44.664 85.508-98.574 85.508-53.922 0-98.59-37.754-98.59-85.508 0-10.406 2.1562-20.371 6.0781-29.566zm108.26-226.93v-4.5039c0.26953-3.4336 1.1172-6.9922 2.2812-10.531 5.0547-15.352 16.957-30.496 29.395-37.676 8.3281-4.8008 23.664-4.5352 38.934-3.6836 13.035 0.73828 26.086 2.4414 36.102 4.0156-3.6367 9.4609-8.6914 21.617-14.578 33.266-6.8945 13.648-14.312 27.078-22.656 31.883-12.438 7.1797-31.504 9.918-47.328 6.6289-8.3438-1.7461-15.98-4.9766-19.773-11.539-1.4023-2.4102-2.1406-5.0703-2.3789-7.8555z" fill-rule="evenodd"/>
</svg>