<?xml version="1.0" encoding="UTF-8"?>
<!-- The Best Svg Icon site in the world: iconSvg.co, Visit us! https://iconsvg.co -->
<svg fill="#000000" width="800px" height="800px" version="1.1" viewBox="144 144 512 512" xmlns="http://www.w3.org/2000/svg">
 <g>
  <path d="m385.38 492.37 14.66-14.582 14.582 14.66-14.66 14.582z"/>
  <path d="m461.71 546.04c0.70703 6.6133-1.5742 12.516-7.1641 18.027-11.57 11.57-22.434 14.012-33.297 7.3984-8.2656-4.8789-13.383-14.719-13.383-25.582v-10.547h-15.742v10.547c0 10.863-5.1172 20.703-13.383 25.586-10.863 6.6133-21.727 4.1719-33.297-7.3984-5.5898-5.5117-7.8711-11.414-7.1641-18.027 1.8906-16.609 22.672-34.715 35.031-43.453l21.098 21.098c1.5703 1.5703 3.5391 2.3594 5.5859 2.3594s4.0156-0.78906 5.5898-2.3633l21.098-21.098c12.355 8.7383 33.141 26.844 35.027 43.453z"/>
  <path d="m460.14 290.12c-0.39453 3.9375-2.2031 6.9258-5.5117 9.5234-9.2891 6.2969-36.055 5.9844-54.316-0.70703-8.8164-3.3047-14.719-7.7148-15.824-11.809-0.15625-0.70703-0.39453-1.418-0.78906-2.0469-7.3984-12.438-15.035-33.379-10.391-40.148 1.5742-2.3633 5.3516-3.0703 9.2109-3.0703 2.6758 0 5.5117 0.39453 7.5586 0.70703 2.5977 0.39453 5.1172-0.39453 6.9258-2.2031l8.9727-8.9727c4.6445-4.6445 11.02-7.0078 17.555-6.375 6.5352 0.62891 12.359 4.0156 16.137 9.4453 1.8906 2.7539 3.1484 5.9023 3.6211 9.2891 1.418 9.2891 3.6211 16.215 6.457 20.469v0.078125c0.39453 0.55078 0.78906 1.0234 1.2617 1.418 2.5195 3.2266 10.078 14.719 9.1328 24.402z"/>
  <path d="m458.49 315.39c-7.1641 3.1484-16.688 4.5664-26.688 4.5664-12.754 0-26.293-2.3633-36.918-6.2969-10.391-3.7773-17.871-8.9727-22.121-15.191-44.715 14.09-76.516 62.109-76.516 116.66 0 38.809 15.742 74.707 42.43 97.457 12.043-13.934 26.922-24.008 30.621-26.371l25.113-25.113c3.0703-3.0703 8.1094-3.0703 11.18 0l25.113 25.113c3.6992 2.3633 18.578 12.438 30.621 26.371 26.688-22.75 42.43-58.648 42.43-97.457-0.003906-40.309-16.848-77.23-45.266-99.742zm-101.39 116.9c-9.5234 0-17.16-7.7148-17.16-17.16 0-9.5234 7.6367-17.16 17.16-17.16 9.4453 0 17.16 7.6367 17.16 17.16 0 9.4453-7.7148 17.16-17.16 17.16zm85.805 0c-9.4453 0-17.16-7.7148-17.16-17.16 0-9.5234 7.7148-17.16 17.16-17.16 9.5234 0 17.16 7.6367 17.16 17.16 0 9.4453-7.6367 17.16-17.16 17.16z"/>
 </g>
</svg>