<?xml version="1.0" encoding="UTF-8"?>
<!-- The Best Svg Icon site in the world: iconSvg.co, Visit us! https://iconsvg.co -->
<svg fill="#000000" width="800px" height="800px" version="1.1" viewBox="144 144 512 512" xmlns="http://www.w3.org/2000/svg">
 <g>
  <path d="m574.21 435h-25.086v-118.82c5.0859 2.8164 10.809 4.3203 16.797 4.3203 19.629-0.003906 35.602-16.234 35.602-36.184 0-1.1797-0.0625-2.2461-0.16406-3.2656 0.33984-1.3867 0.09375-2.875-0.74609-4.0742l-0.4375-0.625c-0.007812-0.011719-0.023437-0.015625-0.03125-0.03125-0.015625-0.023438-0.027343-0.050781-0.042969-0.070313l-51.957-70.559c-0.94922-1.2891-2.457-2.0508-4.0586-2.0508h-288.18c-1.6055 0-3.1094 0.76172-4.0586 2.0508l-51.957 70.559c-0.015625 0.023438-0.027343 0.046875-0.042969 0.070313-0.007812 0.011719-0.023437 0.019531-0.03125 0.03125l-0.4375 0.625c-0.75 1.0742-0.92969 2.375-0.69141 3.6289-0.12891 1.1484-0.21484 2.3516-0.21484 3.7109 0 19.949 15.969 36.184 35.602 36.184 6 0 11.734-1.5078 16.797-4.3008v118.8h-25.086c-10.242 0-18.578 8.3359-18.578 18.578v124.2c0 10.242 8.3359 18.578 18.578 18.578h348.43c10.242 0 18.578-8.3359 18.578-18.578l-0.003907-124.2c0-10.242-8.3359-18.574-18.578-18.574zm-278.34 0v-115.19c8.3438-1.5625 15.828-6.1055 21.141-12.812 6.6523 8.4805 16.68 13.5 27.703 13.5 10.844 0 20.965-5.0938 27.59-13.473 6.6602 8.4648 16.676 13.469 27.691 13.469s21.027-5.0039 27.684-13.473c6.6289 8.375 16.746 13.473 27.59 13.473 11.027 0 21.055-5.0156 27.703-13.5 5.3125 6.707 12.797 11.25 21.141 12.812v115.19zm218.32-114.69c0.082032-0.007812 0.16016-0.027344 0.24219-0.039062 0.4375-0.046875 0.86719-0.13672 1.3047-0.20312 0.82031-0.12109 1.6406-0.25 2.4453-0.42969 0.48047-0.10938 0.94922-0.24609 1.4258-0.375 0.74219-0.19922 1.4805-0.41016 2.207-0.65625 0.48047-0.16406 0.95313-0.34766 1.4297-0.53516 0.69922-0.27344 1.3906-0.5625 2.0703-0.87891 0.46094-0.21484 0.91797-0.4375 1.3711-0.67578 0.67188-0.34766 1.3242-0.72266 1.9727-1.1133 0.42969-0.25781 0.85547-0.51562 1.2734-0.79297 0.64844-0.42969 1.2734-0.89063 1.8945-1.3633 0.37891-0.28906 0.76172-0.56641 1.1328-0.86719 0.66016-0.54688 1.2891-1.1328 1.9102-1.7266 0.28906-0.27344 0.58984-0.53125 0.86719-0.81641 0.88281-0.90234 1.7266-1.8438 2.5117-2.8398 0.039063 0.050782 0.085938 0.089844 0.125 0.14062 0.21875 0.26953 0.44141 0.53516 0.66797 0.79297v127.06h-24.852zm-255.73-106.59h283.08l33.465 45.457c0.023438 0.03125 0.023438 0.070312 0.046875 0.10547l11.477 15.551-373.06-0.003907 11.477-15.551c0.023438-0.03125 0.027344-0.070312 0.046876-0.10547zm-49.906 71.188h382.89c-0.30859 14.121-11.641 25.516-25.52 25.516-6.918 0-13.367-2.8125-18.301-8.0781-1.8711-1.8359-3.4883-4.2148-4.8125-7.0664-0.83203-1.7891-2.5039-2.8438-4.6016-2.9219-1.9727 0.011719-3.7539 1.1719-4.5664 2.9727-4.1211 9.168-13.152 15.094-23 15.094-0.22656-0.003906-0.41797 0.019531-0.64062-0.015625-0.20312-0.035156-0.41016-0.054687-0.60938-0.066406-9.4023-0.42969-17.777-6.1953-21.855-15.051-0.82031-1.7852-2.6094-2.9297-4.5742-2.9297h-0.003907c-1.9688 0.003907-3.7539 1.1523-4.5742 2.9414-4.2695 9.3281-13.125 15.125-23.105 15.125-9.8438 0-18.875-5.9219-22.996-15.094-0.8125-1.8047-2.6016-2.9648-4.5742-2.9727h-0.019531c-1.9688 0-3.7578 1.1484-4.582 2.9414-4.2734 9.3242-13.129 15.121-23.105 15.121s-18.832-5.7969-23.105-15.125c-0.82031-1.7891-2.6133-2.9414-4.582-2.9414h-0.019531c-1.9727 0.007813-3.7656 1.168-4.5742 2.9727-4.1211 9.168-13.152 15.094-22.996 15.094-9.9766 0-18.832-5.7969-23.105-15.125-0.82031-1.7891-2.6094-2.9375-4.5742-2.9414h-0.003907c-1.9688 0-3.7539 1.1445-4.5742 2.9297-4.0781 8.8555-12.453 14.621-21.855 15.051-0.20312 0.011718-0.41016 0.03125-0.60938 0.066406-0.22656 0.035156-0.41406 0.011719-0.64062 0.015625-9.8516 0-18.879-5.9219-23-15.094-0.8125-1.7969-2.5938-2.9609-4.5664-2.9727-2.0312 0.18359-3.7695 1.1289-4.6016 2.9219-1.3242 2.8555-2.9414 5.2344-4.9531 7.2188-4.793 5.1133-11.242 7.9258-18.16 7.9258-13.883 0.003906-25.211-11.391-25.523-25.512zm52.395 23.027c0.26562-0.30469 0.53125-0.61719 0.78906-0.9375 0.78516 0.99609 1.6289 1.9375 2.5117 2.8398 0.28906 0.29297 0.59766 0.55859 0.89453 0.83984 0.61328 0.58594 1.2305 1.1641 1.8828 1.7031 0.37109 0.30859 0.76172 0.58984 1.1445 0.87891 0.61328 0.46875 1.2344 0.92578 1.875 1.3516 0.42188 0.28125 0.85938 0.54297 1.293 0.80469 0.64062 0.38672 1.2891 0.75391 1.9492 1.1016 0.45703 0.23828 0.91797 0.46484 1.3867 0.68359 0.67578 0.3125 1.3594 0.60156 2.0547 0.875 0.48047 0.1875 0.95703 0.37109 1.4414 0.53906 0.72266 0.24609 1.457 0.45312 2.1992 0.65234 0.47656 0.12891 0.94922 0.26953 1.4336 0.375 0.80469 0.17969 1.6211 0.30859 2.4375 0.42969 0.4375 0.066406 0.87109 0.15625 1.3125 0.20312 0.082031 0.007812 0.16016 0.03125 0.24219 0.039062v114.69h-24.852zm321.77 269.84c0 4.6875-3.8125 8.5-8.5 8.5h-348.43c-4.6875 0-8.5-3.8125-8.5-8.5v-124.2c0-4.6875 3.8125-8.5 8.5-8.5h348.42c4.6875 0 8.5 3.8125 8.5 8.5z"/>
  <path d="m423.04 497.07c9.0312-9.207 9.7461-22.969 9.7695-23.551 0.0625-1.4141-0.47266-2.7891-1.4727-3.7891-1.0078-1-2.3711-1.5391-3.793-1.4688-0.57422 0.027344-14.164 0.75-23.238 9.9961-1.7188 1.7539-3.1367 3.6797-4.3047 5.6406-1.1719-1.9648-2.5859-3.8867-4.3086-5.6445-9.0742-9.2461-22.66-9.9688-23.238-9.9961-1.4102-0.0625-2.7891 0.46875-3.793 1.4688-1 1-1.5352 2.375-1.4727 3.7891 0.023438 0.58203 0.73828 14.344 9.7695 23.551 5.6641 5.7734 13.086 8.2266 18.004 9.2578v21.508c-5.6094 0.39453-10.969 1.6055-16.02 3.7266-1.875 0.78516-3.0898 2.6133-3.0898 4.6445v12.391c0 13.516 10.832 24.512 24.148 24.512 13.312 0 24.148-10.996 24.148-24.512v-12.391c0-2.1758-1.3984-4.1016-3.4648-4.7852-5.3906-1.7773-10.605-2.8867-15.648-3.4102v-21.684c4.9219-1.0312 12.34-3.4844 18.004-9.2539zm-11.539-11.754c2.9609-3.0195 6.8047-4.7461 10.031-5.7227-0.96094 3.3438-2.668 7.3438-5.6875 10.422-2.957 3.0156-6.793 4.7422-10.027 5.7227 0.96875-3.3516 2.6758-7.3594 5.6836-10.422zm-27.348 4.6992c-3.0156-3.0742-4.7266-7.0781-5.6875-10.418 3.2344 0.98047 7.0781 2.707 10.031 5.7188 3.0195 3.0742 4.7266 7.0781 5.6875 10.422-3.2344-0.98047-7.0703-2.707-10.031-5.7227zm29.918 58.574c0 7.9609-6.3125 14.434-14.07 14.434s-14.07-6.4766-14.07-14.434v-8.8984c8.4297-2.7578 17.688-2.6797 28.141 0.23828z"/>
 </g>
</svg>