<?xml version="1.0" encoding="UTF-8"?>
<!-- The Best Svg Icon site in the world: iconSvg.co, Visit us! https://iconsvg.co -->
<svg fill="#000000" width="800px" height="800px" version="1.1" viewBox="144 144 512 512" xmlns="http://www.w3.org/2000/svg">
 <g>
  <path d="m359.8 261.38c-24.109 7.5781-35.191 41.676-24.707 76.012 6.1992 20.305 18.941 37.191 34.086 45.172 9.6523 5.0898 19.602 6.2617 28.723 3.3906 0.83594-0.25781 1.6758-0.55469 2.5352-0.90234 1.4844 0.63672 3.0312 1.1758 4.6133 1.6094 2.8672 0.77734 5.7969 1.1641 8.7539 1.1641 6.582 0 13.309-1.918 19.816-5.6875 14.82-8.582 26.883-25.988 32.273-46.566 9.1016-34.715-3.3398-68.336-27.742-74.949-9.1172-2.4453-21.539-4.4766-32.953 1.7539-1.9883-10.91-10.176-18.27-10.637-18.672-2.082-1.8359-5.2695-1.6445-7.1094 0.44922-1.8398 2.0859-1.6367 5.2734 0.44922 7.1094 0.074218 0.066406 5.3438 4.8242 7.0781 11.652-9.5078-5.4414-21.098-5.957-35.18-1.5352zm36.301 15.109c0.074219 0.078124 0.17969 0.10547 0.25781 0.17969 0.25391 0.23438 0.54297 0.40234 0.84375 0.58203 0.28516 0.17188 0.55859 0.34375 0.87109 0.45312 0.10156 0.035157 0.17188 0.11328 0.27734 0.14453 0.46875 0.13672 0.93359 0.20313 1.3984 0.20313 0.003906 0 0.011718-0.003907 0.015625-0.003907h0.03125c0.03125 0 0.058593-0.019531 0.089843-0.019531 0.59766-0.015625 1.1719-0.15625 1.7148-0.37109 0.17578-0.070312 0.32812-0.16797 0.49609-0.25781 0.39453-0.21094 0.75-0.46094 1.0742-0.76953 0.085937-0.082031 0.20312-0.11719 0.28516-0.20312 7.6055-8.2617 17.195-10.074 32.074-6.0703 19.078 5.168 28.328 33.277 20.621 62.664v0.003906c-4.7227 18.031-15.031 33.137-27.57 40.402-7.0664 4.0859-14.293 5.3047-20.871 3.5195-1.707-0.46875-3.3555-1.1055-4.8906-1.9023-0.72266-0.375-1.5156-0.5625-2.3125-0.5625-0.74609 0-1.4961 0.16406-2.1836 0.5-1.082 0.51953-2.2148 0.98828-3.4062 1.3555-6.5391 2.0547-13.809 1.1211-21.031-2.6836-12.816-6.7539-23.715-21.406-29.152-39.199-8.8711-29.066-0.75391-57.531 18.098-63.457 14.906-4.6914 25.172-2.9922 33.27 5.4922z"/>
  <path d="m424.9 362.31c1.3047 0 2.6094-0.50391 3.5977-1.5078 0.8125-0.82812 19.855-20.602 16.727-49.512-0.30078-2.7656-2.8281-4.7852-5.5508-4.4688-2.7656 0.30078-4.7656 2.7852-4.4688 5.5508 2.5938 23.957-13.605 41.059-13.91 41.375-1.9453 1.9844-1.9102 5.1719 0.074219 7.1211 0.98437 0.96094 2.2578 1.4414 3.5312 1.4414z"/>
  <path d="m432.01 298.5c0.58203 2.2773 2.6289 3.793 4.875 3.793 0.41406 0 0.83203-0.050781 1.25-0.15625 2.6953-0.6875 4.3242-3.4336 3.6367-6.1289-1.1328-4.4492-4.1523-8.7812-4.4961-9.2578-1.6055-2.2656-4.7539-2.7969-7.0273-1.1875-2.2617 1.6133-2.793 4.7617-1.1797 7.0273 0.58203 0.82031 2.3672 3.6602 2.9414 5.9102z"/>
  <path d="m530.99 198.48h-261.98c-2.7852 0-5.0391 2.2539-5.0391 5.0391v357.7c0 2.7812 2.2539 5.0391 5.0391 5.0391h161.22v30.23c0 1.9492 1.125 3.7266 2.8945 4.5586 1.7656 0.82812 3.8477 0.56641 5.3594-0.67578l24.496-20.27 24.496 20.266c0.92188 0.76172 2.0586 1.1562 3.2109 1.1562 0.72656 0 1.4609-0.15625 2.1445-0.48047 1.7656-0.83203 2.8945-2.6094 2.8945-4.5586v-30.23h35.266c2.7852 0 5.0391-2.2539 5.0391-5.0391v-357.7c0-2.7812-2.2539-5.0352-5.0391-5.0352zm-55.098 279.52c-4.2812-1.7109-8.8711-2.5938-13.598-2.5938-4.7266 0-9.3203 0.88281-13.598 2.5938v-11.074l12.469 2.8789c0.74609 0.17187 1.5156 0.17187 2.2617 0l12.469-2.8789zm-36.391 20.297c0.40625-0.625 0.80469-1.207 1.1758-1.7539 1.668-2.2578 3.7383-4.3281 5.9922-5.9883 0.15234-0.11328 0.33594-0.19922 0.49219-0.30469 0.91016-0.62891 1.8438-1.2148 2.8203-1.7188 0.25-0.13281 0.51172-0.23438 0.76562-0.35547 6.0898-2.8789 13.195-3.3555 19.609-1.3789 0.125 0.039063 0.25 0.085937 0.375 0.12891 0.98828 0.32031 1.9453 0.73047 2.8945 1.168 0.45312 0.21484 0.90625 0.42578 1.3438 0.66797 0.96875 0.51953 1.9219 1.0703 2.8242 1.7188 0.042969 0.03125 0.085937 0.050781 0.12891 0.082031 2.2617 1.6641 4.3281 3.7305 5.9453 5.9219 0.89453 1.2578 1.6875 2.5742 2.2891 3.8086 0.003906 0.011719 0.011719 0.019531 0.015625 0.03125 1.8594 3.7695 2.8047 7.7656 2.8047 11.875 0 4.1328-0.96484 8.25-2.8281 11.977-0.22266 0.43359-0.42969 0.86719-0.86719 1.5859-0.37891 0.71484-0.85938 1.4219-1.3672 2.1875-5.1016 6.918-13.191 11.047-21.637 11.047-8.418 0-16.492-4.1289-21.645-11.117-0.36719-0.48047-0.69531-1.043-1.0586-1.6758l-0.39453-0.60156c-2.3281-4.043-3.5586-8.6758-3.5586-13.406 0-4.957 1.3594-9.793 3.8789-13.898zm46.145 87.48-19.457-16.098c-0.93359-0.76953-2.0703-1.1562-3.2109-1.1562-1.1406 0-2.2773 0.38672-3.2109 1.1562l-19.461 16.098v-44.07c0.20703 0.15234 0.4375 0.25781 0.64844 0.40625 1.1992 0.85938 2.4414 1.6445 3.7305 2.3516 0.26562 0.14453 0.51562 0.31641 0.78125 0.45703 1.5469 0.80469 3.1562 1.4805 4.7969 2.0547 0.43359 0.15234 0.87891 0.26953 1.3164 0.40234 1.2852 0.39844 2.5898 0.72656 3.9141 0.98047 0.5 0.097656 0.99219 0.19531 1.4922 0.27344 1.7461 0.26172 3.5039 0.4375 5.2852 0.4375 1.3047 0 2.6016-0.09375 3.8906-0.23437 0.37109-0.039063 0.74219-0.097657 1.1094-0.14844 0.97266-0.13672 1.9375-0.3125 2.8945-0.52734 0.33984-0.074218 0.67969-0.14062 1.0195-0.22656 1.2383-0.31641 2.4648-0.67969 3.6602-1.1211 0.18359-0.066406 0.35938-0.15234 0.54297-0.22266 1.0234-0.39453 2.0234-0.83594 3.0078-1.3203 0.34766-0.17188 0.69141-0.35156 1.0352-0.53125 0.88672-0.46875 1.75-0.97656 2.5977-1.5156 0.25781-0.16406 0.52344-0.31641 0.77734-0.48828 0.97656-0.65234 1.9297-1.3477 2.8398-2.0938zm40.305-29.598h-30.23v-28.812c2.1484-4.7344 3.3242-9.9336 3.3242-15.172 0-5.6719-1.293-11.164-3.8438-16.328-0.83984-1.7266-1.9219-3.5391-3.1836-5.3008-1.7188-2.332-3.8203-4.4336-6.0547-6.3438v-23.633c0-1.5352-0.69922-2.9883-1.8984-3.9453s-2.7812-1.3047-4.2695-0.96484l-17.504 4.0391-17.504-4.0391c-1.4844-0.34375-3.0664 0.011718-4.2695 0.96484-1.1992 0.95703-1.8984 2.4102-1.8984 3.9453v23.645c-2.2344 1.9141-4.3594 4.043-6.2031 6.5547-0.46094 0.66797-0.92187 1.3398-1.4414 2.1445-3.5469 5.7852-5.4258 12.445-5.4258 19.266 0 6.3086 1.6328 12.496 4.6836 17.984l-0.003907 25.996h-156.18v-347.63h251.91z"/>
  <path d="m292.57 460.46c2.7852 0 5.0391-2.2539 5.0391-5.0391v-221.68h204.77v236.17c0 2.7812 2.2539 5.0391 5.0391 5.0391s5.0391-2.2539 5.0391-5.0391v-241.21c0-2.7812-2.2539-5.0391-5.0391-5.0391h-214.85c-2.7852 0-5.0391 2.2539-5.0391 5.0391v226.71c0 2.7812 2.2539 5.0391 5.0391 5.0391z"/>
  <path d="m292.57 543.21h97.348c2.7852 0 5.0391-2.2539 5.0391-5.0391 0-2.7812-2.2539-5.0391-5.0391-5.0391l-92.309 0.003906v-47.496c0-2.7812-2.2539-5.0391-5.0391-5.0391-2.7852 0-5.0391 2.2539-5.0391 5.0391v52.531c0 2.7852 2.2539 5.0391 5.0391 5.0391z"/>
  <path d="m439.65 515.25c0.042968 0.30469 0.13281 0.60547 0.18359 0.91016 0.125 0.69922 0.23828 1.3984 0.42969 2.082 0.089844 0.33203 0.23438 0.65625 0.33984 0.98437 0.21094 0.64844 0.41016 1.2969 0.67969 1.9297 0.30859 0.73047 0.69531 1.4531 1.0859 2.1719 0.097656 0.17969 0.16797 0.37109 0.27344 0.54688 0.003907 0.007812 0.007813 0.011719 0.011719 0.019531 0.042969 0.074219 0.070312 0.15234 0.11719 0.23047l1.0273 1.5859c4.3398 5.8906 11.242 9.4062 18.469 9.4062 4.6094 0 9.0625-1.4141 12.781-3.9219 2.1758-1.4609 4.1016-3.2891 5.6523-5.4336 0.27344-0.35547 0.55859-0.78906 0.87109-1.2969 0.16797-0.26562 0.32422-0.50391 0.53906-0.86719 0.46484-0.82031 0.87109-1.6719 1.2305-2.5391 0.015625-0.035156 0.035156-0.066406 0.046875-0.097656 0.25391-0.61719 0.44531-1.2578 0.64453-1.8906 0.10156-0.32031 0.23438-0.62891 0.32031-0.95703 0.51562-1.9297 0.78516-3.918 0.78516-5.918 0-2.8516-0.58203-5.6016-1.5977-8.1953-0.70703-1.832-1.5977-3.5938-2.7773-5.2148-0.011719-0.007812-0.015625-0.015625-0.019531-0.023437-1.4102-1.918-3.1055-3.6133-5.0664-5.0742-1.6367-1.1914-3.4531-2.0703-5.3398-2.7578-0.34766-0.125-0.67578-0.29688-1.0273-0.40625-0.49219-0.15234-1.0039-0.22656-1.5078-0.34375-0.66797-0.16016-1.3242-0.35156-2.0039-0.45313-0.36328-0.054687-0.73047-0.042968-1.0938-0.082031-0.82422-0.082031-1.6484-0.17969-2.4805-0.17578-0.39062 0-0.77734 0.066406-1.168 0.089844-0.80078 0.039062-1.6055 0.0625-2.3945 0.18359-0.64453 0.097656-1.2617 0.28516-1.8945 0.4375-0.57812 0.14062-1.168 0.24609-1.7344 0.42969-1.0742 0.34766-2.1211 0.76172-3.125 1.2695-0.10156 0.050782-0.19141 0.12891-0.29297 0.17969-0.92969 0.48828-1.8359 1.0234-2.6758 1.6484-1.4219 1.0117-2.7227 2.2969-3.9297 3.6875-0.38281 0.4375-0.78516 0.83203-1.1445 1.3008-0.035157 0.039063-0.0625 0.082032-0.09375 0.12109-0.66797 0.92578-1.2461 1.8945-1.7617 2.8945-0.027344 0.050781-0.0625 0.09375-0.089844 0.14453-0.39062 0.76562-0.68359 1.5703-0.98438 2.3711-0.11719 0.3125-0.28125 0.60938-0.38281 0.92969-0.29297 0.91016-0.48828 1.8477-0.66797 2.7891-0.042969 0.22656-0.125 0.44141-0.16016 0.66797-0.18359 1.1758-0.27734 2.3711-0.27734 3.5781v0.007813 0.003906c-0.003907 1.0273 0.066406 2.043 0.20312 3.0469zm11.238-8.8047c0.011719-0.027343 0.03125-0.050781 0.042969-0.074218 0.28906-0.5625 0.61719-1.1055 0.99219-1.6211 0.80078-1.0859 1.7734-2.0312 2.8672-2.8242 0.023437-0.019531 0.046875-0.042969 0.070312-0.0625 4.2305-3.1797 10.641-3.1602 14.859-0.011719 1.0859 0.79297 2.0859 1.793 2.8984 2.9023 0.42188 0.57031 0.78516 1.1641 1.0977 1.7734 0.53125 1.0586 0.89453 2.1875 1.1094 3.3555 0.019531 0.10547 0.058594 0.20703 0.074219 0.3125 0.10156 0.65625 0.15625 1.3281 0.15625 2.0078 0 2.2539-0.58594 4.457-1.7461 6.4492-0.125 0.22656-0.23047 0.40625-0.33203 0.57031-0.125 0.19141-0.24609 0.36328-0.38281 0.54297-0.59766 0.82422-1.2852 1.5625-2.043 2.2109-2.2812 1.9336-5.2109 3.0352-8.2617 3.0352-4.0781 0-7.9414-1.9688-10.375-5.3203-0.15234-0.21094-0.31641-0.44531-0.49609-0.77734-1.1289-1.9531-1.6641-3.9141-1.7891-5.9492-0.015624-0.26172-0.10547-0.50781-0.10547-0.77344-0.003906-2.0195 0.47266-3.9844 1.3633-5.7461z"/>
  <path d="m480 405.04h-112.31c-2.7852 0-5.0391 2.2539-5.0391 5.0391 0 2.7812 2.2539 5.0391 5.0391 5.0391h112.31c2.7852 0 5.0391-2.2539 5.0391-5.0391 0-2.7812-2.2539-5.0391-5.0391-5.0391z"/>
  <path d="m318.26 410.07c0 2.7812 2.2539 5.0391 5.0391 5.0391h20.133c2.7852 0 5.0391-2.2539 5.0391-5.0391 0-2.7812-2.2539-5.0391-5.0391-5.0391h-20.133c-2.7852 0-5.0391 2.2578-5.0391 5.0391z"/>
  <path d="m480 437.92h-156.7c-2.7852 0-5.0391 2.2539-5.0391 5.0391 0 2.7812 2.2539 5.0391 5.0391 5.0391h156.7c2.7852 0 5.0391-2.2539 5.0391-5.0391-0.003906-2.7852-2.2578-5.0391-5.043-5.0391z"/>
  <path d="m421.78 470.8h-98.48c-2.7852 0-5.0391 2.2539-5.0391 5.0391 0 2.7812 2.2539 5.0391 5.0391 5.0391h98.48c2.7852 0 5.0391-2.2539 5.0391-5.0391-0.003906-2.7812-2.2578-5.0391-5.0391-5.0391z"/>
 </g>
</svg>