<?xml version="1.0" encoding="UTF-8"?>
<!-- The Best Svg Icon site in the world: iconSvg.co, Visit us! https://iconsvg.co -->
<svg fill="#000000" width="800px" height="800px" version="1.1" viewBox="144 144 512 512" xmlns="http://www.w3.org/2000/svg">
 <path d="m596.48 591.45h-74.383v-136.8c0-2.7852-2.2539-5.0391-5.0391-5.0391h-8.2109v-127.13h25.191c1.6836 0 3.2578-0.83984 4.1953-2.25 0.93359-1.4023 1.1055-3.1836 0.45312-4.7383l-47.73-113.93c-0.78516-1.8633-2.6172-3.082-4.6445-3.082h-172.63c-2.0312 0-3.8633 1.2188-4.6484 3.0898l-47.73 113.93c-0.65234 1.5547-0.48047 3.3359 0.45312 4.7383 0.93359 1.4062 2.5078 2.25 4.1953 2.25h25.191v127.13h-8.2109c-2.7812 0-5.0391 2.2539-5.0391 5.0391v136.79h-74.383c-2.7812 0-5.0391 2.2539-5.0391 5.0391s2.2539 5.0391 5.0391 5.0391h392.97c2.7812 0 5.0391-2.2539 5.0391-5.0391s-2.2578-5.0391-5.0391-5.0391zm-308.51-84.152h67.43v38.914h-67.43zm107.12-47.605v37.531h-57.426v-37.531zm10.078 37.531v-37.531h57.426v37.531zm-39.695 48.988v-38.914h69.312v38.914zm29.617 10.074v35.164h-57.426v-35.164zm10.078 0h57.426v35.164h-57.426zm39.691-10.074v-38.914h67.156v38.914zm67.156-48.988h-39.348v-37.531h39.348zm-194.99-288.67h165.93l43.508 103.85h-252.95zm104.16 165.41-4.6172 41.18h-33.145l-4.6172-41.18zm-7.6484-10.074h-27.078v-3.7656c0-7.4648 6.0742-13.539 13.539-13.539s13.539 6.0781 13.539 13.539zm-112.32-41.41h93.742v14.602c-10.602 2.3164-18.578 11.758-18.578 23.047v3.7656h-3.207c-1.4336 0-2.8008 0.60938-3.7578 1.6758-0.95312 1.0742-1.4102 2.4961-1.25 3.9219l5.7461 51.258c0.28516 2.5469 2.4414 4.4766 5.0078 4.4766h42.156c2.5664 0 4.7227-1.9297 5.0078-4.4766l5.7461-51.258c0.16016-1.4258-0.29688-2.8477-1.25-3.9219-0.95703-1.0664-2.3203-1.6758-3.7578-1.6758l-3.2109-0.003906v-3.7656c0-11.289-7.9766-20.73-18.578-23.047v-14.602h93.742v127.13l-197.56 0.003906zm26.375 137.21v37.531h-39.625v-37.531zm-39.621 96.594h39.625l-0.003906 35.164h-39.625zm184.7 35.164v-35.164h39.348v35.164z"/>
</svg>