<?xml version="1.0" encoding="UTF-8"?>
<!-- The Best Svg Icon site in the world: iconSvg.co, Visit us! https://iconsvg.co -->
<svg fill="#000000" width="800px" height="800px" version="1.1" viewBox="144 144 512 512" xmlns="http://www.w3.org/2000/svg">
 <g>
  <path d="m642.55 339.12c1.0586-0.085938 2.0391-0.59375 2.7188-1.4102 0.67578-0.82031 0.99609-1.875 0.88281-2.9336-0.11328-1.0547-0.64453-2.0195-1.4805-2.6758-0.83594-0.65625-1.9023-0.94922-2.9531-0.80469-29.336 3.1484-65.238 13.086-104.73 28.555-50.168-12.984-110.52-19.875-174.63-19.875-78.09 0-150.75 10.234-204.55 28.82-1.0078 0.32812-1.8398 1.043-2.3086 1.9883-0.47266 0.94531-0.54297 2.043-0.19922 3.043s1.0781 1.8164 2.0312 2.2695c0.95703 0.45312 2.0547 0.50391 3.0469 0.14062 53.004-18.309 124.73-28.387 201.98-28.387 54.484-0.375 108.84 5.332 162.06 17.02-31.051 12.984-61.379 27.641-90.844 43.902-23.906-2.1172-48.707-3.1914-73.727-3.1914-76.707 0-148.45 9.9219-202 27.945-2.0664 0.69141-3.1758 2.9297-2.4844 4.9922 0.69531 2.0664 2.9297 3.1797 4.9961 2.4844 52.762-17.758 123.61-27.551 199.49-27.551 20.711 0 41.238 0.78906 61.254 2.25-12.82 7.2461-25.695 14.855-38.629 22.828-19.262 11.91-37.871 24.238-55.613 36.766-62.441 1.4609-122.41 9.8398-168.92 23.672-1.8555 0.57031-3.0195 2.4062-2.7422 4.3281 0.28125 1.9219 1.918 3.3555 3.8594 3.3711 0.37891 0 0.75781-0.054687 1.1211-0.16406 42.969-12.762 97.672-20.832 155.19-22.992h0.003906c-30.453 21.918-59.41 45.84-86.68 71.609-23.793 3.082-47.371 7.6445-70.598 13.668-2.0625 0.58984-3.2734 2.7227-2.7266 4.793 0.55078 2.0742 2.6602 3.3281 4.7422 2.8164 19.449-5.043 39.16-9.0234 59.043-11.918-26.57 26.586-46.477 51.801-57.367 73.516-0.97656 1.9453-0.19531 4.3125 1.75 5.293 1.9414 0.97656 4.3125 0.19531 5.2891-1.75 27.207-54.289 112.71-131.33 217.8-196.31 95-58.746 193.07-99.398 255.93-106.11z"/>
  <path d="m643.48 386.49c0.98438-0.35156 1.793-1.082 2.2383-2.0312 0.44141-0.94922 0.49219-2.0352 0.13281-3.0195-0.35937-0.98438-1.0938-1.7852-2.0469-2.2266-0.94922-0.4375-2.0391-0.48047-3.0195-0.11719-59.129 22.375-115.88 50.59-169.4 84.23-90.719 56.086-167.5 121.32-205.39 174.5-0.62109 0.84766-0.87891 1.9141-0.71094 2.9531 0.16797 1.0391 0.74609 1.9688 1.6016 2.582 0.85938 0.60937 1.9258 0.85156 2.9648 0.66797 1.0352-0.17969 1.957-0.76953 2.5586-1.6367 37.309-52.371 113.24-116.81 203.1-172.38 53.07-33.359 109.34-61.344 167.97-83.531z"/>
  <path d="m640.33 452.45c-31.133 16.156-61.332 34.059-90.445 53.617-61.797 41.375-116.51 88.07-154.03 131.48v-0.003907c-0.71875 0.78516-1.0859 1.8281-1.0273 2.8867 0.0625 1.0625 0.55078 2.0508 1.3555 2.7461 0.80469 0.69531 1.8555 1.0391 2.9141 0.94531 1.0586-0.089844 2.0352-0.60547 2.707-1.4297 37.078-42.902 91.223-89.09 152.46-130.09v0.003906c28.867-19.398 58.809-37.156 89.676-53.18 1.8867-1.0195 2.6094-3.3633 1.6289-5.2695-0.98438-1.9062-3.3164-2.6758-5.2383-1.7266z"/>
  <path d="m640.2 541.18c-6.2969 3.5625-12.68 7.3242-18.918 11.184-38.5 23.273-73.465 51.949-103.83 85.145-1.4414 1.6328-1.2891 4.1211 0.33984 5.5664 1.6289 1.4414 4.1211 1.2891 5.5625-0.34375 29.855-32.621 64.23-60.801 102.08-83.672 6.1523-3.8008 12.43-7.5117 18.652-11.02v-0.003907c0.92188-0.50391 1.6055-1.3594 1.8945-2.3711 0.28906-1.0156 0.15625-2.1016-0.35937-3.0156-0.51953-0.91797-1.3828-1.5859-2.3984-1.8633-1.0156-0.27344-2.1016-0.13281-3.0078 0.39844z"/>
  <path d="m548.34 240.38c0-11.531-4.582-22.586-12.73-30.738-8.1523-8.1484-19.211-12.73-30.738-12.727-11.527 0-22.582 4.5781-30.734 12.73-8.1484 8.1523-12.73 19.207-12.73 30.734 0.003906 11.527 4.582 22.586 12.734 30.734 8.1523 8.1523 19.207 12.73 30.738 12.73 11.523-0.011718 22.57-4.5977 30.719-12.746 8.1484-8.1484 12.73-19.195 12.742-30.719zm-43.461 35.594c-9.4414 0-18.496-3.75-25.172-10.426-6.6758-6.6719-10.426-15.727-10.426-25.168 0-9.4375 3.7461-18.492 10.422-25.168 6.6758-6.6758 15.73-10.426 25.168-10.426 9.4414 0 18.496 3.75 25.172 10.422 6.6719 6.6758 10.426 15.73 10.426 25.172-0.011719 9.4336-3.7656 18.48-10.438 25.152s-15.719 10.426-25.152 10.441z"/>
  <path d="m205.23 408.46h0.21484c1.2969-0.070312 2.4766-0.77734 3.1484-1.8906l11.391-18.77c1.1289-1.8594 0.53516-4.2812-1.3203-5.4062-1.8594-1.1289-4.2812-0.53906-5.4102 1.3203l-8.4023 13.848-9.7852-12.742c-1.3359-1.6797-3.7773-1.9805-5.4805-0.67188-1.7031 1.3086-2.043 3.7422-0.76172 5.4688l13.285 17.297c0.74219 0.97266 1.8945 1.543 3.1211 1.5469z"/>
  <path d="m398.68 391.17h0.21484c1.3008-0.074219 2.4766-0.78125 3.1523-1.8906l11.387-18.754c1.125-1.8594 0.53516-4.2812-1.3242-5.4102-1.8594-1.1289-4.2812-0.53516-5.4062 1.3242l-8.4062 13.836-9.7812-12.742v0.003906c-0.60938-0.89844-1.5625-1.5039-2.6328-1.6719-1.0703-0.17188-2.1641 0.10547-3.0195 0.76562-0.85938 0.66016-1.4102 1.6484-1.5156 2.7266-0.10938 1.0781 0.23047 2.1523 0.94141 2.9727l13.285 17.32c0.74609 0.95703 1.8906 1.5156 3.1055 1.5195z"/>
  <path d="m294.83 458.53h0.21094c1.2969-0.070313 2.4766-0.77734 3.1523-1.8906l11.387-18.758c1.125-1.8594 0.53516-4.2812-1.3242-5.4102-1.8594-1.125-4.2812-0.53516-5.4062 1.3242l-8.4023 13.832-9.7734-12.73c-1.3438-1.6484-3.7578-1.9297-5.4453-0.63281-1.6875 1.293-2.0391 3.6992-0.79687 5.4219l13.285 17.32c0.74609 0.96094 1.8945 1.5234 3.1133 1.5234z"/>
  <path d="m205.23 541.14h0.21484c1.2969-0.070312 2.4727-0.77734 3.1484-1.8867l11.391-18.758c1.1289-1.8594 0.53516-4.2812-1.3203-5.4102-1.8594-1.125-4.2812-0.53516-5.4102 1.3242l-8.4023 13.844-9.7852-12.742c-1.3359-1.6836-3.7773-1.9805-5.4805-0.67188s-2.043 3.7422-0.76172 5.4648l13.285 17.32c0.74609 0.96094 1.9023 1.5195 3.1211 1.5156z"/>
  <path d="m270.15 595.3h0.21875c1.2969-0.070313 2.4727-0.77734 3.1484-1.8867l11.391-18.758c1.1289-1.8594 0.53906-4.2812-1.3203-5.4102-1.8594-1.1289-4.2812-0.53906-5.4102 1.3203l-8.4062 13.848-9.7812-12.742c-1.3398-1.6836-3.7773-1.9805-5.4805-0.67188s-2.043 3.7422-0.76172 5.4648l13.285 17.297-0.003906 0.003907c0.74609 0.96875 1.8984 1.5352 3.1211 1.5352z"/>
  <path d="m406.69 467.78-8.4023 13.848-9.7773-12.75c-1.3594-1.6016-3.7383-1.8516-5.4023-0.57031-1.6641 1.2852-2.0273 3.6484-0.82422 5.3711l13.285 17.297v0.003907c0.74609 0.96875 1.8984 1.5391 3.1211 1.5391h0.21875c1.2969-0.074219 2.4727-0.78125 3.1484-1.8906l11.387-18.758c1.125-1.8594 0.53516-4.2812-1.3242-5.4102-1.8594-1.1289-4.2812-0.53516-5.4062 1.3242z"/>
  <path d="m541.7 460.8-8.4023 13.848-9.7812-12.742c-1.375-1.5391-3.707-1.7578-5.3438-0.49609-1.6367 1.2578-2.0195 3.5703-0.875 5.293l13.285 17.297h-0.003906c0.74609 0.97266 1.8984 1.5391 3.1211 1.5391h0.21484c1.2969-0.070312 2.4766-0.77734 3.1484-1.8867l11.387-18.758v-0.003906c1.1289-1.8633 0.53516-4.2891-1.332-5.418-1.8633-1.1289-4.2891-0.53516-5.418 1.3281z"/>
  <path d="m601.59 537.85h0.21484c1.2969-0.070312 2.4766-0.77344 3.1484-1.8828l11.391-18.758v-0.003906c1.1289-1.8555 0.53906-4.2773-1.3203-5.4062s-4.2812-0.53516-5.4102 1.3242l-8.4062 13.844-9.7812-12.742c-1.3359-1.6836-3.7734-1.9844-5.4805-0.67578-1.7031 1.3086-2.043 3.7422-0.76172 5.4688l13.285 17.32c0.75 0.96094 1.9023 1.5195 3.1211 1.5117z"/>
  <path d="m522.52 582.63c-0.89453-0.54297-1.9648-0.70703-2.9805-0.45703-1.0117 0.24609-1.8867 0.88672-2.4297 1.7812l-8.4062 13.844-9.7812-12.742c-1.3359-1.6836-3.7734-1.9844-5.4805-0.67578-1.7031 1.3086-2.043 3.7422-0.76172 5.4688l13.285 17.32c0.74219 0.96875 1.8984 1.5391 3.1211 1.5391h0.21484c1.2969-0.070312 2.4766-0.77734 3.1484-1.8867l11.391-18.758c0.55078-0.89453 0.71875-1.9727 0.47266-2.9922-0.25-1.0195-0.89453-1.8984-1.793-2.4414z"/>
  <path d="m395.69 579.75 11.395-18.77c1.1289-1.8594 0.53906-4.2773-1.3203-5.4062-1.8594-1.1289-4.2812-0.53516-5.4102 1.3203l-8.4062 13.844-9.7812-12.742c-1.3359-1.6797-3.7734-1.9805-5.4805-0.67188-1.7031 1.3086-2.043 3.7422-0.76172 5.4688l13.285 17.32v-0.003906c0.74219 0.97266 1.8984 1.5391 3.1211 1.5391h0.21484c1.2969-0.074219 2.4766-0.78516 3.1445-1.8984z"/>
  <path d="m573.58 375.81-8.4023 13.848-9.7812-12.742h-0.003906c-0.62891-0.84766-1.5703-1.4062-2.6133-1.5508-1.0469-0.14844-2.1055 0.13281-2.9414 0.77344-0.83984 0.64453-1.3828 1.5938-1.5117 2.6445-0.12891 1.0469 0.16797 2.1016 0.82422 2.9258l13.285 17.32c0.74609 0.96875 1.8984 1.5391 3.1211 1.543h0.21875c1.293-0.070313 2.4727-0.77734 3.1484-1.8867l11.387-18.762c1.125-1.8594 0.53516-4.2812-1.3242-5.4102s-4.2812-0.53516-5.4062 1.3242z"/>
  <path d="m500.94 303.02v14.238-0.003907c0 2.1758 1.7617 3.9375 3.9375 3.9375 2.1719 0 3.9336-1.7617 3.9336-3.9375v-14.234c0-2.1758-1.7617-3.9375-3.9336-3.9375-2.1758 0-3.9375 1.7617-3.9375 3.9375z"/>
  <path d="m504.88 181.68c1.043 0 2.043-0.41406 2.7812-1.1523 0.73828-0.73828 1.1523-1.7383 1.1523-2.7852v-14.234c0-2.1758-1.7617-3.9375-3.9336-3.9375-2.1758 0-3.9375 1.7617-3.9375 3.9375v14.234c0 1.0469 0.41406 2.0469 1.1523 2.7852 0.73828 0.73828 1.7383 1.1523 2.7852 1.1523z"/>
  <path d="m563.58 240.38c0 1.043 0.41406 2.043 1.1523 2.7812 0.73828 0.73828 1.7422 1.1523 2.7852 1.1523h14.238-0.003906c2.1758 0 3.9375-1.7617 3.9375-3.9336 0-2.1758-1.7617-3.9375-3.9375-3.9375h-14.234c-2.1758 0-3.9375 1.7617-3.9375 3.9375z"/>
  <path d="m428 244.32h14.234c2.1758 0 3.9375-1.7617 3.9375-3.9336 0-2.1758-1.7617-3.9375-3.9375-3.9375h-14.234c-2.1758 0-3.9375 1.7617-3.9375 3.9375 0 2.1719 1.7617 3.9336 3.9375 3.9336z"/>
  <path d="m524.56 179.58c19.484 6.3242 34.758 21.605 41.078 41.09 0.52344 1.6289 2.0352 2.7305 3.7461 2.7344 0.41016 0 0.81641-0.066406 1.207-0.19531 2.0664-0.66406 3.2031-2.8828 2.5391-4.9492-7.0898-21.902-24.25-39.078-46.148-46.188-2.0703-0.66797-4.293 0.46875-4.9648 2.543-0.66797 2.0703 0.46875 4.2969 2.543 4.9648z"/>
  <path d="m439.11 223.21c0.99609 0.32422 2.0742 0.23828 3.0039-0.23438 0.92969-0.47656 1.6367-1.3008 1.957-2.293 6.3438-19.488 21.629-34.766 41.121-41.102 1.0391-0.28125 1.9219-0.97656 2.4375-1.9219 0.51562-0.94922 0.61719-2.0664 0.28516-3.0938-0.33203-1.0273-1.0742-1.8711-2.0469-2.3359-0.97266-0.46484-2.0938-0.51172-3.1016-0.12891-21.891 7.1172-39.055 24.27-46.188 46.156-0.66797 2.0664 0.46484 4.2852 2.5312 4.9531z"/>
  <path d="m444.08 260.09c-0.74609-1.9648-2.8984-3-4.8945-2.3477-2 0.64844-3.1367 2.75-2.5859 4.7773 7.125 21.883 24.281 39.043 46.16 46.18 0.39062 0.125 0.80078 0.19141 1.2148 0.19141 1.9414 0.003907 3.5938-1.4062 3.8945-3.3203 0.30469-1.918-0.83594-3.7695-2.6797-4.3633-19.488-6.3477-34.766-21.629-41.109-41.117z"/>
  <path d="m525.77 308.89c0.41406 0 0.82422-0.066406 1.2148-0.19141 21.895-7.125 39.062-24.289 46.195-46.18 0.38281-1.0078 0.33203-2.1289-0.13281-3.0977-0.46484-0.97266-1.3086-1.7109-2.332-2.043-1.0234-0.33203-2.1406-0.23047-3.0859 0.28125-0.94922 0.51172-1.6445 1.3906-1.9297 2.4297-6.3555 19.488-21.645 34.77-41.141 41.109-1.8477 0.59375-2.9883 2.4453-2.6836 4.3633 0.30078 1.9141 1.9531 3.3242 3.8945 3.3203z"/>
 </g>
</svg>