<?xml version="1.0" encoding="UTF-8"?>
<!-- The Best Svg Icon site in the world: iconSvg.co, Visit us! https://iconsvg.co -->
<svg fill="#000000" width="800px" height="800px" version="1.1" viewBox="144 144 512 512" xmlns="http://www.w3.org/2000/svg">
 <g>
  <path d="m315.8 223.82c-2.2734-0.26172-4.582-0.39453-6.8555-0.39453-29.605 0-54.535 22.023-57.992 51.227-0.32422 2.7617 1.6484 5.2695 4.4141 5.5977 0.19531 0.023437 0.39844 0.035156 0.59375 0.035156 2.5195 0 4.6953-1.8828 5-4.4453 2.8594-24.137 23.488-42.336 47.984-42.336 1.8906 0 3.8086 0.10938 5.7031 0.32812 2.7891 0.33594 5.2656-1.6641 5.5781-4.4297 0.32422-2.7617-1.6602-5.2617-4.4258-5.582z"/>
  <path d="m336.42 230.21c-2.457-1.3008-5.5039-0.36328-6.8086 2.0859-1.3086 2.457-0.375 5.5078 2.0859 6.8125 4.1914 2.2266 8.0391 5.0664 11.434 8.4414 0.98438 0.97656 2.2695 1.4648 3.5508 1.4648 1.293 0 2.5898-0.49609 3.5703-1.4844 1.9648-1.9727 1.9531-5.1602-0.019531-7.125-4.0938-4.0703-8.7422-7.5039-13.812-10.195z"/>
  <path d="m573.78 425.89-53.84-85.984-2.5742-4.1797c-0.37891-0.61719-0.89063-1.1484-1.4961-1.5508l-87.883-58.266c-1.6914-1.1172-3.8789-1.1172-5.5703 0l-29.969 19.848v-14.273c0-22.188-8.6875-43.039-24.461-58.715-15.766-15.668-36.734-24.293-59.039-24.293-46.043 0-83.504 37.238-83.504 83.008v315c0 2.7812 2.2539 5.0391 5.0391 5.0391h310.72c2.7852 0 5.0391-2.2539 5.0391-5.0391v-149.76l25.648-13.715c1.2305-0.66016 2.1367-1.7969 2.4961-3.1445 0.35547-1.3516 0.13281-2.793-0.60547-3.9766zm-338.26-144.41c0-40.215 32.938-72.934 73.426-72.934 19.625 0 38.07 7.5859 51.938 21.363 13.859 13.77 21.492 32.082 21.492 51.566v7.4844h-146.86zm0 17.559h146.85v3.3789l-48.191 31.922c-0.62109 0.40625-1.1406 0.94141-1.5312 1.5703l-17.465 27.918h-79.664zm0 74.867h73.363l-32.516 51.98c-0.73828 1.1836-0.96094 2.6211-0.60156 3.9688s1.2656 2.4883 2.4961 3.1445l10.73 5.7383-53.473 0.007812zm68.387 217.54h-68.387v-67.707h68.387zm0-77.781h-68.387v-64.84h68.387zm120.05 77.781h-37.07l30.195-25.93c2.1094-1.8125 2.3516-4.9922 0.54297-7.1055-1.8203-2.1172-4.9922-2.3438-7.1055-0.54297l-32.195 27.645v-80.438l32.059 29.613c0.96875 0.89844 2.1953 1.3398 3.4219 1.3398 1.3516 0 2.707-0.54297 3.6992-1.6172 1.8906-2.043 1.7617-5.2344-0.28125-7.1211l-31.059-28.688h37.793zm55.711-5.9297-32.195-27.645c-2.1016-1.8047-5.2773-1.5781-7.1055 0.54297-1.8125 2.1094-1.5703 5.293 0.54297 7.1055l30.195 25.926h-37.07v-92.844h37.793l-31.059 28.688c-2.043 1.8867-2.168 5.0742-0.28125 7.1211 0.99609 1.0742 2.3477 1.6172 3.6992 1.6172 1.2266 0 2.4492-0.44141 3.418-1.3398l32.059-29.613zm56.496 5.9297h-46.422v-97.883c0-0.25781-0.10938-0.48047-0.14844-0.73047-0.054688-0.37109-0.082031-0.74219-0.22266-1.0938-0.14062-0.36328-0.37891-0.66406-0.59766-0.98047-0.13672-0.19922-0.20313-0.42969-0.375-0.61328-0.023438-0.023437-0.054688-0.03125-0.078126-0.054687-0.28516-0.29688-0.64062-0.49609-0.98828-0.71484-0.21094-0.13281-0.39453-0.32031-0.62109-0.41797-0.21875-0.097656-0.47266-0.10156-0.70703-0.16797-0.40625-0.10937-0.80078-0.23828-1.2188-0.24609-0.03125 0-0.054687-0.019531-0.085937-0.019531h-111.41c-0.03125 0-0.058594 0.015624-0.089844 0.019531-0.42187 0.007812-0.82812 0.13672-1.2383 0.25-0.22656 0.0625-0.47266 0.066406-0.68359 0.16016-0.23438 0.10156-0.42578 0.29688-0.64844 0.4375-0.33594 0.21484-0.6875 0.41016-0.96484 0.69531-0.023437 0.023437-0.054687 0.03125-0.078125 0.054687-0.17188 0.18359-0.23828 0.41406-0.375 0.61719-0.21875 0.31641-0.45312 0.61328-0.59375 0.97656-0.14062 0.35547-0.16797 0.72656-0.22266 1.0977-0.039063 0.24609-0.14844 0.46875-0.14844 0.72656l0.007812 97.887h-54.266v-148.71l50.316-80.496 60.836-40.34 60.582 40.156 50.445 80.684zm7.9453-155.01-50.426-80.652c-0.37891-0.60938-0.88672-1.1328-1.4844-1.5273l-64.273-42.602c-0.84766-0.55859-1.8164-0.83984-2.7852-0.83984s-1.9375 0.28125-2.7852 0.83984l-64.531 42.789c-0.60156 0.39844-1.1055 0.91797-1.4844 1.5273l-50.297 80.465-18.27-9.7695 50.887-81.289 1.9844-3.2227 84.559-56.004 84.168 55.797 53.008 84.719z"/>
  <path d="m427.84 394.96h-5.5312c-9.9102 0-17.969 8.0586-17.969 17.965v36.973c0 2.7812 2.2539 5.0391 5.0391 5.0391h31.391c2.7852 0 5.0391-2.2539 5.0391-5.0391v-36.973c0-9.9062-8.0586-17.965-17.969-17.965zm7.8906 49.902h-21.312v-31.938c0-4.3477 3.543-7.8906 7.8906-7.8906h5.5312c4.3477 0 7.8906 3.5391 7.8906 7.8906z"/>
 </g>
</svg>