<?xml version="1.0" encoding="UTF-8"?>
<!-- The Best Svg Icon site in the world: iconSvg.co, Visit us! https://iconsvg.co -->
<svg fill="#000000" width="800px" height="800px" version="1.1" viewBox="144 144 512 512" xmlns="http://www.w3.org/2000/svg">
 <path d="m390.07 412.19v24.887h19.852v-24.887zm41.766-70.082-31.789-21.008-31.891 21.109-0.60547 0.90625-19.043 30.328 5.0898 2.7188s0.50391-0.050781 0.60547-0.050781c0.50391 0 0.85547 0.050781 1.1094 0.15234 1.6641 0.45312 2.7695 1.9648 2.7695 3.6289v57.184h24.434v-28.668c0-2.0664 1.7109-3.7773 3.7773-3.7773h27.406c2.0664 0 3.7773 1.7148 3.7773 3.7773v28.668h24.484v-57.18c0-1.6641 1.1602-3.1758 2.7695-3.6289 0.30078-0.10156 0.70703-0.15234 1.0586-0.15234h0.30078l0.65625-0.10156 4.7344-2.5703zm-21.965 43.078c-2.0664 0-3.7773-1.7148-3.7773-3.7773 0-0.90625-0.75391-1.6641-1.6133-1.6641h-8.918c-0.90625 0-1.6641 0.75391-1.6641 1.6641 0 2.0664-1.7109 3.7773-3.7773 3.7773s-3.7773-1.7148-3.7773-3.7773c0-5.0898 4.1328-9.2188 9.2188-9.2188h8.918c5.0391 0 9.168 4.1328 9.168 9.2188 0 2.0625-1.7148 3.7773-3.7773 3.7773zm21.965-43.078-31.789-21.008-31.891 21.109-0.60547 0.90625-19.043 30.328 5.0898 2.7188s0.50391-0.050781 0.60547-0.050781c0.50391 0 0.85547 0.050781 1.1094 0.15234 1.6641 0.45312 2.7695 1.9648 2.7695 3.6289v57.184h24.434v-28.668c0-2.0664 1.7109-3.7773 3.7773-3.7773h27.406c2.0664 0 3.7773 1.7148 3.7773 3.7773v28.668h24.484v-57.18c0-1.6641 1.1602-3.1758 2.7695-3.6289 0.30078-0.10156 0.70703-0.15234 1.0586-0.15234h0.30078l0.65625-0.10156 4.7344-2.5703zm-21.965 43.078c-2.0664 0-3.7773-1.7148-3.7773-3.7773 0-0.90625-0.75391-1.6641-1.6133-1.6641h-8.918c-0.90625 0-1.6641 0.75391-1.6641 1.6641 0 2.0664-1.7109 3.7773-3.7773 3.7773s-3.7773-1.7148-3.7773-3.7773c0-5.0898 4.1328-9.2188 9.2188-9.2188h8.918c5.0391 0 9.168 4.1328 9.168 9.2188 0 2.0625-1.7148 3.7773-3.7773 3.7773zm-19.801 51.891h19.852v-24.887h-19.852zm-68.82-202.93v283.24h157.49l-0.003906-283.24zm139.25 141.72c-0.30078 1.0078-0.95703 1.8633-1.8633 2.3672l-9.1172 4.8359v57.785c0 2.0664-1.6641 3.7773-3.7773 3.7773l-91.445 0.003907c-2.0664 0-3.7773-1.7148-3.7773-3.7773l-0.003906-57.789-9.168-4.8359c-0.90625-0.50391-1.6133-1.3594-1.8633-2.3672-0.25-1.0078-0.10156-2.1172 0.45312-2.9727l22.168-35.316c0.30078-0.50391 0.70703-0.95703 1.2109-1.2578l34.711-22.922c0.60547-0.35156 1.3086-0.55469 2.0664-0.55469 0.70703 0 1.4609 0.20312 2.0664 0.60547l34.512 22.773c0.50391 0.30078 0.90625 0.75391 1.2109 1.2578l1.0078 1.7148 21.16 33.703c0.54688 0.85156 0.69922 1.9609 0.44922 2.9688zm-60.457-54.766-31.891 21.109-0.60547 0.90625-19.043 30.328 5.0898 2.7188s0.50391-0.050781 0.60547-0.050781c0.50391 0 0.85547 0.050781 1.1094 0.15234 1.6641 0.45312 2.7695 1.9648 2.7695 3.6289v57.184h24.434v-28.668c0-2.0664 1.7109-3.7773 3.7773-3.7773h27.406c2.0664 0 3.7773 1.7148 3.7773 3.7773v28.668h24.484v-57.18c0-1.6641 1.1602-3.1758 2.7695-3.6289 0.30078-0.10156 0.70703-0.15234 1.0586-0.15234h0.30078l0.65625-0.10156 4.7344-2.5703-19.648-31.336zm9.8242 64.086c-2.0664 0-3.7773-1.7148-3.7773-3.7773 0-0.90625-0.75391-1.6641-1.6133-1.6641h-8.918c-0.90625 0-1.6641 0.75391-1.6641 1.6641 0 2.0664-1.7109 3.7773-3.7773 3.7773s-3.7773-1.7148-3.7773-3.7773c0-5.0898 4.1328-9.2188 9.2188-9.2188h8.918c5.0391 0 9.168 4.1328 9.168 9.2188 0 2.0625-1.7148 3.7773-3.7773 3.7773zm-19.801 51.891h19.852v-24.887h-19.852zm0-24.887v24.887h19.852v-24.887zm41.766-70.082-31.789-21.008-31.891 21.109-0.60547 0.90625-19.043 30.328 5.0898 2.7188s0.50391-0.050781 0.60547-0.050781c0.50391 0 0.85547 0.050781 1.1094 0.15234 1.6641 0.45312 2.7695 1.9648 2.7695 3.6289v57.184h24.434v-28.668c0-2.0664 1.7109-3.7773 3.7773-3.7773h27.406c2.0664 0 3.7773 1.7148 3.7773 3.7773v28.668h24.484v-57.18c0-1.6641 1.1602-3.1758 2.7695-3.6289 0.30078-0.10156 0.70703-0.15234 1.0586-0.15234h0.30078l0.65625-0.10156 4.7344-2.5703zm-21.965 43.078c-2.0664 0-3.7773-1.7148-3.7773-3.7773 0-0.90625-0.75391-1.6641-1.6133-1.6641h-8.918c-0.90625 0-1.6641 0.75391-1.6641 1.6641 0 2.0664-1.7109 3.7773-3.7773 3.7773s-3.7773-1.7148-3.7773-3.7773c0-5.0898 4.1328-9.2188 9.2188-9.2188h8.918c5.0391 0 9.168 4.1328 9.168 9.2188 0 2.0625-1.7148 3.7773-3.7773 3.7773zm21.965-43.078-31.789-21.008-31.891 21.109-0.60547 0.90625-19.043 30.328 5.0898 2.7188s0.50391-0.050781 0.60547-0.050781c0.50391 0 0.85547 0.050781 1.1094 0.15234 1.6641 0.45312 2.7695 1.9648 2.7695 3.6289v57.184h24.434v-28.668c0-2.0664 1.7109-3.7773 3.7773-3.7773h27.406c2.0664 0 3.7773 1.7148 3.7773 3.7773v28.668h24.484v-57.18c0-1.6641 1.1602-3.1758 2.7695-3.6289 0.30078-0.10156 0.70703-0.15234 1.0586-0.15234h0.30078l0.65625-0.10156 4.7344-2.5703zm-21.965 43.078c-2.0664 0-3.7773-1.7148-3.7773-3.7773 0-0.90625-0.75391-1.6641-1.6133-1.6641h-8.918c-0.90625 0-1.6641 0.75391-1.6641 1.6641 0 2.0664-1.7109 3.7773-3.7773 3.7773s-3.7773-1.7148-3.7773-3.7773c0-5.0898 4.1328-9.2188 9.2188-9.2188h8.918c5.0391 0 9.168 4.1328 9.168 9.2188 0 2.0625-1.7148 3.7773-3.7773 3.7773zm-19.801 51.891h19.852v-24.887h-19.852zm-68.82-202.93v283.24h157.49l-0.003906-283.24zm139.25 141.72c-0.30078 1.0078-0.95703 1.8633-1.8633 2.3672l-9.1172 4.8359v57.785c0 2.0664-1.6641 3.7773-3.7773 3.7773l-91.445 0.003907c-2.0664 0-3.7773-1.7148-3.7773-3.7773l-0.003906-57.789-9.168-4.8359c-0.90625-0.50391-1.6133-1.3594-1.8633-2.3672-0.25-1.0078-0.10156-2.1172 0.45312-2.9727l22.168-35.316c0.30078-0.50391 0.70703-0.95703 1.2109-1.2578l34.711-22.922c0.60547-0.35156 1.3086-0.55469 2.0664-0.55469 0.70703 0 1.4609 0.20312 2.0664 0.60547l34.512 22.773c0.50391 0.30078 0.90625 0.75391 1.2109 1.2578l1.0078 1.7148 21.16 33.703c0.54688 0.85156 0.69922 1.9609 0.44922 2.9688zm-60.457-54.766-31.891 21.109-0.60547 0.90625-19.043 30.328 5.0898 2.7188s0.50391-0.050781 0.60547-0.050781c0.50391 0 0.85547 0.050781 1.1094 0.15234 1.6641 0.45312 2.7695 1.9648 2.7695 3.6289v57.184h24.434v-28.668c0-2.0664 1.7109-3.7773 3.7773-3.7773h27.406c2.0664 0 3.7773 1.7148 3.7773 3.7773v28.668h24.484v-57.18c0-1.6641 1.1602-3.1758 2.7695-3.6289 0.30078-0.10156 0.70703-0.15234 1.0586-0.15234h0.30078l0.65625-0.10156 4.7344-2.5703-19.648-31.336zm9.8242 64.086c-2.0664 0-3.7773-1.7148-3.7773-3.7773 0-0.90625-0.75391-1.6641-1.6133-1.6641h-8.918c-0.90625 0-1.6641 0.75391-1.6641 1.6641 0 2.0664-1.7109 3.7773-3.7773 3.7773s-3.7773-1.7148-3.7773-3.7773c0-5.0898 4.1328-9.2188 9.2188-9.2188h8.918c5.0391 0 9.168 4.1328 9.168 9.2188 0 2.0625-1.7148 3.7773-3.7773 3.7773zm-19.801 51.891h19.852v-24.887h-19.852zm0-24.887v24.887h19.852v-24.887zm41.766-70.082-31.789-21.008-31.891 21.109-0.60547 0.90625-19.043 30.328 5.0898 2.7188s0.50391-0.050781 0.60547-0.050781c0.50391 0 0.85547 0.050781 1.1094 0.15234 1.6641 0.45312 2.7695 1.9648 2.7695 3.6289v57.184h24.434v-28.668c0-2.0664 1.7109-3.7773 3.7773-3.7773h27.406c2.0664 0 3.7773 1.7148 3.7773 3.7773v28.668h24.484v-57.18c0-1.6641 1.1602-3.1758 2.7695-3.6289 0.30078-0.10156 0.70703-0.15234 1.0586-0.15234h0.30078l0.65625-0.10156 4.7344-2.5703zm-21.965 43.078c-2.0664 0-3.7773-1.7148-3.7773-3.7773 0-0.90625-0.75391-1.6641-1.6133-1.6641h-8.918c-0.90625 0-1.6641 0.75391-1.6641 1.6641 0 2.0664-1.7109 3.7773-3.7773 3.7773s-3.7773-1.7148-3.7773-3.7773c0-5.0898 4.1328-9.2188 9.2188-9.2188h8.918c5.0391 0 9.168 4.1328 9.168 9.2188 0 2.0625-1.7148 3.7773-3.7773 3.7773zm21.965-43.078-31.789-21.008-31.891 21.109-0.60547 0.90625-19.043 30.328 5.0898 2.7188s0.50391-0.050781 0.60547-0.050781c0.50391 0 0.85547 0.050781 1.1094 0.15234 1.6641 0.45312 2.7695 1.9648 2.7695 3.6289v57.184h24.434v-28.668c0-2.0664 1.7109-3.7773 3.7773-3.7773h27.406c2.0664 0 3.7773 1.7148 3.7773 3.7773v28.668h24.484v-57.18c0-1.6641 1.1602-3.1758 2.7695-3.6289 0.30078-0.10156 0.70703-0.15234 1.0586-0.15234h0.30078l0.65625-0.10156 4.7344-2.5703zm-21.965 43.078c-2.0664 0-3.7773-1.7148-3.7773-3.7773 0-0.90625-0.75391-1.6641-1.6133-1.6641h-8.918c-0.90625 0-1.6641 0.75391-1.6641 1.6641 0 2.0664-1.7109 3.7773-3.7773 3.7773s-3.7773-1.7148-3.7773-3.7773c0-5.0898 4.1328-9.2188 9.2188-9.2188h8.918c5.0391 0 9.168 4.1328 9.168 9.2188 0 2.0625-1.7148 3.7773-3.7773 3.7773zm-19.801 51.891h19.852v-24.887h-19.852zm-68.82-202.93v283.24h157.49l-0.003906-283.24zm139.25 141.72c-0.30078 1.0078-0.95703 1.8633-1.8633 2.3672l-9.1172 4.8359v57.785c0 2.0664-1.6641 3.7773-3.7773 3.7773l-91.445 0.003907c-2.0664 0-3.7773-1.7148-3.7773-3.7773l-0.003906-57.789-9.168-4.8359c-0.90625-0.50391-1.6133-1.3594-1.8633-2.3672-0.25-1.0078-0.10156-2.1172 0.45312-2.9727l22.168-35.316c0.30078-0.50391 0.70703-0.95703 1.2109-1.2578l34.711-22.922c0.60547-0.35156 1.3086-0.55469 2.0664-0.55469 0.70703 0 1.4609 0.20312 2.0664 0.60547l34.512 22.773c0.50391 0.30078 0.90625 0.75391 1.2109 1.2578l1.0078 1.7148 21.16 33.703c0.54688 0.85156 0.69922 1.9609 0.44922 2.9688zm-60.457-54.766-31.891 21.109-0.60547 0.90625-19.043 30.328 5.0898 2.7188s0.50391-0.050781 0.60547-0.050781c0.50391 0 0.85547 0.050781 1.1094 0.15234 1.6641 0.45312 2.7695 1.9648 2.7695 3.6289v57.184h24.434v-28.668c0-2.0664 1.7109-3.7773 3.7773-3.7773h27.406c2.0664 0 3.7773 1.7148 3.7773 3.7773v28.668h24.484v-57.18c0-1.6641 1.1602-3.1758 2.7695-3.6289 0.30078-0.10156 0.70703-0.15234 1.0586-0.15234h0.30078l0.65625-0.10156 4.7344-2.5703-19.648-31.336zm9.8242 64.086c-2.0664 0-3.7773-1.7148-3.7773-3.7773 0-0.90625-0.75391-1.6641-1.6133-1.6641h-8.918c-0.90625 0-1.6641 0.75391-1.6641 1.6641 0 2.0664-1.7109 3.7773-3.7773 3.7773s-3.7773-1.7148-3.7773-3.7773c0-5.0898 4.1328-9.2188 9.2188-9.2188h8.918c5.0391 0 9.168 4.1328 9.168 9.2188 0 2.0625-1.7148 3.7773-3.7773 3.7773zm-19.801 51.891h19.852v-24.887h-19.852zm-68.82-202.93v283.24h157.49l-0.003906-283.24zm139.25 141.72c-0.30078 1.0078-0.95703 1.8633-1.8633 2.3672l-9.1172 4.8359v57.785c0 2.0664-1.6641 3.7773-3.7773 3.7773l-91.445 0.003907c-2.0664 0-3.7773-1.7148-3.7773-3.7773l-0.003906-57.789-9.168-4.8359c-0.90625-0.50391-1.6133-1.3594-1.8633-2.3672-0.25-1.0078-0.10156-2.1172 0.45312-2.9727l22.168-35.316c0.30078-0.50391 0.70703-0.95703 1.2109-1.2578l34.711-22.922c0.60547-0.35156 1.3086-0.55469 2.0664-0.55469 0.70703 0 1.4609 0.20312 2.0664 0.60547l34.512 22.773c0.50391 0.30078 0.90625 0.75391 1.2109 1.2578l1.0078 1.7148 21.16 33.703c0.54688 0.85156 0.69922 1.9609 0.44922 2.9688zm-60.457-54.766-31.891 21.109-0.60547 0.90625-19.043 30.328 5.0898 2.7188s0.50391-0.050781 0.60547-0.050781c0.50391 0 0.85547 0.050781 1.1094 0.15234 1.6641 0.45312 2.7695 1.9648 2.7695 3.6289v57.184h24.434v-28.668c0-2.0664 1.7109-3.7773 3.7773-3.7773h27.406c2.0664 0 3.7773 1.7148 3.7773 3.7773v28.668h24.484v-57.18c0-1.6641 1.1602-3.1758 2.7695-3.6289 0.30078-0.10156 0.70703-0.15234 1.0586-0.15234h0.30078l0.65625-0.10156 4.7344-2.5703-19.648-31.336zm9.8242 64.086c-2.0664 0-3.7773-1.7148-3.7773-3.7773 0-0.90625-0.75391-1.6641-1.6133-1.6641h-8.918c-0.90625 0-1.6641 0.75391-1.6641 1.6641 0 2.0664-1.7109 3.7773-3.7773 3.7773s-3.7773-1.7148-3.7773-3.7773c0-5.0898 4.1328-9.2188 9.2188-9.2188h8.918c5.0391 0 9.168 4.1328 9.168 9.2188 0 2.0625-1.7148 3.7773-3.7773 3.7773zm-19.801 51.891h19.852v-24.887h-19.852zm113.21-229.79h-206.56c-3.4766 0-6.2969 2.8203-6.2969 6.2969v372.82c0 3.4766 2.8203 6.2969 6.2969 6.2969h206.56c3.4766 0 6.2969-2.8203 6.2969-6.2969v-372.82c0-3.4766-2.8242-6.2969-6.2969-6.2969zm-103.28 370.95c-10.125 0-18.34-8.2109-18.34-18.34 0-10.078 8.2109-18.289 18.34-18.289 10.125 0 18.34 8.2109 18.34 18.289-0.003906 10.129-8.2148 18.34-18.34 18.34zm86.301-57.082c0 2.0664-1.6641 3.7773-3.7773 3.7773h-165.05c-2.1172 0-3.7773-1.7148-3.7773-3.7773v-290.8c0-2.0664 1.6641-3.7773 3.7773-3.7773h165.05c2.1172 0 3.7773 1.7148 3.7773 3.7773zm-165.05-3.7773h157.49l-0.003906-283.24h-157.49zm18.691-144.49 22.168-35.316c0.30078-0.50391 0.70703-0.95703 1.2109-1.2578l34.711-22.922c0.60547-0.35156 1.3086-0.55469 2.0664-0.55469 0.70703 0 1.4609 0.20312 2.0664 0.60547l34.512 22.773c0.50391 0.30078 0.90625 0.75391 1.2109 1.2578l1.0078 1.7148 21.16 33.703c0.55469 0.85547 0.70703 1.9648 0.45312 2.9727-0.30078 1.0078-0.95703 1.8633-1.8633 2.3672l-9.1172 4.8359v57.785c0 2.0664-1.6641 3.7773-3.7773 3.7773h-91.449c-2.0664 0-3.7773-1.7148-3.7773-3.7773l-0.003906-57.789-9.168-4.8359c-0.90625-0.50391-1.6133-1.3594-1.8633-2.3672-0.25391-1.0078-0.10156-2.1172 0.45312-2.9727zm14.258 3.2227c0.50391 0 0.85547 0.050781 1.1094 0.15234 1.6641 0.45312 2.7695 1.9648 2.7695 3.6289v57.184h24.434v-28.668c0-2.0664 1.7109-3.7773 3.7773-3.7773h27.406c2.0664 0 3.7773 1.7148 3.7773 3.7773v28.668h24.484l0.003906-57.184c0-1.6641 1.1602-3.1758 2.7695-3.6289 0.30078-0.10156 0.70703-0.15234 1.0586-0.15234h0.30078l0.65625-0.10156 4.7344-2.5703-19.648-31.336-31.789-21.008-31.891 21.109-0.60547 0.90625-19.043 30.328 5.0898 2.7188c0 0.003907 0.50391-0.046874 0.60547-0.046874zm41.363-3.9297h8.918c5.0391 0 9.168 4.1328 9.168 9.2188 0 2.0664-1.7148 3.7773-3.7773 3.7773-2.0664 0-3.7773-1.7148-3.7773-3.7773 0-0.90625-0.75391-1.6641-1.6133-1.6641h-8.918c-0.90625 0-1.6641 0.75391-1.6641 1.6641 0 2.0664-1.7109 3.7773-3.7773 3.7773s-3.7773-1.7148-3.7773-3.7773c-0.003906-5.0859 4.1289-9.2188 9.2188-9.2188zm-5.4922 64.891h19.852v-24.887h-19.852zm0-24.887v24.887h19.852v-24.887zm41.766-70.082-31.789-21.008-31.891 21.109-0.60547 0.90625-19.043 30.328 5.0898 2.7188s0.50391-0.050781 0.60547-0.050781c0.50391 0 0.85547 0.050781 1.1094 0.15234 1.6641 0.45312 2.7695 1.9648 2.7695 3.6289v57.184h24.434v-28.668c0-2.0664 1.7109-3.7773 3.7773-3.7773h27.406c2.0664 0 3.7773 1.7148 3.7773 3.7773v28.668h24.484v-57.18c0-1.6641 1.1602-3.1758 2.7695-3.6289 0.30078-0.10156 0.70703-0.15234 1.0586-0.15234h0.30078l0.65625-0.10156 4.7344-2.5703zm-21.965 43.078c-2.0664 0-3.7773-1.7148-3.7773-3.7773 0-0.90625-0.75391-1.6641-1.6133-1.6641h-8.918c-0.90625 0-1.6641 0.75391-1.6641 1.6641 0 2.0664-1.7109 3.7773-3.7773 3.7773s-3.7773-1.7148-3.7773-3.7773c0-5.0898 4.1328-9.2188 9.2188-9.2188h8.918c5.0391 0 9.168 4.1328 9.168 9.2188 0 2.0625-1.7148 3.7773-3.7773 3.7773zm21.965-43.078-31.789-21.008-31.891 21.109-0.60547 0.90625-19.043 30.328 5.0898 2.7188s0.50391-0.050781 0.60547-0.050781c0.50391 0 0.85547 0.050781 1.1094 0.15234 1.6641 0.45312 2.7695 1.9648 2.7695 3.6289v57.184h24.434v-28.668c0-2.0664 1.7109-3.7773 3.7773-3.7773h27.406c2.0664 0 3.7773 1.7148 3.7773 3.7773v28.668h24.484v-57.18c0-1.6641 1.1602-3.1758 2.7695-3.6289 0.30078-0.10156 0.70703-0.15234 1.0586-0.15234h0.30078l0.65625-0.10156 4.7344-2.5703zm-21.965 43.078c-2.0664 0-3.7773-1.7148-3.7773-3.7773 0-0.90625-0.75391-1.6641-1.6133-1.6641h-8.918c-0.90625 0-1.6641 0.75391-1.6641 1.6641 0 2.0664-1.7109 3.7773-3.7773 3.7773s-3.7773-1.7148-3.7773-3.7773c0-5.0898 4.1328-9.2188 9.2188-9.2188h8.918c5.0391 0 9.168 4.1328 9.168 9.2188 0 2.0625-1.7148 3.7773-3.7773 3.7773zm-19.801 51.891h19.852v-24.887h-19.852zm-68.82-202.93v283.24h157.49l-0.003906-283.24zm139.25 141.72c-0.30078 1.0078-0.95703 1.8633-1.8633 2.3672l-9.1172 4.8359v57.785c0 2.0664-1.6641 3.7773-3.7773 3.7773l-91.445 0.003907c-2.0664 0-3.7773-1.7148-3.7773-3.7773l-0.003906-57.789-9.168-4.8359c-0.90625-0.50391-1.6133-1.3594-1.8633-2.3672-0.25-1.0078-0.10156-2.1172 0.45312-2.9727l22.168-35.316c0.30078-0.50391 0.70703-0.95703 1.2109-1.2578l34.711-22.922c0.60547-0.35156 1.3086-0.55469 2.0664-0.55469 0.70703 0 1.4609 0.20312 2.0664 0.60547l34.512 22.773c0.50391 0.30078 0.90625 0.75391 1.2109 1.2578l1.0078 1.7148 21.16 33.703c0.54688 0.85156 0.69922 1.9609 0.44922 2.9688zm-60.457-54.766-31.891 21.109-0.60547 0.90625-19.043 30.328 5.0898 2.7188s0.50391-0.050781 0.60547-0.050781c0.50391 0 0.85547 0.050781 1.1094 0.15234 1.6641 0.45312 2.7695 1.9648 2.7695 3.6289v57.184h24.434v-28.668c0-2.0664 1.7109-3.7773 3.7773-3.7773h27.406c2.0664 0 3.7773 1.7148 3.7773 3.7773v28.668h24.484v-57.18c0-1.6641 1.1602-3.1758 2.7695-3.6289 0.30078-0.10156 0.70703-0.15234 1.0586-0.15234h0.30078l0.65625-0.10156 4.7344-2.5703-19.648-31.336zm9.8242 64.086c-2.0664 0-3.7773-1.7148-3.7773-3.7773 0-0.90625-0.75391-1.6641-1.6133-1.6641h-8.918c-0.90625 0-1.6641 0.75391-1.6641 1.6641 0 2.0664-1.7109 3.7773-3.7773 3.7773s-3.7773-1.7148-3.7773-3.7773c0-5.0898 4.1328-9.2188 9.2188-9.2188h8.918c5.0391 0 9.168 4.1328 9.168 9.2188 0 2.0625-1.7148 3.7773-3.7773 3.7773zm-19.801 51.891h19.852v-24.887h-19.852zm0-24.887v24.887h19.852v-24.887zm41.766-70.082-31.789-21.008-31.891 21.109-0.60547 0.90625-19.043 30.328 5.0898 2.7188s0.50391-0.050781 0.60547-0.050781c0.50391 0 0.85547 0.050781 1.1094 0.15234 1.6641 0.45312 2.7695 1.9648 2.7695 3.6289v57.184h24.434v-28.668c0-2.0664 1.7109-3.7773 3.7773-3.7773h27.406c2.0664 0 3.7773 1.7148 3.7773 3.7773v28.668h24.484v-57.18c0-1.6641 1.1602-3.1758 2.7695-3.6289 0.30078-0.10156 0.70703-0.15234 1.0586-0.15234h0.30078l0.65625-0.10156 4.7344-2.5703zm-21.965 43.078c-2.0664 0-3.7773-1.7148-3.7773-3.7773 0-0.90625-0.75391-1.6641-1.6133-1.6641h-8.918c-0.90625 0-1.6641 0.75391-1.6641 1.6641 0 2.0664-1.7109 3.7773-3.7773 3.7773s-3.7773-1.7148-3.7773-3.7773c0-5.0898 4.1328-9.2188 9.2188-9.2188h8.918c5.0391 0 9.168 4.1328 9.168 9.2188 0 2.0625-1.7148 3.7773-3.7773 3.7773zm21.965-43.078-31.789-21.008-31.891 21.109-0.60547 0.90625-19.043 30.328 5.0898 2.7188s0.50391-0.050781 0.60547-0.050781c0.50391 0 0.85547 0.050781 1.1094 0.15234 1.6641 0.45312 2.7695 1.9648 2.7695 3.6289v57.184h24.434v-28.668c0-2.0664 1.7109-3.7773 3.7773-3.7773h27.406c2.0664 0 3.7773 1.7148 3.7773 3.7773v28.668h24.484v-57.18c0-1.6641 1.1602-3.1758 2.7695-3.6289 0.30078-0.10156 0.70703-0.15234 1.0586-0.15234h0.30078l0.65625-0.10156 4.7344-2.5703zm-21.965 43.078c-2.0664 0-3.7773-1.7148-3.7773-3.7773 0-0.90625-0.75391-1.6641-1.6133-1.6641h-8.918c-0.90625 0-1.6641 0.75391-1.6641 1.6641 0 2.0664-1.7109 3.7773-3.7773 3.7773s-3.7773-1.7148-3.7773-3.7773c0-5.0898 4.1328-9.2188 9.2188-9.2188h8.918c5.0391 0 9.168 4.1328 9.168 9.2188 0 2.0625-1.7148 3.7773-3.7773 3.7773zm-19.801 51.891h19.852v-24.887h-19.852zm-68.82-202.93v283.24h157.49l-0.003906-283.24zm139.25 141.72c-0.30078 1.0078-0.95703 1.8633-1.8633 2.3672l-9.1172 4.8359v57.785c0 2.0664-1.6641 3.7773-3.7773 3.7773l-91.445 0.003907c-2.0664 0-3.7773-1.7148-3.7773-3.7773l-0.003906-57.789-9.168-4.8359c-0.90625-0.50391-1.6133-1.3594-1.8633-2.3672-0.25-1.0078-0.10156-2.1172 0.45312-2.9727l22.168-35.316c0.30078-0.50391 0.70703-0.95703 1.2109-1.2578l34.711-22.922c0.60547-0.35156 1.3086-0.55469 2.0664-0.55469 0.70703 0 1.4609 0.20312 2.0664 0.60547l34.512 22.773c0.50391 0.30078 0.90625 0.75391 1.2109 1.2578l1.0078 1.7148 21.16 33.703c0.54688 0.85156 0.69922 1.9609 0.44922 2.9688zm-60.457-54.766-31.891 21.109-0.60547 0.90625-19.043 30.328 5.0898 2.7188s0.50391-0.050781 0.60547-0.050781c0.50391 0 0.85547 0.050781 1.1094 0.15234 1.6641 0.45312 2.7695 1.9648 2.7695 3.6289v57.184h24.434v-28.668c0-2.0664 1.7109-3.7773 3.7773-3.7773h27.406c2.0664 0 3.7773 1.7148 3.7773 3.7773v28.668h24.484v-57.18c0-1.6641 1.1602-3.1758 2.7695-3.6289 0.30078-0.10156 0.70703-0.15234 1.0586-0.15234h0.30078l0.65625-0.10156 4.7344-2.5703-19.648-31.336zm9.8242 64.086c-2.0664 0-3.7773-1.7148-3.7773-3.7773 0-0.90625-0.75391-1.6641-1.6133-1.6641h-8.918c-0.90625 0-1.6641 0.75391-1.6641 1.6641 0 2.0664-1.7109 3.7773-3.7773 3.7773s-3.7773-1.7148-3.7773-3.7773c0-5.0898 4.1328-9.2188 9.2188-9.2188h8.918c5.0391 0 9.168 4.1328 9.168 9.2188 0 2.0625-1.7148 3.7773-3.7773 3.7773zm-19.801 51.891h19.852v-24.887h-19.852z"/>
</svg>