<?xml version="1.0" encoding="UTF-8"?>
<!-- The Best Svg Icon site in the world: iconSvg.co, Visit us! https://iconsvg.co -->
<svg fill="#000000" width="800px" height="800px" version="1.1" viewBox="144 144 512 512" xmlns="http://www.w3.org/2000/svg">
 <path d="m598.14 438.64c8.2227-9.9453 9.043-24.254 1.7031-35.129l-79.309-117.61c-11.672-17.312-32.93-27.711-53.801-27.773l-16.918-0.050781c-7.7383-20.285-20.441-38.543-37.137-52.926-23.855-20.551-54.355-31.871-85.891-31.871-72.598 0-131.66 59.062-131.66 131.66 0 30.852 10.695 59.238 28.535 81.707v181.93l170.05 58.129 55.82-57.688-0.066406-84.801-19.531 0.003906h-0.003906c-9.7539 0-18.832-4.8281-24.289-12.914l-11.559-17.129 8.7852-5.9297 11.559 17.129c3.4805 5.1602 9.2734 8.2422 15.504 8.2422l113.1 0.070312c12.969 0 25.402-5.1484 34.57-14.316l12.977-12.977-17.008-25.211 8.7852-5.9297zm-225.66-160.44c-11.836-10.891-27.18-16.703-43.43-16.332-32.707 0.74609-59.586 27.438-60.543 60.141-1.0273 35.047 27.18 63.883 62.004 63.883h0.16797c10.766-0.03125 20.914 5.0039 26.934 13.926l10.281 15.242c-13.105 4.9062-26.887 7.4102-41.105 7.4102-65.746 0-119.05-54.266-117.49-120.36 1.4922-63.242 53.855-114.5 117.12-114.7 55.523-0.17188 102.6 37.586 114.85 90.785h-68.785zm-52.254 28.461-36.309 28.238c-0.83984-3.5469-1.3008-7.2383-1.3008-11.039 0-16.895 8.8047-31.762 22.062-40.285zm170.84 48.008-7.918-11.812c-3.875 3.5117-8.9844 5.5664-14.426 5.5664-10.422 0-19.32-7.4219-21.148-17.645l-1.1133-6.2305h37.172l16.242 24.219z"/>
</svg>