<?xml version="1.0" encoding="UTF-8"?>
<!-- The Best Svg Icon site in the world: iconSvg.co, Visit us! https://iconsvg.co -->
<svg fill="#000000" width="800px" height="800px" version="1.1" viewBox="144 144 512 512" xmlns="http://www.w3.org/2000/svg">
 <g>
  <path d="m203.51 541.93h20.77c-0.80078 3.4961-1.2617 7.1211-1.2617 10.859 0 26.871 21.859 48.734 48.734 48.734s48.734-21.863 48.734-48.734c0-3.7383-0.46094-7.3594-1.2617-10.859h161.73c-0.80078 3.4961-1.2617 7.1211-1.2617 10.859 0 26.871 21.859 48.734 48.73 48.734 26.875 0 48.738-21.863 48.738-48.734 0-3.7383-0.46094-7.3594-1.2617-10.859h20.578c2.7852 0 5.0391-2.2539 5.0391-5.0391v-55.598c0-2.7812-2.2539-5.0391-5.0391-5.0391h-1.7695v-272.74c0-2.7812-2.2539-5.0391-5.0391-5.0391l-252.42 0.003906c-2.7852 0-5.0391 2.2539-5.0391 5.0391v69.492h-70.219c-11.219 0-21.398 7.0586-25.328 17.562l-13.922 37.215c-10.824 28.922-16.316 59.246-16.316 90.129v58.348l-2.918-0.007813c-2.7852 0-5.0391 2.2539-5.0391 5.0391l0.003906 55.602c0 2.7812 2.25 5.0352 5.0352 5.0352zm68.242 49.516c-21.312 0-38.656-17.34-38.656-38.656 0-21.316 17.344-38.66 38.656-38.66s38.656 17.344 38.656 38.66c0 21.316-17.344 38.656-38.656 38.656zm256.68 0c-21.312 0-38.656-17.34-38.656-38.656 0-21.316 17.344-38.66 38.656-38.66 21.32 0 38.66 17.344 38.66 38.66 0.003906 21.316-17.34 38.656-38.66 38.656zm63.016-59.59h-19.07c-7.8516-16.41-24.57-27.801-43.945-27.801-19.371 0-36.09 11.391-43.941 27.801h-168.79c-7.8516-16.41-24.566-27.801-43.941-27.801-19.371 0-36.09 11.391-43.941 27.801h-19.262v-45.523h382.89zm-249.15-323.3h242.34v267.7h-242.34zm-110.11 122.76 5.2812-14.117h58.453v57.43l-75.59 0.003906c2.6211-14.715 6.5664-29.191 11.855-43.316zm-15.676 86.594c0-11.156 0.75-22.238 2.2305-33.203h82.215c2.7852 0 5.0391-2.2539 5.0391-5.0391v-67.504c0-2.7812-2.2539-5.0391-5.0391-5.0391h-59.719l4.8711-13.023c2.4648-6.5898 8.8516-11.02 15.891-11.02h70.219v193.18h-115.71z"/>
  <path d="m432.16 426.2c9.3828 3.2539 14.875 7.9688 17.797 15.297 2.082 5.1875 7.3711 8.6562 13.18 8.6562h0.097656c5.7852-0.039063 10.902-3.3984 13.039-8.5625 3.1289-7.5586 8.1836-11.996 16.898-14.84 32.672-10.668 54.625-38.203 54.625-68.527 0-18.355-7.8516-35.91-22.105-49.422-14.887-14.109-35.246-22.426-56.957-23.59 2.5898-23.336 26.609-29.219 27.699-29.473 2.6992-0.62109 4.3984-3.3164 3.7852-6.0234-0.61328-2.7148-3.2852-4.418-6.0312-3.7969-7.1406 1.6211-17.852 6.5078-25.691 15.645v-21.867c0-2.7812-2.2539-5.0391-5.0391-5.0391-2.7852 0-5.0391 2.2539-5.0391 5.0391v21.824c-7.8359-9.1211-18.547-13.988-25.676-15.605-2.7344-0.62109-5.418 1.082-6.0312 3.7969-0.61328 2.7148 1.0859 5.4102 3.7969 6.0273 1.0898 0.24609 25.02 6.0117 27.633 29.43h-0.023437c-41.277 2.2109-75.098 30.805-78.672 66.516-3.25 32.516 17.938 62.457 52.715 74.516zm-42.684-73.508c3.0781-30.812 32.828-55.512 69.184-57.457 1.5977-0.085937 3.1914-0.12891 4.7812-0.12891 21.145 0 41.098 7.5273 55.32 21.008 12.227 11.594 18.961 26.547 18.961 42.109 0 25.949-19.16 49.637-47.68 58.945-11.492 3.7539-18.828 10.289-23.078 20.566-0.57422 1.3867-2.1016 2.3281-3.7969 2.3398h-0.03125c-1.7305 0-3.2656-0.93359-3.8242-2.3203-3.9961-10-11.793-16.895-23.855-21.074-30.281-10.5-48.762-36.215-45.98-63.988z"/>
  <path d="m492.94 385.87c0.96484 0 1.9375-0.27734 2.8047-0.85547 9.668-6.4883 15.891-15.863 17.531-26.395 0.42969-2.7461-1.457-5.3242-4.207-5.75-2.75-0.41016-5.3203 1.457-5.75 4.207-1.1992 7.7188-5.8828 14.672-13.191 19.57-2.3086 1.5508-2.9219 4.6797-1.3711 6.9922 0.96875 1.4492 2.5625 2.2305 4.1836 2.2305z"/>
 </g>
</svg>