<?xml version="1.0" encoding="UTF-8"?>
<!-- The Best Svg Icon site in the world: iconSvg.co, Visit us! https://iconsvg.co -->
<svg fill="#000000" width="800px" height="800px" version="1.1" viewBox="144 144 512 512" xmlns="http://www.w3.org/2000/svg">
 <g>
  <path d="m301.88 285.56c2.7852 0 5.0391-2.2539 5.0391-5.0391v-24.211c0-2.7852-2.2539-5.0391-5.0391-5.0391-2.7852 0-5.0391 2.2539-5.0391 5.0391v24.211c0 2.7852 2.2539 5.0391 5.0391 5.0391z"/>
  <path d="m498.37 285.56c2.7852 0 5.0391-2.2539 5.0391-5.0391v-24.211c0-2.7852-2.2539-5.0391-5.0391-5.0391s-5.0391 2.2539-5.0391 5.0391v24.211c0 2.7852 2.2539 5.0391 5.0391 5.0391z"/>
  <path d="m557.24 535.58c-11.16-18.617-29.707-31.395-50.621-35.43 19.656-31.797 32.168-73.723 40.008-110.52 2.293 1.0273 4.6875 1.8555 7.2109 2.3516 2.1445 0.41797 4.2812 0.62109 6.3906 0.62109 15.598 0 29.562-11.047 32.664-26.918 1.4609-7.4727 0.26562-15.227-3.2734-21.922 5.7969-4.8672 9.8164-11.602 11.277-19.086 2.6133-13.398-3.168-26.766-14.277-34.105 0.57422-1.543 1.0234-3.125 1.3398-4.7344 1.5547-7.9492-0.082032-16.031-4.6094-22.75-4.5273-6.7227-11.398-11.277-19.352-12.828-5.6445-1.1133-11.348-0.57031-16.598 1.4414-3.8828-7.1445-10.074-12.734-17.637-15.781 0.32031-1.8047 0.47656-3.6211 0.47656-5.4375 0.003906-17.645-14.352-32-32-32-17.648 0-32.004 14.355-32.004 32.004 0 1.8164 0.15625 3.6367 0.47656 5.4375-7.5312 3.0508-13.754 8.6445-17.641 15.781-5.2461-2.0078-10.949-2.5469-16.594-1.4414-7.9492 1.5508-14.824 6.1055-19.352 12.828-4.5273 6.7227-6.1641 14.801-4.6094 22.75 0.31641 1.6094 0.76172 3.1875 1.3398 4.7344-4.0547 2.6758-7.375 6.168-9.8594 10.16-2.4844-3.9922-5.8086-7.4844-9.8594-10.164 0.57422-1.543 1.0234-3.125 1.3398-4.7344 1.5547-7.9492-0.082031-16.031-4.6094-22.75-4.5273-6.7227-11.398-11.277-19.352-12.828-5.6445-1.1133-11.348-0.57031-16.598 1.4414-3.8828-7.1445-10.074-12.734-17.637-15.781 0.32031-1.8047 0.47656-3.6211 0.47656-5.4375 0-17.645-14.359-32-32.008-32-17.648 0-32.004 14.355-32.004 32.004 0 1.8164 0.15625 3.6367 0.47656 5.4375-7.5312 3.0508-13.75 8.6445-17.641 15.781-5.2422-2.0078-10.941-2.543-16.594-1.4414-7.9492 1.5508-14.824 6.1055-19.352 12.828-4.5273 6.7227-6.1641 14.801-4.6094 22.75 0.31641 1.6094 0.76172 3.1875 1.3398 4.7344-11.109 7.3398-16.891 20.707-14.277 34.105 1.4609 7.4844 5.4805 14.219 11.277 19.086-3.5391 6.6953-4.7344 14.449-3.2734 21.922 3.1016 15.871 17.066 26.918 32.664 26.918 2.1055 0 4.2461-0.20312 6.3906-0.62109 2.6953-0.52734 5.2539-1.4141 7.6875-2.5508 8.4766 42.293 21.711 90.906 41.18 121.37-8.1758 5.8672-14.992 13.672-19.719 22.945-4.2695-0.87891-8.5469-1.3281-12.754-1.3281-35.328-0.003906-64.07 28.738-64.07 64.07 0 2.7852 2.2539 5.0391 5.0391 5.0391h392.97c2.7852 0 5.0391-2.2539 5.0391-5.0391-0.003906-27.652-18.109-52.402-44.285-60.906zm-250.45-159.04c4.4844 4.3867 10.238 7.5664 16.84 8.8594 6.0156 1.1797 12.094 0.67969 17.781-1.418 0.082032 0.074219 0.17578 0.13281 0.25781 0.20703-6.875 36.051-17.832 77.641-34.879 109.52zm-10.074 116.93c-15.336-29.887-26.223-72.16-33.492-109.16 5.3594 1.7656 11.031 2.1953 16.652 1.0859 6.6016-1.2891 12.355-4.4727 16.84-8.8594zm54.25-103.49c2.0508 0.85156 4.1641 1.5703 6.3906 2.0039 2.1445 0.41797 4.2812 0.62109 6.3906 0.62109 15.598 0 29.562-11.047 32.664-26.918 1.4609-7.4727 0.26563-15.227-3.2734-21.922 2.7188-2.2812 5-5.0039 6.8594-7.9922 1.8555 2.9883 4.1406 5.7109 6.8594 7.9922-3.5391 6.6953-4.7344 14.449-3.2734 21.922 3.1016 15.871 17.066 26.918 32.664 26.918 2.1055 0 4.2461-0.20312 6.3906-0.62109 2.9883-0.58594 5.8398-1.5586 8.5-2.8906 8.1445 37.84 20.422 80.531 38.023 109.87-21.207 0.92969-41.227 10.789-54.848 27.148-16.141-10.32-36.531-12.84-54.801-6.6484-12.133-13.191-29.117-20.684-47.137-20.684-6.3047 0-12.453 0.94141-18.297 2.6797 18.086-32.422 29.625-74.566 36.887-111.48zm152.31-13.434c4.4844 4.3867 10.238 7.5664 16.84 8.8594 5.8086 1.1406 11.68 0.67578 17.195-1.2461-6.9219 33.402-17.672 71.418-34.035 101.59zm-10.078 109c-14.723-28.207-25.34-66.703-32.598-100.96 5.0977 1.5234 10.449 1.8711 15.758 0.82422 6.6016-1.2891 12.355-4.4727 16.84-8.8594zm68.871-225.39c5.3086 1.0391 9.8984 4.0781 12.922 8.5664 3.0195 4.4883 4.1172 9.8828 3.0781 15.191-0.42188 2.1602-1.2148 4.2656-2.3633 6.25-0.70703 1.2227-0.86328 2.6953-0.4375 4.043 0.42969 1.3477 1.4023 2.457 2.6875 3.0508 9.7383 4.4961 15.105 14.98 13.055 25.496-1.2461 6.3828-5.1758 11.988-10.773 15.379-1.2148 0.73828-2.0664 1.9492-2.3359 3.3398-0.26953 1.3984 0.054688 2.8398 0.90625 3.9805 3.918 5.2578 5.4453 11.93 4.2031 18.309-2.4492 12.57-14.672 20.785-27.238 18.336-2.5195-0.49219-4.8945-1.3828-7.0703-2.6328 7.7461-39.59 10.039-71.133 10.219-73.75 0.1875-2.7734-1.9102-5.1797-4.6836-5.3711-2.7422-0.09375-5.1758 1.9102-5.3711 4.6836-0.042969 0.61328-2.1914 30.125-9.3477 68.031-0.15234-0.015625-0.28906-0.09375-0.44141-0.09375-0.76172 0-1.5312 0.17188-2.25 0.53125-4.625 2.3086-9.7266 3.0156-14.773 2.0234-12.562-2.457-20.785-14.672-18.336-27.23 1.2461-6.3828 5.1758-11.988 10.773-15.379 1.2148-0.73828 2.0664-1.9492 2.3359-3.3398 0.26953-1.3984-0.054687-2.8398-0.90625-3.9805-3.9102-5.2539-5.4414-11.926-4.2031-18.309 2.0547-10.516 10.973-18.207 21.684-18.715 1.418-0.070313 2.7422-0.72656 3.6406-1.8203 0.90625-1.0859 1.3086-2.5078 1.1133-3.9102-0.31641-2.2539-0.26172-4.4961 0.16406-6.6719 1.0391-5.3086 4.0781-9.8984 8.5664-12.922 4.4766-3.0234 9.8516-4.1289 15.184-3.0859zm-88.117-16.008c1.3789-0.33984 2.543-1.2344 3.2227-2.4805 0.67969-1.2383 0.80859-2.7109 0.34766-4.0508-0.80859-2.3477-1.2148-4.7461-1.2148-7.1328 0-12.09 9.8359-21.926 21.93-21.926s21.93 9.8359 21.93 21.93c0 2.3867-0.41016 4.7891-1.2148 7.1328-0.45703 1.3398-0.32812 2.8086 0.34766 4.0508 0.67969 1.2461 1.8438 2.1406 3.2227 2.4805 7.0938 1.7344 12.957 6.4062 16.262 12.758-5.3125 4.4453-9.0195 10.426-10.363 17.316-0.31641 1.6133-0.49219 3.2422-0.54297 4.8867-13.055 2.6211-23.438 12.832-26.055 26.234-1.457 7.4766-0.26562 15.23 3.2734 21.922-2.7188 2.2812-5.0039 5.0039-6.8594 7.9922-1.8555-2.9883-4.1406-5.7109-6.8594-7.9922 3.5391-6.6914 4.7266-14.445 3.2734-21.922-2.6172-13.402-13.004-23.609-26.055-26.234-0.050781-1.6445-0.22656-3.2773-0.54297-4.8867-1.3438-6.8945-5.0547-12.879-10.371-17.324 3.3125-6.3477 9.2109-11.027 16.27-12.754zm-55.434 53.109c1.2812-0.59766 2.2578-1.7031 2.6836-3.0508 0.42969-1.3477 0.26953-2.8203-0.4375-4.043-1.1445-1.9844-1.9375-4.0898-2.3633-6.25-1.0391-5.3086 0.058594-10.707 3.0781-15.191 3.0195-4.4883 7.6094-7.5273 12.922-8.5664 1.3086-0.25391 2.6211-0.37891 3.9219-0.37891 3.9883 0 7.8867 1.1797 11.273 3.457 4.4883 3.0195 7.5273 7.6094 8.5664 12.922 0.42188 2.1758 0.47656 4.418 0.16406 6.6719-0.19531 1.4023 0.20703 2.8242 1.1133 3.9102 0.89844 1.0938 2.2227 1.75 3.6406 1.8203 10.711 0.50781 19.625 8.2031 21.684 18.715 1.2383 6.3828-0.28906 13.055-4.2031 18.309-0.85156 1.1406-1.1758 2.582-0.90625 3.9805 0.26953 1.3906 1.1211 2.6016 2.3359 3.3398 5.5977 3.3906 9.5312 9 10.773 15.379 2.4492 12.562-5.7773 24.777-18.336 27.23-5.0469 0.99219-10.148 0.28125-14.773-2.0234-0.45312-0.22656-0.93359-0.35156-1.4102-0.43359-7.3984-37.637-10.578-67.562-10.641-68.203-0.28906-2.7695-2.7344-4.7461-5.5312-4.4961-2.7695 0.28516-4.7812 2.7656-4.4961 5.5312 0.27734 2.6953 3.6055 34.07 11.383 72.766-2.4922 1.6484-5.25 2.8594-8.2461 3.4453-12.594 2.4492-24.781-5.7773-27.238-18.336-1.2461-6.375 0.28516-13.047 4.2031-18.309 0.85156-1.1406 1.1758-2.582 0.90625-3.9805-0.26953-1.3906-1.1211-2.6016-2.3359-3.3398-5.5977-3.3906-9.5312-9-10.773-15.379-2.0625-10.516 3.3047-21 13.043-25.496zm-52.934-37.102c5.3086 1.0391 9.8984 4.0781 12.922 8.5664 3.0195 4.4883 4.1172 9.8828 3.0781 15.191-0.42188 2.1602-1.2148 4.2656-2.3633 6.25-0.70703 1.2227-0.86719 2.6953-0.4375 4.043 0.42969 1.3477 1.4023 2.457 2.6875 3.0508 9.7383 4.4961 15.105 14.98 13.055 25.496-1.2461 6.3828-5.1758 11.988-10.773 15.379-1.2148 0.73828-2.0664 1.9492-2.3359 3.3398-0.26953 1.3984 0.054687 2.8398 0.90625 3.9805 3.918 5.2578 5.4453 11.93 4.2031 18.309-2.4492 12.57-14.68 20.785-27.238 18.336-2.2656-0.44141-4.3945-1.25-6.3867-2.3125 7.2031-39.809 9.3633-71.395 9.5352-74.09 0.17578-2.7734-1.9297-5.1719-4.7031-5.3516-2.7305-0.14453-5.1758 1.9297-5.3516 4.7031-0.039063 0.63281-2.0547 30.094-8.6953 68.148-0.36719-0.082031-0.71875-0.23438-1.0977-0.23438-0.76172 0-1.5312 0.17188-2.25 0.53125-4.625 2.3086-9.7266 3.0156-14.773 2.0234-12.562-2.457-20.785-14.672-18.336-27.23 1.2461-6.3828 5.1758-11.988 10.773-15.379 1.2148-0.73828 2.0664-1.9492 2.3359-3.3398 0.26953-1.3984-0.054688-2.8398-0.90625-3.9805-3.9102-5.2539-5.4414-11.926-4.2031-18.309 2.0547-10.516 10.973-18.207 21.684-18.715 1.418-0.070313 2.7422-0.72656 3.6406-1.8203 0.90625-1.0859 1.3086-2.5078 1.1133-3.9102-0.31641-2.2539-0.26172-4.4961 0.16406-6.6719 1.0391-5.3086 4.0781-9.8984 8.5664-12.922 4.4805-3.0195 9.8516-4.125 15.188-3.082zm-88.121-16.008c1.3789-0.33984 2.543-1.2344 3.2227-2.4805 0.67969-1.2383 0.80859-2.7109 0.34766-4.0508-0.80859-2.3477-1.2148-4.7461-1.2148-7.1328 0.003906-12.09 9.8398-21.926 21.93-21.926 12.094 0 21.93 9.8359 21.93 21.93 0 2.3867-0.41016 4.7891-1.2148 7.1328-0.45703 1.3398-0.32812 2.8086 0.34766 4.0508 0.67969 1.2461 1.8438 2.1406 3.2227 2.4805 7.0938 1.7344 12.957 6.4062 16.262 12.758-5.3125 4.4453-9.0195 10.426-10.363 17.316-0.31641 1.6133-0.49219 3.2422-0.54297 4.8867-13.055 2.6211-23.438 12.832-26.055 26.234-1.457 7.4766-0.26562 15.23 3.2734 21.922-2.7188 2.2812-5 5.0039-6.8594 7.9922-1.8555-2.9883-4.1406-5.7109-6.8594-7.9922 3.5391-6.6914 4.7266-14.445 3.2734-21.922-2.6172-13.402-13.004-23.609-26.055-26.234-0.050781-1.6445-0.22656-3.2773-0.54297-4.8867-1.3438-6.8945-5.0547-12.879-10.371-17.324 3.3125-6.3477 9.2148-11.027 16.27-12.754zm-33.242 137.95c-12.586 2.4492-24.781-5.7773-27.238-18.336-1.2461-6.375 0.28516-13.047 4.2031-18.309 0.85156-1.1406 1.1758-2.582 0.90625-3.9805-0.26953-1.3906-1.1211-2.6016-2.3359-3.3398-5.5977-3.3906-9.5312-9-10.773-15.379-2.0508-10.516 3.3164-21 13.055-25.496 1.2773-0.59766 2.2539-1.7031 2.6797-3.0508 0.42969-1.3477 0.26953-2.8203-0.4375-4.043-1.1445-1.9844-1.9375-4.0898-2.3633-6.25-1.0391-5.3086 0.058594-10.707 3.0781-15.191 3.0195-4.4883 7.6094-7.5273 12.922-8.5664 1.3086-0.25391 2.6211-0.37891 3.9219-0.37891 3.9883 0 7.8867 1.1797 11.273 3.457 4.4883 3.0195 7.5273 7.6094 8.5664 12.922 0.42188 2.1758 0.47656 4.418 0.16406 6.6719-0.19531 1.4023 0.20703 2.8242 1.1133 3.9102 0.89844 1.0938 2.2227 1.75 3.6406 1.8203 10.711 0.50781 19.625 8.2031 21.684 18.715 1.2383 6.3828-0.28906 13.055-4.2031 18.309-0.85156 1.1406-1.1758 2.582-0.90625 3.9805 0.26953 1.3906 1.1211 2.6016 2.3359 3.3398 5.5977 3.3906 9.5312 9 10.773 15.379 2.4492 12.562-5.7773 24.777-18.336 27.23-5.0469 0.99219-10.148 0.28125-14.773-2.0234-0.66797-0.33594-1.3789-0.45312-2.0898-0.47656-6.9062-37.742-9.8984-67.48-9.9648-68.133-0.26562-2.7656-2.75-4.7578-5.5-4.5273-2.7695 0.26953-4.7969 2.7305-4.5273 5.5 0.26953 2.7734 3.4336 34.223 10.746 73.23-2.3281 1.4375-4.875 2.4805-7.6133 3.0156zm-35.445 209.36c2.5547-27.418 25.691-48.961 53.766-48.961 4.6758 0 9.4609 0.66406 14.238 1.9688 2.4336 0.64844 4.9648-0.56641 5.957-2.875 8.5312-19.883 28.016-32.727 49.633-32.727 16.207 0 31.418 7.1914 41.73 19.738 1.3984 1.6992 3.7305 2.3008 5.7695 1.4766 6.4688-2.5938 13.242-3.9141 20.125-3.9141 11.711 0 22.895 3.75 32.34 10.84 1.082 0.8125 2.4336 1.1406 3.7734 0.95312 1.332-0.20312 2.5352-0.92969 3.3242-2.0234 12.328-16.949 32.133-27.07 52.965-27.07 23.59 0 45.465 12.812 57.086 33.438 0.64844 1.1445 1.7227 1.9961 2.9883 2.3672 21.316 6.1719 36.66 25 38.727 46.789z"/>
 </g>
</svg>