<?xml version="1.0" encoding="UTF-8"?>
<!-- The Best Svg Icon site in the world: iconSvg.co, Visit us! https://iconsvg.co -->
<svg fill="#000000" width="800px" height="800px" version="1.1" viewBox="144 144 512 512" xmlns="http://www.w3.org/2000/svg">
 <path d="m509.83 451.39v-1.5117c-0.50391-66-55.922-83.633-88.672-83.633h-0.50391c-15.113 0-27.207-2.0156-32.746-5.543v-1.0078c0-3.5273 0-10.078-3.5273-16.625-1.0078-2.0156-2.0156-3.0234-2.5195-4.5352 4.0312-2.5195 11.586-7.0547 20.152-11.082l4.0312-2.0156c16.625-7.0547 39.297-17.129 35.77-33.754-1.0078-4.0312-3.5273-7.5586-7.5586-9.5742-8.5664-4.0312-23.176-1.0078-36.273 3.5273 0.50391-1.5117 0.50391-3.0234 0.50391-4.5352 0-4.0312-2.0156-7.0547-5.543-9.5742-16.625-10.078-40.305 11.082-46.855 19.648-5.0391 6.5508-17.129 20.656-20.656 24.184-12.09 3.0234-22.168 10.578-32.746 22.168-15.617 16.625-27.711 39.801-20.656 55.418 7.0547 14.609 34.762 20.152 41.816 20.656 3.0234 53.402-2.5195 70.031-2.5195 70.031l-0.50391 1.0078v1.0078c0 1.0078-0.50391 2.5195-1.0078 3.5273-7.5586-0.50391-17.633 1.0078-24.688 7.0547-4.0312 3.5273-6.0469 8.5664-6.0469 14.609 0 4.0312 1.5117 7.5586 4.5352 10.578 6.0469 6.0469 16.625 6.5508 25.191 6.5508h4.0312 2.5195c11.586 0 20.656-12.594 22.672-15.113 4.0312-6.0469 19.648-29.223 29.223-44.84 1.5117 4.5352 4.0312 9.0703 7.0547 12.594 1.5117 2.0156 4.0312 4.5352 6.5508 6.5508-14.609 2.0156-20.152 5.0391-23.68 8.5664-5.0391 4.5352-5.543 10.078-5.543 14.105 0 11.586 8.0625 16.625 12.09 17.633h105.3c11.082 0 15.617-3.5273 18.641-10.078l0.50391-1.0078c3.5273-6.0469 0.50391-12.594-1.5117-18.137-0.50391-1.5117-1.0078-2.5195-1.5117-3.5273 0-0.50391-0.50391-1.0078-0.50391-1.5117 0.50391 0.50391 1.0078 0.50391 1.5117 0.50391 5.0391 2.5195 10.578 5.0391 15.617 5.0391 6.5508 0.50391 13.602-2.0156 18.641-6.5508 3.5273-3.0234 7.5586-9.0703 7.5586-19.145 1.0078-4.5312-1.5117-17.629-18.137-21.66zm-150.64-150.14c5.0391-6.5508 15.617-14.609 22.168-16.121-6.0469 7.5586-22.672 20.656-30.23 25.695 3.0234-3.5273 6.0469-6.5508 8.0625-9.5742zm151.64 182.88c-2.0156 2.0156-5.0391 2.5195-7.5586 2.5195-2.0156 0-6.5508-2.5195-9.5742-4.0312-7.0547-3.0234-12.09-6.0469-17.129-2.5195-5.543 4.0312-7.5586 13.098-5.0391 21.664 0.50391 1.5117 1.0078 3.0234 2.0156 4.5352 0.50391 1.5117 2.0156 4.5352 2.0156 5.543v0.50391c-0.50391 0.50391-0.50391 1.5117-0.50391 1.5117s-1.0078 0.50391-4.5352 0.50391h-102.27c-0.50391-0.50391-0.50391-1.5117-0.50391-2.5195 0-2.5195 0.50391-2.5195 1.0078-3.0234 2.0156-2.0156 11.082-6.5508 48.367-5.543l1.0078-15.113c-17.129-2.0156-26.199-9.0703-30.73-15.113-5.0391-6.0469-7.0547-13.602-6.0469-20.656v-1.0078c0-7.0547-4.0312-10.078-7.5586-10.578-5.543-1.0078-9.5742 2.5195-12.594 11.082-1.5117 4.5352-18.641 30.73-34.258 53.906-2.5195 4.0312-7.5586 8.5664-10.078 8.5664h-3.0234c-10.578 0-16.625-0.50391-18.137-2.0156 0-2.0156 0.50391-3.0234 1.5117-3.5273 2.0156-2.0156 6.5508-3.0234 12.09-3.0234h2.0156c3.5273 0 7.0547-1.0078 10.078-3.5273 4.5352-4.0312 5.543-10.578 6.0469-13.602 1.5117-5.0391 6.0469-25.695 3.0234-79.602-1.0078-10.078-10.578-10.078-14.105-10.078-6.5508 0-26.199-6.0469-28.719-12.09-3.0234-6.5508 3.0234-23.176 17.633-38.793 14.609-15.617 23.68-21.16 42.32-18.137l4.0312 0.50391 2.5195-3.0234s11.586-11.586 31.738-21.16c22.672-10.578 37.785-13.098 41.816-12.09-0.50391 2.5195-6.0469 7.0547-27.207 16.121l-4.5352 4.0312c-19.648 8.5664-29.727 16.121-30.73 21.664-0.50781 3.5273 0.5 5.5391 2.5156 8.5625 0.50391 1.0078 2.0156 3.0234 3.5273 5.543 2.0156 3.0234 1.5117 6.0469 1.5117 9.0703 0 3.5273 0 8.0625 3.5273 11.082 8.0625 7.0547 22.672 10.578 44.336 10.578 7.5586 0 73.555 1.5117 74.059 68.52v2.5195c0 3.0234-1.0078 11.586 9.0703 13.098 7.5586 1.0078 10.078 4.0312 10.078 10.078-0.003906 4.5352-1.0117 7.0547-3.0273 9.0664z"/>
</svg>