<?xml version="1.0" encoding="UTF-8"?>
<!-- The Best Svg Icon site in the world: iconSvg.co, Visit us! https://iconsvg.co -->
<svg fill="#000000" width="800px" height="800px" version="1.1" viewBox="144 144 512 512" xmlns="http://www.w3.org/2000/svg">
 <path d="m384.88 587.92c4.5352 1.5117 9.0703 2.0156 13.602 2.0156 4.5352 0 9.0703-0.50391 13.602-2.0156h0.50391c0.50391 0 1.0078-0.50391 1.5117-0.50391 16.625-6.0469 40.305-21.16 63.48-61.465 23.176-39.801 27.711-89.176 27.711-123.94 0-37.281-5.543-64.488-6.0469-66s-1.5117-3.0234-3.0234-3.5273c-1.5117-0.50391-3.0234-0.50391-4.5352 0-1.0078 0.50391-11.082 6.0469-25.191 16.121l-5.0391-87.16c-2.0156-31.738-28.719-56.93-60.457-56.93-32.242 0-58.441 25.191-60.457 56.93l-7.0547 88.168c-15.113-11.082-26.199-17.129-26.703-17.129-1.5117-1.0078-3.0234-1.0078-4.5352 0-1.5117 0.50391-2.5195 2.0156-3.0234 3.5273 0 1.0078-6.0469 28.719-6.0469 66 0 34.258 4.5352 84.137 27.711 123.94 25.199 42.32 48.879 56.934 63.992 61.969zm84.641-67.004c-8.5664 14.609-17.129 25.695-25.191 33.754 4.5352-16.121 6.0469-41.816-7.5586-81.113-7.0547-20.152-18.137-38.793-30.73-55.418 30.73-37.281 70.031-63.48 84.641-72.547 4.5352 25.188 14.609 113.36-21.16 175.32zm-90.18-132.5c-5.543-5.543-11.082-10.578-16.121-15.113h16.121zm10.074-15.113h24.184v21.16c-4.5352 5.0391-9.5742 10.078-14.105 15.617-3.5273-4.0312-6.5508-8.0625-10.078-11.586zm-38.793-110.84c0.50391-4.5352 1.5117-9.0703 2.5195-13.602h25.695v21.16h-29.223zm73.051 18.137h29.223l1.0078 20.656h-30.73l-0.003906-20.656zm-10.074 20.656h-24.184v-20.656h24.184zm41.312 10.078 1.0078 20.656h-32.242v-20.656zm-3.0234-48.871 0.50391 8.0625h-28.719v-21.16h25.695c1.5117 4.0312 2.5195 8.5664 2.5195 13.098zm-38.289 8.0625h-24.184v-21.16h24.184zm-34.258 10.074v20.656h-31.738l1.5117-20.656zm-32.246 30.734h32.242v20.656h-34.258zm42.32 0h24.184v20.656h-24.184zm24.184 31.234v20.656h-24.184v-20.656zm10.074 30.734h12.594c-4.0312 3.5273-8.0625 7.0547-12.594 11.082zm24.688-10.078h-24.688v-20.656h32.746l1.0078 13.602c-3.0195 2.0195-6.043 4.5391-9.0664 7.0547zm-4.0312-123.93h-20.656v-18.641c8.5664 4.0273 15.621 10.578 20.656 18.641zm-30.73-22.672v22.168h-24.184v-22.168c4.0312-1.0078 8.0625-1.5117 12.09-1.5117 4.0312 0 8.0625 0.50391 12.094 1.5117zm-34.258 3.5234v18.641h-21.16c5.5391-8.0586 12.594-14.105 21.16-18.641zm-34.766 122.43h34.762v20.656h-28.215c-2.5195-2.0156-5.0391-4.0312-7.5586-6.0469zm-36.273 3.0234c21.664 13.602 95.723 63.48 118.9 131.5 14.609 43.328 10.578 68.016 5.0391 81.617-3.5273 8.0625-10.078 14.609-18.137 18.137-1.0078 0.50391-1.5117 0.50391-2.5195 1.0078-0.50391 0-1.0078 0.50391-1.5117 0.50391-7.0547 2.5195-14.609 2.5195-21.664 0-13.602-4.5352-35.266-18.137-57.938-57.434-36.273-61.969-26.199-150.14-22.168-175.33z"/>
</svg>