<?xml version="1.0" encoding="UTF-8"?>
<!-- The Best Svg Icon site in the world: iconSvg.co, Visit us! https://iconsvg.co -->
<svg fill="#000000" width="800px" height="800px" version="1.1" viewBox="144 144 512 512" xmlns="http://www.w3.org/2000/svg">
 <g>
  <path d="m304.48 338.34c0.58984 14.465-4.5117 29.43-14.371 42.141-18.75 24.172-28.664 53.102-28.664 83.656 0 38.094 15.359 73.516 43.25 99.734 26.035 24.469 59.543 37.664 95.176 37.664 2.9922 0 5.9961-0.09375 9.0117-0.28125 67.434-4.1836 122.91-57.578 129.06-124.21 3.3789-36.695-7.7227-72.398-31.266-100.54-8.1875-9.7852-12.195-22.48-11.301-35.754 0.13281-2.0508 0.20703-4.1289 0.20703-6.2188 0-12.516-1.1328-22.965-6.2539-34.875 4.9844-1.2461 8.2031-2.4102 8.6445-2.5742 1.3281-0.5 2.3828-1.5352 2.9062-2.8477 0.52734-1.3203 0.47266-2.793-0.14844-4.0742-15.844-32.586-46.727-55.512-82.375-61.277-0.40234-0.085938-5.7461-1.1875-13.402-1.5898 0.10938-4.1914 1.0156-12.641 6.1172-21.199 1.4219-2.3867 0.64062-5.4805-1.75-6.9062-2.3906-1.4336-5.4805-0.64062-6.9062 1.75-6.25 10.488-7.4062 20.926-7.5391 26.312-4.2266 0.19922-8.7305 0.69922-13.258 1.6719-37.074 7.9688-67.07 30.383-82.312 61.492-0.60156 1.2305-0.67969 2.6562-0.20703 3.9453 0.47266 1.2891 1.4531 2.3281 2.707 2.8789 0.4375 0.19531 3.7422 1.5977 8.9688 3.0781-3.0547 7.0195-4.293 12.859-5.4727 21.301-0.76953 5.5352-1.043 11.164-0.82031 16.715zm79.254-99.566c16.008-3.4375 32.375-0.070312 32.773 0.015625 30.699 4.9688 57.379 23.695 72.434 50.547-11.141 3-37.113 7.8555-57.957-4.4609-1.418-0.83984-3.1602-0.92969-4.6641-0.24609-1.4961 0.6875-2.5664 2.0664-2.8594 3.6914-2.6484 14.762-8.875 34.699-23.465 48.449-14.328-13.512-20.566-33.008-23.281-47.449-0.30078-1.5938-1.3438-2.9453-2.8125-3.6328-0.67969-0.32031-1.4062-0.47656-2.1367-0.47656-0.84766 0-1.6914 0.21094-2.457 0.64062-22.754 12.688-47.758 7.2617-58.312 3.9844 14.551-25.711 40.746-44.184 72.738-51.062zm-15.543 58.879c3.8906 16.25 11.949 36.168 28.625 49.723 0.92578 0.75 2.0508 1.1289 3.1797 1.1289 1.125 0 2.2539-0.37891 3.1797-1.1328 16.941-13.777 25.004-34.062 28.84-50.637 16.488 7.4258 34.246 6.9688 47.203 4.9609 4.6055 9.875 6.293 18.688 6.293 32.84 0 1.8633-0.0625 3.7227-0.1875 5.5508-1.0664 15.867 3.7695 31.098 13.629 42.887 21.809 26.066 32.094 59.145 28.961 93.145-5.6875 61.727-57.125 111.2-119.64 115.07-36.152 2.1992-70.5-10.07-96.668-34.672-25.848-24.285-40.082-57.098-40.082-92.383 0-28.297 9.1797-55.09 26.547-77.477 11.316-14.586 17.172-31.895 16.477-48.734-0.19922-4.9492 0.046875-9.9688 0.73438-14.918 1.1914-8.5273 2.3047-13.57 5.5273-20.434 12.664 2.2031 30.059 2.7188 47.383-4.9219z"/>
  <path d="m310.56 442.29c-2.7852 0-5.0391 2.2539-5.0391 5.0391 0 8.2109 1.0859 16.348 3.2266 24.176 0.61328 2.2383 2.6406 3.7109 4.8555 3.7109 0.44141 0 0.89062-0.058594 1.332-0.17578 2.6875-0.73828 4.2656-3.5078 3.5312-6.1875-1.9102-6.9648-2.875-14.203-2.875-21.52 0.007812-2.7891-2.2461-5.043-5.0312-5.043z"/>
  <path d="m403.02 553.73c1.9766 0 3.9648-0.0625 5.957-0.1875 2.7812-0.17188 4.8906-2.5625 4.7188-5.3398-0.17188-2.7734-2.5977-4.7969-5.3398-4.7188-31.809 1.9141-61.262-13.711-77.133-40.898-1.3984-2.4023-4.4883-3.2109-6.8867-1.8125-2.4062 1.4023-3.2109 4.4883-1.8125 6.8867 16.801 28.789 47.258 46.07 80.496 46.07z"/>
 </g>
</svg>