<?xml version="1.0" encoding="UTF-8"?>
<!-- The Best Svg Icon site in the world: iconSvg.co, Visit us! https://iconsvg.co -->
<svg fill="#000000" width="800px" height="800px" version="1.1" viewBox="144 144 512 512" xmlns="http://www.w3.org/2000/svg">
 <path d="m399.97 231.73h0.03125c1.3945 0 2.7344-0.58203 3.6875-1.6055 0.36719-0.39453 7.9219-8.3477 7.9219-8.3477 7.3359-7.7227 12.418-17.141 14.695-27.23 0.33594-1.4922-0.023438-3.0586-0.98047-4.2539-0.96094-1.1953-2.4062-1.8906-3.9375-1.8906h-42.789c-1.5312 0-2.9805 0.69531-3.9375 1.8906-0.95312 1.1953-1.3164 2.7617-0.98047 4.2539 2.2812 10.098 7.3633 19.512 14.695 27.23 0.10938 0.11328 7.5508 7.9531 7.8906 8.3164 0.95312 1.0391 2.2969 1.6289 3.7031 1.6367zm-14.609-33.254h29.266c-2.2617 5.9922-5.7656 11.566-10.328 16.363 0 0-2.207 2.3242-4.3086 4.5391-2.1016-2.2148-4.3086-4.5391-4.3086-4.5391v-0.003906c-4.5508-4.7969-8.0586-10.367-10.32-16.359zm62.449 290.63h-27.695v-46.039c0-2.6289-1.0352-5.0078-2.6914-6.8008v-189.46c0-1.2148 0.46094-2.3711 1.3008-3.2578l7.4922-7.8867c10.875-11.445 17.984-25.543 20.555-40.77l2.5195-14.887c0.49609-2.9297-0.32031-5.9102-2.2383-8.1836-1.918-2.2695-4.7227-3.5742-7.6992-3.5742h-78.715c-2.9727 0-5.7773 1.3008-7.6992 3.5703-1.918 2.2695-2.7344 5.2539-2.2383 8.1836l2.5195 14.887c2.5742 15.227 9.6797 29.324 20.551 40.766l7.4922 7.8906c0.83984 0.88672 1.3008 2.043 1.3008 3.2578v189.46c-1.6562 1.7969-2.6914 4.1719-2.6914 6.8008v46.035h-27.695c-11.738 0-21.293 9.5547-21.293 21.293v111.28c0 5.5547 4.5195 10.078 10.078 10.078h9.4727c5.5586 0 10.078-4.5234 10.078-10.078v-89.582h6.5703v89.59c0 5.5547 4.5195 10.078 10.078 10.078h9.4727c5.5586 0 10.078-4.5234 10.078-10.078v-89.59h6.5703v89.59c0 5.5547 4.5195 10.078 10.078 10.078h9.4727c5.5547 0 10.078-4.5234 10.078-10.078l-0.003906-89.59h6.5664v89.59c0 5.5547 4.5234 10.078 10.078 10.078h9.4766c5.5547 0 10.078-4.5234 10.078-10.078l-0.003906-111.28c0-11.738-9.5547-21.293-21.293-21.293zm-66.734-260.39c-9.4844-9.9844-15.684-22.262-17.922-35.504v-0.003906l-2.5156-14.887 78.715-0.003907-2.5195 14.887c-2.2383 13.246-8.4336 25.523-17.922 35.512l-7.4922 7.8906c-2.625 2.7617-4.0703 6.3828-4.0703 10.195v186.19h-14.707v-186.19c0-3.8125-1.4453-7.4336-4.0703-10.195zm28.965 214.35v46.035h-20.09l-0.003906-46.035zm48.988 178.61h-9.4766v-89.586c0-5.5547-4.5234-10.078-10.078-10.078h-6.5664c-5.5547 0-10.078 4.5234-10.078 10.078v89.59h-9.4727v-89.59c0-5.5547-4.5195-10.078-10.078-10.078h-6.5703c-5.5586 0-10.078 4.5234-10.078 10.078v89.59h-9.4727l0.003906-89.59c0-5.5547-4.5195-10.078-10.078-10.078h-6.5703c-5.5586 0-10.078 4.5234-10.078 10.078v89.59l-9.4688-0.003906v-111.27c0-6.1836 5.0312-11.219 11.215-11.219h95.629c6.1836 0 11.219 5.0312 11.219 11.219z"/>
</svg>