<?xml version="1.0" encoding="UTF-8"?>
<!-- The Best Svg Icon site in the world: iconSvg.co, Visit us! https://iconsvg.co -->
<svg fill="#000000" width="800px" height="800px" version="1.1" viewBox="144 144 512 512" xmlns="http://www.w3.org/2000/svg">
 <path d="m570.77 341.3-25.586 0.74609v-4.1875l22.523-17.176c3.4609-2.6367 4.125-7.5781 1.4883-11.035-2.6367-3.4609-7.5781-4.125-11.035-1.4883l-23.508 17.926h-126.79v-16.621c12.227-2.1875 22.945-9.4727 29.484-20.035 6.5391-10.562 8.2812-23.406 4.7891-35.328h24.262c4.3477 0 7.8711-3.5234 7.8711-7.8711s-3.5234-7.8711-7.8711-7.8711h-24.031l-6.6133-57.672c-0.45703-3.9766-3.8242-6.9766-7.8242-6.9727h-55.891c-4.0039-0.003906-7.3711 2.9961-7.8281 6.9727l-6.6133 57.672h-24.016c-4.3477 0-7.8711 3.5234-7.8711 7.8711s3.5234 7.8711 7.8711 7.8711h24.254c-3.4805 11.922-1.7344 24.762 4.8047 35.32 6.5391 10.562 17.254 17.848 29.477 20.043v16.656l-126.79 0.003906-23.508-17.926c-3.4492-2.2188-8.0312-1.4141-10.516 1.8516-2.4883 3.2656-2.0508 7.8945 1.0078 10.633l22.523 17.176v4.1875l-25.586-0.74609c-2.0977-0.10547-4.1523 0.65234-5.6797 2.0938-1.5312 1.4414-2.4023 3.4492-2.4219 5.5508-0.12109 4.3438 3.3008 7.9688 7.6445 8.0898l26.039 0.78906v8.1641l-22.145 14.91h0.003906c-1.9023 1.082-3.2617 2.9102-3.7617 5.0391s-0.089844 4.3711 1.1289 6.1836c1.2188 1.8164 3.1367 3.043 5.2969 3.3867 2.1602 0.34375 4.3672-0.22656 6.0898-1.5742l23.082-15.555h36.73v156.09c0 2.0859 0.82812 4.0898 2.3047 5.5664 1.4766 1.4766 3.4766 2.3047 5.5664 2.3047h82.984v76.098c0 4.3477 3.5273 7.875 7.875 7.875s7.8711-3.5273 7.8711-7.875v-76.098h82.984c2.0898 0 4.0938-0.82812 5.5664-2.3047 1.4766-1.4766 2.3086-3.4805 2.3086-5.5664v-156.09h36.73l23.082 15.555c3.6055 2.4141 8.4844 1.4531 10.906-2.1445 2.4219-3.6016 1.4766-8.4805-2.1133-10.914l-22.145-14.91v-8.1641l26.039-0.78906c4.3438-0.12109 7.7656-3.7461 7.6445-8.0898-0.015625-2.1016-0.89062-4.1055-2.4219-5.543s-3.582-2.1914-5.6797-2.0781zm-191.69-151.88h41.832l5.6133 48.902h-53.059zm-7.25 76.848c0-4.2266 0.94922-8.3945 2.7773-12.203h50.777c3.7305 7.7266 3.7344 16.73 0.015625 24.461-3.7188 7.7305-10.758 13.344-19.121 15.25s-17.141-0.10156-23.84-5.457c-6.7031-5.3555-10.598-13.473-10.586-22.051zm-6.0625 260.34v-184.77h68.488v184.77zm-56.629-163.97h-38.574v-20.805h79.508v184.77h-33.062v-156.09c0-2.0898-0.82812-4.0938-2.3047-5.5664-1.4766-1.4766-3.4805-2.3086-5.5664-2.3086zm181.72 0h-0.003906c-4.3438 0-7.8711 3.5273-7.8711 7.875v156.09h-33.016v-184.77h79.508v20.805z"/>
</svg>