<?xml version="1.0" encoding="UTF-8"?>
<!-- The Best Svg Icon site in the world: iconSvg.co, Visit us! https://iconsvg.co -->
<svg fill="#000000" width="800px" height="800px" version="1.1" viewBox="144 144 512 512" xmlns="http://www.w3.org/2000/svg">
 <g>
  <path d="m411.81 261.21c1.8906-1.2305 2.7344-3.5664 2.0625-5.7188-0.66797-2.1523-2.668-3.5938-4.9453-3.5391-8.707 0.20312-16.984-3.7383-21.895-10.629-4.5078-6.3242-5.5508-14.074-2.8555-21.262 0.78125-2.0859 0.10156-4.4375-1.6719-5.7852-1.7734-1.3398-4.2148-1.3672-6.0195-0.050782-6.875 5.0234-15.883 6.3984-24.109 3.6836-7.8438-2.5938-13.676-8.3867-16.004-15.891-0.65234-2.1094-2.6055-3.543-4.8125-3.543s-4.1562 1.4375-4.8125 3.543c-2.3281 7.5039-8.1602 13.297-16.004 15.891-8.2188 2.7109-17.238 1.3398-24.109-3.6836-1.7969-1.3164-4.2422-1.2891-6.0195 0.050782-1.7734 1.3438-2.4531 3.6992-1.6719 5.7852 2.6953 7.1875 1.6523 14.938-2.8555 21.262-4.9062 6.8867-13.117 10.82-21.898 10.629-2.2031-0.054687-4.2734 1.3867-4.9453 3.5391-0.66797 2.1523 0.17578 4.4883 2.0625 5.7188 6.9805 4.5391 10.984 11.719 10.984 19.691 0 7.9688-4.0039 15.148-10.984 19.688-1.8906 1.2305-2.7344 3.5664-2.0625 5.7188 0.67188 2.1562 2.7422 3.7344 4.9453 3.5391 8.7891-0.13281 16.988 3.7422 21.898 10.629 4.5078 6.3242 5.5508 14.074 2.8555 21.266-0.78125 2.082-0.10156 4.4336 1.6719 5.7812 1.7812 1.3438 4.2266 1.3672 6.0234 0.046874 6.875-5.0273 15.879-6.4062 24.109-3.6836 7.8438 2.5938 13.676 8.3867 16.004 15.891 0.65625 2.1094 2.6055 3.543 4.8125 3.543 2.207 0 4.1562-1.4375 4.8125-3.543 2.3281-7.5039 8.1641-13.297 16.004-15.891 8.2188-2.7227 17.23-1.3398 24.109 3.6836 1.8047 1.3203 4.2461 1.2969 6.0195-0.050781 1.7734-1.3438 2.4531-3.6992 1.6719-5.7812-2.6953-7.1875-1.6523-14.941 2.8555-21.266 4.9102-6.8867 13.297-10.746 21.895-10.629 2.2773 0.19531 4.2773-1.3867 4.9453-3.5391 0.66797-2.1523-0.17578-4.4883-2.0625-5.7188-6.9805-4.5391-10.98-11.719-10.98-19.688-0.007813-7.9727 3.9961-15.148 10.977-19.688zm-14.012 40.027c-7.6172 2.2227-14.324 6.8711-18.969 13.387-4.25 5.9609-6.3516 12.809-6.207 19.738-7.4648-2.5156-15.699-2.5898-23.406-0.042969-7.3398 2.4297-13.434 6.8984-17.656 12.777-4.2188-5.8789-10.312-10.348-17.652-12.773-3.8125-1.2617-7.7422-1.8789-11.652-1.8789-4.0039 0-7.9766 0.64844-11.758 1.9219 0.14453-6.9336-1.957-13.777-6.207-19.738-4.6445-6.5156-11.352-11.16-18.973-13.387 4.5195-5.7969 7.0508-12.902 7.0508-20.34s-2.5312-14.547-7.0508-20.344c7.6211-2.2227 14.328-6.875 18.973-13.387 4.25-5.9609 6.3516-12.809 6.207-19.738 7.4648 2.5156 15.699 2.5938 23.41 0.042968 7.3398-2.4258 13.43-6.8945 17.652-12.773 4.2227 5.8789 10.316 10.348 17.656 12.777 7.7109 2.5547 15.941 2.4727 23.406-0.042969-0.14453 6.9336 1.957 13.777 6.207 19.738 4.6445 6.5156 11.348 11.164 18.969 13.387-4.5156 5.7969-7.0469 12.902-7.0469 20.344 0 7.4297 2.5312 14.535 7.0469 20.332z"/>
  <path d="m331.56 236.02c-24.746 0-44.883 20.137-44.883 44.887 0 24.746 20.137 44.883 44.883 44.883 24.75 0 44.887-20.137 44.887-44.883 0-24.754-20.137-44.887-44.887-44.887zm0 79.691c-19.191 0-34.809-15.613-34.809-34.809 0-19.191 15.613-34.809 34.809-34.809 19.191 0 34.809 15.617 34.809 34.809 0 19.195-15.613 34.809-34.809 34.809z"/>
  <path d="m487.77 417.89h75.781c2.7812 0 5.0391-2.2539 5.0391-5.0391v-21.516c0-37.086-30.125-67.262-67.152-67.262h-13.668c-2.7812 0-5.0391 2.2539-5.0391 5.0391v83.738c0 2.7812 2.2578 5.0391 5.0391 5.0391zm5.0391-83.738h8.6289c31.473 0 57.078 25.652 57.078 57.184v16.477h-65.707z"/>
  <path d="m203.51 483.29h15.379v66.938c0 2.7812 2.2539 5.0391 5.0391 5.0391h22.215c2.4102 25.902 24.211 46.254 50.691 46.254 26.48 0 48.285-20.352 50.695-46.25h122.61c2.4102 25.898 24.215 46.25 50.691 46.25s48.281-20.352 50.691-46.25h24.965c2.7812 0 5.0391-2.2539 5.0391-5.0391v-160.8c0-51.844-42.109-94.023-93.867-94.023l-47.199-0.003906c-2.7812 0-5.0391 2.2539-5.0391 5.0391v61.535h-30.188c-2.7812 0-5.0391 2.2539-5.0391 5.0391v31.23l-176.41 0.003906v-31.23c0-2.7812-2.2539-5.0391-5.0391-5.0391h-35.227c-2.7812 0-5.0391 2.2539-5.0391 5.0391v111.24c0.003906 2.7812 2.2578 5.0352 5.0391 5.0352zm93.324 108.15c-22.527 0-40.855-18.363-40.855-40.938 0-22.57 18.328-40.934 40.855-40.934 22.527 0 40.859 18.363 40.859 40.934 0 22.574-18.332 40.938-40.859 40.938zm223.99 0c-22.527 0-40.855-18.363-40.855-40.938 0-22.57 18.328-40.934 40.855-40.934s40.855 18.363 40.855 40.934c0 22.574-18.324 40.938-40.855 40.938zm-55.336-285.96h42.16c46.203 0 83.793 37.656 83.793 83.949v155.77h-19.965c-2.6641-25.641-24.359-45.695-50.652-45.695s-47.988 20.059-50.652 45.695l-122.68-0.003907c-2.6641-25.641-24.359-45.695-50.656-45.695-26.293 0-47.988 20.059-50.652 45.695h-17.215v-61.902h231.49c2.7812 0 5.0391-2.2539 5.0391-5.0391zm-45.301 167.74h-176.41v-28.621h176.42zm35.227-101.16v101.16h-25.148v-101.16zm-35.227 36.27v26.195l-176.41 0.003907v-26.195zm-211.64-36.27h25.148v101.16h-25.148z"/>
 </g>
</svg>