<?xml version="1.0" encoding="UTF-8"?>
<!-- The Best Svg Icon site in the world: iconSvg.co, Visit us! https://iconsvg.co -->
<svg fill="#000000" width="800px" height="800px" version="1.1" viewBox="144 144 512 512" xmlns="http://www.w3.org/2000/svg">
 <g>
  <path d="m579.36 588.93h-8.0625c-1.0078-20.656-16.625-37.785-37.281-40.305v-16.625c7.5586 0 22.168-2.0156 32.242-11.586 13.602-13.602 12.594-36.273 12.594-37.281 0-2.5195-2.0156-4.5352-4.5352-4.5352-1.0078 0-23.68-2.0156-37.785 11.082-3.0234 3.0234-5.543 6.5508-7.0547 10.078-1.5117-3.5273-3.5273-7.0547-6.5508-9.5742-13.602-13.602-36.273-12.594-37.281-12.594-2.5195 0-4.5352 2.0156-4.5352 4.5352 0 1.0078-2.0156 23.68 11.082 37.785 9.5742 10.078 24.184 12.09 31.738 12.594v16.121c-20.656 2.5195-36.273 19.648-37.281 40.305h-44.336c-1.0078-20.656-16.625-37.785-37.281-40.305v-16.625c7.5586 0 22.168-2.0156 32.242-11.586 13.602-13.602 12.594-36.273 12.594-37.281 0-2.5195-2.0156-4.5352-4.5352-4.5352-1.0078 0-23.68-2.0156-37.785 11.082-3.0234 3.0234-5.543 6.5508-7.0547 10.078-1.5117-3.5273-3.5273-7.0547-6.5508-9.5742-13.602-13.602-36.273-12.594-37.281-12.594-2.5195 0-4.5352 2.0156-4.5352 4.5352 0 1.0078-2.0156 23.68 11.082 37.785 9.5742 10.078 24.184 12.09 31.738 12.594v16.121c-20.656 2.5195-36.273 19.648-37.281 40.305h-44.336c-1.0078-20.656-16.625-37.785-37.281-40.305v-16.625c7.5586 0 22.168-2.0156 32.242-11.586 13.602-13.602 12.594-36.273 12.594-37.281 0-2.5195-2.0156-4.5352-4.5352-4.5352-1.0078 0-23.68-2.0156-37.785 11.082-3.0234 3.0234-5.543 6.5508-7.0547 10.078-1.5117-3.5273-3.5273-7.0547-6.5508-9.5742-13.602-13.602-36.273-12.594-37.281-12.594-2.5195 0-4.5352 2.0156-4.5352 4.5352 0 1.0078-2.0156 23.68 11.082 37.785 9.5742 10.078 24.184 12.09 31.738 12.594v16.121c-20.656 2.5195-36.273 19.648-37.281 40.305h-8.0625c-3.0234 0-5.0391 2.0156-5.0391 5.0391 0 3.0234 2.0156 5.0391 5.0391 5.0391h358.21c3.0234 0 5.0391-2.0156 5.0391-5.0391 0.03125-3.0234-1.4805-5.0391-4.5039-5.0391zm-35.77-91.691c7.0547-7.0547 18.641-8.5664 25.191-8.5664-0.50391 6.0469-2.0156 17.633-9.0703 24.688-7.0547 7.0547-18.641 8.5664-25.191 8.5664 0-6.5508 2.0156-17.637 9.0703-24.688zm-44.336 15.617c-7.0547-7.0547-8.5664-18.641-8.5664-25.191 6.0469 0.50391 17.633 2.0156 24.688 9.0703 6.5508 7.0547 8.0625 17.633 8.5664 24.184v1.0078c-6.0469 0-17.637-1.5117-24.688-9.0703zm29.723 45.344c17.129 0 31.234 13.602 32.242 30.73h-64.484c1.0078-17.129 15.113-30.73 32.242-30.73zm-114.36-60.961c7.0547-7.0547 18.641-8.5664 25.191-8.5664-0.50391 6.0469-2.0156 17.633-9.0703 24.688-7.0547 7.0547-18.641 8.5664-25.191 8.5664 0-6.5508 2.0156-17.637 9.0703-24.688zm-44.336 15.617c-7.0547-7.0547-8.5664-18.641-8.5664-25.191 6.5508 0.50391 17.633 2.0156 24.688 9.0703 6.5508 7.0547 8.0625 17.633 8.5664 24.184v1.0078c-6.0469 0-17.633-1.5117-24.688-9.0703zm29.727 45.344c17.129 0 31.234 13.602 32.242 30.73h-64.488c1.0078-17.129 15.113-30.73 32.246-30.73zm-114.37-60.961c7.0547-7.0547 18.641-8.5664 25.191-8.5664-0.50391 6.0469-2.0156 17.633-9.0703 24.688-7.0547 7.0547-18.641 8.5664-25.191 8.5664 0.003906-6.5508 2.0195-17.637 9.0703-24.688zm-44.336 15.617c-7.0547-7.0547-8.5664-18.641-8.5664-25.191 6.5508 0.50391 17.633 2.0156 24.688 9.0703 6.5508 7.0547 8.0625 17.633 8.5664 24.184v1.0078c-6.043 0-17.633-1.5117-24.688-9.0703zm29.727 45.344c17.129 0 31.234 13.602 32.242 30.73h-64.484c1.0039-17.129 15.113-30.73 32.242-30.73z"/>
  <path d="m579.36 448.87h-8.0625c-1.0078-20.656-16.625-37.785-37.281-40.305v-16.625c7.5586 0 22.168-2.0156 32.242-11.586 13.602-13.602 12.594-36.273 12.594-37.281 0-2.5195-2.0156-4.5352-4.5352-4.5352-1.0078 0-23.68-2.0156-37.785 11.082-3.0234 3.0234-5.543 6.5508-7.0547 10.078-1.5117-3.5273-3.5273-7.0547-6.5508-9.5742-13.602-13.602-36.273-12.594-37.281-12.594-2.5195 0-4.5352 2.0156-4.5352 4.5352 0 1.0078-2.0156 23.68 11.082 37.785 9.5742 10.078 24.184 12.09 31.738 12.594v16.121c-20.656 2.5195-36.273 19.648-37.281 40.305h-44.336c-1.0078-20.656-16.625-37.785-37.281-40.305v-16.625c7.5586 0 22.168-2.0156 32.242-11.586 13.602-13.602 12.594-36.273 12.594-37.281 0-2.5195-2.0156-4.5352-4.5352-4.5352-1.0078 0-23.68-2.0156-37.785 11.082-3.0234 3.0234-5.543 6.5508-7.0547 10.078-1.5117-3.5273-3.5273-7.0547-6.5508-9.5742-13.602-13.602-36.273-12.594-37.281-12.594-2.5195 0-4.5352 2.0156-4.5352 4.5352 0 1.0078-2.0156 23.68 11.082 37.785 9.5742 10.078 24.184 12.09 31.738 12.594v16.121c-20.656 2.5195-36.273 19.648-37.281 40.305h-44.336c-1.0078-20.656-16.625-37.785-37.281-40.305v-16.625c7.5586 0 22.168-2.0156 32.242-11.586 13.602-13.602 12.594-36.273 12.594-37.281 0-2.5195-2.0156-4.5352-4.5352-4.5352-1.0078 0-23.68-2.0156-37.785 11.082-3.0234 3.0234-5.543 6.5508-7.0547 10.078-1.5117-3.5273-3.5273-7.0547-6.5508-9.5742-13.602-13.602-36.273-12.594-37.281-12.594-2.5195 0-4.5352 2.0156-4.5352 4.5352 0 1.0078-2.0156 23.68 11.082 37.785 9.5742 10.078 24.184 12.09 31.738 12.594v16.121c-20.656 2.5195-36.273 19.648-37.281 40.305h-8.0625c-3.0234 0-5.0391 2.0156-5.0391 5.0391s2.0156 5.0391 5.0391 5.0391h358.21c3.0234 0 5.0391-2.0156 5.0391-5.0391 0.03125-3.0234-1.4805-5.0391-4.5039-5.0391zm-35.77-91.691c7.0547-7.0547 18.641-8.5664 25.191-8.5664-0.50391 6.5508-2.0156 17.633-9.0703 24.688-7.0547 7.0547-18.641 8.5664-25.191 8.5664 0-6.0469 2.0156-17.637 9.0703-24.688zm-44.336 16.121c-7.0547-7.0547-8.5664-18.641-8.5664-25.191 6.0469 0.50391 17.633 2.0156 24.688 9.0703 6.5508 7.0547 8.0625 17.633 8.5664 24.184v1.0078c-6.0469-0.003907-17.637-2.0156-24.688-9.0703zm29.723 45.344c17.129 0 31.234 13.602 32.242 30.73h-64.484c1.0078-17.129 15.113-30.73 32.242-30.73zm-114.36-61.465c7.0547-7.0547 18.641-8.5664 25.191-8.5664-0.50391 6.5508-2.0156 17.633-9.0703 24.688-7.0547 7.0547-18.641 8.5664-25.191 8.5664 0-6.0469 2.0156-17.637 9.0703-24.688zm-44.336 16.121c-7.0547-7.0547-8.5664-18.641-8.5664-25.191 6.5508 0.50391 17.633 2.0156 24.688 9.0703 6.5508 7.0547 8.0625 17.633 8.5664 24.184v1.0078c-6.0469-0.003907-17.633-2.0156-24.688-9.0703zm29.727 45.344c17.129 0 31.234 13.602 32.242 30.73h-64.488c1.0078-17.129 15.113-30.73 32.246-30.73zm-114.37-61.465c7.0547-7.0547 18.641-8.5664 25.191-8.5664-0.50391 6.5508-2.0156 17.633-9.0703 24.688-7.0547 7.0547-18.641 8.5664-25.191 8.5664 0.003906-6.0469 2.0195-17.637 9.0703-24.688zm-44.336 16.121c-7.0547-7.0547-8.5664-18.641-8.5664-25.191 6.5508 0.50391 17.633 2.0156 24.688 9.0703 6.5508 7.0547 8.0625 17.633 8.5664 24.184v1.0078c-6.043-0.003907-17.633-2.0156-24.688-9.0703zm29.727 45.344c17.129 0 31.234 13.602 32.242 30.73h-64.484c1.0039-17.129 15.113-30.73 32.242-30.73z"/>
  <path d="m579.36 311.83h-8.0625c-1.0078-20.656-16.625-37.785-37.281-40.305v-16.625c7.5586 0 22.168-2.0156 32.242-11.586 13.602-13.602 12.594-36.273 12.594-37.281 0-2.5195-2.0156-4.5352-4.5352-4.5352-1.0078 0-23.68-2.0156-37.785 11.082-3.0234 3.0234-5.543 6.5508-7.0547 10.078-1.5117-3.5273-3.5273-7.0547-6.5508-9.5742-13.602-13.602-36.273-12.594-37.281-12.594-2.5195 0-4.5352 2.0156-4.5352 4.5352 0 1.0078-2.0156 23.68 11.082 37.785 9.5742 10.078 24.184 12.09 31.738 12.594v16.121c-20.656 2.5195-36.273 19.648-37.281 40.305h-44.336c-1.0078-20.656-16.625-37.785-37.281-40.305v-16.625c7.5586 0 22.168-2.0156 32.242-11.586 13.602-13.602 12.594-36.273 12.594-37.281 0-2.5195-2.0156-4.5352-4.5352-4.5352-1.0078 0-23.68-2.0156-37.785 11.082-3.0234 3.0234-5.543 6.5508-7.0547 10.078-1.5117-3.5273-3.5273-7.0547-6.5508-9.5742-13.602-13.602-36.273-12.594-37.281-12.594-2.5195 0-4.5352 2.0156-4.5352 4.5352 0 1.0078-2.0156 23.68 11.082 37.785 9.5742 10.078 24.184 12.09 31.738 12.594v16.121c-20.656 2.5195-36.273 19.648-37.281 40.305h-44.336c-1.0078-20.656-16.625-37.785-37.281-40.305v-16.625c7.5586 0 22.168-2.0156 32.242-11.586 13.602-13.602 12.594-36.273 12.594-37.281 0-2.5195-2.0156-4.5352-4.5352-4.5352-1.0078 0-23.68-2.0156-37.785 11.082-3.0234 3.0234-5.543 6.5508-7.0547 10.078-1.5117-3.5273-3.5273-7.0547-6.5508-9.5742-13.602-13.602-36.273-12.594-37.281-12.594-2.5195 0-4.5352 2.0156-4.5352 4.5352 0 1.0078-2.0156 23.68 11.082 37.785 9.5742 10.078 24.184 12.09 31.738 12.594v16.121c-20.656 2.5195-36.273 19.648-37.281 40.305h-8.0625c-3.0234 0-5.0391 2.0156-5.0391 5.0391 0 3.0234 2.0156 5.0391 5.0391 5.0391h358.21c3.0234 0 5.0391-2.0156 5.0391-5.0391 0.03125-3.0234-1.4805-5.0391-4.5039-5.0391zm-35.77-91.695c7.0547-7.0547 18.641-8.5664 25.191-8.5664-0.50391 6.5508-2.0156 17.633-9.0703 24.688-7.0547 7.0547-18.641 8.5664-25.191 8.5664 0-6.043 2.0156-17.633 9.0703-24.688zm-44.336 16.125c-7.0547-7.0547-8.5664-18.641-8.5664-25.191 6.0469 0.50391 17.633 2.0156 24.688 9.0703 6.5508 7.0547 8.0625 17.633 8.5664 24.184v1.0078c-6.0469-0.003906-17.637-2.0195-24.688-9.0703zm29.723 45.34c17.129 0 31.234 13.602 32.242 30.73l-64.484 0.003907c1.0078-17.129 15.113-30.734 32.242-30.734zm-114.36-61.465c7.0547-7.0547 18.641-8.5664 25.191-8.5664-0.50391 6.5508-2.0156 17.633-9.0703 24.688-7.0547 7.0547-18.641 8.5664-25.191 8.5664 0-6.043 2.0156-17.633 9.0703-24.688zm-44.336 16.125c-7.0547-7.0547-8.5664-18.641-8.5664-25.191 6.5508 0.50391 17.633 2.0156 24.688 9.0703 6.5508 7.0547 8.0625 17.633 8.5664 24.184v1.0078c-6.0469-0.003906-17.633-2.0195-24.688-9.0703zm29.727 45.34c17.129 0 31.234 13.602 32.242 30.73l-64.488 0.003907c1.0078-17.129 15.113-30.734 32.246-30.734zm-114.37-61.465c7.0547-7.0547 18.641-8.5664 25.191-8.5664-0.50391 6.5508-2.0156 17.633-9.0703 24.688-7.0547 7.0547-18.641 8.5664-25.191 8.5664 0.003906-6.043 2.0195-17.633 9.0703-24.688zm-44.336 16.125c-7.0547-7.0547-8.5664-18.641-8.5664-25.191 6.5508 0.50391 17.633 2.0156 24.688 9.0703 6.5508 7.0547 8.0625 17.633 8.5664 24.184v1.0078c-6.043-0.003906-17.633-2.0195-24.688-9.0703zm29.727 45.34c17.129 0 31.234 13.602 32.242 30.73l-64.484 0.003907c1.0039-17.129 15.113-30.734 32.242-30.734z"/>
 </g>
</svg>