<?xml version="1.0" encoding="UTF-8"?>
<!-- The Best Svg Icon site in the world: iconSvg.co, Visit us! https://iconsvg.co -->
<svg fill="#000000" width="800px" height="800px" version="1.1" viewBox="144 144 512 512" xmlns="http://www.w3.org/2000/svg">
 <g>
  <path d="m468.1 388.82c-5.7031-7.5195-8.6602-16.355-8.3164-24.871 0.14453-3.5352-0.03125-7.125-0.51562-10.676-0.62891-4.6094-1.3008-8.0117-2.6797-11.719 2.1289-0.69922 3.4453-1.2734 3.6641-1.3711 1.2383-0.55469 2.1992-1.5898 2.6641-2.8633 0.46875-1.2734 0.39844-2.6836-0.1875-3.9102-9.1133-19.023-26.746-32.848-48.559-38.395l1.3047-10.996c0.023438-0.19531 0.035157-0.39453 0.035157-0.59375 0-8.6328-6.9609-15.66-15.52-15.66-8.5547 0-15.52 7.0273-15.52 15.66 0 0.1875 0.011719 0.37109 0.03125 0.55469l1.2148 10.922c-21.078 4.4609-39.082 18.551-48.5 38.363-0.60156 1.2656-0.64844 2.7266-0.12891 4.0312 0.52344 1.3047 1.5664 2.332 2.875 2.832 0.21094 0.082032 1.4258 0.52734 3.332 1.082-2.543 6.8281-3.1406 13.023-3.1406 20.309 0 1.3359 0.042969 2.6602 0.12891 3.9766 0.51172 7.7383-1.7656 15.125-6.4141 20.809-14.566 17.801-21.434 40.375-19.344 63.57 3.8008 42.168 38.172 75.961 79.949 78.609 1.8672 0.11719 3.7227 0.17578 5.5703 0.17578 21.723-0.003906 42.238-8.1133 58.27-23.16 17.48-16.406 27.508-39.656 27.508-63.781 0.007812-19.32-6.125-37.609-17.723-52.898zm-68.102-110.98c2.918 0 5.3047 2.3672 5.4375 5.332l-1.2031 10.125c-3.1562-0.21094-6.0938-0.16406-8.543 0.015625l-1.125-10.125c0.11719-2.9688 2.5078-5.3477 5.4336-5.3477zm-9.4102 26.277c0.089844-0.023438 9.5-2.0273 18.809 0.015625h-0.003907c17.949 3.9453 32.785 14.23 41.512 28.582-6.9453 1.8359-19.688 3.6719-31.328-2.9727-1.4219-0.80859-3.1406-0.88281-4.6211-0.19141-1.4805 0.6875-2.5352 2.0508-2.8281 3.6562-1.5 8.1523-4.8125 18.98-12.129 26.902-7.4648-8.0742-10.773-19.164-12.238-27.512-0.28906-1.6367-1.3633-3.0273-2.8789-3.7148-0.66406-0.30078-1.375-0.45312-2.082-0.45312-0.90625 0-1.8086 0.24219-2.6094 0.72656-10.609 6.4141-23.73 4.8281-31.027 3.1523 9.0039-14.945 24.039-25.312 41.426-28.191zm60.836 194.04c-15.344 14.402-35.363 21.605-56.305 20.27-36.863-2.3359-67.191-32.195-70.551-69.457-1.8555-20.551 4.2227-40.539 17.105-56.285 6.2695-7.668 9.3516-17.559 8.6719-27.848-0.070312-1.0977-0.10938-2.2031-0.10938-3.3203 0-7.8125 0.82031-12.879 3.043-18.207 7.3672 0.99219 16.844 1.0391 25.945-2.4961 2.5898 10.102 7.6523 21.875 17.551 30.109 0.93359 0.77344 2.0781 1.1641 3.2227 1.1641s2.2891-0.39062 3.2227-1.1641c9.7422-8.1055 14.793-19.656 17.406-29.559 9.4688 3.6719 18.801 3.6055 26.047 2.5195 1.3984 3.3828 2.0078 6.2695 2.6172 10.75 0.40234 2.9648 0.54688 5.9648 0.42969 8.9062-0.44141 10.848 3.2383 21.984 10.352 31.367 10.262 13.52 15.684 29.707 15.684 46.812-0.003906 21.355-8.8711 41.926-24.332 56.438z"/>
  <path d="m453.2 435.08c-2.7812 0-5.0391 2.2539-5.0391 5.0391 0 4.3594-0.5625 8.6797-1.6758 12.84-0.72266 2.6875 0.875 5.4492 3.5664 6.168 0.43359 0.11719 0.875 0.17578 1.3047 0.17578 2.2266 0 4.2617-1.4844 4.8633-3.7383 1.3398-5.0078 2.0195-10.203 2.0195-15.441 0-2.7891-2.2578-5.043-5.0391-5.043z"/>
  <path d="m448.57 462.71c-2.4102-1.3711-5.4922-0.53516-6.875 1.8789-9.2266 16.168-26.398 25.523-44.805 24.316-2.8125-0.20312-5.1719 1.9297-5.3477 4.707-0.17578 2.7773 1.9336 5.1719 4.707 5.3477 1.2578 0.078125 2.5039 0.11719 3.7461 0.11719 20.84 0 39.926-11.062 50.449-29.496 1.3828-2.4102 0.54297-5.4883-1.875-6.8711z"/>
  <path d="m203.51 601.52h392.97c2.7812 0 5.0391-2.2539 5.0391-5.0391v-37.785c0-2.7812-2.2539-5.0391-5.0391-5.0391h-1.5742v-307.32h1.5742c2.7812 0 5.0391-2.2539 5.0391-5.0391v-37.785c0-2.7812-2.2539-5.0391-5.0391-5.0391l-392.97 0.003906c-2.7812 0-5.0391 2.2539-5.0391 5.0391v37.785c0 2.7812 2.2539 5.0391 5.0391 5.0391h1.5742v307.32l-1.5742-0.003906c-2.7812 0-5.0391 2.2539-5.0391 5.0391l0.003906 37.785c0 2.7812 2.2539 5.0391 5.0352 5.0391zm387.93-10.078h-382.89v-27.711h382.89zm-382.89-382.89h382.89v27.711h-382.89zm6.6133 37.785h369.67v307.32h-369.67z"/>
 </g>
</svg>