<?xml version="1.0" encoding="UTF-8"?>
<!-- The Best Svg Icon site in the world: iconSvg.co, Visit us! https://iconsvg.co -->
<svg fill="#000000" width="800px" height="800px" version="1.1" viewBox="144 144 512 512" xmlns="http://www.w3.org/2000/svg">
 <path d="m431.11 452.15h30.844c6.8125 0 12.309 5.6211 12.098 12.48-0.19141 6.2891-5.4023 11.195-11.594 11.68h-48.621c-3.4102 0-6.1719-2.7656-6.1719-6.1719v-18.211h-8.8789v18.211c0 8.3125 6.7344 15.047 15.047 15.047h45.383c8.2227 0 14.887 6.6719 14.883 14.895l-0.046875 65.031c-0.003906 8.332-7.0312 15.023-15.488 14.473-7.7148-0.50391-13.547-7.25-13.547-14.984l0.003906-50.035h-60.332c-12.238 0-23.758-9.7891-23.758-24.355 0-25.977 17.531-75.336 33.754-91.672 4.1523-4.1797 9.6133-6.2773 15.074-6.2773 5.4102 0 10.82 2.0547 14.965 6.168 4.0469 4.0156 6.1211 9.2617 6.2539 14.539 0.074219 0.57812 0.13281 39.184 0.13281 39.184zm36.867-75.73-46.195-14.812c-1.043 2.7109-1.6367 5.6445-1.6367 8.7266 0 13.43 10.887 24.32 24.32 24.32 11.312-0.007812 20.805-7.7578 23.512-18.234zm130.4-105.66h-281.14l-40.562-6.8398 15.809-15.199h-14.434c-4.4531 0-8.8164 1.2695-12.574 3.6523l-12.004 7.6172-2.6445-0.44922 4.4883-10.422c5.8555-13.594-4.1094-28.738-18.914-28.738l-39.562-0.003906 30.199 11.812c5.7422 2.2461 8.4453 8.832 5.9414 14.465l-3.9023 8.7539c-5.7852-1.1172-10.098-0.20312-13.285 4.4297l-38.82 57.637c-4.8398 6.0273-4.918 14.59-0.17969 20.703 4.3477 5.6016 11.754 7.8555 18.484 5.6133l8.1914-2.168 22.852-0.035156 28.34-7.082 36.672 59.566c8.3672 13.594 22.285 22.586 37.82 24.867v106.88h17.715l7.4727-70.844 11.34-23.281c6.4102-16.27 14.449-31.086 22.703-39.398 5.6992-5.7383 13.285-8.8984 21.371-8.8984 1.4766 0 2.9258 0.14062 4.3633 0.34766-1.8203-4.1055-2.8516-8.6367-2.8516-13.406 0-4.0195 0.75391-7.8594 2.0703-11.43l-18.238-5.8477 2.7109-8.4531 16.836 5.4023 22.711-29.727 41.625 13.758 0.13672 36.641 22.035 7.0703-2.7109 8.4531-22.012-7.0586c-3.8711 14.035-16.723 24.391-31.973 24.391-2.2461 0-4.4453-0.23047-6.5703-0.66016 1.1797 3.1289 1.8633 6.4531 1.9492 9.8828h-0.015625c0.03125 0.91797 0.054688 2.7695 0.074219 6.7812l16.469 0.003907 7.1992 9.3867 21.32 25.891v15.984c0 2.9922 2.4219 5.4219 5.4141 5.4219 2.9922 0 5.4141-2.4297 5.4141-5.4219l0.011719-15.84h13.922v15.836c0 2.9922 2.4297 5.4219 5.4141 5.4219 2.9922 0 5.4141-2.4297 5.4141-5.4219v-15.836h16.137l-9.0977 70.852h17.672l17.324-70.773 0.32422-10.926-1.582-19.367 12.312 16.047v85.02h17.715l7.082-99.191-7.082-42.508 7.082-49.152 0.003906-50.035c7.8125 0 14.172 6.3594 14.172 14.172v120.44h14.18v-120.45c0-15.621-12.711-28.336-28.336-28.336z"/>
</svg>