<?xml version="1.0" encoding="UTF-8"?>
<!-- The Best Svg Icon site in the world: iconSvg.co, Visit us! https://iconsvg.co -->
<svg fill="#000000" width="800px" height="800px" version="1.1" viewBox="144 144 512 512" xmlns="http://www.w3.org/2000/svg">
 <g>
  <path d="m297.66 423.61h15.742c4.3477 0 7.8711-3.5234 7.8711-7.8711 0-4.3477-3.5234-7.8711-7.8711-7.8711h-15.742c-4.3477 0-7.875 3.5234-7.875 7.8711 0 4.3477 3.5273 7.8711 7.875 7.8711z"/>
  <path d="m187.45 533.82h36.816c5.9883 12.625 16.547 22.508 29.547 27.637 13 5.1328 27.461 5.1328 40.461 0 12.996-5.1289 23.559-15.012 29.547-27.637h144.48c5.9883 12.625 16.551 22.508 29.547 27.637 13 5.1328 27.461 5.1328 40.461 0 13-5.1289 23.559-15.012 29.547-27.637h60.434c2.0859 0 4.0898-0.83203 5.5664-2.3086 1.4727-1.4766 2.3047-3.4766 2.3047-5.5664v-283.39c0-2.0898-0.83203-4.0898-2.3047-5.5664-1.4766-1.4766-3.4805-2.3047-5.5664-2.3047h-283.39c-4.3477 0-7.8711 3.5234-7.8711 7.8711v23.617h-47.098c-8.5664 0.039063-16.887 2.8594-23.711 8.0391-6.8242 5.1758-11.785 12.426-14.133 20.664l-24.41 85.273c-14.008 4.7695-26.176 13.801-34.801 25.828-8.6211 12.027-13.27 26.449-13.289 41.25v40.715c-7.0586 2.4961-12.512 8.1953-14.703 15.352-2.1875 7.1602-0.85547 14.934 3.5977 20.953 4.4492 6.0195 11.492 9.5703 18.977 9.5742zm86.594 15.742c-10.441 0-20.449-4.1445-27.832-11.527-7.3828-7.3828-11.527-17.395-11.527-27.832s4.1445-20.449 11.527-27.832c7.3828-7.3828 17.391-11.527 27.832-11.527 10.438 0 20.449 4.1445 27.832 11.527 7.3789 7.3828 11.527 17.395 11.527 27.832-0.011719 10.434-4.1641 20.441-11.543 27.82-7.3789 7.3789-17.383 11.527-27.816 11.539zm244.03 0c-10.438 0-20.449-4.1445-27.832-11.527-7.3789-7.3828-11.527-17.395-11.527-27.832s4.1484-20.449 11.527-27.832c7.3828-7.3828 17.395-11.527 27.832-11.527 10.441 0 20.449 4.1445 27.832 11.527 7.3828 7.3828 11.527 17.395 11.527 27.832-0.011719 10.434-4.1602 20.441-11.539 27.82-7.3789 7.3789-17.383 11.527-27.82 11.539zm102.34-31.488h-47.801c0.76172-5.2188 0.76172-10.523 0-15.742h47.801zm0-31.488h-15.742v-15.742h15.742zm-267.65-236.16h267.65v157.44h-267.65zm0 173.18h267.65v31.488h-23.613c-4.3477 0-7.875 3.5273-7.875 7.875v23.617l-21.07-0.003906c-5.9883-12.625-16.547-22.508-29.547-27.641-13-5.1289-27.461-5.1289-40.461 0-12.996 5.1328-23.559 15.016-29.547 27.641h-115.54zm110.78 78.719v0.003907c-0.76172 5.2188-0.76172 10.523 0 15.742h-134.97c0.76172-5.2188 0.76172-10.523 0-15.742zm-200.39-188.93h42.383v31.488h-51.395zm-13.52 47.23h63.773c2.0859 0 4.0898-0.82812 5.5664-2.3047 1.4766-1.4766 2.3047-3.4766 2.3047-5.5664v-47.23c0-2.0898-0.82812-4.0898-2.3047-5.5664-1.4766-1.4766-3.4805-2.3047-5.5664-2.3047h-45.68c1.6367-4.5859 4.6484-8.5547 8.6172-11.371 3.9727-2.8164 8.7148-4.3438 13.582-4.375h47.098v94.465h-86.594c-1.8086 0-3.5938 0.089844-5.3672 0.22266zm-53.738 78.719 15.176 0.003906v15.742h-15.746s0.20312-13.172 0.57422-15.742zm-0.57031 31.492h23.617c2.0898 0 4.0898-0.83203 5.5664-2.3047 1.4766-1.4766 2.3047-3.4805 2.3047-5.5664v-31.488c0-2.0898-0.82812-4.0898-2.3047-5.5664-1.4766-1.4766-3.4766-2.3086-5.5664-2.3086h-18.289c4.4766-9.4141 11.527-17.367 20.336-22.941 8.8086-5.5742 19.016-8.5352 29.441-8.5469h86.594v94.465h-13.199c-5.9883-12.625-16.551-22.508-29.547-27.641-13-5.1289-27.461-5.1289-40.461 0-13 5.1328-23.559 15.016-29.547 27.641h-28.945zm-7.8711 31.488h32.059c-0.76172 5.2188-0.76172 10.523 0 15.742h-32.059c-4.3477 0-7.8711-3.5234-7.8711-7.8711 0-4.3477 3.5234-7.8711 7.8711-7.8711z"/>
  <path d="m274.05 486.59c-6.2656 0-12.27 2.4883-16.699 6.918-4.4297 4.4297-6.918 10.438-6.918 16.699s2.4883 12.27 6.918 16.699c4.4297 4.4297 10.434 6.918 16.699 6.918 6.2617 0 12.27-2.4883 16.699-6.918 4.4297-4.4297 6.918-10.438 6.918-16.699-0.007812-6.2617-2.5-12.266-6.9258-16.691-4.4297-4.4258-10.43-6.918-16.691-6.9258zm0 31.488c-3.1836 0-6.0547-1.918-7.2734-4.8594s-0.54688-6.3281 1.707-8.5781c2.25-2.25 5.6367-2.9258 8.5781-1.707s4.8594 4.0898 4.8594 7.2734c-0.003907 4.3438-3.5273 7.8672-7.8711 7.8711z"/>
  <path d="m518.08 486.59c-6.2617 0-12.27 2.4883-16.699 6.918-4.4297 4.4297-6.918 10.438-6.918 16.699s2.4883 12.27 6.918 16.699c4.4297 4.4297 10.438 6.918 16.699 6.918 6.2656 0 12.27-2.4883 16.699-6.918 4.4297-4.4297 6.918-10.438 6.918-16.699-0.007812-6.2617-2.4961-12.266-6.9258-16.691-4.4258-4.4258-10.43-6.918-16.691-6.9258zm0 31.488c-3.1836 0-6.0547-1.918-7.2734-4.8594s-0.54297-6.3281 1.707-8.5781c2.2539-2.25 5.6367-2.9258 8.5781-1.707s4.8594 4.0898 4.8594 7.2734c-0.003907 4.3438-3.5234 7.8672-7.8711 7.8711z"/>
  <path d="m486.59 281.92c-4.3477 0-7.8711 3.5234-7.8711 7.8711v78.723c0 4.3477 3.5234 7.8711 7.8711 7.8711s7.8711-3.5234 7.8711-7.8711v-78.723c0-2.0859-0.82813-4.0898-2.3047-5.5664-1.4766-1.4766-3.4766-2.3047-5.5664-2.3047z"/>
  <path d="m439.36 281.92c-4.3477 0-7.8711 3.5234-7.8711 7.8711v78.723c0 4.3477 3.5234 7.8711 7.8711 7.8711s7.8711-3.5234 7.8711-7.8711v-78.723c0-2.0859-0.82812-4.0898-2.3047-5.5664-1.4766-1.4766-3.4805-2.3047-5.5664-2.3047z"/>
  <path d="m392.12 281.92c-4.3477 0-7.8711 3.5234-7.8711 7.8711v78.723c0 4.3477 3.5234 7.8711 7.8711 7.8711s7.875-3.5234 7.875-7.8711v-78.723c0-2.0859-0.83203-4.0898-2.3086-5.5664-1.4766-1.4766-3.4766-2.3047-5.5664-2.3047z"/>
  <path d="m533.82 281.92c-4.3477 0-7.875 3.5234-7.875 7.8711v78.723c0 4.3477 3.5273 7.8711 7.875 7.8711 4.3477 0 7.8711-3.5234 7.8711-7.8711v-78.723c0-2.0859-0.82812-4.0898-2.3047-5.5664-1.4766-1.4766-3.4805-2.3047-5.5664-2.3047z"/>
  <path d="m581.05 281.92c-4.3477 0-7.8711 3.5234-7.8711 7.8711v78.723c0 4.3477 3.5234 7.8711 7.8711 7.8711 4.3477 0 7.8711-3.5234 7.8711-7.8711v-78.723c0-2.0859-0.82812-4.0898-2.3047-5.5664-1.4766-1.4766-3.4766-2.3047-5.5664-2.3047z"/>
 </g>
</svg>