<?xml version="1.0" encoding="UTF-8"?>
<!-- The Best Svg Icon site in the world: iconSvg.co, Visit us! https://iconsvg.co -->
<svg fill="#000000" width="800px" height="800px" version="1.1" viewBox="144 144 512 512" xmlns="http://www.w3.org/2000/svg">
 <g>
  <path d="m359.57 286.53c0 22.289 18.137 40.422 40.426 40.422s40.426-18.133 40.426-40.422c0-22.289-18.137-40.426-40.426-40.426s-40.426 18.129-40.426 40.426zm40.426-30.352c16.738 0 30.348 13.613 30.348 30.348 0 16.73-13.613 30.344-30.348 30.344-16.738 0-30.348-13.613-30.348-30.344-0.003906-16.734 13.609-30.348 30.348-30.348z"/>
  <path d="m405.04 225.3v-21.789c0-2.7812-2.2578-5.0391-5.0391-5.0391s-5.0391 2.2578-5.0391 5.0391v21.789c0 2.7812 2.2578 5.0391 5.0391 5.0391 2.7852 0 5.0391-2.2578 5.0391-5.0391z"/>
  <path d="m362.86 212.12c-1.3906-2.4141-4.4805-3.2383-6.8828-1.8438-2.4141 1.3906-3.2344 4.4727-1.8438 6.8828l10.898 18.871c0.9375 1.6172 2.625 2.5195 4.3672 2.5195 0.85156 0 1.7227-0.21484 2.5156-0.67578 2.4141-1.3906 3.2344-4.4727 1.8438-6.8828z"/>
  <path d="m349.5 251.55-18.871-10.898c-2.418-1.3945-5.4922-0.57031-6.8828 1.8438-1.3906 2.4141-0.5625 5.4922 1.8438 6.8828l18.871 10.898c0.79687 0.45703 1.6641 0.67578 2.5156 0.67578 1.7422 0 3.4375-0.90234 4.3672-2.5195 1.3906-2.4141 0.56641-5.4922-1.8438-6.8828z"/>
  <path d="m311.95 286.53c0 2.7812 2.2578 5.0391 5.0391 5.0391h21.793c2.7812 0 5.0391-2.2578 5.0391-5.0391s-2.2578-5.0391-5.0391-5.0391h-21.793c-2.7852 0-5.0391 2.25-5.0391 5.0391z"/>
  <path d="m344.46 312.77-18.871 10.898c-2.4102 1.3906-3.2344 4.4727-1.8438 6.8828 0.9375 1.6172 2.625 2.5195 4.3672 2.5195 0.85156 0 1.7188-0.21484 2.5156-0.67578l18.871-10.898c2.4102-1.3906 3.2344-4.4727 1.8438-6.8828-1.3906-2.4141-4.4727-3.2383-6.8828-1.8438z"/>
  <path d="m355.98 362.77c0.79688 0.45703 1.6641 0.67578 2.5156 0.67578 1.7422 0 3.4375-0.90234 4.3672-2.5195l10.898-18.871c1.3906-2.4102 0.5625-5.4922-1.8438-6.8828-2.418-1.3945-5.4922-0.5625-6.8828 1.8438l-10.898 18.871c-1.3906 2.4141-0.57031 5.4922 1.8438 6.8828z"/>
  <path d="m394.96 347.74v21.789c0 2.7812 2.2578 5.0391 5.0391 5.0391s5.0391-2.2578 5.0391-5.0391v-21.789c0-2.7812-2.2578-5.0391-5.0391-5.0391s-5.0391 2.2578-5.0391 5.0391z"/>
  <path d="m434.97 337.02c-1.3945-2.4141-4.4805-3.2383-6.8828-1.8438-2.4141 1.3906-3.2344 4.4727-1.8438 6.8828l10.898 18.871c0.9375 1.6172 2.625 2.5195 4.3672 2.5195 0.85156 0 1.7227-0.21484 2.5156-0.67578 2.4141-1.3906 3.2344-4.4727 1.8438-6.8828z"/>
  <path d="m450.5 321.5 18.871 10.898c0.79687 0.45703 1.6641 0.67578 2.5156 0.67578 1.7422 0 3.4375-0.90234 4.3672-2.5195 1.3906-2.4141 0.5625-5.4922-1.8438-6.8828l-18.871-10.898c-2.418-1.3945-5.4922-0.5625-6.8828 1.8438s-0.56641 5.4922 1.8438 6.8828z"/>
  <path d="m456.18 286.53c0 2.7812 2.2578 5.0391 5.0391 5.0391h21.793c2.7812 0 5.0391-2.2578 5.0391-5.0391s-2.2578-5.0391-5.0391-5.0391h-21.793c-2.7852 0-5.0391 2.25-5.0391 5.0391z"/>
  <path d="m469.37 240.65-18.871 10.898c-2.4102 1.3906-3.2344 4.4727-1.8438 6.8828 0.9375 1.6172 2.625 2.5195 4.3672 2.5195 0.85156 0 1.7188-0.21484 2.5156-0.67578l18.871-10.898c2.4102-1.3906 3.2344-4.4727 1.8438-6.8828s-4.4688-3.2383-6.8828-1.8438z"/>
  <path d="m444.02 210.27c-2.418-1.3945-5.4922-0.5625-6.8828 1.8438l-10.898 18.871c-1.3906 2.4141-0.5625 5.4922 1.8438 6.8828 0.79688 0.45703 1.6641 0.67578 2.5156 0.67578 1.7422 0 3.4375-0.90234 4.3672-2.5195l10.898-18.871c1.3906-2.4102 0.57031-5.4883-1.8438-6.8828z"/>
  <path d="m596.27 419.46c-1.2109 0.050781-64.773 3.2148-148.3 29.07-125.26-60.809-243.07-66.391-244.25-66.441-2.8398-0.058594-5.1289 2.0469-5.2461 4.8203-0.11719 2.7812 2.0391 5.1289 4.8203 5.2461 1.1289 0.050782 111.01 5.3086 230.63 60.875-15.84 5.2617-32.277 11.34-49.055 18.355-71.887-30.848-137.91-44.332-180.68-50.203-2.7656-0.38672-5.3008 1.5469-5.6797 4.3008-0.37891 2.7539 1.5508 5.3008 4.3008 5.6797 40.375 5.5469 101.79 18.008 169.16 45.762-14.395 6.3789-28.984 13.461-43.602 21.316-39.699-15.473-81.391-27.484-123.92-35.695-2.7266-0.52734-5.375 1.2578-5.8984 3.9883-0.52344 2.7305 1.2578 5.3711 3.9883 5.8984 39.121 7.5508 77.496 18.402 114.24 32.203-12.816 7.25-25.617 15.109-38.301 23.641-23.879-8.6992-48.688-16.258-73.777-22.445-2.6992-0.64844-5.4297 0.98437-6.0977 3.6875-0.66406 2.6992 0.98828 5.4297 3.6875 6.0977 22.375 5.5117 44.488 12.176 65.93 19.734-23.531 16.602-46.535 35.543-68.281 57.207-1.9766 1.9648-1.9805 5.1523-0.015625 7.125 0.98438 0.98828 2.2773 1.4805 3.5664 1.4805 1.2852 0 2.5742-0.48828 3.5586-1.4727 159.25-158.66 387.34-170.07 389.62-170.17 2.7812-0.11719 4.9375-2.4648 4.8203-5.2461-0.10938-2.7695-2.4688-4.918-5.2383-4.8164z"/>
  <path d="m595.79 458.55c-69.953 9.6094-204.61 39.75-320.47 133.66-2.1602 1.7539-2.4922 4.9258-0.74219 7.0898 0.99609 1.2305 2.4492 1.8633 3.9141 1.8633 1.1133 0 2.2383-0.36719 3.168-1.125 113.96-92.367 246.59-122.04 315.5-131.51 2.7539-0.37891 4.6836-2.9219 4.3008-5.6797-0.36719-2.7578-2.918-4.6797-5.668-4.3047z"/>
  <path d="m601.43 503.91c-0.52734-2.7305-3.1602-4.5352-5.8984-3.9883-59.98 11.582-149.46 36.938-235.14 91.977-2.3359 1.5-3.0195 4.6211-1.5156 6.9609 0.96094 1.4961 2.5859 2.3125 4.2422 2.3125 0.93359 0 1.875-0.25781 2.7188-0.80078 84.328-54.168 172.5-79.145 231.6-90.559 2.7305-0.52734 4.5156-3.1719 3.9883-5.9023z"/>
  <path d="m461.3 601.56c0.73438 0 1.4844-0.16016 2.1914-0.50391 41.75-20.234 86.902-36.406 134.2-48.059 2.6992-0.66406 4.3516-3.3945 3.6875-6.0977-0.67188-2.707-3.4023-4.3281-6.0977-3.6875-47.984 11.824-93.805 28.234-136.18 48.777-2.5039 1.2148-3.5508 4.2266-2.3359 6.7305 0.86328 1.7969 2.6602 2.8398 4.5352 2.8398z"/>
 </g>
</svg>