<?xml version="1.0" encoding="UTF-8"?>
<!-- The Best Svg Icon site in the world: iconSvg.co, Visit us! https://iconsvg.co -->
<svg fill="#000000" width="800px" height="800px" version="1.1" viewBox="144 144 512 512" xmlns="http://www.w3.org/2000/svg">
 <g>
  <path d="m436.25 403.51c1.8359-1.3359 2.5547-3.7383 1.75-5.8594-0.80078-2.125-2.9414-3.4297-5.1875-3.2344-15.91 1.5156-29.984 5.2734-42.441 10.297-0.25-28.211-3.9062-125.2-41.074-188.5-6.5156-11.105-17.961-17.73-30.609-17.73-12.648 0-24.094 6.6289-30.613 17.73-37.164 63.305-40.82 160.29-41.07 188.5-12.457-5.0273-26.531-8.7812-42.441-10.297-2.2227-0.19141-4.3867 1.1094-5.1914 3.2383-0.80078 2.125-0.082031 4.5234 1.7578 5.8555 0.5625 0.41016 55.879 41.125 39.254 83.762-11.363 29.141-9.2578 59.535 5.625 81.312 10.289 15.059 31.25 33.008 72.68 33.008 41.43 0 62.391-17.949 72.68-33.008 14.883-21.777 16.988-52.176 5.625-81.312-16.59-42.555 38.695-83.355 39.258-83.762zm-178.48-18.73h14.062c2.7812 0 5.0391-2.2539 5.0391-5.0391 0-2.7812-2.2539-5.0391-5.0391-5.0391h-13.469c0.6875-10.184 1.7422-21.895 3.3359-34.457h14.043c2.7812 0 5.0391-2.2539 5.0391-5.0391 0-2.7812-2.2539-5.0391-5.0391-5.0391h-12.664c1.6289-11.145 3.6953-22.766 6.3242-34.453h14.148c2.7812 0 5.0391-2.2539 5.0391-5.0391 0-2.7812-2.2539-5.0391-5.0391-5.0391h-11.727c2.9648-11.707 6.5195-23.332 10.793-34.457h13.777c2.7812 0 5.0391-2.2539 5.0391-5.0391 0-2.7812-2.2539-5.0391-5.0391-5.0391h-9.6406c3.0234-6.8984 6.3398-13.543 10.012-19.797 4.6875-7.9805 12.883-12.75 21.918-12.75s17.23 4.7656 21.922 12.758c3.6719 6.2539 6.9883 12.898 10.012 19.797h-11.715c-2.7812 0-5.0391 2.2539-5.0391 5.0391 0 2.7812 2.2539 5.0391 5.0391 5.0391h15.852c4.2734 11.125 7.8281 22.75 10.793 34.457h-11.727c-2.7812 0-5.0391 2.2539-5.0391 5.0391 0 2.7812 2.2539 5.0391 5.0391 5.0391h14.145c2.6289 11.691 4.6953 23.312 6.3242 34.453h-12.664c-2.7812 0-5.0391 2.2539-5.0391 5.0391 0 2.7812 2.2539 5.0391 5.0391 5.0391h14.039c1.5938 12.562 2.6484 24.273 3.3359 34.457h-13.465c-2.7812 0-5.0391 2.2539-5.0391 5.0391 0 2.7812 2.2539 5.0391 5.0391 5.0391h14.059c0.57813 11.461 0.6875 20.086 0.69531 24.418-33.711 16.645-53.398 42.391-61.609 55.203-8.207-12.816-27.898-38.559-61.609-55.207 0.011719-4.3359 0.12109-12.961 0.69922-24.422zm129.83 106.15c10.152 26.035 8.4492 52.938-4.5547 71.969-12.793 18.719-35.051 28.613-64.363 28.613s-51.57-9.8945-64.363-28.613c-13-19.027-14.707-45.93-4.5547-71.969 13.664-35.047-11.789-67.18-28.969-83.789 64.66 14.254 93.086 68.902 93.391 69.5 0.85938 1.6914 2.5977 2.7617 4.4961 2.7617h0.007813c1.8984-0.003906 3.6367-1.0703 4.4961-2.7656 0.30078-0.59766 28.566-55.25 93.395-69.504-17.184 16.605-42.648 48.746-28.98 83.797z"/>
  <path d="m310.07 295.71h17.238c2.7812 0 5.0391-2.2539 5.0391-5.0391 0-2.7812-2.2539-5.0391-5.0391-5.0391h-17.238c-2.7812 0-5.0391 2.2539-5.0391 5.0391 0 2.7812 2.2539 5.0391 5.0391 5.0391z"/>
  <path d="m310.07 340.25h17.238c2.7812 0 5.0391-2.2539 5.0391-5.0391 0-2.7812-2.2539-5.0391-5.0391-5.0391h-17.238c-2.7812 0-5.0391 2.2539-5.0391 5.0391 0 2.7812 2.2539 5.0391 5.0391 5.0391z"/>
  <path d="m310.07 384.78h17.238c2.7812 0 5.0391-2.2539 5.0391-5.0391 0-2.7812-2.2539-5.0391-5.0391-5.0391h-17.238c-2.7812 0-5.0391 2.2539-5.0391 5.0391 0 2.7852 2.2539 5.0391 5.0391 5.0391z"/>
  <path d="m310.07 431.92h17.238c2.7812 0 5.0391-2.2539 5.0391-5.0391 0-2.7812-2.2539-5.0391-5.0391-5.0391h-17.238c-2.7812 0-5.0391 2.2539-5.0391 5.0391 0 2.7852 2.2539 5.0391 5.0391 5.0391z"/>
  <path d="m451.73 446.09c0 103.18 25.16 155.49 74.785 155.49s74.785-52.316 74.785-155.49c0-96.02-22.293-139.73-72.141-141.22-2.2773-11.309 0.73047-28.449 2.2461-34.66 0.66016-2.7031-0.99219-5.4297-3.6992-6.0898-2.6992-0.66016-5.4258 0.99219-6.0898 3.6953-0.24219 0.98438-5.1836 21.516-2.6562 37.348-46.406 4.1797-67.23 48.117-67.23 140.93zm74.785-131.21c45.359 0 64.711 39.242 64.711 131.21 0 96.492-21.77 145.41-64.711 145.41-42.938 0-64.711-48.926-64.711-145.41 0-91.969 19.352-131.21 64.711-131.21z"/>
  <path d="m535.65 541.62c0.76562 0 1.543-0.17578 2.2734-0.54297 8.1758-4.1445 14.102-13.445 18.117-28.441 0.72266-2.6875-0.875-5.4531-3.5625-6.168-2.6992-0.72656-5.4531 0.875-6.168 3.5625-3.1445 11.738-7.6172 19.363-12.941 22.062-2.4805 1.2578-3.4727 4.2891-2.2148 6.7734 0.88281 1.7422 2.6562 2.7539 4.4961 2.7539z"/>
  <path d="m551.73 467.71c-0.11719 2.7812 2.0391 5.1289 4.8203 5.2461 0.074219 0.003907 0.14453 0.003907 0.21875 0.003907 2.6836 0 4.9141-2.1172 5.0273-4.8242 0.25391-6.0156 0.38281-12.48 0.38281-19.211 0-15.738-0.67188-28.711-2.0508-39.664-0.34766-2.7617-2.8867-4.707-5.6289-4.3672-2.7617 0.34766-4.7148 2.8672-4.3672 5.6289 1.3281 10.531 1.9727 23.094 1.9727 38.402-0.003907 6.5938-0.12891 12.914-0.375 18.785z"/>
 </g>
</svg>