<?xml version="1.0" encoding="UTF-8"?>
<!-- The Best Svg Icon site in the world: iconSvg.co, Visit us! https://iconsvg.co -->
<svg fill="#000000" width="800px" height="800px" version="1.1" viewBox="144 144 512 512" xmlns="http://www.w3.org/2000/svg">
 <g>
  <path d="m258.3 266.18c0-4.3477 3.5273-7.875 7.875-7.875 4.3477 0 7.8711 3.5273 7.8711 7.875v7.8711h15.742v-7.8711c0-8.4375-4.5-16.234-11.809-20.453-7.3047-4.2188-16.309-4.2188-23.613 0-7.3086 4.2188-11.809 12.016-11.809 20.453v7.8711h15.742z"/>
  <path d="m321.28 266.18c0-4.3477 3.5234-7.875 7.8711-7.875 4.3477 0 7.875 3.5273 7.875 7.875v7.8711h15.742v-7.8711c0-8.4375-4.5-16.234-11.809-20.453-7.3047-4.2188-16.309-4.2188-23.613 0-7.3086 4.2188-11.809 12.016-11.809 20.453v7.8711h15.742z"/>
  <path d="m258.3 321.28h15.742v15.742h-15.742z"/>
  <path d="m321.28 321.28h15.742v15.742h-15.742z"/>
  <path d="m604.67 526.74v-103.12c-0.011719-9.0703-3.1484-17.859-8.8828-24.887-5.7383-7.0273-13.723-11.859-22.605-13.684v-24.406c-0.019532-18.781-7.4922-36.789-20.773-50.074-13.281-13.281-31.293-20.75-50.074-20.773h-70.848v-23.613c-0.03125-19.375-10.234-37.309-26.867-47.234 16.633-9.9258 26.836-27.859 26.867-47.23v-7.875h-15.746v7.875c-0.011719 10.434-4.1641 20.438-11.543 27.816-7.3789 7.3789-17.383 11.531-27.816 11.543h-157.44c-10.434-0.011718-20.438-4.1641-27.816-11.543s-11.531-17.383-11.543-27.816v-7.875h-15.746v7.875c0.03125 19.371 10.234 37.305 26.867 47.23-16.633 9.9258-26.836 27.859-26.867 47.234v23.617l7.875-0.003907c14.824 0 29.02-5.9922 39.359-16.617v24.688c-8.8711 6.625-14.527 16.695-15.574 27.719-1.0469 11.02 2.6133 21.973 10.078 30.152 7.4648 8.1758 18.039 12.82 29.113 12.781h7.8711v78.719c0.03125 16.137 5.5898 31.773 15.742 44.312v144.62h47.23l0.003906-118.6c2.6094 0.32812 5.2383 0.5 7.8711 0.51953h7.8711v118.08h47.23l0.003907-118.08h71.461c2.2383 15.023 10.555 28.461 23.004 37.164v80.918h47.23v-70.848h15.742v70.848h47.23l0.003906-234.71c4.5898 1.625 8.5625 4.625 11.383 8.5938 2.8164 3.9648 4.3398 8.707 4.3594 13.574v125.95c0.015625 10.438 4.1641 20.441 11.543 27.82 7.3789 7.3789 17.383 11.527 27.82 11.539h7.8711v-23.613c-0.011718-9.0703-3.1484-17.863-8.8828-24.887-5.7383-7.0273-13.723-11.863-22.605-13.688zm-220.42-299.14c8.8867 1.8281 16.867 6.6602 22.602 13.688 5.7383 7.0273 8.875 15.816 8.8867 24.887v7.0859-0.003907c-8.8828-1.8242-16.867-6.6602-22.602-13.688-5.7383-7.0234-8.875-15.812-8.8867-24.883zm0 45.57c10.34 10.625 24.535 16.617 39.359 16.617h-39.359zm-157.44-38.484v-7.875h141.7v62.977h-141.7zm-47.23 38.57v-7.082c0.011719-9.0703 3.1484-17.859 8.8867-24.887 5.7344-7.0273 13.719-11.859 22.602-13.688v7.0859c-0.011718 9.0703-3.1484 17.859-8.8867 24.883-5.7344 7.0273-13.719 11.863-22.602 13.688zm70.848 79.508h-15.742c-8.4375 0-16.234-4.5-20.453-11.809-4.2188-7.3047-4.2188-16.309 0-23.613 4.2188-7.3086 12.016-11.809 20.453-11.809h125.95c8.4375 0 16.234 4.5 20.453 11.809 4.2188 7.3047 4.2188 16.309 0 23.613-4.2188 7.3086-12.016 11.809-20.453 11.809zm39.359 267.65h-15.742v-114.33c0.42578 0.28516 0.89844 0.49609 1.332 0.78906 0.98438 0.62891 2.0078 1.1797 3.0234 1.7617 1.8359 1.0469 3.6992 2.0234 5.6211 2.9062 1.125 0.51172 2.25 0.99219 3.4023 1.4492 0.78906 0.31641 1.5742 0.71484 2.3633 1zm31.488-118.08-7.8711 0.003907c-4.6406-0.027344-9.2617-0.63672-13.754-1.8125-10.68-2.7422-20.281-8.6406-27.551-16.934l-0.054687-0.0625c-8.8398-10.027-13.727-22.93-13.746-36.297v-7.8711h7.875c14.609 0.015625 28.613 5.8281 38.945 16.156 10.328 10.332 16.141 24.336 16.156 38.945zm31.488 118.08h-15.742v-102.34h15.742zm141.7 0h-15.742v-57.418c0.23438 0.070312 0.48047 0.09375 0.71484 0.15625 1.6367 0.46484 3.2969 0.78906 4.9688 1.1016 0.78906 0.15625 1.6367 0.37891 2.4727 0.49609v0.003906c2.5117 0.35938 5.0469 0.54688 7.5859 0.55859zm31.488-70.848h-31.488c-9.0664-0.015625-17.852-3.1562-24.879-8.8906-7.0234-5.7344-11.859-13.715-13.691-22.598h70.059zm31.488 70.848h-15.742v-102.34h15.742zm0-118.08-220.41 0.003907v-7.875c-0.023438-18.781-7.4922-36.789-20.773-50.074-13.285-13.281-31.293-20.75-50.074-20.773h-7.875v-55.102h102.34c11.742 0.074219 22.895-5.125 30.379-14.168s10.512-20.973 8.2422-32.492c-0.14062-0.78906-0.37109-1.4648-0.55078-2.1953-0.38672-1.6016-0.875-3.1797-1.4648-4.7227-0.30859-0.78906-0.63672-1.5742-0.99219-2.2969-0.66797-1.4336-1.4219-2.8242-2.2578-4.168-0.41797-0.66016-0.78906-1.332-1.25-1.9688-0.21875-0.31641-0.39453-0.66797-0.62109-0.97656l94.469 0.003906c0.023437 18.781 7.4922 36.793 20.773 50.074 13.285 13.281 31.293 20.754 50.074 20.773zm-55.102-196.8c14.609 0.015625 28.613 5.8281 38.945 16.156 10.332 10.332 16.141 24.336 16.156 38.945-14.609-0.015625-28.613-5.8242-38.945-16.156-10.328-10.332-16.141-24.336-16.156-38.945zm118.08 266.3c-4.6016-1.6328-8.5859-4.6484-11.402-8.6367-2.8203-3.9883-4.3359-8.75-4.3398-13.633v-6.5273 0.003907c4.6016 1.6328 8.5859 4.6484 11.402 8.6367 2.8203 3.9844 4.3359 8.75 4.3398 13.633z"/>
  <path d="m415.74 415.74c0 14.613 5.8047 28.633 16.141 38.965 10.332 10.336 24.348 16.141 38.965 16.141 14.613 0 28.629-5.8047 38.965-16.141 10.332-10.332 16.137-24.352 16.137-38.965 0-14.613-5.8047-28.629-16.137-38.965-10.336-10.332-24.352-16.141-38.965-16.141-14.609 0.019531-28.617 5.8281-38.945 16.16-10.332 10.328-16.145 24.336-16.16 38.945zm94.465 0c0 10.438-4.1484 20.449-11.527 27.832-7.3828 7.3828-17.395 11.527-27.832 11.527-10.441 0-20.453-4.1445-27.832-11.527-7.3828-7.3828-11.527-17.395-11.527-27.832s4.1445-20.449 11.527-27.832c7.3789-7.3789 17.391-11.527 27.832-11.527 10.434 0.011719 20.438 4.1641 27.816 11.543 7.3789 7.3789 11.531 17.383 11.543 27.816z"/>
  <path d="m372.45 400c-7.3047 0-14.312 2.9023-19.48 8.0664-5.168 5.168-8.0703 12.176-8.0703 19.484 0 7.3086 2.9023 14.316 8.0703 19.48 5.168 5.168 12.176 8.0703 19.48 8.0703 7.3086 0 14.316-2.9023 19.484-8.0703 5.168-5.1641 8.0703-12.172 8.0703-19.48 0-7.3086-2.9023-14.316-8.0703-19.484-5.168-5.1641-12.176-8.0664-19.484-8.0664zm0 39.359c-4.7734 0-9.082-2.8789-10.906-7.2891-1.8281-4.4141-0.82031-9.4922 2.5586-12.871 3.375-3.375 8.457-4.3867 12.867-2.5586 4.4141 1.8281 7.2891 6.1328 7.2891 10.91 0 6.5195-5.2852 11.809-11.809 11.809z"/>
 </g>
</svg>