<?xml version="1.0" encoding="UTF-8"?>
<!-- The Best Svg Icon site in the world: iconSvg.co, Visit us! https://iconsvg.co -->
<svg fill="#000000" width="800px" height="800px" version="1.1" viewBox="144 144 512 512" xmlns="http://www.w3.org/2000/svg">
 <path d="m167.54 406.68 106 66.25-15.113 83.105c-0.41797 2.2969 0.20312 4.6602 1.6992 6.4531s3.7109 2.8281 6.0469 2.8281h31.488c2.8594-0.003906 5.4922-1.5547 6.8789-4.0547l31.434-56.562c1.5-2.7227 2.8164-5.543 3.9336-8.4453 21.855 3.6523 43.969 5.4961 66.125 5.5117 36.332-0.011719 72.5-4.9062 107.52-14.559 7.2031 4.2422 15.102 7.1719 23.328 8.6602l27.551 5.0078-6.9492 55.594-0.003906-0.003906c-0.27734 2.2461 0.41797 4.5 1.918 6.1914 1.4961 1.6953 3.6484 2.6641 5.9102 2.6602h39.359c3.6133-0.003906 6.7617-2.4609 7.6367-5.9688l23.617-94.465h-0.003906c0.80469-3.2227-0.5-6.6094-3.2656-8.4531l-20.113-13.406v-90.254c-0.03125-27.133-10.824-53.141-30.008-72.328-19.184-19.184-45.195-29.977-72.328-30.008h-291.27c-4.3477 0-7.8711 3.5234-7.8711 7.8711-0.054687 16.41 7.3359 31.961 20.098 42.281-2.0039 3.3672-3.8164 6.8398-5.4336 10.406l-9.4453 26.121c-0.95703 2.625-2.5977 4.9492-4.75 6.7344-2.1523 1.7812-4.7383 2.9609-7.5 3.4141l-33.629 5.6055v-0.003906c-3.7969 0.63672-6.5781 3.9258-6.5742 7.7773v39.363c0 2.7109 1.3984 5.2344 3.7031 6.6758zm12.043-39.359 27.047-4.5117c5.5039-0.92188 10.664-3.2891 14.953-6.8594 4.2852-3.5703 7.5469-8.2148 9.4531-13.461l9.25-25.543h-0.003906c1.3164-2.8594 2.7852-5.6445 4.4023-8.3438l0.96875 0.43359c15.285 6.8359 32.977 5.5898 47.152-3.3242 0.27344-0.16406 0.53516-0.34375 0.78906-0.54297l9.0195-7.2578-9.8711-12.266-8.6602 6.9414v0.003907c-9.6719 5.918-21.645 6.6953-32 2.0703l-3.4023-1.5195h0.003906c-10.973-5.0508-18.828-15.094-21.082-26.961h86.246v0.15625c1.7461-0.10547 3.5039-0.15625 5.2734-0.15625h191.09c22.957 0.027344 44.965 9.1562 61.199 25.391s25.367 38.242 25.395 61.199v11.809c0 6.5234-5.2891 11.809-11.809 11.809-6.5234 0-11.809-5.2852-11.809-11.809 0-7.3086-2.9023-14.316-8.0703-19.48-5.168-5.168-12.176-8.0703-19.48-8.0703h-11.809v15.742h11.809c6.5195 0 11.805 5.2891 11.805 11.809 0 7.3086 2.9023 14.316 8.0703 19.484 5.168 5.1641 12.176 8.0664 19.484 8.0664 4.0938-0.023438 8.1289-0.96484 11.809-2.7617v57.867c-0.003906 2.6328 1.3125 5.0898 3.5 6.5508l19.004 12.668-20.781 83.117h-24.293l6.7617-54.129c0.51562-4.1406-2.293-7.9648-6.3984-8.7148l-34.883-6.3438c-12.699-2.3086-24.184-9-32.453-18.91-8.2695-9.9062-12.797-22.406-12.797-35.312v-2.543h-15.742v2.543c-0.003906 18.141 6.9688 35.59 19.477 48.73-50.484 12.254-102.91 14.301-154.2 6.0117 0.57031-3.5117 0.87109-7.0664 0.89844-10.625v-46.66h-15.746v46.66c-0.007813 9.3633-2.3945 18.574-6.9336 26.762l-29.18 52.531h-17.414l14.059-77.312c0.082031-0.46484 0.11719-0.93359 0.10937-1.4062v-47.234h-15.742v31.062l-94.465-59.039z"/>
</svg>