<?xml version="1.0" encoding="UTF-8"?>
<!-- The Best Svg Icon site in the world: iconSvg.co, Visit us! https://iconsvg.co -->
<svg fill="#000000" width="800px" height="800px" version="1.1" viewBox="144 144 512 512" xmlns="http://www.w3.org/2000/svg">
 <path d="m634.34 559.14c-1.8672-0.66406-3.9531-1.3164-6.1914-1.9531l2.6445-12.762c0.70703-3.4102-1.4805-6.7422-4.8867-7.4453-3.4336-0.73828-6.7422 1.4805-7.4453 4.8867l-2.5508 12.32c-1.3125-0.28125-2.6602-0.55469-4.043-0.82812l2.5586-12.328c0.70703-3.4062-1.4805-6.7422-4.8867-7.4453-3.4258-0.74219-6.7422 1.4844-7.4453 4.8867l-2.6289 12.672c-1.332-0.21484-2.7031-0.42578-4.082-0.63672l2.6719-12.871c0.70703-3.4062-1.4805-6.7422-4.8867-7.4453-3.4336-0.73437-6.7422 1.4805-7.4453 4.8867l-2.8359 13.668c-9.7031-1.2617-20.289-2.418-31.66-3.457l0.003906-61.215c0.42578 21.082 19.164 37.469 19.969 38.16 0.94531 0.8125 2.1172 1.2188 3.2852 1.2188 1.1719 0 2.3438-0.41016 3.2852-1.2188 0.81641-0.69922 20.004-17.453 20.004-38.883 0-12.746-3.1172-23.738-8.1758-30.977v-45.742c0-48.555-39.504-88.059-88.059-88.059h-162.8l0.10156-0.58203c2.0391-11.59-0.097656-23.371-5.7852-33.516 24.332-19.582 12.633-44.152 8.2695-51.441-2.0508-3.4336-6.168-5.1367-10.031-4.1367-16.035 4.1484-24.496 13.25-28.586 22.555-3.0117-1.7344-6.3633-2.8008-9.9609-2.8008-4.4727 0-8.8281 1.5625-12.492 4.3984-7.3242-5.6719-17.652-5.6719-24.98 0-3.6641-2.8359-8.0156-4.3984-12.488-4.3984-3.5977 0-6.9492 1.0703-9.9609 2.8008-4.0898-9.3086-12.551-18.406-28.586-22.555-3.832-0.98828-7.9766 0.69922-10.031 4.1367-4.3594 7.293-16.055 31.863 8.2695 51.441-5.6914 10.145-7.8242 21.922-5.7852 33.516l14.723 83.734c2.6875 15.297 12.5 27.797 25.75 34.586v110.1c-7.043 0.72656-13.742 1.5039-20.059 2.3242l-2.8359-13.668c-0.70703-3.4102-4.0469-5.5742-7.4453-4.8867-3.4062 0.70312-5.5938 4.0391-4.8867 7.4453l2.6719 12.871c-1.3789 0.21094-2.7461 0.42188-4.0742 0.63672l-2.6289-12.672c-0.70703-3.4102-4.0508-5.5859-7.4453-4.8867-3.4062 0.70312-5.5938 4.0391-4.8867 7.4453l2.5586 12.328c-1.3828 0.27344-2.7305 0.54688-4.0391 0.82812l-2.5547-12.32c-0.70703-3.4102-4.0508-5.5703-7.4453-4.8867-3.4062 0.70313-5.5938 4.0391-4.8867 7.4453l2.6484 12.762c-2.2344 0.64062-4.3203 1.2891-6.1914 1.9531-3.2773 1.168-4.9883 4.7656-3.8242 8.043 1.1641 3.2773 4.7617 4.9727 8.043 3.8242 5.9219-2.1055 14.027-4.0938 23.957-5.9336 12.629-2.3398 28.242-4.4414 46.082-6.2461 0.64453 0.68359 1.375 1.2969 2.2188 1.793 3.1133 1.8242 6.8516 1.8789 10 0.12109l6.5664-3.6406c0.95703-0.078125 1.9375-0.15625 2.9062-0.23438l6.9961 3.8867c3.1562 1.7461 6.8945 1.6914 10-0.13281 2.0781-1.2227 3.5273-3.1133 4.3047-5.2891 4.9219-0.31641 9.9336-0.61328 15.039-0.89062 0.64844 2.5664 2.2773 4.7852 4.6445 6.1797 3.1094 1.8242 6.8477 1.8789 10 0.12109l8.2305-4.5664 8.2422 4.5742c1.5391 0.85156 3.2109 1.2734 4.8867 1.2734 1.7617 0 3.5195-0.47266 5.1133-1.4062 2.918-1.7188 4.668-4.7031 4.8789-8.0469 18.156-0.50781 36.953-0.77734 56.059-0.77734 15.059 0 29.914 0.17188 44.426 0.49219 0.11719 3.4609 1.9141 6.5625 4.9141 8.332 3.1094 1.8359 6.8477 1.8906 10.008 0.13281l8.2305-4.5703 8.2344 4.5664c3.1445 1.75 6.8867 1.707 9.9961-0.12109 2.5391-1.4961 4.1758-3.9492 4.7148-6.7578 4.9688 0.23438 9.8594 0.48828 14.676 0.75781 0.67969 2.4922 2.2891 4.6367 4.5938 5.9961 3.1133 1.8359 6.8555 1.8906 10.008 0.13281l8.2305-4.5703 8.2344 4.5664c3.1445 1.75 6.8789 1.707 9.9961-0.12109 1.2344-0.72656 2.2031-1.7227 3.0078-2.832 22.391 2.0195 41.762 4.4805 56.887 7.2852 9.9297 1.8398 18.035 3.8281 23.961 5.9336 0.69922 0.24609 1.4102 0.36328 2.1094 0.36328 2.5898 0 5.0195-1.6094 5.9336-4.1875 1.1602-3.2773-0.55078-6.8789-3.8281-8.043zm-74.969-106.77c-4.8672 6.9609-7.9141 17.41-8.1445 29.543v-104.81c5.3125 8.8359 8.1445 18.938 8.1445 29.531zm24.293 46.004v-7.6758c0-2.0859-1.6914-3.7773-3.7773-3.7773s-3.7773 1.6914-3.7773 3.7773v18.809c-0.5625 0.65234-1.1172 1.2852-1.6172 1.8242-0.5-0.53906-1.0586-1.1758-1.625-1.832v-18.805c0-2.0859-1.6914-3.7773-3.7773-3.7773s-3.7773 1.6914-3.7773 3.7773v7.6719c-2.3047-4.5039-4.0391-9.6211-4.0391-15.023 0-17.18 6.9805-30.023 13.219-30.023 6.2383 0 13.215 12.84 13.215 30.023-0.003907 5.4102-1.7383 10.527-4.043 15.031zm-250.61-259.52c5.0156 8.7031 10.066 24.164-5.7227 37.355-3.9727-4.6562-8.6875-8.5-13.895-11.48-0.71484-2.0469-1.6719-3.9336-2.8047-5.6797 2.0586-7.332 7.6758-16.137 22.422-20.195zm-90.27 19.871c3.1875 0 6.2305 1.5977 8.5625 4.5 1.9141 2.3828 5.9375 2.3828 7.8516 0 4.668-5.8047 12.457-5.8086 17.129 0 1.9141 2.3828 5.9375 2.3828 7.8516 0 2.3359-2.9023 5.375-4.5 8.5664-4.5 6.7461 0 12.23 6.9023 12.23 15.391s-5.4844 15.391-12.23 15.391c-3.1914 0-6.2305-1.5977-8.5625-4.5039-0.95703-1.1914-2.4023-1.8828-3.9297-1.8828-1.5273 0-2.9727 0.69141-3.9297 1.8828-4.668 5.8125-12.461 5.8086-17.125 0-1.9141-2.3828-5.9453-2.3828-7.8555 0-2.332 2.9062-5.3711 4.5039-8.5625 4.5039-6.7461 0-12.23-6.9062-12.23-15.391 0.003906-8.4883 5.4883-15.391 12.234-15.391zm-40.312-19.871c14.676 4.043 20.293 12.914 22.367 20.277-1.1094 1.7227-2.043 3.5859-2.7461 5.5977-5.207 2.9805-9.9219 6.8242-13.898 11.48-15.785-13.191-10.738-28.652-5.7227-37.355zm4.1406 77.395c-2.082-11.832 1.2031-23.949 9.0078-33.25 1.5781-1.8789 3.3398-3.5547 5.1914-5.1133 1.6133 12.25 10.805 21.699 21.973 21.699 4.4727 0 8.8281-1.5664 12.488-4.3984 7.3242 5.668 17.656 5.668 24.98 0 3.6641 2.832 8.0195 4.3984 12.492 4.3984 11.168 0 20.359-9.4492 21.973-21.695 1.8477 1.5586 3.6094 3.2305 5.1875 5.1094 7.8047 9.2969 11.09 21.418 9.0078 33.25l-12.039 68.469c-9.5977-9.8281-27.781-16.34-49.113-16.34-21.336 0-39.516 6.5117-49.113 16.34zm14.855 84.332c0.375-10.535 19.266-22.125 46.297-22.125s45.918 11.59 46.297 22.125c-3.4883 18.105-19.625 31.195-38.645 31.195h-15.309c-19.016 0-35.156-13.09-38.641-31.195zm41.336 145.43c-1.5195-0.84766-3.3711-0.84766-4.8906 0l-10.676 5.9219v-17.238h26.246v17.246zm34.816-4.1992c-4.7695 0.25391-9.4492 0.53125-14.059 0.82031v-58.527h14.059zm25.641 4.1992c-0.76172-0.42188-1.6055-0.63281-2.4453-0.63281-0.83984 0-1.6836 0.21094-2.4453 0.63281l-10.676 5.9219v-17.238h26.246v17.246zm121.11-6.3359c-7.0391-0.15234-14.164-0.26563-21.367-0.34375v-8.8203c0-3.4766-2.8203-6.2969-6.2969-6.2969-3.4766 0-6.2969 2.8203-6.2969 6.2969v8.7148c-1.3672-0.007813-2.7461-0.007813-4.1211-0.011719v-8.7031c0-3.4766-2.8203-6.2969-6.2969-6.2969s-6.2969 2.8203-6.2969 6.2969v8.7031c-1.375 0.003906-2.7539 0.003906-4.1211 0.011719v-8.7148c0-3.4766-2.8203-6.2969-6.2969-6.2969-3.4766 0-6.2969 2.8203-6.2969 6.2969v8.8203c-11.191 0.12109-22.195 0.33203-32.961 0.625l-0.003906-55.852h100.36zm25.645 6.332c-1.5234-0.83594-3.375-0.83984-4.8906 0.003906l-10.676 5.9219v-17.238h26.246v17.234zm34.812-4.0625c-4.6133-0.25391-9.3086-0.48828-14.062-0.71094l0.003906-57.129h14.062zm25.645 4.0625c-1.5234-0.83594-3.375-0.83984-4.8906 0.003906l-10.676 5.9219v-17.238h26.246v17.234zm17.281-189c-1.6484-1.5352-4.1133-1.7891-6.0469-0.625-1.9297 1.1719-2.8438 3.4766-2.2422 5.6484 1.1211 4.0625 1.6875 8.1484 1.6875 12.145l0.003906 150.45h-26.246v-40.516c0-5.5547-4.5234-10.078-10.078-10.078h-14.062c-5.5547 0-10.078 4.5234-10.078 10.078l0.003906 40.516h-26.246v-40.516c0-5.5547-4.5234-10.078-10.078-10.078l-100.36-0.003906c-5.5586 0-10.078 4.5234-10.078 10.078v40.516h-26.246v-40.516c0-5.5547-4.5195-10.078-10.078-10.078h-14.059c-5.5586 0-10.078 4.5234-10.078 10.078v40.516h-26.246l0.003907-84.422c4.1172 1.0781 8.4297 1.6602 12.875 1.6602h15.305c24.129 0 44.613-16.875 48.699-40.129l12.848-73.078h164.57c43 0 77.98 34.98 77.98 77.98v37.5c-1.6133-0.56641-3.2969-0.87891-5.0391-0.87891s-3.4219 0.3125-5.0391 0.87891v-37.5c0.007813-18.684-7.8984-36.77-21.684-49.621zm-285.73 48.785c-2.7812 0-5.0391-2.2539-5.0391-5.0352 0-1.0547-0.32422-1.7852-0.58984-2.168-0.26953 0.38281-0.59375 1.1172-0.59375 2.168 0 2.7852-2.2578 5.0352-5.0391 5.0352s-5.0391-2.2539-5.0391-5.0391c0-6.9961 4.6875-12.477 10.668-12.477s10.668 5.4805 10.668 12.477c0.003906 2.7852-2.2539 5.0391-5.0352 5.0391zm6.4453-5.0352c0-6.9961 4.6875-12.477 10.668-12.477s10.668 5.4805 10.668 12.477c0 2.7852-2.2539 5.0391-5.0391 5.0391-2.7812 0-5.0391-2.2539-5.0391-5.0352 0-1.0469-0.32422-1.7852-0.58984-2.168-0.26562 0.38281-0.58984 1.1211-0.58984 2.168 0 2.7852-2.2578 5.0352-5.0391 5.0352-2.7812-0.003907-5.0391-2.2578-5.0391-5.0391zm-23.523-68.133c0 4.4297-3.5898 8.0195-8.0195 8.0195-4.4297 0-8.0195-3.5898-8.0195-8.0195 0-4.4297 3.5898-8.0195 8.0195-8.0195 4.4297 0 8.0195 3.5898 8.0195 8.0195zm45.641 0c0-4.4297 3.5898-8.0195 8.0195-8.0195s8.0195 3.5898 8.0195 8.0195c0 4.4297-3.5898 8.0195-8.0195 8.0195s-8.0195-3.5898-8.0195-8.0195z"/>
</svg>