<?xml version="1.0" encoding="UTF-8"?>
<!-- The Best Svg Icon site in the world: iconSvg.co, Visit us! https://iconsvg.co -->
<svg fill="#000000" width="800px" height="800px" version="1.1" viewBox="144 144 512 512" xmlns="http://www.w3.org/2000/svg">
 <g>
  <path d="m298.36 361.66c-1.043 4.6445-2.0273 9.0312-3.9297 12.324-1.8516 3.1914-5.1172 6.1875-8.5742 9.3594-5.1758 4.7422-11.039 10.117-13.02 17.523-1.8984 7.1055 0.32031 14.223 2.4688 21.105 1.4453 4.6289 2.8125 9.0078 2.8125 12.961 0.003906 3.9531-1.3633 8.332-2.8125 12.961-2.1484 6.8828-4.3672 14.004-2.4688 21.105 1.9766 7.4062 7.8438 12.781 13.02 17.52 3.457 3.1719 6.7266 6.1641 8.5742 9.3633 1.9023 3.293 2.8867 7.6797 3.9375 12.328 1.5977 7.1211 3.2539 14.477 8.5664 19.789 5.3203 5.3203 12.676 6.9727 19.793 8.5703 4.6445 1.043 9.0312 2.0273 12.324 3.9297 3.1914 1.8516 6.1875 5.1172 9.3594 8.5742 4.7422 5.1758 10.117 11.039 17.523 13.02 1.8945 0.50781 3.7891 0.72266 5.6758 0.72266 5.207 0 10.383-1.6172 15.43-3.1914 4.6289-1.4414 9.0078-2.8125 12.961-2.8125 3.9492 0 8.3281 1.3672 12.961 2.8125 6.8789 2.1445 13.996 4.375 21.105 2.4688 7.4102-1.9766 12.781-7.8438 17.523-13.02 3.168-3.457 6.1641-6.7266 9.3594-8.5742 3.293-1.9023 7.6797-2.8867 12.328-3.9375 7.1133-1.5977 14.477-3.2539 19.789-8.5664 5.3203-5.3125 6.9727-12.676 8.5703-19.789 1.043-4.6484 2.0273-9.0391 3.9297-12.328 1.8516-3.1914 5.1172-6.1875 8.5742-9.3594 5.1758-4.7422 11.039-10.117 13.02-17.52 1.8984-7.1055-0.32031-14.223-2.4688-21.105-1.4453-4.6328-2.8125-9.0117-2.8125-12.965 0-3.9453 1.3672-8.3242 2.8125-12.953 2.1484-6.8828 4.3672-14.004 2.4688-21.105-1.9766-7.4102-7.8438-12.781-13.02-17.523-3.457-3.168-6.7266-6.1641-8.5742-9.3594-1.9023-3.293-2.8867-7.6797-3.9375-12.328-1.5977-7.1133-3.2539-14.477-8.5664-19.789-5.3203-5.3125-12.676-6.9648-19.789-8.5664-4.6484-1.0469-9.0391-2.0312-12.328-3.9375-3.1992-1.8516-6.1875-5.1172-9.3633-8.5742-4.7383-5.1758-10.117-11.039-17.52-13.02-7.1094-1.8984-14.23 0.32422-21.105 2.4688-4.6289 1.4453-9.0078 2.8164-12.957 2.8164s-8.3281-1.3672-12.961-2.8125c-6.8828-2.1445-13.996-4.3672-21.105-2.4688-7.4062 1.9766-12.781 7.8438-17.52 13.02-3.1719 3.457-6.1641 6.7266-9.3633 8.5742-3.293 1.9023-7.6797 2.8867-12.328 3.9375-7.1133 1.5977-14.477 3.2539-19.789 8.5664-5.3203 5.3125-6.9727 12.668-8.5742 19.785zm15.695-12.668c3.2461-3.2461 8.8945-4.5156 14.875-5.8594 5.1797-1.168 10.543-2.3711 15.168-5.0469 4.5312-2.6211 8.1953-6.6211 11.742-10.488 4.1758-4.5625 8.1289-8.8711 12.688-10.09 4.2852-1.1406 9.7383 0.55469 15.504 2.3555 5.1523 1.6055 10.477 3.2695 15.969 3.2695s10.812-1.6641 15.965-3.2734c5.7656-1.7969 11.219-3.4883 15.504-2.3555 4.5625 1.2188 8.5117 5.5312 12.688 10.09 3.5469 3.8672 7.2109 7.8672 11.742 10.488 4.625 2.6758 9.9883 3.8828 15.168 5.0469 5.9766 1.3438 11.621 2.6133 14.875 5.8594 3.2461 3.2461 4.5156 8.8945 5.8594 14.875 1.168 5.1797 2.3711 10.543 5.0469 15.168 2.6211 4.5312 6.6211 8.1953 10.484 11.738 4.5664 4.1836 8.875 8.1289 10.098 12.695 1.1445 4.2891-0.55469 9.7383-2.3555 15.504-1.6094 5.1523-3.2734 10.477-3.2734 15.965 0 5.4922 1.6641 10.812 3.2734 15.965 1.8008 5.7656 3.5039 11.219 2.3555 15.504-1.2188 4.5664-5.5312 8.5117-10.098 12.695-3.8633 3.543-7.8633 7.207-10.484 11.738-2.6758 4.625-3.8828 9.9844-5.043 15.168-1.3438 5.9766-2.6133 11.621-5.8633 14.875-3.2461 3.2461-8.8945 4.5156-14.875 5.8594-5.1797 1.168-10.543 2.3711-15.168 5.0469-4.5312 2.6211-8.1953 6.6211-11.738 10.484-4.1836 4.5664-8.1289 8.875-12.695 10.098-4.2891 1.1211-9.7383-0.55469-15.504-2.3555-3.5547-1.1133-7.2031-2.2148-10.926-2.8125v-58.492c29.531-2.5664 52.793-27.387 52.793-57.574 0-2.7852-2.2539-5.0391-5.0391-5.0391-2.7852 0-5.0391 2.2539-5.0391 5.0391 0 24.629-18.742 44.957-42.715 47.48v-62.578c19.172-2.4844 34.043-18.879 34.043-38.719 0-2.7852-2.2539-5.0391-5.0391-5.0391-2.7852 0-5.0391 2.2539-5.0391 5.0391 0 14.273-10.367 26.141-23.965 28.535v-31.094c0-2.7852-2.2539-5.0391-5.0391-5.0391s-5.0391 2.2539-5.0391 5.0391v57.535c-13.598-2.3945-23.965-14.262-23.965-28.535 0-2.7852-2.2539-5.0391-5.0391-5.0391s-5.0391 2.2539-5.0391 5.0391c0 19.84 14.867 36.234 34.043 38.719v62.586c-23.973-2.5273-42.715-22.852-42.715-47.48 0-2.7852-2.2539-5.0391-5.0391-5.0391s-5.0391 2.2539-5.0391 5.0391c0 30.188 23.258 55.008 52.793 57.574v32.047c-3.7227 0.59766-7.3672 1.6992-10.926 2.8086-5.7656 1.8008-11.207 3.4883-15.504 2.3555-4.5664-1.2188-8.5117-5.5312-12.695-10.098-3.543-3.8633-7.207-7.8633-11.738-10.484-4.625-2.6758-9.9844-3.8828-15.168-5.043-5.9727-1.3438-11.621-2.6133-14.875-5.8633-3.2461-3.2539-4.5156-8.8945-5.8594-14.875-1.168-5.1797-2.3711-10.539-5.0469-15.168-2.6211-4.5312-6.6211-8.1953-10.488-11.742-4.5625-4.1758-8.8711-8.1289-10.09-12.688-1.1445-4.2891 0.55469-9.7383 2.3555-15.504 1.6094-5.1523 3.2734-10.477 3.2734-15.965 0-5.4922-1.6641-10.812-3.2734-15.965-1.8008-5.7656-3.5039-11.211-2.3555-15.504 1.2188-4.5664 5.5312-8.5117 10.098-12.695 3.8633-3.543 7.8633-7.207 10.484-11.738 2.6758-4.625 3.8828-9.9844 5.043-15.168 1.3438-5.9727 2.6133-11.621 5.8633-14.875z"/>
  <path d="m285.12 198.48c-2.7852 0-5.0391 2.2539-5.0391 5.0391v16.363h-47.98c-2.7852 0-5.0391 2.2539-5.0391 5.0391v371.57c0 2.7852 2.2539 5.0391 5.0391 5.0391h335.74c2.7852 0 5.0391-2.2539 5.0391-5.0391v-371.57c0-2.7852-2.2539-5.0391-5.0391-5.0391h-47.98v-16.363c0-2.7852-2.2539-5.0391-5.0391-5.0391-2.7852 0-5.0391 2.2539-5.0391 5.0391v16.363h-66.492v-16.363c0-2.7852-2.2539-5.0391-5.0391-5.0391s-5.0391 2.2539-5.0391 5.0391v16.363h-66.488v-16.363c0-2.7852-2.2539-5.0391-5.0391-5.0391s-5.0391 2.2539-5.0391 5.0391v16.363h-66.492v-16.363c0-2.7852-2.25-5.0352-5.0352-5.0352zm71.531 31.477v14.637c-9.6797 2.293-16.926 10.957-16.926 21.324 0 12.109 9.8555 21.957 21.965 21.957s21.957-9.8516 21.957-21.957c0-10.367-7.2422-19.031-16.922-21.324v-14.637h66.488v14.637c-9.6797 2.293-16.926 10.957-16.926 21.324 0 12.109 9.8555 21.957 21.965 21.957s21.965-9.8516 21.965-21.957c0-10.367-7.2461-19.031-16.926-21.324v-14.637h66.492v14.637c-9.6797 2.293-16.926 10.957-16.926 21.324 0 12.109 9.8555 21.957 21.965 21.957 12.109 0 21.957-9.8516 21.957-21.957 0-10.367-7.2422-19.031-16.922-21.324v-14.637h42.941l0.003906 361.49h-325.66v-361.49h42.941v14.637c-9.6797 2.293-16.926 10.957-16.926 21.324 0 12.109 9.8555 21.957 21.965 21.957 12.109 0 21.965-9.8516 21.965-21.957 0-10.367-7.2461-19.031-16.926-21.324v-14.637zm5.0391 24.074c6.5547 0 11.883 5.332 11.883 11.887 0 6.5547-5.3281 11.883-11.883 11.883s-11.887-5.3281-11.887-11.883c0-6.5547 5.332-11.887 11.887-11.887zm76.562 0c6.5547 0 11.887 5.332 11.887 11.887 0 6.5547-5.332 11.883-11.887 11.883s-11.887-5.3281-11.887-11.883c0-6.5547 5.3359-11.887 11.887-11.887zm76.57 0c6.5547 0 11.883 5.332 11.883 11.887 0 6.5547-5.3281 11.883-11.883 11.883-6.5547 0-11.887-5.3281-11.887-11.883 0-6.5547 5.3359-11.887 11.887-11.887zm-229.7 0c6.5547 0 11.887 5.332 11.887 11.887 0 6.5547-5.332 11.883-11.887 11.883-6.5547 0-11.887-5.3281-11.887-11.883 0-6.5547 5.332-11.887 11.887-11.887z"/>
 </g>
</svg>