<?xml version="1.0" encoding="UTF-8"?>
<!-- The Best Svg Icon site in the world: iconSvg.co, Visit us! https://iconsvg.co -->
<svg fill="#000000" width="800px" height="800px" version="1.1" viewBox="144 144 512 512" xmlns="http://www.w3.org/2000/svg">
 <path d="m586.17 198.48h-29.746c-8.4688 0-15.355 6.8867-15.355 15.352v18.223l-282.13 0.003907v-18.223c0-8.4688-6.8906-15.355-15.355-15.355h-29.746c-8.4688 0-15.355 6.8867-15.355 15.352v382.66c0 2.7812 2.2539 5.0391 5.0391 5.0391h50.383c2.7852 0 5.0391-2.2539 5.0391-5.0391v-28.539h282.13l-0.003906 28.539c0 2.7812 2.2539 5.0391 5.0391 5.0391h50.383c2.7852 0 5.0391-2.2539 5.0391-5.0391l-0.003906-382.66c0-8.4648-6.8906-15.352-15.355-15.352zm-327.23 158.88 61.684 38.34v98.383h-61.684zm71.758 44.602 64.27 39.949v52.172h-64.27zm74.344 46.211 73.863 45.91h-73.863zm92.953 45.91-239.05-148.59v-40.086h39.492l242.64 150.81v37.859zm-28.68-188.67v94.348l-64.273-39.949v-54.398zm71.758 0v138.95l-61.684-38.34v-100.61zm-146.11 48.137-77.449-48.137h77.449zm146.11-111.42v53.203h-282.13v-53.203zm-292.21 349.32h-40.305v-377.62c0-2.9102 2.3672-5.2773 5.2773-5.2773h29.746c2.9141 0 5.2812 2.3672 5.2812 5.2773zm10.078-33.578v-53.711h282.13v53.711zm332.51 33.578h-40.305v-377.61c0-2.9141 2.3672-5.2812 5.2812-5.2812h29.746c2.9102 0 5.2773 2.3672 5.2773 5.2773z"/>
</svg>