<?xml version="1.0" encoding="UTF-8"?>
<!-- The Best Svg Icon site in the world: iconSvg.co, Visit us! https://iconsvg.co -->
<svg fill="#000000" width="800px" height="800px" version="1.1" viewBox="144 144 512 512" xmlns="http://www.w3.org/2000/svg">
 <path d="m561.85 229.96c-3.7773-5.0391-11.02-6.2969-16.059-2.5195l-14.168 10.391 18.578-24.875c3.7773-5.0391 2.832-12.281-2.2031-16.059-5.0391-3.7773-12.281-2.832-16.059 2.2031l-18.578 24.875 5.9844-16.688c2.2031-5.9844-0.94531-12.594-6.9258-14.801-5.9844-2.2031-12.594 0.94531-14.801 6.9258l-24.25 65.188c-4.7227-1.2578-9.7617-2.2031-14.801-2.2031h-0.31641-1.8906c-23.617 0.31641-45.656 11.965-59.199 31.172-41.25 58.566-78.09 119.97-110.21 183.89-0.31641 0.62891-0.62891 1.2578-0.94531 1.8906-17.32 34.637-33.691 69.902-48.176 105.8l-0.31641 0.62891c-2.832 6.9258-0.62891 14.484 5.3516 18.895 2.832 2.2031 6.2969 3.1484 9.7617 3.1484s6.9258-1.2578 10.078-3.4648l0.62891-0.31641c51.324-40.934 99.816-85.02 145.48-132.57 0.62891-0.62891 1.5742-1.2578 2.2031-2.2031 30.543-32.117 59.828-65.18 87.535-99.816 14.801-18.578 19.523-42.824 13.227-65.809l-0.62891-1.8906c-1.5742-5.0391-3.7773-9.7617-6.2969-14.168l55.734-41.25c3.7812-3.7812 5.0391-11.023 1.2617-16.379zm-162.48 216.95-20.152-15.113c-5.0391-3.7773-12.281-2.832-16.059 2.2031-3.7773 5.0391-2.832 12.281 2.2031 16.059l17.949 13.227c-36.211 36.84-73.996 72.109-113.99 104.86 9.7617-22.672 20.152-45.344 31.172-67.699l10.391 7.8711c2.2031 1.5742 4.4102 2.2031 6.9258 2.2031 3.4648 0 6.9258-1.5742 9.1328-4.7227 3.7773-5.0391 2.832-12.281-2.2031-16.059l-13.855-10.391c26.766-51.957 56.363-102.34 89.109-150.83l20.781 15.742c2.2031 1.5742 4.4102 2.2031 6.9258 2.2031 3.4648 0 6.9258-1.5742 9.1328-4.7227 3.7773-5.0391 2.832-12.281-2.2031-16.059l-21.727-16.375c0.62891-0.94531 1.5742-2.2031 2.2031-3.1484 9.4453-13.227 24.562-21.098 40.621-21.41h1.8906 0.31641c13.539 0 25.82 9.1328 29.598 22.355l0.62891 1.8906c4.4102 15.43 0.94531 32.434-9.1328 45.027-24.871 32.75-51.633 63.293-79.66 92.891z"/>
</svg>