<?xml version="1.0" encoding="UTF-8"?>
<!-- The Best Svg Icon site in the world: iconSvg.co, Visit us! https://iconsvg.co -->
<svg fill="#000000" width="800px" height="800px" version="1.1" viewBox="144 144 512 512" xmlns="http://www.w3.org/2000/svg">
 <g>
  <path d="m274.47 550.42c-7.0859-19.363-25.664-33.219-47.547-33.219-28.023 0-50.695 22.828-50.695 50.852 0 28.023 22.672 50.695 50.695 50.695 28.023 0 50.695-22.672 50.695-50.695 0-0.62891 0-1.418-0.15625-2.0469-0.16016-5.5117-1.1055-10.707-2.9922-15.586zm-47.547 47.23c-16.375 0-29.598-13.383-29.598-29.598 0-16.375 13.227-29.598 29.598-29.598 11.652 0 21.727 6.6133 26.293 16.375l-8.0312 1.5742c-3.7773-6.1406-10.547-10.078-18.262-10.078-11.965 0-21.727 9.6055-21.727 21.727 0 11.965 9.7617 21.727 21.727 21.727 10.707 0 19.68-7.7148 21.254-17.949l8.1875-1.5742c-1.1055 15.273-13.855 27.395-29.441 27.395zm-7.7148-28.18c0.78906 4.4102 4.8789 7.0859 9.2891 6.2969l11.18-2.2031c-2.2031 4.8789-7.0859 8.3438-12.754 8.3438-7.7148 0-13.855-6.2969-13.855-13.855 0-7.7148 6.1406-13.855 13.855-13.855 3.7773 0 7.2422 1.418 9.6055 3.9375l-11.18 2.2031c-4.2539 0.78906-7.0859 4.8789-6.1406 9.1328z"/>
  <path d="m614.54 374.24-75.73 12.594c-18.734 3.1484-33.691 17.16-37.941 35.738l-12.438 53.844-7.8711 34.008v-86.75h-239.79l66.754 120.29-8.1875 1.5742-17.16 3.4648c1.7305 4.8789 2.832 10.078 3.1484 15.43l107.53-21.57 51.484 64.395c3.4648 4.25 8.6602 6.7695 14.012 6.7695 1.418 0 2.6758-0.15625 4.0938-0.47266 6.7695-1.5742 11.965-6.7695 13.539-13.539l40.148-173.81c2.832-12.438 12.754-21.727 25.348-23.773l75.57-12.754c4.4102-0.62891 7.2422-4.7227 6.6133-8.9727-0.78516-4.2539-4.8789-7.2461-9.1289-6.457zm-137.6 151.77-16.215 70.375c-0.31641 1.2578-1.1016 1.7305-1.7305 1.7305-0.62891 0.15625-1.5742 0.15625-2.3633-0.78906l-46.445-58.094-5.5117-6.7695 74.312-14.957z"/>
  <path d="m226.93 415.8h253.64c2.832 0 5.5117-0.62891 7.8711-1.8906 5.3516-2.832 8.9727-8.5 8.9727-14.957 0-9.4453-7.5586-17.004-16.848-17.004l-253.63 0.003906c-9.2891 0-16.848 7.5586-16.848 17.004 0 9.2891 7.5586 16.844 16.848 16.844z"/>
 </g>
</svg>