<?xml version="1.0" encoding="UTF-8"?>
<!-- The Best Svg Icon site in the world: iconSvg.co, Visit us! https://iconsvg.co -->
<svg fill="#000000" width="800px" height="800px" version="1.1" viewBox="144 144 512 512" xmlns="http://www.w3.org/2000/svg">
 <g>
  <path d="m349.8 321.28c9.1797-0.066406 17.645-4.9531 22.297-12.863 5.3164-8.8125 5.6875-19.75 0.98438-28.906l-52.684-101.85c-2.8945-5.582-7.7383-9.9023-13.613-12.145-5.8711-2.2383-12.367-2.2383-18.238 0-5.875 2.2422-10.719 6.5625-13.609 12.145l-52.684 101.84c-4.707 9.1562-4.332 20.094 0.98438 28.906 4.6484 7.9102 13.113 12.797 22.293 12.867h28.52v204.67h-15.746c-3.2188 0-6.1133 1.9609-7.3086 4.9492l-15.742 39.359c-0.37109 0.92969-0.5625 1.9219-0.5625 2.9258v39.359c0.003906 6.2617 2.4961 12.266 6.9219 16.691 4.4297 4.4258 10.43 6.918 16.691 6.9258h78.723c6.2617-0.007812 12.262-2.5 16.691-6.9258 4.4258-4.4258 6.918-10.43 6.9219-16.691v-39.359c0-1.0039-0.1875-1.9961-0.5625-2.9258l-15.742-39.359c-1.1953-2.9883-4.0898-4.9492-7.3086-4.9492h-15.746v-204.67zm-18.105 220.42 13.203 33.004v37.844c-0.003906 4.3477-3.5273 7.8672-7.8711 7.8711h-78.723c-4.3438-0.003906-7.8672-3.5234-7.8711-7.8711v-37.844l13.203-33.004h18.285c2.0898 0 4.0898-0.82812 5.5664-2.3047s2.3047-3.4805 2.3047-5.5664v-70.848h15.742v70.848h0.003906c0 2.0859 0.82812 4.0898 2.3047 5.5664 1.4766 1.4766 3.4805 2.3047 5.5664 2.3047zm-26.156-110.21v15.742h-15.746v-15.742zm-15.742-15.742-0.003907-133.83c0-2.1562 0.88672-4.2188 2.4492-5.7031 1.5586-1.4883 3.6641-2.2695 5.8164-2.1602 4.2891 0.375 7.5547 4.0039 7.4805 8.3086v133.38zm9.0039-157.41-0.003906-0.003906c-6.457-0.32812-12.766 2.0234-17.43 6.5-4.6641 4.4648-7.3047 10.637-7.3164 17.09v23.617h-28.52c-5.0703 0-7.8711-3.7109-8.8477-5.3086-2.4766-4.1133-2.6445-9.2148-0.44531-13.484l52.68-101.85c1.6953-3.2617 5.0703-5.3125 8.75-5.3125 3.6758 0 7.0508 2.0508 8.7461 5.3125l52.684 101.84h-0.003906c2.1992 4.2695 2.0312 9.3711-0.44531 13.48-0.97266 1.5977-3.7773 5.3086-8.8477 5.3086h-28.52v-23.164c0.066406-6.1289-2.2344-12.051-6.4219-16.527-4.1875-4.4766-9.9414-7.1641-16.062-7.5078z"/>
  <path d="m266.18 565.31v31.488c0 2.0859 0.82812 4.0898 2.3047 5.5664 1.4766 1.4727 3.4766 2.3047 5.5664 2.3047h47.23c2.0898 0 4.0898-0.83203 5.5664-2.3047 1.4766-1.4766 2.3047-3.4805 2.3047-5.5664v-31.488c0-2.0898-0.82813-4.0898-2.3047-5.5664-1.4766-1.4766-3.4766-2.3086-5.5664-2.3086h-47.23c-4.3477 0-7.8711 3.5273-7.8711 7.875zm15.742 7.8711h31.488v15.742h-31.488z"/>
  <path d="m462.98 565.31v31.488c0 2.0859 0.82813 4.0898 2.3047 5.5664 1.4766 1.4727 3.4766 2.3047 5.5664 2.3047h47.23c2.0898 0 4.0898-0.83203 5.5664-2.3047 1.4766-1.4766 2.3047-3.4805 2.3047-5.5664v-31.488c0-2.0898-0.82812-4.0898-2.3047-5.5664-1.4766-1.4766-3.4766-2.3086-5.5664-2.3086h-47.23c-4.3477 0-7.8711 3.5273-7.8711 7.875zm15.742 7.8711h31.488v15.742h-31.488z"/>
  <path d="m447.23 163.84h-8.8242c-6.0078 0.011718-11.781 2.3047-16.16 6.418-4.375 4.1094-7.0273 9.7305-7.4102 15.723l-6.9492 111.19c-0.011719 0.16406-0.015625 0.32812-0.015625 0.49219v15.746c0.011718 10.434 4.1602 20.441 11.539 27.82 7.3789 7.3789 17.387 11.527 27.82 11.539h23.617v173.18h-15.746c-3.2188 0-6.1133 1.9609-7.3086 4.9492l-15.742 39.359c-0.375 0.92969-0.5625 1.9219-0.5625 2.9258v39.359c0.003907 6.2617 2.4961 12.266 6.9219 16.691 4.4297 4.4258 10.43 6.918 16.691 6.9258h78.723c6.2617-0.007812 12.262-2.5 16.691-6.9258 4.4258-4.4258 6.918-10.43 6.9219-16.691v-39.359c0-1.0039-0.19141-1.9961-0.5625-2.9258l-15.742-39.359c-1.1953-2.9883-4.0898-4.9492-7.3086-4.9492h-15.746v-173.18h23.617c10.434-0.011719 20.441-4.1602 27.82-11.539 7.3789-7.3789 11.527-17.387 11.539-27.82v-15.742c0-0.16406 0-0.32812-0.015626-0.49219l-6.9492-111.19v-0.003907c-0.38281-5.9922-3.0352-11.613-7.4102-15.723-4.3789-4.1133-10.152-6.4062-16.16-6.418h-8.8242c-4.3477 0-7.8711 3.5273-7.8711 7.875v118.08h-15.746v-102.34c0-8.4375-4.5-16.234-11.809-20.453-7.3047-4.2188-16.309-4.2188-23.613 0-7.3086 4.2188-11.809 12.016-11.809 20.453v102.34h-15.746v-118.08c0-2.0898-0.82812-4.0898-2.3047-5.5664-1.4766-1.4766-3.4766-2.3086-5.5664-2.3086zm81.262 377.86 13.203 33.008v37.844c-0.003906 4.3477-3.5273 7.8672-7.8711 7.8711h-78.723c-4.3438-0.003906-7.8672-3.5234-7.8711-7.8711v-37.844l13.203-33.004h18.285c2.0859 0 4.0898-0.82812 5.5664-2.3047 1.4766-1.4766 2.3047-3.4805 2.3047-5.5664v-39.363h15.742v39.359l0.003907 0.003907c0 2.0859 0.82812 4.0898 2.3047 5.5664s3.4766 2.3047 5.5664 2.3047zm-26.156-78.715v15.742h-15.746v-15.742zm-15.742-15.742-0.003906-94.469h15.742v94.465zm-7.8711-141.7-0.003906-0.003906c2.0859 0 4.0898-0.83203 5.5664-2.3047 1.4766-1.4766 2.3047-3.4805 2.3047-5.5664v-110.21c0-4.3477 3.5234-7.8711 7.8711-7.8711 4.3477 0 7.875 3.5234 7.875 7.8711v110.21c0 2.0859 0.82812 4.0898 2.3047 5.5664 1.4766 1.4727 3.4766 2.3047 5.5664 2.3047h31.488c2.0859 0 4.0898-0.83203 5.5664-2.3047 1.4766-1.4766 2.3047-3.4805 2.3047-5.5664v-118.08h0.95312c4.1562 0.007813 7.5898 3.2344 7.8555 7.3789l6.9375 110.95v15.5c-0.007812 6.2617-2.5 12.266-6.9258 16.691-4.4297 4.4258-10.43 6.918-16.691 6.9258h-94.465c-6.2617-0.007813-12.262-2.5-16.691-6.9258-4.4258-4.4258-6.918-10.43-6.9258-16.691v-15.5l6.9375-110.95c0.26562-4.1445 3.6992-7.3711 7.8555-7.3789h0.95312v118.08c0 2.0859 0.82812 4.0898 2.3047 5.5664 1.4766 1.4727 3.4805 2.3047 5.5664 2.3047z"/>
 </g>
</svg>