<?xml version="1.0" encoding="UTF-8"?>
<!-- The Best Svg Icon site in the world: iconSvg.co, Visit us! https://iconsvg.co -->
<svg fill="#000000" width="800px" height="800px" version="1.1" viewBox="144 144 512 512" xmlns="http://www.w3.org/2000/svg">
 <path d="m562.88 222.91v-21.25l-127.5 113.34h-218.7c-23.961 0-43.387 19.426-43.387 43.387v133.7h35.418v-141.67c0-7.8242 6.3438-14.168 14.168-14.168v56.668l14.168 63.754-14.168 35.418 7.082 85.004 10.625 21.25h24.793l-10.625-21.25v-70.836l67.293-70.836 49.586 7.082 85 0.003906v134.59l10.625 21.25h24.793l-10.625-21.25 17.707-134.59 16.539-20.672c7.8086-9.7656 13.941-20.75 18.148-32.527l29.066-81.387 44.949 11.078c5.1953 1.2812 10.641-0.75 13.734-5.1172l2.7617-3.9062c3.4414-4.8633 3.1406-11.438-0.72656-15.961z"/>
</svg>