<?xml version="1.0" encoding="UTF-8"?>
<!-- The Best Svg Icon site in the world: iconSvg.co, Visit us! https://iconsvg.co -->
<svg fill="#000000" width="800px" height="800px" version="1.1" viewBox="144 144 512 512" xmlns="http://www.w3.org/2000/svg">
 <g>
  <path d="m501.48 427.65c-3.0859 1.4492-5.3047 4.2773-5.9766 7.625-7.043 15.656-13.949 31.398-20.121 47.41-3.3164 9.5898-4.9141 19.691-4.7188 29.836-0.34375 21.273 2.7539 42.328 3.3555 63.527h0.003906c0.94922 3.6094-0.44531 7.4297-3.5 9.5742-4.4648 2.4688-9.8672 2.5703-14.422 0.26953-1.6016-1.1523-2.3398-3.1602-1.8672-5.0703-0.82422-13.195-3.2461-26.234-3.8594-39.531v-0.003907c-3.6875 9.9844-5.9219 20.441-6.6406 31.059-0.23828 5.6953-1.3164 11.254-1.7461 16.906h-0.003907c-0.074219 1.4141-0.78516 2.7188-1.9336 3.5469-1.1484 0.82812-2.6133 1.0859-3.9766 0.71094-2.0977 0.21484-4.1914-0.42578-5.8125-1.7773-1.6172-1.3516-2.625-3.2969-2.7891-5.3984-0.5625-11.699-0.50781-23.418 0.15625-35.113 0.75781-5.6719 1.0078-11.398 0.74219-17.113-1.0703-17.395-0.20312-34.82-2.5117-52.25-1.1328-8.5391-0.14453-17.59-2.0742-26.215-2.2148-9.9023-5.3398-19.598-6.7969-29.676h-0.003907c0.046875-0.99609-0.44531-1.9414-1.2891-2.4688-0.84375-0.53125-1.9102-0.5625-2.7852-0.089844-16.141 4.9531-33.27 5.7617-49.805 2.3516-5.8086-0.90234-11.957-1.1445-17.84-1.918-9.9297-0.5625-19.805-1.8477-29.547-3.8477-7.1289-2.0039-14.102-4.3906-21.188-6.457-4.2227-1.5234-8.2188-3.6133-11.883-6.2109-1.0195-0.95703-2.4727-1.2812-3.8008-0.85547-0.55859 0.44141-0.875 1.1172-0.85937 1.8281 0.019531 0.71094 0.36719 1.3711 0.94141 1.7891 4.8203 4.043 0.84766 10.023 3.7422 14.77 5.3789 10.262 14.012 18.445 24.547 23.262 6.7695 3.3477 13.891 5.9258 21.23 7.6836 5.7734 0.96875 11.316-0.25781 17.047 0.375 21.5 2.2734 43.227 1.0625 64.344-3.582 2.3477-0.5 4.5586-1.6172 6.875-2.3086 1.3594-0.40234 3.1719-1.7383 3.9688 0.52344 0.70703 2-1.5156 2.8555-2.6133 3.1914-5.2695 2.0977-10.762 3.5977-16.367 4.4805-10.328 0.77734-20.66 1.6484-30.949 2.8242-7.0781 0.28906-14.168-0.14062-21.156-1.2891-5.668-0.26562-11.348-0.21484-17.012 0.14453-0.61328-0.089843-1.2383 0.082032-1.7148 0.48047-0.47656 0.39844-0.76172 0.98047-0.78125 1.6016-1.418 7.8633-3.2305 15.648-5.4414 23.324-2.3711 8.4766-3.6758 17.215-3.8828 26.012 0.68359 16.316 5.8359 32.129 14.895 45.715 5.2734 7.0391 9.8867 14.547 13.785 22.43 1.2617 2.7969 1.7461 4.6641-1.7148 5.3242-2.7227 0.51953-2.1914 3.2461-4.0312 4.9688l-0.003906 0.003907c-0.83203-2.625-3.5781-4.1289-6.2383-3.4258-3.7422 0.17969-7.3008-1.6094-9.3906-4.7188-7.1094-9.9375-12.637-20.914-16.387-32.543-2.9258-8.7578-8.9727-15.461-12.488-23.66-3.4258-6.793-7.2109-13.395-11.34-19.781-2.1484-3.0703-1.5742-7.2773 1.3164-9.6602 7.3125-7.9258 11.312-18.352 11.184-29.133 0.058593-2.582 0.17578-5.1602 0.24609-7.7383 0.24609-9.1953-7.2031-13.594-12.207-19.504-0.9375-1.0312-1.9453-1.9961-3.0078-2.8945-1.5117-1.3633-1.75-4.8633-3.7461-4.4414-2.5195 0.53516-1.6367 3.8008-2.0508 5.9297-1.8555 10.699-5.0977 21.113-9.6484 30.973-4.4297 7.2227-9.5938 13.965-15.414 20.121-1.0664 1.1289-2.0117 2.3672-2.8203 3.6953-4.7656 9.875-9.3125 19.855-14.148 29.699v-0.003906c-2.5391 5.7031-3.2383 12.051-2.0039 18.168 2.1406 14.508 2.1328 29.273 5.4023 43.633 0.96484 2.7305-0.0625 5.7656-2.4883 7.3477-2.8047 0.77734-5.7578-0.60938-6.9531-3.2617-3.2734-4.0117-6.8242-7.7852-10.629-11.293-3.2656-3.418-4.7852-8.1445-4.1172-12.824-0.31641-5.7969 0.25391-11.609 1.6914-17.238 1.6484-4.9922 2.2852-10.266 1.8828-15.508 0.64844-11.504 0.26172-23.07 1.0195-34.566 0.30859-10.18 1.6016-20.301 3.8672-30.23 1.9023-8.4141 2.8867-17.016 2.9258-25.645 1.3359-10.156 0.6875-20.477-1.9062-30.387-0.33984-0.81641-0.72656-1.6094-1.1562-2.3789-2.7969 3.6445-0.73828 7.6094-1.5547 11.293v0.003906c-2.4023 11.648-5.7461 23.078-10 34.184-2.4453 6.1055-1.4492 12.535-2.418 18.77h-0.003906c-2.0703 12.035-5.9531 23.691-11.52 34.566-3 6.1289-5.8008 12.355-8.8477 18.457-0.75391 1.1602-1.7422 2.1445-2.9023 2.8984-2.543 1.9961-4.0742 1.9609-4.6797-1.8633-0.65625-5.8594-0.71094-11.77-0.15625-17.641 0.58203-12.121-2.2148-24.109-1.0391-36.262 0.90625-5.2539 2.5156-10.363 4.7773-15.188 0.49609-1.3516 1.5625-2.4141 2.9141-2.8984 1.3516-0.48438 2.8516-0.34375 4.0898 0.38281 4.1719 1.75 5.6328-0.46484 7.9844-3.6406 7.3281-9.9023 9.2227-21.68 13.25-32.789h0.003907c2.7852-6.6016 4.4297-13.629 4.8516-20.785 0.007812-3.543 1.1523-6.9883 3.2656-9.832 2.4102-4.5547 3.7383-9.6016 3.8828-14.75 0.64062-5.8398 2.6523-11.445 5.8633-16.367 3.3828-5.5938 6.2617-11.48 8.6055-17.586 3.1055-6.1016 8.375-10.828 14.781-13.246 15.531-7.9336 32.453-8.9375 49.168-10.969 16.652-2.0234 33.297 0.30859 49.953 0.79297 14.215 0.41406 28.41 1.043 42.574 2.1445 14.934 1.1562 29.727-1.2578 44.605-1.3203 1.3555-0.007813 3.0078-0.21484 2.5469-1.6094-1.4492-4.3867 0.95312-4.5078 4.2461-5.4648 2.0898-0.60938 6.2227 0.42578 6.5234-4.1094 0.054687-0.82422 1.957-0.21094 2.7383 1.0273 1.2812 2.0352 2.7773 3.9297 4.6445 6.5195 0.40234-3.9297 2.6328-5.8164 5.3203-3.4297 3.6562 3.2461 3.1016-0.21484 3.8711-1.8203h0.003906c0.13281-0.32031 0.20312-0.66797 0.21484-1.0156-0.55469-2.0781 0.28516-4.2773 2.0859-5.4531 2.4023-0.87109 1.9766 3.0469 4.5664 3.0312 1.3047-1.9297 1.3594-5.043 5.5664-5.1758 2.707-0.085937 2.8047-7.3359 0.48047-9.6445l-0.003906 0.003906c-4.918-3.8203-9.2188-8.3789-12.75-13.512-4.8203-9.2539-12.145-17.988-13.098-28.285-1.5742-10.773-1.1289-21.746 1.3164-32.359 1.1953-2.1289 1.6328-4.5977 1.2461-7.0078-0.54688-1.582 0.98438-1.8555 2.1875-2.2266 1.7344-0.53516 1.5352 0.88281 1.8633 1.7227 3.4883 8.9258 10.531 15.191 16.75 21.996 6.7266 7.6797 11.625 16.789 14.328 26.637 2.2656 7.3672 5.1367 14.543 7.1367 22.027 0.60938 2.2734-1.3359 5.8125 1.6094 6.6172h0.003906c2.5938 0.17188 5.1875-0.33203 7.5312-1.4648 4.6133-1.4453 9.3398-2.5195 14.129-3.2109 6.5156-0.98828 12.82-1.3516 17.969 3.8906 1.4062 1.4297 2.1719 1.3438 3.4023-0.65234 5.4492-8.4453 12.652-15.621 21.113-21.039 7.1875-5.3555 14.777-10.148 22.707-14.332 6.9375-2.6055 14.113-4.5273 21.422-5.7344 3.3555-0.85156 5.5312 0.4375 2.9961 4.0391-2.918 5.2617-5.5664 10.672-7.9297 16.207-8.5859 14.516-20.398 26.859-34.523 36.074-0.27734 0.19141-0.65234 0.23438-0.94531 0.40625-11.465 6.8203-11.711 8.0859-4.125 18.75 5.8555 8.2344 10.793 16.66 8.0586 27.574h-0.003906c-0.72656 3.543-2.3594 6.8398-4.7383 9.5664-5.1016 5.668-9.5742 11.871-13.34 18.5-2.4414 4.6055-3.7148 9.7383-3.7188 14.953-0.91406 16.605-0.054687 33.395-4.7461 49.676-1.0391 4.375-3.4336 8.3086-6.8398 11.238-3.4102 2.9297-7.6602 4.7031-12.141 5.0703-18.512 3.3047-23.879-7.1055-29.066-22.023-0.60547-1.7578-1.0977-3.5586-1.668-5.4141zm106.93-171.3c-3.9297 2.1367-7.2969 5.1719-9.8281 8.8633-6.7109 8.5391-13.977 16.633-21.746 24.227-2.3867 1.9922-4.207 4.5469-6.7852 6.4102-2.2188 1.8438-4.2969 3.8555-6.2109 6.0156l0.97656 0.88672c18.5-11.664 34.902-25.34 43.508-46.492 0.81641-2.0898 1.75-4.1406 2.418-6.2773 0.59375-1.9023-0.14063-3.1953-2.2891-2.5234v0.003907c-5.5898 1.0117-11.074 2.543-16.383 4.5703-8.1797 4.4414-15.91 9.6602-23.09 15.582-7.5586 6.0625-16.02 12.207-18.344 22.824-0.23047 1.418-1.2422 2.582-2.6094 3.0156-2.3242 0.69141-4.0898 2.5898-4.6172 4.957-2.2891 4.6055-3.4453 4.6992-7.1875 0.69141-1.2578 3.5352-2.4922 6.9336-3.6641 10.352l-0.003906 0.003906c-0.054688 0.60938-0.35938 1.1719-0.83984 1.5508-0.48438 0.38281-1.1016 0.54688-1.7109 0.45703-1.0312-0.32031-1.7109-1.3086-1.6406-2.3867-0.16016-2.0078-0.41797-4.0078-0.63281-6.0117-0.46875 2.4141-0.66797 4.875-0.59766 7.3359 0.15625 1.0742-0.47656 2.1094-1.5039 2.4609-1.082 0.11719-2.082-0.58984-2.3359-1.6484-0.80078-1.6875-1.4023-3.4688-2.0977-5.2344-1.9648 1.125-0.13672 3.9922-2.7891 4.2305h-0.003906c-0.33594 0.097656-0.69922 0.039062-0.98438-0.16406-0.28516-0.19922-0.46875-0.51953-0.48828-0.87109-0.41797-5.0234 0.035156-10.336-5.0078-13.695l-0.003906 0.003906c-0.11328-0.49609-0.16797-1.0039-0.16797-1.5078-0.66406-1.6484 1.293-4.2461-0.95312-4.9453h-0.003906c-1.957-0.51172-4.0391-0.16797-5.7305 0.94922-3.9453 3.1875-4.2734 0.64844-5.2734-2.4375-3.7617-11.637-5.4258-24.262-15.113-33.207h0.003907c-3.2578-3.2969-6.25-6.8438-8.957-10.605-2.8164-3.168-5.8086-6.1758-8.9609-9.0039-0.066407 6.6445 0.63672 13.273 2.0938 19.754 1.7812 6.1953 4.7539 11.98 8.7539 17.035-2.582 0.44922-3.1758-2.5664-5.3984-2.0703 4.5156 8.5781 11.703 15.457 20.473 19.594 2.1758 1.1875 1.0781 2.3438 0.66406 4.1562-1.1367 5-6.5273 8.1016-5.8398 13.758-3.1992 0.39062-5.9922 2.3555-7.4414 5.2383-5.3164-3.3945-5.6797 2.875-8.5117 4.3359v-0.003906c-0.67969 0.50391-1.5156 0.75781-2.3594 0.72656-3.2461-1.3359-7.1172 3.332-10.102-1.1641-0.52734-0.79688-1.0078 0.95312-1.5469 1.3086-2.4102 1.5938-4.1562 5.4141-7.5781 4.0117l-0.003906-0.003906c-4.9805-1.4492-10.234-1.6992-15.336-0.73438-9.9141 0.59766-19.855 1.5273-29.762 1.2812-14.211-0.35156-28.398-1.6953-42.602-2.4922-9.7734-0.54688-19.562-0.89062-29.344-1.3164-7.0664-0.30859-14.164-1.1328-21.195-0.74609-6.6562 0.36719-13.211 2.5273-19.871 2.9727l0.003906-0.003907c-11.527 0.89844-22.805 3.8164-33.316 8.625-4.9922 1.6484-9.2461 5-12.016 9.4688-2.3672 4.7617-5.043 9.3672-8.0039 13.785-7.8984 11.406-8.9023 25.164-10.504 38.367-0.60547 7.207 0.089844 14.461 2.0508 21.422 3.5117 13.969 1.9141 28.031 0.92578 41.855-1.168 16.348-5.5195 32.32-5.7891 48.992-0.29297 18.367-1.3047 36.656-0.12109 55.07 0.47656 7.3945 4.8047 10.051 9.6094 13.543-3.2461-11.141 0.26563-22.613-2.5625-33.668-0.71484-2.7109-0.73047-5.5547-0.046874-8.2734 4.8203-16.184 12.516-31.371 22.723-44.828 5.7305-8.1289 13.07-14.953 16.254-24.938 4.7383-14.875 8.0039-29.879 4.4727-45.297-2.668-11.656-0.91406-23.129-0.72656-34.695 0.023437-1.4492 0.17969-3.0195 2.1406-2.8477 0.70703 0.089844 1.3516 0.46094 1.7812 1.0312 0.42969 0.57031 0.60938 1.2891 0.5 1.9961-0.24609 2.2227-0.66797 4.4219-1.2617 6.5781-0.82422 4.5859-0.63281 9.293 0.5625 13.797 0.625 3.1328 4.6328 2.4375 6.7969 4.0664 11.66 8.7891 25.746 11.465 39.426 14.328 12.367 2.5898 25.277 2.4453 37.824 4.3242 14.379 2.2383 29.027 2.082 43.355-0.46875 7.3906-1.3359 9.3398-3.0117 10.137-10.332 0.13672-1.2539-0.51953-3.1719 1.7891-2.8789 2.0742 0.26172 1.5469 2.2695 1.3438 3.3516v0.003907c-0.55469 1.1719-0.45312 2.5469 0.26953 3.625 0.71875 1.0781 1.9531 1.6992 3.25 1.6328-0.41016 2.2617-3.1719 2.5625-2.7305 5.0742 1.0078 5.7266 1.2109 11.629 2.6016 17.246 3.4609 11.387 5.4102 23.176 5.793 35.074-0.28906 16.484 2.3945 32.836 1.9062 49.406-0.39062 13.301 0.25 26.637-0.85156 39.953-0.67188 8.1641-0.28125 8.5195 7.8516 10.941 1.1172 0.33203 1.3281 2.0742 2.9297 1.5859 1.9336-10.453 1.457-21.277 5.1172-31.426l0.003906-0.003907c3.5195-9.7344 5.0508-20.082 4.4922-30.422-1.3242-22.734 3.75-44.879 4.3828-67.375 0.085938-3.1094 0.63281-6.2031 0.95703-9.3047 0.14062-1.3672 0.035157-3.1289 1.8633-3.1836 1.7461-0.054687 1.2539 1.7305 1.5 2.8164 0.66406 2.9258 1.6328 4.4453 5.2148 2.8789 9.2656-3.4844 18.207-7.7656 26.73-12.793 4.5664-3.0312 9.6953-7.6797 7.9062-14-2.2891-8.0781-2.7578-16.309-4.2344-24.43h-0.003906c-0.71875-5.8164-2.1562-11.527-4.2734-16.992-3.3633-7.5234-8.0508-14.289-11.223-21.895h-0.003906c-4.1523-7.8594-4.793-17.109-1.7656-25.469 3.1055-6.4844 6.6133-12.77 10.508-18.812 3.0156-3.0508 5.6719-6.4414 7.9102-10.102 0.71094-1.293 0.84375-4.1719 3.3086-2.6602 1.7812 1.0938 0.21094 2.793-0.66406 4.0117-4.0352 5.6055-8.4141 10.984-12.113 16.805-5.5273 8.6992-9.4102 17.918-5.7891 28.582l0.003906-0.003906c2.0625 6.5156 4.8438 12.785 8.2891 18.691 5.1172 8.0469 8.1953 17.215 8.9648 26.719 0.36719 5.1289 2.0117 4.5586 5.7188 2.6094h0.003906c9.2969-5.293 19.828-8.043 30.531-7.9648 6.6562 0.023437 13.211 1.6523 19.105 4.7461-0.33594-3.1602 0.19531-6.3516 1.5312-9.2344 3.6094-8.0703 8.418-15.547 14.266-22.176 4.0078-3.7812 6.4492-8.9258 6.8398-14.422s-1.293-10.938-4.7227-15.246c-3.8242-5.5078-7.3125-11.254-11.172-16.738-1.4961-2.125 0.68359-7.1641-5.5547-6.0078 19.273-10.465 30.402-27.957 44.066-43.594h-0.003907c-0.70703-0.13672-1.4336-0.16797-2.1523-0.09375-15.68 5.8789-29.77 13.844-37.746 29.527-0.71484 1.4062-1.3242 2.7383-2.8672 1.9492-1.832-0.93359-0.375-2.2266 0.10547-3.4688 1.7188-3.9375 4.1172-7.5469 7.0781-10.66 10.789-12.457 26.281-16.742 40.262-23.648 2.293-1.1289 4.7695-1.4648 5.8164 1.8555zm-114.91 175.78c-0.82812 0.023438-1.6484 0.14844-2.4453 0.37109-10.234 4.8984-20.617 9.4453-31.227 13.469-1.2188 0.65234-1.9297 1.9688-1.8047 3.3438-2.125 11.254-0.70703 22.699-1.8711 33.941-1.3672 13.191-0.015625 26.602-3.2031 39.609-1.457 5.9414 1.1602 11.734 0.60938 17.445-0.97266 10.055 2.7031 19.578 2.3438 29.496-0.074219 1.9883 1.8125 4.5742 3.4766 3.043 2.6836-2.4727 4.2148-0.51562 6.2852 0.16016 2.7305 0.89063 5.707 1.9414 5.2617-2.9297-1.0977-12.016-1.1914-24.09-2.5664-36.105l-0.003906-0.007812c-2.7969-18.57-1.0391-37.543 5.1172-55.289 5.9609-15.602 13.164-30.73 20.027-46.547zm-152.56 139.99c-4.0742-6.2734-7.7695-11.668-11.039-17.355v-0.003906c-7.3203-12.715-11.562-26.969-12.383-41.621-0.57422-9.0938 2.5273-17.543 3.582-26.332 0.98828-8.2383 4.6016-15.949 4.7617-24.371l0.003906-0.003906c0.28516-0.99219 0.11719-2.0625-0.45703-2.9219-0.57422-0.86328-1.5-1.4258-2.5273-1.543-5.3906-0.92578-10.598-2.7109-15.426-5.2891-3.1133-1.1758-4.2773-1.5547-3.7812 2.6016v0.003906c2.6172 14.496-1.2539 29.41-10.59 40.805-2.9375 3.4023-2.8242 8.4727 0.25781 11.742 6.8633 10.547 12.613 21.738 18.406 32.871 4.5 8.6484 7.9258 17.848 12.035 26.707 1.1094 2.3867 1.6562 6.3125 5.7812 5.0039h0.003907c3.7109-1.0195 7.6133-1.1172 11.371-0.29297zm190-121.3c3.3555-0.20312 6.5938-1.3242 9.3594-3.2422 2.7656-1.918 4.9492-4.5547 6.3164-7.6289 0.43359-0.51953 0.61328-1.207 0.48438-1.8672-0.125-0.66406-0.54297-1.2383-1.1367-1.5586-2.2266-1.4609-4.2461-3.2188-6-5.2227-3.0859-5.7422 2.9648-15.227 9.7031-16.09 0.48047-0.007813 0.94141-0.18359 1.3125-0.48828 1.3242-4.9883-0.042969-10.309-3.6133-14.035-8.7578-4.2266-17.676-2.668-26.68-0.86328-6.4727 1.8047-12.289 5.4375-16.75 10.465-2.168 2.0195-2.9258 7.3281-0.36328 8.082 4.3984 1.293 5.7383 5.1875 8.4883 7.8281 5.918 5.6797 5.8633 5.7422 1.9648 12.902-0.41406 0.75781-0.89453 1.4805-1.3711 2.1992-1.1016 1.6641 0.24609 2.5703 1.1641 3.5195l0.003906-0.003906c0.35547 0.99219 1.2617 1.6797 2.3125 1.7578 2.8398-1.5273 6.375-0.59766 8.0977 2.125 1.6445 1.9375 4.25 2.7617 6.707 2.1211zm21.074-53.098h-0.003906c0.51562-1.457 0.35938-3.0664-0.42969-4.3984-0.78516-1.3281-2.1211-2.2422-3.6445-2.4961-10.055-4.2461-21.367-4.4414-31.562-0.53516-5.5547 2.2227-11.598 3.0078-15.773 8.5664h0.003906c-1.6094 1.8789-1.6797 4.6289-0.17188 6.5898 1.082 2.0273 2.9609-0.050781 4.375-0.76953 1.0742-0.54297 2.0898-1.1953 3.0273-1.9492 13.48-10.941 28.129-11.191 44.176-5.0078zm-58.625-137.89c-2.9648-20.195-18.004-30.621-29.41-43.48 4.0508 17.797 18.996 28.281 29.41 43.48zm-303.39 225.34c1.5117-2.5938 3.2812-5.0273 5.2812-7.2617 2.3164-1.3945 4.1289-3.4883 5.1719-5.9844 0.47656-1.8203 0.86719-5.1719 2.9727-4.4844 2.25 1.3945 3.3086 4.1094 2.5898 6.6602-0.37109 1.3281-0.875 2.6172-1.5039 3.8438-3.0586 6.8711-4.9531 14.199-5.6094 21.688 1.6367-0.59766 2.7891-2.0781 2.9648-3.8125 3.4258-8.2227 5.668-16.891 6.6641-25.742 0.6875-4.3711-3.957-6.582-2.0195-10.422-0.90234-0.31641-1.8359-0.53516-2.7852-0.64453-1.5 3.25-5.8164 3.2383-7.3164 6.0078h0.003906c-3.3789 6.2578-5.5547 13.094-6.4141 20.152zm352.38-191.98c2.2188-5.2148-0.39844-7.2695-4.6211-8.4336v0.003906c-4.2617-0.71875-8.625-0.60938-12.848 0.32422-0.51562-0.015625-1 0.24219-1.2734 0.67969s-0.29297 0.98438-0.054687 1.4414c1.0039 4.4219 1.3047 8.9766 0.89453 13.492 1.6523-3.4375 2.6836-7.0391 4.1875-10.434 0.57031-1.2891-0.26172-4.2734 2.5195-3.6211 2.3477 0.55078 1.1055 2.8711 1.0859 4.4258-0.039063 3.293-1.9922 6.6211 0.12109 10.734v0.003906c1.3203-2.3164 2.4727-4.7227 3.4531-7.2031 1.3672-4.457 3.1445-6.1719 6.5352-1.4141zm-321.46 120.79c-0.75 0.92188-1.4258 1.8984-2.0234 2.9219-4.5781 11.957-6.4922 24.973-14.312 35.641-1.1875 1.6211-0.015626 2.3945 1.4297 3.0391 1.6562 0.73828 2.8945 0.90625 3.6562-1.1875 1.2891-3.5391 2.8125-6.9961 4.0508-10.555v0.003906c3.5312-9.6484 5.9453-19.668 7.1992-29.863zm-34.566 54.359c0.81641-0.46875 1.7383-0.71484 2.6758-0.71484 3.0664 2.375 3.6992 0.33203 4.2812-2.1016v-0.003906c0.25391-1.1602 0.58984-2.3008 1-3.418 0.52344-1.332 1.1133-2.5508-0.62109-3.4922v0.003906c-1.3906-0.80859-3.1641-0.46875-4.1562 0.79688-2.0547 2.5234-3.1797 5.6758-3.1797 8.9297zm-0.32422 56.672c4.6406-4.3359 6.7422-10.742 5.5742-16.984-4.0586 4.6875-6.0664 10.805-5.5742 16.984z"/>
  <path d="m504.23 344.92c0.070312 1.2148 0.18359 2.4297 0.19922 3.6445 0.074218 0.79688-0.1875 1.5859-0.72656 2.1758-3.9258-3.6094-7.4336 3.9688-11.824 0.050781h-0.003906c-3.7344-2.7305-6.6094-6.4766-8.2734-10.797-1-3.3086 1.7969-3.4414 3.6562-4.3516-1.0664-0.39453-1.9102-1.2383-2.3047-2.3047-0.39453-1.0703-0.30469-2.2578 0.25-3.25 0.22656-0.85156 0.88672-1.5234 1.7383-1.7578 0.84766-0.23828 1.7578-0.011719 2.3984 0.59766 4.3086 2.8906 8.6367 5.7578 12.848 8.7852 1.8047 1.9297 2.5664 4.6172 2.043 7.207z"/>
  <path d="m556.61 336.15c2.4961-0.45313 5.0352 0.55859 6.5391 2.6016 1.625 2.6953-1.5469 4.1328-2.9922 5.8516-4.9492 5.8828-7.6992 6.8242-12.574 4.4375l-0.003906 0.003907c-1.0469-0.15625-1.8594-0.99219-1.9883-2.043 1.5898-5.2539 5.7383-9.3438 11.02-10.852z"/>
  <path d="m558.14 326.81c1.3555-0.11328 2.707 0.21875 3.8555 0.94922 0.69922 0.10547 1.3242 0.50391 1.7148 1.0977s0.51172 1.3203 0.33594 2.0078c-0.61328 1.6016-2.2461 1.1641-3.6094 0.875v0.003906c-5.0859-1.5039-10.516 0.85547-12.887 5.6016-1.3125 2.2422-2.625 4.4883-3.9531 6.7227-0.43359 0.72656-0.83594 1.6523-1.9531 1.0977h-0.003907c-0.82031-0.28125-1.3203-1.1133-1.1758-1.9727 0.52344-6.2305 11.359-16.414 17.676-16.383z"/>
  <path d="m544.6 342.48c4.1406 3.8867 10.449 4.3125 15.078 1.0195 1.8789-1.5195 2.9648-3.8125 2.9531-6.2266-0.011718-2.418-1.1211-4.6992-3.0117-6.1992-10.062-6.75-21.051 12.34-10.691 17.566 3.6094 1.8203 6.8008-3.6094 3.1797-5.4375-3.6172-1.8242 2.5039-9.375 4.2031-6.7266 0.21484 1.1719-0.41016 2.3398-1.5039 2.8125-2.5703 0.47266-5.2109-0.37109-7.0312-2.2461-3.2344-2.4453-6.375 3.0234-3.1797 5.4375z"/>
  <path d="m491.98 334.33c3.4062 1.0664 5.4023 4.5977 4.5664 8.0703-0.39453 1.6484 0.58984 3.3164 2.2266 3.7656 1.6367 0.45313 3.3359-0.47266 3.8438-2.0938 1.6953-6.8164-2.2461-13.766-8.9648-15.816-1.6484-0.39453-3.3164 0.58984-3.7695 2.2266-0.44922 1.6367 0.47656 3.3398 2.0977 3.8477z"/>
 </g>
</svg>