<?xml version="1.0" encoding="UTF-8"?>
<!-- The Best Svg Icon site in the world: iconSvg.co, Visit us! https://iconsvg.co -->
<svg fill="#000000" width="800px" height="800px" version="1.1" viewBox="144 144 512 512" xmlns="http://www.w3.org/2000/svg">
 <path d="m599.35 457c-19.875-17.008-38.75-24.738-56.082-22.934-5.3984 0.55469-10 1.9727-14.113 3.7891-2.3438-13.281-14.551-23.758-29.945-25.66v-31.23c6.1406-1.1445 16.316-4.1484 23.949-11.984 11.375-11.68 12.27-29.184 12.301-29.922 0.0625-1.4141-0.47266-2.7891-1.4766-3.7891-1-1-2.3164-1.4766-3.7891-1.4648-0.72656 0.035156-17.891 0.95703-29.312 12.688-2.8398 2.918-5.0273 6.1953-6.7109 9.4883-1.6836-3.293-3.8711-6.5703-6.7109-9.4883-11.426-11.73-28.586-12.652-29.312-12.688-1.4258-0.019532-2.793 0.46875-3.7891 1.4648-1.0039 1-1.5391 2.375-1.4766 3.7891 0.03125 0.73828 0.92578 18.242 12.301 29.922 7.6328 7.8398 17.809 10.84 23.949 11.984v31.234c-14.926 1.8555-26.879 11.738-29.738 24.426-3.2031-1.3789-6.8555-2.3438-11.195-2.582-7.1406-0.40234-12.883 1.3945-17.871 4.0078-2.2539-13.375-14.508-23.949-29.98-25.859v-31.23c6.1406-1.1445 16.316-4.1484 23.949-11.988 11.379-11.68 12.27-29.184 12.301-29.922 0.0625-1.4141-0.47266-2.7891-1.4766-3.7891-1-1-2.3164-1.4766-3.7891-1.4648-0.72656 0.035157-17.891 0.95703-29.312 12.688-2.8398 2.918-5.0273 6.1953-6.7109 9.4883-1.6836-3.293-3.8711-6.5703-6.7109-9.4883-11.426-11.73-28.586-12.652-29.312-12.688-1.4258-0.019531-2.793 0.46875-3.7891 1.4648-1.0039 1-1.5391 2.375-1.4766 3.7891 0.03125 0.73828 0.92578 18.242 12.301 29.922 7.6328 7.8398 17.809 10.84 23.949 11.984v31.234c-15.414 1.918-27.629 12.402-29.961 25.684-4.6445-2.2734-10.035-3.8477-16.672-3.8477h-0.32031c-4.5859 0.035156-8.5742 0.89453-12.184 2.1953-3.0117-12.512-14.883-22.215-29.648-24.039v-31.23c6.1406-1.1445 16.316-4.1484 23.949-11.984 11.379-11.68 12.27-29.184 12.301-29.922 0.0625-1.4141-0.47266-2.7891-1.4766-3.7891-1-1-2.3125-1.4766-3.7891-1.4648-0.72656 0.035156-17.891 0.95703-29.312 12.688-2.8398 2.918-5.0273 6.1953-6.7109 9.4883-1.6836-3.293-3.8711-6.5703-6.7109-9.4883-11.422-11.73-28.586-12.652-29.312-12.688-1.4688-0.019531-2.793 0.46875-3.7891 1.4648-1.0039 1-1.5391 2.375-1.4766 3.7891 0.03125 0.73828 0.92578 18.242 12.301 29.922 7.6328 7.8398 17.809 10.84 23.949 11.984v31.234c-15.504 1.9297-27.77 12.52-30 25.906-3.8281-2.0312-8.1602-3.5664-13.449-4.0508-14.988-1.3906-31.02 6.4336-47.613 23.227-1.957 1.9805-1.9375 5.168 0.039062 7.125 1.9766 1.957 5.1719 1.9375 7.125-0.039063 14.379-14.543 27.711-21.324 39.527-20.277 7.9648 0.73438 13.164 4.8203 19.18 9.5547 6.2344 4.8984 13.297 10.453 24.07 12.156 1.6562 0.26172 3.2461 0.38281 4.7695 0.38281 10.695 0 18.234-5.9883 24.988-11.348 2.8789-2.2852 5.707-4.4961 8.7305-6.3281 0.058593-0.023438 0.10547-0.066406 0.16016-0.09375 4.1758-2.5039 8.7422-4.2578 14.461-4.3008 10.145-0.035157 16.062 4.5195 23.035 9.8398 7.3867 5.6328 15.621 12.121 29.25 11.91 13.562-0.10156 22.121-6.625 29.676-12.383 6.9609-5.3047 12.879-9.8711 22.297-9.3789 8.4492 0.46094 13.207 4.6992 18.719 9.6094 6.043 5.3867 12.895 11.492 24.852 12.141 12.633 0.64453 20.977-5.2109 29.035-10.914 7.1211-5.043 13.852-9.8047 24.039-10.855 14.492-1.5039 30.801 5.4297 48.492 20.566 2.1172 1.8086 5.293 1.5625 7.1055-0.55078 1.8164-2.0977 1.5703-5.2773-0.54297-7.0859zm-288.98-103.48c4.9141-5.0469 11.535-7.4727 16.336-8.6289-1.1172 4.9805-3.4922 11.926-8.4922 17.059-4.9141 5.043-11.535 7.4727-16.336 8.6289 1.1172-4.9805 3.4922-11.926 8.4922-17.059zm-44.195-8.6289c4.8008 1.1562 11.422 3.5859 16.336 8.6289 5.0078 5.1406 7.3828 12.102 8.4961 17.082-4.7812-1.1445-11.387-3.5664-16.34-8.6523-5-5.1328-7.375-12.082-8.4922-17.059zm47.598 102.06c-7.2578 5.7656-12.996 10.316-21.918 8.9023-8.1836-1.293-13.637-5.582-19.414-10.125-0.45312-0.35547-0.91016-0.71094-1.3672-1.0664v-2.1758c0-11.336 11.391-20.555 25.398-20.555 13.387 0 24.266 8.4961 25.156 19.18-2.8086 1.8672-5.3984 3.8867-7.8555 5.8398zm95.457-93.43c4.9141-5.0469 11.539-7.4727 16.336-8.6289-1.1172 4.9805-3.4922 11.926-8.4922 17.059-4.9141 5.043-11.531 7.4727-16.332 8.6289 1.1172-4.9805 3.4922-11.926 8.4883-17.059zm-44.191-8.6523c4.7812 1.1445 11.387 3.5664 16.34 8.6523 5.0078 5.1406 7.3789 12.102 8.4961 17.082-4.7812-1.1445-11.387-3.5664-16.34-8.6523-5.0078-5.1406-7.3867-12.102-8.4961-17.082zm30.559 110.92c-9.8633-0.085938-16.078-4.5234-23.062-9.8477-0.85156-0.64844-1.7188-1.3086-2.6016-1.9648v-1.4922c0-11.336 11.391-20.555 25.398-20.555 13.965 0 25.328 9.2188 25.328 20.555v1.918c-0.47266 0.35547-0.95312 0.71484-1.4141 1.0664-6.9102 5.2656-13.441 10.242-23.648 10.32zm112.5-102.27c4.9141-5.0469 11.535-7.4727 16.332-8.6289-1.1133 4.9805-3.4922 11.926-8.4883 17.059-4.9141 5.043-11.535 7.4727-16.336 8.6289 1.1172-4.9805 3.4922-11.926 8.4922-17.059zm-44.195-8.6523c4.7812 1.1445 11.387 3.5664 16.34 8.6523 5 5.1328 7.375 12.082 8.4922 17.059-4.8008-1.1562-11.422-3.5859-16.336-8.6289-5.0078-5.1406-7.3828-12.102-8.4961-17.082zm27.867 110.93c-8.4336-0.45703-13.191-4.6953-18.699-9.6016-1.3633-1.2148-2.7773-2.4609-4.2695-3.6758v-0.03125c0-11.336 11.391-20.555 25.398-20.555 13.965 0 25.324 9.2188 25.324 20.555v0.72656c-1.7617 1.168-3.457 2.3516-5.0859 3.5078-7.2578 5.1367-13.52 9.5234-22.668 9.0742z"/>
</svg>