<?xml version="1.0" encoding="UTF-8"?>
<!-- The Best Svg Icon site in the world: iconSvg.co, Visit us! https://iconsvg.co -->
<svg fill="#000000" width="800px" height="800px" version="1.1" viewBox="144 144 512 512" xmlns="http://www.w3.org/2000/svg">
 <g>
  <path d="m587.41 198.47h-70.84c-8.3398 0-15.125 6.7852-15.125 15.121v35.891c0 0.54297 0.089844 1.0781 0.25391 1.5898 0.49219 1.4727 48.406 148.26-4.8281 222.07-20.148 27.93-52.723 42.094-96.82 42.094-44.172 0-76.785-14.176-96.945-42.133-53.184-73.77-5.1953-220.55-4.707-222.02 0.17187-0.51172 0.26172-1.0508 0.26172-1.5898v-35.891c0-8.3359-6.7852-15.121-15.121-15.121h-70.848c-7.8086 0-14.164 6.3555-14.164 14.164v21.172c0 5.8711 3.5312 11.047 9.0039 13.191l18.434 7.2148c-16.594 42.789-23.492 98.328-26.16 128.29-1.6172 18.219-1.1758 34.633 1.3594 50.176 15.961 97.832 99.602 168.84 198.89 168.84 99.285 0 182.93-71.008 198.89-168.84 2.5352-15.543 2.9766-31.957 1.3594-50.176-2.668-29.961-9.5664-85.5-26.16-128.29l18.434-7.2148c5.4727-2.1445 9.0039-7.3203 9.0039-13.191v-21.172c0.003906-7.8125-6.3555-14.168-14.164-14.168zm4.0898 35.336c0 1.6953-1.0195 3.1914-2.5977 3.8086l-23.168 9.0664c-1.2578 0.49219-2.2734 1.4727-2.8008 2.7188-0.53125 1.2461-0.53516 2.6562-0.019532 3.9023 17.473 42.105 24.633 99.578 27.344 130.09 1.543 17.371 1.1328 32.961-1.2695 47.664-15.16 92.934-94.617 160.39-188.94 160.39-94.32 0-173.78-67.453-188.94-160.39-2.4023-14.699-2.8125-30.293-1.2695-47.664 2.7109-30.512 9.875-87.984 27.344-130.09 0.51562-1.25 0.51172-2.6562-0.019531-3.9023-0.52344-1.2422-1.5391-2.2266-2.7969-2.7188l-23.168-9.0664c-1.5781-0.61719-2.5977-2.1133-2.5977-3.8086v-21.172c0-2.2539 1.8359-4.0898 4.0898-4.0898h70.848c2.7812 0 5.043 2.2617 5.043 5.0469v35.082c-4.2852 13.164-48.359 154.4 6.3438 230.3 22.156 30.742 57.523 46.328 105.12 46.328 47.523 0 82.844-15.57 104.99-46.273 54.734-75.887 10.746-217.2 6.4766-230.35v-35.086c0-2.7812 2.2617-5.0469 5.0469-5.0469h70.844c2.2539 0 4.0898 1.8359 4.0898 4.0898z"/>
  <path d="m489.86 526.76c-3.9805 2.8203-8.1289 5.4844-12.324 7.9102-2.4102 1.3906-3.2383 4.4727-1.8438 6.8789 0.93359 1.6172 2.6289 2.5195 4.3672 2.5195 0.85547 0 1.7227-0.21484 2.5156-0.67578 4.4688-2.582 8.8789-5.4102 13.113-8.4102 2.2734-1.6094 2.8047-4.7539 1.1953-7.0273-1.6094-2.2695-4.7539-2.8008-7.0234-1.1953z"/>
  <path d="m530.91 484.38c-5.4648 8.2227-11.715 15.988-18.582 23.086-1.9336 1.9961-1.8828 5.1875 0.11719 7.125 0.98047 0.94531 2.2383 1.418 3.5039 1.418 1.3203 0 2.6328-0.51562 3.6211-1.5352 7.293-7.5312 13.93-15.781 19.734-24.516 1.5391-2.3164 0.91016-5.4453-1.4062-6.9844-2.3281-1.543-5.4531-0.92187-6.9883 1.4062z"/>
  <path d="m551.23 305.02c-2.7227 0.59375-4.4414 3.2773-3.8516 5.9961 2.0273 9.2969 3.8555 19.316 5.4531 29.785 0.37891 2.4961 2.5234 4.2812 4.9727 4.2812 0.25 0 0.50781-0.015625 0.76172-0.054687 2.75-0.41797 4.6406-2.9883 4.2227-5.7383-1.6172-10.68-3.4922-20.91-5.5586-30.414-0.59766-2.7266-3.2891-4.4609-6-3.8555z"/>
  <path d="m556.6 370.91c0.28516 2.8398 0.52734 5.4727 0.73438 7.8594 0.49609 5.7422 0.75391 11.371 0.75391 16.734 0.003906 1.7656-0.023438 3.5234-0.078125 5.2852-0.09375 2.7812 2.0898 5.1055 4.8711 5.1992 0.054688 0.003907 0.10938 0.003907 0.16797 0.003907 2.707 0 4.9414-2.1484 5.0273-4.875 0.0625-1.8789 0.09375-3.7578 0.089844-5.625 0-5.6406-0.26562-11.562-0.79297-17.59-0.20703-2.4258-0.45703-5.0977-0.74219-7.9883-0.27734-2.7656-2.7695-4.7695-5.5117-4.5156-2.7734 0.27734-4.793 2.7422-4.5195 5.5117z"/>
  <path d="m560.23 426.34c-2.707-0.62109-5.418 1.0742-6.0312 3.7891-2.1992 9.6328-5.2891 19.113-9.1758 28.188-1.0977 2.5586 0.089843 5.5195 2.6484 6.6133 0.64453 0.27734 1.3203 0.41016 1.9844 0.41016 1.9531 0 3.8125-1.1445 4.6289-3.0547 4.1289-9.6289 7.4062-19.691 9.7383-29.914 0.61328-2.7109-1.082-5.4102-3.793-6.0312z"/>
  <path d="m549.23 278.73c-1.6562-5.1406-3.418-10.035-5.2461-14.543-1.043-2.582-3.9805-3.8203-6.5586-2.7812-2.5781 1.043-3.8242 3.9805-2.7812 6.5625 1.7305 4.2812 3.4102 8.9414 4.9883 13.855 0.6875 2.1367 2.668 3.4961 4.7969 3.4961 0.51172 0 1.0312-0.078125 1.543-0.24609 2.6562-0.85547 4.1094-3.6953 3.2578-6.3438z"/>
  <path d="m265.46 267.96c1.043-2.582-0.20312-5.5195-2.7812-6.5625-2.582-1.0352-5.5156 0.20312-6.5586 2.7812-1.8242 4.5078-3.5859 9.4023-5.2461 14.543-0.85156 2.6484 0.60547 5.4883 3.2539 6.3398 0.51562 0.16797 1.0312 0.24609 1.543 0.24609 2.1289 0 4.1094-1.3594 4.7969-3.4961 1.582-4.9102 3.2578-9.5703 4.9922-13.852z"/>
  <path d="m269.12 484.3c-1.5352-2.3164-4.6641-2.9531-6.9805-1.4102-2.3203 1.5391-2.9531 4.668-1.4102 6.9844 5.8047 8.7422 12.438 16.992 19.719 24.527 0.98828 1.0234 2.3008 1.5391 3.6211 1.5391 1.2578 0 2.5234-0.46875 3.5039-1.4141 1.9961-1.9336 2.0508-5.125 0.11719-7.125-6.8555-7.0977-13.102-14.871-18.57-23.102z"/>
  <path d="m241.55 344.91c0.25391 0.039063 0.51172 0.054688 0.76172 0.054688 2.4492 0 4.5938-1.7852 4.9727-4.2773 1.6055-10.516 3.4375-20.535 5.457-29.781 0.59375-2.7188-1.125-5.4062-3.8477-5.9961-2.6992-0.58594-5.4023 1.1289-5.9922 3.8477-2.0664 9.4531-3.9414 19.684-5.5742 30.41-0.42188 2.7539 1.4727 5.3203 4.2227 5.7422z"/>
  <path d="m237.21 405.87c2.7812-0.082032 4.9688-2.4102 4.8867-5.1875-0.054687-1.7305-0.078125-3.457-0.078125-5.1875 0-5.3516 0.25391-10.98 0.75391-16.727 0.21094-2.4141 0.45703-5.0859 0.74609-7.9766 0.27734-2.7656-1.7461-5.2383-4.5117-5.5117-2.793-0.26172-5.2344 1.7461-5.5156 4.5156-0.28906 2.9336-0.54688 5.6484-0.75781 8.1016-0.52734 6.0352-0.79297 11.957-0.79297 17.598 0 1.832 0.023438 3.6641 0.078125 5.4922 0.082031 2.7305 2.3203 4.8867 5.0312 4.8867 0.054688-0.003906 0.10938-0.003906 0.16016-0.003906z"/>
  <path d="m245.89 430.02c-0.62109-2.7148-3.332-4.4258-6.0273-3.793-2.7148 0.61719-4.4141 3.3203-3.793 6.0312 2.332 10.238 5.5977 20.309 9.7188 29.922 0.81641 1.9102 2.6758 3.0586 4.6289 3.0586 0.66406 0 1.3398-0.13281 1.9844-0.41016 2.5586-1.0938 3.7422-4.0547 2.6484-6.6133-3.8828-9.0586-6.9609-18.543-9.1602-28.195z"/>
  <path d="m322.58 534.67c-4.2227-2.4414-8.3672-5.1016-12.328-7.9102-2.2734-1.6055-5.418-1.0742-7.0195 1.1953-1.6094 2.2695-1.0781 5.418 1.1953 7.0273 4.2109 2.9844 8.6211 5.8164 13.105 8.4102 0.79688 0.46094 1.6641 0.67578 2.5195 0.67578 1.7422 0 3.4336-0.89844 4.3633-2.5156 1.3945-2.4102 0.57031-5.4922-1.8359-6.8828z"/>
 </g>
</svg>