<?xml version="1.0" encoding="UTF-8"?>
<!-- The Best Svg Icon site in the world: iconSvg.co, Visit us! https://iconsvg.co -->
<svg fill="#000000" width="800px" height="800px" version="1.1" viewBox="144 144 512 512" xmlns="http://www.w3.org/2000/svg">
 <g>
  <path d="m444.63 397.4-8.582 6.8477c-1.7305 1.3398-3.9375 1.8086-5.9844 1.1797-2.125-0.62891-3.6992-2.125-4.4102-4.1719l-69.188-196.41c-0.15625-0.47266-0.31641-0.94531 0.47266-1.418 0.31641-0.15625 0.55078-0.23438 0.70703-0.23438 0.39453 0 0.62891 0.23438 0.78516 0.47266l42.508 49.988z"/>
  <path d="m491.63 360.16-33.691 26.766-31.41-103.2z"/>
  <path d="m404.25 436.05-44.004 55.734-156.57-133.36c-0.31641-0.23438-0.78516-0.62891-0.23438-1.4961 0.23438-0.47266 0.55078-0.62891 0.86719-0.62891 0.15625 0 0.39453 0.078124 0.55078 0.15625l196.41 69.195c2.0469 0.70703 3.543 2.2812 4.1719 4.4102 0.62891 2.0469 0.15625 4.25-1.1836 5.9844z"/>
  <path d="m409.76 501.31-12.516 15.664 12.438-15.742z"/>
  <path d="m508 384.33-22.434 17.711-5.9062 4.7227-4.957 3.9375-8.2656-10.473 33.219-26.371z"/>
  <path d="m595.86 528.31c-2.832 14.09-11.73 29.207-25.031 42.508-13.305 13.305-28.418 22.199-42.508 25.031-9.2109 1.8086-22.199 1.9688-32.355-8.1875l-98.715-70.691 12.516-15.66 89.977 65.023c0.62891 4.7227 2.5195 8.7383 5.668 11.887 11.965 11.965 36.684 5.3516 57.387-15.43 20.781-20.781 27.395-45.422 15.43-57.387-3.1484-3.1484-7.1641-5.0391-11.887-5.668l-65.102-90.055 15.742-12.438 69.824 97.77 1.1797 1.2578c9.8438 9.8398 9.6875 22.832 7.875 32.039z"/>
  <path d="m410.63 474.78-3.8594 4.8789-22.434 28.34-10.473-8.3438 26.375-33.219z"/>
 </g>
</svg>