<?xml version="1.0" encoding="UTF-8"?>
<!-- The Best Svg Icon site in the world: iconSvg.co, Visit us! https://iconsvg.co -->
<svg fill="#000000" width="800px" height="800px" version="1.1" viewBox="144 144 512 512" xmlns="http://www.w3.org/2000/svg">
 <g>
  <path d="m596.66 575.73c-10.23 0-15.586 5.1328-19.891 9.2617-3.9102 3.75-6.7344 6.457-12.91 6.457s-9-2.707-12.91-6.457c-4.3047-4.1289-9.6641-9.2617-19.891-9.2617-10.219 0-15.57 5.1367-19.875 9.2617-3.9102 3.75-6.7344 6.457-12.902 6.457-6.1602 0-8.9805-2.707-12.887-6.4531-4.3008-4.1289-9.6484-9.2656-19.863-9.2656-10.219 0-15.57 5.1367-19.871 9.2617-3.9062 3.75-6.7305 6.457-12.895 6.457s-8.9844-2.707-12.891-6.457c-4.3008-4.125-9.6523-9.2617-19.867-9.2617-10.215 0-15.566 5.1367-19.867 9.2617-3.9062 3.75-6.7266 6.457-12.891 6.457s-8.9844-2.707-12.891-6.457c-4.3008-4.125-9.6523-9.2617-19.867-9.2617-10.215 0-15.566 5.1367-19.863 9.2656-3.9023 3.7461-6.7227 6.4531-12.879 6.4531s-8.9727-2.707-12.875-6.4531c-4.2969-4.1289-9.6445-9.2656-19.852-9.2656-10.215 0-15.566 5.1367-19.867 9.2617-3.9062 3.75-6.7266 6.457-12.891 6.457-6.1602 0-8.9805-2.707-12.887-6.4531-4.3008-4.1289-9.6484-9.2656-19.867-9.2656-2.7852 0-5.0391 2.2539-5.0391 5.0391 0 2.7812 2.2539 5.0391 5.0391 5.0391 6.1641 0 8.9844 2.707 12.891 6.457 4.3008 4.125 9.6484 9.2617 19.863 9.2617s15.566-5.1367 19.867-9.2617c3.9062-3.75 6.7266-6.457 12.891-6.457 6.1562 0 8.9727 2.707 12.875 6.4531 4.2969 4.1289 9.6445 9.2656 19.852 9.2656 10.211 0 15.562-5.1367 19.855-9.2617 3.9062-3.75 6.7266-6.457 12.887-6.457 6.1641 0 8.9844 2.707 12.891 6.457 4.3008 4.125 9.6523 9.2617 19.867 9.2617s15.566-5.1367 19.867-9.2617c3.9062-3.75 6.7266-6.457 12.891-6.457 6.1641 0 8.9844 2.707 12.891 6.457 4.3008 4.125 9.6523 9.2617 19.867 9.2617 10.219 0 15.57-5.1367 19.871-9.2617 3.9062-3.75 6.7305-6.457 12.895-6.457 6.1602 0 8.9805 2.707 12.887 6.4531 4.3008 4.1289 9.6484 9.2656 19.863 9.2656 10.219 0 15.57-5.1367 19.875-9.2617 3.9062-3.75 6.7305-6.457 12.898-6.457 6.1797 0 9.0039 2.707 12.922 6.4609 4.3008 4.1211 9.6602 9.2578 19.883 9.2578s15.582-5.1328 19.883-9.2578c3.918-3.75 6.7422-6.4609 12.922-6.4609 2.7852 0 5.0391-2.2539 5.0391-5.0391-0.003906-2.7812-2.2578-5.0391-5.043-5.0391z"/>
  <path d="m203.51 548.79c6.1641 0 8.9844 2.707 12.891 6.4531 4.3008 4.1289 9.6484 9.2617 19.863 9.2617s15.566-5.1328 19.867-9.2617c3.9062-3.7461 6.7266-6.4531 12.891-6.4531 6.1562 0 8.9727 2.707 12.875 6.4531 4.2969 4.125 9.6445 9.2617 19.852 9.2617 10.211 0 15.562-5.1328 19.855-9.2617 3.9062-3.7461 6.7266-6.4531 12.887-6.4531 6.1641 0 8.9844 2.707 12.891 6.4531 4.3008 4.1289 9.6523 9.2617 19.867 9.2617s15.566-5.1328 19.867-9.2617c3.9062-3.7461 6.7266-6.4531 12.891-6.4531 6.1641 0 8.9844 2.707 12.891 6.4531 4.3008 4.1289 9.6523 9.2617 19.867 9.2617 10.219 0 15.57-5.1328 19.871-9.2617 3.9062-3.7461 6.7305-6.4531 12.895-6.4531 6.1602 0 8.9805 2.707 12.887 6.4531 4.3008 4.125 9.6484 9.2617 19.863 9.2617 10.219 0 15.57-5.1328 19.875-9.2578 3.9062-3.75 6.7305-6.457 12.898-6.457 6.1797 0 9.0039 2.707 12.922 6.4609 4.3008 4.1211 9.6562 9.2578 19.883 9.2578 10.223 0 15.582-5.1328 19.883-9.2578 3.918-3.75 6.7422-6.4609 12.922-6.4609 2.7852 0 5.0391-2.2539 5.0391-5.0391 0-2.7812-2.2539-5.0391-5.0391-5.0391-10.23 0-15.586 5.1328-19.891 9.2578-3.9102 3.75-6.7344 6.457-12.91 6.457s-9-2.707-12.91-6.457c-4.3047-4.125-9.6641-9.2578-19.891-9.2578-10.219 0-15.57 5.1328-19.875 9.2578-3.9062 3.75-6.7305 6.457-12.898 6.457-6.1602 0-8.9805-2.707-12.887-6.4531-4.3008-4.125-9.6484-9.2617-19.863-9.2617-10.219 0-15.57 5.1328-19.871 9.2617-3.9062 3.7461-6.7305 6.4531-12.895 6.4531-6.1641 0-8.9844-2.707-12.891-6.4531-4.3008-4.1289-9.6523-9.2617-19.867-9.2617s-15.566 5.1328-19.867 9.2617c-3.9062 3.7461-6.7266 6.4531-12.891 6.4531-6.1641 0-8.9844-2.707-12.891-6.4531-4.3008-4.1289-9.6523-9.2617-19.867-9.2617s-15.562 5.1367-19.863 9.2617c-3.9023 3.75-6.7266 6.4531-12.879 6.4531-6.1562 0-8.9727-2.707-12.875-6.4531-4.2969-4.125-9.6445-9.2617-19.852-9.2617-10.215 0-15.566 5.1328-19.867 9.2617-3.9062 3.7461-6.7266 6.4531-12.891 6.4531-6.1602 0-8.9805-2.707-12.887-6.4531-4.3086-4.125-9.6562-9.2617-19.875-9.2617-2.7852 0-5.0391 2.2539-5.0391 5.0391 0.003906 2.7812 2.2539 5.0391 5.0391 5.0391z"/>
  <path d="m203.97 518.39h392.52c2.7852 0 5.0391-2.2539 5.0391-5.0391 0-2.7812-2.2539-5.0391-5.0391-5.0391h-128.04l-26.285-139.74 41.043 29.008c0.85547 0.60547 1.875 0.92188 2.9062 0.92188 0.35938 0 0.72266-0.039062 1.0781-0.11719 1.3867-0.30078 2.5781-1.1719 3.2852-2.4023l23.559-40.797c0.70703-1.2266 0.86719-2.6953 0.4375-4.043-0.42969-1.3516-1.4062-2.457-2.6914-3.0508l-68.422-31.543 68.422-31.547c1.2852-0.59375 2.2617-1.6992 2.6914-3.0508 0.42969-1.3516 0.26953-2.8164-0.4375-4.043l-23.559-40.797c-0.70703-1.2266-1.8984-2.0977-3.2852-2.4023-1.3672-0.30469-2.8281-0.007813-3.9844 0.80469l-61.527 43.484 6.8906-75.031c0.12891-1.4102-0.34375-2.8086-1.3008-3.8555-0.95312-1.043-2.3008-1.6367-3.7188-1.6367h-47.105c-1.418 0-2.7656 0.59375-3.7188 1.6445-0.95312 1.0469-1.4258 2.4453-1.3008 3.8555l6.8906 75.031-61.523-43.492c-1.1523-0.8125-2.6016-1.1094-3.9844-0.80469-1.3867 0.30078-2.5781 1.1719-3.2852 2.4023l-23.559 40.797c-0.70703 1.2266-0.86719 2.6953-0.4375 4.043 0.42969 1.3516 1.4062 2.457 2.6914 3.0508l68.422 31.547-68.426 31.543c-1.2852 0.59375-2.2617 1.6992-2.6914 3.0508-0.42969 1.3516-0.26953 2.8164 0.4375 4.043l23.559 40.797c0.70703 1.2266 1.8984 2.0977 3.2852 2.4023 0.35547 0.078125 0.71875 0.11719 1.0781 0.11719 1.0312 0 2.0508-0.31641 2.9062-0.92188l41.051-29.012-26.289 139.75h-127.58c-2.7852 0-5.0391 2.2539-5.0391 5.0391 0 2.7812 2.2539 5.0391 5.0352 5.0391zm280.54-132.23-62.918-44.465c5.6055-4.8203 9.5859-11.465 11.004-19.016l69.949 32.246zm-84.508-92.727c12.742 0 23.113 10.367 23.113 23.113 0 12.742-10.371 23.109-23.113 23.109s-23.113-10.367-23.113-23.113c-0.003907-12.738 10.367-23.109 23.113-23.109zm-10.984 54.395c3.4453 1.2109 7.1289 1.9062 10.984 1.9062s7.5391-0.69531 10.984-1.9062l7.0508 76.719h-36.062zm95.492-100.9 18.035 31.23-69.949 32.25c-1.418-7.5508-5.3984-14.195-11.004-19.016zm-66.477-38.383-7.0508 76.719c-3.4414-1.2148-7.1289-1.9062-10.98-1.9062-3.8555 0-7.5391 0.69531-10.984 1.9062l-7.0508-76.719zm-102.54 38.383 62.914 44.465c-5.6055 4.8203-9.5859 11.465-11.004 19.016l-69.949-32.25zm0 139.23-18.035-31.23 69.949-32.246c1.418 7.5508 5.3984 14.195 11.004 19.016zm54.176-25.949 8.6562-6.1172-6.8906 75.031c-0.12891 1.4102 0.34375 2.8086 1.3008 3.8555 0.95312 1.0469 2.3008 1.6445 3.7188 1.6445h47.105c1.418 0 2.7656-0.59375 3.7188-1.6445 0.95312-1.0469 1.4258-2.4453 1.3008-3.8555l-6.8906-75.031 8.6641 6.1211 27.852 148.1h-116.4z"/>
 </g>
</svg>