<?xml version="1.0" encoding="UTF-8"?>
<!-- The Best Svg Icon site in the world: iconSvg.co, Visit us! https://iconsvg.co -->
<svg fill="#000000" width="800px" height="800px" version="1.1" viewBox="144 144 512 512" xmlns="http://www.w3.org/2000/svg">
 <g>
  <path d="m468.53 240.64c1.0078 0 1.9648 0.40234 2.7227 1.1094 1.4609 1.4609 1.4102 3.8789-0.050781 5.3398l-26.098 25.797 4.2812-0.90625c10.832-2.418 26.199-7.6562 37.633-18.941 14.004-13.855 18.793-33.402 20.355-43.832l0.30078-1.6641-1.7109 0.25391c-10.531 1.5625-30.328 6.2969-44.387 20.203-8.1602 8.0625-14.207 18.941-17.938 32.395l-1.2578 4.5859 23.477-23.277c0.75781-0.71094 1.6641-1.0625 2.6719-1.0625z"/>
  <path d="m416.89 320.04c0.15234-6.2461 1.5625-12.395 3.9805-18.086 2.4688-5.7422 5.9961-10.984 10.48-15.418l5.0898-5.0391-3.2266-7.4531-7.2031 7.1055c-6.0977 6.0469-10.73 13.504-13.504 21.613-1.9648 5.543-3.0742 11.387-3.1758 17.332v1.2109h7.5586z"/>
  <path d="m380.66 305.89c1.5117 4.5859 2.3672 9.3203 2.4688 14.156l0.050782 1.2578h7.5586l-0.050781-1.2109c-0.10156-5.0898-0.90625-10.125-2.3672-14.965-2.6719-9.0195-7.5586-17.332-14.258-23.98l-7.2031-7.0977-3.2227 7.457 5.0898 5.0391c5.4375 5.3867 9.5664 12.09 11.934 19.344z"/>
  <path d="m313.05 253.04c11.488 11.336 26.801 16.574 37.684 18.941l4.2305 0.90625-26.098-25.797c-1.4609-1.4609-1.5117-3.8789-0.050782-5.3398 0.75391-0.70703 1.7148-1.1094 2.7188-1.1094 1.0078 0 1.9141 0.35156 2.6211 1.0586l23.477 23.227-1.2578-4.5352c-3.7266-13.453-9.7734-24.383-17.887-32.395-14.105-13.957-33.855-18.691-44.387-20.254l-1.7109-0.25391 0.25 1.7148c1.6172 10.43 6.4062 29.98 20.41 43.836z"/>
  <path d="m416.84 367.61h21.816v76.379h-21.816z"/>
  <path d="m458.25 354.55v-20.152c0-3.0742-2.4688-5.543-5.6445-5.543h-105.14c-3.1758 0-5.6445 2.4688-5.6445 5.543v20.152c0 3.0742 2.4688 5.4922 5.6445 5.4922h105.14c3.1758 0 5.6445-2.418 5.6445-5.4922z"/>
  <path d="m515.38 560.16-75.625-77.488c-0.70703-0.70703-1.1094-1.6133-1.1094-2.6211v-28.516l-77.23 0.003906v28.516c0 1.0078-0.40234 1.9141-1.1094 2.6211l-75.672 77.484c-3.125 3.2227-4.2305 7.6562-3.0234 11.891 1.2578 4.2812 4.6367 7.457 8.9688 8.4648 33.555 7.8594 71.289 11.992 109.23 11.992 37.988 0 75.824-4.1836 109.53-12.043 4.4336-1.0078 7.8086-4.1836 9.0195-8.4648 1.2578-4.2344 0.14844-8.668-2.9727-11.84zm-106.36-3.8281c-7.9609 0-14.461-6.4492-14.461-14.359s6.5-14.359 14.461-14.359c8.0117 0 14.508 6.4492 14.508 14.359s-6.4961 14.359-14.508 14.359zm14.66-35.871c-8.0117 0-14.461-6.4492-14.461-14.359 0-7.9102 6.4492-14.359 14.461-14.359 7.9609 0 14.461 6.4492 14.461 14.359 0 7.9102-6.5 14.359-14.461 14.359zm32.195 39.898c-7.9609 0-14.461-6.4492-14.461-14.359s6.5-14.359 14.461-14.359c8.0117 0 14.461 6.4492 14.461 14.359-0.003906 7.9141-6.4531 14.359-14.461 14.359z"/>
  <path d="m390.74 367.61h18.539v76.379h-18.539z"/>
  <path d="m361.42 367.61h21.766v76.379h-21.766z"/>
 </g>
</svg>