<?xml version="1.0" encoding="UTF-8"?>
<!-- The Best Svg Icon site in the world: iconSvg.co, Visit us! https://iconsvg.co -->
<svg fill="#000000" width="800px" height="800px" version="1.1" viewBox="144 144 512 512" xmlns="http://www.w3.org/2000/svg">
 <path d="m292.38 499.25v26.531l4.8867 18.297h-15.941l-10.934-18.297-14-66.16 45.637 15.582zm190.86 44.828h15.941v-18.297l6.5781-41.922h-46.621zm143.47-106.27h-0.003907l-12.262 7.6641c-29.023 18.141-62.566 27.762-96.797 27.762l-62.766-0.003907-19.461 52.551v18.297h-15.941l-6.2188-18.297-5.7578-62.473c-0.52734-5.7266 1.5234-11.395 5.5859-15.461l9.9297-10.062h-14.898l-4.2539 4.2539c-5.1484 5.1484-7.8438 12.258-7.4062 19.527l0.70703 11.668h-45.227c-15.094 0-30.082-2.4883-44.359-7.3711l-60.535-20.68-21.695 54.062 0.050782 26.531 4.5586 18.297h-15.941l-12.484-18.297-27.223-161.23c-2.957-18.008 0.59766-36.305 9.7422-51.762-6.6055-6.0195-10.77-14.668-10.77-24.293 0-16.594 12.344-30.375 28.34-32.59v10.77c-10.098 2.125-17.715 11.105-17.715 21.82 0 6.0469 2.4219 11.527 6.3477 15.547l4.8906-5.8086c14.48-14.883 34.109-21.738 54.957-23.008 118.89-7.2305 291.02 52.652 291.02 52.652l30.148-14.469 27.09-27.09v33.945c0 15.781-12.793 28.574-28.574 28.574h-1.2578l29.762 53.234 17.785 7.4023c0.003906-3.0273 2.5391-5.4648 5.6016-5.3047 2.875 0.14453 5.0312 2.7266 5.0312 5.6016zm-63.797-52.395-19.352 2.832 9.6797 7.0781h9.6797v-9.9102z"/>
</svg>