<?xml version="1.0" encoding="UTF-8"?>
<!-- The Best Svg Icon site in the world: iconSvg.co, Visit us! https://iconsvg.co -->
<svg fill="#000000" width="800px" height="800px" version="1.1" viewBox="144 144 512 512" xmlns="http://www.w3.org/2000/svg">
 <g>
  <path d="m635.92 626.38-39.359-157.44c-0.87891-3.5039-4.0234-5.957-7.6367-5.957h-330.62v-47.723c44.082-4.9023 78.719-50.445 78.719-105.79h0.003907c0.38281-28.422-9.4414-56.043-27.695-77.836-9.5-40.645-33.008-67.797-58.898-67.797-25.891 0-49.398 27.152-58.898 67.797-18.25 21.793-28.078 49.414-27.695 77.836 0 55.34 34.637 100.88 78.719 105.79l0.003906 47.723h-31.488c-3.6094 0-6.7578 2.4531-7.6367 5.957l-39.359 157.44c-0.58984 2.3516-0.0625 4.8438 1.4297 6.7539 1.4922 1.9141 3.7812 3.0312 6.207 3.0312h456.58c2.4219 0 4.7109-1.1172 6.2031-3.0312 1.4922-1.9102 2.0195-4.4023 1.4297-6.7539zm-456.34-316.91c-0.4375-25.199 8.4375-49.676 24.93-68.738 0.96484-1.0508 1.6328-2.3359 1.9453-3.7305 7.3281-33.273 25.82-57.418 43.973-57.418 18.152 0 36.645 24.145 43.973 57.418 0.3125 1.3945 0.98047 2.6797 1.9453 3.7305 16.492 19.062 25.367 43.539 24.93 68.738 0 46.516-27.605 84.906-62.977 89.938v-34.043l20.059-9.9258v-0.003906c3.8906-1.9297 5.4844-6.6445 3.5586-10.539-1.9297-3.8945-6.6523-5.4883-10.547-3.5586l-13.07 6.4727v-50.145c0-2.0898-0.82812-4.0938-2.3047-5.5664-1.4766-1.4766-3.4766-2.3086-5.5664-2.3086-4.3477 0-7.8711 3.5273-7.8711 7.875v10.086l-12.508-10.875c-1.5781-1.3672-3.6367-2.0547-5.7188-1.9062-2.082 0.14453-4.0234 1.1172-5.3906 2.6953-1.3672 1.5742-2.0547 3.6328-1.9062 5.7148 0.14844 2.082 1.1172 4.0234 2.6953 5.3906l22.828 19.828v70.848c-35.371-5.0664-62.977-43.461-62.977-89.977zm275.52 255.84v-39.363h63.086l11.32 39.359zm78.941 15.742 11.32 39.359h-90.262v-39.359zm-260.49-15.742 9.2344-39.359 62.109-0.003906v39.359zm71.344 15.742v39.359h-84.23l9.2344-39.359zm-87.52-15.742h-61.805l9.8398-39.359h61.203zm29.125-55.105 7.3906-31.488h51.004v31.488zm74.137 15.742h78.723v39.359l-78.723 0.003906zm94.465-15.742v-31.488h49.492l9.0625 31.488zm79.508 15.742h60.016l9.8398 39.359-58.574 0.003906zm56.082-15.742h-60.613l-9.0625-31.488h61.805zm-151.33-31.488v31.488h-78.723v-31.488zm-222.14 0h60.473l-7.3828 31.488h-60.961zm-25.586 102.34h62.047l-9.2305 39.359h-62.656zm169 39.359v-39.359h78.723v39.359zm201.11 0-11.32-39.359h57.938l9.8398 39.359z"/>
  <path d="m502.34 321.28c12.527 0 24.539-4.9766 33.398-13.832 8.8555-8.8594 13.832-20.871 13.832-33.398s-4.9766-24.543-13.832-33.398c-8.8594-8.8594-20.871-13.836-33.398-13.836-12.527 0-24.543 4.9766-33.398 13.836-8.8594 8.8555-13.836 20.871-13.836 33.398 0.011719 12.523 4.9922 24.527 13.848 33.383 8.8555 8.8555 20.863 13.836 33.387 13.848zm0-78.719c8.3516 0 16.359 3.3164 22.266 9.2227 5.9023 5.9062 9.2227 13.914 9.2227 22.266s-3.3203 16.359-9.2227 22.266c-5.9062 5.9023-13.914 9.2227-22.266 9.2227-8.3516 0-16.363-3.3203-22.266-9.2227-5.9062-5.9062-9.2227-13.914-9.2227-22.266s3.3164-16.359 9.2227-22.266c5.9023-5.9062 13.914-9.2227 22.266-9.2227z"/>
  <path d="m494.46 195.32h15.742v15.742h-15.742z"/>
  <path d="m430.23 241.5 7.8711-13.633 13.633 7.8711-7.8711 13.633z"/>
  <path d="m430.23 306.58 13.637-7.8711 7.8711 13.637-13.637 7.8711z"/>
  <path d="m494.46 337.02h15.742v15.742h-15.742z"/>
  <path d="m552.94 312.36 7.8711-13.633 13.633 7.8711-7.8711 13.633z"/>
  <path d="m552.94 235.74 13.637-7.8711 7.8711 13.637-13.637 7.8711z"/>
  <path d="m376.38 486.59h15.742v15.742h-15.742z"/>
  <path d="m218.94 533.82h15.742v15.742h-15.742z"/>
  <path d="m305.54 596.8h15.742v15.742h-15.742z"/>
  <path d="m407.87 596.8h15.742v15.742h-15.742z"/>
  <path d="m557.44 541.7h15.742v15.742h-15.742z"/>
 </g>
</svg>