<?xml version="1.0" encoding="UTF-8"?>
<!-- The Best Svg Icon site in the world: iconSvg.co, Visit us! https://iconsvg.co -->
<svg fill="#000000" width="800px" height="800px" version="1.1" viewBox="144 144 512 512" xmlns="http://www.w3.org/2000/svg">
 <g>
  <path d="m494.46 376.38c-8.3477 0-16.359 3.3164-22.262 9.2227-5.9062 5.9062-9.2227 13.914-9.2227 22.266 0 8.3516 3.3164 16.359 9.2227 22.266 5.9023 5.9062 13.914 9.2227 22.262 9.2227 8.3516 0 16.363-3.3164 22.266-9.2227 5.9062-5.9062 9.2227-13.914 9.2227-22.266-0.007813-8.3477-3.3281-16.352-9.2305-22.254-5.9023-5.9062-13.906-9.2266-22.258-9.2344zm0 47.23c-4.1719 0-8.1797-1.6562-11.133-4.6094-2.9492-2.9531-4.6094-6.957-4.6094-11.133 0-4.1758 1.6602-8.1797 4.6094-11.133 2.9531-2.9531 6.9609-4.6133 11.133-4.6133 4.1758 0 8.1836 1.6602 11.133 4.6133 2.9531 2.9531 4.6133 6.957 4.6133 11.133-0.003906 4.1719-1.6641 8.1758-4.6172 11.125-2.9531 2.9531-6.9531 4.6133-11.129 4.6172z"/>
  <path d="m628.29 620.41h-23.617v-193.47c0-1.4727-0.41406-2.9141-1.1914-4.1602l-31.488-50.562c-0.59375-0.95312-1.3828-1.7656-2.3125-2.3906l-70.848-47.23h-0.003906c-2.6445-1.7656-6.0898-1.7656-8.7305 0l-58.609 39.07v-71.883h7.8711c2.0859 0 4.0898-0.82812 5.5664-2.3047 1.4766-1.4766 2.3047-3.4766 2.3047-5.5664v-31.488c0-2.9805-1.6836-5.707-4.3516-7.0391l-90.113-45.059v-10.879c-0.007813-6.2617-2.4961-12.262-6.9258-16.691-4.4258-4.4258-10.43-6.918-16.691-6.9258h-15.742c-6.2617 0.007812-12.266 2.5-16.691 6.9258-4.4258 4.4297-6.918 10.43-6.9258 16.691v10.879l-90.113 45.059c-2.6641 1.332-4.3516 4.0586-4.3516 7.0391v31.488c0 2.0898 0.83203 4.0898 2.3086 5.5664 1.4766 1.4766 3.4766 2.3047 5.5664 2.3047h7.8711v330.62h-39.359c-4.3477 0-7.875 3.5273-7.875 7.875 0 4.3477 3.5273 7.8711 7.875 7.8711h456.58c4.3477 0 7.8711-3.5234 7.8711-7.8711 0-4.3477-3.5234-7.875-7.8711-7.875zm-322.75-432.96c0.003906-4.3438 3.5273-7.8672 7.8711-7.8711h15.742c4.3477 0.003907 7.8672 3.5273 7.875 7.8711v7.8711h-31.488zm-6.0117 23.617h43.516l62.977 31.488h-169.47zm-88.453 47.23h220.42v15.742l-220.42 0.003906zm47.23 362.11h-31.488v-330.62h31.488zm62.977 0h-47.23v-47.23h47.23zm0-62.977h-47.23v-31.488h47.23zm0-47.23h-47.23v-31.488h47.23zm0-47.23h-47.23v-31.488h47.23zm0-47.23-47.23-0.003906v-31.488h47.23zm0-47.23-47.23-0.003906v-31.488h47.23zm0-47.23-47.23-0.007812v-31.488h47.23zm62.977 105.67v193.46h-47.23v-330.62h78.719v84.34l-30.297 48.652v0.003906c-0.77734 1.2461-1.1914 2.6875-1.1914 4.1602zm55.105 67.508v-15.742h110.21v15.742zm86.594 15.742-31.488 41.984-31.488-41.98zm-70.848 15.742 29.52 39.359-29.52 39.359zm7.8711 94.465 31.488-41.984 31.484 41.988zm70.848-15.742-29.52-39.359 29.52-39.359zm55.105 15.742-39.363 0.003906v-110.21h7.8711c2.0898 0 4.0898-0.82812 5.5664-2.3047 1.4766-1.4766 2.3086-3.4805 2.3086-5.5664v-31.488c0-2.0898-0.83203-4.0898-2.3086-5.5664-1.4766-1.4766-3.4766-2.3047-5.5664-2.3047h-125.95c-4.3477 0-7.875 3.5234-7.875 7.8711v31.488c0 2.0859 0.83203 4.0898 2.3086 5.5664 1.4766 1.4766 3.4766 2.3047 5.5664 2.3047h7.8711v110.21h-39.359v-191.22l29.398-47.203 65.062-43.379 65.066 43.379 29.398 47.203z"/>
 </g>
</svg>