<?xml version="1.0" encoding="UTF-8"?>
<!-- The Best Svg Icon site in the world: iconSvg.co, Visit us! https://iconsvg.co -->
<svg fill="#000000" width="800px" height="800px" version="1.1" viewBox="144 144 512 512" xmlns="http://www.w3.org/2000/svg">
 <g>
  <path d="m614.67 292.97c-0.10547-0.20703-0.22266-0.40234-0.34766-0.58984l-21.828-32.746c-0.11719-0.17969-0.24609-0.35156-0.38281-0.51953-13.41-16.238-29.055-24.465-46.496-24.465-36.582 0-67.602 36.656-70.555 40.25-17.07 17.652-46.184 29.301-51.887 31.473h-164.98l-2.0234-0.015625c-29.094 0-50.203 9.3594-62.73 27.824-27.406 40.402-3.4883 110.71 1.6719 124.6l-15.949 42.27c-0.27344 0.70703-0.41406 1.4688-0.41406 2.2266v54.16c0 0.99219 0.23828 1.9766 0.68359 2.8555l11.07 21.738v11.082c0 3.4766 2.8203 6.2969 6.2969 6.2969l24.352 0.003907h0.10156c3.4766 0 6.2969-2.8203 6.2969-6.2969 0-0.98438-0.22656-1.918-0.62891-2.7461l-6.9844-24.824 2.3477-43.055 0.12109-0.14453v36.707l13.504 24.41h39.242l-17.477-33.859v-41.66l27.941-36.031c13.297 3.6289 33.746 5.4727 61.035 5.4727 23.191 0 47.266-1.3359 64.891-2.5938l4.1602 34.777-139.56-0.007813v12.594h141.07l0.75 6.2969-2.3711 19.734-96.195 0.003906v12.594h94.688l-0.81641 6.8047 14.66 25.102h28.027l1.2383 2.8984c0.99219 2.3164 3.2695 3.8203 5.7891 3.8203h29.391c2.3125 0 4.4375-1.2695 5.543-3.3008 1.0977-2.0352 0.99219-4.5078-0.27344-6.4453l-13.461-20.582-0.94531-8.293h84.68v-12.594h-86.125l-0.61328-5.4102 8.3984-20.621h112.44v-12.594h-109.63l8.4844-41.211c11.926-0.67188 21.844-4.9688 29.52-12.801 20.035-20.461 19.242-58.844 18.766-81.785-0.054688-2.7773-0.10547-5.2617-0.10547-7.3711 0-15.809 17.504-34.762 26.922-43.211 5.6172 1.918 16.715 5.2617 25.988 5.2617 3.668 0 6.7344-0.49219 9.3828-1.5117 3.7031-1.4258 6.4023-4.1328 7.8008-7.8242 3.6641-9.6523-3.082-23.473-4.4727-26.148zm-11.031 6.0977c1.3164 2.5938 2.6914 6.2812 3.4453 9.5508-7.2539-2.9883-11.059-10.914-11.254-11.336l-11.457 5.2305c0.22266 0.48047 3.293 7.043 9.5469 12.496-6.1328-1.1328-12.133-3.1133-15.074-4.1562l-24.973-39.469c-0.085938-0.125-0.16016-0.24609-0.24219-0.36719 2.5586 0.40234 5.9141 1.2539 8.793 2.3008l1.0547 0.38281h23.266zm-358.56 204.57v49.027l9.3945 18.203h-11.141l-8.332-15.059v-48.531l34.32-41.059 3.7188 1.3672zm190.08 76.469-8.8867-15.203 4.3789-36.434-6.5352-54.637c3.3359-0.27344 6.2188-0.52344 8.4297-0.72656l13.062 51.324 3.5312 51.496c0.050781 0.70703 0.21484 1.3945 0.49219 2.0469l0.91797 2.1406zm101.29-213.7c0 2.1875 0.054687 4.7578 0.10938 7.6328 0.40234 19.582 1.1523 56.035-15.176 72.703-6.0039 6.1367-13.816 9.1172-23.859 9.1172l-1.6055-0.023437c-3.2227-0.15625-5.75 2.0234-6.3672 5.0234l-11.637 56.531-9.0117 22.137c-0.39844 0.97656-0.54297 2.0391-0.42969 3.0898l3.3555 29.387c0.10938 0.97266 0.45312 1.9141 0.98828 2.7344l7.8984 12.082h-13.594l-5.5-12.832-3.4961-50.996c-0.023438-0.37891-0.089844-0.75-0.17969-1.125l-14.535-57.098c-0.23828-0.94141-0.72656-1.7266-1.3047-2.4297l0.046875-0.039062c-26.992-32.492-9.8555-57.594-9.1133-58.648l-10.219-7.3594c-0.22266 0.30859-20.219 28.793 2.8477 64.766-16.359 1.3867-48.492 3.7266-79.023 3.7266-28.648 0-49.844-2.1055-61.191-6.0508l-6.6602-2.4531c18.617-22.012 10.918-50.012 10.535-51.328l-12.098 3.5c0.082031 0.28125 7.8203 28.066-13.84 45.395l0.046875 0.054688c-0.32422 0.26172-0.66406 0.5-0.94141 0.82812l-51.219 61.297c-0.87109 1.043-1.3789 2.3438-1.457 3.6914l-2.5195 46.184c-0.039062 0.69531 0.035157 1.3789 0.22656 2.0508l5.3047 18.863h-9.7383v-6.2969c0-0.99219-0.23047-1.9766-0.68359-2.8555l-11.074-21.742v-51.496l16.391-43.422c0.55469-1.4727 0.53906-3.0898-0.039062-4.5508-0.074219-0.1875-1.9062-4.875-4.2422-12.383 2.8164-0.80078 5.0391-2.1719 6.6094-3.5664 12.496-11.117 9.6484-40.613 8.9531-46.41l-12.504 1.5078c1.4102 11.703 0.84766 30.461-4.8203 35.5-0.41797 0.37109-0.94531 0.71875-1.6719 0.91797-6.6992-25.762-12.977-65.957 3.8477-90.75 10.039-14.801 27.641-22.305 52.305-22.305l168.14 0.015625c0.72656 0 1.4375-0.12109 2.1172-0.36719 1.5-0.53516 36.953-13.348 57.895-35.156 0.12109-0.125 0.24609-0.26563 0.35156-0.40234 0.29297-0.35938 29.348-35.789 60.941-35.789 11.246 0 21.695 4.6992 31.172 13.863h-11.105c-8.6406-3.0273-19.469-5.0977-24.289 1.0195-3.1758 4.0312-2.5 9.4922 1.918 16.117l23.16 36.605c-9.1719 8.4219-30.02 29.98-30.02 51.535z"/>
  <path d="m497.11 293.15c4.0742-4.6562 17.898-13.305 32.34-20.027l-5.3125-11.422c-18.586 8.6406-40.727 21.32-40.656 32.656 0.015625 2.457 0.96094 6.9961 7.1445 9.7773 3.2812 1.4766 6.5195 2.1016 9.6484 2.1016 17.086 0 30.934-18.691 31.613-19.629l-10.184-7.418c-0.12891 0.19141-13.113 17.426-24.594 13.961z"/>
  <path d="m314.77 345c-14.816 0-26.867 12.055-26.867 26.867h12.594c0-7.875 6.4023-14.273 14.273-14.273z"/>
  <path d="m243.09 351.57c3.7773-0.47266 7.5273 0.55859 10.531 2.9062l7.7422-9.9336c-5.6641-4.4141-12.695-6.3672-19.824-5.4727-7.125 0.88281-13.477 4.4883-17.887 10.148l9.9336 7.7422c2.3477-3.0078 5.7227-4.9219 9.5039-5.3906z"/>
  <path d="m370.21 351.55 12.383-2.3008c-1.3164-7.0586-5.2969-13.18-11.215-17.242-5.918-4.0625-13.074-5.5703-20.121-4.2578l2.3086 12.383c3.7539-0.69531 7.5469 0.10547 10.691 2.2617 3.1406 2.1602 5.2578 5.4062 5.9531 9.1562z"/>
  <path d="m333.46 378.55c-6.6055 2.8125-11.719 8.0273-14.398 14.68l11.684 4.7109c1.4258-3.5352 4.1406-6.3086 7.6484-7.8008 3.5117-1.4922 7.3945-1.5312 10.922-0.10547l4.7109-11.68c-6.6523-2.6875-13.961-2.6094-20.566 0.19531z"/>
  <path d="m376.59 441.66c-2.7344-2.6484-4.2773-6.2109-4.332-10.02l-12.594 0.1875c0.10938 7.1797 3.0078 13.887 8.168 18.879 5.0469 4.9023 11.672 7.582 18.691 7.582 0.14062 0 0.28906-0.003907 0.42969-0.003907l-0.19531-12.594c-3.8633-0.10547-7.4297-1.375-10.168-4.0312z"/>
  <path d="m495.6 340.54 2.9609-12.242c-14.398-3.4766-28.949 5.3906-32.434 19.789l12.242 2.9688c1.8477-7.6562 9.5781-12.359 17.23-10.516z"/>
  <path d="m447.57 420 1.7852 12.469c7.7734-1.1289 15.035 4.3164 16.148 12.113l12.469-1.7852c-2.0898-14.66-15.664-24.891-30.402-22.797z"/>
  <path d="m325.17 427.08c-3.4727-1.582-6.1172-4.4219-7.4531-7.9961l-11.801 4.418c2.5195 6.7227 7.4961 12.062 14.031 15.035 3.5508 1.6172 7.332 2.4297 11.125 2.4297 3.1797 0 6.3672-0.57031 9.4297-1.7188l-4.418-11.801c-3.5742 1.3398-7.4453 1.2109-10.914-0.36719z"/>
  <path d="m421.08 340.68c-1.9141 6.918-1.0195 14.168 2.5234 20.41l10.953-6.2109c-1.8789-3.3164-2.3516-7.1641-1.3398-10.836 1.0195-3.6719 3.4062-6.7344 6.7227-8.6133l-6.207-10.957c-6.2461 3.5234-10.742 9.2891-12.652 16.207z"/>
  <path d="m381.63 379.62c2.6953 2.6953 4.1797 6.2812 4.1797 10.09 0 3.8125-1.4844 7.3945-4.1797 10.098l8.9062 8.9062c5.0781-5.0742 7.875-11.824 7.875-19 0-7.1758-2.7969-13.926-7.875-19z"/>
  <path d="m502.09 374.91c-2.9336 2.4375-6.6641 3.5664-10.43 3.2461l-1.1523 12.539c0.83594 0.082031 1.6719 0.11719 2.5039 0.11719 6.2539 0 12.262-2.168 17.129-6.2188 5.5156-4.5898 8.918-11.055 9.5742-18.203l-12.543-1.1523c-0.34766 3.7969-2.1562 7.2344-5.082 9.6719z"/>
  <path d="m500.69 411.05c1.8672 3.3242 2.332 7.1797 1.3047 10.848-1.0273 3.668-3.4258 6.7227-6.7461 8.5859l6.1719 10.984c6.2539-3.5156 10.766-9.2617 12.699-16.168 1.9414-6.9141 1.0664-14.168-2.4492-20.418z"/>
  <path d="m240.58 386.91-7.3398 10.23c4.7305 3.3906 10.195 5.0273 15.617 5.0273 8.375 0 16.629-3.8945 21.871-11.199l-10.23-7.3398c-4.582 6.3945-13.52 7.8672-19.918 3.2812z"/>
  <path d="m241.43 432.74c-2.5078 2.8672-5.9844 4.5859-9.7891 4.8398l0.83594 12.566c7.1602-0.47266 13.707-3.707 18.434-9.1172 4.7266-5.3945 7.0625-12.312 6.5898-19.477l-12.566 0.83594c0.25 3.8008-0.99219 7.4844-3.5039 10.352z"/>
 </g>
</svg>