<?xml version="1.0" encoding="UTF-8"?>
<!-- The Best Svg Icon site in the world: iconSvg.co, Visit us! https://iconsvg.co -->
<svg fill="#000000" width="800px" height="800px" version="1.1" viewBox="144 144 512 512" xmlns="http://www.w3.org/2000/svg">
 <path d="m614.05 341.52h-23.145c0.72266-2.2188 1.2109-4.5352 1.2109-6.9922 0-9.8086-6.2344-18.184-14.941-21.379 0.015624-0.33203 0.015624-0.66016 0.015624-0.99219 0-16.688-13.555-30.246-30.246-30.246-11.117 0-21.051 5.9336-26.23 15.242-8.4688 1.4648-15.352 7.5898-17.887 15.633-9.2422 2.9141-15.965 11.539-15.965 21.742 0 2.457 0.48828 4.7695 1.2109 6.9922h-7.2578c-8.9102-4.1875-18.91-5.4336-28.371-3.2734-9.8398 2.1719-18.5 7.5586-24.688 15.223-8.7695-4.3281-18.863-5.6211-28.766-3.3516-6.1875 1.4023-11.965 4.0625-16.957 7.793-5.9688-1.2266-12.266-1.2422-18.578 0.015626-14.312 3.2109-25.867 13.098-31.285 26.434-2.8672 0.17188-5.9688 0.61328-9.4141 1.3086-25.758 5.9531-43.707 26.434-43.25 47.703-7.1172 2.8672-13.02 7.7461-17.711 13.68-18.215 2.6758-34.465 12.625-44.871 28.133l-17.285 25.93c-12.234 2.1562-21.586 12.801-21.586 25.648 0 11.617 15.02 34.273 19.633 40.934 1.4648 2.125 3.8906 3.4023 6.4727 3.4023 2.582 0 5.0078-1.2734 6.4727-3.4023 4.6133-6.6602 19.633-29.301 19.633-40.934 0-9.8398-5.543-18.324-13.617-22.781l13.367-20.059c5.6211-8.3594 13.555-14.469 22.562-18.168-1.2266 5.9688-1.2422 12.188 0.078125 18.406 2.2031 10.094 8.125 18.812 16.594 25.301v90.23c0 14.391 11.715 26.086 26.105 26.086 12.547 0 23.035-8.8945 25.535-20.703 3.3359 1.5586 7.0078 2.4727 10.926 2.4727 14.391 0 26.105-11.715 26.105-26.105v-39.078c2.4258-1.0859 4.7695-2.3125 6.9414-3.7773 10.484 11.066 26.293 16.074 41.547 12.641 6.8789-1.4961 13.227-4.5977 18.5-8.9414 2.5508 2.4258 5.4336 4.457 8.4062 6.2969v51.121c0 14.391 11.715 26.086 26.105 26.086s26.105-11.699 26.105-26.086v-49.168c2.6289-1.3555 5.1797-2.8516 7.5273-4.6289 3.9062 2.3633 8.4375 3.9219 13.195 5.0859v48.711c0 14.391 11.715 26.086 26.105 26.086s26.086-11.699 26.086-26.086v-65.211c3.5273-5.1484 5.4805-10.895 5.4805-16.832 0-5.8398-2.0625-11.43-5.4805-16.516v-4.707c5.3047-10.816 6.8945-23.066 4.2031-34.777-0.15625-0.67578-0.50391-1.2266-0.67578-1.8906 17.586-5.3828 30.211-21.664 30.211-40.352v-32.293c16.547-0.96094 29.727-14.738 29.727-31.52v-6.2031c0.015625-4.3555-3.5117-7.8828-7.8555-7.8828zm-104.38-14.027c4.3438 0 7.8711-3.5273 7.8711-7.8711 0-3.8086 3.2266-7.0391 5.8086-7.3203 2.0156 0.70703 4.2031 0.55078 6.0938-0.39453 1.8906-0.94531 3.3203-2.6133 3.9688-4.6289 1.8594-5.7461 7.3047-9.6055 13.539-9.6055 7.9961 0 14.5 6.5039 14.5 14.5 0 1.7148-0.28516 3.1797-0.83594 4.4414-1.2422 2.8672-1.1953 6.2969 0.89844 8.5977 2.1094 2.2969 4.8789 3.2891 7.8086 2.2969 3.8906 0 7.0547 3.1484 7.0547 7.0391 0 5.6367-7.2891 9.1641-11.793 5.1641-1.4805-1.3242-3.3516-2-5.2422-2-1.1016 0-2.2188 0.23438-3.2578 0.70703-8.832 4.0312-24.34 4.0312-33.156 0-2.8516-1.2891-6.1719-0.80469-8.4688 1.2734-4.6133 4.0781-11.824 0.48828-11.824-5.1484-0.003907-3.9023 3.1445-7.0508 7.0352-7.0508zm-305.5 221.24c-5.6367-9.3203-10.359-18.703-10.359-21.965 0-5.7148 4.6445-10.359 10.359-10.359 5.7148 0 10.359 4.6445 10.359 10.359 0.015625 3.2734-4.7109 12.641-10.359 21.965zm101.58 50.977c0 5.6992-4.6445 10.344-10.359 10.344-5.7148 0-10.359-4.6445-10.359-10.344v-82.293c4.4102 1.1172 8.9258 1.5586 13.445 1.3086 1.0078 2.5195 2.2812 4.8477 3.6992 7.1016 0.47266 0.75391 1.0234 1.4336 1.543 2.1406 0.67578 0.92969 1.2734 1.9219 2.0312 2.8008zm36.449-18.246c0 5.7148-4.6445 10.359-10.359 10.359-5.6992 0-10.344-4.6445-10.344-10.359v-38.887c0.97656 0.44141 2.0469 0.58203 3.0547 0.94531 1.5898 0.58203 3.1641 1.0859 4.8008 1.4805 1.8594 0.44141 3.6992 0.70703 5.5898 0.91406 1.7148 0.1875 3.3867 0.34766 5.1172 0.33203 0.70703 0 1.418 0.17188 2.125 0.14062v35.074zm127.62 18.246c0 5.6992-4.6445 10.344-10.359 10.344s-10.359-4.6445-10.359-10.344v-44.523c0.14062 0.03125 0.28516 0.015625 0.42578 0.046875 3.5586 0.80469 7.1953 1.1797 10.848 1.2266 0.23438 0 0.47266 0.078124 0.72266 0.078124 0.92969 0 1.8438-0.26953 2.7695-0.31641 1.9844-0.10938 3.9844-0.0625 5.9688-0.39453v43.883zm17.254-69.398c-3.4023 3.3867-7.6211 6.125-11.902 7.7773-2.0156 0.66016-4 1.3398-5.8086 1.793-8.2969 1.875-17.066 0.85156-24.719-2.8984-5.1484-2.4883-9.6836-6.25-13.145-10.91-1.4805-1.9844-3.1484-3.0234-6.3125-3.1641-2.4414 0-4.7383 1.1328-6.2344 3.0547-3.8906 5.0547-9.3828 8.4688-15.918 9.8867-11.73 2.5977-23.945-2.4414-30.23-12.676-1.2734-2.0781-3.4492-3.4492-5.8711-3.6992-2.457-0.30078-4.8477 0.62891-6.5195 2.3789-3.4023 3.5742-7.6367 6.1094-12.578 7.5586-0.44141 0.125-1.6523 0.37891-2.0781 0.59766-4.0625 0.91406-8.2031 0.70703-12.172-0.15625-5.3672-1.1641-10.438-3.6992-14.422-7.7773-3.6992-3.6836-6.2344-8.375-7.5586-13.918-0.99219-4.2031-5.1484-6.832-9.4297-5.8555-6.3594 1.4336-12.879 0.51953-18.688-2.3477-0.73828-0.36328-1.5117-0.64453-2.2188-1.0703-6.8789-4.2812-11.57-10.723-13.195-18.074-1.668-7.8086-0.15625-15.68 4.3438-22.277 3.9844-6.0625 10.172-10.297 17.43-11.98 4.2188-0.97656 6.8633-5.1641 5.918-9.3984-3.4336-15.273 10.266-31.504 30.34-36.133 4.457-0.91406 8.0625-1.2422 11.051-0.97656 3.7461 0.1875 7.3672-2.1719 8.3125-5.9023 2.6602-10.516 10.863-18.516 21.254-20.844 4.9609-0.99219 10.219-0.73828 14.879 0.70703 2.6758 0.86719 5.6211 0.1875 7.668-1.6992 3.668-3.3711 8.2188-5.7461 13.195-6.8789 8.0781-1.7773 16.406-0.015626 22.797 4.9297 1.8281 1.418 4.1719 1.9375 6.4727 1.4648 2.2812-0.47266 4.2188-1.9531 5.2891-4 3.8555-7.2734 10.707-12.453 18.879-14.25 0.36328-0.09375 0.75391-0.17188 1.1172-0.23438v2.2188c0 16.848 13.258 30.652 29.883 31.535v32.273c0 20.012 14.375 37.172 33.898 41.266 1.1328 0.61328 2.3633 1.0703 3.7305 1.0703 0.45703 0 0.85156-0.1875 1.2734-0.25 1.1328 0.10938 2.2344 0.25 3.418 0.25h17.113c0.34766 1.0703 0.66016 2.2031 0.92969 3.3867 2.0312 8.8164 0.73828 18.043-3.7461 26.246-0.67578 1.3555-1.5117 2.5664-2.457 3.793-2.5664 3.3203-2.0781 8.0781 1.1016 10.816 0.91406 0.78906 1.6836 1.5586 2.332 2.3125 0 0 0.015625 0 0.015625 0.015626 2.4102 2.9453 3.6367 6.0938 3.6367 9.3672 0 3.2891-1.2266 6.4375-3.6992 9.4453-5.3672 6.6133-15.949 10.156-26.906 9.7148-0.88281-0.03125-1.7148 0.09375-2.6133 0-6.8945-0.73828-12.832-3.1016-17.191-6.8789-3.043-2.6797-7.7344-2.4922-10.664 0.39062zm55.641 69.398c0 5.6992-4.6445 10.344-10.344 10.344-5.7148 0-10.359-4.6445-10.359-10.344v-46.871c1.1797-0.046875 2.2656-0.36328 3.4336-0.47266 0.58203-0.0625 1.1328-0.15625 1.6992-0.23438 3.418-0.45703 6.6758-1.1953 9.793-2.25 0.73828-0.23437 1.4336-0.48828 2.1406-0.76953 1.1953-0.45703 2.5039-0.75391 3.6367-1.2891zm47.625-228.27h-6.0156c-3.6992 0-6.6602 2.5977-7.4961 6.0312-0.83594-3.4492-3.793-6.0469-7.5117-6.0469h-14.91c-4.3438 0-7.8711 3.5273-7.8711 7.8711s3.5273 7.8711 7.8711 7.8711h14.91c3.1797 0 5.8867-1.9062 7.1328-4.6289v36.871c0 9.9336-5.6992 18.797-14.168 23.332v-3.793c0-4.3438-3.5273-7.8711-7.8711-7.8711s-7.8711 3.5273-7.8711 7.8711v7.0391h-14.09v-7.0391c0-4.3438-3.5273-7.8711-7.8711-7.8711s-7.8711 3.5273-7.8711 7.8711v3.793c-8.3906-4.5508-14.027-13.414-14.027-23.332v-36.637c1.2891 2.582 3.8906 4.3945 6.9766 4.3945h14.91c4.3438 0 7.8711-3.5273 7.8711-7.8711s-3.5273-7.8711-7.8711-7.8711h-14.91c-3.5742 0-6.4531 2.4102-7.4297 5.668-0.97656-3.2422-3.8555-5.6523-7.4297-5.6523h-6.2031c-8.1719 0-14.895-6.2188-15.727-14.152h36.32c0.15625 0 0.30078 0.046875 0.45703 0.046875 0.125 0 0.23437-0.046875 0.36328-0.046875h58.945c0.125 0 0.23438 0.046875 0.36328 0.046875 0.15625 0 0.30078-0.046875 0.45703-0.046875h36.305c-0.82812 7.9336-7.582 14.152-15.738 14.152z"/>
</svg>