<?xml version="1.0" encoding="UTF-8"?>
<!-- The Best Svg Icon site in the world: iconSvg.co, Visit us! https://iconsvg.co -->
<svg fill="#000000" width="800px" height="800px" version="1.1" viewBox="144 144 512 512" xmlns="http://www.w3.org/2000/svg">
 <path d="m562.59 330.92c-2.3789-2.0664-5.7656-2.5156-8.6016-1.1328-5.6602 2.7539-26.363 13.043-51.168 27.672-2.3164-106.24-46.645-188.23-102.82-188.23-56.184 0-100.51 81.988-102.85 188.26-24.781-14.625-45.484-24.914-51.168-27.672l-0.003906 0.003906c-2.8359-1.3828-6.2227-0.94141-8.6094 1.1289-2.3828 2.0664-3.3008 5.3594-2.332 8.3633 11.758 36.949 21.008 74.652 27.688 112.85 6.4375 43.453 33.449 92.551 88.098 111.22v55.105h-0.003907c0 2.0859 0.83203 4.0898 2.3086 5.5664 1.4766 1.4727 3.4766 2.3047 5.5664 2.3047h82.586c2.0859 0 4.0898-0.83203 5.5664-2.3047 1.4727-1.4766 2.3047-3.4805 2.3047-5.5664v-55.105c54.648-18.672 81.656-67.77 88.098-111.22h-0.003906c6.6836-38.195 15.934-75.898 27.688-112.85 0.98047-3.0117 0.058594-6.3203-2.3398-8.3906zm-249.81 35.359c0-98.281 39.98-181.31 87.215-181.31 47.23 0 87.211 83.027 87.211 181.31 0 0.21094 0.10156 0.38672 0.11719 0.58984-34.098 21.32-71.43 49.027-87.328 75.984-15.902-26.953-53.23-54.648-87.332-75.98 0.015625-0.20703 0.11719-0.37891 0.11719-0.59375zm120.62 244.29h-66.816v-42.84c22.031 4.6406 44.785 4.6406 66.816 0zm88.262-160.75c-6.0156 40.613-32.273 86.773-86.074 101.09h-71.191c-53.82-14.312-80.059-60.473-86.074-101.09-5.5234-32.965-13.148-65.543-22.828-97.535 49.246 25.996 136.62 79.531 136.62 115.52 0 4.3477 3.5273 7.8711 7.875 7.8711s7.8711-3.5234 7.8711-7.8711c0-35.969 87.379-89.512 136.62-115.52-9.6758 31.992-17.301 64.57-22.82 97.535zm-157.6-209.23c0-4.3477 3.5234-7.8711 7.8711-7.8711h11.219c4.3477 0 7.8711 3.5234 7.8711 7.8711s-3.5234 7.8711-7.8711 7.8711h-11.219c-4.3477 0-7.8711-3.5234-7.8711-7.8711zm44.871 0c0-4.3477 3.5234-7.8711 7.8711-7.8711h11.219c4.3477 0 7.8711 3.5234 7.8711 7.8711s-3.5234 7.8711-7.8711 7.8711h-11.195c-4.3477 0-7.8711-3.5234-7.8711-7.8711zm-44.871 28.078c0-4.3477 3.5234-7.8711 7.8711-7.8711h11.219c4.3477 0 7.8711 3.5234 7.8711 7.8711 0 4.3477-3.5234 7.875-7.8711 7.875h-11.219c-4.3477 0-7.8711-3.5273-7.8711-7.875zm44.871 0c0-4.3477 3.5234-7.8711 7.8711-7.8711h11.219c4.3477 0 7.8711 3.5234 7.8711 7.8711 0 4.3477-3.5234 7.875-7.8711 7.875h-11.195c-4.3477 0-7.8711-3.5273-7.8711-7.875zm-44.871 28.078v0.003906c0-4.3477 3.5234-7.8711 7.8711-7.8711h11.219c4.3477 0 7.8711 3.5234 7.8711 7.8711s-3.5234 7.8711-7.8711 7.8711h-11.219c-4.3477 0-7.8711-3.5234-7.8711-7.8711zm44.871 0v0.003906c0-4.3477 3.5234-7.8711 7.8711-7.8711h11.219c4.3477 0 7.8711 3.5234 7.8711 7.8711s-3.5234 7.8711-7.8711 7.8711h-11.195c-4.3477 0-7.8711-3.5234-7.8711-7.8711zm-44.871 28.078v0.003906c0-4.3477 3.5234-7.8711 7.8711-7.8711h11.219c4.3477 0 7.8711 3.5234 7.8711 7.8711s-3.5234 7.8711-7.8711 7.8711h-11.219c-4.3477 0-7.8711-3.5234-7.8711-7.8711zm44.871 0v0.003906c0-4.3477 3.5234-7.8711 7.8711-7.8711h11.219c4.3477 0 7.8711 3.5234 7.8711 7.8711s-3.5234 7.8711-7.8711 7.8711h-11.195c-4.3477 0-7.8711-3.5234-7.8711-7.8711zm-44.871 28.07v0.003907c0-4.3477 3.5234-7.8711 7.8711-7.8711h11.219c4.3477 0 7.8711 3.5234 7.8711 7.8711 0 4.3477-3.5234 7.875-7.8711 7.875h-11.219c-4.3477 0-7.8711-3.5273-7.8711-7.875zm44.871 0v0.003907c0-4.3477 3.5234-7.8711 7.8711-7.8711h11.219c4.3477 0 7.8711 3.5234 7.8711 7.8711 0 4.3477-3.5234 7.875-7.8711 7.875h-11.195c-4.3477 0-7.8711-3.5273-7.8711-7.875zm-25.805 35.953-11.195 0.003906c-4.3477 0-7.8711-3.5234-7.8711-7.8711 0-4.3477 3.5234-7.8711 7.8711-7.8711h11.219c4.3477 0 7.8711 3.5234 7.8711 7.8711 0 4.3477-3.5234 7.8711-7.8711 7.8711zm25.805-7.8711v0.003907c0-4.3477 3.5234-7.8711 7.8711-7.8711h11.219c4.3477 0 7.8711 3.5234 7.8711 7.8711 0 4.3477-3.5234 7.8711-7.8711 7.8711h-11.195c-4.3477 0-7.8711-3.5234-7.8711-7.8711z"/>
</svg>