<?xml version="1.0" encoding="UTF-8"?>
<!-- The Best Svg Icon site in the world: iconSvg.co, Visit us! https://iconsvg.co -->
<svg fill="#000000" width="800px" height="800px" version="1.1" viewBox="144 144 512 512" xmlns="http://www.w3.org/2000/svg">
 <g>
  <path d="m392.12 368.51h15.742v15.742h-15.742z"/>
  <path d="m392.12 337.02h15.742v15.742h-15.742z"/>
  <path d="m588.93 462.98h15.742v15.742h-15.742z"/>
  <path d="m584.83 287.11-70.688-40.414-7.875 13.664 70.754 40.457c3.6094 2.0625 6.6055 5.043 8.6953 8.6367s3.1953 7.6719 3.207 11.828v125.95h15.742l0.003906-125.95c-0.011719-6.9375-1.8477-13.75-5.332-19.75-3.4844-5.9961-8.4883-10.973-14.508-14.422z"/>
  <path d="m396.06 219.98-165.31 94.465c-2.4414 1.4102-3.9414 4.0156-3.9375 6.832v267.65h-15.742c-4.3477 0-7.8711 3.5273-7.8711 7.875v31.488c0 2.0859 0.82812 4.0898 2.3047 5.5664 1.4766 1.4727 3.4766 2.3047 5.5664 2.3047h377.86c2.0898 0 4.0898-0.83203 5.5664-2.3047 1.4766-1.4766 2.3086-3.4805 2.3086-5.5664v-31.488c0-2.0898-0.83203-4.0898-2.3086-5.5664-1.4766-1.4766-3.4766-2.3086-5.5664-2.3086h-15.742v-267.65c0.003906-2.8164-1.4961-5.4219-3.9375-6.832l-165.31-94.465c-2.4336-1.4062-5.4336-1.4062-7.8711 0zm-122.02 87.867v84.277h-31.488v-66.281zm-31.488 147.25v-47.23h31.488v47.23zm31.488 15.742v47.23l-31.488 0.003906v-47.23zm307.01 149.57h-362.11v-15.742h362.11zm-173.18-165.31c0.011718-10.434 4.1641-20.438 11.543-27.816 7.3789-7.3789 17.383-11.531 27.816-11.543h7.8711v7.8711c-0.011718 10.438-4.1641 20.441-11.539 27.82-7.3789 7.3789-17.387 11.527-27.82 11.543h-7.8711zm-15.742 39.359h-7.875c-10.434-0.011719-20.438-4.1602-27.816-11.539s-11.531-17.383-11.543-27.82v-7.8711h7.8711c10.438 0.011719 20.441 4.1641 27.82 11.543 7.3789 7.3789 11.527 17.383 11.539 27.816zm23.844 52.129 61.172 42.336h-154.29l61.156-42.336h0.003907c4.6992-3.2344 10.273-4.9688 15.98-4.9688 5.707 0 11.277 1.7344 15.98 4.9688zm88.824 42.336-79.859-55.285c-5.125-3.5117-10.945-5.8828-17.066-6.957v-47.965h7.8711c14.609-0.015625 28.617-5.8281 38.945-16.156 10.332-10.332 16.141-24.34 16.16-38.949v-15.742c0-2.0898-0.83203-4.0898-2.3047-5.5664-1.4766-1.4766-3.4805-2.3047-5.5664-2.3047h-15.746c-14.824-0.003906-29.023 5.9883-39.359 16.617v-16.617h-15.746v48.105c-10.336-10.629-24.531-16.621-39.359-16.617h-15.742c-4.3477 0-7.875 3.5234-7.875 7.8711v15.742c0.019531 14.609 5.8281 28.617 16.16 38.945 10.332 10.332 24.336 16.145 38.945 16.16h7.8711v16.477c-6.1211 1.0742-11.938 3.4453-17.066 6.957l-79.859 55.285h-52.641v-55.102h31.488v31.488h15.742v-31.488h15.742l0.003906-15.746h-15.746v-47.23h15.742l0.003906-15.746h-15.746v-47.23h23.617v-15.746h-23.617v-93.266l31.488-17.996v95.52h15.742l0.003907-104.52 31.488-17.988v59.527h15.742v-68.488l15.742-8.9961 15.746 8.9961v68.488h15.742l0.003906-59.527 31.488 17.988v104.52h15.742v-95.52l31.488 17.996v93.266h-23.617v15.742h23.617v47.23l-15.746 0.003906v15.742h15.742v47.23l-15.742 0.003906v15.742h15.742v31.488h15.742l0.003907-31.484h31.488v55.105zm52.641-70.848h-31.488v-47.23h31.488zm0-62.977h-31.488v-47.23h31.488zm0-62.977h-31.488v-84.277l31.488 17.996z"/>
  <path d="m187.45 270.11c-0.027344 20.469 5.8828 40.508 17.012 57.688l13.211-8.5586c-12.758-20.34-16.91-44.914-11.547-68.32 5.3633-23.402 19.805-43.719 40.145-56.473 20.34-12.758 44.918-16.91 68.32-11.547 23.402 5.3633 43.719 19.805 56.477 40.145l13.438-8.2031c-16.188-26.59-43.215-44.75-73.949-49.68-30.738-4.9297-62.09 3.8633-85.777 24.059s-37.332 49.762-37.328 80.891z"/>
 </g>
</svg>