<?xml version="1.0" encoding="UTF-8"?>
<!-- The Best Svg Icon site in the world: iconSvg.co, Visit us! https://iconsvg.co -->
<svg fill="#000000" width="800px" height="800px" version="1.1" viewBox="144 144 512 512" xmlns="http://www.w3.org/2000/svg">
 <path d="m601.52 491.86c0-11.074-3.75-21.77-10.613-30.453 1.582-4.4141 2.3828-9.0195 2.3828-13.719 0-22.594-18.383-40.977-40.977-40.977s-40.977 18.383-40.977 40.977c0 4.7031 0.80078 9.3047 2.3789 13.719-6.8672 8.6836-10.613 19.379-10.613 30.453 0 25.434 19.395 46.422 44.176 48.953l-0.007812 50.637h-73.617l-28.746-208.51 46.586 32.922c0.85938 0.60547 1.875 0.92188 2.9062 0.92188 0.35938 0 0.72266-0.039062 1.0781-0.11719 1.3828-0.30078 2.5742-1.1719 3.2852-2.4023l25.82-44.723c0.70703-1.2266 0.86719-2.6953 0.4375-4.043-0.42969-1.3516-1.4062-2.457-2.6953-3.0508l-75.961-35.02 75.961-35.02c1.2852-0.59375 2.2656-1.6992 2.6953-3.0508 0.42969-1.3516 0.26953-2.8164-0.4375-4.043l-25.82-44.719c-0.70703-1.2266-1.9023-2.0977-3.2852-2.4023-1.3789-0.30078-2.8281-0.007812-3.9883 0.80469l-68.309 48.273 7.6523-83.293c0.12891-1.4102-0.33984-2.8086-1.293-3.8555-0.95703-1.0508-2.3086-1.6445-3.7227-1.6445h-51.641c-1.418 0-2.7656 0.59375-3.7227 1.6445-0.95312 1.0469-1.4258 2.4453-1.293 3.8555l7.6523 83.293-68.309-48.273c-1.1523-0.8125-2.6016-1.1055-3.9883-0.80469-1.3828 0.30078-2.5742 1.1719-3.2852 2.4023l-25.82 44.719c-0.70703 1.2266-0.86719 2.6953-0.4375 4.043 0.42969 1.3516 1.4062 2.457 2.6953 3.0508l75.961 35.023-75.965 35.016c-1.2852 0.59375-2.2656 1.6992-2.6953 3.0508-0.42969 1.3516-0.26953 2.8164 0.4375 4.043l25.82 44.723c0.70703 1.2266 1.9023 2.0977 3.2852 2.4023 0.35547 0.078126 0.72266 0.11719 1.0781 0.11719 1.0312 0 2.0508-0.31641 2.9062-0.92188l46.586-32.922-28.742 208.51h-73.621v-50.637c24.777-2.5312 44.176-23.52 44.176-48.953 0-11.074-3.75-21.77-10.613-30.453 1.5781-4.4141 2.3789-9.0156 2.3789-13.719 0-22.594-18.383-40.977-40.977-40.977s-40.977 18.383-40.977 40.977c0 4.6992 0.80078 9.3047 2.3828 13.719-6.8711 8.6836-10.617 19.379-10.617 30.453 0 25.434 19.395 46.422 44.172 48.953v50.637h-39.137c-2.7812 0-5.0391 2.2539-5.0391 5.0391 0 2.7812 2.2539 5.0391 5.0391 5.0391h392.97c2.7812 0 5.0391-2.2539 5.0391-5.0391 0-2.7812-2.2539-5.0391-5.0391-5.0391h-39.133v-50.637c24.773-2.5312 44.172-23.52 44.172-48.953zm-392.97 0c0-9.6406 3.582-18.926 10.086-26.148 1.332-1.4844 1.668-3.6094 0.85547-5.4336-1.7969-4.0117-2.707-8.25-2.707-12.594 0-17.039 13.863-30.898 30.898-30.898 17.039 0 30.898 13.863 30.898 30.898 0 4.3477-0.91016 8.5859-2.7031 12.594-0.8125 1.8203-0.48047 3.9492 0.85547 5.4336 6.5039 7.2188 10.086 16.508 10.086 26.148 0 19.867-14.895 36.289-34.098 38.773v-33.648c0-2.7812-2.2539-5.0391-5.0391-5.0391-2.7812 0-5.0391 2.2539-5.0391 5.0391v33.645c-19.199-2.4844-34.094-18.902-34.094-38.77zm284.25-87.41-69.902-49.402c6.4648-5.3711 10.988-12.973 12.453-21.602l77.746 35.844zm-92.801-102.84c14.238 0 25.82 11.582 25.82 25.82s-11.582 25.82-25.82 25.82-25.82-11.582-25.82-25.82 11.582-25.82 25.82-25.82zm-12.469 59.438c3.8906 1.4492 8.0781 2.2773 12.469 2.2773 4.3867 0 8.5781-0.83203 12.469-2.2773l7.832 85.258h-40.594zm105.27-110.63 20.297 35.156-77.746 35.848c-1.4648-8.6328-5.9844-16.234-12.453-21.605zm-72.504-41.859-7.832 85.258c-3.8906-1.4492-8.0781-2.2773-12.465-2.2773s-8.5781 0.83203-12.469 2.2773l-7.832-85.258zm-113.1 41.859 69.902 49.398c-6.4648 5.3711-10.988 12.973-12.453 21.605l-77.746-35.848zm0 154.04-20.297-35.16 77.746-35.844c1.4648 8.6328 5.9883 16.23 12.453 21.602zm59.164-29.473 10.453-7.3867-7.6523 83.293c-0.12891 1.4102 0.33984 2.8086 1.293 3.8555s2.3047 1.6445 3.7227 1.6445h51.641c1.418 0 2.7656-0.59375 3.7227-1.6445 0.95313-1.0469 1.4258-2.4453 1.293-3.8555l-7.6523-83.293 10.453 7.3867 29.848 216.47h-126.96zm146.82 116.88c0-9.6406 3.582-18.926 10.086-26.148 1.332-1.4844 1.668-3.6094 0.85547-5.4336-1.793-4.0078-2.7031-8.2461-2.7031-12.594 0-17.039 13.863-30.898 30.898-30.898 17.039 0 30.898 13.863 30.898 30.898 0 4.3438-0.91016 8.582-2.707 12.594-0.8125 1.8203-0.48047 3.9492 0.85547 5.4336 6.5039 7.2227 10.086 16.508 10.086 26.148 0 19.867-14.895 36.289-34.094 38.773v-33.648c0-2.7812-2.2539-5.0391-5.0391-5.0391-2.7812 0-5.0391 2.2539-5.0391 5.0391v33.645c-19.203-2.4844-34.098-18.902-34.098-38.77z"/>
</svg>