<?xml version="1.0" encoding="UTF-8"?>
<!-- The Best Svg Icon site in the world: iconSvg.co, Visit us! https://iconsvg.co -->
<svg fill="#000000" width="800px" height="800px" version="1.1" viewBox="144 144 512 512" xmlns="http://www.w3.org/2000/svg">
 <g>
  <path d="m423.38 252.79v5.5117h-46.758v-5.5117c0-12.91 10.469-23.379 23.379-23.379 12.91-0.003906 23.379 10.469 23.379 23.379z"/>
  <path d="m423.38 337.02v210.18c0 12.91-10.469 23.379-23.379 23.379s-23.379-10.469-23.379-23.379l-0.003906-210.18z"/>
  <path d="m447.23 281.92v31.488c0 4.3281-3.543 7.8711-7.8711 7.8711h-78.723c-4.3281 0-7.8711-3.543-7.8711-7.8711v-31.488c0-1.1797 0.23828-2.2812 0.78516-3.3867 1.3398-2.7539 4.0977-4.4844 7.0859-4.4844h78.719c2.9922 0 5.7461 1.7305 7.0859 4.6445 0.55469 0.94531 0.78906 2.0469 0.78906 3.2266z"/>
  <path d="m337.02 282.62v30.309c-32.828-1.6523-66.754 2.7539-101.08 12.91 1.8906-7.7148 5.8242-14.328 12.043-20.074 23.066-21.488 69.59-23.301 89.035-23.145z"/>
  <path d="m564.05 325.84c-34.32-10.156-68.25-14.562-101.07-12.91v-30.23c19.445-0.23438 65.891 1.5742 89.031 23.066 6.2188 5.668 10.152 12.359 12.043 20.074z"/>
 </g>
</svg>