<?xml version="1.0" encoding="UTF-8"?>
<!-- The Best Svg Icon site in the world: iconSvg.co, Visit us! https://iconsvg.co -->
<svg fill="#000000" width="800px" height="800px" version="1.1" viewBox="144 144 512 512" xmlns="http://www.w3.org/2000/svg">
 <path d="m496.68 584.95c-0.48438-2.8867-1.2734-5.7109-2.3633-8.4258l-61.008-149.32c7.5586-11.703 8.5781-26.465 2.707-39.098 62.188-89.16 15.625-205.29 8.4062-215.13l0.003907-0.003906c-1.875-2.5977-5.1367-3.7969-8.25-3.0391-3.1094 0.75781-5.4531 3.3281-5.9219 6.4961l-28.852 187.64c-0.96094-0.070312-1.8828-0.28516-2.8672-0.28516l-28.816-187.34c-0.48438-3.1484-2.8164-5.6953-5.9102-6.4492-3.0938-0.75781-6.3359 0.42578-8.2188 2.9922-7.0859 9.6211-52.891 123.59 6.6055 212.5l-0.003907 0.003906c-3.918 6.9297-5.6914 14.867-5.0977 22.809s3.5312 15.527 8.4375 21.801l-59.828 146.5v-0.003907c-1.0859 2.6992-1.8789 5.5078-2.3594 8.3789-2.0117 10.34 0.25391 21.055 6.2695 29.703 6.0195 8.6445 15.285 14.488 25.68 16.195s21.039-0.86719 29.508-7.1367c8.4688-6.2656 14.039-15.695 15.441-26.137l19.754-120.12 19.75 120.12c2.2617 13.742 11.684 25.234 24.715 30.148s27.695 2.5 38.465-6.3281c10.773-8.832 16.016-22.734 13.754-36.477zm-63.684-3.8477-22.457-136.58-0.003907-0.003906c3.8203-1.1172 7.4531-2.7852 10.793-4.9531l54.711 133.89zm-66 0-43.035-7.6445 54.109-132.44c3.5039 2.0312 7.2852 3.5352 11.227 4.4648zm31.375-201.57c6.8047-0.003906 13.332 2.6992 18.145 7.5078 4.8125 4.8125 7.5195 11.336 7.5195 18.141 0.003907 6.8047-2.6992 13.332-7.5117 18.145-4.8086 4.8125-11.336 7.5156-18.141 7.5156-6.8047 0-13.328-2.6992-18.141-7.5117s-7.5156-11.336-7.5156-18.141c0.007812-6.8008 2.7109-13.32 7.5195-18.129s11.328-7.5156 18.125-7.5273zm43-171.74c10.941 37.574 21.914 108.87-15.336 166.79v-0.003906c-2.8086-2.5352-5.9531-4.6719-9.3438-6.3516zm-82.75 0 24.449 159.02v-0.003907c-3.6875 1.5156-7.1328 3.5547-10.234 6.0547-35.926-57.648-25.047-127.87-14.215-165.06zm-20.609 406.41c-5.8945-0.98047-11.18-4.1992-14.762-8.9805-3.5781-4.7812-5.1797-10.758-4.4648-16.688l45.5 8.0781v-0.003907c-1.3398 5.7109-4.7969 10.703-9.6758 13.969-4.875 3.2656-10.805 4.5586-16.598 3.625zm123.98 0c-5.7969 0.93359-11.727-0.35937-16.605-3.625-4.8789-3.2656-8.3359-8.2539-9.6797-13.969l45.5-8.0781v0.003906c0.71484 5.9258-0.88281 11.906-4.4609 16.688s-8.8633 7.9961-14.754 8.9805z"/>
</svg>