<?xml version="1.0" encoding="UTF-8"?>
<!-- The Best Svg Icon site in the world: iconSvg.co, Visit us! https://iconsvg.co -->
<svg fill="#000000" width="800px" height="800px" version="1.1" viewBox="144 144 512 512" xmlns="http://www.w3.org/2000/svg">
 <g>
  <path d="m203.51 601.48h176.96c2.7812 0 5.0391-2.2539 5.0391-5.0391v-239.26c0-0.75391-0.16797-1.5-0.49609-2.1797l-31.613-65.863v-12.434h4.707c9.1875 0 16.66-7.8555 16.66-17.508v-43.238c0-9.6562-7.4727-17.512-16.66-17.512h-132.66c-9.1875 0-16.66 7.8555-16.66 17.512v43.238c0 9.6523 7.4727 17.508 16.66 17.508h5.125v12.434l-31.613 65.863c-0.32422 0.67969-0.49219 1.4258-0.49219 2.1797v239.26c0 2.7852 2.2539 5.0391 5.0352 5.0391zm21.945-334.85c-3.6328 0-6.582-3.332-6.582-7.4336v-43.238c0-4.0977 2.9531-7.4336 6.582-7.4336h132.65c3.6328 0 6.582 3.3359 6.582 7.4336v43.238c0 4.0977-2.9531 7.4336-6.582 7.4336h-4.707v-13.352c0-2.7812-2.2539-5.0391-5.0391-5.0391h-112.74c-2.7812 0-5.0391 2.2539-5.0391 5.0391v13.352zm117.87-8.3164v27.285h-102.67v-27.285zm-104.71 37.363h106.75l28.184 58.719h-163.11zm-30.07 68.797h166.89v226.93h-166.89z"/>
  <path d="m569.41 289.14v-12.434h4.707c9.1875 0 16.66-7.8555 16.66-17.508v-43.238c0-9.6562-7.4727-17.512-16.66-17.512h-132.65c-9.1875 0-16.66 7.8555-16.66 17.512v43.238c0 9.6523 7.4727 17.508 16.66 17.508h5.125v12.434l-31.613 65.863c-0.32812 0.67969-0.49609 1.4258-0.49609 2.1797v239.26c0 2.7812 2.2539 5.0391 5.0391 5.0391h176.96c2.7812 0 5.0391-2.2539 5.0391-5.0391v-239.26c0-0.75391-0.16797-1.5-0.49609-2.1797zm-127.94-22.508c-3.6328 0-6.582-3.332-6.582-7.4336v-43.238c0-4.0977 2.9531-7.4336 6.582-7.4336h132.65c3.6328 0 6.582 3.3359 6.582 7.4336v43.238c0 4.0977-2.9531 7.4336-6.582 7.4336h-4.707v-13.352c0-2.7812-2.2539-5.0391-5.0391-5.0391h-112.74c-2.7812 0-5.0391 2.2539-5.0391 5.0391v13.352zm117.87-8.3164v27.285h-102.67v-27.285zm-104.71 37.363h106.75l28.184 58.719h-163.11zm136.82 295.73h-166.89v-226.93h166.89z"/>
 </g>
</svg>