<?xml version="1.0" encoding="UTF-8"?>
<!-- The Best Svg Icon site in the world: iconSvg.co, Visit us! https://iconsvg.co -->
<svg fill="#000000" width="800px" height="800px" version="1.1" viewBox="144 144 512 512" xmlns="http://www.w3.org/2000/svg">
 <path d="m568.8 296.59-166.26-97.426c-1.5742-0.92578-3.5234-0.92578-5.0977 0l-166.26 97.426c-1.5391 0.90234-2.4883 2.5586-2.4883 4.3438v54.203c0 1.8047 0.96484 3.4727 2.5352 4.3672 1.5703 0.90625 3.4922 0.89453 5.0547-0.023437l22.715-13.312v195.65h-21.309c-2.7852 0-5.0391 2.2539-5.0391 5.0391v49.625c0 2.7852 2.2539 5.0391 5.0391 5.0391h326.14c2.7852 0 5.0391-2.2539 5.0391-5.0391v-49.625c0-2.7852-2.2539-5.0391-5.0391-5.0391h-22.898l-0.003906-195.67 22.766 13.34c0.78906 0.46094 1.668 0.69531 2.5469 0.69531 0.86719 0 1.7266-0.22266 2.5039-0.66797 1.5703-0.89844 2.5352-2.5664 2.5352-4.3711v-54.207c0-1.7852-0.94922-3.4414-2.4883-4.3438zm-10.004 294.85h-316.07v-39.547h316.07zm-87.496-49.621h-40.203v-189.28h40.203zm-50.277 0h-40.441v-189.28h40.441zm-50.52 0h-41.816v-189.28h41.816zm160.36 0h-49.484l-0.003906-194.32c0-2.7852-2.2539-5.0391-5.0391-5.0391h-152.68c-2.7852 0-5.0391 2.2539-5.0391 5.0391v194.32h-49.535v-201.55l130.92-76.719 130.87 76.691zm30.352-195.47-158.67-92.984c-0.78516-0.46094-1.668-0.69531-2.5469-0.69531s-1.7617 0.23047-2.5469 0.69531l-158.67 92.984v-42.523l161.22-94.473 161.22 94.473z"/>
</svg>