<?xml version="1.0" encoding="UTF-8"?>
<!-- The Best Svg Icon site in the world: iconSvg.co, Visit us! https://iconsvg.co -->
<svg fill="#000000" width="800px" height="800px" version="1.1" viewBox="144 144 512 512" xmlns="http://www.w3.org/2000/svg">
 <g>
  <path d="m536.58 198.48h-273.34c-2.7812 0-5.0391 2.2539-5.0391 5.0391v55.59c-3.1172 11.82-43.516 171.51 0.16797 338.66 0.57422 2.2148 2.5781 3.7617 4.8711 3.7617h273.34c2.293 0 4.2969-1.5469 4.8711-3.7617 43.68-167.14 3.2852-326.84 0.16797-338.66l-0.003907-55.594c0-2.7852-2.2578-5.0352-5.0352-5.0352zm-5.0391 10.074v46.602h-263.27v-46.602zm1.1328 382.89h-265.53c-39.039-153.79-6.5156-300.24-0.10156-326.21h265.74c6.4141 25.965 38.961 172.33-0.10547 326.21z"/>
  <path d="m289.47 245.71c2.7812 0 5.0391-2.2539 5.0391-5.0391v-15.742c0-2.7852-2.2578-5.0391-5.0391-5.0391s-5.0391 2.2539-5.0391 5.0391v15.742c0 2.7852 2.2539 5.0391 5.0391 5.0391z"/>
  <path d="m316.88 245.71c2.7812 0 5.0391-2.2539 5.0391-5.0391v-15.742c0-2.7852-2.2578-5.0391-5.0391-5.0391s-5.0391 2.2539-5.0391 5.0391v15.742c0 2.7852 2.2578 5.0391 5.0391 5.0391z"/>
  <path d="m344.28 245.71c2.7812 0 5.0391-2.2539 5.0391-5.0391v-15.742c0-2.7852-2.2578-5.0391-5.0391-5.0391s-5.0391 2.2539-5.0391 5.0391v15.742c0 2.7852 2.2578 5.0391 5.0391 5.0391z"/>
  <path d="m371.68 245.71c2.7812 0 5.0391-2.2539 5.0391-5.0391v-15.742c0-2.7852-2.2578-5.0391-5.0391-5.0391s-5.0391 2.2539-5.0391 5.0391v15.742c0 2.7852 2.2578 5.0391 5.0391 5.0391z"/>
  <path d="m399.09 245.71c2.7812 0 5.0391-2.2539 5.0391-5.0391v-15.742c0-2.7852-2.2578-5.0391-5.0391-5.0391s-5.0391 2.2539-5.0391 5.0391v15.742c0 2.7852 2.2578 5.0391 5.0391 5.0391z"/>
  <path d="m426.49 245.71c2.7812 0 5.0391-2.2539 5.0391-5.0391v-15.742c0-2.7852-2.2578-5.0391-5.0391-5.0391s-5.0391 2.2539-5.0391 5.0391v15.742c0 2.7852 2.2578 5.0391 5.0391 5.0391z"/>
  <path d="m453.89 245.71c2.7812 0 5.0391-2.2539 5.0391-5.0391v-15.742c0-2.7852-2.2578-5.0391-5.0391-5.0391s-5.0391 2.2539-5.0391 5.0391v15.742c0.003906 2.7852 2.2578 5.0391 5.0391 5.0391z"/>
  <path d="m481.3 245.71c2.7812 0 5.0391-2.2539 5.0391-5.0391v-15.742c0-2.7852-2.2578-5.0391-5.0391-5.0391s-5.0391 2.2539-5.0391 5.0391v15.742c0.003907 2.7852 2.2578 5.0391 5.0391 5.0391z"/>
  <path d="m508.71 245.71c2.7812 0 5.0391-2.2539 5.0391-5.0391l-0.003906-15.742c0-2.7852-2.2578-5.0391-5.0391-5.0391s-5.0391 2.2539-5.0391 5.0391v15.742c0.003907 2.7852 2.2539 5.0391 5.043 5.0391z"/>
  <path d="m460.58 390.68c0.089844-1.3047 0.13281-2.625 0.13281-3.9492 0-7.1797-0.59766-13.289-3.125-20.02 1.8828-0.53906 3.0898-0.97656 3.3008-1.0586 1.3203-0.50391 2.3711-1.5352 2.8984-2.8398 0.52344-1.3164 0.47266-2.7852-0.14062-4.0625-9.8828-20.512-29.164-34.945-51.316-38.547-0.21484-0.046875-2.7773-0.5625-6.5234-0.87109v-13.336c0-2.7852-2.2578-5.0391-5.0391-5.0391s-5.0391 2.2539-5.0391 5.0391v13.32c-2.125 0.16797-4.3125 0.42969-6.5312 0.90625-23.078 5.0078-41.766 19.105-51.273 38.676-0.59766 1.2227-0.67188 2.6445-0.20312 3.9297 0.46875 1.2852 1.4414 2.3242 2.6914 2.8711 0.21484 0.097656 1.5234 0.65625 3.6289 1.3398-1.3594 3.6406-2.0352 6.9922-2.6602 11.523-0.48438 3.4961-0.65625 7.0469-0.51562 10.57 0.33594 8.3945-2.6133 17.105-8.3125 24.516-11.637 15.125-17.785 33.23-17.785 52.355 0 23.641 9.8828 46.492 27.125 62.68 16.121 15.148 36.824 23.316 58.801 23.316 1.8555 0 3.7188-0.058594 5.5859-0.17578 41.855-2.6211 76.293-36.043 80.105-77.754 2.0977-22.953-4.7969-45.293-19.402-62.91-4.6367-5.5977-6.9141-12.875-6.4023-20.48zm-69.25-60.609c9.2539-2.0117 18.793-0.035157 19.125 0.03125 17.168 2.8008 32.195 13.004 41.223 27.73-7.3242 1.6562-20.414 3.2188-31.094-3.1484-1.4258-0.84766-3.1758-0.94531-4.6758-0.25781-1.5078 0.68359-2.5781 2.0703-2.8672 3.6992-1.4727 8.2461-4.7852 19.207-12.277 27.188-7.3438-7.8281-10.664-18.531-12.168-26.586-0.29688-1.5938-1.3516-2.9531-2.8203-3.6406-0.67969-0.3125-1.4062-0.47266-2.1328-0.47266-0.85156 0-1.7031 0.21484-2.4688 0.64844-11.652 6.5664-24.41 4.7695-31.387 2.957 8.7539-14.133 23.598-24.254 41.543-28.148zm85.023 143.09c-3.3594 36.805-33.754 66.297-70.699 68.609-21.254 1.3359-41.43-5.9297-56.859-20.426-15.441-14.508-23.945-34.164-23.945-55.34 0-16.883 5.4258-32.859 15.695-46.215 7.1406-9.2812 10.832-20.312 10.395-31.066-0.11719-2.918 0.023438-5.875 0.42969-8.7812 0.60937-4.418 1.2188-7.2617 2.6133-10.594 7.2656 1.0781 16.641 1.1484 26.137-2.4922 2.625 9.793 7.6836 21.219 17.453 29.234 0.93359 0.76172 2.0625 1.1445 3.1953 1.1445s2.2656-0.37891 3.1953-1.1445c9.9297-8.1484 15.008-19.789 17.602-29.781 9.1289 3.5078 18.645 3.457 26.035 2.4727 2.2148 5.2539 3.0391 10.246 3.0391 17.945 0 1.1016-0.035157 2.1875-0.10547 3.2695-0.67969 10.195 2.4141 20 8.707 27.598 12.887 15.555 18.965 35.289 17.113 55.566z"/>
 </g>
</svg>