<?xml version="1.0" encoding="UTF-8"?>
<!-- The Best Svg Icon site in the world: iconSvg.co, Visit us! https://iconsvg.co -->
<svg fill="#000000" width="800px" height="800px" version="1.1" viewBox="144 144 512 512" xmlns="http://www.w3.org/2000/svg">
 <path d="m596.95 382.48h-13.73c-0.44141-19.348-6.6719-37.637-18.188-53.008-5.9336-7.918-9.0039-17.227-8.6484-26.199 0.14844-3.6758-0.03125-7.418-0.52734-11.113-3.4492-25.586-22.375-46.691-46.375-52.707l2.6641-22.633c0.023437-0.19531 0.035156-0.39453 0.035156-0.58984 0.003907-9.7852-7.8125-17.75-17.422-17.75-9 0-16.336 7.0039-17.25 15.926-2.5312-3.2617-5.5078-6.2305-9.1641-8.5547-17.441-11.066-41.238-2.6328-42.25-2.2773-2.2031 0.80078-3.5664 3.0117-3.2852 5.3438 0.13281 1.0781 3.3945 26.566 20.754 37.586 4.0469 2.5664 8.4766 3.9492 12.91 4.6836-14.602 11.535-23.395 29.203-23.395 49.562 0 1.3945 0.042969 2.7773 0.13281 4.1445 0.53516 8.1641-1.8398 15.961-6.6875 21.957-12.699 15.707-19.719 35.297-20.203 55.633l-14.801-0.003907c-0.44141-19.344-6.6641-37.637-18.188-53.008-5.9297-7.9141-9.0039-17.219-8.6484-26.199 0.14844-3.6953-0.03125-7.4336-0.52344-11.113-3.4492-25.582-22.379-46.688-46.375-52.707l2.668-22.633c0.023437-0.19531 0.035156-0.39453 0.035156-0.58984-0.003906-9.7852-7.8203-17.75-17.434-17.75-9 0-16.336 7.0039-17.25 15.926-2.5312-3.2617-5.5078-6.2305-9.1641-8.5547-17.438-11.066-41.246-2.6328-42.25-2.2773-2.2031 0.80078-3.5664 3.0117-3.2852 5.3438 0.13281 1.0781 3.3945 26.566 20.754 37.586 4.0469 2.5703 8.4805 3.9492 12.914 4.6836-14.602 11.535-23.398 29.203-23.398 49.562 0 1.3867 0.050781 2.7656 0.13281 4.1445 0.53516 8.1641-1.8398 15.961-6.6875 21.957-12.695 15.707-19.715 35.297-20.199 55.633l-11.105-0.003907c-2.7852 0-5.0391 2.2539-5.0391 5.0391v82.305c0 2.7812 2.2539 5.0391 5.0391 5.0391h10.988v34.281h-10.988c-2.7852 0-5.0391 2.2539-5.0391 5.0391l0.003906 82.305c0 2.7812 2.2539 5.0391 5.0391 5.0391h393.43c2.7852 0 5.0391-2.2539 5.0391-5.0391l-0.003906-82.309c0-2.7812-2.2539-5.0391-5.0391-5.0391h-11.211v-34.281h11.211c2.7852 0 5.0391-2.2539 5.0391-5.0391v-82.301c0-2.7812-2.2539-5.0391-5.0391-5.0391zm-102.19-173.93c3.9688 0 7.2109 3.3047 7.3438 7.418l-2.5547 21.695c-2.625-0.23047-6.0195-0.30469-9.9219 0.070313l-2.2188-21.734c0.11328-4.125 3.3672-7.4492 7.3516-7.4492zm-45.797 29.441c-9.707-6.1602-13.832-19.344-15.363-26.105 6.5781-1.5938 19.738-3.625 29.344 2.4688 8.5078 5.3984 12.887 16.422 15.75 25.41-7.7266 2.082-20.844 3.8711-29.73-1.7734zm-14.605 95.184c6.4453-7.9688 9.6094-18.254 8.9102-28.953-0.078125-1.1484-0.11328-2.3086-0.11328-3.4766 0-26.34 17.426-47.406 43.363-52.414 9.125-1.7695 16.121-0.0625 16.574 0.035157 22.121 3.8047 39.715 22.363 42.781 45.133 0.41797 3.1211 0.57031 6.2773 0.44922 9.3711-0.44922 11.277 3.332 22.871 10.652 32.641 10.203 13.613 15.738 29.816 16.176 46.965h-156.77c0.48047-18.035 6.7266-35.387 17.973-49.301zm-131.3-124.62c3.9688 0 7.2188 3.3047 7.3516 7.418l-2.5547 21.699c-2.625-0.23438-6.0234-0.30859-9.9258 0.070312l-2.2188-21.734c0.10938-4.1289 3.3594-7.4531 7.3477-7.4531zm-45.797 29.441c-9.707-6.1602-13.832-19.344-15.363-26.105 6.5742-1.5938 19.742-3.625 29.344 2.4688 8.5078 5.3984 12.887 16.422 15.75 25.41-7.7266 2.082-20.844 3.8711-29.73-1.7734zm-14.605 95.184c6.4453-7.9688 9.6094-18.254 8.9102-28.934-0.074219-1.1562-0.11328-2.3203-0.11328-3.5 0-26.34 17.43-47.406 43.371-52.414 9.1406-1.7695 16.113-0.0625 16.57 0.035156 22.125 3.8047 39.719 22.363 42.785 45.133 0.41797 3.1016 0.56641 6.2539 0.44141 9.375-0.44141 11.289 3.3398 22.879 10.656 32.637 10.199 13.617 15.73 29.82 16.172 46.965l-156.77 0.003906c0.48438-18.035 6.7305-35.387 17.973-49.301zm349.26 186.04v72.23h-383.36v-72.23zm-367.34-10.074v-34.281h351.08v34.281zm367.34-44.359h-383.36v-72.227h383.36z"/>
</svg>