<?xml version="1.0" encoding="UTF-8"?>
<!-- The Best Svg Icon site in the world: iconSvg.co, Visit us! https://iconsvg.co -->
<svg fill="#000000" width="800px" height="800px" version="1.1" viewBox="144 144 512 512" xmlns="http://www.w3.org/2000/svg">
 <path d="m625.52 303.05c-1.7578-1.5-4.0859-2.1484-6.3672-1.7773l-337.71 55.043v-0.003906c-2.1719 0.35156-4.0977 1.6016-5.3125 3.4375-1.2109 1.8398-1.5977 4.1016-1.0625 6.2383v0.125l-94.199 15.602c-3.7227 0.61719-6.4844 3.793-6.5781 7.5664l-2.5742 101.48c-0.054688 2.125 0.75 4.1797 2.2305 5.6992 1.4844 1.5234 3.5156 2.3789 5.6406 2.3789 0.52734 0 1.0547-0.054687 1.5742-0.16406l79.184-16.215v-0.003906c-0.97656 2.9102-0.16016 6.125 2.0938 8.2148 2.25 2.0859 5.5156 2.6641 8.3438 1.4688l352.67-148.32c2.9297-1.2227 4.8398-4.0859 4.8438-7.2578v-27.555c-0.011718-2.293-1.0234-4.4688-2.7734-5.957zm-435.66 93.133 89.062-14.746 11.305 45.328-20.379 37.676-82.137 16.816zm422.69-64.848-327.24 137.62 20.23-37.383c0.93359-1.7305 1.1914-3.7461 0.71484-5.6523l-13.824-55.441 320.12-52.172zm-82.371 15.664c-1.1406-4.1875 1.3242-8.5078 5.5078-9.6602l19.68-5.375c4.1953-1.1406 8.5234 1.3359 9.6641 5.5312 1.1406 4.1953-1.3359 8.5195-5.5312 9.6602l-19.68 5.3672v0.003907c-4.1875 1.1406-8.5078-1.3242-9.6562-5.5117zm-282.61 50.191c-1.8086-1.4961-4.1914-2.1094-6.4961-1.668l-19.719 3.7539c-4.6953 0.89453-8.9336 3.4023-11.973 7.0938-3.0391 3.6875-4.6914 8.3281-4.668 13.105l0.09375 19.43c0.027343 6.043 2.7266 11.766 7.3711 15.633 4.6445 3.8672 10.758 5.4844 16.707 4.418l15.051-2.707 0.003906-0.003906c3.7578-0.66797 6.4961-3.9336 6.4922-7.7539v-45.238c0-2.3438-1.043-4.5664-2.8477-6.0625zm-12.879 44.723-8.5742 1.5742c-1.3711 0.24609-2.7852-0.125-3.8555-1.0156-1.0703-0.89453-1.6914-2.2188-1.6953-3.6133l-0.09375-19.438c-0.007812-2.2734 1.6055-4.2344 3.8438-4.6602l10.375-2z"/>
</svg>