<?xml version="1.0" encoding="UTF-8"?>
<!-- The Best Svg Icon site in the world: iconSvg.co, Visit us! https://iconsvg.co -->
<svg fill="#000000" width="800px" height="800px" version="1.1" viewBox="144 144 512 512" xmlns="http://www.w3.org/2000/svg">
 <g>
  <path d="m249.6 287.38c-0.74219 2.2227-1.4805 5.1875-1.4805 8.1484 0 11.855 9.6328 22.227 21.484 22.227-0.74219 2.2227-1.4805 5.1875-1.4805 7.4102 0 12.594 10.371 22.227 22.227 22.227 4.4453 0 7.4102-2.9648 7.4102-7.4102s-2.9648-7.4102-7.4102-7.4102c-4.4453 0-7.4102-3.7031-7.4102-7.4102 0-4.4453 3.7031-7.4102 7.4102-7.4102h39.266c4.4453 0 7.4102-2.9648 7.4102-7.4102s-2.9648-7.4102-7.4102-7.4102h-60.012c-4.4453 0-7.4102-3.7031-7.4102-7.4102 0-4.4453 3.7031-7.4102 7.4102-7.4102h60.012c4.4453 0 7.4102-2.9648 7.4102-7.4102s-2.9648-7.4102-7.4102-7.4102l-74.09 0.011719c-4.4453 0-7.4102-3.7031-7.4102-7.4102 0-4.4453 3.7031-7.4102 7.4102-7.4102h74.832c4.4453 0 7.4102-2.9648 7.4102-7.4102 0-4.4453-2.9648-7.4102-7.4102-7.4102h-60.012c-4.4453 0-7.4102-3.7031-7.4102-7.4102 0-4.4453 3.7031-7.4102 7.4102-7.4102h26.672c4.4453 0 7.4102-2.9648 7.4102-7.4102 0-4.4453-2.9648-7.4102-7.4102-7.4102h-26.672c-12.594 0-22.227 10.371-22.227 22.227 0 2.9648 0.74219 5.9258 1.4805 8.1484-9.6328 2.2227-16.301 11.113-16.301 21.484 0 10.387 6.668 19.277 16.301 21.5z"/>
  <path d="m610.41 214.04h-50.383c-4.4453 0-7.4102 2.9648-7.4102 7.4102 0 4.4453 2.9648 7.4102 7.4102 7.4102h42.973v97.055h-103.73v-97.059h29.637c4.4453 0 7.4102-2.9648 7.4102-7.4102 0-4.4453-2.9648-7.4102-7.4102-7.4102h-81.5c-2.9648 0-5.1875 1.4805-6.668 3.7031l-43.711-48.898c-4.4453-5.1836-11.855-7.4062-19.262-5.1836-7.4102 2.2227-12.594 8.1484-13.336 15.559-2.2227 12.594 1.4805 25.93 10.371 34.82l-48.898 0.003906c-4.4453 0-7.4102 2.9648-7.4102 7.4102 0 4.4453 2.9648 7.4102 7.4102 7.4102h65.941c2.9648 0 5.9258-1.4805 6.668-4.4453 1.4805-2.9648 0.74219-5.9258-1.4805-8.1484l-11.113-11.113c-5.9258-5.9258-8.8906-14.816-7.4102-23.707 0.74219-2.2227 2.2227-2.9648 2.9648-3.7031 0.74219 0 2.9648-0.74219 4.4453 1.4805l54.086 60.012v74.832l-28.895 15.559c-5.1914 2.2148-11.117 3.6953-17.785 3.6953h-74.09c-4.4453 0-7.4102 2.9648-7.4102 7.4102 0 4.4453 2.9648 7.4102 7.4102 7.4102h74.09c8.1484 0 17.039-2.2227 24.449-5.9258l22.227-11.855v2.9609c0 4.4453 2.9648 7.4102 7.4102 7.4102h163c4.4453 0 7.4102-2.9648 7.4102-7.4102l-0.003907-111.88c0-3.7031-2.9609-7.4062-7.4062-7.4062zm-125.95 111.88h-29.637v-97.059h29.637z"/>
  <path d="m374.81 370.36c-2.9648-2.2227-5.9258-2.2227-8.8906 0-13.336 9.6328-20.004 22.969-20.004 37.043 0 14.078 7.4102 27.414 20.004 37.043 1.4805 0.74219 2.9648 1.4805 4.4453 1.4805s2.9648-0.74219 4.4453-1.4805c13.336-9.6328 20.004-22.969 20.004-37.043 0.74219-14.074-6.668-27.41-20.004-37.043zm-4.4453 58.531c-6.668-6.668-9.6328-14.078-9.6328-21.484 0-8.1484 3.7031-15.559 9.6328-21.484 6.668 6.668 9.6328 14.078 9.6328 21.484s-2.9648 15.555-9.6328 21.484z"/>
  <path d="m374.81 478.54c2.9648-2.2227 3.7031-7.4102 1.4805-10.371-2.2227-2.9648-7.4102-3.7031-10.371-1.4805-13.336 9.6328-20.004 22.969-20.004 37.043 0 14.078 7.4102 27.414 20.004 37.043 1.4805 0.74219 2.9648 1.4805 4.4453 1.4805s2.9648-0.74219 4.4453-1.4805c11.855-8.8906 19.262-21.484 20.004-34.082 0-4.4453-2.9648-7.4102-6.668-8.1484-4.4453 0-7.4102 2.9648-8.1484 6.668-0.74219 7.4102-3.7031 14.078-9.6328 20.004-6.668-6.668-9.6328-14.078-9.6328-21.484 0-9.6328 5.1875-18.523 14.078-25.191z"/>
  <path d="m450.38 495.57c-2.2227-0.74219-4.4453-0.74219-6.668 0-2.2227 1.4805-3.7031 3.7031-3.7031 5.9258-2.9648 35.562-33.34 63.719-68.902 63.719s-65.941-28.152-68.902-63.719c0-2.2227-1.4805-4.4453-3.7031-5.9258s-4.4453-1.4805-6.668 0c-57.051 25.93-95.574 72.609-108.91 131.88-0.74219 2.2227 0 4.4453 1.4805 5.9258 0.73438 2.9648 2.957 3.707 5.1797 3.707h54.828c4.4453 0 7.4102-2.9648 7.4102-7.4102 0-4.4453-2.9648-7.4102-7.4102-7.4102h-45.195c13.336-47.418 44.453-85.945 89.648-108.91 8.1484 38.527 42.23 66.68 82.238 66.68 40.008 0 74.09-28.895 82.238-66.68 42.973 22.227 75.57 62.234 88.906 108.17h-267.46c-4.4453 0-7.4102 2.9648-7.4102 7.4102s2.9648 7.4102 7.4102 7.4102h277.09c2.2227 0 4.4453-0.74219 5.9258-2.9648 1.4805-1.4805 2.2227-4.4453 1.4805-5.9258-14.066-57.793-54.816-106.69-108.9-131.88z"/>
 </g>
</svg>