<?xml version="1.0" encoding="UTF-8"?>
<!-- The Best Svg Icon site in the world: iconSvg.co, Visit us! https://iconsvg.co -->
<svg fill="#000000" width="800px" height="800px" version="1.1" viewBox="144 144 512 512" xmlns="http://www.w3.org/2000/svg">
 <path d="m485.45 307.4-1.375 4.8477 0.60938-5.0664c-29.305-8.4414-48.773-32.422-48.449-59.664 0.21094-17.324 3.457-31.637 9.3984-41.383 0.94531-1.5547 0.98047-3.5039 0.089844-5.0938-0.89453-1.5859-2.5703-2.5664-4.3906-2.5664h-82.656c-1.8203 0-3.5 0.98438-4.3945 2.5664-0.89062 1.5898-0.85547 3.5391 0.089844 5.0938 5.9375 9.7461 9.1875 24.059 9.3984 41.383 0.32422 27.242-19.145 51.223-48.449 59.664l1.3984 4.8398-2.1602-4.6211c-72.684 20.566-116.08 74.012-116.08 142.97 0 87.574 84.746 151.14 201.51 151.15h0.019531c116.77-0.011719 201.52-63.574 201.52-151.15 0-68.961-43.395-122.41-116.08-142.97zm-118.56-98.852h66.234c-4.4336 10.441-6.7695 23.465-6.957 38.848-0.19531 16.344 5.6484 31.637 15.914 43.98 0.078125 0.11719 0.09375 0.25391 0.17969 0.36719 0.60156 0.78125 60.207 79.449 46.566 167.5-7.7734 50.172-37.684 94.02-88.82 130.41-51.137-36.387-81.047-80.23-88.82-130.4-13.637-88.047 45.969-166.71 46.566-167.5 0.085937-0.11328 0.10547-0.25 0.17969-0.36719 10.262-12.348 16.105-27.637 15.914-43.98-0.1875-15.387-2.5234-28.41-6.957-38.852zm-158.33 241.82c0-64.188 40.652-114.01 108.75-133.28 0.003906 0 0.80078-0.23047 0.8125-0.23047 5.4883-1.582 10.637-3.6914 15.477-6.1758-17.621 31.098-42.02 87.578-32.375 150.02 7.6992 49.863 35.863 93.633 83.688 130.32-103.05-5.1406-176.35-62.684-176.35-140.66zm206.55 140.66c47.824-36.691 75.992-80.461 83.688-130.32 9.6406-62.441-14.754-118.92-32.375-150.02 4.8359 2.4844 9.9883 4.5938 15.477 6.1758 0.011719 0 0.80859 0.23047 0.8125 0.23047 68.094 19.27 108.75 69.09 108.75 133.28 0 77.98-73.305 135.52-176.35 140.66z"/>
</svg>