<?xml version="1.0" encoding="UTF-8"?>
<!-- The Best Svg Icon site in the world: iconSvg.co, Visit us! https://iconsvg.co -->
<svg fill="#000000" width="800px" height="800px" version="1.1" viewBox="144 144 512 512" xmlns="http://www.w3.org/2000/svg">
 <g>
  <path d="m320.55 350.47 38.254 9.0898c0.38281 0.089844 0.77344 0.13672 1.1641 0.13672 1.1211 0 2.2266-0.375 3.125-1.0859 1.207-0.95703 1.9141-2.4141 1.9141-3.9531v-19.762c0-2.3359-1.6055-4.3633-3.875-4.9023l-38.254-9.0898c-1.4922-0.35156-3.0781-0.003906-4.2891 0.94922-1.207 0.95703-1.9141 2.4141-1.9141 3.9531v19.762c0 2.332 1.6055 4.3594 3.875 4.9023zm6.2031-18.289 28.176 6.6953v9.4062l-28.176-6.6953z"/>
  <path d="m456.95 433.59c0.89453 0.69531 1.9844 1.0586 3.0938 1.0586 0.41406 0 0.83203-0.050782 1.2422-0.15625l34.473-8.7773c2.2344-0.56641 3.7969-2.582 3.7969-4.8828v-21.398c0-7.0859-3.1797-13.621-8.7266-17.93-5.4258-4.2148-12.344-5.6602-18.973-3.9805-9.9219 2.5273-16.852 11.539-16.852 21.91v30.176c0 1.5586 0.71484 3.0273 1.9453 3.9805zm8.1289-34.152c0-5.7656 3.8086-10.758 9.2578-12.145 0.98047-0.25 1.9727-0.375 2.957-0.375 2.6289 0 5.1992 0.875 7.3438 2.543 3.0742 2.3867 4.832 6.0234 4.832 9.9766v17.484l-24.395 6.2109z"/>
  <path d="m518.93 418.56c0.41406 0 0.83203-0.050781 1.2422-0.15625l28.727-7.3125c2.2344-0.56641 3.7969-2.582 3.7969-4.8828v-17.832c0-6.168-2.7656-11.855-7.5938-15.605-4.7266-3.6758-10.754-4.9414-16.535-3.4688-8.6406 2.2031-14.676 10.043-14.676 19.074v25.145c0 1.5547 0.71875 3.0234 1.9453 3.9766 0.89453 0.69922 1.9883 1.0625 3.0938 1.0625zm5.0391-30.184c0-4.418 2.9141-8.2461 7.0859-9.3086 0.74609-0.19141 1.5039-0.28516 2.2539-0.28516 2.0039 0 3.9688 0.66797 5.6094 1.9453 2.3516 1.8281 3.7031 4.6172 3.7031 7.6523v13.918l-18.652 4.7461z"/>
  <path d="m599.88 300.55-110.84-100.76c-1.3125-1.1914-3.1523-1.6055-4.8359-1.1016l-151.14 45.344c-0.41406 0.125-0.80859 0.30078-1.168 0.51953h-0.003907l-71.238 43.328c-0.097656 0.058594-0.15234 0.16016-0.24609 0.22656-0.19531 0.13672-0.41406 0.24219-0.58984 0.41016l-39.598 37.281c-1.5039 1.4141-1.9883 3.6055-1.2305 5.5234 0.76172 1.9219 2.6172 3.1797 4.6836 3.1797h34.562v109.3c-0.074218 0.054687-0.16797 0.0625-0.24219 0.12109l-57.578 45.102c-2.1875 1.7148-2.5742 4.8789-0.85938 7.0742 0.99219 1.2695 2.4727 1.9297 3.9688 1.9297 1.0859 0 2.1836-0.34766 3.1055-1.0742l56.852-44.531 29.027 7.7773-92.086 71.859c-2.1953 1.7109-2.582 4.8789-0.875 7.0742 0.99219 1.2734 2.4766 1.9375 3.9766 1.9375 1.0859 0 2.1758-0.34766 3.0977-1.0664l98.078-76.527 28.852 7.7305-133.08 101.12c-2.2148 1.6836-2.6484 4.8438-0.96484 7.0586 0.99219 1.3047 2.4961 1.9883 4.0156 1.9883 1.0586 0 2.1328-0.33594 3.043-1.0273l139.3-105.84 29.016 7.7773-144.19 110.2c-2.2109 1.6914-2.6328 4.8516-0.94141 7.0625 0.99219 1.2969 2.4883 1.9766 4.0039 1.9766 1.0664 0 2.1445-0.33594 3.0586-1.0352l150.36-114.91 29.133 7.8086-125.22 99.152c-2.1836 1.7305-2.5508 4.8984-0.82422 7.0781 0.99609 1.2578 2.4688 1.9102 3.9531 1.9102 1.0977 0 2.1992-0.35547 3.125-1.0859l131.68-104.27c0.20703-0.16406 0.3125-0.39062 0.48438-0.57422l148.11-38.527c2.2188-0.57812 3.7695-2.582 3.7695-4.875v-138.71l16.406-4.3438c1.7852-0.47656 3.168-1.8828 3.6055-3.6758 0.43359-1.793-0.14453-3.6797-1.5078-4.9219zm-341.65 3.3008v20.582h-21.859zm10.074 25.617v-34.449l65.25-39.684 87.891 97.656c0.14844 0.16406 0.35547 0.23438 0.51953 0.375v131.11l-41.613-11.152 0.003906-89.336c0-2.3359-1.6055-4.3633-3.875-4.9023l-68.945-16.383c-1.4961-0.34766-3.0781-0.003906-4.2891 0.94922-1.207 0.95703-1.9141 2.4141-1.9141 3.9531v84.543l-33.027-8.8516zm100.71 137.94-24.625-42.988 25.887-26.363v69.648zm-54.195-12.875 22.238-22.645 18.52 32.328zm17.035-31.727-20.445 20.82-0.003906-56.512zm7.332-7.4688-23.051-40.238 50.73 12.051zm232.11-99.176v132.14l-139.25 36.223v-131.51l119.16-31.539zm-144.19 27.715-83.523-92.484 140.78-42.234 101.88 92.621z"/>
 </g>
</svg>