<?xml version="1.0" encoding="UTF-8"?>
<!-- The Best Svg Icon site in the world: iconSvg.co, Visit us! https://iconsvg.co -->
<svg fill="#000000" width="800px" height="800px" version="1.1" viewBox="144 144 512 512" xmlns="http://www.w3.org/2000/svg">
 <g>
  <path d="m350.42 303.24c0.30078-0.45313 0.65625-0.85547 1.1094-1.1602l46.449-30.48c0.60547-0.40234 1.3086-0.60547 2.0664-0.60547 0.75391 0 1.4609 0.20312 2.0664 0.60547l46.25 30.379c0.45312 0.30078 0.85547 0.65625 1.1094 1.1094l36.223 57.383 12.848-6.8008-37.988-60.156-60.457-39.699-60.758 39.852-37.887 60.004 12.848 6.8008z"/>
  <path d="m407.5 345.76c0-4.0312-3.2227-7.2539-7.2031-7.2539h-0.60547c-3.9805 0-7.2031 3.2227-7.2031 7.2539v20.758h15.012z"/>
  <path d="m596.48 463.45h-47.055v-22.27l0.95703-0.25c8.2109-2.0156 13.957-9.3203 13.957-17.684v-41.012c0-10.125-8.2109-18.289-18.289-18.289h-0.75391c-10.078 0-18.289 8.1602-18.289 18.289v41.012c0 8.3633 5.6914 15.668 13.906 17.684l0.95703 0.25v22.27h-62.074v-98.191l-36.273-57.434-43.48-28.516-43.68 28.668-36.172 57.281v98.191h-53.504v-22.27l0.95703-0.25c8.1602-2.0156 13.906-9.3203 13.906-17.684v-41.012c0-10.125-8.2109-18.289-18.289-18.289h-0.75781c-10.078 0-18.289 8.1602-18.289 18.289v41.012c0 8.3633 5.7422 15.668 13.957 17.684l0.95703 0.25v22.27h-40.785c-0.035156 0-0.0625-0.019531-0.097656-0.019531h-14.738c-2.082 0-3.7773 1.6953-3.7773 3.7773 0 2.082 1.6953 3.7773 3.7773 3.7773h33.254c0.035156 0 0.0625 0.019531 0.097656 0.019531h36.223l-61.359 68.875c-0.70703 0.75391-1.0078 1.7148-0.95703 2.7227 0.050781 1.0078 0.50391 1.9141 1.2578 2.6211 0.65625 0.60547 1.5625 0.95703 2.5195 0.95703 1.0586 0 2.0664-0.45312 2.8203-1.2578l65.797-73.91h38.289l-61.363 68.867c-0.70703 0.75391-1.0078 1.7148-0.95703 2.7227 0.050782 1.0078 0.50391 1.9141 1.2578 2.6211 0.70703 0.60547 1.5625 0.95703 2.5195 0.95703 1.0586 0 2.0664-0.45312 2.8203-1.2578l65.848-73.91 41.969-0.003906-61.363 68.871c-0.70703 0.75391-1.0078 1.7148-0.95703 2.7227 0.050782 1.0078 0.50391 1.9141 1.2578 2.6211 0.65625 0.60547 1.5625 0.95703 2.4688 0.95703 1.1094 0 2.1172-0.45312 2.8711-1.2578l65.801-73.914h13.148v71.391c0 2.0664 1.7148 3.7773 3.7773 3.7773 2.0664 0 3.7773-1.7109 3.7773-3.7773l0.003906-71.391h9.4219l65.848 73.91c0.70703 0.80469 1.7148 1.2578 2.8203 1.2578 0.90625 0 1.8125-0.35156 2.5195-0.95703 0.75391-0.70703 1.2109-1.6133 1.2578-2.6211 0.050781-1.0078-0.30078-1.9648-0.95703-2.7227l-61.363-68.867h41.969l65.848 73.91c0.70703 0.80469 1.7109 1.2578 2.8203 1.2578 0.90625 0 1.8125-0.35156 2.5195-0.95703 0.75391-0.70703 1.1602-1.6133 1.2578-2.6211 0.050781-1.0078-0.30078-1.9648-0.95703-2.7227l-61.363-68.867h38.238l65.848 73.91c0.70703 0.80469 1.7148 1.2578 2.8203 1.2578 0.90625 0 1.8125-0.35156 2.5195-0.95703 0.75391-0.70703 1.1602-1.6133 1.2578-2.6211 0.050781-1.0078-0.30078-1.9648-0.95703-2.7227l-61.359-68.867h72.145c2.0664 0 3.7773-1.7148 3.7773-3.7773 0-2.1172-1.7109-3.7812-3.7773-3.7812zm-211.55-117.69c0-8.1602 6.6016-14.812 14.762-14.812h0.60547c8.1602 0 14.762 6.6484 14.762 14.812v24.535c0 2.0664-1.7109 3.7773-3.7773 3.7773h-22.57c-2.0664 0-3.7773-1.7148-3.7773-3.7773zm6.6016 107.11-12.445 10.578h-11.738l19.246-16.375c0.70703-0.55469 1.5625-0.90625 2.4688-0.90625 1.1094 0 2.168 0.50391 2.8711 1.3594 1.3594 1.5625 1.1602 3.9805-0.40234 5.3438zm29.371 10.578-12.445-10.578c-1.5625-1.3594-1.7617-3.7773-0.40234-5.3398 0.70703-0.85547 1.7617-1.3594 2.8711-1.3594 0.90625 0 1.7617 0.35156 2.4688 0.90625l19.246 16.375zm15.418 0v-53.453l-22.824 20.859c-0.70703 0.65625-1.6133 1.0078-2.5703 1.0078-1.0586 0-2.0664-0.45313-2.7695-1.2109-1.4102-1.5625-1.3086-3.9297 0.20312-5.3398l22.016-20.102h-26.602v58.242h-7.5586v-58.242h-26.602l22.016 20.102c1.5117 1.4102 1.6133 3.7773 0.20313 5.3398-0.70703 0.75391-1.7148 1.2109-2.7695 1.2109-0.95703 0-1.8633-0.35156-2.5703-1.0078l-22.824-20.859v53.453h-7.5586l0.003907-62.02 0.15234-0.55469c0.050781-0.45312 0.10156-0.65625 0.15234-0.80469 0.050781-0.15234 0.20312-0.35156 0.30078-0.55469l0.35156-0.55469c0.20312-0.25 0.40234-0.35156 0.60547-0.50391l0.55469-0.35156 0.70703-0.25391c0.45312-0.10156 0.70703-0.20312 0.90625-0.20312l80.254 0.003906c0.25 0 0.45313 0.050781 0.70703 0.15234l0.60547 0.15234 0.70703 0.35156c0.35156 0.25 0.55469 0.40234 0.70703 0.50391l0.30078 0.55469c0.25 0.35156 0.40234 0.55469 0.45312 0.70703s0.10156 0.35156 0.10156 0.55469l0.15234 0.70703 0.050781 62.121z"/>
 </g>
</svg>