<?xml version="1.0" encoding="UTF-8"?>
<!-- The Best Svg Icon site in the world: iconSvg.co, Visit us! https://iconsvg.co -->
<svg fill="#000000" width="800px" height="800px" version="1.1" viewBox="144 144 512 512" xmlns="http://www.w3.org/2000/svg">
 <g>
  <path d="m502.06 198.48h-204.59c-2.7852 0-5.0391 2.2539-5.0391 5.0391v32.375l-23.266 51.035c-3.8086 8.3516-5.8242 17.629-5.8242 26.824v282.73c0 2.7852 2.2539 5.0391 5.0391 5.0391h263.25c2.7852 0 5.0391-2.2539 5.0391-5.0391l-0.003906-282.73c0-9.1953-2.0156-18.469-5.8242-26.824l-23.738-52.082v-31.332c0-2.7852-2.25-5.0352-5.0391-5.0352zm-199.56 10.074h194.52v22.355h-194.52zm224.09 105.2v277.7h-253.18v-277.7c0-7.7578 1.7031-15.594 4.9219-22.641l22.852-50.129h197.63l22.848 50.129c3.2188 7.0508 4.9219 14.883 4.9219 22.641z"/>
  <path d="m404.67 381.82v-1.9141c1.9336 0.16016 4.3594 0.29688 7.1523 0.29688 10.812 0 26.672-2.0352 37.082-12.453 16.73-16.727 11.84-47.523 11.621-48.824-0.35156-2.125-2.0156-3.7891-4.1406-4.1406-1.3047-0.22266-32.098-5.1172-48.824 11.621-3.543 3.543-6.0703 7.7266-7.9258 12.117-1.8555-4.3867-4.3828-8.5742-7.9258-12.117-16.73-16.738-47.531-11.844-48.824-11.621-2.125 0.35156-3.7891 2.0156-4.1406 4.1406-0.21484 1.3047-5.1133 32.098 11.617 48.824 10.414 10.414 26.277 12.453 37.086 12.453 2.793 0 5.2148-0.13672 7.1523-0.30078v1.9062c-41.023 2.5625-73.637 36.656-73.637 78.312 0 43.324 35.242 78.562 78.562 78.562 43.324 0 78.562-35.242 78.562-78.562-0.007813-41.582-32.504-75.629-73.418-78.301zm10.012-48.289c10.121-10.125 28.477-9.875 36.328-9.2188 0.66016 7.8438 0.9375 26.156-9.2305 36.32-10.121 10.125-28.48 9.8789-36.328 9.2188-0.66016-7.8438-0.9375-26.164 9.2305-36.32zm-20.879 36.32c-7.8633 0.65625-26.203 0.89844-36.324-9.2188-10.121-10.121-9.8594-28.477-9.2148-36.328 7.8555-0.64453 26.156-0.93359 36.32 9.2305 10.117 10.105 9.8594 28.457 9.2188 36.316zm5.7148 158.75c-37.766 0-68.488-30.723-68.488-68.488 0-37.766 30.723-68.48 68.488-68.48s68.488 30.723 68.488 68.488-30.723 68.48-68.488 68.48z"/>
 </g>
</svg>