<?xml version="1.0" encoding="UTF-8"?>
<!-- The Best Svg Icon site in the world: iconSvg.co, Visit us! https://iconsvg.co -->
<svg fill="#000000" width="800px" height="800px" version="1.1" viewBox="144 144 512 512" xmlns="http://www.w3.org/2000/svg">
 <g>
  <path d="m609.39 220.52c-1.7969-1.3555-4.0938-1.875-6.2969-1.418l-35.227 7.0469-4.8945-4.8945h-0.003906c-1.4688-1.4688-3.457-2.3008-5.5352-2.3086h-7.8711c-2.0859 0-4.0898 0.83203-5.5664 2.3086l-4.8945 4.8945-35.195-7.0469c-2.207-0.46094-4.5039 0.054688-6.2969 1.418l-31.488 23.617c-2.7109 2.0312-3.8164 5.5703-2.7461 8.7852 1.0703 3.2148 4.0781 5.3828 7.4688 5.3828h62.977v4.6133l-2.9609 2.9609-75.762-6.8867v-0.6875c0-4.1758-1.6562-8.1797-4.6094-11.133-2.9531-2.9531-6.957-4.6094-11.133-4.6094h-7.8711c0-4.1758-1.6602-8.1797-4.6133-11.133s-6.957-4.6133-11.133-4.6133h-31.488c-4.1758 0-8.1797 1.6602-11.133 4.6133s-4.6094 6.957-4.6094 11.133h-7.875c-4.1758 0-8.1797 1.6562-11.133 4.6094-2.9492 2.9531-4.6094 6.957-4.6094 11.133v0.68359l-75.762 6.8867-2.957-2.957v-4.6133h62.977-0.003906c3.3906 0 6.3984-2.168 7.4688-5.3828 1.0742-3.2148-0.03125-6.7539-2.7422-8.7852l-31.488-23.617c-1.7969-1.3555-4.0938-1.875-6.3008-1.418l-35.227 7.0469-4.8945-4.8945c-1.4688-1.4688-3.457-2.3008-5.5352-2.3086h-7.8711c-2.0898 0-4.0898 0.83203-5.5664 2.3086l-4.8945 4.8945-35.199-7.0469c-2.2031-0.46094-4.5 0.054688-6.2969 1.418l-31.488 23.617c-2.7109 2.0312-3.8164 5.5703-2.7422 8.7852 1.0703 3.2148 4.0781 5.3828 7.4648 5.3828h62.977v4.6133l-5.5664 5.5664h0.003906c-1.4766 1.4766-2.3086 3.4766-2.3086 5.5664v15.742c0 4.1758 1.6602 8.1797 4.6133 11.133 2.9531 2.9531 6.957 4.6133 11.133 4.6133h102.34v7.8711c0 4.1758 1.6562 8.1797 4.6094 11.133 2.9531 2.9531 6.957 4.6094 11.133 4.6094h1.0391l-7.5898 11.375h0.003906c-0.86328 1.2969-1.3242 2.8164-1.3242 4.3711v23.617h-165.31c-4.3477 0-7.8711 3.5234-7.8711 7.8711v23.617h15.742v-15.746h70.848v15.742h15.742l0.003906-15.742h70.848v15.742h15.742v-15.742h78.723v15.742h15.742v-15.742h70.848v15.742h15.742l0.003906-15.742h70.848v15.742h15.742l0.003906-23.613c0-2.0898-0.83203-4.0898-2.3086-5.5664-1.4766-1.4766-3.4766-2.3047-5.5664-2.3047h-165.31v-23.617c0-1.5547-0.46094-3.0742-1.3203-4.3711l-7.5898-11.375h1.0391c4.1758 0 8.1797-1.6562 11.133-4.6094 2.9531-2.9531 4.6133-6.957 4.6133-11.133v-7.8711h102.34c4.1758 0 8.1797-1.6602 11.133-4.6133 2.9492-2.9531 4.6094-6.957 4.6094-11.133v-15.742c0-2.0898-0.82813-4.0898-2.3047-5.5664l-5.5664-5.5664v-4.6133h62.977c3.3867 0 6.3945-2.168 7.4688-5.3828 1.0703-3.2148-0.035156-6.7539-2.7461-8.7852zm-114.93 22.043 9.7773-7.3359 29.586 5.918v1.418zm-188.93 0h-39.359v-1.418l29.582-5.918zm-118.08 0 9.7773-7.3359 29.582 5.918v1.418zm173.18 125.95v-21.254l4.8633-7.2969 0.003906-0.003907c4.4766 8.3633 11.844 14.812 20.723 18.152 8.8789 3.3398 18.668 3.3398 27.547 0 8.8789-3.3398 16.242-9.7891 20.719-18.152l4.8672 7.3008v21.254zm204.68-78.723h-110.21c-4.3477 0-7.8711 3.5273-7.8711 7.875v15.742h-15.742c-4.3477 0-7.875 3.5234-7.875 7.8711 0 8.4375-4.5 16.234-11.809 20.453-7.3047 4.2188-16.309 4.2188-23.613 0-7.3086-4.2188-11.809-12.016-11.809-20.453 0-2.0859-0.82812-4.0898-2.3047-5.5664-1.4766-1.4766-3.4805-2.3047-5.5664-2.3047h-15.746v-15.742c0-2.0898-0.82812-4.0938-2.3047-5.5664-1.4766-1.4766-3.4805-2.3086-5.5664-2.3086h-110.21v-12.484l5.5664-5.5664h-0.003906c1.4766-1.4727 2.3086-3.4766 2.3086-5.5625v-28.23l3.2578-3.2578h1.3555l3.2578 3.2578v28.23c0 2.0859 0.83203 4.0898 2.3086 5.5625l7.8711 7.8711v0.003906c1.6562 1.6562 3.9648 2.4883 6.2969 2.2734l86.594-7.8711c4.0469-0.37891 7.1406-3.7773 7.1367-7.8398v-7.875h15.746c2.0859 0 4.0898-0.82812 5.5664-2.3047 1.4766-1.4766 2.3047-3.4766 2.3047-5.5664v-7.8711h31.488v7.8711c0 2.0898 0.82812 4.0898 2.3047 5.5664 1.4766 1.4766 3.4805 2.3047 5.5664 2.3047h15.742v7.8711l0.003906 0.003906c-0.015625 4.082 3.0938 7.5039 7.1641 7.8711l86.594 7.8711h-0.003907c2.3359 0.21875 4.6445-0.61719 6.2969-2.2734l7.875-7.875c1.4727-1.4844 2.2969-3.5 2.2812-5.5938v-28.23l3.2578-3.2578h1.3555l3.2578 3.2578v28.23c0 2.0859 0.83203 4.0898 2.3086 5.5625l5.5664 5.5664zm7.8711-47.23v-1.418l29.582-5.918 9.7773 7.3359z"/>
  <path d="m352.77 494.46c6.332-0.03125 12.387-2.5898 16.82-7.1094 4.4336-4.5156 6.8789-10.617 6.7969-16.945-0.007812-6.1094-1.4297-12.133-4.1562-17.602l-12.375-24.836c-1.4805-2.4844-4.1562-4.0039-7.0469-4.0039-2.8867 0-5.5664 1.5195-7.043 4.0039l-12.414 24.836c-2.7891 5.6016-4.2266 11.781-4.1992 18.043 0 6.2617 2.4883 12.27 6.918 16.699 4.4297 4.4297 10.438 6.9141 16.699 6.9141zm-5.375-34.637 5.375-10.734 5.375 10.762 0.003906-0.003906c1.6875 3.418 2.543 7.1875 2.4922 11 0 2.0859-0.82812 4.0898-2.3047 5.5664-1.4766 1.4766-3.4766 2.3047-5.5664 2.3047-2.1562-0.03125-4.207-0.92969-5.6875-2.4961-1.4844-1.5664-2.2695-3.6641-2.1836-5.8164-0.003906-3.6719 0.85156-7.2969 2.4961-10.582z"/>
  <path d="m179.58 494.46c6.3281-0.03125 12.383-2.5898 16.82-7.1094 4.4336-4.5156 6.8789-10.617 6.7969-16.945-0.007813-6.1094-1.4336-12.133-4.1562-17.602l-12.414-24.836c-1.4805-2.4844-4.1562-4.0039-7.0469-4.0039s-5.5664 1.5195-7.0469 4.0039l-12.414 24.836c-2.7734 5.6055-4.1992 11.785-4.1562 18.043 0 6.2617 2.4883 12.27 6.918 16.699 4.4297 4.4297 10.438 6.9141 16.699 6.9141zm-5.375-34.637 5.375-10.734 5.375 10.734c1.6953 3.4258 2.5508 7.2031 2.4961 11.023 0 2.0859-0.82812 4.0898-2.3047 5.5664-1.4766 1.4766-3.4805 2.3047-5.5664 2.3047-2.1562-0.03125-4.207-0.92969-5.6914-2.4961-1.4805-1.5664-2.2695-3.6641-2.1797-5.8164-0.003907-3.6719 0.85156-7.2969 2.4961-10.582z"/>
  <path d="m266.18 494.46c6.3281-0.03125 12.383-2.5898 16.816-7.1094 4.4336-4.5156 6.8828-10.617 6.7969-16.945-0.007812-6.1094-1.4297-12.133-4.1562-17.602l-12.375-24.836c-1.4805-2.4844-4.1562-4.0039-7.043-4.0039-2.8906 0-5.5664 1.5195-7.0469 4.0039l-12.414 24.836c-2.7891 5.6016-4.2266 11.781-4.1953 18.043 0 6.2617 2.4883 12.27 6.918 16.699 4.4258 4.4297 10.434 6.9141 16.699 6.9141zm-5.375-34.637 5.375-10.734 5.375 10.762v-0.003906c1.6875 3.418 2.543 7.1875 2.4961 11 0 2.0859-0.83203 4.0898-2.3047 5.5664-1.4766 1.4766-3.4805 2.3047-5.5664 2.3047-2.1562-0.03125-4.2109-0.92969-5.6914-2.4961-1.4844-1.5664-2.2695-3.6641-2.1836-5.8164 0-3.6719 0.85547-7.2969 2.4961-10.582z"/>
  <path d="m447.23 494.46c6.3281-0.03125 12.383-2.5898 16.82-7.1094 4.4336-4.5156 6.8789-10.617 6.7969-16.945-0.007812-6.1094-1.4336-12.133-4.1562-17.602l-12.375-24.836c-1.4805-2.4844-4.1562-4.0039-7.0469-4.0039s-5.5664 1.5195-7.0469 4.0039l-12.414 24.836c-2.7891 5.6016-4.2227 11.781-4.1953 18.043 0 6.2617 2.4883 12.27 6.918 16.699s10.438 6.9141 16.699 6.9141zm-5.375-34.637 5.375-10.734 5.375 10.762v-0.003906c1.6914 3.418 2.5469 7.1875 2.4961 11 0 2.0859-0.82812 4.0898-2.3047 5.5664-1.4766 1.4766-3.4766 2.3047-5.5664 2.3047-2.1562-0.03125-4.207-0.92969-5.6914-2.4961-1.4805-1.5664-2.2695-3.6641-2.1797-5.8164-0.003906-3.6719 0.85156-7.2969 2.4961-10.582z"/>
  <path d="m627.5 427.97c-1.4805-2.4844-4.1562-4.0039-7.0469-4.0039-2.8867 0-5.5625 1.5195-7.043 4.0039l-12.414 24.836c-2.7891 5.6016-4.2266 11.781-4.1953 18.043 0.078125 8.4375 4.6523 16.191 11.996 20.34 7.3477 4.1523 16.352 4.0664 23.617-0.21875 7.2656-4.2891 11.695-12.125 11.617-20.562-0.007812-6.1094-1.4297-12.133-4.1562-17.602zm-7.0859 50.75c-2.1562-0.03125-4.207-0.92969-5.6875-2.4961-1.4844-1.5664-2.2695-3.6641-2.1836-5.8164 0-3.6641 0.85547-7.2773 2.4961-10.559l5.375-10.758 5.375 10.762 0.003907-0.003906c1.6875 3.418 2.543 7.1875 2.4961 11 0 2.0859-0.83203 4.0898-2.3086 5.5664-1.4766 1.4766-3.4766 2.3047-5.5664 2.3047z"/>
  <path d="m533.82 494.46c6.3281-0.03125 12.383-2.5898 16.816-7.1094 4.4336-4.5156 6.8828-10.617 6.7969-16.945-0.007812-6.1094-1.4297-12.133-4.1562-17.602l-12.375-24.836c-1.4766-2.4844-4.1562-4.0039-7.043-4.0039-2.8906 0-5.5664 1.5195-7.0469 4.0039l-12.414 24.836c-2.7891 5.6016-4.2266 11.781-4.1953 18.043 0 6.2617 2.4883 12.27 6.918 16.699 4.4258 4.4297 10.434 6.9141 16.699 6.9141zm-5.375-34.637 5.375-10.734 5.375 10.762v-0.003906c1.6875 3.418 2.543 7.1875 2.4961 11 0 2.0859-0.82812 4.0898-2.3047 5.5664-1.4766 1.4766-3.4805 2.3047-5.5664 2.3047-2.1562-0.03125-4.2109-0.92969-5.6914-2.4961-1.4805-1.5664-2.2695-3.6641-2.1836-5.8164 0-3.6719 0.85547-7.2969 2.4961-10.582z"/>
  <path d="m352.77 581.05c6.332-0.03125 12.387-2.5938 16.82-7.1094 4.4336-4.5156 6.8789-10.617 6.7969-16.945-0.007812-6.1094-1.4297-12.137-4.1562-17.605l-12.375-24.836c-1.4805-2.4805-4.1562-4-7.0469-4-2.8867 0-5.5664 1.5195-7.043 4l-12.414 24.836c-2.7891 5.6055-4.2266 11.785-4.1992 18.043 0 6.2656 2.4883 12.273 6.918 16.699 4.4297 4.4297 10.438 6.918 16.699 6.918zm-5.375-34.637 5.375-10.738 5.375 10.762h0.003906c1.6875 3.418 2.543 7.1875 2.4922 10.996 0 2.0898-0.82812 4.0898-2.3047 5.5664-1.4766 1.4766-3.4766 2.3086-5.5664 2.3086-2.1562-0.03125-4.207-0.92969-5.6875-2.4961-1.4844-1.5664-2.2695-3.6641-2.1836-5.8164-0.003906-3.6758 0.85156-7.2969 2.4961-10.582z"/>
  <path d="m179.58 581.05c6.3281-0.03125 12.383-2.5938 16.82-7.1094 4.4336-4.5156 6.8789-10.617 6.7969-16.945-0.007813-6.1094-1.4336-12.137-4.1562-17.605l-12.414-24.836c-1.4805-2.4805-4.1562-4-7.0469-4s-5.5664 1.5195-7.0469 4l-12.414 24.836c-2.7734 5.6094-4.1992 11.789-4.1562 18.043 0 6.2656 2.4883 12.273 6.918 16.699 4.4297 4.4297 10.438 6.918 16.699 6.918zm-5.375-34.637 5.375-10.738 5.375 10.738c1.6953 3.4258 2.5508 7.2031 2.4961 11.02 0 2.0898-0.82812 4.0898-2.3047 5.5664-1.4766 1.4766-3.4805 2.3086-5.5664 2.3086-2.1562-0.03125-4.207-0.92969-5.6914-2.4961-1.4805-1.5664-2.2695-3.6641-2.1797-5.8164-0.003907-3.6758 0.85156-7.2969 2.4961-10.582z"/>
  <path d="m266.18 581.05c6.3281-0.03125 12.383-2.5938 16.816-7.1094 4.4336-4.5156 6.8828-10.617 6.7969-16.945-0.007812-6.1094-1.4297-12.137-4.1562-17.605l-12.375-24.836c-1.4805-2.4805-4.1562-4-7.043-4-2.8906 0-5.5664 1.5195-7.0469 4l-12.414 24.836c-2.7891 5.6055-4.2266 11.785-4.1953 18.043 0 6.2656 2.4883 12.273 6.918 16.699 4.4258 4.4297 10.434 6.918 16.699 6.918zm-5.375-34.637 5.375-10.738 5.375 10.762c1.6875 3.418 2.543 7.1875 2.4961 10.996 0 2.0898-0.83203 4.0898-2.3047 5.5664-1.4766 1.4766-3.4805 2.3086-5.5664 2.3086-2.1562-0.03125-4.2109-0.92969-5.6914-2.4961-1.4844-1.5664-2.2695-3.6641-2.1836-5.8164 0-3.6758 0.85547-7.2969 2.4961-10.582z"/>
  <path d="m447.23 581.05c6.3281-0.03125 12.383-2.5938 16.82-7.1094 4.4336-4.5156 6.8789-10.617 6.7969-16.945-0.007812-6.1094-1.4336-12.137-4.1562-17.605l-12.375-24.836c-1.4805-2.4805-4.1562-4-7.0469-4s-5.5664 1.5195-7.0469 4l-12.414 24.836c-2.7891 5.6055-4.2227 11.785-4.1953 18.043 0 6.2656 2.4883 12.273 6.918 16.699 4.4297 4.4297 10.438 6.918 16.699 6.918zm-5.375-34.637 5.375-10.738 5.375 10.762c1.6914 3.418 2.5469 7.1875 2.4961 10.996 0 2.0898-0.82812 4.0898-2.3047 5.5664-1.4766 1.4766-3.4766 2.3086-5.5664 2.3086-2.1562-0.03125-4.207-0.92969-5.6914-2.4961-1.4805-1.5664-2.2695-3.6641-2.1797-5.8164-0.003906-3.6758 0.85156-7.2969 2.4961-10.582z"/>
  <path d="m627.5 514.56c-1.4805-2.4805-4.1562-4-7.0469-4-2.8867 0-5.5625 1.5195-7.043 4l-12.414 24.836c-2.7891 5.6055-4.2266 11.785-4.1953 18.043 0.078125 8.4375 4.6523 16.191 11.996 20.344 7.3477 4.1484 16.352 4.0664 23.617-0.22266 7.2656-4.2852 11.695-12.125 11.617-20.559-0.007812-6.1094-1.4297-12.137-4.1562-17.605zm-7.0859 50.754c-2.1562-0.03125-4.207-0.92969-5.6875-2.4961-1.4844-1.5664-2.2695-3.6641-2.1836-5.8164 0-3.668 0.85547-7.2812 2.4961-10.559l5.375-10.762 5.375 10.762h0.003907c1.6875 3.418 2.543 7.1875 2.4961 10.996 0 2.0898-0.83203 4.0898-2.3086 5.5664-1.4766 1.4766-3.4766 2.3086-5.5664 2.3086z"/>
  <path d="m533.82 581.05c6.3281-0.03125 12.383-2.5938 16.816-7.1094 4.4336-4.5156 6.8828-10.617 6.7969-16.945-0.007812-6.1094-1.4297-12.137-4.1562-17.605l-12.375-24.836c-1.4766-2.4805-4.1562-4-7.043-4-2.8906 0-5.5664 1.5195-7.0469 4l-12.414 24.836c-2.7891 5.6055-4.2266 11.785-4.1953 18.043 0 6.2656 2.4883 12.273 6.918 16.699 4.4258 4.4297 10.434 6.918 16.699 6.918zm-5.375-34.637 5.375-10.738 5.375 10.762c1.6875 3.418 2.543 7.1875 2.4961 10.996 0 2.0898-0.82812 4.0898-2.3047 5.5664-1.4766 1.4766-3.4805 2.3086-5.5664 2.3086-2.1562-0.03125-4.2109-0.92969-5.6914-2.4961-1.4805-1.5664-2.2695-3.6641-2.1836-5.8164 0-3.6758 0.85547-7.2969 2.4961-10.582z"/>
 </g>
</svg>