<?xml version="1.0" encoding="UTF-8"?>
<!-- The Best Svg Icon site in the world: iconSvg.co, Visit us! https://iconsvg.co -->
<svg fill="#000000" width="800px" height="800px" version="1.1" viewBox="144 144 512 512" xmlns="http://www.w3.org/2000/svg">
 <g>
  <path d="m423.38 252.79v2.832c-15.586-0.78516-31.172-0.78516-46.762 0.078125v-2.9141c0-12.91 10.469-23.379 23.379-23.379 12.914 0 23.383 10.473 23.383 23.383z"/>
  <path d="m525.95 317.89v83.914c0 15.113-12.832 31.805-27.316 35.582-64.473 15.43-132.72 15.43-197.2 0-14.641-3.8555-27.391-20.469-27.391-35.582v-83.914c0-15.113 12.832-31.805 27.316-35.582 64.551-15.43 132.72-15.43 197.12-0.078125 14.641 3.8555 27.469 20.543 27.469 35.66z"/>
  <path d="m423.38 464v83.207c0 12.91-10.469 23.379-23.379 23.379s-23.379-10.469-23.379-23.379l-0.003906-83.129c7.793 0.39062 15.508 0.62891 23.301 0.62891 7.7969 0 15.668-0.23828 23.461-0.70703z"/>
 </g>
</svg>