<?xml version="1.0" encoding="UTF-8"?>
<!-- The Best Svg Icon site in the world: iconSvg.co, Visit us! https://iconsvg.co -->
<svg width="800px" height="800px" version="1.1" viewBox="144 144 512 512" xmlns="http://www.w3.org/2000/svg">
 <defs>
  <clipPath id="a">
   <path d="m148.09 197h503.81v405h-503.81z"/>
  </clipPath>
 </defs>
 <g clip-path="url(#a)">
  <path d="m632.93 381.73h-9.5273c-2.9922-51.324-34.953-91.945-73.367-91.945h-4.0938c-3.2266-51.484-34.875-92.023-73.367-92.023-38.496 0-70.062 40.539-73.367 91.945h-2.5977-2.5195c-3.3047-51.406-34.953-91.945-73.367-91.945-38.414 0-70.297 41.016-73.367 92.496h-4.0938c-38.414-0.47266-69.98 40.148-73.367 91.473h-2.832c-5.0312 0-9.8594 2-13.414 5.5586-3.5586 3.5586-5.5586 8.3828-5.5586 13.414v15.742c-0.019531 5.0469 1.9688 9.8945 5.5273 13.469 3.5625 3.5742 8.3984 5.582 13.445 5.582h1.9688v95.332c0 39.359 37.234 70.848 82.973 70.848h-0.003906c29.859 0.74609 57.93-14.184 73.996-39.359 16.07 25.176 44.141 40.105 74 39.359 29.855 0.74609 57.926-14.184 73.996-39.359 16.078 25.164 44.145 40.09 73.996 39.359 45.738 0 82.973-31.488 82.973-70.848v-95.172h1.9688c5.043 0 9.8789-2.0117 13.441-5.5859 3.5586-3.5742 5.5508-8.4219 5.5273-13.465v-15.746c0.042968-5.0586-1.9375-9.9219-5.5-13.516s-8.4102-5.6133-13.469-5.6133zm-82.895-73.84c28.734 0 52.348 32.355 55.105 73.84h-110.68c3.1523-41.484 26.844-73.84 55.578-73.84zm-77.461-91.707c29.758 0 54.082 34.715 55.656 78.719-28.023 11.887-48.887 46.051-51.562 87.223h-6.6914c-2.6758-41.879-24.246-76.438-52.98-87.773 1.7344-43.926 25.98-78.168 55.578-78.168zm-75.965 91.707c28.734 0 52.426 32.355 55.105 73.84h-110.45c2.9922-41.484 26.688-73.84 55.34-73.84zm-75.887-91.707c29.598 0 53.844 34.48 55.578 77.777-28.734 11.57-50.305 45.891-52.98 87.77h-6.6914c-2.6758-41.172-23.617-75.336-51.562-87.223 1.5742-43.609 25.902-78.324 55.656-78.324zm-77.461 91.707c28.652 0 52.348 32.355 55.105 73.84h-110.52c2.9922-41.484 26.688-73.84 55.418-73.84zm369.98 222.94c0 29.207-29.125 52.98-65.023 52.98-35.895 0-65.023-23.617-65.023-52.98l0.003906-35.816c0-4.957-4.0195-8.9766-8.9766-8.9766-4.9531 0-8.9727 4.0195-8.9727 8.9766v35.816c0 29.207-29.125 52.98-65.023 52.98-35.895 0-65.023-23.617-65.023-52.98v-35.816c0-4.957-4.0156-8.9766-8.9727-8.9766s-8.9766 4.0195-8.9766 8.9766v35.816c0 29.207-29.125 52.98-65.023 52.98-35.895 0-65.023-23.617-65.023-52.98l0.003906-95.172h425.8zm20.941-114.22c0.023438 0.28516-0.078125 0.56641-0.26953 0.77344-0.19531 0.21094-0.46875 0.32813-0.75391 0.32813h-466.1c-0.28516 0-0.55859-0.11719-0.75391-0.32813-0.19531-0.20703-0.29297-0.48828-0.26953-0.77344v-15.746c0.10547-0.48438 0.52344-0.83984 1.0234-0.86328h465.87c0.57422 0.039062 1.0234 0.51953 1.0195 1.1016z"/>
 </g>
</svg>