<?xml version="1.0" encoding="UTF-8"?>
<!-- The Best Svg Icon site in the world: iconSvg.co, Visit us! https://iconsvg.co -->
<svg fill="#000000" width="800px" height="800px" version="1.1" viewBox="144 144 512 512" xmlns="http://www.w3.org/2000/svg">
 <path d="m317.47 459.25 21.664 133.46h121.72l21.664-133.46zm-15.516-43.781v36.223h196.08v-36.223zm185.15-184.64c-2.3672-2.2656-5.3906-3.5273-8.4648-3.5273l-0.60547 0.050781c-3.1758 0.20312-6.0977 1.5117-8.3125 3.7773-2.418 2.3672-3.7773 5.6914-3.7773 9.1172v56.781c0 2.1172-1.7148 3.7773-3.7773 3.7773h-33.301c-2.0664 0-3.7773-1.6641-3.7773-3.7773v-60.105c0-16.324-13.199-29.625-29.473-29.625-7.8594 0-15.266 3.0742-20.91 8.6641-5.543 5.6445-8.6133 13.047-8.6133 20.957v86.855c0 2.0664-1.6641 3.7773-3.7773 3.7773h-31.539c-2.0664 0-3.7773-1.7148-3.7773-3.7773v-48.367c0-2.5195-0.95703-4.8359-2.7695-6.6484-1.7617-1.8125-4.0312-2.7695-6.5977-2.7695h-0.65625c-4.7852 0.40234-8.6641 4.8867-8.6641 10.078v55.418c0 9.168 7.457 16.625 16.523 16.625h37.484c2.1172 0 3.7773 1.7109 3.7773 3.7773v56.023h58.996l-0.003906-70.781c0-2.0664 1.7148-3.7773 3.7773-3.7773h45.496c9.5234 0 17.332-7.8086 17.332-17.383l-0.003906-74.664c0-3.9297-1.6641-7.7578-4.5859-10.477zm-105.9 85.695c0 2.0664-1.7148 3.7773-3.7773 3.7773-2.0664 0-3.7773-1.7148-3.7773-3.7773l-0.003906-62.473c0-2.0664 1.7109-3.7773 3.7773-3.7773 2.0664 0 3.7773 1.7148 3.7773 3.7773zm14.961-94.613c-8.2617 0-14.965 6.75-14.965 15.016 0 2.0664-1.7148 3.7773-3.7773 3.7773-2.0664 0-3.7773-1.7148-3.7773-3.7773 0-12.445 10.078-22.57 22.52-22.57 2.0664 0 3.7773 1.6641 3.7773 3.7773 0.003907 2.0625-1.7109 3.7773-3.7773 3.7773z"/>
</svg>