<?xml version="1.0" encoding="UTF-8"?>
<!-- The Best Svg Icon site in the world: iconSvg.co, Visit us! https://iconsvg.co -->
<svg fill="#000000" width="800px" height="800px" version="1.1" viewBox="144 144 512 512" xmlns="http://www.w3.org/2000/svg">
 <path d="m542.81 511.91c13 0 32.027-2.4375 44.477-14.887 20.035-20.043 14.141-57.105 13.879-58.672-0.35156-2.125-2.0156-3.7891-4.1406-4.1406-1.5703-0.26172-38.637-6.1562-58.672 13.887-2.4453 2.4453-4.4883 5.1445-6.2188 8v-159.41c6.9062-5.4766 28.398-24.391 28.398-47.828 0-27.32-29.262-48.551-30.504-49.438-1.7539-1.25-4.1055-1.25-5.8594 0-1.2461 0.89062-30.504 22.121-30.504 49.438 0 23.438 21.492 42.352 28.398 47.828v105.71c-1.7031-2.7695-3.6914-5.4062-6.0703-7.7852-20.035-20.043-57.113-14.141-58.672-13.879-2.125 0.35156-3.7891 2.0156-4.1406 4.1406-0.26172 1.5703-6.1562 38.637 13.879 58.672 12.445 12.449 31.465 14.887 44.461 14.887 4.3672 0 8.0156-0.27734 10.543-0.53906v133.55h-115.07v-231.23c2.5352 0.26562 6.2305 0.55469 10.68 0.55469 13 0 32.027-2.4375 44.477-14.887 20.035-20.043 14.141-57.105 13.879-58.672-0.35156-2.125-2.0156-3.7891-4.1406-4.1406-1.5703-0.25781-38.641-6.1562-58.672 13.887-2.4453 2.4453-4.4883 5.1445-6.2188 8v-101.44c0-2.7852-2.2578-5.0391-5.0391-5.0391s-5.0391 2.2539-5.0391 5.0391v47.742c-1.7031-2.7695-3.6875-5.4023-6.0703-7.7852-20.043-20.043-57.113-14.141-58.68-13.879-2.125 0.35156-3.7891 2.0156-4.1406 4.1406-0.26172 1.5703-6.1562 38.637 13.879 58.672 12.445 12.449 31.465 14.887 44.461 14.887 4.3672 0 8.0156-0.27734 10.543-0.53906l0.003906 284.7h-117.86v-130.47c2.5352 0.26562 6.2305 0.55469 10.68 0.55469 13 0 32.027-2.4375 44.477-14.887 20.035-20.043 14.141-57.105 13.879-58.672-0.35156-2.125-2.0156-3.7891-4.1406-4.1406-1.5703-0.26172-38.641-6.1562-58.672 13.887-2.4453 2.4453-4.4883 5.1445-6.2188 8v-109.03c6.9062-5.4766 28.398-24.391 28.398-47.828 0-27.32-29.262-48.551-30.504-49.438-1.7539-1.25-4.1055-1.25-5.8594 0-1.2461 0.89062-30.504 22.121-30.504 49.438 0 23.438 21.492 42.352 28.398 47.828v55.332c-1.7031-2.7695-3.6914-5.4062-6.0703-7.7852-20.035-20.047-57.113-14.137-58.672-13.879-2.125 0.35156-3.7891 2.0156-4.1406 4.1406-0.26172 1.5703-6.1562 38.637 13.879 58.672 12.445 12.449 31.465 14.887 44.461 14.887 4.3672 0 8.0156-0.27734 10.543-0.53906v183.93h-65.48c-2.7812 0-5.0391 2.2539-5.0391 5.0391s2.2578 5.0391 5.0391 5.0391h392.97c2.7812 0 5.0391-2.2539 5.0391-5.0391s-2.2578-5.0391-5.0391-5.0391h-64.355v-80.09c2.5312 0.26562 6.2305 0.55469 10.68 0.55469zm2.6602-56.699c13.109-13.109 37.031-12.352 46.199-11.504 0.85547 9.1523 1.6367 33.043-11.508 46.188-13.098 13.098-37.016 12.359-46.195 11.504-0.84375-9.168-1.5938-33.082 11.504-46.188zm-25.109-7.2695c-9.1602 0.84766-33.043 1.6367-46.188-11.508-13.105-13.105-12.348-37.035-11.504-46.199 9.168-0.83984 33.043-1.6328 46.188 11.508 13.105 13.105 12.348 37.031 11.504 46.199zm-100.03-143.88c13.109-13.109 37.031-12.352 46.199-11.504 0.85547 9.1523 1.6367 33.043-11.508 46.188-13.105 13.105-37.016 12.363-46.195 11.504-0.84766-9.1641-1.5938-33.082 11.504-46.188zm-25.109-7.2695c-9.1602 0.85156-33.043 1.6367-46.188-11.508-13.105-13.105-12.348-37.035-11.504-46.199 9.1602-0.83984 33.043-1.6367 46.195 11.508 13.098 13.105 12.344 37.031 11.496 46.199zm-102.82 108.03c13.109-13.109 37.031-12.359 46.199-11.504 0.85547 9.1523 1.6367 33.043-11.508 46.188-13.105 13.105-37.016 12.363-46.195 11.504-0.84375-9.1641-1.5938-33.082 11.504-46.188zm-25.109-7.2695c-9.1523 0.85156-33.043 1.6328-46.188-11.508-13.105-13.105-12.348-37.035-11.504-46.199 9.1602-0.85156 33.043-1.6367 46.188 11.508 13.113 13.105 12.352 37.031 11.504 46.199zm-16.629-148.7c0-17.602 16.5-33.199 23.363-38.93 6.8633 5.7266 23.363 21.32 23.363 38.93s-16.5 33.199-23.363 38.93c-6.8633-5.7266-23.363-21.328-23.363-38.93zm253.07 0c0-17.602 16.5-33.199 23.363-38.93 6.8633 5.7266 23.363 21.32 23.363 38.93s-16.5 33.199-23.363 38.93c-6.8633-5.7266-23.363-21.328-23.363-38.93z"/>
</svg>