<?xml version="1.0" encoding="UTF-8"?>
<!-- The Best Svg Icon site in the world: iconSvg.co, Visit us! https://iconsvg.co -->
<svg fill="#000000" width="800px" height="800px" version="1.1" viewBox="144 144 512 512" xmlns="http://www.w3.org/2000/svg">
 <g>
  <path d="m203.51 601.52h392.97c2.7812 0 5.0391-2.2539 5.0391-5.0391v-37.785c0-2.7852-2.2539-5.0391-5.0391-5.0391h-1.5742v-307.32h1.5742c2.7812 0 5.0391-2.2539 5.0391-5.0391v-37.785c0-2.7852-2.2539-5.0391-5.0391-5.0391l-392.97 0.003906c-2.7812 0-5.0391 2.2539-5.0391 5.0391v37.785c0 2.7852 2.2539 5.0391 5.0391 5.0391h1.5742v307.32l-1.5742-0.003906c-2.7812 0-5.0391 2.2539-5.0391 5.0391l0.003906 37.785c0 2.7852 2.2539 5.0391 5.0352 5.0391zm387.93-10.078h-382.89v-27.711h382.89zm-382.89-382.89h382.89v27.711h-382.89zm6.6133 37.785h369.67v307.32h-369.67z"/>
  <path d="m476.08 392.39c-6.4297-7.8281-9.7617-17.008-9.3789-25.836 0.16406-3.6914-0.035157-7.4375-0.57812-11.148-3.7695-25.516-24.379-46.531-50.512-52.434l2.8867-22.355c0.027344-0.21094 0.042968-0.42969 0.042968-0.64453 0-9.75-8.3164-17.684-18.543-17.684-9.9102 0-17.961 7.4727-18.449 16.812-2.9258-3.6914-6.3984-7.0586-10.75-9.582-18.688-10.824-44.25-2.5586-45.328-2.1992-2.2969 0.75781-3.7305 3.0469-3.4102 5.4414 0.14453 1.0781 3.7109 26.52 22.574 37.445 4.3281 2.5078 9.0781 3.8555 13.828 4.5703-15.742 11.473-25.219 29.02-25.219 49.238 0 1.3906 0.050781 2.7734 0.14844 4.1523 0.57422 8.0156-2 15.695-7.2422 21.613-16.395 18.516-24.129 42.016-21.77 66.18 4.2695 43.77 42.734 78.832 89.477 81.57 2.0117 0.11719 4.0156 0.17578 6.0234 0.17578 25.527 0 50.094-9.5039 68.16-26.543 18.051-17.031 28-39.652 28-63.703 0-20.121-6.9023-39.168-19.961-55.07zm-76.078-120.02c4.5625 0 8.2969 3.2617 8.4609 7.3242l-2.7891 21.617c-2.9961-0.26953-7.0039-0.39844-11.711 0.058593l-2.418-21.637c0.13672-4.082 3.8789-7.3633 8.457-7.3633zm-67.055 3.375c7.1992-1.625 21.961-3.7852 32.801 2.4961 9.2305 5.3477 14.008 16.141 17.133 25.02-7.5547 1.8945-22.531 4.4102-33.195-1.7656-10.523-6.0977-15.039-19-16.738-25.75zm128.18 228.09c-17.477 16.48-41.777 25.059-66.68 23.641-41.836-2.4492-76.246-33.613-80.039-72.488-2.082-21.348 4.7656-42.129 19.285-58.523 7.0547-7.9648 10.52-18.273 9.75-29.008-0.082031-1.1367-0.12109-2.2812-0.12109-3.4375 0-26.137 19.105-47.066 47.543-52.078h0.003906c3.4258-0.60156 6.582-0.80859 9.2734-0.80859 5.293 0 8.8086 0.78906 9.1016 0.84766 24.285 3.8047 43.582 22.27 46.922 44.898 0.44922 3.0742 0.61328 6.1797 0.48047 9.2383-0.49219 11.312 3.6484 22.918 11.656 32.668 11.559 14.074 17.672 30.906 17.672 48.672-0.007812 21.25-8.8281 41.27-24.848 56.379z"/>
  <path d="m457.03 439.29c-2.7812 0-5.0391 2.2539-5.0391 5.0391 0 4.6016-0.64453 9.1602-1.918 13.559-0.76953 2.6719 0.76953 5.4648 3.4414 6.2383 0.46875 0.13281 0.94141 0.19531 1.4023 0.19531 2.1875 0 4.1992-1.4336 4.8359-3.6406 1.5352-5.3047 2.3125-10.809 2.3125-16.355 0.003906-2.7812-2.2539-5.0352-5.0352-5.0352z"/>
  <path d="m451.54 468.58c-2.3672-1.4727-5.4727-0.72656-6.9336 1.6367-10.68 17.305-30.594 27.227-52.008 26.023-2.7422-0.1875-5.1641 1.9531-5.3242 4.7344-0.16406 2.7812 1.957 5.1602 4.7344 5.3242 1.4102 0.082031 2.8086 0.12109 4.207 0.12109 23.496 0 45.051-11.59 56.965-30.906 1.4609-2.3711 0.72656-5.4766-1.6406-6.9336z"/>
 </g>
</svg>