<?xml version="1.0" encoding="UTF-8"?>
<!-- The Best Svg Icon site in the world: iconSvg.co, Visit us! https://iconsvg.co -->
<svg fill="#000000" width="800px" height="800px" version="1.1" viewBox="144 144 512 512" xmlns="http://www.w3.org/2000/svg">
 <path d="m299.75 347.71-28.66-57.07c-1.25-2.4805-4.2656-3.4883-6.7656-2.2422-2.4844 1.2461-3.4883 4.2773-2.2383 6.7617l32.879 65.477v235.81c0 2.7812 2.2539 5.0391 5.0391 5.0391h199.99c2.7852 0 5.0391-2.2539 5.0391-5.0391v-235.82l32.879-65.477c1.25-2.4883 0.24609-5.5156-2.2383-6.7617-2.5-1.2539-5.5156-0.24609-6.7656 2.2422l-28.66 57.07-34.719-58.797v-12.203h5.4219c9.6523 0 17.512-7.8555 17.512-17.508v-43.238c0-9.6562-7.8555-17.512-17.512-17.512l-142.36 0.003907c-9.6523 0-17.512 7.8555-17.512 17.512v43.238c0 9.6523 7.8555 17.508 17.512 17.508h5.875v12.203zm195.2 243.7h-189.91v-226.93h189.91zm-166.36-324.77c-4.0977 0-7.4336-3.332-7.4336-7.4336v-43.238c0-4.0977 3.3359-7.4336 7.4336-7.4336h142.36c4.0977 0 7.4336 3.3359 7.4336 7.4336v43.238c0 4.0977-3.3359 7.4336-7.4336 7.4336h-5.4219v-13.352c0-2.7812-2.2539-5.0391-5.0391-5.0391h-120.98c-2.7852 0-5.0391 2.2539-5.0391 5.0391v13.352zm126.86-8.3164v27.285h-110.91v-27.285zm-113.28 37.363h115.65l34.676 58.719h-185z"/>
</svg>