<?xml version="1.0" encoding="UTF-8"?>
<!-- The Best Svg Icon site in the world: iconSvg.co, Visit us! https://iconsvg.co -->
<svg fill="#000000" width="800px" height="800px" version="1.1" viewBox="144 144 512 512" xmlns="http://www.w3.org/2000/svg">
 <g>
  <path d="m616.5 359.6c-3.875-3.5391-9.0938-5.2266-14.309-4.6289l5.3398-5.8594c4.3438-5.0898 6.1367-11.875 4.8789-18.449-1.2578-6.5703-5.4336-12.215-11.348-15.34s-12.93-3.3984-19.066-0.73828l6.8008-7.3906c3.8555-4.2188 5.832-9.8281 5.4688-15.531-0.36719-5.707-3.0352-11.016-7.3984-14.715-4.0586-3.4102-9.2578-5.1719-14.555-4.9297-5.3008 0.23828-10.316 2.4648-14.051 6.2344l-4.3281 4.4023v-0.003906c2.8633-5.707 2.8398-12.438-0.0625-18.129-2.9023-5.6875-8.3398-9.6562-14.645-10.684-6.3008-1.0312-12.719 1-17.281 5.4688l-74.785 73.141c1.1289-6.3164-0.46484-12.816-4.3906-17.891-3.9297-5.0742-9.8203-8.25-16.219-8.7422-6.3945-0.49219-12.703 1.75-17.359 6.1641l-35.562 33.777c-11.898 11.254-20.094 25.855-23.504 41.875-1.4609 6.8203-2.8359 14.602-4.0977 23.125-3.1484 21.355-17.184 42.664-29.43 57.754l-7.6016-7.6016c-1.5352-1.5391-4.0273-1.5391-5.5625 0l-59.344 59.348c-1.5391 1.5391-1.5391 4.0312 0 5.5664l109.52 109.52c1.5352 1.5391 4.0273 1.5391 5.5664 0l29.676-29.672 29.672-29.672v-0.003906c1.5391-1.5352 1.5391-4.0273 0-5.5625l-6.6641-6.668c17.527-13.094 46.148-33.062 64.828-38.711 29.762-9.0547 82.195-47.625 112.82-90.629l0.003906-0.003906c11.262-15.82 21.086-32.621 29.355-50.191l1.6328-3.3555c1.707-3.5039 2.2422-7.4648 1.5234-11.297-0.72266-3.8281-2.6562-7.3242-5.5156-9.9727zm-233.21 240.49-7.0352 7.0312-103.95-103.94 14.066-14.07 103.95 103.95zm-26.895 26.891-103.95-103.94 14.297-14.293 103.95 103.95zm39.492-39.488-103.95-103.95 14.297-14.273 103.95 103.95zm217.55-210.11-1.6523 3.3984v-0.003906c-8.0859 17.176-17.684 33.594-28.684 49.062-29.691 41.723-80.172 79.004-108.69 87.664-19.285 5.8516-47.188 24.879-68.172 40.621l-84.031-84.023c12.988-15.914 28.168-38.801 31.621-62.188 1.2305-8.3555 2.582-15.969 4.0039-22.629 3.082-14.465 10.484-27.648 21.227-37.812l35.555-33.766v-0.003906c3.5078-3.3164 8.4141-4.7148 13.145-3.7461 4.7305 0.96484 8.6914 4.1797 10.613 8.6094 1.9219 4.4336 1.5625 9.5195-0.96094 13.637l-9.2422 14.988c-1.0352 1.6914-0.64844 3.8906 0.89844 5.1289 1.5469 1.2383 3.7773 1.1328 5.1992-0.24609l93.191-91.141c4.6484-4.6797 12.172-4.8242 16.992-0.32031 4.8164 4.5 5.1875 12.016 0.83594 16.969l-64.086 75.195c-1.3789 1.6133-1.2305 4.0273 0.33594 5.4609 1.5664 1.4336 3.9844 1.3633 5.4688-0.15234l76.875-78.328v0.003907c4.8438-4.8945 12.633-5.25 17.898-0.81641 2.7305 2.3125 4.4023 5.6328 4.6289 9.1992 0.23047 3.5703-1.0039 7.0781-3.4141 9.7188l-74.281 80.734c-1.418 1.5664-1.3477 3.9688 0.16016 5.4492 1.5078 1.4805 3.9141 1.5078 5.4531 0.0625l66.758-63.594c5.4453-5.1836 13.988-5.2031 19.457-0.050781 5.4688 5.1562 5.9531 13.688 1.1016 19.426l-69.84 76.676c-1.4141 1.5898-1.3125 4.0117 0.23047 5.4727 1.5391 1.4648 3.9648 1.4375 5.4766-0.054687l59.312-59.969c3.4219-3.7266 9.0625-4.3711 13.234-1.5117 4.1758 2.8555 5.6133 8.3477 3.3789 12.887z"/>
  <path d="m426.96 395.87c-2.8984-2.9062-6.9766-4.3086-11.047-3.8047-4.0703 0.50391-7.6836 2.8555-9.7891 6.3789l-25.73 43.016c-3.1367 5.2344-2.3047 11.93 2.0156 16.238l43.402 43.402c4.3086 4.3242 11.008 5.1523 16.242 2.0117l43.012-25.734c3.5195-2.1055 5.8711-5.7148 6.375-9.7852 0.5-4.0703-0.89844-8.1445-3.8008-11.043zm56.68 70.758c-0.20312 1.6641-1.1641 3.1406-2.6094 3.9961l-43.02 25.734c-2.1367 1.2812-4.875 0.94141-6.6367-0.82031l-43.402-43.406c-1.7656-1.7617-2.1055-4.5-0.82031-6.6367l25.734-43.008v-0.003906c0.85156-1.4414 2.3281-2.4023 3.9922-2.6055 0.22656-0.023438 0.45313-0.039062 0.67969-0.039062 1.4375 0 2.8203 0.57422 3.8359 1.5938l60.684 60.684c1.1875 1.1797 1.7578 2.8477 1.5508 4.5117z"/>
  <path d="m250.52 500.76c1.5938 0 3.0273-0.96094 3.6367-2.4297 0.60938-1.4727 0.27344-3.1641-0.85156-4.2891l-60.344-60.344 14.297-14.293 60.223 60.223h-0.003906c1.543 1.4922 4 1.4688 5.5195-0.050781 1.5156-1.5156 1.5391-3.9727 0.046875-5.5156l-60.223-60.223 14.066-14.066 60.852 60.84c0.73437 0.75781 1.7422 1.1914 2.7969 1.2031 1.0586 0.007813 2.0703-0.40625 2.8203-1.1562 0.74609-0.74609 1.1602-1.7617 1.1523-2.8164-0.011719-1.0547-0.44141-2.0625-1.2031-2.7969l-60.844-60.844 14.297-14.277 64.098 64.082c1.543 1.4922 4 1.4688 5.5195-0.046874 1.5156-1.5195 1.5391-3.9766 0.046875-5.5195l-53.684-53.684c12.988-15.922 28.164-38.809 31.613-62.188 1.2266-8.293 2.5742-15.91 4.0078-22.629 3.082-14.465 10.484-27.648 21.227-37.812l35.539-33.777c3.5039-3.3242 8.4141-4.7266 13.148-3.7578 4.7344 0.96484 8.6992 4.1836 10.617 8.6172 1.9219 4.4336 1.5586 9.5273-0.97266 13.641l-9.2266 14.992c0 0.035156 0 0.074219-0.039062 0.10547-0.089844 0.18359-0.16016 0.37109-0.21484 0.5625-0.12109 0.26562-0.20703 0.54297-0.26562 0.82812-0.011719 0.18359-0.011719 0.36719 0 0.54688-0.011719 0.3125 0.019531 0.625 0.082031 0.93359v0.20313c0.12891 0.44531 12.758 44.734-16.375 70.598-0.78125 0.69141-1.2578 1.668-1.3203 2.7109-0.0625 1.0469 0.28906 2.0703 0.98438 2.8555 1.4414 1.6289 3.9336 1.7812 5.5664 0.33594 29.145-25.879 21.746-66.238 19.285-76.359l91.59-89.574c4.6445-4.6797 12.172-4.8242 16.992-0.32031 4.8164 4.5 5.1875 12.016 0.83594 16.969l-61.5 72.16-3.0859-3.0898c-1.5469-1.4922-4-1.4688-5.5195 0.046875-1.5156 1.5195-1.5391 3.9766-0.046876 5.5195l40.82 40.82c1.543 1.4922 4 1.4688 5.5156-0.046874 1.5195-1.5195 1.543-3.9727 0.050781-5.5195l-5.2305-5.2305 64.801-61.727c3.8281-3.6484 9.3711-4.8555 14.371-3.1328 4.9961 1.7266 8.6172 6.0977 9.3789 11.328 0.11719 1.0625 0.66016 2.0273 1.5039 2.6797 0.84766 0.65234 1.918 0.9375 2.9766 0.78125 1.0547-0.15234 2.0039-0.73047 2.625-1.5938 0.625-0.86719 0.87109-1.9492 0.67969-3-0.98828-6.8008-5.0977-12.754-11.109-16.086-6.0117-3.3359-13.234-3.6719-19.527-0.91016l6.8086-7.3945c3.8555-4.2188 5.8281-9.8281 5.4648-15.531-0.36719-5.707-3.0352-11.016-7.3945-14.715-4.0586-3.4102-9.2539-5.1719-14.555-4.9297-5.3008 0.24219-10.312 2.4648-14.047 6.2344l-4.3359 4.418c2.875-5.7109 2.8555-12.445-0.046876-18.141-2.9023-5.6914-8.3438-9.6641-14.648-10.691-6.3086-1.0312-12.727 1.0039-17.289 5.4766l-74.785 73.145c1.1289-6.3164-0.46875-12.812-4.3945-17.887-3.9258-5.0742-9.8164-8.25-16.211-8.7422-6.3984-0.49219-12.703 1.7461-17.359 6.1602l-35.555 33.77v0.003906c-11.895 11.254-20.09 25.855-23.5 41.875-1.4727 6.8828-2.8516 14.664-4.0977 23.125-3.1484 21.344-17.18 42.66-29.426 57.75l-7.6016-7.6016c-1.5352-1.5391-4.0273-1.5391-5.5625 0l-59.359 59.352c-1.5391 1.5391-1.5391 4.0312 0 5.5664l63.117 63.117c0.73437 0.74219 1.7383 1.1602 2.7812 1.1641zm253.87-306.32h0.003907c4.8438-4.8906 12.629-5.2461 17.898-0.81641 2.7266 2.3125 4.3945 5.6367 4.6211 9.2031 0.23047 3.5664-1.0039 7.0742-3.4102 9.7148l-72.379 78.668-21.055-21.055z"/>
 </g>
</svg>