<?xml version="1.0" encoding="UTF-8"?>
<!-- The Best Svg Icon site in the world: iconSvg.co, Visit us! https://iconsvg.co -->
<svg fill="#000000" width="800px" height="800px" version="1.1" viewBox="144 144 512 512" xmlns="http://www.w3.org/2000/svg">
 <g>
  <path d="m241.75 447.11v61.211h-37.781c-2.7852 0-5.0391 2.2539-5.0391 5.0391 0 2.7812 2.2539 5.0391 5.0391 5.0391h392.52c2.7852 0 5.0391-2.2539 5.0391-5.0391 0-2.7812-2.2539-5.0391-5.0391-5.0391h-38.238v-61.211c24.281-2.2422 43.277-20.496 43.277-42.613 0-8.9922-3.1992-17.75-9.0781-25.008 1.7188-4.1172 2.582-8.4102 2.582-12.809 0-7.8242-2.7852-15.426-7.9062-21.734 1.3086-3.3516 1.9688-6.8398 1.9688-10.406 0-17.637-16.098-31.988-35.883-31.988-19.785 0-35.883 14.348-35.883 31.988 0 3.5703 0.66016 7.0547 1.9648 10.406-5.1211 6.3086-7.9062 13.91-7.9062 21.734 0 4.3945 0.86719 8.6875 2.582 12.809-5.8789 7.2539-9.0781 16.016-9.0781 25.008 0 22.121 19 40.371 43.281 42.613v61.211h-84.984l-24.164-152.2 37.363 26.402c0.85547 0.60938 1.875 0.92578 2.9062 0.92578 0.35938 0 0.72266-0.039062 1.0781-0.11719 1.3867-0.30078 2.5781-1.1719 3.2852-2.4023l21.688-37.562c0.70703-1.2266 0.86719-2.6953 0.4375-4.043-0.42969-1.3516-1.4062-2.457-2.6914-3.0508l-62.211-28.68 62.211-28.684c1.2852-0.59375 2.2617-1.6992 2.6914-3.0508 0.42969-1.3516 0.26953-2.8164-0.4375-4.043l-21.688-37.562c-0.70703-1.2266-1.8984-2.0977-3.2852-2.4023-1.3672-0.30078-2.832-0.011718-3.9844 0.80469l-55.941 39.535 6.2656-68.215c0.12891-1.4102-0.34375-2.8086-1.3008-3.8555-0.95703-1.0469-2.3047-1.6406-3.7188-1.6406h-43.375c-1.418 0-2.7656 0.59375-3.7188 1.6445-0.95312 1.0469-1.4258 2.4453-1.3008 3.8555l6.2656 68.215-55.941-39.535c-1.1523-0.8125-2.6094-1.1055-3.9844-0.80469-1.3867 0.30078-2.5781 1.1719-3.2852 2.4023l-21.688 37.562c-0.70703 1.2266-0.86719 2.6953-0.4375 4.043 0.42969 1.3516 1.4062 2.457 2.6914 3.0508l62.211 28.684-62.211 28.68c-1.2852 0.59375-2.2617 1.6992-2.6914 3.0508-0.42969 1.3516-0.26953 2.8164 0.4375 4.043l21.688 37.562c0.70703 1.2266 1.8984 2.0977 3.2852 2.4023 0.35547 0.078125 0.71875 0.11719 1.0781 0.11719 1.0312 0 2.0508-0.31641 2.9062-0.92578l37.363-26.402-24.168 152.2h-84.984v-61.211c24.281-2.2422 43.281-20.496 43.281-42.613 0-8.9922-3.1992-17.75-9.0781-25.008 1.7188-4.1172 2.582-8.4102 2.582-12.809 0-7.8242-2.7852-15.426-7.9062-21.734 1.3047-3.3516 1.9648-6.8359 1.9648-10.406 0-17.637-16.098-31.988-35.883-31.988-19.785 0-35.883 14.348-35.883 31.988 0 3.5664 0.66016 7.0547 1.9688 10.406-5.1211 6.3086-7.9062 13.91-7.9062 21.734 0 4.3945 0.86719 8.6875 2.582 12.809-5.8789 7.2539-9.0742 16.016-9.0742 25.008 0 22.117 18.992 40.371 43.273 42.613zm273.21-42.613c0-7.6211 2.9805-14.781 8.6211-20.699 1.5-1.5781 1.8203-3.9414 0.78906-5.8594-1.9336-3.5938-2.9141-7.3789-2.9141-11.254 0-6.2969 2.6211-12.449 7.3789-17.32 1.5312-1.5664 1.8711-3.9453 0.84766-5.8828-1.5156-2.8555-2.2812-5.8594-2.2812-8.9414 0-12.082 11.578-21.91 25.805-21.91 14.23 0 25.805 9.832 25.805 21.91 0 3.0742-0.76562 6.082-2.2891 8.9414-1.0234 1.9375-0.68359 4.3164 0.84766 5.8828 4.7578 4.8711 7.3789 11.02 7.3789 17.32 0 3.8711-0.98047 7.6562-2.9141 11.254-1.0312 1.918-0.71484 4.2812 0.78906 5.8594 5.6367 5.918 8.6172 13.078 8.6172 20.699 0 18.07-17.156 32.773-38.238 32.773-21.086 0-38.242-14.703-38.242-32.773zm-37.277-33.383-57.168-40.402c4.9023-4.3555 8.4414-10.223 9.8086-16.883l63.527 29.285zm-77.688-84.402c11.512 0 20.879 9.3672 20.879 20.879 0 11.516-9.3672 20.883-20.879 20.883s-20.879-9.3672-20.879-20.879c-0.003906-11.516 9.3633-20.883 20.879-20.883zm-9.7656 50.234c3.0742 1.0273 6.3516 1.6055 9.7656 1.6055s6.6914-0.57812 9.7656-1.6016l6.4023 69.688h-32.336zm87.453-92.871 16.168 27.996-63.527 29.289c-1.3672-6.6641-4.9023-12.527-9.8086-16.883zm-61.523-35.52-6.4023 69.684c-3.0742-1.0234-6.3477-1.6016-9.7617-1.6016s-6.6914 0.57813-9.7656 1.6016l-6.4023-69.684zm-93.852 35.52 57.168 40.402c-4.9023 4.3594-8.4414 10.223-9.8086 16.883l-63.527-29.289zm0 127.04-16.168-28 63.527-29.285c1.3672 6.6641 4.9062 12.527 9.8086 16.883zm50.152-23.109 7.0898-5.0117-6.2656 68.219c-0.12891 1.4102 0.34375 2.8086 1.3008 3.8555 0.95312 1.0469 2.3008 1.6445 3.7188 1.6445h43.375c1.418 0 2.7656-0.59375 3.7188-1.6445 0.95312-1.0469 1.4258-2.4453 1.3008-3.8555l-6.2656-68.219 7.0898 5.0117 25.457 160.32h-105.97zm-155.29 35.789c1.5-1.5781 1.8203-3.9414 0.78906-5.8594-1.9336-3.5938-2.9141-7.3789-2.9141-11.254 0-6.2969 2.6211-12.449 7.3789-17.32 1.5312-1.5625 1.8711-3.9414 0.84766-5.8789-1.5195-2.8594-2.2891-5.8672-2.2891-8.9414 0-12.082 11.578-21.91 25.805-21.91 14.23 0 25.805 9.832 25.805 21.91 0 3.0781-0.76562 6.0859-2.2812 8.9414-1.0234 1.9375-0.68359 4.3164 0.84766 5.8828 4.7578 4.8711 7.3789 11.02 7.3789 17.32 0 3.8711-0.98047 7.6562-2.9141 11.254-1.0312 1.918-0.71484 4.2812 0.78906 5.8594 5.6367 5.9219 8.6211 13.078 8.6211 20.699 0 18.07-17.156 32.773-38.242 32.773-21.086 0-38.242-14.703-38.242-32.773 0-7.6211 2.9805-14.781 8.6211-20.703z"/>
  <path d="m596.66 575.73c-10.23 0-15.586 5.1328-19.891 9.2617-3.9102 3.75-6.7344 6.457-12.91 6.457s-9-2.707-12.91-6.457c-4.3047-4.1289-9.6641-9.2617-19.891-9.2617-10.219 0-15.57 5.1367-19.875 9.2617-3.9102 3.75-6.7344 6.457-12.902 6.457-6.1602 0-8.9805-2.707-12.887-6.4531-4.3008-4.1289-9.6484-9.2656-19.863-9.2656-10.219 0-15.57 5.1367-19.871 9.2617-3.9062 3.75-6.7305 6.457-12.895 6.457s-8.9844-2.707-12.891-6.457c-4.3008-4.125-9.6523-9.2617-19.867-9.2617-10.215 0-15.566 5.1367-19.867 9.2617-3.9062 3.75-6.7266 6.457-12.891 6.457s-8.9844-2.707-12.891-6.457c-4.3008-4.125-9.6523-9.2617-19.867-9.2617-10.215 0-15.566 5.1367-19.863 9.2656-3.9023 3.7461-6.7227 6.4531-12.879 6.4531s-8.9727-2.707-12.875-6.4531c-4.2969-4.1289-9.6445-9.2656-19.852-9.2656-10.215 0-15.566 5.1367-19.867 9.2617-3.9062 3.75-6.7266 6.457-12.891 6.457-6.1602 0-8.9805-2.707-12.887-6.4531-4.3008-4.1289-9.6484-9.2656-19.867-9.2656-2.7852 0-5.0391 2.2539-5.0391 5.0391 0 2.7812 2.2539 5.0391 5.0391 5.0391 6.1641 0 8.9844 2.707 12.891 6.457 4.3008 4.125 9.6484 9.2617 19.863 9.2617s15.566-5.1367 19.867-9.2617c3.9062-3.75 6.7266-6.457 12.891-6.457 6.1562 0 8.9727 2.707 12.875 6.4531 4.2969 4.1289 9.6445 9.2656 19.852 9.2656 10.211 0 15.562-5.1367 19.855-9.2617 3.9062-3.75 6.7266-6.457 12.887-6.457 6.1641 0 8.9844 2.707 12.891 6.457 4.3008 4.125 9.6523 9.2617 19.867 9.2617s15.566-5.1367 19.867-9.2617c3.9062-3.75 6.7266-6.457 12.891-6.457 6.1641 0 8.9844 2.707 12.891 6.457 4.3008 4.125 9.6523 9.2617 19.867 9.2617 10.219 0 15.57-5.1367 19.871-9.2617 3.9062-3.75 6.7305-6.457 12.895-6.457 6.1602 0 8.9805 2.707 12.887 6.4531 4.3008 4.1289 9.6484 9.2656 19.863 9.2656 10.219 0 15.57-5.1367 19.875-9.2617 3.9062-3.75 6.7305-6.457 12.898-6.457 6.1797 0 9.0039 2.707 12.922 6.4609 4.3008 4.1211 9.6602 9.2578 19.883 9.2578s15.582-5.1328 19.883-9.2578c3.918-3.75 6.7422-6.4609 12.922-6.4609 2.7852 0 5.0391-2.2539 5.0391-5.0391-0.003906-2.7812-2.2578-5.0391-5.043-5.0391z"/>
  <path d="m596.66 538.71c-10.23 0-15.586 5.1328-19.891 9.2578-3.9102 3.75-6.7344 6.457-12.91 6.457s-9-2.707-12.91-6.457c-4.3047-4.125-9.6641-9.2578-19.891-9.2578-10.219 0-15.57 5.1328-19.875 9.2578-3.9062 3.75-6.7305 6.457-12.898 6.457-6.1602 0-8.9805-2.707-12.887-6.4531-4.3008-4.125-9.6484-9.2617-19.863-9.2617-10.219 0-15.57 5.1328-19.871 9.2617-3.9062 3.7461-6.7305 6.4531-12.895 6.4531-6.1641 0-8.9844-2.707-12.891-6.4531-4.3008-4.1289-9.6523-9.2617-19.867-9.2617-10.215 0-15.566 5.1328-19.867 9.2617-3.9062 3.7461-6.7266 6.4531-12.891 6.4531-6.1641 0-8.9844-2.707-12.891-6.4531-4.3008-4.1289-9.6523-9.2617-19.867-9.2617s-15.562 5.1367-19.863 9.2617c-3.9023 3.75-6.7266 6.4531-12.879 6.4531-6.1562 0-8.9727-2.707-12.875-6.4531-4.2969-4.125-9.6445-9.2617-19.852-9.2617-10.215 0-15.566 5.1328-19.867 9.2617-3.9062 3.7461-6.7266 6.4531-12.891 6.4531-6.1602 0-8.9805-2.707-12.887-6.4531-4.3047-4.125-9.6523-9.2617-19.871-9.2617-2.7852 0-5.0391 2.2539-5.0391 5.0391 0 2.7812 2.2539 5.0391 5.0391 5.0391 6.1641 0 8.9844 2.707 12.891 6.4531 4.3008 4.1289 9.6484 9.2617 19.863 9.2617s15.566-5.1328 19.867-9.2617c3.9062-3.7461 6.7266-6.4531 12.891-6.4531 6.1562 0 8.9727 2.707 12.875 6.4531 4.2969 4.125 9.6445 9.2617 19.852 9.2617 10.211 0 15.562-5.1328 19.855-9.2617 3.9062-3.7461 6.7266-6.4531 12.887-6.4531 6.1641 0 8.9844 2.707 12.891 6.4531 4.3008 4.1289 9.6523 9.2617 19.867 9.2617s15.566-5.1328 19.867-9.2617c3.9062-3.7461 6.7266-6.4531 12.891-6.4531 6.1641 0 8.9844 2.707 12.891 6.4531 4.3008 4.1289 9.6523 9.2617 19.867 9.2617 10.219 0 15.57-5.1328 19.871-9.2617 3.9062-3.7461 6.7305-6.4531 12.895-6.4531 6.1602 0 8.9805 2.707 12.887 6.4531 4.3008 4.125 9.6484 9.2617 19.863 9.2617 10.219 0 15.57-5.1328 19.875-9.2578 3.9062-3.75 6.7305-6.457 12.898-6.457 6.1797 0 9.0039 2.707 12.922 6.4609 4.3008 4.1211 9.6562 9.2578 19.883 9.2578 10.223 0 15.582-5.1328 19.883-9.2578 3.918-3.75 6.7422-6.4609 12.922-6.4609 2.7852 0 5.0391-2.2539 5.0391-5.0391-0.003906-2.7812-2.2578-5.0391-5.043-5.0391z"/>
 </g>
</svg>