<?xml version="1.0" encoding="UTF-8"?>
<!-- The Best Svg Icon site in the world: iconSvg.co, Visit us! https://iconsvg.co -->
<svg fill="#000000" width="800px" height="800px" version="1.1" viewBox="144 144 512 512" xmlns="http://www.w3.org/2000/svg">
 <path d="m478.79 288.55c0-2.7812 2.2539-5.0391 5.0391-5.0391h11.883v-11.879c0-2.7812 2.2539-5.0391 5.0391-5.0391s5.0391 2.2539 5.0391 5.0391v11.879h11.875c2.7852 0 5.0391 2.2539 5.0391 5.0391 0 2.7812-2.2539 5.0391-5.0391 5.0391h-11.879v11.879c0 2.7812-2.2539 5.0391-5.0391 5.0391s-5.0391-2.2539-5.0391-5.0391v-11.879h-11.883c-2.7812 0-5.0352-2.2578-5.0352-5.0391zm124.2 54.512h8.7578v8.7617c0 2.7812 2.2539 5.0391 5.0391 5.0391 2.7852 0 5.0391-2.2539 5.0391-5.0391l-0.003906-8.7617h8.7578c2.7852 0 5.0391-2.2539 5.0391-5.0391 0-2.7812-2.2539-5.0391-5.0391-5.0391h-8.7578v-8.7578c0-2.7812-2.2539-5.0391-5.0391-5.0391-2.7852 0-5.0391 2.2539-5.0391 5.0391v8.7578h-8.7578c-2.7852 0-5.0391 2.2539-5.0391 5.0391 0.003906 2.7812 2.2578 5.0391 5.043 5.0391zm-255.6-76.469h11.879v11.879c0 2.7812 2.2539 5.0391 5.0391 5.0391 2.7812 0 5.0391-2.2539 5.0391-5.0391v-11.879h11.879c2.7812 0 5.0391-2.2539 5.0391-5.0391 0-2.7812-2.2539-5.0391-5.0391-5.0391l-11.879 0.003906v-11.875c0-2.7812-2.2539-5.0391-5.0391-5.0391-2.7812 0-5.0391 2.2539-5.0391 5.0391v11.875h-11.879c-2.7812 0-5.0391 2.2539-5.0391 5.0391 0 2.7812 2.2578 5.0352 5.0391 5.0352zm-144.56 22.965h9.0703v9.0703c0 2.7812 2.2539 5.0391 5.0391 5.0391 2.7812 0 5.0391-2.2539 5.0391-5.0391v-9.0703h9.0703c2.7812 0 5.0391-2.2539 5.0391-5.0391 0-2.7812-2.2539-5.0391-5.0391-5.0391h-9.0703v-9.0703c0-2.7812-2.2539-5.0391-5.0391-5.0391-2.7812 0-5.0391 2.2539-5.0391 5.0391v9.0703h-9.0703c-2.7812 0-5.0391 2.2539-5.0391 5.0391 0 2.7812 2.2578 5.0391 5.0391 5.0391zm81.426 38.664h9.0703v9.0703c0 2.7812 2.2539 5.0391 5.0391 5.0391 2.7812 0 5.0391-2.2539 5.0391-5.0391v-9.0703h9.0742c2.7812 0 5.0391-2.2539 5.0391-5.0391 0-2.7812-2.2539-5.0391-5.0391-5.0391h-9.0742v-9.0703c0-2.7812-2.2539-5.0391-5.0391-5.0391-2.7812 0-5.0391 2.2539-5.0391 5.0391v9.0703h-9.0703c-2.7812 0-5.0391 2.2539-5.0391 5.0391 0.003906 2.7852 2.2578 5.0391 5.0391 5.0391zm153.72-67.891c3.1016 0 5.6172-2.5156 5.6172-5.6172 0-3.1016-2.5156-5.6172-5.6172-5.6172-3.1016 0-5.6172 2.5156-5.6172 5.6172 0 3.1055 2.5156 5.6172 5.6172 5.6172zm135.74 29.375c3.1016 0 5.6172-2.5156 5.6172-5.6172 0-3.1016-2.5156-5.6172-5.6172-5.6172s-5.6172 2.5156-5.6172 5.6172c0 3.1055 2.5156 5.6172 5.6172 5.6172zm-403.73 66.383c3.1016 0 5.6172-2.5156 5.6172-5.6172s-2.5156-5.6172-5.6172-5.6172c-3.1016 0-5.6172 2.5156-5.6172 5.6172s2.5156 5.6172 5.6172 5.6172zm230.01 45.172c-12.961 0-23.504-10.543-23.504-23.508 0-12.961 10.543-23.504 23.504-23.504 12.961 0 23.504 10.543 23.504 23.504 0.003906 12.965-10.539 23.508-23.504 23.508zm13.43-23.508c0-7.4062-6.0234-13.426-13.43-13.426s-13.426 6.0234-13.426 13.426c0 7.4062 6.0234 13.43 13.426 13.43 7.4102 0.003906 13.43-6.0195 13.43-13.43zm-159.84 34.957c0 10.941-8.8984 19.844-19.844 19.844-10.941 0-19.844-8.8984-19.844-19.844 0-10.941 8.8984-19.844 19.844-19.844 10.945 0.003907 19.844 8.9023 19.844 19.844zm-10.074 0c0-5.3867-4.3828-9.7656-9.7656-9.7656-5.3867 0-9.7656 4.3789-9.7656 9.7656s4.3828 9.7656 9.7656 9.7656c5.3828 0 9.7656-4.3789 9.7656-9.7656zm342.59 0c0 10.941-8.8984 19.844-19.844 19.844-10.941 0-19.844-8.8984-19.844-19.844 0-10.941 8.8984-19.844 19.844-19.844 10.945 0.003907 19.844 8.9023 19.844 19.844zm-10.074 0c0-5.3867-4.3789-9.7656-9.7656-9.7656-5.3867 0-9.7656 4.3789-9.7656 9.7656s4.3789 9.7656 9.7656 9.7656c5.3867 0 9.7656-4.3789 9.7656-9.7656zm64.484 142.65c0 2.7852-2.2539 5.0391-5.0391 5.0391h-470.95c-2.7812 0-5.0391-2.2539-5.0391-5.0391s2.2539-5.0391 5.0391-5.0391h55.863v-12.383l-10.582-10.582c-0.43359 0.011719-0.91406 0.015625-1.4453 0.015625-7.6562 0-24.879-1.3477-36.082-12.555-14.449-14.445-12.508-38.914-12.418-39.945 0.21094-2.4414 2.1445-4.375 4.582-4.5859 1.0391-0.089844 25.5-2.0312 39.949 12.418 11.996 11.996 12.691 30.859 12.531 37.52l3.4648 3.4648 0.003906-64.039c-1.6133-1.2344-3.0547-2.6719-4.2227-4.332-6.5703 1.207-13.586-1.0391-18.793-6.2422-5.2031-5.207-7.4375-12.203-6.2422-18.789-5.4375-3.8164-8.7656-10.297-8.7656-17.57 0-7.2773 3.3242-13.758 8.7656-17.574-1.1914-6.5898 1.0391-13.586 6.2461-18.789 5.207-5.2031 12.203-7.4453 18.789-6.2461 3.8164-5.4375 10.297-8.7656 17.57-8.7656 7.2734-0.003906 13.754 3.3242 17.574 8.7656 6.5938-1.1797 13.586 1.043 18.789 6.2461 5.207 5.207 7.4375 12.203 6.2461 18.789 5.4375 3.8164 8.7656 10.297 8.7656 17.574 0 7.2734-3.3281 13.75-8.7656 17.57 1.1914 6.5898-1.0391 13.586-6.2422 18.785-5.207 5.207-12.211 7.4453-18.793 6.25-1.168 1.6641-2.6094 3.1016-4.2227 4.332v64.043l3.4609-3.4609c-0.16016-6.6602 0.53516-25.527 12.535-37.523 14.449-14.445 38.91-12.508 39.949-12.418 2.4375 0.21094 4.3711 2.1445 4.582 4.5859 0.089843 1.0312 2.0312 25.5-12.418 39.945-11.203 11.203-28.43 12.555-36.086 12.555-0.53125 0-1.0117-0.007812-1.4453-0.015625l-10.582 10.582v12.383h138.8v-23.75l-9.0586-9.0977c-1.0977 0.0625-2.4688 0.11328-4.1445 0.11328-9.8672 0-28.469-1.7773-40.539-13.902v0.003906c-16.711-16.781-13.531-46.004-13.387-47.238 0.26953-2.332 2.1133-4.168 4.4414-4.4297 1.2461-0.12109 30.473-3.1875 47.18 13.598 14.125 14.184 14.039 37.188 13.586 44.738l1.918 1.9258 0.007813-75.727c-2.8906-1.8281-5.3828-4.1914-7.2422-7.0508-8.043 1.7461-16.719-0.875-23.129-7.2852-6.4062-6.4062-9.0352-15.078-7.2852-23.129-6.8477-4.4609-11.074-12.395-11.074-21.344 0-8.9531 4.2227-16.887 11.074-21.352-1.75-8.0469 0.87891-16.719 7.2852-23.125 6.4023-6.4062 15.086-9.0391 23.129-7.2852 4.4609-6.8477 12.395-11.074 21.344-11.074 8.9531 0 16.891 4.2227 21.352 11.074 8.0391-1.7461 16.723 0.88281 23.129 7.2852 6.4062 6.4062 9.0391 15.078 7.2852 23.129 6.8477 4.4609 11.074 12.398 11.074 21.352 0 8.9531-4.2266 16.883-11.074 21.344 1.7461 8.0508-0.88672 16.727-7.293 23.133-6.4062 6.4023-15.09 9.0234-23.125 7.2812-1.8594 2.8555-4.3516 5.2227-7.2422 7.0508v75.727l1.918-1.9258c-0.44922-7.543-0.53906-30.555 13.586-44.742 16.715-16.793 45.949-13.719 47.184-13.598 2.332 0.26172 4.1719 2.0977 4.4414 4.4297 0.14453 1.2344 3.3203 30.453-13.387 47.238-12.07 12.121-30.672 13.898-40.539 13.898-1.6758 0-3.0469-0.054688-4.1445-0.11328l-9.0547 9.0938v23.754h138.8v-12.383l-10.582-10.582c-0.43359 0.011719-0.91406 0.015625-1.4453 0.015625-7.6562 0-24.879-1.3477-36.082-12.555-14.453-14.445-12.512-38.914-12.422-39.945 0.21094-2.4414 2.1445-4.375 4.5859-4.5859 1.0273-0.09375 25.504-2.0312 39.949 12.418 12 11.992 12.691 30.859 12.531 37.52l3.4648 3.4648 0.003906-64.047c-1.6094-1.2344-3.0508-2.668-4.2148-4.332-6.6133 1.207-13.59-1.043-18.793-6.2422-5.207-5.207-7.4375-12.203-6.2422-18.789-5.4375-3.8164-8.7656-10.297-8.7656-17.57 0-7.2773 3.332-13.758 8.7656-17.574-1.1953-6.5898 1.0391-13.586 6.2422-18.789 5.2109-5.207 12.195-7.4414 18.793-6.2461 3.8164-5.4375 10.293-8.7656 17.562-8.7656h0.003906c7.2773 0 13.75 3.3242 17.574 8.7656 6.582-1.1875 13.586 1.0391 18.785 6.2422 5.2109 5.207 7.4453 12.203 6.25 18.793 5.4375 3.8164 8.7656 10.297 8.7656 17.574 0 7.2734-3.332 13.75-8.7656 17.57 1.1953 6.5898-1.0391 13.586-6.2422 18.789-5.2109 5.1992-12.207 7.4492-18.789 6.2422-1.168 1.6602-2.6094 3.0977-4.2227 4.332v64.043l3.4648-3.4648c-0.16016-6.6641 0.53516-25.527 12.531-37.52 14.449-14.449 38.926-12.496 39.949-12.418 2.4414 0.21094 4.375 2.1445 4.5859 4.5859 0.089844 1.0312 2.0312 25.5-12.422 39.945-11.199 11.203-28.422 12.555-36.082 12.555-0.53125 0-1.0117-0.007812-1.4453-0.015625l-10.582 10.582v12.383h55.863c2.7852-0.003907 5.0352 2.25 5.0352 5.0352zm-46.613-45.953 16.52-16.52c1.9688-1.9688 5.1562-1.9688 7.125 0s1.9688 5.1562 0 7.125l-16.504 16.504c6.4805-1.0352 14.141-3.3984 19.559-8.8164 7.9102-7.9102 9.3867-20.676 9.5742-27.434-6.7617 0.1875-19.527 1.6562-27.438 9.5703-5.4492 5.4414-7.8125 13.098-8.8359 19.57zm-78.918-16.523c1.9688-1.9688 5.1562-1.9688 7.125 0l16.496 16.496c-1.0352-6.4805-3.3984-14.137-8.8125-19.555-7.957-7.957-20.699-9.4062-27.438-9.5781 0.1875 6.75 1.6523 19.527 9.5742 27.445 5.418 5.418 13.078 7.7812 19.559 8.8164l-16.504-16.504c-1.9688-1.9648-1.9688-5.1523 0-7.1211zm-88.785 7.2695 28.133-28.258c1.9648-1.9688 5.1602-1.9844 7.125-0.019531 1.9727 1.9648 1.9844 5.1562 0.019531 7.125l-28.094 28.219c8.5078-0.71094 19.863-3.1328 27.332-10.637v-0.003906c9.9883-10.027 10.914-26.914 10.75-34.746-7.75-0.21094-24.719 0.87109-34.699 10.898-7.5234 7.5508-9.9141 18.914-10.566 27.422zm-52.406-0.023438c-0.66406-8.5234-3.0586-19.887-10.539-27.402-10.031-10.078-26.848-11.078-34.707-10.906-0.16406 7.8281 0.76172 24.727 10.746 34.754v0.003906c7.5273 7.5586 18.887 10.02 27.395 10.703l-28.152-28.277c-1.9648-1.9727-1.957-5.1641 0.015625-7.1289 1.9766-1.9648 5.1641-1.9492 7.125 0.015625zm-112.41 9.2812 16.527-16.527c1.9688-1.9688 5.1562-1.9688 7.125 0s1.9688 5.1562 0 7.125l-16.504 16.504c6.4805-1.0352 14.141-3.3984 19.559-8.8164 7.9102-7.9102 9.3828-20.676 9.5664-27.434-6.7539 0.1875-19.523 1.6562-27.434 9.5703-5.4492 5.4453-7.8125 13.105-8.8398 19.578zm-78.914-16.527c1.9688-1.9688 5.1562-1.9688 7.125 0l16.496 16.496c-1.0352-6.4805-3.3984-14.137-8.8125-19.551-7.9102-7.9102-20.68-9.3828-27.434-9.5703 0.18359 6.7617 1.6562 19.523 9.5664 27.434 5.418 5.4219 13.082 7.7852 19.562 8.8203l-16.504-16.504c-1.9648-1.9688-1.9648-5.1562 0-7.125zm54.559-29.055c-1.0703 0.15234-2.1602 0.25781-3.2734 0.25781-1.1172 0-2.2031-0.10547-3.2734-0.25781v86.496h6.5469zm9.918-19.176c1.2812-0.52734 2.7188-0.5 3.9805 0.0625 4.7266 2.125 9.3242-0.039063 12.062-2.7734 2.7344-2.7305 4.8984-7.3359 2.7734-12.059-0.56641-1.2578-0.58984-2.6992-0.066406-3.9805 0.52734-1.2773 1.5547-2.2891 2.8477-2.7852 4.7969-1.8555 6.5078-6.5938 6.5078-10.406 0-3.8164-1.7109-8.5547-6.5078-10.41-1.293-0.49609-2.3203-1.5039-2.8477-2.7852-0.52344-1.2773-0.5-2.7227 0.066406-3.9805 2.125-4.7227-0.035156-9.3281-2.7734-12.062-2.7383-2.7344-7.3359-4.8984-12.062-2.7734-1.2617 0.56641-2.6953 0.58984-3.9805 0.066406-1.2773-0.52734-2.2852-1.5547-2.7852-2.8438-1.8555-4.8008-6.5938-6.5117-10.41-6.5078-3.8125 0-8.5508 1.7109-10.406 6.5078-0.49609 1.293-1.5039 2.3203-2.7852 2.8477-1.2773 0.51953-2.7227 0.49609-3.9805-0.066406-4.7227-2.1289-9.3281 0.035156-12.062 2.7734-2.7344 2.7344-4.8984 7.3398-2.7734 12.062 0.56641 1.2578 0.58984 2.6992 0.066406 3.9805-0.52734 1.2773-1.5547 2.2891-2.8477 2.7852-4.7969 1.8555-6.5078 6.5938-6.5078 10.41 0 3.8125 1.7109 8.5508 6.5078 10.406 1.293 0.49609 2.3203 1.5039 2.8438 2.7852 0.52734 1.2773 0.5 2.7227-0.0625 3.9805-2.125 4.7227 0.035156 9.3281 2.7734 12.062 2.7305 2.7305 7.332 4.8945 12.062 2.7695 0.65625-0.29688 1.3594-0.44141 2.0664-0.44141 0.64844 0 1.3008 0.12891 1.9141 0.37891 1.2773 0.52734 2.2891 1.5547 2.7852 2.8438 1.8555 4.7969 6.5938 6.5078 10.41 6.5078 3.8164 0 8.5547-1.7109 10.41-6.5078 0.49219-1.293 1.5-2.3203 2.7812-2.8477zm157.09-4.3867c-1.3164 0.19141-2.6523 0.32422-4.0273 0.32422s-2.7148-0.13281-4.0352-0.32812v110.06h8.0625zm10.117-18.668c0.49609-1.2891 1.5039-2.3164 2.7852-2.8438 1.2852-0.52344 2.7266-0.50781 3.9805 0.0625 6.4844 2.918 12.738-0.015625 16.438-3.7109 3.7109-3.7109 6.6328-9.9727 3.7188-16.449-0.56641-1.2578-0.58984-2.6992-0.0625-3.9805 0.52734-1.2773 1.5547-2.2891 2.8438-2.7852 6.5742-2.543 8.9141-8.9727 8.9141-14.145s-2.3438-11.605-8.9141-14.148c-1.2891-0.5-2.3203-1.5039-2.8438-2.7852-0.52734-1.2773-0.5-2.7227 0.0625-3.9805 2.9141-6.4727-0.011718-12.734-3.7148-16.441-3.7031-3.7031-9.9531-6.6289-16.441-3.7148-1.2539 0.56641-2.6953 0.58984-3.9805 0.066407-1.2773-0.52734-2.2891-1.5547-2.7852-2.8438-2.543-6.5742-8.9727-8.918-14.148-8.918-5.1719 0-11.605 2.3438-14.145 8.9141-0.49609 1.293-1.5039 2.3203-2.7852 2.8477-1.2852 0.52344-2.7227 0.5-3.9805-0.066407-6.457-2.8984-12.73 0.011719-16.441 3.7109-3.7031 3.7031-6.625 9.9688-3.7109 16.441 0.56641 1.2578 0.58984 2.6992 0.066406 3.9805-0.52734 1.2773-1.5547 2.2891-2.8477 2.7852-6.5742 2.543-8.9141 8.9727-8.9141 14.148 0 5.1719 2.3438 11.602 8.9141 14.145 1.293 0.49609 2.3203 1.5039 2.8438 2.7852 0.52734 1.2773 0.5 2.7227-0.0625 3.9805-2.9141 6.4766 0.011718 12.738 3.7148 16.441 3.7031 3.7031 9.9688 6.6367 16.441 3.7148 0.65625-0.29688 1.3594-0.44141 2.0664-0.44141 0.64844 0 1.3008 0.12891 1.9141 0.37891 1.2773 0.52344 2.2852 1.5547 2.7852 2.8438 2.543 6.5742 8.9727 8.9141 14.148 8.9141 5.168 0.011719 11.602-2.332 14.141-8.9062zm155.39 42.23c-1.0703 0.15234-2.1602 0.25781-3.2773 0.25781h-0.003906c-1.1133 0-2.2031-0.10547-3.2734-0.25391v86.492h6.5547zm9.918-19.176c1.2852-0.52344 2.7227-0.5 3.9805 0.0625 4.7266 2.125 9.3281-0.042969 12.062-2.7695 2.7305-2.7344 4.8945-7.3398 2.7695-12.062-0.56641-1.2578-0.58984-2.6992-0.0625-3.9805 0.52734-1.2773 1.5547-2.2891 2.8438-2.7852 4.7969-1.8555 6.5078-6.5938 6.5078-10.406 0-3.8164-1.7109-8.5547-6.5078-10.41-1.2891-0.49609-2.3164-1.5039-2.8438-2.7852-0.52734-1.2773-0.5-2.7227 0.0625-3.9805 2.125-4.7227-0.039063-9.332-2.7734-12.062-2.7266-2.7344-7.332-4.8984-12.059-2.7734-1.2578 0.56641-2.6992 0.58984-3.9805 0.066406-1.2773-0.52734-2.2891-1.5547-2.7852-2.8438-1.8555-4.8008-6.5977-6.5117-10.41-6.5078-3.8125 0-8.5508 1.7109-10.406 6.5078-0.49609 1.293-1.5039 2.3203-2.7852 2.8438-1.2773 0.53125-2.7227 0.50781-3.9805-0.0625-4.7148-2.1211-9.3281 0.039063-12.07 2.7734-2.7305 2.7344-4.8945 7.3398-2.7695 12.062 0.56641 1.2578 0.58984 2.6992 0.0625 3.9805-0.52734 1.2773-1.5547 2.2891-2.8438 2.7852-4.7969 1.8555-6.5078 6.5938-6.5078 10.41 0 3.8125 1.7109 8.5508 6.5078 10.406 1.2891 0.49609 2.3164 1.5039 2.8438 2.7852 0.52734 1.2773 0.5 2.7227-0.0625 3.9805-2.125 4.7227 0.039062 9.3281 2.7695 12.062 2.7344 2.7266 7.3438 4.8945 12.07 2.7695 0.65625-0.29688 1.3633-0.44141 2.0664-0.44141 0.64844 0 1.3008 0.12891 1.9141 0.37891 1.2773 0.52734 2.2891 1.5547 2.7852 2.8438 1.8555 4.7969 6.5938 6.5078 10.406 6.5078 3.8164 0 8.5547-1.7109 10.41-6.5078 0.49609-1.2969 1.5039-2.3242 2.7852-2.8477z"/>
</svg>