<?xml version="1.0" encoding="UTF-8"?>
<!-- The Best Svg Icon site in the world: iconSvg.co, Visit us! https://iconsvg.co -->
<svg fill="#000000" width="800px" height="800px" version="1.1" viewBox="144 144 512 512" xmlns="http://www.w3.org/2000/svg">
 <g>
  <path d="m247.56 232.35c1.0195 7.5391-1.1094 15.168-5.8828 21.094-4.4609 7.0781-7.1953 15.621-14.387 20.359-5.3047 3.4961-2.5156 5.5469-0.89062 9.2969 2.8516 6.5859 5.8438 8.8984 12.527 4.3945 2.6211-1.7656 9.0547 4.0391 10.758 8.5234 5.4219 14.262 4.8203 29.18 5.1523 44.02h0.003906c0.51562 16.332 2.6055 32.574 6.2383 48.508 3.1953 14.688 8.3594 28.699 12.852 42.965 3.5391 12.004 6.1719 24.258 7.8711 36.656 1.3164 8.4883 2.3555 17.008 4.1719 25.434 1.2852 5.9688 1.2891 12.199 2.0977 18.281 1.6992 10.797 2.0664 21.758 1.0938 32.645 2.2852-3.5273 3.4258-7.6758 3.2695-11.875 0.85156-11.398 3.6602-22.73 2.2031-34.223-2.5508-20.117-4.1289-40.297-10.133-59.973-5.3008-17.367-13.578-33.664-17.586-51.418h-0.003907c-2.125-7.8125-3.5859-15.793-4.3711-23.852-0.074219-1.4141-0.23047-2.8906 1.7383-2.7617v0.003906c0.68359-0.007812 1.3398 0.27734 1.8047 0.78516 0.46094 0.50781 0.68359 1.1875 0.61719 1.8672 0.33984 13.285 3.2344 26.383 8.5312 38.57 3.6484 10.008 7.6133 19.91 10.965 30.016 2.375 7.1562 3.832 14.613 5.9531 21.859 1.2891 5.4805 2.0664 11.066 2.332 16.688 1.7422 10.32 2.8594 20.734 3.3516 31.188 0.33203 13.719-1.2812 27.41-4.793 40.676-2.957 9.5312-4.0469 19.469-7.582 28.777-0.79297 1.6484-0.83203 3.5547-0.10938 5.2344 1.9883-0.11719 1.0586-2.2188 2.1797-2.957 0.64453 1.5898 0.32422 3.4102-0.82812 4.6836-2.7031 2.875-0.1875 3.6367 1.707 4.5391 1.0508 0.41797 2.1641 0.66016 3.293 0.71875 6.7773 0.74219 6.7773 0.72656 9.0039 7.0469 3.8711-8.9648 8.5859-16.969 12.453-25.281 2.6836-5.7656 0.96875-12.969-0.62891-19.262v0.003906c-2.3984-8.1719-3.0469-16.758-1.9023-25.195 3.4336-19.117-0.14453-38.641 4.1758-57.531 1.7109-10.355 4.7773-20.438 9.1289-29.988 0.30078-1.5195 1.6172-2.625 3.168-2.6562 1.043 0.51172 1.8477 1.4141 2.2383 2.5078 0.89844 1.9648-1.293 1.7734-2.0586 2.625-2.4727 2.9141-4.1797 6.3945-4.9727 10.137-2.5391 10.699-4.8516 21.43-6.5 32.367-1.8906 12.516 0.22266 24.844-0.71094 37.188l-0.003906-0.003906c-0.78906 9.582-0.49219 19.223 0.88281 28.738 0.57813 4.0742 2 7.9805 4.1797 11.469 1.7969 2.0938 1.6719 5.2188-0.28906 7.1562-2.2812 1.9219-3.6328 4.7188-3.7266 7.6953-0.74609 7.4922-6.2109 12.309-9.875 18.074-2.8047 4.4297-4.957 9.2422-6.3828 14.285-1.1367 3.9688-2.8008 5.8359-7.0625 4.2031h0.003907c-3.4844-1.0195-7.2188-0.76172-10.531 0.72266-4.3477 1.4141-6.793-0.61328-5.4062-4.8164 0.59766-2.8125 0.57812-5.7188-0.058594-8.5234-0.78125-8.4258 2.6445-15.926 4.582-23.465v0.003906c5.1758-18.656 6.4648-38.176 3.7812-57.348-2.2188-14.535-3.6641-29.188-5.9648-43.711h0.003907c-3.8672-21.25-9.4023-42.164-16.555-62.547-4.9102-15.934-8.2422-32.309-9.9492-48.895-0.75391-6.3516-0.75-12.805-0.95703-19.211-0.27734-8.5781 0.14062-17.227-0.80859-25.723h-0.003907c-0.60547-6.8867-2.9258-13.508-6.7539-19.262-1.7305-2.5898-5.2344-3.2812-7.8203-1.5469-7.4023 2.9766-11.461 9.3867-16.406 14.848-5.5508 7.4453-14.129 12.039-23.406 12.535-2.3359-0.042969-4.4883-1.293-5.6797-3.3047-5.168-6.6016-4.3359-14.094-2.9844-21.352 1.543-8.9414 4.8906-17.473 9.832-25.082 4.2539-7.6133 5.7578-16.461 4.2539-25.051 0.003906-0.16797-0.011719-0.33594-0.054688-0.49609-2.6055-4.5156-1.7852-10.227 1.9922-13.824 1.9023-2.4297 2.4453-5.6602 1.4375-8.5781-1.8477-8.0859-2.1562-16.445-0.90625-24.645 0.67187-4.7422 2.6289-3.9141 4.9805-1.3086h0.003906c4.6445 4.9375 8.2812 10.73 10.707 17.059 1.4688 4.0742 4.5625 3.6836 7.4766 4.2617 0.91797 0.18359 0.91016-0.32422 0.90234-1.3984 0.1875-7.6094 2.4883-15.02 6.6484-21.398 0.37891-1.3242 1.5312-2.2773 2.9023-2.4062 1.5742 0.25 2.668 1.7031 2.4766 3.2852 0.48047 9.2344 5.5586 17.266 6.8633 26.328 0.47656 2.5117 2.7969 4.2422 5.3398 3.9805 2.4883-0.09375 4.8867 0.93359 6.5391 2.7969 12.055 8.125 17.203 21.574 25.434 32.645 4.5234 6.4062 8.7109 13.047 12.543 19.895 0.20312 0.62109 0.56641 1.1758 1.0547 1.6055 7.9023 2.7656 9.7422 10.211 12.809 16.641 1.4766 3.0977 2.9531 4.3594 6.4688 2.4219h0.003906c3.0469-1.5352 6.6211-1.6211 9.7422-0.23438 9.2266 3.2344 18.941 5.0898 28.102 8.4805 14.504 5.3672 30.277 6.0508 44.422 12.539 3.6016 1.2578 7.418 1.7773 11.223 1.5234 15.52 0.41016 31.023-1.1875 46.133-4.75 13.086-3.6484 26.594-5.5625 40.18-5.6953 6.5156-0.46094 12.852 2.2617 17 7.3047 2.125 2.5625 4.6055 4.8125 7.3594 6.6797 6.1953 4.7695 11.223 10.887 14.699 17.891 0.375 1.2109 1.4883 2.043 2.7578 2.0586 17.383 1.082 33.176 10.484 42.41 25.25 8.625 12.715 11.957 27.297 17.211 41.258 6.2422 16.59 5.9258 34.387 10.281 51.305 0.94141 4.2148 1.4062 8.5195 1.3906 12.836 0.32031 12.797 2.7578 25.445 2.3867 38.266-0.03125 1.0742 0.82422 2.4922-0.73828 3.0117-1.2031 0.12891-2.3438-0.57422-2.7734-1.707-1.5352-2.1016-2.8047-4.3945-4.2852-6.7773-1.4297 4.5742-4.9375 2.8711-7.9805 2.6836-0.11719 0.28906-0.22656 0.57812-0.35547 0.86328-0.72266 1.6055 2.7383 3.6367-0.054688 4.6992-2.5391 0.96484-1.6602-2.1992-2.6406-3.3008-4.3555-5.9688-7.1523-12.93-8.1406-20.25-2.3203-9.3711-6.2305-18.344-9.2773-27.547-4.1484-12.531-10.078-24.336-14.719-36.684v-0.003906c-3.3828-9.8633-8.0742-19.227-13.953-27.84-1.7305 2-2.3555 4.7266-1.6602 7.2773-0.48047 12.348-5.9414 23.574-7.7109 35.574h-0.003906c-3.0039 17.852-0.25391 36.199 7.8555 52.383 4.1953 8.2695 4.9922 17.848 2.2266 26.695-1.7188 6.5195-2.5586 13.211-4.5781 19.66-3.7148 9.6406-6.0234 19.766-6.8516 30.062-0.097656 5.7188 0.33203 11.465 0.80469 17.172h0.003906c-0.10547 3.6445-0.39844 7.2773-0.875 10.891 0.046875 0.95312-0.39062 1.8633-1.1641 2.4219-0.77344 0.55469-1.7773 0.68359-2.668 0.33203-4.7617-1.5391-9.9414-1.0703-14.352 1.2969-0.52344 0.48047-1.293 0.57422-1.9141 0.22656-0.62109-0.34766-0.94531-1.0547-0.80469-1.7539-0.48828-3.7109-0.60547-7.457-0.35547-11.191 3.2344-14.434 6.7188-28.824 9.3906-43.363 2.0859-12.195 1.7461-24.68-0.99609-36.742-2.1328-10.652-5.1055-21.121-8.8984-31.301-3.2305-9.4844-7.3984-18.625-12.449-27.281 1.2422 6.1875 1.8594 12.469 2.8203 18.676 1.2227 7.9297 3.9531 15.648 4.9102 23.59 0.62109 3.7656-0.125 7.6328-2.1016 10.898-5.707 8.5664-7.6055 18.617-10.59 28.258-2.9375 8.5352-5.4141 17.227-7.418 26.027-2.0469 10.504-6.2812 20.512-6.8359 31.371 0.003906 1.3633-0.55078 2.668-1.5391 3.6094-0.98828 0.9375-2.3203 1.4297-3.6836 1.3594-5.5781-0.70312-11.227-0.65625-16.797 0.13672-3 0.73828-3.2656-2.3984-2.8203-4.5234h0.003906c1.0977-7.3281 2.9062-14.535 5.3945-21.52 3.5586-10.273 8.7773-19.895 15.441-28.484 2.2383-2.3242 3.1094-5.6367 2.3047-8.7617-3.2344-15.695-5.2266-31.625-5.9609-47.637-0.38281-1.2578-0.30078-2.6133 0.23047-3.8164 4.2383-6.3008 0.73828-11.762-2.4648-16.68l0.003906-0.003906c-7.4531-12.547-12.715-26.273-15.559-40.59-4.2969 1.1094-7.5273 4.4648-11.996 5.3828-7.3867 1.5234-14.586 3.9258-21.922 5.7344-2.3164 0.57031-4.6602-1.8359-6.6758-1.4023-6.5078 0.69531-13.09 0.14453-19.395-1.6172-9.4102-0.89844-18.75-2.4453-27.949-4.625-2.2734-0.14453-4.5586 0.019531-6.793 0.48828-6.8984-0.41016-13.844 1.7109-20.77-0.90625h0.003907c-2.4648-0.25-4.957 0.003906-7.3203 0.74609-1.5547 0.16797-3.3711 0.070312-3.5312-1.7969-0.16406-1.9258 1.5938-2.2188 3.1797-2.2031 4.4648-0.39844 8.9609-0.28906 13.402 0.32422 5.1992 1.3164 10.645 1.3203 15.848 0.011719 1.1016-0.41016 2.2969-0.49219 3.4453-0.23828 7.4727 2.707 15.672 1.4648 23.098 4.332v0.003907c0.86719 0.46484 1.8281 0.73047 2.8125 0.77734 8.1836-0.89453 15.977 2.1719 24.031 2.2891 14.773 0.18359 29.262-4.0742 41.586-12.219 4.0977-2.6172 7.418-6.0742 11.191-9.0234 1.9688-1.2969 3.3438-3.3203 3.8242-5.6289-0.027344-0.93359 0.32422-1.8438 0.97656-2.5117s1.5508-1.0469 2.4844-1.0391c2.2852-0.1875 4.3867 1.2422 5.0586 3.4336 4.2812 14.297 12.918 26.418 20.195 39.242h-0.003907c4.3359 7.3477 7.8477 15.148 10.473 23.266 1.8906 6.1641 5.9023 11.586 7.6562 18.078v-0.003906c4.4258 13.941 7.3086 28.324 8.5977 42.891 0.058594 9.5156-1.0312 19.004-3.25 28.262-2.375 8.043-4.0859 16.266-5.1172 24.59-0.089844 2.4297-0.14844 3.3359 2.4102 2.8711 0.16016-0.027344 0.33594 0.03125 0.5 0.003906 2.1094-0.36719 4.082 2.9883 5.3594 1.4414 1.3945-2.3945 2.3438-5.0195 2.7969-7.7539 2.6836-8.6953 2.2344-18.027 5.3828-26.629 4.2188-13.164 7.2773-26.672 9.1367-40.367 0.97266-5.4727-2.2461-10.387-4.3867-15.27-6-13.863-8.8438-28.887-8.3242-43.984 0.23828-11.012 4.6406-20.648 6.9102-30.957 1.8633-9.2344 2.7773-18.633 2.7344-28.051 0.96484-7.0625 0.90625-14.23-0.17969-21.277-2.2148-8.1719-6.2305-15.535-8.8984-23.445-3.5039-10.379-11.906-16.473-18.801-24.191-8.3398-9.332-17.828-9.9805-28.516-9.9492v0.003906c-10.695 0.88672-21.297 2.6484-31.703 5.2656-17.668 2.9414-35.273 6.4727-53.297 4.0469h-0.003906c-3.8672-0.75781-7.6484-1.918-11.273-3.4648-9.2734-3.3477-19.152-4.3086-28.508-7.1836-8.7227-2.6836-17.535-5.1016-26.094-8.4492-5.0703-1.3125-10.203-2.3594-15.383-3.1367-1.7109-0.45703-5.2617-0.25-2.957 3.7734 5.8789 11.41 9.8398 23.711 11.719 36.41 0.39453 2.0117 3.043 5.5312 0.30859 6.1016-3.0898 0.64453-1.3242-3.5547-1.9141-5.4297-3.5938-11.43-5.3242-23.492-12.445-35 2.0898 10.957 4.8242 20.66 3.5 30.766v-0.003906c-0.38281 0.56641-0.89453 1.0312-1.4961 1.3594-0.70312-18.633-3.9961-36.129-15.242-51.285 2.5508 7.9336 4.6914 15.992 6.4219 24.145 1.6016 7.8555 4.7266 15.57 3.168 23.824-4.0508-20.422-8.2695-40.691-19.129-58.812 2.207 11.82 3.4805 23.797 3.8047 35.816-3.6992-15.238-3.8984-31.34-11.324-45.602 1.0469 10.711 4.3164 21.109 3.0156 31.988-3.75-18.531-4.7812-37.91-18.402-53.129l6.9727 33.781-1.4141 0.26953c-1.3711-6.1562-2.8008-12.297-4.1016-18.465l0.003907 0.003907c-1.9102-9.918-5.3555-19.473-10.215-28.324-1.0195-2.9102-3.6406-4.9609-6.7109-5.2461 1.9648 2.4766 3.7969 5.0547 5.4844 7.7305 1.1914 2.1133 5.3633 3.6797 1.8047 7.1719v-0.003907c0.058594 0.96094 0.33984 1.8906 0.81641 2.7227 2.3477 6.8906 3.9961 14 4.9297 21.219 0.089844 0.74609 1.5352 1.9062-0.15625 2.3867-1.7305 0.49219-1.6836-0.92188-1.875-2.1094l-0.003906-0.003906c-1.2578-10.355-4.5781-20.355-9.7578-29.41-1.4375-3.9492-4.5938-7.0352-8.582-8.3711zm342.81 177.55c2.082 1.8438 3.6328 4.2109 4.4922 6.8555 1.1875 2.4883 2.3516 4.9883 3.9922 8.4727v-0.003906c0.15625-0.89844 0.19922-1.8086 0.13672-2.7188-6.2461-17.188-9.6406-35.562-21.512-50.391-6.3398-9.0234-15.672-15.516-26.336-18.32 2.0859 2.375 0.55078 6.9688 4.875 8.0664 0.54297-1.6523-1.7891-2.1484-0.78906-4.1367l-0.003906 0.003906c2.3633 1.4258 4.4453 3.2734 6.1445 5.4492 7.6914 8.5703 12.422 19.062 18.832 28.453 4.4531 5.5156 7.9453 11.742 10.324 18.418-3.1211-1.543-3.9453-5.1211-6.5117-7.3672 2.8906 3.8633-1.0625 7.6289 0.13281 11.352-1.168-2.0781-2.3359-4.1523-3.625-6.4492h0.003907c-0.13672 8.6211 2.1445 17.109 6.5859 24.504l-3.0156-18.156c3.4688 4.2266 2.2656 9.7383 4 14.434 0.375 1.0195-0.79688 2.7812 1.3516 3.0234 2.375 0.26953 1.3867-2.2344 2.5898-3.6328 0.78125 10.637 1.5195 20.648 2.2539 30.66v0.003907c0.75-2.7227 1.2734-5.4961 1.5664-8.3008-0.046875-0.50391 0.11719-1 0.45703-1.3711s0.82031-0.58203 1.3242-0.58203c1.1914-0.007812 1.0781 1.0156 1.25 1.7812 1.0039 3.2969 1.7266 6.6719 2.1719 10.086 0.78906 15.406 5.4336 30.336 5.5117 45.832l-0.003906-0.003906c0.41016 3.125 1.8828 6.0117 4.1758 8.1719 0.042968-1.832-0.023438-3.6641-0.1875-5.4883-2.6602-15.914-1.8242-32.098-4.9141-48.113v0.003906c-2.1289-13.402-5.6406-26.543-10.48-39.215-2.3203-3.4258-3.9492-7.2695-4.793-11.32zm-352.84-157.82-0.17969 0.1875c3.2148-3.1992 2.5195-8.0039 4.707-11.57 2.1914-3.5742 0.40234-7.1406 0.40234-10.691h-0.003907c0.074219-0.60156-0.23047-1.1836-0.76562-1.4609-0.53906-0.28125-1.1914-0.19531-1.6367 0.21094-2.4141 1.6758-2.4805 1.7188-3.4961-1.2266-0.33594-1.3242-1.3477-2.3711-2.6562-2.7539-0.20703 1.6172 1.1797 4.0898-1.3711 4.3594-2.1719 0.23047-2.8984-1.7031-3.0273-3.7266h0.003906c-0.019531-1.6367-0.91406-3.1406-2.3398-3.9414-1.2266 1.8945-0.84766 4.4023 0.87891 5.8555 2.5078 1.7266 1.6484 3.2461 0.16016 5.3438-7.0977 9.4844-12.746 19.977-16.75 31.125-0.88672 1.2383-0.68359 2.9492 0.46875 3.9453 1.9023 1.5859 3.6445 3.375 5.3984 5.1289 0.42969 0.63281 1.1211 1.0391 1.8828 1.1016 0.76172 0.066406 1.5156-0.21875 2.043-0.76953 7.4102-5.2578 13.082-12.613 16.281-21.117zm-29.281 60.414-0.16406 0.03125c1.8203-0.45312 3.5586-1.1953 5.1445-2.1953 3.6719-4.4844 7.5703-8.7812 11.445-13.098l-0.003906 0.003906c0.77734-0.66797 1.0898-1.7227 0.80469-2.7031-1.2422-4.4922-3.6094-8.5938-6.8711-11.922-3.0703-2.5039-7.8203-1.9297-10.637-5.2031-0.14844-0.0625-0.32031-0.046875-0.45703 0.039063-4.3438 3.4844-6.3633-1.0352-9.207-2.8398h0.003906c-2.2461 3.2383-3.5742 7.0234-3.8555 10.953 0.47656 5.9648 1.5391 12.031-2.3047 17.477-2.9258 4.1445 0.16016 7.5195 1.6953 11.008h0.003906c1.1484 2.1523 3.7148 3.1172 5.9961 2.2617 3.2109-0.039063 6.2617-1.4219 8.4062-3.8125zm270.7 95.426c-3.6523 6.0195-8.5273 11.211-14.309 15.23-1.4766 0.95312-2.2695 2.6719-2.0391 4.4141 0.73828 9.207 3.3555 18.164 7.6836 26.324 3.2734 6.8789 6.9258 13.566 10.941 20.043 1.1875 1.6328 1.2969 3.8125 0.27734 5.5586-1.6133 3.4648-2.2344 7.3164-1.7812 11.113 0.085938 5.3359 1.3672 10.574 1.3555 15.828v-0.003906c0.56641 8.2148 1.7461 16.375 3.5273 24.41 0.67188 4.5977 3.4141 9.8203-0.12109 13.805l0.003907 0.003907c-6.7188 8.7344-12.367 18.246-16.82 28.328-1.3828 2.8711-2.2891 5.9453-2.6875 9.1055 3.0664-1.0977 6.2812-1.7305 9.5312-1.875 1.457 0.14844 6.2578-4.8125 5.4219 2.1016-0.054688 0.4375 1.5938 0.49219 2.0156-0.30078l0.003906-0.003906c0.58984-1.1875 1.0547-2.4336 1.3789-3.7188 4.375-15.34 7.4258-31.047 12.711-46.137 2.2188-6.3359 2.6094-13.473 6.543-18.996v-0.003906c4.6289-6.7773 5.5898-15.41 2.5664-23.043-3.2773-12.57-5.3789-25.414-6.2852-38.375-0.28516-5.0938-2.125-9.9766-5.2656-13.992-3.332-4.1016-5.957-8.7305-7.7695-13.691-1.9336-5.2383-4.3633-10.285-6.8828-16.125zm-258.3-182.88c-1.457 1.2266-2.5078 2.8594-3.0195 4.6914-0.73047 1.5898-2.543 2.9375-3.3867 2.0195-3.5977-3.9141-3.9688 0.28906-5.543 1.8047-2.3477 2.5-3.543 5.8711-3.2969 9.293-0.36719 6.5312-0.38672 13.125-1.1133 19.656v-0.003906c-0.37109 1.1602 0.13281 2.418 1.2031 3 1.918 0.64062 1.8516-1.3438 2.5352-2.2773 0.54297-0.625 0.94141-1.3633 1.1641-2.1641 1.5977-8.6328 5.3477-16.727 10.906-23.531 3.2773-4.2422 4.8945-7.9883 0.55078-12.488zm339.87 188.62c5.4258 26.613 19.555 50.059 28.148 75.527-2.168-18.488-11.371-34.836-15.492-53.543l-1.5781 4.4258c-1.3242-10.023-3.1289-19.352-11.078-26.41zm21.309 41.348c-0.54688-2.9102-0.86328-5.8594-0.94531-8.8164 0.36328-8.2578-0.050781-16.531-1.2344-24.711-1.3711-6.6992-4.2773-12.988-8.5-18.363-3.4375 19.016 5.0898 35.184 10.68 51.891zm0.93359-25.676v-0.003906c-1.4023 19.25 1.5859 38.562 8.7422 56.488 0.36328-7.4414-0.042968-14.902-1.2148-22.258-1.2109-5.2969-0.44141-11.453-2.8906-15.953-2.6406-4.8477-0.42578-10.055-3.1172-14.453-0.60938-1.2305-1.1172-2.5078-1.5195-3.8242zm-37.027-70.77c-2.543-0.046874-1.7109-2.043-1.75-3.2617-0.14453-4.5312-0.078125-4.5312-4.8086-3.6172l0.003906-0.003906c2.6523 6.1328 4.9766 12.406 6.9609 18.785 0.82422 3.1914 2.7188 6 5.3633 7.9609 2.3008 1.8555 4.25 1.4609 3.6875-1.7031-0.86719-8.4414-3.6875-16.566-8.2344-23.73-1.0781 1.6445-1.5156 3.625-1.2227 5.5703zm48.48 126.05c-2.043 4.3945-2.3477 4.7109-0.57812 12.688 0.61328 2.7617-4.3555 2.7969-1.9102 4.8516 0.93359 0.78516 3.8711-1.8828 5.8047 0.019531 2.1055 2.0703 4.668-1.3398 6.6641 0.75 0.97266-1.9844-0.92969-2.8164-1.5977-4.1602v0.003906c0.15625-0.42969 0.34766-0.84375 0.57031-1.2422 0.69531-7.5273-2.875-13.762-5.9141-21.539-1.3359 6.9219 2.707 12.77-1.3125 18.078v-0.003906c0.58203-3.2539-0.03125-6.6094-1.7266-9.4453zm-34.73-95.391c-1.6328 11.027 1.8164 22.199 9.3789 30.383-0.36328-4.4141-0.46094-8.8477-0.29688-13.273 0.36719-3.4336-0.30469-6.8945-1.9219-9.9453-1.6172-3.0469-4.1133-5.543-7.1602-7.1641zm-10.035-8.7617c-1.9258 5.7656-3.0898 11.176 3.3438 15.078 2.1992 1.3359 2.2852 5.0039 5.6328 6.2422-0.96875-8.2734 0.41406-16.934-8.9727-21.32zm-340.93-178.38c-1.8242 5.625-1.1758 11.758 1.7891 16.871 0.37891 0.83203 0.48047 1.8281 1.9492 1.5312 1.8711-0.050781 3.5625-1.1406 4.3789-2.8281s0.625-3.6914-0.5-5.1914c-2.0352-3.8047-4.6016-7.3008-7.6172-10.383zm357.19 184.58c0.51562-5.1953 0.38281-11.129-2.6133-12.766-3.8867-2.125-2.918-7.668-7.5781-8.1914-0.84375 8.6914 6.2031 13.555 10.191 20.957zm-329.89-185.45c-3.1367 3.9297-4.4688 8.9961-3.6719 13.961 0.22266 1.375-1.2773 3.4062 1.4688 3.5508 2.6367 0.14062 2.6836-1.7891 2.6172-3.7266-0.14844-4.1367-0.25-8.2734-0.41406-13.785zm332.23 177.43c-0.46875 3.3086 0.19922 6.6797 1.8945 9.5586 1.6992 2.8828 4.3203 5.1016 7.4414 6.293-0.91016-6.6914-5.7812-10.41-9.3359-15.852zm33.332 100.71c-2.1758-7.9648-1.4219-16.414-3.832-24.781-2.4844 8.418-1.0781 17.508 3.832 24.781zm-130.2 108.11c-7.3594-2.3711-7.3516-2.3672-8.8008 3.9297-0.20312 0.44922-0.37891 0.91406-0.51953 1.3867-0.19141 0.64844-0.12109 1.3438 0.20312 1.9375 0.32031 0.59375 0.86719 1.0352 1.5117 1.2266 1.3477-0.070312 2.4805-1.0273 2.7773-2.3438-1.3672-3.9336 1.6602-4.6953 4.8281-6.1367zm106.34-177.35c-1.2812-6.1172-0.32031-13.246-8.3828-17.777zm23.977 99.453c0.73828-3.3906-2.8203-1.9844-3.8086-3.5586-0.4375-0.69922-1.2773-2.375-2.6328-0.79688-0.94922 1.2109-1.0508 2.8828-0.26172 4.2031 1.5117 1.5117 3.6289 2.2578 5.7578 2.0312 1.8711 0.30859 0.57422-1.3633 0.94531-1.8789zm-50.953-111.77c2.668 4.8984 5.0273 9.957 7.6523 14.879 0.78516-6.7578-3.6641-10.691-7.6523-14.879zm-263.74 200.11c-7.4688-1.1562-8.0234-0.55469-6.2031 6.4336v0.003907c1.3516-2.7383 3.5195-4.9883 6.2031-6.4375zm7.7109 0.23047c-1.3438 0.23438-2.5625 0.95312-3.4141 2.0234 2.6445 0.039062-0.29297 4.7148 3.1914 3.918 2.4297-0.55469 1.0508-3.0703 1.9531-4.5391 0.61719-1-0.44141-1.7109-1.7305-1.4023zm-54.023-383.84c1.5781 3.8242-0.34375 8.6797 3.8477 11.738-1.4414-3.8672-0.30469-8.4883-3.8477-11.738z"/>
  <path d="m208.25 312.5c-1.4844-0.5625-2.6328-1.7656-3.1289-3.2734-0.49609-1.5078-0.28516-3.1602 0.57031-4.4961 0.77344-3.918 3.5-7.1719 7.2227-8.6211 2.082 1.6641 3.5469 3.9805 4.1523 6.5742-5.0156 1.5156-4.2305 8.1797-8.9609 9.8438z"/>
  <path d="m237.53 252.08c-0.46875 0.40625-0.99609 0.73828-1.5586 0.99219-4.668-4.1875-9.5039-0.16406-14.23-0.3125-1.8594-0.058594-3.125-0.16016-1.7422-2.4297 1.5391-2.5312 2.8555-5.2148 4.582-7.6094 1.4062-1.9531 2.8164-0.72656 4.6367 0.11719v-0.003906c4.2031 1.4688 7.3008 5.0625 8.1289 9.4336z"/>
 </g>
</svg>