<?xml version="1.0" encoding="UTF-8"?>
<!-- The Best Svg Icon site in the world: iconSvg.co, Visit us! https://iconsvg.co -->
<svg fill="#000000" width="800px" height="800px" version="1.1" viewBox="144 144 512 512" xmlns="http://www.w3.org/2000/svg">
 <path d="m555.98 341.43c9.918 0 24.5-1.875 34.09-11.465 15.395-15.391 10.902-43.637 10.699-44.832-0.35547-2.125-2.0156-3.7891-4.1445-4.1445-1.1992-0.19531-29.441-4.6836-44.836 10.695-0.84375 0.84375-1.6016 1.7383-2.3281 2.6484v-18.016c5.875-4.7461 22.027-19.438 22.027-37.645 0-21.766-23.148-38.562-24.137-39.266-1.75-1.25-4.1016-1.25-5.8555 0-0.98828 0.70312-24.137 17.5-24.137 39.266 0 18.207 16.152 32.898 22.027 37.645v34.523c-0.75781-0.96094-1.5586-1.8945-2.4414-2.7773-15.395-15.395-43.629-10.887-44.832-10.695-2.125 0.35547-3.7891 2.0156-4.1445 4.1445-0.20312 1.1953-4.6953 29.438 10.695 44.832 9.5898 9.5898 24.172 11.465 34.09 11.465 2.5977 0 4.8438-0.12891 6.6289-0.28125v22.773c-0.75781-0.96094-1.5586-1.8945-2.4414-2.7773-15.391-15.391-43.641-10.898-44.832-10.699-2.125 0.35547-3.7891 2.0156-4.1445 4.1445-0.20313 1.1953-4.6953 29.441 10.695 44.836 9.5898 9.5898 24.168 11.457 34.086 11.457 2.5977 0 4.8477-0.12891 6.6328-0.28125v22.773c-0.75781-0.96094-1.5586-1.8945-2.4414-2.7773-15.391-15.379-43.625-10.895-44.832-10.699-2.125 0.35547-3.7891 2.0156-4.1445 4.1445-0.20312 1.1953-4.6953 29.441 10.695 44.836 9.5898 9.5898 24.172 11.465 34.09 11.465 2.5977 0 4.8438-0.12891 6.6289-0.28125v72.086c-36.562-8.7266-83.5-13.875-134.3-14.191l0.015625-75.797c1.7656 0.14844 3.9727 0.26953 6.5156 0.26953 9.918 0 24.5-1.8711 34.09-11.457 15.395-15.391 10.902-43.641 10.699-44.836-0.35547-2.125-2.0156-3.7891-4.1445-4.1445-1.1992-0.19141-29.441-4.6836-44.832 10.699-0.84375 0.84375-1.6055 1.7383-2.332 2.6523v-21.879c1.7656 0.14844 3.9727 0.27344 6.5195 0.27344 9.918 0 24.5-1.875 34.086-11.465 15.395-15.391 10.902-43.641 10.699-44.836-0.35547-2.125-2.0156-3.7891-4.1445-4.1445-1.1992-0.19141-29.441-4.6836-44.832 10.699-0.84375 0.84375-1.6055 1.7383-2.332 2.6523v-21.879c1.7773 0.16016 3.9844 0.28516 6.5273 0.28516 9.918 0 24.5-1.875 34.086-11.465 15.395-15.391 10.902-43.637 10.699-44.832-0.35547-2.125-2.0156-3.7891-4.1445-4.1445-1.1992-0.19531-29.445-4.6836-44.832 10.695-0.84375 0.84375-1.6055 1.7383-2.332 2.6523v-18.02c5.875-4.7461 22.027-19.438 22.027-37.645 0-21.766-23.148-38.562-24.137-39.266-1.75-1.25-4.1016-1.25-5.8555 0-0.98828 0.70312-24.137 17.5-24.137 39.266 0 18.207 16.152 32.898 22.027 37.645v34.523c-0.75781-0.96094-1.5586-1.8945-2.4414-2.7773-15.379-15.379-43.625-10.887-44.832-10.695-2.125 0.35547-3.7891 2.0156-4.1445 4.1445-0.20312 1.1953-4.6953 29.441 10.699 44.832 9.5859 9.5898 24.168 11.465 34.086 11.465 2.5977 0 4.8438-0.12891 6.6289-0.28125v22.773c-0.75781-0.96094-1.5586-1.8945-2.4414-2.7773-15.375-15.387-43.629-10.895-44.832-10.699-2.125 0.35547-3.7891 2.0156-4.1445 4.1445-0.20312 1.1953-4.6953 29.445 10.699 44.836 9.5859 9.5859 24.164 11.457 34.082 11.457 2.5977 0 4.8477-0.12891 6.6328-0.28125v22.773c-0.75781-0.96094-1.5586-1.8945-2.4414-2.7773-15.387-15.387-43.629-10.895-44.832-10.699-2.125 0.35547-3.7891 2.0156-4.1445 4.1445-0.20313 1.1953-4.6953 29.445 10.699 44.836 9.5859 9.5898 24.168 11.465 34.086 11.465 2.5977 0 4.8438-0.12891 6.6289-0.28125v57.895c-50.848 0.32812-97.77 5.4844-134.3 14.223l0.015625-90.02c1.7656 0.14844 3.9727 0.26953 6.5156 0.26953 9.918 0 24.5-1.8711 34.094-11.457 15.391-15.395 10.898-43.641 10.695-44.836-0.35547-2.125-2.0156-3.7891-4.1445-4.1445-1.1992-0.19141-29.438-4.6836-44.832 10.699-0.84375 0.84375-1.6055 1.7383-2.332 2.6523v-21.879c1.7656 0.14844 3.9727 0.27344 6.5195 0.27344 9.918 0 24.5-1.875 34.09-11.465 15.391-15.395 10.898-43.641 10.695-44.836-0.35547-2.125-2.0156-3.7891-4.1445-4.1445-1.1992-0.19141-29.438-4.6836-44.832 10.699-0.84375 0.84375-1.6055 1.7383-2.332 2.6523v-21.879c1.7734 0.16016 3.9805 0.28516 6.5273 0.28516 9.918 0 24.5-1.875 34.09-11.465 15.391-15.395 10.898-43.637 10.695-44.832-0.35547-2.125-2.0156-3.7891-4.1445-4.1445-1.1992-0.19531-29.438-4.6875-44.832 10.695-0.84375 0.84375-1.6055 1.7383-2.332 2.6523v-18.023c5.8789-4.7461 22.031-19.438 22.031-37.641 0-21.766-23.152-38.562-24.141-39.266-1.75-1.25-4.1016-1.25-5.8555 0-0.98828 0.70312-24.137 17.5-24.137 39.266 0 18.207 16.152 32.898 22.027 37.645v34.52c-0.75391-0.95703-1.5547-1.8906-2.4336-2.7734-15.391-15.391-43.629-10.887-44.836-10.695-2.125 0.35547-3.7891 2.0156-4.1445 4.1445-0.20312 1.1953-4.6953 29.441 10.699 44.832 9.5898 9.5898 24.172 11.465 34.09 11.465 2.5938 0 4.8398-0.12891 6.6211-0.28125v22.77c-0.75391-0.95703-1.5547-1.8906-2.4336-2.7734-15.387-15.387-43.629-10.895-44.836-10.699-2.125 0.35547-3.7891 2.0156-4.1445 4.1445-0.20312 1.1953-4.6953 29.445 10.699 44.836 9.5898 9.5898 24.168 11.457 34.086 11.457 2.5977 0 4.8438-0.12891 6.6289-0.28125v22.77c-0.75391-0.95703-1.5547-1.8906-2.4336-2.7734-15.395-15.387-43.629-10.895-44.836-10.699-2.125 0.35547-3.7891 2.0156-4.1445 4.1445-0.20312 1.1953-4.6953 29.445 10.699 44.836 9.5898 9.5898 24.172 11.465 34.09 11.465 2.5938 0 4.8398-0.12891 6.6211-0.28125v74.684c-21.516 5.8633-38.805 13.051-50.102 21.297-2.25 1.6445-2.7344 4.793-1.0977 7.0391 1 1.3438 2.5312 2.0625 4.0859 2.0625 1.0273 0 2.0703-0.31641 2.9648-0.96875 29.648-21.652 107.47-36.203 193.66-36.203 85.828 0 163.55 14.469 193.39 36.008 2.2539 1.6328 5.4062 1.1172 7.0312-1.1367 1.6289-2.2539 1.1211-5.4023-1.1367-7.0312-11.324-8.1719-28.566-15.293-49.969-21.113v-92.539c1.7656 0.14844 3.9688 0.26953 6.5078 0.26953 9.918 0 24.5-1.8711 34.094-11.457 15.395-15.391 10.902-43.641 10.699-44.836-0.35547-2.125-2.0156-3.7891-4.1445-4.1445-1.1953-0.19141-29.438-4.6836-44.836 10.699-0.84375 0.84375-1.6016 1.7383-2.3281 2.6484v-21.875c1.7656 0.14844 3.9727 0.27344 6.5156 0.27344 9.918 0 24.5-1.875 34.09-11.465 15.395-15.391 10.902-43.641 10.699-44.836-0.35547-2.125-2.0156-3.7891-4.1445-4.1445-1.1953-0.19141-29.438-4.6836-44.836 10.699-0.84375 0.84375-1.6016 1.7383-2.3281 2.6484v-21.875c1.7812 0.16016 3.9844 0.28516 6.5273 0.28516zm2.9375-42.617c8.9414-8.9336 25.094-8.8359 32.355-8.2852 0.67578 8.543 0 23.988-8.3242 32.316-8.9219 8.9258-25.031 8.8516-32.32 8.2891-0.55469-7.2812-0.625-23.398 8.2891-32.32zm-20.801 48.734c-8.5352 0.66406-23.996 0-32.32-8.3242-8.9141-8.9219-8.8477-25.039-8.2852-32.316 7.2812-0.55078 23.395-0.62891 32.316 8.2852 8.9336 8.9375 8.8438 25.094 8.2891 32.355zm0 69.449c-8.5664 0.66797-24 0-32.32-8.3203-8.9297-8.9336-8.8477-25.094-8.2852-32.355 8.5312-0.67969 23.984 0 32.316 8.3242 8.9336 8.9375 8.8438 25.09 8.2891 32.352zm0 69.457c-8.5352 0.66797-23.996 0-32.32-8.3242-8.9141-8.9219-8.8477-25.039-8.2852-32.32 7.2773-0.55078 23.398-0.625 32.316 8.2891 8.9336 8.9375 8.8438 25.094 8.2891 32.355zm-123.57-50.254c8.9297-8.9258 25.094-8.8555 32.348-8.2852 0.67578 8.5352 0 23.988-8.3242 32.316-8.9258 8.9297-25.094 8.8672-32.348 8.2852-0.67578-8.5391 0-23.992 8.3242-32.316zm0-68.691c8.9297-8.9297 25.094-8.8555 32.348-8.2852 0.67578 8.5352 0 23.988-8.3242 32.316-8.9336 8.9336-25.086 8.832-32.348 8.2891-0.67578-8.543 0-23.996 8.3242-32.32zm0-68.695c8.9336-8.9336 25.094-8.8359 32.348-8.2852 0.67578 8.543 0 23.988-8.3242 32.316-8.9336 8.9297-25.086 8.8359-32.348 8.2891-0.67578-8.5391 0-23.996 8.3242-32.32zm-20.805 48.699c-7.2852 0.54688-23.395 0.62891-32.316-8.2891-8.9219-8.9219-8.8516-25.039-8.2891-32.316 7.2734-0.55078 23.395-0.63281 32.316 8.2852 8.918 8.9219 8.8477 25.043 8.2891 32.32zm0 69.449c-7.2734 0.55078-23.395 0.63281-32.316-8.2852-8.9219-8.9219-8.8516-25.043-8.2891-32.32 7.2812-0.54688 23.395-0.62891 32.316 8.2891 8.918 8.9219 8.8477 25.043 8.2891 32.316zm0 69.457c-7.2852 0.54688-23.395 0.62891-32.316-8.2891-8.9219-8.9219-8.8516-25.039-8.2891-32.32 7.2812-0.55078 23.398-0.625 32.316 8.2891 8.918 8.9219 8.8477 25.043 8.2891 32.32zm-123.57-50.219c8.9336-8.9258 25.094-8.8555 32.348-8.2852 0.67578 8.5352 0 23.988-8.3203 32.316-8.9336 8.9297-25.098 8.8672-32.355 8.2852-0.67188-8.5391 0-23.992 8.3281-32.316zm0-68.691c8.9336-8.9297 25.094-8.8555 32.348-8.2852 0.67578 8.5352 0 23.988-8.3203 32.316-8.9336 8.9336-25.086 8.832-32.355 8.2891-0.67188-8.543 0-23.996 8.3281-32.32zm0-68.695c8.9219-8.9141 25.031-8.8359 32.316-8.2852 0.5625 7.2773 0.63281 23.395-8.2852 32.316-8.9336 8.9297-25.086 8.8359-32.355 8.2891-0.67578-8.5391-0.003906-23.996 8.3242-32.32zm-20.809 48.734c-8.543 0.66406-23.988 0-32.316-8.3242-8.9336-8.9336-8.8477-25.086-8.2891-32.348 8.5664-0.67969 23.988 0 32.32 8.3203 8.9297 8.9336 8.8477 25.09 8.2852 32.352zm0 69.449c-8.543 0.66797-23.996 0-32.316-8.3203-8.9336-8.9336-8.8477-25.094-8.2891-32.355 8.5469-0.66797 23.996 0 32.32 8.3242 8.9297 8.9375 8.8477 25.09 8.2852 32.352zm0 69.457c-8.543 0.66797-23.988 0-32.316-8.3242-8.9219-8.9219-8.8516-25.039-8.2891-32.32 7.2773-0.55078 23.406-0.625 32.32 8.2891 8.9297 8.9375 8.8477 25.094 8.2852 32.355zm-10.676-247.77c0-12.613 11.449-23.961 16.988-28.715 5.543 4.7539 16.992 16.098 16.992 28.715 0 12.633-11.488 24-17.02 28.738-6.5117-5.5625-16.961-16.969-16.961-28.738zm144.37 0c0-12.613 11.449-23.961 16.988-28.715 5.5391 4.7539 16.988 16.098 16.988 28.715 0 12.633-11.484 24-17.012 28.738-6.5195-5.5625-16.965-16.969-16.965-28.738zm175.85 197.52c8.9414-8.9258 25.102-8.8555 32.355-8.2852 0.67578 8.5352 0 23.988-8.3242 32.316-8.9219 8.9219-25.031 8.8516-32.32 8.2891-0.55469-7.2812-0.625-23.398 8.2891-32.32zm0-68.691c8.9414-8.9297 25.102-8.8555 32.355-8.2852 0.67578 8.5352 0 23.988-8.3242 32.316-8.9219 8.9219-25.031 8.8398-32.32 8.2891-0.55469-7.2852-0.625-23.402 8.2891-32.32zm-31.477-128.83c0-12.613 11.449-23.961 16.988-28.715 5.5391 4.7539 16.988 16.098 16.988 28.715 0 12.633-11.484 24-17.012 28.738-6.5195-5.5625-16.965-16.969-16.965-28.738z"/>
</svg>