<?xml version="1.0" encoding="UTF-8"?>
<!-- The Best Svg Icon site in the world: iconSvg.co, Visit us! https://iconsvg.co -->
<svg fill="#000000" width="800px" height="800px" version="1.1" viewBox="144 144 512 512" xmlns="http://www.w3.org/2000/svg">
 <path d="m628.74 459.15-68.629-64.867c-2.125-1.9844-5.1328-2.6289-7.9023-1.7461-2.7539 0.92969-4.7852 3.2734-5.2734 6.1406l-9.1328 53.152-70.645 62.219 0.003906-76.734v-30.387c0-4.3438-3.5273-7.8711-7.8711-7.8711h-7.543c-0.37891-41.895-34.32-75.871-76.203-76.297v-22.719c0-4.3438-3.5273-7.8711-7.8711-7.8711h-30.512c-4.3438 0-7.8711 3.5273-7.8711 7.8711v99.016h-35.062l-27.301-21.836c-13.602-10.895-31.234-15.414-48.43-12.281-17.16 3.0859-32.148 13.43-41.109 28.387-10.691 17.805-11.508 39.535-2.25 58.094l38.398 76.801c7.2109 14.422 19.602 25.191 34.938 30.309l19.82 6.6133v24.719l0.003906 30.555c0 4.3438 3.5273 7.8711 7.8711 7.8711h183.1c4.3438 0 7.8711-3.5273 7.8711-7.8711v-2.3633l105.23-133.38 52.727-12.137c2.832-0.64453 5.0703-2.8008 5.8242-5.6055 0.77344-2.8008-0.078126-5.7773-2.1875-7.7773zm-177.32-44.352v14.641l-167.36 0.003906v-14.641zm-167.36 30.387h167.36v136.8h-167.36zm152.01-46.191h-60.535v-60.555c33.207 0.41016 60.145 27.348 60.535 60.555zm-91.047-91.082h14.77v91.062h-14.77zm-91.551 235.68c-11.336-3.7773-20.516-11.73-25.836-22.402l-38.398-76.801c-6.8633-13.73-6.2344-29.805 1.6523-42.965 6.6289-11.035 17.711-18.703 30.402-20.973 12.707-2.3125 25.758 1.0078 35.801 9.0859l14.219 11.367c-1.793 1.4492-3.0078 3.5586-3.0078 6.0312v141.6zm30.59 54.156h167.36v14.801h-167.36zm282.1-127.81c-1.7305 0.39453-3.3047 1.3867-4.4102 2.8008l-94.59 119.89 0.003906-2.7539v-54.852l83.129-73.211c1.3555-1.1797 2.2656-2.8008 2.5664-4.5664l7.1172-41.422 47.262 44.68z"/>
</svg>