<?xml version="1.0" encoding="UTF-8"?>
<!-- The Best Svg Icon site in the world: iconSvg.co, Visit us! https://iconsvg.co -->
<svg fill="#000000" width="800px" height="800px" version="1.1" viewBox="144 144 512 512" xmlns="http://www.w3.org/2000/svg">
 <path d="m506.93 543.32h-83.793v-352.62c0-8.2656-4.4102-15.906-11.57-20.043-7.1602-4.1328-15.984-4.1328-23.145 0-7.1602 4.1367-11.57 11.777-11.57 20.043v352.62h-83.789c-4.3477 0-7.875 3.5234-7.875 7.8711v73.375c0 4.3477 3.5273 7.875 7.875 7.875s7.8711-3.5273 7.8711-7.875v-43.98h14.832v43.98c0 4.3477 3.5234 7.875 7.8711 7.875s7.8711-3.5273 7.8711-7.875v-43.98h14.809v43.98c0 4.3477 3.5234 7.875 7.8711 7.875s7.8711-3.5273 7.8711-7.875v-43.98h14.793v43.98c0 4.3477 3.5234 7.875 7.8711 7.875 4.3477 0 7.8711-3.5273 7.8711-7.875v-43.98h14.801v43.98c0 4.3477 3.5234 7.875 7.8711 7.875 4.3477 0 7.8711-3.5273 7.8711-7.875v-43.98h14.816v43.98c0 4.3477 3.5234 7.875 7.8711 7.875s7.875-3.5273 7.875-7.875v-43.98h14.781v43.98c0 4.3477 3.5234 7.875 7.8711 7.875 4.3477 0 7.875-3.5273 7.875-7.875v-43.98h14.809v43.98h-0.003906c0 4.3477 3.5273 7.875 7.875 7.875s7.8711-3.5273 7.8711-7.875v-73.375c0-4.3359-3.5117-7.8594-7.8477-7.8711zm-114.34-352.62c-0.003906-2.0195 0.82031-3.9531 2.2773-5.3516 1.457-1.3984 3.4219-2.1406 5.4375-2.0547 4 0.09375 7.168 3.4102 7.0859 7.4062v352.62h-14.801zm-91.66 368.37h198.12v5.7773h-198.12z"/>
</svg>