<?xml version="1.0" encoding="UTF-8"?>
<!-- The Best Svg Icon site in the world: iconSvg.co, Visit us! https://iconsvg.co -->
<svg fill="#000000" width="800px" height="800px" version="1.1" viewBox="144 144 512 512" xmlns="http://www.w3.org/2000/svg">
 <g>
  <path d="m203.51 601.52h392.97c2.7852 0 5.0391-2.2539 5.0391-5.0391v-41.863c0-2.7812-2.2539-5.0391-5.0391-5.0391h-8.3047v-169.56h8.3047c2.7852 0 5.0391-2.2539 5.0391-5.0391v-41.863c0-2.7812-2.2539-5.0391-5.0391-5.0391h-24.668l2.6094-23.539c1.0078-9.1133-1.7773-18.09-7.6367-24.633-2.5195-2.8125-5.457-4.9961-8.6602-6.5078 11.684-8.7188 18.602-24.188 24.887-38.309 1.4844-3.3398 2.9375-6.6055 4.4141-9.6719 0.85937-1.793 0.58594-3.9258-0.69922-5.4453-1.2891-1.5195-3.3438-2.1289-5.2539-1.5781-0.55078 0.16016-12.34 3.6562-28.68 12.668-2.7539-10.57-8.1289-22.859-18.582-31.449-1.8594-1.5312-4.5352-1.5312-6.3945 0-10.312 8.4766-15.664 20.562-18.441 30.941-17.664-9.3477-28.422-12.234-28.918-12.367-1.8984-0.48828-3.9219 0.14844-5.1719 1.6719-1.25 1.5195-1.5 3.6289-0.64062 5.3984 1.3789 2.8477 2.7461 5.8398 4.1367 8.8945 6.5273 14.293 13.707 29.984 25.656 39.016-3.3984 1.5156-6.5156 3.7812-9.1641 6.7422-5.8594 6.543-8.6406 15.52-7.6328 24.629l2.6055 23.539h-49.465l2.6055-23.539c1.0078-9.1133-1.7773-18.09-7.6367-24.633-2.5195-2.8125-5.457-4.9961-8.6602-6.5078 11.684-8.7188 18.602-24.184 24.887-38.305 1.4844-3.3438 2.9375-6.6094 4.4141-9.6758 0.85938-1.793 0.58594-3.9258-0.69922-5.4453-1.2891-1.5195-3.3438-2.1289-5.2539-1.5781-0.55078 0.16016-12.336 3.6562-28.68 12.668-2.75-10.566-8.1172-22.852-18.578-31.445-1.8594-1.5312-4.5352-1.5312-6.3945 0-10.312 8.4727-15.664 20.562-18.445 30.941-17.664-9.3438-28.418-12.234-28.91-12.367-1.918-0.48828-3.9219 0.14844-5.1758 1.6719-1.25 1.5195-1.5 3.625-0.64453 5.3984 1.3789 2.8398 2.7422 5.8281 4.1328 8.875 6.5273 14.297 13.707 29.996 25.664 39.035-3.3984 1.5156-6.5117 3.7812-9.1641 6.7383-5.8594 6.543-8.6445 15.523-7.6367 24.633l2.6055 23.539h-49.465l2.6055-23.535c1.0078-9.1133-1.7695-18.09-7.6328-24.633-2.5195-2.8164-5.4609-5-8.6641-6.5117 11.68-8.7188 18.598-24.18 24.883-38.297 1.4922-3.3438 2.9414-6.6133 4.4219-9.6836 0.85938-1.793 0.58984-3.9219-0.69922-5.4414-1.2891-1.5195-3.3438-2.1289-5.2539-1.5781-0.55078 0.16016-12.34 3.6562-28.68 12.668-2.7539-10.57-8.1289-22.859-18.582-31.449-1.8594-1.5312-4.5352-1.5312-6.3945 0-10.316 8.4766-15.672 20.562-18.445 30.941-17.664-9.3477-28.418-12.234-28.91-12.367-1.918-0.48828-3.9258 0.14844-5.1758 1.6719-1.25 1.5195-1.5 3.6289-0.64062 5.3984 1.3789 2.8477 2.7461 5.8398 4.1367 8.8945 6.5273 14.293 13.703 29.98 25.656 39.016-3.3984 1.5156-6.5156 3.7812-9.1641 6.7422-5.8594 6.543-8.6445 15.52-7.6367 24.633l2.6055 23.539-24.668-0.011719c-2.7852 0-5.0391 2.2539-5.0391 5.0391v41.863c0 2.7812 2.2539 5.0391 5.0391 5.0391h8.5625v169.56h-8.5625c-2.7852 0-5.0391 2.2539-5.0391 5.0391l0.003906 41.863c0 2.7812 2.25 5.0391 5.0352 5.0391zm285.34-369.58c5.4531 2.2852 12.754 5.6992 21.492 10.629 1.4219 0.80078 3.1406 0.86328 4.6055 0.17578 1.4766-0.6875 2.5234-2.043 2.8242-3.6445 1.6172-8.7109 5.2266-20.312 13.246-28.723 8.1758 8.5664 11.785 20.445 13.367 29.363 0.28906 1.6289 1.3633 3.0117 2.8672 3.6992 1.5 0.6875 3.2461 0.59375 4.6758-0.25781 8.2773-4.9453 15.684-8.5078 21.32-10.926-7.7734 17.453-15.984 35.117-32.113 37.758-0.10156 0.023437-10.289 2.1367-20.211-0.015625-15.719-3.4141-24.156-20.754-32.074-38.059zm13.934 54.695c3.2266-3.6055 7.4727-5.5898 11.957-5.5898h15.906c0.015625 0 0.035157 0.003906 0.054688 0.003906 0.046875 0 0.085937-0.003906 0.13281-0.003906h16.496c4.4766 0 8.7227 1.9844 11.949 5.5898 3.9492 4.4102 5.8203 10.535 5.125 16.801l-0.070313 0.62891h-66.602l-0.070313-0.62891c-0.69141-6.2656 1.1719-12.391 5.1211-16.801zm60.438 27.504-1.543 13.941h-61.289l-1.543-13.941zm-205.41-82.199c5.4531 2.2812 12.754 5.6992 21.492 10.629 1.4219 0.80078 3.1406 0.86328 4.6055 0.17578 1.4766-0.6875 2.5234-2.043 2.8242-3.6445 1.6172-8.7109 5.2266-20.316 13.25-28.727 8.1836 8.5703 11.777 20.449 13.363 29.363 0.28906 1.6328 1.3594 3.0117 2.8672 3.7031 1.4961 0.6875 3.2539 0.59375 4.6758-0.25781 8.2773-4.9453 15.684-8.5078 21.324-10.926-7.7734 17.453-15.984 35.117-32.117 37.762-0.10156 0.023438-10.289 2.1367-20.207-0.015625-15.719-3.418-24.156-20.754-32.078-38.062zm13.941 54.691c3.2266-3.6016 7.4688-5.5859 11.949-5.5859h15.906c0.015625 0 0.035156 0.003906 0.054687 0.003906 0.046876 0 0.085938-0.003906 0.13281-0.003906h16.496c4.4805 0 8.7227 1.9844 11.949 5.5859 3.9492 4.4141 5.8203 10.539 5.125 16.809l-0.070313 0.62891h-66.605l-0.070312-0.62891c-0.6875-6.2695 1.1797-12.398 5.1328-16.809zm60.434 27.508-1.543 13.941h-61.293l-1.543-13.941zm-205.4-82.199c5.4531 2.2812 12.746 5.6992 21.492 10.629 1.4219 0.80078 3.1406 0.86328 4.6055 0.17578 1.4766-0.6875 2.5234-2.0469 2.8242-3.6445 1.6133-8.707 5.2188-20.309 13.246-28.723 8.1758 8.5664 11.785 20.449 13.367 29.363 0.28906 1.6289 1.3633 3.0117 2.8672 3.6992 1.5 0.6875 3.2539 0.59375 4.6758-0.25781 8.2773-4.9453 15.684-8.5078 21.32-10.926-7.7734 17.453-15.984 35.117-32.117 37.762-0.097656 0.023438-10.289 2.1367-20.207-0.015625-15.723-3.418-24.16-20.758-32.074-38.062zm13.934 54.691c3.2266-3.6055 7.4727-5.5898 11.957-5.5898h15.902c0.015625 0 0.035156 0.003906 0.054687 0.003906 0.046876 0 0.085938-0.003906 0.13281-0.003906h16.496c4.4805 0 8.7266 1.9844 11.957 5.5898 3.9492 4.4102 5.8164 10.535 5.1211 16.801l-0.070313 0.62891h-66.605l-0.070312-0.62891c-0.69531-6.2617 1.1719-12.387 5.125-16.801zm60.434 27.508-1.543 13.941h-61.289l-1.543-13.941zm-92.602 55.805v-31.789h382.89v31.789zm369.55 10.078v169.56h-30.086v-169.56zm-290.34 84.164-25.453 69.094v-138.19zm-20.266-84.164h51.273l-25.637 69.586zm25.637 98.738 26.09 70.82h-52.18zm5.3711-14.574 29.449-79.938 29.449 79.938-29.449 79.938zm38.629-84.164h51.273l-25.637 69.586zm25.637 98.738 26.09 70.82h-52.18zm5.3711-14.574 31.008-84.164h0.96875l31.008 84.164-31.461 85.395h-0.0625zm42.715-84.164h51.273l-25.637 69.586zm25.637 98.738 26.09 70.82h-52.18zm5.3711-14.574 31.008-84.164h0.96875l31.008 84.164-31.461 85.395h-0.0625zm42.715-84.164h51.273l-25.637 69.586zm25.637 98.738 26.09 70.82h-52.184zm5.3672-14.574 22.355-60.676v121.36zm-263.35-84.164v169.56h-30.086v-169.56zm-43.684 179.63h382.89v31.789h-382.89z"/>
  <path d="m568.27 349.02h-10.426c-2.7852 0-5.0391 2.2539-5.0391 5.0391 0 2.7812 2.2539 5.0391 5.0391 5.0391h10.426c2.7852 0 5.0391-2.2539 5.0391-5.0391 0-2.7852-2.2539-5.0391-5.0391-5.0391z"/>
  <path d="m568.27 570.52h-10.426c-2.7852 0-5.0391 2.2539-5.0391 5.0391 0 2.7812 2.2539 5.0391 5.0391 5.0391h10.426c2.7852 0 5.0391-2.2539 5.0391-5.0391 0-2.7852-2.2539-5.0391-5.0391-5.0391z"/>
  <path d="m242.41 349.02h-10.426c-2.7852 0-5.0391 2.2539-5.0391 5.0391 0 2.7812 2.2539 5.0391 5.0391 5.0391h10.426c2.7852 0 5.0391-2.2539 5.0391-5.0391 0-2.7852-2.2539-5.0391-5.0391-5.0391z"/>
  <path d="m242.41 570.52h-10.426c-2.7852 0-5.0391 2.2539-5.0391 5.0391 0 2.7812 2.2539 5.0391 5.0391 5.0391h10.426c2.7852 0 5.0391-2.2539 5.0391-5.0391 0-2.7852-2.2539-5.0391-5.0391-5.0391z"/>
 </g>
</svg>