<?xml version="1.0" encoding="UTF-8"?>
<!-- The Best Svg Icon site in the world: iconSvg.co, Visit us! https://iconsvg.co -->
<svg fill="#000000" width="800px" height="800px" version="1.1" viewBox="144 144 512 512" xmlns="http://www.w3.org/2000/svg">
 <g>
  <path d="m226.81 289.79c-13.023 0-23.617 10.594-23.617 23.617s10.594 23.617 23.617 23.617 23.617-10.594 23.617-23.617-10.594-23.617-23.617-23.617zm0 31.488c-4.3398 0-7.8711-3.5312-7.8711-7.8711s3.5312-7.8711 7.8711-7.8711 7.8711 3.5312 7.8711 7.8711c0.003906 4.3398-3.5312 7.8711-7.8711 7.8711z"/>
  <path d="m234.69 384.25c-4.3477 0-7.8711 3.5234-7.8711 7.8711 0 4.3398-3.5312 7.8711-7.8711 7.8711-4.3398 0-7.8711-3.5312-7.8711-7.8711 0-4.3477-3.5234-7.8711-7.8711-7.8711s-7.8711 3.5234-7.8711 7.8711c0 13.023 10.594 23.617 23.617 23.617 13.023 0 23.617-10.594 23.617-23.617-0.007812-4.3477-3.5312-7.8711-7.8789-7.8711z"/>
  <path d="m297.66 415.74c-4.3477 0-7.8711 3.5234-7.8711 7.8711 0 4.3398-3.5312 7.8711-7.8711 7.8711s-7.8711-3.5312-7.8711-7.8711c0-4.3477-3.5234-7.8711-7.8711-7.8711-4.3477 0-7.8711 3.5234-7.8711 7.8711 0 13.023 10.594 23.617 23.617 23.617 13.023 0 23.617-10.594 23.617-23.617-0.007813-4.3477-3.5352-7.8711-7.8789-7.8711z"/>
  <path d="m556.72 269.15c-20.805 0-36.496 9.5352-36.496 22.188 0 12.645 15.691 22.184 36.496 22.184 20.805 0 36.496-9.5352 36.496-22.184 0-12.648-15.688-22.188-36.496-22.188zm0 28.625c-13.008 0-20.219-4.7539-20.77-6.3203 0.54688-1.8047 7.7578-6.5625 20.77-6.5625 13.012 0 20.223 4.7539 20.77 6.3203-0.55078 1.8086-7.7617 6.5625-20.77 6.5625z"/>
  <path d="m556.72 399.39c20.805 0 36.496-9.5352 36.496-22.188 0-12.645-15.691-22.184-36.496-22.184-20.805 0-36.496 9.5352-36.496 22.184 0 12.652 15.691 22.188 36.496 22.188zm0-28.625c13.008 0 20.219 4.7539 20.77 6.3203-0.54688 1.8047-7.7578 6.5625-20.77 6.5625-13.012 0-20.223-4.7539-20.77-6.3203 0.55469-1.8086 7.7617-6.5625 20.77-6.5625z"/>
  <path d="m636.16 296.09v-20.859c0-15.191-12.363-27.551-27.551-27.551h-102.89c-12.523 0-23.426 8.4961-26.531 20.691l-7.1406 28.699-1.418 0.8125-72.809-41.992c-9.207-44.422-47.988-76.305-93.785-76.305h-44.242c-52.914 0-95.961 43.047-95.961 95.961v211.05c0 4.3477 3.5234 7.8711 7.8711 7.8711h70.848v118.08c0 4.3477 3.5234 7.8711 7.8711 7.8711h62.977c4.3477 0 7.8711-3.5234 7.8711-7.8711l0.003906-118.08h70.848c4.3477 0 7.8711-3.5234 7.8711-7.8711v-75.195l71.699-41.352 7.5039 30.16c3.0938 12.156 14 20.652 26.523 20.652l102.88 0.003906c15.191 0 27.551-12.363 27.551-27.551l0.003906-20.863c0-12.93-8.7891-23.984-21.391-26.883l-49.5-11.297 49.516-11.297c12.582-2.8984 21.375-13.953 21.375-26.883zm-236.16 33.812 7.5859 4.3789-7.5859 4.3828zm23.305-4.7227-27.117-15.66c-0.046875-0.027344-0.078125-0.070313-0.125-0.09375l-104.08-60.082c25.953-8.0977 54.238-5.0938 78.18 8.7734l16.766 9.6836c0.023437 0.015625 0.050781 0.015625 0.074218 0.03125l67.852 39.129zm-117.77 279.5h-47.23l-0.003907-110.21h15.742v31.488c0 4.3477 3.5234 7.8711 7.8711 7.8711 4.3477 0 7.8711-3.5234 7.8711-7.8711v-31.488h15.742zm78.719-125.95h-204.67v-203.18c0-44.23 35.984-80.219 80.215-80.219h44.242c33.039 0 61.773 19.828 73.961 49.133-2.375-1.375-4.8633-2.4531-7.3086-3.6445-1.793-0.875-3.5352-1.9023-5.3633-2.6758-2.418-1.0234-4.9141-1.7539-7.3828-2.6055-1.9492-0.67188-3.8555-1.4922-5.832-2.0547-2.168-0.61719-4.3828-0.95703-6.5742-1.4414-2.3359-0.51562-4.6445-1.168-7.0039-1.5352-1.3359-0.20703-2.6914-0.21875-4.0352-0.37891-21.594-2.5742-43.785 0.91016-63.953 10.895-2.5977 1.2891-4.2812 3.9023-4.375 6.8047-0.085937 2.8984 1.4258 5.6172 3.9375 7.0703l114.14 65.918zm143.88-152.13c-3.5781 0.82031-6.1172 4-6.1172 7.6758 0 3.6719 2.5391 6.8555 6.1211 7.6758l83.117 18.969c5.3945 1.2422 9.1602 5.9844 9.1602 11.535v20.859c0 6.5117-5.2969 11.809-11.809 11.809h-102.88c-5.3164 0-9.9492-3.6133-11.254-8.7539l-10.086-40.344c-0.61328-2.3984-2.3164-4.3711-4.6055-5.3242-0.97266-0.40234-2-0.60156-3.0234-0.60156-1.3867 0-2.7695 0.36328-3.9961 1.0898l-72.758 42.043v-36.391l82.781-47.77c1.8633-1.0664 3.2148-2.8477 3.7305-4.9297l7.9453-31.922c1.3164-5.1758 5.9453-8.7891 11.262-8.7891l102.89-0.003906c6.5117 0 11.809 5.2969 11.809 11.809v20.859c0 5.5508-3.7695 10.297-9.1523 11.535z"/>
  <path d="m344.89 376.38c-13.023 0-23.617 10.594-23.617 23.617s10.594 23.617 23.617 23.617c13.023 0 23.617-10.594 23.617-23.617s-10.594-23.617-23.617-23.617zm0 31.488c-4.3398 0-7.8711-3.5312-7.8711-7.8711s3.5312-7.8711 7.8711-7.8711c4.3398 0 7.8711 3.5312 7.8711 7.8711s-3.5312 7.8711-7.8711 7.8711z"/>
  <path d="m470.85 322.46c-6.5117 0-11.809 5.2969-11.809 11.809s5.2969 11.809 11.809 11.809c6.5117 0 11.809-5.2969 11.809-11.809s-5.2969-11.809-11.809-11.809zm0 15.746c-2.1719 0-3.9375-1.7656-3.9375-3.9375s1.7656-3.9375 3.9375-3.9375 3.9375 1.7656 3.9375 3.9375c-0.003906 2.1719-1.7656 3.9375-3.9375 3.9375z"/>
 </g>
</svg>