<?xml version="1.0" encoding="UTF-8"?>
<!-- The Best Svg Icon site in the world: iconSvg.co, Visit us! https://iconsvg.co -->
<svg fill="#000000" width="800px" height="800px" version="1.1" viewBox="144 144 512 512" xmlns="http://www.w3.org/2000/svg">
 <path d="m600.59 199.86c-36.961-23.547-79.879-36.043-123.7-36.023h-108.38c-4.3477 0-7.875 3.5273-7.875 7.875v204.67h-70.848c-4.3477 0-7.8711 3.5234-7.8711 7.8711v31.488c0 2.0898 0.82812 4.0898 2.3047 5.5664 1.4766 1.4766 3.4805 2.3047 5.5664 2.3047h70.848v204.68c0 2.0859 0.83203 4.0898 2.3086 5.5664 1.4766 1.4727 3.4766 2.3047 5.5664 2.3047h39.359c2.0859 0 4.0898-0.83203 5.5664-2.3047 1.4766-1.4766 2.3047-3.4805 2.3047-5.5664v-386.89l28.914-4.6367c62.113-7.4141 125 4.75 179.86 34.801 2.4414 1.332 5.4023 1.2773 7.7891-0.14062 2.3906-1.418 3.8555-3.9922 3.8555-6.7695 0.070313-26.273-13.363-50.742-35.566-64.789zm-224.21-20.277h23.617v47.23h-23.617zm-78.719 228.29v-15.746h62.977v15.742zm78.719 212.54v-377.86h23.617v377.86zm103.91-401.47c-12.629 0.003906-25.246 0.75-37.785 2.2266l-26.766 4.2852v-45.871h61.148c40.832-0.015625 80.812 11.629 115.25 33.566 13.555 8.5703 23.176 22.152 26.762 37.785-43.164-21.078-90.574-32.02-138.61-31.992z"/>
</svg>