<?xml version="1.0" encoding="UTF-8"?>
<!-- The Best Svg Icon site in the world: iconSvg.co, Visit us! https://iconsvg.co -->
<svg fill="#000000" width="800px" height="800px" version="1.1" viewBox="144 144 512 512" xmlns="http://www.w3.org/2000/svg">
 <g>
  <path d="m555.06 315.27c-7.0078-5.4141-16.297-6.4375-24.199-2.582l-25.68 12.25c-1.1016 0.51953-2.0625 1.3086-2.8164 2.2656l-1.0234 1.3086-27.238-33.867v-40.434h9.1328c2.7227 0 5.2578-1.418 6.6914-3.7305 1.4336-2.3125 1.5742-5.2109 0.34766-7.6523l-17.004-34.008c-1.3398-2.6602-4.0625-4.3438-7.0391-4.3438h-136.03c-2.9766 0-5.7148 1.6836-7.0391 4.3438l-17.004 34.008c-1.2266 2.4414-1.1016 5.3242 0.34766 7.6523 1.4492 2.332 3.9688 3.7305 6.6914 3.7305h9.1328v40.414l-25.566 31.852c-0.61328-0.58203-1.1797-1.2109-1.9531-1.5742l-25.695-12.172c-7.8711-3.9219-17.414-2.9141-24.074 2.457-5.7812 4.3633-9.1016 10.992-9.1016 18.219 0 8.8164 5.1484 17.004 13.145 20.875l10.406 4.9766 28.828 37.141v154.13l-27.234 54.301c-1.0547 2.1094-1.1016 4.582-0.14062 6.7539 0.96094 2.1562 2.8516 3.7461 5.1328 4.3594 28.605 7.7305 78.012 12.344 132.14 12.344s103.53-4.6133 132.12-12.344c2.2812-0.61328 4.1719-2.2188 5.1328-4.3594 0.97656-2.1719 0.91406-4.6289-0.14062-6.7539l-27.223-54.301v-150.5c0.86719-0.50391 1.6367-1.1484 2.2656-1.9531l30.133-38.824 10.438-4.9922c7.9648-3.8555 13.113-12.059 13.113-20.859-0.015625-7.2266-3.3359-13.855-9.0039-18.137zm-250.99 237.14v-203.24c0.31641 0.0625 0.70703 0.09375 1.0234 0.15625 5.4648 0.96094 11.289 1.8125 17.383 2.582 1.2891 0.15625 2.5664 0.33203 3.8711 0.48828 6.1562 0.72266 12.562 1.3398 19.207 1.875 1.3555 0.10938 2.707 0.20312 4.0781 0.30078 6.9258 0.48828 14.059 0.89844 21.395 1.1797 0.99219 0.03125 2.0156 0.0625 3.0078 0.09375 7.8867 0.26953 15.934 0.42578 24.168 0.42578 8.0781 0 16.059-0.17188 23.93-0.44141 0.94531-0.03125 1.8906-0.046874 2.8164-0.078124 7.4453-0.28516 14.703-0.69141 21.789-1.2109 1.1797-0.078125 2.3477-0.15625 3.5117-0.25 6.957-0.53516 13.68-1.1953 20.121-1.9375 0.97656-0.10938 1.9219-0.23438 2.8828-0.36328 6.5352-0.80469 12.77-1.6992 18.562-2.707 0.15625-0.03125 0.36328-0.046876 0.51953-0.078126v205.07c-50.254 9.2891-138.04 9.2891-188.3 0v-1.8594zm30.984-332.2h126.3l9.1328 18.262h-144.56zm1.3359 82.008c1.0859-1.3867 1.668-3.1016 1.668-4.8633l0.003906-43.141h120.29v43.141c0 1.7461 0.59766 3.4805 1.668 4.8633l3.0078 3.7305c0.0625 0.078125 0.0625 0.17188 0.125 0.25l22.625 28.086c-0.44141 0.078125-0.91406 0.14062-1.3555 0.20312-48.383 7.7148-125.31 7.6523-172.93-0.0625-0.25-0.046875-0.50391-0.078125-0.75391-0.10938zm-65.602 45.91c-0.75391-0.97656-1.7148-1.7305-2.8164-2.2812l-12.043-5.7617c-3.1367-1.4961-4.2383-4.5508-4.2383-6.6758 0-1.6055 0.48828-3.8555 3.0078-5.7617 1.2109-0.99219 2.7383-1.4961 4.2812-1.4961 1.0859 0 2.1875 0.25 3.2109 0.76953l24.168 11.461 1.543 1.9688c0.015625 0.66016 0.17188 1.3242 0.41016 1.9688v28.418zm127.43 264.42c-47.199 0-90.434-3.5273-118.62-9.5234l17.113-34.133c1.5586 0.31641 3.2578 0.59766 4.8945 0.89844 1.4805 0.26953 2.8984 0.55078 4.4258 0.80469 2.0938 0.34766 4.3125 0.67578 6.5039 1.0078 1.6211 0.23438 3.1797 0.48828 4.8477 0.72266 2.2812 0.31641 4.6602 0.58203 7.0078 0.86719 1.6992 0.20312 3.3711 0.42578 5.1172 0.61328 2.4258 0.26953 4.9297 0.48828 7.4141 0.72266 1.8125 0.17187 3.5742 0.36328 5.4141 0.51953 2.5508 0.21875 5.1641 0.39453 7.7773 0.56641 1.875 0.125 3.6992 0.28516 5.6055 0.41016 2.7383 0.17188 5.543 0.30078 8.3438 0.42578 1.8438 0.09375 3.6523 0.20313 5.5117 0.28516 3.0703 0.125 6.2031 0.20312 9.3359 0.28516 1.6211 0.046875 3.2266 0.10938 4.8633 0.14062 4.7695 0.09375 9.5898 0.14062 14.438 0.14062s9.6523-0.046875 14.438-0.14062c1.6367-0.03125 3.2266-0.09375 4.8477-0.14062 3.1328-0.078125 6.2656-0.15625 9.3516-0.28516 1.8594-0.078125 3.6523-0.1875 5.4961-0.28516 2.8008-0.14062 5.6055-0.26953 8.3594-0.42578 1.9062-0.10938 3.7305-0.26953 5.6055-0.41016 2.6133-0.1875 5.2266-0.36328 7.7773-0.56641 1.8438-0.15625 3.6055-0.34766 5.4141-0.51953 2.4883-0.23438 5.0078-0.45703 7.4141-0.72266 1.7461-0.1875 3.4023-0.41016 5.1016-0.61328 2.3633-0.28516 4.7539-0.56641 7.0391-0.86719 1.6523-0.21875 3.2109-0.47266 4.832-0.70703 2.2031-0.33203 4.4102-0.64453 6.5195-1.0078 1.5273-0.25 2.9609-0.53516 4.4258-0.80469 1.6211-0.30078 3.3359-0.58203 4.8945-0.89844l17.098 34.133c-28.191 5.9805-71.422 9.5078-118.61 9.5078zm145.89-272.48-12.074 5.7773c-1.1016 0.53516-2.0625 1.3086-2.8164 2.2812l-21.098 27.191v-29.852l5.5273-7.1016 24.043-11.477c2.5352-1.2734 5.4336-0.92969 7.8242 0.91406 2.3125 1.7461 2.8008 4.0156 2.8008 5.6055-0.003906 2.125-1.1055 5.1797-4.207 6.6602z"/>
  <path d="m431.6 458.88c0-15.367-22.09-55.48-26.512-63.371-2.7852-4.9453-10.941-4.9453-13.73 0-4.4258 7.8867-26.512 48.02-26.512 63.371 0 18.406 14.973 33.379 33.379 33.379 18.402-0.003907 33.375-14.977 33.375-33.379zm-51.012 0c0-6.5352 8.8789-26.055 17.633-42.934 8.7539 16.863 17.633 36.398 17.633 42.934 0 9.7148-7.9023 17.633-17.633 17.633s-17.633-7.9219-17.633-17.633z"/>
 </g>
</svg>