<?xml version="1.0" encoding="UTF-8"?>
<!-- The Best Svg Icon site in the world: iconSvg.co, Visit us! https://iconsvg.co -->
<svg fill="#000000" width="800px" height="800px" version="1.1" viewBox="144 144 512 512" xmlns="http://www.w3.org/2000/svg">
 <g>
  <path d="m203.51 600.92h168.57c42.48 0 64.441-16.246 75.344-29.715l0.003906 24.676c0 2.7812 2.2578 5.0391 5.0391 5.0391h144.02c2.7852 0 5.0391-2.2578 5.0391-5.0391v-46.184c0-2.7812-2.2539-5.0391-5.0391-5.0391h-0.97656l-0.011718-26.062c0.1875-30.605-3.3516-65.051-6.3516-88.559-3.9336-30.797-5.9336-62.125-5.9453-92.766l4.7344-69.41c7.7031-1.3203 13.59-8.0039 13.59-16.07v-37.551c0-9.0234-7.3398-16.367-16.363-16.367h-169.33c-9.0234 0-16.363 7.3438-16.363 16.367v37.551c0 7.8984 5.6211 14.504 13.074 16.031 0.023438 2.7773 0.050782 5.8555 0.050782 6.3984 0 49.863-20.027 127.13-64.539 142.8-20.391 7.1797-41.586 11.285-63 12.203-79.246 3.4062-80.16 88.484-80.16 89.34v26.094h-1.3789c-2.7852 0-5.0391 2.2578-5.0391 5.0391v46.184c0.003906 2.7852 2.2539 5.0352 5.0391 5.0352zm168.57-10.074h-163.53v-36.109h237.5c-4.7656 10.117-22.078 36.109-73.969 36.109zm219.37 0h-133.94l-0.003906-36.109h133.95zm-181.91-339.05v-37.551c0-3.4648 2.8203-6.293 6.2891-6.293h169.33c3.4648 0 6.2891 2.8203 6.2891 6.293v37.551c0 3.4648-2.8203 6.2891-6.2891 6.2891h-169.33c-3.4727 0-6.2891-2.8242-6.2891-6.2891zm-194.57 266.79c0.003906-3.1133 0.97266-76.293 70.52-79.281 22.41-0.96094 44.594-5.2617 65.914-12.766 51.918-18.277 71.27-103.12 71.27-152.31 0-0.52344-0.023438-3.375-0.050781-6.0664h155.2l-4.6797 68.785c0 23.852 1.1797 47.898 3.4883 71.758-1.4141 0.12109-2.8398 0.20703-4.2461 0.37109-2.7617 0.31641-4.7422 2.8203-4.4219 5.582 0.29687 2.5703 2.4727 4.457 4.9961 4.457 0.19141 0 0.38672-0.011719 0.58594-0.035156 1.3906-0.16016 2.7969-0.25 4.2031-0.36719 0.46484 4.207 0.87109 8.4297 1.4102 12.617 2.9688 23.199 6.457 57.168 6.2734 87.25l0.011718 26.094h-128c0.023438-0.74609 0.019531-1.5 0.058594-2.2422 0.15625-2.7812-1.9766-5.1523-4.75-5.3086-2.7305-0.17578-5.1484 1.9766-5.3047 4.75-0.050781 0.92578-0.046875 1.8633-0.074218 2.7969h-232.4z"/>
  <path d="m470.11 481.99c0.82812 0.51562 1.75 0.75391 2.6484 0.75391 1.6875 0 3.332-0.83984 4.2891-2.3828 2.293-3.6992 4.8047-7.3242 7.4727-10.785 1.6992-2.207 1.2891-5.3672-0.91797-7.0703-2.207-1.6992-5.375-1.2852-7.0625 0.91797-2.8711 3.7266-5.582 7.6445-8.0547 11.621-1.4648 2.3789-0.73828 5.4805 1.625 6.9453z"/>
  <path d="m499.2 451.72c1.1758 0 2.3594-0.40625 3.3086-1.2383 3.2812-2.8555 6.75-5.5938 10.316-8.1211 2.2734-1.6055 2.8047-4.75 1.1953-7.0234-1.6016-2.2656-4.7578-2.8125-7.0234-1.1953-3.8438 2.7266-7.582 5.6641-11.113 8.7422-2.0977 1.8281-2.3164 5.0117-0.48828 7.1094 1.0039 1.1367 2.4062 1.7266 3.8047 1.7266z"/>
  <path d="m455.4 520.04c0.42969 0.10938 0.85156 0.16797 1.2734 0.16797 2.2383 0 4.2812-1.5 4.8711-3.7734 1.0977-4.2227 2.4219-8.4297 3.9414-12.508 0.96875-2.6094-0.35938-5.5078-2.9688-6.4805-2.6211-0.96094-5.5156 0.35938-6.4805 2.9688-1.6328 4.3984-3.0586 8.9258-4.2461 13.477-0.69141 2.6992 0.91797 5.4492 3.6094 6.1484z"/>
  <path d="m533.61 429.82c0.67969 0 1.3711-0.14062 2.0312-0.43359 3.9961-1.7695 8.1172-3.3516 12.273-4.7109 2.6406-0.86328 4.0859-3.707 3.2188-6.3516-0.86328-2.6406-3.6836-4.0859-6.3594-3.2188-4.4648 1.4609-8.9141 3.1641-13.203 5.0664-2.543 1.1289-3.6914 4.1016-2.5703 6.6445 0.82812 1.8867 2.6719 3.0039 4.6094 3.0039z"/>
 </g>
</svg>