<?xml version="1.0" encoding="UTF-8"?>
<!-- The Best Svg Icon site in the world: iconSvg.co, Visit us! https://iconsvg.co -->
<svg fill="#000000" width="800px" height="800px" version="1.1" viewBox="144 144 512 512" xmlns="http://www.w3.org/2000/svg">
 <path d="m614.14 256.8c-4.4648 10.238-12.609 15.707-22.832 20.262l-0.28125 0.125c-5.9141 2.6406-12.258 3.9648-18.652 3.9648h-83.09l-11.16-11.16-156.25 0.003906-11.16 11.16h-85.566c-5.5273 0-10.984-0.17578-16.047-2.3945-10.504-4.6602-18.828-14.559-23.398-25.027-5.5781-12.766-12.414-28.371-12.414-28.371v53.934c0 32.379 26.285 58.645 58.68 58.594l78.746-0.035156-66.578 28.215 21.961 13.18c8.8008 5.2812 18.883 8.0742 29.156 8.0742h12.645v10.574c0 6.9766 1.8945 13.852 5.4922 19.84l15.766 26.27 14.172 63.762v7.082l-2.3945 5.9688c-6.6602 16.668 0.52734 35.656 16.559 43.715 13.371 6.7305 27.953 10.098 42.512 10.098s29.137-3.3672 42.508-10.098c11.992-6.0195 19.039-18.172 19.039-30.887 0-4.2891-0.79688-8.625-2.4805-12.82l-2.3945-5.9688v-7.082l14.168-63.762 15.766-26.27c3.5977-5.9844 5.4922-12.855 5.4922-19.84v-10.574h12.645c10.273 0 20.348-2.7969 29.156-8.0742l21.961-13.18-66.578-28.164 78.84-0.003907c32.359 0 58.594-26.234 58.594-58.594l-0.003906-53.953zm-266.16 164.31c-8.2383 0-14.934-6.6953-14.934-14.949v-18.547l9.9922 10.039c-1.7188 1.7734-2.7617 4.1797-2.7617 6.8359 0 5.4727 4.4453 9.9219 9.9219 9.9219 2.6211 0 5.0117-1.043 6.8008-2.7461l9.3867 9.4414c-0.003907 0.003907-18.406 0.003907-18.406 0.003907zm30.867 122.21h-11.426c-2.9414 0-5.3164-2.3945-5.3164-5.3164v-5.8281c0-1.3281 1.3672-2.2461 2.6055-1.7383l10.449 4.3594c2.2305 0.9375 3.6836 3.1172 3.6836 5.543v2.9844zm59.27-5.3164c0 2.9219-2.3711 5.3164-5.3164 5.3164h-11.426v-2.9727c0-2.4297 1.4492-4.6055 3.6836-5.543l10.449-4.3594c1.2383-0.51562 2.6055 0.40625 2.6055 1.7383v5.8203zm28.922-131.84c0 8.2539-6.6758 14.949-14.934 14.949l-18.402-0.003906 9.3867-9.4414c1.7891 1.7188 4.1602 2.7461 6.8008 2.7461 5.4727 0 9.8984-4.4453 9.8984-9.9219 0-2.6562-1.043-5.0469-2.7617-6.8359l10.004-10.039v18.547zm67.945 130.65h-55.34v-10.078h55.34c6.293 0 11.418-5.125 11.418-11.422s-5.125-11.422-11.418-11.422h-7.4766v-10.078h7.4766c11.855 0 21.492 9.6445 21.492 21.496 0 11.859-9.6367 21.504-21.492 21.504zm16.137 69.105h-0.94531v-10.078h0.94531c9.5508 0 17.32-7.7695 17.32-17.32s-7.7695-17.312-17.32-17.312h-46.918v-10.078h46.918c15.105 0 27.398 12.289 27.398 27.398 0 15.109-12.293 27.391-27.398 27.391zm75.27-76.027c0 20.812-16.93 37.742-37.742 37.742v-10.078c15.254 0 27.664-12.41 27.664-27.664s-12.41-27.664-27.664-27.664v-10.078c7.5273 0 13.648-6.1211 13.648-13.648 0-7.5273-6.1211-13.648-13.648-13.648-7.5273 0-13.648 6.1211-13.648 13.648h-10.078c0-13.082 10.641-23.723 23.723-23.723s23.723 10.641 23.723 23.723c0 6.8477-2.957 12.977-7.6133 17.312 12.77 6.0586 21.637 19.031 21.637 34.078zm-305.89 6.9219h-55.34c-11.855 0-21.496-9.6445-21.496-21.496 0-11.855 9.6445-21.496 21.496-21.496h7.4727v10.078h-7.4727c-6.2969 0-11.422 5.125-11.422 11.422s5.125 11.422 11.422 11.422l55.332-0.007812zm-70.535 69.105h-0.94531c-15.105 0-27.398-12.289-27.398-27.398 0-15.105 12.293-27.391 27.398-27.391h46.918v10.078h-46.918c-9.5508 0-17.32 7.7695-17.32 17.32 0 9.5508 7.7695 17.32 17.32 17.32h0.94531zm-14.742-127.42h-10.078c0-7.5273-6.1211-13.648-13.648-13.648s-13.648 6.1211-13.648 13.648c0 7.5273 6.1211 13.648 13.648 13.648v10.078c-15.254 0-27.664 12.41-27.664 27.664s12.41 27.664 27.664 27.664v10.078c-20.812 0-37.742-16.93-37.742-37.742 0-15.043 8.8672-28.023 21.629-34.078-4.6562-4.332-7.6133-10.465-7.6133-17.312 0-13.082 10.641-23.723 23.723-23.723 13.09 0 23.73 10.641 23.73 23.723z"/>
</svg>