<?xml version="1.0" encoding="UTF-8"?>
<!-- The Best Svg Icon site in the world: iconSvg.co, Visit us! https://iconsvg.co -->
<svg fill="#000000" width="800px" height="800px" version="1.1" viewBox="144 144 512 512" xmlns="http://www.w3.org/2000/svg">
 <g>
  <path d="m529.09 488.55-3.2539-0.75781c-2.6992-0.60547-5.4102 1.0664-6.043 3.7773-0.625 2.7109 1.0664 5.4141 3.7773 6.043l3.207 0.74609c0.39062 0.089844 0.77344 0.13281 1.1602 0.13281 2.2852 0 4.3555-1.5664 4.8984-3.8828 0.64453-2.707-1.0352-5.4219-3.7461-6.0586z"/>
  <path d="m509.96 484.39c-0.007812-0.003906-0.33984-0.066406-0.34766-0.070312-2.7539-0.55078-5.3789 1.2461-5.9102 3.9766-0.53516 2.7305 1.2461 5.3789 3.9766 5.9102l0.64062 0.12891c0.32031 0.0625 0.64062 0.09375 0.95312 0.09375 2.3281 0 4.3164-1.6875 4.793-4.0898 0.54297-2.7227-1.3828-5.4023-4.1055-5.9492z"/>
  <path d="m597.42 481.31c-18.555-3.5234-38.32-6.2305-58.746-8.0469-2.7812-0.25-5.2188 1.8047-5.4648 4.5742-0.24609 2.7695 1.8008 5.2188 4.5742 5.4648 20.09 1.7852 39.523 4.4492 57.758 7.9102 0.31641 0.0625 0.63281 0.089843 0.94531 0.089843 2.375 0 4.4883-1.6836 4.9453-4.0977 0.51953-2.7383-1.2773-5.375-4.0117-5.8945z"/>
  <path d="m522.72 477.03c0.035156-0.63281-0.078125-1.2383-0.25781-1.8086 4.7852-6.1016 7.4883-13.656 7.4883-21.504 0-19.23-15.648-34.879-34.879-34.879-2.6836 0-5.3086 0.33203-7.8672 0.91797l-11.312-73.418c2.7305-0.058594 4.9336-2.2734 4.9336-5.0156 0-23.598-19.199-42.797-42.797-42.797s-42.797 19.199-42.797 42.797c0 2.7383 2.1914 4.9414 4.9102 5.0117l-3.8594 25.039-58.434-49.414c-1.9375-1.6367-4.7891-1.582-6.6562 0.13281l-62.051 56.879c-1.5312 1.4062-2.043 3.6055-1.293 5.5391 0.75391 1.9375 2.6172 3.2109 4.6953 3.2109h9.4922v26.836c-0.48828-0.019532-0.96484-0.066406-1.457-0.066406-22.105 0-40.09 17.984-40.09 40.09 0 8.4062 2.6758 16.535 7.4922 23.281-27.906 3.1914-45.203 6.3789-45.395 6.4141-2.7344 0.50781-4.5391 3.1367-4.0312 5.8711 0.44922 2.4258 2.5664 4.1172 4.9453 4.1172 0.30469 0 0.61328-0.027344 0.92578-0.085937 0.21094-0.035157 21.215-3.9102 54.426-7.375 2.7656-0.28906 4.7734-2.7656 4.4883-5.5352-0.16406-1.5469-1.0273-2.7969-2.2227-3.6016-0.1875-0.24219-0.30859-0.51953-0.54688-0.73438-6.3594-5.6953-10.004-13.844-10.004-22.355 0-16.547 13.465-30.012 30.012-30.012 0.50391 0 0.96094 0.10547 1.457 0.12891v49.859c-1.8945 0.15234-3.832 0.30078-5.6641 0.46094-2.7734 0.23828-4.8281 2.6797-4.5859 5.4531 0.23828 2.7695 2.6602 4.8398 5.4531 4.5859 13.348-1.1484 28.359-2.1758 44.578-2.8672-3.4297 0.52344-6.6641 1.0352-9.6484 1.5234-2.7461 0.44922-4.6094 3.0391-4.1602 5.7852 0.40234 2.4727 2.543 4.2266 4.9648 4.2266 0.26953 0 0.54297-0.023437 0.81641-0.066406 21.988-3.5938 56.617-8.4258 97.086-11.113 26.758 1.4297 54.5 4.1953 82.102 8.9453 0.28906 0.050781 0.57813 0.074219 0.85938 0.074219 2.4102 0 4.5391-1.7305 4.9609-4.1836 0.47266-2.7422-1.3672-5.3477-4.1094-5.8203-1.5977-0.27344-3.1992-0.50391-4.7969-0.76562h0.80078c0.14844 0 0.27344-0.070313 0.41797-0.085938 8.7344 0.21094 17.574 0.55859 26.285 1.0625 0.097657 0.003907 0.19531 0.007813 0.29297 0.007813 2.6523 0.003906 4.875-2.0664 5.0312-4.7461zm-27.652-48.117c13.676 0 24.805 11.125 24.805 24.805 0 6.7109-2.8086 13.098-7.625 17.762-7.1406-0.35547-14.316-0.69531-21.43-0.86328h-0.03125-0.007812l-9.7695-0.15625c-7.1523-0.10938-14.707-0.097657-23.43 0.054687v-23.195c0-4.7461-1.9141-9.3789-5.2539-12.719-3.3867-3.3828-7.9023-5.2461-12.711-5.2461-9.9062 0-17.965 8.0586-17.965 17.965v23.398h-30.457l1.0703-6.9609 18.062-117.39h55.371l16.871 109.49c0.42188 2.7461 3 4.6211 5.75 4.2109 2.7461-0.42578 4.6328-3 4.2109-5.75l-3.7734-24.484c2.043-0.54297 4.1367-0.91406 6.3125-0.91406zm-202.95-41.188h90.129v74.879l-1.2461 8.1172h-25.852v-23.398c0-4.7422-1.9141-9.3789-5.293-12.754-3.4336-3.3594-7.9375-5.2109-12.676-5.2109-9.9062 0-17.965 8.0586-17.965 17.965v23.398h-27.098zm101.65 0-1.4453 9.3867v-9.3867zm53.734 82.996h-15.777v-23.398c0-4.3477 3.5391-7.8906 7.8906-7.8906 2.0898 0 4.1289 0.83984 5.5898 2.2969 1.4609 1.4609 2.2969 3.5 2.2969 5.5898zm-102.43 0h-15.777v-23.398c0-4.3477 3.5391-7.8906 7.8906-7.8906 2.0898 0 4.0898 0.82812 5.5898 2.2969 1.4609 1.4609 2.3008 3.5 2.3008 5.5898zm92.949-162.12c16.328 0 29.902 12.023 32.336 27.684h-64.672c2.4336-15.66 16.008-27.684 32.336-27.684zm-103.29 23.918 53.367 45.129h-102.6z"/>
  <path d="m298.5 486.08-1.9297 0.34766c-2.7344 0.5-4.5469 3.125-4.043 5.8633 0.44531 2.4297 2.5625 4.1289 4.9492 4.1289 0.30078 0 0.60938-0.027344 0.91406-0.082031l1.9102-0.34375c2.7383-0.49609 4.5547-3.1211 4.0547-5.8555-0.49609-2.7422-3.1172-4.543-5.8555-4.0586z"/>
  <path d="m280.97 489.41c-6.4336 1.3047-9.9219 2.1172-9.9219 2.1172-2.707 0.62891-4.3945 3.3398-3.7656 6.0508 0.54297 2.3242 2.6133 3.8984 4.9023 3.8984 0.37891 0 0.76172-0.042968 1.1445-0.12891 0.042969-0.011718 3.4258-0.79297 9.6445-2.0547 2.7266-0.55469 4.4883-3.2109 3.9375-5.9375-0.55469-2.7383-3.2344-4.5117-5.9414-3.9453z"/>
 </g>
</svg>