<?xml version="1.0" encoding="UTF-8"?>
<!-- The Best Svg Icon site in the world: iconSvg.co, Visit us! https://iconsvg.co -->
<svg fill="#000000" width="800px" height="800px" version="1.1" viewBox="144 144 512 512" xmlns="http://www.w3.org/2000/svg">
 <path d="m500.79 331.5c0-12.738-4.9844-24.715-13.762-33.422-1.1992-1.3984-121.59-139.23-277.02-88.133-1.4805 0.48828-2.6523 1.6328-3.1719 3.1016-0.5 1.4102-12.207 35.133-7.0586 86.047 4.7227 46.773 25.309 117.41 96.52 188.25 9.332 9.2891 21.59 13.93 33.852 13.93 12.254 0 24.52-4.6445 33.852-13.93l43.41-43.191 45.035 45.043-1.0859 1.0859c-1.8945 1.8945-1.9727 4.9414-0.18359 6.9336l83.598 92.844c7.3789 7.3867 17.199 11.457 27.648 11.457 10.445 0 20.266-4.0703 27.652-11.457 15.246-15.254 15.246-40.062-0.19141-55.496l-92.637-83.438c-1.9883-1.7969-5.043-1.7109-6.9336 0.18359l-1.0859 1.0859-44.934-44.945 42.457-42.242c9.0547-9.0039 14.039-20.98 14.039-33.711zm-6.7305 130.32 88.891 80.051c11.316 11.32 11.316 29.746 0 41.066-5.4883 5.4883-12.773 8.5078-20.527 8.5078-7.7578 0-15.047-3.0195-20.348-8.3164l-80.215-89.102zm-34.496 20.254-98.715-98.73c-6.2148-6.2188-6.2148-16.336 0-22.555 6.0156-6.0234 16.52-6.0234 22.547 0l98.711 98.734zm-22.391-81.746-46.652-46.664c-4.9102-4.9141-11.445-7.625-18.395-7.625-6.9531 0-13.484 2.7109-18.402 7.625-10.141 10.145-10.141 26.656 0 36.801l46.555 46.566-43.391 43.172c-14.75 14.672-38.738 14.672-53.492 0-122.16-121.55-93.043-243.31-87.781-261.48 147.74-46.719 262.61 84.574 264.03 86.203 7.1328 7.0977 11.066 16.535 11.066 26.574 0 10.031-3.9297 19.469-11.066 26.566z"/>
</svg>