<?xml version="1.0" encoding="UTF-8"?>
<!-- The Best Svg Icon site in the world: iconSvg.co, Visit us! https://iconsvg.co -->
<svg fill="#000000" width="800px" height="800px" version="1.1" viewBox="144 144 512 512" xmlns="http://www.w3.org/2000/svg">
 <path d="m400 402.66c-10.902 0-19.125-5.4609-19.125-12.703 0-2.7852 2.2539-5.0391 5.0391-5.0391 2.7812 0 5.0352 2.2539 5.0391 5.0352v0.003906c0.33203 0.57422 3.5859 2.6289 9.0469 2.6289 5.0508 0 8.1055-1.7188 8.8477-2.6289 0.0625-0.074219 0.21484-0.17578 0.24219-0.23828 0-2.7812 2.2383-4.9141 5.0195-4.9141 2.7852 0 5.0195 2.3711 5.0195 5.1562 0 7.2383-8.2227 12.699-19.129 12.699zm-31.191-59.809c-5.1953 0-9.1133 4.5859-9.1133 10.668s3.9219 10.672 9.1133 10.672c5.1953 0 9.1094-4.5859 9.1094-10.672 0.003906-6.082-3.9141-10.668-9.1094-10.668zm62.379 21.336c5.1953 0 9.1172-4.5859 9.1172-10.672 0-6.082-3.9219-10.668-9.1172-10.668s-9.1094 4.5859-9.1094 10.668c0 6.0859 3.918 10.672 9.1094 10.672zm41.828 87.918c32.309 31.047 53.16 84.82 55.105 144.05 0.089844 2.707-0.90625 5.2734-2.793 7.2227-1.875 1.9375-4.4883 3.0469-7.1719 3.0469h-33.637c-1.832 1.6289-4.1758 2.5898-6.6562 2.5898h-155.73c-2.4766 0-4.8242-0.96094-6.6602-2.5898h-33.633c-2.6875 0-5.3008-1.1133-7.1719-3.0469-1.8906-1.9531-2.8828-4.5156-2.793-7.2227 1.9531-59.223 22.801-113 55.105-144.05v-1.418c0-5.5547 4.5195-10.078 10.078-10.078h24.242c2.8867 0 5.4727 1.2344 7.3125 3.1836v-12.551c-2.8008-1.6992-5.5-3.6172-8.0977-5.7148h-33.262c-10.453 0-19.172-7.9102-19.844-18.008l-2.3828-35.961c-0.34375-0.75-0.72656-1.4688-1.0195-2.2578-2.4766-6.6836-2.5234-13.758-0.44922-19.926l-2.6836-40.492c0-1.7305 0.16797-3.4219 0.28125-5.125-19.449-7.0781-32.074-16.73-32.074-28.789 0-15.906 21.969-27.629 52.613-34.773 11.617-28.742 42.559-49.207 78.301-49.207s66.684 20.465 78.312 49.219c30.641 7.1406 52.609 18.863 52.609 34.77 0 12.051-12.617 21.699-32.047 28.777 0.10156 1.5977 0.26562 3.1797 0.26562 4.8008l-2.7031 40.812c2.0781 6.1719 2.0273 13.25-0.44531 19.941-0.29297 0.79297-0.67578 1.5156-1.0234 2.2695l-2.3789 35.949c-0.66406 10.098-9.3828 18.008-19.844 18.008h-33.258c-2.6016 2.0977-5.3008 4.0156-8.1016 5.7188v12.547c1.8398-1.9492 4.4258-3.1836 7.3125-3.1836h24.246c5.5547 0 10.078 4.5234 10.078 10.078zm-34.32 44.086h24.191c0.019531 0 0.039062 0.003906 0.0625 0.003906l-0.007813-45.508h-24.246zm-67.316 0h57.238v-35.988c-18.98 4.9414-38.266 4.9414-57.238 0zm112.64-111.8c-3.875 2.4766-8.1797 3.9141-12.512 3.9141-1.3398 0-2.6719-0.17188-3.9961-0.44141-4.5156 10.156-10.43 19.602-17.496 27.594h22.73c5.1719 0 9.4727-3.7734 9.7852-8.5938zm-6.668-39.945c-0.16797 11.234-2.2773 22.754-6.0391 33.742 6.0195 0.17188 12.398-4.7383 15.227-12.379v-0.003906c1.8984-5.1328 1.8555-10.531-0.12891-14.812-0.94531-2.0508-2.7852-4.7539-6.1602-5.9844-0.9375-0.34375-1.9141-0.50781-2.8984-0.5625zm11.648-37.473c-12.418 3.6094-26.805 6.3477-42.051 8.1836 6.3711 1.1445 12.551 1.9375 18.195 2.2852 5.4805 0.33984 9.9492 4.3477 10.863 9.75 0.41016 2.3945 0.69922 4.7812 0.92969 7.1602 2.2812 0.007813 4.5586 0.38672 6.7734 1.1953 1.207 0.44141 2.3477 1.0195 3.4375 1.6758l1.9219-28.996c0-0.42578-0.0625-0.83594-0.070312-1.2539zm-162-46.113c-0.054688 0.69141 0.30078 1.4219 0.91016 1.8633 9.6719 7.0547 35.715 14.168 72.09 14.168 36.379 0 62.414-7.1133 72.09-14.164 0.62109-0.45312 0.96875-1.168 0.91406-1.8672-2.625-33.531-34.688-59.797-73.004-59.797-38.312 0-70.379 26.266-73 59.797zm73 46.973c69.164 0 120.84-17.344 120.84-32.855 0-8.293-14.785-17.109-39.105-23.52 0.60156 2.8242 1.082 5.6875 1.3125 8.6172 0.32422 4.168-1.6055 8.3086-5.0312 10.801-13.41 9.7695-44.039 16.09-78.02 16.09s-64.605-6.3203-78.023-16.098c-3.4258-2.4961-5.3516-6.6328-5.0234-10.797 0.23047-2.9297 0.71094-5.7891 1.3086-8.6133-24.324 6.4102-39.109 15.227-39.109 23.52 0 15.512 51.68 32.855 120.85 32.855zm-88.973-0.85156c-0.011719 0.52734-0.089844 1.043-0.089844 1.5742l1.9062 28.668c1.0938-0.66016 2.2383-1.2383 3.4453-1.6797 2.2031-0.80469 4.4766-1.1836 6.75-1.1914 0.28906-3.0156 0.71875-6.0625 1.3008-9.1211 0.73047-3.8281 3.4219-7.0117 7.1992-8.5195 2.75-1.0977 5.2422-2.2891 7.6289-3.5273-10.07-1.6523-19.578-3.7188-28.141-6.2031zm8.7148 38.027c-3.375 1.2305-5.2109 3.9336-6.1641 5.9844-1.9766 4.2812-2.0234 9.6797-0.12109 14.812 2.832 7.6406 9.1992 12.562 15.227 12.383-3.7578-10.988-5.8711-22.508-6.0391-33.746-0.98047 0.058594-1.957 0.22266-2.9023 0.56641zm30.246 70.449c-7.0703-7.9922-12.984-17.438-17.5-27.598-1.3242 0.26953-2.6562 0.44141-3.9961 0.44141-4.332 0-8.6406-1.4414-12.52-3.918l1.4922 22.473c0.32031 4.8203 4.6172 8.6016 9.7852 8.6016zm50.012 14.855c37.906 0 67.309-46.938 67.309-87.316 0-4.5977-0.41406-9.3438-1.2305-14.113-0.13672-0.79297-0.74609-1.3398-1.5547-1.3867-14.758-0.90625-32.453-4.4336-48.672-9.9062-5.2852 0.20312-10.582 0.31641-15.852 0.31641-15.199 0-30.621-0.87109-45.297-2.5664-5.582 4.1211-11.812 7.6914-19.43 10.727-0.53906 0.21484-0.95313 0.63672-1.0312 1.0469-1.0273 5.3906-1.5508 10.734-1.5508 15.879 0 40.383 29.402 87.32 67.309 87.32zm-21.309 5.9414v15.301c14.156 2.9883 28.461 2.9844 42.617 0v-15.297c-6.7188 2.6445-13.848 4.1328-21.305 4.1328-7.4609-0.003906-14.594-1.4922-21.312-4.1367zm-41.633 59.941c0.019531 0 0.039062-0.003906 0.054687-0.003906h24.191l-0.003907-45.5h-24.242zm-10.074 3.8984v-33.441c-26.457 30.012-43.316 77.594-45.035 129.84l30.328-0.019531 9.8203-86.863c0.42969-3.793 2.2383-7.1172 4.8867-9.5117zm150.88 98.84-9.9727-88.195c-0.28516-2.5469-2.4336-4.4727-5.0039-4.4727h-125.77c-2.5664 0-4.7188 1.9219-5.0078 4.4727l-9.9727 88.195zm-4.8477-132.29v33.441c2.6523 2.3945 4.4609 5.7188 4.8906 9.5156l9.8047 86.758 30.441-0.019531c-1.8008-52.129-18.672-99.688-45.137-129.7zm-22.43 71.102v46.234c0 5.5547-4.5234 10.078-10.078 10.078l-81.02-0.003906c-5.5586 0-10.078-4.5234-10.078-10.078v-46.234c0-5.5547 4.5195-10.078 10.078-10.078h81.023c5.5547 0.003906 10.074 4.5273 10.074 10.082zm-10.07 46.234-0.003906-46.234h-81.023v46.234z"/>
</svg>