<?xml version="1.0" encoding="UTF-8"?>
<!-- The Best Svg Icon site in the world: iconSvg.co, Visit us! https://iconsvg.co -->
<svg fill="#000000" width="800px" height="800px" version="1.1" viewBox="144 144 512 512" xmlns="http://www.w3.org/2000/svg">
 <path d="m633.02 343.29-25.914-29.523c-0.96094-1.0898-2.3359-1.7148-3.7891-1.7148s-2.8281 0.625-3.7891 1.7148l-25.918 29.523c-0.80859 0.92188-1.25 2.1016-1.25 3.3242v9.875h-19.414v-7.9766c0-2.4531-0.89062-4.8125-2.5-6.6484l-20.887-23.789c-3.8242-4.3594-11.324-4.3477-15.141 0 0 0.003907 0 0.003907-0.003907 0.003907l-20.875 23.785c-1.6133 1.8359-2.5039 4.1953-2.5039 6.6484v7.9766h-19.418v-7.9766c0-2.4531-0.89063-4.8125-2.5-6.6484l-20.887-23.789c-3.8242-4.3594-11.324-4.3477-15.141 0 0 0.003907 0 0.003907-0.003906 0.003907l-20.875 23.785c-1.6133 1.8359-2.5039 4.1953-2.5039 6.6484v7.9766h-19.418v-7.9766c0-2.4492-0.89062-4.8125-2.5039-6.6484l-20.879-23.789c-1.9141-2.1758-4.6758-3.4258-7.5703-3.4258h-0.003907c-2.8984 0.003907-5.6562 1.2539-7.5703 3.4297l-20.875 23.785c-1.6172 1.8359-2.5078 4.1992-2.5078 6.6484v7.9766h-19.418v-7.9766c0-2.4492-0.89063-4.8125-2.5039-6.6484l-20.879-23.789c-1.9141-2.1758-4.6758-3.4258-7.5703-3.4258h-0.003906c-2.8984 0.003907-5.6562 1.2539-7.5703 3.4297l-20.875 23.785c-1.6172 1.8359-2.5078 4.1992-2.5078 6.6484v7.9766h-19.418v-7.9766c0-2.4492-0.89062-4.8125-2.5039-6.6484l-20.879-23.789c-3.8281-4.3555-11.316-4.3555-15.145 0v0.003907l-20.879 23.785c-1.6172 1.8359-2.5078 4.1992-2.5078 6.6484v129.36c0 5.5547 4.5195 10.078 10.078 10.078h41.758c5.5586 0 10.078-4.5234 10.078-10.078v-16.059h19.418v16.059c0 5.5547 4.5195 10.078 10.078 10.078h41.758c5.5586 0 10.078-4.5234 10.078-10.078v-16.059h19.418v16.059c0 5.5547 4.5195 10.078 10.078 10.078h41.758c5.5586 0 10.078-4.5234 10.078-10.078v-16.059h19.418v16.059c0 5.5547 4.5234 10.078 10.078 10.078h41.758c5.5547 0 10.078-4.5234 10.078-10.078v-16.059h19.418v16.059c0 5.5547 4.5234 10.078 10.078 10.078h41.758c5.5547 0 10.078-4.5234 10.078-10.078v-16.059h19.414v21.098c0 2.7852 2.2539 5.0391 5.0391 5.0391h51.832c2.7852 0 5.0391-2.2539 5.0391-5.0391l-0.015625-136.3c0-1.2227-0.44531-2.4023-1.25-3.3242zm-415.46 134.59h-41.758v-129.36l20.879-23.785 20.879 23.785zm29.492-26.137h-19.418v-16.062h19.418zm0-26.137h-19.418v-32.895h19.418zm0-42.973h-19.418v-16.062h19.418zm51.832 95.246h-41.758l0.003906-129.36 20.879-23.785 20.879 23.785zm29.496-26.137h-19.418v-16.062h19.418zm0-26.137h-19.418v-32.895h19.418zm0-42.973h-19.418v-16.062h19.418zm51.832 95.246h-41.758l0.003907-129.36 20.879-23.785 20.879 23.785zm29.496-26.137h-19.418v-16.062h19.418zm0-26.137h-19.418v-32.895h19.418zm0-42.973h-19.418v-16.062h19.418zm51.832 95.246h-41.758v-129.36l20.879-23.781 20.879 23.781zm29.496-26.137h-19.418v-16.062h19.418zm0-26.137h-19.418v-32.895h19.418zm0-42.973h-19.418v-16.062h19.418zm51.832 95.246h-41.758v-129.36l20.879-23.781 20.879 23.781zm29.488-26.137h-19.414v-16.062h19.414zm0-26.137h-19.414v-32.895h19.414zm0-42.973h-19.414v-16.062h19.414zm51.832 95.246h-41.758l0.003906-129.36 20.879-23.785 20.875 23.785z"/>
</svg>