<?xml version="1.0" encoding="UTF-8"?>
<!-- The Best Svg Icon site in the world: iconSvg.co, Visit us! https://iconsvg.co -->
<svg fill="#000000" width="800px" height="800px" version="1.1" viewBox="144 144 512 512" xmlns="http://www.w3.org/2000/svg">
 <path d="m624.7 438.79v-50.883c0-18.137-4.5352-28.719-13.098-32.242-4.5352-14.105-12.594-27.207-26.703-36.273-36.273-23.176-109.83-17.129-169.28-12.594-19.145 1.5117-35.77 3.0234-47.863 3.0234-29.727 0-57.434-14.105-73.051-23.68 14.609-8.0625 18.137-26.199 17.633-36.273l-0.50391-8.5664-8.5664 1.5117c-20.152 3.0234-32.242 11.586-38.289 17.129-1.5117-0.50391-2.5195-1.0078-3.5273-1.5117-19.648-24.688-30.73-44.336-30.73-44.336-3.0234 20.152 4.0312 33.754 8.5664 40.809-1.5117 0-2.5195 0.50391-3.5273 0.50391-20.152-25.695-21.664-35.77-21.664-35.77-3.0234 21.16 4.5352 34.258 9.5742 40.305-12.09 7.0547-20.656 20.152-26.199 28.719-2.5195 3.5273-4.5352 7.0547-6.0469 8.5664-2.0156 2.5195-4.0312 4.5352-6.0469 6.5508-9.5742 10.078-18.641 20.152-16.121 32.746 2.0156 9.5742 10.078 19.145 19.145 23.68 6.0469 3.0234 12.09 3.0234 16.625 0.50391 4.5352-2.0156 26.199-1.5117 45.848 0 4.5352 10.578 16.625 39.801 27.207 61.465 5.0391 11.082 13.098 21.664 20.656 31.738 11.586 15.617 22.672 30.23 22.672 43.832v80.609c0 4.0312 3.0234 7.0547 7.0547 7.0547h26.703c4.0312 0 7.0547-3.0234 7.0547-7.0547v-88.168c0-4.0312 2.0156-18.137 4.0312-29.727 16.625 5.0391 53.906 14.609 83.129 14.609 34.258 0 61.969-13.602 74.059-21.16 8.0625 14.609 16.121 29.727 17.633 33.754v90.184c0 4.0312 3.0234 7.0547 7.0547 7.0547h24.184c4.0312 0 7.0547-3.0234 7.0547-7.0547v-66.504c0-20.152 6.5508-38.793 22.672-64.992 5.543-9.0703 11.082-24.688 13.098-41.816v34.258c-3.0234 2.0156-5.543 5.0391-5.543 9.0703l8.0625 31.738c0.50391 2.5195 4.5352 2.5195 5.0391 0l8.0625-31.738c-0.51562-4.0352-2.5312-7.5586-6.0547-9.0703zm-35.773-0.50391c-17.633 28.215-25.191 49.879-25.191 73.051v58.441h-8.0625v-83.129c0-2.0156 0-6.5508-23.68-47.863l-0.50391-1.0078c-2.0156-3.5273-6.5508-4.5352-9.5742-2.5195l-1.5117 1.0078c-4.0312 2.5195-33.754 23.176-72.043 23.176-35.266 0-86.152-16.121-86.656-16.625h-1.0078c-4.0312-1.0078-8.0625 1.0078-8.5664 5.0391v1.0078c-0.50391 3.5273-5.543 32.746-5.543 40.809v80.105h-10.578v-72.547c0-18.641-13.098-36.273-25.695-52.898-7.0547-9.5742-14.609-19.648-19.145-29.223-12.594-26.703-28.215-64.488-28.215-64.992l-1.5117-4.0312-4.5352-0.50391c-18.137-1.5117-50.383-3.5273-58.945 1.0078 0 0-1.0078 0-3.0234-0.50391-5.0391-2.0156-9.5742-8.0625-10.578-13.098-1.0078-5.0391 4.0312-10.578 12.09-19.648 2.0156-2.0156 4.0312-4.5352 6.0469-7.0547 2.5195-2.5195 4.5352-6.5508 7.5586-10.578 13.602-21.16 26.199-35.77 52.395-21.664 3.5273 2.0156 8.5664 1.5117 11.082-2.0156 2.0156-2.5195 9.0703-9.0703 22.672-13.098-1.5117 6.5508-5.543 14.105-15.113 15.617-4.0312 0.50391-7.0547 3.5273-8.0625 7.0547-1.0078 3.5273 0.50391 7.5586 3.5273 10.078 13.602 10.078 49.879 32.746 91.191 32.746 12.594 0 29.223-1.5117 48.871-3.0234 53.906-4.5352 127.97-10.078 160.21 10.078 34.77 23.172 25.199 85.645 12.098 106.8z"/>
</svg>