<?xml version="1.0" encoding="UTF-8"?>
<!-- The Best Svg Icon site in the world: iconSvg.co, Visit us! https://iconsvg.co -->
<svg fill="#000000" width="800px" height="800px" version="1.1" viewBox="144 144 512 512" xmlns="http://www.w3.org/2000/svg">
 <g>
  <path d="m581.37 239.09c-5.0391-1.5742-10.391 0.31641-13.539 4.7227-20.152 28.969-53.215 46.289-88.48 46.289h-72.109c-33.379 0-62.977-20.152-75.887-51.012 0-0.31641-0.31641-0.62891-0.62891-0.94531-2.832-5.9844-6.6133-11.02-10.707-15.43-10.707-11.336-25.191-18.262-40.934-19.207-11.336-0.62891-22.672 1.5742-32.746 6.6133-6.6133 3.4648-12.281 7.5586-17.633 12.594-2.5195 2.5195-4.7227 5.0391-6.9258 7.8711-5.0391 6.6133-8.5 14.168-10.391 22.043-0.62891 2.832-0.94531 5.3516-0.94531 7.8711l-0.62891 14.801c0 3.4648 0.94531 6.6133 3.4648 8.8164 2.2031 2.2031 5.3516 3.7773 8.8164 3.7773h20.781 1.5742c2.832 0.31641 5.3516 1.5742 7.5586 3.7773 2.5195 2.5195 3.7773 5.668 3.7773 9.4453 0 0.94531-0.31641 2.2031-0.62891 3.7773-0.31641 0.94531-0.62891 2.2031-0.62891 2.832-10.078 43.141-3.1484 88.48 18.895 124.38 15.43 24.875 36.527 45.344 61.402 60.141h-28.023c-6.6133 0-11.965 5.3516-11.965 11.965v39.988c0 6.6133 5.3516 11.965 11.965 11.965 6.6133 0 11.965-5.3516 11.965-11.965v-28.023h82.184v56.68h-27.395c-6.6133 0-11.965 5.3516-11.965 11.965s5.3516 11.965 11.965 11.965h39.676c6.6133 0 11.965-5.3516 11.965-11.965v-68.957c39.047-0.31641 76.832-14.801 106.43-40.621l5.668-5.0391c33.379-29.598 52.27-73.051 52.27-119.02l-0.007812-100.44c0.3125-5.3555-3.1523-10.078-8.1875-11.652zm-15.746 112.1c0 39.047-16.059 75.887-44.398 100.76l-5.668 5.0391c-25.504 22.355-57.938 34.637-91.629 34.637-26.449 0-52.586-6.9258-75.258-19.836-22.043-12.594-40.934-30.859-54.473-52.898-18.895-30.543-24.562-69.273-16.059-106.11 0.31641-0.62891 0.31641-1.5742 0.62891-2.5195 0.62891-3.1484 1.2578-6.2969 1.2578-9.1328 0-9.7617-3.7773-19.207-10.707-26.137-5.9844-5.9844-13.539-9.7617-21.41-10.707-1.5742-0.31641-3.1484-0.31641-4.7227-0.31641h-8.1875v-2.2031c0-0.94531 0.31641-2.2031 0.62891-3.4648 0.94531-4.4102 3.1484-8.8164 5.9844-12.594 1.5742-1.8906 3.1484-3.7773 4.7227-5.3516 3.4648-3.4648 7.2422-6.2969 11.652-8.1875 6.2969-3.1484 13.227-4.7227 20.152-4.0938 9.7617 0.62891 18.578 4.7227 25.191 11.652 2.5195 2.832 4.7227 5.9844 6.6133 9.4453v0.31641c16.375 39.988 54.789 65.496 97.93 65.496h72.109c32.117 0 62.66-11.652 86.277-32.434l-0.007813 68.641z"/>
  <path d="m466.75 415.74h-65.496c-23.301 0-42.195-19.207-42.195-42.508v-24.246c0-6.6133-5.3516-11.965-11.965-11.965-6.6133 0-11.965 5.3516-11.965 11.965v24.246c0 36.84 29.598 66.754 66.125 66.754h65.496c6.6133 0 11.965-5.3516 11.965-11.965 0.31641-6.9297-5.3516-12.281-11.965-12.281z"/>
 </g>
</svg>