<?xml version="1.0" encoding="UTF-8"?>
<!-- The Best Svg Icon site in the world: iconSvg.co, Visit us! https://iconsvg.co -->
<svg fill="#000000" width="800px" height="800px" version="1.1" viewBox="144 144 512 512" xmlns="http://www.w3.org/2000/svg">
 <path d="m596.48 591.45h-56.164v-87.082c2.0391 0.1875 4.7422 0.35938 7.8828 0.35938 10.871 0 26.828-2.0469 37.297-12.52 16.832-16.828 11.898-47.812 11.684-49.121-0.35156-2.125-2.0156-3.7891-4.1406-4.1406-1.3203-0.22656-32.293-5.1445-49.121 11.684-1.3555 1.3555-2.5195 2.8281-3.6055 4.3359v-49.414c2.0391 0.1875 4.7344 0.35938 7.8789 0.35938 10.871 0 26.828-2.0469 37.301-12.52 16.832-16.832 11.898-47.812 11.684-49.121-0.35156-2.125-2.0156-3.7891-4.1406-4.1406-1.3164-0.22266-32.289-5.1484-49.121 11.684-1.3555 1.3555-2.5195 2.8203-3.6055 4.3359l-0.003906-72.355c6.2617-5.0195 24.363-21.25 24.363-41.379 0-23.801-25.391-42.223-26.469-42.996-1.7617-1.25-4.1016-1.25-5.8633 0-1.0781 0.76953-26.469 19.199-26.469 42.996 0 20.129 18.102 36.359 24.363 41.379v28.129c-1.0547-1.4492-2.1875-2.8633-3.4883-4.168-16.836-16.828-47.805-11.906-49.121-11.684-2.125 0.35156-3.7891 2.0156-4.1406 4.1406-0.21484 1.3086-5.1445 32.289 11.684 49.121 10.473 10.473 26.426 12.52 37.297 12.52 3.0898 0 5.7422-0.16797 7.7695-0.35156v49.23c-1.0547-1.4492-2.1875-2.8633-3.4883-4.168-16.836-16.836-47.812-11.91-49.121-11.684-2.125 0.35156-3.7891 2.0156-4.1406 4.1406-0.21484 1.3086-5.1445 32.289 11.684 49.121 10.48 10.473 26.434 12.52 37.309 12.52 3.082 0 5.7344-0.16797 7.7578-0.34766v49.227c-1.0547-1.4492-2.1875-2.8633-3.4883-4.168-16.836-16.828-47.805-11.91-49.121-11.684-2.125 0.35156-3.7891 2.0156-4.1406 4.1406-0.21484 1.3086-5.1445 32.293 11.684 49.121 10.473 10.473 26.426 12.52 37.297 12.52 3.0898 0 5.7422-0.16797 7.7695-0.35156v32.332h-124.63v-87.082c2.0391 0.1875 4.7422 0.35938 7.8828 0.35938 10.871 0 26.828-2.0469 37.297-12.52 16.832-16.828 11.898-47.812 11.684-49.121-0.35156-2.125-2.0156-3.7891-4.1406-4.1406-1.3203-0.22656-32.293-5.1445-49.121 11.684-1.3555 1.3555-2.5195 2.8281-3.6055 4.3359v-49.414c2.0391 0.1875 4.7344 0.35938 7.8789 0.35938 10.871 0 26.828-2.0469 37.301-12.52 16.832-16.832 11.898-47.812 11.684-49.121-0.35156-2.125-2.0156-3.7891-4.1406-4.1406-1.3164-0.22266-32.285-5.1484-49.121 11.684-1.3555 1.3555-2.5195 2.8203-3.6055 4.3359v-20.574c6.2656-5.0195 24.359-21.25 24.359-41.371 0-23.805-25.387-42.223-26.469-42.996-1.7539-1.25-4.1016-1.25-5.8555 0-1.082 0.76953-26.477 19.195-26.477 42.996 0 20.121 18.098 36.352 24.363 41.371v75.16c-1.0547-1.4492-2.1875-2.8633-3.4883-4.168-16.832-16.836-47.805-11.91-49.121-11.684-2.125 0.35156-3.7891 2.0156-4.1406 4.1406-0.21484 1.3086-5.1445 32.289 11.684 49.121 10.473 10.473 26.43 12.52 37.301 12.52 3.0898 0 5.7383-0.16797 7.7656-0.34766v49.227c-1.0547-1.4492-2.1875-2.8633-3.4883-4.168-16.836-16.828-47.805-11.91-49.121-11.684-2.125 0.35156-3.7891 2.0156-4.1406 4.1406-0.21484 1.3086-5.1445 32.293 11.684 49.121 10.469 10.473 26.426 12.52 37.297 12.52 3.0898 0 5.7422-0.16797 7.7695-0.35156v32.328h-124.62v-87.082c2.0391 0.1875 4.7422 0.35938 7.8828 0.35938 10.871 0 26.824-2.0469 37.297-12.52 16.832-16.828 11.898-47.812 11.684-49.121-0.35156-2.125-2.0156-3.7891-4.1406-4.1406-1.3203-0.22656-32.293-5.1445-49.121 11.684-1.3555 1.3555-2.5195 2.8281-3.6055 4.3359v-49.414c2.0352 0.1875 4.7344 0.35938 7.875 0.35938 10.871 0 26.832-2.0469 37.309-12.52 16.832-16.832 11.898-47.812 11.684-49.121-0.35156-2.125-2.0156-3.7891-4.1406-4.1406-1.3203-0.22266-32.285-5.1484-49.121 11.684-1.3555 1.3555-2.5195 2.8203-3.6055 4.3359l-0.007812-72.355c6.2578-5.0195 24.359-21.25 24.359-41.379 0-23.801-25.387-42.223-26.465-42.996-1.7617-1.25-4.1016-1.25-5.8633 0-1.0781 0.76953-26.469 19.199-26.469 42.996 0 20.129 18.102 36.359 24.363 41.379v28.129c-1.0547-1.4492-2.1875-2.8633-3.4883-4.168-16.836-16.828-47.805-11.906-49.121-11.684-2.125 0.35156-3.7891 2.0156-4.1406 4.1406-0.21484 1.3086-5.1445 32.289 11.684 49.121 10.469 10.473 26.426 12.52 37.297 12.52 3.0898 0 5.7422-0.16797 7.7695-0.35156v49.23c-1.0547-1.4492-2.1875-2.8633-3.4883-4.168-16.832-16.836-47.812-11.91-49.121-11.684-2.125 0.35156-3.7891 2.0156-4.1406 4.1406-0.21484 1.3086-5.1445 32.289 11.684 49.121 10.473 10.473 26.43 12.52 37.301 12.52 3.0898 0 5.7383-0.16797 7.7656-0.34766v49.227c-1.0547-1.4492-2.1875-2.8633-3.4883-4.168-16.836-16.828-47.805-11.91-49.121-11.684-2.125 0.35156-3.7891 2.0156-4.1406 4.1406-0.21484 1.3086-5.1445 32.293 11.684 49.121 10.469 10.473 26.426 12.52 37.297 12.52 3.0898 0 5.7422-0.16797 7.7695-0.35156v32.332h-57.301c-2.7852 0-5.0391 2.2539-5.0391 5.0391s2.2539 5.0391 5.0391 5.0391h392.97c2.7852 0 5.0391-2.2539 5.0391-5.0391s-2.2539-5.0391-5.0391-5.0391zm-45.438-133.7c10.203-10.203 28.691-9.9453 36.621-9.2852 0.64844 7.8945 0.92188 26.41-9.2891 36.617-10.211 10.207-28.711 9.9414-36.625 9.2852-0.66406-7.8867-0.95703-26.367 9.293-36.617zm0-98.812c10.211-10.207 28.711-9.9414 36.625-9.2852 0.66406 7.8789 0.95703 26.359-9.2969 36.617-10.207 10.203-28.738 9.9414-36.625 9.2852-0.66016-7.8906-0.95312-26.371 9.2969-36.617zm-22.133-7.4375c-7.8711 0.67188-26.359 0.95703-36.617-9.2969-10.207-10.207-9.9414-28.727-9.2852-36.625 7.8711-0.66406 26.363-0.95312 36.617 9.2969 10.207 10.211 9.9375 28.734 9.2852 36.625zm0 98.816c-7.8906 0.67188-26.363 0.95312-36.617-9.2969-10.207-10.211-9.9414-28.73-9.2852-36.625 7.8828-0.65625 26.359-0.95312 36.617 9.2969 10.207 10.211 9.9375 28.73 9.2852 36.625zm0 98.82c-7.8906 0.67578-26.363 0.95313-36.617-9.2969-10.207-10.207-9.9414-28.727-9.2852-36.625 7.8711-0.67188 26.363-0.95313 36.617 9.2969 10.207 10.203 9.9375 28.73 9.2852 36.625zm-12.957-306.72c0-14.434 13.289-27.34 19.332-32.461 6.0469 5.1094 19.32 17.965 19.32 32.461 0 14.379-13.176 27.234-19.25 32.398-0.023437 0-0.050781-0.015625-0.074219-0.015625-0.03125 0-0.054687 0.015625-0.082031 0.015625-6.0898-5.1445-19.246-17.957-19.246-32.398zm-99.621 215.34c10.203-10.203 28.691-9.9453 36.621-9.2852 0.64844 7.8945 0.92188 26.41-9.2891 36.617-10.203 10.203-28.711 9.9414-36.625 9.2852-0.66016-7.8867-0.95312-26.367 9.293-36.617zm0-98.812c10.211-10.207 28.727-9.9414 36.625-9.2852 0.66406 7.8789 0.95703 26.359-9.2969 36.617-10.203 10.203-28.738 9.9414-36.625 9.2852-0.65625-7.8906-0.94922-26.371 9.2969-36.617zm-22.133 91.379c-7.8828 0.67578-26.363 0.95312-36.617-9.2969-10.207-10.211-9.9414-28.73-9.2852-36.625 7.8789-0.65625 26.359-0.95312 36.617 9.2969 10.207 10.211 9.9375 28.73 9.2852 36.625zm0 98.812c-7.8906 0.64844-26.41 0.91016-36.617-9.2891-10.207-10.207-9.9414-28.727-9.2852-36.625 7.8711-0.67188 26.363-0.95313 36.617 9.2969 10.203 10.203 9.9375 28.715 9.2852 36.617zm-12.961-254.93c0-14.438 13.289-27.34 19.332-32.461 6.0469 5.1055 19.316 17.961 19.316 32.461 0 14.434-13.273 27.336-19.32 32.457-6.0469-5.1211-19.328-18.023-19.328-32.457zm-99.613 163.55c10.203-10.203 28.691-9.9453 36.621-9.2852 0.64844 7.8945 0.92188 26.41-9.2891 36.617-10.219 10.207-28.727 9.9258-36.625 9.2852-0.66797-7.8867-0.95313-26.367 9.293-36.617zm0-98.812c10.211-10.207 28.723-9.9414 36.625-9.2852 0.66406 7.8789 0.95703 26.359-9.2969 36.617-10.211 10.203-28.738 9.9414-36.625 9.2852-0.66406-7.8906-0.94922-26.371 9.2969-36.617zm-22.137-7.4414c-7.8945 0.64844-26.41 0.91797-36.617-9.2891s-9.9414-28.727-9.2852-36.625c7.8711-0.66406 26.363-0.95312 36.617 9.2969 10.207 10.207 9.9375 28.719 9.2852 36.617zm0 98.82c-7.8945 0.67578-26.363 0.95312-36.617-9.2969-10.207-10.211-9.9414-28.73-9.2852-36.625 7.8828-0.65625 26.359-0.95312 36.617 9.2969 10.211 10.211 9.9375 28.73 9.2852 36.625zm0 98.812c-7.8945 0.64844-26.41 0.91016-36.617-9.2891-10.207-10.207-9.9414-28.727-9.2852-36.625 7.8711-0.67188 26.363-0.95313 36.617 9.2969 10.207 10.203 9.9375 28.715 9.2852 36.617zm-12.961-306.71c0-14.434 13.289-27.34 19.332-32.461 6.0469 5.1094 19.316 17.965 19.316 32.461 0 14.379-13.168 27.234-19.246 32.398-0.023438 0-0.050782-0.015625-0.074219-0.015625-0.03125 0-0.054687 0.015625-0.082031 0.015625-6.0781-5.1445-19.246-17.961-19.246-32.398z"/>
</svg>