<?xml version="1.0" encoding="UTF-8"?>
<!-- The Best Svg Icon site in the world: iconSvg.co, Visit us! https://iconsvg.co -->
<svg fill="#000000" width="800px" height="800px" version="1.1" viewBox="144 144 512 512" xmlns="http://www.w3.org/2000/svg">
 <g>
  <path d="m596.59 591.45h-88.414c6.3867-4.5547 10.594-11.98 10.594-20.402 0-13.836-11.254-25.086-25.086-25.086-13.828 0-25.086 11.25-25.086 25.086 0 8.4219 4.207 15.855 10.594 20.402h-73.664v-120.69c12 9.6641 26.992 15.043 42.594 15.043 28.953 0 54.215-17.852 63.953-44.797 35.797-1.9336 64.336-31.684 64.336-67.949 0-10.941-2.6836-21.781-7.7852-31.508 5.1055-9.7305 7.7852-20.566 7.7852-31.508 0-36.328-28.617-66.105-64.797-67.945-10.062-26.234-35.145-43.613-63.492-43.613-17.871 0-34.938 7.0547-47.629 19.52-12.695-12.469-29.766-19.52-47.633-19.52-28.34 0-53.418 17.371-63.488 43.594-35.891 1.8477-64.52 31.625-64.52 67.965 0 10.941 2.6836 21.781 7.7852 31.508-5.1055 9.7305-7.7852 20.566-7.7852 31.508 0 36.094 28.406 65.828 64.039 67.918 9.7344 26.965 35 44.824 63.965 44.824 15.598 0 30.59-5.3789 42.594-15.043v120.7h-191.93c-2.7812 0-5.0391 2.2578-5.0391 5.0391s2.2578 5.0391 5.0391 5.0391h393.07c2.7812 0 5.0391-2.2578 5.0391-5.0391s-2.2578-5.0391-5.0391-5.0391zm-102.9-35.41c8.2773 0 15.008 6.7305 15.008 15.008 0 8.2773-6.7305 15.008-15.008 15.008s-15.008-6.7305-15.008-15.008c-0.003906-8.2734 6.7305-15.008 15.008-15.008zm-140.83-80.312c-25.719 0-48.008-16.531-55.469-41.137-0.64062-2.1172-2.5859-3.5664-4.7969-3.5781-31.797-0.17187-57.668-26.168-57.668-57.957 0-10.133 2.707-20.152 7.8203-28.98 0.90625-1.5625 0.90625-3.4922 0-5.0547-5.1172-8.8281-7.8203-18.852-7.8203-28.98 0-31.918 25.922-57.895 57.816-57.977 2.2812 0.074218 4.3008-1.3359 5.0039-3.4727 7.7969-23.949 29.945-40.035 55.113-40.035 16.797 0 32.77 7.3242 43.82 20.094 1.9141 2.2109 5.707 2.2109 7.6211 0 11.047-12.77 27.023-20.094 43.82-20.094 25.176 0 47.328 16.09 55.113 40.043 0.67578 2.0742 2.9414 3.4648 5.125 3.4648 31.965 0 57.977 26.012 57.977 57.977 0 10.133-2.707 20.152-7.8203 28.98-0.90625 1.5625-0.90625 3.4922 0 5.0547 5.1172 8.8281 7.8203 18.852 7.8203 28.98 0 31.941-25.988 57.949-57.934 57.973-2.2148 0-4.1719 1.457-4.8164 3.5703-7.4609 24.598-29.754 41.121-55.469 41.121-16.797 0-32.77-7.3242-43.82-20.098-0.039063-0.046876-0.10156-0.058594-0.14062-0.10547-0.33203-0.35938-0.74219-0.625-1.168-0.875-0.16797-0.10156-0.29688-0.24219-0.48047-0.32422-0.625-0.27734-1.3047-0.44141-2.0234-0.44141-0.72656 0-1.4062 0.16797-2.0312 0.44141-0.17578 0.074219-0.30078 0.22266-0.46875 0.31641-0.42969 0.25-0.83594 0.51953-1.1758 0.88281-0.039063 0.046875-0.10156 0.058593-0.14063 0.10547-11.039 12.777-27.012 20.105-43.809 20.105z"/>
  <path d="m357.11 390.77c-13.836 0-25.086 11.254-25.086 25.086 0 13.828 11.25 25.086 25.086 25.086 13.836 0 25.086-11.25 25.086-25.086 0-13.836-11.25-25.086-25.086-25.086zm0 40.09c-8.2773 0-15.008-6.7305-15.008-15.008s6.7305-15.008 15.008-15.008c8.2773 0 15.008 6.7305 15.008 15.008s-6.7305 15.008-15.008 15.008z"/>
  <path d="m422.3 328.68c0-13.836-11.25-25.086-25.086-25.086-13.836 0-25.086 11.254-25.086 25.086 0 13.828 11.254 25.086 25.086 25.086 13.832 0 25.086-11.254 25.086-25.086zm-40.098 0c0-8.2773 6.7305-15.008 15.008-15.008 8.2773 0 15.008 6.7305 15.008 15.008s-6.7305 15.008-15.008 15.008c-8.2734 0-15.008-6.7344-15.008-15.008z"/>
  <path d="m303.33 332.77c-13.836 0-25.086 11.25-25.086 25.086 0 13.836 11.25 25.086 25.086 25.086s25.086-11.25 25.086-25.086c0-13.836-11.25-25.086-25.086-25.086zm0 40.094c-8.2773 0-15.008-6.7305-15.008-15.008 0-8.2773 6.7305-15.008 15.008-15.008s15.008 6.7305 15.008 15.008c0 8.2773-6.7266 15.008-15.008 15.008z"/>
  <path d="m341.48 288.11c13.836 0 25.086-11.25 25.086-25.086 0-13.836-11.25-25.086-25.086-25.086-13.836 0-25.086 11.25-25.086 25.086 0 13.836 11.254 25.086 25.086 25.086zm0-40.098c8.2773 0 15.008 6.7305 15.008 15.008 0 8.2773-6.7305 15.008-15.008 15.008-8.2773 0-15.008-6.7305-15.008-15.008 0-8.2773 6.7305-15.008 15.008-15.008z"/>
  <path d="m453.48 296.49c13.836 0 25.086-11.254 25.086-25.086 0-13.828-11.25-25.086-25.086-25.086s-25.086 11.25-25.086 25.086 11.25 25.086 25.086 25.086zm0-40.094c8.2773 0 15.008 6.7305 15.008 15.008s-6.7305 15.008-15.008 15.008-15.008-6.7305-15.008-15.008c-0.003906-8.2773 6.7305-15.008 15.008-15.008z"/>
  <path d="m511.79 350.92c13.836 0 25.086-11.25 25.086-25.086 0-13.836-11.25-25.086-25.086-25.086-13.836 0-25.086 11.25-25.086 25.086 0 13.836 11.258 25.086 25.086 25.086zm0-40.094c8.2773 0 15.008 6.7305 15.008 15.008 0 8.2773-6.7305 15.008-15.008 15.008-8.2773 0-15.008-6.7305-15.008-15.008 0-8.2773 6.7344-15.008 15.008-15.008z"/>
  <path d="m437.41 395.8c0 13.836 11.25 25.086 25.086 25.086 13.836 0 25.086-11.254 25.086-25.086 0-13.828-11.25-25.086-25.086-25.086-13.836 0.003906-25.086 11.254-25.086 25.086zm40.094 0c0 8.2773-6.7305 15.008-15.008 15.008-8.2773 0-15.008-6.7305-15.008-15.008 0-8.2773 6.7305-15.008 15.008-15.008 8.2773 0 15.008 6.7305 15.008 15.008z"/>
  <path d="m319.25 526.45c0-13.836-11.25-25.086-25.086-25.086-13.836 0-25.086 11.25-25.086 25.086 0 13.836 11.254 25.086 25.086 25.086 13.828 0 25.086-11.258 25.086-25.086zm-40.098 0c0-8.2773 6.7305-15.008 15.008-15.008 8.2773 0 15.008 6.7305 15.008 15.008 0 8.2773-6.7305 15.008-15.008 15.008-8.2734 0-15.008-6.7305-15.008-15.008z"/>
 </g>
</svg>