<?xml version="1.0" encoding="UTF-8"?>
<!-- The Best Svg Icon site in the world: iconSvg.co, Visit us! https://iconsvg.co -->
<svg fill="#000000" width="800px" height="800px" version="1.1" viewBox="144 144 512 512" xmlns="http://www.w3.org/2000/svg">
 <g>
  <path d="m492.59 428.18c-4.9531 0-8.9609-4.0078-8.9609-8.9609v-17.707l-44.141 10.652c-5.6055 1.3555-11.562-0.027344-16.336-3.7891-5.1875-4.0859-8.4141-10.484-8.4141-16.707v-125.38c0-10.398 10.5-21.086 16.762-26.543 2.3047-2.0078 6.2852-5.7227 10.895-10.035 38.082-35.566 59.723-53.617 72.312-53.633 12.598 0 34.238 18.066 72.309 53.621 4.6094 4.3125 8.5898 8.0273 10.895 10.035 7.6445 6.6602 16.762 16.672 16.762 26.539v125.38c0 6.2383-3.2148 12.652-8.3867 16.711-4.7773 3.7617-10.742 5.1328-16.363 3.7891l-58.582-14.137c-4.8164-1.1641-7.7734-6.0039-6.6094-10.816 1.168-4.8125 6.0078-7.7734 10.82-6.6055l58.582 14.133c0.35938 0.089843 0.91016-0.32031 1.0781-0.44922 1.0078-0.79297 1.5469-2.0352 1.5469-2.6367v-125.38c-0.20312-1.6523-3.7109-7.0156-10.602-13.02-2.5352-2.2148-6.4297-5.8516-11.371-10.449-9.5391-8.9102-22.586-21.098-34.738-31.25-17.824-14.891-23.984-17.156-25.328-17.5-1.3438 0.34375-7.5039 2.6094-25.328 17.5-12.152 10.152-25.215 22.355-34.738 31.25-4.9297 4.6094-8.8242 8.2461-11.359 10.449-6.5547 5.7109-10.371 11.305-10.617 13.137v125.26c0 0.57812 0.56641 1.832 1.5781 2.625 0.11328 0.089844 0.70313 0.51172 1.0469 0.44922l55.203-13.328c2.6641-0.64062 5.4922-0.027344 7.6445 1.6641 2.1641 1.7031 3.418 4.2891 3.418 7.043v29.086c0 4.957-4.0078 8.9609-8.9609 8.9609z"/>
  <path d="m533.46 428.18c-4.957 0-8.9648-4.0195-8.9648-8.9648v-115.18c0-4.957 4.0195-8.9648 8.9648-8.9648 4.9414 0 8.9609 4.0078 8.9609 8.9648v115.2c0 4.9531-4.0195 8.9609-8.9609 8.9609z"/>
  <path d="m513.03 623.91c-29.039 0-52.664-20.906-52.68-46.617 0-20.328 1.0508-41.008 2.0625-61.004 1-19.871 2.0352-40.406 2.0352-60.441 0-7.6328 6.5703-13.855 14.648-13.855h67.867c3.6484 0 7.1445 1.2812 9.8477 3.6133 3.0352 2.6094 4.7734 6.3477 4.7734 10.242 0 20.023 1.0391 40.559 2.0508 60.402 1.0117 20.012 2.0625 40.699 2.0625 61.043 0 25.695-23.625 46.617-52.668 46.617zm-34.75-46.617c0 15.828 15.582 28.691 34.738 28.691s34.738-12.863 34.738-28.691c0-19.879-1.0352-40.34-2.0352-60.133-0.94922-18.742-1.9219-38.09-2.0508-57.242h-61.32c-0.12891 19.164-1.1016 38.512-2.0508 57.266-0.99609 19.781-2.0352 40.23-2.0352 60.109z"/>
  <path d="m304.26 430.25c-4.9531 0-8.9609-4.0078-8.9609-8.9609v-38.062c0-3.9844 2.625-7.4922 6.4414-8.6055l52.254-15.285c6.0195-1.7695 7.4531-3.2773 7.7109-3.6094v-51.445-1.5469c0-0.94922 0.023437-1.9219 0-2.7539l-3.1016-87.621c-0.023437-0.58984-1.0859-1.7031-3.0586-1.7031-1.9727 0-3.0078 1.1914-3.0742 1.9961l-5.9805 88.031c-0.70312 10.422-11.551 17.426-26.992 17.426-15.402 0-26.223-7.0039-26.926-17.438l-5.918-88.031c-0.0625-0.97266-1.2305-1.9844-3.0586-1.9844-1.9219 0-3.0117 1.1523-3.0625 1.9844l-5.9141 88.031c-0.70703 10.434-11.562 17.449-27.02 17.449-15.43 0-26.273-7.0156-26.98-17.449l-5.9141-88.031c-0.066406-0.97266-1.2305-1.9844-3.0742-1.9844-1.9336 0-3.0352 1.1133-3.0469 1.6875l-3.0859 90.289c-0.41016 11.879-0.28125 23.16-0.14062 35.09 0.0625 5.8398 0.14062 11.871 0.14062 17.949 0.26953 0.33594 1.7539 1.9102 7.707 3.6367l52.707 15.414c3.8125 1.1172 6.4375 4.625 6.4375 8.6055v37.934c0 4.957-4.0078 8.9648-8.9609 8.9648-4.957 0-8.9648-4.0078-8.9648-8.9648v-31.211l-46.262-13.535c-13.676-3.9922-20.605-10.996-20.605-20.805 0-5.9922-0.0625-11.98-0.14063-17.781-0.14062-11.613-0.26953-23.637 0.14063-35.926l3.0859-90.285c0.37109-10.652 9.5781-19 20.977-19 11.23 0 20.23 8.0391 20.949 18.703l5.8359 86.945c1.3086 0.76953 4.5977 1.8203 9.168 1.8203 4.5742 0 7.9023-1.0508 9.207-1.8203l5.8398-86.945c0.70312-10.484 9.8984-18.703 20.949-18.703 11.051 0 20.246 8.2188 20.949 18.703l5.8516 86.984c3.4688 2.3555 14.828 2.3555 18.297-0.011719l5.918-86.984c0.71484-10.484 9.9102-18.691 20.949-18.703 11.383 0 20.59 8.3477 20.973 18.984l3.0977 87.625c0.039063 1.0625 0.027344 2.3281 0.015626 3.5469v1.3828 51.465c0 9.7969-6.9297 16.797-20.605 20.793l-45.816 13.406v31.352c0 4.957-4.0078 8.9648-8.9609 8.9648z"/>
  <path d="m283.48 623.91c-29.043 0-52.668-20.906-52.668-46.617 0-20.328 1.0508-41.008 2.0625-61.016 0.99609-19.871 2.0352-40.406 2.0352-60.445 0-7.6289 6.5703-13.852 14.648-13.852h67.867c3.9922 0 7.875 1.5742 10.625 4.3281 2.5898 2.5859 4.0078 5.9648 3.9961 9.5391 0 20.023 1.0391 40.559 2.0508 60.43 1.0117 19.996 2.0586 40.672 2.0586 61.004 0 25.707-23.625 46.617-52.664 46.617zm-34.742-46.617c0 15.824 15.586 28.691 34.742 28.691 19.152 0 34.738-12.867 34.738-28.691 0-19.867-1.0391-40.328-2.0352-60.109-0.94922-18.754-1.9219-38.113-2.0508-57.277h-61.32c-0.12891 19.164-1.1016 38.512-2.0508 57.266-1 19.781-2.0352 40.227-2.0352 60.109z"/>
 </g>
</svg>