<?xml version="1.0" encoding="UTF-8"?>
<!-- The Best Svg Icon site in the world: iconSvg.co, Visit us! https://iconsvg.co -->
<svg width="800px" height="800px" version="1.1" viewBox="144 144 512 512" xmlns="http://www.w3.org/2000/svg">
 <defs>
  <clipPath id="b">
   <path d="m371 331h280.9v312h-280.9z"/>
  </clipPath>
  <clipPath id="a">
   <path d="m148.09 153h503.81v408h-503.81z"/>
  </clipPath>
 </defs>
 <path transform="matrix(5.0381 0 0 5.0381 148.09 148.09)" d="m30.5 59.7c-6.3997 0-11.5 5.2002-11.5 11.5 0 6.3997 5.2002 11.5 11.5 11.5 6.3997 0 11.5-5.2002 11.5-11.5 0.10079-6.3997-5.0994-11.5-11.5-11.5zm0 18c-3.5999 0-6.4997-2.8998-6.4997-6.4997s2.8998-6.4997 6.4997-6.4997 6.4997 2.8998 6.4997 6.4997c7.76e-4 3.5991-2.899 6.4997-6.4997 6.4997z" fill="none" stroke="#000000" stroke-miterlimit="10"/>
 <g clip-path="url(#b)">
  <path transform="matrix(5.0381 0 0 5.0381 148.09 148.09)" d="m75.1 50.6c-9.2002 0-16.7 7.4999-16.7 16.7s7.4999 16.7 16.7 16.7 16.7-7.4999 16.7-16.7c-0.10002-9.1994-7.4999-16.7-16.7-16.7zm0 26.1c-5.2002 0-9.4003-4.2-9.4003-9.4003s4.2-9.4003 9.4003-9.4003 9.4003 4.2 9.4003 9.4003-4.2 9.4003-9.4003 9.4003z" fill="none" stroke="#000000" stroke-miterlimit="10"/>
 </g>
 <g clip-path="url(#a)">
  <path transform="matrix(5.0381 0 0 5.0381 148.09 148.09)" d="m78.5 43.6-2.5005-24.3h1.1002c1.1002 0 2.0004-0.90017 2.0004-2.0004s-0.90017-2.0004-2.0004-2.0004l-30.9 7.75e-4c-1.1002 0-2.0004 0.90017-2.0004 2.0004s0.90017 2.0004 2.0004 2.0004h0.5001l-2.4997 24.2h-15.9v-16c0-0.80015-0.70013-1.5003-1.5003-1.5003-0.80015 0-1.5003 0.70013-1.5003 1.5003v16h-9.7003c-3.8 0-4.7001 2.3997-5.0002 5.7003l5.9004-0.10002c0.5001 0 1.0002 0.5001 1.0002 1.0002 0 0.60012-0.40008 1.0002-1.0002 1.0002l-6.0004 0.10002v1.4003h6.0004c0.5001 0 1.0002 0.40008 1.0002 1.0002s-0.40008 1.0002-1.0002 1.0002h-6.0996v1.4003l6.0996-0.10002c0.60012 0 1.0002 0.40008 1.0002 1.0002 0 0.60012-0.40008 1.0002-1.0002 1.0002l-6.0996 0.10002-7.75e-4 7.9977c0 1.1002 0 1.8003 4.7001 1.8003h2.4997c1.7003-5.5003 6.8998-9.5003 13-9.5003 6.0996 0 11.2 4 13 9.5003h11.1c-0.79938-10.801 10.5-20.601 20.8-20.401l1.0002 0.10002c5.4003 0.40008 10.3 3.0998 13.5 7.4999l3.1998-2.2997c-3.4999-5.0002-8.8001-8.2-14.7-9.1002zm-13.8 4.5001c-3.1998 1.7003-6.0996 4-8.2 6.6997h-8.3v-7.9l6.2997-5.7003c1.6003 1.3002 3.1998 1.8003 3.8 1.1002 0.80015-0.80015 0-2.7998-1.7003-4.5001-1.7003-1.7003-3.6999-2.4997-4.5001-1.7003-0.70014 0.60012-0.20004 2.1996 1.0002 3.6999l-4.9002 4.4001 7.76e-4 -0.19926 2.4997-24.7h14zm1.9996-1.0002v-27.8h5.2002l2.6997 26c-2.4997 0-5.2995 0.70014-7.9 1.7996z" fill="none" stroke="#000000" stroke-miterlimit="10"/>
 </g>
 <path transform="matrix(5.0381 0 0 5.0381 148.09 148.09)" d="m54 72.2h-9.4003c-0.60012 0-1.0002-0.40008-1.0002-1.0002 0-0.60012 0.40008-1.0002 1.0002-1.0002l9.4003 7.75e-4c0.60012 0 1.0002 0.40008 1.0002 1.0002-7.75e-4 0.59934-0.5001 0.99942-1.0002 0.99942z" fill="none" stroke="#000000" stroke-miterlimit="10"/>
 <path transform="matrix(5.0381 0 0 5.0381 148.09 148.09)" d="m32.8 71.2c0 1.2708-1.0297 2.3004-2.3004 2.3004-1.27 0-2.2997-1.0297-2.2997-2.3004 0-1.27 1.0297-2.2997 2.2997-2.2997 1.2708 0 2.3004 1.0297 2.3004 2.2997" fill="none" stroke="#000000" stroke-miterlimit="10"/>
 <path transform="matrix(5.0381 0 0 5.0381 148.09 148.09)" d="m78.2 67.3c0 1.712-1.3879 3.1006-3.1006 3.1006-1.712 0-3.0998-1.3886-3.0998-3.1006 0-1.712 1.3879-3.0998 3.0998-3.0998 1.7127 0 3.1006 1.3879 3.1006 3.0998" fill="none" stroke="#000000" stroke-miterlimit="10"/>
</svg>