<?xml version="1.0" encoding="UTF-8"?>
<!-- The Best Svg Icon site in the world: iconSvg.co, Visit us! https://iconsvg.co -->
<svg fill="#000000" width="800px" height="800px" version="1.1" viewBox="144 144 512 512" xmlns="http://www.w3.org/2000/svg">
 <g>
  <path d="m258.3 297.66c0 4.3477-3.5234 7.8711-7.8711 7.8711-4.3477 0-7.8711-3.5234-7.8711-7.8711 0-4.3477 3.5234-7.875 7.8711-7.875 4.3477 0 7.8711 3.5273 7.8711 7.875"/>
  <path d="m621.37 376.38c-8.6094 0.023438-16.867-3.3984-22.938-9.5-9.0156-9.0703-21.285-14.152-34.07-14.117h-172.23c-17.422-0.019531-34.227-6.4492-47.211-18.062-12.988-11.613-21.246-27.602-23.203-44.914 10.359-0.125 20.254-4.3242 27.539-11.691 7.2852-7.3672 11.375-17.309 11.387-27.668 0-2.0859-0.82812-4.0898-2.3047-5.5664-1.4766-1.4766-3.4766-2.3047-5.5664-2.3047h-31.488v-7.8711c0-6.2656 2.4883-12.273 6.918-16.699 4.4297-4.4297 10.438-6.918 16.699-6.918h9.2188c8.4375 0 16.234-4.5 20.453-11.809 4.2188-7.3086 4.2188-16.309 0-23.617-4.2188-7.3047-12.016-11.809-20.453-11.809h-9.2188c-18.785 0.023437-36.793 7.4922-50.074 20.777-13.281 13.281-20.754 31.289-20.773 50.074v10.195l-104.98 37.5c-3.1328 1.1172-5.2266 4.082-5.2305 7.4062v55.105c0 2.0859 0.83203 4.0898 2.3086 5.5664 1.4766 1.4766 3.4766 2.3047 5.5664 2.3047h7.8711v39.359h7.8711c10.438-0.011719 20.441-4.1602 27.82-11.539 7.3789-7.3789 11.527-17.383 11.539-27.82h15.742l0.003906 85.469c-0.035156 22.066 8.418 43.305 23.617 59.305v122.88h31.488v7.875c0 2.0859 0.82813 4.0898 2.3047 5.5664 1.4766 1.4727 3.4766 2.3047 5.5664 2.3047h31.488c2.0859 0 4.0898-0.83203 5.5664-2.3047 1.4766-1.4766 2.3047-3.4805 2.3047-5.5664v-86.594c0-4.3477 3.5234-7.8711 7.8711-7.8711h165.31v86.59h31.488v7.875c0 2.0859 0.82812 4.0898 2.3047 5.5664 1.4766 1.4727 3.4805 2.3047 5.5664 2.3047h31.488c2.0898 0 4.0898-0.83203 5.5664-2.3047 1.4766-1.4766 2.3086-3.4805 2.3086-5.5664v-188.93c-0.023437-5.2852-0.52734-10.555-1.5117-15.746h1.5117c10.434-0.011719 20.438-4.1602 27.816-11.539 7.3789-7.3789 11.531-17.383 11.543-27.82v-7.8711zm-276.47-196.8h9.2188c4.3477 0 7.8711 3.5234 7.8711 7.8711s-3.5234 7.8711-7.8711 7.8711h-9.2188c-10.434 0.015625-20.438 4.1641-27.816 11.543-7.3789 7.3789-11.531 17.383-11.543 27.82v7.8711h-15.746v-7.8711c0.019532-14.609 5.8281-28.617 16.16-38.949 10.328-10.328 24.336-16.141 38.945-16.156zm-149.57 195.45v-22.27h15.746c-0.007812 4.8828-1.5234 9.6445-4.3398 13.633-2.8203 3.9844-6.8047 7.0039-11.406 8.6367zm102.34 229.64h-15.746v-90.625c1.332 1.6367 2.582 3.3203 3.7539 5.0547 0.29297 0.43359 0.54297 0.89063 0.78906 1.332 0.89062 1.3867 1.7461 2.7852 2.543 4.2266 0.37109 0.68359 0.69922 1.3867 1.0547 2.0781 0.62109 1.2422 1.2266 2.4883 1.7773 3.7617 0.33984 0.78906 0.63672 1.5742 0.94531 2.3633 0.48438 1.2383 0.92969 2.4922 1.3477 3.7617 0.26953 0.78906 0.51953 1.6367 0.78906 2.4727 0.37109 1.2891 0.68359 2.5977 0.97656 3.9375 0.17969 0.78906 0.37891 1.6211 0.52734 2.4492 0.26953 1.4414 0.46484 2.9062 0.64453 4.3672 0.085938 0.70703 0.20312 1.418 0.27734 2.1328 0.20312 2.1875 0.32422 4.3828 0.32422 6.6133zm251.91 0h-15.746v-70.848h7.8711c2.0859 0 4.0898 0.82812 5.5664 2.3047 1.4766 1.4766 2.3047 3.4766 2.3047 5.5664zm31.488 15.742h-15.746v-78.719c0-6.2656-2.4883-12.27-6.918-16.699-4.4297-4.4297-10.438-6.918-16.699-6.918h-188.93c-6.2617 0-12.27 2.4883-16.699 6.918-4.4297 4.4297-6.918 10.434-6.918 16.699v78.719h-15.742v-61.848c0.0625-22.98-9.0703-45.027-25.363-61.23l-8.9883-8.9883c-13.336-13.262-20.809-31.309-20.754-50.113v-93.34c0-2.0898-0.82812-4.0898-2.3047-5.5664-1.4766-1.4766-3.4766-2.3047-5.5664-2.3047h-70.848v-15.746h23.617v-15.742h-23.617v-10.195l103.69-37.039h60.27-0.003907c-1.6328 4.6016-4.6484 8.5859-8.6328 11.402-3.9844 2.8203-8.7461 4.3359-13.629 4.3438h-7.8711c-4.3477 0-7.8711 3.5234-7.8711 7.8711 0.023438 22.957 9.1562 44.969 25.391 61.203 16.23 16.234 38.242 25.363 61.199 25.391h118.08c18.785 0.007812 36.801 7.4766 50.086 20.762 13.285 13.285 20.75 31.297 20.762 50.086zm15.742-212.54h-5.9336c-0.070313-0.17188-0.17188-0.33203-0.24219-0.50391h-0.003906c-1.4023-3.5156-3.0352-6.9336-4.8828-10.234-0.29297-0.51953-0.57422-1.0391-0.875-1.5742-1.8477-3.168-3.8984-6.2109-6.1367-9.1172-0.37891-0.48828-0.78906-0.97656-1.1484-1.457l-0.003906 0.003906c-2.2695-2.8359-4.7188-5.5234-7.3281-8.0469-0.41797-0.40234-0.84375-0.78906-1.2578-1.1641-2.6914-2.5078-5.5391-4.8398-8.5273-6.9844-0.125-0.09375-0.23438-0.20312-0.36328-0.30078h4.2578l0.003906 0.003906c8.6094-0.027344 16.867 3.3945 22.938 9.5 8.4609 8.5117 19.809 13.527 31.797 14.059-1.6172 4.625-4.6328 8.6289-8.6289 11.461-3.9922 2.832-8.7695 4.3555-13.664 4.3555z"/>
 </g>
</svg>