<?xml version="1.0" encoding="UTF-8"?>
<!-- The Best Svg Icon site in the world: iconSvg.co, Visit us! https://iconsvg.co -->
<svg fill="#000000" width="800px" height="800px" version="1.1" viewBox="144 144 512 512" xmlns="http://www.w3.org/2000/svg">
 <path d="m239.23 568.89c0.42578 0.23438 0.85156 0.45703 1.2734 0.66016 10.66 5.3359 21.93 8.1406 33.535 8.1406 25.316 0 49.121-13.367 68.094-37.203 25.238-31.723 42.117-82.781 42.117-140.48s-16.879-108.76-42.117-140.48c-14.5-18.215-31.82-30.309-50.477-35-0.25-0.078125-0.50391-0.14062-0.76953-0.1875-5.5117-1.3398-11.148-2.0156-16.848-2.0156-25.316 0-49.121 13.367-68.094 37.203-25.238 31.723-42.117 82.781-42.117 140.48s16.879 108.76 42.117 140.48c9.9336 12.484 21.191 22.09 33.281 28.402zm269.87-344.56c-0.26953 0.046875-0.51953 0.10938-0.76953 0.1875-18.656 4.6914-35.977 16.781-50.477 35-25.238 31.723-42.117 82.781-42.117 140.48s16.879 108.76 42.117 140.48c18.973 23.836 42.777 37.203 68.094 37.203 11.602 0 22.875-2.8008 33.535-8.1406 0.42578-0.20312 0.85156-0.42578 1.2734-0.66016 12.09-6.3125 23.348-15.918 33.281-28.402 25.238-31.723 42.117-82.781 42.117-140.48s-16.879-108.76-42.117-140.48c-18.973-23.836-42.777-37.203-68.094-37.203-5.6992 0-11.336 0.67578-16.848 2.0156zm-212.32 36.023-12.172 33.52c-9.0195 24.828-8.7695 52.082 0.70703 76.738 12.219 31.773 13.539 66.691 3.7617 99.297l-22.672 75.57c2.5039 0.47266 5.0547 0.72266 7.6367 0.72266 16.406 0 31.156-9.8711 43.453-25.332 21.664-27.223 35.266-71.32 35.266-120.87s-13.602-93.645-35.266-120.87c-6.2969-7.918-13.242-14.375-20.719-18.781zm206.44 0c-7.4766 4.4102-14.422 10.863-20.719 18.781-21.664 27.223-35.266 71.32-35.266 120.87s13.602 93.645 35.266 120.87c12.297 15.461 27.047 25.332 43.453 25.332 2.582 0 5.1328-0.25 7.6367-0.72266l-22.672-75.57c-9.7773-32.605-8.4531-67.527 3.7617-99.297 9.4766-24.656 9.7305-51.906 0.70703-76.738l-12.172-33.52zm-237.89-5.6055c-12.926 2.8008-24.656 11.715-34.73 24.387-21.664 27.223-35.266 71.32-35.266 120.87s13.602 93.645 35.266 120.87c2.4883 3.1328 5.0703 6.0156 7.7305 8.6445l20.594-68.66c7.7773-25.914 6.7227-53.688-2.9922-78.941-12.203-31.754-12.531-66.832-0.91406-98.793zm269.35 0 10.312 28.371c11.617 31.961 11.289 67.039-0.91406 98.793-9.7148 25.254-10.77 53.027-2.9922 78.941l20.594 68.66c2.6602-2.6289 5.2422-5.5117 7.7305-8.6445 21.664-27.223 35.266-71.32 35.266-120.87s-13.602-93.645-35.266-120.87c-10.078-12.676-21.805-21.586-34.73-24.387z" fill-rule="evenodd"/>
</svg>