<?xml version="1.0" encoding="UTF-8"?>
<!-- The Best Svg Icon site in the world: iconSvg.co, Visit us! https://iconsvg.co -->
<svg fill="#000000" width="800px" height="800px" version="1.1" viewBox="144 144 512 512" xmlns="http://www.w3.org/2000/svg">
 <g>
  <path d="m596.48 591.45h-78.465v-60.098c2.7227 2.1445 5.75 3.9102 9.0938 5.1094 3.543 1.2695 7.2031 1.9023 10.855 1.9023 4.7422 0 9.4648-1.0664 13.875-3.1914 13.625-6.5625 20.586-21.465 17.699-35.695 14.613-0.20703 27.773-10.355 31.164-25.219 3.3711-14.762-3.957-29.512-16.859-36.102 8.9492-11.551 9.2188-28.168-0.28125-40.082-5.4023-6.7734-13.117-11.039-21.727-12.008-5.8984-0.67969-11.742 0.26953-17.008 2.6719-3.457-14.195-16.277-24.762-31.512-24.762-15.133 0-27.875 10.426-31.438 24.469-5.3398-2.4844-11.266-3.4648-17.285-2.8008-8.6094 0.96875-16.324 5.2344-21.727 12.008-9.4258 11.828-9.2305 28.289-0.46094 39.844-13.074 6.5234-20.531 21.383-17.137 36.246 1.9297 8.4492 7.0312 15.637 14.363 20.246 5.0391 3.1641 10.715 4.8516 16.492 4.9805-3.0469 14.289 3.918 29.367 17.648 35.98 7.8086 3.7656 16.645 4.2148 24.887 1.293 3.4219-1.2109 6.5195-2.9961 9.293-5.1719l-0.011719 60.379h-215.7v-60.098c2.7227 2.1445 5.75 3.9062 9.0859 5.1055 3.543 1.2695 7.2031 1.9023 10.855 1.9023 4.7422 0 9.4648-1.0664 13.875-3.1914 13.645-6.5742 20.605-21.504 17.711-35.695 14.602-0.21094 27.758-10.363 31.152-25.219 3.3711-14.762-3.9609-29.512-16.859-36.102 8.9453-11.551 9.2148-28.172-0.28516-40.082-5.4023-6.7734-13.117-11.039-21.723-12.008-5.8984-0.67969-11.742 0.26953-17.012 2.6719-3.457-14.195-16.277-24.762-31.512-24.762-15.129 0-27.871 10.426-31.434 24.469-5.3438-2.4844-11.277-3.4648-17.289-2.8008-8.6094 0.96875-16.324 5.2344-21.723 12.008-9.4219 11.816-9.2344 28.262-0.45703 39.836-13.078 6.5195-20.535 21.383-17.141 36.25 1.9219 8.4492 7.0273 15.637 14.355 20.246 5.0391 3.1641 10.715 4.8516 16.492 4.9805-3.0469 14.289 3.918 29.367 17.648 35.98 7.8086 3.7656 16.645 4.2148 24.887 1.293 3.4258-1.2148 6.5234-3.0039 9.2969-5.1758l-0.003906 60.391h-78.656c-2.7852 0-5.0391 2.2539-5.0391 5.0391s2.2539 5.0391 5.0391 5.0391h392.97c2.7852 0 5.0391-2.2539 5.0391-5.0391s-2.2539-5.0391-5.0391-5.0391zm-101.2-64.711c-5.707 2.0117-11.789 1.707-17.156-0.87891-11.105-5.3477-15.785-18.734-10.363-29.977 0.035157-0.0625 0.26172-0.47266 0.28906-0.53516 0.89453-1.7578 0.68359-3.8711-0.53516-5.4102-1.2188-1.543-3.2227-2.2188-5.1445-1.7695l-0.53125 0.15234c-5.8203 1.3281-11.805 0.30859-16.859-2.8633-5.0586-3.1797-8.5703-8.1367-9.9023-13.957-2.7422-12.02 4.8008-24.031 16.945-26.789 0.078125-0.015625 0.5625-0.097656 0.64062-0.11328 1.9336-0.39844 3.4531-1.8906 3.8906-3.8125 0.44141-1.9219-0.28516-3.9258-1.8516-5.1211l-0.42188-0.30078c-9.6367-7.6914-11.227-21.785-3.543-31.43 3.7188-4.6641 9.0391-7.6055 14.973-8.2773 5.9297-0.66016 11.77 1.0117 16.582 4.8672 0.042969 0.042969 0.35547 0.32031 0.40234 0.35938 1.5156 1.2773 3.6445 1.5547 5.4258 0.70312 1.7891-0.85547 2.9141-2.6797 2.8672-4.6641l-0.035156-0.50781c0-12.328 10.027-22.363 22.352-22.363s22.352 10.031 22.34 22.527c-0.003906 0.058593-0.03125 0.48828-0.03125 0.54688-0.070313 1.9922 1.2266 3.6758 3.0156 4.543 1.8047 0.87891 4.1094 0.44141 5.6328-0.85547 4.6602-3.7188 10.48-5.4336 16.434-4.7344 5.9336 0.66797 11.254 3.6055 14.973 8.2773 7.6836 9.6367 6.0977 23.734-3.543 31.426l2.5273 3.9961-0.011718 0.050781-3.0547-3.6641c-1.6094 1.1719-2.375 3.1719-1.9648 5.1172 0.41406 1.9453 1.9336 3.4648 3.8711 3.8789 0.054688 0.015625 0.45312 0.082031 0.58203 0.10938 12 2.75 19.531 14.75 16.793 26.762-2.7461 12.02-14.727 19.562-26.887 16.785-0.0625-0.023438-0.51562-0.15234-0.58594-0.16797-1.9141-0.48828-3.9375 0.17188-5.1758 1.707-1.2461 1.5352-1.4727 3.6562-0.58984 5.4219l0.26562 0.48047c5.3477 11.109 0.66797 24.5-10.441 29.852-5.3438 2.5742-11.359 2.8867-16.945 0.88672-5.5898-2.0078-10.102-6.0977-12.762-11.645-0.023437-0.070312-0.21094-0.50781-0.24219-0.57422-0.81641-1.7969-2.6875-2.75-4.6602-2.75-0.015624 0-0.03125 0.003906-0.042968 0.003906-1.9922 0.015625-3.8672 1.4023-4.6641 3.2266-2.5938 5.375-7.1562 9.457-12.855 11.48zm-225.78 0c-5.707 2.0117-11.785 1.707-17.156-0.87891-11.105-5.3477-15.785-18.734-10.355-29.984 0.03125-0.050782 0.23047-0.41406 0.25391-0.46875 0.92578-1.7461 0.74219-3.8711-0.47266-5.4375-1.207-1.5703-3.2188-2.2734-5.1445-1.8164l-0.5625 0.15625c-5.8242 1.3281-11.812 0.30859-16.867-2.8633-5.0547-3.1797-8.5703-8.1328-9.8984-13.957-2.7422-12.02 4.8008-24.031 16.945-26.789 0.074219-0.015624 0.55078-0.09375 0.625-0.11328 1.9375-0.39453 3.4648-1.8789 3.9062-3.8047 0.44141-1.9297-0.28125-3.9375-1.8516-5.1328l-0.42969-0.30078c-9.6367-7.6914-11.223-21.785-3.5391-31.43 3.7188-4.668 9.0312-7.6055 14.965-8.2773 5.9531-0.65625 11.773 1.0195 16.562 4.8516 0.050781 0.042969 0.375 0.32812 0.42187 0.375 1.5156 1.2852 3.6367 1.3125 5.4102 0.44922 1.7891-0.85156 2.8984-2.9336 2.8555-4.9141 0-12.328 10.027-22.363 22.348-22.363 12.324 0 22.352 10.031 22.34 22.527-0.003907 0.058594-0.03125 0.48828-0.03125 0.54688-0.070313 1.9922 1.2266 3.6758 3.0156 4.543 1.8125 0.87891 4.1133 0.44141 5.6289-0.85156 4.6758-3.7305 10.52-5.4102 16.438-4.7383 5.9336 0.66797 11.254 3.6055 14.973 8.2773 7.6836 9.6367 6.0977 23.734-3.5117 31.406l2.5039 3.9883-0.015624 0.054687-3.0547-3.6445c-1.6094 1.1719-2.375 3.1719-1.9648 5.1172 0.41406 1.9453 1.9336 3.4648 3.8711 3.8789 0.054688 0.015625 0.45312 0.082031 0.58203 0.10938 12.004 2.75 19.539 14.75 16.797 26.762-2.7461 12.016-14.727 19.547-26.902 16.781-0.0625-0.019531-0.50781-0.14844-0.57422-0.16406-1.9297-0.53125-3.8672 0.38281-5.1016 1.9453-1.2344 1.5664-1.3242 3.9062-0.39844 5.668 5.3477 11.109 0.66797 24.5-10.441 29.852-5.3438 2.5742-11.359 2.8867-16.945 0.88672-5.5898-2.0078-10.102-6.0977-12.762-11.656-0.023437-0.054688-0.18359-0.44141-0.20312-0.49609-0.79688-1.8164-2.582-3-4.5664-3.0195h-0.054687c-1.9648 0-3.75 1.1406-4.5742 2.9258l-0.21094 0.50781c-2.5898 5.3867-7.1562 9.4688-12.852 11.492z"/>
  <path d="m361.45 289.05c0 21.254 17.293 38.547 38.555 38.547 21.258 0 38.555-17.293 38.555-38.547 0-21.258-17.293-38.555-38.555-38.555-21.262 0.003906-38.555 17.297-38.555 38.555zm38.555-28.477c15.703 0 28.477 12.773 28.477 28.477 0 15.699-12.773 28.473-28.477 28.473s-28.477-12.773-28.477-28.473c-0.003907-15.703 12.77-28.477 28.477-28.477z"/>
  <path d="m405.04 227.87v-24.355c0-2.7852-2.2539-5.0391-5.0391-5.0391s-5.0391 2.2539-5.0391 5.0391v24.355c0 2.7852 2.2539 5.0391 5.0391 5.0391 2.7891 0 5.0391-2.2539 5.0391-5.0391z"/>
  <path d="m361.59 212.45c-1.3984-2.4141-4.4805-3.2344-6.8828-1.8438-2.4102 1.3906-3.2383 4.4727-1.8438 6.8828l12.176 21.094c0.93359 1.6172 2.6289 2.5195 4.3672 2.5195 0.85547 0 1.7227-0.21484 2.5156-0.67578 2.4102-1.3906 3.2383-4.4727 1.8438-6.8828z"/>
  <path d="m349.53 254.09-21.094-12.176c-2.4102-1.3906-5.4922-0.56641-6.8828 1.8438-1.3906 2.4102-0.56641 5.4922 1.8438 6.8828l21.094 12.176c0.79297 0.45703 1.6562 0.67578 2.5156 0.67578 1.7422 0 3.4336-0.90625 4.3672-2.5195 1.3945-2.4102 0.57031-5.4883-1.8438-6.8828z"/>
  <path d="m309.42 289.05c0 2.7852 2.2539 5.0391 5.0391 5.0391h24.355c2.7852 0 5.0391-2.2539 5.0391-5.0391 0-2.7852-2.2539-5.0391-5.0391-5.0391h-24.355c-2.7852 0.003906-5.0391 2.2539-5.0391 5.0391z"/>
  <path d="m344.49 315.28-21.094 12.176c-2.4102 1.3906-3.2383 4.4727-1.8438 6.8828 0.93359 1.6172 2.6289 2.5195 4.3672 2.5195 0.85547 0 1.7227-0.21484 2.5156-0.67578l21.094-12.176c2.4102-1.3906 3.2383-4.4727 1.8438-6.8828-1.3945-2.4141-4.4844-3.2383-6.8828-1.8438z"/>
  <path d="m354.71 367.49c0.79297 0.45703 1.6562 0.67578 2.5156 0.67578 1.7422 0 3.4336-0.90625 4.3672-2.5195l12.176-21.094c1.3906-2.4102 0.56641-5.4922-1.8438-6.8828-2.4102-1.3984-5.4922-0.56641-6.8828 1.8438l-12.176 21.094c-1.3945 2.4102-0.56641 5.4922 1.8438 6.8828z"/>
  <path d="m394.96 350.23v24.355c0 2.7852 2.2539 5.0391 5.0391 5.0391s5.0391-2.2539 5.0391-5.0391v-24.355c0-2.7852-2.2539-5.0391-5.0391-5.0391s-5.0391 2.2539-5.0391 5.0391z"/>
  <path d="m434.96 339.52c-1.3984-2.4141-4.4805-3.2422-6.8828-1.8438-2.4102 1.3906-3.2383 4.4727-1.8438 6.8828l12.176 21.094c0.93359 1.6172 2.6289 2.5195 4.3672 2.5195 0.85547 0 1.7227-0.21484 2.5156-0.67578 2.4102-1.3906 3.2383-4.4727 1.8438-6.8828z"/>
  <path d="m450.47 324.01 21.094 12.176c0.79297 0.45703 1.6562 0.67578 2.5156 0.67578 1.7422 0 3.4336-0.90625 4.3672-2.5195 1.3906-2.4102 0.56641-5.4922-1.8438-6.8828l-21.094-12.176c-2.4062-1.3906-5.4922-0.5625-6.8828 1.8438-1.3945 2.4102-0.56641 5.4922 1.8438 6.8828z"/>
  <path d="m456.14 289.05c0 2.7852 2.2539 5.0391 5.0391 5.0391h24.355c2.7852 0 5.0391-2.2539 5.0391-5.0391 0-2.7852-2.2539-5.0391-5.0391-5.0391h-24.355c-2.7852 0.003906-5.0391 2.2539-5.0391 5.0391z"/>
  <path d="m471.56 241.92-21.094 12.176c-2.4062 1.3945-3.2344 4.4727-1.8438 6.8867 0.93359 1.6172 2.6289 2.5195 4.3672 2.5195 0.85547 0 1.7227-0.21484 2.5156-0.67578l21.094-12.176c2.4102-1.3906 3.2383-4.4727 1.8438-6.8828-1.3945-2.418-4.4844-3.2383-6.8828-1.8477z"/>
  <path d="m445.29 210.61c-2.4062-1.3867-5.4961-0.5625-6.8828 1.8438l-12.176 21.094c-1.3906 2.4102-0.56641 5.4922 1.8438 6.8828 0.79297 0.45703 1.6562 0.67578 2.5156 0.67578 1.7422 0 3.4336-0.90625 4.3672-2.5195l12.176-21.094c1.3906-2.4141 0.56641-5.4922-1.8438-6.8828z"/>
 </g>
</svg>