<?xml version="1.0" encoding="UTF-8"?>
<!-- The Best Svg Icon site in the world: iconSvg.co, Visit us! https://iconsvg.co -->
<svg fill="#000000" width="800px" height="800px" version="1.1" viewBox="144 144 512 512" xmlns="http://www.w3.org/2000/svg">
 <path d="m576.32 302.22-2.8594-82.25c2.7539-0.035156 4.9766-2.2656 4.9766-5.0273l-0.003906-29.062c0-5.5586-4.5234-10.078-10.078-10.078h-40.992c-5.5547 0-10.078 4.5195-10.078 10.078v29.062c0 2.7617 2.2227 4.9883 4.9766 5.0273l-2.8594 82.25c-26.004 4.5547-45.848 27.246-45.848 54.531v252.33c0 8.3359 6.7812 15.113 15.113 15.113h118.38c8.3359 0 15.113-6.7812 15.113-15.113l0.007812-252.33c0-27.285-19.844-49.977-45.844-54.531zm-48.953-116.34h40.992v24.023h-40.992zm38.84 115.45h-36.691l2.8281-81.352h31.035zm45.883 307.75c0 2.7812-2.2578 5.0391-5.0391 5.0391h-118.38c-2.7812 0-5.0391-2.2578-5.0391-5.0391v-67.586h128.45zm0-77.66h-128.45v-137.31h128.45zm0-147.38h-128.45v-27.281c0-25 20.34-45.344 45.344-45.344h37.766c25.004 0 45.344 20.344 45.344 45.344zm-64.227 133.81c23.598 0 42.793-24.707 42.793-55.078s-19.199-55.078-42.793-55.078c-23.598-0.003906-42.797 24.703-42.797 55.074 0 30.371 19.199 55.082 42.797 55.082zm0-100.08c18.043 0 32.719 20.188 32.719 45.004s-14.676 45.004-32.719 45.004-32.719-20.188-32.719-45.004c0-24.82 14.676-45.004 32.719-45.004zm-284.91 128.26c-4.1602 0-8.1523 0.69922-11.898 1.9453-7.3047-10.328-19.316-17.102-32.902-17.102-22.227 0-40.309 18.082-40.309 40.305 0 22.23 18.082 40.309 40.309 40.309 5.6172 0 10.969-1.1641 15.832-3.25 6.9531 8.2617 17.352 13.527 28.969 13.527 20.879 0 37.867-16.984 37.867-37.863 0-20.883-16.988-37.871-37.867-37.871zm-37.871 37.871c0 5.582 1.2461 10.867 3.4258 15.645-3.2383 1.1875-6.7148 1.8672-10.355 1.8672-16.668 0-30.23-13.562-30.23-30.234 0-16.668 13.562-30.23 30.23-30.23 9.6055 0 18.16 4.5195 23.703 11.523-10.109 6.8086-16.773 18.352-16.773 31.43zm37.871 27.785c-15.324 0-27.793-12.469-27.793-27.789 0-15.324 12.469-27.793 27.793-27.793 15.324 0 27.789 12.469 27.789 27.793s-12.465 27.789-27.789 27.789zm136.99-68.098c-22.227 0-40.309 18.082-40.309 40.309 0 22.223 18.082 40.305 40.309 40.305 22.23 0 40.309-18.082 40.309-40.305 0-22.227-18.082-40.309-40.309-40.309zm0 70.539c-16.668 0-30.23-13.559-30.23-30.227s13.562-30.234 30.23-30.234c16.668 0 30.234 13.566 30.234 30.234s-13.566 30.227-30.234 30.227zm-123.05-226.06c-2.5625 5.5586-7.3711 9.8047-13.191 11.648-0.38281 0.12109-0.76562 0.17578-1.1406 0.17578-1.6055 0-3.0938-1.0273-3.6016-2.6367-0.62891-1.9883 0.47266-4.1133 2.4609-4.7422 3.8008-1.2031 6.9414-3.9766 8.6133-7.6094 0.87109-1.8984 3.1055-2.7344 5.0117-1.8516 1.8906 0.875 2.7227 3.1172 1.8477 5.0156zm46.16 9.1875c-0.62891-1.9883 0.47266-4.1133 2.4609-4.7422 3.8008-1.2031 6.9414-3.9766 8.6133-7.6094 0.87109-1.8984 3.1094-2.7344 5.0117-1.8516 1.8945 0.875 2.7227 3.1172 1.8516 5.0117-2.5625 5.5586-7.3711 9.8047-13.191 11.648-0.38281 0.12109-0.76562 0.17578-1.1406 0.17578-1.6094 0.003906-3.0977-1.0234-3.6055-2.6328zm66.559-4.7422c3.7969-1.2031 6.9375-3.9766 8.6094-7.6094 0.87109-1.8984 3.1055-2.7344 5.0117-1.8516 1.8945 0.875 2.7227 3.1172 1.8516 5.0117-2.5625 5.5586-7.3711 9.8047-13.191 11.648-0.38281 0.12109-0.76562 0.17578-1.1406 0.17578-1.6055 0-3.0938-1.0273-3.6016-2.6367-0.62891-1.9883 0.47266-4.1094 2.4609-4.7383zm-80.668 51.133c-2.5625 5.5547-7.3711 9.8008-13.191 11.645-0.37891 0.12109-0.76562 0.17578-1.1406 0.17578-1.6055 0-3.0938-1.0273-3.6016-2.6367-0.63281-1.9883 0.46875-4.1133 2.4609-4.7422 3.7969-1.207 6.9414-3.9805 8.6133-7.6094 0.87109-1.8945 3.1133-2.7266 5.0117-1.8438 1.8906 0.87109 2.7188 3.1133 1.8477 5.0117zm81.441-9.0664c0-6.7383-1.8359-13.043-4.9883-18.496 20.426-0.027343 37.035-16.652 37.035-37.082 0-9.3398-3.5-17.863-9.2188-24.391-1.0117-11.297-6.8047-19.922-13.051-25.672l12.016-3.0156c1.832-0.45703 3.2461-1.8984 3.6797-3.7305 0.42969-1.8359-0.19531-3.7578-1.6289-4.9805l-14.039-12c-7.9219-7.5859-15.969-11.219-24.176-10.926-9.6875 0.40625-16.348 6.3633-19.453 9.8789-1.4492 1.6367-3 3.1758-4.5352 4.7305l-25.734-25.734v-10.418h26.023c2.7812 0 5.0391-2.2539 5.0391-5.0391 0-2.7812-2.2539-5.0391-5.0391-5.0391h-62.129c-2.7812 0-5.0391 2.2539-5.0391 5.0391 0 2.7812 2.2539 5.0391 5.0391 5.0391h26.027v10.418l-25.734 25.734c-1.5352-1.5547-3.0898-3.0898-4.5352-4.7266-3.1094-3.5195-9.7695-9.4766-19.457-9.8828-8.1562-0.32422-16.25 3.3359-23.969 10.734l-14.246 12.188c-1.4336 1.2266-2.0625 3.1445-1.6328 4.9805 0.43359 1.832 1.8516 3.2734 3.6758 3.7305l12.02 3.0156c-6.25 5.75-12.043 14.371-13.055 25.668-5.7227 6.5273-9.2188 15.051-9.2188 24.391 0 20.43 16.613 37.055 37.039 37.082-3.1562 5.4531-4.9883 11.758-4.9883 18.496 0 20.43 16.609 37.055 37.035 37.078-3.1562 5.4531-4.9883 11.758-4.9883 18.496 0 20.449 16.637 37.086 37.086 37.086s37.086-16.641 37.086-37.086c0-6.7383-1.8359-13.043-4.9883-18.496 20.434-0.015625 37.043-16.641 37.043-37.07zm20.773-62.723c0.019531-0.066406 0.035157-0.12891 0.054688-0.19531 0.66797 2.3477 1.1406 4.7773 1.1406 7.3398 0 14.895-12.117 27.008-27.008 27.008-14.629 0-26.512-11.711-26.93-26.238 1.7266-0.49219 3.0742-1.8438 3.5156-3.5977l3.0156-12.016c8.3867 9.1211 22.887 17.27 42.918 11 1.5664-0.49609 2.8008-1.7266 3.293-3.3008zm-64.309-43.758c1.7891-1.582 3.4766-3.2773 5.1758-4.957l2.8594 2.8594-3.8711 11.605c-0.87891 2.6406 0.54688 5.4922 3.1875 6.375 0.52734 0.17578 1.0664 0.26172 1.5938 0.26172 2.1094 0 4.0781-1.3359 4.7812-3.4453l2.2773-6.8281 17.695 17.695c0.98438 0.98438 2.2734 1.4766 3.5625 1.4766 1.2891 0 2.5781-0.49219 3.5625-1.4766 1.9688-1.9688 1.9688-5.1562 0-7.125l-17.695-17.695 6.8281-2.2773c2.6406-0.87891 4.0664-3.7344 3.1875-6.375-0.87891-2.6367-3.7227-4.0781-6.375-3.1875l-11.605 3.8672-2.8594-2.8594c1.6797-1.6992 3.3789-3.3867 4.9609-5.1797 1.6445-1.8633 6.1445-6.2266 12.324-6.4844 5.293-0.21484 10.922 2.5156 17 8.3203l6.832 5.8516-13.281 3.332c-2.0625 0.51562-3.5781 2.2734-3.7891 4.3867-0.21094 2.1172 0.92969 4.1367 2.8516 5.0469 0.9375 0.44531 22.137 10.84 16.219 34.965-23.938 5.8359-34.52-15.301-34.965-16.219-0.83984-1.7695-2.6211-2.875-4.5469-2.875-0.16797 0-0.33203 0.007813-0.5 0.023438-2.1172 0.21094-3.8711 1.7227-4.3867 3.7891l-3.332 13.285-6.0391-7.0508c-5.6172-5.8711-8.3516-11.516-8.1328-16.785 0.24609-6.168 4.6133-10.672 6.4805-12.32zm-20.559-30.691 18.609 18.609c-1.5547 1.5352-3.0898 3.0859-4.7266 4.5352-3.5195 3.1055-9.4766 9.7695-9.8828 19.457-0.042969 1.0273-0.019532 2.0547 0.066406 3.082-1.332-0.33594-2.6836-0.60547-4.0664-0.79297zm-5.0391 54.582c4.8906 0 9.418 1.4062 13.379 3.6875 1.668 2.8047 3.7891 5.5781 6.3945 8.3008l5.8203 6.8008c0.83984 2.6094 1.418 5.3359 1.418 8.2227 0 14.895-12.117 27.008-27.012 27.008s-27.012-12.117-27.012-27.008c0-2.8906 0.57813-5.6211 1.4219-8.2344l5.625-6.582c2.6875-2.8086 4.8594-5.6406 6.5586-8.4922 3.9688-2.293 8.5039-3.7031 13.406-3.7031zm-5.0391-54.582v44.887c-1.3828 0.1875-2.7383 0.45703-4.0703 0.79297 0.085938-1.0273 0.10938-2.0508 0.066406-3.0781-0.40234-9.6875-6.3633-16.352-9.8789-19.461-1.6367-1.4453-3.1758-3-4.7266-4.5352zm-59.762 33.891c1.9219-0.91406 3.0586-2.9336 2.8516-5.0469-0.21094-2.1172-1.7227-3.8711-3.7852-4.3867l-13.285-3.3359 7.0469-6.0352c5.8711-5.6172 11.5-8.3516 16.789-8.1328 6.1797 0.25781 10.68 4.6211 12.328 6.4883 1.582 1.7891 3.2812 3.4766 4.9609 5.1758l-2.8594 2.8594-11.609-3.8672c-2.6445-0.89062-5.4922 0.54688-6.375 3.1875-0.87891 2.6406 0.54688 5.4922 3.1875 6.375l6.8281 2.2773-17.695 17.695c-1.9688 1.9688-1.9688 5.1562 0 7.125 0.98438 0.98438 2.2734 1.4766 3.5625 1.4766 1.2891 0 2.5781-0.49219 3.5625-1.4766l17.695-17.695 2.2773 6.8281c0.70312 2.1094 2.668 3.4453 4.7812 3.4453 0.52734 0 1.0664-0.082032 1.5938-0.26172 2.6406-0.87891 4.0664-3.7344 3.1875-6.375l-3.8711-11.609 2.8594-2.8594c1.6992 1.6797 3.3867 3.375 5.1758 4.957 1.8633 1.6523 6.2305 6.1523 6.4883 12.332 0.21875 5.2695-2.5156 10.918-8.3203 16.992l-5.8516 6.8359-3.332-13.281c-0.51562-2.0547-2.2656-3.5586-4.375-3.7773-2.1367-0.21094-4.1328 0.91797-5.0547 2.8242-0.45703 0.93359-11.023 22.07-34.973 16.234-5.8555-23.957 15.293-34.523 16.211-34.969zm-26.305 47.703c0-2.5625 0.47266-4.9922 1.1445-7.3438 0.019531 0.066407 0.035156 0.13281 0.054687 0.19922 0.49609 1.5742 1.7227 2.8047 3.3008 3.3008 20.012 6.2773 34.523-1.8828 42.914-11l3.0156 12.016c0.4375 1.7539 1.7891 3.1016 3.5156 3.5938-0.41797 14.531-12.301 26.238-26.93 26.238-14.898 0.003906-27.016-12.113-27.016-27.004zm32.047 55.578c0-14.895 12.117-27.012 27.008-27.012 14.895 0 27.012 12.117 27.012 27.012 0 14.895-12.117 27.008-27.012 27.008-14.891 0-27.008-12.113-27.008-27.008zm59.059 82.586c-14.895 0-27.012-12.117-27.012-27.012s12.117-27.012 27.012-27.012 27.012 12.117 27.012 27.012-12.121 27.012-27.012 27.012zm5.0391-82.586c0-14.895 12.117-27.012 27.012-27.012 14.895 0 27.008 12.117 27.008 27.012 0 14.895-12.117 27.008-27.008 27.008-14.895 0-27.012-12.113-27.012-27.008zm46.746 9.0625c-2.5586 5.5586-7.3672 9.8047-13.191 11.652-0.37891 0.12109-0.76562 0.17578-1.1406 0.17578-1.6055 0-3.0938-1.0273-3.6016-2.6367-0.63281-1.9883 0.46875-4.1133 2.4609-4.7422 3.8008-1.207 6.9414-3.9805 8.6133-7.6055 0.875-1.8984 3.1016-2.7109 5.0117-1.8555 1.8906 0.875 2.7227 3.1172 1.8477 5.0117zm-33.898 50.562c1.8945 0.875 2.7227 3.1211 1.8516 5.0117-2.5586 5.5586-7.3672 9.8047-13.191 11.652-0.37891 0.12109-0.76562 0.17578-1.1406 0.17578-1.6055 0-3.0938-1.0273-3.6016-2.6367-0.63281-1.9883 0.46875-4.1133 2.4609-4.7422 3.8008-1.207 6.9414-3.9805 8.6133-7.6055 0.86328-1.8945 3.1016-2.7109 5.0078-1.8555z"/>
</svg>