<?xml version="1.0" encoding="UTF-8"?>
<!-- The Best Svg Icon site in the world: iconSvg.co, Visit us! https://iconsvg.co -->
<svg fill="#000000" width="800px" height="800px" version="1.1" viewBox="144 144 512 512" xmlns="http://www.w3.org/2000/svg">
 <path d="m384.95 537.13h-62.355c-5.5586 0-10.078 4.5234-10.078 10.078v10.906c0 3.6797 2.0039 6.875 4.9609 8.6328v20.359c-11.898 2.9609-20.754 13.703-20.754 26.504v4.2422c0 8.3359 6.7812 15.113 15.113 15.113h73.191c2.7812 0 5.0391-2.2539 5.0391-5.0391v-61.18c2.957-1.7578 4.9609-4.9531 4.9609-8.6328v-10.906c0-5.5547-4.5195-10.078-10.078-10.078zm-4.9609 78.145v7.6172h-68.152c-2.7773 0-5.0391-2.2578-5.0391-5.0391v-4.2422c0-9.5195 7.7422-17.266 17.266-17.266h38.664c9.5195 0 17.262 7.7422 17.262 17.266zm0-22.84c-4.7109-3.8477-10.719-6.1641-17.262-6.1641h-35.172v-18.082h52.434zm-57.395-34.32v-10.906h62.359l0.007812 10.906zm159.94 28.992v-20.359c2.957-1.7578 4.9648-4.9531 4.9648-8.6328v-10.906c0-5.5547-4.5234-10.078-10.078-10.078h-62.359c-5.5586 0-10.078 4.5234-10.078 10.078v10.906c0 3.6797 2.0039 6.875 4.9609 8.6328v61.184c0 2.7852 2.2539 5.0391 5.0391 5.0391h73.191c8.3359 0 15.113-6.7812 15.113-15.113v-4.2422c0.003906-12.805-8.8555-23.547-20.754-26.508zm-67.473-39.898h62.359v10.906h-62.359zm57.395 20.984v18.082h-35.172c-6.543 0-12.551 2.3164-17.262 6.1641v-24.242zm20.758 49.66c0 2.7812-2.2578 5.0391-5.0391 5.0391h-68.152v-9.2812c0-9.5195 7.7422-17.266 17.262-17.266h38.664c9.5195 0 17.266 7.7422 17.266 17.266zm-64.848-168.29c0.93359-2.5586 0.80078-5.3242-0.36719-7.7852l-33.883-71.129c-6.3398-13.305-16.363-24.164-28.527-31.004 23.113-17.027 37.141-45.844 37.141-77.398 0-51.613-37.668-95.219-82.254-95.219s-82.254 43.605-82.254 95.219c0 31.555 14.027 60.367 37.141 77.398-12.164 6.8398-22.184 17.695-28.523 31l-33.883 71.133c-1.1719 2.4609-1.3008 5.2266-0.36719 7.7852 0.93359 2.5586 2.8086 4.5898 5.2891 5.7188l22.613 10.297c2.4492 1.1211 5.1875 1.2266 7.7109 0.26953 2.5234-0.94141 4.5234-2.8086 5.6406-5.2578l2.7539-6.0508-5.2852 55.277c-0.26953 2.8242 0.66797 5.6445 2.5742 7.7383 1.9062 2.1016 4.625 3.3008 7.457 3.3008h118.27c2.832 0 5.5508-1.1992 7.457-3.3008 1.9062-2.0977 2.8438-4.9141 2.5742-7.7344l-5.2891-55.285 2.7617 6.0547c1.1172 2.4453 3.1172 4.3164 5.6367 5.2539 2.5234 0.94922 5.2656 0.85156 7.7109-0.26562l22.617-10.301c2.4805-1.1289 4.3555-3.1562 5.2891-5.7148zm-152.42-179.34c0-30.535 19.977-55.379 44.531-55.379s44.531 24.844 44.531 55.379c0 30.539-19.977 55.383-44.531 55.383-24.551 0-44.531-24.844-44.531-55.383zm44.531 89.129c1.5508 0 2.8164 1.2617 2.8164 2.8125 0 1.5508-1.2656 2.8164-2.8164 2.8164s-2.8164-1.2656-2.8164-2.8164c0-1.5508 1.2656-2.8125 2.8164-2.8125zm0 45.344c1.5508 0 2.8164 1.2617 2.8164 2.8125 0 1.5508-1.2656 2.8164-2.8164 2.8164s-2.8164-1.2656-2.8164-2.8164c0-1.5508 1.2656-2.8125 2.8164-2.8125zm0 45.34c1.5508 0 2.8164 1.2656 2.8164 2.8164 0 1.5508-1.2656 2.8164-2.8164 2.8164s-2.8164-1.2656-2.8164-2.8164c0-1.5508 1.2656-2.8164 2.8164-2.8164zm75.809 6.3789-15.219-33.414c-1.0195-2.2344-3.5039-3.4297-5.8867-2.7773-2.3789 0.63281-3.9492 2.8945-3.7148 5.3438l8.1484 85.215-54.094-0.003906v-46.062c4.6133-1.9648 7.8555-6.543 7.8555-11.863 0-5.3203-3.2422-9.8984-7.8555-11.863v-21.617c4.6133-1.9648 7.8555-6.543 7.8555-11.863 0-5.3203-3.2422-9.8984-7.8555-11.863v-21.617c4.6133-1.9648 7.8555-6.543 7.8555-11.863 0-5.3203-3.2422-9.8984-7.8555-11.863l-0.003907-14.926c27.754-3.0625 49.57-31.098 49.57-65.152 0-36.094-24.496-65.457-54.605-65.457s-54.605 29.363-54.605 65.457c0 34.055 21.812 62.09 49.57 65.152v14.93c-4.6133 1.9648-7.8555 6.543-7.8555 11.863 0 5.3203 3.2422 9.8984 7.8555 11.863v21.617c-4.6133 1.9648-7.8555 6.543-7.8555 11.863 0 5.3203 3.2422 9.8984 7.8555 11.863v21.617c-4.6133 1.9648-7.8555 6.543-7.8555 11.863 0 5.3203 3.2422 9.8984 7.8555 11.863v46.062l-54.102-0.003906 8.1484-85.207c0.23438-2.4492-1.3359-4.7109-3.7148-5.3438-0.43359-0.11719-0.87109-0.17187-1.3008-0.17187-1.9375 0-3.75 1.1211-4.5859 2.9492l-15.219 33.41-22.617-10.301 33.883-71.129c6.0703-12.742 16.012-22.832 27.996-28.418 0.88672-0.41406 1.7891-0.8125 2.7148-1.1953 0.14844-0.03125 0.29297-0.0625 0.37891-0.082032 1.9766-0.51953 3.4492-2.1836 3.7188-4.2109 0.26953-2.0312-0.71484-4.0156-2.4883-5.0352-24.645-14.121-39.953-42.398-39.953-73.789 0-46.152 33.055-85.145 72.18-85.145s72.18 38.992 72.18 85.145c0 31.391-15.309 59.668-39.953 73.789-1.7734 1.0156-2.7578 3-2.4922 5.0273 0.26953 2.0234 1.7305 3.6914 3.7031 4.2148 0.13672 0.035156 0.26953 0.0625 0.41016 0.089844 0.91406 0.38281 1.8125 0.78125 2.6992 1.1914 11.984 5.5859 21.93 15.676 27.996 28.422l33.879 71.125zm191.72-96.156c0-0.042968-0.003906-0.082031-0.003906-0.12109l-3.6523-57.742c-0.33594-5.293-4.7539-9.4414-10.055-9.4414h-115.75c-5.3047 0-9.7227 4.1484-10.055 9.4414l-3.6641 57.91-0.023437 150.48c0 5.5547 4.5195 10.078 10.074 10.078l43.684-0.003906c5.4453 0 9.8711-4.2656 10.066-9.7109l4.8711-134.28c0.078124-2.1289 1.418-3.9297 2.9219-3.9297 1.5117 0 2.8438 1.7969 2.9219 3.9297l4.8711 134.28c0.19531 5.4453 4.6211 9.7109 10.066 9.7109l43.68 0.003906c5.5547 0 10.078-4.5234 10.078-10.078v-149.68zm-53.727 150.52-4.8711-134.27c-0.26562-7.6523-5.9727-13.645-12.988-13.645-7.0078 0-12.715 5.9922-12.988 13.641l-4.8711 134.28-43.68 0.003906-0.003906-149.43 3.6719-58.324h115.75l3.6445 57.676 0.019531 150.07z"/>
</svg>