<?xml version="1.0" encoding="UTF-8"?>
<!-- The Best Svg Icon site in the world: iconSvg.co, Visit us! https://iconsvg.co -->
<svg fill="#000000" width="800px" height="800px" version="1.1" viewBox="144 144 512 512" xmlns="http://www.w3.org/2000/svg">
 <g>
  <path d="m628.29 384.25h-9.2305c0.86719-5.1133 1.3555-10.367 1.3555-15.742 0-38.574-23.555-73.129-58.992-87.5l-19.852-110.69c-0.67578-3.7539-3.9336-6.4844-7.7461-6.4844h-283.39c-3.8438 0-7.125 2.7773-7.7656 6.5742l-22.855 136.69c-25.188 17.711-40.227 46.207-40.227 77.156h-7.8711c-4.3516 0-7.8711 3.5234-7.8711 7.8711v94.465c0 4.3516 3.5195 7.8711 7.8711 7.8711h25.172l30.117 135.53c0.80469 3.6055 3.9961 6.168 7.6875 6.168h330.62c3.6914 0 6.8789-2.5586 7.6875-6.1641l30.117-135.54h25.172c4.3516 0 7.8711-3.5195 7.8711-7.8711v-94.465c0-4.3477-3.5234-7.8711-7.8711-7.8711zm-23.617-15.742c0 5.4219-0.53125 10.695-1.5742 15.742h-94.191c0.0625-0.36719 0.082031-0.74609 0.14062-1.1172 0.25391-1.6211 0.44531-3.2617 0.61328-4.9102 0.078125-0.77344 0.18359-1.543 0.24219-2.3242 0.1875-2.4375 0.30469-4.8984 0.30469-7.3906 0-3.3398-0.20312-6.6523-0.54688-9.9336-0.11328-1.0781-0.32031-2.1289-0.47266-3.1992-0.30469-2.1953-0.63672-4.3828-1.0938-6.5391-0.26172-1.2383-0.60156-2.4453-0.91016-3.668-0.49609-1.9531-1.0234-3.8984-1.6445-5.8086-0.40625-1.2539-0.85937-2.4844-1.3164-3.7227-0.68359-1.8398-1.4141-3.6523-2.207-5.4453-0.53906-1.2109-1.0938-2.4102-1.6797-3.6016-0.87891-1.7695-1.8281-3.5-2.8164-5.2148-0.64453-1.1211-1.2773-2.2422-1.9688-3.3359-1.1133-1.7578-2.3203-3.4531-3.5508-5.1406-0.70312-0.96484-1.3633-1.9492-2.1055-2.8867-1.5312-1.9414-3.1836-3.793-4.875-5.6211-0.55078-0.59766-1.0469-1.2344-1.6172-1.8203-0.070313-0.070313-0.12891-0.15234-0.19922-0.22266 7.3711-4.7734 15.438-8.2188 24.109-10.281 9.0469-2.2539 18.5-2.6133 27.688-1.5703 5.7852 0.65625 11.488 1.75 16.863 3.6523 31.582 11.02 52.809 40.902 52.809 74.359zm-236.53 7.5625c-0.074219-0.87891-0.22266-1.7461-0.32422-2.6211-0.21094-1.8242-0.42187-3.6445-0.73437-5.4453-0.17969-1.0352-0.42578-2.0469-0.64063-3.0742-0.33594-1.6211-0.67969-3.2383-1.1016-4.8359-0.28516-1.0781-0.62109-2.1328-0.94141-3.1992-0.45703-1.5156-0.92578-3.0234-1.4609-4.5117-0.38672-1.0781-0.8125-2.1406-1.2344-3.207-0.57422-1.4375-1.1719-2.8633-1.8164-4.2734-0.48438-1.0586-0.99219-2.1016-1.5156-3.1406-0.69141-1.3711-1.4141-2.7227-2.1719-4.0586-0.57812-1.0195-1.168-2.0352-1.7852-3.0352-0.80469-1.3047-1.6523-2.5781-2.5234-3.8438-0.66797-0.97266-1.3359-1.9453-2.043-2.8945-0.29687-0.39453-0.55078-0.81641-0.85156-1.207 14.297-22.91 39.414-36.938 66.742-36.938 18.289 0 36.078 6.375 50.086 17.949 18.195 15.066 28.633 37.215 28.633 60.773 0 3.3398-0.27344 6.6016-0.67188 9.8125-0.11719 0.92969-0.27344 1.8477-0.42187 2.7656-0.17188 1.0742-0.45703 2.1055-0.67578 3.1641h-124.18c0-2.7422-0.13281-5.4688-0.36719-8.1797zm-82.328-85.488 10.641-63.773h191.34l8.6992 52.082c-9.168 2.9609-17.719 7.3125-25.586 12.977-15.977-11.5-35.312-17.824-55.172-17.824-31.328 0-60.141 15.461-77.625 40.816-14.516-13.395-32.934-21.91-52.301-24.277zm-28.723-111h270.14l17.266 96.266c-0.125-0.023437-0.25781-0.035156-0.38281-0.058594-2.293-0.44531-4.6133-0.79297-6.9453-1.0664-1.1562-0.13672-2.3281-0.19922-3.4922-0.29297-1.3516-0.10938-2.7031-0.21875-4.0625-0.26953-1.1797-0.042968-2.3594-0.042968-3.543-0.042968-1.3945 0-2.7891 0.023437-4.1797 0.082031-1.1172 0.050781-2.2305 0.10938-3.3477 0.19922-1.5664 0.12109-3.125 0.30469-4.6836 0.50391-0.67578 0.089844-1.3633 0.11719-2.0352 0.21875l-9.6016-57.477c-0.62891-3.7969-3.9219-6.5742-7.7656-6.5742h-204.67c-3.8516 0-7.1328 2.7812-7.7656 6.5781l-12.055 72.23c-0.375 0.015625-0.73828 0.078125-1.1133 0.097656-1.9062 0.10547-3.8047 0.27734-5.6914 0.49609-0.67578 0.078125-1.3594 0.125-2.0312 0.21875-2.5469 0.35156-5.0742 0.79297-7.5742 1.3477-0.43359 0.097657-0.86328 0.23047-1.2969 0.33203-2.0586 0.48828-4.1055 1.0352-6.125 1.6641-0.80078 0.24609-1.5938 0.52734-2.3867 0.79688-1.6641 0.56641-3.3164 1.1719-4.9492 1.8281-0.45312 0.18359-0.92188 0.31641-1.3711 0.50781zm-25.773 138.55c12.766-8.2383 27.543-12.594 42.727-12.594 0.58984 0 1.1875-0.003906 1.7852 0.042969 0.19922 0.011719 0.35156 0.011719 0.58984 0.03125 21.934 0.62109 42.734 10.477 57.102 27.059 12.41 14.25 19.242 32.566 19.242 51.586h-157.44c0-26.824 13.461-51.547 35.996-66.125zm327.68 302.29h-318l-27.98-125.95h373.97zm61.414-141.7h-440.83v-78.719h440.83z"/>
  <path d="m454.05 333.09c-2.1836-3.7695-7.0039-5.0625-10.758-2.8828-3.7656 2.1758-5.0586 6.9922-2.8828 10.754l7.8711 13.633c1.4609 2.5234 4.1055 3.9375 6.8281 3.9375 1.3359 0 2.6914-0.33984 3.9297-1.0547 3.7656-2.1758 5.0586-6.9922 2.8828-10.754z"/>
  <path d="m398.95 322.33c-2.1836-3.7695-7.0039-5.0586-10.754-2.8828-3.7656 2.1758-5.0586 6.9883-2.8828 10.754l7.8711 13.637c1.4609 2.5234 4.1055 3.9375 6.8281 3.9375 1.3359 0 2.6914-0.33984 3.9297-1.0547 3.7656-2.1758 5.0586-6.9883 2.8828-10.754z"/>
  <path d="m257.25 343.07c-2.1836-3.7734-7.0039-5.0586-10.758-2.8828-3.7656 2.1758-5.0586 6.9922-2.8828 10.754l7.8711 13.633c1.4609 2.5234 4.1055 3.9375 6.8281 3.9375 1.3359 0 2.6914-0.33984 3.9297-1.0547 3.7656-2.1758 5.0586-6.9922 2.8828-10.754z"/>
  <path d="m297.66 533.82h188.93c4.3516 0 7.8711-3.5195 7.8711-7.8711s-3.5195-7.8711-7.8711-7.8711l-188.93-0.003906c-4.3516 0-7.8711 3.5195-7.8711 7.8711-0.003907 4.3516 3.5195 7.875 7.8711 7.875z"/>
  <path d="m462.98 581.05h-141.7c-4.3516 0-7.8711 3.5195-7.8711 7.8711 0 4.3516 3.5195 7.8711 7.8711 7.8711h141.7c4.3516 0 7.8711-3.5195 7.8711-7.8711 0.003906-4.3516-3.5195-7.8711-7.8672-7.8711z"/>
 </g>
</svg>