<?xml version="1.0" encoding="UTF-8"?>
<!-- The Best Svg Icon site in the world: iconSvg.co, Visit us! https://iconsvg.co -->
<svg fill="#000000" width="800px" height="800px" version="1.1" viewBox="144 144 512 512" xmlns="http://www.w3.org/2000/svg">
 <g>
  <path d="m365.07 416.52c11.34 4.5 23.188 6.7422 35.031 6.7422 12.797 0 25.586-2.625 37.684-7.8594 23.352-10.105 41.363-28.723 50.727-52.422 19.297-48.859-4.6641-104.35-53.418-123.7-23.594-9.3672-49.426-8.9609-72.719 1.1172-23.348 10.105-41.363 28.719-50.723 52.422-19.301 48.859 4.6641 104.35 53.418 123.7zm-44.047-120c8.3711-21.191 24.477-37.836 45.352-46.871 10.82-4.6797 22.246-7.0273 33.684-7.0273 10.586 0 21.18 2.0078 31.316 6.0312 43.598 17.297 65.023 66.926 47.762 110.63-8.3711 21.191-24.477 37.84-45.355 46.875-20.82 9.0117-43.902 9.3672-65 0.99609-43.594-17.301-65.02-66.93-47.758-110.63z"/>
  <path d="m596.48 548.72h-24.645l-82.844-127.07c24.754-23.598 40.234-56.879 40.234-93.742 0.003906-71.363-57.934-129.43-129.14-129.43-71.215 0-129.15 58.062-129.15 129.43 0 36.766 15.402 69.977 40.047 93.559l-82.961 127.25h-24.512c-2.7812 0-5.0391 2.2539-5.0391 5.0391v14.488c0.003906 18.348 14.902 33.277 33.219 33.277h336.62c18.312 0 33.215-14.93 33.215-33.281v-14.484c0-2.7852-2.2578-5.0391-5.0391-5.0391zm-315.47-220.81c0-65.812 53.418-119.36 119.07-119.36s119.07 53.543 119.07 119.36-53.418 119.36-119.07 119.36c-65.656 0-119.07-53.543-119.07-119.36zm37.586 100.32c22.242 18.18 50.613 29.105 81.484 29.105 30.781 0 59.07-10.863 81.281-28.945l78.445 120.33h-80.512c-2.2305-41.508-36.891-74.621-79.297-74.621-42.41 0-77.07 33.113-79.301 74.621h-80.648zm150.62 120.49h-138.45c2.2148-35.949 32.371-64.547 69.223-64.547 36.848 0 67.004 28.598 69.223 64.547zm122.22 19.523c0 12.797-10.379 23.203-23.137 23.203h-336.62c-12.758 0-23.141-10.406-23.141-23.203v-9.4492h382.89z"/>
  <path d="m373.67 327.91c0 14.547 11.816 26.387 26.336 26.387 14.52 0 26.336-11.836 26.336-26.387 0-12.82-9.1836-23.508-21.297-25.875v-23l8.0117 8.0273c1.9648 1.9688 5.1562 1.9727 7.125 0.007812s1.9727-5.1562 0.007812-7.125l-16.516-16.555c-1.8906-1.8945-5.2461-1.8945-7.1328 0l-16.566 16.602c-1.9648 1.9688-1.9609 5.1602 0.007813 7.125 0.98438 0.98047 2.2734 1.4727 3.5586 1.4727 1.293 0 2.582-0.49609 3.5664-1.4766l7.8633-7.8789v22.805c-12.117 2.3594-21.301 13.051-21.301 25.871zm42.598 0c0 8.9922-7.293 16.309-16.262 16.309-8.9648 0-16.262-7.3164-16.262-16.309s7.293-16.309 16.262-16.309 16.262 7.3164 16.262 16.309z"/>
 </g>
</svg>