<?xml version="1.0" encoding="UTF-8"?>
<!-- The Best Svg Icon site in the world: iconSvg.co, Visit us! https://iconsvg.co -->
<svg fill="#000000" width="800px" height="800px" version="1.1" viewBox="144 144 512 512" xmlns="http://www.w3.org/2000/svg">
 <path d="m204.02 601.52h392.97c3.0234 0 5.0391-2.0156 5.0391-5.0391s-2.0156-5.0391-5.0391-5.0391h-92.703v-97.234c2.0156 0 4.5352 0.50391 8.0625 0.50391 11.082 0 26.703-2.0156 37.281-12.594 16.625-16.629 11.59-47.863 11.59-48.871-0.50391-2.0156-2.0156-4.0312-4.0312-4.0312-1.5117 0-32.242-5.0391-49.375 11.586-1.5117 1.5117-2.5195 3.0234-3.5273 4.5352v-49.375c2.0156 0 4.5352 0.50391 8.0625 0.50391 11.082 0 26.703-2.0156 37.281-12.594 16.625-16.625 12.09-47.863 11.586-49.375-0.50391-2.0156-2.0156-4.0312-4.0312-4.0312-1.5117 0-32.242-5.0391-49.375 11.586-1.5117 1.5117-2.5195 3.0234-3.5273 4.5352v-49.375c2.0156 0 4.5352 0.50391 8.0625 0.50391 11.082 0 26.703-2.0156 37.281-12.594 16.625-16.625 12.09-47.863 11.586-49.375-0.50391-2.0156-2.0156-4.0312-4.0312-4.0312-1.5117 0-32.242-5.0391-49.375 11.586-1.5117 1.5117-2.5195 3.0234-3.5273 4.5352l0.007812-44.328c0-3.0234-2.0156-5.0391-5.0391-5.0391-3.0234 0-5.0391 2.0156-5.0391 5.0391v98.242c-1.0078-1.5117-2.0156-3.0234-3.5273-4.0312-16.625-16.625-47.863-12.09-49.375-11.586-2.0156 0.50391-4.0312 2.0156-4.0312 4.0312 0 1.5117-5.0391 32.242 11.586 49.375 10.578 10.578 26.199 12.594 37.281 12.594 3.0234 0 5.543 0 7.5586-0.50391v49.375c-1.0078-1.5117-2.0156-3.0234-3.5273-4.0312-16.625-16.625-47.863-12.09-49.375-11.586-2.0156 0.50391-4.0312 2.0156-4.0312 4.0312 0 1.5117-5.0391 32.242 11.586 49.375 10.578 10.578 26.199 12.594 37.281 12.594 3.0234 0 5.543 0 7.5586-0.50391v49.375c-1.0078-1.5117-2.0156-3.0234-3.5273-4.0312-16.625-16.625-47.863-12.09-49.375-11.586-2.0156 0.50391-4.0312 2.0156-4.0312 4.0312 0 1.5117-5.0391 32.242 11.586 49.375 10.578 10.578 26.199 12.594 37.281 12.594 3.0234 0 5.543 0 7.5586-0.50391l0.015625 41.305h-185.91v-97.234c2.0156 0 4.5352 0.50391 8.0625 0.50391 11.082 0 26.703-2.0156 37.281-12.594 16.625-16.625 12.09-47.863 11.586-49.375-0.50391-2.0156-2.0156-4.0312-4.0312-4.0312-1.5117 0-32.242-5.0391-49.375 11.586-1.5117 1.5117-2.5195 3.0234-3.5273 4.5352v-49.375c2.0156 0 4.5352 0.50391 8.0625 0.50391 11.082 0 26.703-2.0156 37.281-12.594 16.625-16.625 12.09-47.863 11.586-49.375-0.50391-2.0156-2.0156-4.0312-4.0312-4.0312-1.5117 0-32.242-5.0391-49.375 11.586-1.5117 1.5117-2.5195 3.0234-3.5273 4.5352v-49.375c2.0156 0 4.5352 0.50391 8.0625 0.50391 11.082 0 26.703-2.0156 37.281-12.594 16.625-16.625 12.09-47.863 11.586-49.375-0.50391-2.0156-2.0156-4.0312-4.0312-4.0312-1.5117 0-32.242-5.0391-49.375 11.586-1.5117 1.5117-2.5195 3.0234-3.5273 4.5352l0.011719-43.824c0-3.0234-2.0156-5.0391-5.0391-5.0391-3.0234 0-5.0391 2.0156-5.0391 5.0391v98.242c-1.0078-1.5117-2.0156-3.0234-3.5273-4.0312-16.625-16.625-47.863-12.09-49.375-11.586-2.0156 0.50391-4.0312 2.0156-4.0312 4.0312 0 1.5117-5.0391 32.242 11.586 49.375 10.578 10.578 26.199 12.594 37.281 12.594 3.0234 0 5.543 0 7.5586-0.50391v49.375c-1.0078-1.5117-2.0156-3.0234-3.5273-4.0312-16.625-16.625-47.863-12.09-49.375-11.586-2.0156 0.50391-4.0312 2.0156-4.0312 4.0312 0 1.5117-5.0391 32.242 11.586 49.375 10.578 10.578 26.199 12.594 37.281 12.594 3.0234 0 5.543 0 7.5586-0.50391v49.375c-1.0078-1.5117-2.0156-3.0234-3.5273-4.0312-16.625-16.625-47.863-12.09-49.375-11.586-2.0156 0.50391-4.0312 2.0156-4.0312 4.0312 0 1.5117-5.0391 32.242 11.586 49.375 10.578 10.578 26.199 12.594 37.281 12.594 3.0234 0 5.543 0 7.5586-0.50391l0.015625 41.305h-91.191c-3.0234 0-5.0391 2.0156-5.0391 5.0391s2.5195 5.0391 5.0391 5.0391zm310.85-153.66c10.078-10.078 28.719-10.078 36.777-9.0703 0.50391 8.0625 1.0078 26.199-9.0703 36.777-10.078 10.078-28.719 10.078-36.777 9.0703-1.0078-8.0586-1.0078-26.699 9.0703-36.777zm0-99.25c10.078-10.078 28.719-10.078 36.777-9.0703 0.50391 8.0625 1.0078 26.199-9.0703 36.777-10.078 10.078-28.719 10.078-36.777 9.0703-1.0078-7.5547-1.0078-26.195 9.0703-36.777zm0-98.746c10.078-10.078 28.719-10.078 36.777-9.0703 0.50391 8.0625 1.0078 26.199-9.0703 36.777-10.078 10.078-28.719 10.078-36.777 9.0703-1.0078-8.0586-1.0078-26.199 9.0703-36.777zm-22.168 91.691c-8.0625 0.50391-26.199 1.0078-36.777-9.0703-10.078-10.078-10.078-28.719-9.0703-36.777 8.0625-0.50391 26.199-1.0078 36.777 9.0703 10.078 10.078 9.5742 28.719 9.0703 36.777zm0 98.75c-8.0625 0.50391-26.199 1.0078-36.777-9.0703-10.078-10.078-10.078-28.719-9.0703-36.777 8.0625-0.50391 26.199-1.0078 36.777 9.0703 10.078 10.074 9.5742 28.715 9.0703 36.777zm0 98.746c-8.0625 0.50391-26.199 1.0078-36.777-9.0703-10.078-10.078-10.078-28.719-9.0703-36.777 8.0625-0.50391 26.199-1.0078 36.777 9.0703 10.078 10.578 9.5742 28.715 9.0703 36.777zm-175.32-91.191c10.078-10.078 28.719-10.078 36.777-9.0703 0.50391 8.0625 1.0078 26.199-9.0703 36.777-10.078 10.078-28.719 10.078-36.777 9.0703-0.50391-8.0586-1.0078-26.699 9.0703-36.777zm0-99.25c10.078-10.078 28.719-10.078 36.777-9.0703 0.50391 8.0625 1.0078 26.199-9.0703 36.777-10.078 10.078-28.719 10.078-36.777 9.0703-0.50391-7.5547-1.0078-26.195 9.0703-36.777zm0-98.746c10.078-10.078 28.719-10.078 36.777-9.0703 0.50391 8.0625 1.0078 26.199-9.0703 36.777-10.078 10.078-28.719 10.078-36.777 9.0703-0.50391-8.0586-1.0078-26.199 9.0703-36.777zm-22.168 91.691c-8.0625 0.50391-26.199 1.0078-36.777-9.0703-10.078-10.078-10.078-28.719-9.0703-36.777 8.0625-0.50391 26.199-1.0078 36.777 9.0703 10.078 10.078 10.078 28.719 9.0703 36.777zm0 98.75c-8.0625 0.50391-26.199 1.0078-36.777-9.0703-10.078-10.078-10.078-28.719-9.0703-36.777 8.0625-0.50391 26.199-1.0078 36.777 9.0703 10.078 10.074 10.078 28.715 9.0703 36.777zm0 98.746c-8.0625 0.50391-26.199 1.0078-36.777-9.0703-10.078-10.078-10.078-28.719-9.0703-36.777 8.0625-0.50391 26.199-1.0078 36.777 9.0703 10.078 10.578 10.078 28.715 9.0703 36.777z"/>
</svg>