<?xml version="1.0" encoding="UTF-8"?>
<!-- The Best Svg Icon site in the world: iconSvg.co, Visit us! https://iconsvg.co -->
<svg fill="#000000" width="800px" height="800px" version="1.1" viewBox="144 144 512 512" xmlns="http://www.w3.org/2000/svg">
 <g>
  <path d="m327.98 381.57c-6.4258 0-12.516 2.7734-16.715 7.6172-4.1641 4.8008-6.0312 11.152-5.1328 17.43 0.36328 2.5117 2.5195 4.3203 4.9844 4.3203 0.23437 0 0.47656-0.015625 0.71875-0.050781 2.7539-0.39453 4.668-2.9453 4.2773-5.7031-0.48828-3.3789 0.52344-6.8086 2.7695-9.3984 2.2773-2.6328 5.5938-4.1406 9.0977-4.1406 2.7852 0 5.0391-2.2539 5.0391-5.0391-0.003906-2.7773-2.2539-5.0352-5.0391-5.0352z"/>
  <path d="m323.81 550.64c0.36328 2.5117 2.5195 4.3203 4.9844 4.3203 0.23438 0 0.47656-0.015625 0.72266-0.050781 2.75-0.39453 4.6641-2.9492 4.2695-5.7031l-15.305-106.5c-0.39844-2.7539-2.9023-4.668-5.707-4.2695-2.75 0.39453-4.6641 2.9492-4.2695 5.7031z"/>
  <path d="m326.05 566.15 1.1953 8.3281c0.36328 2.5117 2.5195 4.3203 4.9844 4.3203 0.23438 0 0.47656-0.015625 0.71875-0.050781 2.7539-0.39453 4.668-2.9453 4.2773-5.7031l-1.1953-8.3281c-0.40234-2.7539-2.9414-4.6797-5.7031-4.2695-2.7578 0.39453-4.6719 2.9492-4.2773 5.7031z"/>
  <path d="m558.48 420.68c0-33.133-24.871-60.086-55.438-60.086h-13.859v-26.445c0-6.4609-5.2578-11.719-11.719-11.719l-118.94 0.003906c-6.4609 0-11.719 5.2578-11.719 11.719v26.441h-13.859c-14.84 0-28.797 6.3203-39.312 17.805-10.402 11.359-16.129 26.371-16.129 42.281 0 0.19531 0.089844 0.35938 0.10938 0.54688-0.003907 0.26953-0.09375 0.53125-0.054688 0.80469l25.195 175.14c0.35938 2.4805 2.4844 4.3203 4.9883 4.3203h220.5c2.5039 0 4.6289-1.8398 4.9883-4.3203l25.195-175.14c0.039063-0.27344-0.050781-0.53125-0.054687-0.80078 0.023437-0.19531 0.10938-0.35938 0.10938-0.55078zm-201.6-86.531c0-0.90625 0.73828-1.6406 1.6445-1.6406h118.94c0.90625 0 1.6445 0.73438 1.6445 1.6406v25.816h-122.23zm167 257.27h-211.77l-23.742-165.07h259.25zm-236.07-175.77c1.0469-11.484 5.6641-22.145 13.254-30.438 8.5859-9.3711 19.906-14.535 31.883-14.535h170.09c23.473 0 42.832 19.75 45.137 44.973z"/>
  <path d="m390.91 261.8c0 16.574 16.395 30.059 36.539 30.059 1.4922 0 2.9766-0.070313 4.418-0.21484 4.6836-0.47656 9.332-1.7305 13.441-3.625 0.011718-0.003906 0.019531-0.015625 0.03125-0.019531 6.1836-2.8359 11.047-7.0664 14.277-12.047 3.793 3.9961 9.1289 6.5273 15.078 6.5273 11.465 0 20.785-9.2734 20.785-20.676 0-11.402-9.3242-20.676-20.785-20.676-5.2422 0-9.9805 2.0039-13.641 5.1992 0.95703-0.78906 1.9297-1.5312 2.8516-2.4258 0.015625-0.015626 0.035156-0.035157 0.054687-0.050782 7.0742-7.0742 11.273-16.332 11.223-24.773-0.035157-5.9375-2.082-11.059-5.8516-14.734-8.082-8.1641-22.199-7.6016-34.137 0.78516-11.934-8.3789-26.062-8.9492-34.074-0.84766-3.8359 3.7422-5.8789 8.8633-5.9141 14.805-0.035156 6.8672 2.7695 14.254 7.6016 20.57-7.5117 5.6133-11.898 13.539-11.898 22.145zm83.789-10.602c5.9023 0 10.711 4.7539 10.711 10.602 0 5.8438-4.8086 10.602-10.711 10.602-5.9023 0-10.711-4.7539-10.711-10.602s4.8047-10.602 10.711-10.602zm-43.84 30.422c-1.1016 0.10937-2.2539 0.16406-3.4102 0.16406-0.99609 0-1.9414-0.14062-2.9102-0.22266-0.20703-0.074219-0.37109-0.21484-0.58984-0.26562-3.4141-0.76953-8.1445-7.9727-8.1445-19.496s4.7266-18.727 8.1445-19.496c0.23047-0.050781 0.40234-0.19531 0.61719-0.27734 0.32812-0.027344 0.65625-0.085938 0.98438-0.10547 0.37109-0.019531 0.73438-0.054688 1.1094-0.0625 1.4141-0.039063 2.8203-0.019531 4.1875 0.11719 1.1367 0.11719 2.2422 0.39062 3.3594 0.62109-0.14062 0.21094-0.26172 0.44531-0.39844 0.66016-0.26172 0.41406-0.51563 0.82812-0.75781 1.2578-0.13281 0.23438-0.28516 0.44922-0.41406 0.6875-0.42969 0.25781-0.80078 0.58984-1.1328 0.95703-0.035156 0.039062-0.085938 0.066406-0.12109 0.10547-0.0625 0.074219-0.097656 0.17188-0.15625 0.25391-0.22656 0.30078-0.41797 0.625-0.57422 0.97266-0.039063 0.085938-0.10938 0.15625-0.14453 0.24609-0.019531 0.054687-0.015625 0.12109-0.035156 0.17969-0.16797 0.49219-0.28516 1.0078-0.29297 1.5508-0.007812 0.47266 0.050781 0.9375 0.17578 1.3789-0.015624 0.046875-0.019531 0.10156-0.035156 0.14844-0.46875 1.5312-0.81641 3.1133-1.0781 4.7227-0.0625 0.37109-0.10938 0.73828-0.16016 1.1094-0.21875 1.6406-0.37109 3.3008-0.37109 4.9727 0 1.625 0.13281 3.2109 0.32812 4.7773 0.058594 0.45312 0.13281 0.89453 0.20703 1.3438 0.19141 1.1719 0.43359 2.3203 0.73047 3.4414 0.10547 0.39844 0.19531 0.80469 0.3125 1.1953 0.43359 1.4375 0.9375 2.8359 1.5391 4.168 0.10156 0.22266 0.22656 0.42188 0.33203 0.64062 0.53125 1.1094 1.125 2.168 1.7734 3.1836 0.10937 0.17578 0.19141 0.375 0.30469 0.54688-1.1133 0.23047-2.2461 0.40625-3.3789 0.52344zm13.184-4.3203c-0.082031-0.097656-0.16406-0.19531-0.24609-0.29297-0.71484-0.86328-1.3867-1.7891-1.9648-2.8203-0.019531-0.035156-0.035156-0.074219-0.054687-0.11328-0.5625-1.0195-1.0312-2.1289-1.4453-3.2812-0.074219-0.20312-0.15234-0.39844-0.21875-0.60547-0.37891-1.1602-0.67969-2.375-0.89453-3.6289-0.042969-0.24219-0.070313-0.48828-0.10938-0.73438-0.19141-1.3125-0.32031-2.6523-0.32031-4.0234 0-3.5781 0.6875-7.0938 1.9922-10.164 0.09375-0.21484 0.16797-0.43359 0.23047-0.65625 0.003907-0.011718 0.011719-0.019531 0.015626-0.027343 0.59375-1.2578 1.3125-2.3789 2.0742-3.4258 0.16406-0.22266 0.32812-0.45313 0.49609-0.66797 0.15234-0.1875 0.33203-0.31641 0.48828-0.49609 0.14062 0.085937 0.28516 0.15625 0.42578 0.25 0.12109 0.078125 0.24219 0.14844 0.36719 0.21875 0.53516 0.35547 1.0781 0.71484 1.6094 1.1484 0.74219 0.58984 1.4414 1.1719 2.0312 1.8047 0.082031 0.089844 0.17188 0.17578 0.26172 0.25781 0.042968 0.050782 0.089844 0.097657 0.13281 0.13672 0.51562 0.51562 0.98438 1.0781 1.4062 1.6406 0.042969 0.054688 0.56641 0.76562 0.60938 0.81641 0.20312 0.28906 0.375 0.55859 0.53516 0.85547 0.10937 0.1875 0.21484 0.37109 0.33984 0.61328 0.80859 1.4102 1.3477 2.7617 1.7227 4.3633 0.0625 0.22656 0.082031 0.45312 0.11719 0.67969 0.042969 0.30859 0.035156 0.23047 0.13281 0.52344 0 0.10156 0.011718 0.27344 0.023437 0.42188 0 0.015625-0.003906 0.027344-0.003906 0.042968 0.054687 0.53906 0.10938 1.125 0.10938 1.6641 0.003906 6.0117-3.7031 11.738-9.8633 15.5zm15.621-29.707c-0.011718-0.019532-0.023437-0.039063-0.039062-0.058594 0.097656-0.074219 0.19141-0.16797 0.28906-0.24609-0.089844 0.097656-0.15625 0.21094-0.25 0.30469zm2.5703-36.109c2.3516 2.2969 2.8633 5.4258 2.875 7.6445 0.035156 5.793-3.0469 12.355-8.2422 17.559-1.3398 1.293-2.707 2.4336-4.0977 3.4102-0.375-0.30469-0.76562-0.59375-1.1875-0.88672 0.25-1.1641 0.39062-2.3594 0.45703-3.5742 0.019532-0.33594-0.003906-0.68359 0-1.0234 0.015625-0.97656-0.015625-1.9609-0.11328-2.957-0.042969-0.44922-0.10938-0.89844-0.17578-1.3555-0.13672-0.94141-0.32812-1.8828-0.5625-2.832-0.10547-0.42578-0.19922-0.85156-0.32422-1.2773-0.35156-1.2109-0.77734-2.418-1.2812-3.6211-0.058594-0.14453-0.10156-0.28906-0.16016-0.42969-0.58203-1.3477-1.2773-2.6797-2.043-3.9961-0.21484-0.36719-0.46094-0.72266-0.6875-1.0859-0.59766-0.95313-1.2344-1.8945-1.9258-2.8164-0.3125-0.41797-0.63281-0.82422-0.96094-1.2344-0.27734-0.34375-0.51953-0.70312-0.8125-1.0391 7.2812-4.2891 15.086-4.6836 19.242-0.48438zm-54.012-0.0625c1.9336-1.9531 4.6836-2.8984 7.8164-2.8984 4.9414 0 10.832 2.3438 15.98 6.7656 0.57031 0.46094 1.1367 0.91406 1.6758 1.4531 1.1641 1.1719 2.1797 2.4336 3.1172 3.7148 0.23828 0.32422 0.46875 0.65234 0.69141 0.98438 0.87109 1.2891 1.668 2.6016 2.293 3.9336 0.007812 0.011718 0.011719 0.027344 0.015625 0.039062 0.625 1.332 1.0703 2.6641 1.4336 3.9805 0.089843 0.33203 0.17187 0.66016 0.24609 0.98828 0.29297 1.3164 0.50391 2.6172 0.50781 3.8477v0.003907c-0.0625-0.023438-0.13281-0.035157-0.19531-0.054688-1.3711-0.48047-2.7891-0.875-4.2266-1.2188-0.37109-0.089843-0.73828-0.17188-1.1133-0.25391-1.5273-0.32422-3.0664-0.59766-4.6211-0.75391-1.8516-0.18359-3.7461-0.21484-5.6523-0.15625-0.55469 0.019531-1.1016 0.085937-1.6562 0.125-1.3867 0.09375-2.7656 0.23047-4.1406 0.45312-0.58203 0.09375-1.1484 0.21484-1.7227 0.33203-1.3516 0.27344-2.6719 0.60156-3.9727 0.99609-0.55859 0.16797-1.1094 0.33984-1.6602 0.53125-0.45312 0.15625-0.92969 0.26562-1.3711 0.4375-4.0625-4.8164-6.4141-10.469-6.3906-15.535 0.023437-2.2266 0.53125-5.3555 2.9453-7.7148zm-0.5625 37.184c-1.2031 3.9648-1.9297 8.3945-1.9297 13.195 0 4.7656 0.71484 9.1641 1.9023 13.102-4.082-3.5156-6.6445-8.0703-6.6445-13.102 0-4.9141 2.4219-9.5781 6.6719-13.195z"/>
  <path d="m364.71 264.05c1.6094 0.19531 3.2383 0.41016 4.8867 0.65234 0.25 0.035156 0.49609 0.054687 0.73828 0.054687 2.4609 0 4.6094-1.8008 4.9805-4.3086 0.40234-2.7539-1.5-5.3125-4.25-5.7148-1.7383-0.25391-3.4531-0.48047-5.1406-0.6875-2.7734-0.33984-5.2734 1.6367-5.6094 4.3945-0.33203 2.7656 1.6367 5.2773 4.3945 5.6094z"/>
  <path d="m307.76 268.43c0.52734 0 1.0586-0.082032 1.5859-0.25781 2.8555-0.94531 5.8359-1.7773 8.8711-2.4727 2.7148-0.62109 4.4102-3.3203 3.7891-6.0352-0.62109-2.7148-3.3242-4.418-6.0312-3.7852-3.3516 0.76563-6.6406 1.6836-9.7969 2.7266-2.6406 0.875-4.0742 3.7266-3.1992 6.3672 0.70313 2.1172 2.6719 3.457 4.7812 3.457z"/>
  <path d="m282.09 281.81c1.0625 0 2.1367-0.33594 3.0469-1.0273 2.4023-1.8281 4.9453-3.5391 7.5508-5.0781 2.3945-1.418 3.1875-4.5078 1.7695-6.9023-1.4102-2.3945-4.5078-3.1836-6.8984-1.7695-2.9453 1.7422-5.8164 3.6719-8.5273 5.7344-2.2148 1.6836-2.6406 4.8477-0.96094 7.0586 0.99609 1.3008 2.5 1.9844 4.0195 1.9844z"/>
  <path d="m336.26 263.11c0.10938 0 0.21094-0.003906 0.32031-0.011719 2.793-0.17578 5.668-0.26562 8.6133-0.26562l0.70703 0.003907h0.050781c2.7617 0 5.0078-2.2227 5.0391-4.9883 0.023438-2.7812-2.2031-5.0586-4.9883-5.0859l-0.80859-0.003907c-3.1641 0-6.2422 0.097657-9.2461 0.28516-2.7812 0.17578-4.8867 2.5664-4.7148 5.3438 0.17188 2.6719 2.3906 4.7227 5.0273 4.7227z"/>
  <path d="m246.96 357.98c2.7734-0.14844 4.9062-2.5273 4.7539-5.3047-0.074219-1.4492-0.11719-2.8945-0.11719-4.3359 0-1.5938 0.050781-3.1875 0.14844-4.7734 0.17187-2.7773-1.9453-5.1641-4.7227-5.3359-2.7305-0.16016-5.1602 1.9453-5.332 4.7227-0.10938 1.793-0.16797 3.5898-0.16797 5.3906 0 1.625 0.042969 3.25 0.13672 4.8789 0.14453 2.6875 2.3672 4.7656 5.0234 4.7656 0.089843 0 0.18359-0.003906 0.27734-0.007812z"/>
  <path d="m255.19 310.4c-2.5547-1.0508-5.5195 0.16797-6.5742 2.7461-1.293 3.1445-2.4297 6.3867-3.3867 9.6367-0.78906 2.668 0.74219 5.4688 3.4102 6.2539 0.47656 0.14062 0.95312 0.20703 1.4219 0.20703 2.1797 0 4.1875-1.4258 4.832-3.6211 0.85547-2.9141 1.8789-5.8203 3.0391-8.6484 1.0625-2.5742-0.16797-5.5156-2.7422-6.5742z"/>
  <path d="m264.29 287-0.82031 1.0195c-1.8516 2.3242-3.6094 4.7383-5.2383 7.1719-1.5508 2.3125-0.92578 5.4414 1.3867 6.9883 0.85938 0.57422 1.832 0.85156 2.793 0.85156 1.625 0 3.2227-0.78516 4.1914-2.2344 1.4766-2.2031 3.0703-4.3906 4.7422-6.4883l0.72656-0.90625c1.7656-2.1484 1.457-5.3242-0.69531-7.0898-2.1406-1.7812-5.3281-1.457-7.0859 0.6875z"/>
  <path d="m254.91 370.63c-0.80859-2.6602-3.6211-4.1641-6.2891-3.3477-2.6602 0.8125-4.1562 3.6289-3.3438 6.2891 0.51562 1.6914 1.0859 3.3789 1.7109 5.0586 0.75781 2.0312 2.6797 3.2852 4.7227 3.2852 0.58594 0 1.1758-0.10156 1.7578-0.32031 2.6094-0.96875 3.9375-3.8711 2.9648-6.4766-0.55469-1.4922-1.0664-2.9883-1.5234-4.4883z"/>
 </g>
</svg>