<?xml version="1.0" encoding="UTF-8"?>
<!-- The Best Svg Icon site in the world: iconSvg.co, Visit us! https://iconsvg.co -->
<svg fill="#000000" width="800px" height="800px" version="1.1" viewBox="144 144 512 512" xmlns="http://www.w3.org/2000/svg">
 <g>
  <path d="m537.3 198.54h-273.34c-2.7812 0-5.0391 2.2539-5.0391 5.0391v60.59c-1.5781 5.543-11.742 42.488-16.973 90.773-5.207 48.062-6.4609 117.57 16.973 176.4v65.215c0 2.7852 2.2539 5.0391 5.0391 5.0391h273.34c2.7812 0 5.0391-2.2539 5.0391-5.0391v-65.219c23.438-58.824 22.184-128.33 16.973-176.4-5.2305-48.285-15.395-85.23-16.973-90.773v-60.59c0-2.7812-2.2539-5.0352-5.0352-5.0352zm-5.0391 10.074v51.645h-263.27v-51.645zm-263.27 382.9v-56.262h263.27v56.262zm264.87-66.34h-266.47c-38.121-99.082-6.25-230.38 0.28516-254.84h265.9c6.5391 24.461 38.43 155.71 0.28125 254.84z"/>
  <path d="m297.68 248c2.7812 0 5.0391-2.2539 5.0391-5.0391v-15.742c0-2.7852-2.2539-5.0391-5.0391-5.0391-2.7812 0-5.0391 2.2539-5.0391 5.0391v15.742c0 2.7852 2.2578 5.0391 5.0391 5.0391z"/>
  <path d="m326.92 248c2.7812 0 5.0391-2.2539 5.0391-5.0391v-15.742c0-2.7852-2.2539-5.0391-5.0391-5.0391-2.7812 0-5.0391 2.2539-5.0391 5.0391v15.742c0 2.7852 2.2539 5.0391 5.0391 5.0391z"/>
  <path d="m356.15 248c2.7812 0 5.0391-2.2539 5.0391-5.0391v-15.742c0-2.7852-2.2539-5.0391-5.0391-5.0391-2.7812 0-5.0391 2.2539-5.0391 5.0391v15.742c0 2.7852 2.2578 5.0391 5.0391 5.0391z"/>
  <path d="m385.38 248c2.7812 0 5.0391-2.2539 5.0391-5.0391v-15.742c0-2.7852-2.2539-5.0391-5.0391-5.0391-2.7812 0-5.0391 2.2539-5.0391 5.0391v15.742c0 2.7852 2.2539 5.0391 5.0391 5.0391z"/>
  <path d="m414.62 248c2.7812 0 5.0391-2.2539 5.0391-5.0391v-15.742c0-2.7852-2.2539-5.0391-5.0391-5.0391-2.7812 0-5.0391 2.2539-5.0391 5.0391v15.742c0 2.7852 2.2539 5.0391 5.0391 5.0391z"/>
  <path d="m443.85 248c2.7812 0 5.0391-2.2539 5.0391-5.0391v-15.742c0-2.7852-2.2539-5.0391-5.0391-5.0391-2.7812 0-5.0391 2.2539-5.0391 5.0391v15.742c0 2.7852 2.2578 5.0391 5.0391 5.0391z"/>
  <path d="m473.08 248c2.7812 0 5.0391-2.2539 5.0391-5.0391v-15.742c0-2.7852-2.2539-5.0391-5.0391-5.0391-2.7812 0-5.0391 2.2539-5.0391 5.0391v15.742c0 2.7852 2.2539 5.0391 5.0391 5.0391z"/>
  <path d="m502.31 248c2.7812 0 5.0391-2.2539 5.0391-5.0391v-15.742c0-2.7852-2.2539-5.0391-5.0391-5.0391-2.7812 0-5.0391 2.2539-5.0391 5.0391v15.742c0 2.7852 2.2578 5.0391 5.0391 5.0391z"/>
  <path d="m297.68 551.67c-2.7812 0-5.0391 2.2539-5.0391 5.0391v15.742c0 2.7852 2.2539 5.0391 5.0391 5.0391 2.7812 0 5.0391-2.2539 5.0391-5.0391v-15.742c0-2.7852-2.2578-5.0391-5.0391-5.0391z"/>
  <path d="m326.92 551.67c-2.7812 0-5.0391 2.2539-5.0391 5.0391v15.742c0 2.7852 2.2539 5.0391 5.0391 5.0391 2.7812 0 5.0391-2.2539 5.0391-5.0391v-15.742c-0.003906-2.7852-2.2578-5.0391-5.0391-5.0391z"/>
  <path d="m356.15 551.67c-2.7812 0-5.0391 2.2539-5.0391 5.0391v15.742c0 2.7852 2.2539 5.0391 5.0391 5.0391 2.7812 0 5.0391-2.2539 5.0391-5.0391v-15.742c0-2.7852-2.2578-5.0391-5.0391-5.0391z"/>
  <path d="m385.38 551.67c-2.7812 0-5.0391 2.2539-5.0391 5.0391v15.742c0 2.7852 2.2539 5.0391 5.0391 5.0391 2.7812 0 5.0391-2.2539 5.0391-5.0391v-15.742c-0.003906-2.7852-2.2578-5.0391-5.0391-5.0391z"/>
  <path d="m414.62 551.67c-2.7812 0-5.0391 2.2539-5.0391 5.0391v15.742c0 2.7852 2.2539 5.0391 5.0391 5.0391 2.7812 0 5.0391-2.2539 5.0391-5.0391v-15.742c-0.003906-2.7852-2.2578-5.0391-5.0391-5.0391z"/>
  <path d="m443.85 551.67c-2.7812 0-5.0391 2.2539-5.0391 5.0391v15.742c0 2.7852 2.2539 5.0391 5.0391 5.0391 2.7812 0 5.0391-2.2539 5.0391-5.0391v-15.742c0-2.7852-2.2578-5.0391-5.0391-5.0391z"/>
  <path d="m473.08 551.67c-2.7812 0-5.0391 2.2539-5.0391 5.0391v15.742c0 2.7852 2.2539 5.0391 5.0391 5.0391 2.7812 0 5.0391-2.2539 5.0391-5.0391v-15.742c-0.003906-2.7852-2.2578-5.0391-5.0391-5.0391z"/>
  <path d="m502.31 551.67c-2.7812 0-5.0391 2.2539-5.0391 5.0391v15.742c0 2.7852 2.2539 5.0391 5.0391 5.0391 2.7812 0 5.0391-2.2539 5.0391-5.0391v-15.742c0-2.7852-2.2578-5.0391-5.0391-5.0391z"/>
  <path d="m448.77 383.28c-4.2383-38.613-27.738-70.207-59.633-79.371-1.9453-0.5625-3.5195-1.9727-4.3203-3.8789-3.4375-8.1523-8.207-12.285-14.18-12.285-5.9727 0-10.746 4.1328-14.184 12.289-0.79297 1.8789-2.5625 3.3438-4.8555 4.0234-35.23 10.434-59.84 48.137-59.84 91.68 0 43.988 24.918 81.777 60.594 91.895 1.8125 0.51563 3.2734 1.8242 4.0117 3.5898 3.4453 8.3008 8.25 12.512 14.273 12.512 6.0234 0 10.824-4.2109 14.273-12.512 0.73438-1.7656 2.1953-3.0742 4.0039-3.5898 4.4961-1.2695 8.9023-3.043 13.148-5.25 11.059 13.043 27.535 21.355 45.934 21.355 33.223 0 60.25-27.031 60.25-60.25 0-32.957-26.613-59.789-59.477-60.207zm-62.609 94.664c-4.7891 1.3633-8.6328 4.793-10.555 9.418-0.78906 1.8945-2.8477 6.3008-4.9688 6.3008-2.1211 0-4.1836-4.4102-4.9688-6.3008-1.9219-4.625-5.7695-8.0547-10.562-9.418-31.363-8.8945-53.27-42.699-53.27-82.203 0-39.113 21.641-72.84 52.625-82.016 5.1992-1.5352 9.3086-5.1016 11.277-9.7773 0.77734-1.8398 2.8086-6.125 4.8984-6.125 2.0898 0 4.1172 4.2852 4.8945 6.125 1.9922 4.7266 5.9414 8.2461 10.828 9.6445 27.871 8.0156 48.477 36.016 52.367 70.438-28.824 4.4805-50.98 29.402-50.98 59.461 0 11.133 3.0898 21.535 8.375 30.492-3.25 1.5977-6.5586 2.9961-9.9609 3.9609zm61.836 15.719c-27.664 0-50.176-22.508-50.176-50.176 0-27.664 22.508-50.176 50.176-50.176 27.664 0 50.176 22.508 50.176 50.176-0.003907 27.668-22.512 50.176-50.176 50.176z"/>
  <path d="m447.99 402.65c-2.7812 0-5.0391 2.2539-5.0391 5.0391v11.824c0 2.7852 2.2539 5.0391 5.0391 5.0391 2.7812 0 5.0391-2.2539 5.0391-5.0391v-11.824c-0.003906-2.7891-2.2578-5.0391-5.0391-5.0391z"/>
  <path d="m426.24 414.61c-1.9688-1.9688-5.1562-1.9688-7.125 0s-1.9688 5.1562 0 7.125l8.3594 8.3594c0.98438 0.98438 2.2734 1.4766 3.5625 1.4766 1.2891 0 2.5781-0.49219 3.5625-1.4766 1.9688-1.9688 1.9688-5.1562 0-7.125z"/>
  <path d="m429.05 443.49c0-2.7852-2.2539-5.0391-5.0391-5.0391h-11.824c-2.7812 0-5.0391 2.2539-5.0391 5.0391 0 2.7852 2.2539 5.0391 5.0391 5.0391h11.824c2.7852 0 5.0391-2.2539 5.0391-5.0391z"/>
  <path d="m427.47 456.88-8.3594 8.3594c-1.9688 1.9688-1.9688 5.1562 0 7.125 0.98438 0.98437 2.2734 1.4766 3.5625 1.4766 1.2891 0 2.5781-0.49219 3.5625-1.4766l8.3594-8.3594c1.9688-1.9688 1.9688-5.1562 0-7.125s-5.1562-1.9688-7.125 0z"/>
  <path d="m447.99 462.43c-2.7812 0-5.0391 2.2539-5.0391 5.0391v11.824c0 2.7852 2.2539 5.0391 5.0391 5.0391 2.7812 0 5.0391-2.2539 5.0391-5.0391v-11.824c-0.003906-2.7852-2.2578-5.0391-5.0391-5.0391z"/>
  <path d="m468.51 456.88c-1.9688-1.9688-5.1562-1.9688-7.125 0s-1.9688 5.1562 0 7.125l8.3594 8.3594c0.98437 0.98437 2.2734 1.4766 3.5625 1.4766 1.2891 0 2.5781-0.49219 3.5625-1.4766 1.9688-1.9688 1.9688-5.1562 0-7.125z"/>
  <path d="m483.79 438.45h-11.824c-2.7812 0-5.0391 2.2539-5.0391 5.0391 0 2.7852 2.2539 5.0391 5.0391 5.0391h11.824c2.7812 0 5.0391-2.2539 5.0391-5.0391 0-2.7852-2.2578-5.0391-5.0391-5.0391z"/>
  <path d="m464.95 431.57c1.2891 0 2.5781-0.49219 3.5625-1.4766l8.3594-8.3594c1.9688-1.9688 1.9688-5.1562 0-7.125s-5.1562-1.9688-7.125 0l-8.3594 8.3594c-1.9688 1.9688-1.9688 5.1562 0 7.125 0.98438 0.98438 2.2734 1.4766 3.5625 1.4766z"/>
  <path d="m395.91 368.82c0.55859 2.3086 2.6211 3.8516 4.8906 3.8516 0.39453 0 0.79297-0.042969 1.1914-0.14453 2.7031-0.65625 4.3672-3.375 3.7109-6.082-1.7891-7.3984-5.6914-14.008-10.98-18.613-2.1016-1.8203-5.2852-1.6094-7.1055 0.49609-1.8281 2.1016-1.6055 5.2773 0.49609 7.1094 3.7227 3.25 6.4922 7.9961 7.7969 13.383z"/>
 </g>
</svg>