<?xml version="1.0" encoding="UTF-8"?>
<!-- The Best Svg Icon site in the world: iconSvg.co, Visit us! https://iconsvg.co -->
<svg width="800px" height="800px" version="1.1" viewBox="144 144 512 512" xmlns="http://www.w3.org/2000/svg">
 <defs>
  <clipPath id="a">
   <path d="m182 148.09h436v503.81h-436z"/>
  </clipPath>
 </defs>
 <g clip-path="url(#a)">
  <path d="m435.78 479.29c-5.4922 6.9375-13.266 11.703-21.938 13.453-0.89062 0.36719-1.8555 0.51953-2.8164 0.44922-11.125-4.207-8.3438 3.8555-8.6719 9.5469-0.92188 15.883-1.957 31.734-3.5664 47.602-2.8594 21.363-3.125 42.992-0.79297 64.418 0.75391 7.2578 0.78125 14.57 0.082031 21.832-0.41016 6.6641-2.9102 7.7422-8.7109 4.5977-2.0859-1.1328-4.1914-2.4453-5.3203 1.1289-0.019531 1.2617-0.94141 2.3281-2.1875 2.5312-7.9883-0.10547-14.637 5.7773-23.039 4.668-4.2617-0.5625-6.1445-1.3594-5.8945-5.8867 0.62891-11.473 1.0273-22.961 1.4492-34.445 0.44141-12.031-0.25-24.043 0.38672-36.121 0.65625-12.488 2.2266-24.871 3.4375-37.25 1.3789-14.105-1.5742-27.898-1.0039-41.871l-0.003906-0.003906c-0.29688-3.2852-3.1836-5.7109-6.4688-5.4414-4.0234 0.15234-7.2266 3.4258-7.293 7.4492 0.078124 5.2656-0.12891 10.531-0.61328 15.773 0.019532 19.801-0.86719 39.652 0.21875 59.391 1.2422 22.551 3.332 45.094 6.668 67.477v0.003906c0.17188 1.1992 0.26953 2.4062 0.29688 3.6172 0.10156 3.6016 0.19922 8.2617-3.1602 9.4492h0.003906c-3.6328 0.38281-7.1641-1.3281-9.1133-4.4102-5.7344-6.6172-13.316-6.6875-22.004-0.98047-1.4336 0.94141-2.5742 3.3672-4.9102 2.1289-1.1836-1.4141-1.6836-3.2812-1.3594-5.0977-3.8125-7.9727 4.9023-11.457 6.2383-17.82 1.9102-7.2227 2.6406-14.707 2.1602-22.16-2.7305-23.59-3.043-47.312-4.25-70.969-0.44922-8.7617-2.1172-17.312-2.6523-26.031-0.30859-5.0273-6.2422-3.6289-8.7734-3.1484-4.707 0.89062-9.2461 5.5312-14.008 1.4453-6.7773-5.8125-15.715-9.75-18.898-18.984l0.003906 0.003906c-1.9336-6.1836-6.0469-11.453-11.574-14.832-7.2305-4.6289-8.4922-13.664-11.047-21.367-0.58984-2.0508-1.3906-4.0352-2.3906-5.9219-10.566-18.406-14.188-39.066-18.871-59.352-0.47266-2.0469-0.70703-4.1406-1.293-6.2344-2.2148-5.8789-2.6758-12.277-1.3242-18.414 1.5312-5.5234 1.4648-11.367-0.19531-16.855-1.9141-8.7305-1.7031-17.793 0.625-26.422 2.3086-12.254 3.6641-24.684 5.5312-37.023h-0.003906c0.39844-3.582 1.1562-7.1172 2.2617-10.547 2.4062-4.1289 2.1992-9.2773-0.52734-13.203-4.1133-5.8945 0.71094-20.027 7.8359-22.543h-0.003907c2.0664-0.57812 3.4648-2.4922 3.3906-4.6328-1.0859-7.3789 2.3359-14.285 1.9414-21.52-0.32031-2.9922 0.1875-6.0195 1.4688-8.7461 1.2773-2.7266 3.2812-5.0508 5.7891-6.7188-12.281-0.32031-23.852 1.3633-34.609-4.082-12.371-5.5273-23.25-13.918-31.742-24.477-3.6211-4.9062-2.2617-7.8398 3.5273-11.121 12.832-7.2773 24.199-1.6641 35.809 2.2852 7.207 2.4531 14.98 4.0938 20.254 10.559 1.8828 2.3086 3.793 1.8203 6.8008 0.3125 20.051-10.059 40.652-17.703 63.59-9.9297v0.003906c6.9688 2.2422 12.766 7.1562 16.113 13.668 2.2148 4.1836 3.9844 5.0234 8.9258 2.668h0.003906c13.328-6.2422 27.895-9.3945 42.609-9.2266 7.4375-0.41016 14.871 0.89062 21.73 3.793 5.3359 2.5469 6.1523 5.0859 2.2969 9.8906h0.003906c-4.4766 5.0273-10.434 8.5039-17.016 9.9258-10.695 2.5664-21.129 6.1133-31.172 10.598-1.2266 0.61328-2.375 1.3789-4.1094 2.3984 7.6016 5.6992 15.777 9.7539 20.176 17.949 0.82422 1.5352 2.3203 1.0039 3.8555 0.76172 8.1172-1.2734 11.559 1.3203 13.586 10.285 3.25-1.3789 6.4648-2.6875 9.6328-4.1016 2.6172-1.5742 5.9961-0.96875 7.9062 1.4141 2.8164 3.5781 7.7969 4.6172 11.809 2.4609 9.0078-3.0586 19.043-1.0625 27.645-6.3125 1.4883-0.66797 3.1992-0.65234 4.6758 0.050781 1.4727 0.70312 2.5664 2.0195 2.9844 3.5977 1 2.6055 3.8945 3.9453 6.5312 3.0156 8.0195-2.0156 16.398-2.1484 24.477-0.38281 7.4766 1.6719 15.246 1.5312 22.656-0.42188 6.0586-2.0742 12.543-2.5898 18.852-1.4961 0.69531 0.23438 1.457 0.18359 2.1211-0.13672 12.008-9.2539 20.98 4.4023 32.094 4.3867 12.223-0.015625 22.445 8.0078 31.992 15.219 6.5547 4.2344 10.973 11.086 12.125 18.801 1.0547 9.3398 8.3008 16.844 9.082 26.398h-0.003907c2.3477 17.016 1.8047 34.305-1.6055 51.137-2.3359 9.8125-3.6953 19.832-4.0586 29.91-0.71094 12.566-2.9961 24.883-3.9727 37.383-0.41406 17.312-2.1914 34.57-5.3086 51.605-0.42578 2.8164-2.0117 5.3203-4.3711 6.9141-2.8281 2.8828-4.3984 6.7695-4.3789 10.809-3.6875 19.586-5.4219 39.492-5.1758 59.426 0.27734 14.977 1.9141 29.898 4.8906 44.582 2.1406 12.336 1.457 24.879 3.9844 37.254 1.793 8.7695-4.6719 14.477-12.344 18.18-1.9805 0.85547-3.8789 1.8984-5.6641 3.1133-2.3906 1.7812-4.4648 6.4258-7.3984 4.1875-3.9336-2.3906-6.2812-6.707-6.1484-11.309 1.0703-12.5 3.0273-24.914 2.8594-37.543-0.1875-14.012-2.0039-27.961-2.1484-41.871-0.70312-13.406-2.4141-26.738-5.1172-39.891-0.57812-3.6133-1.9648-5.8242-5.6445-4.0781-6.7891 3.2305-10.246-1.5625-12.996-5.8047v0.003906c-1.2109-2.4844-3.6094-4.1797-6.3555-4.4883-3.0156-0.027344-5.7461-1.7852-7.0234-4.5156-2.0312-4.5625-4.7383-8.793-8.0312-12.543-11.812 6.3203-8.3477 18.93-10.973 28.891-2.4102 12.848-3.1992 25.945-2.3555 38.988-0.43359 15.91 0.95312 31.816 4.1367 47.406 2.2266 9.8633 1.1992 20.141 3.4492 30.141 1.3984 6.1992-2.4766 8.7773-8.5898 6.3477-5.2461-2.4961-11.348-2.4297-16.535 0.17578-0.88672 0.38672-1.8125 0.67969-2.7578 0.86719-16.805 4.457-22.391-0.48047-18.172-16.91 4.1641-16.23 7.125-32.801 10.453-49.113 3.3086-16.223 7.8242-33.516 2.5273-50.637-0.94141-3.0469-0.33594-7.9258-6.3555-5.8242l-0.003906 0.003906c-1.4648 0.23047-2.9492-0.26953-3.9727-1.3438-3.9258-4.3906-9.75-6.5859-15.598-5.8867-5.1992-0.28906-9.6016-3.9297-10.867-8.9805-2.2969-5.7188-7.2227-10.102-8.6992-17.352zm-58.504-254.61c-1.6055 3.0469 1.2266 7.6602-3.75 7.3594-3.7773-0.22656-2.6641-3.8984-3.0273-6.3633-0.035156-0.23828 0.015625-0.48828-0.011719-0.72656-0.27734-2.2773 0.67969-5.0625-2.457-6.1914-2.7695-0.99609-2.4414 2.1797-3.9375 3.0508-1.3438 1.4375-3.418 1.9375-5.2695 1.2656-2.5469-1.5859-0.40234-3.3281 0.34766-4.9414h0.003906c0.38281-0.60156 0.73047-1.2227 1.0391-1.8633 0.69141-1.5625 0.73438-3.332 0.12109-4.9258-0.61719-1.5938-1.8398-2.875-3.4062-3.5625-3.8281-0.94531-3.6094 3.4688-3.9219 6.1758-0.76953 6.6992-1.2891 13.426-2.0547 20.125-1.8594 16.289-14.859 25.992-23.098 38.469-7.543 11.418-18.863 19.379-28.613 28.77-2.4375 2.7305-5.5586 4.7695-9.0391 5.9023-3.4805 1.1328-7.2031 1.3203-10.781 0.54688-11.957-2.4141-21.992-10.504-26.883-21.68-2.9102-5.5352-4.9922-11.465-6.1758-17.605-0.73047-2.4219-3.0898-3.9766-5.6055-3.6836-2.7461-0.33984-2.2461 3.1445-2.3633 4.4062-1.5039 7.832-1.4961 15.883 0.027344 23.715 0.95312 2.2422 0.63672 4.8203-0.82422 6.7656-5.5586 6.0703-3.75 12.582-2.3633 20.055 1.7266-2.4727 0.92188-5.9805 4.6719-5.2773-2.1836 16.965-1.4023 23.586 3.7305 29.426-0.29688-2.0312-0.26172-4.0938 0.10938-6.1133 1.5078-3.8672-0.74219-10.664 3.7109-11.27 4.0117-0.54297 4.9453 6 6.7656 9.7773 2.4297 5.043 3.7461 10.379-0.65625 14.516-3.4766 3.2656-7.0234 4.9805-4.4492 11.09h0.003906c0.77734 4.3867 2.6875 8.4922 5.5508 11.902 0.35156-3.5391 0.98047-7.0508 1.8711-10.496 0.15234-1.4102 0.94141-2.6758 2.1445-3.4297 1.7188-0.23438 3.4102 0.60547 4.2578 2.1172 2.5781 4.6211 4.7578 10.156 0.75391 14.188h0.003906c-3.5312 3.6719-4.9805 8.8672-3.8594 13.836 0.4375 6.9766 1.4648 13.902 3.0664 20.707 0.83203 4.75 3.8281 8.8398 8.1055 11.059 0.26562-0.87109 0.46484-1.7578 0.60156-2.6602 0.24219-4.5547 0.28125-13.008 3.0391-12.258 5.4414 1.4844 3.6836 8.8828 3.8711 14.086v0.003906c0.078125 0.72266-0.023438 1.457-0.29297 2.1328-5.7617 11.125-2.9961 22.016 1.5234 32.488 3.9141 9.0703 8.625 9.2422 14.703 1.2578h-0.003907c0.73047-2.5039 3.1289-4.1445 5.7305-3.9102-0.91797 1.1484-1.6211 1.9844-2.2734 2.8555-3.5742 4.7656-6.6406 11.293-13.875 9.4688-7.4102-1.8672-8.043-9.332-9.8398-15.527-3.1992-11.043 0.066406-24.355-11.672-32.496-1.582-1.8359-2.5625-4.1172-2.8125-6.5273-2.0586-7.6562-3.1836-15.535-3.3555-23.461 0.58594-3.3594-0.49219-6.793-2.8906-9.2148-5.293-4.7227-8.332-11.469-8.3633-18.562 0.36328-2.4414-0.29297-4.9219-1.8242-6.8594-5.4102-4.543-5.6875-10.988-6.7461-17.102-0.066406-2.5977-0.98828-5.1016-2.6133-7.125-1.9258 7.8047-5.4883 15.301 2.5195 22.191 2.4219 2.082 3.7109 7.1641-2.8906 7.2578h-0.003906c-0.81641-0.097656-1.6328 0.16406-2.2383 0.72266-0.60547 0.55469-0.9375 1.3477-0.90625 2.1719-2.2656 5.7656-0.53516 12.332 4.2812 16.23 1.7969 1.0742 3.0586 2.8555 3.4844 4.9062 0.42188 2.0508-0.03125 4.1836-1.2539 5.8828-4.957 3.9492-2.2383 7.7773-1.8906 11.598 0.39453 4.5156 3.0078 8.5391 6.9727 10.738 3.9414 2.0547 6.4453 6.1055 6.5234 10.551-0.29297 4.8047-4.9297 1.375-6.4961 3.4102 1.6289 6.4961 2.7969 12.551 10.816 14.645h-0.003906c1.8555 0.75391 3.2812 2.2891 3.8945 4.1953s0.34766 3.9883-0.71875 5.6797c-0.69922 1.5703-3.1328 2.9375-1.2852 5.0938 4.5977 5.3594 5.3438 14.305 14.734 15.34 2.0547 0.86719 3.3984 2.8711 3.4258 5.1055 0.31641 6.9805 6.207 12.398 13.191 12.133 4.0195-0.023438 7.5078 2.7617 8.3828 6.6836 0.51172 3.1523 2.1719 2.7539 4.2656 3.4062 4.6445 1.4453 6.5195-4.5781 8.7227-4.0391 5.7617 1.4102 6.043-1.1367 5.9102-5.3164h-0.003906c-0.21094-0.70703-0.12109-1.4727 0.25391-2.1094 0.37109-0.64062 0.99219-1.0938 1.7148-1.2578 1.0664 0.38672 2.0156 1.043 2.75 1.9102 0.4375 1.3281 1.4609 2.3828 2.7812 2.8477 1.0352-1.3477 2.0938-2.6562 3.0742-4.0234 3.4805-5.7578 9.0312-9.9648 15.512-11.762 6.4805-1.7969 13.406-1.043 19.352 2.1016 2.8516 1.1914 6.9258 5.7188 10.68 0.16797 2.5391-3.7539 4.5273-3.6406 5.9609 1.2617 0.29297 2.375 1.9766 4.3477 4.2773 5.0156 2.3008 0.66406 4.7773-0.10547 6.293-1.9609 0.71094-1.2344 2.0938-1.918 3.5039-1.7305 1.9297 0.48828 1.5742 2.3203 1.5156 3.5898-0.26953 5.8164 4.4883 5.9375 7.9102 6.2383 3.918 0.34766 4.9531-3.1602 5.0586-6.5508 0.10547-3.4414 0.60547-8.668 3.7031-8.3047 4.2461 0.5 1.375 5.5625 1.8477 8.6172 0.34375 2.2188-0.78516 5.2148 2.168 6.2617 3.3125 1.1719 4.6914-1.3711 5.9531-3.8594l-0.003906 0.003906c2.8359-4.4844 4.7227-9.4961 5.5508-14.734-0.20703-1.1055 0.097656-2.2461 0.82812-3.1016 0.73047-0.85547 1.8086-1.3359 2.9336-1.3086 3.3867 0.51562 1.4805 3.4648 1.6328 5.3516 0.10547 1.3047-1.1758 2.8398 0.80859 3.6133v0.003907c5.4492-9.7422 6.5898-21.316 3.1484-31.934 3.2812 2.1914 5.9375 5.1953 7.7148 8.7188 4.5078-5.3906 7.1992-12.074 7.6836-19.086 0.60937-7.0117-3.5391-15.293 5.3125-20.188 0.28906-0.65625 0.44141-1.3672 0.44922-2.082 2.7383-8.5586 0.99219-17.352 1.2656-26.023 0.42969-12.785 3.582-25.332 9.2461-36.801 1.7969-3.6836 4.6836-10.215 8.7305-9.2266 4.1562 1.0117 0.60156 7.1836 1.0117 11.059-0.042968 1.6758-0.28516 3.3438-0.72656 4.9609-2.0195 10.98-0.47266 22.32 4.4141 32.359 1.9883 3.8555 3.2617 9.7812 8.9648 8.8008 4.1719-0.71875 5.9648-5.5234 7.9727-9.3086 4.3906-8.2773 9.2188-16.32 13.539-24.949v-0.003906c0.74609 5.9453 1.043 11.941 0.89453 17.934-0.39453 5.207 2.6602 10.059 7.5273 11.953 5.4062 1.8711 7.5195-3.8516 9.2812-7.4062h-0.003906c3.918-5.832 6.2148-12.605 6.6523-19.617-0.12109-1.6992 0.84766-3.2891 2.4141-3.9609 1.75 0.98437 2.6797 2.9727 2.3125 4.9453 0.52734 6.4375 2.293 12.715 5.1953 18.484 4.0273 7.4805 7.8047 8.5508 13.59 2.1836v-0.003907c3.8438-4.2812 6.7969-9.2891 8.6836-14.73 2.0039-5.6758 3.7148-11.457 5.7461-17.781 6.4297 6.7852 2.4688 20.312 16.031 20.621-6.4766 5.3594-9.4609 3.7617-16.406-8.8789v0.003907c-2.6562 9.4531-7.4844 18.152-14.102 25.406-5.3672 5.5273-8.5234 5.4414-13.996 0.019531-4.3555-4.3164-5.2148-10.422-8.5898-17.512h0.003906c-0.82812 5.082-2.7812 9.918-5.7227 14.145-2.2461 4.1758-5.2266 9.3672-11.254 8.7891h0.003906c-5.2148-0.82031-9.0898-5.2656-9.1875-10.543-0.88281-3.1562-1.9961-6.25-3.3242-9.25-1.6328 1.8242-2.9141 3.9375-3.7695 6.2305-2.2695 5.0664-5.082 9.8711-8.3945 14.324-1.1719 2.0195-3.2852 3.3125-5.6172 3.4375-2.3359 0.12109-4.5703-0.9375-5.9531-2.8242-5.9922-5.5781-7.4727-13.031-10.414-22.359-1.7422 10.465-7.2227 17.59-7.5273 26.762-0.097656 6.9102-1.3594 13.758-3.7266 20.25-5.5898 14.449-9.2812 29.578-15.766 43.715-1.1875 2.5898-1.4688 5.5898-2.5859 8.2266v-0.003906c-0.57031 1.3555-0.089844 2.9258 1.1406 3.7266 1.5977 1.8047 2.2891-0.066406 3.3945-0.71875 2.6094-1.8008 6.0039-1.9922 8.8008-0.5s4.5234 4.4219 4.4805 7.5898c0.27344 2.1719-0.03125 4.375-0.88672 6.3906-0.67578 1.3203-0.69922 2.8828-0.070312 4.2266 0.625 1.3438 1.8398 2.3242 3.2891 2.6562 3.3359 1.6953 4.7344 0.58984 5.5508-2.8203 0.22266-1.7578 1.7695-3.043 3.5391-2.9492 1.4297 0.56641 2.2031 2.1211 1.793 3.6055-0.43359 3.7031 1.5977 4.0664 4.7109 4.4805 9.2734 1.2383 10.453-5.6562 12.746-11.75 1.2305-3.2695 3.0859-9.1445 5.6602-8.0039 4.5312 2.0078-0.69141 5.8711-1.0703 9.0625v-0.003906c0.03125 0.50391 0.14062 0.99609 0.32031 1.4648 2.4922-1.418 4.7031-3.2734 6.5234-5.4844 4.6641-4.4414 5.2266-11.473 11.082-15.418 3.793-2.5547 8.6719-2.8242 11.914-7.0977 1.7305-2.2773 3.207 1.7422 3.7578 4.1016 0.53906 2.3203-1.7891 5.5703 0.72656 6.8203 3.6992 2.6328 6.3516 6.4844 7.4961 10.879 1.1875 2.2656 1.7227 5.6641 5.0898 1.2266 3.1445-4.1445 5.5664-1.1484 6.6211 2.1172 0.4375 2.3633 0.14062 4.8008-0.85156 6.9883-0.83984 3.7344 1.3633 7.4805 5.0352 8.5625 3.8125 1.9805 4.5508-0.51562 4.9219-3.6016 0.19531-1.6211 1.7031-1.5391 2.8633-1.3555 1.4531 0.26953 2.5781 1.4297 2.8047 2.8945 0.56641 1.8906-1.9961 3.5586-0.20703 5.4336 3.0508 0.57031 3.4258-2.1211 4.5-3.7891 2.2031-3.4297 4.1211-7.043 6.4141-10.406 0.66797-0.98047 1.8828-2.707 3.3008-1.8359 1.2812 0.75781 1.7969 2.3477 1.2031 3.7109-1.9336 4.5391 1.8633 6.2227 4.9961 9.9336h0.003907c1.3633-12.18 3.7695-24.223 7.1875-35.992 5.2383-15.199 4.418-31.73 7.3359-47.531 1.3711-7.4258 1.9375-15.219 3.6953-22.344 2.3789-9.6445 5.1055-18.672 1.8242-28.473-1.0703-3.2031-2.4922-7.3047 0.91016-9.2383 2.7852-1.2891 4.1992-4.4336 3.3086-7.3711-0.42578-3.8008-0.50781-7.6328-0.24609-11.449 2.0938-21.457 1.7227-43.082-1.1133-64.453-0.72656-4.7383-2.1953-7.9219-8.3594-3.0234 0.58984-4.1445 2.8594-7.3477-0.12891-10.398-7.7969-7.9648-14.277-17.711-27.039-18.434v0.003906c-1.4609-0.1875-2.832-0.80859-3.9375-1.7773-3.2617-3.6953-8.5859-4.7695-13.023-2.6289-2.9648 0.64844-5.9336-1.082-6.8281-3.9805-4.5273-7.6094-7.0625-7.8438-13.176-1.4844-2.2188 2.3086-4.8828 5.3242-7.0039 0.22656-2.4102-5.7891-4.9141-4.0625-7.5938-0.57812v-0.003906c-2.1445 3.3711-6.3125 4.8438-10.098 3.5703-6.3945-1.6641-13.398-1.0977-19.477-2.1992-13.578-2.4609-27.605 1.1914-40.824-4.1953-7.3047-2.9766-13.633 4.3789-21.301 3.25-4.2969-1.2188-8.9141-0.25-12.355 2.5977-1.3047 0.75781-2.9531 0.55859-4.043-0.48828-2.6445-2.0781-5.8555-3.3125-9.2148-3.5312-3.3555-0.21875-6.7031 0.58203-9.5977 2.2969-1.3555 0.72656-3.6289 1.9219-3.9453-0.83594-0.64453-5.6211-5.9883-5.6289-9.4102-9.0781zm-130.52 6.2305c-0.40625 15.438 2.1016 30.809 7.3945 45.312 2.5273 8.3789 7.6836 15.715 14.711 20.93 3.7031 3.5859 8.6523 5.5977 13.805 5.6055 5.1562 0.007813 10.109-1.9844 13.824-5.5547 11-8.293 20.797-18.07 29.109-29.055 10.719-13.926 22.898-26.984 21.246-46.637-0.54297-6.4453 2.8789-15.504-0.29688-18.926-5.0547-5.4492 2.375-5.4844 1.582-8.625-0.59766-2.3555 2.5508-3.1875 4.8438-2.1328h-0.003906c2.0898 0.65234 4.3672 0.23047 6.0859-1.1289 6.7852-3.0117 13.781-5.5195 20.938-7.4961 6.8711-1.1758 13.453-3.6406 19.406-7.2617 3.8711-2.9141 2.7773-4.1328-0.51562-5.8672-9.0781-3.8438-19.152-4.6797-28.742-2.3867-10.238 1.3867-21.289 1.2812-29.629 9.2422-6.1758 5.8945-8.5234 6.0039-12.258-1.7891-8.0977-16.895-23.836-18.035-38.66-17.723h-0.003906c-13.535 0.71875-26.559 5.4258-37.422 13.531-2.6289 2.418-6.7031 2.3008-9.1875-0.26562-6.1055-6.8984-14.82-8.8203-22.484-12.535-7.6133-4.5234-16.648-6.0312-25.32-4.2266-6.5273 1.8047-7.8086 5.1758-3.1562 9.9609 7.8359 8.1953 17.289 14.676 27.758 19.035 7.2266 3.3867 15.332 4.4141 23.172 2.9375 4.5742-0.54297 9.1953-0.57812 13.777-0.097657 0.73047-0.11328 1.4727 0.10938 2.0156 0.61328 0.54297 0.50391 0.82422 1.2305 0.76172 1.9688-0.10547 1.6445-1.6328 1.3984-2.7383 1.7227-1.6367 0.48047-4.082-0.75-4.5312 2.2969-2.0312 13.801-7.4883 27.168-5.4805 38.551zm146.37 403.04c3.2461-14.914 0.019531-29.711-0.035156-44.469-0.058594-15.938 2.2148-31.457 3.3555-47.172 0.86719-11.98 0.40234-24.035 1.6367-36.027 0.36328-3.5156 0.17969-7.5391-5.457-7.1094-5.7891 0.44141-4.9414-8.2656-8.6992-7.8281-3.9492 1.332-8.2734 0.99219-11.969-0.94141-5.7539-3.9844-9.2891-1.8008-10.43 5.4258-0.55078 6.2266-0.44141 12.492 0.32812 18.695 1.4492 27.789-5.4844 55.188-3.5 83.023h0.003906c0.14844 9.1328-0.16016 18.266-0.92578 27.367-0.046875 1.5508-0.91016 3.7891 1.0625 4.5547 2.0859 0.8125 2.3438-1.7617 3.5039-2.6445 3.207-2.4336 9.6094-6.2031 10.555-3.6094 2.4414 6.6875 6.2227 3.8203 9.6641 3.1719 9.082-1.7148 9.043-1.8633 9.3633 6.6445h0.003907c0.44531 0.41016 0.97266 0.72266 1.543 0.91797zm-57.656 5.0391c6.6367-0.66797 10.039-2.1172 8.9492-9.6719-2.0039-13.938-1.6758-28.379-4.0195-42.043h0.003906c-1.7695-15.965-2.2305-32.051-1.375-48.094-1.0547-12.703-0.84375-25.477 0.62109-38.133 0.27734-2.418 0.33984-4.8516 0.19531-7.2773-0.011719-1.4961-0.90625-2.8516-2.2812-3.4453-2.0078-1.0938-2.5156 0.92188-3.2188 1.8867-2.0547 3.0781-5.7305 4.6562-9.3789 4.0273-6.8594-0.74219-9.5273 2.9766-9.8594 9.3828-0.36719 7.0547 1.3828 13.898 1.6719 20.918 0.67578 16.336 2.1758 32.629 2.8672 48.992 0.76172 18.148 6.3398 36.289-1.582 54.41 4.9805 1.0391 10.164 0.50391 14.828-1.5312 3.0898-1.707 6.9766-0.76172 8.9336 2.1758 1.6484 2.625-1.7109 4.3398-3.9453 5.7578h0.003906c-0.89844 0.78906-1.707 1.6758-2.4102 2.6445zm158.28-12.094h0.003906c3.7266-0.0625 7.4375 0.51172 10.969 1.6953 1.7656 0.72266 6.0195 1.3672 5.0938-2.5078-1.4336-6-0.36328-11.992-1.3125-17.973-3.6953-23.234-7.5273-46.406-5.1523-70.211l-0.003906-0.003907c0.25391-11.266 1.0742-22.508 2.457-33.691 1.9844-4.5391 2.25-9.6445 0.74219-14.363-1.7656 2.7695-3.7188 5.4219-5.8438 7.9297-2.5859 2.668-5.5 6.4531-9.6836 2.6719-3.5469-3.207-4.6953-1.2461-6.0117 1.8438-1.8594 3.6211-2.1914 7.8398-0.92188 11.707 2.6797 7.2852 3.7031 15.078 2.9961 22.812-2.8047 26.258-9.5078 51.852-13.574 77.902-0.90234 2.5859 0.11719 5.4531 2.4492 6.8906 1.0117 1.0781 2.4609 1.6328 3.9297 1.5039 1.4727-0.125 2.8047-0.92187 3.6133-2.1562-2.5977-0.80078-6.6914 0.070313-6.0039-3.7891 0.55469-3.0977 4.1367-1.5703 6.2812-1.3164 5.9531 0.70312 11.848 1.8711 17.785 2.7266 1.6758 0.29297 3.2266 1.0664 4.4648 2.2344 1.2852 0.8125 1.8203 2.418 1.2812 3.8359-0.85547 1.9414-2.2969 1.043-3.6289 0.44531-3.3867-1.293-7.2109-0.59375-9.9258 1.8125zm77.344 2.0195c-0.12891-2.1445 0.62891-4.25 2.0977-5.8203 1.4727-1.5664 3.5234-2.4609 5.6719-2.4688 3.7031-1.0586 7.2539-2.5742 10.578-4.5156 0.70312-0.082031 1.3398-0.45703 1.7539-1.0352 0.41016-0.57422 0.5625-1.2969 0.41797-1.9883-1.4531-10.918-2.8203-21.852-3.9141-32.809-1.4805-14.785-5.2305-29.312-4.4258-44.367 0.47266-8.8281 0.085938-17.703 0.085938-27.828l0.003906-0.003906c-3.6602 2.9922-8.7148 3.6211-12.996 1.6172-4.6016-1.6523-6.5664 0.375-5.6055 5.5312 4.5898 28.504 6.9219 57.324 6.9766 86.195 0.23828 9.0625-2.9297 18.02-0.64453 27.492zm-111.65-256.31c0.070312 0.41797 0.015625 0.84766-0.15625 1.2344-0.56641 1.2383-0.50781 2.6719 0.15625 3.8555 0.66406 1.1875 1.8516 1.9883 3.2031 2.1523 3.2031 0.85547 2.2695-2.832 3.0664-4.4727 1.0898-2.3398 1.8828-4.8125 2.3594-7.3516 0.93359-4.6055-3.5547-2.6797-5.3477-3.957-2.7148-1.9414-2.6523 1.1133-2.957 2.6094h0.003906c-0.24219 1.9648-0.35156 3.9453-0.32812 5.9297zm-127.87 107.32c-1.7188 1.5586-3.2227 3.3438-4.4609 5.3047-0.84766 1.9414-5.1055 3.9141-1.5391 6.1719 2.8594 1.8125 5.2461-0.83984 6.9102-3.375h0.003907c1.8125-2.5352 1.418-6.0312-0.91406-8.1016zm123.39 4.5c0.09375-2.9805-1.8281-5.6562-4.6875-6.5117-0.84766-0.046875-1.6758 0.30078-2.2344 0.94141-0.5625 0.64062-0.79687 1.5039-0.64062 2.3398 0.10156 3.1211 1.9102 5.9297 4.707 7.3164 2.0742 0.66797 2.2812-2.3984 2.8555-4.0859zm-207.45-134.55c7.6289-4.9688 7.6328-5.0898 0.84375-15.898zm351.29 81.59c-3.1094 6.3203-3.1875 13.715-0.20703 20.098 2.0312-6.5352 2.1016-13.523 0.20703-20.098zm-82.621 49.672c-0.054688-4.6328 5.2617-6.625 1.8477-10.332v0.003906c-0.84375-0.73828-1.9805-1.0352-3.0781-0.80469-1.0938 0.23047-2.0156 0.96094-2.4922 1.9727-3.4609 4.375 1.6445 5.3008 3.7227 9.1602zm94.941-174.45c2.125-7.0312 1.9102-14.562-0.60938-21.461-0.71875 3.4219-0.78516 6.9492-0.19531 10.398 0.62891 3.6523 0.89844 7.3555 0.80469 11.062zm-148.86 194.5c-3.6719-1.8711-6.8945-3.5625-10.172-5.1484-0.75-0.36328-1.8477-1.0234-2.4258 0.20313l0.003907-0.003907c-0.48828 0.85547-0.23438 1.9414 0.58594 2.4922 3.0195 3.3828 7.9023 4.3828 12.008 2.4531zm-95.711-19.027c-3.6602-0.58984-6.3867-4.1445-10.117-1.4844h0.003906c-0.37109 0.33594-0.54688 0.83594-0.46094 1.3281 0.082032 0.48828 0.41406 0.90625 0.87109 1.0977 2.9766 1.5039 6.0273 4.7539 9.7031-0.94141zm104.07 19.938v-0.003906c-0.33594 1.5156-0.046875 3.1055 0.80078 4.4062 0.84766 1.2969 2.1836 2.2031 3.707 2.5078 1.9609 0.28125 1.9766-1.9453 1.7344-3.2344-0.23828-1.2891 1.9375-2.418 0.16406-3.6797h-6.4062z"/>
 </g>
 <path d="m328.22 359.13c1.1914-7.0781 0.22656-14.352-2.7695-20.871-1.5938-5.5977-2.1055-11.449-1.4961-17.234-0.32031-1.1797-0.15625-2.4375 0.46094-3.4922 0.61719-1.0547 1.6367-1.8164 2.8203-2.1094 1.3438-0.26172 2.7344 0.0625 3.8281 0.89062 1.0898 0.82422 1.7812 2.0742 1.8984 3.4375 1.7031 7.0938 1.8438 14.469 0.41406 21.621-1.2188 2.9961 0.14062 6.4258 3.0859 7.7695 3.4492 1.3633 4.1406-2.6914 5.3008-4.5625 7.7773-12.555 9.9375-26.902 12.719-41.074 0.61719-7.3164 2.1914-14.52 4.6797-21.43 1.2969 0.54297 2.2969 0.98828 2.1562 2.1523v0.003907c-1.3789 13.41-0.22266 26.961 3.418 39.941 0.007813 3.4844 2.3555 6.5273 5.7227 7.4219 3.2656-0.20703 6.0352-2.4766 6.875-5.6406 7.2539-12.289 10.559-26.508 9.4648-40.734-1.4062-8.3047-0.42188-16.84 2.8359-24.605 4.0352 4.9531 1.2539 9.8906 1.2031 14.293-0.71484 9.1289 0.27344 18.309 2.9062 27.074 0.3125 1.1562 0.69141 2.2891 1.1445 3.3945 2.6641 5.1211 4.9648 11.043 12.16 10.551 4.1484-0.28516 8.7578-10.34 7.9414-16.449-0.94922-7.125-2.1836-14.211-3.0352-21.344-0.25781-2.1797-1.8086-5.7852 1.4102-6.2773 3.6289-0.55469 2.9883 3.7656 3.6484 5.9023 2.6172 8.4688 0.48828 17.797 4.4688 26.086 0.10156 0.20703 0.023437 0.49219 0.10156 0.71875 3.1172 8.957 8.957 14.426 14.133 13.246 6.4922-1.4766 13.016-13.598 11.801-21.387-1.1445-7.3516-1.9492-14.762-2.8242-22.152-0.1875-1.582-0.90625-3.8047 1.4844-4.1719l0.003907-0.003906c0.84766 0.019531 1.6523 0.39062 2.2148 1.0234 0.5625 0.63672 0.83203 1.4766 0.75 2.3203 1.9062 6.6797 2.9297 13.582 3.0508 20.527-0.34375 4.3594 0.4375 8.7344 2.2656 12.707 0.99609 3.8555 4.2383 6.7148 8.1914 7.2188 3.7461-0.046875 7.0938-2.3438 8.4883-5.8242 3.5078-5.8594 4.832-12.77 3.7383-19.512-0.35938-2.8711-0.625-5.7578-0.81641-8.6445-0.097656-1.4727 0.023438-3.3125 1.8516-3.3906 1.5078 0.15625 2.6094 1.4922 2.4766 3 0.91016 5.7461 1.4062 11.555 1.4805 17.375 0.082031 3.2812 1.1055 6.4688 2.9414 9.1875s4.4102 4.8594 7.4219 6.1641c2.9062 0.3125 5.8398-0.17969 8.4805-1.4219 2.6445-1.2461 4.8906-3.1914 6.5-5.6289 3.2812-3.6641 0.54297-7.7812 0.94531-11.652 0.32812-3.1758-1.918-8.5586 1.8125-9 3.8906-0.46094 3.0078 5.4258 3.5508 8.2656 1.4297 7.4766-0.95313 15.523 3.3086 22.68 2.6602 4.4688 4.2227 10.957 10.926 9.8555 6.6367-1.0898 8.6992-7.1758 9.375-13.09l0.003907 0.003906c0.97656-6.418 0.63672-12.969-0.99609-19.254-0.57422-1.9375-0.68359-4.3789 1.7344-4.7969 1.8906-0.32422 2.4648 1.8906 2.75 3.5977 0.82422 4.9883 1.7656 9.9609 2.3789 14.977l-0.003906-0.003906c0.21484 2.8984 1.2266 5.6797 2.9258 8.0352 3.1367 3.957 6.8047 4.8477 9.918-0.011719v0.003907c3.7852-4.6602 6.9297-9.8008 9.3516-15.293 0.58594-1.8359 1.7969-5.0469 4.1367-3.9102 3.0195 1.4648-0.074219 3.7383-0.89062 5.2461-2.5156 4.6406-5.4258 9.0742-8.2891 13.52-6.7422 10.473-11.508 10.859-19.664 1.1875-3.6523 6.8164-5.6602 16.625-15.934 14.371-10.574-2.3203-11.625-12.82-14.73-21.824-5.6797 3.1914-9.5 9.7773-16.809 8.6836-6.793-1.0156-9.957-6.9258-14.219-11.777-3.0977 6.5664-6.3906 12.773-13.988 13.16-7.0469 0.35938-10.004-5.5352-12.973-10.844-11.77 18.941-20.422 20.043-32.461 0-3.957 4.9648-4.7617 13.832-13.863 12.391-8.5586-1.3555-10.254-9.2695-13.82-16.164-3.6016 8.0273-7.0391 15.688-10.477 23.348-1.8984 4.2266-3.6055 8.9258-9.5117 8.2383-5.7266-0.66797-7.3867-4.8984-8.3086-10.012-1.1406-6.3281-2.6953-12.578-4.0859-19.34-2.4062 8.8711-5.0195 17.695-7.1445 26.637-1.5703 5.75-3.8516 11.285-6.7812 16.473-0.95312 2.3359-3.168 3.9062-5.6836 4.0312-6.0391-1.8047-7.2227 2.8594-9.6406 6.082zm2.6797-36.988-2.1289 0.035156h0.003907c-1.6758 5.918-0.91016 12.258 2.1289 17.602v-17.637z"/>
 <path d="m403.06 387.87c-1.6641 9.2852-3.7891 18.48-6.3789 27.555-1.8164 5.2109-3.9258 10.316-6.3203 15.289-1.1211 3.4727-4.25 5.9062-7.8906 6.1406-3.6445 0.23438-7.0586-1.7852-8.6094-5.0859-5.0938-6.6797-8.4102-14.539-9.6406-22.848-3.0078 3.8945-4.7812 8.5977-5.0859 13.508-1.75 5.9961-4.3359 11.711-7.6875 16.984-3.6758 6.1953-9.9062 5.6797-14.262-0.12109-4.1055-5.4648-4.2852-12.613-8.4727-18.059-3.8633 5.1367-3.6406 11.891-7.0742 17.223-5.6992 8.8477-11.98 9.0977-17.59 0.058594h0.003906c-3.7891-6.125-6.6992-12.75-8.6484-19.684-2.3633-8.3203-5.1602-16.512-7.6836-24.785h-0.003906c-0.78516-2.8984-0.73047-5.9609 0.15625-8.8281 2.5039 1.1641 3.9844 3.7969 3.6836 6.543 2.4062 14.754 6.9453 29.082 13.48 42.531 1.332 3.7109 4.5391 6.4258 8.4141 7.1328 3.4648-0.58594 6.1758-3.3008 6.7656-6.7617 3.1797-7.6797 7.0156-15.156 5.3906-24.102h-0.003907c-0.91797-3.5898-0.80078-7.3672 0.33984-10.891 2.2539 1.2578 3.7031 3.5938 3.8242 6.1758 2.0391 9.2852 4.625 18.438 7.7383 27.414 0.91797 3.5234 3.7461 6.2305 7.3086 6.9883 3.8594 0.57422 5.4492-3.2109 6.9883-6.1992v0.003906c6.4531-11.871 9.8711-25.152 9.9531-38.664-0.03125-3.3516-0.003906-6.707-0.003906-10.461 5.3281 1.4492 4.3594 5.3516 4.3125 8.4297v-0.003907c-0.042969 10.664 2.5586 21.172 7.5703 30.586 1.1406 2.4023 2.7344 4.5625 4.6914 6.3594 3.8125 3.25 6.9492 4.125 9.9492-1.9062l0.003906 0.003906c6.7812-13.27 10.711-27.812 11.543-42.688 0.10938-2.1406-0.77734-5.4844 2.5898-5.918 3.6641-0.47266 2.9922 3.2344 3.6875 5.2148 3.2383 9.2266 3.6211 19.297 8.1875 28.148h0.003906c0.61328 1.5625 1.4336 3.0312 2.4414 4.3672 0.82031 2.3125 2.832 3.9961 5.25 4.3945 2.6719-0.69922 4.6172-2.9922 4.8711-5.7422 3.7344-9.6211 7.1094-19.383 10.746-29.043v0.003906c0.32422-2.7656 2.1406-5.1289 4.7266-6.1484-5.9102 13.762-7.5898 28.004-14.781 40.32-3.8828 6.6523-9.0664 6.8125-13.102 0.32812h-0.003906c-5.5664-10.578-9.4102-21.977-11.379-33.766z"/>
 <path d="m468.13 434.88c-0.92578 7.3008 1.1289 14.664 5.6992 20.434 1.1133 1.9531 3.1641 3.1758 5.4102 3.2305 2.2461 0.050782 4.3516-1.0781 5.5547-2.9766 4.5312-5.2969 8.7734-10.836 12.699-16.598 2.0547-2.8672 4.2852-6.9141 8.125-6.3438h0.003906c3.4102 1.375 5.9531 4.3086 6.8281 7.8828 0.9375 2.9492 2.1914 5.7891 3.7383 8.4688 4.7539 6.3359 7.0508 6.6094 11.074 0.085938 2.4141-4.1406 4.6133-8.4062 6.5898-12.773 2.0078-4.1484 4.043-6.2227 7.3203-0.96875 1.0078 1.6172 2.6875 2.7969 3.8008 4.3633 5.3008 7.4688 11.723 11.504 22.363 5.9023-8.0195 8.3125-14.148 7.8359-22.395 0.23047-2.6484-2.4453-4.0625-7.6055-7.6289-7.2031-3.8789 0.4375-3.1016 6-5.0312 9.0312-2.9727 4.6758-5.3242 11.113-11.508 10.48-6.1875-0.63672-8.0898-7.2461-10.586-12.484-1.6094-3.3789-1.2695-9.2031-4.8242-9.7344-3.6797-0.55078-5.1602 4.918-7.4219 7.9141-3.7773 5-7.3086 10.203-11.359 14.969v-0.003906c-1.6562 2.457-4.3867 3.9766-7.3516 4.0898-2.9609 0.10938-5.8008-1.2031-7.6328-3.5312-3.2344-3.1016-5.332-7.1992-5.9609-11.633-0.62891-4.4375 0.25-8.957 2.4922-12.832z"/>
 <path d="m328.06 359.01c0.78125 1.8242 0.69141 3.9023-0.23438 5.6562-0.92969 1.7539-2.5977 2.9922-4.5469 3.375-4.6641 0.97266-5.8086-3.6523-6.5977-7.0195-1.7227-10.453-2.2422-21.066-1.5469-31.637-0.003907-1.4453 0.23828-3.3633 2.0312-3.1484v0.003906c0.85547 0.16406 1.582 0.71875 1.9688 1.5 0.38281 0.78125 0.37891 1.6953-0.015625 2.4727-1.7344 8.7344-1.6836 17.727 0.14453 26.441 0.48047 3.0312 0.23438 7.043 3.3398 7.9375 3.3477 0.96484 2.9453-4.3281 5.6133-5.4609z"/>
 <path d="m284.51 293.59c-2.625-0.28906-5.6094 1.1797-6.2891-2.4805-0.59766-3.207 2.0742-3.6719 4.1016-3.7969 7.8867-0.49219 5.7969-6.4531 6.3789-11.043 0.80859-6.3828-5.3086-6.1445-8.2188-7.1211-11.57-3.875-13.934-6.5586-13.723-19.281l-0.003906-0.003907c-0.082031-7.957 0.99219-15.887 3.1953-23.539 1.8125-5.0508 0.32812-10.699-3.7344-14.211-1.2344-1.1602-2.3789-2.418-3.4219-3.7578-2.0273-2.8789-6.5586-5.3477-5.2188-8.9023 1.5586-4.1445 6.8164-2.8125 10.449-3.1719 10.539-1.0391 12.141 1.4961 10.871 11.797-1.6172 13.121-6.3398 25.664-6.6133 39.027l0.003906 0.003906c-0.625 2.8477 0.90234 5.7305 3.6094 6.8125 4.7578 2.2656 9.3789 4.8047 13.844 7.6055 0.39453 0.41406 0.96094 0.62109 1.5273 0.5625 0.57031-0.0625 1.082-0.38672 1.3789-0.875 2.3125-3.207 6.1406-4.9648 10.082-4.6289 2.418 0.13672 2.7344-0.75 2.793-2.8906 0.37109-13.629 4.1875-27.047 1.2695-40.957h0.003907c-0.85938-4.9727 1.7344-9.9023 6.3203-12.012 5.2695-1.7227 10.957-1.6992 16.215 0.0625 0.9375 0.37891 1.6289 1.1992 1.8477 2.1875 0.21484 0.98828-0.074219 2.0234-0.76953 2.7578-2.2305 3.457-4.8906 6.6094-7.9219 9.3867-5.1289 3.1211-8.5 8.4688-9.1055 14.441-1.1172 9.7695-3.7031 19.27-1.2852 29.301 1.375 5.7031-2.4297 8.6914-7.7852 10.117-11.926 3.168-13.289 6.9922-7.0625 18.078 0.99219 1.7656 1.7461 4.3984-1.8125 4.9336-3.7734 0.5625-7.5508 1.1016-10.926 1.5977z"/>
</svg>