<?xml version="1.0" encoding="UTF-8"?>
<!-- The Best Svg Icon site in the world: iconSvg.co, Visit us! https://iconsvg.co -->
<svg fill="#000000" width="800px" height="800px" version="1.1" viewBox="144 144 512 512" xmlns="http://www.w3.org/2000/svg">
 <path d="m584.77 356.39c-1.5-42.141-28.941-79.68-59.078-79.68-2.1406 0-4.2383 0.17969-6.2969 0.51953-1.8672-41.766-29.125-78.758-59.035-78.758-32.543 0-55.551 40.449-57.34 78.539-1.2539-0.12891-2.5039-0.29688-3.7695-0.29688-2.6172 0-5.1523 0.34375-7.6406 0.84766-1.7422-41.902-29.062-79.09-59.055-79.09-32.516 0-55.516 40.387-57.336 78.449-0.87891-0.0625-1.7461-0.20703-2.6289-0.20703-32.867 0-56.008 41.262-57.383 79.68-9.2617 0.23437-16.734 7.8047-16.734 17.125v34.484c0 9.4688 7.7031 17.172 17.172 17.172h0.42578l20.742 171.91c0.30469 2.5312 2.4531 4.4375 5.0039 4.4375h316.36c2.5469 0 4.6992-1.9023 5.0039-4.4336l20.742-171.91h0.42578c9.4688-0.003906 17.176-7.707 17.176-17.176v-34.484c0-9.3242-7.4844-16.898-16.75-17.129zm-10.074-0.042969h-96.305c1.375-36.848 23.266-69.562 47.301-69.562 24.445 0.003907 47.531 33.316 49.004 69.562zm-114.34-147.8c24.941 0 48.5 34.695 49.086 71.797-24.02 10.785-39.98 44.312-41.129 76.008h-9.9961c-1.2812-35.57-21.039-67.766-45.312-76.941 0.89844-37.379 23.035-70.863 47.352-70.863zm-12.113 147.8h-96.305c1.375-36.848 23.27-69.562 47.305-69.562 24.441 0.003907 47.527 33.316 49 69.562zm-115.69-147.8c25.066 0 48.746 35.039 49.109 72.348-23.289 11.402-38.672 44.344-39.797 75.457h-10.203c-1.3008-36.125-21.656-68.797-46.445-77.383 1.0625-37.199 23.117-70.422 47.336-70.422zm-59.965 78.242c24.441 0 47.523 33.316 49 69.562l-96.305-0.003907c1.375-36.848 23.27-69.559 47.305-69.559zm281.12 304.65h-307.42l-20.062-166.27h347.55zm37.734-183.44c0 3.9102-3.1836 7.0938-7.0938 7.0938h-368.71c-3.9102 0-7.0938-3.1836-7.0938-7.0938v-34.484c0-3.9102 3.1836-7.0938 7.0938-7.0938h368.71c3.9102 0 7.0938 3.1836 7.0938 7.0938z"/>
</svg>