<?xml version="1.0" encoding="UTF-8"?>
<!-- The Best Svg Icon site in the world: iconSvg.co, Visit us! https://iconsvg.co -->
<svg fill="#000000" width="800px" height="800px" version="1.1" viewBox="144 144 512 512" xmlns="http://www.w3.org/2000/svg">
 <path d="m213.38 611.45c-9.7148-5.0234-20.727-10.719-41.664-10.719-4.3477 0-7.875 3.5234-7.875 7.8711 0 4.3477 3.5273 7.875 7.875 7.875 17.109 0 25.137 4.1523 34.43 8.9609 9.7148 5.0234 20.723 10.719 41.664 10.719 20.938 0 31.949-5.6953 41.664-10.723 9.293-4.8086 17.32-8.9609 34.43-8.9609 17.113 0 25.137 4.1523 34.43 8.9609 9.7148 5.0273 20.727 10.723 41.664 10.723s31.949-5.6953 41.664-10.719c9.293-4.8086 17.32-8.9609 34.43-8.9609 17.113 0 25.137 4.1523 34.434 8.9609 9.7148 5.0234 20.727 10.719 41.668 10.719s31.953-5.6953 41.668-10.723c9.293-4.8047 17.32-8.957 34.434-8.957 4.3477 0 7.8711-3.5273 7.8711-7.875 0-4.3477-3.5234-7.8711-7.8711-7.8711-20.941 0-31.953 5.6953-41.664 10.719h-0.003906c-4.3047 2.375-8.8008 4.3867-13.438 6.0117v-28.949c21.871-2.293 39.449-14.301 51.141-35.086v-0.003907c5.9141-10.676 9.9023-22.312 11.773-34.371 0.28125-2.2383-0.41406-4.4922-1.9102-6.1875-1.4922-1.6914-3.6406-2.6602-5.8984-2.6602-2.2383 0-4.3906 0.085938-6.5039 0.21094 7.3281-11.77 12.195-24.895 14.312-38.594 0.28125-2.2422-0.41406-4.4961-1.9102-6.1875-1.4922-1.6914-3.6406-2.6602-5.8984-2.6602-2.2383 0-4.3906 0.085938-6.5039 0.21094v-0.003906c7.3281-11.766 12.195-24.895 14.312-38.594 0.28125-2.2383-0.41406-4.4922-1.9102-6.1836-1.4922-1.6953-3.6406-2.6641-5.8984-2.6641-2.2383 0-4.3906 0.085937-6.5039 0.21094 7.3281-11.766 12.195-24.895 14.312-38.594 0.28125-2.2422-0.41406-4.4922-1.9102-6.1875-1.4922-1.6914-3.6406-2.6602-5.8984-2.6602-2.2383 0-4.3906 0.085937-6.5039 0.21094 7.3281-11.77 12.195-24.898 14.312-38.598 0.28125-2.2383-0.41406-4.4922-1.9102-6.1836-1.4922-1.6953-3.6406-2.6641-5.8984-2.6641-2.2383 0-4.3906 0.085937-6.5039 0.21094 7.3281-11.766 12.195-24.895 14.312-38.594 0.28125-2.2422-0.41406-4.4922-1.9102-6.1875-1.4922-1.6914-3.6406-2.6602-5.8984-2.6602-2.2383 0-4.3906 0.085937-6.5039 0.21094 7.3281-11.77 12.195-24.898 14.312-38.594 0.28125-2.2422-0.41406-4.4961-1.9102-6.1875-1.4922-1.6914-3.6406-2.6641-5.8984-2.6641-34.34 0-53.68 15.277-62.977 25.898-9.3008-10.621-28.637-25.898-62.977-25.898-2.2578 0-4.4062 0.97266-5.9023 2.6641-1.4961 1.6914-2.1914 3.9453-1.9102 6.1875 2.1172 13.695 6.9883 26.824 14.312 38.594-2.1133-0.125-4.2656-0.21094-6.5039-0.21094h0.003907c-2.2578 0-4.4062 0.96875-5.9023 2.6602-1.4961 1.6953-2.1914 3.9453-1.9102 6.1875 2.1172 13.699 6.9883 26.828 14.312 38.594-2.1133-0.125-4.2656-0.21094-6.5039-0.21094h0.003907c-2.2578 0-4.4062 0.96875-5.9023 2.6641-1.4961 1.6914-2.1914 3.9453-1.9102 6.1836 2.1172 13.699 6.9883 26.828 14.312 38.598-2.1133-0.125-4.2656-0.21094-6.5039-0.21094h0.003907c-2.2578 0-4.4062 0.96875-5.9023 2.6602-1.4961 1.6953-2.1914 3.9453-1.9102 6.1875 2.1172 13.699 6.9883 26.828 14.312 38.594-2.1133-0.125-4.2656-0.21094-6.5039-0.21094h0.003907c-2.2578 0-4.4062 0.96875-5.9023 2.6641-1.4961 1.6914-2.1914 3.9453-1.9102 6.1836 2.1172 13.699 6.9883 26.828 14.312 38.594-2.1133-0.125-4.2656-0.21094-6.5039-0.21094l0.003907 0.003906c-2.2578 0-4.4062 0.96875-5.9023 2.6602-1.4961 1.6914-2.1914 3.9453-1.9102 6.1875 2.1172 13.699 6.9883 26.824 14.312 38.594-2.1133-0.125-4.2656-0.21094-6.5039-0.21094h0.003907c-2.2578 0-4.4062 0.96875-5.9023 2.6602-1.4961 1.6953-2.1914 3.9492-1.9102 6.1875 1.875 12.059 5.8594 23.695 11.773 34.371 11.691 20.785 29.27 32.793 51.141 35.086v31.75c-1.6562 0.09375-3.3906 0.15234-5.25 0.15234-17.109 0-25.137-4.1523-34.434-8.9609-9.7109-5.0234-20.727-10.719-41.664-10.719-20.941 0-31.949 5.6953-41.664 10.723-7.7344 4-14.609 7.5391-26.551 8.6172l-0.003906-47.305c21.871-2.293 39.449-14.301 51.141-35.086 5.9141-10.676 9.9023-22.312 11.773-34.371 0.28125-2.2422-0.41406-4.4961-1.9102-6.1875-1.4922-1.6914-3.6406-2.6641-5.8984-2.6641-2.2383 0-4.3906 0.085937-6.5039 0.21094 7.3281-11.766 12.195-24.895 14.312-38.594 0.28125-2.2383-0.41406-4.4922-1.9102-6.1836-1.4922-1.6953-3.6406-2.6641-5.8984-2.6641-2.2383 0-4.3906 0.085937-6.5039 0.21094 7.3281-11.766 12.195-24.895 14.312-38.594 0.28125-2.2422-0.41406-4.4961-1.9102-6.1875-1.4922-1.6914-3.6406-2.6602-5.8984-2.6602-2.2383 0-4.3906 0.085938-6.5039 0.21094 7.3281-11.77 12.195-24.898 14.312-38.598 0.28125-2.2383-0.41406-4.4922-1.9102-6.1836-1.4922-1.6953-3.6406-2.6641-5.8984-2.6641-2.2383 0-4.3906 0.085937-6.5039 0.21094 7.3281-11.766 12.195-24.895 14.312-38.594 0.28125-2.2422-0.41406-4.4922-1.9102-6.1875-1.4922-1.6914-3.6406-2.6602-5.8984-2.6602-2.2383 0-4.3906 0.085938-6.5039 0.21094 7.3281-11.77 12.195-24.898 14.312-38.598 0.28125-2.2383-0.41406-4.4922-1.9102-6.1836-1.4922-1.6914-3.6406-2.6641-5.8984-2.6641-2.2383 0-4.3906 0.085938-6.5039 0.21094 7.3281-11.766 12.195-24.895 14.312-38.594 0.28125-2.2422-0.41406-4.4922-1.9102-6.1875-1.4922-1.6914-3.6406-2.6602-5.8984-2.6602-2.2383 0-4.3906 0.085938-6.5039 0.21094 7.3281-11.77 12.195-24.895 14.312-38.594 0.28125-2.2422-0.41406-4.4961-1.9102-6.1875-1.4922-1.6914-3.6406-2.6641-5.8984-2.6641-34.34 0-53.68 15.277-62.977 25.898-9.3008-10.617-28.637-25.898-62.977-25.898-2.2578 0-4.4062 0.97266-5.9023 2.6641s-2.1914 3.9453-1.9102 6.1875c2.1172 13.699 6.9883 26.824 14.312 38.594-2.1133-0.125-4.2617-0.21094-6.5-0.21094-2.2578 0-4.4062 0.96875-5.9023 2.6602-1.4961 1.6953-2.1914 3.9453-1.9102 6.1875 2.1172 13.699 6.9883 26.828 14.312 38.594-2.1133-0.125-4.2656-0.21094-6.5039-0.21094h0.003907c-2.2578 0-4.4062 0.97266-5.9023 2.6641s-2.1914 3.9453-1.9102 6.1836c2.1172 13.699 6.9883 26.828 14.312 38.598-2.1133-0.125-4.2656-0.21094-6.5039-0.21094h0.003907c-2.2578 0-4.4062 0.96875-5.9023 2.6602-1.4961 1.6953-2.1914 3.9453-1.9102 6.1875 2.1172 13.699 6.9883 26.828 14.312 38.594-2.1133-0.125-4.2656-0.21094-6.5039-0.21094h0.003907c-2.2578 0-4.4062 0.96875-5.9023 2.6641-1.4961 1.6914-2.1914 3.9453-1.9102 6.1836 2.1172 13.699 6.9883 26.828 14.312 38.598-2.1133-0.125-4.2656-0.21094-6.5039-0.21094h0.003907c-2.2578 0-4.4062 0.96875-5.9023 2.6602s-2.1914 3.9453-1.9102 6.1875c2.1172 13.699 6.9883 26.828 14.312 38.594-2.1133-0.125-4.2656-0.21094-6.5039-0.21094h0.003907c-2.2578 0-4.4062 0.96875-5.9023 2.6641-1.4961 1.6914-2.1914 3.9453-1.9102 6.1836 2.1172 13.699 6.9883 26.828 14.312 38.594-2.1133-0.125-4.2656-0.21094-6.5039-0.21094h0.003907c-2.2578 0-4.4062 0.97266-5.9023 2.6641s-2.1914 3.9453-1.9102 6.1875c1.875 12.059 5.8594 23.695 11.773 34.371 11.691 20.785 29.27 32.793 51.141 35.086v47.305c-11.949-1.0781-18.828-4.6172-26.566-8.6172-9.7109-5.0273-20.723-10.723-41.66-10.723s-31.949 5.6953-41.664 10.723c-9.293 4.8086-17.32 8.9609-34.43 8.9609-1.8555 0-3.5898-0.058594-5.2461-0.15234v-31.75c21.871-2.293 39.449-14.301 51.141-35.086v-0.003907c5.9141-10.676 9.9023-22.312 11.773-34.371 0.28125-2.2383-0.41406-4.4922-1.9102-6.1875-1.4922-1.6914-3.6406-2.6602-5.8984-2.6602-2.2383 0-4.3906 0.085938-6.5039 0.21094 7.3281-11.77 12.195-24.895 14.312-38.594 0.28125-2.2422-0.41406-4.4961-1.9102-6.1875-1.4922-1.6914-3.6406-2.6602-5.8984-2.6602-2.2383 0-4.3906 0.085938-6.5039 0.21094v-0.003906c7.3281-11.766 12.195-24.895 14.312-38.594 0.28125-2.2383-0.41406-4.4922-1.9102-6.1836-1.4922-1.6953-3.6406-2.6641-5.8984-2.6641-2.2383 0-4.3906 0.085937-6.5039 0.21094 7.3281-11.766 12.195-24.895 14.312-38.594 0.28125-2.2422-0.41406-4.4922-1.9102-6.1875-1.4922-1.6914-3.6406-2.6602-5.8984-2.6602-2.2383 0-4.3906 0.085937-6.5039 0.21094 7.3281-11.77 12.195-24.898 14.312-38.598 0.28125-2.2383-0.41406-4.4922-1.9102-6.1836-1.4922-1.6953-3.6406-2.6641-5.8984-2.6641-2.2383 0-4.3906 0.085937-6.5039 0.21094 7.3281-11.766 12.195-24.895 14.312-38.594 0.28125-2.2422-0.41406-4.4922-1.9102-6.1875-1.4922-1.6914-3.6406-2.6602-5.8984-2.6602-2.2383 0-4.3906 0.085937-6.5039 0.21094 7.3281-11.77 12.195-24.898 14.312-38.594 0.28125-2.2422-0.41406-4.4961-1.9102-6.1875-1.4922-1.6914-3.6406-2.6641-5.8984-2.6641-34.34 0-53.68 15.277-62.977 25.898-9.3008-10.621-28.637-25.898-62.977-25.898-2.2578 0-4.4062 0.97266-5.9023 2.6641-1.4961 1.6914-2.1914 3.9453-1.9102 6.1875 2.1172 13.695 6.9883 26.824 14.312 38.594-2.1133-0.125-4.2617-0.21094-6.5-0.21094-2.2578 0-4.4062 0.96875-5.9023 2.6602-1.4961 1.6953-2.1914 3.9453-1.9102 6.1875 2.1172 13.699 6.9883 26.828 14.312 38.594-2.1133-0.125-4.2617-0.21094-6.5-0.21094-2.2578 0-4.4062 0.96875-5.9023 2.6641-1.4961 1.6914-2.1914 3.9453-1.9102 6.1836 2.1172 13.699 6.9883 26.828 14.312 38.598-2.1133-0.125-4.2617-0.21094-6.5-0.21094-2.2578 0-4.4062 0.96875-5.9023 2.6602-1.4961 1.6953-2.1914 3.9453-1.9102 6.1875 2.1172 13.699 6.9883 26.828 14.312 38.594-2.1133-0.125-4.2617-0.21094-6.5-0.21094-2.2578 0-4.4062 0.96875-5.9023 2.6641-1.4961 1.6914-2.1914 3.9453-1.9102 6.1836 2.1172 13.699 6.9883 26.828 14.312 38.594-2.1133-0.12109-4.2617-0.20703-6.5-0.20703-2.2578 0-4.4062 0.96875-5.9023 2.6602-1.4961 1.6914-2.1914 3.9453-1.9102 6.1875 2.1172 13.699 6.9883 26.824 14.312 38.594-2.1133-0.125-4.2617-0.21094-6.5-0.21094-2.2578 0-4.4062 0.96875-5.9023 2.6602-1.4961 1.6953-2.1914 3.9492-1.9102 6.1875 1.875 12.059 5.8594 23.695 11.773 34.371 11.691 20.785 29.27 32.793 51.141 35.09v28.949c-4.6367-1.625-9.1328-3.6367-13.438-6.0117zm359.81-343.17c3.2461-5.1406 15.996-22.023 45.258-25.207-2.5703 9.2852-8.0742 23.574-19.145 33.914-0.75391 0.70312-1.5312 1.3789-2.3164 2.0234v-0.003906c-8.6719 2.9492-16.734 7.4492-23.797 13.281zm0 47.23c3.2461-5.1406 15.996-22.023 45.258-25.207-2.5703 9.2852-8.0742 23.574-19.145 33.914-0.75391 0.70312-1.5312 1.3789-2.3164 2.0234-8.6719 2.9492-16.734 7.4492-23.797 13.277zm0 47.23c3.2461-5.1406 15.996-22.023 45.258-25.207-2.5703 9.2852-8.0742 23.574-19.145 33.914-0.75391 0.70312-1.5312 1.3789-2.3164 2.0234-8.6719 2.9492-16.734 7.4492-23.797 13.281zm0 47.23c3.2461-5.1406 15.996-22.023 45.258-25.207-2.5703 9.2852-8.0742 23.574-19.145 33.914-0.75391 0.70312-1.5312 1.3789-2.3164 2.0234v0.003907c-8.6719 2.9492-16.734 7.4453-23.797 13.277zm0 47.23c3.2461-5.1406 15.996-22.023 45.258-25.207-2.5703 9.2852-8.0742 23.574-19.145 33.914-0.75391 0.70313-1.5312 1.3789-2.3164 2.0234v0.003906c-8.6719 2.9492-16.734 7.4492-23.797 13.281zm0 47.23c3.2461-5.1406 15.996-22.023 45.258-25.207-2.5703 9.2852-8.0742 23.574-19.145 33.914-0.75391 0.70312-1.5312 1.3789-2.3164 2.0234v0.007812c-8.6719 2.9453-16.734 7.4453-23.797 13.277zm0 47.23c3.2461-5.1406 15.988-22.016 45.238-25.203v0.007812c-1.8711 6.8438-4.5742 13.434-8.0391 19.625-8.8398 15.492-21.336 24.383-37.195 26.547zm-15.742-283.39v24.008l-0.003906 0.011719c-7.0586-5.832-15.125-10.332-23.793-13.285-0.78906-0.64844-1.5664-1.3164-2.3164-2.0234-11-10.277-16.523-24.602-19.117-33.91 29.238 3.1992 41.984 20.07 45.227 25.211zm0 47.23v24.008l-0.003906 0.015625c-7.0586-5.8359-15.125-10.336-23.793-13.285-0.78906-0.64844-1.5664-1.3164-2.3164-2.0234-11-10.277-16.523-24.602-19.117-33.91 29.238 3.1953 41.984 20.066 45.227 25.207zm0 47.23v24.008l-0.003906 0.015624c-7.0586-5.832-15.125-10.332-23.793-13.285-0.78906-0.64844-1.5664-1.3164-2.3164-2.0234-11-10.277-16.523-24.602-19.117-33.91 29.238 3.1953 41.984 20.07 45.227 25.211zm0 47.23v24.008l-0.003906 0.015625c-7.0586-5.832-15.125-10.332-23.793-13.281-0.78906-0.64844-1.5664-1.3164-2.3164-2.0234-11-10.277-16.523-24.602-19.117-33.91 29.238 3.1953 41.984 20.066 45.227 25.207zm0 47.23v24.008l-0.003906 0.019531c-7.0586-5.832-15.125-10.336-23.793-13.285-0.78906-0.64844-1.5664-1.3164-2.3164-2.0234-11-10.277-16.523-24.602-19.117-33.91 29.238 3.1953 41.984 20.07 45.227 25.211zm0 47.23v24.008l-0.003906 0.019531c-7.0586-5.832-15.125-10.332-23.793-13.281-0.78906-0.64844-1.5664-1.3164-2.3164-2.0234-11-10.277-16.523-24.602-19.117-33.91 29.238 3.1953 41.984 20.066 45.227 25.207zm-37.195 41.652-0.003906 0.019531c-3.4648-6.1914-6.1641-12.781-8.0391-19.625 29.25 3.1875 41.996 20.062 45.238 25.203v20.969c-15.867-2.1641-28.363-11.055-37.199-26.547zm-112.38-340.77c3.2461-5.1406 15.996-22.023 45.258-25.207-2.5703 9.2852-8.0742 23.574-19.145 33.914-0.75391 0.70312-1.5312 1.3789-2.3164 2.0234-8.6719 2.9453-16.734 7.4453-23.797 13.277zm0 47.23c3.2461-5.1406 15.996-22.023 45.258-25.207-2.5703 9.2852-8.0742 23.574-19.145 33.914-0.75391 0.70312-1.5312 1.3789-2.3164 2.0234-8.6719 2.9492-16.734 7.4492-23.797 13.277zm0 47.23c3.2461-5.1406 15.996-22.023 45.258-25.207-2.5703 9.2852-8.0742 23.574-19.145 33.914-0.75391 0.70313-1.5312 1.3789-2.3164 2.0234-8.6719 2.9492-16.734 7.4492-23.797 13.281zm0 47.23c3.2461-5.1406 15.996-22.023 45.258-25.207-2.5703 9.2852-8.0742 23.574-19.145 33.914-0.75391 0.70312-1.5312 1.3789-2.3164 2.0234v0.003906c-8.6719 2.9492-16.734 7.4492-23.797 13.277zm0 47.23c3.2461-5.1406 15.996-22.023 45.258-25.207-2.5703 9.2852-8.0742 23.574-19.145 33.914-0.75391 0.70312-1.5312 1.3789-2.3164 2.0234v0.003906c-8.6719 2.9492-16.734 7.4492-23.797 13.281zm0 47.23c3.2461-5.1406 15.996-22.023 45.258-25.207-2.5703 9.2852-8.0742 23.574-19.145 33.914-0.75391 0.70312-1.5312 1.3789-2.3164 2.0234v0.007813c-8.6719 2.9492-16.734 7.4453-23.797 13.277zm0 47.23c3.2461-5.1406 15.996-22.023 45.258-25.207-2.5703 9.2852-8.0742 23.574-19.145 33.914-0.75391 0.70312-1.5312 1.3789-2.3164 2.0234v0.007813c-8.6719 2.9492-16.734 7.4492-23.797 13.281zm0 47.23c3.2461-5.1406 15.988-22.016 45.238-25.203v0.007812c-1.8711 6.8438-4.5742 13.438-8.0391 19.625-8.8398 15.492-21.336 24.383-37.195 26.547zm-15.742-330.62v24.008l-0.003906 0.011718c-7.0586-5.832-15.125-10.332-23.793-13.281-0.78906-0.64844-1.5664-1.3164-2.3164-2.0234-11-10.277-16.523-24.602-19.117-33.91 29.238 3.1953 41.984 20.066 45.227 25.207zm0 47.23v24.008l-0.003906 0.015625c-7.0586-5.8359-15.125-10.336-23.793-13.285-0.78906-0.64844-1.5664-1.3164-2.3164-2.0234-11-10.277-16.523-24.602-19.117-33.91 29.238 3.1953 41.984 20.066 45.227 25.207zm0 47.23v24.008l-0.003906 0.015625c-7.0586-5.832-15.125-10.332-23.793-13.285-0.78906-0.64844-1.5664-1.3164-2.3164-2.0234-11-10.277-16.523-24.602-19.117-33.91 29.238 3.1953 41.984 20.07 45.227 25.211zm0 47.23v24.008l-0.003906 0.019531c-7.0586-5.8359-15.125-10.336-23.793-13.285-0.78906-0.64844-1.5664-1.3164-2.3164-2.0234-11-10.277-16.523-24.602-19.117-33.91 29.238 3.1953 41.984 20.066 45.227 25.207zm0 47.23v24.008l-0.003906 0.019532c-7.0586-5.832-15.125-10.336-23.793-13.285-0.78906-0.64844-1.5664-1.3164-2.3164-2.0234-11-10.277-16.523-24.602-19.117-33.91 29.238 3.1953 41.984 20.07 45.227 25.211zm0 47.23v24.008l-0.003906 0.019531c-7.0586-5.832-15.125-10.332-23.793-13.281-0.78906-0.64844-1.5664-1.3164-2.3164-2.0234-11-10.277-16.523-24.602-19.117-33.91 29.238 3.1953 41.984 20.066 45.227 25.207zm0 47.23v24.008l-0.003906 0.023438c-7.0586-5.832-15.125-10.336-23.793-13.285-0.78906-0.64844-1.5664-1.3164-2.3164-2.0234-11-10.277-16.523-24.602-19.117-33.91 29.238 3.1953 41.984 20.07 45.227 25.211zm-37.195 41.652-0.003906 0.019531c-3.4648-6.1914-6.1641-12.781-8.0391-19.625 29.25 3.1875 41.996 20.062 45.238 25.203v20.969c-15.867-2.1602-28.363-11.055-37.199-26.547zm-112.38-262.05c3.2461-5.1406 15.996-22.023 45.258-25.207-2.5703 9.2852-8.0742 23.574-19.145 33.914-0.75391 0.70312-1.5312 1.3789-2.3164 2.0234v-0.003906c-8.6719 2.9492-16.734 7.4492-23.797 13.281zm0 47.23c3.2461-5.1406 15.996-22.023 45.258-25.207-2.5703 9.2852-8.0742 23.574-19.145 33.914-0.75391 0.70312-1.5312 1.3789-2.3164 2.0234-8.6719 2.9492-16.734 7.4492-23.797 13.277zm0 47.23c3.2461-5.1406 15.996-22.023 45.258-25.207-2.5703 9.2852-8.0742 23.574-19.145 33.914-0.75391 0.70312-1.5312 1.3789-2.3164 2.0234-8.6719 2.9492-16.734 7.4492-23.797 13.281zm0 47.23c3.2461-5.1406 15.996-22.023 45.258-25.207-2.5703 9.2852-8.0742 23.574-19.145 33.914-0.75391 0.70312-1.5312 1.3789-2.3164 2.0234v0.003907c-8.6719 2.9492-16.734 7.4453-23.797 13.277zm0 47.23c3.2461-5.1406 15.996-22.023 45.258-25.207-2.5703 9.2852-8.0742 23.574-19.145 33.914-0.75391 0.70313-1.5312 1.3789-2.3164 2.0234v0.003906c-8.6719 2.9492-16.734 7.4492-23.797 13.281zm0 47.23c3.2461-5.1406 15.996-22.023 45.258-25.207-2.5703 9.2852-8.0742 23.574-19.145 33.914-0.75391 0.70312-1.5312 1.3789-2.3164 2.0234v0.007812c-8.6719 2.9453-16.734 7.4453-23.797 13.277zm0 47.23c3.2461-5.1406 15.988-22.016 45.238-25.203v0.007812c-1.8711 6.8438-4.5742 13.434-8.0391 19.625-8.8398 15.492-21.336 24.383-37.195 26.547zm-15.742-283.39v24.008l-0.003906 0.011719c-7.0586-5.832-15.125-10.332-23.793-13.285-0.78906-0.64844-1.5664-1.3164-2.3164-2.0234-11-10.277-16.523-24.602-19.117-33.91 29.238 3.1992 41.984 20.07 45.227 25.211zm0 47.23v24.008l-0.003906 0.015625c-7.0586-5.8359-15.125-10.336-23.793-13.285-0.78906-0.64844-1.5664-1.3164-2.3164-2.0234-11-10.277-16.523-24.602-19.117-33.91 29.238 3.1953 41.984 20.066 45.227 25.207zm0 47.23v24.008l-0.003906 0.015624c-7.0586-5.832-15.125-10.332-23.793-13.285-0.78906-0.64844-1.5664-1.3164-2.3164-2.0234-11-10.277-16.523-24.602-19.117-33.91 29.238 3.1953 41.984 20.07 45.227 25.211zm0 47.23v24.008l-0.003906 0.015625c-7.0586-5.832-15.125-10.332-23.793-13.281-0.78906-0.64844-1.5664-1.3164-2.3164-2.0234-11-10.277-16.523-24.602-19.117-33.91 29.238 3.1953 41.984 20.066 45.227 25.207zm0 47.23v24.008l-0.003906 0.019531c-7.0586-5.832-15.125-10.336-23.793-13.285-0.78906-0.64844-1.5664-1.3164-2.3164-2.0234-11-10.277-16.523-24.602-19.117-33.91 29.238 3.1953 41.984 20.07 45.227 25.211zm0 47.23v24.008l-0.003906 0.019531c-7.0586-5.832-15.125-10.332-23.793-13.281-0.78906-0.64844-1.5664-1.3164-2.3164-2.0234-11-10.277-16.523-24.602-19.117-33.91 29.238 3.1953 41.984 20.066 45.227 25.207zm-37.199 41.672c-3.4648-6.1914-6.1641-12.781-8.0391-19.625 29.246 3.1914 41.992 20.062 45.234 25.203v20.969c-15.863-2.1641-28.359-11.055-37.195-26.547z"/>
</svg>