<?xml version="1.0" encoding="UTF-8"?>
<!-- The Best Svg Icon site in the world: iconSvg.co, Visit us! https://iconsvg.co -->
<svg fill="#000000" width="800px" height="800px" version="1.1" viewBox="144 144 512 512" xmlns="http://www.w3.org/2000/svg">
 <g>
  <path d="m337.76 203.66c4.4453 0 7.4102-2.9648 7.4102-7.4102v-20.004c0-4.4453-2.9648-7.4102-7.4102-7.4102-4.4453 0-7.4102 2.9648-7.4102 7.4102v20.004c0.003907 3.707 3.707 7.4102 7.4102 7.4102z"/>
  <path d="m228.11 244.41c1.4805 1.4805 3.7031 2.2227 5.1875 2.2227 1.4805 0 3.7031-0.74219 5.1875-2.2227 2.9648-2.9648 2.9648-7.4102 0-10.371l-14.078-14.078c-2.9648-2.9648-7.4102-2.9648-10.371 0-2.9648 2.9648-2.9648 7.4102 0 10.371z"/>
  <path d="m197.73 343.69c0-4.4453-2.9648-7.4102-7.4102-7.4102h-20.004c-4.4453 0-7.4102 2.9648-7.4102 7.4102 0 4.4453 2.9648 7.4102 7.4102 7.4102h20.004c3.707-0.003906 7.4102-2.9648 7.4102-7.4102z"/>
  <path d="m442.23 246.63c2.2227 0 3.7031-0.74219 5.1875-2.2227l14.078-14.078c2.9648-2.9648 2.9648-7.4102 0-10.371-2.9648-2.9648-7.4102-2.9648-10.371 0l-14.082 14.078c-2.9648 2.9648-2.9648 7.4102 0 10.371 1.4805 1.4805 3.7031 2.2227 5.1875 2.2227z"/>
  <path d="m485.94 351.1h20.004c4.4453 0 7.4102-2.9648 7.4102-7.4102s-2.9648-7.4102-7.4102-7.4102h-20.004c-4.4453 0-7.4102 2.9648-7.4102 7.4102 0.003906 4.4492 2.9648 7.4102 7.4102 7.4102z"/>
  <path d="m219.22 469.64c2.2227 0 3.7031-0.74219 5.1875-2.2227l14.078-14.078c2.9648-2.9648 2.9648-7.4102 0-10.371-2.9648-2.9648-7.4102-2.9648-10.371 0l-14.078 14.078c-2.9648 2.9648-2.9648 7.4102 0 10.371 1.4805 1.4805 3.7031 2.2227 5.1836 2.2227z"/>
  <path d="m285.9 616.34h-49.641c-17.781 0-32.598-14.078-32.598-31.117 0-36.305 28.152-67.422 64.457-70.387 2.2227 0 4.4453-1.4805 5.1875-2.9648 1.4805-1.4805 1.4805-3.7031 0.74219-5.9258-1.4805-6.668-2.2227-11.855-2.2227-17.039 0-36.305 29.637-65.941 65.941-65.941 16.301 0 31.859 5.9258 44.453 17.781 1.4805 1.4805 3.7031 2.2227 5.9258 2.2227 2.2227 0 4.4453-1.4805 5.1875-3.7031 17.781-28.895 48.898-45.938 82.238-45.938 40.008 0 76.312 25.191 90.391 62.234 1.4805 3.7031 5.9258 5.9258 9.6328 4.4453 3.7031-1.4805 5.9258-5.9258 4.4453-9.6328-17.047-43.707-58.539-72.602-104.47-72.602-10.371 0-20.746 1.4805-30.375 4.4453 4.4453-11.855 6.668-25.191 6.668-37.785 0-62.977-51.121-113.36-113.36-113.36-15.559 0-30.375 2.9648-44.453 8.8906-3.7031 1.4805-5.1875 5.9258-3.7031 9.6328 1.4805 3.7031 5.9258 5.1875 9.6328 3.7031 12.594-5.1875 25.191-8.1484 38.527-8.1484 54.828 0 98.539 44.453 98.539 98.539 0 15.559-3.7031 31.117-11.113 45.195-15.559 8.1484-29.637 19.262-40.008 34.082-14.078-10.371-30.375-16.301-47.418-16.301-20.004 0-38.527 7.4102-52.605 19.262-28.152-17.781-45.938-49.641-45.938-83.723 0-28.152 11.855-54.828 32.598-73.348 2.9648-2.9648 2.9648-7.4102 0.74219-10.371-2.9648-2.9648-7.4102-2.9648-10.371-0.74219-23.707 21.484-37.043 51.863-37.043 84.461 0 37.785 19.262 73.348 50.383 94.094-11.113 14.078-17.781 31.117-17.781 49.641 0 4.4453 0.74219 8.1484 1.4805 12.594-39.266 7.4102-69.645 42.973-69.645 84.461 0 25.191 21.484 45.938 47.418 45.938h49.641c4.4453 0 7.4102-2.9648 7.4102-7.4102-0.007812-4.4453-5.1953-5.1875-8.8984-5.1875z"/>
  <path d="m585.96 506.69c0.74219-5.9258 1.4805-11.855 1.4805-17.039 0-4.4453-2.9648-7.4102-7.4102-7.4102-4.4453 0-7.4102 2.9648-7.4102 7.4102 0 6.668-0.74219 13.336-2.2227 20.004-0.74219 3.7031 1.4805 7.4102 4.4453 8.8906 28.152 9.6328 47.418 36.305 47.418 66.68 0 17.039-14.816 31.117-32.598 31.117h-271.17c-4.4453 0-7.4102 2.9648-7.4102 7.4102s2.9648 7.4102 7.4102 7.4102h271.17c25.93 0 47.418-20.746 47.418-45.938 0-34.082-20.004-65.199-51.121-78.535z"/>
 </g>
</svg>