<?xml version="1.0" encoding="UTF-8"?>
<!-- The Best Svg Icon site in the world: iconSvg.co, Visit us! https://iconsvg.co -->
<svg fill="#000000" width="800px" height="800px" version="1.1" viewBox="144 144 512 512" xmlns="http://www.w3.org/2000/svg">
 <g>
  <path d="m473.35 408.15c-29.637 2.2227-47.418 6.668-68.164 11.855-27.414 6.668-61.496 14.816-137.81 21.484-24.449 2.2227-54.828 20.004-65.941 49.641-5.9258 15.559-9.6328 48.16 28.152 85.203 1.4805 1.4805 3.7031 2.2227 5.1875 2.2227 1.4805 0 3.7031-0.74219 5.1875-2.2227 2.9648-2.9648 2.9648-7.4102 0-10.371-23.703-23.711-32.594-48.16-24.445-69.645 8.8906-23.707 33.34-37.785 53.344-39.266 77.055-6.668 111.88-15.559 139.29-22.227 20.746-5.1875 37.785-8.8906 65.941-11.113 46.676-3.7031 84.461 12.594 102.24 43.711 14.816 25.93 13.336 57.051-3.7031 82.238-2.2227 3.7031-1.4805 8.1484 2.2227 10.371 3.7031 2.2227 8.1484 1.4805 10.371-2.2227 20.004-29.637 22.227-67.422 4.4453-98.539-21.484-36.305-63.719-54.824-116.32-51.121z"/>
  <path d="m547.44 574.85c-56.309 41.488-183.74 74.832-277.09 16.301-3.7031-2.2227-8.1484-1.4805-10.371 2.2227s-1.4805 8.1484 2.2227 10.371c38.527 24.449 82.238 34.082 125.21 34.082 67.422 0 131.88-23.707 168.93-50.383 2.9648-2.2227 3.7031-7.4102 1.4805-10.371-2.2266-4.4453-6.6719-4.4453-10.375-2.2227z"/>
  <path d="m288.12 561.52c1.4805 1.4805 2.9648 2.2227 5.1875 2.2227s3.7031-0.74219 5.1875-2.2227c17.781-19.262-1.4805-48.16-2.2227-49.641-2.2227-3.7031-6.668-4.4453-10.371-2.2227s-4.4453 6.668-2.2227 10.371c0 0 13.336 20.746 3.7031 31.117-2.9688 2.9648-2.2266 7.4102 0.73828 10.375z"/>
  <path d="m349.62 518.54c1.4805 1.4805 2.9648 1.4805 4.4453 1.4805 2.2227 0 4.4453-0.74219 5.9258-2.9648 16.301-20.004-2.2227-46.676-2.9648-48.16-2.2227-2.9648-6.668-3.7031-10.371-1.4805-3.7031 2.2227-4.4453 6.668-1.4805 10.371 0 0 13.336 18.523 3.7031 29.637-2.9609 3.707-2.2227 8.1523 0.74219 11.117z"/>
  <path d="m516.32 551.88c1.4805 1.4805 2.9648 1.4805 4.4453 1.4805 2.2227 0 4.4453-0.74219 5.9258-2.9648 16.301-20.004-2.2227-46.676-2.9648-48.16-2.2227-2.9648-6.668-3.7031-10.371-1.4805-2.9648 2.2227-4.4453 6.668-1.4805 10.371 0 0 13.336 18.523 3.7031 29.637-2.9648 3.707-2.2227 8.1523 0.74219 11.117z"/>
  <path d="m400.74 574.11c-3.7031 1.4805-5.1875 5.9258-3.7031 9.6328 1.4805 2.9648 3.7031 4.4453 6.668 4.4453 0.74219 0 2.2227 0 2.9648-0.74219 26.672-12.594 22.969-42.23 17.039-56.309-1.4805-3.7031-5.9258-5.9258-9.6328-3.7031-3.7031 1.4805-5.9258 5.9258-4.4453 9.6328 0.74219 0.73828 11.113 27.41-8.8906 37.043z"/>
  <path d="m463.71 508.17c1.4805 0.74219 2.9648 1.4805 3.7031 1.4805 2.2227 0 4.4453-1.4805 5.9258-3.7031 6.668-10.371 8.8906-20.004 5.1875-28.895-5.1875-14.816-22.227-20.004-23.707-20.746-3.7031-1.4805-8.1484 0.74219-8.8906 5.1875-1.4805 3.7031 0.74219 8.1484 5.1875 9.6328 2.9648 0.74219 11.855 5.1875 14.078 11.855 1.4805 4.4453 0 9.6328-3.7031 15.559-2.2266 2.9609-1.4844 7.4062 2.2188 9.6289z"/>
  <path d="m540.77 402.22c2.2227 0 4.4453-0.74219 5.9258-2.9648 15.559-20.746 28.152-43.711 37.785-66.68 1.4805-3.7031 0-8.1484-3.7031-9.6328-3.7031-1.4805-8.1484 0-9.6328 3.7031-8.8906 21.484-21.484 43.711-36.305 62.977-2.2227 2.9648-1.4805 8.1484 1.4805 10.371 1.4844 2.2266 2.9648 2.2266 4.4492 2.2266z"/>
  <path d="m355.54 320.72c2.2227 0 4.4453-0.74219 5.9258-2.9648 11.855-16.301 19.262-29.637 26.672-41.488 11.113-18.523 20.004-33.34 38.527-54.828 31.117-35.562 68.902-51.121 103.73-41.488 28.895 7.4102 50.383 31.117 55.566 60.754 2.9648 14.078 1.4805 32.598-3.7031 53.344-0.74219 3.7031 1.4805 8.1484 5.1875 8.8906 3.7031 0.74219 8.1484-1.4805 8.8906-5.1875 5.9258-22.227 7.4102-42.973 3.7031-59.273-6.668-35.562-32.598-63.719-66.68-72.609-40.75-11.113-83.723 5.9258-118.54 45.938-19.262 22.227-28.895 37.785-40.008 56.309-6.668 11.113-14.816 24.449-25.93 40.75-2.2227 3.7031-1.4805 8.1484 2.2227 10.371 1.4805 1.4844 2.9609 1.4844 4.4414 1.4844z"/>
  <path d="m282.94 424.45h1.4805c3.7031 0 6.668-2.2227 7.4102-5.9258 2.2227-10.371 6.668-20.746 13.336-28.152 12.594-14.816 23.707-28.895 34.082-42.23 2.2227-2.9648 2.2227-8.1484-1.4805-10.371-2.9648-2.2227-8.1484-2.2227-10.371 1.4805-9.6328 12.594-20.746 26.672-33.34 41.488-8.1484 9.6328-13.336 21.484-16.301 34.82-1.4844 4.4453 1.4766 8.1484 5.1836 8.8906z"/>
  <path d="m368.14 343.69c-0.74219 3.7031 2.2227 8.1484 5.9258 8.1484 0 0 22.227 3.7031 23.707 18.523 0 3.7031 3.7031 6.668 7.4102 6.668h0.74219c3.7031-0.74219 7.4102-3.7031 6.668-8.1484-2.2227-25.93-34.82-31.859-36.305-31.859-3.7031-0.74219-7.4062 2.2227-8.1484 6.668z"/>
  <path d="m546.7 282.94h0.74219c3.7031-0.74219 6.668-4.4453 6.668-8.1484-2.9648-25.93-25.93-31.859-37.785-31.859-3.7031 0-7.4102 3.7031-7.4102 7.4102 0 3.7031 3.7031 7.4102 7.4102 7.4102 2.2227 0 20.746 0 22.227 18.523 1.4805 3.6992 4.4453 6.6641 8.1484 6.6641z"/>
  <path d="m457.05 357.77c1.4805 0 29.637-5.1875 34.82 17.039 0.74219 3.7031 3.7031 5.9258 7.4102 5.9258h1.4805c3.7031-0.74219 6.668-5.1875 5.1875-8.8906-6.668-28.895-37.043-31.117-51.863-28.152-3.7031 0.74219-6.668 4.4453-5.9258 8.8906 0.74219 3.707 4.4453 5.9297 8.8906 5.1875z"/>
  <path d="m462.23 269.6c4.4453 2.2227 6.668 6.668 8.8906 14.078 0.74219 3.7031 3.7031 5.9258 7.4102 5.9258h1.4805c3.7031-0.74219 6.668-4.4453 5.9258-8.8906-2.2227-11.855-8.1484-20.004-17.039-24.449-14.078-6.668-29.637 1.4805-31.117 2.2227-3.7031 2.2227-5.1875 6.668-2.9648 9.6328 2.2227 3.7031 6.668 5.1875 9.6328 2.9648 2.2227-0.74609 11.113-4.4492 17.781-1.4844z"/>
 </g>
</svg>