<?xml version="1.0" encoding="UTF-8"?>
<!-- The Best Svg Icon site in the world: iconSvg.co, Visit us! https://iconsvg.co -->
<svg fill="#000000" width="800px" height="800px" version="1.1" viewBox="144 144 512 512" xmlns="http://www.w3.org/2000/svg">
 <g>
  <path d="m339.54 450.38c-13.363 0-26.18 5.3086-35.625 14.758-9.4492 9.4453-14.758 22.262-14.758 35.625 0 13.359 5.3086 26.176 14.758 35.625 9.4453 9.4453 22.262 14.754 35.625 14.754 13.359 0 26.176-5.3086 35.625-14.754 9.4453-9.4492 14.754-22.266 14.754-35.625 0-13.363-5.3086-26.18-14.754-35.625-9.4492-9.4492-22.266-14.758-35.625-14.758zm0 85.648c-9.3555 0-18.324-3.7148-24.938-10.328-6.6133-6.6172-10.332-15.586-10.332-24.938 0-9.3555 3.7188-18.324 10.332-24.938s15.582-10.332 24.938-10.332c9.3516 0 18.32 3.7188 24.938 10.332 6.6133 6.6133 10.328 15.582 10.328 24.938 0 9.3516-3.7148 18.32-10.328 24.938-6.6172 6.6133-15.586 10.328-24.938 10.328z"/>
  <path d="m513.36 475.57c-10.02 0-19.633 3.9805-26.719 11.066-7.0859 7.0859-11.066 16.699-11.066 26.719 0 10.023 3.9805 19.633 11.066 26.719 7.0859 7.0859 16.699 11.066 26.719 11.066 10.023 0 19.633-3.9805 26.719-11.066 7.0859-7.0859 11.066-16.695 11.066-26.719 0-10.02-3.9805-19.633-11.066-26.719-7.0859-7.0859-16.695-11.066-26.719-11.066zm0 60.457c-6.0117 0-11.777-2.3906-16.031-6.6406-4.25-4.25-6.6406-10.02-6.6406-16.031s2.3906-11.777 6.6406-16.031c4.2539-4.25 10.02-6.6406 16.031-6.6406s11.781 2.3906 16.031 6.6406c4.25 4.2539 6.6406 10.02 6.6406 16.031-0.011719 6.0078-2.4062 11.77-6.6562 16.016-4.2461 4.25-10.008 6.6445-16.016 6.6562z"/>
  <path d="m335.26 352.54-36.02-98.645c-1.0781-3.0938-4.0352-5.1328-7.3086-5.0391h-35.516c-4.1758 0-7.5586 3.3828-7.5586 7.5586 0 4.1719 3.3828 7.5547 7.5586 7.5547h30.531l37.48 102.98v-17.332z"/>
  <path d="m335.26 352.54-10.832-2.9219v92.652c4.9414-1.2734 10.016-1.9336 15.117-1.9648 17.824-0.10938 34.781 7.707 46.281 21.328 11.5 13.621 16.359 31.648 13.266 49.203h66.402c0.77344-16.426 9.957-31.293 24.301-39.336s31.816-8.1211 46.234-0.21094v-64.992z"/>
  <path d="m473.55 363.82-82.727-22.168c-4.0312-1.0586-8.1641 1.3242-9.2695 5.3398l-1.7109 7.3086 7.3047 1.9648 82.727 22.168 7.3047 1.9648 1.9648-7.3047v-0.003906c0.5-1.9688 0.19141-4.0586-0.85938-5.8008-1.0508-1.7422-2.7578-2.9922-4.7344-3.4688z"/>
 </g>
</svg>