<?xml version="1.0" encoding="UTF-8"?>
<!-- The Best Svg Icon site in the world: iconSvg.co, Visit us! https://iconsvg.co -->
<svg fill="#000000" width="800px" height="800px" version="1.1" viewBox="144 144 512 512" xmlns="http://www.w3.org/2000/svg">
 <g>
  <path d="m448.17 418.8c-0.35156-2.125-2.0156-3.7891-4.1445-4.1445-1.0234-0.17188-25.211-4.0117-38.461 9.2344-0.21875 0.21875-0.39453 0.46484-0.60547 0.6875v-12.508c0-0.082031-0.042969-0.14844-0.046875-0.23047 5.2422-4.2891 18.602-16.727 18.602-32.125 0-18.742-19.82-33.121-20.664-33.727-1.75-1.25-4.1094-1.25-5.8594 0-0.84375 0.60547-20.664 14.988-20.664 33.727 0 15.398 13.359 27.836 18.602 32.125-0.003906 0.082031-0.046875 0.14844-0.046875 0.23047v41.715c-0.24219-0.26172-0.44531-0.54297-0.69922-0.79297-13.246-13.246-37.438-9.4023-38.461-9.2344-2.125 0.35547-3.7891 2.0156-4.1445 4.1445-0.16797 1.0234-4.0156 25.215 9.2383 38.461 8.2695 8.2773 20.805 9.8828 29.305 9.8828 1.8008 0 3.4023-0.074219 4.7617-0.17188v15.691c0 2.7852 2.2539 5.0391 5.0391 5.0391 2.7812 0 5.0391-2.2539 5.0391-5.0391v-44.789c1.3359 0.09375 2.9023 0.16406 4.6562 0.16406 8.5 0 21.043-1.6094 29.316-9.8828 13.254-13.242 9.4062-37.434 9.2383-38.457zm-54.309 67.273c-7.1562 0.47656-19.324-0.23437-25.918-6.832-7.0273-7.0273-7.2148-19.637-6.8047-25.918 6.2656-0.42187 18.895-0.23047 25.922 6.8008 7.0391 7.0352 7.2148 19.676 6.8008 25.949zm-7.457-106.35c0-9.9375 8.7852-18.988 13.52-23.141 4.7344 4.1523 13.52 13.199 13.52 23.141 0 9.9375-8.7852 18.988-13.52 23.141-4.7344-4.1562-13.52-13.203-13.52-23.141zm45.402 70.414c-7.0273 7.0312-19.637 7.2227-25.922 6.8047-0.41016-6.2812-0.22266-18.895 6.8008-25.922 7.0391-7.0391 19.684-7.207 25.953-6.8008 0.47656 7.1602-0.23438 19.32-6.832 25.918z"/>
  <path d="m325.95 246.4h12.211c2.7812 0 5.0391-2.2539 5.0391-5.0391 0-2.7852-2.2539-5.0391-5.0391-5.0391h-12.211c-2.7812 0-5.0391 2.2539-5.0391 5.0391 0 2.7852 2.2578 5.0391 5.0391 5.0391z"/>
  <path d="m359.92 246.4h12.211c2.7812 0 5.0391-2.2539 5.0391-5.0391 0-2.7852-2.2539-5.0391-5.0391-5.0391h-12.211c-2.7812 0-5.0391 2.2539-5.0391 5.0391 0 2.7852 2.2578 5.0391 5.0391 5.0391z"/>
  <path d="m393.89 246.4h12.211c2.7812 0 5.0391-2.2539 5.0391-5.0391 0-2.7852-2.2539-5.0391-5.0391-5.0391h-12.211c-2.7812 0-5.0391 2.2539-5.0391 5.0391 0 2.7852 2.2539 5.0391 5.0391 5.0391z"/>
  <path d="m427.87 246.4h12.211c2.7812 0 5.0391-2.2539 5.0391-5.0391 0-2.7852-2.2539-5.0391-5.0391-5.0391h-12.211c-2.7812 0-5.0391 2.2539-5.0391 5.0391 0 2.7852 2.2578 5.0391 5.0391 5.0391z"/>
  <path d="m461.84 246.4h12.211c2.7812 0 5.0391-2.2539 5.0391-5.0391 0-2.7852-2.2539-5.0391-5.0391-5.0391h-12.211c-2.7812 0-5.0391 2.2539-5.0391 5.0391 0 2.7852 2.2578 5.0391 5.0391 5.0391z"/>
  <path d="m510.12 198.48h-220.24c-2.7812 0-5.0391 2.2539-5.0391 5.0391v37.293l-6.8203 34.363c-1.6602 8.3789-2.5039 16.953-2.5039 25.496v295.82c0 2.7852 2.2539 5.0391 5.0391 5.0391h238.89c2.7812 0 5.0391-2.2539 5.0391-5.0391v-295.82c0-8.543-0.84375-17.117-2.5039-25.496l-6.8203-34.363v-37.293c0-2.7852-2.2539-5.0352-5.0391-5.0352zm-222.21 78.648 6.0977-30.727h10.176c2.7812 0 5.0391-2.2539 5.0391-5.0391s-2.2539-5.0391-5.0391-5.0391h-9.2617v-27.77h210.16v27.773h-9.2656c-2.7812 0-5.0391 2.2539-5.0391 5.0391 0 2.7852 2.2539 5.0391 5.0391 5.0391h10.176l6.0977 30.727c1.5352 7.7344 2.3125 15.656 2.3125 23.539v1.9336l-228.81-0.003906v-1.9336c0-7.8828 0.77734-15.805 2.3125-23.539zm-2.3125 35.547h228.81v232.19h-228.81zm0 278.77v-36.508h228.81v36.508z"/>
 </g>
</svg>