<?xml version="1.0" encoding="UTF-8"?>
<!-- The Best Svg Icon site in the world: iconSvg.co, Visit us! https://iconsvg.co -->
<svg fill="#000000" width="800px" height="800px" version="1.1" viewBox="144 144 512 512" xmlns="http://www.w3.org/2000/svg">
 <path d="m483.96 462.98h-73.469v-20.992h10.496c13.918 0 27.266-5.5312 37.109-15.371 9.8398-9.8438 15.371-23.191 15.371-37.109 0-2.7852-1.1094-5.4531-3.0742-7.4219-1.9688-1.9688-4.6406-3.0742-7.4219-3.0742h-31.488c-7.4023 0.03125-14.652 2.0625-20.992 5.875v-26.867c19.484 0 38.172-7.7422 51.949-21.52 13.781-13.781 21.52-32.469 21.52-51.953v-83.969c0-2.7852-1.1055-5.4531-3.0742-7.4219-1.9648-1.9688-4.6367-3.0742-7.418-3.0742h-10.496c-9.2695 0.10156-18.391 2.3281-26.66 6.5078-2.7656-7.5938-7.6641-14.227-14.105-19.105-6.4414-4.875-14.156-7.793-22.211-8.3945-8.0586 0.60156-15.773 3.5195-22.215 8.3945-6.4414 4.8789-11.336 11.512-14.102 19.105-8.2812-4.1602-17.398-6.3867-26.66-6.5078h-10.496c-5.7969 0-10.496 4.6992-10.496 10.496v83.969c0 19.484 7.7383 38.172 21.52 51.953 13.777 13.777 32.465 21.52 51.953 21.52v26.871-0.003907c-6.3398-3.8125-13.594-5.8438-20.992-5.875h-31.488c-5.7969 0-10.496 4.6992-10.496 10.496 0 13.918 5.5273 27.266 15.371 37.109 9.8398 9.8398 23.188 15.371 37.109 15.371h10.496v20.992h-73.473c-5.7969 0-10.496 4.6992-10.496 10.496v31.488-0.003907c0 2.7852 1.1055 5.457 3.0742 7.4219 1.9688 1.9688 4.6367 3.0742 7.4219 3.0742h0.94531l9.5508 105.91c0.48828 5.4258 5.0469 9.5742 10.496 9.5508h125.95c5.4453 0.023438 10.004-4.125 10.496-9.5508l9.5508-105.91h0.94141c2.7852 0 5.457-1.1055 7.4219-3.0742 1.9688-1.9648 3.0742-4.6367 3.0742-7.4219v-31.484c0-2.7852-1.1055-5.457-3.0742-7.4219-1.9648-1.9688-4.6367-3.0742-7.4219-3.0742zm-52.48-62.977h19.211c-2.1719 6.1406-6.1953 11.457-11.516 15.219-5.3203 3.7578-11.676 5.7734-18.188 5.7734h-10.496c0-5.5703 2.2109-10.91 6.1484-14.844 3.9336-3.9375 9.2734-6.1484 14.844-6.1484zm31.488-115.46h0.003906c0 13.918-5.5312 27.266-15.371 37.109-9.8438 9.8398-23.191 15.371-37.109 15.371-5.5703 0-10.91-2.2109-14.844-6.1484-3.9375-3.9375-6.1484-9.2773-6.1484-14.844 0.42969-14.418 3.4531-28.637 8.9219-41.984 2.957-7.2539 6.4688-14.273 10.496-20.992 6.9297-12.555 16.359-23.559 27.707-32.328 7.5703-5.875 16.773-9.2461 26.348-9.6562zm-62.973-94.465c7.3477 0 14.801 7.6602 18.473 18.156-6.8711 5.9531-13.066 12.641-18.473 19.945-5.4258-7.3242-11.66-14.012-18.578-19.945 3.7773-10.496 11.23-18.156 18.578-18.156zm-62.977 94.465v-73.473c9.4062 0.30078 18.496 3.4883 26.027 9.1328 9.8438 7.3516 18.242 16.461 24.773 26.867-11.801 21.137-18.422 44.77-19.312 68.961 0.11719 6.3125 1.5469 12.531 4.1953 18.262-10.406-3.5156-19.445-10.207-25.848-19.133-6.4023-8.9258-9.8438-19.633-9.8359-30.617zm12.281 115.46h19.207c5.5664 0 10.906 2.2109 14.844 6.1484 3.9336 3.9336 6.1484 9.2734 6.1484 14.844h-10.496c-6.5156 0-12.871-2.0156-18.191-5.7734-5.3203-3.7617-9.3438-9.0781-11.516-15.219zm-22.777 83.965h146.95v10.496h-146.95zm126.89 125.95h-106.85l-8.6055-94.465h124.06z"/>
</svg>