<?xml version="1.0" encoding="UTF-8"?>
<!-- The Best Svg Icon site in the world: iconSvg.co, Visit us! https://iconsvg.co -->
<svg fill="#000000" width="800px" height="800px" version="1.1" viewBox="144 144 512 512" xmlns="http://www.w3.org/2000/svg">
 <g>
  <path d="m502.34 281.92h-78.723v-31.488c0-21.703 17.66-39.359 39.359-39.359 21.703 0 39.359 17.66 39.359 39.359zm-62.977-15.742h47.23v-15.742c0-13.023-10.594-23.617-23.617-23.617-13.023 0-23.617 10.594-23.617 23.617z"/>
  <path d="m462.98 588.93c-21.703 0-39.359-17.66-39.359-39.359l-0.003907-141.7h78.719v141.7c0.003907 21.703-17.656 39.359-39.355 39.359zm-23.617-165.31v125.95c0 13.023 10.594 23.617 23.617 23.617 13.023 0 23.617-10.594 23.617-23.617l-0.003906-125.95z"/>
  <path d="m303.05 468.62c-3.9727 0-7.9414-0.90625-11.617-2.7227-7.0273-3.4766-12.07-9.8242-13.828-17.426-25.945-111.91-13.27-159.3-1.0078-205.13l0.85938-3.1992c1.9609-7.3711 7.043-13.469 13.93-16.727 6.9023-3.2734 14.836-3.3438 21.801-0.19141 13.246 5.9883 25.199 12.039 36.754 17.891 16.262 8.2227 33.051 16.715 53.562 25.066h104.34c14.32 0 25.977 11.652 25.977 25.973v105.49c0 14.324-11.656 25.977-25.977 25.977h-104.34c-20.52 8.3477-37.316 16.852-53.566 25.078-11.363 5.75-23.109 11.691-36.078 17.582-3.4531 1.5586-7.1328 2.3438-10.809 2.3438zm-0.5625-231.96c-1.4922 0-2.9766 0.32422-4.3594 0.97656-2.7383 1.3008-4.6836 3.6367-5.4648 6.5664l-0.85156 3.207c-11.762 43.973-23.922 89.438 1.1367 197.52 0.69141 2.9922 2.6836 5.4883 5.457 6.8555 2.8281 1.4062 6.0898 1.4766 8.9492 0.15234 12.668-5.7422 24.262-11.609 35.469-17.281 16.922-8.5625 34.418-17.422 56.195-26.207l1.418-0.56641h107.41c5.6406 0 10.23-4.5898 10.23-10.234v-105.49c0-5.6406-4.5898-10.23-10.23-10.23h-107.41l-1.4141-0.57031c-21.77-8.7852-39.27-17.637-56.18-26.199-11.41-5.7734-23.199-11.738-36.141-17.59-1.3398-0.60547-2.7773-0.90625-4.2148-0.90625z"/>
  <path d="m333.66 450.71c-28.453-74.984-28.469-135.62-0.070312-216.27l14.852 5.2266c-27.375 77.742-27.391 133.43-0.070312 205.46z"/>
 </g>
</svg>