<?xml version="1.0" encoding="UTF-8"?>
<!-- The Best Svg Icon site in the world: iconSvg.co, Visit us! https://iconsvg.co -->
<svg fill="#000000" width="800px" height="800px" version="1.1" viewBox="144 144 512 512" xmlns="http://www.w3.org/2000/svg">
 <path d="m254.3 438h0.34375v36.477c0 70.055 57.117 127.05 127.32 127.05h47.254c70.199 0 127.32-56.996 127.32-127.06v-36.477h0.34375c10.832 0 19.645-8.8164 19.645-19.645v-2.5078c0-10.832-8.8125-19.645-19.645-19.645l-0.34375 0.003906v-47.098c0-83.051-67.711-150.62-150.95-150.62-83.234 0-150.95 67.57-150.95 150.62v47.098h-0.34375c-10.832 0-19.645 8.8164-19.645 19.645v2.5078c0 10.832 8.8125 19.648 19.645 19.648zm292.16 36.469c0 64.504-52.594 116.98-117.24 116.98h-47.254c-64.648 0-117.24-52.477-117.24-116.98v-36.477l281.74 0.003907zm-281.74-125.37c0-77.496 63.195-140.55 140.87-140.55 77.676 0 140.87 63.051 140.87 140.55v47.098h-7.0195c-0.96094-33.738-22.41-56.262-42.527-56.262-0.17578 0-0.34766 0.035156-0.51953 0.039062-1.9844-32.25-22.844-53.582-42.422-53.582-22.164 0-41.715 24.672-43.645 53.867-1.375-0.20703-2.7461-0.32422-4.1094-0.32422-0.44922 0-0.89062 0.074218-1.3398 0.097656-1.9648-32.285-22.832-53.641-42.422-53.641-22.141 0-41.676 24.617-43.645 53.766-1.0469-0.12109-2.1016-0.22266-3.1445-0.22266-22.773 0-42.758 26.035-43.746 56.262h-7.1953l0.003906-47.098zm83.395 47.098h-66.125c0.97656-24.051 16.859-46.184 33.668-46.184 16.52 0 31.551 21.734 32.457 46.184zm10.078 0c-0.75-26.395-14.031-45.875-29.426-53.121 0.80469-24.215 16.773-46.605 33.691-46.605 16.398 0 31.348 21.441 32.434 45.695-17.715 6.8398-31.594 28.969-32.414 54.027h-4.2852zm48.023-46.184c16.512 0 31.543 21.73 32.457 46.184h-66.121c0.97656-24.051 16.855-46.184 33.664-46.184zm42.527 46.184c-0.73438-25.844-13.48-45.066-28.469-52.656 0.61328-24.395 16.688-47.07 33.703-47.07 16.332 0 31.227 21.27 32.426 45.402-18.098 6.4688-32.391 28.879-33.227 54.324zm48.172-46.184c16.512 0 31.543 21.73 32.457 46.184h-66.121c0.97656-24.051 16.859-46.184 33.664-46.184zm-252.18 65.832c0-5.2734 4.2969-9.5664 9.5664-9.5664h302.58c5.2734 0 9.5664 4.293 9.5664 9.5664v2.5078c0 5.2734-4.2969 9.5664-9.5664 9.5664h-302.58c-5.2734 0-9.5664-4.293-9.5664-9.5664z"/>
</svg>