<?xml version="1.0" encoding="UTF-8"?>
<!-- The Best Svg Icon site in the world: iconSvg.co, Visit us! https://iconsvg.co -->
<svg fill="#000000" width="800px" height="800px" version="1.1" viewBox="144 144 512 512" xmlns="http://www.w3.org/2000/svg">
 <g>
  <path d="m227.77 400.72-2.0664-1.4414 7.9453-11.363 64.398-94.656 96.59-59.82 7.3008-3.8438 1.168 2.2266-7.2188 3.8047-96.285 59.633-63.875 94.086z"/>
  <path d="m402.82 568.12h-141.12v-166.86h-22.18l65.742-96.637 96.59-59.816 1.332 2.1406-96.363 59.676-62.543 92.117h19.941v166.86h138.6z"/>
  <path d="m567.83 400.7-7.5664-11.367-60.887-94.094-91.824-59.672-6.8008-3.7539 1.2148-2.207 6.8867 3.8047 92.488 60.234 61.027 94.305 7.5586 11.348z"/>
  <path d="m535.27 568.12h-134.54v-2.5195h132.02v-166.86h19.012l-59.609-92.137-91.824-59.672 1.3711-2.1094 92.422 60.191 62.277 96.246h-21.133z"/>
  <path d="m401.97 309.48h-29.062v-27.281l28.457-15.523 1.207 2.207-27.148 14.812v23.266h26.547z"/>
  <path d="m430.72 309.48h-29.906v-2.5195h27.387v-23.258l-27.977-14.812 1.1758-2.2266 29.32 15.523z"/>
  <path d="m430.75 567.55-55.324-69.371 1.9727-1.5703 50.832 63.738v-61.691h-24.016v-2.5195h26.535z"/>
  <path d="m375.14 567.55v-71.414h29.066v2.5195h-26.547v61.691l50.836-63.738 1.9688 1.5703z"/>
 </g>
</svg>