<?xml version="1.0" encoding="UTF-8"?>
<!-- The Best Svg Icon site in the world: iconSvg.co, Visit us! https://iconsvg.co -->
<svg fill="#000000" width="800px" height="800px" version="1.1" viewBox="144 144 512 512" xmlns="http://www.w3.org/2000/svg">
 <path d="m462.98 269.51c-25.191-8.5664-43.328-26.703-48.367-48.367l-1.5117-7.5547c-1.0078-4.0312-4.5352-7.0547-9.5742-7.0547h-0.50391c-4.5352 0-8.5664 2.5195-9.5742 7.0547l-2.5195 8.5664c-6.0469 21.16-24.184 38.289-48.871 46.352-63.984 21.16-107.31 74.562-107.31 134.01 0 35.77 15.113 70.031 43.328 96.227 25.695 24.688 59.953 40.305 96.73 44.84 0.50391 0.50391 1.5117 0.50391 2.0156 0.50391h1.5117 2.0156l-19.648 8.5664c-2.5195 1.0078-3.5273 4.0312-2.5195 6.5508 1.0078 2.0156 2.5195 3.0234 4.5352 3.0234 0.50391 0 1.5117 0 2.0156-0.50391l21.16-9.0703-11.078 22.668c-1.5117 2.5195-0.50391 5.543 2.0156 7.0547 1.0078 0.50391 1.5117 0.50391 2.5195 0.50391 2.0156 0 3.5273-1.0078 4.5352-2.5195l14.609-27.207v31.738c0 3.0234 2.0156 5.0391 5.0391 5.0391 3.0234 0 5.0391-2.0156 5.0391-5.0391v-31.738l14.609 27.207c1.0078 1.5117 2.5195 2.5195 4.5352 2.5195 1.0078 0 1.5117 0 2.5195-0.50391 2.5195-1.5117 3.5273-4.5352 2.0156-7.0547l-12.09-22.168 21.16 9.0703c0.50391 0.50391 1.5117 0.50391 2.0156 0.50391 2.0156 0 4.0312-1.0078 4.5352-3.0234 1.0078-2.5195 0-5.543-2.5195-6.5508l-20.656-9.0703c75.062-8.5625 135.02-62.469 141.56-128.97 6.5508-63.48-34.762-121.92-103.28-145.6zm-37.789 264.5c-1.0078 0-2.0156 0-3.0234 0.50391 66.504-96.227 37.785-211.6 21.664-258.45 24.184 25.191 67.008 77.586 64.488 137.04-2.0156 44.84-29.727 85.145-82.121 120.41-0.50391 0-0.50391 0.50391-1.0078 0.50391zm-46.348 0.50391c-51.387-34.762-78.594-75.066-80.609-119.4-3.0234-59.449 39.801-113.36 63.984-138.55-16.121 46.855-44.84 162.23 22.168 258.96-2.0195-0.50391-3.5273-1.0078-5.543-1.0078zm47.859-274.57c5.0391 11.586 68.52 160.21-17.633 275.58h-1.0078v-301.78c4.0312 9.5703 10.582 18.641 18.641 26.199zm-28.715-26.703v302.79h-1.0078v-0.50391c-89.176-119.91-18.137-275.08-17.129-276.59v-0.50391c8.0586-7.5586 14.105-16.125 18.137-25.191zm-152.66 169.28c0-54.914 40.305-104.79 100.26-124.44 0.50391 0 1.0078-0.50391 1.5117-0.50391-6.0469 6.5508-12.09 14.105-18.641 23.176-28.215 38.793-42.32 78.09-40.305 114.36 2.0156 42.32 25.191 81.113 68.016 114.87-26.703-7.0547-51.387-20.152-70.535-38.289-26.195-24.684-40.305-55.918-40.305-89.172zm311.36 11.59c-5.543 53.906-49.375 99.25-107.82 115.37 43.832-34.258 67.512-73.051 69.527-115.88 1.5117-36.273-12.09-75.57-40.305-113.36-5.543-7.5586-11.082-14.609-16.625-20.656 62.473 22.164 100.76 76.578 95.219 134.52z"/>
</svg>