<?xml version="1.0" encoding="UTF-8"?>
<!-- The Best Svg Icon site in the world: iconSvg.co, Visit us! https://iconsvg.co -->
<svg fill="#000000" width="800px" height="800px" version="1.1" viewBox="144 144 512 512" xmlns="http://www.w3.org/2000/svg">
 <g>
  <path d="m478.87 416c0 124.88 20.023 185.58 61.219 185.58 41.191 0 61.215-60.703 61.215-185.58 0-115.14-17.402-165.91-58.008-168.41-2.4766-16.969 1.7148-42.977 1.7617-43.258 0.45312-2.7461-1.4062-5.3398-4.1523-5.7852-2.7656-0.50781-5.3398 1.4062-5.7852 4.1523-0.19531 1.1875-4.3047 26.707-1.9219 45.266-37.98 5.3164-54.328 56.445-54.328 168.04zm61.219-158.46c35.363 0 51.137 48.871 51.137 158.46 0 114.82-17.684 175.51-51.137 175.51-33.453 0.003907-51.141-60.688-51.141-175.5 0-109.59 15.773-158.46 51.141-158.46z"/>
  <path d="m547.45 529.63c1.0586 0 2.125-0.32812 3.0312-1.0195 6.5625-4.9531 11.281-15.891 14.43-33.43 0.49219-2.7422-1.3281-5.3594-4.0703-5.8516-2.7266-0.48828-5.3594 1.332-5.8516 4.0703-3.4648 19.301-8.1172 25.309-10.582 27.172-2.2227 1.6758-2.6602 4.8359-0.98438 7.0547 0.99219 1.3125 2.5039 2.0039 4.0273 2.0039z"/>
  <path d="m559.41 442.06c-0.074218 2.7852 2.1172 5.1016 4.8945 5.1797h0.14844c2.7148 0 4.9531-2.1641 5.0312-4.8945 0.20312-7.2383 0.30078-14.895 0.30078-22.941 0-18.789-0.53516-34.254-1.6367-47.262-0.23438-2.7734-2.7109-4.875-5.4414-4.5938-2.7734 0.23047-4.832 2.6719-4.5938 5.4414 1.0781 12.727 1.5977 27.91 1.5977 46.414 0 7.9531-0.097657 15.508-0.30078 22.656z"/>
  <path d="m338.68 416c0 124.88 20.023 185.58 61.215 185.58s61.215-60.703 61.215-185.58c0-115.14-17.402-165.91-58.008-168.41-2.4766-16.969 1.7148-42.977 1.7617-43.258 0.45312-2.7461-1.4062-5.3398-4.1523-5.7852-2.7656-0.50781-5.3398 1.4062-5.7852 4.1523-0.19531 1.1875-4.3047 26.707-1.918 45.266-37.98 5.3203-54.328 56.445-54.328 168.04zm61.215-158.46c35.363 0 51.137 48.871 51.137 158.46 0 114.82-17.684 175.51-51.137 175.51-33.457 0.003907-51.141-60.688-51.141-175.5 0-109.59 15.773-158.46 51.141-158.46z"/>
  <path d="m407.25 529.63c1.0586 0 2.1211-0.32812 3.0312-1.0195 6.5586-4.9492 11.281-15.887 14.43-33.43 0.49219-2.7422-1.3281-5.3594-4.0703-5.8516-2.7305-0.48828-5.3594 1.332-5.8516 4.0703-3.4648 19.305-8.1172 25.309-10.582 27.172-2.2188 1.6719-2.6602 4.8359-0.98438 7.0547 0.99219 1.3125 2.5 2.0039 4.0273 2.0039z"/>
  <path d="m419.21 442.06c-0.074219 2.7852 2.1172 5.1016 4.8945 5.1797h0.14844c2.7148 0 4.9531-2.1641 5.0312-4.8945 0.20312-7.2383 0.30469-14.895 0.30469-22.941 0-18.73-0.53516-34.195-1.6367-47.262-0.23047-2.7695-2.6875-4.875-5.4414-4.5938-2.7734 0.23047-4.832 2.668-4.5938 5.4414 1.0781 12.789 1.5977 27.969 1.5977 46.414 0 7.9531-0.10156 15.508-0.30469 22.656z"/>
  <path d="m198.48 416c0 124.88 20.023 185.58 61.215 185.58 41.195 0 61.219-60.703 61.219-185.58 0-115.14-17.402-165.91-58.012-168.41-2.4766-16.969 1.7148-42.977 1.7617-43.258 0.45312-2.7461-1.4062-5.3398-4.1523-5.7852-2.7656-0.50781-5.3398 1.4062-5.7852 4.1523-0.19531 1.1875-4.3047 26.707-1.918 45.266-37.98 5.3203-54.328 56.445-54.328 168.04zm61.215-158.46c35.371 0 51.145 48.871 51.145 158.46 0 114.82-17.688 175.51-51.145 175.51-33.457 0.003907-51.141-60.688-51.141-175.5 0-109.59 15.773-158.46 51.141-158.46z"/>
  <path d="m267.05 529.63c1.0586 0 2.1211-0.32812 3.0312-1.0195 6.5586-4.9492 11.281-15.887 14.434-33.43 0.49219-2.7344-1.3281-5.3594-4.0703-5.8516-2.7422-0.48828-5.3594 1.3281-5.8516 4.0703-3.4727 19.305-8.1211 25.312-10.586 27.172-2.2188 1.6719-2.6602 4.8359-0.98438 7.0547 0.98828 1.3125 2.5 2.0039 4.0273 2.0039z"/>
  <path d="m279.02 442.06c-0.074219 2.7852 2.1172 5.1016 4.8945 5.1797h0.14844c2.7148 0 4.9531-2.1641 5.0312-4.8945 0.20312-7.2383 0.30078-14.895 0.30078-22.941 0-18.789-0.53516-34.254-1.6367-47.262-0.23047-2.7734-2.707-4.875-5.4414-4.5938-2.7734 0.23047-4.832 2.6719-4.5938 5.4414 1.0781 12.727 1.5977 27.91 1.5977 46.414 0 7.9531-0.097656 15.508-0.30078 22.656z"/>
 </g>
</svg>