<?xml version="1.0" encoding="UTF-8"?>
<!-- The Best Svg Icon site in the world: iconSvg.co, Visit us! https://iconsvg.co -->
<svg fill="#000000" width="800px" height="800px" version="1.1" viewBox="144 144 512 512" xmlns="http://www.w3.org/2000/svg">
 <g>
  <path d="m485.75 429.72h-32.293v42.117c0 2.0664-1.6641 3.7773-3.7773 3.7773l-99.352 0.003906c-2.1172 0-3.7773-1.7148-3.7773-3.7773v-42.117h-32.293c-0.50391 0-3.2227 0.10156-3.2227 0.10156l-0.003906 162.88h177.95v-162.88l-1.2109-0.050781c-0.95703-0.050782-1.4609-0.050782-2.0156-0.050782zm-61.715 136.73h-48.062c-10.227 0-18.59-8.3125-18.59-18.59v-19.75h85.242v19.75c0 10.277-8.3633 18.59-18.59 18.59z"/>
  <path d="m463.73 230.67c0-11.992-11.84-22.168-26.953-23.277-1.0078-0.046875-2.0664-0.097656-3.0742-0.097656-9.2695 0-17.938 3.1758-23.73 8.7148-2.4688 2.418-6.0977 3.7773-9.9766 3.7773s-7.5078-1.4102-9.9766-3.7773c-5.7891-5.543-14.457-8.7148-23.777-8.7148-1.0078 0-2.0156 0.050781-3.0234 0.10156-15.113 1.1094-26.953 11.285-26.953 23.277v4.0312h127.46z"/>
  <path d="m336.27 273.29h127.46v10.984h-127.46z"/>
  <path d="m336.27 242.25h127.46v23.477h-127.46z"/>
  <path d="m264.62 478.79v113.91h38.844v-161.82l-1.6133 0.40234c-21.914 5.5938-37.23 25.141-37.23 47.508z"/>
  <path d="m508.87 307.85c0-8.7656-7.2031-15.922-16.121-15.922h-185.5c-8.918 0-16.121 7.1523-16.121 15.922 0 8.7656 7.2031 15.871 16.121 15.871h185.5c8.918 0 16.121-7.1055 16.121-15.871z"/>
  <path d="m498.09 431.29-1.5625-0.40234v161.82h38.844v-113.91c0-22.367-15.316-41.914-37.281-47.508z"/>
  <path d="m433.05 410.12 0.65625-0.65625-0.40234-0.80469c-5.4922-11.133-18.59-18.34-33.301-18.34-14.559 0-27.961 7.4062-33.352 18.391l-0.40234 0.85547 0.65625 0.60547c9.7227 9.3203 21.16 14.258 33.051 14.258 11.887 0 23.32-4.9375 33.094-14.309z"/>
  <path d="m456.98 340.6c0.050781-3.0742 0.10156-5.5938 0.10156-8.0625l-0.050781-1.2578h-114.11v10.578l0.050781 6.1484c0 20.402 5.9453 39.648 16.727 54.109l1.1094 1.4102 0.95703-1.5117c7.707-11.836 22.316-19.242 38.238-19.242 15.82 0 30.48 7.3555 38.137 19.195l1.0078 1.5117 1.0586-1.4609c10.781-14.461 16.727-33.656 16.727-54.008 0-2.5234 0-4.9883 0.050781-7.4102z"/>
  <path d="m354.1 468.06h91.793v-39.551l-14.207-5.6406-1.2578-0.90625-0.70703 0.50391c-9.3203 6.2969-19.348 9.5234-29.773 9.5234-10.43 0-20.402-3.1758-29.723-9.5234l-0.70703-0.45312-1.0078 0.70312-14.41 5.793z"/>
 </g>
</svg>