<?xml version="1.0" encoding="UTF-8"?>
<!-- The Best Svg Icon site in the world: iconSvg.co, Visit us! https://iconsvg.co -->
<svg fill="#000000" width="800px" height="800px" version="1.1" viewBox="144 144 512 512" xmlns="http://www.w3.org/2000/svg">
 <g>
  <path d="m614.12 267.12c-24.562-24.875-57.625-38.414-92.262-38.414s-67.699 13.539-92.262 38.414c-22.043 22.043-35.266 51.012-37.785 81.867l-35.578 0.003906c-32.434 0-58.883-26.449-58.883-58.883 0-11.336-5.0391-21.727-12.91-28.969 14.801-12.281 23.617-33.691 23.617-61.086 0-5.9844-5.0391-11.02-11.02-11.02l-42.195-0.003906c-34.953-0.3125-57.309 28.34-57.309 72.422v0.31641c0 1.8906 0.62891 3.7773 1.5742 5.668-9.4453 10.078-14.801 22.984-15.43 37.156l-0.94531 22.672c0 3.1484 0.94531 5.9844 3.1484 8.1875s5.0391 3.4648 7.8711 3.4648h28.34c0.31641 0 0.62891 0 0.62891 0.31641-17.004 6.2969-29.285 22.984-29.285 42.195v32.117c0 5.9844 5.0391 11.02 11.02 11.02 9.7617 0 18.578-3.1484 26.137-8.5 10.078 41.25 42.824 73.684 84.387 82.5 0.94531 5.3516 2.5195 10.078 4.7227 14.801l-39.355-0.007812c-5.9844 0-11.02 5.0391-11.02 11.02v32.434c0 5.9844 5.0391 11.02 11.02 11.02 5.9844 0 11.02-5.0391 11.02-11.02v-21.41h48.492 0.31641c5.0391 3.1484 10.707 5.3516 16.375 6.6133v46.914h-21.098c-5.9844 0-11.02 5.0391-11.02 11.02 0 5.9844 5.0391 11.02 11.02 11.02h32.117c5.9844 0 11.02-5.0391 11.02-11.02v-58.566c21.41-4.4102 38.102-21.727 41.562-43.453 49.75-11.02 86.906-55.418 86.906-108.32v-29.598c0-3.7773 1.5742-7.5586 4.4102-10.391 5.3516-5.3516 14.801-5.3516 20.469 0 4.4102 4.4102 11.336 4.4102 15.742 0 4.4102-4.4102 4.4102-11.336 0-15.742-6.9258-6.9258-16.059-10.707-25.82-10.707s-18.895 3.7773-25.82 10.707c-6.9258 6.9258-10.707 16.059-10.707 25.82v29.598c0 49.121-39.676 88.797-88.168 88.797h-59.191c-48.805 0-88.168-39.988-88.168-88.797v-45.344c0-15.113-12.281-27.395-27.395-27.395h-17.004l0.31641-11.02c0.31641-9.1328 3.7773-17.32 9.7617-23.617 4.4102-4.4102 13.539-9.1328 22.984-9.1328h19.523c9.4453 0 17.004 7.5586 17.004 17.004 0 44.715 36.211 80.926 80.926 80.926h45.973c5.9844 0 11.02-5.0391 11.02-11.02 0-29.285 11.336-56.68 31.805-77.145 20.469-20.469 47.863-31.805 76.832-31.805s56.047 11.336 76.832 31.805c4.4102 4.4102 11.336 4.4102 15.742 0 4.0898-4.0977 4.0898-11.023-0.003906-15.434zm-217.27 233.33c-4.0938 11.652-15.43 19.836-28.652 19.836h-0.62891c-13.227 0-24.246-8.1875-28.969-19.836zm-181.06-101.39v-18.262c0-5.9844 2.5195-11.965 6.6133-16.059 1.5742-1.5742 3.1484-2.832 5.0391-3.7773v18.262c0 8.5-4.7266 16.055-11.652 19.836zm69.59-187.98c-1.8906 17.004-9.1328 39.676-34.637 39.676h-30.543c1.8906-17.004 9.1328-39.988 34.637-39.988l30.543-0.003906z"/>
  <path d="m312.15 388.03c-5.9844 0-11.02 5.0391-11.02 11.02v8.5c0 30.543 24.875 55.418 55.105 55.418h35.895c5.9844 0 11.02-5.0391 11.02-11.02 0-5.9766-5.0391-11.016-11.023-11.016h-35.895c-18.262 0-33.062-14.801-33.062-33.379v-8.5c0-6.2969-5.0391-11.023-11.02-11.023z"/>
  <path d="m521.54 260.19c-26.449 0-51.324 10.391-70.219 29.285-18.578 18.895-28.969 43.77-28.969 70.535 0 5.9844 5.0391 11.02 11.02 11.02 5.9844 0 11.02-5.0391 11.02-11.02 0-20.781 8.1875-40.305 22.672-54.789 14.484-14.801 34.008-22.672 54.473-22.672 20.469 0 39.988 8.1875 54.473 22.672 4.4102 4.4102 11.336 4.4102 15.742 0 4.4102-4.4102 4.4102-11.336 0-15.742-18.57-18.898-43.445-29.289-70.211-29.289z"/>
  <path d="m521.54 291.68c-18.262 0-35.266 7.2422-48.176 20.152-12.91 12.91-19.836 29.914-19.836 48.176 0 5.9844 5.0391 11.02 11.02 11.02 5.9844 0 11.02-5.0391 11.02-11.02 0-12.281 4.7227-23.93 13.539-32.746 8.5-8.8164 20.152-13.539 32.434-13.539s23.617 4.7227 32.434 13.539c4.4102 4.4102 11.336 4.4102 15.742 0 4.4102-4.4102 4.4102-11.336 0-15.742-12.91-12.914-29.914-19.84-48.176-19.84z"/>
 </g>
</svg>