<?xml version="1.0" encoding="UTF-8"?>
<!-- The Best Svg Icon site in the world: iconSvg.co, Visit us! https://iconsvg.co -->
<svg fill="#000000" width="800px" height="800px" version="1.1" viewBox="144 144 512 512" xmlns="http://www.w3.org/2000/svg">
 <g>
  <path d="m203.23 422.89c-0.019531 0.22266-0.027343 0.44531-0.027343 0.67188 0 16.09 6.8398 31.434 19.258 43.207h-0.003906c5.9141 5.582 12.711 10.133 20.121 13.477 0.37109 16.887 6.7188 32.297 17.965 43.527 11.578 11.559 27.555 17.926 44.996 17.926h25.344l11.809 47.23h-5.6641c-4.3477 0-7.875 3.5273-7.875 7.875v31.488c0 2.0859 0.83203 4.0898 2.3086 5.5664 1.4766 1.4727 3.4766 2.3047 5.5664 2.3047h157.44c2.0898 0 4.0938-0.83203 5.5664-2.3047 1.4766-1.4766 2.3086-3.4805 2.3086-5.5664-0.011719-10.438-4.1641-20.441-11.543-27.82-7.3789-7.3789-17.383-11.531-27.816-11.543h-9.5977l-11.809-47.23h26.555c20.453 0 39.008-6.6992 53.652-19.371 14.41-12.469 23.977-29.785 27.664-50.07 0.082032-0.46484 0.125-0.93359 0.125-1.4062v-65.945c0-7.6172 1.2266-15.184 3.6367-22.406l19.398-58.199c2.9688-5.9414 5.5859-11.246 7.8164-16.023l50.633-18.988v0.003906c3.0742-1.1523 5.1094-4.0898 5.1094-7.3711s-2.0352-6.2188-5.1094-7.3711l-46.641-17.488c-3.1367-8.332-7.8086-15.996-13.777-22.598 6.6914-6.0352 10.48-14.645 10.402-23.656-0.078125-9.0078-4.0117-17.555-10.805-23.473s-15.797-8.6445-24.734-7.4844c-3.6758-6.5039-9.543-11.492-16.555-14.07-7.0117-2.5781-14.715-2.5781-21.727 0-7.0117 2.5781-12.883 7.5664-16.555 14.07-9.3125-1.2148-18.68 1.7852-25.547 8.1914-6.8672 6.4023-10.516 15.535-9.9531 24.91 0.5625 9.3711 5.2812 18.004 12.867 23.539-11.504 14.371-17.492 31.309-20.527 43.395l-15.711 54.977c-0.023437 0.085937-0.046874 0.16797-0.066406 0.25391-2.7656 11.055-10.566 17.652-20.887 17.652h-239.12c-4.3477 0-7.875 3.5234-7.875 7.8711 0 17.25 7.9883 35.117 21.922 49.016v0.003906c5.1875 5.1953 11.062 9.6484 17.469 13.23zm385.39-147.44 17.25 6.4688-17.859 6.6953h0.003907c0.56641-2.1875 0.87109-4.4336 0.91406-6.6953 0-2.1797-0.11328-4.3359-0.30859-6.4688zm-243.72 344.96v-15.742h55.105c4.8828 0.003906 9.6406 1.5195 13.629 4.3398 3.9883 2.8203 7.0039 6.8008 8.6367 11.402zm2.2109-78.719h15.262l11.809 47.23h-15.262zm31.488 0h15.262l11.809 47.23h-15.262zm31.488 0h15.262l11.809 47.23h-15.266zm52.895 62.977c4.8789 0.003906 9.6406 1.5195 13.629 4.3398 3.9844 2.8203 7.0039 6.8008 8.6367 11.402h-46.672c-1.168-5.7109-3.5938-11.09-7.1016-15.742zm23.613-409.35c1.9883 0 3.957 0.375 5.8008 1.1094 2.082 0.82812 4.4219 0.72656 6.4258-0.27734 2.0039-1 3.4844-2.8125 4.0742-4.9727 1.2188-4.4766 4.3516-8.1836 8.5547-10.137 4.207-1.9531 9.0586-1.9531 13.266 0 4.207 1.9531 7.3359 5.6602 8.5586 10.137 0.58594 2.1602 2.0703 3.9727 4.0742 4.9727 2.0039 1.0039 4.3398 1.1055 6.4219 0.27734 4.8125-1.9102 10.258-1.3281 14.559 1.5508 4.3047 2.8789 6.9141 7.6914 6.9844 12.867 0.070312 5.1797-2.4102 10.059-6.6367 13.051-11.883-8.3594-26.062-12.844-40.594-12.832-14.156-0.027343-27.871 4.9141-38.762 13.961-4.1953-2.1875-7.1875-6.1484-8.1406-10.781-0.95703-4.6367 0.22266-9.4531 3.2109-13.125 2.9922-3.668 7.4727-5.7969 12.203-5.8008zm-23.918 88.758c0.023437-0.085937 0.046875-0.16797 0.066406-0.25391 13.227-52.902 45.703-57.016 55.34-57.016 14.609 0.019531 28.617 5.8281 38.945 16.16 10.332 10.328 16.145 24.336 16.16 38.945 0 6.0117-8.6172 23.254-14.914 35.84-0.16797 0.33203-0.30859 0.67578-0.42578 1.0312l-6.7188 20.152-29.246 11.699-12.504-25.008v-0.003906c-1.9453-3.8867-6.6719-5.4648-10.562-3.5195l-25.613 12.805-18.145-24.191zm-46.93 84.113v0.31641c14.609 0.015625 28.617 5.8281 38.945 16.156 10.332 10.332 16.141 24.336 16.16 38.945v7.875c-0.019531 14.609-5.8281 28.613-16.16 38.945-10.328 10.328-24.336 16.141-38.945 16.156h-39.359c-17.219 0-28.117-8.4961-30.824-23.617h6.0859l-0.003906 0.003906c0.37891-0.003906 0.75391-0.035156 1.125-0.089843v0.089843h15.746c4.3477 0 7.8711-3.5273 7.8711-7.875 0-4.3477-3.5234-7.8711-7.8711-7.8711h-15.746v0.089843c-0.37109-0.058593-0.74609-0.085937-1.125-0.089843-17.074 0-33.336-14.434-37.312-31.488h5.8242c0.37891-0.003907 0.75391-0.03125 1.125-0.089844v0.089844h47.234c4.3477 0 7.8711-3.5234 7.8711-7.8711s-3.5234-7.8711-7.8711-7.8711h-47.234v0.089844c-0.37109-0.058594-0.74609-0.089844-1.125-0.089844-17.074 0-33.328-14.434-37.305-31.488 0 0 131.29-0.10938 132.89-0.31641zm-148.93 0.31641c3.1406 18.012 14.598 33.488 30.914 41.75 0.63672 13.004 6.4414 25.992 16.145 35.953l-0.003907 0.003906c4.4492 4.582 9.6289 8.3906 15.332 11.27 1 27.332 19.297 44.848 47.188 44.848h39.359c18.785-0.023438 36.793-7.4961 50.074-20.777s20.754-31.289 20.773-50.07v-7.875c-0.019532-14.887-4.7188-29.387-13.438-41.457-8.7148-12.066-21.008-21.086-35.133-25.781 4.3203-4.9727 7.3867-10.91 8.9414-17.309l2.668-9.3398 14.922 19.891c2.2812 3.043 6.4141 4.0195 9.8164 2.3164l24.445-12.223 12.223 24.449h0.003906c1.832 3.6602 6.1641 5.3086 9.9648 3.7891l23.602-9.4414-6.3359 19.012h-0.003906c-2.9453 8.8281-4.4453 18.074-4.4414 27.383v65.219c-6.4609 33.941-32.18 55.828-65.699 55.828h-162.59c-24.652 0-43.219-16.137-46.66-39.367 1.7695 0.007813 3.4922 0.007813 4.8281 0 0.86719 0 1.6875-0.007812 2.4688-0.054687l0.003906 0.0625h15.742c4.3477 0 7.8711-3.5234 7.8711-7.8711s-3.5234-7.8711-7.8711-7.8711h-14.84c-0.011719 0-0.019531 0-0.03125-0.007812-21.199-2.3633-43.047-17.398-47.348-39.387l14.754 0.035156h15.977c4.3477 0 7.8711-3.5273 7.8711-7.875 0-4.3477-3.5234-7.8711-7.8711-7.8711h-15.941c-24.602-0.12109-49.566-22.777-54.156-47.23z"/>
  <path d="m541.7 266.18c0 4.3477-3.5234 7.8711-7.8711 7.8711-4.3477 0-7.875-3.5234-7.875-7.8711 0-4.3477 3.5273-7.875 7.875-7.875 4.3477 0 7.8711 3.5273 7.8711 7.875"/>
 </g>
</svg>