<?xml version="1.0" encoding="UTF-8"?>
<!-- The Best Svg Icon site in the world: iconSvg.co, Visit us! https://iconsvg.co -->
<svg fill="#000000" width="800px" height="800px" version="1.1" viewBox="144 144 512 512" xmlns="http://www.w3.org/2000/svg">
 <g>
  <path d="m595.2 458.43c-0.55078 0.14453-12.617 3.3867-32.426 13.93-2.9961-11.523-8.8672-25.102-20.367-34.551-1.8594-1.5312-4.5352-1.5312-6.3984 0-11.664 9.582-17.551 23.391-20.52 35.125-18.309-10.172-31.559-14.102-32.172-14.277-1.9062-0.55469-3.9648 0.058594-5.2539 1.5781-1.2891 1.5156-1.5625 3.6523-0.69922 5.4453 1.6328 3.3906 3.2383 7.0039 4.8867 10.699 7.0234 15.789 14.758 33.129 27.852 42.578-4.2031 1.7031-8.0195 4.3281-11.094 7.8047-5.6289 6.375-8.2617 14.867-7.2461 23.051l2.9375 41.633h-51.992l2.9102-41.379c1.043-8.4453-1.5859-16.941-7.2188-23.316-3.2305-3.6484-7.2812-6.3672-11.742-8.0547 13.48-9.8281 21.52-27.402 28.809-43.371 1.543-3.375 3.0469-6.6797 4.5742-9.8242 0.85547-1.7734 0.60547-3.8789-0.64453-5.3945-1.2539-1.5234-3.2812-2.168-5.168-1.6719-0.55078 0.14453-12.617 3.3867-32.426 13.93-2.9961-11.527-8.8672-25.105-20.367-34.551-1.8594-1.5273-4.5352-1.5273-6.3984 0-11.664 9.5859-17.547 23.391-20.516 35.129-18.312-10.172-31.562-14.102-32.18-14.281-1.9062-0.55469-3.9648 0.058594-5.2539 1.5781-1.2852 1.5156-1.5625 3.6523-0.69922 5.4453 1.6328 3.3906 3.2383 7.0039 4.8867 10.699 7.0234 15.789 14.758 33.129 27.852 42.578-4.2031 1.7031-8.0273 4.332-11.094 7.8047-5.6289 6.375-8.2617 14.867-7.2383 23.051l2.9375 41.629h-48.441l2.9102-41.379c1.043-8.4453-1.5859-16.941-7.2188-23.312-3.2305-3.6523-7.2852-6.3672-11.742-8.0547 13.477-9.8242 21.508-27.387 28.797-43.352 1.5469-3.3789 3.0547-6.6953 4.5781-9.8438 0.86328-1.7695 0.60937-3.8789-0.64063-5.3945-1.2461-1.5234-3.2812-2.168-5.168-1.6719-0.55078 0.14453-12.617 3.3867-32.426 13.93-2.9961-11.523-8.8672-25.102-20.367-34.551-1.8594-1.5312-4.5352-1.5312-6.3984 0-11.656 9.5781-17.547 23.387-20.52 35.129-18.309-10.172-31.559-14.102-32.172-14.281-1.9062-0.55469-3.9609 0.058594-5.2539 1.5781-1.2852 1.5156-1.5625 3.6523-0.69922 5.4453 1.6328 3.3906 3.2383 7.0039 4.8867 10.699 7.0234 15.789 14.758 33.129 27.852 42.578-4.2031 1.7031-8.0195 4.3281-11.094 7.8047-5.6289 6.375-8.2617 14.867-7.2461 23.051l2.9375 41.625h-12.797c-2.7852 0-5.0391 2.2578-5.0391 5.0391s2.2539 5.0391 5.0391 5.0391h392.49c2.7852 0 5.0391-2.2578 5.0391-5.0391s-2.2539-5.0391-5.0391-5.0391h-12.316l2.9102-41.379c1.043-8.4453-1.5859-16.941-7.2188-23.312-3.2305-3.6523-7.2852-6.3672-11.742-8.0547 13.477-9.8281 21.512-27.391 28.805-43.363 1.543-3.375 3.0469-6.6914 4.5742-9.8398 0.86328-1.7695 0.60938-3.8789-0.64062-5.3945-1.25-1.5156-3.2773-2.1641-5.1719-1.6719zm-244.64 14.008c6.3672 2.6758 15.043 6.7773 24.863 12.641 1.4219 0.85156 3.1758 0.94531 4.6758 0.25781 1.5078-0.68359 2.5781-2.0703 2.8672-3.7031 1.7852-10.062 5.8906-23.512 15.281-33.105 9.2188 9.4102 13.332 22.562 15.156 32.395 0.30078 1.5977 1.3516 2.957 2.8281 3.6484 1.4648 0.68359 3.1836 0.625 4.6055-0.17578 10.359-5.8398 18.887-9.7656 25.043-12.281-8.5703 18.766-18.379 39.66-36.359 43.562h-0.003906c-11.059 2.3984-22.43 0.046875-22.781-0.023437-18.23-2.9883-27.363-23.41-36.176-43.215zm11.555 94.625h39.66c2.7852 0 5.0391-2.2578 5.0391-5.0391s-2.2539-5.0391-5.0391-5.0391h-40.371l-0.57422-8.1562c-0.69141-5.5781 1.0469-11.195 4.7656-15.402 3.7031-4.1953 9.0391-6.6016 14.629-6.6016h36.004c5.5859 0 10.922 2.4102 14.625 6.6016 3.7188 4.207 5.4609 9.8242 4.7461 15.668l-2.9766 42.352h-68.793zm-148.98-94.617c6.3828 2.6797 15.07 6.7852 24.852 12.629 1.4141 0.85156 3.1758 0.94531 4.6758 0.25781 1.5078-0.68359 2.5781-2.0703 2.8672-3.6992 1.7891-10.066 5.8984-23.523 15.285-33.109 9.2188 9.418 13.332 22.566 15.156 32.395 0.30078 1.5977 1.3516 2.957 2.8281 3.6484 1.4648 0.68359 3.1836 0.625 4.6055-0.17578 10.352-5.8398 18.887-9.7656 25.039-12.281-8.5703 18.766-18.375 39.66-36.355 43.562h-0.003906c-11.059 2.3984-22.43 0.046875-22.781-0.023437-18.223-2.9844-27.359-23.402-36.168-43.203zm11.547 94.617h40.246c2.7852 0 5.0391-2.2578 5.0391-5.0391s-2.2539-5.0391-5.0391-5.0391h-40.953l-0.57422-8.1562c-0.69141-5.582 1.0469-11.195 4.7695-15.406 3.7031-4.1953 9.0391-6.6016 14.629-6.6016h36.004c5.5938 0 10.926 2.4102 14.629 6.6016 3.7227 4.207 5.4609 9.8242 4.7461 15.668l-2.9844 42.355h-68.789zm351.89-17.965-2.9883 42.348h-68.789l-1.7227-24.383h39.66c2.7852 0 5.0391-2.2578 5.0391-5.0391s-2.2539-5.0391-5.0391-5.0391h-40.375l-0.57422-8.1562c-0.69141-5.582 1.0469-11.195 4.7695-15.406 3.7031-4.1953 9.0391-6.6016 14.629-6.6016h36.004c5.5938 0 10.926 2.4102 14.629 6.6016 3.7344 4.2109 5.4688 9.8281 4.7578 15.676zm-26.098-33.43c-11.062 2.3984-22.434 0.046875-22.789-0.023438-18.211-2.9766-27.348-23.398-36.16-43.195 6.3828 2.6797 15.07 6.7852 24.852 12.629 1.4219 0.85156 3.1758 0.94531 4.6758 0.25781 1.5078-0.68359 2.5781-2.0703 2.8672-3.7031 1.7852-10.062 5.8906-23.512 15.285-33.105 9.2188 9.418 13.332 22.566 15.156 32.395 0.30078 1.5977 1.3516 2.957 2.8281 3.6484 1.4648 0.68359 3.1836 0.625 4.6055-0.17578 10.352-5.8398 18.887-9.7578 25.039-12.281-8.5742 18.758-18.383 39.648-36.359 43.555z"/>
  <path d="m440.42 286.53c0-22.289-18.137-40.426-40.422-40.426s-40.422 18.137-40.422 40.426c0.003906 22.285 18.137 40.418 40.426 40.418 22.285 0 40.418-18.133 40.418-40.418zm-40.418 30.344c-16.73 0-30.344-13.613-30.344-30.344 0-16.738 13.613-30.348 30.344-30.348s30.344 13.613 30.344 30.348c0 16.73-13.613 30.344-30.344 30.344z"/>
  <path d="m405.04 225.3v-21.789c0-2.7812-2.2539-5.0391-5.0391-5.0391s-5.0391 2.2578-5.0391 5.0391v21.789c0 2.7812 2.2539 5.0391 5.0391 5.0391 2.7891 0 5.0391-2.2578 5.0391-5.0391z"/>
  <path d="m365.03 236.02c0.9375 1.6172 2.625 2.5195 4.3672 2.5195 0.85547 0 1.7227-0.21484 2.5156-0.67578 2.4141-1.3906 3.2383-4.4727 1.8438-6.8828l-10.898-18.871c-1.3945-2.4141-4.4883-3.2383-6.8828-1.8438-2.4141 1.3906-3.2383 4.4727-1.8438 6.8828z"/>
  <path d="m349.5 251.55-18.867-10.898c-2.4141-1.3906-5.4883-0.5625-6.8828 1.8438-1.3906 2.4102-0.5625 5.4922 1.8438 6.8828l18.867 10.898c0.78906 0.45703 1.6562 0.67578 2.5156 0.67578 1.7422 0 3.4375-0.90234 4.3672-2.5195 1.3906-2.4102 0.56641-5.4922-1.8438-6.8828z"/>
  <path d="m343.82 286.53c0-2.7812-2.2539-5.0391-5.0391-5.0391h-21.789c-2.7852 0-5.0391 2.2578-5.0391 5.0391s2.2539 5.0391 5.0391 5.0391h21.789c2.7812-0.003906 5.0391-2.2617 5.0391-5.0391z"/>
  <path d="m328.11 333.06c0.85547 0 1.7227-0.21484 2.5156-0.67578l18.867-10.898c2.4141-1.3906 3.2383-4.4727 1.8438-6.8828-1.3945-2.4141-4.4844-3.2383-6.8828-1.8438l-18.867 10.898c-2.4141 1.3906-3.2383 4.4727-1.8438 6.8828 0.9375 1.6172 2.6289 2.5195 4.3672 2.5195z"/>
  <path d="m355.98 362.77c0.78906 0.45703 1.6562 0.67578 2.5156 0.67578 1.7422 0 3.4375-0.90234 4.3672-2.5195l10.898-18.871c1.3906-2.4102 0.5625-5.4922-1.8438-6.8828-2.4102-1.3906-5.4922-0.57031-6.8828 1.8438l-10.898 18.871c-1.3984 2.4062-0.57031 5.4922 1.8438 6.8828z"/>
  <path d="m394.96 347.74v21.789c0 2.7812 2.2539 5.0391 5.0391 5.0391s5.0391-2.2578 5.0391-5.0391v-21.789c0-2.7812-2.2539-5.0391-5.0391-5.0391-2.7891 0-5.0391 2.2578-5.0391 5.0391z"/>
  <path d="m437.14 360.93c0.9375 1.6172 2.625 2.5195 4.3672 2.5195 0.85547 0 1.7227-0.21484 2.5156-0.67578 2.4141-1.3906 3.2383-4.4727 1.8438-6.8828l-10.898-18.867c-1.3945-2.4141-4.4844-3.2344-6.8828-1.8438-2.4141 1.3906-3.2383 4.4727-1.8438 6.8828z"/>
  <path d="m450.5 321.5 18.867 10.898c0.78906 0.45703 1.6562 0.67578 2.5156 0.67578 1.7422 0 3.4375-0.90234 4.3672-2.5195 1.3906-2.4102 0.5625-5.4922-1.8438-6.8828l-18.867-10.898c-2.4102-1.3906-5.4922-0.5625-6.8828 1.8438s-0.56641 5.4922 1.8438 6.8828z"/>
  <path d="m488.05 286.53c0-2.7812-2.2539-5.0391-5.0391-5.0391h-21.789c-2.7852 0-5.0391 2.2578-5.0391 5.0391s2.2539 5.0391 5.0391 5.0391h21.789c2.7812-0.003906 5.0391-2.2617 5.0391-5.0391z"/>
  <path d="m453.02 260.95c0.85547 0 1.7227-0.21484 2.5156-0.67578l18.867-10.898c2.4141-1.3906 3.2383-4.4727 1.8438-6.8828-1.3945-2.4141-4.4883-3.2344-6.8828-1.8438l-18.867 10.898c-2.4141 1.3906-3.2383 4.4727-1.8438 6.8828 0.9375 1.6172 2.6289 2.5195 4.3672 2.5195z"/>
  <path d="m444.02 210.27c-2.4141-1.3945-5.4922-0.57031-6.8828 1.8438l-10.898 18.871c-1.3906 2.4102-0.5625 5.4922 1.8438 6.8828 0.78906 0.45703 1.6562 0.67578 2.5156 0.67578 1.7422 0 3.4375-0.90234 4.3672-2.5195l10.898-18.871c1.3984-2.4102 0.57031-5.4883-1.8438-6.8828z"/>
 </g>
</svg>