<?xml version="1.0" encoding="UTF-8"?>
<!-- The Best Svg Icon site in the world: iconSvg.co, Visit us! https://iconsvg.co -->
<svg fill="#000000" width="800px" height="800px" version="1.1" viewBox="144 144 512 512" xmlns="http://www.w3.org/2000/svg">
 <g>
  <path d="m388.71 375.72h22.582c2.7812 0 5.0391-2.2539 5.0391-5.0391v-24.562c0-8.8438-7.1953-16.039-16.039-16.039h-0.58203c-8.8438 0-16.039 7.1953-16.039 16.039v24.562c0 2.7812 2.2578 5.0391 5.0391 5.0391zm5.0391-29.602c0-3.2891 2.6758-5.9648 5.9648-5.9648h0.58203c3.2891 0 5.9648 2.6758 5.9648 5.9648v19.523h-12.508z"/>
  <path d="m596.48 470.11h-45.785v-20.023c8.5234-2.1016 14.883-9.7539 14.883-18.918v-41.016c0-10.773-8.7656-19.539-19.539-19.539h-0.76172c-10.773 0-19.539 8.7656-19.539 19.539v41.016c0 9.1602 6.3594 16.816 14.883 18.918v20.023h-52.027v-100.81l17.691-9.3711c1.2383-0.65625 2.1484-1.8008 2.5078-3.1562 0.36328-1.3594 0.14062-2.8008-0.60938-3.9883l-38.734-61.27-1.8516-2.9805c-0.38281-0.61719-0.89453-1.1445-1.5039-1.543l-63.246-41.527c-1.6836-1.1016-3.8516-1.1016-5.5273 0l-63.488 41.637c-0.62109 0.40234-1.1445 0.94141-1.5391 1.5703l-40.488 64.117c-0.75 1.1875-0.97266 2.6289-0.60938 3.9883 0.36328 1.3555 1.2695 2.5 2.5078 3.1562l17.691 9.3711v100.81h-43.465v-20.023c8.5234-2.1016 14.883-9.7539 14.883-18.918v-41.016c0-10.773-8.7656-19.539-19.539-19.539h-0.76172c-10.773 0-19.539 8.7656-19.539 19.539v41.016c0 9.1602 6.3594 16.816 14.883 18.918v20.023h-21.008c-2.7812 0-5.0391 2.2539-5.0391 5.0391 0 2.7812 2.2539 5.0391 5.0391 5.0391h33.414l-59.5 66.781c-1.8516 2.0781-1.668 5.2617 0.41016 7.1133 0.96094 0.85547 2.1562 1.2773 3.3477 1.2773 1.3867 0 2.7695-0.57031 3.7656-1.6875l65.469-73.488h34.875l-59.5 66.785c-1.8516 2.0781-1.668 5.2617 0.41016 7.1133 0.96094 0.85547 2.1562 1.2773 3.3477 1.2773 1.3867 0 2.7695-0.57031 3.7656-1.6875l65.469-73.492h38.598l-59.5 66.789c-1.8516 2.0781-1.668 5.2617 0.41016 7.1133 0.96094 0.85547 2.1562 1.2773 3.3477 1.2773 1.3867 0 2.7695-0.57031 3.7656-1.6875l65.469-73.488h11.305v70.137c0 2.7812 2.2539 5.0391 5.0391 5.0391 2.7812 0 5.0391-2.2539 5.0391-5.0391l-0.003906-70.141h7.5859l65.469 73.488c0.99219 1.1172 2.375 1.6875 3.7656 1.6875 1.1914 0 2.3867-0.42188 3.3477-1.2773 2.0781-1.8516 2.2617-5.0352 0.41016-7.1133l-59.496-66.785h38.598l65.469 73.488c0.99219 1.1172 2.375 1.6875 3.7656 1.6875 1.1914 0 2.3867-0.42188 3.3477-1.2773 2.0781-1.8516 2.2617-5.0352 0.41016-7.1133l-59.504-66.785h34.875l65.469 73.488c0.99219 1.1211 2.375 1.6875 3.7656 1.6875 1.1914 0 2.3867-0.42188 3.3477-1.2773 2.0781-1.8516 2.2617-5.0352 0.41016-7.1133l-59.496-66.785h69.352c2.7812 0 5.0391-2.2539 5.0391-5.0391 0-2.7812-2.2578-5.0352-5.0391-5.0352zm-60.668-38.941v-41.016c0-5.2188 4.2461-9.4609 9.4648-9.4609h0.76172c5.2188 0 9.4648 4.2422 9.4648 9.4609v41.016c0 3.5156-1.9531 6.5547-4.8086 8.1875v-15.797c0-2.7812-2.2539-5.0391-5.0391-5.0391-2.7812 0-5.0391 2.2539-5.0391 5.0391v15.797c-2.8555-1.6328-4.8047-4.6719-4.8047-8.1875zm-282.77 0v-41.016c0-5.2188 4.2461-9.4609 9.4648-9.4609h0.76172c5.2188 0 9.4648 4.2422 9.4648 9.4609v41.016c0 3.5156-1.9531 6.5547-4.8086 8.1875v-15.797c0-2.7812-2.2539-5.0391-5.0391-5.0391-2.7812 0-5.0391 2.2539-5.0391 5.0391v15.797c-2.8555-1.6328-4.8047-4.6719-4.8047-8.1875zm87.219-136.23 59.82-39.242 59.539 39.094 37.137 58.777-10.625 5.625-35.586-56.375c-0.38281-0.60937-0.89453-1.1289-1.4961-1.5234l-46.254-30.363c-1.6758-1.1016-3.8516-1.1016-5.5312 0l-46.434 30.496c-0.60156 0.39453-1.1133 0.91406-1.4961 1.5195l-35.492 56.242-10.625-5.625zm-18.793 71.062 35.812-56.75 42.754-28.082 42.574 27.949 35.902 56.883v104.11h-33.398v-68.312c0-0.25781-0.10938-0.48438-0.14844-0.73047-0.054687-0.36719-0.082031-0.73047-0.21875-1.082-0.14062-0.35938-0.36719-0.65234-0.57812-0.96484-0.13672-0.20312-0.20312-0.4375-0.375-0.62109-0.027343-0.027344-0.0625-0.039063-0.089843-0.066407-0.26953-0.28516-0.60938-0.47266-0.94141-0.6875-0.22656-0.14453-0.42188-0.33984-0.66406-0.44922-0.23047-0.10156-0.49609-0.11328-0.74609-0.17969-0.39062-0.10547-0.77344-0.23047-1.1758-0.23828-0.035156 0-0.066406-0.019532-0.10156-0.019532h-80.168c-0.039062 0-0.066406 0.019532-0.10547 0.019532-0.41016 0.007812-0.80078 0.13281-1.1953 0.24219-0.23828 0.066407-0.49609 0.074219-0.72266 0.17578-0.25 0.10938-0.45312 0.3125-0.6875 0.46484-0.32031 0.21094-0.65234 0.39453-0.91797 0.67188-0.027344 0.027344-0.0625 0.035157-0.089844 0.066407-0.17187 0.1875-0.23828 0.41797-0.375 0.62109-0.21094 0.3125-0.44141 0.60547-0.57812 0.96484-0.13672 0.35156-0.16406 0.71484-0.21875 1.082-0.039063 0.25-0.14844 0.47266-0.14844 0.73047v68.312h-33.398zm83.559 104.11v-63.273h22.078l-19.586 17.918c-2.0547 1.8789-2.1953 5.0664-0.31641 7.1172 0.99219 1.0859 2.3555 1.6367 3.7188 1.6367 1.2109 0 2.4336-0.43359 3.3984-1.3203l20.715-18.953v51.016l-20.852-17.734c-2.1211-1.8047-5.3008-1.543-7.1016 0.57422-1.8047 2.1211-1.543 5.3008 0.57422 7.1016l18.719 15.918zm-31.422 0 18.719-15.918c2.1172-1.8047 2.375-4.9805 0.57422-7.1016-1.8047-2.1172-4.9805-2.375-7.1016-0.57422l-20.852 17.734-0.003906-51.016 20.715 18.953c0.96484 0.88672 2.1836 1.3203 3.3984 1.3203 1.3672 0 2.7266-0.55078 3.7188-1.6367 1.8789-2.0508 1.7383-5.2383-0.31641-7.1172l-19.586-17.918h22.082v63.273z"/>
  <path d="m223.29 475.15c0-2.7812-2.2539-5.0391-5.0391-5.0391h-14.734c-2.7812 0-5.0391 2.2539-5.0391 5.0391 0 2.7812 2.2539 5.0391 5.0391 5.0391h14.734c2.7852-0.003906 5.0391-2.2578 5.0391-5.0391z"/>
 </g>
</svg>