<?xml version="1.0" encoding="UTF-8"?>
<!-- The Best Svg Icon site in the world: iconSvg.co, Visit us! https://iconsvg.co -->
<svg fill="#000000" width="800px" height="800px" version="1.1" viewBox="144 144 512 512" xmlns="http://www.w3.org/2000/svg">
 <g>
  <path d="m253.59 282.11c-0.39453 2.5195-0.62891 5.1953-0.62891 7.8711h15.742c0-2.6758 0.31641-5.3516 0.86719-7.8711z"/>
  <path d="m311.61 303.84v8.9727c0 3.3047-2.6758 5.9844-5.9844 5.9844l-89.66-0.003906c-3.3047 0-5.9844-2.6758-5.9844-5.9844v-8.9727c0-3.3047 2.6758-5.9844 5.9844-5.9844h89.664c3.3047 0.003906 5.9805 2.6797 5.9805 5.9883z"/>
  <path d="m326.25 517.88v28.812c0 3.6992-2.9922 6.7695-6.7695 6.7695h-117.37c-3.6992 0-6.7695-3.0703-6.7695-6.7695v-28.812z"/>
  <path d="m326.25 370.68v14.09h-130.91v-13.617c0.47266-2.832 6.1406-12.203 9.8398-18.422 4.6445-7.7148 8.1094-13.539 10.078-18.184h91.078c1.9688 4.6445 5.4336 10.469 10.078 18.184 3.6953 6.2188 9.3633 15.586 9.8359 17.949z"/>
  <path d="m195.34 400.51h130.91v101.63h-130.91z"/>
  <path d="m474 392.64v117.37c0 28.574-23.223 51.875-51.875 51.875-28.574 0-51.875-23.301-51.875-51.875l-0.003906-220.02c0-19.918-16.215-36.133-36.133-36.133h-29.285c-17.238 0-31.645 12.125-35.266 28.262-0.55078 2.5195-0.86719 5.1953-0.86719 7.8711h-15.742c0-2.6758 0.23438-5.3516 0.62891-7.8711 3.7773-24.875 25.27-44.004 51.246-44.004h29.285c28.652 0 51.875 23.301 51.875 51.875v220.02c0 19.914 16.219 36.133 36.133 36.133 19.918 0 36.133-16.215 36.133-36.133l0.003907-117.38z"/>
  <path d="m458.26 392.64v14.328c2.5195 0.55078 5.1953 0.86719 7.8711 0.86719 2.6758 0 5.3516-0.31641 7.8711-0.86719v-14.328z"/>
  <path d="m487.62 305.18v65.496c0 11.809-9.6836 21.41-21.492 21.41-11.809 0-21.492-9.6055-21.492-21.41v-65.496z"/>
  <path d="m539.42 397.28-4.9609 13.617c3.8555 1.9688 8.1094 3.3047 12.594 3.8555 0.94531 0.078125 1.8086 0.15625 2.6758 0.23828l4.4883-12.281z"/>
  <path d="m580.67 315.41-7.793 64.945c-1.418 11.809-12.125 20.23-23.93 18.812-11.73-1.418-20.152-12.121-18.734-23.93l7.793-64.945z"/>
  <path d="m554.22 402.71-4.4883 12.281-7.3203 20.074c-10.863 29.914-37.234 50.773-68.406 54.711-2.5195 0.31641-5.0391 0.55078-7.5586 0.62891l-0.62891-15.664c2.7539-0.078125 5.5117-0.39453 8.1875-0.86719 24.48-3.7773 45.027-20.469 53.609-44.16l6.8477-18.812 4.9609-13.617z"/>
  <path d="m509.59 282.67c0 3.6992-2.9922 6.7695-6.7695 6.7695h-73.367c-3.6992 0-6.7695-3.0703-6.7695-6.7695 0-3.7773 3.0703-6.7695 6.7695-6.7695h73.367c3.7773-0.003907 6.7695 2.9883 6.7695 6.7695z"/>
  <path d="m604.6 295.18c-0.39453 3.3867-3.2266 5.9023-6.6914 5.9023h-0.78906l-72.895-8.7383c-0.39453-0.078125-0.70703-0.078125-1.0234-0.23828 1.418-2.832 2.125-6.0625 2.125-9.4453 0-1.2617-0.078125-2.5195-0.31641-3.7773h0.86719l72.816 8.7383c1.8086 0.23438 3.3867 1.1016 4.4883 2.5195 1.1836 1.418 1.6562 3.2266 1.418 5.0391z"/>
 </g>
</svg>