<?xml version="1.0" encoding="UTF-8"?>
<!-- The Best Svg Icon site in the world: iconSvg.co, Visit us! https://iconsvg.co -->
<svg fill="#000000" width="800px" height="800px" version="1.1" viewBox="144 144 512 512" xmlns="http://www.w3.org/2000/svg">
 <g>
  <path d="m373.14 296.56-0.63281 14.328 7.5586 17.16 11.809-5.1953-7.7148-17.16z"/>
  <path d="m413.6 266.49-5.1953-11.648-17.16 7.5547-9.1328 11.023 14.328 0.62891z"/>
  <path d="m340.86 298.61 9.1328-11.02-14.328-0.62891-17.16 7.5547 5.1953 11.652z"/>
  <path d="m347.95 255.31 11.02 9.1289 0.62891-14.328-7.5547-17.16-11.652 5.1953z"/>
  <path d="m319.77 325.21c3.7773 3.9375 8.0312 7.2422 12.754 10.234 3.6211 2.2031 7.2422 3.9375 11.02 5.3516 4.7227 1.8906 9.6055 2.9922 14.484 3.4648 0 0 0.15625 0 0.15625 0.15625 3.9375 0.47266 8.0312 0.62891 11.965 0.15625 1.2578 0.15625 2.5195 0 3.7773-0.15625h0.15625c4.8789-0.62891 9.7617-1.8906 14.484-3.6211 8.1875-2.9922 15.742-7.7148 22.199-14.012 3.9375-3.6211 7.3984-8.0312 10.391-12.754 3.6211-5.9844 6.1406-12.281 7.3984-18.895 1.5742-5.3516 2.0469-10.863 1.7305-16.215 0-0.78906 0-1.7305-0.15625-2.5195-0.94531-14.957-6.9258-29.598-17.789-40.621-3.6211-3.9375-7.8711-7.2422-12.754-10.234-11.809-7.2422-24.875-10.234-37.629-9.1328-15.113 0.78906-29.598 7.0859-40.621 17.789-3.9375 3.7773-7.2422 8.0312-10.234 12.754-7.2422 11.809-10.234 24.875-9.1328 37.629 0.79688 15.117 7.0977 29.605 17.801 40.625zm14.484-46.289 18.734 0.94531 3.3047 0.15625 1.8906 0.15625 3.1484 0.15625c0 0.62891 0.15625 1.418 0.47266 2.0469 0.31641 0.62891 0.78906 1.2578 1.2578 1.5742l-2.0469 2.5195-1.2578 1.5742-2.0469 2.5195-11.965 14.484-23.93 10.547c-5.0391-6.2969-8.6602-13.699-10.707-21.727-0.31641-1.418-0.62891-2.832-0.78906-4.25zm36.844-4.4062 1.2578-1.5742 2.0469-2.5195 11.965-14.484 23.93-10.547c5.0391 6.2969 8.6602 13.699 10.707 21.727 0.31641 1.418 0.62891 2.832 0.78906 4.25l-23.93 10.707-18.734-0.94531-3.3047-0.15625-1.8906-0.15625h-2.9922c0-0.78906-0.15625-1.418-0.47266-2.2031-0.31641-0.62891-0.78906-1.2578-1.418-1.7305zm4.0938 61.715-10.547-23.93 0.78906-18.734 0.15625-3.1484 0.15625-2.0469 0.15625-3.1484c0.62891 0 1.418 0 2.0469-0.31641 0.78906-0.31641 1.418-0.78906 1.8906-1.418l2.2031 2.0469 1.5742 1.2578 2.5195 2.0469 14.484 11.965 10.547 23.93c-7.3984 6.1445-16.375 10.078-25.977 11.496zm-7.5586-87.535-0.94531 18.734-0.15625 3.3047-0.15625 1.8906-0.15625 3.1484c-0.62891 0-1.418 0-2.0469 0.31641-0.78906 0.31641-1.2578 0.78906-1.7305 1.418l-2.3633-2.0469-1.5742-1.2578-2.5195-2.0469-14.484-11.965-10.547-23.93c7.3984-6.1406 16.375-10.078 26.137-11.492z"/>
  <path d="m480.51 285.7-12.277 8.6602-0.63281 0.47266-1.4141 7.2422-1.2617 7.7148-1.2578 7.2422 9.1328 12.91 20.309 14.957 11.648-66.441z"/>
  <path d="m436.12 298.13 21.254 8.8164 2.832-15.902-21.883-9.1328c-0.16016 5.5156-0.78906 10.867-2.2031 16.219z"/>
  <path d="m428.57 565.33c0-0.0625-0.03125-0.10938-0.03125-0.17188 0-0.56641 0-1.1328-0.14062-1.5586l-19.191-108.41c0-0.015625 0.015624-0.03125 0.015624-0.046875 0-0.1875-0.09375-0.36328-0.10937-0.55078-0.015626-0.14063 0-0.28516-0.0625-0.41016l-0.15625-0.69141c-0.10938-0.48828-0.10938-1.0078-0.30078-1.4492-0.015625-0.03125 0-0.046875-0.015625-0.0625l-13.539-77.145-4.5664-26.293c-4.8789 1.8906-10.078 2.9922-15.273 3.6211l2.832 16.375v0.015625h-4.0938v-16.254c-2.6758 0.31641-5.1953 0.47266-7.8711 0.47266-2.6758 0-5.1953-0.15625-7.8711-0.47266v16.23h-4.0938v-0.015626l2.832-16.215c-5.1953-0.78906-10.234-2.0469-15.273-3.6211l-4.5664 26.137-13.539 77.145c-0.15625 0.31641-0.15625 0.47266-0.15625 0.78906l-0.31641 1.418c-0.15625 0.31641-0.15625 0.62891-0.15625 0.94531l-19.207 108.48c-0.15625 0.47266-0.15625 1.1016-0.15625 1.7305l-8.1875 45.816c-0.78906 4.4102 2.0469 8.5 6.2969 9.1328 0.45703 0.15234 0.92969 0.15234 1.4023 0.15234 3.7773 0 7.0859-2.6758 7.7148-6.4531l7.2422-40.762h40.148v39.344c0 4.4102 3.6211 7.8711 7.8711 7.8711 4.4102 0 7.8711-3.4648 7.8711-7.8711v-39.344h40.148l7.2422 40.762c0.62891 3.7773 3.9375 6.4531 7.7148 6.4531 0.47266 0 0.94531 0 1.418-0.15625 4.25-0.62891 7.0859-4.7227 6.2969-9.1328l-8.1719-45.754v-0.042969zm-19.223-19.098-33.598-47.027 20.371-28.512v0.15625l13.227 75.258zm-51.168-71.637-8.2969-11.602h8.2969zm15.742-11.602h8.3438l-8.3438 11.684zm6.9297-78.723 11.02 62.961v0.015625h-17.949v-62.977zm-22.672 62.977h-17.949v-0.015625l11.02-62.961h6.9258zm-35.426 98.855 13.227-75.258v-0.15625l0.015625-0.0625 20.402 28.574-33.66 47.121 0.015624-0.046874zm11.398 11.352 24.043-33.645v33.645zm39.77-33.723 24.09 33.723h-24.09z"/>
 </g>
</svg>