<?xml version="1.0" encoding="UTF-8"?>
<!-- The Best Svg Icon site in the world: iconSvg.co, Visit us! https://iconsvg.co -->
<svg fill="#000000" width="800px" height="800px" version="1.1" viewBox="144 144 512 512" xmlns="http://www.w3.org/2000/svg">
 <g>
  <path d="m385.54 538.5-0.85547 0.30078v9.7734c0 8.6641 6.8516 15.719 15.316 15.719s15.316-7.0547 15.316-15.719v-9.6211l-0.90625-0.25c-5.4414-1.5117-10.68-2.2656-15.566-2.2656-4.6406-0.003906-9.1211 0.70312-13.305 2.0625z"/>
  <path d="m576.08 258.53-33.906-46.047h-284.35l-46.855 63.633h378.06z"/>
  <path d="m416.73 490.89c2.7188-2.7188 4.7344-6.3984 5.9961-10.934l0.65625-2.2656-2.2148 0.70703c-4.3828 1.3086-7.9102 3.375-10.582 6.0469-2.6211 2.7188-4.6367 6.3984-5.9453 10.934l-0.65625 2.2656 2.2148-0.70703c4.3828-1.3125 7.9102-3.3789 10.531-6.0469z"/>
  <path d="m389.42 484.44c-2.6719-2.6719-6.1953-4.7344-10.582-6.0469l-2.2148-0.65625 0.65625 2.2148c1.2578 4.5352 3.2734 8.2109 5.9961 10.934 2.6211 2.6719 6.1484 4.7344 10.531 6.0469l2.2148 0.70703-0.60547-2.2656c-1.3086-4.5352-3.3242-8.2148-5.9961-10.934z"/>
  <path d="m539.35 306.34-0.95703-1.2109-1.1094 1.1094c-0.75391 0.95703-1.6133 1.8633-2.4688 2.7188l-0.80469 0.80469c-0.60547 0.55469-1.2109 1.1094-1.8633 1.6641l-0.70703 0.55469c-0.95703 0.70703-1.5625 1.1602-2.2148 1.5625-0.35156 0.25391-0.70703 0.50391-1.1094 0.70703-0.70703 0.45312-1.3594 0.80469-2.0156 1.1602-0.40234 0.20312-0.85547 0.45312-1.3086 0.65625-0.65625 0.30078-1.3086 0.60547-2.0156 0.85547-0.50391 0.20312-0.90625 0.35156-1.3594 0.50391-0.70703 0.25-1.4102 0.45312-2.1172 0.60547l-1.4102 0.40234c-0.75391 0.15234-1.5625 0.30078-2.3164 0.40234l-1.2578 0.20312-1.1094 0.10156-0.25 1.1602v115.98h27.355l-0.003906-128.83z"/>
  <path d="m207.29 283.67v1.2578c0.35156 14.762 12.344 26.754 26.801 26.754 7.2539 0 14.004-2.9727 19.043-8.3125 2.0664-2.0664 3.7773-4.5352 5.1875-7.5586 0.80469-1.7148 2.5703-2.1172 3.5781-2.2148 1.3594 0.050781 2.6719 0.90625 3.3242 2.2656 4.2812 9.6211 13.805 15.82 24.133 15.82l0.85547-0.050782c10.332-0.50391 19.098-6.5469 23.379-15.816 0.60547-1.3086 1.9648-2.168 3.4258-2.168 1.5117 0 2.8203 0.85547 3.4258 2.168 4.4844 9.7734 13.805 15.871 24.285 15.871 10.328 0 19.801-6.1953 24.133-15.82 0.60547-1.3633 1.9648-2.2188 3.4258-2.2188 1.5117 0 2.8203 0.85547 3.4766 2.168 4.4844 9.7734 13.754 15.867 24.234 15.867s19.75-6.0977 24.234-15.871c0.65625-1.3086 1.9648-2.168 3.4766-2.168 1.4609 0 2.8203 0.85547 3.4258 2.2148 4.332 9.6211 13.805 15.82 24.133 15.82 10.48 0 19.801-6.0977 24.285-15.871 0.60547-1.3086 1.9141-2.168 3.4258-2.168 1.4609 0 2.8203 0.85547 3.4258 2.168 4.2773 9.2773 13.043 15.32 22.918 15.777l0.95703 0.10156c10.68 0 20.203-6.1953 24.484-15.82 0.65625-1.3594 1.9648-2.2148 3.4258-2.2148 1.6133 0.050781 2.8203 0.80469 3.4766 2.168 1.3594 2.9727 3.0742 5.4922 5.0898 7.457 5.0898 5.3906 11.891 8.4141 19.145 8.4141 14.461 0 26.449-11.992 26.801-26.754v-1.2578z"/>
  <path d="m574.21 443.83h-348.43c-5.3906 0-9.7734 4.3828-9.7734 9.7734v124.19c0 5.3398 4.3828 9.7227 9.7734 9.7227h348.43c5.3906 0 9.7734-4.3828 9.7734-9.7227v-124.19c0-5.3906-4.3828-9.7734-9.7734-9.7734zm-169.33 85.445c5.0859 0.50391 10.227 1.6094 15.414 3.3242 1.5625 0.50391 2.5703 1.9648 2.5703 3.5781v12.395c0 12.848-10.277 23.277-22.871 23.277s-22.871-10.43-22.871-23.277v-12.395c0-1.5117 0.90625-2.8711 2.3164-3.4766 4.7852-2.0156 10.027-3.2227 15.617-3.6289l1.1562-0.050781v-23.73l-1.0078-0.20312c-4.9375-1.0586-11.992-3.4258-17.332-8.918-8.7656-8.8672-9.4219-22.168-9.4219-22.723-0.050781-1.0586 0.35156-2.0664 1.1094-2.8203 0.70703-0.70703 1.6641-1.1094 2.6719-1.1094 0.70703 0 13.855 0.75391 22.57 9.6211 1.5117 1.5625 2.9219 3.375 4.1328 5.3906l1.0586 1.8203 1.0586-1.8125c1.2109-2.0156 2.6211-3.8281 4.1328-5.3906 8.7148-8.8672 21.863-9.6211 22.418-9.6211 1.2109 0 2.1172 0.40234 2.8203 1.1094 0.75391 0.75391 1.1602 1.7617 1.1094 2.8203 0 0.55469-0.65625 13.855-9.4219 22.723-5.3398 5.4922-12.395 7.8594-17.332 8.918l-1.0078 0.19531v23.832z"/>
  <path d="m285.89 319.09-1.4609-0.25c-0.80469-0.10156-1.5625-0.25391-2.3672-0.40234l-0.95703-0.25c-1.1094-0.30078-1.8125-0.50391-2.5195-0.75391-0.45312-0.15234-0.90625-0.35156-1.4102-0.50391-0.65625-0.30078-1.3086-0.55469-1.9648-0.85547-0.45312-0.20312-0.90625-0.45312-1.3594-0.65625-0.60547-0.35156-1.2578-0.70703-1.8633-1.0586l-1.2578-0.80469c-0.60547-0.40234-1.2109-0.85547-1.7617-1.3086l-1.1094-0.80469c-0.65625-0.55469-1.2578-1.1094-1.8125-1.6641l-0.90625-0.80469c-0.85547-0.85547-1.6641-1.7617-2.418-2.7188l-0.95703-1.2578-2.0664 2.4688v128.82h27.355l-0.007812-117.1z"/>
 </g>
</svg>