<?xml version="1.0" encoding="UTF-8"?>
<!-- The Best Svg Icon site in the world: iconSvg.co, Visit us! https://iconsvg.co -->
<svg fill="#000000" width="800px" height="800px" version="1.1" viewBox="144 144 512 512" xmlns="http://www.w3.org/2000/svg">
 <g>
  <path d="m501.29 358.05h7.5586v178.05h-7.5586z"/>
  <path d="m591.22 567.89c-7.4062-12.043-39.348-24.285-86.152-24.285-46.754 0-78.695 12.242-86.102 24.285l-1.2109 1.9141h174.67z"/>
  <path d="m452.37 413.12 0.30078 1.7617c1.3086 7.707 5.0391 22.27 15.215 32.598 10.078 10.176 24.184 14.008 31.691 15.316l1.2578 0.25 0.35156-2.3672c-1.7148-9.5703-5.6914-22.418-15.016-31.84-10.125-10.277-24.434-14.105-32.043-15.418z"/>
  <path d="m509 460.18 0.15234 1.5625 0.20312 1.3086 1.2578-0.25c7.5078-1.3594 21.664-5.1875 31.691-15.316 10.227-10.379 13.906-24.887 15.215-32.598l0.30078-1.7617-1.7617 0.30078c-7.6094 1.3086-21.914 5.0898-32.043 15.418-9.3711 9.4688-13.352 22.266-15.016 31.336z"/>
  <path d="m450.71 327.27c18.137 18.391 45.543 22.672 53.555 23.527l0.95703 0.050781 0.55469-0.050781c8.1094-0.85547 35.57-5.1367 53.707-23.527 15.871-16.07 21.059-38.59 22.773-50.582l0.25-1.6641-1.6641 0.25c-11.84 1.7148-34.059 7.0039-49.828 22.922-0.70703 0.70703-1.6641 1.1094-2.6719 1.1094-0.45312 0-0.90625-0.050782-1.3086-0.20312-1.4102-0.55469-2.3672-1.8125-2.4688-3.2734-1.4609-21.664-12.09-48.77-18.34-62.977l-1.1602-2.6719-1.1094 2.6719c-6.2461 14.207-16.879 41.312-18.34 62.977-0.10156 1.4609-1.0586 2.7188-2.4688 3.2734-0.40234 0.15234-0.85547 0.20312-1.3086 0.20312-1.0078 0-1.9648-0.40234-2.6719-1.1094-15.77-15.922-37.988-21.211-49.828-22.922l-1.6641-0.25 0.25 1.6641c1.6758 11.992 6.9141 34.512 22.785 50.582z"/>
  <path d="m231.05 511.52h118.39v-217.54h-118.39zm36.121-131.34c8.3125-8.8672 17.078-28.215 12.191-35.316-1.1094-1.6133-0.80469-3.8281 0.70703-5.0391 0.70703-0.55469 1.5625-0.85547 2.418-0.85547 1.0078 0 1.9648 0.40234 2.7188 1.1094 1.3086 1.3594 32.395 33.555 41.613 61.516 7.3555 22.32 1.1602 46.805-16.121 63.883-0.70703 0.70703-1.6641 1.1094-2.6719 1.1094-1.0078 0-1.9648-0.40234-2.6719-1.1602-0.70703-0.70703-1.1094-1.6641-1.1094-2.6719 0-1.0078 0.40234-1.9648 1.1602-2.6719 15.215-15.062 20.656-36.578 14.207-56.176-5.3906-16.426-19.246-34.863-29.926-47.461l-1.6641-1.9648-0.50391 2.5195c-2.2148 10.578-9.168 22.27-14.863 28.363-12.594 13.504-17.48 32.043-12.645 48.367 3.2734 11.184 10.176 19.297 20.406 24.082l0.90625 0.40234 0.60547-0.75391c20.707-25.895 9.3711-44.387 8.8672-45.141-1.1094-1.7617-0.60547-4.082 1.1094-5.2383 0.60547-0.40234 1.3594-0.60547 2.0664-0.60547 1.2578 0 2.4688 0.65625 3.125 1.7148 0.70703 1.0078 16.02 25.141-11.586 56.828-0.65625 0.65625-0.95703 0.85547-1.3086 1.0586-0.85547 0.40234-1.3086 0.50391-1.7148 0.50391-0.30078 0-0.65625-0.10156-1.0586-0.20312-14.762-5.3906-24.285-15.617-28.668-30.48-5.5898-18.938-0.046874-40.25 14.41-55.719z"/>
  <path d="m358.61 273.16h-136.73c-7.9102 0-14.309 6.4492-14.309 14.309v268.03c0 7.9102 6.3984 14.309 14.309 14.309h136.73c7.9102 0 14.309-6.3984 14.309-14.309v-268.03c0-7.8594-6.3984-14.309-14.309-14.309zm-68.367 287.17c-8.2109 0-14.863-6.75-14.863-15.016 0-8.3125 6.6484-15.062 14.863-15.062 8.2109 0 14.914 6.75 14.914 15.062 0 8.2656-6.6992 15.016-14.914 15.016zm66.758-45.039c0 2.0664-1.7109 3.7773-3.7773 3.7773h-125.95c-2.0664 0-3.7773-1.7148-3.7773-3.7773l-0.003907-225.11c0-2.0664 1.7148-3.7773 3.7773-3.7773h125.95c2.0664 0 3.7773 1.7109 3.7773 3.7773z"/>
 </g>
</svg>