<?xml version="1.0" encoding="UTF-8"?>
<!-- The Best Svg Icon site in the world: iconSvg.co, Visit us! https://iconsvg.co -->
<svg fill="#000000" width="800px" height="800px" version="1.1" viewBox="144 144 512 512" xmlns="http://www.w3.org/2000/svg">
 <g>
  <path d="m591.96 393.75c0-13.074-5.5781-25.559-15.707-35.16-10.215-9.6836-24.059-15.445-38.887-16.539v-14.934c3.4219 1.2773 7.0352 1.9961 10.773 1.9961 17.121 0 31.047-13.93 31.047-31.047 0-7-2.4023-13.785-6.7109-19.23 4.3086-5.4453 6.7109-12.23 6.7109-19.23 0-12.625-7.5508-23.742-18.871-28.539 0.21875-1.4102 0.32812-2.8398 0.32812-4.2656 0.003907-15.617-12.699-28.32-28.316-28.32s-28.32 12.703-28.32 28.32c0 1.4258 0.10938 2.8555 0.32813 4.2656-11.32 4.8008-18.867 15.918-18.867 28.539 0 7 2.4023 13.785 6.7109 19.23-4.3086 5.4453-6.7109 12.23-6.7109 19.23 0 17.117 13.926 31.047 31.047 31.047 3.7383 0 7.3555-0.71875 10.777-1.9961v14.895c-28.594 2.0859-51.863 22.117-54.387 47.582v0.64844c-3.9102 1.0547-7.7305 2.3789-11.41 4.0391 0.003906-5-0.45312-9.9961-1.457-14.93l-12.262-60.113c-5.6562-27.723-30.25-47.867-58.531-47.969-0.042969 0.003906-0.089844 0.003906-0.13672 0-0.042969 0-0.09375-0.003906-0.13672 0-28.281 0.10156-52.875 20.246-58.535 47.996l-14.031 70.332c-6.4844 1.668-12.621 4.3125-18.207 7.8398-0.55859-5.7227-2.8867-11.18-6.7539-15.551-5.1758-5.8555-12.613-9.2109-20.406-9.2109h-11.258v-21.441c4.5 1.8945 9.3359 2.9023 14.332 2.9023 20.344 0 36.895-16.348 36.895-36.441 0-8.5-3.0547-16.723-8.5078-23.223 5.4531-6.5039 8.5078-14.727 8.5078-23.223 0-15.121-9.332-28.395-23.234-33.836 0.34766-1.9141 0.52734-3.8477 0.52734-5.7852-0.003906-18.277-15.055-33.148-33.562-33.148-18.504 0-33.559 14.875-33.559 33.152 0 1.9375 0.17578 3.8711 0.52734 5.7852-13.898 5.4375-23.23 18.715-23.23 33.832 0 8.4961 3.0508 16.719 8.5078 23.223-5.4609 6.5-8.5078 14.723-8.5078 23.223 0 20.094 16.551 36.441 36.895 36.441 4.9961 0 9.832-1.0117 14.332-2.9023v21.441h-11.258c-7.793 0-15.23 3.3555-20.406 9.2109-5.2148 5.8945-7.6523 13.766-6.7188 21.266l2.3125 40.805c-9.4375 11.164-15.156 25.562-15.156 41.289v111.24c0 2.7852 2.2539 5.0391 5.0391 5.0391h392.97c2.7812 0 5.0391-2.2539 5.0391-5.0391l-0.003906-111.24c0-13.133-4.125-25.59-11.219-35.984 1.4375-21.41 1.6523-55.141 1.6562-55.512zm-356.59-49.688c-14.789 0-26.82-11.828-26.82-26.367 0-7.375 3.2031-14.469 8.7852-19.469 1.0664-0.95312 1.6758-2.3203 1.6758-3.7539s-0.60938-2.793-1.6758-3.7539c-5.582-5.0039-8.7852-12.098-8.7852-19.469 0-12.164 8.3984-22.68 20.422-25.586 1.3867-0.32812 2.5625-1.2344 3.2422-2.4844 0.67969-1.25 0.80078-2.7266 0.33594-4.0703-0.85547-2.457-1.293-4.9727-1.293-7.4844 0-12.719 10.535-23.07 23.48-23.07 12.945 0 23.48 10.352 23.48 23.074 0 2.5078-0.43359 5.0273-1.293 7.4844-0.46875 1.3438-0.34766 2.8203 0.33594 4.0703 0.67969 1.25 1.8555 2.1562 3.2422 2.4844 12.023 2.9023 20.422 13.422 20.422 25.586 0 7.3711-3.2031 14.465-8.7891 19.469-1.0664 0.96094-1.6758 2.3203-1.6758 3.7539s0.60937 2.8008 1.6758 3.7539c5.5859 5 8.7891 12.094 8.7891 19.469 0 14.539-12.031 26.367-26.82 26.367-5.1445 0-10.027-1.5039-14.332-4.2148l0.003906-78.078c0-2.7852-2.2539-5.0391-5.0391-5.0391-2.7812 0-5.0391 2.2539-5.0391 5.0391v78.07c-4.3008 2.7148-9.1875 4.2188-14.328 4.2188zm281.14-25.023c-11.562 0-20.969-9.4062-20.969-20.969 0-5.875 2.5117-11.523 6.8945-15.504 1.0508-0.95312 1.6523-2.3086 1.6523-3.7305s-0.60156-2.7734-1.6523-3.7305c-4.3828-3.9805-6.8945-9.6289-6.8945-15.504 0-9.6758 6.5703-18.043 15.98-20.34 1.375-0.33984 2.5469-1.2344 3.2266-2.4805 0.67969-1.2461 0.80469-2.7148 0.34375-4.0547-0.67188-1.9492-1.0117-3.9453-1.0117-5.9336-0.003907-10.055 8.1836-18.238 18.242-18.238s18.242 8.1836 18.242 18.242c0 1.9922-0.33984 3.9883-1.0078 5.9336-0.46094 1.3398-0.33594 2.8086 0.34375 4.0547s1.8516 2.1406 3.2266 2.4805c9.4102 2.2969 15.98 10.66 15.98 20.34 0 5.875-2.5117 11.523-6.8945 15.504-1.0508 0.95312-1.6523 2.3086-1.6523 3.7305 0 1.4219 0.60156 2.7734 1.6523 3.7305 4.3828 3.9805 6.8945 9.6289 6.8945 15.504 0 11.562-9.4062 20.969-20.973 20.969-3.8477 0-7.5156-1.0938-10.773-3.0742v-64.207c0-2.7852-2.2539-5.0391-5.0391-5.0391-2.7812 0-5.0391 2.2539-5.0391 5.0391v64.203c-3.2578 1.9805-6.9258 3.0742-10.773 3.0742zm12.59 32.918c15.359-0.8125 30 4.2617 40.215 13.941 8.1016 7.6797 12.562 17.57 12.562 27.816-0.003906 0.29297-0.15625 24.363-1.0664 44.539-6.6602-6.1719-14.633-11.008-23.578-13.914-13.637-22.75-38.293-36.797-64.84-36.797-3.0742 0-6.1211 0.23047-9.1367 0.60547 3.0742-19.527 22.363-34.938 45.844-36.191zm-188.79-30.699c4.7109-23.105 25.223-39.875 48.793-39.91 23.57 0.035156 44.082 16.809 48.793 39.91l12.262 60.113c1.2539 6.1445 1.582 12.395 1.0234 18.602-6.2656 4.0938-12 9.0508-16.867 14.898-16.148-10.316-36.562-12.836-54.801-6.6406-12.129-13.191-29.113-20.684-47.141-20.684-1.793 0-3.5703 0.097656-5.3359 0.24609zm-114.73 67.301c3.2656-3.6914 7.9492-5.8047 12.859-5.8047h32.594c4.9062 0 9.5938 2.1172 12.859 5.8047 3.3047 3.7344 4.8477 8.7266 4.207 14.008l-0.17578 2.9258c-5.0469 4.8633-9.3477 10.578-12.629 17.012-4.2617-0.87891-8.5352-1.3242-12.75-1.3242-14.836 0-28.473 5.1133-39.344 13.609l-1.8516-32.539c-0.61719-4.9648 0.92578-9.957 4.2305-13.691zm365.86 202.89h-382.89v-106.2c0-29.77 24.223-53.992 53.996-53.992 4.6875 0 9.4766 0.66016 14.238 1.9648 2.4023 0.64062 4.9609-0.5625 5.957-2.875 8.5352-19.875 28.016-32.723 49.629-32.723 16.215 0 31.426 7.1914 41.734 19.738 1.3945 1.6992 3.7305 2.3008 5.7734 1.4766 6.457-2.5977 13.223-3.918 20.121-3.918 11.715 0 22.898 3.7422 32.34 10.832 1.0781 0.8125 2.4375 1.1445 3.7695 0.95312 1.332-0.20312 2.5352-0.92969 3.3242-2.0234 12.328-16.945 32.129-27.066 52.961-27.066 23.598 0 45.473 12.812 57.086 33.43 0.64844 1.1445 1.7188 1.9961 2.9883 2.3672 22.949 6.6445 38.977 27.961 38.977 51.836z"/>
  <path d="m349.33 343.57h8.1484c2.7812 0 5.0391-2.2539 5.0391-5.0391s-2.2539-5.0391-5.0391-5.0391h-8.1484c-2.7812 0-5.0391 2.2539-5.0391 5.0391 0.003907 2.7852 2.2578 5.0391 5.0391 5.0391z"/>
  <path d="m385.03 312.69h8.1523c2.7812 0 5.0391-2.2539 5.0391-5.0391 0-2.7852-2.2539-5.0391-5.0391-5.0391h-8.1523c-2.7812 0-5.0391 2.2539-5.0391 5.0391 0 2.7852 2.2578 5.0391 5.0391 5.0391z"/>
  <path d="m383.83 359.52h8.1523c2.7812 0 5.0391-2.2539 5.0391-5.0391 0-2.7852-2.2539-5.0391-5.0391-5.0391h-8.1523c-2.7812 0-5.0391 2.2539-5.0391 5.0391 0 2.7852 2.2539 5.0391 5.0391 5.0391z"/>
  <path d="m418.29 384.36c0 2.7852 2.2539 5.0391 5.0391 5.0391h8.1523c2.7812 0 5.0391-2.2539 5.0391-5.0391s-2.2539-5.0391-5.0391-5.0391h-8.1523c-2.7812 0-5.0391 2.2539-5.0391 5.0391z"/>
  <path d="m346.74 386.41h8.1484c2.7812 0 5.0391-2.2539 5.0391-5.0391 0-2.7852-2.2539-5.0391-5.0391-5.0391h-8.1484c-2.7812 0-5.0391 2.2539-5.0391 5.0391 0.003906 2.7852 2.2578 5.0391 5.0391 5.0391z"/>
  <path d="m412.25 341.46h8.1523c2.7812 0 5.0391-2.2539 5.0391-5.0391 0-2.7852-2.2539-5.0391-5.0391-5.0391h-8.1523c-2.7812 0-5.0391 2.2539-5.0391 5.0391 0 2.7852 2.2578 5.0391 5.0391 5.0391z"/>
 </g>
</svg>