<?xml version="1.0" encoding="UTF-8"?>
<!-- The Best Svg Icon site in the world: iconSvg.co, Visit us! https://iconsvg.co -->
<svg fill="#000000" width="800px" height="800px" version="1.1" viewBox="144 144 512 512" xmlns="http://www.w3.org/2000/svg">
 <path d="m374.64 601.73h47.246c20.707 0 41.203-5.0938 59.398-14.688 4.207 4.3008 9.3047 7.8555 15.211 10.398 5.9102 2.543 12.391 4.0391 19.062 4.0391 17.871 0 37.086-10.742 50.078-40.93 6.3867-14.848 8.4375-31.93 5.6289-46.879-2.9688-15.758-10.867-27.297-22.254-32.789 0.10156-2.0625 0.19141-4.1211 0.19141-6.207v-36.477h0.34766c10.832 0 19.645-8.8125 19.645-19.645v-2.5078c0-10.832-8.8125-19.645-19.645-19.645h-0.34766v-47.098c0-83.055-67.711-150.62-150.94-150.62-83.234 0-150.95 67.57-150.95 150.62v47.098h-0.34766c-10.832 0-19.645 8.8164-19.645 19.645v2.5078c0 10.832 8.8125 19.645 19.645 19.645h0.34766v36.477c0.003906 70.059 57.121 127.05 127.32 127.05zm186.73-86.199c2.4492 13.023 0.63672 27.98-4.9844 41.031-12.664 29.418-33.559 41.242-55.902 31.617-10.133-4.3594-17.109-11.93-20.188-21.902-3.4648-11.227-1.832-25.207 4.7266-40.438 5.5586-12.906 15.371-24.383 26.93-31.488 7.3867-4.5391 14.895-6.8711 21.695-6.8711 3.6016 0 7.0078 0.65625 10.09 1.9805 8.9336 3.8477 15.195 13.102 17.633 26.07zm-22.23-40.859c0 1.0625-0.070313 2.1055-0.10156 3.1641-10.121-1.4453-21.484 1.2461-32.363 7.9336-13.289 8.1719-24.555 21.32-30.91 36.086-7.5156 17.461-9.2812 33.852-5.0938 47.398 1.0625 3.4375 2.5391 6.6562 4.3359 9.6641-16.359 8.3047-34.637 12.73-53.117 12.73h-47.246c-64.648 0-117.24-52.477-117.24-116.98v-36.477h281.73zm-281.74-125.37c0-77.5 63.191-140.55 140.87-140.55 77.676 0 140.86 63.051 140.86 140.55v47.098h-7.0195c-0.96094-33.738-22.41-56.262-42.527-56.262-0.17578 0-0.34766 0.035156-0.51953 0.039063-1.9844-32.254-22.844-53.586-42.422-53.586-22.168 0-41.715 24.676-43.645 53.871-1.375-0.20703-2.7461-0.32422-4.1094-0.32422-0.44922 0-0.89062 0.074219-1.3398 0.097656-1.9648-32.285-22.832-53.645-42.426-53.645-22.141 0-41.672 24.617-43.641 53.766-1.0547-0.12109-2.1016-0.22266-3.1484-0.22266-22.766 0-42.754 26.035-43.742 56.262h-7.1953l0.003907-47.094zm83.395 47.098h-66.117c0.97656-24.051 16.859-46.184 33.664-46.184 16.508 0 31.543 21.727 32.453 46.184zm10.074 0c-0.75-26.391-14.027-45.871-29.422-53.117 0.80469-24.219 16.773-46.613 33.684-46.613 16.398 0 31.348 21.445 32.434 45.699-17.715 6.8398-31.594 28.969-32.414 54.027zm48.027-46.184c16.504 0 31.543 21.73 32.457 46.184h-66.129c0.98047-24.059 16.859-46.184 33.672-46.184zm42.527 46.184c-0.73438-25.844-13.48-45.066-28.469-52.656 0.61328-24.395 16.688-47.074 33.703-47.074 16.332 0 31.227 21.27 32.426 45.41-18.098 6.4688-32.391 28.879-33.227 54.324zm48.172-46.184c16.504 0 31.543 21.73 32.457 46.184h-66.121c0.97656-24.059 16.852-46.184 33.664-46.184zm-252.19 68.336v-2.5078c0-5.2734 4.293-9.5664 9.5664-9.5664h302.58c5.2734 0 9.5664 4.293 9.5664 9.5664v2.5078c0 5.2734-4.293 9.5664-9.5664 9.5664h-302.58c-5.2773 0-9.5703-4.2969-9.5703-9.5664z"/>
</svg>