<?xml version="1.0" encoding="UTF-8"?>
<!-- The Best Svg Icon site in the world: iconSvg.co, Visit us! https://iconsvg.co -->
<svg fill="#000000" width="800px" height="800px" version="1.1" viewBox="144 144 512 512" xmlns="http://www.w3.org/2000/svg">
 <path d="m596.48 591.45h-196.53c-8.8164-56.926-10.473-112.42-9-159.93 8.6484 2.8359 26.852 7.8945 46.719 7.8945 14.965 0 30.867-2.875 44.309-11.734 37.418-24.66 39.715-85.098 39.793-87.656 0.066406-2.1289-1.2109-4.0703-3.1914-4.8477-2.3828-0.94141-58.832-22.672-96.242 1.9961-13.141 8.6602-21.938 21.73-27.84 35.16 3.2617-36.727 7.6289-63.609 9.6953-75.16 10.355 4.5312 32.438 12.809 55.637 12.809 11.57 0 23.418-2.0547 34.223-7.6641 39.77-20.652 48.316-80.52 48.66-83.059 0.28906-2.1094-0.78125-4.1719-2.6719-5.1523-2.2773-1.1797-56.156-28.633-95.93-7.9883-39.188 20.344-48.051 78.719-48.633 82.867-0.1875 0.92578-1.9961 10.031-4.3125 25.574-5.0938-18.996-15.043-41.469-34.488-54.285-37.418-24.664-93.859-2.9258-96.242-1.9922-1.9805 0.77734-3.2578 2.7148-3.1914 4.8477 0.078125 2.5586 2.375 62.992 39.793 87.656 13.441 8.8594 29.34 11.73 44.301 11.73 18.426 0 35.43-4.3516 44.699-7.2461-5.9961 57.223-10.227 144.8 3.7266 236.18h-186.25c-2.7812 0-5.0391 2.2539-5.0391 5.0391s2.2539 5.0391 5.0391 5.0391h392.97c2.7812 0 5.0391-2.2539 5.0391-5.0391s-2.2578-5.0391-5.0391-5.0391zm-168.6-245.86c28.176-18.566 71.195-6.3672 83.578-2.2422-1.0977 13.004-6.8555 57.359-35.027 75.922-28.176 18.562-71.199 6.3672-83.578 2.2422 1.0977-13.004 6.8516-57.359 35.027-75.922zm-125.3-3.2148c-28.176-18.574-33.93-62.934-35.027-75.926 12.367-4.1289 55.348-16.363 83.578 2.2422 28.176 18.562 33.93 62.918 35.027 75.922-12.383 4.1172-55.41 16.324-83.578-2.2383zm146.18-127.31c29.934-15.559 71.469 1.043 83.355 6.4297-2.4375 12.816-12.758 56.336-42.703 71.883-29.941 15.562-71.469-1.0469-83.359-6.4297 2.4375-12.824 12.758-56.34 42.707-71.883z"/>
</svg>