<?xml version="1.0" encoding="UTF-8"?>
<!-- The Best Svg Icon site in the world: iconSvg.co, Visit us! https://iconsvg.co -->
<svg fill="#000000" width="800px" height="800px" version="1.1" viewBox="144 144 512 512" xmlns="http://www.w3.org/2000/svg">
 <g>
  <path d="m338.06 279.86c-12.496 14.035-18.461 32.332-16.371 50.254l33.012 267.11c2.5469 21.836 22.434 38.941 45.285 38.941 23.129 0 43.984-17.469 46.488-38.922l31.816-267.18v-0.003906c2.0547-18.5-3.8828-36.996-16.324-50.844-7.4219-8.3945-16.957-14.645-27.617-18.105l30.906-38.629c3.7969-4.7969 5.7891-10.781 5.6211-16.898-0.16797-6.1172-2.4844-11.98-6.5391-16.562l-0.64453-0.71094c-4.4844-5.0977-11.047-7.8711-17.828-7.5352-6.8984 0.44141-13.219 4-17.172 9.6719l-5.082 7.2383v-9.0234c0-13.688-10.594-24.828-23.613-24.828s-23.617 11.137-23.617 24.828v9.0234l-5.1328-7.3008c-3.9492-5.6367-10.25-9.1719-17.121-9.6055-6.7734-0.33203-13.328 2.4336-17.812 7.5195l-0.67969 0.75c-4.0469 4.582-6.3555 10.441-6.5195 16.555-0.16406 6.1094 1.8242 12.086 5.6172 16.879l31.125 38.902c-10.723 3.6211-20.305 9.9922-27.797 18.477zm8.9531-67.223h0.003906c-2.9609-3.8828-2.8359-9.3008 0.30078-13.043l0.67578-0.74609v0.003907c1.3047-1.5508 3.2461-2.418 5.2695-2.3555 2.0859 0.16406 3.9844 1.2734 5.1523 3.0078l19.395 27.59v0.003906c1.9727 2.8086 5.543 4.0156 8.8164 2.9805 3.2734-1.0352 5.5-4.0742 5.4961-7.5078v-33.91c0-4.8398 3.6797-9.082 7.8711-9.082 4.1953 0 7.8711 4.2422 7.8711 9.082l0.003906 33.91c0 3.4336 2.2227 6.4688 5.4961 7.5039 3.2734 1.0352 6.8398-0.17188 8.8164-2.9805l19.34-27.52c1.1719-1.7695 3.0898-2.9062 5.2031-3.0781 2.0312-0.0625 3.9805 0.8125 5.2852 2.3711l0.63672 0.70312c3.1562 3.7461 3.2852 9.1797 0.31641 13.07l-36.523 45.656s-32.527 0.023438-32.867 0.027344zm37.566 61.406h32.023c12.695 0 24.625 5.5547 33.605 15.645 9.4492 10.484 13.977 24.5 12.449 38.531l-5.7383 48.16h-56.922c-4.3477 0-7.875 3.5234-7.875 7.8711s3.5273 7.8711 7.875 7.8711h55.051l-11.25 94.465h-43.801c-4.3477 0-7.875 3.5234-7.875 7.8711 0 4.3477 3.5273 7.875 7.875 7.875h41.926l-11.082 93.059c-1.582 13.562-15.711 25.02-30.852 25.02-14.738 0-28.035-11.223-29.652-25.074l-4.6836-37.902h42.215c4.3477 0 7.8711-3.5234 7.8711-7.8711s-3.5234-7.8711-7.8711-7.8711h-44.164l-11.676-94.465h55.84c4.3477 0 7.8711-3.5234 7.8711-7.8711s-3.5234-7.8711-7.8711-7.8711h-57.785l-11.676-94.465h53.715c4.3477 0 7.875-3.5273 7.875-7.875 0-4.3477-3.5273-7.8711-7.875-7.8711h-55.055c0.53906-11.48 5.0469-22.422 12.754-30.949 9.2109-10.348 21.879-16.281 34.758-16.281z"/>
  <path d="m431.49 329.15c0 4.3477-3.5273 7.875-7.875 7.875-4.3477 0-7.8711-3.5273-7.8711-7.875 0-4.3477 3.5234-7.8711 7.8711-7.8711 4.3477 0 7.875 3.5234 7.875 7.8711"/>
 </g>
</svg>