<?xml version="1.0" encoding="UTF-8"?>
<!-- The Best Svg Icon site in the world: iconSvg.co, Visit us! https://iconsvg.co -->
<svg fill="#000000" width="800px" height="800px" version="1.1" viewBox="144 144 512 512" xmlns="http://www.w3.org/2000/svg">
 <path d="m628.29 266.18h-133.83v-66.914c0-12.656-6.75-24.352-17.711-30.68s-24.465-6.3281-35.422 0c-10.961 6.3281-17.715 18.023-17.715 30.68v3.9375h-15.742v-3.9375c-0.011719-9.3906-3.7461-18.395-10.387-25.035-6.6406-6.6445-15.645-10.379-25.039-10.391-5.4766 0.039062-10.867 1.3594-15.742 3.8594-4.875-2.5-10.266-3.8203-15.746-3.8594-9.3906 0.011718-18.395 3.7461-25.035 10.391-6.6406 6.6406-10.379 15.645-10.387 25.035v71.523l-21.309 21.309 11.133 11.133 10.176-10.176v17.098l-21.309 21.309 11.133 11.133 10.176-10.18v43.973c0.011719 10.434 4.1641 20.438 11.543 27.816 7.3789 7.3789 17.383 11.531 27.816 11.543h17.586l-10.668 17.781v0.003906c-9.6055-3.2969-20.152-2.4648-29.125 2.2969-8.9727 4.7656-15.57 13.031-18.223 22.836l-37.41 137.35c-1.6094 6.0469-0.91016 12.477 1.9688 18.035 2.8789 5.5586 7.7266 9.8398 13.594 12.012 2.6992 0.98438 5.5508 1.4844 8.4258 1.4805 4.7891 0.003907 9.4805-1.3594 13.523-3.9258 4.043-2.5703 7.2734-6.2383 9.3047-10.574l51.867-112.44 9.3594 112.65c0.70312 8.4062 5.5977 15.887 13.012 19.898 7.418 4.0117 16.359 4.0117 23.777 0 7.418-4.0117 12.309-11.492 13.012-19.898l9.4453-113.55 52.277 113.36v0.003907c2.0391 4.3242 5.2656 7.9766 9.3008 10.535 4.0391 2.5547 8.7188 3.9141 13.496 3.9102 2.875 0.003906 5.7266-0.49609 8.4258-1.4805 5.8633-2.168 10.711-6.4414 13.594-11.992 2.8828-5.5469 3.5898-11.973 1.9922-18.016l-37.391-137.35c-2.6836-9.8789-9.3594-18.191-18.426-22.941-9.0664-4.75-19.703-5.5078-29.352-2.0898l-10.746-17.887h190.77c2.0859 0 4.0898-0.82813 5.5664-2.3047 1.4727-1.4766 2.3047-3.4805 2.3047-5.5664v-133.82c0-2.0898-0.83203-4.0898-2.3047-5.5664-1.4766-1.4766-3.4805-2.3047-5.5664-2.3047zm-188.93-66.914c0-7.0312 3.75-13.527 9.8398-17.043 6.0898-3.5156 13.59-3.5156 19.68 0s9.8398 10.012 9.8398 17.043v41.438l-10.043-20.098c-2.6016-5.2422-6.6211-9.6484-11.598-12.727-4.9766-3.0742-10.719-4.6953-16.57-4.6758h-1.1484zm-47.23 0-0.003906 3.9375h-15.742v-3.9375c-0.003906-6.9336-2.0508-13.711-5.8867-19.484 0.65234-0.0625 1.2812-0.19531 1.9531-0.19531h-0.003907c5.2188 0 10.227 2.0742 13.918 5.7656 3.6914 3.6875 5.7617 8.6953 5.7617 13.914zm-39.363 11.809v-11.809c0.015625-4.2188 1.3945-8.3203 3.9375-11.691 2.5391 3.3711 3.9219 7.4727 3.9336 11.691v3.9375c-4.3477 0-7.8711 3.5234-7.8711 7.8711-0.007813 11.625 4.2891 22.844 12.062 31.488h-12.062zm-11.809-31.488c0.66797 0 1.3008 0.13281 1.9531 0.19531-3.8359 5.7734-5.8867 12.551-5.8867 19.484v44.082c-5.7305 1.2148-11.109 3.7031-15.746 7.2812v-51.363c0-5.2188 2.0742-10.227 5.7656-13.914 3.6914-3.6914 8.6953-5.7656 13.914-5.7656zm-19.68 196.8v-43.973l10.18 10.18 11.133-11.133-21.312-21.309v-17.098l10.18 10.18 11.133-11.133-19.422-19.422c1.8125-4.2617 4.8398-7.8984 8.7031-10.453 3.8633-2.5547 8.3906-3.918 13.023-3.9219h70.848c2.0898 0 4.0898 0.83203 5.5664 2.3086 1.4766 1.4766 2.3047 3.4766 2.3047 5.5664v15.742h-62.977v15.742h62.977v23.617h-62.977v15.742h62.977v23.617h-62.977v15.742h62.977v15.746c0 2.0898-0.82812 4.0898-2.3047 5.5664-1.4766 1.4766-3.4766 2.3086-5.5664 2.3086h-70.848c-6.2617 0-12.27-2.4883-16.699-6.918-4.4297-4.4297-6.918-10.438-6.918-16.699zm70.848 39.359v16.625c-7.3906 1.6133-14.105 5.4609-19.238 11.023-1.0156 1.1875-1.9492 2.4414-2.793 3.7539-1.4062-1.9883-3.0039-3.8359-4.7734-5.5117l15.52-25.891zm-32.953 61.441-10.234 22.215-10.445-3.8008-5.4062 14.781 9.2266 3.3633-26.473 57.387-11.684-4.2422-5.3828 14.793 10.453 3.8086-9.6758 20.953c-1.957 4.4531-7.0352 6.6211-11.605 4.9609-4.5742-1.6641-7.0703-6.5859-5.7109-11.258l18.523-68.016 14.168 5.1484 5.3906-14.785-15.391-5.6055 14.738-54.09v0.003906c1.5586-5.6836 5.4219-10.457 10.66-13.164 5.2344-2.7109 11.363-3.1016 16.902-1.0859 5.5391 2.0156 9.9844 6.2578 12.254 11.695 2.2695 5.4414 2.1641 11.582-0.29688 16.938zm40.828 143.23c-4.7969-0.023437-8.7812-3.6953-9.2031-8.4688l-3.8906-46.633h13.094v-15.746h-14.406l-4.5898-55.105h18.996v-15.742h-20.312l-0.71484-8.6602c-0.48438-5.875 1.5156-11.684 5.5078-16.02 3.9961-4.3359 9.6211-6.8047 15.52-6.8047 5.8945 0 11.52 2.4688 15.516 6.8047 3.9922 4.3359 5.9922 10.145 5.5078 16.02l-3.9961 48.02h-17.027v15.742h15.742l-6.5195 78.121v0.003906c-0.42188 4.7852-4.4219 8.457-9.2227 8.4688zm70.18-170.82-0.003907 0.003906c5.2617 2.6914 9.1289 7.4844 10.652 13.191l23.082 84.586-12.926 4.7227 5.3906 14.793 11.684-4.25 10.234 37.527v-0.003906c1.293 4.6484-1.2109 9.5117-5.7461 11.16-4.5352 1.6523-9.5781-0.46875-11.574-4.8633l-29.527-64.016 14.168-5.1484-5.375-14.785-15.391 5.5898-13.289-28.707 17.848-6.4961-5.3828-14.793-19.082 6.9414-3.6289-7.8711v0.003906c-2.4727-5.3594-2.5898-11.508-0.32031-16.953 2.2695-5.4492 6.7148-9.6953 12.262-11.715 2.3242-0.84375 4.7773-1.2773 7.25-1.2773 3.3672 0 6.6836 0.8125 9.6719 2.3633zm-35.32-7.6992-0.003906 0.003906c-1.75 1.6758-3.332 3.5234-4.7227 5.5078-0.91016-1.418-1.9219-2.7734-3.0234-4.0508-5.1367-5.5469-11.852-9.3789-19.238-10.984v-16.625h11.289zm185.55-41.891h-182.5c0.93359-2.5234 1.4219-5.1875 1.4492-7.875v-125.95c-0.023437-6.8672-3.0547-13.383-8.2891-17.824-0.89453-3.3906-3.9492-5.7656-7.457-5.793h-23.613c-6.9805-0.007813-13.762-2.332-19.277-6.6055-5.5195-4.2734-9.4648-10.258-11.219-17.012h71.004c2.9258-0.007812 5.793 0.80078 8.2852 2.3398 2.4883 1.5352 4.4961 3.7383 5.7969 6.3594l24.129 48.262v26.371l-21.309 21.309 11.133 11.133 10.176-10.176v17.098l-21.309 21.309 11.133 11.133 10.176-10.18v20.355h15.742v-20.355l10.18 10.18 11.133-11.133-21.312-21.309v-17.098l10.18 10.18 11.133-11.133-21.312-21.312v-20.355h125.95z"/>
</svg>