<?xml version="1.0" encoding="UTF-8"?>
<!-- The Best Svg Icon site in the world: iconSvg.co, Visit us! https://iconsvg.co -->
<svg fill="#000000" width="800px" height="800px" version="1.1" viewBox="144 144 512 512" xmlns="http://www.w3.org/2000/svg">
 <g>
  <path d="m628.29 407.87h-77.305c3.6406-15.504 5.8047-31.32 6.4531-47.234 0.003906-5.8789-0.66797-11.738-2.0078-17.465-5.1992-22.379-19.879-41.383-40.215-52.066 11.926-6.832 21.918-16.582 29.039-28.34 18.941-32.738 5.5117-74.902 4.9219-76.68h-0.003906c-1.2461-3.8203-5.168-6.0859-9.0977-5.2617-11.836 2.8281-23.188 7.3867-33.684 13.535-6.0234-10.574-13.582-20.199-22.43-28.555-2.9844-2.6641-7.5-2.6641-10.484 0-8.8477 8.3555-16.406 17.98-22.43 28.555-10.496-6.1484-21.848-10.707-33.684-13.535-3.9297-0.82422-7.8516 1.4414-9.0977 5.2617-0.58203 1.7773-14.02 43.941 4.9141 76.672h-0.003907c7.082 11.672 17 21.371 28.828 28.191-18.793 9.9414-32.762 27.07-38.723 47.48-16.781-14.352-38.848-20.938-60.75-18.129 5.7812-12.371 8.3438-26.004 7.457-39.633-3.2656-37.684-38.453-64.512-39.957-65.637h-0.003906c-3.2109-2.4141-7.7227-2.0195-10.469 0.91016-8.0625 9.1094-14.742 19.355-19.82 30.41-11-5.207-22.715-8.7539-34.754-10.523-3.9766-0.47266-7.6719 2.1172-8.5898 6.0117-2.457 11.906-3.1367 24.109-2.0156 36.215-12.133 0.94141-24.051 3.7344-35.336 8.2812-3.6992 1.5742-5.6133 5.6797-4.4492 9.5234 0.55078 1.7852 13.73 44.035 48.02 59.984 10.375 4.6602 21.648 6.9922 33.023 6.8242 2.2812 0 4.5234-0.074219 6.7227-0.22656-7.1797 13.992-9.9922 29.82-8.0781 45.43h-102.57c-4.3477 0-7.875 3.5234-7.875 7.8711v212.55c0 2.0859 0.83203 4.0898 2.3086 5.5664 1.4766 1.4727 3.4766 2.3047 5.5664 2.3047h456.58c2.0859 0 4.0898-0.83203 5.5664-2.3047 1.4727-1.4766 2.3047-3.4805 2.3047-5.5664v-212.55c0-2.0859-0.83203-4.0898-2.3047-5.5664-1.4766-1.4766-3.4805-2.3047-5.5664-2.3047zm-97.664-152.95c-6.5898 10.566-15.949 19.125-27.062 24.75 8.9727-13.332 14.004-28.922 14.516-44.98-0.09375-8.8477-1.7773-17.609-4.9648-25.859 7.2266-4.3633 14.922-7.8945 22.945-10.527 2.5898 12.18 5.8086 37.172-5.4336 56.617zm-51.906-71.984c7.1094 7.7695 13.008 16.566 17.5 26.09 3.8789 8.0078 5.9648 16.766 6.1172 25.664-1.1797 17.59-8.1875 34.289-19.918 47.449-2.4961-0.10938-4.9375-0.10938-7.4062 0-11.723-13.164-18.727-29.859-19.91-47.449 0.15234-8.8984 2.2383-17.656 6.1172-25.664v-0.046876c4.5-9.5078 10.398-18.285 17.5-26.043zm-51.957 71.973c-11.242-19.438-8.0156-44.43-5.4219-56.609v0.003906c8.0234 2.5859 15.727 6.0781 22.961 10.406-3.1953 8.293-4.8711 17.094-4.9414 25.98 0.51172 16.047 5.5195 31.633 14.461 44.973-11.094-5.6367-20.434-14.195-27.016-24.75zm36.336 44.664 0.003906 0.003907c2.9961-0.74219 6.043-1.2695 9.1133-1.5742 4.3203-0.42578 8.6719-0.42578 12.992 0 11.391 1.0859 22.258 5.3047 31.398 12.195 9.1367 6.8867 16.188 16.172 20.367 26.828h-26.766c-4.3477 0-7.8711 3.5234-7.8711 7.8711 0 2.0859 0.82812 4.0898 2.3047 5.5664 1.4766 1.4766 3.4766 2.3047 5.5664 2.3047h30.938c0.35156 2.6094 0.53516 5.2383 0.55078 7.8711-0.74609 15.93-3.0312 31.746-6.8242 47.234h-91.215c-7.0352-19.289-16.129-37.766-27.125-55.105l-0.085938-0.10938h-0.003906c1.5547-12.516 6.8359-24.273 15.168-33.738 8.3281-9.4688 19.316-16.211 31.531-19.344zm-156.82-67.027c9.1016 8.4844 26.078 27.102 28.016 49.492 0.66406 12.43-2.0898 24.805-7.9648 35.781-0.30078-16.066-5.125-31.719-13.918-45.164-5.1484-7.1914-11.551-13.398-18.895-18.324 3.4141-7.7227 7.6953-15.031 12.762-21.785zm-55.781 20.293v0.003906c10.277 2.293 20.152 6.1172 29.293 11.344 7.7734 4.3242 14.504 10.297 19.727 17.5 9.1289 15.086 12.965 32.785 10.91 50.301-1.0781 0.67578-2.1562 1.2578-3.2656 2.0312-0.99219 0.71484-1.8828 1.4805-2.832 2.2109h-0.003907c-17.145-4.0625-32.449-13.715-43.5-27.441-4.9688-7.3711-8.2812-15.73-9.707-24.504v-0.046875c-1.7734-10.375-1.9844-20.957-0.62109-31.395zm-1.2422 88.738c-20.363-9.4453-32.062-31.789-36.918-43.25h-0.003906c8.0391-2.4727 16.332-4.0156 24.719-4.5977 2.1484 8.6289 5.8281 16.801 10.863 24.129 9.6289 12.848 22.672 22.738 37.645 28.543-12.316 1.7305-24.871 0.0625-36.305-4.8242zm55.348 15.742c2.0703-2.3477 4.2969-4.5508 6.668-6.5977 1.6211-1.418 3.3125-2.6836 4.9766-3.8711h-0.003907c1.8008-1.25 3.6641-2.4062 5.582-3.4648 9.9727-5.5977 21.289-8.3555 32.719-7.9688 11.43 0.38281 22.535 3.8984 32.109 10.156l-21.988 15.398c-1.7109 1.1992-2.875 3.0234-3.2383 5.082-0.36328 2.0547 0.10547 4.1719 1.3008 5.8828 1.1992 1.7109 3.0273 2.875 5.0859 3.2383 2.0547 0.35938 4.1719-0.10938 5.8828-1.3086l25.387-17.773c0.98438 1.0781 1.9609 2.1719 2.8594 3.3281 0.61328 0.78906 1.1797 1.5742 2.0938 2.8828h-0.003906c9.0664 14.402 16.68 29.668 22.734 45.57h-136.54c-2.8477-18.133 2.4102-36.605 14.375-50.523zm315.82 66.297v55.105h-440.83v-55.105zm0 70.848v55.105h-440.83v-55.105zm-440.83 125.95v-55.102h440.83v55.105z"/>
  <path d="m242.56 451.17c0 6.5195-5.2891 11.809-11.809 11.809s-11.809-5.2891-11.809-11.809c0-6.5234 5.2891-11.809 11.809-11.809s11.809 5.2852 11.809 11.809"/>
  <path d="m242.56 522.02c0 6.5195-5.2891 11.809-11.809 11.809s-11.809-5.2891-11.809-11.809c0-6.5234 5.2891-11.809 11.809-11.809s11.809 5.2852 11.809 11.809"/>
  <path d="m242.56 592.86c0 6.5195-5.2891 11.809-11.809 11.809s-11.809-5.2891-11.809-11.809c0-6.5234 5.2891-11.809 11.809-11.809s11.809 5.2852 11.809 11.809"/>
  <path d="m581.05 451.17c0 6.5195-5.2852 11.809-11.809 11.809-6.5195 0-11.809-5.2891-11.809-11.809 0-6.5234 5.2891-11.809 11.809-11.809 6.5234 0 11.809 5.2852 11.809 11.809"/>
  <path d="m581.05 522.02c0 6.5195-5.2852 11.809-11.809 11.809-6.5195 0-11.809-5.2891-11.809-11.809 0-6.5234 5.2891-11.809 11.809-11.809 6.5234 0 11.809 5.2852 11.809 11.809"/>
  <path d="m581.05 592.86c0 6.5195-5.2852 11.809-11.809 11.809-6.5195 0-11.809-5.2891-11.809-11.809 0-6.5234 5.2891-11.809 11.809-11.809 6.5234 0 11.809 5.2852 11.809 11.809"/>
  <path d="m478.72 337.02c4.3477 0 7.8711 4.3477 7.8711 7.8711 0 4.3477-3.5234 7.8711-7.8711 7.8711s-7.8711-4.3477-7.8711-7.8711c0-4.3477 3.5234-7.8711 7.8711-7.8711z"/>
  <path d="m338.87 379.05c3.5625-2.4922 8.9414-0.94922 10.961 1.9375 2.4922 3.5625 1.625 8.4688-1.9375 10.961s-8.9414 0.94922-10.961-1.9375c-2.4922-3.5625-1.625-8.4688 1.9375-10.961z"/>
 </g>
</svg>