<?xml version="1.0" encoding="UTF-8"?>
<!-- The Best Svg Icon site in the world: iconSvg.co, Visit us! https://iconsvg.co -->
<svg fill="#000000" width="800px" height="800px" version="1.1" viewBox="144 144 512 512" xmlns="http://www.w3.org/2000/svg">
 <g>
  <path d="m490.08 309.77-90.078-60.91-90.082 60.91-61.062 90.234h18.188l54.512-78.695 78.445-54.262 78.441 54.262 54.512 78.695h18.188z"/>
  <path d="m432.19 425.29h-64.387l32.195 44.285z"/>
  <path d="m367.86 530.99h64.285l-32.141-44.234z"/>
  <path d="m440.3 525.09v-93.859l-34.109 46.957z"/>
  <path d="m359.7 431.29v93.758l34.055-46.852z"/>
  <path d="m425.19 365.89c0.054688-0.82031 0.054688-1.6484 0-2.4688v-10.883c0-9-4.8008-17.316-12.594-21.816s-17.398-4.5-25.191 0c-7.793 4.5-12.594 12.816-12.594 21.816v10.883c-0.050782 0.82031-0.050782 1.6484 0 2.4688z"/>
  <path d="m546.1 541.07h-19.043v-131.9l-55.871-80.609-71.188-49.473-71.191 49.473-55.871 80.609v131.9h-19.043c-2.7852 0-5.0391 2.2539-5.0391 5.0352 0 2.7852 2.2539 5.0391 5.0391 5.0391h292.21c2.7852 0 5.0391-2.2539 5.0391-5.0391 0-2.7812-2.2539-5.0352-5.0391-5.0352zm-181.37-188.53c0-12.598 6.7227-24.242 17.633-30.543 10.914-6.2969 24.355-6.2969 35.27 0 10.91 6.3008 17.633 17.945 17.633 30.543v10.883c0.078125 1.1758 0.078125 2.3516 0 3.5273l-0.95703 9.0195h-68.418l-1.1602-9.0195c-0.074219-1.1758-0.074219-2.3516 0-3.5273zm85.648 188.53h-100.76v-125.95h100.76z"/>
 </g>
</svg>