<?xml version="1.0" encoding="UTF-8"?>
<!-- The Best Svg Icon site in the world: iconSvg.co, Visit us! https://iconsvg.co -->
<svg fill="#000000" width="800px" height="800px" version="1.1" viewBox="144 144 512 512" xmlns="http://www.w3.org/2000/svg">
 <g>
  <path d="m601.52 379.85c-14.484 0-19.68 2.0469-22.355 3.6211-3.7617 2.0312-10.484 7.668-15.98 14.562v-20.355c2.9766 1.543 6.7227 2.1719 11.098 2.1719 10.234 0 22.199-3.3047 28.023-6.6133 8.8164-4.8789 19.051-24.402 22.984-32.59l5.0391-10.234-11.336-1.1016s-8.5-0.78906-17.477-0.78906c-14.484 0-19.68 2.0469-22.355 3.6211-3.7617 2.0312-10.484 7.668-15.98 14.562v-4.5508c10.66-7.6055 15.664-29.078 15.664-36.621 0-10.078-11.965-28.496-17.16-35.895l-6.4531-9.4453-6.4531 9.4453c-5.1953 7.3984-17.16 25.82-17.16 35.895 0 7.5586 5.0391 29.125 15.742 36.684 0.015625 0.015625 0.046875 0.015625 0.078125 0.046875v4.457c-0.015625-0.03125-0.046875-0.046875-0.078125-0.09375-4.8789-5.9844-11.18-11.965-16.059-14.484-2.6758-1.5742-7.8711-3.6211-22.355-3.6211-8.9727 0-17.477 0.78906-17.477 0.78906l-11.336 1.1016 5.0391 10.234c3.9375 8.1875 14.168 27.711 22.984 32.59 5.8242 3.3047 17.789 6.6133 28.023 6.6133 4.4102 0 8.1875-0.62891 11.18-2.2031 0.03125-0.015625 0.046875-0.03125 0.078125-0.046875v20.453c-0.015625-0.03125-0.046875-0.046875-0.078125-0.09375-4.8789-5.9844-11.18-11.965-16.059-14.484-2.6758-1.5742-7.8711-3.6211-22.355-3.6211-8.9727 0-17.477 0.78906-17.477 0.78906l-11.336 1.1016 5.0391 10.234c3.9375 8.1875 14.168 27.551 22.984 32.59 5.668 3.3047 17.789 6.6133 28.023 6.6133 4.4102 0 8.1875-0.62891 11.18-2.2031 0.03125-0.015624 0.046875-0.03125 0.078125-0.046874v14.219l-0.078125-0.011719v4.0938c0 1.418 0.31641 2.6758 0.94531 3.7773h-205.93c3.1484 2.5195 6.1406 5.1953 9.1328 7.8711h0.078126c3.4648 2.9922 6.9258 6.1406 10.234 9.4453 6.2969 6.1406 12.281 12.281 17.789 18.734 0.78906-0.31641 1.5742-0.47266 2.5195-0.47266l228.21 0.003906h7.9492v-35.582h-56.047c0.62891-1.1016 0.94531-2.3633 0.94531-3.7773v-18.246c2.9766 1.543 6.7227 2.1719 11.098 2.1719 10.234 0 22.355-3.3047 28.023-6.6133 8.8164-5.0391 19.051-24.402 22.984-32.59l5.0391-10.234-11.336-1.1016c0.003906 0.015624-8.5-0.76953-17.473-0.76953z"/>
  <path d="m271.84 326.47-10.547 94.465h105.09l-10.547-94.465h42.035v-52.426h-44.48c-3.4648 9.918-15.902 17.633-31.645 19.523v-19.523c0-0.31641 0-0.62891-0.15625-0.94531 13.699-3.4648 23.773-15.742 23.773-30.543 0-0.94531 0-1.8906-0.15625-2.6758h-62.504c-0.31641 0.78516-0.31641 1.7305-0.31641 2.6758 0 14.801 10.078 27.078 23.773 30.543-0.15625 0.31641-0.15625 0.62891-0.15625 0.94531v19.512c-15.871-1.9102-28.277-9.6094-31.727-19.512h-44.477v52.426z"/>
  <path d="m276.09 232.01h79.742v-7.2422c0-7.5586-6.1406-13.699-13.699-13.699l-0.078125 0.003906h-7.1641l-10.547-31.488h-21.02l-10.547 31.488h-7.2422c-7.5586 0-13.695 6.1406-13.695 13.695v7.2422z"/>
  <path d="m439.91 344.89c1.8906 0 3.9375-0.78906 5.5117-2.3633 3.1484-2.9922 3.1484-8.0312 0-11.02l-28.652-28.652h23.145c4.25 0 7.8711-3.4648 7.8711-7.8711 0-4.25-3.6211-7.8711-7.8711-7.8711h-13.699l28.184-16.848c3.7773-2.2031 4.8789-7.0859 2.6758-10.707-2.2031-3.7773-7.0859-5.0391-10.707-2.832l-40.621 24.246v33.062l28.496 28.496c1.5742 1.5703 3.6211 2.3594 5.668 2.3594z"/>
  <path d="m188 287.11c-4.4102 0-7.8711 3.6211-7.8711 7.8711 0 4.4102 3.4648 7.8711 7.8711 7.8711h22.984l-28.652 28.652c-2.9922 2.9922-2.9922 8.0312 0 11.02 1.5742 1.5742 3.6211 2.3633 5.668 2.3633 1.8906 0 3.9375-0.78906 5.5117-2.3633l28.496-28.34v-33.215l-40.461-24.246c-3.7773-2.2031-8.6602-0.94531-10.863 2.832-2.2031 3.6211-0.94531 8.5 2.6758 10.707l28.184 16.848z"/>
  <path d="m610.34 502.34h-218.13c8.1875 10.234 15.273 20.781 21.41 31.488h204.67v-31.488z"/>
  <path d="m610.34 549.57h-188.54c5.3516 10.547 9.2891 21.254 12.281 31.488h184.2v-31.488z"/>
  <path d="m610.34 596.8h-172.79c0.94531 5.3516 1.5742 10.547 1.7305 15.742h-0.074219c0.31641 2.6758 0.31641 5.1953 0.15625 7.8711h178.93v-23.617l-0.078124 0.003906z"/>
  <path d="m185.33 529.26c-2.5195-3.7773-5.0391-7.7148-7.8711-11.336v0.10938c-0.03125-0.03125-0.046875-0.078125-0.078125-0.10938v102.49h39.438v-0.31641c0.15625-2.3633 0-4.8789-0.15625-7.5586-1.2617-24.715-12.438-54.469-31.332-83.281z"/>
  <path d="m217.61 479.66c-6.7695-6.6133-13.855-12.754-20.941-18.578-0.78906-0.62891-1.418-1.418-1.8906-2.2031-1.2578-2.0938-4.0938-4.7695-3.6836-6.9922 0.046875-0.28516-0.03125-0.59766 0.14062-0.88281h-13.852v43.77c2.2031 0 4.5664 3.1484 6.1406 5.1953 0.62891 0.78906 1.1016 1.418 1.7305 2.2031v-0.09375c0.03125 0.03125 0.046875 0.0625 0.078125 0.09375 28.969 37.156 45.656 76.832 47.074 110.37h-0.078125c0.15625 2.6758 0.31641 5.3516 0.15625 7.8711h57.859v-0.31641c0.15625-2.5195 0.15625-5.0391-0.15625-7.5586-1.7305-39.984-29.598-91.152-72.578-132.88z"/>
  <path d="m285.78 479.66c-6.7695-6.6133-13.855-12.754-20.941-18.578-0.78906-0.62891-1.418-1.418-1.8906-2.2031-1.0391-1.7305-3.0391-3.8906-3.418-5.8555-0.125-0.71094-0.074219-1.3867 0.34766-2.0195h-50.695c2.9922 2.5195 6.1406 5.1953 9.1328 7.8711h0.078125c3.4648 2.9922 6.9258 6.1406 10.234 9.4453 46.762 45.184 75.57 99.504 77.305 144.21l-0.082032 0.003907c0.31641 2.6758 0.31641 5.3516 0.15625 7.8711h52.504v-0.31641c0.15625-2.5195 0.15625-4.8789-0.15625-7.5586-1.8867-39.984-29.754-91.152-72.574-132.88z"/>
  <path d="m350.96 479.66c-6.7695-6.6133-13.855-12.754-20.941-18.578-0.78906-0.62891-1.418-1.418-1.8906-2.2031-1.418-2.3633-7.8711-5.5117-6.2969-7.8711v-22.199h-15.742v14.328l-0.078126-0.003906v7.8711h-28.812c3.1484 2.5195 6.1406 5.1953 9.1328 7.8711h0.078125c3.4648 2.9922 6.9258 6.1406 10.234 9.4453 3.1484 3.1484 6.2969 6.2969 9.4453 9.4453 4.0938 4.25 8.0312 8.6602 11.652 13.066 34.164 39.988 54.945 84.23 56.363 121.7l-0.082031 0.003907c0.31641 2.6758 0.31641 5.1953 0.15625 7.8711h49.516v-0.31641c0.15625-2.5195 0.15625-4.8789-0.15625-7.5586-1.8867-39.984-29.754-91.152-72.578-132.88z"/>
 </g>
</svg>