<?xml version="1.0" encoding="UTF-8"?>
<!-- The Best Svg Icon site in the world: iconSvg.co, Visit us! https://iconsvg.co -->
<svg fill="#000000" width="800px" height="800px" version="1.1" viewBox="144 144 512 512" xmlns="http://www.w3.org/2000/svg">
 <g>
  <path d="m596.48 329.84h-8.3047v-126.32c0-2.7812-2.2539-5.0391-5.0391-5.0391h-40.16c-2.7852 0-5.0391 2.2539-5.0391 5.0391v126.32h-39.738c15.406-9.2852 25.766-26.133 25.766-45.391 0-26.762-21.863-76.188-53.023-76.188-31.16 0-53.023 49.426-53.023 76.188 0 19.262 10.359 36.105 25.766 45.391l-87.379 0.003907c15.406-9.2852 25.766-26.133 25.766-45.391 0-26.762-21.863-76.188-53.023-76.188-31.16 0-53.023 49.426-53.023 76.188 0 19.262 10.359 36.105 25.766 45.391h-39.484l0.003906-126.32c0-2.7812-2.2539-5.0391-5.0391-5.0391h-40.16c-2.7852 0-5.0391 2.2539-5.0391 5.0391v126.32l-8.5625 0.003907c-2.7852 0-5.0391 2.2539-5.0391 5.0391v41.863c0 2.7812 2.2539 5.0391 5.0391 5.0391h8.5625v134.29l-8.5625-0.003906c-2.7852 0-5.0391 2.2539-5.0391 5.0391v41.863c0 2.7812 2.2539 5.0391 5.0391 5.0391h8.5625v28.477c0 2.7812 2.2539 5.0391 5.0391 5.0391h40.16c2.7852 0 5.0391-2.2539 5.0391-5.0391v-28.477h275.63v28.477c0 2.7812 2.2539 5.0391 5.0391 5.0391h40.16c2.7852 0 5.0391-2.2539 5.0391-5.0391v-28.477h8.3047c2.7852 0 5.0391-2.2539 5.0391-5.0391v-41.863c0-2.7812-2.2539-5.0391-5.0391-5.0391h-8.3047v-134.29h8.3047c2.7852 0 5.0391-2.2539 5.0391-5.0391v-41.863c0-2.7812-2.2539-5.0352-5.0391-5.0352zm-48.469-121.29h30.086v121.29h-30.086zm-120.02 75.891c0-24.906 20.074-66.113 42.945-66.113 22.875 0 42.945 41.207 42.945 66.113 0 23.68-19.266 42.945-42.945 42.945-23.68 0-42.945-19.266-42.945-42.945zm-141.89 0c0-24.906 20.074-66.113 42.945-66.113 22.875 0 42.945 41.207 42.945 66.113 0 23.68-19.266 42.945-42.945 42.945-23.68 0-42.945-19.266-42.945-42.945zm-63.957-75.891h30.086v121.29h-30.086zm30.086 382.89h-30.086v-23.438h30.086zm325.87 0h-30.086v-23.438h30.086zm13.344-65.301v31.789l-382.89-0.003906v-31.789zm-369.3-10.078v-134.29h30.086v134.29zm301.82-44.207c0-26.762-21.863-76.188-53.023-76.188-31.16 0-53.023 49.426-53.023 76.188 0 18.445 9.4805 34.703 23.816 44.207h-83.48c14.332-9.5 23.816-25.762 23.816-44.207 0-26.762-21.863-76.188-53.023-76.188-31.16 0-53.023 49.426-53.023 76.188 0 18.445 9.4805 34.703 23.816 44.207h-37.531v-134.29h275.63v134.29h-37.789c14.332-9.5 23.816-25.762 23.816-44.207zm-53.023 42.945c-23.68 0-42.945-19.266-42.945-42.945 0-24.906 20.074-66.113 42.945-66.113 22.875 0 42.945 41.207 42.945 66.113 0 23.68-19.266 42.945-42.945 42.945zm-141.89 0c-23.68 0-42.945-19.266-42.945-42.945 0-24.906 20.074-66.113 42.945-66.113 22.875 0 42.945 41.207 42.945 66.113 0.003906 23.68-19.266 42.945-42.945 42.945zm218.96 1.2617v-134.29h30.086v134.29zm43.43-144.37h-382.89v-31.789h382.89z"/>
  <path d="m557.85 360.84h10.426c2.7852 0 5.0391-2.2539 5.0391-5.0391 0-2.7812-2.2539-5.0391-5.0391-5.0391h-10.426c-2.7852 0-5.0391 2.2539-5.0391 5.0391 0 2.7812 2.2539 5.0391 5.0391 5.0391z"/>
  <path d="m557.85 547.07h10.426c2.7852 0 5.0391-2.2539 5.0391-5.0391 0-2.7812-2.2539-5.0391-5.0391-5.0391h-10.426c-2.7852 0-5.0391 2.2539-5.0391 5.0391s2.2539 5.0391 5.0391 5.0391z"/>
  <path d="m231.98 360.84h10.426c2.7852 0 5.0391-2.2539 5.0391-5.0391 0-2.7812-2.2539-5.0391-5.0391-5.0391h-10.426c-2.7852 0-5.0391 2.2539-5.0391 5.0391 0 2.7812 2.2539 5.0391 5.0391 5.0391z"/>
  <path d="m231.98 547.07h10.426c2.7852 0 5.0391-2.2539 5.0391-5.0391 0-2.7812-2.2539-5.0391-5.0391-5.0391h-10.426c-2.7852 0-5.0391 2.2539-5.0391 5.0391s2.2539 5.0391 5.0391 5.0391z"/>
 </g>
</svg>