<?xml version="1.0" encoding="UTF-8"?>
<!-- The Best Svg Icon site in the world: iconSvg.co, Visit us! https://iconsvg.co -->
<svg fill="#000000" width="800px" height="800px" version="1.1" viewBox="144 144 512 512" xmlns="http://www.w3.org/2000/svg">
 <path d="m214.89 319.71c-9.1992 6.0469-14.539 14.586-15.867 25.367l-0.20703 1.8555c-2.2227 21.324 6.6914 41.688 23.82 54.617-1.4648 20.723 7.4492 40.363 24.273 52.852 10.781 8.0039 23.426 12.109 36.23 12.109 7.9648 0 15.988-1.5898 23.664-4.8125l12.453-5.2266c-0.63281 7.168-0.625 14.375 0.058593 21.621 6.7461 71.629 74.82 120.46 77.711 122.51 0.87109 0.62109 1.8906 0.92578 2.9102 0.92578 1.0195 0 2.0352-0.30859 2.9062-0.92578 2.8906-2.043 70.965-50.879 77.711-122.51 0.69141-7.3164 0.69922-14.598 0.046875-21.836l12.965 5.4414c7.6758 3.2227 15.699 4.8125 23.664 4.8125 12.801 0 25.453-4.1016 36.227-12.102 16.91-12.551 25.844-32.332 24.266-53.172 16.871-12.941 25.652-33.141 23.453-54.293l-0.21094-1.8516c-1.3281-10.789-6.668-19.324-15.855-25.367-32.645-21.441-107.01-4.6484-131.34 1.6758 0.20703-1.9375 0.38281-3.8828 0.38281-5.8438 0-18.281-9.1172-34.441-23.012-44.27l13.977-16.223c5.3398 3.7422 11.562 5.6836 17.824 5.6836 7.9766 0 15.945-3.0352 22.016-9.1055 12.137-12.145 12.137-31.902 0-44.043-12.145-12.145-31.891-12.145-44.035 0-11 11-11.93 28.199-2.9961 40.375l-15.691 18.215c-6.8086-3.0898-14.344-4.8516-22.297-4.8516s-15.484 1.7656-22.297 4.8555l-15.691-18.215c8.9297-12.176 8.0039-29.375-2.9922-40.375-5.875-5.8906-13.699-9.125-22.012-9.125-8.3203 0-16.137 3.2383-22.016 9.1211-5.8828 5.8828-9.1211 13.703-9.1211 22.023 0 8.3203 3.2383 16.141 9.1211 22.023 5.8789 5.8828 13.699 9.1211 22.016 9.1211 6.4883 0 12.66-1.9961 17.859-5.6562l13.938 16.18c-13.895 9.8281-23.012 25.988-23.012 44.27 0 1.9453 0.17188 3.8672 0.375 5.7891-24.305-6.3203-98.586-23.086-131.21-1.6406zm233.15-104.99c4.1094-4.1016 9.5-6.1602 14.895-6.1602 5.3906 0 10.785 2.0547 14.895 6.1602 8.2109 8.2148 8.2109 21.578 0 29.797-8.2148 8.207-21.57 8.207-29.785 0-8.2188-8.2148-8.2188-21.578-0.003906-29.797zm-126 29.797c-8.2148-8.2148-8.2148-21.578 0-29.797 3.9766-3.9766 9.2656-6.168 14.895-6.168 5.625 0 10.914 2.1875 14.895 6.168 8.2109 8.2148 8.2109 21.578 0 29.797-3.9805 3.9805-9.2695 6.168-14.895 6.168-5.6289 0.003906-10.918-2.1875-14.895-6.168zm-113.21 103.45 0.18359-1.6445c0.96875-7.832 4.6953-13.781 11.398-18.188 10.117-6.6523 25.398-9.0078 41.988-9.0078 35.332 0 76.59 10.695 86.426 13.398l14.762 31.832-84.594 35.512c-16.723 7.0078-35.406 4.7266-49.992-6.1016-14.496-10.766-22.039-27.883-20.172-45.801zm218.52 24.047c12.059 12.707 21.633 25.645 28.707 38.754l-112.26 0.003906c7.0742-13.109 16.645-26.047 28.707-38.754zm43.594 93.551h-142.04c0.19141-15.062 3.543-29.992 10.008-44.719h122.02c6.4648 14.727 9.8164 29.656 10.004 44.719zm-168.05-13.156c-16.723 7.0078-35.41 4.7344-49.992-6.0977-12.566-9.3242-19.879-23.422-20.402-38.668 8.4062 4.1641 17.52 6.3203 26.727 6.3203 7.9609 0 15.984-1.5859 23.66-4.8086l69.332-29.105c-16.691 21.031-27.16 42.695-31.324 64.805zm97.031 137.77c-8.6328-6.7344-34.555-28.566-52.582-59.738h105.17c-18.035 31.172-43.957 53.004-52.586 59.738zm57.949-69.816h-115.9c-6.4023-13.16-11.18-27.672-12.641-43.266-0.046875-0.48438-0.050781-0.96875-0.089844-1.4531h141.37c-0.042969 0.48438-0.046875 0.96875-0.09375 1.4531-1.4609 15.594-6.2344 30.105-12.641 43.266zm89.566-74.043c-14.594 10.828-33.277 13.102-49.988 6.0977l-18.539-7.7773c-4.1992-22.051-14.668-43.668-31.34-64.648l69.5 29.176c7.6758 3.2227 15.695 4.8086 23.66 4.8086 9.3477 0 18.605-2.2109 27.121-6.5039-0.46484 15.309-7.7969 29.484-20.414 38.848zm32.125-118.16c6.6953 4.4023 10.426 10.352 11.391 18.188l0.1875 1.6367c1.8633 17.91-5.6758 35.027-20.176 45.789-14.598 10.828-33.273 13.105-49.992 6.1016l-84.602-35.52 14.641-31.773c14.492-3.9727 96.871-25.242 128.55-4.4219zm-179.64-56.738c24.34 0 44.137 19.805 44.137 44.148 0 3.793-0.5 7.5508-1.4492 11.184l-16.223 35.195h-52.824l-16.348-35.262c-0.93359-3.6016-1.4297-7.3359-1.4297-11.121 0.003906-24.344 19.801-44.145 44.137-44.145z"/>
</svg>