<?xml version="1.0" encoding="UTF-8"?>
<!-- The Best Svg Icon site in the world: iconSvg.co, Visit us! https://iconsvg.co -->
<svg fill="#000000" width="800px" height="800px" version="1.1" viewBox="144 144 512 512" xmlns="http://www.w3.org/2000/svg">
 <path d="m337.02 486.59c11.117 0 21.742-2.0938 31.504-5.918 9.7305 3.8086 20.355 5.918 31.473 5.918s21.742-2.0938 31.504-5.918c9.7305 3.8086 20.355 5.918 31.473 5.918 0.72266 0 1.4336-0.015625 2.1562-0.03125v24.734c0 14.406 2.3945 35.488 5.3359 56.57 4.9297 18.309 12.266 35.977 21.867 52.523 9.1172 15.695-11.461 23.648-11.461 23.648s-0.39453 0.0625-1.0547 0.046875c-0.30078 0-0.66016-0.015625-1.0703-0.046875h-153.21l-0.20312 0.015625c-1.1641 0.09375-1.9062-0.015625-1.9062-0.015625l-0.015625-0.09375c-0.28516-0.046875-0.58203-0.125-0.85156-0.23438-4.0938-1.668-20.781-9.4766-12.754-23.316 10.469-18.043 18.246-37.422 23.16-57.512 2.2656-19.383 4.0469-38.305 4.0469-51.578v-24.703zm-1.0078-289.88c-4.7695-0.91406-9.6992-1.3867-14.738-1.3867-26.355 0-49.688 12.973-63.984 32.875-4.7695-0.91406-9.6992-1.3867-14.738-1.3867-43.453 0-78.719 35.266-78.719 78.719 0 14.344 3.8398 27.789 10.547 39.359-6.707 11.586-10.547 25.031-10.547 39.359 0 43.453 35.266 78.719 78.719 78.719 13.367 0 25.945-3.3359 36.984-9.2266 14.359 15.367 34.809 24.969 57.48 24.969 11.195 0 21.852-2.3477 31.504-6.5664 9.6211 4.2188 20.277 6.5664 31.473 6.5664 11.195 0 21.852-2.3477 31.504-6.5664 9.6211 4.2188 20.277 6.5664 31.473 6.5664 22.672 0 43.121-9.6055 57.496-24.969 11.02 5.8867 23.602 9.2266 36.969 9.2266 43.453 0 78.719-35.266 78.719-78.719 0-14.344-3.8398-27.789-10.547-39.359 6.707-11.586 10.547-25.031 10.547-39.359 0-43.453-35.266-78.719-78.719-78.719-5.0391 0-9.9648 0.47266-14.754 1.3867-14.281-19.902-37.613-32.875-63.969-32.875-5.0391 0-9.9648 0.47266-14.754 1.3867-14.281-19.902-37.613-32.875-63.969-32.875-26.34 0-49.688 12.973-63.984 32.875z" fill-rule="evenodd"/>
</svg>