<?xml version="1.0" encoding="UTF-8"?>
<!-- The Best Svg Icon site in the world: iconSvg.co, Visit us! https://iconsvg.co -->
<svg fill="#000000" width="800px" height="800px" version="1.1" viewBox="144 144 512 512" xmlns="http://www.w3.org/2000/svg">
 <path d="m557.44 546.94h-94.461c-5.7969 0-10.496 4.6992-10.496 10.496-0.011719 7.2266-1.5117 14.375-4.4102 20.992-6.8516-15.613-20.867-26.926-37.574-30.332v-22.148h10.496c16.699 0 32.719-6.6328 44.527-18.445 11.812-11.809 18.445-27.828 18.445-44.527 0-2.7852-1.1055-5.457-3.0742-7.4219-1.9648-1.9688-4.6367-3.0742-7.418-3.0742h-31.488c-11.367-0.0625-22.434 3.625-31.488 10.496v-31.488h10.496c16.699 0 32.719-6.6367 44.527-18.445 11.812-11.812 18.445-27.832 18.445-44.531 0-2.7852-1.1055-5.4531-3.0742-7.4219-1.9648-1.9688-4.6367-3.0742-7.418-3.0742h-31.488c-11.367-0.0625-22.434 3.625-31.488 10.496v-31.488h10.496c16.699 0 32.719-6.6367 44.527-18.445 11.812-11.812 18.445-27.828 18.445-44.531 0-2.7852-1.1055-5.4531-3.0742-7.4219-1.9648-1.9688-4.6367-3.0742-7.418-3.0742h-31.488c-11.367-0.0625-22.434 3.6289-31.488 10.496v-22.883c6.125-2.1641 11.43-6.1719 15.188-11.473 3.7578-5.2969 5.7852-11.629 5.8047-18.125 0-24.664-21.621-46.918-24.035-49.438h-0.003906c-1.9688-1.9844-4.6523-3.1055-7.4492-3.1055-2.8008 0-5.4844 1.1211-7.4531 3.1055-2.4141 2.5195-24.035 24.77-24.035 49.438 0.015625 6.4961 2.043 12.828 5.8008 18.125 3.7617 5.3008 9.0664 9.3086 15.191 11.473v22.883c-9.0547-6.8672-20.125-10.559-31.488-10.496h-31.488c-5.7969 0-10.496 4.6992-10.496 10.496 0 16.703 6.6328 32.719 18.445 44.531 11.809 11.809 27.828 18.445 44.531 18.445h10.496v31.488c-9.0547-6.8711-20.125-10.559-31.488-10.496h-31.488c-5.7969 0-10.496 4.6992-10.496 10.496 0 16.699 6.6328 32.719 18.445 44.531 11.809 11.809 27.828 18.445 44.531 18.445h10.496v31.488c-9.0547-6.8711-20.125-10.559-31.488-10.496h-31.488c-5.7969 0-10.496 4.6992-10.496 10.496 0 16.699 6.6328 32.719 18.445 44.527 11.809 11.812 27.828 18.445 44.531 18.445h10.496v22.148c-16.711 3.4062-30.723 14.719-37.578 30.332-2.8984-6.6172-4.3984-13.766-4.4062-20.992 0-2.7812-1.1055-5.4531-3.0742-7.4219s-4.6406-3.0742-7.4219-3.0742h-94.465c-5.7969 0-10.496 4.6992-10.496 10.496s4.6992 10.496 10.496 10.496h84.703c2.5234 17.492 11.266 33.484 24.625 45.051s30.441 17.93 48.113 17.926h6.8242-0.003907c15.625-1.4531 30.355-7.9336 41.984-18.473 12.988-11.539 21.465-27.305 23.93-44.504h84.703c5.7969 0 10.496-4.6992 10.496-10.496s-4.6992-10.496-10.496-10.496zm-115.45-73.469h19.629-0.003906c-2.3242 9.0039-7.5742 16.984-14.93 22.684-7.3516 5.6992-16.387 8.7969-25.688 8.8008h-10.496c0-8.3477 3.3164-16.359 9.2227-22.262 5.9023-5.9062 13.914-9.2227 22.266-9.2227zm0-94.465h19.629-0.003906c-2.3242 9.0039-7.5742 16.984-14.93 22.684-7.3516 5.6992-16.387 8.7969-25.688 8.8047h-10.496c0-8.3516 3.3164-16.363 9.2227-22.266 5.9023-5.9062 13.914-9.2227 22.266-9.2227zm0-94.465h19.629-0.003906c-2.3242 9.0078-7.5742 16.984-14.93 22.684-7.3516 5.6992-16.387 8.7969-25.688 8.8047h-10.496c0-8.3516 3.3164-16.359 9.2227-22.266 5.9023-5.9062 13.914-9.2227 22.266-9.2227zm-41.984-88.586c5.8984 7.3398 9.5469 16.238 10.496 25.609 0 5.7969-4.6992 10.496-10.496 10.496s-10.496-4.6992-10.496-10.496c0.94531-9.3711 4.5938-18.27 10.496-25.609zm-61.613 88.586h19.629c8.3516 0 16.359 3.3164 22.266 9.2227 5.9023 5.9062 9.2227 13.914 9.2227 22.266h-10.496c-9.3047-0.007812-18.34-3.1055-25.691-8.8047-7.3516-5.6992-12.605-13.676-14.93-22.684zm0 94.465h19.629c8.3516 0 16.359 3.3164 22.266 9.2227 5.9023 5.9023 9.2227 13.914 9.2227 22.266h-10.496c-9.3047-0.007813-18.34-3.1055-25.691-8.8047-7.3516-5.6992-12.605-13.68-14.93-22.684zm0 94.465h19.629c8.3516 0 16.359 3.3164 22.266 9.2227 5.9023 5.9023 9.2227 13.914 9.2227 22.262h-10.496c-9.3047-0.003906-18.34-3.1016-25.691-8.8008-7.3516-5.6992-12.605-13.68-14.93-22.684zm79.98 132.88c-11.875 4.2539-24.859 4.2539-36.738 0-4.7305-1.5586-9.1641-3.9023-13.117-6.9297 0-11.25 6-21.645 15.742-27.27 9.7422-5.625 21.746-5.625 31.488 0 9.7422 5.625 15.746 16.02 15.746 27.27-3.9727 3-8.4062 5.3398-13.121 6.9297z"/>
</svg>