<?xml version="1.0" encoding="UTF-8"?>
<!-- The Best Svg Icon site in the world: iconSvg.co, Visit us! https://iconsvg.co -->
<svg fill="#000000" width="800px" height="800px" version="1.1" viewBox="144 144 512 512" xmlns="http://www.w3.org/2000/svg">
 <g>
  <path d="m541.7 392.12v7.875c0 2.0859 0.82813 4.0898 2.3047 5.5664 1.4766 1.4766 3.4805 2.3047 5.5664 2.3047h62.977c8.4375 0 16.234-4.5 20.453-11.809s4.2188-16.309 0-23.617c-4.2188-7.3047-12.016-11.809-20.453-11.809h-62.977c-4.3477 0-7.8711 3.5273-7.8711 7.875v7.8711h-15.746v-23.617c0-2.0859-0.82812-4.0898-2.3047-5.5664-1.4766-1.4766-3.4766-2.3047-5.5664-2.3047h-47.23v-71.965c2.5625 0.70703 5.2109 1.082 7.8711 1.1172 8.3516 0 16.359-3.3164 22.266-9.2227s9.2227-13.914 9.2227-22.266v-70.848c0-2.0898-0.82812-4.0898-2.3047-5.5664-1.4766-1.4766-3.4805-2.3086-5.5664-2.3086h-330.62c-4.3477 0-7.875 3.5273-7.875 7.875v70.848c0 8.3516 3.3203 16.359 9.2227 22.266 5.9062 5.9062 13.918 9.2227 22.266 9.2227 2.6641-0.035156 5.3086-0.41016 7.875-1.1172v221.53h-23.617c-4.3477 0-7.8711 3.5273-7.8711 7.875v31.488c0 2.0859 0.82812 4.0898 2.3047 5.5664s3.4766 2.3047 5.5664 2.3047h31.488v86.594c0 2.0859 0.82813 4.0898 2.3047 5.5664 1.4766 1.4727 3.4805 2.3047 5.5664 2.3047h236.16c2.0898 0 4.0898-0.83203 5.5664-2.3047 1.4766-1.4766 2.3086-3.4805 2.3086-5.5664v-86.594h31.488-0.003906c2.0898 0 4.0938-0.82812 5.5664-2.3047 1.4766-1.4766 2.3086-3.4805 2.3086-5.5664v-31.488c0-2.0898-0.83203-4.0898-2.3086-5.5664-1.4727-1.4766-3.4766-2.3086-5.5664-2.3086h-23.613v-133.82h39.359v23.617c0 2.0898 0.82812 4.0898 2.3047 5.5664 1.4766 1.4766 3.4805 2.3047 5.5664 2.3047zm15.742-15.742h55.105c4.3477 0 7.8711 3.5234 7.8711 7.8711s-3.5234 7.8711-7.8711 7.8711h-55.105zm-338.5-39.359h78.723v31.488h-78.723zm94.465 0h15.742v31.488h-15.742zm31.488 0h15.742v31.488h-15.742zm31.488 0h78.719v31.488h-78.719zm0-15.742v-0.003906c0-2.0859-0.82812-4.0898-2.3047-5.5664-1.4766-1.4766-3.4805-2.3047-5.5664-2.3047-4.3477 0-7.875 3.5234-7.875 7.8711h-15.742c0-2.0859-0.82812-4.0898-2.3047-5.5664-1.4766-1.4766-3.4805-2.3047-5.5664-2.3047-4.3477 0-7.875 3.5234-7.875 7.8711h-15.742c0-2.0859-0.82812-4.0898-2.3047-5.5664-1.4766-1.4766-3.4805-2.3047-5.5664-2.3047-4.3477 0-7.8711 3.5234-7.8711 7.8711h-78.723v-58.109c5.9023 6.9023 14.531 10.879 23.617 10.879 9.082 0 17.711-3.9766 23.617-10.879 5.9023 6.9023 14.531 10.879 23.613 10.879 9.0859 0 17.715-3.9766 23.617-10.879 5.9023 6.9023 14.531 10.879 23.617 10.879 9.082 0 17.711-3.9766 23.613-10.879 5.9062 6.9023 14.535 10.879 23.617 10.879 9.0859 0 17.715-3.9766 23.617-10.879 5.9023 6.9023 14.531 10.879 23.617 10.879 9.082 0 17.711-3.9766 23.613-10.879v58.109zm-196.8-98.844c2.0234 1.1719 4.1719 2.1133 6.4062 2.8008-1.3086 3.0586-3.5508 5.625-6.4062 7.332zm39.359-6.5039c3.8359 4.3906 8.8203 7.6289 14.391 9.3438-1.6562 3.7344-4.6992 6.6797-8.4883 8.2109-3.7852 1.5312-8.0195 1.5312-11.805 0-3.7852-1.5312-6.8281-4.4766-8.4883-8.2109 5.5742-1.7148 10.555-4.9531 14.391-9.3438zm47.23 0h0.003906c3.8359 4.3906 8.8164 7.6289 14.387 9.3438-1.6562 3.7344-4.6992 6.6797-8.4844 8.2109-3.7891 1.5312-8.0195 1.5312-11.809 0-3.7852-1.5312-6.8281-4.4766-8.4844-8.2109 5.5703-1.7148 10.555-4.9531 14.391-9.3438zm47.23 0h0.003906c3.8359 4.3906 8.8203 7.6289 14.391 9.3438-1.6562 3.7344-4.6992 6.6797-8.4883 8.2109-3.7852 1.5312-8.0195 1.5312-11.805 0-3.7891-1.5312-6.832-4.4766-8.4883-8.2109 5.5703-1.7148 10.555-4.9531 14.391-9.3438zm47.23 0h0.003907c3.8359 4.3906 8.8203 7.6289 14.391 9.3438-1.6562 3.7344-4.6992 6.6797-8.4844 8.2109-3.7891 1.5312-8.0195 1.5312-11.809 0-3.7852-1.5312-6.8281-4.4766-8.4844-8.2109 5.5703-1.7148 10.551-4.9531 14.387-9.3438zm47.23 0h0.007813c3.8359 4.3906 8.8164 7.6289 14.391 9.3438-1.6602 3.7344-4.7031 6.6797-8.4883 8.2109-3.7852 1.5312-8.0195 1.5312-11.805 0-3.7891-1.5312-6.832-4.4766-8.4883-8.2109 5.5703-1.7148 10.555-4.9531 14.391-9.3438zm47.23 0h0.007812c3.8359 4.3906 8.8203 7.6289 14.391 9.3438-1.6562 3.7344-4.6992 6.6797-8.4844 8.2109-3.7891 1.5312-8.0234 1.5312-11.809 0-3.7852-1.5312-6.8281-4.4766-8.4883-8.2109 5.5742-1.7148 10.555-4.9531 14.391-9.3438zm32.961 9.3047c2.2344-0.6875 4.3828-1.6289 6.4062-2.8008v10.133c-2.8555-1.707-5.0977-4.2734-6.4062-7.332zm-245.5 14.312c3.8359 4.3906 8.8164 7.625 14.391 9.3438-1.6602 3.7344-4.7031 6.6758-8.4883 8.207-3.7852 1.5312-8.0195 1.5312-11.805 0-3.7891-1.5312-6.832-4.4727-8.4883-8.207 5.5703-1.7188 10.555-4.9531 14.391-9.3438zm47.23 0c3.8359 4.3906 8.8203 7.625 14.391 9.3438-1.6562 3.7344-4.6992 6.6758-8.4844 8.207-3.7891 1.5312-8.0234 1.5312-11.809 0-3.7852-1.5312-6.8281-4.4727-8.4883-8.207 5.5742-1.7188 10.555-4.9531 14.391-9.3438zm47.23 0h0.003907c3.8359 4.3906 8.8164 7.625 14.391 9.3438-1.6602 3.7344-4.7031 6.6758-8.4883 8.207-3.7852 1.5312-8.0195 1.5312-11.809 0-3.7852-1.5312-6.8281-4.4727-8.4844-8.207 5.5703-1.7188 10.555-4.9531 14.391-9.3438zm47.23 0h0.003906c3.8359 4.3906 8.8203 7.625 14.391 9.3438-1.6562 3.7344-4.6992 6.6758-8.4883 8.207-3.7852 1.5312-8.0195 1.5312-11.805 0-3.7852-1.5312-6.8281-4.4727-8.4883-8.207 5.5742-1.7188 10.555-4.9531 14.391-9.3438zm47.23 0h0.007812c3.8359 4.3906 8.8164 7.625 14.387 9.3438-1.6562 3.7344-4.6992 6.6758-8.4844 8.207-3.7891 1.5312-8.0195 1.5312-11.809 0-3.7852-1.5312-6.8281-4.4727-8.4844-8.207 5.5703-1.7188 10.555-4.9531 14.391-9.3438zm47.238 18.75c-3.0586-0.007812-6.0469-0.90234-8.6016-2.582-2.5547-1.6758-4.5664-4.0625-5.7891-6.8633 5.5664-1.707 10.551-4.9297 14.391-9.3047 3.8359 4.3906 8.8203 7.625 14.391 9.3438-1.2305 2.793-3.2422 5.1719-5.7969 6.8398-2.5547 1.6719-5.543 2.5625-8.5938 2.5664zm15.742-62.977c0 5.625-3 10.824-7.8711 13.637s-10.871 2.8125-15.742 0-7.8711-8.0117-7.8711-13.637v-15.742h31.488zm-47.23 0c0 5.625-3 10.824-7.8711 13.637s-10.875 2.8125-15.746 0c-4.8711-2.8125-7.8711-8.0117-7.8711-13.637v-15.742h31.488zm-47.23 0c0 5.625-3.0039 10.824-7.875 13.637s-10.871 2.8125-15.742 0c-4.8711-2.8125-7.8711-8.0117-7.8711-13.637v-15.742h31.488zm-47.234 0c0 5.625-3 10.824-7.8711 13.637-4.8711 2.8125-10.871 2.8125-15.746 0-4.8711-2.8125-7.8711-8.0117-7.8711-13.637v-15.742h31.488zm-47.23 0c0 5.625-3 10.824-7.8711 13.637-4.875 2.8125-10.875 2.8125-15.746 0-4.8711-2.8125-7.8711-8.0117-7.8711-13.637v-15.742h31.488zm-47.234 0c0 5.625-3 10.824-7.8711 13.637-4.8711 2.8125-10.871 2.8125-15.742 0s-7.875-8.0117-7.875-13.637v-15.742h31.488zm-47.23 0c0 5.625-3 10.824-7.8711 13.637-4.8711 2.8125-10.875 2.8125-15.746 0s-7.8711-8.0117-7.8711-13.637v-15.742h31.488zm-30.133 53.57c5.5703-1.7188 10.551-4.9531 14.387-9.3438 3.8359 4.3906 8.8203 7.625 14.391 9.3438-1.6562 3.7344-4.6992 6.6758-8.4844 8.207-3.7891 1.5312-8.0195 1.5312-11.809 0-3.7852-1.5312-6.8281-4.4727-8.4844-8.207zm38.004 135.36h78.723c0 2.0898 0.82813 4.0898 2.3047 5.5664 1.4766 1.4766 3.4766 2.3047 5.5664 2.3047 2.0859 0 4.0898-0.82812 5.5664-2.3047 1.4766-1.4766 2.3047-3.4766 2.3047-5.5664h15.742c0 2.0898 0.83203 4.0898 2.3086 5.5664 1.4766 1.4766 3.4766 2.3047 5.5664 2.3047 2.0859 0 4.0898-0.82812 5.5664-2.3047 1.4766-1.4766 2.3047-3.4766 2.3047-5.5664h15.742v110.21h-141.7zm188.93 141.7h-62.977v-15.742h62.977zm39.359 47.23v15.742l-23.617 0.003906v-15.742zm-39.359 15.742-62.977 0.003906v-15.742h62.977zm-141.7 0.003906v-15.742h62.977v15.742zm-39.359 0-0.003906-15.742h23.617v15.742zm141.7-31.488h-62.977v-15.742h62.977zm-102.34-47.23h62.977v15.742h-62.977zm-78.723 0h62.977v15.742h-62.977zm39.359 31.488h62.977v15.742h-62.977zm0 62.977h62.977v15.742h-62.977zm78.719 0h62.977v15.742h-62.973zm141.7 15.742h-62.973v-15.742h62.977zm0-62.977h-62.973v-15.742h62.977zm39.359-31.488h-62.973v-15.742h62.977zm-110.2-31.488v-110.21h78.719v110.21z"/>
  <path d="m577.12 510.21c-27.238 0-59.039 6.1875-59.039 23.617v78.719c0 6.2617 2.4883 12.27 6.918 16.699 4.4297 4.4297 10.434 6.918 16.699 6.918h70.848c6.2617 0 12.27-2.4883 16.699-6.918 4.4297-4.4297 6.918-10.438 6.918-16.699v-78.719c0-17.43-31.805-23.617-59.043-23.617zm0 15.742c23.121 0 37.785 4.668 42.305 7.8711-4.5273 3.2031-19.184 7.8711-42.305 7.8711-23.121 0-37.785-4.668-42.305-7.8711 4.5195-3.2031 19.188-7.8711 42.305-7.8711zm-43.293 55.105h86.59v7.8711h-86.59zm0-15.742v-14.453c13.934 4.7148 28.59 6.9414 43.293 6.5781 14.707 0.36328 29.363-1.8633 43.297-6.5781v14.453zm78.719 55.105-70.848-0.003907c-4.3477 0-7.8711-3.5234-7.8711-7.8711v-7.8711h86.59v7.8711c0 2.0898-0.82812 4.0898-2.3047 5.5664s-3.4766 2.3047-5.5664 2.3047z"/>
 </g>
</svg>