<?xml version="1.0" encoding="UTF-8"?>
<!-- The Best Svg Icon site in the world: iconSvg.co, Visit us! https://iconsvg.co -->
<svg fill="#000000" width="800px" height="800px" version="1.1" viewBox="144 144 512 512" xmlns="http://www.w3.org/2000/svg">
 <g>
  <path d="m398.78 219.97h-68.273l-13.605-18.98h81.879v2.5195h-76.977l9.9922 13.941h66.984z"/>
  <path d="m398.78 259.93h-68.891v-41.223h2.5195v38.703h66.371z"/>
  <path d="m398.78 317.14h-87.434l18.605-58.844 2.3984 0.75781-17.562 55.566h83.992z"/>
  <path d="m398.78 596.91h-86.969v-281.02h2.5156v278.5h84.453z"/>
  <path d="m404.38 496.6c-36.828 0-64.172-11.629-81.258-34.551-38.727-51.949-11.453-145.58-11.176-146.52l2.4141 0.71875c-0.27734 0.92578-27.191 93.371 10.781 144.3 16.59 22.254 43.246 33.535 79.238 33.535z"/>
  <path d="m466.22 219.97h-68.785v-2.5195h67.496l10.07-13.941h-77.566v-2.5195h82.496z"/>
  <path d="m466.83 259.93h-69.398v-2.5195h66.883v-38.703h2.5156z"/>
  <path d="m485.52 317.14h-88.082v-2.5195h84.637l-17.699-55.562 2.4023-0.76172z"/>
  <path d="m485.05 596.91h-87.617v-2.5195h85.098v-278.5h2.5195z"/>
  <path d="m391.79 496.6v-2.5195c36.43 0 63.371-11.387 80.07-33.84 37.938-51 10.906-143.07 10.629-143.99l2.4141-0.72656c0.28125 0.9375 27.66 94.211-11.023 146.22-17.207 23.133-44.824 34.859-82.09 34.859z"/>
  <path d="m425.05 495.34c0 4.7617-3.4922 8.6211-7.7891 8.6211h-39.648c-4.3008 0-7.7852-3.8594-7.7852-8.6211 0-4.7617 3.4883-8.6211 7.7852-8.6211h39.648c4.293 0 7.7891 3.8594 7.7891 8.6211z"/>
  <path d="m417.26 505.22h-39.648c-4.9883 0-9.043-4.4336-9.043-9.8789 0-5.4453 4.0547-9.8789 9.043-9.8789h39.648c4.9883 0 9.0469 4.4336 9.0469 9.8789 0.003906 5.4453-4.0586 9.8789-9.0469 9.8789zm-39.648-17.238c-3.5977 0-6.5234 3.3008-6.5234 7.3594 0 4.0625 2.9258 7.3594 6.5234 7.3594h39.648c3.6016 0 6.5312-3.3008 6.5312-7.3594 0-4.0625-2.9258-7.3594-6.5312-7.3594z"/>
 </g>
</svg>