<?xml version="1.0" encoding="UTF-8"?>
<!-- The Best Svg Icon site in the world: iconSvg.co, Visit us! https://iconsvg.co -->
<svg fill="#000000" width="800px" height="800px" version="1.1" viewBox="144 144 512 512" xmlns="http://www.w3.org/2000/svg">
 <g>
  <path d="m350.8 311.16c3.4141-0.34375 6.9297-0.69922 10.535-0.98047h0.003907c8.9727-0.42969 17.715 2.9414 24.074 9.2852 9.8555 8.793 15.406 21.43 15.215 34.637v18.531c-3.5742 0.64453-7.0625 1.6875-10.398 3.1172-7.1875 2.9375-13.07 8.3789-16.559 15.312-3.4922 6.9375-4.3555 14.902-2.4336 22.426-7.9609 2.0234-14.82 7.0664-19.129 14.059-4.0039 7.5195-3.5039 16.695 1.4922 27.289 8.8945 18.848 23.344 24.051 36.605 24.051v-0.003906c9.5703-0.25 18.992-2.4258 27.699-6.4062 1.7812-0.81641 3.7578-1.0898 5.6914-0.78906 36.059 5.8125 43.691-19.949 45.184-27.988h0.003906c0.46484-2.4688 1.1797-4.8828 2.1328-7.207 3.4492-8.5898 5.043-26.617-22.965-50.848h-0.003907c-10.898-9.4805-25.012-14.434-39.445-13.844v-17.684c0.19141-15.496-6.3594-30.309-17.949-40.594-7.9375-7.7578-18.773-11.824-29.855-11.195-3.668 0.29297-7.2422 0.64844-10.711 1-23.781 2.4023-36.402 2.8711-40.797-13.777-1.6641-5.6914-1.7266-11.727-0.17969-17.449 1.5508-5.7227 4.6445-10.906 8.9492-14.984 12.594-11.359 32.332-9.9961 56.961 3.8945 14.914 9.832 26.68 23.758 33.883 40.105 0.65625 1.5391 2.2148 2.4961 3.8867 2.3828 1.668-0.11328 3.0859-1.2734 3.5273-2.8867 2.1758-6.9648 5.2852-13.605 9.2422-19.738 4.6562-7.5078 10.777-14.004 18-19.094 6.2969-4.2773 13.48-7.0664 21.012-8.1602 7.5195-1.0898 15.188-0.53125 22.469 1.6328 5.2617 1.5625 10.242 3.9531 14.75 7.0859 7.6797 4.6797 12.391 13 12.457 21.992 0.27344 6.0195-2.2969 11.824-6.9414 15.664-9.9062 8.2656-30.562 10.504-55.246 6.0078-9.3438-1.7227-18.973 0.76172-26.32 6.7891-7.2109 5.9023-11.449 14.688-11.582 24.008v21.703c0 2.1758 1.7617 3.9375 3.9336 3.9375 2.1758 0 3.9375-1.7617 3.9375-3.9375v-21.648c0.10938-6.9844 3.2969-13.562 8.707-17.98 5.5625-4.5508 12.844-6.4219 19.906-5.1172 12.957 2.3633 44.871 6.3359 61.703-7.7031h0.003906c6.4531-5.332 10.062-13.359 9.7695-21.723-0.0625-11.566-6.0273-22.301-15.816-28.461-5.1914-3.6133-10.93-6.3711-16.992-8.1758-8.3828-2.4961-17.207-3.1367-25.863-1.8789-8.7148 1.2656-17.031 4.4961-24.32 9.4453-8.0898 5.6914-14.953 12.953-20.18 21.352-2.6328 4.1289-4.9414 8.457-6.8945 12.949-7.9258-14.352-19.285-26.512-33.062-35.395-35.285-19.898-55.453-12.574-66.172-2.918v0.003906c-5.3828 5.043-9.2695 11.473-11.23 18.586-1.9648 7.1094-1.9219 14.625 0.11328 21.715 6.2969 23.918 27.129 21.848 49.199 19.605zm91.98 80.414c25.227 21.816 22.957 36.605 20.816 41.961l0.003906 0.003907c-1.1445 2.8047-2.0078 5.7227-2.5742 8.6992-1.8438 9.9766-8.9961 26.074-36.188 21.648-3.4531-0.53516-6.9883-0.050781-10.168 1.3945-11.762 5.2812-40.586 14.516-53.949-13.82-3.8711-8.2031-4.4375-15-1.6797-20.195 4.7227-8.9062 17.805-11.051 17.934-11.07h-0.003906c1.2227-0.1875 2.2891-0.9375 2.875-2.0312 0.58594-1.0898 0.625-2.3906 0.10547-3.5156l-0.15234-0.35547c-2.3359-5.9531-2.2227-12.586 0.32031-18.457 2.5391-5.8672 7.3008-10.492 13.242-12.859 8.2383-3.1992 17.195-4.0898 25.906-2.5742 8.707 1.5156 16.836 5.3789 23.512 11.172z"/>
  <path d="m486.49 407.61c-4.043 0.41797-7.5234 3.0508-9.0195 6.832-1.918 5.957 2.1211 13.285 12.715 23.066l-0.003906-0.003906c0.47656 0.43359 0.73828 1.0469 0.72656 1.6875-0.007812 0.55078-0.25781 1.0703-0.6875 1.418-3.9961 3.2344-8.5469 5.7227-13.43 7.3398-1.0078 0.32031-1.8477 1.0312-2.3281 1.9727-0.48047 0.94531-0.55859 2.043-0.21875 3.0469 0.33984 1 1.0703 1.8242 2.0234 2.2852 0.95312 0.45703 2.0508 0.51172 3.0469 0.15234 5.7852-1.918 11.176-4.8711 15.906-8.7148 2.1758-1.7969 3.4688-4.4492 3.543-7.2695 0.082031-2.9141-1.1016-5.7227-3.2461-7.6992-11.664-10.773-10.629-14.699-10.57-14.863 0.26953-0.85547 1.9688-1.3594 2.6367-1.457 8.2305-1.3008 27.293 10.273 37.348 17.887h-0.003907c0.41406 0.3125 0.88281 0.54297 1.3828 0.67188 18.5 4.8242 72.371-15.48 94.668-24.441 0.1875-0.070313 0.39063-0.0625 0.56641 0.027344 0.19141 0.089843 0.32422 0.26562 0.36719 0.46875l7.6445 31.066c0.042968 0.18359 0.015624 0.37891-0.085938 0.53906-0.097656 0.16016-0.25781 0.27734-0.44141 0.32031l-93.691 21.512c-13.777 1.7852-28.203 10.422-37.918 17.375h-0.003907c-8.082 5.793-17.785 8.8945-27.727 8.8672h-58.793c-3.1133 0.003906-6.0859-1.3047-8.1875-3.6016-1.4648-1.6055-3.957-1.7227-5.5625-0.25781-1.6094 1.4648-1.7227 3.957-0.25781 5.5664 3.5938 3.9297 8.6797 6.168 14.008 6.1641h58.793c11.586 0.03125 22.891-3.5859 32.309-10.336 9.0195-6.4531 22.336-14.469 34.52-15.992v0.003906c0.13281-0.019531 0.26172-0.042969 0.39453-0.074219l93.887-21.57c2.2422-0.51562 4.1797-1.9062 5.3867-3.8633 1.2031-1.957 1.5742-4.3125 1.0234-6.5469l-7.6406-31.07c-0.59375-2.4102-2.1992-4.4414-4.4062-5.5742-2.2109-1.1328-4.8008-1.2539-7.1016-0.32812-34.102 13.707-75.078 27.102-89.039 24.293-5.0664-3.7617-29.172-21.039-42.531-18.898z"/>
  <path d="m412.75 434.59h0.25391c2.168-0.13672 3.8164-2.0078 3.6797-4.1797-1.1367-6.6094 2.6055-13.094 8.8984-15.418 2.0156-0.66797 3.1445-2.8125 2.5469-4.8477-0.60156-2.0391-2.707-3.2344-4.7617-2.7031-4.7461 1.6523-8.7852 4.8828-11.434 9.1523-2.6523 4.2695-3.7578 9.3203-3.1289 14.305 0.12891 2.082 1.8633 3.6992 3.9453 3.6914z"/>
  <path d="m643.51 573.36c-8.668-2.0547-17.75-1.4609-26.074 1.7031-4.1523 1.4219-8.1836 3.1797-12.074 4.8828l-0.003906 0.003906c-5.125 2.4102-10.434 4.4062-15.879 5.9727-18.645 4.7227-37.785-1.1797-58.016-7.4141-19.992-6.168-40.586-12.484-60.562-7.4766v-0.003906c1.9297-6.6445 2.9141-13.523 2.9219-20.441v-26.609 0.003906c0-2.1758 1.7617-3.9375 3.9336-3.9375h164.64c2.1719 0 3.9336-1.7617 3.9336-3.9375 0-2.1719-1.7617-3.9336-3.9336-3.9336h-164.64c-6.5195 0-11.809 5.2852-11.809 11.809v26.609-0.003907c0.054688 17.359-6.8398 34.02-19.152 46.262-12.27 12.25-28.902 19.129-46.242 19.121-17.34-0.003906-33.969-6.8945-46.23-19.156-12.262-12.258-19.156-28.887-19.164-46.227v-26.609 0.003906c0-6.5234-5.2852-11.809-11.809-11.809h-142.39c-2.5977-4.5781-3.2891-9.9922-1.9219-15.07 1.6914-4.2266 6.1523-7.2617 13.246-9.0117v-0.003907c1.5625-0.38672 2.7305-1.6875 2.9492-3.2812 0-0.10547 1.7031-10.938 9.0547-14.684 4.8594-2.4766 11.48-1.5078 19.68 2.8828v-0.003906c1.0039 0.53906 2.1914 0.61328 3.2578 0.20703 1.0625-0.40625 1.8984-1.2539 2.293-2.3203 0.046875-0.13281 4.9609-13.25 15.156-17.594 5.1094-2.0391 10.848-1.7656 15.742 0.74219 5.6367 1.8672 10.16 6.1289 12.359 11.645 1.0781 4.8633 0.23047 9.957-2.3594 14.215-0.71094 1.0938-0.83594 2.4727-0.32812 3.6758 0.50391 1.2031 1.5742 2.0742 2.8555 2.332 0.17969 0.039062 18.051 3.7461 22.664 14.59 0.39453 0.98047 1.168 1.7578 2.1445 2.1641 0.97656 0.40234 2.0703 0.39453 3.043-0.015625 0.97266-0.41406 1.7383-1.2031 2.125-2.1836 0.38281-0.98438 0.35938-2.082-0.070313-3.0469-4.4805-10.531-16.664-15.742-23.531-17.938 2.082-5.0742 2.4336-10.691 1.0078-15.984-2.1094-7.0859-7.7461-12.699-16.75-16.656v-0.003906c-6.8828-3.3945-14.887-3.6836-21.992-0.78516-7.7773 3.8828-14.012 10.281-17.688 18.156-9-3.9961-16.797-4.3711-23.223-1.1016-6.5586 3.9609-11.164 10.48-12.707 17.988-7.1562 1.5703-13.168 6.4062-16.234 13.062-2.0039 5.875-1.7695 12.285 0.65625 18h-13.211c-2.1719 0-3.9336 1.7617-3.9336 3.9336 0 2.1758 1.7617 3.9375 3.9336 3.9375h164.17c1.043 0 2.0469 0.41406 2.7852 1.1523 0.73828 0.73828 1.1523 1.7383 1.1523 2.7852v26.609-0.003906c0.003906 10.066 2.0938 20.027 6.1328 29.25-5.1523-2.2773-10.523-4.0195-16.027-5.2031-17.961-3.5859-35.637 1.2031-52.742 5.8477-11.621 3.625-23.613 5.9414-35.75 6.8984-14.484 0.47656-28.809-3.168-41.309-10.512-1-0.59375-2.0078-1.2148-3.0195-1.8438-5.7617-3.5664-12.484-7.6016-19.844-7.4023-2.2617 0.070312-4.5039 0.46094-6.6602 1.1562-1.0273 0.27734-1.9023 0.96094-2.418 1.8945-0.51953 0.93359-0.63281 2.0352-0.32422 3.0547 0.3125 1.0195 1.0234 1.8711 1.9727 2.3555 0.94922 0.48828 2.0547 0.56641 3.0664 0.22266 1.4688-0.48438 2.9961-0.75391 4.543-0.8125 5.2266-0.1875 10.234 2.957 15.527 6.2266 1.0508 0.65234 2.0977 1.3008 3.1484 1.9219 12.938 7.6016 27.664 11.625 42.668 11.66 0.98047 0 1.9688 0 2.9375-0.054688 12.738-0.96484 25.328-3.3711 37.523-7.1758 16.977-4.6055 33.008-8.9531 49.133-5.7266 8.3008 2 16.324 5.0273 23.883 9.0078 12.184 18.215 31.883 30.016 53.695 32.16 21.809 2.1406 43.43-5.5977 58.926-21.094 6.3633-6.3906 11.5-13.895 15.152-22.137l0.046875-0.019531c19.387-7.2305 39.879-0.90234 61.578 5.793 15.137 4.668 30.652 9.4453 46.148 9.4453h0.003906c5.4375 0.027344 10.859-0.625 16.137-1.9414 5.8555-1.668 11.566-3.8047 17.082-6.3867 3.9375-1.7109 7.6211-3.3281 11.469-4.6445 6.7891-2.6406 14.211-3.1953 21.316-1.5977 2.0859 0.60938 4.2734-0.58594 4.8867-2.6719 0.60938-2.0859-0.58594-4.2734-2.6719-4.8867z"/>
  <path d="m341.75 273.15c-2.1758 0.03125-3.9102 1.8164-3.8828 3.9922 0.03125 2.1719 1.8203 3.9102 3.9922 3.8789h0.11719c0.3125 0 33.008-0.78906 46.168 17.402h0.003906c0.59766 0.875 1.5273 1.4727 2.5742 1.6562 1.0469 0.17969 2.1211-0.066406 2.9805-0.69141 0.86328-0.625 1.4336-1.5664 1.5859-2.6172 0.15625-1.0547-0.125-2.1211-0.76953-2.9648-15.57-21.508-51.289-20.703-52.77-20.656z"/>
  <path d="m437.85 298.74c0.96875-1.0781 24.008-26.254 55.641-15.5 2.0586 0.69922 4.293-0.40234 4.9961-2.4609 0.69922-2.0586-0.39844-4.293-2.457-4.9961-36.645-12.453-62.949 16.48-64.055 17.711-0.69531 0.78125-1.0547 1.8047-0.99219 2.8477 0.058594 1.043 0.53125 2.0156 1.3086 2.7109 1.625 1.4492 4.1133 1.3047 5.5586-0.31641z"/>
  <path d="m185.97 621.5c0 3.2344-2.6211 5.8594-5.8555 5.8594s-5.8555-2.625-5.8555-5.8594 2.6211-5.8555 5.8555-5.8555 5.8555 2.6211 5.8555 5.8555"/>
  <path d="m270.4 615.64c0 3.2344-2.625 5.8555-5.8594 5.8555-3.2344 0-5.8555-2.6211-5.8555-5.8555s2.6211-5.8555 5.8555-5.8555c3.2344 0 5.8594 2.6211 5.8594 5.8555"/>
  <path d="m340.56 627.91c0 3.2344-2.625 5.8555-5.8594 5.8555s-5.8555-2.6211-5.8555-5.8555 2.6211-5.8594 5.8555-5.8594 5.8594 2.625 5.8594 5.8594"/>
  <path d="m459.25 631.65c0 3.2344-2.6211 5.8555-5.8555 5.8555s-5.8555-2.6211-5.8555-5.8555c0-3.2344 2.6211-5.8555 5.8555-5.8555s5.8555 2.6211 5.8555 5.8555"/>
  <path d="m514.36 604.06c0 3.2344-2.6211 5.8555-5.8555 5.8555s-5.8594-2.6211-5.8594-5.8555 2.625-5.8594 5.8594-5.8594 5.8555 2.625 5.8555 5.8594"/>
  <path d="m618.03 629.48c0 3.2344-2.625 5.8555-5.8594 5.8555s-5.8555-2.6211-5.8555-5.8555 2.6211-5.8555 5.8555-5.8555 5.8594 2.6211 5.8594 5.8555"/>
 </g>
</svg>