<?xml version="1.0" encoding="UTF-8"?>
<!-- The Best Svg Icon site in the world: iconSvg.co, Visit us! https://iconsvg.co -->
<svg fill="#000000" width="800px" height="800px" version="1.1" viewBox="144 144 512 512" xmlns="http://www.w3.org/2000/svg">
 <g>
  <path d="m477.5 460.88c-2.1875 0-4.3633-0.84766-6.0117-2.5469-3.2188-3.3203-3.1328-8.6172 0.17969-11.832 13.125-12.73 18.137-15.922 29.172-22.535 3.9688-2.3789 9.0977-1.0859 11.477 2.8711 2.3789 3.9688 1.0898 9.1094-2.8711 11.473-9.8008 5.8828-13.855 8.3086-26.121 20.203-1.625 1.5781-3.7305 2.3555-5.8242 2.3555z"/>
  <path d="m530.61 484.3c-1.1133 0-2.25-0.22656-3.3242-0.69531-4.2461-1.8398-6.1797-6.7656-4.3398-11.008 8.1758-18.84 19.75-34.906 34.371-47.746 3.4688-3.0469 8.7656-2.6992 11.812 0.76562 3.0508 3.4688 2.7031 8.7617-0.76562 11.812-12.945 11.367-22.773 25.055-30.066 41.836-1.375 3.1562-4.4492 5.0352-7.6758 5.0352z"/>
  <path d="m577.87 525.45h-0.10547c-4.6289-0.058594-8.3203-3.8477-8.2734-8.4609 0.29688-24.457 25.047-76.938 35.078-90.754 2.7148-3.7422 7.9492-4.5781 11.691-1.8672 3.7422 2.7148 4.5781 7.9492 1.8672 11.691-8.8008 12.133-31.648 61.301-31.887 81.133-0.058593 4.5898-3.7891 8.2695-8.3711 8.2695z"/>
  <path d="m591.33 409.14c-1.8789 0-3.7539-0.63672-5.2969-1.8906l-14.848-12.156c-3.5742-2.9297-4.1016-8.1992-1.1719-11.773 2.9297-3.5742 8.1992-4.1016 11.777-1.1719l9.4414 7.7227 15.926-13.582c0.097656-2.4492-0.59766-7.293-0.95703-9.8008l-0.26172-1.8789-14.082-101.74-7.9883 65.688c-0.5625 4.5898-4.7227 7.8633-9.3125 7.2891-4.5898-0.55859-7.8555-4.7305-7.293-9.3086l10.699-88.02c0.83594-6.8242 6.5156-11.832 13.512-11.918 7.0781-0.058593 12.887 4.8555 13.891 11.727l17.422 125.78c1.2305 8.582 2.5078 17.465-2.3672 22.797-0.24219 0.25-0.48047 0.48828-0.74219 0.71484l-22.871 19.523c-1.5664 1.3359-3.5039 2.0078-5.4297 2.0078z"/>
  <path d="m534.36 407.42h-0.070312c-2.4648-0.023438-4.7969-1.125-6.3633-3.0117l-20.527-24.637c-4.2539-5.1055-3.3242-12.863-2.3555-21.078 0.16797-1.4102 0.33594-2.7852 0.44141-4.0391l15.09-166.06c0.65625-7.1719 6.5156-12.434 13.941-12.504 7.5078-0.10938 13.461 5.1289 14.262 12.348 0 0.046875 0 0.10547 0.011719 0.15625l15.09 166.06c0.10547 1.1367 0.23828 2.3672 0.37109 3.6211 0.88281 8.0352 1.707 15.625-1.7578 20.801-0.19141 0.27344-0.39453 0.55078-0.60938 0.80078l-21.199 24.637c-1.5898 1.8516-3.9102 2.918-6.3477 2.918zm-13.367-37.477 13.461 16.16 13.785-16.027c0.24219-2.1758-0.30859-7.1719-0.62109-9.9844-0.14453-1.3594-0.29688-2.6875-0.40625-3.918l-12.527-137.89-12.531 137.89c-0.13281 1.3867-0.3125 2.9141-0.49219 4.5039-0.30859 2.6055-0.85937 7.2344-0.66797 9.2773z"/>
  <path d="m486.62 394.52-216-0.070312c-2.918 0-5.6172-1.5195-7.1367-4.0039-1.5195-2.4883-1.6367-5.5859-0.3125-8.1797l25.336-49.488c1.4336-2.7969 4.3047-4.5547 7.4492-4.5547h166.35c3.1914 0 6.1094 1.8164 7.5078 4.6875l24.316 49.57c1.2695 2.5977 1.1133 5.668-0.40625 8.1172-1.5273 2.4531-4.207 3.9453-7.1016 3.9453zm-202.31-16.809 188.89 0.074218-16.102-32.824h-156.01l-16.762 32.762z"/>
  <path d="m411 443.76c-4.4492 0-8.1562-3.5156-8.3594-8-0.20312-4.6133 3.3711-8.5234 8-8.7266 9.1719-0.40625 18.293-0.8125 27.391-1.2305 58.332-2.6406 113.43-5.1289 175.25-5.1289 4.6289 0 8.3711 3.7422 8.3711 8.3672 0 4.6289-3.7422 8.3711-8.3711 8.3711-61.453 0-116.35 2.4844-174.49 5.1016-9.1094 0.40625-18.234 0.82422-27.402 1.2344h-0.37109z"/>
  <path d="m320.3 339.96c-4.625 0-8.3672-3.7422-8.3672-8.3672v-13.879c0-4.625 3.7422-8.3672 8.3672-8.3672 4.6289 0 8.3711 3.7422 8.3711 8.3672v13.879c0 4.625-3.7422 8.3672-8.3711 8.3672z"/>
  <path d="m401.3 318.99h-86.969c-2.832 0-5.4648-1.4336-7.0078-3.8008-1.5391-2.3672-1.7812-5.3555-0.64453-7.9492l16.883-38.215c1.3398-3.0391 4.3398-4.9844 7.6523-4.9844h53.203c3.3125 0 6.3125 1.957 7.6523 4.9844l16.879 38.215c1.1484 2.582 0.89844 5.582-0.64453 7.9492-1.543 2.3672-4.1836 3.8008-7.0039 3.8008zm-12.855-16.734-9.4922-21.48h-42.301l-9.4922 21.48z"/>
  <path d="m395.64 341.44c-4.6289 0-8.3711-3.7383-8.3711-8.3672v-15.109c0-4.625 3.7422-8.3672 8.3711-8.3672 4.625 0 8.3672 3.7422 8.3672 8.3672v15.109c0 4.6289-3.7422 8.3672-8.3672 8.3672z"/>
  <path d="m607.75 601.16c-2.9648 0-5.8359-1.5781-7.3516-4.3672-36-66.078-183.25-127.99-255.55-144.08-0.085938-0.023438-0.16797-0.035157-0.25391-0.058594-52.734-13.438-94.949-13.391-148.41-13.316h-11.727c-4.6289 0-8.3711-3.7422-8.3711-8.3711 0-4.625 3.7422-8.3672 8.3711-8.3672h11.703c54.59-0.058594 97.715-0.11719 152.44 13.809 70.633 15.754 226.25 78.488 266.49 152.39 2.2148 4.0664 0.71875 9.1445-3.3477 11.355-1.2656 0.69531-2.6406 1.0195-3.9922 1.0195z"/>
  <path d="m272.82 621.32c-4.5781 0-8.3203-3.6953-8.3672-8.2852-0.074219-2.2812-2.4141-13.281-22.527-65.543l-0.36719-0.96875c-16.883-43.883-28.039-72.883-60.426-110.06-3.0352-3.4922-2.668-8.7734 0.8125-11.812 3.4922-3.0352 8.7773-2.6641 11.812 0.8125 34.324 39.414 45.898 69.5 63.426 115.05l0.37109 0.96875c20.684 53.781 23.574 66.082 23.637 71.375 0.046875 4.6289-3.6602 8.4062-8.2852 8.4531h-0.085938z"/>
  <path d="m343.29 615.3c-4.1133 0-7.6992-3.0352-8.2852-7.2188-5.2227-37.789-60.891-139.18-93.062-169.51-3.3594-3.168-3.5156-8.4648-0.34766-11.836 3.168-3.3594 8.4648-3.5117 11.836-0.34766 34.684 32.707 92.477 138.32 98.156 179.39 0.63281 4.5781-2.5586 8.7969-7.1367 9.4336-0.39453 0.046875-0.77734 0.082031-1.1602 0.082031z"/>
  <path d="m415.1 610.77c-0.5 0-1.0156-0.046875-1.5273-0.14453-4.543-0.83594-7.5586-5.1992-6.707-9.7422 0.59766-4.3984-7.2227-25.809-41.047-75.191-23.371-34.117-50.594-68.781-63.328-80.617-3.3828-3.1406-3.5742-8.4375-0.42969-11.82s8.4375-3.5742 11.824-0.42969c13.844 12.871 41.652 48.207 66.137 84 46.762 68.375 44.152 82.469 43.305 87.105-0.74219 4.0312-4.2695 6.8516-8.2266 6.8516z"/>
  <path d="m486.72 607.29c-3.6953 0-7.0898-2.4727-8.082-6.2148-7.4492-27.949-74.965-111.8-107.04-141.01-3.4219-3.1094-3.6719-8.4023-0.55078-11.824 3.1094-3.418 8.4062-3.668 11.824-0.54688 27.652 25.172 102.53 113.77 111.94 149.07 1.1953 4.4727-1.4688 9.0508-5.9297 10.246-0.71875 0.19141-1.4453 0.28516-2.1641 0.28516z"/>
  <path d="m550.86 603.75c-3.3359 0-6.4922-2.0195-7.7969-5.3047-9.3594-23.836-74.711-91.043-99.793-113.04-3.4805-3.0508-3.8281-8.332-0.77734-11.812 3.0469-3.4805 8.332-3.8242 11.812-0.77734 21.102 18.504 92.609 89.629 104.34 119.5 1.6875 4.3047-0.42969 9.1562-4.7344 10.84-1.0039 0.39453-2.043 0.58594-3.0586 0.58594z"/>
  <path d="m289.34 418.28c-4.625 0-8.3672-3.7383-8.3672-8.3672v-23.199c0-4.6289 3.7422-8.3711 8.3672-8.3711 4.6289 0 8.3711 3.7422 8.3711 8.3711v23.199c0 4.6289-3.7422 8.3672-8.3711 8.3672z"/>
  <path d="m534.1 432.73c-4.625 0-8.3672-3.7422-8.3672-8.3672v-28.617c0-4.625 3.7422-8.3672 8.3672-8.3672 4.6289 0 8.3711 3.7422 8.3711 8.3672v28.617c0 4.625-3.7422 8.3672-8.3711 8.3672z"/>
  <path d="m589.97 436.31c-4.6289 0-8.3711-3.7422-8.3711-8.3672v-25.078c0-4.6289 3.7422-8.3672 8.3711-8.3672 4.625 0 8.3672 3.7383 8.3672 8.3672v25.078c0 4.625-3.7422 8.3672-8.3672 8.3672z"/>
  <path d="m203.56 403.38c-0.19141 0-0.37109 0-0.5625-0.027344-2.5352-0.16406-4.8398-1.4688-6.3008-3.5469l-17.824-25.488c-3.875-5.5352-3.0508-14.094-1.4727-25.57v-0.09375l12.508-139.49c0-0.12891 0.023438-0.25 0.046875-0.38281 0.98047-7.1602 7.0078-12.359 14.348-12.359 7.3281 0 13.355 5.1875 14.336 12.348 0 0.050781 0.011719 0.097656 0.023437 0.14453l16.902 141.52c1.3047 10.59 1.9492 18.48-1.5898 23.754-0.23828 0.34375-0.5 0.67969-0.78906 1.0039l-23.469 25.484c-1.5898 1.7227-3.8242 2.7031-6.1562 2.7031zm-10.605-38.121 11.504 16.434 15.348-16.664c0.35937-2.6875-0.45313-9.2383-0.84766-12.527l-14.324-119.96-10.543 117.83c-0.011719 0.12891-0.023438 0.26172-0.046875 0.39453l-0.035157 0.28516c-0.48047 3.4922-1.5781 11.477-1.0312 14.227z"/>
  <path d="m204.24 438c-4.625 0-8.3672-3.7422-8.3672-8.3672v-42.234c0-4.625 3.7422-8.3672 8.3672-8.3672 4.6289 0 8.3711 3.7422 8.3711 8.3672v42.234c0 4.625-3.7422 8.3672-8.3711 8.3672z"/>
  <path d="m465.86 415.92c-4.457 0-8.1641-3.5156-8.3555-8.0234l-0.58594-13.914c-0.19141-4.6133 3.3945-8.5117 8.0117-8.7148 4.6133-0.19141 8.5117 3.3945 8.7148 8.0117l0.58594 13.914c0.19141 4.6133-3.3945 8.5117-8.0117 8.7148h-0.35938z"/>
 </g>
</svg>