<?xml version="1.0" encoding="UTF-8"?>
<!-- The Best Svg Icon site in the world: iconSvg.co, Visit us! https://iconsvg.co -->
<svg fill="#000000" width="800px" height="800px" version="1.1" viewBox="144 144 512 512" xmlns="http://www.w3.org/2000/svg">
 <path d="m621.33 381.51-31.676-49.203c-12.641-19.633-34.387-31.5-57.738-31.5h-35.191l-70.145-106.95c-3.7188-5.668-10.926-7.9141-17.207-5.3555-6.125 2.4922-9.707 8.8984-8.6406 15.422l10.711 65.398-77.09-31.023c-6.0898-2.4531-13.07-0.36328-16.812 5.0312-3.875 5.5938-3.1953 13.148 1.6133 17.961l51.988 51.988c10.156 10.156 23.938 15.863 38.305 15.863h47.23v28.34l-127.52 0.003906c-65.641 0-119.68 49.602-126.72 113.36h-1.5859c-15.223 0.003906-27.559 12.34-27.559 27.559 0 7.3047 2.9023 14.316 8.0703 19.48l57.465 57.465 0.089844-0.22656c23.086 23.113 54.992 37.418 90.242 37.418h70.504c-2.6094-19.961-19.73-35.422-40.391-35.422h-15.945v-23.723l31.82-26.797c22.551-18.988 35.484-46.789 35.484-76.273v-15.492h10.625v15.492c0 32.621-14.312 63.383-39.266 84.398l-28.043 23.613v8.1562h5.3164c26.531 0 48.422 20.219 51.09 46.055h116.52v-1.7734c0-18.586-15.07-33.656-33.656-33.656v-21.254l17.18-14.465c31.785-26.762 50.129-66.195 50.129-107.75h32.359c12.746 0 24.41-7.1641 30.172-18.531 5.4453-10.711 4.7852-23.508-1.7188-33.609zm-68.684-12.855c-6.2617 0-11.578-4.5938-12.48-10.797l-1.4023-9.6172h12.473c6.2617 0 11.578 4.5938 12.48 10.797l1.4023 9.6172z"/>
</svg>