<?xml version="1.0" encoding="UTF-8"?>
<!-- The Best Svg Icon site in the world: iconSvg.co, Visit us! https://iconsvg.co -->
<svg fill="#000000" width="800px" height="800px" version="1.1" viewBox="144 144 512 512" xmlns="http://www.w3.org/2000/svg">
 <path d="m323.12 587.69h32.496v-292.86h-32.496zm-60.074-77.527h52.516v-31.207h-52.516zm143.68-154.77c3.4922 0.007813 6.7344 0.10156 9.875 0.29688 5.6172 0.29688 11.031 0.79297 16.098 1.4805 1.1055 0.078125 2.4062 0.26172 3.7188 0.45703 0.57031 0.050782 1.0312 0.14453 1.4102 0.24609 13.598 1.9492 27.152 5.668 40.434 11.074 3.4453 1.5117 6.7891 2.9883 10.031 4.5547 2.2148 1.1172 4.3477 2.2031 6.4883 3.3867l3.1914 1.7891c0.73828 0.41016 1.2656 0.71875 1.7188 1.0352 9.8398 5.7031 19.074 12.32 27.539 19.727l1.9844-1.457c-4.9844-11.305-11.664-21.691-19.848-30.875-5.9141-6.7852-12.41-12.695-19.285-17.551l-1.9453-1.4102c-8.8945-6.1523-18.68-11.047-29.102-14.562-2.0156-0.68359-3.9453-1.2422-5.8711-1.8008-7.8906-2.3516-16.266-4.2422-24.879-5.6172-2.6094-0.48047-5.1133-0.85547-7.7109-1.1328-8.8711-1.1445-18.516-1.7227-28.641-1.7227-8.1719 0-15.785 0.34375-23.277 1.0508-1.4375 0.003907-2.8672 0.035157-4.2539 0.066407l-1.2305 0.03125v32.984s4.043-0.10937 4.8359-0.10937c11.34-1.332 22.383-2.0039 32.949-2.0039 1.9336 0 3.8555 0.023438 5.7578 0.066407l0.039062-0.003907zm127.86-138.9c-14.32 25.438-38.348 72.086-38.348 98.68 0 6-0.31641 12.289-0.96875 19.227 0.39062 2.7148 0.57031 4.8203 0.57031 6.7422 0 0.67578 0.03125 1.3203 0.0625 1.9609l0.058594 1.4414 0.48047 0.35938c1.8398 1.3672 3.6445 2.793 5.4219 4.293l1.7695 1.5117c2.5352 2.2227 4.7148 4.2773 6.668 6.2773l1.1758 1.207 0.89062-1.4062c12.23-21.82 24.57-53.969 24.57-76.602l0.003906-67.879zm-77.422 58.797 1.0977 4.7734 1.0781 5.2383 0.99219 5.6094 0.86719 5.9102c0.10938 0.85156 0.63281 5.5391 0.68359 6.125 0.09375 0.98047 0.15625 1.957 0.22266 2.9336l0.23047 3.3477c0.10156 2.1016 0.16406 4.2188 0.16406 6.332v1.3594c0 2.9336 0.29688 6.1289 0.875 9.5l0.12109 0.72266 0.6875 0.25c7.4648 2.707 14.648 6.1133 21.359 10.121l1.6719 0.99219 0.41406-3.6055c-2.8828-17.906-15.352-42.98-25.305-60.918-0.83203-1.4062-2.2617-2.793-4.2656-4.1641l-2.7852-1.9062zm2.3242-52.297c-9.8906 17.73-27.305 51.18-32.82 75.957l-0.078125 0.35156 0.12109 0.33984c0.62109 1.7656 1.1953 3.4766 1.7305 5.1484l0.23438 0.77344c0.52734 1.6719 1.0039 3.293 1.4375 4.8672l0.43359 1.6367c0.33984 1.2891 0.64453 2.543 0.91406 3.7617l0.54688 2.4766 0.16406 0.84766 0.85156 0.14844c3.1719 0.5625 6.3125 1.1992 9.4023 1.8984l1.1328 0.27734c2.4492 0.5625 4.8867 1.1445 7.2656 1.7891l1.1055 0.30078 0.40234-1.0742c0.89062-2.4023 1.7656-4.832 2.5352-7.2812l0.03125-1.75s-0.054688-2.375-0.082032-3.125c0 0-0.23437-4.0703-0.29687-4.7461l-0.45313-4.6797-0.57422-4.5938s-0.54297-3.6367-0.67969-4.4492l-0.75391-4.2617-0.79688-4.0469-1.3242-5.8906-1.1406-4.5977-1.4375-5.2148c-0.38281-1.3359-0.70703-2.4102-0.96094-3.1953l-0.42188-1.3281c-0.49219-1.4531-0.18359-2.8984 0.74609-3.9102 0.71875-0.77344 1.7305-1.2188 2.7891-1.2188 0.30469 0 0.60938 0.035157 0.91016 0.10938l1.9102 0.55859 1.8789 0.65234 1.3789 0.53516 1.6992 0.73438 1.2148 0.57422 2.9062 1.4766 0.4375-1.8125v-42.254zm-66.277 77.738c0 4.1953 0.52344 8.918 1.543 14.039l0.20313 1 1.0117 0.015624c8.9688 0.13672 17.543 0.72266 25.484 1.75l1.7852 0.23047 0.51562-1.6523-0.30078-1.2344c-0.38281-1.5117-0.8125-3.0898-1.293-4.7227l-0.61328-2.0586c-0.64453-2.0547-1.3633-4.1953-2.1484-6.4141l-0.28125-0.82812c-6.4531-17.742-16.367-36.887-23.547-49.828l-2.3633-4.2539z"/>
</svg>