<?xml version="1.0" encoding="UTF-8"?>
<!-- The Best Svg Icon site in the world: iconSvg.co, Visit us! https://iconsvg.co -->
<svg fill="#000000" width="800px" height="800px" version="1.1" viewBox="144 144 512 512" xmlns="http://www.w3.org/2000/svg">
 <path d="m566.25 273.1h-219.16c-9.7617 0-19.523 3.4648-27.078 10.078l-60.773 51.324-37.785 11.336h-30.543c-6.2969 0-11.336 5.0391-11.336 11.336s5.0391 11.336 11.336 11.336h16.375l-1.2578 79.98c-0.62891 6.6133 3.7773 12.91 10.078 14.801l16.688 5.0391c3.7773 1.2578 8.1875 0.62891 11.652-1.5742l8.1875-5.0391c12.594-7.8711 23.617-18.262 32.117-30.23h33.371l13.227 15.742v68.957c0 6.2969 5.0391 11.336 11.336 11.336s11.336-5.0391 11.336-11.336v-70.215l15.43-9.1328 10.391 80.293c0.62891 5.668 5.668 9.7617 11.02 9.7617h1.5742c5.9844-0.94531 10.391-6.2969 9.7617-12.594l-11.02-84.387h101.71l22.043 11.965-22.984 70.535c-1.8906 5.9844 1.2578 12.281 7.2422 14.168 1.2578 0.31641 2.2031 0.62891 3.4648 0.62891 4.7227 0 9.1328-3.1484 10.707-7.8711l21.727-66.754 29.914 16.059v47.23c0 6.2969 5.0391 11.336 11.336 11.336s11.336-5.0391 11.336-11.336l-0.007812-71.793c0-2.5195-0.31641-5.0391-1.2578-7.2422l-14.484-43.77 9.1328-32.434c1.5742-5.0391 2.2031-10.391 2.2031-15.43l-0.003907-45.34c9.1328 5.668 15.43 15.742 15.43 27.078v75.57c0 6.2969 5.0391 11.336 11.336 11.336 6.2969 0 11.336-5.0391 11.336-11.336v-75.57c-0.94531-29.598-25.191-53.844-55.105-53.844zm-32.43 153.66-33.062-17.945c-1.5742-0.94531-3.4648-1.2578-5.3516-1.2578l-117.45-0.003906h-0.31641-0.94531c-0.31641 0-0.62891 0-0.94531 0.31641-0.31641 0-0.62891 0-0.62891 0.31641-0.94531 0.31641-1.5742 0.62891-2.5195 0.94531l-29.281 17-11.02-13.539c-2.2031-2.5195-5.3516-4.0938-8.5-4.0938h-45.348c-3.7773 0-7.5586 1.8906-9.4453 5.3516-7.2422 11.336-17.004 21.098-28.34 28.34l-5.0391 3.1484-7.2422-2.2031 1.2578-76.203 38.414-11.652c1.5742-0.31641 2.832-1.2578 4.0938-2.2031l62.66-53.215c3.4648-2.832 7.8711-4.7227 12.594-4.7227h212.55c0.31641 0 0.62891 0.31641 0.62891 0.94531v49.121c0 3.1484-0.31641 6.2969-1.2578 9.4453l-10.078 35.582c-0.62891 2.2031-0.62891 4.4102 0 6.6133l15.43 46.289z"/>
</svg>