<?xml version="1.0" encoding="UTF-8"?>
<!-- The Best Svg Icon site in the world: iconSvg.co, Visit us! https://iconsvg.co -->
<svg fill="#000000" width="800px" height="800px" version="1.1" viewBox="144 144 512 512" xmlns="http://www.w3.org/2000/svg">
 <g>
  <path d="m555.47 426.2h-31.516v-144.28c0-2.1719-1.7656-3.9375-3.9375-3.9375-2.1758 0-3.9375 1.7656-3.9375 3.9375v223.74c-0.003906 0.18359-0.050781 0.36719-0.13672 0.52734l-12.43 24.605c-0.98047 1.1406-2.4102 1.7969-3.918 1.7969-1.5039 0-2.9336-0.65625-3.9141-1.7969l-12.41-24.598c-0.089844-0.16406-0.13672-0.34766-0.14063-0.53516v-235.77h35.102-0.003906c1.7422-0.003906 3.4609-0.38281 5.0391-1.1172l36.117-16.824c4.1992-1.9648 6.8828-6.1758 6.8906-10.812v-44.066c5.0312-0.95703 9.25-4.3672 11.238-9.0859 1.9844-4.7227 1.4688-10.125-1.3672-14.387-2.8359-4.2617-7.6211-6.8203-12.742-6.8125h-127.59c-5.1211-0.007812-9.9062 2.5508-12.742 6.8125-2.8398 4.2617-3.3516 9.6641-1.3672 14.387 1.9883 4.7188 6.2031 8.1289 11.234 9.0859v44.055c0.011719 4.6328 2.6953 8.8438 6.8945 10.809l35.449 16.531-0.003906 157.73h-31.523c-6.7891 0.007813-13.301 2.7109-18.102 7.5117-4.8047 4.8047-7.5039 11.312-7.5117 18.105v58.871c0 13.641 4.9102 43.461 14.684 54.316l48.898 54.363c4.5664 5.0703 11.066 7.9688 17.887 7.9727 6.8242-0.003907 13.328-2.9023 17.895-7.9727l48.898-54.363c9.7773-10.871 14.68-40.691 14.68-54.316v-58.871c-0.007813-6.793-2.707-13.305-7.5117-18.105-4.8008-4.8008-11.312-7.5039-18.102-7.5117zm-127.07-244.12c0.003906-4.0977 3.3242-7.4141 7.418-7.418h127.61c4.0273 0.09375 7.2461 3.3867 7.2461 7.4141 0 4.0312-3.2188 7.3203-7.2461 7.4141h-127.61c-4.0938 0-7.4141-3.3164-7.418-7.4102zm12.41 59.039v-43.758h117.61v43.77c-0.003906 1.5742-0.91406 3.0078-2.3398 3.6758l-36.117 16.824c-0.53516 0.25391-1.1211 0.39062-1.7148 0.39453h-37.27c-0.58984-0.007813-1.1758-0.14063-1.7109-0.39453l-36.117-16.828c-1.4258-0.66406-2.3398-2.0977-2.3438-3.6719zm132.41 269.55c0 14.09-5.3164 40.898-12.668 49.066l-48.895 54.379c-3.0703 3.4141-7.4453 5.3633-12.039 5.3633-4.5898 0-8.9648-1.9492-12.035-5.3633l-48.898-54.363c-7.3477-8.1719-12.668-34.98-12.668-49.07l0.003906-58.871c0.007813-4.7031 1.8789-9.2148 5.2031-12.539 3.3281-3.3281 7.8359-5.1992 12.539-5.2031h31.516v71.59c0.003906 1.418 0.33984 2.8164 0.98437 4.0781l12.41 24.602c2.3359 3.8047 6.4805 6.125 10.945 6.125 4.4688 0 8.6133-2.3203 10.949-6.125l12.414-24.609c0.64063-1.2617 0.97656-2.6562 0.98047-4.0703v-71.59h31.516c4.7031 0.003907 9.2109 1.875 12.539 5.1992 3.3281 3.3281 5.1992 7.8398 5.2031 12.543z"/>
  <path d="m486.73 251.01h25.773-0.003906c1.3281 0.003906 2.6445-0.20703 3.9062-0.61719l22.984-7.5117c4.7031-1.4336 7.9414-5.7344 8.0273-10.648v-12.32c-0.19141-6.4023-5.5234-11.441-11.926-11.273h-71.754c-6.4023-0.16797-11.734 4.8711-11.926 11.273v12.32c0.082031 4.9102 3.3164 9.2109 8.0117 10.648l22.98 7.5117h0.003906c1.2656 0.41016 2.5898 0.62109 3.9219 0.61719zm-27.043-18.777v-12.32h-0.003906c0.19922-2.0508 2.0039-3.5625 4.0547-3.4023h71.754c2.0508-0.16016 3.8555 1.3516 4.0547 3.4023v12.32c-0.10156 1.4961-1.1484 2.7656-2.5977 3.1484l-22.996 7.5312c-0.46875 0.15234-0.95703 0.23047-1.4531 0.22656h-25.77c-0.49609 0-0.98828-0.074219-1.457-0.22656l-22.984-7.5117h-0.003906c-1.457-0.38672-2.5039-1.6641-2.6016-3.168z"/>
  <path d="m372.22 166.79c-5.0273-0.27344-9.957 1.4531-13.715 4.7969-3.7617 3.3477-6.0469 8.043-6.3594 13.066v108.75-0.003906c-1.0156 4.7969-5.2461 8.2305-10.152 8.2305-4.9023 0-9.1367-3.4336-10.148-8.2305v-105.79c0-11.48-10.531-20.82-23.48-20.82s-23.484 9.3398-23.484 20.82l-0.003906 105.79c-0.58984 5.043-5.0898 8.6992-10.148 8.2344-5.0586 0.46484-9.5664-3.1875-10.156-8.2344v-108.75c-0.3125-5.0195-2.5938-9.7109-6.3477-13.055s-8.6758-5.0742-13.695-4.8086c-5.0273-0.27344-9.957 1.4531-13.715 4.7969-3.7617 3.3477-6.0469 8.043-6.3594 13.066v109.97c0 26.965 25.117 48.906 55.992 48.906h4.1055v262.36-0.003906c0 8.5039 4.5352 16.359 11.902 20.613 7.3633 4.25 16.438 4.25 23.801 0 7.3633-4.2539 11.898-12.109 11.898-20.613v-247.47c0-2.1719-1.7617-3.9336-3.9336-3.9336-2.1758 0-3.9375 1.7617-3.9375 3.9336v17.711h-31.836v-32.602h43.836c30.879 0 55.992-21.938 55.992-48.906l0.003906-109.97c-0.31641-5.0195-2.5977-9.7148-6.3555-13.059-3.7539-3.3477-8.6797-5.0703-13.703-4.8047zm-63.844 455.03c-4.2227-0.003906-8.2734-1.6875-11.258-4.6719-2.9883-2.9883-4.668-7.0391-4.6719-11.262v-33.145h31.859v33.145c-0.003907 4.2227-1.6836 8.2734-4.668 11.262-2.9883 2.9844-7.0352 4.668-11.262 4.6719zm15.93-237.81v180.86h-31.859v-180.86zm60.098-89.383c0 22.625-21.586 41.031-48.121 41.031h-55.812c-26.535 0-48.121-18.41-48.121-41.031v-109.97c0.67188-6.0859 6.0781-10.52 12.18-9.9922 6.1055-0.54688 11.531 3.8945 12.199 9.9922v108.75-0.003906c0.27344 4.5195 2.3242 8.75 5.6992 11.766s7.8086 4.5781 12.328 4.3398c4.5195 0.23438 8.9492-1.3242 12.324-4.3438 3.375-3.0156 5.4219-7.2422 5.6953-11.762v-105.79c0-7.1406 7.0039-12.949 15.613-12.949 8.6133 0 15.609 5.8086 15.609 12.949l0.003906 105.79c0.66797 5.9609 4.2422 11.203 9.5469 14.004 5.3008 2.8047 11.648 2.8047 16.949 0 5.3008-2.8008 8.875-8.043 9.5469-14.004v-108.75c1.1602-5.8125 6.2617-9.9961 12.188-9.9961s11.027 4.1836 12.184 9.9961z"/>
 </g>
</svg>