<?xml version="1.0" encoding="UTF-8"?>
<!-- The Best Svg Icon site in the world: iconSvg.co, Visit us! https://iconsvg.co -->
<svg fill="#000000" width="800px" height="800px" version="1.1" viewBox="144 144 512 512" xmlns="http://www.w3.org/2000/svg">
 <g>
  <path d="m567.83 256.1h-0.94141c-23.617 0-43.141 19.207-43.141 43.141v57.938c-22.355-31.805-59.199-52.27-100.76-52.27-68.016 0-123.43 55.418-123.43 123.43v92.891l-47.547-0.003907v-25.82c15.43-6.6133 23.301-27.711 23.301-63.293 0-32.434-7.2422-87.535-34.637-87.535s-34.637 55.105-34.637 87.535c0 35.582 7.8711 56.68 23.301 62.977v25.82h-28.969c-6.2969 0-11.336 5.0391-11.336 11.336s5.0391 11.336 11.336 11.336h399.27c6.2969 0 11.336-5.0391 11.336-11.336l0.003906-88.164v-144.84c0-23.617-19.207-43.141-43.141-43.141zm-327.16 112.73c4.4102 6.2969 11.965 28.023 11.965 63.605 0 26.766-4.4102 42.508-11.965 42.508-7.5586 0-11.965-16.375-11.965-42.508 0-35.895 7.5586-57.309 11.965-63.605zm305.75-1.5742h41.879v65.809h-41.879zm0-68.012c0-11.336 9.1328-20.469 20.469-20.469h1.2578c11.336 0 20.469 9.1328 20.469 20.469v45.344h-41.879v-45.344zm-91.945 221.99h-63.289v-44.715h63.605v44.715zm68.961 0h-46.289v-56.047c0-6.2969-5.0391-11.336-11.336-11.336h-85.961c-6.2969 0-11.336 5.0391-11.336 11.336v56.047h-46.289v-93.203c0-55.418 45.027-100.76 100.76-100.76s100.76 45.027 100.76 100.76v93.203zm64.863 0h-41.879v-65.809h41.879z"/>
  <path d="m441.56 377.33h-37.469c-6.2969 0-11.336 5.0391-11.336 11.336 0 6.2969 5.0391 11.336 11.336 11.336h37.156c6.2969 0 11.336-5.0391 11.336-11.336 0.3125-6.3008-4.7266-11.336-11.023-11.336z"/>
 </g>
</svg>