<?xml version="1.0" encoding="UTF-8"?>
<!-- The Best Svg Icon site in the world: iconSvg.co, Visit us! https://iconsvg.co -->
<svg fill="#000000" width="800px" height="800px" version="1.1" viewBox="144 144 512 512" xmlns="http://www.w3.org/2000/svg">
 <path d="m496 377.9-24.461 32.535v-65.07zm30.77-40.922h-48.926l24.461 32.535zm-48.926 81.836h48.918l-24.461-32.535zm55.223-8.3789v-65.07l-24.461 32.535zm95.32 17.824v15.113h-195.6c-0.83594-5.1797-2.168-10.184-3.9531-14.977-4.1172-11.055-10.551-20.969-18.812-29.078l-0.003906-124.09 96.48-63.379 88.117 63.227v153.18zm-138.39-128.79h24.609v-30.762h-24.609zm53.141 27.438h-81.676v101.99h81.676zm-109.25 151.74h174.34v-15.113l-174.34-0.003906zm0 35.266h144.11v-15.113h-144.11zm-224.36-47.688h31.402v-77.133h-7.9922c-36.973 0-66.953 29.973-66.953 66.945v142.84c0 11.598 8.7578 21.73 20.328 22.48 12.688 0.82031 23.227-9.2266 23.227-21.734zm16.938 15.117h134.33v140.11l-134.31-0.003906h-0.019532v-140.1zm28.984 83.812c0 4.7617 3.8594 8.6211 8.6211 8.6211h58.891c4.7617 0 8.6211-3.8594 8.6211-8.6211v-43.609h-76.133zm98.891-176.06h-8.2461v77.137h31.633v133.39c0 12.027 9.75 21.781 21.781 21.781s21.781-9.75 21.781-21.781v-143.57c0.003907-36.977-29.973-66.949-66.949-66.949zm-98.891 77.133h76.129v-77.133h-76.129zm-11.871-138.61h0.12109c1.2539 26.949 23.438 48.43 50.699 48.43 27.262 0 49.445-21.484 50.699-48.43h0.12109v-9.2695h32.086v-21.461h-32.086v-22.59c0-20.441-16.57-37.004-37.012-37.004h-27.617c-20.441 0-37.012 16.57-37.012 37.004v22.59h-33.625v21.461h33.625v9.2695z"/>
</svg>