<?xml version="1.0" encoding="UTF-8"?>
<!-- The Best Svg Icon site in the world: iconSvg.co, Visit us! https://iconsvg.co -->
<svg fill="#000000" width="800px" height="800px" version="1.1" viewBox="144 144 512 512" xmlns="http://www.w3.org/2000/svg">
 <g>
  <path d="m288.04 445.18h-7.8711v136.82h183.1v-136.82z"/>
  <path d="m379.52 406.93h-99.344v30.387h183.1v-30.387z"/>
  <path d="m280.17 589.87v30.543h183.1v-30.543z"/>
  <path d="m363.77 399.05h7.875v-98.875h-30.543v98.875z"/>
  <path d="m447.84 399.05c-0.47266-37.629-30.859-68.016-68.328-68.488v68.484h60.457z"/>
  <path d="m225.22 380.48c12.754-2.2031 25.664 1.1016 35.738 9.1328l11.809 9.4453h25.191l-27.078-21.727c-13.699-10.863-31.332-15.43-48.492-12.281-17.16 2.9922-32.117 13.383-41.094 28.34-10.707 17.789-11.492 39.516-2.2031 58.094l38.414 76.832c7.0859 14.168 19.836 25.191 34.953 30.23l19.836 6.7695v-16.688l-14.957-5.0391c-11.18-3.6211-20.469-11.809-25.82-22.355l-38.414-76.832c-6.7695-13.699-6.1406-29.758 1.7305-42.824 6.6133-11.18 17.637-18.738 30.387-21.098z"/>
  <path d="m558.68 400-9.6055 55.891-77.934 68.645v80.766l100.76-127.68 55.422-12.754z"/>
 </g>
</svg>