<?xml version="1.0" encoding="UTF-8"?>
<!-- The Best Svg Icon site in the world: iconSvg.co, Visit us! https://iconsvg.co -->
<svg fill="#000000" width="800px" height="800px" version="1.1" viewBox="144 144 512 512" xmlns="http://www.w3.org/2000/svg">
 <g>
  <path d="m222.2 428.71h181.52v33.102h-181.52z"/>
  <path d="m256.71 592.71h112.55l20-123.34h-152.6z"/>
  <path d="m243.21 365.59h34.762c2.1172 0 3.7773 1.7148 3.7773 3.7773v51.793h54.262v-65.496c0-2.0664 1.7148-3.7773 3.7773-3.7773h42.219c8.7148 0 15.82-7.1055 15.82-15.871v-69.273c0-3.5781-1.5117-7.0547-4.1328-9.5742-2.168-2.0156-4.9375-3.1758-7.707-3.1758h-0.55469c-2.8711 0.20312-5.543 1.4102-7.5586 3.4258-2.168 2.2148-3.4258 5.2383-3.4258 8.3125v52.75c0 2.0664-1.6641 3.7773-3.7773 3.7773h-30.883c-2.0664 0-3.7773-1.7148-3.7773-3.7773v-55.82c0-15.012-12.191-27.258-27.105-27.258-7.2539 0-14.055 2.8203-19.246 7.9609-5.0898 5.1875-7.9102 12.043-7.9102 19.297v80.609c0 2.0664-1.6641 3.7773-3.7773 3.7773h-29.273c-2.0664 0-3.7773-1.7148-3.7773-3.7773v-44.891c0-2.2656-0.90625-4.332-2.4688-5.9453-1.6133-1.6133-3.6758-2.5195-5.8945-2.5195h-0.65625c-4.2812 0.35156-7.7578 4.3828-7.7578 9.0703v51.488c0 8.3633 6.75 15.117 15.066 15.117zm66.199-124.19c2.0664 0 3.7773 1.7148 3.7773 3.7773 0 2.1172-1.7148 3.7773-3.7773 3.7773-7.5078 0-13.602 6.1484-13.602 13.703 0 2.0664-1.7148 3.7773-3.7773 3.7773-2.1172 0-3.7773-1.7148-3.7773-3.7773-0.003906-11.734 9.4688-21.258 21.156-21.258zm-21.16 37.184c0-2.1172 1.6641-3.7773 3.7773-3.7773 2.0664 0 3.7773 1.6641 3.7773 3.7773v57.938c0 2.1172-1.7148 3.7773-3.7773 3.7773-2.1172 0-3.7773-1.6641-3.7773-3.7773z"/>
  <path d="m529.78 207.29c-26.449 0-47.961 21.613-47.961 48.164 0 26.602 21.512 48.215 47.961 48.215 26.5 0 48.012-21.613 48.012-48.215 0-26.551-21.512-48.164-48.012-48.164zm-23.074 76.629c-0.70703 0.70703-1.6641 1.1094-2.6719 1.1094-1.0078 0-1.9648-0.40234-2.6719-1.1094-14.66-14.66-15.566-38.492-2.1172-54.359 0.70703-0.80469 1.7617-1.3086 2.8711-1.3086 0.90625 0 1.7617 0.30078 2.4688 0.90625 1.5625 1.3594 1.7617 3.7266 0.40234 5.3398-10.934 12.848-10.176 32.195 1.7109 44.082 0.70703 0.70703 1.1094 1.6641 1.1094 2.6719 0.003906 1.0039-0.39844 1.9609-1.1016 2.668zm19.547-60.812c-3.2227 0.40234-6.3477 1.2109-9.2695 2.4688-0.50391 0.25-1.0078 0.35156-1.5117 0.35156-1.5117 0-2.8711-0.90625-3.4766-2.2656-0.40234-0.95703-0.40234-1.9648-0.050782-2.9219 0.35156-0.95703 1.1094-1.6641 2.0156-2.0664 3.6289-1.5625 7.457-2.6211 11.387-3.0742h0.050782c2.3164 0 3.9297 1.4609 4.1797 3.3242 0.20312 2.0703-1.2578 3.9844-3.3242 4.1836z"/>
  <path d="m532.86 326.18c-0.5625-0.32422-1.207-0.49609-1.8594-0.49609-1.3594 0-2.6172 0.73047-3.2891 1.9023l-20.152 35.266c-0.5 0.875-0.63281 1.8945-0.36719 2.8672s0.89453 1.7852 1.7695 2.2891c0.57031 0.32812 1.2188 0.5 1.8711 0.5 1.3555 0 2.6133-0.73047 3.2852-1.9023l20.152-35.266c0.5-0.875 0.63281-1.8945 0.36719-2.8672-0.26953-0.98047-0.89844-1.793-1.7773-2.293z"/>
  <path d="m500.76 315.61c-1.1562 0-2.2344 0.51562-2.9531 1.418l-20.152 25.191c-0.63281 0.78906-0.91797 1.7734-0.80859 2.7773 0.11328 1.0039 0.60938 1.9023 1.3984 2.5312 0.67969 0.54688 1.4922 0.83203 2.3594 0.83203 1.1562 0 2.2305-0.51562 2.9531-1.418l20.152-25.191c0.63281-0.78906 0.91797-1.7734 0.80859-2.7773-0.11328-1.0039-0.60938-1.9023-1.3984-2.5312-0.67969-0.54688-1.4922-0.83203-2.3594-0.83203z"/>
  <path d="m470.53 295.46c-0.86328 0-1.6758 0.28516-2.3555 0.82812l-25.191 20.152c-0.78906 0.62891-1.2852 1.5273-1.3984 2.5312-0.10938 1.0039 0.17578 1.9883 0.80859 2.7812 0.72266 0.89844 1.7969 1.418 2.9531 1.418 0.86719 0 1.6797-0.28516 2.3555-0.82812l25.191-20.152c0.78906-0.62891 1.2852-1.5273 1.3984-2.5312 0.10938-1.0039-0.17578-1.9883-0.80859-2.7773-0.71875-0.90234-1.793-1.4219-2.9531-1.4219z"/>
  <path d="m420.15 227.45h35.266c2.082 0 3.7773-1.6953 3.7773-3.7773s-1.6953-3.7773-3.7773-3.7773h-35.266c-2.082 0-3.7773 1.6953-3.7773 3.7773-0.003906 2.082 1.6914 3.7773 3.7773 3.7773z"/>
  <path d="m453.76 255.58c0.45313-0.90234 0.52344-1.9297 0.20313-2.8867-0.51563-1.5469-1.9492-2.5898-3.5742-2.5898-0.41016 0-0.8125 0.066406-1.207 0.19922l-30.23 10.078c-0.95703 0.32031-1.7344 0.99219-2.1836 1.8945-0.45312 0.90234-0.52344 1.9297-0.20312 2.8867 0.51953 1.5469 1.9609 2.5859 3.5898 2.5859 0.40625 0 0.80859-0.066406 1.1953-0.19531l30.23-10.078c0.95312-0.32031 1.7305-0.98828 2.1797-1.8945z"/>
 </g>
</svg>