<?xml version="1.0" encoding="UTF-8"?>
<!-- The Best Svg Icon site in the world: iconSvg.co, Visit us! https://iconsvg.co -->
<svg fill="#000000" width="800px" height="800px" version="1.1" viewBox="144 144 512 512" xmlns="http://www.w3.org/2000/svg">
 <path d="m267.14 312.07c5.3828-2.3164 9.168-7.6641 9.168-13.887v-9.332c0-8.3359-6.7812-15.113-15.113-15.113h-73.367c-8.3359 0-15.113 6.7812-15.113 15.113v9.332c0 6.5234 4.1797 12.043 9.9805 14.156l-9.4609 28.195c-8.0234 23.902-12.09 48.805-12.09 74.016v108.04c0 11.113 9.0391 20.152 20.152 20.152h87.336c11.113 0 20.152-9.0391 20.152-20.152l-0.003906-108.04c0-25.211-4.0664-50.109-12.09-74.016zm-84.352-23.219c0-2.7773 2.2617-5.0391 5.0391-5.0391h73.367c2.7773 0 5.0391 2.2617 5.0391 5.0391v9.332c0 2.7773-2.2617 5.0391-5.0391 5.0391h-73.367c-2.7773 0-5.0391-2.2617-5.0391-5.0391zm95.918 233.74c0 5.5547-4.5195 10.078-10.078 10.078h-21.641c11.215-6.1172 19.367-16.086 15.668-25.164-4.4609-10.945-16.512-11.297-25.203-6.082-8.6914 5.2148-9.5117-1.9766-17.379-3.4766-18.25-3.4766-14.773 15.641-14.773 15.641-0.5 8.9648 1.6484 15.121 5.3633 19.078l-29.371 0.003906c-5.5586 0-10.078-4.5234-10.078-10.078v-43.242c6.832 4.6641 18.059 8.4766 25.461-8.8789 14.301-33.531-12.852-46.914-25.461-51.172v-4.75c0-24.117 3.8906-47.941 11.566-70.805l10.215-30.445h63.922l10.215 30.445c4.0352 12.02 6.9922 24.309 8.9219 36.762-10.98 4.2266-52.613 22.418-37.922 50.336 16.863 32.051-0.14062 33.047 25.016 44.586 7.5234 3.4531 12.438 0.48828 15.555-6.1367zm-46.926-171.91c4.7812 12.602-6.082 31.285-28.676 30.414-8.1914-0.31641-13.035-3.043-14.773-9.9922-3.457-13.828 9.5586-18.684 9.5586-18.684 11.297-24.766 30.379-11 33.891-1.7383zm243.68 0.19531h-8.043c-2.082-2.9766-4.8516-5.8008-8.3555-8.3945v-0.003906c-0.26172-0.1875-0.28906-0.76562-0.078125-1.2773 0.98438-2.3242 1.4805-4.7305 1.4805-7.1523 0-9.7578-7.9648-18.715-21.852-24.578-0.53125-0.22266-0.55078-1.0273-0.55078-1.2578 0-2.9805 0-10.895-32.641-27.133-3.0781-1.5312-6.6094-1.5312-9.6914 0-32.641 16.234-32.641 24.152-32.641 27.211 0 0.15625-0.019532 0.95312-0.54688 1.1797-13.887 5.8633-21.852 14.82-21.852 24.578 0 2.4141 0.49609 4.8203 1.4766 7.1445 0.21484 0.51953 0.18359 1.0977-0.074218 1.2891-3.5078 2.5938-6.2734 5.418-8.3594 8.3945h-8.043c-5.5586 0-10.078 4.5195-10.078 10.078v12.562c0 5.2617 4.0703 9.5469 9.2188 9.9883l12.91 137.36c0.48438 5.2109 4.7969 9.1367 10.031 9.1367h1.7852v3.4453c0 5.5547 4.5195 10.078 10.078 10.078h81.879c5.5547 0 10.078-4.5234 10.078-10.078v-3.4453h1.7852c5.2344 0 9.543-3.9258 10.031-9.1328l12.906-137.37c5.1484-0.44531 9.2188-4.7266 9.2188-9.9883v-12.562c0-5.5547-4.5195-10.074-10.074-10.074zm-127.38-0.29687c4.0234-2.9727 5.4062-8.4414 3.3711-13.293-0.45703-1.0859-0.6875-2.1758-0.6875-3.2383 0-5.4297 5.8672-11.145 15.691-15.293 4.1094-1.7344 6.7422-5.8672 6.6836-10.289 0.625-2.2031 8.5273-9.1406 27.07-18.363 0.12109-0.0625 0.24219-0.089844 0.36328-0.089844 0.12109 0 0.24219 0.03125 0.35938 0.089844 18.543 9.2266 26.449 16.16 27.051 18.125-0.023437 4.6602 2.6094 8.793 6.7109 10.527 9.8242 4.1484 15.691 9.8672 15.691 15.293 0 1.082-0.22656 2.1406-0.6875 3.2383-2.043 4.8516-0.65625 10.316 3.3711 13.293 0.125 0.09375 0.25391 0.20312 0.37891 0.29687h-105.75c0.125-0.09375 0.25391-0.20312 0.37891-0.29687zm-22.395 10.375h149.77l0.003907 12.562h-149.77zm137.99 49.332h-126.21l-2.5078-26.695h131.23zm-6.6523 70.801h-112.9l-5.707-60.723h124.32zm-15.5 52.363h-81.891v-3.4453h81.887zm11.852-13.52h-105.6l-2.7031-28.766h111.01zm165.33-263.47h-84.129c-11.113 0-20.152 9.0391-20.152 20.152v147.82c0 11.113 9.0391 20.152 20.152 20.152h21.102v77.984c0 11.559 9.4023 20.961 20.961 20.961 11.562 0 20.965-9.4023 20.965-20.961v-77.988h21.102c11.113 0 20.152-9.0391 20.152-20.152v-147.82c0-11.109-9.0391-20.148-20.152-20.148zm-31.18 266.11c0 6.0039-4.8867 10.883-10.887 10.883-6.0039 0-10.883-4.8789-10.883-10.883v-77.988h21.77zm41.254-98.141c0 5.5547-4.5234 10.078-10.078 10.078h-84.125c-5.5547 0-10.078-4.5234-10.078-10.078v-147.82c0-5.5586 4.5234-10.078 10.078-10.078h84.129c5.5547 0 10.078 4.5195 10.078 10.078zm-67.406-137.6v127.39c0 2.7852-2.2539 5.0391-5.0391 5.0391-2.7852 0-5.0391-2.2539-5.0391-5.0391v-127.39c0-2.7812 2.2539-5.0391 5.0391-5.0391 2.7852 0 5.0391 2.2578 5.0391 5.0391zm40.613 0v127.39c0 2.7852-2.2539 5.0391-5.0391 5.0391-2.7852 0-5.0391-2.2539-5.0391-5.0391l0.003906-127.39c0-2.7812 2.2539-5.0391 5.0391-5.0391 2.7812 0 5.0352 2.2578 5.0352 5.0391z"/>
</svg>