<?xml version="1.0" encoding="UTF-8"?>
<!-- The Best Svg Icon site in the world: iconSvg.co, Visit us! https://iconsvg.co -->
<svg fill="#000000" width="800px" height="800px" version="1.1" viewBox="144 144 512 512" xmlns="http://www.w3.org/2000/svg">
 <path d="m595.78 172.42c-1.4961-1.7031-3.6562-2.6797-5.9219-2.6758h-370.64c-2.2656 0-4.4219 0.97656-5.9141 2.6797-1.4961 1.7031-2.1836 3.9688-1.8867 6.2148l8.4141 64.258c-18.414 69.355-24.883 111.52-6.7773 135.06 6.9023 8.4453 16.254 14.547 26.766 17.469l27.277 208.25h-0.003906c0.97656 7.3359 4.582 14.07 10.145 18.953s12.707 7.582 20.109 7.5977h214.39c7.4023-0.015625 14.547-2.7148 20.109-7.5977s9.168-11.617 10.141-18.953l55.68-425.09c0.28125-2.2305-0.40234-4.4727-1.8789-6.1641zm-14.887 13.066-2.418 18.414h-347.88l-2.4102-18.414zm-345.27 56.805-2.9688-22.648h251.72c-7.2344 35.898-41.086 167.76-149.11 167.76-27.152 0.99219-54.344-0.50781-81.223-4.4844l-18.422-140.64zm-10.094 126.1c-10.824-14.051-8.9492-42.207-0.078125-82.535l12.02 91.758v-0.003906c-4.6484-2.0938-8.7383-5.2539-11.941-9.2188zm300.84 233.27c-0.47266 3.5508-2.2188 6.8125-4.9141 9.1758-2.6914 2.3633-6.1523 3.6719-9.7344 3.6797h-214.39c-3.582-0.011719-7.0391-1.3203-9.7305-3.6836-2.6953-2.3633-4.4375-5.6211-4.9102-9.1719l-26.5-202.27c26.219 3.2969 52.652 4.5625 79.066 3.7891 122.98-0.03125 158.68-149.81 165.14-183.54h76.004z"/>
</svg>