<?xml version="1.0" encoding="UTF-8"?>
<!-- The Best Svg Icon site in the world: iconSvg.co, Visit us! https://iconsvg.co -->
<svg fill="#000000" width="800px" height="800px" version="1.1" viewBox="144 144 512 512" xmlns="http://www.w3.org/2000/svg">
 <path d="m596.48 591.45h-181.56c-14.168-63.219-17.055-126.73-15.562-179.44 7.957 2.5586 23.695 6.7852 40.863 6.7852 13.359 0 27.562-2.5625 39.578-10.484 33.414-22.023 35.457-75.875 35.527-78.156 0.066407-2.1328-1.2148-4.0703-3.1953-4.8477-2.1211-0.83984-52.422-20.203-85.836 1.8242-10.863 7.1523-18.391 17.68-23.633 28.695 2.7656-30.66 6.375-53.375 8.2383-63.965 8.5664 3.0195 25.297 7.9453 43.297 7.9453 12.391 0 25.355-2.3438 36.625-9.2539 34.109-20.93 37.891-74.691 38.031-76.969 0.13672-2.125-1.0781-4.1016-3.0391-4.9414-2.0977-0.90234-51.734-21.879-85.844-0.94531-34.109 20.93-37.891 74.684-38.031 76.961 0 0.039062 0.011719 0.074219 0.011719 0.11719-0.74219 3.875-2.7422 14.879-4.9688 31.355-3.5-18.289-12.098-44.785-33.145-58.652-33.406-22.012-83.703-2.6602-85.828-1.8242-1.9805 0.77734-3.2578 2.7148-3.1953 4.8477 0.070313 2.2773 2.1172 56.133 35.527 78.156 12.02 7.918 26.219 10.484 39.578 10.484 19.91 0 37.902-5.6836 44.043-7.8555-6.1836 58.918-10.348 154.73 10.648 250.16h-201.11c-2.7812 0-5.0391 2.2539-5.0391 5.0391s2.2578 5.0391 5.0391 5.0391h207.07c0.10156 0.003906 0.1875 0.050781 0.28906 0.050781 0.14453 0 0.29297-0.035157 0.4375-0.050781h185.17c2.7812 0 5.0391-2.2539 5.0391-5.0391s-2.2578-5.0391-5.0391-5.0391zm-164.62-255.89c24.453-16.113 61.727-5.8125 73.156-2.0664-1.0547 11.984-6.3008 50.301-30.754 66.418-24.453 16.102-61.727 5.8125-73.156 2.0625 1.0586-11.988 6.3047-50.301 30.754-66.414zm-115.95-5.3086c-24.453-16.117-29.699-54.441-30.754-66.422 11.418-3.7695 48.652-14.082 73.156 2.0703 24.453 16.113 29.699 54.438 30.754 66.418-11.422 3.7656-48.652 14.074-73.156-2.0664zm129.35-113.95c24.973-15.324 61.898-3.8242 73.188 0.29688-1.4258 11.941-7.8711 50.039-32.883 65.391-24.953 15.316-61.883 3.8203-73.184-0.30078 1.4414-11.941 7.9219-50.07 32.879-65.387z"/>
</svg>