<?xml version="1.0" encoding="UTF-8"?>
<!-- The Best Svg Icon site in the world: iconSvg.co, Visit us! https://iconsvg.co -->
<svg fill="#000000" width="800px" height="800px" version="1.1" viewBox="144 144 512 512" xmlns="http://www.w3.org/2000/svg">
 <g>
  <path d="m628.29 541.7h-81.898c-13.105 0.03125-25.781-4.6406-35.734-13.164-23.301-20.07-61.293-32.523-102.79-33.93v-47.82c17.309-1.957 33.293-10.211 44.906-23.195 11.613-12.98 18.047-29.785 18.07-47.203v-31.488c0-2.0898-0.83203-4.0898-2.3047-5.5664-1.4766-1.4766-3.4805-2.3047-5.5664-2.3047-21.418 0-41.68 9.7031-55.105 26.387v-42.426c25.691-2.0156 49.68-13.637 67.188-32.547 17.508-18.91 27.246-43.727 27.277-69.496v-47.23c0-2.0898-0.83203-4.0898-2.3086-5.5664-1.4727-1.4766-3.4766-2.3086-5.5664-2.3086-23.695 0.03125-46.648 8.2734-64.953 23.32-18.305 15.047-30.832 35.969-35.449 59.211-18.305-31.574-52.031-51.02-88.523-51.043-4.3477 0-7.8711 3.5273-7.8711 7.875v47.23c0.027344 25.77 9.7656 50.586 27.273 69.496 17.508 18.91 41.496 30.531 67.188 32.547v42.43c-13.426-16.688-33.688-26.391-55.102-26.391-4.3477 0-7.875 3.5234-7.875 7.8711v31.488c0.027343 17.418 6.457 34.219 18.07 47.203s27.598 21.238 44.906 23.195v16.328c-41.492 1.4062-79.488 13.863-102.79 33.93v0.003906c-9.9531 8.5234-22.629 13.195-35.734 13.164h-81.895c-4.3477 0-7.875 3.5234-7.875 7.8711v78.723c0 2.0859 0.83203 4.0898 2.3086 5.5664 1.4766 1.4727 3.4766 2.3047 5.5664 2.3047h456.58c2.0859 0 4.0898-0.83203 5.5664-2.3047 1.4727-1.4766 2.3047-3.4805 2.3047-5.5664v-78.723c0-2.0859-0.83203-4.0898-2.3047-5.5664-1.4766-1.4766-3.4805-2.3047-5.5664-2.3047zm-220.42-275.52c0.023437-21.598 8.1094-42.406 22.668-58.355 14.559-15.953 34.547-25.895 56.051-27.883v39.004c-0.023438 20.242-7.1328 39.84-20.086 55.395-12.957 15.555-30.945 26.09-50.848 29.777l38.094-57.141 0.019531-0.03125 0.011719-0.015625c1.1875-1.7383 1.6328-3.8789 1.2344-5.9453-0.39844-2.0664-1.6094-3.8867-3.3633-5.0547-1.75-1.168-3.8984-1.5859-5.9609-1.1602-2.0586 0.42578-3.8633 1.6602-5.0117 3.4258l-32.809 49.215zm0 141.7c0.015625-13.246 4.7969-26.047 13.469-36.059 8.6719-10.016 20.656-16.574 33.762-18.484v23.055c-0.011718 11.754-3.7773 23.195-10.746 32.66-6.9688 9.4648-16.777 16.461-27.996 19.965l21.648-32.465 0.019532-0.03125 0.011718-0.015625v-0.003906c1.1914-1.7344 1.6367-3.875 1.2383-5.9453-0.40234-2.0664-1.6133-3.8867-3.3633-5.0547-1.7539-1.168-3.8984-1.5859-5.9609-1.1602-2.0625 0.42969-3.8672 1.6641-5.0117 3.4297l-17.07 25.598zm-61.652-129.46 0.011719 0.015626 0.019531 0.03125 38.094 57.141v-0.003906c-19.906-3.6836-37.895-14.219-50.848-29.773-12.957-15.555-20.062-35.152-20.09-55.395v-39.004c21.504 1.9883 41.492 11.93 56.051 27.883 14.559 15.949 22.645 36.758 22.668 58.355v21.234l-32.812-49.215 0.003906-0.003906c-1.1445-1.7656-2.9492-3-5.0117-3.4297-2.0625-0.42578-4.2109-0.007812-5.9609 1.1602-1.7539 1.168-2.9648 2.9883-3.3633 5.0547-0.39844 2.0703 0.046875 4.2109 1.2383 5.9453zm15.742 149.57 0.011718 0.015625 0.019532 0.03125 21.648 32.465v-0.003906c-11.219-3.5039-21.027-10.496-27.996-19.961s-10.734-20.906-10.75-32.66v-23.055c13.109 1.9102 25.094 8.4688 33.762 18.484 8.6719 10.012 13.453 22.812 13.469 36.059v5.4883l-17.066-25.602c-1.1445-1.7656-2.9492-3-5.0117-3.4258-2.0625-0.42578-4.207-0.007812-5.9609 1.1602-1.75 1.168-2.9609 2.9883-3.3594 5.0547-0.40234 2.0664 0.042969 4.207 1.2344 5.9453zm258.45 192.43h-440.83v-62.977h74.023c16.875 0.03125 33.199-5.9922 46.008-16.977 20.57-17.719 54.738-28.758 92.512-30.109v20.215l-11.129 11.129h-12.484c-4.3477 0-7.875 3.5234-7.875 7.8711v31.488c0 4.3477 3.5273 7.8711 7.875 7.8711 4.3477 0 7.8711-3.5234 7.8711-7.8711v-23.617h7.8711c2.0898 0 4.0898-0.82812 5.5664-2.3047l10.18-10.176 7.8711 7.8711v20.355c0 2.0859 0.82812 4.0898 2.3047 5.5664 1.4766 1.4766 3.4805 2.3047 5.5664 2.3047h13.121l29.387 22.043v-0.007812c3.4766 2.6055 8.4062 1.9023 11.012-1.5742 2.6055-3.4727 1.9023-8.4023-1.5742-11.008v-0.007812l-31.488-23.617v0.003907c-1.3594-1.0195-3.0117-1.5742-4.7109-1.5742h-7.8711l-0.003907-15.746c0-2.0859-0.82812-4.0898-2.3047-5.5664l-13.438-13.438v-20.215c37.773 1.3516 71.941 12.391 92.512 30.109v0.003907c12.809 10.984 29.133 17.008 46.008 16.977h74.023z"/>
  <path d="m281.92 581.05c0 4.3477-3.5234 7.8711-7.8711 7.8711s-7.8711-3.5234-7.8711-7.8711c0-4.3477 3.5234-7.8711 7.8711-7.8711s7.8711 3.5234 7.8711 7.8711"/>
  <path d="m211.07 596.8c0 4.3477-3.5234 7.8711-7.8711 7.8711-4.3477 0-7.875-3.5234-7.875-7.8711 0-4.3477 3.5273-7.875 7.875-7.875 4.3477 0 7.8711 3.5273 7.8711 7.875"/>
  <path d="m344.89 596.8c0 4.3477-3.5234 7.8711-7.8711 7.8711-4.3477 0-7.875-3.5234-7.875-7.8711 0-4.3477 3.5273-7.875 7.875-7.875 4.3477 0 7.8711 3.5273 7.8711 7.875"/>
  <path d="m525.95 588.93c0 4.3477-3.5234 7.875-7.8711 7.875s-7.8711-3.5273-7.8711-7.875c0-4.3477 3.5234-7.8711 7.8711-7.8711s7.8711 3.5234 7.8711 7.8711"/>
  <path d="m470.85 549.57c0 4.3477-3.5234 7.8711-7.8711 7.8711-4.3477 0-7.875-3.5234-7.875-7.8711s3.5273-7.8711 7.875-7.8711c4.3477 0 7.8711 3.5234 7.8711 7.8711"/>
  <path d="m604.67 596.8c0 4.3477-3.5234 7.8711-7.8711 7.8711-4.3477 0-7.875-3.5234-7.875-7.8711 0-4.3477 3.5273-7.875 7.875-7.875 4.3477 0 7.8711 3.5273 7.8711 7.875"/>
 </g>
</svg>