<?xml version="1.0" encoding="UTF-8"?>
<!-- The Best Svg Icon site in the world: iconSvg.co, Visit us! https://iconsvg.co -->
<svg fill="#000000" width="800px" height="800px" version="1.1" viewBox="144 144 512 512" xmlns="http://www.w3.org/2000/svg">
 <g>
  <path d="m198.48 477.24c0 68.531 55.816 124.29 124.43 124.29 65.059 0 118.58-50.133 123.95-113.75 15.961 9.9336 34.215 15.168 53.242 15.168 55.66 0 100.94-45.227 100.94-100.82 0-53.508-41.984-97.297-94.766-100.51v-5.168c10.289 0.97266 36.691 1.7266 52.34-13.91 19.324-19.305 13.648-54.996 13.395-56.508-0.35156-2.125-2.0156-3.7891-4.1406-4.1406-1.5078-0.24609-36.496-5.7734-55.957 12.844 3.543-9.457 9.1836-19.789 18.227-27.363 2.1328-1.7852 2.4141-4.9609 0.625-7.0977-1.7852-2.1211-4.957-2.4141-7.0977-0.625-15.602 13.07-22.434 32.484-25.383 45.43-1.9062-3.543-4.2461-6.8633-7.1992-9.8086-19.324-19.289-55.047-13.621-56.574-13.375-2.125 0.35156-3.7891 2.0156-4.1406 4.1406-0.25 1.5117-5.9414 37.203 13.395 56.508 12.016 12 30.348 14.355 42.883 14.355 3.8477 0 7.1484-0.22266 9.5508-0.45313v5.0469c-45.816 1.8008-85.117 34.93-94.699 79.469-20.207-16.488-45.684-26.754-73.484-27.875v-7.082c11.859 1.3438 48.996 3.5117 70.441-17.906 25.23-25.199 17.758-72.07 17.434-74.051-0.35156-2.125-2.0156-3.7891-4.1406-4.1406-1.9961-0.33203-48.898-7.7891-74.129 17.406-1.9805 1.9766-3.707 4.1055-5.3047 6.3164 5.5977-20.934 18.031-50.117 45.312-65.746 2.4141-1.3789 3.2539-4.457 1.8633-6.8711-1.3789-2.4141-4.4688-3.2461-6.8711-1.8633-37.152 21.285-49.227 63.41-53.066 84.969-2.7539-6.1445-6.418-11.879-11.34-16.797-25.227-25.191-72.137-17.738-74.137-17.406-2.125 0.35156-3.7891 2.0156-4.1406 4.1406-0.32812 1.9844-7.8008 48.848 17.434 74.051 15.645 15.625 39.625 18.691 56.062 18.691 6.2031 0 11.309-0.43359 14.516-0.80078v7.0938c-66.328 2.6094-119.47 57.281-119.47 124.15zm124.43 114.21c-63.051 0-114.36-51.23-114.36-114.21 0-62.977 51.305-114.21 114.36-114.21s114.36 51.23 114.36 114.21c0 62.977-51.301 114.21-114.36 114.21zm239.6-360.05c0.80078 8.8984 1.4375 31.578-11.02 44.02-13.008 12.988-37.195 11.73-45.18 10.891 0.19531-14 1.2148-33.031 12.105-43.906 12.465-12.445 35.191-11.785 44.094-11.004zm-111.61 44.012c-12.461-12.438-11.82-35.121-11.02-44.012 8.9219-0.78125 31.625-1.4375 44.082 11.008 10.891 10.871 11.914 29.891 12.113 43.91-7.9688 0.84766-32.129 2.1445-45.176-10.906zm-40.648 113.19c6.5898-44.02 45.219-77.215 89.855-77.215 50.098 0 90.863 40.707 90.863 90.746 0 50.039-40.762 90.742-90.863 90.742-19.098 0-37.328-5.8633-52.793-16.914-0.34766-34.082-14.488-64.922-37.117-87.195 0.007813-0.058594 0.042969-0.10547 0.054688-0.16406zm-65.512-114.15c17.852-17.828 50.688-16.172 61.672-15.059 1.1445 10.969 2.8125 43.715-15.078 61.582-18.832 18.816-54.359 15.957-63.289 14.883 0.21094-19.117 1.2539-45.984 16.695-61.406zm-90.258 46.516c-17.844-17.82-16.207-50.609-15.074-61.586 10.984-1.1445 43.785-2.8125 61.672 15.059 15.434 15.418 16.48 42.27 16.695 61.406-8.9219 1.0781-44.453 3.9414-63.293-14.879z"/>
  <path d="m432.58 397.95c0.25781 0.035156 0.50781 0.054687 0.75 0.054687 2.4531 0 4.6055-1.793 4.9766-4.293 4.6094-30.805 31.641-54.035 62.875-54.035 2.7852 0 5.0391-2.2539 5.0391-5.0391s-2.2539-5.0391-5.0391-5.0391c-36.188 0-67.5 26.918-72.848 62.613-0.39844 2.7617 1.4961 5.3242 4.2461 5.7383z"/>
  <path d="m322.91 381.55c-49.887 0-90.473 40.543-90.473 90.375 0 2.7852 2.2539 5.0391 5.0391 5.0391s5.0391-2.2539 5.0391-5.0391c0-44.273 36.066-80.297 80.398-80.297 2.7852 0 5.0391-2.2539 5.0391-5.0391-0.003907-2.7891-2.2578-5.0391-5.043-5.0391z"/>
 </g>
</svg>