<?xml version="1.0" encoding="UTF-8"?>
<!-- The Best Svg Icon site in the world: iconSvg.co, Visit us! https://iconsvg.co -->
<svg fill="#000000" width="800px" height="800px" version="1.1" viewBox="144 144 512 512" xmlns="http://www.w3.org/2000/svg">
 <g>
  <path d="m430.86 344.37c0.21875 0.03125 0.4375 0.042968 0.65625 0.042968 2.4922 0 4.6602-1.8516 4.9883-4.3906 1.9102-14.719 10.328-28.062 22.516-35.691 2.3594-1.4766 3.0742-4.582 1.5977-6.9414-1.4766-2.3594-4.5938-3.0703-6.9414-1.5977-14.719 9.207-24.875 25.258-27.164 42.938-0.35937 2.7578 1.5859 5.2812 4.3477 5.6406z"/>
  <path d="m304.13 599.34c2.5352-0.75391 5.0508-1.7305 7.5039-2.9102 2.4531 1.1797 4.9688 2.1562 7.5078 2.9102 4.7344 1.4062 9.5664 2.082 14.434 2.082 21.465 0 43.562-13.172 60.738-34.949 22.812 22.504 52.949 35.039 84.078 35.035 2.5664 0 5.1523-0.085938 7.7305-0.25781 60.035-4.0078 109.42-55.02 114.88-118.65 2.9922-34.965-6.8555-69.004-27.73-95.848-7.2383-9.3125-10.789-21.414-9.9961-34.074 0.12109-1.957 0.18359-3.9336 0.18359-5.9297 0-26.086-9.7109-49.094-26.16-65.512 3.6914-1.1797 7.1406-2.6992 10.254-4.625 28.602-17.691 31.523-62.84 31.637-64.754 0.12109-2.1172-1.0938-4.082-3.0469-4.9219-1.7578-0.75391-43.473-18.289-72.074-0.60938-12.426 7.6875-19.961 20.559-25.043 33.824-2.1016-10.52-6.5664-24.312-16.016-39.32-1.4766-2.3477-4.5938-3.0547-6.9453-1.5781-2.3555 1.4805-3.0625 4.5938-1.5781 6.9453 14.434 22.926 16.152 42.93 16.254 50.117-3.9805 0.41797-6.4297 1.0273-6.4648 1.043-36.52 6.5234-65.543 38.223-70.578 77.09-0.6875 5.2852-0.92969 10.641-0.72656 15.922 0.52734 13.801-3.9883 28.07-12.719 40.176-3.5547 4.9336-6.7617 10.195-9.625 15.613-18.816-3.9141-37.801 0.67188-53.945 12.895v-24.148c9.707 0.85938 33.133 1.25 47.152-12.766 17.645-17.637 12.473-50.16 12.242-51.535-0.35156-2.125-2.0156-3.7891-4.1445-4.1445-1.3789-0.23047-33.898-5.4023-51.543 12.242-9.1562 9.1562-12.172 22.137-13.203 34.047-2.6055-6.2969-5.9023-12.805-10.066-18.992-1.5508-2.3086-4.6875-2.9219-6.9922-1.3672-2.3086 1.5508-2.9219 4.6836-1.3672 6.9922 14.629 21.742 17.645 48.746 17.844 50.695v8.9727c-17.711-13.406-38.852-17.652-59.418-11.539h-0.003906c-19.387 5.7539-34.43 19.57-42.363 38.906-8.2773 20.164-8.4609 44.926-0.54297 71.609 16.688 56.223 61.48 92.703 99.855 81.316zm23.375-253.52c10.934-10.934 30.812-10.562 39.047-9.8477 0.70312 8.2344 1.0859 28.102-9.8516 39.035-11.383 11.375-32.438 10.5-39.988 9.7617 0.1875-12.547 1.1914-29.348 10.793-38.949zm181.86-130.93c19.902-12.309 49.445-3.5352 59.398 0.003906-1.2734 10.484-6.6133 40.832-26.512 53.137-4.0508 2.5039-8.8594 4.1953-14.262 5.1016-10.227-7.6133-22.309-13.078-35.805-15.789-2.7812-0.55859-5.3867-0.87109-7.8867-1.0898 4.3672-15.566 11.297-32.848 25.066-41.363zm-106.34 135.09c-0.17969-4.7188 0.039062-9.5117 0.65234-14.242 4.4805-34.551 30.121-62.707 62.77-68.555 0.097656-0.023437 10.348-2.6484 23.75 0.042969 37.789 7.5859 63.176 39.539 63.176 79.516 0 1.7852-0.054687 3.5508-0.16406 5.3008-0.94531 15.113 3.3477 29.633 12.098 40.887 19.316 24.836 28.422 56.375 25.645 88.801-5.0312 58.727-50.387 105.78-105.5 109.46-31.949 2.0781-62.105-9.5938-85.164-32.98 7.793-11.648 14.258-25.207 18.711-40.199 7.9219-26.68 7.7344-51.445-0.54297-71.609-7.3125-17.82-20.715-30.863-37.938-37.316 2.4062-4.375 5.0078-8.6445 7.8984-12.656 10.035-13.922 15.227-30.418 14.613-46.453zm-188.9 100.26c6.7539-16.457 19.504-28.203 35.91-33.074h-0.003906c20.367-6.043 41.516-0.039063 58.027 16.48 0.94531 0.94531 2.2266 1.4766 3.5625 1.4766s2.6172-0.53125 3.5625-1.4766c16.512-16.512 37.672-22.52 58.027-16.48 16.406 4.8711 29.16 16.613 35.91 33.074 7.3906 18.016 7.4648 40.461 0.20312 64.914-15.102 50.898-54.277 84.336-87.32 74.527-2.6992-0.80078-5.3828-1.9258-7.9648-3.3359-0.75391-0.41016-1.582-0.61328-2.4141-0.61328-0.83203 0-1.6602 0.20312-2.4141 0.61328-2.5859 1.4102-5.2656 2.5352-7.9609 3.3359-33.035 9.7969-72.215-23.625-87.332-74.527-7.2539-24.453-7.1836-46.902 0.20703-64.914z"/>
  <path d="m238.43 500.96c0.48047 0 0.97266-0.070313 1.457-0.21484 2.6641-0.80469 4.1719-3.6172 3.3672-6.2812-3.9648-13.121-3.4961-25.234 1.3164-34.109 3.4258-6.3164 8.8711-10.715 15.75-12.723 2.668-0.78125 4.2031-3.5781 3.4258-6.25-0.77734-2.668-3.5703-4.1992-6.25-3.4258-9.5156 2.7734-17.051 8.8594-21.785 17.594-6.1016 11.254-6.8516 26.109-2.1055 41.824 0.66016 2.1758 2.6602 3.5859 4.8242 3.5859z"/>
 </g>
</svg>