<?xml version="1.0" encoding="UTF-8"?>
<!-- The Best Svg Icon site in the world: iconSvg.co, Visit us! https://iconsvg.co -->
<svg fill="#000000" width="800px" height="800px" version="1.1" viewBox="144 144 512 512" xmlns="http://www.w3.org/2000/svg">
 <g>
  <path d="m396.45 251.14 15.68-1.4258 9.3047 102.34-15.68 1.4258z"/>
  <path d="m512.47 265.43 1.4375-15.742 15.68 1.4336-1.4375 15.742z"/>
  <path d="m510.95 534.54 15.68-1.4258 2.8594 31.484-15.68 1.4258z"/>
  <path d="m598.91 463.62 15.684-1.3086 12.469 149.57-15.684 1.3086z"/>
  <path d="m604.67 423.61c-0.019531-5.8281-2.2109-11.438-6.1406-15.742 4.0664-4.457 6.2617-10.305 6.1289-16.336-0.12891-6.0312-2.5781-11.777-6.8359-16.051-4.2578-4.2734-10-6.7422-16.027-6.8945l15.004-164.68c0.19922-2.207-0.53906-4.3984-2.0391-6.0352-1.4961-1.6367-3.6172-2.5625-5.8359-2.5547h-7.8711v-15.742h-15.742v15.742h-15.746v-23.613h-15.742v23.613h-15.746v-15.742h-15.742v15.742h-15.746v-31.488h-15.742v31.488h-15.746v-15.742h-15.742v15.742h-15.746v-15.742h-15.742v15.742h-15.746v-23.613h-15.742v23.613h-15.746v-15.742h-15.742v15.742h-7.8711c-2.2188-0.007813-4.3398 0.91797-5.8359 2.5547-1.5 1.6367-2.2383 3.8281-2.0391 6.0352l13.578 149.14c-1.8867-0.078125-3.7695-0.29297-5.7031-0.29297-50.625 0-97.402 27.008-122.71 70.848-25.312 43.844-25.312 97.855 0 141.7 25.312 43.84 72.09 70.848 122.71 70.848h251.9c2.207 0.007813 4.3164-0.91016 5.8125-2.5312 1.4961-1.6211 2.2422-3.7969 2.0625-5.9961l-15.035-180.47h-0.003906c6.1289-0.18359 11.945-2.7422 16.219-7.1367 4.2773-4.3945 6.6758-10.277 6.6914-16.41zm-393.6 70.848c0-33.402 13.27-65.438 36.891-89.059 23.621-23.621 55.656-36.891 89.062-36.891 33.402 0 65.441 13.27 89.062 36.891 23.617 23.621 36.891 55.656 36.891 89.059 0 33.406-13.273 65.441-36.891 89.062-23.621 23.621-55.66 36.891-89.062 36.891-33.395-0.039062-65.406-13.32-89.02-36.934-23.613-23.613-36.895-55.625-36.934-89.02zm369.98-62.977-102.34 0.003906v15.742h24.301l6.5039 71.566 15.68-1.4336-6.3359-70.133h47.074l14.43 173.18h-178.7c35.75-18.273 62.051-50.879 72.348-89.688 10.297-38.809 3.6211-80.164-18.367-113.76s-57.215-56.266-96.898-62.359l-13.078-143.54h234.66l-14.348 157.44h-47.129l7.8086-85.875-15.684-1.4336-7.9727 87.309h-32.172v-133.82h-15.746v133.82h-15.742v15.742h141.7c4.3477 0 7.8711 3.5234 7.8711 7.8711s-3.5234 7.875-7.8711 7.875h-118.08v15.742h118.08c4.3477 0 7.8711 3.5234 7.8711 7.8711 0 4.3477-3.5234 7.875-7.8711 7.875z"/>
  <path d="m329.8 580.76-1.3086 15.695c2.8086 0.22656 5.6602 0.34766 8.5273 0.34766 2.8672 0 5.7148-0.11719 8.5273-0.34766l-1.3086-15.695c-4.8047 0.39844-9.6328 0.39844-14.438 0z"/>
  <path d="m362.6 395.35-3.9375 15.258 0.003906-0.003907c24.98 6.4297 45.797 23.66 56.777 47.004 10.98 23.344 10.98 50.371 0 73.715-10.98 23.344-31.797 40.574-56.777 47.004l3.9375 15.258-0.003906-0.003906c29.535-7.5898 54.148-27.953 67.133-55.547 12.98-27.594 12.98-59.543 0-87.137-12.984-27.594-37.598-47.961-67.133-55.547z"/>
  <path d="m250.43 494.46c0.019531-17.906 5.5742-35.367 15.91-49.988 10.336-14.625 24.941-25.691 41.816-31.684l-5.2422-14.84v0.003906c-26.797 9.4492-48.457 29.613-59.797 55.664-11.34 26.051-11.34 55.641 0 81.691 11.34 26.051 33 46.215 59.797 55.664l5.2422-14.84v0.003907c-16.875-5.9922-31.48-17.059-41.816-31.684-10.336-14.621-15.891-32.086-15.91-49.992z"/>
  <path d="m289.79 494.46c-0.003906-11.199 3.9766-22.039 11.227-30.582 7.25-8.5391 17.297-14.223 28.352-16.039 11.055-1.8164 22.395 0.35547 31.996 6.1289l8.1172-13.477c-19.285-11.594-43.285-12.023-62.969-1.1211-19.684 10.898-32.055 31.473-32.457 53.969-0.40234 22.496 11.23 43.496 30.512 55.094l8.1172-13.477c-14.258-8.5-22.965-23.898-22.895-40.496z"/>
  <path d="m400 494.46c0.003906-11.434-3.1094-22.656-9.0078-32.453l-13.477 8.1172v-0.003906c8.1523 13.559 8.9727 30.297 2.1914 44.59-6.7852 14.293-20.273 24.238-35.93 26.496l2.2344 15.594c14.969-2.2148 28.645-9.7227 38.551-21.16 9.9023-11.438 15.379-26.047 15.438-41.18z"/>
  <path d="m360.64 494.46c0-6.2617-2.4883-12.27-6.9141-16.695-4.4297-4.4297-10.438-6.918-16.699-6.918v15.742c3.1836 0 6.0547 1.918 7.2734 4.8594 1.2148 2.9414 0.54297 6.3281-1.707 8.5781-2.2539 2.2539-5.6367 2.9258-8.5781 1.707-2.9453-1.2188-4.8633-4.0859-4.8633-7.2734h-15.742c0 8.4375 4.5 16.234 11.809 20.453 7.3047 4.2188 16.309 4.2188 23.617 0 7.3047-4.2188 11.805-12.016 11.805-20.453z"/>
  <path d="m173.7 552.19 14.84-5.2422h-0.003907c-12.941-36.738-11.828-76.969 3.1328-112.93 14.957-35.965 42.699-65.121 77.879-81.844l-6.7539-14.227c-38.699 18.395-69.215 50.461-85.668 90.023s-17.672 83.816-3.4258 124.22z"/>
  <path d="m202.06 575.59c-2.6523-4.4102-5.125-8.9961-7.3359-13.656l-14.227 6.7539c2.4414 5.125 5.1562 10.195 8.0859 15.035z"/>
 </g>
</svg>