<?xml version="1.0" encoding="UTF-8"?>
<!-- The Best Svg Icon site in the world: iconSvg.co, Visit us! https://iconsvg.co -->
<svg fill="#000000" width="800px" height="800px" version="1.1" viewBox="144 144 512 512" xmlns="http://www.w3.org/2000/svg">
 <path d="m607.04 367.82c-0.72266-0.11719-17.73-2.5898-27.312 7-7.4648 7.4648-7.6133 19.402-7.2656 24.672l-4.1055 4.1055v-29.891l9.6211-9.6211c0.78906 0.050781 1.668 0.09375 2.7031 0.09375 5.4336 0 13.738-1.0664 19.41-6.7383 8.5625-8.5664 6.6211-23.121 6.3711-24.75-0.32813-2.1758-2.043-3.8828-4.2148-4.2188-1.6328-0.25391-16.184-2.1914-24.746 6.3789-6.7422 6.7422-6.9727 17.172-6.6445 22.109l-2.4961 2.4961v-21.309c4.1133-3.8008 13.387-13.707 13.387-25.875 0-15.293-14.68-27.051-15.305-27.543-1.832-1.4414-4.4102-1.4414-6.2383 0-0.625 0.49219-15.305 12.25-15.305 27.543 0 12.168 9.2734 22.074 13.387 25.875v21.309l-2.4961-2.4961c0.32813-4.9375 0.097657-15.367-6.6445-22.109-8.5625-8.5625-23.113-6.6289-24.746-6.3789-2.1758 0.33594-3.8867 2.043-4.2148 4.2188-0.25 1.6328-2.1875 16.184 6.375 24.75 5.6719 5.6719 13.973 6.7383 19.406 6.7383 1.0312 0 1.9141-0.042969 2.7031-0.09375l9.6211 9.6211v29.891l-4.1055-4.1055c0.35156-5.2656 0.20312-17.207-7.2656-24.672-9.5781-9.5859-26.598-7.1133-27.312-7-2.1758 0.33203-3.8867 2.0391-4.2148 4.2188-0.11328 0.71875-2.582 17.73 6.9961 27.312 6.2344 6.2344 15.605 7.3672 21.598 7.3672 1.1953 0 2.1914-0.050781 3.0664-0.10938l11.238 11.238v3.7539l-54.016-0.003907c0.80859-5.5273 0.24609-10.34 0.12891-11.223-0.28906-2.1797-1.9531-3.918-4.1172-4.3008-0.48828-0.078125-10.02-1.6602-17.676 2.8984v-11.629c2.6211-0.875 4.957-2.3398 6.6758-4.3945 4.3398 0.41406 8.7734-1.1914 12.145-4.5625 3.3711-3.3672 4.9688-7.8125 4.5625-12.141 3.3047-2.7695 5.2891-7.0117 5.2891-11.719s-1.9844-8.9453-5.2891-11.719c0.41016-4.3281-1.1914-8.7734-4.5625-12.141-3.3711-3.3672-7.8047-4.9609-12.145-4.5625-2.7656-3.3047-7.0117-5.2891-11.715-5.2891-4.7031 0-8.9492 1.9844-11.715 5.2891-4.3438-0.41797-8.7773 1.1914-12.145 4.5625-3.3672 3.3672-4.9688 7.8164-4.5625 12.141-3.3047 2.7656-5.2891 7.0117-5.2891 11.719s1.9844 8.9492 5.2891 11.719c-0.41016 4.3242 1.1953 8.7734 4.5625 12.141 3.3672 3.3672 7.8047 4.9805 12.145 4.5625 1.7227 2.0547 4.0547 3.5195 6.6758 4.3945v11.625c-7.6562-4.5586-17.188-2.9766-17.668-2.8945-2.1641 0.38281-3.832 2.1211-4.1211 4.3008-0.11719 0.88281-0.67969 5.6953 0.12891 11.223h-17.133c0.80859-5.5273 0.24609-10.34 0.12891-11.223-0.28906-2.1797-1.9531-3.918-4.1172-4.3008-0.48828-0.078125-10.016-1.6602-17.672 2.8984v-11.625c2.6211-0.875 4.957-2.3359 6.6758-4.3945 4.3438 0.41406 8.7734-1.1914 12.145-4.5625 3.3711-3.3672 4.9688-7.8125 4.5625-12.141 3.3047-2.7695 5.2891-7.0117 5.2891-11.719 0-4.707-1.9844-8.9453-5.2891-11.719 0.41016-4.3281-1.1914-8.7734-4.5625-12.141-3.3711-3.3672-7.8047-4.9609-12.145-4.5625-2.7656-3.3047-7.0117-5.293-11.719-5.2891-4.707 0-8.9453 1.9844-11.715 5.2891-4.3438-0.41406-8.7734 1.1953-12.145 4.5625-3.3672 3.3672-4.9688 7.8125-4.5586 12.137-3.3047 2.7656-5.2891 7.0117-5.2891 11.719s1.9844 8.9492 5.2891 11.719c-0.41016 4.3242 1.1914 8.7695 4.5586 12.137 3.3672 3.3711 7.8047 4.9844 12.145 4.5625 1.7227 2.0586 4.0586 3.5195 6.6797 4.3945v11.625c-7.6562-4.5547-17.191-2.9805-17.672-2.8945-2.1641 0.38281-3.832 2.1211-4.1211 4.3008-0.11719 0.88281-0.67578 5.6953 0.12891 11.223h-10.59v-70.34c0-8.0117-6.5195-14.527-14.531-14.527l-94.98-0.003907c-3.6133 0-7.0781 1.3359-9.7578 3.7656l-68.406 62.004c-6.0039 5.4453-9.4492 13.211-9.4492 21.312l0.24219 38.203-4.6484 0.83594c-6.9219 1.2539-11.949 7.2656-11.949 14.301v23.836c0 5.3906 4.3867 9.7812 9.7852 9.7812h50.293v0.003906c0 25.004 20.344 45.344 45.344 45.344s45.344-20.34 45.344-45.344v-0.003906l161.22 0.003906c0 25.004 20.34 45.344 45.344 45.344s45.344-20.34 45.344-45.344h26.598c8.3359 0 15.113-6.7812 15.113-15.113l-0.003906-58.941c0-8.332-6.7812-15.113-15.113-15.113h-17.176v-3.7539l11.238-11.238c0.875 0.058594 1.8711 0.10938 3.0664 0.10938 5.9922 0 15.363-1.1328 21.598-7.3672 9.5781-9.582 7.1094-26.594 6.9961-27.312-0.33203-2.1758-2.043-3.8828-4.2188-4.2148zm-22.414-25.848c2.9648-2.9609 8.1953-3.7305 12.113-3.7695-0.039062 3.9141-0.80859 9.1484-3.7695 12.113-2.9648 2.9648-8.2031 3.7305-12.113 3.7695 0.042969-3.8828 0.8125-9.1523 3.7695-12.113zm-50.945 8.3438c-2.9609-2.9648-3.7344-8.1953-3.7734-12.109 3.8867 0.046874 9.1562 0.8125 12.113 3.7695 2.9648 2.9648 3.7344 8.2031 3.7734 12.109-3.8906-0.046875-9.1602-0.8125-12.113-3.7695zm-4.1758 41.91c-3.6406-3.6406-4.457-10.137-4.4297-14.711 4.6602-0.019531 11.074 0.78906 14.711 4.4297 3.6406 3.6367 4.457 10.125 4.4336 14.695-4.2148 0.054688-10.875-0.58203-14.715-4.4141zm-267.82 153.81c-19.445 0-35.266-15.824-35.266-35.266 0-19.445 15.82-35.266 35.266-35.266s35.266 15.824 35.266 35.266c0 19.445-15.82 35.266-35.266 35.266zm97.98-49.801c0 2.457-1.9961 4.4531-4.4531 4.4531h-49.352c-1.5703-6.8789-4.6836-13.172-8.9922-18.469 0.28516-0.14844 0.58594-0.25781 0.84375-0.46875l18.078-14.535c4.5742-3.6758 7.1992-9.1523 7.1992-15.02v-36.516h5.3008c2.7812 0 5.0391-2.2539 5.0391-5.0391l-0.003906-45.152c0-2.7812-2.2539-5.0391-5.0391-5.0391h-62.566c-1.25 0-2.457 0.46484-3.3828 1.3047l-49.816 45.152c-1.543 1.3984-2.0664 3.6016-1.3203 5.543 0.75 1.9453 2.6172 3.2266 4.6992 3.2266l97.016 0.003906v36.516c0 2.8008-1.2539 5.4102-3.4375 7.168l-18.078 14.535c-0.55859 0.44922-0.98438 0.99219-1.2969 1.5898-7.7812-6.2812-17.66-10.062-28.418-10.062-21.57 0-39.641 15.152-44.203 35.367l-51.141 0.19141v-23.836c0-2.1562 1.5391-4 3.6602-4.3828l4.6484-0.83594c4.6602-0.84766 8.043-4.8945 8.043-9.6289v-38.496c0-5.2656 2.2383-10.309 6.1367-13.848l68.41-62.004c0.82031-0.74219 1.8828-1.1523 2.9922-1.1523h94.977c2.457 0 4.4531 1.9961 4.4531 4.4531zm-130.7-90.629 38.699-35.078h55.582v35.078zm256.87 13.594c2.1367-2.457 5.7969-3.2422 8.7773-3.3828-0.023437 1.7695-0.20312 3.8086-0.60156 5.7812h-9.6367c0.42188-0.92578 0.89844-1.75 1.4609-2.3984zm-15.699-36.68c-0.61328-0.25-1.2656-0.375-1.9141-0.375-0.70312 0-1.4102 0.14844-2.0664 0.44141-2.0352 0.92188-4.0781-0.082032-5.3203-1.3203-1.2344-1.2383-2.2344-3.2852-1.3203-5.3164 0.56641-1.2617 0.58984-2.6992 0.0625-3.9844-0.52734-1.2773-1.5547-2.2891-2.8438-2.7852-2.0664-0.80078-2.8008-2.9258-2.8008-4.6484s0.73438-3.8516 2.8008-4.6484c1.2891-0.49609 2.3164-1.5039 2.8438-2.7852s0.5-2.7227-0.0625-3.9844c-0.91406-2.0312 0.082031-4.0781 1.3203-5.3164 1.2383-1.2383 3.2812-2.2344 5.3203-1.3203 1.2656 0.57031 2.707 0.58984 3.9805 0.066406 1.2773-0.52734 2.2891-1.5547 2.7852-2.8438 0.79688-2.0625 2.9258-2.8008 4.6484-2.8008 1.7227 0 3.8516 0.73438 4.6484 2.8008 0.49609 1.2891 1.5039 2.3164 2.7852 2.8438 1.2852 0.52344 2.7227 0.50391 3.9805-0.066406 2.0352-0.91406 4.0781 0.082031 5.3203 1.3203 1.2383 1.2383 2.2383 3.2852 1.3242 5.3203-0.56641 1.2617-0.58984 2.6992-0.0625 3.9805 0.52344 1.2773 1.5508 2.2852 2.8438 2.7852 2.0625 0.79688 2.793 2.9258 2.793 4.6484s-0.73438 3.8516-2.793 4.6484c-1.293 0.5-2.3203 1.5039-2.8438 2.7852-0.52734 1.2773-0.5 2.7188 0.0625 3.9805 0.91406 2.0312-0.082031 4.0781-1.3242 5.3203-1.2383 1.2383-3.2812 2.2422-5.3203 1.3203-1.2539-0.56641-2.6953-0.58594-3.9805-0.066406-1.2773 0.52734-2.2891 1.5547-2.7852 2.8438-0.79688 2.0625-2.9258 2.8008-4.6484 2.8008-1.7227 0-3.8516-0.73438-4.6484-2.8008-0.5-1.2891-1.5078-2.3164-2.7852-2.8438zm-0.82422 36.68c0.55469 0.64062 1.0273 1.4688 1.4492 2.3984h-9.6367c-0.39844-1.9609-0.57812-3.9883-0.59766-5.7617 2.8477 0.12109 6.5781 0.82031 8.7852 3.3633zm-54.016 0c2.1367-2.457 5.7969-3.2422 8.7773-3.3828-0.023438 1.7695-0.20312 3.8086-0.60156 5.7812h-9.6367c0.42187-0.92578 0.89844-1.75 1.4609-2.3984zm-15.695-36.676c-0.61328-0.25391-1.2656-0.37891-1.9141-0.37891-0.70703 0-1.4102 0.14844-2.0664 0.44141-2.0352 0.91406-4.0781-0.082032-5.3203-1.3242-1.2383-1.2383-2.2344-3.2852-1.3203-5.3125 0.56641-1.2617 0.59375-2.6992 0.070312-3.9844-0.52734-1.2773-1.5547-2.2891-2.8477-2.7852-2.0625-0.79688-2.7969-2.9258-2.7969-4.6484s0.73438-3.8516 2.7969-4.6484c1.293-0.49609 2.3203-1.5039 2.8477-2.7852 0.52344-1.2812 0.5-2.7227-0.070312-3.9844-0.91406-2.0312 0.082031-4.0781 1.3203-5.3125 1.2422-1.2383 3.2852-2.2344 5.3203-1.3242 1.2617 0.56641 2.6992 0.59375 3.9805 0.0625 1.2773-0.52344 2.2891-1.5508 2.7852-2.8438 0.79688-2.0625 2.9258-2.7969 4.6484-2.7969s3.8555 0.73438 4.6523 2.8008c0.49609 1.2891 1.5039 2.3164 2.7852 2.8438 1.2773 0.52344 2.7227 0.50391 3.9805-0.066406 2.0352-0.91406 4.0781 0.082031 5.3203 1.3203 1.2383 1.2383 2.2383 3.2852 1.3242 5.3203-0.56641 1.2617-0.58984 2.6992-0.0625 3.9805 0.52344 1.2773 1.5508 2.2852 2.8438 2.7852 2.0625 0.79688 2.793 2.9258 2.793 4.6484s-0.73438 3.8516-2.793 4.6484c-1.293 0.5-2.3203 1.5039-2.8438 2.7852-0.52734 1.2773-0.5 2.7188 0.0625 3.9805 0.91406 2.0312-0.082031 4.0781-1.3242 5.3203-1.2383 1.2383-3.2812 2.2422-5.3203 1.3203-1.2539-0.56641-2.6953-0.58594-3.9805-0.066406-1.2773 0.52734-2.2891 1.5547-2.7852 2.8438-0.79688 2.0625-2.9258 2.8008-4.6484 2.8008h-0.003906c-1.7227 0-3.8516-0.73438-4.6484-2.7969-0.49609-1.293-1.5039-2.3203-2.7852-2.8438zm-0.82422 36.676c0.5625 0.64844 1.0391 1.4727 1.4609 2.3984h-9.6484c-0.39844-1.9609-0.57812-3.9883-0.59766-5.7617 2.8477 0.12109 6.5781 0.82031 8.7852 3.3633zm114.82 126.84c-19.445 0-35.266-15.824-35.266-35.266 0-19.445 15.824-35.266 35.266-35.266 19.445 0 35.266 15.824 35.266 35.266 0 19.445-15.82 35.266-35.266 35.266zm71.941-114.36c2.7812 0 5.0391 2.2578 5.0391 5.0352v58.945c0 2.7812-2.2578 5.0391-5.0391 5.0391h-27.766c-4.5977-20.164-22.641-35.266-44.176-35.266s-39.578 15.105-44.176 35.266h-100.45c0.46094-1.4141 0.77344-2.8945 0.77344-4.457v-64.562zm-22.203-102.7c-3.3984-3.5469-8.3594-9.8945-8.3594-16.699 0-6.8477 4.9453-13.164 8.3398-16.699 3.3984 3.5469 8.3594 9.8945 8.3594 16.699 0 6.8438-4.9453 13.164-8.3398 16.699zm33.805 63.25c-3.6406 3.6406-10.078 4.4414-14.699 4.4297-0.039062-4.2422 0.58594-10.879 4.418-14.715 3.6406-3.6406 9.9883-4.6211 14.711-4.4297 0.027344 4.5781-0.78906 11.07-4.4297 14.715zm-175.9-27.695c0-7.832-6.3711-14.199-14.199-14.199-7.832 0-14.199 6.3672-14.199 14.199 0 7.832 6.3672 14.199 14.199 14.199 7.8281 0 14.199-6.3672 14.199-14.199zm-18.32 0c0-2.2734 1.8516-4.1211 4.1211-4.1211 2.2734 0 4.1211 1.8516 4.1211 4.1211 0 2.2734-1.8516 4.1211-4.1211 4.1211-2.2734 0.003906-4.1211-1.8477-4.1211-4.1211zm88.855 0c0-7.832-6.3711-14.199-14.199-14.199-7.8281 0-14.199 6.3672-14.199 14.199 0 7.832 6.3711 14.199 14.199 14.199 7.8281 0 14.199-6.3672 14.199-14.199zm-18.324 0c0-2.2734 1.8516-4.1211 4.1211-4.1211 2.2734 0 4.1211 1.8516 4.1211 4.1211 0 2.2734-1.8516 4.1211-4.1211 4.1211-2.2695 0.003906-4.1211-1.8477-4.1211-4.1211zm25.516-100.96c0-2.7812 2.2539-5.0391 5.0391-5.0391h9.625v-9.625c0-2.7812 2.2539-5.0391 5.0391-5.0391 2.7852 0 5.0391 2.2539 5.0391 5.0391v9.625h9.6289c2.7852 0 5.0391 2.2539 5.0391 5.0391 0 2.7812-2.2539 5.0391-5.0391 5.0391h-9.6289v9.625c0 2.7812-2.2539 5.0391-5.0391 5.0391-2.7852 0-5.0391-2.2539-5.0391-5.0391v-9.625h-9.625c-2.7852 0-5.0391-2.2539-5.0391-5.0391zm-86.941 29.883c0-2.7812 2.2539-5.0391 5.0391-5.0391h9.0664v-9.0703c0-2.7812 2.2539-5.0391 5.0391-5.0391 2.7852 0 5.0391 2.2539 5.0391 5.0391v9.0703h9.0742c2.7852 0 5.0391 2.2539 5.0391 5.0391 0 2.7812-2.2539 5.0391-5.0391 5.0391h-9.0742v9.0703c0 2.7812-2.2539 5.0391-5.0391 5.0391-2.7852 0-5.0391-2.2539-5.0391-5.0391v-9.0703h-9.0664c-2.7852 0-5.0391-2.2578-5.0391-5.0391zm231.71 8.4648c0 2.7812-2.2539 5.0391-5.0391 5.0391h-9.0742v9.0703c0 2.7812-2.2539 5.0391-5.0391 5.0391s-5.0391-2.2539-5.0391-5.0391v-9.0703h-9.0664c-2.7852 0-5.0391-2.2539-5.0391-5.0391 0-2.7812 2.2539-5.0391 5.0391-5.0391h9.0664v-9.0703c0-2.7812 2.2539-5.0391 5.0391-5.0391s5.0391 2.2539 5.0391 5.0391v9.0703h9.0742c2.7852 0 5.0391 2.2578 5.0391 5.0391zm-66.523-46.863c0-3.1016 2.5156-5.6172 5.6172-5.6172 3.1016 0 5.6172 2.5156 5.6172 5.6172s-2.5156 5.6172-5.6172 5.6172c-3.1016 0-5.6172-2.5117-5.6172-5.6172zm-92.992 61.105c0-3.1016 2.5156-5.6172 5.6172-5.6172 3.1016 0 5.6172 2.5156 5.6172 5.6172 0 3.1016-2.5156 5.6172-5.6172 5.6172-3.1016 0-5.6172-2.5117-5.6172-5.6172zm-119.49-13.32c0-3.1016 2.5156-5.6172 5.6172-5.6172s5.6172 2.5156 5.6172 5.6172c0 3.1016-2.5156 5.6172-5.6172 5.6172s-5.6172-2.5156-5.6172-5.6172zm-103.04 182.7c-13.91 0-25.223 11.316-25.223 25.227 0 13.902 11.312 25.219 25.223 25.219s25.223-11.316 25.223-25.219c0-13.914-11.312-25.227-25.223-25.227zm0 40.367c-8.3516 0-15.145-6.793-15.145-15.145 0-8.3555 6.793-15.148 15.145-15.148s15.145 6.793 15.145 15.148c0 8.3516-6.793 15.145-15.145 15.145zm251.91-40.367c-13.91 0-25.227 11.316-25.227 25.227 0 13.902 11.316 25.219 25.227 25.219s25.227-11.316 25.227-25.219c0-13.914-11.316-25.227-25.227-25.227zm0 40.367c-8.3555 0-15.148-6.793-15.148-15.145 0-8.3555 6.793-15.148 15.148-15.148s15.148 6.793 15.148 15.148c0 8.3516-6.793 15.145-15.148 15.145zm-218.19-81.883v-12.648c0-2.7812 2.2539-5.0391 5.0391-5.0391 2.7812 0 5.0391 2.2539 5.0391 5.0391v12.648c0 2.7852-2.2539 5.0391-5.0391 5.0391-2.7852-0.003907-5.0391-2.2539-5.0391-5.0391zm343.87-73.543c0 3.1016-2.5156 5.6172-5.6172 5.6172-3.1016 0-5.6172-2.5156-5.6172-5.6172 0-3.1016 2.5156-5.6172 5.6172-5.6172 3.1016 0 5.6172 2.5117 5.6172 5.6172z"/>
</svg>