<?xml version="1.0" encoding="UTF-8"?>
<!-- The Best Svg Icon site in the world: iconSvg.co, Visit us! https://iconsvg.co -->
<svg fill="#000000" width="800px" height="800px" version="1.1" viewBox="144 144 512 512" xmlns="http://www.w3.org/2000/svg">
 <path d="m432.17 323.1c2.9375 0 4.6562-0.63281 5.6602-1.4648l-9.0625-8.2695c-1.5391-1.4023-2.0547-3.6055-1.3047-5.543 0.75391-1.9414 2.6172-3.2188 4.6992-3.2188h25.266c2.082 0 3.9453 1.2773 4.6992 3.2148s0.23438 4.1406-1.3047 5.543l-9.0625 8.2734c1.0078 0.82812 2.7266 1.4609 5.668 1.4609 2.7852 0 5.0391 2.2539 5.0391 5.0391 0 2.7812-2.2539 5.0391-5.0391 5.0391-5.375 0-9.5859-1.4961-12.633-4.3398-3.0469 2.8438-7.2578 4.3398-12.629 4.3398-2.7852 0-5.0391-2.2539-5.0391-5.0391 0.003906-2.7812 2.2578-5.0352 5.043-5.0352zm39.82-59.281c3.9062 0 7.0703-3.1641 7.0703-7.0703s-3.1641-7.0703-7.0703-7.0703-7.0703 3.1641-7.0703 7.0703 3.1641 7.0703 7.0703 7.0703zm-54.387 0c3.9062 0 7.0703-3.1641 7.0703-7.0703s-3.1641-7.0703-7.0703-7.0703-7.0703 3.1641-7.0703 7.0703 3.1641 7.0703 7.0703 7.0703zm216.3 210.02c0 5.7266-2.6523 10.672-4.9922 15.035-1.3867 2.582-2.6953 5.0195-3.2852 7.2617-0.63281 2.4062-0.71875 5.2773-0.80859 8.3203-0.13672 4.8906-0.29688 10.43-3.0273 15.203-2.3828 4.1719-6.1836 6.8906-9.8438 9.2188v89.336c0 3.543-1.8203 6.7305-4.875 8.5273-1.5664 0.92578-3.293 1.3867-5.0234 1.3867-1.6445 0-3.293-0.41797-4.8008-1.2539l-7.8633-4.3633-7.8555 4.3594c-3.1133 1.7266-6.7812 1.6758-9.832-0.12891-3.0547-1.7969-4.875-4.9844-4.875-8.5273v-61.332c-0.47656 0.085938-1.0078 0.10938-1.4531 0.23047-2.1953 0.58984-4.5938 1.9141-7.1406 3.3125-1.4609 0.80469-3.0156 1.6133-4.6211 2.375v55.418c0 3.543-1.8203 6.7305-4.875 8.5273-3.0469 1.8047-6.7227 1.8516-9.8242 0.13281l-7.8633-4.3633-7.8633 4.3594c-1.5117 0.83984-3.1602 1.2578-4.8008 1.2578-1.7305 0-3.457-0.46094-5.0234-1.3828-3.0508-1.8008-4.875-4.9883-4.875-8.5312v-57.445c-1.7852 0.43359-3.2656 1.0156-4.8398 1.6367-3.6641 1.4453-7.8125 3.0898-15.695 3.0898-7.875 0-12.023-1.6445-15.684-3.0898-3.2344-1.2773-6.0234-2.3867-11.977-2.3867-5.9648 0-8.7578 1.1055-11.988 2.3867-3.6641 1.4453-7.8164 3.0898-15.699 3.0898-7.8867 0-12.039-1.6445-15.703-3.0898-1.5938-0.62891-3.0859-1.2148-4.8945-1.6484v57.449c0 3.543-1.8203 6.7305-4.875 8.5273-1.5664 0.92578-3.293 1.3867-5.0234 1.3867-1.6445 0-3.293-0.41797-4.8008-1.2539l-7.8594-4.3633-7.8594 4.3594c-3.1055 1.7266-6.7773 1.6758-9.8281-0.12891-3.0547-1.7969-4.875-4.9844-4.875-8.5273l-0.007812-55.418c-1.6016-0.76172-3.1602-1.5703-4.6211-2.375-2.543-1.3984-4.9453-2.7227-7.1445-3.3125-0.44531-0.12109-0.97656-0.14453-1.4531-0.23047v61.332c0 3.543-1.8242 6.7305-4.875 8.5273-1.5664 0.92578-3.293 1.3867-5.0234 1.3867-1.6445 0-3.293-0.41797-4.8008-1.2539l-7.8633-4.3633-7.8594 4.3594c-3.1016 1.7266-6.7695 1.6758-9.8281-0.12891-3.0547-1.7969-4.875-4.9844-4.875-8.5273l0.003906-89.332c-3.6602-2.3242-7.457-5.043-9.8438-9.2188-2.4922-4.3633-2.832-9.3398-2.9766-13.902-11.023-6.543-19.035-17.051-21.43-29.621l-4.2617-22.398c-0.8125-0.19922-1.6055-0.50391-2.3633-0.92969l-6.9844-3.8711-6.9883 3.8711c-1.4453 0.80859-3.0273 1.2109-4.6055 1.2109-1.6562 0-3.3086-0.44141-4.8086-1.3242-2.9258-1.7227-4.6758-4.7812-4.6758-8.1758v-43.516c-4.1758-1.6562-7.9336-3.8359-11.242-6.1875v49.707c0 3.3945-1.7461 6.4531-4.6758 8.1758-2.9258 1.7227-6.4453 1.7656-9.418 0.11328l-6.9844-3.8711-6.9883 3.8711c-1.4453 0.80859-3.0273 1.2109-4.6055 1.2109-1.6562 0-3.3086-0.44141-4.8086-1.3242-2.9258-1.7227-4.6758-4.7812-4.6758-8.1758l0.007813-81.527c-3.332-2.1289-6.7656-4.6289-8.9531-8.4609-2.5508-4.4609-2.6992-9.5938-2.8281-14.121-0.078125-2.7539-0.15234-5.3594-0.72266-7.5039-0.52734-2.0078-1.7148-4.2188-2.9727-6.5586-2.168-4.0391-4.625-8.6172-4.625-13.965s2.457-9.9258 4.625-13.965c1.2578-2.3398 2.4414-4.5508 2.9727-6.5547 0.56641-2.1484 0.64063-4.75 0.72266-7.5039 0.12891-4.5273 0.27734-9.6562 2.8281-14.121 2.5938-4.5391 6.9531-7.2461 10.797-9.6328 2.2891-1.4219 4.4453-2.7617 5.9453-4.2812 1.5-1.5195 2.8281-3.707 4.2305-6.0234 2.3555-3.8906 5.0312-8.3008 9.5234-10.934 4.4414-2.6016 9.5312-2.7539 14.023-2.8828 2.7109-0.082031 5.2734-0.15625 7.375-0.72656 1.9648-0.53125 4.1445-1.7305 6.4492-2.9961 4.0039-2.2031 8.543-4.6992 13.867-4.6992 7.3008 0 11.141 1.5195 14.527 2.8555 2.9258 1.1562 5.4492 2.1523 10.828 2.1523 5.3828 0 7.9062-0.99609 10.832-2.1523 3.3906-1.3398 7.2305-2.8555 14.527-2.8555s11.137 1.5195 14.523 2.8555c2.9219 1.1562 5.4414 2.1523 10.816 2.1523 5.3711 0 7.8906-0.99609 10.809-2.1484 1.3438-0.53125 2.7695-1.0898 4.4453-1.5703-0.78906-1.8594-1.2031-3.875-1.1133-5.9297 0.16406-3.7656 1.9062-7.3008 4.7852-9.7031 12.527-10.449 27.324-9.4609 37.113-7.0391-0.078125-0.95312-0.13281-1.918-0.13281-2.8945 0-17.594 12.957-31.91 28.883-31.91 6.3164 0 12.289 2.2227 17.246 6.3516 9.9102-8.2539 24.586-8.2539 34.496-0.003906 4.9531-4.125 10.922-6.3477 17.246-6.3477 15.926 0 28.887 14.316 28.887 31.91 0 0.97656-0.054687 1.9375-0.13281 2.8945 9.7891-2.4258 24.59-3.4102 37.113 7.0352 2.8789 2.4023 4.6211 5.9375 4.7812 9.7031 0.16797 3.8359-1.3047 7.5938-4.0352 10.309-6.4883 6.4414-17.91 15.168-32.133 15.168-1.6602 0-3.3711-0.16797-5.1016-0.42188l-12.57 66.09c-2.1992 11.551-9.5273 21.223-19.613 27.281-0.14453 4.1602-0.48047 8.6797-2.7734 12.684-2.1875 3.832-5.6211 6.332-8.9531 8.4609v24.379c3.082-0.40234 5.1562-1.207 7.4297-2.1016 3.6602-1.4492 7.8125-3.0898 15.695-3.0898 7.8867 0 12.039 1.6406 15.703 3.0859 3.2383 1.2773 6.0352 2.3828 12.004 2.3828s8.7656-1.1055 12.004-2.3828c3.6641-1.4453 7.8164-3.0859 15.699-3.0859 5.6992 0 10.602 2.6953 14.934 5.0781 2.543 1.3984 4.9453 2.7188 7.1445 3.3125 2.3477 0.63672 5.1758 0.72266 8.1641 0.80859 4.8555 0.14453 10.355 0.30469 15.105 3.0859 4.8008 2.8125 7.6914 7.5781 10.238 11.785 1.5508 2.5547 3.0117 4.9688 4.6953 6.668 1.6719 1.7031 4.0586 3.1797 6.5781 4.7461 4.1523 2.5781 8.8594 5.5 11.641 10.363 2.7305 4.7773 2.8867 10.316 3.0312 15.211 0.082031 3.0352 0.16797 5.9102 0.80078 8.3047v0.003906c0.58984 2.2383 1.8984 4.6797 3.2812 7.2578 2.3359 4.3672 4.9922 9.3164 4.9922 15.039zm-128.68-255.77c3.4141 6.3438 5.0312 13.297 4.7891 20.402 11.812 1.75 21.895-5.0586 28.789-11.898 0.72266-0.71875 1.1133-1.7109 1.0664-2.7227-0.023438-0.55469-0.20703-1.5977-1.1719-2.4023-11.703-9.7539-26.898-5.8086-33.473-3.3789zm-113.73-14.289c0 12.039 8.4375 21.836 18.809 21.836 5.043 0 9.7969-2.3477 13.391-6.6094 1.918-2.2695 5.7852-2.2695 7.7031 0 3.5977 4.2617 8.3555 6.6094 13.398 6.6094s9.7969-2.3477 13.391-6.6094c0.96094-1.1328 2.3672-1.7891 3.8516-1.7891 1.4844 0 2.8945 0.65625 3.8516 1.7891 3.5977 4.2617 8.3477 6.6094 13.391 6.6094 10.371 0 18.809-9.7969 18.809-21.836s-8.4375-21.832-18.809-21.832c-5.043 0-9.8008 2.3477-13.391 6.6094-1.918 2.2734-5.7852 2.2734-7.7031 0-3.5898-4.2617-8.3477-6.6094-13.391-6.6094s-9.8008 2.3477-13.398 6.6094c-1.918 2.2695-5.7852 2.2695-7.7031 0-3.5977-4.2617-8.3477-6.6094-13.391-6.6094-10.371 0-18.809 9.793-18.809 21.832zm-1.375 39.102 13.277 69.793c2.8477 14.992 17.359 25.875 34.496 25.875h13.801c17.137 0 31.645-10.879 34.5-25.875l13.273-69.793c0.98438-5.1875 0.57031-10.363-1.0703-15.242-5.0977 4.9922-11.781 8.0508-19.113 8.0508-6.3164 0-12.289-2.2227-17.246-6.3516-9.9141 8.2617-24.59 8.2539-34.496 0-4.9531 4.1289-10.926 6.3516-17.246 6.3516-7.332 0-14.016-3.0586-19.113-8.0508-1.6367 4.8789-2.0469 10.059-1.0625 15.242zm-40.398-19.027c-0.042968 1.0117 0.34766 2.0039 1.0703 2.7227 6.8906 6.8398 16.977 13.648 28.785 11.898-0.24219-7.1055 1.3711-14.055 4.7852-20.395-6.6055-2.418-21.84-6.3359-33.465 3.3711-0.96875 0.80469-1.1523 1.8477-1.1758 2.4023zm-131.45 206.02h-22v13.637l8.5547-4.7422c0.76172-0.42188 1.6016-0.63281 2.4414-0.63281 0.83984 0 1.6836 0.21094 2.4414 0.62891l8.5586 4.7461zm0-41.738c-3.5273-0.22266-7.2109-0.79297-10.535-2.7383-4.4922-2.6289-7.1641-7.0391-9.5195-10.934-0.65625-1.082-1.2969-2.125-1.9453-3.0977v48.43h22zm40.809 5.3633c-0.34766-7.9609 1.4805-15.746 5.3711-22.824-0.023437-0.054687-0.046875-0.10938-0.070312-0.16406-7.0742-2.6523-24.289-7.3359-37.41 3.6172-1.1914 0.99219-1.4219 2.2852-1.4531 2.9648-0.054688 1.2344 0.42187 2.4453 1.3047 3.3203 7.6953 7.6406 18.992 15.254 32.258 13.086zm1.3711 9.9648c-2.0195 0.32031-4.0156 0.53516-5.9453 0.53516-1.6562 0-3.2578-0.15625-4.8398-0.35938v16.156h13.891zm7.1914 37.816-2.168-11.406h-15.809v13.637l8.5547-4.7422c0.76172-0.42188 1.6016-0.63281 2.4414-0.63281 0.83984 0 1.6836 0.21094 2.4414 0.62891zm24.531-120.49c6.9219 0 13.453 2.4805 18.844 7.082 5.3867-4.6016 11.918-7.082 18.84-7.082s13.457 2.4805 18.844 7.082c5.3906-4.6016 11.922-7.082 18.844-7.082 17.145 0 31.09 15.43 31.09 34.398 0 1.2734-0.074219 2.5234-0.19531 3.7617 10.582-2.7344 26.961-4.0664 40.766 7.4453 1.5859 1.3203 2.8242 2.9766 3.6914 4.8164 0.40234-0.64063 0.80469-1.293 1.2109-1.9648 1.6445-2.7148 3.3438-5.5195 5.6758-7.8828 2.3438-2.3672 5.1172-4.0898 7.7969-5.7578 3.1094-1.9297 6.043-3.75 7.3711-6.0742 0.48438-0.84766 0.76562-1.8984 0.98047-3.0234-4.4922 1.3594-9.2734 2.1289-14.238 2.1289h-13.805c-21.973 0-40.641-14.328-44.395-34.07l-12.574-66.09c-1.7344 0.25391-3.4453 0.42578-5.1094 0.42578-11.062 0-20.395-5.2812-27.062-10.66-3.9297 0.23437-6.2422 1.0625-8.7305 2.0469-3.3867 1.3398-7.2227 2.8594-14.516 2.8594-7.293 0-11.133-1.5195-14.52-2.8555-2.9219-1.1562-5.4414-2.1523-10.82-2.1523-5.3789 0-7.9023 0.99609-10.828 2.1523-3.3906 1.3398-7.2344 2.8555-14.531 2.8555-7.3008 0-11.141-1.5195-14.527-2.8555-2.9258-1.1562-5.4492-2.1523-10.828-2.1523-2.7344 0-5.7852 1.6758-9.0117 3.4531-2.7227 1.5-5.5391 3.0469-8.668 3.8945-3.25 0.87891-6.5352 0.97656-9.7109 1.0703-3.6055 0.10547-7.0078 0.20703-9.2266 1.5039-2.2891 1.3398-4.0898 4.3125-5.9961 7.4609-1.6445 2.7148-3.3438 5.5195-5.6797 7.8828-2.3359 2.3672-5.1133 4.0898-7.7969 5.7578-3.1055 1.9297-6.0391 3.75-7.3672 6.0781-1.3008 2.2734-1.3984 5.7422-1.5039 9.4102-0.089844 3.2031-0.1875 6.5156-1.0508 9.7891-0.83203 3.1484-2.3555 5.9961-3.8359 8.7461-1.7617 3.2852-3.4258 6.3867-3.4258 9.1992s1.6641 5.9141 3.4258 9.1992c1.4766 2.75 3.0039 5.5977 3.8359 8.75 0.86719 3.2695 0.96094 6.5859 1.0547 9.7891 0.10156 3.6719 0.20312 7.1328 1.5039 9.4102 1.3281 2.3242 4.2617 4.1445 7.3672 6.0703 2.6875 1.668 5.4648 3.3906 7.8047 5.7617 2.332 2.3633 4.0312 5.1719 5.6758 7.8828 1.9062 3.1445 3.707 6.1172 5.9961 7.457 0.75781 0.44141 1.6875 0.71484 2.6836 0.92578-0.007813-0.32422-0.074219-0.64062-0.058594-0.96484 0.17188-3.9883 2.0156-7.7305 5.0625-10.27 13.801-11.512 30.18-10.18 40.762-7.4453-0.12109-1.2383-0.19531-2.4883-0.19531-3.7617-0.007812-18.973 13.938-34.402 31.082-34.402zm160.55 53.672c-2.0117 3.3203-4.3242 6.9531-7.7305 9.6016 1.1523 0.39062 2.207 0.80078 3.2148 1.1992 2.0312 0.80078 3.8867 1.5352 6.4609 1.9688v-15.867c-0.65234 0.97656-1.293 2.0156-1.9453 3.0977zm-19.977-0.32813c-13.199-11.008-30.355-6.3047-37.406-3.6367-0.027343 0.058594-0.050781 0.12109-0.078124 0.17969 3.8906 7.0781 5.7188 14.863 5.3711 22.824 13.266 2.168 24.562-5.4414 32.258-13.082 0.87891-0.875 1.3594-2.0859 1.3047-3.3203-0.027343-0.67969-0.25391-1.9727-1.4492-2.9648zm-65.207-43.27c-5.6484 0-10.973 2.6211-14.992 7.3867-0.95703 1.1328-2.3672 1.7891-3.8516 1.7891s-2.8945-0.65625-3.8516-1.7891c-4.0156-4.7617-9.3398-7.3867-14.992-7.3867-5.6484 0-10.973 2.6211-14.992 7.3867-1.9141 2.2695-5.7852 2.2734-7.6992 0.003906-4.0195-4.7656-9.3438-7.3867-14.992-7.3867-11.59 0-21.016 10.91-21.016 24.32s9.4258 24.32 21.016 24.32c5.6484 0 10.973-2.6211 14.992-7.3867 0.95703-1.1328 2.3672-1.7891 3.8516-1.7891 1.4844 0 2.8945 0.65625 3.8516 1.7891 4.0195 4.7617 9.3438 7.3867 14.992 7.3867 5.6523 0 10.973-2.6211 14.992-7.3867 0.96094-1.1367 2.3672-1.7891 3.8516-1.7891 1.4844 0 2.8945 0.65625 3.8516 1.7891 4.0195 4.7656 9.3438 7.3867 14.992 7.3867 11.586 0 21.012-10.91 21.012-24.32 0-13.414-9.4258-24.324-21.016-24.324zm-45.227 172.04h15.086c18.945 0 34.988-12.051 38.148-28.645l14.504-76.258c1.1406-6 0.60938-11.996-1.418-17.605-5.5469 5.6875-12.945 9.1953-21.086 9.1953-6.9219 0-13.453-2.4805-18.844-7.082-5.3867 4.6016-11.922 7.082-18.844 7.082s-13.453-2.4805-18.84-7.082c-5.3906 4.6016-11.922 7.082-18.844 7.082-8.1406 0-15.539-3.5078-21.09-9.1953-2.0273 5.6094-2.5586 11.605-1.418 17.605l14.504 76.258c3.1523 16.594 19.195 28.645 38.141 28.645zm21.512 115.16-0.046876-16.309h-25.188v16.461l10.043-5.8711c1.5195-0.84766 3.3711-0.84766 4.8906 0zm-0.074219-26.387-0.10547-35.504c-3.957-0.21484-8.1133-0.78125-11.82-2.9531-4.8047-2.8125-7.6914-7.582-10.238-11.785-1-1.6523-1.9844-3.1562-2.9922-4.5352v54.773zm58.414 26.387-0.046875-16.309h-25.188v16.461l10.043-5.8711c1.5195-0.84766 3.3711-0.84766 4.8906 0zm-0.078125-26.387-0.09375-31.535c-4.0703 0.30078-6.4648 1.2227-9.125 2.2773-3.6641 1.4453-7.8203 3.0898-15.707 3.0898-0.078125 0-0.15234-0.023438-0.23047-0.027344v26.195zm141.69 26.387-0.046874-16.309h-25.188v16.461l10.043-5.8711c1.5234-0.84766 3.3672-0.84766 4.8906 0zm-0.078124-26.387-0.078126-26.207c-0.11719 0.003906-0.22656 0.039062-0.34375 0.039062-7.875 0-12.031-1.6445-15.691-3.0898-2.6445-1.0469-5.0195-1.9648-9.0469-2.2695v31.531zm58.414 26.387-0.046875-16.309h-25.188v16.461l10.043-5.8711c1.5234-0.84766 3.3672-0.84766 4.8906 0zm-0.078125-26.387-0.16016-54.801c-1.0195 1.3867-2.0117 2.9023-3.0156 4.5625-2.5469 4.2031-5.4375 8.9688-10.242 11.785-3.6797 2.1562-7.8047 2.7305-11.738 2.9492v35.508zm21.773-117.83c0-3.1875-1.8438-6.6289-3.7969-10.273-1.5977-2.9766-3.2539-6.0625-4.1484-9.4453-0.92969-3.5273-1.0312-7.1211-1.1328-10.598-0.11719-4.0703-0.22656-7.9102-1.707-10.5-1.5117-2.6406-4.7617-4.6641-8.2109-6.8047-2.9062-1.8047-5.9141-3.6758-8.4336-6.2188-2.5078-2.543-4.3555-5.5898-6.1367-8.5312-2.1172-3.4883-4.1133-6.7852-6.7227-8.3086-2.5234-1.4805-6.3008-1.5898-10.301-1.7109-3.4453-0.10156-7-0.20312-10.504-1.1523-3.3594-0.91016-6.4102-2.5898-9.3633-4.2109-3.582-1.9688-6.9648-3.832-10.078-3.832-5.9648 0-8.7617 1.1055-12 2.3828-3.6641 1.4453-7.8164 3.0859-15.703 3.0859s-12.039-1.6406-15.703-3.0859c-3.2383-1.2773-6.0352-2.3828-12.004-2.3828-5.9648 0-8.7578 1.1055-11.996 2.3828-3.6602 1.4453-7.8125 3.0859-15.691 3.0859-7.875 0-12.023-1.6406-15.684-3.0859-2.8125-1.1133-5.293-2.0938-9.8125-2.3281-7.2344 5.875-17.402 11.695-29.477 11.695-1.9297 0-3.9219-0.21484-5.9414-0.53516l-13.82 72.664c-4.0625 21.348-24.27 36.84-48.047 36.84h-15.082c-5.6484 0-11.082-0.89844-16.16-2.5195 0.23438 1.5859 0.60156 3.0352 1.2695 4.2031 1.5117 2.6406 4.7617 4.6641 8.207 6.8008 2.9102 1.8047 5.918 3.6758 8.4336 6.2188 2.5156 2.5469 4.3555 5.5898 6.1406 8.5352 2.1133 3.4883 4.1094 6.7852 6.7109 8.3047 2.5273 1.4805 6.3086 1.5938 10.309 1.7109 3.4453 0.097656 7 0.20312 10.5 1.1445 3.3672 0.91016 6.4219 2.5938 9.3711 4.2148 3.5781 1.9727 6.9609 3.832 10.07 3.832 5.9688 0 8.7656-1.1055 12.004-2.3867 3.6641-1.4453 7.8203-3.0898 15.703-3.0898 7.8867 0 12.039 1.6445 15.703 3.0898 3.2422 1.2773 6.0352 2.3867 12.004 2.3867 5.9648 0 8.7578-1.1055 11.988-2.3867 3.6641-1.4453 7.8164-3.0898 15.699-3.0898 7.875 0 12.023 1.6445 15.684 3.0898 3.2344 1.2773 6.0234 2.3867 11.977 2.3867 5.957 0 8.7539-1.1055 11.984-2.3867 3.6641-1.4453 7.8125-3.0898 15.695-3.0898 7.875 0 12.031 1.6445 15.691 3.0898 3.2344 1.2773 6.0234 2.3867 11.98 2.3867 3.1094 0 6.4961-1.8594 10.078-3.832 2.9531-1.625 6.0039-3.3008 9.3633-4.2109 3.5039-0.94922 7.0586-1.0547 10.5-1.1523 4.0039-0.11719 7.7852-0.23047 10.309-1.7109 2.6094-1.5195 4.6016-4.8164 6.7148-8.3047 1.7812-2.9414 3.625-5.9844 6.1367-8.5312 2.5195-2.5469 5.5312-4.418 8.4414-6.2305 3.4453-2.1367 6.6953-4.1523 8.207-6.793 1.4766-2.582 1.5898-6.4258 1.7031-10.488 0.097656-3.4844 0.20312-7.0781 1.1367-10.609 0.89062-3.3867 2.5469-6.4688 4.1484-9.4531 1.9492-3.6328 3.793-7.0703 3.793-10.262zm-280.16 22.258c2.7812 0 5.0391-2.2539 5.0391-5.0391 0-2.7852-2.2539-5.0391-5.0391-5.0391-3.7539 0-5.7773-0.94531-6.8711-2.0703l10.273-9.375c1.5352-1.4023 2.0508-3.6016 1.3008-5.5391s-2.6172-3.2188-4.6953-3.2188h-27.605c-2.0781 0-3.9453 1.2773-4.6953 3.2188-0.75391 1.9375-0.23438 4.1367 1.3008 5.5391l10.27 9.3789c-1.0938 1.125-3.1172 2.0703-6.8711 2.0703-2.7812 0-5.0391 2.2539-5.0391 5.0391s2.2539 5.0391 5.0391 5.0391c5.9258 0 10.543-1.6602 13.797-4.8789 3.2539 3.2109 7.875 4.875 13.797 4.875zm-43.508-90.762c-4.2656 0-7.7266 3.457-7.7266 7.7266 0 4.2656 3.457 7.7266 7.7266 7.7266 4.2656 0 7.7266-3.457 7.7266-7.7266-0.003906-4.2656-3.4609-7.7266-7.7266-7.7266zm59.422 15.453c4.2656 0 7.7266-3.457 7.7266-7.7266 0-4.2656-3.457-7.7266-7.7266-7.7266-4.2656 0-7.7266 3.457-7.7266 7.7266 0 4.2656 3.4609 7.7266 7.7266 7.7266z"/>
</svg>