<?xml version="1.0" encoding="UTF-8"?>
<!-- The Best Svg Icon site in the world: iconSvg.co, Visit us! https://iconsvg.co -->
<svg fill="#000000" width="800px" height="800px" version="1.1" viewBox="144 144 512 512" xmlns="http://www.w3.org/2000/svg">
 <g>
  <path d="m619.05 417.47c-3.1484-8.6602-9.918-4.7227-18.422-1.1016l-103.44 42.824-11.18 4.7227 5.5117-11.02 26.137-52.27h-304.34l48.805 78.09h0.15625l4.0938 6.6133v0.15625l5.0391 8.1875 25.031 39.988-7.3984 2.9922-8.1875 3.4648c1.2578 2.2031 2.5195 4.5664 3.4648 7.0859 0.31641 0.62891 0.62891 1.418 0.78906 2.2031 0.31641 0.78906 0.62891 1.5742 0.78906 2.3633l76.516-24.719 8.5-2.6758 96.039-30.859 7.8711-2.5195 136.97-44.242c8.8203-2.6758 10.395-20.625 7.2461-29.285z"/>
  <path d="m459.09 504.22v97.141l-73.523-73.367-8.3438 2.6758-8.5 2.6758 79.824 79.824c2.832 2.832 6.7695 4.4102 10.863 4.4102 8.5 0 15.43-6.9258 15.43-15.43l-0.007813-102.96-7.8711 2.5195z"/>
  <path d="m280.86 561.69h-0.47266c-0.47266-2.6758-1.1016-5.1953-1.8906-7.5586-0.31641-1.418-0.94531-2.6758-1.418-3.9375-0.94531-2.3633-2.2031-4.7227-3.6211-6.9258v-0.15625c-4.0938-6.6133-9.6055-12.121-16.215-16.215-2.2031-1.5742-4.5664-2.832-7.0859-3.9375-2.3633-0.94531-4.8789-1.8906-7.3984-2.5195-3.9375-0.94531-8.1875-1.418-12.438-1.418-28.184 0-50.852 22.672-50.852 50.695s22.672 50.695 50.852 50.695c28.023 0 50.695-22.672 50.695-50.695 0-2.6758-0.15625-5.3516-0.62891-7.8711zm-20.941 8.0273c0 16.215-13.383 29.598-29.598 29.598-16.375 0-29.598-13.383-29.598-29.598 0-16.375 13.227-29.598 29.598-29.598 1.2578 0 2.6758 0.15625 3.9375 0.47266l-3.3047 7.3984h-0.62891c-12.121 0-21.727 9.7617-21.727 21.727s9.6055 21.727 21.727 21.727c11.492 0 20.941-8.9727 21.57-20.309l7.8711-2.6758c0.15234 0.47266 0.15234 0.78516 0.15234 1.2578zm-6.4531-18.105-7.3984 2.9922c-0.31641-0.15625-0.31641-0.31641-0.47266-0.47266l3.1484-7.3984c1.8867 1.4141 3.4648 2.9883 4.7227 4.8789zm-29.758 13.699-0.62891 1.2578c-1.7305 4.0938 0.15625 8.6602 4.0938 10.391 0.94531 0.47266 2.0469 0.62891 3.1484 0.62891 0.78906 0 1.5742-0.15625 2.3633-0.31641l10.863-3.4648c-1.7305 5.668-7.0859 9.7617-13.227 9.7617-7.7148 0-13.855-6.2969-13.855-13.855 0-6.7695 4.7227-12.281 11.02-13.539z"/>
  <path d="m260.39 519.5 7.2422-17.004-10.234-16.375-11.492 27.078c2.5195 0.78906 4.8789 1.5742 7.3984 2.5195 2.5234 1.1055 4.8828 2.207 7.0859 3.7812z"/>
 </g>
</svg>