<?xml version="1.0" encoding="UTF-8"?>
<!-- The Best Svg Icon site in the world: iconSvg.co, Visit us! https://iconsvg.co -->
<svg fill="#000000" width="800px" height="800px" version="1.1" viewBox="144 144 512 512" xmlns="http://www.w3.org/2000/svg">
 <g>
  <path d="m320.25 367.91v20.176c-4.7344 0.5-9.2734 1.6328-13.586 3.4258-1.875 0.78125-3.1016 2.6133-3.1016 4.6484v11.801c0 13.004 10.496 23.582 23.391 23.582s23.391-10.578 23.391-23.582v-11.801c0-2.1797-1.4023-4.1133-3.4727-4.7891-5.7188-1.8672-11.238-2.9922-16.547-3.4062v-20.059c4.75-1.0117 11.809-3.3633 17.215-8.8281 8.7422-8.8359 9.4258-22.043 9.4531-22.602 0.0625-1.4141-0.47266-2.7891-1.4727-3.7891-1.0039-0.99609-2.3086-1.4922-3.793-1.4688-0.55078 0.023438-13.668 0.72266-22.43 9.5781-1.5898 1.6055-2.9062 3.3594-4.0117 5.1562-1.1016-1.793-2.418-3.5508-4.0117-5.1562-8.7656-8.8555-21.883-9.5508-22.434-9.5742-1.5391-0.023437-2.7891 0.47266-3.793 1.4688-1 1-1.5352 2.375-1.4727 3.7891 0.023437 0.55859 0.70703 13.766 9.457 22.605 5.4141 5.4609 12.473 7.8125 17.219 8.8242zm20.02 40.051c0 7.4453-5.9727 13.504-13.312 13.504-7.3398 0-13.312-6.0586-13.312-13.504v-8.2891c7.9805-2.5469 16.742-2.4727 26.629 0.23438zm-3.8086-60.078c2.707-2.7344 6.1875-4.3477 9.1875-5.293-0.93359 3.0664-2.5391 6.6406-5.2695 9.3984-2.707 2.7383-6.1875 4.3477-9.1953 5.293 0.93359-3.0586 2.5391-6.6289 5.2773-9.3984zm-22.344 0c2.7422 2.7695 4.3398 6.3398 5.2734 9.4023-3-0.94531-6.4844-2.5547-9.1914-5.293-2.7422-2.7656-4.3438-6.3398-5.2773-9.3984 3 0.94141 6.4844 2.5508 9.1953 5.2891z"/>
  <path d="m585.24 392.81-51.258-9.418v-32.848c0-9.7227-7.9102-17.633-17.633-17.633h-62.191v-25.984c0-2.7812-2.2539-5.0391-5.0391-5.0391h-245.61c-2.7852 0-5.0391 2.2539-5.0391 5.0391v148.91c0 2.7812 2.2539 5.0391 5.0391 5.0391h20.473c-0.61328 2.4102-0.94922 4.8867-0.94922 7.3711 0 16.461 13.277 29.855 29.598 29.855 12.609 0 23.375-8.0117 27.629-19.242 4.2539 11.23 15.02 19.242 27.629 19.242 16.32 0 29.598-13.395 29.598-29.855 0-2.4844-0.33594-4.9609-0.94922-7.3711h176.04c-0.61328 2.4102-0.94922 4.8867-0.94922 7.3711 0 16.461 13.277 29.855 29.598 29.855 16.32 0 29.598-13.395 29.598-29.855 0-2.4844-0.33594-4.9609-0.94922-7.3711h11.754c10.973 0 19.898-8.9961 19.898-20.051v-28.297c0-9.668-6.8438-17.965-16.285-19.723zm-71.891-49.82c5.8203 0 10.559 4.8086 10.559 10.723v28.84h-39.047v-39.562zm-304.8-31.023h235.53v138.84h-112.19c-0.09375-0.12891-0.20312-0.24219-0.30078-0.37109-0.3125-0.42578-0.65625-0.82031-0.99219-1.2305-0.46094-0.55859-0.92188-1.1094-1.418-1.6289-0.36719-0.38281-0.75-0.74609-1.1367-1.1094-0.51953-0.48828-1.0469-0.96094-1.5977-1.4102-0.40625-0.33203-0.82422-0.64844-1.2461-0.95703-0.57812-0.42188-1.168-0.81641-1.7695-1.1953-0.4375-0.27344-0.87891-0.54297-1.3281-0.79297-0.63281-0.35156-1.2852-0.66797-1.9453-0.97266-0.45703-0.21094-0.90625-0.42578-1.375-0.61328-0.69922-0.28125-1.418-0.51172-2.1406-0.74219-0.45312-0.14062-0.89844-0.30078-1.3594-0.42188-0.80469-0.21094-1.625-0.35547-2.4453-0.5-0.39844-0.070313-0.79297-0.16797-1.1953-0.21875-1.2344-0.16016-2.4805-0.25391-3.7422-0.25391-1.2617 0-2.5078 0.09375-3.7422 0.25391-0.40625 0.050781-0.79688 0.15234-1.1992 0.21875-0.82422 0.14062-1.6406 0.28906-2.4453 0.5-0.46094 0.12109-0.90625 0.28125-1.3633 0.42188-0.72266 0.22656-1.4414 0.46094-2.1406 0.73828-0.46875 0.1875-0.91797 0.40234-1.375 0.61328-0.65625 0.30469-1.3086 0.61719-1.9414 0.96875-0.45703 0.25-0.89453 0.52344-1.3359 0.79688-0.60156 0.375-1.1875 0.76953-1.7578 1.1875-0.42969 0.3125-0.84766 0.63281-1.2617 0.96875-0.54297 0.44531-1.0664 0.91016-1.5781 1.3945-0.39062 0.36719-0.78125 0.73438-1.1523 1.125-0.48828 0.51172-0.94531 1.0547-1.3984 1.6016-0.34375 0.41406-0.69141 0.82031-1.0117 1.2539-0.09375 0.125-0.20312 0.23438-0.29297 0.36328h-7.2734c-0.09375-0.12891-0.20312-0.24219-0.30078-0.37109-0.3125-0.42578-0.65625-0.82031-0.99219-1.2305-0.46094-0.55859-0.92188-1.1094-1.418-1.6289-0.36719-0.38281-0.75-0.74609-1.1367-1.1094-0.51953-0.48828-1.0469-0.96094-1.5977-1.4102-0.40625-0.33203-0.82422-0.64844-1.2461-0.95703-0.57812-0.42188-1.168-0.81641-1.7695-1.1953-0.4375-0.27344-0.87891-0.54297-1.3281-0.79297-0.63281-0.35156-1.2852-0.66797-1.9453-0.97266-0.45703-0.21094-0.90625-0.42578-1.375-0.61328-0.69922-0.28125-1.418-0.51172-2.1406-0.74219-0.45312-0.14062-0.89844-0.30078-1.3594-0.42188-0.80469-0.21094-1.625-0.35547-2.4453-0.5-0.39844-0.070312-0.79297-0.16797-1.1953-0.21875-1.2344-0.16016-2.4805-0.25391-3.7422-0.25391s-2.5078 0.09375-3.7422 0.25391c-0.40625 0.050781-0.79688 0.15234-1.1992 0.21875-0.82422 0.14062-1.6406 0.28906-2.4453 0.5-0.46094 0.12109-0.90625 0.28125-1.3633 0.42188-0.72266 0.22656-1.4414 0.46094-2.1406 0.73828-0.46875 0.1875-0.91797 0.40234-1.375 0.61328-0.65625 0.30469-1.3086 0.61719-1.9414 0.96875-0.45703 0.25-0.89453 0.52344-1.3359 0.79687-0.60156 0.375-1.1875 0.76953-1.7578 1.1875-0.42969 0.3125-0.84766 0.63281-1.2617 0.96875-0.54297 0.44531-1.0664 0.91016-1.5781 1.3945-0.39062 0.36719-0.78125 0.73438-1.1523 1.125-0.48828 0.51172-0.94531 1.0547-1.3984 1.6016-0.34375 0.41406-0.69141 0.82031-1.0117 1.2539-0.09375 0.125-0.20312 0.23438-0.29297 0.36328l-20.09 0.023437zm44.082 176.07c-10.766 0-19.523-8.875-19.523-19.781 0-3.4844 0.89453-6.8242 2.6562-9.918 3.4648-6.082 9.9219-9.8633 16.867-9.8633 1.7344 0 3.4414 0.23438 5.0781 0.68359 4.9102 1.3477 9.1914 4.6133 11.789 9.1797 1.7617 3.0938 2.6562 6.4336 2.6562 9.918 0 10.91-8.7578 19.781-19.523 19.781zm55.262 0c-10.766 0-19.523-8.875-19.523-19.781 0-3.4844 0.89453-6.8242 2.6562-9.918 3.4648-6.082 9.9219-9.8633 16.867-9.8633 1.7344 0 3.4414 0.23438 5.0781 0.68359 4.9102 1.3477 9.1914 4.6133 11.789 9.1797 1.7617 3.0938 2.6562 6.4297 2.6562 9.918 0 10.91-8.7578 19.781-19.523 19.781zm233.33 0c-10.766 0-19.523-8.875-19.523-19.781 0-3.4844 0.89453-6.8242 2.6562-9.918 3.4648-6.082 9.9219-9.8633 16.867-9.8633 1.7344 0 3.4414 0.23438 5.0781 0.68359 4.9102 1.3477 9.1914 4.6133 11.789 9.1797 1.7617 3.0938 2.6562 6.4297 2.6562 9.918 0 10.91-8.7578 19.781-19.523 19.781zm50.223-47.203c0 5.5-4.4023 9.9766-9.8203 9.9766h-16.41c-0.09375-0.12891-0.20312-0.24219-0.30078-0.37109-0.3125-0.42578-0.65625-0.82031-0.99219-1.2305-0.46094-0.55859-0.92188-1.1094-1.418-1.6289-0.36719-0.38281-0.75-0.74609-1.1367-1.1094-0.51953-0.48828-1.0469-0.96094-1.5977-1.4102-0.40625-0.33203-0.82422-0.64844-1.2461-0.95703-0.57813-0.42188-1.168-0.81641-1.7695-1.1953-0.4375-0.27344-0.87891-0.54297-1.3281-0.79297-0.63281-0.35156-1.2852-0.66797-1.9453-0.97266-0.45703-0.21094-0.90625-0.42578-1.375-0.61328-0.69922-0.28125-1.418-0.51172-2.1406-0.74219-0.45312-0.14062-0.89844-0.30078-1.3594-0.42188-0.80469-0.21094-1.625-0.35547-2.4453-0.5-0.39844-0.070313-0.79297-0.16797-1.1953-0.21875-1.2344-0.16016-2.4805-0.25391-3.7422-0.25391-1.2617 0-2.5078 0.09375-3.7422 0.25391-0.40625 0.050781-0.79688 0.15234-1.1992 0.21875-0.82422 0.14062-1.6406 0.28906-2.4453 0.5-0.46094 0.12109-0.90625 0.28125-1.3633 0.42188-0.72266 0.22656-1.4414 0.46094-2.1406 0.73828-0.46875 0.1875-0.91797 0.40234-1.375 0.61328-0.65625 0.30469-1.3086 0.61719-1.9414 0.96875-0.45703 0.25-0.89453 0.52344-1.3359 0.79688-0.60156 0.375-1.1875 0.76953-1.7578 1.1875-0.42969 0.3125-0.84766 0.63281-1.2617 0.96875-0.54297 0.44531-1.0664 0.91016-1.5781 1.3945-0.39062 0.36719-0.78125 0.73438-1.1523 1.125-0.48828 0.51172-0.94531 1.0547-1.3984 1.6016-0.34375 0.41406-0.69141 0.82031-1.0117 1.2539-0.09375 0.125-0.20312 0.23437-0.29297 0.36328l-63.07 0.007812v-107.81h20.625v44.602c0 2.7812 2.2539 5.0391 5.0391 5.0391h48.668l54.918 10.09c4.6602 0.86719 8.0391 4.9961 8.0391 9.8125z"/>
 </g>
</svg>