<?xml version="1.0" encoding="UTF-8"?>
<!-- The Best Svg Icon site in the world: iconSvg.co, Visit us! https://iconsvg.co -->
<svg fill="#000000" width="800px" height="800px" version="1.1" viewBox="144 144 512 512" xmlns="http://www.w3.org/2000/svg">
 <g>
  <path d="m352.77 400h62.977v15.742h-62.977z"/>
  <path d="m453.32 304.97c-14.176-14.273-33.113-22.129-53.316-22.129-2.7109 0-5.418 0.17188-8.0469 0.42578l-1.5078-15.676c3.1172-0.29688 6.3359-0.49219 9.5547-0.49219 24.426 0 47.332 9.5078 64.488 26.773z"/>
  <path d="m321.28 368.51h-15.742v-10.188c0-24.422 9.5078-47.324 26.773-64.488l11.102 11.172c-14.273 14.18-22.133 33.113-22.133 53.316z"/>
  <path d="m486.59 415.74h-39.359v-15.742h31.488v-38.434c0-2.7109-0.17188-5.418-0.42578-8.0469l15.676-1.5078c0.29688 3.1172 0.49219 6.3359 0.49219 9.5547v46.305c0 4.3477-3.5234 7.8711-7.8711 7.8711z"/>
  <path d="m469.43 370.79c-2.0156 0-4.0273-0.76953-5.5664-2.3047l-31.43-31.434-26.867 26.867-11.133-11.133 120.36-120.44c3.0742-3.0742 8.0547-3.0742 11.133 0l37.078 37.078c1.4727 1.4766 2.3047 3.4805 2.3047 5.5664 0 2.0859-0.83203 4.0898-2.3047 5.5664l-88.027 87.945c-1.5352 1.5234-3.5469 2.2891-5.5508 2.2891zm-25.875-44.879 25.887 25.891 76.863-76.812-25.945-25.945z"/>
  <path d="m394.43 363.92-120.37-120.45c-3.0703-3.0742-3.0703-8.0547 0.003906-11.129l37-37c2.9531-2.9531 8.1797-2.9531 11.133 0l73.934 73.938c0.24219 0.1875 0.47266 0.39062 0.69141 0.60938l13.379 13.379c3.0742 3.0742 3.0742 8.0547 0 11.133l-31.512 31.512 26.867 26.867zm-103.67-126 76.801 76.871 25.945-25.945-7.2031-7.2031c-0.24219-0.1875-0.47266-0.39062-0.69141-0.60938l-68.98-68.984z"/>
  <path d="m279.64 486.59c-2.0156 0-4.0273-0.76953-5.5664-2.3047l-37.078-37.078c-1.4766-1.4766-2.3047-3.4766-2.3047-5.5703 0-2.0859 0.83203-4.0898 2.3086-5.5664l88.008-87.926c3.0742-3.0742 8.0547-3.0742 11.133 0l31.504 31.504 26.789-26.852 11.148 11.117-120.38 120.38c-1.5352 1.5273-3.5508 2.2969-5.5586 2.2969zm-25.941-44.945 25.945 25.945 76.875-76.801-25.945-25.945z"/>
  <path d="m483.36 523.67c-2.0156 0-4.0273-0.76953-5.5664-2.3047l-88.008-88.012c-3.0742-3.0742-3.0742-8.0547 0-11.133l31.496-31.441-26.852-26.855 11.133-11.133 120.36 120.36c3.0703 3.0703 3.0742 8.0508 0.007812 11.129l-37.008 37.082c-1.5391 1.5352-3.5547 2.3047-5.5664 2.3047zm-76.875-95.883 76.871 76.875 25.875-25.934-76.812-76.816z"/>
  <path d="m494.46 447.23h-15.742v-31.488h-31.488v-15.742h39.359c4.3477 0 7.8711 3.5234 7.8711 7.8711z"/>
  <path d="m352.77 400h62.977v15.742h-62.977z"/>
  <path d="m486.59 604.67h-165.31c-4.3477 0-7.8711-3.5234-7.8711-7.8711v-157.44h15.742v149.57h149.57v-78.723h15.742v86.594c0 4.3438-3.5234 7.8711-7.8711 7.8711z"/>
  <path d="m431.49 518.08h-55.105c-4.3477 0-7.8711-3.5234-7.8711-7.8711v-55.105c0-4.3477 3.5234-7.8711 7.8711-7.8711h47.23v15.742h-39.359v39.359h39.359v-39.359h15.742v47.23c0.003906 4.3516-3.5234 7.875-7.8672 7.875z"/>
  <path d="m439.36 604.67h-70.848c-4.3477 0-7.8711-3.5234-7.8711-7.8711v-62.977c0-4.3477 3.5234-7.8711 7.8711-7.8711h70.848c4.3477 0 7.8711 3.5234 7.8711 7.8711v62.977c0 4.3438-3.5234 7.8711-7.8711 7.8711zm-62.977-15.746h55.105v-47.23h-55.105z"/>
 </g>
</svg>