<?xml version="1.0" encoding="UTF-8"?>
<!-- The Best Svg Icon site in the world: iconSvg.co, Visit us! https://iconsvg.co -->
<svg fill="#000000" width="800px" height="800px" version="1.1" viewBox="144 144 512 512" xmlns="http://www.w3.org/2000/svg">
 <g>
  <path d="m619.89 175.66h-432.44c-6.6953 0.003907-13.117 2.668-17.855 7.4023-4.7344 4.7305-7.4023 11.152-7.4102 17.848v192.47c0.011719 6.6953 2.6758 13.113 7.4141 17.848 4.7344 4.7344 11.156 7.3945 17.852 7.3984h168.52c1.2461 0.003907 2.4336 0.50391 3.3008 1.3945l35.426 36.625h-0.003907c2.3438 2.4375 5.5781 3.8086 8.957 3.8008 3.375 0.007813 6.6094-1.3633 8.9492-3.8008l35.426-36.605c0.86719-0.89062 2.0547-1.3945 3.3008-1.3984h168.54c6.6953-0.007813 13.113-2.6719 17.848-7.4062 4.7344-4.7305 7.3984-11.148 7.4062-17.844v-192.48c-0.007813-6.6875-2.668-13.102-7.3945-17.836-4.7266-4.7305-11.137-7.3984-17.828-7.4141zm17.383 217.71v0.003906c-0.003906 4.6055-1.8398 9.0234-5.0977 12.281-3.2578 3.2578-7.6758 5.0898-12.285 5.0938h-168.54c-3.375 0.011719-6.6016 1.3789-8.9531 3.7969l-35.441 36.613c-1.8281 1.8047-4.7695 1.8047-6.5977 0l-35.426-36.633h0.003906c-2.3555-2.4141-5.5781-3.7812-8.9531-3.793h-168.54c-4.6055-0.003907-9.0234-1.8359-12.281-5.0938-3.2578-3.2578-5.0898-7.6758-5.0938-12.281v-192.45c0.003906-4.6055 1.8359-9.0234 5.0938-12.281 3.2578-3.2578 7.6758-5.0898 12.281-5.0938h432.44c4.6094 0.003907 9.0273 1.8359 12.285 5.0938 3.2578 3.2578 5.0898 7.6758 5.0977 12.281z"/>
  <path d="m446.42 298.45 82.062-47.398c2.7148-1.5625 4.6992-4.1445 5.5117-7.1719 0.8125-3.0234 0.38672-6.25-1.1797-8.9648l-8.1484-14.109c-3.2695-5.6445-10.484-7.5781-16.137-4.332l-34.332 19.82-0.003906-22.863c0-7.7656-8.0703-13.855-18.367-13.855-10.293 0.003906-18.355 6.1016-18.355 13.855v44.086l-34.891 20.141h0.003906c-1.2188 0.70312-2.7188 0.70312-3.9375 0l-21.191-12.23v-51.996c0-7.7656-8.0703-13.855-18.367-13.855-10.297 0-18.363 6.0898-18.363 13.855v30.781l-48.02-27.734h0.003906c-5.6523-3.25-12.871-1.3125-16.137 4.332l-8.1523 14.113c-1.5664 2.7148-1.9922 5.9414-1.1797 8.9648 0.8125 3.0273 2.793 5.6094 5.5078 7.1719l67.27 38.84h0.003906c-0.97656 6.0703-3.1016 11.891-6.2695 17.16l-9.6055 15.898-51.398 29.676c-2.7148 1.5625-4.6953 4.1445-5.5078 7.1719-0.8125 3.0273-0.38672 6.25 1.1797 8.9648l8.1445 14.109c3.2656 5.6445 10.484 7.5781 16.137 4.332l2.9492-1.7031c2.543 3.8594 6.8672 6.1758 11.492 6.1602h103.91c4.9883 0.003906 9.5898-2.6836 12.039-7.0273 2.4492-4.3477 2.3711-9.6719-0.21094-13.941l-20.074-33.199c-0.50781-0.94922-1.3867-1.6484-2.4219-1.9336-1.0391-0.28516-2.1484-0.13281-3.0703 0.42188-0.92188 0.55469-1.5781 1.4609-1.8125 2.5117-0.23828 1.0469-0.035156 2.1484 0.5625 3.043l20.074 33.199v0.003906c1.1094 1.8359 1.1445 4.1289 0.089843 6-1.0547 1.8711-3.0352 3.0273-5.1836 3.0273h-103.91c-1.8164 0.023437-3.5352-0.80859-4.6484-2.2422l96.156-55.496v-0.003906c1.2188-0.70312 2.7188-0.70312 3.9375 0l34.891 20.141-0.003906 26.434c-0.19141 4.9922 1.6562 9.8477 5.1211 13.449 3.4648 3.6016 8.2461 5.6367 13.242 5.6367 5 0 9.7812-2.0352 13.246-5.6367 3.4648-3.6016 5.3125-8.457 5.1172-13.449v-5.2422l34.332 19.82 0.003906 0.003906c2.7109 1.5664 5.9375 1.9922 8.9648 1.1797 3.0273-0.8125 5.6055-2.793 7.1719-5.5117l8.1484-14.109c1.5664-2.7148 1.9922-5.9375 1.1797-8.9648s-2.7969-5.6094-5.5117-7.1719l-54.285-31.332v-19.445 0.003907c0-2.1758-1.7617-3.9375-3.9336-3.9375-2.1758 0-3.9375 1.7617-3.9375 3.9375v14.898l-19.906-11.488v-0.003906c-1.2148-0.70313-1.9648-2-1.9648-3.4062s0.75-2.707 1.9648-3.4102zm9.4102-90.969c6.1836 0 10.492 3.1484 10.492 5.9844 0 2.832-4.3086 5.9844-10.492 5.9844s-10.488-3.1484-10.488-5.9844c0-2.8359 4.3125-6.0039 10.492-6.0039zm-10.488 17.391c6.6211 3.2383 14.367 3.2383 20.984 0v15.992l-20.984 12.109zm-86.254-17.41c6.1836 0 10.492 3.1484 10.492 5.9844 0 2.832-4.3086 5.9844-10.492 5.9844-6.1836 0-10.488-3.1484-10.488-5.9844 0-2.8359 4.3047-5.9844 10.488-5.9844zm-10.488 17.41c6.6211 3.2383 14.363 3.2383 20.984 0v36.016l-20.984-12.113zm-8.1211 86.25c3.1836-5.2656 5.4766-11.023 6.7812-17.035l7.5312 4.3281h-0.003906c1.2188 0.70313 1.9688 2.0039 1.9688 3.4102s-0.75 2.7031-1.9688 3.4062l-16.531 9.5469zm125.85 61.484c0.1875 2.8984-0.83594 5.7461-2.8242 7.8633-1.9844 2.1211-4.7617 3.3242-7.668 3.3242s-5.6797-1.2031-7.668-3.3242c-1.9883-2.1172-3.0078-4.9648-2.8242-7.8633v-21.902l20.984 12.113zm-23.84-60.543 82.062 47.395c1.8828 1.0859 2.5273 3.4961 1.4375 5.3789l-8.1406 14.09c-1.0898 1.8828-3.4961 2.5273-5.3789 1.4414l-105.95-61.172c-3.6562-2.0977-8.1523-2.0977-11.809 0l-105.95 61.172c-0.90234 0.52344-1.9805 0.66406-2.9883 0.39453-1.0078-0.26953-1.8672-0.92969-2.3906-1.8359l-8.1523-14.105c-1.0859-1.8828-0.44141-4.293 1.4414-5.3789l82.07-47.379c3.6602-2.1055 5.918-6.0078 5.918-10.23 0-4.2266-2.2578-8.1289-5.918-10.234l-82.062-47.363c-0.90625-0.51953-1.5664-1.3789-1.8398-2.3867-0.26953-1.0078-0.12891-2.0859 0.39062-2.9883l8.1445-14.105v-0.003906c0.51953-0.90234 1.3828-1.5625 2.3906-1.8359 1.0078-0.26953 2.0859-0.125 2.9883 0.39844l105.96 61.168c3.6562 2.1016 8.1523 2.1016 11.809 0l105.95-61.168c1.8828-1.0898 4.2891-0.44531 5.3789 1.4336l8.1445 14.105-0.003906 0.003907c0.52344 0.90234 0.66797 1.9766 0.39844 2.9883-0.27344 1.0078-0.93359 1.8672-1.8359 2.3906l-82.062 47.379c-3.6602 2.1055-5.918 6.0078-5.918 10.234 0 4.2227 2.2578 8.125 5.918 10.23z"/>
  <path d="m240.59 590.61v-30.609c0.82812 0.058594 1.6484 0.13281 2.4648 0.13281 13.43-0.61719 25.773-7.5547 33.277-18.711 4.9297-7.2188 6.0625-14.168 3.0273-18.621-1.9414-2.8477-6.2773-5.7656-15.816-3.5664-11.57 1.9961-21.531 9.3164-26.891 19.766-5.3594-10.441-15.316-17.754-26.883-19.746-9.5547-2.1953-13.867 0.72266-15.812 3.5664-3.0312 4.4414-1.9023 11.414 3.0273 18.621h0.003906c7.5039 11.152 19.848 18.094 33.277 18.711 0.80859 0 1.6211-0.070312 2.4336-0.13281v30.613c-26.734 1.7148-47.887 20.605-47.887 43.629 0 1.043 0.41406 2.0469 1.1523 2.7852 0.73828 0.73828 1.7383 1.1523 2.7852 1.1523h95.801c1.043 0 2.0469-0.41406 2.7852-1.1523 0.73828-0.73828 1.1523-1.7422 1.1523-2.7852 0-23.055-21.164-41.949-47.898-43.652zm24.727-63.699c4.3711-1.0039 6.9336-0.55859 7.5469 0.33984 0.69531 1.0234 0.49609 4.5742-3.0312 9.7422-5.7734 8.4531-17.098 16.324-29.102 15.164 0.625-6.3516 4.3555-20.59 24.566-25.25zm-61.797 10.078c-3.543-5.1641-3.7305-8.7148-3.0273-9.7422 0.36328-0.53516 1.4297-0.90625 3.1484-0.90625l0.003906-0.003906c1.4727 0.027344 2.9414 0.21875 4.375 0.57031 20.051 4.6211 23.871 18.895 24.566 25.246-12.07 1.1523-23.336-6.7188-29.098-15.184zm-10.555 93.316c2.4062-17.969 21.09-31.992 43.691-31.992s41.301 14.023 43.691 31.992z"/>
  <path d="m404.53 590.61v-30.609c0.82422 0.058594 1.6445 0.13281 2.4648 0.13281 13.43-0.62109 25.773-7.5586 33.281-18.711 4.9297-7.2188 6.0586-14.168 3.0234-18.621-1.9414-2.8477-6.2773-5.7656-15.812-3.5664-11.566 2-21.52 9.3203-26.875 19.766-5.3633-10.438-15.316-17.75-26.879-19.746-9.5352-2.1992-13.871 0.71875-15.812 3.5664-3.0352 4.4414-1.9062 11.414 3.0234 18.621 7.5078 11.156 19.852 18.094 33.281 18.711 0.78906 0 1.6172-0.070312 2.4336-0.13281v30.613c-26.738 1.7148-47.887 20.605-47.887 43.629 0 1.043 0.41797 2.0469 1.1562 2.7852 0.73828 0.73828 1.7383 1.1523 2.7812 1.1523h95.805c1.043 0 2.043-0.41406 2.7812-1.1523s1.1523-1.7422 1.1523-2.7852c0-23.055-21.168-41.949-47.918-43.652zm24.723-63.699c4.3672-1.0039 6.9375-0.55859 7.5469 0.33984 0.69922 1.0234 0.49609 4.5742-3.0312 9.7422-5.7695 8.4531-17.113 16.324-29.102 15.164 0.64453-6.3516 4.3828-20.59 24.586-25.25zm-61.797 10.082c-3.543-5.168-3.7266-8.7188-3.0312-9.7422 0.36719-0.53906 1.4336-0.91016 3.1484-0.91016l0.003906-0.003906c1.4766 0.027344 2.9414 0.21875 4.375 0.57031 20.047 4.6211 23.871 18.895 24.562 25.246-12.039 1.1523-23.281-6.7227-29.062-15.164zm-10.543 93.32c2.4062-17.969 21.09-31.992 43.691-31.992 22.602 0 41.297 14.023 43.691 31.992z"/>
  <path d="m571.36 590.61v-30.609c0.82422 0.0625 1.6445 0.13281 2.4609 0.13281 13.43-0.61719 25.773-7.5547 33.281-18.711 4.9297-7.2188 6.0625-14.168 3.0312-18.621-1.9688-2.8477-6.2773-5.7656-15.816-3.5664-11.566 2-21.52 9.3164-26.875 19.762-5.3594-10.445-15.312-17.762-26.879-19.762-9.5625-2.1992-13.871 0.71875-15.812 3.5664-3.0352 4.4414-1.9062 11.414 3.0234 18.621 7.5078 11.156 19.852 18.094 33.281 18.711 0.78906 0 1.6211-0.070313 2.4336-0.13281v30.613c-26.738 1.7109-47.891 20.605-47.891 43.629 0 1.043 0.41797 2.0469 1.1562 2.7852 0.73438 0.73828 1.7383 1.1523 2.7812 1.1523h95.805c1.0469 0 2.0469-0.41406 2.7852-1.1523 0.73828-0.73828 1.1523-1.7422 1.1523-2.7852 0-23.035-21.16-41.926-47.918-43.633zm24.727-63.699c4.3711-1.0039 6.9336-0.55859 7.543 0.33594 0.69922 1.0273 0.5 4.5781-3.0273 9.7422-5.7734 8.457-17.121 16.328-29.105 15.168 0.64453-6.3516 4.3789-20.59 24.59-25.25zm-61.797 10.078c-3.5234-5.1641-3.7266-8.7148-3.0273-9.7422 0.36719-0.53516 1.4297-0.90625 3.168-0.90625l0.003906-0.003906c1.4766 0.027344 2.9414 0.21875 4.375 0.57031 20.051 4.6211 23.871 18.895 24.566 25.246-12.043 1.1719-23.332-6.7188-29.098-15.184zm-10.539 93.324c2.4062-17.969 21.09-31.992 43.691-31.992 22.602 0 41.301 14.023 43.711 31.992z"/>
 </g>
</svg>