<?xml version="1.0" encoding="UTF-8"?>
<!-- The Best Svg Icon site in the world: iconSvg.co, Visit us! https://iconsvg.co -->
<svg fill="#000000" width="800px" height="800px" version="1.1" viewBox="144 144 512 512" xmlns="http://www.w3.org/2000/svg">
 <path d="m383.89 477.54c1.0703-0.37891 2.0469-0.99219 2.8516-1.793l213.57-210.01c10.406-10.234 10.562-27.031 0.33203-37.438-10.219-10.406-27.047-10.531-37.457-0.31641l-220.21 216.53c-0.64453 0.64453-1.1797 1.3711-1.5742 2.2031l-18.609 38.621c-0.37891 0.76953-0.26953 1.6055-0.37891 2.4414l-15.492 12.957-110.8 55.402c-0.59766 0.30078-1.0859 0.73828-1.5898 1.1641-0.15625 0.14062-0.34766 0.21875-0.50391 0.36328-0.66016 0.67578-1.1797 1.4648-1.5586 2.3125-0.10938 0.23438-0.125 0.50391-0.20313 0.75391-0.21875 0.66016-0.37891 1.3398-0.41016 2.0625 0 0.125-0.078125 0.23438-0.078125 0.37891v55.812c0 4.3438 3.5273 7.8711 7.8711 7.8711s7.8711-3.5273 7.8711-7.8711v-47.941h21.461v47.941c0 4.3438 3.5273 7.8711 7.8711 7.8711s7.8711-3.5273 7.8711-7.8711v-47.941h21.477v47.941c0 4.3438 3.5273 7.8711 7.8711 7.8711s7.8711-3.5273 7.8711-7.8711v-47.941h21.461v47.941c0 4.3438 3.5273 7.8711 7.8711 7.8711s7.8711-3.5273 7.8711-7.8711v-47.941h21.461v47.941c0 4.3438 3.5273 7.8711 7.8711 7.8711s7.8711-3.5273 7.8711-7.8711v-47.941h21.477v47.941c0 4.3438 3.5273 7.8711 7.8711 7.8711s7.8711-3.5273 7.8711-7.8711v-47.941h21.461v47.941c0 4.3438 3.5273 7.8711 7.8711 7.8711s7.8711-3.5273 7.8711-7.8711v-55.812c0-0.125-0.0625-0.25-0.078125-0.37891-0.03125-0.70703-0.1875-1.3867-0.41016-2.0625-0.078126-0.25-0.10938-0.51953-0.20313-0.75391-0.37891-0.85156-0.89844-1.6367-1.5586-2.3125-0.14062-0.14062-0.34766-0.23438-0.50391-0.36328-0.48828-0.42578-0.97656-0.86719-1.5898-1.1641l-100.89-50.445 14.754-12.344zm-28.887-22.766 219.2-215.57c4.25-4.1719 11.035-4.1094 15.191 0.125 4.1406 4.2188 4.0938 11.02-0.14063 15.176l-212.34 208.8-31.566 11.445zm-122 100.52 78.297-39.141 78.297 39.141z"/>
</svg>