<?xml version="1.0" encoding="UTF-8"?>
<!-- The Best Svg Icon site in the world: iconSvg.co, Visit us! https://iconsvg.co -->
<svg fill="#000000" width="800px" height="800px" version="1.1" viewBox="144 144 512 512" xmlns="http://www.w3.org/2000/svg">
 <g>
  <path d="m391.5 400.63h25.035c0.31641-5.3516 0.47266-10.863 0.47266-16.375v-154.45h-34.004l-0.003906 154.45c0 5.5117 0.15625 11.02 0.47266 16.375z"/>
  <path d="m409.13 214.06h7.8711l0.003906-8.9766c0-9.4453-7.7148-17.004-17.004-17.004s-17.004 7.5586-17.004 17.004v8.9727h7.8711z"/>
  <path d="m322.38 549.72-30.387 40.461c-1.1016 1.418-1.5742 3.1484-1.5742 4.7227v17.004c0 4.4102 3.4648 7.8711 7.8711 7.8711 4.25 0 7.8711-3.4648 7.8711-7.8711v-14.328l28.496-37.941z"/>
  <path d="m508 590.19-30.387-40.461-12.281 9.918 28.496 37.941v14.328c0 4.4102 3.6211 7.8711 7.8711 7.8711 4.4102 0 7.8711-3.4648 7.8711-7.8711v-17.004c0.003906-1.5742-0.46875-3.3047-1.5703-4.7227z"/>
  <path d="m344.27 567.2-5.0391-3.9375-14.012 28.184c-0.62891 1.1016-0.94531 2.3633-0.94531 3.4648v17.004c0 4.4102 3.6211 7.8711 7.8711 7.8711 4.4102 0 7.8711-3.4648 7.8711-7.8711l0.003906-15.113 14.012-27.867h-4.8789c-1.7344 0-3.4688-0.63281-4.8828-1.7344z"/>
  <path d="m358.43 593.02c-0.15625 0.62891-0.15625 1.2578-0.15625 1.8906v17.004c0 4.4102 3.4648 7.8711 7.8711 7.8711 4.25 0 7.8711-3.4648 7.8711-7.8711v-15.902l6.7695-27.078h-16.375z"/>
  <path d="m427.08 535.08h2.0469l9.1328 18.105h9.7617l5.5117-4.4102-6.9258-13.699h0.31641l8.9727 11.809 12.281-9.7617-10.547-14.012-17.789-35.738-30.23-15.113-7.0859-3.4648 1.418-4.25c5.1953-15.742 8.9727-31.805 11.02-48.176h-29.918c2.0469 16.375 5.8242 32.434 11.02 48.176l1.418 4.25-7.0859 3.4648-30.23 15.113-17.789 35.738-10.547 14.012 12.281 9.918 8.9727-11.965h0.31641l-6.9258 13.855 5.3516 4.25h10.078l8.9727-18.105h2.0469l-4.4102 18.109h16.215l4.5664-18.105h2.832v18.105h15.742v-18.105h2.832l4.5664 18.105h16.223zm-59.199-15.742h-5.9805l10.078-20.152 23.457-11.809 4.5664-2.3633 4.5664 2.3633 23.457 11.809 10.078 20.152z"/>
  <path d="m435.58 568.93h-16.375l6.7695 27.078v15.902c0 4.4102 3.6211 7.8711 7.8711 7.8711 4.4102 0 7.8711-3.4648 7.8711-7.8711v-17.004c0-0.62891 0-1.2578-0.15625-1.8906z"/>
  <path d="m460.77 563.27-5.0391 3.9375c-1.418 1.1016-3.1484 1.7305-4.8789 1.7305h-4.7227l13.855 27.867v15.113c0 4.4102 3.4648 7.8711 7.8711 7.8711 4.25 0 7.8711-3.4648 7.8711-7.8711v-17.004c0-1.1016-0.31641-2.3633-0.94531-3.4648z"/>
  <path d="m392.12 611.91c0 4.4102 3.4648 7.8711 7.8711 7.8711 4.4102 0 7.8711-3.4648 7.8711-7.8711v-42.98h-15.742z"/>
 </g>
</svg>