<?xml version="1.0" encoding="UTF-8"?>
<!-- The Best Svg Icon site in the world: iconSvg.co, Visit us! https://iconsvg.co -->
<svg fill="#000000" width="800px" height="800px" version="1.1" viewBox="144 144 512 512" xmlns="http://www.w3.org/2000/svg">
 <g>
  <path d="m367.39 396.96c-11.164 0-20.25 9.0352-20.25 20.141 0 11.109 9.082 20.141 20.25 20.141 11.16 0 20.242-9.0352 20.242-20.141 0.003907-11.109-9.082-20.141-20.242-20.141zm0 30.207c-5.6055 0-10.172-4.5156-10.172-10.066 0-5.5508 4.5586-10.066 10.172-10.066 5.6016 0 10.168 4.5156 10.168 10.066 0 5.5508-4.5586 10.066-10.168 10.066z"/>
  <path d="m435.89 396.96c-11.164 0-20.25 9.0352-20.25 20.141 0 11.109 9.082 20.141 20.25 20.141 11.164 0 20.25-9.0352 20.25-20.141 0-11.109-9.0859-20.141-20.25-20.141zm0 30.207c-5.6055 0-10.172-4.5156-10.172-10.066 0-5.5508 4.5586-10.066 10.172-10.066s10.172 4.5156 10.172 10.066c0 5.5508-4.5625 10.066-10.172 10.066z"/>
  <path d="m329.06 312.9c2.7852 0 5.0391-2.2578 5.0391-5.0391 0-9.793 8.0664-17.766 17.977-17.766s17.977 7.9688 17.977 17.766c0 2.7812 2.2539 5.0391 5.0391 5.0391s5.0391-2.2578 5.0391-5.0391c0-15.352-12.586-27.84-28.051-27.84-15.469 0-28.051 12.488-28.051 27.84-0.007812 2.7891 2.2461 5.0391 5.0312 5.0391z"/>
  <path d="m428.38 312.9c2.7852 0 5.0391-2.2578 5.0391-5.0391 0-9.793 8.0664-17.766 17.977-17.766s17.977 7.9688 17.977 17.766c0 2.7812 2.2539 5.0391 5.0391 5.0391s5.0391-2.2578 5.0391-5.0391c0-15.352-12.586-27.84-28.051-27.84-15.469 0-28.051 12.488-28.051 27.84-0.007812 2.7891 2.2422 5.0391 5.0312 5.0391z"/>
  <path d="m495.37 414.61c0-43.52-42.961-78.922-95.77-78.922-52.809 0-95.773 35.402-95.773 78.922s42.961 78.922 95.773 78.922c52.805 0 95.77-35.402 95.77-78.922zm-95.77 68.848c-47.254 0-85.699-30.883-85.699-68.844 0-37.961 38.445-68.844 85.699-68.844 47.254 0 85.691 30.883 85.691 68.844 0 37.957-38.441 68.844-85.691 68.844z"/>
  <path d="m201.01 600.85c0.78516 0.45313 1.6484 0.66406 2.5 0.66406 1.75 0 3.4453-0.90625 4.375-2.5273 19.301-33.656 47.48-61.766 81.48-81.387 30.465 24.07 68.887 38.492 110.63 38.492 41.75 0 80.172-14.418 110.63-38.492 34.008 19.617 62.18 47.727 81.484 81.387 0.93359 1.6211 2.625 2.5273 4.375 2.5273 0.85156 0 1.7148-0.21094 2.5-0.66406 2.4141-1.3867 3.2539-4.4648 1.8633-6.8789-19.59-34.152-47.941-62.773-82.082-83.184 36.797-32.773 60.035-80.469 60.035-133.51 0-24.887-5.0195-48.84-14.848-71.344 4.832 0.67188 9.5 1.0195 13.719 1.0195 3.0625 0 5.8984-0.17188 8.4023-0.50391 7.043-0.93359 11.48-3.0469 13.566-6.4688 6.1445-10.07-4.5352-55.27-26.988-73.238-10.066-8.0508-22.434-12.516-34.863-12.586-2.9609-0.27734-24.938-1.8281-43.422 11.348-28.297-17.637-60.805-27.031-94.371-27.031-33.59 0-66.059 9.4023-94.367 27.039-18.48-13.176-40.477-11.637-43.43-11.352-12.43 0.070313-24.797 4.5273-34.863 12.586-22.453 17.965-33.137 63.168-26.988 73.234 2.0859 3.4258 6.5234 5.543 13.566 6.4727 2.5039 0.33203 5.3398 0.50391 8.4023 0.50391 4.2227 0 8.8984-0.34766 13.734-1.0195-9.8242 22.512-14.863 46.465-14.863 71.344 0 53.035 23.234 100.73 60.035 133.5-34.137 20.41-62.492 49.031-82.082 83.184-1.3906 2.4102-0.55469 5.4922 1.8633 6.8789zm335.96-376.65c0.1875 0.019531 0.37109 0.03125 0.5625 0.03125 10.23 0.003906 20.469 3.6875 28.828 10.375 19.824 15.859 27.148 54.945 24.797 59.969-4.6484 4.6914-45.578 3.332-63.625-13.852-19.469-18.52-23.02-32.852-25.367-42.336-0.45312-1.832-0.875-3.543-1.3672-5.1172 16.133-11.086 35.969-9.0859 36.172-9.0703zm-327.99 70.59c-2.4922-5.2344 4.832-44.316 24.656-60.18 8.3516-6.6875 18.59-10.367 28.828-10.375 0.19141 0 0.37891-0.011719 0.5625-0.03125 0.058594-0.003906 1.5781-0.16797 4.0977-0.16797 6.6094 0 20.07 1.1289 31.781 9.0586 0.03125 0.24609 0.085938 0.48047 0.15234 0.72656-0.43359 1.4375-0.82031 2.9375-1.2227 4.5742-2.3477 9.4805-5.8984 23.816-25.367 42.336-18.051 17.172-58.98 18.539-63.488 14.059zm22.289 82.488c0-25.746 5.6445-50.453 16.773-73.434 0.050781-0.10547 0.039062-0.21484 0.082031-0.32422 11.801-2.9922 23.406-7.9922 31.285-15.492 21.598-20.551 25.73-37.242 28.203-47.219 0.55469-2.2305 1.0469-4.2188 1.6055-5.6992 27.109-17.336 58.398-26.562 90.781-26.562 32.355 0 63.672 9.2109 90.766 26.547 0.5625 1.4844 1.0625 3.4766 1.6211 5.7266 2.4688 9.9688 6.6055 26.668 28.203 47.219 7.8555 7.4766 19.418 12.469 31.176 15.461 11.246 23.086 16.969 47.898 16.969 73.781 0 93.039-75.691 168.73-168.73 168.73-93.039 0.003906-168.73-75.695-168.73-168.73z"/>
 </g>
</svg>