<?xml version="1.0" encoding="UTF-8"?>
<!-- The Best Svg Icon site in the world: iconSvg.co, Visit us! https://iconsvg.co -->
<svg fill="#000000" width="800px" height="800px" version="1.1" viewBox="144 144 512 512" xmlns="http://www.w3.org/2000/svg">
 <path d="m502.24 465.94c1.4805 1.4805 2.9648 2.2227 5.1875 2.9648 2.2227 0 3.7031-0.74219 5.1875-2.2227l37.785-37.785c1.4805-1.4805 2.2227-3.7031 2.2227-5.9258s-0.74219-3.7031-2.9648-5.1875l-60.754-51.121v-51.121c0-14.816-3.7031-29.637-10.371-42.973l25.191-21.484c2.9648-2.9648 3.7031-7.4102 0.74219-10.371-2.9648-2.9648-7.4102-3.7031-10.371-0.74219l-70.387 59.273c-2.2227-3.7031-5.1875-6.668-8.8906-8.8906l93.348-108.92 26.672 25.934-13.336 11.113c-2.9648 2.9648-3.7031 7.4102-0.74219 10.371 2.9648 2.9648 7.4102 3.7031 10.371 0.74219l19.262-16.301c1.4805-1.4805 2.2227-2.9648 2.9648-5.1875 0-2.2227-0.74219-4.4453-2.2227-5.9258l-37.785-37.785c-1.4766-0.74219-3.6992-1.4844-5.9219-1.4844-2.2227 0-3.7031 0.74219-5.1875 2.9648l-60.012 71.125c-25.93-14.078-58.531-14.078-84.461 0l-60.012-71.125c-1.4844-2.2227-3.707-2.9648-5.1875-2.9648-2.2227 0-4.4453 0.74219-5.9258 2.2227l-37.785 37.785c-1.4805 1.4805-2.2227 3.7031-2.2227 5.9258s0.74219 3.7031 2.9648 5.1875l25.93 21.484c2.9648 2.9648 8.1484 2.2227 10.371-0.74219 2.9648-2.9648 2.2227-8.1484-0.74219-10.371l-20.004-17.035 25.93-25.93 92.613 109.65c-3.7031 2.2227-6.668 5.1875-8.8906 8.8906l-66.68-56.309c-2.9648-2.9648-8.1484-2.2227-10.371 0.74219-2.9648 2.9648-2.2227 8.1484 0.74219 10.371l21.484 18.523c-6.668 12.594-10.371 27.414-10.371 42.973v51.121l-60.754 51.121c-1.4805 1.4805-2.2227 2.9648-2.9648 5.1875-0.74219 2.2227 0.74219 4.4453 2.2227 5.9258l37.785 37.785c1.4805 1.4805 2.9648 2.2227 5.1875 2.2227s3.7031-0.74219 5.1875-2.9648l12.594-14.816-0.003906 133.36h-27.41c-2.2227 0-4.4453 1.4805-5.9258 2.9648l-25.191 37.043c-1.4805 2.2227-1.4805 5.1875-0.74219 7.4102 1.4805 2.2227 3.7031 3.7031 6.668 3.7031h128.91c4.4453 0 7.4102-2.9648 7.4102-7.4102 0-4.4453-2.9648-7.4102-7.4102-7.4102l-114.84 0.003906 15.559-22.227h228.94l15.559 22.227h-108.17c-4.4453 0-7.4102 2.9648-7.4102 7.4102s2.9648 7.4102 7.4102 7.4102h121.51c2.9648 0 5.1875-1.4805 6.668-3.7031 1.4805-2.2227 1.4805-5.1875-0.74219-7.4102l-25.191-37.043c-1.4805-2.2266-3.7031-2.9688-5.9258-2.9688h-28.895v-134.1zm-72.609-151.14 37.785-31.859c4.4453 9.6328 7.4102 21.484 7.4102 32.598v38.527l-45.195-37.043v-0.74219-1.4805zm-62.234-65.941c20.004-9.6328 44.453-9.6328 64.457 0l-31.859 37.785h-0.74219-0.74219zm47.418 66.68c0 8.1484-6.668 14.816-14.816 14.816s-14.816-6.668-14.816-14.816c0-8.1484 6.668-14.816 14.816-14.816s14.816 6.668 14.816 14.816zm-89.648 0c0-11.113 2.2227-22.969 7.4102-32.598l37.785 31.859v0.74219 0.74219l-45.195 37.785zm149.66 269.69h-149.66v-151.88l14.078-16.301c2.9648-2.9648 2.2227-8.1484-0.74219-10.371-2.9648-2.2227-8.1484-2.2227-10.371 0.74219l-36.305 42.973-25.93-25.93 109.65-92.613c2.2227 3.7031 5.1875 6.668 8.8906 8.8906l-33.34 39.266c-2.9648 2.9648-2.2227 8.1484 0.74219 10.371 1.4805 1.4805 2.9648 1.4805 4.4453 1.4805 2.2227 0 4.4453-0.74219 5.9258-2.9648l37.043-44.453h0.74219 0.74219l74.09 88.168zm-58.531-244.5c3.7031-2.2227 6.668-5.1875 8.8906-8.8906l109.65 92.613-25.93 25.93z"/>
</svg>