<?xml version="1.0" encoding="UTF-8"?>
<!-- The Best Svg Icon site in the world: iconSvg.co, Visit us! https://iconsvg.co -->
<svg fill="#000000" width="800px" height="800px" version="1.1" viewBox="144 144 512 512" xmlns="http://www.w3.org/2000/svg">
 <g>
  <path d="m609.39 522.17h-0.046875l-109.73 9.918-7.8711 0.78906-67.07 6.2969-7.8711 0.78906-109.89 10.078 3.1484 33.535h0.046874l8.9727-0.78906c0.15625 2.0469 1.1016 3.9375 2.832 5.3516l2.3633 2.0469 34.32 28.496c1.5742 1.1016 3.3047 1.7305 5.0391 1.7305 2.3633 0 4.5664-0.94531 6.1406-2.832l25.348-30.699 30.699 25.504c3.3047 2.832 8.3438 2.3633 11.18-0.94531l25.348-30.699 30.699 25.504c3.3047 2.6758 8.3438 2.3633 11.02-1.1016l25.504-30.543 30.699 25.348c3.3047 2.832 8.3438 2.3633 11.02-0.94531l28.496-34.32 2.0469-2.3633c1.418-1.7305 2.0469-3.7773 1.8906-5.8242l8.8164-0.78906z"/>
  <path d="m427.19 512.73c-2.6758 5.5117-3.9375 11.652-3.3047 17.949v0.62891l7.8711-0.62891 51.641-4.8789 7.7148-0.62891v-0.62891c-1.5742-15.742-13.699-28.184-28.812-30.387-2.2031-0.31641-4.4102-0.47266-6.6133 0-0.47266-0.15625-0.78906-0.15625-1.418 0-12.121 0.94141-22.039 8.4961-27.078 18.574z"/>
  <path d="m448.91 486.91-224.51-239.94c-3.3047-3.4648-7.8711-5.3516-12.281-5.3516-4.0938 0-8.1875 1.5742-11.492 4.5664-6.7695 6.2969-7.0859 17.004-0.78906 23.773l221.68 236.79c5.9844-10.391 15.902-17.633 27.395-19.836z"/>
 </g>
</svg>