<?xml version="1.0" encoding="UTF-8"?>
<!-- The Best Svg Icon site in the world: iconSvg.co, Visit us! https://iconsvg.co -->
<svg width="800px" height="800px" version="1.1" viewBox="144 144 512 512" xmlns="http://www.w3.org/2000/svg">
 <defs>
  <clipPath id="c">
   <path d="m203 479h394v172.9h-394z"/>
  </clipPath>
  <clipPath id="b">
   <path d="m156 148.09h440v337.91h-440z"/>
  </clipPath>
  <clipPath id="a">
   <path d="m340 148.09h304v218.91h-304z"/>
  </clipPath>
 </defs>
 <g>
  <g clip-path="url(#c)">
   <path d="m203.75 508.71c-0.19922 27.664 7.0938 54.863 21.098 78.719 27 42.746 80.688 64.473 159.41 64.473h15.742 16.453c78.719 0 132.17-21.727 159.17-64.629h0.003906c13.938-23.879 21.199-51.07 21.016-78.719-172.16-59.75-354.08-11.336-392.89 0.15625zm96.902 103.83c-1.4805 0.68359-3.0898 1.0352-4.7227 1.0234-4.168 0.011719-7.9648-2.3789-9.7617-6.1406l-19.445-40.461h0.003906c-2.6328-5.4141-0.375-11.934 5.0352-14.562 5.4141-2.6328 11.934-0.375 14.566 5.0352l19.207 40.227c1.3594 2.6133 1.6094 5.668 0.69141 8.4688-0.91797 2.8008-2.9258 5.1094-5.5742 6.4102zm193.81-14.879 19.211-40.227c2.6328-5.3242 9.0586-7.5469 14.422-4.9844 5.3594 2.5625 7.668 8.957 5.1797 14.355l-19.445 40.461c-1.793 3.7617-5.5938 6.1484-9.7617 6.1406-1.6289 0.007813-3.2422-0.33984-4.7227-1.0234-2.6055-1.3008-4.582-3.5859-5.5-6.3477-0.91406-2.7617-0.69141-5.7773 0.61719-8.375z"/>
  </g>
  <g clip-path="url(#b)">
   <path d="m240.75 334.5c2.1992 3.207 2.5312 7.3438 0.86719 10.863-20.086 44.465-32.691 91.941-37.312 140.52 51.012-14.879 222.7-56.207 391.4-0.55078h-0.003907c-2.7656-32.887-9.5859-65.301-20.309-96.512h-1.8125c-189.32 0-244.43-145.39-255.52-182.87h-10.234c-3.8906-0.003906-7.4883-2.0703-9.4453-5.4336-2.3633-4.0938-19.445-33.535-28.969-52.426-18.516 31.684-20.426 70.402-5.1172 103.75 1.6641 3.4883 1.3359 7.6055-0.86719 10.785-2.1562 3.2266-5.8906 5.0352-9.7617 4.7227 0 0-10.785-0.70703-25.426-0.70703-32.906 0-58.566 3.6992-71.793 10.156 15.742 20.625 47.703 55.105 74.547 52.98v-0.003906c3.8594-0.24609 7.5625 1.5469 9.7617 4.7227zm55.105-48.887c6.7656 0 13.25 2.6875 18.035 7.4727 4.7812 4.7812 7.4688 11.27 7.4688 18.035 0 6.7617-2.6875 13.25-7.4688 18.035-4.7852 4.7812-11.27 7.4688-18.035 7.4688-6.7656 0-13.25-2.6875-18.035-7.4688-4.7812-4.7852-7.4688-11.273-7.4688-18.035-0.023437-6.8281 2.6992-13.375 7.5547-18.172 4.8594-4.7969 11.438-7.4414 18.266-7.3359z"/>
  </g>
  <g clip-path="url(#a)">
   <path d="m571.77 266.64c-14.641 0-25.348 0.70703-25.426 0.70703v0.003907c-3.9336 0.34375-7.7383-1.4727-9.9453-4.7461-2.2109-3.2695-2.4688-7.4805-0.68359-11 15.238-33.281 13.332-71.898-5.1172-103.52-9.6055 18.895-26.609 48.336-29.047 52.426-1.9102 3.375-5.4922 5.4531-9.3672 5.4336h-151.61c12.516 40.148 62.977 158.15 226.95 160.98-5.1172-13.145-8.9727-21.254-9.1328-21.57-1.6641-3.5195-1.332-7.6562 0.86719-10.863 2.2109-3.1641 5.9062-4.9531 9.7617-4.7227 26.844 1.8125 58.727-32.355 74.547-52.98-13.227-6.4531-38.887-10.156-71.793-10.156zm-67.934 70.379c-6.7656 0-13.254-2.6875-18.035-7.4727-4.7852-4.7812-7.4727-11.27-7.4727-18.035 0-6.7617 2.6875-13.25 7.4727-18.035 4.7812-4.7812 11.27-7.4688 18.035-7.4688 6.7617 0 13.25 2.6875 18.035 7.4688 4.7812 4.7852 7.4688 11.273 7.4688 18.035 0 6.7656-2.6875 13.254-7.4688 18.035-4.7852 4.7852-11.273 7.4727-18.035 7.4727z"/>
  </g>
 </g>
</svg>