<?xml version="1.0" encoding="UTF-8"?>
<!-- The Best Svg Icon site in the world: iconSvg.co, Visit us! https://iconsvg.co -->
<svg fill="#000000" width="800px" height="800px" version="1.1" viewBox="144 144 512 512" xmlns="http://www.w3.org/2000/svg">
 <g>
  <path d="m163.84 620.41h15.742v15.742h-15.742z"/>
  <path d="m443 528.85c-10.559-6.8281-22.605-11.02-35.125-12.219v-42.508l19.422-19.422-0.003907 0.003906c8.1992-8.2852 13.531-18.977 15.219-30.508 9.4336 6.9805 20.855 10.75 32.59 10.754h30.699c2.0898 0 4.0898-0.82812 5.5664-2.3047 1.4766-1.4766 2.3086-3.4766 2.3086-5.5664v-30.699c-0.007813-11.684-3.7344-23.059-10.645-32.473 11.5-1.7539 22.137-7.125 30.379-15.336l21.727-21.727c3.0742-3.0742 3.0742-8.0586 0-11.133l-21.727-21.727c-8.2812-8.1875-18.965-13.512-30.488-15.191 6.9805-9.4414 10.746-20.871 10.754-32.613v-30.703c0-2.0859-0.83203-4.0898-2.3086-5.5664-1.4766-1.4727-3.4766-2.3047-5.5664-2.3047h-30.699c-11.734 0.007812-23.156 3.7734-32.59 10.754-1.6875-11.523-7.0117-22.207-15.203-30.488l-21.727-21.727c-3.0742-3.0742-8.0547-3.0742-11.129 0l-21.727 21.727c-8.1992 8.2773-13.539 18.961-15.234 30.488-9.4336-6.9805-20.855-10.746-32.59-10.754h-30.699c-4.3477 0-7.8711 3.5234-7.8711 7.8711v30.703c0.007813 11.734 3.7773 23.152 10.75 32.59-11.52 1.6836-22.203 7.0078-30.488 15.191l-21.727 21.727c-3.0703 3.0742-3.0703 8.0586 0 11.133l21.727 21.727c8.2422 8.2109 18.883 13.582 30.379 15.336-6.9141 9.4219-10.645 20.805-10.641 32.496v30.699c0 2.0898 0.82812 4.0898 2.3047 5.5664 1.4766 1.4766 3.4766 2.3047 5.5664 2.3047h30.699c11.734-0.003907 23.156-3.7734 32.59-10.754 1.6875 11.523 7.0156 22.207 15.203 30.488l19.434 19.422v42.508c-12.516 1.1992-24.562 5.3867-35.125 12.219l-140.42 91.582h-21.258v15.742l440.84 0.003906v-15.746h-52.742zm-105.97-207.57c0-16.703 6.6328-32.719 18.445-44.531 11.809-11.809 27.828-18.445 44.531-18.445 16.699 0 32.719 6.6367 44.531 18.445 11.809 11.812 18.445 27.828 18.445 44.531s-6.6367 32.723-18.445 44.531c-11.812 11.812-27.832 18.445-44.531 18.445-16.699-0.019531-32.707-6.6602-44.512-18.465-11.805-11.809-18.445-27.812-18.465-44.512zm160.9 97.93h-22.828c-7.0664-0.015625-13.996-1.9258-20.074-5.5352-6.0742-3.6094-11.066-8.7812-14.461-14.98-0.84375-2.7031-1.8945-5.332-3.1484-7.8711 0-0.085937-0.039062-0.1875-0.0625-0.27734 13.504-7.3164 24.59-18.398 31.922-31.895 0.17187 0.046874 0.36328 0.070312 0.54297 0.11719 2.5195 1.2734 5.1367 2.3516 7.8242 3.2188 6.1367 3.4102 11.25 8.3945 14.816 14.441 3.5664 6.043 5.4531 12.934 5.4688 19.953zm40.512-97.93-16.164 16.164c-4.9766 4.9414-11.18 8.4688-17.973 10.215-6.7891 1.7461-13.926 1.6523-20.668-0.27344-2.5781-1.3359-5.2578-2.4609-8.0156-3.3711-0.085938-0.046875-0.15625-0.10938-0.23438-0.14844 4.4492-14.727 4.4492-30.441 0-45.168 0.078126-0.046874 0.14844-0.10156 0.22656-0.14062v-0.003907c2.7656-0.91406 5.4531-2.043 8.0391-3.3828 6.7383-1.9258 13.875-2.0156 20.664-0.26953 6.7891 1.75 12.988 5.2773 17.961 10.219zm-63.34-97.926h22.828v22.828c-0.011719 7.1055-1.9453 14.074-5.5938 20.172-3.6484 6.0977-8.8789 11.094-15.133 14.465-2.6211 0.82031-5.1758 1.8359-7.6445 3.0391l-0.29297 0.0625h0.003906c-7.3203-13.5-18.402-24.586-31.898-31.914 0-0.085937 0.039062-0.1875 0.0625-0.27734v0.003907c1.2539-2.5391 2.3047-5.1719 3.1484-7.875 3.3945-6.1914 8.3867-11.363 14.457-14.969 6.0703-3.6094 13-5.5195 20.062-5.5352zm-91.262-24.348 16.164-16.164 16.16 16.16v0.003906c4.9453 4.9727 8.4727 11.176 10.219 17.969 1.7461 6.793 1.6523 13.93-0.27734 20.672-1.3359 2.5781-2.4609 5.2578-3.3672 8.0156l-0.14844 0.23438h-0.003907c-14.727-4.4492-30.441-4.4492-45.168 0l-0.14844-0.23438c-0.91016-2.7578-2.0352-5.4375-3.3711-8.0156-1.9297-6.7422-2.0234-13.879-0.27734-20.672 1.75-6.793 5.2773-12.996 10.219-17.969zm-81.766 24.348h22.828c7.0664 0.011719 14 1.9258 20.074 5.5352 6.0742 3.6055 11.07 8.7812 14.461 14.977 0.84375 2.7031 1.8945 5.3359 3.1484 7.875 0 0.085938 0 0.1875 0.0625 0.27734v-0.003906c-13.504 7.3203-24.59 18.398-31.918 31.898l-0.30078-0.0625c-2.4531-1.1992-4.9922-2.207-7.5977-3.0156-6.2617-3.3672-11.496-8.3633-15.152-14.461-3.6523-6.0977-5.5938-13.066-5.6133-20.176zm-40.508 97.926 16.16-16.16c4.9727-4.9414 11.172-8.4727 17.961-10.219 6.793-1.75 13.926-1.6562 20.668 0.26953 2.582 1.3398 5.2695 2.4688 8.0352 3.3828 0.078125 0 0.14844 0.09375 0.22656 0.14062l0.003907 0.003906c-4.4531 14.727-4.4531 30.441 0 45.168-0.078126 0.046875-0.14844 0.10156-0.22656 0.14062h-0.003906c-2.7656 0.91406-5.4531 2.0469-8.0352 3.3867-6.7422 1.9219-13.875 2.0156-20.664 0.26562s-12.992-5.2734-17.965-10.215zm63.336 97.93h-22.828v-22.828c0.015626-7.0195 1.9062-13.906 5.4727-19.953 3.5664-6.043 8.6836-11.027 14.82-14.434 2.6914-0.875 5.3086-1.9531 7.8359-3.2266 0.17188-0.046875 0.36328-0.070313 0.53516-0.11719 7.3203 13.496 18.398 24.578 31.895 31.902 0 0.085938 0 0.1875-0.0625 0.27734-1.2539 2.5391-2.3047 5.168-3.1484 7.8711-3.3906 6.1953-8.3828 11.363-14.457 14.973-6.0703 3.6055-13 5.5195-20.062 5.5352zm48.996-14.297c1.3359-2.5781 2.4609-5.2578 3.3711-8.0117l0.14844-0.23438v-0.003906c14.727 4.4492 30.441 4.4492 45.168 0l0.14844 0.23438 0.003906 0.003907c0.90625 2.7539 2.0312 5.4336 3.3672 8.0117 1.9297 6.7422 2.0234 13.879 0.27734 20.672s-5.2734 12.996-10.219 17.973l-16.16 16.16-16.16-16.16h-0.003906c-4.9414-4.9766-8.4688-11.18-10.219-17.973-1.7461-6.793-1.6523-13.93 0.27734-20.672zm-8.2969 137.13c10.234-6.6758 22.184-10.227 34.402-10.227 12.215 0 24.168 3.5508 34.398 10.227l120.18 78.371h-309.15z"/>
  <path d="m376.38 581.05h15.742v15.742h-15.742z"/>
  <path d="m313.41 588.93h15.742v15.742h-15.742z"/>
  <path d="m407.87 549.57h15.742v15.742h-15.742z"/>
  <path d="m470.85 581.05h15.742v15.742h-15.742z"/>
  <path d="m352.77 313.41h15.742v15.742h-15.742z"/>
  <path d="m384.25 352.77h15.742v15.742h-15.742z"/>
  <path d="m392.12 313.41h15.742v15.742h-15.742z"/>
  <path d="m423.61 289.79h15.742v15.742h-15.742z"/>
  <path d="m431.49 337.02h15.742v15.742h-15.742z"/>
  <path d="m376.38 274.05h15.742v15.742h-15.742z"/>
 </g>
</svg>