<?xml version="1.0" encoding="UTF-8"?>
<!-- The Best Svg Icon site in the world: iconSvg.co, Visit us! https://iconsvg.co -->
<svg fill="#000000" width="800px" height="800px" version="1.1" viewBox="144 144 512 512" xmlns="http://www.w3.org/2000/svg">
 <g>
  <path d="m332.45 302.22c0-3.8789-1.1758-7.4766-3.1641-10.496 6.9883-2.8516 11.938-9.7031 11.938-17.707s-4.9492-14.855-11.938-17.707c1.9883-3.0195 3.1641-6.6172 3.1641-10.496 0-8.9219-6.1641-16.375-14.438-18.484 1.6992-2.8594 2.7422-6.1562 2.7422-9.7148 0-10.555-8.582-19.137-19.137-19.137h-63.527c-10.555 0-19.141 8.5859-19.141 19.141 0 3.5625 1.0391 6.8555 2.7422 9.7148-8.2773 2.1094-14.441 9.5625-14.441 18.488 0 3.8789 1.1758 7.4766 3.1641 10.496-6.9883 2.8477-11.934 9.6953-11.934 17.699s4.9492 14.855 11.938 17.707c-1.9883 3.0195-3.1641 6.6172-3.1641 10.496 0 8.9219 6.1641 16.379 14.441 18.488-1.6992 2.8594-2.7422 6.1562-2.7422 9.7148 0 10.555 8.5859 19.141 19.141 19.141h10.504v230.74c-0.003906 11.699 9.5312 21.219 21.254 21.219 11.719 0 21.254-9.5195 21.254-21.219l0.003907-230.75h10.508c10.555 0 19.141-8.5859 19.141-19.141 0-3.5625-1.043-6.8594-2.7422-9.7148 8.2734-2.1094 14.434-9.5625 14.434-18.484zm-94.359-93.668h63.527c5 0 9.0625 4.0625 9.0625 9.0625s-4.0625 9.0625-9.0625 9.0625h-63.527c-5 0-9.0625-4.0625-9.0625-9.0625s4.0625-9.0625 9.0625-9.0625zm-11.699 28.203h86.922c5 0 9.0625 4.0625 9.0625 9.0625s-4.0625 9.0625-9.0625 9.0625h-86.922c-5 0-9.0625-4.0625-9.0625-9.0625s4.0625-9.0625 9.0625-9.0625zm-8.7734 28.199h104.47c5 0 9.0625 4.0625 9.0625 9.0625s-4.0625 9.0625-9.0625 9.0625h-104.47c-5 0-9.0625-4.0625-9.0625-9.0625 0-4.9961 4.0625-9.0625 9.0625-9.0625zm63.414 315.35c0 6.1484-5.0117 11.145-11.18 11.145-6.1641 0-11.184-5-11.184-11.145l0.003907-230.74h22.363zm20.586-240.82h-63.527c-5 0-9.0625-4.0625-9.0625-9.0625s4.0625-9.0625 9.0625-9.0625h63.527c5 0 9.0625 4.0625 9.0625 9.0625s-4.0625 9.0625-9.0625 9.0625zm11.695-28.199h-86.922c-5 0-9.0625-4.0625-9.0625-9.0625s4.0625-9.0625 9.0625-9.0625h86.922c5 0 9.0625 4.0625 9.0625 9.0625s-4.0664 9.0625-9.0625 9.0625z"/>
  <path d="m589.59 256.31c1.9883-3.0195 3.1641-6.6172 3.1641-10.496 0-8.9219-6.1641-16.379-14.441-18.488 1.6992-2.8594 2.7422-6.1562 2.7422-9.7148 0-10.551-8.5859-19.133-19.141-19.133h-63.527c-10.555 0-19.141 8.5859-19.141 19.141 0 3.5625 1.043 6.8594 2.7422 9.7148-8.2734 2.1094-14.438 9.5625-14.438 18.484 0 3.8789 1.1758 7.4766 3.1641 10.496-6.9883 2.8516-11.938 9.7031-11.938 17.707 0 8.0039 4.9492 14.855 11.938 17.707-1.9883 3.0195-3.1641 6.6172-3.1641 10.496 0 8.9219 6.1641 16.375 14.438 18.484-1.6992 2.8594-2.7422 6.1562-2.7422 9.7148 0 10.555 8.5859 19.141 19.141 19.141h10.508v230.74c0 11.699 9.5352 21.219 21.254 21.219 11.723 0 21.258-9.5195 21.258-21.219l0.003906-230.75h10.504c10.555 0 19.141-8.5859 19.141-19.141 0-3.5625-1.0391-6.8555-2.7422-9.7148 8.2773-2.1094 14.441-9.5625 14.441-18.488 0-3.8789-1.1758-7.4766-3.1641-10.496 6.9883-2.8477 11.938-9.6992 11.938-17.703s-4.9492-14.852-11.938-17.707zm-91.203-47.758h63.527c5 0 9.0625 4.0625 9.0625 9.0625s-4.0625 9.0625-9.0625 9.0625h-63.527c-5 0-9.0625-4.0625-9.0625-9.0625s4.0664-9.0625 9.0625-9.0625zm-11.695 28.203h86.922c5 0 9.0625 4.0625 9.0625 9.0625s-4.0625 9.0625-9.0625 9.0625h-86.922c-5 0-9.0625-4.0625-9.0625-9.0625s4.0664-9.0625 9.0625-9.0625zm54.645 343.55c0 6.1484-5.0195 11.145-11.184 11.145-6.1641 0-11.18-5-11.18-11.145v-230.74h22.363zm20.578-240.82h-63.527c-5 0-9.0625-4.0625-9.0625-9.0625s4.0625-9.0625 9.0625-9.0625h63.527c5 0 9.0625 4.0625 9.0625 9.0625s-4.0625 9.0625-9.0625 9.0625zm11.699-28.199h-86.922c-5 0-9.0625-4.0625-9.0625-9.0625s4.0625-9.0625 9.0625-9.0625h86.922c5 0 9.0625 4.0625 9.0625 9.0625s-4.0625 9.0625-9.0625 9.0625zm8.7734-28.203h-104.47c-5 0-9.0625-4.0625-9.0625-9.0625s4.0625-9.0625 9.0625-9.0625h104.47c5 0 9.0625 4.0664 9.0625 9.0625 0 5-4.0625 9.0625-9.0625 9.0625z"/>
  <path d="m460.03 508.27c1.9883-3.0195 3.1641-6.6172 3.1641-10.496 0-8.9219-6.1641-16.375-14.438-18.484 1.6992-2.8594 2.7422-6.1562 2.7422-9.7148 0-10.555-8.5859-19.141-19.141-19.141h-10.508v-230.74c0-11.699-9.5352-21.219-21.254-21.219-11.723 0-21.258 9.5195-21.258 21.219v230.74h-10.504c-10.555 0-19.141 8.5859-19.141 19.141 0 3.5625 1.0391 6.8555 2.7422 9.7148-8.2773 2.1094-14.441 9.5625-14.441 18.488 0 3.8789 1.1758 7.4766 3.1641 10.496-6.9883 2.8516-11.938 9.7031-11.938 17.707s4.9492 14.855 11.938 17.707c-1.9883 3.0195-3.1641 6.6172-3.1641 10.496 0 8.9219 6.1641 16.379 14.441 18.488-1.6992 2.8594-2.7422 6.1562-2.7422 9.7148 0 10.547 8.5859 19.133 19.141 19.133h63.527c10.555 0 19.141-8.5859 19.141-19.141 0-3.5625-1.043-6.8594-2.7422-9.7148 8.2734-2.1094 14.438-9.5625 14.438-18.484 0-3.8789-1.1758-7.4766-3.1641-10.496 6.9883-2.8516 11.938-9.7031 11.938-17.707-0.003906-8.0039-4.9531-14.855-11.941-17.707zm-70.617-288.58c0-6.1445 5.0195-11.145 11.184-11.145 6.1641 0 11.18 5 11.18 11.145v230.74h-22.363zm-20.578 240.82h63.527c5 0 9.0625 4.0625 9.0625 9.0625s-4.0625 9.0625-9.0625 9.0625h-63.527c-5 0-9.0625-4.0625-9.0625-9.0625s4.0625-9.0625 9.0625-9.0625zm-11.699 28.199h86.922c5 0 9.0625 4.0625 9.0625 9.0625s-4.0625 9.0625-9.0625 9.0625h-86.922c-5 0-9.0625-4.0625-9.0625-9.0625 0-4.9961 4.0625-9.0625 9.0625-9.0625zm75.227 102.73h-63.527c-5 0-9.0625-4.0625-9.0625-9.0625s4.0625-9.0625 9.0625-9.0625h63.527c5 0 9.0625 4.0625 9.0625 9.0625s-4.0664 9.0625-9.0625 9.0625zm11.695-28.199h-86.922c-5 0-9.0625-4.0625-9.0625-9.0625s4.0625-9.0625 9.0625-9.0625h86.922c5 0 9.0625 4.0625 9.0625 9.0625 0 4.9961-4.0664 9.0625-9.0625 9.0625zm8.7695-28.203h-104.46c-5 0-9.0625-4.0625-9.0625-9.0625s4.0625-9.0625 9.0625-9.0625h104.47c5 0 9.0625 4.0625 9.0625 9.0625-0.003906 5-4.0664 9.0625-9.0664 9.0625z"/>
 </g>
</svg>