<?xml version="1.0" encoding="UTF-8"?>
<!-- The Best Svg Icon site in the world: iconSvg.co, Visit us! https://iconsvg.co -->
<svg fill="#000000" width="800px" height="800px" version="1.1" viewBox="144 144 512 512" xmlns="http://www.w3.org/2000/svg">
 <path d="m584.34 396.09c-0.015625-0.20312-0.050782-0.39844-0.089844-0.59766-0.058594-0.29688-0.13281-0.57813-0.24219-0.85547-0.027343-0.070313-0.027343-0.14453-0.058593-0.21094-0.046875-0.10547-0.12891-0.1875-0.18359-0.28906-0.14453-0.26953-0.29297-0.52344-0.48438-0.76172-0.125-0.16016-0.26562-0.29297-0.40625-0.4375-0.19531-0.19531-0.39062-0.38281-0.61719-0.54297-0.19922-0.14062-0.41016-0.24609-0.62891-0.35938-0.16016-0.082031-0.29297-0.19922-0.46094-0.26172-0.0625-0.023438-0.12891-0.019532-0.19141-0.042969-0.25391-0.085938-0.51953-0.125-0.78906-0.17188-0.21875-0.035156-0.4375-0.089844-0.65625-0.097656-0.054688 0-0.10547-0.023438-0.16016-0.023438l-86.473 0.003906v-82.941c0-2.7812-2.2539-5.0391-5.0391-5.0391h-3.1133l-74.934 0.003906v-64.957c0-2.7812-2.2539-5.0391-5.0391-5.0391h-37.391v-29.957c0-0.11328-0.042968-0.21875-0.050781-0.33203-0.019531-0.28125-0.0625-0.55469-0.12891-0.83203-0.050781-0.20703-0.10156-0.40234-0.17578-0.60156-0.03125-0.085938-0.046875-0.17578-0.082032-0.25781-0.015624-0.03125-0.015624-0.066406-0.027343-0.097656-0.070313-0.15234-0.1875-0.27344-0.27344-0.41797-0.10547-0.17578-0.20703-0.34766-0.33203-0.51172-0.10547-0.14063-0.20703-0.27734-0.32812-0.40234-0.097656-0.10156-0.20703-0.17578-0.3125-0.26953-0.12891-0.11328-0.24609-0.22656-0.38672-0.32812-0.23047-0.16797-0.47266-0.29688-0.72656-0.42188-0.12891-0.0625-0.24219-0.14062-0.37891-0.19531-0.03125-0.011719-0.054688-0.035156-0.085938-0.046875-0.039062-0.015625-0.078125-0.011719-0.11719-0.023437-0.33594-0.11719-0.68359-0.17188-1.043-0.21484-0.14844-0.019532-0.29297-0.058594-0.44141-0.0625-0.050782-0.003906-0.097657-0.019532-0.14844-0.019532h-141.43c-2.7812 0-5.0391 2.2539-5.0391 5.0391v40.594c-0.13281 0.45312-0.28125 0.90234-0.28125 1.4023v76.992c0 0.44531 0.16016 0.84766 0.28125 1.2617v152.59c0 0.68359 0.15234 1.3398 0.42578 1.9375v118.13c0 2.7812 2.2539 5.0391 5.0391 5.0391 1.3672 0 2.75 0.015624 4.1328 0.035156 1.4297 0.007812 2.8594 0.027344 4.2656 0.027344 62.551 0 124.24-8.6055 183.36-25.578 74.871-21.496 137.3-73.57 167.85-102.7 0.84766-0.80859 1.4062-1.3438 1.6406-1.5508 1.1445-0.95703 1.8086-2.3711 1.8086-3.8633v-71.352c0-0.13281-0.050782-0.25781-0.058594-0.39062zm-16.934 6.5117c-0.25 0.27344-0.49219 0.53906-0.75 0.81641-0.53125 0.57031-1.0898 1.1641-1.6523 1.7578-0.25 0.26172-0.48438 0.51562-0.74219 0.78516-0.76953 0.80469-1.5742 1.6289-2.4023 2.4727-0.058594 0.058594-0.10938 0.11328-0.16797 0.17578-0.90234 0.91406-1.8438 1.8516-2.8164 2.8047-0.23047 0.22656-0.48047 0.46484-0.71484 0.69531-0.73828 0.71875-1.4883 1.4453-2.2656 2.1875-0.36719 0.34766-0.75 0.70703-1.125 1.0586-0.68359 0.64453-1.375 1.293-2.0898 1.9531-0.42969 0.39453-0.87109 0.79688-1.3086 1.1953-0.69922 0.63672-1.4102 1.2812-2.1406 1.9336-0.47656 0.42578-0.96094 0.85547-1.4492 1.2852-0.72266 0.63672-1.4609 1.2812-2.2109 1.9336-0.52344 0.45312-1.0469 0.90625-1.5859 1.3633-0.77344 0.66016-1.5664 1.3281-2.3672 2.0039-0.53906 0.45312-1.0742 0.90234-1.625 1.3594-0.85547 0.70703-1.7344 1.4219-2.6211 2.1406-0.53516 0.43359-1.0625 0.86719-1.6094 1.3047-1.0312 0.82812-2.0977 1.6641-3.168 2.5039-0.42969 0.33594-0.84375 0.67188-1.2812 1.0078-1.5273 1.1875-3.0977 2.3867-4.707 3.5977-0.25781 0.19531-0.53516 0.39453-0.79688 0.58984-1.3555 1.0156-2.7344 2.0312-4.1484 3.0625-0.60156 0.4375-1.2305 0.87891-1.8438 1.3203-1.1055 0.79297-2.2109 1.5898-3.3516 2.3906-0.72266 0.50781-1.4648 1.0195-2.2031 1.5312-1.082 0.75-2.168 1.5-3.2773 2.2539-0.78125 0.53125-1.5781 1.0664-2.375 1.5977-1.1094 0.74219-2.2305 1.4883-3.3672 2.2344-0.83594 0.55078-1.6797 1.0977-2.5352 1.6523-1.1562 0.75-2.332 1.5-3.5195 2.2539-0.85938 0.54688-1.7227 1.0938-2.6016 1.6406-1.2344 0.76953-2.4922 1.5469-3.7617 2.3203-0.87891 0.53906-1.75 1.0742-2.6445 1.6133-1.3594 0.82031-2.7578 1.6445-4.1523 2.4688-0.83594 0.49219-1.6602 0.98437-2.5078 1.4805-1.7148 1-3.4727 2-5.2422 3-0.57031 0.32031-1.1172 0.64453-1.6914 0.96484-2.3555 1.3203-4.7617 2.6484-7.2109 3.9727-0.64844 0.35156-1.3281 0.70312-1.9844 1.0547-1.8164 0.97266-3.6406 1.9453-5.5078 2.918-0.97266 0.50781-1.9766 1.0156-2.9648 1.5234-1.6016 0.82031-3.2031 1.6445-4.8438 2.4648-1.0977 0.55078-2.2148 1.0977-3.3281 1.6484-1.5938 0.78906-3.1992 1.5742-4.8281 2.3594-1.1602 0.55859-2.3359 1.1172-3.5156 1.6797-1.6289 0.77344-3.2734 1.5469-4.9375 2.3164-1.2148 0.5625-2.4375 1.125-3.6719 1.6875-1.7031 0.77734-3.4336 1.5508-5.1719 2.3242-1.2344 0.55078-2.4648 1.0977-3.7188 1.6445-1.8203 0.79688-3.6758 1.5898-5.5352 2.3828-1.2148 0.51953-2.4219 1.0391-3.6523 1.5547-2.0703 0.86719-4.1836 1.7344-6.3047 2.5977-1.0664 0.43359-2.1094 0.87109-3.1875 1.3047-3.2188 1.293-6.4805 2.582-9.8047 3.8633-52.914 20.367-113.94 23.113-166.66 23.113-1.1406 0-2.2383-0.039062-3.3594-0.058594v-50.195c0.82031 0.011719 1.6211 0.042969 2.457 0.042969 33.836 0 66.23-2.9219 96.875-8.6016 19.352-3.3164 38.074-7.6445 56.039-13.035 8.5625-2.5859 18.652-6.8984 29.172-12.047 16.938-7.1367 33.004-15.336 47.973-24.602 5.8242-3.5977 11.379-7.3008 16.949-11.305 3.9531-2.793 7.7852-5.6523 11.465-8.5508l2.3203-1.8633h78.762c-0.33594 0.36719-0.66406 0.72656-1 1.0938zm-276.59-159.19c5.5195-1.2305 10.945-2.6445 16.129-4.207 2.9531-0.89062 5.75-1.8164 8.457-2.7617 0.86719-0.30469 1.6797-0.61328 2.5234-0.92188 1.7969-0.65625 3.5547-1.3125 5.2383-1.9805 0.90625-0.35937 1.7812-0.72266 2.6562-1.0859 1.5391-0.64062 3.0234-1.2812 4.4609-1.9258 0.8125-0.36328 1.625-0.72656 2.4062-1.0938 1.4766-0.69141 2.8828-1.3828 4.25-2.0742 0.60547-0.30469 1.2383-0.60938 1.8203-0.91406 1.8867-0.98437 3.6836-1.9609 5.3594-2.9258 0.1875-0.10938 0.34375-0.21094 0.52734-0.31641 1.4922-0.86719 2.9023-1.7227 4.2227-2.5625 0.50781-0.32031 0.96484-0.62891 1.4453-0.94141 0.94141-0.61328 1.8477-1.2148 2.6992-1.8047 0.48438-0.33594 0.94531-0.66016 1.4023-0.98828 0.76953-0.55078 1.4961-1.082 2.1836-1.6055 0.22266-0.16797 0.49219-0.35547 0.70703-0.51953v21.695c-0.10547 0.10547-0.20312 0.19922-0.32422 0.31641-0.11328 0.10938-0.22656 0.21875-0.35547 0.33984-0.25781 0.24219-0.55859 0.51563-0.87109 0.80078-0.14844 0.13281-0.28516 0.25781-0.44531 0.40234-0.4375 0.38672-0.92578 0.80859-1.457 1.2539-0.070313 0.058594-0.125 0.10938-0.19531 0.16797-0.60938 0.50781-1.2891 1.0547-2.0234 1.625-0.1875 0.14844-0.40625 0.30469-0.60156 0.45703-0.5625 0.42969-1.1523 0.875-1.7812 1.332-0.30078 0.21875-0.62109 0.44531-0.9375 0.66797-0.58984 0.42188-1.207 0.84766-1.8555 1.2891-0.37109 0.25391-0.75391 0.50781-1.1484 0.76953-0.66797 0.44141-1.375 0.89062-2.0938 1.3477-0.41406 0.26172-0.82422 0.52344-1.2578 0.78906-0.85938 0.52734-1.7734 1.0625-2.707 1.6055-0.34766 0.19922-0.66797 0.39844-1.0234 0.59766-1.3086 0.74219-2.6875 1.4922-4.1367 2.25-0.31641 0.16406-0.66797 0.33203-0.99219 0.5-1.1562 0.59375-2.3438 1.1875-3.5859 1.7812-0.55469 0.26562-1.1445 0.53125-1.7188 0.80078-1.0781 0.5-2.1836 1-3.3242 1.5-0.66406 0.28906-1.3477 0.57813-2.0352 0.87109-1.1445 0.48047-2.3281 0.96094-3.5312 1.4375-0.71875 0.28516-1.4375 0.56641-2.1797 0.85156-1.3242 0.50391-2.6992 0.99609-4.0938 1.4883-0.67969 0.23828-1.3398 0.48438-2.0391 0.72266-2.1172 0.71875-4.2969 1.4297-6.5742 2.1172-5.3516 1.6328-11.281 3.1484-17.625 4.5156-18.281 3.9453-38.594 6.0781-60.441 6.3633v-24.93c1.7266-0.027343 3.4375-0.0625 5.1055-0.097656 3.3594-0.070312 6.5742-0.21094 9.9062-0.35938l9.2266-0.63281c1.4844-0.10547 2.9258-0.27734 4.3867-0.41797s2.9727-0.24219 4.3906-0.41797c0.57422-0.019531 1.1523-0.085937 1.7227-0.16406l0.53906-0.0625v-0.003907c0.14844-0.015624 0.28125-0.039062 0.42188-0.054687 0.25-0.015625 0.58984-0.046875 0.73438-0.0625l1.5117-0.17578c0.023437-0.003906 0.039062-0.015625 0.0625-0.019532l1.207-0.14844c0.52344-0.0625 1.0391-0.125 1.3008-0.17578 2.4688-0.28906 4.9336-0.64453 7.2539-1.0039 0.16797-0.023438 0.33203-0.058594 0.49609-0.10156 0.074219-0.015625 0.16406-0.035156 0.25391-0.054687 0.62109-0.085938 1.2266-0.19141 1.8047-0.29688l1.0469-0.17578c0.03125-0.003906 0.0625-0.015625 0.09375-0.019531 0.30078-0.042969 0.60156-0.089844 0.89844-0.14844l0.46094-0.078124 0.28906-0.042969c0.15625-0.023438 0.30859-0.054688 0.45703-0.097657 0.10156-0.019531 0.23047-0.046874 0.35547-0.078124l5.4023-1.043c0.003906 0 0.007812-0.003907 0.015625-0.003907l0.023437-0.003906c1.832-0.36328 3.6602-0.72266 5.4219-1.1445 0.023437-0.003906 0.046874-0.011719 0.070312-0.015625zm40.875 111.14h0.003907c0.074219-0.027343 0.15234-0.046875 0.22656-0.074219 0.035157-0.011718 0.070313-0.027343 0.10547-0.039062 5.2852-1.6172 11.316-4.1484 17.613-7.1641 27.105-12.328 49.609-28.367 56.812-33.734h69.207c-1.3281 1.9766-2.6914 3.9375-4.125 5.8242l-1.2734 1.6172c-1.0703 1.3633-2.1328 2.7227-3.3008 4.0781-11.418 13.551-45.012 47.457-110.17 69.668-3.7422 1.3047-7.5586 2.5391-11.5 3.7031-3.7578 1.1016-7.5859 2.2031-11.523 3.1992-1.3984 0.38672-2.8398 0.72656-4.25 1.0586l-1.0273 0.24219c-3.9922 1.0156-8.0391 1.9648-12.137 2.8594-1.418 0.30859-2.8711 0.57422-4.3008 0.86719-2.7031 0.55469-5.4023 1.1211-8.1484 1.625-1.707 0.3125-3.4531 0.57812-5.1758 0.87109-2.5195 0.42578-5.0273 0.86719-7.582 1.25-1.8477 0.27734-3.7344 0.51172-5.5977 0.76562-2.4688 0.33594-4.9297 0.68359-7.4258 0.98047-1.9609 0.23437-3.9531 0.42578-5.9336 0.63281-2.4492 0.25781-4.8945 0.52344-7.3711 0.74219-2.0469 0.18359-4.1172 0.32422-6.1797 0.48047-2.457 0.18359-4.9062 0.375-7.3867 0.52344-2.1133 0.125-4.25 0.21875-6.3828 0.31641-2.4688 0.11719-4.9414 0.23047-7.4336 0.30859-2.1797 0.070312-4.375 0.10938-6.5742 0.14844-1.6328 0.03125-3.2695 0.050781-4.9102 0.066407v-45.871c44.082-0.33203 77.789-5.1172 105.73-14.961 0 0.015625 0.003906 0.015625 0.003906 0.015625zm151.12-33.586v72.914c-8.7656 6-44.766 29.418-76.141 44.816-11.992 5.0391-24.43 9.5469-37.301 13.43-14.625 4.3906-29.824 7.9805-45.473 10.883-29.891 5.1133-61.375 7.7227-94.168 7.7227-1.2656 0-2.5156-0.019531-3.7852-0.042969v-45.188c1.6953-0.015625 3.3633-0.082031 5.0469-0.11328 2.2578-0.042969 4.5156-0.082031 6.7539-0.15234 2.5547-0.082031 5.082-0.19922 7.6094-0.31641 2.1719-0.10156 4.3477-0.19531 6.5039-0.32422 2.5586-0.15234 5.0898-0.34766 7.6211-0.53906 2.0859-0.15625 4.1836-0.30078 6.25-0.48438 2.5625-0.22656 5.0938-0.50391 7.6289-0.76953 1.9961-0.21094 4.0078-0.40234 5.9883-0.64062 2.5742-0.30469 5.1133-0.66406 7.6562-1.0117 1.8945-0.25781 3.8047-0.49609 5.6836-0.77734 2.6445-0.39844 5.2461-0.85156 7.8555-1.2969 1.7266-0.29297 3.4727-0.55859 5.1836-0.875 2.8828-0.52734 5.7148-1.1211 8.5508-1.707 1.3906-0.28906 2.8086-0.54297 4.1875-0.84375 4.1953-0.91406 8.3398-1.8867 12.43-2.9258l0.92969-0.21875c1.5391-0.36328 3.1055-0.73438 4.5117-1.125 3.9492-1 7.9023-2.1328 11.789-3.2734 4.1094-1.2109 8.0742-2.4961 11.938-3.8438 67.512-23.016 102.62-58.508 114.55-72.66 1.2383-1.4375 2.3945-2.9102 3.5586-4.3945l1.3047-1.6602c1.1523-1.5117 2.2617-3.0391 3.332-4.582zm-83.086-53.5v38.441c-7.4453 5.1562-32.422 21.648-53.777 31.973-5.5938 2.5586-11.375 4.9648-17.277 7.0547-29.75 8.9688-63.246 13.789-99.629 14.418-1.0312 0.011719-2.0508 0.03125-3.0938 0.039063v-31.883c1.4883-0.015624 2.9414-0.082031 4.418-0.11719 2.0586-0.042969 4.1172-0.085937 6.1484-0.16016 2.332-0.082031 4.6367-0.20312 6.9375-0.32812 1.9727-0.10547 3.9492-0.20312 5.8984-0.33594 2.3125-0.15625 4.5898-0.35547 6.8711-0.55469 1.8945-0.16406 3.8008-0.31641 5.6719-0.50781 2.2891-0.23438 4.543-0.51172 6.8008-0.78906 1.8086-0.21875 3.6289-0.42188 5.418-0.66797 2.2891-0.31641 4.5312-0.67969 6.7852-1.0391 1.707-0.26953 3.4297-0.51953 5.1172-0.81641 2.3125-0.40625 4.5781-0.86719 6.8555-1.3203 1.5703-0.3125 3.1641-0.59766 4.7148-0.92969 2.4805-0.53516 4.9062-1.1328 7.3398-1.7227 1.2891-0.3125 2.6094-0.59375 3.8867-0.92188 3.6836-0.94922 7.3125-1.957 10.879-3.0391 1.0469-0.32422 2.0859-0.64844 3.0117-0.95312 49.906-15.793 72.078-39.93 76.008-44.598 0.34766-0.41016 0.68359-0.82422 1.0156-1.2422zm-0.38672-23.918c-0.019531 0.14844-0.039062 0.30078-0.058594 0.44922-0.22656 1.4805-0.52734 2.9453-0.93359 4.3828-0.066407 0.23047-0.14844 0.45312-0.21875 0.67969-0.39844 1.3164-0.87109 2.6055-1.4141 3.8711-0.10547 0.24219-0.19531 0.48828-0.30469 0.72656-0.62109 1.3594-1.332 2.6836-2.1172 3.9648-0.16797 0.27734-0.35156 0.54688-0.52734 0.82031-0.84375 1.3008-1.7422 2.5703-2.7539 3.7656-3.625 4.3047-24.094 26.535-71.402 41.504-0.92578 0.30469-1.9102 0.60937-3.207 1.0117-3.4062 1.0312-6.8828 1.9961-10.414 2.9023-1.2031 0.30859-2.4492 0.57422-3.668 0.86719-2.3516 0.57031-4.6953 1.1445-7.0938 1.6562-1.5625 0.33594-3.168 0.62109-4.7539 0.93359-2.1055 0.41406-4.1992 0.83984-6.3398 1.2148-1.8125 0.31641-3.668 0.58594-5.5078 0.87109-1.9648 0.30859-3.918 0.625-5.9102 0.89844-2.0078 0.27344-4.0547 0.50391-6.0938 0.74609-1.8828 0.22266-3.7539 0.45703-5.6602 0.65234-2.1562 0.21875-4.3477 0.39453-6.5391 0.57812-1.8516 0.15625-3.6914 0.31641-5.5664 0.44531-2.2383 0.15234-4.5078 0.26953-6.7773 0.38281-1.9062 0.097656-3.8047 0.19922-5.7305 0.26953-2.2109 0.082031-4.4492 0.12891-6.6914 0.17578-1.3203 0.027344-2.6484 0.046875-3.9805 0.0625v-31.875c2.5898-0.03125 5.0859-0.17969 7.6367-0.25781 2.418-0.078125 4.8633-0.125 7.2422-0.24609 3.4414-0.17969 6.7891-0.45703 10.145-0.73047 2.1953-0.17969 4.4336-0.3125 6.5938-0.53125 3.6484-0.37109 7.1875-0.85547 10.727-1.3438 1.75-0.23828 3.5547-0.42188 5.2734-0.6875 5.2031-0.80859 10.293-1.7344 15.227-2.7969 6.6133-1.4258 12.82-3.0117 18.426-4.7227 2.4531-0.73828 4.8008-1.5039 7.082-2.2812 0.73828-0.25 1.4336-0.50781 2.1562-0.76172 1.5156-0.53516 3.0078-1.0742 4.4453-1.6211 0.78516-0.29688 1.543-0.59766 2.3047-0.89844 1.3281-0.52734 2.6211-1.0547 3.8828-1.5859 0.70703-0.30078 1.4141-0.59766 2.1016-0.89844 1.3047-0.57031 2.5547-1.1445 3.7852-1.7188 0.54687-0.25391 1.1094-0.50781 1.6406-0.76562 3.4492-1.6602 6.5859-3.3203 9.4258-4.9453 0.44141-0.25 0.84375-0.49609 1.2695-0.74609 0.95703-0.5625 1.8906-1.1172 2.7734-1.6641 0.46484-0.28516 0.90625-0.56641 1.3477-0.85156 0.80078-0.51172 1.5742-1.0117 2.3125-1.5078 0.40234-0.26953 0.80078-0.53516 1.1836-0.79688 0.75781-0.52344 1.4727-1.0273 2.1602-1.5273 0.28516-0.20703 0.58984-0.41797 0.86328-0.62109 1.8828-1.3906 3.4922-2.6719 4.8438-3.8164 0.20703-0.17578 0.38281-0.33203 0.57812-0.5 0.45312-0.39063 0.87891-0.76563 1.2695-1.1172 0.19531-0.17578 0.36719-0.33594 0.54688-0.5 0.34375-0.31641 0.65625-0.60938 0.94141-0.88672 0.14453-0.14062 0.28516-0.27344 0.41406-0.40234 0.074219-0.074219 0.17188-0.16406 0.23828-0.23047zm-50.605-34.996c-0.14453 0.10156-0.3125 0.21484-0.46094 0.32031-0.85938 0.60938-1.7617 1.2383-2.7383 1.8867-0.38672 0.25781-0.82031 0.52734-1.2266 0.78906-0.82031 0.53125-1.6602 1.0664-2.5586 1.6133-0.51172 0.3125-1.0664 0.63281-1.6055 0.95312-0.87891 0.51953-1.7812 1.043-2.7305 1.5703-0.60938 0.33984-1.25 0.68359-1.8867 1.0273-0.97266 0.52344-1.9805 1.0469-3.0195 1.5742-0.69531 0.35156-1.4023 0.70312-2.1289 1.0586-1.0859 0.53125-2.2227 1.0586-3.3828 1.5898-0.76562 0.35156-1.5312 0.70312-2.332 1.0508-1.2344 0.54297-2.5352 1.0781-3.8477 1.6133-0.80859 0.33203-1.5938 0.66406-2.4336 0.98828-1.4844 0.58203-3.0508 1.1484-4.625 1.7188-0.75781 0.27344-1.4766 0.55078-2.2539 0.82031-2.3945 0.82812-4.8789 1.6406-7.4805 2.4258-4.7891 1.4453-9.8125 2.75-14.98 3.918h-2.8008c-0.39062 0-0.78125 0.046875-1.1641 0.13672-16.379 3.8867-34.617 6.1484-54.207 6.7227h-0.035156c-1.5859 0.035156-3.2578 0.042969-4.8945 0.070313l0.007812-31.848zm225.58 257.09c-0.10547 0.10156-0.21484 0.20312-0.32812 0.3125-29.879 28.488-90.871 79.406-163.67 100.31-58.211 16.711-118.96 25.184-180.58 25.184-1.1133 0-2.2344-0.011718-3.3594-0.027343v-49.641c1.1133 0.015625 2.2305 0.03125 3.3594 0.03125 53.648 0 115.83-2.8281 170.29-23.789 5.7031-2.1953 11.211-4.418 16.605-6.6523 0.78906-0.32813 1.5898-0.65234 2.375-0.98047 5.0859-2.1289 10.02-4.2734 14.832-6.4258 0.91406-0.41016 1.8203-0.81641 2.7227-1.2266 4.7539-2.1562 9.3945-4.3164 13.883-6.4883 0.69531-0.33594 1.3633-0.66797 2.0508-1.0039 4.5977-2.2422 9.0898-4.4883 13.414-6.7383 0.082032-0.042968 0.16797-0.082031 0.24609-0.125 4.3711-2.2773 8.5664-4.5508 12.66-6.8203 0.63281-0.35156 1.2773-0.69922 1.9023-1.0508 3.875-2.168 7.6094-4.3242 11.242-6.4766 0.69141-0.41016 1.375-0.81641 2.0547-1.2266 3.5859-2.1484 7.0703-4.2891 10.418-6.4102 0.51172-0.32422 1-0.64062 1.5039-0.96484 3.3906-2.168 6.6875-4.3242 9.8359-6.4531 0.10156-0.066406 0.20703-0.13281 0.30859-0.20312 3.2031-2.1719 6.2539-4.3125 9.2109-6.4336 0.46484-0.33203 0.93359-0.66406 1.3945-0.99609 2.793-2.0195 5.4648-4.0078 8.043-5.9727 0.5-0.38281 0.99609-0.76172 1.4883-1.1406 2.5391-1.9531 4.9883-3.8828 7.3203-5.7734 0.34766-0.28125 0.67969-0.55859 1.0234-0.83594 2.3477-1.918 4.6094-3.8047 6.7461-5.6406 0.082031-0.070313 0.17188-0.14453 0.25391-0.21484 2.1758-1.875 4.2188-3.6953 6.1797-5.4766 0.3125-0.28516 0.63281-0.57031 0.94141-0.85156 1.8516-1.6953 3.6016-3.3398 5.2656-4.9414 0.3125-0.30078 0.61328-0.59375 0.91797-0.88672 1.6406-1.5898 3.1992-3.1367 4.6523-4.6172 0.19531-0.19922 0.37891-0.39063 0.57031-0.58984 1.4727-1.5117 2.8672-2.9727 4.1523-4.3594 0.023437-0.027344 0.054687-0.054688 0.078124-0.082031z"/>
</svg>