<?xml version="1.0" encoding="UTF-8"?>
<!-- The Best Svg Icon site in the world: iconSvg.co, Visit us! https://iconsvg.co -->
<svg fill="#000000" width="800px" height="800px" version="1.1" viewBox="144 144 512 512" xmlns="http://www.w3.org/2000/svg">
 <g>
  <path d="m245.37 327.6c-15.109-14.086-40.898-12.73-42.004-12.66-2.457 0.14453-4.4492 2.0508-4.7109 4.5-0.10547 1.0078-2.4336 24.848 12.93 39.176 11.043 10.297 27.781 12.34 36.422 12.664l-0.003906 11.086h-44.492c-2.7812 0-5.0391 2.2578-5.0391 5.0391s2.2578 5.0391 5.0391 5.0391h392.97c2.7812 0 5.0391-2.2578 5.0391-5.0391s-2.2578-5.0391-5.0391-5.0391h-46.613v-11.035c8.457-0.03125 25.75-1.4492 37.379-11.668 15.82-13.895 14.273-37.781 14.203-38.789-0.17969-2.4688-2.125-4.4375-4.5898-4.6562-1.082-0.097656-26.832-2.1523-42.387 11.508-1.75 1.5352-3.2539 3.2148-4.6094 4.9531v-17.367c8.457-0.03125 25.75-1.4492 37.379-11.668 15.82-13.895 14.277-37.777 14.207-38.785-0.17969-2.4688-2.125-4.4375-4.5898-4.6562-1.082-0.10156-26.832-2.1523-42.387 11.508-1.75 1.5352-3.2539 3.2148-4.6094 4.9531v-8.168c5.2539-4.2461 19.93-17.594 19.785-34.043-0.17578-19.598-21.352-34.461-22.254-35.086-1.75-1.2031-4.0703-1.1875-5.8008 0.050781-0.89062 0.64063-21.805 15.875-21.629 35.473 0.14062 15.875 14.062 28.641 19.824 33.246v6.1836c-0.81641-0.94531-1.6875-1.8633-2.6367-2.7461-15.109-14.086-40.898-12.723-42.004-12.66-2.457 0.14453-4.4492 2.0508-4.7109 4.5-0.10547 1.0078-2.4336 24.848 12.93 39.176 11.043 10.297 27.781 12.332 36.422 12.664v15.09c-0.81641-0.94531-1.6875-1.8633-2.6367-2.7461-15.109-14.086-40.898-12.73-42.004-12.66-2.457 0.14453-4.4492 2.0508-4.7109 4.5-0.10547 1.0078-2.4336 24.848 12.93 39.176 11.043 10.297 27.781 12.34 36.422 12.664l0.003906 11.09h-135.82v-11.035c8.4531-0.03125 25.75-1.4492 37.379-11.668 15.816-13.895 14.273-37.781 14.203-38.789-0.17969-2.4688-2.125-4.4375-4.5898-4.6562-1.082-0.097656-26.828-2.1523-42.387 11.508-1.75 1.5352-3.2539 3.2148-4.6094 4.9531l-0.003906-17.367c8.457-0.03125 25.75-1.4492 37.379-11.668 15.816-13.895 14.273-37.777 14.203-38.785-0.17969-2.4688-2.125-4.4375-4.5898-4.6562-1.082-0.10156-26.832-2.1523-42.387 11.508-1.7539 1.5352-3.2578 3.2148-4.6094 4.9531v-8.1719c5.2539-4.2539 19.93-17.594 19.781-34.043-0.17578-19.598-21.352-34.461-22.254-35.086-1.7422-1.2031-4.0703-1.1875-5.8008 0.050781-0.89062 0.64062-21.805 15.875-21.629 35.473 0.14453 15.875 14.066 28.641 19.828 33.246v6.1836c-0.81641-0.94531-1.6875-1.8633-2.6367-2.7461-15.113-14.086-40.91-12.723-42.004-12.66-2.457 0.14453-4.4492 2.0508-4.7109 4.5-0.10547 1.0078-2.4336 24.848 12.93 39.176 11.043 10.297 27.781 12.332 36.422 12.664v15.09c-0.81641-0.94531-1.6875-1.8633-2.6367-2.7461-15.113-14.09-40.914-12.73-42.004-12.66-2.457 0.14453-4.4492 2.0508-4.7109 4.5-0.10547 1.0078-2.4336 24.848 12.93 39.176 11.043 10.297 27.781 12.34 36.422 12.664l0.003907 11.094h-135.81v-11.035c8.457-0.03125 25.75-1.4492 37.379-11.668 15.816-13.895 14.273-37.781 14.203-38.789-0.17969-2.4688-2.125-4.4375-4.5898-4.6562-1.0898-0.097656-26.828-2.1523-42.391 11.508-1.75 1.5352-3.2539 3.2109-4.6055 4.9492v-17.363c8.4648-0.03125 25.75-1.4492 37.379-11.668 15.816-13.895 14.273-37.777 14.203-38.785-0.17969-2.4688-2.125-4.4375-4.5898-4.6562-1.0898-0.10156-26.828-2.1523-42.391 11.508-1.75 1.5352-3.2539 3.2109-4.6055 4.9492v-8.168c5.2539-4.2539 19.926-17.594 19.781-34.043-0.17578-19.598-21.352-34.461-22.254-35.086-1.75-1.2031-4.0703-1.1875-5.8008 0.050781-0.89063 0.64062-21.805 15.875-21.629 35.473 0.14062 15.879 14.066 28.641 19.828 33.25v6.1836c-0.81641-0.94531-1.6914-1.8633-2.6367-2.7461-15.109-14.086-40.898-12.723-42.004-12.66-2.457 0.14453-4.4492 2.0508-4.7109 4.5-0.10547 1.0078-2.4336 24.848 12.93 39.176 11.043 10.297 27.781 12.332 36.422 12.664v15.094c-0.8125-0.94531-1.6875-1.8672-2.6328-2.7461zm315.75 7.707c8.8789-7.8008 22.988-9.0586 30.238-9.1484-0.36719 6.4922-2.2539 18.461-10.77 25.941-8.8789 7.8008-22.988 9.0586-30.238 9.1484 0.36719-6.4961 2.2578-18.461 10.77-25.941zm0-56.02c8.8672-7.793 22.969-9.0586 30.223-9.1484-0.38281 6.5078-2.293 18.5-10.758 25.938-8.8789 7.8008-22.988 9.0586-30.238 9.1484 0.37109-6.4961 2.2617-18.461 10.773-25.938zm-31.082-44.48c-0.097657-10.727 9.5977-20.551 14.57-24.879 5.8398 4.8906 14.871 14.586 14.965 24.609 0.097656 10.727-9.5977 20.551-14.57 24.879-5.8359-4.8906-14.875-14.578-14.965-24.609zm-19.801 60.418c-8.2227-7.668-9.7188-19.734-9.8789-26.238 7.2266 0.27344 21.27 1.8945 29.922 9.9648 6.4297 5.9961 8.7266 14.652 9.5078 21.266v4.9414c-7.332-0.32812-21.066-2.0312-29.551-9.9336zm0 56.016c-8.2227-7.668-9.7188-19.734-9.8789-26.238 7.2266 0.27344 21.27 1.8945 29.922 9.9688 6.4297 5.9961 8.7266 14.652 9.5078 21.266v4.9414c-7.332-0.32422-21.066-2.0273-29.551-9.9375zm-95.008-15.934c8.8789-7.8008 22.988-9.0586 30.238-9.1484-0.36328 6.4922-2.2539 18.461-10.766 25.941-8.8789 7.8008-22.992 9.0586-30.242 9.1484 0.36328-6.4961 2.25-18.461 10.77-25.941zm0-56.02c8.8789-7.8008 22.988-9.0586 30.238-9.1484-0.36328 6.4922-2.2539 18.461-10.77 25.938-8.8711 7.793-22.973 9.0586-30.223 9.1484 0.37891-6.5117 2.2891-18.504 10.754-25.938zm-31.086-44.48c-0.097657-10.727 9.5977-20.551 14.57-24.879 5.8398 4.8906 14.871 14.586 14.965 24.609 0.097656 10.727-9.5977 20.551-14.57 24.879-5.8359-4.8906-14.875-14.578-14.965-24.609zm-19.801 60.418c-8.2188-7.6641-9.7188-19.723-9.8789-26.227 7.2383 0.28906 21.305 1.9258 29.922 9.957 6.4297 5.9961 8.7266 14.645 9.5078 21.262v4.957c-7.3164-0.31641-21.031-2.0039-29.551-9.9492zm0 56.016c-8.2188-7.6641-9.7188-19.723-9.8789-26.227 7.2383 0.28906 21.305 1.9258 29.922 9.9609 6.4297 5.9961 8.7266 14.645 9.5078 21.262v4.957c-7.3164-0.32031-21.031-2.0078-29.551-9.9531zm-145.89 0c-8.2266-7.668-9.7227-19.734-9.8828-26.238 7.2266 0.27344 21.27 1.8945 29.922 9.9688 6.4297 5.9961 8.7266 14.645 9.5117 21.262v4.957c-7.3203-0.31641-21.031-2.0039-29.551-9.9492zm50.879-15.934c8.8789-7.8008 22.992-9.0586 30.242-9.1484-0.36328 6.4922-2.2539 18.461-10.766 25.941-8.8789 7.8008-22.992 9.0586-30.242 9.1484 0.36328-6.4961 2.25-18.461 10.766-25.941zm0-56.02c8.8789-7.8008 22.992-9.0586 30.242-9.1484-0.36328 6.4922-2.2539 18.461-10.77 25.938-8.8789 7.8008-22.988 9.0586-30.238 9.1484 0.36328-6.4961 2.25-18.461 10.766-25.938zm-31.082-44.48c-0.097656-10.727 9.5977-20.551 14.57-24.879 5.8398 4.8906 14.871 14.586 14.965 24.609 0.097657 10.727-9.5977 20.551-14.57 24.879-5.8398-4.8906-14.871-14.578-14.965-24.609zm-19.797 60.418c-8.2266-7.668-9.7227-19.734-9.8828-26.238 7.2266 0.27344 21.27 1.8945 29.922 9.9648 6.4297 5.9961 8.7266 14.645 9.5117 21.262v4.957c-7.3203-0.3125-21.031-2-29.551-9.9453z"/>
  <path d="m245.37 536.88c-15.109-14.09-40.898-12.727-42.004-12.66-2.457 0.14453-4.4492 2.0508-4.7109 4.5-0.10547 1.0078-2.4336 24.848 12.93 39.176 11.043 10.297 27.781 12.34 36.422 12.664v11.09h-44.496c-2.7812 0-5.0391 2.2578-5.0391 5.0391s2.2578 5.0391 5.0391 5.0391h392.97c2.7812 0 5.0391-2.2578 5.0391-5.0391s-2.2578-5.0391-5.0391-5.0391h-46.613v-11.035c8.457-0.03125 25.75-1.4492 37.379-11.668 15.82-13.895 14.273-37.781 14.203-38.789-0.17969-2.4688-2.125-4.4375-4.5898-4.6562-1.082-0.097656-26.832-2.1523-42.387 11.508-1.75 1.5352-3.2539 3.2148-4.6094 4.9531v-17.371c8.457-0.03125 25.75-1.4492 37.379-11.668 15.82-13.895 14.277-37.777 14.207-38.785-0.17969-2.4688-2.125-4.4375-4.5898-4.6562-1.0938-0.10547-26.84-2.1562-42.387 11.508-1.75 1.5352-3.2539 3.2148-4.6094 4.9531v-8.168c5.2539-4.2461 19.93-17.594 19.785-34.043-0.17578-19.598-21.352-34.461-22.254-35.086-1.75-1.2031-4.0703-1.1875-5.8008 0.050781-0.89062 0.64062-21.805 15.875-21.629 35.473 0.14062 15.875 14.062 28.641 19.824 33.246v6.1836c-0.81641-0.94531-1.6875-1.8633-2.6367-2.7461-15.109-14.086-40.898-12.723-42.004-12.66-2.457 0.14453-4.4492 2.0508-4.7109 4.5-0.10547 1.0078-2.4336 24.848 12.93 39.176 11.043 10.297 27.781 12.332 36.422 12.664v15.09c-0.81641-0.94531-1.6875-1.8633-2.6367-2.7461-15.109-14.09-40.898-12.727-42.004-12.66-2.457 0.14453-4.4492 2.0508-4.7109 4.5-0.10547 1.0078-2.4336 24.848 12.93 39.176 11.043 10.297 27.781 12.34 36.422 12.664v11.09l-135.81 0.003906v-11.035c8.4531-0.03125 25.75-1.4492 37.379-11.668 15.816-13.895 14.273-37.781 14.203-38.789-0.17969-2.4688-2.125-4.4375-4.5898-4.6562-1.082-0.097656-26.828-2.1523-42.387 11.508-1.75 1.5352-3.2539 3.2148-4.6094 4.9531v-17.371c8.457-0.03125 25.75-1.4492 37.379-11.668 15.816-13.895 14.273-37.777 14.203-38.785-0.17969-2.4688-2.125-4.4375-4.5898-4.6562-1.0898-0.10156-26.828-2.1562-42.387 11.508-1.7539 1.5352-3.2578 3.2148-4.6094 4.9531v-8.1719c5.2539-4.2539 19.93-17.594 19.781-34.043-0.17578-19.598-21.352-34.461-22.254-35.086-1.7422-1.2031-4.0703-1.1875-5.8008 0.050781-0.89062 0.64063-21.805 15.875-21.629 35.473 0.14453 15.875 14.066 28.641 19.828 33.246v6.1836c-0.81641-0.94531-1.6875-1.8633-2.6367-2.7461-15.113-14.086-40.91-12.723-42.004-12.66-2.457 0.14453-4.4492 2.0508-4.7109 4.5-0.10547 1.0078-2.4336 24.848 12.93 39.176 11.043 10.297 27.781 12.332 36.422 12.664v15.09c-0.81641-0.94531-1.6875-1.8633-2.6367-2.7461-15.113-14.09-40.914-12.73-42.004-12.66-2.457 0.14453-4.4492 2.0508-4.7109 4.5-0.10547 1.0078-2.4336 24.848 12.93 39.176 11.043 10.297 27.781 12.34 36.422 12.664v11.09l-135.81 0.003907v-11.035c8.457-0.03125 25.75-1.4492 37.379-11.668 15.816-13.895 14.273-37.781 14.203-38.789-0.17969-2.4688-2.125-4.4375-4.5898-4.6562-1.0898-0.097656-26.828-2.1523-42.391 11.508-1.75 1.5352-3.2539 3.2109-4.6055 4.9492v-17.371c8.4648-0.03125 25.75-1.4492 37.379-11.668 15.816-13.895 14.273-37.777 14.203-38.785-0.17969-2.4688-2.125-4.4375-4.5898-4.6562-1.0898-0.10547-26.828-2.1562-42.391 11.508-1.75 1.5352-3.2539 3.2109-4.6055 4.9492v-8.168c5.2539-4.2539 19.926-17.594 19.781-34.043-0.17578-19.598-21.352-34.461-22.254-35.086-1.75-1.2031-4.0703-1.1875-5.8008 0.050781-0.89063 0.64062-21.805 15.875-21.629 35.473 0.14062 15.879 14.066 28.641 19.828 33.25v6.1836c-0.81641-0.94531-1.6914-1.8633-2.6367-2.7461-15.109-14.086-40.898-12.723-42.004-12.66-2.457 0.14453-4.4492 2.0508-4.7109 4.5-0.10547 1.0078-2.4336 24.848 12.93 39.176 11.043 10.297 27.781 12.332 36.422 12.664v15.094c-0.8125-0.9375-1.6875-1.8555-2.6328-2.7383zm315.75 7.7031c8.8789-7.8008 22.988-9.0586 30.238-9.1484-0.36719 6.4922-2.2539 18.461-10.77 25.941-8.8789 7.8008-22.988 9.0586-30.238 9.1484 0.36719-6.4883 2.2578-18.453 10.77-25.941zm0-56.02c8.8672-7.793 22.969-9.0586 30.223-9.1484-0.38281 6.5078-2.293 18.504-10.758 25.938-8.8789 7.8008-22.988 9.0586-30.238 9.1484 0.37109-6.4883 2.2617-18.453 10.773-25.938zm-31.082-44.48c-0.097657-10.727 9.5977-20.551 14.57-24.879 5.8398 4.8906 14.871 14.586 14.965 24.609 0.097656 10.727-9.5977 20.551-14.57 24.879-5.8359-4.8828-14.875-14.578-14.965-24.609zm-19.801 60.418c-8.2227-7.668-9.7188-19.734-9.8789-26.238 7.2266 0.27344 21.27 1.8945 29.922 9.9648 6.4297 5.9961 8.7266 14.652 9.5078 21.266v4.9414c-7.332-0.32031-21.066-2.0234-29.551-9.9336zm0 56.02c-8.2227-7.668-9.7188-19.734-9.8789-26.238 7.2266 0.27344 21.27 1.8945 29.922 9.9688 6.4297 5.9961 8.7266 14.652 9.5078 21.266v4.9414c-7.332-0.32422-21.066-2.0273-29.551-9.9375zm-95.008-15.938c8.8789-7.8008 22.988-9.0586 30.238-9.1484-0.36328 6.4922-2.2539 18.461-10.766 25.941-8.8789 7.8008-22.992 9.0586-30.242 9.1484 0.36328-6.4883 2.25-18.453 10.77-25.941zm0-56.02c8.8789-7.8008 22.988-9.0586 30.238-9.1484-0.36328 6.4922-2.2539 18.461-10.77 25.938-8.8711 7.793-22.973 9.0586-30.223 9.1484 0.37891-6.5078 2.2891-18.5 10.754-25.938zm-31.086-44.48c-0.097657-10.727 9.5977-20.551 14.57-24.879 5.8398 4.8906 14.871 14.586 14.965 24.609 0.097656 10.711-9.5625 20.52-14.547 24.859-5.0547-4.2383-14.891-13.879-14.988-24.59zm-19.801 60.418c-8.2188-7.6641-9.7188-19.723-9.8789-26.227 7.2383 0.28906 21.305 1.9258 29.922 9.957 6.4297 5.9961 8.7266 14.645 9.5078 21.262v4.957c-7.3164-0.31641-21.031-2.0039-29.551-9.9492zm0 56.02c-8.2188-7.6641-9.7188-19.723-9.8789-26.227 7.2383 0.28906 21.305 1.9258 29.922 9.9609 6.4297 5.9961 8.7266 14.645 9.5078 21.262v4.957c-7.3164-0.31641-21.031-2.0078-29.551-9.9531zm-145.89 0c-8.2266-7.668-9.7227-19.734-9.8828-26.238 7.2266 0.27344 21.27 1.8945 29.922 9.9688 6.4297 5.9961 8.7266 14.645 9.5117 21.262v4.957c-7.3203-0.3125-21.031-2.0039-29.551-9.9492zm50.879-15.938c8.8789-7.8008 22.992-9.0586 30.242-9.1484-0.36328 6.4922-2.2539 18.461-10.766 25.941-8.8789 7.8008-22.992 9.0586-30.242 9.1484 0.36328-6.4883 2.25-18.453 10.766-25.941zm0.003906-56.02c8.8789-7.8008 22.988-9.0586 30.238-9.1484-0.36328 6.4922-2.2539 18.461-10.77 25.938-8.8789 7.8008-22.988 9.0586-30.238 9.1484 0.36328-6.4883 2.25-18.453 10.77-25.938zm-31.086-44.48c-0.097656-10.727 9.5977-20.551 14.57-24.879 5.8398 4.8906 14.871 14.586 14.965 24.609 0.097657 10.727-9.5977 20.551-14.57 24.879-5.8398-4.8828-14.871-14.578-14.965-24.609zm-19.797 60.418c-8.2266-7.668-9.7227-19.734-9.8828-26.238 7.2266 0.27344 21.27 1.8945 29.922 9.9648 6.4297 5.9961 8.7266 14.645 9.5117 21.262v4.957c-7.3203-0.3125-21.031-2-29.551-9.9453z"/>
 </g>
</svg>