<?xml version="1.0" encoding="UTF-8"?>
<!-- The Best Svg Icon site in the world: iconSvg.co, Visit us! https://iconsvg.co -->
<svg fill="#000000" width="800px" height="800px" version="1.1" viewBox="144 144 512 512" xmlns="http://www.w3.org/2000/svg">
 <g>
  <path d="m430.86 344.39c0.21484 0.03125 0.4375 0.039063 0.65625 0.039063 2.4922 0 4.6602-1.8477 4.9883-4.3945 1.9102-14.723 10.328-28.066 22.52-35.695 2.3594-1.4766 3.0742-4.5859 1.5977-6.9414-1.4766-2.3594-4.5859-3.0742-6.9414-1.5977-14.715 9.2148-24.875 25.266-27.164 42.945-0.36719 2.7578 1.5859 5.2852 4.3438 5.6445z"/>
  <path d="m304.13 599.41c2.5352-0.75391 5.0469-1.7266 7.5-2.9102 2.4492 1.1797 4.9688 2.1562 7.5078 2.9102 4.7344 1.4062 9.5664 2.0859 14.434 2.0859 21.461 0 43.559-13.176 60.738-34.961 22.812 22.512 52.949 35.047 84.074 35.047 2.5703 0 5.1484-0.085937 7.7266-0.25781 60.039-4.0039 109.42-55.027 114.88-118.67 2.9922-34.969-6.8516-69.016-27.73-95.863-7.2383-9.3164-10.793-21.418-9.9961-34.082 0.12109-1.9609 0.1875-3.9336 0.1875-5.9297 0-33.02-15.512-61.133-40.637-77.133 8.375-0.5625 17.02-2.6094 24.672-7.3438 25.25-15.617 30.043-52.098 30.23-53.641 0.29297-2.3477-1.0898-4.5859-3.3203-5.3711-1.4727-0.51953-36.25-12.52-61.496 3.1016-6.2266 3.8477-11.098 9.0078-15.145 14.664l0.22656-2.1406c0.015625-0.17187 0.023437-0.34766 0.023437-0.52344 0-10.938-8.9023-19.84-19.84-19.84s-19.84 8.8984-19.84 19.84c0 0.21094 0.011719 0.41797 0.039062 0.62891l4.8516 38.598c-36.023 6.9414-64.547 38.375-69.535 76.867-0.68359 5.2891-0.93359 10.652-0.73047 15.926 0.52734 13.805-3.9883 28.074-12.723 40.188-3.5586 4.9375-6.7617 10.195-9.6289 15.617-18.824-3.9102-37.801 0.67578-53.941 12.891v-24.152c9.7227 0.86328 33.137 1.2539 47.152-12.773 17.645-17.637 12.473-50.168 12.242-51.539-0.35156-2.125-2.0156-3.7891-4.1406-4.1406-1.375-0.22656-33.902-5.4023-51.543 12.242-9.1602 9.1602-12.172 22.141-13.203 34.059-2.6055-6.2969-5.9062-12.809-10.066-19-1.5508-2.3086-4.6797-2.9258-6.9922-1.3672-2.3086 1.5508-2.9219 4.6836-1.3672 6.9922 14.652 21.785 17.652 48.848 17.844 50.719v8.9688c-17.707-13.406-38.832-17.648-59.418-11.543-40.969 12.16-58.613 57.609-42.906 110.53 16.703 56.215 61.496 92.707 99.871 81.309zm23.371-253.56c10.941-10.938 30.816-10.543 39.051-9.8477 0.71484 8.2227 1.125 28.062-9.8594 39.047-11.387 11.383-32.434 10.508-39.988 9.7656 0.19141-12.555 1.1992-29.359 10.797-38.965zm190.71-130.89c16.59-10.262 39.555-5.8047 48.773-3.3672-1.9414 9.3398-8.1953 31.875-24.789 42.137-16.391 10.141-39.812 5.0078-49.539 2.1758 4.4258-13.93 11.242-32.094 25.555-40.945zm-40.031-6.3359c5.3047 0 9.6328 4.2539 9.7578 9.5273l-3.0664 29.266c-1.043 3.043-1.9844 5.9531-2.8281 8.6758-3.3359-0.19141-6.3086-0.14453-8.8477 0.023437l-4.7773-38.012c0.15234-5.2539 4.4688-9.4805 9.7617-9.4805zm-75.145 141.39c-0.17969-4.7188 0.039062-9.5117 0.64844-14.246 4.4805-34.555 30.121-62.715 62.77-68.57 0.10156-0.03125 10.348-2.6445 23.75 0.046876 37.785 7.582 63.176 39.551 63.176 79.535 0 1.7852-0.054688 3.5508-0.16797 5.3008-0.94531 15.113 3.3516 29.641 12.098 40.895 19.316 24.844 28.426 56.387 25.645 88.816-5.0312 58.734-50.387 105.8-105.5 109.48-31.91 2.1094-62.098-9.5977-85.164-32.984 7.7891-11.652 14.258-25.211 18.711-40.203 15.121-50.945-0.73047-94.879-38.48-108.94 2.4023-4.375 5.0078-8.6523 7.8984-12.664 10.043-13.938 15.234-30.438 14.621-46.473zm-152.99 67.195c20.363-6.0352 41.52-0.035156 58.023 16.48 0.94531 0.94531 2.2266 1.4766 3.5664 1.4766s2.6211-0.52734 3.5664-1.4766c16.512-16.52 37.668-22.516 58.027-16.48 35.84 10.641 50.355 50.023 36.113 98.008-15.113 50.91-54.297 84.336-87.324 74.543-2.707-0.80469-5.3789-1.9258-7.9648-3.3359-0.75-0.41406-1.582-0.62109-2.4141-0.62109-0.83203 0-1.6641 0.20703-2.4141 0.62109-2.5859 1.4102-5.2617 2.5352-7.9609 3.3359-33.035 9.793-72.215-23.633-87.332-74.543-14.242-47.984 0.27344-87.371 36.113-98.008z"/>
  <path d="m238.43 501.01c0.48438 0 0.97266-0.070312 1.4609-0.21484 2.6641-0.80469 4.1719-3.6172 3.3672-6.2812-3.9648-13.125-3.4961-25.242 1.3164-34.117 3.4258-6.3164 8.8711-10.715 15.75-12.727 2.6719-0.78125 4.2031-3.5781 3.4258-6.2461-0.77734-2.6719-3.5703-4.207-6.2461-3.4258-9.5156 2.7773-17.051 8.8633-21.785 17.598-6.1055 11.262-6.8516 26.117-2.1055 41.832 0.65625 2.1758 2.6523 3.582 4.8164 3.582z"/>
 </g>
</svg>