<?xml version="1.0" encoding="UTF-8"?>
<!-- The Best Svg Icon site in the world: iconSvg.co, Visit us! https://iconsvg.co -->
<svg fill="#000000" width="800px" height="800px" version="1.1" viewBox="144 144 512 512" xmlns="http://www.w3.org/2000/svg">
 <g>
  <path d="m601.19 461.13c0.78906-0.62891 1.3867-1.418 1.875-2.25h17.348c4.3438 0 7.8711-3.5273 7.8711-7.8711s-3.5273-7.8711-7.8711-7.8711h-150.29v-85.16l2.0781 3.0703c1.5273 2.25 4 3.4648 6.5195 3.4648 1.5273 0 3.0547-0.44141 4.3945-1.3398 3.6055-2.4414 4.5664-7.3203 2.125-10.926l-24.074-35.676-25.285-37.941c-0.75391-1.1328-1.793-2.0625-3.0234-2.6758l-49.406-24.703c-2.2188-1.1016-4.832-1.1016-7.0391 0l-49.406 24.703c-1.2266 0.61328-2.2812 1.543-3.0234 2.6758l-25.285 37.941-24.074 35.676c-2.4414 3.6055-1.4961 8.5 2.125 10.926 1.3398 0.91406 2.8828 1.3398 4.3945 1.3398 2.5195 0 4.9922-1.2109 6.5195-3.4648l2.0781-3.0703v85.16h-25.348c1.0898-4.3945 1.7852-8.582 1.7852-11.652 0-10.027-11.98-28.48-17.145-35.961-2.9297-4.2656-10.027-4.2656-12.941 0-5.168 7.4766-17.148 25.93-17.148 35.961 0 3.0547 0.69141 7.2266 1.8125 11.652l-41.172-0.003906c-4.3438 0-7.8711 3.5273-7.8711 7.8711 0 2.5039 1.2422 4.6289 3.0547 6.0781-0.76953 0.61328-1.543 1.2734-2.0469 2.1719-1.2734 2.25-1.3555 4.9922-0.21875 7.3047 2.25 4.6289 6.5195 12.863 11.32 20.012h-4.2383c-4.3438 0-7.8711 3.5273-7.8711 7.8711s3.5273 7.8711 7.8711 7.8711h23.523c3.2422 1.0391 11.668 3.4805 20.199 3.4805 4.0781 0 8.0469-0.69141 11.398-2.2969v20.578c-5.4961-6.8164-12.297-12.625-16.121-14.785-8.7852-4.9297-30.684-3.543-39.691-2.707-2.5664 0.23437-4.8633 1.7148-6.1406 3.9688-1.2578 2.25-1.3555 4.9766-0.23438 7.3047 0.62891 1.2891 4.2188 8.582 8.7383 15.934h-1.6719c-4.3438 0-7.8711 3.5273-7.8711 7.8711s3.5273 7.8711 7.8711 7.8711h14.688c0.39453 0.26953 0.70703 0.61328 1.1328 0.88281 5.1484 2.8984 17.398 6.6914 27.992 6.6914 3.0078 0 5.8867-0.31641 8.4219-1.0234 1.0859-0.31641 1.9844-0.70703 2.8672-1.1328l0.003906 18.23c0 4.3438 3.5273 7.8711 7.8711 7.8711s7.8711-3.5273 7.8711-7.8711v-18.199c0.88281 0.41016 1.7773 0.82031 2.8672 1.1328 2.5352 0.72266 5.3984 1.0234 8.4062 1.0234 10.598 0 22.906-3.8398 28.246-6.832 0.33203-0.20312 0.61328-0.51953 0.94531-0.73828h85.176c-5.1172 10.629-9.2266 21.176-12.137 31.488l-121.38-0.003906h-62.977c-4.3438 0-7.8711 3.5273-7.8711 7.8711s3.5273 7.8711 7.8711 7.8711h180.9c-1.3867 8.2188-2.2656 16.281-1.9844 23.914 0.17188 4.25 3.6523 7.5742 7.8711 7.5742h0.30078c4.3438-0.15625 7.7305-3.8242 7.5742-8.1719-1.5742-41.109 26.969-96.227 72.691-140.45 6.7227-6.5039 13.777-12.738 20.973-18.531 0.78906-0.62891 1.3867-1.418 1.875-2.25h42.098c-3.5742 3.1641-7.2734 6.1406-10.707 9.4609-49.531 47.91-79.223 106.29-77.492 152.37 0.17187 4.25 3.6523 7.5742 7.8711 7.5742h0.30078c4.3438-0.15625 7.7305-3.8242 7.5742-8.1719-1.5742-41.109 26.969-96.227 72.691-140.45 6.7227-6.5039 13.777-12.738 20.973-18.531 0.78906-0.62891 1.3867-1.418 1.875-2.25h45.027c-3.5742 3.1641-7.2734 6.1406-10.707 9.4609-49.531 47.91-79.223 106.29-77.492 152.37 0.17188 4.25 3.6523 7.5742 7.8711 7.5742h0.30078c4.3438-0.15625 7.7305-3.8242 7.5742-8.1719-1.5742-41.109 26.969-96.227 72.691-140.45 6.7109-6.5156 13.766-12.75 20.961-18.527zm-319.52 24.465c-0.78906 0.48828-1.8594 0.83594-3.4336 1.4336-9.0547 3.1172-18.012 3.6055-20.215 3.1172 1.2578-4.582 10.438-15.145 16.23-18.406 2.125-1.1172 9.6992-1.6211 18.547-1.4336-4.4219 7.6719-8.8477 13.922-11.129 15.289zm-46.98-17.363v4.4414c-4.832-6.0312-10.691-11.164-14.77-13.809h6.7539c1.7812 3.2109 4.4414 6.9258 8.0156 9.3672zm15.742 4.4531v-4.457c3.543-2.4258 6.1875-6.1094 7.9961-9.3516h6.7852c-4.0742 2.6328-9.9336 7.7656-14.781 13.809zm55.027-124.19h148.92v91.285h-17.191v-58c0-0.25-0.125-0.45703-0.14062-0.69141-0.046875-0.53516-0.15625-1.0234-0.31641-1.543-0.15625-0.51953-0.34766-0.99219-0.59766-1.4648-0.10937-0.20313-0.125-0.45703-0.26953-0.66016-0.14062-0.21875-0.36328-0.33203-0.51953-0.51953-0.34766-0.44141-0.72266-0.80469-1.1641-1.1641-0.37891-0.31641-0.75391-0.56641-1.1797-0.80469-0.44141-0.23438-0.89844-0.41016-1.4023-0.56641-0.51953-0.15625-1.0078-0.26953-1.543-0.31641-0.25-0.03125-0.47266-0.14063-0.73828-0.14063h-98.793c-0.26953 0-0.50391 0.125-0.76953 0.15625-0.51953 0.046876-0.99219 0.15625-1.4961 0.30078-0.50391 0.15625-0.97656 0.33203-1.4336 0.58203-0.42578 0.21875-0.78906 0.48828-1.1641 0.78906-0.44141 0.34766-0.82031 0.72266-1.1641 1.1641-0.15625 0.1875-0.37891 0.30078-0.51953 0.51953-0.14062 0.20312-0.15625 0.44141-0.26953 0.64453-0.25 0.47266-0.44141 0.94531-0.59766 1.4805-0.15625 0.51953-0.26953 1.0078-0.31641 1.543-0.015625 0.23438-0.14062 0.45703-0.14062 0.70703v58h-17.195zm88.652 66.234 27.332-18.23v36.449zm9.2109 25.066h-46.809l23.395-15.602zm-23.395-34.527-23.395-15.602h46.809zm-14.203 9.4609-27.332 18.23v-36.449zm14.203-147.63 43.562 21.789 23.711 35.125 5.8398 8.7539h-146.23l5.8398-8.7539 23.711-35.125zm-137.37 147.51c4.5195 7.6367 7.793 14.484 7.8711 16.895 0 3.0859-1.5898 10.281-4.0156 16.262-1.6523 3.668-3.0039 5.6055-3.8555 6.5977-0.85156-0.97656-2.1562-2.832-3.7305-6.3125-2.5508-6.2852-4.1406-13.477-4.1406-16.562 0.078125-2.3945 3.3359-9.2422 7.8711-16.879zm-36.023 72.281c-1.2266-0.47266-2.2969-0.80469-3.418-1.4961-2.0625-1.2422-6.4062-7.4297-10.832-15.098 8.8633-0.25 16.406 0.31641 18.547 1.4336 5.668 3.1953 14.547 13.336 16.137 18.074-3.1602 0.72266-11.648 0.10937-20.434-2.9141zm-4.2656 49.059c-2.832-2.6602-6.6289-8.5156-9.9805-14.328 8.8633-0.21875 16.422 0.31641 18.547 1.4336 5.2422 2.9453 14.562 13.098 16.215 18.09-4.6445 1.1641-18.246-1.2461-24.781-5.1953zm55.781 5.1953c1.6523-5.0078 10.973-15.145 16.199-18.09 2.125-1.1172 9.668-1.668 18.531-1.4336-3.4336 5.9023-7.4453 11.965-10.801 15.098-5.7305 3.2305-19.238 5.6211-23.93 4.4258zm126.2-7.3203h-80.387c4.5352-7.3672 8.1406-14.641 8.7539-15.934 1.1172-2.332 1.0234-5.0547-0.23438-7.3047-1.2734-2.25-3.5742-3.7305-6.1406-3.9688-9.0039-0.82031-30.938-2.2188-39.691 2.707-3.8398 2.1562-10.645 7.9492-16.121 14.879v-20.688c3.3203 1.5742 7.2422 2.2812 11.32 2.2812 8.0312 0 16.105-2.1875 20.152-3.4648h123.73c-8.0469 10.375-15.051 20.926-21.176 31.535-0.070313 0.003906-0.13281-0.042969-0.21094-0.042969zm51.734-65.48c-6.2969 6.0781-12.25 12.344-17.871 18.719-0.76953-0.23438-1.5391-0.47266-2.375-0.47266h-114.49c4.8477-7.1797 9.1016-15.398 11.352-20.012 1.1328-2.3125 1.0547-5.0547-0.21875-7.3047-0.09375-0.15625-0.25-0.23438-0.36328-0.37891h134.66c-3.5586 3.1523-7.2578 6.125-10.691 9.4492z"/>
  <path d="m614.23 499.91c-32.402 40.996-50.207 85.02-48.871 120.8 0.17188 4.25 3.6523 7.5742 7.8711 7.5742h0.30078c4.3438-0.15625 7.7305-3.8242 7.5742-8.1719-1.1953-31.613 15.809-72.895 45.484-110.45 2.6914-3.418 2.1094-8.3594-1.3086-11.051-3.3672-2.6953-8.3555-2.1445-11.051 1.2891z"/>
  <path d="m510.21 246.23h15.051c0.96094 4.4414 2.7383 8.5664 5.1172 12.25l-11.035 11.051c-3.0703 3.0703-3.0703 8.0625 0 11.133 1.543 1.543 3.5586 2.2969 5.5742 2.2969 2.0156 0 4.0312-0.76953 5.5742-2.2969l11.035-11.035c3.6992 2.3945 7.8242 4.1719 12.266 5.1328l-0.003906 15.031c0 4.3438 3.5273 7.8711 7.8711 7.8711s7.8711-3.5273 7.8711-7.8711l0.003906-15.035c4.4414-0.96094 8.5664-2.7383 12.266-5.1328l11.035 11.035c1.543 1.543 3.5586 2.2969 5.5742 2.2969s4.0312-0.76953 5.5742-2.2969c3.0703-3.0703 3.0703-8.0625 0-11.133l-11.02-11.035c2.3945-3.6992 4.1719-7.8242 5.1328-12.266h15.035c4.3438 0 7.8711-3.5273 7.8711-7.8711s-3.5273-7.8711-7.8711-7.8711h-15.035c-0.96094-4.4414-2.7383-8.5664-5.1328-12.266l11.02-11.035c3.0703-3.0703 3.0703-8.0625 0-11.133-3.0703-3.0703-8.0625-3.0703-11.133 0l-11.035 11.035c-3.6992-2.3945-7.8242-4.1719-12.266-5.1328v-15.016c0-4.3438-3.5273-7.8711-7.8711-7.8711s-7.8711 3.5273-7.8711 7.8711v15.035c-4.4414 0.96094-8.5664 2.7383-12.266 5.1328l-11.035-11.035c-3.0703-3.0703-8.0625-3.0703-11.133 0-3.0703 3.0703-3.0703 8.0625 0 11.133l11.035 11.051c-2.3945 3.6992-4.1562 7.8242-5.1172 12.25h-15.082c-4.3438 0-7.8711 3.5273-7.8711 7.8711s3.5273 7.8555 7.8711 7.8555zm51.438-29.379c11.871 0 21.523 9.6523 21.523 21.523-0.003907 11.871-9.6562 21.504-21.523 21.504-11.855 0-21.508-9.6523-21.508-21.523 0-11.867 9.6523-21.504 21.508-21.504z"/>
  <path d="m363.46 332.05h32.938c4.3438 0 7.8711-3.5273 7.8711-7.8711v-32.938c0-4.3438-3.5273-7.8711-7.8711-7.8711h-32.938c-4.3438 0-7.8711 3.5273-7.8711 7.8711v32.938c0 4.3438 3.5078 7.8711 7.8711 7.8711zm7.8711-32.938h17.191v17.191h-17.191z"/>
 </g>
</svg>