<?xml version="1.0" encoding="UTF-8"?>
<!-- The Best Svg Icon site in the world: iconSvg.co, Visit us! https://iconsvg.co -->
<svg fill="#000000" width="800px" height="800px" version="1.1" viewBox="144 144 512 512" xmlns="http://www.w3.org/2000/svg">
 <g>
  <path d="m612.54 507.53c-2.2031-4.7227-4.8789-8.9727-7.8711-13.066-14.328-19.051-37.312-31.488-62.977-31.488-24.402 0-46.289 11.18-60.773 28.652l-0.15625 0.15625-4.4102 5.8242-0.15625 0.15625c-8.3438 12.598-13.223 27.715-13.223 43.93 0 11.18 2.3633 21.883 6.4531 31.488 1.2578 2.6758 2.5195 5.3516 4.0938 7.8711 13.695 23.461 39.047 39.359 68.172 39.359 43.453 0 78.719-35.266 78.719-78.719 0-12.281-2.832-23.93-7.8711-34.164zm-70.848 98.715c-35.582 0-64.551-28.969-64.551-64.551 0-35.582 28.969-64.551 64.551-64.551 35.582 0 64.551 28.969 64.551 64.551 0 35.582-28.969 64.551-64.551 64.551z"/>
  <path d="m461.09 573.18c-1.1016-2.6758-2.0469-5.1953-2.6758-7.8711-0.15625-0.62891-0.31641-1.2578-0.47266-1.8906-0.62891-2.2031-1.1016-4.5664-1.418-6.7695-0.47266-2.0469-0.78906-4.0938-0.94531-6.1406-0.31641-2.9922-0.47266-5.8242-0.47266-8.8164v-2.6758c0.15625-5.1953 0.78906-10.547 1.8906-15.586l-25.504 34.004h-62.977l-1.2578-7.8711h-97.617c1.7305 1.8906 3.3047 3.7773 4.7227 5.9844 2.0469 2.9922 3.6211 6.2969 4.8789 9.7617 0.78906 2.2031 1.418 4.25 1.7305 6.2969 0.15625 0.47266 0.15625 1.1016 0.15625 1.5742 0.62891 2.6758 0.78906 5.1953 0.78906 7.8711h182.79c-0.94531-1.418-1.5742-2.9922-2.3633-4.5664-0.46875-1.1016-0.94141-2.2031-1.2539-3.3047z"/>
  <path d="m271.21 566.25c-0.78906-1.8906-1.7305-3.7773-2.6758-5.3516-0.31641-0.31641-0.47266-0.62891-0.62891-0.94531-1.1016-1.5742-2.2031-3.1484-3.4648-4.5664-1.2578-1.5742-2.6758-2.832-4.0938-4.0938-0.62891-0.62891-1.418-1.2578-2.2031-1.7305-0.31641-0.31641-0.62891-0.62891-1.1016-0.78906-1.2578-0.94531-2.6758-1.7305-4.0938-2.5195-3.4648-1.8906-7.2422-3.3047-11.336-3.9375-0.62891-0.15625-1.2578-0.15625-1.8906-0.31641-1.5742-0.15234-3.3047-0.30859-5.0352-0.30859-1.5742 0-2.9922 0.15625-4.4102 0.31641-1.1016 0-2.2031 0.15625-3.1484 0.47266-0.94531 0.15625-1.7305 0.31641-2.5195 0.62891-0.94531 0.15625-1.8906 0.47266-2.6758 0.78906-1.2578 0.47266-2.6758 0.94531-3.9375 1.5742-1.1016 0.47266-2.3633 1.1016-3.4648 1.8906-1.2578 0.62891-2.3633 1.2578-3.3047 2.2031l-0.15625-0.003906c-0.62891 0.47266-1.2578 0.94531-1.7305 1.418-1.5742 1.2578-2.9922 2.832-4.4102 4.4102-1.2578 1.418-2.3633 2.9922-3.4648 4.5664-0.15625 0.31641-0.31641 0.62891-0.62891 0.94531-0.94531 1.5742-1.8906 3.4648-2.6758 5.3516-0.78906 2.2031-1.5742 4.5625-2.0469 6.9258-0.47266 2.5195-0.78906 5.1953-0.78906 7.8711 0 21.727 17.637 39.359 39.363 39.359s39.359-17.633 39.359-39.359c0-2.6758-0.31641-5.3516-0.78906-7.8711-0.47266-2.3633-1.2578-4.7227-2.0469-6.9297zm-36.523 35.742c-11.652 0-20.941-9.2891-20.941-20.941 0-11.652 9.2891-20.941 20.941-20.941s20.941 9.2891 20.941 20.941c-0.003906 11.652-9.293 20.941-20.941 20.941z"/>
  <path d="m203.2 486.59v-21.883c-10.547 2.9922-18.895 11.336-21.883 21.883z"/>
  <path d="m218.94 470.85v15.742h137.76l-1.1016-6.6133c-0.62891-3.6211-2.0469-6.7695-4.25-9.4453-1.5742-2.0469-3.6211-3.6211-5.8242-4.8789-2.9922-1.7305-6.2969-2.6758-9.918-2.6758h-116.66z"/>
  <path d="m203.2 518.08v-15.742h-23.617v15.742z"/>
  <path d="m198.79 550.67c1.5742-2.0469 3.3047-3.7773 5.1953-5.3516-0.47266-1.1016-0.78516-2.3633-0.78516-3.6211v-7.8711h-23.617v39.359h8.6602c0-0.47266 0-0.94531 0.15625-1.418 0.31641-2.2031 1.1016-4.4102 1.7305-6.4531 0.62891-1.8906 1.418-3.6211 2.3633-5.3516 0-0.15625 0.15625-0.31641 0.15625-0.31641 0.62891-1.418 1.418-2.6758 2.3633-3.9375 0.3125-0.78516 0.78516-1.418 1.2578-2.0469 0.78906-1.1016 1.5742-2.0469 2.5195-2.9922z"/>
  <path d="m356.7 533.82h7.8711l-5.1953-31.488h-140.44v34.316c0.78906-0.31641 1.7305-0.62891 2.6758-0.78906 0.31641-0.15625 0.62891-0.31641 0.94531-0.31641 0.62891-0.15625 1.2578-0.47266 1.7305-0.47266 1.1016-0.31641 2.0469-0.47266 3.1484-0.78906h0.62891c1.418-0.15625 2.6758-0.31641 4.0938-0.31641 0.78906-0.14453 1.7344-0.14453 2.5234-0.14453 1.1016 0 2.0469 0 2.9922 0.15625 0.78906 0 1.418 0.15625 2.2031 0.31641h0.15625c1.418 0.15625 2.832 0.31641 4.25 0.62891-0.31641-0.15625-0.47266-0.31641-0.78906-0.31641-0.62891-0.15625-1.2578-0.15625-2.832-0.47266 0.62891-0.15625 1.2617-0.3125 1.8906-0.3125z"/>
  <path d="m541.7 485.02c-31.172 0-56.68 25.504-56.68 56.68 0 31.172 25.504 56.68 56.68 56.68 31.172 0 56.68-25.504 56.68-56.68 0-31.172-25.508-56.68-56.68-56.68zm0 62.977c-3.4648 0-6.2969-2.832-6.2969-6.2969 0-3.4648 2.832-6.2969 6.2969-6.2969 3.4648 0 6.2969 2.832 6.2969 6.2969 0 3.4648-2.832 6.2969-6.2969 6.2969z"/>
  <path d="m533.04 455.57c2.832-0.31641 5.8242-0.47266 8.6602-0.47266 3.1484 0 6.2969 0.15625 9.4453 0.62891h0.94531c2.9922 0.31641 6.1406 0.94531 9.1328 1.5742 0.15625 0.15625 0.31641 0.15625 0.47266 0.15625 2.9922 0.78906 5.9844 1.5742 8.8164 2.6758 0.47266 0.15625 0.78906 0.31641 1.2578 0.47266 2.3633 0.78906 4.7227 1.8906 7.0859 2.9922 1.1016 0.47266 2.0469 0.94531 3.1484 1.5742 2.3633 1.2578 4.7227 2.5195 6.9258 4.0938 5.5117 3.4648 10.547 7.5586 14.957 12.281-3.9336-19.52-21.254-34.32-42.035-34.32h-26.449c-14.484 0-27.867 7.2422-35.738 19.051 7.7148-4.5664 16.215-7.7148 24.875-9.4453 2.832-0.47266 5.668-0.94531 8.5-1.2617z"/>
  <path d="m234.69 384.25h-7.875v70.848h31.488v-70.848z"/>
  <path d="m211.07 344.89h23.617v31.488h15.742v-39.359c0-4.4102-3.4648-7.8711-7.8711-7.8711l-31.488-0.003906c-4.4102 0-7.8711 3.4648-7.8711 7.8711 0 4.4102 3.4609 7.875 7.8711 7.875z"/>
  <path d="m358.91 467.86 27.223-27.223 7.3203 10.973c1.5117 2.2695 4.0156 3.4961 6.5508 3.4961 1.4961 0 3.0078-0.42578 4.3594-1.3242 3.6211-2.4102 4.5977-7.2891 2.1875-10.91l-31.488-47.23c-2.4102-3.6055-7.2891-4.5977-10.91-2.1875-3.6211 2.4102-4.5977 7.2891-2.1875 10.91l15.352 23.035-30.215 30.227c4.8828 2.0469 9.1328 5.668 11.809 10.234z"/>
  <path d="m234.69 567.99c-7.2422 0-13.066 5.8242-13.066 13.066 0 7.2422 5.8242 13.066 13.066 13.066s13.066-5.8242 13.066-13.066c0-7.2422-5.8242-13.066-13.066-13.066zm0 18.262c-2.832 0-5.1953-2.3633-5.1953-5.1953 0-2.832 2.3633-5.1953 5.1953-5.1953s5.1953 2.3633 5.1953 5.1953c0 2.8359-2.3633 5.1953-5.1953 5.1953z"/>
 </g>
</svg>