<?xml version="1.0" encoding="UTF-8"?>
<!-- The Best Svg Icon site in the world: iconSvg.co, Visit us! https://iconsvg.co -->
<svg fill="#000000" width="800px" height="800px" version="1.1" viewBox="144 144 512 512" xmlns="http://www.w3.org/2000/svg">
 <path d="m504.86 173.16c-38.281-11.055-79.242-8.2109-115.62 8.0352-36.383 16.242-65.848 44.836-83.172 80.715-17.328 35.883-21.402 76.734-11.5 115.33 9.9023 38.594 33.141 72.441 65.602 95.551 0 0.13281-0.039063 0.25-0.039063 0.38672l-0.003906 119.31c-0.37109 9.207 3.0273 18.168 9.4102 24.812 6.3828 6.6484 15.199 10.402 24.414 10.402 9.2148 0 18.031-3.7539 24.414-10.402 6.3828-6.6445 9.7812-15.605 9.4062-24.812v-119.29c-0.007812-6.5586-1.9258-12.977-5.5156-18.465-3.5938-5.4922-8.6992-9.8203-14.707-12.465-0.29297-0.8125-0.71875-1.5742-1.2578-2.25-24.121-28.141-37.211-64.078-36.84-101.14 0.37109-37.059 14.18-72.727 38.863-100.38 24.68-27.648 58.555-45.406 95.336-49.969 3.7188-0.45312 6.6016-3.4609 6.8945-7.1953 0.29297-3.7305-2.082-7.1562-5.6797-8.1836zm-92.836 374.44h-36.156v-40.98h36.156zm-18.105 62.977c-4.8008 0-9.4062-1.9062-12.805-5.3008-3.3945-3.3984-5.3008-8.0039-5.3008-12.805v-29.125h36.156v29.125c0 4.7891-1.8984 9.3828-5.2773 12.777-3.3789 3.3906-7.9609 5.3086-12.75 5.3281zm18.105-119.7-36.156 0.003906v-17.668c-0.27344-4.9648 1.5078-9.8281 4.9258-13.441 3.4219-3.6133 8.1758-5.6602 13.152-5.6602 4.9766 0 9.7305 2.0469 13.152 5.6602 3.418 3.6133 5.1992 8.4766 4.9258 13.441zm0.72266-278.67c-32.359 27.672-53.047 66.562-57.906 108.86-4.8594 42.301 6.4727 84.871 31.719 119.16-9.293 2.1289-17.254 8.082-21.926 16.391-8.2695-6.4102-15.867-13.648-22.672-21.602-25.879-30.223-38.973-69.336-36.512-109.05 2.4648-39.715 20.289-76.91 49.707-103.71 29.414-26.797 68.105-41.086 107.88-39.848-18.371 6.9258-35.391 17.008-50.289 29.789z"/>
</svg>