<?xml version="1.0" encoding="UTF-8"?>
<!-- The Best Svg Icon site in the world: iconSvg.co, Visit us! https://iconsvg.co -->
<svg fill="#000000" width="800px" height="800px" version="1.1" viewBox="144 144 512 512" xmlns="http://www.w3.org/2000/svg">
 <g>
  <path d="m217.51 300.79c-6.3555 8.957-5.582 21.457 2.4375 29.477 3.7578 3.7617 8.5156 5.8438 13.426 6.4414-1.6719 3.2227-2.6523 6.7812-2.6523 10.527 0 6.1445 2.3828 11.91 6.707 16.23 4.3203 4.3242 10.086 6.707 16.23 6.707 3.7461 0 7.3047-0.98047 10.527-2.6523 0.60156 4.9062 2.6836 9.6641 6.4453 13.422 4.3242 4.3242 10.086 6.707 16.23 6.707 4.8398 0 9.4141-1.5234 13.262-4.2656 0.77734 4.6836 2.9219 9.0039 6.3359 12.414 4.3203 4.3242 10.086 6.707 16.23 6.707 6.1445 0 11.906-2.3828 16.23-6.707l10.34-10.34 208.29 208.29c4.8359 4.8359 11.262 7.5 18.102 7.5s13.266-2.6602 18.102-7.5c4.8359-4.8359 7.5-11.262 7.5-18.102s-2.6602-13.266-7.5-18.102l-208.3-208.29 10.34-10.34c4.3242-4.3242 6.707-10.086 6.707-16.23s-2.3828-11.91-6.707-16.23c-3.4062-3.4102-7.7305-5.5547-12.414-6.3359 2.7383-3.8477 4.2656-8.4219 4.2656-13.262 0-6.1445-2.3828-11.906-6.707-16.23-3.7578-3.7617-8.5117-5.8438-13.422-6.4453 1.668-3.2227 2.6523-6.7773 2.6523-10.523 0-6.1445-2.3828-11.91-6.707-16.23-4.3203-4.3242-10.086-6.707-16.23-6.707-3.7461 0-7.3008 0.98438-10.527 2.6523-0.60156-4.9062-2.6836-9.6641-6.4453-13.422-8.0156-8.0234-20.52-8.8008-29.477-2.4414-0.76172-4.5469-2.8477-8.9102-6.3477-12.414-8.9531-8.9453-23.512-8.9336-32.469 0l-56.871 56.879c-8.9453 8.9492-8.9453 23.52 0 32.469 3.5 3.5039 7.8672 5.5859 12.414 6.3477zm369.11 263.88c2.9336 2.9336 4.5469 6.8281 4.5469 10.977 0 4.1484-1.6133 8.043-4.5469 10.977-5.8633 5.8633-16.09 5.8633-21.953 0l-208.29-208.29 21.953-21.953zm-194.2-241.99c0 3.4531-1.332 6.6875-3.7539 9.1055l-56.879 56.883c-4.8398 4.8398-13.371 4.8398-18.215 0-2.4219-2.4219-3.7539-5.6523-3.7539-9.1055s1.332-6.6875 3.7539-9.1055l56.879-56.879c2.4219-2.4219 5.6523-3.7539 9.1055-3.7539s6.6875 1.332 9.1055 3.7539c2.4258 2.418 3.7578 5.6484 3.7578 9.1016zm-14.852-35.824c0 3.4531-1.332 6.6875-3.7539 9.1055l-77.855 77.855c-4.8398 4.8398-13.371 4.8398-18.215 0-5.0234-5.0234-5.0234-13.191 0-18.215l77.855-77.855c2.5078-2.5078 5.8086-3.7656 9.1055-3.7656 3.2969 0 6.5977 1.2539 9.1055 3.7656 2.4219 2.4219 3.7578 5.6523 3.7578 9.1094zm-30.34-46.062c3.4531 0 6.6875 1.332 9.1055 3.7539 2.4219 2.4219 3.7539 5.6523 3.7539 9.1055s-1.332 6.6875-3.7539 9.1055l-93.582 93.582c-4.8398 4.8398-13.371 4.8398-18.215 0-2.4219-2.4219-3.7539-5.6523-3.7539-9.1055s1.332-6.6875 3.7539-9.1055l93.582-93.582c2.4258-2.4219 5.6562-3.7539 9.1094-3.7539zm-33.199-17.484c3.2969 0 6.5977 1.2539 9.1055 3.7656 5.0234 5.0234 5.0234 13.191 0 18.215l-77.855 77.855c-5.0195 5.0195-13.195 5.0195-18.215 0-5.0234-5.0234-5.0234-13.191 0-18.215l77.855-77.855c2.5117-2.5117 5.8125-3.7656 9.1094-3.7656zm-101.81 45.789 56.879-56.879c5.0117-5.0195 13.195-5.0273 18.219 0 5.0234 5.0234 5.0234 13.191 0 18.215l-56.887 56.883c-5.0195 5.0195-13.188 5.0195-18.215 0-5.0156-5.0234-5.0156-13.195 0.003906-18.219z"/>
  <path d="m254.81 390.76c0-2.7852-2.2539-5.0391-5.0391-5.0391-2.7852 0-5.0391 2.2539-5.0391 5.0391v117.48c0 2.7852 2.2539 5.0391 5.0391 5.0391 2.7852 0 5.0391-2.2539 5.0391-5.0391z"/>
  <path d="m317.87 449.5v117.48c0 2.7852 2.2539 5.0391 5.0391 5.0391s5.0391-2.2539 5.0391-5.0391v-117.48c0-2.7852-2.2539-5.0391-5.0391-5.0391s-5.0391 2.2539-5.0391 5.0391z"/>
  <path d="m291.38 410.49c0-2.7852-2.2539-5.0391-5.0391-5.0391-2.7852 0-5.0391 2.2539-5.0391 5.0391v64.215c0 2.7852 2.2539 5.0391 5.0391 5.0391 2.7852 0 5.0391-2.2539 5.0391-5.0391z"/>
  <path d="m249.77 545.34c-2.7852 0-5.0391 2.2539-5.0391 5.0391l0.003906 46.109c0 2.7852 2.2539 5.0391 5.0391 5.0391 2.7852 0 5.0391-2.2539 5.0391-5.0391v-46.109c-0.003906-2.7852-2.2578-5.0391-5.043-5.0391z"/>
  <path d="m286.34 510.3c-2.7852 0-5.0391 2.2539-5.0391 5.0391v46.109c0 2.7852 2.2539 5.0391 5.0391 5.0391 2.7852 0 5.0391-2.2539 5.0391-5.0391v-46.109c0-2.7891-2.2539-5.0391-5.0391-5.0391z"/>
 </g>
</svg>