<?xml version="1.0" encoding="UTF-8"?>
<!-- The Best Svg Icon site in the world: iconSvg.co, Visit us! https://iconsvg.co -->
<svg fill="#000000" width="800px" height="800px" version="1.1" viewBox="144 144 512 512" xmlns="http://www.w3.org/2000/svg">
 <g>
  <path d="m613.59 333.36c-1.293-1.9922-2.7969-3.8477-4.4766-5.5273-4.0156-4.0742-8.1719-8.0156-12.582-12.312 0.86328-0.25 1.6797-0.64063 2.418-1.1523 1.5-1.2734 2.6055-2.957 3.1758-4.8398-0.33984-3.3633-2.9883-1.3867-4.8398-1.1875-1.707 0.18359-3.4375 0.14453-5.1562 0.20703l-0.56641-1.2969c2.4141-2.6094 4.8477-5.1953 7.2344-7.8281l-0.003907-0.003906c2.5234-2.5273 4.8555-5.2383 6.9766-8.1172 0.33203-1.6055-0.042969-3.2734-1.0273-4.5859-1.2266-0.30859-2.5195-0.22656-3.6953 0.23438-1.7734 0.67578-3.5977 1.207-5.457 1.5898-3.3438 0.64062-6.793 0.49609-10.07-0.41406-3.0273-2.25-5.832-4.7852-8.3711-7.5742-3.8906-3.6797-8.4297-6.6094-13.387-8.6367-9.8203-2.6055-20.078-3.5625-30.828-5.3125-0.61328-2.4375-1.6055-4.7656-2.9453-6.8945-5.6875-7.1602-11.703-14.066-17.809-20.875v-0.003907c-3.8398-4.2578-9.8984-5.7383-15.27-3.7227-5.0547 1.4414-8.5391 6.0664-8.5312 11.328-0.17188 5.2227 0.21875 10.461 0.35938 15.645-4.6719-0.28906-9.8516-0.79297-15.035-0.82031h-0.003907c-1.8984-0.12109-3.7578 0.58594-5.0977 1.9375-1.9102 4.125-5.0273 9.0977-4.0977 12.863 2.7969 11.387 6.3867 22.82 15.449 31.5-6.2734 15.766 1.2109 32.312 15.535 34.176-1.5391 5.1406-2.8906 10.375-4.6797 15.453-1.7656 5.0156-3.9648 9.875-5.9414 14.715l-0.003906 0.003906c-2.4414-2.4258-4.6562-5.0664-6.625-7.8867-2.4297-4.4375-4.543-9.0352-6.3242-13.766-1.043-2.6992-3.125-5.5625-0.16016-8.6836 0.21484-1.5117-0.089844-3.0508-0.86719-4.3672-1.2539-2.3555-2.3516-4.793-3.2812-7.2969-0.87109-3.5078-1.332-7.1094-1.3711-10.723-0.046875-9.6953-8.4141-15.414-11.172-24.145-2.6055-8.2539-9.8711-15.035-15.09-22.461v-0.003906c-2.9609-2.9961-5.3398-6.5156-7.0156-10.379-2.4531-11.812-3.8633-23.848-5.4844-35.824-0.86328-6.3711-1.2266-12.809-2.0859-19.18l-0.003906-0.003906c-0.34375-1.293-1.3203-2.3242-2.5898-2.7422-1.293 0.24609-2.4258 1.0039-3.1484 2.1016-1.4219 2.0234-2.7344 4.125-3.9336 6.2891-0.14844-1.6641-0.55469-3.293-1.207-4.8281-0.85547-1.1602-2.0391-2.0352-3.3984-2.5117-3.2461 2.2656-6.2266 4.8867-8.8906 7.8125-1.3789 2.0977-2.3281 4.4492-2.7852 6.918-1.0078 3.2266-1.7852 6.5156-2.332 9.8516-0.47656 3.3047-0.39844 6.6875-0.58594 10.426-2.3203-3.6172-4.1562-6.9414-6.4492-9.9102-2.1289-2.7617-5.3398-2.207-5.9922 0.94141-1.875 6.2344-2.0703 12.852-0.55859 19.184 1.1719 5.043 1.9258 10.168 2.2617 15.332-4.7266 0.37891-5.4688 2.8555-3.9023 6.1797 2.8242 5.9922 5.9297 11.855 8.8594 17.801 0.83203 1.6914 1.4609 3.4883 2.1797 5.2383l-1.5859 1.1016c-11.309-11.621-22.523-23.332-33.992-34.797-3.0938-3.1172-6.6133-5.7852-10.449-7.9219-6.2227-3.3984-7.9023-2.1602-7.1172 4.9219 0.45312 4.1016 2.0195 8.2305-4.418 8.8672v0.003907c-1.1719 0.48438-2.0391 1.5039-2.3359 2.7383-1.0508 3.875-1.5977 7.8711-1.625 11.891 0.67578 3.9609 1.7656 7.8398 3.2578 11.57-3.1367-1.6094-6.5039-2.7227-9.9844-3.293-2.9336 0.65234-5.7148 1.8594-8.1914 3.5664-1.332-2-2.9062-3.8242-4.6797-5.4414-5.7773-4.3633-11.809-8.3906-17.781-12.492h-0.003906c-9.9805-7.7344-23.148-10.02-35.156-6.1016-5.5781 1.2227-9.2188 6.6016-8.2852 12.238-1.4336 0.83594-2.9141 1.5938-4.4258 2.2734-1.75 0.68359-3.5977 1.1172-5.4102 1.6367-19.332 5.5234-34.219 15.906-40.121 36.316v-0.003906c-1.4805 5.3125-3.2734 10.527-5.375 15.625-2.5117 3.957-4.668 8.125-6.4492 12.461-3.1016 11-4.1758 22.469-3.1719 33.852 1.0469 10.586 2.8672 21.082 5.4531 31.402 3.5938 13.605 9.2812 26.566 16.867 38.418 2.8789 4.4844 6.8398 8.1719 11.516 10.73 7.707 3.0586 15.234 6.5508 22.547 10.461 6.7617 4.1523 7.2148 3.418 9.5039-0.73438-6.0469-11.23-11.965-21.672-17.359-32.379-5.6211-11.148-7.7578-22.535-1.5156-34.473h-0.003907c1.1328-3.543 4.5234-5.8633 8.2344-5.6367 0.95703 0.31641 2.0078-0.019531 2.6094-0.82812 0.59766-0.80859 0.60938-1.9102 0.027344-2.7344-0.8125-1.4922-2.2188-2.5703-3.875-2.9609-6.0703-1.0664-7.3359-2.4922-6.4609-8.5117v-0.003906c0.24609-1.7266 0.60156-3.4375 1.0586-5.1211 0.69141-2.5859 2.4883-4.7344 4.9141-5.8672 2.4258-1.1328 5.2266-1.1289 7.6523 0.003906 5.5078 3.4336 13.402 3.8281 15.789 11.59 0.46875 0.39453 0.97266 0.74219 1.5078 1.043 3.793 5.4805 5.9922 11.898 6.3516 18.551 1.0586 0.58984 1.957 1.4219 2.625 2.4297 1.1758 4.0742 2.6602 8.0508 4.4336 11.902 5.6523 9.082 11.797 17.875 18.027 26.578 4.3867 6.1289 9.4258 11.797 13.836 17.91l0.003906 0.003906c5.0078 6.0859 11.43 10.852 18.711 13.879 8.5039 3.9531 17.941 5.4648 27.254 4.3672 16.016-1.1758 31.344-3.707 41.121-18.617v-0.003906c0.44922-0.21875 0.94141-0.35156 1.4414-0.39062 0.875 2.0508 1.9023 4.1367 2.6641 6.3164v-0.003906c1.6562 6.0859 3.7461 12.043 6.2578 17.824 3.707 6.6172 7.9336 12.922 12.645 18.863 5.8789 7.5195 14.734 12.109 24.266 12.582 4.207 0.70312 8.0039 2.9492 10.641 6.3047 2.6367 3.3555 3.9219 7.5742 3.6094 11.828-0.55859 3.0781-0.62891 6.2227-0.21484 9.3242 1.5664 6.3398 2 12.906 1.2734 19.398-0.72266 6.3789-2.7969 12.531-6.0859 18.043-1.3398 2.4219-2.4258 4.9766-3.2461 7.6172l1.7188 1.2461 10.625-7.0859c1.9062 4.1133 4.3789 6.3164 8.5586 3.0703 0.70703-0.34766 1.5195-0.40234 2.2617-0.14844 4.9883 1.125 9.8906 2.6094 14.672 4.4336 3.3633 1.4883 4.8867 0.41406 7.1367-3.1875-3.0469-2.1992-6.1523-4.4375-9.6641-6.9688 3.3711-0.054688 6.7227 0.5625 9.8555 1.8164 5.957 4.3516 12.75 3.7617 19.293 4.5156h-0.003906c1.8203-0.51562 3.4766-1.4844 4.8125-2.8203-0.8125-1.1328-1.8047-2.1289-2.9297-2.9531-8.8711-4.4805-17.879-8.6914-26.715-13.238v0.003907c-4.3398-1.8086-7.1484-6.0703-7.0977-10.77 0.13281-4.5742-0.62891-9.1328-2.2344-13.422-2.3438-4.4922-2.1797-9.8828 0.43359-14.223 0.61328 0.38281 1.2578 0.78516 1.9062 1.1836 4.4102 2.7188 7.4258 2.5234 9.9258-0.62109v-0.003906c0.75-4.0703 2.9844-7.7148 6.2695-10.234 0.75391-1.2773 2.1172-2.0703 3.6016-2.1016 1.1445-0.53125 2.332-0.95703 3.5508-1.2773 1.5-0.37891 3.0312-0.70312 4.582-0.99219-2.1797-0.10547-4.3555-0.21484-6.5352-0.32031 3.9219-2.2344 8.6719-2.4883 12.809-0.67969 3.3086-0.46875 6.6445-0.91016 9.957-1.4219l-1.0117-1c4.6953-1.0273 9.3906-2.0547 14.086-3.082l0.25391 0.78125-1.6875 0.79297c1.5234-0.46484 3.0234-1.0117 4.4922-1.6328 0.72266-0.30859 1.4102-0.68359 2.1133-1.0352 0.058594-0.042969 0.097656-0.11328 0.16016-0.15625 8.3164-6.1992 14.914-14.414 19.168-23.875 2.6328-6.2617 4.832-12.695 6.5898-19.254 5.7188-17.535 7.9062-36.027 6.4297-54.41-0.58594-8.4141-2.0938-16.758-2.9922-25.156-0.3125-2.9141 0.10156-5.9023-0.074219-8.8398-0.80078-6.6797-1.2266-13.395-1.2812-20.121 0.49219-8.3125 1.6484-16.574 3.4531-24.703 0.80078-5.375 3.6055-10.246 7.8516-13.633 0.13672 2.3398 0.32031 3.6406 0.26953 4.9336-0.30859 8.1758-0.89453 16.348-0.93359 24.523v-0.003907c-0.17969 6.1094 2.1094 12.031 6.3555 16.426 1.5039 1.8203 3.7031 2.9297 6.0586 3.0586 3.9219-0.92188 7.4375-3.0977 10.012-6.1953 1.7578-4.6211 2.875-9.4648 3.3242-14.391 0.19922-1.9648 0.94922-3.8359 2.1641-5.3945 3.7344-2.5742 4.7578-7.6406 2.3125-11.461zm-119.26-4.7773c-0.070313 2.457-0.13672 4.6016-0.19922 6.7461l-1.168 0.85938h0.003906c-2.0586-1.3555-3.8477-3.082-5.2812-5.0859-2.2734-4.75-3.9531-9.7617-5.0078-14.922 0.19141-2.0078 1.1836-3.8516 2.75-5.1172 1.5664-1.2656 3.5781-1.8516 5.5781-1.6211 1.7852 0.63281 3.6758 0.91406 5.5664 0.82031 1.8633-0.74609 3.3828-2.1484 4.2773-3.9453-0.30469-1.5977-1.3555-2.9531-2.8242-3.6445-3.9961-0.80078-8.1406-0.83594-12.219-1.2656l-0.003907-0.003906c-3.918-0.035156-7.375-2.5781-8.582-6.3086-2.4766-7.25-5.3555-14.371-7.5938-21.691-0.52344-1.2891-0.34375-2.7539 0.48047-3.875 0.82031-1.1211 2.168-1.7344 3.5508-1.6211 5.4844-0.90625 11.117-0.23047 16.227 1.9531 5.1133 2.1797 9.4961 5.7812 12.633 10.367 1.0742 1.5664 2.3789 2.9531 3.8711 4.125 1.0664 0.85156 2.3945 1.3086 3.7578 1.293 1.3477-1.2734 2.1484-3.0156 2.2422-4.8672-2.0859-3.2305-4.5312-6.2109-7.2891-8.8867-1.4531-1.1406-3.0469-2.0781-4.75-2.7891l0.39062-0.76562c1.2344 0.19922 2.4688 0.43359 3.7109 0.57422l-0.003907 0.003907c0.53125-0.24609 1.0156-0.57812 1.4336-0.98438-1.5195-1.2773-3.1719-2.3867-4.9258-3.3125-3.8594-1.9023-6.6641-5.4375-7.6367-9.6328-0.97266-4.1914-0.011718-8.5977 2.6172-12.008 3.207-2.5 7.7109-2.4531 10.867 0.10938 5.0391 5.6172 9.7656 11.508 14.16 17.645 2.4531 3.8008 4.6836 7.7461 6.6797 11.812-10.586 9.832-18.102 22.516-21.637 36.523-1.3594 5-3.043 9.9141-4.625 14.855-1.0664 3.3359-2.4453 6.3125-7.0469 4.6602zm-31.602-4.957c-2.3789 8.9648-4.75 17.914-7.1211 26.848 8.0898 0.81641 5.375-6.7031 8.9062-10.102 1.8984 6.1172-1.3828 10.777-2.5273 15.715-0.66797 2.8711-2.5234 5.707 2.043 8.6797 1.5039-3.3633 2.9141-6.5234 4.582-10.258v0.003906c2.9375 3.5742 3.8203 8.4141 2.3281 12.793-1.0742 3.7344-1.7539 7.5742-2.0195 11.449 6.2266-0.66797 4.2656-5.6641 6.082-8.7109 1.6094 1.1836 3.2539 2.2383 4.7227 3.5039 1.3203 0.95703 1.9766 2.582 1.6875 4.1836-0.28906 1.6016-1.4688 2.8984-3.0352 3.332-3.8203 1.6797-8.168 1.6875-11.992 0.023438-3.8281-1.6641-6.7852-4.8477-8.1641-8.7852-1.3711-3.8594-3.2148-7.5469-4.8594-11.305-1.9062-3.2227-2.7461-6.9688-2.3906-10.695-0.41406-2.7188-1.4922-5.2969-3.1328-7.5039 5.1797 0.87891 6.0273-0.39844 7.2188-5.2578 1.5977-4.9766 3.5898-9.8203 5.957-14.48zm-22.234-24.562c-1.8086-2.6797-2.8281-5.8125-2.9414-9.043-0.11719-3.2305 0.67969-6.4297 2.293-9.2305 3.2266 5.5898 5.9961 10.371 8.7539 15.16 1.0391 2.4766 2.4141 4.8008 4.0898 6.9023 7.6914 7.2695 5.5391 15.266 2.0859 23.32-1.9062 4.4453-4.4336 8.6172-6.5234 12.992l0.003906-0.003907c-0.35156 1.125-0.52344 2.2969-0.50781 3.4766-1.832-3.2656-3.5469-6.6055-5.5273-9.7812-3.5117-6.0273-8.5156-11.055-14.523-14.598-3.5352-2.293-6.9258-4.7969-10.152-7.5 5.0781 2.8633 9.375 5.2852 13.75 7.7539-2.6289-5.5625-5.0898-10.324-7.0781-15.281-0.14844-1.6484 0.082031-3.3125 0.67188-4.8594 1.6445 0.074219 3.2617 0.48047 4.7461 1.1914 3.168 2.5469 5.9883 5.5312 8.8906 8.2891 1.7891-0.53906 3.1445-2 3.5508-3.8203 0.40625-1.8203-0.19922-3.7188-1.582-4.9688zm-50.906-22.594c1.7188 1.9297 3.5664 3.7422 5.5234 5.4336 1.1992 0.49609 2.4883 0.72656 3.7812 0.66797 0.58203-1.4961 0.78906-3.1133 0.59375-4.707-6.9023-6.2305-10.727-15.176-10.465-24.473-0.25-4.8711-1.3438-9.6953-2.0547-14.543l2.5781-0.63672c2.3281 6.8711 4.6836 13.73 6.9805 20.609 2.3281 6.9727 4.5938 13.965 6.9414 21.109 1.6602-0.29688 3.0898-1.3438 3.8789-2.832 0.79297-1.4922 0.85156-3.2617 0.16406-4.8008-2.2695-13.27-4.2969-26.609-5.6094-40.004-0.050782-5.75 2.6719-11.168 7.3125-14.562 0.46094 8.5312 1.4766 17.078 1.2539 25.594-0.32422 12.535 0.72266 24.535 8.1992 35.148 0.36719 0.375 0.78125 0.70703 1.2305 0.98047 2.9883-1.1016 4.5586-4.3828 3.543-7.4023-1.6602-10.086-3.4414-20.168-4.6445-30.312h-0.003907c-0.3125-5.2656-0.30859-10.543 0.019532-15.805 0.56641 0.30078 1.0703 0.71484 1.4766 1.2109-0.45703 12.898 6.0312 24.254 8.1133 36.582 0.070312 1.1016 0.34375 2.1797 0.80859 3.1836 4.1797 6.7656 2.7891 14.105 2.4805 21.375 0.12891 1.9961 0.45312 3.9766 0.96484 5.9102l-11.352-4.6641c-1.1211 5.5742-2.4141 10.742-3.1172 15.988-0.39453 2.9453-1.0586 3.9609-4.1055 2.8633-9.4141-3.3906-16.477-8.7734-17.629-19.574-0.066407-0.53125-0.37891-0.99609-0.83984-1.2656-5.5977-1.5938-4.4961-7.0352-6.0234-11.074zm-43.406-18.242c3.4531 2.9883 7.0469 5.8281 10.32 9 4.1797 4.043 8.2695 8.207 12.059 12.613 1.6055 1.8672 5.2031 2.9727 3.5859 6.8398l0.003907-0.003906c0.71875 1.1016 1.6758 2.0273 2.8008 2.7109 6.9883 5.7812 14.316 11.203 20.805 17.5 1.4844 2.9023 2.2461 6.1172 2.2305 9.375l-1.0156 0.78516v-0.003906c-2.2969-1.9414-4.7656-3.6758-7.3711-5.1797-15.738-7.3789-25.664-21.133-36.812-33.477-4.6289-5.2305-7.4492-11.812-8.0391-18.77zm-8.3164 15.164 1.4062-0.58594c2.9844 3.3086 6.0273 6.5664 8.9492 9.9297 10.078 12.285 21.629 23.285 34.391 32.75 4.9922 3.5 10.422 6.3945 15.309 10.031 1.5117 1.5312 2.7148 3.3359 3.5469 5.3164-5.3438 2.1016-9.3672 3.8633-13.52 5.2227-1.6719 0.66016-3.5234 0.68359-5.2148 0.074218-11.168-5.5586-21.129-13.262-29.32-22.672-7.8164-9.8281-15.711-20-16.562-33.391 0.09375-2.2578 0.4375-4.4961 1.0156-6.6758zm60.719 90.012c2.918 1.6172 4.8164 2.6719 5.8828 3.2656-2.3398 4.7891-4.4766 8.9766-6.4336 13.242-2.9297 3.1875-7.1602 4.8516-11.477 4.5156-10.625-4.6758-21.168-9.5352-31.801-14.191-5.2812-2.3125-10.766-4.1758-16-6.5859v-0.003906c-1.7578-1.1367-3.3438-2.5195-4.707-4.1016l1.1094-1.9062c7.543 3.0234 15.277 5.5547 23.148 7.5703 10.641 2.0078 21.414 3.2188 32.23 3.6211 3.4883 0.15234 7.1133-3.1328 11.215-0.53125-0.82031-1.2695-1.6445-2.5391-3.168-4.8945zm-70.094-66.539c4.8359 2.1953 9.0977 5.4805 12.445 9.6016 8.0547 11.16 17.863 20.941 29.039 28.969 6.0938 5.0078 11.902 10.355 17.395 16.02 1.0859 1.5859 1.8828 3.3477 2.3555 5.2109-1.8867 0.39062-3.7695 0.77734-5.543 1.1406-2.8086-0.98047-5.5117-2.2383-8.0664-3.7617-10.25-7.5312-21.445-13.691-33.293-18.32-3.3164-1.8398-6.1758-4.4062-8.3672-7.5039-3.0664-3.5664-5.4531-7.7109-8.4492-11.348-3.0273-4.5469-4.5391-9.9375-4.3164-15.398-0.4375-5.2539 2.2773-7.0508 6.8008-4.6094zm-58.438-23.352c11.609 0.86719 20.012 8.0039 28.332 13.039-14.094-1.1523-28.992-2.3672-43.945-3.5898h-0.003906c2.0898-6.6289 8.7773-10.672 15.617-9.4492zm-35.027 85.852c-1.7109 2.0898-2.6172 4.7188-2.5586 7.4141-0.21484 6.3477-1.543 12.605-3.9297 18.484-0.39062 3.2383-0.39062 6.5117 0.003906 9.75 0.64844 3.9141 0.47656 7.9141-0.50391 11.758-5.5664 10.309-5.5742 22.727-0.023437 33.047 4.0977 8.3828 8.1914 16.766 12.277 25.156v-0.003906c0.25781 0.77734 0.44922 1.5703 0.57422 2.3789-6.8672-2.6133-13.473-4.6719-19.656-7.6094h-0.003906c-6.1641-3.6602-11.078-9.0977-14.105-15.598-6.5273-12.59-11.238-26.043-13.988-39.957-1.4805-4.8516-2.1445-9.9102-1.9609-14.977 0.44141-5.2773-2.9531-9.7344-1.7188-15.086 1.3477-5.8359 1.6992-11.902 2.5586-17.859v0.003906c0.38672-4.0508 2.3945-7.7734 5.5664-10.32 2.3672-1.9688 2.3984-6.7461 3.7539-11.172 0.83984 1.8672 1.2773 2.8398 1.7148 3.8125l1.6406-0.14062c-0.11328-2.2578-0.36328-4.5156-0.29297-6.7695v0.003906c-0.14453-1.4961 0.17969-3 0.92578-4.3047 6.1328-6.8008 12.184-13.734 18.922-19.906h-0.003906c2.9844-1.7227 6.3242-2.7344 9.7617-2.957 5.7773-1.3242 11.633-2.3281 17.375-3.7891h-0.003906c1.2578-0.58203 2.1406-1.75 2.3594-3.1172-0.54297-1.5781-1.7617-2.832-3.3242-3.418-4.168 0.74609-8.2852 1.75-12.332 3.0078-3.3672 0.63672-6.6484 1.6523-9.7852 3.0312-4.1172 2.4297-8.0391 5.1836-11.727 8.2305-1.9883 1.8555-4.0859 3.5859-6.2812 5.1875 4.1719-9.2578 12.301-16.137 22.121-18.723 4.7305-1.2422 9.4297-2.6172 14.109-4.0391 2.168-0.66016 4.9414 1.4414 6.7461-2.1211 2.5391-0.41016 5.1367-0.32422 7.6406 0.25781 6.8789 0.16797 13.762 0.26562 21.699 0.41406-2.332 4.3984-4.1211 7.5312-5.6406 10.789v-0.003906c-0.35547 1.2305-0.52344 2.5117-0.49219 3.7891 1.25-0.011719 2.5117 0.0625 3.75-0.070313h-0.003906c0.51172-0.28516 1.043-0.53516 1.5898-0.75 5.8516 3.5508 5.6719-1.1836 6.5273-4.6406 1.6094-6.5273 3.9688-7.7266 10.262-5.4102 3.7773 1.3906 7.6484 2.5508 11.367 4.082 4.2188 2.207 6.8828 6.5547 6.9414 11.316 0.3125 2.3359 1.0859 4.5898 2.2773 6.625 7.6445 11.203 15.156 22.469 27.18 29.836 6.0469 4.1016 11.887 8.5078 17.488 13.199l-3.1797 3.6875c-1.7305-2.7578-6.9062-0.85156-6.9023-6.1992-4.9922-0.8125-10.254-1.6719-15.516-2.5156h-0.003906c-0.625-0.10938-1.2578-0.15234-1.8945-0.13281-3.6211 0.15625-8.0039-0.29687-9.5078 3.7148-1.4844 3.9609 2.043 6.4922 4.9844 8.207 6.4609 3.7656 13.109 7.2344 19.82 10.543 7.4727 3.6836 15.102 7.0547 22.59 11.359-3.4883 0.03125-6.9766 0.17969-10.457 0.0625l-0.003906 0.003907c-6.4258 0.24219-12.305 3.6797-15.676 9.1562-4.2109 5.3242 0.19922 13.121 7.6758 14.992 14.527 3.6367 29.07 7.2188 43.547 11.047 4.5273 1.1992 8.8438 3.1758 13.297 4.6797 4.957 1.7148 10.449-0.13672 13.352-4.5078 0.32813-0.97266 0.50781-1.9922 0.53516-3.0195-2.957 0.83203-5.9844 1.3594-9.0469 1.5781-2.3984-0.40234-4.7266-1.1523-6.9102-2.2227-5.1367-1.2383-10.262-2.5352-15.414-3.6953-6.6836-1.5039-13.418-2.8008-20.086-4.3711-6.2383-1.4727-12.465-3.0234-18.602-4.8516h-0.003906c-1.9727-0.28125-3.5586-1.7617-3.9766-3.7109-0.41797-1.9492 0.42188-3.9492 2.1055-5.0156 3.2422-2.375 7.0195-3.918 10.996-4.4961 11.008-1.2852 22.105-1.7812 33.379-2.6055 6.3438 14.641 9.668 19.152 17.586 23.168l-3.5703 2.9453c1.0156 0.17969 2.0547 0.15234 3.0586-0.089844 6.1289-2.9727 13.254-3.1133 19.492-0.38281 4.2656 1.125 8.6211 1.8789 13.012 2.2578l0.28516 1.5898c-11.434 3.9102-22.867 7.8203-34.539 11.812 0.6875 0.52734 1.3984 1.0273 3.375 2.4492l0.003906-0.003907c-3.2969 1.4453-6.6992 2.6289-10.18 3.5352-4.4883 0.76172-9.0391 1.1016-13.59 1.0156-1.6211-0.39453-3.125-1.168-4.3906-2.2539 1.7344-1.4375 3.0977-3.2734 3.9727-5.3516-0.62891-3.3008-3.5508-2.1641-6.1289-2.2305h-0.003906c-5.7578-0.03125-11.496-0.65234-17.125-1.8555-12.062-2.8438-21.895-10.348-31.977-16.992-9.2227-6.5117-16.707-15.18-21.805-25.254-6.957-12.715-12.922-26-18.754-39.285v0.003906c-1.0508-2.418-1.4141-5.0742-1.0547-7.6797 0.35938-2.6094 1.4297-5.0703 3.0898-7.1094 2.2266-2.6719 2.1406-6.5742-0.20313-9.1445-3.0664-4.293-7.8008-7.0938-13.039-7.7148-6.5586-1.5547-13.234-2.5469-19.961-2.9688-6.5625 0.44531-12.973 2.2031-18.84 5.1797-6.1875 3.5-12.016 7.5938-17.406 12.227-1.7852 1.0039-3.0898 2.6836-3.6133 4.6641-0.52344 1.9805-0.21875 4.0898 0.83984 5.8398 0.71484-0.23828 1.3711-0.62891 1.9258-1.1406 7.0117-10.473 17.801-17.828 30.109-20.531 4.5938-0.77734 9.2812-0.83203 13.895-0.16016 3.1602 0.19922 6.2812 0.8125 9.2852 1.8203 3.7031 1.0312 7.2305 2.6172 10.465 4.6992 3.9688 2.8945 3.5508 3.8828-0.57812 5.4141-3.5195 19.004 7.6211 33.285 15.008 48.77v0.003906c6.6484 15.449 17.223 28.895 30.668 39 10.57 7.6992 22.32 13.625 34.793 17.555 4.2656 0.85547 8.5977 1.3203 12.949 1.3984-4.1445 2.1133-7.3711 3.8047-10.645 5.4141-6.832 2.5508-14.188 3.3828-21.414 2.4258-8.9453-0.17969-17.883-0.78906-26.816-1.3789-5.1875-0.8125-9.8984-3.4922-13.258-7.5273-12.074-11.484-17.195-26.633-22.547-41.754-2.9688-9.0898-6.5859-17.957-10.816-26.531-4.2461-6.9102-10.965-11.941-18.793-14.066-13.246-4.7539-19.305-0.98047-26.664 7.6992zm154.94 84.797c-6.5 1.4531-12.039 2.6953-17.574 3.9336 10.031-7.1719 12.695-7.793 17.574-3.9336zm81.449 126.59c-1.7695-3.2266-3.7109-6.3789-5.2773-9.7031v0.003907c-2.5781-6.293-3.4258-13.164-2.4531-19.895 0.027344-0.3125 0.17578-0.61328 0.20703-0.92578 0.78516-8.043 0.78125-8.043 8.5898-8.4531 0.26953 13.117 0.53125 25.875 0.79297 38.633zm106.96-251.17c-3.3047 5.4609-6.1992 11.16-8.6484 17.055-1.5781 4.4492-2.3828 9.1289-2.3828 13.848-0.18359 12.273-0.058594 24.562 0.44922 36.824 0.30469 7.375 1.7539 14.699 2.3242 22.074 0.46094 5.918 0.45703 11.879 0.50781 17.824 0.19141 5.125 0.089844 10.254-0.30469 15.363-0.58594 6.2656-1.6562 12.477-3.2031 18.578-2.1172 8.5234-4.8398 16.887-8.1484 25.02-4.6289 11.969-15.109 20.699-27.715 23.094-8.0391 1.7188-15.645 4.75-24.109 2.2773-5.3867-1.5703-8.3984 3.3438-11.676 6.0977v0.003906c-3.6758 3.8008-6.957 7.9609-9.8008 12.414-2.5547-2.0391-4.9727-4.2344-7.25-6.5781-3.1367-3.5078-5.1484-3.8711-7.4258 0.21094v0.003906c-0.40234 1.1328-1.3281 2.0039-2.4844 2.3359s-2.4023 0.082031-3.3438-0.67188c-5.3125-2.7266-10.473-5.7422-15.762-8.5156v0.003906c-1.7617-1.0156-3.6797-1.7383-5.6758-2.1367-4.6406-0.42578-9.0781-2.0781-12.859-4.7969-3.7852-2.7148-6.7695-6.3945-8.6523-10.652-1.5742-2.7578-3.6328-5.207-6.0781-7.2305-8.1641-7.8164-10.254-18.121-12.184-28.566-0.54297-1.9688-1.2734-3.8789-2.1719-5.7109-1.2383 1.4531-2.4766 2.9062-3.7227 4.3672-3.7188-2.7227-4.0078-1.8086-6.9375 2.082-3.2383 4.1797-7.3164 7.6328-11.969 10.145-11.254 5.2227-23.809 6.9883-36.066 5.0703-9.3047-1.1406-18.016-5.1875-24.891-11.562-15.566-13.215-25.359-30.582-35.254-47.766-5.3047-9.2109-8.2422-19.758-12.781-29.449v-0.003906c-4.2852-10.035-10.902-18.902-19.301-25.867-1.6055-0.83203-3.3438-1.3828-5.1367-1.625-0.11719 1.3633-0.38281 2.707-0.80078 4.0039-0.42578 1.1094-1.2461 2.0195-2.2969 2.5664-1.7227 0.41797-3.4844 0.64453-5.2539 0.67578-1.0977-3.0781-0.36328-6.5156 1.8984-8.875 7.2188-8.9766 13.809-7.707 22.109-4.0898 4.7422 2.0664 10.074 2.8555 13.16 7.5781 2.8008 3.7344 5.207 7.7461 7.1758 11.98 4.8086 12.508 8.3672 25.535 13.707 37.797 4.7031 11.5 12.547 21.445 22.633 28.703 0.99609 0.74219 2.1445 1.2656 3.3594 1.5312 7.0312 1.1992 14.062 2.4375 21.137 3.3281 8.6602 1.4453 17.41 2.3125 26.188 2.5977 10.871-0.41016 21.508-3.2578 31.129-8.3359 0.5-0.35547 1.0547-0.62109 1.6445-0.78516 14.273-1.6367 28.055-6.1914 40.488-13.387 2.2539-1.1758 5.2188-0.95312 7.543-2.0469 2.7031-1.2734 4.918-3.5664 7.5977-4.9062v0.003906c3.1406-1.75 6.5234-3.0234 10.039-3.7812 3.2383-0.53125 4.5469-2.5117 3.7852-4.6914-1.1719-1.832-3.1016-3.043-5.2578-3.3086-2.6406 0.058594-5.2734 0.3125-7.875 0.76172-1.3867 0.035156-2.7383-0.47656-3.75-1.4258-2.7656-2.6875-6.707-3.7812-10.461-2.9023-7.4375 0.33984-14.859 1.3281-22.293 1.4297-7.7539 0.10938-10.332-6.4023-13.324-11.902-2.4297-4.082-3.4531-8.8516-2.9141-13.57 0.53516-4.7227 2.6055-9.1367 5.8906-12.57 3.3594-3.9258 3.1953-4.2617-1.5039-6.4961-3.3945-1.6133-6.5898-3.6328-9.9219-5.3867-7.3203-3.8555-5.6172-10.875-5.8906-17.121l-0.003907-0.003906c0.53516-1.0117 1.5234-1.707 2.6562-1.8711 2.6562-0.15625 5.3789 0.46875 8.0039 0.17188v-0.003906c1.957-0.25781 3.7969-1.0703 5.3125-2.3359 0.38281-1.3281 0.26562-2.75-0.33203-3.9961-2.4062-7.3945-4.9414-14.746-7.4297-22.113l0.99219-0.95703c4.0469 1.4531 7.9688 3.2461 11.715 5.3555 9.8125 6.5859 19.859 13.09 25.156 24.375 1.1367 2.4219 2.1211 4.9258 3.0547 7.4336 2.2852 6.1406 4.457 12.32 6.75 18.461 1.6289 4.3633 3.3984 8.6758 5.0703 13.027 1.6406 4.8594 5.7578 8.4648 10.793 9.4492 2.5 0.90625 4.918 2.0195 7.2305 3.3359 1.2891 0.57812 2.7656 0.55469 4.0352-0.070312-1.0391-0.50391-2.0781-1.0039-4.2109-2.0352 5.7539-1.4805 10.828-5.8398 13.547 2.7383 0.41797 1.3242 0.92969 2.6172 1.3789 3.8711 4.875-0.47266 5.4922-1.2383 4.1328-5.4492-0.82422-2.5508-2.2656-4.9375-2.8281-7.5273l0.007813 0.003906c-0.11719-1.8633 0.058593-3.7344 0.51172-5.5469l1.5117-0.12109c0.65625 2.3164 1.4414 4.5898 2.3516 6.8164 0.48438 1.125 1.4453 1.9766 2.6211 2.3203 1.2422-0.39844 2.2109-1.3906 2.5781-2.6484-0.39453-5.6211-2.1367-11.062-5.082-15.867 1.8555-6.4219 3.6055-12.945 5.6367-19.383 2.8477-9.0352 5.6797-18.086 8.9336-26.98 3.1875-9.418 6.9336-18.637 11.211-27.609 3.2539-5.9336 7.3555-11.359 12.172-16.105 4.3789-4.5547 10.844-3.5078 16.309-2.7305h0.003906c6.2305 0.87891 12.297 2.6953 17.98 5.3945 4.6445 2.6562 8.9141 5.9219 12.695 9.7109 4.4961 3.0078 6.5039 8.6016 4.9492 13.781 0.058594 2.3516 0.73438 4.6445 1.957 6.6562-2.4102 3.3984-4.8359 6.2891-6.6602 9.5195zm22.125 41.938v0.003906c-1.1836 1.5586-3.0977 2.3906-5.0469 2.1914-2.1367-1.4375-3.832-3.4414-4.8906-5.7891 0.625-1.4805 1.625-2.7773 2.8984-3.7617 1.6445-1.4102 3.1914-2.9375 4.6211-4.5664 2.4453-3.5117 0.53906-5.8555-2.7852-7.6211 1.0312-1.457 2.0312-2.8789 3.2852-4.6484 0.48047 0.87109 0.82031 1.5703 1.2344 2.2227 1.9414 1.9102 3.3828 4.2734 4.1914 6.875-0.49609 5.168-1.6719 10.242-3.5078 15.098zm-3.3359-30.309c5.1914-3.5273 8.3633-1.4453 10.578 6.1289-3.5391-2.0469-6.8828-3.9844-10.578-6.125z"/>
  <path d="m568.22 298.02c0.76953 2.1055 0.54297 4.4492-0.60547 6.375-1.1523 1.9258-3.1133 3.2305-5.332 3.5508-10.133 0.35547-20.781 1.2969-28.68-7.3359-1.2031-1.2266-1.8164-2.9141-1.6797-4.6289 1.2812-3.5859 3.9375-4.0664 6.3867-0.83594 5.7188 7.5391 13.766 6.6992 21.523 6.375 2.9688-0.69922 5.8047-1.8789 8.3867-3.5z"/>
  <path d="m444.91 482.03c-9.4648-3.0352-13.297-10.27-17.32-17.656l4.293-1.8477c0.71875 1.8672 0.12109 5.3047 4.1445 3.0938l0.003906 0.003906c1.4414 0.0625 2.8281 0.58203 3.9531 1.4805 0.98047 0.60938 1.918 1.2852 2.8086 2.0195 0.83594 0.32031 1.582 0.83984 2.1719 1.5078 0.13672 3.832 0 7.6719-0.054688 11.398z"/>
  <path d="m491.66 468.4c0.75391-2.8203 1.7383-5.5742 2.9453-8.2344 0.91016-1.1445 2.3516-1.7344 3.8008-1.5586 2.125 0.96875 3.9805 2.4375 5.4141 4.2812-0.10547 1.5312-0.76953 2.9727-1.8633 4.0508-1.2266 1.4023-2.6992 2.5625-4.3477 3.4219-1.4492 0.80469-3.0898 1.1914-4.7422 1.1211-0.64844-0.91406-1.0625-1.9727-1.207-3.082z"/>
  <path d="m492.24 498.73c-5.1758-1.9336-10.508-2.2383-11.504-8.1523-0.27734-1.2148-0.10938-2.4922 0.47266-3.5938 1.4062-0.46484 2.9375-0.35156 4.2578 0.3125 2.9688 2.0195 5.7695 4.2695 8.3789 6.7344 0.90625 0.90234 1.3203 2.1836 1.1055 3.4453-0.75 0.69141-1.6992 1.1328-2.7109 1.2539z"/>
  <path d="m527.34 445.49c0.65625-3.0156 1.4727-5.9961 2.4414-8.9258 0.55469-0.98438 1.5664-1.625 2.6914-1.7109 1.1445 0.60547 1.9805 1.6602 2.3164 2.9102 0.53516 3.0352 0.85547 6.1016 0.96094 9.1836 0.050782 1.0117-0.35156 1.9961-1.0938 2.6875-0.99219 0.67969-2.2383 0.875-3.3945 0.53516-1.4531-1.4297-2.7656-2.9961-3.9219-4.6797z"/>
  <path d="m467.06 499.66c-5.9688 4.5469-13.391 3.332-15.195-2.5742-0.082031-1.4141 0.125-2.8281 0.60547-4.1562 1.5078 0.070313 2.9961 0.35547 4.4258 0.84766 3.3672 1.7266 6.5703 3.7695 10.164 5.8828z"/>
  <path d="m523.75 398.82c-0.10547 2-0.10156 4.0117-0.35938 5.9883h-0.003907c-0.25391 0.95312-0.63281 1.8672-1.1289 2.7188-0.98828-0.19531-1.9102-0.62891-2.6875-1.2617-0.45703-3.4688-0.65625-6.9648-0.59766-10.461 0.91016-0.80859 2.125-1.1797 3.332-1.0195 1.0859 1.0039 1.9531 2.2148 2.5508 3.5625z"/>
  <path d="m293.06 388.12c0.75391-0.95703 1.707-1.7461 2.7891-2.3164 1.0312 0.14453 1.9648 0.67969 2.6055 1.5 0.49609 0.62109 0.78125 1.3867 0.8125 2.1797 1.4922 9.7148 5.8242 18.773 12.449 26.027 4.1328 4.2852 8.6367 8.1914 13.465 11.672 1.9453 1.5781 3.6914 3.3906 5.1914 5.3984 0.23438 1.3047 0.125 2.6484-0.32422 3.8945-1.1406 0.089844-2.2852-0.085937-3.3477-0.51172-4.0625-3.3281-7.9961-6.8203-11.887-10.352h-0.003906c-8.1797-7.5156-14.352-16.957-17.949-27.469-1.1562-3.2344-2.4336-6.4258-3.8008-10.023z"/>
  <path d="m206.09 391.82c-1.2656 5.1016-2.0352 10.312-2.3008 15.562 0.60547 4.9688 1.8047 9.8438 3.5781 14.527 0.64453 0.70703 1.3555 1.3516 2.125 1.9219 0.53906 1.0352 0.96875 2.1289 1.2812 3.2578-1.1953 0.60156-2.5195 0.89844-3.8594 0.86328-1.9844-1.543-3.4648-3.6406-4.2578-6.0273-1.2383-8.0312-1.9922-16.125-2.2617-24.246 0.71094-2.5703 2.0078-4.9453 3.7812-6.9336z"/>
  <path d="m218.86 406.78c0.18359 4.9531-0.019531 9.957 0.64844 14.844 0.75781 5.5547 2.2891 11.004 3.4883 16.5l-0.003906 0.003906c0.35937 0.85547 0.53516 1.7812 0.51953 2.7109-0.47266 1.3945-1.0742 2.7422-1.793 4.0273-1.2109-0.80469-2.2109-1.8906-2.9141-3.1641-1.3438-8.043-2.4062-16.137-3.4609-24.227h-0.003906c-0.26562-1.7148-0.26172-3.4609 0.007812-5.1758 0.50781-2.0234 1.1523-4.0117 1.9297-5.9492z"/>
  <path d="m212.34 387.91c-4.5547-6.1758-7.25-13.52-7.7695-21.176 0.007812-1.7227 0.59375-3.3984 1.668-4.75 1.082-0.70703 2.3203-1.1328 3.6094-1.2461-0.070312 1.0664-0.23437 2.125-0.48047 3.1602-1.2031 5.9062-0.46094 12.039 2.1172 17.484 0.64062 2.043 1.3516 4.0625 2.0312 6.0898z"/>
 </g>
</svg>