<?xml version="1.0" encoding="UTF-8"?>
<!-- The Best Svg Icon site in the world: iconSvg.co, Visit us! https://iconsvg.co -->
<svg fill="#000000" width="800px" height="800px" version="1.1" viewBox="144 144 512 512" xmlns="http://www.w3.org/2000/svg">
 <g>
  <path d="m329.15 281.92c-2.9805 0-5.9336 0.56641-8.7031 1.6719-2.0234-7.418-7.5352-13.387-14.77-16-7.2305-2.6094-15.285-1.5312-21.578 2.8867-6.2969 4.418-10.047 11.621-10.051 19.312v17.098c-7.2266-2.5586-15.25-1.4492-21.508 2.9805-6.2617 4.4258-9.9844 11.617-9.9805 19.281v40.715c-7.2266-2.5586-15.25-1.4492-21.508 2.9766-6.2617 4.4297-9.9844 11.621-9.9805 19.285v118.08c0 20.133 9.4609 36.562 23.617 43.57v74.512c0 2.0859 0.82812 4.0898 2.3047 5.5664 1.4766 1.4727 3.4766 2.3047 5.5664 2.3047h110.21c2.0898 0 4.0898-0.83203 5.5664-2.3047 1.4766-1.4766 2.3047-3.4805 2.3047-5.5664v-74.512c14.152-7.0078 23.617-23.438 23.617-43.57v-157.44c0.003906-7.668-3.7188-14.859-9.9805-19.285-6.2578-4.4258-14.281-5.5352-21.508-2.9766v-24.969c-0.007813-6.2617-2.4961-12.266-6.9258-16.691-4.4258-4.4297-10.43-6.918-16.691-6.9258zm15.742 338.5h-94.461v-62.977h94.465zm15.742-275.52h0.003907c4.3477 0.003907 7.8672 3.5273 7.875 7.8711v157.44c0 18.246-9.9297 31.488-23.617 31.488h-94.465c-13.684 0-23.617-13.242-23.617-31.488v-118.08c0-4.3477 3.5273-7.8711 7.875-7.8711s7.8711 3.5234 7.8711 7.8711v47.234c0 2.2578 0.96875 4.4062 2.6602 5.9023 1.6953 1.4922 3.9453 2.1875 6.1875 1.9062 0.26953-0.035157 27.527-3.0039 42.973 10.629 7.5078 6.6289 11.156 16.047 11.156 28.793 0 4.3477 3.5234 7.8711 7.8711 7.8711s7.8711-3.5234 7.8711-7.8711c0-17.285-5.543-30.941-16.48-40.598-14.547-12.84-34.883-14.898-46.438-14.898h-0.058594v-101.95c0-4.3477 3.5273-7.8711 7.875-7.8711 4.3477 0 7.8711 3.5234 7.8711 7.8711v70.852c0 4.3477 3.5234 7.8711 7.8711 7.8711 4.3477 0 7.8711-3.5234 7.8711-7.8711v-110.21c0-4.3477 3.5273-7.8711 7.875-7.8711 4.3477 0 7.8711 3.5234 7.8711 7.8711v110.21c0 4.3477 3.5234 7.8711 7.8711 7.8711s7.8711-3.5234 7.8711-7.8711v-94.465c0-4.3477 3.5234-7.8711 7.8711-7.8711 4.3477 0 7.875 3.5234 7.875 7.8711v94.465c0 4.3477 3.5234 7.8711 7.8711 7.8711 4.3477 0 7.8711-3.5234 7.8711-7.8711v-47.234c0.003906-4.3438 3.5273-7.8672 7.8711-7.8711z"/>
  <path d="m557.44 163.84h-110.21c-4.3477 0-7.8711 3.5273-7.8711 7.875v74.508c-14.152 7.0078-23.617 23.438-23.617 43.57v157.44c-0.003907 7.668 3.7188 14.859 9.9805 19.285 6.2617 4.4258 14.281 5.5352 21.508 2.9766v24.969c-0.003907 7.8281 3.8711 15.145 10.344 19.539 6.4727 4.3945 14.707 5.2969 21.977 2.4062 2.0234 7.418 7.5352 13.391 14.77 16 7.2344 2.6094 15.285 1.5352 21.582-2.8828 6.293-4.418 10.043-11.625 10.047-19.316v-17.098c7.2305 2.5586 15.25 1.4492 21.512-2.9766 6.2578-4.4258 9.9805-11.617 9.9766-19.285v-40.715c7.2305 2.5586 15.25 1.4492 21.512-2.9766 6.2578-4.4258 9.9805-11.617 9.9766-19.285v-118.08c0-20.133-9.4609-36.562-23.617-43.57l0.003906-74.508c0-2.0898-0.83203-4.0898-2.3086-5.5664-1.4766-1.4766-3.4766-2.3086-5.5664-2.3086zm-102.34 15.746h94.465v62.977h-94.465zm118.08 110.21v118.08c0 4.3477-3.5234 7.8711-7.8711 7.8711s-7.875-3.5234-7.875-7.8711v-47.234c0-2.2578-0.96875-4.4062-2.6602-5.8984-1.6914-1.4961-3.9453-2.1914-6.1875-1.9102-0.27344 0.03125-27.531 3.0039-42.973-10.629-7.5039-6.625-11.156-16.047-11.156-28.793 0-4.3477-3.5234-7.8711-7.8711-7.8711s-7.8711 3.5234-7.8711 7.8711c0 17.285 5.543 30.941 16.48 40.598 14.547 12.84 34.887 14.902 46.438 14.902l0.058593-0.003906v101.95c0 4.3477-3.5234 7.8711-7.8711 7.8711-4.3477 0-7.875-3.5234-7.875-7.8711v-70.848c0-4.3477-3.5234-7.875-7.8711-7.875s-7.8711 3.5273-7.8711 7.875v110.21c0 4.3477-3.5234 7.8711-7.8711 7.8711-4.3477 0-7.875-3.5234-7.875-7.8711v-110.21c0-4.3477-3.5234-7.875-7.8711-7.875s-7.8711 3.5273-7.8711 7.875v94.465-0.003906c0 4.3477-3.5234 7.875-7.8711 7.875s-7.8711-3.5273-7.8711-7.875v-94.461c0-4.3477-3.5273-7.875-7.875-7.875-4.3477 0-7.8711 3.5273-7.8711 7.875v47.23c0 4.3477-3.5234 7.8711-7.8711 7.8711s-7.8711-3.5234-7.8711-7.8711v-157.44c0-18.246 9.9297-31.488 23.617-31.488h94.465c13.68 0 23.613 13.242 23.613 31.488z"/>
 </g>
</svg>