<?xml version="1.0" encoding="UTF-8"?>
<!-- The Best Svg Icon site in the world: iconSvg.co, Visit us! https://iconsvg.co -->
<svg fill="#000000" width="800px" height="800px" version="1.1" viewBox="144 144 512 512" xmlns="http://www.w3.org/2000/svg">
 <path d="m384.65 266.7c-0.47266 4.4727-0.48828 8.8789 0 13.145v23.555c-6.9102-1.0703-13.965-1.6211-21.145-1.6211-80.879 0-147.16 70.328-147.16 157.69 0 87.363 66.281 157.71 147.16 157.71 12.594 0 24.828-1.6992 36.512-4.9141 11.652 3.2109 23.883 4.9141 36.48 4.9141 80.879 0 147.16-70.344 147.16-157.71 0-64.395-36.023-119.56-87.348-144.09 0.44141-0.25 0.88281-0.48828 1.3242-0.73828 9.1953-5.3203 18.844-16.801 27.109-30.906 16.297-27.805 28.668-65.559 28.668-65.559 1.4023-4.25 0.91406-8.8945-1.3242-12.77-2.2344-3.8711-6.0156-6.6133-10.391-7.543 0 0-38.902-8.1562-71.117-7.9336-16.359 0.10938-31.125 2.707-40.32 8.0312-4.8008 2.7695-9.5742 6.3438-14.121 10.531v-9.918c0-8.6914-7.0547-15.742-15.742-15.742-8.6914 0-15.742 7.0547-15.742 15.742v68.125zm10.66 71.398c3.0547 0.96094 6.3281 0.96094 9.3828 0 10.109-3.1484 20.781-4.832 31.805-4.832 64.188 0 115.67 56.867 115.67 126.2 0 69.336-51.484 126.22-115.67 126.22-11.02 0-21.695-1.6836-31.805-4.8477-3.0547-0.94531-6.3281-0.94531-9.3828 0-10.109 3.1641-20.781 4.8477-31.805 4.8477-64.188 0-115.67-56.883-115.67-126.22 0-69.336 51.484-126.2 115.67-126.2 11.02 0 21.695 1.6836 31.805 4.832zm20.828-59.984v-9.9805c0.41016-2.2812 1.0234-4.5977 1.7773-6.8945 4.832-14.672 16.199-29.156 28.086-36.008 7.9648-4.6133 22.625-4.2969 37.219-3.4805 12.25 0.67578 24.512 2.2656 34.055 3.7461-3.4805 9.0039-8.25 20.422-13.777 31.363-6.5977 13.051-13.648 25.898-21.617 30.512-11.887 6.8477-30.102 9.4609-45.234 6.3125-7.8711-1.6523-15.113-4.6602-18.688-10.848-0.85156-1.4961-1.4492-3.0703-1.8281-4.7227z" fill-rule="evenodd"/>
</svg>