<?xml version="1.0" encoding="UTF-8"?>
<!-- The Best Svg Icon site in the world: iconSvg.co, Visit us! https://iconsvg.co -->
<svg fill="#000000" width="800px" height="800px" version="1.1" viewBox="144 144 512 512" xmlns="http://www.w3.org/2000/svg">
 <g>
  <path d="m392.12 305.54h15.742v47.23h-15.742z"/>
  <path d="m410.17 355.07 39.359-39.359 11.133 11.133-39.359 39.359z"/>
  <path d="m423.61 368.51h47.23v15.742h-47.23z"/>
  <path d="m339.32 326.84 11.133-11.133 39.359 39.359-11.133 11.133z"/>
  <path d="m329.15 368.51h47.23v15.742h-47.23z"/>
  <path d="m281.92 368.51h31.488v15.742h-31.488z"/>
  <path d="m250.43 368.51h15.742v15.742h-15.742z"/>
  <path d="m218.94 368.51h15.742v15.742h-15.742z"/>
  <path d="m187.45 368.51h15.742v15.742h-15.742z"/>
  <path d="m299.97 287.48 11.133-11.133 23.617 23.617-11.133 11.133z"/>
  <path d="m268.48 256 11.133-11.133 15.742 15.742-11.133 11.133z"/>
  <path d="m237 224.51 11.133-11.133 15.742 15.742-11.133 11.133z"/>
  <path d="m205.5 193.02 11.133-11.133 15.742 15.742-11.133 11.133z"/>
  <path d="m392.12 258.3h15.742v31.488h-15.742z"/>
  <path d="m392.12 226.81h15.742v15.742h-15.742z"/>
  <path d="m392.12 195.32h15.742v15.742h-15.742z"/>
  <path d="m392.12 163.84h15.742v15.742h-15.742z"/>
  <path d="m465.28 299.97 23.617-23.617 11.133 11.133-23.617 23.617z"/>
  <path d="m504.64 260.61 15.742-15.742 11.133 11.133-15.742 15.742z"/>
  <path d="m536.12 229.12 15.742-15.742 11.133 11.133-15.742 15.742z"/>
  <path d="m567.61 197.63 15.742-15.742 11.133 11.133-15.742 15.742z"/>
  <path d="m486.59 368.51h31.488v15.742h-31.488z"/>
  <path d="m533.82 368.51h15.742v15.742h-15.742z"/>
  <path d="m565.31 368.51h15.742v15.742h-15.742z"/>
  <path d="m596.8 368.51h15.742v15.742h-15.742z"/>
  <path d="m431.49 596.8v-55.105h15.742v-50.492l-15.742-15.742v-11.359c-0.050781-18.801 7.418-36.84 20.75-50.098l13.996-14.004h-132.47l13.996 13.996c13.332 13.258 20.805 31.301 20.754 50.105v11.359l-15.742 15.742-0.003906 50.492h15.742v55.105h-204.67v39.359h472.32v-39.359zm-1.0156-181.05v-0.003906c-9.6445 14.281-14.777 31.129-14.73 48.359v6.7461h-31.488v-6.7461c0.046875-17.23-5.0859-34.078-14.727-48.359zm-61.961 81.977 11.129-11.133h40.715l11.133 11.133v28.227h-62.977zm15.742 43.973h31.488v55.105h-31.488zm236.16 78.719h-440.83v-7.8711h440.83z"/>
 </g>
</svg>