<?xml version="1.0" encoding="UTF-8"?>
<!-- The Best Svg Icon site in the world: iconSvg.co, Visit us! https://iconsvg.co -->
<svg fill="#000000" width="800px" height="800px" version="1.1" viewBox="144 144 512 512" xmlns="http://www.w3.org/2000/svg">
 <g>
  <path d="m515.92 268.78c-33.164-9.4922-67.191-4.1992-96.656 14.406l6.6914-60.387c0.019531-0.18359 0.03125-0.37109 0.03125-0.55469-0.003906-13.109-11.602-23.766-25.859-23.766-14.258 0-25.855 10.66-25.855 23.766 0 0.21094 0.011718 0.41797 0.039062 0.62891l1.1992 9.5547c-5.6406-9.3125-13.184-18.02-23.812-23.934-29.707-16.523-70.738-3.7891-72.469-3.2383-2.3359 0.74219-3.8008 3.0586-3.4648 5.4922 0.21484 1.5508 5.2305 35.797 30.27 53.934-7.3203 0.67187-14.66 2.0195-21.953 4.1055-30.387 8.707-54.34 27.871-69.277 55.422-19.379 35.746-21.492 83.262-5.9531 133.79 26.07 84.777 90.203 143.56 151.16 143.55 8.4727 0 16.891-1.1367 25.129-3.4961 5.0273-1.4453 10.02-3.375 14.863-5.7578 4.8438 2.3828 9.832 4.3125 14.863 5.7578 8.2422 2.3594 16.652 3.4961 25.125 3.4961 60.949 0 125.09-58.781 151.16-143.56 15.539-50.527 13.426-98.043-5.9531-133.79-14.938-27.551-38.891-46.711-69.277-55.418zm-115.79-60.227c8.6055 0 15.621 6.0039 15.777 13.434l-7.6445 68.984c-2.8008 2.1836-5.5703 4.4453-8.2617 6.8867-2.2461-2.0312-4.5352-3.9609-6.8555-5.8164l-8.793-70.09c0.17578-7.4141 7.1875-13.398 15.777-13.398zm-18.148 75.469c-5.4766-3.5469-11.113-6.6289-16.879-9.2383 6.2891-0.96875 11.625-2.2305 15.316-3.2344zm-95.383-70.336c10.766-2.6367 39.418-7.957 60.199 3.6094 17.422 9.6914 25.629 29.441 30.945 44.52-11.434 3.0625-40.629 9.1055-61.137-2.3086-20.203-11.238-27.723-35.84-30.008-45.82zm294.92 241.34c-28.098 91.359-101.62 151.18-163.88 133.34-5.1875-1.4844-10.328-3.5664-15.293-6.1797-0.73047-0.38672-1.5391-0.57812-2.3438-0.57812-0.80859 0-1.6133 0.19531-2.3477 0.58203-4.9609 2.6133-10.105 4.6953-15.289 6.1797-62.246 17.848-135.78-41.977-163.88-133.34-14.738-47.918-12.898-92.676 5.1797-126.02 13.613-25.117 35.465-42.594 63.191-50.535 38.574-11.043 78.527-0.14062 109.65 29.91 1.9531 1.8828 5.0469 1.8828 7 0 31.121-30.055 71.086-40.949 109.65-29.91 27.727 7.9414 49.578 25.418 63.191 50.535 18.074 33.344 19.91 78.102 5.1719 126.02z"/>
  <path d="m496.88 312.91c-2.6562-0.75781-5.457 0.80859-6.2148 3.4844-0.75391 2.6758 0.80469 5.4609 3.4844 6.2148 18.289 5.1523 32.645 16.52 41.508 32.879 11.621 21.445 12.715 50.223 3.0742 81.031-0.82812 2.6562 0.64844 5.4805 3.3047 6.3125 0.5 0.15625 1.0078 0.23047 1.5039 0.23047 2.1445 0 4.1328-1.3828 4.8086-3.5391 10.453-33.426 9.0938-64.98-3.8359-88.84-10.188-18.801-26.66-31.867-47.633-37.773z"/>
 </g>
</svg>