<?xml version="1.0" encoding="UTF-8"?>
<!-- The Best Svg Icon site in the world: iconSvg.co, Visit us! https://iconsvg.co -->
<svg fill="#000000" width="800px" height="800px" version="1.1" viewBox="144 144 512 512" xmlns="http://www.w3.org/2000/svg">
 <path d="m549.86 269.86c2.6953-0.6875 4.3281-3.4297 3.6445-6.125-0.67969-2.6953-3.4102-4.3086-6.1211-3.6445-25.758 6.5391-38.559 27.098-44.078 39.391-1.793-2.3828-3.8125-4.6875-6.1406-6.8438-13.348-12.359-16.141-27.73-16.715-34.453h4.5742c10.941 0 19.84-8.832 19.84-19.691v-20.324c-0.003907-10.859-8.9023-19.695-19.844-19.695h-170.05c-10.941 0-19.84 8.8359-19.84 19.695v20.324c0 10.859 8.8984 19.691 19.84 19.691h4.6758c-0.38281 6.6992-2.832 22.168-16.719 34.367-2.3984 2.1055-4.4727 4.3906-6.3086 6.7734-5.5586-12.309-18.363-32.719-44.008-39.23-2.6992-0.66797-5.4375 0.94922-6.1211 3.6445-0.68359 2.6953 0.94531 5.4375 3.6445 6.125 27.637 7.0117 38.004 34.449 39.969 40.469-6.7852 15.09-6.3008 30.266-6.2656 31.012l-0.003906 234.98c0 13.891 11.391 25.191 25.391 25.191h181.54c14.004 0 25.391-11.301 25.391-25.191l-0.003906-234.77c0.035156-0.875 0.5-15.777-6.3398-30.984 1.7383-5.4414 11.996-33.594 40.047-40.711zm-255.95 86.371h212.18v146.32h-212.18zm11.301-117.74v-20.324c0-5.3008 4.3789-9.6172 9.7617-9.6172h170.05c5.3867 0 9.7656 4.3164 9.7656 9.6172v20.324c0 5.3008-4.3789 9.6133-9.7656 9.6133l-170.05 0.003906c-5.3828 0-9.7617-4.3164-9.7617-9.6172zm4.3711 61.625c16.93-14.871 19.75-33.812 20.145-41.934h140.61c0.51562 7.9531 3.5312 26.609 19.992 41.844 16.551 15.324 15.777 40.859 15.766 41.316v4.8125l-212.18 0.003906v-5.0117c-0.011718-0.26953-0.83203-26.535 15.672-41.031zm181.19 291.33h-181.54c-8.4414 0-15.312-6.7812-15.312-15.113v-63.703h212.18l-0.003906 63.703c0 8.3359-6.8711 15.113-15.316 15.113z"/>
</svg>