<?xml version="1.0" encoding="UTF-8"?>
<!-- The Best Svg Icon site in the world: iconSvg.co, Visit us! https://iconsvg.co -->
<svg fill="#000000" width="800px" height="800px" version="1.1" viewBox="144 144 512 512" xmlns="http://www.w3.org/2000/svg">
 <path d="m283.27 598.24c-6.0547 0-11.965-0.47656-17.68-1.4414-25.086-4.2734-45.922-17.691-60.27-38.809-13.223-19.48-28.871-61.414-29.219-86.277-0.8125-58.379 24.352-69.246 59.352-83.602 8.4766-16.699 17.684-24.746 33.137-34.816 42.008-27.398 90.773-55.391 133.95-55.391h0.29297c26.016 0.078125 72.914 6.1055 94.754 45.617 20.18 36.516 24.84 78.711 12.465 112.87-12.129 33.488-47.531 63.359-84.992 94.98l-0.73047 0.61719c-15.727 13.277-33.395 15.555-57.5 18.184-25.176 17.984-55.695 28.066-83.551 28.066zm119.26-282.32c-38.449 0-84.309 26.508-124.1 52.465-13.547 8.8359-20.742 14.73-28.238 30.605-0.96484 2.0352-2.6523 3.6445-4.7266 4.4961l-2.1875 0.89844c-34.191 14.023-49.801 20.422-49.156 67.07 0.29687 20.871 14.59 59.461 26.105 76.402 11.68 17.203 27.957 27.684 48.379 31.16 28.062 4.7773 62.355-4.7266 89.488-24.797 1.2852-0.95312 2.793-1.5469 4.3906-1.7148 25.766-2.793 38.672-4.5703 50.195-14.289l0.73438-0.62109c35.582-30.023 69.191-58.391 79.672-87.348 10.637-29.344 6.4141-65.988-11.293-98.008-17.383-31.441-56.969-36.246-79.027-36.309h-0.24609zm114.38 258.67c-17.141 0-33.453-4.6484-50.43-13.984-4.3633-2.3945-5.9492-7.8789-3.5508-12.242 2.3945-4.3672 7.8789-5.9492 12.246-3.5547 27.582 15.168 52.309 15.555 85.312 1.3516 35.492-15.41 48.859-40.172 44.672-82.762-0.28125-2.9102-0.55469-5.707-0.79688-8.3945-3.3242-35.242-4.9844-52.934-38.93-97.379-0.79688-1.043-1.3633-2.2539-1.6367-3.543-12.387-56.602-67.98-102.73-102.32-119.92-55.516-27.773-99.336-4.9453-116.57 28.016-2.5234 4.8164-7.4961 16.496-10.176 29.691-0.98828 4.8828-5.7422 8.0234-10.621 7.043-4.8828-0.98828-8.0352-5.7422-7.0469-10.621 2.875-14.188 8.1914-27.426 11.863-34.457 13.418-25.684 35.246-42.191 63.125-47.754 24.688-4.9297 52.207-0.68359 77.484 11.973 31.91 15.969 95.797 63.57 111.42 130.21 35.926 47.434 37.859 68.023 41.348 105.05 0.25781 2.6758 0.51562 5.4453 0.79688 8.3281 2.293 23.242-0.21875 42.219-7.6875 58.008-8.8086 18.641-24.879 33.141-47.762 43.078-18.375 7.9062-34.91 11.887-50.738 11.887zm-263.41-11.859c-9.7852 0-15.543-4.3008-18.812-8.3789-8.2031-10.238-6.4648-27.078-1.3789-38.383 2.0352-4.5469 7.3789-6.5664 11.91-4.5312 4.5469 2.0312 6.5703 7.375 4.5352 11.906-3.1562 7.0312-3.6328 16.43-0.99219 19.727 1.8008 2.2422 6.5664 1.6602 9.2461 1.1094 4.8789-1.0039 9.6445 2.1484 10.637 7.0156 1.0039 4.8789-2.1523 9.6445-7.0195 10.637-2.9727 0.60547-5.6797 0.875-8.125 0.875zm267.53-26.844c-6.9141 0-13.934-2.1133-19.469-5.2266-4.3398-2.4336-5.8867-7.9336-3.4531-12.27 2.4336-4.3398 7.9336-5.8867 12.273-3.4531 5.4727 3.0625 12.711 3.8242 15.812 1.6367 2.6641-1.8828 3.4648-7.2773 2.1914-14.82-0.82422-4.9062 2.4844-9.5547 7.3906-10.391s9.5547 2.4844 10.391 7.3906c3.2188 19.066-3.4375 28.234-9.5781 32.562-4.5977 3.2305-10.035 4.5703-15.531 4.5703zm-133.49-13.738c-5.5 0-9.6602-1.918-12.605-4.0547-10.406-7.5742-12.969-24.09-10.934-36.219 0.82422-4.9062 5.4609-8.2305 10.379-7.4062 4.9062 0.82422 8.2266 5.4727 7.4023 10.379-1.2461 7.4414 0.55469 16.34 3.7617 18.684 2.1758 1.582 6.8516-0.54297 8.7578-1.5195 4.4141-2.293 9.8633-0.56641 12.141 3.8633 2.293 4.4141 0.57031 9.8633-3.8594 12.141-5.8359 3.0117-10.832 4.1445-15.043 4.1445zm-69.82-7.7891c-9.1055 0-14.168-4.3672-16.562-7.3672-7.0312-8.7812-5.6289-23.02-1.3398-32.547 2.0352-4.5469 7.3789-6.5664 11.914-4.5352 4.543 2.0352 6.5664 7.3789 4.5312 11.91-2.4219 5.3984-2.5508 12.016-1.0312 13.895 0.47656 0.59375 2.4102 0.90234 5.6172 0.24609 4.8789-1.0078 9.6445 2.1484 10.637 7.0156 1.0039 4.8789-2.1523 9.6445-7.0195 10.637-2.4609 0.5-4.7148 0.71875-6.7461 0.71875zm235.14-55.996c-6.918 0-13.934-2.1133-19.473-5.2148-4.3398-2.4336-5.8867-7.9336-3.4531-12.27 2.4375-4.3398 7.9336-5.8867 12.273-3.4531 5.4727 3.0664 12.711 3.8125 15.812 1.6367 2.668-1.8789 3.4648-7.2734 2.1914-14.82-0.82422-4.9062 2.4844-9.5547 7.3906-10.391 4.9062-0.82422 9.5547 2.4844 10.395 7.3906 3.2188 19.066-3.4414 28.234-9.582 32.562-4.5977 3.2305-10.031 4.5703-15.531 4.5703zm-173.68-49.238c-9.1836 0-14.285-4.4023-16.703-7.4141-7.0977-8.8594-5.668-23.266-1.3398-32.898 2.0352-4.543 7.3789-6.5664 11.91-4.5312 4.5469 2.0352 6.5703 7.375 4.5352 11.91-2.4727 5.5117-2.5898 12.297-1.0312 14.238 0.61719 0.76172 2.9492 0.89062 5.832 0.29688 4.8828-1.0039 9.6484 2.1367 10.637 7.0195 1.0078 4.8789-2.1367 9.6406-7.0156 10.633-2.4883 0.51562-4.7656 0.73438-6.8242 0.73438zm54.34-117.91c-6.9141 0-13.934-2.1094-19.469-5.2266-4.3398-2.4336-5.8867-7.9297-3.4531-12.27 2.4336-4.3398 7.9336-5.8867 12.273-3.4531 5.4727 3.0664 12.711 3.8125 15.812 1.6367 2.668-1.8789 3.4648-7.2734 2.1914-14.82-0.82422-4.9062 2.4844-9.5547 7.3906-10.391 4.9062-0.82422 9.5547 2.4844 10.391 7.3906 3.2227 19.07-3.4375 28.238-9.5781 32.562-4.5977 3.2305-10.031 4.5703-15.531 4.5703z"/>
</svg>