<?xml version="1.0" encoding="UTF-8"?>
<!-- The Best Svg Icon site in the world: iconSvg.co, Visit us! https://iconsvg.co -->
<svg fill="#000000" width="800px" height="800px" version="1.1" viewBox="144 144 512 512" xmlns="http://www.w3.org/2000/svg">
 <g>
  <path d="m564.05 297.35-157.44-125.95c-3.832-3.0703-9.2852-3.0703-13.117 0l-157.44 125.95c-2.5078 1.9805-3.9727 4.9922-3.9883 8.1875v41.984c-0.015625 4.0547 2.3086 7.7539 5.9648 9.5039s7.9961 1.2344 11.145-1.3164l17.004-13.645 17.316 173.39h-9.4453c-5.7969 0-10.496 4.6992-10.496 10.496v31.488c0 2.7852 1.1055 5.4531 3.0742 7.4219s4.6367 3.0742 7.4219 3.0742h94.465v52.48c0 2.7852 1.1055 5.4531 3.0742 7.4219s4.6367 3.0742 7.4219 3.0742h41.984c2.7812 0 5.4531-1.1055 7.4219-3.0742 1.9648-1.9688 3.0742-4.6367 3.0742-7.4219v-52.48h94.465-0.003906c2.7852 0 5.457-1.1055 7.4219-3.0742 1.9688-1.9688 3.0742-4.6367 3.0742-7.4219v-31.488c0-2.7812-1.1055-5.4531-3.0742-7.4219-1.9648-1.9648-4.6367-3.0742-7.4219-3.0742h-9.4453l17.32-173.39 17.109 13.645-0.003906 0.003906c3.0195 2.2773 7.0273 2.7578 10.496 1.2578 3.8516-1.582 6.4062-5.2852 6.5078-9.4453v-41.984c0.011718-3.1758-1.4141-6.1875-3.8828-8.1875zm-153.55 312.57h-20.992v-41.984h20.992zm104.96-62.977h-230.91v-10.496h230.91zm-20.047-31.488h-190.82l-18.895-188.93 114.3-91.523 114.3 91.527zm51.531-189.77-140.33-112.31c-3.832-3.0703-9.2852-3.0703-13.117 0l-140.44 112.31v-15.113l146.95-117.56 146.95 117.55z"/>
  <path d="m337.02 368.51c0 16.699 6.6328 32.719 18.445 44.531 11.809 11.809 27.828 18.445 44.531 18.445 16.699 0 32.719-6.6367 44.531-18.445 11.809-11.812 18.445-27.832 18.445-44.531 0-16.703-6.6367-32.723-18.445-44.531-11.812-11.812-27.832-18.445-44.531-18.445-16.703 0-32.723 6.6328-44.531 18.445-11.812 11.809-18.445 27.828-18.445 44.531zm104.96 0c0 11.133-4.4258 21.812-12.297 29.688-7.875 7.8711-18.555 12.297-29.688 12.297-11.137 0-21.816-4.4258-29.688-12.297-7.875-7.875-12.297-18.555-12.297-29.688 0-11.137 4.4219-21.816 12.297-29.688 7.8711-7.875 18.551-12.297 29.688-12.297 11.133 0 21.812 4.4219 29.688 12.297 7.8711 7.8711 12.297 18.551 12.297 29.688z"/>
  <path d="m441.98 452.48h-83.969c-5.7969 0-10.496 4.6992-10.496 10.496 0 5.7969 4.6992 10.496 10.496 10.496h83.969c5.7969 0 10.496-4.6992 10.496-10.496 0-5.7969-4.6992-10.496-10.496-10.496z"/>
 </g>
</svg>