<?xml version="1.0" encoding="UTF-8"?>
<!-- The Best Svg Icon site in the world: iconSvg.co, Visit us! https://iconsvg.co -->
<svg fill="#000000" width="800px" height="800px" version="1.1" viewBox="144 144 512 512" xmlns="http://www.w3.org/2000/svg">
 <path d="m501.51 603.01h-142.73v-30.68l17.973-17.973c2.7812 0.30859 7.5781 0.71875 13.605 0.71875 16.375 0 41.496-3.0312 57.855-19.391 25.438-25.438 18.652-72.07 18.348-74.043-0.32812-2.1758-2.043-3.8867-4.2148-4.2148-1.9648-0.29688-48.609-7.0898-74.043 18.344-22.363 22.371-19.82 61.094-18.672 71.465l-10.848 10.848v-114.72c5.0469-2.6992 9.2617-6.6367 12.145-11.527 10.84 2.8633 22.781-0.50781 31.516-9.2344 8.7383-8.7344 12.117-20.672 9.2461-31.527 9.5977-5.6602 15.582-16.41 15.582-28.621 0-12.207-5.9844-22.957-15.582-28.617 2.875-10.855-0.50781-22.785-9.2383-31.52-8.7383-8.7344-20.676-12.113-31.523-9.2383-5.6641-9.6055-16.414-15.586-28.621-15.586-12.207 0-22.957 5.9844-28.617 15.586-10.848-2.8672-22.785 0.50781-31.523 9.2383-8.7344 8.7344-12.109 20.668-9.2344 31.52-9.6055 5.6602-15.586 16.41-15.586 28.617 0 12.211 5.9844 22.961 15.586 28.621-2.875 10.855 0.5 22.789 9.2383 31.523 8.7344 8.7344 20.668 12.098 31.52 9.2383 2.8828 4.8906 7.0977 8.8242 12.145 11.523v114.72l-10.848-10.848c1.1484-10.375 3.6914-49.098-18.672-71.465-25.441-25.438-72.066-18.648-74.043-18.344-2.1758 0.32812-3.8828 2.043-4.2148 4.2148-0.30078 1.9727-7.0938 48.605 18.344 74.043 16.359 16.359 41.48 19.391 57.855 19.391 6.0273 0 10.82-0.41016 13.605-0.71875l17.973 17.973v30.68l-142.74 0.003907c-2.7812 0-5.0391 2.2539-5.0391 5.0391 0 2.7852 2.2539 5.0391 5.0391 5.0391h318.42c2.7852 0 5.0391-2.2539 5.0391-5.0391 0-2.7852-2.2539-5.0391-5.0391-5.0391zm-106.09-120.12c18.004-17.996 50.531-16.898 61.602-15.922 0.98047 11.059 2.1055 43.547-15.938 61.59-15.152 15.156-40.578 16.766-54.852 16.312l50.027-50.027c1.9688-1.9688 1.9688-5.1562 0-7.125s-5.1562-1.9688-7.125 0l-50.027 50.027c-0.44531-14.27 1.1562-39.695 16.312-54.855zm-89.922 54.855-50.023-50.023c-1.9688-1.9688-5.1562-1.9688-7.125 0s-1.9688 5.1562 0 7.125l50.031 50.035c-14.254 0.45703-39.66-1.125-54.863-16.324-17.996-17.992-16.898-50.52-15.926-61.594 11.07-0.96094 43.598-2.0664 61.594 15.926 15.16 15.16 16.762 40.582 16.312 54.855zm15.445-113.97c-0.5-1.2891-1.5039-2.3203-2.7852-2.8438-0.61328-0.25-1.2656-0.37891-1.9141-0.37891-0.70703 0-1.4102 0.14844-2.0664 0.44141-9.8516 4.4531-19.312 0.054688-24.891-5.5312-5.5781-5.5781-9.9609-15.047-5.5312-24.895 0.56641-1.2578 0.58984-2.6992 0.066406-3.9805-0.52734-1.2773-1.5547-2.2891-2.8477-2.7852-9.9961-3.8633-13.562-13.566-13.562-21.359 0-7.7891 3.5664-17.492 13.562-21.359 1.293-0.49609 2.3203-1.5039 2.8477-2.7852 0.52344-1.2773 0.5-2.7227-0.066406-3.9805-4.4297-9.8438-0.050781-19.312 5.5312-24.891 5.5781-5.5781 15.043-9.9688 24.891-5.5312 1.2578 0.5625 2.6953 0.58984 3.9805 0.066406 1.2773-0.52734 2.2891-1.5547 2.7852-2.8477 3.8633-9.9961 13.566-13.559 21.359-13.559s17.496 3.5625 21.363 13.562c0.5 1.2891 1.5039 2.3164 2.7852 2.8438 1.2812 0.52344 2.7227 0.5 3.9805-0.066406 9.8477-4.4297 19.312-0.042969 24.891 5.5312 5.5781 5.5781 9.9609 15.047 5.5312 24.891-0.56641 1.2578-0.58984 2.6992-0.066406 3.9805 0.52734 1.2773 1.5547 2.2852 2.8477 2.7852 9.9961 3.8633 13.559 13.566 13.559 21.359s-3.5625 17.496-13.559 21.359c-1.293 0.49609-2.3203 1.5039-2.8477 2.7852-0.52344 1.2773-0.5 2.7188 0.066406 3.9805 4.4297 9.8477 0.042969 19.316-5.5352 24.895-5.5781 5.582-15.039 9.9609-24.887 5.5273-1.2656-0.56641-2.6992-0.58984-3.9805-0.0625-1.2773 0.52344-2.2891 1.5547-2.7852 2.8438-3.8633 9.9961-13.57 13.559-21.359 13.559-7.793 0.003906-17.496-3.5586-21.363-13.555zm27.762 179.23h-12.801v-156.23c2.082 0.375 4.2031 0.63281 6.4023 0.63281 2.1953 0 4.3203-0.25781 6.3984-0.62891zm24.172-240.56c0-16.859-13.719-30.574-30.574-30.574-16.859 0-30.574 13.715-30.574 30.574s13.715 30.574 30.574 30.574 30.574-13.719 30.574-30.574zm-30.574 20.496c-11.301 0-20.496-9.1953-20.496-20.5 0-11.301 9.1953-20.496 20.496-20.496 11.305 0 20.5 9.1953 20.5 20.496 0 11.305-9.1953 20.5-20.5 20.5zm212.33-1.8047-3.7852 6.543c-0.92969 1.6172-2.6211 2.5156-4.3633 2.5156-0.85547 0-1.7227-0.21484-2.5195-0.67578-2.4062-1.3945-3.2344-4.4766-1.8359-6.8828l3.7852-6.543c1.3828-2.4141 4.457-3.2383 6.8828-1.8398 2.4062 1.3945 3.2344 4.4766 1.8359 6.8828zm23.566-40.723-7.8555 13.574c-0.93359 1.6133-2.6211 2.5156-4.3633 2.5156-0.85547 0-1.7227-0.21875-2.5195-0.67969-2.4062-1.3906-3.2344-4.4766-1.8359-6.8828l7.8555-13.574c1.3906-2.4102 4.457-3.2344 6.8828-1.8359 2.4062 1.3906 3.2344 4.4766 1.8359 6.8828zm23.566-40.727-7.8555 13.574c-0.93359 1.6133-2.6211 2.5156-4.3633 2.5156-0.85547 0-1.7227-0.21875-2.5195-0.67969-2.4062-1.3906-3.2344-4.4766-1.8359-6.8828l7.8555-13.574c1.3906-2.4102 4.457-3.2344 6.8828-1.8359 2.4102 1.3945 3.2344 4.4766 1.8359 6.8828zm19.5-33.695-3.7891 6.543c-0.93359 1.6133-2.6289 2.5156-4.3633 2.5156-0.85547 0-1.7266-0.21875-2.5195-0.67969-2.4102-1.3945-3.2344-4.4766-1.8359-6.8828l3.7891-6.543c1.3906-2.4141 4.4805-3.2305 6.8828-1.8359 2.4102 1.3945 3.2344 4.4805 1.8359 6.8828zm-191.93-71.898c-0.039063-2.7812 2.1797-5.0742 4.9648-5.1133l7.5586-0.11328c2.832 0.023438 5.0664 2.1836 5.1133 4.9609 0.039063 2.7812-2.1797 5.0742-4.9648 5.1133l-7.5586 0.11328h-0.074219c-2.75 0-4.9961-2.207-5.0391-4.9609zm106.77 3.4609-15.68 0.23047h-0.074219c-2.75 0-5-2.207-5.0391-4.9648-0.039063-2.7812 2.1797-5.0703 4.9648-5.1133l15.68-0.23047c2.8086 0.023437 5.0742 2.1836 5.1133 4.9648 0.035156 2.7812-2.1836 5.0703-4.9648 5.1133zm-67.844-4.0391c-0.039062-2.7812 2.1797-5.0703 4.9648-5.1133l15.684-0.23047c2.6797-0.11719 5.0742 2.1836 5.1133 4.9648 0.039063 2.7812-2.1797 5.0703-4.9648 5.1133l-15.684 0.23047h-0.074219c-2.75 0-5-2.207-5.0391-4.9648zm111.73-1.6523c0.039063 2.7812-2.1797 5.0742-4.9648 5.1133l-7.5586 0.11328h-0.074219c-2.75 0-4.9922-2.207-5.0391-4.9609-0.039062-2.7812 2.1797-5.0742 4.9648-5.1133l7.5586-0.11328c2.7344 0.042969 5.0664 2.1836 5.1133 4.9609zm5.0742 42.215c-1.4062-2.4023-0.60547-5.4844 1.7969-6.8945l6.5195-3.8242c2.4023-1.4102 5.4844-0.60156 6.8945 1.7969 1.4062 2.4023 0.60547 5.4844-1.7969 6.8945l-6.5195 3.8242c-0.80078 0.46875-1.6758 0.69141-2.543 0.69141-1.7344 0-3.4141-0.89062-4.3516-2.4883zm-67.684 39.699c1.4062 2.3984 0.60547 5.4844-1.7969 6.8945l-15.273 8.9609c-0.80078 0.46875-1.6758 0.69531-2.543 0.69531-1.7266 0-3.4141-0.89063-4.3477-2.4883-1.4062-2.3984-0.60547-5.4844 1.7969-6.8945l15.273-8.9609c2.3984-1.4141 5.4883-0.60938 6.8906 1.793zm26.211-10.332c-1.7305 0-3.4141-0.89062-4.3477-2.4883-1.4062-2.4023-0.60547-5.4844 1.7969-6.8945l15.277-8.9609c2.4023-1.4023 5.4844-0.60156 6.8945 1.7969 1.4062 2.4023 0.60547 5.4844-1.7969 6.8945l-15.277 8.9609c-0.80859 0.46875-1.6836 0.69141-2.5469 0.69141zm-87.238 46.137c-1.4062-2.4023-0.60547-5.4883 1.7969-6.8945l6.5156-3.8242c2.4023-1.4062 5.4805-0.60156 6.8945 1.793 1.4062 2.4023 0.60547 5.4883-1.7969 6.8945l-6.5156 3.8242c-0.80078 0.46875-1.6758 0.69531-2.543 0.69531-1.7305-0.003906-3.4102-0.89453-4.3516-2.4883z"/>
</svg>