<?xml version="1.0" encoding="UTF-8"?>
<!-- The Best Svg Icon site in the world: iconSvg.co, Visit us! https://iconsvg.co -->
<svg fill="#000000" width="800px" height="800px" version="1.1" viewBox="144 144 512 512" xmlns="http://www.w3.org/2000/svg">
 <g>
  <path d="m203.51 601.52h392.97c2.7852 0 5.0391-2.2539 5.0391-5.0391s-2.2539-5.0391-5.0391-5.0391h-9.9297c-1.8477-22.5-19.559-40.57-41.914-42.914v-8.332c8.6797-0.0625 25.977-1.7227 37.629-13.039 15.75-15.281 14.223-41.477 14.148-42.582-0.16406-2.4648-2.0859-4.4492-4.5469-4.6836-1.1055-0.12109-27.246-2.4219-42.992 12.859-4.0039 3.8867-6.8828 8.4805-8.9609 13.188-1.918-4.4961-4.5547-8.8906-8.2344-12.68-15.293-15.754-41.484-14.203-42.582-14.145-2.4648 0.16406-4.4492 2.0859-4.6836 4.5469-0.10938 1.1055-2.4219 27.242 12.859 42.992 11.328 11.68 28.625 13.848 37.285 14.16v7.7461c-22.262 2.4297-39.875 20.449-41.715 42.883h-46.656c-1.8477-22.5-19.559-40.57-41.914-42.914v-8.332c8.6797-0.0625 25.977-1.7227 37.629-13.039 15.75-15.281 14.219-41.477 14.145-42.582-0.16406-2.4648-2.0898-4.4492-4.5469-4.6836-1.1055-0.11719-27.242-2.4258-42.992 12.859-4.0039 3.8867-6.8828 8.4805-8.9609 13.188-1.9141-4.5-4.5547-8.8906-8.2305-12.68-15.293-15.754-41.484-14.203-42.582-14.145-2.4648 0.16406-4.4492 2.0859-4.6836 4.5469-0.10938 1.1055-2.4219 27.242 12.859 42.992 11.328 11.68 28.625 13.848 37.285 14.16v7.7461c-22.262 2.4297-39.875 20.449-41.715 42.883h-46.656c-1.8477-22.5-19.559-40.57-41.914-42.914v-8.332c8.6797-0.0625 25.977-1.7227 37.629-13.039 15.75-15.281 14.219-41.477 14.145-42.582-0.16406-2.4648-2.0898-4.4492-4.5469-4.6836-1.1055-0.11719-27.242-2.4258-42.992 12.859-4.0039 3.8867-6.8828 8.4805-8.9609 13.188-1.9141-4.5-4.5547-8.8906-8.2305-12.68-15.293-15.754-41.492-14.203-42.586-14.145-2.4648 0.16406-4.4492 2.0859-4.6836 4.5469-0.10938 1.1055-2.4219 27.242 12.867 42.992 11.328 11.68 28.625 13.848 37.285 14.16v7.7461c-22.262 2.4297-39.875 20.449-41.719 42.883h-8.6094c-2.7852 0-5.0391 2.2539-5.0391 5.0391 0.003906 2.7852 2.2539 5.0391 5.0391 5.0391zm352.39-101.54c8.9648-8.7031 23.207-10.086 30.461-10.184-0.30078 7.2344-2.0977 21.383-11.105 30.125-8.9648 8.707-23.207 10.09-30.461 10.188 0.30078-7.2305 2.0977-21.387 11.105-30.129zm-51.383 19.648c-8.7031-8.9688-10.086-23.211-10.184-30.461 7.2344 0.30078 21.383 2.0977 30.125 11.098 7.918 8.1562 9.7656 20.617 10.109 28.27v2.1758c-7.2695-0.32031-21.383-2.1445-30.051-11.082zm35.188 38.707c19.082 0 34.824 14.527 36.77 33.102h-73.539c1.9414-18.574 17.688-33.102 36.77-33.102zm-124.17-58.355c8.9648-8.6992 23.199-10.086 30.449-10.184-0.31641 7.2461-2.1289 21.43-11.09 30.125-8.9688 8.7031-23.211 10.09-30.461 10.188 0.30078-7.2305 2.0938-21.387 11.102-30.129zm-51.379 19.648c-8.7031-8.9688-10.086-23.211-10.184-30.461 7.2344 0.30078 21.383 2.0977 30.125 11.098 7.9648 8.207 9.7812 20.766 10.109 28.406v2.0391c-7.2695-0.32031-21.383-2.1484-30.051-11.082zm35.188 38.707c19.082 0 34.824 14.527 36.77 33.102h-73.539c1.9414-18.574 17.688-33.102 36.77-33.102zm-124.17-58.355c8.9648-8.6992 23.199-10.086 30.449-10.184-0.31641 7.2461-2.1289 21.43-11.09 30.125-8.9688 8.7031-23.211 10.09-30.461 10.188 0.30078-7.2305 2.0938-21.387 11.102-30.129zm-51.379 19.648c-8.7031-8.9688-10.09-23.211-10.188-30.461 7.2344 0.30078 21.387 2.0898 30.129 11.098 7.9648 8.207 9.7812 20.766 10.109 28.406v2.0391c-7.2695-0.32031-21.383-2.1484-30.051-11.082zm35.188 38.707c19.082 0 34.824 14.527 36.77 33.102h-73.539c1.9453-18.574 17.688-33.102 36.77-33.102z"/>
  <path d="m515.98 286.05c1.8945-1.2305 2.7344-3.5625 2.0664-5.7188-0.67578-2.1562-2.7695-3.625-4.9453-3.543-13.613 0.36719-26.32-5.8164-33.949-16.5-7.0391-9.8828-8.6641-21.992-4.4531-33.23 0.78125-2.082 0.10156-4.4336-1.6719-5.7812-1.7773-1.3398-4.2148-1.3594-6.0156-0.054688-10.66 7.7891-24.629 9.9141-37.332 5.7188-12.184-4.0312-21.246-13.047-24.871-24.738-0.65625-2.1094-2.6055-3.5469-4.8125-3.5469-2.2109 0-4.1562 1.4375-4.8125 3.5469-3.625 11.691-12.688 20.707-24.871 24.738-12.719 4.2031-26.672 2.0703-37.332-5.7188-1.7969-1.3047-4.2422-1.2852-6.0156 0.054688-1.7773 1.3477-2.457 3.6992-1.6719 5.7812 4.2109 11.238 2.5898 23.344-4.4531 33.23-7.6211 10.691-20.402 16.934-33.949 16.5-2.3164-0.082031-4.2695 1.3867-4.9453 3.543-0.66797 2.1562 0.17188 4.4883 2.0664 5.7188 10.867 7.0742 17.102 18.27 17.102 30.719 0 12.449-6.2344 23.645-17.102 30.715-1.8945 1.2305-2.7344 3.5625-2.0664 5.7188 0.67578 2.1484 2.6211 3.5234 4.9453 3.543 13.555-0.43359 26.32 5.8086 33.949 16.5 7.0391 9.8789 8.6641 21.992 4.4531 33.23-0.78125 2.082-0.097656 4.4336 1.6719 5.7812 1.7773 1.3438 4.2227 1.3633 6.0156 0.054687 10.652-7.7891 24.605-9.9297 37.34-5.7188 12.176 4.0312 21.238 13.043 24.867 24.734 0.64844 2.1133 2.5977 3.5508 4.8086 3.5508s4.1562-1.4375 4.8125-3.5469c3.625-11.691 12.688-20.703 24.867-24.734 12.727-4.2109 26.68-2.0703 37.34 5.7188 1.8008 1.3086 4.2422 1.2891 6.0156-0.054687 1.7695-1.3477 2.457-3.6992 1.6719-5.7812-4.2109-11.238-2.5898-23.352 4.4531-33.23 7.625-10.691 20.398-16.84 33.949-16.5 2.1797-0.019531 4.2695-1.3906 4.9453-3.543 0.66797-2.1562-0.17188-4.4883-2.0664-5.7188-10.867-7.0703-17.102-18.27-17.102-30.715-0.003907-12.453 6.2266-23.645 17.098-30.723zm-27.18 30.723c0 11.551 4.3984 22.543 12.145 31.059-12.09 2.6133-22.812 9.4922-29.992 19.566-6.6172 9.2852-9.4961 20.113-8.4297 30.918-11.262-4.6758-24.082-5.2266-36.016-1.2852-11.395 3.7695-20.633 11.062-26.512 20.664-5.8789-9.6055-15.121-16.895-26.516-20.664-5.332-1.7617-10.84-2.6289-16.305-2.6289-6.7656 0-13.477 1.3242-19.711 3.9102 1.0664-10.805-1.8125-21.633-8.4297-30.918-7.1797-10.078-17.902-16.953-29.992-19.566 7.7422-8.5156 12.145-19.508 12.145-31.059 0-11.559-4.3984-22.547-12.145-31.066 12.09-2.6133 22.812-9.4961 29.992-19.57 6.6172-9.2773 9.4961-20.109 8.4297-30.914 11.273 4.6797 24.078 5.2305 36.016 1.2852 11.395-3.7656 20.633-11.059 26.516-20.664 5.8789 9.6094 15.121 16.898 26.516 20.668 11.941 3.9453 24.754 3.3945 36.016-1.2852-1.0664 10.805 1.8125 21.633 8.4297 30.914 7.1797 10.078 17.902 16.961 29.992 19.57-7.75 8.5156-12.148 19.508-12.148 31.066z"/>
  <path d="m400 253.52c-34.879 0-63.258 28.379-63.258 63.258 0 34.883 28.379 63.262 63.258 63.262s63.258-28.379 63.258-63.262c-0.003906-34.879-28.383-63.258-63.258-63.258zm0 116.44c-29.324 0-53.18-23.855-53.18-53.184 0-29.324 23.855-53.18 53.18-53.18s53.18 23.855 53.18 53.18c0 29.328-23.859 53.184-53.18 53.184z"/>
 </g>
</svg>