<?xml version="1.0" encoding="UTF-8"?>
<!-- The Best Svg Icon site in the world: iconSvg.co, Visit us! https://iconsvg.co -->
<svg fill="#000000" width="800px" height="800px" version="1.1" viewBox="144 144 512 512" xmlns="http://www.w3.org/2000/svg">
 <path d="m478.72 541.7c-28.238 0.027344-54.688 13.84-70.848 37v-65.23l21.395-21.363 38.25 15.84 15.492-37.383 0.32422 0.32422 42.617-0.003906v-41.832l38.613-15.988-16.312-39.359-0.42578-0.17188 28.617-28.633-29.234-29.277 15.848-38.242-37.383-15.492 0.27734-0.32031v-42.621h-41.789l-15.996-38.613-39.359 16.312-0.17188 0.42578-28.633-28.617-29.27 29.238-38.25-15.809-15.492 37.387-0.32422-0.32422h-42.617v41.801l-38.613 15.988 16.312 39.359 0.42578 0.17188-28.617 28.633 29.238 29.277-15.848 38.25 37.383 15.492-0.28125 0.3125v42.621h41.793l15.996 38.613 39.359-16.312 0.17188-0.42578 20.758 20.742v65.23c-16.16-23.16-42.605-36.973-70.848-37h-102.34v7.8711c0.027344 22.957 9.1562 44.969 25.391 61.203s38.246 25.363 61.203 25.391h188.93c22.961-0.027344 44.969-9.1562 61.203-25.391 16.234-16.234 25.367-38.246 25.391-61.203v-7.8711zm-173.18 78.719c-17.422-0.019531-34.227-6.4492-47.215-18.062-12.984-11.617-21.242-27.602-23.203-44.914h86.16c17.422 0.023438 34.227 6.4531 47.215 18.066 12.984 11.613 21.242 27.602 23.203 44.91zm106.51-189.87c-1.9922 0.28516-3.7852 0.45703-5.5508 0.61328-1.7617 0.15625-3.7695 0.26953-5.6836 0.29297h-0.96094c-2.4102 0-4.7852-0.16406-7.1484-0.36328-1.9062-0.1875-3.8633-0.43359-6.0156-0.78906l-4.2812-0.66797-4.0625-1.0469h0.003906c-8-2.0664-15.656-5.2734-22.734-9.5234-1.3008-0.78906-2.6289-1.5117-3.8828-2.3633l-0.92187-0.67578c-0.73047-0.50391-1.418-1.0625-2.125-1.5742-9.1914-6.8164-16.949-15.375-22.828-25.191-5.9414-9.8828-9.8359-20.859-11.453-32.277v-0.070312c-0.27734-1.9766-0.45703-3.7461-0.60547-5.5117-0.22266-2.1016-0.38672-4.2812-0.38672-6.5s0.16406-4.6055 0.34766-6.8789c0.1875-2.0312 0.43359-4.1406 0.78906-6.4453l0.65234-4.2188c0.29297-1.4258 0.71484-2.8008 1.0781-4.1953v-0.003906c2.0703-7.9805 5.2812-15.621 9.5312-22.688 0.78906-1.3086 1.5273-2.6445 2.3633-3.9375l0.28516-0.38672c0.62109-0.90625 1.3242-1.7539 1.9766-2.6367h-0.003907c6.793-9.1836 15.332-16.941 25.129-22.828 7.0859-4.2656 14.758-7.4844 22.773-9.5469l4.2422-1.0938c1.5742-0.32422 3.1484-0.49609 4.7227-0.72266l0.60547-0.085938c1.9531-0.27734 3.707-0.45703 5.4414-0.61328 2.1016-0.15625 4.2031-0.31641 6.3438-0.32422h0.30078c2.4648 0 4.8945 0.16406 7.3047 0.37109 1.8906 0.1875 3.832 0.43359 5.9531 0.78906l4.2812 0.66797 4.0625 1.0469-0.003907-0.003906c8.0156 2.0625 15.688 5.2812 22.773 9.5469 1.2812 0.78906 2.6055 1.5039 3.8398 2.3633l0.92188 0.67578c0.73047 0.50391 1.418 1.0625 2.125 1.5742h0.003906c9.1914 6.8125 16.949 15.375 22.828 25.191 5.9414 9.8828 9.8359 20.859 11.453 32.277v0.070313c0.27734 1.9766 0.45703 3.7461 0.60547 5.5117 0.16406 2.1797 0.33203 4.3594 0.33203 6.582 0 2.2188-0.16406 4.6055-0.34766 6.8789-0.1875 2.0312-0.43359 4.1406-0.78906 6.4453l-0.65234 4.2188c-0.29297 1.4258-0.71484 2.8008-1.0781 4.1953-2.0703 7.9805-5.2812 15.621-9.5312 22.688-0.78906 1.3086-1.5273 2.6445-2.3633 3.9375l-0.28516 0.38672c-0.62109 0.90625-1.3242 1.7539-1.9766 2.6367h0.003906c-6.8125 9.1914-15.375 16.949-25.191 22.828-7.0781 4.25-14.734 7.4609-22.734 9.5234l-4.2422 1.0938c-1.5742 0.32422-3.1484 0.49609-4.7227 0.72266zm55.473 36.211-8.4766 20.586-20.57-8.5156-6.9805-16.77v-19.832c5.625-1.8203 11.082-4.1328 16.309-6.9023l11.43 11.43zm42.691-11.652h-20.355l-17.277-17.27-6.2969-15.129c0.125-0.10938 0.24219-0.23438 0.37109-0.34766h-0.003907c4.3594-3.7266 8.3984-7.8125 12.082-12.211l11.668 4.832 19.812 19.77zm14.957-42.777-25.836-10.699-8.9336-8.9336c2.7812-5.2227 5.1016-10.68 6.9336-16.309h16.305l22.551 9.3516 7.793 18.805zm13.273-51.688h-21.672l-14.91-6.1719c0.29297-3.1484 0.48828-6.3359 0.48828-9.5742 0-2.6055-0.125-5.2734-0.38672-8.1484l18.332-7.5938h18.145l15.742 15.742zm-16.531-83.27 20.535 8.4883-8.5156 20.562-16.77 6.9883h-19.828c-1.8242-5.6289-4.1367-11.086-6.9102-16.312l11.43-11.43zm-11.699-42.68v20.355l-17.277 17.27-15.121 6.2969c-0.16406-0.1875-0.34766-0.36328-0.51172-0.55078l-0.003906 0.003906c-3.6836-4.293-7.7148-8.2734-12.051-11.902l4.832-11.668 19.777-19.805zm-50.562-33.789 7.7852 18.832-10.699 25.836-8.9336 8.9336c-5.2227-2.7812-10.684-5.1016-16.309-6.9336v-16.305l9.3438-22.555zm-75.391 5.5586 15.742-15.742 15.742 15.742v21.672l-6.1797 14.918c-3.1484-0.29297-6.2969-0.48828-9.5664-0.48828-2.6211 0-5.2891 0.125-8.1484 0.38672l-7.5898-18.344zm-51.781 16.531 8.4844-20.539 20.57 8.5156 6.9844 16.77v19.832c-5.6289 1.8242-11.086 4.1367-16.312 6.9102l-11.43-11.43zm-42.684 11.699h20.355l17.277 17.27 6.2969 15.129c-0.125 0.10937-0.24219 0.23437-0.37109 0.34766h0.007813c-4.3633 3.7266-8.4023 7.8125-12.086 12.211l-11.703-4.8125-19.777-19.789zm-14.957 42.777 25.836 10.699 8.9336 8.9336 0.003907-0.003906c-2.7852 5.2266-5.1055 10.684-6.9375 16.312h-16.301l-22.555-9.3516-7.793-18.805zm-13.27 51.684h21.672l14.91 6.1719c-0.29297 3.1484-0.48828 6.3359-0.48828 9.5742 0 2.6055 0.125 5.2734 0.38672 8.1484l-18.336 7.5938h-18.145l-15.742-15.742zm16.531 83.27-20.539-8.4844 8.5156-20.57 16.77-6.9805h19.828c1.8242 5.6289 4.1367 11.086 6.9141 16.309l-11.43 11.43zm11.695 42.684v-20.355l17.277-17.27 15.121-6.2969c0.16406 0.1875 0.34766 0.36328 0.51172 0.55078l0.003906-0.003907c3.6836 4.293 7.7148 8.2734 12.051 11.902l-4.8164 11.699-19.789 19.773zm50.562 33.785-7.7852-18.828 10.699-25.836 8.9336-8.9336c5.2266 2.7812 10.684 5.1016 16.312 6.9336v16.305l-9.3516 22.555zm43.902-27.227 6.1797-14.918c1.2734 0.11719 2.5742 0.125 3.8555 0.19531 1.8203 0.11719 3.6758 0.26953 5.4492 0.27734l0.26172 0.015625c1.2656 0 2.5039-0.14062 3.7617-0.1875 1.457-0.0625 2.8516-0.054688 4.3828-0.19531l7.5977 18.34v18.105l-15.742 15.742-15.742-15.742zm110.21 158.75h-86.156c1.957-17.309 10.215-33.297 23.203-44.91 12.984-11.613 29.789-18.043 47.211-18.066h86.16c-1.957 17.312-10.219 33.297-23.203 44.914-12.988 11.613-29.793 18.043-47.215 18.062z"/>
</svg>