<?xml version="1.0" encoding="UTF-8"?>
<!-- The Best Svg Icon site in the world: iconSvg.co, Visit us! https://iconsvg.co -->
<svg fill="#000000" width="800px" height="800px" version="1.1" viewBox="144 144 512 512" xmlns="http://www.w3.org/2000/svg">
 <g>
  <path d="m626.4 425.19h-103.28v-64.551c0-49.438-39.988-89.426-89.109-89.426h-97.301c-49.121 0-89.109 39.988-89.109 89.426v64.551h-74c-5.3516 0-9.7617 4.4102-9.7617 9.7617 0 5.3516 4.4102 9.7617 9.7617 9.7617h324.96l-9.7617 22.355h-315.2c-5.3516 0-9.7617 4.4102-9.7617 9.7617s4.4102 9.7617 9.7617 9.7617h307.01l-9.7617 22.355-297.25 0.003907c-5.3516 0-9.7617 4.4102-9.7617 9.7617 0 5.3516 4.4102 9.7617 9.7617 9.7617h303.86c0.94531 0 1.5742 0 2.5195-0.31641 0.31641 0 0.31641 0 0.62891-0.31641 0.62891-0.31641 1.2578-0.62891 1.8906-0.94531h0.31641c0.62891-0.31641 1.2578-0.94531 1.8906-1.5742 0 0 0.31641-0.31641 0.31641-0.62891 0.62891-0.62891 0.94531-1.2578 1.2578-2.2031l33.375-77.777h18.578l-19.523 71.477c-1.2578 5.0391 1.5742 10.391 6.9258 11.965 0.94531 0.31641 1.5742 0.31641 2.5195 0.31641 4.4102 0 8.1875-2.832 9.4453-7.2422l20.781-76.832h19.207l-9.7617 72.738c-0.62891 5.3516 3.1484 10.078 8.5 11.02h1.2578c4.7227 0 9.1328-3.4648 9.7617-8.5l10.078-75.57h29.285c5.3516 0 9.7617-4.4102 9.7617-9.7617-0.30859-4.7227-4.7188-9.1328-10.07-9.1328zm-268.91 0h-41.25v-40.934h41.562l0.003907 40.934zm20.469 0h-0.94531v-50.695c0-5.3516-4.4102-9.7617-9.7617-9.7617h-60.77c-5.3516 0-9.7617 4.4102-9.7617 9.7617v50.695h-29.285v-64.551c0-38.73 31.172-69.902 69.59-69.902 38.414 0 69.273 31.488 69.273 69.902v64.551zm47.863-54.789h77.777l-0.003906 54.789h-77.773zm8.1836-79.664c34.953 0 63.922 26.137 68.645 60.141l-77.461 0.003906c-2.5195-24.246-15.113-45.656-33.062-60.141z"/>
  <path d="m348.67 316.55h-21.727c-5.3516 0-9.7617 4.4102-9.7617 9.7617 0 5.3516 4.4102 9.7617 9.7617 9.7617h21.727c5.3516 0 9.7617-4.4102 9.7617-9.7617 0-5.3516-4.4062-9.7617-9.7617-9.7617z"/>
 </g>
</svg>