<?xml version="1.0" encoding="UTF-8"?>
<!-- The Best Svg Icon site in the world: iconSvg.co, Visit us! https://iconsvg.co -->
<svg fill="#000000" width="800px" height="800px" version="1.1" viewBox="144 144 512 512" xmlns="http://www.w3.org/2000/svg">
 <g>
  <path d="m612.54 321.28c-14.609 0.019531-28.617 5.8281-38.945 16.16-10.332 10.328-16.141 24.336-16.16 38.945v9.4453c-1.9531-5.125-4.9609-9.7773-8.832-13.664l-78.719-78.719v-0.003906c-2.0469-2.0195-4.3086-3.8086-6.7461-5.3359 0.43359-10.117 4.7461-19.676 12.047-26.691 7.3008-7.0156 17.023-10.949 27.148-10.984v-15.742h-188.93c-14.289 0.015625-28.016 5.582-38.277 15.527-10.262 9.9414-16.262 23.484-16.73 37.766-2.5391 1.5664-4.8867 3.4141-7.0078 5.5078l-78.719 78.719v0.003907c-7.3789 7.3789-11.527 17.391-11.527 27.828s4.1484 20.445 11.527 27.828l78.719 78.719c2.1211 2.0938 4.4688 3.9453 7.0078 5.5117 0.48828 14.266 6.4961 27.789 16.758 37.715s23.973 15.484 38.25 15.5h47.23v-15.746c-9.0703-0.007812-17.859-3.1484-24.887-8.8828-7.0234-5.7344-11.859-13.719-13.684-22.605h119.99c3.0469-0.03125 6.0781-0.41797 9.0391-1.1484 1.207 0.73828 2.5898 1.1367 4.0039 1.1484h31.488c10.445 0.027344 20.469-4.125 27.836-11.531l22.262-22.262c2.25-2.2539 2.9258-5.6367 1.707-8.5781-1.2188-2.9414-4.0898-4.8594-7.2734-4.8594h-25.527l43.02-43.02v-0.003906c3.8672-3.8828 6.875-8.5352 8.8242-13.656v9.4453c0.019531 14.609 5.8281 28.617 16.16 38.949 10.328 10.328 24.336 16.141 38.945 16.156h23.617v-157.44zm-148.74-70.848c-8.6523 8.4492-14.281 19.516-16.012 31.488h-31.258c0-0.14062 0.09375-0.26953 0.125-0.41016 0.48438-2.2422 1.168-4.4336 2.0391-6.5547 0.30859-0.74609 0.71484-1.4336 1.0703-2.1562v-0.003906c0.67578-1.4453 1.4375-2.8477 2.2812-4.2031 0.50391-0.78906 1.0703-1.4961 1.6289-2.2344 0.87109-1.1797 1.8047-2.3086 2.7969-3.3867 0.65234-0.69922 1.3477-1.3555 2.0547-2.0078 1.0547-0.97266 2.1641-1.8867 3.3203-2.7383 0.78906-0.56641 1.5742-1.125 2.3633-1.6445 1.2539-0.77734 2.5547-1.4805 3.8867-2.1094 0.83594-0.40234 1.6523-0.83594 2.5195-1.1797 1.5312-0.58594 3.0938-1.0703 4.6836-1.457 0.78906-0.20312 1.5273-0.47266 2.3633-0.62891 2.4492-0.49609 4.9414-0.75391 7.4375-0.77344zm-47.23 0c-0.054687 0.054687-0.09375 0.11719-0.14844 0.17187h-0.003906c-1.832 1.832-3.5312 3.7891-5.0898 5.8594-0.32422 0.42578-0.64453 0.85156-0.96094 1.2812-1.5078 2.0859-2.8633 4.2734-4.0625 6.5508-0.20313 0.38672-0.37891 0.78906-0.56641 1.1797-1.1406 2.293-2.1133 4.6602-2.9219 7.0859-0.070312 0.21094-0.16406 0.41016-0.22656 0.62109-0.80078 2.5742-1.4102 5.207-1.8203 7.8711-0.046875 0.30078-0.15625 0.57422-0.20312 0.875h-31.27c0-0.14062 0.09375-0.26953 0.125-0.41016 0.48828-2.2422 1.168-4.4336 2.0391-6.5547 0.30859-0.74609 0.71484-1.4336 1.0703-2.1562v-0.003907c0.67578-1.4453 1.4375-2.8477 2.2852-4.2031 0.50391-0.78906 1.0703-1.4961 1.6289-2.2344 0.86719-1.1797 1.8008-2.3086 2.793-3.3867 0.65234-0.69922 1.3477-1.3555 2.0547-2.0078 1.0586-0.97266 2.168-1.8867 3.3242-2.7383 0.78906-0.56641 1.5742-1.125 2.3633-1.6445h-0.003907c1.2578-0.77734 2.5547-1.4805 3.8906-2.1094 0.83594-0.40234 1.6523-0.83594 2.5195-1.1797 1.5273-0.58594 3.0938-1.0703 4.6836-1.457 0.78906-0.20312 1.5273-0.47266 2.3633-0.62891h-0.003906c2.4492-0.49609 4.9414-0.75781 7.4414-0.78125zm-47.23 0c-0.054688 0.054687-0.09375 0.11719-0.14844 0.17187h-0.003906c-1.832 1.832-3.5352 3.7891-5.0938 5.8594-0.32422 0.42578-0.64453 0.85156-0.96094 1.2812-1.5039 2.0859-2.8633 4.2734-4.0625 6.5508-0.20312 0.38672-0.37891 0.78906-0.56641 1.1797-1.1367 2.293-2.1133 4.6602-2.918 7.0859-0.070313 0.21094-0.16406 0.41016-0.22656 0.62109h-0.003906c-0.79688 2.5742-1.4062 5.207-1.8164 7.8711-0.046874 0.30078-0.15625 0.57422-0.20312 0.875h-31.27c0-0.14062 0.09375-0.26953 0.125-0.41016 0.48438-2.2422 1.168-4.4336 2.0391-6.5547 0.30859-0.74609 0.71484-1.4336 1.0703-2.1562v-0.003907c0.67578-1.4453 1.4375-2.8477 2.2812-4.2031 0.50391-0.78906 1.0703-1.4961 1.6289-2.2344h0.003906c0.86719-1.1797 1.8008-2.3086 2.793-3.3867 0.65234-0.69922 1.3477-1.3555 2.0547-2.0078 1.0586-0.97266 2.1641-1.8867 3.3203-2.7383 0.78906-0.56641 1.5742-1.125 2.3633-1.6445 1.2539-0.77734 2.5547-1.4805 3.8906-2.1094 0.83594-0.40234 1.6523-0.83594 2.5195-1.1797h-0.003906c1.5312-0.58594 3.0938-1.0703 4.6836-1.457 0.78906-0.20312 1.5273-0.47266 2.3633-0.62891 2.4492-0.49609 4.9414-0.75781 7.4375-0.78125zm-94.465 31.488h-0.003906c1.8281-8.8789 6.6562-16.855 13.672-22.59 7.0195-5.7344 15.801-8.8789 24.863-8.8984h8.6992c-0.054688 0.054687-0.09375 0.11719-0.14844 0.17187-1.8359 1.832-3.5352 3.7891-5.0938 5.8594-0.32422 0.42578-0.64453 0.85156-0.96094 1.2812-1.5039 2.0859-2.8633 4.2734-4.0625 6.5508-0.20312 0.38672-0.37891 0.78906-0.56641 1.1797-1.1367 2.293-2.1133 4.6602-2.9219 7.0859-0.070312 0.21094-0.16406 0.41016-0.22656 0.62109-0.80078 2.5742-1.4062 5.207-1.8203 7.8711-0.046876 0.30078-0.15625 0.57422-0.20313 0.875h-31.27zm-55.562 170.3c9.1094-3.3086 16.98-9.3359 22.547-17.27 5.5664-7.9297 8.5586-17.383 8.5703-27.074h-15.742c-0.023438 7.8164-2.9609 15.34-8.2383 21.109-5.2734 5.7656-12.508 9.3594-20.293 10.078l-22.355-22.363c-4.4258-4.4297-6.9141-10.434-6.9141-16.695s2.4883-12.27 6.9141-16.699l78.719-78.719h0.003907c4.4375-4.4141 10.434-6.9023 16.695-6.918h26.316v204.67h-26.316c-6.2617-0.019532-12.258-2.5078-16.695-6.9219zm101.96-44.344h46.445c-1.8281 8.8828-6.6602 16.867-13.688 22.602-7.0273 5.7383-15.816 8.875-24.887 8.8867h-7.8711zm-7.8711 141.7c-9.0703-0.011718-17.859-3.1484-24.887-8.8828-7.0234-5.7383-11.859-13.719-13.688-22.605h31.262c1.7305 11.973 7.3555 23.039 16.012 31.488zm189.89-54.152c-4.4219 4.4453-10.438 6.9336-16.707 6.9219h-12.484l15.742-15.742h22.27zm34.188-78.719-78.719 78.719h-0.003906c-4.4375 4.418-10.441 6.9062-16.703 6.9219h-120.78v-47.234h7.8711c14.609-0.015624 28.617-5.8281 38.949-16.156 10.328-10.332 16.141-24.336 16.156-38.945v-7.875h-62.977v-94.461h120.78c6.2578 0.015626 12.258 2.5039 16.695 6.918l78.719 78.719h0.003906c4.4258 4.4297 6.9141 10.438 6.9141 16.699s-2.4883 12.266-6.9141 16.695zm82.93 46.281h-7.8711c-10.434-0.015624-20.438-4.1641-27.816-11.543-7.3789-7.3789-11.531-17.383-11.543-27.82v-47.23c0.011718-10.434 4.1641-20.441 11.543-27.82 7.3789-7.375 17.383-11.527 27.816-11.539h7.8711z"/>
  <path d="m289.79 352.77c0-6.2617-2.4883-12.27-6.9141-16.699-4.4297-4.4297-10.438-6.918-16.699-6.918-6.2656 0-12.273 2.4883-16.699 6.918-4.4297 4.4297-6.918 10.438-6.918 16.699 0 6.2656 2.4883 12.27 6.918 16.699 4.4258 4.4297 10.434 6.918 16.699 6.918 6.2617 0 12.27-2.4883 16.699-6.918 4.4258-4.4297 6.9141-10.434 6.9141-16.699zm-31.488 0c0-3.1836 1.918-6.0547 4.8594-7.2734s6.3281-0.54297 8.582 1.707c2.25 2.2539 2.9219 5.6367 1.7031 8.5781s-4.0859 4.8594-7.2695 4.8594c-4.3477 0-7.875-3.5234-7.875-7.8711z"/>
  <path d="m337.02 313.41h15.742v15.742h-15.742z"/>
  <path d="m368.51 337.02h15.742v15.742h-15.742z"/>
  <path d="m400 313.41h15.742v15.742h-15.742z"/>
  <path d="m431.49 337.02h15.742v15.742h-15.742z"/>
 </g>
</svg>