<?xml version="1.0" encoding="UTF-8"?>
<!-- The Best Svg Icon site in the world: iconSvg.co, Visit us! https://iconsvg.co -->
<svg width="800px" height="800px" version="1.1" viewBox="144 144 512 512" xmlns="http://www.w3.org/2000/svg">
 <defs>
  <clipPath id="a">
   <path d="m289 148.09h221v503.81h-221z"/>
  </clipPath>
 </defs>
 <g clip-path="url(#a)">
  <path d="m400 148.09c33.77 0 71.398 91.629 71.398 223.09 0 12.988-0.39453 25.977-1.1016 38.809-24.324 74.707-54.238 112.25-67.07 125.95-33.707-45.711-58.953-97.086-74.547-151.7v-13.227c-0.16016-131.3 37.469-222.93 71.32-222.93zm42.902 449.41c-3.5859 1.293-5.9766 4.6914-5.9844 8.5v45.109c0 0.20703-0.082031 0.40625-0.23047 0.55469s-0.34766 0.23047-0.55469 0.23047h-67.621c-0.4375 0-0.78906-0.35156-0.78906-0.78516v-45.109c0.019532-4.2422-2.9336-7.9219-7.0859-8.8164-72.66-13.934-76.203-170.66-67.07-282.05 27.078 156.1 98.637 236.16 102.34 239.78l0.003906 0.003906c3.1562 3.4453 8.4297 3.8906 12.121 1.0195 2.9922-2.4414 66.914-54.555 98.715-215.7 7.2422 86.281 8.3438 231.91-63.918 257.26z"/>
 </g>
</svg>