<?xml version="1.0" encoding="UTF-8"?>
<!-- The Best Svg Icon site in the world: iconSvg.co, Visit us! https://iconsvg.co -->
<svg fill="#000000" width="800px" height="800px" version="1.1" viewBox="144 144 512 512" xmlns="http://www.w3.org/2000/svg">
 <g>
  <path d="m601.52 355.29c-17.004-19.836-41.562-31.172-67.699-31.172-0.31641-14.801-9.1328-27.711-22.043-33.691 0.31641-1.5742 0.31641-3.4648 0.31641-5.0391 0-28.023-22.984-51.012-51.012-51.012-1.8906 0-3.4648 0-5.3516 0.31641-11.336-19.84-32.434-32.121-55.734-32.121s-44.398 12.281-56.047 31.805c-1.8906-0.31641-3.4648-0.31641-5.3516-0.31641-28.023 0-51.012 22.984-51.012 51.012 0 1.5742 0 3.4648 0.31641 5.0391-12.91 5.9844-21.41 18.895-22.043 33.691-26.137 0-50.695 11.336-67.699 31.172-8.1875 9.7617-8.5 23.93-0.31641 33.691 14.168 17.32 34.008 28.34 55.734 31.805-1.2578 5.668-1.5742 11.965-0.62891 17.949 0.94531 6.2969 3.1484 11.965 6.2969 17.32-11.336 13.855-16.375 32.117-13.539 50.383 2.5195 17.004 11.652 32.117 25.82 42.195 11.965 8.8164 26.137 12.91 40.621 12.281 8.1875 21.727 28.969 36.527 52.27 36.527 2.832 0 5.668-0.31641 8.5-0.62891 9.7617-1.5742 18.895-5.668 26.766-11.652 7.5586 6.2969 16.688 10.078 26.449 11.652 26.766 4.0938 51.957-11.336 61.086-35.895 14.484 0.62891 28.652-3.7773 40.621-12.281 13.855-10.078 22.984-25.191 25.82-42.195 2.832-18.262-2.2031-36.211-13.539-50.383 3.1484-5.3516 5.3516-11.02 6.2969-17.32 0.94531-6.2969 0.62891-12.281-0.62891-17.949 21.727-3.4648 41.562-14.484 55.734-31.805 8.4961-9.7617 8.1836-23.934-0.003906-33.379zm-86.91 174.45c-8.8164 6.6133-19.836 9.1328-30.859 7.5586-0.94531 0-1.5742-0.31641-2.5195-0.31641-3.4648-0.62891-6.9258 0.31641-9.4453 2.5195-2.2031 1.8906-3.7773 4.4102-4.0938 7.2422-2.832 17.633-19.523 29.914-37.156 27.078-8.5-1.2578-15.742-5.668-21.098-12.281-4.4102-5.668-13.855-5.668-18.262 0-5.0391 6.6133-12.594 11.02-21.098 12.281-8.5 1.2578-17.32-0.62891-24.246-5.9844-6.9258-5.0391-11.652-12.594-12.91-21.098-0.31641-3.1484-1.8906-5.668-4.0938-7.5586-2.5195-2.2031-6.2969-3.1484-9.4453-2.5195-0.94531 0.31641-1.5742 0.31641-2.5195 0.31641-11.02 1.5742-22.043-0.94531-30.859-7.5586-8.8164-6.6133-14.801-16.059-16.375-27.078-2.2031-13.855 2.832-27.711 13.227-37.156 2.2031-2.2031 3.7773-5.0391 3.7773-8.1875 0-3.1484-0.94531-6.2969-3.1484-8.5-3.4648-3.7773-5.9844-8.5-6.6133-13.539-0.62891-5.0391 0-9.7617 1.8906-13.855 10.391-1.2578 20.152-4.0938 29.598-8.8164 11.02 19.207 16.688 40.305 16.688 61.402v5.0391c0 23.301 11.02 45.656 29.598 60.141 13.539 10.391 29.914 15.742 46.289 15.742s32.434-5.3516 46.289-15.742c18.578-14.168 29.598-36.527 29.598-60.141v-5.0391c0-21.098 5.668-42.195 16.688-61.402 9.1328 4.4102 19.207 7.5586 29.598 8.8164 1.8906 4.4102 2.5195 9.1328 1.8906 13.855-0.94531 5.0391-3.1484 9.7617-6.6133 13.539-2.2031 2.2031-3.4648 5.3516-3.1484 8.5 0 3.1484 1.5742 5.9844 3.7773 8.1875 10.391 9.4453 15.43 23.301 13.227 37.156-2.8281 11.34-8.8086 20.785-17.629 27.398zm-298.5-155.55c-0.94531-1.2578-0.94531-2.832 0-3.7773 12.91-14.801 31.172-23.301 50.695-23.301h0.62891c1.8906 0 3.7773 0.31641 5.668 0.31641 3.1484 4.4102 7.5586 8.1875 12.281 11.02 0.94531 11.965 4.4102 23.301 9.7617 34.008-8.8164 4.0938-18.578 5.9844-28.652 5.9844-19.211-0.003907-37.789-9.1367-50.383-24.25zm73.051-49.121c0-7.8711 5.668-14.168 13.539-14.801 3.4648-0.31641 6.6133-2.2031 8.8164-5.3516 1.8906-3.1484 2.2031-6.6133 1.2578-10.078-0.94531-3.1484-1.5742-6.2969-1.5742-9.4453 0-15.43 12.594-27.711 27.711-27.711 2.832 0 5.668 0.31641 8.1875 1.2578 5.668 1.8906 11.965-1.2578 14.168-6.6133 6.2969-15.742 21.41-26.137 38.73-26.137 17.32 0.003906 32.434 10.082 38.734 25.824 2.2031 5.668 8.5 8.5 14.168 6.6133 2.5195-0.94531 5.3516-1.2578 8.1875-1.2578 15.43 0 27.711 12.594 27.711 27.711 0 3.1484-0.62891 6.2969-1.5742 9.4453-1.2578 3.4648-0.62891 7.2422 1.2578 10.078 1.8906 3.1484 5.0391 5.0391 8.8164 5.3516 7.8711 0.62891 13.539 7.2422 13.539 14.801 0 8.1875-6.6133 15.113-15.113 15.113s-15.113-6.6133-15.113-15.43c0.31641-3.7773-1.2578-7.2422-4.0938-9.4453-2.2031-1.8906-4.7227-2.832-7.5586-2.832-0.94531 0-1.5742 0-2.5195 0.31641-1.8906 0.31641-3.7773 0.62891-5.668 0.62891-8.1875 0-16.059-3.4648-21.098-9.7617-3.7773-4.7227-10.707-5.3516-15.742-1.8906-14.168 10.391-34.637 10.391-48.805 0-5.0391-3.4648-11.652-2.832-15.742 1.8906-5.3516 6.2969-12.91 9.7617-21.098 9.7617-1.8906 0-3.7773-0.31641-5.668-0.62891-3.4648-0.62891-7.2422 0.31641-10.078 2.832-2.832 2.5195-4.0938 5.9844-4.0938 9.7617 0 8.1875-6.6133 15.113-15.113 15.113-8.5039-0.003906-14.172-6.9336-14.172-15.117zm163.42 148.62v5.0391c0 16.059-7.5586 31.805-20.469 41.562-18.895 14.484-45.344 14.484-63.922 0-12.91-9.7617-20.469-25.504-20.469-41.562v-5.0391c0-29.285-9.1328-58.566-26.766-84.387-5.668-8.1875-9.4453-17.32-11.02-26.766 14.801-2.2031 26.766-12.594 31.172-26.449 11.02-0.31641 21.098-4.4102 29.598-11.02 18.262 9.4453 40.934 9.4453 59.199 0 8.5 6.6133 18.578 10.391 29.598 11.02 4.4102 13.855 16.375 24.562 31.172 26.449-1.5742 9.4453-5.3516 18.578-11.02 26.766-17.941 26.133-27.074 55.105-27.074 84.387zm80.297-75.254c-10.078 0-19.836-2.2031-28.652-5.9844 5.668-10.707 8.8164-22.355 9.7617-34.008 4.7227-2.832 9.1328-6.2969 12.281-11.02 1.8906-0.31641 3.7773-0.31641 5.668-0.31641 19.836 0 38.73 8.1875 51.641 23.301 0.94531 0.94531 0.94531 2.832 0 3.7773-12.285 15.117-30.863 24.25-50.699 24.25z"/>
  <path d="m368.2 485.02c-2.5195 5.9844 0 12.594 5.9844 15.113l21.098 9.1328c1.5742 0.62891 3.1484 0.94531 4.7227 0.94531s3.1484-0.31641 4.7227-0.94531l21.098-9.1328c5.9844-2.5195 8.5-9.4453 5.9844-15.113-2.5195-5.9844-9.4453-8.5-15.113-5.9844l-16.375 7.2422-16.375-7.2422c-6.3008-2.5156-13.227 0.31641-15.746 5.9844z"/>
  <path d="m367.25 368.51c0 6.7812-5.4961 12.277-12.281 12.277-6.7812 0-12.277-5.4961-12.277-12.277 0-6.7852 5.4961-12.281 12.277-12.281 6.7852 0 12.281 5.4961 12.281 12.281"/>
  <path d="m457.31 368.51c0 6.7812-5.5 12.277-12.281 12.277s-12.281-5.4961-12.281-12.277c0-6.7852 5.5-12.281 12.281-12.281s12.281 5.4961 12.281 12.281"/>
 </g>
</svg>