<?xml version="1.0" encoding="UTF-8"?>
<!-- The Best Svg Icon site in the world: iconSvg.co, Visit us! https://iconsvg.co -->
<svg fill="#000000" width="800px" height="800px" version="1.1" viewBox="144 144 512 512" xmlns="http://www.w3.org/2000/svg">
 <path d="m596.93 457.05v-45.734c0-48.559-39.504-88.062-88.059-88.062h-162.8l0.10156-0.57422c2.0391-11.598-0.097657-23.375-5.7852-33.52 24.324-19.578 12.629-44.148 8.2695-51.441-2.0547-3.4336-6.1719-5.1328-10.031-4.1367-16.035 4.1484-24.496 13.25-28.586 22.555-3.0117-1.7344-6.3633-2.8008-9.9609-2.8008-4.4727 0-8.8281 1.5625-12.488 4.3984-7.3242-5.6719-17.656-5.6719-24.98 0-3.6641-2.8359-8.0195-4.3984-12.492-4.3984-3.5977 0-6.9492 1.0664-9.9609 2.8008-4.0898-9.3086-12.551-18.406-28.586-22.555-3.8477-0.98047-7.9844 0.70703-10.031 4.1367-4.3594 7.293-16.062 31.859 8.2695 51.441-5.6914 10.145-7.8242 21.926-5.7852 33.52l14.719 83.73c2.6914 15.293 12.5 27.793 25.75 34.578v115.62c0 3.6055 1.8555 6.8555 4.9609 8.6836 3.1016 1.8203 6.8398 1.8828 10.004 0.12891l8.2305-4.5664 8.2344 4.5664c3.1523 1.75 6.8906 1.7031 10-0.12109 3.1055-1.832 4.9648-5.0781 4.9648-8.6836v-67.836h14.059v67.832c0 3.6055 1.8555 6.8555 4.9609 8.6836 3.1016 1.8203 6.8438 1.8828 10.004 0.12891l8.2305-4.5664 8.2344 4.5664c3.1484 1.75 6.8945 1.7031 10-0.12109 3.1055-1.832 4.9648-5.0781 4.9648-8.6836l0.007813-67.844h100.36l-0.003906 67.836c0 3.6055 1.8555 6.8555 4.9688 8.6836 3.1094 1.8242 6.8438 1.8711 9.9961 0.12891l8.2344-4.5703 8.2305 4.5664c3.1484 1.75 6.8984 1.7031 10.004-0.12109 3.1094-1.832 4.9648-5.0781 4.9648-8.6836v-67.84h14.055v67.836c0 3.6055 1.8555 6.8555 4.9688 8.6836 1.5898 0.93359 3.3516 1.4062 5.1055 1.4062 1.6758 0 3.3516-0.42969 4.8906-1.2773l8.2344-4.5703 8.2344 4.5703c3.1641 1.7461 6.8945 1.6914 10.004-0.13672 3.1055-1.832 4.9609-5.0742 4.9609-8.6797v-67.855c0.42969 21.082 19.156 37.465 19.965 38.156 0.94531 0.8125 2.1172 1.2188 3.2852 1.2188 1.1719 0 2.3438-0.40234 3.2852-1.2148 0.81641-0.70312 20.008-17.453 20.008-38.883 0.011719-12.754-3.1094-23.75-8.1719-30.984zm-256.54-213.52c5.0117 8.7031 10.059 24.164-5.7227 37.355-3.9727-4.6562-8.6875-8.5-13.895-11.477-0.70312-2.0156-1.6406-3.8789-2.75-5.6016 2.0742-7.3633 7.6875-16.23 22.367-20.277zm-90.273 19.875c3.1914 0 6.2305 1.5977 8.5625 4.5039 1.9141 2.3828 5.9453 2.3828 7.8555 0 4.668-5.8086 12.461-5.8086 17.125 0 1.9141 2.3828 5.9453 2.3828 7.8555 0 2.332-2.9062 5.3711-4.5039 8.5625-4.5039 6.7461 0 12.23 6.9023 12.23 15.391s-5.4844 15.391-12.23 15.391c-3.1875 0-6.2305-1.5977-8.5625-4.5039-0.95703-1.1914-2.4023-1.8828-3.9297-1.8828s-2.9727 0.69141-3.9297 1.8828c-4.6602 5.8086-12.457 5.8125-17.125 0-1.9141-2.3828-5.9453-2.3828-7.8555 0-2.332 2.9062-5.3711 4.5039-8.5625 4.5039-6.7461 0-12.23-6.9062-12.23-15.391 0.003906-8.4883 5.4883-15.391 12.234-15.391zm-40.309-19.875c14.676 4.043 20.293 12.914 22.367 20.273-1.1094 1.7266-2.043 3.5859-2.75 5.6016-5.207 2.9805-9.9219 6.8203-13.895 11.477-15.789-13.184-10.742-28.641-5.7227-37.352zm4.1367 77.395c-2.082-11.832 1.2031-23.949 9.0078-33.246 1.5781-1.8789 3.3398-3.5547 5.1914-5.1133 1.6133 12.246 10.805 21.695 21.973 21.695 4.4727 0 8.8281-1.5625 12.492-4.3984 7.3242 5.6719 17.656 5.6719 24.98 0 3.6641 2.8359 8.0156 4.3984 12.488 4.3984 11.168 0 20.359-9.4492 21.973-21.695 1.8477 1.5586 3.6133 3.2305 5.1914 5.1094 7.8047 9.2969 11.09 21.418 9.0078 33.25l-12.039 68.473c-9.5977-9.8242-27.781-16.336-49.113-16.336-21.336 0-39.516 6.5117-49.113 16.336zm14.855 84.332c0.375-10.531 19.266-22.121 46.297-22.121s45.922 11.59 46.297 22.121c-3.4844 18.105-19.621 31.191-38.645 31.191h-15.305c-19.02 0.003906-35.156-13.082-38.645-31.191zm52.016 151.35-10.68-5.9219c-1.5195-0.83594-3.3672-0.83984-4.8867 0.003906l-10.676 5.918v-17.238h26.246zm60.457 0-10.68-5.9219c-1.5195-0.83594-3.3672-0.83984-4.8867 0.003906l-10.676 5.918v-17.238h26.246zm146.76 0.003906-10.676-5.9219c-1.5234-0.84766-3.3672-0.83984-4.8906-0.003906l-10.68 5.9297v-17.246h26.246zm60.457 0-10.676-5.9219c-1.5234-0.84766-3.3672-0.83984-4.8906-0.003906l-10.68 5.9297v-17.246h26.25zm6.5977-194.93c-1.6523-1.5391-4.1289-1.7891-6.0469-0.62109-1.9297 1.1719-2.8438 3.4766-2.2422 5.6523 1.1211 4.0508 1.6914 8.1367 1.6914 12.137v150.44h-26.25v-40.516c0-5.5547-4.5234-10.078-10.078-10.078h-14.055c-5.5547 0-10.078 4.5234-10.078 10.078v40.516h-26.246l0.003906-40.516c0-5.5547-4.5234-10.078-10.078-10.078h-100.36c-5.5586 0-10.078 4.5234-10.078 10.078v40.516h-26.246v-40.516c0-5.5547-4.5195-10.078-10.078-10.078h-14.059c-5.5586 0-10.078 4.5234-10.078 10.078v40.516h-26.246l0.003907-84.426c4.1172 1.0781 8.4297 1.6602 12.875 1.6602h15.309c24.133 0 44.613-16.875 48.699-40.121l12.852-73.078h164.57c43 0 77.98 34.984 77.98 77.984v37.496c-1.6133-0.56641-3.2969-0.87891-5.0391-0.87891-1.7422 0-3.4219 0.3125-5.0391 0.87891v-37.496c0-18.695-7.9062-36.781-21.691-49.629zm11.617 95.363c-4.8633 6.9609-7.9102 17.41-8.1367 29.543l-0.003906-104.8c5.3086 8.832 8.1367 18.934 8.1367 29.523zm24.293 46v-7.6758c0-2.0859-1.6914-3.7773-3.7773-3.7773-2.0859 0-3.7773 1.6914-3.7773 3.7773v18.805c-0.56641 0.65625-1.1211 1.2891-1.625 1.832-0.5-0.53906-1.0586-1.1758-1.625-1.832v-18.805c0-2.0859-1.6914-3.7773-3.7773-3.7773-2.0859 0-3.7773 1.6914-3.7773 3.7773v7.668c-2.3047-4.5039-4.0352-9.6172-4.0352-15.016 0-17.188 6.9766-30.027 13.215-30.027 6.2383 0 13.219 12.84 13.219 30.027 0 5.4062-1.7305 10.52-4.0391 15.023zm-321.64-92.574c-2.7812 0-5.0391-2.2539-5.0391-5.0391 0-1.0508-0.32422-1.7852-0.58984-2.168-0.26562 0.38281-0.58984 1.1172-0.58984 2.168 0 2.7852-2.2539 5.0391-5.0391 5.0391-2.7812 0-5.0391-2.2539-5.0391-5.0391 0-6.9961 4.6875-12.477 10.668-12.477s10.668 5.4805 10.668 12.477c0 2.7852-2.2578 5.0391-5.0391 5.0391zm6.4453-5.0352c0-6.9961 4.6875-12.477 10.668-12.477 5.9844 0 10.668 5.4805 10.668 12.477 0 2.7852-2.2539 5.0391-5.0391 5.0391-2.7812 0-5.0391-2.2539-5.0391-5.0391 0-1.0508-0.32422-1.7852-0.59375-2.168-0.26562 0.38281-0.58984 1.1172-0.58984 2.168 0 2.7852-2.2539 5.0391-5.0391 5.0391-2.7773-0.003906-5.0352-2.2578-5.0352-5.0391zm14.832-63.613 3.2617-3.2617-3.2617-3.2617c-1.9688-1.9688-1.9688-5.1562 0-7.125s5.1562-1.9688 7.125 0l3.2617 3.2617 3.2617-3.2617c1.9688-1.9688 5.1562-1.9688 7.125 0s1.9688 5.1562 0 7.125l-3.2617 3.2617 3.2617 3.2617c1.9688 1.9688 1.9688 5.1562 0 7.125-0.98438 0.98438-2.2734 1.4766-3.5625 1.4766-1.2891 0-2.5781-0.49219-3.5625-1.4766l-3.2617-3.2617-3.2617 3.2617c-0.98438 0.98438-2.2734 1.4766-3.5625 1.4766-1.2891 0-2.5781-0.49219-3.5625-1.4766-1.9688-1.9688-1.9688-5.1602 0-7.125zm-31.07-6.5273-3.2617 3.2617 3.2617 3.2617c1.9688 1.9688 1.9688 5.1562 0 7.125-0.98438 0.98438-2.2734 1.4766-3.5625 1.4766-1.2891 0-2.5781-0.49219-3.5625-1.4766l-3.2617-3.2617-3.2617 3.2617c-0.98438 0.98438-2.2734 1.4766-3.5625 1.4766-1.2891 0-2.5781-0.49219-3.5625-1.4766-1.9688-1.9688-1.9688-5.1562 0-7.125l3.2617-3.2617-3.2617-3.2617c-1.9688-1.9688-1.9688-5.1562 0-7.125s5.1562-1.9688 7.125 0l3.2617 3.2617 3.2617-3.2617c1.9688-1.9688 5.1562-1.9688 7.125 0s1.9688 5.1562 0 7.125z"/>
</svg>