<?xml version="1.0" encoding="UTF-8"?>
<!-- The Best Svg Icon site in the world: iconSvg.co, Visit us! https://iconsvg.co -->
<svg fill="#000000" width="800px" height="800px" version="1.1" viewBox="144 144 512 512" xmlns="http://www.w3.org/2000/svg">
 <path d="m557.44 609.92h-106.01c-2.0586-10.086-7.0352-19.344-14.312-26.621-7.2773-7.2773-16.535-12.254-26.621-14.312v-43.035h10.496c16.699 0 32.719-6.6328 44.527-18.445 11.812-11.809 18.445-27.828 18.445-44.527 0-2.7852-1.1055-5.457-3.0742-7.4219-1.9648-1.9688-4.6367-3.0742-7.418-3.0742h-31.488c-11.367-0.0625-22.434 3.625-31.488 10.496v-31.488h10.496c16.699 0 32.719-6.6367 44.527-18.445 11.812-11.812 18.445-27.832 18.445-44.531 0-2.7852-1.1055-5.4531-3.0742-7.4219-1.9648-1.9688-4.6367-3.0742-7.418-3.0742h-31.488c-11.367-0.0625-22.434 3.625-31.488 10.496v-31.488h10.496c16.699 0 32.719-6.6367 44.527-18.445 11.812-11.812 18.445-27.828 18.445-44.531 0-2.7852-1.1055-5.4531-3.0742-7.4219-1.9648-1.9688-4.6367-3.0742-7.418-3.0742h-31.488c-11.367-0.0625-22.434 3.6289-31.488 10.496v-22.883c6.125-2.1641 11.43-6.1719 15.188-11.473 3.7578-5.2969 5.7852-11.629 5.8047-18.125 0-24.664-21.621-46.918-24.035-49.438h-0.003906c-1.9688-1.9844-4.6523-3.1055-7.4492-3.1055-2.8008 0-5.4844 1.1211-7.4531 3.1055-2.4141 2.5195-24.035 24.77-24.035 49.438 0.015625 6.4961 2.043 12.828 5.8008 18.125 3.7617 5.3008 9.0664 9.3086 15.191 11.473v22.883c-9.0547-6.8672-20.125-10.559-31.488-10.496h-31.488c-5.7969 0-10.496 4.6992-10.496 10.496 0 16.703 6.6328 32.719 18.445 44.531 11.809 11.809 27.828 18.445 44.531 18.445h10.496v31.488c-9.0547-6.8711-20.125-10.559-31.488-10.496h-31.488c-5.7969 0-10.496 4.6992-10.496 10.496 0 16.699 6.6328 32.719 18.445 44.531 11.809 11.809 27.828 18.445 44.531 18.445h10.496v31.488c-9.0547-6.8711-20.125-10.559-31.488-10.496h-31.488c-5.7969 0-10.496 4.6992-10.496 10.496 0 16.699 6.6328 32.719 18.445 44.527 11.809 11.812 27.828 18.445 44.531 18.445h10.496v43.035c-10.086 2.0586-19.344 7.0352-26.625 14.312-7.2773 7.2773-12.254 16.535-14.312 26.621h-106.01c-5.7969 0-10.496 4.6992-10.496 10.496 0 5.7969 4.6992 10.496 10.496 10.496h314.88c5.7969 0 10.496-4.6992 10.496-10.496 0-5.7969-4.6992-10.496-10.496-10.496zm-115.45-136.45h19.629-0.003906c-2.3242 9.0039-7.5742 16.984-14.93 22.684-7.3516 5.6992-16.387 8.7969-25.688 8.8008h-10.496c0-8.3477 3.3164-16.359 9.2227-22.262 5.9023-5.9062 13.914-9.2227 22.266-9.2227zm0-94.465h19.629-0.003906c-2.3242 9.0039-7.5742 16.984-14.93 22.684-7.3516 5.6992-16.387 8.7969-25.688 8.8047h-10.496c0-8.3516 3.3164-16.363 9.2227-22.266 5.9023-5.9062 13.914-9.2227 22.266-9.2227zm0-94.465h19.629-0.003906c-2.3242 9.0078-7.5742 16.984-14.93 22.684-7.3516 5.6992-16.387 8.7969-25.688 8.8047h-10.496c0-8.3516 3.3164-16.359 9.2227-22.266 5.9023-5.9062 13.914-9.2227 22.266-9.2227zm-41.984-88.586c5.8984 7.3398 9.5469 16.238 10.496 25.609 0 5.7969-4.6992 10.496-10.496 10.496s-10.496-4.6992-10.496-10.496c0.94531-9.3711 4.5938-18.27 10.496-25.609zm-61.613 88.586h19.629c8.3516 0 16.359 3.3164 22.266 9.2227 5.9023 5.9062 9.2227 13.914 9.2227 22.266h-10.496c-9.3047-0.007812-18.34-3.1055-25.691-8.8047-7.3516-5.6992-12.605-13.676-14.93-22.684zm0 94.465h19.629c8.3516 0 16.359 3.3164 22.266 9.2227 5.9023 5.9023 9.2227 13.914 9.2227 22.266h-10.496c-9.3047-0.007813-18.34-3.1055-25.691-8.8047-7.3516-5.6992-12.605-13.68-14.93-22.684zm0 94.465h19.629c8.3516 0 16.359 3.3164 22.266 9.2227 5.9023 5.9023 9.2227 13.914 9.2227 22.262h-10.496c-9.3047-0.003906-18.34-3.1016-25.691-8.8008-7.3516-5.6992-12.605-13.68-14.93-22.684zm31.488 136.45v-0.003906c2.9023-8.25 9.1094-14.922 17.129-18.418 8.0195-3.4922 17.129-3.4922 25.152 0 8.0195 3.4961 14.223 10.168 17.125 18.418z"/>
</svg>