<?xml version="1.0" encoding="UTF-8"?>
<!-- The Best Svg Icon site in the world: iconSvg.co, Visit us! https://iconsvg.co -->
<svg fill="#000000" width="800px" height="800px" version="1.1" viewBox="144 144 512 512" xmlns="http://www.w3.org/2000/svg">
 <g>
  <path d="m291.2 456.17c-29.859 0-54.148 24.293-54.148 54.156 0 29.859 24.289 54.156 54.148 54.156 29.859 0 54.156-24.293 54.156-54.156 0-29.859-24.297-54.156-54.156-54.156zm0 98.23c-24.297 0-44.074-19.773-44.074-44.078 0-24.305 19.773-44.078 44.074-44.078 24.305 0 44.078 19.773 44.078 44.078 0 24.301-19.77 44.078-44.078 44.078z"/>
  <path d="m520.63 524.5c-12.645 0-22.93 10.289-22.93 22.93 0 12.645 10.281 22.93 22.93 22.93 12.645 0 22.934-10.289 22.934-22.93 0-12.641-10.285-22.93-22.934-22.93zm0 35.781c-7.082 0-12.852-5.7695-12.852-12.852 0-7.082 5.7695-12.852 12.852-12.852 7.0898 0 12.855 5.7617 12.855 12.852 0.003906 7.0859-5.7617 12.852-12.855 12.852z"/>
  <path d="m203.51 405.04h15.773v48.492c0 0.25781 0.10938 0.48047 0.14453 0.72656-12.125 15.488-19.426 34.926-19.426 56.074 0.003906 50.285 40.91 91.195 91.191 91.195 31.078 0 58.543-15.652 75.016-39.465h34.414v10.496c0 2.7812 2.2539 5.0391 5.0391 5.0391h28.969c2.7852 0 5.0391-2.2578 5.0391-5.0391v-10.496h28.934c6.4062 22.73 27.277 39.465 52.023 39.465 24.754 0 45.625-16.73 52.027-39.465h23.828c2.7852 0 5.0391-2.2578 5.0391-5.0391v-109.33c0-18.895-13.539-34.809-31.938-37.797l-128.09-27.348-26.43-142.26c10.473-1.1875 18.672-10 18.672-20.789 0-11.594-9.4297-21.023-21.023-21.023l-190.67 0.003906c-11.594 0-21.023 9.4297-21.023 21.023 0 10.723 8.0977 19.492 18.477 20.766-0.074219 0.34375-0.20703 0.66406-0.20703 1.0312v124.69l-15.777 0.003907c-2.7852 0-5.0391 2.2578-5.0391 5.0391l0.003906 28.969c0 2.7812 2.25 5.0352 5.0352 5.0352zm87.684 186.41c-44.727 0-81.117-36.391-81.117-81.117s36.391-81.117 81.117-81.117c44.734 0 81.125 36.391 81.125 81.117s-36.391 81.117-81.125 81.117zm81.035-39.461c6.4531-12.504 10.168-26.641 10.168-41.66 0-50.285-40.91-91.195-91.199-91.195-23.871 0-45.566 9.2969-61.832 24.359l-0.003907-38.453h69.695c56.004 0 101.57 45.566 101.57 101.57v45.379h-28.395zm148.4 39.461c-24.27 0-44.012-19.746-44.012-44.012 0-24.27 19.746-44.012 44.012-44.012 24.27 0 44.02 19.746 44.02 44.012 0 24.27-19.746 44.012-44.02 44.012zm70.816-143.76v104.3h-16.949c0.125-1.5078 0.23047-3.0195 0.23047-4.5547 0-29.824-24.262-54.09-54.094-54.09-29.824 0-54.09 24.262-54.09 54.09 0 1.5352 0.10547 3.0469 0.23047 4.5547h-27.102l0.007813-51.223c0-44.734-21.926-84.422-55.574-108.95h52.523l131.11 27.98c13.734 2.2383 23.711 13.973 23.711 27.895zm-380.35-228.19c0-6.0352 4.9141-10.949 10.949-10.949h190.67c6.0352 0 10.949 4.9141 10.949 10.949s-4.9141 10.949-10.949 10.949l-190.67-0.003907c-6.0391 0-10.949-4.9102-10.949-10.945zm18.113 21.023h175.65l26.234 141.21h-62.895c-0.046875 0-0.082031 0.023437-0.12109 0.023437-18.852-10.051-40.355-15.77-63.168-15.77l-75.547 0.003907v-124.7c0-0.27734-0.11719-0.51172-0.15625-0.77344zm-20.656 135.54h96.355c68.754 0 124.69 55.938 124.69 124.69v66.754h-18.895v-60.902c0-61.566-50.082-111.65-111.64-111.65h-90.508z"/>
 </g>
</svg>