<?xml version="1.0" encoding="UTF-8"?>
<!-- The Best Svg Icon site in the world: iconSvg.co, Visit us! https://iconsvg.co -->
<svg fill="#000000" width="800px" height="800px" version="1.1" viewBox="144 144 512 512" xmlns="http://www.w3.org/2000/svg">
 <g>
  <path d="m636.11 360.64c0.015625-1.6172-0.46875-3.207-1.3867-4.5391l-94.465-133.82c-0.85938-1.2227-2.0508-2.1719-3.4336-2.7422l-133.82-55.105v0.003907c-1.918-0.79297-4.0742-0.79297-5.9961 0l-133.82 55.105v-0.003906c-1.3828 0.57031-2.5703 1.5195-3.4336 2.7422l-94.465 133.82c-0.91797 1.332-1.4023 2.9219-1.3828 4.5391h-0.058593v267.65c0 2.0859 0.83203 4.0898 2.3086 5.5664 1.4766 1.4727 3.4766 2.3047 5.5664 2.3047h456.58c2.0859 0 4.0898-0.83203 5.5664-2.3047 1.4727-1.4766 2.3047-3.4805 2.3047-5.5664v-267.65zm-364.82-127.41 128.72-52.996 128.71 52.996 84.379 119.54h-426.19zm136.59 189.38 156.89 197.82h-156.89zm-15.746 197.82h-156.89l156.89-197.82zm181.05-14.73-156.89-197.81h156.89zm-346.37 0v-197.81h156.89zm362.11 14.73v-220.41c0-2.0898-0.82812-4.0898-2.3047-5.5664-1.4766-1.4766-3.4766-2.3086-5.5664-2.3086h-362.11c-4.3477 0-7.8711 3.5273-7.8711 7.875v220.41h-31.488v-251.9h440.83v251.9z"/>
  <path d="m447.23 242.56h-94.465c-4.3477 0-7.8711 3.5234-7.8711 7.8711v62.977c0 2.0859 0.82812 4.0898 2.3047 5.5664 1.4766 1.4766 3.4805 2.3047 5.5664 2.3047h94.465c2.0898 0 4.0898-0.82812 5.5664-2.3047 1.4766-1.4766 2.3047-3.4805 2.3047-5.5664v-62.977c0-2.0859-0.82812-4.0898-2.3047-5.5664-1.4766-1.4766-3.4766-2.3047-5.5664-2.3047zm-7.8711 62.977h-78.723v-47.234h78.723z"/>
  <path d="m360.64 541.7h15.742v15.742h-15.742z"/>
  <path d="m423.61 541.7h15.742v15.742h-15.742z"/>
 </g>
</svg>