<?xml version="1.0" encoding="UTF-8"?>
<!-- The Best Svg Icon site in the world: iconSvg.co, Visit us! https://iconsvg.co -->
<svg fill="#000000" width="800px" height="800px" version="1.1" viewBox="144 144 512 512" xmlns="http://www.w3.org/2000/svg">
 <path d="m483.13 353.14c0-2.0156 0.50391-4.0312 0.50391-6.0469 3.5273 0.50391 8.5664 1.0078 14.609 1.0078 17.129 0 41.816-3.0234 57.938-19.145 26.199-26.199 18.137-74.562 18.137-76.578-0.50391-2.0156-2.0156-4.0312-4.0312-4.0312-2.0156-0.50391-50.383-8.0625-76.578 18.137-6.0469 6.0469-10.078 12.594-12.594 20.152-7.5586-41.312-23.68-58.441-24.688-59.449-2.0156-2.0156-5.0391-2.0156-7.0547 0s-2.0156 5.0391 0 7.0547c0 0 9.0703 10.078 16.625 32.746 0 0-0.50391-0.50391-0.50391-0.50391-26.199-26.199-74.562-18.137-76.578-18.137-2.0156 0.50391-4.0312 2.0156-4.0312 4.0312-0.50391 2.0156-8.0625 50.383 18.137 76.578 16.121 16.121 40.809 19.145 57.938 19.145 5.543 0 10.078-0.50391 13.602-0.50391 0 2.0156-0.50391 4.0312-0.50391 6.0469-27.711 1.0078-53.402 11.082-74.059 27.711-9.5742-44.336-48.367-77.082-93.707-79.602v-3.0234c2.5195 0 6.0469 0.50391 9.5742 0.50391 13.602 0 33.754-2.5195 47.359-15.617 21.16-21.16 15.113-60.457 14.609-62.473-0.50391-2.0156-2.0156-4.0312-4.0312-4.0312-1.5117-0.50391-38.289-6.0469-59.953 12.594 5.543-15.617 11.586-22.168 11.586-22.672 2.0156-2.0156 2.0156-5.0391 0-7.0547s-5.0391-2.0156-7.0547 0c-1.0078 1.0078-13.098 14.105-19.145 44.84-2.0156-5.0391-5.0391-9.5742-9.0703-13.602-21.16-21.16-60.457-15.113-62.473-14.609-2.0156 0.50391-4.0312 2.0156-4.0312 4.0312-0.50391 1.5117-6.5508 40.809 14.609 62.473 13.098 13.098 33.25 15.617 47.359 15.617 4.5352 0 8.0625-0.50391 10.578-0.50391v3.0234c-52.898 3.0234-95.219 46.855-95.219 100.76 0 55.418 45.344 100.76 100.76 100.76 19.145 0 37.281-5.0391 53.402-15.113 4.0391 63.477 57.945 113.86 122.94 113.86 68.52 0 124.44-55.922 124.44-124.44-0.50391-66.504-53.406-120.91-119.4-123.94zm17.633-80.105c18.641-18.641 52.898-16.625 63.984-15.617 1.0078 11.082 3.0234 45.344-15.617 63.984s-52.898 16.625-63.984 15.617c-0.50391-3.0234-0.50391-7.0547-0.50391-12.09v-1.5117c-0.50781-15.117 2.5156-36.781 16.121-50.383zm-91.191 48.363c-18.641-18.641-16.625-52.898-15.617-63.984 11.082-1.0078 45.344-3.0234 63.984 15.617 10.578 10.578 14.609 25.695 15.617 39.297 0.50391 4.5352 0.50391 9.0703 0.50391 13.602 0 4.5352-0.50391 8.5664-0.50391 11.082-11.082 1.0156-45.344 3.0312-63.984-15.613zm-91.691-82.621c14.105-14.105 40.305-13.098 49.879-12.09 1.0078 9.5742 2.0156 35.77-12.594 49.879-14.105 14.105-40.305 13.098-49.879 12.09 0-2.0156-0.50391-4.5352-0.50391-7.5586 0-4.5352 0.50391-8.5664 0.50391-13.098 1.5078-10.078 4.5312-21.164 12.594-29.223zm-73.559 37.281c-14.105-14.105-13.098-40.305-12.09-49.879 9.5742-1.0078 35.77-2.0156 49.879 12.09 10.578 10.578 12.594 28.215 12.594 40.305 0 4.0312 0 7.0547-0.50391 9.5742-9.5742 1.5117-35.266 2.5195-49.879-12.09zm-34.258 125.95c0-49.879 40.809-90.688 90.688-90.688 44.336 0 83.129 33.25 89.68 77.082-22.672 22.168-36.777 52.898-37.281 87.16-15.617 11.082-33.754 17.129-52.898 17.129-49.379 0-90.188-40.305-90.188-90.684zm268.03 189.43c-62.977 0-114.37-51.387-114.37-114.36 0-62.977 51.391-113.86 114.37-113.86 62.977 0 114.36 51.387 114.36 114.36 0 62.98-51.387 113.86-114.36 113.86z"/>
</svg>