<?xml version="1.0" encoding="UTF-8"?>
<!-- The Best Svg Icon site in the world: iconSvg.co, Visit us! https://iconsvg.co -->
<svg fill="#000000" width="800px" height="800px" version="1.1" viewBox="144 144 512 512" xmlns="http://www.w3.org/2000/svg">
 <g>
  <path d="m198.48 596.48c0 2.7812 2.2539 5.0391 5.0391 5.0391h392.5c2.7812 0 5.0391-2.2539 5.0391-5.0391 0-2.7812-2.2539-5.0391-5.0391-5.0391h-12.316l2.9102-41.379c1.043-8.4414-1.5859-16.941-7.2188-23.312-3.2266-3.6484-7.2812-6.3711-11.742-8.0547 13.48-9.8281 21.512-27.398 28.801-43.367 1.5391-3.3789 3.0508-6.6875 4.5742-9.832 0.85938-1.7695 0.60938-3.8789-0.64062-5.3984-1.25-1.5195-3.2695-2.1719-5.1719-1.6719-0.54688 0.14453-12.609 3.3867-32.422 13.93-2.9922-11.523-8.8672-25.098-20.367-34.551-1.8594-1.5312-4.5352-1.5312-6.3945 0-11.664 9.582-17.551 23.387-20.52 35.129-18.309-10.172-31.559-14.102-32.172-14.281-1.9102-0.55469-3.9688 0.0625-5.2539 1.5781-1.2852 1.5195-1.5586 3.6523-0.69922 5.4453 1.6328 3.3906 3.2383 7.0039 4.8828 10.699 7.0273 15.789 14.762 33.129 27.855 42.574-4.2031 1.7031-8.0234 4.332-11.094 7.8047-5.6328 6.3711-8.2617 14.867-7.2461 23.047l2.9258 41.641h-50.211l2.9102-41.379c1.043-8.4453-1.5898-16.941-7.2227-23.312-3.2266-3.6484-7.2812-6.3711-11.738-8.0547 13.48-9.8281 21.512-27.398 28.801-43.367 1.5391-3.3789 3.0508-6.6875 4.5742-9.832 0.85938-1.7695 0.60938-3.8789-0.64062-5.3984-1.25-1.5195-3.2695-2.1719-5.1719-1.6719-0.54688 0.14453-12.609 3.3867-32.422 13.93-2.9922-11.523-8.8672-25.098-20.367-34.551-1.8594-1.5312-4.543-1.5312-6.3945 0-11.664 9.5859-17.551 23.391-20.52 35.129-18.309-10.172-31.559-14.102-32.172-14.281-1.9102-0.55469-3.9688 0.0625-5.2539 1.5781-1.2852 1.5195-1.5586 3.6523-0.69922 5.4453 1.6328 3.3906 3.2383 7.0039 4.8828 10.699 7.0273 15.789 14.762 33.129 27.855 42.574-4.2031 1.7031-8.0234 4.332-11.094 7.8047-5.6328 6.3711-8.2656 14.867-7.2461 23.051l2.9297 41.637h-50.211l2.9102-41.379c1.043-8.4453-1.5898-16.941-7.2227-23.312-3.2266-3.6484-7.2812-6.3711-11.738-8.0547 13.48-9.8281 21.512-27.398 28.801-43.367 1.5391-3.3789 3.0508-6.6875 4.5742-9.832 0.85937-1.7695 0.60937-3.8789-0.64063-5.3984-1.25-1.5195-3.2695-2.1719-5.1719-1.6719-0.54688 0.14453-12.613 3.3867-32.418 13.93-2.9961-11.523-8.8711-25.105-20.371-34.551-1.8594-1.5312-4.543-1.5312-6.3945 0-11.664 9.5859-17.551 23.391-20.52 35.129-18.309-10.172-31.562-14.102-32.176-14.281-1.9141-0.55469-3.9688 0.0625-5.2539 1.5781-1.2852 1.5195-1.5586 3.6523-0.69922 5.4453 1.6328 3.3906 3.2383 7.0039 4.8828 10.699 7.0273 15.789 14.762 33.129 27.855 42.574-4.2031 1.7031-8.0234 4.332-11.094 7.8047-5.6328 6.3711-8.2617 14.871-7.2422 23.051l2.9297 41.637h-12.793c-2.7812 0-5.0352 2.2578-5.0352 5.0391zm293.06-124.04c6.3789 2.6797 15.07 6.7852 24.848 12.629 1.4258 0.85156 3.168 0.94531 4.6758 0.25781 1.5078-0.6875 2.582-2.0703 2.8672-3.7031 1.7891-10.062 5.8906-23.52 15.285-33.105 9.2188 9.4141 13.324 22.562 15.156 32.395 0.29687 1.5977 1.3477 2.957 2.8203 3.6445 1.4727 0.68359 3.1836 0.62109 4.6055-0.17578 10.355-5.8359 18.887-9.7617 25.039-12.281-8.5703 18.766-18.383 39.66-36.359 43.566-11.066 2.3945-22.43 0.042969-22.785-0.027344-18.207-2.9766-27.34-23.398-36.152-43.199zm11.547 94.617h39.656c2.7812 0 5.0391-2.2539 5.0391-5.0391 0-2.7812-2.2539-5.0391-5.0391-5.0391h-40.367l-0.57422-8.1562c-0.69141-5.582 1.0469-11.195 4.7656-15.406 3.707-4.1953 9.0391-6.6016 14.633-6.6016h18.27c0.042968 0 0.085937 0.003907 0.12891 0.003907 0.015625 0 0.035156-0.003907 0.054688-0.003907h17.547c5.5898 0 10.926 2.4062 14.633 6.6016 3.7188 4.2109 5.457 9.8242 4.7422 15.668l-2.9805 42.355h-68.785zm-150.75-94.617c6.3789 2.6797 15.07 6.7852 24.848 12.629 1.4258 0.85156 3.168 0.94531 4.6758 0.25781s2.582-2.0703 2.8672-3.7031c1.7891-10.062 5.8906-23.52 15.285-33.105 9.2188 9.418 13.324 22.562 15.156 32.395 0.29688 1.5977 1.3477 2.957 2.8203 3.6445 1.4727 0.68359 3.1875 0.62109 4.6055-0.17578 10.355-5.8359 18.887-9.7617 25.039-12.281-8.5703 18.766-18.383 39.66-36.359 43.566-11.066 2.3945-22.43 0.042969-22.785-0.027344-18.207-2.9766-27.34-23.398-36.152-43.199zm11.547 94.617h39.656c2.7812 0 5.0391-2.2539 5.0391-5.0391 0-2.7812-2.2539-5.0391-5.0391-5.0391h-40.367l-0.57422-8.1562c-0.69141-5.582 1.0469-11.195 4.7695-15.406 3.707-4.1953 9.0391-6.6016 14.629-6.6016h18.27c0.042969 0 0.085937 0.003907 0.12891 0.003907 0.015625 0 0.035157-0.003907 0.054688-0.003907h17.551c5.5898 0 10.922 2.4062 14.629 6.6016 3.7227 4.2109 5.4609 9.8242 4.7461 15.668l-2.9844 42.355h-68.785zm-150.75-94.617c6.3789 2.6797 15.074 6.7852 24.852 12.629 1.4258 0.85156 3.1719 0.94531 4.6758 0.25781 1.5078-0.6875 2.582-2.0703 2.8672-3.7031 1.7891-10.062 5.8867-23.516 15.285-33.105 9.2188 9.4141 13.324 22.562 15.16 32.398 0.29688 1.5977 1.3477 2.9531 2.8203 3.6445 1.4727 0.68359 3.1914 0.62109 4.6055-0.17578 10.352-5.8359 18.887-9.7617 25.039-12.281-8.5742 18.766-18.383 39.66-36.359 43.566-11.066 2.3945-22.43 0.042969-22.785-0.027343-18.215-2.9805-27.348-23.402-36.16-43.203zm11.551 94.617h40.242c2.7812 0 5.0391-2.2539 5.0391-5.0391 0-2.7812-2.2539-5.0391-5.0391-5.0391h-40.953l-0.57422-8.1562c-0.69141-5.582 1.0469-11.195 4.7656-15.406 3.7109-4.1953 9.043-6.6016 14.633-6.6016h18.27c0.042969 0 0.085938 0.003907 0.12891 0.003907 0.015625 0 0.035156-0.003907 0.054687-0.003907h17.551c5.5898 0 10.922 2.4062 14.629 6.6016 3.7227 4.2109 5.4609 9.8242 4.7461 15.668l-2.9883 42.355h-68.785z"/>
  <path d="m443.62 302c0-24.055-19.57-43.625-43.625-43.625s-43.625 19.57-43.625 43.625 19.57 43.625 43.625 43.625 43.625-19.57 43.625-43.625zm-43.625 33.547c-18.5 0-33.551-15.051-33.551-33.547 0-18.5 15.051-33.551 33.551-33.551s33.551 15.051 33.551 33.551c-0.003906 18.5-15.055 33.547-33.551 33.547z"/>
  <path d="m400 236.59c2.7812 0 5.0391-2.2539 5.0391-5.0391l-0.003906-28.043c0-2.7812-2.2539-5.0391-5.0391-5.0391-2.7812 0-5.0391 2.2539-5.0391 5.0391v28.043c0.003907 2.7812 2.2578 5.0391 5.043 5.0391z"/>
  <path d="m360.41 243.51c0.93359 1.6172 2.6289 2.5195 4.3672 2.5195 0.85547 0 1.7227-0.21484 2.5156-0.67578 2.4102-1.3906 3.2344-4.4766 1.8438-6.8828l-14.023-24.285c-1.3945-2.4102-4.4805-3.2422-6.8828-1.8438-2.4102 1.3906-3.2344 4.4766-1.8438 6.8828z"/>
  <path d="m312.19 257.12 24.285 14.023c0.79297 0.45703 1.6602 0.67578 2.5156 0.67578 1.7422 0 3.4336-0.90234 4.3672-2.5195 1.3906-2.4102 0.56641-5.4922-1.8438-6.8828l-24.285-14.023c-2.4102-1.3984-5.4922-0.56641-6.8828 1.8438-1.3906 2.4102-0.57031 5.4922 1.8438 6.8828z"/>
  <path d="m301.51 307.04h28.043c2.7812 0 5.0391-2.2539 5.0391-5.0391 0-2.7812-2.2539-5.0391-5.0391-5.0391h-28.043c-2.7812 0-5.0391 2.2539-5.0391 5.0391 0.003906 2.7852 2.2578 5.0391 5.0391 5.0391z"/>
  <path d="m336.47 332.86-24.285 14.023c-2.4102 1.3906-3.2344 4.4766-1.8438 6.8828 0.93359 1.6172 2.6289 2.5195 4.3672 2.5195 0.85547 0 1.7227-0.21484 2.5156-0.67578l24.281-14.02c2.4102-1.3906 3.2344-4.4766 1.8438-6.8828-1.3906-2.4141-4.4766-3.2383-6.8789-1.8477z"/>
  <path d="m348.23 391.66c0.79297 0.45703 1.6602 0.67578 2.5156 0.67578 1.7422 0 3.4336-0.90234 4.3672-2.5195l14.023-24.289c1.3906-2.4102 0.56641-5.4922-1.8438-6.8828-2.4141-1.3984-5.4922-0.5625-6.8828 1.8438l-14.023 24.285c-1.3906 2.4102-0.56641 5.4922 1.8438 6.8867z"/>
  <path d="m394.96 372.45v28.043c0 2.7812 2.2539 5.0391 5.0391 5.0391 2.7812 0 5.0391-2.2539 5.0391-5.0391v-28.043c0-2.7812-2.2539-5.0391-5.0391-5.0391s-5.0391 2.2578-5.0391 5.0391z"/>
  <path d="m444.88 389.81c0.93359 1.6172 2.6289 2.5195 4.3672 2.5195 0.85547 0 1.7227-0.21484 2.5156-0.67578 2.4102-1.3906 3.2344-4.4766 1.8438-6.8828l-14.023-24.285c-1.3945-2.4102-4.4805-3.2422-6.8828-1.8438-2.4102 1.3906-3.2344 4.4766-1.8438 6.8828z"/>
  <path d="m458.49 341.59 24.285 14.023c0.79297 0.45703 1.6602 0.67578 2.5156 0.67578 1.7422 0 3.4336-0.90234 4.3672-2.5195 1.3906-2.4102 0.56641-5.4922-1.8438-6.8828l-24.285-14.023c-2.4102-1.3906-5.4922-0.56641-6.8828 1.8438-1.3906 2.4062-0.56641 5.4883 1.8438 6.8828z"/>
  <path d="m465.41 302c0 2.7812 2.2539 5.0391 5.0391 5.0391h28.043c2.7812 0 5.0391-2.2539 5.0391-5.0391 0-2.7812-2.2539-5.0391-5.0391-5.0391h-28.043c-2.7812 0.003906-5.0391 2.2578-5.0391 5.0391z"/>
  <path d="m461.01 271.82c0.85547 0 1.7227-0.21484 2.5156-0.67578l24.285-14.023c2.4102-1.3906 3.2344-4.4766 1.8438-6.8828-1.3945-2.4141-4.4805-3.2422-6.8828-1.8438l-24.285 14.023c-2.4102 1.3906-3.2344 4.4766-1.8438 6.8828 0.93359 1.6172 2.625 2.5195 4.3672 2.5195z"/>
  <path d="m432.7 245.36c0.79297 0.45703 1.6602 0.67578 2.5156 0.67578 1.7422 0 3.4336-0.90234 4.3672-2.5195l14.023-24.285c1.3906-2.4102 0.56641-5.4922-1.8438-6.8828-2.4102-1.3984-5.4922-0.56641-6.8828 1.8438l-14.027 24.281c-1.3867 2.4102-0.5625 5.4922 1.8477 6.8867z"/>
 </g>
</svg>