<?xml version="1.0" encoding="UTF-8"?>
<!-- The Best Svg Icon site in the world: iconSvg.co, Visit us! https://iconsvg.co -->
<svg fill="#000000" width="800px" height="800px" version="1.1" viewBox="144 144 512 512" xmlns="http://www.w3.org/2000/svg">
 <path d="m492.1 285.45h28.34v35.422h-28.34zm-266.93 246.7 0.26172 8.8789 14.078 56.156h14.363l-7.3945-56.219h13.113v12.867c0 2.4336 1.9688 4.4023 4.4023 4.4023s4.4023-1.9688 4.4023-4.4023v-12.867h11.309v12.867c0 2.4336 1.9688 4.4023 4.4023 4.4023 2.4336 0 4.4023-1.9688 4.4023-4.4023v-12.988l17.324-21.035-60.93-13.266zm155.1-11.348 7.4805 13.98-14.812 62.398h-14.355l9.9805-76.367zm145.59 12.969v53.816c0 5.3008-4.2969 9.5938-9.5938 9.5938h-11.992l-82.031-84.996v84.996h-14.391l-6.0742-56.215-15.094-28.797-75.254 0.015625-70.039-15.242-24.938 32.512v67.727h-14.391l-5.7617-79.238 5.7578-34.535-5.7578-39.938v-52.172c-6.3477 0-11.512 5.1641-11.512 11.512v109.37l-11.512 0.003906v-109.38c0-12.715 10.309-23.023 23.023-23.023h220.02c10.715 0 20.539 5.9609 25.492 15.457l63.898 122.81 35.977-0.12109zm100.84-49.945h-128.82l-7.3711-14.172h44.094l-28.34-37.785-20.906 27.879-7.2539-13.945 19.305-25.746-26.566-35.422v47.211l-14.172-27.234v-48.316h99.191v113.36h56.68l-0.003906-176.85-101.43-72.793-111.12 72.98v77.945h-14.172v-85.59l125.64-82.523 115.24 82.711zm-120.44-75.574 28.34-37.785h-56.68zm35.422-23.613-26.566 35.422 26.566 35.422z"/>
</svg>