<?xml version="1.0" encoding="UTF-8"?>
<!-- The Best Svg Icon site in the world: iconSvg.co, Visit us! https://iconsvg.co -->
<svg fill="#000000" width="800px" height="800px" version="1.1" viewBox="144 144 512 512" xmlns="http://www.w3.org/2000/svg">
 <g>
  <path d="m601.46 331.94c-0.027344-0.49219-0.12109-0.96875-0.28906-1.4336-0.039062-0.10937-0.054687-0.22656-0.10156-0.33594-0.21094-0.47266-0.48047-0.92188-0.83984-1.3242l-55.125-61.625c-0.95312-1.0664-2.3203-1.6797-3.7539-1.6797h-128.62c-0.61719 0-1.1992 0.14844-1.7539 0.35547-0.16406 0.0625-0.30469 0.12891-0.46094 0.20703-0.5625 0.27734-1.0859 0.62109-1.5117 1.0898-0.011718 0.011719-0.027344 0.015626-0.039062 0.027344l-55.121 61.613c-0.82812 0.92578-1.2852 2.1211-1.2852 3.3594v73.98c0 1.4375 0.61328 2.8086 1.6914 3.7656 0.6875 0.60938 1.5352 0.93359 2.418 1.1016-6.7617 2.8984-13.496 6.1797-20.051 9.9062-15.039-20.117-81.461-33.137-135.04-10.855-0.035157 0.015625-0.058594 0.046875-0.09375 0.0625-0.039063 0.015625-0.078125 0.03125-0.11719 0.050781-0.3125 0.14844-0.55859 0.38281-0.83203 0.58984-0.21875 0.16406-0.47266 0.28516-0.66016 0.47656-0.023438 0.027343-0.046875 0.054687-0.070313 0.082031-0.20312 0.22266-0.32422 0.50391-0.48438 0.76172-0.16797 0.26953-0.37109 0.51172-0.48828 0.80859-0.011719 0.03125-0.039063 0.046875-0.046875 0.078125-0.003906 0.011719 0 0.019532-0.003906 0.03125-0.085938 0.23438-0.070313 0.50391-0.12109 0.75391-0.070312 0.35547-0.16797 0.69531-0.16016 1.0625 0 0.054688-0.011719 0.10938-0.011719 0.16406 0 0.011719-0.003906 0.019531-0.003906 0.03125 0.015625 0.29688 0.14844 0.54688 0.21484 0.82422 0.003907 0.019531 0.011719 0.042968 0.015626 0.0625 0.0625 0.25 0.046874 0.5 0.14844 0.74609 0.011719 0.03125 0.042969 0.050781 0.054687 0.082031 0.019532 0.042969 0.027344 0.082031 0.046876 0.125 0.19922 0.42969 0.5 0.78125 0.80469 1.1367 0.097656 0.10937 0.16016 0.25 0.26172 0.35156 0.37109 0.35938 0.81641 0.61719 1.2852 0.84766 0.11719 0.058594 0.21094 0.14844 0.32812 0.19531 0.089844 0.035156 0.17188 0.078125 0.26562 0.10938 2.8438 1.0859 65.172 25.477 73.957 74.09 0.082031 0.44531 0.26953 0.83203 0.45312 1.2188-2.1562 8.7383-3.3672 18.172-3.3672 28.414 0 0.39844 0.14062 0.75391 0.22656 1.125h-7.4414c-2.7812 0-5.0391 2.2539-5.0391 5.0391 0 2.7812 2.2539 5.0391 5.0391 5.0391h327.41c2.7812 0 5.0391-2.2539 5.0391-5.0391 0-2.7812-2.2539-5.0391-5.0391-5.0391h-187.8c0.019532-0.082031 0.070313-0.14453 0.085938-0.23047 20.469-113.27 127.8-124.42 158.38-125.27h32.66c2.7812 0 5.0391-2.2539 5.0391-5.0391v-61.625c0-0.09375-0.046875-0.17188-0.050781-0.26562zm-62.363-56.32 46.109 51.551h-121.05l-40.984-51.551zm-176.47 58.504 49.855-55.727 44.18 55.562v55.383l-29.719 3.5312v-23.68c0-2.7812-2.2539-5.0391-5.0391-5.0391h-24.469c-2.7812 0-5.0391 2.2539-5.0391 5.0391v27.785l-29.77 3.5312zm54.242 40.105v19.84l-14.395 1.7109v-21.551zm-88.91 51.98c-3.6953 2.3984-7.3008 4.9492-10.785 7.6719-3.8047-8.9648-11.184-16.484-21.77-22.16 15.688 3.2539 27.652 8.6445 32.555 14.488zm-89.395-15.848c1.3945 0.87891 3.1484 1.1016 4.7227 0.39453 4.3555-1.0156 32.539 0.035157 51.191 12.008 7.6211 4.8867 12.5 10.941 14.555 18.027-3.1797 2.9102-6.2109 5.9883-9.082 9.2383-15.73-25.75-45.195-35.227-67.523-38.617 2.0508-0.39062 4.0938-0.74219 6.1367-1.0508zm-10.438 10.746c21.508 2.9141 51.477 11.691 65.039 37.391-4.3555 6.0156-8.1445 12.559-11.234 19.664-10.488-27.586-35.211-46.312-53.805-57.055zm54.66 103.27c0.085937-0.37109 0.22656-0.72656 0.22656-1.125 0-33.352 13.934-57.723 33.605-75.551 1.082-0.44922 1.9297-1.2109 2.4688-2.2109 19.773-16.973 44.766-27.707 67.281-34.457-29.621 21.48-66.773 58.688-70.547 111.86-0.035156 0.51953 0.078125 1 0.19141 1.4805zm42.883 0c0.0625-0.26172 0.1875-0.49219 0.20703-0.76562 4.5938-64.777 63.473-104.65 89.543-119.22l7.082-0.83984 15.656-1.8594c-28.324 18.746-75.027 58.797-79.461 121.21-0.035156 0.51953 0.078125 1 0.19141 1.4805zm69.848-2.0195c-0.125 0.69141-0.097657 1.375 0.050781 2.0195h-27.023c0.0625-0.26172 0.1875-0.49219 0.20703-0.76562 5.5156-77.688 84.637-119.93 94.152-124.73h43.477c-44.258 13.828-96.949 46.48-110.86 123.48zm195.92-133.56h-19.434c-0.40625-0.011719-1.9688-0.042969-4.5547 0h-100.68v-51.551h124.67z"/>
  <path d="m396.86 347.89h24.848c2.7812 0 5.0391-2.2539 5.0391-5.0391v-23.074c0-8.0547-6.5547-14.609-14.609-14.609h-5.7031c-8.0547 0-14.609 6.5547-14.609 14.609v23.074c-0.003906 2.7852 2.2539 5.0391 5.0352 5.0391zm5.0391-28.109c0-2.5 2.0352-4.5352 4.5352-4.5352h5.7031c2.5 0 4.5352 2.0352 4.5352 4.5352v18.035h-14.773z"/>
  <path d="m235.11 524.38h-30.625c-2.7812 0-5.0391 2.2539-5.0391 5.0391 0 2.7812 2.2539 5.0391 5.0391 5.0391h30.625c2.7812 0 5.0391-2.2539 5.0391-5.0391 0-2.7812-2.2539-5.0391-5.0391-5.0391z"/>
 </g>
</svg>