<?xml version="1.0" encoding="UTF-8"?>
<!-- The Best Svg Icon site in the world: iconSvg.co, Visit us! https://iconsvg.co -->
<svg fill="#000000" width="800px" height="800px" version="1.1" viewBox="144 144 512 512" xmlns="http://www.w3.org/2000/svg">
 <g>
  <path d="m586.86 566.59c16.25-15.789 14.668-42.879 14.594-44.023-0.16406-2.4648-2.0898-4.4492-4.5469-4.6836-0.875-0.09375-16.84-1.4805-31.574 4.9102 1.8125-4.8906 3-10.219 2.9492-15.844-0.21094-23.656-21.781-41.973-22.699-42.738-1.8984-1.5977-4.668-1.5586-6.5352 0.054687-0.90625 0.78906-22.148 19.488-21.938 43.141 0.042969 4.8867 1.0273 9.5234 2.5234 13.844-13.875-5.7227-28.289-4.918-29.121-4.8555-2.4648 0.16406-4.4492 2.0898-4.6836 4.5508-0.10938 1.1406-2.4961 28.168 13.27 44.438 11.723 12.102 29.648 14.328 38.562 14.645v11.418h-133.51v-11.379c8.8711-0.03125 26.98-1.6719 39.125-13.477 16.25-15.789 14.668-42.879 14.594-44.023-0.16406-2.4648-2.0898-4.4492-4.5469-4.6836-0.87891-0.09375-16.84-1.4805-31.574 4.9102 1.8125-4.8906 3-10.219 2.9492-15.844-0.21094-23.656-21.781-41.973-22.699-42.738-1.8984-1.5977-4.668-1.5586-6.5352 0.054687-0.90625 0.78906-22.148 19.488-21.938 43.141 0.042968 4.8867 1.0273 9.5234 2.5234 13.844-13.879-5.7227-28.293-4.918-29.121-4.8555-2.4648 0.16406-4.4492 2.0898-4.6836 4.5508-0.10938 1.1406-2.4961 28.168 13.27 44.438 11.723 12.102 29.648 14.328 38.562 14.645l-0.003906 11.418h-133.51v-11.379c8.8711-0.03125 26.98-1.6719 39.125-13.477 16.25-15.789 14.668-42.879 14.594-44.023-0.16406-2.4648-2.0898-4.4492-4.5469-4.6836-0.87891-0.09375-16.84-1.4805-31.574 4.9102 1.8125-4.8906 3-10.219 2.9492-15.844-0.21094-23.656-21.781-41.973-22.699-42.738-1.8945-1.5977-4.6641-1.5586-6.5352 0.054687-0.90625 0.78906-22.148 19.488-21.938 43.141 0.042969 4.8867 1.0273 9.5234 2.5234 13.844-13.879-5.7227-28.293-4.918-29.121-4.8555-2.4648 0.16406-4.4492 2.0898-4.6836 4.5508-0.10938 1.1406-2.4961 28.168 13.27 44.438 11.723 12.102 29.648 14.328 38.562 14.645l-0.003907 11.418h-46.297c-2.7812 0-5.0391 2.2539-5.0391 5.0391s2.2539 5.0391 5.0391 5.0391h392.29c2.7812 0 5.0391-2.2539 5.0391-5.0391s-2.2539-5.0391-5.0391-5.0391h-48.746v-11.379c8.8672-0.03125 26.98-1.668 39.121-13.477zm-150.61-7.2227c-9.4062 9.1406-24.375 10.535-31.848 10.613 0.28906-7.4648 2.1016-22.387 11.562-31.582 9.3984-9.1367 24.359-10.535 31.836-10.613-0.30078 7.4844-2.1406 22.438-11.551 31.582zm-37.422-84.285c5.4336 5.5898 15.672 17.965 15.797 31.957 0.125 13.992-9.8945 26.543-15.227 32.23-5.4336-5.5898-15.672-17.965-15.797-31.957s9.8945-26.543 15.227-32.23zm-46.68 51.367c7.4531 0.28516 22.336 2.1055 31.504 11.57 9.1367 9.4336 10.523 24.441 10.602 31.926-7.4531-0.28516-22.336-2.1055-31.504-11.57-9.1367-9.4336-10.523-24.445-10.602-31.926zm-59.484 32.918c-9.4062 9.1406-24.375 10.535-31.848 10.613 0.28906-7.4648 2.1016-22.387 11.562-31.582 9.3984-9.1367 24.359-10.535 31.836-10.613-0.30078 7.4844-2.1406 22.438-11.551 31.582zm-37.422-84.285c5.4336 5.5898 15.672 17.965 15.797 31.957 0.125 13.992-9.8945 26.543-15.227 32.23-5.4336-5.5898-15.672-17.965-15.797-31.957s9.8945-26.543 15.227-32.23zm-46.68 51.367c7.4531 0.28516 22.336 2.1055 31.504 11.57 9.1367 9.4336 10.523 24.441 10.602 31.926-7.4531-0.28516-22.336-2.1055-31.504-11.57-9.1367-9.4336-10.523-24.445-10.602-31.926zm371.27 32.918c-9.4062 9.1406-24.375 10.535-31.848 10.613 0.28906-7.4648 2.1016-22.387 11.562-31.582 9.3984-9.1367 24.359-10.535 31.836-10.613-0.30078 7.4844-2.1406 22.438-11.551 31.582zm-37.422-84.285c5.4336 5.5898 15.672 17.965 15.797 31.957 0.125 13.992-9.8945 26.543-15.227 32.23-5.4336-5.5898-15.672-17.965-15.797-31.957s9.8945-26.543 15.227-32.23zm-46.68 51.367c7.4531 0.28516 22.336 2.1055 31.504 11.57 9.1367 9.4336 10.523 24.441 10.602 31.926-7.4531-0.28516-22.336-2.1055-31.504-11.57-9.1367-9.4336-10.523-24.445-10.602-31.926z"/>
  <path d="m515.98 286.05c1.8906-1.2305 2.7344-3.5625 2.0625-5.7188-0.66797-2.1484-2.5977-3.5781-4.9453-3.543-13.57 0.35938-26.328-5.8086-33.945-16.5-7.043-9.8789-8.668-21.992-4.457-33.23 0.78125-2.082 0.10156-4.4336-1.6719-5.7812-1.7734-1.3398-4.2148-1.3594-6.0195-0.054688-10.648 7.7891-24.602 9.9336-37.324 5.7188-12.18-4.0312-21.246-13.047-24.875-24.738-0.65234-2.1094-2.6016-3.5469-4.8086-3.5469s-4.1562 1.4375-4.8125 3.5469c-3.6289 11.691-12.695 20.707-24.875 24.738-12.73 4.207-26.68 2.0664-37.324-5.7188-1.7969-1.3047-4.2422-1.2852-6.0195 0.054688-1.7734 1.3477-2.4531 3.6992-1.6719 5.7812 4.2109 11.238 2.5859 23.352-4.457 33.23-7.6172 10.691-20.25 16.82-33.945 16.5-2.1523-0.035157-4.2773 1.3906-4.9453 3.543-0.66797 2.1562 0.17578 4.4883 2.0625 5.7188 10.867 7.0703 17.102 18.27 17.102 30.719 0 12.449-6.2344 23.645-17.102 30.715-1.8906 1.2305-2.7344 3.5625-2.0625 5.7188 0.66797 2.1484 2.5391 3.5391 4.9453 3.543 13.562-0.42969 26.328 5.8086 33.945 16.5 7.043 9.8789 8.668 21.992 4.457 33.23-0.78125 2.0859-0.10156 4.4336 1.6719 5.7812 1.7773 1.3516 4.2227 1.3672 6.0195 0.054687 10.648-7.7852 24.609-9.9219 37.324-5.7188 12.18 4.0312 21.246 13.043 24.875 24.734 0.65234 2.1133 2.6055 3.5508 4.8125 3.5508s4.1562-1.4375 4.8125-3.5469c3.6289-11.691 12.695-20.703 24.871-24.734 12.73-4.207 26.68-2.0664 37.328 5.7188 1.8047 1.3125 4.2461 1.2891 6.0195-0.054687 1.7734-1.3477 2.4531-3.6953 1.6719-5.7812-4.2109-11.238-2.5859-23.352 4.457-33.23 7.6172-10.695 20.262-16.82 33.945-16.5 2.3477 0.11719 4.2773-1.3867 4.9453-3.543s-0.17578-4.4883-2.0625-5.7188c-10.867-7.0703-17.102-18.27-17.102-30.715-0.003907-12.453 6.2305-23.652 17.098-30.723zm-27.176 30.723c0 11.551 4.3945 22.539 12.141 31.055-12.09 2.6172-22.812 9.4961-29.996 19.57-6.6133 9.2773-9.4922 20.113-8.4258 30.918-11.273-4.6758-24.086-5.2266-36.008-1.2852-11.398 3.7695-20.645 11.062-26.52 20.664-5.8789-9.6055-15.121-16.895-26.52-20.664-5.3281-1.7617-10.832-2.6289-16.297-2.6289-6.7656 0-13.477 1.3242-19.711 3.9102 1.0664-10.805-1.8125-21.637-8.4258-30.918-7.1836-10.078-17.906-16.953-29.996-19.57 7.7422-8.5156 12.141-19.504 12.141-31.055 0-11.559-4.3984-22.547-12.141-31.066 12.086-2.6133 22.812-9.4922 29.996-19.566 6.6133-9.2852 9.4922-20.113 8.4258-30.918 11.273 4.6797 24.082 5.2188 36.008 1.2852 11.395-3.7656 20.637-11.059 26.52-20.664 5.8789 9.6094 15.121 16.898 26.52 20.668 11.926 3.9414 24.734 3.3906 36.008-1.2852-1.0664 10.805 1.8125 21.633 8.4258 30.918 7.1836 10.078 17.906 16.953 29.996 19.57-7.7461 8.5195-12.141 19.504-12.141 31.062z"/>
  <path d="m400 253.52c-34.879 0-63.258 28.379-63.258 63.258 0 34.883 28.379 63.262 63.258 63.262s63.258-28.379 63.258-63.262c0-34.879-28.379-63.258-63.258-63.258zm0 116.44c-29.324 0-53.184-23.855-53.184-53.184 0-29.324 23.855-53.18 53.184-53.18 29.324 0 53.184 23.855 53.184 53.18-0.003906 29.328-23.859 53.184-53.184 53.184z"/>
 </g>
</svg>