<?xml version="1.0" encoding="UTF-8"?>
<!-- The Best Svg Icon site in the world: iconSvg.co, Visit us! https://iconsvg.co -->
<svg fill="#000000" width="800px" height="800px" version="1.1" viewBox="144 144 512 512" xmlns="http://www.w3.org/2000/svg">
 <path d="m463.02 216.8c0-2.7812 2.2539-5.0391 5.0391-5.0391h11.875v-11.875c0-2.7812 2.2539-5.0391 5.0391-5.0391s5.0391 2.2539 5.0391 5.0391v11.875h11.875c2.7852 0 5.0391 2.2539 5.0391 5.0391 0 2.7812-2.2539 5.0391-5.0391 5.0391h-11.875v11.879c0 2.7812-2.2539 5.0391-5.0391 5.0391s-5.0391-2.2539-5.0391-5.0391v-11.879h-11.875c-2.7852-0.003906-5.0391-2.2578-5.0391-5.0391zm169.65 92.668h-8.7578v-8.7578c0-2.7812-2.2539-5.0391-5.0391-5.0391s-5.0391 2.2539-5.0391 5.0391v8.7578h-8.7578c-2.7852 0-5.0391 2.2539-5.0391 5.0391 0 2.7812 2.2539 5.0391 5.0391 5.0391h8.7578v8.7578c0 2.7812 2.2539 5.0391 5.0391 5.0391s5.0391-2.2539 5.0391-5.0391v-8.7578h8.7578c2.7852 0 5.0391-2.2539 5.0391-5.0391 0-2.7852-2.2539-5.0391-5.0391-5.0391zm-327.78-56.316h11.879v11.879c0 2.7812 2.2539 5.0391 5.0391 5.0391 2.7812 0 5.0391-2.2539 5.0391-5.0391v-11.879h11.875c2.7812 0 5.0391-2.2539 5.0391-5.0391 0-2.7812-2.2539-5.0391-5.0391-5.0391h-11.875v-11.879c0-2.7812-2.2539-5.0391-5.0391-5.0391-2.7812 0-5.0391 2.2539-5.0391 5.0391v11.879h-11.879c-2.7812 0-5.0391 2.2539-5.0391 5.0391 0 2.7852 2.2578 5.0391 5.0391 5.0391zm-105.65 6.0469h9.0703v9.0703c0 2.7812 2.2539 5.0391 5.0391 5.0391 2.7812 0 5.0391-2.2539 5.0391-5.0391v-9.0703h9.0703c2.7812 0 5.0391-2.2539 5.0391-5.0391 0-2.7812-2.2539-5.0391-5.0391-5.0391h-9.0703v-9.0703c0-2.7812-2.2539-5.0391-5.0391-5.0391-2.7812 0-5.0391 2.2539-5.0391 5.0391v9.0703h-9.0703c-2.7812 0-5.0391 2.2539-5.0391 5.0391 0 2.7812 2.2539 5.0391 5.0391 5.0391zm195.55-33.684c3.1016 0 5.6172-2.5156 5.6172-5.6172 0-3.1016-2.5156-5.6172-5.6172-5.6172-3.1016 0-5.6172 2.5156-5.6172 5.6172 0 3.1016 2.5156 5.6172 5.6172 5.6172zm188.74 33.832c3.1016 0 5.6172-2.5156 5.6172-5.6172s-2.5156-5.6172-5.6172-5.6172-5.6172 2.5156-5.6172 5.6172 2.5156 5.6172 5.6172 5.6172zm-413.61 69.703c3.1016 0 5.6172-2.5156 5.6172-5.6172s-2.5156-5.6172-5.6172-5.6172c-3.1016 0-5.6172 2.5156-5.6172 5.6172s2.5156 5.6172 5.6172 5.6172zm250.82 3.8867c-0.82031-1.6641-2.5391-2.8125-4.5234-2.8125-2.7852 0-5.0391 2.2539-5.0391 5.0391 0 8.5703 14.719 9.2383 19.23 9.2383 4.5117 0 19.238-0.66797 19.238-9.2383 0-2.7812-2.2539-5.0391-5.0391-5.0391-1.9844 0-3.6992 1.1445-4.5234 2.8125-1.3398 0.56641-4.6797 1.3867-9.6758 1.3867-4.9883 0-8.3281-0.82031-9.668-1.3867zm195.76 70.102v17.559c0 8.3359-6.7812 15.113-15.113 15.113h-2.4102c-2.3711 93.828-79.375 169.43-173.76 169.43h-71.652c-94.383 0-171.39-75.605-173.76-169.43l-2.4141-0.003906c-8.3359 0-15.113-6.7812-15.113-15.113v-17.559c0-8.3359 6.7812-15.113 15.113-15.113h7.6172c0.73438-36.988 30.996-66.871 68.16-66.871 22.5 0 42.43 10.992 54.863 27.84 3.0234-3.6641 6.707-6.7461 10.84-9.1367 0-0.10547-0.015624-0.21094-0.015624-0.31641 0-37.141 30.215-67.355 67.355-67.355 28.449 0 52.781 17.758 62.637 42.746 3.5703 0.9375 7.0586 2.082 10.395 3.5273 13.625-14.852 33.125-24.234 54.824-24.234 5.8125 0 11.449 0.73828 16.883 2.0039 2.8398-3.8828 6.418-7.9883 10.848-11.785 2.1094-1.8047 5.2852-1.5664 7.1055 0.54688 1.8125 2.1133 1.5664 5.293-0.55078 7.1055-2.7422 2.3516-5.0938 4.8594-7.1172 7.3359 27.664 10.887 47.328 37.809 47.328 69.293 0 6.6836-0.96875 13.137-2.625 19.305h15.453c8.3281-0.003906 15.105 6.7734 15.105 15.109zm-148.07-79.828c20.809 12.82 34.758 35.75 34.758 61.934 0 0.9375-0.10547 1.8516-0.14062 2.7812h72.48c1.918-6.0977 2.9609-12.582 2.9609-19.305 0-28.07-18.074-51.941-43.176-60.746-2.7578 4.7461-3.9805 8.1992-4.0039 8.2695-0.71875 2.082-2.6758 3.3945-4.7617 3.3945-0.54297 0-1.0977-0.089844-1.6367-0.27734-2.6289-0.90234-4.0234-3.7578-3.1289-6.3867 0.09375-0.28125 1.1562-3.3086 3.4609-7.6367-3.6328-0.64063-7.3516-1.0352-11.164-1.0352-17.828 0-33.973 7.2773-45.648 19.008zm-38.016-0.75781c-34.566 0-62.691 28.125-62.691 62.691 0 0.9375 0.10156 1.8516 0.14063 2.7812h125.11c0.039063-0.92969 0.14062-1.8398 0.14062-2.7812 0-34.566-28.121-62.691-62.695-62.691zm-101.28 13.164c3.0781-0.76562 6.2773-1.2148 9.5859-1.2148 11.699 0 22.207 5.1094 29.488 13.184 12.766-21.059 35.836-35.211 62.207-35.211 2.168 0 4.3008 0.14062 6.418 0.32422-9.625-18.141-28.691-30.539-50.617-30.539-30.289 0-55.102 23.656-57.082 53.457zm-20.105 38.551c0 4.9648 1.2383 9.6406 3.4023 13.758h45.355c-0.035156-0.92969-0.14062-1.8398-0.14062-2.7812 0-9.832 1.9844-19.203 5.5312-27.77-5.3594-7.7812-14.32-12.898-24.461-12.898-16.367 0-29.688 13.32-29.688 29.691zm-10.074 0c0-5.6836 1.2188-11.078 3.375-15.973-3.8516-1.8281-8.1367-2.8828-12.676-2.8828-16.371 0-29.691 13.32-29.691 29.691 0 0.98438 0.054687 1.957 0.14844 2.9219h41.348c-1.5938-4.2969-2.5039-8.918-2.5039-13.758zm-103.86 13.758h54.938c-0.070312-0.96875-0.14844-1.9336-0.14844-2.9219 0-21.926 17.84-39.766 39.766-39.766 0.49609 0 0.98047 0.054687 1.4727 0.074218-10.195-8.8125-23.441-14.184-37.945-14.184-31.605 0-57.352 25.359-58.082 56.797zm393.81 47.785h-399.02c2.3711 88.266 74.855 159.36 163.68 159.36h71.656c88.824 0 161.31-71.09 163.68-159.36zm17.527-32.672c0-2.7812-2.2578-5.0391-5.0391-5.0391h-423.99c-2.7773 0-5.0391 2.2578-5.0391 5.0391v17.559c0 2.7812 2.2617 5.0391 5.0391 5.0391h423.99c2.7812 0 5.0391-2.2578 5.0391-5.0391zm-379.9 96.973h54.074c2.7812 0 5.0391-2.2539 5.0391-5.0391 0-2.7852-2.2539-5.0391-5.0391-5.0391l-54.074 0.003906c-2.7812 0-5.0391 2.2539-5.0391 5.0391 0 2.7812 2.2578 5.0352 5.0391 5.0352zm-1.7617 18.836h33.75c2.7812 0 5.0391-2.2539 5.0391-5.0391s-2.2539-5.0391-5.0391-5.0391h-33.75c-2.7812 0-5.0391 2.2539-5.0391 5.0391s2.2539 5.0391 5.0391 5.0391zm226.2 18.965h50.914c2.7852 0 5.0391-2.2539 5.0391-5.0391s-2.2539-5.0391-5.0391-5.0391l-50.914 0.003907c-2.7852 0-5.0391 2.2539-5.0391 5.0391 0 2.7812 2.2539 5.0352 5.0391 5.0352zm26.246 11.891c0 2.7852 2.2539 5.0391 5.0391 5.0391h31.785c2.7852 0 5.0391-2.2539 5.0391-5.0391 0-2.7852-2.2539-5.0391-5.0391-5.0391l-31.785 0.003906c-2.7852 0-5.0391 2.25-5.0391 5.0352zm44.285-65.289h46.277c2.7852 0 5.0391-2.2539 5.0391-5.0391s-2.2539-5.0391-5.0391-5.0391h-46.277c-2.7852 0-5.0391 2.2539-5.0391 5.0391 0 2.7891 2.2539 5.0391 5.0391 5.0391zm15.43-20.457h28.879c2.7852 0 5.0391-2.2539 5.0391-5.0391s-2.2539-5.0391-5.0391-5.0391h-28.879c-2.7852 0-5.0391 2.2539-5.0391 5.0391 0 2.7891 2.2539 5.0391 5.0391 5.0391z"/>
</svg>