<?xml version="1.0" encoding="UTF-8"?>
<!-- The Best Svg Icon site in the world: iconSvg.co, Visit us! https://iconsvg.co -->
<svg fill="#000000" width="800px" height="800px" version="1.1" viewBox="144 144 512 512" xmlns="http://www.w3.org/2000/svg">
 <g>
  <path d="m396.09 369.75h-7.8438c-2.7812 0-5.0391 2.2539-5.0391 5.0391 0 2.7812 2.2539 5.0391 5.0391 5.0391h7.8438c2.7812 0 5.0391-2.2539 5.0391-5.0391 0-2.7812-2.2578-5.0391-5.0391-5.0391z"/>
  <path d="m408.36 349.95c0 2.7812 2.2539 5.0391 5.0391 5.0391h7.8438c2.7812 0 5.0391-2.2539 5.0391-5.0391 0-2.7812-2.2539-5.0391-5.0391-5.0391h-7.8438c-2.7852 0.003906-5.0391 2.2578-5.0391 5.0391z"/>
  <path d="m420.08 389.98h-7.8438c-2.7812 0-5.0391 2.2539-5.0391 5.0391 0 2.7812 2.2539 5.0391 5.0391 5.0391h7.8438c2.7812 0 5.0391-2.2539 5.0391-5.0391s-2.2539-5.0391-5.0391-5.0391z"/>
  <path d="m439.59 382.68h7.8438c2.7812 0 5.0391-2.2539 5.0391-5.0391 0-2.7812-2.2539-5.0391-5.0391-5.0391h-7.8438c-2.7812 0-5.0391 2.2539-5.0391 5.0391 0 2.7852 2.2578 5.0391 5.0391 5.0391z"/>
  <path d="m255.55 380.66h7.8438c2.7812 0 5.0391-2.2539 5.0391-5.0391 0-2.7812-2.2539-5.0391-5.0391-5.0391h-7.8438c-2.7812 0-5.0391 2.2539-5.0391 5.0391 0 2.7812 2.2578 5.0391 5.0391 5.0391z"/>
  <path d="m283.67 354.98h7.8438c2.7812 0 5.0391-2.2539 5.0391-5.0391 0-2.7812-2.2539-5.0391-5.0391-5.0391h-7.8438c-2.7812 0-5.0391 2.2539-5.0391 5.0391 0.003906 2.7852 2.2578 5.0391 5.0391 5.0391z"/>
  <path d="m268.44 402.68c0-2.7812-2.2539-5.0391-5.0391-5.0391h-7.8438c-2.7812 0-5.0391 2.2539-5.0391 5.0391 0 2.7812 2.2539 5.0391 5.0391 5.0391h7.8438c2.7812 0 5.0391-2.2578 5.0391-5.0391z"/>
  <path d="m309.86 382.68h7.8438c2.7812 0 5.0391-2.2539 5.0391-5.0391 0-2.7812-2.2539-5.0391-5.0391-5.0391l-7.8438 0.003906c-2.7812 0-5.0391 2.2539-5.0391 5.0391 0 2.7812 2.2578 5.0352 5.0391 5.0352z"/>
  <path d="m320.42 264.39h7.8438c2.7812 0 5.0391-2.2539 5.0391-5.0391 0-2.7812-2.2539-5.0391-5.0391-5.0391h-7.8438c-2.7812 0-5.0391 2.2539-5.0391 5.0391 0 2.7852 2.2578 5.0391 5.0391 5.0391z"/>
  <path d="m348.53 238.72h7.8438c2.7812 0 5.0391-2.2539 5.0391-5.0391 0-2.7812-2.2539-5.0391-5.0391-5.0391h-7.8438c-2.7812 0-5.0391 2.2539-5.0391 5.0391 0.003906 2.7812 2.2578 5.0391 5.0391 5.0391z"/>
  <path d="m347.37 283.79h7.8438c2.7812 0 5.0391-2.2539 5.0391-5.0391 0-2.7812-2.2539-5.0391-5.0391-5.0391h-7.8438c-2.7812 0-5.0391 2.2539-5.0391 5.0391s2.2578 5.0391 5.0391 5.0391z"/>
  <path d="m356.38 322h-7.8477c-2.7812 0-5.0391 2.2539-5.0391 5.0391 0 2.7812 2.2539 5.0391 5.0391 5.0391h7.8438c2.7812 0 5.0391-2.2539 5.0391-5.0391 0-2.7812-2.2539-5.0391-5.0352-5.0391z"/>
  <path d="m375.54 298.73c0 2.7812 2.2539 5.0391 5.0391 5.0391h7.8438c2.7812 0 5.0391-2.2539 5.0391-5.0391 0-2.7812-2.2539-5.0391-5.0391-5.0391h-7.8438c-2.7812 0-5.0391 2.2578-5.0391 5.0391z"/>
  <path d="m316.5 306.7h7.8438c2.7812 0 5.0391-2.2539 5.0391-5.0391 0-2.7812-2.2539-5.0391-5.0391-5.0391h-7.8438c-2.7812 0-5.0391 2.2539-5.0391 5.0391s2.2578 5.0391 5.0391 5.0391z"/>
  <path d="m374.73 266.41h7.8438c2.7812 0 5.0391-2.2539 5.0391-5.0391 0-2.7812-2.2539-5.0391-5.0391-5.0391h-7.8438c-2.7812 0-5.0391 2.2539-5.0391 5.0391 0 2.7812 2.2578 5.0391 5.0391 5.0391z"/>
  <path d="m578.29 237.41c0.34766-1.9141 0.52734-3.8477 0.52734-5.7852 0-18.281-15.055-33.152-33.559-33.152-18.504 0-33.559 14.875-33.559 33.152 0 1.9375 0.17578 3.8711 0.52734 5.7852-13.902 5.4414-23.234 18.715-23.234 33.832 0 8.5 3.0547 16.719 8.5078 23.223-5.4531 6.5039-8.5078 14.727-8.5078 23.223 0 20.098 16.551 36.445 36.895 36.445 5 0 9.832-1.0117 14.332-2.9023v21.441h-11.258c-10.711 0-20.316 6.3281-24.742 15.84-3.8789-0.61719-7.8242-0.97266-11.816-0.97266-4.3242 0-8.582 0.48828-12.785 1.2188l-5.6523-27.699c-5.1406-25.207-26.496-43.91-51.77-46.094-0.12109-4.1289-0.46484-8.2578-1.293-12.32l-11.797-57.852c-5.4648-26.77-29.211-46.219-56.516-46.316-0.042969 0.003907-0.089844 0.003907-0.13281 0-0.050781 0-0.089843-0.003906-0.13672 0-27.305 0.097657-51.051 19.547-56.516 46.32l-11.801 57.852c-0.82812 4.0664-1.1875 8.1953-1.3047 12.32-25.266 2.1875-46.613 20.887-51.758 46.094l-11.797 57.852c-1.3711 6.7344-1.7383 13.586-1.1641 20.395-12.008 11.648-19.504 27.922-19.504 45.938v111.24c0 2.7812 2.2539 5.0391 5.0391 5.0391h392.97c2.7812 0 5.0391-2.2539 5.0391-5.0391l-0.003906-111.24c0-15.586-5.7578-30.25-15.469-41.602l2.5938-40.168c0.96484-7.8242-1.4727-15.699-6.6875-21.59-5.1758-5.8516-12.613-9.2109-20.406-9.2109h-11.258v-21.441c4.5 1.8906 9.332 2.9023 14.332 2.9023 20.344-0.003907 36.895-16.352 36.895-36.449 0-8.4961-3.0547-16.719-8.5078-23.223 5.4531-6.5 8.5078-14.723 8.5078-23.219 0-15.121-9.332-28.395-23.234-33.836zm-114.2 125.66 5.7227 28.051c-13.719 4.3438-26.129 12.496-35.492 23.746-16.145-10.316-36.516-12.84-54.801-6.6406-4.5898-4.9883-9.875-9.1562-15.648-12.418l6.6758-32.734c4.5156-22.141 24.18-38.223 46.773-38.254 22.59 0.03125 42.254 16.109 46.77 38.25zm-158.41-116.27c4.5156-22.141 24.18-38.219 46.773-38.254 22.59 0.035157 42.254 16.113 46.773 38.254l11.797 57.852c0.69531 3.4062 0.99219 6.8633 1.1094 10.32-25.141 2.3047-46.344 20.969-51.465 46.078l-6.2148 30.473c-1.4141-0.51953-2.8398-0.99609-4.2891-1.4141l-5.9258-29.059c-5.125-25.109-26.332-43.777-51.477-46.078 0.11328-3.457 0.42188-6.9141 1.1172-10.32zm-76.664 174.12 11.797-57.852c4.5156-22.141 24.184-38.223 46.773-38.254 22.59 0.035156 42.254 16.113 46.773 38.254l5.0742 24.871c-2.332-0.25781-4.6875-0.40234-7.0625-0.40234-24.219 0-46.18 13.586-57.078 34.961-4.2695-0.88281-8.543-1.3281-12.75-1.3281-12.797 0-24.703 3.8125-34.719 10.301 0.10547-3.5312 0.48047-7.0586 1.1914-10.551zm362.43 170.52h-382.89v-106.2c0-29.773 24.223-53.996 53.996-53.996 4.6719 0 9.4648 0.66016 14.242 1.9648 2.4375 0.65625 4.9609-0.56641 5.957-2.875 8.5352-19.879 28.016-32.727 49.629-32.727 16.211 0 31.426 7.1953 41.734 19.738 1.3906 1.6992 3.7344 2.2969 5.7695 1.4766 17.465-7.0117 37.461-4.3359 52.461 6.9219 1.0781 0.8125 2.4492 1.1719 3.7695 0.95312 1.332-0.19922 2.5352-0.92578 3.3242-2.0156 12.328-16.949 32.129-27.07 52.961-27.07 23.594 0 45.469 12.809 57.086 33.43 0.64844 1.1523 1.7188 2 2.9883 2.3672 22.949 6.6406 38.977 27.957 38.977 51.832zm-17.031-202.89c3.3047 3.7344 4.8477 8.7227 4.207 13.977l-2.0781 32.086c-5.7148-4.4375-12.195-7.9766-19.301-10.285-9.75-16.266-25.148-28.047-42.828-33.465 3.1016-4.9375 8.5352-8.125 14.547-8.125h32.594c4.9062 0.003906 9.5938 2.1211 12.859 5.8125zm8.2422-90.34c5.5859 5.0039 8.7891 12.102 8.7891 19.469 0 14.539-12.031 26.367-26.82 26.367-5.1445 0-10.027-1.5039-14.332-4.2148v-78.074c0-2.7812-2.2539-5.0391-5.0391-5.0391-2.7812 0-5.0391 2.2539-5.0391 5.0391v78.074c-4.3047 2.7109-9.1875 4.2148-14.332 4.2148-14.785 0-26.82-11.832-26.82-26.367 0-7.3711 3.2031-14.469 8.7891-19.473 1.0664-0.95312 1.6758-2.3203 1.6758-3.75 0-1.4336-0.60938-2.7969-1.6758-3.7539-5.582-5-8.7852-12.098-8.7852-19.469 0-12.164 8.3984-22.68 20.422-25.578 1.3828-0.33203 2.5625-1.2344 3.2422-2.4844 0.67969-1.25 0.80078-2.7266 0.33594-4.0703-0.85547-2.457-1.293-4.9727-1.293-7.4844 0.003906-12.723 10.535-23.074 23.484-23.074 12.945 0 23.48 10.352 23.48 23.078 0 2.5078-0.43359 5.0273-1.293 7.4844-0.46875 1.3438-0.34766 2.8203 0.33594 4.0703 0.67969 1.25 1.8594 2.1523 3.2422 2.4844 12.023 2.8984 20.422 13.414 20.422 25.578 0 7.3711-3.2031 14.469-8.7891 19.469-1.0664 0.95703-1.6758 2.3203-1.6758 3.7539 0 1.4297 0.60938 2.7969 1.6758 3.75z"/>
 </g>
</svg>