<?xml version="1.0" encoding="UTF-8"?>
<!-- The Best Svg Icon site in the world: iconSvg.co, Visit us! https://iconsvg.co -->
<svg fill="#000000" width="800px" height="800px" version="1.1" viewBox="144 144 512 512" xmlns="http://www.w3.org/2000/svg">
 <g>
  <path d="m507.69 566.57-5.8242 1.2578c-0.78906 0.15625-1.418 0.31641-2.2031 0.47266-5.9844 1.1016-12.594 2.2031-19.68 3.3047-7.8711 0.94531-16.375 1.8906-25.191 2.6758-17.633 1.5742-36.84 2.3633-56.52 2.3633-19.68 0-38.887-0.78906-56.68-2.3633-8.8164-0.78906-17.32-1.7305-25.191-2.6758-7.0859-1.1016-13.699-2.2031-19.68-3.3047-0.78906-0.15625-1.418-0.31641-2.2031-0.47266l-5.668-1.2578-5.5117 10.863-15.273 30.23c27.078 7.3984 75.258 12.121 130.2 12.121s102.96-4.7227 130.05-12.121l-15.113-30.23z"/>
  <path d="m474.15 245.71h9.1328l-17.004-34.008h-136.03l-17.004 34.008z"/>
  <path d="m500.29 560.12v-221.05h-0.31641c-2.3633 0.47266-4.8789 0.94531-7.5586 1.418-0.31641 0.15625-0.62891 0.15625-0.94531 0.15625-2.9922 0.62891-6.1406 1.1016-9.4453 1.5742-2.6758 0.31641-5.3516 0.78906-8.1875 1.1016-21.57 2.6758-47.547 4.4102-75.57 4.4102-3.3047 0-6.4531 0-9.6055-0.15625-3.1484 0-6.1406 0-9.2891-0.15625-6.7695-0.15625-13.383-0.31641-19.836-0.78906-2.3633-0.15625-4.5664-0.31641-6.9258-0.47266-8.5-0.47266-16.688-1.2578-24.246-2.0469-6.9258-0.78906-13.227-1.7305-19.207-2.6758-4.0938-0.78906-8.0312-1.418-11.652-2.2031l-0.62891-0.78906-0.62891 0.62891v221.05c24.875 5.1953 61.402 8.6602 102.02 8.6602 40.621-0.007812 76.988-3.4688 102.02-8.6641zm-102.02-161.38s25.504 45.5 25.504 59.512-11.492 25.504-25.504 25.504c-14.168 0-25.504-11.492-25.504-25.504s25.504-59.512 25.504-59.512z"/>
  <path d="m310.73 333.71c2.9922 0.47266 6.1406 0.94531 9.2891 1.418 6.6133 0.78906 13.383 1.5742 20.625 2.2031 17.789 1.7305 37.473 2.5195 57.625 2.5195 20.152 0 39.676-0.94531 57.465-2.5195 7.5586-0.62891 14.641-1.418 21.41-2.3633 2.9922-0.31641 5.8242-0.78906 8.6602-1.2578v-0.15625c2.9922-0.47266 5.9844-0.94531 8.8164-1.5742l-25.348-31.332-2.9922-3.9375v-43.137h-136.03v43.141l-3.1484 3.9375-25.191 31.488h0.15625c2.8359 0.46875 5.5117 1.0977 8.6602 1.5703z"/>
  <path d="m550.2 320.8c-4.5664-3.4648-10.707-4.25-15.902-1.5742l-25.664 12.121-0.94531 1.2578 0.31641 3.4648v0.15625l0.15625 2.832v48.492l27.238-35.266 12.121-5.8242c5.668-2.6758 8.6602-8.1875 8.6602-13.699 0.003907-4.4023-1.8867-8.8125-5.9805-11.961z"/>
  <path d="m288.38 370.09v-38.891l-0.55078-1.5586-22.281-10.406c-5.0391-2.6758-11.336-1.8906-15.742 1.5742-4.0938 3.1484-5.9844 7.5586-5.9844 11.965 0 5.5117 2.9922 11.02 8.6602 13.699l12.121 5.8242 23.773 30.699z"/>
  <path d="m398.27 475.89c9.6055 0 17.633-7.8711 17.633-17.633 0-6.4531-8.9727-26.137-17.633-42.98-8.8164 16.848-17.633 36.527-17.633 42.98 0 9.7578 7.8711 17.633 17.633 17.633z"/>
 </g>
</svg>