<?xml version="1.0" encoding="UTF-8"?>
<!-- The Best Svg Icon site in the world: iconSvg.co, Visit us! https://iconsvg.co -->
<svg fill="#000000" width="800px" height="800px" version="1.1" viewBox="144 144 512 512" xmlns="http://www.w3.org/2000/svg">
 <path d="m477.35 376.94c0.82031-0.027344 2.2695-0.19922 4.1211-0.69922 1.8555-0.49609 3.1914-1.0742 3.918-1.457 0.625-1.2031 1.7383-2.1484 3.1523-2.5273 2.6562-0.72656 5.4531 0.85938 6.1758 3.5508 0.45703 1.7109 0.52344 4.9883-4.2461 7.6758-1.6914 0.95312-3.957 1.8398-6.3828 2.4922-2.8008 0.75-5.0742 1.0664-6.9141 1.0664-4.9297 0-6.7734-2.2695-7.3867-4.5273-0.72266-2.6875 0.86719-5.4531 3.5508-6.1758 1.4141-0.37891 2.8594-0.12891 4.0117 0.60156zm133.02 42.191v58.941c0 8.3359-6.7812 15.113-15.113 15.113h-26.598v0.003906c0 25.004-20.34 45.344-45.344 45.344s-45.344-20.34-45.344-45.344v-0.003906h-161.22v0.003906c0 25.004-20.344 45.344-45.344 45.344s-45.344-20.34-45.344-45.344v-0.003906h-50.289c-5.3945 0-9.7852-4.3867-9.7852-9.7812v-23.836c0-7.0352 5.0273-13.047 11.949-14.301l4.6484-0.83594-0.24219-38.203c0-8.1016 3.4453-15.871 9.4492-21.312l68.406-62.008c2.6797-2.4297 6.1445-3.7656 9.7578-3.7656h94.98c8.0117 0 14.527 6.5156 14.527 14.527v70.34h8.8711c2.9922-11.637 11.312-21.152 22.23-25.723 0.1875-1.2148 0.38672-2.4336 0.67188-3.6445 2.8047-11.898 10.07-21.988 20.469-28.422 2.2539-1.3945 4.6094-2.5391 7.0156-3.5117 0.066406-3.2852 0.42578-6.9648 1.4453-10.793 0.72266-2.6875 3.4922-4.2773 6.168-3.5703 2.6875 0.71484 4.2852 3.4766 3.5703 6.1641-0.49219 1.8438-0.75781 3.6445-0.92969 5.3789 5.6875-0.85547 11.539-0.64453 17.301 0.71484 11.258 2.6523 20.855 9.3398 27.309 18.855 2.0469 0.23047 4.0703 0.61719 6.0664 1.1406 4.1836-12.969 16.359-22.387 30.707-22.387 16.055 0 29.367 11.797 31.824 27.172 0.61719 0.14453 1.2305 0.30078 1.8359 0.47266 2.1016-2.6406 4.6992-5.4258 7.9297-7.918 2.2031-1.6992 5.3672-1.2852 7.0664 0.91406 1.6992 2.2031 1.2891 5.3672-0.91406 7.0664-1.5938 1.2266-2.9727 2.5703-4.2188 3.918 12.75 7.0117 21.676 19.762 23.754 34.414 7.1992 1.1562 12.734 7.3594 12.734 14.879zm-303.7 74.062c0-19.445-15.82-35.266-35.266-35.266-19.445 0-35.266 15.824-35.266 35.266 0 19.445 15.82 35.266 35.266 35.266 19.445 0 35.266-15.824 35.266-35.266zm62.715-159.52c0-2.457-1.9961-4.4531-4.4531-4.4531h-94.98c-1.1055 0-2.168 0.41016-2.9922 1.1523l-68.41 62.004c-3.9023 3.5391-6.1367 8.582-6.1367 13.848v38.496c0 4.7344-3.3828 8.7812-8.043 9.6289l-4.6484 0.83594c-2.1211 0.38281-3.6602 2.2266-3.6602 4.3828v23.836l51.141-0.19141c4.5625-20.215 22.629-35.367 44.203-35.367 10.754 0 20.637 3.7812 28.418 10.062 0.3125-0.59375 0.73828-1.1406 1.2969-1.5898l18.082-14.535c2.1836-1.7578 3.4336-4.3672 3.4336-7.168v-36.516l-97.012 0.003907c-2.082 0-3.9492-1.2812-4.6992-3.2266-0.74609-1.9453-0.22656-4.1484 1.3203-5.543l49.816-45.152c0.92578-0.83984 2.1328-1.3047 3.3828-1.3047h62.566c2.7812 0 5.0391 2.2539 5.0391 5.0391v45.152c0 2.7812-2.2539 5.0391-5.0391 5.0391h-5.3008v36.516c0 5.8711-2.6211 11.344-7.1992 15.02l-18.082 14.535c-0.26172 0.21094-0.55859 0.31641-0.84375 0.46875 4.3086 5.3008 7.4219 11.594 8.9922 18.469h49.355c2.457 0 4.4531-1.9961 4.4531-4.4531zm-36.418 54.352v-35.078h-55.582l-38.699 35.078zm222.12-13.676c-1.2461-0.125-2.4844-0.1875-3.7188-0.1875-8.418 0-16.512 2.875-23.121 8.2773-0.21875 0.17969-0.41016 0.37891-0.62109 0.5625 1.3906 2.7227 2.5234 5.5977 3.332 8.6172 1.1016 4.0977 1.582 8.2656 1.4883 12.395h54.965c-2.1211-11.219-9.418-20.801-19.523-25.902-0.64844 1.1797-1.0117 1.9727-1.0234 1.9961-0.8125 1.918-2.6797 3.0742-4.6406 3.0742-0.66016 0-1.3242-0.12891-1.9648-0.40234-2.5625-1.0859-3.7578-4.043-2.6758-6.6055 0.035156-0.082031 0.28125-0.62109 0.64062-1.3516-1.0273-0.19141-2.0703-0.36328-3.1367-0.47266zm-45.941-10.027c0.46094 0.24609 0.93359 0.44922 1.3867 0.71094 4.4062 2.5391 8.2227 5.7891 11.43 9.543 8.4414-6.8711 18.805-10.512 29.535-10.484-2.7656-9.1055-11.141-15.797-21.137-15.797-10.082 0-18.523 6.8008-21.215 16.027zm-29.242 6.0859c-8.7031 2.3359-15.977 7.9219-20.473 15.727-3.1797 5.5156-4.6719 11.676-4.4688 17.883h67.418c0.09375-3.2578-0.28125-6.5469-1.1523-9.7812-2.3359-8.6992-7.9219-15.973-15.73-20.473-5.1914-2.9922-10.957-4.5234-16.793-4.5234-2.9336 0-5.8867 0.38672-8.8008 1.168zm-58.453 5.1328c1.2461-0.125 2.5078-0.19141 3.7891-0.19141 9.1016 0 17.461 3.2148 24.023 8.5508 0.45703-0.94141 0.91016-1.8828 1.4375-2.7969 5.8438-10.137 15.285-17.391 26.586-20.426 1.2109-0.32422 2.4336-0.57031 3.6523-0.79297-4.6328-4.6328-10.441-7.9297-16.977-9.4727-2.7422-0.64453-5.5039-0.96484-8.25-0.96484-2.1797 0-4.3359 0.27344-6.4688 0.67188 0.19141 1.2266 0.37109 2.0078 0.375 2.0312 0.67969 2.6914-0.94531 5.4336-3.6367 6.1211-0.41797 0.10937-0.83984 0.16016-1.2539 0.16016-2.2383 0-4.2812-1.5039-4.8672-3.7695-0.019531-0.078124-0.13281-0.57031-0.26562-1.2305-0.86719 0.44531-1.7539 0.84766-2.5898 1.3672-7.6836 4.7539-13.137 12.086-15.555 20.742zm-22.598 28.477h46.043c-0.082032-3.25 0.19141-6.4805 0.83203-9.6523-5.1289-5.4844-12.402-8.9414-20.484-8.9414-12.152 0-22.492 7.7734-26.391 18.594zm159.73 89.176c0-19.445-15.824-35.266-35.266-35.266-19.445 0-35.266 15.824-35.266 35.266 0 19.445 15.824 35.266 35.266 35.266 19.441 0 35.266-15.824 35.266-35.266zm41.711-74.062c0-2.7812-2.2578-5.0391-5.0391-5.0391h-215.79v64.566c0 1.5625-0.3125 3.0391-0.76953 4.4531h100.45c4.6016-20.16 22.641-35.262 44.176-35.262 21.535 0 39.574 15.102 44.176 35.262h27.766c2.7812 0 5.0391-2.2578 5.0391-5.0391zm-303.67 74.062c0 13.902-11.312 25.219-25.223 25.219s-25.223-11.316-25.223-25.219c0-13.91 11.312-25.227 25.223-25.227s25.223 11.316 25.223 25.227zm-10.074 0c0-8.3555-6.793-15.148-15.145-15.148-8.3516 0-15.145 6.793-15.145 15.148 0 8.3477 6.793 15.145 15.145 15.145 8.3477-0.003906 15.145-6.7969 15.145-15.145zm261.98 0c0 13.902-11.316 25.219-25.219 25.219-13.91 0-25.227-11.316-25.227-25.219 0-13.91 11.316-25.227 25.227-25.227 13.902 0 25.219 11.316 25.219 25.227zm-10.078 0c0-8.3555-6.793-15.148-15.145-15.148-8.3555 0-15.148 6.793-15.148 15.148 0 8.3477 6.793 15.145 15.148 15.145 8.3516-0.003906 15.145-6.7969 15.145-15.145zm-228.3-61.703c2.7812 0 5.0391-2.2539 5.0391-5.0391v-12.648c0-2.7852-2.2539-5.0391-5.0391-5.0391-2.7812 0-5.0391 2.2539-5.0391 5.0391v12.648c0 2.7852 2.2578 5.0391 5.0391 5.0391zm215.61-121.66h9.6289v9.625c0 2.7812 2.2539 5.0391 5.0391 5.0391s5.0391-2.2539 5.0391-5.0391v-9.625h9.625c2.7852 0 5.0391-2.2539 5.0391-5.0391 0-2.7812-2.2539-5.0391-5.0391-5.0391h-9.625v-9.625c0-2.7812-2.2539-5.0391-5.0391-5.0391s-5.0391 2.2539-5.0391 5.0391v9.625h-9.6289c-2.7852 0-5.0391 2.2539-5.0391 5.0391 0 2.7852 2.2539 5.0391 5.0391 5.0391zm-101.21-24.184h9.0742v9.0703c0 2.7812 2.2539 5.0391 5.0391 5.0391 2.7852 0 5.0391-2.2539 5.0391-5.0391v-9.0703h9.0664c2.7852 0 5.0391-2.2539 5.0391-5.0391 0-2.7812-2.2539-5.0391-5.0391-5.0391h-9.0664v-9.0703c0-2.7812-2.2539-5.0391-5.0391-5.0391-2.7852 0-5.0391 2.2539-5.0391 5.0391v9.0703h-9.0742c-2.7852 0-5.0391 2.2539-5.0391 5.0391 0 2.7852 2.2539 5.0391 5.0391 5.0391zm204.41 44.797h-9.0664v-9.0703c0-2.7812-2.2539-5.0391-5.0391-5.0391-2.7852 0-5.0391 2.2539-5.0391 5.0391v9.0703h-9.0742c-2.7852 0-5.0391 2.2539-5.0391 5.0391 0 2.7812 2.2539 5.0391 5.0391 5.0391h9.0742v9.0703c0 2.7812 2.2539 5.0391 5.0391 5.0391 2.7852 0 5.0391-2.2539 5.0391-5.0391v-9.0703h9.0664c2.7852 0 5.0391-2.2539 5.0391-5.0391 0-2.7812-2.2539-5.0391-5.0391-5.0391zm-14.105 42.047c-3.1016 0-5.6172 2.5156-5.6172 5.6172 0 3.1016 2.5156 5.6172 5.6172 5.6172 3.1016 0 5.6172-2.5156 5.6172-5.6172 0-3.1016-2.5156-5.6172-5.6172-5.6172zm-28.574-65.871c3.1016 0 5.6172-2.5156 5.6172-5.6172s-2.5156-5.6172-5.6172-5.6172c-3.1016 0-5.6172 2.5156-5.6172 5.6172s2.5117 5.6172 5.6172 5.6172zm-104.02 11.234c3.1016 0 5.6172-2.5156 5.6172-5.6172s-2.5156-5.6172-5.6172-5.6172-5.6172 2.5156-5.6172 5.6172 2.5156 5.6172 5.6172 5.6172zm-81.902 21.797c3.1016 0 5.6172-2.5156 5.6172-5.6172s-2.5156-5.6172-5.6172-5.6172c-3.1016 0-5.6172 2.5156-5.6172 5.6172s2.5156 5.6172 5.6172 5.6172z"/>
</svg>