<?xml version="1.0" encoding="UTF-8"?>
<!-- The Best Svg Icon site in the world: iconSvg.co, Visit us! https://iconsvg.co -->
<svg fill="#000000" width="800px" height="800px" version="1.1" viewBox="144 144 512 512" xmlns="http://www.w3.org/2000/svg">
 <g>
  <path d="m628.27 414.15c-0.09375-98.984-80.625-179.46-179.62-179.46h-97.297c-99 0-179.55 80.484-179.64 179.46v0.09375 0.078125 206.09c0 0.03125 0.015624 0.0625 0.015624 0.10938 0 0.15625 0.078126 0.30078 0.09375 0.45703 0.078126 1.1172 0.39453 2.125 0.88281 3.0703 0.0625 0.125 0.046875 0.28516 0.125 0.42578 0.10938 0.1875 0.34766 0.28516 0.47266 0.45703 0.53516 0.73828 1.1641 1.3555 1.9219 1.875 0.28516 0.1875 0.51953 0.39453 0.82031 0.55078 1.082 0.55078 2.2461 0.92969 3.5391 0.92969h440.83c1.2891 0 2.457-0.37891 3.5273-0.92969 0.30078-0.15625 0.53516-0.36328 0.82031-0.55078 0.75391-0.51953 1.3867-1.1328 1.9219-1.875 0.125-0.1875 0.36328-0.26953 0.47266-0.45703 0.078125-0.125 0.046875-0.28516 0.125-0.42578 0.48828-0.92969 0.80469-1.9531 0.88281-3.0703 0.015626-0.15625 0.09375-0.30078 0.09375-0.45703 0-0.03125 0.015626-0.0625 0.015626-0.10938l-0.003907-206.09v-0.078125c0.019531-0.03125 0-0.0625 0-0.09375zm-440.82 5.3672 94.465-39.219v33.441l-94.465 175.44zm209.49-12.262c-0.25-0.10937-0.42578-0.31641-0.64453-0.44141-0.66016-0.36328-1.3242-0.72266-1.8594-1.2422-1.418-1.418-2.2969-3.3867-2.2969-5.5586 0.015625-0.48828 0.23438-1.2734 0.50391-2.1094 0.0625-0.1875 0.046874-0.26953 0.10937-0.45703 1.1641-3.2891 3.8398-8.5664 7.2266-14.281 1.6211 2.707 3.3047 5.6523 4.7383 8.4688 2.2344 4.6445 2.8984 6.9258 3.0703 7.8555 0.0625 0.28516 0.078125 0.46094 0.078125 0.50781 0 0.64453-0.21875 1.2266-0.37891 1.8438-0.09375 0.39453-0.09375 0.85156-0.25 1.2109-0.34766 0.83594-0.88281 1.5586-1.4961 2.2031-0.078125 0.078126-0.10938 0.20313-0.20312 0.30078-0.64453 0.64453-1.4492 1.1484-2.2812 1.543-0.078125 0.03125-0.125 0.10938-0.21875 0.14063-0.91797 0.40625-1.957 0.62891-3.043 0.62891s-2.125-0.22266-3.0547-0.61328zm-12.691-46.621h-83.773c6.5508-18.438 24.23-31.488 44.414-31.488h110.21c20.09 0 37.707 12.941 44.352 31.488zm-86.59 15.746h87.992c-4.707 8.043-9.2734 17.43-9.2734 23.617 0 2.5039 0.48828 4.8633 1.2109 7.1172 0.078125 0.23437 0.046875 0.51953 0.125 0.75391h-80.055zm124.74 30.73c0.72266-2.25 1.2109-4.6133 1.2109-7.1133 0-2.6133-1.0078-6.0156-2.5508-9.9336l0.25-0.25c3.0703-3.0703 3.0703-8.0625 0-11.133-1.5391-1.5312-3.5547-2.3008-5.5703-2.3008-0.45703 0-0.88281 0.1875-1.3242 0.25-0.046875-0.09375-0.09375-0.17187-0.15625-0.25h88.074v31.488h-80.059c0.078125-0.23828 0.046875-0.51953 0.125-0.75781zm95.676-26.812 94.465 39.219v169.66l-94.465-175.44zm-166.73-129.87h97.297c86.293 0 157.05 67.07 163.28 151.79l-95.738-39.754c-6.4062-28.246-31.676-49.059-61.086-49.059h-110.21c-29.52 0-54.867 20.973-61.117 49.074l-95.707 39.738c6.2305-84.719 77-151.79 163.28-151.79zm-158.59 362.11 101.74-188.93h97.629v11.57c-3.4961-4.1719-7.1172-7.6836-10.422-9.2422-9.1016-4.3125-30.875-1.418-39.848 0.046875-2.5508 0.41016-4.7383 2.0469-5.8555 4.375-1.1172 2.332-0.99219 5.0703 0.30078 7.3203 4.5352 7.8555 16.043 26.574 25.113 30.906 3.5586 1.6836 9.0195 2.2812 14.926 2.2812 5.3203 0 10.895-0.48828 15.777-1.0547l-0.007813 23.07c0 4.3438 3.5273 7.8711 7.8711 7.8711s7.8711-3.5273 7.8711-7.8711v-7.3516c4.8945 0.58203 10.453 1.0547 15.777 1.0547 5.9023 0 11.383-0.58203 14.926-2.2812 9.0859-4.3125 20.594-23.051 25.113-30.906 1.2891-2.25 1.4023-4.9766 0.30078-7.3203-1.1016-2.3477-3.2891-3.9688-5.8555-4.375-8.9414-1.4648-30.75-4.375-39.848-0.046875-3.3047 1.5742-6.9258 5.0859-10.422 9.2422l-0.003906-27.289h97.629l101.74 188.93zm194.06-158.02c-8.8633 0.82031-16.453 0.83594-18.641-0.14062-2.1406-1.0859-6.9258-6.9922-11.887-14.375 8.8633-0.78906 16.438-0.80469 18.641 0.14062 2.1562 1.1016 6.9453 7.0078 11.887 14.375zm26.355 15.746c4.9453-7.3672 9.7305-13.258 11.887-14.375 2.2188-0.94531 9.8242-0.92969 18.641-0.14062-4.9453 7.3828-9.7461 13.289-11.871 14.359-2.2031 0.98828-9.8086 0.95703-18.656 0.15625z"/>
  <path d="m232.39 425.91c-3.0703-3.0703-8.0625-3.0703-11.133 0l-15.742 15.742c-3.0703 3.0703-3.0703 8.0625 0 11.133 1.5273 1.543 3.543 2.3125 5.5586 2.3125 2.0156 0 4.0312-0.76953 5.5742-2.2969l15.742-15.742c3.0703-3.0898 3.0703-8.0625 0-11.148z"/>
  <path d="m248.13 441.66c-3.0703-3.0703-8.0625-3.0703-11.133 0l-15.742 15.742c-3.0703 3.0703-3.0703 8.0625 0 11.133 1.5273 1.543 3.5391 2.3164 5.5547 2.3164s4.0312-0.76953 5.5742-2.2969l15.742-15.742c3.0742-3.0898 3.0742-8.0664 0.003906-11.152z"/>
  <path d="m594.5 441.66-15.742-15.742c-3.0703-3.0703-8.0625-3.0703-11.133 0-3.0703 3.0703-3.0703 8.0625 0 11.133l15.742 15.742c1.5312 1.543 3.543 2.3125 5.5586 2.3125s4.0312-0.76953 5.5742-2.2969c3.0703-3.0859 3.0703-8.0625 0-11.148z"/>
  <path d="m563.01 441.66c-3.0703-3.0703-8.0625-3.0703-11.133 0-3.0703 3.0703-3.0703 8.0625 0 11.133l15.742 15.742c1.5312 1.543 3.5469 2.3164 5.5625 2.3164s4.0312-0.76953 5.5742-2.2969c3.0703-3.0703 3.0703-8.0625 0-11.133z"/>
  <path d="m337.02 297.66c2.0156 0 4.0312-0.76953 5.5742-2.2969l15.742-15.742c3.0703-3.0703 3.0703-8.0625 0-11.133-3.0703-3.0703-8.0625-3.0703-11.133 0l-15.742 15.742c-3.0703 3.0703-3.0703 8.0625 0 11.133 1.5273 1.5234 3.543 2.2969 5.5586 2.2969z"/>
  <path d="m362.94 295.36c1.543 1.5273 3.5586 2.3008 5.5742 2.3008s4.0312-0.76953 5.5742-2.2969l15.742-15.742c3.0703-3.0703 3.0703-8.0625 0-11.133-3.0703-3.0703-8.0625-3.0703-11.133 0l-15.742 15.742c-3.0859 3.0664-3.0859 8.043-0.015625 11.129z"/>
  <path d="m236.98 342.6c1.543 1.5234 3.5586 2.2969 5.5742 2.2969s4.0312-0.76953 5.5742-2.2969l15.742-15.742c3.0703-3.0703 3.0703-8.0625 0-11.133-3.0703-3.0703-8.0625-3.0703-11.133 0l-15.742 15.742c-3.0859 3.0703-3.0859 8.0469-0.015625 11.133z"/>
  <path d="m252.73 358.34c1.543 1.5273 3.5547 2.2969 5.5703 2.2969s4.0312-0.76953 5.5742-2.2969l15.742-15.742c3.0703-3.0703 3.0703-8.0625 0-11.133-3.0703-3.0703-8.0625-3.0703-11.133 0l-15.742 15.742c-3.082 3.0703-3.082 8.0469-0.011719 11.133z"/>
  <path d="m536.12 326.85c1.543 1.5273 3.5586 2.2969 5.5742 2.2969 2.0156 0 4.0312-0.76953 5.5742-2.2969 3.0703-3.0703 3.0703-8.0625 0-11.133l-15.742-15.742c-3.0703-3.0703-8.0625-3.0703-11.133 0-3.0703 3.0703-3.0703 8.0625 0 11.133z"/>
  <path d="m536.12 358.34c1.543 1.5273 3.5586 2.2969 5.5742 2.2969 2.0156 0 4.0312-0.76953 5.5742-2.2969 3.0703-3.0703 3.0703-8.0625 0-11.133l-15.742-15.742c-3.0703-3.0703-8.0625-3.0703-11.133 0-3.0703 3.0703-3.0703 8.0625 0 11.133z"/>
  <path d="m374.08 342.6c3.0703-3.0703 3.0703-8.0625 0-11.133-1.543-1.543-3.5547-2.3164-5.5703-2.3164s-4.0312 0.76953-5.5742 2.2969l-15.742 15.742c-3.0703 3.0703-3.0703 8.0625 0 11.133 1.5391 1.5469 3.5547 2.3164 5.5703 2.3164s4.0312-0.76953 5.5742-2.2969z"/>
  <path d="m405.57 342.6c3.0703-3.0703 3.0703-8.0625 0-11.133-1.543-1.543-3.5547-2.3164-5.5703-2.3164s-4.0312 0.76953-5.5742 2.2969l-15.742 15.742c-3.0703 3.0703-3.0703 8.0625 0 11.133 1.5391 1.5469 3.5547 2.3164 5.5703 2.3164s4.0312-0.76953 5.5742-2.2969z"/>
  <path d="m431.49 407.87c2.0156 0 4.0312-0.76953 5.5742-2.2969l15.742-15.742c3.0703-3.0703 3.0703-8.0625 0-11.133-1.543-1.5469-3.5586-2.3164-5.5742-2.3164s-4.0312 0.76953-5.5742 2.2969l-15.742 15.742c-1.5273 1.5469-2.3008 3.5625-2.3008 5.5781s0.76953 4.0312 2.2969 5.5742c1.5312 1.5391 3.5625 2.2969 5.5781 2.2969z"/>
  <path d="m369.77 537.76c-8.957-1.4648-30.781-4.3594-39.832-0.0625l-0.015625 0.015626c-3.3047 1.5742-6.9258 5.0859-10.422 9.2422v-28.766c9.1484-3.2578 15.742-11.918 15.742-22.168 0-10.059-11.98-28.512-17.129-35.961-2.9609-4.25-10.012-4.25-12.957 0-5.1484 7.4609-17.129 25.914-17.129 35.961 0 10.25 6.5977 18.91 15.742 22.168v13.02c-3.4961-4.1719-7.1172-7.6836-10.422-9.2422 0 0 0-0.015625-0.015625-0.015625-9.0859-4.2969-30.859-1.4023-39.832 0.0625-2.5508 0.39453-4.7383 2.0469-5.8555 4.375-1.1016 2.332-0.99219 5.0703 0.30078 7.3203 4.5352 7.8555 16.043 26.574 25.129 30.906 3.543 1.6836 9.0195 2.2812 14.926 2.2812 5.3203 0 10.895-0.48828 15.777-1.0547l-0.007813 23.086c0 4.3438 3.5273 7.8711 7.8711 7.8711s7.8711-3.5273 7.8711-7.8711v-7.3516c4.8945 0.58203 10.453 1.0547 15.777 1.0547 5.9023 0 11.383-0.58203 14.926-2.2812 9.0859-4.3125 20.594-23.051 25.113-30.906 1.2891-2.25 1.4023-4.9766 0.30078-7.3203-1.1211-2.3164-3.3086-3.9688-5.8594-4.3633zm-89.945 12.66c-2.1406-1.0859-6.9414-6.9922-11.887-14.375 8.832-0.80469 16.422-0.83594 18.641 0.15625 2.1562 1.1016 6.9258 6.9922 11.871 14.359-8.8477 0.77344-16.438 0.78906-18.625-0.14062zm31.805-71.289c4.5352 7.6367 7.8086 14.484 7.8711 16.895 0 4.3281-3.543 7.8711-7.8711 7.8711-4.3438 0-7.8711-3.543-7.8711-7.8555 0.074219-2.4102 3.3359-9.2578 7.8711-16.91zm31.832 87.016c-2.1875 0.99219-9.793 0.97656-18.656 0.15625 4.9453-7.3672 9.7148-13.258 11.871-14.359 2.2188-0.99219 9.8086-0.97656 18.656-0.14062-4.9414 7.3555-9.7461 13.258-11.871 14.344z"/>
  <path d="m511.98 496.04c0-10.059-11.98-28.512-17.129-35.961-2.9609-4.25-10.012-4.25-12.957 0-5.1484 7.4609-17.129 25.914-17.129 35.961 0 10.25 6.5977 18.91 15.742 22.168v13.02c-3.4961-4.1719-7.1172-7.6836-10.422-9.2422l-0.015625-0.015625c-9.0859-4.2969-30.875-1.4023-39.832 0.0625-2.5508 0.39453-4.7383 2.0469-5.8555 4.375-1.1016 2.332-0.99219 5.0703 0.30078 7.3203 4.5352 7.8555 16.043 26.574 25.113 30.906 3.5586 1.6836 9.0195 2.2812 14.926 2.2812 5.3203 0 10.895-0.48828 15.777-1.0547l-0.007812 23.066c0 4.3438 3.5273 7.8711 7.8711 7.8711s7.8711-3.5273 7.8711-7.8711v-7.3516c4.8945 0.58203 10.453 1.0547 15.777 1.0547 5.9023 0 11.383-0.58203 14.926-2.2812 9.0859-4.3125 20.594-23.051 25.129-30.906 1.2891-2.25 1.4023-4.9766 0.30078-7.3203-1.1172-2.332-3.2891-3.9844-5.8555-4.375-8.957-1.4648-30.766-4.3594-39.832-0.0625l-0.015625 0.015625c-3.3047 1.5742-6.9258 5.0859-10.422 9.2422v-28.766c9.1445-3.2461 15.738-11.891 15.738-22.137zm-55.434 54.379c-2.1406-1.0859-6.9258-6.9922-11.887-14.375 8.832-0.78906 16.422-0.82031 18.641 0.15625 2.1562 1.1016 6.9258 6.9922 11.871 14.359-8.8633 0.80469-16.453 0.82031-18.625-0.14062zm56.867 1.5117c2.2344-0.99219 9.8242-0.97656 18.641-0.14063-4.9453 7.3672-9.7461 13.273-11.871 14.344-2.2031 0.99219-9.793 0.97656-18.641 0.15625 4.9453-7.3555 9.7148-13.242 11.871-14.359zm-25.047-72.801c4.5352 7.6367 7.8086 14.484 7.8711 16.895 0 4.3281-3.543 7.8711-7.8711 7.8711-4.3438 0-7.8711-3.543-7.8711-7.8555 0.0625-2.4102 3.3359-9.2578 7.8711-16.91z"/>
 </g>
</svg>