<?xml version="1.0" encoding="UTF-8"?>
<!-- The Best Svg Icon site in the world: iconSvg.co, Visit us! https://iconsvg.co -->
<svg fill="#000000" width="800px" height="800px" version="1.1" viewBox="144 144 512 512" xmlns="http://www.w3.org/2000/svg">
 <path d="m591.93 375.78 19.176 28.496c11.793-10.629 13.934-28.348 4.9766-41.484l-99.789-146.3c-18.434-27.02-49.027-43.191-81.734-43.207-50.227-0.023437-98.582 0.054688-98.582 0.054688l-0.003907 0.003906v-0.003906h-157.59l19.672 29.043c11.68 17.246 31.152 27.574 51.984 27.574h33.84c-45.551 49.438-104.6 113.33-105.49 113.36v198.38l205.45 85.02 77.934-77.934 0.003906-109.81-23.641 0.003906h-0.011719c-20.809 0-40.164-10.309-51.785-27.57l-7.6758-11.402h12.812l3.6836 5.4727c9.6367 14.324 25.703 22.879 42.965 22.879h0.011719l23.645-0.003906v-0.003906h110.27c7.793 0 15.32-2.8672 21.141-8.0547l9.9336-8.8555-19.996-29.711zm-126.62-89.137-4.3828 3.0039-8.2539-12.047c-4.6133 4.6992-11 7.4805-17.828 7.4805-12.133 0-22.48-8.6289-24.605-20.523l-1.1172-6.2461h43.215l17.355 25.336z"/>
</svg>