<?xml version="1.0" encoding="UTF-8"?>
<!-- The Best Svg Icon site in the world: iconSvg.co, Visit us! https://iconsvg.co -->
<svg fill="#000000" width="800px" height="800px" version="1.1" viewBox="144 144 512 512" xmlns="http://www.w3.org/2000/svg">
 <g>
  <path d="m366.42 521.27c-15.055 0-28.168 11.02-31.16 26.113-0.40234 1.8711-0.60937 4.0234-0.60937 6.3867 0 17.922 14.254 32.504 31.77 32.504s31.77-14.582 31.77-32.504c0-2.3828-0.21484-4.5508-0.64453-6.5547-2.9805-15.031-16.074-25.945-31.125-25.945zm0 54.93c-11.961 0-21.691-10.062-21.691-22.43 0-1.6523 0.12891-3.0859 0.39844-4.3438 2.0781-10.477 11.031-18.082 21.293-18.082 10.258 0 19.191 7.5 21.258 17.902 0.29688 1.3906 0.43359 2.8281 0.43359 4.5234 0 12.371-9.7305 22.43-21.691 22.43z"/>
  <path d="m525.92 538.36c-8.418 0-15.961 4.4531-20.168 11.91-2.1289 3.7578-3.207 7.8086-3.207 12.047 0 13.211 10.484 23.961 23.375 23.961s23.375-10.746 23.375-23.961c0-4.2383-1.082-8.2969-3.2109-12.062-4.2148-7.4492-11.75-11.895-20.164-11.895zm0 37.84c-7.332 0-13.297-6.2305-13.297-13.883 0-2.4766 0.64062-4.8555 1.9023-7.0859 2.4023-4.2539 6.6602-6.7969 11.395-6.7969s8.9922 2.5352 11.395 6.7812c1.2656 2.2344 1.9023 4.6211 1.9023 7.0977 0 7.6602-5.9688 13.887-13.297 13.887z"/>
  <path d="m579.89 451.82-60.047-12.871c1.7109-3.8555 2.7188-8.0234 2.7188-12.301v-15.465c0-18.367-14.727-33.312-32.828-33.312h-87.137c-16.648 0-30.41 12.652-32.516 28.977l-44.59-9.5586c-1.3047-0.27734-2.6406-0.03125-3.7539 0.67578l-7.2383 4.5898-27.715-199.74c-0.34375-2.4922-2.4766-4.3438-4.9883-4.3438h-74.883c-1.5977 0-3.1016 0.75781-4.0508 2.043-0.94922 1.2852-1.2344 2.9414-0.76563 4.4688l8.3945 27.422c0.64844 2.1172 2.6016 3.5664 4.8164 3.5664h41.16l24.531 187.84-9.6289 6.1094c-1.457 0.92188-2.3359 2.5273-2.3359 4.2539v111.06c0 2.7812 2.2539 5.0391 5.0391 5.0391h45.496c-0.078125 1.1523-0.16797 2.3008-0.16797 3.5039-0.003906 26.324 21.09 47.746 47.012 47.746s47.012-21.422 47.012-47.75c0-1.2109-0.089844-2.3555-0.16797-3.5039h76.016c-1.2539 3.9023-1.9766 7.9531-1.9766 12.047 0.003907 21.617 17.328 39.207 38.621 39.207s38.617-17.59 38.617-39.211c0-4.0938-0.72266-8.1445-1.9727-12.047h30.516c2.7852 0 5.0391-2.2539 5.0391-5.0391l-0.003906-70.855c0-10.805-7.6641-20.285-18.223-22.547zm-199.94-42.887c1.1133-11.762 10.84-20.984 22.641-20.984h87.137c12.547 0 22.75 10.422 22.75 23.238v15.465c0 3.582-0.94922 7.0898-2.7148 10.141l-68.703-14.727zm-114.07-178.66c-0.32422-2.5078-2.4648-4.3867-4.9922-4.3867h-41.859l-5.3086-17.344h63.684l27.742 199.94-14.77 9.3672zm100.53 361.16c-20.367 0-36.941-16.898-36.941-37.676 0-2.707 0.24609-5.2266 0.74219-7.5664 3.4648-17.449 18.688-30.113 36.195-30.113 1.0938 0 2.1797 0.050781 3.2539 0.14453 16.113 1.457 29.695 13.613 32.957 30.043 0.47656 2.2422 0.72266 4.7656 0.72266 7.4883 0.003906 20.781-16.566 37.68-36.93 37.68zm159.5 0c-15.738 0-28.539-13.07-28.539-29.133 0-5.1445 1.3047-10.059 3.8789-14.605 5.0664-8.9609 14.52-14.527 24.664-14.527 1.2695 0 2.5273 0.085937 3.7656 0.25781 1.6719 0.23047 3.293 0.66016 4.8828 1.1797 4.3008 1.4062 8.2461 3.7891 11.453 7.0391 1.7539 1.7812 3.293 3.8086 4.5586 6.0469 0 0.003906 0.003906 0.003906 0.007812 0.007813 2.5703 4.543 3.875 9.457 3.875 14.598-0.007812 16.066-12.809 29.137-28.547 29.137zm62.117-51.258h-30.262c-0.21875-0.32812-0.48438-0.61328-0.71484-0.93359-0.42578-0.59375-0.86719-1.1641-1.3242-1.7305-0.58203-0.72266-1.1836-1.4219-1.8125-2.0938-0.49219-0.52734-0.99219-1.043-1.5117-1.543-0.66406-0.63672-1.3516-1.2383-2.0547-1.8242-0.55078-0.45703-1.0977-0.91016-1.6719-1.3359-0.73828-0.54687-1.5039-1.0508-2.2773-1.543-0.59375-0.37891-1.1797-0.76172-1.793-1.1094-0.8125-0.46094-1.6562-0.85938-2.5-1.2578-0.62109-0.29297-1.2266-0.60156-1.8633-0.85938-0.90625-0.36719-1.8359-0.66406-2.7656-0.96484-0.61328-0.19531-1.2148-0.42578-1.8398-0.58984-1.0508-0.28125-2.125-0.46875-3.2031-0.65625-0.53516-0.09375-1.0547-0.23047-1.5938-0.30469-1.625-0.21484-3.2734-0.33594-4.9375-0.33594-1.6641 0-3.3086 0.12109-4.9336 0.33594-0.53906 0.070313-1.0625 0.21094-1.5977 0.30469-1.0742 0.1875-2.1484 0.37891-3.1992 0.65625-0.625 0.16797-1.2266 0.39453-1.8438 0.59375-0.92188 0.29297-1.8477 0.58594-2.75 0.95312-0.64062 0.26172-1.2539 0.57422-1.8789 0.86719-0.83984 0.39453-1.6758 0.79297-2.4844 1.25-0.62109 0.34766-1.2109 0.73828-1.8125 1.1211-0.76562 0.48828-1.5234 0.98828-2.2539 1.5312-0.58203 0.43359-1.1367 0.89062-1.6953 1.3555-0.69531 0.57812-1.3711 1.1719-2.0234 1.7969-0.53125 0.50781-1.0391 1.0352-1.543 1.5781-0.61328 0.66016-1.2031 1.3438-1.7734 2.0508-0.46875 0.58203-0.92188 1.168-1.3594 1.7773-0.22266 0.3125-0.48047 0.58984-0.69531 0.91016h-82.562c0-0.007812-0.003906-0.011719-0.007812-0.019531-0.007812-0.023438-0.015625-0.046875-0.023438-0.070313-0.37109-1.2695-0.79687-2.5156-1.2656-3.7344-0.15234-0.39844-0.33594-0.77734-0.5-1.168-0.34766-0.83594-0.69531-1.668-1.0859-2.4766-0.22266-0.46094-0.47656-0.90234-0.71484-1.3555-0.375-0.71484-0.74609-1.4258-1.1562-2.1172-0.27734-0.46875-0.57812-0.91406-0.87109-1.3711-0.41016-0.64453-0.82422-1.2891-1.2656-1.9141-0.32422-0.45703-0.66797-0.89453-1.0078-1.3398-0.44922-0.58984-0.90234-1.1758-1.375-1.7422-0.36719-0.4375-0.75-0.85938-1.1328-1.2812-0.48437-0.53906-0.97656-1.0703-1.4844-1.5859-0.40625-0.41016-0.82031-0.80469-1.2422-1.1992-0.52344-0.49219-1.0508-0.97266-1.5977-1.4414-0.4375-0.375-0.88281-0.74219-1.3359-1.1016-0.55859-0.44531-1.125-0.87891-1.7031-1.2969-0.46875-0.33984-0.94141-0.67188-1.4219-0.99609-0.59375-0.39844-1.1953-0.77734-1.8047-1.1484-0.49609-0.30078-0.98828-0.59766-1.4961-0.88281-0.62891-0.35156-1.2695-0.67969-1.9141-1-0.51172-0.25781-1.0195-0.51172-1.543-0.75-0.66797-0.30469-1.3477-0.57812-2.0273-0.85156-0.52344-0.21094-1.043-0.42578-1.5781-0.61719-0.70703-0.25391-1.4258-0.46875-2.1445-0.6875-0.52734-0.16016-1.0508-0.33594-1.5898-0.47656-0.76172-0.19922-1.5352-0.35938-2.3086-0.52344-0.51172-0.10937-1.0195-0.23437-1.5391-0.32812-0.87109-0.15234-1.7539-0.25391-2.6367-0.35547-0.4375-0.050781-0.86328-0.12891-1.3047-0.16406-1.3281-0.11719-2.6719-0.17969-4.0234-0.17969-1.3555 0-2.6953 0.0625-4.0234 0.17969-0.4375 0.039063-0.86719 0.11328-1.3047 0.16406-0.88281 0.10156-1.7656 0.20312-2.6367 0.35547-0.51953 0.089843-1.0273 0.21875-1.543 0.32812-0.76953 0.16406-1.5391 0.32031-2.2969 0.51953-0.54687 0.14453-1.082 0.32031-1.6211 0.48438-0.70703 0.21484-1.4102 0.42578-2.1016 0.67188-0.55469 0.19922-1.0977 0.42188-1.6445 0.64062-0.65625 0.26172-1.3086 0.52344-1.9492 0.81641-0.55469 0.25391-1.0977 0.52734-1.6445 0.80078-0.60547 0.30469-1.2031 0.60938-1.793 0.9375-0.55078 0.30859-1.0938 0.63281-1.6328 0.96094-0.55078 0.33594-1.0977 0.67969-1.6367 1.0391-0.54297 0.36328-1.0781 0.73828-1.6055 1.125-0.50391 0.36719-1 0.74219-1.4844 1.1289-0.53125 0.41797-1.0508 0.84766-1.5625 1.2891-0.44922 0.39062-0.89062 0.78906-1.3281 1.1992-0.51172 0.47656-1.0195 0.96094-1.5117 1.4609-0.39844 0.40625-0.78125 0.82031-1.1641 1.2383-0.49219 0.53906-0.98047 1.082-1.4492 1.6445-0.34375 0.41406-0.67188 0.83984-1 1.2656-0.46484 0.60156-0.93359 1.1992-1.3711 1.8242-0.29297 0.41406-0.5625 0.84766-0.84375 1.2695-0.4375 0.66406-0.87109 1.3242-1.2773 2.0117-0.24219 0.41016-0.45703 0.83984-0.6875 1.2578-0.39844 0.72656-0.79688 1.4453-1.1602 2.1953-0.19922 0.41016-0.36719 0.83984-0.55078 1.2539-0.34766 0.78125-0.70312 1.5547-1.0117 2.3594-0.16797 0.4375-0.29687 0.89453-0.45312 1.3359-0.27734 0.79688-0.57031 1.5859-0.80859 2.4062h-42.219l0.023437-103.23 16.996-10.781 17.176-10.883c0.019532-0.011719 0.03125-0.03125 0.050782-0.042969l12.07-7.6562 117.16 25.117 68.363 14.688c0.10156 0.023438 0.19922 0.015626 0.30078 0.03125l66.559 14.27c5.9375 1.2695 10.254 6.6094 10.254 12.688z"/>
  <path d="m581.42 498.09c-0.5-0.45312-1.0586-0.80469-1.6641-1.0586-1.8633-0.80859-4.0781-0.30078-5.4922 1.0586-0.45312 0.50391-0.80859 1.0078-1.1055 1.6641-0.25391 0.60547-0.35547 1.2578-0.35547 1.9141 0 1.3125 0.5 2.6211 1.4609 3.5781 0.96094 0.90625 2.2188 1.4609 3.5781 1.4609 1.3086 0 2.6172-0.55469 3.5781-1.4609 0.90625-0.95703 1.4609-2.2656 1.4609-3.5781 0-0.65625-0.15234-1.3086-0.40234-1.9141-0.25-0.65625-0.60547-1.1602-1.0586-1.6641z"/>
  <path d="m577.84 491.45c2.7852 0 5.0391-2.2539 5.0391-5.0391v-12.047c0-3.6562-2.5977-6.8672-6.168-7.6328l-201.06-43.129c-2.707-0.58594-5.4023 1.1445-5.9844 3.8672-0.58594 2.7227 1.1445 5.3984 3.8672 5.9844l199.27 42.75v10.211c0 2.7812 2.2539 5.0352 5.0391 5.0352z"/>
  <path d="m360.4 420.34-5.082-1.0859c-2.7109-0.59375-5.3984 1.1523-5.9766 3.875-0.58594 2.7227 1.1523 5.3984 3.8711 5.9805l5.082 1.0859c0.35547 0.078125 0.70703 0.10938 1.0586 0.10938 2.3281 0 4.4141-1.6172 4.9219-3.9844 0.58203-2.7188-1.1562-5.3945-3.875-5.9805z"/>
  <path d="m489.74 393.12c-2.7852 0-5.0391 2.2539-5.0391 5.0391 0 2.7812 2.2539 5.0391 5.0391 5.0391 4.1367 0 7.5039 3.5859 7.5039 7.9883 0 2.7812 2.2539 5.0391 5.0391 5.0391s5.0391-2.2539 5.0391-5.0391c0-9.9609-7.8867-18.066-17.582-18.066z"/>
  <path d="m471.13 393.12h-58.371c-2.7852 0-5.0391 2.2539-5.0391 5.0391 0 2.7812 2.2539 5.0391 5.0391 5.0391h58.371c2.7852 0 5.0391-2.2539 5.0391-5.0391-0.003906-2.7812-2.2539-5.0391-5.0391-5.0391z"/>
 </g>
</svg>