<?xml version="1.0" encoding="UTF-8"?>
<!-- The Best Svg Icon site in the world: iconSvg.co, Visit us! https://iconsvg.co -->
<svg fill="#000000" width="800px" height="800px" version="1.1" viewBox="144 144 512 512" xmlns="http://www.w3.org/2000/svg">
 <g>
  <path d="m470.14 320.79c-7.0039-16.953-23.484-28.109-42.066-28.109-11.375 0-22.27 4.2734-30.613 11.871-8.3477-7.5977-19.242-11.871-30.617-11.871-18.582 0-35.055 11.156-42.059 28.098-23.473 1.8047-42.023 21.484-42.023 45.41 0 7.0117 1.6484 13.957 4.7852 20.254-3.1406 6.2969-4.7852 13.238-4.7852 20.254 0 23.754 18.391 43.398 41.684 45.367 6.793 17.426 23.402 28.902 42.391 28.902 9.2148 0 18.094-2.8477 25.578-7.9492v72.262h-32.32c-2.7852 0-5.0391 2.2578-5.0391 5.0391s2.2539 5.0391 5.0391 5.0391h74.684c2.7852 0 5.0391-2.2578 5.0391-5.0391s-2.2539-5.0391-5.0391-5.0391h-32.289l0.003906-72.266c7.4805 5.1055 16.355 7.9492 25.574 7.9492 18.977 0 35.586-11.461 42.387-28.875 23.406-1.875 41.875-21.523 41.875-45.395 0-7.0117-1.6484-13.957-4.7852-20.254 3.1406-6.2969 4.7852-13.238 4.7852-20.254 0.011719-23.922-18.535-43.602-42.188-45.395zm27.336 68.176c3.1328 5.4062 4.7852 11.531 4.7852 17.723 0 19.539-15.895 35.449-35.438 35.465-2.2109 0-4.1719 1.457-4.8164 3.5703-4.5664 15.043-18.203 25.156-33.93 25.156-10.273 0-20.047-4.4844-26.801-12.293-0.035156-0.039063-0.097656-0.058594-0.13281-0.10156-0.34375-0.37109-0.76172-0.64844-1.2031-0.90234-0.15625-0.089843-0.27734-0.22266-0.4375-0.29688-0.625-0.27734-1.3047-0.44141-2.0312-0.44141-0.72656 0-1.4062 0.16797-2.0312 0.44141-0.16797 0.074219-0.29297 0.21094-0.45312 0.30078-0.4375 0.25-0.85156 0.52734-1.1953 0.89844-0.039063 0.039063-0.097656 0.054687-0.13281 0.10156-6.7656 7.8125-16.535 12.293-26.809 12.293-15.734 0-29.367-10.113-33.926-25.164-0.64063-2.1172-2.5859-3.5664-4.7969-3.5781-19.445-0.10547-35.277-16.008-35.277-35.453 0-6.1914 1.6523-12.316 4.7852-17.723 0.90625-1.5625 0.90625-3.4883 0-5.0469-3.1328-5.4102-4.7852-11.543-4.7852-17.73 0-19.523 15.852-35.406 35.355-35.469 2.2148 0.17969 4.2539-1.3555 4.9375-3.4766 4.7617-14.645 18.309-24.484 33.703-24.484 10.273 0 20.047 4.4844 26.809 12.293 1.9102 2.207 5.707 2.2109 7.6172 0 6.7617-7.8125 16.531-12.293 26.801-12.293 15.406 0 28.953 9.8438 33.715 24.496 0.67578 2.0742 2.8203 3.4648 5.0039 3.4648 19.559 0 35.469 15.91 35.469 35.469 0 6.1914-1.6523 12.316-4.7852 17.73-0.90625 1.5664-0.90625 3.4883 0 5.0508z"/>
  <path d="m369.59 416.28c-9.8828 0-17.926 8.0391-17.926 17.926 0 9.8828 8.0391 17.926 17.926 17.926 9.8828 0 17.926-8.0391 17.926-17.926s-8.043-17.926-17.926-17.926zm0 25.77c-4.3242 0-7.8477-3.5234-7.8477-7.8477 0-4.3281 3.5234-7.8477 7.8477-7.8477 4.3281 0 7.8477 3.5234 7.8477 7.8477s-3.5273 7.8477-7.8477 7.8477z"/>
  <path d="m395.36 360.25c-9.8828 0-17.926 8.0391-17.926 17.926 0 9.8828 8.0391 17.926 17.926 17.926 9.8828 0 17.926-8.0391 17.926-17.926 0-9.8828-8.043-17.926-17.926-17.926zm0 25.777c-4.3242 0-7.8477-3.5234-7.8477-7.8477 0-4.3281 3.5234-7.8477 7.8477-7.8477 4.3281 0 7.8477 3.5234 7.8477 7.8477s-3.5195 7.8477-7.8477 7.8477z"/>
  <path d="m335.02 379c-9.8828 0-17.926 8.0391-17.926 17.926 0 9.8828 8.0391 17.926 17.926 17.926 9.8828 0 17.926-8.0391 17.926-17.926s-8.043-17.926-17.926-17.926zm0 25.77c-4.3242 0-7.8477-3.5234-7.8477-7.8477 0-4.3281 3.5234-7.8477 7.8477-7.8477 4.3281 0 7.8477 3.5234 7.8477 7.8477 0.003907 4.3242-3.5234 7.8477-7.8477 7.8477z"/>
  <path d="m359.54 353.89c9.8828 0 17.926-8.0391 17.926-17.926 0-9.8828-8.0391-17.926-17.926-17.926-9.8828 0-17.926 8.0391-17.926 17.926s8.0391 17.926 17.926 17.926zm0-25.773c4.3242 0 7.8477 3.5234 7.8477 7.8477 0 4.3281-3.5234 7.8477-7.8477 7.8477-4.3281 0-7.8477-3.5234-7.8477-7.8477-0.003906-4.3281 3.5195-7.8477 7.8477-7.8477z"/>
  <path d="m449.45 341.36c0-9.8828-8.0391-17.926-17.926-17.926-9.8867 0-17.922 8.0391-17.922 17.926 0 9.8828 8.0391 17.926 17.926 17.926 9.8828 0 17.922-8.043 17.922-17.926zm-25.773 0c0-4.3281 3.5234-7.8477 7.8477-7.8477 4.3281 0 7.8477 3.5234 7.8477 7.8477 0 4.3281-3.5234 7.8477-7.8477 7.8477-4.3242 0-7.8477-3.5195-7.8477-7.8477z"/>
  <path d="m469 358.42c-9.8828 0-17.926 8.0391-17.926 17.926 0 9.8828 8.0391 17.926 17.926 17.926 9.8828 0 17.926-8.0391 17.926-17.926 0-9.8828-8.0391-17.926-17.926-17.926zm0 25.77c-4.3242 0-7.8477-3.5234-7.8477-7.8477 0-4.3281 3.5234-7.8477 7.8477-7.8477 4.3281 0 7.8477 3.5234 7.8477 7.8477 0.003907 4.3281-3.5195 7.8477-7.8477 7.8477z"/>
  <path d="m437.32 403.39c-9.8828 0-17.926 8.0391-17.926 17.926 0 9.8828 8.0391 17.926 17.926 17.926 9.8828 0 17.926-8.0391 17.926-17.926 0-9.8867-8.0391-17.926-17.926-17.926zm0 25.773c-4.3242 0-7.8477-3.5234-7.8477-7.8477 0-4.3281 3.5234-7.8477 7.8477-7.8477 4.3281 0 7.8477 3.5234 7.8477 7.8477 0.003906 4.3242-3.5195 7.8477-7.8477 7.8477z"/>
  <path d="m203.11 208.55h74.387v18.262h-44.582c-2.7852 0-5.0391 2.2578-5.0391 5.0391v364.63c0 2.7812 2.2539 5.0391 5.0391 5.0391h333.36c2.7852 0 5.0391-2.2578 5.0391-5.0391v-364.63c0-2.7812-2.2539-5.0391-5.0391-5.0391h-44.582v-18.262h74.391c2.7852 0 5.0391-2.2578 5.0391-5.0391s-2.2539-5.0391-5.0391-5.0391h-392.97c-2.7852 0-5.0391 2.2578-5.0391 5.0391 0.003906 2.7812 2.2578 5.0391 5.043 5.0391zm358.12 28.34v354.55h-323.28v-354.55h39.543v19.289c-10.098 2.3008-17.672 11.316-17.672 22.102 0 12.52 10.188 22.707 22.711 22.707s22.711-10.188 22.711-22.707c0-10.785-7.5781-19.801-17.672-22.102v-19.289h224.04v19.289c-10.098 2.3008-17.668 11.316-17.668 22.102 0 12.52 10.184 22.707 22.707 22.707 12.523 0 22.711-10.188 22.711-22.707 0-10.785-7.5781-19.801-17.672-22.102v-19.289zm-278.7 28.758c6.9688 0 12.637 5.668 12.637 12.629 0 6.9609-5.668 12.629-12.637 12.629s-12.637-5.668-12.637-12.629c0-6.9609 5.668-12.629 12.637-12.629zm234.11 0c6.9688 0 12.637 5.668 12.637 12.629 0 6.9609-5.668 12.629-12.637 12.629-6.9609 0-12.629-5.668-12.629-12.629 0-6.9609 5.668-12.629 12.629-12.629zm-5.0352-38.836h-224.04l-0.003906-18.262h224.04z"/>
 </g>
</svg>