<?xml version="1.0" encoding="UTF-8"?>
<!-- The Best Svg Icon site in the world: iconSvg.co, Visit us! https://iconsvg.co -->
<svg fill="#000000" width="800px" height="800px" version="1.1" viewBox="144 144 512 512" xmlns="http://www.w3.org/2000/svg">
 <g>
  <path d="m460.5 388.21h-0.18359c-5.418 0.046875-10.52 2.1953-14.371 6.0469-0.13281 0.12891-0.25391 0.26953-0.36719 0.41406l-11.66 14.566c-16.762-9.3359-37.016-11.078-55.547-4.457-1.3242 0.47266-2.3867 1.4727-2.9375 2.7617-0.55078 1.2891-0.54297 2.75 0.023437 4.0312 0.054688 0.12109 0.28516 0.62109 0.65625 1.3594-7.832 3.6953-15.023 8.6641-21.336 14.977-13.02 13.02-23.258 32.332-27.391 51.664-4.6758 21.867-1.0078 40.156 10.328 51.488 8.5547 8.5547 20.742 12.277 34.121 12.277 23.898 0 51.578-11.891 69.027-29.344 6.2617-6.2617 11.203-13.387 14.891-21.145 0.87109 0.39453 1.4648 0.62891 1.6016 0.67969 0.57422 0.21875 1.1758 0.32812 1.7812 0.32812 0.72266 0 1.4531-0.15625 2.1211-0.46875 1.2305-0.57031 2.1758-1.6094 2.6289-2.8906 6.3477-17.926 4.5703-37.82-4.668-55.562l14.855-11.715c0.15625-0.12109 0.30469-0.25391 0.44141-0.39453 3.8516-3.8516 6.0039-8.957 6.0469-14.371 0.046875-5.4492-2.0352-10.559-5.8633-14.383-3.7852-3.7852-8.8203-5.8633-14.199-5.8633zm-25.957 33.293c0.078125 0.050781 7.8633 5.1328 12.723 12.746 9.4414 14.789 12.52 31.758 8.7578 47.379-5.9688-3.4961-15.652-10.852-18.98-23.094-0.42969-1.5781-1.5938-2.8477-3.1289-3.4102-0.56641-0.20703-1.1523-0.30859-1.7305-0.30859-1.0078 0-2.0078 0.30078-2.8633 0.89453-6.5195 4.5-16.043 9.5859-26.309 10.074 0.49609-10.461 5.7617-20.164 10.414-26.797 0.95312-1.3633 1.1797-3.1094 0.59375-4.668-0.58594-1.5586-1.9023-2.7266-3.5234-3.1211-11.395-2.7891-19.148-12.555-23-18.652 16.211-3.9961 33.367-0.82422 47.047 8.957zm-0.80469 85.367c-23.344 23.352-69.895 36.07-88.898 17.066-19.008-19.008-6.293-65.547 17.062-88.902 5.7617-5.7617 12.344-10.238 19.523-13.473 4.3125 5.9492 10.977 13.098 20.168 17.191-5.1055 8.6602-9.6445 20.105-8.5312 32.414 0.22266 2.4258 2.1406 4.3477 4.5664 4.5664 12.113 1.0742 23.395-3.2969 31.938-8.2539 4.3047 9.6484 11.449 16.211 17.426 20.352-3.2188 6.9883-7.6211 13.406-13.254 19.039zm33.84-91.359-13.637 10.754c-4.0508-5.4453-8.8047-9.457-11.535-11.512l10.844-13.543c1.9492-1.8594 4.4766-2.8945 7.1523-2.918 2.7422-0.003906 5.2695 1.0117 7.168 2.9102 1.9023 1.9023 2.9375 4.4492 2.9141 7.1719-0.019531 2.6602-1.0508 5.1875-2.9062 7.1367z"/>
  <path d="m382.59 450.52 2.2773-7.2148c0.83984-2.6562-0.62891-5.4844-3.2852-6.3203-2.6406-0.83984-5.4844 0.63281-6.3164 3.2852l-2.2773 7.2148c-0.83984 2.6562 0.62891 5.4844 3.2852 6.3203 0.5 0.16016 1.0117 0.23438 1.5156 0.23438 2.1406 0.003906 4.1289-1.3711 4.8008-3.5195z"/>
  <path d="m354.9 496.97c-2.6406-0.83203-5.4844 0.63672-6.3164 3.2852l-2.2773 7.2109c-0.83984 2.6562 0.62891 5.4844 3.2852 6.3203 0.5 0.16016 1.0117 0.23438 1.5156 0.23438 2.1406 0 4.1289-1.375 4.8008-3.5234l2.2773-7.2109c0.83984-2.6484-0.62891-5.4766-3.2852-6.3164z"/>
  <path d="m415.64 495.93c-2.6367-0.84375-5.4844 0.63672-6.3164 3.2852l-2.2773 7.2148c-0.83984 2.6562 0.62891 5.4844 3.2852 6.3203 0.5 0.16016 1.0117 0.23438 1.5156 0.23438 2.1406 0 4.1289-1.375 4.8008-3.5234l2.2773-7.2148c0.84375-2.6484-0.62891-5.4766-3.2852-6.3164z"/>
  <path d="m386.03 500.91c-2.6602-0.84766-5.4844 0.63281-6.3203 3.2852l-2.2812 7.2109c-0.83984 2.6523 0.62891 5.4844 3.2812 6.3242 0.50781 0.16016 1.0195 0.23438 1.5195 0.23438 2.1406 0 4.1211-1.3711 4.8008-3.5195l2.2812-7.2109c0.83984-2.6484-0.63281-5.4805-3.2812-6.3242z"/>
  <path d="m363.82 477.02-7.168 2.4297c-2.6328 0.89453-4.043 3.7539-3.1523 6.3867 0.71484 2.1016 2.6719 3.4258 4.7734 3.4258 0.53516 0 1.082-0.085938 1.6172-0.26953l7.168-2.4297c2.6328-0.89453 4.043-3.7539 3.1523-6.3867-0.89453-2.6328-3.7422-4.0391-6.3906-3.1562z"/>
  <path d="m367.3 457.48-7.4102-1.4688c-2.7266-0.54688-5.3828 1.2344-5.918 3.9648-0.54297 2.7266 1.2305 5.3789 3.9609 5.9219l7.4102 1.4688c0.32812 0.066406 0.66016 0.097656 0.98438 0.097656 2.3555 0 4.4609-1.6602 4.9336-4.0586 0.54297-2.7344-1.2305-5.3867-3.9609-5.9258z"/>
  <path d="m429.25 479.11-7.4062-1.4727c-2.7656-0.55469-5.3867 1.2344-5.9219 3.9609-0.54688 2.7266 1.2305 5.3789 3.957 5.9219l7.4062 1.4727c0.33594 0.066406 0.66406 0.097656 0.98828 0.097656 2.3555 0 4.4609-1.6562 4.9336-4.0547 0.54297-2.7305-1.2305-5.3828-3.957-5.9258z"/>
  <path d="m395.87 484.68-7.4102-1.4688c-2.7266-0.54688-5.3828 1.2344-5.918 3.9648-0.54297 2.7266 1.2305 5.3789 3.9609 5.9219l7.4102 1.4688c0.32812 0.066407 0.66016 0.097657 0.98438 0.097657 2.3555 0 4.4609-1.6602 4.9336-4.0586 0.53906-2.7344-1.2305-5.3867-3.9609-5.9258z"/>
  <path d="m565.41 338.62v-29.32c0-13.41-10.906-24.32-24.316-24.32h-0.38281c-1.207-24.473-21.434-44.027-46.199-44.027-6.4805 0-12.855 1.3672-18.75 3.9883-8.3906-27.281-33.875-46.461-62.941-46.461-22.98 0-43.949 11.812-55.93 31.16-9.7305-5.3984-20.645-8.2305-31.867-8.2305-35.547 0-64.527 28.32-65.746 63.57h-0.38281c-13.406 0-24.316 10.91-24.316 24.32v29.32c0 8.6172 4.5352 16.156 11.312 20.477l-9.9375 171.86-8.6562 17.887c-11.551 12.223-11.344 31.566 0.62109 43.531 5.9023 5.8984 13.746 9.1484 22.086 9.1484 8.3438 0 16.188-3.25 22.086-9.1484l5.4336-5.4297c19.125 4.4297 131.91 28.125 244.98 0.027344l5.4023 5.4023c5.8984 5.8984 13.738 9.1484 22.082 9.1484 8.3398 0 16.184-3.25 22.082-9.1484 11.965-11.965 12.172-31.309 0.62109-43.531l-8.6562-17.887-9.9375-171.86c6.7812-4.3203 11.316-11.859 11.316-20.477zm-240.39-107.13c11.039 0 21.723 3.2344 30.898 9.3516 1.1953 0.79297 2.6719 1.0391 4.0625 0.68359 1.3867-0.36328 2.5586-1.3008 3.2109-2.5742 9.6172-18.75 28.633-30.395 49.625-30.395 26.527 0 49.531 18.859 54.699 44.844 0.32422 1.6328 1.4258 2.9922 2.957 3.6484 1.5195 0.66016 3.2773 0.51562 4.6797-0.375 5.8242-3.6914 12.516-5.6406 19.355-5.6406 19.211 0 34.934 15.035 36.125 33.949h-261.29c1.2148-29.691 25.688-53.492 55.672-53.492zm229.01 301.05c0.035156 0.66016 0.20703 1.3086 0.49219 1.9023l9.4453 19.523c0.24609 0.50781 0.57422 0.96875 0.97266 1.3672 8.2461 8.25 8.2461 21.672 0 29.918-3.9922 4-9.3086 6.1992-14.957 6.1992-5.6523 0-10.965-2.1992-14.961-6.1953l-7.4258-7.4258c-1.2539-1.2578-3.0859-1.7539-4.8125-1.3203-121.81 31.207-244.35 0.32031-245.58 0.003906-1.7383-0.45703-3.5664 0.054688-4.8203 1.3164l-7.4258 7.4258c-3.9922 3.9961-9.3047 6.1953-14.957 6.1953-5.6484 0-10.961-2.1992-14.957-6.1953-8.2461-8.25-8.2461-21.672 0-29.918 0.39844-0.39844 0.72656-0.85938 0.97266-1.3672l9.4453-19.523c0.28516-0.59375 0.45703-1.2422 0.49219-1.9023l9.8203-169.92c1.0312 0.13281 2.0469 0.31641 3.1133 0.31641h282.2c1.0664 0 2.082-0.17969 3.1133-0.31641zm1.3047-193.92c0 7.8516-6.3867 14.242-14.238 14.242l-282.2-0.003906c-7.8516 0-14.238-6.3867-14.238-14.242v-29.32c0-7.8555 6.3867-14.242 14.238-14.242h282.2c7.8516 0 14.238 6.3867 14.238 14.242z"/>
 </g>
</svg>