<?xml version="1.0" encoding="UTF-8"?>
<!-- The Best Svg Icon site in the world: iconSvg.co, Visit us! https://iconsvg.co -->
<svg fill="#000000" width="800px" height="800px" version="1.1" viewBox="144 144 512 512" xmlns="http://www.w3.org/2000/svg">
 <g>
  <path d="m204.02 601.52h392.97c3.0234 0 5.0391-2.0156 5.0391-5.0391s-2.0156-5.0391-5.0391-5.0391h-45.848v-42.32c8.5664-0.50391 24.688-2.5195 35.77-13.602 14.609-15.113 12.594-40.305 12.594-41.312 0-2.5195-2.0156-4.5352-4.5352-4.5352-0.50391 0-13.602-1.0078-26.199 4.0312 1.0078-4.0312 2.0156-8.0625 2.0156-12.09 0-22.168-19.648-39.297-20.656-40.305-2.0156-1.5117-4.5352-1.5117-6.5508 0-1.0078 0.50391-21.16 17.633-21.16 39.801 0 5.0391 1.0078 9.5742 2.5195 14.105-14.102-5.543-28.207-4.5352-29.215-4.0312-2.5195 0-4.5352 2.0156-4.5352 4.5352 0 1.0078-1.5117 26.199 13.602 40.809 11.082 10.578 27.711 12.594 36.273 12.594l0.003906 42.32h-134.52v-60.961c10.578 0 34.258-2.5195 49.375-18.137 19.648-20.152 16.625-53.906 16.625-55.418 0-2.5195-2.0156-4.5352-4.5352-4.5352-1.0078 0-21.16-1.0078-39.297 7.0547 2.5195-6.0469 4.0312-13.098 4.0312-20.152 0.50391-29.223-26.199-52.395-27.207-53.402-2.0156-1.5117-4.5352-1.5117-6.5508 0-1.0078 1.0078-28.215 23.68-28.215 52.898 0 8.0625 2.0156 15.617 5.0391 22.672-19.145-9.5742-41.312-7.5586-42.32-7.5586-2.5195 0-4.5352 2.0156-4.5352 4.5352 0 1.5117-2.0156 35.266 18.137 54.914 15.113 14.609 38.289 16.625 48.871 16.625h1.0078l0.003906 61.465h-135.02v-42.32c8.5664-0.50391 24.688-2.5195 35.77-13.602 14.609-15.113 12.594-40.305 12.594-41.312 0-2.5195-2.0156-4.5352-4.5352-4.5352-0.50391 0-13.602-1.0078-26.199 4.0312 1.0078-4.0312 2.0156-8.0625 2.0156-12.09 0-22.168-19.648-39.297-20.656-40.305-2.0156-1.5117-4.5352-1.5117-6.5508 0-1.0078 0.50391-21.16 17.633-21.16 39.801 0 5.0391 1.0078 9.5742 2.5195 14.105-13.602-5.543-27.711-4.5352-28.719-4.0312-2.5195 0-4.5352 2.0156-4.5352 4.5352 0 1.0078-1.5117 26.199 13.602 40.809 11.082 10.578 27.711 12.594 36.273 12.594l0.011718 42.32h-47.863c-3.0234 0-5.0391 2.0156-5.0391 5.0391s2.0156 5.0391 4.5352 5.0391zm375.34-73.055c-8.0625 8.5664-21.664 10.078-28.719 10.578v-1.5117c0.50391-7.0547 2.0156-19.145 9.5742-27.207 8.0625-8.5664 21.664-10.078 28.719-10.578-0.003907 7.0547-1.0117 20.156-9.5742 28.719zm-32.75-76.074c5.0391 5.543 13.602 16.625 13.602 29.223 0 12.594-9.0703 23.68-14.105 29.223-5.0391-5.543-13.602-16.625-13.602-29.223 0-12.598 8.5664-24.184 14.105-29.223zm-34.762 77.082c-8.5664-8.0625-10.078-21.664-10.578-28.719 7.0547 0 20.152 1.5117 28.719 9.5742s10.078 21.664 10.578 28.719c-6.5508 0-20.152-1.5117-28.719-9.5742zm-62.977-24.184c-12.594 12.594-33.25 14.609-42.32 15.113v-4.5352c0.50391-10.078 3.0234-27.207 13.602-37.785 12.594-13.098 33.25-15.113 42.32-15.113 0.50781 8.5664-1.0039 29.223-13.602 42.32zm-46.852-108.32c6.5508 6.5508 20.656 23.68 20.656 42.824s-14.609 35.77-21.16 42.32c-6.5508-6.5508-20.656-23.68-20.656-42.824s14.609-35.773 21.16-42.32zm-48.367 109.32c-13.098-12.594-15.113-33.25-15.113-42.32 9.0703 0 29.727 1.5117 42.824 13.602 13.098 12.594 15.113 33.25 15.113 42.32-9.0703 0.50781-29.727-1.0039-42.824-13.602zm-62.977 22.168c-8.0625 8.5664-21.664 10.078-28.719 10.578v-1.5117c0.50391-7.0547 2.0156-19.145 9.5742-27.207 8.0625-8.5664 21.664-10.078 28.719-10.578 0 7.0547-1.5117 20.156-9.5742 28.719zm-33.25-76.074c5.0391 5.543 13.602 16.625 13.602 29.223 0 12.594-9.0703 23.68-14.105 29.223-5.0391-5.543-13.602-16.625-13.602-29.223-0.003906-13.102 9.0664-24.184 14.105-29.223zm-34.766 77.082c-8.5664-8.0625-10.078-21.664-10.578-28.719 7.0547 0 20.152 1.5117 28.719 9.5742s10.078 21.664 10.578 28.719c-6.5508 0-20.152-1.5117-28.719-9.5742z"/>
  <path d="m364.23 280.09c0 20.152 16.625 36.777 36.777 36.777s36.777-16.625 36.777-36.777-16.625-36.777-36.777-36.777c-20.148-0.003906-36.777 16.625-36.777 36.777zm62.977 0c0 14.609-12.09 26.703-26.703 26.703-14.609 0-26.703-12.09-26.703-26.703 0-14.609 12.09-26.703 26.703-26.703s26.703 12.09 26.703 26.703z"/>
  <path d="m401.01 229.21c3.0234 0 5.0391-2.0156 5.0391-5.0391v-19.648c0-3.0234-2.0156-5.0391-5.0391-5.0391-3.0234 0-5.0391 2.0156-5.0391 5.0391v19.648c0 3.0234 2.0156 5.0391 5.0391 5.0391z"/>
  <path d="m368.76 234.25c1.0078 1.5117 2.5195 2.5195 4.5352 2.5195 1.0078 0 1.5117 0 2.5195-0.50391 2.5195-1.5117 3.0234-4.5352 2.0156-7.0547l-9.5742-17.129c-1.5117-2.5195-4.5352-3.0234-7.0547-2.0156-2.5195 1.5117-3.0234 4.5352-2.0156 7.0547z"/>
  <path d="m332.99 246.34 16.625 10.078c1.0078 0.50391 1.5117 0.50391 2.5195 0.50391 1.5117 0 3.5273-1.0078 4.5352-2.5195 1.5117-2.5195 0.50391-5.543-2.0156-7.0547l-16.625-10.078c-2.5195-1.5117-5.543-0.50391-7.0547 2.0156-1.5117 2.5195 0 5.543 2.0156 7.0547z"/>
  <path d="m324.93 284.12 19.648 0.50391c2.5195 0 5.0391-2.0156 5.0391-5.0391 0-3.0234-2.0156-5.0391-5.0391-5.0391l-19.145-0.5c-2.5195 0-5.0391 2.0156-5.0391 5.0391-0.5 2.5156 2.0156 5.0352 4.5352 5.0352z"/>
  <path d="m349.11 302.76-17.129 9.5742c-2.5195 1.5117-3.5273 4.5352-2.0156 7.0547 1.0078 1.5117 2.5195 2.5195 4.5352 2.5195 1.0078 0 1.5117 0 2.5195-0.50391l17.129-9.5742c2.5195-1.5117 3.5273-4.5352 2.0156-7.0547-1.5117-2.5195-4.5352-3.0234-7.0547-2.0156z"/>
  <path d="m358.69 349.11c1.0078 0.50391 1.5117 0.50391 2.5195 0.50391 1.5117 0 3.5273-1.0078 4.5352-2.5195l10.078-16.625c1.5117-2.5195 0.50391-5.543-1.5117-7.0547-2.5195-1.5117-5.543-0.50391-7.0547 1.5117l-10.078 16.625c-1.5117 3.0234-1.0078 6.0469 1.5117 7.5586z"/>
  <path d="m393.95 336.02-0.50391 19.648c0 3.0234 2.0156 5.0391 5.0391 5.0391 2.5195 0 5.0391-2.0156 5.0391-5.0391l0.50391-19.648c0-3.0234-2.0156-5.0391-5.0391-5.0391-2.5195 0-5.0391 2.5195-5.0391 5.0391z"/>
  <path d="m424.68 325.43c-2.5195 1.5117-3.5273 4.5352-2.0156 7.0547l9.0703 17.129c1.0078 1.5117 2.5195 2.5195 4.5352 2.5195 1.0078 0 1.5117 0 2.5195-0.50391 2.5195-1.5117 3.5273-4.5352 2.0156-7.0547l-9.0703-17.129c-1.5117-2.5195-4.5352-3.0234-7.0547-2.0156z"/>
  <path d="m450.88 306.29c-2.5195-1.5117-5.543-1.0078-7.0547 1.5117s-1.0078 5.543 1.5117 7.0547l16.625 10.578c1.0078 0.50391 2.0156 1.0078 2.5195 1.0078 1.5117 0 3.5273-1.0078 4.0312-2.5195 1.5117-2.5195 1.0078-5.543-1.5117-7.0547z"/>
  <path d="m451.89 283.11c0 3.0234 2.0156 5.0391 4.5352 5.0391l19.648 1.0078h0.50391c2.5195 0 5.0391-2.0156 5.0391-5.0391 0-3.0234-2.0156-5.0391-4.5352-5.0391l-19.648-1.0078c-3.0234 0.003906-5.543 2.0195-5.543 5.0391z"/>
  <path d="m446.35 257.42c1.0078 1.5117 2.5195 2.5195 4.5352 2.5195 1.0078 0 1.5117 0 2.5195-0.50391l17.633-8.5664c2.5195-1.0078 3.5273-4.5352 2.0156-6.5508-1.0078-2.5195-4.5352-3.5273-6.5508-2.0156l-17.633 8.5664c-3.0234 1.0078-3.5273 4.0312-2.5195 6.5508z"/>
  <path d="m429.22 237.77c1.0078 0.50391 2.0156 1.0078 3.0234 1.0078 1.5117 0 3.0234-1.0078 4.0312-2.0156l10.578-16.121c1.5117-2.5195 1.0078-5.543-1.5117-7.0547-2.5195-1.5117-5.543-1.0078-7.0547 1.5117l-10.578 16.121c-1.5117 2.0156-1.0078 5.0391 1.5117 6.5508z"/>
 </g>
</svg>