<?xml version="1.0" encoding="UTF-8"?>
<!-- The Best Svg Icon site in the world: iconSvg.co, Visit us! https://iconsvg.co -->
<svg fill="#000000" width="800px" height="800px" version="1.1" viewBox="144 144 512 512" xmlns="http://www.w3.org/2000/svg">
 <path d="m551.34 402.54c10.961 0 27.039-2.0625 37.59-12.617 16.961-16.961 11.996-48.188 11.773-49.512-0.35156-2.125-2.0156-3.7891-4.1445-4.1445-1.3203-0.22266-32.551-5.1875-49.512 11.773-1.0234 1.0234-1.9609 2.1055-2.8281 3.2227l0.003906-66.805c6.2969-5.043 24.574-21.418 24.574-41.711 0-23.984-25.594-42.559-26.684-43.336-1.75-1.2539-4.1094-1.2539-5.8594 0-1.0898 0.77734-26.684 19.352-26.684 43.336 0 20.297 18.277 36.672 24.574 41.711v22.395c-0.875-1.1289-1.8242-2.2188-2.8555-3.2539-16.961-16.961-48.191-11.996-49.512-11.773-2.125 0.35156-3.7891 2.0156-4.1445 4.1445-0.22266 1.3203-5.1875 32.551 11.777 49.512 10.555 10.555 26.637 12.621 37.598 12.621 2.7734 0 5.1914-0.13281 7.1367-0.29297v48.727c-0.875-1.1289-1.8242-2.2188-2.8555-3.2539-16.961-16.961-48.191-12-49.512-11.773-2.125 0.35156-3.7891 2.0156-4.1445 4.1445-0.22266 1.3203-5.1875 32.551 11.777 49.512 10.555 10.555 26.637 12.621 37.598 12.621 2.7734 0 5.1914-0.13281 7.1367-0.29297v48.727c-0.875-1.1289-1.8242-2.2188-2.8555-3.2539-16.961-16.961-48.191-11.996-49.512-11.773-2.125 0.34375-3.7891 2.0078-4.1406 4.1328-0.22266 1.3203-5.1875 32.551 11.777 49.512 10.555 10.555 26.637 12.621 37.598 12.621 2.7734 0 5.1914-0.13281 7.1367-0.29297l-0.003907 34.277h-129.09v-89.516c1.9414 0.16016 4.3477 0.29297 7.1133 0.29297 10.961 0 27.043-2.0625 37.598-12.621 16.961-16.961 11.996-48.188 11.777-49.512-0.35156-2.125-2.0156-3.7891-4.1445-4.1445-1.3164-0.21484-32.547-5.1875-49.512 11.773-1.0234 1.0234-1.9609 2.1055-2.8281 3.2227v-48.695c1.9414 0.16016 4.3516 0.29297 7.1172 0.29297 10.961 0 27.039-2.0625 37.59-12.617 16.961-16.961 11.996-48.188 11.777-49.512-0.35156-2.125-2.0156-3.7891-4.1445-4.1445-1.3164-0.22266-32.547-5.1875-49.512 11.773-1.0234 1.0234-1.9609 2.1055-2.8281 3.2227l-0.003907-66.801c6.2969-5.043 24.574-21.418 24.574-41.711 0-23.984-25.594-42.559-26.684-43.336-1.75-1.2539-4.1094-1.2539-5.8594 0-1.0898 0.77734-26.684 19.352-26.684 43.336 0 20.297 18.277 36.672 24.574 41.711v22.395c-0.875-1.1289-1.8203-2.2188-2.8555-3.25-16.961-16.961-48.191-11.996-49.512-11.773-2.125 0.35156-3.7891 2.0156-4.1445 4.1445-0.22266 1.3203-5.1875 32.551 11.777 49.512 10.555 10.555 26.637 12.621 37.598 12.621 2.7734 0 5.1914-0.13281 7.1367-0.29297v48.723c-0.875-1.1289-1.8203-2.2188-2.8555-3.25-16.961-16.961-48.191-11.992-49.512-11.773-2.125 0.35156-3.7891 2.0156-4.1445 4.1445-0.22266 1.3203-5.1875 32.551 11.777 49.512 10.555 10.555 26.637 12.621 37.598 12.621 2.7734 0 5.1914-0.13281 7.1367-0.29297v48.723c-0.875-1.1289-1.8203-2.2188-2.8555-3.25-16.961-16.961-48.191-11.992-49.512-11.773-2.125 0.33984-3.7891 2.0039-4.1406 4.1289-0.22266 1.3203-5.1875 32.551 11.777 49.512 10.555 10.555 26.637 12.621 37.598 12.621 2.7734 0 5.1914-0.13281 7.1367-0.29297l-0.003906 34.277h-129.1v-89.516c1.9414 0.16016 4.3477 0.29297 7.1133 0.29297 10.961 0 27.043-2.0625 37.598-12.621 16.961-16.961 11.996-48.188 11.777-49.512-0.35156-2.125-2.0156-3.7891-4.1445-4.1445-1.3203-0.21875-32.547-5.1875-49.512 11.773-1.0234 1.0234-1.9609 2.1055-2.832 3.2227v-48.699c1.9414 0.16016 4.3516 0.29297 7.1172 0.29297 10.961 0 27.039-2.0625 37.59-12.617 16.961-16.961 11.996-48.188 11.777-49.512-0.35156-2.125-2.0156-3.7891-4.1445-4.1445-1.3203-0.22266-32.547-5.1875-49.512 11.773-1.0234 1.0234-1.9609 2.1055-2.832 3.2227v-66.809c6.2969-5.043 24.574-21.418 24.574-41.711 0-23.984-25.594-42.559-26.684-43.336-1.75-1.2539-4.1094-1.2539-5.8594 0-1.0898 0.77734-26.684 19.352-26.684 43.336 0 20.297 18.277 36.672 24.574 41.711v22.391c-0.875-1.1289-1.8203-2.2188-2.8555-3.25-16.961-16.961-48.188-11.996-49.512-11.773-2.125 0.35156-3.7891 2.0156-4.1445 4.1445-0.22266 1.3203-5.1875 32.547 11.773 49.512 10.555 10.555 26.637 12.621 37.598 12.621 2.7734 0 5.1875-0.13281 7.1328-0.29297v48.723c-0.875-1.1289-1.8203-2.2188-2.8555-3.25-16.961-16.961-48.188-12-49.512-11.773-2.125 0.35156-3.7891 2.0156-4.1445 4.1445-0.22266 1.3203-5.1875 32.547 11.773 49.512 10.555 10.555 26.637 12.621 37.598 12.621 2.7734 0 5.1875-0.13281 7.1328-0.29297v48.723c-0.875-1.1289-1.8203-2.2188-2.8555-3.25-16.961-16.961-48.188-11.996-49.512-11.773-2.0977 0.35547-3.7656 2.0195-4.1172 4.1445-0.22266 1.3203-5.1875 32.547 11.773 49.512 10.555 10.555 26.637 12.621 37.598 12.621 2.7734 0 5.1875-0.13281 7.1328-0.29297l0.003906 34.277h-52.289c-2.7812 0-5.0391 2.2539-5.0391 5.0391 0 2.7812 2.2539 5.0391 5.0391 5.0391h392.97c2.7812 0 5.0391-2.2539 5.0391-5.0391 0-2.7812-2.2539-5.0391-5.0391-5.0391h-52.262v-89.516c1.9414 0.16016 4.3477 0.29297 7.1094 0.29297 10.961 0 27.047-2.0625 37.598-12.621 16.961-16.961 11.996-48.188 11.773-49.512-0.35156-2.125-2.0156-3.7891-4.1445-4.1445-1.3203-0.21875-32.551-5.1875-49.512 11.773-1.0234 1.0234-1.9609 2.1055-2.8281 3.2227v-48.695c1.9453 0.16406 4.3555 0.29688 7.1211 0.29688zm2.8359-47.375c10.32-10.32 29.066-10.035 37.008-9.375 0.66016 7.9531 0.94531 26.68-9.375 37.008-10.324 10.324-29.066 10.031-37.008 9.375-0.66406-7.9531-0.94922-26.68 9.375-37.008zm-20.633-7.4297c-7.9492 0.66016-26.68 0.94531-37.008-9.3789-10.32-10.324-10.035-29.051-9.3789-37.008 7.957-0.66797 26.688-0.94531 37.008 9.375 10.324 10.328 10.039 29.059 9.3789 37.012zm0 99.676c-7.9492 0.66016-26.68 0.94531-37.008-9.3789-10.32-10.324-10.035-29.051-9.3789-37.008 7.957-0.66797 26.688-0.94531 37.008 9.375 10.324 10.328 10.039 29.059 9.3789 37.012zm0 99.68c-7.9492 0.66406-26.68 0.94531-37.008-9.3789-10.32-10.324-10.035-29.051-9.3789-37.008 7.957-0.66797 26.688-0.94531 37.008 9.375 10.324 10.328 10.039 29.059 9.3789 37.012zm-118.54-92.246c10.324-10.324 29.059-10.035 37.008-9.375 0.66016 7.9531 0.94531 26.68-9.3789 37.008-10.324 10.324-29.066 10.051-37.008 9.3789-0.66016-7.957-0.94531-26.688 9.3789-37.012zm0-99.68c10.324-10.32 29.059-10.039 37.008-9.375 0.66016 7.9531 0.94531 26.68-9.3789 37.008-10.32 10.32-29.051 10.035-37.008 9.375-0.66016-7.9531-0.94531-26.68 9.3789-37.008zm-20.633-7.4297c-7.9453 0.66016-26.68 0.94531-37.008-9.3789-10.32-10.324-10.035-29.051-9.3789-37.008 7.9492-0.66797 26.684-0.94922 37.008 9.375 10.324 10.324 10.039 29.059 9.3789 37.012zm0 99.676c-7.9453 0.66016-26.68 0.94531-37.008-9.3789-10.32-10.324-10.035-29.051-9.3789-37.008 7.9492-0.66797 26.684-0.94531 37.008 9.375 10.324 10.328 10.039 29.059 9.3789 37.012zm0 99.68c-7.9453 0.66406-26.68 0.94531-37.008-9.3789-10.32-10.324-10.035-29.051-9.3789-37.008 7.9492-0.67188 26.684-0.94531 37.008 9.375 10.324 10.324 10.039 29.059 9.3789 37.012zm-13.898-304.34c0-14.598 13.445-27.641 19.539-32.801 6.0898 5.1602 19.539 18.203 19.539 32.801s-13.445 27.641-19.539 32.801c-6.0938-5.1602-19.539-18.203-19.539-32.801zm-104.64 212.1c10.324-10.32 29.055-10.047 37.008-9.375 0.66016 7.9531 0.94531 26.68-9.3789 37.008-10.32 10.324-29.051 10.051-37.008 9.3789-0.65625-7.957-0.94141-26.688 9.3789-37.012zm0-99.68c10.324-10.32 29.055-10.047 37.008-9.375 0.66016 7.9531 0.94531 26.68-9.3789 37.008-10.32 10.32-29.051 10.047-37.008 9.375-0.65625-7.9531-0.94141-26.68 9.3789-37.008zm-20.633-7.4297c-7.957 0.65234-26.688 0.94141-37.008-9.3789-10.32-10.324-10.035-29.051-9.375-37.008 7.957-0.66797 26.688-0.94531 37.008 9.375 10.32 10.328 10.035 29.059 9.375 37.012zm0 99.676c-7.957 0.64844-26.688 0.94141-37.008-9.3789-10.32-10.324-10.035-29.051-9.375-37.008 7.957-0.66797 26.688-0.94531 37.008 9.375 10.32 10.328 10.035 29.059 9.375 37.012zm0 99.68c-7.957 0.66016-26.688 0.94141-37.008-9.3789-10.32-10.324-10.035-29.051-9.375-37.008 7.957-0.66797 26.688-0.94531 37.008 9.375 10.32 10.328 10.035 29.059 9.375 37.012zm-13.898-304.34c0-14.598 13.445-27.641 19.539-32.801 6.0898 5.1602 19.539 18.203 19.539 32.801s-13.445 27.641-19.539 32.801c-6.0938-5.1602-19.539-18.203-19.539-32.801zm312.88 212.1c10.32-10.32 29.066-10.035 37.008-9.375 0.66016 7.9531 0.94531 26.68-9.375 37.008-10.324 10.32-29.047 10.035-37.008 9.3789-0.66406-7.957-0.94922-26.688 9.375-37.012zm-34.531-212.1c0-14.598 13.445-27.641 19.539-32.801 6.0898 5.1602 19.539 18.203 19.539 32.801s-13.445 27.641-19.539 32.801c-6.0898-5.1602-19.539-18.203-19.539-32.801z"/>
</svg>