<?xml version="1.0" encoding="UTF-8"?>
<!-- The Best Svg Icon site in the world: iconSvg.co, Visit us! https://iconsvg.co -->
<svg fill="#000000" width="800px" height="800px" version="1.1" viewBox="144 144 512 512" xmlns="http://www.w3.org/2000/svg">
 <path d="m187.45 431.49v31.488h-7.8711c-8.6914 0-15.742 7.0547-15.742 15.742v110.21c0 8.6914 7.0547 15.742 15.742 15.742h440.83c8.6914 0 15.742-7.0547 15.742-15.742v-110.21c0-8.6914-7.0547-15.742-15.742-15.742h-7.8711v-31.488h7.8711c8.6914 0 15.742-7.0547 15.742-15.742v-110.21c0-8.6914-7.0547-15.742-15.742-15.742h-440.83c-8.6914 0-15.742 7.0547-15.742 15.742v110.21c0 8.6914 7.0547 15.742 15.742 15.742zm55.105 82.625c-10.879 0-19.711 8.832-19.711 19.711 0 10.879 8.832 19.711 19.711 19.711s19.711-8.832 19.711-19.711c0-10.879-8.832-19.711-19.711-19.711zm0-173.18c-10.879 0-19.711 8.832-19.711 19.711s8.832 19.711 19.711 19.711 19.711-8.832 19.711-19.711-8.832-19.711-19.711-19.711zm-46.918-59.008h102.32c2.2656-29.914 17.398-56.238 39.879-73.445-14.059-8.3594-30.496-13.145-48.051-13.145h-0.03125c-49.516 0-90.133 38.117-94.117 86.594zm110.21 0h188.28c-4-48.492-44.617-86.594-94.133-86.594h-0.03125c-49.516 0-90.133 38.117-94.117 86.594zm196.19 0h102.3c-4-48.492-44.617-86.594-94.133-86.594 0 0-4.2344 0 0 0-17.555 0-33.992 4.7852-48.066 13.145 22.484 17.207 37.629 43.531 39.895 73.445z" fill-rule="evenodd"/>
</svg>