<?xml version="1.0" encoding="UTF-8"?>
<!-- The Best Svg Icon site in the world: iconSvg.co, Visit us! https://iconsvg.co -->
<svg fill="#000000" width="800px" height="800px" version="1.1" viewBox="144 144 512 512" xmlns="http://www.w3.org/2000/svg">
 <g>
  <path d="m310.73 312.57c-1.8906 1.2305-2.7344 3.5664-2.0625 5.7188 0.67188 2.1562 2.7461 3.7617 4.9453 3.5391 9.9766-0.23438 19.344 4.2617 24.934 12.109 5.1484 7.2227 6.3398 16.074 3.2617 24.281-0.78125 2.0859-0.10156 4.4336 1.6719 5.7852 1.7773 1.3477 4.2227 1.3711 6.0156 0.054688 7.8242-5.7266 18.086-7.2969 27.453-4.1953 8.9336 2.957 15.582 9.5625 18.238 18.121 0.65234 2.1094 2.6055 3.5469 4.8125 3.5469s4.1562-1.4375 4.8125-3.543c2.6562-8.5625 9.3047-15.164 18.238-18.121 9.3711-3.0938 19.625-1.5234 27.453 4.1953 1.7969 1.3164 4.2422 1.293 6.0156-0.054688 1.7734-1.3477 2.4531-3.6992 1.6719-5.7852-3.0781-8.2109-1.8867-17.059 3.2617-24.281 5.5938-7.8438 14.973-12.328 24.934-12.109 2.3359 0.22266 4.2773-1.3867 4.9453-3.5391 0.66797-2.1523-0.17578-4.4883-2.0625-5.7188-7.9609-5.1797-12.527-13.371-12.527-22.473 0-9.1055 4.5664-17.297 12.527-22.477 1.8906-1.2305 2.7344-3.5664 2.0625-5.7188-0.66797-2.1523-2.6094-3.6172-4.9453-3.5391-9.9766 0.23047-19.344-4.2656-24.934-12.109-5.1484-7.2227-6.3359-16.074-3.2617-24.285 0.78125-2.082 0.10156-4.4336-1.6719-5.7812-1.7734-1.3438-4.2148-1.3672-6.0195-0.050781-7.832 5.7227-18.098 7.2852-27.445 4.1953-8.9375-2.9531-15.586-9.5625-18.242-18.121-0.65625-2.1094-2.6055-3.5469-4.8125-3.5469s-4.1562 1.4375-4.8125 3.543c-2.6562 8.5625-9.3047 15.168-18.242 18.121-9.3594 3.0898-19.625 1.5234-27.445-4.1953-1.7969-1.3125-4.2422-1.293-6.0195 0.050782-1.7734 1.3438-2.4531 3.6992-1.6719 5.7812 3.0742 8.2109 1.8867 17.062-3.2617 24.285-5.5898 7.8438-14.941 12.352-24.934 12.109-2.1953-0.078125-4.2734 1.3867-4.9453 3.5391-0.66797 2.1523 0.17578 4.4883 2.0625 5.7188 7.9609 5.1797 12.527 13.371 12.527 22.477 0 9.1016-4.5664 17.297-12.527 22.473zm14.309-45.508c8.7305-2.3438 16.434-7.5547 21.711-14.957 4.8398-6.7891 7.1484-14.629 6.793-22.531 8.4336 3.0391 17.805 3.2266 26.566 0.32813 8.3555-2.7617 15.238-7.9297 19.891-14.73 4.6523 6.8008 11.535 11.969 19.887 14.73 8.7617 2.8984 18.137 2.7109 26.566-0.32813-0.35547 7.9023 1.9531 15.742 6.793 22.531 5.2773 7.4023 12.977 12.613 21.711 14.957-5.3086 6.4883-8.293 14.566-8.293 23.035 0 8.4648 2.9883 16.543 8.293 23.031-8.7305 2.3438-16.434 7.5547-21.711 14.961-4.8398 6.7891-7.1445 14.629-6.793 22.527-8.4258-3.0352-17.797-3.2227-26.566-0.32422-8.3516 2.7656-15.238 7.9297-19.887 14.734-4.6523-6.8008-11.535-11.969-19.887-14.73-4.1953-1.3867-8.5273-2.0664-12.828-2.0664-4.6914 0-9.3438 0.80859-13.738 2.3906 0.35547-7.9023-1.9531-15.738-6.793-22.527-5.2773-7.4062-12.98-12.617-21.711-14.961 5.3047-6.4883 8.293-14.566 8.293-23.031-0.003907-8.4688-2.9883-16.547-8.2969-23.039z"/>
  <path d="m400 339.61c27.305 0 49.523-22.215 49.523-49.52-0.003907-27.305-22.219-49.52-49.523-49.52s-49.523 22.215-49.523 49.523c0 27.305 22.215 49.516 49.523 49.516zm0-88.965c21.75 0 39.445 17.695 39.445 39.445s-17.695 39.445-39.445 39.445-39.445-17.695-39.445-39.445c-0.003907-21.75 17.691-39.445 39.445-39.445z"/>
  <path d="m562.94 538.83c8.3633 0 20.703-1.5859 28.848-9.7305 13.047-13.047 9.2656-36.84 9.0977-37.848-0.35156-2.125-2.0156-3.7891-4.1445-4.1445-1.0117-0.17188-24.809-3.957-37.852 9.0938-0.19141 0.19141-0.34766 0.40625-0.53125 0.60547v-40.945c5.2188-4.2852 18.223-16.48 18.223-31.551 0-18.449-19.504-32.602-20.332-33.191-1.75-1.2539-4.1094-1.2539-5.8594 0-0.82812 0.59375-20.328 14.746-20.328 33.191 0 15.07 13.004 27.266 18.223 31.551v12.266c-0.15625-0.16406-0.28125-0.33984-0.44141-0.5-13.043-13.047-36.836-9.2656-37.848-9.0938-2.125 0.35156-3.7891 2.0156-4.1445 4.1445-0.16797 1.0078-3.9492 24.801 9.0938 37.848 8.1484 8.1484 20.484 9.7305 28.848 9.7305 1.6875 0 3.1914-0.066406 4.4883-0.15625v23.191c-0.15625-0.16406-0.28125-0.33984-0.44141-0.5-13.043-13.047-36.84-9.2617-37.848-9.0977-2.125 0.35156-3.7891 2.0156-4.1445 4.1445-0.16797 1.0078-3.9492 24.805 9.0938 37.852 8.1484 8.1484 20.488 9.7305 28.852 9.7305 1.6836 0 3.1875-0.066406 4.4805-0.15234l0.015624 16.176h-92.164v-52.773c1.3164 0.089844 2.8516 0.16016 4.5781 0.16016 8.3633 0 20.703-1.5859 28.848-9.7305 13.047-13.047 9.2656-36.84 9.0977-37.848-0.35156-2.125-2.0156-3.7891-4.1445-4.1445-1.0078-0.17188-24.809-3.957-37.852 9.0938-0.19141 0.19141-0.34766 0.40625-0.53125 0.60547v-40.945c5.2188-4.2852 18.223-16.48 18.223-31.551 0-18.449-19.504-32.602-20.332-33.191-1.75-1.2539-4.1094-1.2539-5.8594 0-0.82812 0.59375-20.328 14.746-20.328 33.191 0 15.07 13.004 27.266 18.223 31.551v12.266c-0.15625-0.16406-0.28125-0.33984-0.44141-0.5-13.047-13.047-36.832-9.2656-37.848-9.0938-2.125 0.35156-3.7891 2.0156-4.1445 4.1445-0.16797 1.0078-3.9492 24.801 9.0938 37.848 8.1484 8.1484 20.484 9.7305 28.848 9.7305 1.6875 0 3.1914-0.066406 4.4883-0.15625v23.191c-0.15625-0.16406-0.28125-0.33984-0.44141-0.5-13.047-13.047-36.832-9.2617-37.848-9.0977-2.125 0.35156-3.7891 2.0156-4.1445 4.1445-0.16797 1.0078-3.9492 24.805 9.0938 37.852 8.1484 8.1484 20.488 9.7305 28.852 9.7305 1.6836 0 3.1875-0.066406 4.4805-0.15234l0.011719 16.176h-92.164v-52.773c1.3164 0.089844 2.8516 0.16016 4.5781 0.16016 8.3633 0 20.703-1.5859 28.848-9.7305 13.047-13.047 9.2617-36.84 9.0938-37.848-0.35156-2.125-2.0156-3.7891-4.1445-4.1445-1.0117-0.17188-24.809-3.957-37.848 9.0938-0.19141 0.19141-0.34766 0.40625-0.53125 0.60547v-40.945c5.2188-4.2852 18.223-16.48 18.223-31.551 0-18.449-19.504-32.602-20.332-33.191-1.75-1.2539-4.1094-1.2539-5.8594 0-0.82812 0.59375-20.328 14.746-20.328 33.191 0 15.07 13.004 27.266 18.223 31.551v12.266c-0.15625-0.16406-0.28125-0.33984-0.44141-0.5-13.043-13.047-36.836-9.2656-37.848-9.0938-2.125 0.35156-3.7891 2.0156-4.1445 4.1445-0.16797 1.0078-3.9492 24.801 9.0938 37.848 8.1484 8.1484 20.484 9.7305 28.848 9.7305 1.6875 0 3.1914-0.066406 4.4883-0.15625v23.191c-0.15625-0.16406-0.28125-0.33984-0.44141-0.5-13.047-13.047-36.84-9.2617-37.848-9.0977-2.125 0.35156-3.7891 2.0156-4.1445 4.1445-0.16797 1.0078-3.9492 24.805 9.0938 37.852 8.1484 8.1484 20.488 9.7305 28.852 9.7305 1.6836 0 3.1875-0.066406 4.4805-0.15234l0.015625 16.176h-92.164v-52.773c1.3164 0.089844 2.8516 0.16016 4.5781 0.16016 8.3633 0 20.703-1.5859 28.848-9.7305 13.047-13.047 9.2617-36.84 9.0938-37.848-0.35156-2.125-2.0156-3.7891-4.1445-4.1445-1.0117-0.17188-24.805-3.957-37.848 9.0938-0.19141 0.19141-0.34766 0.40625-0.53125 0.60547v-40.945c5.2188-4.2852 18.223-16.48 18.223-31.551 0-18.449-19.504-32.602-20.332-33.191-1.75-1.2539-4.1094-1.2539-5.8594 0-0.82812 0.59375-20.332 14.746-20.332 33.191 0 15.07 13.008 27.266 18.223 31.551v12.266c-0.15625-0.16406-0.28125-0.33984-0.44141-0.5-13.039-13.047-36.84-9.2656-37.852-9.0938-2.125 0.35156-3.7891 2.0156-4.1445 4.1445-0.16797 1.0078-3.9492 24.801 9.0977 37.848 8.1484 8.1484 20.484 9.7305 28.848 9.7305 1.6875 0 3.1914-0.066406 4.4883-0.15625v23.191c-0.15625-0.16406-0.28125-0.33984-0.44141-0.5-13.051-13.055-36.848-9.2695-37.852-9.0977-2.125 0.35156-3.7891 2.0156-4.1445 4.1445-0.16797 1.0078-3.9492 24.805 9.0977 37.852 8.1484 8.1484 20.488 9.7305 28.852 9.7305 1.6836 0 3.1875-0.066406 4.4805-0.15234l0.015625 16.176h-38.055c-2.7812 0-5.0391 2.2539-5.0391 5.0391 0 2.7812 2.2539 5.0391 5.0391 5.0391h392.97c2.7812 0 5.0391-2.2539 5.0391-5.0391 0-2.7812-2.2539-5.0391-5.0391-5.0391h-38.121v-52.773c1.3164 0.09375 2.8555 0.16016 4.5781 0.16016zm3.0781-35.5c6.8555-6.8594 19.156-7.0625 25.34-6.6562 0.45312 7.0234-0.25781 18.871-6.6914 25.305-6.8516 6.8477-19.125 7.0547-25.305 6.6602-0.39844-6.1836-0.19141-18.461 6.6562-25.309zm-18.637-3.2734c-6.1758 0.40625-18.457 0.1875-25.305-6.6602-6.8477-6.8477-7.0547-19.125-6.6602-25.305 6.1953-0.38672 18.461-0.1875 25.305 6.6602 6.8477 6.8477 7.0547 19.125 6.6602 25.305zm0 65.164c-6.1758 0.39062-18.461 0.18359-25.305-6.6602-6.8594-6.8594-7.0547-19.164-6.6562-25.34 7.0195-0.46875 18.871 0.25781 25.305 6.6914 6.8438 6.8477 7.0508 19.125 6.6562 25.309zm-83.605-61.891c6.8594-6.8594 19.156-7.0625 25.34-6.6562 0.45312 7.0234-0.25781 18.871-6.6914 25.305-6.8516 6.8477-19.125 7.0547-25.305 6.6602-0.39453-6.1836-0.1875-18.461 6.6562-25.309zm-18.637-3.2734c-6.1836 0.40625-18.453 0.1875-25.305-6.6602-6.8477-6.8477-7.0547-19.125-6.6602-25.305 6.1875-0.38672 18.461-0.1875 25.305 6.6602 6.8516 6.8477 7.0586 19.125 6.6602 25.305zm0 65.164c-6.1836 0.39062-18.461 0.18359-25.305-6.6602-6.8594-6.8594-7.0547-19.164-6.6562-25.34 7.0273-0.46875 18.867 0.25781 25.305 6.6914 6.8477 6.8477 7.0547 19.125 6.6562 25.309zm-7.2383-140.91c0-9.6992 8.5625-18.543 13.207-22.621 5.2891 4.6484 13.164 13.523 13.164 22.621 0 9.6836-8.5352 18.512-13.188 22.602-4.6484-4.0898-13.184-12.914-13.184-22.602zm-76.363 79.02c6.8477-6.8516 19.121-7.0586 25.305-6.6602 0.39453 6.1797 0.1875 18.457-6.6602 25.305-6.8477 6.8477-19.133 7.0547-25.305 6.6602-0.39453-6.1797-0.1875-18.457 6.6602-25.305zm-18.637-3.2734c-6.1797 0.40625-18.453 0.1875-25.305-6.6602-6.8477-6.8477-7.0547-19.125-6.6602-25.305 6.1914-0.38672 18.461-0.1875 25.305 6.6602 6.8477 6.8477 7.0547 19.125 6.6602 25.305zm0 65.164c-6.1797 0.39062-18.461 0.18359-25.305-6.6602-6.8594-6.8594-7.0547-19.164-6.6562-25.34 7.0156-0.46875 18.871 0.25781 25.305 6.6914 6.8438 6.8477 7.0508 19.125 6.6562 25.309zm-7.2422-140.91c0-9.6992 8.5625-18.543 13.207-22.621 5.2891 4.6484 13.164 13.523 13.164 22.621 0 9.6836-8.5352 18.512-13.188 22.602-4.6484-4.0898-13.184-12.914-13.184-22.602zm-76.363 79.02c6.8477-6.8516 19.125-7.0586 25.305-6.6602 0.39453 6.1797 0.1875 18.457-6.6602 25.305-6.8477 6.8477-19.141 7.0547-25.305 6.6602-0.39453-6.1797-0.1875-18.457 6.6602-25.305zm-18.637-3.2734c-6.1758 0.40625-18.457 0.1875-25.305-6.6602-6.8477-6.8477-7.0547-19.125-6.6602-25.305 6.1836-0.39844 18.461-0.1875 25.309 6.6602 6.8438 6.8477 7.0508 19.125 6.6562 25.305zm0 65.164c-6.1875 0.39062-18.461 0.18359-25.305-6.6602-6.8477-6.8477-7.0547-19.125-6.6602-25.309 6.1836-0.38672 18.461-0.18359 25.309 6.6602 6.8438 6.8477 7.0547 19.125 6.6562 25.309zm-7.2422-140.91c0-9.6992 8.5625-18.543 13.207-22.621 5.2891 4.6484 13.164 13.523 13.164 22.621 0 9.6992-8.5625 18.543-13.207 22.621-5.2891-4.6445-13.164-13.523-13.164-22.621zm306.73 0c0-9.6992 8.5625-18.543 13.207-22.621 5.2891 4.6484 13.164 13.523 13.164 22.621 0 9.6836-8.5352 18.512-13.188 22.602-4.6523-4.0898-13.184-12.914-13.184-22.602z"/>
 </g>
</svg>