<?xml version="1.0" encoding="UTF-8"?>
<!-- The Best Svg Icon site in the world: iconSvg.co, Visit us! https://iconsvg.co -->
<svg fill="#000000" width="800px" height="800px" version="1.1" viewBox="144 144 512 512" xmlns="http://www.w3.org/2000/svg">
 <path d="m530.95 247.68h10.848c9.6445 0 17.492-7.8438 17.492-17.492v-0.22266h21.25c0-8.6133-5.0742-16.426-12.949-19.926l-8.3438-3.707-6.6484-15.559c-4.5352-10.602-14.957-17.484-26.5-17.484h-20.984c-4.5234 0-7.5625 4.6445-5.75 8.7852l2.3516 5.3789 0.53516 1.3008c-16.652 3.8789-30.422 16.262-35.719 33.086l-23.199 73.676c-5.1328 16.305-18.738 28.516-35.5 31.867l-47.156 9.4297-102.2-117.07-8.8672 13.09c-19.652 29.008-30.156 63.25-30.156 98.289 0 42.895 15.289 84.383 43.121 117.02l13.32 15.625v31.883l85.02 67.305 12.125 49.594h0.023438l-14.156 14.164h77.934l-14.172-14.172h-32.449l-12.543-50.961 89.984-47.641c37.527-19.863 67.145-51.957 83.941-90.957 17.707-41.121 19.598-87.336 5.3008-129.77l-11.766-34.914v-0.21484c-1.0938 0.13281-2.1953 0.21484-3.3203 0.21484h-10.848c-15.629 0-28.34-12.711-28.34-28.34h10.625c-0.011719 9.7695 7.9336 17.715 17.699 17.715zm3.5898-40.191c3.4258 0 6.1953 2.7773 6.1953 6.1953 0 3.4258-2.7773 6.1953-6.1953 6.1953-3.4258 0-6.1953-2.7773-6.1953-6.1953 0-3.4219 2.7773-6.1953 6.1953-6.1953zm-49.637 133.81c0 23.059-6.8125 45.352-19.699 64.477-21.48 31.879-57.25 50.906-95.684 50.906h-65.094l38.27-56.676h12.82l-31.094 46.055h45.098c34.898 0 67.375-17.277 86.871-46.219 11.699-17.359 17.879-37.605 17.879-58.539v-4.9844h10.625v4.9805z"/>
</svg>