<?xml version="1.0" encoding="UTF-8"?>
<!-- The Best Svg Icon site in the world: iconSvg.co, Visit us! https://iconsvg.co -->
<svg fill="#000000" width="800px" height="800px" version="1.1" viewBox="144 144 512 512" xmlns="http://www.w3.org/2000/svg">
 <g>
  <path d="m392.12 274.05c0 4.3477-3.5234 7.8711-7.8711 7.8711s-7.8711-3.5234-7.8711-7.8711 3.5234-7.8711 7.8711-7.8711 7.8711 3.5234 7.8711 7.8711"/>
  <path d="m423.61 274.05c0 4.3477-3.5234 7.8711-7.8711 7.8711-4.3477 0-7.8711-3.5234-7.8711-7.8711s3.5234-7.8711 7.8711-7.8711c4.3477 0 7.8711 3.5234 7.8711 7.8711"/>
  <path d="m384.25 297.66h31.488v15.742h-31.488z"/>
  <path d="m565.31 360.64h-23.617v-15.742h-105.59l-2.3047 2.3047h-0.003906c-7.0312 7.0469-16.098 11.703-25.922 13.305v-16.238c13.102-1.8906 25.09-8.4375 33.762-18.441 8.6719-10.004 13.453-22.793 13.469-36.035v-28.227l33.793 33.793 11.133-11.133-27.812-27.809c6.7305-2.8672 11.75-8.6875 13.598-15.766 1.8477-7.0742 0.3125-14.605-4.1562-20.395-4.4727-5.7891-11.367-9.1797-18.68-9.1836h-8.5039c-2.5312-17.621-13.43-32.934-29.254-41.09-15.824-8.1602-34.617-8.1602-50.441 0-15.824 8.1562-26.723 23.469-29.254 41.09h-8.5c-8.0898-0.039062-15.633 4.0781-19.977 10.898-4.3477 6.8242-4.8867 15.398-1.4336 22.711 3.4531 7.3164 10.418 12.344 18.449 13.324l-26.223 26.223 11.133 11.133 25.922-25.926v20.355c0.015625 13.242 4.7969 26.031 13.469 36.035 8.6758 10.004 20.66 16.551 33.762 18.441v16.238c-9.8203-1.6016-18.891-6.2578-25.922-13.305l-2.3047-2.3047h-105.6v15.742h-23.613c-8.4375 0-16.234 4.5039-20.453 11.809-4.2188 7.3086-4.2188 16.309 0 23.617s12.016 11.809 20.453 11.809h23.617v15.742h47.23v118.08h86.59v94.465h15.742l0.003906-94.465h86.59v-118.08h47.23l0.003906-15.742h23.617c8.4375 0 16.23-4.5 20.449-11.809s4.2188-16.309 0-23.617c-4.2188-7.3047-12.012-11.809-20.449-11.809zm-165.31-181.05c9.0703 0.011719 17.859 3.1484 24.883 8.8867 7.0273 5.7344 11.863 13.719 13.688 22.602h-77.145c1.8281-8.8828 6.6602-16.867 13.688-22.602 7.0273-5.7383 15.816-8.875 24.887-8.8867zm-70.848 55.105h-0.003906c0-4.3477 3.5273-7.875 7.875-7.875h125.95c4.3477 0 7.8711 3.5273 7.8711 7.875s-3.5234 7.8711-7.8711 7.8711h-125.95c-4.3477 0-7.875-3.5234-7.875-7.8711zm31.488 55.105-0.003906-31.492h78.723v31.488c0 14.062-7.5039 27.059-19.68 34.09-12.18 7.0273-27.184 7.0273-39.359 0-12.18-7.0312-19.684-20.027-19.684-34.09zm-125.95 102.33c-4.3477 0-7.875-3.5234-7.875-7.8711s3.5273-7.8711 7.875-7.8711h23.617v15.742zm244.03 15.742v118.08h-157.44v-118.08h-47.23v-47.234h83.441c11.676 10.488 26.816 16.289 42.512 16.289 15.691 0 30.832-5.8008 42.508-16.289h83.441v47.23zm86.594-15.742h-23.617v-15.742h23.617c4.3477 0 7.8711 3.5234 7.8711 7.8711s-3.5234 7.8711-7.8711 7.8711z"/>
 </g>
</svg>