<?xml version="1.0" encoding="UTF-8"?>
<!-- The Best Svg Icon site in the world: iconSvg.co, Visit us! https://iconsvg.co -->
<svg fill="#000000" width="800px" height="800px" version="1.1" viewBox="144 144 512 512" xmlns="http://www.w3.org/2000/svg">
 <g>
  <path d="m373.45 381.31c2.7812 0 5.0391-2.2539 5.0391-5.0391 0-15.352-12.586-27.836-28.051-27.836-15.469 0-28.051 12.488-28.051 27.836 0 2.7852 2.2578 5.0391 5.0391 5.0391s5.0391-2.2539 5.0391-5.0391c0-9.793 8.0664-17.758 17.977-17.758s17.977 7.9648 17.977 17.758c-0.007813 2.7852 2.25 5.0391 5.0312 5.0391z"/>
  <path d="m449.75 348.43c-15.469 0-28.051 12.488-28.051 27.836 0 2.7852 2.2578 5.0391 5.0391 5.0391s5.0391-2.2539 5.0391-5.0391c0-9.793 8.0664-17.758 17.977-17.758s17.977 7.9648 17.977 17.758c0 2.7852 2.2578 5.0391 5.0391 5.0391s5.0391-2.2539 5.0391-5.0391c-0.007813-15.352-12.594-27.836-28.059-27.836z"/>
  <path d="m583.73 265.95c0.72656-4.2461 0.1875-7.6172-1.5859-10.02-6.6562-9.0195-45.027-10.363-65.391 3.5078-4.4648 3.043-8.4531 6.7461-11.859 10.898 2.9844-20.379 10.246-43.297 14.977-56.828 1.4727-4.207 0.38672-8.75-2.832-11.859-3.1523-3.0547-7.6367-3.9844-11.695-2.4102-33.891 13.09-47.637 50.438-51.363 62.855-18.098-4.168-36.828-5.2539-53.988-5.2539-17.02 0-35.586 1.0742-53.539 5.1602-3.7617-12.516-17.527-49.707-51.332-62.758-4.0664-1.5703-8.5391-0.64844-11.688 2.4102-3.2148 3.1094-4.2969 7.6562-2.832 11.859 4.7305 13.539 11.996 36.449 14.977 56.828-3.4062-4.1523-7.3945-7.8555-11.859-10.898-20.359-13.871-58.734-12.535-65.391-3.5078-1.7734 2.4102-2.3086 5.7734-1.5859 10.02 2.1719 12.766 15.488 33.918 31.84 45.062 6.8203 4.6484 14.051 8.0391 21.164 10.102-8.0195 17.805-12.777 40.395-12.777 69.148 0.011718 112.54 66.844 211.26 143.04 211.26s143.02-98.723 143.02-211.27c0-28.695-4.7344-51.246-12.727-69.035 7.25-2.0469 14.637-5.4727 21.594-10.219 16.359-11.141 29.668-32.297 31.84-45.059zm-74.75-57.32c0.14453-0.054688 0.57813-0.21484 1.0547 0.24609 0.21484 0.21094 0.55078 0.66016 0.32812 1.3008-5.582 15.98-14.59 44.684-16.512 68.105-9.3555-6.0273-19.547-10.41-30.102-13.582 3.4648-11.246 16.027-44.793 45.23-56.07zm-218.54 0.24219c0.48438-0.46875 0.91016-0.30859 1.0547-0.24609 29.004 11.199 41.641 44.559 45.188 55.938-10.543 3.1328-20.715 7.4727-30.078 13.43-1.9688-23.371-10.926-51.914-16.488-67.828-0.22266-0.63281 0.10547-1.082 0.32422-1.293zm-36.18 93.816c-17.887-12.188-28.707-35.789-27.75-40.75 4.7305-3.043 34.5-5.7852 51.539 5.8203 7.1523 4.875 12.777 11.805 16.172 19.578-7.5312 6.6875-14.262 14.773-19.852 24.59-6.6562-1.6562-13.559-4.7812-20.109-9.2383zm145.74 288.76c-69.582 0-132.95-95.895-132.95-201.19 0-85.309 41-123.35 132.95-123.35s132.95 38.043 132.95 123.35c0 105.3-63.367 201.19-132.95 201.19zm125.7-279.41c-5.5156-9.7227-12.16-17.746-19.59-24.398 3.375-7.8984 9.0625-14.938 16.312-19.887 17.039-11.602 46.809-8.8516 51.535-5.8203 0.96094 4.957-9.8594 28.555-27.746 40.75-6.6797 4.5508-13.73 7.7266-20.512 9.3555z"/>
  <path d="m416.41 453.01h-32.832c-5.8828 0-10.938 3.375-13.191 8.8164-2.2539 5.4375-1.0625 11.395 3.0938 15.551l16.414 16.418c1.4805 1.4805 3.2148 2.5391 5.0547 3.2344v26.816c0 2.7852 2.2578 5.0391 5.0391 5.0391s5.0391-2.2539 5.0391-5.0391l-0.003906-26.812c1.8438-0.69531 3.5781-1.7539 5.0547-3.2344l16.414-16.418c4.1602-4.1562 5.3438-10.117 3.0938-15.551-2.2383-5.4414-7.293-8.8203-13.176-8.8203zm2.9727 17.246-16.414 16.418c-1.6367 1.6328-4.3008 1.6328-5.9414 0l-16.414-16.418c-1.8398-1.8398-1.1602-3.9648-0.91016-4.5742 0.25-0.60938 1.2734-2.5938 3.8789-2.5938h32.832c2.6055 0 3.6289 1.9844 3.8789 2.5938 0.24609 0.60937 0.92578 2.7344-0.91016 4.5742z"/>
 </g>
</svg>