<?xml version="1.0" encoding="UTF-8"?>
<!-- The Best Svg Icon site in the world: iconSvg.co, Visit us! https://iconsvg.co -->
<svg fill="#000000" width="800px" height="800px" version="1.1" viewBox="144 144 512 512" xmlns="http://www.w3.org/2000/svg">
 <g>
  <path d="m216.41 576.24-5.3516-5.668-10.391 9.7617c-8.9727 8.3438-9.4453 22.355-1.1016 31.332 4.25 4.7227 10.234 6.9258 16.059 6.9258 5.5117 0 11.02-1.8906 15.273-5.9844l10.391-9.7617-5.3516-5.668z"/>
  <path d="m281.11 515.62-5.3516-5.668-53.215 49.754 5.3516 5.8242 19.684 20.781 5.3516 5.8281 53.215-49.91-5.3516-5.668z"/>
  <path d="m337.79 477.52-40.148 11.965-10.391 9.7617 5.3516 5.668 19.523 20.941 5.3516 5.668 10.547-9.7617 14.484-39.047c-1.1016-0.47266-2.2031-1.1016-2.9922-2.0469-0.9375-0.94531-1.5664-2.0469-1.7266-3.1484z"/>
  <path d="m481.54 297.73c8.0312-7.5586 19.836-9.918 30.07-6.1406 11.336 4.0938 19.051 15.113 19.051 28.184l-0.15625 5.668c2.6758-0.47266 5.3516-0.62891 8.0312-0.62891 2.6758 0 5.1953 0.15625 7.7148 0.62891l0.15625-6.4531c0-18.895-11.809-35.738-29.285-42.195-15.742-5.8242-33.852-2.2031-46.289 9.4453l-4.4102 4.0938c-8.8164 8.0312-14.012 19.523-14.328 31.332-0.94531 28.496-12.91 54.789-33.691 74.312l-77.305 72.266 17.004-5.0391-6.1406 16.531 77.305-72.266c23.773-22.355 37.629-52.586 38.574-85.332 0.15625-7.7148 3.6211-14.957 9.2891-20.309z"/>
  <path d="m598.67 397.23c-3.4648-19.051-11.336-35.109-22.043-46.445-8.6602-9.4453-19.363-15.586-30.699-17.32-2.3633-0.62891-4.8789-0.78906-7.3984-0.78906-2.832 0-5.668 0.31641-8.3438 0.94531-24.875 4.4102-45.656 29.441-51.957 63.605l-7.5586 41.879h135.71z"/>
 </g>
</svg>