<?xml version="1.0" encoding="UTF-8"?>
<!-- The Best Svg Icon site in the world: iconSvg.co, Visit us! https://iconsvg.co -->
<svg fill="#000000" width="800px" height="800px" version="1.1" viewBox="144 144 512 512" xmlns="http://www.w3.org/2000/svg">
 <path d="m203.51 434.12c0.13672 0 0.27344-0.003906 0.41016-0.015625l113.7-9.3203c7.7852-0.63672 13.883-7.2539 13.883-15.062l0.003906-4.6914h31.098c0.89063 6.6484 3.5117 12.742 7.4023 17.832l-22.004 22.004-3.3164-3.3164c-5.5234-5.5234-14.516-5.8906-20.465-0.83984l-86.984 73.809c-1.0742 0.91406-1.7188 2.2305-1.7734 3.6367-0.058594 1.4062 0.47656 2.7734 1.4727 3.7695l41.137 41.137c0.94531 0.94531 2.2305 1.4766 3.5625 1.4766 0.070313 0 0.13672-0.003907 0.20703-0.003907 1.4062-0.054687 2.7227-0.69922 3.6367-1.7734l73.805-86.984c5.0547-5.957 4.6875-14.945-0.83594-20.465l-3.3164-3.3164 22.004-22.004c5.0859 3.8867 11.18 6.5078 17.828 7.3984v31.098h-4.6914c-7.8086 0-14.426 6.0977-15.062 13.883l-9.3203 113.7c-0.11719 1.4023 0.36328 2.7891 1.3164 3.8242 0.95703 1.0352 2.2969 1.625 3.707 1.625h58.18c1.4062 0 2.75-0.58984 3.7031-1.625 0.95312-1.0352 1.4336-2.4219 1.3164-3.8242l-9.3203-113.7c-0.63672-7.7852-7.2539-13.883-15.062-13.883h-4.6914v-31.098c6.6484-0.89063 12.742-3.5117 17.832-7.4023l22.004 22.004-3.3164 3.3164c-5.5234 5.5195-5.8906 14.508-0.83984 20.465l73.809 86.984c0.91406 1.0742 2.2305 1.7188 3.6367 1.7734 0.070313 0.003907 0.13672 0.003907 0.20703 0.003907 1.332 0 2.6133-0.52734 3.5625-1.4766l41.137-41.137c0.99609-0.99219 1.5312-2.3633 1.4727-3.7695-0.054687-1.4062-0.69922-2.7227-1.7734-3.6367l-86.988-73.805c-5.9492-5.0547-14.945-4.6836-20.465 0.83594l-3.3164 3.3164-22.004-22.004c3.8906-5.0898 6.5117-11.184 7.4023-17.832h31.098v4.6914c0 7.8086 6.0977 14.426 13.883 15.062l113.7 9.3203c0.13672 0.011719 0.27344 0.015625 0.41016 0.015625 1.2578 0 2.4805-0.47266 3.4141-1.332 1.0391-0.95312 1.6289-2.2969 1.6289-3.7031v-58.18c0-1.4062-0.58984-2.75-1.625-3.7031-1.0352-0.95312-2.418-1.4453-3.8242-1.3164l-113.7 9.3203c-7.7852 0.63672-13.883 7.2539-13.883 15.062v4.6875h-31.098c-0.89063-6.6484-3.5117-12.742-7.4023-17.832l22.004-22.004 3.3164 3.3164h0.003906c2.918 2.9219 6.8047 4.3984 10.699 4.3984 3.4766 0 6.9609-1.1797 9.7656-3.5586l86.984-73.809c1.0742-0.91406 1.7188-2.2305 1.7734-3.6367 0.058593-1.4062-0.47656-2.7734-1.4727-3.7695l-41.137-41.137c-0.99609-0.99609-2.3867-1.5352-3.7695-1.4727-1.4062 0.054688-2.7227 0.69922-3.6367 1.7734l-73.809 86.988c-5.0547 5.957-4.6875 14.945 0.83594 20.465l3.3164 3.3164-22.004 22.004c-5.0898-3.8906-11.184-6.5117-17.832-7.4023v-31.098h4.6914c7.8086 0 14.426-6.0977 15.062-13.883l9.3203-113.7c0.11719-1.4023-0.36328-2.7891-1.3164-3.8242-0.95312-1.0391-2.2969-1.625-3.7031-1.625h-58.18c-1.4062 0-2.75 0.58984-3.7031 1.625-0.95312 1.0352-1.4336 2.4219-1.3164 3.8242l9.3203 113.7c0.63672 7.7852 7.2539 13.883 15.062 13.883h4.6875v31.098c-6.6484 0.89063-12.742 3.5117-17.832 7.4023l-22.004-22.004 3.3164-3.3164c5.5234-5.5195 5.8906-14.508 0.83984-20.465l-73.809-86.984c-0.91406-1.0742-2.2305-1.7188-3.6367-1.7734-1.4297-0.074219-2.7734 0.47656-3.7695 1.4727l-41.137 41.137c-0.99609 0.99219-1.5312 2.3633-1.4727 3.7695 0.054688 1.4062 0.69922 2.7227 1.7734 3.6367l86.984 73.805c2.8086 2.3828 6.2891 3.5625 9.7656 3.5625 3.8984 0 7.7812-1.4766 10.699-4.3984l3.3164-3.3164 22.004 22.004c-3.8867 5.0859-6.5078 11.18-7.3984 17.828h-31.098v-4.6914c0-7.8086-6.0977-14.426-13.883-15.062l-113.7-9.3203c-1.3984-0.12891-2.7891 0.36328-3.8242 1.3164-1.0352 0.95703-1.6211 2.2969-1.6211 3.707v58.18c0 1.4062 0.58984 2.75 1.625 3.7031 0.92969 0.85938 2.1523 1.332 3.4102 1.332zm148.08 35.137-70.27 82.812-33.402-33.402 82.812-70.273c1.9883-1.6758 4.9883-1.5586 6.8203 0.28125h0.003906l13.758 13.762c1.8438 1.8359 1.9648 4.832 0.27734 6.8203zm63.156 13.938 8.8711 108.25h-47.242l8.8711-108.25c0.21484-2.5938 2.418-4.6289 5.0195-4.6289h19.457c2.6055 0 4.8086 2.0312 5.0234 4.6289zm51.254-35.984c1.1562 0 2.3164 0.39453 3.2539 1.1875l82.812 70.27-33.402 33.402-70.273-82.812c-1.6836-1.9844-1.5625-4.9805 0.28125-6.8203v-0.003906l13.762-13.758c0.97656-0.97266 2.2695-1.4648 3.5664-1.4648zm12.566-56.945c0-2.6016 2.0312-4.8086 4.6289-5.0195l108.25-8.8711v47.242l-108.25-8.8711c-2.5938-0.21484-4.6289-2.418-4.6289-5.0195zm-30.168-59.531 70.27-82.812 33.402 33.402-82.812 70.273c-1.9844 1.6797-4.9805 1.5664-6.8203-0.28125h-0.003906l-13.758-13.762c-1.8438-1.8398-1.9648-4.8359-0.27734-6.8203zm-63.152-13.941-8.8711-108.25h47.242l-8.8711 108.25c-0.21484 2.5938-2.418 4.6289-5.0195 4.6289h-19.457c-2.6055 0-4.8125-2.0312-5.0234-4.6289zm-54.512 34.797-82.812-70.27 33.402-33.402 70.273 82.812c1.6836 1.9844 1.5625 4.9805-0.28125 6.8203v0.003906l-13.762 13.758c-1.8359 1.8398-4.8281 1.9648-6.8203 0.27734zm69.262 20.707c15.273 0 27.695 12.426 27.695 27.695 0 15.273-12.426 27.699-27.695 27.699-15.273 0-27.699-12.426-27.699-27.695 0-15.273 12.426-27.699 27.699-27.699zm-191.45 4.0781 108.25 8.8711c2.5938 0.21484 4.6289 2.418 4.6289 5.0195v19.457c0 2.6016-2.0312 4.8086-4.6289 5.0195l-108.25 8.875z"/>
</svg>