<?xml version="1.0" encoding="UTF-8"?>
<!-- The Best Svg Icon site in the world: iconSvg.co, Visit us! https://iconsvg.co -->
<svg fill="#000000" width="800px" height="800px" version="1.1" viewBox="144 144 512 512" xmlns="http://www.w3.org/2000/svg">
 <path d="m262.46 469.03 5.5938-5.5469c3.0234-3.0039 74.734-72.625 209.93-74.387 2.4844-14.977 2.3125-30.469-0.78125-45.742v-0.074218l-0.16016-0.76562c-0.03125-0.14062-0.050781-0.27734-0.082031-0.41797l-14.242-66.836c-2.4492-11.496-3.6836-23.219-3.6836-34.973v-7.4727l5.8984-2.8164 6.0039-2.8867c7.2812-3.4727 11.898-10.801 11.898-18.863v-2.9766l38.543-20.758c1.9297-1.0273 3.1523-3.0469 3.1523-5.2617-0.007812-3.2891-2.6836-5.9648-6-5.9648h-67.816c-12.168 0-23.059 5.5273-30.27 14.223-5.6484 6.8008-9.0469 15.551-9.0469 25.102v112.47c0 8.2031-6.6602 14.879-14.879 14.879h-15.461c-134.47 0-205.27 68.953-207.68 71.344-0.054687 0.054688-0.070313 0.070313-0.070313 0.070313l0.23047 0.23047c21.773 41.156 59.781 72.387 105.48 85.25-4.6992-6.6055-9.0117-13.559-12.879-20.859zm190.61-282.35h11.906v0.019531c2.6055 0 4.7305 2.125 4.7305 4.7461 0 2.6055-2.125 4.7305-4.7305 4.7305-0.99219 0-1.8945-0.30078-2.6562-0.81641l-6.2734-4.1797 0.17578-0.035156h-3.1523zm167.61 46.328h-67.816c-12.168 0-23.059 5.5273-30.27 14.223-5.6484 6.8008-9.0469 15.551-9.0469 25.102v112.47c0 8.2031-6.6602 14.879-14.879 14.879h-15.461c-65.695 0-116.19 16.461-150.94 33.574 11.441 23.988 32.578 42.062 58.039 49.613 25 7.4219 51.426 3.8203 73.184-8.5234l5.3047 9.1914c-15.77 8.957-33.746 13.793-52.055 13.793-9.8203 0-19.734-1.3867-29.457-4.2734-28.242-8.3789-51.695-28.383-64.461-54.941-30.242 16.277-46.176 31.797-47.293 32.91 27.875 52.688 82.484 89.43 145.66 91.859v35.488l50.824 28.344 34.195-35.434-70.852 0.003906v-28.434c7.8789-0.33594 15.633-1.1992 23.207-2.5586 33.773-6.0742 64.121-22.016 87.961-44.723 0.035157-0.035156 0.054688-0.054687 0.070313-0.070312 0.19141-0.1875 0.51562-0.51562 0.94531-0.97266 28.184-29.715 39.922-71.363 31.801-111.45v-0.074218l-0.16016-0.76562c-0.03125-0.14062-0.050781-0.27734-0.082031-0.41797l-14.242-66.836c-2.4492-11.496-3.6836-23.219-3.6836-34.973v-7.4688l5.8984-2.8164 6.0039-2.8867c7.2812-3.4727 11.898-10.801 11.898-18.863v-2.9766l38.543-20.758c1.9297-1.0273 3.1523-3.0469 3.1523-5.2617 0-3.293-2.6758-5.9688-5.9922-5.9688zm-53.559 22.887c-0.99219 0-1.8945-0.30078-2.6562-0.81641l-6.2734-4.1797 0.17578-0.035156h-3.1523v-4.4648h11.906v0.019531c2.6055 0 4.7305 2.125 4.7305 4.7461 0 2.6016-2.125 4.7305-4.7305 4.7305z"/>
</svg>