<?xml version="1.0" encoding="UTF-8"?>
<!-- The Best Svg Icon site in the world: iconSvg.co, Visit us! https://iconsvg.co -->
<svg fill="#000000" width="800px" height="800px" version="1.1" viewBox="144 144 512 512" xmlns="http://www.w3.org/2000/svg">
 <path d="m433.59 378.02h-6.6367l0.4375-3.418c0.36328-2.875-0.52344-5.7656-2.4336-7.9375-1.9141-2.1719-4.668-3.418-7.5625-3.418h-133.95c-2.8945 0-5.6523 1.2461-7.5625 3.418-1.9141 2.1719-2.8008 5.0664-2.4297 7.9375l0.4375 3.4141h-6.6406c-2.8008 0-5.3945 1.125-7.3125 3.168-1.9219 2.0508-2.9258 4.8477-2.7461 7.6719 1.4023 22.277 10.887 42.27 25.445 57.434l10.305 80.41c0.64062 5.0117 4.9375 8.7969 9.9922 8.7969h94.969c5.0547 0 9.3516-3.7852 9.9961-8.7969l10.305-80.418c14.555-15.164 24.039-35.156 25.441-57.434 0.17578-2.8281-0.83203-5.625-2.7539-7.6719-1.9141-2.0352-4.5039-3.1562-7.3008-3.1562zm-166.34 10.074h7.9297l4.9883 38.93c-7.3516-11.363-12.02-24.605-12.918-38.93zm130.65 137.32h-94.969l-8.8359-68.945c9.7266 7.2734 20.926 12.652 33.043 15.738v0.87891c0 5.5547 4.5195 10.078 10.078 10.078h26.402c5.5586 0 10.078-4.5234 10.078-10.078v-0.87891c12.117-3.0859 23.316-8.4688 33.043-15.742zm-60.684-52.324v-9.543h26.402l0.007812 9.543zm71.418-31.434c-9.7305 9.3711-21.73 16.422-35.105 20.238-0.79297-4.7656-4.918-8.4258-9.9102-8.4258h-26.402c-4.9922 0-9.1133 3.6562-9.9102 8.4219-13.375-3.8164-25.379-10.871-35.109-20.254l-1.2812-9.9844h119zm2.5742-20.078h-121.58l-2.2969-17.93h126.18zm3.5742-27.895c-0.18359-0.019531-0.33984-0.10547-0.53125-0.10547h-127.67c-0.1875 0-0.34766 0.085937-0.53125 0.10547l-2.6094-20.363v-0.003906l133.95 0.003906zm5.8828 33.375 4.9883-38.938 7.9336 0.097656c-0.89844 14.281-5.5664 27.496-12.922 38.84zm221.16 103.39c0 2.7852-2.2539 5.0391-5.0391 5.0391h-50.848c-11.113 0-20.152-9.0391-20.152-20.152v-181.85h-13.195v181.85c0 11.113-9.0391 20.152-20.152 20.152h-48.051c-11.113 0-20.152-9.0391-20.152-20.152v-181.85h-207.42c-5.5586 0-10.078-4.5195-10.078-10.078v-17.422c0-5.5586 4.5195-10.078 10.078-10.078h224.85c11.113 0 20.152 9.0391 20.152 20.152v181.85h13.195l-0.003906-181.84c0-11.113 9.0391-20.152 20.152-20.152h48.043c11.113 0 20.152 9.0391 20.152 20.152v181.74l33.426 0.10938c2.7852 0 5.0391 2.2539 5.0391 5.0391s-2.25 5.0352-5.0352 5.0391h-0.003906-33.316c-5.6133 0-10.184-4.5703-10.184-10.184v-181.74c0-5.5586-4.5234-10.078-10.078-10.078h-48.043c-5.5547 0-10.078 4.5195-10.078 10.078v181.85c0 5.5547-4.5234 10.078-10.078 10.078h-13.195c-5.5547 0-10.078-4.5234-10.078-10.078l0.007813-181.85c0-5.5586-4.5234-10.078-10.078-10.078l-224.84 0.003906v17.422h207.42c5.5547 0 10.078 4.5195 10.078 10.078v181.85c0 5.5547 4.5234 10.078 10.078 10.078h48.051c5.5547 0 10.078-4.5234 10.078-10.078l-0.011719-181.85c0-5.5586 4.5234-10.078 10.078-10.078h13.195c5.5547 0 10.078 4.5195 10.078 10.078v181.85c0 5.5547 4.5234 10.078 10.078 10.078h50.848 0.003906c2.7773 0 5.0312 2.2539 5.0312 5.0352zm-422.11-235.5c1.1445-2.5352 4.1289-3.6602 6.6602-2.5273l5.0117 2.2539c2.5391 1.1406 3.6719 4.125 2.5273 6.6602-0.83984 1.8672-2.6758 2.9727-4.5977 2.9727-0.69141 0-1.3945-0.14453-2.0625-0.44531l-5.0117-2.2539c-2.5391-1.1406-3.668-4.125-2.5273-6.6602zm-13.242-5.9609c-0.83984 1.8672-2.6758 2.9727-4.5977 2.9727-0.69141 0-1.3906-0.14453-2.0625-0.44531l-10.277-4.6211c-2.5391-1.1406-3.6719-4.125-2.5273-6.6602 1.1445-2.5391 4.1211-3.6602 6.6602-2.5273l10.277 4.6211c2.5352 1.1406 3.668 4.1211 2.5273 6.6602zm-47.859-21.527c1.1406-2.5391 4.1289-3.6641 6.6602-2.5273l5.0156 2.2539c2.5391 1.1406 3.6719 4.1211 2.5273 6.6602-0.83984 1.8672-2.6758 2.9727-4.5977 2.9727-0.69141 0-1.3906-0.14453-2.0625-0.44531l-5.0156-2.2539c-2.5352-1.1406-3.668-4.1211-2.5273-6.6602zm75.309 60.613c1.1406 2.5391 0.007813 5.5195-2.5273 6.6602l-5.0195 2.2539c-0.67188 0.30078-1.3711 0.44531-2.0625 0.44531-1.9219 0-3.7578-1.1055-4.5977-2.9727-1.1406-2.5391-0.007813-5.5195 2.5273-6.6602l5.0195-2.2539c2.5312-1.1328 5.5156-0.015626 6.6602 2.5273zm-27.449 12.348c1.1406 2.5352 0.011719 5.5195-2.5273 6.6602l-10.277 4.625c-0.67188 0.30078-1.3711 0.44531-2.0625 0.44531-1.9219 0-3.7578-1.1055-4.5977-2.9727-1.1406-2.5352-0.011718-5.5195 2.5273-6.6602l10.277-4.6211c2.5352-1.1367 5.5195-0.015625 6.6602 2.5234zm-33.656 15.137c1.1445 2.5352 0.011719 5.5195-2.5234 6.6602l-5.0117 2.2578c-0.67188 0.30078-1.375 0.44922-2.0664 0.44922-1.9219 0-3.7578-1.1055-4.5938-2.9727-1.1445-2.5352-0.011719-5.5195 2.5234-6.6602l5.0117-2.2578c2.5352-1.1367 5.5195-0.011719 6.6602 2.5234zm0.93359-40.852c0 2.7812-2.2539 5.0391-5.0391 5.0391h-5.5c-2.7812 0-5.0391-2.2539-5.0391-5.0391 0-2.7812 2.2539-5.0391 5.0391-5.0391h5.5c2.7812 0 5.0391 2.2578 5.0391 5.0391zm11.969 0c0-2.7812 2.2539-5.0391 5.0391-5.0391h10.098c2.7812 0 5.0391 2.2539 5.0391 5.0391 0 2.7812-2.2539 5.0391-5.0391 5.0391h-10.102c-2.7812 0-5.0352-2.2578-5.0352-5.0391zm33.066 0c0-2.7812 2.2539-5.0391 5.0391-5.0391h5.5c2.7812 0 5.0391 2.2539 5.0391 5.0391 0 2.7812-2.2539 5.0391-5.0391 5.0391h-5.5c-2.7812 0-5.0391-2.2578-5.0391-5.0391z"/>
</svg>