<?xml version="1.0" encoding="UTF-8"?>
<!-- The Best Svg Icon site in the world: iconSvg.co, Visit us! https://iconsvg.co -->
<svg fill="#000000" width="800px" height="800px" version="1.1" viewBox="144 144 512 512" xmlns="http://www.w3.org/2000/svg">
 <path d="m625.05 278.23c-2.4648-4.6406-7.2617-7.5273-12.504-7.5273h-99.281c0.058594-1.1758 0.089844-2.3516 0.089844-3.543 0-39.066-31.781-70.852-70.852-70.852l-85.016 0.003906c-39.066 0-70.852 31.781-70.852 70.852 0 1.1875 0.03125 2.3672 0.089843 3.543l-99.273-0.003906c-5.2461 0-10.039 2.8867-12.504 7.5273-2.4648 4.6406-2.1758 10.223 0.76172 14.574l14.238 21.047c10.223 15.125 27.227 24.156 45.484 24.156h44.141l-28.5 42.281c-22.32 33.086-29.773 74.32-20.477 113.14 9.3164 38.809 34.66 72.176 69.555 91.539l1.3789 0.78125c21.148 11.742 45.133 17.941 69.324 17.941h60.242c24.531 0 48.801-6.3789 70.156-18.418 34.625-19.539 59.727-52.926 68.844-91.621 9.125-38.703 1.5938-79.773-20.672-112.72l-28.996-42.914h44.117c18.262 0 35.266-9.0352 45.484-24.156l14.242-21.043c2.9531-4.3711 3.2344-9.9492 0.77734-14.59zm-267.56-71.289h85.02c33.207 0 60.219 27.016 60.219 60.219 0 33.207-27.016 60.219-60.219 60.219l-85.02 0.003906c-33.207 0-60.219-27.016-60.219-60.219-0.003906-33.207 27.012-60.223 60.219-60.223zm119.38 142.04v10.625c-0.59375 7.5156-6.9258 13.441-14.602 13.441-3.8711 0-7.3672-1.5234-9.9766-3.9805l-9.7188 7.8047-6.6562-8.2891 24.414-19.609 16.539 0.003906zm-61.922 141.98v10.625h-29.875v-10.625h9.6211v-13.367l-20.156-15.914 6.5859-8.3438 18.887 14.914 18.887-14.914 6.5859 8.3438-20.156 15.914v13.359h9.6211zm-48.516-122.98-6.6289 8.3086-9.0938-7.2539c-2.6133 2.4805-6.1328 4.0156-10.016 4.0156-7.6719 0-14.008-5.918-14.602-13.441v-10.625h16.523zm-130.99-40.594c-14.738 0-28.445-7.2812-36.684-19.48l-14.223-21.043c-1.0781-1.5938-0.49219-3.082-0.19531-3.6484 0.30078-0.57031 1.2031-1.8789 3.1172-1.8789h99.191v46.055zm305.2 59.496c20.898 30.945 27.699 68 19.129 104.32-8.5742 36.344-31.191 66.473-63.711 84.805-19.785 11.16-42.246 17.059-64.949 17.059h-60.238c-22.406 0-44.582-5.7383-64.172-16.617l-1.3672-0.76172c-32.309-17.941-55.777-48.812-64.383-84.734-8.625-35.938-1.7188-74.105 18.934-104.73l27.418-40.668c1.043 6.7461 3.4219 13.23 7.0117 19.074l49.012 79.652 6.5703 36.113c4.3945 24.215 25.488 41.816 50.109 41.816s45.715-17.609 50.109-41.816l6.5703-36.113 49.012-79.652c3.6133-5.8438 5.9688-12.344 7.0117-19.074zm74.836-100.02-14.223 21.043c-8.2383 12.203-21.945 19.48-36.684 19.48l-51.207 0.003906v-46.055h99.191c1.9141 0 2.8164 1.3086 3.1172 1.8789 0.30078 0.57031 0.88281 2.0586-0.19531 3.6484z"/>
</svg>