<?xml version="1.0" encoding="UTF-8"?>
<!-- The Best Svg Icon site in the world: iconSvg.co, Visit us! https://iconsvg.co -->
<svg fill="#000000" width="800px" height="800px" version="1.1" viewBox="144 144 512 512" xmlns="http://www.w3.org/2000/svg">
 <path d="m272.48 530.29v62.422h243.64v-62.422zm45.141 17.633h-27.457v12.496c0 2.0664-1.6641 3.7773-3.7773 3.7773-2.0664 0-3.7773-1.7109-3.7773-3.7773v-16.273c0-2.1172 1.7109-3.7773 3.7773-3.7773h31.234c2.1172 0 3.7773 1.6641 3.7773 3.7773 0 2.0625-1.6602 3.7773-3.7773 3.7773zm188.38 30.984c0 2.0664-1.7109 3.7773-3.7773 3.7773h-31.234c-2.0664 0-3.7773-1.7148-3.7773-3.7773 0-2.1172 1.7109-3.7773 3.7773-3.7773h27.457v-14.711c0-2.0664 1.7148-3.7773 3.7773-3.7773 2.0664 0 3.7773 1.7148 3.7773 3.7773zm-39.801-81.52c-7.9609-1.8125-14.309-8.1602-16.172-16.121l-0.20312-0.95703h-111.04l-0.20312 0.95703c-1.8125 7.9609-8.1602 14.309-16.172 16.121l-1.0078 0.20313v25.141h145.8v-25.141zm-60.004-115.27c-2.418 1.9141-4.9375 3.8281-7.5586 5.7422l-2.1172 1.6133c-2.2148 1.6641-4.5859 3.3242-6.9531 5.0391l-1.3594 1.0078c-2.3672 1.6641-4.7852 3.3242-7.2539 5.0391l-0.55469 0.35156v71.844h27.809l0.003906-92.25zm-101.82 31.438-0.80469 1.4609c-7.1055 12.395-12.695 22.871-16.172 29.473l-1.8125 3.5273 3.5273-1.8633c9.6719-4.9883 19.648-10.379 29.625-16.02l1.4609-0.80469zm25.039-41.16-0.85547 1.3086c-6.6016 10.227-13.25 21.059-19.801 32.242l-0.50391 0.85547 18.742 18.59 0.80469-0.45312c11.133-6.5 22.016-13.148 32.395-19.75l1.3086-0.85547zm27.508-38.742-0.90625 1.1602c-7.0039 8.9688-14.309 19.145-21.766 30.277l-0.60547 0.90625 34.309 34.109s5.3398-3.4766 6.5508-4.332c8.7148-5.8945 17.078-11.891 24.836-17.887l1.1094-0.90625zm77.184 10.477c-0.45312-0.25-0.65625-0.40234-0.85547-0.55469l-42.672-42.473c-0.20312-0.20312-0.40234-0.50391-0.55469-0.85547l-0.75391-1.4609-1.2578 1.0586c-2.7695 2.5195-5.6445 5.1875-8.7148 8.3125-5.3398 5.2891-11.035 11.586-16.93 18.742l-0.80469 0.95703 0.95703 0.80469 42.875 42.57 0.80469 0.90625 1.0078-0.60547 2.2109-1.7578c6.0469-4.9883 11.688-10.078 16.727-15.062 3.0742-3.0742 5.793-5.8945 8.3125-8.6641l1.0586-1.1602zm17.582-47.66c-1.8633-2.418-4.1289-4.7852-6.5469-7.1523-2.2656-2.2656-4.6836-4.5859-7.2539-6.5508-3.0234-2.2148-6.8008-4.5352-12.293-4.5352-7.9102 0-17.785 4.9883-30.23 15.215l-1.2578 1.0586 1.3086 0.95703 0.50391 0.30078 42.672 42.422 0.95703 1.3086 1.3086-0.75391c19.699-23.629 16.879-34.258 10.832-42.27zm75.422-40.051c-1.0078-2.6211-3.5781-4.3828-6.4492-4.3828-0.65625 0-1.3594 0.10156-2.0156 0.30078l-65.898 33.703 1.0078 1.3086 2.168 2.3672 67.109-24.586c3.5234-1.3047 5.3867-5.2344 4.0781-8.7109zm-49.02-48.719c-0.75781-0.30469-1.5117-0.40234-2.3203-0.40234-2.8203 0-5.3906 1.7617-6.3984 4.4336l-24.734 66.805 3.6797 3.2227 0.80469-1.4609 33.051-63.934c1.1562-3.6758-0.70703-7.4062-4.082-8.6641z"/>
</svg>