<?xml version="1.0" encoding="UTF-8"?>
<!-- The Best Svg Icon site in the world: iconSvg.co, Visit us! https://iconsvg.co -->
<svg fill="#000000" width="800px" height="800px" version="1.1" viewBox="144 144 512 512" xmlns="http://www.w3.org/2000/svg">
 <g>
  <path d="m527.57 257.88c-0.40234-0.39453-0.86719-0.72266-1.3789-0.96484l-122.3-57.957c-1.3672-0.64453-2.9453-0.64453-4.3164 0l-122.3 57.957c-0.47656 0.22656-0.91016 0.52344-1.293 0.88281l-75.918 71.348c-1.0117 0.95312-1.5859 2.2812-1.5859 3.668v21.84c0 2.7812 2.2539 5.0391 5.0391 5.0391h17.859v236.79c0 2.7812 2.2539 5.0391 5.0391 5.0391h347.18c2.7812 0 5.0391-2.2539 5.0391-5.0391l-0.003906-236.79h17.859c2.7812 0 5.0391-2.2539 5.0391-5.0391v-21.836c0-1.3516-0.54297-2.6406-1.5039-3.5898zm-222.02 333.56v-170.68l87.758 170.68zm90.246-17.195-87.004-169.21h87.008zm98.641 17.195h-86.223l86.219-176.29zm-88.562-18.148v-168.26h82.297zm162.67 18.148h-64.031v-191.45c0-2.7812-2.2539-5.0391-5.0391-5.0391h-198.96c-2.7812 0-5.0391 2.2539-5.0391 5.0391v191.45l-64.031-0.003907v-233.38l65.711-61.754 104.36-49.457 104.31 49.43 62.719 61.77zm22.898-241.83h-17.105l-62.047-61.109c-0.40234-0.39453-0.86719-0.72266-1.3789-0.96484l-107.24-50.816c-1.3672-0.64453-2.9453-0.64453-4.3164 0l-107.23 50.816c-0.47656 0.22656-0.91016 0.52344-1.293 0.88281l-65.105 61.191h-17.176v-14.621l73.754-69.312 119.43-56.598 119.38 56.57 70.336 69.27z"/>
  <path d="m400 294.48c-27.336 0-49.574 22.238-49.574 49.57v14.387c0 2.7812 2.2539 5.0391 5.0391 5.0391h89.07c2.7812 0 5.0391-2.2539 5.0391-5.0391v-14.387c0-27.332-22.238-49.57-49.574-49.57zm39.496 58.918h-78.996v-9.3477c0-21.777 17.719-39.496 39.496-39.496s39.496 17.719 39.496 39.496z"/>
 </g>
</svg>