<?xml version="1.0" encoding="UTF-8"?>
<!-- The Best Svg Icon site in the world: iconSvg.co, Visit us! https://iconsvg.co -->
<svg fill="#000000" width="800px" height="800px" version="1.1" viewBox="144 144 512 512" xmlns="http://www.w3.org/2000/svg">
 <g>
  <path d="m518.08 604.84c10.441 0 20.449-4.1445 27.832-11.527 7.3828-7.3828 11.527-17.395 11.527-27.832v-191.8c-0.023438-14.781-3.2227-29.383-9.3828-42.816l-34.234-74.32c-2.375-5.1641-3.6094-10.777-3.6133-16.461v-13.461h7.8711c2.0898 0 4.0898-0.82813 5.5664-2.3047 1.4766-1.4766 2.3047-3.4805 2.3047-5.5664v-31.488c0-6.2656-2.4883-12.27-6.9141-16.699-4.4297-4.4297-10.438-6.918-16.699-6.918h-94.465c-6.2656 0-12.27 2.4883-16.699 6.918-4.4297 4.4297-6.918 10.434-6.918 16.699v31.488c0 2.0859 0.82812 4.0898 2.3047 5.5664 1.4766 1.4766 3.4805 2.3047 5.5664 2.3047h7.8711v13.438h0.003906c-0.007812 5.6953-1.2461 11.32-3.6211 16.492l-34.168 74.082c-6.1914 13.453-9.4102 28.082-9.4453 42.887v26.484h15.742l0.003907-26.484c0.019531-12.527 2.7383-24.906 7.9727-36.289l21.891-47.438h113.41l21.945 47.656v0.003907c5.2227 11.363 7.9414 23.719 7.9688 36.227v191.8c0 6.2617-2.4883 12.27-6.918 16.699-4.4297 4.4297-10.434 6.918-16.699 6.918l-110.21-0.11719v15.742zm-118.08-417.58c0-4.3477 3.5234-7.8711 7.8711-7.8711h94.465c2.0859 0 4.0898 0.82812 5.5664 2.3047 1.4766 1.4766 2.3047 3.4766 2.3047 5.5664v23.617h-110.21zm5.6445 86.789 5.0312-10.902h-0.003906c3.3281-7.2461 5.0586-15.117 5.0703-23.09v-13.438h78.719v13.461c0.015624 7.957 1.7422 15.82 5.0625 23.051l5.0234 10.918z"/>
  <path d="m399.07 325.85 7.2695-15.742 14.301 6.6055-7.2695 15.742z"/>
  <path d="m384.25 373.52v18.609h15.742l0.003906-18.609c0.011719-7.9766 1.7461-15.855 5.0742-23.102l-14.305-6.5898h0.003907c-4.2773 9.3164-6.5039 19.441-6.5195 29.691z"/>
  <path d="m266.23 629.19c0.45703 3.9727 3.8203 6.9648 7.8164 6.9688h110.21c3.9961-0.003906 7.3594-2.9961 7.8164-6.9688l16.352-141.7 7.2656-62.977c0.25781-2.2305-0.44922-4.4648-1.9414-6.1406-1.4922-1.6758-3.6289-2.6367-5.875-2.6367h-157.44c-2.2461 0-4.3828 0.96094-5.875 2.6367-1.4922 1.6758-2.1992 3.9102-1.9414 6.1406l7.2656 62.977zm14.836-8.7773-14.539-125.95h125.24l-14.535 125.95zm117.97-188.93-5.4492 47.23h-128.88l-5.4492-47.23z"/>
  <path d="m285.21 518.97 15.633-1.7969 1.8125 15.742-15.633 1.7969z"/>
  <path d="m288.84 550.46 15.641-1.8047 5.4492 47.234-15.641 1.8047z"/>
 </g>
</svg>