<?xml version="1.0" encoding="UTF-8"?>
<!-- The Best Svg Icon site in the world: iconSvg.co, Visit us! https://iconsvg.co -->
<svg fill="#000000" width="800px" height="800px" version="1.1" viewBox="144 144 512 512" xmlns="http://www.w3.org/2000/svg">
 <g>
  <path d="m171.71 573.18h31.488v-15.746h-23.617v-47.23h133.82v-15.746h-70.848v-15.742h314.88v15.742h-133.82v15.742l196.8 0.003906v47.23h-188.93v15.742l196.8 0.003906c2.0859 0 4.0898-0.82812 5.5664-2.3047 1.4727-1.4766 2.3047-3.4805 2.3047-5.5664v-157.44c0-2.0898-0.83203-4.0898-2.3047-5.5664-1.4766-1.4766-3.4805-2.3047-5.5664-2.3047h-4.2539c10.953-12.148 14.824-29.109 10.219-44.801-4.6055-15.695-17.023-27.879-32.801-32.18 2.0859-5.8359 3.1758-11.98 3.2188-18.18v-78.027c0.039063-16.52-6.4258-32.391-17.996-44.184-11.574-11.793-27.32-18.559-43.836-18.832-16.52-0.27734-32.484 5.9609-44.441 17.359-11.965-11.375-27.922-17.59-44.43-17.309-16.508 0.28516-32.242 7.043-43.812 18.824-11.566 11.777-18.043 27.633-18.031 44.141v48.02c-2.5898-0.52344-5.2266-0.78906-7.8711-0.78516h-62.977c-10.434 0.011719-20.438 4.1641-27.816 11.543-7.3789 7.3789-11.531 17.383-11.543 27.816 0.027343 8.543 2.8672 16.844 8.0781 23.617h-8.0781c-2.6484 0.027343-5.2852 0.32422-7.8711 0.87891v-8.7539c0-2.0859-0.83203-4.0898-2.3047-5.5664-1.4766-1.4727-3.4805-2.3047-5.5664-2.3047h-0.20703c5.2109-6.7734 8.0469-15.07 8.0781-23.613v-15.746c0-2.0859-0.83203-4.0898-2.3047-5.5664-1.4766-1.4766-3.4805-2.3047-5.5664-2.3047h-0.20703c5.2109-6.7734 8.0469-15.07 8.0781-23.617v-47.23h-15.746v23.617l-7.8711-0.003906c-2.5742 0.011719-5.1445 0.27344-7.668 0.78906 1.8008-8.8359 0.91016-18.012-2.5586-26.336-3.4648-8.3242-9.3516-15.418-16.891-20.359-2.6484-1.7656-6.0938-1.7656-8.7383 0-7.543 4.9414-13.426 12.035-16.895 20.359s-4.3594 17.5-2.5586 26.336c-2.5234-0.51562-5.0898-0.77734-7.668-0.78906h-7.8711v-23.613h-15.746v47.23c0.03125 8.5469 2.8672 16.844 8.0781 23.617h-0.20312c-4.3477 0-7.875 3.5234-7.875 7.8711v15.746c0.03125 8.543 2.8672 16.84 8.0781 23.613h-0.20312c-4.3477 0-7.875 3.5234-7.875 7.8711v15.746c0.015624 10.434 4.1641 20.438 11.543 27.816 7.3789 7.3789 17.383 11.531 27.82 11.543h7.8711v15.742l-39.359 0.003906c-4.3477 0-7.875 3.5234-7.875 7.8711v157.44c0 2.0859 0.83203 4.0898 2.3086 5.5664 1.4766 1.4766 3.4766 2.3047 5.5664 2.3047zm55.105-78.719-47.234-0.003906v-15.742h47.23zm346.37 0v-15.746h47.23v15.742zm47.23-125.95c0 8.3516-3.3164 16.359-9.2227 22.266-5.9023 5.9023-13.914 9.2227-22.266 9.2227-8.0586-0.019531-15.797-3.168-21.574-8.7852 7.7773-14.137 7.7773-31.27 0-45.406 5.7773-5.6211 13.516-8.7695 21.574-8.7852 8.3516 0 16.363 3.3164 22.266 9.2227 5.9062 5.9023 9.2227 13.914 9.2227 22.266zm-283.39 7.8711c0-6.2656 2.4883-12.27 6.9141-16.699 4.4297-4.4297 10.438-6.918 16.699-6.918v15.742h15.742l0.003906-15.742h47.23c8.4375 0 16.234 4.5 20.453 11.809 4.2188 7.3086 4.2188 16.309 0 23.617-4.2188 7.3047-12.016 11.809-20.453 11.809h-62.977c-6.2617 0-12.27-2.4883-16.699-6.918-4.4258-4.4297-6.9141-10.438-6.9141-16.699zm125.95-59.719 15.742-15.742v3.9375-0.003906c-0.027344 10.82 3.1484 21.406 9.1328 30.418-0.66016 0.54297-1.3008 1.1172-2 1.6133l-22.875 16.328zm15.742-38.008-15.742 15.742v-32.836l15.742-15.742zm-15.742 93.91 16.43-11.738h-0.003906c-2.457 14.121 1.7656 28.59 11.438 39.172h-27.863zm31.484-4.0547c0-8.3516 3.3203-16.363 9.2227-22.266 5.9062-5.9062 13.918-9.2227 22.266-9.2227 8.3516 0 16.363 3.3164 22.266 9.2227 5.9062 5.9023 9.2227 13.914 9.2227 22.266 0 8.3516-3.3164 16.359-9.2227 22.266-5.9023 5.9023-13.914 9.2227-22.266 9.2227-8.3477 0-16.359-3.3203-22.266-9.2227-5.9023-5.9062-9.2227-13.914-9.2227-22.266zm47.234-188.93c12.523 0.011719 24.527 4.9922 33.383 13.848 8.8555 8.8555 13.836 20.863 13.848 33.383v78.027c-0.015625 5.7578-1.2969 11.445-3.7539 16.652-10.305 0.78125-20.062 4.9648-27.734 11.895-2.4219-2.168-5.0586-4.082-7.8711-5.7148v-11.02l29.18-29.18-11.133-11.133-18.047 18.062v-32.84l29.18-29.18-11.129-11.133-18.051 18.051v-36.102h-15.742v36.102l-18.051-18.051-11.133 11.133 29.184 29.18v32.844l-18.051-18.051-11.133 11.133 29.184 29.176v5.3242c-10.957-1.9453-22.246 0.13672-31.789 5.8633-4.9023-6.6719-7.5586-14.73-7.5742-23.012v-78.027c0.015624-12.52 4.9961-24.527 13.852-33.383 8.8516-8.8555 20.859-13.836 33.383-13.848zm-133.82 47.23c0-12.516 4.9688-24.52 13.812-33.375 8.8477-8.8555 20.848-13.84 33.363-13.852 12.516-0.015626 24.527 4.9375 33.395 13.773-5.6992 9.0273-8.9844 19.363-9.5508 30.023l-15.914 15.918v-36.102h-15.746v36.102l-18.051-18.051-11.133 11.133 29.184 29.18v32.844l-18.051-18.051-11.133 11.133 29.184 29.176v28.434c-6.4844-4.9453-14.359-7.7305-22.516-7.9648l-0.36328-0.26172h0.003907c-2.0234-1.4531-3.9023-3.0938-5.6133-4.9023 4.5664-8.207 5.9844-17.801 3.9805-26.977-2-9.1758-7.2812-17.309-14.852-22.871zm-110.21 86.594c0-6.2617 2.4844-12.27 6.9141-16.699 4.4297-4.4297 10.438-6.918 16.699-6.918v15.742h15.742l0.003907-15.742h47.23c8.4375 0 16.234 4.5039 20.453 11.809 4.2188 7.3086 4.2188 16.309 0 23.617-4.2188 7.3047-12.016 11.809-20.453 11.809h-62.977c-6.2617 0-12.27-2.4883-16.699-6.918-4.4297-4.4297-6.9141-10.438-6.9141-16.699zm23.617 39.359h8.0781-0.003906c-5.2344 6.7617-8.0742 15.066-8.0742 23.617 0 8.5508 2.8398 16.855 8.0742 23.617h-47.438c-6.2617 0-12.27-2.4883-16.699-6.918-4.4297-4.4297-6.918-10.438-6.918-16.699h-0.24219c7.1406-5.3086 12.27-12.887 14.539-21.492 2.9297-1.3359 6.1016-2.0625 9.3203-2.125zm-102.34-62.977h0.20312c-0.070312 0.085938-0.14062 0.15625-0.20312 0.24219-0.0625-0.085938-0.13281-0.15625-0.20312-0.24219zm7.8711 31.488v-7.8711c0-6.2617 2.4883-12.27 6.918-16.699 4.4297-4.4297 10.438-6.918 16.699-6.918h7.8711v7.875c0 6.2617-2.4883 12.27-6.9141 16.695-4.4297 4.4297-10.438 6.918-16.699 6.918zm-47.23-31.488h7.8711c6.2656 0 12.27 2.4883 16.699 6.918 4.4297 4.4297 6.918 10.438 6.918 16.699v7.8711h-7.8711c-6.2656 0-12.273-2.4883-16.699-6.918-4.4297-4.4258-6.918-10.434-6.918-16.695zm39.359 47.23h0.20312c-0.070312 0.085938-0.14062 0.15625-0.20312 0.24219-0.0625-0.085938-0.13281-0.15625-0.20312-0.24219zm7.8711 23.617c0-6.2617 2.4883-12.27 6.918-16.699 4.4297-4.4258 10.438-6.9141 16.699-6.9141h7.8711v7.8711c0 6.2617-2.4883 12.27-6.9141 16.699-4.4297 4.4297-10.438 6.918-16.699 6.918h-7.875zm31.488-118.08v7.875c0 6.2656-2.4883 12.27-6.9141 16.699-4.4297 4.4297-10.438 6.918-16.699 6.918h-7.875v-7.8711c0-6.2656 2.4883-12.273 6.918-16.699 4.4297-4.4297 10.438-6.918 16.699-6.918zm-39.359-45.039c5.7461 5.6484 8.9844 13.367 8.9844 21.426s-3.2383 15.777-8.9844 21.43c-5.7461-5.6523-8.9844-13.371-8.9844-21.43s3.2383-15.777 8.9844-21.426zm-7.8711 68.66v7.8711h-7.8711c-6.2656 0-12.273-2.4883-16.699-6.918-4.4297-4.4297-6.918-10.434-6.918-16.699v-7.8711h7.8711c6.2656 0 12.27 2.4883 16.699 6.918 4.4297 4.4258 6.918 10.434 6.918 16.699zm-31.488 78.719v-7.8711h7.8711c6.2656 0 12.27 2.4883 16.699 6.9141 4.4297 4.4297 6.918 10.438 6.918 16.699v7.8711l-7.8711 0.003907c-6.2656 0-12.273-2.4883-16.699-6.918-4.4297-4.4297-6.918-10.438-6.918-16.699zm47.23 39.359h7.875c2.8828-0.019531 5.7539-0.35156 8.5625-1 1.1016 6.0898 3.6328 11.828 7.3828 16.746h-23.82zm-47.23 31.488h440.83v47.23l-440.83 0.003906z"/>
  <path d="m588.93 525.95h15.742v15.742h-15.742z"/>
  <path d="m195.32 525.95h15.742v15.742h-15.742z"/>
  <path d="m195.32 431.49h15.742v15.742h-15.742z"/>
  <path d="m588.93 431.49h15.742v15.742h-15.742z"/>
  <path d="m274.05 368.51h15.742v15.742h-15.742z"/>
  <path d="m400 368.51h15.742v15.742h-15.742z"/>
  <path d="m360.64 305.54h15.742v15.742h-15.742z"/>
  <path d="m510.21 352.77h15.742v15.742h-15.742z"/>
  <path d="m258.3 636.16c16.734-0.027344 32.203-8.9023 40.668-23.332 0.51953 1.418 0.91406 2.8672 1.4805 4.2656 2.2305 5.6328 6.1094 10.461 11.121 13.863 5.0156 3.3984 10.938 5.2148 16.996 5.2031h3.1484c4.7109-0.007812 9.3516-1.1016 13.566-3.2031l7.4844-3.7422 6.7539 3.3789c4.6797 2.332 9.832 3.5547 15.059 3.5664h2.3633c6.0508 0.019532 11.965-1.7852 16.977-5.1758 5.0078-3.3867 8.8828-8.207 11.117-13.828 7.0898-17.637 10.727-36.473 10.707-55.48-0.011719-7.1445-2.168-14.117-6.1836-20.023-4.0195-5.9062-9.7148-10.469-16.355-13.105 9.3359-8.8789 14.625-21.199 14.629-34.086 0-2.0859-0.83203-4.0898-2.3047-5.5664-1.4766-1.4727-3.4805-2.3047-5.5664-2.3047h-7.8359c-16.043 0.011718-30.98 8.1758-39.656 21.672-4.6641-8.1562-11.152-15.121-18.957-20.348l-8.7695 13.098c10.434 6.9648 17.488 17.969 19.461 30.355-5.6172-3.5273-12.109-5.4023-18.738-5.418-8.2227 0.011719-16.191 2.8594-22.562 8.0586-6.3711 5.1953-10.758 12.434-12.418 20.488-11.414-10.719-27.398-15.082-42.676-11.656-15.273 3.4297-27.859 14.203-33.602 28.77-5.7383 14.566-3.8867 31.031 4.9453 43.961 8.8281 12.926 23.492 20.637 39.148 20.59zm132.79-133.82c-1.707 6.5898-5.5039 12.449-10.82 16.707-5.3125 4.2578-11.863 6.6797-18.668 6.9062 1.7109-6.5898 5.5039-12.453 10.82-16.707 5.3164-4.2578 11.863-6.6797 18.668-6.9062zm-65.621 39.359c5.2891-0.011718 10.359 2.0859 14.094 5.832l7.6055 7.6055h-0.003906c3.0742 3.0742 8.0586 3.0742 11.133 0l7.6133-7.6055c3.7344-3.7539 8.8164-5.8555 14.113-5.832 5.2969 0.003907 10.375 2.1094 14.121 5.8555 3.7461 3.7461 5.8555 8.8242 5.8594 14.125 0.007812 16.988-3.2461 33.824-9.582 49.594-1.0703 2.6992-2.9297 5.0195-5.332 6.6484-2.4062 1.6328-5.2461 2.5039-8.1523 2.4961h-2.3633c-2.793 0-5.5508-0.65234-8.0508-1.9023l-10.281-5.1406c-2.2188-1.1055-4.8281-1.1055-7.0469 0l-11.02 5.5117v-0.003906c-2.0195 1.0234-4.2539 1.5625-6.5195 1.5742h-3.1484c-2.9141 0.007813-5.7656-0.86328-8.1836-2.4961-2.4141-1.6367-4.2812-3.9609-5.3555-6.6719-6.2891-15.781-9.4922-32.625-9.4297-49.609 0.003906-5.2891 2.1016-10.363 5.8398-14.109 3.7344-3.7422 8.8008-5.8555 14.09-5.8711zm-67.164 15.742c8.3516 0 16.363 3.3203 22.266 9.2227 5.9062 5.9062 9.2227 13.914 9.2227 22.266 0 8.3516-3.3164 16.363-9.2227 22.266-5.9023 5.9062-13.914 9.2227-22.266 9.2227-8.3516 0-16.359-3.3164-22.266-9.2227-5.9023-5.9023-9.2227-13.914-9.2227-22.266 0-8.3516 3.3203-16.359 9.2227-22.266 5.9062-5.9023 13.914-9.2227 22.266-9.2227z"/>
 </g>
</svg>