<?xml version="1.0" encoding="UTF-8"?>
<!-- The Best Svg Icon site in the world: iconSvg.co, Visit us! https://iconsvg.co -->
<svg fill="#000000" width="800px" height="800px" version="1.1" viewBox="144 144 512 512" xmlns="http://www.w3.org/2000/svg">
 <g>
  <path d="m391.12 539.55c-9.2539-4.6406-16.594-16.793-21.824-36.113-0.72656-2.6875-3.5-4.3008-6.1797-3.5469-2.6875 0.72266-4.2734 3.4922-3.5469 6.1758 6.0977 22.527 14.938 36.43 27.031 42.488 0.72656 0.36328 1.4961 0.53516 2.2539 0.53516 1.8477 0 3.625-1.0195 4.5078-2.7812 1.2539-2.4883 0.24609-5.5117-2.2422-6.7578z"/>
  <path d="m362.11 459.24c-1.3359-15.164-2.0117-32.531-2.0117-51.617 0-23.941 1.0195-43.605 3.125-60.113 0.34766-2.7617-1.6016-5.2773-4.3633-5.6328-2.7344-0.32422-5.2852 1.5977-5.6367 4.3633-2.1562 16.93-3.2031 37.008-3.2031 61.383 0 19.379 0.69141 37.043 2.0508 52.5 0.23047 2.6211 2.4297 4.5938 5.0117 4.5938 0.14844 0 0.29688-0.003906 0.44922-0.019531 2.7734-0.24219 4.8203-2.6836 4.5781-5.457z"/>
  <path d="m408.68 199.17c-2.3984-1.4102-5.4844-0.61328-6.8984 1.7812-5.6055 9.5234-7.0586 19-7.375 24.695-22.25 1.2539-40.023 9.3945-53.66 24.938-0.039063-0.015626-0.0625-0.046876-0.10156-0.0625-13.008-4.6133-27.34-5.4062-43.789-2.3945-64.695 11.793-85.207 68.734-66.512 184.63 12.609 78.18 35.895 129.75 69.207 153.3 13.148 9.293 27.66 13.965 43.312 13.965 4.9805 0 10.074-0.47266 15.277-1.4219 4.0977-0.75 8.0312-1.9492 11.793-3.4258 9.2539 4.1953 19.477 6.3398 30.707 6.3398 10.996 0 21.023-2.0664 30.125-6.0898 3.5586 1.3477 7.25 2.4648 11.105 3.1719 5.1992 0.94922 10.293 1.4219 15.273 1.4219 15.645 0 30.164-4.668 43.312-13.965 33.312-23.547 56.598-75.125 69.207-153.3 18.695-115.89-1.8164-172.84-66.508-184.63-16.09-2.9453-30.125-2.2266-42.902 2.1172-14.078-15.867-32.551-23.875-55.738-24.672 0.32812-4.5938 1.5898-12.09 5.9531-19.504 1.4062-2.3945 0.60938-5.4805-1.7891-6.8945zm-52.352 389.52c-18.781 3.4141-35.922-0.23437-50.961-10.859-30.582-21.617-53.086-72.34-65.074-146.68-17.848-110.63-0.39062-162.41 58.367-173.12 13.375-2.4297 25.031-2.0742 35.543 1.0234-19.453 28.691-28.578 76.359-28.578 145.37 0 97.035 17.617 158.54 52.457 183.84-0.59375 0.12891-1.1562 0.3125-1.7539 0.42187zm145.02-330.66c58.758 10.715 76.215 62.488 58.367 173.12-11.988 74.34-34.496 125.06-65.074 146.68-15.035 10.629-32.18 14.273-50.957 10.859-0.26953-0.050781-0.51953-0.13672-0.78516-0.1875 35.043-25.156 52.762-86.75 52.762-184.07 0-69.273-9.1875-117.05-28.793-145.71 10.23-2.8203 21.562-3.0391 34.48-0.69141zm-15.766 146.39c0 101.29-19.051 161.81-56.699 180.63-0.53125 0.14062-1.0117 0.37109-1.4688 0.67578-8.0938 3.7734-17.008 5.707-26.773 5.707-56.363 0-84.941-62.922-84.941-187.02 0-118.38 25.402-168.88 84.941-168.88 59.539 0 84.941 50.508 84.941 168.88z"/>
 </g>
</svg>