<?xml version="1.0" encoding="UTF-8"?>
<!-- The Best Svg Icon site in the world: iconSvg.co, Visit us! https://iconsvg.co -->
<svg fill="#000000" width="800px" height="800px" version="1.1" viewBox="144 144 512 512" xmlns="http://www.w3.org/2000/svg">
 <path d="m283.11 495.72h53.402l-49.879 37.281v93.707h-21.664l-15.617-106.3zm193.97 17.633 25.695 113.36h21.664l-17.633-136.03c-7.0547 2.5195-14.105 4.0312-21.664 5.0391zm143.08-203.04-8.5664 7.0547c-4.0312 3.0234-9.0703 5.0391-14.105 5.0391h-34.762l-13.098 99.754c-2.5195 18.137-11.082 33.754-24.184 45.344-13.098 11.082-29.727 18.137-47.863 18.137l-21.664 49.375-5.0391 92.699h-21.664l-6.5508-94.211-22.668-48.371h-120.41l-66 47.863v93.707h-21.664l-18.641-141.57 14.609-14.105v-63.48c-8.0625 0-14.609-6.5508-14.609-14.609v-11.586c0-18.641 8.0625-36.777 21.664-49.375 12.09-11.082 28.215-17.129 44.84-17.129h160.21l44.336-35.266c-7.0547-11.082-11.586-23.68-11.586-37.785-0.003906-37.789 30.727-68.52 68.012-68.52 30.23 0 56.426 20.152 64.992 47.863l8.0625 3.5273c7.0547 3.5273 13.098 8.5664 17.129 15.113l32.746 48.367c5.0352 7.0508 3.5234 17.125-3.5273 22.164zm-62.473-77.586c-4.5352-29.727-31.742-51.895-63.48-48.367-27.207 3.0234-48.871 25.695-50.883 53.402-2.0156 33.254 24.684 61.469 57.434 61.469 6.5508 0 13.098-1.0078 19.648-3.5273l-2.0156-3.0234c-3.5273-5.543-10.078-8.5664-16.625-9.0703h-0.50391c-16.121-0.50391-29.727-12.594-31.738-28.719-2.5195-20.152 13.098-37.281 32.746-37.281 11.082 0 21.16 5.543 27.207 14.105 0.5 1.0117 28.211 1.0117 28.211 1.0117zm-61.969-2.5195c-8.5664 3.0234-15.113 11.082-15.113 20.656l19.145-15.113zm85.145 36.777-6.5508-9.5742c-1.5117-2.0156-3.5273-3.5273-6.0469-3.5273h-14.609l1.0078 4.0312c1.0078 5.0391 5.543 8.5664 10.578 8.5664 1.5117 0.50391 15.621 0.50391 15.621 0.50391z"/>
</svg>