<?xml version="1.0" encoding="UTF-8"?>
<!-- The Best Svg Icon site in the world: iconSvg.co, Visit us! https://iconsvg.co -->
<svg fill="#000000" width="800px" height="800px" version="1.1" viewBox="144 144 512 512" xmlns="http://www.w3.org/2000/svg">
 <g>
  <path d="m258.3 474.25c0-1.0156 0-2.0312 0.078125-3.0391l-15.742-0.73828c-0.0625 1.2539-0.09375 2.5156-0.09375 3.7773 0 4.5977 0.39844 9.1836 1.1953 13.707l15.5-2.7383c-0.62891-3.6211-0.94141-7.293-0.9375-10.969z"/>
  <path d="m248.48 504.16 14.559-5.9961 26.414 64.152-14.559 5.9961z"/>
  <path d="m610.22 195.81c-6.7031-1.2031-13.609-0.1875-19.684 2.8906-6.8086 3.1836-14.27 4.7227-21.781 4.4961h-86.805c-4.707-11.617-12.773-21.566-23.164-28.578-10.395-7.0117-22.641-10.766-35.176-10.785h-47.23c-19.98 0.0625-38.75 9.6016-50.574 25.707-11.828 16.109-15.309 36.871-9.3789 55.953 5.9258 19.082 20.559 34.219 39.43 40.793 1.3867 5.1328 3.2617 10.117 5.6055 14.891 3.1328 6.3281 5.2461 13.109 6.2578 20.098h-77.934c-4.3477 0-7.8711 3.5234-7.8711 7.8711v42.117l-5.5117 2.457c-26.184 11.633-46.793 33.023-57.449 59.621-10.652 26.602-10.508 56.305 0.40234 82.797l47.406 115.14c1.2148 2.9492 4.0898 4.875 7.2812 4.875h251.9c3.1914 0 6.0664-1.9258 7.2852-4.875l47.406-115.14h-0.003906c10.914-26.492 11.059-56.195 0.40234-82.797-10.652-26.598-31.266-47.988-57.449-59.621l-5.5117-2.457v-42.117c0-2.0859-0.82812-4.0898-2.3047-5.5664-1.4766-1.4727-3.4805-2.3047-5.5664-2.3047h-77.934c1.0039-6.9844 3.1094-13.77 6.2344-20.098 2.3438-4.7734 4.2188-9.7578 5.6055-14.891 17.184-5.957 30.969-19.023 37.84-35.859h90.617c6.6445 0.25781 13.152 1.9688 19.066 5.0078 4.082 1.8945 8.5312 2.8711 13.035 2.8633 10.59-0.003906 20.469-5.3281 26.289-14.176 5.8242-8.8438 6.8086-20.023 2.625-29.754-4.1836-9.7266-12.98-16.699-23.406-18.559zm-178.73-15.523v93.047c-2.6016 0.45703-5.2344 0.69531-7.875 0.71094h-15.742v-94.465h15.742c2.6406 0.015625 5.2734 0.25391 7.875 0.70703zm-39.363-0.70703v94.465h-15.742c-2.6406-0.015625-5.2734-0.25391-7.8711-0.71094v-93.047c2.5977-0.45312 5.2305-0.69141 7.8711-0.70703zm-62.977 47.23c0.023437-16.852 9.0234-32.414 23.617-40.84v81.68c-14.594-8.4258-23.594-23.988-23.617-40.84zm86.594 110.21v31.488h-31.488v-31.488zm-31.488 47.23h31.488v47.23l-31.488 0.003906zm-86.59-47.23h70.848v31.488h-70.848zm-14.863 51.082 8.6602-3.8477 77.051-0.003906v47.23l-131.36 0.003906c9.7891-19.27 25.906-34.586 45.645-43.383zm283.3 122.05-45.422 110.26h-241.36l-45.422-110.26c-8.2344-19.992-9.3477-42.207-3.1484-62.922h338.5c6.1992 20.715 5.0859 42.93-3.1484 62.922zm-3.2578-78.664h-131.35v-47.234h77.051l8.6602 3.8477-0.003907 0.003907c19.742 8.7969 35.855 24.113 45.645 43.383zm-60.504-62.977h-70.848v-31.488h70.848zm-77.934-74.367c-4.2227 8.5156-6.9492 17.695-8.0625 27.133h-32.684c-1.1133-9.4375-3.8398-18.617-8.0625-27.133-0.73047-1.457-1.3242-2.9844-1.9453-4.4961 0.92969 0 1.8359 0.14062 2.7695 0.14062h47.23c0.9375 0 1.8438-0.10156 2.7695-0.14062-0.65625 1.5117-1.2305 3.0391-2.0156 4.4961zm22.828-26.492v-81.68c10.457 6.0586 18.207 15.879 21.664 27.457 0.55469 1.9297 0.98828 3.8906 1.2969 5.875 0.070313 0.42578 0.14062 0.85937 0.19531 1.2812h0.003906c0.60938 4.1133 0.60938 8.293 0 12.406-0.054687 0.42578-0.125 0.85937-0.19531 1.2812l-0.003906 0.003906c-0.30859 1.9805-0.74219 3.9414-1.2969 5.8711-3.4453 11.598-11.195 21.438-21.664 27.504zm169.49-30.699c-2.2188 2.5938-5.2148 4.4023-8.5469 5.1602-3.3281 0.75781-6.8125 0.42188-9.9375-0.95703-7.9727-4.0273-16.738-6.2344-25.668-6.4688h-86.477v-0.51953c0.62109-4.8828 0.62109-9.8242 0-14.707v-0.51953h82.656c10.004 0.24609 19.922-1.8789 28.945-6.2031 3.0273-1.5312 6.4727-2.0273 9.8086-1.418 3.125 0.60156 5.9961 2.1211 8.25 4.3672 2.2539 2.2422 3.7891 5.1094 4.4023 8.2305 0.86328 4.6367-0.39453 9.418-3.4336 13.027z"/>
 </g>
</svg>