<?xml version="1.0" encoding="UTF-8"?>
<!-- The Best Svg Icon site in the world: iconSvg.co, Visit us! https://iconsvg.co -->
<svg fill="#000000" width="800px" height="800px" version="1.1" viewBox="144 144 512 512" xmlns="http://www.w3.org/2000/svg">
 <g>
  <path d="m570.79 583.89h-43.328v-10.078c7.5586 0 21.16-2.0156 30.73-11.082 13.098-13.098 12.09-34.762 12.09-35.77 0-2.5195-2.0156-4.5352-4.5352-4.5352-1.0078 0-23.176-2.0156-36.273 11.082-0.50391 0.50391-1.5117 1.5117-2.0156 2.0156l0.003907-9.5742c3.5273-3.5273 12.09-13.602 12.09-25.191 0-14.609-13.602-26.199-14.105-26.703-2.0156-1.5117-4.5352-1.5117-6.5508 0-0.50391 0.50391-13.602 12.09-13.602 26.703 0 11.586 8.0625 21.16 12.09 24.688v9.0703c-0.50391-0.50391-0.50391-0.50391-1.0078-1.0078-13.098-13.098-34.762-12.09-35.77-12.09-2.5195 0-4.5352 2.0156-4.5352 4.5352 0 1.0078-2.0156 23.176 11.082 36.273 9.0703 9.5742 23.176 11.586 30.73 12.09v9.5742h-114.36v-10.078c7.5586 0 21.16-2.0156 30.73-11.082 13.098-13.098 12.09-34.762 12.09-35.77 0-2.5195-2.0156-4.5352-4.5352-4.5352-1.0078 0-23.176-2.0156-36.273 11.082-0.50391 0.50391-1.5117 1.5117-2.0156 2.0156l0.003907-9.5742c3.5273-3.5273 12.09-13.602 12.09-25.191 0-14.609-13.602-26.199-14.105-26.703-2.0156-1.5117-4.5352-1.5117-6.5508 0-0.50391 0.50391-13.602 12.09-13.602 26.703 0 11.586 8.0625 21.16 12.09 24.688v9.0703c-0.50391-0.50391-0.50391-0.50391-1.0078-1.0078-13.098-13.098-34.762-12.09-35.77-12.09-2.5195 0-4.5352 2.0156-4.5352 4.5352 0 1.0078-2.0156 23.176 11.082 36.273 9.0703 9.5742 23.176 11.586 30.73 12.09v9.5742h-114.36v-10.078c7.5586 0 21.16-2.0156 30.73-11.082 13.098-13.098 12.09-34.762 12.09-35.77 0-2.5195-2.0156-4.5352-4.5352-4.5352-1.0078 0-23.176-2.0156-36.273 11.082-0.50391 0.50391-1.5117 1.5117-2.0156 2.0156l0.003906-9.5742c3.5273-3.5273 12.09-13.602 12.09-25.191 0-14.609-13.602-26.199-14.105-26.703-2.0156-1.5117-4.5352-1.5117-6.5508 0-0.50391 0.50391-13.602 12.09-13.602 26.703 0 11.586 8.0625 21.16 12.09 24.688v9.0703c-0.50391-0.50391-0.50391-0.50391-1.0078-1.0078-13.098-13.098-34.762-12.09-35.77-12.09-2.5195 0-4.5352 2.0156-4.5352 4.5352 0 1.0078-2.0156 23.176 11.082 36.273 9.0703 9.5742 23.176 11.586 30.73 12.09v9.5742h-43.328c-3.0234 0-5.0391 2.0156-5.0391 5.0391 0 3.0234 2.0156 5.0391 5.0391 5.0391h344.61c3.0234 0 5.0391-2.0156 5.0391-5.0391 0.003906-3.0273-3.0195-5.0391-5.5391-5.0391zm-34.258-43.832c7.0547-6.5508 17.633-8.0625 23.68-8.0625-0.50391 6.0469-2.0156 16.625-9.0703 23.176s-17.633 8.0625-23.68 8.0625c0.50391-5.543 2.0156-16.629 9.0703-23.176zm-21.16-39.297c0-6.5508 4.0312-12.09 7.0547-15.617 3.0234 3.5273 7.0547 9.0703 7.0547 15.617 0 6.5508-4.0312 12.09-7.0547 15.617-3.0234-3.5273-7.0547-9.5742-7.0547-15.617zm-21.16 54.41c-6.5508-7.0547-8.0625-17.633-8.0625-23.68 6.0469 0.50391 16.625 2.0156 23.176 9.0703 6.5508 6.5508 8.0625 16.625 8.0625 22.672v1.0078c-6.0469-0.50391-16.625-2.5195-23.176-9.0703zm-81.617-15.113c7.0547-6.5508 17.633-8.0625 23.68-8.0625-0.50391 6.0469-2.0156 16.625-9.0703 23.176s-17.633 8.0625-23.68 8.0625c0.50391-5.543 2.0156-16.629 9.0703-23.176zm-21.16-39.297c0-6.5508 4.0312-12.09 7.0547-15.617 3.0234 3.5273 7.0547 9.5742 7.0547 15.617 0 6.5508-4.0312 12.09-7.0547 15.617-3.0234-3.5273-7.0547-9.5742-7.0547-15.617zm-21.16 54.41c-6.5508-7.0547-8.0625-17.633-8.0625-23.68 6.0469 0.50391 16.625 2.0156 23.176 9.0703 6.5508 6.5508 8.0625 16.625 8.0625 22.672v1.0078c-6.0469-0.50391-16.625-2.0156-23.176-9.0703zm-81.617-15.113c7.0547-6.5508 17.633-8.0625 23.68-8.0625-0.50391 6.0469-2.0156 16.625-9.0703 23.176s-17.633 8.0625-23.68 8.0625c0.50781-5.543 2.0156-16.629 9.0703-23.176zm-21.16-39.297c0-6.5508 4.0312-12.09 7.0547-15.617 3.0234 3.5273 7.0547 9.0703 7.0547 15.617 0 6.5508-4.0312 12.09-7.0547 15.617-3.0234-3.5273-7.0547-9.5742-7.0547-15.617zm-21.16 54.41c-6.5508-7.0547-8.0625-17.633-8.0625-23.68 6.0469 0.50391 16.625 2.0156 23.176 9.0703 6.5508 6.5508 8.0625 16.625 8.0625 22.672v1.0078c-6.0469-0.50391-16.625-2.5195-23.176-9.0703z"/>
  <path d="m570.79 447.86h-43.328v-10.078c7.5586 0 21.16-2.0156 30.73-11.082 13.098-13.098 12.09-34.762 12.09-35.77 0-2.5195-2.0156-4.5352-4.5352-4.5352-1.0078 0-23.176-2.0156-36.273 11.082-0.50391 0.50391-1.5117 1.5117-2.0156 2.0156l0.003907-9.5703c3.5273-3.5273 12.09-13.602 12.09-25.191 0-14.609-13.602-26.199-14.105-26.703-2.0156-1.5117-4.5352-1.5117-6.5508 0-0.50391 0.50391-13.602 12.09-13.602 26.703 0 11.586 8.0625 21.16 12.09 24.688v9.0703l-1.0078-1.0078c-13.098-13.098-34.762-12.09-35.77-12.09-2.5195 0-4.5352 2.0156-4.5352 4.5352 0 1.0078-2.0156 23.176 11.082 36.273 9.0703 9.5742 23.176 11.586 30.73 12.09v9.5742l-114.36-0.003906v-10.078c7.5586 0 21.16-2.0156 30.73-11.082 13.098-13.098 12.09-34.762 12.09-35.77 0-2.5195-2.0156-4.5352-4.5352-4.5352-1.0078 0-23.176-2.0156-36.273 11.082-0.50391 0.50391-1.5117 1.5117-2.0156 2.0156l0.003907-9.5703c3.5273-3.5273 12.09-13.602 12.09-25.191 0-14.609-13.602-26.199-14.105-26.703-2.0156-1.5117-4.5352-1.5117-6.5508 0-0.50391 0.50391-13.602 12.09-13.602 26.703 0 11.586 8.0625 21.16 12.09 24.688v9.0703l-1.0078-1.0078c-13.098-13.098-34.762-12.09-35.77-12.09-2.5195 0-4.5352 2.0156-4.5352 4.5352 0 1.0078-2.0156 23.176 11.082 36.273 9.0703 9.5742 23.176 11.586 30.73 12.09v9.5742l-114.36-0.003906v-10.078c7.5586 0 21.16-2.0156 30.73-11.082 13.098-13.098 12.09-34.762 12.09-35.77 0-2.5195-2.0156-4.5352-4.5352-4.5352-1.0078 0-23.176-2.0156-36.273 11.082-0.50391 0.50391-1.5117 1.5117-2.0156 2.0156l0.003906-9.5703c3.5273-3.5273 12.09-13.602 12.09-25.191 0-14.609-13.602-26.199-14.105-26.703-2.0156-1.5117-4.5352-1.5117-6.5508 0-0.50391 0.50391-13.602 12.09-13.602 26.703 0 11.586 8.0625 21.16 12.09 24.688v9.0703c-0.50391-0.50391-0.50391-0.50391-1.0078-1.0078-13.098-13.098-34.762-12.09-35.77-12.09-2.5195 0-4.5352 2.0156-4.5352 4.5352 0 1.0078-2.0156 23.176 11.082 36.273 9.0703 9.5742 23.176 11.586 30.73 12.09v9.5742h-43.328c-3.0234 0-5.0391 2.0156-5.0391 5.0391 0 3.0234 2.0156 5.0391 5.0391 5.0391h344.61c3.0234 0 5.0391-2.0156 5.0391-5.0391 0.003906-3.0273-3.0195-5.043-5.5391-5.043zm-34.258-43.328c7.0547-6.5508 17.633-8.0625 23.68-8.0625-0.50391 6.0469-2.0156 16.625-9.0703 23.176s-17.633 8.0625-23.68 8.0625c0.50391-6.043 2.5195-16.625 9.0703-23.176zm-21.16-39.801c0-6.5508 4.0312-12.09 7.0547-15.617 3.0234 3.5273 7.0547 9.0703 7.0547 15.617 0 6.5508-4.0312 12.09-7.0547 15.617-3.0234-3.5234-7.0547-9.0664-7.0547-15.617zm-21.16 54.918c-6.5508-7.0547-8.0625-17.633-8.0625-23.68 6.0469 0.50391 16.625 2.0156 23.176 9.0703 6.5508 6.5508 8.0625 16.625 8.0625 22.672v1.0078c-6.0469-1.0117-16.625-2.5234-23.176-9.0703zm-81.617-15.117c7.0547-6.5508 17.633-8.0625 23.68-8.0625-0.50391 6.0469-2.0156 16.625-9.0703 23.176s-17.633 8.0625-23.68 8.0625c0.50391-6.043 2.0156-16.625 9.0703-23.176zm-21.16-39.801c0-6.5508 4.0312-12.09 7.0547-15.617 3.0234 3.5273 7.0547 9.5742 7.0547 15.617 0 6.5508-4.0312 12.09-7.0547 15.617-3.0234-3.5234-7.0547-9.0664-7.0547-15.617zm-21.16 54.918c-6.5508-7.0547-8.0625-17.633-8.0625-23.68 6.0469 0.50391 16.625 2.0156 23.176 9.0703 6.5508 6.5508 8.0625 16.625 8.0625 22.672v1.0078c-6.0469-0.50781-16.625-2.5234-23.176-9.0703zm-81.617-15.117c7.0547-6.5508 17.633-8.0625 23.68-8.0625-0.50391 6.0469-2.0156 16.625-9.0703 23.176s-17.633 8.0625-23.68 8.0625c0.50781-6.043 2.0156-16.625 9.0703-23.176zm-21.16-39.801c0-6.5508 4.0312-12.09 7.0547-15.617 3.0234 3.5273 7.0547 9.0703 7.0547 15.617 0 6.5508-4.0312 12.09-7.0547 15.617-3.0234-3.5234-7.0547-9.0664-7.0547-15.617zm-21.16 54.918c-6.5508-7.0547-8.0625-17.633-8.0625-23.68 6.0469 0.50391 16.625 2.0156 23.176 9.0703 6.5508 6.5508 8.0625 16.625 8.0625 22.672v1.0078c-6.0469-1.0117-16.625-2.5234-23.176-9.0703z"/>
  <path d="m570.79 312.34h-43.328v-10.078c7.5586 0 21.16-2.0156 30.73-11.082 13.098-13.098 12.09-34.762 12.09-35.77 0-2.5195-2.0156-4.5352-4.5352-4.5352-1.0078 0-23.176-2.0156-36.273 11.082-0.50391 0.50391-1.5117 1.5117-2.0156 2.0156v-9.5742c3.5273-3.5273 12.09-13.602 12.09-25.191 0-14.609-13.602-26.199-14.105-26.703-2.0156-1.5117-4.5352-1.5117-6.5508 0-0.50391 0.50391-13.602 12.09-13.602 26.703 0 11.586 8.0625 21.16 12.09 24.688v9.0703c-0.50391-0.50391-0.50391-0.50391-1.0078-1.0078-13.098-13.098-34.762-12.09-35.77-12.09-2.5195 0-4.5352 2.0156-4.5352 4.5352 0 1.0078-2.0156 23.176 11.082 36.273 9.0703 9.5742 23.176 11.586 30.73 12.09v9.5742h-114.36v-10.078c7.5586 0 21.16-2.0156 30.73-11.082 13.098-13.098 12.09-34.762 12.09-35.77 0-2.5195-2.0156-4.5352-4.5352-4.5352-1.0078 0-23.176-2.0156-36.273 11.082-0.50391 0.50391-1.5117 1.5117-2.0156 2.0156v-9.5742c3.5273-3.5273 12.09-13.602 12.09-25.191 0-14.609-13.602-26.199-14.105-26.703-2.0156-1.5117-4.5352-1.5117-6.5508 0-0.50391 0.50391-13.602 12.09-13.602 26.703 0 11.586 8.0625 21.16 12.09 24.688v9.0703c-0.50391-0.50391-0.50391-0.50391-1.0078-1.0078-13.098-13.098-34.762-12.09-35.77-12.09-2.5195 0-4.5352 2.0156-4.5352 4.5352 0 1.0078-2.0156 23.176 11.082 36.273 9.0703 9.5742 23.176 11.586 30.73 12.09v9.5742h-114.35v-10.078c7.5586 0 21.16-2.0156 30.73-11.082 13.098-13.098 12.09-34.762 12.09-35.77 0-2.5195-2.0156-4.5352-4.5352-4.5352-1.0078 0-23.176-2.0156-36.273 11.082-0.50391 0.50391-1.5117 1.5117-2.0156 2.0156v-9.5742c3.5273-3.5273 12.09-13.602 12.09-25.191 0-14.609-13.602-26.199-14.105-26.703-2.0156-1.5117-4.5352-1.5117-6.5508 0-0.50391 0.50391-13.602 12.09-13.602 26.703 0 11.586 8.0625 21.16 12.09 24.688v9.0703c-0.50391-0.50391-0.50391-0.50391-1.0078-1.0078-13.098-13.098-34.762-12.09-35.77-12.09-2.5195 0-4.5352 2.0156-4.5352 4.5352 0 1.0078-2.0156 23.176 11.082 36.273 9.0703 9.5742 23.176 11.586 30.73 12.09v9.5742h-43.328c-3.0234 0-5.0391 2.0156-5.0391 5.0391s2.0156 5.0391 5.0391 5.0391h344.61c3.0234 0 5.0391-2.0156 5.0391-5.0391 0.007812-3.0234-3.0156-5.0391-5.5352-5.0391zm-34.258-43.832c7.0547-6.5508 17.633-8.0625 23.68-8.0625-0.50391 6.0469-2.0156 16.625-9.0703 23.176-7.0547 6.5508-17.633 8.0625-23.68 8.0625 0.50391-5.543 2.5195-16.121 9.0703-23.176zm-21.16-39.297c0-6.5508 4.0312-12.09 7.0547-15.617 3.0234 3.5273 7.0547 9.5742 7.0547 15.617 0 6.5508-4.0312 12.09-7.0547 15.617-3.0234-3.5273-7.0547-9.5703-7.0547-15.617zm-21.16 54.41c-6.5508-7.0547-8.0625-17.633-8.0625-23.68 6.0469 0.50391 16.625 2.0156 23.176 9.0703 6.5508 6.5508 8.0625 16.625 8.0625 22.672v1.0078c-6.0469-0.50391-16.625-2.0156-23.176-9.0703zm-81.617-15.113c7.0547-6.5508 17.633-8.0625 23.68-8.0625-0.50391 6.0469-2.0156 16.625-9.0703 23.176-7.0547 6.5508-17.633 8.0625-23.68 8.0625 0.50391-5.543 2.0156-16.121 9.0703-23.176zm-21.16-39.297c0-6.5508 4.0312-12.09 7.0547-15.617 3.0234 3.5273 7.0547 9.5742 7.0547 15.617 0 6.5508-4.0312 12.09-7.0547 15.617-3.0234-3.5273-7.0547-9.5703-7.0547-15.617zm-21.16 54.41c-6.5508-7.0547-8.0625-17.633-8.0625-23.68 6.0469 0.50391 16.625 2.0156 23.176 9.0703 6.5508 6.5508 8.0625 16.625 8.0625 22.672v1.0078c-6.0469-0.50391-16.625-2.0156-23.176-9.0703zm-81.617-15.113c7.0547-6.5508 17.633-8.0625 23.68-8.0625-0.50391 6.0469-2.0156 16.625-9.0703 23.176-7.0547 6.5508-17.633 8.0625-23.68 8.0625 0.50781-5.543 2.0156-16.121 9.0703-23.176zm-21.16-39.297c0-6.5508 4.0312-12.09 7.0547-15.617 3.0234 3.5273 7.0547 9.5742 7.0547 15.617 0 6.5508-4.0312 12.09-7.0547 15.617-3.0234-3.5273-7.0547-9.5703-7.0547-15.617zm-21.16 54.41c-6.5508-7.0547-8.0625-17.633-8.0625-23.68 6.0469 0.50391 16.625 2.0156 23.176 9.0703 6.5508 6.5508 8.0625 16.625 8.0625 22.672v1.0078c-6.0469-0.50391-16.625-2.0156-23.176-9.0703z"/>
 </g>
</svg>