<?xml version="1.0" encoding="UTF-8"?>
<!-- The Best Svg Icon site in the world: iconSvg.co, Visit us! https://iconsvg.co -->
<svg fill="#000000" width="800px" height="800px" version="1.1" viewBox="144 144 512 512" xmlns="http://www.w3.org/2000/svg">
 <path d="m262.46 346.29c3.0234 0 5.4727 2.4492 5.4727 5.4727 0 3.0195-2.4492 5.4727-5.4727 5.4727-3.0234 0-5.4727-2.4492-5.4727-5.4727 0.003906-3.0195 2.4531-5.4727 5.4727-5.4727zm44.645 0c-3.0234 0-5.4727 2.4492-5.4727 5.4727s2.4492 5.4727 5.4727 5.4727c3.0234 0 5.4727-2.4492 5.4727-5.4727s-2.4492-5.4727-5.4727-5.4727zm280.95 273.44 12.348-84.898c0.023437-0.17188 0.046875-0.34766 0.050781-0.51953l2.9023-70.973c0.12109-1.5352 0.1875-3.0938 0.1875-4.6602v-0.070313-48.184c2.9023 8.4531 5.875 23.078 7.0391 48.305 0 0.10156 0.003907 0.19531 0.015625 0.29297 0.31641 7.0547 0.50391 14.922 0.50391 23.719 0 0.45312 0.058594 0.89062 0.17188 1.3086-0.40625 1.5234-0.10156 3.2109 0.98437 4.5156 1.7734 2.1367 4.9492 2.4375 7.0938 0.67188 0.94531-0.78516 9.2656-7.9648 9.0469-18.035-0.12109-5.5625-2.7656-10.617-7.875-15.059-1.7773-33.805-7.1992-55.645-15.93-63.742-1.1289-1.0469-2.2109-1.7734-3.2109-2.2812-6.8633-24.445-29.352-42.414-55.957-42.414l-201.71-0.003907 0.98828-4.8555c0.97656-4.7812 1.2891-9.6016 0.96875-14.348 8.8633 5.6562 17.07 7.4922 24.465 5.457 13.441-3.6992 18.277-18.711 18.477-19.352 0.50391-1.5938 0.17578-3.3359-0.86719-4.6406-6.2305-7.8398-13.629-12.043-21.977-12.484-5.4219-0.31641-10.516 1.1016-14.812 3.0391 13.98-32.961-1.9961-56.246-2.793-57.375-1.2148-1.7227-3.3945-2.4922-5.4102-1.9609-2.0352 0.54297-3.5234 2.3008-3.7188 4.3984-2.6836 28.703-23.715 37.359-24.586 37.699-0.085938 0.03125-0.16797 0.066406-0.25 0.10547-6.7695-3.0312-14.188-4.6445-21.84-4.6445h-15.426c-8.082 0-15.906 1.7969-22.984 5.168-0.34375-0.24609-0.71875-0.45703-1.1289-0.625-0.89844-0.35156-21.922-9.0078-24.605-37.711-0.19531-2.1016-1.6836-3.8555-3.7188-4.3984-2.0039-0.52734-4.1914 0.24219-5.4102 1.9609-0.79688 1.1289-16.773 24.414-2.793 57.375-4.2969-1.9336-9.332-3.3555-14.812-3.0391-8.3477 0.44141-15.742 4.6406-21.977 12.484-1.043 1.3047-1.3672 3.043-0.86719 4.6406 0.19531 0.63672 5.0312 15.652 18.477 19.352 8 2.207 16.93-0.11719 26.621-6.8906-0.5 5.2031-0.22656 10.52 0.85156 15.785l15.32 75.117c4.0703 19.961 21.809 34.449 42.184 34.449h1.1289v6.2305c0 22.879 13.285 42.715 32.551 52.184l18.449 109.01c0.41406 2.4219 2.5078 4.1953 4.9688 4.1953h53.254c2.6133 0 4.7969-2 5.0195-4.6055l8.8633-102.67h31.102c4.1523 6.5938 16.41 23.559 36.809 31.309v20.766c0 2.7812 2.2539 5.0391 5.0391 5.0391 2.7852 0 5.0391-2.2578 5.0391-5.0391v-17.895c1.5234 0.29688 3.0469 0.52734 4.5859 0.70703v8.707c0 2.7812 2.2539 5.0391 5.0391 5.0391s5.0391-2.2578 5.0391-5.0391v-8.4023c5.332-0.28125 10.742-1.2383 16.227-2.8828l7.2969 70.457c0.26562 2.5703 2.4297 4.5195 5.0117 4.5195h55.566c2.5 0.007813 4.6211-1.832 4.9766-4.3047zm-34.676-84.848c0-1.7188-0.875-3.3203-2.3281-4.2461l-21.73-13.871h16.102c19.062 0 36.012-9.2305 46.617-23.453l-1.6484 40.324-11.684 80.324h-25.332zm-28.422 10.586c5.4141-2.3711 10.898-5.3867 16.434-9.043l1.9141 1.2188v76.32l-11.258 0.003906zm-166.99-28.703h38.25l-8.3867 97.199h-18.672zm-31.289-1.8672c4.6914 1.2227 9.5977 1.875 14.66 1.875h6.4844l11.191 97.199h-15.562zm183.93 1.8672 21.41 13.668c-4.7344 2.8633-9.4023 5.1953-13.984 6.9883-0.19531 0.066407-0.38672 0.13672-0.57422 0.22266-11.656 4.457-22.801 5.457-33.336 2.9492-16.617-3.9531-28.234-15.906-34.352-23.832h60.836zm1.3945-10.074h-110.24c-0.039062 0.003907-0.070312 0-0.10547 0h-49.266c-0.039063 0-0.085938-0.003906-0.13672 0h-10.914c-6.5703 0-12.844-1.3242-18.551-3.7227-0.31641-0.1875-0.66406-0.33203-1.0195-0.44141-16.762-7.5078-28.469-24.348-28.469-43.871v-6.6719c17.73-2.5547 32.426-16.07 36.082-34.012l0.71484-3.4961c0.019531-0.074219 0.035156-0.14453 0.050781-0.22266l11.512-56.469h203.77c22.582 0 41.574 15.66 46.688 36.688 0.039063 0.48047 0.14453 0.9375 0.3125 1.3672 0.68359 3.2227 1.043 6.5664 1.043 9.9844v52.723l-0.17188 4.168c-2.0703 24.59-22.746 43.977-47.867 43.977h-33.273-0.16016zm-192.28-91.754-0.20703 1.0234c-3.1172 15.289-16.707 26.391-32.312 26.391h-5.1055c-15.609 0-29.195-11.098-32.312-26.391l-0.13672-0.69141c11.191-9.1797 41.625-28.824 70.074-0.33203zm-27.355-126.11c13.07 0 25.301 5.8047 33.574 15.93 2.5703 3.1484 4.6562 6.5898 6.2266 10.219 0.046875 1.1016 0.45312 2.1797 1.1836 3.0469 2.5039 7.2383 3.0586 15.09 1.4844 22.816l-1.9297 9.4453c-0.52734 0.87109-0.80078 1.9102-0.71875 3.0078 0.011718 0.10938 0.019531 0.22266 0.039062 0.33203l-10.16 49.793c-25.113-21.105-53.461-14.621-74.664 0.84766l-12.938-63.43c-2.6133-12.809 0.62891-25.957 8.8984-36.078 8.2656-10.125 20.504-15.93 33.578-15.93zm67.012 33.496c2.7852 0 5.0391-2.2578 5.0391-5.0391s-2.2539-5.0391-5.0391-5.0391h-8.8906c3.8242-2.4648 9.2109-5.0273 14.758-4.6953 4.6602 0.24609 8.8477 2.3828 12.742 6.5078-1.5586 3.2383-4.9258 8.6758-10.555 10.195-3.4961 0.95313-7.6211 0.27734-12.219-1.9336zm-157.39-14.773c5.5859-0.30078 11.004 2.2227 14.82 4.6953h-8.9219c-2.7852 0-5.0391 2.2578-5.0391 5.0391s2.2539 5.0391 5.0391 5.0391h4.168c-4.6016 2.207-8.7227 2.8867-12.219 1.9336-5.6328-1.5234-9.0039-6.9688-10.555-10.195 3.8906-4.1172 8.0664-6.2539 12.707-6.5117zm42.062-17.48c-3.0938 2.4219-5.9453 5.2031-8.4883 8.3164-1.9648 2.4023-3.6914 4.9414-5.1836 7.5859-10.617-17.895-10.734-32.969-8.5508-43.125 5.6367 15.238 15.98 23.453 22.223 27.223zm101.35-27.078c2.0664 9.8438 1.9961 24.258-7.4922 41.23-1.2461-2.0195-2.6289-3.9766-4.1562-5.8438-2.793-3.4141-5.9492-6.4375-9.3945-9.0195 6.2734-4.0234 15.723-12.098 21.043-26.367zm-46.992 163.08v-6.0508c0-2.7812-2.2539-5.0391-5.0391-5.0391-2.7852 0-5.0391 2.2578-5.0391 5.0391v6.0508c0 2.7812 2.2539 5.0391 5.0391 5.0391 2.7891 0 5.0391-2.2578 5.0391-5.0391zm-17.422 0v-6.0508c0-2.7812-2.2539-5.0391-5.0391-5.0391s-5.0391 2.2578-5.0391 5.0391v6.0508c0 2.7812 2.2539 5.0391 5.0391 5.0391 2.7891 0 5.0391-2.2578 5.0391-5.0391z"/>
</svg>