<?xml version="1.0" encoding="UTF-8"?>
<!-- The Best Svg Icon site in the world: iconSvg.co, Visit us! https://iconsvg.co -->
<svg fill="#000000" width="800px" height="800px" version="1.1" viewBox="144 144 512 512" xmlns="http://www.w3.org/2000/svg">
 <g>
  <path d="m203.49 601.52h393c2.7852 0 5.0391-2.2539 5.0391-5.0391 0-2.7812-2.2539-5.0391-5.0391-5.0391h-191.45l0.003907-115.57c13.543 9.3867 29.578 14.484 46.16 14.484 44.855 0 81.352-36.496 81.352-81.352 0-19.453-6.9453-38.098-19.625-52.871 3.6094-8.4102 5.4414-17.273 5.4414-26.383 0-31.672-22.543-59.16-53.145-65.75v-0.31641c-0.003906-35.961-29.262-65.215-65.223-65.215-35.961 0-65.215 29.258-65.215 65.219v0.31641c-30.602 6.5898-53.152 34.078-53.152 65.75 0 9.1172 1.832 17.977 5.4453 26.387-12.684 14.773-19.625 33.414-19.625 52.867 0 44.855 36.492 81.352 81.348 81.352 16.578 0 32.621-5.1016 46.16-14.484v115.56h-191.48c-2.7852 0-5.0391 2.2539-5.0391 5.0391 0 2.7812 2.2539 5.0391 5.0391 5.0391zm74.047-192.51c0-18.027 6.8125-35.262 19.188-48.535 1.4219-1.5273 1.7578-3.7734 0.83984-5.6523-3.8828-7.9375-5.8516-16.367-5.8516-25.07 0-28.242 21.086-52.574 49.059-56.594 2.6172-0.375 4.4727-3.0586 4.2812-5.6992-0.089843-1.2539-0.1875-2.5039-0.1875-3.7773 0-30.402 24.734-55.137 55.141-55.137s55.145 24.734 55.145 55.141c0 1.2734-0.097657 2.5273-0.21094 4.1211-0.19141 2.6406 1.6875 4.9766 4.3047 5.3516 27.965 4.0195 49.051 28.348 49.051 56.594 0 8.6953-1.9688 17.133-5.8438 25.074-0.91406 1.875-0.58203 4.1211 0.83984 5.6484 12.375 13.273 19.188 30.508 19.188 48.535 0 39.301-31.977 71.273-71.277 71.273-17.652 0-34.633-6.582-47.812-18.535-0.96094-0.87109-2.1758-1.3047-3.3867-1.3047s-2.4258 0.43359-3.3867 1.3047c-13.176 11.949-30.156 18.535-47.812 18.535-39.297 0-71.266-31.973-71.266-71.273z"/>
  <path d="m399.99 302.6c14.656 0 26.578-11.922 26.578-26.574 0-14.652-11.922-26.578-26.578-26.578s-26.578 11.922-26.578 26.578c0 14.652 11.922 26.574 26.578 26.574zm0-43.078c9.0977 0 16.5 7.4023 16.5 16.5 0 9.0977-7.4062 16.5-16.5 16.5-9.0977 0-16.5-7.4023-16.5-16.5 0-9.0977 7.4062-16.5 16.5-16.5z"/>
  <path d="m343.66 302.76c-14.656 0-26.578 11.922-26.578 26.574 0 14.656 11.922 26.578 26.578 26.578s26.578-11.922 26.578-26.578c0-14.652-11.922-26.574-26.578-26.574zm0 43.078c-9.0977 0-16.5-7.4023-16.5-16.5s7.4062-16.5 16.5-16.5c9.0977 0 16.5 7.4023 16.5 16.5s-7.4023 16.5-16.5 16.5z"/>
  <path d="m456.33 355.91c14.656 0 26.578-11.922 26.578-26.578 0-14.652-11.922-26.574-26.578-26.574s-26.578 11.922-26.578 26.574c0 14.656 11.922 26.578 26.578 26.578zm0-43.074c9.0977 0 16.5 7.4023 16.5 16.5s-7.4062 16.5-16.5 16.5c-9.0977 0-16.5-7.4023-16.5-16.5-0.003906-9.1016 7.4023-16.5 16.5-16.5z"/>
  <path d="m333.58 393.18c-14.656 0-26.578 11.922-26.578 26.578 0 14.652 11.922 26.574 26.578 26.574s26.578-11.922 26.578-26.574c0-14.656-11.922-26.578-26.578-26.578zm0 43.074c-9.0977 0-16.5-7.4023-16.5-16.5s7.4062-16.5 16.5-16.5c9.0977 0 16.5 7.4023 16.5 16.5 0.003907 9.0977-7.4023 16.5-16.5 16.5z"/>
  <path d="m439.82 419.75c0 14.652 11.922 26.574 26.578 26.574s26.578-11.922 26.578-26.574-11.922-26.578-26.578-26.578-26.578 11.922-26.578 26.578zm43.082 0c0 9.0977-7.4062 16.5-16.5 16.5-9.0977 0-16.5-7.4023-16.5-16.5s7.4062-16.5 16.5-16.5c9.0938-0.003906 16.5 7.3984 16.5 16.5z"/>
  <path d="m426.57 385.83c0-14.652-11.922-26.574-26.578-26.574s-26.578 11.922-26.578 26.574 11.922 26.578 26.578 26.578 26.578-11.926 26.578-26.578zm-43.078 0c0-9.0977 7.4062-16.5 16.5-16.5 9.0977 0 16.5 7.4023 16.5 16.5s-7.4062 16.5-16.5 16.5-16.5-7.4023-16.5-16.5z"/>
  <path d="m238.62 524.58c4.5078 0 9.0742-1.1445 13.246-3.5547 6.1484-3.5508 10.543-9.2812 12.383-16.141 1.8359-6.8555 0.89062-14.016-2.6562-20.164-7.3359-12.691-23.621-17.047-36.305-9.7305-12.688 7.3281-17.055 23.613-9.7266 36.305 4.918 8.5195 13.867 13.285 23.059 13.285zm-15.98-30.844c1.1367-4.2539 3.8672-7.8164 7.6836-10.016 2.543-1.4688 5.3633-2.2188 8.2227-2.2188 1.4375 0 2.8789 0.1875 4.3008 0.56641 4.2539 1.1406 7.8125 3.8711 10.016 7.6914 2.2031 3.8164 2.7891 8.2617 1.6484 12.52-1.1367 4.2578-3.8672 7.8164-7.6836 10.02-3.8242 2.207-8.2695 2.7812-12.52 1.6523-4.2539-1.1406-7.8125-3.8711-10.016-7.6914-2.207-3.8203-2.793-8.2656-1.6523-12.523z"/>
  <path d="m564.17 489.6c14.656 0 26.578-11.922 26.578-26.578 0-14.652-11.922-26.574-26.578-26.574s-26.578 11.922-26.578 26.574c0 14.656 11.922 26.578 26.578 26.578zm0-43.078c9.0977 0 16.5 7.4023 16.5 16.5 0 9.0977-7.4062 16.5-16.5 16.5-9.0977 0-16.5-7.4023-16.5-16.5 0-9.0977 7.4062-16.5 16.5-16.5z"/>
  <path d="m366.76 541.09c0-14.652-11.922-26.578-26.578-26.578s-26.578 11.922-26.578 26.578c0 14.652 11.922 26.574 26.578 26.574 14.656 0.003906 26.578-11.918 26.578-26.574zm-43.078 0c0-9.0977 7.4062-16.5 16.5-16.5 9.0977 0 16.5 7.4023 16.5 16.5 0 9.0977-7.4062 16.5-16.5 16.5-9.0977 0-16.5-7.4023-16.5-16.5z"/>
  <path d="m444.46 530.2c0 14.652 11.922 26.574 26.578 26.574 14.652 0 26.574-11.922 26.574-26.574s-11.922-26.578-26.574-26.578c-14.656 0-26.578 11.922-26.578 26.578zm43.074 0c0 9.0977-7.3984 16.5-16.496 16.5-9.0977 0-16.5-7.4023-16.5-16.5s7.4062-16.5 16.5-16.5c9.0977-0.003906 16.496 7.3984 16.496 16.5z"/>
 </g>
</svg>