<?xml version="1.0" encoding="UTF-8"?>
<!-- The Best Svg Icon site in the world: iconSvg.co, Visit us! https://iconsvg.co -->
<svg width="800px" height="800px" version="1.1" viewBox="144 144 512 512" xmlns="http://www.w3.org/2000/svg">
 <defs>
  <clipPath id="a">
   <path d="m180 148.09h441v503.81h-441z"/>
  </clipPath>
 </defs>
 <g clip-path="url(#a)">
  <path d="m595.3 288.53c5.2969-0.75781 10.551-1.7812 15.742-3.0703 3.1055-0.77344 5.6836-2.9258 7.0039-5.8398 1.3203-2.918 1.2344-6.2734-0.23438-9.1172l-59.355-116.66c-1.7969-3.5195-5.4141-5.7383-9.3672-5.7461h-298.19c-3.957-0.007812-7.582 2.2148-9.3672 5.7461l-59.277 116.66c-1.4219 2.8789-1.4219 6.2539 0 9.1328 1.3438 2.8945 3.9141 5.0312 7.0078 5.8242 5.1914 1.2891 10.445 2.3125 15.742 3.0703-24.246 42.273-70.848 167.68 96.59 324.96v27.867c-0.003906 5.7031 4.5312 10.379 10.234 10.547h176.25c5.8281 0 10.551-4.7227 10.551-10.547v-27.867c167.91-157.29 120.91-282.68 96.668-324.96zm-337.95-119.34h285.28l8.4219 16.688h-302.13zm-19.207 37.785h323.62l30.859 60.613h-0.003906c-10.23 1.6328-20.574 2.4727-30.934 2.5195-21.809 0-51.484-3.9336-67.23-24.402-1.9219-2.3984-4.7969-3.832-7.8711-3.9375-2.8867-0.09375-5.7031 0.92188-7.8711 2.8359-21.887 17.359-49.223 26.398-77.145 25.504h-3.3086c-27.844 0.69922-55.066-8.3164-76.988-25.504-2.1641-1.9141-4.9805-2.9297-7.8711-2.8359-2.9336 0.21484-5.6445 1.6406-7.4766 3.9375-16.141 20.469-45.816 24.402-67.621 24.402-10.363-0.046875-20.707-0.88672-30.938-2.5195zm239.39 423.83h-155.16v-11.254h155.24zm6.4531-32.355-167.99 0.003906c-175.39-164.05-104.93-284.02-88.086-307.56h10.391c32.984 0 59.277-8.5 76.754-24.719l-0.003906 0.003906c24.598 16.527 53.656 25.152 83.285 24.715h3.3086c29.633 0.4375 58.688-8.1875 83.285-24.715 17.477 16.215 43.77 24.719 76.754 24.719h10.391c16.844 23.535 87.691 143.5-88.09 307.56z"/>
 </g>
 <path d="m507.14 356.23h-52.035c-14.582-14.672-34.414-22.922-55.102-22.922s-40.523 8.25-55.105 22.922h-51.957c-5.8359-0.019531-11.445 2.2852-15.578 6.4062-4.1367 4.1211-6.4609 9.7188-6.4609 15.555v70.852c0 5.8438 2.3203 11.449 6.4531 15.586 4.1367 4.1328 9.7422 6.4531 15.586 6.4531h57.469c13.945 11.547 31.484 17.863 49.594 17.863 18.105 0 35.645-6.3164 49.594-17.863h57.543c5.8477 0 11.453-2.3203 15.586-6.4531 4.1328-4.1367 6.457-9.7422 6.457-15.586v-70.852c0-5.8359-2.3242-11.434-6.4609-15.555-4.1367-4.1211-9.7422-6.4258-15.582-6.4062zm0.94531 92.969c0 0.25-0.10156 0.49219-0.27734 0.66797-0.17578 0.17578-0.41797 0.27734-0.66797 0.27734h-61.48c-2.6523-0.023437-5.2109 0.96094-7.1641 2.7539-10.465 9.7109-24.215 15.105-38.492 15.105s-28.027-5.3945-38.496-15.105c-1.9453-1.8047-4.5078-2.793-7.1641-2.7539h-61.48c-0.51953 0-0.94531-0.42578-0.94531-0.94531v-70.848c0-0.24609 0.10156-0.47656 0.28125-0.64453 0.17969-0.16406 0.42188-0.24609 0.66406-0.22266h56.523c3.0195-0.023437 5.8867-1.3438 7.8711-3.6211 10.762-12.309 26.316-19.367 42.664-19.367 16.352 0 31.906 7.0586 42.668 19.367 1.9844 2.2773 4.8516 3.5977 7.8711 3.6211h56.523c0.24219-0.023437 0.48438 0.058594 0.66406 0.22266 0.17969 0.16797 0.28125 0.39844 0.28125 0.64453z"/>
</svg>