<?xml version="1.0" encoding="UTF-8"?>
<!-- The Best Svg Icon site in the world: iconSvg.co, Visit us! https://iconsvg.co -->
<svg fill="#000000" width="800px" height="800px" version="1.1" viewBox="144 144 512 512" xmlns="http://www.w3.org/2000/svg">
 <path d="m625.32 344.27-47.723-69.434c-1.5898-2.3555-4.3438-3.6562-7.1758-3.3828-2.8242 0.24609-5.293 1.9883-6.4727 4.5664l-34.062 74.453-29.914 16.469-51.953-54.238h-0.066406c-0.59375-0.57422-1.2773-1.0508-2.0195-1.4102-0.17969-0.09375-0.32422-0.26172-0.50391-0.33984-0.17969-0.078125-0.51953-0.085938-0.78906-0.16406-0.72266-0.26172-1.4766-0.41797-2.2422-0.45703h-31.812v-44.941c-0.007813-10.805-4.3008-21.16-11.941-28.801-7.6367-7.6406-17.992-11.941-28.797-11.953h-66.676c-10.797 0.023438-21.141 4.3281-28.773 11.965-7.6289 7.6406-11.914 17.992-11.926 28.789v44.871h-31.723c-4.3477 0-7.8711 3.5234-7.8711 7.8711v18.383c-18.484 2.5312-34.586 13.891-43.172 30.453-8.5859 16.566-8.5859 36.27 0 52.832 8.5859 16.566 24.688 27.926 43.172 30.457v64.691c0.015625 16.012 6.3828 31.363 17.707 42.688 11.32 11.32 26.672 17.691 42.688 17.707h106.49c16.012-0.015625 31.363-6.3867 42.688-17.707 11.32-11.324 17.688-26.676 17.707-42.688v-102.62l88.168-48.516 81.207-7.25v0.003906c2.7852-0.25 5.2266-1.9609 6.418-4.4922 1.1914-2.5273 0.94922-5.5-0.63281-7.8047zm-347.1-78.879c0-6.6211 2.6289-12.973 7.3086-17.664 4.6758-4.6875 11.023-7.3281 17.645-7.3438h66.676c6.6289 0.003906 12.988 2.6406 17.672 7.332 4.6875 4.6875 7.3203 11.047 7.3242 17.676v44.871h-116.62zm0 60.613h116.62v54.648h-116.62zm-89.191 67.41c0.019531-9.6914 3.4062-19.074 9.582-26.543 6.1758-7.4648 14.754-12.555 24.27-14.391v81.867c-9.5156-1.8359-18.098-6.9219-24.273-14.391s-9.5625-16.852-9.5781-26.543zm245.39 121.56c-0.011719 11.84-4.7227 23.191-13.094 31.562s-19.723 13.078-31.562 13.09h-106.48c-11.844-0.011719-23.195-4.7148-31.57-13.086s-13.086-19.727-13.098-31.566v-188.93h23.852v62.52c0 2.0898 0.83203 4.0938 2.3086 5.5664 1.4766 1.4766 3.4766 2.3086 5.5664 2.3086h132.37c2.0859 0 4.0898-0.83203 5.5664-2.3086 1.4766-1.4727 2.3047-3.4766 2.3047-5.5664v-62.559h23.836zm15.742-177.23 35.52 37.07-35.52 19.547zm98.617 9.3281 23.727-51.844 32.219 46.863z"/>
</svg>