<?xml version="1.0" encoding="UTF-8"?>
<!-- The Best Svg Icon site in the world: iconSvg.co, Visit us! https://iconsvg.co -->
<svg fill="#000000" width="800px" height="800px" version="1.1" viewBox="144 144 512 512" xmlns="http://www.w3.org/2000/svg">
 <path d="m449.38 424.93c0.77344 1.9414 0.74609 4.1133-0.085937 6.0312-0.82812 1.9219-2.3867 3.4336-4.3281 4.2031-23.504 8.1406-48.211 12.281-73.086 12.246-30.301 0.78516-60.246-6.6562-86.656-21.527-26.414-14.875-48.301-36.629-63.336-62.945-2.2695-3.7109-1.0977-8.5586 2.6133-10.824s8.5547-1.0977 10.824 2.6133c71.07 116.32 198.46 67.887 203.89 65.762 4.0312-1.5664 8.5742 0.41797 10.168 4.4414zm178.91-195.87c-0.035156 0.3125-0.085937 0.625-0.16016 0.9375-0.019531 0.71094-0.13281 1.418-0.34375 2.1016-0.15234 0.37109-0.33594 0.73438-0.54688 1.0781-0.30859 0.60547-0.69922 1.168-1.1641 1.668-0.13281 0.14844-0.1875 0.35547-0.33984 0.49609l-40.832 37.195h0.003906c-2.0273 1.8438-2.9922 4.582-2.5664 7.2891l1.1875 7.1875c6.4297 38.461 21.484 128.53-29.852 193.79-30.48 38.723-79.508 62.465-145.8 70.785v35.07h1.7305c4.3477 0 7.8711 3.5234 7.8711 7.8711s-3.5234 7.8711-7.8711 7.8711h-19.207c-4.3477 0-7.8711-3.5234-7.8711-7.8711s3.5234-7.8711 7.8711-7.8711h1.7305v-33.41c-1.9688 0.17188-3.8906 0.37891-5.8789 0.52734-7.4414 0.52344-14.703 0.78906-21.781 0.78906-3.9922 0-7.7773-0.30078-11.652-0.47266v32.551h1.7344c4.3477 0 7.8711 3.5234 7.8711 7.8711s-3.5234 7.8711-7.8711 7.8711h-19.211c-4.3477 0-7.8711-3.5234-7.8711-7.8711s3.5234-7.8711 7.8711-7.8711h1.7305l0.003906-33.691c-45.629-4.9609-82.547-22.602-109.89-52.98-78.918-87.812-51.152-247.97-49.965-254.75 0.56641-3.1172 2.9453-5.5938 6.0391-6.2812s6.3008 0.54688 8.1328 3.1328c3.9766 5.582 99.328 136 267.8 70.59 4.5391-1.832 8.0078-5.6133 9.4453-10.289 10.66-32.77 33.156-89.488 64.055-101.05 40.078-15.004 90.117 20.293 92.23 21.805l0.054688 0.0625c0.91797 0.66406 1.6836 1.5234 2.2344 2.5117 0.054687 0.10938 0.054687 0.24219 0.11719 0.35547h0.003907c0.39844 0.78125 0.66406 1.625 0.78516 2.4961v0.28516c0 0.097656 0.16797 0.13281 0.16797 0.21875zm-31.488 11.359-21.043 2.6445c-0.32812 0.039062-0.66016 0.058594-0.99219 0.0625-4.1523-0.007812-7.582-3.2383-7.8398-7.3828-0.25781-4.1445 2.7461-7.7734 6.8633-8.2969l22.434-2.8164c-16.074-7.8008-39.125-15.602-57.898-8.5742-17.781 6.6602-38.195 40.746-54.602 91.172h0.003906c-2.9023 9.1875-9.7969 16.574-18.762 20.105-30.652 12.312-63.336 18.781-96.367 19.082-92.031 0-153.65-54.656-178.13-81.16-4.8242 43.43-10.84 158.28 48.445 224.19 33.18 36.879 82.363 53.262 146.19 48.633 72.793-5.2578 125.34-27.805 156.17-67.008 47.043-59.828 32.785-145.05 26.703-181.46l-1.1953-7.3203h-0.003906c-1.2695-7.9375 1.5547-15.98 7.5039-21.383zm-50.191-5.1641h-0.003906c-3.8555-0.003906-7.5547 1.5273-10.285 4.2539-2.7266 2.7266-4.2617 6.4258-4.2617 10.281 0 3.8594 1.5312 7.5586 4.2578 10.285 2.7305 2.7266 6.4297 4.2578 10.285 4.2578 3.8555 0 7.5547-1.5352 10.281-4.2617 2.7266-2.7305 4.2578-6.4297 4.2578-10.285 0-3.8633-1.5391-7.5625-4.2734-10.289-2.7305-2.7266-6.4375-4.2539-10.301-4.2422z"/>
</svg>