<?xml version="1.0" encoding="UTF-8"?>
<!-- The Best Svg Icon site in the world: iconSvg.co, Visit us! https://iconsvg.co -->
<svg fill="#000000" width="800px" height="800px" version="1.1" viewBox="144 144 512 512" xmlns="http://www.w3.org/2000/svg">
 <g>
  <path d="m389.46 569.3c-0.63281 1-1.832 1.5977-3.1875 1.5977-1.3594 0-2.5547-0.59375-3.1875-1.5977-14.812-23.277-39.699-56.062-48.645-56.062h-59.156v79.477h230.62v-79.477h-67.797c-8.9609 0-33.84 32.785-48.648 56.062z"/>
  <path d="m393.58 275.88 27.926-60.004c1.3867-3.0312 0.050782-6.6406-2.9805-8.0469-0.82031-0.36719-1.668-0.54688-2.5391-0.54688-2.2891 0-4.3828 1.2578-5.4648 3.2773l-21.059 65.141 2.25 0.0625z"/>
  <path d="m480.84 395.12h-11.578l-1.7305 17.309h13.309z"/>
  <path d="m356.48 317.86-0.14453 1.4727 1.4766-0.09375 0.25391-0.0625h56.414l1.4766 0.09375 0.11328-1.4102c-2.7305-27.898-11.578-32.914-20.723-34.18-2.7109-0.38672-5.5898-0.46484-9.0742-0.46484s-6.3633 0.078125-9.0586 0.46094c-9.1523 1.2695-18.004 6.2852-20.734 34.184z"/>
  <path d="m432.92 369.55 0.47266 0.41797c0.66797 0.57031 1.293 1.1875 1.875 1.8555l0.57031 0.66016c0.68359 0.85547 1.3086 1.7383 1.832 2.6992 0.85547 1.5352 1.6484 3.0742 2.3906 4.6211l0.66797 1.5117c0.56641 1.25 1.0039 2.207 1.3984 3.1719 0.16406 0.39453 0.87891 2.3477 0.87891 2.3477 0.30078 0.80078 0.60547 1.5977 0.87109 2.3984 0.14844 0.43359 0.77734 2.5234 0.77734 2.5234 0.23047 0.75391 0.46094 1.5117 0.66797 2.2695 0.11719 0.44922 0.97266 4.0781 1.125 4.8125l0.375 2.125c0.19141 1.1211 0.32812 1.9062 0.4375 2.6875l0.23438 2.1484c0.12109 1.0859 0.20703 1.8711 0.26562 2.6523 0.039062 0.5625 0.058593 1.1133 0.078125 1.6719 0.058594 1.3672 0.097656 2.2344 0.10938 3.1016l-0.039063 2.1641c-0.019531 0.84766-0.039062 1.6992-0.089844 2.5469-0.035156 0.63281-0.09375 1.2539-0.15234 1.8711-0.10156 1.1172-0.17578 1.9453-0.28516 2.7656-0.078124 0.61328-0.17578 1.2188-0.27734 1.8242-0.18359 1.125-0.31641 1.9297-0.47266 2.7266-0.14453 0.70703-0.30859 1.4102-0.47656 2.1172-0.18359 0.78125-0.375 1.5586-0.58594 2.3203-0.19141 0.70703-0.41016 1.4023-0.625 2.0977-0.23437 0.74219-0.47656 1.4844-0.73828 2.2188-0.25 0.68359-0.51172 1.3672-0.78906 2.0469-0.28906 0.71484-0.58203 1.4258-0.89062 2.1211-0.30078 0.67578-0.625 1.3398-0.95312 2.0039-0.32812 0.66797-0.67578 1.3398-1.0273 2-0.35938 0.64844-1.6836 2.9336-1.6836 2.9336l-1.2148 1.9375 4.7148-0.015625c0.81641 0.0625 1.25 0.082031 1.6875 0.082031 5.1641 0 9.8164-2.8633 12.133-7.4727 0.76562-1.707 1.1406-3.0898 1.2852-4.5469l4.5742-46.008 2.082-20.465c0.054688-0.46094 0.09375-0.80469 0.09375-1.1133 0-8.7773-6.7344-16.09-15.664-17.008-0.60156-0.0625-1.1992-0.09375-1.7891-0.09375-8.375 0-15.523 5.9766-17.004 14.207l-0.15625 0.89062 0.78906 0.43359c0.89453 0.50781 1.7266 1.1016 2.5273 1.7383z"/>
  <path d="m463.76 443.02 0.16797 0.43359c1.4648 3.8125 5.082 6.2773 9.2148 6.2773h7.6914v-29.742h-14.066l-1.7773 17.738c-0.097657 0.97656-0.27734 1.9336-0.51172 2.875 0 0-0.48828 1.7578-0.56641 1.9805z"/>
  <path d="m414.48 326.73-56.453-0.011719-2.1484-0.46094-0.0625 1.4805c-0.13672 3.3438-0.23438 6.8594-0.23438 10.758 0 6.8945 0.41797 14.652 1.2461 23.059l0.11328 1.1367h58.676l0.11328-1.1367c0.82813-8.4102 1.2461-16.168 1.2461-23.059 0-3.8984-0.097656-7.4102-0.23438-10.758l-0.0625-1.4805z"/>
  <path d="m488.39 419.98h36.32v29.742h-36.32z"/>
  <path d="m488.39 395.12h36.32v17.309h-36.32z"/>
  <path d="m378.96 275.88 3.7852-0.19922-0.18359-1.5859-20.453-63.32c-1.1797-2.2266-3.2852-3.4766-5.5898-3.4766-0.875 0-1.7305 0.18359-2.5352 0.54688-3.0273 1.4023-4.3438 5.0078-2.957 8.0352z"/>
  <path d="m385.07 487.34 1.1992 3.832 1.1992-3.832c2.8672-9.1406 5.7852-18.98 8.4414-28.453l0.44922-1.5977h-20.172l0.44141 1.5977c2.6523 9.4648 5.4844 19.039 8.4414 28.453z"/>
  <path d="m354.18 448.98h68.801c0.41016 0 0.78125-0.058594 1.1602-0.12109l0.5625-0.074219c0.26562-0.023437 0.52734-0.050781 0.78125-0.11719 0.36328-0.089844 0.71484-0.23047 1.0625-0.38281l0.52344-0.20312c0.23438-0.078125 0.47266-0.16406 0.69531-0.28125 0.34766-0.1875 0.67578-0.42188 1-0.66016l1-0.71094c0.25-0.22266 0.45703-0.46094 0.66016-0.70703l0.41016-0.45703c0.21094-0.21484 0.41797-0.4375 0.59375-0.69141 7.457-10.898 10.426-25.074 8.375-39.918-0.058594-0.41797-0.15234-0.83594-0.25-1.2578l-0.17578-0.83594c-0.375-2.2109-0.75781-4.4219-1.3516-6.6289-0.21484-0.8125-0.50781-1.6172-0.79688-2.4297l-0.46094-1.3203-0.41406-1.2969c-0.37891-1.2109-0.75781-2.4219-1.2461-3.6172-1.1797-2.8984-2.5469-5.7422-4.0586-8.4531-1.3711-2.5352-3.6914-4.4531-6.3633-5.2383-1.043-0.26953-1.9766-0.40234-2.8086-0.40234l-68.027-0.003906h-0.015625c-6.5039 0.14453-11.797 6.0586-11.797 13.191v49.426c-0.003907 7.2734 5.4453 13.191 12.141 13.191z"/>
 </g>
</svg>