<?xml version="1.0" encoding="UTF-8"?>
<!-- The Best Svg Icon site in the world: iconSvg.co, Visit us! https://iconsvg.co -->
<svg fill="#000000" width="800px" height="800px" version="1.1" viewBox="144 144 512 512" xmlns="http://www.w3.org/2000/svg">
 <g>
  <path d="m628.29 297.66h-23.617v-39.363c0-1.5547-0.46094-3.0742-1.3242-4.3672l-31.488-47.23c-1.457-2.1914-3.918-3.5039-6.5469-3.5039-2.6328 0-5.0898 1.3125-6.5508 3.5039l-31.488 47.23c-0.86328 1.293-1.3242 2.8125-1.3242 4.3672v39.359l-31.488 0.003906v-39.363c0-1.5547-0.45703-3.0742-1.3203-4.3672l-31.488-47.23c-1.4609-2.1914-3.918-3.5039-6.5508-3.5039-2.6289 0-5.0898 1.3125-6.5469 3.5039l-31.488 47.23c-0.86328 1.293-1.3242 2.8125-1.3242 4.3672v39.359l-31.488 0.003906v-39.363c0-1.5547-0.46094-3.0742-1.3203-4.3672l-31.488-47.23c-1.4609-2.1914-3.918-3.5039-6.5508-3.5039-2.6328 0-5.0898 1.3125-6.5508 3.5039l-31.488 47.23c-0.85938 1.293-1.3203 2.8125-1.3203 4.3672v39.359l-31.488 0.003906v-39.363c0-1.5547-0.46094-3.0742-1.3242-4.3672l-31.488-47.23c-1.457-2.1914-3.918-3.5039-6.5469-3.5039-2.6328 0-5.0898 1.3125-6.5508 3.5039l-31.488 47.23c-0.86328 1.293-1.3242 2.8125-1.3242 4.3672v39.359l-23.613 0.003906c-4.3477 0-7.875 3.5234-7.875 7.8711v62.977c0 2.0859 0.83203 4.0898 2.3086 5.5664 1.4766 1.4766 3.4766 2.3047 5.5664 2.3047h23.613v31.488h-23.613c-4.3477 0-7.875 3.5234-7.875 7.8711v62.977c0 2.0859 0.83203 4.0898 2.3086 5.5664 1.4766 1.4766 3.4766 2.3047 5.5664 2.3047h23.613v31.488h-23.613c-4.3477 0-7.875 3.5234-7.875 7.8711v62.977c0 2.0898 0.83203 4.0898 2.3086 5.5664 1.4766 1.4766 3.4766 2.3086 5.5664 2.3086h456.58c2.0859 0 4.0898-0.83203 5.5664-2.3086 1.4727-1.4766 2.3047-3.4766 2.3047-5.5664v-62.977c0-2.0859-0.83203-4.0898-2.3047-5.5664-1.4766-1.4727-3.4805-2.3047-5.5664-2.3047h-23.617v-31.488h23.617c2.0859 0 4.0898-0.82812 5.5664-2.3047 1.4727-1.4766 2.3047-3.4805 2.3047-5.5664v-62.977c0-2.0859-0.83203-4.0898-2.3047-5.5664-1.4766-1.4766-3.4805-2.3047-5.5664-2.3047h-23.617v-31.488h23.617c2.0859 0 4.0898-0.82812 5.5664-2.3047 1.4727-1.4766 2.3047-3.4805 2.3047-5.5664v-62.977c0-2.0898-0.83203-4.0898-2.3047-5.5664-1.4766-1.4766-3.4805-2.3047-5.5664-2.3047zm-432.96 283.39h-15.742v-47.23h15.742zm0-110.21h-15.742v-47.234h15.742zm0-110.21-15.742-0.003906v-47.23h15.742zm62.977-55.105v275.52h-47.23v-320.37l23.617-35.426 23.617 35.426zm47.23 275.52h-31.484v-47.23h31.488zm0-62.977h-31.484v-31.488h31.488zm0-47.23h-31.484v-47.234h31.488zm0-62.977h-31.484v-31.488h31.488zm0-47.23-31.484-0.003906v-47.23h31.488zm62.977 220.42-47.23-0.003906v-320.37l23.617-35.426 23.617 35.426zm47.23 0-31.484-0.003906v-47.23h31.488zm0-62.977-31.484-0.003906v-31.488h31.488zm0-47.23-31.484-0.003906v-47.234h31.488zm0-62.977-31.484-0.003906v-31.488h31.488zm0-47.23-31.484-0.007812v-47.23h31.488zm62.977 220.42-47.227-0.007812v-320.37l23.617-35.426 23.617 35.426zm47.23 0-31.484-0.007812v-47.23h31.488zm0-62.977-31.484-0.007813v-31.488h31.488zm0-47.23-31.484-0.007813v-47.234h31.488zm0-62.977-31.484-0.007812v-31.488h31.488zm0-47.23-31.484-0.011719v-47.23h31.488zm62.977 220.42-47.227-0.011718v-320.37l23.617-35.426 23.617 35.426zm31.488-47.23v47.23l-15.738-0.011718v-47.23zm0-110.21v47.23l-15.738-0.011719v-47.234zm0-62.977-15.738-0.015625v-47.23h15.742z"/>
  <path d="m242.56 274.05c0 4.3477-3.5234 7.8711-7.8711 7.8711s-7.875-3.5234-7.875-7.8711 3.5273-7.8711 7.875-7.8711 7.8711 3.5234 7.8711 7.8711"/>
  <path d="m352.77 274.05c0 4.3477-3.5234 7.8711-7.8711 7.8711-4.3477 0-7.8711-3.5234-7.8711-7.8711s3.5234-7.8711 7.8711-7.8711c4.3477 0 7.8711 3.5234 7.8711 7.8711"/>
  <path d="m462.98 274.05c0 4.3477-3.5273 7.8711-7.875 7.8711-4.3477 0-7.8711-3.5234-7.8711-7.8711s3.5234-7.8711 7.8711-7.8711c4.3477 0 7.875 3.5234 7.875 7.8711"/>
  <path d="m573.18 274.05c0 4.3477-3.5234 7.8711-7.8711 7.8711s-7.875-3.5234-7.875-7.8711 3.5273-7.8711 7.875-7.8711 7.8711 3.5234 7.8711 7.8711"/>
  <path d="m242.56 541.7c0 4.3477-3.5234 7.8711-7.8711 7.8711s-7.875-3.5234-7.875-7.8711c0-4.3477 3.5273-7.8711 7.875-7.8711s7.8711 3.5234 7.8711 7.8711"/>
  <path d="m352.77 541.7c0 4.3477-3.5234 7.8711-7.8711 7.8711-4.3477 0-7.8711-3.5234-7.8711-7.8711 0-4.3477 3.5234-7.8711 7.8711-7.8711 4.3477 0 7.8711 3.5234 7.8711 7.8711"/>
  <path d="m462.98 541.7c0 4.3477-3.5273 7.8711-7.875 7.8711-4.3477 0-7.8711-3.5234-7.8711-7.8711 0-4.3477 3.5234-7.8711 7.8711-7.8711 4.3477 0 7.875 3.5234 7.875 7.8711"/>
  <path d="m573.18 541.7c0 4.3477-3.5234 7.8711-7.8711 7.8711s-7.875-3.5234-7.875-7.8711c0-4.3477 3.5273-7.8711 7.875-7.8711s7.8711 3.5234 7.8711 7.8711"/>
 </g>
</svg>