<?xml version="1.0" encoding="UTF-8"?>
<!-- The Best Svg Icon site in the world: iconSvg.co, Visit us! https://iconsvg.co -->
<svg fill="#000000" width="800px" height="800px" version="1.1" viewBox="144 144 512 512" xmlns="http://www.w3.org/2000/svg">
 <g>
  <path d="m392.12 163.84h15.742v15.742h-15.742z"/>
  <path d="m557.44 620.41v-39.359h7.875c16.695-0.019532 32.703-6.6602 44.508-18.465 11.809-11.809 18.449-27.812 18.469-44.512 0-2.0859-0.83203-4.0898-2.3086-5.5664-1.4766-1.4766-3.4766-2.3047-5.5664-2.3047h-15.742c-11.258 0.007813-22.305 3.0312-31.996 8.7578-9.6914 5.7266-17.672 13.945-23.109 23.801-5.4375-9.8555-13.414-18.074-23.105-23.801-9.6914-5.7266-20.742-8.75-32-8.7578h-15.742c-4.3477 0-7.8711 3.5234-7.8711 7.8711 0.019532 16.699 6.6602 32.703 18.465 44.512 11.805 11.805 27.812 18.445 44.512 18.465h7.8711v39.359h-133.82v-86.59h7.8711c16.695-0.019531 32.703-6.6602 44.512-18.469 11.805-11.805 18.445-27.812 18.465-44.508 0-2.0898-0.82812-4.0898-2.3047-5.5664-1.4766-1.4766-3.4805-2.3047-5.5664-2.3047h-15.746c-8.2031-0.011718-16.328 1.5938-23.914 4.7227 0.19922-1.5664 0.29688-3.1445 0.30078-4.7227 0-25.402-25.688-44.871-26.766-45.656v-0.003906c-2.8008-2.0977-6.6484-2.0977-9.4492 0-1.0938 0.78906-26.766 20.27-26.766 45.656l0.003907 0.003906c0 1.5781 0.10156 3.1562 0.29688 4.7227-7.582-3.1289-15.711-4.7344-23.914-4.7227h-15.746c-4.3477 0-7.8711 3.5234-7.8711 7.8711 0.019531 16.695 6.6602 32.703 18.469 44.508 11.805 11.809 27.812 18.449 44.508 18.469h7.8711v23.82c-6.7734-5.2109-15.07-8.0469-23.613-8.0781h-15.746c-4.3477 0-7.8711 3.5234-7.8711 7.8711 0.011719 10.438 4.1641 20.441 11.543 27.82 7.3789 7.3789 17.383 11.527 27.816 11.543h7.8711v23.617l-133.82-0.003907v-39.359h7.875c16.695-0.019532 32.703-6.6602 44.508-18.465 11.809-11.809 18.449-27.812 18.465-44.512 0-2.0859-0.82813-4.0898-2.3047-5.5664-1.4766-1.4766-3.4766-2.3047-5.5664-2.3047h-15.742c-11.258 0.007813-22.305 3.0312-31.996 8.7578-9.6914 5.7266-17.672 13.945-23.109 23.801-5.4375-9.8555-13.414-18.074-23.105-23.801-9.6914-5.7266-20.742-8.75-32-8.7578h-15.742c-4.3477 0-7.8711 3.5234-7.8711 7.8711 0.019531 16.699 6.6602 32.703 18.465 44.512 11.805 11.805 27.812 18.445 44.512 18.465h7.8711v39.359h-78.723v15.742l472.32 0.003906v-15.746zm47.23-94.465h7.2227c-1.875 11-7.5781 20.984-16.102 28.188-8.5234 7.2031-19.32 11.16-30.477 11.176h-7.2188c1.875-11 7.5781-20.984 16.102-28.188 8.5234-7.2031 19.316-11.16 30.477-11.176zm-70.848 39.359 0.003907 0.003906c-11.16-0.015625-21.953-3.9727-30.477-11.176-8.5234-7.2031-14.227-17.188-16.102-28.188h7.2148c11.16 0.015625 21.957 3.9727 30.48 11.176 8.5234 7.2031 14.227 17.188 16.102 28.188zm-149.57 15.746c-4.8828-0.003907-9.6445-1.5234-13.629-4.3398-3.9883-2.8203-7.0078-6.8008-8.6406-11.402h6.5273c4.8828 0.003906 9.6445 1.5195 13.629 4.3398 3.9883 2.8164 7.0039 6.8008 8.6406 11.402zm78.066-102.34c-1.875 11-7.5781 20.984-16.102 28.188-8.5234 7.1992-19.316 11.16-30.477 11.172h-7.2188c1.875-11 7.5781-20.984 16.102-28.184 8.5234-7.2031 19.32-11.16 30.477-11.176zm-62.32-44.68c8.707 7.3164 14.328 17.648 15.742 28.938-1.3828 11.293-7.0117 21.637-15.742 28.938-8.707-7.3203-14.332-17.652-15.746-28.938 1.3828-11.297 7.0117-21.641 15.746-28.938zm-15.746 84.039c-11.16-0.011719-21.953-3.9727-30.477-11.172-8.5234-7.2031-14.227-17.188-16.102-28.188h7.2188c11.16 0.015625 21.953 3.9727 30.477 11.176 8.5234 7.1992 14.227 17.184 16.102 28.184zm-78.719 7.8711h7.2188c-1.875 11-7.5781 20.984-16.102 28.188-8.5234 7.2031-19.32 11.16-30.477 11.176h-7.2188c1.875-11 7.5781-20.984 16.102-28.188 8.5234-7.2031 19.316-11.16 30.477-11.176zm-70.848 39.359v0.003906c-11.16-0.015625-21.957-3.9727-30.477-11.176-8.5234-7.2031-14.227-17.188-16.105-28.188h7.2188c11.16 0.015625 21.957 3.9727 30.48 11.176 8.5234 7.2031 14.227 17.188 16.102 28.188z"/>
  <path d="m400 329.15c14.613 0 28.629-5.8047 38.965-16.137 10.332-10.336 16.137-24.352 16.137-38.965 0-14.617-5.8047-28.633-16.137-38.965-10.336-10.336-24.352-16.141-38.965-16.141-14.617 0-28.633 5.8047-38.965 16.141-10.336 10.332-16.141 24.348-16.141 38.965 0.019531 14.609 5.832 28.613 16.16 38.941 10.328 10.332 24.336 16.145 38.945 16.16zm0-94.465v0.003906c10.438 0 20.449 4.1445 27.832 11.527 7.3789 7.3828 11.527 17.391 11.527 27.832 0 10.438-4.1484 20.449-11.527 27.832-7.3828 7.3789-17.395 11.527-27.832 11.527-10.441 0-20.453-4.1484-27.832-11.527-7.3828-7.3828-11.531-17.395-11.531-27.832 0.015625-10.438 4.1641-20.441 11.543-27.82 7.3789-7.3789 17.383-11.527 27.82-11.539z"/>
  <path d="m392.12 187.45h15.742v15.742h-15.742z"/>
  <path d="m333.2 218.38 11.133-11.133 11.133 11.133-11.133 11.133z"/>
  <path d="m313.41 266.18h15.742v15.742h-15.742z"/>
  <path d="m333.2 329.71 11.133-11.133 11.133 11.133-11.133 11.133z"/>
  <path d="m392.12 344.89h15.742v15.742h-15.742z"/>
  <path d="m444.53 329.71 11.133-11.133 11.133 11.133-11.133 11.133z"/>
  <path d="m470.85 266.18h15.742v15.742h-15.742z"/>
  <path d="m444.53 218.39 11.133-11.133 11.133 11.133-11.133 11.133z"/>
  <path d="m316.5 201.68 11.133-11.133 11.133 11.133-11.133 11.133z"/>
  <path d="m289.79 266.18h15.742v15.742h-15.742z"/>
  <path d="m316.5 346.4 11.133-11.133 11.133 11.133-11.133 11.133z"/>
  <path d="m392.12 368.51h15.742v15.742h-15.742z"/>
  <path d="m461.22 346.41 11.133-11.133 11.133 11.133-11.133 11.133z"/>
  <path d="m494.46 266.18h15.742v15.742h-15.742z"/>
  <path d="m461.23 201.68 11.133-11.133 11.133 11.133-11.133 11.133z"/>
 </g>
</svg>