<?xml version="1.0" encoding="UTF-8"?>
<!-- The Best Svg Icon site in the world: iconSvg.co, Visit us! https://iconsvg.co -->
<svg fill="#000000" width="800px" height="800px" version="1.1" viewBox="144 144 512 512" xmlns="http://www.w3.org/2000/svg">
 <path d="m616.1 426.32c1.4023-16.816 2.3633-33.77 2.3633-50.949 0-0.70703-0.046875-1.418-0.046875-2.1328 0-0.0625 0.039062-0.11719 0.039062-0.17969s-0.046875-0.14844-0.046875-0.22656l-0.003906-0.003907c-0.14062-56.266-8.3398-112.22-24.355-166.16-0.058593-0.26562-0.13281-0.52734-0.21875-0.78516-2.7734-9.1406-5.6914-18.191-8.9258-27.031-1.1367-3.1055-4.0898-5.1719-7.3945-5.1719h-355.03c-3.3047 0-6.2578 2.0664-7.3906 5.1719-3.2383 8.8398-6.1562 17.891-8.9297 27.047-0.085937 0.25781-0.16016 0.51953-0.21875 0.78516-16 53.938-24.188 109.89-24.316 166.15 0 0.078125-0.046875 0.14062-0.046875 0.22656 0 0.085937 0.039063 0.11719 0.039063 0.17969 0 0.71484-0.046875 1.4258-0.046875 2.1328 0 17.176 0.92188 34.133 2.3203 50.949v0.003907c-0.050781 0.19922-0.09375 0.40625-0.125 0.61328 0.050781 0.48828 0.14844 0.96875 0.29297 1.4414 4.5117 56.234 17.641 111.45 38.926 163.7 0.0625 0.16406 0.11719 0.32422 0.1875 0.48047 4.1797 10.02 8.6133 19.867 13.383 29.449 1.3359 2.6719 4.0625 4.3555 7.0469 4.3555h312.78c3 0.015625 5.7461-1.6719 7.0859-4.3555 29.48-60.691 47.277-126.39 52.469-193.67 0.14453-0.46875 0.24219-0.94922 0.28906-1.4375-0.03125-0.19531-0.074218-0.38672-0.125-0.57422zm-51.758 155.08h-33.605c15.969-47.48 26.254-96.691 30.637-146.59h38.273c-4.7773 50.285-16.664 99.641-35.305 146.59zm-98.801 0h-0.003907c15.984-47.48 26.273-96.688 30.656-146.59h49.383-0.003906c-4.4844 49.961-15.059 99.188-31.488 146.59zm-57.672 0v-146.59h72.516c-4.4844 49.961-15.059 99.188-31.488 146.59zm-56.789 0c-16.422-47.398-26.996-96.625-31.488-146.59h72.531v146.58zm-150.75-146.59h38.289c4.3828 49.902 14.676 99.109 30.656 146.59h-33.625c-18.648-46.945-30.539-96.301-35.32-146.59zm18.996-217.84h34.395-0.003906c-11.496 48.582-17.5 98.297-17.906 148.21h-38.281c0.75-50.145 8.0781-99.977 21.797-148.21zm245.61 0c11.797 48.535 17.953 98.27 18.352 148.21h-75.414v-148.21zm137.54 148.21h-38.285c-0.40234-49.918-6.4102-99.633-17.906-148.21h34.395-0.003906c13.723 48.238 21.051 98.07 21.801 148.21zm-72.379-148.21c11.793 48.535 17.949 98.27 18.352 148.21h-49.453c-0.39844-49.918-6.4023-99.637-17.906-148.21zm-137.96 148.21h-75.375c0.39844-49.945 6.5547-99.68 18.352-148.21h57.023zm-91.117 0h-49.453c0.40234-49.945 6.5586-99.68 18.352-148.21h49.012c-11.504 48.578-17.512 98.297-17.91 148.21zm-15.113 216.21c-16.426-47.398-27-96.625-31.488-146.59h49.395c4.3867 49.902 14.672 99.105 30.648 146.59zm-86.797-162.33c-0.92188-12.594-1.5117-25.309-1.6289-38.133h405.06c-0.11719 12.824-0.70703 25.52-1.6289 38.133zm372.88-229.64c1.3633 3.8828 2.5742 7.8711 3.8477 11.809h-351.64c1.2734-3.9375 2.4883-7.9258 3.8477-11.809zm-20.469 421.15h-303c-2.1328-4.3828-4.0078-8.957-6.0156-13.438h315.01c-2.0078 4.4805-3.8828 9.0547-6.0156 13.438z"/>
</svg>