<?xml version="1.0" encoding="UTF-8"?>
<!-- The Best Svg Icon site in the world: iconSvg.co, Visit us! https://iconsvg.co -->
<svg fill="#000000" width="800px" height="800px" version="1.1" viewBox="144 144 512 512" xmlns="http://www.w3.org/2000/svg">
 <path d="m365.21 259.39-4.7617 27.766c-0.65625 3.8047 0.875 7.582 4 9.8555 3.1289 2.2734 7.1992 2.5664 10.621 0.76953l24.934-13.109 24.941 13.113c1.4844 0.78125 3.0938 1.168 4.6992 1.168 2.082 0 4.1523-0.65625 5.918-1.9375 3.125-2.2734 4.6562-6.0508 4-9.8516l-4.7578-27.773 20.172-19.664c2.7656-2.6992 3.7422-6.6562 2.5469-10.332-1.1914-3.6719-4.3086-6.3008-8.1328-6.8555l-27.883-4.0508-12.473-25.273c-1.7109-3.4648-5.1719-5.6172-9.0312-5.6172h-0.003906c-3.8633 0.003906-7.3242 2.1562-9.0273 5.6172l-12.473 25.266-27.883 4.0508c-3.8242 0.55469-6.9375 3.1836-8.1328 6.8555-1.1953 3.6758-0.22266 7.6328 2.543 10.336zm14.734-30.938c3.2852-0.47656 6.1211-2.5391 7.5859-5.5117l12.473-25.27 12.473 25.27c1.4648 2.9727 4.3008 5.0352 7.5859 5.5117l27.883 4.0508h-0.003906l-20.168 19.664c-2.3828 2.3164-3.4648 5.6523-2.9023 8.9219l4.7617 27.77-24.941-13.113c-1.4648-0.77344-3.0781-1.1562-4.6875-1.1562s-3.2188 0.38281-4.6875 1.1523l-24.941 13.113 4.7617-27.77c0.5625-3.2773-0.52344-6.6133-2.8984-8.9219l-20.176-19.664zm-154 58.707c-0.65625 3.8086 0.88672 7.5859 4.0117 9.8555 1.7656 1.2812 3.832 1.9336 5.9141 1.9336 1.5977 0 3.207-0.38672 4.6992-1.168l24.934-13.113 24.941 13.113c3.4297 1.8008 7.4922 1.5039 10.613-0.76562 3.125-2.2695 4.6641-6.0469 4.0117-9.8555l-4.7617-27.77 20.176-19.668c2.7656-2.6992 3.7422-6.6562 2.5469-10.332-1.1914-3.6719-4.3086-6.3008-8.1328-6.8555l-27.887-4.0508-12.469-25.27c-1.7109-3.4648-5.1719-5.6133-9.0391-5.6133-3.8633 0-7.3203 2.1484-9.0312 5.6172l-12.469 25.266-27.887 4.0508c-3.8242 0.55469-6.9414 3.1875-8.1328 6.8594-1.1914 3.6758-0.21484 7.6328 2.5469 10.328l20.176 19.668zm-8.3828-54.652 27.891-4.0508c3.2812-0.48047 6.1172-2.5391 7.582-5.5117l12.473-25.266 12.473 25.277c1.4727 2.9648 4.3047 5.0234 7.582 5.5l27.883 4.0508-20.176 19.672c-2.3711 2.3125-3.4531 5.6484-2.8945 8.918l4.7617 27.77-24.945-13.113c-1.4648-0.76953-3.0742-1.1562-4.6836-1.1562-1.6133 0-3.2227 0.38672-4.6953 1.1562l-24.941 13.113 4.7617-27.77c0.5625-3.2695-0.52344-6.6055-2.8945-8.9219zm374.45-3.1211c-1.1953-3.6719-4.3086-6.2969-8.1328-6.8555l-27.883-4.0508-12.465-25.266c-1.7109-3.4648-5.1719-5.6172-9.0312-5.6172-3.8672 0-7.3242 2.1523-9.0391 5.6172l-12.469 25.266-27.887 4.0508c-3.8242 0.55469-6.9414 3.1836-8.1328 6.8555-1.1953 3.6758-0.21484 7.6328 2.5469 10.328l20.176 19.672-4.7617 27.766c-0.65625 3.8047 0.875 7.582 4 9.8555 3.125 2.2734 7.2031 2.5664 10.617 0.76953l24.941-13.109 24.941 13.113c1.4922 0.78125 3.1016 1.168 4.6992 1.168 2.082 0 4.1484-0.65234 5.9141-1.9336 3.125-2.2695 4.6641-6.0469 4.0117-9.8594l-4.7617-27.77 20.176-19.668v-0.003906c2.7617-2.6953 3.7344-6.6523 2.5391-10.328zm-29.746 22.781c-2.3867 2.3125-3.4688 5.6484-2.9062 8.9258l4.7656 27.77-24.945-13.113c-1.4727-0.77344-3.0781-1.1602-4.6875-1.1602-1.6133 0-3.2227 0.38672-4.6836 1.1602l-24.945 13.109 4.7617-27.77c0.5625-3.2734-0.52344-6.6094-2.8984-8.918l-20.176-19.668 27.891-4.0508c3.2812-0.48047 6.1211-2.543 7.582-5.5156l12.473-25.266 12.469 25.27c1.4648 2.9727 4.3008 5.0352 7.5859 5.5117l27.906 4.0273zm-231.43 218.79c1.3672 2.4219 0.51172 5.5-1.9141 6.8672-0.78125 0.44141-1.6328 0.64844-2.4688 0.64844-1.7617 0-3.4688-0.92188-4.3945-2.5625-7.4688-13.238-18.117-21.938-29.207-23.875-2.7422-0.47656-4.5742-3.0859-4.0977-5.8281 0.47656-2.7383 3.0859-4.5898 5.832-4.0977 14.074 2.457 27.289 12.973 36.25 28.848zm181.21-48.07c-16.359 0-31.43 7.0547-43.633 18.824-10.512-35.691-37.172-61.16-68.41-61.16s-57.898 25.469-68.414 61.16c-12.207-11.766-27.277-18.82-43.633-18.82-40.395 0-73.254 42.508-73.254 94.758s32.859 94.758 73.254 94.758c31.238 0 57.902-25.469 68.414-61.164 12.207 11.766 27.277 18.82 43.633 18.82 16.359 0 31.426-7.0547 43.633-18.824 10.512 35.691 37.172 61.164 68.41 61.164 40.395 0 73.258-42.508 73.258-94.758 0-52.246-32.863-94.758-73.258-94.758zm-224.09 179.44c-34.84 0-63.18-37.988-63.18-84.684 0-46.695 28.34-84.68 63.18-84.68s63.184 37.988 63.184 84.68c-0.003907 46.695-28.348 84.684-63.184 84.684zm152.93-62.578c-11.031 12.59-25.293 20.238-40.883 20.238s-29.855-7.6445-40.883-20.234c1.3203-7.1055 2.0938-14.484 2.0938-22.105 0-26.211-8.2773-49.961-21.617-67.133 7.9297-34.633 32.004-59.891 60.406-59.891s52.477 25.258 60.402 59.891c-13.34 17.172-21.613 40.922-21.613 67.129 0 7.6211 0.77344 15 2.0938 22.105zm71.16 62.578c-34.84 0-63.18-37.988-63.18-84.684 0-46.695 28.34-84.68 63.18-84.68 34.84 0 63.184 37.988 63.184 84.68 0 46.695-28.344 84.684-63.184 84.684zm42.879-131.37c1.3672 2.4219 0.51172 5.4961-1.9141 6.8633-0.78125 0.44141-1.6328 0.64844-2.4688 0.64844-1.7617 0-3.4688-0.92188-4.3945-2.5625-7.4648-13.234-18.105-21.938-29.199-23.875-2.7422-0.47656-4.5742-3.0859-4.0977-5.8281 0.47656-2.7383 3.0938-4.5898 5.832-4.0977 14.078 2.4609 27.289 12.98 36.242 28.852z"/>
</svg>