<?xml version="1.0" encoding="UTF-8"?>
<!-- The Best Svg Icon site in the world: iconSvg.co, Visit us! https://iconsvg.co -->
<svg fill="#000000" width="800px" height="800px" version="1.1" viewBox="144 144 512 512" xmlns="http://www.w3.org/2000/svg">
 <path d="m359.59 484.33-54.277 46.012 5.8125 92.746h-19.348l-19.906-110.8 33.555-28.449zm267.12-181.42c-0.003907-8.1914-3.2656-16.043-9.0547-21.836l-35.801-35.801c-7.3359-7.3359-17.207-11.523-27.543-11.785l-41.414-41.414c-9.7383-9.7383-22.953-15.215-36.727-15.215h-40.445l36.266 14.324c8.8477 3.4961 16.566 9.3516 22.312 16.934l19.191 25.316h-42.656l7.2969 10.777c7.4375 10.984 19.84 17.562 33.102 17.562h2.1094l-43.449 71.27h-192.56c-21.191 0-41.473 8.6055-56.195 23.844l-0.64062 0.66406-47.215-23.879v12.68c0 7.418 2.2461 14.66 6.4531 20.777l16.172 23.527 12.801 62.418-14.168 21.254 20.285 148.8h19.355l-0.03125-92.781 67.418-57.164 126.76 1.1367v148.77l18.707-0.015625 9.6641-103.24 43.785-43.641c26.676-26.586 44.617-60.68 51.426-97.719l11.035-60.023h17.715l17.715 35.422h14.168v-35.492c7.9375-0.68359 14.18-7.3477 14.168-15.477zm-147.21 209.21 24.102 110.98h19.355l-22.07-132.3z"/>
</svg>