<?xml version="1.0" encoding="UTF-8"?>
<!-- The Best Svg Icon site in the world: iconSvg.co, Visit us! https://iconsvg.co -->
<svg fill="#000000" width="800px" height="800px" version="1.1" viewBox="144 144 512 512" xmlns="http://www.w3.org/2000/svg">
 <path d="m605.05 519.91-176.33-261.48 13.602-20.152c9.5742-14.609 23.176-25.695 39.297-32.746l74.059-32.246h-100.76c-25.695 0-50.883 10.078-69.023 28.719l-56.93 56.426h-0.50391l-43.328-31.234c-5.0391-3.5273-11.082-5.543-17.633-5.543h-37.785l31.234 77.586c4.0312 9.5742 13.602 16.121 23.68 16.121h44.336v14.105h-44.336c-16.121 0-30.73-10.078-37.281-25.191l-18.641-45.848-41.312 0.003907v368.29l85.145-28.215h212.11c9.0703 9.0703 21.16 14.105 34.258 14.105 26.703 0 52.395-10.078 72.043-27.711l6.5508-6.0469c17.129-15.109 20.152-40.301 7.5586-58.941zm-146.61-129.48c-21.16 6.5508-43.832-4.5352-51.387-25.191v-0.50391h40.305l16.121 23.68zm107.81 140.56v20.656h-21.16c0.50391-11.082 9.5742-20.656 21.16-20.656z"/>
</svg>