<?xml version="1.0" encoding="UTF-8"?>
<!-- The Best Svg Icon site in the world: iconSvg.co, Visit us! https://iconsvg.co -->
<svg fill="#000000" width="800px" height="800px" version="1.1" viewBox="144 144 512 512" xmlns="http://www.w3.org/2000/svg">
 <g>
  <path d="m588.42 445.34-100.76-43.832-14.609-7.5586c-1.0078-0.50391-2.5195-0.50391-4.0312-0.50391-1.5117 0.50391-2.5195 1.5117-3.0234 2.5195l-5.0391 9.5742-15.113-8.5664c-0.50391-11.082-5.0391-21.16-12.594-28.719-6.0469-6.0469-13.602-10.078-21.664-11.586-51.387-131.49-134.52-162.73-138.04-164.24-2.0156-0.50391-4.5352 0-5.543 1.5117-1.5117 1.5117-1.5117 4.0312 0 6.0469l111.85 163.23c-2.0156 1.5117-4.5352 3.0234-6.5508 5.0391-1.5117 1.5117-3.0234 3.5273-4.5352 5.0391l-163.23-111.35c-2.0156-1.0078-4.0312-1.0078-6.0469 0-1.5117 1.5117-2.5195 3.5273-1.5117 5.543 1.5117 3.5273 32.746 85.648 163.23 138.55 1.5117 8.5664 5.543 16.625 12.09 23.176 8.5664 8.5664 19.648 12.594 30.73 12.594l8.0625 14.105-9.5742 5.0391c-2.5117 1.5156-3.5195 4.5352-2.5117 7.0547l7.5586 14.609 43.328 100.76c3.0234 7.5586 9.5742 13.098 16.625 16.121 3.0234 1.0078 6.0469 1.5117 9.0703 1.5117 4.0312 0 8.0625-1.0078 11.586-3.0234l3.5273-2.0156c6.0469-3.5273 10.578-9.0703 12.594-16.121 2.0156-7.5586 1.0078-16.121-3.5273-22.672l-56.934-93.707-7.5586-14.609c-0.50391-1.0078-1.5117-2.0156-3.0234-2.5195-1.5117-0.50391-2.5195-0.50391-4.0312 0.50391l-9.0703 4.5352-6.0469-10.578c7.0547-2.0156 14.105-5.543 19.648-11.082 6.0469-6.0469 10.078-13.098 11.586-21.16l11.586 6.5508-4.5352 9.0703c-1.5117 2.5195-0.50391 5.543 2.0156 6.5508l14.609 7.5586 93.723 57.426c4.5352 3.0234 10.078 4.5352 15.617 4.5352 2.5195 0 5.0391-0.50391 7.5586-1.0078 7.0547-2.0156 12.594-6.5508 16.121-12.594l2.0156-3.5273c3.5273-6.0469 3.5273-13.602 1.5117-20.656-3.5273-7.5586-9.5742-13.605-17.133-17.133zm-93.203 131.5c-1.0078 4.5352-4.0312 7.5586-7.5586 9.5742l-3.5273 2.0156c-4.0312 2.0156-8.0625 2.0156-12.594 0.50391-5.0391-1.5117-8.5664-5.543-11.082-10.578l-41.816-96.227 19.145-10.078 54.914 89.68c3.0234 5.0312 3.5273 10.574 2.5195 15.109zm-65.496-118.9 3.0234 5.543-18.641 9.5742-3.0234-5.543zm-142.58-246.87c26.199 16.121 77.586 56.426 114.36 145.1-4.5352 0-8.5664 1.0078-13.098 2.5195zm-48.363 101.27c-10.078-11.586-17.633-22.168-22.672-30.73l147.11 100.76c-1.5117 4.0312-2.5195 8.5664-3.0234 13.098-62.473-26.199-100.26-59.449-121.42-83.129zm188.42 110.34c-13.098 13.098-33.754 13.098-46.855 0-13.098-13.098-13.098-33.754 0-46.855 6.5508-6.5508 15.113-9.5742 23.176-9.5742 8.5664 0 17.129 3.0234 23.176 9.5742 6.0469 6.0469 9.5742 14.609 9.5742 23.176 0 8.5625-3.0234 17.129-9.0703 23.68zm46.352-17.133 5.543 3.0234-9.5742 18.641-5.543-3.0234zm120.91 72.551-2.0156 3.5273c-2.0156 4.0312-5.543 6.5508-9.5742 7.5586-5.0391 1.5117-10.578 0.50391-15.113-2.0156l-89.676-55.422 10.078-19.145 96.227 41.816c5.0391 2.0156 8.5664 6.0469 10.578 11.082 1.5117 4.5352 1.5117 8.5664-0.50391 12.598z"/>
  <path d="m389.42 384.88c-8.0625 8.0625-8.0625 20.656 0 28.719 4.0312 4.0312 9.0703 6.0469 14.105 6.0469 5.0391 0 10.578-2.0156 14.105-6.0469 4.0312-4.0312 6.0469-9.0703 6.0469-14.105 0-5.0391-2.0156-10.578-6.0469-14.105-7.5547-8.5664-20.652-8.5664-28.211-0.50781zm21.664 21.16c-4.0312 4.0312-10.578 4.0312-14.609 0s-4.0312-10.578 0-14.609 10.578-4.0312 14.609 0c2.0156 2.0156 3.0234 4.5352 3.0234 7.0547s-1.5117 6.043-3.0234 7.5547z"/>
 </g>
</svg>