<?xml version="1.0" encoding="UTF-8"?>
<!-- The Best Svg Icon site in the world: iconSvg.co, Visit us! https://iconsvg.co -->
<svg fill="#000000" width="800px" height="800px" version="1.1" viewBox="144 144 512 512" xmlns="http://www.w3.org/2000/svg">
 <g>
  <path d="m601.52 481.29c0-2.7812-2.2539-5.0391-5.0391-5.0391h-2.918v-58.348c0-30.883-5.4922-61.203-16.316-90.129l-13.922-37.215c-3.9297-10.504-14.109-17.562-25.328-17.562h-70.219v-69.488c0-2.7812-2.2539-5.0391-5.0391-5.0391l-252.42 0.003906c-2.7852 0-5.0391 2.2539-5.0391 5.0391v272.74l-1.7695-0.003906c-2.7852 0-5.0391 2.2539-5.0391 5.0391l0.003906 55.602c0 2.7812 2.2539 5.0391 5.0391 5.0391h20.578c-0.80078 3.4961-1.2617 7.1211-1.2617 10.859-0.003906 26.867 21.859 48.73 48.734 48.73s48.734-21.863 48.734-48.734c0-3.7383-0.46094-7.3594-1.2617-10.859h161.73c-0.80078 3.4961-1.2617 7.1211-1.2617 10.859 0 26.871 21.859 48.734 48.73 48.734 26.875 0 48.734-21.863 48.734-48.734 0-3.7383-0.46094-7.3594-1.2617-10.859h20.77c2.7852 0 5.0391-2.2539 5.0391-5.0391zm-21.855-106.66h-75.586v-57.434h58.453l5.2812 14.117c5.2852 14.125 9.2344 28.602 11.852 43.316zm-41.668-91.551c7.0391 0 13.426 4.4297 15.891 11.02l4.8711 13.023h-59.719c-2.7852 0-5.0391 2.2539-5.0391 5.0391v67.508c0 2.7812 2.2539 5.0391 5.0391 5.0391h82.215c1.4844 10.965 2.2305 22.043 2.2305 33.203v58.348l-115.71-0.003906v-193.18zm-322.64-74.527h242.34v267.7h-242.34zm56.207 382.89c-21.32 0-38.66-17.34-38.66-38.656 0-21.316 17.344-38.66 38.66-38.66 21.312 0 38.656 17.344 38.656 38.66 0 21.316-17.344 38.656-38.656 38.656zm256.68 0c-21.312 0-38.656-17.34-38.656-38.656 0-21.316 17.344-38.66 38.656-38.66s38.656 17.344 38.656 38.66c0 21.316-17.34 38.656-38.656 38.656zm63.203-59.59h-19.262c-7.8516-16.41-24.566-27.801-43.941-27.801-19.371 0-36.09 11.391-43.941 27.801h-168.79c-7.8516-16.41-24.566-27.801-43.941-27.801-19.371 0-36.094 11.391-43.945 27.801h-19.07v-45.523h382.89z"/>
  <path d="m420.54 351.69c-3.5703-35.711-37.391-64.309-78.672-66.516h-0.019532c2.6328-23.27 26.559-29.18 27.645-29.434 2.6992-0.62109 4.3984-3.3164 3.7852-6.0234-0.61719-2.7188-3.2852-4.418-6.0312-3.8008-7.1289 1.6172-17.84 6.4844-25.676 15.605v-21.824c0-2.7812-2.2539-5.0391-5.0391-5.0391s-5.0391 2.2539-5.0391 5.0391v21.867c-7.8398-9.1367-18.551-14.027-25.691-15.645-2.75-0.62891-5.418 1.082-6.0312 3.7969-0.61328 2.7148 1.0859 5.4102 3.7969 6.0273 1.0859 0.24609 25.117 5.9883 27.688 29.48-21.746 1.1758-42.07 9.4727-56.961 23.582-14.254 13.512-22.105 31.066-22.105 49.422 0 30.32 21.953 57.859 54.625 68.527 8.7188 2.8477 13.77 7.2852 16.898 14.844 2.1367 5.1602 7.2539 8.5195 13.039 8.5586h0.097656c5.8086 0 11.098-3.4688 13.18-8.6641 2.9219-7.3203 8.4141-12.035 17.797-15.289 34.781-12.062 55.969-42.004 52.715-74.516zm-56.008 64.988c-12.062 4.1836-19.863 11.074-23.855 21.066-0.55469 1.3984-2.0898 2.3281-3.8242 2.3281h-0.03125c-1.6992-0.011718-3.2227-0.95312-3.7969-2.3359-4.25-10.281-11.586-16.812-23.078-20.566-28.52-9.3086-47.68-33-47.68-58.945 0-15.562 6.7344-30.516 18.961-42.109 15.293-14.496 37.207-22.109 60.102-20.879 36.359 1.9453 66.105 26.648 69.184 57.457 2.7812 27.773-15.699 53.488-45.98 63.984z"/>
  <path d="m296.68 357.08c-0.42969-2.7461-2.9883-4.6211-5.75-4.207-2.75 0.42969-4.6328 3.0039-4.207 5.75 1.6367 10.535 7.8633 19.906 17.531 26.395 0.86719 0.57812 1.8398 0.85547 2.8047 0.85547 1.625 0 3.2188-0.78125 4.1875-2.2305 1.5508-2.3086 0.93359-5.4375-1.3711-6.9922-7.3125-4.9023-11.996-11.852-13.195-19.57z"/>
 </g>
</svg>