<?xml version="1.0" encoding="UTF-8"?>
<!-- The Best Svg Icon site in the world: iconSvg.co, Visit us! https://iconsvg.co -->
<svg fill="#000000" width="800px" height="800px" version="1.1" viewBox="144 144 512 512" xmlns="http://www.w3.org/2000/svg">
 <path d="m569.59 394.92-128.42-27.418-34.496-121.03h18.137c2.7812 0 5.0391-2.2539 5.0391-5.0391v-38.062c0-2.7812-2.2539-5.0391-5.0391-5.0391l-221.3 0.003907c-2.7812 0-5.0391 2.2539-5.0391 5.0391v38.062c0 2.7812 2.2539 5.0391 5.0391 5.0391h15.77v109.58h-15.77c-2.7812 0-5.0391 2.2539-5.0391 5.0391v39.047c0 2.7812 2.2539 5.0391 5.0391 5.0391h15.77v54.77c-12.93 15.027-20.805 34.527-20.805 55.867 0 47.336 38.508 85.844 85.844 85.844 30.246 0 56.828-15.762 72.125-39.461h44.184v10.492c0 2.7812 2.2539 5.0391 5.0391 5.0391h39.047c2.7812 0 5.0391-2.2539 5.0391-5.0391v-10.492h18.859c6.4023 22.73 27.273 39.461 52.023 39.461s45.621-16.73 52.023-39.461h23.824c2.7812 0 5.0391-2.2539 5.0391-5.0391v-124.45c0-18.895-13.535-34.809-31.938-37.793zm-361.04-186.5h211.22v27.984h-211.22zm20.809 38.059h166.84l34.285 120.29h-74.75c-0.050781 0-0.089844 0.027344-0.14062 0.027344-16.113-6.8477-33.285-10.734-50.691-10.734l-75.539 0.003907zm54.957 345.11c-41.777 0-75.766-33.988-75.766-75.766s33.988-75.766 75.766-75.766 75.77 33.988 75.77 75.766-33.992 75.766-75.77 75.766zm77.676-39.461c5.1836-11.047 8.168-23.32 8.168-36.309 0-47.332-38.508-85.844-85.844-85.844-20.895 0-40.055 7.5195-54.957 19.977v-44.777h69.695c56.008 0 101.57 45.562 101.57 101.57v45.379zm77.68 15.531h-28.969v-60.906c0-61.562-50.086-111.65-111.65-111.65h-90.504v-28.969h96.352c69.277 0 134.77 65.496 134.77 134.77zm80.965 23.93c-24.27 0-44.016-19.742-44.016-44.016 0-24.27 19.742-44.016 44.016-44.016 24.27 0 44.016 19.746 44.016 44.016-0.003906 24.273-19.746 44.016-44.016 44.016zm70.809-39.461h-16.953c0.125-1.5039 0.23047-3.0156 0.23047-4.5547 0-29.828-24.266-54.094-54.09-54.094-29.824 0-54.09 24.266-54.09 54.094 0 1.5352 0.10547 3.0469 0.23047 4.5547h-17.023v-51.219c0-49.801-31.512-97.75-74.645-124.07h61.516l131.1 27.98c13.746 2.2344 23.723 13.965 23.723 27.895z"/>
</svg>