<?xml version="1.0" encoding="UTF-8"?>
<!-- The Best Svg Icon site in the world: iconSvg.co, Visit us! https://iconsvg.co -->
<svg fill="#000000" width="800px" height="800px" version="1.1" viewBox="144 144 512 512" xmlns="http://www.w3.org/2000/svg">
 <path d="m283.62 469.02c-4.0312 39.801 21.664 76.074 64.488 90.688 14.609 5.0391 25.191 15.617 28.215 28.215l1.0078 4.5352c1.0078 3.5273 4.0312 6.0469 7.5586 6.0469 3.5273 0 6.5508-2.0156 7.5586-5.543l1.5117-5.0391c3.5273-12.09 14.105-22.168 28.215-27.207 39.801-13.098 66.504-46.352 66.504-83.633 0-22.168-9.5742-43.832-26.703-60.457-17.633-16.625-41.312-26.703-67.008-28.719 0.50391-7.0547 1.5117-21.664 5.0391-40.305 4.0312 4.5352 9.5742 8.0625 16.121 9.5742 2.0156 0.50391 4.0312 0.50391 6.0469 0.50391 13.098 0 25.191-9.0703 28.215-22.672 0.50391-1.5117 0.50391-3.0234 0.50391-4.5352 10.078-4.0312 17.129-12.594 20.152-22.672 2.0156-7.0547 2.0156-14.105 0-20.656 7.0547-4.0312 12.594-10.578 14.609-18.641 3.5273-11.586 0-24.688-9.0703-32.746 1.0078-1.5117 1.5117-3.5273 2.5195-5.543 4.5352-15.617-4.5352-32.242-19.648-36.777-7.5586-2.0156-15.617-1.5117-22.672 2.5195-5.543 3.0234-10.078 7.5586-12.594 13.098-16.121-4.0312-32.746 5.543-37.785 21.664-1.5117 5.0391-1.5117 10.578-0.50391 16.121-7.0547 2.5195-13.098 7.5586-17.129 14.105-3.0234-4.0312-7.0547-7.5586-12.09-9.5742-5.543-2.0156-12.09-2.0156-17.633 0-6.5508-9.0703-19.145-12.594-29.727-8.0625-12.09 5.543-17.633 20.152-12.09 32.242 0.50391 1.0078 1.0078 2.5195 2.0156 3.5273-6.0469 7.5586-7.0547 18.137-3.0234 26.703 2.5195 6.0469 7.5586 10.578 13.098 13.098-0.50391 5.543 0 11.082 2.5195 16.121 3.5273 7.5586 10.078 13.602 18.137 15.617 0 1.0078 0.50391 2.0156 1.0078 3.0234 2.0156 6.0469 6.5508 10.578 12.594 13.098 3.0234 1.5117 6.5508 2.0156 10.078 2.0156 3.0234 0 5.543-0.50391 8.0625-1.5117 4.5352-1.5117 8.0625-4.5352 10.578-8.0625 4.5352 12.594 6.5508 22.672 7.5586 27.711h-1.0078c-49.887 3.5352-91.199 38.297-95.23 82.129zm102.78-99.25c-1.5117-4.5352-3.0234-10.078-5.0391-16.121 2.5195 0 4.5352-0.50391 6.5508-1.5117 0.50391 0 0.50391-0.50391 1.0078-0.50391-1.0078 7.0547-1.5117 13.098-2.5195 18.137zm7.5586-114.36c1.5117-0.50391 2.5195-1.5117 3.5273-2.5195 0.50391-1.5117 0.50391-3.0234 0-4.0312-2.0156-5.0391-2.5195-10.074-1.0078-14.609 1.5117-5.543 5.543-10.078 10.578-13.098 5.0391-2.5195 11.082-3.5273 16.625-1.5117 0.50391 0 1.5117 0.50391 2.0156 1.0078 1.5117 0.50391 3.0234 0.50391 4.0312-0.50391 1.5117-0.50391 2.5195-2.0156 2.5195-3.5273 1.5117-5.0391 5.0391-9.0703 9.5742-11.586 4.5352-2.5195 9.5742-3.0234 14.609-1.5117 10.078 3.0234 16.121 14.105 13.098 24.184-0.50391 2.5195-2.0156 4.5352-3.5273 6.5508-0.50391 1.0039-0.50391 2.5156-0.50391 3.5234 0 1.5117 1.0078 2.5195 2.0156 3.5273 8.0625 5.0391 11.586 15.113 9.0703 24.184-2.0156 6.5508-6.5508 11.586-13.098 14.105-1.5117 0.50391-2.5195 1.5117-3.0234 3.0234-0.50391 1.5117-0.50391 2.5195 0 4.0312 2.5195 5.543 3.0234 12.09 1.5117 18.137-2.5195 8.5664-9.0703 14.609-17.129 17.129-2.5195 0.50391-3.5273 3.0234-3.5273 5.0391s0 3.5273-0.50391 5.543c-2.0156 10.078-12.09 16.625-22.672 14.609-7.0547-1.5117-12.594-7.0547-14.105-13.602 0-0.50391 0-0.50391-0.50391-0.50391 7.0547-27.207 20.152-60.961 43.328-94.211 1.5117-2.5195 1.0078-5.543-1.0078-7.0547-2.5195-1.5117-5.543-1.0078-7.0547 1.0078-20.152 28.719-32.746 57.434-40.305 82.625-1.0078-1.0078-2.0156-2.5195-3.5273-3.5273 1.5117-6.0469 1.0078-12.594-2.0156-18.641-3.5273-8.0625-10.578-13.602-19.145-16.121v-3.0234c0-0.50391 0.50391-0.50391 0.50391-1.0078 3.0234-8.5703 10.578-15.621 19.648-17.637zm-26.199 91.691c-0.50391 5.0391-4.0312 9.5742-9.0703 11.586-3.5273 1.5117-7.0547 1.0078-10.578-0.50391-3.5273-1.5117-6.0469-4.0312-7.0547-7.5586-0.50391-1.0078-0.50391-2.5195-1.0078-4.0312 0-2.5195-2.0156-4.5352-4.0312-4.5352-6.5508-1.0078-11.586-5.0391-14.609-11.082-2.0156-4.0312-2.0156-9.0703-1.0078-13.602 0.50391-1.5117 0.50391-3.0234-0.50391-4.0312-1.0078-1.0078-2.0156-2.0156-3.0234-2.5195-5.0391-1.0078-9.0703-4.5352-11.082-9.0703-3.0234-6.5508-1.5117-14.105 4.0312-18.641 1.0078-1.0078 1.5117-2.0156 1.5117-3.5273s-0.50391-3.0234-1.5117-3.5273c-1.5117-1.0078-2.5195-2.5195-3.0234-4.0312-3.0234-7.0547 0-15.617 7.0547-18.641 2.0156-1.0078 4.0312-1.5117 6.0469-1.5117 5.543 0 10.578 3.0234 12.594 8.0625v0.50391c0.50391 1.5117 1.5117 2.5195 3.0234 3.0234 1.5117 0.50391 3.0234 0.50391 4.0312-0.50391 0.50391-0.50391 1.0078-0.50391 1.5117-1.0078 4.0312-2.0156 8.0625-2.0156 12.09-0.50391 4.0312 1.5117 7.0547 4.5352 9.0703 8.0625 1.5117 3.5273 2.0156 7.0547 1.0078 10.578-0.50391 1.5117 0 3.0234 1.0078 4.0312 1.0078 1.0078 2.0156 2.0156 3.5273 2.0156 7.0547 0.50391 13.098 5.0391 15.617 11.082 2.0156 4.5352 2.5195 10.078 0.50391 14.609-1.0078 2.5195 0 5.0391 2.0156 6.0469 3.0234 1.5117 5.0391 4.0312 6.0469 7.0547 1.0078 2.5195 1.0078 5.0391 0.50391 7.5586 0 0.50391 0 1.0078-0.50391 1.0078 0 0.50391-0.50391 1.5117-0.50391 2.0156-1.5117 3.5273-4.0312 6.0469-7.5586 7.0547-2.5195 1.0078-5.0391 1.0078-7.0547 0.50391-8.5664-21.16-23.176-47.359-45.848-72.043-2.0156-2.0156-5.0391-2.0156-7.0547 0-2.0156 2.0156-2.0156 5.0391 0 7.0547 21.664 23.676 35.27 48.363 43.832 69.02v0zm18.137 50.383h2.5195c0.50391 0 1.0078 0.50391 1.5117 0.50391h1.0078c24.688 1.0078 47.359 10.078 63.984 26.199 15.113 14.609 23.68 33.25 23.68 52.898 0 32.746-24.184 62.473-59.953 74.059-16.125 5.0391-28.719 17.129-33.758 31.238-4.5352-14.609-17.129-26.703-33.754-32.242-37.785-13.098-60.961-45.344-57.434-80.105 3.5273-38.797 40.809-69.527 86.152-72.047 2.0156-0.50391 4.0273-0.50391 6.043-0.50391z"/>
</svg>