<?xml version="1.0" encoding="UTF-8"?>
<!-- The Best Svg Icon site in the world: iconSvg.co, Visit us! https://iconsvg.co -->
<svg fill="#000000" width="800px" height="800px" version="1.1" viewBox="144 144 512 512" xmlns="http://www.w3.org/2000/svg">
 <path d="m384.25 393.48-20.355-20.355c-6.1406-6.1406-16.121-6.1406-22.262 0s-6.1406 16.121 0 22.262l42.617 42.617v97.977l-20.355-20.355c-6.1406-6.1562-16.121-6.1562-22.262 0-6.1406 6.1406-6.1406 16.121 0 22.262l42.617 42.617v39.91c0 8.6914 7.0547 15.742 15.742 15.742 8.6914 0 15.742-7.0547 15.742-15.742v-39.832l42.051-42.051c6.1406-6.1406 6.1406-16.121 0-22.262-6.1406-6.1406-16.121-6.1406-22.262 0l-19.789 19.789v-97.977l42.051-42.051c6.1406-6.1406 6.1406-16.121 0-22.262-6.1406-6.1406-16.121-6.1406-22.262 0l-19.789 19.789v-9.3047c0-8.6914-7.0547-15.742-15.742-15.742-8.6914 0-15.742 7.0547-15.742 15.742zm-177.15 12.973c-4.375 0.92969-8.1562 3.668-10.391 7.543-2.2344 3.8711-2.7227 8.5156-1.3398 12.77 0 0 11.398 34.699 26.371 60.238 7.6992 13.145 16.719 23.82 25.285 28.766 16.469 9.5078 41.645 13.539 62.598 9.1797 16.168-3.3711 29.727-11.652 37.062-24.355 7.3359-12.723 7.7461-28.59 2.5664-44.289-6.6914-20.324-22.781-40.102-39.25-49.609-8.5664-4.9453-22.324-7.4297-37.551-7.5273-29.613-0.1875-65.355 7.2891-65.355 7.2891zm396.78 20.309c1.4023-4.25 0.91406-8.8945-1.3242-12.77-2.2344-3.8711-6.0156-6.6133-10.391-7.543 0 0-35.738-7.4766-65.355-7.2891-15.242 0.09375-28.984 2.582-37.551 7.5273-16.469 9.5078-32.559 29.285-39.25 49.609-5.1797 15.695-4.7695 31.566 2.5664 44.289 7.3359 12.707 20.875 20.988 37.062 24.355 20.957 4.3594 46.129 0.33203 62.598-9.1797 8.5664-4.9453 17.586-15.617 25.285-28.766 14.973-25.535 26.355-60.238 26.355-60.238zm-396.78-162.79c-4.375 0.91406-8.1562 3.6523-10.391 7.5273-2.2344 3.8711-2.7227 8.5156-1.3398 12.77 0 0 11.398 34.699 26.371 60.254 7.6992 13.129 16.719 23.805 25.285 28.75 16.469 9.5078 41.645 13.555 62.598 9.1953 16.168-3.3711 29.727-11.652 37.062-24.371 7.3359-12.707 7.7461-28.59 2.5664-44.273-6.6914-20.324-22.781-40.117-39.25-49.625-8.5664-4.9453-22.324-7.4141-37.551-7.5273-29.613-0.1875-65.355 7.3047-65.355 7.3047zm396.78 20.293c1.4023-4.25 0.91406-8.8945-1.3242-12.77-2.2344-3.8711-6.0156-6.6133-10.391-7.5273 0 0-35.738-7.4961-65.355-7.3047-15.242 0.10938-28.984 2.582-37.551 7.5273-16.469 9.5078-32.559 29.301-39.25 49.625-5.1797 15.68-4.7695 31.566 2.5664 44.273 7.3359 12.723 20.875 21.004 37.062 24.371 20.957 4.3594 46.129 0.31641 62.598-9.1953 8.5664-4.9453 17.586-15.617 25.285-28.75 14.973-25.551 26.355-60.254 26.355-60.254zm-192.17-115.2c-2.9766-3.3203-7.2422-5.2266-11.715-5.2266s-8.7383 1.9062-11.715 5.2266c0 0-24.371 27.223-38.996 52.965-7.543 13.242-12.266 26.387-12.266 36.273 0 19.02 9.0859 42.84 23.348 58.805 11.004 12.328 24.953 19.918 39.629 19.918 14.672 0 28.621-7.5898 39.629-19.918 14.266-15.965 23.348-39.785 23.348-58.805 0-9.8867-4.7227-23.035-12.266-36.273-14.625-25.742-38.996-52.965-38.996-52.965z" fill-rule="evenodd"/>
</svg>