<?xml version="1.0" encoding="UTF-8"?>
<!-- The Best Svg Icon site in the world: iconSvg.co, Visit us! https://iconsvg.co -->
<svg fill="#000000" width="800px" height="800px" version="1.1" viewBox="144 144 512 512" xmlns="http://www.w3.org/2000/svg">
 <g>
  <path d="m328.8 322.17c2.7852 0 5.0391-2.2539 5.0391-5.0391 0-9.8359 8.0977-17.84 18.051-17.84 9.957 0 18.055 8.0039 18.055 17.84 0 2.7852 2.2539 5.0391 5.0391 5.0391 2.7852 0 5.0391-2.2539 5.0391-5.0391 0-15.395-12.621-27.918-28.133-27.918-15.508 0-28.129 12.52-28.129 27.918 0.003906 2.7891 2.2539 5.0391 5.0391 5.0391z"/>
  <path d="m428.44 322.17c2.7852 0 5.0391-2.2539 5.0391-5.0391 0-9.8359 8.0977-17.84 18.051-17.84s18.051 8.0039 18.051 17.84c0 2.7852 2.2539 5.0391 5.0391 5.0391 2.7852 0 5.0391-2.2539 5.0391-5.0391 0-15.395-12.621-27.918-28.129-27.918-15.508 0-28.129 12.52-28.129 27.918 0 2.7891 2.2539 5.0391 5.0391 5.0391z"/>
  <path d="m399.57 349.71c-47.867 0-86.812 33.371-86.812 74.395 0 41.02 38.945 74.391 86.812 74.391 47.867 0 86.812-33.371 86.812-74.391 0-41.023-38.945-74.395-86.812-74.395zm0 138.71c-42.312 0-76.738-28.852-76.738-64.312 0-35.465 34.426-64.32 76.738-64.32s76.738 28.855 76.738 64.32c0 35.461-34.426 64.312-76.738 64.312z"/>
  <path d="m382.06 419.06h-19.496c-2.7852 0-5.0391 2.2539-5.0391 5.0391 0 2.7852 2.2539 5.0391 5.0391 5.0391h19.496c2.7852 0 5.0391-2.2539 5.0391-5.0391 0-2.7852-2.2539-5.0391-5.0391-5.0391z"/>
  <path d="m437.4 419.06h-19.496c-2.7852 0-5.0391 2.2539-5.0391 5.0391 0 2.7852 2.2539 5.0391 5.0391 5.0391h19.496c2.7852 0 5.0391-2.2539 5.0391-5.0391-0.003906-2.7852-2.2578-5.0391-5.0391-5.0391z"/>
  <path d="m518.85 510.43c34.145-31.859 55.551-77.207 55.551-127.48 0-28.004-6.6719-54.461-18.449-77.934 22.867-21.445 24.93-88.09 22.766-98.289-0.40234-1.8945-1.7188-4.5078-5.7031-6.2188-11.625-4.9688-45.594-0.33984-64.418 11.238-7.5586 4.6523-16.402 12.641-22.176 19.809-25.504-14.617-55.004-23.023-86.445-23.023-31.652 0-61.336 8.5195-86.957 23.32-5.4727-7.3164-13.812-14.949-21.922-19.941-18.957-11.664-53.07-16.383-64.703-11.379-3.9688 1.707-5.2773 4.3164-5.6758 6.2031-2.4141 11.473 1.4492 76.273 23.219 98.41-11.738 23.441-18.383 49.859-18.383 77.809 0 50.277 21.41 95.625 55.555 127.48-16.082 7.0547-52.82 28.316-82.043 83.699-1.3008 2.4609-0.35547 5.5117 2.1055 6.8086 0.74609 0.39453 1.5469 0.58203 2.3398 0.58203 1.8125 0 3.5586-0.97266 4.4609-2.6875 31.086-58.914 71.59-77.184 81.621-80.941 30.09 24.656 68.531 39.48 110.38 39.48 41.855 0 80.305-14.828 110.4-39.496 10.004 3.6992 50.434 21.77 81.66 80.957 0.90625 1.7109 2.6523 2.6875 4.4609 2.6875 0.79297 0 1.5938-0.1875 2.3477-0.58203 2.4609-1.3008 3.4062-4.3477 2.1055-6.8086-29.227-55.395-66.004-76.652-82.094-83.707zm-4.9688-290.11c18.219-11.211 49.199-13.594 55.133-10.613 1.707 11.84-1.5703 67.109-18.078 86.023-13.758-23.719-32.922-43.906-55.82-58.867 4.7031-5.5625 12.023-12.391 18.766-16.543zm-283.46-10.613c6.0039-2.9414 37.094-0.48828 55.391 10.773 6.7383 4.1445 13.883 10.59 18.598 16.656-22.715 14.941-41.73 35.035-55.402 58.613-16.133-20.059-20.133-74.543-18.586-86.043zm5.207 173.24c0-90.621 73.727-164.35 164.35-164.35 90.625 0 164.35 73.727 164.35 164.35 0 90.625-73.727 164.35-164.35 164.35-90.621 0.003906-164.35-73.723-164.35-164.35z"/>
 </g>
</svg>