<?xml version="1.0" encoding="UTF-8"?>
<!-- The Best Svg Icon site in the world: iconSvg.co, Visit us! https://iconsvg.co -->
<svg fill="#000000" width="800px" height="800px" version="1.1" viewBox="144 144 512 512" xmlns="http://www.w3.org/2000/svg">
 <g>
  <path d="m195.32 557.44c0.003906 25.285 12.152 49.027 32.656 63.824 20.5 14.797 46.863 18.844 70.859 10.883 23.996-7.9648 42.711-26.973 50.297-51.09h82.902c2.5508 20.469 14.977 38.383 33.25 47.949 18.277 9.5664 40.078 9.5664 58.352 0 18.277-9.5664 30.703-27.48 33.254-47.949h32.031c6.2656 0 12.273-2.4883 16.699-6.918 4.4297-4.4258 6.918-10.434 6.918-16.699v-58.172c-0.035157-5.3867-1.8984-10.598-5.2852-14.785-3.3867-4.1875-8.0977-7.0977-13.355-8.2578l-52.207-11.328v-33.406c0-2.0898-0.82812-4.0898-2.3047-5.5664s-3.4805-2.3086-5.5664-2.3086h-7.875v-7.8711c0-4.3477 3.5273-7.8711 7.875-7.8711v-15.746c-6.2656 0-12.273 2.4883-16.699 6.918-4.4297 4.4297-6.918 10.438-6.918 16.699v7.8711h-7.8711c-4.3477 0-7.875 3.5273-7.875 7.875v23.137l-62.973-13.691v-48.809h19.68c9.8438 0 18.938-5.25 23.859-13.773 4.9219-8.5273 4.9219-19.027 0-27.555-4.9219-8.5234-14.016-13.773-23.859-13.773h-59.043v-15.746h7.875c2.0859 0 4.0898-0.82812 5.5664-2.3047 1.4766-1.4766 2.3047-3.4805 2.3047-5.5664v-15.742c0-8.4375-4.5-16.234-11.809-20.453s-16.309-4.2188-23.617 0c-7.3047 4.2188-11.809 12.016-11.809 20.453v15.742c0 2.0859 0.83203 4.0898 2.3086 5.5664 1.4766 1.4766 3.4766 2.3047 5.5664 2.3047h7.8711v15.742l-78.719 0.003907c-14.609 0.015624-28.617 5.8281-38.949 16.156-10.328 10.332-16.141 24.336-16.156 38.945v59.672c-16.809 5.0078-32.172 13.969-44.809 26.133l10.895 11.359c5.4922-5.2305 11.594-9.7852 18.168-13.562v18.895c-19.797 14.816-31.461 38.09-31.488 62.816zm181.06-259.77c0-4.3477 3.5234-7.875 7.8711-7.875s7.8711 3.5273 7.8711 7.875v7.8711h-15.742zm-94.465 212.54v-15.199c11.195 1.4023 21.805 5.8047 30.699 12.742l-10.734 10.723 11.133 11.133 10.719-10.738c6.9375 8.8984 11.34 19.504 12.746 30.699h-15.203v15.742h15.199l0.003907 0.003906c-1.4062 11.195-5.8086 21.801-12.746 30.699l-10.723-10.738-11.129 11.133 10.734 10.723c-8.8945 6.9336-19.504 11.34-30.699 12.742v-15.199h-15.742v15.199c-11.195-1.4023-21.805-5.8086-30.703-12.742l10.723-10.723-11.133-11.133-10.695 10.738c-6.9414-8.8984-11.344-19.504-12.746-30.699h15.191v-15.746h-15.191c1.4023-11.195 5.8047-21.805 12.746-30.699l10.723 10.715 11.133-11.133-10.75-10.699c8.8984-6.9375 19.508-11.34 30.703-12.742v15.199zm39.359-15.594v-18.754c26.926 15.535 44.484 43.32 46.957 74.305l15.695-1.1953h0.003906c-0.42578-5.0977-1.2109-10.16-2.3555-15.145h63.805-0.003906c-7.2969 9.0469-11.93 19.953-13.379 31.488h-79.629c2.7539-27.391-9.043-54.219-31.094-70.699zm173.18 125.8c-12.523 0-24.539-4.9766-33.395-13.832-8.8594-8.8594-13.836-20.871-13.836-33.398s4.9766-24.539 13.836-33.398c8.8555-8.8594 20.871-13.836 33.395-13.836 12.527 0 24.543 4.9766 33.398 13.836 8.8594 8.8594 13.836 20.871 13.836 33.398-0.015624 12.523-4.9961 24.527-13.852 33.383-8.8516 8.8516-20.859 13.836-33.383 13.848zm102.34-121.15v10.941h-15.746v-20.664l9.5078 2.0625h0.003906c3.6094 0.78516 6.1953 3.9648 6.2344 7.6602zm-86.594-59.906h15.742v47.23h-15.742zm-15.742 31.379-0.003906 23.723c0 2.0898 0.83203 4.0938 2.3086 5.5664 1.4766 1.4766 3.4766 2.3086 5.5664 2.3086h31.488c2.0859 0 4.0898-0.83203 5.5664-2.3086 1.4766-1.4727 2.3047-3.4766 2.3047-5.5664v-13.461l23.617 5.125v31.953c0 2.0898 0.82812 4.0898 2.3047 5.5664 1.4766 1.4766 3.4766 2.3047 5.5664 2.3047h23.617v31.488c0 2.0898-0.83203 4.0898-2.3086 5.5664-1.4766 1.4766-3.4766 2.3086-5.5664 2.3086h-32.031c-2.5781-20.719-15.273-38.805-33.883-48.27-18.609-9.4648-40.703-9.0781-58.965 1.0352h-32.559v-61.07zm-78.723 47.34h-38.793c-6.7539-17.363-17.777-32.742-32.055-44.711v-81.242h70.848zm-157.44-125.95c0.015625-10.434 4.1641-20.438 11.543-27.816s17.383-11.531 27.82-11.543h78.719v15.742h15.742v-15.742h59.043c6.5195 0 11.809 5.2891 11.809 11.809 0 6.5234-5.2891 11.809-11.809 11.809h-114.14c-4.3477 0-7.875 3.5234-7.875 7.8711v78.012c-16.707-9.8125-35.727-15-55.102-15.035-5.2734 0.042969-10.531 0.45703-15.746 1.2422zm-15.742 76.359c10.105-3.6133 20.754-5.4766 31.488-5.5078 10.738 0.023438 21.391 1.9023 31.488 5.5547v16.809c-20.066-8.8281-42.914-8.8281-62.977 0z"/>
  <path d="m242.56 557.44c0 8.3516 3.3164 16.363 9.2227 22.266 5.9062 5.9062 13.914 9.2227 22.266 9.2227s16.359-3.3164 22.266-9.2227c5.9023-5.9023 9.2227-13.914 9.2227-22.266s-3.3203-16.359-9.2227-22.266c-5.9062-5.9023-13.914-9.2227-22.266-9.2227s-16.359 3.3203-22.266 9.2227c-5.9062 5.9062-9.2227 13.914-9.2227 22.266zm31.488-15.742c4.1758 0 8.1797 1.6602 11.133 4.6094 2.9531 2.9531 4.6094 6.957 4.6094 11.133s-1.6562 8.1797-4.6094 11.133c-2.9531 2.9531-6.957 4.6133-11.133 4.6133s-8.1797-1.6602-11.133-4.6133c-2.9531-2.9531-4.6133-6.957-4.6133-11.133s1.6602-8.1797 4.6133-11.133c2.9531-2.9492 6.957-4.6094 11.133-4.6094z"/>
  <path d="m494.46 549.57c-6.2617 0-12.27 2.4883-16.695 6.918-4.4297 4.4297-6.918 10.434-6.918 16.699 0 6.2617 2.4883 12.27 6.918 16.699 4.4258 4.4297 10.434 6.918 16.695 6.918 6.2656 0 12.273-2.4883 16.699-6.918 4.4297-4.4297 6.918-10.438 6.918-16.699 0-6.2656-2.4883-12.27-6.918-16.699-4.4258-4.4297-10.434-6.918-16.699-6.918zm0 31.488c-3.1836 0-6.0508-1.918-7.2695-4.8594-1.2188-2.9414-0.54688-6.3281 1.7031-8.5781 2.2539-2.25 5.6406-2.9258 8.582-1.707 2.9414 1.2188 4.8594 4.0898 4.8594 7.2734 0 2.0859-0.83203 4.0898-2.3086 5.5664-1.4727 1.4766-3.4766 2.3047-5.5664 2.3047z"/>
  <path d="m297.66 376.38h15.742v15.742h-15.742z"/>
  <path d="m297.66 407.87h15.742v15.742h-15.742z"/>
  <path d="m360.64 455.1h15.742v15.742h-15.742z"/>
 </g>
</svg>