<?xml version="1.0" encoding="UTF-8"?>
<!-- The Best Svg Icon site in the world: iconSvg.co, Visit us! https://iconsvg.co -->
<svg fill="#000000" width="800px" height="800px" version="1.1" viewBox="144 144 512 512" xmlns="http://www.w3.org/2000/svg">
 <g>
  <path d="m519.05 478.72h-161.28c-11.445 0-20.754-9.3086-20.754-20.758v-163.16c0-11.508 9.2461-20.754 20.617-20.754h139.18c10.324 0 19.164 7.7109 20.562 17.941l22.246 163.16c0.80859 5.9492-0.99219 11.945-4.9336 16.465-3.9453 4.5156-9.6406 7.1055-15.637 7.1055zm-161.41-188.93c-2.6445 0-4.875 2.2305-4.875 4.8672v163.3c0 2.7695 2.2461 5.0156 5.0117 5.0156h161.28c1.9844 0 3.2148-1.0781 3.7734-1.7148 0.5625-0.64453 1.4609-2.0156 1.1914-3.9805l-22.238-163.16c-0.33984-2.4609-2.4766-4.332-4.9648-4.332z"/>
  <path d="m338.72 461.95-85.031-67.422-78.684-9.832 64.336-117.96 40.707 71.227 67.688 41.711-8.2578 13.406-71.117-43.816-28.695-50.238-39.77 72.906 60.125 7.5117 1.7227 1.375 86.754 68.797z"/>
  <path d="m530.29 437.91-3.4766-15.359c21.418-4.8359 36.379-23.625 36.379-45.695 0-25.867-21.047-46.918-46.926-46.918-0.35547 0-0.69922-0.039063-1.0625 0.023437l-1.668 0.31641-1.6523-0.39844c1.4609 0.35547 2.5156 0.11719 2.7148 0.078125l-3.7344-15.297c0.40625-0.10156 1.3359-0.32422 2.5352-0.33203 0.95312-0.10938 1.8828-0.12891 2.8672-0.12891 34.555 0 62.668 28.113 62.668 62.66 0.003906 29.469-20 54.578-48.645 61.051z"/>
  <path d="m533.94 469.13-2.9062-15.469c36.785-6.9102 63.484-39.215 63.484-76.812 0-43.141-35.102-78.242-78.25-78.242-1.6992 0-3.3984 0.039063-5.0664 0.15234l-0.31641 0.16016-2.3281 0.078125v-7.9336l-3.0508-7.0586 1.293-0.64453 1.4375-0.14453c2.6289-0.26172 5.3281-0.35547 8.0352-0.35547 51.828 0 93.996 42.168 93.996 93.988-0.003906 45.164-32.102 83.977-76.328 92.281z"/>
  <path d="m217.52 379.08 35.668-64.105 13.762 7.6562-35.668 64.105z"/>
  <path d="m534.62 525.95h-174.79c-16.918 0-30.688-13.766-30.688-30.688v-1.5977c0-16.922 13.77-30.688 30.691-30.688h174.79c16.918 0 30.688 13.766 30.688 30.688v1.5977c0 16.922-13.77 30.688-30.691 30.688zm-174.78-47.23c-8.2422 0-14.945 6.7031-14.945 14.945v1.5977c0 8.2422 6.7031 14.945 14.945 14.945h174.79c8.2383 0 14.941-6.7031 14.941-14.945v-1.5977c0-8.2422-6.7031-14.945-14.945-14.945z"/>
 </g>
</svg>