<?xml version="1.0" encoding="UTF-8"?>
<!-- The Best Svg Icon site in the world: iconSvg.co, Visit us! https://iconsvg.co -->
<svg fill="#000000" width="800px" height="800px" version="1.1" viewBox="144 144 512 512" xmlns="http://www.w3.org/2000/svg">
 <g>
  <path d="m538.18 556.33c0-18.613-18.309-35.09-45.914-41.84v-97.898c5.918-7.2578 9.1875-16.168 9.1875-25.352 0-22.324-18.52-40.492-41.355-40.711l-45.219-43.949 26.605-38.426 9.2617 6.0547c0.84766 0.55469 1.8047 0.82031 2.75 0.82031 1.5977 0 3.1719-0.76172 4.1484-2.168l16.762-24.215c0.77344-1.1211 1.0625-2.5 0.80078-3.8359-0.26172-1.332-1.0469-2.5078-2.1875-3.25l-64.652-42.262c-2.2773-1.5-5.3438-0.89453-6.8984 1.3477l-16.762 24.215c-0.77344 1.1211-1.0625 2.5-0.80078 3.8359 0.26172 1.332 1.0469 2.5078 2.1875 3.25l8.8047 5.7578-73.855 106.75-9.0234-5.8906c-2.2773-1.4922-5.3398-0.89453-6.8867 1.3438l-18.273 26.324c-0.77734 1.1211-1.0664 2.5-0.80859 3.8359 0.26172 1.3359 1.0547 2.5078 2.1875 3.2539l64.645 42.207c0.85156 0.55469 1.8047 0.82031 2.75 0.82031 1.5977 0 3.168-0.75781 4.1445-2.1641l18.273-26.324c0.77734-1.1211 1.0664-2.5039 0.80859-3.8398-0.26172-1.3359-1.0547-2.5078-2.1875-3.2539l-9.0664-5.918 15.305-22.105 35.262 34.266c-0.15234 1.3867-0.25391 2.793-0.25391 4.2227 0 13.523 7 26.094 18.367 33.602v89.648c-27.332 6.6914-45.5 22.898-45.875 41.262h-36.184c0.50781-1.6211 0.85938-3.2695 0.85938-4.957 0-12.629-14.266-22.719-33.289-24.262v-27.074c6.3555-1.1055 17.023-4.0469 25.023-11.82 11.926-11.59 12.867-29.016 12.898-29.75 0.0625-1.4141-0.46875-2.7891-1.4648-3.7891-1.0039-1-2.3828-1.5039-3.7891-1.4766-0.75391 0.03125-18.547 0.94141-30.426 12.48-3.1289 3.043-5.4844 6.4844-7.2852 9.9219-1.7969-3.4375-4.1562-6.8789-7.2852-9.918-11.871-11.543-29.672-12.449-30.426-12.48-1.4102-0.027344-2.7852 0.47656-3.7891 1.4766-1 1-1.5312 2.375-1.4648 3.7891 0.035156 0.73438 0.97266 18.16 12.898 29.75 8 7.7773 18.676 10.719 25.027 11.824v27.066c-19.016 1.5234-33.285 11.625-33.285 24.27 0 1.6875 0.35156 3.3359 0.85938 4.957h-12.441c-2.7852 0-5.0391 2.2539-5.0391 5.0391v35.695c0 2.7812 2.2539 5.0391 5.0391 5.0391h266.29c2.7852 0 5.0391-2.2539 5.0391-5.0391v-35.695c0-0.53125-0.14844-1.0156-0.30078-1.4961 0.11328-0.99609 0.30469-2.0312 0.30469-2.9688zm-63.539-44.715c-0.86328-0.074219-1.7227-0.14062-2.5938-0.19141-2.3047-0.14453-4.6172-0.23828-6.9336-0.25391-0.55469-0.003907-1.1055-0.003907-1.6602 0-2.3398 0.015625-4.6719 0.10938-6.9922 0.25391-0.85156 0.054687-1.6875 0.11719-2.5312 0.1875-2.2891 0.19141-4.5508 0.4375-6.7852 0.75781-0.26172 0.039062-0.53516 0.050781-0.79297 0.089843l0.003906-82.641c0.47266 0.15625 0.96094 0.24609 1.4375 0.38281 0.72266 0.21094 1.4453 0.41016 2.1758 0.58203 0.79688 0.18359 1.5938 0.33203 2.3984 0.46875 0.97266 0.17188 1.9375 0.33203 2.918 0.4375 0.35547 0.035156 0.71094 0.042969 1.0664 0.070312 1.1094 0.089844 2.2148 0.21484 3.3281 0.21484 4.8477 0 9.5898-0.86719 14.062-2.4336 0.19141-0.066406 0.375-0.14844 0.56641-0.21484 1.1406-0.41797 2.2617-0.86719 3.3594-1.3828 0.50781-0.23438 1-0.5 1.4961-0.75391 0.78906-0.40625 1.5664-0.82031 2.3281-1.2773 0.22656-0.13672 0.47266-0.24219 0.69922-0.38281v86.938c-0.30859-0.046875-0.63281-0.0625-0.94141-0.10547-2.1797-0.31641-4.3828-0.55859-6.6094-0.74609zm-67.68-301.2 56.215 36.746-11.027 15.926-8.6562-5.6562c-0.18359-0.16406-0.3125-0.37891-0.51953-0.51562l-38.109-24.984c-0.3125-0.20312-0.66016-0.27734-0.99609-0.40234l-7.9336-5.1875zm-52.668 194-56.203-36.699 12.527-18.047 23.07 15.066 24.066 15.723c0.011719 0.007812 0.023438 0.007812 0.035157 0.015625l9.0273 5.8945zm-8.1484-43.574-16.66-10.883 73.852-106.74 29.699 19.418-28.73 41.504c-0.054688 0.070313-0.14453 0.10547-0.19531 0.18359l-16.039 23.266-28.91 41.762zm49.824-26.965 13.09-18.902 38.414 37.332c-0.050781 0.015625-0.097656 0.039062-0.14844 0.054688-1.3438 0.40234-2.6523 0.87891-3.9375 1.4102-0.30859 0.12891-0.60938 0.27734-0.91406 0.41016-0.99219 0.4375-1.9648 0.91016-2.918 1.4219-0.34766 0.1875-0.69141 0.375-1.0312 0.57031-1.0156 0.58203-2 1.2031-2.9609 1.8672-0.17969 0.125-0.36719 0.23438-0.54297 0.35938-1.1484 0.82031-2.25 1.6953-3.3047 2.625-0.16797 0.14844-0.32031 0.30469-0.48438 0.45312-0.875 0.79297-1.7109 1.6211-2.5156 2.4844-0.22656 0.24219-0.44922 0.48828-0.66797 0.73828-0.79688 0.90234-1.5586 1.8359-2.2734 2.8047-0.11328 0.15234-0.23438 0.29688-0.34375 0.45312-0.83203 1.1602-1.6016 2.3594-2.3086 3.6055-0.082031 0.14063-0.14844 0.28906-0.22656 0.43359-0.58984 1.0703-1.1289 2.1758-1.6211 3.3047-0.066406 0.15625-0.16016 0.30078-0.22656 0.45703l-32.305-31.395zm32.02 57.355c0-1.7695 0.15625-3.4961 0.47656-5.2031 2.4648-14.168 15.012-24.836 29.836-25.363 0.21094-0.007813 0.42969-0.03125 0.64062-0.0625 0.13672-0.023437 0.26172-0.03125 0.39063-0.03125 0.11328 0 0.22656 0.003906 0.34766 0.003906 17.477 0 31.695 13.75 31.695 30.656 0 7.3594-2.8047 14.527-7.8828 20.18-4.8398 5.3438-11.473 8.7188-18.516 9.8789-7.125 1.1719-14.668 0.078125-21.203-3.5781-9.7383-5.4375-15.785-15.586-15.785-26.48zm14.371 132.18c10.391-2.1992 22.051-2.7461 33.078-1.6484 3.6836 0.36719 7.3008 0.92187 10.781 1.6562 24.328 4.9531 41.418 18.188 41.871 32.32l-127.64 0.003906c0.45312-14.133 17.543-27.367 41.906-32.332zm-111.3-51.094c5.3008-5.1484 12.48-7.5703 17.574-8.6953-1.168 4.9023-3.6445 11.727-8.8477 16.781-5.3047 5.1523-12.5 7.5742-17.598 8.6953 1.1562-4.8828 3.6289-11.688 8.8711-16.781zm-46.203-8.7148c5.082 1.1133 12.25 3.5234 17.586 8.7148 5.2109 5.0586 7.6836 11.895 8.8516 16.797-5.0781-1.1133-12.246-3.5234-17.578-8.7148-5.2109-5.0586-7.6914-11.898-8.8594-16.797zm3.6523 87.184c0-6.5625 10.781-13.773 26.402-14.312 0.57422 0.22656 1.1914 0.37109 1.8438 0.37109 0.64844 0 1.2578-0.14453 1.8281-0.36719 15.637 0.55859 26.422 7.7578 26.422 14.309 0 1.6562-0.65625 3.3203-1.9531 4.957h-52.594c-1.2969-1.6367-1.9492-3.3008-1.9492-4.957zm239.59 40.652h-256.21v-25.617h256.21z"/>
  <path d="m459.68 405.2c7.8438 0 14.223-6.2617 14.223-13.965 0-7.6992-6.3828-13.961-14.223-13.961-7.8438 0-14.219 6.2617-14.219 13.961 0 7.7031 6.375 13.965 14.219 13.965zm0-17.848c2.25 0 4.1484 1.7773 4.1484 3.8828s-1.8984 3.8867-4.1484 3.8867c-2.2422 0-4.1445-1.7812-4.1445-3.8867s1.9023-3.8828 4.1445-3.8828z"/>
 </g>
</svg>