<?xml version="1.0" encoding="UTF-8"?>
<!-- The Best Svg Icon site in the world: iconSvg.co, Visit us! https://iconsvg.co -->
<svg fill="#000000" width="800px" height="800px" version="1.1" viewBox="144 144 512 512" xmlns="http://www.w3.org/2000/svg">
 <g>
  <path d="m291.2 456.18c-29.859 0-54.148 24.293-54.148 54.152s24.289 54.152 54.148 54.152 54.156-24.293 54.156-54.152c-0.003907-29.859-24.297-54.152-54.156-54.152zm0 98.227c-24.301 0-44.074-19.773-44.074-44.074s19.773-44.074 44.074-44.074c24.305 0 44.078 19.773 44.078 44.074s-19.773 44.074-44.078 44.074z"/>
  <path d="m520.63 524.5c-12.645 0-22.926 10.285-22.926 22.926 0 12.645 10.281 22.93 22.926 22.93 12.645 0 22.934-10.285 22.934-22.93 0-12.637-10.289-22.926-22.934-22.926zm0 35.781c-7.0859 0-12.852-5.7656-12.852-12.855 0-7.0859 5.7656-12.852 12.852-12.852 7.0898 0 12.855 5.7656 12.855 12.852 0 7.0898-5.7656 12.855-12.855 12.855z"/>
  <path d="m212.31 405.04h6.9766v48.492c0 0.25781 0.10938 0.47656 0.14453 0.72656-12.125 15.484-19.43 34.926-19.43 56.074 0.003906 50.285 40.914 91.195 91.199 91.195 31.078 0 58.547-15.652 75.016-39.461h34.414v1.6914c0 7.6328 6.2031 13.836 13.836 13.836h11.375c7.6328 0 13.836-6.207 13.836-13.836v-1.6914h28.934c6.4023 22.73 27.273 39.461 52.023 39.461 24.754 0 45.629-16.73 52.031-39.461h23.82c2.7852 0 5.0391-2.2539 5.0391-5.0391v-109.34c0-18.895-13.535-34.809-31.938-37.797l-128.09-27.344-26.387-142.02h3.5117c2.7852 0 5.0391-2.2539 5.0391-5.0391v-31.973c0-2.7812-2.2539-5.0391-5.0391-5.0391l-202.49 0.003906c-2.7852 0-5.0391 2.2539-5.0391 5.0391v31.973c0 2.7812 2.2539 5.0391 5.0391 5.0391h3.3086c-0.039062 0.25781-0.15625 0.49609-0.15625 0.76953v124.69h-6.9766c-7.6289 0.003907-13.832 6.2109-13.832 13.84v11.371c0 7.6289 6.2031 13.836 13.832 13.836zm78.891 186.41c-44.727 0-81.117-36.391-81.117-81.117s36.387-81.117 81.117-81.117c44.734 0 81.121 36.391 81.121 81.117s-36.391 81.117-81.121 81.117zm81.027-39.461c6.4531-12.504 10.168-26.645 10.168-41.656 0-50.285-40.91-91.195-91.199-91.195-23.871 0-45.562 9.293-61.836 24.359l0.003906-38.457h69.695c56.004 0 101.57 45.566 101.57 101.57v45.379zm148.41 39.461c-24.27 0-44.016-19.742-44.016-44.016 0-24.27 19.742-44.016 44.016-44.016 24.27 0 44.02 19.742 44.02 44.016 0 24.273-19.75 44.016-44.02 44.016zm70.812-143.76v104.3h-16.949c0.125-1.5039 0.23047-3.0156 0.23047-4.5547 0-29.824-24.266-54.09-54.094-54.09-29.824 0-54.09 24.266-54.09 54.09 0 1.5352 0.10547 3.0469 0.23047 4.5547h-27.102v-51.223c0-44.734-21.926-84.426-55.574-108.95h52.523l131.11 27.98c13.742 2.2422 23.719 13.973 23.719 27.898zm-370.27-239.14h192.41v21.898h-192.41zm8.0352 31.973h175.65l26.234 141.21h-62.898c-0.042968 0-0.078124 0.023437-0.12109 0.023437-18.855-10.047-40.352-15.766-63.168-15.766h-75.543v-124.7c0-0.27344-0.11328-0.51172-0.15625-0.77344zm-20.656 139.3c0-2.0742 1.6875-3.7617 3.7578-3.7617h92.598c68.758 0 124.69 55.938 124.69 124.7v62.992c0 2.0742-1.6875 3.7617-3.7578 3.7617h-11.375c-2.0703 0-3.7578-1.6875-3.7578-3.7617l-0.003906-57.145c0-61.562-50.086-111.65-111.64-111.65h-86.75c-2.0703 0-3.7578-1.6875-3.7578-3.7617z"/>
  <path d="m494.28 469.27c2.7852 0 5.0391-2.2539 5.0391-5.0391v-21.621c0-2.7812-2.2539-5.0391-5.0391-5.0391s-5.0391 2.2539-5.0391 5.0391v21.621c0 2.7812 2.2539 5.0391 5.0391 5.0391z"/>
  <path d="m520.63 469.27c2.7852 0 5.0391-2.2539 5.0391-5.0391v-21.621c0-2.7812-2.2539-5.0391-5.0391-5.0391-2.7852 0-5.0391 2.2539-5.0391 5.0391v21.621c0 2.7812 2.2539 5.0391 5.0391 5.0391z"/>
  <path d="m546.99 469.27c2.7852 0 5.0391-2.2539 5.0391-5.0391v-21.621c0-2.7812-2.2539-5.0391-5.0391-5.0391-2.7852 0-5.0391 2.2539-5.0391 5.0391l0.003906 21.621c0 2.7812 2.2539 5.0391 5.0352 5.0391z"/>
 </g>
</svg>