<?xml version="1.0" encoding="UTF-8"?>
<!-- The Best Svg Icon site in the world: iconSvg.co, Visit us! https://iconsvg.co -->
<svg fill="#000000" width="800px" height="800px" version="1.1" viewBox="144 144 512 512" xmlns="http://www.w3.org/2000/svg">
 <g>
  <path d="m438.57 354.12h-9.9688c-19.652 0-35.645 15.988-35.645 35.641v16.48c0 2.7852 2.2539 5.0391 5.0391 5.0391h71.18c2.7812 0 5.0391-2.2539 5.0391-5.0391v-16.48c0-19.652-15.992-35.641-35.645-35.641zm25.566 47.082h-61.105l0.003906-11.441c0-14.098 11.469-25.562 25.566-25.562h9.9688c14.098 0 25.57 11.469 25.57 25.562z"/>
  <path d="m596.48 591.45h-19.141v-183.18h13.262c2.7812 0 5.0391-2.2539 5.0391-5.0391v-17.453c0-1.3477-0.54297-2.6406-1.5039-3.5898l-57.895-57.02c-0.40234-0.39453-0.86719-0.71875-1.3789-0.96094l-97.738-46.312c-1.3672-0.64844-2.9453-0.64844-4.3164 0l-97.738 46.312c-0.47266 0.22266-0.90625 0.52344-1.293 0.88281l-5.6875 5.3438c-1.3711-9.8828-5.5859-19.332-12.34-27.34 2.5781-5.7812 3.8828-11.836 3.8828-18.043 0-10.742-3.9648-21.176-11.23-29.73 2.0039-4.7344 3.0117-9.6758 3.0117-14.742 0-23.34-21.406-42.332-47.719-42.332s-47.715 18.992-47.715 42.332c0 5.0625 1.0117 10.008 3.0117 14.742-7.2695 8.5547-11.234 18.992-11.234 29.73 0 6.2031 1.3047 12.262 3.8828 18.043-8.3203 9.8633-12.867 21.91-12.867 34.281 0 30.105 26.395 54.812 59.805 57.133l-0.003906 196.94h-55.066c-2.7812 0-5.0391 2.2539-5.0391 5.0391s2.2539 5.0391 5.0391 5.0391h392.97c2.7812 0 5.0391-2.2539 5.0391-5.0391s-2.2578-5.0391-5.0391-5.0391zm-94.051-146.95-63.137 129.08v-129.08zm-73.211 130.04-66.863-130.04h66.863zm-70.098-114.29 67.461 131.2h-67.461zm148.92-4.2852v135.49h-66.27zm5.0391-21.531h-159c-2.7812 0-5.0391 2.2539-5.0391 5.0391l0.003906 151.98h-49.145l-0.003906-185.06 52.078-48.941 82.824-39.246 82.766 39.223 49.699 48.949v185.07h-49.145v-151.98c0-2.7852-2.2578-5.0352-5.0391-5.0352zm-172.98-101.46 94.867-44.949 94.812 44.926 55.785 54.941v10.301h-12.246l-49.293-48.547c-0.40234-0.39453-0.86719-0.71875-1.3789-0.96094l-85.695-40.609c-1.3672-0.64844-2.9453-0.64844-4.3164 0l-85.695 40.609c-0.47656 0.22266-0.91016 0.52344-1.293 0.87891l-51.738 48.629h-12.312v-10.234zm-131.25 4.4062c0-10.898 4.4258-21.543 12.461-29.977 1.5039-1.5742 1.8203-3.9414 0.78906-5.8594-2.8281-5.2539-4.2617-10.805-4.2617-16.488 0-9.2188 3.8203-18.215 10.762-25.312 1.5312-1.5703 1.875-3.9453 0.84766-5.8828-2.25-4.2344-3.3867-8.7031-3.3867-13.273 0-17.785 16.887-32.254 37.641-32.254 20.758 0 37.645 14.469 37.645 32.254 0 4.5703-1.1406 9.0391-3.3867 13.273-1.0273 1.9375-0.67969 4.3164 0.84766 5.8789 6.9375 7.1055 10.758 16.098 10.758 25.32 0 5.6836-1.4336 11.23-4.2617 16.488-1.0312 1.918-0.71484 4.2852 0.78906 5.8594 8.0352 8.4375 12.461 19.078 12.461 29.977 0 0.69922-0.035157 1.3984-0.070313 2.0938l-45.367 42.637c-0.58594 0.55078-0.97266 1.2461-1.2383 1.9883-2.7031 0.34766-5.4375 0.57031-8.1758 0.57031-30.246-0.003907-54.852-21.215-54.852-47.293zm59.805 57.168c0.96094-0.066407 1.9141-0.16797 2.8711-0.26953v8.9531c0 2.7852 2.2539 5.0391 5.0391 5.0391h13.262v183.18h-21.172z"/>
 </g>
</svg>