<?xml version="1.0" encoding="UTF-8"?>
<!-- The Best Svg Icon site in the world: iconSvg.co, Visit us! https://iconsvg.co -->
<svg fill="#000000" width="800px" height="800px" version="1.1" viewBox="144 144 512 512" xmlns="http://www.w3.org/2000/svg">
 <g>
  <path d="m447.23 337.02h-7.8711v-39.359h-15.746v40.148-0.003906c-5.7266 1.2148-11.109 3.7031-15.742 7.2812v-63.172h-15.746v47.438c-4.6328-3.5781-10.016-6.0664-15.742-7.2812v-24.41h-15.746v23.617l-7.8711-0.003906c-4.3477 0-7.8711 3.5234-7.8711 7.8711v15.746c0.027344 8.543 2.8672 16.844 8.0781 23.617h-0.20703c-4.3477 0-7.8711 3.5234-7.8711 7.8711v15.742c0.027344 8.5469 2.8672 16.844 8.0781 23.617h-0.20703c-4.3477 0-7.8711 3.5234-7.8711 7.8711v15.746c0.011719 10.434 4.1641 20.438 11.543 27.816 7.3789 7.3789 17.383 11.531 27.816 11.543h7.8711v39.359h15.742l0.003906-23.617h7.8711c10.434-0.011719 20.441-4.1602 27.82-11.539 7.375-7.3789 11.527-17.383 11.539-27.82v-15.742c0-2.0898-0.82812-4.0898-2.3047-5.5664-1.4766-1.4766-3.4766-2.3047-5.5664-2.3047h-0.20312c5.207-6.7734 8.0469-15.074 8.0742-23.617v-15.746c0-2.0859-0.82812-4.0898-2.3047-5.5664-1.4766-1.4766-3.4766-2.3047-5.5664-2.3047h-0.20312c5.207-6.7734 8.0469-15.07 8.0742-23.617v-15.742c0-2.0898-0.82812-4.0898-2.3047-5.5664s-3.4766-2.3047-5.5664-2.3047zm-15.742 15.742h7.8711v7.8711c0 6.2656-2.4883 12.273-6.918 16.699-4.4297 4.4297-10.434 6.918-16.699 6.918h-7.8711v-7.8711c0-6.2656 2.4883-12.27 6.918-16.699 4.4258-4.4297 10.434-6.918 16.699-6.918zm-70.848 31.488h7.8711c6.2617 0 12.27 2.4883 16.699 6.918 4.4258 4.4297 6.9141 10.434 6.9141 16.699v7.8711h-7.8711c-6.2617 0-12.27-2.4883-16.699-6.918-4.4297-4.4258-6.918-10.434-6.918-16.699zm47.23 47.23v-7.8711c0-6.2617 2.4883-12.27 6.918-16.699 4.4258-4.4258 10.434-6.9141 16.699-6.9141h7.8711v7.8711c0 6.2617-2.4883 12.27-6.918 16.699-4.4297 4.4297-10.434 6.918-16.699 6.918zm-47.234-94.461h7.875c6.2617 0 12.27 2.4883 16.699 6.9141 4.4258 4.4297 6.9141 10.438 6.9141 16.699v7.8711l-7.8711 0.003907c-6.2617 0-12.27-2.4883-16.699-6.918-4.4297-4.4297-6.918-10.438-6.918-16.699zm0 102.34v-7.8711h7.875c6.2617 0 12.27 2.4883 16.699 6.9141 4.4258 4.4297 6.9141 10.438 6.9141 16.699v7.8711l-7.8711 0.003906c-6.2617 0-12.27-2.4883-16.699-6.918-4.4297-4.4297-6.918-10.438-6.918-16.699zm78.719 15.742h0.003906c0 6.2656-2.4883 12.27-6.918 16.699-4.4297 4.4297-10.434 6.918-16.699 6.918h-7.8711v-7.8711c0-6.2656 2.4883-12.27 6.918-16.699 4.4258-4.4297 10.434-6.918 16.699-6.918h7.8711z"/>
  <path d="m588.61 423.41 15.742 0.41016c0.14062-5.2461 0.23828-10.539 0.29297-15.871l-15.742-0.15625c-0.066406 5.2422-0.16406 10.449-0.29297 15.617z"/>
  <path d="m578.96 259.35c5.9922 44.043 9.3203 88.406 9.9648 132.85l15.742-0.14062 0.003906-0.003906c-0.64453-45.094-4.0078-90.109-10.07-134.8z"/>
  <path d="m211.07 400c0-12.258 0.33203-25.371 0.96875-38.988l-15.742-0.73828c-0.64062 13.859-0.97266 27.223-0.97266 39.727 0.51953 47.742 4.0039 95.406 10.434 142.72l15.617-2.0469c-6.3516-46.633-9.793-93.613-10.305-140.67z"/>
  <path d="m571.84 173.06c-4.5-4.293-10.48-6.6875-16.699-6.6875s-12.199 2.3945-16.699 6.6875l-14.527 14.523c-40.332-11.191-82.059-16.539-123.91-15.875-41.852-0.66406-83.582 4.6836-123.91 15.875l-14.516-14.523c-4.5-4.293-10.48-6.6875-16.703-6.6875-6.2188 0-12.199 2.3945-16.699 6.6875-4.4258 4.4297-6.9141 10.438-6.9141 16.699s2.4883 12.266 6.9141 16.695l14.719 14.719c-9.6914 59.141-15.062 118.91-16.074 178.82 1.0117 59.918 6.3828 119.68 16.074 178.82l-14.719 14.719c-4.4258 4.4297-6.9141 10.434-6.9141 16.699 0 6.2617 2.4883 12.266 6.9141 16.695 4.5 4.293 10.48 6.6875 16.699 6.6875 6.2227 0 12.203-2.3945 16.703-6.6875l14.656-14.648c40.406 10.582 82 15.961 123.77 16.004 41.773-0.042968 83.367-5.418 123.78-16.004l14.648 14.648h0.003907c4.4141 4.4883 10.438 7.0273 16.734 7.0547 6.2969 0.027344 12.344-2.4609 16.797-6.9141 4.4531-4.4531 6.9453-10.5 6.918-16.797-0.023437-6.293-2.5625-12.32-7.0508-16.738l-14.672-14.672c10.129-59.098 15.488-118.91 16.027-178.87-0.53906-59.957-5.8984-119.77-16.027-178.87l14.672-14.672c4.4297-4.4258 6.918-10.434 6.918-16.695 0.003906-6.2617-2.4844-12.27-6.9102-16.699zm-11.137 22.262-17.586 17.586c-1.8477 1.8438-2.6641 4.4844-2.1758 7.0469 10.457 59.457 15.977 119.68 16.5 180.04-0.53906 60.363-6.0664 120.58-16.531 180.04-0.48828 2.5625 0.32812 5.2031 2.1758 7.0469l17.617 17.586c3.0703 3.0742 3.0703 8.0547 0 11.129-3.1094 2.9883-8.0234 2.9883-11.133 0l-17.934-17.934v0.003906c-1.4766-1.4805-3.4805-2.3086-5.5703-2.3086-0.78516 0-1.5625 0.11719-2.3086 0.34766-40.332 11-81.949 16.594-123.75 16.633-41.809-0.039063-83.426-5.6328-123.76-16.633-2.7852-0.85547-5.8125-0.10156-7.8711 1.9609l-17.941 17.93c-3.1094 2.9883-8.0195 2.9883-11.129 0-3.0742-3.0742-3.0742-8.0547 0-11.129l17.586-17.586c1.8125-1.8164 2.6289-4.4023 2.1875-6.9297-9.9297-59.562-15.449-119.78-16.516-180.16 1.0742-60.379 6.5977-120.59 16.531-180.16 0.44141-2.5273-0.375-5.1133-2.1875-6.9297l-17.602-17.586c-3.0742-3.0742-3.0742-8.0547 0-11.129 3.1094-2.9844 8.0195-2.9844 11.129 0l17.934 17.934c2.1523 2.1523 5.3516 2.8711 8.2188 1.8477 0.46484-0.16406 47.215-16.523 123.42-16.523 76.199 0 122.95 16.359 123.42 16.531 2.8633 1.0234 6.0664 0.30469 8.2148-1.8477l17.934-17.941c3.1094-2.9844 8.0234-2.9844 11.133 0 3.0703 3.0742 3.0703 8.0547 0 11.129z"/>
  <path d="m305.54 400c-0.042968-24.387 9.3867-47.836 26.301-65.402l-11.344-10.895c-24.039 25.047-34.867 59.957-29.23 94.211 5.6406 34.258 27.094 63.852 57.891 79.871l7.2734-13.965c-15.355-7.957-28.23-19.984-37.207-34.77-8.9766-14.785-13.711-31.754-13.684-49.051z"/>
  <path d="m467.82 313.12-9.6992 12.406c22.938 17.902 36.348 45.375 36.348 74.473 0 29.094-13.41 56.566-36.348 74.469l9.6992 12.406c26.754-20.887 42.395-52.934 42.395-86.875 0-33.945-15.641-65.992-42.395-86.879z"/>
 </g>
</svg>