<?xml version="1.0" encoding="UTF-8"?>
<!-- The Best Svg Icon site in the world: iconSvg.co, Visit us! https://iconsvg.co -->
<svg width="800px" height="800px" version="1.1" viewBox="144 144 512 512" xmlns="http://www.w3.org/2000/svg">
 <defs>
  <clipPath id="b">
   <path d="m148.09 471h503.81v75h-503.81z"/>
  </clipPath>
  <clipPath id="a">
   <path d="m148.09 321h503.81v75h-503.81z"/>
  </clipPath>
 </defs>
 <path d="m444.24 244.61-44.238-51.879-44.242 51.879v55.969h88.48z"/>
 <path d="m193.83 416.21h88.559v34.715h-88.559z"/>
 <path d="m303.17 416.21h31.723v34.715h-31.723z"/>
 <g clip-path="url(#b)">
  <path d="m650.88 471.71h-501.76c-0.28516 0-0.55859 0.12109-0.75391 0.32812-0.19531 0.21094-0.29297 0.49219-0.26953 0.77734v71.793c-0.023438 0.28125 0.074219 0.5625 0.26953 0.77344 0.19531 0.21094 0.46875 0.32813 0.75391 0.32813h501.76c0.28516 0 0.55859-0.11719 0.75391-0.32813 0.19531-0.21094 0.29297-0.49219 0.26953-0.77344v-71.793c0.023437-0.28516-0.074219-0.56641-0.26953-0.77734-0.19531-0.20703-0.46875-0.32812-0.75391-0.32812zm-412.81 52.273c-4.0508 0-7.9336-1.6094-10.797-4.4727-2.8633-2.8672-4.4727-6.75-4.4727-10.801 0-4.0508 1.6094-7.9336 4.4727-10.797 2.8633-2.8672 6.7461-4.4766 10.797-4.4766 4.0508 0 7.9336 1.6094 10.801 4.4766 2.8633 2.8633 4.4727 6.7461 4.4727 10.797 0 4.0508-1.6094 7.9336-4.4727 10.801-2.8672 2.8633-6.75 4.4727-10.801 4.4727zm161.93 0h0.003906c-4.0508 0-7.9375-1.6094-10.801-4.4727-2.8633-2.8672-4.4727-6.75-4.4727-10.801 0-4.0508 1.6094-7.9336 4.4727-10.797 2.8633-2.8672 6.75-4.4766 10.801-4.4766 4.0469 0 7.9336 1.6094 10.797 4.4766 2.8633 2.8633 4.4727 6.7461 4.4727 10.797 0 4.0508-1.6094 7.9336-4.4727 10.801-2.8633 2.8633-6.75 4.4727-10.797 4.4727zm161.93 0h0.003906c-4.0508 0-7.9336-1.6094-10.797-4.4727-2.8672-2.8672-4.4727-6.75-4.4727-10.801 0-4.0508 1.6055-7.9336 4.4727-10.797 2.8633-2.8672 6.7461-4.4766 10.797-4.4766s7.9336 1.6094 10.801 4.4766c2.8633 2.8633 4.4727 6.7461 4.4727 10.797 0 4.0508-1.6094 7.9336-4.4727 10.801-2.8672 2.8633-6.75 4.4727-10.801 4.4727z"/>
 </g>
 <path d="m193.83 566.57h88.559v40.777h-88.559z"/>
 <path d="m282.31 244.61-44.242-51.879-44.238 51.879v55.969h88.48z"/>
 <path d="m355.76 566.57h88.559v40.777h-88.559z"/>
 <path d="m517.68 566.57h88.559v40.777h-88.559z"/>
 <path d="m355.76 416.21h88.559v34.715h-88.559z"/>
 <path d="m606.17 244.61-44.242-51.879-44.242 51.879v55.969h88.484z"/>
 <g clip-path="url(#a)">
  <path d="m650.88 321.28h-501.76c-0.28516 0-0.55859 0.11719-0.75391 0.32812-0.19531 0.21094-0.29297 0.48828-0.26953 0.77344v71.793c0 0.27344 0.10938 0.53125 0.30078 0.72656 0.19141 0.19141 0.44922 0.29687 0.72266 0.29687h501.76c0.27344 0 0.53125-0.10547 0.72656-0.29687 0.19141-0.19531 0.29688-0.45313 0.29688-0.72656v-71.633c0.074218-0.30859 0-0.63672-0.19922-0.88281-0.20312-0.24609-0.50391-0.38672-0.82422-0.37891zm-412.81 52.352c-4.0547 0-7.9414-1.6133-10.809-4.4844-2.8633-2.8711-4.4688-6.7617-4.4609-10.816 0.003907-4.0547 1.625-7.9375 4.5-10.801 2.875-2.8594 6.7695-4.457 10.824-4.4453 4.0547 0.015625 7.9375 1.6406 10.793 4.5195 2.8516 2.8828 4.4453 6.7773 4.4258 10.832 0 4.043-1.6133 7.9219-4.4805 10.773-2.8633 2.8516-6.75 4.4414-10.793 4.4219zm161.93 0h0.003906c-4.0547 0-7.9453-1.6133-10.809-4.4844-2.8672-2.8711-4.4727-6.7617-4.4648-10.816 0.007813-4.0547 1.625-7.9375 4.5-10.801 2.875-2.8594 6.7695-4.457 10.824-4.4453 4.0547 0.015625 7.9375 1.6406 10.793 4.5195 2.8555 2.8828 4.4492 6.7773 4.4258 10.832 0 4.043-1.6094 7.9219-4.4766 10.773-2.8672 2.8516-6.75 4.4414-10.793 4.4219zm161.93 0h0.003906c-4.0547 0-7.9414-1.6133-10.809-4.4844-2.8633-2.8711-4.4688-6.7617-4.4609-10.816 0.003906-4.0547 1.625-7.9375 4.5-10.801 2.875-2.8594 6.7695-4.457 10.824-4.4453 4.0547 0.015625 7.9375 1.6406 10.789 4.5195 2.8555 2.8828 4.4492 6.7773 4.4297 10.832 0 4.043-1.6133 7.9219-4.4805 10.773-2.8633 2.8516-6.75 4.4414-10.793 4.4219z"/>
 </g>
 <path d="m517.68 416.21h88.559v34.715h-88.559z"/>
 <path d="m465.1 416.21h31.723v34.715h-31.723z"/>
</svg>