<?xml version="1.0" encoding="UTF-8"?>
<!-- The Best Svg Icon site in the world: iconSvg.co, Visit us! https://iconsvg.co -->
<svg fill="#000000" width="800px" height="800px" version="1.1" viewBox="144 144 512 512" xmlns="http://www.w3.org/2000/svg">
 <path d="m351.51 330.66c-0.60547-0.27734-61.629-27.488-103.48-6.5742l-0.003906 0.003906c-11.195 5.5938-19.711 15.406-23.672 27.281-3.957 11.875-3.0391 24.836 2.5625 36.031 0.93359 1.8711 1.0859 4.0312 0.42578 6.0156-0.66406 1.9805-2.0859 3.6172-3.9531 4.5508-3.8906 1.9375-8.6172 0.35938-10.559-3.5273-7.4609-14.93-8.6875-32.215-3.4102-48.047 5.2773-15.836 16.633-28.926 31.562-36.391 48.617-24.301 114.26 5.0547 117.04 6.2969l-0.003906 0.003907c3.9609 1.7969 5.7109 6.4648 3.9102 10.426-1.8008 3.957-6.4688 5.707-10.426 3.9062zm208.61-20.656c-48.609-24.301-114.26 5.0625-117.04 6.2969v0.003907c-1.918 0.85156-3.418 2.4375-4.1641 4.3984-0.74609 1.9648-0.67578 4.1445 0.19531 6.0586 0.87109 1.9102 2.4688 3.3945 4.4414 4.1211 1.9688 0.72656 4.1484 0.63672 6.0547-0.25391 0.59766-0.27734 61.52-27.551 103.47-6.5664v0.003906c11.203 5.5898 19.727 15.41 23.688 27.289 3.9609 11.883 3.0391 24.848-2.5664 36.047-0.95312 1.8711-1.1211 4.043-0.46484 6.0352 0.65625 1.9961 2.082 3.6445 3.9609 4.582 1.875 0.9375 4.0508 1.0859 6.0391 0.41406s3.625-2.1094 4.5469-3.9922c7.4648-14.93 8.6875-32.215 3.4062-48.047-5.2773-15.832-16.633-28.922-31.562-36.383zm68.027 101.02c-8.1523 16.281-20.68 29.965-36.176 39.523-15.496 9.5625-33.348 14.613-51.559 14.598-10.613-0.027344-21.152-1.7969-31.195-5.2344-23.277 73.508-87.223 131.15-101.9 143.65v14.469c0 4.3477-3.5234 7.8711-7.8711 7.8711s-7.875-3.5234-7.875-7.8711v-14.5c-14.656-12.48-78.445-69.969-101.78-143.34-31.609 10.371-66.324 3.9688-92.156-16.992-25.832-20.965-39.242-53.617-35.598-86.688 3.6445-33.066 23.84-62.02 53.617-76.855 32.504-16.246 69.902-17.32 102.71-13.02v-0.003906c1.9023-18.148 9.8633-35.133 22.598-48.207l-30.859-30.859h0.003906c-3.0742-3.0859-3.0664-8.0781 0.023438-11.152 3.0859-3.0742 8.0781-3.0625 11.152 0.023438l31.754 31.754h0.003906c13.621-9.5078 29.832-14.609 46.445-14.609 16.609 0 32.824 5.1016 46.445 14.609l31.723-31.754c3.0898-2.9844 8-2.9414 11.035 0.09375 3.0352 3.0391 3.0781 7.9492 0.09375 11.035l-30.867 30.859h0.003906c12.773 13.105 20.75 30.145 22.633 48.352 33.062-4.4883 70.934-3.5508 103.8 12.879h-0.003906c23.211 11.629 40.859 31.996 49.07 56.625 8.2109 24.629 6.3164 51.508-5.2695 74.742zm-294.18-141.89c22.637 4.2852 44.766 10.906 66.039 19.762 20.922-8.7109 42.68-15.266 64.934-19.562-1.9258-22.02-14.789-41.594-34.234-52.105-19.441-10.508-42.867-10.547-62.344-0.097656-19.477 10.449-32.398 29.984-34.395 51.996zm160.59 184.46c-8.6953-4.5898-16.875-10.09-24.406-16.41h-140.29c-7.8047 6.5625-16.316 12.238-25.371 16.922 3.4141 10.926 7.7031 21.555 12.832 31.789h164.25c5.2109-10.391 9.5586-21.195 13.004-32.301zm-21.633 48.02h-146.96c10.281 17.238 22.051 33.543 35.172 48.73h76.66c13.109-15.184 24.867-31.48 35.148-48.707zm-19.074-80.176c-13.125-14.762-24.316-31.133-33.309-48.719h-41.074c-8.9883 17.586-20.184 33.957-33.309 48.719zm-40.973-64.465c-4.8594-10.777-9.1562-21.801-12.871-33.023-3.7148 11.238-8.0117 22.273-12.871 33.062zm-116.71 83.742c60.773-30.379 87.512-114.93 93.984-138.82v0.003906c-33.094-13.27-68.273-20.57-103.91-21.562-21.93-0.51562-43.68 4.0664-63.543 13.383-19.609 9.6719-34.559 26.762-41.531 47.488-6.9727 20.723-5.3984 43.375 4.3789 62.934 9.7773 19.562 26.949 34.414 47.711 41.277 20.766 6.8594 43.406 5.1602 62.914-4.7227zm127.38 125.39h-48.207c10.234 10.738 18.973 18.836 24.105 23.363 5.1289-4.5156 13.883-12.617 24.102-23.363zm153.77-272.37c-60.684-30.34-144.45-1-167.45 8.1562 6.4961 23.875 33.297 108.49 93.984 138.82v-0.003906c19.504 9.8828 42.148 11.582 62.91 4.7227 20.762-6.8633 37.934-21.715 47.711-41.277 9.7773-19.559 11.355-42.211 4.3789-62.934-6.9727-20.727-21.918-37.816-41.531-47.488zm-204.14-67.07h-5.1484c-4.3477 0-7.875 3.5234-7.875 7.8711s3.5273 7.875 7.875 7.875h5.1484c4.3477 0 7.8711-3.5273 7.8711-7.875s-3.5234-7.8711-7.8711-7.8711zm53.672 15.742h5.1484v0.003906c4.3477 0 7.8711-3.5273 7.8711-7.875s-3.5234-7.8711-7.8711-7.8711h-5.1484c-4.3477 0-7.875 3.5234-7.875 7.8711s3.5273 7.875 7.875 7.875z"/>
</svg>