<?xml version="1.0" encoding="UTF-8"?>
<!-- The Best Svg Icon site in the world: iconSvg.co, Visit us! https://iconsvg.co -->
<svg fill="#000000" width="800px" height="800px" version="1.1" viewBox="144 144 512 512" xmlns="http://www.w3.org/2000/svg">
 <g>
  <path d="m535.71 321.32v31.883l-15.742-1.7305v-24.008l-36.684-9.2109 3.8555-15.273 42.59 10.707c3.543 0.86328 5.9805 4.0117 5.9805 7.6328z"/>
  <path d="m338.91 485.21c0 30.953-25.094 56.047-56.047 56.047-30.957 0-56.051-25.094-56.051-56.047 0-30.957 25.094-56.051 56.051-56.051 30.953 0 56.047 25.094 56.047 56.051"/>
  <path d="m501.57 457.12c22.344 5.2734 36.18 27.66 30.906 50-5.2773 22.344-27.664 36.176-50.004 30.902-22.34-5.2734-36.176-27.66-30.902-50 5.2734-22.344 27.66-36.18 50-30.902"/>
  <path d="m420.39 356.59c-3.9375-0.39453-7.0078-3.7773-7.0078-7.793l0.003906-90.059h-154.61v98.637c0 2.0469-0.78516 4.0938-2.2812 5.5898l-24.324 24.324v47.074c12.988-12.91 30.859-20.941 50.695-20.941 38.336 0 69.668 30.148 71.715 67.938h82.496c7.0078-23.695 29.047-41.09 54.945-41.09 24.48 0 45.422 15.43 53.531 37.078l27.633-0.003906v-104.3zm-49.516 3.5391h-69.508v-58.805h69.508zm79.586 61.168h-15.742v-31.961h15.742zm31.961 0h-15.742v-31.961h15.742z"/>
 </g>
</svg>