<?xml version="1.0" encoding="UTF-8"?>
<!-- The Best Svg Icon site in the world: iconSvg.co, Visit us! https://iconsvg.co -->
<svg fill="#000000" width="800px" height="800px" version="1.1" viewBox="144 144 512 512" xmlns="http://www.w3.org/2000/svg">
 <path d="m572.74 221.33 6.2305-44.047c0.20312-1.4453-0.22656-2.9062-1.1875-4.0117-0.95312-1.1016-2.3438-1.7344-3.8047-1.7344l-347.96 0.003907c-1.457 0-2.8477 0.63281-3.8047 1.7344-0.95703 1.1016-1.3906 2.5625-1.1875 4.0117l6.2266 44.047v370.47l-6.1758 30.621c-0.29688 1.4805 0.082031 3.0156 1.0391 4.1875 0.95703 1.168 2.3867 1.8438 3.8984 1.8438h347.96c1.5117 0 2.9414-0.67969 3.8984-1.8438 0.96094-1.1719 1.3438-2.7109 1.043-4.1914l-6.1797-30.621zm-340.57 397.05 4.0156-19.91h327.62l4.0195 19.91zm5.1562-29.988v-363.89h325.33v363.9zm326.21-373.97h-327.09l-4.6367-32.801h336.36zm-86.734 159.1c-1.1719-0.18359-28.742-4.1992-43.98 11.047-12.73 12.727-12.027 34.008-11.348 41.375l-8.0898 8.0898v-61.691c2.582-1.6602 4.8125-3.7812 6.5156-6.3242 7.4844 1.5352 15.523-0.94141 21.477-6.8945 5.9453-5.9453 8.4219-13.98 6.8867-21.473 6.3086-4.2227 10.188-11.598 10.188-19.906 0-8.3125-3.8789-15.691-10.188-19.91 1.5352-7.4922-0.94531-15.523-6.8867-21.473-5.9453-5.9453-13.969-8.4258-21.477-6.8945-4.2148-6.3086-11.598-10.188-19.906-10.188-8.3125 0-15.691 3.8789-19.91 10.188-7.4844-1.543-15.523 0.94531-21.469 6.8945-5.9492 5.9453-8.4297 13.977-6.8945 21.473-6.3086 4.2188-10.188 11.598-10.188 19.91 0 8.3086 3.8828 15.688 10.188 19.906-1.5352 7.4922 0.94531 15.523 6.8945 21.473 5.9453 5.9453 13.984 8.4219 21.469 6.8906 1.6992 2.543 3.9336 4.6641 6.5156 6.3242v61.688l-8.0938-8.0859c0.68359-7.3711 1.3828-28.648-11.344-41.371-15.238-15.238-42.816-11.227-43.984-11.047-2.1758 0.33203-3.8828 2.0391-4.2148 4.2148-0.17969 1.168-4.1953 28.742 11.047 43.98 9.8438 9.8516 24.84 11.66 34.535 11.66 2.8242-0.003906 5.1758-0.15625 6.8398-0.30859l15.211 15.211v17.73c0 2.7852 2.2539 5.0391 5.0391 5.0391s5.0391-2.2539 5.0391-5.0391l-0.003907-90.027c1.0859 0.14063 2.1953 0.22266 3.3203 0.22266s2.2305-0.085938 3.3164-0.22266v90.027c0 2.7852 2.2539 5.0391 5.0391 5.0391 2.7852 0 5.0391-2.2539 5.0391-5.0391v-17.727l15.211-15.215c1.668 0.15234 4.0195 0.30469 6.8398 0.30469 9.6992 0 24.695-1.8125 34.539-11.656 15.238-15.238 11.223-42.812 11.047-43.977-0.33203-2.1758-2.043-3.8867-4.2188-4.2188zm-132.87 17.844c-1.9688-1.9688-5.1562-1.9688-7.125 0s-1.9688 5.1562 0 7.125l24.715 24.715c-7.7695-0.33594-17.918-2.1367-24.391-8.6133-8.7617-8.7617-8.9961-24.285-8.5664-31.48 7.1875-0.44922 22.668-0.22266 31.473 8.5781 6.4727 6.4727 8.2812 16.625 8.6172 24.398zm68.777-33.234c-2.2773 5.8984-8.0625 7.9961-12.719 7.9961s-10.441-2.1016-12.719-7.9961c-0.49609-1.293-1.5039-2.3203-2.7852-2.8477-0.61328-0.25-1.2656-0.375-1.9141-0.375-0.70703 0-1.4102 0.14844-2.0703 0.44141-5.7969 2.6133-11.43-0.015625-14.766-3.3516-3.3359-3.332-5.9688-8.9648-3.3555-14.773 0.56641-1.2617 0.58984-2.6992 0.066406-3.9805-0.52734-1.2773-1.5547-2.2891-2.8477-2.7852-5.8945-2.2773-7.9961-8.0625-7.9961-12.719s2.1016-10.441 7.9961-12.719c1.2891-0.5 2.3164-1.5039 2.8438-2.7852 0.52344-1.2773 0.5-2.7227-0.066407-3.9805-2.6133-5.8047 0.019532-11.438 3.3555-14.77 3.3359-3.3398 8.9648-5.9766 14.77-3.3555 1.2578 0.56641 2.6953 0.58984 3.9805 0.066406 1.2773-0.52734 2.2891-1.5547 2.7852-2.8477 2.2812-5.8945 8.0664-7.9961 12.719-7.9961 4.6562 0 10.441 2.1016 12.719 7.9961 0.49609 1.293 1.5039 2.3203 2.7852 2.8477 1.2773 0.52344 2.7227 0.5 3.9805-0.066406 5.7891-2.6133 11.434 0.015625 14.773 3.3555 3.332 3.3359 5.9648 8.9648 3.3516 14.766-0.56641 1.2617-0.58984 2.6992-0.0625 3.9844 0.52344 1.2773 1.5508 2.2852 2.8438 2.7852 5.8945 2.2812 7.9961 8.0664 7.9961 12.719 0 4.6562-2.1016 10.441-7.9961 12.719-1.2891 0.49609-2.3203 1.5039-2.8438 2.7852-0.52734 1.2812-0.5 2.7227 0.0625 3.9805 2.6133 5.8047-0.019531 11.438-3.3555 14.773-3.332 3.332-8.9609 5.9766-14.77 3.3516-1.2578-0.56641-2.6992-0.58984-3.9805-0.066406-1.2734 0.52734-2.2812 1.5586-2.7812 2.8477zm50.141 56.461c-6.4688 6.4727-16.629 8.2773-24.395 8.6133l24.719-24.719c1.9688-1.9688 1.9688-5.1562 0-7.125s-5.1562-1.9688-7.125 0l-24.742 24.742c0.32422-7.7617 2.1328-17.91 8.6406-24.418 8.7578-8.7539 24.281-8.9922 31.469-8.5664 0.42969 7.2031 0.19141 22.715-8.5664 31.473zm-37.496-96.848c0-13.988-11.379-25.363-25.363-25.363-13.988 0-25.363 11.379-25.363 25.363s11.379 25.363 25.363 25.363 25.363-11.379 25.363-25.363zm-25.363 15.285c-8.4297 0-15.289-6.8594-15.289-15.285 0-8.4297 6.8594-15.289 15.289-15.289 8.4297 0 15.285 6.8594 15.285 15.289 0.003906 8.4258-6.8555 15.285-15.285 15.285zm-60.676 171.3c-2.7812 0-5.0391-2.2539-5.0391-5.0391 0-2.7852 2.2539-5.0391 5.0391-5.0391h121.35c2.7852 0 5.0391 2.2539 5.0391 5.0391 0 2.7852-2.2539 5.0391-5.0391 5.0391zm137.88 32.82c0 2.7852-2.2539 5.0391-5.0391 5.0391h-144.33c-2.7812 0-5.0391-2.2539-5.0391-5.0391 0-2.7852 2.2539-5.0391 5.0391-5.0391l144.33 0.003906c2.7852 0 5.0391 2.2539 5.0391 5.0352z"/>
</svg>