<?xml version="1.0" encoding="UTF-8"?>
<!-- The Best Svg Icon site in the world: iconSvg.co, Visit us! https://iconsvg.co -->
<svg width="800px" height="800px" version="1.1" viewBox="144 144 512 512" xmlns="http://www.w3.org/2000/svg">
 <defs>
  <clipPath id="b">
   <path d="m296 441h207v210.9h-207z"/>
  </clipPath>
  <clipPath id="a">
   <path d="m174 148.09h453v503.81h-453z"/>
  </clipPath>
 </defs>
 <path d="m351.11 241.46h97.848c0.87109 0 1.5742 0.87109 1.5742 1.5742v105.09c0 0.87109-0.70312 1.5742-1.5742 1.5742h-97.848c-0.87109 0-1.5742-0.87109-1.5742-1.5742v-105.09c0-0.87109 0.70313-1.5742 1.5742-1.5742z"/>
 <g clip-path="url(#b)">
  <path d="m296.95 441.8h206.01v210.11h-206.01z"/>
 </g>
 <g clip-path="url(#a)">
  <path d="m522.88 223.59-122.88-75.492-122.88 75.492-102.89 195.07h15.191c3 0 5.875 1.1953 7.9883 3.3242 2.1133 2.1289 3.2891 5.0117 3.2695 8.0117v220.42-0.003906c0 0.43359 0.17578 0.84766 0.48828 1.1445s0.73438 0.45312 1.1641 0.42969h71.715v-221.44c-0.023437-3.0156 1.1641-5.9102 3.2969-8.0391 2.1289-2.1328 5.0234-3.3203 8.0391-3.2969h229c3.0547-0.085937 6.0117 1.0742 8.1914 3.2109 2.1836 2.1367 3.4023 5.0703 3.3789 8.125v221.36h68.566c0.41797 0 0.82031-0.16406 1.1133-0.46094 0.29688-0.29297 0.46094-0.69531 0.46094-1.1133v-220.42 0.003906c-0.019532-3.0156 1.168-5.9102 3.2969-8.0391 2.1328-2.1328 5.0273-3.3203 8.0391-3.2969h18.656zm-49.75 124.54c0 6.4297-2.5547 12.598-7.1016 17.145s-10.715 7.1016-17.145 7.1016h-97.77c-6.4297 0-12.598-2.5547-17.145-7.1016s-7.1016-10.715-7.1016-17.145v-105.01c0.019531-6.418 2.5859-12.562 7.1289-17.094 4.5469-4.5312 10.699-7.0742 17.117-7.0742h97.77c6.4297 0 12.598 2.5547 17.145 7.1016s7.1016 10.715 7.1016 17.145z"/>
 </g>
</svg>