<?xml version="1.0" encoding="UTF-8"?>
<!-- The Best Svg Icon site in the world: iconSvg.co, Visit us! https://iconsvg.co -->
<svg fill="#000000" width="800px" height="800px" version="1.1" viewBox="144 144 512 512" xmlns="http://www.w3.org/2000/svg">
 <g>
  <path d="m203.3 604.67h62.875c12.52-0.011719 24.527-4.9922 33.383-13.848 8.8555-8.8555 13.836-20.863 13.848-33.387v-55.102c-0.003906-2.9492-1.6523-5.6484-4.2734-6.9961-2.6211-1.3477-5.7734-1.1172-8.1719 0.59375l-15.547 11.125c-26.465 18.945-42.367 49.324-42.855 81.867v-220.41c16.695-0.019531 32.703-6.6602 44.508-18.469 11.809-11.805 18.449-27.812 18.469-44.508v-3.8359c-0.007812-18.953-2.082-37.848-6.1797-56.355l-9.7461-43.855c-0.69141-3.1484-3.2344-5.5547-6.418-6.0781-3.1836-0.51953-6.3594 0.95312-8.0195 3.7188l-16.871 28.125-16.867-28.109c-1.5273-2.2266-4.0508-3.5547-6.7461-3.5547-2.6992 0-5.2227 1.3281-6.7461 3.5547l-16.871 28.109-16.871-28.109c-1.6602-2.7656-4.8359-4.2383-8.0195-3.7188-3.1797 0.52344-5.7227 2.9297-6.418 6.0781l-9.7461 43.84c-4.0977 18.508-6.168 37.402-6.1797 56.355v3.8359c0.019531 16.695 6.6602 32.703 18.469 44.508 11.805 11.809 27.812 18.449 44.508 18.469v220.3c-0.44141-32.441-16.203-62.762-42.508-81.758l-15.625-11.289c-2.3945-1.7266-5.5508-1.9688-8.1797-0.62891s-4.2891 4.0391-4.2969 6.9883l-0.13281 55.191h-0.003906c-0.03125 12.547 4.9336 24.594 13.793 33.477 8.8633 8.8828 20.895 13.875 33.441 13.875zm91.262-84.828 3.1016-2.2148v39.809c0 8.3516-3.3203 16.363-9.2227 22.266-5.9062 5.9062-13.918 9.2227-22.266 9.2227h-7.875c0.47266-27.469 13.922-53.09 36.262-69.082zm-114.98-214.31v-3.8359c0.003907-17.805 1.9531-35.555 5.8086-52.938l5.4727-24.594 13.461 22.441v0.003906c1.5234 2.2227 4.0469 3.5547 6.7461 3.5547 2.6953 0 5.2227-1.332 6.7461-3.5547l16.871-28.113 16.871 28.109-0.003906 0.003906c1.5273 2.2227 4.0508 3.5547 6.7461 3.5547 2.6992 0 5.2227-1.332 6.7461-3.5547l13.461-22.441 5.5117 24.594v-0.003906c3.8438 17.383 5.7812 35.137 5.7695 52.938v3.8359c-0.011718 12.523-4.9922 24.527-13.848 33.383-8.8555 8.8555-20.859 13.836-33.383 13.848h-15.746c-12.52-0.011719-24.527-4.9922-33.383-13.848-8.8555-8.8555-13.836-20.859-13.848-33.383zm-7.6758 211.96 3.2188 2.3203v0.003906c22.223 16.066 35.551 41.688 35.945 69.105h-7.7695c-8.3672 0-16.387-3.3281-22.293-9.25-5.9102-5.9219-9.2148-13.949-9.1953-22.316z"/>
  <path d="m368.61 604.67h62.875c12.52-0.011719 24.527-4.9922 33.383-13.848 8.8555-8.8555 13.836-20.863 13.848-33.387v-55.102c-0.003906-2.9492-1.6523-5.6484-4.2734-6.9961-2.6211-1.3477-5.7734-1.1172-8.1719 0.59375l-15.547 11.125c-26.465 18.945-42.367 49.324-42.855 81.867v-220.41c16.695-0.019531 32.703-6.6602 44.508-18.469 11.809-11.805 18.449-27.812 18.469-44.508v-3.8359c-0.007812-18.953-2.082-37.848-6.1797-56.355l-9.7461-43.855c-0.69141-3.1484-3.2344-5.5547-6.418-6.0781-3.1836-0.51953-6.3594 0.95312-8.0195 3.7188l-16.871 28.125-16.867-28.109c-1.5273-2.2266-4.0508-3.5547-6.7461-3.5547-2.6992 0-5.2227 1.3281-6.7461 3.5547l-16.871 28.109-16.871-28.109c-1.6602-2.7656-4.8359-4.2383-8.0195-3.7188-3.1797 0.52344-5.7227 2.9297-6.418 6.0781l-9.7461 43.855c-4.0977 18.5-6.168 37.395-6.1797 56.34v3.8359c0.019531 16.695 6.6602 32.703 18.469 44.508 11.805 11.809 27.812 18.449 44.508 18.469v220.3c-0.44141-32.441-16.203-62.762-42.508-81.758l-15.656-11.281c-2.3945-1.7266-5.5508-1.9688-8.1797-0.62891-2.6289 1.3398-4.2891 4.0391-4.2969 6.9883l-0.13281 55.191h-0.003906c-0.03125 12.547 4.9336 24.594 13.793 33.477 8.8633 8.8828 20.895 13.875 33.441 13.875zm91.262-84.828 3.1016-2.2148v39.809c0 8.3516-3.3203 16.363-9.2227 22.266-5.9062 5.9062-13.918 9.2227-22.266 9.2227h-7.875c0.47266-27.469 13.922-53.09 36.262-69.082zm-114.98-214.31v-3.8359c0.003907-17.805 1.9531-35.555 5.8086-52.938l5.5117-24.594 13.461 22.441v0.003906c1.5234 2.2227 4.0469 3.5547 6.7461 3.5547s5.2227-1.332 6.7461-3.5547l16.832-28.113 16.871 28.109-0.003906 0.003906c1.5273 2.2227 4.0508 3.5547 6.7461 3.5547 2.6992 0 5.2227-1.332 6.7461-3.5547l13.461-22.441 5.5117 24.594v-0.003906c3.8438 17.383 5.7812 35.137 5.7695 52.938v3.8359c-0.011718 12.523-4.9922 24.527-13.848 33.383-8.8555 8.8555-20.859 13.836-33.383 13.848h-15.746c-12.52-0.011719-24.527-4.9922-33.383-13.848-8.8555-8.8555-13.836-20.859-13.848-33.383zm-7.6758 211.96 3.2188 2.3203v0.003906c22.223 16.066 35.551 41.688 35.945 69.105h-7.7773c-8.3672 0-16.387-3.3281-22.293-9.25-5.9102-5.9219-9.2148-13.949-9.1953-22.316z"/>
  <path d="m639.77 495.34c-2.625-1.3477-5.7812-1.1172-8.1797 0.59766l-15.547 11.125c-26.465 18.945-42.367 49.324-42.855 81.867v-220.41c16.695-0.019531 32.703-6.6602 44.508-18.469 11.809-11.805 18.449-27.812 18.469-44.508v-3.8359c-0.007812-18.953-2.082-37.848-6.1797-56.355l-9.7461-43.855c-0.69141-3.1484-3.2344-5.5547-6.418-6.0781-3.1836-0.51953-6.3594 0.95312-8.0195 3.7188l-16.871 28.125-16.867-28.109c-1.5273-2.2266-4.0508-3.5547-6.7461-3.5547-2.6992 0-5.2227 1.3281-6.7461 3.5547l-16.871 28.109-16.871-28.109c-1.6602-2.7656-4.8359-4.2383-8.0195-3.7188-3.1797 0.52344-5.7227 2.9297-6.418 6.0781l-9.7461 43.855c-4.0977 18.5-6.168 37.395-6.1797 56.34v3.8359c0.019531 16.695 6.6602 32.703 18.469 44.508 11.805 11.809 27.812 18.449 44.508 18.469v220.3c-0.44141-32.441-16.203-62.762-42.508-81.758l-15.656-11.281c-2.3945-1.7266-5.5508-1.9688-8.1797-0.62891-2.6289 1.3398-4.2891 4.0391-4.2969 6.9883l-0.13281 55.191h-0.003906c-0.03125 12.547 4.9336 24.594 13.793 33.477 8.8633 8.8828 20.895 13.875 33.441 13.875h62.906c12.52-0.011719 24.527-4.9922 33.383-13.848 8.8555-8.8555 13.836-20.863 13.848-33.387v-55.109c0-2.9492-1.6445-5.6484-4.2656-7zm-129.56-189.8v-3.8359c0.003907-17.805 1.9531-35.555 5.8086-52.938l5.5117-24.594 13.461 22.441v0.003906c1.5234 2.2227 4.0469 3.5547 6.7461 3.5547s5.2227-1.332 6.7461-3.5547l16.832-28.113 16.871 28.109-0.003906 0.003906c1.5273 2.2227 4.0508 3.5547 6.7461 3.5547 2.6992 0 5.2227-1.332 6.7461-3.5547l13.461-22.441 5.5117 24.594v-0.003906c3.8438 17.383 5.7812 35.137 5.7695 52.938v3.8359c-0.011718 12.523-4.9922 24.527-13.848 33.383-8.8555 8.8555-20.859 13.836-33.383 13.848h-15.746c-12.52-0.011719-24.527-4.9922-33.383-13.848-8.8555-8.8555-13.836-20.859-13.848-33.383zm23.719 283.39v-0.003907c-8.3672 0-16.387-3.3281-22.293-9.25-5.9102-5.9219-9.2148-13.949-9.1953-22.316l0.09375-39.863 3.2188 2.3203v0.003906c22.223 16.066 35.551 41.688 35.945 69.105zm94.363-31.492c0 8.3516-3.3203 16.363-9.2227 22.266-5.9062 5.9062-13.918 9.2227-22.266 9.2227h-7.875c0.47266-27.465 13.918-53.09 36.254-69.082l3.1094-2.2148z"/>
 </g>
</svg>