<?xml version="1.0" encoding="UTF-8"?>
<!-- The Best Svg Icon site in the world: iconSvg.co, Visit us! https://iconsvg.co -->
<svg fill="#000000" width="800px" height="800px" version="1.1" viewBox="144 144 512 512" xmlns="http://www.w3.org/2000/svg">
 <path d="m521.42 207.32h-242.84l-37.785 81.012h318.41zm-121.42 102.17c-13.098 0-23.73 10.531-23.73 23.477 0 12.949 10.629 23.48 23.73 23.48 13.098 0 23.73-10.531 23.73-23.477-0.003907-12.949-10.633-23.48-23.73-23.48zm0 30.684c-3.9805 0-7.2031-3.2227-7.2031-7.2031 0-3.9297 3.2227-7.1562 7.2031-7.1562s7.2031 3.2227 7.2031 7.1562c0 3.9766-3.2266 7.2031-7.2031 7.2031zm-124.39-43.125v119.61h26.852v-119.61zm227.02 0v119.61h26.852v-119.61zm-81.012 58.34-1.9648 1.7109c-0.35156 0.25-0.70703 0.55469-1.0586 0.80469l-1.3086 0.95703c-0.40234 0.20312-0.75391 0.45312-1.1094 0.65625l-1.4609 0.85547c-0.40234 0.20312-0.75391 0.35156-1.1602 0.55469l-1.5625 0.70703c-0.40234 0.15234-0.80469 0.30078-1.2109 0.45313l-1.6133 0.55469c-0.45312 0.15234-0.90625 0.25391-1.3594 0.35156l-1.6133 0.40234c-0.55078 0.10156-1.1562 0.20312-1.7578 0.25391l-1.3086 0.20312c-1.0117 0.097657-2.0703 0.14844-3.125 0.14844-1.0586 0-2.1172-0.050781-3.125-0.15234l-1.3086-0.20312c-0.60547-0.046875-1.2109-0.14844-1.7656-0.24609l-1.2109-0.30078c-0.85547-0.20312-1.3086-0.30078-1.7617-0.45312l-1.6133-0.55469c-0.40234-0.15234-0.80469-0.30078-1.2109-0.45312l-1.5625-0.70703c-0.40234-0.20313-0.75391-0.35156-1.1602-0.55469 0 0-2.168-1.3086-2.5703-1.5117l-1.3086-0.95703c-0.35156-0.25391-0.70703-0.55469-1.0586-0.80469l-1.9648-1.7109-2.1172-2.0156v64.387h47.461l0.003906-64.391zm-111.59-59.5v121.87h58.691v-84.793c0-17.078 14.008-31.035 31.285-31.035 17.281 0 31.285 13.957 31.285 31.035v84.789h63.781l0.003906-121.87zm-66.504 129.43c-5.0898 0-9.168 4.082-9.168 9.0703v26.801h58.695v-35.871zm57.082 0v35.871h128.72v-35.871zm255.88 0h-119.6v35.871h128.77v-26.801c0-4.9922-4.082-9.0703-9.1719-9.0703zm-321.73 43.629v35.82h128.77v-35.82zm136.33 0v35.82h128.72v-35.82zm136.28 0v35.82h58.289v-35.82zm-272.61 44.387v35.82h58.695v-35.82zm66.25-0.050781v35.871h128.32v-35.871zm135.88 0v35.871h128.77v-35.871zm-202.13 43.629v26.703c0 4.9883 4.1328 9.0703 9.168 9.0703h119.61v-35.77zm136.33 0v35.77h128.72v-35.77zm136.28 0v35.77h49.121c5.0898 0 9.168-4.082 9.168-9.0703v-26.703z"/>
</svg>