<?xml version="1.0" encoding="UTF-8"?>
<!-- The Best Svg Icon site in the world: iconSvg.co, Visit us! https://iconsvg.co -->
<svg width="800px" height="800px" version="1.1" viewBox="144 144 512 512" xmlns="http://www.w3.org/2000/svg">
 <defs>
  <clipPath id="a">
   <path d="m148.09 170h503.81v357h-503.81z"/>
  </clipPath>
 </defs>
 <g clip-path="url(#a)">
  <path d="m638.01 234.52c-3.2227-1.9102-6.7852-3.1641-10.492-3.6875l-32.898-11.484c-11.863-7.0039-25.711-9.8828-39.383-8.1914-13.672 1.6953-26.398 7.8633-36.195 17.551-29.801-35.855-73.727-56.969-120.34-57.84-46.617-0.87109-91.301 18.586-122.42 53.301-9.9102-7.9453-22.008-12.676-34.676-13.562s-25.309 2.1133-36.227 8.6016l-32.898 11.484h0.003906c-7.6953 1.1211-14.594 5.3516-19.078 11.699-4.4883 6.3516-6.168 14.266-4.6523 21.891 1.5156 7.6289 6.0938 14.297 12.668 18.449l22.828 22.973h0.003906c4.918 7.9023 11.559 14.59 19.426 19.566 5.9883 3.707 12.555 6.3906 19.426 7.9414-4.9102 30.742-3.1211 62.184 5.2461 92.168l31.336 100.25v0.003906c44.445-10.797 90.125-15.66 135.84-14.465 45.328 1.1484 90.457 6.3711 134.85 15.598l31.336-100.68c8.2617-29.566 10.098-60.559 5.3906-90.895 10.062-0.81641 19.785-4.0234 28.359-9.3555 7.8633-4.9805 14.504-11.668 19.426-19.57l22.828-22.973c4.2266-2.3242 7.7891-5.6953 10.352-9.7812 3.8672-6.5 4.9805-14.273 3.0898-21.598-1.8906-7.3203-6.625-13.586-13.156-17.398zm-313.66 147.19c-6.9023 0.035157-13.539-2.6641-18.453-7.5117-4.918-4.8438-7.7109-11.441-7.7734-18.344-0.0625-6.9023 2.6133-13.551 7.4414-18.484 4.8281-4.9336 11.414-7.7539 18.316-7.8398 6.9062-0.085938 13.559 2.5625 18.512 7.375 4.9531 4.8086 7.793 11.387 7.9062 18.289 0.11328 6.9688-2.5625 13.691-7.4375 18.672-4.875 4.9844-11.539 7.8047-18.512 7.8438zm141.8 0h0.003907c-6.9023 0.035157-13.539-2.6641-18.457-7.5117-4.9141-4.8438-7.7109-11.441-7.7734-18.344-0.0625-6.9023 2.6172-13.551 7.4453-18.484 4.8281-4.9336 11.414-7.7539 18.316-7.8398 6.9023-0.085938 13.559 2.5625 18.508 7.375 4.9531 4.8086 7.7969 11.387 7.9102 18.289 0.11328 6.918-2.5273 13.602-7.3398 18.574-4.8164 4.9727-11.406 7.8281-18.328 7.9414z"/>
 </g>
 <path d="m266.07 546.48c0.99219 45.801 34.172 82.668 75.012 82.668h108.48c40.84 0 74.16-36.867 75.012-82.668h-0.003906c-42.625-8.8125-85.949-13.84-129.46-15.031-43.48-0.62109-86.859 4.4297-129.04 15.031z"/>
</svg>