<?xml version="1.0" encoding="UTF-8"?>
<!-- The Best Svg Icon site in the world: iconSvg.co, Visit us! https://iconsvg.co -->
<svg fill="#000000" width="800px" height="800px" version="1.1" viewBox="144 144 512 512" xmlns="http://www.w3.org/2000/svg">
 <g>
  <path d="m398.68 427.16c-0.39844 0-1 0-1.7305-0.09375-18.004-0.69922-33.793-13.238-38.492-30.633l-0.22266-0.82812c-0.03125-0.097657-0.23828-0.89844-0.26172-1-0.67578-3.0156-1.0078-6.0156-1.0078-9.168 0-13.832 6.8477-26.77 18.328-34.594 0.25391-0.17188 0.51563-0.33203 0.78516-0.47266 13.598-8.6992 31.633-8.6953 45.234 0.019531 0.26172 0.13672 0.51562 0.28906 0.76172 0.45312 11.477 7.8242 18.328 20.762 18.328 34.594 0 3.1523-0.33203 6.1484-1.0078 9.168-0.023437 0.10156-0.24609 0.92578-0.26953 1.0234l-0.26172 0.95703c-4.668 17.238-20.449 29.777-38.453 30.477-0.73047 0.097656-1.332 0.097656-1.7305 0.097656zm-15.043-62.934c-6.8477 4.9258-10.926 12.805-10.926 21.219 0 1.9805 0.20703 3.8516 0.62109 5.7227 0.007813 0.011719 0.31641 1.1445 0.31641 1.1562 2.9531 10.898 12.914 18.723 24.23 19.023 0.45312 0.015625 0.91406 0.070313 1.3594 0.16016 11.555-0.46094 21.516-8.2891 24.469-19.184 0.007813-0.046875 0.42969-1.582 0.44531-1.6289 0.29297-1.3984 0.5-3.2695 0.5-5.25 0-8.4375-4.0977-16.344-10.992-21.266-0.19922-0.11328-0.39062-0.23438-0.57812-0.35938-0.070313-0.039062-0.12891-0.082031-0.19141-0.12109-8.625-5.5586-19.797-5.5664-28.414-0.003907-0.046875 0.03125-0.09375 0.0625-0.13672 0.089844-0.22656 0.16016-0.45703 0.30469-0.70313 0.44141z"/>
  <path d="m335.86 526.99c-11.617 0-22.516-3.375-31.734-10.055-0.10938-0.078125-0.67578-0.53125-0.77734-0.61328-15.98-11.547-24.031-31.711-21.762-55.074 1.6758-16.875 7.7109-31.328 17.688-42.664-14.754-3.2812-28.129-11.395-39.383-24.016-15.559-17.508-20.887-38.578-14.629-57.824 6.4414-19.773 23.117-33.676 45.949-38.719 16.812-3.582 32.219-2.3555 46.039 3.6523-1.3906-14.949 2.1992-30.152 10.691-44.793 11.879-20.234 30.258-31.824 50.453-31.824 20.773 0 39.152 11.59 51.008 31.793 8.5117 14.656 12.109 29.863 10.707 44.82 13.809-6.0117 29.211-7.2461 45.988-3.6641 22.887 5.0547 39.566 18.957 45.816 38.164 6.4492 19.805 1.1211 40.879-14.422 58.379-0.007812 0.003907-0.007812 0.007813-0.015625 0.011719-11.262 12.621-24.637 20.734-39.383 24.016 9.9727 11.34 16.004 25.793 17.68 42.648 2.2773 23.379-5.7656 43.535-22.07 55.336-16.82 12.215-38.516 13.652-59.984 4.3281-15.504-6.8477-27.359-17.059-35.039-30.02-7.6641 12.953-19.512 23.164-34.992 30.004-9.3945 4.0859-18.828 6.1133-27.828 6.1133zm-17.121-122.62c3.3906 0 6.4258 2.1797 7.4883 5.4336 1.1055 3.4141-0.23047 7.1484-3.2578 9.0781-15.121 9.6328-23.777 24.406-25.715 43.902-1.7148 17.637 3.9883 32.594 15.637 41.02 0.10938 0.078125 0.68359 0.53906 0.78516 0.62109 11.422 8.2578 27.469 9.0938 43.695 2.0312 17.891-7.9023 29.234-20.703 33.688-38.016 0.89844-3.4766 4.0273-5.9102 7.625-5.9102 3.5898 0 6.7266 2.4297 7.625 5.9102 4.457 17.312 15.805 30.113 33.742 38.031 16.184 7.0508 32.219 6.2188 43.949-2.2812 12.133-8.8086 17.828-23.77 16.113-41.422-1.9375-19.48-10.586-34.254-25.715-43.887-3.0273-1.9297-4.3672-5.6641-3.2578-9.0781 1.1133-3.4141 4.3984-5.6367 7.9727-5.418 17.949 1.1016 33.609-5.7109 46.625-20.301 11.73-13.207 15.883-28.691 11.395-42.473-4.6602-14.328-17.121-24.406-34.371-28.215-19.074-4.0742-35.816-0.39844-49.691 10.945-2.7734 2.2695-6.7422 2.375-9.625 0.25781-2.8984-2.1133-3.9961-5.918-2.6758-9.25 6.5664-16.574 4.8984-33.586-4.957-50.566-8.9336-15.23-22.363-23.98-36.84-23.98-15.035 0-28.469 8.7539-37.422 24.012-9.8398 16.953-11.508 33.969-4.9336 50.531 1.3203 3.332 0.22266 7.1367-2.668 9.2539-2.9062 2.1094-6.8555 2.0039-9.6328-0.25781-13.902-11.336-30.645-15.008-49.766-10.93-17.188 3.793-29.652 13.871-34.125 27.633-4.6836 14.355-0.51562 29.848 11.223 43.059 12.992 14.57 28.66 21.379 46.602 20.285 0.16406-0.015624 0.32422-0.019531 0.48828-0.019531zm212.87-15.039h0.078126z"/>
  <path d="m270.66 323.09c-3.3125 0-6.3945-2.1055-7.4805-5.4258-2.2891-6.9844-3.8359-14.395-4.5977-22.027-2.7305-27.945 6.8633-52.023 26.32-66.086 20.078-14.551 45.949-16.23 71.578-5.082 7.1641 3.1406 13.738 6.9336 19.566 11.277 3.4844 2.5977 4.2031 7.5312 1.6055 11.016-2.5977 3.4883-7.5352 4.2031-11.016 1.6055-4.875-3.6328-10.41-6.8203-16.461-9.4727-20.387-8.875-40.621-7.8047-55.488 2.9453-15.367 11.164-22.609 30.035-20.441 52.246 0.64453 6.4844 1.9609 12.777 3.8906 18.68 1.3516 4.1328-0.89844 8.5742-5.0273 9.9297-0.8125 0.26563-1.6406 0.39453-2.4492 0.39453z"/>
  <path d="m509.51 495.99c-1.5742 0-3.1367-0.039063-4.6953-0.11719-4.3438-0.22266-7.6797-3.9219-7.4648-8.2656 0.22266-4.3438 3.9453-7.7344 8.2656-7.4648 7.1406 0.38281 14.559-0.27734 22.062-1.9062 21.742-4.7969 37.461-17.551 43.105-34.977 5.8438-18.066 0.61328-37.609-14.152-54.301-5.2031-5.8672-10.664-10.629-16.691-14.551-3.6445-2.3711-4.6758-7.25-2.2969-10.895 2.3672-3.6484 7.2422-4.6797 10.895-2.2969 7.1172 4.6406 13.816 10.457 19.879 17.305 18.566 20.98 24.953 46.105 17.535 68.938-7.5938 23.531-27.535 40.121-54.902 46.164-7.2656 1.5742-14.484 2.3672-21.539 2.3672z"/>
  <path d="m528.87 324.69c-0.89062 0-1.793-0.15234-2.6758-0.47266-4.0898-1.4805-6.2031-5.9922-4.7266-10.082 2.2539-6.2227 3.7227-12.953 4.3672-20.004 2.1758-22.219-5.1055-41.086-19.965-51.82-0.14453-0.10938-0.85156-0.69141-1-0.80859-14.406-10.391-34.617-11.461-54.973-2.5977-6.8711 3.0469-12.637 6.4453-17.574 10.355-3.4062 2.6992-8.3555 2.125-11.055-1.2734-2.707-3.4062-2.1289-8.3594 1.2773-11.059 5.9883-4.75 12.859-8.8203 21.02-12.438 25.652-11.152 51.5-9.4766 70.973 4.5898 0.14453 0.10938 0.85156 0.69141 1 0.80859 19.074 13.762 28.707 37.844 25.977 65.727-0.76953 8.3398-2.5273 16.391-5.2344 23.879-1.168 3.1992-4.1875 5.1914-7.4102 5.1953z"/>
  <path d="m289.94 496.01c-6.7422 0-13.762-0.80078-20.895-2.3828-27.32-6.0352-47.262-22.617-54.703-45.504-7.7031-23.492-1.3164-48.621 17.242-69.59 5.3594-6.0352 11.293-11.309 17.645-15.691 3.5742-2.4805 8.4727-1.5664 10.945 2.0117 2.4688 3.5781 1.5664 8.4805-2.0156 10.949-5.3047 3.6641-10.285 8.0938-14.789 13.172-14.762 16.68-19.988 36.223-14.336 53.613 5.9492 18.113 21.672 30.867 43.418 35.664 6.7266 1.4922 13.254 2.1836 19.473 1.9844 4.0898-0.03125 7.9727 3.2891 8.1016 7.6406 0.12109 4.3438-3.2969 7.9727-7.6406 8.1016-0.80859 0.023438-1.625 0.03125-2.4453 0.03125z"/>
  <path d="m400.38 582.8c-24.73 0-46.617-13.852-60.809-38.008-4.4961-7.6641-7.9336-15.613-10.211-23.617-1.1914-4.1836 1.2383-8.5312 5.418-9.7266 4.1992-1.1914 8.5312 1.2383 9.7266 5.418 1.9375 6.8203 4.7656 13.336 8.6406 19.949 11.293 19.211 28.23 30.234 46.48 30.234 19.09 0 36.102-11.023 47.426-30.25 3.7656-6.4805 6.6484-13.16 8.5391-19.824 1.1836-4.1914 5.5664-6.6406 9.7188-5.4258 4.1836 1.1836 6.6094 5.5352 5.4258 9.7188-2.2461 7.9336-5.6445 15.836-10.102 23.492-14.242 24.184-36.199 38.039-60.254 38.039z"/>
 </g>
</svg>