<?xml version="1.0" encoding="UTF-8"?>
<!-- The Best Svg Icon site in the world: iconSvg.co, Visit us! https://iconsvg.co -->
<svg fill="#000000" width="800px" height="800px" version="1.1" viewBox="144 144 512 512" xmlns="http://www.w3.org/2000/svg">
 <g>
  <path d="m510.21 211.07h-23.617v-7.8711c0-3.8281-2.75-7.1016-6.5234-7.7578l-181.05-31.488c-3.207-0.55859-6.4258 0.91406-8.1016 3.707-1.0078 1.6875-24.734 41.879-24.734 98.516 0 56.633 23.727 96.832 24.738 98.516l-0.003906-0.003906c1.7344 2.8984 5.125 4.3633 8.4258 3.6406l124.28-27.016v74.43c-4.3477 0-7.8711 3.5234-7.8711 7.8711v173.19c0 14.059 7.5039 27.055 19.68 34.086 12.18 7.0312 27.184 7.0312 39.359 0 12.18-7.0312 19.68-20.027 19.68-34.086v-173.19c0-2.0859-0.82813-4.0898-2.3047-5.5664s-3.4766-2.3047-5.5664-2.3047v-94.465h23.617c6.2617-0.007813 12.262-2.4961 16.691-6.9258 4.4258-4.4258 6.918-10.43 6.9258-16.688v-62.977c-0.007813-6.2617-2.5-12.266-6.9258-16.691-4.4297-4.4297-10.43-6.918-16.691-6.9258zm-208.41 140.61c-12.965-26.648-19.758-55.875-19.879-85.508 0.15234-29.719 6.9883-59.02 20.004-85.734l30.582 5.3203c-7.3633 14.789-19.098 44.059-19.098 80.414 0 35.215 11.012 63.785 18.395 78.988zm45.922-9.9844c-6.3789-12.391-18.57-40.641-18.57-75.523 0-36.969 13.691-66.492 19.648-77.582l122.05 21.227v105.11zm123.13-10.652v84.695h-31.488v-77.852zm7.8711 265.75c0 8.4336-4.5 16.23-11.809 20.449-7.3047 4.2188-16.309 4.2188-23.617 0-7.3047-4.2188-11.805-12.016-11.805-20.449v-165.31h47.23zm39.359-299.14c-0.003906 4.3438-3.5273 7.8672-7.8711 7.8711h-23.617v-78.723h23.617c4.3438 0.007812 7.8672 3.5273 7.8711 7.875z"/>
  <path d="m462.98 581.05c0 4.3477-3.5273 7.8711-7.875 7.8711-4.3477 0-7.8711-3.5234-7.8711-7.8711 0-4.3477 3.5234-7.8711 7.8711-7.8711 4.3477 0 7.875 3.5234 7.875 7.8711"/>
 </g>
</svg>