<?xml version="1.0" encoding="UTF-8"?>
<!-- The Best Svg Icon site in the world: iconSvg.co, Visit us! https://iconsvg.co -->
<svg fill="#000000" width="800px" height="800px" version="1.1" viewBox="144 144 512 512" xmlns="http://www.w3.org/2000/svg">
 <g>
  <path d="m596.48 601.52c2.7812 0 5.0391-2.2539 5.0391-5.0391v-145.48c0-2.7852-2.2578-5.0391-5.0391-5.0391-97.566 0-147.31-7.6133-195.3-14.988-1.3398-20.922-1.543-40.984-1.0547-59.426 6.7109 2.0664 18.656 5.0586 31.629 5.0586 10.812 0 22.324-2.082 32.082-8.5078 27.051-17.824 28.695-61.223 28.758-63.062 0.066407-2.1328-1.2148-4.0703-3.1953-4.8477-1.707-0.66406-42.246-16.27-69.289 1.5508-7.3203 4.8203-12.727 11.539-16.797 18.777 2.0352-20.777 4.4805-36.426 5.9062-44.637 7.1758 2.4336 19.965 5.9805 33.684 5.9805 10.027 0 20.547-1.8984 29.699-7.5117 27.605-16.941 30.656-60.262 30.773-62.094 0.13672-2.125-1.0781-4.1016-3.0391-4.9414-1.6875-0.73047-41.695-17.629-69.301-0.69531-27.609 16.938-30.656 60.266-30.773 62.098 0 0.019532 0.003907 0.035156 0.003907 0.054688-0.51953 2.7109-1.7344 9.3672-3.168 19.227-3.4453-14.152-10.617-31.852-25.59-41.719-27.051-17.82-67.574-2.2148-69.289-1.5508-1.9805 0.77734-3.2578 2.7148-3.1953 4.8477 0.054688 1.832 1.707 45.238 28.754 63.062 9.7578 6.4297 21.27 8.5078 32.082 8.5078 14.566 0 27.836-3.7695 33.852-5.7695-3.0469 29.367-5.4023 69.727-2.7188 114.04-45.645-6.957-95.445-13.672-187.48-13.672-2.7812 0-5.0391 2.2539-5.0391 5.0391l0.003906 175.7c0 2.7852 2.2578 5.0391 5.0391 5.0391zm-170.82-291.36c18.586-12.246 46.824-4.9062 56.598-1.7773-0.98828 10.207-5.375 39.059-23.957 51.309-18.582 12.246-46.836 4.8984-56.598 1.7773 0.96484-10.207 5.3203-39.031 23.957-51.309zm-92.336-5.9414c-18.582-12.246-22.969-41.098-23.957-51.309 9.7734-3.125 38.012-10.473 56.594 1.7773 18.582 12.246 22.969 41.098 23.957 51.309-9.7695 3.1328-38.012 10.473-56.594-1.7773zm102.98-89.012c18.969-11.637 46.969-3.3789 56.629 0.054687-1.3008 10.168-6.5781 38.828-25.605 50.496-18.969 11.645-46.953 3.3867-56.625-0.050781 1.3164-10.168 6.6328-38.863 25.602-50.5zm-37.074 225.66c47.648 7.332 96.898 14.906 192.21 15.168v57.625l-136.28 0.003907c-2.7812 0-5.0391 2.2539-5.0391 5.0391 0 2.7852 2.2578 5.0391 5.0391 5.0391h136.27v67.699h-382.89v-26.762h136.34c2.7812 0 5.0391-2.2539 5.0391-5.0391 0-2.7852-2.2578-5.0391-5.0391-5.0391l-136.34 0.003906v-128.79c94.535 0.26172 143.41 7.7773 190.68 15.047z"/>
  <path d="m236.26 482.82h47.23c2.7812 0 5.0391-2.2539 5.0391-5.0391s-2.2578-5.0391-5.0391-5.0391h-47.23c-2.7812 0-5.0391 2.2539-5.0391 5.0391s2.2578 5.0391 5.0391 5.0391z"/>
  <path d="m315.61 482.82h137.92c2.7812 0 5.0391-2.2539 5.0391-5.0391s-2.2578-5.0391-5.0391-5.0391h-137.92c-2.7812 0-5.0391 2.2539-5.0391 5.0391 0.003907 2.7852 2.2578 5.0391 5.0391 5.0391z"/>
  <path d="m424.24 554.61h-47.23c-2.7812 0-5.0391 2.2539-5.0391 5.0391 0 2.7852 2.2578 5.0391 5.0391 5.0391h47.23c2.7812 0 5.0391-2.2539 5.0391-5.0391 0-2.7891-2.2539-5.0391-5.0391-5.0391z"/>
  <path d="m297.66 523.75h125.39c2.7812 0 5.0391-2.2539 5.0391-5.0391 0-2.7852-2.2578-5.0391-5.0391-5.0391h-125.39c-2.7812 0-5.0391 2.2539-5.0391 5.0391 0 2.7852 2.2539 5.0391 5.0391 5.0391z"/>
 </g>
</svg>