<?xml version="1.0" encoding="UTF-8"?>
<!-- The Best Svg Icon site in the world: iconSvg.co, Visit us! https://iconsvg.co -->
<svg fill="#000000" width="800px" height="800px" version="1.1" viewBox="144 144 512 512" xmlns="http://www.w3.org/2000/svg">
 <path d="m313.41 234.21v5.4141l-57.938-3.8555c-8.4375-0.56641-16.734 2.3945-22.906 8.1719-6.1719 5.793-9.6836 13.871-9.6836 22.324v12.723c0 22.434 13.539 42.668 34.289 51.215l43.66 17.965c-5.6836 10.188-13.145 19.414-22.199 27.176-0.86719 0.73828-1.7148 1.4648-2.5352 2.1719-11.289 9.668-17.789 23.805-17.789 38.668v169.04c0 28.133 22.797 50.934 50.934 50.934h181.53c28.133 0 50.934-22.797 50.934-50.934v-169.04c0-14.863-6.5039-29-17.789-38.668 0.1875 0.15625 0.37891 0.31641 0.55078 0.48828l-3.0859-2.6602c-9.0547-7.7617-16.516-16.988-22.199-27.176l43.66-17.965c20.75-8.5508 34.289-28.781 34.289-51.215v-12.723c0-8.4531-3.5117-16.531-9.6836-22.324-6.1719-5.7773-14.469-8.7383-22.906-8.1719l-57.938 3.8555v-5.4141c13.43-2.4727 23.617-14.25 23.617-28.402v-13.098c0-15.949-12.926-28.875-28.875-28.875h-162.67c-15.949 0-28.875 12.926-28.875 28.875v13.098c0 14.152 10.188 25.93 23.617 28.402zm141.7 22.246v-21.773h-110.21v66.156l-0.015625 0.89844c-0.58203 37.52-17.223 73.035-45.77 97.504-0.86719 0.75391-1.7148 1.4805-2.5352 2.1719-4.2969 3.6992-6.7852 9.0859-6.7852 14.77v169.04c0 10.738 8.707 19.445 19.445 19.445h181.53c10.738 0 19.445-8.707 19.445-19.445v-169.04c0-5.6836-2.4883-11.066-6.7852-14.77 0.25 0.21875 0.50391 0.42578 0.78906 0.62891l-3.2422-2.7383-0.078125-0.0625c-28.543-24.465-45.184-59.984-45.77-97.504l-0.015625-0.89844v-1.1328-43.25zm-42.148 150.34c-2.9453-4.2656-7.7773-6.8008-12.957-6.8008-5.1797 0-10.012 2.5352-12.957 6.8008 0 0-16.199 23.508-25.93 43.863-5.2109 10.879-8.3438 21.223-8.3438 28.055 0 26.07 21.16 47.23 47.23 47.23 26.07 0 47.23-21.16 47.23-47.23 0-6.832-3.1328-17.176-8.3438-28.055-9.7305-20.355-25.93-43.863-25.93-43.863zm-12.957 38.18c3.6211 6.0781 7.4141 12.848 10.484 19.254 2.7383 5.7305 5.2578 10.895 5.2578 14.484 0 8.6914-7.0547 15.742-15.742 15.742-8.6914 0-15.742-7.0547-15.742-15.742 0-3.5898 2.5195-8.7539 5.2578-14.484 3.0703-6.4062 6.8633-13.18 10.484-19.254zm-86.594-173.78v29.754l-0.015625 0.58203c-0.10938 5.7461-0.70703 11.445-1.875 16.988l-42.352-17.445c-8.957-3.6836-14.801-12.406-14.801-22.09v-11.73l59.039 3.9375zm173.18 0 59.039-3.9375v11.73c0 9.6836-5.8398 18.406-14.801 22.09l-42.352 17.445c-1.1641-5.543-1.7617-11.227-1.875-16.988l-0.015625-0.67578v-29.66zm-165.31-68h157.44v-7.8711h-157.44z" fill-rule="evenodd"/>
</svg>