<?xml version="1.0" encoding="UTF-8"?>
<!-- The Best Svg Icon site in the world: iconSvg.co, Visit us! https://iconsvg.co -->
<svg fill="#000000" width="800px" height="800px" version="1.1" viewBox="144 144 512 512" xmlns="http://www.w3.org/2000/svg">
 <g>
  <path d="m535.08 247.52c0 11.414-9.2891 20.703-20.703 20.703l-228.76 0.003906c-11.414 0-20.703-9.2891-20.703-20.703 0-11.418 9.2891-20.707 20.703-20.707h228.76c11.414 0 20.703 9.2891 20.703 20.703z"/>
  <path d="m536.89 355.91h-0.23828c-23.93 0-51.484-16.688-61.48-23.379l-16.059 6.0625c-38.102 14.25-80.137 14.25-118.24 0l-16.059-6.0625c-10.078 6.7695-37.707 23.539-61.719 23.379-12.043 59.355-7.3203 126.5 13.617 194.68 2.7578 12.359 15.75 22.594 27.949 22.594h190.66c12.203 0 25.191-10.234 27.789-21.965 21.098-68.801 25.82-135.95 13.777-195.3zm-145.16 147.05-35.504 20.469-35.582-20.469v-41.09l35.582-20.469 35.504 20.469zm-27.238-74.312v-41.094l35.504-20.465 35.504 20.469v41.094l-35.504 20.465zm114.77 74.312-35.504 20.469-35.504-20.469v-41.09l35.504-20.469 35.504 20.469z"/>
  <path d="m554.92 329.78c-2.5977 5.2734-6.2969 8.3438-11.652 9.6836-19.203 4.8008-51.559-14.328-62.5-22.121l-3.3867-2.4414-23.773 8.9727c-34.559 12.91-72.66 12.91-107.22 0l-23.773-8.9727-3.3828 2.4414c-10.941 7.793-43.375 26.922-62.504 22.121-5.3516-1.3398-9.0508-4.4102-11.652-9.6836-12.676-25.27 12.043-44.398 22.121-50.852 5.4336 3.2266 11.73 5.0391 18.422 5.0391h228.76c6.6914 0 12.988-1.8125 18.422-5.0391 10.074 6.4531 34.793 25.582 22.117 50.852z"/>
 </g>
</svg>