<?xml version="1.0" encoding="UTF-8"?>
<!-- The Best Svg Icon site in the world: iconSvg.co, Visit us! https://iconsvg.co -->
<svg fill="#000000" width="800px" height="800px" version="1.1" viewBox="144 144 512 512" xmlns="http://www.w3.org/2000/svg">
 <g>
  <path d="m208.32 595.23c-3.8203 5.0898-5.6055 11.426-5.0039 17.766 0.60156 6.3398 3.543 12.223 8.2539 16.508 4.7109 4.2852 10.848 6.6602 17.215 6.6602h342.43c6.3672 0 12.504-2.375 17.215-6.6602 4.7109-4.2852 7.6523-10.168 8.2539-16.508 0.60156-6.3398-1.1797-12.676-5-17.766l-16.531-22.043c-1.2734-1.707-1.9648-3.7773-1.9688-5.9062v-185.82c10.191-12.566 15.75-28.254 15.742-44.43v-78.723c-0.023437-20.871-8.3242-40.879-23.082-55.637-14.758-14.758-34.766-23.059-55.637-23.082h-69.52c-11.129-10.129-25.641-15.742-40.688-15.742-15.051 0-29.562 5.6133-40.691 15.742h-69.52c-20.871 0.023438-40.879 8.3242-55.637 23.082-14.758 14.758-23.059 34.766-23.082 55.637v78.723c-0.007812 16.176 5.5508 31.863 15.742 44.43v189.11zm370.77 9.4453c2.2383 2.9805 2.5977 6.9688 0.92969 10.305-1.668 3.332-5.0742 5.4375-8.8008 5.4375h-342.43c-3.7266 0-7.1328-2.1055-8.8008-5.4375-1.668-3.3359-1.3086-7.3242 0.92969-10.305l20.074-26.766c1.0195-1.3633 1.5742-3.0195 1.5742-4.7227v-177.29c11.633 7.8203 25.34 11.992 39.359 11.98h236.16c14.02 0.011718 27.727-4.1602 39.359-11.98v171.39c0.011719 5.5352 1.8047 10.918 5.1172 15.352zm-5.9023-346.37c-0.011719 17.742-7.5312 34.648-20.695 46.539l-97.387-109.52h55.105c16.695 0.019531 32.703 6.6602 44.512 18.469 11.805 11.805 18.445 27.812 18.465 44.508zm-173.18-78.719c12.773 0.003907 24.934 5.4688 33.422 15.012l106.12 119.39c-9.0352 4.7969-19.109 7.3047-29.34 7.2969h-220.42c-2.6328-0.019532-5.2617-0.20312-7.8711-0.55078-0.83594-0.10156-1.6523-0.23437-2.4805-0.37891-1.7773-0.29297-3.5273-0.66797-5.2578-1.1094-0.89063-0.22656-1.793-0.42578-2.6758-0.69141-2.1406-0.64844-4.2422-1.4141-6.2969-2.2891-1.2266-0.52734-2.4102-1.1328-3.5977-1.7305l-1.0859-0.57422 106.05-119.37c8.4922-9.5391 20.652-15 33.426-15.004zm-110.21 15.742h55.105l-97.387 109.52-0.74609-0.67578c-0.65234-0.62109-1.3242-1.2266-1.9531-1.875-0.98438-1-1.9141-2.0391-2.8242-3.1016-0.91406-1.0625-1.6836-2.0781-2.4961-3.1484-0.71484-0.95312-1.4492-1.8906-2.1094-2.8828v0.003906c-1.25-1.8945-2.3984-3.8516-3.4414-5.8672-0.48828-0.94531-0.94531-1.9062-1.3867-2.8828-0.44141-0.97656-0.91406-2.0391-1.3164-3.0781-0.40234-1.0391-0.78906-2.1094-1.1719-3.1875-0.38672-1.0781-0.65234-2.1328-0.95312-3.2109s-0.58984-2.1328-0.83594-3.2266c-0.26953-1.25-0.45703-2.5117-0.65234-3.7773-0.14062-0.9375-0.32422-1.8594-0.42578-2.8086h0.003907c-1.9805-17.793 3.7188-35.586 15.668-48.91 11.953-13.328 29.023-20.926 46.922-20.887zm-59.828 113.98c6.1797 7.3008 13.652 13.402 22.043 17.996 0.14844 0.085938 0.29297 0.17969 0.44922 0.26172 1.8008 0.97656 3.6523 1.8438 5.5117 2.6758 0.73047 0.32422 1.4648 0.64453 2.2031 0.94531 1.6211 0.65625 3.2617 1.2578 4.9219 1.8125 1.1484 0.37891 2.3047 0.70703 3.4727 1.0391 1.4258 0.39453 2.8438 0.78906 4.2969 1.1016 1.6211 0.36328 3.2734 0.61328 4.9297 0.875 1.1172 0.16406 2.2109 0.38672 3.3359 0.51172v-0.003907c2.875 0.32422 5.7695 0.49219 8.6641 0.50391h220.42c2.957-0.011719 5.9102-0.19141 8.8477-0.52734 0.9375-0.10938 1.8516-0.29297 2.7773-0.42578 1.9531-0.30078 3.9375-0.62109 5.8086-1.0625 1.0547-0.23437 2.0859-0.51953 3.1484-0.78906 1.7539-0.47266 3.4805-1 5.1875-1.5742 1.0234-0.35547 2.0391-0.71484 3.0469-1.1094 1.7148-0.68359 3.3867-1.4336 5.0469-2.2266 0.89063-0.42578 1.793-0.82812 2.668-1.2812 1.9375-1.0234 3.8008-2.1406 5.6445-3.3125 0.51172-0.33203 1.0625-0.61328 1.5742-0.95312l0.003907-0.003907c2.3086-1.5508 4.5312-3.2227 6.668-5.0078 0.56641-0.47266 1.0781-1 1.6289-1.4883 1.5742-1.3555 3.0312-2.7383 4.457-4.2031 0.69922-0.73047 1.3633-1.4883 2.0391-2.2422 1.1953-1.332 2.3633-2.6914 3.4648-4.1016 0.31641-0.41016 0.68359-0.78906 1-1.1875l-0.003906 31.496c0 14.344-5.6133 28.117-15.641 38.375h-0.13672v0.10937c-10.336 10.629-24.531 16.621-39.359 16.617h-236.16c-14.609-0.015625-28.617-5.8242-38.945-16.156-10.332-10.332-16.141-24.336-16.16-38.945v-31.434c0.54297 0.73047 1.1719 1.3711 1.7383 2.0703 0.46094 0.55859 0.92578 1.0938 1.4102 1.6445z"/>
  <path d="m462.98 478.72h-15.746c-14.824-0.003906-29.023 5.9922-39.359 16.617v-16.617c12.523-0.011719 24.527-4.9922 33.383-13.848 8.8555-8.8555 13.836-20.863 13.848-33.383 0-2.0898-0.82812-4.0898-2.3047-5.5664s-3.4766-2.3086-5.5664-2.3086h-7.8711c-15.84 0.011719-30.621 7.9648-39.359 21.176-8.7422-13.211-23.52-21.164-39.363-21.176h-7.8711c-4.3477 0-7.8711 3.5273-7.8711 7.875 0.011719 12.52 4.9922 24.527 13.848 33.383 8.8555 8.8555 20.863 13.836 33.383 13.848v16.617c-10.336-10.625-24.531-16.621-39.359-16.617h-15.742c-4.3477 0-7.875 3.5234-7.875 7.8711 0.019531 14.609 5.8281 28.617 16.16 38.945 10.332 10.332 24.336 16.145 38.945 16.16h7.8711v12.484l-37.055 37.055h0.003907c-2.2539 2.25-2.9258 5.6367-1.707 8.5781s4.0859 4.8594 7.2695 4.8594h78.723c3.1836 0 6.0508-1.918 7.2695-4.8594s0.54688-6.3281-1.7031-8.5781l-37.055-37.055v-12.484h7.8711c14.609-0.015624 28.617-5.8281 38.945-16.16 10.332-10.328 16.141-24.336 16.16-38.945 0-2.0859-0.83203-4.0898-2.3047-5.5664-1.4766-1.4766-3.4805-2.3047-5.5664-2.3047zm-101.34-39.359c6.8047 0.22656 13.355 2.6523 18.668 6.9062 5.3164 4.2578 9.1133 10.117 10.82 16.711-6.8047-0.23047-13.352-2.6523-18.668-6.9102-5.3164-4.2539-9.1094-10.117-10.82-16.707zm22.617 86.59c-9.0703-0.007813-17.859-3.1445-24.887-8.8828-7.0273-5.7344-11.859-13.719-13.688-22.605h7.0859c9.0703 0.011718 17.859 3.1484 24.887 8.8867 7.0273 5.7344 11.859 13.719 13.688 22.602zm54.105-86.594v0.003906c-1.7109 6.5898-5.5078 12.449-10.82 16.707-5.3164 4.2578-11.863 6.6797-18.668 6.9102 1.707-6.5938 5.5039-12.453 10.816-16.711 5.3164-4.2578 11.867-6.6797 18.672-6.9062zm-58.719 149.57 20.359-20.355 20.355 20.355zm36.102-62.977h-7.0859c1.8281-8.8828 6.6602-16.867 13.688-22.602 7.0273-5.7383 15.816-8.875 24.887-8.8867h7.0859c-1.8281 8.8867-6.6602 16.871-13.688 22.605-7.0273 5.7383-15.816 8.875-24.887 8.8828z"/>
  <path d="m360.64 226.81h15.742v15.742h-15.742z"/>
  <path d="m384.25 266.18h15.742v15.742h-15.742z"/>
  <path d="m447.23 250.43h15.742v15.742h-15.742z"/>
  <path d="m321.28 289.79h15.742v15.742h-15.742z"/>
  <path d="m470.85 289.79h15.742v15.742h-15.742z"/>
 </g>
</svg>