<?xml version="1.0" encoding="UTF-8"?>
<!-- The Best Svg Icon site in the world: iconSvg.co, Visit us! https://iconsvg.co -->
<svg fill="#000000" width="800px" height="800px" version="1.1" viewBox="144 144 512 512" xmlns="http://www.w3.org/2000/svg">
 <path d="m578.89 626.71h-82.039c-2.7852 0-5.0391-2.2578-5.0391-5.0391v-45.977h-40.934v45.98c0 2.7812-2.2539 5.0391-5.0391 5.0391l-82.043-0.003906c-2.7852 0-5.0391-2.2578-5.0391-5.0391v-45.977h-40.305v45.98c0 2.7812-2.2539 5.0391-5.0391 5.0391l-82.043-0.003906c-2.7852 0-5.0391-2.2578-5.0391-5.0391v-45.977h-35.73c-2.7852 0-5.0391-2.2578-5.0391-5.0391v-45.344c0-2.7812 2.2539-5.0391 5.0391-5.0391h35.734v-111.68h-35.734c-2.7852 0-5.0391-2.2578-5.0391-5.0391v-45.344c0-2.7812 2.2539-5.0391 5.0391-5.0391h35.734v-49.539c0-0.96875 0.28125-1.918 0.80469-2.7305l42.301-65.496c0.93359-1.4414 2.5234-2.3086 4.2305-2.3086h0.070313c1.7383 0.023438 3.3359 0.94141 4.2383 2.4219l39.75 65.496c0.48438 0.78906 0.73438 1.6914 0.73438 2.6133v49.539h40.305v-49.539c0-0.96875 0.28125-1.918 0.80469-2.7305l42.301-65.496c0.93359-1.4414 2.5234-2.3086 4.2305-2.3086h0.070313c1.7383 0.023438 3.3359 0.94141 4.2383 2.4219l39.746 65.496c0.48438 0.78516 0.73438 1.6875 0.73438 2.6133v49.539h40.934v-49.539c0-0.96875 0.28125-1.918 0.80469-2.7305l42.301-65.496c0.93359-1.4414 2.5234-2.3086 4.2305-2.3086h0.070312c1.7383 0.023438 3.3359 0.94141 4.2383 2.4219l39.746 65.496c0.48438 0.78516 0.73438 1.6875 0.73438 2.6133v49.539h29.031c2.7852 0 5.0391 2.2578 5.0391 5.0391v45.344c0 2.7812-2.2539 5.0391-5.0391 5.0391h-29.031v111.68h29.031c2.7852 0 5.0391 2.2578 5.0391 5.0391v45.344c0 2.7812-2.2539 5.0391-5.0391 5.0391h-29.031l0.007813 45.988c-0.03125 2.7812-2.2812 5.0352-5.0703 5.0352zm-77-10.074h71.965v-40.941h-71.965zm-133.05 0h71.969v-40.941h-71.969zm-132.43 0h71.969v-40.941h-71.969zm342.49-51.016h29.023v-35.266h-412.28v35.266zm-77.008-45.344h71.965v-111.68h-71.965zm-51.012 0h40.934v-111.68h-40.934zm-82.043 0h71.969v-111.68h-71.969zm-50.383 0h40.305v-111.68h-40.305zm-82.047 0h71.969v-111.68h-71.969zm342.49-121.75h29.023v-35.266l-412.28-0.003906v35.266zm-77.008-45.344h71.965v-48.133l-34.84-57.414-37.125 57.488zm-133.05 0h71.969v-48.133l-34.84-57.414-37.125 57.488v48.059zm-132.43 0h71.969v-48.133l-34.844-57.414-37.125 57.488zm301.46 207.4c-6.9492 0-12.594-5.6523-12.594-12.594 0-6.9414 5.6484-12.594 12.594-12.594 6.9492 0 12.594 5.6523 12.594 12.594 0.003906 6.9414-5.6445 12.594-12.594 12.594zm0-15.113c-1.3867 0-2.5195 1.1289-2.5195 2.5195s1.1328 2.5195 2.5195 2.5195 2.5195-1.1289 2.5195-2.5195-1.1289-2.5195-2.5195-2.5195zm-133.05 15.113c-6.9492 0-12.594-5.6523-12.594-12.594 0-6.9414 5.6484-12.594 12.594-12.594 6.9492 0 12.594 5.6523 12.594 12.594 0 6.9414-5.6484 12.594-12.594 12.594zm0-15.113c-1.3867 0-2.5195 1.1289-2.5195 2.5195s1.1328 2.5195 2.5195 2.5195c1.3867 0 2.5195-1.1289 2.5195-2.5195s-1.1328-2.5195-2.5195-2.5195zm-132.42 15.113c-6.9492 0-12.594-5.6523-12.594-12.594 0-6.9414 5.6484-12.594 12.594-12.594 6.9492 0 12.594 5.6523 12.594 12.594 0 6.9414-5.6445 12.594-12.594 12.594zm0-15.113c-1.3867 0-2.5195 1.1289-2.5195 2.5195s1.1328 2.5195 2.5195 2.5195c1.3867 0 2.5195-1.1289 2.5195-2.5195s-1.1328-2.5195-2.5195-2.5195zm265.48-150.3c-6.9492 0-12.594-5.6523-12.594-12.594 0-6.9414 5.6484-12.594 12.594-12.594 6.9492 0 12.594 5.6523 12.594 12.594 0.003906 6.9414-5.6445 12.594-12.594 12.594zm0-15.117c-1.3867 0-2.5195 1.1289-2.5195 2.5195 0 1.3906 1.1328 2.5195 2.5195 2.5195s2.5195-1.1289 2.5195-2.5195c0-1.3906-1.1289-2.5195-2.5195-2.5195zm-133.05 15.117c-6.9492 0-12.594-5.6523-12.594-12.594 0-6.9414 5.6484-12.594 12.594-12.594 6.9492 0 12.594 5.6523 12.594 12.594 0 6.9414-5.6484 12.594-12.594 12.594zm0-15.117c-1.3867 0-2.5195 1.1289-2.5195 2.5195 0 1.3906 1.1328 2.5195 2.5195 2.5195 1.3867 0 2.5195-1.1289 2.5195-2.5195 0-1.3906-1.1328-2.5195-2.5195-2.5195zm-132.42 15.117c-6.9492 0-12.594-5.6523-12.594-12.594 0-6.9414 5.6484-12.594 12.594-12.594 6.9492 0 12.594 5.6523 12.594 12.594 0 6.9414-5.6445 12.594-12.594 12.594zm0-15.117c-1.3867 0-2.5195 1.1289-2.5195 2.5195 0 1.3906 1.1328 2.5195 2.5195 2.5195 1.3867 0 2.5195-1.1289 2.5195-2.5195 0-1.3906-1.1328-2.5195-2.5195-2.5195z"/>
</svg>