<?xml version="1.0" encoding="UTF-8"?>
<!-- The Best Svg Icon site in the world: iconSvg.co, Visit us! https://iconsvg.co -->
<svg fill="#000000" width="800px" height="800px" version="1.1" viewBox="144 144 512 512" xmlns="http://www.w3.org/2000/svg">
 <path d="m501.01 300.81c38.172 0 69.113-30.965 69.078-69.137l-0.050782-58.391-31.371 47.117c-15.766 23.676-42.324 37.902-70.766 37.902l-135.8-0.003907c-28.445 0-55.008-14.223-70.766-37.902l-31.375-47.113-0.050782 58.391c-0.035156 38.172 30.902 69.137 69.078 69.137h-125.7l22.539 33.398c15.805 23.418 42.215 37.453 70.469 37.453h11.492l54.906 170.04-3.6523 17.523c-7.25 34.809 19.324 67.488 54.883 67.488h32.148c35.559 0 62.137-32.684 54.879-67.496l-3.6523-17.523 56.68-170.04h9.7188c28.254 0 54.66-14.035 70.469-37.453l22.547-33.391zm-151.39 135.27h-8.082c-14.711 0-26.676-11.965-26.676-26.676v-9.4102h10.625v9.4102c0 8.8516 7.1992 16.051 16.051 16.051h8.082zm29.121 148.12h-13.73c-5.1328 0-9.3008-4.1602-9.3008-9.3008v-10.184l19.41 5.9766c2.1445 0.66016 3.6133 2.6445 3.6133 4.8906l0.003906 8.6172zm65.535-9.3008c0 5.1328-4.1602 9.3008-9.3008 9.3008h-13.73v-8.6211c0-2.2461 1.4648-4.2305 3.6133-4.8906l19.41-5.9766 0.003907 10.188zm40.793-165.5c0 14.711-11.965 26.676-26.676 26.676h-8.082v-10.625h8.082c8.8516 0 16.051-7.1992 16.051-16.051v-9.4102h10.625z"/>
</svg>