<?xml version="1.0" encoding="UTF-8"?>
<!-- The Best Svg Icon site in the world: iconSvg.co, Visit us! https://iconsvg.co -->
<svg fill="#000000" width="800px" height="800px" version="1.1" viewBox="144 144 512 512" xmlns="http://www.w3.org/2000/svg">
 <g>
  <path d="m577.59 454.16h-355.18c-5.9844 0-10.707 4.7227-10.707 10.707s4.7227 10.707 10.707 10.707h49.438l-35.582 51.012c-3.4648 4.7227-2.2031 11.336 2.832 14.801 1.8906 1.2578 4.0938 1.8906 5.9844 1.8906 3.4648 0 6.6133-1.5742 8.8164-4.7227l43.77-63.293h13.855l-43.141 93.52c-2.5195 5.3516 0 11.652 5.3516 14.168 1.5742 0.62891 2.832 0.94531 4.4102 0.94531 4.0938 0 7.8711-2.2031 9.7617-6.2969l47.23-102.34h15.742l-29.914 129.42c-1.2578 5.668 2.2031 11.336 7.8711 12.91 0.94531 0.31641 1.5742 0.31641 2.5195 0.31641 4.7227 0 9.1328-3.4648 10.391-8.1875l30.859-134.14h16.688v145.48c0 5.9844 4.7227 10.707 10.707 10.707s10.707-4.7227 10.707-10.707v-145.48h16.688l30.859 134.14c1.2578 5.0391 5.668 8.1875 10.391 8.1875 0.94531 0 1.5742 0 2.5195-0.31641 5.668-1.2578 9.4453-6.9258 7.8711-12.91l-29.914-129.42h15.742l47.23 102.34c1.8906 3.7773 5.668 6.2969 9.7617 6.2969 1.5742 0 3.1484-0.31641 4.4102-0.94531 5.3516-2.5195 7.5586-8.8164 5.3516-14.168l-43.141-93.52h13.855l43.77 63.293c2.2031 3.1484 5.3516 4.7227 8.8164 4.7227 2.2031 0 4.0938-0.62891 5.9844-1.8906 4.7227-3.4648 5.9844-10.078 2.832-14.801l-35.266-51.324h49.121c5.9844 0 10.707-4.7227 10.707-10.707 0.003906-5.668-5.0352-10.395-10.703-10.395z"/>
  <path d="m400 235.95c5.9844 0 10.707-4.7227 10.707-10.707l-0.003906-45.973c0-5.9844-4.7227-10.707-10.707-10.707s-10.707 4.7227-10.707 10.707v46.289c0.003907 5.668 4.7266 10.391 10.711 10.391z"/>
  <path d="m423.61 240.67c1.2578 0.62891 2.832 0.94531 4.0938 0.94531 4.0938 0 8.1875-2.5195 9.7617-6.6133l11.965-28.34c2.2031-5.3516-0.31641-11.652-5.668-13.855-5.3516-2.2031-11.652 0.31641-13.855 5.668l-11.965 28.34c-2.2031 5.3555 0.31641 11.652 5.668 13.855z"/>
  <path d="m443.14 253.89c2.2031 2.2031 4.7227 3.1484 7.5586 3.1484 2.832 0 5.3516-0.94531 7.5586-3.1484l32.746-32.746c4.0938-4.0938 4.0938-11.02 0-15.113s-11.02-4.0938-15.113 0l-32.75 32.746c-4.0938 4.0898-4.0938 11.02 0 15.113z"/>
  <path d="m461.71 259.25c-5.3516 2.2031-7.8711 8.5-5.668 13.855 1.5742 4.0938 5.668 6.6133 9.7617 6.6133 1.2578 0 2.832-0.31641 4.0938-0.94531l28.34-11.965c5.3516-2.2031 7.8711-8.5 5.668-13.855-2.2031-5.3516-8.5-7.8711-13.855-5.668z"/>
  <path d="m461.09 297.03c0 5.9844 4.7227 10.707 10.707 10.707h46.289c5.9844 0 10.707-4.7227 10.707-10.707s-4.7227-10.707-10.707-10.707h-46.289c-5.9844 0.003906-10.707 4.7266-10.707 10.707z"/>
  <path d="m504.22 340.8c2.2031-5.3516-0.31641-11.652-5.668-13.855l-28.34-11.965c-5.3516-2.2031-11.652 0.31641-13.855 5.668-2.2031 5.3516 0.31641 11.652 5.668 13.855l28.34 11.965c1.2578 0.62891 2.832 0.94531 4.0938 0.94531 4.0938 0 7.875-2.5195 9.7617-6.6133z"/>
  <path d="m483.13 390.87c2.832 0 5.3516-0.94531 7.5586-3.1484 4.0938-4.0938 4.0938-11.02 0-15.113l-32.438-32.75c-4.0938-4.0938-11.02-4.0938-15.113 0s-4.0938 11.02 0 15.113l32.746 32.746c1.8906 2.207 4.7266 3.1523 7.2461 3.1523z"/>
  <path d="m429.91 395.27c1.5742 4.0938 5.668 6.6133 9.7617 6.6133 1.2578 0 2.832-0.31641 4.0938-0.94531 5.3516-2.2031 7.8711-8.5 5.668-13.855l-11.965-28.34c-2.2031-5.3516-8.5-7.8711-13.855-5.668-5.3516 2.2031-7.8711 8.5-5.668 13.855z"/>
  <path d="m389.29 368.51v46.289c0 5.9844 4.7227 10.707 10.707 10.707s10.707-4.7227 10.707-10.707l-0.003906-46.289c0-5.9844-4.7227-10.707-10.707-10.707-5.9805 0-10.703 4.7227-10.703 10.707z"/>
  <path d="m355.91 400.94c1.2578 0.62891 2.832 0.94531 4.0938 0.94531 4.0938 0 8.1875-2.5195 9.7617-6.6133l11.965-28.34c2.2031-5.3516-0.31641-11.652-5.668-13.855-5.3516-2.2031-11.652 0.31641-13.855 5.668l-11.965 28.34c-2.2031 5.3555 0.31641 11.652 5.668 13.855z"/>
  <path d="m316.87 390.87c2.832 0 5.3516-0.94531 7.5586-3.1484l32.746-32.746c4.0938-4.0938 4.0938-11.02 0-15.113s-11.02-4.0938-15.113 0l-32.75 32.746c-4.0938 4.0938-4.0938 11.02 0 15.113 1.8906 2.2031 4.7227 3.1484 7.5586 3.1484z"/>
  <path d="m338.28 334.5c5.3516-2.2031 7.8711-8.5 5.668-13.855-2.2031-5.3516-8.5-7.8711-13.855-5.668l-28.34 11.965c-5.3516 2.2031-7.8711 8.5-5.668 13.855 1.5742 4.0938 5.668 6.6133 9.7617 6.6133 1.2578 0 2.832-0.31641 4.0938-0.94531z"/>
  <path d="m282.23 307.74h46.289c5.9844 0 10.707-4.7227 10.707-10.707s-4.7227-10.707-10.707-10.707l-46.289 0.003906c-5.9844 0-10.707 4.7227-10.707 10.707 0 5.9805 4.7227 10.703 10.707 10.703z"/>
  <path d="m301.44 266.8 28.34 11.965c1.2578 0.62891 2.832 0.94531 4.0938 0.94531 4.0938 0 8.1875-2.5195 9.7617-6.6133 2.2031-5.3516-0.31641-11.652-5.668-13.855l-28.34-11.965c-5.3516-2.2031-11.652 0.31641-13.855 5.668-2.2031 5.3516 0.3125 11.652 5.668 13.855z"/>
  <path d="m341.75 253.89c2.2031 2.2031 4.7227 3.1484 7.5586 3.1484 2.832 0 5.3516-0.94531 7.5586-3.1484 4.0938-4.0938 4.0938-11.02 0-15.113l-32.438-32.75c-4.0938-4.0938-11.02-4.0938-15.113 0s-4.0938 11.02 0 15.113z"/>
  <path d="m362.21 235c1.5742 4.0938 5.668 6.6133 9.7617 6.6133 1.2578 0 2.832-0.31641 4.0938-0.94531 5.3516-2.2031 7.8711-8.5 5.668-13.855l-11.965-28.34c-2.2031-5.3516-8.5-7.8711-13.855-5.668-5.3516 2.2031-7.8711 8.5-5.668 13.855z"/>
  <path d="m433.38 330.41c4.4102-4.4102 7.8711-9.4453 10.078-15.113 2.5195-5.9844 3.7773-11.965 3.7773-18.262s-1.2578-12.594-3.7773-18.262c-2.5195-5.668-5.668-10.707-10.078-15.113-4.4102-4.4102-9.4453-7.8711-15.113-10.078-11.652-5.0391-25.191-5.0391-36.84 0-5.668 2.5195-10.707 5.668-15.113 10.078-4.4102 4.4102-7.8711 9.4453-10.078 15.113-2.5195 5.9844-3.7773 11.965-3.7773 18.262s1.2578 12.594 3.7773 18.262 5.668 10.707 10.078 15.113c4.4102 4.4102 9.4453 7.8711 15.113 10.078 5.9844 2.5195 11.965 3.7773 18.262 3.7773s12.594-1.2578 18.262-3.7773c5.9844-2.5195 11.023-5.6719 15.43-10.078zm-23.301-9.4453c-6.2969 2.832-13.855 2.832-20.152 0-3.1484-1.2578-5.9844-3.1484-8.1875-5.668-2.5195-2.5195-4.4102-5.0391-5.668-8.1875-1.2578-3.1484-1.8906-6.6133-1.8906-10.078s0.62891-6.9258 1.8906-10.078c1.2578-3.1484 3.1484-5.9844 5.668-8.1875 2.5195-2.5195 5.0391-4.4102 8.1875-5.668 3.1484-1.2578 6.6133-1.8906 10.078-1.8906s6.9258 0.62891 10.078 1.8906c3.1484 1.2578 5.9844 3.1484 8.1875 5.668 2.5195 2.5195 4.4102 5.0391 5.668 8.1875 1.2578 3.1484 1.8906 6.6133 1.8906 10.078s-0.62891 6.9258-1.8906 10.078c-1.2578 3.1484-3.1484 5.9844-5.668 8.1875-2.207 2.5195-5.043 4.4062-8.1914 5.668z"/>
 </g>
</svg>