<?xml version="1.0" encoding="UTF-8"?>
<!-- The Best Svg Icon site in the world: iconSvg.co, Visit us! https://iconsvg.co -->
<svg fill="#000000" width="800px" height="800px" version="1.1" viewBox="144 144 512 512" xmlns="http://www.w3.org/2000/svg">
 <g>
  <path d="m599.51 578.85h-38.289l2.0156-32.242c1.0078-9.0703-2.0156-18.137-8.0625-24.688-5.0391-5.543-11.586-9.0703-18.641-10.078v-7.0547c5.543-3.5273 20.656-12.09 30.23-17.633 2.5195-1.5117 3.0234-4.5352 2.0156-7.0547-1.5117-2.5195-4.5352-3.0234-7.0547-2.0156-12.09 7.0547-20.152 11.586-25.191 14.609v-17.125c4.5352-3.0234 16.121-9.5742 26.199-15.617 2.5195-1.5117 3.0234-4.5352 2.0156-7.0547-1.5117-2.5195-4.5352-3.0234-7.0547-2.0156-10.078 5.543-16.625 9.5742-21.16 12.594v-17.633c3.5273-2.5195 11.586-7.0547 18.641-11.082 2.5195-1.5117 3.0234-4.5352 2.0156-7.0547-1.5117-2.5195-4.5352-3.0234-7.0547-2.0156-6.0469 3.5273-10.078 6.0469-13.602 8.0625v-11.586c0-3.0234-2.0156-5.0391-5.0391-5.0391-3.0234 0-5.0391 2.0156-5.0391 5.0391v11.586c-3.5273-2.0156-8.0625-4.5352-13.602-8.0625-2.5195-1.5117-5.543-0.50391-7.0547 2.0156s-0.50391 5.543 2.0156 7.0547c7.0547 4.0312 15.113 9.0703 18.641 11.082v17.633c-4.5352-3.0234-11.586-6.5508-21.664-12.594-2.5195-1.5117-5.543-0.50391-7.0547 2.0156-1.5117 2.5195-0.50391 5.543 2.0156 7.0547 10.578 6.0469 22.168 13.098 26.703 15.617v17.633c-5.0391-3.0234-13.098-7.5586-25.191-14.609-2.5195-1.5117-5.543-0.50391-7.0547 2.0156s-0.50391 5.543 2.0156 7.0547c9.5742 5.543 25.191 14.609 30.73 17.633v7.0547c-7.0547 1.0078-13.602 4.5352-18.641 10.078-6.0469 6.5508-9.0703 15.617-8.0625 24.688l2.0156 32.242h-25.191l2.0156-32.242c1.0078-9.0703-2.0156-18.137-8.0625-24.688-5.0391-5.543-11.586-9.0703-18.641-10.078v-7.0547c5.543-3.5273 20.656-12.09 30.23-17.633 2.5195-1.5117 3.0234-4.5352 2.0156-7.0547-1.5117-2.5195-4.5352-3.0234-7.0547-2.0156-12.09 7.0547-20.152 11.586-25.191 14.609l0.007812-17.633c4.5352-3.0234 16.121-9.5742 26.199-15.617 2.5195-1.5117 3.0234-4.5352 2.0156-7.0547-1.5117-2.5195-4.5352-3.0234-7.0547-2.0156-10.078 5.543-16.625 9.5742-21.16 12.594v-17.633c3.5273-2.5195 11.586-7.0547 18.641-11.082 2.5195-1.5117 3.0234-4.5352 2.0156-7.0547-1.5117-2.5195-4.5352-3.0234-7.0547-2.0156-6.0469 3.5273-10.078 6.0469-13.602 8.0625v-11.586c0-3.0234-2.0156-5.0391-5.0391-5.0391-3.0234 0-5.0391 2.0156-5.0391 5.0391v11.586c-3.5273-2.0156-8.0625-4.5352-13.602-8.0625-2.5195-1.5117-5.543-0.50391-7.0547 2.0156-1.5078 2.5195-1.5078 6.0469 0.50781 7.5586 7.0547 4.0312 15.113 9.0703 18.641 11.082v17.633c-4.5352-3.0234-11.586-6.5508-21.664-12.594-2.5195-1.5117-5.543-0.50391-7.0547 2.0156-1.5117 2.5195-0.50391 5.543 2.0156 7.0547 10.578 6.0469 22.168 13.098 26.703 15.617v17.633c-5.0391-3.0234-13.098-7.5586-25.191-14.609-2.5195-1.5117-5.543-0.50391-7.0547 2.0156s-0.50391 5.543 2.0156 7.0547c9.5742 5.543 25.191 14.609 30.73 17.633v7.0547c-7.0547 1.0078-13.602 4.5352-18.641 10.078-6.0469 6.5508-9.0703 15.617-8.0625 24.688l2.0156 32.242h-25.191l2.0156-32.242c1.0078-9.0703-2.0156-18.137-8.0625-24.688-5.0391-5.543-11.586-9.0703-18.641-10.078v-7.0547c5.543-3.5273 20.656-12.09 30.23-17.633 2.5195-1.5117 3.0234-4.5352 2.0156-7.0547-1.5117-2.5195-4.5352-3.0234-7.0547-2.0156-12.09 7.0547-20.152 11.586-25.191 14.609l0.003906-18.137c4.5352-3.0234 16.121-9.5742 26.199-15.617 2.5195-1.5117 3.0234-4.5352 2.0156-7.0547-1.5117-2.5195-4.5352-3.0234-7.0547-2.0156-10.078 5.543-16.625 9.5742-21.16 12.594v-17.633c3.5273-2.5195 11.586-7.0547 18.641-11.082 2.5195-1.5117 3.0234-4.5352 2.0156-7.0547-1.5117-2.5195-4.5352-3.0234-7.0547-2.0156-6.0469 3.5273-10.078 6.0469-13.602 8.0625v-11.586c0-3.0234-2.0156-5.0391-5.0391-5.0391-3.0234 0-5.0391 2.0156-5.0391 5.0391v11.586c-3.5273-2.0156-8.0625-4.5352-13.602-8.0625-2.5195-1.5117-5.543-0.50391-7.0547 2.0156s-0.50391 5.543 2.0156 7.0547c7.0547 4.0312 15.113 9.0703 18.641 11.082v17.633c-4.5352-3.0234-11.586-6.5508-21.664-12.594-2.5195-1.5117-5.543-0.50391-7.0547 2.0156-1.5117 2.5195-0.50391 5.543 2.0156 7.0547 10.578 6.0469 22.168 13.098 26.703 15.617v17.633c-5.0391-3.0234-13.098-7.5586-25.191-14.609-2.5195-1.5117-5.543-0.50391-7.0547 2.0156s-0.50391 5.543 2.0156 7.0547c9.5742 5.543 25.191 14.609 30.73 17.633v7.0547c-7.0547 1.0078-13.602 4.5352-18.641 10.078-6.0469 6.5508-9.0703 15.617-8.0625 24.688l2.0156 32.242h-25.191l2.0156-32.242c1.0078-9.0703-2.0156-18.137-8.0625-24.688-5.0391-5.543-11.586-9.0703-18.641-10.078v-7.0547c5.543-3.5273 20.656-12.09 30.23-17.633 2.5195-1.5117 3.0234-4.5352 2.0156-7.0547-1.5117-2.5195-4.5352-3.0234-7.0547-2.0156-12.09 7.0547-20.152 11.586-25.191 14.609l0.007813-17.633c4.5352-3.0234 16.121-9.5742 26.199-15.617 2.5195-1.5117 3.0234-4.5352 2.0156-7.0547-1.5117-2.5195-4.5352-3.0234-7.0547-2.0156-10.078 5.543-16.625 9.5742-21.16 12.594v-17.633c3.5273-2.5195 11.586-7.0547 18.641-11.082 2.5195-1.5117 3.0234-4.5352 2.0156-7.0547-1.5117-2.5195-4.5352-3.0234-7.0547-2.0156-6.0469 3.5273-10.078 6.0469-13.602 8.0625v-11.586c0-3.0234-2.0156-5.0391-5.0391-5.0391-3.0234 0-5.0391 2.0156-5.0391 5.0391v11.586c-3.5273-2.0156-8.0625-4.5352-13.602-8.0625-2.5195-1.5117-5.543-0.50391-7.0547 2.0156s-0.50391 5.543 2.0156 7.0547c7.0547 4.0312 15.113 9.0703 18.641 11.082v17.633c-4.5352-3.0234-11.586-6.5508-21.664-12.594-2.5195-1.5117-5.543-0.50391-7.0547 2.0156-1.5117 2.5195-0.50391 5.543 2.0156 7.0547 10.578 6.0469 22.168 13.098 26.703 15.617v17.633c-5.0391-3.0234-13.098-7.5586-25.191-14.609-2.5195-1.5117-5.543-0.50391-7.0547 2.0156-1.5117 2.5195-0.50391 5.543 2.0156 7.0547 9.5742 5.543 25.191 14.609 30.73 17.633v7.0547c-7.0547 1.0078-13.602 4.5352-18.641 10.078-6.0469 6.5508-9.0703 15.617-8.0625 24.688l2.0156 32.242h-39.801c-3.0234 0-5.0391 2.0156-5.0391 5.0391 0 3.0234 2.0156 5.0391 5.0391 5.0391h392.47c3.0234 0 5.0391-2.0156 5.0391-5.0391 0.003907-3.0273-4.0234-5.5469-6.543-5.5469zm-84.641-49.879c4.0312-4.5352 10.078-7.0547 16.121-7.0547 6.0469 0 12.09 2.5195 16.121 7.0547s6.0469 10.578 5.543 17.129h-43.832v-0.50391c0-6.043 2.0156-12.09 6.0469-16.625zm-5.0391 27.207h42.32l-1.5117 22.672h-39.297zm-79.602-27.207c4.0312-4.5352 10.078-7.0547 16.121-7.0547 6.0469 0 12.09 2.5195 16.121 7.0547s6.0469 10.578 5.543 17.129h-43.832v-0.50391c-0.50391-6.043 1.5117-12.09 6.0469-16.625zm-5.0391 27.207h42.32l-1.5117 22.672h-39.297zm-80.105-27.207c4.0312-4.5352 10.078-7.0547 16.121-7.0547 6.0469 0 12.09 2.5195 16.121 7.0547s6.0469 10.578 5.543 17.129h-43.324v-0.50391c-0.50391-6.043 1.5117-12.09 5.5391-16.625zm-5.0352 27.207h42.32l-1.5117 22.672h-39.297zm-79.605-27.207c4.0312-4.5352 10.078-7.0547 16.121-7.0547 6.0469 0 12.09 2.5195 16.121 7.0547s6.0469 10.578 5.543 17.129h-43.832v-0.50391c-0.5-6.043 1.5156-12.09 6.0469-16.625zm-5.0352 27.207h42.32l-1.5117 22.672h-39.297z"/>
  <path d="m446.35 297.73c0-23.176-19.145-42.32-42.32-42.32-23.176 0-42.32 19.145-42.32 42.32 0 23.176 19.145 42.32 42.32 42.32 23.176 0 42.32-19.145 42.32-42.32zm-42.824 32.242c-17.633 0-32.242-14.609-32.242-32.242 0-17.633 14.609-32.242 32.242-32.242 17.633 0 32.242 14.609 32.242 32.242 0.50781 17.633-14.102 32.242-32.242 32.242z"/>
  <path d="m408.56 231.73v-23.176c0-3.0234-2.0156-5.0391-5.0391-5.0391-3.0234 0-5.0391 2.0156-5.0391 5.0391v23.176c0 3.0234 2.0156 5.0391 5.0391 5.0391 3.0234 0 5.0391-2.5195 5.0391-5.0391z"/>
  <path d="m436.27 245.33c1.5117 0 3.5273-1.0078 4.5352-2.5195l11.586-20.152c1.5117-2.5195 0.50391-5.543-2.0156-7.0547-2.5195-1.5117-5.543-0.50391-7.0547 2.0156l-11.586 20.152c-1.5117 2.5195-0.50391 5.543 2.0156 7.0547 1.0078 0 2.0156 0.50391 2.5195 0.50391z"/>
  <path d="m463.48 268.5 19.648-11.586c2.5195-1.5117 3.0234-4.5352 2.0156-7.0547-1.5117-2.5195-4.5352-3.0234-7.0547-2.0156l-19.648 11.586c-2.5195 1.5117-3.0234 4.5352-2.0156 7.0547 1.0078 1.5117 2.5195 2.5195 4.5352 2.5195 0.50781 0 1.5156 0 2.5195-0.50391z"/>
  <path d="m497.74 296.21c0-2.5195-2.5195-5.0391-5.0391-5.0391l-23.176 0.50391c-3.0234 0-5.0391 2.5195-5.0391 5.0391s2.5195 5.0391 5.0391 5.0391l23.176-0.50391c3.0234-0.003906 5.543-2.5195 5.0391-5.0391z"/>
  <path d="m459.45 334 20.152 11.082c1.0078 0.50391 1.5117 0.50391 2.5195 0.50391 2.0156 0 3.5273-1.0078 4.5352-2.5195 1.5117-2.5195 0.50391-5.543-2.0156-7.0547l-20.152-11.082c-2.5195-1.5117-5.543-0.50391-7.0547 2.0156-1.5117 2.5195-0.50391 5.543 2.0156 7.0547z"/>
  <path d="m446.35 376.32c1.0078 1.5117 2.5195 2.5195 4.5352 2.5195 1.0078 0 2.0156 0 2.5195-0.50391 2.5195-1.5117 3.0234-4.5352 1.5117-7.0547l-12.09-19.648c-1.5117-2.5195-4.5352-3.0234-7.0547-1.5117-2.5195 1.5117-3.0234 4.5352-1.5117 7.0547z"/>
  <path d="m405.54 358.69c-3.0234 0-5.0391 2.5195-5.0391 5.0391l1.0078 23.176c0 2.5195 2.5195 5.0391 5.0391 5.0391 3.0234 0 5.0391-2.5195 5.0391-5.0391l-1.0078-23.176c0.50391-3.0234-2.0156-5.0391-5.0391-5.0391z"/>
  <path d="m359.7 381.36c0.50391 0.50391 1.5117 0.50391 2.5195 0.50391 2.0156 0 3.5273-1.0078 4.5352-2.5195l10.578-20.152c1.5117-2.5195 0.50391-5.543-2.0156-7.0547s-5.543-0.50391-7.0547 2.0156l-10.578 20.152c-1.0078 2.5195-0.50391 5.543 2.0156 7.0547z"/>
  <path d="m328.46 350.62c1.0078 0 2.0156-0.50391 2.5195-1.0078l19.145-12.594c2.5195-1.5117 3.0234-4.5352 1.5117-7.0547-1.5117-2.5195-4.5352-3.0234-7.0547-1.5117l-19.145 12.594c-2.5195 1.5117-3.0234 4.5352-1.5117 7.0547 1.5117 2.0156 3.0234 2.5195 4.5352 2.5195z"/>
  <path d="m309.82 302.26c0 2.5195 2.5195 5.0391 5.0391 5.0391h0.50391l23.176-1.0078c3.0234 0 5.0391-2.5195 4.5352-5.0391 0-3.0234-2.5195-5.0391-5.0391-4.5352l-23.68 0.50781c-2.5195 0-5.0391 2.5195-4.5352 5.0352z"/>
  <path d="m342.56 272.54c0.50391 0.50391 1.5117 0.50391 2.5195 0.50391 2.0156 0 3.5273-1.0078 4.5352-2.5195 1.0078-2.5195 0.50391-5.543-2.0156-6.5508l-20.656-10.578c-2.5195-1.0078-5.543-0.50391-6.5508 2.0156-1.0078 2.5195-0.50391 5.543 2.0156 6.5508z"/>
  <path d="m367.25 247.34c1.0078 0 2.0156-0.50391 3.0234-1.0078 2.5195-1.5117 3.0234-4.5352 1.5117-7.0547l-12.594-19.145c-1.5117-2.5195-4.5352-3.0234-7.0547-1.5117s-3.0234 4.5352-1.5117 7.0547l12.594 19.145c0.50391 2.0156 2.5195 2.5195 4.0312 2.5195z"/>
 </g>
</svg>