<?xml version="1.0" encoding="UTF-8"?>
<!-- The Best Svg Icon site in the world: iconSvg.co, Visit us! https://iconsvg.co -->
<svg fill="#000000" width="800px" height="800px" version="1.1" viewBox="144 144 512 512" xmlns="http://www.w3.org/2000/svg">
 <g>
  <path d="m258.89 622.12c-20.824 0-39.824-8.2188-52.227-22.609-9.2188-10.703-15.266-23.094-19.516-32.699-9.9805-22.594-5.9961-50.07 9.4688-65.359 12.992-12.84 31.781-15.051 51.531-6.0586 1.7969 0.8125 3.4609 1.6484 4.9453 2.375 1.9609 0.97266 4.6094 2.2734 5.7734 2.5703 1.1602-0.29688 3.7969-1.6094 5.7578-2.5703 1.4727-0.72656 3.1484-1.5508 4.9492-2.375 19.785-9.0156 38.609-6.7539 51.641 6.1836 15.453 15.352 19.363 42.766 9.3203 65.172-3.875 8.6445-10.094 21.398-19.289 32.375-12.129 14.465-31.004 22.844-51.793 22.996h-0.53516zm-33.926-114.73c-6.2461 0-11.668 2.1719-16.055 6.4961-10.328 10.203-12.805 29.91-5.7578 45.863 3.9844 9.0156 9.0938 19.445 16.766 28.352 8.9297 10.367 23.496 16.535 39 16.535h0.39844c15.652-0.097656 29.68-6.207 38.512-16.734 6.0234-7.1836 11.18-15.902 16.727-28.293 7.0703-15.762 4.625-35.383-5.6836-45.625-7.793-7.7422-18.887-8.668-32.055-2.6719-1.5859 0.72266-3.0586 1.4492-4.4453 2.1367-4.8086 2.3711-8.957 4.4219-13.504 4.4219-4.5469 0-8.707-2.0508-13.504-4.4219-1.3867-0.6875-2.875-1.4141-4.4492-2.1367-5.7461-2.6094-11.078-3.9219-15.926-3.9219z"/>
  <path d="m252.57 595.09c-4.8203 0-8.7305-3.9062-8.7461-8.7305 0-4.832 3.8984-8.7539 8.7344-8.7539 9.7188-0.011718 18.387-3.7344 23.797-10.18 3.8594-4.5977 7.1836-10.242 10.793-18.285 1.8594-4.1445 2.6836-8.793 2.3867-13.438-0.3125-4.8242 3.3477-8.9805 8.1562-9.293 4.8203-0.28906 8.9805 3.3477 9.293 8.1562 0.48828 7.4805-0.85938 14.984-3.8711 21.719-2.6602 5.9453-6.9453 14.738-13.355 22.371-8.7305 10.414-22.285 16.41-37.164 16.434z"/>
  <path d="m258.86 517.86h-0.074219c-4.8359-0.039063-8.707-3.9844-8.668-8.8164 0.035157-4.1719-0.78906-18.25-12.77-24.246-4.3203-2.1602-6.0586-7.418-3.8945-11.727 2.1602-4.3203 7.418-6.0586 11.727-3.8984 21.012 10.531 22.477 33.289 22.41 40.02-0.035157 4.8086-3.9453 8.668-8.7422 8.668z"/>
  <path d="m531.25 623.91h-204.73c-4.832 0-8.7422-3.9102-8.7422-8.7422 0-4.8359 3.9102-8.7422 8.7422-8.7422h204.73c5.2461 0 8.5547-4.6992 9.1172-9.3203l3.4492-28.602c0.57422-4.7969 4.9219-8.2188 9.7305-7.6328 4.7969 0.57422 8.207 4.9336 7.6328 9.7305l-3.4492 28.59c-1.7227 14.328-12.855 24.719-26.48 24.719z"/>
  <path d="m292.76 481.3c-4.3359 0-8.1094-3.2227-8.6719-7.6406l-16.074-126.59c-0.61328-4.7812 2.7852-9.168 7.5703-9.7773 4.7969-0.61328 9.168 2.7852 9.7812 7.5664l16.074 126.59c0.61328 4.7812-2.7852 9.1641-7.5703 9.7773-0.375 0.050782-0.74609 0.074219-1.1094 0.074219z"/>
  <path d="m565.23 475.03c-0.375 0-0.76172-0.023438-1.1484-0.074219-4.7852-0.63672-8.1562-5.0195-7.5312-9.8047l15.852-120.32c0.625-4.7812 5.0195-8.1445 9.8047-7.5312 4.7852 0.63672 8.1602 5.0234 7.5352 9.8047l-15.855 120.32c-0.57422 4.3984-4.332 7.6055-8.6562 7.6055z"/>
  <path d="m406.41 413.83c-11.617 0-21.074-9.2188-21.074-20.535s9.457-20.531 21.074-20.531c11.617 0 21.074 9.2148 21.074 20.531s-9.457 20.535-21.074 20.535zm0-23.594c-1.9727 0-3.582 1.3711-3.582 3.0469 0 1.6719 1.6094 3.0469 3.582 3.0469 1.9766 0 3.5859-1.375 3.5859-3.0469 0-1.6758-1.6094-3.0469-3.5859-3.0469z"/>
  <path d="m609.58 504.7c-1.1992 0-2.4219-0.25-3.582-0.77344-4.3984-1.9844-6.3594-7.1562-4.375-11.566 7.8711-17.434 0.23828-53.805-11.379-80.723-1.9102-4.4336 0.13672-9.5781 4.5703-11.488 4.4375-1.9141 9.582 0.13672 11.492 4.5703 6.7617 15.664 11.844 32.949 14.316 48.66 3.0508 19.375 2.0234 34.91-3.0586 46.176-1.4609 3.2344-4.6484 5.1445-7.9727 5.1445z"/>
  <path d="m532.73 538.76c-0.17578 0-0.35156 0-0.52734-0.011718-23.348-1.3633-48.969-12.289-72.141-30.75-22.523-17.949-40.75-41.332-51.316-65.848-6.4219-14.902-9.8555-29.828-10.219-44.367-0.11328-4.832 3.6992-8.8281 8.5312-8.9531h0.21484c4.7344 0 8.6172 3.7695 8.7305 8.5312 0.30078 12.289 3.2617 25.027 8.793 37.867 9.457 21.922 25.848 42.906 46.16 59.094 20.375 16.234 42.484 25.816 62.258 26.965 4.8242 0.28516 8.5078 4.4219 8.2188 9.2422-0.27344 4.6445-4.1211 8.2305-8.7188 8.2305z"/>
  <path d="m545.39 550.82c-7.2461 0-14.266-4.0586-17.59-10.918l-5.8945-12.176c-2.2383-4.625-2.5-9.8047-0.75-14.59 1.7617-4.7852 5.3086-8.5703 9.9922-10.656l58.039-25.715c9.457-4.1836 20.812-0.023437 25.309 9.2812l5.8945 12.176c2.2383 4.6211 2.5 9.8047 0.75 14.59-1.7617 4.7812-5.3086 8.5664-9.9922 10.652l-58.039 25.719c-2.4961 1.1094-5.1211 1.6211-7.7188 1.6211zm-7.1445-32.352c-0.32422 0.15234-0.55078 0.375-0.66406 0.6875s-0.085937 0.625 0.0625 0.94922l5.8984 12.18c0.41016 0.84766 1.6211 1.2969 2.4844 0.91016l58.039-25.719c0.32422-0.14844 0.54688-0.37109 0.66016-0.68359 0.11328-0.3125 0.085938-0.625-0.0625-0.94922l-5.8945-12.18c-0.41406-0.84766-1.625-1.2969-2.4883-0.91016z"/>
  <path d="m354.62 324.55c-4.8359 0-8.7461-3.9102-8.7461-8.7422 0-17.598-15.141-31.914-33.754-31.914-18.609 0-33.75 14.316-33.75 31.914 0 4.832-3.9102 8.7422-8.7461 8.7422s-8.7461-3.9102-8.7461-8.7422c0-27.242 22.988-49.398 51.242-49.398 28.258 0 51.242 22.156 51.242 49.398 0 4.832-3.9102 8.7422-8.7422 8.7422z"/>
  <path d="m408.54 263.03c-3.7969 0-7.2969-2.4883-8.3945-6.3203-4.6719-16.188-14.066-24.445-27.906-24.57-2.1016 0.65234-7.1836 4.8867-10.258 7.4336-7.082 5.8945-13.777 11.441-21.062 11.102-20.125-0.98438-25.719 2.9102-27.27 5.3203-2.6094 4.0625-8.0195 5.2461-12.078 2.6484-4.0742-2.6094-5.2461-8.0156-2.6484-12.078 8.4922-13.25 28.059-14.035 42.285-13.375 2.0234-0.77344 6.7188-4.6836 9.582-7.0586 7.0938-5.8945 13.789-11.477 21.137-11.477 22.098 0 38.074 13.215 45.008 37.195 1.3359 4.6328-1.3359 9.4805-5.9727 10.828-0.8125 0.23828-1.6211 0.35156-2.4336 0.35156z"/>
  <path d="m395.2 212.18c-1.9609 0-3.9336-0.66406-5.5586-2-3.7227-3.0703-4.2461-8.5781-1.1719-12.312 11.43-13.84 28.516-21.785 46.855-21.785 6.8086 0 13.492 1.1016 19.875 3.2617 4.5703 1.5469 7.0195 6.5078 5.4844 11.09-1.5508 4.5703-6.5078 7.0195-11.094 5.4727-4.5703-1.5508-9.3828-2.3359-14.266-2.3359-13.117 0-25.27 5.6172-33.379 15.426-1.7227 2.0977-4.2227 3.1719-6.7461 3.1719z"/>
  <path d="m501.19 306.66c-31.43 0-57.004-24.633-57.004-54.895 0-10.367 1.8516-36.223 19.027-52.535 9.4414-8.9648 21.484-13.137 35.789-12.387 9.918 0.51172 16.949 8.7148 22.598 15.312 2.3594 2.7578 5.0352 5.8828 6.832 7.0312 3.1992 2.0469 7.2461 3.8711 11.543 5.793 11.867 5.3477 26.633 11.992 28.969 27.992 1.9492 13.414-2.2227 26.527-12.066 37.895-13.34 15.426-35.727 25.781-55.703 25.781zm-5.375-102.42c-8.3945 0-15.125 2.5195-20.547 7.668-8.5078 8.0664-13.578 22.969-13.578 39.855 0 20.633 17.727 37.406 39.512 37.406 14.715 0 32.578-8.3047 42.473-19.734 6.5078-7.5312 9.1914-15.586 7.9805-23.941-0.88672-6.0703-8.0312-9.707-18.836-14.562-4.6719-2.1016-9.5078-4.2852-13.793-7.0195-3.9727-2.5508-7.3828-6.5195-10.68-10.379-2.9219-3.4102-7.8086-9.1055-10.23-9.2305-0.77734-0.039062-1.5391-0.0625-2.3008-0.0625z"/>
  <path d="m580.88 323.85c-2.0625 0-4.1367-0.72266-5.7969-2.1992-3.6094-3.1953-3.9492-8.7305-0.75-12.34 5.0703-5.7188 7.8711-13 7.8711-20.48 0-6.9336-2.3125-13.527-6.6836-19.074-3-3.7969-2.3477-9.293 1.4492-12.277 3.7969-2.9961 9.293-2.3477 12.277 1.4492 6.8359 8.6562 10.457 18.996 10.457 29.902 0 11.766-4.3594 23.156-12.266 32.074-1.7266 1.9453-4.1367 2.9453-6.5469 2.9453z"/>
  <path d="m517.27 236.44c-1.0742 0-2.1602-0.19922-3.2227-0.625-4.4844-1.7852-6.6836-6.8711-4.8984-11.355 2.4883-6.2422 12.395-26.801 35.754-29.312 4.7969-0.52344 9.1055 2.9609 9.6289 7.7578 0.51562 4.793-2.957 9.1055-7.7539 9.6289-13.629 1.4609-19.801 14.438-21.375 18.387-1.3633 3.4336-4.6484 5.5195-8.1328 5.5195z"/>
  <path d="m347.95 246.53c-2.1484 0-4.2969-0.78516-5.9805-2.3711-17.039-15.988-11.555-38.258-9.4688-44.691 1.4844-4.5938 6.418-7.1172 11.016-5.6211 4.5977 1.4883 7.1094 6.4219 5.6211 11.016-1.2852 3.9609-4.7461 17.602 4.7969 26.555 3.5234 3.3125 3.6992 8.8438 0.38672 12.355-1.7227 1.8359-4.0469 2.7578-6.3828 2.7578z"/>
  <path d="m397.13 318.78c-0.25 0-0.51562 0-0.77734-0.035156-4.8086-0.42578-8.3672-4.6602-7.957-9.4688 1.8008-20.594 16.902-38.094 37.602-43.527 4.6719-1.2227 9.457 1.5625 10.68 6.2305 1.2266 4.6719-1.5586 9.457-6.2305 10.68-13.566 3.5625-23.473 14.875-24.625 28.129-0.39844 4.5469-4.207 7.9805-8.707 7.9805z"/>
  <path d="m609.33 349.37h-356.64c-4.8359 0-8.7461-3.9102-8.7461-8.7422 0-4.8359 3.9102-8.7461 8.7461-8.7461h356.64c4.8359 0 8.7461 3.9102 8.7461 8.7461 0 4.832-3.9102 8.7422-8.7461 8.7422z"/>
 </g>
</svg>