<?xml version="1.0" encoding="UTF-8"?>
<!-- The Best Svg Icon site in the world: iconSvg.co, Visit us! https://iconsvg.co -->
<svg fill="#000000" width="800px" height="800px" version="1.1" viewBox="144 144 512 512" xmlns="http://www.w3.org/2000/svg">
 <g>
  <path d="m592.86 553.29-7.8711 13.617v0.003906c19.461 11.305 32.43 31.145 34.98 53.504h-439.95c1.5156-13.207 6.7031-25.727 14.973-36.137 8.2695-10.41 19.293-18.293 31.816-22.754v27.402h15.742l0.003906-70.848h7.8711c14.609-0.015625 28.617-5.8281 38.945-16.156 10.332-10.332 16.141-24.336 16.16-38.945v-15.746c0-2.0859-0.83203-4.0898-2.3047-5.5664-1.4766-1.4766-3.4805-2.3047-5.5664-2.3047h-15.746c-14.824-0.003906-29.023 5.9883-39.359 16.617v-32.363h7.8711c14.609-0.015625 28.617-5.8281 38.945-16.156 10.332-10.332 16.141-24.336 16.16-38.945v-15.746c0-2.0859-0.83203-4.0898-2.3047-5.5664-1.4766-1.4766-3.4805-2.3047-5.5664-2.3047h-15.746c-14.824-0.003906-29.023 5.9883-39.359 16.617v-32.363h7.8711c14.609-0.015626 28.617-5.8242 38.945-16.156 10.332-10.332 16.141-24.336 16.16-38.945v-15.746c0-2.0859-0.83203-4.0898-2.3047-5.5664-1.4766-1.4766-3.4805-2.3047-5.5664-2.3047h-15.746c-14.824-0.003907-29.023 5.9922-39.359 16.617v-32.359h7.8711c12.523-0.015625 24.531-4.9961 33.383-13.848 8.8555-8.8555 13.836-20.863 13.852-33.387v-15.742c0-2.0898-0.83203-4.0898-2.3086-5.5664-1.4766-1.4766-3.4766-2.3086-5.5664-2.3086h-15.742c-15.84 0.011718-30.621 7.9648-39.359 21.176-8.7422-13.211-23.52-21.164-39.363-21.176h-15.742c-4.3477 0-7.8711 3.5273-7.8711 7.875v15.742c0.011718 12.523 4.9922 24.531 13.848 33.387 8.8555 8.8516 20.859 13.832 33.383 13.848h7.8711v32.363-0.003906c-10.336-10.625-24.531-16.621-39.359-16.617h-15.742c-4.3477 0-7.875 3.5234-7.875 7.8711v15.746c0.019531 14.609 5.8281 28.613 16.16 38.945 10.332 10.332 24.336 16.141 38.945 16.156h7.8711v32.363c-10.336-10.629-24.531-16.621-39.359-16.617h-15.742c-4.3477 0-7.875 3.5234-7.875 7.8711v15.746c0.019531 14.609 5.8281 28.613 16.16 38.945 10.332 10.328 24.336 16.141 38.945 16.156h7.8711v32.363c-10.336-10.629-24.531-16.621-39.359-16.617h-15.742c-4.3477 0-7.875 3.5234-7.875 7.8711v15.746c0.019531 14.609 5.8281 28.613 16.16 38.945 10.332 10.328 24.336 16.141 38.945 16.156h7.8711v26.922c-18.105 5.1758-34.043 16.102-45.402 31.121-11.359 15.023-17.527 33.332-17.574 52.168 0 2.0859 0.83203 4.0898 2.3086 5.5664 1.4766 1.4727 3.4766 2.3047 5.5664 2.3047h456.58c2.0859 0 4.0898-0.83203 5.5664-2.3047 1.4727-1.4766 2.3047-3.4805 2.3047-5.5664-0.0625-30.922-16.551-59.48-43.297-75zm-310.95-98.188h7.8711v7.875c-0.011718 10.434-4.1641 20.438-11.539 27.816-7.3789 7.3789-17.387 11.531-27.82 11.543h-7.8711v-7.875c0.011718-10.434 4.1641-20.438 11.543-27.816 7.3789-7.3789 17.383-11.531 27.816-11.543zm0-94.465h7.8711v7.875c-0.011718 10.434-4.1641 20.438-11.539 27.816-7.3789 7.3789-17.387 11.531-27.82 11.543h-7.8711v-7.8711c0.011718-10.438 4.1641-20.441 11.543-27.82 7.3789-7.3789 17.383-11.527 27.816-11.543zm0-94.465h7.8711v7.875c-0.011718 10.434-4.1641 20.438-11.539 27.816-7.3789 7.3789-17.387 11.531-27.82 11.543h-7.8711v-7.8711c0.011718-10.438 4.1641-20.441 11.543-27.82 7.3789-7.3789 17.383-11.527 27.816-11.539zm-7.8711-86.59h7.8711v7.8711c0 8.3516-3.3164 16.359-9.2227 22.266s-13.914 9.2227-22.266 9.2227h-7.8711v-7.8711c0-8.3516 3.3164-16.359 9.2227-22.266s13.914-9.2227 22.266-9.2227zm-86.594 7.8711v-7.8711h7.8711c8.3516 0 16.363 3.3164 22.266 9.2227 5.9062 5.9062 9.2227 13.914 9.2227 22.266v7.8711h-7.8711c-8.3516 0-16.359-3.3164-22.266-9.2227s-9.2227-13.914-9.2227-22.266zm-7.8711 86.594v-7.8711h7.8711c10.438 0.011719 20.441 4.1602 27.82 11.539 7.3789 7.3789 11.527 17.383 11.539 27.82v7.8711h-7.8711c-10.434-0.011719-20.438-4.1641-27.816-11.543-7.3789-7.3789-11.531-17.383-11.543-27.816zm0 94.465v-7.875h7.8711c10.438 0.015625 20.441 4.1641 27.82 11.543 7.3789 7.3789 11.527 17.383 11.539 27.82v7.8711h-7.8711c-10.434-0.011719-20.438-4.1641-27.816-11.543s-11.531-17.383-11.543-27.816zm0 94.465v-7.875h7.8711c10.438 0.011719 20.441 4.1641 27.82 11.543 7.3789 7.3789 11.527 17.383 11.539 27.816v7.8711l-7.8711 0.003907c-10.434-0.011719-20.438-4.1641-27.816-11.543-7.3789-7.3789-11.531-17.383-11.543-27.816z"/>
  <path d="m258.3 541.7v15.742h133.82v31.488h15.742l0.003906-70.848h7.8711c14.609-0.015625 28.617-5.8281 38.945-16.156 10.332-10.332 16.141-24.336 16.16-38.945v-15.746c0-2.0859-0.83203-4.0898-2.3047-5.5664-1.4766-1.4766-3.4805-2.3047-5.5664-2.3047h-15.746c-14.824-0.003906-29.023 5.9883-39.359 16.617v-32.363h7.8711c14.609-0.015625 28.617-5.8281 38.945-16.156 10.332-10.332 16.141-24.336 16.16-38.945v-15.746c0-2.0859-0.83203-4.0898-2.3047-5.5664-1.4766-1.4766-3.4805-2.3047-5.5664-2.3047h-15.746c-14.824-0.003906-29.023 5.9883-39.359 16.617v-32.363h7.8711c14.609-0.015626 28.617-5.8242 38.945-16.156 10.332-10.332 16.141-24.336 16.16-38.945v-15.746c0-2.0859-0.83203-4.0898-2.3047-5.5664-1.4766-1.4766-3.4805-2.3047-5.5664-2.3047h-15.746c-14.824-0.003907-29.023 5.9922-39.359 16.617v-32.359h7.8711c12.523-0.015625 24.531-4.9961 33.383-13.848 8.8555-8.8555 13.836-20.863 13.852-33.387v-15.742c0-2.0898-0.83203-4.0898-2.3086-5.5664-1.4766-1.4766-3.4766-2.3086-5.5664-2.3086h-15.742c-15.84 0.011718-30.621 7.9648-39.359 21.176-8.7422-13.211-23.52-21.164-39.363-21.176h-15.742c-4.3477 0-7.8711 3.5273-7.8711 7.875v15.742c0.011718 12.523 4.9922 24.531 13.848 33.387 8.8555 8.8516 20.859 13.832 33.383 13.848h7.8711v32.363-0.003906c-10.336-10.625-24.531-16.621-39.359-16.617h-15.742c-4.3477 0-7.875 3.5234-7.875 7.8711v15.746c0.019531 14.609 5.8281 28.613 16.16 38.945 10.332 10.332 24.336 16.141 38.945 16.156h7.8711v32.363c-10.336-10.629-24.531-16.621-39.359-16.617h-15.742c-4.3477 0-7.875 3.5234-7.875 7.8711v15.746c0.019531 14.609 5.8281 28.613 16.16 38.945 10.332 10.328 24.336 16.141 38.945 16.156h7.8711v32.363c-10.336-10.629-24.531-16.621-39.359-16.617h-15.742c-4.3477 0-7.875 3.5234-7.875 7.8711v15.746c0.019531 14.609 5.8281 28.613 16.16 38.945 10.332 10.328 24.336 16.141 38.945 16.156h7.8711v23.617zm188.93-86.594h7.8711v7.875c-0.011718 10.434-4.1641 20.438-11.539 27.816-7.3789 7.3789-17.387 11.531-27.82 11.543h-7.8711v-7.875c0.011718-10.434 4.1641-20.438 11.543-27.816 7.3789-7.3789 17.383-11.531 27.816-11.543zm0-94.465h7.8711v7.875c-0.011718 10.434-4.1641 20.438-11.539 27.816-7.3789 7.3789-17.387 11.531-27.82 11.543h-7.8711v-7.8711c0.011718-10.438 4.1641-20.441 11.543-27.82 7.3789-7.3789 17.383-11.527 27.816-11.543zm0-94.465h7.8711v7.875c-0.011718 10.434-4.1641 20.438-11.539 27.816-7.3789 7.3789-17.387 11.531-27.82 11.543h-7.8711v-7.8711c0.011718-10.438 4.1641-20.441 11.543-27.82 7.3789-7.3789 17.383-11.527 27.816-11.539zm-7.8711-86.59h7.8711v7.8711c0 8.3516-3.3164 16.359-9.2227 22.266s-13.914 9.2227-22.266 9.2227h-7.8711v-7.8711c0-8.3516 3.3164-16.359 9.2227-22.266s13.914-9.2227 22.266-9.2227zm-86.594 7.8711v-7.8711h7.8711c8.3516 0 16.363 3.3164 22.266 9.2227 5.9062 5.9062 9.2227 13.914 9.2227 22.266v7.8711h-7.8711c-8.3516 0-16.359-3.3164-22.266-9.2227s-9.2227-13.914-9.2227-22.266zm-7.8711 86.594v-7.8711h7.8711c10.438 0.011719 20.441 4.1602 27.82 11.539 7.3789 7.3789 11.527 17.383 11.539 27.82v7.8711h-7.8711c-10.434-0.011719-20.438-4.1641-27.816-11.543-7.3789-7.3789-11.531-17.383-11.543-27.816zm0 94.465v-7.875h7.8711c10.438 0.015625 20.441 4.1641 27.82 11.543 7.3789 7.3789 11.527 17.383 11.539 27.82v7.8711h-7.8711c-10.434-0.011719-20.438-4.1641-27.816-11.543s-11.531-17.383-11.543-27.816zm0 94.465v-7.875h7.8711c10.438 0.011719 20.441 4.1641 27.82 11.543 7.3789 7.3789 11.527 17.383 11.539 27.816v7.8711l-7.8711 0.003907c-10.434-0.011719-20.438-4.1641-27.816-11.543-7.3789-7.3789-11.531-17.383-11.543-27.816z"/>
  <path d="m628.29 250.43h-15.746c-14.824-0.003907-29.023 5.9922-39.359 16.617v-32.359h7.8711c12.523-0.015625 24.531-4.9961 33.383-13.848 8.8555-8.8555 13.836-20.863 13.852-33.387v-15.742c0-2.0898-0.83203-4.0898-2.3086-5.5664-1.4766-1.4766-3.4766-2.3086-5.5664-2.3086h-15.742c-15.84 0.011718-30.621 7.9648-39.359 21.176-8.7422-13.211-23.52-21.164-39.363-21.176h-15.742c-4.3477 0-7.8711 3.5273-7.8711 7.875v15.742c0.011718 12.523 4.9922 24.531 13.848 33.387 8.8555 8.8516 20.859 13.832 33.383 13.848h7.8711v32.363-0.003906c-10.336-10.625-24.531-16.621-39.359-16.617h-15.742c-4.3477 0-7.875 3.5234-7.875 7.8711v15.746c0.019531 14.609 5.8281 28.613 16.16 38.945 10.332 10.332 24.336 16.141 38.945 16.156h7.8711v32.363c-10.336-10.629-24.531-16.621-39.359-16.617h-15.742c-4.3477 0-7.875 3.5234-7.875 7.8711v15.746c0.019531 14.609 5.8281 28.613 16.16 38.945 10.332 10.328 24.336 16.141 38.945 16.156h7.8711v32.363c-10.336-10.629-24.531-16.621-39.359-16.617h-15.742c-4.3477 0-7.875 3.5234-7.875 7.8711v15.746c0.019531 14.609 5.8281 28.613 16.16 38.945 10.332 10.328 24.336 16.141 38.945 16.156h7.8711v24.008c-2.6211-0.23438-5.2422-0.39453-7.8711-0.39453l-125.95 0.003906v15.742h125.95c2.6328 0.011719 5.2578 0.17188 7.8711 0.47266v31.016h15.742l0.003906-70.848h7.8711c14.609-0.015625 28.617-5.8281 38.945-16.156 10.332-10.332 16.141-24.336 16.16-38.945v-15.746c0-2.0859-0.83203-4.0898-2.3047-5.5664-1.4766-1.4766-3.4805-2.3047-5.5664-2.3047h-15.746c-14.824-0.003906-29.023 5.9883-39.359 16.617v-32.363h7.8711c14.609-0.015625 28.617-5.8281 38.945-16.156 10.332-10.332 16.141-24.336 16.16-38.945v-15.746c0-2.0859-0.83203-4.0898-2.3047-5.5664-1.4766-1.4766-3.4805-2.3047-5.5664-2.3047h-15.746c-14.824-0.003906-29.023 5.9883-39.359 16.617v-32.363h7.8711c14.609-0.015626 28.617-5.8242 38.945-16.156 10.332-10.332 16.141-24.336 16.16-38.945v-15.746c0-2.0859-0.83203-4.0898-2.3047-5.5664-1.4766-1.4766-3.4805-2.3047-5.5664-2.3047zm-23.617-70.848h7.8711v7.8711c0 8.3516-3.3164 16.359-9.2227 22.266s-13.914 9.2227-22.266 9.2227h-7.8711v-7.8711c0-8.3516 3.3164-16.359 9.2227-22.266s13.914-9.2227 22.266-9.2227zm-86.594 7.8711v-7.8711h7.8711c8.3516 0 16.363 3.3164 22.266 9.2227 5.9062 5.9062 9.2227 13.914 9.2227 22.266v7.8711h-7.8711c-8.3516 0-16.359-3.3164-22.266-9.2227s-9.2227-13.914-9.2227-22.266zm-7.8711 86.594v-7.8711h7.8711c10.438 0.011719 20.441 4.1602 27.82 11.539 7.3789 7.3789 11.527 17.383 11.539 27.82v7.8711h-7.8711c-10.434-0.011719-20.438-4.1641-27.816-11.543-7.3789-7.3789-11.531-17.383-11.543-27.816zm0 94.465v-7.875h7.8711c10.438 0.015625 20.441 4.1641 27.82 11.543 7.3789 7.3789 11.527 17.383 11.539 27.82v7.8711h-7.8711c-10.434-0.011719-20.438-4.1641-27.816-11.543s-11.531-17.383-11.543-27.816zm0 94.465v-7.875h7.8711c10.438 0.011719 20.441 4.1641 27.82 11.543 7.3789 7.3789 11.527 17.383 11.539 27.816v7.8711l-7.8711 0.003907c-10.434-0.011719-20.438-4.1641-27.816-11.543-7.3789-7.3789-11.531-17.383-11.543-27.816zm102.34-7.8711h7.8711v7.8711c-0.011718 10.434-4.1641 20.438-11.539 27.816-7.3789 7.3789-17.387 11.531-27.82 11.543h-7.8711v-7.875c0.011718-10.434 4.1641-20.438 11.543-27.816 7.3789-7.3789 17.383-11.531 27.816-11.543zm0-94.465h7.8711v7.8711c-0.011718 10.434-4.1641 20.438-11.539 27.816-7.3789 7.3789-17.387 11.531-27.82 11.543h-7.8711v-7.8711c0.011718-10.438 4.1641-20.441 11.543-27.82 7.3789-7.3789 17.383-11.527 27.816-11.543zm7.8711-86.594c-0.011718 10.434-4.1641 20.438-11.539 27.816-7.3789 7.3789-17.387 11.531-27.82 11.543h-7.8711v-7.8711c0.011718-10.438 4.1641-20.441 11.543-27.82 7.3789-7.3789 17.383-11.527 27.816-11.539h7.8711z"/>
  <path d="m266.18 573.18h15.742v15.742h-15.742z"/>
  <path d="m313.41 588.93h15.742v15.742h-15.742z"/>
  <path d="m439.36 573.18h15.742v15.742h-15.742z"/>
  <path d="m510.21 581.05h15.742v15.742h-15.742z"/>
 </g>
</svg>