<?xml version="1.0" encoding="UTF-8"?>
<!-- The Best Svg Icon site in the world: iconSvg.co, Visit us! https://iconsvg.co -->
<svg fill="#000000" width="800px" height="800px" version="1.1" viewBox="144 144 512 512" xmlns="http://www.w3.org/2000/svg">
 <path d="m528.05 255.74c-27.609 2.5039-46.07 8.1523-63.922 13.609-16.957 5.1875-34.488 10.547-60.461 13.457-60.539 6.8008-115.3-31-126.01-38.922v-13.387c-0.003906-17.66-14.371-32.02-32.027-32.02s-32.023 14.363-32.023 32.02v55.359c0 25.727 19.16 47.207 44.566 49.969 7.8633 0.85547 16.109 1.5156 24.844 2.2188 4.9531 0.39844 10.125 0.81641 15.5 1.293v86.383c0 18.906 15.383 34.289 34.289 34.289h62.203v26.242c-22.484 2.5156-40.027 21.621-40.027 44.766v19.945h-0.74219c-8.8711 0-16.086 7.2109-16.086 16.082v18.391c0 8.8711 7.2148 16.09 16.086 16.09h91.617c8.8672 0 16.082-7.2188 16.082-16.09v-18.391c0-8.8711-7.2148-16.082-16.082-16.082h-0.74609v-19.945c0-23.145-17.543-42.25-40.027-44.766v-26.242h60.215c18.906 0 34.285-15.379 34.285-34.289l0.003906-55.711c21.25-1.1914 37.656-5.5156 51.617-10.43 21.105-7.418 35.285-27.68 35.285-50.41 0-15.035-6.3711-29.48-17.484-39.625-11.09-10.129-26.023-15.133-40.957-13.805zm-76.184 311.3v18.391c0 3.3164-2.6953 6.0117-6.0078 6.0117h-91.617c-3.3125 0-6.0117-2.6953-6.0117-6.0117v-18.391c0-3.3125 2.6953-6.0078 6.0117-6.0078h91.621c3.3086 0 6.0039 2.6953 6.0039 6.0078zm-16.828-36.031v19.945l-69.98 0.003907v-19.945c0-19.297 15.695-34.992 34.988-34.992 19.297 0 34.992 15.695 34.992 34.988zm-102.23-81.086c-13.352 0-24.211-10.863-24.211-24.211l-0.003906-85.438c23.93 2.3867 52.133 6.3516 86.414 15.211v94.438zm156.7-24.211c0 13.348-10.859 24.211-24.207 24.211h-60.219v-91.824c33.941 8.8906 60.895 12.258 82.91 12.258 0.52344 0 0.99609-0.03125 1.5117-0.035156zm58.352-75.641c-28.801 10.129-68.418 17.742-143.93-2.6719-40.836-11.039-73.266-15.23-100.24-17.723-0.046875 0-0.089844-0.027344-0.13672-0.027344-0.015625 0-0.03125 0.011718-0.050781 0.011718-6.8984-0.63672-13.457-1.168-19.684-1.668-8.6562-0.69531-16.836-1.3477-24.562-2.1875-20.281-2.2031-35.578-19.379-35.578-39.949l0.003906-55.363c0-12.102 9.8438-21.945 21.945-21.945 12.102 0 21.949 9.8438 21.949 21.941v15.887c0 1.5234 0.69531 2.9727 1.8828 3.9297 2.5742 2.0664 63.848 50.465 135.32 42.508 26.902-3.0156 44.891-8.5156 62.289-13.836 18.164-5.5547 35.316-10.801 61.887-13.211 12.121-1.1172 24.242 2.9805 33.25 11.207 9.0273 8.2422 14.203 19.977 14.203 32.188-0.003906 18.473-11.477 34.91-28.555 40.91z"/>
</svg>