<?xml version="1.0" encoding="UTF-8"?>
<!-- The Best Svg Icon site in the world: iconSvg.co, Visit us! https://iconsvg.co -->
<svg fill="#000000" width="800px" height="800px" version="1.1" viewBox="144 144 512 512" xmlns="http://www.w3.org/2000/svg">
 <path d="m613.67 454.16v-12.594h-124.48c14.211-13.43 16.148-35.789 3.8711-51.496l-20.227-25.871-2.2383-26.879h26.527l-0.003907-43.117h-0.066406c0-1.5703-0.52344-3.125-1.6406-4.3125l-15.473-16.465 31.199-24.41-3.8789-4.957c-7.3203-9.3672-18.344-14.738-30.242-14.738-8.625 0-16.785 2.8164-23.598 8.1367l-4.7188 3.6875-50.895-55.113c-1.1836-1.2852-2.8516-2.0156-4.6016-2.0234h-0.023438c-1.7383 0-3.4023 0.71875-4.5898 1.9844l-52.457 55.812-11.941-15.277-9.2695-11.859-4.9609 3.8789c-16.668 13.027-19.629 37.188-6.6016 53.852l1.8242 2.332-14.238 15.156c-1.1172 1.1875-1.6484 2.7422-1.6484 4.3125h-0.058594v43.121h26.867l-4.3125 51.535-18.211 14.238-12.484 9.7578 3.8789 4.957c5.7539 7.3594 13.805 12.207 22.758 13.965l-0.80469 9.7852-125.27 0.003906v12.594h124.24l-2.332 28.34h-81.781v12.594h80.746l-1.9609 23.789c-5.2148-1.0977-10.535-1.6992-15.926-1.6992-42.238 0-76.621 34.113-77.137 76.238l-25.848 0.003907v12.594h432.02v-12.594h-19.219c0.039062-0.9375 0.10547-1.8672 0.10547-2.8047 0-28.109-17.68-52.852-43.711-62.246 0.73047-3.3438 1.0938-6.7305 1.0938-10.121 0-8.3789-2.1367-16.27-5.8906-23.156h42.211v-12.594h-52.145c-8.6406-7.9062-20.094-12.777-32.695-12.777-7.4922 0-14.836 1.7852-21.477 5.0586l-1.75-20.621 133.48-0.003906zm-183.29 70.203h-48.039v-60.402c0-15.266 9.8477-28.953 24.098-34.066 13.941 5.0625 23.941 18.398 23.941 34.066zm-60.637-60.402v60.398h-11.926l0.003906-60.398c0-16.691 11.352-30.754 26.727-34.953-9.207 9.0234-14.805 21.566-14.805 34.953zm104.82 72.996 1.457 17.215h-165.72l1.4141-17.215zm-165.3 29.812h167.83l2.2539 26.656h-172.27zm133.71-42.406v-60.402c0-26.949-21.926-48.871-48.875-48.871s-48.875 21.926-48.875 48.871v60.398h-32.465l7.5938-92.223c6.7227-0.89844 13.043-3.4648 18.488-7.7227l36.352-28.414c8.082-6.3125 13.215-15.391 14.453-25.562 0.98828-8.0508-0.59766-16.008-4.4141-22.988l10.867-8.4961 69.215 88.535 8.1914 96.871h-30.531zm-40.371-223.86c0.55469 4.8828 2.0469 9.5938 4.4141 13.93l-8.7578 6.8398-16.242-20.777 20.586 0.003907zm80.578 129.01-59.199-75.734c3.2539-1.4492 6.7812-2.2031 10.422-2.2031 7.9922 0 15.395 3.6055 20.312 9.8984l28.418 36.355c7.4141 9.4844 7.1172 22.582 0.046875 31.684zm-24.363-81.754c-6.7969-5.6328-15.348-8.7695-24.414-8.7695-6.5859 0-12.891 1.6641-18.547 4.8047l-5.0547-6.4648h47.141zm-44.52-23.023 30.996-24.227h39.227v24.227zm61.957-36.828h-14.848l8.5586-6.6914zm0.76172-45.988c5.8398 0 11.367 1.9258 15.836 5.4102l-75.738 59.207c-1.875-4.2109-2.5781-8.8711-2-13.566 0.83594-6.832 4.2891-12.93 9.707-17.168l36.359-28.418c4.5703-3.5781 10.051-5.4648 15.836-5.4648zm-133.03 9.9297 49.152-52.305 45.609 49.383-21.688 16.953c-7.1289 5.5664-11.957 13.301-13.852 22.031h-31.035l-28.188-36.062c-0.003906 0 0 0 0 0zm-30.75-18.879 59.207 75.734c-3.2539 1.4492-6.7773 2.1953-10.418 2.1953-7.9961 0-15.402-3.6055-20.32-9.9062l-28.418-36.352c-7.418-9.4766-7.1211-22.574-0.050781-31.672zm2.2461 54.938h-5.3789l2.9375-3.1289zm-13.648 12.594h23.492l6.4492 8.2539c7.3203 9.3711 18.344 14.742 30.238 14.742 6.5039 0 12.734-1.6016 18.332-4.6758l4.6211 5.9102-83.133-0.003906zm75.887 36.828-52.402 40.961 3.4297-40.961zm-2.5898 18.012c1.875 4.2188 2.5859 8.8711 2.0039 13.566-0.83594 6.832-4.2812 12.93-9.707 17.168l-36.352 28.418c-9.1914 7.1797-22.781 6.9922-31.691 0.050781zm-90.488 174.45c5.043 0 10.035 0.57812 14.887 1.7266l-5.0977 61.914h-74.332c0.51953-35.176 29.246-63.641 64.543-63.641zm218.77-47.465c19.809 0 35.926 16.117 35.926 35.934 0 4.0898-0.73047 8.1914-2.1719 12.188l-2.3516 6.5234 6.7227 1.7148c23.801 6.0625 40.414 27.422 40.414 51.949 0 0.9375-0.058594 1.8672-0.10547 2.8047h-89.879l-8.8516-104.66c5.9609-4.1094 13.012-6.457 20.297-6.457z"/>
</svg>