<?xml version="1.0" encoding="UTF-8"?>
<!-- The Best Svg Icon site in the world: iconSvg.co, Visit us! https://iconsvg.co -->
<svg fill="#000000" width="800px" height="800px" version="1.1" viewBox="144 144 512 512" xmlns="http://www.w3.org/2000/svg">
 <path d="m277.88 207.29h-66.504l6.0977 19.852h42.773c1.9141 0 3.4766 1.4102 3.7266 3.3242l24.789 189.53 17.078-10.883zm211.2 179.41h-87.109c-12.445 0-22.723 9.5234-23.93 22.117l-0.10156 1.1094 131.8 28.312 0.50391-0.80469c1.8672-3.2773 2.875-7.0039 2.875-10.785v-15.469c0-13.5-10.785-24.48-24.035-24.48zm-18.59 15.266h-58.391c-2.0664 0-3.7773-1.7148-3.7773-3.7773 0-2.1172 1.7109-3.7773 3.7773-3.7773h58.391c2.0664 0 3.7773 1.6641 3.7773 3.7773 0.003907 2.0625-1.7109 3.7773-3.7773 3.7773zm31.137 12.996c-2.0664 0-3.7773-1.6641-3.7773-3.7773 0-5.0898-3.9297-9.2188-8.7656-9.2188-2.0664 0-3.7773-1.7148-3.7773-3.7773 0-2.1172 1.7148-3.7773 3.7773-3.7773 9.0195 0 16.324 7.5078 16.324 16.777-0.003907 2.1133-1.6641 3.7734-3.7812 3.7734zm75.773 45.496-252.86-54.211-47.309 29.977v105.25h44.387l0.30078-0.90625c0.15234-0.70703 0.40234-1.3594 0.65625-1.9648l0.55469-1.7148c0.25-0.60547 0.50391-1.1602 0.75391-1.7617l0.75391-1.7617c0.35156-0.70703 0.70703-1.3594 1.1094-2.0664l0.70703-1.2578c0.40234-0.70703 0.80469-1.3086 1.2109-1.9648l0.85547-1.2578c0.40234-0.60547 0.85547-1.1602 1.3086-1.7617l1.0078-1.2109c0.45312-0.55469 0.90625-1.1094 1.4102-1.6133 0.35156-0.40234 0.70703-0.80469 1.1094-1.2109 0.50391-0.50391 0.95703-0.95703 1.4609-1.4102 0.45312-0.40234 0.85547-0.80469 1.3086-1.1602 0.50391-0.45312 1.0078-0.85547 1.5117-1.2578s0.95703-0.75391 1.4609-1.1094c0.50391-0.40234 1.0078-0.75391 1.5625-1.1094 0.50391-0.35156 1.0586-0.70703 1.6133-1.0078 0.50391-0.30078 1.0078-0.65625 1.5625-0.95703 0.55469-0.30078 1.1602-0.60547 1.7617-0.90625 0.65625-0.30078 1.1094-0.55469 1.5625-0.75391l1.8125-0.75391s1.2578-0.50391 1.7148-0.65625c0.60547-0.25391 1.3086-0.45312 1.9648-0.65625 0 0 1.2578-0.40234 1.6641-0.50391 0.65625-0.15234 1.3086-0.30078 1.9648-0.45313l1.7617-0.35156c0.80469-0.15234 1.6641-0.25 2.5195-0.35156l1.3086-0.15234c1.2578-0.10156 2.5703-0.20312 3.8789-0.20312 1.3594 0 2.6719 0.10156 3.9297 0.20312l1.2578 0.15234c0.90625 0.10156 1.7617 0.20312 2.5703 0.35156l1.5117 0.30078c0.90625 0.20312 1.5625 0.35156 2.2656 0.50391l1.6641 0.50391c0.65625 0.20312 1.3086 0.40234 1.9648 0.65625l1.2109 0.45312c0.95703 0.40234 1.6133 0.65625 2.2656 0.95703 0.45312 0.20312 0.85547 0.40234 1.3086 0.60547 0.80469 0.45312 1.4609 0.75391 2.0664 1.1094 0.50391 0.25 0.95703 0.55469 1.4609 0.85547 0.60547 0.35156 1.1602 0.70703 1.7617 1.1094l1.3594 0.95703c0.55469 0.40234 1.1094 0.85547 1.6641 1.2578 0.45312 0.35156 0.85547 0.70703 1.3086 1.1094 0.50391 0.45312 1.0586 0.90625 1.5625 1.4102 0.45703 0.39844 0.80859 0.75 1.2148 1.1562 0.50391 0.50391 0.95703 1.0078 1.4102 1.5117l1.1094 1.2578c0.45312 0.55469 0.90625 1.1094 1.3594 1.7148l0.95703 1.3086c0.40234 0.55469 0.75391 1.1094 1.1094 1.6641l0.95703 1.5117c0.45312 0.65625 0.80469 1.3594 1.1602 2.0664l0.70703 1.3086c0.35156 0.75391 0.65625 1.5117 0.95703 2.2148l0.55469 1.3594c0.45312 1.1602 0.90625 2.3672 1.2578 3.6289l0.25391 0.90625 0.95703 0.10156h83.23l0.39453-0.55469 0.65625-0.90625c0.45312-0.60547 0.90625-1.1602 1.3086-1.7109 0.55469-0.70703 1.1602-1.3594 1.7617-1.9648 0.45312-0.55469 0.95703-1.0586 1.4609-1.5625 0.65625-0.60547 1.3086-1.1602 1.9648-1.7148 0.55469-0.45313 1.0586-0.90625 1.6641-1.3086 0.70703-0.55469 1.4102-1.0078 2.168-1.5117 0.75391-0.45312 1.2109-0.75391 1.7617-1.0586 0.75391-0.45312 1.5625-0.85547 2.3672-1.2109l0.55469-0.25c0.40234-0.20312 0.85547-0.40234 1.2578-0.60547 0.85547-0.35156 1.7148-0.60547 2.5195-0.85547l0.80469-0.25c0.35937-0.15234 0.76172-0.30469 1.1641-0.40625 0.95703-0.25 1.9648-0.40234 2.9727-0.60547 0 0 1.3594-0.25 1.6641-0.30078 1.5625-0.20312 3.125-0.35156 4.7344-0.35156 1.6133 0 3.2227 0.14844 4.7852 0.35156 0.30078 0.050782 0.60547 0.10156 0.85547 0.15234l0.70703 0.15234c1.0078 0.15234 2.0664 0.35156 3.0742 0.60547 0.40234 0.097657 0.75391 0.25 1.1562 0.34766l0.60547 0.25c1.0078 0.30078 1.8633 0.60547 2.7188 0.90625 0.40234 0.20312 0.85547 0.40234 1.2578 0.60547l0.50391 0.25c0.80469 0.35156 1.6641 0.75391 2.418 1.2109 0.55469 0.30078 1.0586 0.65625 1.5625 0.95703 0.95703 0.60547 1.6641 1.0586 2.3672 1.6133 0.55469 0.40234 1.1094 0.85547 1.6641 1.3086 0.65625 0.55469 1.3086 1.1094 1.9648 1.7617 0.50391 0.45312 1.0078 0.95703 1.4609 1.4609 0.60547 0.65625 1.2109 1.3594 1.7617 2.0156 0.45312 0.55469 0.85547 1.1094 1.2578 1.7109l0.70703 0.90625 0.35156 0.55469h32.195l0.003906-67.102c0-6.6484-4.7344-12.492-11.234-13.902zm-214.98-34.41c-0.40234 1.7617-1.9648 3.0234-3.7266 3.0234-0.25 0-0.50391-0.050781-0.75391-0.10156l-5.0898-1.1094c-1.0078-0.20312-1.8633-0.75391-2.418-1.6133-0.55469-0.85547-0.70703-1.8633-0.50391-2.8711 0.35156-1.7148 1.9141-2.9727 3.6758-2.9727 0.25 0 0.55469 0.050781 0.80469 0.10156l5.0898 1.0586c0.95703 0.25 1.8125 0.80469 2.3672 1.6641 0.55469 0.85547 0.75781 1.8633 0.55469 2.8203zm217.45 78.34c-0.70703 0.65625-1.7148 1.0586-2.6719 1.0586-1.0078 0-1.9648-0.40234-2.7188-1.1094-0.65625-0.65625-1.0586-1.6641-1.0586-2.6719 0-0.55469 0.10156-1.0078 0.25-1.4102 0.20312-0.45312 0.50391-0.85547 0.90625-1.3086 0.65625-0.65625 1.6133-1.0586 2.6211-1.0586 0.50391 0 0.95703 0.10156 1.4102 0.30078 0.50391 0.20312 0.90625 0.50391 1.3086 0.85547 0.35156 0.35156 0.55469 0.70703 0.75391 1.1602 0.20312 0.50391 0.30078 1.0078 0.30078 1.4609 0.007812 0.96094-0.39844 1.9688-1.1016 2.7227zm1.1094-17.984c0 2.1172-1.7109 3.7773-3.7773 3.7773s-3.7773-1.6641-3.7773-3.7773v-11.234l-200.27-42.926c-1.0078-0.25-1.8125-0.80469-2.3672-1.6641-0.55469-0.85547-0.75391-1.8633-0.55469-2.8203 0.40234-1.7617 1.9648-3.0234 3.7266-3.0234 0.25 0 0.50391 0.050781 0.75391 0.10156l201.07 43.125c3.0234 0.65625 5.1875 3.3242 5.1875 6.3984zm-192.71 62.574c-2.168-10.934-11.637-18.895-22.52-18.895-10.832 0-20.305 8.0117-22.52 19.094-0.25 1.3086-0.40234 2.8203-0.40234 4.5859 0 13.047 10.277 23.68 22.922 23.68 12.695 0 22.973-10.629 22.973-23.68 0.003906-1.7656-0.14844-3.2734-0.45313-4.7852zm0 0c-2.168-10.934-11.637-18.895-22.52-18.895-10.832 0-20.305 8.0117-22.52 19.094-0.25 1.3086-0.40234 2.8203-0.40234 4.5859 0 13.047 10.277 23.68 22.922 23.68 12.695 0 22.973-10.629 22.973-23.68 0.003906-1.7656-0.14844-3.2734-0.45313-4.7852zm0 0c-2.168-10.934-11.637-18.895-22.52-18.895-10.832 0-20.305 8.0117-22.52 19.094-0.25 1.3086-0.40234 2.8203-0.40234 4.5859 0 13.047 10.277 23.68 22.922 23.68 12.695 0 22.973-10.629 22.973-23.68 0.003906-1.7656-0.14844-3.2734-0.45313-4.7852zm0 0c-2.168-10.934-11.637-18.895-22.52-18.895-10.832 0-20.305 8.0117-22.52 19.094-0.25 1.3086-0.40234 2.8203-0.40234 4.5859 0 13.047 10.277 23.68 22.922 23.68 12.695 0 22.973-10.629 22.973-23.68 0.003906-1.7656-0.14844-3.2734-0.45313-4.7852zm0 0c-2.168-10.934-11.637-18.895-22.52-18.895-10.832 0-20.305 8.0117-22.52 19.094-0.25 1.3086-0.40234 2.8203-0.40234 4.5859 0 13.047 10.277 23.68 22.922 23.68 12.695 0 22.973-10.629 22.973-23.68 0.003906-1.7656-0.14844-3.2734-0.45313-4.7852zm0 0c-2.168-10.934-11.637-18.895-22.52-18.895-10.832 0-20.305 8.0117-22.52 19.094-0.25 1.3086-0.40234 2.8203-0.40234 4.5859 0 13.047 10.277 23.68 22.922 23.68 12.695 0 22.973-10.629 22.973-23.68 0.003906-1.7656-0.14844-3.2734-0.45313-4.7852zm14.965-2.9727c-3.3242-16.727-17.332-29.523-34.109-31.035-1.1094-0.10156-2.2148-0.15234-3.375-0.15234-18.086 0-33.805 13.098-37.383 31.137-0.55469 2.418-0.80469 5.0391-0.80469 7.8086 0 21.461 17.129 38.945 38.188 38.945 21.109 0 38.238-17.48 38.238-38.945 0-2.7734-0.25-5.3906-0.75391-7.7578zm-37.484 38.992c-16.777 0-30.48-14.004-30.48-31.234 0-2.2656 0.20313-4.332 0.55469-6.0977 2.9219-14.559 15.516-25.141 29.926-25.141 14.461 0 27.055 10.48 29.926 24.938 0.40234 1.9648 0.60547 4.0312 0.60547 6.2969 0 17.234-13.703 31.238-30.531 31.238zm0-54.914c-10.832 0-20.305 8.0117-22.52 19.094-0.25 1.3086-0.40234 2.8203-0.40234 4.5859 0 13.047 10.277 23.68 22.922 23.68 12.695 0 22.973-10.629 22.973-23.68 0-1.7617-0.15234-3.2734-0.45313-4.7852-2.1641-10.934-11.637-18.895-22.52-18.895zm22.52 18.895c-2.168-10.934-11.637-18.895-22.52-18.895-10.832 0-20.305 8.0117-22.52 19.094-0.25 1.3086-0.40234 2.8203-0.40234 4.5859 0 13.047 10.277 23.68 22.922 23.68 12.695 0 22.973-10.629 22.973-23.68 0.003906-1.7656-0.14844-3.2734-0.45313-4.7852zm0 0c-2.168-10.934-11.637-18.895-22.52-18.895-10.832 0-20.305 8.0117-22.52 19.094-0.25 1.3086-0.40234 2.8203-0.40234 4.5859 0 13.047 10.277 23.68 22.922 23.68 12.695 0 22.973-10.629 22.973-23.68 0.003906-1.7656-0.14844-3.2734-0.45313-4.7852zm0 0c-2.168-10.934-11.637-18.895-22.52-18.895-10.832 0-20.305 8.0117-22.52 19.094-0.25 1.3086-0.40234 2.8203-0.40234 4.5859 0 13.047 10.277 23.68 22.922 23.68 12.695 0 22.973-10.629 22.973-23.68 0.003906-1.7656-0.14844-3.2734-0.45313-4.7852zm0 0c-2.168-10.934-11.637-18.895-22.52-18.895-10.832 0-20.305 8.0117-22.52 19.094-0.25 1.3086-0.40234 2.8203-0.40234 4.5859 0 13.047 10.277 23.68 22.922 23.68 12.695 0 22.973-10.629 22.973-23.68 0.003906-1.7656-0.14844-3.2734-0.45313-4.7852zm0 0c-2.168-10.934-11.637-18.895-22.52-18.895-10.832 0-20.305 8.0117-22.52 19.094-0.25 1.3086-0.40234 2.8203-0.40234 4.5859 0 13.047 10.277 23.68 22.922 23.68 12.695 0 22.973-10.629 22.973-23.68 0.003906-1.7656-0.14844-3.2734-0.45313-4.7852zm0 0c-2.168-10.934-11.637-18.895-22.52-18.895-10.832 0-20.305 8.0117-22.52 19.094-0.25 1.3086-0.40234 2.8203-0.40234 4.5859 0 13.047 10.277 23.68 22.922 23.68 12.695 0 22.973-10.629 22.973-23.68 0.003906-1.7656-0.14844-3.2734-0.45313-4.7852zm149.48 5.6406c-2.6211-4.6836-7.2539-7.457-12.496-7.457-5.1875 0-9.8242 2.7695-12.496 7.457-1.3594 2.418-2.0664 4.9883-2.0664 7.707 0 8.3125 6.5508 15.113 14.559 15.113 8.0625 0 14.559-6.8008 14.559-15.113 0.007813-2.7188-0.64453-5.2891-2.0586-7.707zm0 0c-2.6211-4.6836-7.2539-7.457-12.496-7.457-5.1875 0-9.8242 2.7695-12.496 7.457-1.3594 2.418-2.0664 4.9883-2.0664 7.707 0 8.3125 6.5508 15.113 14.559 15.113 8.0625 0 14.559-6.8008 14.559-15.113 0.007813-2.7188-0.64453-5.2891-2.0586-7.707zm0 0c-2.6211-4.6836-7.2539-7.457-12.496-7.457-5.1875 0-9.8242 2.7695-12.496 7.457-1.3594 2.418-2.0664 4.9883-2.0664 7.707 0 8.3125 6.5508 15.113 14.559 15.113 8.0625 0 14.559-6.8008 14.559-15.113 0.007813-2.7188-0.64453-5.2891-2.0586-7.707zm0 0c-2.6211-4.6836-7.2539-7.457-12.496-7.457-5.1875 0-9.8242 2.7695-12.496 7.457-1.3594 2.418-2.0664 4.9883-2.0664 7.707 0 8.3125 6.5508 15.113 14.559 15.113 8.0625 0 14.559-6.8008 14.559-15.113 0.007813-2.7188-0.64453-5.2891-2.0586-7.707zm0 0c-2.6211-4.6836-7.2539-7.457-12.496-7.457-5.1875 0-9.8242 2.7695-12.496 7.457-1.3594 2.418-2.0664 4.9883-2.0664 7.707 0 8.3125 6.5508 15.113 14.559 15.113 8.0625 0 14.559-6.8008 14.559-15.113 0.007813-2.7188-0.64453-5.2891-2.0586-7.707zm0 0c-2.6211-4.6836-7.2539-7.457-12.496-7.457-5.1875 0-9.8242 2.7695-12.496 7.457-1.3594 2.418-2.0664 4.9883-2.0664 7.707 0 8.3125 6.5508 15.113 14.559 15.113 8.0625 0 14.559-6.8008 14.559-15.113 0.007813-2.7188-0.64453-5.2891-2.0586-7.707zm13.301-7.5078c-1.3086-2.3164-2.9219-4.4844-4.7852-6.3477-3.2734-3.3242-7.4062-5.8438-11.941-7.3555-1.9141-0.60547-3.5273-1.0078-5.0898-1.2109-1.3086-0.20312-2.6211-0.30078-3.9805-0.30078-10.578 0-20.453 5.8438-25.746 15.215-2.6719 4.7344-4.0312 9.8242-4.0312 15.215 0 16.727 13.352 30.379 29.773 30.379 16.477 0 29.824-13.652 29.824-30.379 0.007812-5.3906-1.3516-10.477-4.0234-15.215zm-25.793 37.887c-12.191 0-22.117-10.176-22.117-22.672 0-4.0312 1.0586-7.8594 3.0742-11.438 3.9805-7.0547 11.082-11.285 19.043-11.285 7.9609 0 15.113 4.2305 19.094 11.285 2.0156 3.5781 3.0234 7.4102 3.0234 11.438 0 12.496-9.875 22.672-22.117 22.672zm0-37.836c-5.1875 0-9.8242 2.7695-12.496 7.457-1.3594 2.418-2.0664 4.9883-2.0664 7.707 0 8.3125 6.5508 15.113 14.559 15.113 8.0625 0 14.559-6.8008 14.559-15.113 0-2.7188-0.65625-5.2891-2.0664-7.707-2.6133-4.6836-7.25-7.457-12.488-7.457zm12.492 7.457c-2.6211-4.6836-7.2539-7.457-12.496-7.457-5.1875 0-9.8242 2.7695-12.496 7.457-1.3594 2.418-2.0664 4.9883-2.0664 7.707 0 8.3125 6.5508 15.113 14.559 15.113 8.0625 0 14.559-6.8008 14.559-15.113 0.007813-2.7188-0.64453-5.2891-2.0586-7.707zm0 0c-2.6211-4.6836-7.2539-7.457-12.496-7.457-5.1875 0-9.8242 2.7695-12.496 7.457-1.3594 2.418-2.0664 4.9883-2.0664 7.707 0 8.3125 6.5508 15.113 14.559 15.113 8.0625 0 14.559-6.8008 14.559-15.113 0.007813-2.7188-0.64453-5.2891-2.0586-7.707zm0 0c-2.6211-4.6836-7.2539-7.457-12.496-7.457-5.1875 0-9.8242 2.7695-12.496 7.457-1.3594 2.418-2.0664 4.9883-2.0664 7.707 0 8.3125 6.5508 15.113 14.559 15.113 8.0625 0 14.559-6.8008 14.559-15.113 0.007813-2.7188-0.64453-5.2891-2.0586-7.707zm0 0c-2.6211-4.6836-7.2539-7.457-12.496-7.457-5.1875 0-9.8242 2.7695-12.496 7.457-1.3594 2.418-2.0664 4.9883-2.0664 7.707 0 8.3125 6.5508 15.113 14.559 15.113 8.0625 0 14.559-6.8008 14.559-15.113 0.007813-2.7188-0.64453-5.2891-2.0586-7.707z"/>
</svg>