<?xml version="1.0" encoding="UTF-8"?>
<!-- The Best Svg Icon site in the world: iconSvg.co, Visit us! https://iconsvg.co -->
<svg fill="#000000" width="800px" height="800px" version="1.1" viewBox="144 144 512 512" xmlns="http://www.w3.org/2000/svg">
 <path d="m560.39 326c22.68 0 41.133-18.418 41.133-41.062v-68.387c0-9.9688-8.1172-18.074-18.102-18.074h-18.156c-9.9844 0-18.105 8.1094-18.105 18.074v18.043c0 8.5625-6.4414 15.855-14.355 16.27-4.2773 0.24219-8.2422-1.25-11.297-4.1484-3.0391-2.8867-4.7188-6.7891-4.7188-10.977v-19.188c0-9.9688-8.1172-18.074-18.102-18.074h-22.828c-9.9844 0-18.102 8.1094-18.102 18.074v18.043c0 8.5625-6.4453 15.855-14.367 16.27-4.2031 0.22656-8.2305-1.25-11.281-4.1484-3.0469-2.8867-4.7227-6.7852-4.7227-10.977v-19.188c0-9.9688-8.1172-18.074-18.523-18.074h-18.152c-9.9844 0-18.102 8.1094-18.102 18.074v18.043c0 8.5625-6.4414 15.855-14.355 16.27-4.2656 0.24219-8.2422-1.25-11.297-4.1484-3.0391-2.8867-4.7188-6.7891-4.7188-10.977v-19.188c0-9.9688-8.1172-18.074-18.102-18.074h-22.828c-9.9844 0-18.102 8.1094-18.102 18.074v18.043c0 8.5625-6.4453 15.855-14.363 16.27-4.25 0.22656-8.2344-1.25-11.285-4.1484-3.0469-2.8867-4.7227-6.7852-4.7227-10.977v-19.188c0-9.9688-8.1211-18.074-18.105-18.074h-18.156c-9.9805 0-18.098 8.1055-18.098 18.074v68.387c0 22.32 17.938 40.5 40.172 41.016 0.085937 0.003906 0.15625 0.046875 0.24219 0.046875h136.66v128.11c-2.5195 0.17188-4.5664 2.1484-4.7031 4.707l-5.7227 108.14c0 19.059 15.645 34.562 34.875 34.562 19.227 0 34.875-15.504 34.867-34.828l-5.7109-107.88c-0.13672-2.5586-2.1836-4.5352-4.7031-4.707l-0.003906-128.11zm-320.79-10.074c-17.121 0-31.055-13.898-31.055-30.988v-68.387c0-4.4141 3.6016-8 8.0234-8h18.156c4.4297 0 8.0312 3.5859 8.0312 8v19.188c0 6.9805 2.7891 13.477 7.8633 18.289 5.0781 4.8164 11.77 7.1836 18.746 6.9023 13.41-0.70313 23.918-12.27 23.918-26.336v-18.043c-0.003906-4.4141 3.5977-8 8.0195-8h22.828c4.4219 0 8.0234 3.5859 8.0234 8v19.188c0 6.9805 2.7891 13.477 7.8633 18.281 5.0781 4.8203 11.789 7.1875 18.75 6.9062 13.406-0.70312 23.91-12.27 23.91-26.336v-18.043c0-4.4102 3.6016-7.9961 8.4492-7.9961h18.156c4.4219 0 8.0234 3.5859 8.0234 8v19.188c0 6.9805 2.7891 13.477 7.8633 18.289 5.0781 4.8164 11.789 7.1836 18.746 6.9023 13.41-0.70313 23.918-12.27 23.918-26.336v-18.043c-0.003906-4.4141 3.5977-8 8.0195-8h22.828c4.4219 0 8.0234 3.5859 8.0234 8v19.188c0 6.9805 2.7891 13.477 7.8633 18.281 5.0781 4.8203 11.77 7.1875 18.75 6.9062 13.406-0.70312 23.91-12.27 23.91-26.336v-18.043c0-4.4141 3.6016-8 8.0312-8h18.156c4.4219 0.003906 8.0234 3.5898 8.0234 8.0039v68.387c0 17.086-13.934 30.984-31.055 30.984l-135.94 0.003906v-12.434c0-13.465-10.973-24.418-24.453-24.418-13.48 0-24.453 10.953-24.453 24.418l0.003906 12.434zm146.02 138.12v-150.55c0-7.9062 6.4492-14.344 14.375-14.344 7.9258 0 14.375 6.4336 14.375 14.344v150.55zm14.379 137.4c-13.672 0-24.797-10.988-24.801-24.223l5.457-103.11h38.691l5.4531 102.84c-0.003906 13.504-11.129 24.488-24.801 24.488z"/>
</svg>