<?xml version="1.0" encoding="UTF-8"?>
<!-- The Best Svg Icon site in the world: iconSvg.co, Visit us! https://iconsvg.co -->
<svg fill="#000000" width="800px" height="800px" version="1.1" viewBox="144 144 512 512" xmlns="http://www.w3.org/2000/svg">
 <path d="m541.14 406.27c13.23 0 32.59-2.4805 45.25-15.145 20.395-20.387 14.387-58.129 14.121-59.723-0.35547-2.125-2.0156-3.7891-4.1445-4.1445-1.5977-0.27734-39.336-6.2734-59.723 14.121-2.4961 2.4961-4.5859 5.2617-6.3516 8.1797v-17.621c7.1797-5.668 30.141-25.742 30.141-50.605 0-28.832-30.934-51.277-32.25-52.215-1.75-1.25-4.0977-1.25-5.8594 0-1.3125 0.94141-32.242 23.387-32.242 52.215 0 24.863 22.957 44.938 30.137 50.605v40.262c-1.793-3.0039-3.9375-5.8438-6.5-8.4062-20.387-20.383-58.125-14.391-59.723-14.121-2.125 0.35547-3.7891 2.0156-4.1445 4.1445-0.26562 1.5938-6.2734 39.332 14.121 59.723 12.664 12.664 32.02 15.145 45.25 15.145 4.5977 0 8.4141-0.29688 10.996-0.57422v38.074c-1.793-3.0039-3.9375-5.8438-6.5-8.4062-20.387-20.383-58.125-14.391-59.723-14.121-2.125 0.35547-3.7891 2.0156-4.1445 4.1445-0.26562 1.5938-6.2734 39.332 14.121 59.723 12.664 12.664 32.02 15.145 45.25 15.145 4.5977 0 8.4141-0.29688 10.996-0.57422v42.324c-27.969-5.2539-60.539-8.6172-95.387-9.7109 20.379-66.492 6.3555-129.49 5.0781-134.92-1.457-11.285-7.1836-21.348-16.156-28.367-9.0547-7.0742-20.309-10.223-31.715-8.8086l-48.129 5.8828-4.5742-37.414 3.3984-0.41406c2.6602-0.32422 4.6016-2.6758 4.418-5.3477l-7.9883-114.84c-1.1758-9.6562-6.0469-18.277-13.711-24.27-7.6602-5.9961-17.23-8.6641-26.863-7.4648-19.941 2.4414-34.176 20.645-31.699 40.836l19.883 113.12c0.42969 2.4336 2.543 4.168 4.9609 4.168 0.20312 0 0.41016-0.011719 0.61328-0.039063l3.4023-0.41406 4.5781 37.414-49.074 6.0039c-11.406 1.3906-21.586 7.1445-28.66 16.191-7.0781 9.0547-10.211 20.316-8.8125 31.715 5.8203 47.629 19.637 89.609 40.902 125.05-18.758 5.543-33.902 12.148-44.141 19.625-2.25 1.6445-2.7344 4.793-1.0977 7.0391 0.98438 1.3438 2.5156 2.0625 4.0703 2.0625 1.0273 0 2.0703-0.31641 2.9648-0.96875 29.648-21.652 107.47-36.203 193.66-36.203 85.828 0 163.55 14.469 193.39 36.008 2.2539 1.6289 5.4023 1.1211 7.0312-1.1367 1.6289-2.2539 1.1211-5.4023-1.1367-7.0312-14.531-10.488-38.738-19.262-69.137-25.734l0.003906-66.762c2.5781 0.27344 6.3359 0.55859 10.848 0.55859 13.23 0 32.59-2.4805 45.25-15.145 20.395-20.387 14.387-58.129 14.121-59.723-0.35547-2.125-2.0156-3.7891-4.1445-4.1445-1.5977-0.27734-39.336-6.2734-59.723 14.121-2.4961 2.4961-4.5859 5.2617-6.3516 8.1797v-37.828c2.5781 0.26953 6.332 0.55859 10.848 0.55859zm2.625-57.77c13.43-13.426 37.953-12.613 47.246-11.742 0.87891 9.2891 1.7227 33.777-11.75 47.242-13.418 13.418-37.941 12.609-47.242 11.742-0.86328-9.3008-1.668-33.82 11.746-47.242zm-25.43 69.66c-9.2891 0.89063-33.781 1.7109-47.242-11.75-13.422-13.422-12.609-37.938-11.742-47.242 9.3086-0.86719 33.816-1.6719 47.242 11.742 13.418 13.426 12.609 37.949 11.742 47.25zm0 93.98c-9.2891 0.88672-33.781 1.7109-47.242-11.75-13.422-13.422-12.609-37.938-11.742-47.242 9.3086-0.87109 33.816-1.6758 47.242 11.742 13.418 13.426 12.609 37.953 11.742 47.25zm-251.49-274.04c-0.85156-6.9883 1.0625-13.891 5.4023-19.434 4.3359-5.5391 10.566-9.0664 17.555-9.9219 6.9922-0.85547 13.891 1.0625 19.434 5.4023 5.543 4.3359 9.0664 10.566 9.8945 17.293l7.6328 109.8-40.898 5.0039zm52.488 114.2 12.172 99.543c0.38281 3.1484-0.48047 6.2578-2.4336 8.7578-1.957 2.5-4.7656 4.0898-7.9219 4.4766-3.125 0.36328-6.2578-0.48828-8.7578-2.4336-2.5039-1.957-4.0898-4.7656-4.4766-7.918l-12.176-99.543zm-64.609 217.69c-21.355-34.711-35.172-76.199-40.953-123.48-1.0625-8.7305 1.332-17.355 6.75-24.285 5.4219-6.9336 13.215-11.336 21.941-12.402l49.078-6.0039 6.375 52.129c0.70703 5.8203 3.6445 11.02 8.2656 14.633 3.9023 3.0508 8.6055 4.6641 13.48 4.6641 0.89844 0 1.8047-0.054688 2.7148-0.16797 5.8203-0.71484 11.016-3.6445 14.629-8.2656 3.6172-4.625 5.2109-10.371 4.4961-16.191l-6.375-52.129 48.125-5.8828c8.7461-1.0469 17.359 1.332 24.285 6.75 6.9336 5.418 11.336 13.211 12.402 21.938 0.019532 0.19141 0.058594 0.39062 0.10156 0.57422 0.15625 0.65234 15.594 66.25-5.668 132.55-4.7188-0.085937-9.4531-0.14844-14.242-0.14844-55.625 0.003906-106.91 5.7891-145.41 15.723zm289.04-127.51c13.43-13.426 37.953-12.613 47.246-11.742 0.87891 9.2891 1.7227 33.777-11.75 47.242-13.418 13.422-37.941 12.613-47.242 11.742-0.86328-9.3047-1.668-33.82 11.746-47.242zm-43.609-161.16c0-18.98 17.914-35.75 25.102-41.711 7.1914 5.9492 25.098 22.672 25.098 41.711 0 18.988-17.918 35.754-25.105 41.711-7.1914-5.9414-25.094-22.664-25.094-41.711z"/>
</svg>