<?xml version="1.0" encoding="UTF-8"?>
<!-- The Best Svg Icon site in the world: iconSvg.co, Visit us! https://iconsvg.co -->
<svg fill="#000000" width="800px" height="800px" version="1.1" viewBox="144 144 512 512" xmlns="http://www.w3.org/2000/svg">
 <path d="m301.68 198.48c-43.016 0-78.012 34.992-78.012 78.008v314.96h-20.152c-2.7812 0-5.0391 2.2578-5.0391 5.0391s2.2578 5.0391 5.0391 5.0391h392.97c2.7812 0 5.0391-2.2578 5.0391-5.0391s-2.2578-5.0391-5.0391-5.0391h-94.883v-104.87c45.492-2.6992 81.699-40.234 81.699-86.109 0-47.629-38.984-86.379-86.906-86.379s-86.906 38.746-86.906 86.379c0 45.992 36.387 83.598 82.039 86.133v104.85h-111.84v-314.96c0-43.016-34.992-78.008-78.008-78.008zm117.89 201.98c0-42.074 34.465-76.301 76.832-76.301 42.367 0 76.832 34.23 76.832 76.301 0 40.324-31.691 73.359-71.621 76.039v-39.203l28.969-28.043c1.9961-1.9336 2.0508-5.125 0.10938-7.125-1.9336-1.9961-5.125-2.0469-7.125-0.10938l-21.957 21.254v-29.738c0-2.7812-2.2578-5.0391-5.0391-5.0391s-5.0391 2.2578-5.0391 5.0391v55.016l-22.293-21.59c-2-1.9336-5.1953-1.8828-7.125 0.10937-1.9336 2-1.8828 5.1875 0.10938 7.125l29.305 28.375v13.945c-40.094-2.5117-71.957-35.617-71.957-76.055zm-49.953-2.1914h-135.87v-90.293h135.66c0.070312 0 0.13281-0.039062 0.20703-0.039062v90.332zm-135.87 10.078h135.87v95.07l-135.87-0.003907zm67.934-199.8c37.465 0 67.934 30.477 67.934 67.934v21.461c-0.070313-0.003906-0.13281-0.039062-0.20703-0.039062h-135.66v-21.418c0-37.461 30.477-67.938 67.934-67.938zm-67.934 304.94h135.87v77.953h-135.87z"/>
</svg>