<?xml version="1.0" encoding="UTF-8"?>
<!-- The Best Svg Icon site in the world: iconSvg.co, Visit us! https://iconsvg.co -->
<svg fill="#000000" width="800px" height="800px" version="1.1" viewBox="144 144 512 512" xmlns="http://www.w3.org/2000/svg">
 <path d="m360.64 447.23h-15.367c-28.387 0-51.406 23.02-51.406 51.406v121.78c0 8.6914 7.0547 15.742 15.742 15.742 8.6914 0 15.742-7.0547 15.742-15.742v-121.78c0-11.004 8.9102-19.918 19.918-19.918h7.4961v141.7c0 8.6914 7.0547 15.742 15.742 15.742 8.6914 0 15.742-7.0547 15.742-15.742v-141.7h31.488v141.7c0 8.6914 7.0547 15.742 15.742 15.742 8.6914 0 15.742-7.0547 15.742-15.742v-141.7h11.57c11.004 0 19.918 8.9102 19.918 19.918v121.78c0 8.6914 7.0547 15.742 15.742 15.742 8.6914 0 15.742-7.0547 15.742-15.742v-121.78c0-28.387-23.02-51.406-51.406-51.406h-19.445v-244.03c0-10.438-4.1406-20.453-11.523-27.836-7.3828-7.3828-17.398-11.523-27.836-11.523 0 0-5.9531 0 0 0-10.438 0-20.453 4.1406-27.836 11.523-7.3828 7.3828-11.523 17.398-11.523 27.836v244.03zm47.23-244.03v244.03h-15.742v-244.03c0-2.0938 0.83594-4.0938 2.2969-5.5742 1.4805-1.4648 3.4805-2.2969 5.5742-2.2969s4.0938 0.83594 5.5742 2.2969c1.4648 1.4805 2.2969 3.4805 2.2969 5.5742z" fill-rule="evenodd"/>
</svg>