<?xml version="1.0" encoding="UTF-8"?>
<!-- The Best Svg Icon site in the world: iconSvg.co, Visit us! https://iconsvg.co -->
<svg fill="#000000" width="800px" height="800px" version="1.1" viewBox="144 144 512 512" xmlns="http://www.w3.org/2000/svg">
 <g>
  <path d="m328.07 465.07c-1.7773-6.5-2.6797-13.246-2.6797-20.043 0-2.7852-2.2539-5.0391-5.0391-5.0391-2.7812 0-5.0391 2.2539-5.0391 5.0391 0 7.6992 1.0195 15.336 3.0391 22.699 0.61328 2.2383 2.6406 3.7109 4.8555 3.7109 0.44141 0 0.88672-0.058594 1.332-0.17578 2.6875-0.73828 4.2695-3.5078 3.5312-6.1914z"/>
  <path d="m337.16 495.78c-1.4062-2.4023-4.4844-3.207-6.8945-1.8047-2.4023 1.4023-3.2109 4.4922-1.8047 6.8945 15.805 27.031 44.441 43.246 75.695 43.246 1.8594 0 3.7305-0.054687 5.6055-0.17188 2.7773-0.17188 4.8906-2.5625 4.7188-5.3398-0.16797-2.7812-2.5898-4.8203-5.3398-4.7188-29.582 1.8555-57.168-12.77-71.98-38.105z"/>
  <path d="m409.36 199.19c-2.3867-1.4219-5.4844-0.64453-6.9102 1.7422-6.3945 10.719-7.4688 21.379-7.5547 26.656-6.707 0.36328-10.871 1.3711-10.973 1.4062-42.406 7.0195-76.129 41.246-82.004 83.223-0.80078 5.7383-1.0898 11.547-0.85156 17.27 0.61719 14.996-4.6914 30.516-14.949 43.691-19.434 24.973-29.707 54.855-29.707 86.422 0 39.262 15.855 75.789 44.645 102.85 27.004 25.387 61.793 39.074 98.812 39.074 3.1016 0 6.2227-0.097657 9.3516-0.28906 69.883-4.3203 127.38-59.477 133.75-128.3 3.5078-37.902-8.0039-74.789-32.406-103.86-8.5195-10.156-12.699-23.324-11.77-37.082 0.14453-2.125 0.21875-4.2695 0.21875-6.4336 0-48.555-33.293-87.363-82.84-96.578-3.9844-0.74219-7.7344-1.1484-11.195-1.3555 0.070313-4.0703 0.90234-12.762 6.1367-21.527 1.418-2.3945 0.64062-5.4844-1.75-6.9102zm79.566 126.37c0 1.9297-0.0625 3.8477-0.19531 5.75-1.1055 16.375 3.9023 32.082 14.102 44.242 22.664 26.996 33.352 61.25 30.094 96.457-5.9102 63.922-59.363 115.16-124.33 119.17-37.695 2.3633-73.418-10.484-100.64-36.07-26.738-25.141-41.469-59.059-41.469-95.512 0-29.305 9.5391-57.047 27.586-80.234 11.723-15.055 17.785-32.914 17.066-50.293-0.21094-5.1211 0.042969-10.32 0.76172-15.457 5.2695-37.656 35.566-68.367 74.059-74.758 0.082031-0.019531 5.4766-1.3047 13.77-1.3047 4.2227 0 9.1953 0.33594 14.598 1.3398 44.621 8.293 74.602 43.121 74.602 86.668z"/>
 </g>
</svg>