<?xml version="1.0" encoding="UTF-8"?>
<!-- The Best Svg Icon site in the world: iconSvg.co, Visit us! https://iconsvg.co -->
<svg width="800px" height="800px" version="1.1" viewBox="144 144 512 512" xmlns="http://www.w3.org/2000/svg">
 <defs>
  <clipPath id="a">
   <path d="m148.09 179h503.81v442h-503.81z"/>
  </clipPath>
 </defs>
 <g clip-path="url(#a)">
  <path d="m543.78 286.77c21.648-7.4375 37.273-27.953 37.273-52.086v-47.234c0-4.3516-3.5273-7.8711-7.8711-7.8711h-47.23c-23.727 0-43.941 15.105-51.688 36.18-10.109-12.453-25.523-20.438-42.777-20.438-4.3438 0-7.8711 3.5195-7.8711 7.8711 0 4.3516 3.5273 7.8711 7.8711 7.8711 21.703 0 39.359 17.656 39.359 39.359v23.812c-7.8086 0.35547-15.469 1.25-22.977 2.6055-23.484-26.344-54.059-45.055-87.234-53.156v-4.7461c0-21.703-17.656-39.359-39.359-39.359s-39.359 17.656-39.359 39.359v4.7383c-77.918 18.918-133.82 92.008-133.82 176.32 0 84.309 55.906 157.4 133.82 176.32v4.7383c0 21.703 17.656 39.359 39.359 39.359s39.359-17.656 39.359-39.359v-4.7695c0.69922-0.17969 1.3945-0.38672 2.0938-0.56641 30.727 27.766 71.41 44.695 115.99 44.695 95.496 0 173.18-77.688 173.18-173.18 0-72.484-44.781-134.68-108.12-160.46zm-57.191-52.086c0-21.703 17.656-39.359 39.359-39.359h39.359v39.359c0 21.703-17.656 39.359-39.359 39.359h-39.359v-23.617c0-4.0156-0.45703-7.9258-1.2734-11.699 0.73047-1.2031 1.2734-2.5312 1.2734-4.043zm-141.7 335.32v11.043c0 13.02-10.598 23.617-23.617 23.617-13.02 0-23.617-10.598-23.617-23.617v-11.043c0-3.7461-2.6367-6.9766-6.3125-7.7148-73.887-14.934-127.51-83.191-127.51-162.3s53.625-147.36 127.51-162.29c3.6758-0.75 6.3164-3.9766 6.3164-7.7227v-11.047c0-13.02 10.598-23.617 23.617-23.617s23.617 10.598 23.617 23.617v11.043c0 3.7461 2.6367 6.9766 6.3125 7.7148 29.543 5.9688 57.199 21.184 79.09 43.281-72 21.012-124.77 87.562-124.77 166.25 0 44.383 16.801 84.898 44.352 115.59-2.9375 1.1719-4.9922 3.9336-4.9922 7.1953zm133.82 34.66c-86.812 0-157.44-70.629-157.44-157.44s70.629-157.44 157.44-157.44 157.44 70.629 157.44 157.44-70.629 157.44-157.44 157.44z"/>
 </g>
</svg>