<?xml version="1.0" encoding="UTF-8"?>
<!-- The Best Svg Icon site in the world: iconSvg.co, Visit us! https://iconsvg.co -->
<svg fill="#000000" width="800px" height="800px" version="1.1" viewBox="144 144 512 512" xmlns="http://www.w3.org/2000/svg">
 <path d="m268.88 429.09 33.488 4.7656-13.961 31.73 28.27 79.668h-18.867l-44.41-92.637zm356-89.188-41.422-61.379c-4.0391-5.9844-11.305-8.9258-18.375-7.4414l-4.5156 0.94922-6.8359-10.031c-3.0938-4.5391-8.2305-7.2539-13.723-7.2539h-5.3906v22.746l-60.219 12.676h-272.77c-15.656 0.003906-28.34 12.691-28.34 28.344v127.53h14.172v-127.53c0-7.8125 6.3594-14.172 14.172-14.172v28.34l13.074 70.816-13.074 42.547 16.949 99.203h18.863l-6.6953-79.672 32.965-47.961 110.81 15.113 6.3242 112.52h18.867l6.8359-108.21 15.508 2.082 22.934 106.13h18.867l-12.965-102.52 80.977-79.18c6.0664-5.9297 14.871-8.1016 23-5.6641l18.594 5.5781c2.4297 0.73047 4.9492 1.0977 7.4805 1.0977h30.863c3.7344 0 7.1641-2.0391 8.9531-5.3164l4.707-8.625c1.8516-3.3867 1.625-7.5391-0.58594-10.715z"/>
</svg>