<?xml version="1.0" encoding="UTF-8"?>
<!-- The Best Svg Icon site in the world: iconSvg.co, Visit us! https://iconsvg.co -->
<svg fill="#000000" width="800px" height="800px" version="1.1" viewBox="144 144 512 512" xmlns="http://www.w3.org/2000/svg">
 <g>
  <path d="m579.16 450.36c0 3.582-2.9062 6.4883-6.4883 6.4883-3.5859 0-6.4922-2.9062-6.4922-6.4883 0-3.5859 2.9062-6.4922 6.4922-6.4922 3.582 0 6.4883 2.9062 6.4883 6.4922"/>
  <path d="m579.16 572.54c0 3.582-2.9062 6.4883-6.4883 6.4883-3.5859 0-6.4922-2.9062-6.4922-6.4883 0-3.5859 2.9062-6.4883 6.4922-6.4883 3.582 0 6.4883 2.9023 6.4883 6.4883"/>
  <path d="m235.05 450.36c0 3.582-2.9062 6.4883-6.4883 6.4883-3.5859 0-6.4883-2.9062-6.4883-6.4883 0-3.5859 2.9023-6.4922 6.4883-6.4922 3.582 0 6.4883 2.9062 6.4883 6.4922"/>
  <path d="m235.05 572.54c0 3.582-2.9062 6.4883-6.4883 6.4883-3.5859 0-6.4883-2.9062-6.4883-6.4883 0-3.5859 2.9023-6.4883 6.4883-6.4883 3.582 0 6.4883 2.9023 6.4883 6.4883"/>
  <path d="m615.52 239.19c-3.6836-9.2812-18.43-11.543-34.602-5.5508 4.7852-13.629 2.7617-25.941-5.332-29.434-8.1328-3.5078-18.559 3.5586-25.195 16.523-6.707-16.066-18.66-25.332-28.113-21.566-5.1406 2.0391-8.3164 7.3242-8.957 14.887-0.50781 6.0195 0.68359 13.094 3.2891 20.035-13.543-4.707-25.723-2.7305-29.16 5.2344-3.4609 8.0156 3.5 18.359 16.367 24.984-15.945 6.7148-25.109 18.609-21.375 28.031 2.0391 5.1406 7.332 8.3125 14.895 8.9531 0.93359 0.082032 1.8906 0.11719 2.8672 0.11719 5.3594 0 11.352-1.2109 17.242-3.4258-4.9141 13.738-2.918 26.199 5.2227 29.719 1.4141 0.60938 2.9023 0.90625 4.4219 0.90625 5.3789 0 11.215-3.7266 16.117-10.012v42.883c-13.422-13.316-37.812-9.4414-38.844-9.2695-2.125 0.35156-3.7891 2.0156-4.1406 4.1406-0.17187 1.0391-4.0625 25.512 9.3398 38.926 8.3672 8.3672 21.055 9.9961 29.652 9.9961 1.4648 0 2.8008-0.050781 3.9883-0.12109v16.227l-134.85 0.003906v-16.191c1.0195 0.050781 2.1211 0.082031 3.3203 0.082031 8.6055 0 21.289-1.6289 29.66-9.9961 13.406-13.406 9.5117-37.891 9.3398-38.926-0.35156-2.125-2.0156-3.7891-4.1406-4.1406-1.0195-0.17188-24.637-3.8828-38.172 8.6875v-39.84c5.3359 7.4648 11.863 11.949 17.938 11.949 1.5 0 2.9766-0.27344 4.3945-0.83203 5.1406-2.0352 8.3242-7.3242 8.9609-14.887 0.5-5.9297-0.66406-12.883-3.1875-19.73 4.7109 1.6172 9.2656 2.4375 13.332 2.4375 7.5664 0 13.48-2.7344 15.734-7.9492 3.4922-8.0898-3.4062-18.477-16.219-25.109 6.6953-2.8516 12.551-6.7422 16.523-11.117 5.0977-5.6172 6.793-11.516 4.7656-16.621-3.6836-9.2734-18.414-11.539-34.578-5.5625 1.8789-5.3672 2.8164-10.746 2.5586-15.457-0.37891-6.9688-3.1875-11.93-7.9141-13.965-4.7188-2.0391-10.262-0.68359-15.594 3.8203-3.6562 3.0898-6.9727 7.543-9.6094 12.688-6.707-16.051-18.668-25.305-28.102-21.543-5.1406 2.0391-8.3164 7.3242-8.957 14.887-0.50781 6.0195 0.69141 13.09 3.2891 20.035-13.539-4.707-25.719-2.7305-29.16 5.2344-2.0234 4.6914-0.64453 10.191 3.8906 15.504 3.0664 3.5859 7.4766 6.8516 12.559 9.4727-6.8047 2.8672-12.75 6.8281-16.766 11.305-5.0625 5.6484-6.7305 11.594-4.6953 16.73 2.0391 5.1406 7.332 8.3125 14.895 8.9531 0.93359 0.082031 1.8906 0.11719 2.8672 0.11719 5.3594 0 11.352-1.2109 17.242-3.4258-4.9141 13.738-2.918 26.199 5.2227 29.719 1.4141 0.60938 2.9023 0.90625 4.4219 0.90625 5.3789 0 11.215-3.7266 16.117-10.012l-0.003907 43.613c-0.20703-0.21484-0.37109-0.45703-0.58984-0.67188-13.406-13.406-37.891-9.5117-38.926-9.3398-2.125 0.35156-3.7891 2.0156-4.1406 4.1406-0.17187 1.0391-4.0625 25.512 9.3398 38.926 8.3672 8.3672 21.055 9.9961 29.66 9.9961 1.7539 0 3.3086-0.070313 4.6562-0.16016v16.27h-134.86v-16.164c0.83594 0.03125 1.707 0.054688 2.6484 0.054688 8.6055 0 21.289-1.6289 29.66-9.9961 13.406-13.406 9.5117-37.891 9.3398-38.926-0.35156-2.125-2.0156-3.7891-4.1406-4.1406-1.0039-0.16797-23.871-3.7578-37.504 8.0977v-39.25c5.3359 7.4648 11.863 11.949 17.938 11.949 1.5 0 2.9766-0.27344 4.3945-0.83203 5.1406-2.0352 8.3242-7.3242 8.9609-14.887 0.5-5.9297-0.66406-12.883-3.1875-19.723 4.7109 1.6172 9.2617 2.4375 13.324 2.4375 7.5664 0 13.48-2.7344 15.738-7.9492 3.4922-8.0898-3.4062-18.477-16.219-25.109 6.6953-2.8516 12.551-6.7422 16.523-11.117 5.0977-5.6172 6.793-11.516 4.7695-16.621-3.6836-9.2734-18.418-11.539-34.582-5.5625 1.8789-5.3672 2.8164-10.746 2.5586-15.457-0.37891-6.9688-3.1875-11.93-7.9141-13.965-4.7188-2.0391-10.262-0.68359-15.594 3.8203-3.6562 3.0898-6.9727 7.543-9.6094 12.68-6.707-16.055-18.66-25.281-28.102-21.543-5.1406 2.0352-8.3242 7.3242-8.9609 14.887-0.50781 6.0195 0.69141 13.09 3.293 20.035-13.543-4.707-25.723-2.7305-29.16 5.2344-2.0234 4.6914-0.64453 10.191 3.8906 15.504 3.0625 3.582 7.457 6.8398 12.523 9.457-15.98 6.7148-25.164 18.621-21.426 28.051 2.3594 5.9336 9.1172 9.082 17.859 9.082 5.1836 0 11.07-1.1484 17.133-3.4375-4.9141 13.738-2.918 26.199 5.2227 29.715 1.4141 0.60938 2.9023 0.90625 4.4219 0.90625 5.3789 0 11.215-3.7266 16.117-10.012v44.387c-0.41797-0.48047-0.80078-0.97656-1.2578-1.4297-13.406-13.406-37.887-9.5156-38.926-9.3398-2.125 0.35156-3.7891 2.0156-4.1406 4.1406-0.17188 1.0312-4.0664 25.512 9.3398 38.926 8.3672 8.3672 21.055 9.9961 29.66 9.9961 2.0508 0 3.8477-0.089843 5.3242-0.20703v16.32h-49.223c-2.7812 0-5.0391 2.2539-5.0391 5.0391v47.887c0 2.7852 2.2578 5.0391 5.0391 5.0391h6.9844v64.227h-6.9844c-2.7812 0-5.0391 2.2539-5.0391 5.0391l0.011718 47.871c0 2.7852 2.2578 5.0391 5.0391 5.0391h392.97c2.7812 0 5.0391-2.2539 5.0391-5.0391v-47.887c0-2.7852-2.2578-5.0391-5.0391-5.0391h-6.9844v-64.227h6.9844c2.7812 0 5.0391-2.2539 5.0391-5.0391v-47.887c0-2.7852-2.2578-5.0391-5.0391-5.0391h-43.82v-16.227c1.1875 0.070313 2.5195 0.12109 3.9883 0.12109 8.6055 0 21.289-1.6289 29.652-9.9961 13.406-13.406 9.5156-37.891 9.3398-38.926-0.35156-2.125-2.0156-3.7891-4.1406-4.1406-1.0273-0.17188-25.426-4.0469-38.844 9.2734v-40.43c5.3359 7.4648 11.871 11.957 17.941 11.957 1.5 0 2.9727-0.27344 4.3867-0.83203 5.1406-2.0391 8.3164-7.3242 8.957-14.887 0.5-5.9297-0.66406-12.887-3.1875-19.73 4.7109 1.6172 9.2656 2.4375 13.332 2.4375 7.5664 0 13.48-2.7344 15.734-7.9492 3.4922-8.0898-3.4062-18.477-16.219-25.109 6.6953-2.8516 12.551-6.7422 16.523-11.117 5.1016-5.6211 6.793-11.52 4.7695-16.625zm-200.79 129.48c7.1758-7.1797 20.066-7.3398 26.414-6.9062 0.48828 7.2539-0.21484 19.652-6.9375 26.379-6.9883 6.9883-19.34 7.3008-25.852 6.9375l0.003906-12.109c0.86328-5.2852 2.7031-10.633 6.3711-14.301zm-21.168-98.742c-1.0977-2.7695-1.0547-5.8047 0.125-8.5391 1.1836-2.7344 3.3594-4.8516 6.1328-5.9492 1.3359-0.52734 2.7305-0.78906 4.1211-0.78906 1.5 0 3.0039 0.30859 4.418 0.92187 2.7344 1.1797 4.8516 3.3555 5.9492 6.1328 2.2734 5.7227-0.53516 12.223-6.2578 14.496-5.7227 2.2461-12.223-0.55078-14.488-6.2734zm36.035 46.5c-0.34375 4.0703-1.6328 5.9766-2.6367 6.375-2.6562 1.0547-10.551-4.5508-15.445-16.895-3.0078-7.5781-3.4766-14.258-2.6484-18.465 1.0977-0.25 2.1953-0.52344 3.2812-0.95312 1.3008-0.51562 2.5156-1.1641 3.6719-1.8906 3.5 2.4805 7.7773 7.6797 10.809 15.316 2.2852 5.7656 3.3672 11.785 2.9688 16.512zm26.668-28.383c-0.76953 1.7852-8.6094 3.5703-19.648-1.1953-6.9062-2.9766-11.445-7.0586-13.371-10.211 0.37109-0.67188 0.80078-1.293 1.1094-2.0117 0.39453-0.90625 0.625-1.8438 0.89062-2.7773 3.6016-0.78125 9.7188-0.28906 16.672 2.7109 11.047 4.7656 15.117 11.703 14.348 13.484zm4.9609-45.137c0.40625 1.0273-0.31641 3.3242-2.8633 6.125-3.1836 3.5078-8.3242 6.832-14.102 9.1289-7.7422 3.0781-14.535 3.5312-18.715 2.6758-0.25-1.0898-0.51562-2.1758-0.93359-3.2305-0.45313-1.1484-1.0469-2.2109-1.6719-3.25 2.4492-3.4961 7.7148-7.8398 15.477-10.918 12.336-4.8906 21.777-3.1211 22.809-0.53125zm-48.043-15.113c2.1602-4.9961 5.2148-9.4023 8.3828-12.07 1.9844-1.6758 3.6406-2.3594 4.5938-2.3594 0.20313 0 0.37109 0.03125 0.50781 0.089844 0.76953 0.33203 1.6758 2.125 1.8477 5.2695 0.22656 4.1367-0.88281 9.375-3.043 14.379-3.0625 7.082-7.2812 11.703-10.461 13.531-0.74609-0.42969-1.457-0.90234-2.2578-1.2461-0.73437-0.31641-1.5-0.48828-2.2539-0.71875-0.84375-3.582-0.36719-9.8086 2.6836-16.875zm-34.746-12.895c0.34375-4.0703 1.6367-5.9766 2.6367-6.375 2.6836-1.0312 10.551 4.5508 15.445 16.895 3.0742 7.7422 3.4961 14.551 2.5938 18.738-1.1367 0.25781-2.2773 0.53516-3.3789 0.97656-1.1797 0.46875-2.2773 1.0742-3.3398 1.7188-3.5312-2.4297-7.9062-7.6719-10.984-15.438-2.293-5.7695-3.3711-11.789-2.9727-16.516zm-24.363 33.371c-2.168-2.5352-2.5586-4.3516-2.3008-4.957 0.38281-0.88672 2.6055-1.7578 6.1602-1.7578 3.4023 0 8.0156 0.79687 13.41 3.125 6.8789 2.9688 11.422 6.9961 13.375 10.113-0.41406 0.72656-0.875 1.4219-1.2148 2.1953-0.34375 0.79688-0.53516 1.6211-0.78125 2.4375-3.6055 0.71094-9.6523 0.16797-16.535-2.8008-5.0078-2.168-9.4258-5.2109-12.113-8.3555zm-0.81641 42.977c-4.0703-0.34375-5.9766-1.6328-6.375-2.6367-0.39844-0.99609 0.10547-3.25 2.832-6.2891 3.1641-3.5312 8.293-6.8672 14.062-9.1523 7.5781-3.0078 14.262-3.4766 18.477-2.6562 0.25781 1.1797 0.55469 2.3594 1.0078 3.5 0.49219 1.2461 1.1133 2.3984 1.793 3.4961-2.4922 3.4922-7.6836 7.75-15.285 10.762-5.7734 2.293-11.777 3.3828-16.512 2.9766zm41.957 12.855c-4.7695 11.039-11.707 15.098-13.48 14.344-1.7852-0.76953-3.5664-8.6094 1.1953-19.648 3.043-7.0469 7.2344-11.648 10.414-13.496 1.4453 0.78516 2.957 1.4375 4.543 1.8828 0.85156 3.5625 0.39453 9.8164-2.6719 16.918zm2.2617 90.98c-7.2617 0.50781-19.66-0.22266-26.383-6.9414-7.1641-7.1641-7.3359-20.031-6.9141-26.383 6.3594-0.41406 19.219-0.25 26.391 6.9141 7.1719 7.168 7.3281 20.066 6.9062 26.41zm-128.34-26.414c7.1797-7.1797 20.078-7.3398 26.414-6.9062 0.48828 7.2539-0.21484 19.652-6.9375 26.379-6.7656 6.7617-18.523 7.2695-25.184 6.9688v-15.332c1.0391-4.1797 2.7852-8.1875 5.707-11.109zm-20.5-98.742c-1.0977-2.7695-1.0547-5.8047 0.125-8.5391 1.1836-2.7344 3.3594-4.8516 6.1328-5.9492 1.3516-0.53516 2.7344-0.78516 4.1055-0.78516 4.4453 0 8.6523 2.6719 10.387 7.0391 2.2734 5.7266-0.53516 12.227-6.2578 14.5-5.7266 2.2539-12.227-0.54297-14.492-6.2656zm36.035 46.5c-0.34375 4.0703-1.6328 5.9766-2.6367 6.375-2.6445 1.0547-10.551-4.5508-15.445-16.895-3.0078-7.5781-3.4766-14.258-2.6484-18.465 1.0977-0.25 2.1953-0.52344 3.2812-0.95312 1.3047-0.51953 2.5156-1.1758 3.6641-1.8984 3.5 2.4727 7.7891 7.6797 10.82 15.324 2.2812 5.7656 3.3633 11.785 2.9648 16.512zm26.668-28.383c-0.76953 1.7852-8.6094 3.5703-19.648-1.1953-6.9062-2.9844-11.453-7.0625-13.371-10.219 0.84766-1.5156 1.5234-3.1094 2-4.7812 3.6016-0.78125 9.7227-0.28906 16.676 2.707 11.043 4.7695 15.113 11.707 14.344 13.488zm4.9609-45.137c0.41406 1.0273-0.31641 3.3242-2.8633 6.125-3.1836 3.5078-8.3242 6.832-14.102 9.1289-7.75 3.0781-14.551 3.5312-18.73 2.6719-0.24609-1.082-0.5-2.168-0.91797-3.2344-0.45703-1.1523-1.0586-2.207-1.6758-3.2344 2.4453-3.4961 7.7148-7.8438 15.48-10.926 12.34-4.8945 21.781-3.125 22.809-0.53125zm-48.043-15.113c2.1602-4.9961 5.2148-9.4023 8.3828-12.07 1.9844-1.6758 3.6406-2.3594 4.5938-2.3594 0.20312 0 0.37109 0.03125 0.50781 0.089844 0.76953 0.33203 1.6758 2.125 1.8477 5.2695 0.22656 4.1367-0.88281 9.375-3.043 14.379-3.0625 7.0898-7.2852 11.707-10.465 13.539-1.4258-0.82031-2.9258-1.4766-4.5-1.9648-0.85156-3.5742-0.38281-9.8047 2.6758-16.883zm-34.746-12.895c0.34375-4.0703 1.6328-5.9766 2.6367-6.375 2.6641-1.0312 10.555 4.5508 15.445 16.895 3.0781 7.7539 3.4961 14.566 2.5938 18.75-1.1328 0.25-2.2656 0.51953-3.375 0.96094-1.1797 0.46875-2.2773 1.0742-3.3398 1.7188-3.5312-2.4297-7.9062-7.6719-10.984-15.438-2.2969-5.7656-3.3789-11.785-2.9766-16.512zm-24.363 33.371c-2.168-2.5352-2.5586-4.3516-2.3008-4.957 0.38281-0.88672 2.6055-1.7578 6.1602-1.7578 3.4023 0 8.0156 0.79687 13.41 3.125 6.8789 2.9688 11.422 6.9961 13.375 10.113-0.41406 0.72656-0.875 1.4219-1.2148 2.1953-0.34375 0.79688-0.53516 1.6211-0.78125 2.4375-3.6055 0.71484-9.6562 0.17188-16.535-2.8008-5.0078-2.168-9.4258-5.2109-12.113-8.3555zm-7.1953 40.34c-1.0586-2.6602 4.5508-10.555 16.895-15.441 7.582-3.0078 14.27-3.4766 18.477-2.6562 0.25781 1.1797 0.55469 2.3594 1.0078 3.5 0.49219 1.2461 1.1133 2.3984 1.793 3.4961-2.4922 3.4922-7.6836 7.75-15.285 10.762-12.328 4.9062-21.828 3.0117-22.887 0.33984zm48.336 15.492c-4.7695 11.039-11.738 15.098-13.48 14.344-1.7852-0.76953-3.5664-8.6094 1.1953-19.648 3.043-7.0469 7.2344-11.648 10.414-13.496 1.4453 0.78516 2.957 1.4375 4.543 1.8828 0.85156 3.5625 0.39062 9.8164-2.6719 16.918zm1.5898 90.98c-7.2734 0.50781-19.66-0.22266-26.383-6.9414-7.1758-7.1797-7.332-20.066-6.9062-26.414 7.2695-0.51562 19.66 0.22266 26.383 6.9414 7.1758 7.1719 7.332 20.07 6.9062 26.414zm340.18 196.36h-382.89v-37.812h382.89zm-12.023-47.887h-358.85v-64.227h358.85zm12.023-74.301h-382.89v-37.812h382.89zm-53.574-199.33c-1.0977-2.7773-1.0547-5.8086 0.125-8.543 1.1797-2.7344 3.3594-4.8516 6.125-5.9492 1.3359-0.52734 2.7305-0.78906 4.1211-0.78906 1.5 0 3.0039 0.30859 4.418 0.92187 2.7344 1.1797 4.8516 3.3555 5.9492 6.1328 2.2734 5.7227-0.53516 12.223-6.2578 14.496-5.707 2.2461-12.215-0.55078-14.48-6.2695zm19.621-42.137c4.3984-10.176 10.629-14.43 12.973-14.43 0.20312 0 0.36719 0.03125 0.50781 0.089844 1.7852 0.76953 3.5664 8.6094-1.1953 19.645-3.0625 7.082-7.2812 11.703-10.461 13.531-0.74609-0.42969-1.457-0.90234-2.2578-1.2461-0.73438-0.31641-1.4961-0.48828-2.2539-0.71875-0.83203-3.5703-0.37109-9.8008 2.6875-16.871zm-34.746-12.895c0.34375-4.0703 1.6367-5.9766 2.6367-6.375 2.6758-1.0312 10.551 4.5508 15.445 16.895 3.0742 7.7422 3.4961 14.551 2.6016 18.738-1.1367 0.25781-2.2773 0.53906-3.3789 0.97656-1.1797 0.46875-2.2773 1.0742-3.3398 1.7188-3.5312-2.4297-7.9062-7.6719-10.984-15.438-2.2969-5.7695-3.3789-11.789-2.9805-16.516zm-26.664 28.41c0.38281-0.88672 2.6055-1.7578 6.1602-1.7578 3.4023 0 8.0156 0.79688 13.418 3.125 6.8789 2.9688 11.422 6.9961 13.375 10.113-0.41406 0.72656-0.875 1.4219-1.2148 2.1953-0.34375 0.79688-0.53516 1.6211-0.78125 2.4375-3.6055 0.71094-9.6562 0.16797-16.535-2.8008-11.043-4.7617-15.172-11.578-14.422-13.312zm1.4844 47.938c-4.0703-0.34375-5.9766-1.6328-6.375-2.6367-1.0586-2.6602 4.5508-10.555 16.895-15.441 7.582-3.0078 14.262-3.4766 18.477-2.6562 0.25781 1.1797 0.55469 2.3594 1.0078 3.5078 0.49219 1.2461 1.1133 2.3984 1.793 3.4961-2.4922 3.4922-7.6836 7.7422-15.285 10.758-5.7656 2.2891-11.793 3.3789-16.512 2.9727zm41.957 12.855c-4.7695 11.039-11.707 15.098-13.48 14.344-1.7852-0.76953-3.5664-8.6094 1.1953-19.648 3.043-7.0469 7.2383-11.648 10.414-13.496 1.4453 0.78516 2.957 1.4297 4.543 1.8828 0.85938 3.5625 0.39453 9.8203-2.6719 16.918zm2.9258 90.98c-7.2656 0.50781-19.66-0.22266-26.383-6.9414-7.1758-7.1797-7.3359-20.066-6.9141-26.414 7.2656-0.51562 19.664 0.22266 26.383 6.9414 7.1875 7.1719 7.3359 20.07 6.9141 26.414zm17.262-26.414c7.168-7.168 20.047-7.3086 26.383-6.9141 0.41797 6.3594 0.25 19.215-6.9141 26.383-7.1758 7.1836-20.066 7.3398-26.414 6.9062-0.054688-0.79688-0.085938-1.6719-0.10547-2.5742v-1.2305-0.03125-0.066406c0.019531-7.2383 1.4102-16.836 7.0508-22.473zm14.203-52.242c-0.34375 4.0703-1.6367 5.9766-2.6367 6.375-2.6641 1.0547-10.551-4.5508-15.445-16.895-3.0078-7.5781-3.4766-14.258-2.6484-18.469 1.0977-0.25 2.1953-0.52344 3.2734-0.95312 1.3047-0.51953 2.5156-1.1758 3.6641-1.8984 3.5 2.4727 7.7891 7.6797 10.82 15.324 2.2812 5.7695 3.3672 11.789 2.9727 16.516zm26.664-28.383c-0.76953 1.7852-8.6094 3.5703-19.648-1.1953-6.9141-2.9844-11.453-7.0625-13.371-10.219 0.84766-1.5156 1.5234-3.1094 2-4.7812 3.6016-0.78516 9.7227-0.29688 16.676 2.7109 11.039 4.7656 15.109 11.703 14.344 13.484zm2.0977-39.012c-3.1836 3.5078-8.3242 6.832-14.102 9.1289-7.7539 3.0781-14.551 3.5312-18.73 2.6719-0.24609-1.082-0.49219-2.1602-0.91797-3.2227-0.45312-1.1484-1.0469-2.2109-1.6719-3.25 2.4492-3.4961 7.7148-7.8398 15.477-10.918 12.34-4.8867 21.781-3.1172 22.812-0.52344 0.40234 1.0156-0.32422 3.3125-2.8672 6.1133z"/>
 </g>
</svg>