<?xml version="1.0" encoding="UTF-8"?>
<!-- The Best Svg Icon site in the world: iconSvg.co, Visit us! https://iconsvg.co -->
<svg fill="#000000" width="800px" height="800px" version="1.1" viewBox="144 144 512 512" xmlns="http://www.w3.org/2000/svg">
 <path d="m483.56 360.18c4.6367-2.582 7.8164-7.4766 7.8164-13.152v-4.9492c0-8.3359-6.7812-15.113-15.113-15.113l-59.465-0.003907c-8.3359 0-15.113 6.7812-15.113 15.113v4.9492c0 5.9414 3.4766 11.043 8.4727 13.508l-7.9922 23.805c-6.8555 20.426-10.328 41.703-10.328 63.246v94.77c0 8.3359 6.7812 15.113 15.113 15.113h79.93c8.3359 0 15.113-6.7812 15.113-15.113l0.003906-94.766c0-21.535-3.4766-42.812-10.332-63.246zm-71.801-18.105c0-2.7773 2.2578-5.0391 5.0391-5.0391h59.465c2.7812 0 5.0391 2.2617 5.0391 5.0391v4.9492c0 2.7773-2.2578 5.0391-5.0391 5.0391h-59.465c-2.7812 0-5.0391-2.2617-5.0391-5.0391zm80.164 200.28c0 2.7812-2.2578 5.0391-5.0391 5.0391h-19.887c8.8477-5.25 15.008-13.309 12.008-20.672-3.7969-9.3203-14.055-9.6172-21.453-5.1797-7.3984 4.4375-8.0977-1.6836-14.797-2.9609-15.535-2.9609-12.578 13.316-12.578 13.316-0.39453 7.1016 1.1758 12.109 3.9375 15.492h-27.164c-2.7812 0-5.0391-2.2578-5.0391-5.0391v-39.113c5.8633 3.7188 14.883 6.1133 20.922-8.0469 11.902-27.906-9.9102-39.41-20.922-43.301v-4.3047c0-20.453 3.2969-40.652 9.8047-60.043l8.5273-25.406h53.34l8.5273 25.406c3.4375 10.25 5.957 20.727 7.5898 31.34-10.301 4.0625-43.777 19.371-31.566 42.574 14.359 27.285-0.12109 28.133 21.297 37.957 5.8398 2.6797 9.8203 0.79297 12.492-3.8281zm-39.199-149.14c4.0703 10.727-5.1797 26.633-24.414 25.895-6.9727-0.26953-11.098-2.5898-12.578-8.5078-2.9414-11.77 8.1367-15.906 8.1367-15.906 9.6211-21.082 25.863-9.3672 28.855-1.4805zm174.97-8.8789-8.1055-24.16c4.6406-2.582 7.8203-7.4805 7.8203-13.156v-4.9492c0-8.3359-6.7812-15.113-15.113-15.113h-59.465c-8.3359 0-15.113 6.7812-15.113 15.113v4.9492c0 5.9375 3.4727 11.039 8.4688 13.508l-7.9922 23.809c-6.8555 20.426-10.328 41.703-10.328 63.246v94.77c0 8.3359 6.7812 15.113 15.113 15.113h79.93c8.3359 0 15.113-6.7812 15.113-15.113l0.003906-94.77c0-21.547-3.4766-42.828-10.332-63.246zm-79.898-42.266c0-2.7773 2.2578-5.0391 5.0391-5.0391h59.465c2.7812 0 5.0391 2.2617 5.0391 5.0391v4.9492c0 2.7773-2.2578 5.0391-5.0391 5.0391h-59.469c-2.7812 0-5.0391-2.2617-5.0391-5.0391zm80.156 200.28c0 2.7812-2.2578 5.0391-5.0391 5.0391h-21.629c1.3086-1.6484 2.5625-3.6797 3.7188-6.2109 0 0 11.082-4.1328 8.1367-15.906-1.4805-5.918-5.6016-8.2383-12.578-8.5078-19.234-0.73828-28.48 15.164-24.414 25.895 0.57812 1.5234 1.6602 3.1875 3.082 4.7305h-36.25c-2.7812 0-5.0391-2.2578-5.0391-5.0391v-24.883c8.4414-3.1836 45.555-18.805 32.797-43.047-14.359-27.285 0.11719-28.133-21.297-37.957-5.0039-2.2969-8.6367-1.2227-11.258 2.0195 0.83203-17.34 4.0234-34.438 9.5625-50.945l8.5273-25.406h53.34l8.5273 25.406c4.9492 14.734 8.0312 29.941 9.2305 45.375-5.8438-3.8672-15.145-6.7422-21.336 7.7695-12.27 28.77 11.293 40.109 21.914 43.645zm-29.258-138.38s2.9609 16.277-12.578 13.316c-6.6992-1.2773-7.3984-7.3984-14.797-2.9609-7.3984 4.4375-17.656 4.1406-21.453-5.1797-8.1328-19.969 51.051-45.121 48.828-5.1758zm-250.28-82.066h-20.426l-11.086-15.445v-0.003906c-1.1914-1.6523-1.8164-3.6094-1.8164-5.6523v-21.484l0.050781-0.12891h13.242c3.0117 0 5.8438-1.332 7.7656-3.6523 1.918-2.3203 2.6953-5.3516 2.1328-8.3086l-2.4961-13.098c-1.3594-7.1172-7.6055-12.281-14.848-12.281h-121.41c-7.2461 0-13.492 5.1641-14.848 12.281l-2.4961 13.098c-0.5625 2.9609 0.21484 5.9883 2.1367 8.3086 1.918 2.3203 4.7461 3.6523 7.7617 3.6523h13.242l0.050782 0.12891v21.426c0 2.082-0.64062 4.0781-1.8555 5.7656l-11.051 15.395h-20.422c-5.5586 0-10.078 4.5195-10.078 10.078v21.012c0 14.391 2.9805 28.012 8.1875 40.309v154.75c0 5.5547 4.5195 10.078 10.078 10.078h160c5.5586 0 10.078-4.5234 10.078-10.078l-0.003906-154.75c5.207-12.297 8.1875-25.918 8.1875-40.309v-21.012c0-5.5586-4.5195-10.078-10.074-10.078zm-156.34-52.789 2.4961-13.098c0.44922-2.3711 2.5352-4.0938 4.9492-4.0938h121.41c2.4141 0 4.4961 1.7227 4.9492 4.0938l2.4961 13.094zm112.93 10.074v20.027h-89.562v-20.027zm-108.46 54.316 15.16-21.121c0.70312-0.98047 1.2852-2.0195 1.793-3.0938h93.453c0.50391 1.0547 1.0742 2.0781 1.7695 3.0469l15.195 21.164c5.6133 7.8203 9.7891 16.34 12.531 25.27l-152.44 0.003906c2.7422-8.9297 6.9219-17.453 12.535-25.27zm-23.988 29.109c-0.32031-3.1641-0.51562-6.3672-0.51562-9.6211v-21.012h13.434c-6.1016 9.5195-10.465 19.84-12.918 30.633zm167.67 185.45h-160v-24.414h160zm0-34.492h-160v-102.06c10.078 14.398 23.738 25.648 39.574 32.199v1.5234c0 8.3359 6.7812 15.113 15.113 15.113h50.621c8.3359 0 15.113-6.7812 15.113-15.113v-1.5234c15.836-6.5508 29.496-17.801 39.574-32.199zm-110.35-68.344v-2.5898c0-2.7812 2.2617-5.0391 5.0391-5.0391h50.621c2.7773 0 5.0391 2.2578 5.0391 5.0391v2.5938c0 2.7812-2.2617 5.0391-5.0391 5.0391l-50.625-0.003907c-2.7773 0-5.0352-2.2578-5.0352-5.0391zm110.35-54.016c-8.7227 19.418-23.82 34.77-42.34 42.762-2.7383-3.8906-7.2422-6.4492-12.348-6.4492l-50.625-0.003906c-5.1094 0-9.6133 2.5625-12.348 6.4531-18.52-7.9922-33.617-23.344-42.34-42.762v-7.457c0-5.0312 0.48828-10.008 1.3555-14.898h157.29c0.86719 4.8945 1.3555 9.8672 1.3555 14.898zm8.1875-38.215c0 3.2539-0.19531 6.457-0.51562 9.6211-2.4531-10.793-6.8164-21.113-12.922-30.637h13.438z"/>
</svg>