<?xml version="1.0" encoding="UTF-8"?>
<!-- The Best Svg Icon site in the world: iconSvg.co, Visit us! https://iconsvg.co -->
<svg fill="#000000" width="800px" height="800px" version="1.1" viewBox="144 144 512 512" xmlns="http://www.w3.org/2000/svg">
 <g>
  <path d="m271.44 547.93c-6.668 0-13.059 2.6484-17.773 7.3594-4.7109 4.7148-7.3594 11.105-7.3594 17.773 0 6.6641 2.6484 13.055 7.3594 17.77 4.7148 4.7109 11.105 7.3594 17.773 7.3594 6.6641 0 13.055-2.6484 17.77-7.3594 4.7148-4.7148 7.3594-11.105 7.3594-17.77-0.003906-6.6641-2.6562-13.051-7.3672-17.766-4.7109-4.7109-11.098-7.3594-17.762-7.3672zm0 42.391c-4.5781 0-8.9688-1.8164-12.207-5.0547-3.2344-3.2383-5.0547-7.6289-5.0547-12.203 0-4.5781 1.8203-8.9688 5.0547-12.207 3.2383-3.2344 7.6289-5.0547 12.207-5.0547s8.9648 1.8203 12.203 5.0547c3.2383 3.2383 5.0547 7.6289 5.0547 12.207-0.003907 4.5742-1.8242 8.9609-5.0586 12.195-3.2383 3.2383-7.625 5.0586-12.199 5.0625z"/>
  <path d="m637.77 468.23c-0.015626-5.0781-3.4062-9.5234-8.2969-10.883 6.8164-13.164 8.3711-25.039 4.5273-35.289-5.2812-14.094-19.215-21.137-27.055-24.082h-0.003907c-1.3633-0.53516-2.3281-1.7656-2.5195-3.2188-4.3555-30.602-36.957-28.883-46.84-27.621h0.003906c-1.1094 0.18359-2.2422-0.15625-3.0703-0.91797-30.082-29.004-64.215-9.5625-73.953-2.918v0.003906c-0.91016 0.61719-2.0469 0.80469-3.1016 0.50781-15.945-4.5625-27.195-0.074218-34.027 7.3711-1.9297-3.918-5.9102-6.4023-10.273-6.418h-112.53c-4.6055 0-8.7695 2.7461-10.582 6.9805l-35.258 82.262h-0.003906c-0.57422 1.3398-1.8945 2.2109-3.3516 2.2109h-52.703c-7.2578 0.019532-14.316 2.3594-20.145 6.6797-5.8281 4.3203-10.117 10.395-12.246 17.332-5.707 0.75391-9.9805 5.6094-9.9961 11.367v39.723c-4.4492 1.6172-7.4102 5.8398-7.4258 10.57v20.102c0.007813 6.2383 5.0625 11.293 11.301 11.301h49.82c0.14062 14.695 8.0625 28.211 20.812 35.516s28.418 7.3047 41.164 0c12.75-7.3047 20.672-20.82 20.816-35.516h6.4688c3.0312-0.003906 5.9062-1.3203 7.8945-3.6055 1.9844-2.2852 2.8867-5.3164 2.4688-8.3164-2.0273-14.957-9.7422-28.555-21.543-37.973-11.797-9.4141-26.77-13.918-41.801-12.578-15.035 1.3359-28.977 8.418-38.922 19.77h-2.3633v-38.965c-0.003907-6.3594-5.1562-11.516-11.516-11.52h-18.742c1.9766-4.7266 5.3047-8.7656 9.5664-11.613 4.2578-2.8438 9.2617-4.3711 14.387-4.3867h52.703c4.6055 0.003906 8.7734-2.7422 10.586-6.9805l35.258-82.262h0.003906c0.57031-1.3398 1.8906-2.2109 3.3477-2.207h65.371v179.41h-42.844c-2.1758 0-3.9375 1.7617-3.9375 3.9375 0 2.1719 1.7617 3.9336 3.9375 3.9336h112.47c-0.078124 0.49219-0.19922 0.97266-0.26953 1.4727h0.003907c-0.41406 2.9961 0.48828 6.0234 2.4727 8.3008 1.9844 2.2812 4.8555 3.5938 7.8789 3.6016h6.4805-0.003907c0 14.789 7.8906 28.457 20.699 35.852 12.812 7.3984 28.594 7.3984 41.402 0 12.809-7.3945 20.699-21.062 20.699-35.852h6.4844-0.003907c3.0234-0.007812 5.8984-1.3203 7.8828-3.6016 1.9805-2.2812 2.8828-5.3086 2.4688-8.3047-2.4219-17.82-12.875-33.547-28.363-42.684-15.488-9.1367-34.309-10.676-51.078-4.1758-16.766 6.4961-29.637 20.316-34.922 37.504h-42.246v-179.41h17.934c2.0117 0 3.6406 1.6328 3.6445 3.6445v99.363c0 1.043 0.41406 2.0469 1.1523 2.7852s1.7383 1.1523 2.7812 1.1523h180.66v68.797c0 2.0117-1.6289 3.6445-3.6406 3.6484h-33.656c-2.1758 0-3.9375 1.7617-3.9375 3.9375 0 2.1719 1.7617 3.9336 3.9375 3.9336h33.656c6.3594-0.007812 11.508-5.1641 11.512-11.52v-69.203c5-1.2891 8.4922-5.7891 8.5078-10.949zm-460.97 93.762v-20.102c0-1.8906 1.5352-3.4258 3.4258-3.4258h41.328c-4.3711 6.957-7.2148 14.766-8.3438 22.906-0.17188 1.3516-0.078126 2.7188 0.27344 4.0352h-33.258c-1.8867-0.003906-3.418-1.5273-3.4258-3.4141zm94.641 44.605c-8.8945 0-17.426-3.5352-23.715-9.8242-6.293-6.2891-9.8242-14.82-9.8242-23.715 0-8.8984 3.5312-17.426 9.8242-23.719 6.2891-6.2891 14.82-9.8203 23.715-9.8203 8.8945 0 17.426 3.5312 23.715 9.8203 6.2891 6.293 9.8242 14.82 9.8242 23.719-0.011719 8.8906-3.5469 17.414-9.8359 23.703-6.2852 6.2891-14.812 9.8242-23.703 9.8359zm0-88.137c12.293 0.03125 24.16 4.4961 33.426 12.574 9.2656 8.0781 15.305 19.23 17.004 31.406 0.10938 0.75781-0.11719 1.5273-0.625 2.1016-0.48047 0.5625-1.1836 0.88281-1.9258 0.87891h-6.7539c-0.14844 0.019531-0.29297 0.050781-0.4375 0.085938-2.3633-12.777-10.59-23.707-22.219-29.508-11.629-5.8008-25.309-5.8008-36.938 0-11.629 5.8008-19.855 16.73-22.219 29.508-0.14453-0.035157-0.28906-0.066407-0.4375-0.085938h-6.7578c-0.73828 0.003907-1.4414-0.31641-1.9219-0.87891-0.5-0.57422-0.72656-1.3398-0.62109-2.0977 1.6992-12.176 7.7344-23.324 17-31.406 9.2656-8.0781 21.133-12.543 33.426-12.57zm-87.219 12.129v-17.371h32.938v17.371zm32.938-38.965v13.727h-32.938v-13.73c0-2.0117 1.6328-3.6484 3.6445-3.6484h25.648c2.0117 0 3.6445 1.6367 3.6445 3.6484zm296.44 114.97c-8.8984 0-17.43-3.5352-23.719-9.8242-6.2891-6.2891-9.8242-14.82-9.8242-23.715-0.003906-8.8945 3.5312-17.426 9.8203-23.715 6.2891-6.2891 14.82-9.8242 23.715-9.8242s17.426 3.5312 23.719 9.8203c6.2891 6.293 9.8203 14.82 9.8203 23.719-0.007812 8.8906-3.5469 17.414-9.832 23.699-6.2852 6.2891-14.809 9.8281-23.699 9.8398zm0-88.137c12.293 0.027344 24.16 4.4922 33.426 12.574 9.2656 8.082 15.301 19.234 16.996 31.41 0.10937 0.75781-0.11719 1.5234-0.62109 2.0977-0.48047 0.5625-1.1875 0.88281-1.9258 0.87891h-6.7539c-0.14844 0.019531-0.29297 0.046875-0.4375 0.085938-2.3555-12.781-10.586-23.715-22.215-29.516-11.633-5.8047-25.312-5.8047-36.945 0-11.629 5.8008-19.855 16.734-22.215 29.516-0.14453-0.035157-0.29297-0.066407-0.44141-0.085938h-6.7383c-0.73828 0.003907-1.4414-0.31641-1.9258-0.87891-0.50391-0.57422-0.73438-1.3398-0.625-2.0977 1.6992-12.172 7.7344-23.324 17-31.402 9.2617-8.0781 21.129-12.543 33.422-12.574zm-106.25 33.586h-13.469v-179.41h13.469zm37.594-168.78c2.2656-5.5352 9.7539-17.762 30.352-11.887h-0.003907c3.3086 0.94531 6.8633 0.36719 9.6992-1.5742 10.902-7.4297 38.965-22.113 64.055 2.082 2.5508 2.4062 6.0508 3.5352 9.5273 3.0625 10.355-1.3242 34.816-1.9258 38.062 20.914l-0.003906 0.003906c0.59766 4.3008 3.4922 7.9336 7.5508 9.4766 6.5859 2.4766 18.262 8.2969 22.434 19.48 3.125 8.3281 1.5742 18.402-4.6562 29.945-0.6875 1.293-2.0352 2.1016-3.5039 2.1055h-173.79v-72.164c-0.007813-0.49609 0.085937-0.98438 0.27344-1.4453zm181.48 88.445h-181.75v-6.9648h181.75c1.9219 0 3.4844 1.5586 3.4844 3.4844 0 1.9219-1.5625 3.4805-3.4844 3.4805z"/>
  <path d="m371.98 454.77v-62.672c-0.003907-6.3555-5.1562-11.508-11.516-11.516h-24.496c-4.6133-0.003906-8.7852 2.75-10.598 6.9922l-26.793 62.664c-1.5234 3.5586-1.1562 7.6406 0.97266 10.871 2.1328 3.2305 5.7422 5.1758 9.6133 5.1758h51.301c6.3594-0.007812 11.512-5.1602 11.516-11.516zm-7.8711 0c0 2.0117-1.6328 3.6406-3.6445 3.6445h-51.301c-1.2266 0-2.3672-0.61719-3.043-1.6406-0.67188-1.0195-0.78516-2.3125-0.30469-3.4375l26.793-62.668c0.57812-1.3438 1.8984-2.2148 3.3594-2.2148h24.496c2.0117 0.003906 3.6445 1.6328 3.6445 3.6445z"/>
  <path d="m343.16 477.63c-2.1758 0-3.9375 1.7617-3.9375 3.9375 0 2.1719 1.7617 3.9336 3.9375 3.9336h18.336c2.1758 0 3.9375-1.7617 3.9375-3.9336 0-2.1758-1.7617-3.9375-3.9375-3.9375z"/>
  <path d="m465.51 449.28c1.293 0 2.5-0.63281 3.2344-1.6953 0.73438-1.0586 0.90625-2.4141 0.45312-3.6211-4.9961-13.383 7.1602-22.09 7.7578-22.512 1.793-1.2305 2.25-3.6797 1.0195-5.4727-1.2305-1.7969-3.6836-2.25-5.4766-1.0195-6.207 4.25-16.43 16.359-10.676 31.758 0.57422 1.5391 2.0469 2.5625 3.6875 2.5625z"/>
  <path d="m499 399.8c2.0664 0.67188 4.2852-0.45703 4.9609-2.5234 1.2109-5.168 4.5508-9.582 9.1992-12.148 3.9414-1.5469 8.3164-1.5625 12.27-0.046875 2 0.85938 4.3164-0.0625 5.1758-2.0586 0.85938-1.9961-0.058593-4.3125-2.0586-5.1719-5.9609-2.3789-12.609-2.3555-18.551 0.070313-6.7422 3.4219-11.676 9.5938-13.523 16.926-0.66797 2.0664 0.46484 4.2812 2.5273 4.9531z"/>
  <path d="m576.59 440.5c1.7422 1.3047 4.207 0.95312 5.5117-0.78516 2.2656-3.2305 3.5469-7.0469 3.6875-10.988 0.14062-3.9414-0.86719-7.8359-2.8984-11.215-1.1484-1.8477-3.5781-2.418-5.4258-1.2695-1.8477 1.1484-2.4141 3.5781-1.2656 5.4258 2.457 4.1484 2.3047 9.3438-0.39453 13.34-1.293 1.7383-0.94141 4.1875 0.78516 5.4922z"/>
  <path d="m513.6 547.93c-6.668 0-13.059 2.6445-17.773 7.3594-4.7148 4.7109-7.3633 11.105-7.3633 17.77 0 6.6641 2.6445 13.059 7.3594 17.773 4.7109 4.7109 11.105 7.3594 17.77 7.3594 6.668 0 13.059-2.6445 17.773-7.3594 4.7109-4.7148 7.3594-11.105 7.3594-17.77-0.007812-6.6641-2.6562-13.051-7.3672-17.762-4.7109-4.7109-11.098-7.3633-17.758-7.3711zm0 42.391c-4.5781 0-8.9688-1.8164-12.207-5.0508-3.2383-3.2383-5.0586-7.6289-5.0586-12.207s1.8164-8.9688 5.0547-12.203c3.2344-3.2383 7.625-5.0586 12.203-5.0586s8.9688 1.8203 12.207 5.0547c3.2344 3.2383 5.0547 7.6289 5.0547 12.207-0.007813 4.5742-1.8281 8.9609-5.0625 12.195-3.2344 3.2344-7.6172 5.0547-12.191 5.0625z"/>
 </g>
</svg>