<?xml version="1.0" encoding="UTF-8"?>
<!-- The Best Svg Icon site in the world: iconSvg.co, Visit us! https://iconsvg.co -->
<svg fill="#000000" width="800px" height="800px" version="1.1" viewBox="144 144 512 512" xmlns="http://www.w3.org/2000/svg">
 <g>
  <path d="m588.93 352.77c0.019531-19.844-3.1016-39.57-9.2422-58.441 19.066-17.891 27.406-44.438 21.992-70.016-5.4102-25.574-23.785-46.473-48.465-55.105-24.676-8.6367-52.07-3.7578-72.25 12.867-25.277-12.074-52.949-18.305-80.961-18.234-39.543 0.050781-78.078 12.465-110.21 35.512-10.836-20.422-31.453-33.805-54.52-35.387-23.066-1.5859-45.316 8.8516-58.844 27.602-13.531 18.75-16.422 43.156-7.6484 64.547 8.7773 21.391 27.973 36.734 50.77 40.586-10.398 33.523-11.25 69.281-2.4531 103.26 8.793 33.98 26.883 64.836 52.238 89.105 25.355 24.27 56.973 40.992 91.305 48.289v98.812h62.977v-96.094c29.984-3.8125 58.621-14.742 83.523-31.875 24.902-17.133 45.344-39.973 59.621-66.613 6.7969 3.7188 14.422 5.6641 22.168 5.6523 16.875 0 32.469-9.0039 40.906-23.617s8.4375-32.617 0-47.23c-8.4375-14.613-24.031-23.617-40.906-23.617zm-181.05 267.65h-31.488v-198.15c0.015626-6.2656-2.4766-12.281-6.918-16.699l-54.426-54.426h-0.003906c-3.4453-3.4492-3.4453-9.0391 0-12.484 3.4492-3.4492 9.0391-3.4492 12.484 0l32.164 32.172h0.003906c3.5625 3.5664 8.3984 5.5664 13.438 5.5664 5.043 0 9.875-2.0039 13.441-5.5703 3.5625-3.5664 5.5625-8.3984 5.5586-13.441v-51.844c0-4.3477 3.5273-7.8711 7.875-7.8711s7.8711 3.5234 7.8711 7.8711v101.38c0 6.5156 2.5859 12.766 7.1953 17.375 4.6055 4.6055 10.855 7.1953 17.371 7.1953 6.5195 0 12.77-2.5898 17.375-7.1953l22.664-22.664c3.457-3.4297 9.0273-3.4297 12.484 0 1.6562 1.6523 2.5859 3.8984 2.5859 6.2422 0 2.3398-0.92969 4.5859-2.5859 6.2422l-30.812 30.812c-1.4766 1.4766-3.4805 2.3047-5.5703 2.3047h-17.09c-6.2656 0-12.273 2.4883-16.699 6.918-4.4297 4.4297-6.918 10.434-6.918 16.699zm181.05-188.93c-7.3789-0.023437-14.508-2.6797-20.105-7.4883l-7.8164-6.5664-4.3516 9.2266c-12.348 26.023-30.969 48.57-54.191 65.609-23.223 17.043-50.316 28.043-78.848 32.012v-53.434c0-4.3477 3.5273-7.8711 7.875-7.8711h17.09c6.2656 0.015626 12.281-2.4766 16.703-6.9219l30.812-30.812c6.207-6.2031 8.6289-15.25 6.3594-23.73-2.2734-8.4805-8.8945-15.102-17.375-17.375-8.4805-2.2695-17.527 0.15234-23.734 6.3594l-22.664 22.664c-2.5234 2.5273-6.3203 3.2812-9.6172 1.9141-3.3008-1.3633-5.4492-4.5859-5.4492-8.1562v-101.38c0-8.4375-4.5-16.234-11.809-20.453-7.3047-4.2188-16.309-4.2188-23.613 0-7.3086 4.2188-11.809 12.016-11.809 20.453v51.844c-0.10156 1.2656-0.90625 2.3672-2.0781 2.8555-1.1719 0.48438-2.5195 0.27344-3.4883-0.54688l-32.164-32.164v-0.003907c-6.207-6.207-15.254-8.6289-23.734-6.3594-8.4766 2.2734-15.102 8.8945-17.371 17.375-2.2734 8.4805 0.15234 17.527 6.3594 23.734l54.426 54.426c1.4688 1.4805 2.2969 3.4805 2.3047 5.5664v99.148c-32.004-7.4844-61.219-23.914-84.238-47.379-23.02-23.461-38.887-52.984-45.758-85.129-6.8672-32.141-4.4531-65.574 6.9648-96.395l3.9375-10.508-11.25-0.082031c-12.578-0.09375-24.68-4.8164-33.996-13.27-9.3164-8.4531-15.195-20.039-16.508-32.551-1.3164-12.512 2.0234-25.066 9.3789-35.27 7.3594-10.203 18.215-17.34 30.5-20.047 12.285-2.707 25.133-0.79297 36.098 5.375s19.27 16.16 23.336 28.062l3.6289 10.637 8.7539-7.0469c26.027-20.949 57.559-33.914 90.793-37.332 33.238-3.418 66.75 2.8594 96.496 18.07l5.125 2.6289 4.0547-4.0938c11.473-11.805 27.352-18.281 43.805-17.871 16.457 0.41016 31.992 7.668 42.863 20.031 10.871 12.359 16.09 28.695 14.395 45.066-1.6953 16.375-10.148 31.297-23.32 41.168l-4.5664 3.4961 1.9375 5.4062c6.7109 18.734 10.133 38.488 10.117 58.387 0 2.793-0.078125 5.582-0.21094 8.3516l-0.47266 10.156 9.9492-2.0859c2.1289-0.44531 4.3008-0.67188 6.4766-0.67578 11.25 0 21.645 6 27.27 15.742 5.625 9.7422 5.625 21.746 0 31.488-5.625 9.7422-16.02 15.746-27.27 15.746z"/>
  <path d="m407.87 203.2c-6.2656 0-12.27 2.4883-16.699 6.9141-4.4297 4.4297-6.918 10.438-6.918 16.699 0 6.2656 2.4883 12.273 6.918 16.699 4.4297 4.4297 10.434 6.918 16.699 6.918 6.2617 0 12.27-2.4883 16.699-6.918 4.4297-4.4258 6.918-10.434 6.918-16.699 0-6.2617-2.4883-12.27-6.918-16.699-4.4297-4.4258-10.438-6.9141-16.699-6.9141zm0 31.488c-3.1836 0-6.0547-1.918-7.2734-4.8594s-0.54297-6.3281 1.707-8.582c2.25-2.25 5.6367-2.9219 8.5781-1.7031 2.9414 1.2148 4.8594 4.0859 4.8594 7.2695 0 2.0898-0.82813 4.0898-2.3047 5.5664-1.4766 1.4766-3.4805 2.3086-5.5664 2.3086z"/>
  <path d="m470.85 313.41c-6.2656 0-12.27 2.4883-16.699 6.918-4.4297 4.4297-6.918 10.434-6.918 16.699 0 6.2617 2.4883 12.27 6.918 16.699 4.4297 4.4258 10.434 6.9141 16.699 6.9141 6.2617 0 12.27-2.4883 16.699-6.9141 4.4297-4.4297 6.9141-10.438 6.9141-16.699 0-6.2656-2.4844-12.27-6.9141-16.699-4.4297-4.4297-10.438-6.918-16.699-6.918zm0 31.488c-3.1836 0-6.0547-1.918-7.2734-4.8594s-0.54688-6.3281 1.707-8.5781c2.25-2.2539 5.6367-2.9258 8.5781-1.707s4.8594 4.0898 4.8594 7.2734c0 2.0859-0.82812 4.0898-2.3047 5.5664-1.4766 1.4766-3.4805 2.3047-5.5664 2.3047z"/>
  <path d="m510.21 226.81c-6.2617 0-12.27 2.4883-16.699 6.918-4.4297 4.4297-6.918 10.438-6.918 16.699 0 6.2656 2.4883 12.27 6.918 16.699 4.4297 4.4297 10.438 6.918 16.699 6.918s12.27-2.4883 16.699-6.918c4.4297-4.4297 6.918-10.434 6.918-16.699 0-6.2617-2.4883-12.27-6.918-16.699-4.4297-4.4297-10.438-6.918-16.699-6.918zm0 31.488c-3.1836 0-6.0547-1.918-7.2734-4.8594s-0.54297-6.3281 1.707-8.5781 5.6367-2.9258 8.5781-1.707 4.8594 4.0898 4.8594 7.2734c0 2.0898-0.82812 4.0898-2.3047 5.5664-1.4766 1.4766-3.4805 2.3047-5.5664 2.3047z"/>
  <path d="m266.18 415.74c0 6.2656 2.4883 12.27 6.9141 16.699 4.4297 4.4297 10.438 6.918 16.699 6.918 6.2656 0 12.27-2.4883 16.699-6.918 4.4297-4.4297 6.918-10.434 6.918-16.699 0-6.2617-2.4883-12.27-6.918-16.699-4.4297-4.4297-10.434-6.918-16.699-6.918-6.2617 0-12.27 2.4883-16.699 6.918-4.4258 4.4297-6.9141 10.438-6.9141 16.699zm31.488 0c0 3.1836-1.918 6.0547-4.8633 7.2734-2.9414 1.2188-6.3242 0.54297-8.5781-1.707-2.25-2.25-2.9219-5.6367-1.707-8.5781 1.2188-2.9414 4.0898-4.8594 7.2734-4.8594 2.0898 0 4.0898 0.82812 5.5664 2.3047 1.4766 1.4766 2.3086 3.4805 2.3086 5.5664z"/>
  <path d="m281.92 250.43c-6.2617 0-12.27 2.4883-16.699 6.918-4.4297 4.4297-6.918 10.434-6.918 16.699 0 6.2617 2.4883 12.27 6.918 16.699 4.4297 4.4297 10.438 6.918 16.699 6.918s12.27-2.4883 16.699-6.918c4.4297-4.4297 6.918-10.438 6.918-16.699 0-6.2656-2.4883-12.27-6.918-16.699-4.4297-4.4297-10.438-6.918-16.699-6.918zm0 31.488c-3.1836 0-6.0547-1.918-7.2734-4.8594s-0.54297-6.3281 1.707-8.5781c2.25-2.2539 5.6367-2.9258 8.5781-1.707 2.9414 1.2188 4.8594 4.0898 4.8594 7.2734 0 2.0859-0.82812 4.0898-2.3047 5.5664-1.4766 1.4766-3.4766 2.3047-5.5664 2.3047z"/>
 </g>
</svg>