<?xml version="1.0" encoding="UTF-8"?>
<!-- The Best Svg Icon site in the world: iconSvg.co, Visit us! https://iconsvg.co -->
<svg fill="#000000" width="800px" height="800px" version="1.1" viewBox="144 144 512 512" xmlns="http://www.w3.org/2000/svg">
 <path d="m497.25 451.13c-1.9922-1.7969-5.043-1.7109-6.9336 0.18359l-1.0859 1.0859-38.785-38.793 40.645-40.652c18.031-18.035 18.031-47.383 0-65.422l-95.867-95.895c-9.957-9.957-24.227-14.699-38.004-12.727l-109.06 11.949c-19.719 2.8398-35.395 18.609-38.141 38.52l-11.121 107.76c-1.9141 13.855 2.8477 28.035 12.742 37.93l95.965 95.988c8.7344 8.7383 20.348 13.551 32.699 13.551 12.355 0 23.969-4.8125 32.703-13.551l40.641-40.652 38.785 38.797-1.082 1.082c-1.8945 1.8945-1.9766 4.9414-0.18359 6.9336l83.594 92.844c7.3906 7.3906 17.211 11.461 27.656 11.461 10.445 0 20.266-4.0703 27.652-11.457 15.246-15.254 15.246-40.062-0.1875-55.496zm-131.36 32.801c-6.832 6.832-15.918 10.598-25.578 10.598-9.6602 0-18.742-3.7656-25.578-10.598l-95.965-95.988c-7.6719-7.6758-11.367-18.676-9.8633-29.598l11.125-107.76c2.1133-15.316 14.277-27.547 29.406-29.727l109.06-11.949c10.797-1.5781 21.879 2.1289 29.609 9.8555l95.867 95.891c14.102 14.109 14.102 37.062 0 51.172l-40.645 40.652-52.801-52.812c-4.9141-4.9141-11.449-7.625-18.395-7.625-6.9492 0-13.484 2.7109-18.402 7.625-10.137 10.145-10.137 26.656 0.003906 36.801l52.801 52.812zm-5.0312-100.59c-6.2148-6.2188-6.2148-16.336-0.003906-22.555 6.0234-6.0234 16.516-6.0234 22.547 0l98.711 98.734-22.547 22.551zm222.09 199.59c-5.4844 5.4883-12.777 8.5078-20.531 8.5078-7.7539 0-15.047-3.0195-20.348-8.3164l-80.211-89.098 32.199-32.211 88.891 80.051c11.316 11.32 11.316 29.746 0 41.066z"/>
</svg>