<?xml version="1.0" encoding="UTF-8"?>
<!-- The Best Svg Icon site in the world: iconSvg.co, Visit us! https://iconsvg.co -->
<svg fill="#000000" width="800px" height="800px" version="1.1" viewBox="144 144 512 512" xmlns="http://www.w3.org/2000/svg">
 <path d="m592.35 226.98-6.9102-6.9102v-0.003906c-24.711-24.504-57.723-38.844-92.496-40.184-34.777-1.3359-68.789 10.43-95.309 32.965l-8.8086 7.5508c-5.3281 4.2891-8.0469 11.039-7.1797 17.828 0.87109 6.7852 5.1992 12.633 11.438 15.441 6.2383 2.8125 13.488 2.1797 19.145-1.6641l17.32-11.02c15.84-10.188 34.699-14.629 53.422-12.574 18.723 2.0586 36.172 10.48 49.426 23.863l13.609 13.609c21.535 21.172 30.348 52.113 23.199 81.457-7.1523 29.34-29.207 52.758-58.07 61.652-28.859 8.8906-60.273 1.9492-82.695-18.281l-38.848-35.855-0.003906-0.003907c-3.1016-2.8711-7.918-2.7773-10.91 0.21484l-65.273 65.289-7.8711-7.8711-127.98 127.98c-8.9531 8.7461-14.031 20.711-14.105 33.23-0.074219 12.516 4.8672 24.539 13.719 33.391 8.8516 8.8516 20.875 13.789 33.391 13.719 12.516-0.074219 24.484-5.1523 33.23-14.105l127.98-127.98-7.8711-7.8711 20.414-20.414h-0.003906c28.352 26.512 65.891 40.977 104.7 40.348 38.809-0.62891 75.859-16.301 103.34-43.715 29.141-29.211 45.504-68.785 45.504-110.04 0-41.262-16.363-80.836-45.504-110.04zm-359.69 368.58c-5.8164 5.9023-13.75 9.2383-22.035 9.2656-8.2852 0.03125-16.238-3.25-22.098-9.1055-5.8594-5.8594-9.1367-13.816-9.1055-22.102 0.027344-8.2852 3.3633-16.215 9.2656-22.031l116.84-116.84 43.969 43.969zm348.55-159.63c-25.113 25.062-59.145 39.141-94.625 39.141s-69.512-14.078-94.625-39.141l-2.1406-2.1406c-3.0742-3.0742-8.0586-3.0742-11.133 0l-25.93 25.922-28.227-28.227 59.93-59.93 33.289 30.699c26.609 23.27 63.41 31.027 97.148 20.477 33.742-10.547 59.566-37.883 68.184-72.168 8.6172-34.285-1.2148-70.582-25.957-95.832l-13.609-13.609h-0.003907c-15.777-15.934-36.547-25.961-58.836-28.41-22.289-2.4453-44.742 2.8359-63.605 14.965l-17.32 11.02h0.003907c-1.2383 0.80078-2.8203 0.84375-4.0977 0.10938-1.2812-0.73438-2.0391-2.1211-1.9727-3.5938 0.039063-1.1016 0.53906-2.1367 1.3789-2.8516l8.8008-7.5664c23.504-19.965 53.645-30.387 84.461-29.203 30.816 1.1875 60.066 13.891 81.969 35.605l6.9102 6.9102c26.195 26.254 40.91 61.824 40.91 98.91 0 37.086-14.707 72.66-40.902 98.914z"/>
</svg>