<?xml version="1.0" encoding="UTF-8"?>
<!-- The Best Svg Icon site in the world: iconSvg.co, Visit us! https://iconsvg.co -->
<svg fill="#000000" width="800px" height="800px" version="1.1" viewBox="144 144 512 512" xmlns="http://www.w3.org/2000/svg">
 <g>
  <path d="m235.16 332.71 2.1914 12.402c3.6914-0.64844 12.715-2.5156 16.691-5.6914l-7.8203-9.8711c-1.2188 0.83984-6.4961 2.3477-11.062 3.1602z"/>
  <path d="m610.86 313.74c-0.58984 1.3398-2.8281 5.0391-5.9844 6.0742-2.0547 0.67188-4.4805 0.1875-7.3711-1.4766-7.6094-4.3633-12.953-3.0664-16.105-1.2148-2.9414 1.7344-4.832 4.4727-6.0664 7.3672-13.348-10.973-30.781-19.125-49.473-22.625-3.7539-0.70703-10.191-1.0469-19.688-1.0469-30.496 0-85.684 3.5508-115.33 5.457-9.2266 0.59375-16 1.0312-18.824 1.1523-0.50391 0.019531-1.1094 0.03125-1.8047 0.03125-15.594 0-73.043-4.7578-92.367-6.3945 0.003906-16.656-12.887-28.082-13.508-28.625l-3.3867-2.9414-3.8828 2.2383c-21.051 12.102-21.484 30.133-17.996 40.793-9.2344 8.4883-34.859 14.461-50.168 16.355l-6.5781 0.81641 5.4141 30.688 2.3633 1.4844c30.34 19.105 36.461 21.902 38.867 22.309 0.94531 0.37109 3.2188 1.4805 5.25 2.4688 8.8789 4.3242 23.73 11.562 38.215 13.895 14.988 2.418 35.18 14.988 41.457 19.09l10.832 43.344-114.91-0.003907v12.594h113.28l-4.7695 30.23h20.395l13.578-4.7109 2.0508-11.664h16.617l0.57422-5.6641c0.011719-0.10547 0.35938-3.3438 1.2461-8.1914h114.76v-12.594h-111.88c2.5625-9.2344 6.5703-19.613 12.652-26.973 15.203 3.4219 30.172 5.1836 44.727 5.1836h0.015625c43.09 0 71.102-14.895 81.238-21.355l2.6836 2.1914 6.1836 26.066-15.418 41.344h29.547l10.219-28.215 0.90625 3.6211-9.8281 37.816h26.18l10.066-11.895 2.625-24.914 9.9492-23.207-5.1758-18.402c8.4805-8.2617 14.738-22.676 17.09-31.328 4.7461-17.477 2.2812-34.648-7.1289-49.656-1.8672-2.9844-4.0508-5.8594-6.4453-8.6367 0.29297-3.1641 1.2344-6.1094 1.9961-6.6055 0-0.011719 0.98438-0.17969 3.4883 1.2578 7.6641 4.3984 13.863 3.7773 17.715 2.4805 9.0469-3.043 13.074-12.027 13.504-13.043zm-251.09 163.09h-3.2188l3.6016-20.52 8.2969-25.664c2.2422 0.71484 4.4844 1.3672 6.7227 2.0039-9.6953 14.699-13.871 34.543-15.402 44.18zm168.69 0h-2.5781l10.414-27.93-3.2695-13.809 8.1523 6.6406zm58.703-87.234c-2.625 9.6328-9.3828 22.812-15.73 27.305l-3.6328 2.5703 6.2656 22.289-8.9414 20.879-2.4141 22.949-3.7891 4.4805h-4.0508l6.543-25.16-7.1953-28.777-33.441-27.227 0.011718-0.015625c-7.3945-6.0273-11.355-12.82-12.105-20.777-1.5469-16.297 11.238-31.746 11.375-31.902l-9.6211-8.1328c-0.66406 0.78516-16.293 19.52-14.305 41.133 0.73438 7.9141 3.7344 15.105 8.8477 21.512-10.586 6.1719-35.449 17.879-71.926 17.887h-0.015626c-19.871 0-40.633-3.4961-61.777-10.312 0.75391-9.2852 0.82031-28.633-9.0391-45.402l-10.855 6.3867c10.117 17.207 7.3516 38.91 6.8984 41.941l-10.23 31.645-6.8672 38.762-4.5781 1.5781h-3.5312l4.7188-29.887-12.852-51.41-1.9531-1.3516c-1.1289-0.78125-27.859-19.109-48.547-22.449-12.645-2.0391-26.453-8.7656-34.707-12.785-4.5586-2.2227-6.6719-3.25-8.4883-3.5625-3.457-1.5-18.34-10.465-32.074-19.07l-2.168-12.277c13.996-2.3086 44.855-8.8906 54.559-23.16l2.1016-3.0938-1.707-3.332c-0.32422-0.62891-7.1602-14.402 7.2656-25.453 3.2109 4.0742 7.4609 11.418 5.5469 20.043l-1.5625 7.0195 7.1602 0.625c3.2812 0.28906 80.562 6.9883 99.852 6.9883 0.90625 0 1.6914-0.015625 2.3477-0.039063 2.8672-0.125 9.7383-0.5625 19.086-1.168 29.508-1.8984 84.434-5.4297 114.53-5.4297 10.695 0 15.352 0.44922 17.367 0.83203 24.887 4.6641 47.109 18.34 57.988 35.684 7.6055 12.129 9.5039 25.477 5.6445 39.668z"/>
  <path d="m255.78 513.98h350.78v12.594h-350.78z"/>
  <path d="m319.39 544.84h161.85v12.594h-161.85z"/>
  <path d="m496.35 544.84h70.535v12.594h-70.535z"/>
  <path d="m554.66 356.12c0.60938 0.75 14.797 18.535 0.32812 33.656l9.1055 8.7109c17.652-18.461 7.9336-40.984 0.32812-50.316z"/>
  <path d="m394.75 401.67-2.2227 5.8867 2.2383-5.8828-4.4727 11.773c1.043 0.39453 16.445 6.0742 39.66 6.0742 15.148 0 33.625-2.418 53.602-10.309l-4.625-11.715c-45.875 18.125-83.797 4.3125-84.18 4.1719z"/>
  <path d="m316.21 399.57-31.066-18.051 6.3281-10.891 31.066 18.051z"/>
 </g>
</svg>