<?xml version="1.0" encoding="UTF-8"?>
<!-- The Best Svg Icon site in the world: iconSvg.co, Visit us! https://iconsvg.co -->
<svg fill="#000000" width="800px" height="800px" version="1.1" viewBox="144 144 512 512" xmlns="http://www.w3.org/2000/svg">
 <path d="m382.29 617.85c0 4.8906-3.9648 8.8555-8.8555 8.8555h-58.453c-4.8906 0-8.8555-3.9648-8.8555-8.8555 0-20.539 16.652-37.195 37.195-37.195h1.7734c20.539 0 37.195 16.652 37.195 37.195zm-63.473-210.61c0-0.80469 0.039063-1.6055 0.10156-2.4102h-131.45c-2.6914 12.734-4.1172 25.648-4.1172 38.566 0 9.6797 0.8125 19.02 2.3438 28.012l138.71-46.547c-3.6523-5.4844-5.582-11.43-5.582-17.621zm137.12 173.42h-0.28906c-20.953 0-37.938 16.984-37.938 37.938 0 4.4805 3.6328 8.1133 8.1133 8.1133h59.934c4.4805 0 8.1133-3.6328 8.1133-8.1133 0.003906-20.949-16.984-37.938-37.934-37.938zm25.246-173.42c0 6.0039-1.8281 11.789-5.2969 17.16l138.52 46.48c1.4727-8.8281 2.2422-17.992 2.2422-27.484 0-12.914-1.4102-25.832-4.1016-38.566h-131.46c0.066407 0.80469 0.10156 1.6055 0.10156 2.4102zm131.09 74.137c-3.7969 15.977-9.9961 30.746-18.258 44.195l0.66016-0.085937-35.309 55.172h1.8281c20.547 0 37.203 16.656 37.203 37.203 0 4.8906-3.9648 8.8555-8.8555 8.8555h-72.648l-14.273-0.003906c1.1875-2.457 1.8789-5.2109 1.8789-8.1211 0-26.777-21.785-48.562-48.562-48.562h-0.28906c-26.777 0-48.562 21.785-48.562 48.562 0 2.9102 0.68359 5.6562 1.8789 8.1211h-18.199c1.3672-2.6602 2.1562-5.668 2.1562-8.8633 0-26.371-21.453-47.82-47.82-47.82h-1.7852c-26.371 0-47.82 21.453-47.82 47.82 0 3.1953 0.78516 6.2031 2.1562 8.8633h-87.129c-4.8906 0-8.8555-3.9648-8.8555-8.8555 0-20.547 16.656-37.203 37.203-37.203h1.8281l-25.828-42.105c-12.688-16.602-21.945-35.578-27.035-56.652l144.21-48.391c3.6211 3.2109 7.9336 6.1836 12.934 8.8359l4.9922-9.3828c-13.043-6.9375-20.523-16.312-20.523-25.719s7.4805-18.777 20.523-25.719l-4.9922-9.3828c-11.305 6.0156-19.191 13.609-23.172 22.066h-131.79c11.77-43.742 38.449-84.641 74.664-114.83l-14.586-36.855c-9.5586-24.141-0.59766-51.672 21.336-65.562 11.199-7.0938 26.035-3.6211 32.93 7.6992l20.688 33.98c20.977-21.84 46.891-34.762 74.949-34.762 30.371 0 58.23 15.133 80.031 40.355l24.082-39.559c6.8906-11.324 21.734-14.793 32.93-7.6992 21.938 13.891 30.895 41.418 21.336 65.562l-16.742 42.301c33 29.57 57.293 68.215 68.363 109.38l-131.82-0.003906c-3.8477-8.1602-11.324-15.539-21.996-21.457l-5.1523 9.2891c12.59 6.9844 19.527 15.934 19.527 25.195 0 9.2656-6.9375 18.211-19.527 25.199l5.1523 9.2891c4.7109-2.6133 8.7812-5.5156 12.219-8.6367zm-158.63-156.56c0 10.02 7.5078 18.254 17.219 19.406 5.1328-3.1133 8.5586-8.7461 8.5586-15.199 0-9.8203-7.9609-17.781-17.801-17.781-0.92578 0-1.8125 0.058593-2.6992 0.20703-3.2773 3.5078-5.2773 8.1914-5.2773 13.367zm-106.13 0c0-5.1758-2-9.8594-5.2812-13.367-0.88672-0.14453-1.7734-0.20703-2.6992-0.20703-9.8398 0-17.801 7.9609-17.801 17.781 0 6.4531 3.4258 12.086 8.5586 15.199 9.7188-1.1562 17.223-9.3828 17.223-19.406zm57.797 117.69v-14.973c9.1914-1.3047 15.996-5.9258 15.996-11.438 0-6.5312-9.5234-11.82-21.262-11.82-11.742 0-21.266 5.2891-21.266 11.82 0 5.4961 6.7617 10.102 15.906 11.426v14.984h-15.906v10.625h42.473v-10.625z"/>
</svg>