<?xml version="1.0" encoding="UTF-8"?>
<!-- The Best Svg Icon site in the world: iconSvg.co, Visit us! https://iconsvg.co -->
<svg fill="#000000" width="800px" height="800px" version="1.1" viewBox="144 144 512 512" xmlns="http://www.w3.org/2000/svg">
 <g>
  <path d="m602.59 255.79c-14.52-17.094-29.285-22.355-39.266-23.719 7.6172-8.7148 21.457-16.043 27.453-18.621 2.4375-1.0469 3.9609-3.5234 3.7969-6.1719-0.16016-2.6484-1.9688-4.918-4.5195-5.6641-52.23-15.219-93.348-11.531-122.23 10.973-39.816 31.031-42.809 87.211-42.906 101.53-18.137 13.703-33.328 18.512-45.168 14.27-17.637-6.3164-23.293-31.262-23.352-31.535-8.4492-38.293-39.125-63.082-55.574-73.93 10.453-8.3125 18.168-23.262 20.035-27.102 0.85547-1.7539 0.84766-3.8047-0.015625-5.5586-0.86719-1.75-2.4922-2.9961-4.4102-3.375-17.926-3.582-31.211-1.2656-39.477 1.4961l0.003906-4.8125c0-1.8125-0.78516-3.5469-2.1523-4.7422-1.3672-1.1953-3.1836-1.7344-4.9844-1.5-13.723 1.8477-23.852 7.3008-30.098 16.207-6.125 8.7305-6.8203 18.602-6.5312 24.582-28.922 12.16-31.504 36.086-31.605 37.152-0.29688 3.1836 1.8398 6.0898 4.9727 6.75 2.5742 0.53906 5.1641-0.58594 6.5586-2.6992 2.2031-1.4492 9.125-3.7578 16.68-5.8359-2.5352 18.633 4.8867 28.223 10.504 32.691-6.0039 16.969-9.1836 38.102-8.5742 57.691 1.9258 61.844 36.031 113.1 98.641 148.21 25.547 14.332 29.297 40.777 29.641 43.766v0.58984h-155.65v12.594h155.67v14.277l-107.81 0.003906v12.594h107.8v17.895h-38.496c-12.594 0-22.844 10.242-22.844 22.836h12.594c0-5.6484 4.5938-10.242 10.246-10.242h44.793c3.4766 0 6.2969-2.8203 6.2969-6.2969l0.007813-64.574c0-0.19141-0.011719-0.37891-0.023438-0.57031-0.13281-1.4453-3.5938-35.641-36.047-53.848-58.547-32.844-90.434-80.434-92.211-137.62-0.62109-19.871 2.9414-41.363 9.5312-57.496 0.63672-1.5625 0.55469-3.3398-0.10547-4.8867-0.66406-1.5508-1.9961-2.7969-3.5625-3.4102-0.55078-0.21094-13.375-5.5508-6.0547-31.043 0.61328-2.1406 0.050781-4.4492-1.4805-6.0703-1.5312-1.6211-3.8086-2.3086-5.9766-1.8086-6.7695 1.5469-12.188 2.9922-16.535 4.332 4.0391-5.3203 10.758-11.062 21.891-14.867 3.0273-1.0312 4.8008-4.1719 4.1211-7.3008-0.023437-0.10938-2.2578-11.402 3.8906-20.164 3.0898-4.4102 7.8945-7.582 14.324-9.4727v6.8789c0 2.3594 1.3203 4.5195 3.4141 5.5977 2.1016 1.0781 4.6211 0.89062 6.5391-0.47266 0.11719-0.085938 10.781-7.1992 30.961-5.3359-5.4141 8.75-12.855 17.738-18.156 18.02-2.8477 0.15234-5.2383 2.1953-5.8281 4.9883-0.58984 2.793 0.76953 5.6289 3.3164 6.918 0.49219 0.25 49.297 25.473 59.484 71.641 0.28125 1.3008 7.1172 31.957 31.344 40.688 16.746 6.0352 36.828-0.050782 59.707-18.082 1.5781-1.2461 2.4688-3.168 2.3984-5.1797-0.023438-0.62891-1.8594-63.348 38.027-94.434 22.695-17.688 54.766-21.98 95.477-12.82-9.7578 6.1055-21.242 15.422-24.574 26.867-0.61328 2.1172-0.046875 4.3984 1.4453 6.0156 1.4961 1.6211 3.7773 2.3242 5.9258 1.8984 0.67578-0.13672 14.418-2.707 30.648 10.926-16.695 3.3242-44.543 12.391-52.551 36.414-0.92188 2.75 0.15625 5.7695 2.6094 7.3164 0.10547 0.066407 8.9414 5.9805 17.234 21.34-4.5352 0.10938-10.125 0.69531-16.207 2.293-2.1367 0.5625-3.8086 2.2148-4.4297 4.3359-0.62109 2.1211-0.070312 4.4219 1.4297 6.0508 0.089844 0.10156 7.7383 8.5547 13.023 26.184-5.0547-1.7383-11.254-3.1875-17.91-3.1875-2.2383 0-4.2969 1.2109-5.4258 3.1445-1.1289 1.9297-1.1367 4.3359-0.039062 6.2891 0.082031 0.14062 6.8555 12.531 4.5039 34.703-5.6641-2.7109-14-4.7578-25.453-3.1836-2.5625 0.35156-4.6445 2.2383-5.2617 4.75-0.1875 0.76563-19.305 76.691-78.805 90.273-0.27734 0.066406-0.54297 0.14062-0.8125 0.24609-1.1953 0.44922-29.258 11.348-30.094 43.137v64.578c0 3.4766 2.8203 6.2969 6.2969 6.2969h41.645c5.6484 0 10.242 4.5938 10.242 10.242h12.594c0-12.594-10.242-22.836-22.836-22.836h-35.348v-17.895h148.88v-12.594l-148.9-0.003906v-14.277h198.89v-12.594h-198.89v-0.75c0.57422-21.723 18.848-30.219 21.609-31.383 58.566-13.699 81.336-77.551 86.551-95.098 13.664-0.66406 19.027 5.6992 19.207 5.8984 1.4727 2 3.9961 2.9727 6.4102 2.4297 2.4297-0.52344 4.3164-2.4297 4.832-4.8672 4.0156-19.172 2.1328-33.664-0.29297-42.676 8.0703 2 14 5.75 14.078 5.7891 2.0977 1.3594 4.8125 1.3516 6.9062-0.046875 2.0898-1.3906 3.1523-3.8828 2.7109-6.3516-3.0312-16.879-8.5391-28.773-12.883-36.051 7.5234-0.71875 12.695 0.24609 12.746 0.25781 2.3008 0.46875 4.6211-0.38281 6.0977-2.1719 1.4766-1.793 1.8438-4.2539 0.96094-6.4023-7.457-18.102-16.895-28.363-22.277-33.156 11.703-22.645 52.219-25.68 52.652-25.711 2.3711-0.16016 4.4531-1.6406 5.375-3.8359 0.92578-2.168 0.54297-4.6953-0.99219-6.5078z"/>
  <path d="m294.59 332.73c-0.22656 1.0234-21.262 102.81 112.27 137.54 0.52344 0.13672 1.0586 0.20312 1.582 0.20312 2.0352 0 3.9883-0.98828 5.1836-2.7188 1.5-2.1797 1.4805-5.0664-0.054688-7.2305-3.25-4.5703-10.07-14.574-15.473-23.629 13.742 4.1445 34.547 8.2031 54.227 3.2383 2.5625-0.64453 4.4492-2.8203 4.7266-5.4414 0.27734-2.625-1.1172-5.1484-3.4805-6.3164-9.4062-4.625-19.73-10.926-26.48-16.41 13.777-0.55078 35.43-3.1172 53.262-12.902 2.3125-1.2695 3.5938-3.8438 3.2031-6.4492-0.38672-2.6055-2.3594-4.6953-4.9375-5.2383-11.055-2.3125-35.246-10.16-39.465-19.648l-11.512 5.1133c4.6016 10.348 18.633 17.418 30.477 21.703-21.477 6.207-43.602 4.8047-43.867 4.7812-2.1016-0.10938-4.082 0.74609-5.3594 2.3633-1.293 1.6211-1.7031 3.7734-1.0977 5.7539 2.3828 7.8203 12.832 16.062 22.617 22.328-22.227-0.67969-42.316-9.9414-42.57-10.062-2.3086-1.0781-5.0312-0.66016-6.9141 1.043-1.8828 1.7148-2.5508 4.3828-1.6992 6.7773 2.3711 6.6484 8.6133 17.035 14.156 25.605-103.17-34.875-87.254-114.15-86.488-117.67z"/>
  <path d="m523.13 235.68-2.7656-12.289c-71.422 16.07-69.805 95.387-69.781 96.188l12.586-0.38672c-0.015625-0.69531-1.4258-69.695 59.961-83.512z"/>
  <path d="m266.46 223.24h-2.5703c-3.4766 0-6.2969 2.8203-6.2969 6.2969 0 3.4766 2.8203 6.2969 6.2969 6.2969h2.5703c3.4766 0 6.2969-2.8203 6.2969-6.2969 0-3.4766-2.8203-6.2969-6.2969-6.2969z"/>
 </g>
</svg>