<?xml version="1.0" encoding="UTF-8"?>
<!-- The Best Svg Icon site in the world: iconSvg.co, Visit us! https://iconsvg.co -->
<svg fill="#000000" width="800px" height="800px" version="1.1" viewBox="144 144 512 512" xmlns="http://www.w3.org/2000/svg">
 <g>
  <path d="m318.64 250.13h13.414c2.7812 0 5.0391-2.2539 5.0391-5.0391s-2.2539-5.0391-5.0391-5.0391h-13.414c-2.7812 0-5.0391 2.2539-5.0391 5.0391s2.2578 5.0391 5.0391 5.0391z"/>
  <path d="m355.97 250.13h13.414c2.7812 0 5.0391-2.2539 5.0391-5.0391s-2.2539-5.0391-5.0391-5.0391h-13.414c-2.7812 0-5.0391 2.2539-5.0391 5.0391s2.2539 5.0391 5.0391 5.0391z"/>
  <path d="m393.29 250.13h13.41c2.7812 0 5.0391-2.2539 5.0391-5.0391s-2.2539-5.0391-5.0391-5.0391h-13.41c-2.7812 0-5.0391 2.2539-5.0391 5.0391s2.2578 5.0391 5.0391 5.0391z"/>
  <path d="m430.62 250.13h13.414c2.7812 0 5.0391-2.2539 5.0391-5.0391s-2.2539-5.0391-5.0391-5.0391h-13.414c-2.7812 0-5.0391 2.2539-5.0391 5.0391s2.2539 5.0391 5.0391 5.0391z"/>
  <path d="m467.94 250.13h13.414c2.7812 0 5.0391-2.2539 5.0391-5.0391s-2.2539-5.0391-5.0391-5.0391h-13.414c-2.7812 0-5.0391 2.2539-5.0391 5.0391s2.2578 5.0391 5.0391 5.0391z"/>
  <path d="m520.98 198.48h-241.96c-2.7812 0-5.0391 2.2539-5.0391 5.0391v41.02l-7.5 37.797c-1.8164 9.1719-2.7422 18.562-2.7422 27.91l0.003907 286.24c0 2.7852 2.2539 5.0391 5.0391 5.0391h262.44c2.7812 0 5.0391-2.2539 5.0391-5.0391v-286.25c0-9.3477-0.92187-18.742-2.7422-27.91l-7.5-37.797v-41.02c0-2.7852-2.2578-5.0352-5.0391-5.0352zm-244.61 85.809 6.7773-34.156h11.586c2.7812 0 5.0391-2.2539 5.0391-5.0391s-2.2539-5.0391-5.0391-5.0391h-10.672v-31.5h231.88v31.504h-10.672c-2.7812 0-5.0391 2.2539-5.0391 5.0391s2.2539 5.0391 5.0391 5.0391h11.586l6.7773 34.156c0.92188 4.6523 1.5742 9.3711 1.9961 14.105l-251.25-0.003906c0.42188-4.7383 1.0742-9.4531 1.9961-14.105zm-2.5508 25.953c0-0.58984 0.035156-1.1797 0.042969-1.7695h252.27c0.007813 0.58984 0.042969 1.1797 0.042969 1.7695v224h-252.36zm0 281.21v-47.129h252.36v47.129z"/>
  <path d="m455.86 392.37c-13.227-12.539-31.258-19.926-50.531-21.117 2.5938-19.953 23.246-25.051 24.191-25.27 2.7031-0.625 4.3945-3.3164 3.7812-6.0273-0.61328-2.7109-3.3125-4.4102-6.0273-3.7969-6.1641 1.4023-15.262 5.5117-22.242 13.074v-18.09c0-2.7852-2.2539-5.0391-5.0391-5.0391-2.7812 0-5.0391 2.2539-5.0391 5.0391v18.027c-6.9766-7.543-16.074-11.617-22.23-13.012-2.6992-0.60938-5.4102 1.0859-6.0273 3.7969-0.61719 2.7148 1.0859 5.4102 3.7969 6.0312 0.94141 0.21484 21.57 5.1602 24.172 25.207-36.82 2.2109-66.922 27.801-70.117 59.746-2.9258 29.246 16.105 56.172 47.359 67 8.2031 2.8477 12.996 6.957 15.543 13.324 1.9336 4.8359 6.8555 8.0703 12.262 8.0703 0.03125 0 0.023437-0.011719 0.089844 0 5.375-0.039063 10.129-3.168 12.117-7.9688 2.7227-6.5781 7.1328-10.441 14.738-12.926 29.355-9.5859 49.078-34.34 49.078-61.613 0.003907-16.516-7.0547-32.305-19.875-44.457zm-32.328 96.496c-10.41 3.3945-17.059 9.3203-20.922 18.648-0.42969 1.0312-1.5859 1.7383-2.8789 1.7461h-0.015625c-1.3047 0-2.5-0.70703-2.9062-1.7305-3.6289-9.0742-10.691-15.32-21.598-19.105-26.758-9.2695-43.086-31.965-40.633-56.477 2.7227-27.203 29.02-49.02 61.168-50.734 1.418-0.078125 2.8281-0.11328 4.2305-0.11328 18.719 0 36.375 6.6562 48.953 18.582 10.793 10.234 16.734 23.426 16.734 37.145-0.003907 22.898-16.934 43.809-42.133 52.039z"/>
  <path d="m440.74 431.52c-2.7344-0.41406-5.3242 1.4531-5.75 4.207-1.043 6.7305-5.1367 12.797-11.523 17.082-2.3086 1.5508-2.9258 4.6797-1.3789 6.9922 0.97266 1.4453 2.5664 2.2305 4.1875 2.2305 0.96484 0 1.9414-0.27734 2.8008-0.85547 8.75-5.8711 14.387-14.355 15.867-23.902 0.42969-2.7539-1.4531-5.3242-4.2031-5.7539z"/>
 </g>
</svg>