<?xml version="1.0" encoding="UTF-8"?>
<!-- The Best Svg Icon site in the world: iconSvg.co, Visit us! https://iconsvg.co -->
<svg fill="#000000" width="800px" height="800px" version="1.1" viewBox="144 144 512 512" xmlns="http://www.w3.org/2000/svg">
 <g>
  <path d="m308.37 238.15h-46.285c-6.6133 0-11.652 5.3516-11.652 11.652 0 6.6133 5.3516 11.652 11.652 11.652h46.289c6.6133 0 11.652-5.3516 11.652-11.652 0.30859-6.2969-5.043-11.652-11.656-11.652z"/>
  <path d="m423.3 238.15h-46.289c-6.6133 0-11.652 5.3516-11.652 11.652 0 6.6133 5.3516 11.652 11.652 11.652h46.289c6.6133 0 11.652-5.3516 11.652-11.652-0.003906-6.2969-5.0391-11.652-11.652-11.652z"/>
  <path d="m537.92 238.15h-46.289c-6.6133 0-11.652 5.3516-11.652 11.652 0 6.6133 5.3516 11.652 11.652 11.652h46.289c6.6133 0 11.652-5.3516 11.652-11.652-0.003906-6.2969-5.3555-11.652-11.652-11.652z"/>
  <path d="m282.55 488.48c0 7.3047-5.7773 13.223-12.91 13.223-7.1289 0-12.91-5.918-12.91-13.223 0-7.3047 5.7812-13.227 12.91-13.227 7.1328 0 12.91 5.9219 12.91 13.227"/>
  <path d="m543.27 488.48c0 7.3047-5.7812 13.223-12.91 13.223s-12.91-5.918-12.91-13.223c0-7.3047 5.7812-13.227 12.91-13.227s12.91 5.9219 12.91 13.227"/>
  <path d="m593.02 378.9h-9.1328v-18.578c0-9.1328-3.7773-18.262-10.391-24.562l-26.449-25.82v-24.875c0-6.6133-5.3516-11.652-11.652-11.652h-41.562c-6.6133 0-11.652 5.3516-11.652 11.652v24.875l-24.562 24.246-24.562-24.246v-24.875c0-6.6133-5.3516-11.652-11.652-11.652l-42.188 0.003907c-6.6133 0-11.652 5.3516-11.652 11.652v24.875l-24.875 24.246-24.875-24.246v-24.875c0-6.6133-5.3516-11.652-11.652-11.652h-41.559c-6.6133 0-11.652 5.3516-11.652 11.652v24.875l-26.449 25.82c-6.6133 6.2969-10.391 15.43-10.391 24.562v18.578h-9.1328c-6.6133 0-11.652 5.3516-11.652 11.652v159.64c0 6.6133 5.3516 11.652 11.652 11.652h20.781 0.31641 344.16 0.31641 20.781c6.6133 0 11.652-5.3516 11.652-11.652v-159.65c-0.3125-6.6094-5.668-11.648-11.965-11.648zm-350.15-26.449 29.914-29.285c2.2031-2.2031 3.4648-5.3516 3.4648-8.5v-18.262h18.262v18.574c0 3.1484 1.2578 6.2969 3.4648 8.5l29.914 29.285c2.2031 1.8906 3.1484 4.7227 3.1484 7.8711v63.293h-68.328v-33.379c0-6.6133-5.3516-11.652-11.652-11.652h-11.336v-18.578c0-3.1445 0.94531-5.9805 3.1484-7.8672zm262.61-37.473v-18.262h18.262v18.262c0 3.1484 1.2578 6.2969 3.4648 8.5l29.914 29.285c2.2031 1.8906 3.1484 4.7227 3.1484 7.8711v18.578h-11.336c-6.6133 0-11.652 5.3516-11.652 11.652v33.062h-68.328v-63.605c0-2.832 1.2578-5.668 3.1484-7.8711l29.914-29.285c2.2031-2.2031 3.4648-5.0391 3.4648-8.1875zm-114.3 0v-18.262h18.262v18.262c0 3.1484 1.2578 6.2969 3.4648 8.5l29.914 29.285c1.5742 1.2578 2.5195 3.1484 2.832 5.3516v2.5195 63.293h-91.316v-63.605c0-2.832 1.2578-5.668 3.1484-7.8711l29.914-29.285c2.5195-2.2031 3.7812-5.0391 3.7812-8.1875zm-172.55 87.223h20.469v33.062c0 6.6133 5.3516 11.652 11.652 11.652h298.19c6.6133 0 11.652-5.3516 11.652-11.652l-0.007812-33.062h20.469v136.34h-362.43z"/>
 </g>
</svg>