<?xml version="1.0" encoding="UTF-8"?>
<!-- The Best Svg Icon site in the world: iconSvg.co, Visit us! https://iconsvg.co -->
<svg fill="#000000" width="800px" height="800px" version="1.1" viewBox="144 144 512 512" xmlns="http://www.w3.org/2000/svg">
 <path d="m521.55 310.43h69.906c5.5586 0 10.066 4.5391 10.066 10.051v24.68c0 5.5508-4.5273 10.051-10.066 10.051h-58.969c-4.2852 25.562-15.793 48.676-32.352 67.176h34.309c12.312 0 24.703 9.6289 27.742 21.785l33.887 135.56c3.0078 12.035-4.5156 21.789-16.941 21.789h-358.27c-12.363 0-19.98-9.6328-16.941-21.789l33.891-135.56c3.0078-12.031 15.52-21.785 27.738-21.785h34.309c-16.559-18.5-28.062-41.613-32.352-67.176h-58.969c-5.5586 0-10.062-4.5391-10.062-10.051v-24.68c0-5.5508 4.5234-10.051 10.062-10.051h69.906l25.855-90.492c3.3867-11.855 16.145-21.465 28.457-21.465h134.48c12.332 0 25.059 9.5664 28.461 21.465zm-46.574 0-19.191-67.176h-111.57l-19.191 67.176zm11.766 44.781h-173.49c9.9414 38.633 45.012 67.176 86.746 67.176s76.801-28.543 86.742-67.176zm-41.961 201.52v-89.566h-89.566v89.566zm44.785 0h54.598l-22.391-89.566h-32.207zm-179.13 0v-89.566h-32.211l-22.391 89.566z"/>
</svg>