<?xml version="1.0" encoding="UTF-8"?>
<!-- The Best Svg Icon site in the world: iconSvg.co, Visit us! https://iconsvg.co -->
<svg fill="#000000" width="800px" height="800px" version="1.1" viewBox="144 144 512 512" xmlns="http://www.w3.org/2000/svg">
 <g>
  <path d="m620.41 546.94h-19.102l4.4102-26.344c1.5117-9.1211-1.0586-18.449-7.0352-25.504-4.3242-5.2148-10.211-8.8945-16.793-10.496l3.9883-3.8828c4.1172-4.1172 4.1172-10.789 0-14.906-4.1172-4.1172-10.789-4.1172-14.902 0l-3.043 3.1484-0.003906-5.9805c0-5.7969-4.6992-10.496-10.496-10.496s-10.496 4.6992-10.496 10.496v6.1914l-3.043-3.1484c-4.1133-4.1172-10.789-4.1172-14.902 0-4.1172 4.1133-4.1172 10.789 0 14.902l3.9883 3.8828c-6.582 1.6016-12.473 5.2852-16.793 10.496-5.9766 7.0586-8.5469 16.387-7.0352 25.508l4.4102 26.133h-82.078v-83.965h73.473-0.003907c2.7852 0 5.457-1.1094 7.4219-3.0742 1.9688-1.9688 3.0742-4.6406 3.0742-7.4219v-178.43c0-2.7852-1.1055-5.4531-3.0742-7.4219-1.9648-1.9688-4.6367-3.0742-7.4219-3.0742h-73.469v-20.992c0-2.7852-1.1094-5.4531-3.0742-7.4219-1.9688-1.9688-4.6406-3.0742-7.4219-3.0742h-41.984c-5.7969 0-10.496 4.6992-10.496 10.496v20.992h-73.473c-5.7969 0-10.496 4.6992-10.496 10.496v178.43c0 2.7812 1.1055 5.4531 3.0742 7.4219 1.9688 1.9648 4.6367 3.0742 7.4219 3.0742h73.473v83.969l-82.082-0.003906 4.4102-26.344c1.5156-9.1211-1.0586-18.449-7.0312-25.504-4.3242-5.2148-10.215-8.8945-16.793-10.496l3.9883-3.8828c4.1133-4.1172 4.1133-10.789 0-14.906-4.1172-4.1172-10.789-4.1172-14.906 0l-3.043 3.1484v-5.9805c0-5.7969-4.6992-10.496-10.496-10.496s-10.496 4.6992-10.496 10.496v6.1914l-3.043-3.1484c-4.1172-4.1172-10.789-4.1172-14.906 0-4.1133 4.1133-4.1133 10.789 0 14.902l3.9883 3.8828c-6.582 1.6016-12.469 5.2852-16.793 10.496-5.9766 7.0586-8.5469 16.387-7.0312 25.508l4.4062 26.133h-19.102c-5.7969 0-10.496 4.6992-10.496 10.496s4.6992 10.496 10.496 10.496h440.83c5.7969 0 10.496-4.6992 10.496-10.496s-4.6992-10.496-10.496-10.496zm-230.91-293.89h20.992v10.496h-20.992zm-83.969 31.488h188.93v157.44h-188.93zm-85.543 262.4-1.7852-10.496h13.855c5.7969 0 10.496-4.6992 10.496-10.496s-4.6992-10.496-10.496-10.496h-17.004c0-5.7969 4.6992-10.496 10.496-10.496h34.426c3.0703 0 5.9844 1.3438 7.9766 3.6758 2.0469 2.3672 2.9336 5.5195 2.4141 8.6055l-5.2461 29.703zm169.51 0v-83.965h20.992v83.969zm145.37 0-1.7852-10.496h13.852c5.7969 0 10.496-4.6992 10.496-10.496s-4.6992-10.496-10.496-10.496h-17.004c0-5.7969 4.6992-10.496 10.496-10.496h34.43c3.0664 0 5.9805 1.3438 7.9766 3.6758 2.0469 2.3672 2.9336 5.5195 2.4141 8.6055l-5.25 29.703z"/>
  <path d="m452.48 420.99c5.7969 0 10.496-4.6992 10.496-10.496s-4.6992-10.496-10.496-10.496h-8.6055l4.4102-26.344-0.003906-0.003906c1.5117-9.1211-1.0586-18.449-7.0352-25.504-4.3203-5.2148-10.211-8.8945-16.793-10.496l3.9883-3.8828c4.1172-4.1172 4.1172-10.789 0-14.906-4.1133-4.1133-10.789-4.1133-14.902 0l-3.043 3.1484v-5.9805c0-5.7969-4.6992-10.496-10.496-10.496s-10.496 4.6992-10.496 10.496v6.1914l-3.043-3.1484h-0.003907c-4.1133-4.1172-10.785-4.1172-14.902 0-4.1172 4.1172-4.1172 10.789 0 14.902l3.9883 3.8828v0.003906c-6.582 1.6016-12.469 5.2812-16.793 10.496-5.9766 7.0547-8.5469 16.383-7.0352 25.504l4.4102 26.137h-8.6055c-5.7969 0-10.496 4.6992-10.496 10.496s4.6992 10.496 10.496 10.496zm-75.047-20.992-1.7852-10.496h13.855c5.7969 0 10.496-4.6992 10.496-10.496 0-5.7969-4.6992-10.496-10.496-10.496h-17.004c0-5.7969 4.6992-10.496 10.496-10.496h34.426c3.0664 0 5.9844 1.3398 7.9766 3.6719 2.0469 2.3672 2.9336 5.5234 2.4141 8.6055l-5.2461 29.707z"/>
 </g>
</svg>