<?xml version="1.0" encoding="UTF-8"?>
<!-- The Best Svg Icon site in the world: iconSvg.co, Visit us! https://iconsvg.co -->
<svg fill="#000000" width="800px" height="800px" version="1.1" viewBox="144 144 512 512" xmlns="http://www.w3.org/2000/svg">
 <path d="m557.24 535.58c-13.637-22.75-38.297-36.801-64.84-36.801-6.7773 0-13.422 1.0312-19.844 2.8008v-40.23c0-24.031-19.551-43.582-43.582-43.582h-23.938v-114.37c14.133-1.5156 26.754-9.2969 34.406-21.551 13.141-21.039 20.09-45.273 20.09-70.082v-8.2539c0-2.7812-2.2539-5.0391-5.0391-5.0391h-108.99c-2.7812 0-5.0391 2.2539-5.0391 5.0391v8.2539c0 24.809 6.9453 49.039 20.09 70.082 7.6484 12.25 20.273 20.035 34.406 21.551v114.37h-23.938c-24.031 0-43.582 19.551-43.582 43.582v37.633c-22.234 1.707-41.988 14.848-52.141 34.758-4.2695-0.88281-8.543-1.3281-12.75-1.3281-35.332 0-64.074 28.742-64.074 64.074 0 2.7812 2.2539 5.0391 5.0391 5.0391h392.97c2.7812 0 5.0391-2.2539 5.0391-5.0391-0.003906-27.648-18.113-52.402-44.289-60.906zm-188.14-259.07c-12.141-19.438-18.559-41.824-18.559-64.742v-3.2188h98.918v3.2188c0 22.918-6.418 45.305-18.559 64.742-6.6992 10.73-18.254 17.133-30.898 17.133-12.648 0-24.199-6.4023-30.902-17.133zm93.383 184.84v43.77c-10.781 4.6875-20.5 11.785-28.164 20.988-2.2539-1.4414-4.6094-2.6914-7.0117-3.8242l0.003906-94.441h1.668c18.473 0 33.504 15.031 33.504 33.508zm-79.715-33.508h34.465v90.742c-11.18-3.1211-23.125-3.1875-34.465-0.015625zm-11.742 0h1.668v85.309c-10-8.1328-22.195-13.07-35.172-14.105v-37.699c-0.003906-18.473 15.027-33.504 33.504-33.504zm-162.24 163.61c2.5469-27.418 25.688-48.961 53.762-48.961 4.6758 0 9.4648 0.66016 14.238 1.9688 2.4297 0.66016 4.9648-0.56641 5.957-2.875 7.8789-18.355 25.09-30.688 44.695-32.477v48.742c0 2.7812 2.2539 5.0391 5.0391 5.0391 2.7812 0 5.0391-2.2539 5.0391-5.0391v-48.707c13.559 1.2852 26.055 7.6445 35.172 17.91v30.797c0 2.7812 2.2539 5.0391 5.0391 5.0391 2.7812 0 5.0391-2.2539 5.0391-5.0391v-28.719c11.293-3.8047 23.395-3.6992 34.465 0.035156v28.684c0 2.7812 2.2539 5.0391 5.0391 5.0391 2.7812 0 5.0391-2.2539 5.0391-5.0391v-24.145c1.7227 1.0117 3.418 2.0742 5.0312 3.2891 1.0781 0.8125 2.4492 1.168 3.7695 0.95312 1.332-0.19922 2.5352-0.92578 3.3242-2.0156 6.1055-8.3945 14.055-15.102 23.043-19.746v41.668c0 2.7812 2.2539 5.0391 5.0391 5.0391 2.7812 0 5.0391-2.2539 5.0391-5.0391v-45.762c6.3633-2.0469 13.031-3.2305 19.844-3.2305 23.594 0 45.469 12.809 57.086 33.43 0.64844 1.1523 1.7188 2 2.9883 2.3672 21.32 6.1719 36.664 25.004 38.734 46.793z"/>
</svg>