<?xml version="1.0" encoding="UTF-8"?>
<!-- The Best Svg Icon site in the world: iconSvg.co, Visit us! https://iconsvg.co -->
<svg fill="#000000" width="800px" height="800px" version="1.1" viewBox="144 144 512 512" xmlns="http://www.w3.org/2000/svg">
 <g>
  <path d="m585.15 424.77v41.984h-4.3164c0.97656-4.2305 1.5312-8.5664 1.5312-12.977 0-21.242-11.562-39.789-28.691-49.82l7.3711-30.082-12.234-2.9961-6.8203 27.84c-5.4609-1.7266-11.262-2.6641-17.285-2.6758-8.1875-14.293-21.73-24.328-37.344-28.156l4.4922-26.008-12.41-2.1445-4.5703 26.461c-0.5625-0.015624-1.1172-0.11719-1.6836-0.11719-27.059 0-49.902 18.199-57.051 42.988-2.8281-2.5391-5.8633-4.7773-9.0977-6.7227 1.7969-5.7266 2.7188-11.684 2.7188-17.785 0-32.762-26.656-59.414-59.414-59.414-0.60547 0-1.1953 0.074219-1.793 0.089844l-4.0312-28.148-12.469 1.7852 4.0195 28.078c-25.875 6.418-45.141 29.773-45.141 57.609 0 4.8164 0.64453 9.582 1.7852 14.219-5.4453-1.6523-11.211-2.5586-17.191-2.5586-10.434 0-20.234 2.7266-28.762 7.4648l-13.965-22.535-10.707 6.6289 14.375 23.195c-12.445 10.898-20.355 26.859-20.355 44.656 0 3.7578 0.38672 7.4648 1.0781 11.117h-3.1797v-41.984l-36.945 0.003906v146.11h445.04v-146.11h-36.949zm-15.387 29.004c0 4.4453-0.64453 8.793-1.8984 12.977l-86.473 0.003906c-1.2539-4.1797-1.9062-8.5312-1.9062-12.977 0-24.887 20.25-45.145 45.137-45.145 24.887-0.003906 45.141 20.25 45.141 45.141zm-118.98-29.359c7.543 0 14.832 1.875 21.438 5.2891-3.3867 7.3398-5.3242 15.473-5.3242 24.07 0 4.418 0.54297 8.7461 1.5156 12.977l-64.223 0.003906c2.2695-23.727 22.289-42.34 46.594-42.34zm22.41-45.742c15.035 0 28.953 7.1797 37.707 19.086-12.992 3.1836-24.25 10.766-32.133 21.09-8.5742-4.5898-18.141-7.0273-27.988-7.0273-8.3672 0-16.324 1.7578-23.555 4.8984 4.1328-21.637 23.16-38.047 45.969-38.047zm-59.469 46.203c-12.504 10.016-20.852 24.965-22.129 41.883h-57.727c0.69531-3.6523 1.0781-7.3594 1.0781-11.117 0-6.207-0.96875-12.195-2.7422-17.828 6.4648-18.637 24.355-31.508 44.215-31.508 14.59-0.007813 28.477 6.9375 37.305 18.57zm-110.2-40.316c0-25.82 21.004-46.82 46.82-46.82s46.82 21.004 46.82 46.82c0 4.2305-0.60547 8.3672-1.7031 12.379-6.082-2.0703-12.5-3.2344-19.051-3.2344-21.234 0-40.719 11.594-51.238 29.387-4.2383-6.4375-9.6797-12.016-16.02-16.383-3.6445-6.7852-5.6289-14.391-5.6289-22.148zm-74.816 71.074c0-25.816 21.004-46.82 46.82-46.82s46.82 21.004 46.82 46.82c0 3.7773-0.46484 7.4961-1.3438 11.117l-90.949 0.003906c-0.88281-3.6211-1.3477-7.3398-1.3477-11.121zm-27.297-18.266v41.984l396.33-0.003906v-41.984h11.758l0.003906 74.734h-419.85v-74.73zm-11.754 120.91v-8.3984h111.47v-12.594l-111.47-0.003906v-12.594h419.84v12.594h-110.63v12.594h110.63v8.3984z"/>
  <path d="m375.55 316.97c36.758 0 49.887-34.289 50.426-35.746l2.2422-6.0547-6.1055-2.0977c-9.1055-3.1172-17.723-4.6992-25.625-4.6992-30.703 0-45.012 24.07-48.281 36.797l-1.4414 5.6016 5.457 1.9102c8.1133 2.8516 15.965 4.2891 23.328 4.2891zm20.945-35.996c4.5273 0 9.418 0.65625 14.59 1.9531-4.8711 8.1055-15.879 21.453-35.535 21.453-4.1016 0-8.4453-0.57422-12.965-1.707 3.8281-8.0352 13.359-21.699 33.91-21.699z"/>
  <path d="m245.41 396.31 5.3594-2.168c35.73-14.418 34.566-45.914 28.957-60.555l-2.3086-6.0273-5.9688 2.457c-15.715 6.4648-25.953 15.859-30.441 27.938-6.2891 16.918 1.4492 32.535 1.7852 33.191zm7.418-33.969c2.5938-6.9844 8.2305-12.863 16.797-17.539 1.3438 8.9336 0.62891 24.719-17.539 34.805-1.0391-4.418-1.6641-10.801 0.74219-17.266z"/>
  <path d="m414.8 311.5-6.375 1.0273 1.1836 6.3438c7.0234 37.656 32.859 41.719 43.645 41.719 5.8125 0 9.8828-1.0469 10.332-1.168l5.582-1.5-1.0234-5.6875c-6.8516-38.168-37.781-41.137-47.098-41.137-3.6055-0.003906-5.9844 0.36328-6.2461 0.40234zm39.398 36.48c-0.30859 0.011719-0.61328 0.011719-0.9375 0.011719-10.43 0-23.477-4.4141-29.52-24.227 10.043 0.61719 24.527 5.0469 30.457 24.215z"/>
  <path d="m558.19 396.01 5.0234 2.8633c7.1484 4.0742 14.254 6.1367 21.121 6.1367 20.105 0 30.625-17.316 31.066-18.051l3.3008-5.5508-5.6328-3.1602c-7.8789-4.4219-15.488-6.6641-22.598-6.6641-20.758 0-29.492 18.395-29.855 19.18zm32.281-11.828c2.9414 0 6.0977 0.60547 9.4375 1.8086-3.4258 3.125-8.6758 6.4297-15.574 6.4297-2.7539 0-5.6289-0.52344-8.6055-1.5781 2.9648-3.1836 7.7852-6.6602 14.742-6.6602z"/>
 </g>
</svg>