<?xml version="1.0" encoding="UTF-8"?>
<!-- The Best Svg Icon site in the world: iconSvg.co, Visit us! https://iconsvg.co -->
<svg fill="#000000" width="800px" height="800px" version="1.1" viewBox="144 144 512 512" xmlns="http://www.w3.org/2000/svg">
 <g>
  <path d="m437.04 603c-32.598-1.4805-66.68-3.7031-101.5-7.4102-2.2227 0-4.4453 0.74219-5.9258 2.2227-1.4805 1.4805-2.2227 3.7031-2.2227 5.1875v19.262h-118.54v-57.051l72.609 0.003906c4.4453 0 7.4102-2.9648 7.4102-7.4102 0-4.4453-2.9648-7.4102-7.4102-7.4102l-71.867 0.003906v-40.75c0-46.676-5.9258-78.535-13.336-116.32-7.4102-42.234-16.301-89.648-18.523-168.18h24.449c4.4453 0 7.4102-2.9648 7.4102-7.4102 0-4.4453-2.9648-7.4102-7.4102-7.4102h-24.449v-32.598h191.15v32.598h-131.88c-4.4453 0-7.4102 2.9648-7.4102 7.4102 0 4.4453 2.9648 7.4102 7.4102 7.4102h131.88v163c0 4.4453 2.9648 7.4102 7.4102 7.4102 4.4453 0 7.4102-2.9648 7.4102-7.4102v-217.82c0-4.4453-2.9648-7.4102-7.4102-7.4102h-205.97c-3.7031 0-7.4102 3.707-7.4102 7.4102-1.4805 114.84 9.6328 174.11 19.266 225.97 6.668 36.305 12.594 68.164 12.594 113.36v120.03c0 4.4453 2.9648 7.4102 7.4102 7.4102h133.36c4.4453 0 7.4102-2.9648 7.4102-7.4102v-18.523c31.859 2.9648 63.719 5.1875 94.094 6.668 4.4453 0 7.4102-2.9648 7.4102-7.4102-0.003906-3.7031-2.9688-7.4062-7.4141-7.4062z"/>
  <path d="m637.09 527.43c0-23.707-9.6328-45.195-26.672-60.754-17.039-15.559-40.75-23.707-64.457-21.484-40.75 3.7031-80.016 3.7031-114.84-1.4805-14.078-2.2227-26.672-9.6328-35.562-20.746-2.2227-2.9648-7.4102-3.7031-10.371-1.4805-2.9648 2.2227-3.7031 7.4102-1.4805 10.371 11.113 14.816 27.414 24.449 45.195 26.672 36.305 5.1875 76.312 5.9258 118.54 1.4805 19.262-1.4805 38.527 4.4453 52.605 17.781 14.078 12.594 22.227 30.375 22.227 49.641l-3.7109 28.152c-32.598 3.7031-182.26 17.781-303.77-5.1875-3.7031-0.74219-8.1484 2.2227-8.8906 5.9258s2.2227 8.1484 5.9258 8.8906c52.605 9.6328 109.65 13.336 160.77 13.336 65.941 0 121.51-5.1875 143.73-7.4102l-3.7031 25.191c-14.816 2.2227-62.977 8.1484-138.55 7.4102-3.7031 0-7.4102 2.9648-7.4102 7.4102 0 4.4453 2.9648 7.4102 7.4102 7.4102h13.336c85.945 0 131.14-8.1484 133.36-8.8906 2.9648-0.74219 5.1875-2.9648 5.9258-5.9258l5.1875-37.043c1.4805-1.4805 1.4805-3.7031 1.4805-5.1875 0-0.74219 0-0.74219-0.74219-1.4805l4.4453-31.117v-1.4844z"/>
 </g>
</svg>