<?xml version="1.0" encoding="UTF-8"?>
<!-- The Best Svg Icon site in the world: iconSvg.co, Visit us! https://iconsvg.co -->
<svg fill="#000000" width="800px" height="800px" version="1.1" viewBox="144 144 512 512" xmlns="http://www.w3.org/2000/svg">
 <path d="m386.9 492.45v-29.473c0-12.848 0-12.848-12.09-12.848h-24.938l-0.50391-139.55c0-24.434 25.191-27.711 25.191-74.312 0-12.594 0-12.594-8.5664-12.594h-57.938c-9.0703 0-9.0703 0-9.0703 12.594 0 46.602 24.938 49.879 24.938 74.312l0.50391 139.55h-25.695c-12.594 0-12.594 0-12.594 12.848v29.977c1.0078 63.73 22.418 84.641 50.883 84.641 28.719 0 49.879-22.168 49.879-85.145zm76.078-268.79c-9.0703 0-9.0703 0-9.0703 12.594v69.273c0 10.078-17.887 10.078-17.887 0v-69.273c0-12.594 0-12.594-8.5664-12.594-9.0703 0-9.0703 0-9.0703 12.594v62.473c0 46.602 31.992 34.762 31.992 60.457v204.55c0 12.594 0 12.594 12.848 12.594 12.09 0 12.09 0 12.09-12.594l0.50391-204.55c0-25.695 31.234-13.855 31.234-60.457v-62.473c0-12.594 0-12.594-8.5664-12.594-8.8164 0-8.8164 0-8.8164 12.594v69.273c0 10.078-17.633 10.078-17.633 0v-69.273c0-12.594 0-12.594-9.0703-12.594zm-111.59 28.465c0 24.184-29.223 24.184-29.223 0 0-5.793 0-5.793 2.7695-5.793h23.68c2.7695 0 2.7695 0 2.7695 5.793z"/>
</svg>