<?xml version="1.0" encoding="UTF-8"?>
<!-- The Best Svg Icon site in the world: iconSvg.co, Visit us! https://iconsvg.co -->
<svg fill="#000000" width="800px" height="800px" version="1.1" viewBox="144 144 512 512" xmlns="http://www.w3.org/2000/svg">
 <g>
  <path d="m474.86 508.07c-0.35156-0.65625-0.75391-1.3086-1.2109-1.9141-0.90625-1.2109-2.0156-2.3164-3.1758-3.1758-2.2656-1.7109-5.1875-2.6211-8.1602-2.6211-3.0234 0-5.9453 0.90625-8.2109 2.6211-1.2578 0.95703-2.3164 1.9648-3.1758 3.125-0.45313 0.60547-0.80469 1.2109-1.1094 1.8125-1.0586 2.0156-1.5625 4.1797-1.5625 6.3984l0.10156 0.70703c0.15234 2.5195 0.80469 4.6367 1.9648 6.6484 0.20312 0.35156 0.40234 0.65625 0.55469 0.90625 2.6719 3.6289 6.9531 5.793 11.387 5.793 3.3242 0 6.5508-1.1602 9.1172-3.3242 0.80859-0.70703 1.6133-1.5117 2.2188-2.418l0.40234-0.60547 0.40234-0.65625c1.2578-2.1172 1.9141-4.5352 1.9141-7.0547 0-0.75391-0.050781-1.4609-0.20312-2.168-0.29688-1.6562-0.69922-2.918-1.2539-4.0742z"/>
  <path d="m362.41 271.93c-19.496 6.0977-27.961 35.266-18.895 64.992 5.543 18.137 16.676 33.051 29.773 39.953 4.8867 2.5703 9.8242 3.8789 14.609 3.8789 2.5195 0 4.9883-0.35156 7.3555-1.1094 1.2578-0.35156 2.4688-0.85547 3.5781-1.4102 0.50391-0.25391 1.1094-0.35156 1.6641-0.35156 0.60547 0 1.2109 0.10156 1.7109 0.40234 1.6133 0.80469 3.375 1.5117 5.1406 2.0156 2.0664 0.55469 4.2344 0.80469 6.3984 0.80469 5.0898 0 10.277-1.5117 15.469-4.4844 12.797-7.4062 23.324-22.824 28.164-41.16 7.8594-30.027-1.7617-58.844-21.512-64.184-5.2383-1.4102-9.7227-2.1172-13.754-2.1172-8.0117 0-14.258 2.7188-19.598 8.5156-0.45312 0.40234-0.70703 0.55469-1.0078 0.75391-0.85547 0.35156-1.2578 0.45312-1.6641 0.45312h-0.20312c-0.35156 0-0.65625-0.050781-0.95703-0.10156-0.40234-0.20312-0.55469-0.30078-0.75391-0.45312-0.35156-0.20312-0.55469-0.30078-0.70703-0.45312-5.6406-5.8438-12.09-8.5664-19.898-8.5664-4.3828 0-9.2734 0.85938-14.914 2.6211zm68.57 16.777c0.65625-0.45312 1.4102-0.70703 2.168-0.70703 1.2578 0 2.418 0.60547 3.1211 1.6133 0 0.050781 3.1758 4.4336 4.2812 8.8164 0.50391 2.0156-0.70703 4.082-2.7227 4.5859-0.30078 0.10156-0.60547 0.15234-0.95703 0.15234-1.7148 0-3.2266-1.2109-3.6289-2.8711-0.65625-2.418-2.4688-5.3906-3.1758-6.2969-1.2031-1.7148-0.80078-4.082 0.91406-5.293zm-8.7695 68.016c0.15234-0.15234 16.93-17.785 14.258-42.371-0.25391-2.0664 1.2578-3.9297 3.3242-4.1797h0.050781c2.3164 0 3.9297 1.5117 4.1328 3.375 3.0742 28.262-15.566 47.66-16.375 48.465-0.75391 0.75391-1.6641 1.1602-2.7227 1.1602-1.0078 0-1.9141-0.40234-2.6211-1.1094-1.5078-1.4102-1.5078-3.8281-0.046875-5.3398z"/>
  <path d="m482.12 543.79-0.45312 0.30078c-1.1602 0.70703-1.9648 1.2109-2.8203 1.6641l-1.0078 0.50391c-0.95703 0.45312-1.9141 0.90625-2.9219 1.2578l-0.50391 0.25c-1.1602 0.40234-2.3672 0.75391-3.5273 1.0586l-0.65625 0.15234c-1.2578 0.30078-2.2148 0.45312-3.1211 0.60547l-1.0586 0.10156c-1.2578 0.15234-2.5195 0.25-3.7773 0.25-1.5625 0-3.1758-0.15234-5.0898-0.40234-0.35156-0.050782-0.70703-0.15234-1.0586-0.20312-1.6641-0.35156-2.9219-0.65625-4.1797-1.0078l-1.2578-0.40234c-1.6641-0.60547-3.2266-1.2578-4.6367-2.0156l-0.75391-0.40234c-1.2578-0.70703-2.4688-1.4609-3.6289-2.2656l-1.9648-1.4609-0.66016 2.0664v46.754l21.512-17.836c0.70312-0.55469 1.5625-0.85547 2.418-0.85547 0.85547 0 1.7148 0.30078 2.418 0.85547l21.516 17.836v-50.48l-2.0664 1.6641c-0.85547 0.75391-1.8125 1.4062-2.7188 2.0117z"/>
  <path d="m272.79 209.41v350.15h158.7v-27.609l-0.15234-0.25c-2.9727-5.3398-4.5352-11.336-4.5352-17.383 0-6.6016 1.8125-13 5.2383-18.59 0.50391-0.80469 0.95703-1.4609 1.4102-2.1172 1.5625-2.1172 3.5273-4.1836 5.9961-6.2969l0.45312-0.35156v-24.234c0-1.1602 0.50391-2.2656 1.4102-2.9727 0.65625-0.55469 1.5117-0.80469 2.3672-0.80469 0.25391 0 0.55469 0 0.80859 0.10156l17.785 4.082 17.836-4.082c0.25-0.10156 0.55469-0.10156 0.80469-0.10156 0.85547 0 1.7109 0.30078 2.3672 0.80469 0.90625 0.70703 1.4102 1.8125 1.4102 2.9727v24.184l0.45312 0.40234c2.4688 2.0664 4.3828 4.082 5.8438 6.1484 1.2109 1.6133 2.2656 3.375 3.0742 5.0898 2.4688 4.9883 3.7266 10.277 3.7266 15.77 0 4.9375-1.1094 10.027-3.2227 14.66l-0.097656 0.25v30.328h32.746v-350.15zm117.14 334.68h-97.336c-2.1172 0-3.7773-1.7148-3.7773-3.7773v-52.551c0-2.0664 1.6641-3.7773 3.7773-3.7773 2.0664 0 3.7773 1.7109 3.7773 3.7773v48.77h93.559c2.0664 0 3.7773 1.6641 3.7773 3.7773 0 2.0664-1.7109 3.7812-3.7773 3.7812zm31.84-62.375h-98.441c-2.1172 0-3.7773-1.6641-3.7773-3.7773 0-2.0664 1.6641-3.7773 3.7773-3.7773h98.445c2.1172 0 3.7773 1.7148 3.7773 3.7773 0 2.1172-1.6641 3.7773-3.7812 3.7773zm58.242-32.848h-156.68c-2.1172 0-3.7773-1.7109-3.7773-3.7773 0-2.1172 1.6641-3.7773 3.7773-3.7773h156.68c2.0664 0 3.7773 1.6641 3.7773 3.7773 0 2.0664-1.7109 3.7773-3.7773 3.7773zm-83.836-184.14c-1.8125-7.1523-7.2031-12.09-7.457-12.293-0.75391-0.65625-1.2109-1.5625-1.2578-2.5703-0.050781-1.0078 0.25391-2.0156 0.95703-2.7695 0.70703-0.80469 1.7148-1.2578 2.8203-1.2578 0.90625 0 1.8125 0.30078 2.4688 0.95703 0.35156 0.30078 8.3125 7.3555 10.277 17.938l0.30078 1.7148 1.5117-0.85547c4.8359-2.6211 10.379-3.9297 16.473-3.9297 4.6875 0 9.625 0.70703 15.566 2.3164 23.73 6.3984 35.77 39.348 26.852 73.406-5.3398 20.254-17.18 37.383-31.691 45.797-6.3477 3.6758-12.797 5.4922-19.195 5.4922-2.8711 0-5.6914-0.35156-8.4141-1.1094-1.5625-0.40234-3.0234-0.90625-4.4844-1.5625l-0.45312-0.20312-0.50391 0.20312c-0.80469 0.35156-1.6133 0.65625-2.418 0.85547-3.125 1.0078-6.3477 1.5117-9.6719 1.5117-5.9961 0-12.094-1.6133-18.086-4.7852-14.863-7.8086-27.355-24.434-33.453-44.438-10.328-33.656 0.40234-67.059 23.879-74.414 6.1484-1.9648 11.891-2.9219 17.078-2.9219 6.2969 0 12.043 1.4609 17.078 4.332l2.5703 1.4609zm-52.746 143.69c2.1172 0 3.7773 1.7109 3.7773 3.7773s-1.6641 3.7773-3.7773 3.7773h-20.102c-2.1172 0-3.7773-1.7148-3.7773-3.7773 0-2.0664 1.6641-3.7773 3.7773-3.7773zm136.58 7.5547h-112.3c-2.1172 0-3.7773-1.7148-3.7773-3.7773 0-2.0664 1.6602-3.7773 3.7773-3.7773h112.3c2.0664 0 3.7773 1.7109 3.7773 3.7773s-1.7109 3.7773-3.7773 3.7773zm31.188 56.074c0 2.0664-1.6641 3.7773-3.7773 3.7773-2.0664 0-3.7773-1.7148-3.7773-3.7773l-0.003907-237.45h-207.27v222.94c0 2.0664-1.7109 3.7773-3.7773 3.7773-2.1172 0-3.7773-1.7148-3.7773-3.7773v-226.71c0-2.0664 1.6641-3.7773 3.7773-3.7773h214.82c2.1172 0 3.7773 1.7109 3.7773 3.7773z"/>
  <path d="m475.42 481.26 1.7148 0.70703v-14.508l-14.008 3.2227c-0.25391 0.050781-0.55469 0.10156-0.85547 0.10156-0.25 0-0.55469-0.050781-0.80469-0.10156l-14.008-3.2227v14.508l1.7148-0.70703c4.1328-1.6641 8.5664-2.4688 13.098-2.4688 4.5859 0 9.0195 0.80859 13.148 2.4688z"/>
  <path d="m484.89 497.89c-1.7109-2.3672-3.8789-4.4844-6.1953-6.2461-1.1094-0.75781-2.1172-1.3125-3.125-1.8672-0.40234-0.20312-0.80469-0.40234-1.2109-0.60547-1.2109-0.55469-2.2148-1.0078-3.2227-1.3086-3.125-1.0078-5.9453-1.4102-8.7656-1.4102-4.2305 0-8.4141 0.95703-12.141 2.7188l-0.85547 0.35156c-1.0078 0.55469-1.9648 1.1602-2.9219 1.8125l-0.50391 0.30078c-2.3672 1.7617-4.5352 3.9297-6.2969 6.2461-0.40234 0.60547-0.80469 1.2109-1.2109 1.8125-2.6719 4.3828-4.082 9.4219-4.082 14.609 0 4.9375 1.3086 9.8242 3.7266 14.055l0.45312 0.65625c0.35156 0.60547 0.70703 1.2109 1.1094 1.7617 5.3398 7.2539 13.805 11.586 22.621 11.586 8.8672 0 17.332-4.332 22.672-11.539 0.65625-1.0586 1.1094-1.7148 1.4609-2.3672 0.35156-0.60547 0.55469-1.0078 0.75391-1.4102 2.0664-4.082 3.0742-8.4141 3.0742-12.746 0-4.2812-1.0078-8.5156-2.9219-12.445-0.65625-1.2969-1.4609-2.6562-2.418-3.9648zm-1.7617 22.016-0.30078 0.90625c-0.25 0.80469-0.40234 1.3086-0.60547 1.7617-0.35156 0.95703-0.75781 1.7617-1.2109 2.5195l-0.45312 0.75391c-0.35156 0.55469-0.60547 0.95703-0.85547 1.2578-1.4609 2.0156-3.2773 3.7266-5.3398 5.1367-3.6289 2.4688-7.8086 3.7266-12.09 3.7266-6.8008 0-13.352-3.3242-17.43-8.918l-1.0078-1.5117-0.35156-0.70703c-0.35156-0.65625-0.75391-1.3594-1.0078-2.0664-0.25-0.50391-0.40234-1.0078-0.55469-1.5117l-0.45312-1.2578c-0.15234-0.60547-0.25391-1.2109-0.35156-1.8125l-0.10156-0.55469c-0.25-1.4102-0.30078-2.3672-0.30078-3.3242 0-1.1602 0.10156-2.2656 0.25-3.375l0.15234-0.65625c0.20312-0.85547 0.35156-1.7617 0.65625-2.6211l0.35156-0.85547c0.35156-0.90625 0.60547-1.6133 0.90625-2.2656 0.60547-1.0586 1.1602-1.9648 1.7617-2.8711 0.30078-0.35156 0.50391-0.60547 0.75391-0.85547l0.40234-0.45313c1.3086-1.5117 2.5195-2.6719 3.7266-3.5273 0.80469-0.60547 1.6641-1.0586 2.5195-1.5117 1.207-0.64844 2.2148-1.0508 3.2227-1.4023 0.40234-0.10156 0.75391-0.20312 1.1602-0.25l1.0586-0.30078c0.40234-0.10156 0.80469-0.20312 1.2109-0.25 0.65625-0.10156 1.2578-0.10156 1.9141-0.15234 0 0 1.3086-0.10156 1.4609-0.10156 0.70703 0 1.4102 0.050781 2.0664 0.15234l1.3086 0.10156c0.50391 0.050781 0.90625 0.15234 1.3594 0.30078l1.1602 0.25c0.30078 0.050782 0.55469 0.10156 0.80469 0.20312l1.0078 0.40234c1.9648 0.70703 3.5781 1.5625 5.0391 2.5703 1.8125 1.3594 3.4258 2.9727 4.7852 4.7852 1.0078 1.4102 1.8633 3.0234 2.6211 4.9375 1.0078 2.5703 1.5117 5.1875 1.5117 7.7578-0.003907 1.8594-0.25781 3.7734-0.75781 5.5898z"/>
 </g>
</svg>