<?xml version="1.0" encoding="UTF-8"?>
<!-- The Best Svg Icon site in the world: iconSvg.co, Visit us! https://iconsvg.co -->
<svg fill="#000000" width="800px" height="800px" version="1.1" viewBox="144 144 512 512" xmlns="http://www.w3.org/2000/svg">
 <g>
  <path d="m407.87 352.77c0 4.3477-3.5234 7.8711-7.8711 7.8711s-7.875-3.5234-7.875-7.8711 3.5273-7.8711 7.875-7.8711 7.8711 3.5234 7.8711 7.8711"/>
  <path d="m588.87 448.19c0.29687-2.4062-0.53125-4.8125-2.2461-6.5273l-76.414-76.414v-80.07l60.672-60.672c1.4766-1.4766 2.3047-3.4766 2.3047-5.5664 0-2.0859-0.82812-4.0898-2.3047-5.5664l-23.617-23.617c-1.4766-1.4766-3.4805-2.3047-5.5664-2.3047-2.0898 0-4.0898 0.82812-5.5664 2.3047l-8.6172 8.6172-18.426-30.715c-1.2461-2.0781-3.3828-3.4688-5.7891-3.7617-2.4062-0.29688-4.8164 0.53125-6.5273 2.2461l-41.781 41.777-49.906-42.223c-2.9336-2.4844-7.2344-2.4844-10.168 0l-79.75 67.48-43.422-43.422c-1.4766-1.4766-3.4805-2.3047-5.5664-2.3047-2.0898 0-4.0938 0.82812-5.5664 2.3047l-23.617 23.617c-1.4766 1.4766-2.3047 3.4805-2.3047 5.5664 0 2.0898 0.82812 4.0898 2.3047 5.5664l8.6172 8.6172-30.719 18.426c-2.0781 1.25-3.4648 3.3828-3.7617 5.7891s0.53125 4.8164 2.2461 6.5273l76.414 76.418v87.941l-52.797 52.797c-1.4766 1.4766-2.3047 3.4805-2.3047 5.5664 0 2.0898 0.82812 4.0898 2.3047 5.5664l23.617 23.617c1.4727 1.4766 3.4766 2.3047 5.5664 2.3047 2.0859 0 4.0898-0.82812 5.5664-2.3047l8.6133-8.6133 9.4336 15.723v39.164l-29.184 29.184h0.003906c-1.4805 1.4727-2.3125 3.4805-2.3086 5.5703v31.488c0 2.0859 0.83203 4.0898 2.3086 5.5664 1.4766 1.4727 3.4766 2.3047 5.5664 2.3047h267.65c2.0859 0 4.0898-0.83203 5.5664-2.3047 1.4766-1.4766 2.3047-3.4805 2.3047-5.5664v-31.488c0.003907-2.0898-0.82812-4.0938-2.3047-5.5664l-29.184-29.184v-64.328l18.051 18.051c1.4766 1.4766 3.4766 2.3047 5.5664 2.3047 2.0859 0 4.0898-0.82812 5.5664-2.3047l23.617-23.617h-0.003906c1.4766-1.4766 2.3086-3.4766 2.3086-5.5664 0-2.0859-0.83203-4.0898-2.3086-5.5664l-8.6133-8.6133 30.715-18.43c2.0781-1.2461 3.4648-3.3828 3.7617-5.7891zm-47.172-241.73 12.484 12.484-118.11 118.11c-2.418-5.5156-6.0664-10.41-10.664-14.305zm-47.23 94.465v48.582l-2.3047-2.3047h-0.003906c-2.5547-2.5508-6.5195-3.0391-9.6172-1.1797l-34.09 20.449-9.3398-9.3398c0.035156-0.3125 0.0625-0.62891 0.089844-0.94531zm6.3086-116.52 15.266 25.449-82.988 82.988-15.27-25.445zm-100.77 310.06c-24.906 0-31.488 15.449-31.488 23.617v39.359h-62.977v-15.742c2.0859 0 4.0898-0.82812 5.5664-2.3047l94.465-94.465h-0.003906c2.5547-2.5547 3.043-6.5195 1.1836-9.6172l-20.449-34.09 9.3398-9.3398c2.8984 0.33203 5.8242 0.33203 8.7266 0l90.098 90.102v75.457h-62.973v-39.359c0-8.168-6.582-23.617-31.488-23.617zm15.742 23.617v0.13281-0.13281zm0 0.16406v39.195h-31.488v-39.359c0-0.078125 0.17969-7.8711 15.742-7.8711 14.281 0 15.625 6.5508 15.746 8.0352zm-110.48-0.16406-13.438-22.395 82.992-82.992 15.266 25.445-82.988 82.992-1.5625-2.6055v-0.44531zm94.734-141.7c-6.2656 0-12.273-2.4883-16.699-6.918-4.4297-4.4297-6.918-10.434-6.918-16.699 0-6.2617 2.4883-12.27 6.918-16.699 4.4258-4.4297 10.434-6.918 16.699-6.918 6.2617 0 12.27 2.4883 16.699 6.918 4.4258 4.4297 6.9141 10.438 6.9141 16.699-0.007812 6.2617-2.4961 12.266-6.9219 16.691-4.4297 4.4258-10.434 6.918-16.691 6.9258zm0-194.36 43.816 37.074-41.512 41.512c-2.5547 2.5547-3.0391 6.5195-1.1797 9.6133l20.453 34.09-10.648 10.648c-4.9609-1.4453-10.156-1.8906-15.293-1.3086l-69.301-69.301zm-133.82 24.434 112.96 112.96c-5.0469 3.168-9.3125 7.4375-12.484 12.484l-112.96-112.96zm94.711 150.67-55.352 55.352v-56.453l2.3047 2.3047c2.5547 2.5547 6.5195 3.0391 9.6172 1.1836l34.09-20.453 9.3398 9.3398v-0.003906c-0.33203 2.9023-0.33203 5.8281 0 8.7266zm-129.25-97.266 25.445-15.266 82.992 82.988-25.449 15.27zm34.539 239.21-12.484-12.484 112.96-112.96h-0.003906c3.1719 5.0469 7.4375 9.3125 12.484 12.484zm259.77 121.34h-251.9v-15.742h251.9zm-11.133-31.488h-229.64l15.742-15.742h198.15zm19.008-89.852-112.96-112.96c5.043-3.168 9.3125-7.4336 12.48-12.48l112.96 112.96zm9.0938-38.141-82.992-82.988 25.445-15.266 82.992 82.988z"/>
 </g>
</svg>