<?xml version="1.0" encoding="UTF-8"?>
<!-- The Best Svg Icon site in the world: iconSvg.co, Visit us! https://iconsvg.co -->
<svg fill="#000000" width="800px" height="800px" version="1.1" viewBox="144 144 512 512" xmlns="http://www.w3.org/2000/svg">
 <g>
  <path d="m604.67 360.64h-70.848c0-2.0859-0.83203-4.0898-2.3086-5.5664-1.4766-1.4727-3.4766-2.3047-5.5664-2.3047h-102.34v-22.137c14.594-8.4258 23.594-23.988 23.617-40.84v-39.359h31.488v-15.742h-23.617v-62.977c0-2.0898-0.82812-4.0898-2.3047-5.5664-1.4766-1.4766-3.4766-2.3086-5.5664-2.3086h-40.148c-1.6133 0-3.1875 0.49609-4.5078 1.418l-18.691 13.078-27.629-13.707c-2.4453-1.207-5.3398-1.0664-7.6523 0.37891-2.3164 1.4414-3.7148 3.9805-3.707 6.707v62.977h-23.617v15.742h31.488v39.359c0.023437 16.852 9.0234 32.414 23.617 40.84v22.137h-102.34c-4.3477 0-7.8711 3.5234-7.8711 7.8711h-70.852c-11.246 0-21.645 6.0039-27.27 15.746-5.625 9.7422-5.625 21.746 0 31.488 5.625 9.7422 16.023 15.742 27.27 15.742h70.848v7.8711l0.003906 0.003906c0 2.0859 0.82812 4.0898 2.3047 5.5664 1.4766 1.4727 3.4766 2.3047 5.5664 2.3047h39.359v118.08c0 3.1836 1.918 6.0547 4.8594 7.2734s6.3281 0.54297 8.5781-1.707l23.766-23.766 10.855 21.719c1.332 2.668 4.0625 4.3555 7.0469 4.3555h7.8711v62.977c0 2.0859 0.82813 4.0898 2.3047 5.5664 1.4766 1.4727 3.4805 2.3047 5.5664 2.3047h31.488c2.0898 0 4.0898-0.83203 5.5664-2.3047 1.4766-1.4766 2.3047-3.4805 2.3047-5.5664v-62.977h55.105c2.0859 0 4.0898-0.83203 5.5664-2.3086 1.4766-1.4766 2.3047-3.4766 2.3047-5.5664v-118.08h39.359c2.0898 0 4.0898-0.83203 5.5664-2.3047 1.4766-1.4766 2.3086-3.4805 2.3086-5.5664v-7.875h70.848c11.25 0 21.645-6 27.27-15.742 5.625-9.7422 5.625-21.746 0-31.488-5.625-9.7422-16.02-15.746-27.27-15.746zm-244.04-176.25 20.469 10.148c2.5742 1.2734 5.6406 1.0469 8-0.59766l20.473-14.359h29.781v55.105h-78.723zm7.875 66.039h62.977v39.359c0 11.25-6.0039 21.645-15.746 27.27-9.7422 5.625-21.746 5.625-31.488 0-9.7422-5.625-15.742-16.02-15.742-27.27zm23.617 85.883h-0.003906c5.207 0.94531 10.539 0.94531 15.746 0v16.453h-15.746zm-196.8 71.559c-5.625 0-10.82-3-13.633-7.8711s-2.8125-10.875 0-15.746 8.0078-7.8711 13.633-7.8711h70.848v31.488zm212.55 212.54h-15.746v-55.102h15.742zm15.742-110.21v-47.176l47.23 0.33984 0.003906 46.836zm94.465-86.594h-39.359c-4.3477 0-7.8711 3.5273-7.8711 7.875v16.137l-7.8711-0.054688v-8.2109h-15.746v8.1016l-7.8711-0.0625v-8.0391h-15.746v7.9258l-7.8164-0.054687c-2.0703 0.11719-4.0391 0.92188-5.5977 2.2891-1.4922 1.4727-2.332 3.4844-2.3281 5.582v7.8711l-7.8711 0.003906v15.742h7.8711v15.742h-7.8711v15.742h7.8711v7.875c0 2.0898 0.82812 4.0898 2.3047 5.5664 1.4766 1.4766 3.4805 2.3047 5.5664 2.3047h7.8711v7.8711h15.742l0.003906-7.8711h7.8711v7.8711h15.742l0.003906-7.8711h7.8711v23.617h-97.473l-13.523-27.133c-1.1328-2.2656-3.2852-3.8477-5.7852-4.2539-2.5-0.42188-5.0469 0.40234-6.8281 2.207l-18.09 18.051v-106.95c0-2.0898-0.82813-4.0898-2.3047-5.5664s-3.4766-2.3086-5.5664-2.3086h-39.359v-55.102h236.16zm86.594-15.742h-70.848v-31.488h70.848c5.625 0 10.82 3 13.633 7.8711s2.8125 10.875 0 15.746-8.0078 7.8711-13.633 7.8711z"/>
  <path d="m415.74 195.32h15.742v15.742h-15.742z"/>
  <path d="m400 211.07h15.742v15.742h-15.742z"/>
  <path d="m321.28 376.38h15.742v15.742h-15.742z"/>
  <path d="m337.02 392.12h15.742v15.742h-15.742z"/>
 </g>
</svg>