<?xml version="1.0" encoding="UTF-8"?>
<!-- The Best Svg Icon site in the world: iconSvg.co, Visit us! https://iconsvg.co -->
<svg width="800px" height="800px" version="1.1" viewBox="144 144 512 512" xmlns="http://www.w3.org/2000/svg">
 <defs>
  <clipPath id="a">
   <path d="m234 148.09h332v503.81h-332z"/>
  </clipPath>
 </defs>
 <g clip-path="url(#a)">
  <path d="m557.44 258.3h-40.895c-18.184-44.844-60.582-75.383-108.67-78.41v-23.926c0-4.3438-3.5273-7.8711-7.8711-7.8711h-47.23c-4.3438 0-7.8711 3.5273-7.8711 7.8711v36.441c-43.184 21.051-70.852 64.848-70.852 113.13h-31.488c-4.3438 0-7.8711 3.5273-7.8711 7.8711v47.23c0 4.3438 3.5273 7.8711 7.8711 7.8711h31.488v126.75c-17.941 3.6602-31.488 19.555-31.488 38.566v110.21c0 4.3438 3.5273 7.8711 7.8711 7.8711h299.14c4.3516 0 7.8711-3.5273 7.8711-7.8711v-110.2c0-19.004-13.547-34.906-31.488-38.566v-173.98h31.488c4.3516 0 7.8711-3.5273 7.8711-7.8711v-47.23c0.003906-4.3477-3.5156-7.875-7.8711-7.875zm-58.062 0h-28.527c-17.367 0-31.488 14.121-31.488 31.488v15.742h-8.9883c-2.8672-11.012-11.484-19.633-22.5-22.5v-87.391c39.523 2.8438 74.531 26.953 91.504 62.66zm-91.504 110.21h15.742c8.6836 0 15.742 7.0625 15.742 15.742v78.719h-31.488zm-7.8711-39.363c-8.6836 0-15.742-7.0625-15.742-15.742 0-8.6836 7.0625-15.742 15.742-15.742 8.6836 0 15.742 7.0625 15.742 15.742 0 8.6836-7.0625 15.742-15.742 15.742zm-7.875-165.31v94.465h-15.742c-8.6836 0-15.742-7.0625-15.742-15.742l-0.003906-45.305v-0.015625-33.402zm-47.23 46.375v32.348c0 17.367 14.121 31.488 31.488 31.488h15.742v8.9883c-11.012 2.8672-19.633 11.484-22.5 22.5h-79.836c0-39.613 21.305-75.777 55.105-95.324zm-94.465 111.07h94.465v15.742c0 8.6836-7.0625 15.742-15.742 15.742l-78.723 0.003906zm173.18 314.88h-47.23v-39.359c0-13.02 10.598-23.617 23.617-23.617s23.617 10.598 23.617 23.617zm118.08-102.34v102.34h-102.34v-39.359c0-21.703-17.656-39.359-39.359-39.359s-39.359 17.656-39.359 39.359v39.359h-102.34v-102.34c0-13.02 10.598-23.617 23.617-23.617h236.16c13.02 0 23.617 10.594 23.617 23.617zm-31.488-39.363h-220.42v-125.95h39.359c17.367 0 31.488-14.121 31.488-31.488v-15.742h8.9883c2.8672 11.012 11.484 19.633 22.5 22.5v127.06c0 4.3438 3.5273 7.8711 7.8711 7.8711h47.23c4.3516 0 7.8711-3.5273 7.8711-7.8711l0.003906-86.59c0-17.367-14.121-31.488-31.488-31.488h-15.742v-8.9883c11.012-2.8672 19.633-11.484 22.5-22.5h79.836zm39.359-188.93h-94.465v-15.742c0-8.6836 7.0625-15.742 15.742-15.742h40.344 0.023438 0.023437l38.332-0.003906z"/>
 </g>
</svg>