<?xml version="1.0" encoding="UTF-8"?>
<!-- The Best Svg Icon site in the world: iconSvg.co, Visit us! https://iconsvg.co -->
<svg fill="#000000" width="800px" height="800px" version="1.1" viewBox="144 144 512 512" xmlns="http://www.w3.org/2000/svg">
 <g>
  <path d="m433.69 242.24c0.94531 0 1.8906 0 2.832-0.31641l22.043-6.6133c8.5 15.742 24.875 25.191 42.824 25.191 4.7227 0 9.1328-0.62891 13.855-1.8906 12.594-3.7773 22.984-11.965 28.969-23.617 4.4102-8.1875 6.2969-17.633 5.668-26.766l22.043-6.6133c5.3516-1.5742 8.1875-7.2422 6.6133-12.594-1.5742-5.3516-7.2422-8.1875-12.594-6.6133l-22.043 6.6133c-10.707-19.523-34.32-29.914-56.68-23.301-12.594 3.7773-22.984 11.965-28.969 23.617-4.4102 8.1875-6.2969 17.633-5.668 26.766l-22.043 6.6133c-5.3516 1.5742-8.1875 7.2422-6.6133 12.594 1.5742 4.0977 5.668 6.9297 9.7617 6.9297zm93.203-16.688c-3.7773 6.6133-9.7617 11.652-17.32 13.855-11.652 3.4648-23.93-0.94531-30.859-10.078l51.324-15.113c-0.30859 3.7773-1.2539 7.8711-3.1445 11.336zm-50.695-26.766c3.7773-6.6133 9.7617-11.652 17.32-13.855 11.652-3.4648 23.93 0.94531 30.859 10.078l-51.324 15.113c0.3125-3.7773 1.2539-7.5586 3.1445-11.336z"/>
  <path d="m598.38 382.36-26.137-95.41c-5.668-21.41-28.023-34.008-49.438-28.023l-11.336 3.1484c-21.098 5.9844-33.379 28.34-27.711 49.438l13.227 46.918-26.766 23.301c-5.0391 4.4102-8.1875 10.391-8.5 17.004v0.94531h-16.375c-3.1484 0-5.9844 1.2578-7.8711 3.7773l-23.301 28.34-148.62 60.773c-3.1484 1.2578-5.3516 4.0938-5.9844 7.5586-0.62891 3.4648 0.62891 6.9258 2.832 9.1328l44.082 41.562-18.262 7.5586c-11.965-17.32-34.008-26.137-55.105-20.152-12.91 3.7773-23.617 12.281-29.914 23.93-6.2969 11.652-7.8711 25.191-4.4102 38.102 6.2969 21.727 26.449 36.211 48.176 36.211 4.7227 0 9.1328-0.62891 13.855-1.8906 12.91-3.7773 23.617-12.281 29.914-23.93 5.668-10.391 7.5586-22.043 5.3516-33.691l32.117-13.227c0.31641 0 0.31641 0 0.62891-0.31641l36.84-15.113 10.707 25.504c1.5742 3.7773 5.3516 6.2969 9.1328 6.2969 1.2578 0 2.5195-0.31641 3.7773-0.62891 5.0391-2.2031 7.5586-7.8711 5.3516-13.227l-10.707-25.504 27.395-11.336c3.1484-1.2578 5.3516-4.0938 5.9844-7.5586l12.281-76.832 20.152-24.562h21.727c9.1328 6.6133 21.41 6.2969 30.23-1.2578l10.707-9.1328 10.391 35.895 0.007812 149.26c0 22.043 17.949 39.676 39.676 39.676 22.043 0 39.676-17.949 39.676-39.676v-179.8c0.62891-11.02-0.94531-22.355-3.7773-33.062zm-324.64 218.21c-3.7773 6.9258-10.391 11.965-17.949 14.168-15.742 4.4102-32.434-4.7227-37.156-20.469-2.2031-7.5586-1.2578-15.742 2.5195-22.672 3.7773-6.9258 10.391-11.965 17.949-14.168 2.832-0.94531 5.668-1.2578 8.1875-1.2578 8.5 0 16.688 3.7773 22.043 9.7617l-26.137 10.707c-5.0391 2.2031-7.5586 7.8711-5.3516 13.227 1.5742 3.7773 5.3516 6.2969 9.1328 6.2969 1.2578 0 2.5195-0.31641 3.7773-0.62891l26.137-10.707c0.62891 5.3516-0.63281 10.703-3.1523 15.742zm125.32-88.168-31.805 13.227-39.988 16.688-39.359-37.156 120.29-49.121zm183.57 82.816c0 10.707-8.8164 19.836-19.836 19.836s-19.836-8.8164-19.836-19.836l-0.003906-151.46c0-0.94531 0-1.8906-0.31641-2.832l-13.227-46.289 17.32-14.801c2.832-2.5195 4.0938-6.6133 3.1484-10.078l-15.43-56.68c-1.5742-5.3516-6.9258-8.5-12.281-6.9258-5.3516 1.5742-8.5 6.9258-6.9258 12.281l13.855 50.383-17.004 14.801-0.31641 0.31641-22.355 19.523c-1.8906 1.5742-4.4102 1.2578-5.9844-0.31641-0.94531-1.2578-1.2578-2.5195-1.2578-3.1484s0.31641-1.8906 1.5742-3.1484l31.805-27.395c2.832-2.5195 4.0938-6.6133 3.1484-10.391l-14.801-53.215c-2.832-10.707 3.1484-21.727 13.855-24.562l11.02-3.1484c10.707-2.832 21.727 3.4648 24.875 14.168l26.137 95.41c2.5195 9.1328 3.7773 18.578 3.7773 28.023l0.003907 179.48z"/>
 </g>
</svg>