<?xml version="1.0" encoding="UTF-8"?>
<!-- The Best Svg Icon site in the world: iconSvg.co, Visit us! https://iconsvg.co -->
<svg fill="#000000" width="800px" height="800px" version="1.1" viewBox="144 144 512 512" xmlns="http://www.w3.org/2000/svg">
 <path d="m278.58 261.95c14.105 3.5273 23.176 12.594 29.223 21.664-20.152 17.633-18.641 44.336-18.137 47.359v260.47c0 3.0234 2.0156 5.0391 5.0391 5.0391h212.11c3.0234 0 5.0391-2.0156 5.0391-5.0391l-0.007812-260.47c0.50391-3.0234 2.0156-29.727-18.137-47.359-0.50391 0-0.50391-0.50391-1.0078-1.0078 6.0469-8.5664 15.113-17.129 28.719-20.656 2.5195-0.50391 4.5352-3.5273 3.5273-6.0469-0.50391-2.5195-3.5273-4.5352-6.0469-3.5273-15.617 4.0312-26.199 13.602-33.25 22.672-7.5586-11.082-8.0625-22.168-8.0625-26.199h1.0078c10.078 0 18.641-8.5664 18.641-18.641v-4.0312c0-10.078-8.5664-18.641-18.641-18.641l-155.68 0.003907c-10.078 0-18.641 8.5664-18.641 18.641v4.0312c0 10.078 8.5664 18.641 18.641 18.641h1.0078c0 4.0312-1.0078 16.121-9.0703 27.207-7.0547-9.5742-17.633-19.648-33.754-23.68-2.5195-0.50391-5.543 1.0078-6.0469 3.5273-0.5 2.5195 1.0117 5.0352 3.5312 6.043zm223.19 248.38h-202.03v-165.25h202.03zm-202.03 75.57v-65.492h202.03v66l-202.03-0.003906zm14.609-355.69v-4.0312c0-4.5352 4.0312-8.5664 8.5664-8.5664h155.68c4.5352 0 8.5664 4.0312 8.5664 8.5664v4.0312c0 4.5352-4.0312 8.5664-8.5664 8.5664h-155.68c-4.5312-0.50391-8.5625-4.0312-8.5625-8.5664zm19.648 18.137h133.51c0 5.543 1.0078 21.16 12.594 35.266-4.5352 8.0625-6.5508 14.609-6.5508 15.617-0.50391 2.5195 1.0078 5.543 3.5273 6.0469h1.5117c2.0156 0 4.0312-1.5117 5.0391-3.5273 0 0 1.0078-4.5352 4.0312-10.578 16.625 14.609 14.609 38.289 14.609 38.793v0.50391 4.5352h-202.53v-4.5352-0.50391s-2.0156-22.672 13.602-37.785c2.5195 5.543 4.0312 9.5742 4.0312 9.5742 0.50391 2.0156 2.5195 3.5273 5.0391 3.5273h1.5117c2.5195-0.50391 4.5352-3.5273 3.5273-6.0469 0-0.50391-2.0156-7.0547-6.0469-14.609 11.586-14.109 12.594-30.23 12.594-36.277z"/>
</svg>