<?xml version="1.0" encoding="UTF-8"?>
<!-- The Best Svg Icon site in the world: iconSvg.co, Visit us! https://iconsvg.co -->
<svg fill="#000000" width="800px" height="800px" version="1.1" viewBox="144 144 512 512" xmlns="http://www.w3.org/2000/svg">
 <path d="m503.34 355.01h-2.0898v-128.19c0-5.5586-4.5234-10.078-10.078-10.078h-2.5273c-0.23438-10.617-5.1836-19.707-13.07-25.586-0.63672-6.4023-2.9258-12.551-6.8203-17.883-5.7578-7.875-14.234-13.043-23.871-14.543-11.711-1.8086-22.961 2.1875-30.902 9.8047-1.8047-0.24609-3.6445-0.41406-5.5469-0.41406-6.8477 0-13.098 1.6914-18.395 4.6328-10.113-12.746-28.086-17.238-43.289-9.8008-10.23 5.0078-16.934 14.336-19.07 24.715-15.75 3.0938-27.586 14.23-30.953 29.078h-0.074219c-5.5586 0-10.078 4.5195-10.078 10.078v128.21c0 5.5586 4.5195 10.078 10.078 10.078h2.0898v128.2c0 0.25 0.054687 0.48438 0.074218 0.73047-3.7578 1.4648-6.4414 5.1016-6.4414 9.3711v128.21c0 5.5547 4.5195 10.078 10.078 10.078h194.52c5.5547 0 10.078-4.5234 10.078-10.078l-0.003906-128.22c0-0.25-0.054688-0.48438-0.074219-0.73047 3.7578-1.4648 6.4414-5.1016 6.4414-9.3711l-0.003906-128.21c0-5.5586-4.5195-10.078-10.074-10.078zm-24.812-138.27h-50.383c0.42578-12.93 11.074-22.602 25.191-22.602 14.117 0 24.766 9.6719 25.191 22.602zm-35.195-48.055c6.9766 1.0859 13.117 4.8281 17.285 10.527 1.418 1.9414 2.4375 4.0664 3.2734 6.2539-3.3086-0.91406-6.8438-1.4102-10.555-1.4102-4.7227 0-9.1602 0.81641-13.207 2.2734-3.1172-6.0469-8.0703-10.961-14.293-14.148 5.1016-3.0312 11.184-4.4805 17.496-3.4961zm-34.898 9.5078c10.281 0 18.676 5.168 22.688 12.941-3.7734 2.8086-6.8867 6.3398-9.125 10.434-2.4492 4.4805-3.8477 9.6172-3.9688 15.172h-6.1719c-0.12109-5.5508-1.5195-10.691-3.9688-15.172-3.9141-7.1523-10.48-12.602-18.629-15.402 4.5586-4.8984 11.297-7.9727 19.176-7.9727zm-6.6992 38.547h-50.383c0.42578-12.93 11.074-22.602 25.191-22.602 14.121 0 24.77 9.6719 25.191 22.602zm-50.559-44.746c3.5742-1.75 7.3633-2.5742 11.098-2.5742 7.5781 0 14.883 3.4609 19.742 9.5078-1.5156 1.5938-2.8594 3.332-4.0195 5.1992-0.48828-0.015625-0.96094-0.066406-1.4531-0.066406-8.2461 0-15.633 2.4375-21.52 6.5898-5.0195-2.2656-10.664-3.5977-16.734-3.7969 2.0586-6.2656 6.5117-11.734 12.887-14.859zm-14.496 24.863c3.7148 0 7.2188 0.57812 10.461 1.5938-3.6406 5.1445-5.7578 11.402-5.9102 18.289h-34.074c3.8086-11.777 15.242-19.883 29.523-19.883zm-40.031 29.961h194.52v36.02h-194.52zm0 46.094h194.52v36.023h-194.52zm0 82.121v-36.023h194.53v36.023zm5.8008 276.59v-128.21h194.52l0.003907 128.21zm6.3672-138.32v-128.2l194.52-0.023437 0.003906 128.21z"/>
</svg>