<?xml version="1.0" encoding="UTF-8"?>
<!-- The Best Svg Icon site in the world: iconSvg.co, Visit us! https://iconsvg.co -->
<svg fill="#000000" width="800px" height="800px" version="1.1" viewBox="144 144 512 512" xmlns="http://www.w3.org/2000/svg">
 <g>
  <path d="m245.52 306.41v9.8242h-41.328c-2.7812 0-5.0391 2.2539-5.0391 5.0391 0 2.7852 2.2578 5.0391 5.0391 5.0391l392.29-0.003906c2.7812 0 5.0391-2.2539 5.0391-5.0391s-2.2578-5.0391-5.0391-5.0391h-44.211v-9.7734c8.3164-0.082031 24.645-1.707 35.695-12.449 15.008-14.59 13.551-39.586 13.488-40.641-0.16016-2.4648-2.0898-4.4492-4.543-4.6836-0.78906-0.074219-14.887-1.3242-28.234 4.1367 1.4844-4.2656 2.4531-8.8711 2.4141-13.723-0.19531-21.852-20.094-38.746-20.938-39.457-1.8984-1.5977-4.6758-1.5703-6.5352 0.058593-0.83594 0.72656-20.426 17.973-20.234 39.82 0.035156 4.1875 0.80469 8.1836 2.0156 11.926-12.531-4.8867-25.227-4.1719-25.965-4.125-2.4648 0.16016-4.4492 2.0898-4.6836 4.543-0.10156 1.0586-2.3008 25.992 12.27 41.035 10.664 11.004 26.84 13.168 35.188 13.516v9.8242h-138.27v-9.7734c8.3164-0.082032 24.645-1.707 35.695-12.449 15.008-14.59 13.551-39.586 13.488-40.641-0.16016-2.4648-2.0898-4.4492-4.543-4.6836-0.78906-0.074219-14.887-1.3242-28.234 4.1367 1.4844-4.2656 2.4531-8.8711 2.4141-13.73-0.19531-21.852-20.094-38.746-20.938-39.457-1.8945-1.5977-4.6719-1.5703-6.5352 0.058593-0.83594 0.72656-20.426 17.973-20.234 39.82 0.035157 4.1875 0.80469 8.1836 2.0156 11.926-12.531-4.8867-25.223-4.1719-25.973-4.125-2.4648 0.16016-4.4492 2.0898-4.6836 4.543-0.10156 1.0586-2.3008 25.992 12.27 41.031 10.664 11.008 26.84 13.176 35.188 13.523v9.8242l-138.27-0.003906v-9.7734c8.3164-0.082032 24.645-1.707 35.695-12.449 15.008-14.59 13.551-39.586 13.488-40.641-0.16016-2.4648-2.0898-4.4492-4.543-4.6836-0.78906-0.074219-14.887-1.3242-28.227 4.1367 1.4844-4.2656 2.4531-8.8711 2.4102-13.723-0.19531-21.852-20.086-38.746-20.934-39.457-1.8984-1.5977-4.6641-1.5703-6.5352 0.058594-0.83594 0.72656-20.43 17.973-20.238 39.82 0.039062 4.1875 0.80469 8.1836 2.0156 11.926-12.531-4.8867-25.23-4.1719-25.973-4.125-2.4648 0.16016-4.4492 2.0898-4.6836 4.543-0.10156 1.0586-2.3008 25.992 12.27 41.031 10.652 10.992 26.828 13.16 35.176 13.508zm335.43-19.625c-8.3242 8.0898-21.512 9.4727-28.418 9.5938 0.3125-6.9062 2.0664-20.047 10.438-28.188 8.3281-8.0898 21.512-9.4727 28.426-9.5938-0.31641 6.9141-2.0664 20.047-10.445 28.188zm-33.957-76.254c4.9961 5.1875 13.914 16.188 14.027 28.656 0.10938 12.402-8.6133 23.59-13.523 28.883-4.9961-5.2109-13.926-16.238-14.031-28.641-0.10938-12.41 8.6289-23.605 13.527-28.898zm-42.316 46.867c6.9141 0.32812 20.035 2.1055 28.113 10.438 8.082 8.3438 9.457 21.555 9.5781 28.48-6.9141-0.32812-20.035-2.1055-28.113-10.438-8.082-8.3438-9.4609-21.551-9.5781-28.48zm-72.066 29.387c-8.3242 8.0898-21.512 9.4727-28.418 9.5938 0.3125-6.9062 2.0664-20.047 10.438-28.188 8.3242-8.0898 21.508-9.4727 28.418-9.5938-0.3125 6.9141-2.0586 20.047-10.438 28.188zm-33.957-76.254c4.9961 5.1875 13.914 16.188 14.027 28.656 0.10938 12.41-8.625 23.602-13.531 28.895-4.9961-5.1875-13.914-16.184-14.027-28.652-0.10547-12.41 8.6289-23.605 13.531-28.898zm-42.32 46.867c6.9141 0.32812 20.035 2.1094 28.113 10.445 8.082 8.3398 9.457 21.547 9.5781 28.477-6.9062-0.32812-20.035-2.1055-28.109-10.445-8.0859-8.3398-9.4609-21.547-9.582-28.477zm-72.066 29.387c-8.3242 8.0898-21.512 9.4727-28.418 9.5938 0.3125-6.9062 2.0664-20.047 10.438-28.188 8.3242-8.0898 21.508-9.4727 28.418-9.5938-0.30469 6.9141-2.0586 20.047-10.438 28.188zm-33.961-76.246c5.0039 5.2109 13.926 16.242 14.031 28.648 0.10938 12.402-8.6133 23.59-13.523 28.883-5.0039-5.2109-13.926-16.238-14.035-28.641-0.10938-12.406 8.6211-23.594 13.527-28.891zm-14.203 57.309c8.082 8.3398 9.4609 21.547 9.582 28.477-6.9141-0.32812-20.035-2.1055-28.113-10.445-8.082-8.3398-9.4609-21.547-9.582-28.477 6.9141 0.32812 20.039 2.1094 28.113 10.445z"/>
  <path d="m245.52 444.02v9.8242h-41.328c-2.7812 0-5.0391 2.2539-5.0391 5.0391s2.2578 5.0391 5.0391 5.0391h392.29c2.7812 0 5.0391-2.2539 5.0391-5.0391s-2.2578-5.0391-5.0391-5.0391h-44.211v-9.7734c8.3164-0.082031 24.645-1.707 35.695-12.449 15.008-14.59 13.551-39.586 13.488-40.641-0.16016-2.4648-2.0898-4.4492-4.5508-4.6836-0.78516-0.074219-14.887-1.3203-28.227 4.1406 1.4844-4.2656 2.4531-8.8789 2.4141-13.73-0.19531-21.852-20.094-38.742-20.938-39.453-1.8945-1.5977-4.6641-1.5664-6.5352 0.054688-0.83594 0.73047-20.426 17.973-20.234 39.82 0.035156 4.1875 0.80469 8.1875 2.0156 11.93-12.531-4.8828-25.227-4.1602-25.973-4.125-2.4648 0.16016-4.4492 2.0898-4.6836 4.543-0.10156 1.0586-2.3008 25.988 12.27 41.035 10.664 11.008 26.84 13.168 35.188 13.512v9.8242h-138.27v-9.7734c8.3164-0.082031 24.645-1.707 35.695-12.449 15.008-14.59 13.551-39.586 13.488-40.641-0.16016-2.4648-2.0898-4.4492-4.5508-4.6836-0.78906-0.074219-14.887-1.3203-28.227 4.1406 1.4844-4.2656 2.4531-8.8789 2.4141-13.734-0.19531-21.852-20.094-38.742-20.938-39.453-1.8945-1.5977-4.6641-1.5664-6.5352 0.054688-0.83594 0.73047-20.426 17.973-20.234 39.82 0.035157 4.1875 0.80469 8.1875 2.0156 11.93-12.531-4.8828-25.227-4.1602-25.973-4.125-2.4648 0.16016-4.4492 2.0898-4.6836 4.543-0.10156 1.0586-2.3008 25.988 12.27 41.031 10.664 11.012 26.84 13.176 35.188 13.516v9.8242h-138.27v-9.7734c8.3164-0.082031 24.645-1.707 35.695-12.449 15.008-14.59 13.551-39.586 13.488-40.641-0.16016-2.4648-2.0898-4.4492-4.5508-4.6836-0.78125-0.074219-14.887-1.3203-28.227 4.1406 1.4844-4.2656 2.4531-8.8789 2.4141-13.734-0.19531-21.852-20.086-38.742-20.938-39.453-1.8945-1.5977-4.6641-1.5664-6.5352 0.054688-0.83594 0.73047-20.43 17.973-20.238 39.82 0.039063 4.1875 0.80469 8.1875 2.0195 11.93-12.531-4.8828-25.227-4.1602-25.973-4.125-2.4648 0.16016-4.4492 2.0898-4.6836 4.543-0.10156 1.0586-2.3008 25.988 12.27 41.031 10.656 11.004 26.828 13.164 35.18 13.512zm335.43-19.621c-8.3242 8.0898-21.512 9.4727-28.418 9.5938 0.3125-6.9062 2.0664-20.043 10.438-28.184 8.3281-8.0898 21.512-9.4766 28.426-9.5938-0.31641 6.9023-2.0664 20.039-10.445 28.184zm-33.965-76.25c5.0039 5.2109 13.926 16.238 14.035 28.641s-8.6133 23.59-13.523 28.883c-4.9961-5.2109-13.926-16.238-14.031-28.641-0.10938-12.402 8.6172-23.582 13.52-28.883zm-42.309 46.852c6.8906 0.3125 19.992 2.0703 28.113 10.449 8.0859 8.3477 9.457 21.566 9.5781 28.496-6.8906-0.3125-19.992-2.0703-28.113-10.449-8.0898-8.3555-9.4609-21.57-9.5781-28.496zm-72.066 29.398c-8.3242 8.0898-21.512 9.4727-28.418 9.5938 0.3125-6.9062 2.0664-20.043 10.438-28.184 8.3242-8.0898 21.508-9.4766 28.418-9.5938-0.3125 6.9023-2.0586 20.039-10.438 28.184zm-33.957-76.258c4.9961 5.1875 13.914 16.184 14.027 28.652 0.10938 12.41-8.625 23.602-13.531 28.895-4.9961-5.1875-13.914-16.184-14.027-28.652-0.10547-12.406 8.6289-23.602 13.531-28.895zm-42.32 46.859c6.8906 0.3125 19.992 2.0703 28.113 10.453 8.0859 8.3438 9.4609 21.562 9.5781 28.492-6.8906-0.3125-19.992-2.0703-28.109-10.449-8.0898-8.3555-9.4609-21.57-9.582-28.496zm-72.066 29.398c-8.3242 8.0898-21.512 9.4727-28.418 9.5938 0.3125-6.9062 2.0664-20.043 10.438-28.184 8.3242-8.0898 21.508-9.4766 28.418-9.5938-0.30469 6.9023-2.0586 20.039-10.438 28.184zm-33.961-76.25c4.9961 5.2109 13.926 16.238 14.031 28.641 0.10938 12.402-8.6133 23.59-13.523 28.883-5.0039-5.2109-13.926-16.238-14.035-28.641-0.10938-12.402 8.6211-23.582 13.527-28.883zm-14.203 57.305c8.0859 8.3438 9.4609 21.562 9.582 28.492-6.8906-0.3125-19.992-2.0703-28.113-10.449-8.0859-8.3516-9.4609-21.566-9.582-28.496 6.8945 0.3125 19.992 2.0703 28.113 10.453z"/>
  <path d="m245.52 581.62v9.8242h-41.328c-2.7812 0-5.0391 2.2539-5.0391 5.0391s2.2578 5.0391 5.0391 5.0391h392.29c2.7812 0 5.0391-2.2539 5.0391-5.0391s-2.2578-5.0391-5.0391-5.0391h-44.211v-9.7734c8.3164-0.082031 24.645-1.707 35.695-12.449 15.008-14.59 13.551-39.578 13.488-40.637-0.16016-2.4648-2.0898-4.4492-4.543-4.6836-0.78906-0.074219-14.887-1.3242-28.234 4.1367 1.4844-4.2734 2.4531-8.8789 2.4141-13.734-0.19531-21.852-20.094-38.742-20.938-39.453-1.8945-1.5938-4.6641-1.5625-6.5352 0.054688-0.83594 0.73047-20.426 17.973-20.234 39.82 0.035156 4.1875 0.80469 8.1836 2.0156 11.926-12.531-4.8828-25.227-4.1602-25.973-4.1211-2.4648 0.16016-4.4492 2.0898-4.6836 4.543-0.10156 1.0586-2.3008 25.992 12.27 41.035 10.664 11.008 26.84 13.168 35.188 13.512l-0.003906 9.8242h-138.26v-9.7734c8.3164-0.082031 24.645-1.707 35.695-12.449 15.008-14.59 13.551-39.578 13.488-40.637-0.16016-2.4648-2.0898-4.4492-4.543-4.6836-0.78906-0.074219-14.887-1.3242-28.234 4.1406 1.4844-4.2734 2.4531-8.8789 2.4141-13.734-0.19531-21.852-20.094-38.742-20.938-39.453-1.8945-1.5938-4.6641-1.5625-6.5352 0.054687-0.83594 0.73047-20.426 17.973-20.234 39.82 0.035157 4.1875 0.80469 8.1836 2.0156 11.926-12.531-4.8828-25.227-4.1602-25.973-4.1211-2.4648 0.16016-4.4492 2.0898-4.6836 4.543-0.10156 1.0586-2.3008 25.992 12.27 41.031 10.664 11.012 26.84 13.176 35.188 13.516l-0.003907 9.8203h-138.27v-9.7734c8.3164-0.082031 24.645-1.707 35.695-12.449 15.008-14.59 13.551-39.578 13.488-40.637-0.16016-2.4648-2.0898-4.4492-4.543-4.6836-0.78906-0.074219-14.887-1.3242-28.234 4.1406 1.4844-4.2734 2.4531-8.8789 2.4141-13.734-0.19531-21.852-20.086-38.742-20.938-39.453-1.8945-1.5938-4.6641-1.5625-6.5352 0.054687-0.83594 0.73047-20.43 17.973-20.238 39.82 0.039063 4.1875 0.80469 8.1836 2.0156 11.926-12.531-4.8828-25.227-4.1602-25.973-4.1211-2.4648 0.16016-4.4492 2.0898-4.6836 4.543-0.10156 1.0586-2.3008 25.992 12.27 41.031 10.66 11.008 26.832 13.168 35.184 13.512zm335.43-19.621c-8.3242 8.0898-21.512 9.4727-28.418 9.5938 0.3125-6.9062 2.0664-20.043 10.438-28.184 8.3242-8.0898 21.512-9.4727 28.426-9.5938-0.31641 6.9102-2.0664 20.039-10.445 28.184zm-33.965-76.25c5.0039 5.2109 13.926 16.238 14.035 28.641s-8.6133 23.594-13.523 28.887c-5.0039-5.2109-13.926-16.242-14.031-28.648-0.10938-12.391 8.6172-23.578 13.52-28.879zm-42.309 46.852c6.8906 0.3125 19.992 2.0703 28.113 10.449 8.0859 8.3477 9.457 21.566 9.5781 28.496-6.8906-0.3125-19.992-2.0703-28.113-10.449-8.0898-8.3477-9.4609-21.57-9.5781-28.496zm-72.066 29.398c-8.3242 8.0898-21.512 9.4727-28.418 9.5938 0.3125-6.9062 2.0664-20.043 10.438-28.184 8.3242-8.0898 21.508-9.4727 28.418-9.5938-0.3125 6.9102-2.0586 20.039-10.438 28.184zm-33.957-76.254c4.9961 5.1875 13.914 16.184 14.027 28.652 0.10938 12.41-8.625 23.602-13.531 28.898-4.9961-5.1875-13.914-16.188-14.027-28.656-0.10547-12.41 8.6289-23.605 13.531-28.895zm-42.32 46.855c6.8906 0.3125 19.992 2.0703 28.113 10.453 8.0859 8.3438 9.4609 21.562 9.5781 28.492-6.8906-0.3125-19.984-2.0703-28.109-10.453-8.0898-8.3438-9.4609-21.566-9.582-28.492zm-72.066 29.398c-8.3242 8.0898-21.512 9.4727-28.418 9.5938 0.3125-6.9062 2.0664-20.043 10.438-28.184 8.3242-8.0898 21.508-9.4727 28.418-9.5938-0.30469 6.9102-2.0586 20.039-10.438 28.184zm-33.961-76.25c4.9961 5.2109 13.926 16.238 14.031 28.641 0.10938 12.41-8.625 23.602-13.531 28.898-4.9961-5.1875-13.914-16.188-14.027-28.656-0.10547-12.395 8.6211-23.582 13.527-28.883zm-14.203 57.309c8.0859 8.3438 9.4609 21.562 9.582 28.492-6.8906-0.3125-19.992-2.0703-28.113-10.453-8.0859-8.3438-9.4609-21.562-9.582-28.492 6.8945 0.3125 19.992 2.0664 28.113 10.453z"/>
 </g>
</svg>