<?xml version="1.0" encoding="UTF-8"?>
<!-- The Best Svg Icon site in the world: iconSvg.co, Visit us! https://iconsvg.co -->
<svg fill="#000000" width="800px" height="800px" version="1.1" viewBox="144 144 512 512" xmlns="http://www.w3.org/2000/svg">
 <path d="m626.26 243.62c-2.4805-2.7695-6.5625-3.4258-9.7852-1.5742l-329.52 190.69-0.085938 0.078125c-0.046875 0-0.10156 0-0.14844 0.046875l-97.527 55.859c-7.2227 4.0391-12.781 10.508-15.684 18.258-2.9258 7.5781-2.3164 16.066 1.6602 23.152l8.6602 15.137c2.5977 4.2969 6.293 7.8281 10.707 10.23s9.3828 3.5859 14.406 3.4336c6.2148-0.03125 12.312-1.6797 17.695-4.7852l94.293-54.004c4.4609 5.2812 10.152 9.3828 16.578 11.938 1.6797 0.51953 3.4336 0.78516 5.1953 0.78516 2.6875 0.007812 5.332-0.69141 7.668-2.0312 153.16-87.719 275.21-255.66 276.43-257.34 2.168-3.0078 1.9414-7.1172-0.53516-9.8711zm-376.28 279.01-22.277-37.832 59.961-34.328-0.003906-0.003906c6.8125 12.977 14.527 25.461 23.09 37.355zm-31.172 17.855h-0.003907c-3.2539 2.3555-7.2969 3.3594-11.277 2.793-3.9805-0.56641-7.582-2.6602-10.047-5.832l-8.6602-15.137v-0.003906c-1.6484-3.0781-1.8438-6.7344-0.52734-9.9727 1.6367-4.2344 4.7148-7.7578 8.6992-9.9414l17.074-9.7695 22.27 37.832zm123.91-43.352c-6.7461 0.58984-25.695-24.781-41.414-54.523l288.05-166.63c-42.762 52.543-136.66 158.16-246.61 221.16z"/>
</svg>