<?xml version="1.0" encoding="UTF-8"?>
<!-- The Best Svg Icon site in the world: iconSvg.co, Visit us! https://iconsvg.co -->
<svg fill="#000000" width="800px" height="800px" version="1.1" viewBox="144 144 512 512" xmlns="http://www.w3.org/2000/svg">
 <g>
  <path d="m475.61 281.79c-0.52344-0.91797-1.3164-1.6484-2.2656-2.0859l-49.668-22.906c-1.3398-0.61328-2.8828-0.61328-4.2227 0l-42.145 19.441 0.003906-15.996c0-18.32-14.902-33.223-33.223-33.223-18.32 0-33.223 14.902-33.223 33.223v138.31c0 2.7812 2.2539 5.0391 5.0391 5.0391h30.129v13.094c0 2.7812 2.2539 5.0391 5.0391 5.0391h140.97c2.7852 0 5.0391-2.2578 5.0391-5.0391l-0.003907-95.793c0-0.87109-0.22656-1.7344-0.66016-2.4883zm-54.043-14.871 46.078 21.254 19.367 34.059v12.082h-130.89v-12.758l19.348-33.371zm-73.793 48.938h-26.824v-28.688h43.453zm-26.824 10.078h25.09v30.531h-25.09zm23.141-88.832c12.762 0 23.145 10.383 23.145 23.145v16.852h-46.285v-16.855c0-12.762 10.379-23.141 23.141-23.141zm-23.141 156.41v-26.973h25.09v26.973zm122.61 18.133h-16.723v-38.102h16.723zm-26.805 0h-17.176l0.003906-38.102h17.176zm36.879 0v-43.137c0-2.7812-2.2539-5.0391-5.0391-5.0391h-54.051c-2.7852 0-5.0391 2.2578-5.0391 5.0391v43.137h-33.387v-67.258h130.89v67.258z"/>
  <path d="m203.51 559.78h29.07v36.703c0 2.7812 2.2539 5.0391 5.0391 5.0391s5.0391-2.2578 5.0391-5.0391v-36.703h26.188v36.703c0 2.7812 2.2539 5.0391 5.0391 5.0391 2.7852 0 5.0391-2.2578 5.0391-5.0391v-36.703h242.15l-0.003906 36.703c0 2.7812 2.2539 5.0391 5.0391 5.0391 2.7852 0 5.0391-2.2578 5.0391-5.0391v-36.703h26.188v36.703c0 2.7812 2.2539 5.0391 5.0391 5.0391s5.0391-2.2578 5.0391-5.0391v-36.703h29.066c2.7852 0 5.0391-2.2578 5.0391-5.0391v-78.105c0-2.7812-2.2539-5.0391-5.0391-5.0391h-29.07v-18.711h29.07c2.7852 0 5.0391-2.2578 5.0391-5.0391v-244.34c0-2.7812-2.2539-5.0391-5.0391-5.0391l-392.97 0.003906c-2.7852 0-5.0391 2.2578-5.0391 5.0391v244.34c0 2.7812 2.2539 5.0391 5.0391 5.0391h29.07v18.711l-29.07-0.003906c-2.7852 0-5.0391 2.2578-5.0391 5.0391v78.105c0.003906 2.7734 2.2539 5.0312 5.0391 5.0312zm353.83-88.18h-26.188v-18.711h26.188zm-36.266-18.715v18.711l-242.15 0.003906v-18.711zm-312.52-244.34h382.89v234.27h-382.89zm34.109 244.34h26.188v18.711l-26.188 0.003906zm-34.109 28.789h382.89v68.031h-382.89z"/>
  <path d="m462.98 510.65h-123.73c-2.7852 0-5.0391 2.2578-5.0391 5.0391s2.2539 5.0391 5.0391 5.0391h123.73c2.7852 0 5.0391-2.2578 5.0391-5.0391s-2.2539-5.0391-5.0391-5.0391z"/>
  <path d="m394.54 318.13h54.055c2.7852 0 5.0391-2.2578 5.0391-5.0391s-2.2539-5.0391-5.0391-5.0391l-54.055 0.003907c-2.7852 0-5.0391 2.2578-5.0391 5.0391 0 2.7773 2.2539 5.0352 5.0391 5.0352z"/>
 </g>
</svg>