<?xml version="1.0" encoding="UTF-8"?>
<!-- The Best Svg Icon site in the world: iconSvg.co, Visit us! https://iconsvg.co -->
<svg fill="#000000" width="800px" height="800px" version="1.1" viewBox="144 144 512 512" xmlns="http://www.w3.org/2000/svg">
 <g>
  <path d="m383.32 248.86h58.543c11.66 0 21.109 11.66 21.109 21.109v8.1602c0 11.66-9.4492 21.109-21.109 21.109h-58.543c-11.66 0-21.109-11.66-21.109-21.109v-8.1602c0-11.66 9.4492-21.109 21.109-21.109z"/>
  <path d="m458.95 263.97h-175.73c-4.1719 0-7.5547 3.3828-7.5547 7.5586v27.711h-19.246c-4.1758 0-7.5586 3.3828-7.5586 7.5547 0 4.1758 3.3828 7.5586 7.5586 7.5586h26.801c4.1758 0 7.5586-3.3828 7.5586-7.5586v-27.707h220.06v-15.117z"/>
  <path d="m314.35 256.41c0-4.1758-3.3828-7.5586-7.5586-7.5586-4.1719 0-7.5547 3.3828-7.5547 7.5586v118.39h15.113z"/>
  <path d="m525.95 279.09v-22.672c0-4.1758-3.3828-7.5586-7.5547-7.5586-4.1758 0-7.5586 3.3828-7.5586 7.5586v118.39h15.113z"/>
  <path d="m420.15 279.09v-22.672c0-4.1758-3.3867-7.5586-7.5586-7.5586s-7.5586 3.3828-7.5586 7.5586v62.977h15.113z"/>
  <path d="m433.1 319.39h-41.008c-3.9492 0.089844-7.7031 1.7227-10.461 4.5469-2.7578 2.8242-4.3047 6.6172-4.3008 10.566 1.7148 5.7422 3.4258 11.539 5.0391 17.281l5.5391 17.984h49.375l5.3906-17.984c1.7617-5.7422 3.4766-11.539 5.0391-17.281 0-3.9219-1.5234-7.6953-4.25-10.516-2.7266-2.8203-6.4414-4.4688-10.363-4.5977z"/>
  <path d="m534.06 384.88h-242.94c-4.5195 0.027344-8.8516 1.8359-12.047 5.0312-3.1992 3.1992-5.0039 7.5273-5.0312 12.051v44.438h17.633v20.152l-17.633-0.003907v10.078h5.0391v20.152h-5.0391v10.078h17.633v20.152l-17.633-0.003907v7.0547c0.027344 4.5195 1.832 8.8516 5.0312 12.047 3.1953 3.1992 7.5273 5.0039 12.047 5.0312h242.94c4.5195-0.027344 8.8516-1.832 12.047-5.0312 3.1992-3.1953 5.0039-7.5273 5.0312-12.047v-7.0547h-17.633v-20.152h17.633v-10.078l-30.227 0.003906v-20.152h30.23v-10.078h-17.637v-20.152h17.633v-44.434c-0.027344-4.5234-1.832-8.8516-5.0312-12.051-3.1953-3.1953-7.5273-5.0039-12.047-5.0312zm-239.86 91.746h30.23v20.152h-30.23zm42.824 50.383h-30.23v-20.152h30.23zm0-60.457h-30.23v-20.152h30.23zm2.5195 10.078h30.23v20.152l-30.23-0.003906zm42.824 50.383h-30.23v-20.152h30.23zm0-60.457h-30.23v-20.152h30.23zm2.5195 10.078h30.23v20.152l-30.234-0.007812zm42.824 50.383h-30.23v-20.152h30.23zm0-60.457h-30.23v-20.152h30.23zm2.5195 10.078h30.23v20.152l-30.234-0.011719zm42.824 50.383h-30.23v-20.152h30.23zm0-60.457h-30.23v-20.152h30.23zm2.5195 10.078h30.23v20.152l-30.234-0.015625zm42.824 50.383h-30.23v-20.152h30.23zm0-60.457h-30.23v-20.152h30.23z"/>
 </g>
</svg>