<?xml version="1.0" encoding="UTF-8"?>
<!-- The Best Svg Icon site in the world: iconSvg.co, Visit us! https://iconsvg.co -->
<svg fill="#000000" width="800px" height="800px" version="1.1" viewBox="144 144 512 512" xmlns="http://www.w3.org/2000/svg">
 <g>
  <path d="m537.56 380.09c0-27.172-12.746-53.336-35.887-73.73 2.25-6.9414 3.3867-14.031 3.3867-21.074 0-47.223-48.875-85.641-108.95-85.641s-108.95 38.418-108.95 85.641c0 7.0586 1.1367 14.148 3.3906 21.121-23.148 20.336-35.895 46.504-35.895 73.68 0 10.336 1.8164 20.578 5.4102 30.41-15.062 19.465-23.027 41.727-23.027 64.383 0 62.914 59.926 115.05 137.43 123.34l-0.52344 34.004c-0.042969 2.7852 2.1797 5.0742 4.9609 5.1172 2.9023 0.011719 5.0742-2.1758 5.1172-4.9609v-0.078124l4.9883-324.23c0.058594-3.8516 3.2383-6.9844 7.0938-6.9844 3.8516 0 7.0312 3.1328 7.0898 6.9844l4.9883 324.23v0.078124c0.042969 2.7539 2.2891 4.9609 5.0391 4.9609h0.078126c2.7812-0.042969 5.0039-2.332 4.9609-5.1172l-0.52344-34.004c77.508-8.293 137.44-60.426 137.44-123.34 0-22.641-7.9609-44.895-23.016-64.359 3.5781-9.8594 5.3945-20.102 5.3945-30.43zm-161.45 112.09-41.98-45.418c-1.8438-1.9961-1.7852-5.0625 0.13672-6.9805l3.8672-3.8672c0.98828-0.98438 2.2773-1.4805 3.5664-1.4805 1.2227 0 2.4492 0.44141 3.418 1.3438l31.414 29.039zm1.6172-105.32-28.172-30.961c-1.8125-1.9922-1.7422-5.0469 0.16406-6.9531l1.6953-1.6992c1.9023-1.9062 4.957-1.9766 6.9531-0.16406l19.695 17.926zm36.43-21.848 19.699-17.926c0.96484-0.87891 2.1797-1.3125 3.3906-1.3125 1.2891 0 2.5781 0.49609 3.5625 1.4766l1.6992 1.6992v0.003906c1.9102 1.9023 1.9766 4.957 0.16797 6.9531l-28.184 30.559zm1.5352 99.805 31.418-29.039c0.97266-0.89844 2.1953-1.3438 3.418-1.3438 1.2891 0 2.5781 0.49609 3.5625 1.4805l3.8672 3.8672v0.003906c1.9219 1.9141 1.9766 4.9805 0.13672 6.9766l-41.98 45.418zm129.41 10.066c0 57.5-55.504 105.21-127.52 113.24l-1.25-81.344 49.156-53.18c5.5312-5.9922 5.3477-15.188-0.41406-20.945l-3.8633-3.8672c-5.7617-5.7578-14.961-5.9453-20.949-0.41406l-24.785 22.91-0.76562-49.695 35.398-38.906c5.4414-5.9805 5.2266-15.145-0.49219-20.859l-1.6992-1.6992c-5.7109-5.7188-14.883-5.9297-20.855-0.49219l-13.125 11.945-0.67188-43.652c-0.13672-9.3242-7.8359-16.91-17.164-16.91-9.3242 0-17.027 7.5859-17.168 16.906l-0.67188 43.652-13.121-11.941c-5.9844-5.4453-15.145-5.2266-20.859 0.49219l-1.6992 1.6992h-0.003907c-5.7109 5.7188-5.9297 14.879-0.48828 20.859l35.402 38.902-0.76562 49.703-24.781-22.91c-5.9844-5.5234-15.191-5.3516-20.949 0.41406l-3.8672 3.8672c-5.7617 5.7578-5.9453 14.957-0.41016 20.945l49.156 53.18-1.25 81.344c-72.012-8.0234-127.52-55.738-127.52-113.24 0-20.402 7.2344-40.531 20.914-58.207 2.1211-2.7305 2.6797-6.3125 1.4961-9.5859-3.1797-8.7578-4.793-17.844-4.793-27 0-24.234 11.531-47.715 32.473-66.113 3.0195-2.6602 4.168-6.8672 2.918-10.723-1.918-5.918-2.8867-11.965-2.8867-17.969 0-41.664 44.355-75.562 98.871-75.562 54.52 0 98.871 33.898 98.871 75.562 0 5.9844-0.97266 12.031-2.8984 17.977-1.2383 3.8555-0.089844 8.0625 2.9258 10.711 20.941 18.402 32.473 41.883 32.473 66.113 0 9.1562-1.6133 18.242-4.793 27-1.1875 3.2578-0.62891 6.8398 1.4844 9.5742v0.003907c13.695 17.695 20.934 37.82 20.934 58.219z"/>
  <path d="m596.63 350.04c0-2.7812-2.2539-5.0391-5.0391-5.0391h-5.7969v-5.793c0-2.7812-2.2539-5.0391-5.0391-5.0391s-5.0391 2.2539-5.0391 5.0391v5.793h-5.7891c-2.7852 0-5.0391 2.2539-5.0391 5.0391 0 2.7812 2.2539 5.0391 5.0391 5.0391h5.7891v5.793c0 2.7812 2.2539 5.0391 5.0391 5.0391s5.0391-2.2539 5.0391-5.0391v-5.793h5.7969c2.7852-0.003907 5.0391-2.2578 5.0391-5.0391z"/>
  <path d="m462.83 187.11h4.3164v4.3125c0 2.7812 2.2539 5.0391 5.0391 5.0391s5.0391-2.2539 5.0391-5.0391l-0.003906-4.3125h4.3086c2.7852 0 5.0391-2.2539 5.0391-5.0391 0-2.7812-2.2539-5.0391-5.0391-5.0391l-4.3086 0.003906v-4.3125c0-2.7812-2.2539-5.0391-5.0391-5.0391-2.7852 0-5.0391 2.2539-5.0391 5.0391v4.3125h-4.3164c-2.7852 0-5.0391 2.2539-5.0391 5.0391 0.003906 2.7812 2.2578 5.0352 5.043 5.0352z"/>
  <path d="m286.49 205.2h5.793v5.793c0 2.7812 2.2539 5.0391 5.0391 5.0391 2.7812 0 5.0391-2.2539 5.0391-5.0391v-5.793h5.793c2.7812 0 5.0391-2.2539 5.0391-5.0391 0-2.7812-2.2539-5.0391-5.0391-5.0391h-5.793v-5.7969c0-2.7812-2.2539-5.0391-5.0391-5.0391-2.7812 0-5.0391 2.2539-5.0391 5.0391v5.7969h-5.793c-2.7812 0-5.0391 2.2539-5.0391 5.0391 0.003906 2.7812 2.2578 5.0391 5.0391 5.0391z"/>
  <path d="m378.99 174.55c3.2891 0 5.9531-2.6641 5.9531-5.9531 0-3.2891-2.6641-5.9531-5.9531-5.9531-3.2891 0-5.9531 2.6641-5.9531 5.9531 0 3.2891 2.6641 5.9531 5.9531 5.9531z"/>
  <path d="m229.3 357.45h-5.0391v-5.0391c0-2.7812-2.2539-5.0391-5.0391-5.0391-2.7812 0-5.0391 2.2539-5.0391 5.0391v5.0391h-5.0391c-2.7812 0-5.0391 2.2539-5.0391 5.0391 0 2.7812 2.2539 5.0391 5.0391 5.0391h5.0391v5.0391c0 2.7812 2.2539 5.0391 5.0391 5.0391 2.7812 0 5.0391-2.2539 5.0391-5.0391v-5.0391h5.0391c2.7812 0 5.0391-2.2539 5.0391-5.0391 0-2.7852-2.2539-5.0391-5.0391-5.0391z"/>
  <path d="m245.38 286.32c0 3.2852-2.6641 5.9531-5.9531 5.9531-3.2891 0-5.9531-2.668-5.9531-5.9531 0-3.2891 2.6641-5.9531 5.9531-5.9531 3.2891 0 5.9531 2.6641 5.9531 5.9531"/>
  <path d="m533.66 263.79c3.2891 0 5.9531-2.6641 5.9531-5.9531 0-3.2891-2.6641-5.9531-5.9531-5.9531-3.2891 0-5.9531 2.6641-5.9531 5.9531 0 3.2891 2.6641 5.9531 5.9531 5.9531z"/>
  <path d="m593.92 451.23c-3.2891 0-5.9531 2.6641-5.9531 5.9531 0 3.2891 2.6641 5.9531 5.9531 5.9531 3.2891 0 5.9531-2.6641 5.9531-5.9531 0-3.2852-2.6641-5.9531-5.9531-5.9531z"/>
  <path d="m206.08 438.22c-3.2891 0-5.9531 2.6641-5.9531 5.9531s2.6641 5.9531 5.9531 5.9531 5.9531-2.6641 5.9531-5.9531c0-3.2852-2.6641-5.9531-5.9531-5.9531z"/>
  <path d="m316.2 479.89c0-2.7852-2.2539-5.0391-5.0391-5.0391-2.7812 0-5.0391 2.2539-5.0391 5.0391v0.94141c-13.977 2.4023-24.656 14.578-24.656 29.23 0 16.375 13.32 29.695 29.695 29.695 16.371 0 29.691-13.324 29.691-29.695 0-14.652-10.68-26.828-24.652-29.23zm14.578 30.176c0 10.82-8.8008 19.621-19.617 19.621s-19.617-8.8008-19.617-19.621c0-9.0625 6.2109-16.637 14.582-18.879v1.2578c0 2.7852 2.2539 5.0391 5.0391 5.0391 2.7812 0 5.0391-2.2539 5.0391-5.0391v-1.2578c8.3633 2.2422 14.574 9.8164 14.574 18.879z"/>
  <path d="m484.62 489.01v-0.94141c0-2.7852-2.2539-5.0391-5.0391-5.0391s-5.0391 2.2539-5.0391 5.0391v0.94141c-13.977 2.4023-24.652 14.578-24.652 29.23 0 16.375 13.32 29.691 29.691 29.691 16.375 0 29.691-13.32 29.691-29.691 0.003907-14.652-10.676-26.828-24.652-29.23zm-5.0391 48.848c-10.812 0-19.617-8.8008-19.617-19.617 0-9.0625 6.2109-16.637 14.578-18.879v1.2539c0 2.7852 2.2539 5.0391 5.0391 5.0391s5.0391-2.2539 5.0391-5.0391v-1.2539c8.3672 2.2422 14.578 9.8164 14.578 18.879 0 10.816-8.8008 19.617-19.617 19.617z"/>
  <path d="m489.93 364.77v-0.042969c0-2.7812-2.2539-5.0391-5.0391-5.0391-2.7852 0-5.0391 2.2539-5.0391 5.0391v0.042969c-11.633 2.3438-20.422 12.637-20.422 24.953 0 14.039 11.418 25.461 25.461 25.461s25.461-11.422 25.461-25.461c0.003906-12.312-8.7852-22.605-20.422-24.953zm-5.0391 40.34c-8.4805 0-15.387-6.9023-15.387-15.387 0-6.7188 4.3555-12.383 10.371-14.477 0.066406 2.7227 2.2734 4.918 5.0156 4.918 2.7422 0 4.9453-2.1953 5.0156-4.918 6.0156 2.0938 10.371 7.7578 10.371 14.477 0 8.4844-6.9023 15.387-15.387 15.387z"/>
  <path d="m311.16 357.5v-0.042969c0-2.7812-2.2539-5.0391-5.0391-5.0391-2.7812 0-5.0391 2.2539-5.0391 5.0391v0.042969c-11.633 2.3438-20.422 12.637-20.422 24.953 0 14.035 11.422 25.457 25.461 25.457 14.035 0 25.457-11.422 25.457-25.457 0-12.312-8.7891-22.605-20.418-24.953zm-5.0391 40.336c-8.4805 0-15.387-6.8984-15.387-15.383 0-6.7188 4.3555-12.383 10.371-14.477 0.070313 2.7227 2.2734 4.9141 5.0117 4.9141 2.7383 0 4.9453-2.1953 5.0117-4.9141 6.0156 2.0938 10.367 7.7578 10.367 14.477 0.007812 8.4805-6.8945 15.383-15.375 15.383z"/>
  <path d="m446.44 254.35c-0.23828-2.5586-2.3242-4.5859-4.9453-4.5859-2.625 0-4.707 2.0273-4.9453 4.5859-10.293 2.2734-18.031 11.441-18.031 22.41 0 12.668 10.309 22.973 22.977 22.973 12.668 0 22.977-10.305 22.977-22.973-0.003906-10.969-7.7383-20.137-18.031-22.41zm-4.9492 35.305c-7.1133 0-12.898-5.7852-12.898-12.898 0-5.3945 3.332-10.012 8.043-11.934 0.43359 2.3438 2.3906 4.1523 4.8594 4.1523s4.4258-1.8086 4.8594-4.1523c4.7109 1.9258 8.043 6.5391 8.043 11.934-0.003906 7.1133-5.793 12.898-12.906 12.898z"/>
  <path d="m356.24 246.52v-0.042969c0-2.7812-2.2539-5.0391-5.0391-5.0391-2.7812 0-5.0391 2.2539-5.0391 5.0391v0.042969c-11.633 2.3438-20.422 12.637-20.422 24.949 0 14.039 11.422 25.461 25.461 25.461 14.039 0 25.461-11.422 25.461-25.461 0.003906-12.312-8.7852-22.605-20.422-24.949zm-5.0352 40.336c-8.4805 0-15.387-6.9023-15.387-15.387 0-6.7188 4.3555-12.383 10.371-14.473 0.070312 2.7227 2.2734 4.918 5.0117 4.918s4.9453-2.1953 5.0117-4.918c6.0156 2.0898 10.371 7.7539 10.371 14.473 0.003907 8.4805-6.8984 15.387-15.379 15.387z"/>
 </g>
</svg>