<?xml version="1.0" encoding="UTF-8"?>
<!-- The Best Svg Icon site in the world: iconSvg.co, Visit us! https://iconsvg.co -->
<svg fill="#000000" width="800px" height="800px" version="1.1" viewBox="144 144 512 512" xmlns="http://www.w3.org/2000/svg">
 <g>
  <path d="m329.15 494.46h15.742v15.742h-15.742z"/>
  <path d="m329.15 588.93h15.742v15.742h-15.742z"/>
  <path d="m549.57 494.46h15.742v15.742h-15.742z"/>
  <path d="m549.57 588.93h15.742v15.742h-15.742z"/>
  <path d="m195.79 397.35c-0.30469 0.85156-0.46484 1.7461-0.46484 2.6484v188.93c0.015625 12.523 4.9961 24.531 13.848 33.387 8.8555 8.8555 20.863 13.836 33.387 13.848h354.24c2.0859 0 4.0898-0.83203 5.5664-2.3047 1.4727-1.4766 2.3047-3.4805 2.3047-5.5664v-62.977c0-2.0898-0.83203-4.0898-2.3047-5.5664-1.4766-1.4766-3.4805-2.3086-5.5664-2.3086h-7.875v-15.742h7.875c2.0859 0 4.0898-0.82812 5.5664-2.3047 1.4727-1.4766 2.3047-3.4805 2.3047-5.5664v-62.977c0-2.0898-0.83203-4.0898-2.3047-5.5664-1.4766-1.4766-3.4805-2.3047-5.5664-2.3047h-23.617v-4.7266c-0.003906-8.043-1.125-16.047-3.332-23.781l-12.414-43.453v-30.379c0-2.0859-0.82812-4.0898-2.3047-5.5664-1.4766-1.4727-3.4766-2.3047-5.5664-2.3047h-47.23c-4.3477 0-7.875 3.5234-7.875 7.8711v30.379l-7.8711 27.551-7.8711-27.551v-30.379c0-2.0859-0.82812-4.0898-2.3047-5.5664-1.4766-1.4727-3.4805-2.3047-5.5664-2.3047h-40.008l-8.4297-23.617h32.691c2.0898 0 4.0898-0.82813 5.5664-2.3047 1.4766-1.4766 2.3086-3.4766 2.3086-5.5664v-78.719c-0.023437-18.785-7.4922-36.793-20.777-50.074-13.281-13.281-31.289-20.754-50.074-20.773h-141.7c-18.785 0.019531-36.793 7.4922-50.074 20.773s-20.754 31.289-20.773 50.074v78.719c0 2.0898 0.82812 4.0898 2.3047 5.5664 1.4766 1.4766 3.4805 2.3047 5.5664 2.3047h32.691zm94 167.96v55.105l-47.23-0.003907c-8.3516 0-16.359-3.3164-22.266-9.2227-5.9062-5.9023-9.2227-13.914-9.2227-22.266v-181.05h110.21v-15.746h-106.91l33.738-94.465 146.38 0.003906 21.727 60.828v-0.003907c-0.26172 0.69141-0.42188 1.4141-0.47266 2.1484v30.379l-7.8711 27.551-7.8711-27.551v-30.379c0-2.0859-0.83203-4.0898-2.3086-5.5664-1.4766-1.4727-3.4766-2.3047-5.5664-2.3047h-47.23c-4.3477 0-7.8711 3.5234-7.8711 7.8711v30.379l-12.414 43.453c-2.207 7.7344-3.3281 15.738-3.332 23.781v4.7266h-23.613c-4.3477 0-7.875 3.5234-7.875 7.8711v62.977c0 2.0859 0.83203 4.0898 2.3086 5.5664 1.4727 1.4766 3.4766 2.3047 5.5664 2.3047h7.8711v15.742h-7.8711c-4.3477 0-7.875 3.5273-7.875 7.875zm110.21-283.39h-165.31c-4.3477 0-7.875-3.5234-7.875-7.8711s3.5273-7.8711 7.875-7.8711h173.18c4.3477 0 7.8711 3.5234 7.8711 7.8711s-3.5234 7.8711-7.8711 7.8711zm75.988 156.88c1.8125 6.3281 2.7305 12.875 2.7305 19.457v4.7266h-62.977v-4.7266c0-6.582 0.91797-13.129 2.7305-19.457l11.078-38.793h35.359zm-138.96 24.184v-4.7266c-0.003907-6.582 0.91797-13.129 2.7305-19.457l11.074-38.793h35.359l11.074 38.793h0.003906c1.8164 6.3281 2.7344 12.875 2.7344 19.457v4.7266zm47.23-78.719-31.488-0.003906v-15.742h31.488zm110.21 173.18v-15.742h31.488v15.742zm-15.742 0h-62.977v-15.742h62.977zm-78.719 0h-31.488v-15.742h31.488zm-47.23 0h-31.492v-15.742h31.488zm236.16 62.977h-283.39v-47.23h283.39zm-15.742-62.977h-31.492v-15.742h31.488zm15.742-31.488h-283.39v-47.23h283.39zm-78.723-157.44h31.488v15.742h-31.488zm-13.012 70.281 11.074-38.793h35.359l11.074 38.793h0.003906c1.8125 6.3281 2.7344 12.875 2.7305 19.457v4.7266h-62.977v-4.7266c0-6.582 0.91797-13.129 2.7344-19.457zm-34.219-54.539h-31.488v-15.742h31.488zm-267.65-70.848v-70.848c0.019531-14.609 5.832-28.613 16.16-38.945 10.332-10.328 24.336-16.141 38.945-16.16h141.7c14.609 0.019531 28.617 5.832 38.945 16.16 10.328 10.332 16.141 24.336 16.16 38.945v70.848h-30.441l-5.7695-16.066c7.9688-1.0781 14.836-6.1445 18.219-13.438 3.3828-7.2969 2.8086-15.812-1.5156-22.59-4.3281-6.7773-11.812-10.879-19.852-10.883h-173.18c-8.043 0.003906-15.527 4.1055-19.852 10.883-4.3281 6.7773-4.8984 15.293-1.5156 22.59 3.3789 7.293 10.25 12.359 18.219 13.438l-5.7734 16.066z"/>
 </g>
</svg>