<?xml version="1.0" encoding="UTF-8"?>
<!-- The Best Svg Icon site in the world: iconSvg.co, Visit us! https://iconsvg.co -->
<svg fill="#000000" width="800px" height="800px" version="1.1" viewBox="144 144 512 512" xmlns="http://www.w3.org/2000/svg">
 <path d="m371.68 450.76c-26.602 0-48.215 21.867-48.215 48.719 0 26.902 21.613 48.77 48.215 48.77 26.652 0 48.266-21.863 48.266-48.77 0-26.855-21.613-48.719-48.266-48.719zm0 71.844c-12.645 0-22.922-10.328-22.922-23.125 0-12.746 10.277-23.125 22.922-23.125 12.695 0 22.973 10.379 22.973 23.125 0 12.797-10.277 23.125-22.973 23.125zm0-38.695c-8.4648 0-15.367 7.0039-15.367 15.566 0 8.6172 6.9023 15.566 15.367 15.566 8.5156 0 15.418-6.9531 15.418-15.566 0-8.5625-6.9023-15.566-15.418-15.566zm0-33.148c-26.602 0-48.215 21.867-48.215 48.719 0 26.902 21.613 48.77 48.215 48.77 26.652 0 48.266-21.863 48.266-48.77 0-26.855-21.613-48.719-48.266-48.719zm0 71.844c-12.645 0-22.922-10.328-22.922-23.125 0-12.746 10.277-23.125 22.922-23.125 12.695 0 22.973 10.379 22.973 23.125 0 12.797-10.277 23.125-22.973 23.125zm0-38.695c-8.4648 0-15.367 7.0039-15.367 15.566 0 8.6172 6.9023 15.566 15.367 15.566 8.5156 0 15.418-6.9531 15.418-15.566 0-8.5625-6.9023-15.566-15.418-15.566zm0.050781-72.797c-9.3203 0-18.539 1.5117-27.457 4.4844l-0.60547 0.20312c-1.4609 0.44922-2.8711 1.0039-4.332 1.5586l-1.5625 0.65625c-1.9141 0.85547-4.0312 1.8633-6.0977 2.9219-1.9648 1.0586-3.9297 2.168-5.9453 3.3242-2.2656 1.4102-3.9805 2.5703-5.4922 3.7266-0.55469 0.45312-2.2656 1.8125-2.2656 1.8125l-0.55469 0.40234c-0.60547 0.50391-1.2578 1.0078-1.8633 1.5117l-1.5625 1.3594c-1.3594 1.2109-2.7188 2.418-3.9805 3.6758-2.2656 2.2656-4.4336 4.7344-6.8516 7.7578-2.0117 2.5234-3.9258 5.2461-5.8906 8.418-1.0586 1.8125-2.168 3.6289-3.125 5.543l-1.3594 2.7188v76.578l0.14844 0.30469c14.461 30.277 45.395 49.828 78.797 49.828 3.7266 0 7.2539-0.20312 10.531-0.65625 1.4102-0.15234 2.7227-0.30078 3.9805-0.60547 2.168-0.35156 4.2812-0.80469 6.3984-1.3086l1.6641-0.45312 2.9727-0.85547c0.45312-0.10156 0.85547-0.25 1.2578-0.40234l0.75391-0.25c1.2109-0.40234 2.418-0.85547 3.5781-1.3086l1.2578-0.50391c1.1094-0.45312 2.2656-0.90625 3.3242-1.3594l0.45312-0.20312c1.5117-0.70703 2.9727-1.4102 4.332-2.168 2.2148-1.1602 4.332-2.418 6.3984-3.7266 0.50391-0.35156 0.95703-0.70703 1.4609-1.0586l0.85547-0.60547c3.2227-2.2656 6.0977-4.4844 8.6641-6.8008 2.168-1.9141 4.0312-3.7773 5.7422-5.5938 0.15234-0.15234 1.0078-0.90625 1.0078-0.90625 8.1172-9.1211 14.012-19.098 17.84-29.93 3.3242-9.4219 5.0391-19.398 5.0391-29.727 0-48.715-39.246-88.363-87.512-88.363zm-0.050781 144.69c-30.734 0-55.773-25.242-55.773-56.324 0-31.035 25.039-56.277 55.773-56.277 30.781 0 55.82 25.242 55.82 56.277 0.003906 31.086-25.035 56.324-55.82 56.324zm0-105.04c-26.602 0-48.215 21.867-48.215 48.719 0 26.902 21.613 48.77 48.215 48.77 26.652 0 48.266-21.863 48.266-48.77 0-26.855-21.613-48.719-48.266-48.719zm0 71.844c-12.645 0-22.922-10.328-22.922-23.125 0-12.746 10.277-23.125 22.922-23.125 12.695 0 22.973 10.379 22.973 23.125 0 12.797-10.277 23.125-22.973 23.125zm0-38.695c-8.4648 0-15.367 7.0039-15.367 15.566 0 8.6172 6.9023 15.566 15.367 15.566 8.5156 0 15.418-6.9531 15.418-15.566 0-8.5625-6.9023-15.566-15.418-15.566zm152.25 2.3203-0.40234 0.45313c-0.60547 0.70703-1.2578 1.4102-1.9141 2.1172l-1.5625 1.6641c-0.35156 0.40234-0.75391 0.80469-1.1094 1.2109-2.1172 2.0664-4.082 3.8789-6.0977 5.4922-3.0234 3.2734-5.8945 6.0469-8.9688 8.5156-3.0742 3.375-5.9961 6.0977-9.0195 8.4648-2.9727 3.2734-5.9453 6.0977-8.9688 8.5664-2.8711 3.0742-5.8438 5.8945-9.0195 8.5156-3.125 3.3242-6.0469 6.0977-9.0195 8.5664-3.2227 3.3242-6.0977 6.0977-9.0195 8.4648-3.0742 3.2734-5.9961 6.0469-8.9688 8.5156-1.5625 1.6641-2.9219 3.0234-4.2305 4.2305l-1.1094 1.0078c-1.0586 0.95703-1.8125 1.6641-2.5703 2.2656-7.3555 8.0117-15.719 14.559-25.09 19.648l-0.99609 0.59375c-0.65625 0.30078-1.3086 0.65625-1.9648 1.0078l0.55469 2.3672h100.81l75.57-101.67zm-240.06-134.77c-2.418 0.20312-4.6367 0.30078-6.9023 0.30078h-0.60547c-2.5703 0-4.7344-0.10156-6.8516-0.25l-1.3594-0.15234-0.25391 1.3594v226.06c0 2.3672 0.90625 4.5859 2.5195 6.1484 1.6641 1.7109 3.7773 2.6211 6.0977 2.6211 4.8359 0 8.7148-3.9297 8.7148-8.7656v-227.42zm182.53 18.691c-10.629 0-20.859 2.4688-30.43 7.4062-0.20312 0.10156-0.40234 0.20312-0.60547 0.25391-3.7266 1.1602-7.3047 2.6719-10.68 4.4336-0.20312 0.15234-0.40234 0.20312-0.65625 0.30078-3.4766 1.0586-7.0039 2.5195-10.73 4.4336-0.20312 0.10156-0.40234 0.20313-0.60547 0.25-3.4766 1.0586-7.0039 2.5195-10.883 4.4844-0.15234 0.10156-0.35156 0.15234-0.50391 0.20312-3.7266 1.2578-7.3047 2.7188-10.934 4.5352-0.15234 0.10156-0.35156 0.15234-0.50391 0.20312-3.5273 1.1602-7.0547 2.6719-10.832 4.5352l-0.10156 2.6211 1.2578 0.20312c1.2109 0.10156 2.3672 0.25391 3.5273 0.40234l0.80469 0.10156c1.8125 0.25 3.375 0.45312 4.9375 0.75391 1.2578 0.25391 2.5195 0.55469 3.7773 0.85547 2.0664 0.50391 3.5781 0.90625 5.1406 1.3594 1.4102 0.40234 2.8203 0.85547 4.1836 1.3594 1.4609 0.50391 2.9727 1.0078 4.3828 1.6133 1.4102 0.55469 2.7188 1.1602 4.082 1.7617 1.4102 0.65625 2.7695 1.3086 4.1328 2.0156 1.3086 0.70703 2.6211 1.4102 3.8789 2.168 1.3086 0.75391 2.5703 1.5117 3.8281 2.3672 1.2578 0.80469 2.5195 1.6641 3.7773 2.5195 1.1602 0.85547 2.3164 1.7617 3.4766 2.6719 1.2109 0.95703 2.418 1.9141 3.5781 2.9219 1.0586 0.90625 2.1172 1.9141 3.1758 2.9219 1.1094 1.0586 2.2148 2.1172 3.2734 3.2734 1.0078 1.0078 1.9141 2.0664 2.8711 3.125 1.0586 1.2109 2.0664 2.3672 3.0234 3.6289 0.80469 1.0078 1.5117 2.0156 2.2656 3.0234l0.35156 0.45312c0.90625 1.2578 1.8125 2.5195 2.6719 3.8281 0.60547 0.90625 1.1602 1.8633 1.7109 2.8203l0.65625 1.1602c0.75391 1.2578 1.5117 2.5195 2.168 3.8281 0.50391 0.90625 0.90625 1.8125 1.3086 2.7188l0.75781 1.6094c0.60547 1.2578 1.2109 2.5703 1.7617 3.8789 0.35156 0.85547 0.65625 1.7109 0.95703 2.5703l0.70703 2.0156c0.50391 1.3086 1.0078 2.6719 1.4102 4.082 0.20312 0.75391 0.40234 1.5625 0.60547 2.3672l0.60547 2.3672c0.35156 1.4102 0.75391 2.8203 1.0078 4.2812 0.15234 0.65625 0.25 1.3086 0.30078 1.9648l0.35156 2.3672c0.30078 1.6641 0.55469 3.2734 0.70703 4.9375l0.050782 1.0586c0.20312 2.3164 0.45312 5.2891 0.45312 8.3633 0 11.082-1.8633 21.914-5.4922 32.195l-0.25 0.50391-1.4609 4.2812 3.375-2.5703c0.75391-0.65625 1.5625-1.3594 2.3672-2.0664 0 0 1.4609-1.3086 1.7617-1.6133 1.4102-1.3086 2.8203-2.7695 4.2812-4.2812 0.10156-0.15234 0.25-0.25 0.35156-0.40234 3.125-2.5195 6.0469-5.2891 8.6172-8.1094 0.10156-0.15234 0.25-0.30078 0.45312-0.45312 2.9727-2.3672 5.7422-4.9883 8.5156-8.1133 0.15234-0.15234 0.35156-0.30078 0.50391-0.45313 2.8711-2.2148 5.6914-4.8359 8.5156-8.0117 0.15234-0.15234 0.30078-0.25 0.45312-0.40234 2.9219-2.3672 5.7422-5.0391 8.5664-8.1133 0.10156-0.15234 0.25-0.30078 0.45313-0.45312 4.1836-3.3242 8.0117-7.1562 11.234-11.336 9.5234-12.141 14.559-26.703 14.559-42.066 0-37.484-30.129-67.914-67.258-67.914zm-133.56-147.11-1.7109-0.60547v44.133c0 23.73-7.9102 42.824-22.32 53.809-5.8438 4.4336-12.547 7.457-20 8.918-3.7773 0.75391-8.0117 1.1602-12.242 1.1602-4.2305 0-8.4648-0.40234-12.242-1.1602-3.7266-0.70703-7.2539-1.8633-10.629-3.3242-0.35156-0.20312-0.70703-0.35156-1.0586-0.55469l-1.5625-0.80469c-0.75781-0.35547-1.5117-0.75781-2.2188-1.1602l-0.90625-0.60547c-1.2109-0.75391-2.4688-1.5625-3.6797-2.4688-14.359-10.984-22.27-30.078-22.27-53.809v-44.133l-1.7109 0.60547c-2.3164 0.80469-4.4336 2.1172-6.1953 3.9297-3.2227 3.2227-4.9375 7.5078-4.9375 12.141 0 4.1328 0 8.4141 0.050781 12.797 0.050781 4.9883 0.050781 9.7734 0.050781 14.66 0 41.715 21.262 71.137 55.469 76.68 1.8125 0.35156 3.7773 0.60547 5.793 0.75391 1.9648 0.15234 3.9805 0.25 6.0469 0.25 4.1836 0 8.2617-0.35156 11.789-1.0078 34.207-5.5859 55.52-34.957 55.52-76.672 0-5.3398 0-10.125 0.050781-14.812 0.050781-4.5859 0.050781-8.6172 0.050781-12.797 0-7.207-4.4844-13.605-11.137-15.922zm-34.461-6.9531c-1.3594-1.4102-2.9727-2.5195-4.7852-3.2734l-1.7617-0.70703v108.62l2.8203-1.0078c0.85547-0.35156 1.7148-0.70703 2.5703-1.1094 0.60547-0.30078 1.2109-0.65625 1.8125-0.95703 0.80469-0.45313 1.6133-0.90625 2.3672-1.4102l1.0586-0.70703 0.25-0.80469v-88.168c0.003906-3.9258-1.5078-7.6562-4.332-10.477zm-38.844-3.2734c-5.5898 2.3164-9.2188 7.707-9.2188 13.754v88.82l1.4102 0.90625c0.75391 0.50391 1.5117 0.90625 2.3164 1.3594 0.60547 0.30078 1.2109 0.65625 1.8633 0.95703 0.80469 0.35156 1.6641 0.70703 2.5195 1.0586l2.8203 1.0586 0.003906-108.62z"/>
</svg>