<?xml version="1.0" encoding="UTF-8"?>
<!-- The Best Svg Icon site in the world: iconSvg.co, Visit us! https://iconsvg.co -->
<svg fill="#000000" width="800px" height="800px" version="1.1" viewBox="144 144 512 512" xmlns="http://www.w3.org/2000/svg">
 <g>
  <path d="m338.15 236.33h-12.211c-2.7852 0-5.0391 2.2539-5.0391 5.0391 0 2.7812 2.2539 5.0391 5.0391 5.0391h12.211c2.7852 0 5.0391-2.2539 5.0391-5.0391 0-2.7852-2.2539-5.0391-5.0391-5.0391z"/>
  <path d="m372.12 236.33h-12.207c-2.7852 0-5.0391 2.2539-5.0391 5.0391 0 2.7812 2.2539 5.0391 5.0391 5.0391h12.207c2.7852 0 5.0391-2.2539 5.0391-5.0391 0-2.7852-2.2539-5.0391-5.0391-5.0391z"/>
  <path d="m406.11 236.33h-12.211c-2.7852 0-5.0391 2.2539-5.0391 5.0391 0 2.7812 2.2539 5.0391 5.0391 5.0391h12.211c2.7852 0 5.0391-2.2539 5.0391-5.0391-0.003906-2.7852-2.2539-5.0391-5.0391-5.0391z"/>
  <path d="m440.08 236.33h-12.207c-2.7852 0-5.0391 2.2539-5.0391 5.0391 0 2.7812 2.2539 5.0391 5.0391 5.0391h12.207c2.7852 0 5.0391-2.2539 5.0391-5.0391-0.003907-2.7852-2.2539-5.0391-5.0391-5.0391z"/>
  <path d="m474.05 236.33h-12.211c-2.7852 0-5.0391 2.2539-5.0391 5.0391 0 2.7812 2.2539 5.0391 5.0391 5.0391h12.211c2.7852 0 5.0391-2.2539 5.0391-5.0391 0-2.7852-2.2539-5.0391-5.0391-5.0391z"/>
  <path d="m510.12 198.48h-220.24c-2.7852 0-5.0391 2.2539-5.0391 5.0391v37.293l-6.8125 34.355c-1.668 8.375-2.5078 16.953-2.5078 25.496l-0.003906 295.82c0 2.7812 2.2539 5.0391 5.0391 5.0391h238.89c2.7852 0 5.0391-2.2539 5.0391-5.0391v-295.82c0-8.543-0.83984-17.121-2.5078-25.496l-6.8125-34.355v-37.293c-0.003906-2.7852-2.2578-5.0391-5.043-5.0391zm4.2852 392.96h-228.81v-46.582h228.81zm0-56.656h-228.81v-211.45h228.81zm0-221.53h-228.81v-12.594c0-7.8867 0.77734-15.805 2.3125-23.535l6.0977-30.727h10.18c2.7852 0 5.0391-2.2539 5.0391-5.0391 0-2.7812-2.2539-5.0391-5.0391-5.0391h-9.2656v-27.77h210.16v27.77h-9.2656c-2.7852 0-5.0391 2.2539-5.0391 5.0391 0 2.7812 2.2539 5.0391 5.0391 5.0391h10.18l6.0977 30.727c1.5352 7.7305 2.3125 15.648 2.3125 23.531z"/>
  <path d="m326.7 492.26h146.59c2.7852 0 5.0391-2.2539 5.0391-5.0391v-48.805c0-2.7812-2.2539-5.0391-5.0391-5.0391h-146.59c-2.7852 0-5.0391 2.2539-5.0391 5.0391v48.805c0.003907 2.7812 2.2578 5.0391 5.0391 5.0391zm5.0391-48.809h136.51v38.73h-136.51z"/>
  <path d="m326.7 409.11h146.59c2.7852 0 5.0391-2.2539 5.0391-5.0391 0-2.7812-2.2539-5.0391-5.0391-5.0391h-146.59c-2.7852 0-5.0391 2.2539-5.0391 5.0391 0.003907 2.7812 2.2578 5.0391 5.0391 5.0391z"/>
  <path d="m326.7 375.94h146.59c2.7852 0 5.0391-2.2539 5.0391-5.0391 0-2.7812-2.2539-5.0391-5.0391-5.0391h-146.59c-2.7852 0-5.0391 2.2539-5.0391 5.0391 0.003907 2.7812 2.2578 5.0391 5.0391 5.0391z"/>
 </g>
</svg>