<?xml version="1.0" encoding="UTF-8"?>
<!-- The Best Svg Icon site in the world: iconSvg.co, Visit us! https://iconsvg.co -->
<svg fill="#000000" width="800px" height="800px" version="1.1" viewBox="144 144 512 512" xmlns="http://www.w3.org/2000/svg">
 <g>
  <path d="m571.61 374.49h-49.438v-17.949c0-6.6133-5.3516-11.652-11.652-11.652h-17.949l-6.6133-51.012h24.562c6.6133 0 11.652-5.3516 11.652-11.652 0-6.2969-5.3516-11.652-11.652-11.652h-27.395l-7.8711-61.715c-0.62891-5.9844-5.668-10.391-11.652-10.391l-127.21 0.007812c-5.9844 0-11.02 4.4102-11.652 10.391l-7.8711 61.715h-27.395c-6.6133 0-11.652 5.3516-11.652 11.652 0 6.2969 5.3516 11.652 11.652 11.652h24.562l-6.6133 51.012h-17.949c-6.6133 0-11.652 5.3516-11.652 11.652v17.949l-49.434-0.007812c-9.7617 0-17.633 7.8711-17.633 17.633v191.76c0 9.7617 7.8711 17.633 17.633 17.633l55.105 0.003907c9.7617 0 17.633-7.8711 17.633-17.633v-51.324h197.75v51.324c0 9.7617 7.8711 17.633 17.633 17.633h55.418c9.7617 0 17.633-7.8711 17.633-17.633l0.003906-191.77c-0.31641-9.7617-8.1875-17.633-17.949-17.633zm-268.59 63.922c0 7.5586-5.9844 13.539-13.539 13.539-7.5586 0-13.539-5.9844-13.539-13.539 0-7.5586 5.9844-13.539 13.539-13.539 7.2422 0 13.539 6.2969 13.539 13.539zm-1.8906 35.266c14.801-5.0391 25.191-18.895 25.191-34.953 0-16.059-10.707-30.23-25.191-34.953v-34.953h197.75v34.953c-14.801 5.0391-25.191 18.895-25.191 34.953 0 16.059 10.707 30.23 25.191 34.953v35.895l-197.75 0.003906zm45.66-251.9h106.75l15.742 122.8-138.23-0.003906zm150.2 216.64c0-7.5586 5.9844-13.539 13.539-13.539 7.5586 0 13.539 5.9844 13.539 13.539 0 7.5586-5.9844 13.539-13.539 13.539-7.5547 0-13.539-5.9805-13.539-13.539zm-219.16 139.81h-43.77v-180.11h43.453v5.3516c-14.801 5.0391-25.191 18.895-25.191 34.953 0 16.059 10.707 30.23 25.191 34.953v47.547l0.003907 57.309zm288.12 0h-43.453v-104.54c14.801-5.0391 25.191-18.895 25.191-34.953 0-16.059-10.707-30.23-25.191-34.953v-5.3516h43.453z"/>
  <path d="m372.29 395.91c0-6.6133-5.3516-11.652-11.652-11.652-6.2969 0-11.652 5.3516-11.652 11.652l0.003906 85.961c0 6.6133 5.3516 11.652 11.652 11.652 6.2969 0 11.652-5.3516 11.652-11.652z"/>
  <path d="m411.65 395.91c0-6.6133-5.3516-11.652-11.652-11.652-6.2969 0-11.652 5.3516-11.652 11.652l0.003906 85.961c0 6.6133 5.3516 11.652 11.652 11.652 6.2969 0 11.652-5.3516 11.652-11.652z"/>
  <path d="m451.01 395.91c0-6.6133-5.3516-11.652-11.652-11.652-6.2969 0-11.652 5.3516-11.652 11.652l0.003906 85.961c0 6.6133 5.3516 11.652 11.652 11.652 6.2969 0 11.652-5.3516 11.652-11.652z"/>
 </g>
</svg>