<?xml version="1.0" encoding="UTF-8"?>
<!-- The Best Svg Icon site in the world: iconSvg.co, Visit us! https://iconsvg.co -->
<svg width="800px" height="800px" version="1.1" viewBox="144 144 512 512" xmlns="http://www.w3.org/2000/svg">
 <defs>
  <clipPath id="a">
   <path d="m166 148.09h468v503.81h-468z"/>
  </clipPath>
 </defs>
 <g clip-path="url(#a)">
  <path d="m632.77 423.61-103.44-196.17c-0.89453-1.6211-2.1992-2.9766-3.7773-3.9375l-120.13-73.918c-3.3516-1.9727-7.5117-1.9727-10.863 0l-120.12 73.918c-1.582 0.96094-2.8828 2.3164-3.7812 3.9375l-103.44 196.17c-1.6016 3.207-1.4375 7.0156 0.43359 10.074 1.875 3.0586 5.1914 4.9336 8.7773 4.9609h20.625v191.13c0.019531 5.8203 2.3242 11.402 6.418 15.539 4.0938 4.1367 9.6445 6.5 15.465 6.582h358.57c5.8828 0.023437 11.527-2.3008 15.691-6.4492 4.168-4.1523 6.5078-9.7891 6.5078-15.672v-191.13h23.617c3.6289 0.054687 7.0195-1.7891 8.9492-4.8594 1.9297-3.0742 2.1172-6.9297 0.49609-10.176zm-138.31 207.59h-188.93v-191.84h188.93zm94.859-213.25c-5.707 0.042969-10.312 4.6836-10.312 10.391v201.45c0 0.39062-0.16016 0.76562-0.44141 1.0312-0.28516 0.26953-0.66406 0.41016-1.0547 0.38672h-62.977v-202.39c0.023438-2.7383-1.0586-5.375-2.9961-7.3125-1.9375-1.9414-4.5742-3.0195-7.3164-3h-208.77c-5.6953 0-10.312 4.6172-10.312 10.312v202.39h-66.203c-0.39062 0.023437-0.76953-0.11719-1.0508-0.38672-0.28516-0.26562-0.44531-0.64062-0.44531-1.0312v-201.45c0-5.707-4.6016-10.348-10.312-10.391h-13.539l94.465-178.3 111.94-69.035 112.33 69.039 94.07 178.3z"/>
 </g>
 <path d="m444.71 235.24h-89.426c-5.8789 0-11.52 2.3398-15.668 6.5039-4.1523 4.168-6.4727 9.8125-6.4531 15.695v96.039c0 5.8633 2.332 11.492 6.4805 15.641 4.1484 4.1484 9.7734 6.4766 15.641 6.4766h89.426c5.8672 0 11.492-2.3281 15.641-6.4766 4.1484-4.1484 6.4805-9.7773 6.4805-15.641v-96.039c0.019531-5.8828-2.3008-11.527-6.4492-15.695-4.1523-4.1641-9.7891-6.5039-15.672-6.5039zm1.4961 118.08v-0.003906c-0.039062 0.80859-0.6875 1.457-1.4961 1.4961h-89.426c-0.80859-0.039062-1.457-0.6875-1.4961-1.4961v-95.879c0-0.82812 0.67188-1.4961 1.4961-1.4961h89.426c0.82812 0 1.4961 0.66797 1.4961 1.4961z"/>
</svg>