<?xml version="1.0" encoding="UTF-8"?>
<!-- The Best Svg Icon site in the world: iconSvg.co, Visit us! https://iconsvg.co -->
<svg width="800px" height="800px" version="1.1" viewBox="144 144 512 512" xmlns="http://www.w3.org/2000/svg">
 <defs>
  <clipPath id="a">
   <path d="m198 148.09h404v503.81h-404z"/>
  </clipPath>
 </defs>
 <g clip-path="url(#a)">
  <path d="m593.1 317.89h-51.875v-28.105c-0.25391-4.4531-3.9609-7.9219-8.4219-7.8711h-86.594c-2.2891 0.007812-4.4766 0.94531-6.0625 2.5977-1.5469 1.6914-2.3672 3.9258-2.2812 6.2188v1.9688c-0.019531 8.7109-3 17.152-8.4492 23.949-5.4492 6.793-13.047 11.531-21.543 13.441v-32.984c32.59-6.6914 43.531-50.934 46.68-68.879h21.254c4.3164-0.41797 7.6094-4.0469 7.6094-8.3828 0-4.3359-3.293-7.9648-7.6094-8.3828h-9.4453v-2.4414c0.47266-33.613-29.52-60.93-66.359-60.93s-66.832 27.316-66.832 60.93v2.4414h-9.4492c-4.3164 0.41797-7.6094 4.0469-7.6094 8.3828 0 4.3359 3.293 7.9648 7.6094 8.3828h21.176c3.1484 17.949 14.168 62.188 46.68 68.879v32.672c-8.5273-1.9336-16.148-6.7109-21.598-13.551-5.4531-6.8398-8.4141-15.332-8.3945-24.078v-1.7305c0.085938-2.293-0.73438-4.5273-2.2812-6.2227-1.5586-1.4609-3.6133-2.2773-5.7461-2.2812h-86.594c-4.3672 0.074219-7.9414 3.5078-8.1875 7.8711v27.945h-51.875c-4.6094 0-8.3438 3.7383-8.3438 8.3477 0 4.6055 3.7344 8.3438 8.3438 8.3438h51.875v48.805c0 2.543 1.1602 4.9492 3.1484 6.5352 1.9531 1.6758 4.5977 2.293 7.0859 1.6523l63.527-14.09-48.805 163.58c-1.0195 3.5859 0.41797 7.4141 3.5391 9.4492 1.4961 0.94531 37.391 23.617 102.89 23.617h1.4961v69.59-0.003906c0 4.6094 3.7383 8.3438 8.3477 8.3438 4.6055 0 8.3438-3.7344 8.3438-8.3438v-69.59h1.4961c65.496 0 101.39-22.672 102.89-23.617v0.003907c3.1211-2.0352 4.5586-5.8633 3.543-9.4492l-48.805-163.42 63.527 14.09h-0.003907c2.4922 0.64062 5.1367 0.023437 7.0859-1.6523 1.9922-1.582 3.1484-3.9883 3.1484-6.5352v-48.805h51.875c4.6094 0 8.3477-3.7344 8.3477-8.3438s-3.7383-8.3438-8.3477-8.3438zm-243.16-106.43v-2.4414c0-24.324 22.434-44.16 50.066-44.16 27.629 0 50.066 19.836 50.066 44.16v2.4414zm12.203 16.766h75.809c-3.543 17.32-13.617 52.742-37.941 52.98-24.328 0.23437-34.406-35.66-37.871-52.98zm162.32 144.77-67.305-14.957h-0.003906c-2.8672-0.59766-5.8438 0.32422-7.8711 2.4414-2.0586 2.125-2.8359 5.1797-2.0469 8.0312l50.934 170.59c-27.684 12.695-57.879 18.965-88.324 18.34h-9.7617c-33.609 2.0859-67.223-4.0469-97.93-17.867l50.617-171.06c0.76953-2.7773 0.058594-5.75-1.8867-7.875-2.0391-2.1016-5.0039-3.0195-7.875-2.4375l-67.305 14.957v-74.785h69.195c1.9531 18.184 12.801 34.215 28.957 42.789 16.152 8.5742 35.512 8.5742 51.664 0 16.156-8.5742 27.004-24.605 28.957-42.789h69.668z"/>
 </g>
</svg>