<?xml version="1.0" encoding="UTF-8"?>
<!-- The Best Svg Icon site in the world: iconSvg.co, Visit us! https://iconsvg.co -->
<svg width="800px" height="800px" version="1.1" viewBox="144 144 512 512" xmlns="http://www.w3.org/2000/svg">
 <defs>
  <clipPath id="a">
   <path d="m148.09 195h503.81v410h-503.81z"/>
  </clipPath>
 </defs>
 <g clip-path="url(#a)">
  <path d="m644.03 195.32h-33.824c-11.652 0-21.469 8.3516-23.316 19.852l-10.762 66.742h-420.16c-2.8086 0-5.4141 1.5039-6.8164 3.9453-1.4102 2.4492-1.4023 5.4414 0.007812 7.8789l123.61 212.88c2.6992 4.6523 6.2344 8.582 10.328 11.668l-29.742 8.5898c-8.6641-19.086-27.871-32.422-50.156-32.422-30.379 0-55.105 24.727-55.105 55.105s24.727 55.105 55.105 55.105c30.379 0 55.105-24.727 55.105-55.105 0-2.5664-0.23438-5.0781-0.58203-7.5586l168.46-48.672 40.383 95c4.2188 9.9258 13.914 16.336 24.691 16.336 14.793 0 26.82-12.027 26.82-26.82v-111.06l22.371-6.4648c14.562-4.1953 25.52-16.578 27.938-31.543l34.047-211.1c0.61719-3.832 3.8906-6.6172 7.7734-6.6172h33.824c4.3516 0 7.8711-3.5195 7.8711-7.8711 0-4.3555-3.5195-7.875-7.8711-7.875zm-401.47 354.24c0 21.703-17.656 39.359-39.359 39.359s-39.359-17.656-39.359-39.359 17.656-39.359 39.359-39.359c15.098 0 28.078 8.6367 34.684 21.145l-36.863 10.652c-4.1797 1.2031-6.5898 5.5742-5.3828 9.7461 0.99609 3.4531 4.1367 5.6875 7.5625 5.6875 0.72266 0 1.457-0.10156 2.1797-0.30859l36.863-10.652c0.085937 1.043 0.31641 2.0352 0.31641 3.0898zm259.78 28.285c0 6.1094-4.9688 11.074-11.078 11.074-4.4492 0-8.4531-2.6523-10.203-6.7461l-39.637-93.234 60.918-17.602zm50.504-151.57c-1.4492 8.9805-8.0312 16.406-16.758 18.918l-222.72 64.348c-10.43 3.0078-21.516-1.4336-26.977-10.824l-116.74-201.06h403.95z"/>
 </g>
</svg>