<?xml version="1.0" encoding="UTF-8"?>
<!-- The Best Svg Icon site in the world: iconSvg.co, Visit us! https://iconsvg.co -->
<svg fill="#000000" width="800px" height="800px" version="1.1" viewBox="144 144 512 512" xmlns="http://www.w3.org/2000/svg">
 <path d="m603.21 334.46c2.9453-41.645-13.48-63.754-39.016-83.961-3.0391-2.4023-6.8398-3.4648-10.711-3.0039-3.9062 0.47656-7.3867 2.4492-9.7969 5.5664l-50.512 65.312c-8.6328 11.168-22.219 17.523-36.328 17.211l-9.9922-0.27734c-21.043-0.57812-41.645-4.7812-61.23-12.484l-13.789-5.4258c-17.691-6.957-30.691-22.195-34.773-40.77l-1.2422-5.6445c-1.2852-5.8633-1.8672-11.965-2.3047-17.684-1.3672-17.793-9.9492-33.441-22.625-43.875 3.9141-4.875 6.3008-11.203 6.3008-18.129 0-15.34-11.625-27.816-25.91-27.816-3.0195 0-6.0117 0.57422-8.8398 1.6836-4.8672-6.0352-11.887-9.5234-19.508-9.5234-10.309 0-19.375 6.4297-23.523 16.168-1.582-0.32031-3.1914-0.48047-4.8281-0.48047-14.285 0-25.91 12.477-25.91 27.816 0 11.168 6.1758 20.793 15.039 25.215-2.9414 4.6328-5.3008 9.6953-6.9922 15.098-13.551 4.7422-23.934 16.027-26.859 30.387l-1.6562 8.1016c-0.39453 1.9492 0.39062 3.9492 2.0117 5.1055 0.875 0.62109 1.8984 0.9375 2.9258 0.9375 0.87891 0 1.7656-0.23047 2.5547-0.69531 0.12891-0.078125 8.3633-4.7969 20.5-6.4727 2.0156 7.0234 5.2031 13.676 9.4883 19.625l11.266 43.625c4.2812 16.582 7.25 33.473 9.9219 49.352 4.418 26.27 16.031 50.457 34.52 71.879 17.637 20.438 39.703 35.781 64.449 45.238l3.5117 17.031c1.8438 8.9297 9.8047 15.41 18.918 15.41h3.3516v42.047h-41.457c-2.7812 0-5.0391 2.2539-5.0391 5.0391 0 2.7852 2.2539 5.0391 5.0391 5.0391h39.129c-2.7695 3.6797-8.5117 8.1367-20.16 8.1367-0.03125 0-0.082031-0.003906-0.09375 0-2.7773 0-5.0312 2.25-5.0391 5.0273-0.003906 2.8203 2.293 4.9688 5.1289 5.0469 22.273 0 30.977-13.711 32.465-20.969 0.070313-0.33594 0.10156-0.67578 0.10156-1.0117v-48.355h3.1523c9.1641 0 17.129-6.5234 18.938-15.508l1.1445-5.6953 4.3789 0.26562 3.3906 17.098c1.8516 9.3438 9.9102 16.121 19.164 16.121h3.4922v64.793h-41.457c-2.7812 0-5.0391 2.2539-5.0391 5.0391s2.2539 5.0391 5.0391 5.0391h39.125c-2.7695 3.6797-8.5117 8.1367-20.16 8.1367-0.035157 0-0.054688-0.003907-0.09375 0-2.7812 0-5.0312 2.25-5.0391 5.0273-0.003906 2.8203 2.2695 5.0742 5.125 5.0469 22.277 0 30.98-13.711 32.469-20.969 0.070313-0.33594 0.10156-0.67578 0.10156-1.0117l0.011718-71.102h3.293c9.3047 0 17.371-6.8242 19.184-16.227l3.6836-19.078c49.758-10.098 84.441-43.809 103.15-100.27 24.227-21.484 36.719-41.008 37.133-58.035 0.25781-10.68-4.2383-18.305-8.668-23.195zm-37.617 76.801c-18.031 55.496-50.473 86.711-99.184 95.422-2.0508 0.36719-3.6641 1.957-4.0586 4.0039l-4.3281 22.434c-0.90625 4.668-4.8125 8.0586-9.293 8.0586h-16.859c-4.457 0-8.3633-3.3672-9.2852-8.0039l-4.1445-20.91c-0.44141-2.25-2.3477-3.9102-4.6328-4.0508l-17.766-1.0781c-42.043-2.5547-80.047-21.172-107.02-52.422-17.266-20.008-28.102-42.539-32.207-66.969-2.7109-16.098-5.7227-33.23-10.102-50.199l-11.508-44.562c-0.16406-0.63281-0.44922-1.2266-0.83984-1.75-7.4492-9.9961-11.191-22.477-10.539-35.129 1.4531-28.098 23.684-50.027 50.105-50.027 0.82031 0 1.6445 0.023438 2.4688 0.0625 24.828 1.2852 45.059 21.891 47.066 47.934 0.46484 6.082 1.0938 12.602 2.5117 19.074l1.2422 5.6445c4.8047 21.855 20.102 39.793 40.926 47.984l13.789 5.4258c20.68 8.1328 42.434 12.566 64.648 13.18l9.9922 0.27734c17.324 0.55469 33.977-7.418 44.574-21.121l50.504-65.312c0.75391-0.96484 1.8359-1.582 3.0469-1.7305 1.1523-0.14453 2.3203 0.17578 3.2422 0.90234 3.4727 2.7461 6.7148 5.5156 9.7539 8.3398-0.36719 3.0898-2.4922 16.02-12.836 24.805-2.1211 1.8047-2.3828 4.9805-0.57422 7.1016 0.99219 1.1719 2.4102 1.7773 3.8359 1.7773 1.1562 0 2.3164-0.39453 3.2617-1.1992 8.7031-7.3945 12.809-16.891 14.742-23.719 3.5859 4.2188 6.6914 8.6758 9.2305 13.523 0.16406 3.3555 0.21484 19.703-13.566 32.051-2.0781 1.8555-2.25 5.0391-0.39453 7.1133 1 1.1094 2.3711 1.6758 3.7539 1.6758 1.1992 0 2.4023-0.42188 3.3594-1.2852 6.9766-6.25 11.098-13.324 13.535-19.828 1.4062 7.7148 1.7891 16.367 0.99609 26.293-0.28906 1.3359-4.7188 20.551-20.242 28.734-2.4609 1.3008-3.4062 4.3438-2.1055 6.8086 0.90625 1.7109 2.6523 2.6875 4.4609 2.6875 0.79297 0 1.5938-0.1875 2.3477-0.58203 12.023-6.3398 18.648-17.434 22.109-25.605 1.4922 3.1641 2.2812 6.5938 2.1914 10.316-0.34375 14.141-12.359 31.988-34.738 51.621-0.6875 0.60156-1.1914 1.3672-1.4727 2.2344zm-171.68 110.22c-0.86328 4.3008-4.6758 7.418-9.0586 7.418h-16.582c-4.3633 0-8.168-3.1016-9.0508-7.3711l-2.3125-11.219c12.137 3.668 24.816 5.9883 37.875 6.8281zm-179.73-254.56c-5.5 0.8125-10.324 2.125-14.117 3.4688 2.0273-7.918 7.1719-14.434 14.07-18.562-0.13672 1.25-0.3125 2.4844-0.37891 3.7539-0.19531 3.8086-0.039063 7.6016 0.42578 11.34zm26.367-84.203c1.3867 0.63672 2.9805 0.60938 4.3477-0.070312 1.3633-0.67969 2.3438-1.9414 2.6719-3.4297 1.7461-7.9453 8.0625-13.5 15.355-13.5 5.4805 0 10.5 3.1367 13.426 8.3867 0.67578 1.2148 1.8242 2.0977 3.1719 2.4336 1.3477 0.33984 2.7734 0.10547 3.9453-0.64062 2.3867-1.5273 5.0898-2.3359 7.8086-2.3359 8.7305 0 15.832 7.957 15.832 17.738 0 4.8125-1.7305 9.168-4.5156 12.367-7.7031-4.4102-16.418-7.1094-25.672-7.5898-18.379-0.91797-35.254 6.9102-46.949 19.949-6.4727-2.2266-11.227-8.9102-11.227-16.883 0-9.7812 7.1016-17.738 15.832-17.738 2.0664 0 4.0742 0.44141 5.9727 1.3125zm22.363 59.602c-0.24609 4.7891-4.332 8.4727-9.1211 8.2266-4.7891-0.24609-8.4727-4.332-8.2266-9.1211 0.24609-4.7891 4.332-8.4727 9.1211-8.2266 4.793 0.24609 8.4727 4.332 8.2266 9.1211zm250.73 159.53c1.3672 4.7539 0.46094 9.7578-2.4844 13.727l-10.602 14.293c-13.953 18.812-36.461 29.664-59.484 29.664-2.2773 0-4.5586-0.19531-6.8398-0.41016-10.25 5.0664-21.637 7.7812-33.148 7.7812-5.8164 0-11.664-0.6875-17.414-2.1211-51.746-12.887-76.379-51.777-77.402-53.426-1.4648-2.3633-0.74219-5.4609 1.6172-6.9336 2.3633-1.4609 5.4648-0.74219 6.9414 1.6133 0.23047 0.36719 23.637 37.102 71.277 48.961 9.8164 2.4375 19.949 2.3477 29.555 0.11719-13.895-4.4062-26.977-11.062-38.969-19.902-2.2383-1.6523-2.7148-4.8086-1.0625-7.0469 1.6445-2.2383 4.8008-2.7227 7.0469-1.0625 13.199 9.7383 27.809 16.645 43.418 20.527 24.621 6.1289 51.293-3.4258 66.375-23.766l10.602-14.293c1.0586-1.4258 1.3828-3.2266 0.89062-4.9336-0.49219-1.707-1.7227-3.0586-3.375-3.7031l-53.695-20.996c-2.5938-1.0117-3.8711-3.9336-2.8594-6.5273 1.0117-2.5898 3.9258-3.8711 6.5273-2.8555l53.691 20.992c4.6016 1.793 8.0312 5.5508 9.3945 10.301z"/>
</svg>