<?xml version="1.0" encoding="UTF-8"?>
<!-- The Best Svg Icon site in the world: iconSvg.co, Visit us! https://iconsvg.co -->
<svg fill="#000000" width="800px" height="800px" version="1.1" viewBox="144 144 512 512" xmlns="http://www.w3.org/2000/svg">
 <g>
  <path d="m203.51 383.22c-2.7812 0-5.0391 2.2539-5.0391 5.0391 0 2.7852 2.2539 5.0391 5.0391 5.0391h392.97c2.7812 0 5.0391-2.2539 5.0391-5.0391 0-2.7852-2.2539-5.0391-5.0391-5.0391h-34.496v-38.43c1.1016 0.066406 2.3125 0.11719 3.6914 0.11719 7.7539 0 19.215-1.4727 26.797-9.0547 12.125-12.121 8.6211-34.176 8.4648-35.109-0.35156-2.125-2.0156-3.7891-4.1445-4.1445-0.92578-0.15234-22.625-3.5859-34.812 8.1992v-10.039-0.011719c4.9336-4.082 16.734-15.301 16.734-29.164 0-17.152-18.07-30.262-18.84-30.812-1.75-1.25-4.1094-1.25-5.8594 0-0.76953 0.55078-18.84 13.664-18.84 30.812 0 13.863 11.801 25.082 16.734 29.164v0.011719 36.359c-12.168-11.883-33.969-8.4297-34.898-8.2773-2.125 0.35547-3.7891 2.0156-4.1445 4.1445-0.15625 0.93359-3.6562 22.984 8.4688 35.113 7.5781 7.5781 19.039 9.0469 26.793 9.0469 1.418 0 2.6523-0.054688 3.7773-0.125v12.199h-94.602v-47.555c1.125 0.070312 2.3555 0.125 3.7734 0.125 7.7539 0 19.219-1.4727 26.801-9.0547 12.125-12.129 8.6211-34.18 8.4648-35.109-0.35156-2.125-2.0156-3.7891-4.1445-4.1445-0.92578-0.15625-22.727-3.6055-34.895 8.2734v-36.367c4.9336-4.0859 16.734-15.301 16.734-29.164 0-17.152-18.07-30.262-18.84-30.812-1.75-1.25-4.1094-1.25-5.8594 0-0.76953 0.55078-18.84 13.664-18.84 30.812 0 13.863 11.801 25.078 16.734 29.164v10.059c-12.184-11.793-33.887-8.3633-34.812-8.207-2.125 0.35547-3.7891 2.0156-4.1445 4.1445-0.15625 0.93359-3.6562 22.984 8.4688 35.109 7.582 7.582 19.043 9.0547 26.797 9.0547 1.3828 0 2.5898-0.050781 3.6914-0.11719v19.852c-12.184-11.789-33.891-8.3633-34.812-8.207-2.125 0.35547-3.7891 2.0156-4.1445 4.1445-0.15625 0.93359-3.6562 22.984 8.4688 35.113 7.5781 7.5781 19.039 9.0469 26.793 9.0469 1.3828 0 2.5898-0.050781 3.6953-0.11719v13.957h-94.441v-38.43c1.1016 0.066406 2.3125 0.11719 3.6914 0.11719 7.7539 0 19.215-1.4727 26.797-9.0547 12.125-12.121 8.6211-34.176 8.4688-35.109-0.35156-2.125-2.0156-3.7891-4.1445-4.1445-0.92188-0.15234-22.625-3.5859-34.812 8.1992v-10.039-0.011719c4.9336-4.082 16.734-15.301 16.734-29.164 0-17.152-18.07-30.262-18.84-30.812-1.75-1.25-4.1094-1.25-5.8594 0-0.76953 0.55078-18.84 13.664-18.84 30.812 0 13.863 11.801 25.082 16.73 29.164v0.011719 36.355c-12.168-11.879-33.969-8.4297-34.895-8.2773-2.125 0.35547-3.7891 2.0156-4.1445 4.1445-0.15625 0.93359-3.6602 22.984 8.4688 35.113 7.5781 7.5781 19.039 9.0469 26.793 9.0469 1.418 0 2.6523-0.054687 3.7773-0.125v12.199l-94.605 0.003906v-47.555c1.125 0.070312 2.3555 0.125 3.7773 0.125 7.7539 0 19.219-1.4727 26.797-9.0547 12.125-12.129 8.6211-34.176 8.4688-35.109-0.35156-2.125-2.0156-3.7891-4.1445-4.1445-0.92188-0.15625-22.73-3.6055-34.898 8.2734v-36.367c4.9336-4.0859 16.734-15.301 16.734-29.164 0-17.152-18.07-30.262-18.84-30.812-1.75-1.25-4.1094-1.25-5.8594 0-0.76953 0.55078-18.84 13.664-18.84 30.812 0 13.863 11.801 25.078 16.734 29.164v10.059c-12.184-11.793-33.883-8.3633-34.812-8.207-2.125 0.35547-3.7891 2.0156-4.1445 4.1445-0.15625 0.93359-3.6602 22.984 8.4648 35.109 7.582 7.582 19.043 9.0547 26.797 9.0547 1.3828 0 2.5898-0.050781 3.6914-0.11719v19.852c-12.18-11.789-33.887-8.3672-34.812-8.207-2.1211 0.35547-3.7891 2.0156-4.1445 4.1445-0.15625 0.93359-3.6602 22.984 8.4648 35.113 7.5781 7.5781 19.039 9.0469 26.793 9.0469 1.3828 0 2.5898-0.050781 3.6953-0.11719v13.957zm365.3-71.031c6.043-6.0352 16.832-6.332 22.543-6.0156 0.3125 5.7266-0.007813 16.562-6.0039 22.559-6.0469 6.0469-16.84 6.3477-22.559 6.0156-0.32422-5.7109-0.027344-16.512 6.0195-22.559zm-17.793 48.785c-5.7266 0.27734-16.562-0.011718-22.559-6.0039-6.043-6.043-6.3477-16.832-6.0195-22.547 5.7109-0.29688 16.562 0.011719 22.559 6.0078 6.0391 6.043 6.3477 16.828 6.0195 22.543zm-5.7656-95.387c0-8.5469 7.4102-16.383 11.684-20.195 4.2695 3.8281 11.703 11.715 11.703 20.195 0 8.5469-7.4102 16.383-11.684 20.195-4.2656-3.8281-11.703-11.715-11.703-20.195zm-81.035 37.484c6.043-6.0352 16.84-6.3203 22.543-6.0156 0.3125 5.7266-0.007813 16.562-6.0039 22.559-6.043 6.0469-16.824 6.3438-22.543 6.0234-0.3125-5.7305 0.007812-16.57 6.0039-22.566zm-17.793-3.6953c-5.7305 0.28516-16.562-0.015625-22.559-6.0078-6.043-6.043-6.3477-16.828-6.0195-22.543 5.7109-0.30469 16.562 0.011719 22.559 6.0078 6.043 6.043 6.3477 16.828 6.0195 22.543zm0 59.832c-5.7305 0.28125-16.562-0.003907-22.559-6.0039-6.0469-6.0469-6.3477-16.848-6.0195-22.559 5.7305-0.32813 16.516-0.023438 22.559 6.0156 6.0391 6.0469 6.3477 16.832 6.0195 22.547zm-5.8477-128.98c0-8.5469 7.4102-16.383 11.684-20.195 4.2695 3.8281 11.703 11.715 11.703 20.195 0 8.5469-7.4102 16.383-11.684 20.195-4.2695-3.8242-11.703-11.711-11.703-20.195zm-80.957 81.965c6.043-6.0352 16.832-6.3281 22.543-6.0156 0.30859 5.7266-0.011718 16.562-6.0039 22.559-6.0469 6.0469-16.836 6.3477-22.559 6.0156-0.32422-5.7109-0.027343-16.512 6.0195-22.559zm-17.793 48.785c-5.7344 0.27734-16.559-0.015624-22.555-6.0039-6.043-6.043-6.3477-16.832-6.0195-22.547 5.7227-0.29688 16.562 0.011719 22.559 6.0078 6.043 6.043 6.3438 16.828 6.0156 22.543zm-5.7617-95.387c0-8.5469 7.4102-16.383 11.684-20.195 4.2695 3.8281 11.703 11.715 11.703 20.195 0 8.5469-7.4102 16.383-11.684 20.195-4.2656-3.8281-11.703-11.715-11.703-20.195zm-81.039 37.484c6.043-6.043 16.84-6.3516 22.559-6.0117 0.32812 5.7109 0.023437 16.508-6.0195 22.555-6.0469 6.043-16.836 6.3516-22.559 6.0156-0.32812-5.7109-0.027343-16.512 6.0195-22.559zm-17.793-3.6953c-5.7227 0.28516-16.562-0.015625-22.559-6.0078-6.043-6.043-6.3438-16.828-6.0156-22.543 5.7188-0.30078 16.555 0.015625 22.555 6.0078 6.043 6.043 6.3477 16.828 6.0195 22.543zm0 59.832c-5.7383 0.28125-16.562-0.003907-22.559-6.0039-6.043-6.0469-6.3438-16.848-6.0156-22.559 5.7188-0.33984 16.508-0.03125 22.555 6.0156 6.043 6.0469 6.3477 16.832 6.0195 22.547zm-5.8516-128.98c0-8.5469 7.4102-16.383 11.684-20.195 4.2695 3.8281 11.703 11.715 11.703 20.195 0 8.5469-7.4102 16.383-11.684 20.195-4.2656-3.8242-11.703-11.711-11.703-20.195z"/>
  <path d="m203.51 601.52h392.97c2.7812 0 5.0391-2.2539 5.0391-5.0391s-2.2539-5.0391-5.0391-5.0391h-34.496v-38.43c1.1016 0.066406 2.3125 0.11719 3.6914 0.11719 7.7539 0 19.215-1.4727 26.797-9.0547 12.125-12.121 8.6211-34.176 8.4648-35.109-0.35156-2.125-2.0156-3.7891-4.1445-4.1445-0.92969-0.15625-22.633-3.5859-34.812 8.207v-10.047-0.011719c4.9336-4.082 16.734-15.301 16.734-29.164 0-17.152-18.07-30.262-18.84-30.812-1.75-1.25-4.1094-1.25-5.8594 0-0.76953 0.55078-18.84 13.664-18.84 30.812 0 13.863 11.801 25.082 16.734 29.164v0.011719 36.359c-12.164-11.875-33.969-8.4297-34.898-8.2734-2.125 0.35547-3.7891 2.0156-4.1445 4.1445-0.15625 0.93359-3.6562 22.98 8.4688 35.109 7.582 7.582 19.043 9.0547 26.797 9.0547 1.418 0 2.6523-0.054687 3.7773-0.125l-0.003906 12.191h-94.602v-47.555c1.125 0.070313 2.3555 0.125 3.7773 0.125 7.7539 0 19.215-1.4727 26.797-9.0547 12.125-12.121 8.6211-34.176 8.4648-35.109-0.35156-2.125-2.0156-3.7891-4.1445-4.1445-0.92969-0.16016-22.73-3.6094-34.895 8.2773v-36.371c4.9336-4.0859 16.734-15.301 16.734-29.164 0-17.145-18.07-30.262-18.84-30.812-1.75-1.25-4.1094-1.25-5.8594 0-0.76953 0.55078-18.84 13.668-18.84 30.812 0 13.863 11.801 25.078 16.734 29.164v10.059c-12.184-11.781-33.891-8.3672-34.812-8.207-2.125 0.35547-3.7891 2.0156-4.1445 4.1445-0.15625 0.93359-3.6562 22.984 8.4688 35.113 7.5859 7.582 19.051 9.0547 26.809 9.0547 1.375 0 2.582-0.050782 3.6836-0.11719v19.848c-12.18-11.781-33.887-8.3516-34.812-8.1992-2.125 0.35547-3.7891 2.0156-4.1445 4.1445-0.15625 0.93359-3.6562 22.984 8.4688 35.109 7.582 7.582 19.043 9.0547 26.797 9.0547 1.3828 0 2.5898-0.050782 3.6914-0.11719l-0.007813 13.945h-94.438v-38.43c1.1016 0.066406 2.3125 0.11719 3.6914 0.11719 7.7539 0 19.215-1.4727 26.797-9.0547 12.125-12.121 8.6211-34.176 8.4688-35.109-0.35156-2.125-2.0156-3.7891-4.1445-4.1445-0.92578-0.16016-22.633-3.5859-34.812 8.207v-10.047-0.011719c4.9336-4.082 16.734-15.301 16.734-29.164 0-17.152-18.07-30.262-18.84-30.812-1.75-1.25-4.1094-1.25-5.8594 0-0.76953 0.55078-18.84 13.664-18.84 30.812 0 13.863 11.801 25.082 16.73 29.164v0.011719 36.355c-12.164-11.875-33.969-8.4297-34.895-8.2734-2.125 0.35547-3.7891 2.0156-4.1445 4.1445-0.15625 0.92969-3.6602 22.98 8.4688 35.109 7.582 7.582 19.043 9.0547 26.797 9.0547 1.418 0 2.6484-0.054688 3.7734-0.125l-0.003906 12.195h-94.602v-47.555c1.125 0.070313 2.3555 0.125 3.7773 0.125 7.7539 0 19.215-1.4727 26.797-9.0547 12.125-12.121 8.6211-34.176 8.4688-35.109-0.35156-2.125-2.0156-3.7891-4.1445-4.1445-0.92969-0.16016-22.73-3.6133-34.898 8.2773v-36.375c4.9336-4.0859 16.734-15.301 16.734-29.164 0-17.145-18.07-30.262-18.84-30.812-1.75-1.25-4.1094-1.25-5.8594 0-0.76953 0.55078-18.84 13.668-18.84 30.812 0 13.863 11.801 25.078 16.734 29.164v10.059c-12.18-11.789-33.887-8.3672-34.812-8.207-2.1211 0.35547-3.7891 2.0156-4.1445 4.1445-0.15625 0.93359-3.6602 22.984 8.4648 35.113 7.5859 7.582 19.051 9.0547 26.809 9.0547 1.375 0 2.582-0.050782 3.6836-0.11719v19.848c-12.18-11.793-33.887-8.3516-34.812-8.1992-2.125 0.35547-3.7891 2.0156-4.1445 4.1445-0.15625 0.93359-3.6602 22.984 8.4648 35.109 7.582 7.582 19.043 9.0547 26.797 9.0547 1.3828 0 2.5898-0.050781 3.6914-0.11719v13.949h-34.531c-2.7812 0-5.0391 2.2539-5.0391 5.0391 0.003906 2.7852 2.2578 5.0391 5.0391 5.0391zm365.3-81.102c6.043-6.043 16.82-6.332 22.543-6.0234 0.3125 5.7266-0.007813 16.562-6.0039 22.559-6.0469 6.0469-16.84 6.3477-22.559 6.0156-0.32422-5.7109-0.027344-16.504 6.0195-22.551zm-17.793 48.785c-5.7305 0.28125-16.562-0.015625-22.559-6.0078-6.0391-6.043-6.3477-16.828-6.0195-22.543 5.7188-0.29688 16.559 0.011719 22.559 6.0039 6.043 6.0391 6.3477 16.832 6.0195 22.547zm-5.7656-95.395c0-8.5469 7.4102-16.383 11.684-20.195 4.2695 3.8281 11.703 11.715 11.703 20.195 0 8.5469-7.4102 16.383-11.684 20.195-4.2656-3.8242-11.703-11.711-11.703-20.195zm-81.035 37.492c6.0391-6.043 16.828-6.3477 22.543-6.0234 0.3125 5.7266-0.007813 16.562-6.0039 22.559-6.043 6.043-16.824 6.3359-22.543 6.0234-0.3125-5.7266 0.007812-16.562 6.0039-22.559zm-17.793-3.6875c-5.7227 0.34766-16.512 0.023437-22.559-6.0156-6.0469-6.0469-6.3477-16.848-6.0195-22.559 5.7305-0.33594 16.516-0.023438 22.559 6.0156 6.0469 6.0469 6.3477 16.848 6.0195 22.559zm0 59.824c-5.7305 0.27734-16.562-0.015625-22.559-6.0078-6.043-6.043-6.3477-16.828-6.0195-22.543 5.7188-0.28906 16.562 0.011719 22.559 6.0039 6.043 6.0391 6.3477 16.828 6.0195 22.547zm-5.8477-128.99c0-8.5469 7.4219-16.395 11.695-20.207 4.2734 3.8125 11.695 11.66 11.695 20.207s-7.4102 16.383-11.684 20.195c-4.2734-3.8281-11.707-11.715-11.707-20.195zm-80.957 81.969c6.0391-6.043 16.828-6.332 22.543-6.0234 0.30859 5.7266-0.011718 16.562-6.0039 22.559-6.043 6.043-16.828 6.3281-22.543 6.0234-0.30859-5.7266 0.007812-16.562 6.0039-22.559zm-17.793 48.785c-5.7266 0.28125-16.559-0.015625-22.555-6.0078-6.043-6.043-6.3477-16.828-6.0195-22.543 5.7266-0.29688 16.562 0.011719 22.559 6.0039 6.043 6.0391 6.3438 16.832 6.0156 22.547zm-5.7617-95.395c0-8.5469 7.4102-16.383 11.684-20.195 4.2695 3.8281 11.703 11.715 11.703 20.195 0 8.5469-7.4102 16.383-11.684 20.195-4.2656-3.8242-11.703-11.711-11.703-20.195zm-81.039 37.492c6.043-6.043 16.816-6.3477 22.543-6.0234 0.30859 5.7266-0.011718 16.562-6.0039 22.559-6.043 6.043-16.828 6.3281-22.543 6.0234-0.30859-5.7266 0.007812-16.562 6.0039-22.559zm-17.793-3.6875c-5.7148 0.34766-16.512 0.023437-22.559-6.0156-6.043-6.0469-6.3438-16.848-6.0156-22.559 5.7188-0.33984 16.508-0.023438 22.555 6.0156 6.0469 6.0469 6.3477 16.848 6.0195 22.559zm0 59.824c-5.7227 0.27734-16.562-0.015625-22.559-6.0078-6.043-6.043-6.3438-16.828-6.0156-22.543 5.7227-0.28906 16.559 0.011719 22.555 6.0039 6.043 6.0391 6.3477 16.828 6.0195 22.547zm-5.8516-128.99c0-8.5469 7.4219-16.395 11.695-20.207 4.2734 3.8125 11.695 11.66 11.695 20.207s-7.4102 16.383-11.684 20.195c-4.2695-3.8281-11.707-11.715-11.707-20.195z"/>
 </g>
</svg>