<?xml version="1.0" encoding="UTF-8"?>
<!-- The Best Svg Icon site in the world: iconSvg.co, Visit us! https://iconsvg.co -->
<svg fill="#000000" width="800px" height="800px" version="1.1" viewBox="144 144 512 512" xmlns="http://www.w3.org/2000/svg">
 <g>
  <path d="m352.77 384.25h15.742v15.742h-15.742z"/>
  <path d="m588.93 384.25h15.742v15.742h-15.742z"/>
  <path d="m628.29 289.79h-41.613l11.352-13.73v0.003906c5.918-7.1719 8.5898-16.477 7.3828-25.695-0.054687-0.45703-0.23438-0.875-0.31641-1.3164l29.984-16.254-7.5-13.855-28.852 15.641c-0.44141-0.57422-0.83594-1.1875-1.3086-1.7305l23.371-32.953-12.836-9.1055-23.371 32.957c-1.4648-0.57812-2.9727-1.0586-4.5039-1.4297l8.1328-32.984-15.289-3.7617-9.0977 36.926c-8.4336 2.1602-15.688 7.5273-20.223 14.957l-0.078124 0.11719h-0.003907c0.27734-8.7422-2.8828-17.246-8.8008-23.688-0.30859-0.33203-0.69141-0.56641-1.0078-0.89062l15.07-30.598-14.172-6.9492-14.484 29.449c-0.69141-0.21094-1.3633-0.48828-2.0703-0.66016v-40.402h-15.719v40.402c-1.5312 0.375-3.0312 0.85547-4.4961 1.4375l-12.453-31.605-14.648 5.7695 13.949 35.426c-5.6367 6.6367-8.4609 15.207-7.875 23.891l3.7812 50.633h-25.145c0.035156-0.51562 0.24219-1.0039 0.58203-1.3906 4.4727-5.043 6.9453-11.547 6.9453-18.289 0-6.7383-2.4727-13.246-6.9453-18.285-0.62109-0.625-0.76172-1.5859-0.34766-2.3633 5.3398-5.8125 7.9414-13.629 7.1484-21.48-0.91797-6.9688-4.3789-13.355-9.7188-17.926-5.3359-4.5742-12.176-7.0156-19.203-6.8555-0.90625-0.007813-1.7695-0.40625-2.3594-1.0938-0.39453-0.42578-0.57812-1.0039-0.49609-1.5742 1.4531-8.6875-0.79297-17.582-6.1992-24.535-5.4023-6.9492-13.473-11.32-22.246-12.051-8.7734-0.73047-17.453 2.2461-23.934 8.2109-6.4805 5.9609-10.164 14.363-10.164 23.168-0.003907 1.3398 0.085937 2.6758 0.25781 4 0.18359 1.0781-0.10547 2.1836-0.78516 3.0391-0.58594 0.62891-1.4336 0.9375-2.2852 0.83594-6.9609-0.089844-13.711 2.3789-18.973 6.9375-5.2578 4.5586-8.6641 10.891-9.5625 17.797-0.79297 7.8516 1.8086 15.672 7.1484 21.488 0.41406 0.77734 0.27344 1.7383-0.34766 2.3633-4.4727 5.0391-6.9414 11.547-6.9414 18.285 0 6.7383 2.4688 13.246 6.9414 18.289 0.33594 0.39062 0.54297 0.875 0.58203 1.3906h-15.398c-4.3477 0-7.8711 3.5234-7.8711 7.8711v125.99c0 2.0898 0.83203 4.0898 2.3047 5.5664 1.4766 1.4766 3.4805 2.3086 5.5664 2.3086h78.723v-15.746h-70.848v-47.23h283.39v47.23h-78.719v15.742l86.594 0.003906c2.0859 0 4.0898-0.83203 5.5664-2.3086 1.4727-1.4766 2.3047-3.4766 2.3047-5.5664v-125.95c0-2.0898-0.83203-4.0938-2.3047-5.5664-1.4766-1.4766-3.4805-2.3086-5.5664-2.3086zm-71.211-44.203v0.003906c2.5664-4.1719 6.75-7.0938 11.551-8.0703 4.8008-0.97656 9.793 0.078125 13.785 2.9141 3.9961 2.8359 6.6367 7.2031 7.2969 12.059 0.66016 4.8516-0.72266 9.7656-3.8164 13.562l-19.648 23.734h-35.848l4.7227-7.8711h22.316v-15.742h-12.789zm-63.031 12.715h20.098v-15.742h-21.258l-0.33984-4.5898h0.003906c-0.39453-4.9219 1.3047-9.7812 4.6836-13.383 3.4102-3.5117 8.0938-5.4922 12.988-5.4922 4.8945 0 9.5781 1.9805 12.988 5.4922 3.3789 3.6016 5.0781 8.4609 4.6836 13.383l-2.1562 29.125-13.73 22.695h-15.633zm-138.31 19.68c-3.9609-4.4688-3.9609-11.195 0-15.664 2.9023-3.2227 4.5195-7.3984 4.5469-11.738 0.023438-4.3359-1.543-8.5312-4.4062-11.789-2.3086-2.4961-3.4219-5.8711-3.0547-9.25 1.0547-6.4023 6.7656-10.973 13.242-10.598 5.2578 0.039063 10.27-2.2227 13.719-6.1875 3.6836-4.2539 5.3594-9.8867 4.5977-15.461-0.085937-0.65234-0.125-1.3086-0.125-1.9688-0.019531-5.2305 2.5586-10.129 6.8828-13.07 4.3242-2.9453 9.8281-3.5508 14.688-1.6133 4.8594 1.9336 8.4414 6.1562 9.5547 11.27 0.42578 1.9609 0.47656 3.9844 0.15234 5.9648-0.85547 5.1484 0.60547 10.41 3.9883 14.383 3.6797 4.3242 9.1016 6.7734 14.777 6.6836 6.3438-0.24219 11.871 4.293 12.871 10.566 0.36719 3.375-0.74609 6.7461-3.0547 9.2383-2.8633 3.2617-4.4297 7.457-4.4023 11.797 0.027343 4.3359 1.6484 8.5117 4.5508 11.734 3.9648 4.4688 3.9648 11.195 0 15.664-2.8828 3.2617-4.4961 7.457-4.5391 11.809h-12.848l2.3047-2.3047-11.133-11.133-10.176 10.219v-17.098l21.309-21.309-11.133-11.133-10.176 10.18v-28.23h-15.746v28.23l-10.18-10.18-11.133 11.133 21.312 21.309v17.098l-10.18-10.18-11.133 11.133 2.3047 2.3047h-12.832c-0.046875-4.3555-1.6641-8.5469-4.5508-11.809zm-18.711 74.785v-47.23h283.39v47.23z"/>
  <path d="m352.77 321.28h15.742v15.742h-15.742z"/>
  <path d="m588.93 321.28h15.742v15.742h-15.742z"/>
  <path d="m195.32 636.16h78.723c8.3516 0 16.359-3.3203 22.266-9.2227 5.9023-5.9062 9.2227-13.914 9.2227-22.266v-144.06c0.011719-9.918-2.0703-19.723-6.1094-28.781l-25.379-57.117v-6.2031c2.0859 0 4.0898-0.83203 5.5664-2.3086 1.4766-1.4766 2.3047-3.4766 2.3047-5.5664v-23.613c0-4.1758-1.6602-8.1797-4.6094-11.133-2.9531-2.9531-6.957-4.6133-11.133-4.6133h-62.977c-4.1758 0-8.1797 1.6602-11.133 4.6133s-4.6133 6.957-4.6133 11.133v23.617-0.003906c0 2.0898 0.83203 4.0898 2.3047 5.5664 1.4766 1.4766 3.4805 2.3086 5.5664 2.3086v6.2031l-25.387 57.102c-4.0352 9.0625-6.1133 18.875-6.1016 28.797v144.06c0 8.3516 3.3203 16.359 9.2227 22.266 5.9062 5.9023 13.918 9.2227 22.266 9.2227zm94.465-31.488c0 4.1758-1.6562 8.1797-4.6094 11.133-2.9531 2.9531-6.957 4.6094-11.133 4.6094h-78.723c-4.1758 0-8.1797-1.6562-11.133-4.6094-2.9492-2.9531-4.6094-6.957-4.6094-11.133v-144.06c-0.019531-7.7109 1.5938-15.336 4.7227-22.379l5.9922-13.469c14.508-5.0117 30.246-5.1953 44.871-0.52734 14.09 4.832 29.191 5.957 43.844 3.2656l1.1016-0.21875 4.8633 10.949h0.003907c3.1641 7.0352 4.8047 14.664 4.8086 22.379zm-86.59-267.65h62.977v15.742h-62.977zm55.105 31.488v7.8711h-0.003907c0 1.1016 0.23047 2.1875 0.67969 3.1953l14.57 32.777v0.003906c-11.262 1.6094-22.746 0.53125-33.512-3.1523-13.441-4.2773-27.727-5.2148-41.613-2.7305l11.965-26.922h0.003906c0.44141-1 0.67188-2.0781 0.67578-3.1719v-7.8711z"/>
  <path d="m195.32 455.1h15.742v15.742h-15.742z"/>
  <path d="m195.32 486.59h15.742v78.719h-15.742z"/>
  <path d="m621.31 511.27c-9.3555-7.3477-21.586-9.9414-33.117-7.0234l-15.012 3.75v-37.148c0-6.2656-2.4883-12.27-6.918-16.699-4.4297-4.4297-10.434-6.918-16.699-6.918h-12.988c-7.6055-25.227-23.746-47.023-45.656-61.652-2.7695-1.8359-6.3906-1.7344-9.0547 0.25l-81.867 61.402h-55.105c-6.2617 0-12.27 2.4883-16.699 6.918-4.4297 4.4297-6.918 10.434-6.918 16.699v141.7c0 6.2617 2.4883 12.27 6.918 16.699 4.4297 4.4297 10.438 6.918 16.699 6.918h204.67c6.2656 0 12.27-2.4883 16.699-6.918 4.4297-4.4297 6.918-10.438 6.918-16.699v-37.148l15.012 3.7461c11.543 2.9297 23.789 0.35938 33.184-6.957 9.3984-7.3203 14.883-18.566 14.871-30.473-0.011719-11.91-5.5273-23.145-14.938-30.441zm-252.8 0.28516v-17.094h157.44v78.723h-157.44v-17.09c6.1797-2.1836 11.176-6.8359 13.793-12.848 2.6172-6.0078 2.6172-12.836 0-18.848-2.6172-6.0117-7.6133-10.664-13.793-12.844zm118.22-109.69c24.258 18.172 38.738 46.551 39.215 76.855h-141.7zm124.89 157.85c-5.5391 4.3438-12.781 5.8789-19.609 4.1562l-24.789-6.1953c-2.3516-0.58984-4.8438-0.0625-6.7539 1.4297-1.9141 1.4922-3.0312 3.7812-3.0312 6.207v47.23c0 2.0898-0.82812 4.0898-2.3047 5.5664-1.4766 1.4766-3.4766 2.3047-5.5664 2.3047h-204.67c-4.3477 0-7.8711-3.5234-7.8711-7.8711v-141.7c0-4.3477 3.5234-7.8711 7.8711-7.8711h34.109l-23.09 17.316c-0.16016 0.14844-0.3125 0.30859-0.45703 0.47266-0.24609 0.22266-0.48047 0.46094-0.69141 0.71484-0.41016 0.48438-0.76172 1.0117-1.0469 1.5742-0.60156 1.0508-0.92188 2.2383-0.92969 3.4492l-0.023437 0.085938v31.488c0 2.0898 0.83203 4.0898 2.3047 5.5664 1.4766 1.4766 3.4805 2.3047 5.5664 2.3047 4.3477 0 7.875 3.5273 7.875 7.875 0 4.3477-3.5273 7.8711-7.875 7.8711-4.3477 0-7.8711 3.5234-7.8711 7.8711v31.488c0 2.0898 0.83203 4.0898 2.3047 5.5664 1.4766 1.4766 3.4805 2.3047 5.5664 2.3047h173.19c2.0859 0 4.0898-0.82812 5.5664-2.3047 1.4766-1.4766 2.3047-3.4766 2.3047-5.5664v-100.68c-0.050781-5.832-0.54687-11.648-1.4883-17.402h9.3594c2.0898 0 4.0898 0.82813 5.5664 2.3047 1.4766 1.4766 2.3047 3.4766 2.3047 5.5664v47.23c0 2.4258 1.1172 4.7148 3.0312 6.207 1.9102 1.4922 4.4023 2.0195 6.7539 1.4297l24.789-6.1953c6.8438-1.7539 14.113-0.24609 19.688 4.0898s8.832 11.008 8.8164 18.07-3.3008 13.723-8.8945 18.035z"/>
  <path d="m588.93 533.82h15.742v15.742h-15.742z"/>
  <path d="m431.49 557.44c6.2617 0 12.27-2.4883 16.699-6.9141 4.4258-4.4297 6.9141-10.438 6.9141-16.699 0-6.2656-2.4883-12.273-6.9141-16.699-4.4297-4.4297-10.438-6.918-16.699-6.918-6.2656 0-12.273 2.4883-16.699 6.918-4.4297 4.4258-6.918 10.434-6.918 16.699 0 6.2617 2.4883 12.27 6.918 16.699 4.4258 4.4258 10.434 6.9141 16.699 6.9141zm0-31.488c3.1836 0 6.0508 1.918 7.2695 4.8594 1.2188 2.9453 0.54688 6.3281-1.7031 8.582-2.2539 2.25-5.6406 2.9219-8.582 1.707-2.9414-1.2188-4.8594-4.0898-4.8594-7.2734 0-4.3477 3.5273-7.875 7.875-7.875z"/>
  <path d="m470.85 510.21h15.742v15.742h-15.742z"/>
  <path d="m494.46 541.7h15.742v15.742h-15.742z"/>
  <path d="m218.94 258.3c0 11.43 4.1406 22.473 11.66 31.082 7.5195 8.6094 17.906 14.199 29.234 15.734 11.324 1.5312 22.824-1.0938 32.363-7.3906 9.5391-6.2969 16.469-15.84 19.508-26.859 3.0391-11.02 1.9766-22.766-2.9844-33.062-4.9609-10.297-13.488-18.445-24.004-22.934l17.668-13.246-9.4492-12.598-18.891 14.172v-23.617h-15.746v23.617l-18.891-14.172-9.4492 12.598 17.664 13.25 0.003906-0.003906c-8.5039 3.6406-15.754 9.6953-20.855 17.414-5.0977 7.7227-7.8203 16.766-7.832 26.016zm47.23-31.488h0.003906c8.3477 0 16.359 3.3203 22.266 9.2227 5.9023 5.9062 9.2227 13.914 9.2227 22.266 0 8.3516-3.3203 16.363-9.2227 22.266-5.9062 5.9062-13.918 9.2227-22.266 9.2227-8.3516 0-16.363-3.3164-22.266-9.2227-5.9062-5.9023-9.2227-13.914-9.2227-22.266 0-8.3516 3.3164-16.359 9.2227-22.266 5.9023-5.9023 13.914-9.2227 22.266-9.2227z"/>
 </g>
</svg>