<?xml version="1.0" encoding="UTF-8"?>
<!-- The Best Svg Icon site in the world: iconSvg.co, Visit us! https://iconsvg.co -->
<svg fill="#000000" width="800px" height="800px" version="1.1" viewBox="144 144 512 512" xmlns="http://www.w3.org/2000/svg">
 <g>
  <path d="m626.72 453.12c-0.59375-2.9688-1.5234-5.8633-2.7695-8.625-0.77344-1.6133-1.6289-3.1875-2.5664-4.707-0.35156-0.67187-0.44922-1.4766-0.80859-2.1445-2.375-4.3789-4.8086-8.7266-7.168-13.113-0.27344-0.64453-0.42969-1.332-0.46484-2.0312-0.375-2.8711-0.57812-5.7695-1.0938-8.6094-0.91016-5-2.1172-9.9414-2.9883-14.945-1.1484-6.5703-1.8438-13.227-3.2031-19.746-1.0586-6.2656-1.2539-12.648-0.57812-18.969 0.13672-0.55859 0.37891-1.0859 0.71484-1.5547-0.30469-0.77734-0.50781-1.5898-0.60547-2.4219 0.011719-3.4844 0.14062-6.9648 0.23047-10.449v0.003906c0.015625-0.28125 0.042969-0.55859 0.089843-0.83594 0.64063-4.4883 1.1797-8.9961 1.9727-13.461 0.46094-1.8086 1.0703-3.5742 1.8164-5.2852 0.34375-0.53906 0.53906-1.1562 0.56641-1.793-0.37891-0.33203-0.85156-0.53125-1.3516-0.57422-0.77344-2.3906-1.3789-4.6562-2.2383-6.8242-1.4609-3.6758-2.9492-7.3594-4.6719-10.914h-0.003906c-2.8203-6.6523-7.2812-12.477-12.965-16.93-4.6836-4.0703-9.875-7.5195-15.441-10.254-0.61719-0.23047-1.3047-0.16406-1.8711 0.17578-0.35547 0.54297-0.41016 1.2305-0.13672 1.8203 0.85156 1.2773 1.8359 2.4648 2.9297 3.543 2.2891 2.2656 4.6914 4.418 7.0078 6.6562 0.40234 0.35938 0.66016 0.85156 0.72656 1.3906-0.0625 4.9453-0.19922 9.8906-0.3125 14.746-0.23047-1.0039-0.46484-2.1875-0.77344-3.3555-0.28516-1.6016-0.74609-3.1641-1.375-4.6641-2.9219-5.5586-6.2539-10.918-8.9453-16.578-1.082-2.5273-3.6719-4.0703-6.4102-3.8242-2.4844 0.16016-4.9375 0.65234-7.2891 1.4609-3.3008 0.82812-6.7578 1.0078-10.102 1.6953-7.0312 1.8828-14.262 2.9297-21.539 3.1133-5.9844-0.1875-11.992 0.16016-17.984 0.42578-3.9805 0.17578-7.9453 0.64062-11.922 0.95312-1.7344 0.13672-3.4766 0.28906-5.2148 0.26562h0.003906c-0.6875-0.26172-1.3906-0.48438-2.1055-0.65625-1.8438 0.30859-3.6367 0.88672-5.4531 1.3594l0.050781-1.0898c-0.79687-0.42969-1.6602-0.72656-2.5547-0.87891-7.7656 0.007812-15.527 0.11719-23.289 0.19141-0.95703 0.007812-1.9648 0.24219-2.2227-1.2578v-0.003907c-0.42188-0.55078-1.0781-0.87109-1.7695-0.87109-3.4102 0.078124-6.8242 0.20703-10.223 0.48437-5.4883 0.44531-10.973 0.99609-16.453 1.5469-3.1758 0.78125-6.4492 1.0898-9.7148 0.91406-5.2656-0.60547-10.383-2.1562-15.098-4.5781-1-0.63281-2.0859-1.1133-3.2227-1.4258-4.9531-0.65625-9.9805-0.46875-14.867 0.55469-3.6289 0.57422-7.1992 1.4727-10.668 2.6875-2.8281 0.71094-5.6914 1.2656-8.5195 1.9648-1.6875 0.41797-3.3516 0.95312-5.0117 1.4844-5.1992 1.3398-10.309 3.0273-15.285 5.0469-5.9102 2.9727-11.629 6.3164-17.117 10.016-4.2383 2.4375-8.0742 5.5117-11.379 9.1133-3.4414 4.0977-7.1953 7.9375-10.922 11.789-1.9023 2.125-4.0234 4.043-6.3281 5.7227-3.4219 2.1797-6.4336 4.9375-8.9062 8.1523-1.1094 1.4883-2.7227 2.5938-3.9219 4.0273-0.28906 0.69531-0.40625 1.4492-0.35156 2.1992 0.63672 0.21094 1.3203 0.25 1.9805 0.10938 0.77344-0.78906 1.4531-1.6641 2.0234-2.6055 1.418-1.9258 2.8359-3.8477 4.3828-5.9492v-0.003906c0.23438 0.29297 0.4375 0.60547 0.60547 0.9375 1.3516 5.5586 2.6836 11.125 4.0352 16.684h0.003906c1.1445 3.6172 3.4062 6.7812 6.4609 9.0352 3.4375 2.1211 7.3047 3.4492 11.324 3.8828 3.2266 0.89062 6.6719 0.47266 9.5938-1.1641 0.62109-0.31641 1.2773-0.56641 1.957-0.73828 3.9336-0.69922 7.6328-2.3398 10.789-4.7891 2.2109-1.5742 5.1914-1.5039 7.3281 0.16797 0.85938 0.46875 1.7773 0.81641 2.7305 1.0312 0.31641-1.3711 0.035156-2.8125-0.78125-3.9609-0.8125-1.1484-2.0781-1.8984-3.4766-2.0547-2.0547 0.34766-4.0859 0.80859-6.0859 1.3789-0.83203 0.12891-1.6211 0.44922-2.3047 0.9375-2.8867 2.3047-6.1094 4.1523-9.5586 5.4844-2.9336 1.8945-6.6055 2.2461-9.8477 0.94531-1.1445-0.31641-2.3164-0.52734-3.4961-0.63672-1.7695-0.30469-3.4844-0.85937-5.0938-1.6523-4.4141-3.3984-7.3984-8.3203-8.375-13.805-1.2031-3.9414-1.8203-8.0391-1.8359-12.16-0.15234-1.7305 0.625-3.4141 2.043-4.418 3.0273-2.5664 5.8086-5.4297 8.6328-8.2266 3.5078-3.4727 6.7188-7.3008 10.508-10.434 4.125-3.4062 8.875-6.043 13.156-9.2734 7.0469-5.0977 14.953-8.8867 23.344-11.184 8.3281-2.4883 16.902-4.1602 25.789-6.2891 1.4492 3.4141 3.0195 6.8945 4.3945 10.449v-0.003906c0.88281 2.3281 1.6172 4.707 2.1914 7.1289 0.50391 1.4844 0.64453 3.0664 0.39844 4.6133-1.5 5.2148-3.2891 10.352-5.0703 15.484-0.56641 1.3438-1.2266 2.6484-1.9766 3.9023l-0.63672-0.085937c-0.61328-3.2773-1.2305-6.5508-1.8438-9.8281v-0.003906c-0.19141 0.32031-0.27734 0.69141-0.24219 1.0586 0.73047 6.9453 1.5078 13.887 2.2031 20.836l-0.003906 0.003906c0.57422 4.3633 0.91016 8.7539 1.0117 13.152-0.11719 2.6914-0.75391 5.3359-1.875 7.7812-1.0977 1.9375-2.4062 3.7422-3.9062 5.3867-2.9805 3.5156-7.8203 4.8281-12.168 3.3008-3.9961-1.6523-8.0508-3.168-12.016-4.8867-3.3398-1.4492-6.582-3.1094-10.176-4.8203 0.30859 1.5195-1.0195 2.8945 0.95703 3.7031 4.0625 1.6602 8.0664 3.4492 12.102 5.1719 1.6523 0.53906 3.2539 1.2227 4.7852 2.043 3.457 2.0586 7.5625 2.7461 11.504 1.9258 1.3906-0.074218 2.7188-0.61719 3.7695-1.5312 3.2656-3.8047 6.293-7.8047 9.0703-11.98 1.2812-2.082 1.9688-4.4766 1.9883-6.9258-0.003906-4.1719-0.76953-8.3398-1.1602-12.516v0.003907c-1.0352-3.1914-1.293-6.5859-0.74609-9.8945 1.9141-5.1367 4.0078-10.219 5.6211-15.449 1.1992-3.043 1.6914-6.3203 1.4492-9.5781-1.125-4.2969-2.6133-8.4922-4.4453-12.535-0.75781-2.1016-1.3672-4.2617-2.0625-6.4453 1.6523-0.19922 2.8242-0.33594 3.9961-0.48047 4.2539-0.99609 8.7188-0.47656 12.629 1.4727 3.7656 2.2617 8.5977 1.6758 12.238 4.4102 0.45703 0.19141 0.96875 0.21875 1.4453 0.070312 1.4141-0.27734 2.8086-0.63281 4.4922-1.0234 0.023437 0.79688 0 1.5938-0.070313 2.3906-0.5 3.4453-0.98047 6.8984-1.6133 10.32-0.30859 1.668-0.94922 3.2695-1.418 4.9062-0.37109 0.88672-0.58984 1.8281-0.64844 2.7852 0.17578 1.3008 0.49219 2.5781 0.94531 3.8125 1.4531 4.7188 2.9883 9.4141 4.3984 14.145 0.73047 2.4492 0.82422 2.5625 2.75 1.6172 4.082 2.0234 5.4102 6.5703 9.5547 8.6914v-0.003906c3.4102 2.2383 6.5312 4.8828 9.293 7.875 0.61719 0.46094 1.1094 1.0625 1.4414 1.7578 0.55469 1.6562 1.418 1.3633 2.5781 0.48437 1.8516 1.9258 3.6016 3.9453 5.2383 6.0547 2.9336 4.168 5.793 8.4102 8.3477 12.816v-0.003906c1.8867 1.7734 3.0938 4.1445 3.4219 6.7109 0.042968 0.49219 0.33594 0.92969 0.77734 1.1562 1.832 0.57422 3.207 2.1016 3.5898 3.9883 3.0234 5.1914 5.918 10.461 8.8164 15.723 0.15234 0.50391 0.22656 1.0312 0.21875 1.5586-0.027344 0.77344 0.13281 1.5391 0.47266 2.2344 1.2695 1.3594 2.668 2.5938 4.1758 3.6836 2.3086 1.6602 4.7344 3.1523 7.1289 4.6914 0.41406 0.23438 0.84766 0.42188 1.2969 0.56641 0.80078 0.30078 1.6211 0.55078 2.4102 0.87891 0.74609 0.3125 1.4492 0.73047 2.1992 1.043 4.5508 1.0898 9.293 1.0742 13.832-0.042969 3.6641-0.48438 7.2656-1.3398 10.758-2.5508 1.7773-0.50781 3.5117-1.1484 5.1914-1.918 0.47656-0.46875 0.83594-1.0352 1.0625-1.6602-3.4062 0.40234-6.7812 1.0469-10.102 1.9258-3.7305 1.4453-7.7773 1.8789-11.73 1.2539-1.3203-0.078126-2.6484 0.007812-3.9531 0.25-1.4766 0.40625-3.0273 0.46875-4.5312 0.1875-4.8438-2.4414-10.277-4.082-13.293-9.2617-3.0469-5.2344-6.2539-10.379-9.4805-15.508-3.9375-6.2617-7.9961-12.445-11.949-18.695h-0.003907c-1.582-3.0078-3.3633-5.9102-5.332-8.6797-4.8867-5.8125-10.105-11.344-15.289-16.898-0.98047-0.71484-2.0703-1.2656-3.2266-1.6328l0.1875 2.0547c-2.5898-2.5547-4.7695-4.6953-6.9258-6.8555v-0.003906c-0.25-0.30078-0.44141-0.64453-0.5625-1.0195-0.09375-0.58203-0.30469-1.1406-0.60938-1.6445-1.293-0.92188-2.5352-1.9141-3.7188-2.9688-1.2344-1.4727-2.3125-3.0703-3.2188-4.7656-0.09375-0.62109-0.03125-1.2578 0.18359-1.8477l-0.68359 1.0352c-0.38281-0.94141-0.70703-1.9062-0.96875-2.8867-0.83594-2.7227-1.3203-5.5391-1.4375-8.3828 0.30859-5.0547 1.375-10.059 2.0742-15.094 0.19531-1.4141 0.22656-2.8477 0.34766-4.4141 3.1758-0.50391 6.7422-1.0742 10.309-1.6406l-0.28125 0.5625c0.60547 0.78516 1.4023 1.3984 2.3203 1.7773 4.3789-0.25781 8.7305-1.0625 13.105-1.1953 9.7227-0.28906 19.457-0.28906 29.184-0.40625-3.3008 0.67969-6.6211 0.96094-9.918 1.4258v0.003906c-0.24219 0.058594-0.46875 0.17578-0.65234 0.33984 0.51562 0.03125 0.95312 0.17578 1.4453 0.24219 1.2695-0.24609 2.5586-0.375 3.8516-0.38281 1.7812 0.007812 3.5508 0.25 5.2656 0.71094 13.383-1.0039 26.629-1.9922 40.191-3.0078-1.0352 1.7578-0.61719 2.3672 0.79297 2.2109 4.0156-0.44141 8.0352-0.83984 12.031-1.4102 4.6172-0.66406 9.207-1.5234 13.82-2.2461 3.1758-0.5 6.3906-0.76562 9.5352-1.4023 3.2148-0.64844 6.3438-1.7148 9.5469-2.4297 4.2734-0.94922 7.168-0.61328 8.3359 4.0938l-2.5273-0.26562-0.72266 0.84766 0.007812-0.003906c3.9258 2.0078 6.7734 5.6406 7.7891 9.9336 0.89063 0.61719 1.6797 1.3711 2.3398 2.2305 0.67969 1.5977 1.2773 3.2344 1.7891 4.8945 1.3359 3.1367 2.5156 6.3359 3.5273 9.5898 0.47266 2.5586 0.70703 5.1562 0.70703 7.7578 0.28125 1.7852 0.35547 3.6016 0.21094 5.4062-0.75 4.3125-1.8516 8.5664-2.7422 12.855h0.003906c0 0.60156 0.10938 1.1992 0.32812 1.7617 0.5625-0.23047 1.0664-0.59375 1.4609-1.0586 0.68359-1.5938 1.1875-3.2617 1.5-4.9688 0.64844-4.3984 1.2461-8.8203 1.5742-13.25h0.003907c0.074218-2.4844 0-4.9727-0.21875-7.4531 2.1836 2.2617 4.5469 4.3438 7.0625 6.2266 1.9023 1.0898 3.2969 2.8867 3.8789 5 0.20312 1.7773 1.1523 3.3828 2.6055 4.4219 1.457 1.0391 3.2812 1.4141 5.0273 1.0352 2.0938-0.10156 2.4727 0.16016 2.1953 2.1719-0.55469 4.0625-1.1172 8.125-1.4961 12.207-0.26562 2.8477-0.22266 5.7188-0.32422 8.582l0.003906-0.003906c-0.67578 7.2227-0.86719 14.484-0.57422 21.73 0.63672 6.3828 1.4102 12.723 1.4492 19.145h0.003907c0.21484 0.8125 0.64062 1.5547 1.2305 2.1484 0.50781 0.42187 0.94141 0.92578 1.2812 1.4922 1.2188 6.4219 2.3398 12.863 3.4844 19.301-1.6211-2.3398-2.9844-4.8477-4.0625-7.4766-2.5117-6.4141-4.9102-12.867-7.1992-19.363l-0.003906-0.003906c-2.0352-5.0703-3.457-10.371-4.2422-15.777-0.21484-0.95312-0.30078-1.9297-0.25391-2.9023 0.50781-2.8633 1.4531-5.6641 1.7617-8.5391 0.60156-5.6211 1.1016-11.273 1.1445-16.918h-0.003906c-0.47266-1.707-1.5273-3.1953-2.9766-4.2109-0.94141-0.35156-1.9883-0.27344-2.8633 0.21484-0.58203 0.67969-0.99609 1.4883-1.2031 2.3594 0.97656 0.023437 1.3945 0.078125 1.8047 0.035156 0.79297-0.26953 1.6719-0.13672 2.3477 0.35938 0.67969 0.49609 1.0703 1.293 1.0508 2.1328 0.14062 3.6211-0.023438 7.25-0.48438 10.848-0.71484 3.6133-1.6172 7.1836-2.6992 10.703-1.168-3.8242-2.6992-9.0039-4.3672-14.141-0.47266-0.98438-1.0742-1.9023-1.7891-2.7305l-0.66406 0.097656c0.79297-2.4297 1.7656-4.793 2.9102-7.0742 1.1328-1.4648 2.4492-2.7812 3.9102-3.918 0.40234-0.39844 0.73047-0.87109 1.0938-1.3086h0.003906c-0.44531-0.45703-1-0.78906-1.6133-0.95703-1.0938 0.15625-2.0977 0.67969-2.8477 1.4883-1.8945 3.3906-3.5195 6.9336-5.1992 10.445-0.19141 0.38281-0.19531 0.83203-0.019531 1.2188 0.89453 1.4258 1.0117 3.207 0.32031 4.7383-0.64453 2.9922-0.95703 6.0469-0.92188 9.1055 0.11328 4.9141-0.28516 9.8242-1.1875 14.656-1.4141-1.1367-2.5625-2.0039-3.6445-2.9414v-0.003906c-0.94922-1.1055-2.4062-1.6367-3.8477-1.4062-1.4414 0.23047-2.6602 1.1914-3.2188 2.5391-2.2148 4.2695-5.6094 7.8125-9.7773 10.211-3.2461 1.6523-5.9453 4.1992-7.7852 7.3438-0.375 1.5195-0.86719 3.0117-1.4648 4.457-2.5312 3.7578-3.3555 8.4102-2.2656 12.809 1.6133 7.5703 4.7539 14.734 9.2266 21.051 1.1992 1.75 2.3594 3.5312 3.5391 5.2969l-0.015625-0.015625h-0.003906c0.011718 0.35156 0 0.70312-0.039063 1.0508-1.0781 6.4453-2.168 12.887-3.2617 19.332-0.55469 3.2305-1.1328 6.457-1.7344 9.6758-1.0039 5.3125-2.0117 10.625-3.0859 15.926-0.42188 2.1836-0.96875 4.3398-1.6328 6.4609-0.47266 1.4648-1.4141 1.7305-2.1289 0.43359-0.62109 0.85937-1.4375 1.5664-2.3789 2.0586-6.0742 1.4336-12.41 1.3906-18.465-0.12891-1.8242 1.9961-1.7734 2.7734 0.86719 3.5117 2.4297 0.47656 4.8906 0.76172 7.3594 0.85938-3.6562 0.85547-6.7656 1.582-10.273 2.4023 0.058594-2.4492 0.039063-4.5039 0.16797-6.5469 0.21484-3.4062 0.32031-6.8438 0.87109-10.203 0.37891-2.3047 1.8047-4.4453 2.1289-6.75 0.91797-6.5586 1.5078-13.164 2.2344-19.785 0.77734 0.54297 1.5469 2.2578 2.1328-0.082031 0.17188-0.36328 0.5-0.62891 0.89063-0.72266 2.6133-0.69531 5.2695-1.2188 7.9531-1.5742 1.5625-0.089844 2.918 1.0625 3.0859 2.6172 0.69531 3.0312 0.09375 6.2188-1.6602 8.7891-2.8086 4.0469-6.1016 7.7539-9.125 11.652-1.0742 1.3398-2.0078 2.7852-2.7773 4.3203 0.085938 0.75781 0.37109 1.4844 0.83203 2.0938 0.71484-0.28516 1.3711-0.69531 1.9414-1.2148 0.60156-0.80859 0.74609-1.957 1.3398-2.7773 1.8086-2.6445 3.7656-5.1875 5.8633-7.6094 3.2578-3.6875 5.3789-8.2383 6.1133-13.105 0.40625-3.4688-1.9727-6.6523-5.418-7.2383-2.6211 0.30469-5.2227 0.76562-7.7891 1.375-0.91797 0.17188-1.832 0.35547-3.0195 0.58203 0.17578-1.1406 0.26562-1.8906 0.41016-2.6328l0.003906 0.003907c0.71875-3.4141 0.70703-6.9453-0.03125-10.355-0.13281-0.73828-0.54297-1.3984-1.1445-1.8438-1.6875-0.85547-0.78906-1.5664-0.30859-2.6484 1.2891 2.6328 2.4492 4.9219 3.5312 7.2539 0.31641 0.67969 0.33594 1.4961 0.60547 2.2031v-0.003906c0.125 0.50391 0.44141 0.9375 0.87891 1.2148 0.86719 0.14844 1.7578 0.097657 2.6016-0.14844 0.28516-0.50391 0.39062-1.0938 0.29688-1.6641-0.39453-1.5859-0.51172-3.2305-0.34375-4.8555 0.96484-3.875 0.98828-7.9258 0.058594-11.809-1.1094-4.1602-5.2266-6.7695-9.4609-6.0039-0.62109 0.44141-1.1328 1.0117-1.5 1.6758 0.57812 0.29688 1.2031 0.48828 1.8438 0.55859 2.6289-0.42188 5.2422 0.81641 6.582 3.1172 0.41797 1.25 0.69531 2.5469 0.82422 3.8594 0.8125 3.1289 0.42187 6.4531-1.1016 9.3047-1.3516-3.0938-2.5156-6.2695-3.4727-9.5078 0.12109-0.69531 0.40625-1.3516 0.83203-1.9102-0.33594-0.62109-0.71875-1.2148-1.1406-1.7773-0.69531-0.84375-1.5039-1.5938-2.2656-2.3867-0.25 1.1992-0.30859 2.4336-0.17969 3.6523 0.57031 1.5586 0.16797 3.3047-1.0273 4.457-0.75-0.26562-1.5352-0.40234-2.332-0.40234-4.1406 0.83203-8.2539 1.7891-12.383 2.6797v-0.003906c-0.62109 0.12109-1.2461 0.1875-1.8789 0.19531-1.7109 0.47266-3.543-0.046875-4.75-1.3477-1.207-1.3047-1.582-3.1719-0.98047-4.8438-0.0625-0.58594-0.25-1.1562-0.55469-1.6641-0.55078 0.26953-1.0312 0.66797-1.4023 1.1602-0.28516 1.0078-0.48438 2.0391-0.59766 3.082l-3.5078 0.33984-0.19531 0.91797c1.043 0.78125 2.0859 1.5586 3.2227 2.4102l-0.14453 1.9648c-3.4414-0.95703-6.8203-1.9258-10.219-2.832-1.1875-0.36328-2.4102-0.59766-3.6445-0.70703-7.3164-0.375-14.652 0.03125-21.883 1.2188-2.9062 0.48047-5.7266 1.4961-8.5859 2.2695l-0.26562 0.30859c-0.089844 1.1367 0.33203 1.8047 1.5664 1.5586 2.2422-0.44531 4.4531-1.1016 6.7148-1.3867 4.543-0.57422 9.1055-1.0508 13.672-1.3867 3.1289-0.375 6.2891-0.40625 9.4219-0.09375 3.4531 0.75781 6.8555 1.7109 10.195 2.8594 1.4219 0.38672 1.4453 0.96094 0.97656 2.2656-1.9805 4.6172-0.75781 9.9805 3.0273 13.285 2.1641 1.5391 4.4297 2.9258 6.7891 4.1445 0.51562 0.19531 0.93359 0.58984 1.1562 1.0977 0.22266 0.50781 0.22656 1.0859 0.015624 1.5977-0.47266 3.4102-0.47266 6.8711 0 10.285 0.67969 2.2617 1.7734 4.3828 3.2266 6.2461 0.59766 0.95703 1.4102 1.7617 2.3789 2.3398 0.73828 0.32422 1.582 0.30469 2.3008-0.058594 0.49609-0.55078 0.85156-1.2109 1.0352-1.9297-0.62109-0.29688-1.2539-0.57031-1.8594-0.89844-0.56641-0.19922-1.0742-0.53125-1.4844-0.96875-3.5352-4.7852-4.4727-11.012-2.5-16.621 0.23438-0.52344 0.23438-1.1172 0.003906-1.6406-0.23047-0.51953-0.67188-0.92188-1.2148-1.1016-1.4141-0.75781-2.9141-1.3594-4.3125-2.1445-6.5234-3.6758-8.2812-6.6758-5.7461-14.176h0.003906c0.62109-1.0625 1.4375-2 2.3984-2.7695l0.55859 0.29297-0.66016-1.4766c0.72266-0.11719 1.457 0.10937 1.9883 0.60937 1.5938 1.082 3.4727 1.6562 5.3984 1.6523 0.40234 0.003906 0.78125-0.20312 0.99609-0.54297 0.57812-1.3945 2.0078-2.2422 3.5078-2.0742 3.4648-0.92188 7.0859-1.0898 10.617-0.48828-0.19531 2.7031-0.32812 5.4141-0.59375 8.1094-0.55469 5.5547-1.2109 11.098-1.7539 16.656-0.14453 1.4922 0.23047 3.0625-0.0625 4.5078h0.003906c-0.66797 4.2656-1.6875 8.4688-3.043 12.566-0.91797 4.4336-2.8711 8.582-5.6992 12.117-2.7695 2.7305-6.3164 4.5352-10.152 5.1719-4.9727 1.0156-10.141-0.09375-14.258-3.0625 0.058593-1.5898 0.20703-3.1719 0.44922-4.7422 1.168-5.625 2.4258-11.234 3.6914-16.844 1.4648-8.8398 2.0391-17.809 1.7109-26.766-0.19531-1.4297-0.83984-2.7578-1.8398-3.7891-0.85547-1.0469-1.918-0.61719-1.9492 0.75391 0.09375 1.0234 0.35937 2.0234 0.78516 2.957 0.27734 0.37891 0.51562 0.78906 0.71094 1.2188 0.078125 1.2109-0.066406 2.4375-0.03125 3.6562 0.066407 12.234-1.4922 24.422-4.6328 36.246-0.92578 3.5078-1.6719 7.0586-2.2305 10.641-0.5625 2.3438-0.0625 4.8164 1.3633 6.7578 0.67578 0.33203 1.3164 0.74219 1.9023 1.2109 0.16406 0.65625 0.59375 1.2109 1.1836 1.5273 0.59375 0.31641 1.293 0.37109 1.9258 0.14453 4.6055-0.074219 9.207-0.4375 13.816-0.54688v-0.003906c1.4219 0.10156 2.7734-0.62891 3.4688-1.8711 2.1641-3.6758 4.5625-7.2266 6.4961-11.016v-0.003906c3.9258-7.3984 6.5352-15.426 7.7109-23.719 0.28125-2.2031 0.65625-4.3984 0.8125-6.6055 0.11328-1.5938-0.26563-3.2344-0.0625-4.8086 0.55859-4.3711 1.3008-8.7227 1.9727-13.082v-0.003906c0.25 3.0547 0.20312 6.125-0.14844 9.1641-0.625 6.0273-1.2969 12.055-2.0781 18.066h0.003907c-0.25391 2.7656-0.79297 5.4961-1.6094 8.1484-2.1484 6.2734-2.9375 12.93-2.3164 19.531 0.38281 2.4883 1.0547 4.9258 1.9961 7.2617 1.2969-0.26562 2.6016-0.51953 3.9023-0.77734l0.015625-0.03125 0.054687 0.015625c5.9883-1.1875 12.016-2.2852 18.074-3.1836 1.1719-1.4062 2.3594-2.8047 3.457-4.2695h-0.003906c0.58984-0.87109 1.0742-1.8047 1.4414-2.7891 2.0508-4.1133 3.793-8.375 5.2109-12.746 1.5078-5.8516 2.1484-11.93 3.0977-17.918 0.52344-3.2969 0.89453-6.6172 1.375-9.9219 0.70312-4.8242 1.5312-9.6289 2.1328-14.465h0.003907c0.078125-3.4961 0.94922-6.9258 2.5469-10.039 0.76562-1.4844 1.3789-3.0391 1.832-4.6484 1.0195-4.6328 2.6133-9.1172 4.7461-13.355 0.26562-0.5625 0.42578-1.168 0.47656-1.7891 0.66406-3.1953 1.0898-6.4648 2.0273-9.5781 1.4258-4.7266 3.1953-9.3438 4.8555-14h-0.003906c0.16797-0.41016 0.44922-0.76562 0.80859-1.0234 1.4023-1.0391 2.2148-2.0742 0.875-3.832-0.44531-0.74609-0.59766-1.6289-0.42188-2.4766 1.5742-6.6133 2.0859-13.434 1.5195-20.207-0.046876-0.83984-0.035157-1.6875 0.042968-2.5273l0.66016-0.058594h-0.003906c1.0742 2.7227 1.9414 5.5273 2.5898 8.3828 0.47266 4.3438 1.5586 8.5977 3.2305 12.633 2.7812 6.0391 4.4766 12.574 6.7305 18.863 1.7773 4.9609 3.5781 9.9219 5.6094 14.785 1.2539 3 3.0586 5.7656 4.4336 8.7227 1.8242 3.918 3.3516 7.9727 5.2266 11.863 1.7734 3.6797 3.832 7.2266 5.7656 10.828l-0.78906-0.023438c-0.37109 1.7734-0.74219 3.5469-1.1094 5.3203-0.36328-2.0859-0.58203-4.1953-0.65625-6.3125-0.17188-0.72266-0.45312-1.4141-0.83594-2.0547-0.58594 0.57812-1.0625 1.2617-1.3945 2.0117-0.14844 1.1133-0.15625 2.2422-0.027344 3.3594 0.97656 2.8945 1.3125 5.9648 0.98047 9.0039-0.003906 0.20703 0.050782 0.41016 0.16016 0.58984 0.45703 1.3008 0.87891 2.6211 1.3984 3.8945v0.003907c0.30859 0.74219 0.71484 1.4375 1.2148 2.0664 0.44922 0 0.87891-0.1875 1.1875-0.51172 0.32812-0.70703 0.49219-1.4805 0.47656-2.2617-0.089843-1.7891-0.34766-3.5703-0.53906-5.3555l0.57422-0.046875c0.0625 0.32812 0.10156 0.66406 0.11719 0.99609-0.30469 2.4336 0.59766 4.8594 2.4219 6.4961 0.26953 0.37109 0.36719 0.83984 0.27734 1.2891-0.61328 3.9336-1.2383 7.8672-1.9414 11.785-0.54297 3.0312-1.207 6.043-1.8164 9.0664l-0.76172 0.027344-0.003906-0.003906c-2.5586-3.957-4.3203-8.3711-5.1914-13.004-0.66016-4.6719-1.0977-9.3711-1.6328-14.059l-0.43359-0.027344c-0.082031 0.92969-0.16797 1.8555-0.25 2.7852v0.003906c-1.9727-7.9883-0.71094-16.434 3.5117-23.492l-2.4102-1.0781c-0.34766 0.92578-0.76563 1.8281-1.0273 2.7773-0.61328 2.2109-1.1641 4.4375-1.7148 6.6641-1.7656 4.1836-2.2109 8.8086-1.2695 13.254 0.10156 0.45703 0.16406 0.92188 0.19531 1.3906 0.96875 5 1.7109 10.059 3.0117 14.969l0.003906 0.003906c0.99219 3.1172 2.2656 6.1367 3.8125 9.0195 0.84375 1.6758 1.8359 3.2773 2.9609 4.7812 0.41406 0.47656 1.0312 0.73438 1.6641 0.6875 0.625-0.50781 1.0781-1.1992 1.293-1.9766 0.31641-1.1719 0.23828-2.4492 0.53906-3.625 1.5312-6.0078 2.9922-12.035 4.7578-17.977h-0.003906c0.83984-3.7461 0.83984-7.6328 0.003906-11.379zm-27.66-128.3c-0.27734-0.375-0.64844-0.67187-1.0742-0.85937-0.65625-0.39844-1.1211-1.043-1.293-1.7891s-0.027344-1.5312 0.39062-2.1719c0.23047-0.29297 0.32422-0.67188 0.26172-1.0391-0.26953-0.29688-0.64453-0.47266-1.0469-0.48438-4.7578-0.17969-8.8242-3.4805-9.9727-8.1016-1.0664-2.9219-1.9688-5.9062-2.6953-8.9336-0.20703-2.2539-0.18359-4.5195 0.070313-6.7656l0.83594-0.26562c2.0156 3.2148 4.0273 6.4297 6.0391 9.6445v0.003906c0.22266 0.50781 0.5 0.99609 0.82812 1.4453 0.55859 0.48438 1.1562 0.92188 1.7852 1.3086 0.25781-0.73438 0.32812-1.5195 0.21094-2.2891-1.3867-2.8164-2.9961-5.5195-4.8086-8.0859-2.8555-3.7539-6.0664-7.2344-9.1289-10.828l0.1875-0.25391c4.4727 3.7695 9.1016 7.3711 13.348 11.379h-0.003906c1.75 1.9961 3.2266 4.2109 4.3945 6.5898 2.7773 4.6367 5.1094 9.5312 6.9609 14.609 1.0625 2.9258 1.4648 6.0469 1.1797 9.1445-3.9141 1.4336-4.6836 1.1445-6.4688-2.2578zm-103.54 177.3c-1.3438-1.0078-1.9922-2.6914-1.6758-4.3398 2.1875 0.1875 2.2578 0.35156 1.6758 4.3398zm33.996 0.53125 3.3711 1.4531c-3.1992 0.46484-3.918 0.17969-3.3711-1.4531zm26.293-14.43-0.65234-0.125c0.58203-3.1992 1.1562-6.4023 1.75-9.5977 0.19141-1.0273 0.47656-2.0391 0.64453-3.0664-0.22266-1.1367 0.42188-2.2656 1.5117-2.6562 0.26172-0.60938 0.38281-1.2734 0.35547-1.9375 0.60547-4.4805 1.2031-8.9609 1.8008-13.441l0.53125 0.13672h-0.003906c-0.90625 10.406-2.8945 20.695-5.9375 30.688zm24.941-101.07c-0.84375 2.4336-2.0391 4.75-2.8359 7.1992-1.2578 3.668-2.332 7.3984-3.2109 11.176-0.60156 3.7656-1.6836 7.4375-3.2227 10.926-1.125 2.7578-2.0508 5.5898-2.7656 8.4805-0.5625 1.9375-1.2734 3.8281-2.1289 5.6523-1.4609 3.1289-2.2305 6.5391-2.2578 9.9922-0.53516 5.0391-1.3359 10.051-2.4023 15.004-0.20312 0.17578-0.43359 0.31641-0.68359 0.41797 0.52344-3.5664 1.0156-6.8828 1.4883-10.203 0.24609-1.7188 0.5-3.4375 0.63672-5.1641l0.003907-0.003907c-0.16797-0.375-0.4375-0.69922-0.78125-0.93359 1.2695-1.5547 1.2227-3.8008-0.11328-5.2969-2.0469-2.7617-3.6602-5.8633-5.8594-8.4883-1.8164-2.9297-3.1758-6.1172-4.0273-9.457-1.4844-3.957-1.4688-8.3203 0.039062-12.266 0.33594-0.44141 0.80859-0.75391 1.3477-0.88672 0.80469-0.33984 1.6484-0.58203 2.4766-0.86719l-0.078125-0.57812-1.5-0.8125-0.003906 0.003906c3.5352-1.9727 7.3477-3.4062 11.309-4.2461 2.0742-0.042969 1.2461-1.6992 1.3164-3.2383-4.1953 0.99609-8.2383 2.5469-12.027 4.6055 0.39062-1.6797 1.3906-3.1602 2.8047-4.1484 3.7148-3.6719 9.0625-5.4297 11.844-10.16 0.59766-1.0195 1.2148-2.0273 1.7812-3.0625v-0.003906c0.35156-0.89453 1.1289-1.5547 2.0664-1.7578 0.94141-0.20312 1.9219 0.074219 2.6133 0.74609 0.83203 0.74219 1.7031 1.4414 2.6133 2.0898 1.8477 1.0625 2.5312 3.3867 1.5586 5.2812zm43.023 70.293-1.9336-10.605 0.63281-0.11328c0.72266 3.5078 1.4492 7.0156 2.1719 10.523z"/>
  <path d="m312.71 444.78c-3.6875-0.15234-7.3633 0.5-10.773 1.9102-3.4922 1.6367-7.3984 2.3711-11 3.8047-2.1992 1.0781-4.3203 2.3164-6.3398 3.7031l0.78516-2.457-0.44531-0.40625-9.1484 7.8203-0.74219-3.2188c-2.1953 1.5508-4.5781 2.8203-7.0859 3.7852-6.7617 1.7227-13.574 4.0977-20.852 1.4375-0.24609 2.1562-2.1641 3.7188-4.3242 3.5234-4.6523 0.91016-9.3672 1.4883-14.047 2.2656-1.0039 0.20703-1.9805 0.52734-2.9102 0.96484-1.1523 0.49609-2.2148 1.2227-3.3867 1.6445-4.0234 1.6523-8.1484 3.0508-12.348 4.1875-3.207 0.64062-6.3398 1.6016-9.3555 2.8633-1.7422 0.45703-3.5391 0.66016-5.3359 0.59766-2.3242 0.25391-4.6484 0.51562-6.9609 0.83203-3.4453 0.41016-6.8516-1.0156-8.9805-3.7539-3.4922-4.3164-5.7031-9.5195-6.3906-15.027-0.26953-1.5977-0.41406-3.2109-0.43359-4.832-0.078125-3.8125 2.3867-7.2148 6.0352-8.3242 2.8477-1.2656 5.5-2.9336 7.875-4.957 3.7383-3.6172 6.0664-8.4492 6.5625-13.629 0.30078-2.3438 0.48047-4.7031 0.53906-7.0625 0.027344-1.0117-0.46875-2.0273-0.53906-3.0508 0.046875-0.6875 0.18359-1.3672 0.41016-2.0156 0.80859 0.15234 1.5664 0.5 2.2109 1.0078 0.48828 0.91406 0.76562 1.9297 0.8125 2.9648 0.003906 0.97656 0.10156 1.9492 0.28125 2.9062 0.26172-2.0312 0.46094-4.0703 0.80078-6.0859 0.20312-3.4102 0.89062-6.7773 2.0508-9.9922 1.6094-3.1797 1.8633-6.6719 3.4453-9.7773 1.4219-3.582 3.8125-6.6953 6.9062-8.9922 1.2578-0.72266 2.6094-1.2656 4.0156-1.6172 2.5977-0.52734 5.0195-1.7031 7.0352-3.4219 2.332-2.207 5.4062-3.4648 8.6133-3.5234 0.42578-1.207 0.96484-2.3672 1.6133-3.4688 3.6758-5.7266 5.6641-12.375 5.7305-19.18-0.035156-0.96094 0.28516-1.8984 0.89453-2.6367 1.4844-0.28125 2.9727 0.45312 3.6523 1.8008 1.8672 3.4531 3.3633 7.0938 4.4688 10.863 0.33594 0.72656 0.8125 1.3867 1.4414 2.4414 2.3789-2.9297 4.0742-6.3477 4.9688-10.012 0.51562-3.2891 1.2773-6.543 2.0508-9.7852v-0.003906c0.21484-0.59375 0.70703-1.0469 1.3203-1.2109 1.0469 0.10156 2.0195 0.58203 2.7383 1.3477 1.0703 2.2461 1.8789 4.6094 2.418 7.0352 0.56641 2.6406 0.53906 5.4023 1.0273 8.0664 0.54688 2.9688 1.418 5.875 2.082 8.8242 0.20313 0.66016 0.18359 1.3633-0.046874 2.0117-0.34375 0.54688-0.9375 0.87891-1.582 0.89063-0.49609-0.41797-0.84766-0.98047-1-1.6094-0.28125-0.62891-0.45703-1.3047-0.63281-1.8242v-0.003906c-0.23047 0.75-0.66016 1.4258-1.2383 1.957-0.74609-0.085938-1.4609-0.35547-2.0742-0.78516l-6.9922-0.86328c-0.058594 0.25-0.058594 0.51172-0.003906 0.76172 3.2734 3.4414 5.7578 7.5547 7.2852 12.051 0.96094 2.9023 0.83594 6.0508-0.35547 8.8672-0.93359 2.1016-2.4531 3.8906-4.375 5.1562l-0.027344-1.2422c-0.30078 0.03125-0.58984 0.14844-0.83594 0.33203-1.2422 1.9297-3.7188 2.6562-5.8047 1.6992-6.543-0.48047-13.023 1.5547-18.117 5.6875-3.5391 2.4609-7.3906 4.4414-11.453 5.8867-3.25 0.79688-6.6875 0.027344-9.2891-2.0742-1.6406-1.0312-3.2383-2.1289-5.2656-3.4688-0.50781 2.4219-1.0664 4.4922-1.293 6.5938 0.28906 0.74609 0.87891 1.332 1.6289 1.6094 3.0898 1.375 6.3281 2.4414 9.332 3.9688v0.003906c2.4375 1.4414 3.6172 4.3242 2.8945 7.0625-0.14062 0.3125-0.23047 0.64453-0.26172 0.98438 0.44531 0.59375 0.61719 1.3477 0.46875 2.0742-0.14844 0.73047-0.60547 1.3555-1.25 1.7227-1.1641 0.80859-2.4219 1.4766-3.7461 1.9805-1.5039 0.36719-2.8008 1.3203-3.5977 2.6484-0.80078 1.3242-1.0352 2.9141-0.66016 4.418 0.73438 3.0117 1.5977 5.9922 2.4805 8.9609 0.5 2.3867-0.67187 4.8125-2.8555 5.9023-0.60938 0.15625-1.168 0.45703-1.6406 0.875-2.2617 2.1133-5.207 3.3438-8.2969 3.4766-0.32812-0.058593-0.65625-0.097656-0.98438-0.11719-5.1719 2.1055-7.9961-1.8242-11.309-4.418v-0.003906c-0.49609-0.48438-0.85156-1.0938-1.0352-1.7656-0.88672-2.5508-2.6055-2.8438-4.8594-1.1797h0.003906c-0.86328 0.53516-1.4727 1.3984-1.6875 2.3906-0.21484 0.99219-0.015625 2.0273 0.55078 2.8711 0.36719-0.54297 0.77734-1.0547 1.2266-1.5352 0.58203-0.60547 1.2734-1.0977 2.0352-1.4531 0.57422 0.039062 1.0859 0.37109 1.3555 0.87891-0.17969 0.64844-0.41406 1.2812-0.69922 1.8906-0.60547 2.3359-0.89453 4.7422-0.85547 7.1602 0.41016 2.8242 1.2812 5.5664 2.5781 8.1133 0.94922 1.1172 2.2148 1.9258 3.6289 2.3164 1.043 0.39844 2.1445 0.62891 3.2617 0.68359 0.75781 0.015626 1.5156-0.0625 2.2539-0.22656 1.4453-0.44531 2.957-0.64453 4.4688-0.59375 2.8359 0.34766 5.707-0.21875 8.1992-1.6172 1.9102-0.8125 3.918-1.3867 5.9727-1.7031 5.5312-0.67188 5.0078-1.0039 6.4062-6.3008 0.21484-0.98047 0.69141-1.8828 1.3828-2.6133 1.4375-1.4492 3.4141-2.2344 5.457-2.1562 2.0391 0.074219 3.957 1 5.2852 2.5508l-2.3633 0.34766c1.7812 2.8984 3.4922-0.32422 5.2695-0.011718 1.0273 1.0664 2.6523 1.2891 3.9297 0.53906 0.44922-0.30469 0.94531-0.53125 1.4727-0.66797 2.7344-0.44141 5.4805-0.78906 8.2148-1.2266 1.3789-0.21875 2.3984-0.65625 1.0469-2.2695v0.003906c-0.37109-0.51172-0.53125-1.1445-0.44531-1.7734 0.60938-3.5234 1.1641-7.0664 2.043-10.523 0.77344-3.0391 1.9102-5.9922 2.9805-8.9453 0.27344-0.625 0.74219-1.1484 1.3359-1.4844 3.3945-1.6797 7.2383-2.2227 10.965-1.543 3.7227 0.67969 7.1328 2.543 9.7148 5.3125 1.0586 1.1602 2.4609 2.0039 3.582 3.1172 0.23828 0.55469 0.42969 1.125 0.58203 1.7109 0.65234 0.98828 1.5859 1.8125 2.1289 2.8477 0.11719 0.67578 0.074218 1.375-0.12891 2.0312-0.72266 0.066406-1.4531-0.058594-2.1172-0.35547-1.2539-1.4102-2.4141-2.8984-3.4766-4.457-2.5117-3.7656-6.4297-6.3633-10.879-7.2031-2.4062-0.66797-4.9609-0.55469-7.3008 0.32031-1.3945 0.46094-2.4648 1.5898-2.8516 3.0117-0.82813 2.3594-1.4727 4.7812-1.9297 7.2383-0.38672 3.5625-0.24609 7.1797-0.33984 11.141 0.66797-0.22266 1.3477-0.40625 2.0352-0.55469 0.70313-0.23828 1.4609-0.28125 2.1875-0.12109 2.1719 1.0195 4.6641 1.1094 6.9023 0.25 2.6445-0.57031 5.2539-1.2852 7.8164-2.1406 1.9062-0.84375 3.6602-2 5.1836-3.4219 1.1797-1.6992 3.4453-2.2383 5.2656-1.2578 0.74609 0.13281 1.5156-0.042969 2.1289-0.48828 4.2031-2.3438 7.3633-6.1953 8.8438-10.773 1.0117-2.8008 2.2344-5.5195 3.6484-8.1406 0.41016-0.44922 0.91797-0.80078 1.4805-1.0312l0.63672 0.19922c-0.007812 0.92188-0.14062 1.8359-0.39062 2.7227-1.3359 3.0391-2.7539 6.043-4.2578 9.0039-1.0234 2.0117-2.2383 3.9219-3.3281 5.8086 2-0.70703 3.875-1.3828 5.7617-2.0312 2.5586-0.66406 5.0547-1.5352 7.4688-2.6133 3.7734-1.6523 7.8555-2.4766 11.973-2.4219 1.7148-0.14844 3.4062-0.52734 5.1211-0.6875 2.1914-0.20312 4.3906-0.28906 6.5898-0.42188l-0.027343-0.035157-0.003907 0.003907c-0.75391 0.76562-1.6367 1.3984-2.6055 1.8672-3.0703 0.83984-6.207 1.4219-9.3203 2.1016zm-64.496-47.691c1.3164-0.61328 3.5234-1.5 5.5859-2.6562 1.6992-0.99609 2.5781-2.957 2.1992-4.8906-0.83984-4.8398-3.0859-9.3281-6.457-12.898-1.082-1.2148-2.7812-1.6719-4.3281-1.1641-0.57812 0.11328-1.1719 0.13281-1.7539 0.058594-0.84375-0.35547-1.7422-0.55469-2.6602-0.57812-2.6914 0.90625-5.3359 1.9492-7.9219 3.125-0.39844 0.37891-0.57422 0.93359-0.46875 1.4727 0.66797 1.8438-0.23828 2.2383-1.8047 2.2969h0.003906c-3.8438-0.375-7.5469 1.5508-9.4414 4.9141-0.19141 0.28516-0.46484 0.50391-0.78906 0.625-0.96094 0.57422-2.0195 0.96875-3.125 1.1602-2.7578 0.29297-5.2188 1.8555-6.6562 4.2305-2.1133 2.5039-4.0781 5.1289-5.8906 7.8594-0.44922 0.85156-0.50391 1.8555-0.14453 2.7461 2.9609 4.4375 8.4297 6.4805 13.578 5.0664 2.3438-1.0352 4.6133-2.2383 6.7891-3.5898 1.707-1.0547 3.1445-2.5469 4.8359-3.6367v-0.003906c5.5625-3.2773 12.016-4.7266 18.449-4.1406zm-64.633 50.789c1.0625 1.043 1.9766 2.2305 2.7109 3.5273 0.39453 1.0625 1.1133 1.9766 2.0547 2.6055 1.7031 1.4766 4.0742 1.9023 6.1836 1.1094 3.0547-0.52344 5.9492-1.7578 8.4453-3.5977 0.66016-0.51562 1.0938-1.2656 1.2148-2.0977-0.65625-3.4648-1.5938-6.875-2.332-10.324-0.29688-0.89453-0.27734-1.8672 0.0625-2.7461 1.2422-1.7305 2.6211-3.3633 4.1133-4.8867 1.7578-1.8867 4.8867-2.0352 5.7852-5.2109 0.54688-1.0586 0.60547-2.2969 0.16797-3.4023-0.4375-1.1055-1.332-1.9648-2.4531-2.3633-2.8945-0.91016-5.9023-1.4531-9.1172-2.2188-0.23828 2.5508-0.34766 4.918-0.72266 7.2422-0.18359 1.082-0.67188 2.0898-1.4062 2.9062-0.89844-0.003907-1.7891-0.20703-2.5977-0.59375-1.2969 7.9961-5.6367 15.18-12.109 20.051zm41.129 17.441c-1.7969-1.2305-2.5352-3.3398-4.6914-2.2852h0.003906c-0.80078 0.44531-1.3672 1.2188-1.5508 2.1133-0.1875 0.89453 0.023438 1.8281 0.57813 2.5547z"/>
  <path d="m412.26 432.22c-0.26172-0.09375-0.53125-0.16797-0.80859-0.21094-5.4141-1.0195-10.289-4.6602-16.539-3.1133 0.24609-2.2266 0.45703-4.1797 0.65625-5.9727 0.67188 0.22266 1.3633 0.39062 2.0625 0.49609 0.25-0.28906 0.39063-0.66016 0.39844-1.043-0.078125-2.6445-0.19922-5.2891-0.33203-7.9336-0.10938-4.2422-1.3789-8.375-3.6758-11.941-2.2969-3.5703-5.5312-6.4375-9.3477-8.293-2.3867-1.293-4.9648-2.2305-7.3398-3.543l-0.003907 0.003906c-3.4375-1.8008-7.5195-1.8945-11.039-0.25391-1.9141 1.1289-3.918 2.0938-5.9883 2.8945-2.5273 0.91797-4.9023 2.1992-7.0586 3.8047-0.86719 0.44531-1.5977 1.1172-2.1172 1.9414-2.625 4.2773-3.6602 9.3398-2.9258 14.301 0.48828 1.9609 0.125 4.0312-1 5.707-1.125 1.6758-2.9102 2.7969-4.9062 3.082-2.3516 0.64062-4.7422 1.1172-7.1602 1.4258-0.90234 0.25-1.7891 0.5625-2.6484 0.93359l-0.72266-2.3867-0.71484 1.3086-0.97266-1.4805v-0.003907c-2.6172 4.1172-4.3438 8.7305-5.0742 13.551-0.039062 1.7891-0.24219 3.5742-0.37109 5.3594l-0.027343-0.035157c1.3789 2.1211 2.7617 4.2422 4.4336 6.8125-0.9375-0.21875-1.3438-0.33594-1.7539-0.41016-2.2188-0.38672-4.4336-0.77344-6.6562-1.1445-2.6406-0.4375-5.2852-0.85938-7.9297-1.2891l-0.003907 0.003907c-0.51953 0.48438-0.97656 1.0312-1.3594 1.6289 0.14062 0.48828 0.48828 0.89062 0.95312 1.0938 2.1602 0.48438 4.3438 0.91016 6.5391 1.2031 2.4062 0.32422 4.8398 0.44531 7.2539 0.74219h-0.003906c0.47266 0.089843 0.87109 0.39844 1.0742 0.82812-0.15234 2.6523 2.3711 2.0352 3.5938 2.9609 0.89062 0.52344 1.8359 0.94922 2.8164 1.2734 3.5664 2.2227 7.6133 3.5586 11.801 3.8906 3.543-0.11328 7.0977 0.14063 10.648 0.14844 2.1562 0.003906 4.3164-0.24219 6.4727-0.21094 2.3477 0.03125 2.6914 0.52734 2.3789 2.832v-0.003906c-0.0625 0.18359-0.070312 0.38281-0.019531 0.57031 1.3672 1.7188 1.5742 4.0898 0.52344 6.0234-1.7227 6.1055-3.875 12.094-5.9219 18.109-0.36328 1.0742-1.1172 2.0156-1.4766 3.0938-0.86328 2.5664-1.5781 5.1875-2.4102 7.7656v-0.003907c-0.41016 0.58594-0.72656 1.2305-0.94531 1.9102 0.18359 1.6836-0.35156 3.3711-1.4727 4.6406 0.32812 4.0781 0.9375 8.125 1.8242 12.117 0.12891 0.10156 0.28125 0.17969 0.44141 0.21875 2.9023 0.22266 5.8203 0.12109 8.7031-0.30469 1.8672-0.43359 3.7109-0.97266 5.5195-1.6133 0.69922-0.007812 1.3672-0.30859 1.8398-0.82422 0.46875-0.51953 0.70312-1.2109 0.64453-1.9102 0.035157-0.86719 0.48828-1.6602 1.2148-2.1328 1.5938-0.20312 2.7578-1.6016 2.668-3.207 0.089844-0.41016 0.31641-0.77734 0.64062-1.043 1.6562-1.7617 3.3828-3.4648 5.0078-5.2578h-0.003906c3.5312-3.582 6.8555-7.3594 9.9609-11.316 3.0391-4.2539 5.6641-8.793 7.8281-13.551 2.2695-4.9766 3.7734-10.301 5.5977-15.477l0.003906-0.003906c0.39844-1.5195 0.91797-3.0078 1.5547-4.4492 1.7656-3.6562 2.7734-7.6328 2.9648-11.688 0.41406-2.5898 0.98047-5.1523 1.6914-7.6797l2.3594 1.2188 1.4375-2.9844c-0.92578-0.39453-1.8477-0.79688-2.7773-1.1797zm-48.934 22.656-0.66797-1.6211-0.8125 0.63672 0.33984 1.6836c-3.6094-0.085937-7.1055-0.19141-10.598-0.23828-1.6719-0.023438-3.3477 0.13672-5.0195 0.085937v0.003907c-1.4609 0.074218-2.9258-0.085938-4.3359-0.47656-2.9688-1.1172-5.8164-2.5508-8.8359-3.9141l1.7773-2.0117c-1.2461-0.98828-2.375-1.8789-3.5-2.7734l0.10156-0.40625c0.69141 0.070313 1.3828 0.18359 2.0742 0.19531v0.003906c0.67969 0.12109 1.375 0.0625 2.0195-0.17188 0.56641-0.53516 1.0273-1.1641 1.3711-1.8633-0.57031-0.41016-1.2148-0.71094-1.8984-0.87891-2.1211 0.39063-4.293-0.35937-5.7188-1.9766 0.94141-0.21094 1.875-0.47266 2.7891-0.78125 0.66016-0.32031 1.2969-0.69531 1.9023-1.1133-0.55859-0.43359-1.1016-0.89453-1.6875-1.2891-0.21484-0.14453-0.58203-0.074218-0.80078-0.21875-1.0469-0.39844-1.9648-1.082-2.6484-1.9727-0.054688-0.62891 0.15625-1.2539 0.58203-1.7227s1.0312-0.73438 1.6641-0.73438c1.3867-0.35938 1.4102-1.6719 0.13672-2.4531v0.003906c-0.65625-0.3125-1.3438-0.55859-2.0469-0.73438 1.4453-1.9336 3.6172-3.1992 6.0117-3.5078 4.7969-0.58203 9.3516-2.4258 13.199-5.3438 1.5977-1.9531 2.2539-4.5078 1.793-6.9883 0.023438-1.0156-0.54688-2.043-0.55469-3.0664 0.09375-0.94141 0.29688-1.8672 0.60547-2.7578 0.97266 0.20313 1.9141 0.53906 2.793 1.0039 1.1953 0.86328 2.1953 1.8281 3.9023 0.066406-1.543-1.168-2.9961-2.2852-4.4648-3.3789-0.47266-0.23828-0.91406-0.53516-1.3203-0.875 0.37109-1.5156 0.9375-2.9805 1.6914-4.3477 0.71484-0.52734 1.5547-0.85937 2.4336-0.96875 0.070312 0.007813 0.13672 0.027344 0.19531 0.058594 0.96094 0.12109 1.9219 0.24219 2.8828 0.36328-0.35938-0.84766-0.71484-1.6953-1.2031-2.8516 1.3633-0.625 2.957-1.3477 4.543-2.0938v-0.003906c0.51172-0.21875 1-0.49609 1.4531-0.82031 3.8789-3.1211 9.3125-3.418 13.508-0.74219 3.2188 1.4688 6.3516 3.1094 9.3906 4.9141 5.0352 3.0312 8.2852 8.3125 8.7227 14.172 0.17578 0.89062 0.28125 1.7891 0.3125 2.6953-0.17188 1.6094-0.44531 3.2031-0.82031 4.7773-0.47266 2.082-1.1758 4.1211-1.5625 6.2188l-0.003906-0.003906c-0.60938 6.4922-3.2109 12.637-7.4414 17.598 0.66406-1.6875 1.2031-2.8516 1.5859-4.0664 0.75391-2.3945 1.375-4.832 2.1562-7.2188l0.003906 0.003906c0.41016-0.82812 0.91016-1.6016 1.4961-2.3164-0.015625-0.77344-0.10547-1.5391-0.26562-2.2969-0.26172-0.58594-0.61719-1.1289-1.0469-1.6094-0.51953 0.40625-0.96484 0.90234-1.3125 1.4609-0.32031 1.0078-0.5625 2.043-0.72656 3.0859l-0.32812-0.078125c0.12109-1.7188 0.29297-3.4375 0.33594-5.1602v0.003906c0.027343-0.69141-0.12109-1.375-0.43359-1.9922-0.375-0.33594-0.82812-0.57422-1.3203-0.69531-0.30859 0.44922-0.54297 0.94531-0.69141 1.4727-0.27344 2.7305-0.25 5.5117-0.76172 8.1953-0.51953 1.5977-1.2461 3.125-2.1602 4.5352l1.1562 0.027344c-1.4297 2.6133-2.6836 5.0625-4.1016 7.418-0.73438 1.0859-0.47656 2.5586 0.58594 3.3281 0.36719 0.0625 0.74609-0.042969 1.0273-0.29297 0.74219-0.66797 1.4062-1.418 2.2148-2.2539l-0.003906 0.003906c0.14844 0.25391 0.26953 0.52734 0.36328 0.80859-2.832 2.7305-4.9023 6.418-9.5391 6.7578-3.4609 0.25781-6.8906 0.96875-10.488 1.5zm43.047-5.6953c-2.2188 6.9219-5.3906 13.543-8.1641 20.285l0.003906 0.003906c-0.17188 0.21875-0.30078 0.46875-0.375 0.73828-0.027344 3.7227-1.4102 7.3086-3.8906 10.09-2.1641 3.6016-4.625 7.0156-7.3555 10.207 2.0625-3.5586 4.1211-7.1172 6.1836-10.676l-0.75391-0.51562h-0.003907c-0.60938 0.48047-1.168 1.0195-1.668 1.6094-2.125 3.043-4.2617 6.0859-6.207 9.2422-0.25 0.92188-0.29688 1.8867-0.125 2.8242l1.1562 0.96875-9.1133 6.3203c1.1562-2.543 2.4961-5.9961 4.2578-9.2227 2.2109-4.0469 4.7266-7.9258 7.1992-11.82 0.65234-1.0273 1.7812-1.7617 2.4141-2.7969 0.21094-0.73047 0.25781-1.5 0.14062-2.25-0.74609 0.19922-1.4375 0.55859-2.0273 1.0469-1.6797 2.3242-3.2344 4.7305-4.6562 7.2188-3.1523 5.6758-6.1367 11.441-9.2461 17.141-1.293 1.3594-2.0078 3.1758-1.9844 5.0547-0.51953 0.64062-1.1758 1.1523-1.918 1.5078l-0.41016-0.37109v-0.003906c0.49219-2.2305 1.1836-4.4102 2.0703-6.5156 3.1094-5.9336 6.4805-11.723 9.7578-17.57l-0.003906 0.003906c0.15234-0.14844 0.27734-0.3125 0.37891-0.49609 0.12109-0.87109 0.1875-1.7539 0.27344-2.6328-0.74609 0.32031-1.4219 0.78906-1.9805 1.3789-4.1562 7.293-8.2031 14.645-12.328 21.953v-0.003906c-0.10938 1.5508-1.0703 2.9141-2.4961 3.5312-2.6758 0.61719-5.4844 0.21484-7.875-1.1289-0.52734-0.50391-0.76562-1.2344-0.64062-1.9492 1.625-5.4062 3.3281-10.793 5.1055-16.152 0.96094-2.9102 2.3867-5.6953 3.0977-8.6562v-0.003906c1.8203-5.2109 2.8086-10.676 2.9258-16.195-0.10547-1.3867-0.20313-2.7734-0.31641-4.3086 2.3555-0.47656 4.6367-1.0352 6.9531-1.3828v0.003906c2.3203-0.46875 4.4688-1.5586 6.2109-3.1602 4.1289-3.5508 7.6758-7.7266 10.512-12.375 1.1914-2.2109 2.0273-4.5938 2.4844-7.0586 0.40625-1.4883 1.1484-1.4961 2.3164-1.1016 1.7812 0.60156 3.5781 1.1602 5.375 1.707 2.2422 0.68359 4.4922 1.3359 6.6562 1.9805l0.003906-0.003906c-0.24219 4.5625-0.88672 9.0938-1.9336 13.539z"/>
  <path d="m508.23 423.3c-1.9492-0.85547-3.8086-1.9258-5.793-2.6719-0.99609-0.39453-2.0938-0.45703-3.1289-0.18359-3.1602 1.082-6.207 2.5-9.3672 3.5898-1.1484 0.40625-2.3945 0.47266-3.582 0.19531-3.668-1.3164-7.4961-2.1328-11.379-2.4375-5.6094-0.32812-11.039 2.0352-14.621 6.3594-1.4648 1.6602-2.3477 3.7461-2.5234 5.9492 0.24219 2.4258-0.33984 4.8594-1.6562 6.9141-0.62109 0.92578-1.1445 1.9141-1.5586 2.9492-1.543 3.5625-3.0078 7.1602-4.5625 10.719-1.5977 3.1758-3.0312 6.4258-4.2969 9.75-1.1992 4.0664-2.707 8.0391-4.5039 11.879-1.707 3.4688-2.5469 7.3516-4.0742 10.926-1.5977 3.7422-3.6016 7.3047-5.3359 10.992-0.95312 2.0312-1.7148 4.1523-2.5664 6.2344l-0.60547-0.24219c0.09375-0.51562 0.22266-1.0312 0.37891-1.5352 1.3789-3.6484 2.8242-7.2734 4.1328-10.949v0.003907c0.24219-0.85156 0.24219-1.75 0-2.5977-0.41016-0.35938-0.92188-0.57031-1.4609-0.60938-0.86328 1.3594-1.5742 2.8125-2.1133 4.332-0.15625 1.7305-0.44531 3.4453-0.86328 5.1328-1.6641 3.543-3.625 6.9414-5.8633 10.152-0.97266 1.6836-2.7852 2.7031-4.7305 2.6641-1.668-0.16797-3.3359-0.30469-5-0.51562-2.5117-0.32031-5.0156-0.6875-7.6016-1.0469l0.003907-0.003906c0.14062-1.1875 0.35937-2.3633 0.65234-3.5234 2.2773-6.7305 4.6094-13.438 6.9219-20.156 0.65234-2.2031 1.418-4.3711 2.2891-6.4961 0.5625-1.6172 2.1016-2.6914 3.8164-2.6602 2.1055 0.14453 4.2227 0.13672 6.3281-0.019531 1.5234-0.30078 3.0117-0.74219 4.4492-1.3281l-0.19141-0.59375-2.3359 0.25c1.0039-0.85938 1.8516-1.5625 2.6758-2.293v0.003906c1.4297-1.4336 2.957-2.7695 4.5625-3.9961 1.4727-0.60938 2.4648-2.0117 2.5508-3.6016 0.089843-1.5898-0.74219-3.0898-2.1406-3.8555-1.3906-1.168-2.5938-2.5547-4.2188-4.1758v-0.003907c0.80859-0.74609 1.6758-1.4258 2.5938-2.0352 3.4453-1.7539 6.1758-4.6484 7.7266-8.1875 1.043-2.6602 0.17188-5.6914-2.1289-7.3945-0.73828-0.38281-1.3164-1.0156-1.6328-1.7891-0.3125-1.5625-1.6406-2.7148-3.2344-2.8047-0.85156-0.32812-1.7656-0.46875-2.6797-0.41406-3.1016 0.34766-6.7188-0.60156-8.5898 3.1211-0.1875 0.48438-0.32422 0.98438-0.41406 1.4922 0.55469-0.027343 1.1094-0.097656 1.6562-0.21484 3.6367-1.8164 8-1.3672 11.191 1.1602 0.85156 1.1406 1.7695 2.2266 2.75 3.2578 0.55859 0.3125 0.95312 0.85547 1.082 1.4844 0.12891 0.625-0.019531 1.2773-0.40625 1.7891-1.1328 1.4844-2.4336 2.8359-3.875 4.0234-1.9141 1.7305-3.9531 3.3164-5.8789 5.0312l-0.003907 0.003907c-0.46875 0.33984-0.75391 0.87891-0.77734 1.457-0.023438 0.57812 0.21875 1.1367 0.66016 1.5156 0.92578 0.65234 1.1445 1.9297 0.49609 2.8555-0.007813 0.39453 0.09375 0.78125 0.28906 1.125 0.30078-0.26172 0.625-0.50391 0.89844-0.79297 0.17578-0.23047 0.33203-0.47656 0.46484-0.73828 1.0547 0.97656 2.0117 1.8945 2.9961 2.7773 0.4375 0.25391 0.69922 0.72656 0.67969 1.2305-0.019532 0.50391-0.3125 0.95312-0.76562 1.1758-1.3789 1.1953-2.6172 2.5508-3.9766 3.7656h-0.003906c-3.2812 3.5703-8.3477 4.8906-12.957 3.3828 0.042969-0.53516 0.11328-1.0703 0.21484-1.5977 1.1953-4.5859 2.3828-9.1797 3.6562-13.746 0.21094-0.66797 0.65234-1.2383 1.2461-1.6094 1.3477-0.75391 2.7227-1.3203 1.4375-3.2227-0.078125-0.33984-0.085937-0.69531-0.023437-1.0391-0.10156-2.8594-0.34766-5.7148-0.73828-8.5508-0.37891-1.543-1.1055-2.9805-2.1211-4.2031-0.32422-0.74609-0.96484-1.3125-1.7461-1.5469-0.78125-0.23047-1.625-0.10547-2.3047 0.33984 0.007813 1.3281 0.37109 2.6328 1.0547 3.7734 0.625 0.22656 1.2891 0.32422 1.9531 0.28125 1.1875 2.9297 1.6914 6.0938 1.4688 9.2461-2.418-0.41016-3.0938 0.19922-3.0156 1.8828v0.003906c0.23828 2.5391 0.15625 5.1016-0.24609 7.6211-0.89062 4.207-2.2891 8.3047-3.4766 12.449-0.98828 3.4492-1.8672 6.9336-3.0156 10.328-0.92969 2.7617-2.2734 5.3789-3.2734 8.1211-1.5078 4.1367-2.8672 8.3281-4.3086 12.488h0.003906c-0.87891 1.7109-1.4961 3.5469-1.832 5.4414-0.23437 2.4297 0.85938 4.7969 2.8672 6.1875 0.41406 0.29688 0.8125 0.61328 1.1875 0.95703l-0.25 0.53125-1.9414-0.60938c0.375 0.42578 0.67188 0.90234 1.0039 1.3594 0.28516 0.042968 0.58594 0.085937 0.86328 0.125 1.8594 0.23828 2.9688 2.7852 5.2656 1.7148l0.003906-0.003907c0.19922 0.03125 0.375 0.15234 0.46875 0.33203 0.53125 1.7383 1.6758 0.89844 2.4883 0.47266l-0.003906 0.003906c3.8438-1.7461 7.0664-4.6172 9.2422-8.2344 0.78516-1.4375 1.8359-2.7305 2.7969-4.1367 2.3828 2.4141 3.0039 2.3047 4.3359-0.42188 1.7695-3.6172 3.5547-7.2266 5.3594-10.828 0.92188-1.8359 2.0586-3.5859 2.7969-5.4922 0.84766-2.1914 1.2227-4.5664 2.0586-6.7656 1.6055-4.2344 3.4297-8.3867 5.0938-12.602 1.2539-3.1719 2.2695-6.4414 3.625-9.5664 1.5469-3.5625 3.3984-6.9883 5.0352-10.512 1.9258-4.1367 3.7617-8.3164 5.6367-12.48l0.26562-0.30859 0.003907 0.007812c0.28516-0.70312 0.42187-1.4609 0.39453-2.2227-0.57422-1.8984 0.26172-2.6445 2.625-2.8281-1.3477-0.55469-2.082-0.85547-3.0234-1.2422 1.5664-3.5195 4.5234-6.2344 8.1641-7.4922 4.9414-1.7422 10.371-1.4219 15.07 0.88672 2.2461 1.4062 5.0703 1.4883 7.3906 0.21484 1.9453-0.94141 3.9414-1.7695 5.9805-2.4844 3.5625-0.99609 7.3867-0.19141 10.246 2.1562 0.27344 0.39844 0.49219 0.83594 0.64453 1.293 0.47656 1.0156 0.94922 2.0352 1.4883 3.1914 1.0195-1.0469 1.5-2.5039 1.3125-3.9531-0.1875-1.4492-1.0273-2.7344-2.2773-3.4883z"/>
  <path d="m442.74 413.52c-5.9141-0.50391-11.594-2.5391-16.484-5.9023-3.9453-3.4453-8.8828-5.5508-14.102-6.0195-2.6016-0.29297-4.957-1.6875-6.4648-3.8281-3.0898-2.7227-4.3516-6.9766-3.2383-10.945 0.26562-1.4961 0.22656-3.0312-0.10938-4.5156-0.38672-4.7617 0.72656-9.5273 3.1875-13.625 0.89844-1.5547 2.1992-2.8398 3.7617-3.7266 2.4961-1.1953 5.082-2.1953 7.7344-2.9883 3.0977-0.78125 6.3789 0.042969 8.7383 2.1953 0.41797 0.375 0.87109 0.70703 1.3516 0.98828 5.707 2.3086 6.4102 7.5664 7.543 12.609v0.003906c0.24609 1.1328 0.71875 2.2031 1.3906 3.1484 1.5469 2.1523 3.2305 4.1992 5.0508 6.1289 1.0547 0.87891 2.25 1.582 3.5312 2.082 1.8789 0.73047 3.6953 1.6094 5.4336 2.6289 1.1016 1.0625 2.0195 2.3008 2.7148 3.668 0.40234 0.79688 0.85156 1.5703 1.3516 2.3164 1.9492 2.8477 2.2773 6.5078 0.86719 9.6602-1.4102 3.1484-4.3594 5.3398-7.7852 5.7852-1.4961 0.019531-2.9883 0.13281-4.4727 0.33594zm-38.309-23.18c0.59375 4.5 3.9844 8.1289 8.4375 9.0273 1.9375 0.046875 3.8555 0.36719 5.7031 0.94922 1.9258 0.94141 3.793 2 5.5938 3.1641 3.668 2.6289 7.6523 4.793 11.859 6.4375 4.1484 1.4805 8.6289 1.7773 12.934 0.85156 1.9062-0.71875 3.4336-2.1836 4.2344-4.0547 0.80469-1.8711 0.80859-3.9883 0.015626-5.8633-3.8359-5.5547-9.3359-9.7383-15.711-11.957-2.3359-0.46875-4.2656-2.1094-5.1094-4.3398-0.42188-2.0391-0.67969-4.1133-0.96484-6.1758 0.09375-3.582-1.3281-7.0352-3.918-9.5078-2.3281-1.7617-4.9766-3.0508-7.7969-3.7969-1.9688-0.59766-4.1055-0.0625-5.5625 1.3945-0.53516 0.45703-1.0352 0.95312-1.5977 1.375h0.003907c-3.4062 2.5-5.7773 6.1641-6.668 10.293-0.77734 2.3203-0.6875 4.8477 0.25391 7.1055 0.91016 1.832 0.35156 2.7344-1.6562 3.2617l1.918 2.2109z"/>
  <path d="m334.64 382.54c-0.37109 0.75391-0.69922 1.5234-0.98828 2.3125-0.10156 0.74219-0.25391 1.4766-0.45703 2.1992-0.39453 0.65625-0.92969 1.2227-1.5586 1.6562-0.38281 0.29688-1.0625 0.23828-1.4141 0.55078-1.9766 1.7695-4 3.5039-5.7891 5.457-1.0703 1.1758-1.9023 2.5508-2.457 4.043-1.3828 2.9258-3.4258 5.4922-5.9648 7.5-1.1406 1.2422-2.7461 1.9609-4.4375 1.9766-1.8438 0.054687-3.6875-0.039063-5.5156-0.27344-1.3672-0.20312-2.5898-0.96875-3.3672-2.1133-0.77344-1.1445-1.0352-2.5625-0.71484-3.9102 0.16797-0.99609 0.46094-2.3164-1.1914-1.6094h-0.003906c-2.0273 0.85547-4.375 0.09375-5.5195-1.7891-0.77734-1.3555-0.92188-2.9844-0.39062-4.4531 1.4766-3.6016 3.1602-7.1094 5.0508-10.508 0.70312-1.8398 2.5156-3.0117 4.4844-2.9062 0.69531-0.20703 1.2969-0.64453 1.707-1.2383 0.76172-0.79297 1.4375-1.6758 2.1211-2.5469 3.1094-2.8477 7.0859-4.5625 11.293-4.8672 2.5195-0.49609 5.1172-0.45703 7.6211 0.11328 4.7383 1.1172 7.9336 5.5547 7.4922 10.406zm-24.504 23.113c1.4844 0.59375 3.1836 0.16406 4.207-1.0664 2.4531-2.4609 4.3984-5.3828 5.7266-8.5938 0.6875-4.1367 4.0156-7.3242 8.1758-7.8359 0.25781-0.09375 0.48438-0.25781 0.65625-0.47266 3.1836-2.3984 3.8828-6.8906 1.5742-10.145-1.0117-1.1602-2.3789-1.9492-3.8906-2.2461-1.1719-0.003906-2.3359 0.24219-3.4102 0.71484-1.7852 0.17969-3.5391 0.61719-5.1992 1.3008-2.8789 1.793-5.6211 3.793-8.2031 5.9883-1.3945 1.2812-3.4297 1.5742-5.1289 0.74219-0.84375-0.28516-1.7734-0.14062-2.4922 0.38281-2.9375 3.1328-4.7188 7.168-5.0586 11.445-0.10156 0.71875 0.25391 1.4258 0.88672 1.7773s1.4219 0.27734 1.9766-0.18359c0.76953-0.59375 1.5781-1.1289 2.4258-1.6055 0.72656-0.34766 1.5703-0.36719 2.3125-0.050781 0.44922 0.72656 0.60156 1.5977 0.42188 2.4336-0.36719 1.25-0.66016 2.5234-0.87109 3.8086 0.019531 0.98047 0.5 1.8906 1.293 2.4648 1.5547 0.058594 3.1094-0.074218 4.6328-0.39453z"/>
  <path d="m268.14 392.41c1.3906 0.019531 2.7734 0.23047 4.1094 0.625 4.9219 2.3828 9.3672 5.6406 13.121 9.6133 4.3906 4.3906 8.8594 8.7109 13.344 13.004 1.3945 1.3359 3.082 2.3789 4.3984 3.7812v0.003906c0.42969 0.82422 0.67187 1.7383 0.70703 2.6719-0.95703 0.23438-1.9375 0.36719-2.9219 0.39062-1.3633-0.38281-2.7578-0.625-4.168-0.71484-3.2266 0.21094-6.4531-0.41016-9.3711-1.8008-6.2852-2.3516-12.191-5.6133-17.531-9.6758-1.3867-1.1211-2.6875-2.3438-3.8867-3.6641-0.31641-0.54297-0.55469-1.1328-0.70703-1.7422l2.9883 1.8633 0.53906-0.51562c-0.98828-1.125-2.0117-2.2266-2.957-3.3867-0.49219-0.60938-1.8828-1.1992-0.59375-2.0859h0.003906c0.83984 0.027343 1.6406 0.35156 2.2656 0.91016 1.457 0.88672 2.8203 1.918 4.0664 3.0742 3.9961 4.4727 9.2539 7.6211 15.082 9.0352 0.98438 0.71875 1.8008 1.6445 2.3867 2.7148 2.8242-0.30078 5.2539 3.8438 9.6211 2.5312-9.9453-9.2578-17.957-20.301-30.957-25.602z"/>
  <path d="m292.25 367.77c0.19922 0.32812 0.3125 0.70312 0.33203 1.0898-0.30469 1.8398-1.3438 3.4766-2.8828 4.5312-2.207 1.4414-4.1992 3.1875-5.9141 5.1914-1.6055 1.6914-4.0508 2.293-6.2578 1.543-3.3516-0.94922-6.125-3.3086-7.6016-6.4648-0.53125-0.96875-0.76953-2.1094-1.3477-3.043l0.003906 0.003907c-0.21484-1.4766-1.3359-2.6562-2.8008-2.9492-0.42578-0.56641-0.59766-1.2812-0.48438-1.9805 0.53125-1.0547 1.3711-1.9258 2.4102-2.4922 3.2031-2.0234 5.6211-5.0781 6.8594-8.6602 2.0547-3.2305 4.0117-6.5234 6.082-9.7461 0.46875-0.61328 1.0547-1.1289 1.7266-1.5195 0.32812-0.21094 0.73828-0.25 1.1016-0.10938 0.3125 0.32812 0.44922 0.78125 0.37109 1.2266-0.65234 1.7227-0.20312 3.6719 1.1445 4.9336 2.3281 2.8516 4.3633 5.9258 6.0781 9.1797 1.8594 2.7812 1.9492 6.3867 0.23047 9.2578zm-5.1992 2.1133c1.9922-1.582 2.8867-4.1719 2.3008-6.6445-0.96094-6.0078-5.9766-9.5859-7.9727-15.203-1.543 2.4258-2.9336 4.5156-4.2227 6.6641l-0.003906 0.003907c-1.2852 2.7695-2.8516 5.3984-4.6797 7.8477-1.2539 1-2.0547 2.4648-2.2266 4.0586-0.16797 1.5977 0.3125 3.1914 1.332 4.4336 0.29688 0.55469 0.54688 1.1328 0.74609 1.7305 1.3594 3.1016 4.8086 4.7188 8.0625 3.7773 3.1562-0.82812 5.875-2.8438 7.5859-5.6211z"/>
  <path d="m552.65 358.52-0.33984 1.9922c0.22266-0.054687 0.4375-0.14844 0.63281-0.27734 4.6094-5.2812 10.184-9.6328 16.422-12.824 2.7695-1.5703 5.2656-3.6172 7.9219-5.3906 0.49609-0.22656 1.0312-0.37109 1.5742-0.43359 0.10156 0.47656 0.11328 0.96875 0.039063 1.4531-0.17578 0.65625-0.53125 1.2461-1.0312 1.707-1.9805 1.4219-4.0938 2.6602-6.0742 4.0781-2.457 1.7617-4.8086 3.668-7.2578 5.4453-1.6758 1.2188-3.4492 2.3086-5.1562 3.4883h-0.003906c-5.2266 3.9297-9.1055 9.3828-11.098 15.613-0.76953 2.0156-1.5586 4.0234-2.2695 6.0586-0.39062 0.74219-0.55078 1.5859-0.45312 2.4219 0.54297 1.6836-0.03125 3.5234-1.4297 4.6055-3.957 4.5859-7.8945 9.1875-11.941 13.695-1.2148 1.2578-2.5586 2.3867-4.0078 3.3633-0.5 0.26953-1.1016 0.26172-1.5977-0.019531-0.43359-0.59375-0.67578-1.3086-0.69141-2.043 0.125-0.48047 0.49609-0.85938 0.97266-0.99609 1.9023-0.20703 3.5898-1.3164 4.5391-2.9766 2.793-3.0156 5.6562-5.9688 8.3438-9.0742 1.9922-1.4727 3.1172-3.8477 2.9883-6.3242-0.082031-0.49219-0.027344-0.99219 0.16406-1.4492 3.0273-7.1211 6.0742-14.23 9.1445-21.332l-0.003906-0.003907c0.17969-0.27734 0.38672-0.53516 0.61328-0.77734z"/>
  <path d="m412.47 329.16c-1.7891-1.5391-4.2344-2.0742-6.5039-1.4297 1.8828 0.57031 3.7305 1.2422 5.5391 2.0156 3.8477 1.875 6.5078 5.5469 7.0898 9.7891 0.023438 2.9727-1.8828 5.6172-4.7109 6.5352-0.12891 0.003906-0.25391 0.027343-0.375 0.074219-0.25 0.83594-0.83984 1.5312-1.625 1.9141-0.78516 0.38672-1.6953 0.42578-2.5117 0.11328-4.1797-0.13281-8.0547-2.2148-10.469-5.6328-3.0234-2.1719-4.1016-6.1758-2.5742-9.5703 0.56641-1.4492 1.6055-2.6602 2.9453-3.4414 1.8477-1.1016 3.7773-2.0664 5.7656-2.8828 1.3047-0.72656 2.8594-0.86719 4.2734-0.39063 1.4141 0.48047 2.5625 1.5352 3.1562 2.9062zm-12.008 6.1367 0.36719-0.085937c-0.26953 0.57812-0.41406 1.207-0.42188 1.8477 1.1562 4.4219 5.2109 7.4609 9.7773 7.332 2.1484 0.0625 4.1602-1.0508 5.25-2.9023 0.91797-1.8164 0.47266-4.0273-1.0859-5.3438-0.19922-0.28516-0.37891-0.58203-0.53906-0.89063-1.7578-3.375-5.7031-4.9805-9.3164-3.7852-0.46875 0.12109-0.96094 0.097656-1.4141-0.070312-1.8203-0.82812-2.3281 0.81641-3.0117 1.7383-0.066406 0.74219 0.070313 1.4883 0.39453 2.1602z"/>
  <path d="m252.06 419.36c-1.0273 3.2695-3.043 6.1406-5.7695 8.2188-2.7266 2.0742-6.0273 3.2578-9.4492 3.3828-3.7227 0.19141-7.3867 1.3672-11.113 1.7695-1.168-0.19922-2.2344-0.78516-3.0273-1.6641-0.27344-0.55859-0.27344-1.2148-0.003907-1.7734 0.85156-0.28906 1.7461-0.42969 2.6445-0.41797 1.7969 0.082031 3.5977 0.03125 5.3867-0.14844 4.4648-0.32422 8.8008-1.6289 12.703-3.8125 1.7578-1.0117 3.3164-2.3281 4.6094-3.8867 0.97656-1.1914 2.4844-1.8164 4.0195-1.668z"/>
 </g>
</svg>