<?xml version="1.0" encoding="UTF-8"?>
<!-- The Best Svg Icon site in the world: iconSvg.co, Visit us! https://iconsvg.co -->
<svg fill="#000000" width="800px" height="800px" version="1.1" viewBox="144 144 512 512" xmlns="http://www.w3.org/2000/svg">
 <g>
  <path d="m392.44 415.11-0.50391 1.0078v-1.0078z"/>
  <path d="m402.02 415.11v0.50391l-0.50391-0.50391z"/>
  <path d="m402.02 415.11v0.50391l-0.50391-0.50391z"/>
  <path d="m392.44 415.11-0.50391 1.0078v-1.0078z"/>
  <path d="m477.59 546.61v-129.98l-32.246 65.496z"/>
  <path d="m439.8 470.53 26.699-54.914h-53.402z"/>
  <path d="m401.51 415.62 0.50391 1.0078v-1.0078z"/>
  <path d="m434.26 482.12-32.242-65.496v131.49z"/>
  <path d="m391.94 548.62v-131.49l-32.242 65.496z"/>
  <path d="m439.8 493.71-30.734 62.473h61.969z"/>
  <path d="m548.62 306.79-64.488-54.41-85.648-27.207-85.648 27.207-64.484 54.41-41.312 76.578 13.098 7.0547 13.602-25.695v191.45h72.547l0.003906-151.14h180.87v151.14h71.539l0.003907-198 17.129 32.242 13.098-7.0547zm-281.12 4.0312h-0.50391l0.50391-0.50391zm166.26 46.352h-70.031v-62.977h70.031z"/>
  <path d="m353.65 494.21-30.23 61.969h60.961z"/>
  <path d="m353.65 471.04 27.207-55.418h-54.414z"/>
  <path d="m316.87 547.11 31.234-64.484-31.234-63.48z"/>
  <path d="m391.94 417.13 0.50391-1.5117h-0.50391z"/>
  <path d="m374.81 305.79h47.863v40.809h-47.863z"/>
 </g>
</svg>