<?xml version="1.0" encoding="UTF-8"?>
<!-- The Best Svg Icon site in the world: iconSvg.co, Visit us! https://iconsvg.co -->
<svg fill="#000000" width="800px" height="800px" version="1.1" viewBox="144 144 512 512" xmlns="http://www.w3.org/2000/svg">
 <g>
  <path d="m557.85 580.66h10.422c2.7812 0 5.0391-2.2539 5.0391-5.0391 0-2.7852-2.2539-5.0391-5.0391-5.0391h-10.422c-2.7812 0-5.0391 2.2539-5.0391 5.0391 0 2.7852 2.2578 5.0391 5.0391 5.0391z"/>
  <path d="m596.48 250.28c2.7812 0 5.0391-2.2539 5.0391-5.0391v-41.727c0-2.7852-2.2539-5.0391-5.0391-5.0391l-392.97 0.003906c-2.7812 0-5.0391 2.2539-5.0391 5.0391v41.727c0 2.7852 2.2539 5.0391 5.0391 5.0391h8.5625v299.44l-8.5625-0.003906c-2.7812 0-5.0391 2.2539-5.0391 5.0391l0.003906 41.727c0 2.7852 2.2539 5.0391 5.0391 5.0391h392.97c2.7812 0 5.0391-2.2539 5.0391-5.0391v-41.727c0-2.7852-2.2539-5.0391-5.0391-5.0391h-8.3047l-0.003906-299.44zm-387.93-41.727h382.89v31.652h-382.89zm248.34 341.17v-48.32c0-5.8086-0.88281-11.414-2.5117-16.699h83.551v65.02zm-56.895-105.22c-21.738 0-40.648 12.266-50.227 30.23h-87.461v-69.695h275.62v69.59h-87.762c-9.5938-17.91-28.48-30.125-50.176-30.125zm137.94-49.539h-275.62v-69.691h275.62zm-275.62 89.844h83.27c-1.6055 5.2539-2.4844 10.824-2.4844 16.594v48.32h-80.785zm90.863 16.594c0-25.82 21.004-46.824 46.82-46.824s46.82 21.004 46.82 46.824v48.32h-93.641zm184.76-186.21h-275.62v-64.914h275.62zm-315.79-64.914h30.09v299.44h-30.09zm369.3 341.17h-382.89v-31.652h382.89zm-13.344-41.727h-30.09l0.003906-299.44h30.09z"/>
  <path d="m568.27 219.34h-10.422c-2.7812 0-5.0391 2.2539-5.0391 5.0391s2.2539 5.0391 5.0391 5.0391h10.422c2.7812 0 5.0391-2.2539 5.0391-5.0391s-2.2578-5.0391-5.0391-5.0391z"/>
  <path d="m242.41 219.34h-10.422c-2.7812 0-5.0391 2.2539-5.0391 5.0391s2.2539 5.0391 5.0391 5.0391h10.422c2.7812 0 5.0391-2.2539 5.0391-5.0391s-2.2578-5.0391-5.0391-5.0391z"/>
  <path d="m231.98 580.66h10.422c2.7812 0 5.0391-2.2539 5.0391-5.0391 0-2.7852-2.2539-5.0391-5.0391-5.0391h-10.422c-2.7812 0-5.0391 2.2539-5.0391 5.0391 0 2.7852 2.2539 5.0391 5.0391 5.0391z"/>
 </g>
</svg>