<?xml version="1.0" encoding="UTF-8"?>
<!-- The Best Svg Icon site in the world: iconSvg.co, Visit us! https://iconsvg.co -->
<svg fill="#000000" width="800px" height="800px" version="1.1" viewBox="144 144 512 512" xmlns="http://www.w3.org/2000/svg">
 <g>
  <path d="m596.48 198.47h-392.97c-2.7852 0-5.0391 2.2539-5.0391 5.0391v244.34c0 2.7852 2.2539 5.0391 5.0391 5.0391h29.07v18.711h-29.07c-2.7852 0-5.0391 2.2539-5.0391 5.0391v78.105c0 2.7852 2.2539 5.0391 5.0391 5.0391h29.07v36.699c0 2.7852 2.2539 5.0391 5.0391 5.0391s5.0391-2.2539 5.0391-5.0391v-36.699h26.188v36.699c0 2.7852 2.2539 5.0391 5.0391 5.0391 2.7852 0 5.0391-2.2539 5.0391-5.0391v-36.699h242.15v36.699c0 2.7852 2.2539 5.0391 5.0391 5.0391 2.7852 0 5.0391-2.2539 5.0391-5.0391v-36.699h26.188v36.699c0 2.7852 2.2539 5.0391 5.0391 5.0391 2.7852 0 5.0391-2.2539 5.0391-5.0391v-36.699l29.062-0.003906c2.7852 0 5.0391-2.2539 5.0391-5.0391v-78.105c0-2.7852-2.2539-5.0391-5.0391-5.0391h-29.07v-18.711h29.07c2.7852 0 5.0391-2.2539 5.0391-5.0391v-244.34c0-2.7852-2.2539-5.0391-5.0391-5.0391zm-353.82 254.42h26.188v18.711l-26.188 0.003906zm36.262 18.715v-18.711h242.15v18.711zm312.52 78.105h-382.89v-68.031h382.89zm-34.105-78.105h-26.188v-18.711h26.188zm34.105-28.789h-382.89v-234.27h382.89z"/>
  <path d="m339.25 520.73h123.73c2.7852 0 5.0391-2.2539 5.0391-5.0391s-2.2539-5.0391-5.0391-5.0391h-123.73c-2.7852 0-5.0391 2.2539-5.0391 5.0391s2.2578 5.0391 5.0391 5.0391z"/>
  <path d="m319.32 422.67c1.375 0 2.7656-0.039063 4.1523-0.125 31.102-1.9453 56.688-26.781 59.52-57.777 1.5586-17.059-3.5664-33.66-14.418-46.738-3.1484-3.793-4.6914-8.7422-4.3438-13.922 0.066406-0.97656 0.10156-1.9766 0.10156-2.9688 0-14.207-6.1445-26.582-16.398-34.793 1.7773-0.58594 3.5312-1.293 5.1875-2.3164 12.855-7.957 15.254-26.203 15.352-26.973 0.29297-2.3477-1.0938-4.5859-3.3203-5.3711-0.73438-0.25781-18.137-6.2578-30.988 1.6992-5.8906 3.6406-9.5625 9.457-12.062 15.09-2.0742-5.8125-5.9922-12.609-13.445-18.199-2.2227-1.668-5.3789-1.2188-7.0469 1.0078-1.6719 2.2227-1.2188 5.3789 1.0078 7.0469 7.7734 5.8359 10.395 13.387 11.273 18.129-1.0586 0.15625-1.7383 0.30859-1.8203 0.33594-19.25 3.2305-34.562 18.949-37.227 38.23-0.36328 2.6367-0.5 5.3086-0.38672 7.9297 0.23828 5.7773-1.8086 11.793-5.7617 16.93-8.6406 11.234-13.211 24.688-13.211 38.898 0 17.566 7.3438 34.547 20.156 46.578 11.969 11.242 27.348 17.312 43.68 17.309zm20.137-180.72c5.6797-3.5156 13.367-2.8047 18.082-1.8555-1.2734 4.6484-4.0859 11.875-9.7305 15.367-5.2617 3.2578-12.953 2.6055-18.238 1.4297 1.9492-5.5703 4.8438-11.824 9.8867-14.941zm-62.781 84.066c5.3867-7.0078 8.1719-15.348 7.8398-23.484-0.085937-2.0234 0.019531-4.0898 0.30078-6.1406 2.0703-14.965 13.961-27.164 29.281-29.746 0.03125-0.003906 2.0391-0.48047 5.1445-0.48047 1.6328 0 3.5664 0.13281 5.6719 0.52344 17.82 3.3555 29.332 16.879 29.332 34.445 0 0.76563-0.023438 1.5273-0.082032 2.2891-0.51953 7.7734 1.8438 15.242 6.6445 21.035 9.1328 11.02 13.453 25.004 12.137 39.387-2.3867 26.086-23.93 46.996-50.113 48.633-15.059 0.94141-29.371-4.2031-40.309-14.473-10.953-10.289-16.977-24.223-16.977-39.238 0.003906-11.961 3.8555-23.285 11.129-32.75z"/>
  <path d="m447.23 419c1.7266 0 3.4805-0.15234 5.2539-0.45703 1.8789-0.31641 3.6914-0.83984 5.4453-1.4844 3.7148 1.707 7.6875 2.6797 11.977 2.6797 4.1953 0 8.0898-0.9375 11.738-2.5742 1.6641 0.59375 3.375 1.082 5.1406 1.3789 1.7773 0.30859 3.5273 0.45703 5.2539 0.45703 24.031 0 43.203-29.18 51.867-79.719 4.0469-23.559 3.7734-40.98-0.82812-53.254-4.8633-12.977-14.801-20.844-29.562-23.371-6.4219-1.0977-12.312-0.88281-17.625 0.5-5.1094-4.8633-11.734-8.1211-20.285-9.125 1.1133-5.4023 4.0703-14.102 11.941-19.348 2.3164-1.5469 2.9414-4.6719 1.3945-6.9883s-4.6719-2.9375-6.9883-1.3945c-11.863 7.9102-15.48 20.797-16.594 27.652-9.168 0.83984-16.223 4.168-21.574 9.3047-5.4141-1.4805-11.441-1.7266-18.043-0.59766-14.762 2.5273-24.703 10.387-29.562 23.371-4.6016 12.277-4.8711 29.699-0.82813 53.254 8.6836 50.535 27.844 79.715 51.879 79.715zm64.582-146.42c11.281 1.9336 18.219 7.332 21.828 16.973 3.9531 10.559 4.0664 26.27 0.33203 48.02-5.9688 34.789-19.91 70.453-41.293 71.301 12.867-14.402 20.117-42.602 20.117-81.344 0-19.562-1.5977-40.75-9.9492-55.398 2.7656-0.22266 5.7148-0.10156 8.9648 0.44922zm-41.906-8.8594c16.234 0 32.828 7.582 32.828 63.809 0 39.707-8.625 82.133-32.828 82.133-24.207 0-32.832-42.426-32.832-82.133 0-56.227 16.594-63.809 32.832-63.809zm-64.281 25.836c3.6133-9.6445 10.551-15.039 21.828-16.973 3.4492-0.57812 6.5664-0.67969 9.4609-0.39844-8.3242 14.652-9.9141 35.805-9.9141 55.344 0 38.711 7.2383 66.895 20.094 81.309-21.766-0.27734-35.785-36.195-41.801-71.266-3.7266-21.75-3.6211-37.457 0.33203-48.016z"/>
 </g>
</svg>