<?xml version="1.0" encoding="UTF-8"?>
<!-- The Best Svg Icon site in the world: iconSvg.co, Visit us! https://iconsvg.co -->
<svg fill="#000000" width="800px" height="800px" version="1.1" viewBox="144 144 512 512" xmlns="http://www.w3.org/2000/svg">
 <path d="m327.04 439.62-102.01 29.344c18.59-75.52 75.965-139.26 156.09-162.26l60.637-17.445c-0.26562 25.938-6.957 51.555-19.875 74.883-20.5 37-54.184 63.801-94.84 75.477zm234.18-155.79c30.379 105.72-30.73 216.06-136.47 246.41l-32.754 9.4297 18.703 66.648h38.168l17.176 20.395h-99.633l12.297-20.398h8.6055l-16.953-60.426-142.3 40.926-0.71484-2.4453c-9.6562-33.613-11.09-67.641-5.5156-99.945l109.08-31.379c44.246-12.695 80.898-41.871 103.21-82.137 14.758-26.625 22.051-56.012 21.633-85.664l0.015624-0.019532-0.29687-38.117c-0.007813-40.766 33.047-73.82 73.82-73.82h52.156l-27.902 83.812zm-25.41-82.59c0-5.7773-4.6797-10.473-10.473-10.473-5.7773 0-10.473 4.6953-10.473 10.473 0 5.7773 4.6953 10.473 10.473 10.473 5.793 0 10.473-4.6953 10.473-10.473z"/>
</svg>