<?xml version="1.0" encoding="UTF-8"?>
<!-- The Best Svg Icon site in the world: iconSvg.co, Visit us! https://iconsvg.co -->
<svg fill="#000000" width="800px" height="800px" version="1.1" viewBox="144 144 512 512" xmlns="http://www.w3.org/2000/svg">
 <g>
  <path d="m299.3 474.45v117h-12.734c-2.7812 0-5.0391 2.2539-5.0391 5.0391 0 2.7812 2.2539 5.0391 5.0391 5.0391h35.926c2.7812 0 5.0391-2.2539 5.0391-5.0391 0-2.7812-2.2539-5.0391-5.0391-5.0391h-13.113v-116.93c41.629-1.8633 77.934-27.469 93.359-65.672 19.801 16.816 45.129 27.383 72.879 28.578v154.02h-11.34c-2.7812 0-5.0391 2.2539-5.0391 5.0391 0 2.7812 2.2539 5.0391 5.0391 5.0391h32.121c2.7812 0 5.0391-2.2539 5.0391-5.0391 0-2.7812-2.2539-5.0391-5.0391-5.0391h-10.703v-154c64.184-2.5117 115.62-55.105 115.62-119.42 0-65.918-54.02-119.54-120.42-119.54-54.426 0-100.51 36.035-115.37 85.328-17.766-12.438-39.137-19.273-60.996-19.273-58.371 0-105.86 47.145-105.86 105.09 0 56.195 44.695 102.09 100.63 104.83zm181.6-265.9c60.844 0 110.34 49.105 110.34 109.46 0 58.766-46.922 106.84-105.55 109.35v-32.848l41.93-40.547c2-1.9336 2.0508-5.125 0.11719-7.125-1.9375-2-5.1211-2.0508-7.125-0.11719l-34.922 33.773v-72.238c0-2.7812-2.2539-5.0391-5.0391-5.0391-2.7812 0-5.0391 2.2539-5.0391 5.0391v46.727l-34.441-33.309c-2.0039-1.9375-5.1914-1.8828-7.125 0.11719s-1.8828 5.1914 0.11719 7.125l41.449 40.082v58.348c-58.402-2.7422-105.07-50.73-105.07-109.34 0-60.359 49.5-109.46 110.35-109.46zm-176.37 66.055c21.09 0 41.668 7.0312 58.324 19.738-1.5547 7.6562-2.3789 15.57-2.3789 23.672 0 32.418 13.086 61.848 34.27 83.406-13.012 36.398-46.578 61.105-85.363 63.023v-27.469l33.207-32.113c2-1.9336 2.0508-5.125 0.11719-7.125s-5.125-2.0547-7.125-0.11719l-26.203 25.34v-53.34c0-2.7812-2.2539-5.0391-5.0391-5.0391-2.7812 0-5.0391 2.2539-5.0391 5.0391v34.965l-25.816-24.969c-2.0039-1.9375-5.1914-1.8828-7.125 0.11719-1.9336 2-1.8828 5.1914 0.11719 7.125l32.824 31.742v45.766c-50.379-2.7188-90.555-44.109-90.555-94.75 0.003906-52.387 42.973-95.012 95.785-95.012z"/>
  <path d="m594.93 452.39c-1.2031-0.058594-29.949-1.4531-44.016 15.688-14.062 17.137-7.082 45.039-6.7773 46.215 0.54688 2.125 2.4102 3.6523 4.6016 3.7734 0.1875 0.011719 1.0312 0.050781 2.3828 0.050781 7.3672 0 29.75-1.25 41.637-15.738 14.062-17.141 7.0781-45.039 6.7734-46.215-0.55078-2.125-2.4102-3.6523-4.6016-3.7734zm-9.9648 43.598c-8.2109 10.004-24.41 11.75-31.82 12.008-1.1992-7.3125-2.6562-23.523 5.5547-33.527 8.2109-10.004 24.406-11.75 31.816-12.008 1.1992 7.3164 2.6562 23.527-5.5508 33.527z"/>
  <path d="m214.22 548.93c8.5117 6.9766 19.676 8.7695 28.906 8.7695 9.3633 0 16.738-1.8477 17.332-2 2.125-0.54688 3.6523-2.4102 3.7734-4.6016 0.066406-1.2148 1.4492-29.941-15.699-43.996-17.145-14.051-45.055-7.0742-46.238-6.7695-2.125 0.54687-3.6523 2.4102-3.7734 4.6016-0.070313 1.2109-1.4492 29.941 15.699 43.996zm27.926-34.035c10.012 8.2031 11.758 24.387 12.016 31.789-7.3125 1.207-23.539 2.6602-33.555-5.5508-10.012-8.2031-11.758-24.387-12.016-31.789 7.3086-1.2031 23.543-2.6523 33.555 5.5508z"/>
  <path d="m371.48 482.18c-2.125 0.54688-3.6523 2.4102-3.7734 4.6016-0.066406 1.2148-1.4492 29.941 15.699 43.996 8.5117 6.9766 19.672 8.7695 28.902 8.7695 9.3633 0 16.738-1.8477 17.332-2 2.125-0.54688 3.6523-2.4102 3.7734-4.6016 0.066406-1.2148 1.4531-29.941-15.699-43.996-17.137-14.051-45.047-7.0664-46.234-6.7695zm51.863 46.363c-7.3008 1.2109-23.492 2.6797-33.551-5.5586-10.012-8.2031-11.758-24.387-12.016-31.789 7.3125-1.1953 23.543-2.6562 33.555 5.5508 10.016 8.2031 11.758 24.398 12.012 31.797z"/>
 </g>
</svg>