<?xml version="1.0" encoding="UTF-8"?>
<!-- The Best Svg Icon site in the world: iconSvg.co, Visit us! https://iconsvg.co -->
<svg fill="#000000" width="800px" height="800px" version="1.1" viewBox="144 144 512 512" xmlns="http://www.w3.org/2000/svg">
 <path d="m542.77 251.74c-12.391-2.1328-23.668-1.5859-33.637 1.457-10.98-11.441-25.266-17.363-43.094-18.191-0.46094-5.7695-0.22266-17.301 6.8047-28.879 1.4453-2.375 0.6875-5.4766-1.6914-6.918-2.3711-1.4453-5.4727-0.69141-6.9141 1.6914-8.1406 13.406-8.7734 26.738-8.2891 34.172-15.004 0.92578-27.438 5.6406-37.473 14.172-0.22656-0.11719-0.40625-0.29297-0.65234-0.375-10.43-3.4688-21.879-4.0625-35.008-1.8047-8.7891 1.5078-16.59 4.1094-23.348 7.6445-4.7227-1.4961-9.5547-2.7031-14.504-3.5078-0.36719-0.078125-5.1094-1.0625-11.957-1.4727-0.44531-5.7852-0.20703-17.422 6.7852-28.941 1.4453-2.375 0.6875-5.4766-1.6914-6.918-2.3828-1.4453-5.4766-0.6875-6.918 1.6914-8.1133 13.363-8.7734 26.645-8.2969 34.094-3.9219 0.19141-8.0938 0.66016-12.289 1.5703-34.613 7.5039-62.621 28.602-76.852 57.883-0.59375 1.2305-0.66797 2.6523-0.20313 3.9375 0.47266 1.2852 1.4414 2.3203 2.6914 2.875 0.40234 0.17969 3.3672 1.4453 8.0469 2.8047-2.7578 6.4727-3.9023 11.93-4.9844 19.754-0.72266 5.2109-0.98047 10.504-0.76562 15.742 0.55078 13.5-4.1758 27.484-13.32 39.363-17.484 22.746-26.73 49.953-26.73 78.695 0 35.523 14.859 69.855 40.762 94.188 24.246 22.781 55.383 35.059 88.445 35.059 2.7891 0 5.5938-0.089844 8.4102-0.26563 45.242-2.8242 84.613-29.645 105.36-67.746 6.3125 2.7773 13.059 4.2617 20.164 4.2617 7.8711 0 15.203-1.7539 21.984-5.0938 3.3164 1.293 6.8203 2.2891 10.461 2.9141 3.0703 0.52734 6.0898 0.78906 9.082 0.78906 42.801 0 77.211-53.449 93.078-145.94 7.4531-43.426 7.0156-75.371-1.332-97.656-8.6602-23.098-25.711-36.523-52.129-41.051zm-158.25 5.2539c9.7344-1.6719 18.254-1.4766 26.02 0.39062-4.582 5.6602-8.5117 12.395-11.789 20.234-7.7383-7.1758-16.52-13.141-26.035-17.68 3.6562-1.2344 7.5977-2.2227 11.805-2.9453zm-71.785 4.0898c14.801-3.207 29.969-0.0625 30.363 0.019531 28.34 4.6133 52.98 21.992 66.98 46.926-10.543 2.8008-34.281 7.0547-53.254-4.25-1.4258-0.83984-3.1719-0.94141-4.668-0.25-1.5039 0.68359-2.5781 2.0664-2.8672 3.6953-2.4453 13.73-8.1641 32.234-21.5 45.07-13.094-12.613-18.82-30.707-21.324-44.133-0.30078-1.5938-1.3477-2.9531-2.8242-3.6406-0.67578-0.31641-1.4023-0.47266-2.1289-0.47266-0.85156 0-1.707 0.21484-2.4688 0.64453-20.785 11.699-43.637 6.9023-53.598 3.832 13.523-23.883 37.746-41.039 67.289-47.441zm22.73 330.12c-33.324 2.0859-65.082-9.3047-89.324-32.078-24.238-22.773-37.586-53.613-37.586-86.848 0-26.5 8.5273-51.586 24.652-72.547 10.574-13.75 16.043-30.055 15.395-45.918-0.1875-4.6328 0.039063-9.3281 0.67969-13.949 1.0898-7.8789 2.1094-12.57 5.0117-18.855 11.719 2.0156 27.688 2.4492 43.641-4.5234 3.6719 15.223 11.203 33.766 26.656 46.441 0.92578 0.76172 2.0625 1.1406 3.1914 1.1406 1.1328 0 2.2617-0.37891 3.1914-1.1406 15.699-12.867 23.242-31.762 26.863-47.297 15.203 6.7617 31.484 6.3789 43.465 4.5391 4.1875 9.1367 5.7305 17.344 5.7305 30.48 0 1.7461-0.058594 3.4844-0.17188 5.1875-1.0039 14.965 3.5234 29.328 12.754 40.453 20.25 24.406 29.801 55.379 26.887 87.211-5.2734 57.777-53.008 104.08-111.04 107.7zm110.46-66.699c5.582-12.488 9.3242-25.941 10.617-40.086 3.1523-34.504-7.2031-68.09-29.172-94.562-7.5703-9.125-11.281-20.965-10.449-33.352 0.12109-1.9336 0.19141-3.8867 0.19141-5.8516 0-11.676-1.0312-21.441-5.6992-32.531 4.4453-1.1367 7.3086-2.1797 7.7109-2.332 1.3242-0.5 2.3711-1.5352 2.8984-2.8438 0.52344-1.3125 0.47266-2.7852-0.14453-4.0586-4.1133-8.5312-9.3438-16.324-15.422-23.297 10.199-27.668 27.758-40.621 55.164-40.621 46.309 0 66.066 37.137 66.066 124.17 0 76.652-17.359 158.56-66.066 158.56-5.5234 0-10.777-1.1094-15.695-3.1992zm140.37-135.76c-12.285 71.586-42.465 145.12-90.527 136.93-0.38672-0.066406-0.75391-0.17969-1.1406-0.25781 27.496-23.18 43.137-78.023 43.137-156.27 0-50.43-6.9453-85.652-21.715-107.34 7.4961-1.6406 15.711-1.7383 25.02-0.13672 22.895 3.9258 37 14.938 44.387 34.66 7.707 20.57 7.9805 50.801 0.83984 92.418z"/>
</svg>