<?xml version="1.0" encoding="UTF-8"?>
<!-- The Best Svg Icon site in the world: iconSvg.co, Visit us! https://iconsvg.co -->
<svg fill="#000000" width="800px" height="800px" version="1.1" viewBox="144 144 512 512" xmlns="http://www.w3.org/2000/svg">
 <g>
  <path d="m325.63 553.79 19.965-204.09-7.7695-32.793 0.12109-0.34766c0.14062-0.39844 14.398-39.664 46.664-41.242 1.1523-0.054687 2.3281-0.085937 3.5156-0.085937 21.688 0 44.648 9.1328 58.508 23.27 10.605 10.82 16.055 24.477 15.754 39.477-0.17969 9.1133-0.75 19.512-1.3594 30.527-2.1875 39.777-4.9062 89.27 9.7344 110.95l0.80078 1.1836-1.2812 0.64453zm14.82-236.73 7.6914 32.465-0.019531 0.21094-19.543 199.75 139.32-69.832c-14.238-22.918-11.551-71.844-9.3828-111.29 0.59766-10.988 1.168-21.367 1.3555-30.434 0.29297-14.52-4.7656-27.191-15.035-37.664-13.406-13.68-35.664-22.516-56.707-22.516-1.1484 0-2.2812 0.023437-3.3945 0.082031-29.035 1.418-42.84 35.434-44.285 39.223z"/>
  <path d="m346.32 348.54h-22.48l10.305-9.3125-19.148 5.7734 23.168-28.809 1.9609 1.5781-18.07 22.473 22.09-6.6602-13.758 12.441h15.934z"/>
  <path d="m370.93 317.76c0 2.5742-2.5 4.6602-5.582 4.6602-3.0859 0-5.582-2.0859-5.582-4.6602s2.4961-4.6602 5.582-4.6602c3.082 0 5.582 2.0859 5.582 4.6602"/>
  <path d="m365.35 323.68c-3.7734 0-6.8398-2.6562-6.8398-5.918 0-3.2656 3.0664-5.918 6.8398-5.918 3.7734 0 6.8398 2.6562 6.8398 5.918 0 3.2656-3.0664 5.918-6.8398 5.918zm0-9.3242c-2.3828 0-4.3242 1.5273-4.3242 3.4023s1.9414 3.4023 4.3242 3.4023c2.3828 0 4.3242-1.5273 4.3242-3.4023-0.003906-1.875-1.9414-3.4023-4.3242-3.4023z"/>
  <path d="m387.63 278.13c-0.58594-2.293-5.5352-22.52 0.66406-27.406 2.9102-2.2969 6.5781-2.8281 10.055-1.4297 2.6758 1.0625 4.7578 3.0977 5.6523 5.4102 0.074219-0.10547 0.14453-0.21094 0.21484-0.3125 3.2891-4.75 10.988-15.863 26.973-10.531l-0.79688 2.3945c-14.188-4.7617-20.887 4.9258-24.105 9.5742-1.2852 1.8555-1.9336 2.7969-3.0977 2.5156-0.70703-0.16797-1.1328-0.75-1.2734-1.7383-0.29297-2.0156-2.1016-4.0156-4.5-4.9688-2.6211-1.0469-5.3789-0.65625-7.5625 1.0664-3.707 2.9219-1.8398 16.766 0.21094 24.801z"/>
  <path d="m442.39 296.53-1.3945-2.0977c7.3359-4.9062 18.637-14.344 17.719-18.781-0.69141-3.2656-3.2812-4.6211-4.7656-5.1445-2.8164-0.98828-6.0859-0.60937-7.9453 0.92578-0.30078 0.25-1.1992 0.99219-2.1719 0.46484-1.0547-0.57813-0.91016-1.7422-0.65625-3.8594 0.66406-5.4648 2.0508-16.844-12.773-21.793l0.79688-2.3945c16.773 5.6055 15.164 18.844 14.473 24.488-0.015625 0.10547-0.023437 0.22266-0.039063 0.33203 2.6289-1.4102 6.0664-1.6211 9.1445-0.55078 3.375 1.1836 5.707 3.7344 6.3984 7.0039 1.5664 7.5547-16.695 20.016-18.785 21.406z"/>
  <path d="m331.23 508.22c-1.6914-0.34766-3.5938-0.58984-5.6016-0.85156-10.879-1.3867-25.77-3.293-28.043-25.93-2.5898-25.73 44.691-113.54 46.707-117.26l2.2109 1.1953c-0.48828 0.90625-48.926 90.848-46.414 115.81 2.0742 20.652 14.711 22.27 25.859 23.695 2.0625 0.26172 4 0.51563 5.7891 0.875z"/>
 </g>
</svg>