<?xml version="1.0" encoding="UTF-8"?>
<!-- The Best Svg Icon site in the world: iconSvg.co, Visit us! https://iconsvg.co -->
<svg fill="#000000" width="800px" height="800px" version="1.1" viewBox="144 144 512 512" xmlns="http://www.w3.org/2000/svg">
 <g>
  <path d="m535.44 546.47h-62.789v-49.117c7.1484-1.1719 20.195-4.5586 29.836-14.309 13.625-13.77 14.699-34.461 14.738-35.34 0.0625-1.4102-0.47266-2.7891-1.4727-3.7891s-2.3945-1.5117-3.7891-1.4688c-0.86719 0.039063-21.391 1.125-35.031 14.918-1.5977 1.6133-3.0078 3.3281-4.2773 5.0898v-34.355c0-0.50391-0.14844-0.96094-0.28906-1.4219 13.699-4.7852 22.516-29.387 22.516-46.277 0-4.3359-0.50391-9.6367-4.4492-12.18-4.082-2.6289-8.5156-0.62109-12.801 1.3203-3.1172 1.4102-6.6484 3.0117-10.02 3.0117-3.375 0-6.9062-1.5977-10.023-3.0117-4.2891-1.9453-8.7227-3.9492-12.801-1.3203-3.9453 2.543-4.4492 7.8438-4.4492 12.18 0 16.891 8.8164 41.492 22.52 46.277-0.13672 0.46094-0.28906 0.91797-0.28906 1.4219v33.59c-1.1211-1.4883-2.3281-2.9453-3.6914-4.3242-13.645-13.789-34.164-14.879-35.031-14.918-1.3984-0.046874-2.7891 0.46875-3.7891 1.4688s-1.5391 2.375-1.4727 3.7891c0.039063 0.875 1.1133 21.566 14.734 35.34 9.3711 9.4727 21.984 12.949 29.246 14.215v49.211h-118.79v-49.117c7.1484-1.1719 20.195-4.5586 29.836-14.309 13.625-13.77 14.699-34.461 14.738-35.34 0.0625-1.4102-0.47266-2.7891-1.4727-3.7891-0.99609-1-2.3828-1.5117-3.7891-1.4688-0.86719 0.039063-21.391 1.125-35.031 14.918-1.5977 1.6133-3.0078 3.3281-4.2773 5.0898v-34.355c0-0.50391-0.14844-0.96094-0.28906-1.4219 13.699-4.7852 22.516-29.387 22.516-46.277 0-4.3359-0.50391-9.6367-4.4492-12.18-4.0781-2.6289-8.5156-0.62109-12.801 1.3203-3.1172 1.4102-6.6484 3.0117-10.02 3.0117-3.375 0-6.9062-1.5977-10.023-3.0117-4.2812-1.9453-8.7188-3.9492-12.801-1.3203-3.9453 2.543-4.4492 7.8438-4.4492 12.18 0 16.891 8.8164 41.492 22.52 46.277-0.13672 0.46094-0.28906 0.91797-0.28906 1.4219v33.59c-1.1211-1.4883-2.3281-2.9492-3.6914-4.3242-13.645-13.789-34.164-14.879-35.031-14.918-1.4336-0.046874-2.7891 0.46875-3.7891 1.4688s-1.5391 2.375-1.4727 3.7891c0.039063 0.875 1.1133 21.566 14.738 35.34 9.3711 9.4727 21.984 12.953 29.246 14.215v49.211h-22.098c-2.7812 0-5.0391 2.2539-5.0391 5.0391 0 2.7812 2.2539 5.0391 5.0391 5.0391h223.84c2.7812 0 5.0391-2.2539 5.0391-5.0391 0.003906-2.7852-2.25-5.0391-5.0352-5.0391zm-51.348-82.02c6.7891-6.8594 16.133-9.8047 22.203-11.055-1.2266 6.1484-4.1445 15.66-10.973 22.562-6.7852 6.8594-16.129 9.8047-22.199 11.055 1.2266-6.1484 4.1445-15.66 10.969-22.562zm-128.88 0c6.7891-6.8594 16.133-9.8047 22.203-11.055-1.2266 6.1484-4.1445 15.66-10.973 22.562-6.7852 6.8594-16.129 9.8047-22.199 11.055 1.2266-6.1484 4.1445-15.66 10.969-22.562zm-21.52 22.551c-6.0547-1.2422-15.293-4.1797-22.082-11.043-6.832-6.9062-9.75-16.43-10.977-22.578 6.0547 1.2305 15.375 4.168 22.207 11.07 6.6406 6.7148 9.5703 15.875 10.855 22.035zm-12.152-106.6c0-1.3125 0.070312-2.2539 0.15234-2.9219 0.88672 0.34375 1.9688 0.83594 2.8594 1.2383 3.8438 1.7422 8.6289 3.9102 14.18 3.9102s10.336-2.168 14.176-3.9102c0.89062-0.40234 1.9766-0.89453 2.8594-1.2383 0.082031 0.66406 0.15234 1.6055 0.15234 2.9219 0 16.293-9.6367 37.094-17.191 37.094-7.5469-0.003906-17.188-20.801-17.188-37.094zm141.03 106.58c-6.0742-1.2617-15.34-4.2109-22.082-11.027-6.832-6.9062-9.75-16.43-10.973-22.578 6.0547 1.2344 15.371 4.168 22.203 11.07 6.6406 6.7148 9.5703 15.871 10.855 22.027zm-12.152-106.58c0-1.3125 0.070312-2.2539 0.15234-2.9219 0.88672 0.34375 1.9688 0.83594 2.8594 1.2383 3.8438 1.7422 8.6289 3.9102 14.18 3.9102s10.336-2.168 14.176-3.9102c0.89062-0.40234 1.9766-0.89453 2.8594-1.2383 0.082031 0.66406 0.15234 1.6055 0.15234 2.9219 0 16.293-9.6367 37.094-17.191 37.094-7.5469-0.003906-17.188-20.801-17.188-37.094z"/>
  <path d="m291.25 546.47h-13.566c-2.7812 0-5.0391 2.2539-5.0391 5.0391 0 2.7812 2.2539 5.0391 5.0391 5.0391h13.566c2.7812 0 5.0391-2.2539 5.0391-5.0391 0-2.7852-2.2578-5.0391-5.0391-5.0391z"/>
  <path d="m309.86 407.54c0-2.7812-2.2539-5.0391-5.0391-5.0391h-32.301c0.015625-0.16406 0.09375-0.30469 0.09375-0.46875v-45.703c6.3281-1.1133 17.203-4.1484 25.312-12.344 11.848-11.977 12.781-29.945 12.812-30.707 0.0625-1.4102-0.47266-2.7891-1.4727-3.7891s-2.3516-1.4883-3.7891-1.4688c-0.75391 0.035156-18.582 0.98047-30.449 12.973-0.86719 0.875-1.6602 1.793-2.4141 2.7227v-27.242c0-0.25781-0.10938-0.47656-0.14453-0.72266 11.688-4.7305 19.164-25.645 19.164-40.074 0-3.8945-0.46875-8.668-4.1367-11.031-3.8242-2.4727-7.9766-0.57812-11.645 1.0781-2.5977 1.1797-5.543 2.5117-8.2695 2.5117s-5.6719-1.332-8.2695-2.5117c-3.6641-1.6562-7.8203-3.5508-11.645-1.0781-3.668 2.3633-4.1367 7.1367-4.1367 11.031 0 14.426 7.4727 35.34 19.16 40.074-0.039062 0.24609-0.14453 0.46875-0.14453 0.72266v26.621c-0.60547-0.71484-1.2344-1.4219-1.9062-2.1016-11.871-11.996-29.695-12.941-30.449-12.973-1.3906-0.023437-2.7891 0.46875-3.7891 1.4688s-1.5391 2.375-1.4727 3.7891c0.035157 0.76172 0.96484 18.727 12.812 30.707 7.9023 7.9844 18.418 11.062 24.805 12.246v45.801c0 0.16797 0.078125 0.30859 0.09375 0.46875h-25.645c-2.7812 0-5.0391 2.2539-5.0391 5.0391 0 2.7812 2.2539 5.0391 5.0391 5.0391h67.828c2.7812-0.003907 5.0352-2.2578 5.0352-5.0391zm-27.664-79.461c5.2852-5.3438 12.453-7.8516 17.527-9.0156-1.1445 5.1484-3.6328 12.453-8.957 17.836-5.2852 5.3438-12.453 7.8516-17.527 9.0156 1.1445-5.1484 3.6328-12.453 8.957-17.836zm-37.293 8.8203c-5.332-5.3906-7.8164-12.707-8.9609-17.855 5.0586 1.1523 12.203 3.6523 17.531 9.0352 5.332 5.3906 7.8164 12.707 8.9609 17.855-5.0586-1.1484-12.203-3.6523-17.531-9.0352zm22.68-50.223c-5.5195 0-13.977-16.625-13.977-30.996 0-0.56641 0.015626-1.043 0.039063-1.4453 0.51172 0.21875 1.043 0.46094 1.5078 0.67188 3.1758 1.4375 7.5234 3.4102 12.43 3.4102s9.2539-1.9688 12.43-3.4102c0.46484-0.21094 0.99609-0.45312 1.5078-0.67578 0.023437 0.40625 0.039063 0.88281 0.039063 1.4492 0 14.371-8.457 30.996-13.977 30.996z"/>
  <path d="m399.9 356.23v45.801c0 0.16797 0.078125 0.30859 0.09375 0.46875h-27.348c-2.7812 0-5.0391 2.2539-5.0391 5.0391 0 2.7812 2.2539 5.0391 5.0391 5.0391h61.047c2.7812 0 5.0391-2.2539 5.0391-5.0391 0-2.7812-2.2539-5.0391-5.0391-5.0391h-23.809c0.015625-0.16406 0.09375-0.30469 0.09375-0.46875v-45.703c6.3281-1.1133 17.203-4.1523 25.309-12.344 11.848-11.977 12.781-29.945 12.812-30.707 0.0625-1.4102-0.47266-2.7891-1.4727-3.7891s-2.3906-1.4883-3.7891-1.4688c-0.75391 0.035156-18.578 0.98047-30.449 12.973-0.86719 0.875-1.6562 1.7891-2.4102 2.7188v-27.238c0-0.25781-0.10938-0.47656-0.14453-0.72266 11.688-4.7305 19.16-25.645 19.16-40.074 0-3.8945-0.46875-8.668-4.1367-11.031-3.8242-2.4727-7.9766-0.57812-11.645 1.0781-2.5977 1.1797-5.5391 2.5117-8.2695 2.5117-2.7266 0-5.6719-1.332-8.2695-2.5117-3.6641-1.6602-7.8203-3.5469-11.645-1.0781-3.668 2.3633-4.1367 7.1367-4.1367 11.031 0 14.426 7.4727 35.34 19.16 40.074-0.039063 0.24609-0.14453 0.46875-0.14453 0.72266v26.625c-0.60547-0.71484-1.2344-1.4219-1.9102-2.1055-11.871-11.996-29.695-12.941-30.449-12.973-1.4336-0.023437-2.7891 0.46875-3.7891 1.4688s-1.5391 2.375-1.4727 3.7891c0.035157 0.76172 0.96484 18.727 12.812 30.707 7.8984 7.9844 18.414 11.062 24.801 12.246zm19.652-28.148c5.2891-5.3438 12.453-7.8555 17.527-9.0195-1.1445 5.1484-3.6328 12.453-8.957 17.836-5.2852 5.3438-12.453 7.8516-17.527 9.0156 1.1445-5.1484 3.6328-12.453 8.957-17.832zm-28.59-72.402c0-0.56641 0.015625-1.043 0.039062-1.4453 0.50781 0.21875 1.0391 0.46094 1.5078 0.67188 3.1719 1.4375 7.5234 3.4102 12.43 3.4102s9.2539-1.9688 12.43-3.4102c0.46484-0.21094 0.99609-0.45312 1.5078-0.67188 0.023438 0.40234 0.039063 0.87891 0.039063 1.4453 0 14.371-8.457 30.996-13.977 30.996-5.5195 0-13.977-16.625-13.977-30.996zm-0.13672 72.398c5.3242 5.3828 7.8086 12.688 8.957 17.836-5.0742-1.1641-12.242-3.6719-17.527-9.0156-5.332-5.3906-7.8164-12.707-8.9609-17.855 5.0586 1.1523 12.203 3.6523 17.531 9.0352z"/>
  <path d="m217.96 402.05h-14.445c-2.7812 0-5.0391 2.2539-5.0391 5.0391 0 2.7812 2.2539 5.0391 5.0391 5.0391h14.441c2.7812 0 5.0391-2.2539 5.0391-5.0391 0-2.7812-2.2539-5.0391-5.0352-5.0391z"/>
  <path d="m596.48 402.5h-55.922c0.015625-0.16406 0.09375-0.30469 0.09375-0.46875v-45.703c6.3281-1.1133 17.203-4.1523 25.309-12.344 11.848-11.977 12.781-29.945 12.812-30.707 0.0625-1.4102-0.47266-2.7891-1.4727-3.7891-0.99609-1-2.3867-1.4883-3.7891-1.4688-0.75391 0.035156-18.582 0.98047-30.449 12.973-0.86719 0.875-1.6562 1.7891-2.4102 2.7188v-27.238c0-0.25781-0.10938-0.47656-0.14453-0.72266 11.688-4.7305 19.16-25.645 19.16-40.074 0-3.8945-0.46875-8.668-4.1367-11.031-3.8203-2.4727-7.9766-0.57812-11.645 1.0781-2.5977 1.1797-5.5391 2.5117-8.2695 2.5117-2.7266 0-5.6719-1.332-8.2695-2.5117-3.6641-1.6562-7.8164-3.5508-11.645-1.0781-3.668 2.3633-4.1367 7.1367-4.1367 11.031 0 14.426 7.4727 35.34 19.164 40.074-0.039063 0.24609-0.14453 0.46875-0.14453 0.72266v26.625c-0.60547-0.71484-1.2344-1.4219-1.9102-2.1055-11.871-11.996-29.695-12.941-30.449-12.973-1.4258-0.023437-2.7891 0.46875-3.7891 1.4688s-1.5391 2.375-1.4727 3.7891c0.035156 0.76172 0.96484 18.727 12.812 30.707 7.9023 7.9844 18.418 11.062 24.809 12.246v45.801c0 0.16797 0.078125 0.30859 0.09375 0.46875h-29.152c-2.7812 0-5.0391 2.2539-5.0391 5.0391 0 2.7812 2.2539 5.0391 5.0391 5.0391l94.953-0.003907c2.7812 0 5.0391-2.2539 5.0391-5.0391 0-2.7812-2.2578-5.0352-5.0391-5.0352zm-46.254-74.422c5.2852-5.3438 12.453-7.8516 17.527-9.0156-1.1445 5.1484-3.6328 12.453-8.957 17.836-5.2852 5.3438-12.453 7.8516-17.527 9.0156 1.1484-5.1484 3.6328-12.453 8.957-17.836zm-37.293 8.8203c-5.332-5.3906-7.8164-12.707-8.9609-17.855 5.0586 1.1523 12.203 3.6523 17.531 9.0352 5.332 5.3906 7.8164 12.707 8.9609 17.855-5.0547-1.1484-12.203-3.6523-17.531-9.0352zm22.68-50.223c-5.5195 0-13.977-16.625-13.977-30.996 0-0.56641 0.015625-1.043 0.039063-1.4492 0.51172 0.22266 1.043 0.46094 1.5078 0.67578 3.1758 1.4375 7.5234 3.4102 12.43 3.4102s9.2539-1.9688 12.43-3.4102c0.46484-0.21094 0.99609-0.45312 1.5078-0.67188 0.023437 0.40234 0.039062 0.87891 0.039062 1.4453 0 14.371-8.457 30.996-13.977 30.996z"/>
 </g>
</svg>