<?xml version="1.0" encoding="UTF-8"?>
<!-- The Best Svg Icon site in the world: iconSvg.co, Visit us! https://iconsvg.co -->
<svg fill="#000000" width="800px" height="800px" version="1.1" viewBox="144 144 512 512" xmlns="http://www.w3.org/2000/svg">
 <path d="m178.79 292.86-14.797 74.078c-0.41797 2.043-0.007813 4.1719 1.1445 5.9141 1.1523 1.7422 2.9492 2.957 4.9961 3.375l28.574 5.7227c9.1211 1.8281 18.582-0.48047 25.836-6.3008l19.781-15.824 13.973 111.51v86.102c0 2.0898 0.83203 4.0898 2.3086 5.5664 1.4766 1.4766 3.4766 2.3086 5.5664 2.3086h31.488c3.8008 0 7.0625-2.7227 7.7461-6.4648l14.562-80.129h88.559c16.449 0 32.586-4.4727 46.691-12.934 11.652-6.9922 24.988-10.684 38.578-10.684h23.617c5.3164 6.8867 11.859 12.727 19.301 17.227l43.141 25.883-14.328 57.316c-0.58984 2.3516-0.058594 4.8477 1.4336 6.7617 1.4961 1.9102 3.7891 3.0273 6.2188 3.0234h31.488c3.5508 0 6.6602-2.3789 7.5977-5.8047l23.617-86.594-0.003907 0.003907c0.84766-3.1172-0.28906-6.4336-2.8711-8.3672l-25.191-18.895c-1.9844-1.4883-3.1484-3.8203-3.1484-6.2969v-86.594c-0.015625-5.3008-0.62891-10.582-1.8281-15.742h9.6992c2.0898 0 4.0898 0.82812 5.5664 2.3047s2.3047 3.4766 2.3047 5.5664v94.465h15.742l0.003906-94.465c0-6.2617-2.4883-12.27-6.918-16.699-4.4297-4.4297-10.438-6.918-16.699-6.918h-15.352c-5.8555-11.805-14.891-21.742-26.082-28.695-11.195-6.9531-24.109-10.645-37.285-10.664h-113.79c-12.113 0.015625-24.098-2.5273-35.164-7.4609l-34.211-15.211c-13.078-5.8281-27.238-8.832-41.555-8.8164h-86.91l-13.438-13.438c-2.25-2.25-5.6367-2.9219-8.5742-1.707-2.9414 1.2188-4.8594 4.0898-4.8633 7.2734v7.8711h-4.6133l-13.438-13.438c-2.25-2.25-5.6328-2.9219-8.5742-1.707-2.9414 1.2188-4.8594 4.0898-4.8633 7.2734v23.617c0.023437 10.887 5.6836 20.984 14.957 26.684zm165.46-19.223 34.211 15.207h0.003906c13.082 5.8359 27.25 8.8398 41.57 8.8203h113.79c14.609 0.015626 28.613 5.8242 38.945 16.156 10.328 10.332 16.141 24.336 16.156 38.945v86.594c0.019531 7.4297 3.5156 14.422 9.4492 18.891l20.906 15.688-20.625 75.629h-15.391l13.297-53.191c0.83984-3.3594-0.61328-6.875-3.582-8.6602l-48.137-28.891c-16.555-9.9883-26.703-27.895-26.766-47.23v-27.34h-15.742v27.324c0.027343 9.5586 1.9961 19.008 5.793 27.781h-14.328c-16.445 0-32.586 4.4688-46.688 12.934-11.656 6.9922-24.992 10.684-38.582 10.684h-87.254v-31.488h-15.742v38.652l-14.438 79.426h-17.051v-78.719c0.003906-0.32812-0.019531-0.65234-0.0625-0.97656l-15.742-125.95h-0.003907c-0.35156-2.8281-2.207-5.2461-4.8477-6.3164-2.6406-1.0742-5.6562-0.63672-7.8789 1.1445l-30.766 24.617c-3.6367 2.8906-8.3594 4.043-12.918 3.1484l-20.852-4.1719 12.934-64.676h72.266c2.0859 0 4.0898-0.83203 5.5664-2.3086 1.4727-1.4766 2.3047-3.4766 2.3047-5.5664v-7.8711c-0.035156-5.543-1.543-10.98-4.3789-15.742h39.441c12.113-0.015625 24.098 2.5273 35.164 7.4609zm-133.18-12.074 2.3047 2.3047c1.4766 1.4766 3.4805 2.3047 5.5664 2.3086h23.617c4.1758 0 8.1797 1.6562 11.133 4.6094s4.6094 6.957 4.6094 11.133h-31.488c-4.1758 0-8.1797-1.6602-11.133-4.6094-2.9492-2.9531-4.6094-6.957-4.6094-11.133zm-31.488 0 2.3047 2.3047c1.4766 1.4766 3.4805 2.3047 5.5664 2.3086h7.8711c0.035156 5.543 1.5469 10.977 4.3789 15.742h-4.3789c-4.1758 0-8.1797-1.6602-11.133-4.6094-2.9492-2.9531-4.6094-6.957-4.6094-11.133z"/>
</svg>