<?xml version="1.0" encoding="UTF-8"?>
<!-- The Best Svg Icon site in the world: iconSvg.co, Visit us! https://iconsvg.co -->
<svg fill="#000000" width="800px" height="800px" version="1.1" viewBox="144 144 512 512" xmlns="http://www.w3.org/2000/svg">
 <g>
  <path d="m351.69 312.86-10.594-11.652 53.609-48.727c3.0039-2.7227 7.5742-2.7266 10.578-0.011718l16.531 14.957-10.562 11.676-11.238-10.168z"/>
  <path d="m486.59 344.89h-141.7v-15.742h121.34l-17.922-16.297 10.594-11.648 32.984 29.992c2.4062 2.1875 3.2188 5.6328 2.043 8.6641-1.1719 3.0312-4.0898 5.0312-7.3438 5.0312z"/>
  <path d="m494.46 376.38h-15.742v-31.488h-133.82v-15.742h141.7c4.3477 0 7.8711 3.5234 7.8711 7.8711z"/>
  <path d="m455.1 392.12h-141.7c-4.3477 0-7.8711-3.5234-7.8711-7.8711v-39.359h15.742v31.488h133.82z"/>
  <path d="m332.67 436.47-15.691-1.3164 4.3281-51.559c0.34375-4.0781 3.7539-7.2148 7.8438-7.2148h125.95v15.742h-118.71z"/>
  <path d="m486.59 581.05h-173.18c-2.2031 0-4.3047-0.92188-5.793-2.543-1.4922-1.6172-2.2383-3.7891-2.0508-5.9844l5.0391-60.145 15.691 1.3164-4.3281 51.613h156.07l-10.707-128.84 15.691-1.3086 11.414 137.37c0.17969 2.1953-0.5625 4.3672-2.0508 5.9844-1.4922 1.6211-3.5898 2.543-5.793 2.543z"/>
  <path d="m325.21 364.57c-2.0156 0-4.0273-0.76953-5.5664-2.3047l-106.27-106.27c-3.0742-3.0742-3.0742-8.0547 0-11.133l35.426-35.426c3.0742-3.0742 8.0547-3.0742 11.133 0l134.53 134.54-11.133 11.133-22.695-22.695-29.859 29.859c-1.5352 1.5352-3.5508 2.3047-5.5625 2.3047zm-95.141-114.14 95.141 95.141 24.293-24.293-95.141-95.141z"/>
  <path d="m289.79 549.57c-2.0156 0-4.0273-0.76953-5.5664-2.3047l-35.426-35.426c-3.0742-3.0742-3.0742-8.0547 0-11.133l134.54-134.53 11.133 11.133-22.695 22.695 29.859 29.859c3.0742 3.0742 3.0742 8.0547 0 11.133l-106.27 106.27c-1.5352 1.5312-3.5508 2.3008-5.5664 2.3008zm-24.293-43.297 24.293 24.293 95.141-95.141-24.293-24.293z"/>
  <path d="m545.63 514.14c-2.0156 0-4.0273-0.76953-5.5664-2.3047l-134.53-134.54 11.133-11.133 22.691 22.695 29.859-29.859c3.0742-3.0742 8.0547-3.0742 11.133 0l106.27 106.27c3.0742 3.0742 3.0742 8.0547 0 11.133l-35.426 35.426c-1.5391 1.5352-3.5547 2.3047-5.5664 2.3047zm-95.145-114.14 95.145 95.141 24.289-24.293-95.141-95.141z"/>
  <path d="m416.66 355.1-11.133-11.133 22.695-22.691-29.859-29.859c-3.0742-3.0742-3.0742-8.0547 0-11.133l106.27-106.27c3.0742-3.0742 8.0547-3.0742 11.133 0l35.426 35.426c3.0742 3.0742 3.0742 8.0547 0 11.133zm-1.5977-69.246 24.293 24.293 95.141-95.141-24.293-24.293z"/>
  <path d="m400 384.25c-13.023 0-23.617-10.594-23.617-23.617 0-13.023 10.594-23.617 23.617-23.617s23.617 10.594 23.617 23.617c-0.003907 13.023-10.598 23.617-23.617 23.617zm0-31.488c-4.3398 0-7.8711 3.5312-7.8711 7.8711 0 4.3398 3.5312 7.8711 7.8711 7.8711s7.8711-3.5312 7.8711-7.8711c0-4.3398-3.5312-7.8711-7.8711-7.8711z"/>
  <path d="m423.61 581.05h-47.23c-4.3477 0-7.8711-3.5234-7.8711-7.8711v-62.977c0-4.3477 3.5234-7.8711 7.8711-7.8711h47.23c4.3477 0 7.8711 3.5234 7.8711 7.8711v62.977c0.003906 4.3477-3.5234 7.8711-7.8711 7.8711zm-39.359-15.742h31.488v-47.23h-31.488z"/>
 </g>
</svg>