<?xml version="1.0" encoding="UTF-8"?>
<!-- The Best Svg Icon site in the world: iconSvg.co, Visit us! https://iconsvg.co -->
<svg fill="#000000" width="800px" height="800px" version="1.1" viewBox="144 144 512 512" xmlns="http://www.w3.org/2000/svg">
 <g>
  <path d="m348.96 522.2c-20.543-7.1797-41.188-14.078-61.57-21.688-7.5156-2.9297-14.691-6.6562-21.41-11.117-5.6875-3.3672-11.809-5.9492-18.191-7.6719-6.5078-1.7969-12.855-4.1211-18.984-6.9531-4.7383-2.0195-8.4961-5.8242-10.457-10.586-1.2148-3.4258-0.43359-5.6367 3.3438-5.9688 2.5508-0.30078 5.1406-0.09375 7.6133 0.60547 2.1367 0.91797 4.6172 0.023438 5.6758-2.0469 0.37891-0.96875 0.35156-2.0508-0.074218-2.9961-0.42969-0.94922-1.2188-1.6836-2.1953-2.043-1.832-1.2305-3.4727-2.7461-5.2656-4.0391v-0.003906c-2.6172-1.1992-3.8359-4.2383-2.7773-6.9141 1.2969-2.8633 3.9766-1.9453 6.3203-1.4727 0.46875 0.09375 0.9375 0.20703 1.4219 0.31641 0.61719-1.7031-0.72656-2.168-1.5742-2.8281h0.003907c-3.707-3.0117-7.0078-6.4883-9.8242-10.344-0.57031-0.40625-0.93359-1.043-0.99219-1.7422-0.054687-0.69531 0.19922-1.3828 0.69531-1.875 0.99609-0.73438 2.3711-0.63672 3.2539 0.22656 2.3242 1.418 5.0156 2.125 7.7344 2.0234 1.2227 0.1875 2.4375-0.36719 3.0938-1.4141 0.14844-1.2031-0.52344-2.3555-1.6406-2.8164-4.1797-3.4844-8.3281-7.0273-12.738-10.195-2.0469-0.87109-3.3711-2.8828-3.3711-5.1055 0.6875-2.1836 2.5898-3.7578 4.8594-4.0234 7.3789-1.7539 14.926-3.0156 22.086-5.4258 19.402-6.5312 39.566-9.9102 59.344-14.859 8.5273-2.293 16.605-6.0195 23.887-11.02 11.461-6.8477 24.141-11.41 37.34-13.43 10.141-2.0391 20.418-3.3242 30.75-3.8438 18.41-1.0469 25.277-8.6406 31.527-25.668v-0.003906c2.4375-8.2812 4.3555-16.711 5.7461-25.23 0.75781-4.2539 1.0625-8.5742 0.90625-12.891 0.050781-7.1797 2.2227-14.176 2.4297-21.254 0.23828-8.2812 2.7461-16.266 2.3555-24.57 0.125-6.9727 1.5078-13.867 4.082-20.348 2.1367-8.8281 5.4961-17.312 9.9883-25.207 4.6094-7.4961 10.887-13.828 18.344-18.5 2.8555-1.8984 6.418-2.3984 9.6875-1.3633 12.398 3.5078 23.824 9.8164 33.398 18.441 7.3008 7.3477 15.852 14.734 18.773 24.848 5.0703 17.547 18.332 28.5 29.82 40.941h0.003906c4.2227 3.3047 8.7305 6.2305 13.469 8.7461 2.4297 1.9453 4.6797 4.1055 6.7109 6.4648 0.91797 0.98828 0.30469 1.8203-0.53516 2.5898-1.1484 1.7344-3.1289 2.7305-5.207 2.6211-8.2617-1.6445-16.715-2.6523-24.73-5.0977-13.445-3.3086-26.039-9.418-36.961-17.926-0.29688-0.17187-0.54688-0.40625-0.73438-0.69141-2.5586-7.8242-6.9453-3.4922-10.887-1.6094-9.4492 4.1914-16.648 12.227-19.777 22.078-3.3359 10.668-3.7148 22.043-1.0859 32.906 3.1367 14.141 8.0547 27.824 14.637 40.727 3.2031 6.0742 7.0391 11.844 10.363 17.895 5.5039 10.348 9.5664 21.395 12.082 32.836 2.2812 9.6992 4.3359 19.488 5.7422 29.344v0.003906c0.8125 9.9766-0.63281 20.008-4.2227 29.348-5.1367 16.113-14.133 30.73-26.211 42.57-4.5859 4.7891-10.008 8.7031-15.996 11.551-4.7344 1.8438-9.1914 4.3398-13.242 7.4141-4.9648 3.2461-10.73 5.0625-16.66 5.25-15.102 3.0977-30.535 4.2617-45.93 3.4688-13.344-1.0039-26.578-3.082-39.586-6.2109-2.7188-0.70312-3.8711-0.71875-3.9609 2.6914 0.58203 6.8984 1.5977 13.75 3.0352 20.523 0.37891 4.0234 1.0664 8.0117 2.0586 11.93 0.41406 5.0664 3.1406 9.6562 7.3984 12.438 5.0469 3.3633 10.383 6.2734 15.941 8.6953 7.6875 2.5664 12.961 8.9023 18.699 14.535 2.8359-1.5938 1.4961-4.7812 2.4102-7.1562 6.0156-15.582 4.25-31.594 2.3711-47.594-0.019531-0.16797-0.023437-0.34375-0.050781-0.51172-0.28516-1.6875-3.8477-2.6211-1.0859-5.043v0.003907c0.69141-0.80078 1.8281-1.0508 2.7891-0.61719 1.8398 1.5625 2.7539 3.9531 2.4297 6.3438 0.11719 9.457 1.0391 18.883 2.7539 28.18 0.89453 4.9531 2.3672 9.7773 3.1445 14.801v0.003906c0.54297 3.7695 2.7344 7.1016 5.9766 9.0977 0.63672-6.0312-1.1953-12.066-5.0781-16.727-0.44141-0.50781-0.625-1.1914-0.49219-1.8516 4.7383-9.9844-0.39844-19.492-1.4414-29.176-0.19531-1.7969-2.8242-2.5938-3.0352-4.9141-0.11328-1.2617-1.4688-2.7695 0.29688-3.4219 0.71875-0.5 1.6289-0.64453 2.4688-0.39453 0.83984 0.25 1.5195 0.86719 1.8516 1.6758 1.1914 2.2344 2.0625 4.6289 2.582 7.1094 0.72656 13.254 9.4922 20.93 19.121 27.871 6.3672 4.5938 13.258 8.4453 19.75 12.898 1.8398 1.2617 0.99609 2.0898 0.96484 3.1523-0.070313 2.3477-1.9102 1.5703-3.0312 1.3164-2.4688-0.55078-4.8945-1.2773-7.2539-2.1797-6.8867-2.6523-11.828 0.75-16.766 4.9297 1.7305 1.3086 3.1445-1.0586 4.8867 0.57031h-0.003906c-4.5078 0.59375-7.8594 4.4688-7.7969 9.0195 0.023437 1.7109-2.6289 1.418-3.8164 0.47656-7.9531-6.3164-15.797-2.125-23.66 0.089844-0.98828 0.27734-1.4766 0.69922-2.3945-0.53906-3.5938-4.8672-15.801-5.3359-21.043-1.5195-5 3.2422-7.0703 9.5234-4.9844 15.105 0.77734 1.3711 0.53906 3.0938-0.57813 4.207-2.0312 0.90625-2.6406-1.3438-3.4219-2.7617-1.7109-3.5352-4.7305-6.2617-8.4219-7.6094-3.1914-1.3008-6.8594-0.1875-8.7969 2.6641-1.1016 1.8477-2.8203 3.25-4.8516 3.9648-1.2461 0.30078-2.3477 2.2617-3.8516 0.98438-0.76562-1.1484-0.80859-2.6328-0.10937-3.8203 3.2734-13.09 5.4844-26.5 11.734-38.688 0.51172-1.2461 0.51953-2.6445 0.019532-3.8945-1.2109-5.9609-2.8516-11.82-4.9102-17.539-3.918-9.9102-4.7305-20.758-9.3867-30.441-1.5234-3.1719 1.6758-2.457 3.0117-3.2344-0.48047 3.9648 2.5352 6.832 3.25 10.422h-0.003907c2.5664 12.02 5.8984 23.859 9.9766 35.453 0.12891 2.0938 1.0703 4.0547 2.625 5.4648 0.23828-0.71094 0.33203-1.4648 0.28516-2.2148-4.1992-13.309-7.2422-26.953-9.1016-40.785-0.097657-4.1055-3.1094-7.5547-7.1602-8.207zm-127.96-60.426c1.5938 3.6172 4.4766 6.5117 8.0859 8.1211 3.6094 1.6094 7.6914 1.8203 11.445 0.58984 4.0312-1.7852 8.043-3.6094 12.102-5.332 10.332-4.3828 19.59-10.875 29.734-15.527 14.781-6.7812 29.918-12.785 44.949-19.012l-0.003906-0.003906c14.086-6.2773 28.887-10.797 44.074-13.461 8.9023-1.3398 18.723-1.3242 26.406-7.7031 0.375-0.48828 0.96484-0.75391 1.5742-0.71875 0.61328 0.039063 1.1641 0.37891 1.4727 0.90625 0.85547 1.5352-0.54688 2.0469-1.418 2.7812-6.6953 5.6406-15.277 5.9219-23.172 7.2109h0.003906c-13.871 1.9375-27.496 5.3672-40.637 10.227-15.051 5.9492-29.77 12.738-44.727 18.934-9.2891 3.8477-17.559 9.5234-26.457 14.062-8.0664 4.1133-16.586 7.1953-25.367 11.031h0.003906c2.7031 2.3125 5.9062 3.9609 9.3594 4.8164 6.5859 1.4648 12.875 4.0352 18.605 7.5977 6.5039 4.5625 13.559 8.2852 20.996 11.086 22.852 7.9961 45.844 15.617 68.809 23.285 17.801 5.2891 36.168 8.4297 54.715 9.3477 8.6289 0.082032 17.246-0.62891 25.742-2.125 10.469-1.0156 20.855-2.0195 29.789-8.5195h0.003906c2.7461-1.6836 5.6016-3.1875 8.543-4.5039 7.4375-4.0742 14.109-9.4062 19.723-15.762 5.8359-6.3594 10.922-13.363 15.16-20.883 6.5625-10.938 10.258-23.352 10.746-36.098-0.19531-11.508-1.7422-22.949-4.6094-34.098-2.7695-13.57-7.5977-26.637-14.312-38.754-11.273-17.684-19.266-37.254-23.598-57.77-0.26172-1.5156-0.56641-2.9648-2.8906-2v-0.003906c-1.7031 0.39453-3.4922-0.042969-4.8164-1.1836-3.668-1.8047-7.7383-2.6445-11.824-2.4375-7.043-0.22266-14.082 0.55078-20.91 2.3008-2.4492 0.22656-4.3789 2.1914-4.5547 4.6484-1.3594 9.2109-4.4062 18.094-8.9805 26.207-4.7031 8.9141-11.289 16.195-22.402 17.109-8.9375 0.73438-17.828 1.8516-26.734 2.8711-16.781 1.9219-33.121 4.8242-47.426 14.664v-0.003906c-3.5781 2.5742-7.3867 4.8086-11.375 6.6875-14.035 6.2266-29.25 8.3555-44.047 11.73-16.004 3.6523-31.633 8.5234-47.453 12.746-3.0195 0.80469-3.3984 1.9609-1.0781 4.0039 3.9531 3.4805 7.8047 7.0859 11.934 10.348v-0.003906c1.6406 0.92969 2.5469 2.7695 2.2773 4.6367-0.56641 1.7773-2.1914 3.0078-4.0547 3.0664-2.2422 0.57031-4.543 0.86719-6.8555 0.89063 2.0781 4.7695 6.4648 6.8594 9.4648 10.254 0.83984 0.94922 2.4648 1.668 1.7773 3.3398-0.89453 1-2.1797 1.5625-3.5195 1.5312-2.4805 1.1094-5.0625-1.3516-8.4922 0.003906 3.2617 2.6914 5.9375 4.9531 8.6719 7.1406l-0.003906 0.003906c2.2344 1.3594 3.4102 3.9492 2.9688 6.5273-0.96484 2.3984-3.2227 4.0273-5.8008 4.1914-3.8555 0.77344-7.793-1.1758-11.617 1.0039zm255.99-164.99c0.56641-7.4102 2.1328-14.711 4.6523-21.707 5.7695-11.082 15.309-19.738 26.898-24.406 1.9766-1.5781 4.457-2.3945 6.9844-2.3008 3.5938 0.67578 5.0938-1.3789 4.9375-5.0508-0.54688-6.8711 1.9297-13.637 6.7852-18.531 1.2617-1.4336 1.3984-3.543 0.32812-5.1289-2.1055-3.6094-4.668-6.9336-7.6211-9.8906-8.1797-11.539-19.664-20.328-32.941-25.215-8.4531-3.6484-16.035-3.7383-22.797 3.6797-5.9883 6.2461-10.699 13.602-13.875 21.648-4.4922 10.566-7.3789 21.742-8.5703 33.16-0.48438 9.1992-3.0234 18.012-3.2773 27.199-0.23047 8.2773-2.5312 16.438-2.0273 25.109 13.738-4.1953 27.262-5.4336 40.523 1.4336zm97.434-19.648c-10.023-7.3242-19.227-15.707-27.453-25-2.0078-2.8945-5.6758-4.1289-9.0234-3.0391-4.9453 1.4648-7.8867-2.6523-6.4492-7.6133 2.1523-4.3125 1.2266-9.5234-2.2773-12.832-3.1367 3.7422-4.793 8.5078-4.6562 13.391-0.36328 4.6133-0.54297 9.2734-6.1445 11.055-1.6523 0.52734-2.0742 2.0117-0.51562 3.0898 4.2656 3.5703 8.8398 6.7617 13.664 9.5312 13.594 6.0391 28.059 9.8906 42.855 11.418zm-139.28 28.734c2.4102-0.22656 4.0195-1.4961 6.0781-1.8242v-0.003907c11.152-2.6562 22.816-2.2227 33.746 1.25 0.48438 0.16406 1 0.22266 1.5117 0.18359 1.8594-0.089844 1.9492-2.082 1.1602-2.3125-2.9766-0.87109-4.1133-3.9609-6.832-5.0195h0.003906c-6.7617-2.3359-13.922-3.2812-21.055-2.7734-8.9688 0.25781-13.145 3.3672-14.617 10.496zm-8.375 257.73v-0.003906c-0.69531 2.3672-0.69922 4.8828-0.019531 7.2539 0.51953 2.5508-0.52734 5.8008 3.332 6.4219 5.1875 1.4219 10.121 3.6367 14.629 6.5703 2.5 1.3555 5.5117 1.3789 8.0352 0.058593-9.9609-4.9102-18.805-11.824-25.977-20.305zm-57.645 11.73c0.23828 3.0547 0.63672 6.0977 1.1797 9.1172 0.21875 0.92969 0.32812 2.7891 2.6289 2.0117 4.1875-1.0078 8.6016 0.11719 11.801 3.0039 5.0859 3.0039 10.473 5.4648 16.074 7.3438-7.875-12.316-22.031-12.004-31.684-21.477zm21.688 21.781c-6.5391-2.2695-10.57-9.7539-18.516-7.6641 1.0977 5.0508 2.1875 10.055 3.3945 15.613 3.543-4.8438 9.1211-7.7773 15.121-7.9492zm-37.473 10.891c2.8633-1.6211 4.9805-4.3008 5.8906-7.4648 0.34375-2.875 1.7227-5.5273 3.8828-7.4609 1.0078-0.37891 1.7969-1.1836 2.1602-2.1953 0.36328-1.0156 0.26172-2.1367-0.27344-3.0703-0.44922-2.4609-1.3984-4.8086-2.793-6.8867-5.5938 8.0977-6.1055 17.492-8.8672 27.078zm17.609 1.7383c-1.2891-4.9219-2.332-9.3398-3.6367-13.676-0.52734-1.7578-1.8125-1.0117-2.7539-0.17969v0.003906c-2.168 2.1641-3.3242 5.1367-3.1914 8.1992 0.58984 2.5508 2.8828 4.3438 5.5 4.2969 1.3867 0.37109 2.75 0.82422 4.0781 1.3555zm62.105-15.008c2-3.3711 5.0039-6.0312 8.5938-7.6094-1.1875-0.96094-2.2305-1.7734-3.2422-2.6289-1.6016-1.6211-4.082-1.9922-6.0898-0.91406-1.1953 1.4922-1.2656 3.5938-0.17578 5.1641 0.47266 1.9648 0.78125 3.9688 0.91406 5.9883zm-17.34-18.535c-1.5703 6.0547-3.0234 11.652-4.4766 17.246 4.1406-4.8984 10.402-9.25 4.4766-17.246z"/>
  <path d="m406.39 436.68c-3.0273-5.0117-5.8594-9.6445-8.625-14.316-0.55078-0.92969-1.7695-2.1289-0.14453-3.0312 1.6562-0.92188 1.8242 0.89844 2.3242 1.7383 2.6914 4.5156 5.3398 9.0625 7.8984 13.652v-0.003906c1.1992 1.0234 1.6523 2.6758 1.1445 4.168-1.4492 0.96094-3.3125 1.0352-4.832 0.18359-1.0898-0.62109-2.3672-0.83594-3.6055-0.60547 3.293 5.4609 6.9609 10.688 10.977 15.645 2.0234 3.2461 4.6602 5.543 2.5352 10.645-1.4844 3.5547 2.5156 8.0859 5.3398 11.5l0.003906-0.003906c7.4336 8.6328 13.848 18.09 19.113 28.191 1.625 2.8086 3.7891 5.2656 6.3711 7.2305 2.0234 1.4844 3.4375 3.6562 3.9766 6.1094-4.8516-2.8555-9.043-6.707-12.301-11.301-5.1406-9.3594-10.988-18.316-17.496-26.785-4.3711-4.7656-7.668-10.418-9.6641-16.57-0.46094-1.4609-1.7344-2.7148 0.48438-4.3516 2.2578-1.6641-0.21094-3.375-1.2852-4.5859-4.5664-5.2812-8.6367-10.973-12.16-17-0.75-1.2422-2.3203-2.5273-0.83984-4.0391 1.5234-1.5547 2.7227 0.51953 4.1055 0.77344 2.2969 0.42969 3.3555 3.4648 6.6797 2.7578z"/>
  <path d="m262.14 401.84c3.4766-2.543 7.6094-4.0391 11.91-4.3008 9.9805-1.6562 20.027-2.8438 29.969-4.8203 8.6328-1.7383 16.852-5.1133 24.215-9.9414 11.891-7.2305 25.16-11.895 38.961-13.688 8.293-1.3633 16.48-3.3516 24.742-4.9258 0.82812-0.15625 2.1992-1.9492 2.707 0.070312 0.40625 1.6055-1.1406 1.5703-2.3633 1.8008-11.109 2.1055-22.188 4.3594-33.301 6.4375v0.003907c-10.094 2.1719-19.73 6.1016-28.469 11.609-14.832 7.8555-31.148 12.508-47.895 13.652-6.9336 0.74609-13.789 2.1211-20.477 4.1016z"/>
  <path d="m271.06 414.59c-1.4258-3.1016 1.0703-3.7852 2.6016-4.8828 7.3086-5.2305 16.078-4.9219 24.387-6.1055 19.836-2.2656 39.238-7.3906 57.609-15.207 5.2266-2.4297 10.25-5.2852 15.008-8.5391 2.2773-2.1367 5.5586-2.8086 8.4922-1.7461-20.641 12.527-43.496 20.965-67.324 24.855-9.8633 1.3906-19.648 3.3477-29.445 5.1797h0.003906c-4.293 1.0781-8.2109 3.3047-11.332 6.4453z"/>
  <path d="m295.61 423.21c30.727-7.625 60.246-19.488 87.707-35.246-10.16 11.723-73.352 36.184-87.707 35.246z"/>
  <path d="m476.83 360.52c6.2617 27.07 12.391 54.188 5.3555 82.082 5.082-27.789-1.8906-54.805-5.3555-82.082z"/>
  <path d="m432.44 441.59c-3.4961-30.137-0.097656-59.887 4.4023-89.582v0.003907c-3.8281 29.695-5.3008 59.648-4.4023 89.578z"/>
  <path d="m493.53 405.71c6.3867 24.797-1.5859 47.402-11.082 69.723h0.003907c4.1914-11.016 7.5039-22.344 9.9062-33.883 2.0391-11.836 2.4336-23.895 1.1719-35.84z"/>
  <path d="m467.53 401.61c-0.74609-10.09-1.7695-20.172-2.168-30.277v0.003907c-0.39844-14.383-1.6836-28.727-3.8477-42.949-0.25-1.5273-1.2148-3.3828 1.0625-3.4805 1.5195-0.066406 1.1094 2.0703 1.2344 3.2812 1.7383 17.215 2.7578 34.473 3.3438 51.77l-0.003906-0.003906c0.83203 7.1914 0.95703 14.445 0.37891 21.656z"/>
  <path d="m422.87 383.24c3.2305-23.695 9.1914-46.934 17.762-69.258 1.3867 1.7305 1.4414 4.1719 0.14062 5.9648-7.918 16.617-10.543 34.82-15.711 52.266-1.0859 3.6758-0.99219 7.4609-2.1914 11.027z"/>
  <path d="m448.5 338.68c3.1797 19.441 3.793 39.215 1.8242 58.812 1.707-19.668-1.5781-39.199-1.8242-58.812z"/>
  <path d="m449.36 430.57c1.0547 12.652-0.43359 25.387-4.3789 37.453 2.2305-12.383 3.6914-24.891 4.3789-37.453z"/>
  <path d="m476.99 484.64c-2.5781 6.2188-3.6562 13.48-10.809 16.43v-0.003906c3.9805-5.2188 7.5938-10.707 10.809-16.426z"/>
  <path d="m457.95 471.76c0.054688 5.6328-1.1094 11.211-3.418 16.352-0.23828-5.6523 0.9375-11.27 3.418-16.352z"/>
  <path d="m444.8 326.49c-1.3672 4.3516-2.7383 8.7031-4.1055 13.059v-0.003906c-0.55469-4.7383 0.94141-9.4844 4.1055-13.055z"/>
  <path d="m496.59 219.05c-7.1797-0.67969-10.5-2.7695-10.285-6.2852v-0.003906c1.4609-3.8242 5.207-6.2852 9.3008-6.1016 4.5781 0.13672 8.2617 3.8203 8.3906 8.4023-0.54688 5.1055-4.4844 3.9688-7.4062 3.9883z"/>
 </g>
</svg>