<?xml version="1.0" encoding="UTF-8"?>
<!-- The Best Svg Icon site in the world: iconSvg.co, Visit us! https://iconsvg.co -->
<svg fill="#000000" width="800px" height="800px" version="1.1" viewBox="144 144 512 512" xmlns="http://www.w3.org/2000/svg">
 <g>
  <path d="m598.56 287.7-196.48-88.773c-1.3203-0.60156-2.832-0.60156-4.1523 0l-196.48 88.773c-1.8008 0.8125-2.9609 2.6133-2.9609 4.5898v50.637c0 1.7031 0.85938 3.293 2.293 4.2227 1.4219 0.93359 3.2344 1.0781 4.7891 0.38281l27.578-12.227-0.003907 261.18c0 2.7852 2.2539 5.0391 5.0391 5.0391h323.66c2.7852 0 5.0391-2.2539 5.0391-5.0391l-0.003906-261.18 27.578 12.227c0.65234 0.28906 1.3438 0.43359 2.0391 0.43359 0.96094 0 1.918-0.27734 2.7461-0.81641 1.4297-0.92969 2.293-2.5195 2.293-4.2227v-50.637c0-1.9766-1.1641-3.7773-2.9648-4.5898zm-355.35 43.137 37.988-16.844v277.46h-37.988zm214.16 136.05h-114.73v-96.988h114.73zm-114.73 10.074h114.73v114.49h-114.73zm124.81-112.1c0-2.7852-2.2539-5.0391-5.0391-5.0391h-124.81c-2.7852 0-5.0391 2.2539-5.0391 5.0391v226.59h-41.285v-281.93l108.73-48.207 109.27 48.449-0.003906 281.68h-41.824zm89.348 226.59h-37.445v-277.21l37.445 16.602zm34.656-256.27-189.41-83.977c-0.64844-0.29297-1.3477-0.43359-2.0391-0.43359-0.69531 0-1.3906 0.14453-2.043 0.43359l-189.41 83.977v-39.641l191.45-86.492 191.45 86.492z"/>
  <path d="m418.55 497.6h-37.105c-2.7852 0-5.0391 2.2539-5.0391 5.0391 0 2.7852 2.2539 5.0391 5.0391 5.0391h37.105c2.7852 0 5.0391-2.2539 5.0391-5.0391 0-2.7852-2.2539-5.0391-5.0391-5.0391z"/>
 </g>
</svg>