<?xml version="1.0" encoding="UTF-8"?>
<!-- The Best Svg Icon site in the world: iconSvg.co, Visit us! https://iconsvg.co -->
<svg fill="#000000" width="800px" height="800px" version="1.1" viewBox="144 144 512 512" xmlns="http://www.w3.org/2000/svg">
 <path d="m203.51 601.52h50.383c2.7852 0 5.0391-2.2539 5.0391-5.0391v-28.539h282.13v28.539c0 2.7812 2.2539 5.0391 5.0391 5.0391h50.383c2.7852 0 5.0391-2.2539 5.0391-5.0391l-0.003906-367.78c0-16.668-13.559-30.23-30.23-30.23-16.668 0-30.23 13.559-30.23 30.23v3.3516h-282.13v-3.3516c0-16.668-13.559-30.23-30.23-30.23-16.668 0-30.23 13.559-30.23 30.23v367.78c0.003906 2.7812 2.2539 5.0391 5.0391 5.0391zm55.422-279.43 38.055 77.633-38.055 77.66zm43.668 89.082 40.641 82.91h-81.266zm5.6055-11.445 43.074-87.906 43.105 87.996-43.066 87.855zm91.789 11.539 40.566 82.812-81.164 0.003906zm5.6133-11.449 43.137-88 43.035 87.855-43.137 87.996zm91.777 11.305 40.637 82.961h-81.305zm43.68 66.258-38.066-77.707 38.066-77.652zm-43.672-89.156-40.566-82.816h81.164zm-97.395 0.14844-40.641-82.961h81.309zm-97.406-0.09375-40.621-82.867h81.227zm-43.66 169.59v-53.711h282.13v53.711zm292.21-329.16c0-11.113 9.0391-20.152 20.152-20.152s20.152 9.0391 20.152 20.152v362.74h-40.305zm-10.074 13.426v53.203h-282.13v-53.203zm-332.52-13.426c0-11.113 9.0391-20.152 20.152-20.152s20.152 9.0391 20.152 20.152v362.74h-40.305z"/>
</svg>