<?xml version="1.0" encoding="UTF-8"?>
<!-- The Best Svg Icon site in the world: iconSvg.co, Visit us! https://iconsvg.co -->
<svg fill="#000000" width="800px" height="800px" version="1.1" viewBox="144 144 512 512" xmlns="http://www.w3.org/2000/svg">
 <g>
  <path d="m596.58 591.45h-128.5c6.3867-4.5508 10.59-11.98 10.59-20.402 0-13.836-11.254-25.086-25.086-25.086-13.832 0-25.086 11.254-25.086 25.086 0 8.4258 4.207 15.852 10.594 20.402h-33.57v-120.69c12.004 9.6641 26.992 15.043 42.594 15.043 28.957 0 54.215-17.852 63.957-44.793 35.797-1.9453 64.336-31.691 64.336-67.949 0-10.945-2.6836-21.781-7.7852-31.508 5.1016-9.7305 7.7852-20.566 7.7852-31.508 0-36.336-28.613-66.109-64.793-67.949-10.07-26.238-35.148-43.613-63.5-43.613-17.871 0-34.938 7.0508-47.629 19.52-12.695-12.473-29.766-19.52-47.633-19.52-28.34 0-53.418 17.371-63.492 43.598-35.887 1.8516-64.516 31.625-64.516 67.965 0 10.941 2.6836 21.777 7.7852 31.508-5.1016 9.7266-7.7852 20.562-7.7852 31.508 0 36.09 28.406 65.824 64.043 67.914 9.7344 26.961 35 44.828 63.965 44.828 15.602 0 30.59-5.3789 42.594-15.043v120.69h-191.93c-2.7812 0-5.0391 2.2539-5.0391 5.0391s2.2539 5.0391 5.0391 5.0391h393.07c2.7812 0 5.0391-2.2539 5.0391-5.0391s-2.2578-5.0391-5.0391-5.0391zm-143-35.414c8.2773 0 15.008 6.7344 15.008 15.012 0 8.2773-6.7344 15.012-15.008 15.012-8.2773 0-15.012-6.7344-15.012-15.012 0.003906-8.2773 6.7344-15.012 15.012-15.012zm-100.73-80.312c-25.719 0-48.008-16.531-55.473-41.133-0.64062-2.1172-2.5859-3.5664-4.793-3.5781-31.797-0.17187-57.664-26.168-57.664-57.957 0-10.129 2.7031-20.152 7.8203-28.984 0.90625-1.5586 0.90625-3.4883 0-5.0469-5.1172-8.832-7.8203-18.852-7.8203-28.984 0-31.969 26.008-57.977 58.027-57.977 2.1836 0 4.1172-1.4023 4.7891-3.4766 7.7969-23.941 29.945-40.031 55.113-40.031 16.801 0 32.77 7.3242 43.82 20.094 1.918 2.2148 5.7109 2.2148 7.6211 0 11.051-12.77 27.02-20.094 43.82-20.094 25.176 0 47.324 16.094 55.113 40.043 0.67578 2.0703 2.9414 3.4648 5.125 3.4648 31.969 0 57.977 26.008 57.977 57.977 0 10.129-2.7031 20.152-7.8203 28.984-0.90625 1.5586-0.90625 3.4883 0 5.0469 5.1172 8.832 7.8203 18.852 7.8203 28.984 0 31.941-25.988 57.941-57.93 57.973-2.2148 0-4.1719 1.4531-4.8164 3.5781-7.4648 24.59-29.754 41.117-55.469 41.117-16.801 0-32.77-7.3242-43.82-20.094-0.039063-0.042969-0.097656-0.058594-0.13672-0.10156-0.33594-0.36328-0.74609-0.63281-1.1758-0.88281-0.16406-0.09375-0.29297-0.23828-0.46484-0.3125-0.62109-0.27734-1.3047-0.44141-2.0273-0.44141-0.72656 0-1.4062 0.16797-2.0312 0.44141-0.17188 0.074219-0.29688 0.21484-0.45703 0.30859-0.43359 0.25391-0.84766 0.52344-1.1836 0.88672-0.039062 0.042968-0.097656 0.058593-0.13672 0.10156-11.059 12.766-27.027 20.094-43.828 20.094z"/>
  <path d="m357.12 390.76c-13.832 0-25.086 11.254-25.086 25.082 0 13.836 11.254 25.086 25.086 25.086 13.832 0 25.086-11.254 25.086-25.086-0.003906-13.828-11.254-25.082-25.086-25.082zm0 40.094c-8.2773 0-15.008-6.7344-15.008-15.012s6.7344-15.008 15.008-15.008c8.2773 0 15.008 6.7305 15.008 15.008s-6.7344 15.012-15.008 15.012z"/>
  <path d="m422.3 337.8c0-13.836-11.254-25.086-25.086-25.086-13.832 0-25.086 11.254-25.086 25.086 0 13.832 11.254 25.082 25.086 25.082 13.832 0 25.086-11.254 25.086-25.082zm-40.098 0c0-8.2773 6.7344-15.012 15.012-15.012 8.2773 0 15.008 6.7344 15.008 15.012 0 8.2773-6.7344 15.008-15.008 15.008-8.2773 0-15.012-6.7344-15.012-15.008z"/>
  <path d="m301.97 317.75c-13.832 0-25.086 11.254-25.086 25.086 0 13.832 11.254 25.082 25.086 25.082s25.086-11.254 25.086-25.082c0-13.832-11.254-25.086-25.086-25.086zm0 40.094c-8.2773 0-15.008-6.7305-15.008-15.008 0-8.2773 6.7344-15.012 15.008-15.012 8.2773 0 15.008 6.7344 15.008 15.012 0 8.2773-6.7305 15.008-15.008 15.008z"/>
  <path d="m341.48 288.11c13.832 0 25.086-11.254 25.086-25.086 0-13.836-11.254-25.086-25.086-25.086-13.832 0-25.086 11.254-25.086 25.086 0 13.832 11.254 25.086 25.086 25.086zm0-40.098c8.2773 0 15.008 6.7344 15.008 15.012s-6.7344 15.012-15.008 15.012c-8.2773 0-15.012-6.7344-15.012-15.012s6.7344-15.012 15.012-15.012z"/>
  <path d="m453.48 296.49c13.832 0 25.086-11.254 25.086-25.086 0-13.836-11.254-25.086-25.086-25.086s-25.086 11.254-25.086 25.086c0.003907 13.832 11.254 25.086 25.086 25.086zm0-40.098c8.2773 0 15.008 6.7344 15.008 15.012s-6.7344 15.012-15.008 15.012c-8.2773 0-15.008-6.7344-15.008-15.012s6.7344-15.012 15.008-15.012z"/>
  <path d="m511.79 357.18c13.832 0 25.086-11.254 25.086-25.086 0-13.832-11.254-25.082-25.086-25.082s-25.086 11.254-25.086 25.082c0 13.832 11.25 25.086 25.086 25.086zm0-40.094c8.2773 0 15.008 6.7305 15.008 15.008 0 8.2734-6.7344 15.008-15.008 15.008-8.2773 0-15.008-6.7344-15.008-15.012-0.003906-8.2734 6.7305-15.004 15.008-15.004z"/>
  <path d="m457.94 378.14c-13.832 0-25.086 11.254-25.086 25.082 0 13.836 11.254 25.086 25.086 25.086s25.086-11.254 25.086-25.086c-0.003907-13.832-11.254-25.082-25.086-25.082zm0 40.094c-8.2773 0-15.008-6.7344-15.008-15.012 0-8.2773 6.7305-15.008 15.008-15.008s15.008 6.7305 15.008 15.008c0 8.2734-6.7344 15.012-15.008 15.012z"/>
  <path d="m497.5 513.64c0 13.836 11.254 25.086 25.086 25.086 13.836 0 25.086-11.25 25.086-25.086 0-13.832-11.254-25.082-25.086-25.082-13.828 0-25.086 11.25-25.086 25.082zm40.098 0c0 8.2773-6.7344 15.012-15.008 15.012-8.2773 0-15.012-6.7344-15.012-15.012 0-8.2773 6.7344-15.008 15.012-15.008 8.2734 0 15.008 6.7305 15.008 15.008z"/>
  <path d="m319.25 526.44c0-13.836-11.254-25.086-25.086-25.086-13.832 0-25.086 11.254-25.086 25.086 0 13.836 11.254 25.086 25.086 25.086 13.836 0.003906 25.086-11.25 25.086-25.086zm-40.094 0c0-8.2773 6.7344-15.012 15.012-15.012 8.2773 0 15.008 6.7344 15.008 15.012s-6.7344 15.012-15.008 15.012c-8.2812 0-15.012-6.7344-15.012-15.012z"/>
 </g>
</svg>