<?xml version="1.0" encoding="UTF-8"?>
<!-- The Best Svg Icon site in the world: iconSvg.co, Visit us! https://iconsvg.co -->
<svg fill="#000000" width="800px" height="800px" version="1.1" viewBox="144 144 512 512" xmlns="http://www.w3.org/2000/svg">
 <path d="m356.7 400h-49.199c-8.6914 0-15.742 7.0547-15.742 15.742v165.96c0 6.3438 3.8086 12.074 9.668 14.516l92.496 38.715c3.8555 1.6211 8.1875 1.6367 12.043 0.046874l94.465-38.715c5.918-2.4258 9.7773-8.1719 9.7773-14.562v-165.96c0-8.6914-7.0547-15.742-15.742-15.742h-51.168v62.977c0 13.035-10.578 23.617-23.617 23.617h-39.359c-13.035 0-23.617-10.578-23.617-23.617v-62.977zm7.8711-165.31v228.29c0 8.6914 7.0547 15.742 15.742 15.742h39.359c8.6914 0 15.742-7.0547 15.742-15.742v-228.29h57.07c8.6914 0 15.742-7.0547 15.742-15.742v-39.359c0-8.6914-7.0547-15.742-15.742-15.742h-184.99c-8.6914 0-15.742 7.0547-15.742 15.742v39.359c0 8.6914 7.0547 15.742 15.742 15.742z" fill-rule="evenodd"/>
</svg>