<?xml version="1.0" encoding="UTF-8"?>
<!-- The Best Svg Icon site in the world: iconSvg.co, Visit us! https://iconsvg.co -->
<svg fill="#000000" width="800px" height="800px" version="1.1" viewBox="144 144 512 512" xmlns="http://www.w3.org/2000/svg">
 <g>
  <path d="m628.29 431.49h-39.363c0-8.4375-4.5-16.234-11.809-20.453-7.3047-4.2188-16.309-4.2188-23.613 0-7.3086 4.2188-11.809 12.016-11.809 20.453h-39.359c-6.2617 0.003907-12.266 2.4961-16.691 6.9219-4.4297 4.4297-6.918 10.43-6.9258 16.691v7.8711l-36.738 0.003906-76.617-57.469c-12.82-9.6602-28.094-15.535-44.086-16.953v-35.789h17.625c16.199-0.019531 31.727-6.4609 43.18-17.914 11.457-11.453 17.898-26.984 17.918-43.184v-41.238c0-2.0859-0.83203-4.0898-2.3086-5.5664-1.4766-1.4766-3.4766-2.3047-5.5664-2.3047h-25.492c-10.84 0.007812-21.477 2.8984-30.832 8.3711-9.3516 5.4727-17.082 13.336-22.395 22.781-5.3125-9.4453-13.043-17.309-22.395-22.781-9.3555-5.4727-19.992-8.3633-30.832-8.3711h-25.492c-4.3477 0-7.875 3.5234-7.875 7.8711v41.238c0.019531 16.199 6.4609 31.73 17.918 43.184 11.453 11.453 26.98 17.895 43.18 17.914h17.625v35.789c-15.992 1.418-31.266 7.293-44.086 16.953l-76.617 57.469h-13.121c-4.3477 0-7.875 3.5234-7.875 7.8711v12.445c0.003906 4.8945 1.5273 9.668 4.3633 13.66 2.832 3.9922 6.832 7.0078 11.453 8.6289l141.85 49.645c4.1797 1.4648 8.5742 2.2148 13 2.2109h57.625c14.648-0.015625 28.93-4.5664 40.887-13.023 11.957-8.457 21.004-20.406 25.902-34.207h43.422c6.2617-0.007812 12.262-2.4961 16.691-6.9258 4.4258-4.4258 6.918-10.43 6.9219-16.691v-7.8711h15.742v15.742h0.003906c0 8.4375 4.5 16.234 11.809 20.453 7.3047 4.2188 16.309 4.2188 23.613 0 7.3086-4.2188 11.809-12.016 11.809-20.453h39.363c2.0859 0 4.0898-0.82813 5.5664-2.3047 1.4727-1.4766 2.3047-3.4766 2.3047-5.5664v-47.23c0-2.0898-0.83203-4.0898-2.3047-5.5664-1.4766-1.4766-3.4805-2.3047-5.5664-2.3047zm-307.01-127.83c0.015625-12.027 4.7969-23.555 13.301-32.055 8.5-8.5039 20.027-13.285 32.055-13.301h17.621v33.367c-0.011718 12.027-4.7969 23.555-13.297 32.055-8.5039 8.5039-20.031 13.285-32.055 13.301h-8.6875l28.602-34.32h-0.003906c2.7852-3.3398 2.332-8.3047-1.0078-11.09-3.3398-2.7812-8.3008-2.332-11.086 1.0078l-25.441 30.527zm-53.281-0.95312 28.602 34.32h-8.6875c-12.023-0.015626-23.551-4.7969-32.055-13.301-8.5-8.5-13.285-20.027-13.297-32.055v-33.367h17.625-0.003906c12.027 0.015625 23.555 4.7969 32.055 13.301 8.5039 8.5 13.285 20.027 13.301 32.055v19.492l-25.441-30.527c-2.7852-3.3438-7.7461-3.793-11.086-1.0078-3.3398 2.7812-3.793 7.7461-1.0078 11.086zm2.9023 115.4c12.285-9.1445 27.191-14.082 42.508-14.082s30.223 4.9375 42.508 14.082l59.828 44.871h-204.67zm176.33 68.484c-0.015625 14.609-5.8281 28.617-16.156 38.949-10.332 10.328-24.34 16.141-38.949 16.156h-57.625c-2.6562 0-5.293-0.44922-7.8008-1.3242l-141.85-49.648c-3.1562-1.1055-5.2656-4.0859-5.2695-7.4297v-4.5742h267.65zm94.465-23.617-23.617 0.003906c-4.3477 0-7.8711 3.5234-7.8711 7.8711v15.742c-0.003906 4.3477-3.5273 7.8672-7.8711 7.8711h-39.809c0.29297-2.6133 0.44531-5.2383 0.44922-7.8711v-7.8711h23.617-0.003906c2.0898 0 4.0898-0.82812 5.5664-2.3047 1.4766-1.4766 2.3047-3.4805 2.3047-5.5664v-15.746c0.007812-4.3438 3.5273-7.8672 7.875-7.8711h39.359zm31.488 31.488c0 4.3477-3.5234 7.875-7.8711 7.875s-7.875-3.5273-7.875-7.875v-62.973c0-4.3477 3.5273-7.875 7.875-7.875s7.8711 3.5273 7.8711 7.875zm47.23-15.742h-31.488v-31.488h31.488z"/>
  <path d="m321.28 431.49c0 4.3477-3.5234 7.8711-7.8711 7.8711s-7.8711-3.5234-7.8711-7.8711c0-4.3477 3.5234-7.875 7.8711-7.875s7.8711 3.5273 7.8711 7.875"/>
  <path d="m281.92 447.23c0 4.3477-3.5234 7.8711-7.8711 7.8711s-7.8711-3.5234-7.8711-7.8711c0-4.3477 3.5234-7.8711 7.8711-7.8711s7.8711 3.5234 7.8711 7.8711"/>
  <path d="m360.64 447.23c0 4.3477-3.5234 7.8711-7.8711 7.8711s-7.8711-3.5234-7.8711-7.8711c0-4.3477 3.5234-7.8711 7.8711-7.8711s7.8711 3.5234 7.8711 7.8711"/>
 </g>
</svg>