<?xml version="1.0" encoding="UTF-8"?>
<!-- The Best Svg Icon site in the world: iconSvg.co, Visit us! https://iconsvg.co -->
<svg fill="#000000" width="800px" height="800px" version="1.1" viewBox="144 144 512 512" xmlns="http://www.w3.org/2000/svg">
 <g>
  <path d="m259.48 454.27v126.38c0 11.512 9.3633 20.875 20.879 20.875h239.29c11.512 0 20.875-9.3633 20.875-20.871v-126.38c0-9.1992-6.0234-16.941-14.309-19.711v-115.9h23.152c1.6562 0 3.207-0.81641 4.1484-2.1797 0.94141-1.3633 1.1523-3.1055 0.5625-4.6562l-41.957-110.11c-0.74609-1.9492-2.6172-3.2383-4.7109-3.2383h-214.82c-2.0898 0-3.9648 1.2891-4.707 3.2422l-41.957 110.11c-0.58984 1.5508-0.37891 3.293 0.5625 4.6562 0.94141 1.3633 2.4883 2.1797 4.1484 2.1797h23.457v115.81c-8.4453 2.6758-14.617 10.488-14.617 19.801zm20.879-10.793h39.543v42.977h-50.34v-32.184c-0.003906-5.9531 4.8398-10.793 10.797-10.793zm195.35-124.82v114.75h-151.11v-114.75zm54.738 222.38h-81.02v-44.508h81.023zm-260.89-44.508h81.328v44.508h-81.328zm125.56-53.051v42.977h-65.141v-42.977zm-34.156 97.559v-44.508h78.387v44.508zm34.156 10.078v40.332h-65.141v-40.336zm10.074 0h65.141l0.003906 40.332h-65.145zm0-64.66v-42.977h65.141v42.977zm-135.63 94.199v-29.539h50.34v40.332h-39.543c-5.9531 0-10.797-4.8398-10.797-10.793zm250.09 10.793h-39.238v-40.336h50.035v29.539c0 5.957-4.8438 10.797-10.797 10.797zm10.797-137.18v32.184h-50.035v-42.977h39.238c5.9531 0 10.797 4.8398 10.797 10.793zm-14.305-20.867h-30.355l-0.003906-114.75h30.355zm-220.07-224.85h207.87l38.121 100.03h-284.11zm18.461 110.11v114.75h-30.355v-114.75z"/>
  <path d="m480.07 234.84c-1-2.6016-3.9258-3.8906-6.5078-2.8867-2.5977 1-3.8906 3.918-2.8867 6.5078l14.422 37.418c0.76562 2.0039 2.6758 3.2266 4.6992 3.2266 0.60547 0 1.2148-0.10938 1.8125-0.33984 2.5977-1 3.8906-3.918 2.8867-6.5078z"/>
 </g>
</svg>