<?xml version="1.0" encoding="UTF-8"?>
<!-- The Best Svg Icon site in the world: iconSvg.co, Visit us! https://iconsvg.co -->
<svg fill="#000000" width="800px" height="800px" version="1.1" viewBox="144 144 512 512" xmlns="http://www.w3.org/2000/svg">
 <path d="m626.25 529.39c-1.9336-20.02-9.7578-34.77-21.461-40.449-11.551-5.6133-27.996-2.5234-45.102 8.4688-8.6875 5.582-16.777 12.707-23.496 20.523-9.2266-19.668-24.598-36.945-42.293-36.945-27.641 0-52.234 44.297-52.234 79.207 0 28.805 23.434 52.234 52.234 52.234 14.582 0 28.312-6.0859 38.113-16.566 4.3164 4.6133 9.4805 8.457 15.34 11.301 7.2266 3.5078 14.984 5.2734 22.781 5.2734 5.7539 0 11.527-0.96094 17.125-2.8984 13.184-4.5586 23.805-13.984 29.902-26.535 7.4531-15.336 10.855-35.383 9.0898-53.613zm-105.44 47.883c1.0078 2.9102 2.2656 5.6914 3.7266 8.332-7.5352 9.0938-18.723 14.43-30.648 14.43-21.965 0-39.836-17.871-39.836-39.836 0-29.973 21.965-66.809 39.836-66.809 11.77 0 25.66 15.02 33.727 36.078-1.6523 2.6133-3.1445 5.2539-4.4297 7.8945-6.0938 12.555-6.9375 26.727-2.375 39.91zm85.191 0.32812c-4.6484 9.5742-12.746 16.758-22.801 20.238-10.055 3.4766-20.863 2.8359-30.434-1.8125-9.5742-4.6484-16.758-12.746-20.238-22.801-3.4805-10.055-2.8359-20.863 1.8125-30.434 6.3477-13.062 18.328-26.129 32.047-34.945 9.4453-6.0703 18.453-9.2812 25.547-9.2812 2.8125 0 5.3203 0.50391 7.4375 1.5312 7.6172 3.6992 13.047 15.098 14.539 30.492 1.5508 16.051-1.4062 33.625-7.9102 47.012zm-36.504-19.184c-3.9141 0-7.082-3.1758-7.082-7.082 0-3.9141 3.1758-7.082 7.082-7.082 3.9141 0 7.082 3.1758 7.082 7.082 0.007812 3.9062-3.168 7.082-7.082 7.082zm-76.16 3.5391c0 3.9141-3.1758 7.082-7.082 7.082-0.60547 0-1.1797-0.097656-1.7383-0.24219 0.33203 0.97656 0.51953 2.0234 0.51953 3.1172 0 5.3789-4.3633 9.7422-9.7422 9.7422-5.3789 0-9.7422-4.3633-9.7422-9.7422 0-5.3789 4.3633-9.7422 9.7422-9.7422 1.4219 0 2.7656 0.3125 3.9844 0.85547-0.054687-0.35156-0.10938-0.71094-0.10938-1.0781 0-3.9141 3.1758-7.082 7.082-7.082 3.9141 0.003906 7.0859 3.1758 7.0859 7.0898zm67.754 10.773c0 5.8711-4.7578 10.625-10.625 10.625-5.8711 0-10.625-4.7578-10.625-10.625 0-5.8711 4.7578-10.625 10.625-10.625 5.8633 0 10.625 4.7539 10.625 10.625zm27.523 4.5039c0 4.8906-3.9648 8.8555-8.8555 8.8555s-8.8555-3.9648-8.8555-8.8555 3.9648-8.8555 8.8555-8.8555c4.8906-0.003906 8.8555 3.9609 8.8555 8.8555zm-96.855-310.05 26.531-79.688h-49.59c-38.762 0-70.191 31.426-70.191 70.191l0.28125 36.238-0.015625 0.015625c0.39844 28.188-6.5391 56.129-20.57 81.445-21.215 38.285-56.062 66.023-98.133 78.094l-103.71 29.844c-5.293 30.711-3.9336 63.066 5.25 95.023l0.67969 2.3242 137.11-39.43 16.27 57.973h-10.141l-8.6289 13.281h88.621l-13.281-13.281h-42.762l-17.301-61.641 37.137-10.691c100.54-28.852 158.64-133.76 129.76-234.28zm-26.805-43.145c-5.4961 0-9.9609-4.4648-9.9609-9.9609s4.4648-9.9609 9.9609-9.9609c5.5117 0 9.9609 4.4648 9.9609 9.9609s-4.4492 9.9609-9.9609 9.9609zm-137.12 90.316 57.652-16.586c-0.25 24.66-6.6133 49.016-18.898 71.199-19.488 35.188-51.508 60.668-90.172 71.77l-96.984 27.895c17.672-71.809 72.227-132.42 148.4-154.28z"/>
</svg>