<?xml version="1.0" encoding="UTF-8"?>
<!-- The Best Svg Icon site in the world: iconSvg.co, Visit us! https://iconsvg.co -->
<svg fill="#000000" width="800px" height="800px" version="1.1" viewBox="144 144 512 512" xmlns="http://www.w3.org/2000/svg">
 <g>
  <path d="m589.26 238.18-27.836-27.832 11.133-11.133-11.133-11.133-16.695 16.691-111.33 111.33-23.363 23.355c-6.3906-2.8398-13.684-2.8398-20.074 0l-17.797-17.789 27.836-27.828c1.4766-1.4766 2.3086-3.4805 2.3086-5.5703 0-2.0898-0.83203-4.0898-2.3086-5.5664l-111.33-111.33c-3.0742-3.0742-8.0547-3.0742-11.129 0l-27.836 27.836-11.133-11.133-11.129 11.133 16.688 16.695 111.33 111.33 23.277 23.277c-3.1484 6.3828-3.1484 13.863 0 20.246l-17.711 17.711-27.828-27.836c-1.4766-1.4766-3.4805-2.3086-5.5664-2.3086-2.0898 0-4.0938 0.83203-5.5703 2.3086l-111.33 111.33c-3.0703 3.0742-3.0703 8.0586 0 11.129l27.836 27.836-11.129 11.133 11.133 11.133 128.02-128.02 23.277-23.277c6.3828 3.1484 13.867 3.1484 20.246 0l17.711 17.711-27.832 27.828c-1.4805 1.4766-2.3086 3.4805-2.3086 5.5703 0 2.0859 0.82812 4.0898 2.3086 5.5664l111.32 111.33c3.0742 3.0703 8.0586 3.0703 11.133 0l27.836-27.836 11.133 11.133 11.133-11.133-128.03-128.02-23.277-23.277c3.1484-6.3828 3.1484-13.863 0-20.246l17.711-17.711 27.828 27.832c1.4766 1.4805 3.4805 2.3086 5.5703 2.3086 2.0898 0 4.0898-0.82812 5.5664-2.3086l111.33-111.32c3.0742-3.0742 3.0742-8.0586 0-11.133zm-239.36 61.23 11.133-11.133-11.133-11.133-11.133 11.133-11.133-11.141 11.133-11.133-11.133-11.133-11.141 11.133-11.133-11.133 11.141-11.133-11.141-11.133-11.133 11.133-11.133-11.129 11.141-11.133-11.133-11.129-11.137 11.129-11.133-11.129 22.27-22.266 100.2 100.2-22.27 22.262zm-11.133 111.32-11.129-11.129-11.133 11.133 11.133 11.133-11.141 11.133-11.133-11.133-11.133 11.133 11.133 11.141-11.133 11.133-11.133-11.141-11.133 11.141 11.133 11.133-11.133 11.129-11.133-11.141-11.133 11.133 11.133 11.141-11.133 11.133-22.258-22.273 100.2-100.2 22.262 22.27zm55.664-44.531c-1.5195-1.4648-2.3867-3.4805-2.4023-5.5938-0.019531-2.1094 0.8125-4.1406 2.3047-5.6328 1.4922-1.4961 3.5234-2.3242 5.6328-2.3047 2.1133 0.015625 4.1289 0.88281 5.5938 2.4023 3.0742 3.0742 3.0742 8.0547 0 11.129-3.1133 2.9766-8.0156 2.9766-11.129 0zm55.664 55.664-11.133 11.129 11.133 11.133 11.133-11.133 11.133 11.141-11.133 11.133 11.133 11.133 11.141-11.133 11.133 11.133-11.141 11.133 11.141 11.133 11.133-11.133 11.141 11.141-11.141 11.133 11.133 11.133 11.141-11.133 11.133 11.133-22.285 22.25-100.2-100.2 22.27-22.262zm22.262-77.934-22.262-22.262 11.133-11.133 11.133 11.133 11.133-11.133-11.133-11.133 11.141-11.133 11.133 11.133 11.133-11.133-11.133-11.141 11.133-11.133 11.133 11.141 11.133-11.141-11.133-11.133 11.141-11.141 11.133 11.141 11.133-11.133-11.133-11.141 11.133-11.133 22.262 22.27z"/>
  <path d="m271.6 509.72-4.9414 79.207h-16.227c-4.3477 0-7.8711 3.5273-7.8711 7.875v31.488c0 2.0859 0.82812 4.0898 2.3047 5.5664 1.4766 1.4727 3.4805 2.3047 5.5664 2.3047h299.14c2.0898 0 4.0898-0.83203 5.5664-2.3047 1.4766-1.4766 2.3047-3.4805 2.3047-5.5664v-31.488c0-2.0898-0.82812-4.0898-2.3047-5.5664-1.4766-1.4766-3.4766-2.3086-5.5664-2.3086h-16.223l-1.5039-24.105-15.742 0.97656 1.4766 23.129h-78.215v-39.359c0-14.062-7.5039-27.055-19.68-34.086-12.18-7.0312-27.184-7.0312-39.359 0-12.18 7.0312-19.684 20.023-19.684 34.086v39.359h-78.215l4.8945-78.23zm270.1 110.7h-283.39v-15.742h283.39zm-118.08-70.848v39.359h-15.742v-61.527c4.5898 1.625 8.5625 4.625 11.383 8.5898 2.8164 3.9688 4.3398 8.7109 4.3594 13.578zm-47.23 0c0.019532-4.8672 1.543-9.6094 4.3633-13.578 2.8164-3.9648 6.793-6.9648 11.379-8.5898v61.527h-15.742z"/>
  <path d="m315.89 344.49c1.9805-0.65625 3.6211-2.0703 4.5586-3.9336l11.809-23.617-14.09-7.0391-10.344 20.695-20.523 6.8398-0.003907 0.003906c-3.043 1.0117-5.168 3.7773-5.3672 6.9805l-1.9688 31.488 15.742 0.97656 1.6367-26.191z"/>
  <path d="m395.96 235.73-13.746 7.8711 7.8242 13.664 9.8398-5.6367 51.324 29.262 7.793-13.68-55.23-31.488h0.003906c-2.4219-1.3828-5.3906-1.3789-7.8086 0.007812z"/>
  <path d="m502.83 353.26 15.715-0.98437 5.9141 94.461-15.715 0.98438z"/>
  <path d="m368.51 478.72h15.742v15.742h-15.742z"/>
  <path d="m415.74 478.72h15.742v15.742h-15.742z"/>
 </g>
</svg>