<?xml version="1.0" encoding="UTF-8"?>
<!-- The Best Svg Icon site in the world: iconSvg.co, Visit us! https://iconsvg.co -->
<svg fill="#000000" width="800px" height="800px" version="1.1" viewBox="144 144 512 512" xmlns="http://www.w3.org/2000/svg">
 <g>
  <path d="m200.61 277.98 13.625 7.8711v0.003907c4.2344-7.2891 12.02-11.785 20.453-11.809v-15.746c-14.051 0.042969-27.023 7.5352-34.078 19.68z"/>
  <path d="m631.11 534.34-57.246-22.043-7.4609-57.199h14.648v-15.742h-16.703l-6.125-47.234h14.957v-15.742h-17.043l-1.8516-14.266 22.547-7.5117v0.003906c1.0352 0.66406 2.2148 1.0781 3.4414 1.2031 0.26172 0.015625 0.52344 0.015625 0.78516 0 2.25 0 4.3945-0.96094 5.8906-2.6445l28.34-31.977c0.10938 0 0.21875 0.046875 0.33984 0.046875h-0.003906c3.7383-0.003906 6.9609-2.6328 7.707-6.2969l8.5586-41.824c1.0977-0.55469 2.0469-1.3672 2.7695-2.3633 1.4766-2.0469 1.8828-4.6836 1.0859-7.082l-13.492-40.488c2.0898-3.2617 1.4961-7.5586-1.4023-10.129l-31.93-28.332c0.17578-3.875-2.4961-7.2969-6.2969-8.0703l-41.816-8.5547c-0.55469-1.0977-1.3672-2.0469-2.3594-2.7734-2.0508-1.4766-4.6875-1.8828-7.0859-1.0859l-40.535 13.5c-1.0391-0.66406-2.2188-1.082-3.4453-1.2109-2.5195-0.25391-5.0078 0.71875-6.6836 2.6133l-28.332 31.93c-3.8789-0.19531-7.3164 2.4844-8.0703 6.2969l-8.5586 41.824h0.003906c-1.0977 0.55859-2.0469 1.3672-2.7734 2.3633-1.4766 2.0469-1.8828 4.6836-1.0859 7.082l13.5 40.5v0.003906c-2.0859 3.2617-1.4922 7.5586 1.4023 10.129l31.93 28.355c-0.17578 3.875 2.4961 7.2969 6.2969 8.0703l28.441 5.8164-1.9453 14.871h-17.051v13.562l-91.535-36.621c-1.8828-0.73828-3.9727-0.73828-5.8555 0l-91.535 36.621v-92.281c0-25.312-13.504-48.703-35.426-61.359-21.918-12.656-48.926-12.656-70.848 0s-35.426 36.047-35.426 61.359v330.62c0 2.0859 0.83203 4.0898 2.3086 5.5664 1.4766 1.4727 3.4766 2.3047 5.5664 2.3047h432.96c2.0859 0 4.0898-0.83203 5.5664-2.3047 1.4766-1.4766 2.3047-3.4805 2.3047-5.5664v-52.746l12.918 4.9766c0.90234 0.34766 1.8594 0.53125 2.8281 0.53516 2.0859 0 4.0898-0.82813 5.5664-2.3047 1.4727-1.4766 2.3047-3.4805 2.3047-5.5664v-31.488c0-3.2578-2.0039-6.1836-5.0469-7.3516zm-88.805-142.22 6.1641 47.23-8.7461 0.003906-14.383-34.52c-0.35156-0.76172-0.82422-1.4609-1.3984-2.0703l1.3906-10.645zm-14.957-15.742 1.2812-9.8633c0.1875 0.16406 0.34766 0.35547 0.55078 0.50391h0.003906c1.3477 0.97656 2.9727 1.4961 4.6367 1.4883 0.84375-0.003907 1.6836-0.13672 2.4844-0.40234l2.7461-0.92188 1.207 9.1953zm23.137 78.719 1.9297 14.816-6.1328-14.816zm1.6758-108.89-5.5117-41.934 21.266 36.676zm30.203-11.637-15.816-27.395-6.7383-11.676 0.003906 0.003907c1.168-1.0312 2.2734-2.1367 3.3047-3.3047l37.613 21.703zm27.703-33.457-39.016-22.523 0.003906 0.007813c0.53516-1.4922 0.98438-3.0156 1.3359-4.5586h43.297zm7.2969-42.82h-44.973c-0.32812-1.543-0.75391-3.0625-1.2656-4.5547l37.477-21.664zm-15.129-40.711-39.078 22.555v-0.003906c-1.0312-1.168-2.1367-2.2695-3.3047-3.3047l5.2969-9.1797 16.406-28.395zm-60.543-33.246 27.078 5.5117-22.523 39.016 0.003906-0.003906c-1.4922-0.51172-3.0156-0.9375-4.5586-1.2656zm-7.8711 58.215c4.1289 0.027344 8.1797 1.1562 11.727 3.2734 3.5625 2.0664 6.5234 5.0273 8.5898 8.5898 2.1406 3.5352 3.2734 7.5938 3.2734 11.73 0 4.1328-1.1328 8.1914-3.2734 11.727-2.0703 3.5664-5.0312 6.5273-8.5977 8.5977-0.34766 0.20313-0.72266 0.27734-1.0781 0.46484l-2.8438-21.82h0.003906c-0.5-3.9336-3.8477-6.8789-7.8086-6.8789-3.9648 0-7.3086 2.9453-7.8086 6.8789l-2.8438 21.82c-0.35547-0.1875-0.73047-0.26172-1.0781-0.46484-3.5664-2.0703-6.5273-5.0312-8.5977-8.5977-2.1406-3.5352-3.2734-7.5938-3.2734-11.727 0-4.1367 1.1328-8.1953 3.2734-11.73 2.0703-3.5664 5.0312-6.5273 8.5977-8.5977 3.5508-2.1172 7.6016-3.2422 11.738-3.2656zm-7.875-59.93v44.973c-1.543 0.32813-3.0625 0.75391-4.5547 1.2656l-21.664-37.477zm-40.711 15.129 22.555 39.078h-0.003907c-1.168 1.0352-2.2695 2.1367-3.3047 3.3047l-37.574-21.703zm-27.703 33.465 39.016 22.523c-0.52734 1.4883-0.96094 3.0117-1.3008 4.5547h-43.297zm-7.2578 42.824h44.973c0.33203 1.543 0.75391 3.0664 1.2656 4.5586l-37.477 21.664zm15.129 40.715 39.078-22.555c1.0352 1.168 2.1367 2.2734 3.3047 3.3047l-21.703 37.574zm33.465 27.691 1.9609-3.3867 20.082-34.785-5.4219 41.578zm10.59 49.672-0.47266 3.6289-9.0703-3.6289zm-329.88-94.461c0-19.688 10.504-37.879 27.551-47.723 17.051-9.8438 38.055-9.8438 55.105 0s27.551 28.035 27.551 47.723v7.8711h-110.21zm0 23.617 110.21-0.003906v47.23l-110.21 0.003907zm0 62.977 110.21-0.003906v11.988l-10.801 4.3125v0.003906c-1.9609 0.78516-3.5234 2.3281-4.3359 4.2812l-11.102 26.648h-83.969zm0 62.977h77.406l-19.68 47.23-57.727-0.003906zm0 62.977 86.594-0.003907v47.23h-86.594zm0 110.2v-47.23h86.594v47.23zm212.54 0h-25.457l25.457-42.43zm-31.488-20.547v-42.43h25.457zm47.234 20.547v-42.43l25.457 42.43zm31.488-20.547-25.457-42.43h25.457zm78.719-66.043v86.59h-62.977v-62.977h15.742l0.003906-15.742h-141.7v15.742h15.742v62.977h-62.973v-116.41l29.535-66.457 88.547-36.895 88.543 36.895 29.535 66.457zm-16.422-105.54c-0.81641-1.8359-2.3047-3.293-4.1641-4.0664l-94.465-39.359v-0.003906c-1.9375-0.80078-4.1172-0.80078-6.0586 0l-94.465 39.359v0.003906c-1.8594 0.77344-3.3477 2.2305-4.1641 4.0664l-29.41 66.172h-14.562l33.551-80.516 112.08-44.828 112.08 44.832 33.551 80.512h-14.566zm95.145 192.12h-62.977v-74.965l62.977 25.191zm23.617-58.695-86.594-33.305v-14.617l86.594 33.305z"/>
  <path d="m344.89 478.72h-31.488c-4.3477 0-7.8711 3.5234-7.8711 7.8711v31.488c0 2.0898 0.82812 4.0898 2.3047 5.5664 1.4766 1.4766 3.4805 2.3047 5.5664 2.3047h31.488c2.0859 0 4.0898-0.82812 5.5664-2.3047 1.4766-1.4766 2.3047-3.4766 2.3047-5.5664v-31.488c0-2.0859-0.82812-4.0898-2.3047-5.5664-1.4766-1.4766-3.4805-2.3047-5.5664-2.3047zm-7.8711 31.488h-15.746v-15.746h15.742z"/>
  <path d="m455.1 478.72c-4.3477 0-7.8711 3.5234-7.8711 7.8711v31.488c0 2.0898 0.82812 4.0898 2.3047 5.5664 1.4766 1.4766 3.4805 2.3047 5.5664 2.3047h31.488c2.0898 0 4.0898-0.82812 5.5664-2.3047 1.4766-1.4766 2.3047-3.4766 2.3047-5.5664v-31.488c0-2.0859-0.82813-4.0898-2.3047-5.5664-1.4766-1.4766-3.4766-2.3047-5.5664-2.3047zm23.617 31.488h-15.742v-15.746h15.742z"/>
  <path d="m415.74 423.61h-31.488c-4.3477 0-7.8711 3.5273-7.8711 7.875v31.488c0 2.0859 0.82813 4.0898 2.3047 5.5664 1.4766 1.4727 3.4805 2.3047 5.5664 2.3047h31.488c2.0898 0 4.0898-0.83203 5.5664-2.3047 1.4766-1.4766 2.3047-3.4805 2.3047-5.5664v-31.488c0-2.0898-0.82812-4.0898-2.3047-5.5664-1.4766-1.4766-3.4766-2.3086-5.5664-2.3086zm-7.8711 31.488h-15.746v-15.742h15.742z"/>
  <path d="m557.44 573.18h15.742v23.617h-15.742z"/>
  <path d="m195.32 400h15.742v15.742h-15.742z"/>
  <path d="m195.32 337.02h15.742v15.742h-15.742z"/>
  <path d="m195.32 462.98h15.742v15.742h-15.742z"/>
  <path d="m195.32 525.95h15.742v15.742h-15.742z"/>
  <path d="m195.32 588.93h15.742v15.742h-15.742z"/>
 </g>
</svg>