<?xml version="1.0" encoding="UTF-8"?>
<!-- The Best Svg Icon site in the world: iconSvg.co, Visit us! https://iconsvg.co -->
<svg fill="#000000" width="800px" height="800px" version="1.1" viewBox="144 144 512 512" xmlns="http://www.w3.org/2000/svg">
 <g>
  <path d="m596.48 546.22h-1.2461v-35.902c0-0.85156-0.89844-85.227-78.594-88.605-23.91-1.043-60.359-5.9609-77.555-12.09-43.672-15.566-63.145-43.785-63.145-91.5 0-0.99609 0.082032-10.668 0.078126-10.672l5.8242-85.695c0.14453-2.125-1.0625-4.1094-3.0156-4.9609-3.8633-1.6797-95.609-40.746-177.51 0.10938-1.8438 0.92188-2.9414 2.8711-2.7695 4.9258l7.1094 85.801 2.1641 21.145c2.3008 22.496 2.8555 29.277 1.6758 51.121-0.94531 17.539-2.543 35.285-4.7422 52.746-2.2695 17.957-1.6133 39.957-0.98438 61.227 0.26562 8.9688 0.53125 17.922 0.58594 26.527l-0.003906 25.824h-0.84766c-2.7852 0-5.0391 2.2539-5.0391 5.0391v45.223c0 2.7812 2.2539 5.0391 5.0391 5.0391h133.29c2.7852 0 5.0391-2.2539 5.0391-5.0391v-23.871c10.762 13.16 32.281 28.906 73.676 28.906h180.97c2.7852 0 5.0391-2.2539 5.0391-5.0391v-45.223c0-2.7812-2.2539-5.0352-5.0391-5.0352zm-387.61-321.78c68.555-32.289 145.99-6.0664 162.67 0.29297l-5.5898 82.34s-0.089844 10.031-0.089844 11.051c0 51.918 22.188 84.008 69.836 100.99 18.082 6.4453 55.863 11.59 80.496 12.668 68.008 2.9609 68.953 75.461 68.957 78.539v35.902l-230.35-0.003906v-86.766c0-0.90625-0.24609-1.8008-0.71484-2.582-0.91016-1.5273-23.395-36.848-137.72-37.961 1.3555-12.82 2.5-25.688 3.1953-38.473 1.2109-22.527 0.59375-30.055-1.7188-52.691l-2.1562-21.051zm5.5625 321.78 0.003906-25.855c-0.054687-8.7148-0.32031-17.746-0.58984-26.797-0.62109-20.887-1.2578-42.484 0.91016-59.664 0.20703-1.6328 0.33594-3.293 0.53125-4.9297 97.766 0.77734 124.98 26.91 129.44 32.156v85.09zm-5.8906 45.223v-35.145h123.21v35.145zm382.89 0h-175.93c-50.516 0-67.527-25.184-72.277-35.145h246.96l1.2461-0.003906z"/>
  <path d="m335.65 368.3c0.32422 0 0.66016-0.03125 0.99219-0.097656 2.7266-0.54688 4.4961-3.1992 3.9492-5.9297-5.9297-29.629 0.015625-92.832 0.074218-93.469 0.26563-2.7695-1.7656-5.2305-4.5312-5.4961-2.8477-0.25-5.2344 1.7695-5.4961 4.5352-0.25391 2.6523-6.1445 65.316 0.074219 96.406 0.48047 2.3945 2.5859 4.0508 4.9375 4.0508z"/>
  <path d="m504.21 465.47c1.6719 0.035156 41.059 1.3242 42.527 40.941 0.097656 2.7148 2.332 4.8516 5.0273 4.8516 0.0625 0 0.12891 0 0.19141-0.003906 2.7812-0.10156 4.9492-2.4414 4.8477-5.2227-1.8242-49.23-51.91-50.633-52.418-50.645h-0.082031c-2.7422 0-4.9805 2.1953-5.0312 4.9414-0.050782 2.7812 2.1562 5.0781 4.9375 5.1367z"/>
 </g>
</svg>