<?xml version="1.0" encoding="UTF-8"?>
<!-- The Best Svg Icon site in the world: iconSvg.co, Visit us! https://iconsvg.co -->
<svg fill="#000000" width="800px" height="800px" version="1.1" viewBox="144 144 512 512" xmlns="http://www.w3.org/2000/svg">
 <g>
  <path d="m400 384.25c-16.699 0.019532-32.707 6.6602-44.512 18.465-11.805 11.809-18.445 27.816-18.465 44.512-0.71094 8.793 2.3047 17.48 8.3047 23.945 9.3984 9.0547 23.898 8.5078 40.691 7.8711 8.9102-0.33984 19.051-0.33984 27.961 0 4.1719 0.14844 8.1953 0.30859 12.043 0.30859 10.254 1.1406 20.547-1.8008 28.645-8.1953 6-6.4609 9.0117-15.141 8.3086-23.93-0.019531-16.695-6.6602-32.703-18.469-44.512-11.805-11.805-27.812-18.445-44.508-18.465zm43.754 75.57c-4.5742 4.4102-15.973 3.9922-29.172 3.4883-4.6562-0.15625-9.5391-0.33594-14.582-0.33594-5.0469 0-9.9258 0.17969-14.578 0.35547-13.18 0.49609-24.594 0.92188-29.172-3.4883l-0.003906-0.003906c-2.7461-3.5938-3.9922-8.1133-3.4805-12.609 0-16.875 9.0039-32.469 23.617-40.902 14.613-8.4375 32.617-8.4375 47.23 0 14.613 8.4336 23.617 24.027 23.617 40.902 0.50781 4.4883-0.73828 9.0039-3.4805 12.594z"/>
  <path d="m368.51 431.49h15.742v15.742h-15.742z"/>
  <path d="m415.74 431.49h15.742v15.742h-15.742z"/>
  <path d="m352.77 368.51h15.742v15.742h-15.742z"/>
  <path d="m431.49 368.51h15.742v15.742h-15.742z"/>
  <path d="m478.72 313.41h-21.254c-15.473-10.285-33.637-15.762-52.215-15.742h-10.527c-18.566-0.015624-36.727 5.4609-52.191 15.742h-21.254c-10.434 0.011719-20.438 4.1641-27.816 11.543-7.3789 7.3789-11.531 17.383-11.543 27.816v31.488c0.003906 3.0703 1.793 5.8594 4.582 7.1445 2.7891 1.2852 6.0742 0.82812 8.4062-1.168l2.7539-2.3633 0.003906 51.492c0.015626 16.695 6.6562 32.703 18.465 44.508 11.805 11.809 27.812 18.449 44.508 18.469h78.723c16.695-0.019532 32.703-6.6602 44.508-18.469 11.809-11.805 18.449-27.812 18.469-44.508v-51.492l2.7539 2.3633c2.3359 1.9961 5.6172 2.4531 8.4062 1.168 2.7891-1.2852 4.5781-4.0742 4.582-7.1445v-31.488c-0.011719-10.434-4.1641-20.438-11.543-27.816-7.3789-7.3789-17.383-11.531-27.816-11.543zm23.617 53.734-42.117-36.094-10.234 11.949 36.605 31.379v64.984c-0.011719 12.523-4.9922 24.527-13.848 33.383-8.8555 8.8555-20.859 13.836-33.383 13.848h-78.723c-12.52-0.011719-24.527-4.9922-33.383-13.848-8.8555-8.8555-13.836-20.859-13.848-33.383v-64.984l36.605-31.379-10.234-11.949-42.113 36.094v-14.375c0-6.2617 2.4844-12.27 6.9141-16.699 4.4297-4.4297 10.438-6.918 16.699-6.918h23.617c1.5547 0 3.0742-0.46094 4.3672-1.3203l1.793-1.1953h0.003906c12.926-8.6367 28.121-13.238 43.664-13.227h10.551c15.543-0.011719 30.742 4.5898 43.664 13.227l1.793 1.1953h0.003906c1.293 0.85938 2.8125 1.3203 4.3672 1.3203h23.617c6.2617 0 12.27 2.4883 16.699 6.918 4.4297 4.4297 6.918 10.438 6.918 16.699z"/>
  <path d="m266.18 533.82h267.65c2.0859 0 4.0898-0.83203 5.5664-2.3086s2.3047-3.4766 2.3047-5.5664v-251.9c0-2.0898-0.82812-4.0898-2.3047-5.5664-1.4766-1.4766-3.4805-2.3047-5.5664-2.3047h-267.65c-4.3477 0-7.875 3.5234-7.875 7.8711v251.9c0 2.0898 0.83203 4.0898 2.3086 5.5664s3.4766 2.3086 5.5664 2.3086zm7.8711-251.91h251.9v236.16h-251.9z"/>
  <path d="m580.36 168.46c-1.1797-2.6289-3.6992-4.4023-6.5742-4.6289l-33-2.5352c-46.152-3.5312-93.078-5.3359-139.47-5.3359h-2.6289c-46.391 0-93.316 1.8008-139.46 5.3594l-33.008 2.5117c-2.875 0.21484-5.4023 1.9805-6.5898 4.6055-1.1875 2.6289-0.84375 5.6914 0.89062 7.9922l21.711 28.938-6.5977 52.742c-11.754 94.203-11.754 189.5 0 283.71l6.5977 52.742-21.711 29c-1.7344 2.3008-2.0781 5.3672-0.89062 7.9922s3.7148 4.3906 6.5898 4.6055l33 2.5352c46.152 3.5586 93.078 5.3594 139.47 5.3594h2.6289c46.391 0 93.316-1.8008 139.46-5.3594l33.008-2.5352c2.875-0.21484 5.4023-1.9805 6.5898-4.6055s0.84766-5.6914-0.89062-7.9922l-21.711-28.938 6.5977-52.742c5.8789-47.156 8.8242-94.637 8.8164-142.16-0.011719-47.328-2.957-94.613-8.8164-141.58l-6.5977-52.742 21.711-28.969c1.7227-2.2969 2.0586-5.3516 0.875-7.9688zm-22.043 453.07-18.703 1.4336c-45.746 3.5273-92.262 5.3125-138.25 5.3125h-2.6289c-45.988 0-92.504-1.7852-138.26-5.3125l-18.703-1.4336 12.598-16.867h291.27zm-307.01-361.44 6.0781-49.031h285.23l6.1328 49.035c5.793 46.496 8.6953 93.312 8.6875 140.17 0 46.676-2.8906 93.305-8.6562 139.62l-6.1641 49.035h-285.23l-6.1641-49.035c-11.59-92.902-11.59-186.88 0-279.79zm294.33-64.777h-291.27l-12.645-16.867 18.711-1.4336c45.746-3.5273 92.262-5.3125 138.25-5.3125h2.6289c45.988 0 92.504 1.7852 138.26 5.3125l18.703 1.4336z"/>
 </g>
</svg>