<?xml version="1.0" encoding="UTF-8"?>
<!-- The Best Svg Icon site in the world: iconSvg.co, Visit us! https://iconsvg.co -->
<svg fill="#000000" width="800px" height="800px" version="1.1" viewBox="144 144 512 512" xmlns="http://www.w3.org/2000/svg">
 <g>
  <path d="m460.46 266.99c-24.688-8.0625-42.824-25.191-48.871-46.352l-2.5195-8.5664c-1.0078-4.0312-5.0391-7.0547-10.078-7.0547-4.5352 0-8.5664 3.0234-9.5742 7.0547l-1.5117 7.0547c-5.0391 21.664-23.176 39.801-48.367 48.367-68.016 23.68-109.83 82.121-103.28 145.6 6.5508 66.504 67.008 120.41 142.58 128.98l-18.633 9.0664c-2.5195 1.0078-3.5273 4.0312-2.5195 6.5508 1.0078 2.0156 2.5195 3.0234 4.5352 3.0234 0.50391 0 1.5117 0 2.0156-0.50391l21.16-9.0703-12.09 22.168c-1.5117 2.5195-0.50391 5.543 2.0156 7.0547 1.0078 0.50391 1.5117 0.50391 2.5195 0.50391 2.0156 0 3.5273-1.0078 4.5352-2.5195l14.609-27.207v31.738c0 3.0234 2.0156 5.0391 5.0391 5.0391 3.0234 0 5.0391-2.0156 5.0391-5.0391v-31.738l14.609 27.207c1.0078 1.5117 2.5195 2.5195 4.5352 2.5195 1.0078 0 1.5117 0 2.5195-0.50391 2.5195-1.5117 3.5273-4.5352 2.0156-7.0547l-12.098-22.168 21.16 9.0703c0.50391 0.50391 1.5117 0.50391 2.0156 0.50391 2.0156 0 4.0312-1.0078 4.5352-3.0234 1.0078-2.5195 0-5.543-2.5195-6.5508l-19.145-8.0625c38.289-4.5352 73.555-20.152 99.754-45.344 27.711-26.199 43.328-60.457 43.328-96.73-0.003906-59.449-42.828-113.36-107.31-134.01zm57.434 223.19c-32.242 30.23-78.09 46.352-125.95 43.832-76.074-4.0312-138.55-56.426-145.1-121.42-6.0469-58.945 32.746-113.36 96.73-135.02 28.719-10.078 49.375-30.73 54.914-55.922l1.5117-6.5508 2.0156 8.0625c6.5508 24.184 27.207 44.336 55.418 53.402 59.953 19.648 100.26 69.527 100.26 124.44 0.003906 32.746-14.102 64.484-39.797 89.172z"/>
  <path d="m447.36 300.25c-23.68-7.5586-35.266-16.625-38.793-29.223-0.50391-2.5195-3.5273-4.0312-6.0469-3.5273s-4.0312 3.5273-3.5273 6.0469c5.543 20.656 27.207 30.23 45.344 36.273 44.84 14.609 75.066 51.891 75.066 92.699 0 24.688-10.578 48.367-29.727 66.504-24.18 22.672-58.438 34.766-94.711 32.75-2.5195 0-5.0391 2.0156-5.543 4.5352 0 3.0234 2.0156 5.0391 4.5352 5.543h8.0625c35.77 0 69.527-12.594 93.707-35.77 21.16-20.152 33.25-46.352 33.25-73.555 0-45.348-32.746-86.66-81.617-102.28z"/>
 </g>
</svg>