<?xml version="1.0" encoding="UTF-8"?>
<!-- The Best Svg Icon site in the world: iconSvg.co, Visit us! https://iconsvg.co -->
<svg fill="#000000" width="800px" height="800px" version="1.1" viewBox="144 144 512 512" xmlns="http://www.w3.org/2000/svg">
 <g>
  <path d="m628.29 494.46h-75.102c5.9648-6.6289 9.9258-14.82 11.414-23.613h16.453c2.0898 0 4.0898-0.83203 5.5664-2.3047 1.4766-1.4766 2.3047-3.4805 2.3047-5.5664v-141.7c0-2.0859-0.82812-4.0898-2.3047-5.5664-1.4766-1.4766-3.4766-2.3047-5.5664-2.3047h-9.375c4.7031-3.332 9.1172-7.0547 13.191-11.133 23.953-23.953 19.168-65.969 18.957-67.746-0.4375-3.5977-3.2734-6.4297-6.8711-6.8633-1.7383-0.21094-42.902-4.8633-67 18.277-6.6914-15.992-17.211-30.098-30.637-41.066-2.8516-2.2383-6.8633-2.2383-9.7148 0-1.4414 1.1016-34.504 27.449-34.504 61.301-0.03125 8.5781 1.0625 17.129 3.2539 25.426-7.0312-5.8242-15.762-9.2031-24.875-9.6289-9.1172-0.42578-18.125 2.125-25.664 7.2656-0.26953-13-6.9453-25.027-17.832-32.137-10.887-7.1094-24.582-8.3867-36.594-3.4062-12.016 4.9805-20.789 15.574-23.453 28.301-0.26172 0-0.51953-0.0625-0.78906-0.0625-9.1992-0.35938-18.219 2.6367-25.375 8.4297-7.1602 5.793-11.973 13.984-13.543 23.059h-8.3125c-4.3477 0-7.8711 3.5234-7.8711 7.8711v95.898l-39.559 6.3516c-6.6641-5.2383-14.941-7.9961-23.418-7.8008-17.656 0-31.488 10.375-31.488 23.617s13.832 23.617 31.488 23.617h62.977c0 2.0859 0.82812 4.0898 2.3047 5.5664 1.4766 1.4727 3.4805 2.3047 5.5664 2.3047h16.453c1.4883 8.793 5.4492 16.984 11.414 23.613h-138.07c-4.3477 0-7.875 3.5273-7.875 7.875v94.465c0 2.0859 0.83203 4.0898 2.3086 5.5664 1.4766 1.4727 3.4766 2.3047 5.5664 2.3047h456.58c2.0859 0 4.0898-0.83203 5.5664-2.3047 1.4727-1.4766 2.3047-3.4805 2.3047-5.5664v-94.465c0-2.0898-0.83203-4.0898-2.3047-5.5664-1.4766-1.4766-3.4805-2.3086-5.5664-2.3086zm-448.71 47.234h94.465v15.742h-94.465zm196.8-31.488v15.742h-62.977v-15.742zm15.035-39.359h80.137c1.4922 8.793 5.4492 16.984 11.414 23.613h-102.96c5.9648-6.6289 9.9258-14.82 11.414-23.613zm142.41 39.359v15.742h-62.977v-15.742zm-86.594 47.23v-15.742h62.977v15.742zm-78.719 0v-15.742h62.977v15.742zm-78.723 0v-15.742h62.977v15.742zm165.31-47.23v15.742h-62.977v-15.742zm-157.44 15.742h-62.977v-15.742h62.977zm0 47.23v15.742l-62.977 0.003906v-15.742zm15.742 0h62.977v15.742l-62.977 0.003906zm78.719 0h62.977v15.742l-62.977 0.003906zm78.719 0h62.977v15.742l-62.973 0.003906zm55.105-15.742v-15.742h62.977v15.742zm78.719-15.742h15.742v15.742h-15.738zm15.742-15.742-70.844-0.003906v-15.742h70.848zm-133.82-62.977c0-8.3516 3.3203-16.363 9.2227-22.266 5.9062-5.9062 13.914-9.2227 22.266-9.2227s16.359 3.3164 22.266 9.2227c5.9062 5.9023 9.2227 13.914 9.2227 22.266 0 8.3477-3.3164 16.359-9.2227 22.262-5.9062 5.9062-13.914 9.2227-22.266 9.2227s-16.359-3.3164-22.266-9.2227c-5.9023-5.9023-9.2227-13.914-9.2227-22.262zm53.75-205.23c13.723-13.715 37-15.059 48.238-14.824 0.25 11.25-1.0625 34.449-14.84 48.223-19.43 19.43-41.547 24.402-49.719 16.941h0.003907c6.6992-12.938 10.07-27.344 9.8008-41.91 0-0.33203-0.054688-0.63672-0.054688-0.96875 2.0469-2.6094 4.2422-5.1016 6.5703-7.4648zm-45.879-36.152c8.1328 7.8086 23.617 25.191 23.617 44.578 0 21.324-7.3047 37.652-15.742 44.145v-28.398c0-2.0859-0.83203-4.0898-2.3086-5.5664-1.4727-1.4766-3.4766-2.3047-5.5664-2.3047-4.3477 0-7.8711 3.5234-7.8711 7.8711v28.402c-8.4375-6.4961-15.742-22.828-15.742-44.145 0-19.383 15.484-36.773 23.613-44.582zm-62.973 76.07c5.0508-0.28906 10.055 1.0977 14.238 3.9453 4.1797 2.8477 7.3086 6.9922 8.8945 11.797h-46.27c1.5859-4.8047 4.7148-8.9492 8.8945-11.797 4.1836-2.8477 9.1875-4.2344 14.242-3.9453zm-62.977-31.488c6.2617 0 12.27 2.4883 16.699 6.9141 4.4258 4.4297 6.9141 10.438 6.9141 16.699 0 6.2656-2.4883 12.27-6.9141 16.699-4.4297 4.4297-10.438 6.918-16.699 6.918-6.2656 0-12.273-2.4883-16.699-6.918-4.4297-4.4297-6.918-10.434-6.918-16.699 0-6.2617 2.4883-12.27 6.918-16.699 4.4258-4.4258 10.434-6.9141 16.699-6.9141zm-39.359 31.488c0.27734 0 0.53516 0.054688 0.78906 0.0625h-0.003906c1.2305 5.7031 3.7188 11.062 7.2891 15.68h-31.211c1.5859-4.8047 4.7148-8.9492 8.8945-11.797 4.1836-2.8477 9.1875-4.2344 14.238-3.9453zm244.03 31.488v15.742h-283.39v-15.746zm-377.86 110.21c0-3.2109 6.1328-7.8711 15.742-7.8711 9.6133 0 15.742 4.6602 15.742 7.8711s-6.1328 7.8711-15.742 7.8711-15.742-4.6602-15.742-7.8711zm45.367 7.8711c1.1875-2.457 1.8242-5.1445 1.8672-7.8711 0-0.39453-0.125-0.78906-0.14844-1.1406l31.637-5.0781v14.09zm49.098-86.594h283.39v94.465h-8.582c-2.4844-14.785-11.855-27.512-25.238-34.277-13.383-6.7656-29.184-6.7656-42.57 0-13.383 6.7656-22.75 19.492-25.238 34.277h-80.137c-2.4883-14.785-11.855-27.512-25.238-34.277-13.383-6.7656-29.188-6.7656-42.57 0s-22.75 19.492-25.238 34.277h-8.582zm23.617 102.34v0.003906c0-8.3516 3.3164-16.363 9.2227-22.266 5.9062-5.9062 13.914-9.2227 22.266-9.2227 8.3516 0 16.359 3.3164 22.266 9.2227 5.9062 5.9023 9.2227 13.914 9.2227 22.266 0 8.3477-3.3164 16.359-9.2227 22.262-5.9062 5.9062-13.914 9.2227-22.266 9.2227-8.3516 0-16.359-3.3164-22.266-9.2227-5.9062-5.9023-9.2227-13.914-9.2227-22.262zm-133.82 47.234h39.359v15.742h-39.359zm0 62.977h39.359v15.742h-39.359zm440.83 15.742h-70.848v-15.742h70.848z"/>
  <path d="m533.82 462.98c0 8.6914-7.0508 15.742-15.746 15.742s-15.742-7.0508-15.742-15.742c0-8.6953 7.0469-15.746 15.742-15.746s15.746 7.0508 15.746 15.746"/>
  <path d="m360.64 462.98c0 8.6914-7.0469 15.742-15.742 15.742-8.6953 0-15.746-7.0508-15.746-15.742 0-8.6953 7.0508-15.746 15.746-15.746 8.6953 0 15.742 7.0508 15.742 15.746"/>
  <path d="m494.46 242.56c4.3477 0 7.8711 4.3477 7.8711 7.8711 0 4.3477-3.5234 7.8711-7.8711 7.8711-4.3477 0-7.8711-4.3477-7.8711-7.8711 0-4.3477 3.5234-7.8711 7.8711-7.8711z"/>
 </g>
</svg>