<?xml version="1.0" encoding="UTF-8"?>
<!-- The Best Svg Icon site in the world: iconSvg.co, Visit us! https://iconsvg.co -->
<svg fill="#000000" width="800px" height="800px" version="1.1" viewBox="144 144 512 512" xmlns="http://www.w3.org/2000/svg">
 <g>
  <path d="m408.92 212.33-0.25391 0.10156c-23.781 10.531-55.367 29.422-55.367 71.59 0 7.0547 0.75391 14.914 1.5117 22.52 1.5625 15.922 3.2227 32.395-1.8125 43.832-8.7656 19.852-28.164 27.406-48.668 35.418-5.8945 2.3164-12.543 4.8867-19.094 7.9102-25.34 11.586-48.82 28.719-69.828 50.934l-0.35156 0.40234-0.003907 142.63h68.215l0.30078-0.15234c53.254-30.582 80.258-63.074 80.258-96.629v-3.2734c-0.050781-28.215-0.050781-63.379 9.168-84.188 11.336-25.746 36.727-35.719 63.531-46.25 8.3125-3.2227 16.879-6.6016 25.543-10.582 31.387-14.258 80.055-49.121 122.63-104.24l0.25391-0.30078-0.003907-29.727zm-117.59 282.54c-6.2969 0-11.438-5.2891-11.438-11.738 0-6.3984 5.1406-11.688 11.438-11.688 6.3477 0 11.488 5.2891 11.488 11.688-0.003906 6.4453-5.1406 11.738-11.488 11.738zm167.77-208.88c-6.3477 0-11.488-5.2383-11.488-11.688s5.1367-11.688 11.488-11.688c6.2969 0 11.488 5.2383 11.488 11.688 0 6.4453-5.1875 11.688-11.488 11.688z"/>
  <path d="m238.32 312.54c4.4844-2.0156 8.9688-3.7773 12.949-5.2891 13.504-5.2891 24.234-9.4727 28.969-20.305 2.7227-6.0977 1.7148-16.223 0.75391-26.047-0.50391-5.2383-1.0586-10.629-1.0586-15.617 0-11.738 3.3242-22.117 9.875-30.934l1.5156-2.0195h-76.277v113.61l1.9648-1.3594c6.9531-4.6836 14.105-8.7656 21.309-12.039zm7.2578-57.688c6.3477 0 11.488 5.2891 11.488 11.688 0 6.4492-5.1406 11.738-11.488 11.738-6.2969 0-11.438-5.2891-11.438-11.738 0-6.3984 5.1367-11.688 11.438-11.688z"/>
  <path d="m516.18 417.88c-6.4492 2.9727-12.746 5.3906-18.793 7.7578-19.852 7.8086-35.57 13.906-42.773 30.277-4.0312 9.168-2.5703 24.082-1.1602 38.441 0.75391 7.5586 1.5117 15.316 1.5117 22.418 0 22.973-14.711 46.047-43.68 68.617l-2.8711 2.2734h70.887l0.25-0.85547c27.66-80.609 77.336-104.74 104.44-111.95l0.95703-0.25v-106.61l-2.168 2.2148c-20.148 20.707-42.57 36.727-66.602 47.66zm26.805 46c-6.3477 0-11.488-5.2383-11.488-11.688 0-6.4492 5.1406-11.688 11.488-11.688 6.2969 0 11.438 5.2383 11.438 11.688 0 6.4453-5.1406 11.688-11.438 11.688z"/>
  <path d="m465.24 353.45c-8.7656 4.0312-17.383 7.4062-25.695 10.684-26.703 10.48-49.523 19.445-59.652 42.32-8.5664 19.398-8.5664 53.656-8.5156 81.164v3.2734c0 33.102-23.477 64.891-69.727 94.465l-3.625 2.3164h97.387l0.35156-0.20312c34.258-23.73 51.641-47.508 51.641-70.684 0-6.75-0.75391-14.309-1.4609-21.664-1.5117-15.367-3.0742-31.234 1.7617-42.27 8.4648-19.195 27.156-26.5 46.957-34.207 5.6445-2.2148 12.09-4.7344 18.391-7.6094 26.047-11.891 50.129-30.027 71.539-53.855l0.35156-0.35156v-102.58l-2.2656 2.7188c-41.562 50.684-87.914 83.082-117.44 96.48zm-36.629 79.504c-6.3477 0-11.488-5.2383-11.488-11.688s5.1367-11.688 11.488-11.688c6.2969 0 11.438 5.2383 11.438 11.688 0 6.4453-5.1367 11.688-11.438 11.688z"/>
  <path d="m487.86 586-0.60547 1.6641h97.688v-105.25l-1.6133 0.50391c-29.871 8.7148-70.684 33.703-95.469 103.08zm62.723-21.562c-6.2969 0-11.488-5.2383-11.488-11.688 0.003906-6.4492 5.1914-11.688 11.488-11.688 6.3477 0 11.488 5.2383 11.488 11.688 0 6.4492-5.1406 11.688-11.488 11.688z"/>
  <path d="m282.06 386.8c6.6992-3.0234 13.199-5.543 19.496-8.0117 20.707-8.1094 37.031-14.461 44.484-31.438 4.2305-9.6211 2.7227-25.09 1.2578-40.055-0.75391-7.8086-1.5625-15.871-1.5625-23.277 0-29.824 13.754-52.547 41.969-69.375l3.9336-2.3125h-89.781l-0.35156 0.35156c-9.4219 8.8164-14.008 19.496-14.008 32.598 0 4.6367 0.50391 9.875 1.0078 14.914 1.0586 10.73 2.168 21.863-1.3086 29.773-6.0469 13.703-19.246 18.844-33.199 24.285-4.1328 1.6133-8.3125 3.2734-12.543 5.1875-8.8164 4.0312-17.531 9.2188-25.895 15.516l-0.50391 0.35156v98.797l2.168-2.1172c19.742-19.289 41.559-34.504 64.836-45.188zm24.535-70.027c6.3477 0 11.488 5.2383 11.488 11.688s-5.1406 11.688-11.488 11.688-11.488-5.2383-11.488-11.688 5.1406-11.688 11.488-11.688z"/>
 </g>
</svg>