<?xml version="1.0" encoding="UTF-8"?>
<!-- The Best Svg Icon site in the world: iconSvg.co, Visit us! https://iconsvg.co -->
<svg fill="#000000" width="800px" height="800px" version="1.1" viewBox="144 144 512 512" xmlns="http://www.w3.org/2000/svg">
 <g>
  <path d="m400 588.93c-71.363 0-125.18-69.336-125.18-161.29 0-0.53516 0-1.0195 0.007813-1.4609-11.945 0.29297-22.609-3.1016-31.918-10.047-25.73-19.18-30.988-59.102-31.195-60.793-0.46875-3.7227 1.7617-7.2578 5.3203-8.4453 37.367-12.457 59.715-7.0547 71.195-1.2695 20.23-49.16 62.266-79.266 111.77-79.266s91.543 30.109 111.78 79.273c11.477-5.793 33.809-11.191 71.195 1.2656 3.5586 1.1875 5.7891 4.7188 5.3203 8.4453-0.20703 1.6914-5.4648 41.613-31.195 60.793-9.3086 6.9453-19.828 10.355-31.918 10.047 0.007812 0.44141 0.007812 0.92578 0.007812 1.4609-0.003906 91.945-53.824 161.28-125.19 161.28zm-116.41-179.44c1.7695 0 3.5117 0.59766 4.9336 1.7383 2.0742 1.668 3.168 4.2734 2.8984 6.9258-0.27734 2.7031-0.49219 3.9336-0.65234 4.8477-0.16797 1.0039-0.20703 1.4609-0.20703 4.6484 0 82.969 47.047 145.54 109.44 145.54 62.391 0 109.44-62.57 109.44-145.54 0-3.1875-0.039062-3.6445-0.20703-4.6484-0.16016-0.91406-0.375-2.1445-0.65234-4.8477-0.26953-2.6523 0.82422-5.2578 2.8984-6.9258 1.8984-1.5156 4.3594-2.0586 6.6797-1.543 0.24609 0.039062 0.48438 0.085937 0.71484 0.13281 11.238 1.8242 20.648-0.23828 28.766-6.2734 14.992-11.145 21.457-32.91 23.84-43.734-42.496-12.242-57.543 3.0781-57.688 3.2422-1.9062 2.0234-4.8047 2.9688-7.4805 2.3711-2.6992-0.58984-4.957-2.4844-5.8438-5.1094-16.523-48.965-54.074-78.207-100.47-78.207s-83.949 29.238-100.47 78.211c-0.89844 2.6836-3.1758 4.6758-5.957 5.2109-2.7891 0.55078-5.6367-0.44922-7.4727-2.6016-0.054687-0.039063-15.09-15.348-57.578-3.1133 2.3828 10.824 8.8477 32.59 23.84 43.734 8.1562 6.0664 17.652 8.0977 28.93 6.2461 0.19141-0.039062 0.375-0.078124 0.53125-0.10547 0.57812-0.13281 1.1719-0.19922 1.7617-0.19922zm-2.1914 0.3125c0.007813 0 0.007813-0.003906 0.015625-0.003906-0.007812 0-0.007812 0.003906-0.015625 0.003906z"/>
  <path d="m362.59 419.52c0 10.727-8.6953 19.426-19.426 19.426-10.727 0-19.426-8.6992-19.426-19.426 0-10.73 8.6992-19.43 19.426-19.43 10.73 0 19.426 8.6992 19.426 19.43"/>
  <path d="m476.26 419.52c0 10.727-8.6953 19.426-19.426 19.426-10.73 0-19.426-8.6992-19.426-19.426 0-10.73 8.6953-19.43 19.426-19.43 10.73 0 19.426 8.6992 19.426 19.43"/>
  <path d="m302.93 337.29c-44.781-11.895-47.148-78.602-41.496-116.14 0.83984-5.5234 5.1055-9.5586 10.641-10.031 5.4414-0.50391 10.625 2.8984 12.398 8.207 11.887 35.754 64.414 68.582 64.938 68.906l-8.2734 13.395c-2.0977-1.2969-46.172-28.812-65.59-63.82-1.8047 29.227 1.707 76.371 31.426 84.27z"/>
  <path d="m497.07 337.29-4.043-15.215c29.719-7.8984 33.234-55.047 31.426-84.27-19.41 35.008-63.492 62.527-65.59 63.82l-8.2734-13.395c0.52344-0.32812 53.051-33.152 64.938-68.902 1.7773-5.3164 6.8945-8.7305 12.398-8.2109 5.5352 0.47266 9.8008 4.5078 10.641 10.031 5.6484 37.539 3.2812 104.24-41.496 116.14z"/>
  <path d="m298.52 503.73-8.0547-13.523c72.684-43.301 146.4-43.309 219.07 0l-8.0547 13.523c-68.277-40.68-134.67-40.68-202.96 0z"/>
  <path d="m381.95 516.8c0 4.9805-4.0391 9.0234-9.0234 9.0234-4.9844 0-9.0234-4.043-9.0234-9.0234 0-4.9844 4.0391-9.0273 9.0234-9.0273 4.9844 0 9.0234 4.043 9.0234 9.0273"/>
  <path d="m436.1 516.8c0 4.9805-4.0391 9.0234-9.0234 9.0234s-9.0234-4.043-9.0234-9.0234c0-4.9844 4.0391-9.0273 9.0234-9.0273s9.0234 4.043 9.0234 9.0273"/>
  <path d="m472.49 370.3c-10.746 0.003907-20.68-3-25.383-12.418-2.8828-5.7578-3.5508-9.5195-3.8828-11.906-2.3438-1.1797-7.7344-3.3086-14.738-6.0742l-13.359-5.3008c-15.406-6.1602-24.16-15.02-26.016-26.336-3.2227-19.727 16.645-37.277 18.926-39.215l10.195 11.992-5.0977-5.9961 5.1133 5.9844c-4.0117 3.4492-15.137 15.391-13.59 24.711 0.90625 5.4844 6.3945 10.277 16.312 14.242l13.293 5.2734c20.219 7.9766 23.324 9.2031 24.492 18.039 0.20703 1.6172 0.47656 3.6289 2.4375 7.5508 3.707 7.4297 28.473 2.4805 44.18-3.7891l5.8438 14.621c-5.1719 2.0625-22.836 8.6211-38.727 8.6211z"/>
 </g>
</svg>