<?xml version="1.0" encoding="UTF-8"?>
<!-- The Best Svg Icon site in the world: iconSvg.co, Visit us! https://iconsvg.co -->
<svg fill="#000000" width="800px" height="800px" version="1.1" viewBox="144 144 512 512" xmlns="http://www.w3.org/2000/svg">
 <g>
  <path d="m566.71 563.5 4.7227-34.801c11.645-85.41 11.645-172.01 0-257.42l-4.7227-34.801c-0.55859-4.5664 1.0938-9.1289 4.4492-12.281 5.5664-5.5781 8.6953-13.141 8.6953-21.023 0-7.8867-3.1289-15.445-8.6953-21.027l-0.56641-0.56641c-5.582-5.5664-13.145-8.6953-21.027-8.6953-7.8828 0-15.445 3.1289-21.027 8.6953-3.2656 3.2695-7.9336 4.7148-12.477 3.8633l-27.551-5.1719c-58.484-11.008-118.51-11.008-177 0l-27.551 5.1719c-4.5391 0.83203-9.2031-0.60937-12.477-3.8633-5.582-5.5664-13.145-8.6953-21.027-8.6953-7.8828 0-15.445 3.1289-21.027 8.6953l-0.56641 0.56641c-5.5664 5.582-8.6914 13.141-8.6914 21.027 0 7.8828 3.125 15.445 8.6914 21.023l0.42578 0.42578c3.1016 3.125 4.5547 7.5234 3.9375 11.879l-3.8086 26.711h-0.003906c-12.215 85.5-12.742 172.26-1.5742 257.9l5.5117 42.391c0.51953 4.5742-1.1602 9.1211-4.5273 12.258-5.5742 5.5742-8.7109 13.141-8.7109 21.027s3.1367 15.449 8.7109 21.023l0.56641 0.56641c5.582 5.5703 13.145 8.6953 21.027 8.6953s15.445-3.125 21.027-8.6953c3.2617-3.2695 7.9297-4.7188 12.469-3.8633l9.3516 1.7617c70.453 13.113 142.95 10.387 212.21-7.9805l2.4492-0.64453c4.8242-1.2773 9.9648 0.10156 13.5 3.6289l7.0859 7.0859-0.003906-0.003906c5.582 5.5703 13.145 8.6953 21.027 8.6953 7.8828 0 15.445-3.125 21.027-8.6953l0.56641-0.56641c5.6094-5.6836 8.7109-13.371 8.6211-21.355-0.09375-7.9844-3.3711-15.602-9.1094-21.152-3.0742-3.1055-4.5273-7.4648-3.9375-11.793zm-6.6836 23.41c5.4609 5.4688 5.4609 14.324 0 19.793l-0.56641 0.56641c-5.5352 5.293-14.254 5.293-19.789 0l-7.0859-7.0859c-5.5898-5.5742-13.168-8.707-21.066-8.707-2.5664 0.003907-5.1211 0.33984-7.6016 1l-2.4492 0.64453c-67 17.762-137.11 20.402-205.25 7.7305l-9.3516-1.7617c-9.6523-1.8242-19.582 1.2461-26.516 8.2031-5.5352 5.293-14.254 5.293-19.789 0l-0.56641-0.56641c-2.6523-2.6211-4.1367-6.1992-4.125-9.9258 0.046874-3.9727 1.7266-7.7461 4.6445-10.441 6.5-6.543 9.6211-15.719 8.4531-24.867l-5.5117-42.391h0.003906c-10.98-84.227-10.449-169.56 1.5742-253.64l3.8086-26.719c1.293-9.2617-1.8203-18.598-8.4141-25.227l-0.42578-0.42578c-5.4648-5.4648-5.4648-14.324 0-19.793l0.56641-0.56641c5.4688-5.457 14.324-5.457 19.789 0 6.9375 6.957 16.863 10.027 26.516 8.2031l27.551-5.1719c56.566-10.637 114.62-10.637 171.18 0l27.551 5.1719h0.003906c9.6484 1.8203 19.574-1.25 26.512-8.2031 5.4688-5.457 14.324-5.457 19.789 0l0.56641 0.56641c2.6367 2.6211 4.1172 6.1875 4.1016 9.9062-0.039062 3.9375-1.6953 7.6914-4.582 10.375-6.5352 6.5898-9.6406 15.848-8.4062 25.047l4.7227 34.801v0.003906c11.457 83.992 11.457 169.15 0 253.15l-4.7227 34.801c-1.2188 9.4336 2.0742 18.891 8.8867 25.527z"/>
  <path d="m281.92 541.7h236.16v-283.39h-236.16zm15.742-267.65h204.68v251.9h-94.465v-15.742h7.8711c14.609-0.015625 28.617-5.8281 38.945-16.16 10.332-10.328 16.141-24.336 16.16-38.945v-7.8711h-23.617c-14.824 0-29.02 5.9922-39.359 16.617v-24.488h7.8711c14.609-0.015625 28.617-5.8281 38.945-16.16 10.332-10.328 16.141-24.336 16.16-38.945v-7.8711h-23.617c-14.824 0-29.02 5.9922-39.359 16.617v-13.602c10.844-12.09 16.645-27.875 16.219-44.109-0.42969-16.234-7.0586-31.691-18.527-43.191l-5.5625-5.5664-5.5664 5.5664c-11.469 11.5-18.098 26.957-18.523 43.191-0.42969 16.234 5.3711 32.02 16.215 44.109v13.602c-10.336-10.625-24.535-16.617-39.359-16.617h-23.617v7.8711c0.019531 14.609 5.8281 28.617 16.16 38.945 10.332 10.332 24.336 16.145 38.945 16.16h7.8711v24.488c-10.336-10.625-24.535-16.617-39.359-16.617h-23.617v7.8711c0.019531 14.609 5.8281 28.617 16.16 38.945 10.332 10.332 24.336 16.145 38.945 16.16h7.8711v15.742h-94.461zm111 220.41c1.8281-8.8828 6.6641-16.863 13.688-22.602 7.0273-5.7344 15.816-8.875 24.887-8.8828h7.0859c-1.8281 8.8828-6.6602 16.863-13.688 22.602-7.0273 5.7344-15.816 8.875-24.887 8.8828zm-6.6289-133.82h-4.0625 0.003906c-4.457-7.793-6.6289-16.684-6.2695-25.652 0.35938-8.9727 3.2344-17.66 8.3008-25.074 5.0625 7.4141 7.9375 16.102 8.2969 25.074 0.35938 8.9688-1.8125 17.859-6.2656 25.652zm6.6289 62.977c1.8281-8.8828 6.6641-16.867 13.688-22.602 7.0273-5.7344 15.816-8.875 24.887-8.8867h7.0859c-1.8281 8.8867-6.6602 16.867-13.688 22.605-7.0273 5.7344-15.816 8.8711-24.887 8.8828zm-17.32 0h-7.082c-9.0703-0.011719-17.859-3.1484-24.887-8.8828-7.0234-5.7383-11.859-13.719-13.688-22.605h7.0859c9.0703 0.011719 17.859 3.1523 24.887 8.8867s11.859 13.719 13.688 22.602zm0 70.848h-7.082c-9.0703-0.007813-17.859-3.1484-24.887-8.8828-7.0234-5.7383-11.859-13.719-13.688-22.602h7.0859c9.0703 0.007813 17.859 3.1484 24.887 8.8828 7.0273 5.7383 11.859 13.719 13.688 22.602z"/>
 </g>
</svg>