<?xml version="1.0" encoding="UTF-8"?>
<!-- The Best Svg Icon site in the world: iconSvg.co, Visit us! https://iconsvg.co -->
<svg fill="#000000" width="800px" height="800px" version="1.1" viewBox="144 144 512 512" xmlns="http://www.w3.org/2000/svg">
 <g>
  <path d="m263.63 407.76h-17.777c-2.7812 0-5.0391 2.2539-5.0391 5.0391 0 2.7852 2.2539 5.0391 5.0391 5.0391h17.777c2.7812 0 5.0391-2.2539 5.0391-5.0391 0-2.7852-2.2578-5.0391-5.0391-5.0391z"/>
  <path d="m596.48 435.04h-20.035c0.59375-13.801 5.5742-116.32 24.898-187.38 0.41406-1.5195 0.09375-3.1406-0.86328-4.3867-0.95312-1.2461-2.4297-1.9727-3.9961-1.9727h-0.011719l-24.582 0.066406c0.28906-8.3359 1.1367-26.867 3.2188-36.832 0.30859-1.4844-0.066406-3.0312-1.0234-4.207-0.96094-1.1758-2.3945-1.8594-3.9141-1.8594h-68.445c-1.5039 0-2.9297 0.67578-3.8867 1.8359-0.96094 1.1602-1.3438 2.6875-1.0586 4.168 0.035156 0.19141 3.4961 18.145 4.4766 36.973h-39.785c-1.8203 0-3.5 0.98438-4.3945 2.5742-0.89062 1.5859-0.85547 3.5312 0.089844 5.0859 44.867 73.617 46.012 156.46 46.02 157.25v28.68l-22.18-0.003906c5.1055-35.383 4.6211-74.5-33.453-81.426-7.1836-1.3125-13.758-1.0117-19.648 0.73047-5.7031-5.875-13.219-9.707-22.988-10.727 0.25-4.0664 0.81641-9.2695 2.0039-12.242 1.0352-2.582-0.22266-5.5156-2.8047-6.5469-2.5938-1.0469-5.5195 0.22266-6.5469 2.8047-1.8281 4.5664-2.4961 11.391-2.75 15.965-9.8555 0.96094-17.438 4.7617-23.184 10.629-5.7773-1.625-12.199-1.8906-19.203-0.60938-38.07 6.9336-38.559 46.043-33.449 81.426h-22.734l1.8789-31.566c0.96484-7.8281-1.4727-15.699-6.6875-21.594-5.1758-5.8555-12.613-9.2109-20.406-9.2109h-11.258v-21.441c4.5 1.8945 9.3359 2.9023 14.332 2.9023 20.344 0 36.895-16.348 36.895-36.441 0-8.5-3.0547-16.723-8.5078-23.223 5.4531-6.5039 8.5078-14.727 8.5078-23.223 0-15.121-9.332-28.395-23.234-33.836 0.34766-1.9141 0.52344-3.8477 0.52344-5.7852-0.003906-18.281-15.055-33.152-33.559-33.152-18.504 0-33.559 14.875-33.559 33.152 0 1.9375 0.17578 3.8711 0.52734 5.7852-13.902 5.4375-23.23 18.715-23.23 33.832 0 8.4961 3.0508 16.719 8.5078 23.223-5.4609 6.5-8.5078 14.723-8.5078 23.223 0 20.094 16.551 36.441 36.895 36.441 4.9961 0 9.832-1.0117 14.332-2.9023v21.441h-11.262c-7.7891 0-15.227 3.3555-20.402 9.2109-5.2148 5.8945-7.6523 13.766-6.7188 21.273l1.8672 31.887h-9.6758c-2.7812 0-5.0391 2.2539-5.0391 5.0391v51.902c0 20.129 5.4805 38.988 14.992 55.215 0.011718 0.03125 0.035156 0.054687 0.046875 0.082031 19.047 32.418 54.262 54.242 94.504 54.242h183.97c40.238 0 75.457-21.824 94.5-54.242 0.011719-0.03125 0.035156-0.054688 0.046875-0.082031 9.5117-16.227 14.992-35.09 14.992-55.215v-51.902c0-2.7852-2.2578-5.0391-5.0391-5.0391zm-361.11-90.984c-14.789 0-26.82-11.828-26.82-26.367 0-7.375 3.2031-14.469 8.7852-19.469 1.0664-0.95312 1.6758-2.3203 1.6758-3.7539s-0.60938-2.793-1.6758-3.7539c-5.582-5.0039-8.7852-12.098-8.7852-19.469 0-12.164 8.3984-22.68 20.422-25.586 1.3867-0.32812 2.5625-1.2344 3.2422-2.4844 0.67969-1.25 0.80078-2.7266 0.33594-4.0703-0.85547-2.457-1.293-4.9727-1.293-7.4844 0-12.719 10.535-23.07 23.48-23.07 12.945 0 23.477 10.352 23.477 23.074 0 2.5195-0.43359 5.0312-1.2891 7.4766-0.46875 1.3438-0.34766 2.8242 0.32812 4.0742 0.67969 1.25 1.8594 2.1562 3.2461 2.4844 12.027 2.9023 20.426 13.422 20.426 25.586 0 7.3711-3.2031 14.465-8.7891 19.469-1.0664 0.96094-1.6758 2.3203-1.6758 3.7539s0.60937 2.8008 1.6758 3.7539c5.5859 5 8.7891 12.094 8.7891 19.469 0 14.539-12.031 26.367-26.82 26.367-5.1445 0-10.027-1.5039-14.332-4.2148l0.003906-78.074c0-2.7852-2.2539-5.0391-5.0391-5.0391-2.7812 0-5.0391 2.2539-5.0391 5.0391v78.07c-4.3008 2.7148-9.1875 4.2188-14.328 4.2188zm335.18 31.219c-6.8711-38.242-18.59-71.344-28.535-94.762-0.011719-0.054687 0-0.10547-0.015625-0.16016-0.15625-3.0664 2.4688-16.5 5.3008-28.84l42.648-0.11328c-10.027 39.477-15.977 86.922-19.398 123.88zm-62.816-166.73h56.488c-1.5391 11.062-2.1836 25.812-2.418 32.852l-18.512 0.050781c-2.3281 0.003906-4.3477 1.6094-4.8867 3.8711-1.7812 7.4844-3.0703 13.395-4.0273 18.188-5.8555-12.297-9.9727-19.344-10.117-19.59-0.90625-1.5312-2.5547-2.4688-4.3359-2.4688h-8.582c-0.64844-13.168-2.4375-25.766-3.6094-32.902zm-37.441 42.977h46.699c8.0664 14.621 48.312 92.148 49.285 183.52h-53v-28.715c-0.023438-3.3711-1.0508-80.918-42.984-154.8zm-24.535 112c17.191 3.1328 33.477 14.199 25.066 71.516h-25.156c0.058594-2.4844 0.14063-4.918 0.14063-7.5078 0-22.848-1.8359-47.602-11.383-64.348 3.4414-0.49219 7.168-0.41797 11.332 0.33984zm-46.047-10.199c17.812 0 36.023 8.8164 36.023 74.207 0 2.5898-0.082031 5.0273-0.14062 7.5078h-71.762c-0.058594-2.4805-0.14062-4.918-0.14062-7.5078-0.003906-65.391 18.207-74.207 36.02-74.207zm-45.469 10.199c3.9531-0.71484 7.5039-0.80469 10.793-0.39844-9.582 16.746-11.422 41.531-11.422 64.41 0 2.5859 0.082031 5.0234 0.14062 7.5078h-24.574c-8.4141-57.32 7.8711-68.391 25.062-71.52zm-132.89 38.719c-0.61328-4.9648 0.92969-9.957 4.2344-13.691 3.2656-3.6914 7.9492-5.8047 12.855-5.8047h32.598c4.9062 0 9.5938 2.1172 12.859 5.8086 3.3008 3.7344 4.8477 8.7227 4.207 14.004l-1.9414 32.48h-62.887zm270.63 189.2h-183.97c-33.055 0-62.309-16.273-80.406-41.156h95.559c2.7812 0 5.0391-2.2539 5.0391-5.0391s-2.2539-5.0391-5.0391-5.0391l-102.07 0.003906c-7.9688-14.301-12.547-30.734-12.547-48.23v-46.863h382.89v41.156h-143.22c-2.7812 0-5.0391 2.2539-5.0391 5.0391s2.2539 5.0391 5.0391 5.0391h143c-0.69531 15.855-5.0273 30.77-12.324 43.863l-164.88-0.003906c-2.7812 0-5.0391 2.2539-5.0391 5.0391s2.2539 5.0391 5.0391 5.0391h158.37c-18.094 24.883-47.352 41.152-80.402 41.152z"/>
  <path d="m341.19 486.28h-76.906c-2.7812 0-5.0391 2.2539-5.0391 5.0391s2.2539 5.0391 5.0391 5.0391h76.906c2.7812 0 5.0391-2.2539 5.0391-5.0391 0-2.7891-2.2578-5.0391-5.0391-5.0391z"/>
 </g>
</svg>