<?xml version="1.0" encoding="UTF-8"?>
<!-- The Best Svg Icon site in the world: iconSvg.co, Visit us! https://iconsvg.co -->
<svg fill="#000000" width="800px" height="800px" version="1.1" viewBox="144 144 512 512" xmlns="http://www.w3.org/2000/svg">
 <g>
  <path d="m230.23 337.18 48.574-21.988h1.2773l48.574 21.988 42.918 46.082 9.2188-8.5859-44.645-47.938-53.352-24.141h-6.707l-53.352 24.141-44.641 47.938 9.2227 8.5859z"/>
  <path d="m545.43 372.97-11.055-17.602c14.664-10.16 24.309-27.09 24.309-46.246v-19.34h46.199v-12.594h-43.16c-3.1602-29.922-28.531-53.316-59.277-53.316-30.746 0-56.121 23.398-59.277 53.316h-43.168v12.594h46.199v19.34c0 19.352 9.8242 36.445 24.746 46.57l-8.2578 16.035c-41.098 16.262-68.562 56.32-68.562 100.58v13.391l-24.961 0.003906v-95.996l-40.305-43.281-46.344-20.973h-6.1562l-46.34 20.973-40.305 43.281v95.992h-12.148v12.594h216.56v18.832h-138.55v12.594h138.55v19.098l-31.258 0.003907v12.594h31.258v22.672h-114.68v12.594h331.32v-124.37c0-43.414-25.59-82.141-65.332-99.344zm-265.99 58.484-24.215-32.969h48.438zm30.359-20.051v61.391l-22.547-30.695zm-38.168 30.688-22.547 30.695v-61.383zm7.8086 10.645 24.219 32.969h-48.43zm42.953-54.25h34.18v87.219h-34.18zm-84.871-41.625 41.559-18.809h0.72656l41.562 18.809 27.035 29.035h-137.92zm-35.207 41.625h34.172v87.219h-34.172zm245.92-4.8789c5.3438-3.6914 11.078-6.9023 17.199-9.4727l30.711 34.824v136.16h12.594l0.003907-135.94 33.781-33.781c4.4844 2.0664 8.7344 4.4648 12.773 7.1289v191.56h-107.06zm54.207-157.14c23.789 0 43.453 17.77 46.547 40.723h-93.094c3.0938-22.953 22.758-40.723 46.547-40.723zm-43.648 72.656v-19.34h87.297v19.34c0 24.066-19.582 43.648-43.645 43.648-24.07-0.003907-43.652-19.578-43.652-43.648zm43.648 56.242c7.3516 0 14.359-1.4609 20.801-4.0352l9.8477 15.684-30.359 30.363-27.93-31.664 7.3203-14.207c6.3125 2.4648 13.148 3.8594 20.32 3.8594zm-95.723 106.95c0-26.156 10.863-50.668 28.918-68.336v180.12h-28.918zm191.45 111.78h-30.277l-0.003906-181.59c18.977 17.734 30.277 42.734 30.277 69.812z"/>
  <path d="m487.91 335.97h27.707v-12.594h-15.113v-27.082h-32.305v12.598h19.711z"/>
  <path d="m511.21 296.29h24.852v12.594h-24.852z"/>
  <path d="m196.02 517.13h41.086v12.594h-41.086z"/>
  <path d="m177.57 548.83h101.88v12.594h-101.88z"/>
  <path d="m295.88 548.83h43.664v12.594h-43.664z"/>
  <path d="m177.57 584.09h88.922v12.594h-88.922z"/>
 </g>
</svg>