<?xml version="1.0" encoding="UTF-8"?>
<!-- The Best Svg Icon site in the world: iconSvg.co, Visit us! https://iconsvg.co -->
<svg fill="#000000" width="800px" height="800px" version="1.1" viewBox="144 144 512 512" xmlns="http://www.w3.org/2000/svg">
 <g>
  <path d="m435.98 459.87c-2.5273-1.1562-5.5195-0.042969-6.6758 2.4922-1.1562 2.5312-0.039062 5.5195 2.4922 6.6758 13.895 6.3398 24.789 16.652 30.68 29.039 0.85938 1.8125 2.668 2.875 4.5508 2.875 0.72656 0 1.4648-0.15625 2.1641-0.48828 2.5117-1.1914 3.5781-4.1992 2.3828-6.7148-6.9062-14.527-19.547-26.555-35.594-33.879z"/>
  <path d="m509.61 562.55c7.6562-13.977 11.723-29.426 11.723-45 0-26.266-11.254-51.398-31.684-70.766-22.016-20.871-52.305-32.965-84.613-34.113v-30.527c5.6875 2.668 11.863 4.0781 18.27 4.0781 23.914 0 43.367-19.453 43.367-43.367 0-10.422-3.8125-20.496-10.602-28.34 6.7891-7.8438 10.602-17.918 10.602-28.34 0-18.281-11.332-34.301-28.117-40.566 0.52734-2.5703 0.79297-5.1719 0.79297-7.7812 0-21.703-17.652-39.355-39.348-39.355s-39.352 17.652-39.352 39.352c0 2.6094 0.26562 5.2109 0.79297 7.7812-16.785 6.2695-28.117 22.285-28.117 40.566 0 10.422 3.8125 20.5 10.602 28.34-6.7891 7.8438-10.602 17.922-10.602 28.34 0 23.914 19.453 43.367 43.367 43.367 6.4023 0 12.582-1.4102 18.27-4.0781v30.547c-0.89063 0.03125-1.7734 0.03125-2.668 0.078125-59.383 3.1719-108.03 44.199-113.16 95.43-1.8867 18.867 2.0625 37.559 11.309 54.383-40.281 6.6484-72.289 16.973-89.902 29.832-2.2461 1.6406-2.7383 4.793-1.0977 7.0391 0.98828 1.3516 2.5234 2.0703 4.0781 2.0703 1.0312 0 2.0703-0.31641 2.9648-0.96875 29.645-21.652 107.47-36.203 193.66-36.203 85.836 0 163.55 14.473 193.39 36.012 2.2617 1.625 5.4062 1.1211 7.0352-1.1367 1.6289-2.2539 1.1211-5.4062-1.1367-7.0352-17.695-12.773-49.672-23.023-89.824-29.637zm-132.92-186.41c-18.355 0-33.293-14.934-33.293-33.293 0-9.3242 3.9883-18.297 10.941-24.613 1.0547-0.95703 1.6523-2.3086 1.6523-3.7305 0-1.418-0.60156-2.7734-1.6523-3.7305-6.9531-6.3164-10.941-15.285-10.941-24.613 0-15.363 10.434-28.648 25.371-32.301 1.3789-0.33594 2.5469-1.2344 3.2266-2.4805 0.67578-1.2422 0.80078-2.7148 0.33984-4.0547-1.0742-3.1172-1.6172-6.3164-1.6172-9.5156 0.003906-16.133 13.137-29.266 29.281-29.266 16.141 0 29.273 13.133 29.273 29.273 0 3.1992-0.54297 6.3984-1.6172 9.5156-0.46094 1.3398-0.33594 2.8125 0.33984 4.0547 0.67969 1.2461 1.8516 2.1445 3.2266 2.4805 14.941 3.6523 25.371 16.934 25.371 32.301 0 9.3242-3.9883 18.297-10.941 24.613-1.0508 0.95313-1.6523 2.3086-1.6523 3.7305 0 1.418 0.59766 2.7734 1.6523 3.7305 6.9531 6.3164 10.941 15.289 10.941 24.613 0 18.355-14.934 33.293-33.293 33.293-6.5703 0-12.812-2.0039-18.27-5.6289l0.003906-95.914c0-2.7812-2.2539-5.0391-5.0391-5.0391-2.7812 0-5.0391 2.2539-5.0391 5.0391v95.902c-5.4531 3.6289-11.691 5.6328-18.266 5.6328zm87.516 180.8c8.5352-11.035 13.211-24.094 13.211-37.512 0-2.7812-2.2539-5.0391-5.0391-5.0391-2.7812 0-5.0391 2.2539-5.0391 5.0391 0 13.246-5.4727 26.16-15.406 36.371-0.0625 0.0625-0.078125 0.14844-0.13672 0.21094-16.609-1.1289-33.902-1.7422-51.66-1.7422-35.551 0-69.27 2.3945-99.074 6.6914-9.582-15.848-13.707-33.734-11.902-51.762 4.6367-46.328 49.203-83.457 103.67-86.371 34.23-1.8359 66.992 9.5664 89.883 31.266 18.406 17.449 28.539 39.984 28.539 63.457 0 15.082-4.2656 30.062-12.309 43.383-11.09-1.5977-22.664-2.957-34.734-3.9922z"/>
 </g>
</svg>