<?xml version="1.0" encoding="UTF-8"?>
<!-- The Best Svg Icon site in the world: iconSvg.co, Visit us! https://iconsvg.co -->
<svg fill="#000000" width="800px" height="800px" version="1.1" viewBox="144 144 512 512" xmlns="http://www.w3.org/2000/svg">
 <g>
  <path d="m473.5 564.26c-6.5664 0-13.176-1.9414-19.648-5.8242-47.324-28.398-47.332-28.398-94.656 0-13.215 7.9258-26.992 7.7617-39.812-0.47656-40.035-25.691-62.047-126.95-54.273-196.92 2.5742-23.164 12-38.688 28.004-46.145 36.801-17.145 96.672 17.035 113.41 27.402 16.734-10.371 76.613-44.527 113.41-27.402 16.004 7.457 25.43 22.98 28.004 46.145 7.7734 69.969-14.238 171.23-54.273 196.92-6.543 4.2031-13.332 6.3008-20.164 6.3008zm-66.984-43.566c14.246 0 28.488 8.0781 55.434 24.242 8.0547 4.8359 15.445 4.7656 23.207-0.23047 31.727-20.355 55.066-110.47 47.125-181.93-1.9531-17.562-8.1641-28.555-18.988-33.605-28.414-13.238-83.555 16.461-102.41 29.012-2.6445 1.7617-6.0898 1.7617-8.7344 0-18.859-12.555-74.016-42.223-102.41-29.012-10.824 5.0508-17.035 16.043-18.988 33.605-7.9414 71.461 15.398 161.57 47.125 181.93 7.7734 4.9961 15.152 5.0664 23.207 0.23047 26.945-16.16 41.191-24.242 55.434-24.242z"/>
  <path d="m429.41 339.82c-11.77-16.309 1.3281-51.598 8.2031-67.402-5.0664-2.332-14.82-5.4023-31.098-5.4023-17.305 0-22.941 43.164-22.953 64.066l-15.742-0.003906c0-8.168 1.082-79.809 38.699-79.809 33.133 0 45.387 11.297 46.672 12.586 2.3594 2.3594 2.9766 5.9531 1.5391 8.9688-8.7266 18.227-18.742 49.195-12.555 57.789z"/>
  <path d="m340.73 302.1c-2.2617 0-4.543-0.12109-6.8555-0.36328-43.934-4.6328-80.344-52.406-81.863-54.438-1.3594-1.8047-1.875-4.1094-1.4219-6.3242 0.45312-2.2109 1.8438-4.1211 3.8047-5.2422 26.551-15.176 51.715-19.094 74.809-11.621 37.699 12.199 55.375 50.34 56.109 51.961 1.4375 3.1719 0.62109 6.9062-2.0078 9.1953-12.867 11.188-27.168 16.832-42.574 16.832zm-70.133-57.098c11.309 12.723 37.137 38.168 64.969 41.082 11.777 1.2539 22.465-1.6641 32.527-8.8398-5.8125-9.875-20.41-30.652-43.852-38.191-16.328-5.2539-34.34-3.2344-53.645 5.9492z"/>
 </g>
</svg>