<?xml version="1.0" encoding="UTF-8"?>
<!-- The Best Svg Icon site in the world: iconSvg.co, Visit us! https://iconsvg.co -->
<svg fill="#000000" width="800px" height="800px" version="1.1" viewBox="144 144 512 512" xmlns="http://www.w3.org/2000/svg">
 <g>
  <path d="m517.34 364.08h-14.055c-4.0312-24.988-8.0469-49.961-12.043-74.918l-3.3242-20.707v-0.95703c-0.37109-5.0859-2.6562-9.8438-6.3945-13.312-3.7422-3.4688-8.6562-5.3906-13.758-5.3789h-183.09c-5.3438 0-10.469 2.125-14.25 5.9023-3.7773 3.7812-5.9023 8.9062-5.9023 14.25v20.152h-15.668v216.69h5.5938c0-19.797 10.562-38.094 27.707-47.992 17.148-9.8984 38.273-9.8984 55.422 0 17.145 9.8984 27.707 28.195 27.707 47.992h44.234c0.082031-1.9727 0.26953-3.9375 0.55469-5.8945v-1.2578c0-1.4609 0.40234-2.9727 0.70703-4.4336l0.30078-1.0586c0.35156-1.5117 0.75391-3.0234 1.2109-4.4844 0.019531-0.23438 0.019531-0.46875 0-0.70312 0.55469-1.5625 1.1602-3.125 1.8125-4.6367 7.0391-15.367 20.703-26.684 37.113-30.73s33.77-0.38672 47.148 9.9453c13.375 10.332 21.309 26.203 21.539 43.105 7.168-0.68359 13.969-3.4844 19.531-8.0547 5.5664-4.5664 9.6406-10.691 11.703-17.59v-82.121c-0.027344-8.957-3.5977-17.543-9.9297-23.875-6.3359-6.3359-14.918-9.9062-23.875-9.9297zm-116.73-42.172h-67.559v-52.898h134.72c5.7773 36.578 11.605 73.172 17.48 109.78h-48.617c-1.8125-10.445-3.6445-20.875-5.4922-31.285v-0.003906c-1.293-7.1602-5.0586-13.641-10.637-18.316-5.5742-4.6758-12.613-7.25-19.895-7.2773z"/>
  <path d="m464.94 460.46c-12.027 0-23.562 4.7773-32.062 13.277-8.5039 8.5039-13.281 20.039-13.281 32.062 0 12.027 4.7773 23.559 13.281 32.062 8.5 8.5039 20.035 13.281 32.062 13.281 12.023 0 23.559-4.7773 32.059-13.281 8.5039-8.5039 13.281-20.035 13.281-32.062 0-12.023-4.7773-23.559-13.281-32.062-8.5-8.5-20.035-13.277-32.059-13.277zm0 70.535v-0.003907c-6.6836 0-13.09-2.6523-17.812-7.3789-4.7266-4.7227-7.3789-11.129-7.3789-17.812 0-6.6797 2.6523-13.086 7.3789-17.812 4.7227-4.7227 11.129-7.375 17.812-7.375 6.6797 0 13.086 2.6523 17.809 7.375 4.7266 4.7266 7.3789 11.133 7.3789 17.812 0 6.6836-2.6523 13.09-7.3789 17.812-4.7227 4.7266-11.129 7.3789-17.809 7.3789z"/>
  <path d="m309.87 460.46c-12.027 0-23.559 4.7773-32.062 13.277-8.5039 8.5039-13.281 20.039-13.281 32.062 0 12.027 4.7773 23.559 13.281 32.062 8.5039 8.5039 20.035 13.281 32.062 13.281 12.027 0 23.559-4.7773 32.062-13.281 8.5039-8.5039 13.281-20.035 13.281-32.062 0-12.023-4.7773-23.559-13.281-32.062-8.5039-8.5-20.035-13.277-32.062-13.277zm0 70.535v-0.003907c-6.6797 0-13.09-2.6523-17.812-7.3789-4.7227-4.7227-7.3789-11.129-7.3789-17.812 0-6.6797 2.6562-13.086 7.3789-17.812 4.7227-4.7227 11.133-7.375 17.812-7.375 6.6797 0 13.09 2.6523 17.812 7.375 4.7227 4.7266 7.3789 11.133 7.3789 17.812 0 6.6836-2.6562 13.09-7.3789 17.812-4.7227 4.7266-11.133 7.3789-17.812 7.3789z"/>
  <path d="m412.49 487.96c0.55469-1.5625 1.1602-3.125 1.8125-4.6367-0.65234 1.5117-1.2578 3.0742-1.8125 4.6367z"/>
  <path d="m409.52 505.8c0.082031-1.9727 0.26953-3.9375 0.55469-5.8945-0.28516 1.957-0.47266 3.9219-0.55469 5.8945z"/>
  <path d="m411.03 493.15c0.35156-1.5117 0.75391-3.0234 1.2109-4.4844-0.45313 1.4609-0.85938 2.9727-1.2109 4.4844z"/>
 </g>
</svg>