<?xml version="1.0" encoding="UTF-8"?>
<!-- The Best Svg Icon site in the world: iconSvg.co, Visit us! https://iconsvg.co -->
<svg fill="#000000" width="800px" height="800px" version="1.1" viewBox="144 144 512 512" xmlns="http://www.w3.org/2000/svg">
 <path d="m610.47 292.23v-0.003906c-0.57031-3.8906-2.8125-7.3203-6.1406-9.4102-3.3242-2.0898-7.3906-2.5938-11.152-1.4219-6.1172 1.9141-10.055 8.4453-9.1641 15.199 0.64844 4.9023-0.054688 8.5547-2.1562 11.164-2.9609 3.6719-8.5117 5.4531-12.109 6.1641-18.625-22.133-46.625-39.312-76.793-44.191-39.703-5.0508-79.867-3.9961-118.9-0.57031l-1.1562-5.6719c-0.26953-1.3242-1.0586-2.4844-2.1953-3.2188-1.1328-0.73438-2.5-0.98438-3.832-0.69141l-13.172 2.9258c-8.9141 1.9805-16.613 5.6562-22.906 9.5938-13.73-7.5039-30.102-11.906-47.703-11.906-17.602 0-33.973 4.4023-47.703 11.906-6.293-3.9414-13.992-7.6133-22.902-9.5938l-13.18-2.9258c-1.3203-0.30078-2.6992-0.042969-3.832 0.69141s-1.9219 1.8984-2.1953 3.2188l-2.6953 13.223c-4.6875 22.992 3.9531 43.336 5.8438 47.406-0.44531 2.9766-0.75 5.9922-0.75 9.0664 0 1.2695 0.082031 2.5195 0.1875 3.7656-4.7617 9.4102-7.1758 19.359-7.1758 29.594 0 30.676 21.977 57.16 53.664 69.645l9.7539 94.562c0.097657 3.4883 1.9375 6.6016 4.9609 8.3828 1.5898 0.93359 3.3477 1.4062 5.1055 1.4062 1.6758 0 3.3516-0.42969 4.8906-1.2852l8.2344-4.5664 8.2305 4.5664c3.1523 1.75 6.8867 1.7031 10-0.12109 3.1094-1.832 4.9648-5.0781 4.9609-8.4102l2.8672-52.68c2.8086 1.0156 5.6367 1.957 8.4922 2.7578l2.707 49.648c0 3.6055 1.8555 6.8555 4.9688 8.6836 3.1016 1.8242 6.8398 1.8789 9.9961 0.12109l8.2305-4.5664 8.2344 4.5664c3.1445 1.75 6.8945 1.7031 9.9961-0.12109 3.1133-1.832 4.9688-5.0781 4.9609-8.4102l2.3555-43.301c28.305 1.9688 56.715 2.1367 84.973 0.55078l2.3164 42.477c0 3.6055 1.8555 6.8555 4.9688 8.6836 1.5898 0.93359 3.3438 1.4062 5.1016 1.4062 1.6758 0 3.3516-0.42969 4.8906-1.2773l8.2344-4.5703 8.2305 4.5664c3.1484 1.75 6.8945 1.7031 10.004-0.12109 3.1094-1.832 4.9648-5.0781 4.9531-8.4102l2.6055-47.922c4.5898-0.92969 9.1758-2.0547 13.707-3.5469l2.793 51.191c0 3.6094 1.8555 6.8555 4.9648 8.6836 1.5938 0.93359 3.3438 1.4062 5.1055 1.4062 1.6719 0 3.3516-0.42969 4.8906-1.2773l8.2344-4.5703 8.2305 4.5664c3.1523 1.75 6.8984 1.7031 10.004-0.12109 3.1094-1.832 4.9648-5.0781 4.9531-8.3594l5.5938-87.047c16.992-18.574 26.711-40.527 26.707-60.449v-13.098c0-9.4531-2.1641-18.98-5.918-28.238 4.7578-2.3086 9.7344-5.7109 13.949-10.727 6.1562-7.3398 9.418-14.781 10.281-23.504 0.4375-5.0586 0.25391-9.6914-0.59766-15.484zm-254.59-19.887 8.168-1.8164 1.6719 8.1953v0.003906c2.1953 10.77 0.90234 21.027-0.95312 28.691-5.1602-11.367-13.59-21.371-24.379-29.219 4.5586-2.4453 9.7539-4.5781 15.492-5.8555zm-155.43 6.3828 1.6719-8.1992 8.168 1.8164c5.7383 1.2773 10.934 3.4141 15.496 5.8555-10.797 7.8555-19.234 17.875-24.395 29.254-1.8594-7.6445-3.1484-17.898-0.94141-28.727zm-1.6875 87.82c0-9.0547 2.25-17.871 6.6875-26.203 0.45703-0.85547 0.65625-1.8281 0.57422-2.7969l-0.054688-0.64844c-0.10937-1.2305-0.22266-2.457-0.22266-3.7109 0-34.695 34.691-62.918 77.332-62.918 42.641 0 77.332 28.223 77.332 62.918 0 1.2852-0.11719 2.5469-0.23047 3.8125l-0.042969 0.54297c-0.082031 0.96875 0.11328 1.9453 0.57031 2.8047 4.4375 8.3359 6.6914 17.152 6.6914 26.203 0 37.078-37.824 67.246-84.32 67.246-46.492-0.003907-84.316-30.168-84.316-67.25zm89.66 163.91-10.676-5.9219c-1.5195-0.84766-3.3672-0.84766-4.8867 0l-10.68 5.9219c0-0.17188-0.011719-0.34375-0.027344-0.51562l-1.7266-16.727h28.934zm60.461-0.003906-10.68-5.9219c-1.5234-0.83594-3.3672-0.83984-4.8906 0.003906l-10.688 5.6484-0.92187-16.969h28.117zm136.03 0.003906-10.676-5.9219c-0.76172-0.42188-1.6055-0.63281-2.4453-0.63281s-1.6836 0.21094-2.4453 0.62891l-10.688 5.6523-0.92187-16.969h28.113zm1.4844-27.32h-29.211l-0.85938-15.805c10.395-0.73828 20.758-1.7305 31.09-2.9531zm64.012 27.32-10.676-5.9219c-1.5234-0.84766-3.3672-0.83984-4.8906-0.003906l-10.688 5.6523-0.92188-16.969h28.281zm32.289-147.16c0.003906 17.68-9.0039 37.469-24.727 54.359-1.0781 0.87891-1.75 2.1758-1.8398 3.5781l-3.9688 61.91h-29.477l-1.6953-31.184c-0.082032-1.6133-0.94531-3.0898-2.3008-3.9609-1.3633-0.875-3.0508-1.0469-4.5664-0.45313-7.418 2.9062-15.031 5.0078-22.441 6.2109-44.375 5.6484-89.703 6.7422-134.73 3.2578-1.3438-0.10156-2.6914 0.34375-3.7109 1.2344-1.0195 0.89453-1.6367 2.1602-1.707 3.5117l-1.1602 21.383h-29.211l-1.4414-26.539c-0.11719-2.2109-1.668-4.082-3.8164-4.6133-10.445-2.582-20.633-6.7461-30.281-12.359-2.3984-1.3984-5.4844-0.58594-6.8867 1.8203-1.3984 2.4062-0.58594 5.4922 1.8203 6.8867 3.5781 2.082 7.2422 3.918 10.949 5.6289l-1.5859 29.176h-30.523l-6.5391-63.41c9.5078 2.6445 19.652 4.1445 30.238 4.1445 52.051 0 94.395-34.688 94.395-77.32 0-10.23-2.4102-20.18-7.1719-29.59 0.10156-1.2461 0.1875-2.5 0.1875-3.7695 0-3.0781-0.30469-6.0938-0.75-9.0703 1.832-3.9375 9.8906-23.023 6.2422-45.012 38.094-3.3008 77.164-4.2773 115.52 0.60547 52.203 8.4414 91.199 54.734 91.191 90.484zm18.352-76.477c-0.65625 6.6133-3.1094 12.145-7.9648 17.934-3.1562 3.7578-6.8984 6.3164-10.52 8.0938-1.8672-3.4844-3.9297-6.9102-6.2461-10.254 4.4727-1.4297 9.7188-3.9727 13.375-8.5117 3.8672-4.8047 5.3125-11.133 4.2969-18.801-0.24609-1.8984 0.73438-3.8086 2.1875-4.2617 1.3047-0.40625 2.3008 0.035156 2.7852 0.33594 0.82812 0.52344 1.3867 1.3789 1.5312 2.3477 0.73047 4.9922 0.89453 8.9414 0.55469 13.117zm-359.81 30.535c0-4.7695 3.8672-8.6367 8.6367-8.6367 4.7695 0 8.6367 3.8672 8.6367 8.6367 0 4.7695-3.8672 8.6367-8.6367 8.6367-4.7695 0-8.6367-3.8672-8.6367-8.6367zm66.422 0c0-4.7695 3.8672-8.6367 8.6367-8.6367s8.6367 3.8672 8.6367 8.6367c0 4.7695-3.8672 8.6367-8.6367 8.6367s-8.6367-3.8672-8.6367-8.6367zm15.75 50.219c0-14.328-17.711-25.551-40.324-25.551-22.613 0-40.328 11.227-40.328 25.551 0 14.332 17.715 25.555 40.328 25.555 22.613 0 40.324-11.223 40.324-25.555zm-70.574 0c0-7.3203 12.422-15.477 30.25-15.477 17.824 0 30.25 8.1562 30.25 15.477 0 7.3203-12.422 15.477-30.25 15.477s-30.25-8.1562-30.25-15.477zm21.395-9.7734c-4.1289 0-7.0117 4.0156-7.0117 9.7695 0 5.75 2.8828 9.7695 7.0117 9.7695s7.0117-4.0195 7.0117-9.7695-2.8828-9.7695-7.0117-9.7695zm-1.5664 9.7734c0.89844-0.36719 2.2305-0.36719 3.1289 0-0.89844 0.36719-2.2266 0.36719-3.1289 0zm19.273 9.7695c4.1289 0 7.0117-4.0195 7.0117-9.7695 0-5.7539-2.8828-9.7695-7.0117-9.7695s-7.0117 4.0156-7.0117 9.7695c0.003906 5.75 2.8867 9.7695 7.0117 9.7695zm1.5664-9.7695c-0.89844 0.36719-2.2305 0.36719-3.1289 0 0.89844-0.37109 2.2266-0.37109 3.1289 0z"/>
</svg>