<?xml version="1.0" encoding="UTF-8"?>
<!-- The Best Svg Icon site in the world: iconSvg.co, Visit us! https://iconsvg.co -->
<svg fill="#000000" width="800px" height="800px" version="1.1" viewBox="144 144 512 512" xmlns="http://www.w3.org/2000/svg">
 <g>
  <path d="m353.39 493.78h93.203v22.672h-93.203z"/>
  <path d="m353.39 524.01h93.203v62.977h-93.203z"/>
  <path d="m207.29 414.68v177.34h138.55v-102.02c0-2.0664 1.7148-3.7773 3.7773-3.7773h46.602v-48.516l-1.0586-0.20313c-6.3984-1.1094-18.438-4.2812-27.258-13.25-12.594-12.797-13.652-32.242-13.703-33.051-0.050781-1.0586 0.35156-2.0664 1.1094-2.8203 0.70703-0.70703 1.6641-1.1094 2.7188-1.1094 0.95703 0.050781 20.051 1.1094 32.695 13.906 3.1758 3.2734 5.9453 7.2539 8.1133 11.891l1.1641 2.3672 1.1602-2.3672c2.168-4.6367 4.9375-8.6172 8.1133-11.891 12.645-12.797 31.738-13.855 32.547-13.906h0.15234c1.0586 0 2.0156 0.40234 2.7188 1.1094 0.75391 0.75391 1.1602 1.7617 1.1094 2.8203-0.050781 0.80469-1.1094 20.254-13.703 33.051-8.8164 8.9688-20.859 12.141-27.258 13.25l-1.0625 0.19922v48.516l46.602 0.003906c2.0664 0 3.7773 1.7109 3.7773 3.7773v102.02h138.55l0.003906-177.34-192.71-176.48zm99.398-4.9375h-53.102c-2.0664 0-3.7773-1.6641-3.7773-3.7773 0-2.0664 1.7148-3.7773 3.7773-3.7773h53.102c2.0664 0 3.7773 1.7109 3.7773 3.7773 0.003906 2.1172-1.7109 3.7773-3.7773 3.7773zm38.34-46.348c-0.70703 0.65625-1.6133 1.0586-2.6211 1.0586-1.0078 0-2.0156-0.40234-2.7188-1.1094l-24.184-24.637c-0.75391-0.70703-1.1094-1.6641-1.1094-2.6719 0-1.0078 0.40234-1.9648 1.1602-2.6719 0.70703-0.70703 1.6133-1.0586 2.6211-1.0586 1.0078 0 1.9648 0.40234 2.7188 1.1094l24.184 24.637c0.70703 0.70703 1.1094 1.6641 1.1094 2.6719 0 1.0078-0.40234 1.9648-1.1602 2.6719zm148.27 38.793h53.102c2.0664 0 3.7773 1.7109 3.7773 3.7773 0 2.1172-1.7148 3.7773-3.7773 3.7773h-53.102c-2.0664 0-3.7773-1.6641-3.7773-3.7773 0-2.0664 1.7109-3.7773 3.7773-3.7773zm-38.391-44.137 24.184-24.637c0.75391-0.70703 1.7109-1.1094 2.7188-1.1094 1.0078 0 1.9141 0.35156 2.6211 1.0586 0.75391 0.70703 1.1602 1.6641 1.1602 2.6719 0 1.0078-0.35156 1.9648-1.1094 2.6719l-24.184 24.637c-0.70703 0.70703-1.7109 1.1094-2.7188 1.1094-1.0078 0-1.9141-0.40234-2.6211-1.0586-0.75391-0.70703-1.1602-1.6641-1.1602-2.6719 0-1.0078 0.40234-1.9648 1.1094-2.6719zm-51.137 4.7383c0 2.0664-1.7148 3.7773-3.7773 3.7773-2.0664 0-3.7773-1.7148-3.7773-3.7773v-7.9102c0-2.1172 1.7148-3.7773 3.7773-3.7773 2.0664 0 3.7773 1.6641 3.7773 3.7773zm0-89.375v53.906c0 2.1172-1.7148 3.7773-3.7773 3.7773-2.0664 0-3.7773-1.6641-3.7773-3.7773l-0.003906-53.906c0-2.0664 1.7148-3.7773 3.7773-3.7773 2.0664-0.003906 3.7812 1.7109 3.7812 3.7773z"/>
  <path d="m400 207.97-192.71 176.48v20l190.14-174.17c0.70312-0.65234 1.6133-1.0078 2.5703-1.0078s1.8633 0.35156 2.5703 1.0078l190.14 174.17v-20z"/>
  <path d="m364.18 395.74-1.9141-0.40234 0.40234 1.9141c1.3086 6.2461 4.1797 15.164 10.629 21.664 6.3984 6.5 15.012 9.4219 21.16 10.73l1.8633 0.40234-0.35156-1.8633c-1.3086-6.2969-4.1836-15.113-10.629-21.664-6.4453-6.5508-15.062-9.4727-21.16-10.781z"/>
  <path d="m426.7 418.92c6.4492-6.5508 9.3203-15.367 10.629-21.664l0.40234-1.9141-1.9141 0.40234c-6.1445 1.3594-14.762 4.2812-21.16 10.781-6.4492 6.5508-9.3203 15.367-10.629 21.664l-0.35156 1.8633 1.8633-0.40234c6.1484-1.3086 14.762-4.2344 21.16-10.73z"/>
 </g>
</svg>