<?xml version="1.0" encoding="UTF-8"?>
<!-- The Best Svg Icon site in the world: iconSvg.co, Visit us! https://iconsvg.co -->
<svg fill="#000000" width="800px" height="800px" version="1.1" viewBox="144 144 512 512" xmlns="http://www.w3.org/2000/svg">
 <g>
  <path d="m500.67 363.84-46.555-26.879v-53.777c0-1.8008-0.96094-3.4648-2.5195-4.3633l-49.078-28.336c-1.5586-0.89844-3.4766-0.89844-5.0391 0l-49.078 28.336c-1.5586 0.89844-2.5195 2.5625-2.5195 4.3633v53.777l-46.555 26.879c-1.5586 0.89844-2.5195 2.5625-2.5195 4.3633v56.668c0 1.8008 0.96094 3.4648 2.5195 4.3633l49.074 28.332c0.78125 0.44922 1.6484 0.67578 2.5195 0.67578 0.87109 0 1.7383-0.22266 2.5195-0.67578l46.562-26.875 46.559 26.879c0.78125 0.44922 1.6484 0.67578 2.5195 0.67578s1.7383-0.22266 2.5195-0.67578l49.074-28.332c1.5586-0.89844 2.5195-2.5625 2.5195-4.3633l-0.003906-56.672c0-1.8008-0.95703-3.4609-2.5195-4.3633zm-144.71-77.75 44.039-25.422 44.039 25.426v50.852l-44.039 25.422-44.039-25.422zm-5.0391 161.3-44.035-25.422v-50.852l44.035-25.426 44.039 25.426v50.852zm142.19-25.422-44.035 25.422-44.043-25.422v-50.852l44.039-25.426 44.035 25.426z"/>
  <path d="m203.51 508.16h29.07v81.316c0 6.6445 5.4023 12.051 12.043 12.051h22.25c6.6406 0 12.047-5.4062 12.047-12.047v-81.316h242.15v81.316c0 6.6406 5.4062 12.047 12.047 12.047h22.25c6.6406 0 12.047-5.4062 12.047-12.047v-81.316l29.066-0.003906c2.7812 0 5.0391-2.2539 5.0391-5.0391v-299.61c0-2.7812-2.2539-5.0391-5.0391-5.0391l-392.97 0.003906c-2.7812 0-5.0391 2.2539-5.0391 5.0391v299.61c0.003906 2.7812 2.2578 5.0352 5.0391 5.0352zm65.332 81.32c0 1.0859-0.88281 1.9688-1.9688 1.9688h-22.25c-1.0859 0-1.9688-0.88281-1.9688-1.9688v-81.316h26.188zm288.5 0c0 1.0859-0.88281 1.9688-1.9688 1.9688h-22.25c-1.0859 0-1.9688-0.88281-1.9688-1.9688v-81.316h26.188zm-348.79-380.93h382.89v289.53h-382.89z"/>
 </g>
</svg>