<?xml version="1.0" encoding="UTF-8"?>
<!-- The Best Svg Icon site in the world: iconSvg.co, Visit us! https://iconsvg.co -->
<svg width="800px" height="800px" version="1.1" viewBox="144 144 512 512" xmlns="http://www.w3.org/2000/svg">
 <defs>
  <clipPath id="d">
   <path d="m148.09 393h206.91v211h-206.91z"/>
  </clipPath>
  <clipPath id="c">
   <path d="m148.09 238h380.91v321h-380.91z"/>
  </clipPath>
  <clipPath id="b">
   <path d="m410 376h241.9v209h-241.9z"/>
  </clipPath>
  <clipPath id="a">
   <path d="m494 425h157.9v183h-157.9z"/>
  </clipPath>
 </defs>
 <g clip-path="url(#d)">
  <path transform="matrix(5.0381 0 0 5.0381 148.09 148.09)" d="m20.2 62.9c-3.6999 0-6.6997 2.9998-6.6997 6.6997s2.9998 6.6997 6.6997 6.6997 6.6997-2.9998 6.6997-6.6997c0-3.6992-2.9998-6.6997-6.6997-6.6997zm0 10.5c-2.0996 0-3.8-1.7003-3.8-3.8 0-2.0996 1.7003-3.8 3.8-3.8 2.0996 0 3.8 1.7003 3.8 3.8 0 2.0996-1.7003 3.8-3.8 3.8z" fill="none" stroke="#000000" stroke-miterlimit="10"/>
 </g>
 <path transform="matrix(5.0381 0 0 5.0381 148.09 148.09)" d="m49.3 56c-6.0004 0-10.9 4.9002-10.9 10.9 0 6.0004 4.9002 10.9 10.9 10.9 6.0004 0 10.9-4.9002 10.9-10.9 0-5.9996-4.9002-10.9-10.9-10.9zm0 17.1c-3.3999 0-6.1996-2.7998-6.1996-6.1996 0-3.3999 2.7998-6.1996 6.1996-6.1996s6.1996 2.7998 6.1996 6.1996c0 3.3999-2.7998 6.1996-6.1996 6.1996z" fill="none" stroke="#000000" stroke-miterlimit="10"/>
 <path transform="matrix(5.0381 0 0 5.0381 148.09 148.09)" d="m35.4 70.5h-6.0996c-0.60012 0-1.0002-0.40008-1.0002-1.0002 0-0.60012 0.40008-1.0002 1.0002-1.0002h6.0996c0.60012 0 1.0002 0.40008 1.0002 1.0002 0 0.60012-0.40008 1.0002-1.0002 1.0002z" fill="none" stroke="#000000" stroke-miterlimit="10"/>
 <path transform="matrix(5.0381 0 0 5.0381 148.09 148.09)" d="m21.5 69.6c0 0.71797-0.58228 1.2995-1.3002 1.2995-0.71797 0-1.3002-0.58151-1.3002-1.2995 0-0.71797 0.58228-1.3002 1.3002-1.3002 0.71797 0 1.3002 0.58228 1.3002 1.3002" fill="none" stroke="#000000" stroke-miterlimit="10"/>
 <path transform="matrix(5.0381 0 0 5.0381 148.09 148.09)" d="m51.3 66.9c0 1.1049-0.89552 2.0004-1.9996 2.0004-1.1049 0-2.0004-0.89552-2.0004-2.0004 0-1.1041 0.89552-1.9996 2.0004-1.9996 1.1041 0 1.9996 0.89552 1.9996 1.9996" fill="none" stroke="#000000" stroke-miterlimit="10"/>
 <g clip-path="url(#c)">
  <path transform="matrix(5.0381 0 0 5.0381 148.09 148.09)" d="m51.5 51.4-1.6003-15.3h0.70013c1.1002 0 2.0004-0.90017 2.0004-2.0004s-0.90017-2.0004-2.0004-2.0004l-20.3 7.75e-4c-1.1002 0-2.0004 0.90017-2.0004 2.0004s0.90017 2.0004 2.0004 2.0004l-1.6003 15.1h-9.6003l7.75e-4 -10.4c0-0.80015-0.70013-1.5003-1.5003-1.5003-0.80015 0-1.5003 0.70013-1.5003 1.5003v10.5h-5.8003c-2.4997 0-3.0998 1.6003-3.2999 3.6999h3.8c0.40008 0 0.70014 0.30006 0.70014 0.70013s-0.30006 0.70013-0.60012 0.70013h-3.9v0.90017h4c0.40008 0 0.60012 0.30006 0.70013 0.60012 0 0.40008-0.30006 0.70014-0.70013 0.70014h-4v0.90017h4c0.40008 0 0.70013 0.30006 0.70013 0.60012 0 0.40008-0.30006 0.70013-0.70013 0.70013h-4v5.4003c0 0.70013 0 1.2002 2.9998 1.2002h1.6003c1.1002-3.5999 4.5001-6.1996 8.5001-6.1996s7.3999 2.5997 8.5001 6.1996l7.4006-0.001551c-0.60012-7.0998 6.7998-13.5 13.6-13.4h0.70013c3.4999 0.20004 6.7998 2.0004 8.9002 4.9002l2.0996-1.5003c-2.5005-3.2991-5.9004-5.3995-9.8003-5.9996zm-7.3999 2.2004-2.0004 1.0002c-2.0004 1.1002-3.8 2.5997-5.1002 4.2h-5.4003l7.75e-4 -4.8001 4.4001-4c0.90017 0.70014 1.8003 0.90017 2.1996 0.5001 0.5001-0.5001 0-1.8003-1.1002-2.9998-1.1002-1.1002-2.4997-1.7003-2.9998-1.1002-0.40008 0.40008-0.20004 1.2002 0.5001 2.0996l-2.8998 2.5997 1.5003-15h8.8001v18.4c0.79938-0.3993 1.4995-0.69936 2.0996-0.8994v-17.5h3.1998l1.7003 16.4c-1.6003 0-3.1998 0.40008-4.9002 1.1002z" fill="none" stroke="#000000" stroke-miterlimit="10"/>
 </g>
 <g clip-path="url(#b)">
  <path transform="matrix(5.0381 0 0 5.0381 148.09 148.09)" d="m66.3 59.4v13h2.0996c0.30006-2.5997 2.4997-4.6001 5.2002-4.6001 2.6997 0 4.9002 2.0004 5.2002 4.6001h2.4997c0.30006-2.5997 2.4997-4.6001 5.2002-4.6001 2.6997 0 4.9002 2.0004 5.2002 4.6001h1.6003v-13z" fill="none" stroke="#000000" stroke-miterlimit="10"/>
 </g>
 <path transform="matrix(5.0381 0 0 5.0381 148.09 148.09)" d="m73.6 77c-2.0996 0-3.9-1.7003-3.9-3.9 0-2.0996 1.7003-3.9 3.9-3.9 2.0996 0 3.9 1.7003 3.9 3.9s-1.7003 3.9-3.9 3.9zm0-6.0004c-1.2002 0-2.0996 1.0002-2.0996 2.0996 0 1.1002 1.0002 2.0996 2.0996 2.0996 1.1002 0 2.0996-1.0002 2.0996-2.0996s-0.90017-2.0996-2.0996-2.0996z" fill="none" stroke="#000000" stroke-miterlimit="10"/>
 <path d="m484.64 485.14-34.762-7.0547-3.0234-16.121 37.785 7.0547zm-34.258-12.09 28.719 5.543v-5.543l-28.719-6.0469z"/>
 <path transform="matrix(5.0381 0 0 5.0381 148.09 148.09)" d="m74.2 73.2c0 0.80015-1.2002 0.80015-1.2002 0 0-0.80015 1.2002-0.80015 1.2002 0" fill="none" stroke="#000000" stroke-miterlimit="10" stroke-width=".5"/>
 <g clip-path="url(#a)">
  <path transform="matrix(5.0381 0 0 5.0381 148.09 148.09)" d="m86.7 77c-2.0996 0-3.9-1.7003-3.9-3.9 0-2.0996 1.7003-3.9 3.9-3.9 2.0996 0 3.9 1.7003 3.9 3.9-0.10002 2.1996-1.8003 3.9-3.9 3.9zm0-6.0004c-1.2002 0-2.0996 1.0002-2.0996 2.0996 0 1.1002 1.0002 2.0996 2.0996 2.0996 1.1002 0 2.0996-1.0002 2.0996-2.0996s-1.0002-2.0996-2.0996-2.0996z" fill="none" stroke="#000000" stroke-miterlimit="10"/>
 </g>
 <path transform="matrix(5.0381 0 0 5.0381 148.09 148.09)" d="m87.3 73.2c0 0.80015-1.1995 0.80015-1.1995 0 0-0.80015 1.1995-0.80015 1.1995 0" fill="none" stroke="#000000" stroke-miterlimit="10" stroke-width=".5"/>
</svg>