<?xml version="1.0" encoding="UTF-8"?>
<!-- The Best Svg Icon site in the world: iconSvg.co, Visit us! https://iconsvg.co -->
<svg fill="#000000" width="800px" height="800px" version="1.1" viewBox="144 144 512 512" xmlns="http://www.w3.org/2000/svg">
 <g>
  <path d="m360.64 423.61h15.742v15.742h-15.742z"/>
  <path d="m423.61 423.61h15.742v15.742h-15.742z"/>
  <path d="m541.7 376.38h39.359c2.0898 0 4.0898-0.82812 5.5664-2.3047 1.4766-1.4766 2.3047-3.4805 2.3047-5.5664v-31.488c0-8.3516-3.3164-16.363-9.2227-22.266-5.9023-5.9062-13.914-9.2227-22.266-9.2227h-7.8711c0-4.1758 1.6602-8.1797 4.6133-11.133 2.9531-2.9531 6.957-4.6133 11.133-4.6133v-15.742c-8.3516 0-16.363 3.3164-22.266 9.2227-5.9062 5.9062-9.2227 13.914-9.2227 22.266h-94.672c5.2109-6.7734 8.0508-15.07 8.0781-23.617v-25.07c8.8281-1.7578 17.547-4.0352 26.105-6.8281 2.5859-0.86328 4.5391-3.0039 5.168-5.6562 0.625-2.6523-0.16406-5.4414-2.0898-7.3711l-29.805-29.805-7.4062-37.051c-0.75-3.668-3.9766-6.3008-7.7148-6.3008h-62.977c-3.7422 0-6.9688 2.6328-7.7148 6.3008l-3.418 17.074c-5.6523-4.9023-12.875-7.6055-20.355-7.6289v15.742c3.6562 0.007812 7.1992 1.2852 10.02 3.6172 2.8203 2.332 4.7383 5.5742 5.4258 9.168l-28.883 28.883c-1.9258 1.9297-2.7188 4.7188-2.0898 7.3711 0.625 2.6523 2.582 4.793 5.168 5.6562 8.5586 2.793 17.273 5.0703 26.102 6.8281v25.07c0.03125 8.5469 2.8672 16.844 8.0781 23.617h-94.668c0-8.3516-3.3203-16.359-9.2227-22.266-5.9062-5.9062-13.914-9.2227-22.266-9.2227v15.742c4.1758 0 8.1797 1.6602 11.133 4.6133 2.9492 2.9531 4.6094 6.957 4.6094 11.133h-7.8711c-8.3516 0-16.359 3.3164-22.266 9.2227-5.9062 5.9023-9.2227 13.914-9.2227 22.266v31.488c0 2.0859 0.82813 4.0898 2.3047 5.5664s3.4805 2.3047 5.5664 2.3047h39.359c2.0898 0 4.0898-0.82812 5.5664-2.3047 1.4766-1.4766 2.3086-3.4805 2.3086-5.5664v-14.012l62.977 12.594-0.003906 127.37c-4.1719 0-8.1797-1.6562-11.133-4.6094-2.9492-2.9531-4.6094-6.957-4.6094-11.133h-15.742c0 8.3516 3.3164 16.359 9.2227 22.266 5.9023 5.9062 13.914 9.2227 22.262 9.2227v70.848c0 2.0898 0.83203 4.0898 2.3086 5.5664 1.4766 1.4766 3.4766 2.3047 5.5664 2.3047h7.8711c0 4.1758-1.6602 8.1797-4.6133 11.133-2.9492 2.9531-6.957 4.6133-11.133 4.6133v15.742c8.3516 0 16.363-3.3164 22.266-9.2227 5.9062-5.9023 9.2227-13.914 9.2227-22.266h15.742v47.23h15.742l0.003906-99.027 7.8711-44.602 7.8711 44.602 0.003906 99.031h15.742v-47.234h15.746c0 8.3516 3.3164 16.363 9.2227 22.266 5.9062 5.9062 13.914 9.2227 22.266 9.2227h7.8711v-15.742h-7.8711c-4.1758 0-8.1797-1.6602-11.133-4.6133s-4.6133-6.957-4.6133-11.133h7.875c2.0859 0 4.0898-0.82812 5.5664-2.3047 1.4727-1.4766 2.3047-3.4766 2.3047-5.5664v-15.742c4.1758 0 8.1797 1.6562 11.133 4.6094s4.6094 6.957 4.6094 11.133h15.746c0-8.3516-3.3203-16.359-9.2227-22.266-5.9062-5.9062-13.914-9.2227-22.266-9.2227v-141.7c4.1758 0 8.1797 1.6562 11.133 4.6094s4.6094 6.957 4.6094 11.133h15.746c0-8.3516-3.3203-16.359-9.2227-22.266-5.9062-5.9023-13.914-9.2227-22.266-9.2227v-25.039l62.977-12.594v14.02c0 2.0859 0.82812 4.0898 2.3047 5.5664 1.4766 1.4766 3.4766 2.3047 5.5664 2.3047zm15.742-55.105c4.1758 0 8.1797 1.6602 11.133 4.6133 2.9531 2.9531 4.6133 6.957 4.6133 11.133v23.617l-23.617-0.003906v-39.359zm-181.05 70.848v-70.848h47.23v70.848zm48.656-212.54 4.7227 23.617h-59.52l4.7227-23.617zm-61.141 39.359h72.203l19.859 19.859v0.003907c-36.672 9.7383-75.25 9.7383-111.93 0zm4.6133 62.977v-22.348c10.434 1.4609 20.953 2.2227 31.488 2.2734 10.535-0.050781 21.055-0.8125 31.488-2.2734v22.348c0 6.2617-2.4883 12.27-6.918 16.699-4.4297 4.4297-10.438 6.918-16.699 6.918h-15.746c-6.2617 0-12.27-2.4883-16.699-6.918-4.4258-4.4297-6.9141-10.438-6.9141-16.699zm-118.08 78.719h-23.617v-23.613c0-4.1758 1.6602-8.1797 4.6133-11.133s6.957-4.6133 11.133-4.6133h7.8711zm15.742-22.191 0.003906-17.168h94.461v70.848h-15.742v-31.488c0-3.7383-2.6328-6.9648-6.2969-7.7148zm188.93 234.74h-24.883l-6.6055-37.418v-1.9414h-0.34766l-15.52-87.965c-0.67969-3.7461-3.9414-6.4688-7.7461-6.4688-3.8086 0-7.0703 2.7227-7.7461 6.4688l-15.523 87.965h-0.34766v1.9453l-6.6055 37.414h-24.883v-165.31h110.21zm6.2969-220.26v-0.003906c-3.6641 0.75-6.2969 3.9766-6.2969 7.7148v31.488h-15.742v-70.848h94.465v17.168z"/>
 </g>
</svg>