<?xml version="1.0" encoding="UTF-8"?>
<!-- The Best Svg Icon site in the world: iconSvg.co, Visit us! https://iconsvg.co -->
<svg fill="#000000" width="800px" height="800px" version="1.1" viewBox="144 144 512 512" xmlns="http://www.w3.org/2000/svg">
 <path d="m536.04 288.66c-46.801-26.207-80.293-3.668-94.652 5.9609-2 1.3398-3.6445 2.4727-4.9609 3.1484-8.6719 3.9219-18.551 4.2266-27.449 0.84766-0.38672-0.09375-0.72266-0.14844-1.1094-0.24219v-2.9141c0.46484-21.035-0.52734-42.078-2.9688-62.977 6.6953 2.3242 13.723 3.5312 20.805 3.5742 7.7852 0.003906 15.504-1.4102 22.781-4.1719 19.156-7.3203 33.695-23.309 39.164-43.074 0.91406-3.3125-0.42188-6.832-3.3047-8.6992-14.332-9.3477-31.805-12.574-48.527-8.957-16.723 3.6172-31.305 13.777-40.488 28.211-3.3633-7.1484-9.4922-12.621-16.973-15.16-4.1758-1.2227-8.5469 1.1719-9.7695 5.3438-1.2227 4.1758 1.1719 8.5469 5.3438 9.7695 7.1641 2.0938 11.5 13.57 14.168 28.125l0.003906 0.003906c-10.594-9.9219-24.254-15.938-38.723-17.055-14.473-1.1172-28.891 2.7344-40.883 10.914-2.8438 1.918-4.1172 5.4609-3.1484 8.7539 5.1016 17.594 17.508 32.152 34.07 39.984 16.562 7.8281 35.688 8.1758 52.523 0.94922 0.26953 9.918 0.23438 18.664 0.21094 24.402v2.9766c-0.37891 0.09375-0.71484 0.14844-1.0938 0.24219-8.8984 3.375-18.773 3.0703-27.449-0.84766-1.3164-0.69922-2.9609-1.8359-4.9609-3.1484-14.336-9.6289-47.863-32.156-94.652-5.9609-47.949 26.852-58.891 99.109-33.457 220.91 16.227 77.828 75 120.69 165.53 120.69h7.8711c90.527 0 149.29-42.863 165.55-120.7 25.445-121.79 14.504-194.05-33.445-220.9zm-103.98-99.988c12.512-4.7227 26.41-4.1016 38.453 1.7148-5.1406 12.344-15.117 22.039-27.605 26.82-12.512 4.7227-26.414 4.1055-38.457-1.7109 5.1406-12.344 15.117-22.043 27.609-26.824zm-81.438 68.934c-12.578-4.5547-22.734-14.07-28.094-26.324 11.922-6.0664 25.82-6.9414 38.41-2.4219s22.758 14.035 28.098 26.297c-11.926 6.0469-25.812 6.9297-38.414 2.4492zm203.46 248.76c-18.68 89.387-91.945 108.15-150.14 108.15h-7.8711c-58.191 0-131.46-18.766-150.14-108.16-23.52-112.6-14.859-181.22 25.758-203.96 10.816-6.457 23.125-9.9844 35.715-10.234 15.422 0.65625 30.262 6.0938 42.457 15.555 2.5508 1.707 4.7227 3.1484 6.3594 4.0078 12.043 5.7773 25.875 6.5859 38.508 2.25 1.8281-0.43359 3.5977-0.86719 5.2969-1.1953 1.6992 0.33203 3.4727 0.78906 5.2969 1.1953h0.003906c12.637 4.3281 26.465 3.5195 38.508-2.25 1.6758-0.89062 3.8086-2.2969 6.3594-4.0078 13.926-9.3516 39.832-26.766 78.168-5.2812 40.578 22.703 49.234 91.324 25.723 203.92zm-206.82-182.12c-1.6367 4.0195-6.2109 5.957-10.234 4.3359-15.656-6.1836-33.336-4.4609-47.5 4.6367-12.102 7.1484-21.016 18.648-24.922 32.152-0.63281 2.0352-2.0586 3.7305-3.9609 4.6953-1.8984 0.96484-4.1094 1.1172-6.125 0.42188-2.0156-0.69531-3.6641-2.1758-4.5664-4.1055-0.90234-1.9297-0.98438-4.1445-0.22656-6.1367 5.1641-17.145 16.613-31.703 32.055-40.77 18.336-11.445 41.02-13.492 61.109-5.5117 1.9492 0.77734 3.5039 2.3008 4.3242 4.2305 0.82031 1.9297 0.83594 4.1094 0.046874 6.0508z"/>
</svg>