<?xml version="1.0" encoding="UTF-8"?>
<!-- The Best Svg Icon site in the world: iconSvg.co, Visit us! https://iconsvg.co -->
<svg fill="#000000" width="800px" height="800px" version="1.1" viewBox="144 144 512 512" xmlns="http://www.w3.org/2000/svg">
 <g>
  <path d="m515.83 372.2h-42.461c-3.7891-23.41-24.086-41.367-48.547-41.367-0.13672 0-0.26172 0.019531-0.39844 0.019531l-0.003906-50.793c19.82-1.332 37.992-9.3477 51.801-23.152 21.254-21.258 28.727-53.395 19.508-83.879-0.75781-2.5156-2.7227-4.4805-5.2344-5.25-30.469-9.2969-62.645-1.8359-83.977 19.504-2.3633 2.3594-4.4922 4.9023-6.5156 7.5117-2.0273-2.6133-4.1562-5.1523-6.5156-7.5117-21.336-21.344-53.527-28.805-83.977-19.504-2.5156 0.76953-4.4766 2.7383-5.2344 5.25-9.2227 30.484-1.7461 62.621 19.508 83.879 13.82 13.816 32.016 21.832 51.801 23.156v59.066c-0.13672 0-0.26172-0.019531-0.39844-0.019531-21.121 0-39.613 13.613-46.391 33.09h-44.617c-4.3477 0-7.8711 3.5234-7.8711 7.8711v215.11c0 22.59 18.379 40.969 40.969 40.969h165.46c22.59 0 40.969-18.379 40.969-40.969l-0.007812-215.11c0-4.3438-3.5273-7.8711-7.8711-7.8711zm-58.449 0h-35.668c-0.16406-0.48047-0.40625-0.92188-0.58594-1.3945-0.47266-1.2383-0.96484-2.457-1.5312-3.6484-0.33203-0.69531-0.69531-1.3711-1.0586-2.0469-0.57031-1.0664-1.1758-2.1133-1.8242-3.1328-0.43359-0.68359-0.87109-1.3516-1.3359-2.0117-0.6875-0.97266-1.4219-1.9023-2.1758-2.8242-0.50781-0.61719-0.99609-1.2461-1.5352-1.8398-0.89453-0.98828-1.8555-1.9141-2.832-2.8281-0.38672-0.36328-0.72656-0.77344-1.125-1.125 0.11719-0.070312 0.22266-0.15625 0.33984-0.22656 1.1602-0.67188 2.3828-1.2344 3.6211-1.7656 0.42188-0.17969 0.81641-0.41406 1.2461-0.57422 1.7148-0.65234 3.4922-1.1836 5.3242-1.5547 1.9648-0.42969 4.1797-0.64844 6.5898-0.64844 15.75 0 29 10.938 32.551 25.621zm-66.055-30.379v-61.98c0.25391-0.027344 0.5-0.089844 0.75391-0.12109 1.3438-0.15625 2.6523-0.42188 3.9766-0.64062 1.3125-0.21875 2.6523-0.35547 3.9453-0.63672 1.2773 0.27734 2.6055 0.41016 3.9023 0.62891 1.3438 0.22266 2.6641 0.48828 4.0234 0.64844 0.25391 0.03125 0.49609 0.09375 0.75 0.12109v53.707c-0.14844 0.050781-0.28125 0.14453-0.43359 0.19531-2.6289 0.9375-5.168 2.0742-7.5938 3.4453-0.4375 0.24609-0.82813 0.57422-1.2578 0.83203-1.9531 1.1836-3.8438 2.4727-5.6289 3.9297-0.22656 0.18359-0.48828 0.30859-0.71094 0.49609-0.34766-0.13281-0.70312-0.25391-1.0508-0.38281-0.078125-0.027344-0.15625-0.058594-0.23438-0.085937-0.14844-0.050781-0.29297-0.10547-0.44141-0.15625zm90.453-160.12c5.7227 23.645-0.49219 47.871-16.691 64.07-12.59 12.582-29.832 19.227-48.426 18.789-1.8594-0.027344-3.707-0.21094-5.5547-0.39062l35.875-36.523c3.0469-3.1016 3.0039-8.082-0.10156-11.133-3.1055-3.0508-8.0859-3.0039-11.133 0.10156l-36.281 36.934c-0.59766-4.4688-0.75-9.0117-0.39062-13.578 0.68359-9.7617 3.3164-18.926 7.8359-27.238 2.832-5.2188 6.4414-10.039 10.727-14.324 16.277-16.266 40.531-22.469 64.141-16.707zm-163.56 0c23.621-5.7617 47.871 0.44141 64.133 16.707 3.3125 3.3125 6.2227 6.9453 8.6836 10.84-0.34766 0.73047-0.60938 1.4961-0.93359 2.2344-0.44141 1.0156-0.875 2.0312-1.2734 3.0586-0.61719 1.5859-1.1641 3.1953-1.6797 4.8164-0.32031 1.0078-0.65625 2.0078-0.9375 3.0273-0.49219 1.793-0.88672 3.6172-1.2617 5.4492-0.17969 0.88281-0.40234 1.7539-0.55469 2.6445-0.3125 1.8359-0.51172 3.707-0.70312 5.5781l-19.496-19.496c-3.0742-3.0742-8.0547-3.0742-11.133 0-3.0742 3.0742-3.0742 8.0547 0 11.133l31.285 31.281c0.24609 1.7344 0.48047 3.4805 0.83203 5.1641 0.019531 0.09375 0.027343 0.19141 0.046874 0.28516-0.63672 0.027343-1.2539 0.12109-1.8945 0.12891h-0.007812-0.074219c-18.621 0.49609-35.758-6.207-48.348-18.793-16.191-16.188-22.406-40.414-16.684-64.059zm56.961 173.15c2.4219 0 4.6367 0.21484 6.668 0.66016 3.2148 0.66797 6.2695 1.7578 9.0781 3.2188 1.9609 1.0586 3.7422 2.3477 5.4258 3.7305 0.41797 0.34375 0.82813 0.69141 1.2266 1.0508 1.6055 1.4531 3.1133 3.0039 4.4062 4.7227 0.082031 0.10938 0.14453 0.23438 0.22266 0.34375 0.82422 1.1289 1.4492 2.3867 2.125 3.6133h-58.52c5.7617-10.434 16.926-17.34 29.367-17.34zm107.55 265.55h-165.46c-13.906 0-25.223-11.316-25.223-25.223v-66.586h62.453c4.3477 0 7.8711-3.5234 7.8711-7.8711 0-4.3477-3.5234-7.8711-7.8711-7.8711h-62.453v-124.91h215.91v124.91h-58.312c-4.3477 0-7.8711 3.5234-7.8711 7.8711 0 4.3477 3.5234 7.8711 7.8711 7.8711h58.312v66.586c-0.003906 13.906-11.32 25.223-25.227 25.223z"/>
  <path d="m400 405.3c-13.465 0-24.418 10.953-24.418 24.418-0.003906 13.469 10.953 24.422 24.418 24.422s24.418-10.953 24.418-24.418-10.953-24.422-24.418-24.422zm0 33.098c-4.7852 0-8.6758-3.8906-8.6758-8.6758s3.8906-8.6758 8.6758-8.6758 8.6758 3.8906 8.6758 8.6758-3.8906 8.6758-8.6758 8.6758z"/>
  <path d="m333.81 405.3c-13.465 0-24.418 10.953-24.418 24.418s10.953 24.418 24.418 24.418 24.414-10.953 24.414-24.418c0-13.461-10.949-24.418-24.414-24.418zm0 33.098c-4.7852 0-8.6758-3.8906-8.6758-8.6758s3.8906-8.6758 8.6758-8.6758c4.7812 0 8.6719 3.8906 8.6719 8.6758s-3.8906 8.6758-8.6719 8.6758z"/>
  <path d="m466.18 454.14c13.465 0 24.418-10.953 24.418-24.418s-10.953-24.418-24.418-24.418-24.414 10.953-24.414 24.418 10.949 24.418 24.414 24.418zm0-33.094c4.7852 0 8.6758 3.8906 8.6758 8.6758s-3.8906 8.6758-8.6758 8.6758c-4.7812 0-8.6719-3.8906-8.6719-8.6758s3.8906-8.6758 8.6719-8.6758z"/>
 </g>
</svg>