<?xml version="1.0" encoding="UTF-8"?>
<!-- The Best Svg Icon site in the world: iconSvg.co, Visit us! https://iconsvg.co -->
<svg fill="#000000" width="800px" height="800px" version="1.1" viewBox="144 144 512 512" xmlns="http://www.w3.org/2000/svg">
 <path d="m308.16 346.3c0.57031 13.961-4.3125 28.418-13.758 40.703-18.008 23.41-27.527 51.438-27.527 81.043 0 36.605 15.305 71.98 41.996 97.055 24.953 23.441 57 36.082 91.027 36.082 2.8672 0 5.7578-0.089844 8.6562-0.27344 64.797-4.0508 118.11-55.793 124.01-120.36 3.2539-35.543-7.418-70.129-30.031-97.402-7.8281-9.4375-11.664-21.695-10.812-34.496 0.13281-1.9961 0.20312-4.0117 0.20312-6.0391 0-12.078-1.0781-22.168-5.9453-33.656 4.6797-1.1875 7.6992-2.2891 8.1211-2.4453 1.3203-0.50391 2.3711-1.5352 2.8906-2.8398 0.52344-1.3164 0.47266-2.7852-0.14062-4.0625-14.965-31.055-43.91-53.02-77.422-59.062l2.1953-19.508c0.019531-0.1875 0.03125-0.37891 0.03125-0.5625 0-11.941-9.7148-21.652-21.652-21.652-11.941 0-21.652 9.7148-21.652 21.652 0 0.20312 0.011719 0.40234 0.035156 0.59766l2.3516 19.559c-34.898 8.0273-63.102 29.523-77.527 59.223-0.59375 1.2305-0.67188 2.6445-0.20312 3.9297 0.47266 1.2852 1.4414 2.3242 2.6914 2.8711 0.41797 0.17969 3.5273 1.5156 8.4453 2.9336-2.8906 6.7422-4.0742 12.383-5.1953 20.5-0.74609 5.375-1.0078 10.832-0.78516 16.211zm91.84-137.4c6.2969 0 11.438 5.0547 11.574 11.32l-2.1211 18.801c-4.9141-0.48828-11.566-0.77734-18.773-0.058594l-2.2578-18.758c0.14453-6.2617 5.2852-11.305 11.578-11.305zm-15.551 41.195c15.285-3.3242 30.949-0.070313 31.352 0.015625 29.32 4.7812 54.816 22.797 69.254 48.652-10.797 2.8984-35.477 7.4258-55.203-4.3438-1.4258-0.85156-3.1797-0.94531-4.6758-0.25781-1.5078 0.68359-2.5781 2.0664-2.8672 3.6992-2.5273 14.211-8.4531 33.387-22.312 46.668-13.602-13.043-19.543-31.797-22.137-45.695-0.30078-1.5938-1.3516-2.9531-2.8281-3.6406-0.67578-0.3125-1.4023-0.47266-2.1328-0.47266-0.85547 0-1.707 0.21484-2.4688 0.64844-21.617 12.16-45.367 7.0586-55.551 3.8945 13.953-24.754 39-42.531 69.57-49.168zm-15.113 57.078c3.7578 15.703 11.508 34.895 27.469 47.984 0.92578 0.76172 2.0625 1.1445 3.1953 1.1445s2.2656-0.37891 3.1992-1.1445c16.211-13.305 23.965-32.852 27.676-48.871 15.73 7.0547 32.617 6.6406 45 4.7266 4.3672 9.4922 5.9766 17.984 5.9766 31.605 0 1.8047-0.058593 3.5938-0.17969 5.3672-1.0273 15.391 3.6289 30.164 13.113 41.605 20.898 25.199 30.754 57.184 27.75 90.051-5.4531 59.66-54.719 107.47-114.6 111.21-34.414 2.1602-67.145-9.6016-92.156-33.102-25.035-23.512-38.82-55.375-38.82-89.707 0-27.367 8.7969-53.262 25.441-74.902 10.879-14.156 16.504-30.938 15.84-47.258-0.19531-4.7812 0.039063-9.6289 0.70703-14.414 1.1289-8.1836 2.1875-13.043 5.2305-19.602 12.086 2.0977 28.637 2.5625 45.16-4.6992z"/>
</svg>