<?xml version="1.0" encoding="UTF-8"?>
<!-- The Best Svg Icon site in the world: iconSvg.co, Visit us! https://iconsvg.co -->
<svg fill="#000000" width="800px" height="800px" version="1.1" viewBox="144 144 512 512" xmlns="http://www.w3.org/2000/svg">
 <path d="m309.68 289.06-8.8086-8.8086c-7.9023-7.9023-19.422-10.988-30.215-8.0938-10.793 2.8906-19.223 11.324-22.117 22.117-2.8906 10.793 0.19531 22.312 8.0977 30.211l22.066 22.066v0.003906c1.6445 1.6445 3.4688 3.1016 5.4414 4.3477-1.4766 5.75-2.2227 11.664-2.2305 17.605v228.21c0 10.445 4.1445 20.465 11.523 27.859s17.391 11.559 27.836 11.582h157.44c10.445-0.023437 20.457-4.1875 27.836-11.582 7.3789-7.3945 11.523-17.414 11.523-27.859v-228.21c-0.007813-5.9414-0.75391-11.855-2.2266-17.605 1.9688-1.2461 3.793-2.7031 5.4375-4.3477l22.07-22.07c7.8984-7.8984 10.988-19.418 8.0938-30.211-2.8906-10.793-11.324-19.227-22.117-22.117-10.793-2.8945-22.312 0.19141-30.215 8.0938l-8.8086 8.8086-3.7227-8.75v-37.754h15.746c2.4219 0 4.707-1.1133 6.1992-3.0195 1.4922-1.9062 2.0234-4.3945 1.4414-6.7461l-1.8906-7.6367c-2.0664-8.4961-6.9258-16.055-13.797-21.465-6.875-5.4062-15.363-8.3516-24.109-8.3672h-38.691c0-11.246-6.0039-21.645-15.746-27.27-9.7422-5.625-21.746-5.625-31.488 0-9.7422 5.625-15.742 16.023-15.742 27.27h-38.695c-8.7461 0.015625-17.234 2.9609-24.105 8.3672-6.875 5.4102-11.73 12.969-13.801 21.465l-1.8906 7.6367c-0.58203 2.3516-0.050781 4.8398 1.4414 6.7461 1.4922 1.9062 3.7812 3.0195 6.2031 3.0195h15.742v37.754zm-19.766 46.434c-0.027344-0.023438-0.054688-0.046875-0.078125-0.070313l-22.066-22.066v-0.003906c-3.9258-3.9219-5.457-9.6445-4.0234-15.004 1.4375-5.3594 5.625-9.5469 10.984-10.984 5.3633-1.4375 11.082 0.097656 15.004 4.0195l13.293 13.293zm188.8 284.92h-157.44c-4.8789-0.007812-9.6328-1.5273-13.617-4.3477-3.9805-2.8164-6.9922-6.7969-8.625-11.395h201.93c-1.6328 4.5977-4.6484 8.5781-8.6289 11.395-3.9844 2.8203-8.7383 4.3398-13.617 4.3477zm23.617-31.488h-204.67v-220.41c0.003907-5.332 0.77734-10.633 2.2891-15.746h200.09c1.5156 5.1133 2.2852 10.414 2.293 15.746zm7.9219-297.54c3.9219-3.9219 9.6445-5.457 15.004-4.0195s9.5469 5.625 10.984 10.984c1.4375 5.3594-0.097656 11.082-4.0195 15.004l-22.066 22.066c-0.023437 0.023437-0.050781 0.046875-0.078125 0.070313l-13.117-30.816zm-110.26-111.8c4.1719 0.003907 8.1758 1.6641 11.125 4.6172 2.9531 2.9492 4.6133 6.9531 4.6172 11.125h-31.488c0.003906-4.1719 1.6641-8.1758 4.6172-11.125 2.9531-2.9531 6.9531-4.6133 11.129-4.6172zm-92.172 47.23c1.5703-4.582 4.5352-8.5625 8.4766-11.387 3.9414-2.8203 8.6641-4.3438 13.512-4.3555h140.36c4.8477 0.011719 9.5703 1.5352 13.512 4.3555 3.9414 2.8242 6.9062 6.8047 8.4805 11.387zm163.02 15.746v31.488h-141.7v-31.488zm-144.36 47.23h147.03l20.102 47.23-187.24 0.003907z"/>
</svg>