<?xml version="1.0" encoding="UTF-8"?>
<!-- The Best Svg Icon site in the world: iconSvg.co, Visit us! https://iconsvg.co -->
<svg fill="#000000" width="800px" height="800px" version="1.1" viewBox="144 144 512 512" xmlns="http://www.w3.org/2000/svg">
 <g>
  <path d="m496.37 350.35c0.23047-5.3398-0.054688-10.734-0.83594-16.039-5.5273-37.445-36.254-68.148-75.098-76.082l4.5664-35.352c0.023438-0.21484 0.039062-0.42969 0.039062-0.64453-0.003906-13.102-11.234-23.758-25.039-23.758s-25.039 10.66-25.039 23.766c0 0.1875 0.011718 0.375 0.03125 0.5625l0.71094 6.3555c-4.9141-7.9023-11.363-15.199-20.164-20.297-26.715-15.48-63.602-3.5742-65.152-3.0586-2.2969 0.75781-3.7344 3.0469-3.4141 5.4453 0.20703 1.5469 5.3281 38.082 32.246 53.676 8.0312 4.6523 17.086 6.6797 25.883 7.2578-25.816 16.352-41.547 43.238-41.547 74.535 0 2.0078 0.074218 4.0039 0.21484 5.9766 0.89453 12.527-3.1289 24.527-11.336 33.789-23.828 26.906-35.066 61.059-31.637 96.172 6.2109 63.637 62.199 114.63 130.24 118.62 2.9336 0.17187 5.8594 0.25781 8.7773 0.25781 37.191 0 72.969-13.836 99.277-38.652 26.254-24.773 40.711-57.652 40.711-92.594 0-29.242-10.031-56.914-29.012-80.023-9.8984-12.055-15.02-26.23-14.426-39.91zm-96.367-141.8c8.1445 0 14.785 5.9805 14.957 13.391l-4.457 34.516c-4.8125-0.57422-12.453-1-21.582 0.13281l-3.8711-34.609c0.14062-7.4297 6.793-13.43 14.953-13.43zm-75.734 47.645c-17.684-10.242-24.387-32.617-26.484-42.008 9.8203-2.4414 34.711-7.043 52.707 3.3867 15.281 8.8555 22.566 26.918 27.297 40.82-10.387 2.8516-35.711 8.1211-53.52-2.1992zm167.91 299.34c-26.367 24.867-63.066 37.883-100.55 35.664-63.137-3.6992-115.07-50.789-120.8-109.54-3.1523-32.293 7.2031-63.727 29.152-88.512 10.016-11.305 14.934-25.934 13.84-41.188-0.12109-1.7383-0.1875-3.4922-0.1875-5.2578 0-39.926 29.102-71.879 72.414-79.512 15.602-2.7539 27.523-0.058594 28.004 0.042969 37.008 5.8086 66.414 33.996 71.516 68.551 0.69531 4.6758 0.94141 9.4336 0.73828 14.129-0.70312 16.16 5.2266 32.758 16.707 46.738 17.48 21.281 26.723 46.742 26.723 73.625 0 32.137-13.336 62.414-37.551 85.254z"/>
  <path d="m484.46 460.61c-2.7852 0-5.0391 2.2539-5.0391 5.0391 0 7.0391-0.98438 14.023-2.9258 20.754-0.77344 2.6758 0.77344 5.4648 3.4453 6.2383 0.46875 0.13281 0.94141 0.19922 1.3984 0.19922 2.1875 0 4.2031-1.4375 4.8398-3.6445 2.2031-7.6406 3.3203-15.566 3.3203-23.551 0-2.7773-2.2539-5.0352-5.0391-5.0352z"/>
  <path d="m475.05 503.62c-2.375-1.4727-5.4766-0.73047-6.9336 1.6445-16.285 26.387-46.656 41.551-79.227 39.68-2.7539-0.22656-5.1602 1.957-5.3242 4.7344-0.16406 2.7773 1.9531 5.1602 4.7344 5.3242 2.0352 0.12109 4.0625 0.17969 6.082 0.17969 33.961 0 65.105-16.742 82.312-44.629 1.457-2.3672 0.72266-5.4727-1.6445-6.9336z"/>
 </g>
</svg>