<?xml version="1.0" encoding="UTF-8"?>
<!-- The Best Svg Icon site in the world: iconSvg.co, Visit us! https://iconsvg.co -->
<svg fill="#000000" width="800px" height="800px" version="1.1" viewBox="144 144 512 512" xmlns="http://www.w3.org/2000/svg">
 <g>
  <path d="m536.57 198.48h-273.34c-2.7852 0-5.0391 2.2578-5.0391 5.0391v55.602c-3.1172 11.812-43.516 171.51 0.16016 338.65 0.58203 2.207 2.582 3.7539 4.8789 3.7539h273.34c2.293 0 4.2969-1.5469 4.875-3.7617 43.676-167.14 3.2812-326.84 0.16016-338.65v-55.598c-0.003906-2.7852-2.2578-5.0352-5.043-5.0352zm-5.0391 10.074v46.605l-263.26 0.003906v-46.609zm1.1367 382.89h-265.53c-39.039-153.79-6.5156-300.24-0.10547-326.21h265.73c6.4102 25.977 38.941 172.43-0.10156 326.21z"/>
  <path d="m289.47 245.71c2.7852 0 5.0391-2.2578 5.0391-5.0391v-15.742c0-2.7812-2.2539-5.0391-5.0391-5.0391s-5.0391 2.2578-5.0391 5.0391v15.742c0 2.7812 2.2539 5.0391 5.0391 5.0391z"/>
  <path d="m316.88 245.71c2.7852 0 5.0391-2.2578 5.0391-5.0391v-15.742c0-2.7812-2.2539-5.0391-5.0391-5.0391s-5.0391 2.2578-5.0391 5.0391v15.742c0 2.7812 2.2539 5.0391 5.0391 5.0391z"/>
  <path d="m344.28 245.71c2.7852 0 5.0391-2.2578 5.0391-5.0391v-15.742c0-2.7812-2.2539-5.0391-5.0391-5.0391s-5.0391 2.2578-5.0391 5.0391v15.742c0 2.7812 2.2578 5.0391 5.0391 5.0391z"/>
  <path d="m371.68 245.71c2.7852 0 5.0391-2.2578 5.0391-5.0391v-15.742c0-2.7812-2.2539-5.0391-5.0391-5.0391s-5.0391 2.2578-5.0391 5.0391v15.742c0 2.7812 2.2539 5.0391 5.0391 5.0391z"/>
  <path d="m399.09 245.71c2.7852 0 5.0391-2.2578 5.0391-5.0391v-15.742c0-2.7812-2.2539-5.0391-5.0391-5.0391-2.7852 0-5.0391 2.2578-5.0391 5.0391v15.742c0 2.7812 2.2578 5.0391 5.0391 5.0391z"/>
  <path d="m426.49 245.71c2.7852 0 5.0391-2.2578 5.0391-5.0391v-15.742c0-2.7812-2.2539-5.0391-5.0391-5.0391-2.7852 0-5.0391 2.2578-5.0391 5.0391v15.742c0.003906 2.7812 2.2539 5.0391 5.0391 5.0391z"/>
  <path d="m453.89 245.71c2.7852 0 5.0391-2.2578 5.0391-5.0391v-15.742c0-2.7812-2.2539-5.0391-5.0391-5.0391-2.7852 0-5.0391 2.2578-5.0391 5.0391v15.742c0.003906 2.7812 2.2578 5.0391 5.0391 5.0391z"/>
  <path d="m481.3 245.71c2.7852 0 5.0391-2.2578 5.0391-5.0391l-0.003906-15.742c0-2.7812-2.2539-5.0391-5.0391-5.0391-2.7852 0-5.0391 2.2578-5.0391 5.0391v15.742c0.003906 2.7812 2.2539 5.0391 5.043 5.0391z"/>
  <path d="m508.7 245.71c2.7852 0 5.0391-2.2578 5.0391-5.0391v-15.742c0-2.7812-2.2539-5.0391-5.0391-5.0391-2.7852 0-5.0391 2.2578-5.0391 5.0391v15.742c0.003906 2.7812 2.2539 5.0391 5.0391 5.0391z"/>
  <path d="m460.21 343.34c-9.1602-1.5664-17.523-1.1875-24.973 0.95312-7.4062-7.3906-17.215-12.207-30.156-13.285 1.2578-7.5508 5.2695-22.035 17.984-30.516 2.3164-1.543 2.9414-4.6719 1.3945-6.9883-1.543-2.3164-4.6719-2.9414-6.9883-1.3945-16.879 11.25-21.391 30.039-22.602 38.797-13.551 0.90625-23.719 5.8594-31.344 13.539-7.5938-2.2969-16.156-2.7109-25.562-1.1016-50.73 8.6992-48.516 60.68-40.918 104.99 11.957 69.707 38.078 109.98 70.68 109.98 2.2969 0 4.6367-0.20312 7.0039-0.60938 2.8047-0.48438 5.5117-1.2539 8.0742-2.2578 5.1484 2.4922 10.688 3.8984 16.656 3.8984 5.8477 0 11.281-1.3594 16.34-3.7578 2.4336 0.92187 4.9844 1.6523 7.6445 2.1094 2.3672 0.40234 4.6992 0.60547 7.0039 0.60547 32.598 0 58.719-40.27 70.676-109.98 5.5977-32.637 5.25-56.688-1.0586-73.543-6.6289-17.688-19.66-27.977-39.855-31.438zm-153.23 103.29c-12.879-75.117 9.3008-89.344 32.691-93.355 6.2812-1.0742 11.891-1.1445 17-0.20703-12.914 20.156-15.285 50.898-15.285 79.152 0 56.801 11.105 97.145 30.648 115.67-34.258 4.793-56.078-48.949-65.055-101.26zm44.484-14.41c0-64.059 14.359-91.391 47.996-91.391 33.641 0 47.996 27.332 47.996 91.391 0 56.582-12.609 117.05-47.996 117.05s-47.996-60.469-47.996-117.05zm139.74 14.41c-8.918 51.977-30.527 105.32-64.391 101.34 19.598-18.484 30.73-58.863 30.73-115.75 0-28.301-2.3828-59.094-15.348-79.246 4.9336-0.8125 10.309-0.73047 16.312 0.29688 16.582 2.8398 26.781 10.801 32.121 25.055 5.6719 15.137 5.8516 37.48 0.57422 68.305z"/>
 </g>
</svg>