<?xml version="1.0" encoding="UTF-8"?>
<!-- The Best Svg Icon site in the world: iconSvg.co, Visit us! https://iconsvg.co -->
<svg fill="#000000" width="800px" height="800px" version="1.1" viewBox="144 144 512 512" xmlns="http://www.w3.org/2000/svg">
 <g>
  <path d="m203.51 542.82h8.5625v53.668c0 2.7812 2.2539 5.0391 5.0391 5.0391h40.16c2.7852 0 5.0391-2.2539 5.0391-5.0391v-53.668h275.63v53.668c0 2.7812 2.2539 5.0391 5.0391 5.0391h40.16c2.7852 0 5.0391-2.2539 5.0391-5.0391v-53.668h8.3047c2.7852 0 5.0391-2.2539 5.0391-5.0391v-41.863c0-2.7812-2.2539-5.0391-5.0391-5.0391h-8.3047v-159.48h8.3047c2.7852 0 5.0391-2.2539 5.0391-5.0391v-41.863c0-2.7812-2.2539-5.0391-5.0391-5.0391h-39.23c-1.5273-20.574-17.551-37.156-37.887-39.508-0.75781-23.059-19.707-41.598-42.949-41.598-16.438 0-30.738 9.2773-37.977 22.863-7.2383-13.586-21.539-22.863-37.977-22.863s-30.742 9.2773-37.98 22.863c-7.2383-13.586-21.539-22.863-37.977-22.863-23.242 0-42.188 18.539-42.945 41.598-20.336 2.3516-36.367 18.934-37.891 39.508h-40.16c-2.7852 0-5.0391 2.2539-5.0391 5.0391v41.863c0 2.7812 2.2539 5.0391 5.0391 5.0391h8.5625v159.48h-8.5625c-2.7852 0-5.0391 2.2539-5.0391 5.0391v41.863c0.003906 2.7852 2.2539 5.0391 5.0391 5.0391zm48.723 48.629h-30.086v-48.629h30.086zm325.87 0h-30.086v-48.629h30.086zm-30.926-311.99h-65.559c1.6172-16.668 15.699-29.742 32.781-29.742 17.086 0 31.164 13.074 32.777 29.742zm-70.758-71.031c17.695 0 32.137 14.031 32.875 31.547-14.258 1.6992-26.395 10.375-32.875 22.531-6.4766-12.156-18.609-20.836-32.871-22.531 0.73828-17.516 15.176-31.547 32.871-31.547zm-5.2031 71.031h-65.555c1.6133-16.668 15.691-29.742 32.777-29.742s31.164 13.074 32.777 29.742zm-70.754-71.031c17.695 0 32.129 14.031 32.867 31.547-14.258 1.6992-26.395 10.375-32.871 22.531-6.4766-12.156-18.613-20.836-32.875-22.531 0.74609-17.516 15.184-31.547 32.879-31.547zm-5.1992 71.031h-65.562c1.6133-16.668 15.691-29.742 32.777-29.742 17.086 0 31.168 13.074 32.785 29.742zm-70.762-71.031c17.695 0 32.129 14.031 32.867 31.547-14.258 1.6992-26.391 10.375-32.867 22.531-6.4766-12.156-18.609-20.832-32.867-22.531 0.73828-17.516 15.176-31.547 32.867-31.547zm-37.977 41.289c17.086 0 31.164 13.074 32.777 29.742h-65.559c1.6133-16.668 15.695-29.742 32.781-29.742zm-77.973 71.605v-31.789h382.89v31.789zm369.55 10.078v159.48h-30.086v-159.48zm-87.418 104.34v-47.914h47.258v47.914zm47.258 10.074v45.062h-47.258v-45.062zm-47.258-68.066v-46.355h47.258v46.355zm-57.012 57.992v-47.914h46.938v47.914zm46.938 10.074v45.062h-46.938v-45.062zm-46.938-68.066v-46.355l46.938 0.003906v46.355zm-57.016 57.992v-47.914h46.938v47.914zm46.938 10.074v45.062h-46.938v-45.062zm-46.938-68.066v-46.355h46.938v46.355zm-57.012 57.992v-47.914h46.938v47.914zm46.938 10.074v45.062h-46.938v-45.062zm-46.938-68.066v-46.355h46.938v46.355zm-57.332 57.992v-47.914h47.258v47.914zm47.258 10.074v45.062h-47.258v-45.062zm-47.258-68.066v-46.355h47.258v46.355zm-10.078-46.352v159.48h-30.086v-159.48zm-43.684 169.56h382.89v31.789h-382.89z"/>
  <path d="m568.27 300.39h-10.426c-2.7852 0-5.0391 2.2539-5.0391 5.0391 0 2.7812 2.2539 5.0391 5.0391 5.0391h10.426c2.7852 0 5.0391-2.2539 5.0391-5.0391 0-2.7852-2.2539-5.0391-5.0391-5.0391z"/>
  <path d="m568.27 511.81h-10.426c-2.7852 0-5.0391 2.2539-5.0391 5.0391 0 2.7812 2.2539 5.0391 5.0391 5.0391h10.426c2.7852 0 5.0391-2.2539 5.0391-5.0391s-2.2539-5.0391-5.0391-5.0391z"/>
  <path d="m242.41 300.39h-10.426c-2.7852 0-5.0391 2.2539-5.0391 5.0391 0 2.7812 2.2539 5.0391 5.0391 5.0391h10.426c2.7852 0 5.0391-2.2539 5.0391-5.0391 0-2.7852-2.2539-5.0391-5.0391-5.0391z"/>
  <path d="m242.41 511.81h-10.426c-2.7852 0-5.0391 2.2539-5.0391 5.0391 0 2.7812 2.2539 5.0391 5.0391 5.0391h10.426c2.7852 0 5.0391-2.2539 5.0391-5.0391s-2.2539-5.0391-5.0391-5.0391z"/>
 </g>
</svg>