<?xml version="1.0" encoding="UTF-8"?>
<!-- The Best Svg Icon site in the world: iconSvg.co, Visit us! https://iconsvg.co -->
<svg fill="#000000" width="800px" height="800px" version="1.1" viewBox="144 144 512 512" xmlns="http://www.w3.org/2000/svg">
 <path d="m597.86 321.91h-7.4727c-1.4453-27.32-19.734-50.246-44.805-58.789l8.6719-8.6719c4.707 3.2383 10.176 4.9023 15.672 4.9023 7.0938 0 14.188-2.6992 19.594-8.1016 18.086-18.086 12.012-45.953 11.742-47.133-0.39453-1.7227-1.6562-3.1133-3.332-3.668-1.1094-0.35937-27.277-8.6992-47.594 11.613-9.582 9.5859-10.621 24.48-3.2031 35.266l-13.012 13.012c-2.8828-0.4375-5.8086-0.71875-8.8008-0.77734-2.5039-34.086-31.258-61.082-66.336-61.082-27.738 0-51.543 16.883-61.535 40.805-9.9883-23.926-33.801-40.805-61.539-40.805-35.246 0-64.105 27.262-66.355 61.586-0.44922 0.054688-0.88672 0.13672-1.3281 0.20312l-12.938-12.938c7.4219-10.785 6.3828-25.68-3.2031-35.266-20.32-20.32-46.488-11.969-47.594-11.613-1.6758 0.55469-2.9375 1.9453-3.332 3.668-0.26562 1.1797-6.3477 29.043 11.738 47.133 5.4023 5.4023 12.5 8.1016 19.594 8.1016 5.4961 0 10.965-1.6641 15.672-4.9023l8.5156 8.5156c-25.293 8.4219-43.781 31.465-45.238 58.941h-7.4766c-2.7812 0-5.0391 2.2578-5.0391 5.0391v63.238c0 2.7812 2.2578 5.0391 5.0391 5.0391h11.23v29.836h-11.23c-2.7812 0-5.0391 2.2578-5.0391 5.0391v63.238c0 2.7812 2.2578 5.0391 5.0391 5.0391h11.23v29.836h-11.23c-2.7812 0-5.0391 2.2578-5.0391 5.0391v63.234c0 2.7812 2.2578 5.0391 5.0391 5.0391h393.89c2.7812 0 5.0391-2.2578 5.0391-5.0391l-0.003906-63.238c0-2.7812-2.2578-5.0391-5.0391-5.0391h-10.996v-29.836h11.004c2.7812 0 5.0391-2.2578 5.0391-5.0391l-0.003906-63.234c0-2.7812-2.2578-5.0391-5.0391-5.0391h-11v-29.836h11.004c2.7812 0 5.0391-2.2578 5.0391-5.0391l-0.003906-63.238c0-2.7812-2.25-5.0391-5.0391-5.0391zm-40.402-102.73c12.566-12.566 28.129-11.133 34.461-9.8711 0.86719 6.7656 1.6641 23.625-9.5234 34.812-6.8789 6.8789-18.055 6.8711-24.938 0-6.875-6.875-6.875-18.062 0-24.941zm-337.43 24.945c-11.113-11.113-10.359-28.012-9.5117-34.797 6.3398-1.2344 21.965-2.6211 34.449 9.8594 6.8711 6.8789 6.8711 18.062 0 24.938-6.8711 6.8672-18.055 6.8711-24.938 0zm360.29 77.781h-112.64c1.8242-29.152 26.348-52.336 56.32-52.336 29.973 0.003907 54.496 23.188 56.32 52.336zm-179.39-52.332c29.973 0 54.496 23.184 56.32 52.336l-112.64-0.003906c1.8203-29.148 26.348-52.332 56.32-52.332zm58.066-61.023c29.711 0 54.082 22.781 56.281 51.574-23.93 3.1172-43.891 18.809-52.812 40.168-9.7695-23.391-32.77-39.988-59.723-40.711 2.4648-28.535 26.73-51.031 56.254-51.031zm-123.07 0c29.711 0 54.082 22.781 56.281 51.574-23.93 3.1172-43.891 18.809-52.812 40.168-9.7695-23.391-32.77-39.988-59.723-40.711 2.4609-28.535 26.73-51.031 56.254-51.031zm-58.07 61.023c29.973 0 54.496 23.184 56.32 52.336l-112.64-0.003906c1.8281-29.148 26.355-52.332 56.32-52.332zm314.98 321.87h-383.82v-53.16h383.82zm-16.043-63.238h-351.51v-29.836h351.51zm16.043-39.91h-383.82v-53.164h383.82zm-16.043-63.238h-351.51v-29.836h351.51zm16.043-39.914h-383.82v-53.16h383.82z"/>
</svg>