<?xml version="1.0" encoding="UTF-8"?>
<!-- The Best Svg Icon site in the world: iconSvg.co, Visit us! https://iconsvg.co -->
<svg fill="#000000" width="800px" height="800px" version="1.1" viewBox="144 144 512 512" xmlns="http://www.w3.org/2000/svg">
 <g>
  <path d="m636.16 190.87-47.23-28.34-39.359 23.617-39.359-23.617-47.23 28.34v56.152l39.359 23.617v47.23l47.23 28.34 47.23-28.34v-47.23l39.359-23.617zm-157.44 8.9102 31.488-18.895 31.488 18.895v38.312l-31.484 18.891-31.488-18.895zm102.34 109.17-31.488 18.895-31.488-18.895v-38.32l31.484-18.891 31.484 18.891zm39.359-70.848-31.488 18.895-31.484-18.891-0.003906-38.324 31.488-18.895 31.488 18.895z"/>
  <path d="m439.36 307.36v-72.672h-15.746v70.848c-17.238 0.027344-33.879 6.3359-46.809 17.742-12.926 11.41-21.254 27.137-23.426 44.242-20.477-3.4141-41.512-0.21094-60.047 9.1445l-22.355-22.355c-11.039-11.109-26.062-17.348-41.723-17.316h-6.375c-19.938 0.09375-38.48 10.246-49.305 26.988-10.824 16.746-12.465 37.824-4.3633 56.039 8.1016 18.219 24.852 31.117 44.535 34.297-6.8906 12.664-10.516 26.848-10.547 41.266v61.855c0.0625 1.4023 0.20703 2.8008 0.42188 4.1875l-32.59 32.59v0.003906c-6.207 6.207-8.6289 15.254-6.3594 23.73 2.2734 8.4805 8.8945 15.102 17.375 17.375 8.4805 2.2695 17.527-0.15234 23.734-6.3594l32.59-32.59c1.3867 0.21875 2.7852 0.35938 4.1875 0.42578h61.859c14.418-0.035156 28.598-3.6602 41.262-10.551 3.2344 19.629 16.137 36.312 34.324 44.375s39.211 6.4258 55.93-4.3555 26.883-29.258 27.043-49.152v-13.02c-0.019531-16.473-6.9062-32.195-18.996-43.383l-18.895-17.461c8.1523-17.703 10.742-37.469 7.4258-56.676 17.09-2.1758 32.805-10.504 44.207-23.422 11.398-12.918 17.707-29.543 17.742-46.773h70.848l0.003906-15.746h-72.676c-2.9883-12.984-9.5664-24.867-18.988-34.285-9.4219-9.4219-21.305-16.004-34.289-18.992zm-86.215 76.109c0 0.17969 0.054688 0.34766 0.078125 0.52734 0.078125 0.78906 0.21094 1.4961 0.31641 2.2422 0.20313 1.4727 0.41797 2.9375 0.69922 4.3672 0.16406 0.84375 0.38672 1.668 0.58203 2.5039 0.31641 1.3164 0.63672 2.6133 1.0234 3.8984 0.25 0.85156 0.53516 1.6836 0.78906 2.5273 0.41797 1.2266 0.86719 2.4414 1.3477 3.6367 0.33203 0.82422 0.67578 1.6406 1.0391 2.4492 0.52734 1.1719 1.0859 2.3633 1.6758 3.4648 0.40234 0.78906 0.78906 1.5742 1.2188 2.2969 0.64453 1.1484 1.3477 2.2578 2.0547 3.3711 0.44141 0.68359 0.86719 1.3867 1.332 2.0547 0.78906 1.1719 1.6836 2.3047 2.5664 3.4258 0.42578 0.54297 0.82812 1.1094 1.2734 1.6445 1.332 1.5742 2.7148 3.1484 4.1797 4.5977l0.085938 0.09375c1.4883 1.4883 3.0547 2.8984 4.6758 4.25 0.54297 0.44922 1.125 0.85938 1.6758 1.3008 1.1094 0.86719 2.2188 1.7305 3.3867 2.5352 0.69141 0.48047 1.4102 0.91406 2.1172 1.3711 1.0781 0.69141 2.1641 1.3711 3.2891 2.0078 0.78906 0.44141 1.5742 0.85156 2.3633 1.2578 1.1094 0.57422 2.2266 1.1172 3.3789 1.6367 0.83594 0.37109 1.6758 0.73047 2.5273 1.0703 1.1641 0.47266 2.3633 0.90625 3.5508 1.3164 0.86719 0.30078 1.7227 0.58984 2.6055 0.85156 1.25 0.37891 2.5273 0.69141 3.8008 1 0.85938 0.20312 1.7148 0.42578 2.5898 0.59766 1.4023 0.28516 2.832 0.48828 4.2656 0.68359 0.78906 0.10938 1.5742 0.25 2.3633 0.33203l0.51953 0.070312v-0.007812c3.0938 15.086 1.8164 30.742-3.6875 45.125l-54.641-50.438-53.094-53.105c15.156-6.4336 31.898-8.1641 48.051-4.957zm-115.83 196.95-17.738-17.734c-0.40625-1.7188-0.62109-3.4805-0.63672-5.2461v-43.973l67.59 67.59h-43.973c-1.7656-0.015626-3.5234-0.22656-5.2422-0.63672zm-18.059-88.898c0.73047-13.055 5.0508-25.656 12.477-36.418h23.309l89.852 89.852v23.309c-10.762 7.4258-23.363 11.742-36.418 12.469zm125.64 31.172-67.59-67.59h67.59zm-165.31-126.63c0.011719-11.48 4.5781-22.484 12.695-30.602 8.1172-8.1172 19.121-12.684 30.602-12.695h6.3594c11.496-0.035156 22.531 4.5312 30.637 12.684l26.434 26.434 47.453 47.477h-110.88c-11.48-0.011719-22.484-4.5781-30.602-12.695-8.1172-8.1172-12.684-19.121-12.695-30.602zm15.066 221.77c-3.4453 3.4492-9.0352 3.4492-12.484 0-3.4492-3.4453-3.4492-9.0352 0-12.484l27.109-27.109c3.168 5.0508 7.4375 9.3164 12.488 12.484zm252.58-53.734v13.02c0 15.469-8.2539 29.762-21.648 37.496s-29.898 7.7344-43.297 0c-13.395-7.7344-21.648-22.027-21.648-37.496v-111.91l49.492 45.656 23.168 21.383c8.8789 8.2109 13.93 19.754 13.934 31.848zm-23.441-132.61h-0.84375c-14.406-0.085937-28.203-5.8438-38.391-16.027-10.191-10.188-15.957-23.977-16.043-38.387v-0.69141c0.015625-14.609 5.8281-28.617 16.156-38.945 10.332-10.332 24.336-16.141 38.945-16.16v15.742h15.742l0.003906-13.418c17.781 5.3438 31.691 19.254 37.039 37.035h-13.422v15.742h15.742v0.003906c0 14.586-5.7812 28.574-16.078 38.902s-24.27 16.156-38.852 16.203z"/>
 </g>
</svg>