<?xml version="1.0" encoding="UTF-8"?>
<!-- The Best Svg Icon site in the world: iconSvg.co, Visit us! https://iconsvg.co -->
<svg fill="#000000" width="800px" height="800px" version="1.1" viewBox="144 144 512 512" xmlns="http://www.w3.org/2000/svg">
 <g>
  <path d="m557.85 405.08h10.426c2.7852 0 5.0391-2.2539 5.0391-5.0391 0-2.7812-2.2539-5.0391-5.0391-5.0391h-10.426c-2.7852 0-5.0391 2.2539-5.0391 5.0391 0 2.7812 2.2539 5.0391 5.0391 5.0391z"/>
  <path d="m557.85 580.66h10.426c2.7852 0 5.0391-2.2539 5.0391-5.0391 0-2.7812-2.2539-5.0391-5.0391-5.0391h-10.426c-2.7852 0-5.0391 2.2539-5.0391 5.0391 0 2.7812 2.2539 5.0391 5.0391 5.0391z"/>
  <path d="m242.41 395h-10.426c-2.7852 0-5.0391 2.2539-5.0391 5.0391 0 2.7812 2.2539 5.0391 5.0391 5.0391h10.426c2.7852 0 5.0391-2.2539 5.0391-5.0391 0-2.7812-2.2539-5.0391-5.0391-5.0391z"/>
  <path d="m596.48 198.48h-392.97c-2.7852 0-5.0391 2.2539-5.0391 5.0391v41.727c0 2.7812 2.2539 5.0391 5.0391 5.0391h8.5625v123.86l-8.5625-0.003906c-2.7852 0-5.0391 2.2539-5.0391 5.0391v41.727c0 2.7812 2.2539 5.0391 5.0391 5.0391h8.5625v123.77h-8.5625c-2.7852 0-5.0391 2.2539-5.0391 5.0391l0.003906 41.727c0 2.7812 2.2539 5.0391 5.0391 5.0391h392.97c2.7852 0 5.0391-2.2539 5.0391-5.0391v-41.727c0-2.7812-2.2539-5.0391-5.0391-5.0391h-8.3047l-0.003906-123.77h8.3047c2.7852 0 5.0391-2.2539 5.0391-5.0391v-41.727c0-2.7812-2.2539-5.0391-5.0391-5.0391h-8.3047v-123.86h8.3047c2.7852 0 5.0391-2.2539 5.0391-5.0391v-41.727c0-2.7812-2.2539-5.0352-5.0391-5.0352zm-374.34 51.801h30.086v123.86h-30.086zm234.75 123.86v-48.117c0-31.371-25.523-56.898-56.895-56.898s-56.895 25.523-56.895 56.898v48.117h-80.793v-123.86h275.63v123.86zm42.637 175.58-21.734-123.77h60.145v123.77zm-10.234 0h-178.36l29.059-165.5h120.23zm-166.86-123.77-21.734 123.77h-38.398l0.003906-123.77zm124.38-51.805h-93.637v-48.117c0-25.816 21.004-46.82 46.82-46.82s46.82 21.004 46.82 46.82zm-238.27 10.078h121.22l-5.5586 31.652-115.66-0.003906zm13.598 41.727h30.086v123.77h-30.086zm369.3 165.5h-382.89v-31.652h382.89zm-13.344-41.727h-30.086v-123.77h30.086zm13.344-133.85h-115.42l-5.5586-31.652 120.98 0.003906zm-13.344-41.727h-30.086v-123.86h30.086zm13.344-133.94h-382.89v-31.652h382.89z"/>
  <path d="m557.85 229.41h10.426c2.7852 0 5.0391-2.2539 5.0391-5.0391 0-2.7812-2.2539-5.0391-5.0391-5.0391h-10.426c-2.7852 0-5.0391 2.2539-5.0391 5.0391s2.2539 5.0391 5.0391 5.0391z"/>
  <path d="m231.98 229.41h10.426c2.7852 0 5.0391-2.2539 5.0391-5.0391 0-2.7812-2.2539-5.0391-5.0391-5.0391h-10.426c-2.7852 0-5.0391 2.2539-5.0391 5.0391s2.2539 5.0391 5.0391 5.0391z"/>
  <path d="m231.98 580.66h10.426c2.7852 0 5.0391-2.2539 5.0391-5.0391 0-2.7812-2.2539-5.0391-5.0391-5.0391h-10.426c-2.7852 0-5.0391 2.2539-5.0391 5.0391 0 2.7812 2.2539 5.0391 5.0391 5.0391z"/>
  <path d="m369.77 427.24h60.457c2.7852 0 5.0391-2.2539 5.0391-5.0391 0-2.7812-2.2539-5.0391-5.0391-5.0391h-60.457c-2.7852 0-5.0391 2.2539-5.0391 5.0391 0 2.7812 2.2539 5.0391 5.0391 5.0391z"/>
  <path d="m357.18 471.07h85.648c2.7852 0 5.0391-2.2539 5.0391-5.0391 0-2.7812-2.2539-5.0391-5.0391-5.0391h-85.648c-2.7852 0-5.0391 2.2539-5.0391 5.0391 0 2.7812 2.2539 5.0391 5.0391 5.0391z"/>
  <path d="m345.21 516.5h109.58c2.7852 0 5.0391-2.2539 5.0391-5.0391 0-2.7812-2.2539-5.0391-5.0391-5.0391h-109.58c-2.7852 0-5.0391 2.2539-5.0391 5.0391s2.2539 5.0391 5.0391 5.0391z"/>
 </g>
</svg>