<?xml version="1.0" encoding="UTF-8"?>
<!-- The Best Svg Icon site in the world: iconSvg.co, Visit us! https://iconsvg.co -->
<svg fill="#000000" width="800px" height="800px" version="1.1" viewBox="144 144 512 512" xmlns="http://www.w3.org/2000/svg">
 <path d="m312.84 563.54c-0.60547-0.40234-1.2578-0.80469-1.8633-1.2578-5.3398-3.7266-10.277-8.2617-15.062-13.855l-1.3594-1.6641c-0.91016-1.0078-1.8164-2.0664-2.625-3.1719-1.5078-1.9648-2.7695-3.6797-3.7266-5.293-0.70703-0.95703-1.2578-1.8633-1.8633-2.7695-0.60547-0.90625-1.2109-1.8633-1.8125-2.8203-2.1172-3.5273-4.2305-7.5078-6.5-12.191-1.5625-3.3242-3.1758-7.0547-4.7344-10.984-0.70703-1.8633-1.3633-3.7305-2.0195-5.6953-1.5625-4.4336-2.7695-8.4141-3.7773-12.293-0.75391-2.7188-1.5117-5.793-2.2148-9.2188-0.90625-3.8281-1.6133-7.5586-2.1172-11.133-0.55469-3.2227-1.0078-6.5508-1.3594-9.9766-0.20313-1.0078-0.30078-2.0664-0.30078-3.2227-0.45312-3.4258-0.65625-6.6992-0.80469-9.8242 0-0.25-0.050781-0.45312 0-0.60547-0.25-3.6289-0.35156-7.3555-0.35156-11.84 0-3.8789 0.10156-7.707 0.30078-11.539 0-0.75391 0.25-3.6758 0.25-3.6758 0.15234-2.5195 0.35156-5.0898 0.55469-7.6094 0.15234-1.0586 0.50391-4.2305 0.50391-4.2305 0.30078-2.2656 0.55469-4.5352 0.90625-6.75 0.20312-1.4609 0.45312-2.9219 0.70703-4.332 0.35156-2.168 0.75391-4.2812 1.2109-6.3984 0.30078-1.4102 0.55469-2.8203 0.90625-4.1836 0.45312-2.168 1.0078-4.2305 1.5625-6.2969 0 0 0.70703-2.8711 1.0078-3.8789 0.60547-2.2148 1.3086-4.3828 2.0156-6.5508 0 0 0.80469-2.5195 1.0078-3.1758 1.0078-2.9219 2.1172-5.8438 3.2734-8.6641l0.20312-0.55469c1.2578-2.9727 2.5703-5.8945 3.9297-8.7148 0.25-0.50391 1.3594-2.5195 1.3594-2.5195 0.95703-1.9141 1.9648-3.8281 2.9727-5.6445 0.40234-0.70703 0.85547-1.4102 1.2578-2.0664l0.50391-0.80469c0.95703-1.6133 1.9648-3.1758 2.9727-4.6836 0.65625-1.0078 1.3594-1.9141 2.0156-2.8711 1.0078-1.4102 2.0664-2.8203 3.125-4.1328 0.70703-0.90625 1.4102-1.8125 2.1172-2.6211 1.1094-1.3086 2.2656-2.5703 3.4258-3.7773l0.45312-0.55469c0.55469-0.55469 1.1602-1.1602 1.7148-1.7617 1.2578-1.2109 2.5703-2.3672 3.8281-3.5273l0.75391-0.65625c0.45312-0.40234 0.85547-0.80469 1.3086-1.1602 1.7148-1.4102 3.4766-2.6719 5.2891-3.9297l3.7266-2.6211-3.375-0.35156c-2.0664-0.20312-4.0312-0.25-6.0469-0.25-54.465 0-98.797 58.543-98.797 130.49 0 48.062 20 92.148 52.145 115.02 14.559 10.227 30.078 15.418 46.199 15.418 2.168 0 4.3828-0.10156 6.6016-0.30078l3.6289-0.30078zm-67.359-205.55c2.7188-3.9805 5.5938-7.7578 8.6641-11.184 0.70703-0.80469 1.7617-1.2578 2.8203-1.2578 0.90625 0 1.8125 0.35156 2.5195 0.95703 1.5625 1.3594 1.6641 3.7773 0.30078 5.3398-2.8203 3.1758-5.543 6.6484-8.0117 10.328-0.70703 1.0586-1.8633 1.7109-3.125 1.7109-0.75391 0-1.5117-0.25-2.1172-0.65625-1.707-1.1562-2.2109-3.5234-1.0508-5.2383zm13.652 166.31c-0.70703 0.65625-1.5625 0.95703-2.5195 0.95703-1.0586 0-2.1172-0.45312-2.8203-1.2578-19.246-21.816-30.328-53.957-30.328-88.266 0-18.691 3.3242-37.18 9.6211-53.555 0.55469-1.4609 1.9648-2.4688 3.5273-2.4688 0.45312 0 0.90625 0.10156 1.3594 0.25 1.9141 0.75391 2.9219 2.9727 2.168 4.8867-5.9453 15.516-9.1172 33.102-9.1172 50.883 0 32.496 10.379 62.824 28.414 83.281 1.4102 1.5586 1.2578 3.9297-0.30469 5.2891zm241.98-191.95c-9.1172-12.043-19.398-20.152-30.531-24.184-5.2383-1.9648-10.68-2.9727-16.121-2.9727-8.7656 0-17.383 2.5703-25.543 7.6094l-1.2109 0.70703 0.90625 1.1602 0.55469 0.80469c0.90625 1.2109 1.8125 2.4688 2.6719 3.7773l0.95703 1.4609c1.1094 1.7617 2.168 3.5781 3.2227 5.4922 0.40234 0.65625 0.80469 1.3594 1.2109 2.168 13.652 26.195 21.461 65.34 21.461 107.36 0 11.637-0.60547 22.723-1.7617 32.898-0.35156 4.2305-0.90625 8.4648-1.4609 12.496-1.6641 11.992-4.1836 23.629-7.4062 34.512-0.55469 2.0156-1.2578 4.1328-2.0156 6.1445-0.45312 1.8125-1.2109 3.7773-1.9141 5.543-0.95703 2.6211-1.9648 5.0391-2.9727 7.3555-0.95703 2.3164-2.0156 4.5859-3.125 6.75-0.30078 0.65625-0.60547 1.2578-0.95703 1.8125-0.25 0.60547-0.70703 1.4102-1.2109 2.2148-1.0039 1.918-2.0625 3.6289-3.1719 5.3438l-0.90625 1.4609c-0.85547 1.2578-1.7148 2.4688-2.6211 3.6289l-0.30078 0.45312-0.85547 1.1055 0.90625 1.1094c8.1602 5.0391 16.777 7.5586 25.594 7.5586 5.3906 0 10.832-0.95703 16.07-2.9219 8.4648-3.0742 16.477-8.5664 23.832-16.324 1.0586-1.1094 2.1172-2.2148 3.125-3.4258 1.2109-1.4102 2.418-2.8711 3.5273-4.3828 19.145-25.039 30.129-62.723 30.129-103.33-0.003906-40.707-10.938-78.344-30.082-103.38zm53.402 0.35547c-17.383-17.984-38.34-27.457-60.609-27.457-2.2656 0-4.5859 0.10156-6.8008 0.30078l-3.5781 0.30078 2.9727 2.0156c1.7617 1.1602 3.4258 2.418 5.0898 3.7266l1.3086 1.1094c1.2109 1.0078 2.3672 2.0156 3.5273 3.125 0.50391 0.50391 1.0586 1.0078 1.5625 1.5625 1.1094 1.0586 2.2148 2.2148 3.2734 3.4258l1.4102 1.5625c1.5117 1.7148 3.0234 3.5273 4.4336 5.4414 20.152 26.25 31.641 65.598 31.641 107.91 0 42.27-11.539 81.566-31.641 107.87-1.1602 1.6133-2.5195 3.2227-3.8789 4.7852-1.207 1.4609-2.4648 2.8203-3.7266 4.1289l-1.2578 1.2109c-0.85547 0.90625-1.7617 1.7617-2.6211 2.5703l-1.1602 1.0078c-1.1602 1.0586-2.0156 1.7617-2.8711 2.418-0.50391 0.45312-1.0586 0.85547-1.5625 1.2578-0.85547 0.60547-1.7109 1.2109-2.5703 1.8125l-0.95703 0.70703-2.9727 2.0156 3.5273 0.30078c2.2656 0.20312 4.5859 0.30078 6.8516 0.30078 16.625 0 32.344-5.1367 46.652-15.367 4.8359-3.4766 9.5234-7.5586 13.906-12.09 24.285-24.938 38.242-62.469 38.242-102.93 0-40.559-13.906-78.09-38.191-103.03zm-16.523 15.414c0.050781-1.0078 0.45312-1.9141 1.2109-2.6211 0.70703-0.65625 1.6133-1.0078 2.5703-1.0078 1.0586 0 2.0664 0.45313 2.7695 1.2109 3.4766 3.7773 6.75 7.9102 9.7227 12.293 0.55469 0.80469 0.75391 1.8125 0.60547 2.8203-0.20312 0.95703-0.75391 1.8125-1.6133 2.418-0.60547 0.40625-1.3594 0.65625-2.1172 0.65625-1.2578 0-2.418-0.65625-3.125-1.6641-2.7695-4.082-5.793-7.9102-9.0195-11.387-0.70312-0.70312-1.0547-1.7109-1.0039-2.7188zm6.6484 177.39c-0.70703 0.75391-1.7148 1.2109-2.7695 1.2109-0.95703 0-1.8633-0.35156-2.5703-1.0078s-1.1602-1.6133-1.2109-2.6211c-0.050782-1.0078 0.35156-1.9648 1.0078-2.7188 18.992-20.504 29.875-51.34 29.875-84.641 0-17.734-3.125-35.215-9.0195-50.531-0.40234-0.95703-0.35156-1.9648 0.050781-2.9219 0.40234-0.90625 1.1602-1.6133 2.1172-1.9648 0.40234-0.15234 0.85547-0.25 1.3086-0.25 1.6133 0 2.9727 0.95703 3.5273 2.418 6.2461 16.223 9.5703 34.613 9.5703 53.254 0.007812 35.16-11.633 67.91-31.887 89.773zm-176.58 26.551-0.95703-1.5117c-1.0586-1.6641-2.1172-3.4258-3.1719-5.2383-0.65625-1.2578-1.3086-2.5703-1.9648-3.8789-1.5117-2.9727-2.9727-6.2461-4.5352-10.078l-0.75391-1.9648c-0.45312-1.1602-0.90625-2.3672-1.3594-3.6289-0.60547-1.7109-1.2578-3.4766-1.8125-5.3398-0.95703-2.7188-1.9141-5.9453-2.7695-9.2695-0.60547-1.9648-1.1602-4.1836-1.7109-6.4492-1.4102-6.0977-2.5703-11.738-3.4766-17.129-0.40234-2.2148-0.75391-4.332-1.0078-6.5-0.35156-2.3164-0.65625-4.6836-0.90625-7.2031-0.40234-2.3672-0.65625-4.8359-0.85547-7.457-0.95703-9.4727-1.4609-19.75-1.4609-30.684 0-43.527 8.2617-83.43 22.621-109.53 1.2578-2.3672 2.6719-4.6836 4.4844-7.4062 0.45312-0.65625 1.9141-2.7227 1.9141-2.7227 0.25-0.40234 0.50391-0.80469 0.80469-1.1602l0.85547-1.1094-1.2188-0.69922c-8.3633-5.2383-17.078-7.8594-25.945-7.8594-5.2383 0-10.578 0.90625-15.82 2.7695-30.43 10.781-54.562 53.051-59.953 105.14-0.80469 7.4062-1.1602 15.012-1.1602 22.57 0 4.3828 0.10156 8.0625 0.35156 11.488v0.50391c0.15234 3.1758 0.35547 6.4023 0.75781 9.4219 0.050782 0.20312 0.050782 0.35156 0.050782 0.50391 0 0.90625 0.050781 1.7109 0.20312 2.5703 0.40234 3.4766 0.85547 6.6484 1.3594 9.8242 0.50391 3.4258 1.2109 7.0039 2.0664 10.68 0.60547 3.0742 1.3086 6.0977 2.1172 8.8672 0.95703 3.6797 2.1172 7.5586 3.6289 11.789 0.60547 1.8633 1.2109 3.6289 1.9141 5.3398 1.5117 3.8281 3.0234 7.4062 4.5352 10.531 2.1172 4.4844 4.1328 8.2109 6.0977 11.488 1.1602 1.8633 2.2656 3.5781 3.4258 5.2383 1.0078 1.5625 2.0156 2.9727 3.0234 4.332l0.45312 0.65625c0.80469 1.0586 1.6133 2.0156 2.418 2.9727l1.4062 1.6641c4.332 5.0391 8.8164 9.168 13.703 12.543 0.90625 0.65625 1.7617 1.2109 2.6211 1.7617 3.5781 2.2656 7.2539 4.082 11.035 5.4922 5.1836 1.8164 10.477 2.7227 15.715 2.7227 8.918 0 17.684-2.6211 26.047-7.8594l1.1602-0.70703-1.4609-2.0156c-0.80859-1.1094-1.6641-2.2656-2.4688-3.4766zm62.473-220.27c-0.35156-0.65625-0.65625-1.1602-1.0586-1.8125-3.1758-5.9453-6.5-10.73-10.125-14.559-6.25-6.7539-12.75-10.18-19.348-10.18-6.75 0-13.352 3.4766-19.648 10.379-3.6289 4.082-6.9531 8.8672-9.8242 14.156-13.551 24.688-21.664 64.285-21.664 105.95 0 10.629 0.50391 20.758 1.4609 30.027 0.15234 2.5703 0.40234 4.8359 0.75391 7.1523 0.30078 2.5195 0.55469 4.8359 0.90625 7.1055 0.25391 2.1172 0.60547 4.082 0.95703 5.9961 0.90625 5.4922 2.0156 10.984 3.4258 16.93 0.55469 2.2148 1.0586 4.2305 1.6641 6.1953 0.85547 3.3242 1.7148 6.2461 2.6719 8.9688 0.50391 1.7617 1.1094 3.3242 1.6641 4.8867 0.50391 1.5117 0.90625 2.5195 1.3086 3.5273l0.75391 2.1172c1.4609 3.4766 2.9219 6.6484 4.2812 9.4219 0.65625 1.3594 1.2578 2.4688 1.8125 3.5781 3.125 5.5938 6.4492 10.328 9.8242 14.105 6.2461 6.8516 12.848 10.328 19.598 10.328 6.6484 0 13.199-3.375 19.398-10.125 3.5273-3.7305 6.9023-8.5664 10.027-14.309 0.45312-0.75391 0.75391-1.3594 1.0586-1.9141 0.40234-0.75391 0.50391-1.0586 0.55469-1.1602 0.050781-0.20312 0.20312-0.40234 0.35156-0.65625 0.70703-1.4102 1.3086-2.7227 1.8633-3.9805l1.1602-2.4688c0.90625-2.1641 1.8125-4.3828 2.6172-6.6484 0.70703-1.8125 1.3086-3.6289 1.9141-5.4414 0.80469-2.0664 1.3594-3.9297 1.8633-5.793 3.1719-10.578 5.5938-21.816 7.2539-33.504 0.50391-3.8789 1.0586-7.9609 1.4102-12.141 1.1094-9.9766 1.7148-20.859 1.7148-32.195 0.003907-40.859-7.5039-78.746-20.602-103.94zm-19.801-53.152c-0.15234-0.35156-0.20312-0.75391-0.20312-1.1094v-43.629h-20.859v43.629c0 0.35156-0.10156 0.75391-0.20312 1.1094l-8.0117 25.543 2.8711-1.7617c5.043-3.1719 10.332-4.7344 15.676-4.7344 5.4414 0 10.781 1.6133 15.871 4.8867l2.9219 1.8633z"/>
</svg>