<?xml version="1.0" encoding="UTF-8"?>
<!-- The Best Svg Icon site in the world: iconSvg.co, Visit us! https://iconsvg.co -->
<svg fill="#000000" width="800px" height="800px" version="1.1" viewBox="144 144 512 512" xmlns="http://www.w3.org/2000/svg">
 <g>
  <path d="m605.68 337.7c-9.3008-7.5-21.512-10.34-33.168-7.7227-0.23047 0.050781-0.46094 0.11328-0.6875 0.1875l-55.883 17.859 23.926-89.727h41.184c4.3477 0 7.8711-3.5234 7.8711-7.8711 0-4.3477-3.5234-7.8711-7.8711-7.8711h-47.23c-3.5664 0-6.6875 2.3984-7.6055 5.8438l-46.863 167.87h-0.003907c-5.668-0.70703-11.402-0.70703-17.074 0.007812-1.4648-7.668-5.1758-14.73-10.656-20.289-5.4805-5.5586-12.488-9.3672-20.133-10.945v-8.6641c-0.007812-6.2617-2.5-12.266-6.9258-16.691-4.4297-4.4258-10.43-6.918-16.691-6.9258h-62.977c-6.2617 0.007813-12.266 2.5-16.691 6.9258-4.4258 4.4258-6.918 10.43-6.9258 16.691v8.6641c-8.8828 1.8242-16.867 6.6602-22.602 13.684-5.7344 7.0273-8.875 15.816-8.8867 24.883v6.5859l-16.074 1.2891c-12.512 0.125-24.227 6.1523-31.605 16.254-15.402-2.1055-30.977 2.3945-42.883 12.395-11.902 10-19.023 24.566-19.605 40.102-0.58203 15.535 5.4297 30.594 16.551 41.457h-24.461c-4.3477 0-7.875 3.5234-7.875 7.8711s3.5273 7.8711 7.875 7.8711h425.09c4.3477 0 7.8711-3.5234 7.8711-7.8711s-3.5234-7.8711-7.8711-7.8711h-81.492c16.684-13.426 26.387-33.688 26.387-55.105h39.359c10.438-0.011719 20.441-4.1602 27.82-11.539 7.3789-7.3789 11.527-17.387 11.539-27.82v-78.828c0.027344-11.941-5.3945-23.25-14.73-30.699zm-268.66 38.68c0.003906-4.3477 3.5234-7.8672 7.8711-7.8711h62.977c4.3438 0.003906 7.8672 3.5234 7.8711 7.8711v7.8711h-78.719zm-31.488 47.23c0.007813-6.2617 2.4961-12.262 6.9258-16.691 4.4258-4.4258 10.43-6.918 16.688-6.9219h94.465c5.2266 0.003906 10.305 1.7422 14.441 4.9375 4.1328 3.1992 7.0938 7.6719 8.418 12.73l-140.94 11.273zm-31.488 23.617c0.21094 0 0.41797-0.007813 0.62891-0.023438l147.24-11.785c-12.023 11.461-19.625 26.789-21.473 43.297h-115.98c-5.3867-11.293-14.438-20.434-25.68-25.93 4.2812-3.582 9.6836-5.5508 15.266-5.5586zm15.172 47.23h111.23c0.59766 5.3711 1.8086 10.652 3.6133 15.746h-114.84c0.76172-5.2188 0.76172-10.523 0-15.746zm-54.531 47.234c-10.441 0-20.453-4.1484-27.832-11.527-7.3828-7.3828-11.531-17.395-11.531-27.832 0-10.441 4.1484-20.453 11.531-27.832 7.3789-7.3828 17.391-11.527 27.832-11.527 10.438 0 20.449 4.1445 27.832 11.527 7.3789 7.3789 11.527 17.391 11.527 27.832-0.011719 10.434-4.1641 20.438-11.543 27.816s-17.383 11.531-27.816 11.543zm38.512 0c4.6484-4.5469 8.4609-9.875 11.262-15.746h127.51c3.9883 5.9414 8.8438 11.25 14.41 15.746zm197.65 0c-18.605-0.015624-35.949-9.418-46.113-25-10.164-15.586-11.777-35.246-4.2891-52.281 7.4883-17.031 23.062-29.137 41.418-32.184l9.2227-0.73828c19.551 0.24219 37.512 10.824 47.195 27.812 9.6836 16.988 9.6406 37.836-0.11719 54.781-9.7578 16.945-27.766 27.453-47.316 27.609zm133.82-94.465c-0.007813 6.2617-2.5 12.266-6.9258 16.691-4.4258 4.4258-10.43 6.918-16.691 6.9258h-41.145c-5.4219-23.578-22.461-42.781-45.227-50.973l14.145-53.047 67.426-21.551c6.957-1.4453 14.195 0.32031 19.707 4.8047 5.5117 4.4883 8.7109 11.215 8.7109 18.32z"/>
  <path d="m234.69 478.72c-6.2656 0-12.273 2.4883-16.699 6.918-4.4297 4.4297-6.918 10.434-6.918 16.699 0 6.2617 2.4883 12.27 6.918 16.699 4.4258 4.4258 10.434 6.9141 16.699 6.9141 6.2617 0 12.27-2.4883 16.699-6.9141 4.4258-4.4297 6.9141-10.438 6.9141-16.699-0.007812-6.2617-2.4961-12.266-6.9219-16.691-4.4297-4.4297-10.434-6.918-16.691-6.9258zm0 31.488c-3.1836 0-6.0547-1.918-7.2734-4.8594s-0.54687-6.3281 1.707-8.5781c2.25-2.2539 5.6367-2.9258 8.5781-1.707 2.9414 1.2188 4.8594 4.0898 4.8594 7.2734-0.003906 4.3438-3.5273 7.8672-7.8711 7.8711z"/>
  <path d="m470.85 447.23c-10.441 0-20.453 4.1484-27.832 11.527-7.3828 7.3828-11.527 17.395-11.527 27.832 0 10.441 4.1445 20.453 11.527 27.832 7.3789 7.3828 17.391 11.527 27.832 11.527 10.438 0 20.449-4.1445 27.832-11.527 7.3789-7.3789 11.527-17.391 11.527-27.832-0.011719-10.434-4.1641-20.438-11.543-27.816-7.3789-7.3789-17.383-11.531-27.816-11.543zm0 62.977c-6.2656 0-12.27-2.4883-16.699-6.918-4.4297-4.4297-6.918-10.434-6.918-16.699 0-6.2617 2.4883-12.27 6.918-16.699 4.4297-4.4297 10.434-6.9141 16.699-6.9141 6.2617 0 12.27 2.4844 16.699 6.9141s6.9141 10.438 6.9141 16.699c-0.003907 6.2617-2.4961 12.266-6.9219 16.691-4.4297 4.4297-10.43 6.918-16.691 6.9258z"/>
  <path d="m581.05 407.87h-23.617c-4.3477 0-7.8711 3.5234-7.8711 7.8711 0 4.3477 3.5234 7.8711 7.8711 7.8711h23.617c4.3477 0 7.8711-3.5234 7.8711-7.8711 0-4.3477-3.5234-7.8711-7.8711-7.8711z"/>
  <path d="m581.05 439.36h-23.617c-4.3477 0-7.8711 3.5234-7.8711 7.8711 0 4.3477 3.5234 7.8711 7.8711 7.8711h23.617c4.3477 0 7.8711-3.5234 7.8711-7.8711 0-4.3477-3.5234-7.8711-7.8711-7.8711z"/>
 </g>
</svg>