<?xml version="1.0" encoding="UTF-8"?>
<!-- The Best Svg Icon site in the world: iconSvg.co, Visit us! https://iconsvg.co -->
<svg fill="#000000" width="800px" height="800px" version="1.1" viewBox="144 144 512 512" xmlns="http://www.w3.org/2000/svg">
 <path d="m225.88 287.65c-0.64062 3.7383 0.86719 7.4453 3.9375 9.6719 1.7305 1.2578 3.7578 1.8984 5.8008 1.8984 1.5703 0 3.1523-0.37891 4.6094-1.1445l25.191-13.332 25.363 13.332c3.3516 1.7656 7.3398 1.4805 10.41-0.74609 3.0703-2.2305 4.5781-5.9336 3.9375-9.6719l-4.8984-28.074 20.52-20.004c2.7148-2.6484 3.6719-6.5312 2.5-10.137-1.1719-3.6055-4.2305-6.1836-7.9844-6.7266l-28.215-4.0156-12.68-25.699c-1.6758-3.3984-5.0742-5.5117-8.8672-5.5117h-0.003906c-3.7891 0-7.1875 2.1094-8.8672 5.5117l-12.535 25.594-28.363 4.1211c-3.75 0.54688-6.8086 3.125-7.9805 6.7305-1.1719 3.6055-0.21484 7.4883 2.5 10.137l20.465 19.836zm-8.6914-54.973 28.359-4.1211c3.2188-0.46875 6.0039-2.4883 7.4453-5.4102l12.34-25.707 4.5195-2.2227-4.5195 2.2266 12.688 25.711c1.4453 2.9141 4.2305 4.9336 7.4453 5.3984l28.25 3.8008-20.516 20c-2.332 2.2734-3.3984 5.543-2.8477 8.7539l5.1211 28.043-25.367-13.332c-2.8828-1.5156-6.3203-1.5156-9.1992 0l-25.094 13.531 4.8477-28.25c0.54688-3.207-0.51562-6.4766-2.8477-8.7461zm148.03 26.73-4.8438 28.242c-0.64062 3.7383 0.86719 7.4453 3.9375 9.6719 1.7305 1.2578 3.7578 1.8984 5.8008 1.8984 1.5703 0 3.1523-0.37891 4.6133-1.1445l25.188-13.332 25.363 13.332c3.3555 1.7656 7.3398 1.4844 10.41-0.74609 3.0703-2.2305 4.5742-5.9336 3.9375-9.6719l-4.8945-28.074 20.52-20.004c2.7148-2.6484 3.6719-6.5312 2.5-10.137-1.1719-3.6055-4.2305-6.1836-7.9844-6.7305l-28.215-4.0156-12.684-25.699c-1.6719-3.3984-5.0742-5.5117-8.8594-5.5117l-0.003906-0.007813c-3.7891 0-7.1914 2.1133-8.8672 5.5117l-12.539 25.594-28.363 4.1211c-3.75 0.54688-6.8086 3.125-7.9805 6.7266-1.1719 3.6055-0.21094 7.4922 2.5 10.137zm14.824-30.852c3.2148-0.46875 5.9961-2.4844 7.4492-5.4102l12.336-25.711 4.5234-2.2188-4.5195 2.2266v0.003906l12.691 25.711c1.4414 2.9141 4.2266 4.9336 7.4375 5.3984l28.254 3.7969-20.516 20c-2.3359 2.2695-3.3984 5.543-2.8477 8.7539l5.1172 28.043-25.363-13.332c-2.8828-1.5195-6.3242-1.5195-9.2031-0.003906l-25.094 13.531 4.8398-28.242c0.55469-3.2109-0.51172-6.4805-2.8398-8.7539l-20.629-19.68zm212.2 0.87891c-1.1719-3.6055-4.2266-6.1836-7.9805-6.7305l-28.223-4.0156-12.68-25.699v-0.003906c-1.6758-3.3984-5.0781-5.5117-8.8672-5.5117h-0.003907c-3.793 0.003906-7.1875 2.1172-8.8594 5.5117l-12.543 25.594-28.359 4.1211c-3.7539 0.54688-6.8086 3.125-7.9805 6.7305-1.1719 3.6055-0.21484 7.4883 2.5 10.137l20.469 19.836-4.8477 28.242c-0.64063 3.7383 0.86719 7.4453 3.9375 9.6719 1.7305 1.2578 3.7578 1.8984 5.8008 1.8984 1.5742 0 3.1523-0.37891 4.6094-1.1445l25.191-13.332 25.363 13.332c3.3516 1.7656 7.3398 1.4844 10.41-0.74609 3.0703-2.2305 4.5742-5.9336 3.9375-9.6719l-4.8945-28.074 20.52-20.004c2.7148-2.6523 3.668-6.5391 2.5-10.141zm-30.059 22.926c-2.332 2.2734-3.3906 5.543-2.8398 8.7461l5.1133 28.043-25.363-13.332c-2.8789-1.5195-6.3203-1.5195-9.1992-0.003906l-25.098 13.531 4.8477-28.242c0.55078-3.207-0.50781-6.4766-2.8398-8.7539l-20.629-19.68 28.359-4.1211c3.2227-0.46875 6.0078-2.4922 7.4453-5.4102l12.344-25.703 4.5195-2.2227-4.5156 2.2266 12.684 25.711c1.4414 2.9141 4.2266 4.9336 7.4453 5.3984l28.25 3.7969zm-231.35 218.72c1.3672 2.4219 0.50781 5.4961-1.9141 6.8633-0.78125 0.44141-1.6328 0.64844-2.4688 0.64844-1.7578 0-3.4648-0.92188-4.3945-2.5625-7.4648-13.234-18.109-21.934-29.203-23.871-2.7422-0.48047-4.5742-3.0898-4.0977-5.832 0.47656-2.7422 3.0938-4.5352 5.8281-4.0977 14.082 2.4609 27.293 12.973 36.25 28.852zm181.21-48.07c-16.355 0-31.426 7.0547-43.633 18.82-10.512-35.691-37.172-61.164-68.414-61.164-31.238 0-57.902 25.473-68.414 61.164-12.207-11.766-27.273-18.82-43.633-18.82-40.395 0-73.258 42.508-73.258 94.754 0 52.25 32.863 94.758 73.258 94.758 31.238 0 57.898-25.473 68.414-61.164 12.207 11.766 27.277 18.82 43.633 18.82 16.355 0 31.426-7.0547 43.633-18.82 10.516 35.691 37.176 61.16 68.414 61.16 40.395 0 73.254-42.508 73.254-94.758 0.003906-52.242-32.859-94.75-73.254-94.75zm-224.09 179.44c-34.84 0-63.18-37.988-63.18-84.684 0-46.691 28.34-84.68 63.18-84.68s63.18 37.988 63.18 84.68c0 46.695-28.34 84.684-63.18 84.684zm152.93-62.578c-11.031 12.59-25.293 20.234-40.883 20.234s-29.855-7.6445-40.883-20.238c1.3203-7.1055 2.0938-14.48 2.0938-22.105 0-26.207-8.2734-49.957-21.617-67.129 7.9258-34.633 32-59.895 60.406-59.895 28.402 0 52.477 25.262 60.406 59.895-13.344 17.172-21.617 40.922-21.617 67.129-0.003906 7.6289 0.77344 15.004 2.0938 22.109zm71.16 62.578c-34.84 0-63.184-37.988-63.184-84.684 0-46.691 28.344-84.68 63.184-84.68 34.84 0 63.18 37.988 63.18 84.68 0 46.695-28.34 84.684-63.18 84.684zm42.879-131.37c1.3672 2.4219 0.51172 5.4961-1.9141 6.8633-0.78125 0.44141-1.6328 0.64844-2.4688 0.64844-1.7617 0-3.4688-0.92188-4.3945-2.5625-7.4648-13.234-18.109-21.934-29.207-23.871-2.7422-0.48047-4.5742-3.0898-4.0977-5.832 0.47656-2.7461 3.0898-4.5742 5.832-4.0977 14.082 2.4609 27.297 12.973 36.25 28.852z"/>
</svg>