<?xml version="1.0" encoding="UTF-8"?>
<!-- The Best Svg Icon site in the world: iconSvg.co, Visit us! https://iconsvg.co -->
<svg fill="#000000" width="800px" height="800px" version="1.1" viewBox="144 144 512 512" xmlns="http://www.w3.org/2000/svg">
 <g>
  <path d="m336.79 510.01c0 34.18 27.805 61.984 61.984 61.984 34.18 0 61.984-27.805 61.984-61.984 0-34.18-27.805-61.984-61.984-61.984-34.18 0-61.984 27.805-61.984 61.984zm113.89 0c0 28.621-23.285 51.91-51.91 51.91-28.621 0-51.91-23.285-51.91-51.91 0-28.621 23.285-51.91 51.91-51.91s51.91 23.289 51.91 51.91z"/>
  <path d="m370.25 510.01c0 15.723 12.793 28.516 28.516 28.516 15.723 0 28.516-12.793 28.516-28.516 0-15.723-12.793-28.516-28.516-28.516-15.723 0-28.516 12.793-28.516 28.516zm46.953 0c0 10.168-8.2734 18.441-18.441 18.441s-18.438-8.2734-18.438-18.441c0-10.168 8.2695-18.438 18.438-18.438 10.172 0 18.441 8.2695 18.441 18.438z"/>
  <path d="m198.93 468.54c-4.3711 43.707 24.176 83.988 71.039 100.23 13.43 4.6562 21.305 11.453 25.539 22.047 2.5625 6.4102 9.1172 10.699 16.336 10.699h0.12109c7.1797-0.050782 13.523-4.2031 16.164-10.586 2.207-5.3281 5.375-9.4414 9.7031-12.852 16.199 14.52 37.523 23.438 60.941 23.438 50.461 0 91.516-41.051 91.516-91.516 0-48.785-38.398-88.656-86.543-91.262-20.574-24.066-52.012-38.477-86.18-39.801 2.543-34.891 37.848-43.613 39.512-44 2.7109-0.61719 4.4102-3.3164 3.793-6.0273-0.61719-2.7148-3.3203-4.4141-6.0273-3.7969-0.33984 0.074218-23.66 5.6875-37.523 25.09v-35.445c0-2.7812-2.2539-5.0391-5.0391-5.0391-2.7812 0-5.0391 2.2539-5.0391 5.0391v35.332c-13.871-19.344-37.172-24.898-37.508-24.977-2.7148-0.63281-5.3984 1.0781-6.0195 3.7891-0.62109 2.707 1.0742 5.4102 3.7773 6.0352 1.5781 0.36719 36.965 9.0703 39.512 44.008-0.64844 0.027344-1.293 0.015625-1.9453 0.050781-55.691 2.9766-101.32 41.469-106.13 89.539zm10.027 1.0039c4.1094-41.07 41.941-74.32 89.336-79.801-68.254 63.387-40.738 138.21-23.973 169.92-0.35938-0.12891-0.68359-0.28125-1.0508-0.41016-42.367-14.688-68.211-50.742-64.312-89.711zm109.86 117.54c-1.0742 2.5859-3.8516 4.3398-6.9219 4.3594-3.0781 0.039063-5.9805-1.7305-7.0312-4.3633-2.8984-7.2461-7.2344-13.121-13.125-17.918-0.007812-0.011718-0.011719-0.027343-0.019531-0.042968-3.043-4.1211-72.535-100.77 20.594-178.25 15.707 13.078 27.691 27.523 35.699 43.047-24.547 16.43-40.754 44.395-40.754 76.09 0 23.402 8.9023 44.711 23.406 60.91-5.2109 4.3438-9.1484 9.6406-11.848 16.168zm161.39-77.078c0 44.906-36.535 81.438-81.438 81.438-44.906 0-81.438-36.535-81.438-81.438 0-44.906 36.535-81.438 81.438-81.438 44.902 0 81.438 36.531 81.438 81.438zm-90.086-91.078c-11.957 1.1289-23.23 4.5898-33.41 9.8867-7.2891-13.973-17.512-27.082-30.516-39.148 24.75 2.8047 47.316 13.105 63.926 29.262z"/>
  <path d="m578.52 237.43c0.34766-1.918 0.52344-3.8555 0.52344-5.7969 0-18.281-14.926-33.152-33.27-33.152s-33.27 14.875-33.27 33.152c0 1.9375 0.17578 3.8789 0.52344 5.7969-13.766 5.4453-23.004 18.715-23.004 33.82 0 8.4961 3.0273 16.719 8.4336 23.223-5.4062 6.5039-8.4336 14.727-8.4336 23.223 0 20.098 16.406 36.445 36.574 36.445 4.9297 0 9.6953-1.0039 14.137-2.875v21.414h-11.094c-7.6797 0-15.027 3.3203-20.156 9.1133-5.2305 5.9062-7.6758 13.809-6.7344 21.512l14.934 169.73c1.4297 16.238 14.66 28.488 30.77 28.488 16.363 0 29.906-12.949 30.84-29.484l9.4883-168.57c0.96094-7.875-1.4883-15.777-6.7188-21.684-5.1289-5.7891-12.477-9.1133-20.156-9.1133h-11.094v-21.414c4.4414 1.8711 9.207 2.875 14.137 2.875 20.168 0 36.574-16.348 36.574-36.445 0-8.4961-3.0273-16.719-8.4336-23.223 5.4062-6.5 8.4336-14.723 8.4336-23.219 0-15.109-9.2422-28.375-23.004-33.82zm-4.0039 151.04c3.3203 3.7461 4.8711 8.7734 4.2305 14.109l-0.375 6.6797h-24.227c-2.7812 0-5.0391 2.2539-5.0391 5.0391 0 2.7812 2.2539 5.0391 5.0391 5.0391h23.656l-2.4062 42.699h-25.012c-2.7812 0-5.0391 2.2539-5.0391 5.0391 0 2.7812 2.2539 5.0391 5.0391 5.0391h24.445l-4.0352 71.617h-25.02c-2.7812 0-5.0391 2.2539-5.0391 5.0391 0 2.7812 2.2539 5.0391 5.0391 5.0391h24.453l-0.99609 17.672c-0.62891 11.195-9.7578 19.969-20.777 19.969-10.848 0-19.762-8.2969-20.73-19.297l-5.2109-59.191h21.754c2.7812 0 5.0391-2.2539 5.0391-5.0391 0-2.7812-2.2539-5.0391-5.0391-5.0391h-22.641l-4.957-56.348h20.828c2.7812 0 5.0391-2.2539 5.0391-5.0391 0-2.7812-2.2539-5.0391-5.0391-5.0391h-21.715l-3.0117-34.207c-0.61328-5.0117 0.94141-10.035 4.2578-13.785 3.2656-3.6875 7.7422-5.7188 12.609-5.7188h32.266c4.8711 0.007812 9.3477 2.0352 12.613 5.7227zm8.2305-90.266c5.5273 5.0078 8.6992 12.109 8.6992 19.488 0 14.539-11.887 26.367-26.496 26.367-5.0703 0-9.8867-1.4961-14.137-4.1992v-78.086c0-2.7812-2.2539-5.0391-5.0391-5.0391-2.7812 0-5.0391 2.2539-5.0391 5.0391v78.086c-4.25 2.7031-9.0664 4.1992-14.137 4.1992-14.609 0-26.496-11.832-26.496-26.367 0-7.3789 3.1719-14.48 8.6992-19.488 1.0547-0.95312 1.6562-2.3125 1.6562-3.7344 0-1.4258-0.60156-2.7812-1.6562-3.7383-5.5312-5-8.6992-12.102-8.6992-19.484 0-12.168 8.3008-22.688 20.188-25.578 1.3789-0.33594 2.5508-1.2344 3.2305-2.4805 0.67969-1.2461 0.80469-2.7227 0.34375-4.0625-0.85156-2.4609-1.2812-4.9844-1.2812-7.4961 0-12.723 10.402-23.074 23.191-23.074 12.789 0 23.191 10.352 23.191 23.078 0 2.5117-0.42969 5.0352-1.2812 7.4961-0.46094 1.3398-0.33984 2.8164 0.34375 4.0625 0.67969 1.2461 1.8516 2.1445 3.2305 2.4805 11.887 2.8906 20.188 13.41 20.188 25.578 0 7.3828-3.1719 14.484-8.6992 19.484-1.0547 0.95703-1.6562 2.3125-1.6562 3.7383-0.003906 1.418 0.60156 2.7773 1.6562 3.7305z"/>
 </g>
</svg>