<?xml version="1.0" encoding="UTF-8"?>
<!-- The Best Svg Icon site in the world: iconSvg.co, Visit us! https://iconsvg.co -->
<svg fill="#000000" width="800px" height="800px" version="1.1" viewBox="144 144 512 512" xmlns="http://www.w3.org/2000/svg">
 <path d="m506.1 276.87c-6.7539-39.648-52.445-69.574-106.3-69.574-53.855 0-99.555 29.926-106.3 69.574l-0.25 1.4609h213.11zm-118.45-40.605c-0.60547 0.80469-1.5117 1.3086-2.5195 1.4609-19.195 2.5195-36.828 10.176-48.367 20.91-0.70703 0.65625-1.6133 1.0586-2.5703 1.0586-1.0586 0-2.0664-0.45312-2.7695-1.2109-1.4102-1.5625-1.3594-3.9297 0.20312-5.3398 12.848-11.992 31.488-20.102 52.547-22.922h0.050781c2.3164 0 3.9297 1.4102 4.1836 3.2734 0.097657 1.0039-0.15625 1.9609-0.75781 2.7695zm41.059 0.35156c-0.40234 1.7617-1.9141 2.9727-3.6797 2.9727-0.30078 0-0.55469-0.050782-0.85547-0.10156-3.1758-0.75391-6.4492-1.3086-9.7227-1.7617-1.0078-0.15234-1.9141-0.65625-2.5195-1.4609-0.60547-0.80469-0.85547-1.7617-0.75391-2.7695 0.25391-1.8633 1.8633-3.2734 3.7773-3.2734 3.9805 0.50391 7.5078 1.1094 10.934 1.8633 0.95703 0.25 1.8125 0.85547 2.3164 1.7148 0.55469 0.85156 0.75781 1.8594 0.50391 2.8164zm100.21 49.273h-258.25c-7.5586 0-13.453 5.7422-13.453 13v45.039c0 7.2539 5.8945 13 13.453 13h258.25c7.5586 0 13.453-5.7422 13.453-13v-45.039c-0.003906-7.2578-5.8984-13-13.457-13zm-132.85 156.03c-1.4102-7.0547-4.7344-17.078-12.293-24.434-7.6562-7.457-18.035-10.629-25.34-12.043l-1.8633-0.30078 0.40234 1.8125c1.4102 7.0547 4.6836 17.078 12.242 24.434 7.707 7.457 18.035 10.629 25.391 12.043l1.8125 0.30078zm35.062 64.691c-10.629-3.0742-20.754-4.5859-30.125-4.5859-9.168 0-17.984 1.4609-26.199 4.332l-0.85547 0.30078v17.734c0 15.516 13 28.164 29.02 28.164 16.02 0 29.07-12.645 29.07-28.164v-17.531zm10.43-101.12c-7.3555 1.3633-17.734 4.5859-25.34 11.992-7.5586 7.3555-10.832 17.332-12.293 24.434l-0.35156 1.8125 1.8125-0.35156c7.3555-1.3594 17.734-4.5859 25.391-11.992 7.5078-7.3555 10.832-17.332 12.242-24.434l0.40234-1.8125zm0 0c-7.3555 1.3633-17.734 4.5859-25.34 11.992-7.5586 7.3555-10.832 17.332-12.293 24.434l-0.35156 1.8125 1.8125-0.35156c7.3555-1.3594 17.734-4.5859 25.391-11.992 7.5078-7.3555 10.832-17.332 12.242-24.434l0.40234-1.8125zm-40.555 96.531c-9.168 0-17.984 1.4609-26.199 4.332l-0.85547 0.30078v17.734c0 15.516 13 28.164 29.02 28.164 16.02 0 29.07-12.645 29.07-28.164v-17.531l-0.90625-0.25c-10.633-3.0742-20.758-4.5859-30.129-4.5859zm-4.5859-58.289-0.35156-1.8125c-1.4102-7.0547-4.7344-17.078-12.293-24.434-7.6562-7.457-18.035-10.629-25.34-12.043l-1.8633-0.30078 0.40234 1.8125c1.4102 7.0547 4.6836 17.078 12.242 24.434 7.707 7.457 18.035 10.629 25.391 12.043zm167.41 110.68-16.879-16.473c-10.227-9.9258-14.461-24.031-11.285-37.633 4.5352-19.496 16.324-116.98-10.43-135.62l-0.35156-0.20312h-250.19l-0.35156 0.25c-27.055 18.844-14.461 119.15-10.48 135.38 3.375 13.805-0.75391 28.113-11.133 38.188l-16.574 16.121c-3.9805 3.8828-6.1992 9.1211-6.1992 14.664 0 5.9961 2.5703 11.539 7.3047 15.566 3.6289 3.125 8.4648 4.8359 13.602 4.8359 6.1445 0 12.191-2.4688 16.574-6.6992l19.199-18.691c0.70703-0.70703 1.6641-1.1094 2.6719-1.1094 0.65625 0 1.3086 0.20312 1.8633 0.55469 1.8633 1.0586 17.887 10.277 26.551 13.25 17.633 5.9453 51.742 15.922 82.07 15.922 34.762 0 62.07-4.332 83.531-13.301 8.5156-3.5273 24.586-11.992 27.711-13.652 0.65625-0.35156 1.2578-0.50391 1.8633-0.50391 1.0078 0 1.9141 0.40234 2.6719 1.0586l16.879 16.473c4.3828 4.2812 10.43 6.6992 16.625 6.6992 5.1367 0 9.9766-1.7148 13.652-4.8359 4.7344-4.0312 7.3047-9.5703 7.3047-15.566 0-5.543-2.2188-10.781-6.1992-14.664zm-158.85-59.801c10.227 0.40234 20.957 2.3672 31.941 5.8438 1.6133 0.50391 2.6719 1.9141 2.6719 3.5781v20.355c0 19.699-16.426 35.719-36.625 35.719-20.152 0-36.578-16.02-36.578-35.719v-20.355c0-1.5117 0.90625-2.9219 2.3672-3.4766 8.1602-3.2734 17.027-5.2383 26.301-5.8438l1.1562-0.10156v-43.277l-1.0586-0.15234c-7.3047-1.1602-21.109-4.5859-31.188-14.41-14.309-13.906-15.418-34.863-15.465-35.719-0.050781-1.0547 0.35547-2.1133 1.1094-2.8711 0.70703-0.70703 1.6641-1.1094 2.7188-1.1094 1.0078 0.050781 22.418 1.1094 36.727 15.012 3.9297 3.8281 7.2031 8.5664 9.7734 14.055l1.1641 2.4727 1.1602-2.4688c2.5703-5.4922 5.8438-10.227 9.7734-14.055 14.309-13.906 35.719-14.965 36.629-15.012 1.1094 0 2.1172 0.40234 2.8203 1.1094 0.75391 0.75391 1.1562 1.8125 1.1055 2.8672-0.050781 0.85547-1.1602 21.816-15.465 35.719-10.078 9.8242-23.879 13.25-31.188 14.41l-1.0586 0.15234v43.227zm25.797-63.227c7.5078-7.3555 10.832-17.332 12.242-24.434l0.40234-1.8125-1.8633 0.34766c-7.3555 1.3633-17.734 4.5859-25.34 11.992-7.5586 7.3555-10.832 17.332-12.293 24.434l-0.35156 1.8125 1.8125-0.35156c7.3555-1.3594 17.734-4.582 25.391-11.988zm-55.973 74.965-0.85547 0.30078v17.734c0 15.516 13 28.164 29.02 28.164 16.02 0 29.07-12.645 29.07-28.164v-17.531l-0.90625-0.25c-10.633-3.0742-20.758-4.5859-30.129-4.5859-9.1719 0-17.988 1.4609-26.199 4.332zm21.262-64.438c-1.4102-7.0547-4.7344-17.078-12.293-24.434-7.6562-7.457-18.035-10.629-25.34-12.043l-1.8633-0.30078 0.40234 1.8125c1.4102 7.0547 4.6836 17.078 12.242 24.434 7.707 7.457 18.035 10.629 25.391 12.043l1.8125 0.30078zm0 0c-1.4102-7.0547-4.7344-17.078-12.293-24.434-7.6562-7.457-18.035-10.629-25.34-12.043l-1.8633-0.30078 0.40234 1.8125c1.4102 7.0547 4.6836 17.078 12.242 24.434 7.707 7.457 18.035 10.629 25.391 12.043l1.8125 0.30078zm35.062 64.691c-10.629-3.0742-20.754-4.5859-30.125-4.5859-9.168 0-17.984 1.4609-26.199 4.332l-0.85547 0.30078v17.734c0 15.516 13 28.164 29.02 28.164 16.02 0 29.07-12.645 29.07-28.164v-17.531zm10.43-101.12c-7.3555 1.3633-17.734 4.5859-25.34 11.992-7.5586 7.3555-10.832 17.332-12.293 24.434l-0.35156 1.8125 1.8125-0.35156c7.3555-1.3594 17.734-4.5859 25.391-11.992 7.5078-7.3555 10.832-17.332 12.242-24.434l0.40234-1.8125zm0 0c-7.3555 1.3633-17.734 4.5859-25.34 11.992-7.5586 7.3555-10.832 17.332-12.293 24.434l-0.35156 1.8125 1.8125-0.35156c7.3555-1.3594 17.734-4.5859 25.391-11.992 7.5078-7.3555 10.832-17.332 12.242-24.434l0.40234-1.8125zm-10.43 101.12c-10.629-3.0742-20.754-4.5859-30.125-4.5859-9.168 0-17.984 1.4609-26.199 4.332l-0.85547 0.30078v17.734c0 15.516 13 28.164 29.02 28.164 16.02 0 29.07-12.645 29.07-28.164v-17.531zm-35.062-64.691c-1.4102-7.0547-4.7344-17.078-12.293-24.434-7.6562-7.457-18.035-10.629-25.34-12.043l-1.8633-0.30078 0.40234 1.8125c1.4102 7.0547 4.6836 17.078 12.242 24.434 7.707 7.457 18.035 10.629 25.391 12.043l1.8125 0.30078z"/>
</svg>