<?xml version="1.0" encoding="UTF-8"?>
<!-- The Best Svg Icon site in the world: iconSvg.co, Visit us! https://iconsvg.co -->
<svg fill="#000000" width="800px" height="800px" version="1.1" viewBox="144 144 512 512" xmlns="http://www.w3.org/2000/svg">
 <g>
  <path d="m250.49 581.92v9.5234h-46.297c-2.7812 0-5.0391 2.2539-5.0391 5.0391s2.2539 5.0391 5.0391 5.0391h392.29c2.7812 0 5.0391-2.2539 5.0391-5.0391s-2.2539-5.0391-5.0391-5.0391h-48.746v-9.4844c8.8164-0.03125 26.844-1.5195 38.953-12.258 16.441-14.566 14.836-39.617 14.762-40.68-0.17969-2.4648-2.1211-4.4375-4.5859-4.6562-0.86719-0.078126-16.656-1.332-31.289 4.4219 1.6719-4.3281 2.7578-9.0117 2.707-13.953-0.21484-21.898-21.949-38.738-22.879-39.445-1.8281-1.3984-4.3711-1.3711-6.1797 0.054687-0.91406 0.71875-22.328 17.91-22.117 39.824 0.042969 4.2578 0.91016 8.3125 2.2656 12.105-13.777-5.1523-28.016-4.4297-28.836-4.3672-2.457 0.14844-4.4492 2.0508-4.707 4.5-0.10938 1.0586-2.5312 26.062 13.43 41.086 11.695 11.004 29.531 13.031 38.395 13.32l0.003906 9.5312h-133.51v-9.4844c8.8164-0.03125 26.844-1.5195 38.953-12.258 16.441-14.566 14.836-39.617 14.762-40.68-0.17969-2.4648-2.1211-4.4375-4.5859-4.6562-0.86719-0.078126-16.656-1.332-31.289 4.4219 1.6719-4.3281 2.7578-9.0117 2.707-13.953-0.21484-21.898-21.949-38.738-22.879-39.445-1.8281-1.3984-4.3711-1.3711-6.1797 0.054687-0.91406 0.71875-22.328 17.91-22.117 39.824 0.042968 4.2539 0.91016 8.3125 2.2656 12.105-13.773-5.1523-28.012-4.4297-28.836-4.3672-2.457 0.14844-4.4492 2.0508-4.707 4.5-0.10938 1.0586-2.5312 26.062 13.43 41.086 11.695 11.004 29.531 13.031 38.395 13.32l0.003907 9.5312h-133.51v-9.4844c8.8164-0.03125 26.844-1.5195 38.953-12.258 16.441-14.566 14.836-39.617 14.762-40.68-0.17969-2.4648-2.1211-4.4375-4.5859-4.6562-0.87109-0.078126-16.656-1.332-31.289 4.4219 1.668-4.3281 2.7578-9.0117 2.707-13.953-0.21484-21.898-21.949-38.738-22.879-39.445-1.8281-1.3984-4.3711-1.3711-6.1797 0.054687-0.91406 0.71875-22.328 17.91-22.117 39.824 0.042969 4.2578 0.91016 8.3125 2.2656 12.105-13.777-5.1523-28.02-4.4297-28.836-4.3672-2.457 0.14844-4.4492 2.0508-4.707 4.5-0.10938 1.0586-2.5312 26.062 13.43 41.086 11.699 11.012 29.535 13.039 38.398 13.328zm329.52-19.754c-9.4336 8.3633-24.469 9.6367-31.996 9.7109 0.34375-6.8281 2.2617-19.797 11.371-27.875 9.4336-8.3633 24.469-9.6367 31.996-9.7109-0.34375 6.8281-2.2617 19.797-11.371 27.875zm-37.598-76.059c5.3438 4.9727 15.676 16.211 15.797 28.832 0.12109 12.609-9.9805 24.004-15.223 29.066-5.3438-4.9727-15.676-16.211-15.797-28.832-0.12109-12.613 9.9805-24.008 15.223-29.066zm-46.672 46.969c7.5195 0.27734 22.516 1.957 31.668 10.578 8.7891 8.2695 10.289 21.332 10.426 28.176-7.5195-0.27734-22.512-1.957-31.664-10.574-8.7891-8.2695-10.289-21.34-10.43-28.18zm-59.316 29.09c-9.4336 8.3633-24.469 9.6367-31.996 9.7109 0.34375-6.8281 2.2617-19.797 11.371-27.875 9.4336-8.3633 24.469-9.6367 31.996-9.7109-0.34375 6.8281-2.2578 19.797-11.371 27.875zm-37.598-76.059c5.3438 4.9727 15.676 16.211 15.797 28.832 0.12109 12.609-9.9805 24.004-15.223 29.066-5.3438-4.9727-15.676-16.211-15.797-28.832-0.12109-12.613 9.9805-24.008 15.223-29.066zm-46.672 46.969c7.5195 0.27734 22.516 1.957 31.668 10.578 8.7891 8.2695 10.289 21.332 10.426 28.176-7.5195-0.27734-22.512-1.957-31.664-10.574-8.7891-8.2695-10.289-21.34-10.43-28.18zm-59.316 29.09c-9.4336 8.3633-24.469 9.6367-31.996 9.7109 0.34375-6.8281 2.2617-19.797 11.371-27.875 9.4336-8.3633 24.469-9.6367 31.996-9.7109-0.34375 6.8281-2.2578 19.797-11.371 27.875zm-37.598-76.059c5.3438 4.9727 15.676 16.211 15.797 28.832 0.12109 12.609-9.9805 24.004-15.223 29.066-5.3438-4.9727-15.676-16.211-15.797-28.832-0.12109-12.613 9.9805-24.008 15.223-29.066zm-15.004 57.547c8.7891 8.2695 10.289 21.332 10.426 28.176-7.5195-0.27734-22.512-1.957-31.664-10.574-8.793-8.2773-10.293-21.344-10.43-28.184 7.5234 0.28125 22.516 1.9648 31.668 10.582z"/>
  <path d="m250.49 443.98v9.5234h-46.297c-2.7812 0-5.0391 2.2539-5.0391 5.0391 0 2.7852 2.2539 5.0391 5.0391 5.0391l392.29-0.003906c2.7812 0 5.0391-2.2539 5.0391-5.0391s-2.2539-5.0391-5.0391-5.0391h-48.746v-9.4844c8.8164-0.03125 26.844-1.5156 38.953-12.254 16.441-14.566 14.836-39.617 14.762-40.68-0.17969-2.4648-2.1211-4.4375-4.5859-4.6562-0.86719-0.082031-16.656-1.3359-31.289 4.4219 1.668-4.3281 2.7578-9.0117 2.707-13.953-0.21484-21.898-21.953-38.734-22.879-39.438-1.832-1.3984-4.375-1.3711-6.1797 0.054687-0.91016 0.71875-22.328 17.91-22.113 39.82 0.042969 4.2578 0.91016 8.3164 2.2656 12.109-13.777-5.1484-28.016-4.4219-28.836-4.3633-2.4609 0.14844-4.4492 2.0508-4.707 4.5-0.10938 1.0586-2.5312 26.062 13.43 41.082 11.695 11.008 29.531 13.031 38.398 13.32v9.5234h-133.51v-9.4844c8.8164-0.03125 26.844-1.5156 38.953-12.254 16.441-14.566 14.836-39.617 14.762-40.68-0.17969-2.4648-2.1211-4.4375-4.5859-4.6562-0.86719-0.082031-16.656-1.3359-31.289 4.4219 1.668-4.3281 2.7578-9.0117 2.707-13.953-0.21484-21.898-21.953-38.734-22.879-39.438-1.832-1.3984-4.375-1.3711-6.1797 0.054688-0.91406 0.71484-22.332 17.906-22.117 39.816 0.042968 4.2578 0.91016 8.3125 2.2656 12.105-13.773-5.1484-28.012-4.4219-28.836-4.3633-2.4609 0.14844-4.4492 2.0508-4.707 4.5-0.10938 1.0586-2.5312 26.062 13.43 41.082 11.695 11.008 29.531 13.031 38.398 13.32v9.5234h-133.51v-9.4844c8.8164-0.03125 26.844-1.5156 38.953-12.254 16.441-14.566 14.836-39.617 14.762-40.68-0.17969-2.4648-2.1211-4.4375-4.5859-4.6562-0.87109-0.082031-16.656-1.3359-31.289 4.418 1.668-4.3281 2.7578-9.0117 2.707-13.953-0.21484-21.898-21.953-38.734-22.879-39.438-1.832-1.3984-4.375-1.3711-6.1797 0.054687-0.91406 0.72266-22.332 17.914-22.117 39.824 0.042969 4.2578 0.91016 8.3125 2.2656 12.105-13.773-5.1484-28.012-4.4219-28.836-4.3633-2.4609 0.14844-4.4492 2.0508-4.707 4.5-0.10937 1.0586-2.5312 26.062 13.43 41.082 11.691 11.012 29.527 13.035 38.395 13.324zm329.52-19.75c-9.4336 8.3594-24.469 9.6328-32 9.707 0.34375-6.8281 2.2617-19.797 11.371-27.875 9.4336-8.3594 24.469-9.6328 32-9.707-0.34375 6.8242-2.2617 19.793-11.371 27.875zm-37.598-76.059c5.3438 4.9688 15.676 16.207 15.797 28.828 0.12109 12.613-9.9805 24.008-15.223 29.066-5.3438-4.9688-15.676-16.207-15.797-28.832-0.12109-12.613 9.9805-24.008 15.223-29.062zm-46.672 46.961c7.5039 0.26172 22.469 1.9219 31.664 10.582 8.793 8.2773 10.297 21.348 10.43 28.188-7.5039-0.26172-22.469-1.9297-31.664-10.582-8.7969-8.2773-10.293-21.355-10.43-28.188zm-59.312 29.098c-9.4336 8.3594-24.469 9.6328-32 9.707 0.34375-6.8281 2.2617-19.797 11.371-27.875 9.4336-8.3594 24.469-9.6328 32-9.707-0.34766 6.8242-2.2617 19.793-11.371 27.875zm-37.602-76.059c5.3438 4.9688 15.676 16.207 15.797 28.828 0.12109 12.613-9.9805 24.008-15.223 29.066-5.3438-4.9688-15.676-16.207-15.797-28.832-0.12109-12.613 9.9805-24.008 15.223-29.062zm-46.672 46.961c7.5039 0.26172 22.469 1.9219 31.664 10.582 8.793 8.2773 10.297 21.348 10.43 28.188-7.5039-0.26172-22.469-1.9297-31.664-10.582-8.793-8.2773-10.293-21.355-10.43-28.188zm-59.312 29.098c-9.4336 8.3594-24.469 9.6328-32 9.707 0.34375-6.8281 2.2617-19.797 11.371-27.875 9.4336-8.3594 24.469-9.6328 32-9.707-0.34766 6.8242-2.2617 19.793-11.371 27.875zm-37.602-76.059c5.3438 4.9688 15.676 16.207 15.797 28.828 0.12109 12.613-9.9805 24.008-15.223 29.066-5.3438-4.9688-15.676-16.207-15.797-28.832-0.12109-12.613 9.9805-24.008 15.223-29.062zm-15.004 57.543c8.793 8.2773 10.297 21.348 10.43 28.188-7.5039-0.26172-22.469-1.9297-31.664-10.582-8.793-8.2773-10.293-21.352-10.43-28.188 7.5039 0.25781 22.469 1.9219 31.664 10.582z"/>
  <path d="m250.49 306.03v9.5234h-46.297c-2.7812 0-5.0391 2.2539-5.0391 5.0391s2.2539 5.0391 5.0391 5.0391h392.29c2.7812 0 5.0391-2.2539 5.0391-5.0391s-2.2539-5.0391-5.0391-5.0391h-48.746v-9.4844c8.8164-0.03125 26.844-1.5195 38.953-12.258 16.441-14.566 14.836-39.617 14.762-40.68-0.17969-2.4648-2.1211-4.4375-4.5859-4.6562-0.86719-0.074218-16.656-1.332-31.289 4.4219 1.6719-4.3281 2.7578-9.0117 2.7109-13.953-0.21484-21.898-21.949-38.738-22.879-39.445-1.8281-1.3984-4.3711-1.3711-6.1797 0.054688-0.91406 0.71875-22.328 17.91-22.117 39.824 0.042969 4.2578 0.91016 8.3125 2.2656 12.105-13.777-5.1484-28.016-4.4297-28.836-4.3672-2.457 0.14844-4.4492 2.0508-4.707 4.5-0.10938 1.0586-2.5312 26.062 13.43 41.086 11.695 11.004 29.531 13.027 38.395 13.32v9.5234h-133.51v-9.4844c8.8164-0.03125 26.844-1.5195 38.953-12.258 16.441-14.566 14.836-39.617 14.762-40.68-0.17969-2.4648-2.1211-4.4375-4.5859-4.6562-0.86719-0.074219-16.656-1.332-31.289 4.4219 1.6719-4.3281 2.7578-9.0117 2.7109-13.953-0.21484-21.898-21.949-38.738-22.879-39.445-1.8281-1.3984-4.3711-1.3711-6.1797 0.054687-0.91406 0.71875-22.328 17.91-22.117 39.824 0.042968 4.2578 0.91016 8.3125 2.2656 12.105-13.773-5.1484-28.012-4.4258-28.836-4.3672-2.457 0.14844-4.4492 2.0508-4.707 4.5-0.10938 1.0586-2.5312 26.062 13.43 41.086 11.695 11.004 29.531 13.027 38.395 13.32v9.5234h-133.51v-9.4844c8.8164-0.03125 26.844-1.5195 38.953-12.258 16.441-14.566 14.836-39.617 14.762-40.68-0.17969-2.4648-2.1211-4.4375-4.5859-4.6562-0.87109-0.074219-16.656-1.332-31.289 4.4219 1.6719-4.3281 2.7578-9.0117 2.707-13.953-0.21484-21.898-21.949-38.738-22.879-39.445-1.8281-1.3984-4.3711-1.3711-6.1797 0.054687-0.91406 0.71875-22.328 17.91-22.117 39.824 0.042969 4.2578 0.91016 8.3125 2.2656 12.105-13.777-5.1523-28.02-4.4297-28.84-4.3672-2.457 0.14844-4.4492 2.0508-4.707 4.5-0.10938 1.0586-2.5312 26.062 13.43 41.086 11.703 11.027 29.539 13.055 38.402 13.344zm329.52-19.754c-9.4336 8.3633-24.469 9.6367-31.996 9.7109 0.34375-6.8281 2.2578-19.797 11.371-27.875 9.4336-8.3633 24.469-9.6367 31.996-9.7109-0.34375 6.8281-2.2617 19.797-11.371 27.875zm-37.598-76.059c5.3438 4.9727 15.676 16.211 15.797 28.832 0.12109 12.609-9.9805 24.004-15.223 29.066-5.3438-4.9727-15.676-16.211-15.797-28.832-0.12109-12.613 9.9805-24.008 15.223-29.066zm-46.672 46.973c7.5195 0.27734 22.516 1.9648 31.668 10.578 8.7891 8.2695 10.289 21.332 10.426 28.176-7.5195-0.27734-22.512-1.957-31.664-10.574-8.7891-8.2734-10.289-21.344-10.43-28.18zm-59.316 29.086c-9.4336 8.3633-24.469 9.6367-31.996 9.7109 0.34375-6.8281 2.2578-19.797 11.371-27.875 9.4336-8.3633 24.469-9.6367 31.996-9.7109-0.34375 6.8281-2.2578 19.797-11.371 27.875zm-37.598-76.059c5.3438 4.9727 15.676 16.211 15.797 28.832 0.12109 12.609-9.9805 24.004-15.223 29.066-5.3438-4.9727-15.676-16.211-15.797-28.832-0.12109-12.613 9.9805-24.008 15.223-29.066zm-46.672 46.973c7.5195 0.27734 22.516 1.9648 31.668 10.578 8.7891 8.2695 10.289 21.332 10.426 28.176-7.5195-0.27734-22.512-1.957-31.664-10.574-8.7891-8.2734-10.289-21.344-10.43-28.18zm-59.316 29.086c-9.4336 8.3633-24.469 9.6367-31.996 9.7109 0.34375-6.8281 2.2578-19.797 11.371-27.875 9.4336-8.3633 24.469-9.6367 31.996-9.7109-0.34375 6.8281-2.2578 19.797-11.371 27.875zm-37.598-76.059c5.3438 4.9727 15.676 16.211 15.797 28.832 0.12109 12.609-9.9805 24.004-15.223 29.066-5.3438-4.9727-15.676-16.211-15.797-28.832-0.12109-12.613 9.9805-24.008 15.223-29.066zm-15.004 57.551c8.7891 8.2695 10.289 21.332 10.426 28.176-7.5195-0.27734-22.512-1.957-31.664-10.574-8.793-8.2773-10.293-21.344-10.43-28.184 7.5234 0.27734 22.516 1.9648 31.668 10.582z"/>
 </g>
</svg>