<?xml version="1.0" encoding="UTF-8"?>
<!-- The Best Svg Icon site in the world: iconSvg.co, Visit us! https://iconsvg.co -->
<svg fill="#000000" width="800px" height="800px" version="1.1" viewBox="144 144 512 512" xmlns="http://www.w3.org/2000/svg">
 <g>
  <path d="m276.28 449.7c0 1.043 0.41406 2.043 1.1523 2.7812 0.73828 0.73828 1.7422 1.1523 2.7852 1.1523h100.18c1.043 0 2.043-0.41406 2.7812-1.1523 0.73828-0.73828 1.1523-1.7383 1.1523-2.7812 0-24.043-22.145-43.746-50.105-45.453v-32.371c0.92578 0.074218 1.8477 0.14844 2.7539 0.14844h0.003906c13.977-0.64453 26.828-7.8711 34.637-19.484 5.1172-7.4766 6.2969-14.684 3.1484-19.262-2-2.9258-6.4531-5.9375-16.348-3.6562-16.168 3.7266-24.164 12.629-28.141 20.879-3.9844-8.2656-11.973-17.152-28.145-20.859-9.8945-2.2812-14.352 0.73047-16.348 3.6562-3.1289 4.5781-1.9492 11.781 3.1484 19.262 7.8086 11.613 20.656 18.84 34.637 19.488 0.90234 0 1.8164-0.074219 2.7227-0.14844v32.371c-27.883 1.6953-50.012 21.395-50.012 45.43zm99.922-3.9375h-91.801c2.4141-18.973 22.082-33.812 45.902-33.812 23.82 0 43.488 14.84 45.902 33.812zm-15.984-108.47c4.9531-1.1406 7.4492-0.48828 8.082 0.42578 0.94922 1.3945 0.16406 5.5117-3.1484 10.387-6.0898 8.9219-17.992 17.242-30.758 15.926 0.66406-6.6172 4.5586-21.832 25.824-26.738zm-64.738 10.812c-3.332-4.8789-4.1172-8.9922-3.1484-10.387 0.39453-0.5625 1.4922-1.0352 3.4648-1.0352 1.5547 0.03125 3.1055 0.23828 4.6172 0.60938 21.254 4.9023 25.168 20.125 25.844 26.738-12.785 1.3398-24.688-7.0039-30.777-15.926z"/>
  <path d="m465.25 575.52c-0.75391-0.99609-0.97266-2.2969-0.58594-3.4844 40.875-126.54 6.832-280.46-0.39453-310.04-0.0625-0.24219 0.1875-0.54688 0.46875-0.73828 15.766-10.922 22.934-22.57 18.719-30.391v-0.003906c-1.8203-3.0508-5.2266-4.7891-8.7656-4.4727-7.25 0.94922-14.133 3.7539-19.977 8.1445-0.53516 0.37109-1.2422 0.38281-1.7891 0.023438-31.883-23.75-118.87-25.004-122.66-25.047-3.6875 0.042969-90.684 1.3008-122.57 25.047h-0.003906c-0.54297 0.36328-1.2539 0.35547-1.7852-0.023438-5.8477-4.3906-12.727-7.1953-19.977-8.1445-3.543-0.33984-6.9609 1.4023-8.7656 4.4688-4.2188 7.8242 2.9531 19.473 18.715 30.395 0.27734 0.19141 0.53125 0.49609 0.46484 0.74609-7.2383 29.57-41.277 183.5-0.39453 310.03l0.003907 0.003906c0.39062 1.1914 0.16797 2.4961-0.58984 3.4922-2.7539 3.7695-6.6914 9.4023-9.9648 14.867h-0.003906c-2.0586 3.3672-1.8281 7.6602 0.58203 10.785 2.7148 3.5391 7.3047 5.0781 11.605 3.8906 6.2148-1.6562 12.223-4.0039 17.914-7 1.3359-0.64453 2.8672-0.74609 4.2734-0.28906 35.285 10.184 71.809 15.441 108.54 15.629h3.9648c36.746-0.18359 73.289-5.4414 108.6-15.629 1.4062-0.46094 2.9336-0.35938 4.2656 0.28906 5.6953 2.9961 11.707 5.3438 17.926 7 4.2969 1.1875 8.8828-0.35156 11.594-3.8906 2.4102-3.125 2.6484-7.4102 0.58984-10.781-3.2852-5.4727-7.2422-11.105-10-14.883zm3.1016 20.926c-0.79687 0.97656-2.1016 1.375-3.3047 1.0078-5.6484-1.5039-11.105-3.6367-16.277-6.3555-3.1953-1.6367-6.9102-1.9297-10.32-0.8125-34.539 9.9492-70.285 15.078-106.23 15.246h-1.9453 0.003906c-36.574-0.050781-72.957-5.1797-108.12-15.238-3.4102-1.1172-7.125-0.82422-10.324 0.8125-5.168 2.7188-10.625 4.8516-16.27 6.3555-1.207 0.36719-2.5156-0.03125-3.3125-1.0078-0.48828-0.57031-0.53516-1.4023-0.10938-2.0234 3.1016-5.1992 6.9102-10.629 9.5547-14.254h0.003907c2.2578-3.0273 2.9023-6.9648 1.7266-10.555-41.074-127.13-3.8203-287.84 0.5625-305.74 0.8125-3.4922-0.63672-7.1211-3.6289-9.0938-14.793-10.234-17.367-18.152-16.277-20.18l0.003907-0.003906c0.39453-0.29688 0.89062-0.42188 1.3789-0.35156 5.793 0.91797 11.273 3.2422 15.961 6.7656 3.3203 2.2695 7.707 2.2109 10.965-0.14453 29.84-22.223 117.07-23.473 117.86-23.484 0.87891 0 88.113 1.2617 117.95 23.484h0.003906c3.2578 2.3555 7.6445 2.4141 10.965 0.14453 4.6914-3.5234 10.172-5.8477 15.965-6.7656 0.48438-0.054687 0.97656 0.066406 1.3789 0.34375 1.0938 2.0352-1.4805 9.9375-16.27 20.188l-0.003906 0.003906c-2.9883 1.9727-4.4375 5.5938-3.6328 9.0859 4.3828 17.906 41.637 178.6 0.5625 305.75-1.168 3.5859-0.52734 7.5195 1.7266 10.547 2.6523 3.6328 6.4648 9.0547 9.5703 14.262h-0.003906c0.41797 0.62109 0.37109 1.4414-0.11328 2.0117z"/>
  <path d="m415.3 277.98h-169.98c-7 0.007812-12.672 5.6797-12.676 12.68v267.09c0.007812 6.9961 5.6797 12.668 12.676 12.676h169.98c7-0.011719 12.672-5.6797 12.68-12.68v-267.07c0-7.0039-5.6758-12.684-12.68-12.695zm4.8047 279.76h0.003907c-0.007813 2.6523-2.1562 4.8008-4.8086 4.8047h-169.98c-2.6523-0.003907-4.8008-2.1523-4.8047-4.8047v-267.06c-0.003906-1.2773 0.50391-2.5 1.4023-3.4062 0.90234-0.90234 2.125-1.4141 3.4023-1.4141h169.98c2.6523 0.003906 4.8008 2.1523 4.8086 4.8047z"/>
  <path d="m632.71 354.08v-40.023c-0.007813-7.2305-2.8867-14.164-8-19.277-5.1172-5.1133-12.051-7.9922-19.285-8l-14.703 0.027344c-0.050781 0-0.09375-0.027344-0.14453-0.027344s-0.09375 0.027344-0.14453 0.027344l-106.42 0.23047c-2.1719 0-3.9336 1.7617-3.9336 3.9375 0 2.1719 1.7617 3.9336 3.9336 3.9336l47.887-0.09375-0.10938 38.668c0 1.043 0.41406 2.043 1.1523 2.7812 0.73828 0.73828 1.7383 1.1523 2.7812 1.1523 1.0469 0 2.0469-0.41406 2.7852-1.1523 0.73828-0.73828 1.1523-1.7383 1.1523-2.7812l0.125-38.719 17.32-0.03125-0.12109 25.605-0.003906-0.003907c0 1.0469 0.41797 2.0469 1.1562 2.7852 0.73828 0.73828 1.7383 1.1523 2.7812 1.1523 2.168 0 3.9258-1.75 3.9375-3.918l0.12109-25.66 21.648-0.042968v44.441c0.011719 7.5391-6.0898 13.66-13.633 13.676h-81.055c-2.1758 0-3.9375 1.7617-3.9375 3.9375 0 2.1719 1.7617 3.9336 3.9375 3.9336h81.059-0.003906c5.707-0.003907 11.176-2.2734 15.211-6.3047 4.0352-4.0352 6.3047-9.5039 6.3086-15.207v-44.453l10.922-0.019531c5.1445 0.003906 10.078 2.0508 13.715 5.6875 3.6367 3.6406 5.6836 8.5703 5.6914 13.715v40.023c-0.003906 5.1445-2.0508 10.078-5.6914 13.715-3.6367 3.6406-8.5703 5.6875-13.715 5.6914h-111.43c-2.1758 0-3.9375 1.7617-3.9375 3.9375 0 2.1719 1.7617 3.9375 3.9375 3.9375h37.906l-0.125 38.574v-0.003906c0 1.043 0.41406 2.0469 1.1523 2.7852 0.73828 0.73828 1.7383 1.1523 2.7812 1.1523 1.0469 0 2.0469-0.41406 2.7852-1.1523 0.73828-0.73828 1.1523-1.7422 1.1523-2.7852l0.125-38.602h17.32l-0.12109 25.457-0.003906 0.003906c0 1.043 0.41797 2.043 1.1562 2.7812 0.73828 0.73828 1.7383 1.1523 2.7812 1.1523 2.168 0 3.9258-1.75 3.9375-3.9141l0.12109-25.496h21.648v44.477c-0.007812 7.5312-6.1133 13.633-13.648 13.641h-78.969c-2.1758 0-3.9375 1.7617-3.9375 3.9375 0 2.1719 1.7617 3.9336 3.9375 3.9336h78.988-0.003906c5.707-0.003906 11.176-2.2734 15.211-6.3047 4.0352-4.0352 6.3047-9.5039 6.3086-15.207v-44.477h10.922v-0.003906c5.1445 0.007812 10.078 2.0547 13.715 5.6953 3.6406 3.6367 5.6875 8.5703 5.6914 13.715v40.066c-0.003906 5.1445-2.0508 10.078-5.6914 13.715-3.6367 3.6406-8.5703 5.6875-13.715 5.6914h-110.67c-2.1719 0-3.9375 1.7617-3.9375 3.9375 0 2.1719 1.7656 3.9336 3.9375 3.9336h37.152l-0.125 38.574c0 1.043 0.41406 2.0469 1.1523 2.7852 0.73828 0.73828 1.7383 1.1523 2.7812 1.1523 1.0469 0 2.0469-0.41406 2.7852-1.1523 0.73828-0.73828 1.1523-1.7422 1.1523-2.7852l0.125-38.602h17.32l-0.12109 25.461-0.003906 0.003906c0 1.043 0.41797 2.043 1.1562 2.7812s1.7383 1.1523 2.7812 1.1523 2.0469-0.41406 2.7852-1.1523 1.1523-1.7383 1.1523-2.7812l0.12109-25.496h21.648v44.477-0.003907c-0.007812 7.5312-6.1133 13.637-13.648 13.641h-85.816c-2.1719 0-3.9336 1.7617-3.9336 3.9336 0 2.1758 1.7617 3.9375 3.9336 3.9375h85.832c5.707-0.003906 11.176-2.2734 15.211-6.3047 4.0312-4.0352 6.3008-9.5 6.3086-15.207v-44.477h10.922c5.1445 0.007812 10.078 2.0547 13.715 5.6914 3.6406 3.6406 5.6875 8.5742 5.6914 13.719v40.078c-0.003906 5.1484-2.0508 10.078-5.6914 13.719-3.6367 3.6367-8.5703 5.6836-13.715 5.6914h-122.92c-2.1719 0-3.9336 1.7617-3.9336 3.9375 0 2.1719 1.7617 3.9336 3.9336 3.9336h122.92c7.2344-0.007812 14.168-2.8828 19.281-8 5.1133-5.1133 7.9883-12.047 7.9961-19.281v-40.016c-0.011719-9.5664-5.0352-18.426-13.238-23.344 8.2031-4.9219 13.227-13.781 13.238-23.344v-40.02c-0.011719-9.5625-5.0352-18.422-13.238-23.344 8.2031-4.9219 13.227-13.781 13.238-23.344z"/>
  <path d="m380.44 476.2-100.18-0.23828c-2.1758 0-3.9375 1.7617-3.9375 3.9336 0 2.1758 1.7617 3.9375 3.9375 3.9375l100.18 0.25391c2.1719 0 3.9336-1.7617 3.9336-3.9336 0-2.1758-1.7617-3.9375-3.9336-3.9375z"/>
  <path d="m357.66 506.43-54.719-0.15625c-2.1758 0-3.9375 1.7617-3.9375 3.9375 0 2.1719 1.7617 3.9375 3.9375 3.9375l54.711 0.13672c2.1719 0 3.9336-1.7617 3.9336-3.9375 0-2.1719-1.7617-3.9336-3.9336-3.9336z"/>
 </g>
</svg>