<?xml version="1.0" encoding="UTF-8"?>
<!-- The Best Svg Icon site in the world: iconSvg.co, Visit us! https://iconsvg.co -->
<svg fill="#000000" width="800px" height="800px" version="1.1" viewBox="144 144 512 512" xmlns="http://www.w3.org/2000/svg">
 <g>
  <path d="m477.66 356.68c-5.0898-13.578-15.496-21.805-30.945-24.453-6.7812-1.1641-13.008-0.92578-18.617 0.55859-5.4219-5.2031-12.488-8.6562-21.633-9.668 1.1133-5.6914 4.1953-15.141 12.785-20.863 2.3125-1.5469 2.9414-4.6719 1.3945-6.9883-1.543-2.3164-4.6641-2.9414-6.9883-1.3945-12.539 8.3594-16.289 22.051-17.41 29.172-9.7422 0.85547-17.227 4.3828-22.871 9.8555-5.7148-1.5938-12.078-1.8633-19.051-0.67188-15.445 2.6445-25.859 10.871-30.945 24.453-4.8281 12.887-5.1094 31.195-0.85547 55.969 9.1211 53.117 29.215 83.777 54.398 83.777 1.8047 0 3.6367-0.15625 5.4922-0.48047 2.0039-0.34375 3.9414-0.89844 5.793-1.5859 3.9062 1.8125 8.0898 2.8398 12.602 2.8398 4.418 0 8.5195-0.99219 12.359-2.7344 1.7578 0.63672 3.5859 1.1523 5.4766 1.4805 1.8555 0.31641 3.6836 0.48047 5.4922 0.48047 25.18 0 45.277-30.668 54.387-83.773 4.2461-24.77 3.9648-43.078-0.86328-55.973zm-145.2 54.273c-3.9336-22.969-3.8203-39.562 0.36328-50.734 3.8438-10.262 11.219-16 23.207-18.055 3.8398-0.65625 7.2891-0.74219 10.496-0.37109-8.9375 15.402-10.656 37.824-10.656 58.531 0 41.102 7.7266 70.926 21.453 85.926-23.363 0.36328-38.461-37.945-44.863-75.297zm33.48-10.637c0-59.484 17.625-67.5 34.859-67.5 17.242 0 34.863 8.0195 34.863 67.5 0 41.969-9.1523 86.805-34.863 86.805-25.699 0.007812-34.859-44.832-34.859-86.805zm102.64 10.637c-6.3594 37.082-21.262 75.137-44.332 75.328 13.742-14.988 21.488-44.828 21.488-85.961 0-20.738-1.7227-43.191-10.695-58.594 3.0586-0.29687 6.3398-0.1875 9.9648 0.43359 11.992 2.0547 19.367 7.793 23.207 18.055 4.1836 11.172 4.3008 27.77 0.36719 50.738z"/>
  <path d="m542.34 259.16v-55.59c0-2.7852-2.2539-5.0391-5.0391-5.0391h-273.34c-2.7852 0-5.0391 2.2539-5.0391 5.0391v55.59c-1.4961 5.5938-11.723 44.984-16.977 95.801-5.1992 50.344-6.4531 122.57 16.977 181.41v60.176c0 2.7852 2.2539 5.0391 5.0391 5.0391h273.34c2.7852 0 5.0391-2.2539 5.0391-5.0391v-60.18c23.434-58.844 22.176-131.07 16.977-181.41-5.2539-50.812-15.48-90.203-16.977-95.797zm-10.078-50.551v46.605h-263.26v-46.605zm-263.26 382.9v-51.223h263.26v51.223zm264.86-61.297h-266.45c-38.25-99.559-6.082-239.41 0.34766-264.92h265.76c6.4336 25.496 38.617 165.31 0.34766 264.92z"/>
  <path d="m290.19 245.77c2.7852 0 5.0391-2.2539 5.0391-5.0391v-15.742c0-2.7852-2.2539-5.0391-5.0391-5.0391s-5.0391 2.2539-5.0391 5.0391v15.742c0.003906 2.7812 2.2539 5.0391 5.0391 5.0391z"/>
  <path d="m317.6 245.77c2.7852 0 5.0391-2.2539 5.0391-5.0391v-15.742c0-2.7852-2.2539-5.0391-5.0391-5.0391-2.7852 0-5.0391 2.2539-5.0391 5.0391v15.742c0 2.7812 2.25 5.0391 5.0391 5.0391z"/>
  <path d="m345 245.77c2.7852 0 5.0391-2.2539 5.0391-5.0391v-15.742c0-2.7852-2.2539-5.0391-5.0391-5.0391s-5.0391 2.2539-5.0391 5.0391v15.742c0 2.7812 2.25 5.0391 5.0391 5.0391z"/>
  <path d="m372.41 245.77c2.7852 0 5.0391-2.2539 5.0391-5.0391v-15.742c0-2.7852-2.2539-5.0391-5.0391-5.0391s-5.0391 2.2539-5.0391 5.0391v15.742c0 2.7812 2.2578 5.0391 5.0391 5.0391z"/>
  <path d="m399.81 245.77c2.7852 0 5.0391-2.2539 5.0391-5.0391v-15.742c0-2.7852-2.2539-5.0391-5.0391-5.0391s-5.0391 2.2539-5.0391 5.0391v15.742c0 2.7812 2.2539 5.0391 5.0391 5.0391z"/>
  <path d="m427.21 245.77c2.7852 0 5.0391-2.2539 5.0391-5.0391v-15.742c0-2.7852-2.2539-5.0391-5.0391-5.0391s-5.0391 2.2539-5.0391 5.0391v15.742c0 2.7812 2.2578 5.0391 5.0391 5.0391z"/>
  <path d="m454.62 245.77c2.7852 0 5.0391-2.2539 5.0391-5.0391v-15.742c0-2.7852-2.2539-5.0391-5.0391-5.0391s-5.0391 2.2539-5.0391 5.0391v15.742c0 2.7812 2.2539 5.0391 5.0391 5.0391z"/>
  <path d="m482.02 245.77c2.7852 0 5.0391-2.2539 5.0391-5.0391v-15.742c0-2.7852-2.2539-5.0391-5.0391-5.0391-2.7852 0-5.0391 2.2539-5.0391 5.0391v15.742c0 2.7812 2.2578 5.0391 5.0391 5.0391z"/>
  <path d="m509.43 245.77c2.7852 0 5.0391-2.2539 5.0391-5.0391v-15.742c0-2.7852-2.2539-5.0391-5.0391-5.0391-2.7852 0-5.0391 2.2539-5.0391 5.0391v15.742c0.003906 2.7812 2.2539 5.0391 5.0391 5.0391z"/>
  <path d="m290.19 553.1c-2.7852 0-5.0391 2.2539-5.0391 5.0391v15.742c0 2.7852 2.2539 5.0391 5.0391 5.0391s5.0391-2.2539 5.0391-5.0391v-15.742c0-2.7891-2.25-5.0391-5.0391-5.0391z"/>
  <path d="m317.6 553.1c-2.7852 0-5.0391 2.2539-5.0391 5.0391v15.742c0 2.7852 2.2539 5.0391 5.0391 5.0391 2.7852 0 5.0391-2.2539 5.0391-5.0391v-15.742c-0.003906-2.7891-2.2578-5.0391-5.0391-5.0391z"/>
  <path d="m345 553.1c-2.7852 0-5.0391 2.2539-5.0391 5.0391v15.742c0 2.7852 2.2539 5.0391 5.0391 5.0391s5.0391-2.2539 5.0391-5.0391v-15.742c-0.003907-2.7891-2.2539-5.0391-5.0391-5.0391z"/>
  <path d="m372.41 553.1c-2.7852 0-5.0391 2.2539-5.0391 5.0391v15.742c0 2.7852 2.2539 5.0391 5.0391 5.0391s5.0391-2.2539 5.0391-5.0391v-15.742c-0.003906-2.7891-2.2539-5.0391-5.0391-5.0391z"/>
  <path d="m399.81 553.1c-2.7852 0-5.0391 2.2539-5.0391 5.0391v15.742c0 2.7852 2.2539 5.0391 5.0391 5.0391s5.0391-2.2539 5.0391-5.0391v-15.742c0-2.7891-2.2539-5.0391-5.0391-5.0391z"/>
  <path d="m427.21 553.1c-2.7852 0-5.0391 2.2539-5.0391 5.0391v15.742c0 2.7852 2.2539 5.0391 5.0391 5.0391s5.0391-2.2539 5.0391-5.0391v-15.742c0-2.7891-2.2539-5.0391-5.0391-5.0391z"/>
  <path d="m454.62 553.1c-2.7852 0-5.0391 2.2539-5.0391 5.0391v15.742c0 2.7852 2.2539 5.0391 5.0391 5.0391s5.0391-2.2539 5.0391-5.0391v-15.742c0-2.7891-2.2539-5.0391-5.0391-5.0391z"/>
  <path d="m482.02 553.1c-2.7852 0-5.0391 2.2539-5.0391 5.0391v15.742c0 2.7852 2.2539 5.0391 5.0391 5.0391 2.7852 0 5.0391-2.2539 5.0391-5.0391v-15.742c0-2.7891-2.2539-5.0391-5.0391-5.0391z"/>
  <path d="m509.43 553.1c-2.7852 0-5.0391 2.2539-5.0391 5.0391v15.742c0 2.7852 2.2539 5.0391 5.0391 5.0391 2.7852 0 5.0391-2.2539 5.0391-5.0391v-15.742c0-2.7891-2.2578-5.0391-5.0391-5.0391z"/>
 </g>
</svg>