<?xml version="1.0" encoding="UTF-8"?>
<!-- The Best Svg Icon site in the world: iconSvg.co, Visit us! https://iconsvg.co -->
<svg fill="#000000" width="800px" height="800px" version="1.1" viewBox="144 144 512 512" xmlns="http://www.w3.org/2000/svg">
 <path d="m480.9 479.5-59.508-87.699-0.15234-77.777h24.797v-8.8555c0-18.586-15.062-33.648-33.648-33.648-18.586 0-33.648 15.062-33.648 33.648v86.785l-59.5 87.5c-25.496 37.492 0.57031 87.992 45.332 89.535v28.41h-21.25v14.168h113.35v-14.168h-21.25v-28.406c44.805-1.4492 70.945-51.961 45.477-89.492zm-59.215-190.05c3.7891 0 6.8633 3.0742 6.8633 6.8633 0 3.7891-3.0742 6.8633-6.8633 6.8633-3.7891 0-6.8633-3.0742-6.8633-6.8633-0.003906-3.7891 3.0703-6.8633 6.8633-6.8633zm-42.949 307.95v-28.34h42.508v28.34zm247.98-184.71v43.023h-85.035v24.133c0 25.141-18.465 45.949-42.57 49.645 5.2734-18.938 2.0742-39.031-9.4062-55.957l-57.688-85.004-0.12109-63.879h24.773l15.496 10.59v46.895c0 3.5469 2.875 6.418 6.418 6.418 3.5469 0 6.418-2.875 6.418-6.418v-46.445l-28.668-35.836c-2.6367-21.922-21.332-38.969-43.949-38.969-24.414 0-44.281 19.863-44.281 44.281v83.512l-57.656 84.801c-11.523 16.941-14.73 37.066-9.4414 56.027-24.168-3.6406-42.703-24.48-42.703-49.664v-24.133h-85.012v-43.023c0.19531-18.48 2.6211-36.422 6.9883-53.586l46.004 12.324 2.75-10.262-45.891-12.293c10.625-34.816 29.398-66.078 54.105-91.559l33.797 33.797 7.5117-7.5117-33.742-33.734c25.734-24.172 57.113-42.391 91.945-52.488l12.359 46.117 10.266-2.75-12.348-46.082c16.988-4.0664 34.719-6.2383 52.957-6.2383 18.172 0 35.836 2.1523 52.77 6.1914l-12.348 46.078 5.1328 1.375 5.1289 1.375 12.359-46.125c34.863 10.07 66.266 28.285 92.027 52.445l-33.734 33.734 7.5156 7.5156 33.797-33.797c24.746 25.484 43.543 56.766 54.191 91.609l-46.453 12.445 2.75 10.262 46.562-12.473c4.375 17.18 6.8008 35.141 6.9961 53.637l0.027344 0.003907z"/>
</svg>