<?xml version="1.0" encoding="UTF-8"?>
<!-- The Best Svg Icon site in the world: iconSvg.co, Visit us! https://iconsvg.co -->
<svg fill="#000000" width="800px" height="800px" version="1.1" viewBox="144 144 512 512" xmlns="http://www.w3.org/2000/svg">
 <g>
  <path d="m257.3 601.53c24.352 0 45.293-14.832 54.219-35.906 8.9258 21.078 29.863 35.906 54.219 35.906 13.531 0 25.977-4.625 35.926-12.309h166.23c2.7852 0 5.0391-2.2539 5.0391-5.0391l-0.003907-202.3c0-20.039-4.5859-40.176-13.254-58.238l-17.855-37.195v-11.852h14.164c8.9883 0 16.301-7.6797 16.301-17.121v-41.891c0-9.4375-7.3125-17.117-16.301-17.117h-148.03c-8.9844 0-16.297 7.6797-16.297 17.117v41.891c0 9.4414 7.3125 17.121 16.297 17.121h14.574v11.852l-17.852 37.195c-8.6758 18.066-13.258 38.207-13.258 58.238v87.098c-7.6094-6.5273-16.254-10.621-25.676-10.621-2.7461 0-5.4141 0.38281-8.0234 1.0312 6.6094-9.4805 10.508-20.973 10.508-33.367 0-29.691-24.254-84.531-58.82-84.531s-58.824 54.84-58.824 84.531c0 12.012 3.6523 23.184 9.8906 32.492-1.0469-0.10156-2.1016-0.15625-3.168-0.15625-34.57 0-58.824 54.836-58.824 84.531 0 32.34 26.383 58.645 58.82 58.645zm38.121-118.61c4.4922 1.0977 9.1602 1.7461 13.984 1.7461 6.7969 0 13.301-1.2148 19.379-3.3398-7.6055 10.324-13.516 22.871-17.266 34.957-3.5547-11.465-9.0508-23.355-16.098-33.363zm267.43 96.223h-150.97c7.9141-9.9883 12.68-22.57 12.68-36.258 0-17.766-8.6875-44.527-23.07-63.164v-97.844c0-4.0625 0.23828-8.1289 0.64453-12.184h160.07c0.40234 4.0508 0.64453 8.1172 0.64453 12.184zm-130.25-296.25v-35.883h99.145v35.883zm-24.648-18.375c-3.4297 0-6.2188-3.1602-6.2188-7.0469v-41.891c0-3.8828 2.7891-7.0391 6.2188-7.0391h148.04c3.4336 0 6.2227 3.1602 6.2227 7.0391v41.891c0 3.8867-2.7891 7.0469-6.2227 7.0469h-14.164v-22.543c0-2.7852-2.2539-5.0391-5.0391-5.0391h-109.22c-2.7852 0-5.0391 2.2539-5.0391 5.0391v22.543zm5.8047 63.484 16.812-35.031h103.21l16.816 35.031c4.7969 9.9961 8.2109 20.684 10.203 31.621h-157.25c1.9961-10.938 5.4102-21.625 10.207-31.621zm0.73047 214.89c0 26.781-21.871 48.57-48.746 48.57-26.879 0-48.746-21.789-48.746-48.57 0-28.051 22.785-74.453 48.746-74.453 25.961-0.003906 48.746 46.402 48.746 74.453zm-105.08-191.32c25.965 0 48.742 46.406 48.742 74.453 0 26.781-21.863 48.57-48.742 48.57s-48.746-21.789-48.746-48.57c-0.003906-28.047 22.781-74.453 48.746-74.453zm-52.105 116.86c25.965 0 48.746 46.406 48.746 74.453 0 26.781-21.871 48.57-48.746 48.57-26.875 0.003906-48.746-21.789-48.746-48.566 0-28.051 22.785-74.457 48.746-74.457z"/>
  <path d="m527.36 401.33c-2.7852 0-5.0391 2.2539-5.0391 5.0391v37.418c0 2.7852 2.2539 5.0391 5.0391 5.0391s5.0391-2.2539 5.0391-5.0391v-37.418c-0.003907-2.7852-2.2539-5.0391-5.0391-5.0391z"/>
  <path d="m527.36 466.11c-2.7852 0-5.0391 2.2539-5.0391 5.0391v16.738c0 2.7852 2.2539 5.0391 5.0391 5.0391s5.0391-2.2539 5.0391-5.0391v-16.738c-0.003907-2.7852-2.2539-5.0391-5.0391-5.0391z"/>
 </g>
</svg>