<?xml version="1.0" encoding="UTF-8"?>
<!-- The Best Svg Icon site in the world: iconSvg.co, Visit us! https://iconsvg.co -->
<svg fill="#000000" width="800px" height="800px" version="1.1" viewBox="144 144 512 512" xmlns="http://www.w3.org/2000/svg">
 <g>
  <path d="m596.48 445.97c-65.168 0-108.96-3.4023-145.18-7.8555l11.02-88.922c1.3477-10.863-2.0352-21.797-9.2852-29.996-4.9609-5.6094-11.43-9.5352-18.52-11.484 19.605-12.48 30.977-37.238 41.223-59.652 2.082-4.5547 4.1211-9.0234 6.1836-13.27 0.85937-1.7695 0.60937-3.8789-0.64063-5.3984-1.2461-1.5195-3.2734-2.1758-5.1719-1.6719-0.75391 0.19531-17.617 4.7188-45.328 19.664-3.7852-15.676-11.543-34.734-27.434-47.773-1.8516-1.5234-4.5352-1.5234-6.3867 0-16.129 13.227-23.898 32.621-27.629 48.602-25.559-14.441-44.211-19.961-45.047-20.207-1.9102-0.55469-3.9688 0.058594-5.2539 1.5781-1.2891 1.5195-1.5586 3.6523-0.69922 5.4414 2.2109 4.5859 4.3828 9.4609 6.6094 14.453 9.8711 22.152 20.82 46.559 39.902 58.477-6.7305 2.0312-12.859 5.8633-17.609 11.234-7.2461 8.2031-10.633 19.133-9.2852 29.996l9.1914 74.141c-35.992-4.3203-79.555-7.5859-143.64-7.5859-2.7852 0-5.0391 2.2539-5.0391 5.0391l0.003906 175.7c0 2.7852 2.2539 5.0391 5.0391 5.0391h392.97c2.7852 0 5.0391-2.2539 5.0391-5.0391l-0.003906-145.48c0-2.7852-2.2539-5.0352-5.0391-5.0352zm-262.33-200.59c-0.5625-1.2578-1.1211-2.5078-1.6758-3.75 8.832 3.5039 22.293 9.5234 37.805 18.781 1.4219 0.84766 3.1641 0.94141 4.6797 0.25391 1.5039-0.68359 2.5742-2.0703 2.8633-3.6992 2.5273-14.234 8.457-33.43 22.34-46.727 13.629 13.059 19.578 31.836 22.164 45.75 0.30078 1.5977 1.3477 2.957 2.8242 3.6445 1.4648 0.68359 3.1914 0.625 4.6016-0.17578 16.477-9.2734 29.57-14.98 38.047-18.254-0.40234 0.88672-0.8125 1.7695-1.2188 2.6602-11.871 25.965-25.328 55.395-50.848 60.926-15.316 3.332-30.992 0.0625-31.391-0.015625-25.574-4.168-38.652-33.508-50.191-59.395zm20.641 80.492c5.332-6.0352 13.012-9.5 21.074-9.5h24.523c0.089844 0 0.17188 0.003906 0.26172 0.003906 0.074218 0 0.15234-0.003906 0.22656-0.003906h23.535c8.0586 0 15.738 3.4648 21.074 9.5 5.3398 6.0352 7.8281 14.086 6.8398 22.082l-3.6172 29.184h-97.137l-3.6172-29.184c-0.99219-7.9961 1.5-16.047 6.8359-22.082zm-1.9727 61.34h94.641l-6.1484 49.625c-14.246-1.8906-27.477-3.9141-40.547-5.9258-13.918-2.1406-28.012-4.2969-43.309-6.293zm-144.27 204.23v-95.34h135.82c2.7852 0 5.0391-2.2539 5.0391-5.0391s-2.2539-5.0391-5.0391-5.0391l-135.82 0.003906v-60.207c94.539 0.26172 143.4 7.7773 190.68 15.051 47.656 7.3281 96.898 14.906 192.21 15.168v91.836h-135.82c-2.7852 0-5.0391 2.2539-5.0391 5.0391 0 2.7852 2.2539 5.0391 5.0391 5.0391h135.82v33.488z"/>
  <path d="m424.42 486.03h-47.645c-2.7852 0-5.0391 2.2539-5.0391 5.0391 0 2.7852 2.2539 5.0391 5.0391 5.0391h47.645c2.7852 0 5.0391-2.2539 5.0391-5.0391 0-2.7852-2.2539-5.0391-5.0391-5.0391z"/>
  <path d="m423.22 547.88h-126.5c-2.7852 0-5.0391 2.2539-5.0391 5.0391 0 2.7852 2.2539 5.0391 5.0391 5.0391h126.5c2.7852 0 5.0391-2.2539 5.0391-5.0391-0.003907-2.7852-2.2578-5.0391-5.0391-5.0391z"/>
 </g>
</svg>