<?xml version="1.0" encoding="UTF-8"?>
<!-- The Best Svg Icon site in the world: iconSvg.co, Visit us! https://iconsvg.co -->
<svg fill="#000000" width="800px" height="800px" version="1.1" viewBox="144 144 512 512" xmlns="http://www.w3.org/2000/svg">
 <path d="m503.44 296.99h28.34v35.422h-28.34zm-287.04 184.05h134.33v142.65h-134.33c-0.003906 0-0.003906-142.65-0.003906-142.65zm28.984 84.109c0 4.7617 3.8594 8.6211 8.6211 8.6211h58.891c4.7617 0 8.6211-3.8594 8.6211-8.6211v-43.609h-76.133zm-45.922-98.629h31.402v-77.434h-7.9922c-36.973 0-66.953 29.977-66.953 66.953v142.84c0 11.598 8.7578 21.73 20.328 22.48 12.688 0.82031 23.227-9.2266 23.227-21.734zm438.59-169.45v198.11h-226.82v104.43c0 12.027-9.75 21.781-21.781 21.781s-21.781-9.75-21.781-21.781l0.003907-133.09h-31.633v-77.434h8.2461c21.531 0 40.637 10.207 52.887 26v-118.21l125.64-82.523zm-155.87 98.922v71.367l26.566-35.941zm35.422 23.613 28.34-37.785h-56.68zm28.34 61.406-28.34-37.785-28.086 37.785zm7.0898-85.02-26.566 35.422 26.566 35.609zm70.844-91.652-101.42-72.797-111.12 72.988v176.48h56.676v-113.36h99.191v113.36h56.68v-176.67zm-302.36 84.746h-76.133v77.434h76.129zm-88-63.852c0 28.066 22.754 50.82 50.82 50.82 28.066-0.003907 50.816-22.758 50.816-50.82v-6.8828h32.086v-21.461h-32.086v-33.109c0-11.34-9.1953-20.531-20.531-20.531h-60.57c-11.34 0-20.531 9.1953-20.531 20.531v33.109h-33.625v21.461h33.625v6.8828z"/>
</svg>