<?xml version="1.0" encoding="UTF-8"?>
<!-- The Best Svg Icon site in the world: iconSvg.co, Visit us! https://iconsvg.co -->
<svg fill="#000000" width="800px" height="800px" version="1.1" viewBox="144 144 512 512" xmlns="http://www.w3.org/2000/svg">
 <g>
  <path d="m602.87 391.91c3.6016-8.9844 9.6328-24.016 15.059-54.07 1.6758-9.2852 1.9688-17.383 1.2734-24.488 0.054687-0.22266 0.13281-0.41797 0.1875-0.64453l-0.28906-0.070313c-3.1484-28.98-23.266-40.895-36.883-45.637-2.8867-1.0078-7.332-1.4727-13.98-1.4727-27.809 0-86.055 8.3242-91.984 9.1797-3.3008 0.050781-26.34 0.39844-48.332 0.39844-27.523 0-37.348-0.52734-40.742-0.97266-13.043-1.6914-43.449 4.8398-50.844 6.5586l-48.996-13.496c4.832-8.418 5.0273-18.676 5.0273-20.25v-4.2617l-3.957-1.582c-2.6914-1.0742-5.707-1.6211-8.9766-1.6211-10.125 0-20.906 5.3359-25.75 8.0625l-5.3867-1.6562c-1.3711-0.42187-2.7773-0.63672-4.1719-0.63672-8.9258 0-14.168 8.3516-15.871 11.609l-19.438 19.434-1.875 19.391c-26.254 29.402-27.453 33.59-27.852 34.98-0.74609 2.6211-2.5 8.7578 18.043 22.449l2.3164 1.5469 16.379-4.0977 44.551 6.125c12.473 31.457 54.32 66.461 64.734 74.836l2.0547 40.902h-51.23v12.594h51.867l0.88672 17.633h-70.598v12.594h71.23l0.88672 17.633h-12.316c-5.6992-5.4805-11.219-6.6445-15.008-6.4219-6.4219 0.22266-11.289 3.8438-13.965 6.4219l-40.266 0.003906-12.707-17.035-11.262 17.035h-39.605v12.594h46.379l5.1133-7.7344 5.7695 7.7344h49.34l3.1016-0.050781 1.8906-2.4141c0.83984-1.0781 3.6875-3.8906 6.6914-3.9688 2.207 0.023438 4.5586 1.3789 7.0742 4.2734l1.8828 2.168h78.52l42.062-6.1172 36.605 6.0312 80.344 0.050781-0.003906 0.035157h26.539l0.003906-0.019531 33.316 0.019531v-12.594h-30.133l4.4648-17.633h25.676v-12.594h-22.484l4.4648-17.633h18.02v-12.594h-14.832l8.3828-33.129-0.13672-1.1602c-1.4648-12.203-3.4883-32.324-3.0664-37.777 0.125-1.7852 1.25-4.5859 2.8047-8.4609zm-47.656 80.516h-183.07l6.1719-45.086 25.875-2.4883c15.93 5.4023 31.824 8.1406 47.277 8.1406 41.984 0 70.66-19.73 82.84-30.109l22.637 45.914zm-184.8 12.594h183.87l-1.293 17.633h-184.99zm100.64 47.863-38.039-6.2617-42.629 6.2617h-26.516l2.4141-17.633h185.79l-1.293 17.633zm120.12-145.66c-1.9766 4.918-3.3945 8.4688-3.6797 12.168-0.59766 7.7773 2.2383 32.754 2.9844 39.074l-23.891 94.414h-3.1875l6.3594-86.586-31.992-64.844-6.2188 6.7773c-0.29688 0.32422-30.094 32.164-80.086 32.164-14.465 0-29.418-2.6562-44.449-7.8945l-1.3047-0.45312-38.527 3.707-16.031 117.12h-8.3281l-5.4141-107.73-2.2891-1.7773c-0.53516-0.41406-53.68-41.898-64.113-74.336l-1.2148-3.7734-54.66-7.5156-13.273 3.3203c-4.0664-2.9023-7.9336-6.1523-9.75-8.1719 3.75-5.3047 15.387-18.969 25.59-30.359l1.375-1.5352 1.8398-19 17.801-17.805 0.47266-1.0664c0.94531-2.1328 3.4297-5.5117 5.3945-5.2109l10.852 3.3398 2.4648-1.5859c3.2539-2.1016 13.387-7.5234 21.367-7.5938-0.78906 4.7266-2.6797 10.715-6.6758 12.832l-14.02 7.4258 77.543 21.363 1.582-0.38281c0.28906-0.070312 28.746-6.8984 43.984-6.8984 1.4297 0 2.7344 0.058594 3.875 0.20703 5.5586 0.72656 19.418 1.0781 42.375 1.0781 23.75 0 48.688-0.40234 48.941-0.40625l0.80469-0.066407c0.625-0.089843 62.785-9.1094 90.57-9.1094 7.0703 0 9.3242 0.59375 9.8438 0.77734 16.594 5.7734 26.047 16.988 28.328 33.414-3.3398 11.48-9.2969 19.453-17.77 23.617-15.707 7.7344-36.309 1.3555-43.254-1.2031-1.9414-4.7266-6.6055-13.645-15.492-18.156-6.8828-3.4961-14.656-3.6836-23.125-0.57031l-3.9531 1.4609-0.15625 4.2188c-0.29297 7.8203 3.7422 23.312 21.078 25.98l1.918-12.449c-6.3984-0.98438-8.8828-5.1875-9.8359-8.625 3.0977-0.45312 5.8438-0.054687 8.3164 1.1875 7.2617 3.6484 10.223 13.426 10.242 13.496l0.80469 2.8281 2.6836 1.1992c0.89844 0.39844 15.84 6.9258 33.055 6.9258 7.6328 0 15.715-1.2852 23.211-4.957 3.9609-1.9414 7.4609-4.4805 10.605-7.4727-4.9883 25.996-10.316 39.32-13.57 47.434z"/>
  <path d="m228.07 565h381.64v12.594h-381.64z"/>
  <path d="m275.93 592.71h333.77v12.594h-333.77z"/>
 </g>
</svg>