<?xml version="1.0" encoding="UTF-8"?>
<!-- The Best Svg Icon site in the world: iconSvg.co, Visit us! https://iconsvg.co -->
<svg fill="#000000" width="800px" height="800px" version="1.1" viewBox="144 144 512 512" xmlns="http://www.w3.org/2000/svg">
 <g>
  <path d="m295.72 244.72c30.48 0 62.625 2.7188 95.523 8.1602l1.4609 0.20313v-34.914l-1.0078-0.25c-32.695-7.0547-64.387-10.68-94.211-10.68-29.676 0-58.793 3.5781-86.656 10.578l-0.95703 0.25391v34.109l1.5117-0.30078c27.406-4.7422 55.77-7.1602 84.336-7.1602z"/>
  <path d="m464.04 263.27 1.4609 0.25v-26.754l-1.0078-0.20312c-22.168-4.7852-42.723-7.4062-62.926-8.1602l-1.3086-0.050782v28.918h1.2109c20.652 0.60938 41.711 2.625 62.57 6z"/>
  <path d="m564.75 472.85-46.25-13.703c-31.238-9.2188-53-38.992-53-72.496v-115.52l-1.0586-0.15234c-20.809-3.4766-41.969-5.543-62.875-6.0977l-1.3086-0.050781v140.06c0 37.836 24.586 71.492 59.801 81.918l56.98 16.977c2.168 0.45312 4.1836 1.0078 6.2969 1.7617 0.40234 0.15234 0.75391 0.35156 1.1602 0.50391l0.85547 0.40234c1.4609 0.60547 2.6719 1.1094 3.8281 1.7109 0.50391 0.30078 0.95703 0.60547 1.4609 0.90625l0.75391 0.45312c1.2109 0.70703 2.2148 1.3594 3.1758 2.0664 0.55469 0.40234 1.0586 0.80469 1.5625 1.2109l0.60547 0.50391c0.95703 0.80469 1.9141 1.5625 2.8203 2.418 0.55469 0.55469 1.1094 1.1602 1.6641 1.7617 1.1094 1.2109 1.9648 2.1172 2.7188 3.0742 0.60547 0.75391 1.1602 1.5117 1.7109 2.3164 0.70703 1.0195 1.4141 2.0273 2.0664 3.082 0.50391 0.85547 0.95703 1.7109 1.4102 2.6211 0.60547 1.1094 1.1094 2.2148 1.6133 3.3242 0.40234 0.95703 0.80469 1.8633 1.1094 2.8203 0 0 0.55469 1.3086 0.65625 1.5625l0.30078 0.85547h5.9453c14.965 0 27.809-10.73 30.73-25.645l0.050781-0.40234c3.3281-17.68-7.8086-34.812-24.785-38.238z"/>
  <path d="m520.72 512.65c-1.7617-0.65625-3.6289-1.1602-5.4922-1.5117l-57.332-17.078c-38.391-11.387-65.191-48.062-65.191-89.176v-144.49s-1.4609 0.050781-1.5117 0.050781c-0.20312 0-0.35156 0-0.45312-0.050781-32.695-5.3906-64.637-8.1094-95.02-8.1094-28.465 0-56.629 2.418-83.785 7.1523l-0.75391-0.050781h-1.3086v321.38c0 6.6016 5.3906 11.992 11.992 11.992h82.172l0.30078-0.85547c5.9961-18.086 22.52-30.18 41.059-30.18 2.8203 0 5.6445 0.25 8.4141 0.80469l21.059 4.2812 49.07 15.367c21.613 6.8008 44.031 10.328 66.652 10.43 8.7148 0.15234 15.973 0.15234 16.977 0.15234 19.094 0 35.52-13.957 39.094-33.203 1.0586-5.8438 0.95703-11.992-0.40234-17.734-3.3203-13.602-12.891-24.484-25.539-29.172zm-268.68 67.262h-16.574c-7.0039 0-12.695-5.7422-12.695-12.746l-0.003906-258.96c0-2.1172 1.6641-3.7773 3.7773-3.7773 2.0664 0 3.7773 1.6641 3.7773 3.7773v258.96c0 2.8711 2.3164 5.1875 5.1406 5.1875h16.574c2.0664 0 3.7773 1.6641 3.7773 3.7773 0.003906 2.0703-1.707 3.7852-3.7734 3.7852z"/>
 </g>
</svg>