<?xml version="1.0" encoding="UTF-8"?>
<!-- The Best Svg Icon site in the world: iconSvg.co, Visit us! https://iconsvg.co -->
<svg fill="#000000" width="800px" height="800px" version="1.1" viewBox="144 144 512 512" xmlns="http://www.w3.org/2000/svg">
 <g>
  <path d="m291.25 546.47h-13.566c-2.7812 0-5.0391 2.2539-5.0391 5.0391 0 2.7812 2.2539 5.0391 5.0391 5.0391h13.566c2.7812 0 5.0391-2.2539 5.0391-5.0391 0-2.7852-2.2578-5.0391-5.0391-5.0391z"/>
  <path d="m304.83 412.59h-67.863c-2.7695 0-5.0391-2.2656-5.0391-5.0391 0-2.8203 2.2656-5.0391 5.0391-5.0391h25.645c0-0.20312-0.050781-0.30078-0.050781-0.50391v-45.797c-6.3984-1.1602-16.93-4.2305-24.836-12.242-11.84-11.988-12.746-29.926-12.797-30.68-0.050781-1.4102 0.45312-2.8203 1.4609-3.8281 1.0078-0.95703 2.418-1.4609 3.7773-1.4609 0.75391 0.050782 18.59 1.0078 30.48 13 0.65625 0.65625 1.3086 1.3594 1.9141 2.0664v-26.602c0-0.25391 0.10156-0.45312 0.10156-0.70703-11.688-4.7344-19.145-25.645-19.145-40.102 0-3.8789 0.50391-8.6641 4.1328-11.035 3.8281-2.4688 8.0117-0.55469 11.637 1.1094 2.6211 1.1602 5.543 2.5195 8.3125 2.5195 2.7227 0 5.6445-1.3594 8.2617-2.5195 3.6797-1.6641 7.8086-3.5781 11.637-1.1094 3.6797 2.3672 4.1328 7.1523 4.1328 11.035 0 14.461-7.457 35.367-19.145 40.102 0 0.25 0.15234 0.45312 0.15234 0.70703v27.258c0.75391-0.95703 1.5117-1.8633 2.3672-2.7188 11.891-11.992 29.727-12.949 30.48-13 1.4102 0 2.7695 0.50391 3.7773 1.4609 1.0078 1.0078 1.5625 2.418 1.4609 3.8281 0 0.75391-0.95703 18.691-12.797 30.684-8.1094 8.2109-18.992 11.234-25.293 12.344v45.695c0 0.20312-0.10156 0.30078-0.10156 0.50391h32.293c2.7695 0 5.0391 2.2148 5.0391 5.0391 0.003907 2.7656-2.2617 5.0312-5.0352 5.0312z"/>
  <path d="m375.11 343.98c-11.84-11.992-12.797-29.93-12.848-30.684-0.050781-1.4102 0.50391-2.8203 1.5117-3.8281 0.95703-0.95703 2.3164-1.4609 3.7773-1.4609 0.75781 0.050782 18.594 1.0078 30.434 12.996 0.70703 0.65625 1.3086 1.3594 1.9141 2.1172v-26.652c0-0.25391 0.10156-0.45312 0.15234-0.70703-11.688-4.7344-19.145-25.645-19.145-40.102 0-3.8789 0.45312-8.6641 4.1328-11.035 3.8281-2.4688 7.9609-0.55469 11.637 1.1094 2.5703 1.1602 5.543 2.5195 8.2617 2.5195 2.7227 0 5.6914-1.3594 8.2617-2.5195 3.6758-1.6641 7.8086-3.5781 11.637-1.1094 3.6797 2.3711 4.1328 7.1562 4.1328 11.035 0 14.461-7.457 35.367-19.145 40.102 0.050781 0.25 0.15234 0.45313 0.15234 0.70703v27.258c0.75391-0.95703 1.5625-1.8633 2.418-2.7188 11.887-11.992 29.672-12.949 30.43-13 1.4102 0 2.8203 0.50391 3.8281 1.4609 0.95703 1.0078 1.5117 2.418 1.4609 3.8281-0.050781 0.75391-0.95703 18.691-12.848 30.684-8.0625 8.2109-18.941 11.234-25.293 12.344v45.695c0 0.20312-0.050781 0.30078-0.10156 0.50391h23.832c2.7695 0 5.0391 2.2148 5.0391 5.0391 0 2.7695-2.2656 5.0391-5.0391 5.0391l-61.062-0.003906c-2.7695 0-5.0391-2.2656-5.0391-5.0391 0-2.8203 2.2656-5.0391 5.0391-5.0391h27.359c0-0.20312-0.10156-0.30078-0.10156-0.50391v-45.797c-6.3984-1.1562-16.879-4.2305-24.789-12.238z"/>
  <path d="m540.46 551.49c0 2.7695-2.2148 5.0391-5.0391 5.0391h-223.84c-2.7695 0-5.0391-2.2656-5.0391-5.0391 0-2.7695 2.2656-5.0391 5.0391-5.0391h22.117v-49.223c-7.2539-1.2578-19.902-4.7344-29.27-14.207-13.602-13.754-14.66-34.461-14.711-35.316-0.050782-1.4102 0.45312-2.7695 1.4609-3.7773 1.0078-1.0078 2.3672-1.5117 3.7773-1.4609 0.90625 0 21.41 1.1094 35.066 14.914 1.3594 1.3594 2.5703 2.8203 3.6797 4.332v-33.605c0-0.50391 0.15234-0.95703 0.30078-1.4102-13.703-4.7852-22.52-29.422-22.52-46.301 0-4.332 0.50391-9.6211 4.4336-12.191 4.0781-2.6172 8.5117-0.60156 12.797 1.3594 3.125 1.4102 6.6484 2.9727 10.027 2.9727 3.375 0 6.9023-1.5625 10.027-2.9727 4.2812-1.9648 8.7148-3.9805 12.797-1.3594 3.9258 2.5703 4.4297 7.8594 4.4297 12.191 0 16.879-8.8164 41.516-22.52 46.301 0.15234 0.45312 0.30078 0.90625 0.30078 1.4102v34.359c1.2578-1.7617 2.6719-3.4766 4.2812-5.0898 13.652-13.805 34.156-14.914 35.016-14.914 1.4102-0.050782 2.8203 0.45312 3.7773 1.4609 1.0078 1.0078 1.5625 2.3672 1.5117 3.7773-0.050781 0.85547-1.1094 21.562-14.762 35.316-9.6211 9.7734-22.672 13.148-29.824 14.309v49.121h118.8v-49.223c-7.2539-1.2578-19.902-4.7344-29.27-14.207-13.602-13.754-14.66-34.461-14.711-35.316-0.050782-1.4102 0.45312-2.7695 1.4609-3.7773 1.0078-1.0078 2.418-1.5117 3.7773-1.4609 0.90625 0 21.41 1.1094 35.066 14.914 1.3594 1.3594 2.5703 2.8203 3.6758 4.2812v-33.555c0-0.50391 0.15234-0.95703 0.30078-1.4102-13.703-4.7852-22.52-29.422-22.52-46.301 0-4.332 0.50391-9.6211 4.4336-12.191 4.082-2.6211 8.5156-0.60547 12.797 1.3594 3.125 1.4102 6.6484 2.9727 10.027 2.9727 3.375 0 6.9023-1.5625 10.027-2.9727 4.2812-1.9648 8.7148-3.9805 12.797-1.3594 3.9297 2.5703 4.4336 7.8594 4.4336 12.191 0 16.879-8.8164 41.516-22.52 46.301 0.15234 0.45313 0.30078 0.90625 0.30078 1.4102v34.359c1.2578-1.7617 2.6719-3.4766 4.2812-5.0898 13.652-13.805 34.156-14.914 35.016-14.914 1.4102-0.050782 2.8203 0.45312 3.7773 1.4609 1.0078 1.0078 1.5625 2.3672 1.5117 3.7773-0.050781 0.85547-1.1094 21.562-14.762 35.316-9.6211 9.7734-22.672 13.148-29.824 14.309v49.121h62.773c2.8203 0.011719 5.0391 2.2773 5.0391 5.0469z"/>
  <path d="m601.52 407.55c0 2.7695-2.2656 5.0391-5.0391 5.0391h-94.969c-2.7695 0-5.0391-2.2656-5.0391-5.0391 0-2.8203 2.2656-5.0391 5.0391-5.0391h29.172c-0.050781-0.20312-0.10156-0.30078-0.10156-0.50391v-45.797c-6.3984-1.1562-16.93-4.2305-24.789-12.238-11.887-11.992-12.797-29.93-12.844-30.684-0.050781-1.4102 0.50391-2.8203 1.4609-3.8281 1.0078-0.95703 2.3672-1.4609 3.8281-1.4609 0.75391 0.050782 18.539 1.0078 30.43 13 0.65625 0.65625 1.3086 1.3594 1.9141 2.1172v-26.652c0-0.25391 0.10156-0.45312 0.15234-0.70703-11.688-4.7344-19.195-25.645-19.195-40.102 0-3.8789 0.50391-8.6641 4.1797-11.035 3.8281-2.4688 7.9609-0.55469 11.637 1.1094 2.5703 1.1602 5.543 2.5195 8.2617 2.5195 2.7227 0 5.6445-1.3594 8.2617-2.5195 3.6758-1.6641 7.8086-3.5781 11.637-1.1094 3.6758 2.3672 4.1328 7.1523 4.1328 11.035 0 14.461-7.457 35.367-19.145 40.102 0.050782 0.25 0.15234 0.45312 0.15234 0.70703v27.258c0.75391-0.95703 1.5625-1.8633 2.418-2.7188 11.844-11.996 29.676-12.953 30.434-13.004 1.4102 0 2.8203 0.50391 3.7773 1.4609 1.0078 1.0078 1.5625 2.418 1.5117 3.8281-0.050781 0.75391-1.0078 18.691-12.848 30.684-8.1094 8.2109-18.992 11.234-25.293 12.344v45.695c0 0.20312-0.10156 0.30078-0.10156 0.50391l55.926-0.003906c2.7695 0 5.0391 2.2188 5.0391 5.0391z"/>
  <path d="m217.96 402.05h-14.445c-2.7812 0-5.0391 2.2539-5.0391 5.0391 0 2.7812 2.2539 5.0391 5.0391 5.0391h14.441c2.7812 0 5.0391-2.2539 5.0391-5.0391 0-2.7812-2.2539-5.0391-5.0352-5.0391z"/>
 </g>
</svg>