<?xml version="1.0" encoding="UTF-8"?>
<!-- The Best Svg Icon site in the world: iconSvg.co, Visit us! https://iconsvg.co -->
<svg fill="#000000" width="800px" height="800px" version="1.1" viewBox="144 144 512 512" xmlns="http://www.w3.org/2000/svg">
 <g>
  <path d="m392.67 303.65h14.652c2.7852 0 5.0391-2.2539 5.0391-5.0391 0-2.7812-2.2539-5.0391-5.0391-5.0391h-14.652c-2.7852 0-5.0391 2.2539-5.0391 5.0391 0 2.7852 2.2539 5.0391 5.0391 5.0391z"/>
  <path d="m392.67 341.5h14.652c2.7852 0 5.0391-2.2539 5.0391-5.0391 0-2.7812-2.2539-5.0391-5.0391-5.0391h-14.652c-2.7852 0-5.0391 2.2539-5.0391 5.0391 0 2.7812 2.2539 5.0391 5.0391 5.0391z"/>
  <path d="m392.67 379.36h14.652c2.7852 0 5.0391-2.2539 5.0391-5.0391 0-2.7812-2.2539-5.0391-5.0391-5.0391h-14.652c-2.7852 0-5.0391 2.2539-5.0391 5.0391 0 2.7812 2.2539 5.0391 5.0391 5.0391z"/>
  <path d="m198.48 485.25v111.24c0 2.7812 2.2539 5.0391 5.0391 5.0391h392.97c2.7852 0 5.0391-2.2539 5.0391-5.0391l-0.003906-111.24c0-19.938-9.4492-38.336-24.52-50.258-0.011718-2.2734-0.046875-4.5352-0.10547-6.7891 1.2383-25.148 6.75-115.45 24.445-180.53 0.41406-1.5156 0.09375-3.1406-0.85938-4.3867s-2.4375-1.9727-4-1.9727h-0.015625l-24.574 0.066406c0.28906-8.3359 1.1367-26.875 3.2109-36.832 0.30859-1.4844-0.0625-3.0273-1.0195-4.207-0.95703-1.1758-2.3945-1.8594-3.9102-1.8594h-68.445c-1.5039 0-2.9336 0.67578-3.8867 1.8359-0.96094 1.1602-1.3477 2.6875-1.0586 4.1641 0.035156 0.19141 3.5 18.172 4.4805 36.977h-39.781c-1.8203 0-3.5039 0.98438-4.3945 2.5703-0.89062 1.5898-0.85547 3.5352 0.09375 5.0898 37.281 61.18 43.934 120.45 45.117 139.08-3.2578-0.43359-6.5625-0.65625-9.8984-0.65625-10.711 0-21.152 2.375-30.73 6.668-0.32031-25.629-3.8867-106.27-35-159.27-5.6797-9.668-15.652-15.441-26.672-15.441s-20.992 5.7734-26.672 15.445c-31.805 54.184-34.805 131.1-34.988 152.91-1.9727-0.18359-3.957-0.30859-5.9609-0.30859-12.734 0-24.824 3.7852-35.031 10.453 1.7344-24.547 9.6367-90.07 45.473-148.88 0.94922-1.5547 0.98438-3.5 0.09375-5.0898-0.89062-1.5859-2.5742-2.5703-4.3945-2.5703h-39.785c0.98438-18.805 4.4414-36.785 4.4805-36.977 0.28906-1.4766-0.097656-3.0078-1.0586-4.168-0.95703-1.1641-2.3828-1.832-3.8906-1.832h-68.445c-1.5156 0-2.9531 0.68359-3.9102 1.8594-0.95312 1.1797-1.3281 2.7227-1.0195 4.207 2.0742 9.957 2.9258 28.496 3.2188 36.832l-24.578-0.066406h-0.015625c-1.5664 0-3.0469 0.72656-4 1.9727s-1.2734 2.8711-0.85938 4.3867c19.113 70.305 24.195 171.41 24.875 186.87-15.207 11.727-25.055 30.066-25.055 50.707zm372.39-113.11c-7.0273-37.617-18.828-69.914-28.812-92.703 0.29297-3.1875 2.7305-15.672 5.3242-27.914l42.562-0.11719c-9.8164 38.613-15.672 84.52-19.074 120.73zm-63.141-163.59h56.488c-1.5352 11.062-2.1797 25.812-2.4141 32.852l-18.516 0.050781c-2.3672 0.007813-4.4141 1.6602-4.9102 3.9766-1.0938 5.0742-2.5117 11.77-3.7383 17.977-6.0234-12.297-10.27-19.309-10.418-19.551-0.92188-1.4922-2.543-2.4023-4.2969-2.4023h-8.5859c-0.64844-13.164-2.4375-25.762-3.6094-32.902zm-37.422 42.977h46.73c7.9883 13.996 47.383 87.328 49.789 176.34-0.007813 0.16797-0.015625 0.32422-0.023437 0.48438-3.0469-1.5781-6.2383-2.9297-9.5664-4.0078-10.098-16.84-26.238-28.895-44.703-34.031-0.64844-15.648-5.5547-74.723-42.227-138.78zm-121.65 127.83h11.516c2.7852 0 5.0391-2.2539 5.0391-5.0391 0-2.7812-2.2539-5.0391-5.0391-5.0391h-11.027c0.47656-7.9219 1.2734-17.398 2.5586-27.777h11.793c2.7852 0 5.0391-2.2539 5.0391-5.0391 0-2.7812-2.2539-5.0391-5.0391-5.0391h-10.422c1.3203-8.8945 3.0195-18.258 5.1914-27.773h11.867c2.7852 0 5.0391-2.2539 5.0391-5.0391 0-2.7812-2.2539-5.0391-5.0391-5.0391h-9.3906c2.4609-9.3477 5.418-18.703 8.9609-27.777h11.344c2.7852 0 5.0391-2.2539 5.0391-5.0391 0-2.7812-2.2539-5.0391-5.0391-5.0391h-7.0977c2.4531-5.4062 5.1211-10.668 8.0664-15.688 3.8516-6.5547 10.574-10.469 17.984-10.469s14.129 3.9141 17.984 10.469c2.9141 4.9648 5.5547 10.234 7.9883 15.688h-8.7852c-2.7852 0-5.0391 2.2539-5.0391 5.0391 0 2.7812 2.2539 5.0391 5.0391 5.0391h12.949c3.4258 8.9805 6.3047 18.34 8.7266 27.777h-8.9961c-2.7852 0-5.0391 2.2539-5.0391 5.0391 0 2.7812 2.2539 5.0391 5.0391 5.0391h11.426c2.1016 9.4141 3.7695 18.773 5.1055 27.773h-9.8945c-2.7852 0-5.0391 2.2539-5.0391 5.0391 0 2.7812 2.2539 5.0391 5.0391 5.0391h11.27c1.2656 10.09 2.1172 19.5 2.6875 27.777h-10.637c-2.7852 0-5.0391 2.2539-5.0391 5.0391 0 2.7812 2.2539 5.0391 5.0391 5.0391h11.234c0.47656 9.6953 0.55078 16.863 0.55078 20.32-6.4336 4.1445-12.309 9.207-17.293 15.191-16.141-10.316-36.527-12.832-54.801-6.6406-8.4375-9.1719-19.246-15.512-31.094-18.57 0.015625-2.4219 0.074219-5.9219 0.23438-10.301zm25.449 38c1.3906 1.6953 3.7344 2.2969 5.7695 1.4727 6.4648-2.5977 13.238-3.9141 20.121-3.9141 11.715 0 22.898 3.7461 32.34 10.836 1.082 0.80859 2.4336 1.1562 3.7734 0.95312 1.332-0.19922 2.5352-0.92578 3.3242-2.0156 12.328-16.949 32.129-27.07 52.965-27.07 23.59 0 45.465 12.812 57.086 33.43 0.64844 1.1523 1.7227 2 2.9883 2.3672 22.945 6.6406 38.969 27.957 38.969 51.832v106.2h-382.89v-106.2c0-29.773 24.223-53.996 53.996-53.996 4.668 0 9.4609 0.66016 14.242 1.9648 2.4062 0.65625 4.9609-0.56641 5.9531-2.875 8.5312-19.879 28.016-32.727 49.633-32.727 16.211 0 31.422 7.1953 41.734 19.742zm-87.309-10.738c-4.5586 4.6172-8.4727 9.9336-11.504 15.883-4.2695-0.88281-8.543-1.3281-12.746-1.3281-10.344 0-20.09 2.5195-28.746 6.8906 2.3477-88.945 41.258-162.45 49.184-176.54h46.727c-39.547 69.77-42.672 143.98-42.914 155.09zm-51.023-198.07h56.488c-1.168 7.1406-2.957 19.738-3.6094 32.898h-8.582c-1.7617 0-3.3945 0.92188-4.3086 2.4297-0.14453 0.23828-4.1992 7.0312-9.9805 18.926-1.668-7.5586-3.5781-15.133-4.2031-17.566-0.57031-2.2227-2.5742-3.7812-4.8672-3.7891l-18.52-0.050781c-0.23437-7.0352-0.88281-21.785-2.418-32.848zm16.996 42.965c2.8711 11.559 5.5039 23.684 5.6836 27.246-10.094 23.227-22.148 56.555-29.109 95.391-3.4375-36.789-9.3672-83.68-19.297-122.75z"/>
 </g>
</svg>