<?xml version="1.0" encoding="UTF-8"?>
<!-- The Best Svg Icon site in the world: iconSvg.co, Visit us! https://iconsvg.co -->
<svg fill="#000000" width="800px" height="800px" version="1.1" viewBox="144 144 512 512" xmlns="http://www.w3.org/2000/svg">
 <g>
  <path d="m543.73 525.54c-16.68 0-33.586-12.434-49.109-23.863-6.8477-5.043-13.922-10.25-21.125-14.695l-63.715-39.359-24.215 24.207c-1.6602 1.6641-3.9219 2.6055-6.2852 2.6055-2.3633 0-4.625-0.94141-6.2891-2.6055l-44.66-44.656c-1.6641-1.6641-2.6055-3.9219-2.6055-6.2852s0.94141-4.625 2.6055-6.2891l24.211-24.207-39.367-63.707c-4.4453-7.1992-9.668-14.289-14.711-21.133-17.211-23.383-36.723-49.887-12.523-74.07l14.559-14.555c3.4648-3.4688 9.1055-3.4688 12.574 0l270.2 270.16c3.4648 3.4688 3.4648 9.1055 0 12.574l-14.559 14.555c-8.1406 8.1406-16.539 11.328-24.984 11.328zm-135.26-98.062c1.6133 0 3.2266 0.43359 4.6719 1.3203l69.699 43.055c7.8125 4.8281 15.18 10.25 22.32 15.508 26.715 19.664 38.793 26.457 50.977 14.277l8.2695-8.2695-257.62-257.58-8.2695 8.2695c-12.18 12.18-5.3828 24.258 14.277 50.969 5.25 7.1367 10.684 14.516 15.512 22.328l43.062 69.688c2.1719 3.5039 1.6367 8.0391-1.2812 10.961l-22.906 22.898 32.09 32.082 22.902-22.898c1.7148-1.7148 3.9883-2.6055 6.2852-2.6055z"/>
  <path d="m209.68 624.08c-6.0625 0-11.738-2.3477-15.996-6.6055l-11-10.996c-4.2539-4.2539-6.6055-9.9336-6.6055-15.992 0-6.0586 2.3516-11.734 6.6055-16.004l132.92-132.9c3.4688-3.4688 9.1094-3.4688 12.574 0 3.4688 3.4688 3.4688 9.1055 0 12.574l-132.92 132.9c-1.207 1.207-1.3984 2.668-1.3984 3.4297s0.17578 2.2109 1.3984 3.418l11 11c1.2188 1.2188 2.668 1.3945 3.418 1.3945 0.76172 0 2.207-0.17578 3.4141-1.3945l132.92-132.9c3.4688-3.4648 9.1094-3.4648 12.574 0 3.4688 3.4688 3.4688 9.1055 0 12.574l-132.92 132.9c-4.2578 4.2578-9.9492 6.6055-15.992 6.6055z"/>
  <path d="m578.66 499.83c-3.4922 0-6.8086-2.082-8.2305-5.5117-1.8672-4.5469 0.30469-9.7422 4.8398-11.609l22.344-9.1797 9.1836-22.355c1.8672-4.5469 7.0625-6.707 11.609-4.8398 4.5469 1.8672 6.707 7.0625 4.8398 11.609l-10.594 25.781c-0.90234 2.1992-2.6406 3.9375-4.8398 4.8398l-25.785 10.594c-1.1055 0.45703-2.25 0.67188-3.3789 0.67188z"/>
  <path d="m540.14 461.32c-3.4922 0-6.8086-2.082-8.2305-5.5117-1.8672-4.5469 0.30469-9.7422 4.8398-11.609l22.344-9.1836 9.1836-22.34c1.8672-4.5469 7.0625-6.707 11.609-4.8398 4.5469 1.8672 6.707 7.0625 4.8398 11.609l-10.605 25.781c-0.90234 2.1992-2.6406 3.9375-4.8398 4.8398l-25.785 10.605c-1.1055 0.45703-2.25 0.67188-3.3789 0.67188z"/>
  <path d="m501.61 422.8c-3.4922 0-6.8086-2.0859-8.2305-5.5156-1.8672-4.543 0.30469-9.7383 4.8398-11.605l22.344-9.1836 9.1836-22.34c1.8672-4.5469 7.0625-6.707 11.609-4.8398 4.5508 1.8672 6.707 7.0625 4.8438 11.609l-10.609 25.781c-0.90234 2.1992-2.6406 3.9375-4.8398 4.8398l-25.785 10.594c-1.1055 0.45703-2.25 0.67188-3.3789 0.67188z"/>
  <path d="m463.09 384.29c-3.4922 0-6.8086-2.082-8.2305-5.5117-1.8672-4.5469 0.30469-9.7422 4.8398-11.609l22.344-9.1836 9.1836-22.352c1.8672-4.5469 7.0625-6.707 11.609-4.8398 4.5508 1.8672 6.7109 7.0625 4.8398 11.609l-10.605 25.781c-0.90234 2.1992-2.6406 3.9375-4.8398 4.8398l-25.785 10.594c-1.1055 0.45703-2.25 0.67188-3.3789 0.67188z"/>
  <path d="m424.57 345.77c-3.4961 0-6.8086-2.0859-8.2344-5.5117-1.8633-4.5469 0.30859-9.7422 4.8398-11.609l22.348-9.1836 9.1836-22.352c1.8672-4.5469 7.0625-6.707 11.609-4.8398 4.5469 1.8672 6.707 7.0625 4.8398 11.609l-10.609 25.781c-0.89844 2.1953-2.6406 3.9375-4.8359 4.8398l-25.789 10.59c-1.1055 0.45703-2.2461 0.67578-3.3789 0.67578z"/>
  <path d="m386.05 307.27c-3.4961 0-6.8086-2.082-8.2305-5.5117-1.8711-4.5469 0.30469-9.7422 4.8359-11.609l22.344-9.1836 9.1875-22.34c1.8672-4.5469 7.0625-6.707 11.609-4.8398s6.707 7.0625 4.8398 11.609l-10.594 25.781c-0.90234 2.1992-2.6445 3.9375-4.8398 4.8398l-25.785 10.594c-1.1055 0.45703-2.25 0.67188-3.3828 0.67188z"/>
  <path d="m347.53 268.74c-3.4922 0-6.8086-2.082-8.2305-5.5117-1.8672-4.5469 0.30469-9.7422 4.8398-11.609l22.344-9.1836 9.1836-22.34c1.8672-4.5469 7.0625-6.7031 11.609-4.8359 4.5469 1.8633 6.707 7.0586 4.8398 11.605l-10.605 25.785c-0.90234 2.1953-2.6406 3.9375-4.8398 4.8359l-25.785 10.594c-1.1055 0.45703-2.25 0.67188-3.3789 0.67188z"/>
  <path d="m309 230.23c-3.4922 0-6.8086-2.082-8.2305-5.5117-1.8672-4.5469 0.30469-9.7422 4.8398-11.609l22.355-9.1797 9.1836-22.344c1.8672-4.5312 7.0625-6.7031 11.613-4.8359 4.5469 1.8672 6.707 7.0586 4.8398 11.605l-10.594 25.785c-0.90234 2.1953-2.6445 3.9375-4.8438 4.8398l-25.785 10.602c-1.1055 0.46094-2.2461 0.67578-3.3789 0.67578z"/>
 </g>
</svg>