<?xml version="1.0" encoding="UTF-8"?>
<!-- The Best Svg Icon site in the world: iconSvg.co, Visit us! https://iconsvg.co -->
<svg fill="#000000" width="800px" height="800px" version="1.1" viewBox="144 144 512 512" xmlns="http://www.w3.org/2000/svg">
 <path d="m600.09 335.28c-0.83203-0.48828-19.746-11.402-57.559-22.574 10.496-16.816 20.773-40.387 18.262-65.801-0.23828-2.3945-2.125-4.2812-4.5195-4.5156-25.781-2.5508-49.66 8.0312-66.711 18.836-9.6914-35.449-21.336-56.891-21.855-57.844-0.95703-1.7422-2.8633-2.793-4.832-2.5938-1.9844 0.16016-3.6836 1.4766-4.3359 3.3555-2.0664 5.9062-4.4141 12.035-6.8203 18.312-10.918 28.477-23.004 60.027-15.48 87.211-7.9492-4.8633-17.262-7.2812-26.652-6.6719-13.074 0.80469-25.191 7.1953-33.242 17.523l-168.25 215.84c-12.953 16.617-11.488 40.379 3.4102 55.277 8.0977 8.0977 18.816 12.227 29.59 12.227 9.0352 0 18.105-2.9062 25.688-8.8125l215.84-168.25c10.332-8.0547 16.715-20.168 17.527-33.246 0.60938-9.8242-1.9844-19.496-7.2383-27.629 6.0742 1.6016 12.34 2.3008 18.723 2.2969 23.18 0 47.906-9.2031 70.664-17.684 5.7695-2.1523 11.422-4.2578 16.898-6.1523 1.8594-0.64453 3.1758-2.3125 3.3672-4.2734 0.1875-1.957-0.77344-3.8398-2.4727-4.8359zm-218.08 157.17-71.324-71.324 44.547-57.152 83.926 83.926zm-65.164 50.793-56.949-56.957 44.551-57.156 69.555 69.562zm-56.258 43.855c-12.617 9.8359-30.652 8.7109-41.957-2.5898-11.309-11.305-12.418-29.344-2.5898-41.953l37.621-48.262 55.18 55.188zm229.5-194.16c-0.62891 10.191-5.6055 19.637-13.664 25.914l-29.258 22.809-85.688-85.699 22.801-29.258c6.2773-8.0547 15.723-13.035 25.914-13.664 0.73438-0.046875 1.4648-0.070313 2.1953-0.070313 9.4219 0 18.504 3.7383 25.207 10.438l42.117 42.117c7.2266 7.2344 11.004 17.215 10.375 27.414zm88.695-51.84c-33.07 12.312-70.559 26.277-97.984 8.6289-16.383-10.543-27.281-27.172-27.527-27.539-18.918-26.301-4.6992-63.398 7.8477-96.133 0.94531-2.4648 1.8828-4.9062 2.7969-7.3203 4.6836 10.539 11.801 28.52 17.688 51.816 0.40625 1.6016 1.5703 2.9062 3.125 3.4805 1.5508 0.59375 3.2891 0.35938 4.6445-0.58594 14.918-10.414 37.371-22.359 61.68-21.328 0.875 23.867-10.555 45.988-20.633 60.68-0.92188 1.3398-1.1367 3.043-0.57812 4.5703 0.55469 1.5273 1.8125 2.6914 3.375 3.1289 24.355 6.8164 41.57 13.809 51.543 18.367-1.9766 0.74609-3.9727 1.4844-5.9766 2.2344z"/>
</svg>