<?xml version="1.0" encoding="UTF-8"?>
<!-- The Best Svg Icon site in the world: iconSvg.co, Visit us! https://iconsvg.co -->
<svg fill="#000000" width="800px" height="800px" version="1.1" viewBox="144 144 512 512" xmlns="http://www.w3.org/2000/svg">
 <g>
  <path d="m287.48 636.16c6.9102 0.007813 13.602-2.4414 18.875-6.9102 5.2734-4.4727 8.7852-10.672 9.9062-17.492l3.8086-22.828 159.85-0.003907 3.8086 22.828 0.003906 0.003906c1.625 9.707 8.0391 17.941 17.055 21.898 9.0156 3.9531 19.418 3.0977 27.664-2.2812s13.227-14.551 13.242-24.398v-18.051h15.742c2.0898 0 4.0898-0.82812 5.5664-2.3047 1.4766-1.4766 2.3086-3.4766 2.3086-5.5664v-289.78l7.7461 3.7227c7.1055 3.4141 15.492 2.7734 22-1.6758 6.5078-4.4492 10.148-12.031 9.5508-19.891-0.60156-7.8633-5.3477-14.805-12.453-18.219l-188.75-90.59c-2.1523-1.0352-4.6602-1.0352-6.8164 0l-188.75 90.582c-3.7422 1.8125-6.8984 4.6406-9.1133 8.1562-2.2109 3.5195-3.3906 7.5898-3.4062 11.746-0.011719 7.5898 3.8828 14.652 10.305 18.691 6.4219 4.043 14.477 4.4961 21.312 1.1992l7.7461-3.7227v289.78c0 2.0898 0.82812 4.0898 2.3047 5.5664 1.4766 1.4766 3.4766 2.3047 5.5664 2.3047h15.742v18.051c0.007813 7.7383 3.0859 15.156 8.5586 20.625 5.4688 5.4727 12.887 8.5508 20.625 8.5586zm13.258-26.969h-0.003907c-1.1445 6.8984-7.3906 11.77-14.363 11.191-6.9727-0.57812-12.336-6.4102-12.328-13.406v-18.051h30.07zm225.21-2.2148c0.007812 6.9961-5.3555 12.828-12.324 13.406-6.9727 0.57813-13.223-4.293-14.367-11.191l-3.3789-20.266h30.07zm-181.05-104.64h110.21v7.8711c0 2.0859-0.82812 4.0898-2.3047 5.5664-1.4766 1.4766-3.4766 2.3047-5.5664 2.3047h-94.465c-4.3477 0-7.8711-3.5234-7.8711-7.8711zm-94.465-15.746v-70.848h78.719v7.8711c0 6.2656 2.4883 12.273 6.918 16.699 4.4297 4.4297 10.438 6.918 16.699 6.918h94.465c6.2617 0 12.27-2.4883 16.699-6.918 4.4297-4.4258 6.918-10.434 6.918-16.699v-7.8711h78.719v70.848zm0-157.44h78.719v7.875c0 6.2617 2.4883 12.27 6.918 16.699 4.4297 4.4258 10.438 6.9141 16.699 6.9141h94.465c6.2617 0 12.27-2.4883 16.699-6.9141 4.4297-4.4297 6.918-10.438 6.918-16.699v-7.875h78.719v70.848l-299.14 0.003906zm94.465 0h110.21v7.875c0 2.0859-0.82812 4.0898-2.3047 5.5664-1.4766 1.4766-3.4766 2.3047-5.5664 2.3047h-94.465c-4.3477 0-7.8711-3.5234-7.8711-7.8711zm0 86.594h110.21v7.8711c0 2.0898-0.82812 4.0898-2.3047 5.5664-1.4766 1.4766-3.4766 2.3086-5.5664 2.3086h-94.465c-4.3477 0-7.8711-3.5273-7.8711-7.875zm-124.77-134.93c-1.957 0.95312-4.2656 0.82422-6.1094-0.33203-1.8398-1.1602-2.9531-3.1914-2.9414-5.3672 0.007813-2.4297 1.3945-4.6406 3.582-5.6992l185.35-88.969 185.35 88.953h-0.003906c2.1875 1.0586 3.5781 3.2695 3.582 5.6992 0.015625 2.1758-1.0977 4.207-2.9414 5.3633-1.8438 1.1602-4.1523 1.2891-6.1094 0.33594l-176.47-84.68c-2.1523-1.0352-4.6602-1.0352-6.8164 0zm179.88-68.879 149.57 71.793-0.003906 29.684h-299.14v-29.684zm-149.57 290.41h78.719v7.8711c0 6.2617 2.4883 12.27 6.918 16.699 4.4297 4.4297 10.438 6.918 16.699 6.918h94.465c6.2617 0 12.27-2.4883 16.699-6.918 4.4297-4.4297 6.918-10.438 6.918-16.699v-7.8711h78.719v70.848h-299.14z"/>
  <path d="m400 297.66c8.3516 0 16.359-3.3203 22.266-9.2227 5.9023-5.9062 9.2227-13.918 9.2227-22.266 0-8.3516-3.3203-16.363-9.2227-22.266-5.9062-5.9062-13.914-9.2227-22.266-9.2227s-16.363 3.3164-22.266 9.2227c-5.9062 5.9023-9.2227 13.914-9.2227 22.266 0 8.3477 3.3164 16.359 9.2227 22.266 5.9023 5.9023 13.914 9.2227 22.266 9.2227zm0-47.23v-0.003906c4.1758 0 8.1797 1.6602 11.133 4.6133 2.9492 2.9492 4.6094 6.957 4.6094 11.133s-1.6602 8.1797-4.6094 11.133c-2.9531 2.9492-6.957 4.6094-11.133 4.6094s-8.1797-1.6602-11.133-4.6094c-2.9531-2.9531-4.6133-6.957-4.6133-11.133s1.6602-8.1836 4.6133-11.133c2.9531-2.9531 6.957-4.6133 11.133-4.6133z"/>
  <path d="m447.23 258.3h15.742v15.742h-15.742z"/>
  <path d="m337.02 258.3h15.742v15.742h-15.742z"/>
  <path d="m581.05 407.87h15.742v125.95h-15.742z"/>
  <path d="m581.05 549.57h15.742v15.742h-15.742z"/>
  <path d="m203.2 337.02h15.742v125.95h-15.742z"/>
 </g>
</svg>