<?xml version="1.0" encoding="UTF-8"?>
<!-- The Best Svg Icon site in the world: iconSvg.co, Visit us! https://iconsvg.co -->
<svg fill="#000000" width="800px" height="800px" version="1.1" viewBox="144 144 512 512" xmlns="http://www.w3.org/2000/svg">
 <g>
  <path d="m297.85 313.88h21.254v21.098h-21.254z"/>
  <path d="m270.3 446.29 25.504-20.309-25.504-20.309z"/>
  <path d="m284.79 455.1h47.387l-23.613-18.891z"/>
  <path d="m308.56 415.74 23.457-18.734h-46.918z"/>
  <path d="m346.82 405.51-25.664 20.469 25.664 20.469z"/>
  <path d="m411.37 455.1h15.746v-80.137l7.8711 2.9922c0.78906 0.31641 1.7305 0.47266 2.6758 0.47266 3.1484 0 6.2969-1.8906 7.3984-5.0391 1.5742-4.0938-0.47266-8.6602-4.5664-10.234l-18.105-6.7695-1.5742-0.47266-49.121-18.422v-37.625c0-2.832-1.5742-5.5117-3.9375-6.9258l-55.418-30.699c-2.3633-1.418-5.3516-1.418-7.7148 0l-55.262 30.695c-2.5195 1.418-4.0938 4.0938-4.0938 6.9258v37.629l-49.121 18.422-1.418 0.47266-18.262 6.7695c-4.0938 1.5742-6.1406 6.1406-4.5664 10.234 1.2578 3.1484 4.25 5.0391 7.3984 5.0391 0.94531 0 1.8906-0.15625 2.6758-0.47266l7.8711-2.9922v80.137h72.578v-65.969h92.262v65.973h52.898zm-121.39-112.25v-36.84h37v36.84z"/>
  <path d="m620.76 423.61h-8.5l-0.003907-7.8711c0-4.4102-3.4648-7.8711-7.8711-7.8711-4.4102 0-7.8711 3.4648-7.8711 7.8711v7.8711h-9.6055v-23.461c0-0.31641 0-0.47266-0.15625-0.78906 17.16-3.4648 30.07-18.734 30.07-37 0-12.438-5.9844-23.301-15.273-30.07 1.7305-4.0938 2.6758-8.9727 2.6758-13.855 0-17.32-11.336-31.332-25.191-31.332-13.855 0-25.031 14.012-25.031 31.332 0 4.8789 0.78906 9.7617 2.5195 13.855-4.5664 3.3047-8.1875 7.5586-10.707 12.438-2.832 5.1953-4.4102 11.18-4.4102 17.633 0 6.2969 1.5742 12.281 4.25 17.477v0.15625c5.1953 9.7617 14.484 17.004 25.664 19.363-0.15625 0.31641-0.15625 0.47266-0.15625 0.78906v23.461h-6.1406l0.003906-7.8672c0-4.4102-3.4648-7.8711-7.8711-7.8711-4.4102 0-7.8711 3.4648-7.8711 7.8711v7.8711h-15.742l-0.003907-7.8711c0-4.4102-3.4648-7.8711-7.8711-7.8711-4.4102 0-7.8711 3.4648-7.8711 7.8711v7.8711h-6.1406v-23.461c0-0.31641 0-0.47266-0.15625-0.78906 11.18-2.3633 20.469-9.6055 25.664-19.363v-0.15625c2.6758-5.1953 4.25-11.18 4.25-17.477 0-6.4531-1.5742-12.438-4.4102-17.633-2.6758-4.8789-6.2969-9.1328-10.863-12.438 1.8906-4.0938 2.6758-8.9727 2.6758-13.855 0-17.32-11.336-31.332-25.031-31.332-13.855 0-25.191 14.012-25.191 31.332 0 4.8789 0.94531 9.7617 2.6758 13.855-9.2891 6.7695-15.273 17.633-15.273 30.07 0 18.262 12.91 33.535 30.07 37-0.15625 0.31641-0.15625 0.47266-0.15625 0.78906v23.461h-9.6055l0.003906-7.875c0-4.4102-3.4648-7.8711-7.8711-7.8711-4.4102 0-7.8711 3.4648-7.8711 7.8711v7.8711h-8.5c-4.4102 0-7.8711 3.4648-7.8711 7.8711 0 4.25 3.4648 7.8711 7.8711 7.8711h8.5v15.742h15.746v-11.965l-0.003906-3.7734h9.6055v15.742h15.746v-15.742h6.1406v15.742h15.742v-15.742h15.742v15.746h15.742v-15.742h6.1406v15.742h15.742v-15.742h9.6055v15.742h15.742v-15.742h8.5c4.4102 0 7.8711-3.6211 7.8711-7.8711 0.003906-4.4141-3.4609-7.8789-7.8672-7.8789z"/>
  <path d="m230 470.85 3.1484-7.8711h-53.848v133.82l7.875-19.523z"/>
  <path d="m296.91 462.98h-42.352v-1.7305c-0.15625 0.47266-0.15625 1.1016-0.15625 1.7305h-4.4102l-3.1484 7.8711-56.992 141.7-3.1484 7.8711h62.977l2.3633-7.8711 42.508-141.7z"/>
  <path d="m360.83 467.86 0.94531-4.8789h-48.648c0 0.78906-0.15625 1.418-0.31641 2.2031l-1.7305 5.668-42.508 141.7-2.3633 7.8711h62.348l1.7305-7.8711 29.914-141.7z"/>
  <path d="m376.26 470.85-29.914 141.7-1.7344 7.8711h47.234v-157.44h-13.855z"/>
  <path d="m423.8 470.85-0.31641-1.418-1.2578-6.4531h-14.645v157.44h48.18l-1.7344-7.8711z"/>
  <path d="m486.78 470.85-1.2578-4.4102c0.47266-1.1016 0.78906-2.2031 0.78906-3.4648h-48.02l1.7305 7.8711 30.23 141.7 1.5742 7.8711h63.293l-2.5195-7.8711z"/>
  <path d="m548.34 470.85-3.4648-7.8711h-44.082l2.5195 7.8711 45.812 141.7 2.5195 7.8711h60.773l-3.4648-7.8711z"/>
  <path d="m596.52 462.98h-34.48l1.8906 4.0898v0.16016l1.5742 3.6211 46.758 109.42 7.875 18.262v-135.55z"/>
 </g>
</svg>