<?xml version="1.0" encoding="UTF-8"?>
<!-- The Best Svg Icon site in the world: iconSvg.co, Visit us! https://iconsvg.co -->
<svg fill="#000000" width="800px" height="800px" version="1.1" viewBox="144 144 512 512" xmlns="http://www.w3.org/2000/svg">
 <g>
  <path d="m620.55 321.28h-0.30078c0.10938-1.418 0.16406-2.8438 0.16406-4.2578v-15.422c-0.035156-20.961-8.8516-40.945-24.309-55.105l43.297-43.297-34.73-34.746-31.488 31.488v-36.102h-47.234v43.977l-39.359-39.359-34.746 34.746 43.375 43.375c-8.3516 7.6055-14.883 16.996-19.113 27.473l-1.9375 5.5117v0.085937l-1.2734 4.1641c-6.2773-5.5469-14.172-8.9258-22.516-9.6367l2.4336-2.4336c9.832-9.8125 14.062-23.914 11.266-37.523-2.8008-13.605-12.258-24.891-25.164-30.031-12.906-5.1367-27.531-3.4375-38.914 4.5234v-5.5078c0-14.062-7.5039-27.059-19.68-34.09-12.18-7.0312-27.184-7.0312-39.363 0-12.176 7.0312-19.68 20.027-19.68 34.09v5.5117-0.003907c-4.7266-3.2773-10.09-5.5156-15.742-6.5703v-6.8125c0-11.246-6.0039-21.645-15.746-27.27-9.7422-5.625-21.746-5.625-31.488 0-9.7422 5.625-15.742 16.023-15.742 27.27v4.7266c-9.1875-8.0898-21.879-10.91-33.629-7.4727-11.746 3.4375-20.914 12.656-24.293 24.422-3.375 11.766-0.48828 24.441 7.6523 33.586-7.9453 0.73828-15.312 4.4805-20.594 10.457-5.2812 5.9805-8.082 13.754-7.8281 21.727 0.25 7.9766 3.5352 15.555 9.1797 21.191-5.9297 7.0547-9.1914 15.973-9.2109 25.188 0.03125 28.242 13.84 54.691 37 70.852h-37v236.16h472.32v-236.16h-29.914zm-47.367-99.078 31.488-31.488 12.484 12.488-33.852 33.852c-0.33984-0.19531-0.70703-0.33203-1.0469-0.51953-1.6758-0.94531-3.418-1.7539-5.1562-2.5664-0.92187-0.43359-1.7852-0.96094-2.7227-1.3555l-1.1797-1.1797zm-31.488-42.617h15.742v47.23h-15.742zm-67.59 23.617 12.484-12.488 38.918 38.918c-2.3633 0.66797-4.7227 1.4336-7.0469 2.3633h0.003906c-3.293 1.3125-6.4844 2.8594-9.5586 4.6211-0.30859 0.17188-0.64453 0.28516-0.94531 0.45703zm12.484 98.398c0-3.9648 0.39844-7.9219 1.1914-11.809h77.531v-15.742h-71.883c4.3438-8.1172 10.496-15.121 17.988-20.469 9.9844-7.1016 21.93-10.918 34.176-10.918 12.25 0 24.195 3.8164 34.18 10.918 15.555 11.055 24.828 28.934 24.898 48.02v15.422c0 1.4219-0.074219 2.8438-0.23047 4.2578h-39.129v15.742h36.367l-11.453 62.977-56.402 0.003906c0-5.3008-0.59375-10.582-1.7812-15.746h33.27v-15.742h-38.898c-1.0234-2.0625-2.1484-4.0547-3.3438-5.9844-0.41016-0.65234-0.86719-1.2578-1.2891-1.8984-0.83594-1.25-1.668-2.5039-2.582-3.6914-0.55078-0.72266-1.1562-1.4023-1.7305-2.1016-0.85938-1.0391-1.7227-2.0781-2.6445-3.0703-0.65234-0.70703-1.3477-1.3711-2.0312-2.0469-0.92188-0.91406-1.8438-1.8203-2.8086-2.6758-0.73828-0.65234-1.5039-1.2734-2.2656-1.9062-0.98438-0.78906-1.9844-1.5742-3.0078-2.3633-0.78906-0.58984-1.6289-1.1484-2.4648-1.707-1.0508-0.70312-2.125-1.3789-3.2266-2.0234-0.86719-0.51172-1.7305-1.0078-2.6133-1.4805-1.1328-0.60547-2.2969-1.1719-3.4727-1.7148-0.89844-0.41797-1.793-0.83594-2.7148-1.2188-0.39453-0.16406-0.78906-0.36328-1.1484-0.51953l-1.8281-10.066h-0.007813c-0.42578-2.3164-0.64062-4.668-0.64453-7.0234zm-6.8633 45.91c15.602 4.9688 28.176 16.633 34.297 31.82 2.6758 6.5625 4.0547 13.582 4.0547 20.672h-110.21c0.015625-14.609 5.8281-28.617 16.156-38.949 10.332-10.328 24.34-16.141 38.949-16.156 1.1328 0 2.25 0.085938 3.3633 0.16406l0.66016 0.046875h-0.003906c4.3242 0.29688 8.5977 1.1055 12.73 2.4023zm-182.06-130.48c6.7734-0.015625 13.27 2.6758 18.047 7.4805 3.5742 3.5664 8.9414 4.6328 13.602 2.7031 4.6641-1.9297 7.707-6.4805 7.7109-11.527v-12.484c0-8.4375 4.5-16.234 11.809-20.453 7.3047-4.2188 16.309-4.2188 23.613 0 7.3086 4.2188 11.809 12.016 11.809 20.453v12.484c0.003906 5.0469 3.0469 9.5977 7.707 11.527 4.6641 1.9297 10.031 0.86328 13.602-2.7031 6.4727-6.3281 15.812-8.7539 24.547-6.3789s15.559 9.1992 17.934 17.934-0.050781 18.074-6.3789 24.547l-4.6133 4.6133c-2.6992 2.6992-4.2148 6.3594-4.2148 10.176-0.003907 3.8203 1.5156 7.4805 4.2148 10.18s6.3633 4.2148 10.18 4.2109c6.2617 0 12.27 2.4883 16.699 6.918 4.4297 4.4297 6.918 10.438 6.918 16.699-0.035156 5.8438-2.2578 11.461-6.2266 15.742h-1.6445c-3.0195 0.023437-6.0312 0.23437-9.0234 0.64062-0.82812 0.10156-1.6445 0.24219-2.4648 0.37891v-0.003907c-2.3242 0.38281-4.6289 0.87891-6.9023 1.4883-0.62109 0.16406-1.25 0.30078-1.8672 0.48047-2.7461 0.82031-5.4414 1.8086-8.0664 2.9609-0.59766 0.26172-1.1719 0.57422-1.7617 0.85156-2.0977 0.97656-4.1133 2.0508-6.0469 3.2188-0.67578 0.41016-1.3633 0.78906-2.0234 1.2344-2.4023 1.5195-4.7109 3.1797-6.9141 4.9766l-0.13281 0.11719c-2.1289 1.7891-4.1562 3.7031-6.0625 5.7305-0.55078 0.57422-1.0703 1.1641-1.5742 1.7539-1.5234 1.7109-2.9609 3.4883-4.3125 5.3359-0.36328 0.49609-0.78906 0.96875-1.1016 1.4727v0.003906c-1.6133 2.3281-3.082 4.7539-4.4023 7.2578-0.09375 0.17188-0.21094 0.33203-0.30859 0.50391-0.09375-0.17188-0.21094-0.33203-0.30859-0.50391h0.003906c-1.3203-2.5039-2.7891-4.9297-4.3984-7.2578-0.35547-0.50391-0.73828-0.97656-1.1016-1.4727-1.3555-1.8516-2.793-3.6328-4.3125-5.3359-0.52734-0.58984-1.0547-1.1797-1.5742-1.7539l-0.003906-0.003906c-1.9062-2.0273-3.9297-3.9414-6.0625-5.7305l-0.13281-0.11719c-2.2031-1.7969-4.5117-3.457-6.9102-4.9766-0.66797-0.42578-1.3477-0.78906-2.0234-1.2344-1.957-1.1641-3.9727-2.2383-6.0469-3.2188-0.58984-0.27734-1.1641-0.58984-1.7617-0.85156-2.6289-1.1523-5.3242-2.1406-8.0703-2.9609-0.61328-0.17969-1.2422-0.31641-1.8672-0.48047-2.2734-0.60938-4.5781-1.1055-6.9023-1.4883-0.78906-0.13281-1.6367-0.26953-2.4648-0.37891v0.003906c-3-0.40625-6.0234-0.62109-9.0508-0.64062-2.0938 0-4.1719 0.10937-6.2344 0.29297-0.66797 0.0625-1.3242 0.16406-1.9844 0.24219-1.3945 0.16406-2.7773 0.34766-4.1562 0.58984-0.78906 0.14062-1.5742 0.31641-2.3125 0.47266-1.25 0.26953-2.5039 0.55859-3.7305 0.89062-0.78906 0.21094-1.5742 0.44141-2.3633 0.68359-1.2031 0.37109-2.4023 0.78906-3.5898 1.2188-0.78906 0.27734-1.5117 0.55078-2.25 0.85938-1.2266 0.50391-2.4414 1.0547-3.6367 1.6289-0.66016 0.31641-1.3242 0.60547-1.9766 0.9375-1.4414 0.73828-2.8516 1.5742-4.2344 2.3633-0.37891 0.22656-0.78906 0.42578-1.1406 0.66016-0.50391 0.31641-0.98437 0.67578-1.4805 1.0078-1.0508-2.3359-2.1953-4.6172-3.4336-6.8398-0.44141-0.78906-0.9375-1.5273-1.4023-2.2969-0.98438-1.6367-1.9922-3.2578-3.0859-4.8242-0.59766-0.86719-1.2422-1.6914-1.8828-2.5352-1.0547-1.4023-2.1328-2.7773-3.2734-4.1172-0.70703-0.83594-1.4414-1.6523-2.1875-2.457-1.1641-1.2695-2.3672-2.5-3.6055-3.6914-0.78906-0.78906-1.5742-1.5117-2.3633-2.2344-1.3242-1.1875-2.6992-2.3125-4.0938-3.418-0.78906-0.62891-1.5742-1.2812-2.3633-1.8906-1.6289-1.1953-3.3203-2.3125-5.0391-3.3945-0.65234-0.41016-1.2656-0.86719-1.9297-1.2578-2.3633-1.3867-4.7227-2.6758-7.1641-3.8477 0.125-0.14844 0.26953-0.28516 0.39453-0.42578h0.003906c0.84766-0.96484 1.7734-1.8594 2.7695-2.668 0.28516-0.23438 0.56641-0.47266 0.86719-0.69922v-0.003907c1.1953-0.91016 2.4766-1.6992 3.8242-2.3594 0.15625-0.078125 0.33203-0.125 0.48828-0.19531v-0.003906c1.2383-0.54688 2.5195-0.98828 3.8359-1.3125 0.38672-0.10156 0.78906-0.1875 1.1719-0.26953 1.5078-0.30469 3.043-0.45703 4.582-0.46484 3.8164 0.003907 7.4805-1.5117 10.18-4.2109 2.6992-2.6992 4.2148-6.3594 4.2148-10.18 0-3.8164-1.5156-7.4766-4.2148-10.176l-4.6133-4.6133c-1.2109-1.2031-2.2969-2.5195-3.2461-3.9375-0.16406-0.25-0.26953-0.54297-0.43359-0.78906v0.003907c-0.72656-1.1836-1.3594-2.4219-1.8867-3.7109-0.046875-0.10938-0.0625-0.22656-0.10156-0.33984v0.003906c-2.3203-5.9727-2.3203-12.598 0-18.57 0.039063-0.10938 0.054688-0.22656 0.10156-0.33203 0.53906-1.2734 1.1875-2.5039 1.9297-3.6758 0.15625-0.25 0.25-0.53516 0.41797-0.78906l-0.003906 0.003906c4.7227-7.1445 12.711-11.441 21.273-11.449zm5.5664 139.55 0.14844-0.125c2.1562-1.6562 4.4375-3.1484 6.8164-4.4688 0.38672-0.21094 0.78906-0.44141 1.1484-0.64453v-0.003906c2.3164-1.2188 4.7148-2.2695 7.1797-3.1484 0.44922-0.15625 0.89844-0.30859 1.3477-0.45703 2.5039-0.83594 5.0703-1.4922 7.6719-1.957 0.36328-0.0625 0.73047-0.10156 1.1016-0.15625l0.003907-0.003906c15.895-2.5625 32.117 2 44.344 12.473 12.23 10.477 19.23 25.805 19.133 41.91h-94.461v-0.21094c0.47266-0.62891 0.78906-1.3242 1.2422-1.9766 0.45703-0.65234 1.0156-1.5273 1.4648-2.3633 0.66016-1.1992 1.2617-2.4297 1.793-3.6914 0.34766-0.78906 0.72266-1.5742 1.0156-2.3633 0.48828-1.4141 0.89062-2.8516 1.2148-4.3125 0.16406-0.69922 0.40234-1.3867 0.51953-2.0938 0.39844-2.1797 0.60547-4.3906 0.62109-6.6055-0.003906-6.668-0.77734-13.309-2.3086-19.797zm-107.91-90.406c3.8203 0 7.4805-1.5156 10.18-4.2148 2.7031-2.6992 4.2188-6.3594 4.2188-10.18 0-3.8164-1.5195-7.4766-4.2188-10.176l-0.67578-0.67578c-4.9102-5.0703-6.7812-12.355-4.918-19.16 1.8594-6.8086 7.1797-12.125 13.984-13.988 6.8086-1.8633 14.094 0.007812 19.16 4.918 2.7773 2.7695 6.5352 4.3281 10.457 4.3281s7.6797-1.5586 10.453-4.3281c2.7734-2.7734 4.3359-6.5312 4.3359-10.453v-6.9219c0-5.625 3.0039-10.82 7.875-13.633 4.8711-2.8125 10.871-2.8125 15.742 0 4.8711 2.8125 7.8711 8.0078 7.8711 13.633v6.707h-0.13281c-0.22656 0.046875-0.44922 0.13281-0.67578 0.17969v0.003906c-2.1484 0.46484-4.2539 1.1016-6.2969 1.9023-0.68359 0.26953-1.3477 0.58203-2.0156 0.88281-1.6289 0.73438-3.207 1.5703-4.7266 2.5117-0.61328 0.37891-1.2266 0.73047-1.8203 1.1484h0.003906c-10.141 6.8906-16.656 17.965-17.758 30.176-1.1016 12.207 3.3242 24.27 12.066 32.863l2.4336 2.4336c-1.7266 0.14844-3.4414 0.41406-5.1328 0.78906-0.53516 0.10938-1.0469 0.27734-1.5742 0.41016-1.1406 0.29297-2.2578 0.61328-3.3633 1-0.58984 0.20312-1.1562 0.44141-1.7305 0.67578-1.0117 0.41406-2.0078 0.87109-2.9844 1.3711-0.55078 0.28516-1.1016 0.56641-1.6367 0.875-0.99219 0.57422-1.9453 1.1953-2.8906 1.8594-0.44922 0.31641-0.90625 0.59766-1.332 0.92969l0.003906-0.007813c-1.2383 0.94141-2.4141 1.957-3.5273 3.0391-0.09375 0.09375-0.19531 0.16406-0.29297 0.26172-1.2031 1.2031-2.3281 2.4883-3.3672 3.8398-0.30078 0.39453-0.56641 0.78906-0.85156 1.2188-0.51953 0.73047-1.0703 1.4336-1.5742 2.2031h-0.14844v0.003906c-3.1445-0.80078-6.3281-1.4258-9.543-1.8672-0.78906-0.10938-1.5742-0.21094-2.3633-0.30078l0.003906 0.003906c-3.1914-0.39844-6.4062-0.61719-9.6211-0.64844h-15.742c-1.8047 0.015626-3.6016 0.15234-5.3867 0.41016-0.55078 0.078125-1.0938 0.19531-1.6367 0.29297-1.25 0.22656-2.4805 0.50391-3.6992 0.85937-0.58203 0.16406-1.1484 0.33203-1.7227 0.52734v-0.003906c-1.2773 0.43359-2.5312 0.93359-3.7578 1.4961-0.41797 0.1875-0.84375 0.34766-1.25 0.55078-0.11719 0.054687-0.24219 0.09375-0.35547 0.15625v0.003906c-3.6875-2.957-5.8281-7.4375-5.8086-12.164 0-4.1758 1.6602-8.1797 4.6094-11.133 2.9531-2.9531 6.957-4.6094 11.133-4.6094zm-15.742 62.973c0.015625-6.2578 2.5117-12.254 6.9336-16.68 4.4258-4.4258 10.426-6.918 16.684-6.9336h15.742c7.8789 0.011719 15.699 1.3438 23.137 3.9336h0.085937c18.66 6.4883 33.777 20.449 41.723 38.535 1.1328 2.5898 2.1055 5.25 2.9219 7.957v0.039062c1.9805 6.6133 2.9883 13.48 2.9805 20.383-0.019531 5.6875-2.1211 11.172-5.9023 15.422-3.1055 3.5742-7.2227 6.1211-11.809 7.3047h-0.039063c-1.9102 0.54688-3.8789 0.84375-5.8633 0.89062h-15.746c-18.785-0.023438-36.793-7.4922-50.074-20.777-13.281-13.281-20.754-31.289-20.773-50.074zm440.83 291.27h-440.83v-157.44h440.83zm0-204.67v31.488h-440.83v-31.488z"/>
  <path d="m533.82 321.28h15.742v15.742h-15.742z"/>
  <path d="m321.28 274.05c0-5.625 3-10.824 7.8711-13.637 4.875-2.8125 10.875-2.8125 15.746 0 4.8711 2.8125 7.8711 8.0117 7.8711 13.637v7.8711h15.742l0.003907-7.8711c0-11.25-6.0039-21.645-15.746-27.27s-21.746-5.625-31.488 0c-9.7422 5.625-15.742 16.02-15.742 27.27v7.8711h15.742z"/>
  <path d="m415.74 289.79v-15.742c-10.434 0.011719-20.438 4.1641-27.816 11.543-7.3789 7.3789-11.531 17.383-11.543 27.816h15.742c0-6.2617 2.4883-12.27 6.918-16.699 4.4297-4.4297 10.438-6.918 16.699-6.918z"/>
 </g>
</svg>