<?xml version="1.0" encoding="UTF-8"?>
<!-- The Best Svg Icon site in the world: iconSvg.co, Visit us! https://iconsvg.co -->
<svg fill="#000000" width="800px" height="800px" version="1.1" viewBox="144 144 512 512" xmlns="http://www.w3.org/2000/svg">
 <g>
  <path d="m307.25 323.72h185.5c8.918 0 16.121-7.1055 16.121-15.871 0-8.7656-7.2031-15.922-16.121-15.922h-185.5c-8.918 0-16.121 7.1523-16.121 15.922 0 8.7656 7.2031 15.871 16.121 15.871z"/>
  <path d="m456.98 340.6c0.050781-3.0742 0.10156-5.5938 0.10156-8.0625l-0.050781-1.2578h-114.11v10.578l0.050781 6.1484c0 42.117 25.543 76.43 56.98 76.43 31.387 0 56.98-34.309 56.98-76.43 0-2.5195 0-4.9844 0.050781-7.4062z"/>
  <path d="m336.27 242.25h127.46v23.477h-127.46z"/>
  <path d="m463.73 230.67c0-11.992-11.84-22.168-26.953-23.277-1.0078-0.046875-2.0664-0.097656-3.0742-0.097656-9.2695 0-17.938 3.1758-23.73 8.7148-2.4688 2.418-6.0977 3.7773-9.9766 3.7773s-7.5078-1.4102-9.9766-3.7773c-5.7891-5.543-14.457-8.7148-23.777-8.7148-1.0078 0-2.0156 0.050781-3.0234 0.10156-15.113 1.1094-26.953 11.285-26.953 23.277v4.0312h127.46z"/>
  <path d="m336.27 273.29h127.46v10.984h-127.46z"/>
  <path d="m429.72 422.47c-9.3203 6.2969-19.348 9.5234-29.773 9.5234-10.43 0-20.402-3.1758-29.723-9.5234l-0.70703-0.45312-1.0078 0.70312-14.41 5.793v39.551h91.793v-39.551l-14.207-5.6406-1.2578-0.90625z"/>
  <path d="m264.62 478.79v113.91h38.844v-161.82l-1.6133 0.40234c-21.914 5.5938-37.23 25.141-37.23 47.508z"/>
  <path d="m498.09 431.29-1.5625-0.40234v161.82h38.844v-113.91c0-22.367-15.316-41.914-37.281-47.508z"/>
  <path d="m498.8 393.9c-0.050781-4.1836-2.1172-6.8516-4.5859-10.027-2.9727-3.7773-6.3477-8.1094-5.2891-14.863 0.80469-5.3906 3.5781-8.9688 5.8438-11.84 2.3164-3.0234 3.7773-5.0391 4.0312-8.1094 0.50391-5.0898-2.4688-10.934-8.8164-17.281l-0.40234-0.40234-0.55469-0.10156h-24.484v3.6289c0 1.7617 0.050782 3.5273 0 5.3906-0.050781 2.7695-0.050781 5.2383-0.050781 7.707 0 26.754-9.5703 51.289-26.25 67.41l-1.4102 1.3594 13.352 5.2891 39.145 0.10156-0.20312-1.4609c-0.15234-0.85547-0.25-1.6641-0.25-2.5195-0.050782-6.75 3.0234-10.832 5.6914-14.41 2.418-3.1719 4.2852-5.6875 4.2344-9.8711z"/>
  <path d="m485.75 429.72h-32.293v42.117c0 2.0664-1.6641 3.7773-3.7773 3.7773l-99.352 0.003906c-2.1172 0-3.7773-1.7148-3.7773-3.7773v-42.117h-32.293c-0.50391 0-3.2227 0.10156-3.2227 0.10156l-0.003906 162.88h177.95v-80.762c-0.050781-0.50391-0.050781-0.85547 0-1.2109v-46.297l-0.050781-0.70703c-0.050781-0.45312-0.10156-0.90625-0.050781-1.3594 0-0.35156 0.050781-0.70703 0.10156-1.0078v-31.539l-1.2109-0.050781c-0.95703-0.050782-1.4609-0.050782-2.0156-0.050782zm-61.715 136.73h-48.062c-10.227 0-18.59-8.3125-18.59-18.59v-19.75h85.242v19.75c0 10.277-8.3633 18.59-18.59 18.59z"/>
  <path d="m314 420.7-0.15234 1.4609h35.52l13.703-5.3398-1.4102-1.3594c-16.477-15.871-26.25-41.109-26.25-67.461l-0.050781-6.0469c0-2.5703 0-4.9883 0.050781-7.4062l0.050782-3.2734h-21.965l-0.50391 0.50391-0.10156 0.25391c-6.1484 6.0977-9.1172 11.891-8.6641 16.977 0.30078 3.2734 1.9648 5.4414 4.082 8.1602 2.2148 2.8711 4.9883 6.4492 5.8438 11.789 1.0078 6.8008-2.3672 11.133-5.3398 14.914-2.4219 3.1758-4.5391 5.8438-4.5391 9.9766-0.050782 4.2305 1.8125 6.75 4.1836 9.9258 2.5703 3.375 5.793 7.6562 5.7422 14.359 0 0.85547-0.050781 1.7109-0.19922 2.5664z"/>
 </g>
</svg>