<?xml version="1.0" encoding="UTF-8"?>
<!-- The Best Svg Icon site in the world: iconSvg.co, Visit us! https://iconsvg.co -->
<svg fill="#000000" width="800px" height="800px" version="1.1" viewBox="144 144 512 512" xmlns="http://www.w3.org/2000/svg">
 <g>
  <path d="m265.04 445.05c-15.223 0-27.609-12.387-27.609-27.605s12.387-27.605 27.609-27.605 27.609 12.387 27.609 27.605-12.387 27.605-27.609 27.605zm0-37.645c-5.5352 0-10.039 4.5039-10.039 10.039 0 5.5312 4.5039 10.039 10.039 10.039s10.039-4.5078 10.039-10.039c0-5.5352-4.5039-10.039-10.039-10.039z"/>
  <path d="m273.61 385.99c-0.70312 0-1.4062-0.085938-2.1211-0.26172-4.707-1.168-7.5781-5.9219-6.4141-10.641 3.2383-13.074 4.4062-21.555 3.5664-25.898-0.3125-1.6289-0.46484-2.3828-4.2812-4.2891-6.4727-3.2266-14.203-1.8086-18.496 1.2656-2.8242 2.0352-4.0664 4.5312-3.6641 7.4297 0.65234 4.8047-2.7109 9.2344-7.5156 9.8867-4.8086 0.65234-9.2383-2.7109-9.8906-7.5156-1.293-9.4492 2.6602-18.23 10.828-24.09 10.316-7.3906 25.012-8.4844 36.582-2.7109 17.02 8.4805 16.816 22.32 9.9258 50.125-0.98828 4.0039-4.5781 6.6758-8.5195 6.6758z"/>
  <path d="m195 422.22c-1.1016 0-2.2344-0.21484-3.3125-0.65234-8.8203-3.6016-14.457-11.418-15.445-21.43-1.2461-12.625 5.1562-25.898 15.938-33.027 15.859-10.488 27.746-3.3984 48.387 16.465 3.5 3.3594 3.6016 8.918 0.23828 12.422-3.3633 3.4844-8.9219 3.5977-12.422 0.23828-9.7148-9.3477-16.465-14.594-20.656-16.039-1.582-0.53906-2.2969-0.78906-5.8594 1.5703-6.0391 3.9883-8.6719 11.395-8.1445 16.648 0.33594 3.4648 1.8945 5.7852 4.6055 6.8906 4.4922 1.832 6.6484 6.9648 4.8047 11.457-1.3945 3.3984-4.668 5.4688-8.1328 5.4688z"/>
  <path d="m216.93 488.21c-3.7305 0-7.543-0.83984-11.297-2.5352-11.559-5.2305-19.852-17.414-20.641-30.312-1.1562-18.984 10.93-25.723 38.449-33.664 4.668-1.3438 9.5234 1.3438 10.879 6.0078 1.3438 4.6562-1.3438 9.5234-6.0117 10.879-12.949 3.7422-20.867 6.9648-24.219 9.8633-1.2539 1.0898-1.832 1.5938-1.582 5.8477 0.44141 7.2266 5.5352 13.199 10.355 15.383 3.1719 1.4297 5.9492 1.2539 8.2695-0.53906 3.8281-2.9727 9.3477-2.2734 12.324 1.5547 2.9727 3.8281 2.2695 9.3477-1.5586 12.32-4.4531 3.4531-9.6133 5.207-14.984 5.207z"/>
  <path d="m273.84 509.38c-5.5078 0-11.031-1.2188-15.977-3.6758-17.016-8.4805-16.816-22.32-9.9258-50.125 1.168-4.707 5.9375-7.5781 10.641-6.4141 4.707 1.168 7.582 5.9375 6.4141 10.641-3.2383 13.074-4.4062 21.555-3.5625 25.898 0.3125 1.6445 0.46484 2.3828 4.2773 4.2891 6.4766 3.2266 14.207 1.8086 18.5-1.2656 2.8203-2.0312 4.0625-4.5312 3.6641-7.4297-0.65234-4.8047 2.707-9.2344 7.5156-9.8867 4.8047-0.65234 9.2344 2.7109 9.8867 7.5156 1.293 9.4492-2.6602 18.23-10.828 24.09-5.8984 4.2305-13.227 6.4023-20.594 6.4023z"/>
  <path d="m323.84 472.62c-10.062 0-20.129-7.6172-34.332-21.305-3.5-3.3633-3.6016-8.9219-0.23828-12.422 3.3633-3.4883 8.9219-3.6016 12.422-0.23828 9.7148 9.3477 16.465 14.59 20.656 16.035 1.582 0.53906 2.2969 0.78906 5.8594-1.5703 6.0391-3.9883 8.6719-11.395 8.1445-16.648-0.33594-3.4648-1.8945-5.7852-4.6055-6.8906-4.4922-1.832-6.6484-6.9648-4.8047-11.453 1.832-4.4922 6.9648-6.6523 11.457-4.8086 8.8359 3.6016 14.457 11.418 15.449 21.434 1.2422 12.621-5.1602 25.895-15.938 33.023-4.9453 3.2734-9.5 4.832-14.055 4.832z"/>
  <path d="m304.16 413.54c-3.8164 0-7.3281-2.5078-8.4336-6.3477-1.3438-4.6562 1.3438-9.5234 6.0117-10.879 12.949-3.7383 20.867-6.9648 24.219-9.8633 1.2539-1.0898 1.832-1.5938 1.582-5.8477-0.44141-7.2266-5.5352-13.199-10.355-15.383-3.1719-1.4297-5.9609-1.2539-8.2695 0.53906-3.8398 2.9766-9.3477 2.2734-12.32-1.5547-2.9766-3.8281-2.2734-9.3477 1.5547-12.32 7.543-5.8477 17.117-6.8125 26.277-2.6602 11.559 5.2305 19.855 17.414 20.645 30.312 1.1523 18.973-10.93 25.723-38.453 33.664-0.8125 0.23828-1.6289 0.35156-2.4336 0.35156z"/>
  <path d="m377.49 295.66c-15.223 0-27.609-12.387-27.609-27.605s12.387-27.605 27.609-27.605c15.223 0 27.609 12.387 27.609 27.605s-12.387 27.605-27.609 27.605zm0-37.645c-5.5352 0-10.039 4.5039-10.039 10.039 0 5.5312 4.5039 10.039 10.039 10.039 5.5352 0 10.039-4.5078 10.039-10.039 0-5.5352-4.5039-10.039-10.039-10.039z"/>
  <path d="m386.06 236.59c-0.70312 0-1.4062-0.089844-2.1211-0.26562-4.707-1.1641-7.5781-5.9219-6.4141-10.641 3.2383-13.07 4.4062-21.555 3.5664-25.895-0.31641-1.6445-0.46484-2.3867-4.2812-4.293-6.4766-3.2227-14.203-1.8047-18.496 1.2695-2.8242 2.0312-4.0664 4.5273-3.6641 7.4258 0.65234 4.8047-2.7109 9.2344-7.5195 9.8867-4.8047 0.66797-9.2344-2.707-9.8867-7.5156-1.293-9.4453 2.6602-18.23 10.844-24.09 10.312-7.3906 25.008-8.4805 36.578-2.7109 17.02 8.4844 16.816 22.324 9.9258 50.129-0.98828 4-4.5781 6.6719-8.5195 6.6719z"/>
  <path d="m307.45 272.82c-1.1016 0-2.2344-0.21094-3.3125-0.65234-8.8203-3.6016-14.457-11.418-15.449-21.43-1.2422-12.621 5.1602-25.898 15.938-33.023 15.863-10.492 27.746-3.4023 48.391 16.461 3.5 3.3633 3.6016 8.9219 0.23828 12.422-3.3633 3.4883-8.9219 3.6016-12.422 0.23828-9.7148-9.3477-16.465-14.594-20.656-16.035-1.582-0.53906-2.2969-0.78906-5.8594 1.5664-6.0391 3.9922-8.6719 11.395-8.1445 16.652 0.33594 3.4609 1.8945 5.7852 4.6055 6.8867 4.4922 1.832 6.6484 6.9648 4.8047 11.457-1.3945 3.3984-4.668 5.4688-8.1328 5.4688z"/>
  <path d="m329.39 338.82c-3.7305 0-7.543-0.83984-11.297-2.5352-11.559-5.2305-19.852-17.414-20.645-30.312-1.1523-18.984 10.934-25.723 38.453-33.664 4.668-1.3438 9.5234 1.3398 10.879 6.0078 1.3438 4.6562-1.3438 9.5234-6.0117 10.879-12.949 3.7422-20.867 6.9648-24.219 9.8633-1.2539 1.0898-1.832 1.5938-1.582 5.8477 0.44141 7.2266 5.5352 13.199 10.355 15.383 3.1719 1.4414 5.9609 1.2539 8.2695-0.53906 3.8398-2.9766 9.3477-2.2734 12.324 1.5547 2.9727 3.8398 2.2695 9.3477-1.5586 12.32-4.4531 3.4531-9.6133 5.207-14.984 5.207z"/>
  <path d="m386.3 359.98c-5.5078 0-11.031-1.2188-15.977-3.6758-17.016-8.4805-16.816-22.32-9.9258-50.125 1.168-4.707 5.9375-7.582 10.641-6.4141 4.707 1.168 7.582 5.9336 6.4141 10.641-3.2383 13.074-4.4062 21.555-3.5625 25.898 0.3125 1.6445 0.46094 2.3828 4.2773 4.2891 6.4766 3.2266 14.207 1.8086 18.5-1.2656 2.8203-2.0312 4.0625-4.5312 3.6641-7.4297-0.65234-4.8047 2.707-9.2344 7.5156-9.8867 4.8047-0.65234 9.2344 2.7109 9.8867 7.5156 1.293 9.4492-2.6602 18.23-10.828 24.09-5.8984 4.2305-13.238 6.4023-20.594 6.4023z"/>
  <path d="m436.29 323.22c-10.062 0-20.129-7.6172-34.332-21.305-3.5039-3.3633-3.6016-8.9219-0.23828-12.422 3.3633-3.4883 8.9219-3.6016 12.422-0.23828 9.7148 9.3477 16.465 14.594 20.656 16.035 1.582 0.53906 2.2969 0.78906 5.8594-1.5703 6.0391-3.9883 8.6719-11.391 8.1445-16.648-0.33594-3.4648-1.8945-5.7852-4.6055-6.8867-4.4922-1.832-6.6484-6.9648-4.8047-11.457 1.832-4.4922 6.9648-6.6484 11.457-4.8047 8.8359 3.6016 14.457 11.418 15.449 21.43 1.2422 12.621-5.1602 25.898-15.938 33.023-4.9453 3.2773-9.5 4.832-14.055 4.832z"/>
  <path d="m416.62 264.13c-3.8164 0-7.332-2.5078-8.4336-6.3477-1.3438-4.6562 1.3438-9.5234 6.0117-10.879 12.949-3.7383 20.867-6.9648 24.219-9.8594 1.2539-1.0938 1.832-1.5938 1.582-5.8477-0.44141-7.2266-5.5352-13.199-10.355-15.383-3.1719-1.4336-5.9609-1.2578-8.2695 0.53906-3.8398 2.9727-9.3477 2.2695-12.32-1.5586-2.9766-3.8359-2.2734-9.3477 1.5547-12.32 7.5273-5.8477 17.117-6.8125 26.277-2.6602 11.559 5.2344 19.852 17.418 20.645 30.316 1.1523 18.984-10.93 25.719-38.453 33.664-0.8125 0.23828-1.6289 0.35156-2.4336 0.35156z"/>
  <path d="m533.86 397.27c-15.223 0-27.609-12.383-27.609-27.605 0-15.219 12.387-27.602 27.609-27.602 15.223 0 27.609 12.383 27.609 27.602 0 15.223-12.387 27.605-27.609 27.605zm0-37.641c-5.5352 0-10.039 4.5039-10.039 10.035 0 5.5352 4.5039 10.039 10.039 10.039 5.5352 0 10.039-4.5039 10.039-10.039 0-5.5312-4.5039-10.035-10.039-10.035z"/>
  <path d="m542.45 338.21c-0.70312 0-1.4062-0.089844-2.1211-0.26562-4.707-1.1641-7.582-5.9336-6.4141-10.637 3.2383-13.074 4.4062-21.559 3.5625-25.898-0.3125-1.6445-0.46484-2.3828-4.2773-4.293-6.4766-3.2227-14.207-1.8047-18.496 1.2695-2.8242 2.0312-4.0664 4.5273-3.668 7.4258 0.65625 4.8086-2.7109 9.2344-7.5156 9.8867-4.8047 0.65234-9.2344-2.707-9.8867-7.5156-1.293-9.4453 2.6602-18.23 10.84-24.09 10.316-7.3906 25.012-8.4805 36.582-2.7109 17.016 8.4844 16.816 22.324 9.9258 50.129-0.99219 4-4.5781 6.6758-8.5195 6.6758z"/>
  <path d="m463.82 374.44c-1.1016 0-2.2305-0.21094-3.3125-0.65234-8.832-3.6016-14.453-11.418-15.445-21.43-1.2422-12.621 5.1562-25.898 15.938-33.023 15.859-10.492 27.746-3.4023 48.391 16.473 3.5 3.3633 3.5977 8.9219 0.23438 12.422-3.3594 3.4883-8.9219 3.6016-12.422 0.23828-9.7109-9.3477-16.465-14.59-20.656-16.035-1.5664-0.53906-2.2969-0.78906-5.8594 1.5703-6.0352 3.9883-8.6719 11.391-8.1445 16.648 0.33984 3.4648 1.8945 5.7852 4.6055 6.8906 4.4922 1.832 6.6484 6.9609 4.8047 11.453-1.3906 3.4023-4.668 5.4727-8.1328 5.4727z"/>
  <path d="m485.76 440.44c-3.7266 0-7.543-0.84375-11.297-2.5352-11.555-5.2305-19.852-17.418-20.641-30.316-1.1562-18.98 10.93-25.719 38.449-33.664 4.6562-1.3398 9.5391 1.3438 10.879 6.0117 1.3438 4.6562-1.3398 9.5234-6.0078 10.879-12.953 3.7383-20.871 6.9648-24.223 9.8633-1.2539 1.0898-1.832 1.5938-1.5781 5.8438 0.4375 7.2305 5.5312 13.203 10.352 15.383 3.1758 1.4336 5.9492 1.2578 8.2695-0.53906 3.8398-2.9727 9.3477-2.2695 12.324 1.5586 2.9727 3.8359 2.2695 9.3477-1.5586 12.32-4.4531 3.4492-9.6094 5.207-14.98 5.207z"/>
  <path d="m542.67 461.61c-5.5078 0-11.031-1.2188-15.973-3.6797-17.02-8.4805-16.816-22.32-9.9297-50.125 1.168-4.7031 5.9375-7.5781 10.645-6.4102 4.7031 1.168 7.5781 5.9336 6.4102 10.641-3.2383 13.074-4.4023 21.555-3.5625 25.895 0.3125 1.6445 0.46484 2.3867 4.2773 4.293 6.4766 3.2227 14.207 1.8047 18.5-1.2695 2.8242-2.0312 4.0664-4.5273 3.6641-7.4258-0.65234-4.8047 2.7109-9.2344 7.5156-9.8867 4.8086-0.65234 9.2383 2.7109 9.8906 7.5156 1.293 9.4492-2.6602 18.23-10.832 24.09-5.8984 4.2305-13.238 6.3984-20.594 6.3984z"/>
  <path d="m592.67 424.84c-10.066 0-20.129-7.6172-34.336-21.305-3.5-3.3633-3.6016-8.9219-0.23828-12.422 3.3633-3.4883 8.9219-3.6016 12.422-0.23828 9.7148 9.3477 16.465 14.594 20.656 16.035 1.582 0.53906 2.2969 0.79297 5.8633-1.5664 6.0352-3.9922 8.668-11.395 8.1445-16.652-0.33984-3.4609-1.8984-5.7852-4.6055-6.8867-4.4961-1.832-6.6523-6.9648-4.8086-11.457 1.832-4.4922 6.9648-6.6484 11.457-4.8047 8.8242 3.6016 14.457 11.418 15.449 21.43 1.2422 12.621-5.1562 25.898-15.938 33.023-4.9453 3.2773-9.5 4.832-14.055 4.832z"/>
  <path d="m572.99 365.76c-3.8164 0-7.3281-2.5117-8.4336-6.3516-1.3438-4.6523 1.3438-9.5234 6.0117-10.879 12.949-3.7383 20.871-6.9609 24.219-9.8594 1.2578-1.0938 1.832-1.5938 1.582-5.8477-0.4375-7.2266-5.5352-13.199-10.352-15.383-3.1758-1.4297-5.9492-1.2539-8.2695 0.53906-3.8398 2.9727-9.3516 2.2695-12.324-1.5547-2.9766-3.8281-2.2734-9.3477 1.5547-12.324 7.543-5.8477 17.117-6.8125 26.277-2.6602 11.559 5.2344 19.855 17.418 20.633 30.316 1.1562 18.984-10.93 25.723-38.449 33.664-0.81641 0.23828-1.6328 0.35156-2.4375 0.35156z"/>
  <path d="m384.32 623.9c-4.8555 0-8.7852-3.9258-8.7852-8.7852v-235.94c0-4.8555 3.9297-8.7812 8.7852-8.7812 4.8555 0 8.7852 3.9258 8.7852 8.7812v235.93c0 4.8555-3.9297 8.7852-8.7852 8.7852z"/>
  <path d="m529.52 623.9c-4.8555 0-8.7852-3.9258-8.7852-8.7852v-130.93c0-4.8555 3.9297-8.7812 8.7852-8.7812s8.7852 3.9258 8.7852 8.7812v130.93c0 4.8594-3.9297 8.7852-8.7852 8.7852z"/>
  <path d="m268.92 623.9c-4.8555 0-8.7812-3.9258-8.7812-8.7812v-84.254c0-4.8594 3.9258-8.7852 8.7812-8.7852 4.8594 0 8.7852 3.9258 8.7852 8.7852v84.254c0 4.8555-3.9258 8.7812-8.7852 8.7812z"/>
  <path d="m552.62 623.9c-0.71484 0-1.4297-0.089844-2.1562-0.26562-4.707-1.1914-7.5547-5.957-6.375-10.664 8.7578-34.73 21.746-60.664 56.621-74.391 4.5156-1.7852 9.6133 0.4375 11.395 4.9531 1.7812 4.5195-0.44141 9.6133-4.957 11.395-24.52 9.6484-36.996 26.551-46.031 62.348-1.0039 3.9766-4.5781 6.6367-8.5078 6.6367z"/>
  <path d="m501.22 623.9c-4.207 0-7.9219-3.0234-8.6484-7.3008-7.0508-41.395-16.602-60.816-35.227-71.672-4.1914-2.4453-5.6094-7.8164-3.1719-12.008 2.4336-4.1914 7.8164-5.6094 12.008-3.1758 27.094 15.773 37.07 44.945 43.711 83.895 0.8125 4.7773-2.3984 9.3203-7.1797 10.137-0.50391 0.085937-0.99219 0.125-1.4805 0.125z"/>
  <path d="m406.07 623.9c-0.71484 0-1.4297-0.089844-2.1562-0.26562-4.707-1.1914-7.5547-5.957-6.375-10.664 3.9531-15.684 8.5195-26.664 14.809-35.609 7.3281-10.426 17.129-17.941 29.969-23 4.5156-1.7695 9.6094 0.44141 11.395 4.957 1.7812 4.5195-0.44141 9.6133-4.957 11.395-18.148 7.1367-27.41 19.762-34.172 46.547-1.0039 3.9805-4.582 6.6406-8.5117 6.6406z"/>
  <path d="m245.42 623.9c-3.9258 0-7.5039-2.6602-8.5078-6.6406-6.75-26.785-16.012-39.41-34.172-46.547-4.5156-1.7812-6.7383-6.875-4.957-11.395 1.7852-4.5156 6.8789-6.7266 11.398-4.957 29.262 11.52 38.812 34.969 44.762 58.609 1.1914 4.707-1.6719 9.4727-6.375 10.664-0.71484 0.17578-1.4453 0.26562-2.1602 0.26562z"/>
  <path d="m364.59 623.9c-3.9258 0-7.5039-2.6602-8.5078-6.6367-9.0352-35.797-21.508-52.699-46.031-62.348-4.5156-1.7812-6.7383-6.875-4.957-11.395 1.7812-4.5156 6.8789-6.7227 11.395-4.9531 34.887 13.727 47.863 39.672 56.621 74.391 1.1953 4.707-1.668 9.4727-6.375 10.664-0.71484 0.17578-1.4414 0.26562-2.1562 0.26562z"/>
 </g>
</svg>