<?xml version="1.0" encoding="UTF-8"?>
<!-- The Best Svg Icon site in the world: iconSvg.co, Visit us! https://iconsvg.co -->
<svg fill="#000000" width="800px" height="800px" version="1.1" viewBox="144 144 512 512" xmlns="http://www.w3.org/2000/svg">
 <g>
  <path d="m635.21 471.79c-6.6133-16.059-16.375-30.543-28.652-42.824-11.965-12.281-26.137-21.727-41.879-28.34l-0.003906-95.41c0-22.984-18.578-41.879-41.562-41.879h-4.0938c-16.688 0-31.172 10.078-37.473 25.504l-12.91 33.062h-28.34c-13.855 0-25.191 11.336-25.191 25.191 0 2.832 0.62891 5.668 1.5742 8.1875l-39.672 52.27h-82.812v-37.156c0-22.672-18.578-41.25-41.25-41.25-5.9844 0-10.707 4.7227-10.707 10.707s4.7227 10.707 10.707 10.707c11.02 0 20.152 9.1328 20.152 20.152v37.156h-98.559c-5.9844 0-10.707 4.7227-10.707 10.707v132.25c0 5.9844 4.7227 10.707 10.707 10.707h32.746c5.0391 35.895 35.895 63.293 73.051 63.293s67.699-27.711 73.051-63.293h67.383c14.484 36.211 49.75 62.031 91.316 62.031 54.16 0 98.242-44.398 98.242-98.559 0-54.473-44.082-98.559-98.242-98.559-29.914 0-56.68 13.539-74.625 34.637h-44.395v-39.359l38.73-50.695c2.832 0.94531 5.668 1.5742 8.8164 1.5742h30.543v22.984c-4.0938 1.2578-7.8711 2.832-11.965 4.4102-5.3516 2.2031-7.8711 8.5-5.668 13.855 2.2031 5.3516 8.5 7.8711 13.855 5.668 28.023-11.965 60.141-11.965 87.852 0 13.539 5.668 25.504 13.855 35.895 24.246s18.578 22.672 24.246 36.211c1.5742 4.0938 5.668 6.6133 9.7617 6.6133 1.2578 0 2.832-0.31641 4.0938-0.94531 5.9844-2.207 8.5039-8.5039 5.9844-13.855zm-355.19 131.3c-28.969 0-52.586-23.617-52.586-52.898 0-28.969 23.617-52.898 52.586-52.898 28.652 0 52.27 23.301 52.586 52.27v0.62891 0.62891c-0.3125 28.969-23.93 52.27-52.586 52.27zm231.44-156.18c42.508 0 77.145 34.637 77.145 77.461s-34.637 77.461-77.145 77.461c-42.508 0-77.145-34.637-77.145-77.461s34.637-77.461 77.145-77.461zm-88.48 34.637c-6.2969 12.91-9.7617 27.395-9.7617 42.824 0 5.3516 0.62891 10.391 1.2578 15.43h-61.398c-5.0391-35.895-35.895-63.293-73.051-63.293s-67.699 27.711-73.051 63.293h-22.043l-0.003906-111.15h186.73v42.195c0 5.9844 4.7227 10.707 10.707 10.707zm88.48-91.941c-6.6133 0-12.91 0.62891-19.207 1.2578v-20.152c7.8711-3.1484 14.484-9.4453 17.633-17.633l14.168-38.414c2.2031-5.3516-0.62891-11.652-6.2969-13.539-5.3516-1.8906-11.652 0.62891-13.539 6.2969l-14.168 38.414c-1.2578 3.4648-4.7227 5.9844-8.5 5.9844l-40.938-0.003907c-1.2578 0-2.2031-0.31641-2.832-1.2578-0.62891-0.62891-1.2578-1.8906-1.2578-2.832 0-2.2031 1.8906-4.0938 4.0938-4.0938h35.582c4.4102 0 8.1875-2.832 9.7617-6.9258l15.43-39.676c2.832-7.2422 9.7617-11.965 17.633-11.965h4.0938c11.336 0 20.469 9.1328 20.469 20.469v88.168c-10.398-2.8398-21.102-4.0977-32.125-4.0977z"/>
  <path d="m511.46 581.05c31.172 0 56.363-25.504 56.363-56.68 0-31.172-25.504-56.68-56.363-56.68s-56.363 25.504-56.363 56.68 25.191 56.68 56.363 56.68zm0-92.258c19.523 0 35.266 16.059 35.266 35.582 0 19.523-15.742 35.582-35.266 35.582-19.523 0-35.266-16.059-35.266-35.582 0-19.523 16.059-35.582 35.266-35.582z"/>
  <path d="m280.03 513.67c-20.152 0-36.527 16.375-36.527 36.84 0 20.152 16.375 36.84 36.527 36.84s36.527-16.375 36.527-36.84c0-20.152-16.375-36.84-36.527-36.84zm0 52.27c-8.5 0-15.43-6.9258-15.43-15.43 0-8.5 6.9258-15.43 15.43-15.43 8.5 0 15.43 6.9258 15.43 15.43 0 8.5-6.9258 15.43-15.43 15.43z"/>
  <path d="m441.88 241.3c0.62891 0 1.5742 0 2.2031-0.31641l17.32-3.7773c3.4648 6.9258 8.5 12.594 14.801 17.004 6.9258 4.7227 15.113 6.9258 23.301 6.9258 2.832 0 5.9844-0.31641 8.8164-0.94531 19.523-4.0938 33.062-21.098 34.008-39.988l16.375-3.4648c5.668-1.2578 9.4453-6.9258 8.1875-12.594s-6.9258-9.4453-12.594-8.1875l-16.375 3.4648c-3.4648-6.9258-8.5-12.594-14.801-17.004-9.4453-6.2969-21.098-8.5-32.434-5.9844-19.523 4.0938-33.062 21.098-34.008 39.988l-17.633 3.7773c-5.668 1.2578-9.4453 6.9258-8.1875 12.594 1.5703 5.0469 5.9805 8.5078 11.02 8.5078zm62.344-1.8867c-5.668 1.2578-11.336 0-16.375-3.1484-1.5742-0.94531-3.1484-2.5195-4.0938-3.7773l36.527-7.8711c-2.2031 7.2383-8.1836 13.223-16.059 14.797zm-8.8164-42.195c1.5742-0.31641 3.1484-0.62891 4.4102-0.62891 4.0938 0 8.1875 1.2578 11.652 3.4648 1.5742 0.94531 3.1484 2.5195 4.4102 3.7773l-36.527 7.8711c2.5156-6.9258 8.1836-12.91 16.055-14.484z"/>
 </g>
</svg>