<?xml version="1.0" encoding="UTF-8"?>
<!-- The Best Svg Icon site in the world: iconSvg.co, Visit us! https://iconsvg.co -->
<svg fill="#000000" width="800px" height="800px" version="1.1" viewBox="144 144 512 512" xmlns="http://www.w3.org/2000/svg">
 <g>
  <path d="m368.51 344.89c-2.8281 0-5.4336 1.5117-6.8359 3.9648-5.4336 9.5078-32.527 57.906-32.527 77.379 0 24.602 17.656 44.609 39.359 44.609 21.703 0 39.359-20.012 39.359-44.609 0-19.473-27.094-67.875-32.523-77.379-1.3984-2.4531-4.0078-3.9648-6.832-3.9648zm0 110.21c-13.02 0-23.617-12.949-23.617-28.863 0-9.7422 12.613-36.531 23.645-57.211 17.047 31.66 23.586 51.613 23.586 57.211 0 15.914-10.594 28.863-23.613 28.863z"/>
  <path d="m595.68 293.61c-1.5391-2.5664-4.3945-4.0352-7.3789-3.7969-2.9805 0.23828-5.5664 2.1445-6.6797 4.9219l-14.984 37.461-81.043 65.848-14.793-132.74c-0.33984-3.0508-2.4219-5.6211-5.3359-6.5938v-0.007813l-94.465-31.488v0.003906c-1.6133-0.53906-3.3594-0.53906-4.9766 0l-94.465 31.488v0.007813-0.003906c-2.9102 0.97266-4.9961 3.543-5.3359 6.5938l-4.4805 40.23h-37.738c-8.9102-0.035156-17.566 2.9727-24.535 8.5156-6.9727 5.5469-11.848 13.305-13.82 21.992l-28.246 122.41c-3.7773 16.363 0.11328 33.555 10.57 46.695 10.453 13.141 26.328 20.797 43.121 20.797h26.086l-2.3555 21.133v0.003907c-0.69922 6.625 1.4492 13.234 5.9023 18.188 4.5469 5.0391 11.016 7.9141 17.801 7.9102h219.97c6.7852 0.003906 13.254-2.8711 17.801-7.9102 4.4648-4.9648 6.6094-11.59 5.9062-18.227l-5.625-50.488 95.617-119.52 42.676 7.1133c3.0273 0.50391 6.0742-0.79688 7.8008-3.3359 1.7266-2.5352 1.8242-5.8477 0.24219-8.4805zm-227.16-50.629 45.953 15.316h-91.906zm-130.2 272.79v-5.5664h-27.219c-11.992 0-23.336-5.4688-30.801-14.855-7.4688-9.3867-10.246-21.668-7.5508-33.355l28.25-122.41c1.1836-5.2148 4.1055-9.8672 8.2891-13.195 4.1836-3.3242 9.375-5.1289 14.723-5.1094h35.984l-1.7539 15.742-23.035 0.003907c-5.3789-0.027344-10.605 1.7969-14.801 5.1641-4.1992 3.3633-7.1133 8.0703-8.2539 13.328l-24.488 110.21c-1.5547 6.9922 0.14844 14.312 4.6289 19.902 4.4844 5.5859 11.258 8.8359 18.422 8.8359h29.984zm-27.605-37.055c-2.3867 0-4.6445-1.082-6.1406-2.9453-1.4922-1.8633-2.0586-4.3047-1.543-6.6328l24.492-110.21v-0.003906c0.78125-3.6094 3.9883-6.1797 7.6836-6.1641h21.281l-14.039 125.95zm273.89 76.027c-1.5508 1.7305-3.7695 2.7109-6.0938 2.6914h-219.97c-2.3203 0.019531-4.543-0.96094-6.0938-2.6914-1.4766-1.6133-2.1875-3.7812-1.957-5.957l30.617-274.74h174.84l30.617 274.71c0.23828 2.1875-0.47266 4.3711-1.957 5.9922zm9.5156-80.309-6.4414-57.789 82.867-67.324 9.1016 18.203zm100.07-113.04-12.371-24.742 8.5391-21.344 30.297 50.496z"/>
 </g>
</svg>