<?xml version="1.0" encoding="UTF-8"?>
<!-- The Best Svg Icon site in the world: iconSvg.co, Visit us! https://iconsvg.co -->
<svg fill="#000000" width="800px" height="800px" version="1.1" viewBox="144 144 512 512" xmlns="http://www.w3.org/2000/svg">
 <g>
  <path d="m597.69 523.31c10.652-12.316 15.992-28.352 14.855-44.594 0-33.234-32.324-67.031-33.699-68.445-3.1484-3.0703-8.1719-3.0703-11.32 0-1.3789 1.4141-33.699 35.211-33.699 68.445-0.6875 14.105 3.125 28.062 10.887 39.855-4.3086 0.33594-8.543 0.84375-12.707 1.5195-13.926-25.883-41.477-45.91-75.562-56.535 12.312-33.066 19.812-67.727 22.277-102.92 0.003906-14.336-3.9102-28.402-11.32-40.676-7.4102-12.273-18.035-22.285-30.723-28.957 11.844-6.8203 21.773-16.523 28.863-28.207 18.934-32.738 5.5117-74.902 4.9219-76.68-1.2461-3.8242-5.1758-6.0898-9.1094-5.2617-11.832 2.8281-23.184 7.3906-33.684 13.535-6.0234-10.574-13.578-20.199-22.426-28.555-2.9883-2.6641-7.5-2.6641-10.488 0-8.8438 8.3555-16.402 17.98-22.426 28.555-10.5-6.1445-21.852-10.707-33.684-13.535-3.9336-0.82812-7.8594 1.4375-9.1094 5.2617-0.57422 1.7773-14.012 43.941 4.9219 76.672 7.082 11.684 17.008 21.383 28.852 28.199-12.688 6.6758-23.309 16.695-30.715 28.973-7.4102 12.273-11.32 26.34-11.316 40.676 2.4648 35.199 9.9688 69.863 22.285 102.93-28.195 7.8398-52.996 24.809-70.516 48.254-4.0859-0.58984-8.2266-0.98437-12.383-1.25 9.2109-14.129 13.883-30.738 13.383-47.594 0-33.234-32.324-67.031-33.699-68.445v-0.003906c-3.1523-3.0703-8.1719-3.0703-11.32 0-1.3789 1.418-33.703 35.211-33.703 68.449-0.79688 18.785 5.1953 37.227 16.887 51.953-28.859 7.6055-48.375 23.562-48.375 42.508v70.852c0 2.0859 0.83203 4.0898 2.3086 5.5664 1.4766 1.4727 3.4766 2.3047 5.5664 2.3047h456.58c2.0859 0 4.0898-0.83203 5.5664-2.3047 1.4727-1.4766 2.3047-3.4805 2.3047-5.5664v-70.852c0-14.957-15.113-27.457-38.473-34.125zm-24.504-95.629c9.6055 11.762 23.617 32.844 23.617 51.035 0 18.797-6.1172 32.512-15.742 37.344l-0.003906-21.602c0-2.0859-0.82813-4.0898-2.3047-5.5664-1.4766-1.4727-3.4805-2.3047-5.5664-2.3047-4.3477 0-7.8711 3.5234-7.8711 7.8711v21.602c-9.6289-4.832-15.742-18.547-15.742-37.344-0.003906-19.398 15.133-40.637 23.613-51.035zm-121.28-172.77c-6.5898 10.559-15.941 19.117-27.047 24.742 8.9609-13.332 13.988-28.918 14.5-44.973-0.097656-8.8477-1.7773-17.609-4.9688-25.859 7.2266-4.3672 14.926-7.8945 22.949-10.52 2.5898 12.172 5.8164 37.164-5.4336 56.609zm-51.906-71.984c7.1016 7.7734 13 16.57 17.488 26.098 3.8867 8.0039 5.9766 16.758 6.125 25.656-1.1758 17.59-8.1797 34.289-19.906 47.449-2.5039-0.10938-4.9453-0.10938-7.4141 0h-0.003907c-11.727-13.16-18.73-29.859-19.906-47.449 0.14844-8.8945 2.2344-17.652 6.1172-25.656v-0.054688c4.5-9.5078 10.398-18.285 17.5-26.043zm-51.914 71.973c-11.25-19.445-8.0234-44.445-5.4336-56.617v0.003907c8.0156 2.5781 15.711 6.0742 22.93 10.414-3.1992 8.293-4.8711 17.094-4.9453 25.98 0.50781 16.047 5.5156 31.633 14.453 44.973-11.086-5.6367-20.422-14.195-27-24.75zm-11.062 105.73c-0.011719-13.996 4.6445-27.602 13.23-38.66 8.5859-11.059 20.609-18.941 34.172-22.402 2.9961-0.74219 6.0391-1.2695 9.1094-1.5742 4.3203-0.42578 8.6719-0.42578 12.988 0 3.0117 0.29297 5.9961 0.80078 8.9375 1.5195 19.457 4.9453 35.391 18.875 42.887 37.504h-26.859c-4.3477 0-7.875 3.5234-7.875 7.8711 0 2.0859 0.83203 4.0898 2.3086 5.5664 1.4766 1.4766 3.4766 2.3047 5.5664 2.3047h30.945-0.003906c0.34766 2.6094 0.52734 5.2383 0.54687 7.8711-2.5625 33.82-9.9062 67.102-21.816 98.859-27.121-5.8789-55.188-5.8789-82.309 0-11.914-31.754-19.266-65.039-21.828-98.859zm-102.34 51.305c9.6055 11.762 23.617 32.844 23.617 51.035 0 21.324-7.3047 37.652-15.742 44.145l-0.003906-28.402c0-2.0859-0.82812-4.0898-2.3047-5.5664-1.4766-1.4766-3.4805-2.3047-5.5664-2.3047-4.3477 0-7.875 3.5234-7.875 7.8711v28.402c-8.4375-6.4961-15.742-22.828-15.742-44.145 0-19.398 15.137-40.637 23.617-51.035zm-55.105 208.47v-62.977c0-14.895 29.125-31.488 70.848-31.488 8.4023-0.003907 16.785 0.73438 25.059 2.207 3.207 0.57031 6.4375-0.89453 8.1211-3.6836 19.688-32.574 65.379-53.625 116.39-53.625 54.711 0 104.23 25.191 120.39 61.293v-0.003906c1.5117 3.3711 5.168 5.2344 8.7852 4.4805 9.3008-1.8867 18.77-2.8203 28.258-2.793 38.438 0 62.977 13.988 62.977 23.617v15.742h-86.59v15.742h86.59v31.488z"/>
  <path d="m573.18 455.1c4.3477 0 7.8711 4.3477 7.8711 7.8711 0 4.3477-3.5234 7.8711-7.8711 7.8711s-7.8711-4.3477-7.8711-7.8711c0-4.3477 3.5234-7.8711 7.8711-7.8711z"/>
  <path d="m234.69 439.36c4.3477 0 7.8711 4.3477 7.8711 7.8711 0 4.3477-3.5234 7.8711-7.8711 7.8711s-7.8711-4.3477-7.8711-7.8711c0-4.3477 3.5234-7.8711 7.8711-7.8711z"/>
  <path d="m462.98 573.18h31.488v15.742h-31.488z"/>
  <path d="m400 337.02c4.3477 0 7.8711 4.3477 7.8711 7.8711 0 4.3477-3.5234 7.8711-7.8711 7.8711s-7.8711-4.3477-7.8711-7.8711c0-4.3477 3.5234-7.8711 7.8711-7.8711z"/>
  <path d="m234.69 557.44h15.742v15.742h-15.742z"/>
  <path d="m250.43 573.18h15.742v15.742h-15.742z"/>
  <path d="m281.92 557.44h15.742v15.742h-15.742z"/>
  <path d="m344.89 573.18h15.742v15.742h-15.742z"/>
  <path d="m329.15 588.93h15.742v15.742h-15.742z"/>
  <path d="m400 510.21h-15.746v15.742h15.746v-7.8711h15.742v-15.742h-15.742z"/>
 </g>
</svg>