<?xml version="1.0" encoding="UTF-8"?>
<!-- The Best Svg Icon site in the world: iconSvg.co, Visit us! https://iconsvg.co -->
<svg fill="#000000" width="800px" height="800px" version="1.1" viewBox="144 144 512 512" xmlns="http://www.w3.org/2000/svg">
 <g>
  <path d="m451.34 229.54h-15.211c-2.4844-17.531-17.742-31.059-36.133-31.059s-33.648 13.531-36.133 31.059h-15.211c-15.609 0-28.309 11.227-28.309 25.027v0.09375h-71.492c-2.7812 0-5.0391 2.2539-5.0391 5.0391v336.79c0 2.7852 2.2539 5.0391 5.0391 5.0391h302.29c2.7812 0 5.0391-2.2539 5.0391-5.0391v-336.79c0-2.7852-2.2539-5.0391-5.0391-5.0391h-71.488v-0.09375c0-13.801-12.699-25.027-28.309-25.027zm-120.92 25.027c0-8.2461 8.1797-14.953 18.23-14.953h19.898c2.7812 0 5.0391-2.2539 5.0391-5.0391-0.003906-14.344 11.844-26.02 26.41-26.02 14.562 0 26.41 11.676 26.41 26.023 0 2.7852 2.2539 5.0391 5.0391 5.0391h19.898c10.051 0 18.23 6.707 18.23 14.953v26.996l-139.16-0.003906zm215.68 336.88h-292.21v-326.71h29.777v289.07c0 2.7852 2.2539 5.0391 5.0391 5.0391h222.58c2.7812 0 5.0391-2.2539 5.0391-5.0391l-0.003906-289.07h29.777zm-39.852-326.71v284.04l-212.5-0.003907v-284.04h26.598v21.863c0 2.7852 2.2539 5.0391 5.0391 5.0391h149.23c2.7812 0 5.0391-2.2539 5.0391-5.0391v-21.863z"/>
  <path d="m462.24 503.16h-124.48c-2.7812 0-5.0391 2.2539-5.0391 5.0391 0 2.7852 2.2539 5.0391 5.0391 5.0391h124.48c2.7812 0 5.0391-2.2539 5.0391-5.0391-0.003906-2.7852-2.2578-5.0391-5.0391-5.0391z"/>
  <path d="m462.24 458.8h-12.23c-1.4453-24.266-20.613-43.891-44.883-46.266v-16.012c9.3789-0.51953 29.641-3.043 41.691-14.945 16.062-15.863 11.371-45.02 11.164-46.254-0.33203-1.9648-1.7852-3.5469-3.7148-4.043-1.1875-0.30078-29.188-7.2734-45.414 8.7578-3.918 3.8711-6.7383 8.918-8.7617 14.344-2.0273-5.4219-4.8438-10.469-8.7656-14.344v0.003907c-16.227-16.039-44.23-9.0664-45.41-8.7617-1.9297 0.49609-3.3828 2.082-3.7148 4.043-0.20703 1.2344-4.8984 30.391 11.16 46.25 12.051 11.91 32.312 14.43 41.691 14.949v16.02c-24.195 2.4453-43.273 22.047-44.715 46.254h-12.57c-2.7812 0-5.0391 2.2539-5.0391 5.0391 0 2.7852 2.2539 5.0391 5.0391 5.0391h124.48c2.7812 0 5.0391-2.2539 5.0391-5.0391-0.007812-2.7812-2.2617-5.0352-5.043-5.0352zm-46.312-111.59v-0.003906c6.1758-6.0977 15.27-7.6055 22.75-7.6055 3.9023 0 7.3672 0.41406 9.7461 0.79688 0.61328 7.2969 0.89844 24.543-8.6914 34.012-9.3789 9.2617-26.328 11.484-34.609 12.008 0-0.28516 0.003906-0.53125 0-0.83203 0.11719-11.109 2.1328-29.809 10.805-38.375zm-64.18-6.8125c6.9531-1.1133 23.102-2.4648 32.496 6.8086v0.003906c8.668 8.5625 10.688 27.254 10.805 38.363-0.003906 0.30469 0 0.55469 0 0.83984-8.2852-0.52344-25.234-2.7461-34.613-12.012-9.5898-9.4609-9.3047-26.707-8.6875-34.004zm48.422 81.961c21.008 0 38.234 16.102 39.762 36.438h-79.523c1.5273-20.336 18.754-36.438 39.762-36.438z"/>
 </g>
</svg>