<?xml version="1.0" encoding="UTF-8"?>
<!-- The Best Svg Icon site in the world: iconSvg.co, Visit us! https://iconsvg.co -->
<svg fill="#000000" width="800px" height="800px" version="1.1" viewBox="144 144 512 512" xmlns="http://www.w3.org/2000/svg">
 <path d="m557.91 385.6c9.6289 0 23.797-1.8203 33.109-11.141 14.957-14.953 10.594-42.371 10.398-43.535-0.35156-2.125-2.0156-3.7891-4.1406-4.1406-1.1641-0.19141-28.582-4.5508-43.535 10.398-14.953 14.949-10.594 42.371-10.398 43.535 0.019531 0.125 0.089844 0.23047 0.12109 0.35938-1.7539 5.1445-9.4375 21.137-36.398 22.242v-48.652c2.9883 1.75 6.418 2.8203 10.125 2.8203 11.141 0 20.199-9.0625 20.199-20.203s-9.0586-20.199-20.199-20.199c-3.707 0-7.1406 1.0742-10.125 2.8203v-11.652c15.996-0.91016 24.32-9.2109 27.711-15.992 1.5859 0.11719 3.5 0.20703 5.6484 0.20703 9.6133 0 23.758-1.7773 33.07-10.863 15.012-14.656 10.637-41.527 10.438-42.668-0.35938-2.125-2.0312-3.7852-4.1562-4.125-1.1641-0.17969-28.531-4.4375-43.469 10.152-14.773 14.414-10.781 40.605-10.461 42.531-1.5703 3.3203-6.2383 9.793-18.781 10.68v-22.449c0-0.37891-0.13672-0.71094-0.21484-1.0625 5.5664-4.4688 21.531-18.832 21.531-36.676 0-21.145-22.469-37.457-23.422-38.137-1.7617-1.25-4.1016-1.25-5.8633 0-0.95312 0.68359-23.422 16.992-23.422 38.137 0 17.844 15.965 32.207 21.531 36.676-0.082031 0.35156-0.21484 0.68359-0.21484 1.0625v10.73c-3.1797-2.0859-6.9609-3.3203-11.039-3.3203-11.141 0-20.199 9.0586-20.199 20.199 0 11.141 9.0586 20.199 20.199 20.199 4.0742 0 7.8633-1.2344 11.039-3.3203v63.863c-27.66-1.6289-34.336-19.184-35.441-23.02 0.70703-5.3672 2.918-28.918-10.559-42.402-14.953-14.953-42.367-10.594-43.535-10.398-2.125 0.35156-3.7891 2.0156-4.1406 4.1406-0.19141 1.1602-4.5547 28.582 10.398 43.535 9.3203 9.3242 23.484 11.141 33.109 11.141 2.3984 0 4.4844-0.11719 6.1758-0.25 1.7383 4.1562 5.3203 10.516 12.078 16.113-7.8711 2.7617-13.562 10.184-13.562 18.984 0 11.141 9.0625 20.199 20.203 20.199s20.199-9.0586 20.199-20.199c0-3.0391-0.71875-5.8906-1.9258-8.4727 2.207 0.33203 4.543 0.5625 7.0078 0.69141v87.777c-15.406-1.6484-18.156-12.293-18.289-12.871-0.066406-0.29688-0.23828-0.52734-0.34766-0.80469 0.77734-6.7461 2.1523-28.676-10.672-41.492-14.949-14.957-42.367-10.594-43.535-10.398-2.125 0.35156-3.7891 2.0156-4.1406 4.1406-0.19141 1.1602-4.5547 28.582 10.398 43.535 9.3242 9.3242 23.488 11.141 33.117 11.141 2.5859 0 4.8125-0.13281 6.5586-0.28125 3.0078 6.8906 10.969 15.852 26.91 17.18v26.527c-0.62891-0.76562-1.2578-1.5352-1.9805-2.2539-14.941-14.949-42.367-10.594-43.535-10.398-2.125 0.35156-3.7891 2.0156-4.1406 4.1406-0.19141 1.1602-4.5508 28.582 10.402 43.535 9.3203 9.3203 23.484 11.141 33.109 11.141 2.3789 0 4.4531-0.10937 6.1367-0.24609v27.953l-193.39-0.015625v-67.98c1.3516-0.097656 2.6562-0.24219 3.8945-0.4375-1.043 2.4336-1.6289 5.1133-1.6289 7.9258 0 11.141 9.0586 20.199 20.199 20.199s20.199-9.0586 20.199-20.199c0-10.352-7.8555-18.816-17.906-19.973 0.94531-1.3047 1.7344-2.6094 2.3438-3.8633 1.5859 0.11719 3.4883 0.20703 5.6172 0.20703 9.6289 0 23.797-1.8203 33.117-11.141 14.957-14.953 10.594-42.371 10.398-43.535-0.35156-2.125-2.0156-3.7891-4.1406-4.1406-1.1602-0.19531-28.582-4.5508-43.535 10.398-14.828 14.82-10.672 41.867-10.414 43.465-1.5312 3.3516-6.0352 9.9102-18.148 11v-100.99c4.3477-0.15625 8.3672-0.59375 11.957-1.3555-0.42188 1.6211-0.71484 3.293-0.71484 5.043 0 11.141 9.0625 20.203 20.203 20.203s20.199-9.0625 20.199-20.203c0-8.9844-5.9297-16.523-14.055-19.141 4.2461-4.6836 6.6133-9.3672 7.8711-12.523 1.543 0.10938 3.3555 0.19141 5.3867 0.19141 9.6289 0 23.797-1.8203 33.109-11.141 14.957-14.953 10.594-42.371 10.398-43.535-0.35156-2.125-2.0156-3.7891-4.1406-4.1406-1.1602-0.19141-28.582-4.5508-43.535 10.398-14.953 14.949-10.594 42.371-10.398 43.535 0.019531 0.125 0.089844 0.23047 0.12109 0.35938-1.7539 5.1445-9.4375 21.137-36.398 22.242v-48.652c2.9883 1.75 6.418 2.8203 10.125 2.8203 11.141 0 20.199-9.0625 20.199-20.203s-9.0586-20.199-20.199-20.199c-3.707 0-7.1406 1.0742-10.125 2.8203v-10.121c15.645-1.1133 23.773-9.5117 27.102-16.355 1.5859 0.11719 3.4922 0.20703 5.6211 0.20703 9.6289 0 23.797-1.8203 33.109-11.141 14.957-14.949 10.594-42.371 10.398-43.535-0.35156-2.125-2.0156-3.7891-4.1406-4.1406-1.1523-0.19141-28.574-4.5508-43.535 10.402-14.836 14.828-10.664 41.887-10.414 43.457-1.5273 3.3516-6.0352 9.9102-18.148 11v-23.973c0-0.37891-0.13672-0.71094-0.21484-1.0625 5.5664-4.4688 21.531-18.832 21.531-36.676 0-21.145-22.469-37.457-23.422-38.137-1.7617-1.25-4.1016-1.25-5.8633 0-0.95313 0.68359-23.422 16.992-23.422 38.137 0 17.844 15.965 32.207 21.531 36.676-0.082031 0.35156-0.21484 0.68359-0.21484 1.0625v10.73c-3.1797-2.0859-6.9609-3.3203-11.039-3.3203-11.141 0-20.199 9.0586-20.199 20.199s9.0586 20.199 20.199 20.199c4.0742 0 7.8633-1.2344 11.039-3.3203v63.863c-27.66-1.6289-34.336-19.184-35.441-23.02 0.70703-5.3672 2.918-28.918-10.559-42.402-14.953-14.953-42.367-10.594-43.535-10.398-2.125 0.35156-3.7891 2.0156-4.1406 4.1406-0.19141 1.1602-4.5547 28.582 10.398 43.535 9.3203 9.3242 23.484 11.141 33.109 11.141 2.3984 0 4.4844-0.11719 6.1758-0.25 1.7383 4.1562 5.3203 10.516 12.078 16.113-7.8711 2.7617-13.562 10.184-13.562 18.984 0 11.141 9.0625 20.199 20.203 20.199s20.199-9.0586 20.199-20.199c0-3.0391-0.71875-5.8906-1.9258-8.4727 2.207 0.33203 4.543 0.5625 7.0078 0.69141v87.777c-15.383-1.6484-18.148-12.262-18.289-12.867-0.066407-0.29688-0.23828-0.53516-0.34766-0.80469 0.77734-6.7422 2.1523-28.676-10.672-41.5-14.953-14.957-42.367-10.594-43.535-10.398-2.125 0.35156-3.7891 2.0156-4.1406 4.1406-0.19141 1.1602-4.5547 28.582 10.398 43.535 9.3242 9.3242 23.488 11.141 33.117 11.141 2.5859 0 4.8125-0.13281 6.5586-0.28125 3.0078 6.8906 10.969 15.852 26.91 17.18v26.527c-0.62891-0.76562-1.2656-1.5352-1.9805-2.2539-14.941-14.949-42.367-10.594-43.535-10.398-2.125 0.35156-3.7891 2.0156-4.1406 4.1406-0.19141 1.1602-4.5508 28.582 10.402 43.535 9.3203 9.3203 23.484 11.141 33.109 11.141 2.3789 0 4.4531-0.10938 6.1367-0.24609v27.953l-90-0.003906c-2.7852 0-5.0391 2.2539-5.0391 5.0391s2.2539 5.0391 5.0391 5.0391h392.97c2.7852 0 5.0391-2.2539 5.0391-5.0391s-2.2539-5.0391-5.0391-5.0391h-89.422v-67.965c1.3516-0.097656 2.6562-0.24219 3.8945-0.4375-1.043 2.4336-1.6289 5.1133-1.6289 7.9258 0 11.141 9.0586 20.199 20.199 20.199s20.199-9.0586 20.199-20.199c0-10.352-7.8555-18.816-17.906-19.973 0.94531-1.3047 1.7344-2.6094 2.3438-3.8633 1.582 0.11719 3.4883 0.20703 5.6172 0.20703 9.6289 0 23.797-1.8203 33.117-11.141 14.957-14.953 10.594-42.371 10.398-43.535-0.35156-2.125-2.0156-3.7891-4.1406-4.1406-1.1602-0.19531-28.582-4.5508-43.535 10.398-14.828 14.82-10.672 41.867-10.414 43.465-1.5312 3.3516-6.0352 9.9102-18.148 11v-100.99c4.3477-0.15625 8.3672-0.59375 11.961-1.3555-0.42188 1.6211-0.71484 3.293-0.71484 5.043 0 11.141 9.0625 20.203 20.203 20.203 11.141 0 20.199-9.0625 20.199-20.203 0-8.9844-5.9297-16.523-14.055-19.141 4.2461-4.6836 6.6133-9.3672 7.8711-12.523 1.5352 0.10938 3.3477 0.19531 5.3828 0.19531zm-14.562-133.43c8.5547-8.3477 24.023-8.332 31.102-7.8047 0.61328 8.0469-0.089843 22.312-7.9844 30.023-8.543 8.3398-23.957 8.3086-31.066 7.8047-0.51953-6.9297-0.49609-21.781 7.9492-30.023zm-57.395 61.273c-5.5781 0-10.121-4.5391-10.121-10.121s4.5391-10.121 10.121-10.121 10.121 4.5391 10.121 10.121-4.543 10.121-10.121 10.121zm-65.117 35.352c-8.543-8.543-8.5156-23.977-7.9844-31.043 8.2617-0.63672 23.039 0.054688 31.008 8.0195 8.5391 8.543 8.5078 23.977 7.9844 31.043-8.293 0.62109-23.039-0.054687-31.008-8.0195zm50.875 63.234c-5.582 0-10.125-4.5391-10.125-10.121 0-5.582 4.5391-10.121 10.125-10.121 5.5781 0 10.121 4.5391 10.121 10.121 0 5.582-4.5391 10.121-10.121 10.121zm-3.1719 52.875c-8.2656 0.625-23.043-0.050781-31.008-8.0195-8.543-8.543-8.5156-23.977-7.9844-31.043 8.2617-0.62891 23.039 0.050782 31.008 8.0195 8.5508 8.543 8.5195 23.969 7.9844 31.043zm27.332 89.547c-7.0742 0.55078-22.48 0.53906-31.004-7.9844-8.543-8.543-8.5156-23.977-7.9922-31.043 8.2773-0.62891 23.035 0.046874 31.008 8.0195 8.5391 8.5273 8.5234 23.922 7.9883 31.008zm-159.69-22.504c0 5.5781-4.5391 10.121-10.121 10.121-5.582 0-10.121-4.5391-10.121-10.121s4.5391-10.125 10.121-10.125c5.582-0.003906 10.121 4.5391 10.121 10.125zm3.1016-64.914c8.543-8.543 23.965-8.5234 31.043-7.9844 0.63672 8.2656-0.050781 23.039-8.0195 31.008-8.543 8.5352-23.988 8.4961-31.043 7.9844-0.63672-8.2656 0.046875-23.035 8.0195-31.008zm5.8789-49.965c0 5.582-4.5391 10.125-10.121 10.125-5.582 0-10.125-4.5391-10.125-10.125 0-5.5781 4.5391-10.121 10.125-10.121 5.582-0.003906 10.121 4.5391 10.121 10.121zm12.242-72.766c8.5508-8.543 23.977-8.5234 31.043-7.9844 0.63672 8.2656-0.050781 23.039-8.0195 31.008-8.5508 8.5391-23.98 8.5156-31.043 7.9844-0.63281-8.2617 0.054688-23.039 8.0195-31.008zm-18.121-91.945c8.5469-8.5469 23.984-8.4961 31.043-7.9922 0.63672 8.2656-0.050781 23.039-8.0195 31.008-8.5508 8.5391-23.977 8.5156-31.043 7.9844-0.63672-8.2539 0.046875-23.031 8.0195-31zm-56.801 61.086c-5.5781 0-10.121-4.5391-10.121-10.121s4.5391-10.121 10.121-10.121 10.121 4.5391 10.121 10.121-4.543 10.121-10.121 10.121zm-65.117 35.352c-8.543-8.543-8.5156-23.977-7.9844-31.043 8.2656-0.63672 23.039 0.054688 31.008 8.0195 8.5391 8.543 8.5078 23.977 7.9844 31.043-8.293 0.62109-23.043-0.054687-31.008-8.0195zm50.879 63.234c-5.582 0-10.125-4.5391-10.125-10.121 0-5.582 4.5391-10.121 10.125-10.121 5.5781 0 10.121 4.5391 10.121 10.121 0 5.582-4.543 10.121-10.121 10.121zm-3.168 52.875c-8.2656 0.625-23.043-0.050781-31.008-8.0195-8.543-8.543-8.5156-23.977-7.9844-31.043 8.2617-0.62891 23.039 0.050782 31.008 8.0195 8.543 8.543 8.5117 23.969 7.9844 31.043zm27.332 89.547c-7.0781 0.55078-22.48 0.53906-31.004-7.9844-8.543-8.543-8.5156-23.977-7.9922-31.043 8.2656-0.62891 23.039 0.046874 31.008 8.0195 8.5312 8.5273 8.5156 23.922 7.9883 31.008zm21.316-227.29c5.5781 0 10.121 4.5391 10.121 10.121 0 5.582-4.5391 10.125-10.121 10.125-5.582 0-10.125-4.5391-10.125-10.125-0.003906-5.582 4.543-10.121 10.125-10.121zm-31.445-89.184c0-12.082 10.934-22.98 16.305-27.605 6.293 5.3945 16.258 16.328 16.258 27.605 0 12.066-10.898 22.938-16.277 27.578-5.3867-4.6406-16.285-15.52-16.285-27.578zm257.37 293.97c0 5.5781-4.5391 10.121-10.121 10.121-5.582 0-10.121-4.5391-10.121-10.121s4.5391-10.125 10.121-10.125c5.582-0.003906 10.121 4.5391 10.121 10.125zm3.0977-64.914c8.543-8.543 23.965-8.5234 31.043-7.9844 0.63672 8.2656-0.050781 23.039-8.0195 31.008-8.543 8.5352-23.988 8.4961-31.043 7.9844-0.63281-8.2656 0.050782-23.035 8.0195-31.008zm-25.555-139.87c5.5781 0 10.121 4.5391 10.121 10.121 0 5.582-4.5391 10.125-10.121 10.125-5.582 0-10.125-4.5391-10.125-10.125-0.003906-5.582 4.5352-10.121 10.125-10.121zm-31.445-89.184c0-12.082 10.934-22.98 16.305-27.605 6.293 5.3945 16.258 16.328 16.258 27.605 0 12.066-10.898 22.938-16.277 27.578-5.3867-4.6406-16.285-15.52-16.285-27.578zm75.125 106.32c8.543-8.543 23.973-8.5234 31.043-7.9844 0.63672 8.2656-0.050781 23.039-8.0195 31.008-8.5508 8.5391-23.988 8.5156-31.043 7.9844-0.63281-8.2617 0.054688-23.039 8.0195-31.008zm-12.242 72.766c0 5.582-4.5391 10.125-10.121 10.125-5.582 0-10.125-4.5391-10.125-10.125 0-5.5781 4.5391-10.121 10.125-10.121 5.582-0.003906 10.121 4.5391 10.121 10.121z"/>
</svg>