<?xml version="1.0" encoding="UTF-8"?>
<!-- The Best Svg Icon site in the world: iconSvg.co, Visit us! https://iconsvg.co -->
<svg width="800px" height="800px" version="1.1" viewBox="144 144 512 512" xmlns="http://www.w3.org/2000/svg">
 <defs>
  <clipPath id="a">
   <path d="m148.09 148.09h503.81v503.81h-503.81z"/>
  </clipPath>
 </defs>
 <g clip-path="url(#a)">
  <path d="m629.86 170.14c-13.52-13.625-31.738-21.559-50.922-22.184-19.18-0.625-37.875 6.1133-52.25 18.828s-23.344 30.449-25.066 49.562c-29.645-2.4648-59.391 3.3945-85.883 16.926-37.137-7.8203-74.938-12.039-112.88-12.598-113.99 0-146.03 50.305-152.88 92.734-4.7227 28.969-0.47266 51.562 12.754 66.992 13.223 15.43 32.586 22.199 58.723 22.199 22.723-0.73828 45.199-4.9062 66.676-12.359-7.8711 39.359 0.86719 74.234 24.09 97.535 18.805 18.035 44.098 27.711 70.137 26.84 9.0938-0.085937 18.16-1.0078 27.082-2.7539-12.676 39.359-16.297 76.043-6.0625 102.34 6.8477 17.082 23.145 37.707 61.875 37.707 7.1484-0.046875 14.285-0.67969 21.332-1.8867 28.664-3.8984 54.02-20.57 68.961-45.344 35.504-57.543 24.48-155 11.258-219.95 13.512-26.527 19.371-56.293 16.922-85.961 19.148-1.7812 36.891-10.809 49.605-25.238 12.711-14.426 19.43-33.164 18.785-52.383-0.64453-19.219-8.6094-37.465-22.258-51.008zm-408.4 212.94c-20.387 0-35.188-5.1953-43.926-15.742-8.7383-10.547-12.043-28.184-8.3438-51.246 7.8711-50.617 53.059-76.281 133.35-76.281 53.246 1.4062 106.12 9.3359 157.44 23.613-67.309 66.203-173.11 119.66-238.52 119.66zm193.18-57.074c14.512-10.078 28.492-20.902 41.879-32.43l49.988 49.91v-0.003907c-11.562 13.383-22.414 27.359-32.512 41.879zm48.336 75.809c-9.8359 15.281-18.902 31.047-27.16 47.234l-84.938-84.941c15.742-7.8711 31.488-17.16 47.23-27.078zm-136.98 72.188c-20.703-20.703-26.293-53.922-15.742-91.629 7.2422-2.9141 14.641-5.9844 22.043-9.3672l94.465 94.465c-3.4648 7.8711-6.6133 14.957-9.5234 22.434-37.555 10.312-70.617 4.5625-91.242-15.902zm212.94 120.21c-11.789 20-32.098 33.492-55.105 36.602-32.828 5.3516-53.531-2.5195-62.109-23.617-21.727-54.629 36.367-187.2 114.38-267.17 12.594 46.441 44.949 185.93 2.8359 254.19zm20.152-243.56c-4.5664-18.184-8.2656-30.148-8.8164-31.961v-0.003906c-1.0195-3.2031-3.6016-5.668-6.8516-6.5312-3.2344-0.87109-6.6875-0.007813-9.1289 2.2812-4.8789 4.6445-9.8398 9.5234-14.719 14.641l-48.73-48.648c5.1172-4.8789 9.9961-9.7617 14.641-14.719 2.2891-2.4453 3.1523-5.8984 2.2852-9.1328-0.86328-3.2227-3.2891-5.7969-6.457-6.8477-1.3398-0.39453-13.461-4.1719-32.117-8.8164 38.336-11.492 73.051-6.375 94.465 15.191 21.41 21.57 26.922 56.285 15.43 94.543zm20.625-71.398v-0.003906c-8.4805-28.324-30.641-50.48-58.965-58.961 1.0664-18.348 11.082-35 26.793-44.539 15.707-9.5391 35.102-10.746 51.875-3.2266 16.77 7.5195 28.77 22.805 32.098 40.879s-2.4414 36.633-15.434 49.629c-9.7539 9.6406-22.68 15.402-36.367 16.219z"/>
 </g>
</svg>