<?xml version="1.0" encoding="UTF-8"?>
<!-- The Best Svg Icon site in the world: iconSvg.co, Visit us! https://iconsvg.co -->
<svg fill="#000000" width="800px" height="800px" version="1.1" viewBox="144 144 512 512" xmlns="http://www.w3.org/2000/svg">
 <path d="m207.29 538.6v53.707h323.45v-53.707zm36.074 39.801c-7.1523 0-12.996-5.793-12.996-12.949 0-7.1523 5.8438-13 12.996-13 7.1562 0 13 5.8438 13 13s-5.8438 12.949-13 12.949zm251.3 0c-7.1055 0-12.949-5.793-12.949-12.949 0-7.1523 5.8438-13 12.949-13 7.1523 0 13 5.8438 13 13-0.003906 7.1562-5.8477 12.949-13 12.949zm-287.38-101.07v53.707h323.45v-53.707zm36.074 39.801c-7.1523 0-12.996-5.793-12.996-12.949 0-7.1523 5.8438-12.949 12.996-12.949 7.1562 0 13 5.793 13 12.949s-5.8438 12.949-13 12.949zm251.3 0c-7.1055 0-12.949-5.793-12.949-12.949 0-7.1523 5.8438-12.949 12.949-12.949 7.1523 0 13 5.793 13 12.949-0.003906 7.1562-5.8477 12.949-13 12.949zm-287.38-101.01v53.656h323.45v-53.656zm36.074 39.801c-7.1523 0-12.996-5.8438-12.996-13 0-7.1055 5.8438-12.949 12.996-12.949 7.1562 0 13 5.8438 13 12.949 0 7.1562-5.8438 13-13 13zm251.3 0c-7.1055 0-12.949-5.8438-12.949-13 0-7.1055 5.8438-12.949 12.949-12.949 7.1523 0 13 5.8438 13 12.949-0.003906 7.1562-5.8477 13-13 13zm-22.32-71.137-0.19922 2.0664c-0.35156 2.9727-0.65625 6.0469-0.95703 9.3203l-0.050781 0.60547c-0.30078 3.0742-0.60547 6.1953-0.85547 9.4727l-0.20312 2.2656 1.3594 0.050781h53.203l0.30078-0.85547c1.1094-3.0742 2.1172-6.0977 3.1211-9.0195l0.45312-1.3594zm-56.023-2.3203 0.25391 2.3672c0.40234 3.5781 0.80469 7.1523 1.2578 10.68l0.15234 1.0586c0.40234 3.1758 0.80469 6.2461 1.2578 9.3711l0.35156 2.6211h42.926l0.20312-2.6719c0.30078-3.4258 0.55469-6.75 0.85547-9.9258l0.10156-0.80469c0.35156-3.6289 0.70703-6.8516 1.0586-9.9766l0.30078-2.7227zm-4.6836 23.832c-0.55469-4.0312-1.1094-8.1094-1.6133-12.242l-0.25391-2.3164c-0.50391-4.2305-1.0078-8.4648-1.4102-12.645-0.25-2.4688-0.45312-4.7344-0.65625-6.9531 0 0-0.40234-5.0391-0.55469-6.9531l-0.050782-1.2109c-0.15234-1.8633-0.25-3.6289-0.30078-5.2891l-0.050781-1.0078c-0.10156-1.6641-0.15234-3.2227-0.15234-4.6367v-0.55469l-0.45312-0.70703c-11.082-9.875-25.34-15.316-40.203-15.316-14.309 0-28.262 5.1367-39.145 14.41-11.891 10.027-19.348 24.082-21.059 39.5-0.25391 2.168-0.35156 4.4336-0.35156 6.6484 0 1.9648 0.10156 4.1328 0.35156 6.5508 0.10156 0.60547 0.20312 1.2109 0.25391 1.8125 0.10156 0.45312 0.15234 0.90625 0.25 1.3594l0.35156 1.8125h105.4zm-42.625-51.34c-1.1602-0.050781-2.0156-0.10156-2.9219-0.10156-10.078 0-19.801 3.5781-27.406 10.078-8.8164 7.4062-14.055 17.785-14.812 29.27-0.15234 1.9648-1.8125 3.5273-3.7773 3.5273h-0.25c-2.0664-0.15234-3.6797-1.9648-3.5273-4.0312 0.90625-13.352 7.2539-25.945 17.48-34.562 8.9688-7.6094 20.402-11.84 32.242-11.84 1.1094 0 2.168 0.050781 3.2227 0.10156 1.0078 0.050781 1.9141 0.50391 2.6211 1.2578 0.65625 0.75391 0.95703 1.7617 0.90625 2.7695-0.097656 2.0195-1.7617 3.5312-3.7773 3.5312zm26.25 6.5508c-0.70703 1.0078-1.8633 1.6133-3.0742 1.6133-0.80469 0-1.5117-0.25-2.168-0.70703-1.4102-0.95703-2.8711-1.8633-4.3828-2.6719-1.8125-1.0078-2.5195-3.2734-1.5625-5.1406 0.65625-1.2109 1.9648-1.9648 3.3242-1.9648 0.65625 0 1.2578 0.15234 1.8125 0.45312 1.7617 0.90625 3.4766 1.9648 5.1406 3.125 1.7148 1.2109 2.1211 3.5781 0.91016 5.293zm-104.64 12.797c-0.65625-4.332-2.9219-8.1602-6.4492-10.73-2.8711-2.0664-6.1953-3.1719-9.6719-3.1719-0.85547 0-1.6641 0.050781-2.5195 0.15234-5.2891 0.90625-9.5234 3.8789-11.941 8.2109-1.7617 3.2227-2.418 6.8516-1.9141 10.43l4.4336 29.371h33.25zm-11.234 23.375c-0.20312 0.050781-0.40234 0.050781-0.55469 0.050781-1.8633 0-3.4766-1.4102-3.7266-3.2227l-2.4688-16.02-0.45312-0.30078c-1.0586-0.70703-1.7109-1.9141-1.7109-3.1758 0-2.1172 1.7109-3.7773 3.7773-3.7773 2.9219 0 5.2383 1.9141 5.6914 4.6836l2.6211 17.48c0.30078 2.0664-1.1094 3.9805-3.1758 4.2812zm-28.719-17.379c-0.19922-1.2578-0.25-2.4688-0.25-3.7266 0-0.25 0.10156-1.2109 0.10156-1.2109 0.050781-0.80469 0.10156-1.6641 0.25-2.4688 0.050781-0.30078 0.30078-1.4102 0.30078-1.4102 0.15234-0.75391 0.35156-1.4609 0.55469-2.2148 0.15234-0.40234 0.35156-0.80469 0.50391-1.2578 0 0 0.40234-1.1602 0.50391-1.3594l0.20313-0.35156-2.5195-16.625c-0.25391-1.4609-0.70703-2.8711-1.2578-4.1836-2.5703-5.8945-8.4141-9.7227-14.863-9.7227-0.80859 0-1.6133 0.050781-2.4688 0.20312l-8.6641 1.3086c-4.3828 0.65625-8.1602 2.9727-10.781 6.4492-2.5703 3.5273-3.6289 7.8086-2.9727 12.09l7.9609 52.75h37.633zm-12.492-13.25c-0.19922 0.050781-0.40234 0.050781-0.60547 0.050781-1.8125 0-3.4258-1.3594-3.7266-3.2227l-1.4102-9.4219-5.4414 0.80469-1.1094-7.457c7.1562-1.1094 7.7578-1.2109 8.0625-1.2109 2.9219 0 5.2383 1.9648 5.6406 4.6836l1.7656 11.488c0.30078 2.0664-1.1133 3.9805-3.1758 4.2852zm241.43-23.379s-0.75391 2.4688-0.90625 3.2227c-0.45312 1.5117-0.80469 2.9727-1.1602 4.4844-0.30078 1.3594-0.65625 2.9219-0.95703 4.5859-0.40234 2.0664-0.70312 3.8281-1.0078 5.6914l-0.10156 0.60547c-0.35156 2.0664-0.65625 4.0312-0.95703 6.0977l-0.10156 0.80469c-0.30078 2.168-0.65625 4.4336-0.95703 6.8008l-0.15234 1.1094 1.1094 0.45312 56.477 12.594 0.35156-1.1094c3.2734-9.9766 5.6406-18.34 6.9531-24.133 0.50391-2.2656 0.90625-4.4844 1.2578-6.6016l0.15234-1.1602zm-168.43-31.438c-6.0977-6.0977-14.156-9.4219-22.672-9.4219-17.734 0-32.145 14.359-32.145 32.094v8.1602l0.10156 0.55469c0.65625 2.0156 1.0586 3.4766 1.3086 4.8359l1.4609 9.6211 1.6133-1.1094c0.30078-0.20312 0.60547-0.40234 0.90625-0.55469l1.3086-0.80469c0.35156-0.20312 0.75391-0.35156 1.2109-0.55469l1.2109-0.55469c0.50391-0.20312 1.0078-0.35156 1.5117-0.50391l0.65625-0.20312c1.3086-0.40234 2.168-0.55469 3.0742-0.70703 1.5625-0.20313 2.668-0.25 3.7773-0.25h0.30078c0.90625 0.050781 1.2578 0.10156 1.6641 0.15234 1.2109 0.10156 2.1172 0.25 3.0234 0.45312 0.50391 0.10156 1.0078 0.20312 1.5117 0.35156 0.90625 0.25391 1.8125 0.60547 2.668 0.95703 0 0 1.0586 0.40234 1.3086 0.55469 1.4102 0.65625 2.5703 1.4102 3.6797 2.168 5.1367 3.7773 8.5156 9.3711 9.4727 15.719l0.45312 3.0234 2.418 0.15234 0.20312-0.50391c0.90625-2.7695 1.8633-5.2383 2.9727-7.6055l0.55469-1.0078c1.0586-2.2148 2.2148-4.2812 3.4258-6.1953 0.30078-0.50391 0.65625-1.0078 1.0078-1.5117l0.55469-0.75391c1.0078-1.5117 2.1172-3.0234 3.2734-4.4336 0.65625-0.80469 1.3086-1.6133 1.9648-2.3672 1.2578-1.3594 2.5195-2.6719 3.8281-3.9297l0.70703-0.70703c0.20312-0.25 0.40234-0.45312 0.65625-0.70703l0.40234-0.35156v-11.387c-0.003906-8.6133-3.3281-16.625-9.375-22.672zm-5.2383 26.449c-2.0664 0-3.7773-1.7109-3.7773-3.7773 0-3.6758-1.4102-7.1055-3.9805-9.6719-2.6211-2.6211-6.0469-4.082-9.6719-4.082-2.1172 0-3.7773-1.6641-3.7773-3.7773 0-2.0664 1.6641-3.7773 3.7773-3.7773 5.6445 0 10.984 2.2148 15.012 6.2461 4.0312 4.0312 6.1992 9.3711 6.1992 15.062-0.003906 2.0664-1.6641 3.7773-3.7812 3.7773zm165.15 5.293-1.1602-0.20312h-55.52l-0.10156 1.1602c-0.10156 1.8125-0.20313 3.6758-0.20313 5.5938 0 1.6133 0.050782 3.375 0.10156 5.2891 0 0 0.25 4.6836 0.30078 6.0977 0 0 0.40234 5.4922 0.50391 6.9531l0.55469 6.0469h50.43l0.15234-1.0586c0.30078-2.3672 0.60547-4.5352 0.90625-6.6484l1.1602-7.4062c0.30078-1.7617 0.60547-3.4766 0.90625-5.0391l0.10156-0.55469c0.30078-1.6133 0.60547-3.125 0.95703-4.4844 0.30078-1.4102 0.60547-2.7188 0.95703-3.9805l0.050782-0.20313zm54.664-22.926c-2.6719-1.4102-5.6406-2.5195-8.8164-3.1719-2.8711-0.65625-5.5938-0.95703-8.1602-0.95703h-1.1602c-10.934 0.35156-19.043 6.2969-24.637 18.188l-0.70312 1.4102 57.988 13.047v-1.6133c-0.10547-13.047-4.9414-22.066-14.512-26.902zm-56.074 13.605c-2.7695-11.539-8.7656-18.391-18.34-20.859-1.3086-0.30078-2.6719-0.60547-4.1328-0.75391-1.4609-0.20312-2.9219-0.30078-4.4336-0.30078-2.9727 0-5.9453 0.35156-8.6133 1.0078-9.5742 2.4688-15.566 9.3203-18.34 20.906l-0.35156 1.5625h54.562zm121.67-103.28c-0.70312-0.70703-1.6641-1.1602-2.5703-1.1602-1.3594 0.050781-2.5195 0.60547-3.375 1.6133l-57.434 58.289c-0.70703 0.70703-1.6641 1.1094-2.6719 1.1094-0.25 0-0.50391-0.050781-0.80469-0.10156-1.2578-0.25391-2.2656-1.1094-2.7227-2.3164l-29.922-77.637c-0.45312-1.5117-1.2109-2.5195-2.2656-3.0742-0.50391-0.25-1.1094-0.40234-1.6641-0.40234-0.50391 0-0.95703 0.10156-1.4102 0.25391-2.5703 1.0078-3.9297 4.1797-3.1211 7.0547l8.2109 28.617 18.742 65.746 0.90625 0.050781 2.2148 0.25391c1.6641 0.20312 3.375 0.45312 5.1406 0.85547 1.6641 0.35156 3.2734 0.85547 4.8867 1.3594l2.2148 0.80469 0.85547 0.35156 64.637-73.91c1.9688-2.2695 2.0156-5.7422 0.15234-7.7578zm-110.94 0.75391-35.52 51.488c-0.70312 1.0078-1.8633 1.6133-3.2227 1.6133-1.2109 0-2.3672-0.65625-3.0742-1.7109l-40.555-62.523c-0.65625-1.2109-1.4609-1.9141-2.4688-2.2148-0.30078-0.050781-0.55469-0.10156-0.80469-0.10156-0.65625 0-1.2578 0.20312-1.8633 0.55469-1.9141 1.3086-2.5195 4.3828-1.2578 6.6992l43.629 79.902 0.85547-0.15234 0.70703-0.050782c1.6641-0.20312 3.375-0.30078 5.0898-0.35156l0.75391-0.050781c2.1172 0 4.1328 0.15234 6.2461 0.45312l0.85547 0.10156 0.95703-0.70703 33.152-60.809z"/>
</svg>