<?xml version="1.0" encoding="UTF-8"?>
<!-- The Best Svg Icon site in the world: iconSvg.co, Visit us! https://iconsvg.co -->
<svg fill="#000000" width="800px" height="800px" version="1.1" viewBox="144 144 512 512" xmlns="http://www.w3.org/2000/svg">
 <path d="m624.19 316.72h-448.39c-8.3359 0-15.113 6.7812-15.113 15.113v0.71484c0 8.3359 6.7812 15.113 15.113 15.113h55v25.898c-5.3906 1.2031-10.02 4.3164-13.277 8.5547-4.2383-5.5195-10.832-9.1445-18.316-9.1445-12.773 0-23.168 10.395-23.168 23.168 0 11.758 8.8359 21.391 20.199 22.867-1.207 2.8008-1.8828 5.8828-1.8828 9.1211 0 11.758 8.8359 21.391 20.195 22.867-1.2031 2.8008-1.8828 5.8789-1.8828 9.1172 0 12.777 10.395 23.168 23.168 23.168 12.773 0 23.168-10.391 23.168-23.168 0-3.2383-0.67578-6.3164-1.8828-9.1172 11.359-1.4766 20.195-11.109 20.195-22.867 0-0.33984-0.085937-0.65234-0.10156-0.98828 0.59375-0.10547 1.1797-0.27734 1.7148-0.59766l14.809-8.8672c-1.0625 13.168 1.6992 34.367 26.426 47.289 0.72656 0.37891 1.5312 0.57031 2.332 0.57031s1.6055-0.19141 2.332-0.57031c24.723-12.922 27.488-34.121 26.426-47.289l8.0273 4.8086c-0.45703 1.8164-0.77734 3.6875-0.77734 5.6445 0 11.758 8.832 21.391 20.195 22.867-1.2031 2.8008-1.8828 5.8789-1.8828 9.1172 0 12.777 10.391 23.168 23.168 23.168 12.777 0 23.168-10.391 23.168-23.168 0-3.2383-0.67578-6.3164-1.8828-9.1172 11.363-1.4766 20.199-11.109 20.199-22.867 0-1.957-0.31641-3.8281-0.77734-5.6445l8.0273-4.8086c-1.0625 13.164 1.6992 34.367 26.426 47.289 0.72656 0.37891 1.5312 0.57031 2.332 0.57031s1.6055-0.19141 2.332-0.57031c24.723-12.922 27.484-34.125 26.422-47.289l14.809 8.8672c0.53516 0.32031 1.1211 0.49219 1.7188 0.59766-0.015625 0.33594-0.10156 0.64844-0.10156 0.98828 0 11.758 8.832 21.391 20.195 22.867-1.2031 2.8008-1.8828 5.8789-1.8828 9.1172 0 12.777 10.391 23.168 23.168 23.168s23.168-10.391 23.168-23.168c0-3.2383-0.67578-6.3164-1.8828-9.1172 11.363-1.4766 20.199-11.109 20.199-22.867 0-3.2383-0.67969-6.3164-1.8828-9.1211 11.363-1.4766 20.195-11.109 20.195-22.867 0-12.773-10.391-23.168-23.168-23.168-7.4805 0-14.078 3.625-18.316 9.1445-3.2539-4.2383-7.8867-7.3516-13.277-8.5547v-25.898h55c8.3359 0 15.113-6.7812 15.113-15.113v-0.71484c0.019532-8.332-6.7617-15.113-15.098-15.113zm-388.35 66.328c7.2188 0 13.094 5.8711 13.094 13.094 0 7.2188-5.8711 13.09-13.094 13.09-7.2188 0-13.094-5.8711-13.094-13.09 0-7.2227 5.875-13.094 13.094-13.094zm-36.629 26.18c-7.2188 0-13.094-5.8711-13.094-13.09s5.8711-13.094 13.094-13.094c7.2188 0 13.094 5.8711 13.094 13.094-0.003906 7.2188-5.875 13.09-13.094 13.09zm18.312 31.988c-7.2188 0-13.094-5.875-13.094-13.094s5.8711-13.094 13.094-13.094c7.2188 0 13.094 5.8711 13.094 13.094 0 7.2188-5.8711 13.094-13.094 13.094zm18.316 31.984c-7.2188 0-13.094-5.875-13.094-13.094s5.8711-13.094 13.094-13.094c7.2188 0 13.094 5.875 13.094 13.094 0 7.2227-5.875 13.094-13.094 13.094zm18.312-31.984c-7.2188 0-13.094-5.875-13.094-13.094s5.8711-13.094 13.094-13.094c7.2188 0 13.094 5.8711 13.094 13.094 0 7.2188-5.8711 13.094-13.094 13.094zm18.938-42.023-0.78125 10.02c-7.1445-0.089844-12.934-5.9102-12.934-13.074 0-7.2188 5.8711-13.094 13.094-13.094 1.1172 0 2.1797 0.18359 3.2148 0.44531-1.5781 4.6016-2.4688 9.8359-2.5938 15.703zm-0.62109-26.223c-7.4805 0-14.074 3.625-18.316 9.1445-3.2539-4.2422-7.8867-7.3516-13.277-8.5547v-25.898h76.586v14.824c-2.9258-0.007813-6.0039-0.039063-9.0547-0.22656-5.4961-0.33984-15.984 0.23828-24.332 7.918-1.3867 1.2773-2.6055 2.7227-3.7344 4.2617-2.4648-0.89453-5.0938-1.4688-7.8711-1.4688zm74.418 30.34c-1.8242-1.0898-4.1445-0.92188-5.7812 0.42578-1.6445 1.3477-2.2695 3.582-1.5547 5.5859 0.4375 1.2266 10.09 29.445-17.047 45.41-26.961-15.883-17.477-44.195-17.051-45.41 0.71094-2.0039 0.089844-4.2344-1.5547-5.5859-0.92188-0.75391-2.0547-1.1406-3.1914-1.1406-0.89453 0-1.7891 0.23438-2.5898 0.71484l-15.988 9.5742 1.0234-13.191c0.22266-10.137 2.8281-17.57 7.75-22.098 5.8125-5.3438 13.746-5.4727 16.891-5.2773 3.332 0.20703 6.5938 0.23828 9.6758 0.24609v6.5508l-13.836 6.918c-2.4883 1.2461-3.5 4.2695-2.2539 6.7617 0.88281 1.7656 2.6602 2.7852 4.5117 2.7852 0.75391 0 1.5234-0.16797 2.25-0.53125l9.332-4.668v32.016c0 2.7812 2.2539 5.0391 5.0391 5.0391s5.0391-2.2578 5.0391-5.0391v-32.016l9.3281 4.6641c0.72266 0.36328 1.4922 0.53125 2.25 0.53125 1.8516 0 3.625-1.0195 4.5117-2.7852 1.2461-2.4883 0.23438-5.5156-2.2539-6.7617l-13.836-6.918v-6.5508c3.082-0.007813 6.3438-0.039063 9.6719-0.24609 3.1406-0.1875 11.078-0.066406 16.895 5.2812 4.9219 4.5273 7.5273 11.961 7.7656 22.371l1.0039 12.914zm16.691-30.316c-0.82422-0.99219-1.6992-1.9375-2.6484-2.8086-8.3477-7.6875-18.84-8.2578-24.336-7.9219-3.0469 0.1875-6.125 0.21875-9.0547 0.22656v-14.824h67.414v25.898c-5.3906 1.2031-10.02 4.3164-13.277 8.5547-4.1953-5.4727-10.707-9.0586-18.098-9.125zm36.414 10.055c7.2188 0 13.094 5.8711 13.094 13.094 0 7.2188-5.875 13.09-13.094 13.09s-13.094-5.8711-13.094-13.09c0.003906-7.2227 5.8789-13.094 13.094-13.094zm-23.535 13.094c0 3.707-1.5625 7.043-4.0469 9.4258l-0.47266-6.0898c-0.12109-5.4805-0.88672-10.367-2.2188-14.711 3.9961 2.2383 6.7383 6.4688 6.7383 11.375zm5.2227 45.074c-7.2188 0-13.094-5.875-13.094-13.094 0-0.29688 0.070312-0.57812 0.089844-0.87109 0.91016-0.003906 1.8203-0.25391 2.6289-0.75391 1.6055-0.99219 2.5195-2.793 2.3711-4.6758l-0.29297-3.7461c2.2656-1.875 5.1328-3.0508 8.2969-3.0508 7.2188 0 13.094 5.8711 13.094 13.094 0 7.2227-5.875 13.098-13.094 13.098zm18.312 31.984c-7.2188 0-13.094-5.875-13.094-13.094s5.875-13.094 13.094-13.094 13.094 5.875 13.094 13.094c0 7.2227-5.875 13.094-13.094 13.094zm18.32-31.984c-7.2188 0-13.094-5.875-13.094-13.094s5.875-13.094 13.094-13.094c3.1602 0 6.0273 1.1719 8.293 3.0469l-0.29297 3.7461c-0.14844 1.8789 0.76562 3.6836 2.3711 4.6758 0.80469 0.5 1.7188 0.75 2.6328 0.75 0.019532 0.29297 0.089844 0.57422 0.089844 0.87109-0.003906 7.2227-5.8789 13.098-13.094 13.098zm5.2188-45.074c0-4.8984 2.7344-9.1211 6.7266-11.367-1.3164 4.2891-2.0703 9.0859-2.1836 14.422l-0.49609 6.3672c-2.4844-2.3867-4.0469-5.7188-4.0469-9.4219zm-5.2227-14.027c-3.2539-4.2383-7.8867-7.3516-13.277-8.5547v-25.898h67.418v14.824c-2.9258-0.007813-6.0039-0.039063-9.0586-0.22656-5.5195-0.35547-15.984 0.24219-24.328 7.918-0.94922 0.87109-1.8242 1.8164-2.6484 2.8125-7.3945 0.070313-13.91 3.6602-18.105 9.125zm83.562 21.195c-1.8164-1.0859-4.1133-0.91797-5.7656 0.42188-1.6445 1.3398-2.2734 3.5703-1.5742 5.5703 0.42969 1.2305 9.9141 29.543-17.043 45.426-26.961-15.887-17.477-44.195-17.055-45.41 0.71484-2.0039 0.089844-4.2344-1.5547-5.5859-0.92187-0.75391-2.0547-1.1406-3.1914-1.1406-0.89062 0-1.7852 0.23438-2.5898 0.71484l-15.988 9.5742 1.0234-13.191c0.22266-10.137 2.8281-17.57 7.75-22.098 5.8086-5.3438 13.746-5.4648 16.891-5.2773 3.3359 0.20703 6.5977 0.23828 9.6758 0.24609v6.5508l-13.84 6.9219c-2.4883 1.2461-3.5 4.2695-2.2539 6.7617 0.88672 1.7656 2.6602 2.7852 4.5117 2.7852 0.75781 0 1.5234-0.16797 2.25-0.53125l9.332-4.668v32.016c0 2.7812 2.2539 5.0391 5.0391 5.0391 2.7852 0 5.0391-2.2578 5.0391-5.0391v-32.016l9.3281 4.6641c0.72266 0.36328 1.4922 0.53125 2.25 0.53125 1.8516 0 3.625-1.0195 4.5117-2.7852 1.2461-2.4883 0.23438-5.5156-2.2539-6.7617l-13.836-6.918v-6.5508c3.0781-0.007813 6.3398-0.039063 9.6719-0.24609 3.1406-0.1875 11.078-0.066406 16.891 5.2773 4.9219 4.5273 7.5273 11.961 7.7656 22.375l1.0039 12.906zm17.773-28.867c-1.1289-1.5391-2.3477-2.9844-3.7344-4.2617-8.3438-7.6758-18.824-8.2734-24.328-7.918-3.0508 0.1875-6.1289 0.21875-9.0547 0.22656v-14.824h76.586v25.898c-5.3906 1.2031-10.02 4.3164-13.277 8.5547-4.2383-5.5195-10.832-9.1445-18.316-9.1445-2.7773-0.003906-5.4062 0.57031-7.875 1.4688zm8.0312 34.77-0.76172-9.7422c-0.13281-6.0156-1.0312-11.328-2.6211-15.977 1.0391-0.26563 2.1055-0.44922 3.2266-0.44922 7.2188 0 13.094 5.8711 13.094 13.094 0 7.168-5.793 12.988-12.938 13.074zm18.16 32.004c-7.2188 0-13.094-5.875-13.094-13.094s5.875-13.094 13.094-13.094 13.094 5.8711 13.094 13.094c0 7.2188-5.875 13.094-13.094 13.094zm18.312 31.984c-7.2188 0-13.094-5.875-13.094-13.094s5.875-13.094 13.094-13.094 13.094 5.875 13.094 13.094c0 7.2227-5.875 13.094-13.094 13.094zm36.629-90.152c7.2188 0 13.094 5.8711 13.094 13.094 0 7.2188-5.875 13.09-13.094 13.09s-13.094-5.8711-13.094-13.09c0.003906-7.2227 5.8789-13.094 13.094-13.094zm-18.309 31.984c7.2188 0 13.094 5.8711 13.094 13.094 0 7.2188-5.875 13.094-13.094 13.094s-13.094-5.875-13.094-13.094c0-7.2227 5.875-13.094 13.094-13.094zm-5.2266-18.891c0 7.2188-5.875 13.09-13.094 13.09s-13.094-5.8711-13.094-13.09 5.875-13.094 13.094-13.094 13.094 5.8711 13.094 13.094zm51.984-63.594c0 2.7773-2.2578 5.0391-5.0391 5.0391h-448.39c-2.7773 0-5.0391-2.2617-5.0391-5.0391v-0.71484c0-2.7773 2.2617-5.0391 5.0391-5.0391h448.39c2.7812 0 5.0391 2.2617 5.0391 5.0391z"/>
</svg>