<?xml version="1.0" encoding="UTF-8"?>
<!-- The Best Svg Icon site in the world: iconSvg.co, Visit us! https://iconsvg.co -->
<svg fill="#000000" width="800px" height="800px" version="1.1" viewBox="144 144 512 512" xmlns="http://www.w3.org/2000/svg">
 <g>
  <path d="m362.74 483.73c14.641 0 26.555-11.844 26.555-26.406s-11.91-26.406-26.555-26.406c-14.641 0-26.555 11.844-26.555 26.406 0.003906 14.562 11.914 26.406 26.555 26.406zm0-42.734c9.0859 0 16.477 7.3242 16.477 16.328 0 9.0039-7.3906 16.328-16.477 16.328-9.0859 0-16.477-7.3242-16.477-16.328 0-9 7.3945-16.328 16.477-16.328z"/>
  <path d="m436.35 483.73c14.641 0 26.555-11.844 26.555-26.406s-11.91-26.406-26.555-26.406c-14.641 0-26.555 11.844-26.555 26.406 0.003906 14.562 11.914 26.406 26.555 26.406zm0-42.734c9.0859 0 16.477 7.3242 16.477 16.328 0 9.0039-7.3906 16.328-16.477 16.328-9.0859 0-16.477-7.3242-16.477-16.328 0-9 7.3945-16.328 16.477-16.328z"/>
  <path d="m319.79 336.44c2.7812 0 5.0391-2.2539 5.0391-5.0391 0-11.441 9.4141-20.746 20.988-20.746 11.57 0 20.984 9.3047 20.984 20.746 0 2.7812 2.2539 5.0391 5.0391 5.0391 2.7812 0 5.0391-2.2539 5.0391-5.0391 0-16.996-13.934-30.824-31.062-30.824s-31.066 13.828-31.066 30.824c0 2.7812 2.2578 5.0391 5.0391 5.0391z"/>
  <path d="m432.08 336.44c2.7812 0 5.0391-2.2539 5.0391-5.0391 0-11.441 9.4141-20.746 20.988-20.746 11.57 0 20.984 9.3047 20.984 20.746 0 2.7812 2.2539 5.0391 5.0391 5.0391 2.7812 0 5.0391-2.2539 5.0391-5.0391 0-16.996-13.934-30.824-31.062-30.824-17.129 0-31.066 13.828-31.066 30.824 0.003907 2.7812 2.2578 5.0391 5.0391 5.0391z"/>
  <path d="m399.55 545.91c53.598 0 97.203-39.738 97.203-88.578 0-48.844-43.605-88.582-97.203-88.582s-97.203 39.738-97.203 88.578c-0.003906 48.848 43.602 88.582 97.203 88.582zm0-167.08c48.043 0 87.129 35.219 87.129 78.504s-39.086 78.504-87.129 78.504-87.129-35.219-87.129-78.504c0-43.289 39.082-78.504 87.129-78.504z"/>
  <path d="m243.78 287.45c-24.914 32.867-39.73 73.793-39.73 118.12 0 108.05 87.902 195.95 195.95 195.95 108.05 0 195.95-87.902 195.95-195.95 0-44.371-14.848-85.328-39.801-118.21 29.27-17.828 48.023-66.102 45.039-80.273-0.41406-1.9805-1.8008-4.7227-6.0234-6.5352-12.965-5.5664-51.113-0.27734-72.34 12.785-9.2188 5.6719-18.684 14.387-24.797 22.68-28.859-16.75-62.332-26.395-98.031-26.395-35.77 0-69.297 9.6797-98.191 26.488-6.1094-8.3242-15.609-17.082-24.863-22.773-21.223-13.062-59.367-18.363-72.34-12.785-4.2227 1.8164-5.6055 4.5547-6.0234 6.5352-2.9883 14.195 15.84 62.613 45.195 80.363zm284.33-65.531c21.543-13.258 57.125-15.742 63.32-12.043 0.85156 10-15.004 54.488-41.648 69.543-12.414-14.715-26.953-27.566-43.137-38.109 5.3516-7.0352 13.645-14.578 21.465-19.391zm-128.11-2.2227c102.49 0 185.88 83.383 185.88 185.88 0 102.49-83.387 185.88-185.88 185.88-102.49 0-185.88-83.383-185.88-185.88 0-102.49 83.387-185.88 185.88-185.88zm-128.34 2.2227c7.8594 4.8359 16.188 12.426 21.539 19.492-16.156 10.547-30.668 23.391-43.059 38.098-26.738-14.973-42.652-59.613-41.801-69.633 6.1914-3.6992 41.773-1.2109 63.32 12.043z"/>
 </g>
</svg>