<?xml version="1.0" encoding="UTF-8"?>
<!-- The Best Svg Icon site in the world: iconSvg.co, Visit us! https://iconsvg.co -->
<svg width="800px" height="800px" version="1.1" viewBox="144 144 512 512" xmlns="http://www.w3.org/2000/svg">
 <defs>
  <clipPath id="a">
   <path d="m148.09 148.09h503.81v503.81h-503.81z"/>
  </clipPath>
 </defs>
 <path transform="matrix(5.0381 0 0 5.0381 148.09 148.09)" d="m46.2 17.3h30.9" fill="none" stroke="#000000" stroke-linecap="round" stroke-miterlimit="10" stroke-width="4"/>
 <g clip-path="url(#a)">
  <path transform="matrix(5.0381 0 0 5.0381 148.09 148.09)" d="m45.4 49.7 3.2999-32.3" fill="none" stroke="#000000" stroke-linecap="round" stroke-miterlimit="10" stroke-width="4"/>
 </g>
 <path d="m601.52 424.68c-16.121-22.168-40.809-35.77-68.016-37.785l-8.5664-0.50391-15.113-147.62 20.152-2.0156 13.602 130.99c29.727 4.0312 56.426 20.152 74.562 44.84z"/>
 <path transform="matrix(5.0381 0 0 5.0381 148.09 148.09)" d="m46.2 47.3 8.6993-7.9" fill="none" stroke="#000000" stroke-linecap="round" stroke-miterlimit="10" stroke-width="2"/>
 <path d="m433.2 337.96c8.6562 8.6602 12.484 18.867 8.5508 22.801s-14.145 0.10938-22.801-8.5508c-8.6562-8.6562-12.484-18.863-8.5508-22.797 3.9375-3.9375 14.145-0.10938 22.801 8.5469"/>
 <path d="m301.75 448.87c-32.242 0-57.938 26.199-57.938 57.938 0 32.242 26.199 57.938 57.938 57.938 32.242 0 57.938-26.199 57.938-57.938 0.50781-32.242-25.691-57.938-57.938-57.938zm0 90.688c-18.137 0-32.746-14.609-32.746-32.746 0-18.137 14.609-32.746 32.746-32.746 18.137 0 32.746 14.609 32.746 32.746 0.003906 18.133-14.605 32.746-32.746 32.746z"/>
 <path d="m526.45 403.02c-46.352 0-84.137 37.785-84.137 84.137s37.785 84.137 84.137 84.137 84.137-37.785 84.137-84.137c-0.50391-46.348-37.785-84.137-84.137-84.137zm0 131.5c-26.199 0-47.359-21.16-47.359-47.359s21.16-47.359 47.359-47.359 47.359 21.16 47.359 47.359-21.16 47.359-47.359 47.359z"/>
 <path transform="matrix(5.0381 0 0 5.0381 148.09 148.09)" d="m26.8 45.4v-18" fill="none" stroke="#000000" stroke-linecap="round" stroke-miterlimit="10" stroke-width="3"/>
 <path d="m385.39 423.68h49.879l-14.105 28.719-2.0156 28.719h-33.758z"/>
 <path transform="matrix(5.0381 0 0 5.0381 148.09 148.09)" d="m44.6 71.2h9.4003" fill="none" stroke="#000000" stroke-linecap="round" stroke-miterlimit="10" stroke-width="2"/>
 <path transform="matrix(5.0381 0 0 5.0381 148.09 148.09)" d="m65.7 48.4v-31.5" fill="none" stroke="#000000" stroke-miterlimit="10" stroke-width="2"/>
 <path d="m313.34 506.8c0 6.4023-5.1875 11.59-11.59 11.59-6.3984 0-11.586-5.1875-11.586-11.59 0-6.3984 5.1875-11.586 11.586-11.586 6.4023 0 11.59 5.1875 11.59 11.586"/>
 <path d="m542.07 487.16c0 8.625-6.9922 15.621-15.621 15.621-8.625 0-15.617-6.9961-15.617-15.621s6.9922-15.617 15.617-15.617c8.6289 0 15.621 6.9922 15.621 15.617"/>
 <path d="m526.96 376.32h-1.0078c-50.379-1.0078-117.39 51.387-109.32 94.715h-25.695v-104.29l-164.24-0.50391c-19.145 0-23.68 12.09-25.191 28.719l29.727-0.50391c2.5195 0 5.0391 2.0156 5.0391 5.0391 0 3.0234-2.0156 5.0391-5.0391 5.0391l-30.23 0.50391v7.0547l30.23-0.50391c2.5195 0 5.0391 2.0156 5.0391 5.0391 0 3.0234-2.0156 5.0391-5.0391 5.0391l-30.73 0.50391v7.0547l30.73-0.50391c2.5195 0 5.0391 2.0156 5.0391 5.0391 0 3.0234-2.0156 5.0391-5.0391 5.0391l-30.73 0.50391-0.003907 41.305c0 5.543 0 9.0703 23.176 9.0703h12.594c8.5664-27.711 34.762-47.863 65.496-47.863 30.73 0 56.426 20.152 65.496 47.863h55.922c-3.5234-54.414 53.406-103.79 105.3-102.78l5.543-20.152z"/>
</svg>