<?xml version="1.0" encoding="UTF-8"?>
<!-- The Best Svg Icon site in the world: iconSvg.co, Visit us! https://iconsvg.co -->
<svg fill="#000000" width="800px" height="800px" version="1.1" viewBox="144 144 512 512" xmlns="http://www.w3.org/2000/svg">
 <path d="m259.95 374.39c1.3828 0 2.7031-0.56641 3.6523-1.5703l5.5117-5.8047c5.4414-5.7266 9.3672-12.68 11.344-20.098 0.40234-1.5117 0.082031-3.125-0.875-4.3672-0.95312-1.2383-2.4297-1.9688-3.9961-1.9688h-31.289c-1.5664 0-3.043 0.72656-3.9961 1.9688-0.95312 1.2422-1.2773 2.8594-0.875 4.3672 1.9805 7.418 5.9023 14.371 11.344 20.098l5.5156 5.8047c0.96484 1.0078 2.2852 1.5703 3.6641 1.5703zm8.4102-23.734c-1.6562 3.4102-3.8711 6.5977-6.5469 9.4219l-1.8594 1.957-1.8633-1.957c-2.6797-2.8242-4.8906-6.0117-6.5469-9.4219zm358.39 234.2h-76.48l-1.1328-98.453c44.027-6.7656 77.699-41.566 77.699-83.469 0-15.172-4.5117-30.035-13.066-43.141 1.9766-6.5391 2.9766-13.289 2.9766-20.105 0-18.27-7.2266-35.742-20.418-49.539 1.1953-4.5273 1.8008-9.125 1.8008-13.711 0-32.43-28.961-58.812-64.555-58.812-23.438 0-43.938 11.477-55.246 28.547-8.9492-23.867-33.758-41.102-62.953-41.102-36.699 0-66.559 27.195-66.559 60.625 0 4.7617 0.63281 9.5312 1.8828 14.223-13.648 14.234-21.125 32.281-21.125 51.152 0 7.0625 1.0391 14.055 3.0938 20.812-8.8555 13.523-13.523 28.875-13.523 44.562 0 43.273 34.816 79.211 80.316 86.133l-1.1836 102.28h-89.523c2.2109-5.4531 3.5-11.223 3.6562-17.145l1.5508-59.773c0.035157-1.3633-0.48047-2.6758-1.4258-3.6523-0.94922-0.96875-2.25-1.5195-3.6094-1.5195h-25.707c-1.4766 0-2.8555-0.27734-4.1016-0.81641-1.9492-0.84375-4.0938-2.0625-5.7461-3.7188l1.5859-110.92c0-0.72266 0.27734-1.4102 0.77344-1.9375l6.0234-6.3438c8.875-9.3438 14.68-20.855 16.781-33.293l2.0508-12.117c0.44141-2.6094-0.28125-5.2578-1.9883-7.2773-1.707-2.0234-4.2031-3.1797-6.8477-3.1797h-63.59c-2.6406 0-5.1367 1.1562-6.8438 3.1758-1.7031 2.0156-2.4336 4.668-1.9922 7.2773l2.0469 12.121c2.1055 12.441 7.9102 23.957 16.785 33.293l6.0234 6.3359c0.5 0.53125 0.77344 1.2188 0.77344 2.0156l1.5859 110.86c-1.6523 1.6523-3.7969 2.8711-5.7422 3.7148-1.2461 0.53516-2.625 0.8125-4.1016 0.8125h-25.707c-1.3594 0-2.6602 0.55078-3.6094 1.5195-0.94531 0.97266-1.4648 2.2891-1.4258 3.6523l1.5508 59.77c0.15234 5.9258 1.4414 11.699 3.6562 17.152l-37.902-0.003907c-2.7812 0-5.0391 2.2539-5.0391 5.0391s2.2539 5.0391 5.0391 5.0391h453.49c2.7852 0 5.0391-2.2539 5.0391-5.0391-0.003906-2.7852-2.2539-5.0391-5.0391-5.0391zm-381.29-212.77c-7.4922-7.8828-12.387-17.578-14.156-28.035l-1.8242-10.82h60.953l-1.8281 10.82c-1.7695 10.453-6.6641 20.148-14.156 28.035l-6.0234 6.3438c-2.2852 2.4062-3.543 5.5586-3.543 8.8008l-2.5 175.06c-0.019531 1.3203-1.1055 2.3906-2.4219 2.3906-1.3203 0-2.4062-1.0742-2.4258-2.3906l-2.5-174.98c0-3.3164-1.2578-6.4648-3.543-8.875zm56.879 195.35c-0.15625 6.0898-1.8672 11.977-4.7266 17.41l-75.316 0.003906c-2.8594-5.4375-4.5664-11.324-4.7266-17.41l-1.418-54.602h20.535c2.8633 0 5.5898-0.55469 8.1055-1.6445 0.67188-0.29297 1.2812-0.625 1.9102-0.94531l0.74609 52.188c0.097657 6.793 5.707 12.32 12.5 12.32 6.793 0 12.402-5.5234 12.5-12.32l0.74609-52.188c0.62891 0.32031 1.2383 0.65234 1.9102 0.94141 2.5195 1.0938 5.2461 1.6484 8.1094 1.6484h20.535zm97.898-152.73-28.523-30.859c-0.26563-0.28906-0.25781-0.73437 0.019531-1.0078h0.003906l4.5859-4.5898c0.14453-0.14453 0.32813-0.21094 0.51563-0.21094 0.17578 0 0.35547 0.0625 0.49609 0.19141l23.078 21.336zm0.86328-74.855-18.449-20.273c-0.26172-0.28906-0.25391-0.73047 0.023437-1.0078l3.0391-3.0391c0.27734-0.27734 0.71484-0.28125 1.0078-0.019531l14.508 13.203zm7.2539 245 3.5078-304.28c0.023437-1.9141 1.5977-3.4727 3.5117-3.4727 1.9102 0 3.4844 1.5586 3.5078 3.4727l3.5078 304.28zm21.16-256.13 14.512-13.207c0.13672-0.125 0.3125-0.1875 0.48828-0.1875 0.18359 0 0.37109 0.070312 0.51562 0.21484l3.0391 3.0312c0.27734 0.27734 0.28516 0.71875 0.023438 1.0078l-18.449 20.273zm0.81641 70.852 23.078-21.336c0.14453-0.12891 0.32031-0.19141 0.5-0.19141 0.1875 0 0.375 0.070312 0.51562 0.21094l4.5859 4.5898h0.003907c0.27734 0.27734 0.28516 0.71875 0.019531 1.0078l-28.523 30.859zm0.34375 29.805 35.754-38.684c3.9531-4.2773 3.8242-10.855-0.29688-14.973l-4.5898-4.5898c-4.1172-4.1211-10.691-4.25-14.973-0.29688l-16.398 15.16-0.36328-31.355 25.73-28.273c3.8945-4.2773 3.7383-10.828-0.34766-14.914v-0.003907l-3.0352-3.0312c-4.0898-4.0977-10.641-4.2422-14.914-0.35547l-7.8867 7.1758-0.40234-34.781c-0.085938-7.4062-6.1797-13.43-13.586-13.43h0.003907c-7.4062 0-13.5 6.0234-13.586 13.43l-0.40234 34.781-7.8828-7.1719c-4.2773-3.8945-10.828-3.7422-14.914 0.34766l-3.0391 3.0352v0.003907c-4.0859 4.0859-4.2422 10.633-0.35156 14.914l25.734 28.277-0.36328 31.355-16.398-15.16c-4.2773-3.9492-10.852-3.8242-14.973 0.29687l-4.5898 4.5898c-4.1172 4.1172-4.2461 10.695-0.29297 14.973l35.754 38.684-0.49609 43.062c-39.977-6.6875-70.355-38.191-70.355-75.996 0-14.426 4.5391-28.566 13.125-40.895 0.92187-1.3125 1.1523-2.9922 0.63281-4.5117-2.2109-6.4531-3.332-13.172-3.332-19.969 0-17.094 7.1875-33.465 20.23-46.098 1.3828-1.3398 1.8789-3.3438 1.2852-5.1758-1.5078-4.6406-2.2734-9.3828-2.2734-14.102 0-27.871 25.34-50.547 56.484-50.547 31.152-0.003907 56.488 22.676 56.488 50.547 0 4.7109-0.76562 9.457-2.2734 14.102-0.59375 1.8281-0.09375 3.8359 1.2852 5.1719 13.047 12.633 20.23 29.008 20.23 46.098 0 6.7891-1.1211 13.508-3.332 19.969-0.51953 1.5195-0.28125 3.1992 0.63281 4.5117 8.5859 12.336 13.129 26.473 13.129 40.895 0 37.805-30.379 69.305-70.359 75.996zm86.199 155.48h-84.406l-1.1797-102.27c15.203-2.3125 29.176-7.8555 41.09-15.855 12.68 10.055 28.34 17.016 45.633 19.672zm1.25-108.59c-14.043-2.3789-26.867-7.8906-37.473-15.758 12.168-10.246 21.492-23.238 26.57-37.961l11.379 12.309zm0.64844-56.07-8.5938-9.2969c0.70312-3.8203 1.1367-7.7148 1.2734-11.68l7.4805 6.9648zm0.32031-27.738-8.3633-7.7305c-1.7344-11.547-6.0156-22.703-12.648-32.836 1.0234-3.3711 1.793-6.8008 2.3125-10.262l19.043 20.926zm0.51172-44.684-17.562-19.305c-0.19531-0.21484-0.1875-0.54297 0.015626-0.74609 0.003906 0 0.003906-0.003906 0.003906-0.003906l2.9414-2.9414c0.10547-0.10156 0.24219-0.15625 0.38281-0.15625 0.12891 0 0.25781 0.046875 0.36328 0.14453l13.98 12.867zm7.3477 237.09 3.3867-294.02c0.019531-1.7617 1.4727-3.1953 3.2383-3.1953 1.7617 0 3.207 1.4336 3.2266 3.1953l3.3867 294.02zm20.469-247.37 13.984-12.727c0.10156-0.09375 0.23438-0.14453 0.36328-0.14453 0.13672 0 0.27734 0.054687 0.38281 0.16016l2.9375 2.9375c0.20703 0.20312 0.21094 0.53516 0.019531 0.74609l-17.57 19.309zm0.78906 68.547 22.281-20.594c0.10156-0.09375 0.23047-0.14453 0.36328-0.14453 0.13672 0 0.27734 0.054688 0.37891 0.15625l4.4375 4.4375c0.20703 0.20703 0.21094 0.53516 0.015625 0.75391l-27.316 29.547zm0.33203 28.82 34.547-37.371c3.8867-4.207 3.7578-10.668-0.28906-14.715l-4.4375-4.4375c-4.0508-4.043-10.504-4.1719-14.711-0.28516l-15.594 14.414-0.34375-29.906 24.855-27.312c3.8164-4.2031 3.6641-10.637-0.34766-14.648l-2.9336-2.9336c-4.0156-4.0117-10.453-4.1758-14.656-0.34766l-7.3594 6.6992-0.38281-33.277c-0.078125-7.2578-6.0469-13.16-13.305-13.16l-0.011719-0.003906c-7.2539 0-13.219 5.8984-13.309 13.152l-0.38281 33.281-7.3555-6.6914c-3.6484-3.3203-8.9727-3.6367-12.941-1.0352-2.8516-13.383-9.5078-25.902-19.531-36.352 1.25-4.6953 1.8828-9.4648 1.8828-14.223 0-1.3906-0.12891-2.75-0.23047-4.1133 7.043-19.625 27.621-33.879 51.871-33.879 30.043 0 54.48 21.863 54.48 48.734 0 4.543-0.73828 9.1172-2.1875 13.594-0.59375 1.8281-0.09375 3.8359 1.2891 5.1719 12.586 12.191 19.52 27.988 19.52 44.48 0 6.5508-1.082 13.031-3.2109 19.266-0.51562 1.5156-0.28516 3.1914 0.63281 4.5078 8.2852 11.906 12.668 25.555 12.668 39.473 0 36.434-29.234 66.805-67.742 73.328z"/>
</svg>