<?xml version="1.0" encoding="UTF-8"?>
<!-- The Best Svg Icon site in the world: iconSvg.co, Visit us! https://iconsvg.co -->
<svg fill="#000000" width="800px" height="800px" version="1.1" viewBox="144 144 512 512" xmlns="http://www.w3.org/2000/svg">
 <g>
  <path d="m251.77 337.47c1.1992 29.039 32.477 51.418 33.832 52.375 0.87109 0.61328 1.8906 0.92188 2.9023 0.92188 1.0117 0 2.0312-0.30859 2.9023-0.92188 1.3789-0.97266 33.871-24.223 33.871-54.082 0-1.1875-0.16016-2.3984-0.26172-3.6016l25.801 25.801c0.98438 0.98438 2.2734 1.4766 3.5625 1.4766 1.2891 0 2.5781-0.49219 3.5625-1.4766 1.9688-1.9688 1.9688-5.1523 0-7.125l-25.805-25.805c1.2031 0.10547 2.4141 0.26172 3.6055 0.26172 29.859 0 53.105-32.48 54.078-33.867 1.2305-1.7422 1.2305-4.0664 0-5.8047-0.95703-1.3594-23.336-32.641-52.375-33.836-1.1953-29.039-32.477-51.418-33.832-52.375-1.7422-1.2305-4.0664-1.2305-5.8086 0-0.67969 0.48438-15.531 11.074-25.332 26.953-21.07-9.332-46.918-5.0273-48.09-4.8281-2.1016 0.36328-3.75 2.0039-4.1055 4.1055-0.20312 1.1523-4.4531 26.723 4.6719 47.727-15.109 9.793-25.102 23.816-25.555 24.453-1.2305 1.7422-1.2305 4.0664 0 5.8047 0.96094 1.3672 23.332 32.645 52.375 33.844zm-17.816-57.773c2.418-1.3516 3.293-4.3945 1.9609-6.8203-7.9258-14.438-6.9883-33.887-6.168-41.871 8.0547-0.81641 27.789-1.7773 42.266 6.3867 1.1875 0.66406 2.5938 0.82812 3.9062 0.44141 1.3047-0.38672 2.4023-1.2891 3.0312-2.5 6.2227-11.895 16.707-21.32 21.766-25.441 7.4609 6.0547 26.688 23.598 26.688 43.602 0 1.0117-0.070313 2.0156-0.16016 3.0117-0.14063 1.5 0.39844 2.9844 1.4609 4.0469s2.5508 1.5703 4.0469 1.4414c0.98828-0.10156 1.9844-0.16016 2.9883-0.16016 19.945 0 37.535 19.242 43.602 26.703-6.0508 7.457-23.594 26.688-43.602 26.688-5.9453 0-12.203-1.7695-18.605-5.1836l-15.707-15.707 46.672-1.1172c2.7812-0.070312 4.9844-2.3789 4.918-5.1602-0.066406-2.7852-2.4648-5.1133-5.1523-4.918l-47.957 1.1523c4.2969-8.0898 9.2031-21.562 7.4258-38.984-0.28125-2.7656-2.7188-4.7578-5.5234-4.5039-2.7656 0.28906-4.7812 2.7539-4.5 5.5273 1.7539 17.176-4.2109 29.918-7.9062 35.977l-26.781-26.781c-1.9688-1.9688-5.1523-1.9688-7.125 0-1.9688 1.9688-1.9688 5.1523 0 7.125l26.688 26.688c-6.2422 3.7148-18.656 9.2344-35.402 7.5156-2.8281-0.25-5.2461 1.7383-5.5234 4.5039-0.28125 2.7695 1.7344 5.2383 4.5 5.5273 17.418 1.7852 30.895-3.1289 38.984-7.4297l-1.1484 47.957c-0.070312 2.7852 2.1328 5.0938 4.918 5.1602h0.12109c2.7266 0 4.9688-2.1758 5.0312-4.918l1.0977-45.734 15.25 15.25c3.4219 6.4023 5.1836 12.66 5.1836 18.602 0 19.941-19.234 37.527-26.695 43.602-7.4609-6.0703-26.691-23.66-26.691-43.602 0-1.0078 0.070312-2 0.16797-2.9961 0.14063-1.4961-0.38672-2.9766-1.4492-4.0391-0.94531-0.95312-2.2383-1.4805-3.5664-1.4805-0.15625 0-0.3125 0.003907-0.47266 0.019532-0.99219 0.10156-1.9961 0.16797-3.0078 0.16797-19.941 0-37.527-19.234-43.602-26.695 3.9609-4.8906 12.824-14.77 24.074-21.051z"/>
  <path d="m335.76 474.72c-1.1953 0-2.4023 0.16016-3.6016 0.26172l25.805-25.805c1.9688-1.9688 1.9688-5.1523 0-7.125-1.9688-1.9688-5.1523-1.9688-7.125 0l-25.805 25.809c0.10547-1.2031 0.26172-2.4102 0.26172-3.6016 0-29.867-32.484-53.113-33.871-54.082-1.7422-1.2305-4.0664-1.2305-5.8047 0-1.3555 0.95312-32.633 23.336-33.832 52.375-29.039 1.1992-51.418 32.477-52.375 33.836-1.2305 1.7422-1.2305 4.0703 0 5.8047 0.48047 0.68359 11.074 15.531 26.953 25.336-9.3359 21.07-5.0273 46.914-4.8281 48.082 0.36328 2.1016 2.0039 3.7422 4.1055 4.1055 1.1445 0.20312 26.711 4.4492 47.723-4.6719 9.793 15.109 23.82 25.102 24.461 25.555 0.87891 0.61328 1.8906 0.92188 2.9102 0.92188s2.0312-0.30859 2.9023-0.92188c1.3555-0.95312 32.637-23.336 33.832-52.375 29.039-1.1953 51.418-32.477 52.375-33.836 1.2305-1.7422 1.2305-4.0664 0-5.8047-0.97266-1.3828-24.219-33.863-54.086-33.863zm0.003907 63.465c-1.0117 0-2.0156-0.070312-3.0078-0.16797-1.4727-0.13672-2.9727 0.39453-4.0352 1.457-1.0586 1.0625-1.5938 2.5391-1.457 4.0352 0.097656 0.99219 0.16016 1.9961 0.16016 3.0117 0 19.941-19.242 37.535-26.695 43.602-4.8633-3.9453-14.723-12.781-21.027-24.078-0.92188-1.6523-2.6367-2.5859-4.4023-2.5859-0.82031 0-1.6523 0.20312-2.418 0.62109-14.449 7.9258-33.902 6.9766-41.875 6.1719-0.83594-8.0469-1.8047-27.734 6.3867-42.266 0.67188-1.1836 0.83203-2.6016 0.44141-3.9062-0.38672-1.3047-1.2891-2.4023-2.5-3.0312-11.895-6.2227-21.316-16.703-25.438-21.766 6.0703-7.4609 23.652-26.695 43.602-26.695 1.0117 0 2.0156 0.070312 3.0078 0.16797 1.4961 0.15234 2.9766-0.39453 4.0391-1.4609 1.0586-1.0625 1.5938-2.543 1.4492-4.0391-0.097657-0.99219-0.16797-1.9883-0.16797-2.9961 0-19.941 19.23-37.527 26.691-43.602 7.4609 6.0703 26.695 23.66 26.695 43.602 0 5.9414-1.7695 12.195-5.1836 18.602l-15.715 15.715-1.1172-46.68c-0.066406-2.7852-2.3984-4.8672-5.1523-4.918-2.7812 0.070312-4.9844 2.3789-4.918 5.1602l1.1484 47.957c-8.0898-4.3008-21.559-9.2031-38.984-7.4297-2.7656 0.28906-4.7812 2.7539-4.5 5.5273 0.28125 2.7617 2.7188 4.7617 5.5234 4.5039 17.168-1.75 29.918 4.2109 35.977 7.9062l-26.781 26.781c-1.9688 1.9688-1.9688 5.1523 0 7.125 0.98438 0.98438 2.2734 1.4766 3.5625 1.4766 1.2891 0 2.5781-0.49219 3.5625-1.4766l26.66-26.66c3.7148 6.293 9.2344 18.777 7.543 35.379-0.28125 2.7695 1.7344 5.2383 4.5 5.5273 0.17578 0.015626 0.34766 0.023438 0.51953 0.023438 2.5547 0 4.7422-1.9336 5.0078-4.5234 1.7773-17.422-3.1289-30.895-7.4258-38.984l47.957 1.1523c2.8125-0.050781 5.0938-2.1328 5.1523-4.918 0.070313-2.7852-2.1328-5.0938-4.918-5.1602l-45.73-1.0977 15.25-15.246c6.4023-3.4219 12.66-5.1836 18.605-5.1836 19.941 0 37.527 19.23 43.602 26.691-6.0703 7.4414-23.652 26.676-43.594 26.676z"/>
  <path d="m548.23 462.53c-1.1992-29.039-32.477-51.418-33.832-52.375-1.7422-1.2305-4.0664-1.2305-5.8047 0-1.3789 0.97266-33.871 24.223-33.871 54.082 0 1.1875 0.16016 2.3984 0.26172 3.6016l-25.801-25.801c-1.9688-1.9688-5.1523-1.9688-7.125 0-1.9688 1.9688-1.9688 5.1523 0 7.125l25.805 25.805c-1.2031-0.10547-2.4141-0.26172-3.6055-0.26172-29.859 0-53.105 32.48-54.078 33.867-1.2305 1.7422-1.2305 4.0664 0 5.8047 0.95703 1.3594 23.336 32.641 52.375 33.836 1.1953 29.039 32.477 51.418 33.832 52.375 0.87109 0.61328 1.8906 0.92187 2.9023 0.92187 1.0117 0 2.0352-0.30859 2.9062-0.92187 0.67969-0.48438 15.531-11.074 25.332-26.953 21.074 9.3359 46.926 5.0312 48.09 4.8281 2.1016-0.36328 3.75-2.0039 4.1055-4.1055 0.20312-1.1523 4.4531-26.723-4.6719-47.727 15.109-9.793 25.102-23.816 25.555-24.453 1.2305-1.7422 1.2305-4.0664 0-5.8047-0.96094-1.3711-23.336-32.645-52.375-33.844zm17.812 57.77c-2.418 1.3516-3.293 4.3945-1.9609 6.8203 7.9258 14.438 6.9883 33.887 6.168 41.871-8.0508 0.82031-27.789 1.7773-42.266-6.3867-1.1836-0.67187-2.6016-0.82812-3.9062-0.44141-1.3047 0.38672-2.4023 1.2891-3.0312 2.5-6.2227 11.895-16.707 21.32-21.766 25.441-7.4609-6.0547-26.688-23.598-26.688-43.602 0-1.0117 0.070312-2.0156 0.16016-3.0117 0.14062-1.5-0.39844-2.9844-1.4609-4.0469-0.94531-0.94531-2.2266-1.4648-3.5586-1.4648-0.16016 0-0.32812 0.011719-0.49219 0.023438-0.98828 0.10156-1.9844 0.16016-2.9883 0.16016-19.945 0-37.535-19.242-43.602-26.703 6.0508-7.457 23.594-26.688 43.602-26.688 5.9453 0 12.203 1.7695 18.605 5.1836l15.707 15.707-46.672 1.1172c-2.7812 0.070312-4.9844 2.3789-4.918 5.1602 0.066407 2.7852 2.3828 4.75 5.1523 4.918l47.957-1.1523c-4.2969 8.0898-9.2031 21.562-7.4258 38.984 0.26172 2.5938 2.4531 4.5234 5.0078 4.5234 0.17188 0 0.34375-0.011719 0.51953-0.023438 2.7656-0.28906 4.7812-2.7539 4.5-5.5273-1.7539-17.176 4.2109-29.918 7.9062-35.977l26.781 26.781c0.98438 0.98438 2.2734 1.4766 3.5625 1.4766s2.5781-0.49219 3.5625-1.4766c1.9688-1.9688 1.9688-5.1523 0-7.125l-26.691-26.691c6.2422-3.7148 18.656-9.2344 35.402-7.5117 2.8008 0.20312 5.2461-1.7383 5.5234-4.5039 0.28125-2.7695-1.7344-5.2383-4.5-5.5273-17.418-1.7695-30.887 3.1289-38.984 7.4297l1.1484-47.957c0.070312-2.7852-2.1328-5.0938-4.918-5.1602h-0.12109c-2.7266 0-4.9688 2.1758-5.0312 4.918l-1.0977 45.734-15.25-15.25c-3.4219-6.4023-5.1836-12.66-5.1836-18.602 0-19.941 19.234-37.527 26.695-43.602 7.4609 6.0703 26.691 23.66 26.691 43.602 0 1.0078-0.070313 2-0.16797 2.9961-0.14062 1.4961 0.38672 2.9766 1.4492 4.0391 1.0625 1.0664 2.5586 1.6016 4.0391 1.4609 0.99219-0.10156 1.9961-0.16797 3.0078-0.16797 19.941 0 37.527 19.234 43.602 26.695-3.957 4.8945-12.82 14.773-24.07 21.055z"/>
  <path d="m508.57 389.82c0.87109 0.61328 1.8906 0.92188 2.9023 0.92188 1.0117 0 2.0312-0.30859 2.9023-0.92188 1.3555-0.95312 32.633-23.336 33.832-52.375 29.039-1.1992 51.418-32.477 52.375-33.836 1.2305-1.7422 1.2305-4.0703 0-5.8047-0.48047-0.68359-11.074-15.531-26.953-25.336 9.3359-21.07 5.0273-46.914 4.8281-48.082-0.36328-2.1016-2.0039-3.7422-4.1055-4.1055-1.1484-0.20703-26.719-4.4531-47.723 4.6719-9.793-15.109-23.82-25.102-24.461-25.555-1.7422-1.2305-4.0664-1.2305-5.8047 0-1.3555 0.95312-32.637 23.336-33.832 52.375-29.039 1.1953-51.418 32.477-52.375 33.836-1.2305 1.7422-1.2305 4.0664 0 5.8047 0.97266 1.3789 24.219 33.867 54.082 33.867 1.1953 0 2.4023-0.16016 3.6016-0.26172l-25.805 25.805c-1.9688 1.9688-1.9688 5.1523 0 7.125 0.98438 0.98438 2.2734 1.4766 3.5625 1.4766 1.2891 0 2.5781-0.49219 3.5625-1.4766l25.801-25.801c-0.10547 1.2031-0.26172 2.4102-0.26172 3.6016 0.003906 29.852 32.488 53.098 33.871 54.07zm-44.332-74.621c-19.941 0-37.527-19.23-43.602-26.691 6.0703-7.4609 23.652-26.695 43.594-26.695 1.0117 0 2.0156 0.070312 3.0078 0.16797 1.4922 0.14453 2.9727-0.39453 4.0352-1.457s1.5938-2.5391 1.457-4.0352c-0.097657-0.99219-0.16016-1.9961-0.16016-3.0117 0-19.941 19.242-37.535 26.695-43.602 4.8633 3.9453 14.723 12.781 21.027 24.078 1.3516 2.418 4.4023 3.2852 6.8203 1.9648 14.445-7.9336 33.895-6.9883 41.875-6.1719 0.83594 8.0469 1.8047 27.734-6.3867 42.266-0.67187 1.1836-0.83203 2.6016-0.44141 3.9062 0.38672 1.3047 1.2891 2.4023 2.5 3.0312 11.895 6.2227 21.316 16.703 25.438 21.766-6.0703 7.4609-23.652 26.695-43.602 26.695-1.0117 0-2.0156-0.070312-3.0078-0.16797-1.4766-0.11719-2.9766 0.39453-4.0391 1.4609-1.0586 1.0625-1.5938 2.543-1.4492 4.0391 0.097656 0.99219 0.16797 1.9883 0.16797 2.9961 0 19.941-19.23 37.527-26.691 43.602-7.4609-6.0703-26.695-23.66-26.695-43.602 0-5.9414 1.7695-12.195 5.1836-18.602l15.715-15.715 1.1172 46.68c0.066406 2.7422 2.3086 4.918 5.0312 4.918h0.12109c2.7812-0.070312 4.9844-2.3789 4.918-5.1602l-1.1484-47.957c8.0898 4.3008 21.562 9.1953 38.984 7.4297 2.7656-0.28906 4.7812-2.7539 4.5-5.5273-0.28125-2.7656-2.7148-4.7461-5.5234-4.5039-17.176 1.7617-29.918-4.207-35.98-7.8984l26.781-26.781c1.9688-1.9688 1.9688-5.1523 0-7.125-1.9688-1.9688-5.1523-1.9688-7.125 0l-26.66 26.66c-3.7148-6.293-9.2344-18.777-7.543-35.379 0.28125-2.7695-1.7344-5.2383-4.5-5.5273-2.8203-0.23828-5.2461 1.7383-5.5234 4.5039-1.7773 17.422 3.1289 30.895 7.4258 38.984l-47.957-1.1523c-2.7656-0.03125-5.0898 2.1367-5.1523 4.918-0.070312 2.7852 2.1328 5.0938 4.918 5.1602l45.73 1.0977-15.25 15.246c-6.4023 3.4219-12.66 5.1914-18.605 5.1914z"/>
  <path d="m439.67 400c0-21.879-17.801-39.676-39.676-39.676-21.871 0-39.672 17.793-39.672 39.676 0 21.879 17.801 39.676 39.676 39.676 21.875-0.003906 39.672-17.797 39.672-39.676zm-39.672 29.598c-16.32 0-29.598-13.281-29.598-29.598 0-16.32 13.281-29.598 29.598-29.598 16.32 0 29.598 13.281 29.598 29.598s-13.281 29.598-29.598 29.598z"/>
 </g>
</svg>