<?xml version="1.0" encoding="UTF-8"?>
<!-- The Best Svg Icon site in the world: iconSvg.co, Visit us! https://iconsvg.co -->
<svg fill="#000000" width="800px" height="800px" version="1.1" viewBox="144 144 512 512" xmlns="http://www.w3.org/2000/svg">
 <g>
  <path d="m599.63 592.44h-44.031v-31.145c1.2656 0.085937 2.7305 0.15234 4.3672 0.15234 8.2031 0 20.309-1.5586 28.305-9.5508 12.801-12.809 9.0938-36.137 8.9258-37.125-0.35156-2.125-2.0156-3.7891-4.1406-4.1406-0.98828-0.17188-24.32-3.875-37.121 8.9258-0.12109 0.12109-0.21484 0.25781-0.33203 0.38281v-19.836c1.0547 0.054688 2.2266 0.097657 3.4961 0.097657 8.2031 0 20.309-1.5586 28.305-9.5508 12.801-12.797 9.0938-36.133 8.9258-37.121-0.35156-2.125-2.0156-3.7891-4.1406-4.1406-0.97266-0.16797-23.688-3.75-36.586 8.457v-3.6562c5.1445-4.2383 17.828-16.176 17.828-30.918 0-18.105-19.121-31.988-19.938-32.566-1.7539-1.25-4.1055-1.25-5.8594 0-0.81641 0.57812-19.938 14.461-19.938 32.566 0 14.742 12.68 26.684 17.828 30.918v24.789c-0.37109-0.42187-0.71094-0.86719-1.1172-1.2695-12.801-12.809-36.133-9.1055-37.121-8.9258-2.125 0.35156-3.7891 2.0156-4.1406 4.1406-0.16797 0.98828-3.875 24.324 8.9258 37.121 7.9961 8 20.102 9.5508 28.305 9.5508 1.9883 0 3.7344-0.089844 5.1484-0.20703v19.844c-0.085938-0.089844-0.15625-0.19141-0.24609-0.28125-12.797-12.801-36.129-9.0977-37.121-8.9258-2.125 0.35156-3.7891 2.0156-4.1406 4.1406-0.16797 0.98828-3.875 24.32 8.9258 37.125 7.9961 7.9961 20.102 9.5508 28.305 9.5508 1.6016 0 3.0312-0.058594 4.2812-0.14453v11.75l-89.273-0.007812v-31.145c1.2656 0.085937 2.7266 0.15234 4.3672 0.15234 8.2031 0 20.309-1.5586 28.305-9.5508 12.801-12.809 9.0938-36.137 8.9258-37.125-0.35156-2.125-2.0156-3.7891-4.1406-4.1406-0.99219-0.17188-24.328-3.875-37.121 8.9258-0.12109 0.12109-0.21484 0.25781-0.33203 0.38281v-19.836c1.0547 0.054688 2.2266 0.097657 3.4961 0.097657 8.2031 0 20.309-1.5586 28.305-9.5508 12.801-12.797 9.0938-36.133 8.9258-37.121-0.35156-2.125-2.0156-3.7891-4.1406-4.1406-0.97656-0.16797-23.688-3.75-36.586 8.457v-3.6562c5.1445-4.2383 17.828-16.176 17.828-30.918 0-18.105-19.121-31.988-19.938-32.566-1.7539-1.25-4.1055-1.25-5.8594 0-0.81641 0.57812-19.938 14.461-19.938 32.566 0 14.742 12.68 26.684 17.828 30.918v24.789c-0.37109-0.42187-0.71094-0.86719-1.1172-1.2695-12.809-12.809-36.129-9.0938-37.125-8.9258-2.125 0.35156-3.7891 2.0156-4.1406 4.1406-0.16797 0.98828-3.875 24.324 8.9258 37.121 7.9961 8 20.102 9.5508 28.305 9.5508 1.9883 0 3.7344-0.089844 5.1484-0.20703v19.844c-0.085938-0.089844-0.15625-0.19141-0.24609-0.28125-12.801-12.801-36.125-9.0977-37.121-8.9258-2.125 0.35156-3.7891 2.0156-4.1406 4.1406-0.16797 0.98828-3.875 24.32 8.9258 37.125 7.9961 7.9961 20.102 9.5508 28.305 9.5508 1.6016 0 3.0312-0.058594 4.2812-0.14453v11.75l-88.48-0.007812v-31.145c1.2656 0.085937 2.7266 0.15234 4.3672 0.15234 8.2031 0 20.309-1.5586 28.305-9.5508 12.801-12.809 9.0938-36.137 8.9258-37.125-0.35156-2.125-2.0156-3.7891-4.1406-4.1406-0.99609-0.17188-24.324-3.875-37.125 8.9258-0.12109 0.12109-0.21484 0.25781-0.33203 0.38281v-19.836c1.0547 0.054688 2.2266 0.097657 3.4961 0.097657 8.2031 0 20.309-1.5586 28.305-9.5508 12.801-12.797 9.0938-36.133 8.9258-37.121-0.35156-2.125-2.0156-3.7891-4.1406-4.1406-0.97266-0.16016-23.684-3.75-36.586 8.457v-3.6562c5.1445-4.2383 17.828-16.176 17.828-30.918 0-18.105-19.121-31.988-19.938-32.566-1.7539-1.25-4.1055-1.25-5.8594 0-0.81641 0.57812-19.938 14.461-19.938 32.566 0 14.742 12.68 26.684 17.828 30.918v24.789c-0.37109-0.42187-0.71094-0.86719-1.1172-1.2695-12.801-12.809-36.137-9.1055-37.121-8.9258-2.125 0.35156-3.7891 2.0156-4.1406 4.1406-0.16797 0.98828-3.875 24.324 8.9258 37.121 7.9961 8 20.102 9.5508 28.305 9.5508 1.9883 0 3.7344-0.089844 5.1445-0.20703v19.844c-0.085938-0.089844-0.15625-0.19141-0.24219-0.27734-12.801-12.801-36.133-9.0977-37.125-8.9258-2.125 0.35156-3.7891 2.0156-4.1406 4.1406-0.16797 0.98828-3.875 24.32 8.9258 37.125 7.9961 7.9961 20.098 9.5508 28.301 9.5508 1.6016 0 3.0312-0.058594 4.2812-0.14453v11.75l-88.469-0.003907v-31.145c1.2656 0.085938 2.7266 0.15234 4.3672 0.15234 8.2031 0 20.309-1.5586 28.305-9.5508 12.801-12.809 9.0938-36.137 8.9258-37.125-0.35156-2.125-2.0156-3.7891-4.1406-4.1406-0.99609-0.17188-24.328-3.875-37.121 8.9258-0.12109 0.12109-0.21484 0.25781-0.33203 0.38281v-19.836c1.0547 0.054687 2.2266 0.097656 3.4961 0.097656 8.2031 0 20.309-1.5586 28.305-9.5508 12.801-12.797 9.0938-36.133 8.9258-37.121-0.35156-2.125-2.0156-3.7891-4.1406-4.1406-0.97656-0.16797-23.688-3.75-36.586 8.457v-3.6562c5.1445-4.2383 17.828-16.176 17.828-30.918 0-18.105-19.121-31.988-19.938-32.566-1.7539-1.25-4.1055-1.25-5.8594 0-0.81641 0.57812-19.938 14.461-19.938 32.566 0 14.742 12.68 26.684 17.828 30.918v24.789c-0.37109-0.42188-0.71094-0.86719-1.1172-1.2695-12.809-12.809-36.145-9.1055-37.121-8.9258-2.125 0.35156-3.7891 2.0156-4.1406 4.1406-0.16797 0.98828-3.875 24.324 8.9258 37.121 7.9961 8 20.102 9.5508 28.305 9.5508 1.9883 0 3.7344-0.089843 5.1484-0.20703v19.844c-0.085937-0.089843-0.15625-0.19141-0.24609-0.28125-12.801-12.801-36.129-9.0977-37.121-8.9258-2.125 0.35156-3.7891 2.0156-4.1406 4.1406-0.16797 0.98828-3.875 24.32 8.9258 37.125 7.9961 7.9961 20.102 9.5508 28.305 9.5508 1.6016 0 3.0312-0.058594 4.2812-0.14453v11.75h-42.414c-2.7812 0-5.0391 2.2539-5.0391 5.0391 0 2.7852 2.2578 5.0391 5.0391 5.0391h392.97c2.7812 0 5.0391-2.2539 5.0391-5.0391 0.007812-2.7969-2.2617-5.0547-5.0469-5.0547zm-36.57-65.758c6.6445-6.6445 18.559-6.8633 24.605-6.4883 0.42969 6.8633-0.28125 18.344-6.5195 24.582-6.6367 6.625-18.5 6.8867-24.582 6.4844-0.375-6.0625-0.14062-17.941 6.4961-24.578zm-19.285-17.285c-6.0625 0.39844-17.945 0.14453-24.582-6.4883-6.6445-6.6445-6.8672-18.559-6.4883-24.605 6.8398-0.43359 18.332 0.27734 24.574 6.5195 6.6367 6.6289 6.8711 18.52 6.4961 24.574zm0.86328 61.281c-6.8711 0.42188-18.344-0.28125-24.574-6.5156-6.6289-6.6367-6.8672-18.523-6.4883-24.582 6.0742-0.38672 17.945-0.14062 24.574 6.4883 6.6523 6.6484 6.8711 18.562 6.4883 24.609zm17.551-105.25c6.6367-6.6367 18.52-6.8867 24.574-6.4883 0.37891 6.0547 0.14453 17.945-6.4883 24.574-6.6367 6.6289-18.516 6.8906-24.582 6.4883-0.046874-0.71875-0.082031-1.5273-0.097656-2.3945v-0.78125c-0.042968-6.418 0.96875-15.777 6.5938-21.398zm-24.418-42.172c0-9.4023 8.2656-17.98 12.812-21.992 5.1523 4.5508 12.766 13.168 12.766 21.992 0 9.3945-8.2656 17.977-12.812 21.984-5.1562-4.5469-12.766-13.16-12.766-21.984zm-74.059 103.42c6.6289-6.6289 18.496-6.8789 24.574-6.4883 0.37891 6.0547 0.14453 17.945-6.4883 24.582-6.6289 6.625-18.5 6.8867-24.582 6.4844-0.37109-6.0625-0.13281-17.941 6.4961-24.578zm-19.285-17.285c-6.0547 0.39844-17.945 0.14453-24.574-6.4883-6.6367-6.6289-6.8672-18.52-6.4922-24.574 6.0664-0.40625 17.945-0.14062 24.582 6.4883 6.6289 6.6289 6.8672 18.52 6.4844 24.574zm0.87109 61.281c-6.8906 0.43359-18.344-0.28125-24.574-6.5156-6.6367-6.6367-6.8672-18.523-6.4883-24.582 6.0508-0.37891 17.945-0.14062 24.574 6.4883 6.6445 6.6484 6.8672 18.562 6.4883 24.609zm17.547-105.25c6.6367-6.6367 18.523-6.8867 24.574-6.4883 0.37891 6.0547 0.14062 17.945-6.4922 24.574-6.6367 6.6289-18.516 6.8906-24.574 6.4883-0.046875-0.71875-0.082031-1.5273-0.097657-2.3945v-0.78125c-0.042968-6.418 0.96875-15.777 6.5898-21.398zm-24.418-42.172c0-9.4023 8.2656-17.98 12.812-21.992 5.1523 4.5508 12.766 13.168 12.766 21.992 0 9.3945-8.2656 17.977-12.812 21.984-5.1523-4.5469-12.766-13.16-12.766-21.984zm-73.266 103.42c6.6445-6.6367 18.551-6.8477 24.609-6.4883 0.42969 6.8633-0.28906 18.344-6.5195 24.582-6.6367 6.6289-18.516 6.8867-24.574 6.4844-0.38281-6.0625-0.14844-17.941 6.4844-24.578zm-19.285-17.254c-6.8789 0.4375-18.34-0.28125-24.574-6.5195-6.6445-6.6445-6.8672-18.559-6.4883-24.605 6.8477-0.43359 18.332 0.27734 24.574 6.5195 6.6445 6.6445 6.8672 18.559 6.4883 24.605zm0.87109 61.219c-6.082 0.40234-17.945 0.14453-24.574-6.4844-6.6367-6.6367-6.8672-18.523-6.4922-24.582 6.0664-0.38672 17.945-0.14062 24.582 6.4883 6.625 6.6367 6.8633 18.523 6.4844 24.578zm17.543-105.21c6.6367-6.6367 18.523-6.8867 24.582-6.4883 0.37891 6.0547 0.14062 17.945-6.4922 24.574-6.6406 6.6289-18.516 6.8906-24.574 6.4883-0.046875-0.73047-0.082032-1.5508-0.10156-2.4336v-0.55469c-0.070312-6.4219 0.91406-15.914 6.5859-21.586zm-24.414-42.172c0-9.4023 8.2656-17.98 12.812-21.992 5.1523 4.5508 12.766 13.168 12.766 21.992 0 9.3945-8.2656 17.977-12.812 21.984-5.1523-4.5469-12.766-13.16-12.766-21.984zm-73.266 103.42c6.6289-6.6289 18.488-6.8789 24.574-6.4883 0.37891 6.0547 0.14453 17.945-6.4883 24.582-6.6367 6.625-18.504 6.8867-24.582 6.4844-0.37109-6.0625-0.13672-17.941 6.4961-24.578zm-19.285-17.285c-6.0664 0.40625-17.945 0.14062-24.582-6.4883-6.6367-6.6289-6.8672-18.52-6.4883-24.574 6.0664-0.40625 17.941-0.14062 24.574 6.4883 6.6445 6.6289 6.875 18.52 6.4961 24.574zm0.87109 61.281c-6.8906 0.43359-18.344-0.28125-24.574-6.5156-6.6367-6.6367-6.8672-18.523-6.4883-24.582 6.0508-0.37891 17.945-0.14062 24.574 6.4883 6.6445 6.6484 6.8672 18.562 6.4883 24.609zm17.543-105.25c6.6367-6.6367 18.523-6.8867 24.574-6.4883 0.37891 6.0547 0.14062 17.945-6.4883 24.574-6.6406 6.6289-18.523 6.8906-24.582 6.4883-0.046875-0.71875-0.082032-1.5273-0.097656-2.3945v-0.78125c-0.039063-6.418 0.97266-15.777 6.5938-21.398zm-24.414-42.172c0-9.4023 8.2656-17.98 12.812-21.992 5.1523 4.5508 12.766 13.168 12.766 21.992 0 9.3945-8.2656 17.977-12.812 21.984-5.1523-4.5469-12.766-13.16-12.766-21.984z"/>
  <path d="m436.73 281.33c0-20.234-16.461-36.688-36.688-36.688-20.227 0-36.688 16.461-36.688 36.688 0 20.227 16.461 36.684 36.688 36.684 20.227-0.003906 36.688-16.457 36.688-36.684zm-36.688 26.609c-14.676 0-26.609-11.934-26.609-26.605 0-14.676 11.934-26.609 26.609-26.609 14.676 0 26.609 11.934 26.609 26.609 0 14.668-11.934 26.605-26.609 26.605z"/>
  <path d="m405.08 225.23v-19.488c0-2.7852-2.2578-5.0391-5.0391-5.0391s-5.0391 2.2539-5.0391 5.0391v19.488c0 2.7852 2.2578 5.0391 5.0391 5.0391s5.0391-2.2578 5.0391-5.0391z"/>
  <path d="m372.27 237.63c0.84766 0 1.7031-0.21094 2.4883-0.66016 2.418-1.375 3.2578-4.457 1.8828-6.8711l-9.6523-16.934c-1.3789-2.4141-4.457-3.2578-6.8711-1.8828-2.418 1.375-3.2578 4.457-1.8828 6.8711l9.6523 16.934c0.92578 1.6328 2.6289 2.543 4.3828 2.543z"/>
  <path d="m349.2 257.08c0.80469 0.48047 1.6875 0.70703 2.5586 0.70703 1.7227 0 3.4023-0.88281 4.3359-2.4688 1.4219-2.3984 0.62891-5.4883-1.7695-6.9023l-16.773-9.9297c-2.3867-1.4141-5.4883-0.62891-6.9023 1.7695-1.4219 2.3984-0.62891 5.4883 1.7695 6.9023z"/>
  <path d="m324.46 275.04c-2.7422 0-4.9883 2.2031-5.0391 4.9531-0.046875 2.7812 2.1719 5.0742 4.9531 5.125l19.488 0.32422h0.085937c2.7422 0 4.9883-2.2031 5.0391-4.9531 0.046875-2.7812-2.1719-5.0742-4.9531-5.125l-19.488-0.32422h-0.085938z"/>
  <path d="m333.76 322.7c0.82031 0 1.6484-0.19531 2.4141-0.62109l17.09-9.3672c2.4375-1.3398 3.3359-4.3984 1.9961-6.8359-1.3398-2.4453-4.4102-3.3438-6.8359-1.9961l-17.09 9.3672c-2.4375 1.3398-3.3359 4.3984-1.9961 6.8359 0.91797 1.6758 2.6406 2.6172 4.4219 2.6172z"/>
  <path d="m357.8 350.01c0.82812 0.50781 1.7344 0.74609 2.6367 0.74609 1.6914 0 3.3438-0.85156 4.2969-2.4023l10.207-16.605c1.457-2.3672 0.71484-5.4727-1.6523-6.9258-2.3711-1.4648-5.4727-0.72656-6.9336 1.6523l-10.207 16.605c-1.457 2.3672-0.71484 5.4727 1.6523 6.9297z"/>
  <path d="m393.14 337.23-0.64844 19.477c-0.097656 2.7812 2.0859 5.1133 4.8672 5.1992 0.054687 0.003906 0.10938 0.003906 0.17188 0.003906 2.707 0 4.9414-2.1445 5.0312-4.8711l0.64844-19.477c0.097657-2.7812-2.0859-5.1133-4.8672-5.1992-2.7812-0.26172-5.1094 2.0859-5.2031 4.8672z"/>
  <path d="m430.8 350.56c0.90234 1.7148 2.6484 2.6914 4.4648 2.6914 0.78906 0 1.5938-0.1875 2.3438-0.57812 2.4648-1.3008 3.4062-4.3438 2.1094-6.8047l-9.082-17.246c-1.293-2.4531-4.3359-3.4023-6.8047-2.1094-2.4648 1.3008-3.4062 4.3438-2.1094 6.8047z"/>
  <path d="m444.62 315.76 16.43 10.484c0.83984 0.53516 1.7773 0.78906 2.707 0.78906 1.6641 0 3.2891-0.82031 4.2539-2.3281 1.4961-2.3477 0.8125-5.4609-1.5352-6.957l-16.43-10.484c-2.3438-1.4961-5.4609-0.80469-6.957 1.5352-1.5 2.3516-0.8125 5.4648 1.5312 6.9609z"/>
  <path d="m475.54 290.14c2.6641 0 4.8906-2.0898 5.0273-4.7852 0.14062-2.7812-2-5.1445-4.7812-5.2852l-19.469-0.97266c-2.7266-0.20312-5.1445 1.9961-5.2812 4.7812-0.14062 2.7812 2 5.1445 4.7812 5.2852l19.469 0.97266c0.082032 0.003906 0.16797 0.003906 0.25391 0.003906z"/>
  <path d="m445.61 258.29c0.88672 1.7578 2.6602 2.7656 4.5039 2.7656 0.76172 0 1.543-0.17188 2.2656-0.53906l17.391-8.793c2.4844-1.2539 3.4766-4.2891 2.2227-6.7695-1.2578-2.4844-4.293-3.4805-6.7695-2.2227l-17.391 8.793c-2.4805 1.2461-3.4766 4.2812-2.2227 6.7656z"/>
  <path d="m444.54 214.1c-2.3164-1.5352-5.4531-0.90234-6.9844 1.4219l-10.758 16.254c-1.5352 2.3164-0.90234 5.4453 1.4219 6.9844 0.85156 0.5625 1.8203 0.83594 2.7773 0.83594 1.6328 0 3.2383-0.78906 4.207-2.2578l10.758-16.254c1.5352-2.3242 0.90234-5.4531-1.4219-6.9844z"/>
 </g>
</svg>