<?xml version="1.0" encoding="UTF-8"?>
<!-- The Best Svg Icon site in the world: iconSvg.co, Visit us! https://iconsvg.co -->
<svg fill="#000000" width="800px" height="800px" version="1.1" viewBox="144 144 512 512" xmlns="http://www.w3.org/2000/svg">
 <path d="m625.86 180.31c-0.625-3.1133-3.0625-5.5508-6.1797-6.1719l-35.426-7.0859v0.003906c-26.688-5.3789-54.293-4.0625-80.352 3.8242-26.059 7.8867-49.758 22.102-68.988 41.375l-58.527 58.496c-1.4844 1.4805-2.3203 3.4883-2.3203 5.582 0 2.0977 0.83594 4.1055 2.3203 5.582l49.594 49.516-162.34 162.34-26.961-5.3984v-0.003906c-7.7422-1.5508-15.75 0.875-21.332 6.4609l-25.582 25.555-23.617 23.617v-0.003906c-3.0742 3.0742-3.0742 8.0586 0 11.133l78.719 78.719c3.0742 3.0742 8.0586 3.0742 11.133 0l49.145-49.145c5.5859-5.582 8.0117-13.59 6.4648-21.332l-5.3984-26.961 162.34-162.34 49.531 49.539c3.0742 3.0742 8.0586 3.0742 11.133 0l58.504-58.496c19.273-19.227 33.492-42.922 41.383-68.977 7.8945-26.055 9.2148-53.656 3.8516-80.348zm-166.54 140.01c4.4375-4.4141 10.438-6.9023 16.699-6.918h10.57v10.57c0.019531 6.2695-2.4688 12.285-6.9102 16.707l-40.32 40.312-20.359-20.359zm-208.89 296.83-67.59-67.59 12.484-12.484 67.59 67.59zm43.578-43.578-19.961 19.961-67.59-67.59 19.965-19.961c1.8594-1.8438 4.5117-2.6484 7.082-2.1562l28.758 5.7539 28.117 28.117 5.7539 28.758h0.003907c0.52344 2.5781-0.27344 5.2461-2.1289 7.1172zm3.6562-50.887-20.359-20.355 12.484-12.484 20.359 20.355zm23.617-23.617-20.359-20.355 106.95-106.95 20.355 20.355zm255.32-145.12-52.938 52.934-43.965-43.965 11.109-11.109h-0.003906c7.4062-7.3672 11.555-17.391 11.527-27.836v-18.441c0-2.0898-0.83203-4.0898-2.3086-5.5664-1.4727-1.4766-3.4766-2.3047-5.5664-2.3047h-18.441c-10.445-0.027343-20.465 4.125-27.828 11.531l-11.109 11.109-43.973-43.98 52.934-52.934c35.324-35.422 86.047-50.793 135.09-40.934l30.316 6.0625 6.0625 30.316v-0.003907c9.8672 49.051-5.4883 99.781-40.906 135.12z"/>
</svg>