<?xml version="1.0" encoding="UTF-8"?>
<!-- The Best Svg Icon site in the world: iconSvg.co, Visit us! https://iconsvg.co -->
<svg fill="#000000" width="800px" height="800px" version="1.1" viewBox="144 144 512 512" xmlns="http://www.w3.org/2000/svg">
 <g>
  <path d="m203.5 601.52h392.97c2.7812 0 5.0391-2.2539 5.0391-5.0391s-2.2539-5.0391-5.0391-5.0391h-102.64v-99.117c10.07 6.0469 22.465 7.4414 33.895 3.2812 13.414-4.8867 22.992-16.449 25.453-30.238 14.008-0.03125 27.059-7.4531 34.199-19.812 7.1406-12.363 7.043-27.379 0.0625-39.527 10.711-9.0234 15.938-23.098 13.457-37.16-2.4766-14.062-12.203-25.5-25.359-30.312 2.4062-13.801-2.6406-27.945-13.578-37.125-10.934-9.1719-25.742-11.695-38.914-6.918-7.0273-12.117-19.984-19.711-34.258-19.711-10.84 0-21.238 4.5312-28.664 12.293-4.7734-4.3516-10.43-7.7656-16.727-9.9219 3.3398-17.02-2.7422-34.602-16.246-45.93-13.5-11.34-31.883-14.281-48.059-8.0234-8.3789-15.188-24.344-24.746-41.965-24.746-17.625 0-33.59 9.5586-41.973 24.746-16.184-6.2578-34.562-3.3125-48.055 8.0195-13.504 11.332-19.59 28.914-16.246 45.934-16.41 5.6172-28.602 19.684-31.66 37.039-3.0586 17.359 3.5859 34.738 17.086 45.629-8.9648 14.855-9.2617 33.461-0.44922 48.723 8.8125 15.262 24.977 24.172 42.418 23.977 2.6797 17.137 14.414 31.582 30.977 37.609 14.52 5.2812 30.367 3.2148 42.867-5.0703l-0.003906 126.36h-128.59c-2.7812 0-5.0391 2.2539-5.0391 5.0391s2.2539 5.0391 5.0391 5.0391zm285.3-316.64c11.926 0 22.621 7.1055 27.242 18.105 0.54297 1.293 1.6055 2.3008 2.9219 2.7812 1.3203 0.48828 2.7773 0.39453 4.0234-0.25 10.609-5.457 23.371-4.0312 32.504 3.6367 9.1367 7.6719 12.762 19.988 9.2305 31.387-0.41406 1.3438-0.25391 2.793 0.44922 4.0117 0.69922 1.2148 1.8789 2.0859 3.2461 2.3945 11.633 2.6367 20.488 11.93 22.559 23.68 2.0703 11.742-3.0703 23.508-13.098 29.969-1.1797 0.76172-1.9883 1.9766-2.2344 3.3594-0.24219 1.3828 0.10156 2.8047 0.94922 3.9219 7.2148 9.5039 8.0234 22.316 2.0547 32.648-5.9609 10.328-17.445 16.031-29.297 14.539-1.4102-0.16406-2.7969 0.23438-3.8711 1.1406-1.0742 0.89844-1.7227 2.2109-1.793 3.6094-0.57812 11.918-8.1953 22.25-19.406 26.332-11.211 4.0742-23.691 1.0547-31.789-7.6992-1.9102-2.0547-5.4844-2.0547-7.3945 0-8.1055 8.7578-20.59 11.77-31.789 7.6992-11.207-4.082-18.828-14.414-19.406-26.332-0.070313-1.4023-0.71875-2.7109-1.793-3.6094s-2.4883-1.3008-3.8711-1.1406c-6.707 0.83594-13.5-0.69141-19.195-4.1836 3.5039-5.4922 5.9297-11.703 6.9688-18.336 17.332 0.30859 33.605-8.707 42.414-23.977 8.8164-15.262 8.5195-33.871-0.44531-48.723 13.5-10.887 20.145-28.27 17.086-45.629-1.2695-7.1992-4.1836-13.777-8.2422-19.477 5.6016-6.2812 13.457-9.8594 21.977-9.8594zm-196.12 175.8c-14.367-5.2305-24.133-18.484-24.879-33.762-0.070313-1.4023-0.72266-2.7109-1.7969-3.6094-1.0742-0.90625-2.4609-1.3008-3.8711-1.1406-15.152 1.8828-29.922-5.3984-37.566-18.641-7.6445-13.238-6.6094-29.668 2.6406-41.855 0.84766-1.1172 1.1914-2.5391 0.94922-3.9219-0.24219-1.3828-1.0547-2.5977-2.2344-3.3594-12.855-8.2852-19.449-23.371-16.793-38.426s14.008-26.977 28.926-30.367c1.3672-0.31641 2.5469-1.1797 3.2461-2.3945 0.69922-1.2148 0.86328-2.668 0.44922-4.0117-4.5234-14.613 0.12109-30.402 11.836-40.23 11.711-9.832 28.066-11.672 41.676-4.668 1.2461 0.63281 2.7148 0.74219 4.0234 0.25 1.3203-0.47656 2.3789-1.4844 2.9219-2.7812 5.9297-14.102 19.641-23.215 34.934-23.215 15.289 0 29 9.1133 34.926 23.211 0.54297 1.293 1.6055 2.3008 2.9219 2.7812 1.3086 0.48828 2.7773 0.39062 4.0234-0.25 13.602-6.9922 29.965-5.1602 41.68 4.668 11.711 9.832 16.355 25.617 11.836 40.23-0.41406 1.3438-0.25391 2.793 0.44922 4.0117 0.69922 1.2148 1.8789 2.082 3.2461 2.3945 14.918 3.3906 26.27 15.312 28.926 30.367 2.6562 15.055-3.9375 30.141-16.793 38.426-1.1797 0.76172-1.9883 1.9766-2.2344 3.3594-0.24219 1.3828 0.10156 2.8047 0.94922 3.9219 9.25 12.188 10.285 28.613 2.6367 41.855-7.6445 13.246-22.406 20.535-37.562 18.641-1.4062-0.16406-2.8008 0.23438-3.8711 1.1406-1.0781 0.89844-1.7266 2.2109-1.7969 3.6094-0.74609 15.277-10.512 28.531-24.879 33.762-14.367 5.2266-30.367 1.3516-40.762-9.8711-0.95312-1.0273-2.293-1.6133-3.6992-1.6133-1.4023 0-2.7422 0.58594-3.6992 1.6133-10.387 11.23-26.391 15.098-40.758 9.875zm49.496 4.3516c7.8711 5.2266 17.055 8.0234 26.426 8.0234 5.5 0 11.059-0.94922 16.438-2.9062 6.8164-2.4805 12.75-6.4453 17.637-11.375 6.4414 4.2461 14.027 6.5547 21.742 6.5898 2.457 13.797 12.035 25.363 25.453 30.25 4.4414 1.6172 9.0352 2.4023 13.582 2.4023 7.1406 0 14.16-1.9609 20.312-5.6523v99.078h-141.59z"/>
  <path d="m337.14 307.64c14.652 0 26.574-11.922 26.574-26.578 0-14.652-11.922-26.574-26.574-26.574-14.652 0-26.578 11.922-26.578 26.574 0 14.656 11.922 26.578 26.578 26.578zm0-43.078c9.0977 0 16.5 7.3984 16.5 16.496 0 9.0977-7.4023 16.5-16.5 16.5-9.0977 0-16.5-7.4062-16.5-16.5-0.003907-9.0938 7.3984-16.496 16.5-16.496z"/>
  <path d="m280.8 312.84c-14.652 0-26.574 11.922-26.574 26.578-0.003906 14.656 11.918 26.578 26.574 26.578 14.652 0 26.578-11.922 26.578-26.578-0.003906-14.656-11.926-26.578-26.578-26.578zm0 43.078c-9.0977 0-16.5-7.4062-16.5-16.5 0-9.0977 7.4023-16.5 16.5-16.5 9.0977 0 16.5 7.4062 16.5 16.5 0 9.0977-7.4023 16.5-16.5 16.5z"/>
  <path d="m393.47 365.99c14.652 0 26.574-11.922 26.574-26.578s-11.922-26.578-26.574-26.578-26.578 11.922-26.578 26.578 11.926 26.578 26.578 26.578zm0-43.082c9.0977 0 16.5 7.4062 16.5 16.5 0 9.1016-7.4023 16.504-16.5 16.504s-16.5-7.4062-16.5-16.5c0-9.0977 7.4023-16.504 16.5-16.504z"/>
  <path d="m363.71 395.91c0-14.656-11.922-26.578-26.574-26.578-14.652 0-26.578 11.922-26.578 26.578 0 14.652 11.922 26.574 26.578 26.574 14.652-0.003907 26.574-11.922 26.574-26.574zm-43.078 0c0-9.0977 7.4023-16.5 16.5-16.5 9.0977 0 16.5 7.4062 16.5 16.5 0 9.0977-7.4023 16.496-16.5 16.496-9.0977 0-16.5-7.3984-16.5-16.496z"/>
  <path d="m521.09 387.53c14.652 0 26.574-11.922 26.574-26.578s-11.922-26.578-26.574-26.578c-14.656 0-26.578 11.922-26.578 26.578s11.922 26.578 26.578 26.578zm0-43.078c9.0977 0 16.5 7.4062 16.5 16.5 0 9.0977-7.4023 16.5-16.5 16.5s-16.5-7.4023-16.5-16.5 7.4023-16.5 16.5-16.5z"/>
  <path d="m494.64 461.12c14.652 0 26.574-11.922 26.574-26.574 0-14.656-11.922-26.578-26.574-26.578-14.652 0-26.574 11.922-26.574 26.578 0 14.652 11.922 26.574 26.574 26.574zm0-43.074c9.0977 0 16.5 7.4062 16.5 16.5 0 9.0977-7.4023 16.496-16.5 16.496-9.0977 0-16.5-7.3984-16.5-16.496 0-9.0977 7.4023-16.5 16.5-16.5z"/>
 </g>
</svg>