<?xml version="1.0" encoding="UTF-8"?>
<!-- The Best Svg Icon site in the world: iconSvg.co, Visit us! https://iconsvg.co -->
<svg fill="#000000" width="800px" height="800px" version="1.1" viewBox="144 144 512 512" xmlns="http://www.w3.org/2000/svg">
 <path d="m486.59 289.79h-39.359v-62.977c0-3.1016-0.91406-6.1406-2.6445-8.7383l-31.488-47.23c-2.9141-4.375-7.8398-7.0078-13.098-7.0078s-10.188 2.6289-13.098 7.0078l-31.488 47.23c-1.7305 2.5977-2.6445 5.6367-2.6445 8.7383v62.977h-39.359v-62.977c0-3.1016-0.91406-6.1406-2.6445-8.7383l-31.488-47.23c-2.9141-4.375-7.8398-7.0078-13.098-7.0078-5.2578 0-10.188 2.6289-13.098 7.0078l-31.488 47.23c-1.7305 2.5977-2.6445 5.6367-2.6445 8.7383v62.977h-39.359c-8.6914 0-15.742 7.0547-15.742 15.742v70.848c0 8.6914 7.0547 15.742 15.742 15.742h39.359v55.105h-39.359c-8.6914 0-15.742 7.0547-15.742 15.742v70.848c0 8.6914 7.0547 15.742 15.742 15.742h39.359v70.848c0 8.6914 7.0547 15.742 15.742 15.742h62.977c8.6914 0 15.742-7.0547 15.742-15.742v-70.848h39.359v70.848c0 8.6914 7.0547 15.742 15.742 15.742h62.977c8.6914 0 15.742-7.0547 15.742-15.742v-70.848h39.359v70.848c0 8.6914 7.0547 15.742 15.742 15.742h62.977c8.6914 0 15.742-7.0547 15.742-15.742v-70.848h39.359c8.6914 0 15.742-7.0547 15.742-15.742v-70.848c0-8.6914-7.0547-15.742-15.742-15.742h-39.359v-55.105h39.359c8.6914 0 15.742-7.0547 15.742-15.742v-70.848c0-8.6914-7.0547-15.742-15.742-15.742h-39.359v-62.977c0-3.1016-0.91406-6.1406-2.6445-8.7383l-31.488-47.23c-2.9141-4.375-7.8398-7.0078-13.098-7.0078-5.2578 0-10.188 2.6289-13.098 7.0078l-31.488 47.23c-1.7305 2.5977-2.6445 5.6367-2.6445 8.7383zm-236.16 244.05v70.832h31.488v-373.09l-15.742-23.617-15.742 23.617v302.25zm267.65 0v70.832h31.488v-373.09l-15.742-23.617-15.742 23.617v302.25zm-133.82 0v70.832h31.488v-373.09l-15.742-23.617-15.742 23.617v302.25zm62.977-55.121v39.359h39.359v-39.359zm157.44 0v39.359h-23.617v-39.359zm-251.91 39.359h-39.359v-39.359h39.359zm-133.82-39.359v39.359h-23.617v-39.359zm228.29-86.594v55.105h39.359v-55.105zm-94.465 0h-39.359v55.105h39.359zm94.465-70.848v39.359h39.359v-39.359zm157.44 0v39.359h-23.617v-39.359zm-251.91 39.359h-39.359v-39.359h39.359zm-133.82-39.359v39.359h-23.617v-39.359z" fill-rule="evenodd"/>
</svg>