<?xml version="1.0" encoding="UTF-8"?>
<!-- The Best Svg Icon site in the world: iconSvg.co, Visit us! https://iconsvg.co -->
<svg fill="#000000" width="800px" height="800px" version="1.1" viewBox="144 144 512 512" xmlns="http://www.w3.org/2000/svg">
 <g>
  <path d="m392.01 588.98c-34.082 0.003907-65.695-11.238-80.68-28.758-12.828-14.996-12.562-33.117 0.72266-49.723 17.176-21.469 34.398-30.688 48.234-38.098 18.84-10.086 29.215-15.641 29.215-46.059v-89.074h15.742v89.07c0 39.848-17.395 49.156-37.531 59.941-13.227 7.082-28.215 15.105-43.371 34.051-8.5898 10.738-8.9336 20.441-1.0508 29.656 18.555 21.691 82.539 34.938 129.56 8.0781 49.152-28.102 31.586-160.81 20.668-209.58l15.367-3.4375c1.7031 7.6172 40.984 187.11-28.227 226.68-21.027 12.02-45.418 17.246-68.648 17.246z"/>
  <path d="m509.07 368.09c-2.2344 0-5.293-0.83984-8.0352-4.5-8.1406-2.875-30.574-11.383-39.949-20.758-2.2656-2.25-12.273 3.6562-18.57 9.9062-2.6602 2.6406-6.8125 3.0508-9.9258 0.97656l-24.32-16.219-25.129 25.125c-1.7109 1.7188-4.1367 2.5273-6.5273 2.25-2.4023-0.29297-4.5391-1.6836-5.7852-3.7617-0.70312-1.1758-17.031-29.105 0.91406-61.266 17.91-32.109 58.051-46.836 95.449-35.016 26.422 8.3516 42.609 26.109 46.812 51.348 6.918 41.516 5.5859 48.949-2.2578 51.504-0.54297 0.17578-1.4961 0.41016-2.6758 0.41016zm-49.195-41.508c4.4844 0 8.7305 1.5078 12.344 5.1211 5.1562 5.1523 19.332 11.539 30.195 15.637-0.5-5.6641-1.6094-14.59-3.9414-28.57-3.2148-19.289-15.336-32.383-36.027-38.926-30.309-9.582-62.668 2.0547-76.957 27.676h-0.003906c-7.8359 14.047-7.043 26.992-4.9492 35.449l21.168-21.164c2.6562-2.6523 6.8164-3.0664 9.9336-0.98438l24.574 16.383c7.2305-6.0039 15.816-10.621 23.664-10.621z"/>
  <path d="m468.49 272.25-15.59-2.2148c3.2188-22.66-3.0469-36.328-6.8125-42.207l-19.863 4.9648 11.52 34.09c0.27734 0.81641 0.41406 1.6641 0.41406 2.5234l-7.9961 0.042969-7.332 2.4805-14.254-42.176c-0.70312-2.082-0.50781-4.3672 0.55078-6.2969 1.0547-1.9297 2.8633-3.3281 4.9961-3.8633l33.145-8.2891c2.6914-0.66797 5.5156 0.11328 7.4766 2.0703 0.78906 0.78906 19.289 19.801 13.746 58.875z"/>
 </g>
</svg>