<?xml version="1.0" encoding="UTF-8"?>
<!-- The Best Svg Icon site in the world: iconSvg.co, Visit us! https://iconsvg.co -->
<svg fill="#000000" width="800px" height="800px" version="1.1" viewBox="144 144 512 512" xmlns="http://www.w3.org/2000/svg">
 <g>
  <path d="m635.33 341.38-47.23-94.465h-0.003906c-1.332-2.668-4.0586-4.3516-7.0391-4.3516h-141.7c-2.6328 0-5.0898 1.3164-6.5508 3.5039l-62.945 94.414-0.023437 0.035157-0.011719 0.015625h0.003906c-0.86328 1.293-1.3242 2.8125-1.3203 4.3672v86.594h-15.746v-212.55c0-2.6328-1.3164-5.0898-3.5039-6.5508l-70.848-47.23c-2.6445-1.7617-6.0898-1.7617-8.7344 0l-70.848 47.23c-2.1914 1.4609-3.5078 3.918-3.5078 6.5508v212.55h-23.613c-4.3477 0-7.875 3.5234-7.875 7.8711v188.93c0 2.0859 0.83203 4.0898 2.3086 5.5664 1.4766 1.4727 3.4766 2.3047 5.5664 2.3047h456.58c2.0859 0 4.0898-0.83203 5.5664-2.3047 1.4727-1.4766 2.3047-3.4805 2.3047-5.5664v-283.39c0-1.2227-0.28906-2.4258-0.83984-3.5195zm-59.137-83.074 39.359 78.719-109 0.003907-52.48-78.719zm-136.83 6.3203 48.266 72.402h-96.531zm-55.105 88.145h110.21v141.7h-15.742v-102.34c0-2.0859-0.82812-4.0898-2.3047-5.5664-1.4766-1.4766-3.4805-2.3047-5.5664-2.3047h-62.977c-4.3477 0-7.8711 3.5234-7.8711 7.8711v102.34h-15.746zm78.719 47.23v94.465h-15.742v-94.461zm-31.488 0v94.465h-15.742v-94.461zm-78.719 47.23h15.742v15.742l-15.742 0.007812zm0 31.488h15.742v15.742l-15.742 0.003907zm-141.7-255.56 62.977-41.984 62.977 41.984v82.379h-125.95zm0 98.121h125.95v110.21h-39.359v-23.617c0-2.0898-0.83203-4.0898-2.3086-5.5664-1.4766-1.4766-3.4766-2.3047-5.5664-2.3047h-31.488c-4.3477 0-7.8711 3.5234-7.8711 7.8711v23.617h-39.359zm110.21 141.7v-15.746h15.742v15.742zm15.742 15.742v15.742h-15.742v-15.742zm-94.461-15.742v-15.746h62.977v15.742zm62.977 15.742v15.742h-62.977v-15.742zm-39.359-47.23v-15.746h15.742v15.742zm-55.105 15.742h15.742v15.742l-15.742 0.003906zm0 31.488h15.742v15.742h-15.742zm-31.488-31.488h15.742v15.742l-15.742 0.003906zm0 31.488h15.742v15.742h-15.742zm0 141.7v-31.488h149.57c9.0742 0.011719 17.863 3.1484 24.887 8.8867 7.0273 5.7344 11.863 13.719 13.688 22.602zm149.57-47.23h-149.57v-31.488h160.46c18.797 2.3672 36.289 10.855 49.781 24.152-7.0117 9.0703-12.449 19.25-16.082 30.121-10.348-14.305-26.934-22.781-44.594-22.785zm55.637-31.488h31.586c-5.7266 3.6133-11.086 7.7852-15.992 12.453-4.7812-4.6484-10.004-8.8203-15.598-12.453zm235.62 78.719h-188.14c1.8281-8.8828 6.6602-16.867 13.688-22.602 7.0234-5.7344 15.812-8.875 24.883-8.8867h149.57zm0-47.23h-149.57c-13.246 0.015625-26.043 4.7969-36.055 13.469s-16.57 20.656-18.48 33.762h-31.695c1.9883-21.5 11.93-41.488 27.879-56.047 15.949-14.562 36.754-22.645 58.352-22.672h149.57zm0-47.23-440.83-0.003906v-15.742h440.83zm0-31.488-110.21-0.003906v-141.7h110.21z"/>
  <path d="m533.82 462.98h62.977c2.0859 0 4.0898-0.83203 5.5664-2.3086 1.4727-1.4766 2.3047-3.4766 2.3047-5.5664v-62.977c0-2.0859-0.83203-4.0898-2.3047-5.5664-1.4766-1.4766-3.4805-2.3047-5.5664-2.3047h-62.977c-4.3477 0-7.875 3.5234-7.875 7.8711v62.977c0 2.0898 0.83203 4.0898 2.3086 5.5664 1.4766 1.4766 3.4766 2.3086 5.5664 2.3086zm7.8711-62.977h47.23v47.23h-47.23z"/>
  <path d="m274.05 211.07c-10.441 0-20.449 4.1484-27.832 11.527-7.3828 7.3828-11.527 17.395-11.527 27.832s4.1445 20.449 11.527 27.832c7.3828 7.3828 17.391 11.527 27.832 11.527 10.438 0 20.449-4.1445 27.832-11.527 7.3789-7.3828 11.527-17.395 11.527-27.832-0.011719-10.434-4.1641-20.441-11.543-27.82-7.3789-7.3789-17.383-11.527-27.816-11.539zm0 62.977c-6.2656 0-12.27-2.4883-16.699-6.918-4.4297-4.4297-6.918-10.434-6.918-16.699 0-6.2617 2.4883-12.27 6.918-16.699 4.4297-4.4297 10.434-6.918 16.699-6.918 6.2617 0 12.27 2.4883 16.699 6.918 4.4297 4.4297 6.918 10.438 6.918 16.699-0.007812 6.2617-2.5 12.266-6.9258 16.691-4.4297 4.4258-10.43 6.918-16.691 6.9258z"/>
  <path d="m258.3 384.25h31.488c2.0898 0 4.0898-0.82812 5.5664-2.3047 1.4766-1.4766 2.3086-3.4805 2.3086-5.5664v-31.488c0-2.0898-0.83203-4.0898-2.3086-5.5664-1.4766-1.4766-3.4766-2.3047-5.5664-2.3047h-31.488c-4.3477 0-7.8711 3.5234-7.8711 7.8711v31.488c0 2.0859 0.82812 4.0898 2.3047 5.5664 1.4766 1.4766 3.4805 2.3047 5.5664 2.3047zm7.8711-31.488h15.742v15.742l-15.738 0.003907z"/>
 </g>
</svg>