<?xml version="1.0" encoding="UTF-8"?>
<!-- The Best Svg Icon site in the world: iconSvg.co, Visit us! https://iconsvg.co -->
<svg fill="#000000" width="800px" height="800px" version="1.1" viewBox="144 144 512 512" xmlns="http://www.w3.org/2000/svg">
 <g>
  <path d="m250.43 537.13c-15.539 0-28.184 12.641-28.184 28.184 0 15.539 12.641 28.184 28.184 28.184 15.539 0 28.184-12.641 28.184-28.184 0-15.539-12.645-28.184-28.184-28.184zm0 40.621c-6.8633 0-12.438-5.5742-12.438-12.438s5.5742-12.438 12.438-12.438c6.8633 0 12.438 5.5742 12.438 12.438s-5.5742 12.438-12.438 12.438z"/>
  <path d="m547.77 448.77-0.94531-11.477 35.52-5.918c4.2812-0.70703 7.1953-4.7695 6.4727-9.0547-0.72266-4.2969-4.8945-7.2422-9.0547-6.4727l-34.242 5.7148-3.668-43.625 14.77-29.52c1.2109-2.4414 1.0859-5.3359-0.33203-7.6523-1.4688-2.332-4.0039-3.7461-6.7266-3.7461h-157.44c-4.3438 0-7.8711 3.5273-7.8711 7.8711v103.45l-94.465 14.531v-70.754c0-4.3438-3.5273-7.8711-7.8711-7.8711h-7.8711v-31.488h7.8711c4.3438 0 7.8711-3.5273 7.8711-7.8711s-3.5273-7.8711-7.8711-7.8711h-15.742c-4.3477 0-7.875 3.5273-7.875 7.8711v39.359h-7.8711c-4.3438 0-7.8711 3.5273-7.8711 7.8711v78.027l-56.301 8.6602c-2.125 0.33203-4.0156 1.5117-5.2422 3.2734-1.2266 1.7617-1.6836 3.9531-1.2734 6.0469l15.742 78.719c0.83203 29.664 25.094 53.562 54.945 53.562 27.68 0 50.445-20.594 54.301-47.23h152.12c14.91 28.781 44.445 47.23 76.957 47.23 47.734 0 86.594-38.855 86.594-86.594 0.015624-42.395-31.457-78.293-72.625-85.047zm-289.47-48.773h15.742v62.977h-15.742zm-47.23 90.922v36.258c-2 2.0156-3.9531 4.0625-5.5898 6.3594-0.14062 0.20313-0.36328 0.36328-0.50391 0.56641l-8.2031-40.98zm39.359 113.75c-21.695 0-39.359-17.648-39.359-39.359 0-11.336 4.7539-21.965 13.145-29.27 15.586-14.09 41.895-12.547 55.48 3.0703 6.5039 7.1797 10.094 16.484 10.094 26.199 0 21.711-17.664 39.359-39.359 39.359zm133.82-47.234h-79.285c-0.0625-0.42578-0.20312-0.82031-0.28516-1.2266-0.17188-1.0547-0.45703-2.0625-0.69141-3.1016-0.45703-1.9688-0.97656-3.8906-1.6367-5.7773-0.41016-1.1641-0.85156-2.2969-1.3398-3.4336-0.28516-0.72266-0.50391-1.4961-0.83594-2.2031h84.074zm0-31.488h-95.707c-4.9766-4.9141-10.754-8.8477-17.191-11.477-0.72266-0.30078-1.4961-0.45703-2.2188-0.72266-2.5352-0.91406-5.0703-1.8438-7.7461-2.3789-3.5781-0.75391-7.2305-1.1641-10.961-1.1641-4.0469 0-7.9961 0.58203-11.887 1.4336-0.31641 0.078125-0.59766 0.17188-0.91406 0.25-3.7461 0.91406-7.3516 2.2383-10.816 3.8906v-27.285l157.44-24.23zm15.746-173.18h136.83l-7.8711 15.742-128.96 0.003907zm0 102.34v-70.848h126.58l3.3359 39.895-44.617 7.4297c-2 0.33203-3.793 1.418-5.0078 3.0391l-44.871 59.844h-35.422zm15.742 102.34h-15.742v-15.742h15.742zm0-31.488h-15.742v-15.742h15.742zm33.078 23.57c0.23438 1.2734 0.50391 2.5508 0.78906 3.8086 0.31641 1.3711 0.47266 2.7539 0.85156 4.1094h-18.973v-47.23h19.191c-0.56641 1.9375-1.1328 3.8555-1.5586 5.8398-0.125 0.61328-0.1875 1.2422-0.30078 1.8594-0.99219 5.1641-1.5898 10.469-1.5898 15.918 0 5.3047 0.64453 10.531 1.5898 15.695zm8-54.711c-0.56641-0.125-1.1055-0.34766-1.7188-0.34766l35.895-47.863 40.242-6.707 0.61328 7.3516c-0.92969 0.015624-1.7773 0.28516-2.707 0.33203-3.4336 0.20312-6.8164 0.62891-10.141 1.2422-3.543 0.61328-6.957 1.4961-10.344 2.5352-1.5742 0.48828-3.1484 0.97656-4.6914 1.543-5.0078 1.8594-9.7617 4.1406-14.297 6.8477-0.17188 0.09375-0.34766 0.1875-0.50391 0.28516-7.3984 4.5039-14.059 9.9805-19.789 16.422-2.0625 2.2969-4.0156 4.6914-5.8242 7.1953-1.2578 1.7617-2.4258 3.5742-3.5586 5.4492-1.1289 1.875-2.168 3.7773-3.1758 5.7148zm77.004 109.86c-28.055 0-53.609-16.703-65.023-42.43-3.8594-9.1016-5.8242-18.656-5.8242-28.418 0-39.062 31.789-70.848 70.848-70.848 2 0 4 0.14063 6 0.30078 36.352 2.9883 64.848 33.973 64.848 70.547 0 39.059-31.789 70.848-70.848 70.848z"/>
  <path d="m544.51 477.02c-3.4023-0.73828-6.9766-1.1328-10.691-1.1328-31.945 0-57.938 25.992-57.938 57.938 0 13.289 4.457 25.883 12.863 36.383 10.691 13.492 27.535 21.555 45.059 21.555 31.945 0 57.938-25.977 57.938-57.938 0.019531-28.152-20.008-52.066-47.23-56.805zm-10.688 98.996c-12.77 0-24.984-5.8242-32.73-15.617-6.1875-7.7148-9.4609-16.91-9.4609-26.574 0-23.27 18.926-42.211 42.195-42.211 2.5508 0 4.9922 0.26953 7.6211 0.83594 20.027 3.5117 34.559 20.891 34.559 41.375 0.007813 23.27-18.914 42.191-42.184 42.191z"/>
  <path d="m537.51 515.2c-11.477-2.5039-22.703 6.8945-22.703 18.625 0 4.2812 1.4961 8.5352 4.2031 11.902 3.5898 4.5195 8.9727 7.1172 14.816 7.1172 10.484 0 19.02-8.5352 19.02-19.02-0.003906-9.2578-6.5977-17.113-15.336-18.625zm-6.1875 20.719c-0.34766-0.42578-0.76953-1.1484-0.76953-2.0938 0-1.7461 1.3867-3.1797 3.6836-3.1797h0.23438c1.5273 0.28516 2.6289 1.6055 2.6289 3.1797 0.015625 2.7852-4.125 4.2344-5.7773 2.0938z"/>
 </g>
</svg>