<?xml version="1.0" encoding="UTF-8"?>
<!-- The Best Svg Icon site in the world: iconSvg.co, Visit us! https://iconsvg.co -->
<svg fill="#000000" width="800px" height="800px" version="1.1" viewBox="144 144 512 512" xmlns="http://www.w3.org/2000/svg">
 <path d="m394.54 417.29-16.434-12.973 6.5859-8.3438 15.164 11.969 15.164-11.969 6.5859 8.3438-16.434 12.973v11.062h11.441v10.625h-33.512v-10.625h11.441zm-42.754-62.414 12.785-3.9492-7.25-12.027c-2.4727-4.1055-8-5.0938-11.75-2.1016-1.4805 1.1836-2.3438 2.9766-2.3438 4.8711v6.8984c0.007813 4.4492 4.3086 7.6211 8.5586 6.3086zm104.8-6.3086v-6.8984c0-1.8945-0.86328-3.6875-2.3438-4.8711-3.7422-2.9961-9.2695-2.0117-11.75 2.1016l-7.25 12.027 12.785 3.9492c4.2578 1.3125 8.5586-1.8594 8.5586-6.3086zm170.12 11.516c-11.652-4.0195-24.551-6.2734-38.117-6.2734-6.9062 0-13.637 0.58594-20.121 1.6836-0.67969 27.434-9.2266 53.383-23.008 74.109 3.2031 41.656-14.828 82.875-48.621 108.62-26.605 20.27-59.676 31.434-93.125 31.434h-12.773c-31.105 0-61.859-10.379-86.602-29.23-34.531-26.309-53.156-68.609-50.117-111.29-13.609-20.652-22.027-46.422-22.703-73.652-6.4844-1.0977-13.195-1.6836-20.102-1.6836-13.582 0-26.48 2.2461-38.133 6.2734 15.66-20.758 37.266-35.266 61.762-39.781 46.141-6.3945 74.309 17.422 81.848 25.348 1.4922 1.5664 3.1016 3.0234 4.6094 4.6094-0.058593-1.5234-0.097656-3.0469-0.097656-4.5781v-33.77c0-2.1406 0.14062-4.2539 0.38281-6.3281-9.0273 2.0859-17.266 6.7773-24.051 13.426-21.199-9.3398-41.645-11.703-59.605-9.8359 14.82-46.059 52.887-78.848 97.539-78.848 24.297 0 46.637 9.707 64.348 25.965 17.695-16.258 40.047-25.965 64.332-25.965 44.633 0 82.711 32.781 97.539 78.836-17.965-1.8555-38.398 0.51953-59.602 9.8711-6.8711-6.7422-15.215-11.473-24.375-13.527 0.24609 2.1016 0.39453 4.2305 0.39453 6.4023v33.77c0 1.6406-0.039062 3.2812-0.10938 4.9141 1.6016-1.7031 3.2734-3.3164 4.918-4.9414 29.336-29.043 68.207-27.977 81.863-25.348 24.426 4.707 46.09 19.023 61.727 39.781zm-125.91 56.504c10.68-9.7227 18.117-24.035 20.156-40.402-12.609 10.168-21.445 23.184-24.797 37.676-0.62109 2.6562 2.6406 4.5664 4.6406 2.7266zm-168.14-111.99c-0.40234 2.3789-0.62891 4.8203-0.62891 7.3086v33.77c0 11.367 1.9102 22.562 5.6719 33.285l24.293 65.035c3.6562 9.8008 13.145 16.379 23.598 16.379h0.023438l28.598-0.03125c10.453-0.011719 19.938-6.6055 23.582-16.402l24.238-65.082c3.7266-10.629 5.6367-21.828 5.6367-33.191v-33.77c0-2.5-0.22266-4.9414-0.62891-7.3242-24.863-0.99219-47.5-14.605-60.035-36.117h-14.008c-12.586 21.609-35.355 35.242-60.34 36.141zm-53.602 71.59c2.0195 16.363 9.4766 30.676 20.137 40.402 2.0195 1.8438 5.2617-0.070313 4.6602-2.7266-3.3633-14.488-12.203-27.508-24.797-37.676zm256.07 66.863c-8.2969 9.3516-17.82 17.09-28.238 22.672-3.2383 1.7383-7.1172 3.1523-11.316 4.3008-19.816 5.3945-39.223-6.6641-47.02-24.488l-0.78906 2.125c-5.1875 13.93-18.66 23.305-33.527 23.32l-28.59 0.03125h-0.039063c-14.871 0-28.355-9.3555-33.559-23.285l-0.71094-1.9102c-7.8789 17.664-27.191 29.578-46.883 24.207-4.1953-1.1523-8.0742-2.5703-11.336-4.3008-10.523-5.6367-20.141-13.477-28.496-22.965 1.3398 34.633 17.977 67.742 46.176 89.227 22.902 17.445 51.367 27.055 80.16 27.055h12.773c31.137 0 61.918-10.395 86.684-29.262 27.473-20.938 43.547-53.074 44.711-86.727z"/>
</svg>