<?xml version="1.0" encoding="UTF-8"?>
<!-- The Best Svg Icon site in the world: iconSvg.co, Visit us! https://iconsvg.co -->
<svg fill="#000000" width="800px" height="800px" version="1.1" viewBox="144 144 512 512" xmlns="http://www.w3.org/2000/svg">
 <path d="m364.57 234.69v165.31h-57.07c-8.6914 0-15.742 7.0547-15.742 15.742v165.96c0 6.3438 3.8086 12.074 9.668 14.516l92.496 38.715c3.8555 1.6211 8.1875 1.6367 12.043 0.046874l94.465-38.715c5.918-2.4258 9.7773-8.1719 9.7773-14.562v-165.96c0-8.6914-7.0547-15.742-15.742-15.742h-59.039v-165.31h57.07c8.6914 0 15.742-7.0547 15.742-15.742v-39.359c0-8.6914-7.0547-15.742-15.742-15.742h-184.99c-8.6914 0-15.742 7.0547-15.742 15.742v39.359c0 8.6914 7.0547 15.742 15.742 15.742h57.07zm70.848 228.29-0.015625 0.50391-0.03125 0.78906-0.14062 1.1836-0.0625 0.37891-0.078125 0.39453-0.28125 1.1367-0.10938 0.37891-0.25 0.72656-0.14062 0.36328-0.3125 0.72656-0.20312 0.42578-0.17188 0.34766-0.5625 0.99609-0.20312 0.31641-0.4375 0.63281-0.21875 0.30078-0.23438 0.30078-0.23438 0.28516-0.75 0.85547-0.26953 0.26953-0.85547 0.75-0.28516 0.23438-0.30078 0.23437-0.36328 0.26953-0.30078 0.21875-0.63281 0.40625-0.33203 0.1875-0.31641 0.1875-0.33203 0.17188-0.34766 0.17188-0.33203 0.15625-0.69531 0.3125-0.36328 0.14062-0.72656 0.25-0.75781 0.21875-0.36328 0.09375-0.39453 0.078125-0.37891 0.078125-0.39453 0.078125-0.41016 0.0625-0.41016 0.046875-0.39453 0.03125-0.42578 0.03125-0.41016 0.015625-0.31641 0.015625h-39.973l-0.39453-0.015625-0.41016-0.03125-0.39453-0.03125-0.39453-0.046875-1.1836-0.1875-0.37891-0.09375-0.37891-0.078125-0.37891-0.10938-0.36328-0.10938-0.37891-0.125-0.72656-0.25-0.34766-0.15625-0.36328-0.14062-0.34766-0.17188-0.33203-0.15625-0.34766-0.1875-0.33203-0.17188-0.33203-0.20312-0.94922-0.60938-0.30078-0.23438-0.30078-0.21875-0.30078-0.23438-0.85547-0.75-0.53906-0.53906-0.75-0.85547-0.23438-0.30078-0.21875-0.30078-0.23438-0.30078-0.60938-0.94922-0.20312-0.33203-0.17188-0.33203-0.1875-0.34766-0.15625-0.33203-0.17188-0.34766-0.14062-0.36328-0.15625-0.34766-0.25-0.72656-0.125-0.37891-0.10938-0.36328-0.10938-0.37891-0.078125-0.37891-0.09375-0.37891-0.1875-1.1836-0.046875-0.39453-0.03125-0.39453-0.03125-0.41016-0.015625-0.39453v-0.41016-31.488h-41.328v139.73l76.816 32.164 78.656-32.242v-139.65h-43.297v31.488zm-31.488-228.29v212.54h-7.8711v-212.54zm72.816-39.359v7.8711h-153.5v-7.8711z" fill-rule="evenodd"/>
</svg>