<?xml version="1.0" encoding="UTF-8"?>
<!-- The Best Svg Icon site in the world: iconSvg.co, Visit us! https://iconsvg.co -->
<svg fill="#000000" width="800px" height="800px" version="1.1" viewBox="144 144 512 512" xmlns="http://www.w3.org/2000/svg">
 <g>
  <path d="m628.29 612.54h-78.723v-267.65h8.082c7.3516 0.019531 14.277-3.4258 18.699-9.2969 4.418-5.8711 5.8125-13.484 3.7617-20.539l-17.25-68.094c-0.53516-2.1211-1.9297-3.9219-3.8477-4.9727l-155.23-85.059c-2.3555-1.2891-5.207-1.2891-7.5664 0l-155.23 85.059c-1.918 1.0508-3.3125 2.8516-3.8477 4.9727l-17.25 68.094-0.003907-0.003906c-2.0469 7.0586-0.65234 14.672 3.7656 20.543 4.4219 5.8711 11.352 9.3164 18.699 9.2969h8.082v267.65h-78.719c-4.3477 0-7.875 3.5234-7.875 7.8711 0 4.3477 3.5273 7.875 7.875 7.875h456.58c4.3477 0 7.8711-3.5273 7.8711-7.875 0-4.3477-3.5234-7.8711-7.8711-7.8711zm-307.01-173.18v-15.746h157.44v15.742zm132.96 15.742-54.234 66.289-54.238-66.289zm-117.21 14.184 52.805 64.539-52.805 64.539zm8.7383 143.26 54.238-66.289 54.234 66.289zm117.21-14.18-52.805-64.539 52.805-64.539zm70.848 14.18h-55.105v-157.44h7.8711c2.0898 0 4.0898-0.82812 5.5664-2.3047s2.3047-3.4766 2.3047-5.5664v-31.488c0-2.0859-0.82813-4.0898-2.3047-5.5664-1.4766-1.4766-3.4766-2.3047-5.5664-2.3047h-173.18c-4.3477 0-7.8711 3.5234-7.8711 7.8711v31.488c0 2.0898 0.82812 4.0898 2.3047 5.5664 1.4766 1.4766 3.4805 2.3047 5.5664 2.3047h7.8711v157.44h-55.102v-272l14.715-59.988 119.11-68.285 119.11 68.289 14.715 59.984zm-0.22656-339.01c-0.51562-2.0938-1.8633-3.8828-3.7305-4.957l-125.95-72.211c-2.4258-1.3867-5.4062-1.3867-7.832 0l-125.95 72.211c-1.8672 1.0742-3.2148 2.8633-3.7266 4.957l-13.645 55.613h-10.41c-2.4297 0.015624-4.7227-1.1289-6.1641-3.0859-1.4297-1.8984-1.8633-4.3711-1.168-6.6445 0.035156-0.11328 0.066406-0.22656 0.097656-0.33984l16.449-64.926 148.44-81.34 148.44 81.34 16.449 64.926c0.03125 0.11328 0.058594 0.22656 0.097656 0.33984h-0.003906c0.69531 2.2734 0.26172 4.7461-1.1641 6.6445-1.4453 1.957-3.7383 3.1055-6.1719 3.0859h-10.41z"/>
  <path d="m400 274.05c-12.527 0-24.543 4.9766-33.398 13.832-8.8594 8.8594-13.836 20.871-13.836 33.398s4.9766 24.543 13.836 33.398c8.8555 8.8594 20.871 13.836 33.398 13.836 12.523 0 24.539-4.9766 33.398-13.836 8.8555-8.8555 13.832-20.871 13.832-33.398-0.015625-12.52-4.9961-24.527-13.848-33.383-8.8555-8.8516-20.863-13.836-33.383-13.848zm-7.8711 77.723h-0.003906c-5.4414-1.418-10.406-4.2617-14.383-8.2344-3.9766-3.9766-6.8164-8.9414-8.2344-14.387h22.617zm-0.003906-38.363h-22.617c1.418-5.4414 4.2578-10.406 8.2344-14.383 3.9766-3.9766 8.9414-6.8203 14.383-8.2383zm15.742 38.363 0.003906-22.621h22.621-0.003907c-1.4141 5.4453-4.2578 10.41-8.2344 14.387-3.9766 3.9727-8.9414 6.8164-14.383 8.2344zm0.003906-38.363v-22.621c5.4414 1.418 10.406 4.2617 14.383 8.2383 3.9766 3.9766 6.8203 8.9414 8.2344 14.383z"/>
  <path d="m494.46 384.25c0 4.3477-3.5234 7.8711-7.8711 7.8711s-7.8711-3.5234-7.8711-7.8711 3.5234-7.8711 7.8711-7.8711 7.8711 3.5234 7.8711 7.8711"/>
  <path d="m321.28 384.25c0 4.3477-3.5234 7.8711-7.8711 7.8711s-7.8711-3.5234-7.8711-7.8711 3.5234-7.8711 7.8711-7.8711 7.8711 3.5234 7.8711 7.8711"/>
 </g>
</svg>