<?xml version="1.0" encoding="UTF-8"?>
<!-- The Best Svg Icon site in the world: iconSvg.co, Visit us! https://iconsvg.co -->
<svg fill="#000000" width="800px" height="800px" version="1.1" viewBox="144 144 512 512" xmlns="http://www.w3.org/2000/svg">
 <path d="m572.74 221.33 6.2305-44.047c0.20312-1.4453-0.22656-2.9062-1.1875-4.0117-0.95312-1.1016-2.3438-1.7344-3.8047-1.7344h-347.96c-1.457 0-2.8477 0.63281-3.8047 1.7344-0.95703 1.1016-1.3906 2.5625-1.1875 4.0117l6.2266 44.047v370.47l-6.1758 30.621c-0.29688 1.4805 0.082031 3.0156 1.0391 4.1875 0.95703 1.168 2.3867 1.8438 3.8984 1.8438h347.96c1.5117 0 2.9414-0.67969 3.8984-1.8438 0.96094-1.1719 1.3438-2.7109 1.043-4.1914l-6.1797-30.621zm-340.57 397.05 4.0156-19.91h327.62l4.0195 19.91zm5.1562-29.984v-363.9h325.33l0.003906 363.9zm326.21-373.97h-327.09l-4.6367-32.805h336.36zm-93.062 91.223c0.14062-1.3438 0.23047-2.6992 0.23047-4.082 0-19.457-14.301-35.289-31.883-35.289-7.1406 0-13.875 2.5742-19.418 7.3438-5.543-4.7695-12.277-7.3438-19.418-7.3438-7.1406 0-13.875 2.5742-19.418 7.3438-5.543-4.7695-12.277-7.3438-19.418-7.3438-17.578 0-31.883 15.832-31.883 35.289 0 1.3828 0.089843 2.7461 0.23047 4.0898-10.859-2.8477-27.816-4.3203-42.09 7.5781-3.1055 2.5898-4.9844 6.4023-5.1602 10.469-0.17969 4.1445 1.4102 8.1992 4.3594 11.125 7.2188 7.168 19.922 16.887 35.73 16.887 2.0273 0 4.1211-0.23047 6.2461-0.57813l14.27 75.027c4.1719 21.922 24.934 37.836 49.359 37.836h15.543c24.43 0 45.184-15.914 49.355-37.836l14.273-75.027c2.1211 0.34375 4.2148 0.57422 6.2422 0.57422 15.805 0 28.516-9.7188 35.738-16.883 2.9492-2.9258 4.5352-6.9844 4.3594-11.125-0.17578-4.0625-2.0547-7.8789-5.1602-10.469-14.277-11.91-31.227-10.438-42.09-7.5859zm-109.32-29.297c5.8711 0 11.398 2.7227 15.566 7.6641 1.918 2.2734 5.7891 2.2734 7.7031 0 4.168-4.9414 9.6992-7.6641 15.566-7.6641 5.8711 0 11.398 2.7227 15.566 7.6641 1.9141 2.2734 5.7852 2.2734 7.7031 0 4.168-4.9414 9.6953-7.6641 15.566-7.6641 12.023 0 21.805 11.312 21.805 25.211 0 13.902-9.7812 25.215-21.805 25.215-5.8711 0-11.398-2.7227-15.566-7.6641-0.96094-1.1367-2.3672-1.7891-3.8516-1.7891s-2.8945 0.65625-3.8516 1.7891c-4.168 4.9414-9.6992 7.6641-15.566 7.6641-5.8711 0-11.398-2.7227-15.566-7.6641-1.9141-2.2734-5.7852-2.2734-7.7031 0-4.168 4.9414-9.6953 7.6641-15.566 7.6641-12.023 0-21.805-11.312-21.805-25.215s9.7812-25.211 21.805-25.211zm-33.941 64.816c-13.781 2.3125-25.523-5.5664-33.5-13.492-0.94141-0.93359-1.4492-2.2227-1.3906-3.5391 0.054688-1.2539 0.60547-2.375 1.5508-3.1641 13.617-11.367 31.488-6.4648 38.766-3.7305 0.042968 0.097657 0.082031 0.19922 0.12891 0.29297-4.043 7.3242-5.9414 15.387-5.5547 23.633zm134.95 4.5352-14.945 78.574c-3.2656 17.18-19.863 29.645-39.457 29.645h-15.539c-19.594 0-36.188-12.469-39.457-29.645l-14.949-78.574c-1.1992-6.293-0.625-12.582 1.543-18.457 5.707 5.9375 13.363 9.6094 21.797 9.6094 7.1406 0 13.875-2.5742 19.418-7.3438 5.543 4.7695 12.277 7.3438 19.418 7.3438s13.875-2.5742 19.418-7.3438c5.543 4.7695 12.277 7.3438 19.418 7.3438 8.4336 0 16.09-3.668 21.797-9.6055 2.1641 5.8711 2.7344 12.16 1.5391 18.453zm44.102-18.027c-7.9805 7.9219-19.719 15.809-33.5 13.492 0.38281-8.2461-1.5117-16.309-5.5508-23.633 0.046875-0.097656 0.085938-0.19922 0.12891-0.29688 7.2773-2.7383 25.145-7.6328 38.766 3.7305 0.94531 0.78906 1.4922 1.9102 1.5469 3.168 0.058594 1.3164-0.44531 2.6055-1.3906 3.5391zm-87.02 113.89c0 2.7812-2.2539 5.0391-5.0391 5.0391-6.125 0-10.891-1.7227-14.219-5.0703-3.3281 3.3477-8.0938 5.0703-14.219 5.0703-2.7812 0-5.0391-2.2539-5.0391-5.0391 0-2.7812 2.2539-5.0391 5.0391-5.0391 2.332 0 5.4727-0.37109 7.1641-2.1445 0.050782-0.054687 0.070313-0.11328 0.11719-0.16406l-10.68-9.75c-1.5352-1.4023-2.0508-3.6055-1.3008-5.543 0.75-1.9414 2.6172-3.2188 4.6953-3.2188h28.445c2.0781 0 3.9453 1.2773 4.6953 3.2188 0.75391 1.9375 0.23438 4.1406-1.3008 5.543l-10.645 9.7148c1.668 1.8828 4.7969 2.3438 7.25 2.3438 2.7812 0 5.0352 2.2578 5.0352 5.0391zm-42.758-79.184c0 4.5586-3.6953 8.2578-8.2578 8.2578-4.5586 0-8.2578-3.6953-8.2578-8.2578 0-4.5586 3.6953-8.2578 8.2578-8.2578s8.2578 3.6953 8.2578 8.2578zm63.516 0c0 4.5586-3.6953 8.2578-8.2578 8.2578-4.5586 0-8.2578-3.6953-8.2578-8.2578 0-4.5586 3.6953-8.2578 8.2578-8.2578s8.2578 3.6953 8.2578 8.2578zm-100.69 141.95c-2.7812 0-5.0391-2.2539-5.0391-5.0391s2.2539-5.0391 5.0391-5.0391h121.36c2.7812 0 5.0391 2.2539 5.0391 5.0391s-2.2539 5.0391-5.0391 5.0391zm137.88 32.828c0 2.7852-2.2539 5.0391-5.0391 5.0391l-144.33-0.003906c-2.7812 0-5.0391-2.2539-5.0391-5.0391 0-2.7852 2.2539-5.0391 5.0391-5.0391h144.33c2.7852 0.003906 5.0391 2.2578 5.0391 5.043z"/>
</svg>