<?xml version="1.0" encoding="UTF-8"?>
<!-- The Best Svg Icon site in the world: iconSvg.co, Visit us! https://iconsvg.co -->
<svg fill="#000000" width="800px" height="800px" version="1.1" viewBox="144 144 512 512" xmlns="http://www.w3.org/2000/svg">
 <path d="m596.48 591.45h-46.566l-28.75-208.51 46.586 32.922c0.85547 0.60547 1.875 0.92578 2.9062 0.92578 0.35938 0 0.72266-0.039062 1.0781-0.11719 1.3867-0.30078 2.5781-1.1758 3.2852-2.4023l25.82-44.723c0.70703-1.2266 0.86719-2.6953 0.4375-4.043s-1.4062-2.457-2.6914-3.0508l-75.953-35.02 75.953-35.02c1.2852-0.59375 2.2617-1.7031 2.6914-3.0508 0.42969-1.3477 0.26953-2.8203-0.4375-4.043l-25.82-44.723c-0.70703-1.2266-1.8984-2.1016-3.2852-2.4023-1.3672-0.29688-2.8281-0.011719-3.9844 0.80859l-68.309 48.273 7.6523-83.293c0.12891-1.4102-0.33984-2.8086-1.3008-3.8555-0.94922-1.0508-2.2969-1.6445-3.7148-1.6445h-51.641c-1.418 0-2.7656 0.59375-3.7188 1.6445-0.95312 1.043-1.4258 2.4453-1.3008 3.8555l7.6484 83.293-68.309-48.273c-1.1523-0.81641-2.6133-1.1016-3.9844-0.80859-1.3867 0.30078-2.5781 1.1758-3.2852 2.4023l-25.82 44.723c-0.70703 1.2266-0.86719 2.6953-0.4375 4.043 0.42969 1.3477 1.4062 2.457 2.6914 3.0508l75.957 35.02-75.957 35.02c-1.2852 0.59375-2.2617 1.7031-2.6914 3.0508s-0.26953 2.8203 0.4375 4.043l25.82 44.723c0.70703 1.2266 1.8984 2.1016 3.2852 2.4023 0.35547 0.078126 0.71875 0.11719 1.0781 0.11719 1.0312 0 2.0508-0.32031 2.9062-0.92578l46.594-32.926-28.746 208.52h-52.766v-43.746c1.3398 0.09375 2.9023 0.16406 4.6602 0.16406 8.5 0 21.043-1.6094 29.312-9.8789 13.254-13.25 9.4102-37.438 9.2383-38.461-0.35547-2.125-2.0156-3.7891-4.1445-4.1445-1.0234-0.17188-25.215-4.0117-38.461 9.2344-0.22266 0.22266-0.39844 0.46875-0.60938 0.69531v-12.512c0-0.082031-0.042969-0.15234-0.046875-0.23438 5.2422-4.2891 18.605-16.727 18.605-32.125 0-18.742-19.824-33.121-20.668-33.727-1.75-1.25-4.0977-1.25-5.8594 0-0.83984 0.60547-20.66 14.988-20.66 33.727 0 15.398 13.363 27.836 18.602 32.125-0.003906 0.082031-0.046875 0.15234-0.046875 0.23438v41.715c-0.24219-0.26172-0.44531-0.54297-0.69922-0.79297-13.246-13.246-37.441-9.4102-38.461-9.2383-2.125 0.35547-3.7891 2.0156-4.1445 4.1445-0.17188 1.0234-4.0156 25.215 9.2344 38.461 8.2773 8.2773 20.816 9.8828 29.32 9.8828 1.793 0 3.3906-0.074219 4.7461-0.16797l0.007812 14.645h-87.336v-53.859c1.3555 0.09375 2.957 0.16797 4.7539 0.16797 8.4961 0 21.039-1.6094 29.312-9.8789 13.246-13.25 9.4062-37.441 9.2344-38.465-0.35547-2.125-2.0156-3.7891-4.1445-4.1445-1.0195-0.17188-25.211-4.0039-38.461 9.2383-0.25391 0.25391-0.45703 0.53516-0.69922 0.79297v-41.988c5.2734-4.3281 18.555-16.738 18.555-32.086 0-18.742-19.816-33.121-20.66-33.727-1.7617-1.25-4.1094-1.25-5.8594 0-0.84766 0.60547-20.668 14.988-20.668 33.727 0 15.348 13.277 27.754 18.559 32.086v12.785c-0.21094-0.22656-0.39062-0.47266-0.60938-0.69531-13.25-13.25-37.441-9.4102-38.461-9.2344-2.125 0.35547-3.7891 2.0156-4.1445 4.1445-0.17188 1.0234-4.0156 25.211 9.2383 38.461 8.2695 8.2773 20.812 9.8789 29.312 9.8789 1.7539 0 3.3203-0.070313 4.6602-0.16406v23.965c-0.21094-0.22656-0.39062-0.47266-0.60937-0.69531-13.254-13.25-37.438-9.4023-38.461-9.2383-2.125 0.35547-3.7891 2.0156-4.1445 4.1445-0.17188 1.0234-4.0156 25.215 9.2383 38.461 8.2695 8.2773 20.816 9.8828 29.312 9.8828 1.7539 0 3.3203-0.070312 4.6602-0.16406l0.007813 16.605h-38.844c-2.7852 0-5.0391 2.2539-5.0391 5.0391s2.2539 5.0391 5.0391 5.0391h392.97c2.7852 0 5.0391-2.2539 5.0391-5.0391s-2.2539-5.0391-5.0391-5.0391zm-238.91-79.703c7.0352-7.0312 19.676-7.1836 25.918-6.8047 0.41406 6.2812 0.22656 18.895-6.8047 25.922-7.0352 7.0391-19.672 7.2109-25.953 6.8008-0.47266-7.1641 0.24219-19.32 6.8398-25.918zm-18.828 55.02c-6.2773 0.41016-18.895 0.22656-25.922-6.8047-7.0273-7.0273-7.2109-19.637-6.8008-25.918 6.2734-0.41016 18.887-0.22656 25.918 6.8047 7.0312 7.0273 7.2109 19.641 6.8047 25.918zm-7.4609-106.32c0-9.957 8.8125-19.016 13.539-23.16 5.3984 4.7266 13.496 13.832 13.496 23.16 0 9.957-8.8164 19.016-13.543 23.16-5.3906-4.7305-13.492-13.828-13.492-23.16zm-71.035 41.191c7.0352-7.0312 19.645-7.2188 25.918-6.8047 0.41406 6.2812 0.22656 18.895-6.8008 25.922-7.0312 7.0273-19.605 7.2188-25.922 6.8008-0.40625-6.2773-0.22266-18.895 6.8047-25.918zm-18.828-3.1836c-6.2734 0.41016-18.895 0.22656-25.918-6.8008-7.0312-7.0312-7.2188-19.641-6.8047-25.922 6.2539-0.38281 18.887-0.22656 25.918 6.8047 7.0312 7.0234 7.2188 19.633 6.8047 25.918zm0 66.391c-7.1914 0.45312-19.32-0.24609-25.918-6.8398-7.0391-7.0391-7.2188-19.68-6.8047-25.953 7.1523-0.45312 19.316 0.23438 25.918 6.8398 7.043 7.0391 7.2188 19.68 6.8047 25.953zm-7.5508-143.61c0-9.957 8.8164-19.016 13.543-23.16 5.3906 4.7266 13.492 13.824 13.492 23.16 0 9.957-8.8125 19.016-13.539 23.16-5.3984-4.7266-13.496-13.828-13.496-23.16zm335.18-16.785-69.898-49.395c6.4648-5.3711 10.988-12.973 12.453-21.605l77.746 35.844zm-92.797-102.83c14.238 0 25.82 11.582 25.82 25.82 0 14.238-11.582 25.82-25.82 25.82s-25.82-11.582-25.82-25.82c0.003906-14.238 11.582-25.82 25.82-25.82zm-12.465 59.438c3.8906 1.4492 8.0781 2.2773 12.469 2.2773 4.3867 0 8.5742-0.82812 12.465-2.2773l7.8359 85.254h-40.602zm105.26-110.64 20.301 35.16-77.746 35.844c-1.4648-8.6328-5.9883-16.234-12.453-21.602zm-72.496-41.859-7.8359 85.258c-3.8906-1.4453-8.0742-2.2773-12.461-2.2773s-8.5781 0.83203-12.469 2.2773l-7.832-85.258zm-113.1 41.859 69.902 49.398c-6.4648 5.3711-10.988 12.969-12.453 21.602l-77.75-35.844zm0 154.03-20.301-35.16 77.75-35.844c1.4648 8.6328 5.9844 16.234 12.449 21.602zm59.164-29.473 10.449-7.3828-7.6484 83.293c-0.12891 1.4102 0.34375 2.8125 1.3008 3.8555 0.95313 1.0469 2.3008 1.6445 3.7188 1.6445h51.641c1.418 0 2.7656-0.59375 3.7188-1.6445 0.96094-1.0469 1.4258-2.4453 1.3008-3.8555l-7.6562-83.297 10.453 7.3867 29.848 216.48h-126.97z"/>
</svg>