<?xml version="1.0" encoding="UTF-8"?>
<!-- The Best Svg Icon site in the world: iconSvg.co, Visit us! https://iconsvg.co -->
<svg fill="#000000" width="800px" height="800px" version="1.1" viewBox="144 144 512 512" xmlns="http://www.w3.org/2000/svg">
 <g>
  <path d="m538.46 197.88h-276.51c-9.6523 0-17.508 7.8555-17.508 17.508v368.04c0 9.6523 7.8555 17.508 17.508 17.508h276.51c9.6523 0 17.508-7.8555 17.508-17.508v-368.04c-0.003906-9.6562-7.8594-17.504-17.512-17.504zm-195.83 67.172h115.16c12.699 0 23.035-10.195 23.035-22.738v-6.5859h34.758v323.98h-230.73v-323.98h34.754v6.5859c-0.003906 12.531 10.332 22.73 23.031 22.73zm128.11-22.734c0 6.9844-5.8125 12.66-12.957 12.66h-115.16c-7.1445 0-12.957-5.6797-12.957-12.66v-6.5859h141.07zm-141.07-16.656v-17.703h141.07v17.703zm216.22 357.76c0 4.0977-3.332 7.4297-7.4297 7.4297l-276.51 0.003906c-4.0977 0-7.4297-3.332-7.4297-7.4297v-368.04c0-4.0977 3.332-7.4297 7.4297-7.4297h57.641v17.703h-39.789c-2.7852 0-5.0391 2.2539-5.0391 5.0391v334.05c0 2.7852 2.2539 5.0391 5.0391 5.0391h240.82c2.7852 0 5.0391-2.2539 5.0391-5.0391v-334.05c0-2.7852-2.2539-5.0391-5.0391-5.0391h-39.797v-17.703h57.641c4.0977 0 7.4297 3.332 7.4297 7.4297l0.003907 368.04z"/>
  <path d="m314.89 451.24c11.598 39.07 40.41 66.086 67.953 66.086 3.8984 0 7.7852-0.53906 11.582-1.668 1.8789-0.55859 3.7422-1.2695 5.5664-2.1211 1.8242 0.85156 3.6875 1.5625 5.5664 2.1211 30.621 9.0938 66.297-19.816 79.535-64.418 12.48-42.047-1.6367-78.195-34.328-87.895-15.781-4.6914-31.961-1.7422-45.734 7.9492v-15.594c8.375 0.58594 25.855 0.33203 36.598-10.402 14.203-14.203 10.07-40.203 9.8906-41.309-0.35156-2.125-2.0156-3.7891-4.1406-4.1406-1.0977-0.17969-27.094-4.3242-41.301 9.8945-6.3867 6.3828-9.0234 14.984-10.172 23.332-1.7695-3.8125-3.8711-7.668-6.3633-11.383-1.5586-2.3086-4.6914-2.9375-6.9922-1.3711-2.3125 1.5586-2.9219 4.6836-1.3711 6.9922 11.191 16.637 13.594 37.297 13.785 39.152v4.832c-13.773-9.6914-29.953-12.637-45.734-7.957-32.699 9.6992-46.816 45.848-34.34 87.898zm98.309-134.38c7.8711-7.8711 22.043-7.9258 28.777-7.4727 0.48047 6.7422 0.39844 20.906-7.4648 28.781-8.125 8.125-22.988 7.9414-29.422 7.4219 0.18359-9.5195 1.1367-21.762 8.1094-28.73zm-61.113 56.145c15.578-4.6211 31.719-0.003906 44.352 12.625 1.8906 1.8906 5.2344 1.8906 7.125 0 12.637-12.641 28.777-17.25 44.352-12.625 27.426 8.1367 38.496 38.43 27.531 75.371-11.652 39.273-41.727 65.133-67.012 57.621-2.0312-0.59766-4.0625-1.4492-6.0156-2.5234-1.5078-0.81641-3.3242-0.81641-4.832 0-1.9609 1.0742-3.9844 1.9258-6.0156 2.5234-25.328 7.5078-55.359-18.348-67.016-57.621-10.961-36.938 0.10547-67.234 27.531-75.371z"/>
  <path d="m342.68 438.66c0.48438 0 0.96875-0.070312 1.457-0.21484 2.6602-0.80078 4.1719-3.6133 3.3672-6.2773-3.0195-9.9922-2.6758-19.184 0.94531-25.875 2.5391-4.6836 6.5781-7.9453 11.672-9.4297 2.6719-0.77734 4.2031-3.5781 3.4258-6.2461-0.78125-2.6719-3.5703-4.207-6.2461-3.4258-7.6289 2.2227-13.914 7.3047-17.707 14.305-4.9219 9.0742-5.5352 21-1.7383 33.59 0.66016 2.1719 2.6602 3.5742 4.8242 3.5742z"/>
 </g>
</svg>