<?xml version="1.0" encoding="UTF-8"?>
<!-- The Best Svg Icon site in the world: iconSvg.co, Visit us! https://iconsvg.co -->
<svg fill="#000000" width="800px" height="800px" version="1.1" viewBox="144 144 512 512" xmlns="http://www.w3.org/2000/svg">
 <g>
  <path d="m502.34 498.4v13.539c0 27.238-22.199 49.438-49.438 49.438h-105.8c-27.234 0-49.434-22.199-49.434-49.438v-13.539z"/>
  <path d="m502.34 388.19v94.465h-204.67v-94.465h47.863c-0.47656 2.5977-0.63281 5.1953-0.63281 7.8711 0 30.387 24.719 55.105 55.105 55.105s55.105-24.719 55.105-55.105c0-2.6758-0.15625-5.2734-0.62891-7.8711z"/>
  <path d="m486.59 250.51v7.7148c0 6.5352-5.3516 11.887-11.965 11.887h-149.25c-6.6133 0-11.965-5.3516-11.965-11.887v-7.7148c0-6.5312 5.3516-11.887 11.965-11.887h149.25c6.6133 0 11.965 5.3555 11.965 11.887z"/>
  <path d="m329.15 285.86h141.7v15.742h-141.7z"/>
  <path d="m502.34 358.91v13.539h-52.586c-8.8164-18.578-27.789-31.488-49.75-31.488s-40.934 12.91-49.75 31.488h-52.586v-13.539c0-16.766 8.6602-32.59 22.75-41.562h159.17c14.09 8.9727 22.75 24.797 22.75 41.562z"/>
 </g>
</svg>