<?xml version="1.0" encoding="UTF-8"?>
<!-- The Best Svg Icon site in the world: iconSvg.co, Visit us! https://iconsvg.co -->
<svg fill="#000000" width="800px" height="800px" version="1.1" viewBox="144 144 512 512" xmlns="http://www.w3.org/2000/svg">
 <g>
  <path d="m598 575.32h-77.082c7.0547-2.5195 14.105-6.5508 20.152-12.09 20.152-19.648 18.137-53.906 18.137-55.418 0-2.5195-2.0156-4.5352-4.5352-4.5352-1.5117 0-35.266-3.0234-55.922 16.625-3.5273 3.0234-6.0469 7.0547-8.0625 10.578v-25.695c8.0625 0 24.184-1.5117 35.266-12.594 15.113-14.609 13.602-39.297 13.602-40.305 0-2.5195-2.0156-4.5352-4.5352-4.5352-1.0078 0-25.695-2.5195-40.809 12.09-1.5117 1.5117-2.5195 2.5195-3.5273 4.0312v-13.098c4.0312-4.0312 14.105-15.113 13.602-28.719 0-16.625-15.113-29.223-15.617-29.727-2.0156-1.5117-4.5352-1.5117-6.5508 0-0.50391 0.50391-15.617 13.602-15.113 30.23 0 13.098 9.5742 23.68 13.602 27.711v12.594c-0.50391-1.0078-1.5117-1.5117-2.0156-2.5195-14.609-15.113-39.297-13.602-40.305-13.602-2.5195 0-4.5352 2.0156-4.5352 4.5352 0 1.0078-2.5195 25.695 12.09 40.809 10.578 11.082 26.703 13.098 35.266 13.602v25.191c-2.0156-4.0312-5.0391-7.5586-8.0625-10.578-20.152-19.648-54.41-16.625-55.922-16.625-2.5195 0-4.5352 2.0156-4.5352 4.5352 0 1.5117-2.0156 35.266 18.137 55.418 6.0469 5.543 13.098 9.5742 20.152 12.09h-90.688c7.0547-2.5195 14.105-6.5508 20.152-12.09 20.152-19.648 18.137-53.906 18.137-55.418 0-2.5195-2.0156-4.5352-4.5352-4.5352-1.5117 0-35.266-3.0234-55.922 16.625-3.5273 3.0234-6.0469 7.0547-8.0625 10.578v-25.695c8.0625 0 24.184-1.5117 35.266-12.594 15.113-14.609 13.602-39.297 13.602-40.305 0-2.5195-2.0156-4.5352-4.5352-4.5352-1.0078 0-25.695-2.5195-40.809 12.09-1.5117 1.5117-2.5195 2.5195-3.5273 4.0312v-13.098c4.0312-4.0312 14.105-15.113 13.602-28.719 0-16.625-15.113-29.223-15.617-29.727-2.0156-1.5117-4.5352-1.5117-6.5508 0-0.50391 0.50391-15.617 13.602-15.113 30.23 0 13.098 9.5742 23.68 13.602 27.711v12.594c-0.50391-1.0078-1.5117-1.5117-2.0156-2.5195-14.609-15.113-39.297-13.602-40.305-13.602-2.5195 0-4.5352 2.0156-4.5352 4.5352 0 1.0078-2.5195 25.695 12.09 40.809 10.578 11.082 26.703 13.098 35.266 13.602v25.191c-2.0156-4.0312-5.0391-7.5586-8.0625-10.578-20.152-19.648-54.41-16.625-55.922-16.625-2.5195 0-4.5352 2.0156-4.5352 4.5352 0 1.5117-2.0156 35.266 18.137 55.418 6.0469 5.543 13.098 9.5742 20.152 12.09h-84.613c-3.0234 0-5.0391 2.0156-5.0391 5.0391 0 3.0234 2.0156 5.0391 5.0391 5.0391h392.47c3.0234 0 5.0391-2.0156 5.0391-5.0391 0-3.0234-2.0156-5.0391-5.0391-5.0391zm-91.695-47.863c13.098-12.594 33.754-14.105 43.328-14.105 0 9.0703-2.0156 30.23-15.113 42.824s-33.754 14.105-43.328 14.105c0-9.0664 2.0156-30.227 15.113-42.824zm-4.5312-60.457c8.0625-8.0625 21.16-9.5742 28.215-9.5742-0.50391 7.0547-2.0156 19.648-10.578 27.711-8.0625 8.0625-21.16 9.5742-28.215 9.5742 0.5-6.5508 2.0117-19.648 10.578-27.711zm-24.688-44.332c0-8.0625 5.0391-15.113 8.5664-19.145 3.5273 4.0312 9.0703 11.082 9.0703 18.641 0 8.0625-5.0391 15.113-8.5664 19.145-3.5273-4.0312-8.5664-11.086-9.0703-18.641zm-23.68 62.469c-8.0625-8.0625-9.5742-21.16-9.5742-28.215 7.0547 0.50391 19.648 2.0156 27.711 10.578 7.5586 7.5586 9.0703 19.648 9.5742 26.703v1.5156c-7.0547-0.50391-20.152-2.0156-27.711-10.582zm-30.73 28.215c9.0703 0 30.23 1.5117 43.328 14.105s15.113 33.754 15.113 42.824c-9.5742 0-30.23-1.5117-43.328-14.105-13.102-12.594-15.113-33.754-15.113-42.824zm-77.086 14.105c13.098-12.594 33.754-14.105 43.328-14.105 0 9.0703-2.0156 30.23-15.113 42.824-13.098 12.594-33.754 14.105-43.328 14.105 0-9.5703 2.0156-30.227 15.113-42.824zm-5.0352-60.457c8.0625-8.0625 21.16-9.5742 28.215-9.5742-0.50391 7.0547-2.0156 19.648-10.578 27.711-8.0625 8.0625-21.16 9.5742-28.215 9.5742 0.5-6.5508 2.5156-19.648 10.578-27.711zm-24.184-44.332c0-8.0625 5.0391-15.113 8.5664-19.145 3.5273 4.0312 9.0703 11.082 9.0703 18.641 0 8.0625-5.0391 15.113-8.5664 19.145-3.5312-4.0312-9.0703-11.086-9.0703-18.641zm-24.184 62.469c-8.0625-8.0625-9.5742-21.16-9.5742-28.215 7.0547 0.50391 19.648 2.0156 27.711 10.578 7.5586 7.5586 9.0703 19.648 9.5742 26.703v1.5156c-6.5508-0.50391-19.648-2.0156-27.711-10.582zm-30.734 28.215c9.0703 0 30.23 1.5117 43.328 14.105s15.113 33.754 15.113 42.824c-9.0703 0-30.23-1.5117-43.328-14.105-12.594-12.594-14.609-33.754-15.113-42.824z"/>
  <path d="m402.52 336.52c23.176 0 42.32-19.145 42.32-42.32s-19.145-42.32-42.32-42.32-42.32 19.145-42.32 42.32c0.003907 23.176 19.148 42.32 42.32 42.32zm0-74.566c17.633 0 32.242 14.609 32.242 32.242 0 17.633-14.609 32.242-32.242 32.242s-32.242-14.609-32.242-32.242c0-17.629 14.609-32.242 32.242-32.242z"/>
  <path d="m402.52 233.24c3.0234 0 5.0391-2.0156 5.0391-5.0391v-23.176c0-3.0234-2.0156-5.0391-5.0391-5.0391s-5.0391 2.0156-5.0391 5.0391v23.176c0.003907 2.5195 2.5234 5.0391 5.0391 5.0391z"/>
  <path d="m432.75 240.79c1.0078 0.50391 1.5117 0.50391 2.5195 0.50391 1.5117 0 3.5273-1.0078 4.5352-2.5195l11.586-20.152c1.5117-2.5195 0.50391-5.543-2.0156-7.0547-2.5195-1.5117-5.543-0.50391-7.0547 2.0156l-11.586 20.152c-1.0078 3.0273 0 6.0469 2.0156 7.0547z"/>
  <path d="m459.45 265.48c1.0078 0 1.5117 0 2.5195-0.50391l19.648-11.586c2.5195-1.5117 3.0234-4.5352 2.0156-7.0547-1.5117-2.5195-4.5352-3.0234-7.0547-2.0156l-19.648 11.586c-2.5195 1.5117-3.0234 4.5352-2.0156 7.0547 1.5117 1.5117 3.0234 2.5195 4.5352 2.5195z"/>
  <path d="m463.98 293.19c0 2.5195 2.5195 5.0391 5.0391 5.0391l23.176-0.50391c3.0234 0 5.0391-2.5195 5.0391-5.0391s-2.5195-5.0391-5.0391-5.0391l-23.176 0.50391c-3.0234 0-5.543 2.0156-5.0391 5.0391z"/>
  <path d="m462.98 321.4c-2.5195-1.5117-5.543-0.50391-7.0547 2.0156s-0.50391 5.543 2.0156 7.0547l20.152 11.082c1.0078 0.50391 1.5117 0.50391 2.5195 0.50391 2.0156 0 3.5273-1.0078 4.5352-2.5195 1.5117-2.5195 0.50391-5.543-2.0156-7.0547z"/>
  <path d="m434.76 346.09c-2.5195 1.5117-3.0234 4.5352-1.5117 7.0547l12.09 19.648c1.0078 1.5117 2.5195 2.5195 4.5352 2.5195 1.0078 0 2.0156 0 2.5195-0.50391 2.5195-1.5117 3.0234-4.5352 1.5117-7.0547l-12.09-19.648c-1.5117-2.5195-4.5352-3.5273-7.0547-2.0156z"/>
  <path d="m405.04 355.16c-0.50391 0-0.50391 0 0 0-3.0234 0-5.0391 2.5195-5.0391 5.0391l1.0078 23.176c0 2.5195 2.5195 5.0391 5.0391 5.0391 3.0234 0 5.0391-2.5195 5.0391-5.0391l-1.0078-23.176c-0.50391-3.0234-2.5195-5.0391-5.0391-5.0391z"/>
  <path d="m367.25 350.62-10.578 20.152c-1.5117 2.5195-0.50391 5.543 2.0156 7.0547 0.50391 0.50391 1.5117 0.50391 2.5195 0.50391 2.0156 0 3.5273-1.0078 4.5352-2.5195l10.578-20.152c1.5117-2.5195 0.50391-5.543-2.0156-7.0547-2.5195-1.5117-5.543-0.50391-7.0547 2.0156z"/>
  <path d="m344.07 325.43-19.145 12.594c-2.5195 1.5117-3.0234 4.5352-1.5117 7.0547 1.0078 1.5117 2.5195 2.5195 4.0312 2.5195 1.0078 0 2.0156-0.50391 2.5195-1.0078l19.145-12.594c2.5195-1.5117 3.0234-4.5352 1.5117-7.0547-1.5117-2.5195-4.0312-3.0234-6.5508-1.5117z"/>
  <path d="m313.34 303.77c0.50391 0 0.50391 0 0 0l23.176-1.0078c3.0234 0 5.0391-2.5195 4.5352-5.0391 0-3.0234-2.5195-5.0391-5.0391-4.5352l-23.176 1.0078c-3.0234 0-5.0391 2.5195-4.5352 5.0391 0.50391 2.5195 2.5195 4.5352 5.0391 4.5352z"/>
  <path d="m320.9 258.43 20.656 10.578c0.50391 0.50391 1.5117 0.50391 2.5195 0.50391 2.0156 0 3.5273-1.0078 4.5352-2.5195 1.0078-2.5195 0.50391-5.543-2.0156-6.5508l-20.656-10.578c-2.5195-1.0078-5.543-0.50391-6.5508 2.0156-1.0078 2.5195-1.0078 5.543 1.5117 6.5508z"/>
  <path d="m361.71 241.8c1.0078 1.5117 2.5195 2.0156 4.0312 2.0156 1.0078 0 2.0156-0.50391 3.0234-1.0078 2.5195-1.5117 3.0234-4.5352 1.5117-7.0547l-12.594-19.145c-1.5117-2.5195-4.5352-3.0234-7.0547-1.5117-2.5195 1.5117-3.0234 4.5352-1.5117 7.0547z"/>
 </g>
</svg>