<?xml version="1.0" encoding="UTF-8"?>
<!-- The Best Svg Icon site in the world: iconSvg.co, Visit us! https://iconsvg.co -->
<svg fill="#000000" width="800px" height="800px" version="1.1" viewBox="144 144 512 512" xmlns="http://www.w3.org/2000/svg">
 <g>
  <path d="m494.46 329.15h15.742v15.742h-15.742z"/>
  <path d="m510.21 258.3c0-47.289-31.605-80.895-58.109-100.76l-9.4453 12.594c23.637 17.723 51.809 47.391 51.809 88.168v55.105h15.742z"/>
  <path d="m289.79 274.05h15.742v86.594h-15.742z"/>
  <path d="m203.2 439.36c0.015625 14.609 5.8281 28.613 16.16 38.941 10.328 10.332 24.332 16.145 38.941 16.16h2.7969c-16.695 13.422-26.406 33.688-26.41 55.105 0 2.0898 0.82812 4.0898 2.3047 5.5664 1.4766 1.4766 3.4766 2.3047 5.5664 2.3047h47.23c3.4961-0.023438 6.9805-0.3125 10.43-0.85547 5.1602 22.605 17.84 42.789 35.965 57.246 18.129 14.457 40.629 22.332 63.816 22.332 19.852 0.027344 39.277-5.75 55.891-16.617 7.0859-4.6055 13.555-10.102 19.246-16.352 10.672 6.1289 22.762 9.3555 35.07 9.3516h47.23c2.0898 0 4.0898-0.82812 5.5664-2.3047 1.4766-1.4766 2.3086-3.4805 2.3086-5.5664-0.007812-21.422-9.7188-41.684-26.414-55.105h2.7969c19.688 0 37.879-10.504 47.723-27.551 9.8438-17.051 9.8438-38.055 0-55.105-9.8438-17.047-28.035-27.551-47.723-27.551h-62.977v-181.06c0-59.527-72.422-92.41-75.523-93.789v0.003906c-2.0352-0.90625-4.3594-0.90625-6.3945 0-3.1016 1.375-75.523 34.258-75.523 93.785v125.95h-62.977c-14.609 0.019532-28.613 5.832-38.941 16.16-10.332 10.332-16.145 24.336-16.16 38.945zm47.793 102.34h-0.003907c1.9102-13.109 8.4727-25.094 18.484-33.766 10.016-8.6719 22.816-13.449 36.062-13.469h38.801c-1.9102 13.109-8.4727 25.094-18.484 33.766-10.016 8.6719-22.816 13.453-36.062 13.469zm64.48 10.855h-0.003906c13.289-5.1758 24.707-14.242 32.766-26.008s12.383-25.691 12.402-39.953c0-2.0859-0.82812-4.0898-2.3047-5.5664-1.4766-1.4766-3.4766-2.3047-5.5664-2.3047-10.438 0-20.449-4.1484-27.832-11.527-7.3789-7.3828-11.527-17.395-11.527-27.832 0-10.441 4.1484-20.449 11.527-27.832 7.3828-7.3828 17.395-11.527 27.832-11.527 10.441 0 20.449 4.1445 27.832 11.527 7.3828 7.3828 11.527 17.391 11.527 27.832v180.7c-19.016-1.7109-36.926-9.6797-50.93-22.656-12.914-12.008-21.883-27.648-25.727-44.855zm100.27-278.5v31.488h-31.488v-31.488zm-31.488-15.742v-31.492h31.488v31.488zm78.723 141.7h-31.488v-31.488h31.488zm0-47.23-31.488-0.003906v-31.488h31.488zm0-47.23-31.488-0.003906v-31.488h31.488zm-94.465-0.003906h-31.488v-31.488h31.488zm0 15.742v31.488h-31.488v-31.488zm15.742 0h31.488v31.488h-31.488zm31.488 47.23v31.488l-24.488 0.003906c-2.1719-2.1211-4.5117-4.0586-7-5.7969v-25.691zm-7.8711 87.469v-16.617c-0.011719-8.1758-1.8555-16.246-5.3945-23.617h13.266v33.566c-2.8242 1.9727-5.4609 4.207-7.8711 6.668zm39.453 150.36c-11.824 7.75-25.375 12.465-39.453 13.73v-125.6c0-10.438 4.1445-20.449 11.527-27.828 7.3828-7.3828 17.395-11.531 27.832-11.531s20.449 4.1484 27.832 11.531c7.3828 7.3789 11.527 17.391 11.527 27.828 0 10.441-4.1445 20.453-11.527 27.832-7.3828 7.3828-17.395 11.531-27.832 11.531-4.3477 0-7.8711 3.5234-7.8711 7.8711 0.007813 19.75 8.2852 38.594 22.828 51.953-4.4414 4.8008-9.4297 9.0625-14.863 12.699zm101.68-9.5312h-38.801c-13.246-0.019531-26.047-4.7969-36.059-13.469-10.016-8.6719-16.578-20.656-18.488-33.766h38.801c13.25 0.015625 26.047 4.7969 36.062 13.469 10.012 8.6719 16.574 20.656 18.484 33.766zm-15.184-102.34v15.742h15.742v-15.742c0.003906-14.824-5.9883-29.02-16.617-39.359h8.7461c14.062 0 27.055 7.5039 34.086 19.68 7.0312 12.18 7.0312 27.184 0 39.363-7.0312 12.176-20.023 19.68-34.086 19.68h-55.945c0.14062-0.14062 0.30078-0.26172 0.44141-0.40234h-0.003906c10.414-10.402 16.227-24.539 16.137-39.258-0.085938-14.719-6.0703-28.785-16.605-39.062h8.7422c10.438 0.011719 20.441 4.1641 27.82 11.543 7.3789 7.3789 11.527 17.383 11.543 27.816zm-78.723-55.102h-7.8711c-5.3359 0.015625-10.641 0.80859-15.742 2.3594v-25.977h31.488v23.617zm-23.613-181.06v-31.488h22.207c5.9141 9.4531 9.125 20.344 9.2812 31.488zm10.281-47.23h-10.281v-9.7383c3.6055 3.0508 7.0391 6.3008 10.277 9.7383zm-41.77-30.613c5.4062 2.7656 10.66 5.8242 15.742 9.1523v21.461h-31.488v-21.43c5.082-3.3359 10.34-6.4023 15.746-9.1836zm-31.488 20.93v9.6836h-10.234c3.2266-3.418 6.6406-6.6523 10.234-9.6836zm-22.168 25.426h22.168v31.488h-31.488c0.16016-11.152 3.3828-22.043 9.3203-31.488zm-9.3203 141.7h31.488v18.105c-5.1055-1.5508-10.41-2.3477-15.746-2.3633h-15.742zm-70.848 86.59v-15.742c0.011719-10.438 4.1602-20.441 11.539-27.82 7.3789-7.3789 17.383-11.527 27.82-11.539h8.7461c-10.539 10.273-16.52 24.34-16.609 39.059s5.7227 28.859 16.137 39.258c0.14062 0.14062 0.30078 0.26172 0.44141 0.40234h-55.949c-14.062 0-27.055-7.5039-34.086-19.68-7.0312-12.18-7.0312-27.184 0-39.359 7.0312-12.18 20.023-19.68 34.086-19.68h8.7461c-10.625 10.336-16.621 24.531-16.617 39.359v15.742z"/>
 </g>
</svg>