<?xml version="1.0" encoding="UTF-8"?>
<!-- The Best Svg Icon site in the world: iconSvg.co, Visit us! https://iconsvg.co -->
<svg fill="#000000" width="800px" height="800px" version="1.1" viewBox="144 144 512 512" xmlns="http://www.w3.org/2000/svg">
 <g>
  <path d="m373.3 381.86h119.4c3.0234 0 5.0391-2.0156 5.0391-5.0391v-43.328c0-3.0234-2.0156-5.0391-5.0391-5.0391h-119.4c-3.0234 0-5.0391 2.0156-5.0391 5.0391v43.328c0 2.5195 2.0156 5.0391 5.0391 5.0391zm5.0391-43.328h109.33v33.25h-109.33z"/>
  <path d="m211.07 544.59h69.023v33.25c0 3.0234 2.0156 5.0391 5.0391 5.0391h295.73c3.0234 0 5.0391-2.0156 5.0391-5.0391l-0.003906-180.87 8.5664 16.625c1.0078 1.5117 2.5195 2.5195 4.5352 2.5195 1.0078 0 1.5117 0 2.5195-0.50391 2.5195-1.5117 3.5273-4.5352 2.0156-7.0547l-18.137-34.258-43.832-77.082c-0.50391-1.0078-1.5117-1.5117-2.5195-2.0156l-103.79-47.863c-1.5117-0.50391-3.0234-0.50391-4.0312 0l-96.73 44.336v-18.641c0-35.266-28.719-63.984-63.984-63.984s-63.984 28.719-63.984 63.984v267.02c-0.50391 2.5195 2.0156 4.5352 4.5352 4.5352zm5.0391-162.73h58.945l-15.617 26.703c-1.5117 2.5195-0.50391 5.543 2.0156 7.0547 1.0078 0.50391 1.5117 0.50391 2.5195 0.50391 1.5117 0 3.5273-1.0078 4.5352-2.5195l11.586-19.648v62.977l-63.984-0.003906zm64.988-10.078h-64.988v-71.539h106.3zm-64.988 162.73v-67.512h63.984v67.512zm221.68-51.891 18.137 36.273-18.137 35.266zm-10.078 72.043-18.641-35.266 18.641-36.273zm-1.5117 18.137h-44.84l22.168-42.824zm35.773-42.824 21.16 42.824h-43.328zm25.691 29.223-20.152-40.305 20.152-39.297zm-25.691-51.391-20.656-40.809h41.816zm-58.445 0.50391-21.664-41.312h43.328zm-5.5391 10.582-19.648 37.785v-74.562zm99.754 53.906v-110.84c0-3.0234-2.0156-5.0391-5.0391-5.0391l-119.4 0.003907h-1.0078c-0.50391 0-0.50391 0-1.0078 0.50391l-0.50391 0.50391c-0.50391 0-0.50391 0.50391-1.0078 0.50391 0 0-0.50391 0.50391-0.50391 1.0078 0 0.50391-0.50391 0.50391-0.50391 1.0078v1.0078 0.50391 110.84l-78.594-0.003906v-147.62h285.66v147.11h-78.09zm-64.992-315.38 100.76 46.352 42.32 74.059v37.281h-285.66v-38.793l42.32-73.051zm-162.23-38.793c29.727 0 53.906 24.18 53.906 53.906v17.633h-108.32v-17.633c0-29.727 24.18-53.906 54.41-53.906z"/>
 </g>
</svg>