<?xml version="1.0" encoding="UTF-8"?>
<!-- The Best Svg Icon site in the world: iconSvg.co, Visit us! https://iconsvg.co -->
<svg fill="#000000" width="800px" height="800px" version="1.1" viewBox="144 144 512 512" xmlns="http://www.w3.org/2000/svg">
 <g>
  <path d="m572 453.14c-18.734-0.55078-42.352-20.859-52.426-31.41-0.70703-11.02-2.2031-21.648-4.6445-31.805 10.785-0.62891 20.391-5.3516 27.395-12.676 18.418 23.539 26.762 60.066 29.676 75.891z"/>
  <path d="m538.7 347.73c0 14.719-11.965 26.609-26.609 26.609-11.258 0-21.254-7.1641-25.031-17.871-0.78516-2.2812-2.5977-4.0938-4.9609-4.8789-0.78516-0.23438-1.6523-0.39453-2.4414-0.39453-1.5742 0-3.0703 0.47266-4.4102 1.3398-10.941 7.4805-26.922 5.1953-35.504-5.4336-2.3633-2.9141-6.5352-3.7773-9.918-1.9688-8.4219 4.6445-17.633 4.4102-25.898-0.31641-2.4414-1.418-5.4336-1.418-7.8711 0-8.2656 4.7227-17.477 4.9609-25.898 0.31641-3.3867-1.8086-7.5586-0.94531-9.918 1.9688-8.582 10.629-24.48 12.91-35.504 5.4336-2.0469-1.3398-4.5664-1.6523-6.8477-0.94531-2.3633 0.78906-4.1719 2.5977-4.9609 4.8789-3.7773 10.707-13.777 17.871-25.031 17.871-14.641 0-26.609-11.887-26.609-26.609 0-12.438 8.8945-23.379 21.098-25.977 2.125-0.47266 3.9375-1.8125 5.1172-3.6211 1.1016-1.8906 1.418-4.1719 0.78516-6.2188-0.78516-2.832-1.1016-5.1172-1.1016-7.2422 0-17.711 17.555-31.805 35.977-24.797 3.7773 1.418 8.0312-0.31641 9.8398-3.9375 4.4883-9.3672 13.695-15.113 23.852-15.113 0.47266 0 0.86719 0.078126 1.2578 0.078126l1.418 0.15625c3.543 0.39453 6.6914-1.5742 8.0312-4.7227 5.5938-12.988 18.266-21.41 32.438-21.41 14.168 0 26.844 8.4219 32.434 21.414 1.3398 3.1484 4.5664 5.1172 8.0312 4.7227l1.418-0.15625c0.39453 0 0.78516-0.078125 1.2578-0.078125 10.156 0 19.367 5.7461 23.852 15.113 1.8086 3.6211 6.0625 5.3516 9.8398 3.9375 18.422-7.0078 35.977 7.0859 35.977 24.797 0 2.125-0.31641 4.4102-1.1016 7.2422-0.62891 2.0469-0.31641 4.3281 0.78516 6.2188 1.1797 1.8086 2.9922 3.1484 5.1172 3.6211 12.199 2.5938 21.094 13.535 21.094 25.973z"/>
  <path d="m285.07 389.92c-2.4414 10.156-3.9375 20.781-4.6445 31.883-10.074 10.469-33.691 30.781-52.426 31.332 2.9141-15.824 11.258-52.348 29.676-75.887 7.0078 7.3203 16.609 12.043 27.395 12.672z"/>
  <path d="m498.16 387.64c-9.1328-3.1484-16.926-9.4453-22.043-17.789-14.719 5.9023-32.59 2.6758-44.398-8.2656-10.312 3.9375-21.648 3.4648-31.723-1.1016-10.078 4.5664-21.41 5.0391-31.723 1.1016-11.809 10.941-29.676 14.168-44.398 8.2656-5.1172 8.3438-12.91 14.641-22.043 17.789-4.0156 14.641-6.0625 30.543-6.0625 47.391 0 76.594 42.902 130.05 104.23 130.05s104.23-53.449 104.23-130.05c-0.003906-16.848-2.0508-32.75-6.0625-47.391zm-147.76 54.629c-9.3672 0-16.926-7.5586-16.926-16.926s7.5586-16.926 16.926-16.926 16.926 7.5586 16.926 16.926c-0.003906 9.3711-7.5586 16.926-16.926 16.926zm32.352 60.695c-4.8008 0-8.6602-3.8555-8.6602-8.6602 0-4.7227 3.8555-8.582 8.6602-8.582 4.7227 0 8.582 3.8555 8.582 8.582 0 4.8008-3.8594 8.6602-8.582 8.6602zm34.48 0c-4.7227 0-8.582-3.8555-8.582-8.6602 0-4.7227 3.8594-8.582 8.582-8.582 4.8008 0 8.6602 3.8555 8.6602 8.582 0 4.8008-3.8594 8.6602-8.6602 8.6602zm34.871-60.695c-9.3672 0-17.004-7.5586-17.004-16.926s7.6367-16.926 17.004-16.926 16.926 7.5586 16.926 16.926c0 9.3711-7.5547 16.926-16.926 16.926z"/>
 </g>
</svg>