<?xml version="1.0" encoding="UTF-8"?>
<!-- The Best Svg Icon site in the world: iconSvg.co, Visit us! https://iconsvg.co -->
<svg fill="#000000" width="800px" height="800px" version="1.1" viewBox="144 144 512 512" xmlns="http://www.w3.org/2000/svg">
 <g>
  <path d="m441.33 299.87v23.379h-82.656v-23.379c0-5.5117 4.5625-10.078 10.074-10.078h62.504c5.5117 0 10.078 4.5664 10.078 10.078z"/>
  <path d="m559.41 360.64v39.359c0 11.965-9.6836 21.648-21.648 21.648h-275.52c-11.965 0-21.648-9.6836-21.648-21.648v-39.359c0-11.965 9.6836-21.648 21.648-21.648h275.52c11.965 0.003907 21.648 9.6836 21.648 21.648z"/>
  <path d="m538.78 510.21h-46.996l-25.031-25.113-12.598 25.113h-49.906l-23.93-35.816-23.934 35.816h-40.066l-12.598-25.113-25.031 25.113h-26.922l11.57-72.816h267.41z"/>
 </g>
</svg>