<?xml version="1.0" encoding="UTF-8"?>
<!-- The Best Svg Icon site in the world: iconSvg.co, Visit us! https://iconsvg.co -->
<svg fill="#000000" width="800px" height="800px" version="1.1" viewBox="144 144 512 512" xmlns="http://www.w3.org/2000/svg">
 <g>
  <path d="m477.53 223.57c-10.316-0.20312-20.031 3.4688-27.414 10.629-0.47656 0.46094-0.93359 0.92969-1.3789 1.4062-0.14844-10.066-4.1992-19.453-11.445-26.488-7.3789-7.1602-17.102-10.875-27.41-10.629-17.902 0.54297-32.836 14.422-35.957 32.188-0.62891-0.70703-1.2852-1.3906-1.9688-2.0625-7.3789-7.1602-17.098-10.906-27.41-10.629-20.156 0.60547-36.555 18.129-36.555 39.059l-0.003907 105.64-15.043-15.039c-7.3047-7.3047-16.363-11.918-25.504-12.98-10.953-1.293-21.23 2.543-29.742 11.059-7.125 7.1211-11.047 16.59-11.047 26.66 0 10.07 3.9219 19.543 11.047 26.66l70.289 70.289v127.15c0 2.7852 2.2539 5.0391 5.0391 5.0391h193.49c2.7812 0 5.0391-2.2539 5.0391-5.0391l-0.003907-78.312 42.398-56.023c12.449-16.449 19.316-36.871 19.332-57.504l0.058594-68.207c0-19.113-15.551-34.668-34.668-34.668-9.6055 0-18.305 3.9258-24.59 10.254v-49.391c0-20.93-16.398-38.457-36.551-39.062zm-159.46 367.88v-58.477h183.41v58.477zm220.61-279.6c13.559 0 24.59 11.031 24.59 24.586l-0.054687 68.203c-0.015626 18.453-6.1562 36.723-17.293 51.434l-43.418 57.371c-0.66016 0.875-1.0195 1.9453-1.0195 3.0391v6.4102h-183.41v-55.641c0-1.3398-0.53125-2.6172-1.4766-3.5625l-71.766-71.762c-5.2188-5.2188-8.0938-12.156-8.0938-19.539 0-7.3789 2.875-14.316 8.0938-19.539 6.3438-6.3477 13.566-9.1211 21.449-8.1758 6.8008 0.79297 13.922 4.4727 19.547 10.098l23.645 23.641c1.4453 1.4414 3.6094 1.8828 5.4922 1.0938 1.8828-0.77734 3.1094-2.6172 3.1094-4.6562v-117.8c0-15.543 12.012-28.539 26.781-28.984 7.4922-0.26562 14.688 2.5391 20.09 7.7852 5.4102 5.25 8.3906 12.297 8.3906 19.832v73.992c0 2.7852 2.2539 5.0391 5.0391 5.0391 2.7812 0 5.0391-2.2539 5.0391-5.0391l-0.003906-73.992v-18.125c0-15.543 12.012-28.547 26.781-28.988 7.5234-0.26953 14.688 2.5391 20.094 7.7852 5.4102 5.25 8.3906 12.297 8.3906 19.832v93.488c0 2.7852 2.2539 5.0391 5.0391 5.0391 2.7812 0 5.0391-2.2539 5.0391-5.0391v-68.406c0-7.5391 2.9805-14.582 8.3906-19.832 5.4062-5.2461 12.527-8.0625 20.098-7.7852 14.766 0.44141 26.777 13.441 26.777 28.984v128.61c0 2.7852 2.2539 5.0391 5.0391 5.0391 2.7812 0 5.0391-2.2539 5.0391-5.0391l-0.007813-54.809c0-13.559 11.031-24.59 24.594-24.59z"/>
  <path d="m354.79 550.46c-2.7812 0-5.0391 2.2539-5.0391 5.0391v13.965c0 2.7852 2.2539 5.0391 5.0391 5.0391 2.7812 0 5.0391-2.2539 5.0391-5.0391v-13.965c-0.003907-2.7852-2.2578-5.0391-5.0391-5.0391z"/>
  <path d="m389.27 550.46c-2.7812 0-5.0391 2.2539-5.0391 5.0391v13.965c0 2.7852 2.2539 5.0391 5.0391 5.0391 2.7812 0 5.0391-2.2539 5.0391-5.0391v-13.965c0-2.7852-2.2539-5.0391-5.0391-5.0391z"/>
  <path d="m423.77 550.46c-2.7812 0-5.0391 2.2539-5.0391 5.0391v13.965c0 2.7852 2.2539 5.0391 5.0391 5.0391 2.7812 0 5.0391-2.2539 5.0391-5.0391v-13.965c0-2.7852-2.2578-5.0391-5.0391-5.0391z"/>
  <path d="m458.26 550.46c-2.7812 0-5.0391 2.2539-5.0391 5.0391v13.965c0 2.7852 2.2539 5.0391 5.0391 5.0391 2.7812 0 5.0391-2.2539 5.0391-5.0391v-13.965c0-2.7852-2.2578-5.0391-5.0391-5.0391z"/>
 </g>
</svg>