<?xml version="1.0" encoding="UTF-8"?>
<!-- The Best Svg Icon site in the world: iconSvg.co, Visit us! https://iconsvg.co -->
<svg fill="#000000" width="800px" height="800px" version="1.1" viewBox="144 144 512 512" xmlns="http://www.w3.org/2000/svg">
 <g>
  <path d="m442.8 557.61c-46.996 26.844-111 13.617-129.5-8.1094-7.9492-9.2109-7.5586-18.895 1.0234-29.598 15.113-18.973 30.148-27 43.375-34.086 20.152-10.785 37.551-20.074 37.551-59.906v-85.883l2.9922-2.9922 24.324 16.215c3.1484 2.0469 7.2422 1.6523 9.918-0.94531 6.2969-6.2969 16.293-12.203 18.578-9.918 3.2266 3.2266 8.0312 6.375 13.227 9.1328 10.941 51.246 26.609 178.62-21.492 206.09z"/>
  <path d="m492.39 346.88c-10.863-4.0938-25.031-10.469-30.23-15.664-3.543-3.6211-7.793-5.1172-12.281-5.1172-7.8711 0-16.453 4.6445-23.695 10.629l-24.562-16.375c-3.1484-2.0469-7.3203-1.6523-9.918 1.0234l-21.176 21.098c-0.78906-3.2266-1.418-7.1641-1.418-11.57 0-7.0039 1.5742-15.191 6.375-23.852 14.25-25.586 46.602-37.234 76.91-27.633 20.703 6.5352 32.828 19.602 36.055 38.887 2.3672 14.012 3.4727 22.906 3.9414 28.574z"/>
  <path d="m443.59 261.23c-5.9844-0.86719-11.965-1.1016-17.871-0.70703l-9.5234-28.18 19.836-4.9609c3.3086 5.1172 8.5039 16.137 7.5586 33.848z"/>
 </g>
</svg>