<?xml version="1.0" encoding="UTF-8"?>
<!-- The Best Svg Icon site in the world: iconSvg.co, Visit us! https://iconsvg.co -->
<svg fill="#000000" width="800px" height="800px" version="1.1" viewBox="144 144 512 512" xmlns="http://www.w3.org/2000/svg">
 <g>
  <path d="m589.91 620.41 14.328-121.82c0.28906-2.4414 0.43359-4.8984 0.43359-7.3594v-28.258c-0.023437-12.094-3.5195-23.926-10.082-34.082-6.5586-10.156-15.902-18.211-26.918-23.203 8.4648-7.3945 13.34-18.07 13.383-29.309v-55.105h-7.8711c-12.438 0.035156-24.121 5.9688-31.488 15.988-7.3672-10.02-19.051-15.953-31.488-15.988h-7.8711v55.105c0.042968 11.238 4.918 21.914 13.383 29.309-11.016 4.9922-20.359 13.047-26.918 23.203-6.5625 10.156-10.062 21.988-10.082 34.082v28.262-0.003906c-0.003906 2.4609 0.14062 4.918 0.43359 7.3594l14.328 121.82h-45.266l14.328-121.82c0.28906-2.4414 0.43359-4.8984 0.43359-7.3594v-28.258c-0.023437-12.094-3.5234-23.926-10.082-34.082-6.5625-10.156-15.906-18.211-26.918-23.203 8.4648-7.3945 13.34-18.07 13.383-29.309v-55.105h-7.8711c-12.438 0.035156-24.125 5.9688-31.488 15.988-7.3672-10.02-19.051-15.953-31.488-15.988h-7.875v55.105c0.046875 11.238 4.9219 21.914 13.383 29.309-11.012 4.9922-20.355 13.047-26.918 23.203-6.5586 10.156-10.059 21.988-10.078 34.082v28.262-0.003906c-0.003907 2.4609 0.14062 4.918 0.43359 7.3594l14.324 121.82h-45.266l14.328-121.82c0.29297-2.4414 0.4375-4.8984 0.43359-7.3594v-28.258c-0.019532-12.094-3.5195-23.926-10.078-34.082-6.5625-10.156-15.906-18.211-26.918-23.203 8.4609-7.3945 13.336-18.07 13.383-29.309v-55.105h-7.875c-12.438 0.035156-24.121 5.9688-31.488 15.988-7.3633-10.02-19.051-15.953-31.488-15.988h-7.8711v55.105c0.042969 11.238 4.918 21.914 13.383 29.309-11.012 4.9922-20.355 13.047-26.918 23.203-6.5586 10.156-10.059 21.988-10.082 34.082v28.262-0.003906c0 2.4609 0.14453 4.918 0.43359 7.3594l14.328 121.82h-46.25v15.742l472.32 0.003906v-15.746zm-307.99-282.05v38.016c-0.003907 4.8828-1.5195 9.6445-4.3398 13.633s-6.8008 7.0039-11.402 8.6367v-38.016c0.003907-4.8828 1.5195-9.6445 4.3359-13.629 2.8203-3.9883 6.8047-7.0078 11.406-8.6406zm-47.23 0c4.6016 1.6328 8.5859 4.6523 11.402 8.6406 2.8203 3.9844 4.3359 8.7461 4.3398 13.629v38.016c-4.6016-1.6328-8.5859-4.6484-11.402-8.6367-2.8203-3.9883-4.3359-8.75-4.3398-13.633zm-8.7383 282.05-7.4062-62.977h47.633v-15.742h-49.492l-5.2891-44.949c-0.21484-1.8281-0.32422-3.668-0.32422-5.5117v-28.258h55.105v-15.746h-52.352c5.0273-14.07 16.418-24.93 30.707-29.285 14.293-4.3555 29.801-1.6914 41.82 7.1797 12.02 8.8711 19.137 22.91 19.184 37.852v28.262c0 1.0781-0.11719 2.1484-0.1875 3.2266l-54.918-0.003906v15.742h53.199l-12.973 110.21zm197.66-282.05v38.016c-0.003906 4.8828-1.5195 9.6445-4.3398 13.633-2.8164 3.9883-6.8008 7.0039-11.402 8.6367v-38.016c0.003906-4.8828 1.5195-9.6445 4.3398-13.629 2.8164-3.9883 6.8008-7.0078 11.402-8.6406zm-47.23 0c4.6016 1.6328 8.5859 4.6523 11.402 8.6406 2.8203 3.9844 4.3359 8.7461 4.3398 13.629v38.016c-4.6016-1.6328-8.5859-4.6484-11.402-8.6367-2.8203-3.9883-4.3359-8.75-4.3398-13.633zm-8.7383 282.05-7.4062-62.977h47.633v-15.742h-49.492l-5.2891-44.949c-0.21484-1.8281-0.32422-3.668-0.32422-5.5117v-28.258h55.105v-15.746h-52.348c5.0273-14.07 16.414-24.93 30.703-29.285 14.293-4.3555 29.801-1.6914 41.824 7.1797 12.02 8.8711 19.133 22.91 19.18 37.852v28.262c0 1.0781-0.11719 2.1484-0.1875 3.2266l-54.918-0.003906v15.742h53.199l-12.973 110.21zm197.67-282.05v38.016c-0.007812 4.8828-1.5234 9.6445-4.3398 13.633-2.8203 3.9883-6.8047 7.0039-11.406 8.6367v-38.016c0.003906-4.8828 1.5195-9.6445 4.3398-13.629 2.8203-3.9883 6.8047-7.0078 11.406-8.6406zm-47.23 0h-0.003906c4.6016 1.6328 8.5859 4.6523 11.406 8.6406 2.8164 3.9844 4.332 8.7461 4.3398 13.629v38.016c-4.6016-1.6328-8.5859-4.6484-11.406-8.6367-2.8203-3.9883-4.3359-8.75-4.3398-13.633zm-8.7422 282.05-7.4062-62.977h47.633v-15.742h-49.492l-5.2891-44.949c-0.21484-1.8281-0.32422-3.668-0.32422-5.5117v-28.258h55.105v-15.746h-52.348c5.0273-14.07 16.414-24.93 30.707-29.285 14.289-4.3555 29.801-1.6914 41.82 7.1797 12.02 8.8711 19.133 22.91 19.18 37.852v28.262c0 1.0781-0.11719 2.1484-0.1875 3.2266l-54.914-0.003906v15.742h53.199l-12.973 110.21z"/>
  <path d="m400 258.3c12.523 0 24.539-4.9766 33.398-13.832 8.8555-8.8594 13.832-20.871 13.832-33.398 0-12.527-4.9766-24.539-13.832-33.398-8.8594-8.8594-20.875-13.836-33.398-13.836-12.527 0-24.543 4.9766-33.398 13.836-8.8594 8.8594-13.836 20.871-13.836 33.398 0.015625 12.523 4.9961 24.527 13.852 33.383 8.8555 8.8516 20.859 13.836 33.383 13.848zm0-78.719c8.3516 0 16.359 3.3164 22.266 9.2227 5.9023 5.9062 9.2227 13.914 9.2227 22.266 0 8.3516-3.3203 16.359-9.2227 22.266-5.9062 5.9062-13.914 9.2227-22.266 9.2227s-16.363-3.3164-22.266-9.2227c-5.9062-5.9062-9.2227-13.914-9.2227-22.266 0-8.3516 3.3164-16.359 9.2227-22.266 5.9023-5.9062 13.914-9.2227 22.266-9.2227z"/>
  <path d="m313.41 203.2h23.617v15.742h-23.617z"/>
  <path d="m462.98 203.2h23.617v15.742h-23.617z"/>
  <path d="m392.12 274.05h15.742v23.617h-15.742z"/>
  <path d="m331.46 268.48 15.742-15.742 11.133 11.133-15.742 15.742z"/>
  <path d="m441.66 263.88 11.133-11.133 15.742 15.742-11.133 11.133z"/>
 </g>
</svg>