<?xml version="1.0" encoding="UTF-8"?>
<!-- The Best Svg Icon site in the world: iconSvg.co, Visit us! https://iconsvg.co -->
<svg fill="#000000" width="800px" height="800px" version="1.1" viewBox="144 144 512 512" xmlns="http://www.w3.org/2000/svg">
 <path d="m203.51 591.45c-2.7852 0-5.0391 2.2539-5.0391 5.0391 0 2.7812 2.2539 5.0391 5.0391 5.0391h392.97c2.7852 0 5.0391-2.2539 5.0391-5.0391 0-2.7812-2.2539-5.0391-5.0391-5.0391h-38.82v-16.602c1.3398 0.09375 2.9062 0.16406 4.6641 0.16406 8.5 0 21.039-1.6094 29.309-9.8828 13.254-13.254 9.4102-37.438 9.2383-38.461-0.35547-2.125-2.0156-3.7891-4.1445-4.1445-1.0195-0.16797-25.211-4.0195-38.461 9.2344-0.22266 0.22266-0.39844 0.46875-0.60938 0.69531v-23.961c1.3398 0.09375 2.9062 0.16406 4.6641 0.16406 8.5 0 21.039-1.6094 29.309-9.8828 13.254-13.25 9.4102-37.438 9.2383-38.461-0.35547-2.125-2.0156-3.7891-4.1445-4.1445-1.0195-0.17187-25.211-4.0156-38.461 9.2383-0.22266 0.21875-0.39844 0.46875-0.60938 0.69531v-12.785c5.2812-4.3281 18.559-16.738 18.559-32.082 0-18.742-19.824-33.125-20.668-33.727-1.75-1.2539-4.0977-1.2539-5.8594 0-0.83984 0.60156-20.66 14.988-20.66 33.727 0 15.348 13.277 27.758 18.555 32.086v41.984c-0.24219-0.26172-0.44531-0.54297-0.69922-0.79297-6.9062-6.9062-16.77-9.1484-24.793-9.707l0.007812-30.152c0-2.7812-2.2539-5.0391-5.0391-5.0391h-8.207l0.003907-127.13h25.195c1.6875 0 3.2617-0.84375 4.1953-2.25 0.92969-1.4023 1.1016-3.1797 0.44922-4.7344l-47.734-113.93c-0.78516-1.875-2.6133-3.0898-4.6445-3.0898h-172.63c-2.0312 0-3.8633 1.2188-4.6445 3.0938l-47.734 113.93c-0.65625 1.5547-0.48047 3.332 0.44922 4.7344 0.93359 1.4062 2.5078 2.25 4.1953 2.25h25.195v127.12h-8.207c-2.7852 0-5.0391 2.2539-5.0391 5.0391v30.145c-8.0156 0.55859-17.863 2.8086-24.766 9.7148-0.25391 0.25391-0.45703 0.53516-0.69922 0.79297v-41.984c5.2734-4.3281 18.555-16.738 18.555-32.086 0-18.742-19.816-33.125-20.66-33.727-1.7617-1.2539-4.1094-1.2539-5.8594 0-0.84766 0.60156-20.668 14.988-20.668 33.727 0 15.344 13.277 27.754 18.559 32.082v12.785c-0.21094-0.22656-0.39062-0.47266-0.60938-0.69531-13.246-13.25-37.438-9.4102-38.461-9.2383-2.125 0.35156-3.7891 2.0156-4.1445 4.1445-0.17188 1.0234-4.0156 25.211 9.2383 38.461 8.2695 8.2773 20.809 9.8828 29.309 9.8828 1.7578 0 3.3242-0.070313 4.6641-0.16406v23.961c-0.21094-0.22656-0.39062-0.47266-0.60938-0.69531-13.246-13.246-37.438-9.4062-38.461-9.2344-2.125 0.35156-3.7891 2.0156-4.1445 4.1445-0.17188 1.0234-4.0156 25.207 9.2383 38.461 8.2695 8.2734 20.809 9.8828 29.309 9.8828 1.7578 0 3.3242-0.070312 4.6641-0.16406l0.003907 16.602zm361.89-52.562c7.0312-7.0312 19.66-7.2227 25.918-6.8008 0.41406 6.2812 0.22656 18.895-6.8047 25.922s-19.672 7.2188-25.918 6.8008c-0.41016-6.2852-0.22656-18.891 6.8047-25.922zm0-66.352c7.0312-7.0273 19.656-7.2188 25.918-6.8047 0.41406 6.2812 0.22656 18.895-6.8047 25.922-7.0273 7.0312-19.633 7.2227-25.918 6.8047-0.41016-6.2852-0.22656-18.895 6.8047-25.922zm-323.97 25.949c-7.1602 0.48047-19.324-0.23438-25.918-6.832-7.0391-7.0391-7.2188-19.68-6.8047-25.949 7.1523-0.48828 19.32 0.23438 25.918 6.832 7.043 7.0391 7.2188 19.68 6.8047 25.949zm0 66.352c-7.1523 0.49609-19.324-0.23438-25.918-6.832-7.0391-7.0391-7.2188-19.68-6.8047-25.949 7.1641-0.48047 19.324 0.23828 25.918 6.832 7.043 7.0391 7.2188 19.68 6.8047 25.949zm54.348-57.535h59.633v38.91h-67.43v-20.016c4.668-5.5234 6.875-12.488 7.7969-18.895zm99.324-47.609v37.535l-57.426-0.003906v-37.531zm109.15 47.609c0.91797 6.3945 3.1172 13.352 7.7734 18.867v20.043h-67.156v-38.91zm-109.15 48.984v35.164h-57.426v-35.164zm39.695-48.984v38.91h-69.312v-38.91zm-29.617 48.984h57.426v35.164h-57.426zm0-59.062v-37.531h57.426v37.535zm-117.2 59.062h39.621l-0.003906 35.164h-39.621zm184.7 35.164v-35.164h39.344l0.003907 35.164zm66.438-170.21c0-9.957 8.8125-19.02 13.539-23.16 5.3984 4.7305 13.496 13.832 13.496 23.16 0 9.9531-8.8164 19.016-13.543 23.16-5.3945-4.7305-13.492-13.832-13.492-23.16zm8.4766 116.35v53.863h-25.492v-57.766c7.0117 3.2383 14.836 4.0742 20.734 4.0742 1.7969 0 3.3984-0.074218 4.7578-0.17188zm-1.0195-10.031c-6.2812 0.41406-18.895 0.23047-25.922-6.8008-7.0273-7.0273-7.2109-19.637-6.8008-25.922 6.2734-0.41797 18.895-0.22266 25.918 6.8008 7.0312 7.0312 7.2148 19.641 6.8047 25.922zm-34.547-42.691c-2.0312 0.16797-3.3711 0.375-3.5898 0.41016-2.125 0.35156-3.7891 2.0156-4.1445 4.1445-0.058593 0.34766-0.53516 3.4258-0.625 7.8086h-30.988v-37.535h39.344zm-194.99-276.31h165.93l43.512 103.85h-252.96zm-15.812 113.93h197.56v127.13h-197.56zm26.375 137.21v37.535h-31.238c-0.089844-4.3828-0.56641-7.4609-0.625-7.8086-0.35547-2.125-2.0156-3.7891-4.1445-4.1445-0.22266-0.039062-1.5742-0.24609-3.6172-0.41797l0.007812-25.164zm-67.34 41.941c7.0312-7.0273 19.645-7.2109 25.918-6.8008 0.41406 6.2812 0.22656 18.891-6.7969 25.918l-0.003906 0.003906c-7.0273 7.0273-19.605 7.2188-25.922 6.8008-0.40625-6.2812-0.22266-18.891 6.8047-25.922zm-26.379-80.398c0-9.957 8.8164-19.02 13.543-23.16 5.3906 4.7305 13.492 13.832 13.492 23.16 0 9.957-8.8125 19.016-13.539 23.16-5.3984-4.7305-13.496-13.832-13.496-23.16zm18.559 116.36c1.3594 0.097656 2.9609 0.16797 4.7578 0.16797 5.8906 0 13.699-0.83203 20.707-4.0625v57.754h-25.465z"/>
</svg>