<?xml version="1.0" encoding="UTF-8"?>
<!-- The Best Svg Icon site in the world: iconSvg.co, Visit us! https://iconsvg.co -->
<svg fill="#000000" width="800px" height="800px" version="1.1" viewBox="144 144 512 512" xmlns="http://www.w3.org/2000/svg">
 <g>
  <path d="m573.18 437.68c0 62.898-26.922 116.04-58.805 116.04-5.668 0-11.18-1.6523-16.609-5.0391 14.562-16.531 25.504-41.957 30.699-71.477l-15.508-2.7539c-5.3516 30.699-17.16 55.969-32.434 69.273-12.676 11.18-26.688 12.91-39.832 5.1172 13.934-15.742 22.516-37.941 27.473-57.309l-15.273-3.7773c-41.328 136.66-119.81 33.691-111.55-58.016l-15.742-0.62891c-0.55078 38.023 6.0625 90.766 33.535 119.73-13.145 7.793-27.078 6.0625-39.676-5.1172-15.273-13.305-27.078-38.574-32.434-69.273l-15.508 2.7539c5.1953 29.52 16.137 54.945 30.699 71.477-5.4336 3.3867-10.941 5.0391-16.609 5.0391-31.883 0-58.805-53.137-58.805-116.04 0-62.898 26.922-115.95 58.805-115.95 5.668 0 11.18 1.6523 16.609 4.9609-15.742 17.789-27.16 45.816-31.805 78.719-0.30859 2.1953-0.62109 4.4805-0.78125 6.8438l15.664 1.3398c0.15625-2.0469 0.47266-4.0938 0.70703-6.0625 4.7227-33.219 17.16-61.559 33.457-75.887 12.988-11.492 27.316-12.988 40.699-4.5664-16.609 18.262-28.102 45.027-30.781 67.543l15.43 3.0703c4.25-20.469 10.785-40.934 24.008-57.703 64.707-68.488 99.266 73.445 88.797 120.68l15.664 1.7305c0.78516-8.4219 1.1797-17.082 1.1797-25.664 0-38.023-8.2656-76.832-31.254-106.98-0.86719-1.0234-1.7305-2.125-2.5977-3.1484 13.227-7.8711 27.238-6.2188 39.91 5.0391 16.297 14.328 28.734 42.668 33.457 75.887 0.23828 1.9688 0.55078 4.0156 0.70703 6.0625l15.664-1.3398c-0.14453-2.3633-0.46094-4.6484-0.77734-6.9297-4.6445-32.828-16.059-60.852-31.805-78.641 5.4336-3.3047 10.941-4.9609 16.609-4.9609 31.887 0 58.809 53.059 58.809 115.96z"/>
  <path d="m439.75 246.07v17.789c-4.4883 7.0859-17.555 28.969-18.891 46.996-11.57-6.0625-22.906-6.457-33.457-2.9141 5.2695-18.734 19.754-56.52 52.348-61.871z"/>
 </g>
</svg>