<?xml version="1.0" encoding="UTF-8"?>
<!-- The Best Svg Icon site in the world: iconSvg.co, Visit us! https://iconsvg.co -->
<svg fill="#000000" width="800px" height="800px" version="1.1" viewBox="144 144 512 512" xmlns="http://www.w3.org/2000/svg">
 <g>
  <path d="m596.48 591.56h-20.16c-1.4219-24.242-20.34-43.859-44.312-46.254v-16.008c9.3008-0.52734 29.273-3.0664 41.16-14.953 15.852-15.852 11.223-44.965 11.016-46.199-0.32422-1.9609-1.7773-3.5469-3.6992-4.0508-1.1719-0.30078-28.875-7.2773-44.93 8.7695-3.832 3.832-6.5898 8.8164-8.5859 14.172-1.9961-5.3555-4.7539-10.34-8.5859-14.172-16.051-16.047-43.754-9.0703-44.93-8.7695-1.9219 0.5-3.375 2.0898-3.6992 4.0508-0.20703 1.2344-4.832 30.348 11.016 46.199 11.887 11.887 31.859 14.426 41.16 14.953v16.023c-23.891 2.4727-42.727 22.055-44.145 46.238h-47.691v-151.24h110.08c2.7812 0 5.0391-2.2539 5.0391-5.0391v-192.88c0-2.7812-2.2539-5.0391-5.0391-5.0391h-110.08v-10.836c0-15.539-12.641-28.18-28.176-28.18h-3.8477c-15.539 0-28.176 12.641-28.176 28.18v10.836h-110.08c-2.7812 0-5.0391 2.2539-5.0391 5.0391v192.88c0 2.7812 2.2539 5.0391 5.0391 5.0391h110.08v151.24h-47.523c-1.4219-24.242-20.34-43.855-44.309-46.254l-0.003906-16.008c9.3008-0.52734 29.273-3.0664 41.16-14.953 15.852-15.852 11.223-44.965 11.016-46.199-0.32422-1.9609-1.7773-3.5469-3.6992-4.0508-1.1719-0.30078-28.879-7.2773-44.93 8.7695-3.832 3.832-6.5898 8.8164-8.5859 14.172-1.9961-5.3555-4.7539-10.34-8.5859-14.172-16.055-16.055-43.754-9.0742-44.93-8.7695-1.9219 0.5-3.375 2.0898-3.6992 4.0508-0.20703 1.2344-4.832 30.348 11.016 46.199 11.887 11.887 31.859 14.426 41.16 14.953v16.023c-23.891 2.4727-42.727 22.055-44.145 46.238h-20.328c-2.7812 0-5.0391 2.2539-5.0391 5.0391 0 2.7812 2.2539 5.0391 5.0391 5.0391h392.97c2.7812 0 5.0391-2.2539 5.0391-5.0391 0-2.7812-2.2578-5.0391-5.0391-5.0391zm-53.805-111.57c9.2266-9.2266 25.074-7.9023 31.949-6.793 0.60938 7.3008 0.88672 24.551-8.582 34.023-9.2148 9.2148-25.848 11.441-34.035 11.973 0-0.28906 0.003906-0.54297 0-0.85156 0.11719-11.113 2.1133-29.793 10.668-38.352zm-63.363-6.8047c6.8477-1.1211 22.676-2.4688 31.945 6.8047 8.5625 8.5625 10.555 27.246 10.672 38.359-0.003906 0.30469 0 0.55469 0 0.84375-8.1875-0.53516-24.824-2.7617-34.035-11.973-9.4766-9.4766-9.1914-26.738-8.582-34.035zm47.738 81.945c20.711 0 37.695 16.098 39.191 36.43h-78.379c1.4961-20.332 18.48-36.43 39.188-36.43zm-147.08-328.6c0-9.9844 8.1211-18.102 18.102-18.102h3.8477c9.9805 0 18.102 8.1211 18.102 18.102v10.836h-40.051zm-115.12 20.914h270.29v182.8h-270.29zm115.12 192.88h40.051v151.24h-40.051zm-91.238 39.668c9.2266-9.2266 25.078-7.9023 31.949-6.793 0.60938 7.3008 0.88672 24.551-8.582 34.023-9.2148 9.2148-25.844 11.438-34.035 11.973 0-0.36719 0.003906-0.69531-0.003906-1.0898 0.13281-11.133 2.1484-29.586 10.672-38.113zm-63.367-6.793c6.8672-1.1094 22.719-2.4297 31.949 6.793 8.5547 8.5586 10.551 27.234 10.672 38.352-0.003906 0.30859 0 0.5625 0 0.85156-8.1875-0.53516-24.824-2.7617-34.035-11.973-9.4727-9.4727-9.1914-26.723-8.5859-34.023zm47.742 81.934c20.711 0 37.691 16.098 39.188 36.43h-78.375c1.4961-20.332 18.477-36.43 39.188-36.43z"/>
  <path d="m463.79 398.42h-14.352c-1.4297-24.234-20.344-43.844-44.312-46.242v-16.004c9.3008-0.52734 29.273-3.0664 41.16-14.957 15.852-15.848 11.223-44.965 11.016-46.195-0.32422-1.9609-1.7773-3.5469-3.6992-4.0508-1.168-0.30078-28.879-7.2852-44.93 8.7695-3.832 3.832-6.5898 8.8164-8.5859 14.172-1.9961-5.3555-4.7539-10.34-8.5859-14.172-16.051-16.059-43.758-9.0703-44.93-8.7695-1.9219 0.5-3.375 2.0898-3.6992 4.0508-0.20703 1.2344-4.832 30.348 11.016 46.195 11.887 11.891 31.859 14.43 41.16 14.957v16.02c-23.887 2.4727-42.719 22.047-44.141 46.223h-14.523c-2.7812 0-5.0391 2.2539-5.0391 5.0391 0 2.7812 2.2539 5.0391 5.0391 5.0391h127.4c2.7812 0 5.0391-2.2539 5.0391-5.0391 0-2.7812-2.2539-5.0352-5.0352-5.0352zm-47.992-111.55c6.0781-6.0781 15.027-7.5781 22.391-7.5781 3.8203 0 7.2109 0.40234 9.5586 0.78516 0.60937 7.3008 0.88672 24.551-8.582 34.02-9.2148 9.2148-25.848 11.441-34.035 11.977 0-0.35547 0.003906-0.66406 0-1.0469 0.125-11.125 2.1328-29.621 10.668-38.156zm-63.367-6.793c6.8672-1.1211 22.727-2.4297 31.949 6.793 8.5781 8.5781 10.566 27.332 10.672 38.438-0.003906 0.27734 0 0.50391 0 0.76562-8.1875-0.53516-24.82-2.7617-34.039-11.977-9.4727-9.4727-9.1914-26.719-8.582-34.02zm47.738 81.93c20.703 0 37.684 16.09 39.191 36.414l-78.379 0.003907c1.5078-20.328 18.484-36.418 39.188-36.418z"/>
 </g>
</svg>