<?xml version="1.0" encoding="UTF-8"?>
<!-- The Best Svg Icon site in the world: iconSvg.co, Visit us! https://iconsvg.co -->
<svg fill="#000000" width="800px" height="800px" version="1.1" viewBox="144 144 512 512" xmlns="http://www.w3.org/2000/svg">
 <g>
  <path d="m571.89 454.08c-36.305 0-65.199 29.637-65.199 65.199 0 36.305 29.637 65.199 65.199 65.199 36.305 0 65.199-29.637 65.199-65.199s-29.637-65.199-65.199-65.199zm0 116.32c-28.152 0-50.383-22.969-50.383-50.383 0-27.414 22.969-50.383 50.383-50.383 27.414 0 50.383 22.969 50.383 50.383-0.003906 27.414-22.969 50.383-50.383 50.383z"/>
  <path d="m278.49 415.56c-46.676 0-84.461 37.785-84.461 84.461 0 32.598 17.781 61.496 47.418 76.312 3.7031 1.4805 8.1484 0 9.6328-3.7031 1.4805-3.7031 0-8.1484-3.7031-9.6328-24.449-11.855-39.266-35.562-39.266-62.977 0-38.527 31.117-69.645 69.645-69.645 38.527 0 69.645 31.117 69.645 69.645-0.007813 38.527-30.383 70.387-68.91 70.387-4.4453 0-7.4102 2.9648-7.4102 7.4102 0 4.4453 2.9648 7.4102 7.4102 7.4102 46.676-0.003906 84.461-38.531 84.461-85.207s-37.785-84.461-84.461-84.461z"/>
  <path d="m317.02 500.02c0-20.746-17.039-38.527-38.527-38.527-21.484 0-38.527 17.039-38.527 38.527 0 21.484 17.039 38.527 38.527 38.527 20.746 0 38.527-17.043 38.527-38.527zm-62.238 0c0-12.594 10.371-23.707 23.707-23.707 12.594 0 23.707 10.371 23.707 23.707 0 12.594-10.371 23.707-23.707 23.707-13.332 0-23.707-10.371-23.707-23.707z"/>
  <path d="m571.89 485.2c-19.262 0-34.082 15.559-34.082 34.082 0 18.523 15.559 34.082 34.082 34.082 18.523 0 34.082-15.559 34.082-34.082 0-18.523-15.559-34.082-34.082-34.082zm0 54.082c-11.113 0-19.262-8.8906-19.262-19.262 0-11.113 8.8906-19.262 19.262-19.262 11.113 0 19.262 8.8906 19.262 19.262 0 10.371-8.8906 19.262-19.262 19.262z"/>
  <path d="m542.25 443.71c3.7031-1.4805 5.9258-5.9258 4.4453-9.6328-1.4805-3.7031-5.9258-5.9258-9.6328-4.4453-34.82 13.336-57.789 45.195-60.754 82.238l-82.977 0.003906c0.74219-3.7031 0.74219-8.1484 0.74219-11.855 0-47.418-28.895-89.648-72.609-107.43-3.7031-1.4805-8.1484 0-9.6328 4.4453-1.4805 3.7031 0 8.1484 4.4453 9.6328 38.527 15.559 63.719 51.863 63.719 93.352 0 5.9258-0.74219 11.855-1.4805 17.781-0.74219 2.2227 0 4.4453 1.4805 5.9258 1.4805 1.4805 3.7031 2.9648 5.9258 2.9648h98.539c4.4453 0 7.4102-2.9648 7.4102-7.4102-1.4844-33.34 18.52-62.977 50.379-75.57z"/>
  <path d="m278.49 400c4.4453 0 7.4102-2.9648 7.4102-7.4102 0-4.4453-2.9648-7.4102-7.4102-7.4102-29.637 0-57.051 11.113-77.793 30.375v-25.93l40.75-23.707h325.25c12.594 0 23.707 10.371 23.707 23.707v37.043c-5.9258-1.4805-12.594-2.2227-19.262-2.2227-4.4453 0-7.4102 2.9648-7.4102 7.4102 0 4.4453 2.9648 7.4102 7.4102 7.4102 8.1484 0 16.301 1.4805 24.449 3.7031h2.2227c1.4805 0 2.9648-0.74219 4.4453-1.4805 2.2227-1.4805 2.9648-3.7031 2.9648-5.9258v-46.676c0-21.484-17.039-38.527-38.527-38.527h-24.449l-0.003906-39.27c0-8.1484-6.668-14.816-14.816-14.816h-2.2227v-24.449l17.039-17.039c2.9648-2.9648 2.9648-7.4102 0-10.371-2.9648-2.9648-7.4102-2.9648-10.371 0l-19.262 19.262c-1.4805 1.4805-2.2227 2.9648-2.2227 5.1875l-0.003906 27.41h-2.2227c-8.1484 0-14.816 6.668-14.816 14.816v39.266h-69.645l-20.746-91.129c8.8906-2.9648 14.816-11.855 14.816-21.484 0-12.594-10.371-22.969-22.969-22.969h-109.65c-4.4453 0-7.4102 2.9648-7.4102 7.4102 0 4.4453 2.9648 7.4102 7.4102 7.4102h110.39c4.4453 0 8.1484 3.7031 8.1484 8.1484 0 4.4453-3.7031 8.1484-8.1484 8.1484h-141.51c-4.4453 0-8.1484-3.7031-8.1484-8.1484 0-4.4453 3.7031-8.1484 8.1484-8.1484 4.4453 0 7.4102-2.9648 7.4102-7.4102 0-4.4453-2.9648-7.4102-7.4102-7.4102-12.594 0-22.969 10.371-22.969 22.969 0 10.371 6.668 18.523 15.559 21.484l-14.078 93.352-42.973 25.191c-2.2227 1.4805-3.7031 3.7031-3.7031 6.668v46.676c-14.078 19.266-22.969 42.977-22.969 68.906 0 4.4453 2.9648 7.4102 7.4102 7.4102 4.4453 0 7.4102-2.9648 7.4102-7.4102 0-54.828 45.195-100.02 100.76-100.02zm229.68-88.91h19.262v39.266h-20.004zm-246.72-50.379h126.69l20.004 89.648h-160.03z"/>
  <path d="m471.12 392.59h-38.527c-4.4453 0-7.4102 2.9648-7.4102 7.4102s2.9648 7.4102 7.4102 7.4102h38.527c4.4453 0 7.4102-2.9648 7.4102-7.4102s-2.9648-7.4102-7.4102-7.4102z"/>
  <path d="m471.12 423.71h-38.527c-4.4453 0-7.4102 2.9648-7.4102 7.4102 0 4.4453 2.9648 7.4102 7.4102 7.4102h38.527c4.4453 0 7.4102-2.9648 7.4102-7.4102 0-4.4453-2.9648-7.4102-7.4102-7.4102z"/>
 </g>
</svg>