<?xml version="1.0" encoding="UTF-8"?>
<!-- The Best Svg Icon site in the world: iconSvg.co, Visit us! https://iconsvg.co -->
<svg fill="#000000" width="800px" height="800px" version="1.1" viewBox="144 144 512 512" xmlns="http://www.w3.org/2000/svg">
 <g>
  <path d="m431.26 317.27c0-7.1367-3.3164-13.875-8.9844-18.219-5.6641-4.3477-13.027-5.8164-19.922-3.9688-6.8984 1.8477-12.543 6.7969-15.277 13.395s-2.2422 14.09 1.3281 20.273 9.8125 10.355 16.891 11.289c7.0781 0.92969 14.191-1.4844 19.238-6.5312 4.3203-4.2969 6.7461-10.145 6.7266-16.238zm-12.293 10.672c-2.875 2.7422-6.6953 4.2734-10.668 4.2734-3.9727 0-7.793-1.5312-10.668-4.2734-2.832-2.8281-4.4219-6.668-4.4219-10.672 0-4 1.5898-7.8398 4.418-10.672 2.832-2.8281 6.6719-4.418 10.672-4.418 4.0039 0 7.8438 1.5898 10.672 4.418 2.832 2.832 4.4219 6.6719 4.418 10.672 0 4.0039-1.5898 7.8438-4.4219 10.672z"/>
  <path d="m637.3 555.63c-2.3242-3.1289-6-4.9648-9.8945-4.9492h-55.496v-66.52l-0.003906 0.003907c5.4766 2.9453 11.754 4.0547 17.906 3.1523 6.1523-0.89844 11.855-3.7539 16.258-8.1445l22.934-22.934v-0.003907c1.5352-1.5352 1.5352-4.0273 0-5.5625-5.4258-5.4141-12.777-8.4531-20.441-8.4531-7.6641 0-15.012 3.0391-20.438 8.4531l-9.793 9.793c-1.4922 1.543-1.4727 3.9961 0.046874 5.5156 1.5195 1.5195 3.9727 1.5391 5.5195 0.046875l9.793-9.793c3.4648-3.4531 8.0234-5.5977 12.898-6.0586 4.8711-0.46094 9.7539 0.79297 13.805 3.5391l-19.895 19.895 0.003906-0.003906c-3.7656 3.7422-8.8086 5.9219-14.113 6.0977-5.3047 0.17188-10.48-1.668-14.484-5.1562v-42.449c0-2.1758-1.7617-3.9375-3.9336-3.9375-2.1758 0-3.9375 1.7617-3.9375 3.9375v118.59h-14.234l0.003906-131.8c1.1406-0.86719 2.2305-1.8086 3.2539-2.8125 1.4258-1.4297 2.7188-2.9883 3.8594-4.6523 5.5391 8.0664 14.379 13.258 24.125 14.156 9.7461 0.89844 19.383-2.5859 26.305-9.5039 6.9219-6.9219 10.402-16.559 9.5039-26.305-0.89844-9.7422-6.082-18.582-14.152-24.121 8.0703-5.5352 13.258-14.375 14.16-24.121 0.89844-9.7461-2.5859-19.387-9.5039-26.309-6.9219-6.9219-16.562-10.406-26.309-9.5039-9.7461 0.89844-18.586 6.0859-24.125 14.16-5.2344-7.6406-13.449-12.723-22.621-13.996-9.1758-1.2773-18.461 1.3711-25.586 7.293-7.1211 5.918-11.422 14.566-11.844 23.82-0.42188 9.25 3.0703 18.254 9.625 24.801 1.4258 1.4258 2.9805 2.7188 4.6484 3.8555-8.9844 6.1641-14.34 16.371-14.301 27.262 0.035156 10.895 5.4609 21.066 14.484 27.168 9.0234 6.1016 20.484 7.3438 30.605 3.3164v81.988c-3.9883 3.5156-9.1719 5.375-14.488 5.1992-5.3125-0.17578-10.363-2.375-14.109-6.1484l-19.906-19.895c4.0547-2.7461 8.9336-3.9961 13.809-3.5352 4.8711 0.46094 9.4336 2.6016 12.898 6.0586l9.7812 9.7812c0.73438 0.75781 1.7422 1.1914 2.7969 1.2031 1.0547 0.007813 2.0703-0.40625 2.8164-1.1523 0.74609-0.75 1.1641-1.7617 1.1523-2.8203-0.007812-1.0547-0.44141-2.0625-1.1992-2.7969l-9.7812-9.7812c-5.4258-5.4102-12.777-8.4492-20.441-8.4492s-15.016 3.0391-20.441 8.4492c-1.5391 1.5391-1.5391 4.0312 0 5.5664l22.934 22.934v0.003906c4.3984 4.3945 10.098 7.2578 16.254 8.1602 6.1523 0.90625 12.434-0.19922 17.91-3.1484v35.668h-115.87v-62.383c6.7188 4.0664 14.609 5.7617 22.406 4.8164 7.7969-0.94531 15.051-4.4766 20.605-10.031l28.68-28.684v0.003906c1.5352-1.5391 1.5352-4.0273 0-5.5664-6.5938-6.5938-15.535-10.301-24.863-10.301-9.3242 0-18.27 3.707-24.859 10.301l-10.383 10.383h-0.003906c-1.4883 1.5469-1.4688 4 0.050781 5.5195 1.5156 1.5156 3.9727 1.5391 5.5156 0.046874l10.383-10.383c4.6367-4.6367 10.789-7.4492 17.328-7.9219 6.5391-0.47656 13.027 1.418 18.285 5.3359l-25.695 25.719c-4.9336 4.9141-11.559 7.7578-18.52 7.9531-6.9609 0.19141-13.73-2.2773-18.93-6.9102v-90.629c11.527 5.1211 24.789 4.5234 35.812-1.6055 11.023-6.1328 18.523-17.086 20.25-29.582 1.7305-12.492-2.5117-25.074-11.457-33.969-2.0859-2.0938-4.3984-3.9492-6.8984-5.5312 2.5039-1.5703 4.8203-3.418 6.9102-5.5078 8.0625-8.0859 12.305-19.219 11.668-30.621-0.63672-11.398-6.0938-21.988-15.008-29.125-8.9102-7.1367-20.441-10.145-31.703-8.2734-11.266 1.8711-21.199 8.4453-27.324 18.082-6.5273-10.32-17.391-17.117-29.527-18.465-12.137-1.3516-24.227 2.8867-32.863 11.523-8.6328 8.6328-12.875 20.727-11.527 32.863 1.3516 12.133 8.1445 23 18.465 29.523-10.309 6.5312-17.094 17.395-18.438 29.523-1.3477 12.133 2.8945 24.215 11.527 32.844 8.625 8.6445 20.711 12.891 32.844 11.547 12.137-1.3477 23-8.1406 29.52-18.461 1.5703 2.5039 3.418 4.8242 5.5078 6.9141 1.3633 1.3398 2.8164 2.582 4.3555 3.7148v167.34h-19.742v-147.62c0-2.1758-1.7656-3.9375-3.9375-3.9375-2.1758 0-3.9375 1.7617-3.9375 3.9375v35.945-0.003906c-5.1875 4.6523-11.965 7.1367-18.93 6.9414-6.9648-0.19531-13.59-3.0547-18.512-7.9883l-25.703-25.699c5.2578-3.9141 11.75-5.8086 18.289-5.3359 6.5391 0.47656 12.691 3.2891 17.328 7.9219l6.6016 6.6016c1.5352 1.5391 4.0312 1.543 5.5703 0.007813 1.5391-1.5391 1.543-4.0312 0.007813-5.5742l-6.6016-6.6016v0.003906c-6.5938-6.5977-15.539-10.301-24.863-10.301-9.3281 0-18.27 3.7031-24.863 10.301-1.5391 1.5352-1.5391 4.0273 0 5.5625l28.684 28.684h-0.003906c5.5469 5.5586 12.801 9.0938 20.598 10.039 7.793 0.94922 15.684-0.75 22.398-4.8164v101.94h-128.98v-66.52 0.003906c5.4727 2.9453 11.754 4.0508 17.906 3.1523 6.1523-0.89844 11.855-3.7539 16.258-8.1445l22.934-22.934v-0.003906c1.5391-1.5352 1.5391-4.0273 0-5.5625-5.4258-5.4141-12.777-8.4531-20.441-8.4531-7.6641 0-15.016 3.0391-20.441 8.4531l-9.793 9.793c-0.75781 0.73047-1.1914 1.7383-1.1992 2.7969-0.011719 1.0547 0.40234 2.0703 1.1523 2.8164 0.74609 0.74609 1.7617 1.1602 2.8164 1.1523 1.0547-0.007812 2.0625-0.44141 2.7969-1.2031l9.7969-9.793c3.4648-3.4531 8.0273-5.5977 12.898-6.0586 4.875-0.46094 9.7539 0.79297 13.809 3.5391l-19.883 19.902c-3.7656 3.7461-8.8086 5.9219-14.113 6.0977-5.3086 0.17578-10.484-1.668-14.484-5.1562v-42.395c0-2.1758-1.7617-3.9375-3.9375-3.9375-2.1719 0-3.9375 1.7617-3.9375 3.9375v118.51h-14.238v-131.79c1.1445-0.86719 2.2305-1.8047 3.25-2.8125 1.4297-1.4258 2.7227-2.9844 3.8633-4.6523 5.5352 8.0664 14.375 13.258 24.121 14.156 9.7461 0.89844 19.387-2.5859 26.305-9.5039 6.1641-6.1836 9.6289-14.555 9.6289-23.285s-3.4648-17.102-9.6289-23.281c-1.4258-1.4336-2.9805-2.7266-4.6484-3.8672 1.668-1.1367 3.2227-2.4297 4.6484-3.8555 6.5391-6.5508 10.023-15.547 9.5938-24.789-0.42969-9.2461-4.7266-17.883-11.844-23.797-7.1133-5.918-16.391-8.5625-25.559-7.2969-9.168 1.2695-17.375 6.3359-22.617 13.965-1.1406-1.668-2.4336-3.2266-3.8633-4.6484-6.5469-6.5547-15.547-10.047-24.801-9.6211-9.25 0.42188-17.898 4.7227-23.816 11.844-5.9219 7.125-8.5664 16.41-7.293 25.586 1.2773 9.1719 6.3555 17.383 13.996 22.621-8.9844 6.1641-14.336 16.371-14.301 27.262 0.035157 10.895 5.4609 21.066 14.484 27.168 9.0273 6.1016 20.484 7.3438 30.609 3.3164v81.988c-3.9922 3.5156-9.1719 5.375-14.488 5.1992-5.3164-0.17578-10.363-2.375-14.113-6.1484l-19.875-19.895c4.0508-2.7461 8.9336-3.9961 13.805-3.5352 4.875 0.46094 9.4336 2.6016 12.902 6.0586l9.7852 9.7812h-0.003907c0.73438 0.75781 1.7422 1.1914 2.7969 1.2031 1.0586 0.007813 2.0742-0.40625 2.8203-1.1523 0.74609-0.75 1.1602-1.7617 1.1523-2.8203-0.011718-1.0547-0.44141-2.0625-1.2031-2.7969l-9.7812-9.7812c-5.4258-5.4102-12.777-8.4492-20.441-8.4492-7.6641 0-15.016 3.0391-20.441 8.4492-1.5352 1.5391-1.5352 4.0312 0 5.5664l22.938 22.938c4.3984 4.3945 10.098 7.2578 16.25 8.1602 6.1562 0.90625 12.438-0.19922 17.914-3.1484v35.668h-56.934c-3.8945 0.003906-7.5664 1.8398-9.9023 4.9648-2.332 3.1211-3.0625 7.1602-1.9609 10.898l4.3281 14.719v0.003906c1.5703 5.25 6.3906 8.8516 11.871 8.875h7.4766l10.121 37.598v-0.003907c1.4609 5.3984 6.3555 9.1484 11.945 9.1562h384.94c5.5938-0.007812 10.488-3.7578 11.949-9.1562l5.6484-20.992v0.003906c0.56641-2.1016-0.67969-4.2617-2.7812-4.8242-2.0977-0.5625-4.2578 0.67969-4.8203 2.7812l-5.6484 20.992c-0.53125 1.9531-2.3047 3.3164-4.332 3.3242h-384.97c-2.0273-0.007813-3.8008-1.3711-4.3281-3.3242l-9.5703-35.555h428.48c5.4922-0.019531 10.324-3.6445 11.879-8.918l4.2773-14.715c1.1016-3.7344 0.36719-7.7734-1.9844-10.879zm-125.25-145.11c-6.043-6.0234-8.5977-14.707-6.7812-23.043 1.8164-8.3359 7.75-15.172 15.75-18.137 1.5391-0.57422 2.5625-2.043 2.5625-3.6875 0-1.6445-1.0234-3.1133-2.5625-3.6875-8.0039-2.9688-13.949-9.8047-15.77-18.145-1.8242-8.3398 0.72656-17.031 6.7617-23.07 6.0352-6.0352 14.73-8.582 23.07-6.7578 8.3398 1.8242 15.176 7.7695 18.141 15.773 0.57422 1.543 2.0469 2.5664 3.6914 2.5664 1.6445 0 3.1172-1.0234 3.6914-2.5664 2.9648-8.0078 9.8008-13.953 18.141-15.773 8.3398-1.8242 17.035 0.72266 23.07 6.7578 6.0391 6.0391 8.5859 14.73 6.7617 23.07-1.8242 8.3398-7.7695 15.18-15.773 18.145-1.5391 0.57422-2.5625 2.043-2.5625 3.6875 0 1.6445 1.0234 3.1133 2.5625 3.6875 8.0078 2.9648 13.957 9.8047 15.781 18.145 1.8242 8.3438-0.72266 17.039-6.7578 23.078-6.0391 6.0391-14.738 8.5859-23.078 6.7617-8.3438-1.8242-15.18-7.7695-18.145-15.777-0.57422-1.543-2.0469-2.5664-3.6914-2.5664-1.6445 0-3.1172 1.0234-3.6914 2.5664-2.9688 7.9883-9.8008 13.918-18.133 15.734-8.3281 1.8164-17.012-0.73047-23.035-6.7617zm-100.06-48.02c-0.57422-1.5391-2.0469-2.5625-3.6875-2.5625-1.6445 0-3.1133 1.0234-3.6875 2.5625-3.832 10.32-12.648 17.984-23.406 20.336-10.754 2.3477-21.965-0.9375-29.75-8.7227-7.7852-7.7852-11.07-18.996-8.7188-29.75 2.3477-10.758 10.012-19.574 20.332-23.402 1.543-0.57422 2.5664-2.0469 2.5664-3.6914s-1.0234-3.1172-2.5664-3.6914c-10.316-3.8281-17.977-12.648-20.324-23.402-2.3516-10.75 0.9375-21.961 8.7188-29.742 7.7852-7.7812 18.992-11.07 29.746-8.7188 10.754 2.3477 19.57 10.008 23.402 20.328 0.57422 1.5391 2.043 2.5625 3.6875 2.5625 1.6406 0 3.1133-1.0234 3.6875-2.5625 3.8281-10.32 12.645-17.98 23.398-20.332 10.754-2.3477 21.965 0.9375 29.746 8.7227 7.7852 7.7812 11.07 18.992 8.7227 29.746-2.3516 10.754-10.012 19.57-20.332 23.398-1.543 0.57422-2.5664 2.0469-2.5664 3.6914s1.0234 3.1172 2.5664 3.6914c10.32 3.8281 17.98 12.645 20.332 23.398 2.3477 10.754-0.9375 21.965-8.7227 29.746-7.7812 7.7852-18.992 11.07-29.746 8.7227-10.754-2.3516-19.57-10.012-23.398-20.332zm-210.27 48.02c-6.043-6.0234-8.5977-14.711-6.7812-23.047 1.8164-8.332 7.7539-15.168 15.754-18.133 1.5391-0.57422 2.5625-2.043 2.5625-3.6875 0-1.6445-1.0234-3.1133-2.5625-3.6875-8-2.9688-13.941-9.8047-15.762-18.141-1.8242-8.3398 0.72266-17.031 6.7578-23.062 6.0352-6.0352 14.727-8.582 23.062-6.7617 8.3398 1.8203 15.176 7.7617 18.145 15.766 0.57031 1.5391 2.043 2.5586 3.6875 2.5586 1.6406 0 3.1133-1.0195 3.6875-2.5586 2.9648-8.0078 9.8008-13.957 18.145-15.781 8.3398-1.8281 17.039 0.71875 23.078 6.7578 6.0352 6.0391 8.5859 14.734 6.7617 23.078-1.8242 8.3398-7.7734 15.18-15.781 18.145-1.5391 0.57422-2.5586 2.043-2.5586 3.6875 0 1.6445 1.0195 3.1133 2.5586 3.6875 8.0039 2.9688 13.949 9.8047 15.773 18.145s-0.72266 17.031-6.7617 23.07c-6.0352 6.0352-14.727 8.582-23.066 6.7617-8.3398-1.8242-15.18-7.7656-18.145-15.77-0.57422-1.543-2.0469-2.5625-3.6875-2.5625-1.6445 0-3.1172 1.0195-3.6875 2.5625-2.9727 7.9883-9.8086 13.918-18.137 15.734-8.332 1.8164-17.012-0.73047-23.039-6.7617zm430 153.79-4.2773 14.719c-0.56641 1.9219-2.3281 3.2422-4.3281 3.2383h-444.11c-2 0-3.7578-1.3125-4.332-3.2266l-4.3281-14.715c-0.39844-1.3633-0.13281-2.8359 0.71875-3.9727 0.85156-1.1328 2.1914-1.8008 3.6094-1.7969h452.73c1.418-0.003906 2.75 0.66016 3.6055 1.793 0.85156 1.1328 1.1172 2.5977 0.72266 3.9609z"/>
  <path d="m570.45 379.2c4.207-4.207 6.2188-10.137 5.4414-16.039-0.77734-5.9023-4.2539-11.105-9.4102-14.082-5.1562-2.9766-11.402-3.3867-16.902-1.1094-5.5 2.2812-9.625 6.9844-11.168 12.738-1.5391 5.75-0.32031 11.887 3.3047 16.609s9.2383 7.4922 15.191 7.4922c5.082 0.015624 9.957-2.0039 13.543-5.6094zm-24.82-13.543c0-3.7656 1.8828-7.2812 5.0117-9.3711 3.1328-2.0938 7.1016-2.4844 10.582-1.0391 3.4766 1.4414 6.0078 4.5234 6.7422 8.2148 0.73438 3.6953-0.42578 7.5117-3.0859 10.176-4.4648 4.2539-11.484 4.2539-15.949 0-2.1211-2.1133-3.3125-4.9844-3.3008-7.9805z"/>
  <path d="m260.13 379.2c4.2109-4.207 6.2227-10.137 5.4453-16.043-0.77734-5.9023-4.2539-11.109-9.4102-14.086-5.1562-2.9766-11.406-3.3867-16.906-1.1094-5.5 2.2773-9.6289 6.9844-11.172 12.738-1.5391 5.75-0.32031 11.891 3.3047 16.617 3.625 4.7227 9.2383 7.4922 15.195 7.4922 5.082 0.015624 9.957-2.0039 13.543-5.6094zm-21.508-5.5664c-3.2227-3.2266-4.1875-8.0781-2.4414-12.289 1.7461-4.2148 5.8594-6.9609 10.418-6.9609 4.5625 0 8.6719 2.7461 10.418 6.9609 1.7461 4.2109 0.78125 9.0625-2.4414 12.289-4.4648 4.2578-11.488 4.2578-15.953 0z"/>
 </g>
</svg>