<?xml version="1.0" encoding="UTF-8"?>
<!-- The Best Svg Icon site in the world: iconSvg.co, Visit us! https://iconsvg.co -->
<svg fill="#000000" width="800px" height="800px" version="1.1" viewBox="144 144 512 512" xmlns="http://www.w3.org/2000/svg">
 <path d="m400 155.96c-48.004 0.054687-94.023 19.148-127.97 53.09-33.941 33.945-53.035 79.965-53.09 127.97v23.617-0.003906c0 2.0898 0.82812 4.0898 2.3047 5.5664 1.4766 1.4766 3.4805 2.3086 5.5664 2.3086h13.152l41.953 244.82c1.8984 29.832 106.11 30.699 118.08 30.699 11.973 0 116.18-0.86719 118.08-30.699l41.945-244.82h13.156c2.0859 0 4.0898-0.83203 5.5664-2.3086s2.3047-3.4766 2.3047-5.5664v-23.613c-0.054688-48.004-19.148-94.023-53.09-127.97-33.941-33.941-79.965-53.035-127.96-53.09zm102.45 455.25c0 0.1875-0.054687 0.39453-0.078124 0.58984-4.543 6.0625-41.754 16.488-102.37 16.488s-97.824-10.422-102.34-16.484c0-0.19531-0.046874-0.40234-0.078124-0.58984l-44.684-260.44c11.535 2.5 23.219 4.2383 34.984 5.2109 29.992 3 69.801 4.6523 112.11 4.6523s82.121-1.6523 112.11-4.6523c11.762-0.97266 23.445-2.7109 34.98-5.2109zm-238.42-274.19c45.066-6.0039 90.52-8.6367 135.98-7.875 45.457-0.76172 90.906 1.8711 135.97 7.875-45.066 6-90.516 8.6328-135.97 7.8711-45.457 0.76172-90.91-1.8711-135.98-7.8711zm301.29 15.742h-2.582l2.1641-12.594c0.28906-1.0234 0.42969-2.0859 0.41797-3.1484 0-9.0469-8.2266-14.469-53.199-18.965-29.992-3-69.801-4.6523-112.11-4.6523s-82.121 1.6523-112.11 4.6523c-44.973 4.4961-53.199 9.918-53.199 18.965-0.015625 1.0625 0.125 2.125 0.41406 3.1484l2.1641 12.594h-2.5781v-15.742c0-43.844 17.414-85.895 48.418-116.89 31-31.004 73.051-48.418 116.89-48.418s85.891 17.414 116.89 48.418c31.004 31 48.422 73.051 48.422 116.89z"/>
</svg>