<?xml version="1.0" encoding="UTF-8"?>
<!-- The Best Svg Icon site in the world: iconSvg.co, Visit us! https://iconsvg.co -->
<svg fill="#000000" width="800px" height="800px" version="1.1" viewBox="144 144 512 512" xmlns="http://www.w3.org/2000/svg">
 <g>
  <path d="m443.29 266.18h-86.594c-15.191 0-27.551-12.363-27.551-27.551 0-15.195 12.363-27.555 27.555-27.555h86.594c15.191 0 27.551 12.363 27.551 27.551 0 15.191-12.363 27.555-27.555 27.555zm-86.59-39.363c-6.5117 0-11.809 5.2969-11.809 11.809 0 6.5117 5.2969 11.809 11.809 11.809h86.594c6.5117 0 11.809-5.2969 11.809-11.809-0.003907-6.5117-5.3008-11.809-11.812-11.809z"/>
  <path d="m455.1 588.93h-110.21c-17.363 0-31.488-14.121-31.488-31.488v-188.26c0-22.84 8.8945-44.312 25.047-60.461 9.7656-9.7695 16.367-22.098 19.078-35.652l3.2617-16.309c0.73438-3.6797 3.9648-6.3281 7.7188-6.3281h62.977c3.75 0 6.9844 2.6484 7.7188 6.3281l3.2617 16.309c2.7109 13.555 9.3086 25.879 19.078 35.652 16.148 16.148 25.043 37.621 25.043 60.461v188.26c0 17.367-14.125 31.488-31.488 31.488zm-80.137-322.75-2 9.9805c-3.3203 16.609-11.41 31.719-23.383 43.691-13.176 13.176-20.434 30.695-20.434 49.332v188.26c0 8.6797 7.0625 15.742 15.742 15.742h110.21c8.6836 0 15.742-7.0664 15.742-15.742l0.007812-188.26c0-18.633-7.2578-36.156-20.434-49.332-11.973-11.973-20.062-27.082-23.383-43.691l-2-9.9805z"/>
  <path d="m318.91 383.89-37.414-11.812c-13.379-2.9453-23.191-15.176-23.191-29.559 0-9.4844 4.2969-18.254 11.789-24.07 7.4883-5.8125 17.035-7.7969 26.238-5.4336l38.188 13.871-5.3906 14.789-37.449-13.641c-3.7109-0.90625-8.3164 0.046875-11.934 2.8555-3.6211 2.8086-5.6953 7.0469-5.6953 11.629 0 6.9492 4.7383 12.855 11.527 14.367l38.078 11.988z"/>
  <path d="m481.09 383.89-4.7422-15.016 37.414-11.812c7.4492-1.6875 12.188-7.5938 12.188-14.543 0-4.582-2.0742-8.8203-5.6953-11.629-3.6094-2.8047-8.2148-3.7617-12.672-2.625l-36.711 13.41-5.3906-14.789 37.449-13.641c9.918-2.582 19.488-0.60156 26.977 5.2031 7.4922 5.8164 11.789 14.586 11.789 24.07 0 14.383-9.8086 26.613-23.852 29.734z"/>
 </g>
</svg>