<?xml version="1.0" encoding="UTF-8"?>
<!-- The Best Svg Icon site in the world: iconSvg.co, Visit us! https://iconsvg.co -->
<svg fill="#000000" width="800px" height="800px" version="1.1" viewBox="144 144 512 512" xmlns="http://www.w3.org/2000/svg">
 <g>
  <path d="m629.45 337.02c0.007813-6.3945-2.543-12.527-7.0859-17.027-4.6914-4.6875-11.105-7.2344-17.734-7.043-6.6289 0.19531-12.883 3.1172-17.289 8.0742l-6.2969 7.0859v-6.8359c0-8.4375-4.5-16.234-11.809-20.453-7.3047-4.2148-16.309-4.2148-23.617 0-7.3047 4.2188-11.805 12.016-11.805 20.453v55.105h-141.68c-14.609-0.015624-28.613-5.8281-38.945-16.16-10.328-10.328-16.141-24.336-16.156-38.945v-43.297c-0.023438-15.707-5.5977-30.906-15.746-42.902v-31.879c0.03125-7.8516-3.8555-15.199-10.359-19.59-6.5039-4.3945-14.77-5.2539-22.039-2.2969-1.7891-6.7227-6.4609-12.305-12.762-15.25-6.3008-2.9453-13.586-2.9453-19.887 0s-10.973 8.5273-12.758 15.25c-7.2695-2.9531-15.535-2.0938-22.039 2.3008-6.5039 4.3906-10.391 11.738-10.363 19.586v43.438c-1.9688 3.7266-3.5781 7.6328-4.8008 11.664h-3.0703c-10.438 0.015625-20.441 4.1641-27.82 11.543s-11.527 17.383-11.543 27.82v7.8711h16.863c1.4102 5.4102 4.2383 10.348 8.1953 14.305 3.9531 3.9531 8.8906 6.7812 14.305 8.1914v71.969c0.046875 43.828 17.48 85.844 48.473 116.84 30.992 30.992 73.012 48.426 116.84 48.477v43.973l-13.438 13.438 11.133 11.133 18.047-18.055v-50.488h31.488v43.973l-13.438 13.438 11.133 11.133 18.051-18.055v-50.891c42.391-2.0352 82.375-20.293 111.68-50.988 29.305-30.695 45.688-71.484 45.758-113.92v-12.488l33.465-33.465v0.003906c4.5312-4.5078 7.0703-10.641 7.0547-17.027zm-72.008-23.617c2.0898 0 4.0898 0.82812 5.5664 2.3047 1.4766 1.4766 2.3086 3.4805 2.3086 5.5664v55.105h-15.746v-55.105c0-4.3477 3.5234-7.8711 7.8711-7.8711zm-259.77-118.08c2.0859 0 4.0898 0.83203 5.5664 2.3086 1.4727 1.4766 2.3047 3.4766 2.3047 5.5664v18.035c-0.49609-0.31641-1.0391-0.53516-1.5742-0.83594-1.0312-0.60547-2.0859-1.1484-3.1484-1.6992-1.8125-0.94531-3.6523-1.8125-5.5117-2.582-1.1328-0.46484-2.2734-0.90625-3.4414-1.3086-0.69922-0.24219-1.3711-0.57422-2.0781-0.78906v-10.82c0-2.0898 0.83203-4.0938 2.3086-5.5703 1.4805-1.4766 3.4844-2.3047 5.5742-2.3047zm-39.363-7.8711c0-4.3477 3.5273-7.8711 7.875-7.8711 4.3477 0 7.8711 3.5234 7.8711 7.8711v23.617h-15.746zm-31.488 15.746c0-4.3477 3.5273-7.875 7.875-7.875s7.8711 3.5273 7.8711 7.875v13.863c-0.66797 0.30859-1.2734 0.71484-1.9375 1.0469-1.3242 0.65234-2.6133 1.3633-3.8906 2.1016-1.4805 0.85937-2.9219 1.7461-4.3203 2.7148-1.2266 0.84375-2.4258 1.7227-3.5977 2.6523-0.65234 0.51172-1.3711 0.9375-2 1.4727zm-23.613 70.848v15.742h-22.27c1.6328-4.6016 4.6484-8.5859 8.6367-11.402 3.9883-2.8203 8.75-4.3359 13.633-4.3398zm-5.7539 31.488h5.7539v5.7539c-2.3867-1.3867-4.3711-3.3672-5.7539-5.7539zm375.74 94.465c-0.046875 39.652-15.82 77.668-43.859 105.71-28.039 28.043-66.055 43.812-105.71 43.859h-55.102c-39.656-0.046875-77.672-15.816-105.71-43.859-28.039-28.039-43.812-66.055-43.859-105.71v-122.02c0.03125-10.566 3.3281-20.867 9.4336-29.492s14.727-15.156 24.684-18.699c8.7188-3.0977 18.117-3.7812 27.191-1.9688h0.10156c2.4883 0.51563 4.9336 1.2148 7.3125 2.0938 0.78906 0.28516 1.4805 0.66016 2.2266 0.98438 1.582 0.64453 3.1289 1.3672 4.6367 2.1641 0.86719 0.47266 1.6758 1.0391 2.5117 1.5742 1.3086 0.78906 2.6055 1.6523 3.8398 2.5898 0.83594 0.62891 1.6133 1.3398 2.4102 2.0234 0.79688 0.68359 1.5117 1.3711 2.25 2.0859l0.003907 1.2227h1.3086c0.25 0.26172 0.54297 0.46484 0.78906 0.73047h-0.003906c8.7617 9.4297 13.637 21.82 13.641 34.691v43.297c0.023437 18.785 7.4922 36.793 20.773 50.074 13.285 13.281 31.293 20.754 50.074 20.773h181.06zm38.078-57.078-30.207 30.203v-21.305l18.105-20.309c1.5234-1.7227 3.6914-2.7383 5.9922-2.793 2.2852-0.03125 4.4883 0.84766 6.1328 2.4375 1.5664 1.5664 2.4453 3.6914 2.4453 5.9062s-0.87891 4.3398-2.4453 5.9023z"/>
  <path d="m258.3 258.3c-6.2617 0-12.27 2.4883-16.699 6.918-4.4258 4.4297-6.9141 10.438-6.9141 16.699s2.4883 12.27 6.9141 16.699c4.4297 4.4297 10.438 6.918 16.699 6.918 6.2656 0 12.273-2.4883 16.699-6.918 4.4297-4.4297 6.918-10.438 6.918-16.699s-2.4883-12.27-6.918-16.699c-4.4258-4.4297-10.434-6.918-16.699-6.918zm0 31.488c-3.1836 0-6.0547-1.918-7.2734-4.8594-1.2148-2.9414-0.54297-6.3281 1.707-8.5781 2.2539-2.25 5.6367-2.9258 8.582-1.707 2.9414 1.2188 4.8594 4.0898 4.8594 7.2734 0 2.0898-0.83203 4.0898-2.3086 5.5664-1.4766 1.4766-3.4766 2.3047-5.5664 2.3047z"/>
  <path d="m510.21 407.87h-165.31c-19.688 0-37.879 10.504-47.723 27.551-9.8438 17.051-9.8438 38.055 0 55.105 9.8438 17.047 28.035 27.551 47.723 27.551h102.34c6.2617 0 12.27-2.4883 16.699-6.918 4.4297-4.4258 6.918-10.434 6.918-16.699-0.027344-2.6875-0.51562-5.3477-1.4492-7.8711h9.3203c6.2617 0 12.27-2.4883 16.699-6.918 4.4297-4.4258 6.918-10.434 6.918-16.695-0.027344-2.6914-0.51563-5.3516-1.4492-7.875h9.3203c8.4375 0 16.234-4.5 20.453-11.809 4.2188-7.3047 4.2188-16.309 0-23.613-4.2188-7.3086-12.016-11.809-20.453-11.809zm0 31.488h-110.21v15.742h78.719c4.3477 0 7.8711 3.5273 7.8711 7.875 0 4.3477-3.5234 7.8711-7.8711 7.8711h-78.719v15.742h47.23c4.3477 0 7.8711 3.5234 7.8711 7.8711 0 4.3477-3.5234 7.875-7.8711 7.875h-102.34c-14.062 0-27.055-7.5039-34.086-19.68-7.0312-12.18-7.0312-27.184 0-39.363 7.0312-12.176 20.023-19.68 34.086-19.68h165.31c4.3477 0 7.8711 3.5273 7.8711 7.875 0 4.3477-3.5234 7.8711-7.8711 7.8711z"/>
 </g>
</svg>