<?xml version="1.0" encoding="UTF-8"?>
<!-- The Best Svg Icon site in the world: iconSvg.co, Visit us! https://iconsvg.co -->
<svg fill="#000000" width="800px" height="800px" version="1.1" viewBox="144 144 512 512" xmlns="http://www.w3.org/2000/svg">
 <path d="m423.61 327.66v81.852c0 13.035-10.578 23.617-23.617 23.617-13.035 0-23.617-10.578-23.617-23.617v-81.852c-75.965 10.578-133.82 71.383-133.82 144.01 0 79.98 70.188 145.63 157.44 145.63s157.44-65.652 157.44-145.63c0-72.629-57.859-133.43-133.82-144.01zm-39.359-25.617v107.47c0 8.6914 7.0547 15.742 15.742 15.742 8.6914 0 15.742-7.0547 15.742-15.742v-91.727c3.5742 1.4023 7.3516 2.5195 11.289 3.3359 20.957 4.3594 46.129 0.31641 62.598-9.1953 8.5664-4.9453 17.586-15.617 25.285-28.75 14.973-25.551 26.371-60.254 26.371-60.254 1.3867-4.25 0.89844-8.8945-1.3398-12.77-2.2344-3.8711-6.0156-6.6133-10.391-7.5273 0 0-35.738-7.4961-65.355-7.3047-15.223 0.10938-28.984 2.582-37.551 7.5273-7.3828 4.2656-14.703 10.598-21.129 18.137-8.1094-14.281-20.043-26.875-32.18-33.883-8.5664-4.9453-22.324-7.4141-37.551-7.5273-29.613-0.1875-65.355 7.3047-65.355 7.3047-4.375 0.91406-8.1562 3.6523-10.391 7.5273-2.2344 3.8711-2.7227 8.5156-1.3398 12.77 0 0 11.398 34.699 26.371 60.254 7.6992 13.129 16.719 23.805 25.285 28.75 16.469 9.5078 41.645 13.555 62.598 9.1953 3.9375-0.82031 7.7148-1.9375 11.289-3.3359z" fill-rule="evenodd"/>
</svg>