<?xml version="1.0" encoding="UTF-8"?>
<!-- The Best Svg Icon site in the world: iconSvg.co, Visit us! https://iconsvg.co -->
<svg fill="#000000" width="800px" height="800px" version="1.1" viewBox="144 144 512 512" xmlns="http://www.w3.org/2000/svg">
 <g>
  <path d="m262.37 600.92h276.52c9.6523 0 17.508-7.8555 17.508-17.508v-368.04c0-9.6523-7.8555-17.508-17.508-17.508h-276.52c-9.6523 0-17.508 7.8555-17.508 17.508v368.04c0.003907 9.6523 7.8555 17.504 17.508 17.504zm283.95-71.227h-291.38v-260.59h291.38zm-7.4336 61.152h-276.51c-4.0977 0-7.4297-3.332-7.4297-7.4297v-43.645h291.38v43.645c0 4.0977-3.332 7.4297-7.4336 7.4297zm-276.51-382.89h276.52c4.0977 0 7.4297 3.332 7.4297 7.4297v43.645h-291.38v-43.645c0-4.1016 3.332-7.4297 7.4297-7.4297z"/>
  <path d="m389.94 353.96c1.9297 0 3.6523-0.082032 5.1172-0.17969v12.539c-34.344 2.543-61.531 31.242-61.531 66.23 0 36.652 29.82 66.473 66.473 66.473s66.473-29.82 66.473-66.473c0-34.926-27.086-63.582-61.344-66.223v-12.551c1.4648 0.10547 3.1875 0.17969 5.125 0.17969 9.1797 0 22.695-1.7383 31.598-10.641 14.277-14.277 10.125-40.414 9.9453-41.523-0.35156-2.125-2.0156-3.7891-4.1406-4.1406-1.1133-0.17969-27.246-4.3359-41.523 9.9453-2.5742 2.5742-4.5273 5.5352-6.0352 8.6641-1.5078-3.1289-3.4648-6.0898-6.0352-8.6641-14.273-14.273-40.41-10.125-41.52-9.9453-2.125 0.35156-3.7891 2.0156-4.1406 4.1406-0.1875 1.1094-4.3359 27.246 9.9414 41.523 8.8945 8.9102 22.418 10.645 31.598 10.645zm66.457 78.59c0 31.102-25.297 56.395-56.395 56.395-31.102 0-56.395-25.297-56.395-56.395-0.003907-31.102 25.293-56.402 56.395-56.402 31.098 0 56.395 25.301 56.395 56.402zm-43.141-117.83c7.9414-7.9414 22.227-8.0156 29-7.5234 0.48438 6.7773 0.40625 21.062-7.5234 29-7.9297 7.9336-22.219 8.0117-28.996 7.5156-0.48047-6.7734-0.41016-21.059 7.5195-28.992zm-55.312-7.5508c7.8281-0.57422 21.566 0.13281 28.988 7.5508 7.9297 7.9336 8.0039 22.219 7.5234 28.996-6.7773 0.49219-21.07 0.41797-29-7.5156-7.9453-7.9492-7.9961-22.273-7.5117-29.031z"/>
  <path d="m520.7 245.74h7.5586c2.7852 0 5.0391-2.2539 5.0391-5.0391 0-2.7852-2.2539-5.0391-5.0391-5.0391h-7.5586c-2.7852 0-5.0391 2.2539-5.0391 5.0391 0 2.7852 2.25 5.0391 5.0391 5.0391z"/>
  <path d="m447.61 245.74h15.66c2.7852 0 5.0391-2.2539 5.0391-5.0391 0-2.7852-2.2539-5.0391-5.0391-5.0391h-15.66c-2.7852 0-5.0391 2.2539-5.0391 5.0391 0 2.7852 2.2539 5.0391 5.0391 5.0391z"/>
  <path d="m337.98 245.74h15.66c2.7852 0 5.0391-2.2539 5.0391-5.0391 0-2.7852-2.2539-5.0391-5.0391-5.0391h-15.66c-2.7852 0-5.0391 2.2539-5.0391 5.0391 0 2.7852 2.2578 5.0391 5.0391 5.0391z"/>
  <path d="m484.16 245.74h15.66c2.7852 0 5.0391-2.2539 5.0391-5.0391 0-2.7852-2.2539-5.0391-5.0391-5.0391h-15.66c-2.7852 0-5.0391 2.2539-5.0391 5.0391 0 2.7852 2.2539 5.0391 5.0391 5.0391z"/>
  <path d="m374.53 245.74h15.66c2.7852 0 5.0391-2.2539 5.0391-5.0391 0-2.7852-2.2539-5.0391-5.0391-5.0391h-15.66c-2.7852 0-5.0391 2.2539-5.0391 5.0391 0 2.7852 2.2578 5.0391 5.0391 5.0391z"/>
  <path d="m301.44 245.74h15.66c2.7852 0 5.0391-2.2539 5.0391-5.0391 0-2.7852-2.2539-5.0391-5.0391-5.0391h-15.66c-2.7852 0-5.0391 2.2539-5.0391 5.0391 0 2.7852 2.2539 5.0391 5.0391 5.0391z"/>
  <path d="m411.07 245.74h15.664c2.7852 0 5.0391-2.2539 5.0391-5.0391 0-2.7852-2.2539-5.0391-5.0391-5.0391h-15.664c-2.7852 0-5.0391 2.2539-5.0391 5.0391 0 2.7852 2.2578 5.0391 5.0391 5.0391z"/>
  <path d="m273 245.74h7.5586c2.7852 0 5.0391-2.2539 5.0391-5.0391 0-2.7852-2.2539-5.0391-5.0391-5.0391h-7.5586c-2.7852 0-5.0391 2.2539-5.0391 5.0391 0 2.7852 2.25 5.0391 5.0391 5.0391z"/>
  <path d="m528.26 556.6h-7.5586c-2.7852 0-5.0391 2.2539-5.0391 5.0391s2.2539 5.0391 5.0391 5.0391h7.5586c2.7852 0 5.0391-2.2539 5.0391-5.0391s-2.2539-5.0391-5.0391-5.0391z"/>
  <path d="m317.1 556.6h-15.66c-2.7852 0-5.0391 2.2539-5.0391 5.0391s2.2539 5.0391 5.0391 5.0391h15.66c2.7852 0 5.0391-2.2539 5.0391-5.0391-0.003907-2.7852-2.2539-5.0391-5.0391-5.0391z"/>
  <path d="m390.19 556.6h-15.66c-2.7852 0-5.0391 2.2539-5.0391 5.0391s2.2539 5.0391 5.0391 5.0391h15.66c2.7852 0 5.0391-2.2539 5.0391-5.0391s-2.2578-5.0391-5.0391-5.0391z"/>
  <path d="m499.82 556.6h-15.66c-2.7852 0-5.0391 2.2539-5.0391 5.0391s2.2539 5.0391 5.0391 5.0391h15.66c2.7852 0 5.0391-2.2539 5.0391-5.0391s-2.25-5.0391-5.0391-5.0391z"/>
  <path d="m353.64 556.6h-15.664c-2.7852 0-5.0391 2.2539-5.0391 5.0391s2.2539 5.0391 5.0391 5.0391h15.66c2.7852 0 5.0391-2.2539 5.0391-5.0391-0.003907-2.7852-2.25-5.0391-5.0352-5.0391z"/>
  <path d="m426.73 556.6h-15.664c-2.7852 0-5.0391 2.2539-5.0391 5.0391s2.2539 5.0391 5.0391 5.0391h15.664c2.7852 0 5.0391-2.2539 5.0391-5.0391s-2.2578-5.0391-5.0391-5.0391z"/>
  <path d="m463.28 556.6h-15.66c-2.7852 0-5.0391 2.2539-5.0391 5.0391s2.2539 5.0391 5.0391 5.0391h15.66c2.7852 0 5.0391-2.2539 5.0391-5.0391s-2.2578-5.0391-5.0391-5.0391z"/>
  <path d="m280.55 556.6h-7.5586c-2.7852 0-5.0391 2.2539-5.0391 5.0391s2.2539 5.0391 5.0391 5.0391h7.5586c2.7852 0 5.0391-2.2539 5.0391-5.0391s-2.2539-5.0391-5.0391-5.0391z"/>
 </g>
</svg>