<?xml version="1.0" encoding="UTF-8"?>
<!-- The Best Svg Icon site in the world: iconSvg.co, Visit us! https://iconsvg.co -->
<svg fill="#000000" width="800px" height="800px" version="1.1" viewBox="144 144 512 512" xmlns="http://www.w3.org/2000/svg">
 <g>
  <path d="m628.29 415.74h-30.121c2.7383-7.1602 4.9883-14.496 6.7305-21.961 3.25-15.438 1.7891-31.488-4.1875-46.086-5.9766-14.598-16.199-27.062-29.34-35.785 16.246-3.7969 31.043-12.211 42.613-24.23 25.332-28.094 20.957-72.141 20.75-73.996-0.42969-3.9922-3.793-7.0195-7.8086-7.0312-12.172 0.23438-24.23 2.3398-35.762 6.2344-3.6953-11.59-9.0859-22.57-15.996-32.582-2.3672-3.2148-6.7656-4.1523-10.234-2.1797-10.395 6.3359-19.789 14.172-27.883 23.262-8.9922-8.1992-19.145-15.02-30.133-20.246-3.6719-1.6445-7.9922-0.23828-9.9922 3.25-0.94531 1.6211-22.828 40.07-11.133 76.02h0.003906c5.6641 15.676 15.754 29.375 29.039 39.441-8.0977 1.3516-15.934 3.9727-23.215 7.7695-12.883-20.844-35.629-33.543-60.133-33.574-4.9141 0.17578-9.7695 1.082-14.414 2.6914l-0.33984 0.09375c4.5664-28.645 23.695-34.273 24.617-34.527l-1.9922-7.6172-1.9062-7.6367c-7.957 2.5-15.105 7.0742-20.711 13.246l-17.695-17.695c-7.3867-7.3672-17.398-11.508-27.832-11.508s-20.445 4.1406-27.832 11.508c-3.0742 3.0742-3.0742 8.0586 0 11.133l22.262 22.262c4.75 4.8477 10.703 8.3477 17.25 10.145 6.543 1.8008 13.449 1.8281 20.008 0.089844-0.94922 3.6484-1.6445 7.3594-2.0859 11.105-0.72266-0.20313-1.4102-0.37109-2.1484-0.58984-4.6445-1.6094-9.5-2.5195-14.414-2.6992-19.551 0.003906-38.227 8.1211-51.57 22.41-14.059-10.746-31.633-15.832-49.258-14.262-17.625 1.5742-34.023 9.6914-45.957 22.754-11.938 13.062-18.547 30.121-18.527 47.816v0.65234c-13.781 2.2617-25.84 10.535-32.906 22.582s-8.4062 26.613-3.6523 39.742h-10.672c-4.3477 0-7.875 3.5234-7.875 7.8711 0 108.52 105.95 196.8 236.16 196.8s236.16-88.285 236.16-196.8c0-2.0859-0.83203-4.0898-2.3047-5.5664-1.4766-1.4766-3.4805-2.3047-5.5664-2.3047zm-251.51-170.88-15.742-15.742h-0.003906c4.4102-2.1016 9.3594-2.7852 14.176-1.957 4.8125 0.82422 9.25 3.1211 12.707 6.5703l15.742 15.742h0.003906c-4.4102 2.1055-9.3594 2.793-14.176 1.9688-4.8164-0.82812-9.2539-3.125-12.707-6.582zm225.51 32.273-0.003906 0.003906c-8.6211 8.918-19.504 15.328-31.488 18.539 11.512-11.168 19.637-25.359 23.445-40.938 1.7422-8.6719 1.918-17.586 0.51953-26.324 7.9805-2.7656 16.246-4.6133 24.645-5.5078 0.007812 12.352-2 37.422-17.098 54.191zm-35.805-81.234c5.3359 9.0664 9.2773 18.883 11.691 29.125 2.1328 8.6367 2.3516 17.633 0.64453 26.363-4.7227 22.27-23.898 38.574-33.852 45.73-6.1797-10.57-17.074-33.258-12.336-55.547 1.9883-8.6719 5.8516-16.801 11.312-23.82v-0.054687c6.3828-8.3516 13.98-15.699 22.539-21.797zm-65.723 59.605c-6.9648-21.355 1.3945-45.145 6.4531-56.512 7.3047 4.1875 14.102 9.207 20.254 14.953-4.8477 7.4531-8.3164 15.723-10.23 24.406-2.8594 15.773-1.2227 32.031 4.7227 46.918-9.625-7.8281-16.953-18.113-21.199-29.766zm40.25 60.316c12.27 2.6055 23.48 8.8164 32.199 17.84 8.7148 9.0195 14.539 20.438 16.723 32.793l-26.309-5.5977c-2.043-0.43359-4.1758-0.039063-5.9258 1.1016-1.75 1.1406-2.9766 2.9297-3.4102 4.9766-0.90234 4.25 1.8125 8.4297 6.0625 9.3359l30.27 6.4297c-0.21094 2.625-0.58203 5.2305-1.1133 7.8086-2.0938 8.6055-4.8359 17.039-8.1914 25.23h-106.3c16.621-19.984 26.215-44.879 27.316-70.848-0.011719-7.8711-1.3398-15.688-3.9375-23.121 13.043-6.9805 28.141-9.0898 42.598-5.9492zm-156.76-26.035c3.3867 0.21484 6.7227 0.90234 9.918 2.0391 4.418 1.5273 9.0312 2.3984 13.699 2.582 4.668-0.18359 9.2812-1.0547 13.695-2.582 3.1953-1.1367 6.5352-1.8242 9.9219-2.0391 14.605 0.019532 28.613 5.832 38.941 16.16 10.332 10.332 16.141 24.336 16.16 38.945-1.2773 27.312-13.676 52.91-34.312 70.848h-88.781c-20.617-17.953-33.02-43.539-34.348-70.848 0.019531-14.609 5.832-28.613 16.164-38.945 10.328-10.328 24.332-16.141 38.941-16.16zm-188.93 110.21c0-8.2891 3.2695-16.246 9.0977-22.141 5.8242-5.8945 13.742-9.2539 22.031-9.3477 0.32422 0 0.67578 0.054687 0.91406 0.054687h-0.003907c2.2617 0 4.4141-0.97266 5.9102-2.668 1.4922-1.6992 2.1836-3.9531 1.9023-6.1953-0.3125-2.3008-0.47656-4.6172-0.48828-6.9375-0.015625-13.777 5.1367-27.059 14.438-37.219 9.3047-10.164 22.078-16.469 35.801-17.672 13.723-1.2031 27.398 2.7812 38.328 11.172-6.4414 10.848-9.8438 23.23-9.8477 35.848 1.1328 25.965 10.73 50.848 27.324 70.848h-43.066v-47.23c0-6.6172-2.082-13.066-5.9531-18.438-3.8672-5.3672-9.3242-9.3828-15.602-11.477-2.3516-0.71484-4.9023-0.26172-6.8633 1.2109-1.9648 1.4766-3.1055 3.8008-3.0703 6.2578-0.10938 3.3047 1.8828 6.3125 4.9648 7.5039 3.1367 1.043 5.8672 3.0469 7.8008 5.7305 1.9375 2.6797 2.9766 5.9023 2.9766 9.2109v47.23h-82.285c-2.8047-4.7734-4.2891-10.207-4.3086-15.742zm204.68 204.67c-90.602 0-168.55-45.164-202.4-109.49l84.387-0.71875-0.14062-15.742-91.457 0.78906c-6.125-15.324-9.707-31.543-10.605-48.02h440.43c-5.0391 96.195-101.89 173.18-220.21 173.18z"/>
  <path d="m523.48 360.39v-0.007813c0.90625-4.2539 5.8906-6.7969 9.3359-6.0625 4.2539 0.90625 6.9648 5.0859 6.0625 9.3359v0.007812c-0.90625 4.2539-5.8906 6.7969-9.3359 6.0625-4.2539-0.90625-6.9648-5.0859-6.0625-9.3359z"/>
  <path d="m297.66 478.72h23.617v15.742h-23.617z"/>
 </g>
</svg>