<?xml version="1.0" encoding="UTF-8"?>
<!-- The Best Svg Icon site in the world: iconSvg.co, Visit us! https://iconsvg.co -->
<svg fill="#000000" width="800px" height="800px" version="1.1" viewBox="144 144 512 512" xmlns="http://www.w3.org/2000/svg">
 <path d="m500.29 332.51c-1.4609-0.67578-3.1523-0.60937-4.5547 0.17578-0.98047 0.54688-11.266 6.3398-25.902 16.625l-5.3555-91.172c-2.1211-33.34-29.953-59.457-63.363-59.457-33.406 0-61.238 26.117-63.352 59.375l-7.4102 92.379c-15.715-11.172-26.762-17.387-27.461-17.777-1.4102-0.78906-3.1172-0.85547-4.5742-0.16797-1.4648 0.67969-2.5156 2.0195-2.8203 3.6055-4.2188 21.629-6.0195 40.773-6.0195 64.008-0.003906 111.06 49.77 201.42 110.95 201.42 61.18 0 110.95-90.359 110.95-201.43 0-23.875-3.3555-40.207-7.6055-60.887l-0.64453-3.1406c-0.32422-1.5664-1.375-2.8945-2.8359-3.5625zm-75.059-117.96c14.469 7.3633 25.184 21.141 28.316 37.664h-28.316zm0 47.738h29.395l2.2852 38.836h-31.68zm0 48.914h32.27l2.2812 38.836h-34.551zm0 48.91h29.918c-9.375 7.2266-19.629 15.785-29.918 25.527zm-24.117-151.36c4.8594 0 9.5664 0.69922 14.055 1.9297 0 0.027344-0.015624 0.046875-0.015624 0.074218v41.457h-28.352v-41.457-0.007812c4.5703-1.2773 9.3633-1.9961 14.312-1.9961zm-14.309 141.29v-38.836h28.352v38.836zm28.352 10.074v35.453c-5.3984 5.5508-10.73 11.426-15.871 17.605-4.0898-4.9219-8.2812-9.5352-12.48-13.992v-39.07zm-28.352-58.988v-38.836h28.352v38.836zm-10.078-86.449v37.539h-28.039c3.1172-16.426 13.711-30.145 28.039-37.539zm-29.199 47.613h29.199v38.836h-32.316zm-3.9219 48.914h33.125v38.836h-36.238zm33.121 48.91v28.816c-6.0586-5.8945-12.035-11.344-17.633-16.117-5.3984-4.6055-10.656-8.8359-15.664-12.699zm23.695 231.33c-55.621 0-100.87-85.836-100.87-191.35 0-19.984 1.3711-36.836 4.5273-55 22.41 13.852 100.11 66.047 124.05 137.13 0.88672 2.6328 3.7305 4.0547 6.3828 3.168 2.6367-0.88672 4.0547-3.7461 3.168-6.3828-7.1484-21.227-18.785-40.699-31.953-57.805 32.148-39.238 73.691-66.762 88.957-76.168 3.7578 18.375 6.6211 33.668 6.6211 55.059-0.003906 105.51-45.254 191.34-100.88 191.34z"/>
</svg>