<?xml version="1.0" encoding="UTF-8"?>
<!-- The Best Svg Icon site in the world: iconSvg.co, Visit us! https://iconsvg.co -->
<svg fill="#000000" width="800px" height="800px" version="1.1" viewBox="144 144 512 512" xmlns="http://www.w3.org/2000/svg">
 <path d="m445.91 303.61h-18.066c-3.2773-5.0938-7.8945-9.9336-13.891-14.367-1.918-1.4219-1.9531-4.0703-1.1719-5.9297 1.4375-3.4141 2.1641-6.9336 2.1641-10.453 0-14.613-12.32-28.199-33.801-37.273-2.125-0.89844-2.875-3.1211-2.8594-5.0156 0-10.512-17.371-24.484-51.645-41.531-4.1289-2.0547-8.8789-2.0547-13.004 0-34.27 17.047-51.645 31.02-51.641 41.645 0.011718 1.7852-0.73438 4.0117-2.8594 4.9062-21.484 9.0664-33.805 22.652-33.805 37.27 0 3.5195 0.72656 7.0391 2.1641 10.449 0.78125 1.8594 0.74609 4.5078-1.1719 5.9297-5.9961 4.4336-10.613 9.2734-13.891 14.367l-18.055 0.003906c-5.5586 0-10.078 4.5195-10.078 10.078v26.98c0 5.5586 4.5195 10.078 10.078 10.078h4.7383l21.426 228.06c0.62109 6.5938 6.082 11.566 12.707 11.566h6.6055v12.055c0 5.5547 4.5195 10.078 10.078 10.078h140.42c5.5547 0 10.078-4.5234 10.078-10.078v-12.055h6.6016c6.6211 0 12.082-4.9727 12.707-11.566l21.426-228.06h4.7422c5.5547 0 10.078-4.5195 10.078-10.078v-26.98c0.003906-5.5586-4.5195-10.078-10.074-10.078zm-213.58-6.2695c5.3906-3.9883 7.2266-11.367 4.4648-17.934-0.91406-2.1719-1.3789-4.375-1.3789-6.5469 0-10.367 10.078-20.57 27.648-27.988 5.5156-2.332 9.0547-7.9258 9.0117-14.301 0-3.7109 12.504-15.82 46.051-32.508 0.64062-0.31641 1.332-0.47656 2.0195-0.47656s1.375 0.15625 2.0156 0.47656c33.551 16.688 46.051 28.797 46.051 32.551-0.042969 6.332 3.4922 11.93 9.0195 14.258 17.562 7.418 27.641 17.617 27.641 27.988 0 2.1719-0.46094 4.375-1.3789 6.5469-2.7617 6.5664-0.92578 13.941 4.4688 17.93v0.003906c2.3438 1.7344 4.8125 3.8555 7.0977 6.2656l-189.84 0.003906c2.2852-2.4141 4.7617-4.5352 7.1055-6.2695zm17.602 305.08v-12.055h140.43l0.003906 12.055zm159.78-24.566c-0.13281 1.3867-1.2852 2.4336-2.6758 2.4336h-173.78c-1.3945 0-2.5469-1.0469-2.6758-2.4336l-2.5352-26.984h184.2zm16.949-180.39c-12.391 0.19531-59.926 2.707-50.438 29.918 10.887 31.227-7.1523 26.992 16.773 43.898 14.688 10.379 23.594-4.4961 28.941-23.543l-8.7422 93.059h-186.1l-5.1562-54.895c8.0742 4.7656 21.113 8.3047 28.164-11.949 14.191-40.766-21.102-53.148-34.582-56.328l-3.1992-34.039h215.64zm2.25-23.957h-217.54l-2.1406-22.766h221.81zm-234.53-32.84v-26.98h251.54l0.003907 26.98zm351.47-72.355c-38.516 0-69.848 40.07-69.848 89.324 0 34.566 15.113 65.371 39.445 80.387 2.7656 1.707 4.418 4.5273 4.418 7.5508v151.81c0 8.3359 6.7812 15.113 15.113 15.113h21.742c8.3359 0 15.113-6.7812 15.113-15.113l-0.003906-151.81c0-3.0195 1.6523-5.8438 4.418-7.5508 24.336-15.02 39.449-45.824 39.449-80.387 0-49.254-31.336-89.324-69.848-89.324zm25.105 161.14c-5.7617 3.5586-9.1992 9.5859-9.1992 16.125v151.81c0 2.7812-2.2578 5.0391-5.0391 5.0391h-21.742c-2.7812 0-5.0391-2.2578-5.0391-5.0391v-151.81c0-6.543-3.4375-12.566-9.1992-16.125-21.059-12.996-34.66-41.184-34.66-71.812 0-43.695 26.812-79.25 59.773-79.25 32.961 0 59.773 35.551 59.773 79.25 0 30.625-13.609 58.812-34.668 71.812zm21.852-71.812c0 2.7812-2.2539 5.0391-5.0391 5.0391s-5.0391-2.2539-5.0391-5.0391c0-3.332-0.20703-6.6758-0.60937-9.9297-0.34375-2.7617 1.6133-5.2773 4.3789-5.6211 2.7109-0.36328 5.2773 1.6133 5.6172 4.375 0.45703 3.668 0.69141 7.4297 0.69141 11.176zm-10.406-24.527c-2.0234 0-3.9258-1.2266-4.6992-3.2266-4.2305-10.953-10.766-19.641-18.406-24.469-2.3516-1.4844-3.0547-4.5977-1.5703-6.9492 1.4844-2.3555 4.6016-3.0547 6.9531-1.5664 9.457 5.9727 17.418 16.398 22.422 29.352 1.0039 2.5938-0.28516 5.5117-2.8828 6.5156-0.59766 0.23047-1.2109 0.34375-1.8164 0.34375zm-317.29 164.38s-4.7891-26.332 20.348-21.543c10.84 2.0664 11.969 11.969 23.938 4.7891 11.969-7.1797 28.566-6.6992 34.707 8.3789 13.164 32.309-82.582 73.004-78.992 8.375zm21.281-83.75c1.8711-16.496 18.055-16.48 18.055-16.48 22.43-22.406 37.629 0.39453 37.68 11.938 0.070312 15.695-19.402 31.645-43.695 21.477-8.8125-3.6914-12.98-8.6406-12.039-16.934zm81.926 96.355c-0.046875-10.461 12.934-21.09 29.121-14.312 5.8711 2.457 8.6484 5.7578 8.0234 11.285-1.2461 10.992-12.031 10.984-12.031 10.984-14.949 14.934-25.078-0.26562-25.113-7.957z"/>
</svg>