<?xml version="1.0" encoding="UTF-8"?>
<!-- The Best Svg Icon site in the world: iconSvg.co, Visit us! https://iconsvg.co -->
<svg fill="#000000" width="800px" height="800px" version="1.1" viewBox="144 144 512 512" xmlns="http://www.w3.org/2000/svg">
 <g>
  <path d="m471.44 301.75-150.01 150.01c-15.988 15.984-24.793 37.238-24.793 59.852 0 22.609 8.8008 43.863 24.793 59.848 0.98437 0.98438 2.2734 1.4766 3.5625 1.4766 1.2891 0 2.5781-0.49219 3.5625-1.4766l150.01-150.01c15.988-15.984 24.793-37.246 24.793-59.852 0-22.613-8.8008-43.867-24.793-59.852-1.9688-1.9648-5.1562-1.9648-7.125 0zm0 112.58-146.33 146.32c-11.902-13.586-18.395-30.812-18.395-49.043 0-19.922 7.7539-38.648 21.84-52.727l146.33-146.33c11.902 13.586 18.395 30.812 18.395 49.047 0 19.918-7.7539 38.645-21.84 52.73z"/>
  <path d="m325.18 479.68c-8.7539 8.7539-8.7539 22.996 0 31.754 4.375 4.3789 10.125 6.5625 15.871 6.5625 5.75 0 11.504-2.1836 15.875-6.5625 4.2422-4.2422 6.5781-9.8789 6.5781-15.875s-2.3359-11.641-6.5781-15.875c-8.7461-8.7617-23-8.7656-31.746-0.003906zm24.625 24.629c-4.8164 4.8164-12.676 4.8281-17.5 0-4.8203-4.8281-4.8203-12.68 0-17.504 2.4102-2.4102 5.5781-3.6172 8.7461-3.6172s6.3438 1.207 8.7539 3.6172c2.3359 2.3359 3.625 5.4453 3.625 8.7539 0 3.3047-1.2891 6.4102-3.625 8.75z"/>
  <path d="m380.35 433.81c-5.9961 0-11.637 2.3359-15.875 6.5781-8.7539 8.7539-8.7539 22.996 0 31.75 4.3789 4.3789 10.129 6.5625 15.875 6.5625 5.75 0 11.504-2.1875 15.875-6.5625 8.7539-8.7539 8.7539-22.996 0-31.75-4.2344-4.2422-9.8789-6.5781-15.875-6.5781zm8.7539 31.203c-4.8164 4.8164-12.668 4.8281-17.504 0-4.8281-4.8281-4.8281-12.676 0-17.5 2.3438-2.3359 5.4453-3.625 8.7539-3.625 3.3047 0 6.4141 1.2891 8.7539 3.625 4.8203 4.8242 4.8203 12.672-0.003907 17.5z"/>
  <path d="m403.77 401.09c-8.7539 8.7539-8.7539 22.996 0 31.754 4.375 4.375 10.125 6.5625 15.871 6.5625 5.75 0 11.504-2.1875 15.883-6.5625 8.7539-8.7578 8.7539-23 0-31.754-8.7656-8.7617-23.012-8.7422-31.754 0zm24.629 24.629c-4.8359 4.8281-12.688 4.8164-17.504 0-4.8203-4.8281-4.8203-12.68 0-17.504 2.4102-2.4102 5.5781-3.6172 8.7539-3.6172 3.168 0 6.3359 1.207 8.7539 3.6172 4.8164 4.8242 4.8164 12.68-0.003906 17.504z"/>
  <path d="m443.07 361.79c-4.2422 4.2422-6.5781 9.8789-6.5781 15.875s2.3359 11.641 6.5781 15.875c4.375 4.3789 10.125 6.5625 15.875 6.5625 5.7461 0 11.5-2.1836 15.871-6.5625 8.7539-8.7539 8.7539-22.996 0-31.754-8.75-8.7578-23.004-8.75-31.746 0.003906zm24.625 24.629c-4.8203 4.8203-12.68 4.8203-17.5 0-2.3398-2.3359-3.6289-5.4453-3.6289-8.7539 0-3.3047 1.2891-6.4102 3.6289-8.75 2.4102-2.4102 5.5781-3.6172 8.7539-3.6172 3.168 0 6.3359 1.207 8.7461 3.6172 4.8203 4.8242 4.8203 12.676 0 17.504z"/>
  <path d="m227.06 224.91v371.57c0 2.7852 2.2539 5.0391 5.0391 5.0391h335.74c2.7852 0 5.0391-2.2539 5.0391-5.0391v-371.57c0-2.7852-2.2539-5.0391-5.0391-5.0391h-47.98v-16.363c0-2.7852-2.2539-5.0391-5.0391-5.0391-2.7852 0-5.0391 2.2539-5.0391 5.0391v16.363h-66.492v-16.363c0-2.7852-2.2539-5.0391-5.0391-5.0391s-5.0391 2.2539-5.0391 5.0391v16.363h-66.488v-16.363c0-2.7852-2.2539-5.0391-5.0391-5.0391s-5.0391 2.2539-5.0391 5.0391v16.363h-66.492v-16.363c0-2.7852-2.2539-5.0391-5.0391-5.0391-2.7852 0-5.0391 2.2539-5.0391 5.0391v16.363h-47.98c-2.7812 0-5.0352 2.2539-5.0352 5.0391zm10.078 5.0391h42.941v14.637c-9.6797 2.293-16.926 10.957-16.926 21.324 0 12.109 9.8555 21.957 21.965 21.957 12.109 0 21.965-9.8516 21.965-21.957 0-10.367-7.2461-19.031-16.926-21.324v-14.637h66.492v14.637c-9.6797 2.293-16.926 10.957-16.926 21.324 0 12.109 9.8555 21.957 21.965 21.957s21.957-9.8516 21.957-21.957c0-10.367-7.2422-19.031-16.922-21.324v-14.637h66.488v14.637c-9.6797 2.293-16.926 10.957-16.926 21.324 0 12.109 9.8555 21.957 21.965 21.957s21.965-9.8516 21.965-21.957c0-10.367-7.2461-19.031-16.926-21.324v-14.637h66.492v14.637c-9.6797 2.293-16.926 10.957-16.926 21.324 0 12.109 9.8555 21.957 21.965 21.957 12.109 0 21.957-9.8516 21.957-21.957 0-10.367-7.2422-19.031-16.922-21.324v-14.637h42.941l0.003906 361.49h-325.66zm47.98 24.074c6.5547 0 11.887 5.332 11.887 11.887 0 6.5547-5.332 11.883-11.887 11.883-6.5547 0-11.887-5.3281-11.887-11.883 0-6.5547 5.332-11.887 11.887-11.887zm76.57 0c6.5547 0 11.883 5.332 11.883 11.887 0 6.5547-5.3281 11.883-11.883 11.883s-11.887-5.3281-11.887-11.883c0-6.5547 5.332-11.887 11.887-11.887zm76.562 0c6.5547 0 11.887 5.332 11.887 11.887 0 6.5547-5.332 11.883-11.887 11.883s-11.887-5.3281-11.887-11.883c0-6.5547 5.3359-11.887 11.887-11.887zm76.57 0c6.5547 0 11.883 5.332 11.883 11.887 0 6.5547-5.3281 11.883-11.883 11.883-6.5547 0-11.887-5.3281-11.887-11.883 0-6.5547 5.3359-11.887 11.887-11.887z"/>
 </g>
</svg>