<?xml version="1.0" encoding="UTF-8"?>
<!-- The Best Svg Icon site in the world: iconSvg.co, Visit us! https://iconsvg.co -->
<svg fill="#000000" width="800px" height="800px" version="1.1" viewBox="144 144 512 512" xmlns="http://www.w3.org/2000/svg">
 <g>
  <path d="m510.59 325.27h58.422c2.7812 0 5.0391-2.2539 5.0391-5.0391 0-2.7812-2.2539-5.0391-5.0391-5.0391l-58.422 0.003906c-2.7812 0-5.0391 2.2539-5.0391 5.0391 0.003906 2.7812 2.2578 5.0352 5.0391 5.0352z"/>
  <path d="m510.59 353.16h58.422c2.7812 0 5.0391-2.2539 5.0391-5.0391 0-2.7812-2.2539-5.0391-5.0391-5.0391h-58.422c-2.7812 0-5.0391 2.2539-5.0391 5.0391 0.003906 2.7812 2.2578 5.0391 5.0391 5.0391z"/>
  <path d="m596.48 198.48h-113.36c-2.7812 0-5.0391 2.2539-5.0391 5.0391v332.52c0 1.2773 0.48828 2.5117 1.3633 3.4453l56.68 60.457c0.94922 1.0117 2.2812 1.5898 3.6719 1.5898 1.3906 0 2.7227-0.57422 3.6758-1.5898l56.68-60.457c0.875-0.9375 1.3633-2.1719 1.3633-3.4492v-332.52c0-2.7812-2.2578-5.0352-5.0391-5.0352zm-5.0391 335.56-51.641 55.082-51.641-55.082v-325.48h103.28z"/>
  <path d="m539.8 291.05c17.977 0 32.602-14.621 32.602-32.598 0-17.973-14.625-32.598-32.602-32.598-17.977 0-32.602 14.625-32.602 32.602 0.003906 17.973 14.629 32.594 32.602 32.594zm0-55.121c12.422 0 22.523 10.102 22.523 22.523 0 12.418-10.102 22.52-22.523 22.52-12.422 0-22.523-10.102-22.523-22.52s10.105-22.523 22.523-22.523z"/>
  <path d="m198.89 474.68c-4.1758 41.719 23.059 80.16 67.777 95.664 12.711 4.4062 20.164 10.832 24.164 20.844 2.4805 6.1953 8.8086 10.34 15.777 10.34h0.11719c6.9258-0.046876 13.055-4.0586 15.605-10.223 4.2734-10.324 11.156-16.383 23.012-20.25 42.016-13.715 70.246-49.074 70.246-87.988 0-23.535-10.078-46.051-28.379-63.398-17.512-16.602-40.906-26.973-66.172-29.797l7.6953-23.871c4.2383 3.8477 9.2422 6.75 14.805 8.543 4.1484 1.3398 8.3555 1.9727 12.496 1.9727 17.238 0 33.297-11.02 38.867-28.289 2.9805-9.2422 2.5156-19.258-1.1953-28.176 8.2188-5.0742 14.449-12.93 17.43-22.172 5.25-16.281-0.18359-33.789-13.242-44.273 1.1484-2.0781 2.0938-4.25 2.8203-6.4961 6.2695-19.445-4.4492-40.371-23.902-46.641-9.418-3.0391-19.457-2.2266-28.27 2.2891-8.8086 4.5156-15.332 12.188-18.371 21.609-0.72656 2.2461-1.2305 4.5625-1.5078 6.9219-7.9844 0.42188-15.453 3.2109-21.691 7.7266-6.3711-4.582-13.797-7.3086-21.566-7.7227-0.27734-2.3633-0.78125-4.6758-1.5078-6.9219-3.0391-9.4258-9.5625-17.098-18.371-21.613-8.8086-4.5078-18.852-5.3203-28.27-2.2891-9.4219 3.0391-17.098 9.5625-21.609 18.371-4.5156 8.8086-5.3281 18.852-2.2891 28.273 0.72656 2.25 1.6719 4.418 2.8203 6.4961-13.059 10.48-18.492 27.992-13.242 44.273 2.9805 9.2383 9.2109 17.098 17.43 22.168-3.7109 8.9219-4.1758 18.938-1.1992 28.176 5.5664 17.27 21.625 28.289 38.867 28.289 4.1406 0 8.3477-0.63281 12.496-1.9727 5.5664-1.793 10.492-4.8008 14.734-8.6523l7.1992 24.07c-49.594 5.7891-89.207 41.086-93.574 84.719zm68.539-109.73c-7.8203 2.5234-16.141 1.8438-23.445-1.8984-7.3047-3.7422-12.715-10.109-15.234-17.918-2.6406-8.1914-1.6758-17.207 2.6406-24.727 0.70703-1.2344 0.85938-2.7031 0.42578-4.0547-0.43359-1.3516-1.418-2.457-2.7148-3.043-7.8984-3.582-13.941-10.336-16.586-18.527-4.3516-13.504 1.0547-28.129 13.145-35.566 1.207-0.74219 2.043-1.957 2.3086-3.3477 0.26562-1.3906-0.070312-2.832-0.92188-3.9648-1.8203-2.4297-3.2031-5.082-4.1094-7.8906-4.5664-14.164 3.2422-29.398 17.402-33.961 6.8633-2.2109 14.172-1.6172 20.586 1.668 6.4141 3.2852 11.164 8.875 13.379 15.738 0.90625 2.8008 1.332 5.7656 1.2734 8.8008-0.027343 1.418 0.54297 2.7812 1.5703 3.7539 1.0273 0.97656 2.3867 1.4531 3.832 1.3711 6.5469-0.47656 12.965 1.2656 18.492 4.7383-3.1953 3.8828-5.7969 8.332-7.418 13.363-2.9805 9.2383-2.5156 19.258 1.1953 28.176-8.2188 5.0703-14.449 12.93-17.43 22.172-2.207 6.8516-2.4844 13.859-1.1602 20.461 0.019532 0.082031-0.003906 0.16406 0.023438 0.24609l0.17969 0.60156c0.45703 2.0469 1.0352 4.0547 1.793 5.9961l5.2773 17.637c-3.7773 4.7578-8.707 8.3047-14.504 10.176zm19.875-28.582c-0.40234-0.78516-0.75-1.5859-1.082-2.3906l-1.7617-5.8906c-0.95703-5-0.66016-10.184 0.94531-15.164 2.6445-8.1953 8.6875-14.945 16.586-18.527 1.293-0.58594 2.2773-1.6914 2.7148-3.043 0.43359-1.3516 0.28125-2.8242-0.42578-4.0547-4.3164-7.5195-5.2773-16.535-2.6406-24.727 4.3516-13.5 17.273-22.281 31.441-21.188 1.4414 0.078126 2.8047-0.39453 3.832-1.3711 1.0273-0.97266 1.5977-2.3359 1.5703-3.7539-0.0625-3.0391 0.36719-6 1.2734-8.8047 2.2109-6.8594 6.9609-12.449 13.379-15.734 6.4141-3.2852 13.719-3.8789 20.586-1.668 14.16 4.5664 21.969 19.801 17.402 33.961-0.90625 2.8086-2.2891 5.4648-4.1094 7.8906-0.85156 1.1328-1.1875 2.5742-0.92188 3.9648 0.26562 1.3906 1.1016 2.6094 2.3086 3.3477 12.09 7.4375 17.496 22.062 13.145 35.562-2.6406 8.1914-8.6875 14.945-16.586 18.527-1.293 0.58594-2.2773 1.6914-2.7148 3.043-0.43359 1.3516-0.28125 2.8242 0.42578 4.0547 4.3164 7.5195 5.2773 16.531 2.6406 24.727-2.5195 7.8086-7.9297 14.176-15.234 17.918-7.3047 3.7461-15.625 4.4219-23.445 1.8984-5.7148-1.8438-10.586-5.3242-14.34-9.9805l27.402-85.012c0.85547-2.6484-0.60156-5.4844-3.25-6.3398-2.6406-0.85938-5.4844 0.60156-6.3398 3.25l-27.406 85.012c-5.7695 1.5938-11.758 1.5703-17.473-0.27344-7.8125-2.5195-14.176-7.9336-17.922-15.234zm31.84 26.535-8.457 26.23c-2.6406-0.078124-5.293-0.066406-7.957 0.023438l-9.6367-32.215c2.7812 1.7344 5.7852 3.1953 9.043 4.2461 5.5586 1.7969 11.316 2.3633 17.008 1.7148zm-18.469 36.395c2.1172-0.11328 4.2227-0.16797 6.3242-0.16797 28 0 54.426 9.9766 73.277 27.852 16.273 15.426 25.234 35.344 25.234 56.082 0 34.539-25.438 66.051-63.297 78.41-14.547 4.75-23.824 13.004-29.191 25.977-0.98438 2.3711-3.5391 3.9766-6.3633 3.9961h-0.050781c-2.8828 0-5.457-1.6055-6.4141-4.0039-5.1133-12.789-14.719-21.25-30.223-26.625-40.223-13.941-64.754-48.156-61.051-85.137 4.0938-40.969 43.543-73.809 91.754-76.383z"/>
  <path d="m335.11 440.37c12.25 5.5898 21.852 14.676 27.043 25.586 0.85937 1.8125 2.668 2.875 4.5508 2.875 0.72656 0 1.4648-0.15625 2.1641-0.48828 2.5117-1.1914 3.5781-4.1992 2.3828-6.7148-6.2031-13.047-17.555-23.852-31.957-30.422-2.5352-1.1602-5.5195-0.042969-6.6758 2.4922-1.1562 2.5312-0.039062 5.5195 2.4922 6.6719z"/>
  <path d="m366.43 484.73c0 15.465-8.2305 29.859-22.586 39.492-2.3086 1.5508-2.9258 4.6797-1.3789 6.9922 0.97266 1.4492 2.5664 2.2305 4.1875 2.2305 0.96484 0 1.9414-0.27734 2.8008-0.85547 17.191-11.535 27.047-28.98 27.047-47.859 0-2.7812-2.2539-5.0391-5.0391-5.0391-2.7734 0-5.0312 2.2578-5.0312 5.0391z"/>
 </g>
</svg>