<?xml version="1.0" encoding="UTF-8"?>
<!-- The Best Svg Icon site in the world: iconSvg.co, Visit us! https://iconsvg.co -->
<svg fill="#000000" width="800px" height="800px" version="1.1" viewBox="144 144 512 512" xmlns="http://www.w3.org/2000/svg">
 <g>
  <path d="m266.18 620.41h15.742v15.742h-15.742z"/>
  <path d="m615.8 313.41 18.051-18.051-11.133-11.133-29.18 29.184h-28.227v-23.617c0-2.0859-0.83203-4.0898-2.3086-5.5664-1.4766-1.4766-3.4766-2.3047-5.5664-2.3047h-110.21v-31.488h23.617c8.4375 0 16.234-4.5 20.453-11.809 4.2148-7.3047 4.2148-16.309 0-23.613-4.2188-7.3086-12.016-11.809-20.453-11.809h-24.324c-2.4883-14.789-11.859-27.516-25.242-34.281s-29.184-6.7656-42.566 0c-13.383 6.7656-22.754 19.492-25.238 34.281h-24.328c-8.4336 0-16.23 4.5-20.449 11.809-4.2188 7.3047-4.2188 16.309 0 23.613 4.2188 7.3086 12.016 11.809 20.449 11.809h23.617v31.488h-110.21c-4.3477 0-7.8711 3.5234-7.8711 7.8711v23.617h-28.23l-29.184-29.18-11.129 11.129 18.051 18.051h-20.359v15.742h20.359l-18.051 18.051 11.133 11.133 29.18-29.184h28.23v23.617c0 2.0898 0.82812 4.0898 2.3047 5.5664 1.4766 1.4766 3.4766 2.3047 5.5664 2.3047h7.8711v23.617h15.742l0.003906-23.617h15.742v39.359h15.742l0.003906-39.359h15.742v110.21h-15.742v15.742h15.742v55.105h15.742v-23.617h15.742v39.359h15.742l0.003907-39.359h15.742l0.003906 102.34h-78.719v15.742l236.16 0.003906v-15.746h-110.21v-102.34h15.742v23.617h15.742l0.003906-23.617h15.742v15.742h15.742l0.003906-173.18h15.742v39.359h15.742l0.003906-39.359h15.742v23.617h15.742l0.003906-23.617h7.8711c2.0898 0 4.0898-0.82812 5.5664-2.3047 1.4766-1.4766 2.3086-3.4766 2.3086-5.5664v-23.617h28.23l29.18 29.18 11.133-11.133-18.055-18.047h20.359v-15.742zm-215.8-133.82c6.9609 0.027344 13.715 2.3594 19.211 6.6289 5.4922 4.2734 9.418 10.246 11.156 16.988h-60.738c1.7383-6.7422 5.6641-12.715 11.16-16.988 5.4922-4.2695 12.25-6.6016 19.211-6.6289zm-78.723 47.23c0-4.3477 3.5234-7.8711 7.8711-7.8711h141.7c4.3477 0 7.8711 3.5234 7.8711 7.8711s-3.5234 7.875-7.8711 7.875h-141.7c-4.3477 0-7.8711-3.5273-7.8711-7.875zm110.21 23.617v31.488h0.003906c0 11.25-6.0039 21.645-15.746 27.27-9.7422 5.625-21.746 5.625-31.488 0-9.7422-5.625-15.742-16.02-15.742-27.27v-31.488zm-23.613 369.98h-15.746v-102.34h15.742zm141.7-275.52h-70.848c-4.3477 0-7.8711 3.5234-7.8711 7.8711v149.57h-141.7v-15.746h118.08v-15.742h-118.08v-118.08c0-2.0859-0.82813-4.0898-2.3047-5.5664-1.4766-1.4766-3.4766-2.3047-5.5664-2.3047h-70.848v-47.23h105.09c2.8164 7.918 7.6914 14.941 14.125 20.352 6.4336 5.4102 14.191 9.0078 22.477 10.426v16.453h-15.742v15.742h15.742v15.742h15.742l0.003906-15.742h15.742v-15.742h-15.742v-16.453c8.2852-1.418 16.043-5.0156 22.477-10.426s11.309-12.434 14.129-20.352h105.09z"/>
  <path d="m421.31 287.48-11.133-11.133c-2.6992 2.6953-6.3594 4.2109-10.176 4.2109s-7.4766-1.5156-10.18-4.2109l-11.133 11.133c5.6562 5.6445 13.32 8.8164 21.312 8.8164 7.9883 0 15.652-3.1719 21.309-8.8164z"/>
  <path d="m266.18 470.85h15.742v15.742h-15.742z"/>
 </g>
</svg>