<?xml version="1.0" encoding="UTF-8"?>
<!-- The Best Svg Icon site in the world: iconSvg.co, Visit us! https://iconsvg.co -->
<svg fill="#000000" width="800px" height="800px" version="1.1" viewBox="144 144 512 512" xmlns="http://www.w3.org/2000/svg">
 <g>
  <path d="m246.84 402.72c0 13.512 21.781 23.699 50.668 23.699 28.887 0 50.664-10.188 50.664-23.699s-21.773-23.691-50.664-23.691-50.668 10.188-50.668 23.691zm50.668-15.82c24.488 0 42.793 8.3516 42.793 15.82 0 7.4648-18.301 15.828-42.793 15.828-24.488 0-42.797-8.3555-42.797-15.828s18.305-15.82 42.797-15.82z"/>
  <path d="m428.45 481.08c0 13.504 21.781 23.691 50.664 23.691 28.883-0.003907 50.668-10.199 50.668-23.691 0-1.0469-0.41406-2.0469-1.1523-2.7852-0.73828-0.73828-1.7422-1.1523-2.7852-1.1523h-31.332l15.074-8.2461h0.003906c1.375-0.75391 2.168-2.2539 2.0234-3.8164-0.14453-1.5586-1.2031-2.8867-2.6953-3.375-9.6562-2.957-19.707-4.418-29.805-4.3281-28.883-0.007812-50.664 10.176-50.664 23.703zm50.664-15.84c5.9883-0.011719 11.969 0.51562 17.863 1.5742l-19.754 10.801c-1.5898 0.85547-2.3906 2.6875-1.9453 4.4375 0.44922 1.75 2.0273 2.9727 3.8359 2.9609h41.195c-4.9648 6.1875-20.969 11.883-41.195 11.883-24.488 0-42.793-8.3516-42.793-15.82 0-7.4648 18.301-15.836 42.793-15.836z"/>
  <path d="m646.05 608.12v-0.066406l-1.6953-50.715c-0.54688-13.574-3.7969-26.906-9.5586-39.211-2.8594-6.4688-5.0078-13.23-6.4023-20.168-1.1133-5.4141-1.5781-10.945-1.3828-16.473 0.89062-28.246-3.1016-44.656-11.859-48.805-3.3438-1.7227-7.2227-2.0898-10.832-1.0312-3.6094 1.0625-6.6719 3.4688-8.5508 6.7266-2.1797 3.1328-3.6602 6.6953-4.3516 10.445-1.3203 6.0586-3.0586 12.02-5.1953 17.844-2.0859-3.2227-4.3516-6.3203-6.793-9.2812-1.6016-1.9258-3.0742-3.957-4.4102-6.0781-4.7461-7.6133-5.5547-17.043-2.168-25.352 3.5195-8.8672 11.027-15.547 20.238-18.016 3.8242-0.99219 7.5273-2.4023 11.047-4.1992 10.078-5.1797 16.77-15.188 17.711-26.477 1.0391-11.598-3.9648-22.914-13.246-29.945-14.273-10.887-34.109-16.137-59.039-15.875 1.3086-51.719 27.965-55.793 29.094-55.938 2.1641-0.24219 3.7188-2.1875 3.4805-4.3477-0.23828-2.1602-2.1836-3.7188-4.3438-3.4805-0.88672 0.097656-13.727 1.8008-23.855 16.738 4.0391-18.98 9.9922-27.945 14.223-32.055l-0.003906 0.003906c2.2461-2.6133 5.4023-4.2695 8.8281-4.6406 2.1758 0.15234 4.0625-1.4844 4.2148-3.6602 0.15234-2.1719-1.4844-4.0586-3.6602-4.2109-5.4062 0.070313-10.551 2.3281-14.258 6.2656-6.5859 6.7812-11.328 15.137-13.777 24.266v-29.531c4.957-2.3633 8.375-9.1172 8.375-17.602 0-10.605-5.293-18.594-12.312-18.594-7.0156 0-12.277 7.9805-12.277 18.609 0 8.4844 3.418 15.219 8.3711 17.602v29.551c-2.4492-9.1289-7.1914-17.484-13.777-24.266-3.707-3.9336-8.8555-6.1953-14.258-6.2656-2.168 0.17578-3.7812 2.0781-3.6055 4.2422 0.17578 2.168 2.0781 3.7812 4.2461 3.6055 3.1758 0.34766 6.1133 1.8438 8.2656 4.207 4.375 4.0352 10.562 13.012 14.703 32.531-10.137-14.957-22.992-16.68-23.875-16.777-2.1602-0.24219-4.1055 1.3164-4.3477 3.4766-0.23828 2.1602 1.3164 4.1055 3.4766 4.3477 0.28516 0.03125 27.84 3.7422 29.098 56.176-4.6094 0.26172-9.3438 0.65234-14.273 1.2656h0.003906c-30.211 3.2891-60.66 3.8516-90.973 1.6836 1.1992-52.035 27.969-56.129 29.102-56.285 2.1641-0.23828 3.7227-2.1875 3.4805-4.3477-0.23828-2.1641-2.1875-3.7188-4.3477-3.4805-0.88672 0.10156-13.723 1.8047-23.852 16.738 4.0391-18.98 9.9883-27.945 14.219-32.055h-0.003907c2.2422-2.6172 5.3984-4.2773 8.8281-4.6406 2.1758 0.15625 4.0586-1.4844 4.2148-3.6562 0.15234-2.1758-1.4844-4.0625-3.6602-4.2148-5.4062 0.070312-10.551 2.332-14.254 6.2695-6.5859 6.7852-11.328 15.137-13.777 24.266v-29.535c4.957-2.3828 8.375-9.1172 8.375-17.605 0-10.602-5.293-18.59-12.312-18.59-7.0156 0-12.289 7.9883-12.289 18.59 0 8.4883 3.418 15.223 8.3711 17.605l0.003906 29.547c-2.4531-9.1289-7.1953-17.48-13.777-24.266-3.7109-3.9375-8.8633-6.1992-14.277-6.2656-2.1641 0.17578-3.7812 2.0781-3.6055 4.2422 0.17578 2.168 2.0781 3.7812 4.2461 3.6055 3.168 0.36719 6.1016 1.8594 8.2656 4.207 4.375 4.0391 10.562 13.02 14.703 32.535-10.137-14.957-22.992-16.676-23.875-16.777v-0.003906c-1.0391-0.11719-2.082 0.1875-2.8945 0.83984-0.81641 0.65234-1.3398 1.6016-1.457 2.6406-0.23828 2.1602 1.3203 4.1094 3.4805 4.3477 0.28906 0.027344 27.695 3.7109 29.09 55.734-29.234-2.1172-58.336-5.8047-87.176-11.043-1.1797-0.22656-2.3828-0.42188-3.5859-0.57813-3.4219-0.45312-6.75-0.85547-10.031-1.2344 1.0977-52.348 27.973-56.445 29.105-56.598 2.1602-0.24219 3.7148-2.1875 3.4766-4.3477-0.24219-2.1602-2.1875-3.7188-4.3477-3.4805-0.88672 0.097656-13.723 1.8008-23.852 16.738 4.0391-18.98 9.9922-27.945 14.223-32.055l-0.003906 0.003906c2.2305-2.6328 5.3984-4.2969 8.8281-4.6367 1.0312 0.074218 2.0508-0.26563 2.8281-0.94141 0.78125-0.67969 1.2578-1.6367 1.332-2.668 0.085937-1.043-0.24609-2.0742-0.92578-2.8711-0.67578-0.79688-1.6406-1.293-2.6797-1.375-5.4062 0.074219-10.547 2.3359-14.258 6.2656-6.5859 6.7852-11.328 15.137-13.777 24.27v-29.555c4.957-2.3633 8.375-9.1172 8.375-17.602 0-10.605-5.293-18.594-12.312-18.594s-12.312 7.9883-12.312 18.594c0 8.4844 3.4219 15.223 8.375 17.602v29.555h0.003906c-2.4492-9.1328-7.1914-17.488-13.777-24.27-3.707-3.9297-8.8516-6.1914-14.254-6.2656-2.1758 0.17578-3.793 2.0781-3.6172 4.2539 0.17578 2.1719 2.082 3.793 4.2539 3.6172 3.1758 0.35156 6.1133 1.8438 8.2656 4.2031 4.375 4.0352 10.562 13.016 14.703 32.531-10.137-14.957-22.996-16.68-23.879-16.777v-0.003906c-2.1602-0.23828-4.1055 1.3203-4.3438 3.4805s1.3164 4.1055 3.4805 4.3477c0.28516 0.03125 27.691 3.7148 29.09 55.734-27.895-3.3555-56.094-3.2695-83.965 0.25391 1.2891-51.766 27.969-55.844 29.098-55.988h0.003906c2.1602-0.24219 3.7148-2.1875 3.4766-4.3477-0.24219-2.1602-2.1875-3.7188-4.3477-3.4805-0.88672 0.097656-13.723 1.8008-23.852 16.738 4.0391-18.98 9.9883-27.945 14.219-32.055l-0.003906 0.003907c2.2383-2.6367 5.4062-4.3047 8.8438-4.6562 2.1758 0.15234 4.0625-1.4844 4.2148-3.6602 0.15234-2.1719-1.4844-4.0586-3.6562-4.2109-5.4062 0.078125-10.547 2.3359-14.258 6.2656-6.5859 6.7852-11.328 15.137-13.777 24.27v-29.539c4.9531-2.3633 8.3711-9.1172 8.3711-17.602 0-10.605-5.293-18.594-12.309-18.594s-12.312 7.9883-12.312 18.594c0 8.4844 3.4219 15.223 8.375 17.602v29.555h0.003906c-2.4492-9.1328-7.1914-17.484-13.777-24.27-3.707-3.9258-8.8438-6.1836-14.242-6.2656-2.1758 0.17578-3.793 2.0781-3.6172 4.2539 0.17578 2.1719 2.082 3.793 4.2539 3.6172 3.1797 0.35156 6.1211 1.8477 8.2852 4.2031 4.375 4.0352 10.562 13.016 14.699 32.531-10.133-14.957-22.992-16.68-23.875-16.777v-0.003906c-2.1602-0.23828-4.1055 1.3203-4.3477 3.4805-0.23828 2.1602 1.3164 4.1055 3.4805 4.3477 0.28906 0.03125 28.242 3.8047 29.125 57.34-13.34 2.2148-26.195 6.7188-38.004 13.312-8.8242 5.1758-15.656 13.16-19.41 22.676-3.7539 9.5195-4.207 20.02-1.293 29.824 1.5938 5.5938 4.3359 10.793 8.0508 15.266 6.8711 8.0156 9.8125 18.676 8.0234 29.082-2.2227 11.605-5.6055 22.961-10.102 33.891-7.2891 18.566-6.9766 35.887 0.95703 51.566 0.98438 1.9414 3.3516 2.7148 5.293 1.7305 1.9375-0.98437 2.7109-3.3516 1.7266-5.293-6.8711-13.566-7.0859-28.734-0.63672-45.117 4.6953-11.434 8.2266-23.312 10.543-35.457 2.1797-12.707-1.4141-25.727-9.8008-35.516-3.0078-3.6406-5.2188-7.8711-6.4961-12.414-2.332-8.125-1.918-16.793 1.1836-24.656 3.0977-7.8633 8.707-14.48 15.957-18.828 19.285-11.445 59.734-22.789 142.91-11.809 1.0625 0.14062 2.1094 0.31641 3.1484 0.51172 10.875 2.0664 108.59 19.906 188.58 9.9727 33.062-4.0977 59.172 0.33203 75.543 12.82v0.003906c7.1289 5.4062 10.969 14.105 10.156 23.016-0.64844 8.6172-5.7539 16.266-13.461 20.168-3.0117 1.5352-6.1758 2.7383-9.4453 3.5859-11.629 3.1133-21.102 11.539-25.551 22.723-4.3125 10.633-3.2695 22.691 2.8125 32.422 1.5195 2.4141 3.1953 4.7266 5.0195 6.9219 3.5508 4.293 6.6992 8.9062 9.3984 13.777-3.0078 7.9492-6.7031 17.062-11.086 27.348-7.1445 16.672-10.816 34.629-10.793 52.766v47.934h-155.44l-1.3125-2.625h0.003906c-0.5-1.0156-1.082-1.9844-1.7383-2.9062-5.2695-6.5664-11.168-12.602-17.617-18.02-1.5195-1.2969-2.1367-3.3633-1.5742-5.2812 2.3398-8.0625 5.6328-23.281 1.3828-34.684-5.1797-13.879-26.742-11.883-39.141-9.4453-0.61328 0.13281-1.2383-0.17578-1.5-0.74609-4.7656-10.301-11.355-15.977-18.559-15.977h-0.023438c-4.1172 0-8.4336 3.5703-14.004 11.535v0.003907c-1.2461 1.7812-0.80859 4.2344 0.97266 5.4805s4.2383 0.8125 5.4844-0.97266c5.332-7.6367 7.5781-8.1641 7.5664-8.1758 5.5352 0 9.8203 7.9766 11.414 11.414l-0.003906 0.003907c1.7773 3.8672 5.9805 6.0078 10.156 5.168 12.879-2.5156 27.586-2.6641 30.254 4.4844 3.4609 9.2734 0.50391 22.613-1.5742 29.738l-0.003906-0.003906c-1.3906 4.8555 0.14062 10.074 3.9375 13.406 6.0078 5.0469 11.527 10.648 16.488 16.727 0.20703 0.28906 0.40234 0.58984 0.57812 0.89844h-69.457c0.79297-0.73438 1.5234-1.5352 2.1836-2.3945 3.668-5.2422 4.9102-11.812 3.4062-18.035-1.2773-6.5938-4.2969-12.727-8.7383-17.766-6.3711-7.3359-11.684-15.52-15.789-24.324-1.5391-3.3477-2.6914-6.8633-3.4414-10.469-2.9531-13.91-9.9688-38.363-23.781-45.801-4.8828-2.6797-10.727-2.9727-15.852-0.78516-23.758 9.3242-36.539 5.9531-36.637 5.9023-0.18359-0.050781-0.36719-0.089843-0.55469-0.12109-5.5117-1.0391-11.203-0.50781-16.43 1.5273-5.2227 2.0352-9.7734 5.4922-13.133 9.9844-4.4648 6.1484-6.8789 13.551-6.8984 21.152-0.39453 13.074-7.1602 20.035-14.309 27.402-1.6055 1.6562-3.2109 3.3125-4.7227 5.0234-3.2891 3.9727-5.3828 8.7969-6.0312 13.914-1.8125 12.121 1.1875 24.473 8.3555 34.418 0.09375 0.13281 0.20703 0.24609 0.30859 0.39453h-13.602c-2.1758 0-3.9375 1.7617-3.9375 3.9375v31.57c0 1.043 0.41797 2.043 1.1523 2.7812 0.73828 0.73828 1.7422 1.1523 2.7852 1.1523h480.61c1.0469 0 2.0469-0.41406 2.7852-1.1523 0.73828-0.73828 1.1523-1.7383 1.1523-2.7812v-31.57zm-414.44-406.46c1.5742 0 4.4375 4.0703 4.4375 10.723s-2.875 10.719-4.4375 10.719-4.4414-4.0703-4.4414-10.719 2.875-10.723 4.4414-10.723zm91.961 0c1.5742 0 4.4414 4.0703 4.4414 10.723s-2.8789 10.719-4.4414 10.719-4.4414-4.0703-4.4414-10.719 2.875-10.723 4.4414-10.723zm108.79 13.73c1.5742 0 4.4414 4.0703 4.4414 10.719 0 6.6484-2.875 10.723-4.4414 10.723-1.5664 0-4.418-4.082-4.418-10.734 0-6.6523 2.8555-10.707 4.418-10.707zm113.23-2.8555c1.5742 0 4.4414 4.0703 4.4414 10.723s-2.8789 10.719-4.4414 10.719-4.4375-4.0703-4.4375-10.719c0.003906-6.6445 2.8945-10.73 4.4375-10.73zm23.172 343.79v0.003906c-0.019531-17.074 3.4336-33.973 10.16-49.668 7.8711-18.43 17.77-43.164 20.242-56.352 0.47656-2.6445 1.5156-5.1562 3.043-7.3633 3.5781-5.0781 7.0078-4.3281 9.5977-3.1094 4.2422 2.0039 8.1602 15.586 7.3477 41.422-0.21484 6.1523 0.30469 12.305 1.5469 18.332 1.5039 7.5117 3.832 14.832 6.9453 21.832 5.3281 11.359 8.3359 23.672 8.8477 36.211l1.5742 46.645h-69.273zm-387.53 42.996c-5.9766-8.2344-8.5039-18.477-7.0352-28.547 0.41797-3.6406 1.8516-7.0898 4.1367-9.957 1.457-1.6328 2.9883-3.2031 4.5195-4.7852 7.5117-7.7383 16.02-16.512 16.531-32.637l-0.003906-0.003907c-0.023438-5.9414 1.8203-11.742 5.2656-16.586 4.1562-5.6875 10.832-8.9922 17.875-8.8477 1.375 0.003906 2.75 0.10156 4.1133 0.29297 2.4023 0.59766 16.719 3.457 41.406-6.2344 2.9766-1.3164 6.3945-1.168 9.2461 0.39453 11.75 6.3281 18.133 32.605 19.812 40.504 0.87109 4.1836 2.2148 8.2578 4 12.141 4.4219 9.4805 10.141 18.293 16.996 26.191 3.5273 3.9805 5.9258 8.8281 6.9531 14.043 1.0742 4.0469 0.35937 8.3594-1.9688 11.84-2.9844 3.9375-8.9219 6.3516-17.297 7.1367h-115.02c-3.7891-0.003906-7.3438-1.8477-9.5273-4.9453zm456.97 36.5h-472.75v-23.699h472.74z"/>
  <path d="m447.54 411.18c8.6328-5.4258 19.5-5.8516 28.531-1.1172 4.6641 2.5547 9.9023 3.8867 15.223 3.8711 8.6172-0.27344 16.961-3.0586 24.012-8.0195 0.85938-0.61328 1.4375-1.5508 1.6016-2.5938 0.16406-1.043-0.10156-2.1094-0.73438-2.9609-0.62891-0.84766-1.5742-1.4062-2.625-1.5469-1.0469-0.14453-2.1055 0.14062-2.9414 0.78906-0.15625 0.11719-15.906 11.617-30.758 3.543-5.7148-3.043-12.141-4.5-18.609-4.2227-6.4688 0.27734-12.746 2.2773-18.18 5.7969-1.7852 1.2383-2.2266 3.6914-0.98828 5.4766 1.2422 1.7891 3.6914 2.2305 5.4805 0.98828z"/>
  <path d="m484.23 570.18c-14.754 8.0273-30.605-3.4414-30.758-3.543-0.82812-0.69141-1.9062-1.0156-2.9805-0.88672-1.0742 0.125-2.0508 0.6875-2.6953 1.5508-0.64844 0.86719-0.91016 1.9609-0.72656 3.0273 0.18359 1.0664 0.80078 2.0078 1.6992 2.6055 7.0469 4.9648 15.395 7.75 24.012 8.0195 5.3164 0.019531 10.555-1.3125 15.219-3.8711 4.4336-2.3438 9.4102-3.4766 14.422-3.2773 5.0156 0.19531 9.8867 1.7148 14.121 4.4062 1.7891 1.2383 4.2383 0.79297 5.4766-0.99609 1.2383-1.7852 0.79297-4.2383-0.99219-5.4766-5.4375-3.5156-11.719-5.5117-18.188-5.7852-6.4688-0.27734-12.895 1.1836-18.609 4.2266z"/>
  <path d="m246.52 350.5c-11.809 6.4102-24.582-2.7891-24.703-2.8828-0.83203-0.69922-1.9102-1.0273-2.9883-0.90234s-2.0586 0.6875-2.707 1.5586c-0.64844 0.86719-0.91016 1.9648-0.72266 3.0352 0.19141 1.0664 0.80859 2.0117 1.7188 2.6055 5.9453 4.1875 12.992 6.5391 20.262 6.7656 4.5078 0.011718 8.9453-1.1133 12.902-3.2812 3.5547-1.8828 7.5469-2.7891 11.566-2.6328 4.0234 0.15625 7.9297 1.375 11.328 3.5273 1.7891 1.2383 4.2422 0.78906 5.4766-1 1.2383-1.7852 0.79297-4.2383-0.99609-5.4766-4.6016-2.9766-9.9141-4.668-15.391-4.8984-5.4727-0.23047-10.91 1.0039-15.746 3.582z"/>
  <path d="m276.96 556.68c-2.9492-1.4727-5.6602-12.566-6.2539-21.648-0.89453-6.9609-4.6875-13.219-10.441-17.234-10.012-7.0859-24.586 1.6211-26.215 2.6367-1.8477 1.1523-2.4102 3.582-1.2617 5.4336 1.1523 1.8477 3.5859 2.4141 5.4336 1.2617 2.9922-1.8555 12.621-6.3477 17.508-2.8984 3.8438 2.6445 6.4258 6.7539 7.1406 11.363 0.35938 5.5391 2.1797 23.934 10.578 28.141l0.003906 0.003907c1.9453 0.97656 4.3125 0.19141 5.293-1.7539 0.97656-1.9453 0.19531-4.3164-1.75-5.293z"/>
  <path d="m353.33 577.33h0.082031c1.0469-0.019531 2.0391-0.45703 2.7617-1.2109 0.72656-0.75391 1.1211-1.7617 1.0977-2.8086-0.28125-13.492-6.1562-19.191-6.8242-19.793-1.5859-1.4297-4.0234-1.3203-5.4766 0.24219-1.4609 1.582-1.4023 4.0391 0.13672 5.543 0.16797 0.16016 4.082 4.1055 4.2891 14.168h0.003906c0.042968 2.1445 1.7891 3.8555 3.9297 3.8594z"/>
  <path d="m621.3 541.44c-1.6445-3.7617-2.6484-7.7734-2.9727-11.867-1.7734-19.559-6.4922-30.309-14.016-31.926-8.4453-1.8477-16.355 13.242-20.309 22.375v0.003906c-0.87109 1.9961 0.042969 4.3164 2.0352 5.1836 1.9961 0.87109 4.3164-0.039063 5.1875-2.0352 3.8047-8.7891 9.3945-17.273 11.414-17.805 2.2852 0.49219 6.2578 7.543 7.832 24.93 0.40234 4.9727 1.6328 9.8398 3.6445 14.406 1.4219 3.7422 3.793 7.0508 6.8828 9.5977 0.66406 0.47656 1.457 0.73047 2.2734 0.73047 1.7148 0.003906 3.2344-1.1055 3.7578-2.7383 0.51953-1.6367-0.074219-3.418-1.4766-4.4102-1.9297-1.7617-3.3906-3.9766-4.2539-6.4453z"/>
 </g>
</svg>