<?xml version="1.0" encoding="UTF-8"?>
<!-- The Best Svg Icon site in the world: iconSvg.co, Visit us! https://iconsvg.co -->
<svg fill="#000000" width="800px" height="800px" version="1.1" viewBox="144 144 512 512" xmlns="http://www.w3.org/2000/svg">
 <path d="m203.51 354.24h5.4922v242.25c0 2.7812 2.2539 5.0391 5.0391 5.0391h226.34c2.7852 0 5.0391-2.2539 5.0391-5.0391l-0.003907-100.22 89.203-89.195c5.5039 4.5352 12.348 7 19.57 7 8.2461 0 15.996-3.2109 21.82-9.0391l23.98-23.98c1.9688-1.9688 1.9688-5.1562 0-7.125l-82.723-82.719c-1.8906-1.8906-5.2344-1.8906-7.125 0l-23.98 23.98c-5.832 5.8281-9.0391 13.578-9.0391 21.82 0 7.2227 2.4648 14.07 7 19.574l-38.711 38.711v-41.047h5.4922c2.7852 0 5.0391-2.2539 5.0391-5.0391v-45.742c0-2.7812-2.2539-5.0391-5.0391-5.0391h-12.754c-2.7891-55.559-51.48-99.945-110.94-99.945-59.457 0-108.15 44.391-110.94 99.949l-12.758-0.003906c-2.7852 0-5.0391 2.2539-5.0391 5.0391v45.742c0.003906 2.7812 2.2539 5.0352 5.0391 5.0352zm231.83 237.21h-216.26v-157.7c12.398-1.168 23.898-6.6133 32.684-15.488 9.9688 10.07 23.418 15.738 37.723 15.738 14.301 0 27.758-5.6719 37.723-15.738 9.9688 10.07 23.426 15.738 37.727 15.738 14.301 0 27.754-5.6719 37.723-15.738 8.7852 8.875 20.285 14.32 32.684 15.488zm57.945-269.14 20.418-20.422 75.598 75.598-20.418 20.418c-3.9258 3.9258-9.1406 6.0859-14.695 6.0859-5.5508 0-10.766-2.1602-14.691-6.0859l-46.207-46.207c-3.9258-3.9258-6.0859-9.1445-6.0859-14.695-0.003906-5.5469 2.1562-10.766 6.082-14.691zm-2.1367 41.496 36.242 36.242-81.977 81.969v-72.48zm-55.809 59.816c-11.258-1.3164-21.535-7.0039-28.738-16.074-0.95312-1.2031-2.4102-1.9023-3.9453-1.9023s-2.9883 0.69922-3.9453 1.9023c-8.2695 10.41-20.582 16.375-33.777 16.375-13.199 0-25.512-5.9688-33.781-16.375-1.918-2.4062-5.9844-2.4062-7.8906 0-8.2656 10.41-20.574 16.375-33.777 16.375-13.195 0-25.504-5.9688-33.777-16.375-1.918-2.4062-5.9844-2.4062-7.8906 0-7.2031 9.0703-17.48 14.762-28.738 16.074v-69.383h216.26zm-108.13-215.07c53.887 0 97.918 39.887 100.73 89.871h-28.109c-2.7461-35.691-34.227-63.957-72.621-63.957-38.391 0-69.871 28.262-72.617 63.957h-28.109c2.8125-49.984 46.848-89.871 100.73-89.871zm62.543 89.871h-125.08c2.7383-30.133 29.719-53.879 62.535-53.879 32.824 0 59.801 23.746 62.543 53.879zm-181.2 10.078h237.32v35.664h-237.32z"/>
</svg>