<?xml version="1.0" encoding="UTF-8"?>
<!-- The Best Svg Icon site in the world: iconSvg.co, Visit us! https://iconsvg.co -->
<svg fill="#000000" width="800px" height="800px" version="1.1" viewBox="144 144 512 512" xmlns="http://www.w3.org/2000/svg">
 <g>
  <path d="m615.17 256.16v-12.594h-141.77v-3.2891c0-15.367-12.504-27.871-27.875-27.871-5.6445 0-10.887 1.6992-15.281 4.5898v-0.99219c0-15.371-12.504-27.875-27.875-27.875-6.6211 0-12.707 2.332-17.496 6.2031-4.2461-9.9766-14.148-16.992-25.66-16.992-11.512 0-21.41 7.0195-25.66 16.992-4.793-3.875-10.871-6.2031-17.496-6.2031-15.371 0-27.875 12.504-27.875 27.875v0.98828c-4.3945-2.8906-9.6367-4.5898-15.281-4.5898-15.371 0-27.875 12.504-27.875 27.871v56.262c0 15.371 12.504 27.875 27.875 27.875 5.6445 0 10.887-1.6914 15.281-4.5898v0.99219c0 15.371 12.504 27.875 27.875 27.875 6.6211 0 12.707-2.332 17.492-6.2031 4.2461 9.9766 14.152 16.992 25.66 16.992 11.508 0 21.41-7.0195 25.66-16.992 4.7852 3.875 10.871 6.2031 17.492 6.2031 15.367 0 27.875-12.504 27.875-27.875v-0.99219c4.3945 2.8906 9.6367 4.5898 15.281 4.5898 15.371 0 27.875-12.504 27.875-27.875v-4.4141h141.77v-12.594l-141.76-0.003906v-23.367h141.77zm-342.27 55.656c-8.4219 0-15.281-6.8516-15.281-15.281l0.003906-56.258c0-8.4219 6.8516-15.277 15.281-15.277 8.4297 0 15.281 6.8516 15.281 15.277v56.262c-0.003906 8.4219-6.8555 15.277-15.285 15.277zm43.156 24.281c-8.4219 0-15.281-6.8516-15.281-15.281l0.003906-104.81c0-8.4219 6.8555-15.281 15.281-15.281 8.4219 0 15.281 6.8555 15.281 15.281v104.81c-0.003906 8.4297-6.8555 15.281-15.285 15.281zm58.434-4.4961c0 8.4219-6.8516 15.281-15.281 15.281-8.4297 0-15.281-6.8555-15.281-15.281v-126.38c0-8.4219 6.8516-15.281 15.281-15.281 8.4297 0 15.281 6.8555 15.281 15.281zm43.156-10.785c0 8.4219-6.8516 15.281-15.281 15.281-8.4297 0-15.281-6.8516-15.281-15.281v-104.81c0-8.4219 6.8516-15.281 15.281-15.281 8.4297 0 15.281 6.8555 15.281 15.281zm43.156-24.277c0 8.4219-6.8516 15.281-15.281 15.281-8.4297 0-15.281-6.8516-15.281-15.281v-56.262c0-8.4219 6.8516-15.277 15.281-15.277 8.4297 0 15.281 6.8516 15.281 15.277z"/>
  <path d="m288.19 414.39v26.973c0 15.371 12.504 27.875 27.875 27.875 5.6445 0 10.887-1.6992 15.281-4.5898v4.1328c0 15.371 12.504 27.875 27.875 27.875s27.875-12.504 27.875-27.875v-4.1328c4.3945 2.8906 9.6367 4.5898 15.281 4.5898 15.367 0 27.875-12.504 27.875-27.875v-75.52h-12.594v75.52c0 8.4297-6.8516 15.281-15.281 15.281s-15.281-6.8516-15.281-15.281v-10.344h-12.594v37.762c0 8.4297-6.8516 15.281-15.281 15.281s-15.281-6.8516-15.281-15.281v-27.418l0.003906-70.117h-12.594c0 8.4219-6.8516 15.277-15.281 15.277-8.4297 0-15.281-6.8516-15.281-15.277h-12.594c0 15.367 12.504 27.871 27.875 27.871 5.6445 0 10.887-1.6914 15.281-4.5898v46.84c0 8.4297-6.8516 15.281-15.281 15.281-8.4297 0-15.281-6.8516-15.281-15.281v-26.973z"/>
  <path d="m451.82 556.49v-9.5781c10.02-2.2578 17.527-11.23 17.527-21.93 0-12.395-10.086-22.48-22.48-22.48h-179.36c-12.395 0-22.48 10.086-22.48 22.48 0 12.09 9.5977 21.984 21.578 22.461v8.7656c-29.438 4.1406-51.695 29.242-51.695 59.574h12.594c0-25.598 20.059-46.48 45.66-47.539l6.0352-0.25v-33.129h-11.695c-5.4531 0-9.8828-4.4336-9.8828-9.8828 0-5.4531 4.4336-9.8828 9.8828-9.8828h179.36c5.4531 0 9.8828 4.4336 9.8828 9.8828 0 5.4531-4.4336 9.8828-9.8828 9.8828h-7.6484v33.031l5.8281 0.43359c24.711 1.832 44.066 22.68 44.066 47.457h12.594c0.011718-29.363-21.469-54.355-49.887-59.297z"/>
 </g>
</svg>