<?xml version="1.0" encoding="UTF-8"?>
<!-- The Best Svg Icon site in the world: iconSvg.co, Visit us! https://iconsvg.co -->
<svg fill="#000000" width="800px" height="800px" version="1.1" viewBox="144 144 512 512" xmlns="http://www.w3.org/2000/svg">
 <path d="m477.66 550.76c1.0195 2.5898-0.25 5.5156-2.8398 6.5391-0.60938 0.23438-1.2344 0.34766-1.8516 0.34766-2.0078 0-3.9062-1.207-4.6875-3.1875-3.5-8.8711-9.2695-15.285-15.445-17.16-2.6602-0.8125-4.1641-3.625-3.3555-6.2891 0.8125-2.6602 3.6172-4.1641 6.2891-3.3555 9.2227 2.8047 17.203 11.23 21.891 23.105zm166.95 22.785c0 35.031-22.215 63.531-49.52 63.531-20.348 0-37.855-15.844-45.461-38.41-7.8906 6.8164-17.383 10.805-27.59 10.805-10.207 0-19.699-3.9883-27.59-10.809-7.6055 22.57-25.113 38.414-45.461 38.414-27.305 0-49.516-28.5-49.516-63.531s22.211-63.531 49.516-63.531c10.207 0 19.699 3.9883 27.59 10.809 7.6055-22.57 25.113-38.414 45.461-38.414 20.352 0 37.859 15.844 45.465 38.41 7.8906-6.8164 17.383-10.805 27.586-10.805 27.309 0 49.52 28.5 49.52 63.531zm-156.18 0c0-29.477-17.691-53.457-39.438-53.457-21.746 0-39.438 23.98-39.438 53.457 0 29.477 17.691 53.457 39.438 53.457 21.742 0 39.438-23.98 39.438-53.457zm57.148 0c0-17.133 5.3359-32.676 13.961-44.113-5.1445-21.418-20-36.949-37.496-36.949-17.496 0-32.348 15.535-37.496 36.953 8.6211 11.438 13.957 26.977 13.957 44.109 0 4.7891-0.44922 9.4414-1.2383 13.93 6.7773 7.4414 15.395 11.922 24.773 11.922 9.3828 0 17.996-4.4766 24.773-11.918-0.78125-4.4922-1.2344-9.1406-1.2344-13.934zm88.961 0c0-29.477-17.691-53.457-39.445-53.457-21.746 0-39.438 23.98-39.438 53.457 0 29.477 17.691 53.457 39.438 53.457 21.754 0 39.445-23.98 39.445-53.457zm-10.766-22.785c-4.6875-11.875-12.668-20.301-21.891-23.105-2.668-0.80859-5.4727 0.69531-6.2891 3.3555-0.80859 2.6602 0.69531 5.4766 3.3555 6.2891 6.1758 1.875 11.945 8.2891 15.445 17.16 0.78125 1.9844 2.6797 3.1875 4.6875 3.1875 0.61328 0 1.2383-0.11328 1.8516-0.34766 2.5898-1.0234 3.8594-3.9492 2.8398-6.5391zm-218.42-49.75c-1.6641 8.625-9.0664 14.883-17.609 14.883h-2.3672v58.199c0 0.33984-0.035156 0.67969-0.10156 1.0117-1.3555 6.6094-9.2539 19.09-29.418 19.09-2.8672-0.019531-5.125-2.2344-5.1211-5.0469 0.003906-2.7812 2.2617-5.0273 5.0391-5.0273h0.082031c9.2109 0 14.121-3.1758 16.734-6.1211h-33.605c-2.7812 0-5.0391-2.2539-5.0391-5.0391 0-2.7852 2.2539-5.0391 5.0391-5.0391h36.316l-0.003906-52.027h-2.5547c-8.4961 0-15.895-6.2188-17.59-14.789l-2.9297-14.785-2.9805-0.17969-0.92188 4.5938c-1.6602 8.25-8.9727 14.238-17.391 14.238h-2.25v37.969c0 0.33984-0.035157 0.67969-0.10156 1.0117-1.3555 6.6094-9.25 19.094-29.418 19.094-2.6797-0.042969-5.125-2.2305-5.1211-5.0469 0.003907-2.7812 2.2617-5.0273 5.0391-5.0273 0.015625 0.003906 0.054687 0 0.082031 0 9.207 0 14.113-3.1758 16.727-6.1211h-33.598c-2.7812 0-5.0391-2.2539-5.0391-5.0391s2.2539-5.0391 5.0391-5.0391h36.316v-31.805h-2.4219c-8.375 0-15.68-5.9531-17.371-14.148l-3.0625-14.852c-21.977-8.4531-41.578-22.109-57.258-40.277-16.508-19.133-26.879-40.734-30.828-64.203-2.3711-14.098-5.0078-29.098-8.8125-43.844l-9.9922-38.699c-3.7148-5.1797-6.5078-10.953-8.3125-17.043-10.391 1.5352-17.457 5.5273-17.574 5.5938-0.78906 0.45703-1.6641 0.68359-2.5391 0.68359-1.0312 0-2.0625-0.31641-2.9375-0.94531-1.6094-1.1602-2.4023-3.1523-2.0039-5.0938l1.4688-7.1992c2.6211-12.867 11.879-22.969 23.969-27.309 1.457-4.5898 3.4453-8.9141 5.9102-12.891-7.7617-4.1484-13.156-12.656-13.156-22.566 0-13.949 10.586-25.297 23.602-25.297 1.3398 0 2.6602 0.11719 3.957 0.35547 3.8555-8.6328 12.004-14.309 21.254-14.309 6.8164 0 13.102 3.0586 17.527 8.3672 2.4688-0.91797 5.0664-1.3906 7.6836-1.3906 13.012 0 23.602 11.348 23.602 25.297 0 6.0859-2.0977 11.598-5.4492 15.969 11.195 9.375 18.75 23.312 19.965 39.133 0.39062 5.0742 0.90625 10.48 2.0391 15.652l1.1055 5.0195c3.5898 16.336 15.023 29.742 30.586 35.863l12.266 4.8242c17.363 6.8281 35.621 10.555 54.27 11.066l8.8906 0.24609c12.32 0.39453 24.281-5.3008 31.855-15.094l44.93-58.094c2.2305-2.8867 5.4531-4.7148 9.0742-5.1602 3.5859-0.44922 7.125 0.55078 9.9492 2.7891 22.805 18.051 37.492 37.785 34.922 74.914 3.9648 4.4336 7.9258 11.293 7.6953 20.84-0.36719 15.281-11.504 32.742-33.098 51.922-16.676 50.195-47.523 80.23-91.746 89.328zm-226.84-239.04c-0.36328-3.1758-0.47266-6.3984-0.30469-9.6289 0.039063-0.75 0.15625-1.4727 0.22266-2.2148-5.2344 3.4297-9.207 8.4648-11.023 14.543 3.0977-1.043 6.8672-2.0352 11.105-2.6992zm14.484-45.43c10.5-11.574 25.555-18.516 41.965-17.648 8.1484 0.42188 15.824 2.7734 22.645 6.5938 2.2266-2.7148 3.6211-6.3086 3.6211-10.289 0-8.3945-6.0664-15.219-13.523-15.219-2.3438 0-4.5781 0.66797-6.6445 1.9883-1.1719 0.74609-2.6016 0.98047-3.9453 0.64062-1.3477-0.33984-2.4961-1.2188-3.1719-2.4336-2.5039-4.4961-6.7852-7.1758-11.453-7.1758-6.2227 0-11.613 4.7578-13.113 11.57-0.32812 1.4883-1.3086 2.75-2.6758 3.4297-1.3594 0.67969-2.9609 0.70703-4.3477 0.070312-1.6133-0.73828-3.3242-1.1133-5.0781-1.1133-7.457 0-13.523 6.8281-13.523 15.219 0.003906 6.7031 3.8945 12.34 9.2461 14.367zm146.1 268.96c-11.113-0.76172-21.918-2.7266-32.285-5.7891l1.8711 9.0742c0.73047 3.543 3.8867 6.1094 7.5039 6.1094h14.746c3.6367 0 6.793-2.5898 7.5117-6.1484zm64.277-10.359c43.098-7.7031 71.809-35.344 87.781-84.492 0.28125-0.85938 0.78906-1.6328 1.4727-2.2305 24.992-21.922 30.496-36.848 30.707-45.504 0.066407-2.7305-0.41016-5.2812-1.332-7.668-3.2305 7.1289-9.1523 16.34-19.469 21.777-0.74609 0.39453-1.5508 0.58203-2.3438 0.58203-1.8125 0-3.5586-0.97656-4.4609-2.6875-1.3008-2.4609-0.35547-5.5078 2.1094-6.8086 12.961-6.832 17.141-22.441 17.676-24.672 0.6875-8.1875 0.46875-15.398-0.53906-21.875-2.2188 5.3711-5.75 11.059-11.43 16.148-0.96094 0.86328-2.1602 1.2852-3.3594 1.2852-1.3828 0-2.7539-0.56641-3.7539-1.6758-1.8555-2.0742-1.6836-5.2578 0.39453-7.1133 13.219-11.844 11.629-28.062 11.594-28.449-2.0156-3.7383-4.3906-7.2266-7.1211-10.527-1.8555 6.0586-5.5664 14.066-12.992 20.375-0.94922 0.80469-2.1055 1.1992-3.2617 1.1992-1.4258 0-2.8438-0.60156-3.8359-1.7773-1.8047-2.1211-1.543-5.3008 0.57422-7.1016 8.6953-7.3867 10.754-18.324 11.176-21.43-2.6289-2.4336-5.4297-4.8164-8.4219-7.1836-0.69922-0.54688-1.5547-0.79297-2.4766-0.6875-0.92578 0.11328-1.75 0.58203-2.3203 1.3203l-44.93 58.094c-9.5352 12.328-24.562 19.461-40.102 19l-8.8906-0.24609c-19.816-0.54297-39.227-4.5-57.68-11.758l-12.266-4.8242c-18.695-7.3516-32.43-23.457-36.738-43.074l-1.1055-5.0195c-1.2695-5.7773-1.832-11.605-2.2461-17.039-1.7617-22.887-19.531-40.992-41.332-42.117-0.72656-0.035156-1.4531-0.054687-2.1719-0.054687-23.203 0-42.723 19.27-44.004 43.961-0.57422 11.125 2.7188 22.094 9.2656 30.887 0.39063 0.52344 0.67578 1.1172 0.83984 1.75l10.234 39.633c3.9102 15.133 6.5859 30.375 8.9961 44.691 3.6367 21.625 13.23 41.574 28.52 59.293 23.887 27.68 57.551 44.172 94.793 46.434l15.797 0.95312c2.2891 0.13672 4.1953 1.8008 4.6406 4.0508l3.6836 18.598c0.76562 3.8672 4.0078 6.6719 7.707 6.6719h15c3.7188 0 6.9648-2.8242 7.7148-6.7148l3.8516-19.957c0.38672-2.0547 2.0039-3.6445 4.0547-4.0156zm-188.21-242.68c-4.2617-0.21875-7.8945 3.0547-8.1133 7.3164-0.21875 4.2617 3.0547 7.8945 7.3164 8.1133 4.2617 0.21875 7.8945-3.0547 8.1133-7.3164 0.21875-4.2617-3.0547-7.8945-7.3164-8.1133zm222.16 140.32-47.754-18.672c-2.5938-1.0117-5.5117 0.26953-6.5273 2.8555-1.0117 2.5938 0.26562 5.5156 2.8555 6.5273l47.754 18.672c1.3086 0.51172 2.2812 1.582 2.6719 2.9336 0.39062 1.3516 0.13281 2.7734-0.70703 3.9023l-9.4258 12.715c-13.285 17.906-36.758 26.316-58.453 20.922-13.816-3.4375-26.742-9.5508-38.414-18.164-2.2383-1.6523-5.3906-1.1758-7.0469 1.0625-1.6523 2.2383-1.1758 5.3906 1.0625 7.043 10.188 7.5195 21.289 13.207 33.043 17.145-7.9102 1.5664-16.18 1.4688-24.207-0.53516-42.133-10.484-62.852-42.969-63.059-43.297-1.4727-2.3555-4.5703-3.0781-6.9375-1.6094-2.3594 1.4688-3.0859 4.5664-1.6172 6.9297 0.91406 1.4727 22.941 36.242 69.18 47.758 5.1602 1.2852 10.41 1.9023 15.625 1.9023 10.27 0 20.422-2.4141 29.578-6.9141 1.9922 0.18359 3.9883 0.35938 5.9805 0.35938 20.648 0 40.836-9.7305 53.359-26.605l9.4258-12.715c2.7227-3.6719 3.5586-8.2969 2.293-12.691-1.2539-4.3867-4.4219-7.8633-8.6797-9.5234z"/>
</svg>