<?xml version="1.0" encoding="UTF-8"?>
<!-- The Best Svg Icon site in the world: iconSvg.co, Visit us! https://iconsvg.co -->
<svg fill="#000000" width="800px" height="800px" version="1.1" viewBox="144 144 512 512" xmlns="http://www.w3.org/2000/svg">
 <g>
  <path d="m400 325.06c-31.703 0-57.496 25.793-57.496 57.496 0 31.703 25.789 57.496 57.496 57.496 31.703 0 57.496-25.793 57.496-57.496-0.003906-31.703-25.793-57.496-57.496-57.496zm0 104.91c-26.145 0-47.418-21.273-47.418-47.422-0.003906-26.145 21.273-47.418 47.418-47.418s47.418 21.273 47.418 47.418c0 26.148-21.273 47.422-47.418 47.422z"/>
  <path d="m583.89 527.34v-144.79c0-101.4-82.492-183.89-183.89-183.89s-183.89 82.492-183.89 183.89c0 101.4 82.492 183.89 183.89 183.89 45.121 0 87.918-16.23 121.52-45.879v6.7773c-2.4648 0.32812-4.3945 2.3555-4.3945 4.9102v27.711c0 2.7812 2.2539 5.0391 5.0391 5.0391h8.1836l4.7734 32.227c0.36719 2.4648 2.4844 4.2969 4.9844 4.2969h25.211c2.5 0 4.6211-1.832 4.9844-4.3008l4.7734-32.227h8.1836c2.7852 0 5.0391-2.2539 5.0391-5.0391v-27.711c0-2.5586-1.9375-4.5898-4.4102-4.9102zm-183.89-276.38c-72.566 0-131.6 59.035-131.6 131.6 0 72.562 59.035 131.6 131.6 131.6 54.695 0 101.69-33.547 121.52-81.137v73.879c-0.070313 0.0625-0.16016 0.082031-0.22656 0.14453-32.637 31.809-75.715 49.328-121.3 49.328-95.844 0-173.81-77.973-173.81-173.81 0-95.844 77.973-173.81 173.81-173.81 95.844 0 173.81 77.973 173.81 173.81v144.66h-42.215v-144.66c0-72.562-59.035-131.6-131.6-131.6zm121.52 131.6c0 67.008-54.516 121.52-121.52 121.52-67.012 0.003906-121.53-54.516-121.53-121.52 0-67.008 54.516-121.52 121.53-121.52 67.008 0 121.52 54.516 121.52 121.52zm39.453 208.89h-16.52l-3.918-26.449h24.355zm17.25-36.523h-51.02v-17.633h51.02z"/>
 </g>
</svg>