<?xml version="1.0" encoding="UTF-8"?>
<!-- The Best Svg Icon site in the world: iconSvg.co, Visit us! https://iconsvg.co -->
<svg fill="#000000" width="800px" height="800px" version="1.1" viewBox="144 144 512 512" xmlns="http://www.w3.org/2000/svg">
 <path d="m623.31 404.62-4.7852-4.5352c-16.398-15.523-32.582-26.258-48.379-32.121 22.066-19.086 32.879-44.266 33.391-45.473l2.5625-6.0742-6.1875-2.2812c-19.828-7.3164-37.891-10.785-53.953-10.516 5.8008-13.73 9.6562-31.32 10.277-53.906l0.17578-6.5898-6.5938 0.12109c-1.5234 0.03125-28.293 0.77734-53.852 13.738 1.875-28.762-8.0977-53.773-8.5859-54.977l-2.4844-6.1055-5.9844 2.7617c-18.801 8.6719-33.816 18.746-44.918 30.016-9.2305-25.613-26.301-43.664-27.316-44.719l-4.5742-4.7461-4.5352 4.7852c-15.531 16.402-26.227 32.547-32.094 48.289-19.074-22.035-44.223-32.84-45.434-33.348l-6.0742-2.5625-2.2812 6.1875c-7.3086 19.82-10.785 37.875-10.516 53.934-14.773-6.1953-32.781-9.6328-53.984-10.211l-6.5938-0.17969 0.12109 6.5938c0.011718 0.52344 0.82031 27.852 13.93 53.82-28.824-1.9102-53.887 8.0977-55.09 8.5898l-6.1055 2.4844 2.7617 5.9844c8.8477 19.184 19.16 34.41 30.703 45.574-14.863 6.0664-30.059 16.379-45.445 30.949l-4.793 4.5352 4.75 4.5742c1.0742 1.0312 20.859 19.77 48.492 28.598-12.172 11.613-22.844 27.789-31.762 48.426l-2.6133 6.0508 6.168 2.3359c1.0195 0.38281 20.723 7.7227 45.047 7.7227 2.0039 0 4.082-0.125 6.1445-0.23828-11.453 24.848-12.172 49.75-12.176 50.25l-0.12109 6.5938 6.5938-0.17578c22.934-0.62891 42.164-4.5742 57.559-11.77-0.52344 17.004 3.3555 36.23 11.754 57.43l2.4297 6.1367 6.0117-2.7109c1.082-0.48828 23.785-10.891 41.992-31.383 6.1055 14.57 16.32 29.461 30.633 44.582l4.5352 4.7852 4.5742-4.7461c1.0625-1.1094 19.824-20.918 28.633-48.566 11.617 12.188 27.809 22.867 48.461 31.805l6.0508 2.6211 2.3359-6.1719c0.41406-1.0938 8.9141-23.949 7.5664-50.879 24.359 11.215 48.648 11.863 50.094 11.895l6.5938 0.12109-0.17578-6.5938c-0.67578-24.676-5.2305-43.383-11.949-57.609 1.0938 0.039062 2.1602 0.13672 3.2695 0.13672 16.238 0 34.469-3.9766 54.418-11.875l6.1328-2.4297-2.707-6.0117c-0.48438-1.0664-10.641-23.262-30.656-41.359 25.156-9.3164 42.812-26 43.82-26.973zm-34.344-80.973c-5.0039 9.4258-16.402 27.77-34.062 40.184-4.2578-0.73438-8.4805-1.1367-12.664-1.1367-16.172 0-29.422 5.457-39.699 12.262-3.5078-0.73047-7.082-1.7422-10.707-3.0195l47.715-19.418-4.7422-11.664-49.238 20.035c1.1602-3.3711 2.7344-7.1992 4.8359-11.199 15.73-2.9727 35.141-11.367 48.812-33.094 14.359-1.4688 31.039 0.85938 49.75 7.0508zm-176.36 161.85c3.6562-0.5625 7.2461-1.3242 10.727-2.3516-1.3398 2.6602-2.75 5.793-4.0742 9.3242-2.0703-2.375-4.2812-4.6953-6.6523-6.9727zm-28.84 5.8164c-0.87109-2.3594-1.8281-4.7188-2.8984-7.0898 2.9023 0.69531 5.8477 1.2461 8.8555 1.6211-1.8516 1.5664-3.8594 3.3828-5.957 5.4688zm-1.5195-179.16c4.3438 4.5391 8.4727 7.9648 11.559 10.27-5.793 0.43359-11.418 1.4453-16.812 3.0273 2.082-4.457 3.8359-8.8906 5.2539-13.297zm17.754 161.82c-38.395 0-69.633-31.23-69.633-69.625 0-38.398 31.234-69.637 69.633-69.637 38.395 0 69.633 31.234 69.633 69.637-0.003906 38.387-31.238 69.625-69.633 69.625zm71.504-110.08c-2.7461-4.8398-5.9844-9.3555-9.6172-13.527 3.2812 0.4375 7.5078 0.83203 12.438 0.83203 0.47266 0 0.97656-0.011718 1.4766-0.019531-2.0312 4.8672-3.4062 9.2734-4.2969 12.715zm-21.531-24.703c-3.6562-2.8125-7.5117-5.3555-11.617-7.5273 4.0547-1.4727 7.9297-3.0977 11.582-4.9062-0.22266 4.0156-0.19922 8.168 0.035156 12.434zm-32.043-25.188c2.0742 4.8359 4.2539 8.8047 6 11.688-4.75-1.4492-9.6914-2.4688-14.766-3.0312 3.1641-2.8203 6.0859-5.6992 8.7656-8.6562zm-70.074 26.816c0.5-3.6289 0.90234-8.5234 0.81641-14.168 5.4141 2.2656 10.262 3.707 13.852 4.5898-5.2344 2.6914-10.164 5.875-14.668 9.5781zm-17.668 12.012c1.9492 0 4.0117-0.17578 6.0312-0.28125-2.7188 3.3438-5.1406 6.9375-7.3164 10.688-1.3789-3.7031-2.8867-7.2539-4.5508-10.617 1.9141 0.10547 3.8242 0.21094 5.8242 0.21094h0.011719zm-8.5547 26.664c-1.5234 4.793-2.5742 9.7773-3.1953 14.902-2.1172-2.6914-4.8906-5.8945-8.3438-9.2461 4.6484-1.9062 8.5234-3.9062 11.539-5.6562zm-3.293 34.148c0.50391 4.4375 1.3945 8.7461 2.5781 12.941-2.957-1.5625-6.6133-3.2812-10.852-4.875 2.8203-2.457 5.5742-5.1641 8.2734-8.0664zm15.051 38.715c-1.0625-0.03125-2.1758-0.14453-3.2188-0.14453-1.3047 0-2.5273 0.097656-3.793 0.13672 0.94531-2.1445 1.8555-4.3477 2.6914-6.6211 1.332 2.2734 2.7734 4.4922 4.3203 6.6289zm14.91 15.832c3.5586 2.8828 7.3594 5.457 11.367 7.7227-3.2383 1.0625-7.0078 2.5039-11.023 4.4023 0.17188-4.5664-0.023437-8.6641-0.34375-12.125zm101.48 1.4375c-0.054687 2.1953 0 4.3281 0.074219 6.457-1.9102-0.84766-3.875-1.6367-5.8789-2.3945 1.9961-1.2656 3.9258-2.625 5.8047-4.0625zm23.355-27.895c1.1016 3.4922 2.6445 7.6719 4.7852 12.184-1.2578-0.054687-2.4727-0.085937-3.6016-0.085937-3.4219 0-6.4727 0.19531-9.1523 0.45703 3.0117-3.9258 5.6875-8.1133 7.9688-12.555zm8.5195-28.078c1.8438 1.9844 3.7188 3.8594 5.6289 5.6328-2.3633 0.91797-4.7266 1.9062-7.0977 3.0195 0.63281-2.8398 1.1367-5.7227 1.4688-8.6523zm-0.10156-19.262c-0.58984-4.8828-1.5664-9.6484-2.9766-14.227 3.9531 1.7852 7.8828 3.2891 11.789 4.5391-3.6562 3.5078-6.5938 6.8828-8.8125 9.6875zm-7.2344-55.793c-0.51562 0-0.97656-0.019531-1.4727-0.03125l36.324-36.324-8.9062-8.9062-37.926 37.926c0.29297-18.547 5.8281-34.027 16.625-46.09 19.32-21.582 50.699-27.316 64.371-28.816-4.4023 71.355-44.805 82.242-69.016 82.242zm3.5625-125.47c3.1094 10.191 7.9805 31.141 4.375 52.246-4.4648 3.2852-8.7305 7.0195-12.621 11.348-8.7422 9.75-14.523 21.289-17.523 34.395-3.0117 1.9062-6.2383 3.668-9.6875 5.2734l19.992-48.32-11.645-4.8164-20.059 48.488c-1.3047-2.75-2.6133-5.9062-3.7539-9.3945 7.6719-11.754 12.004-24.445 12.742-38.016 0.40234-7.3867-0.31641-14.531-1.6992-21.348 9.1211-11.074 22.465-21.098 39.879-29.855zm-75.895-15.316c8.6094 10.73 26.746 36.969 25.141 65.898-0.89844 16.164-7.9297 31.031-20.836 44.34v-53.629h-12.594v51.328c-8.1758-7.9062-18.047-20.656-20.398-37.68-3.0117-21.734 6.6406-45.348 28.688-70.258zm-80.793 15.703c9.4258 5.0234 27.754 16.43 40.125 33.973-1.3242 7.5938-1.5117 15.086-0.48047 22.449 1.6719 11.895 6.2422 21.902 11.652 30.059-0.82812 3.9336-1.9961 7.9453-3.4961 12.012l-20.289-48.574-11.621 4.8555 20.129 48.18c-3.0781-1.1133-6.4805-2.5586-9.9844-4.4102-1.8398-10.004-5.6875-20.887-13.297-30.98-5.3047-7.0391-11.922-13.012-19.789-17.938-1.4531-14.332 0.88281-30.969 7.0508-49.625zm2.6016 75.055c10.379 13.707 12.414 29.703 12.223 41.074l-36.301-36.301-8.9062 8.9062 37.941 37.941c-61.566-0.92188-72.918-60.512-74.992-81.023 33.25 2.0195 56.785 11.895 70.035 29.402zm-113.12 36.016c10.184-3.1172 31.137-8.0117 52.32-4.3516 10.051 13.777 24.625 25.527 45.77 30.301 2.1797 3.457 4.1875 7.1875 5.9766 11.227l-49.988-19.93-4.6641 11.699 47.59 18.973c-2.6641 1.1953-5.6562 2.3633-8.9219 3.375-10.453-7.2305-24.121-13.18-41.004-13.18-5.582 0-11.23 0.69141-16.938 2-11.176-9.1172-21.297-22.539-30.141-40.113zm47.078 50.703c20.957 0 36.41 11.582 45.473 20.934h-51.328v12.594h53.609c-14.305 13.855-30.379 20.934-47.957 20.93h-0.003906c-27.461 0-51.973-16.988-62.25-25.234 21.918-19.398 42.91-29.223 62.457-29.223zm-45.152 109.56c9.2695-19.594 20.191-34.148 32.52-43.516 4.0508 0.60547 8.1836 1.0078 12.418 1.0078h0.003907c14.273 0 27.605-3.9062 39.938-11.41 3.2227 0.82812 6.2031 1.8242 8.918 2.8828l-45.949 18.695 4.7461 11.668 51.191-20.832c-1.4766 3.7695-3.1172 7.3242-4.9336 10.629-24.645 4.75-40.742 18.742-51.207 34.777-19.387 2.6992-38.148-1.2578-47.645-3.9023zm116.17-20-37.953 37.941 8.9062 8.9062 36.301-36.293c0.19141 11.375-1.8477 27.367-12.223 41.07-13.25 17.504-36.793 27.379-70.031 29.391 2.082-20.508 13.43-80.109 75-81.016zm-3.0273 128.39c-7.3203-20.469-9.8789-38.551-7.7539-53.934 6.1914-4.3945 11.527-9.4961 15.941-15.352 6.9219-9.1797 10.766-19.035 12.785-28.273 3.4727-2.1328 6.8984-3.8438 10.078-5.2031l-19.23 46.492 11.645 4.8125 20.902-50.531c1.6328 3.8281 3.0273 7.6289 4.0547 11.359-6.125 8.5586-11.48 19.391-13.324 32.496-1.25 8.8789-0.74609 17.93 1.4297 27.129-11.816 15.652-27.918 26.156-36.527 31.004zm76.246 13.992c-22.043-24.91-31.695-48.523-28.688-70.258 2.3516-17.027 12.223-29.773 20.398-37.68v51.332h12.594l0.003906-53.641c12.906 13.32 19.941 28.191 20.836 44.352 1.5938 28.926-16.539 55.164-25.145 65.895zm80.406-17.352c-19.598-9.2734-34.16-20.211-43.527-32.543 0.79688-5.3711 1.1523-10.926 0.83984-16.621-0.69141-12.652-4.5234-24.531-11.246-35.605 0.94531-3.707 2.1172-7.1094 3.3398-10.137l19.473 46.617 11.621-4.8516-20.992-50.254c3.3555 1.3594 6.5352 2.8359 9.5156 4.4727 2.7539 14.359 8.8125 26.867 18.207 37.348 5.0586 5.6445 10.766 10.289 16.715 14.188 2.6133 19.293-1.3008 37.934-3.9453 47.387zm-3.3867-69.977c-10.816-12.066-16.375-27.57-16.668-46.133l37.922 37.926 8.9062-8.9062-36.328-36.328c0.5-0.011719 0.96875-0.035156 1.4805-0.035156 24.207 0 64.613 10.891 69.012 82.258-13.648-1.4727-44.938-7.1602-64.324-28.781zm111.79-43.176c-20.637 7.3789-38.82 9.9258-54.266 7.7031-12.566-17.539-29.051-25.277-43.172-28.484-2.5352-4.1016-4.5-8.1562-5.9688-11.809l47.848 19.074 4.6641-11.699-49.629-19.785c2.9062-1.1836 5.7734-2.1953 8.6211-3.0234 13.32 9.0391 27.887 13.633 43.559 13.633 6.0703 0 11.941-0.74609 17.598-1.9297 15.512 11.812 25.918 27.766 30.746 36.32zm-48.34-46.98c-17.582 0-33.668-7.0742-47.969-20.93h53.609v-12.594h-51.328c9.0703-9.3555 24.516-20.934 45.469-20.934 19.555 0 40.543 9.8242 62.461 29.223-10.27 8.2461-34.781 25.234-62.242 25.234z"/>
</svg>