<?xml version="1.0" encoding="UTF-8"?>
<!-- The Best Svg Icon site in the world: iconSvg.co, Visit us! https://iconsvg.co -->
<svg fill="#000000" width="800px" height="800px" version="1.1" viewBox="144 144 512 512" xmlns="http://www.w3.org/2000/svg">
 <g>
  <path d="m260.99 471.65c0 33.461 27.223 60.684 60.68 60.684 33.461 0 60.684-27.223 60.684-60.684 0-24.816-14.992-46.176-36.383-55.566 4.8867-1.8359 9.6758-4.4648 13.473-8.2656 13.105-13.102 9.3047-37.008 9.1328-38.023-0.32422-1.9648-1.7773-3.5469-3.6992-4.0508-0.96484-0.25-23.777-5.9961-37.086 7.3164-2.6445 2.6445-4.6523 5.957-6.2109 9.543-1.5586-3.582-3.5664-6.8945-6.2109-9.543-13.305-13.32-36.121-7.5703-37.086-7.3164-1.9219 0.5-3.375 2.0859-3.6992 4.0508-0.16797 1.0117-3.9688 24.918 9.1328 38.023 3.8242 3.8242 8.6523 6.4648 13.574 8.3008-21.34 9.4062-36.301 30.742-36.301 55.531zm73.934-91.461c4.6562-4.6602 11.57-5.8164 17.293-5.8164 2.625 0 4.9961 0.24219 6.7852 0.5 0.42969 6.0898 0.34766 18.793-6.6758 25.82-6.8203 6.8242-18.969 8.7383-25.707 9.2734v-0.027344c0.13281-8.8242 1.7539-23.203 8.3047-29.75zm-50.75-5.3164c5.6914-0.82031 17.293-1.4805 24.078 5.3125 6.5547 6.5547 8.1719 20.945 8.3047 29.77v0.035156c-7.4805-0.60547-19.273-2.8633-25.703-9.2969-7.0273-7.0234-7.1055-19.727-6.6797-25.82zm37.5 46.172c27.902 0 50.605 22.699 50.605 50.605s-22.703 50.605-50.605 50.605c-27.902 0-50.605-22.699-50.605-50.605s22.699-50.605 50.605-50.605z"/>
  <path d="m417.64 471.65c0 33.461 27.223 60.684 60.684 60.684 33.457 0 60.68-27.223 60.68-60.684 0-24.816-14.992-46.176-36.379-55.566 4.8867-1.8359 9.6758-4.4648 13.473-8.2656 13.105-13.102 9.3047-37.008 9.1367-38.023-0.32422-1.9648-1.7773-3.5469-3.6992-4.0508-0.96484-0.25-23.781-5.9961-37.086 7.3164-2.6445 2.6445-4.6484 5.957-6.207 9.5391-1.5586-3.582-3.5625-6.8945-6.2109-9.5391-13.312-13.32-36.121-7.5703-37.086-7.3164-1.9219 0.5-3.375 2.0859-3.6992 4.0508-0.16797 1.0117-3.9688 24.918 9.1367 38.023 3.8242 3.8242 8.6523 6.4648 13.57 8.3008-21.355 9.4062-36.312 30.742-36.312 55.531zm73.93-91.461c4.6602-4.6602 11.574-5.8164 17.297-5.8164 2.625 0 4.9961 0.24219 6.7852 0.5 0.42969 6.0898 0.34766 18.793-6.6797 25.82-6.8203 6.8203-18.969 8.7422-25.707 9.2734 0-0.035156-0.003906-0.078125-0.003906-0.11719 0.14062-8.8203 1.7578-23.109 8.3086-29.66zm-50.746-5.3164c5.7031-0.82031 17.293-1.4805 24.082 5.3125 6.5547 6.5547 8.168 20.953 8.3008 29.781-6.7344-0.53516-18.883-2.4492-25.703-9.2734-7.0273-7.0234-7.1094-19.727-6.6797-25.82zm37.5 46.172c27.902 0 50.605 22.699 50.605 50.605s-22.699 50.605-50.605 50.605c-27.902 0-50.605-22.699-50.605-50.605-0.003906-27.906 22.699-50.605 50.605-50.605z"/>
  <path d="m596.48 332.62h-5.6172v-117.14c0-9.3711-7.5195-16.996-16.758-16.996h-22.117c-9.2383 0-16.758 7.625-16.758 17v14.906h-271.05v-14.906c0-9.375-7.5195-17-16.758-17h-22.113c-9.2383 0-16.758 7.625-16.758 16.996v117.14h-5.0391c-2.7812 0-5.0391 2.2539-5.0391 5.0391v217.23c0 2.7852 2.2539 5.0391 5.0391 5.0391h5.0391v24.602c0 9.3711 7.5195 17 16.758 17h37.23c9.2383 0 16.754-7.625 16.754-17v-24.602h240.83v24.602c0 9.3711 7.5156 17 16.758 17h37.23c9.2383 0 16.758-7.625 16.758-17v-24.602h5.6172c2.7812 0 5.0391-2.2539 5.0391-5.0391v-217.23c0-2.7852-2.2578-5.0391-5.0391-5.0391zm-44.492-124.07h22.117c3.6836 0 6.6797 3.1055 6.6797 6.9219v117.14h-35.477v-46.684c11.652-0.40625 21.023-9.9492 21.023-21.695v-12.082c0-11.754-9.3711-21.293-21.023-21.699v-14.984c0-3.8164 2.9961-6.9219 6.6797-6.9219zm-297.82 31.906h290.38c6.4492 0 11.699 5.25 11.699 11.699v12.082c0 6.4492-5.2461 11.695-11.699 11.695h-290.38c-6.4492 0-11.699-5.2461-11.699-11.695v-12.082c0.003907-6.4492 5.25-11.699 11.699-11.699zm10.004 45.555h271.05v46.605h-271.05zm-45.551-70.539c0-3.8164 2.9961-6.9219 6.6797-6.9219h22.113c3.6836 0 6.6797 3.1055 6.6797 6.9219v14.914c-11.969 0.042969-21.699 9.7852-21.699 21.77v12.082c0 11.98 9.7305 21.723 21.699 21.766v46.613h-35.473zm50.59 369.05c0 3.8164-2.9961 6.9219-6.6797 6.9219h-37.23c-3.6836 0-6.6797-3.1055-6.6797-6.9219v-24.602h50.59zm311.57 0c0 3.8164-2.9961 6.9219-6.6797 6.9219h-37.23c-3.6836 0-6.6797-3.1055-6.6797-6.9219v-24.602h50.594zm10.656-34.676h-382.89v-207.15h382.89z"/>
 </g>
</svg>