<?xml version="1.0" encoding="UTF-8"?>
<!-- The Best Svg Icon site in the world: iconSvg.co, Visit us! https://iconsvg.co -->
<svg fill="#000000" width="800px" height="800px" version="1.1" viewBox="144 144 512 512" xmlns="http://www.w3.org/2000/svg">
 <g>
  <path d="m227.6 592.38c5.8984 5.8984 13.746 9.1484 22.086 9.1484s16.184-3.25 22.082-9.1445l5.4375-5.4336c19.125 4.4297 131.91 28.137 244.97 0.027344l5.4062 5.4023c5.8984 5.8984 13.738 9.1484 22.078 9.1484 8.3438 0 16.188-3.25 22.086-9.1484 13.277-13.277 14.793-31.461 3.8125-46.398l-11.523-15.086c2.2461-15.504 13.602-106.06-16-174.22 9.8477-3.1094 17.055-12.223 17.055-23.086v-24.281c0-12.477-9.4766-22.668-21.59-24.043v-2.75c0-33.723-27.438-61.164-61.16-61.164-6.957 0-13.746 1.1562-20.246 3.4414-12.43-16.551-31.801-26.309-52.582-26.309-22.984 0-43.957 11.812-55.938 31.16-9.7305-5.3984-20.645-8.2305-31.867-8.2305-35.637 0-64.676 28.461-65.762 63.836-12.164 1.332-21.691 11.543-21.691 24.055v24.281c0 10.934 7.3008 20.094 17.246 23.145-30.496 75.305-18.707 159.17-16.234 174.2l-11.711 15.219c-9.9023 14.145-8.1641 34.02 4.043 46.23zm94.109-360.89c11.039 0 21.723 3.2344 30.898 9.3516 1.1953 0.79297 2.6758 1.0469 4.0625 0.68359s2.5586-1.3008 3.2109-2.5742c9.6172-18.75 28.633-30.395 49.633-30.395 18.754 0 36.152 9.3945 46.535 25.129 1.3477 2.0391 3.9766 2.8281 6.1875 1.8555 6.3828-2.7344 13.145-4.1172 20.109-4.1172 28.168 0 51.086 22.918 51.086 51.086v2.4766l-267.39-0.003907c1.2148-29.691 25.688-53.492 55.672-53.492zm-77.375 102.09v-24.281c0-7.8555 6.3906-14.242 14.242-14.242h282.2c7.8516 0 14.242 6.3867 14.242 14.242v24.281c0 7.8516-6.3906 14.242-14.242 14.242h-282.12-0.039063-0.035156c-7.8516 0-14.242-6.3906-14.242-14.242zm-12.656 218.53 12.926-16.785c0.875-1.1328 1.2266-2.5859 0.96484-3.9883-0.17578-0.94531-16.875-94.184 16.371-173.43h275.59c32.223 70.656 16.41 172.52 16.242 173.55-0.22266 1.3633 0.13281 2.7578 0.96875 3.8555l12.762 16.715c9.4844 12.898 4.7344 25.625-2.875 33.23-3.9922 3.9961-9.3047 6.1953-14.961 6.1953-5.6484 0-10.961-2.1992-14.957-6.1992l-7.4297-7.4258c-1.2578-1.2578-3.0859-1.7539-4.8125-1.3164-121.82 31.199-244.36 0.3125-245.57 0.003906-1.7422-0.44922-3.5586 0.054688-4.8203 1.3125l-7.4297 7.4258c-3.9922 4-9.3047 6.1992-14.953 6.1992s-10.961-2.2031-14.961-6.1953c-8.8047-8.8008-10.055-23.129-3.0469-33.145z"/>
  <path d="m343.43 273.59c0.49219 0 1-0.074219 1.4961-0.23047l5.3789-1.6719c2.6562-0.82812 4.1445-3.6523 3.3164-6.3086s-3.6328-4.1484-6.3086-3.3164l-5.3789 1.6719c-2.6562 0.82812-4.1445 3.6523-3.3164 6.3086 0.67578 2.1602 2.6602 3.5469 4.8125 3.5469z"/>
  <path d="m289.65 273.12 5.3477 0.82031c0.26172 0.039062 0.51562 0.058594 0.76562 0.058594 2.4453 0 4.5938-1.7852 4.9727-4.2773 0.42188-2.75-1.4648-5.3203-4.2148-5.7422l-5.3477-0.82031c-2.8008-0.42969-5.3242 1.4688-5.7422 4.2148-0.42188 2.7539 1.4688 5.3242 4.2188 5.7461z"/>
  <path d="m315.01 255.49c0.625 0 1.2539-0.11719 1.8711-0.36328l5.0469-2.0156c2.582-1.0312 3.8438-3.9648 2.8086-6.5469-1.0312-2.5898-3.9648-3.8359-6.5469-2.8086l-5.0469 2.0156c-2.582 1.0312-3.8438 3.9648-2.8086 6.5469 0.78125 1.9727 2.6758 3.1719 4.6758 3.1719z"/>
  <path d="m506.66 278.81c0.19141 0 0.38281-0.011719 0.57422-0.03125 2.7656-0.31641 4.7539-2.8125 4.4336-5.5781l-0.64062-5.5938c-0.31641-2.7617-2.8672-4.7461-5.5742-4.4336-2.7656 0.31641-4.7539 2.8125-4.4336 5.5781l0.64062 5.5938c0.28906 2.5703 2.4688 4.4648 5 4.4648z"/>
  <path d="m404.94 256.16c0.49609 0 1.0039-0.078125 1.5-0.23047l5.3711-1.6758c2.6562-0.82812 4.1367-3.6562 3.3047-6.3086-0.82812-2.6602-3.6719-4.1406-6.3086-3.3086l-5.3711 1.6758c-2.6562 0.82812-4.1367 3.6562-3.3047 6.3086 0.67188 2.1562 2.6641 3.5391 4.8086 3.5391z"/>
  <path d="m427.05 242.56c0.87109 1.7891 2.668 2.832 4.5352 2.832 0.73828 0 1.4922-0.16406 2.1992-0.50781 2.5-1.2188 3.543-4.2344 2.3281-6.7344l-2.3672-4.8672c-1.2109-2.4961-4.2266-3.543-6.7344-2.3281-2.5 1.2188-3.543 4.2344-2.3281 6.7344z"/>
  <path d="m454.36 269.66 5.625 0.28125c0.082031 0.003907 0.16797 0.007813 0.25391 0.007813 2.668 0 4.8906-2.0938 5.0273-4.7852 0.13672-2.7812-2.0039-5.1445-4.7812-5.2852l-5.625-0.28125c-2.6211-0.11719-5.1406 1.9961-5.2852 4.7773-0.13281 2.7773 2.0039 5.1445 4.7852 5.2852z"/>
  <path d="m423.71 277.62c0.81641 0.49219 1.7188 0.72656 2.6016 0.72656 1.707 0 3.3711-0.86719 4.3164-2.4336l2.8086-4.6484c1.4414-2.3828 0.67969-5.4766-1.7031-6.918-2.3945-1.4414-5.4844-0.67578-6.918 1.707l-2.8086 4.6484c-1.4414 2.3789-0.67969 5.4766 1.7031 6.918z"/>
  <path d="m378.89 272.75c0.19141 0 0.38281-0.011719 0.57422-0.03125 2.7656-0.31641 4.7539-2.8125 4.4336-5.5781l-0.64063-5.5938c-0.30859-2.7617-2.875-4.7539-5.5742-4.4336-2.7656 0.31641-4.7539 2.8125-4.4336 5.5781l0.64062 5.5938c0.29297 2.5664 2.4727 4.4648 5 4.4648z"/>
  <path d="m385.81 243.02c0.12891 0 0.25391-0.003906 0.38281-0.015625 2.7734-0.21094 4.8555-2.6289 4.6445-5.4062l-0.41797-5.5195c-0.21094-2.7734-2.6211-4.8398-5.4023-4.6406-2.7734 0.21094-4.8555 2.6289-4.6445 5.4062l0.41797 5.5195c0.20313 2.6445 2.4141 4.6562 5.0195 4.6562z"/>
  <path d="m475.4 255.1 5.0469 2.0156c0.61328 0.24219 1.2461 0.36328 1.8711 0.36328 1.9961 0 3.8906-1.1992 4.6797-3.1719 1.0312-2.582-0.22656-5.5156-2.8086-6.5469l-5.0469-2.0156c-2.5898-1.0234-5.5156 0.22266-6.5469 2.8086-1.0391 2.582 0.22266 5.5117 2.8047 6.5469z"/>
  <path d="m362.17 447.73c2.7852 0 5.0391-2.2539 5.0391-5.0391 0-3.9023 3.2266-7.0781 7.1914-7.0781 3.9688 0 7.1992 3.1758 7.1992 7.0781 0 2.7812 2.2539 5.0391 5.0391 5.0391 2.7852 0 5.0391-2.2539 5.0391-5.0391 0-9.457-7.75-17.156-17.273-17.156-9.5195 0-17.27 7.6992-17.27 17.156-0.003906 2.7812 2.25 5.0391 5.0352 5.0391z"/>
  <path d="m414.95 447.73c2.7852 0 5.0391-2.2539 5.0391-5.0391 0-3.9023 3.2266-7.0781 7.1992-7.0781 3.9648 0 7.1914 3.1758 7.1914 7.0781 0 2.7812 2.2539 5.0391 5.0391 5.0391 2.7852 0 5.0391-2.2539 5.0391-5.0391 0-9.457-7.75-17.156-17.27-17.156-9.5234 0-17.273 7.6992-17.273 17.156 0 2.7812 2.25 5.0391 5.0352 5.0391z"/>
  <path d="m399.66 541.14c26.668 0 48.363-18.742 48.363-41.781s-21.695-41.785-48.363-41.785c-26.668 0-48.363 18.742-48.363 41.785 0 23.035 21.695 41.781 48.363 41.781zm0-73.488c21.113 0 38.289 14.223 38.289 31.707 0 17.48-17.176 31.703-38.289 31.703-21.113 0-38.289-14.223-38.289-31.703 0-17.484 17.176-31.707 38.289-31.707z"/>
  <path d="m305.09 477.55c0 52.262 42.52 94.777 94.777 94.777 52.262 0 94.777-42.52 94.777-94.777 0-14.609-3.4219-28.402-9.3516-40.773 11.84-13.23 12.785-47.441 11.59-53.086-0.26953-1.2695-1.207-3.6016-4.4102-4.9766-6.8555-2.9258-25.32-0.64844-36.301 6.1172-3.6641 2.25-7.8711 5.9219-11.039 9.4805-13.461-7.3477-28.883-11.535-45.27-11.535-16.48 0-31.984 4.2461-45.496 11.672-3.0117-3.5781-7.0117-7.1133-10.945-9.5312-11.066-6.8086-29.609-9.1328-36.457-6.1875-3.1992 1.375-4.1211 3.707-4.3867 4.9727-1.1289 5.375 0.24219 39.316 11.859 53.074-5.9258 12.367-9.3477 26.164-9.3477 40.773zm156.37-84.141c8.082-4.9766 21.055-6.4414 25.766-5.7578 0.36719 7.3359-1.3594 29.184-7.2773 39.43-6.8008-10.754-15.66-20.062-26.086-27.32 2.2227-2.3086 4.9648-4.7344 7.5977-6.3516zm23.113 84.141c0 46.707-37.996 84.703-84.703 84.703-46.707 0-84.703-37.996-84.703-84.703 0-46.707 37.996-84.703 84.703-84.703 46.707 0 84.703 37.996 84.703 84.703zm-172.31-89.895c4.7227-0.66016 17.75 0.83594 25.883 5.8438 2.6484 1.6289 5.3906 3.9766 7.5859 6.3672-10.332 7.2227-19.125 16.457-25.887 27.121-5.8359-10.629-7.8438-32.113-7.582-39.332z"/>
  <path d="m380.05 504.39h10.332c2.7852 0 5.0391-2.2539 5.0391-5.0391 0-2.7812-2.2539-5.0391-5.0391-5.0391h-10.332c-2.7852 0-5.0391 2.2539-5.0391 5.0391 0 2.7852 2.2539 5.0391 5.0391 5.0391z"/>
  <path d="m409.37 504.39h10.332c2.7852 0 5.0391-2.2539 5.0391-5.0391 0-2.7812-2.2539-5.0391-5.0391-5.0391h-10.332c-2.7852 0-5.0391 2.2539-5.0391 5.0391 0 2.7852 2.2539 5.0391 5.0391 5.0391z"/>
 </g>
</svg>