<?xml version="1.0" encoding="UTF-8"?>
<!-- The Best Svg Icon site in the world: iconSvg.co, Visit us! https://iconsvg.co -->
<svg fill="#000000" width="800px" height="800px" version="1.1" viewBox="144 144 512 512" xmlns="http://www.w3.org/2000/svg">
 <path d="m497.24 450.68c-1.9883-1.7891-5.0391-1.707-6.9336 0.17969l-4.4844 4.4844-38.789-38.785 44.043-44.043c18.031-18.031 18.031-47.367 0-65.398l-95.859-95.871c-9.9609-9.9609-24.227-14.699-38.004-12.727l-109.05 11.949c-19.723 2.832-35.398 18.594-38.145 38.512l-11.125 107.73c-1.9141 13.855 2.8477 28.027 12.742 37.922l95.965 95.965c9.0195 9.0195 20.859 13.527 32.703 13.527s23.688-4.5078 32.703-13.527l44.043-44.043 38.785 38.785-4.4844 4.4844c-1.8945 1.8945-1.9766 4.9375-0.17969 6.9336l83.594 92.828c7.6211 7.6211 17.637 11.438 27.652 11.438 10.016 0 20.031-3.8125 27.652-11.438 15.246-15.246 15.246-40.055-0.19141-55.488zm-131.36 32.789c-14.105 14.102-37.051 14.102-51.156 0l-95.969-95.961c-7.6719-7.6719-11.367-18.676-9.8633-29.594l11.125-107.73c2.1094-15.312 14.273-27.543 29.402-29.715l109.05-11.949c10.797-1.5703 21.879 2.125 29.609 9.8555l95.863 95.863c14.102 14.102 14.102 37.051 0 51.152l-44.043 44.043-29.922-29.922c-8.2656-8.2656-21.723-8.2656-29.988 0-4.0039 4.0039-6.2109 9.332-6.2109 14.992 0 5.668 2.207 10.992 6.2109 15l29.922 29.922zm21.246-81.09c-2.1016-2.1016-3.2578-4.8984-3.2578-7.8711s1.1523-5.7695 3.2578-7.8711c4.3359-4.3359 11.402-4.3359 15.738 0l75.828 75.828-15.742 15.742zm195.81 180.07c-11.32 11.32-29.738 11.32-40.875 0.19141l-80.211-89.086 32.199-32.199 88.891 80.031c11.316 11.328 11.316 29.746-0.003906 41.062z"/>
</svg>