<?xml version="1.0" encoding="UTF-8"?>
<!-- The Best Svg Icon site in the world: iconSvg.co, Visit us! https://iconsvg.co -->
<svg fill="#000000" width="800px" height="800px" version="1.1" viewBox="144 144 512 512" xmlns="http://www.w3.org/2000/svg">
 <g>
  <path d="m598 583.89h-20.152v-1.0078c0-23.68-18.137-43.328-40.809-45.848v-19.145c8.0625 0 24.184-1.5117 35.266-12.594 15.113-14.609 13.602-39.297 13.602-40.305 0-2.5195-2.0156-4.5352-4.5352-4.5352-1.0078 0-25.695-2.5195-40.809 12.09-3.5273 3.5273-6.0469 7.5586-8.0625 12.09-2.0156-4.0312-4.0312-8.0625-7.5586-11.586-14.609-15.113-39.297-13.602-40.305-13.602-2.5195 0-4.5352 2.0156-4.5352 4.5352 0 1.0078-2.5195 25.695 12.09 40.809 10.578 11.082 26.703 13.098 35.266 13.602v18.641c-23.176 2.5195-40.809 22.168-40.809 45.848v1.0078h-79.594v-43.328c8.0625 0 24.688-1.5117 35.266-12.594 15.113-14.609 13.602-39.297 13.602-40.305 0-2.5195-2.0156-4.5352-4.5352-4.5352-1.0078 0-25.695-2.5195-40.809 12.09-1.5117 1.5117-2.5195 2.5195-3.5273 4.0312v-13.098c4.0312-4.0312 14.105-15.113 13.602-28.719 0-16.625-15.113-29.223-15.617-29.727-2.0156-1.5117-4.5352-1.5117-6.5508 0-0.50391 0.50391-15.617 13.602-15.113 30.23 0 13.098 9.5742 23.68 13.602 27.711v12.594c-0.50391-1.0078-1.5117-1.5117-2.0156-2.5195-14.609-15.113-39.297-13.602-40.305-13.602-2.5195 0-4.5352 2.0156-4.5352 4.5352 0 1.0078-2.5195 25.695 12.09 40.809 10.578 11.082 26.703 13.098 35.266 13.602v42.32h-81.605v-1.0078c0-23.68-18.137-43.328-40.809-45.848v-19.145c8.0625 0 24.184-1.5117 35.266-12.594 15.113-14.609 13.602-39.297 13.602-40.305 0-2.5195-2.0156-4.5352-4.5352-4.5352-1.0078 0-25.695-2.5195-40.809 12.09-3.5273 3.5273-6.0469 7.5586-8.0625 12.09-2.0156-4.0312-4.0312-8.0625-7.5586-11.586-14.609-15.113-39.297-13.602-40.305-13.602-2.5195 0-4.5352 2.0156-4.5352 4.5352 0 1.0078-2.5195 25.695 12.09 40.809 10.578 11.082 26.703 13.098 35.266 13.602v18.641c-23.176 2.5195-40.809 22.168-40.809 45.848v1.0078h-18.641c-3.0234 0-5.0391 2.0156-5.0391 5.0391 0 3.0234 2.0156 5.0391 5.0391 5.0391h392.47c3.0234 0 5.0391-2.0156 5.0391-5.0391 0.007812-3.0234-2.5117-4.5352-5.5352-4.5352zm-180.36-81.113c8.0625-8.0625 21.16-9.5742 28.215-9.5742-0.50781 7.0547-2.5234 19.648-10.582 27.711-8.0625 8.0625-21.16 9.5742-28.215 9.5742 0.50391-6.5508 2.0156-19.652 10.582-27.711zm-24.184-44.84c0-8.0625 5.0391-15.113 8.5664-19.145 3.5273 4.0312 8.5664 11.082 9.0703 19.145 0.50391 8.0625-5.0391 15.113-8.5664 19.145-4.0312-4.0312-9.0703-11.086-9.0703-19.145zm-24.184 62.977c-8.0625-8.0625-9.5742-21.16-9.5742-28.215 7.0547 0.50391 19.648 2.0156 27.711 10.578 7.5586 7.5586 9.0703 19.145 9.5742 26.703v1.0078c-7.0547 0-19.648-2.0156-27.711-10.074zm178.85-41.312c8.0625-7.5586 21.16-9.0703 28.215-9.0703-0.50391 7.0547-2.0156 19.648-10.578 27.711-8.0625 8.0625-21.16 9.5742-28.215 9.5742 0.50391-7.0547 2.0156-20.156 10.578-28.215zm-48.363 18.137c-8.0625-8.0625-9.5742-21.16-9.5742-28.215 7.0547 0.50391 19.648 2.0156 27.711 10.578 7.5586 7.5586 9.0703 19.648 9.5742 26.703v1.5117c-7.0547-0.50391-20.156-2.0156-27.711-10.578zm-3.0234 84.641c0-19.648 16.121-35.77 35.77-35.77s35.77 16.121 35.77 35.77v1.0078h-72.043s0.50391-0.50391 0.50391-1.0078zm-211.1-102.78c8.0625-8.0625 21.16-9.5742 28.215-9.5742-0.50391 7.0547-2.0156 19.648-10.578 27.711-8.0625 8.0625-21.16 9.5742-28.215 9.5742 0.50391-6.5508 2.0156-19.652 10.578-27.711zm-48.363 18.137c-8.0625-8.0625-9.5742-21.16-9.5742-28.215 7.0547 0.50391 19.648 2.0156 27.711 10.578 7.5586 7.5586 9.0703 19.648 9.5742 26.703v1.5117c-7.0547-0.50391-19.652-2.0156-27.711-10.578zm-3.0234 84.641c0-19.648 16.121-35.77 35.77-35.77s35.77 16.121 35.77 35.77v1.0078h-72.043s0.50391-0.50391 0.50391-1.0078z"/>
  <path d="m402.52 345.08c23.176 0 42.32-19.145 42.32-42.32s-19.145-42.32-42.32-42.32-42.32 19.145-42.32 42.32c0.003907 23.176 19.148 42.32 42.32 42.32zm0-75.066c17.633 0 32.242 14.609 32.242 32.242 0 17.633-14.609 32.242-32.242 32.242s-32.242-14.609-32.242-32.242c0-17.633 14.609-32.242 32.242-32.242z"/>
  <path d="m402.52 241.3c3.0234 0 5.0391-2.0156 5.0391-5.0391v-23.176c0-3.0234-2.0156-5.0391-5.0391-5.0391s-5.0391 2.0156-5.0391 5.0391v23.176c0.003907 3.0273 2.5234 5.0391 5.0391 5.0391z"/>
  <path d="m432.75 249.36c1.0078 0.50391 1.5117 0.50391 2.5195 0.50391 1.5117 0 3.5273-1.0078 4.5352-2.5195l11.586-20.152c1.5117-2.5195 0.50391-5.543-2.0156-7.0547-2.5195-1.5117-5.543-0.50391-7.0547 2.0156l-11.586 20.152c-1.0078 2.5195 0 5.543 2.0156 7.0547z"/>
  <path d="m459.45 274.05c1.0078 0 1.5117 0 2.5195-0.50391l19.648-11.586c2.5195-1.5117 3.0234-4.5352 2.0156-7.0547-1.5117-2.5195-4.5352-3.0234-7.0547-2.0156l-19.648 11.586c-2.5195 1.5117-3.0234 4.5352-2.0156 7.0547 1.5117 1.5117 3.0234 2.5195 4.5352 2.5195z"/>
  <path d="m463.98 301.25c0 2.5195 2.5195 5.0391 5.0391 5.0391l23.176-0.50391c3.0234 0 5.0391-2.5195 5.0391-5.0391 0-2.5195-2.5195-5.0391-5.0391-5.0391l-23.176 0.50391c-3.0234 0.003906-5.543 2.5234-5.0391 5.0391z"/>
  <path d="m462.98 329.97c-2.5195-1.5117-5.543-0.50391-7.0547 2.0156s-0.50391 5.543 2.0156 7.0547l20.152 11.082c1.0078 0.50391 1.5117 0.50391 2.5195 0.50391 2.0156 0 3.5273-1.0078 4.5352-2.5195 1.5117-2.5195 0.50391-5.543-2.0156-7.0547z"/>
  <path d="m434.76 354.66c-2.5195 1.5117-3.0234 4.5352-1.5117 7.0547l12.09 19.648c1.0078 1.5117 2.5195 2.5195 4.5352 2.5195 1.0078 0 2.0156 0 2.5195-0.50391 2.5195-1.5117 3.0234-4.5352 1.5117-7.0547l-12.09-19.648c-1.5117-3.0234-4.5352-3.5273-7.0547-2.0156z"/>
  <path d="m405.04 363.72c-0.50391 0-0.50391 0 0 0-3.0234 0-5.0391 2.5195-5.0391 5.0391l1.0078 23.176c0 2.5195 2.5195 5.0391 5.0391 5.0391 3.0234 0 5.0391-2.5195 5.0391-5.0391l-1.0078-23.68c-0.50391-2.5195-2.5195-4.5352-5.0391-4.5352z"/>
  <path d="m367.25 358.69-10.578 20.152c-1.5117 2.5195-0.50391 5.543 2.0156 7.0547 0.50391 0.50391 1.5117 0.50391 2.5195 0.50391 2.0156 0 3.5273-1.0078 4.5352-2.5195l10.578-20.152c1.5117-2.5195 0.50391-5.543-2.0156-7.0547-2.5195-1.5117-5.543-0.50391-7.0547 2.0156z"/>
  <path d="m344.07 334-19.145 12.594c-2.5195 1.5117-3.0234 4.5352-1.5117 7.0547 1.0078 1.5117 2.5195 2.5195 4.0312 2.5195 1.0078 0 2.0156-0.50391 2.5195-1.0078l19.145-12.594c2.5195-1.5117 3.0234-4.5352 1.5117-7.0547s-4.0312-3.0234-6.5508-1.5117z"/>
  <path d="m313.34 311.83c0.50391 0 0.50391 0 0 0l23.176-1.0078c3.0234 0 5.0391-2.5195 4.5352-5.0391 0-3.0234-2.5195-5.0391-5.0391-4.5352l-23.176 1.0078c-3.0234 0-5.0391 2.5195-4.5352 5.0391 0.50391 2.5195 2.5195 4.5352 5.0391 4.5352z"/>
  <path d="m320.9 266.99 20.656 10.578c0.50391 0.50391 1.5117 0.50391 2.5195 0.50391 2.0156 0 3.5273-1.0078 4.5352-2.5195 1.0078-2.5195 0.50391-5.543-2.0156-6.5508l-20.656-10.578c-2.5195-1.0078-5.543-0.50391-6.5508 2.0156-1.0078 2.5195-1.0078 5.0391 1.5117 6.5508z"/>
  <path d="m361.71 249.86c1.0078 1.5117 2.5195 2.0156 4.0312 2.0156 1.0078 0 2.0156-0.50391 3.0234-1.0078 2.5195-1.5117 3.0234-4.5352 1.5117-7.0547l-12.594-19.145c-1.5117-2.5195-4.5352-3.0234-7.0547-1.5117-2.5195 1.5117-3.0234 4.5352-1.5117 7.0547z"/>
 </g>
</svg>