<?xml version="1.0" encoding="UTF-8"?>
<!-- The Best Svg Icon site in the world: iconSvg.co, Visit us! https://iconsvg.co -->
<svg fill="#000000" width="800px" height="800px" version="1.1" viewBox="144 144 512 512" xmlns="http://www.w3.org/2000/svg">
 <g>
  <path d="m533.82 423.61h-7.875v-18.402c0.003906-7.1328 1.9453-14.133 5.6133-20.246l16.879-28.141-13.492-8.1094-16.871 28.148c-5.1406 8.5586-7.8633 18.352-7.8711 28.34v18.41h-7.8711v-31.984c-0.019532-18.656 5.5039-36.898 15.867-52.41l14.297-21.445-13.098-8.7383-14.297 21.453c-12.094 18.098-18.535 39.379-18.516 61.141v31.984h-7.8711v-111.66c4.5898-1.6211 8.5625-4.6211 11.383-8.5898 2.8164-3.9688 4.3398-8.7109 4.3594-13.578v-62.977c-0.019532-4.8672-1.543-9.6055-4.3594-13.574-2.8203-3.9688-6.793-6.9688-11.383-8.5938v-17.191h-15.742v17.191c-4.5898 1.625-8.5664 4.625-11.383 8.5938-2.8203 3.9688-4.3438 8.707-4.3633 13.574v62.977c0.019531 4.8672 1.543 9.6094 4.3633 13.578 2.8164 3.9688 6.793 6.9688 11.383 8.5898v111.66h-31.488v-18.402c0-7.1328 1.9414-14.133 5.6094-20.246l16.879-28.141-13.492-8.1094-16.871 28.148c-5.1406 8.5586-7.8633 18.352-7.8711 28.34v18.41h-7.8711v-151.02c4.5898-1.6211 8.5625-4.6211 11.383-8.5898 2.8164-3.9688 4.3398-8.7109 4.3594-13.578v-47.23c-0.019531-4.8672-1.543-9.6094-4.3594-13.578-2.8203-3.9688-6.793-6.9688-11.383-8.5898v-17.195h-15.746v17.195c-4.5859 1.6211-8.5625 4.6211-11.379 8.5898-2.8203 3.9688-4.3438 8.7109-4.3633 13.578v47.23c0.019532 4.8672 1.543 9.6094 4.3633 13.578 2.8164 3.9688 6.793 6.9688 11.379 8.5898v151.02h-31.488v-18.402c0.003906-7.1328 1.9453-14.133 5.6133-20.246l16.879-28.141-13.492-8.1094-16.871 28.148c-5.1406 8.5586-7.8633 18.352-7.8711 28.34v18.41h-7.8711v-31.984c-0.019532-18.656 5.5039-36.898 15.867-52.41l14.297-21.445-13.098-8.7383-14.297 21.453c-12.094 18.098-18.535 39.379-18.516 61.141v31.984h-7.8711v-111.66c4.5898-1.6211 8.5625-4.6211 11.383-8.5898 2.8164-3.9688 4.3398-8.7109 4.3594-13.578v-62.977c-0.019532-4.8672-1.543-9.6055-4.3594-13.574-2.8203-3.9688-6.793-6.9688-11.383-8.5938v-17.191h-15.742v17.191c-4.5898 1.625-8.5664 4.625-11.383 8.5938-2.8203 3.9688-4.3438 8.707-4.3633 13.574v62.977c0.019531 4.8672 1.543 9.6094 4.3633 13.578 2.8164 3.9688 6.793 6.9688 11.383 8.5898v111.66h-7.875v-18.402c-0.007812-9.9844-2.7266-19.781-7.8711-28.34l-16.887-28.148-13.492 8.1094 16.879 28.141c3.6758 6.1094 5.6211 13.105 5.6289 20.238v18.402h-7.8711c-39.375 0-75.758 21.008-95.445 55.105s-19.688 76.109 0 110.21c19.688 34.102 56.07 55.105 95.445 55.105h267.65c39.371 0 75.754-21.004 95.441-55.105 19.688-34.098 19.688-76.109 0-110.21s-56.07-55.105-95.441-55.105zm-70.848-196.8c0-4.3477 3.5234-7.8711 7.8711-7.8711s7.8711 3.5234 7.8711 7.8711v62.977c0 4.3477-3.5234 7.875-7.8711 7.875s-7.8711-3.5273-7.8711-7.875zm-70.852-23.613c0-4.3477 3.5273-7.875 7.875-7.875s7.8711 3.5273 7.8711 7.875v47.23c0 4.3477-3.5234 7.8711-7.8711 7.8711s-7.875-3.5234-7.875-7.8711zm-94.461 23.613c0-4.3477 3.5234-7.8711 7.8711-7.8711s7.8711 3.5234 7.8711 7.8711v62.977c0 4.3477-3.5234 7.875-7.8711 7.875s-7.8711-3.5273-7.8711-7.875zm236.16 401.48h-267.65c-33.75 0-64.938-18.008-81.809-47.234-16.875-29.227-16.875-65.238 0-94.465 16.871-29.227 48.059-47.23 81.809-47.23h267.65c33.746 0 64.934 18.004 81.809 47.23 16.871 29.227 16.871 65.238 0 94.465-16.875 29.227-48.062 47.234-81.809 47.234z"/>
  <path d="m552.82 480.07-9.7773 9.7773h0.003906c-2.9609 2.9414-6.9609 4.5977-11.133 4.6094h-4.0625c-4.1719-0.011719-8.1719-1.668-11.129-4.6094l-9.7773-9.7773c-5.918-5.8906-13.918-9.207-22.262-9.2266h-4.0625c-8.3477 0.019532-16.348 3.3359-22.262 9.2266l-9.7773 9.7773c-2.9609 2.9414-6.9609 4.5977-11.133 4.6094h-4.0625c-4.1719-0.011719-8.1719-1.668-11.129-4.6094l-9.7773-9.7773c-5.918-5.8906-13.918-9.207-22.262-9.2266h-4.0625c-8.3477 0.019532-16.348 3.3359-22.262 9.2266l-9.7773 9.7773c-2.9609 2.9414-6.9609 4.5977-11.133 4.6094h-4.0625c-4.1719-0.011719-8.1719-1.668-11.129-4.6094l-9.7773-9.7773c-5.9141-5.8906-13.914-9.207-22.262-9.2266h-5.9688v15.742h5.9688c4.1719 0.015625 8.1719 1.6719 11.129 4.6133l9.7773 9.7773c5.918 5.8867 13.918 9.2031 22.262 9.2266h4.0625c8.3477-0.023437 16.348-3.3398 22.262-9.2266l9.7773-9.7773c2.9609-2.9414 6.9609-4.5977 11.133-4.6133h4.0625c4.1719 0.015625 8.1719 1.6719 11.129 4.6133l9.7773 9.7773c5.918 5.8867 13.918 9.2031 22.262 9.2266h4.0625c8.3477-0.023437 16.348-3.3398 22.262-9.2266l9.7773-9.7773c2.9609-2.9414 6.957-4.5977 11.133-4.6133h4.0625c4.1719 0.015625 8.1719 1.6719 11.129 4.6133l9.7773 9.7773c5.9141 5.8867 13.914 9.2031 22.262 9.2266h4.0625c8.3477-0.023437 16.348-3.3398 22.262-9.2266l9.7773-9.7773c2.9609-2.9414 6.957-4.5977 11.133-4.6133h5.9648v-15.742h-5.9688 0.003906c-8.3477 0.019532-16.348 3.3359-22.266 9.2266z"/>
  <path d="m481.98 558.79-9.7773 9.7773c-2.957 2.9414-6.957 4.5977-11.129 4.6133h-4.0625c-4.1719-0.015625-8.1719-1.6719-11.133-4.6133l-9.7773-9.7773h0.003906c-5.918-5.8867-13.918-9.2031-22.266-9.2266h-4.0625 0.003906c-8.3477 0.023438-16.348 3.3398-22.266 9.2266l-9.7773 9.7773h0.003906c-2.9609 2.9414-6.9609 4.5977-11.133 4.6133h-4.0625c-4.1719-0.015625-8.1719-1.6719-11.129-4.6133l-9.7773-9.7773c-5.918-5.8867-13.918-9.2031-22.262-9.2266h-4.0625c-8.3477 0.023438-16.348 3.3398-22.262 9.2266l-9.7773 9.7773c-2.9609 2.9414-6.9609 4.5977-11.133 4.6133h-4.0625c-4.1719-0.015625-8.1719-1.6719-11.129-4.6133l-9.7773-9.7773c-5.918-5.8867-13.918-9.2031-22.262-9.2266h-5.9688v15.742h5.9688v0.003906c4.1719 0.011719 8.1719 1.668 11.129 4.6133l9.7773 9.7773v-0.003906c5.918 5.8906 13.918 9.207 22.262 9.2266h4.0625c8.3477-0.019531 16.348-3.3359 22.262-9.2266l9.7773-9.7773v0.003906c2.9609-2.9453 6.957-4.6016 11.133-4.6133h4.0625c4.1719 0.011719 8.1719 1.668 11.129 4.6133l9.7773 9.7773v-0.003906c5.9141 5.8906 13.914 9.207 22.262 9.2266h4.0625c8.3477-0.019531 16.348-3.3359 22.262-9.2266l9.7773-9.7773v0.003906c2.9609-2.9453 6.957-4.6016 11.133-4.6133h4.0625-0.003906c4.1758 0.011719 8.1719 1.668 11.133 4.6133l9.7773 9.7773v-0.003906c5.9141 5.8906 13.914 9.207 22.262 9.2266h4.0625c8.3477-0.019531 16.348-3.3359 22.262-9.2266l9.7773-9.7773v0.003906c2.957-2.9453 6.957-4.6016 11.129-4.6133h5.9688v-15.746h-5.9688c-8.3438 0.023438-16.344 3.3398-22.262 9.2266z"/>
 </g>
</svg>