<?xml version="1.0" encoding="UTF-8"?>
<!-- The Best Svg Icon site in the world: iconSvg.co, Visit us! https://iconsvg.co -->
<svg fill="#000000" width="800px" height="800px" version="1.1" viewBox="144 144 512 512" xmlns="http://www.w3.org/2000/svg">
 <g>
  <path d="m517.77 385.52c-2.6758-1.418-7.8711-3.4648-22.355-3.4648-8.9727 0-17.477 0.78906-17.477 0.78906l-11.336 1.1016 5.0391 10.234c3.9375 8.0312 14.168 27.551 22.984 32.59 5.8242 3.1484 17.789 6.6133 28.023 6.6133 4.4102 0 8.1875-0.62891 11.18-2.2031v10.391h15.586c0.15625 0.31641 0.15625 0.47266 0.15625 0.78906v-11.18c2.9922 1.5742 6.7695 2.2031 11.18 2.2031 10.234 0 22.199-3.4648 28.023-6.6133 8.8164-5.0391 19.051-24.562 22.984-32.59l5.0391-10.234-11.336-1.1016s-8.5-0.78906-17.477-0.78906c-14.484 0-19.68 2.0469-22.355 3.4648-4.5664 2.6758-11.02 8.3438-16.059 14.801v-20.469c2.9922 1.5742 6.7695 2.2031 11.18 2.2031 10.234 0 22.199-3.3047 28.023-6.6133 8.8164-5.0391 19.051-24.562 22.984-32.59l5.0391-10.234-11.336-1.1016s-8.5-0.78906-17.477-0.78906c-14.484 0-19.68 2.0469-22.355 3.4648-3.7773 2.2031-10.707 7.8711-16.059 14.801v-4.5664c10.707-7.5586 15.742-29.125 15.742-36.684 0-10.078-11.965-28.496-17.16-36.055l-6.4531-9.2891-6.4531 9.2891c-5.1953 7.5586-17.16 25.977-17.16 36.055 0 7.5586 5.0391 29.125 15.742 36.684v4.5664c-5.3516-6.9258-12.281-12.594-16.059-14.801-2.6758-1.418-7.8711-3.4648-22.355-3.4648-8.9727 0-17.477 0.78906-17.477 0.78906l-11.336 1.1016 5.0391 10.234c3.9375 8.0312 14.168 27.551 22.984 32.59 5.8242 3.3047 17.789 6.6133 28.023 6.6133 4.4102 0 8.1875-0.62891 11.18-2.2031v20.309c-4.8828-5.9844-11.18-11.965-16.059-14.641z"/>
  <path d="m360.32 385.52c-2.6758-1.418-7.8711-3.4648-22.355-3.4648-8.9727 0-17.477 0.78906-17.477 0.78906l-11.336 1.1016 5.0391 10.234c3.9375 8.0312 14.168 27.551 22.984 32.59 5.668 3.1484 17.789 6.6133 28.023 6.6133 4.4102 0 8.1875-0.62891 11.18-2.2031v10.391h15.742v-10.391c2.9922 1.5742 6.7695 2.2031 11.18 2.2031 10.234 0 22.199-3.4648 28.023-6.6133 8.8164-5.0391 19.051-24.562 22.984-32.59l5.0391-10.234-11.336-1.1016s-8.5-0.78906-17.477-0.78906c-14.484 0-19.68 2.0469-22.355 3.4648-4.8789 2.6758-11.18 8.6602-16.059 14.641v-20.309c2.9922 1.5742 6.7695 2.2031 11.18 2.2031 10.234 0 22.199-3.3047 28.023-6.6133 8.8164-5.0391 19.051-24.562 22.984-32.59l5.0391-10.234-11.336-1.1016s-8.5-0.78906-17.477-0.78906c-14.484 0-19.68 2.0469-22.355 3.4648-3.7773 2.2031-10.707 7.8711-16.059 14.801v-4.5664c10.707-7.5586 15.742-29.125 15.742-36.684 0-10.078-11.965-28.496-17.16-36.055l-6.4531-9.2891-6.4531 9.2891c-5.1953 7.5586-17.16 25.977-17.16 36.055 0 7.5586 5.0391 29.125 15.742 36.684v4.5664c-5.3516-6.9258-12.281-12.594-16.059-14.801-2.6758-1.418-7.8711-3.4648-22.355-3.4648-8.9727 0-17.477 0.78906-17.477 0.78906l-11.336 1.1016 5.0391 10.234c3.9375 8.1875 14.168 27.551 22.984 32.59 5.8242 3.3047 17.789 6.6133 28.023 6.6133 4.4102 0 8.1875-0.62891 11.18-2.2031v20.469c-5.3516-6.9297-12.281-12.598-16.059-14.801z"/>
  <path d="m582.95 610.81c-0.62891 2.832-1.1016 5.3516-1.2578 7.8711h38.727v-100.92c-2.6758 4.5664-5.3516 9.4453-7.8711 14.328-14.168 26.918-25.504 56.676-29.598 78.719z"/>
  <path d="m217.84 466.75c2.3633-2.3633 6.2969-5.668 11.02-9.4453 2.9922-2.5195 6.2969-5.1953 9.6055-7.8711l-58.883-0.003906v62.031c2.3633-3.3047 5.0391-6.7695 7.8711-10.234 9.918-12.594 20.941-25.344 30.387-34.477z"/>
  <path d="m304.59 457.31c2.832-2.5195 5.8242-5.1953 8.8164-7.8711l-49.438-0.003906-6.9258 5.3516c-0.94531 0.78906-2.0469 1.5742-2.9922 2.5195-9.1328 7.0859-20.781 16.375-25.348 20.781-13.227 12.754-29.441 32.59-41.25 49.121-2.9922 3.9375-5.668 7.7148-7.8711 11.18v80.293h37.473c0.15625-2.5195 0.31641-5.1953 0.78906-7.8711 5.0391-42.035 30.699-99.816 76.516-144.06 2.1992-2.1992 5.9805-5.6641 10.23-9.4414z"/>
  <path d="m369.93 457.31c2.2031-1.8906 4.5664-3.9375 6.7695-5.8242 0.78906-0.62891 1.7305-1.418 2.5195-2.0469l-2.832-0.003906h-38.414c-2.3633 1.8906-5.8242 4.7227-9.4453 7.8711-8.5 7.3984-18.895 16.531-23.301 20.781-42.035 40.461-66.281 94.465-71.637 132.72-0.31641 2.6758-0.62891 5.3516-0.78906 7.8711h46.602c0-2.5195 0.15625-5.1953 0.47266-7.8711 4.5664-44.715 35.738-101.71 79.664-144.06 2.3633-2.3594 6.1406-5.6641 10.391-9.4414z"/>
  <path d="m446.91 457.31c2.9922-2.5195 6.4531-5.1953 9.7617-7.8711h-52.898c-2.3633 1.8906-5.668 4.7227-9.4453 7.8711-8.6602 7.2422-19.363 16.375-23.93 20.781-40.305 38.887-69.902 92.262-74.625 132.72-0.47266 2.6758-0.62891 5.3516-0.62891 7.8711h65.496c0-2.5195 0-5.1953 0.31641-7.8711 3.9375-46.602 33.379-103.75 75.098-144.06 2.3555-2.3633 6.293-5.668 10.855-9.4453z"/>
  <path d="m511.62 457.31c2.9922-2.5195 5.9844-5.1953 9.1328-7.8711h-38.258c-1.8906 1.5742-4.5664 3.6211-7.7148 5.9844-0.78906 0.62891-1.5742 1.1016-2.3633 1.8906-8.9727 6.9258-21.098 16.375-25.504 20.781-44.398 42.824-66.281 95.723-69.902 132.72-0.31641 2.6758-0.47266 5.3516-0.47266 7.8711h47.391c0.15625-2.5195 0.31641-5.1953 0.78906-7.8711 5.0391-42.035 30.699-99.816 76.516-144.06 2.3555-2.3672 6.1328-5.8281 10.387-9.4492z"/>
  <path d="m579.8 457.31c2.9922-2.6758 5.9844-5.3516 9.1328-7.8711h-43.609c-2.0469 1.7305-4.8789 3.9375-8.0312 6.6133-0.47266 0.47266-0.94531 0.78906-1.418 1.2578-8.6602 7.2422-19.363 16.375-23.773 20.781-42.035 40.461-66.281 94.465-71.637 132.72-0.31641 2.6758-0.62891 5.3516-0.78906 7.8711h52.27c0-2.5195 0.31641-5.1953 0.78906-7.8711 4.8789-42.035 30.699-99.816 76.516-144.06 2.3633-2.3633 6.2969-5.8242 10.551-9.4453z"/>
  <path d="m613.49 449.43c-2.5195 1.8906-5.8242 4.7227-9.6055 7.8711-8.6602 7.2422-19.207 16.375-23.617 20.781-42.195 40.461-66.281 94.465-71.637 132.72-0.31641 2.6758-0.62891 5.3516-0.78906 7.8711h57.938c0.31641-2.5195 0.62891-5.0391 1.1016-7.8711 5.3516-31.332 23.617-75.887 45.656-110.37 2.5195-4.0938 5.1953-8.0312 7.8711-11.652v-39.359z"/>
  <path d="m254.68 204.3v-15.113c0-4.4102-3.6211-7.8711-7.8711-7.8711-4.4102 0-7.8711 3.4648-7.8711 7.8711v14.957c2.5195-0.47266 5.1953-0.78906 7.8711-0.78906 2.6758 0 5.3516 0.31641 7.8711 0.94531z"/>
  <path d="m238.94 276.88v15.113c0 4.4102 3.4648 7.8711 7.8711 7.8711 4.25 0 7.8711-3.4648 7.8711-7.8711v-15.113c-2.5195 0.62891-5.1953 0.94531-7.8711 0.94531-2.6758 0-5.3516-0.3125-7.8711-0.94531z"/>
  <path d="m283.96 240.51c0 2.6758-0.31641 5.3516-0.94531 7.8711h15.113c4.4102 0 7.8711-3.4648 7.8711-7.8711 0-4.25-3.4648-7.8711-7.8711-7.8711h-15.113c0.62891 2.5195 0.94531 5.1953 0.94531 7.8711z"/>
  <path d="m195.32 248.38h14.957c-0.47266-2.5195-0.78516-5.1953-0.78516-7.8711s0.31641-5.3516 0.94531-7.8711h-15.117c-4.4102 0-7.8711 3.6211-7.8711 7.8711 0 4.4062 3.4648 7.8711 7.8711 7.8711z"/>
  <path d="m277.98 220.52 11.02-11.18c3.1484-2.9922 3.1484-8.0312 0-11.02-2.9922-3.1484-8.0312-3.1484-11.02 0l-11.02 10.863c4.4102 2.9922 8.1875 6.9297 11.02 11.336z"/>
  <path d="m215.32 260.82-10.863 10.863c-3.1484 3.1484-3.1484 8.0312 0 11.18 1.5742 1.5742 3.6211 2.3633 5.5117 2.3633 2.0469 0 4.0938-0.78906 5.668-2.3633l11.02-11.02c-4.4062-2.8359-8.3438-6.6133-11.336-11.023z"/>
  <path d="m266.8 271.84 11.18 11.02c1.418 1.5742 3.4648 2.3633 5.5117 2.3633s4.0938-0.78906 5.5117-2.3633c3.1484-3.1484 3.1484-8.0312 0-11.18l-11.02-11.02c-2.8398 4.5664-6.6172 8.3438-11.184 11.18z"/>
  <path d="m215.32 220.36c2.9922-4.4102 6.7695-8.1875 11.18-11.18l-10.863-10.863c-3.1484-3.1484-8.1875-3.1484-11.18 0-3.1484 2.9922-3.1484 8.0312 0 11.02z"/>
  <path d="m221.62 225.55c-1.418 2.2031-2.5195 4.7227-2.9922 7.2422-0.94141 2.5195-1.2578 5.0391-1.2578 7.7148s0.31641 5.1953 1.2617 7.7148c0.47266 2.5195 1.5742 5.0391 2.9922 7.2422 2.3633 4.25 5.9844 7.8711 10.234 10.234 2.2031 1.418 4.7227 2.5195 7.2422 2.9922 2.5156 0.94141 5.0352 1.2578 7.7109 1.2578 2.6758 0 5.1953-0.31641 7.7148-1.2578 2.5195-0.47266 5.0391-1.5742 7.2422-2.9922 4.25-2.3633 7.7148-5.9844 10.078-10.234 1.5742-2.2031 2.5195-4.7227 2.9922-7.2422 0.94141-2.5195 1.2578-5.0391 1.2578-7.7148s-0.31641-5.1953-1.2617-7.7148c-0.47266-2.5195-1.5742-5.0391-2.9922-7.2422-2.3633-4.25-5.9844-7.8711-10.234-10.078-2.2031-1.5742-4.5664-2.5195-7.0859-2.9922-2.5156-0.94141-5.0352-1.2578-7.7109-1.2578-2.6758 0-5.1953 0.31641-7.7148 1.2578-2.5195 0.47656-4.8789 1.418-7.0859 2.9922-4.25 2.207-7.8711 5.8281-10.391 10.078z"/>
 </g>
</svg>