<?xml version="1.0" encoding="UTF-8"?>
<!-- The Best Svg Icon site in the world: iconSvg.co, Visit us! https://iconsvg.co -->
<svg fill="#000000" width="800px" height="800px" version="1.1" viewBox="144 144 512 512" xmlns="http://www.w3.org/2000/svg">
 <path d="m203.51 601.52h392.97c2.7812 0 5.0391-2.2539 5.0391-5.0391v-111.24c0-19.938-9.4492-38.336-24.52-50.254-0.011718-2.2656-0.046875-4.5195-0.10547-6.7695 1.2344-25.113 6.7383-115.43 24.445-180.55 0.41406-1.5156 0.09375-3.1406-0.86328-4.3867-0.95312-1.2461-2.4297-1.9727-3.9961-1.9727h-0.015625l-24.582 0.066406c0.28906-8.3359 1.1367-26.867 3.2188-36.832 0.30859-1.4844-0.066407-3.0273-1.0234-4.207-0.95312-1.1758-2.3867-1.8594-3.9062-1.8594h-68.445c-1.5039 0-2.9297 0.67188-3.8867 1.8359-0.95703 1.1602-1.3438 2.6875-1.0586 4.1641 0.035156 0.19141 3.4961 18.148 4.4766 36.977h-39.781c-1.8203 0-3.5 0.98438-4.3945 2.5703-0.89063 1.5898-0.85547 3.5352 0.089843 5.0898 37.285 61.18 43.938 120.45 45.121 139.09-3.2578-0.43359-6.5664-0.65625-9.9023-0.65625-10.879 0-21.496 2.4297-31.199 6.8594-1.7305-10.785-7.0977-20.883-15.652-28.992-10.66-10.105-25.137-16.121-40.621-17.215v-16.07c3.6289 1.3945 7.4766 2.1758 11.453 2.1758 17.738 0 32.164-14.43 32.164-32.164 0-7.3086-2.5273-14.387-7.0586-20.055 4.5312-5.6719 7.0586-12.75 7.0586-20.059 0-13.137-7.8906-24.699-19.703-29.633 0.24219-1.5195 0.36719-3.0508 0.36719-4.582 0.007813-16.18-13.145-29.332-29.312-29.332s-29.32 13.152-29.32 29.32c0 1.5312 0.12109 3.0625 0.36719 4.582-11.812 4.9375-19.703 16.5-19.703 29.637 0 7.3086 2.5273 14.387 7.0586 20.059-4.5312 5.668-7.0586 12.746-7.0586 20.055 0 17.738 14.43 32.164 32.164 32.164 3.9766 0 7.8281-0.77734 11.457-2.1758v16.035c-26.223 1.8203-48.141 17.895-54.836 39.879-2.5195-0.30078-5.0664-0.49609-7.6406-0.49609-12.734 0-24.824 3.7852-35.031 10.457 1.7344-24.543 9.6367-90.074 45.473-148.88 0.94531-1.5547 0.98047-3.5 0.089844-5.0898-0.89453-1.5859-2.5742-2.5703-4.3945-2.5703h-39.781c0.98047-18.805 4.4414-36.785 4.4766-36.977 0.28906-1.4766-0.10156-3.0078-1.0586-4.168-0.95703-1.1562-2.3789-1.8281-3.8867-1.8281h-68.441c-1.5195 0-2.9531 0.68359-3.9102 1.8594-0.95703 1.1797-1.332 2.7227-1.0234 4.207 2.0781 9.957 2.9297 28.496 3.2188 36.832l-24.582-0.066406h-0.015625c-1.5664 0-3.0469 0.72656-3.9961 1.9727-0.95703 1.2461-1.2773 2.8711-0.86328 4.3867 19.117 70.309 24.195 171.41 24.875 186.87-15.203 11.727-25.051 30.066-25.051 50.707v111.24c0 2.7812 2.2539 5.0391 5.0352 5.0391zm367.36-229.38c-7.0234-37.613-18.824-69.906-28.812-92.699 0.28516-3.1719 2.7266-15.672 5.3203-27.922l42.566-0.11719c-9.8164 38.613-15.672 84.523-19.074 120.74zm-63.141-163.59h56.488c-1.5391 11.062-2.1836 25.812-2.418 32.852l-18.512 0.050781c-2.3672 0.007813-4.4141 1.6602-4.9141 3.9766-1.0938 5.0781-2.5078 11.77-3.7344 17.98-6.0273-12.301-10.273-19.312-10.422-19.555-0.91406-1.4922-2.543-2.4023-4.293-2.4023h-8.5859c-0.64844-13.164-2.4375-25.762-3.6094-32.902zm-37.422 42.977h46.727c7.9922 13.992 47.379 87.32 49.793 176.32-0.007813 0.17188-0.015625 0.33203-0.023437 0.49609-3.0469-1.5781-6.2383-2.9297-9.5664-4.0117-10.094-16.84-26.23-28.891-44.699-34.027-0.64844-15.641-5.5508-74.719-42.23-138.78zm-86.914 72.688c-12.18 0-22.09-9.9102-22.09-22.09 0-6.1836 2.6484-12.137 7.2578-16.328 1.0508-0.95312 1.6523-2.3086 1.6523-3.7305 0-1.418-0.59766-2.7734-1.6484-3.7266-4.6133-4.1953-7.2617-10.148-7.2617-16.332 0-10.191 6.9219-19.004 16.832-21.43 1.3789-0.33594 2.5469-1.2344 3.2266-2.4805 0.67969-1.2422 0.80078-2.7148 0.33984-4.0547-0.70703-2.0508-1.0625-4.1523-1.0625-6.2539 0.003906-10.605 8.6367-19.238 19.25-19.238s19.246 8.6328 19.246 19.246c0 2.1016-0.35547 4.2031-1.0625 6.2539-0.46094 1.3398-0.33984 2.8125 0.33984 4.0547 0.67969 1.2461 1.8516 2.1445 3.2266 2.4805 9.9102 2.4258 16.832 11.238 16.832 21.43 0 6.1836-2.6484 12.137-7.2617 16.332-1.0508 0.95312-1.6484 2.3086-1.6484 3.7266s0.60156 2.7734 1.6523 3.7305c4.6133 4.1914 7.2578 10.145 7.2578 16.328 0 12.18-9.9102 22.09-22.09 22.09-4.0938 0-7.9922-1.1758-11.453-3.3086v-67.078c0-2.7812-2.2539-5.0391-5.0391-5.0391-2.7812 0-5.0391 2.2539-5.0391 5.0391v67.078c-3.4609 2.125-7.3594 3.3008-11.457 3.3008zm13.125 33.898c16.074-0.84766 31.402 4.4609 42.102 14.605 7.8906 7.4805 12.438 16.965 13.051 26.918-6.457 4.1523-12.355 9.2305-17.348 15.234-16.145-10.316-36.516-12.84-54.801-6.6406-8.0781-8.7852-18.336-14.973-29.598-18.176 5.9023-17.582 24.844-30.781 46.594-31.941zm-109.72 48.508c-4.5547 4.6172-8.4688 9.9336-11.5 15.879-4.2695-0.88281-8.543-1.3281-12.75-1.3281-10.344 0-20.09 2.5195-28.746 6.8906 2.3477-88.945 41.254-162.45 49.18-176.54h46.73c-39.551 69.781-42.668 144-42.914 155.09zm-51.02-198.07h56.488c-1.1719 7.1406-2.9609 19.738-3.6094 32.898h-8.5859c-1.7617 0-3.3945 0.92188-4.3086 2.4297-0.14453 0.23828-4.1992 7.0352-9.9805 18.93-1.668-7.5586-3.582-15.133-4.2031-17.57-0.56641-2.2227-2.5703-3.7812-4.8672-3.7891l-18.512-0.050781c-0.23828-7.0352-0.88281-21.785-2.4219-32.848zm16.988 42.965c2.8711 11.547 5.5078 23.668 5.6914 27.238-10.094 23.227-22.148 56.555-29.109 95.395-3.4375-36.789-9.3672-83.676-19.297-122.75zm-44.215 233.73c0-29.773 24.223-53.996 53.996-53.996 4.6719 0 9.4648 0.66016 14.242 1.9648 2.4336 0.65625 4.9609-0.56641 5.957-2.875 8.5352-19.879 28.016-32.727 49.629-32.727 16.211 0 31.426 7.1953 41.734 19.738 1.3945 1.6992 3.7305 2.2969 5.7695 1.4766 17.465-7.0117 37.465-4.3359 52.461 6.9219 1.0781 0.8125 2.4375 1.1641 3.7695 0.95312 1.332-0.19922 2.5352-0.92578 3.3242-2.0156 12.328-16.949 32.129-27.07 52.961-27.07 23.594 0 45.469 12.809 57.086 33.43 0.64844 1.1523 1.7188 2 2.9883 2.3672 22.949 6.6406 38.977 27.957 38.977 51.832v106.2h-382.89z"/>
</svg>