<?xml version="1.0" encoding="UTF-8"?>
<!-- The Best Svg Icon site in the world: iconSvg.co, Visit us! https://iconsvg.co -->
<svg fill="#000000" width="800px" height="800px" version="1.1" viewBox="144 144 512 512" xmlns="http://www.w3.org/2000/svg">
 <path d="m507.13 267.78c0-4.6055 2.9648-8.0781 6.9023-8.0781 3.9336 0 6.9023 3.4727 6.9023 8.0781 0 4.6055-2.9688 8.082-6.9023 8.082-3.9375 0-6.9023-3.4766-6.9023-8.082zm-239.18 143.84c3.6797 3.0391 5.957 7.332 6.4141 12.082 0.45703 4.7539-0.96484 9.3984-4.0078 13.078l-35.152 42.609 1.9883 150.38c0.035157 2.7227-0.99609 5.2773-2.9062 7.2188-1.9102 1.9336-4.4531 2.9961-7.1719 2.9961h-20.453c-2.7148 0-5.2617-1.0625-7.1719-2.9961-1.9102-1.9336-2.9414-4.4961-2.9062-7.2109l1.9922-150.38-35.156-42.613c-3.0391-3.6836-4.4609-8.3281-4.0039-13.078 0.45703-4.7539 2.7344-9.043 6.418-12.082 7.5977-6.2617 18.887-5.1875 25.156 2.4102l8.3203 10.082 0.61719-46.473-29.707-36c-5.6523-6.8516-4.6758-17.027 2.1758-22.684 6.8555-5.6562 17.027-4.6758 22.684 2.1719l5.5117 6.6797 0.48438-36.609c0.11719-8.6094 7.2109-15.609 15.816-15.609 8.6094 0 15.703 7.0039 15.82 15.609l0.48438 36.613 5.5117-6.6797c5.6562-6.8516 15.828-7.832 22.68-2.1758h0.003906c6.8516 5.6562 7.8242 15.832 2.1719 22.688l-29.707 35.996 0.61719 46.562 8.3164-10.168c6.2734-7.6016 17.562-8.6758 25.16-2.4102zm-68.848 28.078-15.887-19.25c-1.3242-1.6094-3.1953-2.6016-5.2695-2.8008-2.0781-0.20312-4.0977 0.41797-5.7031 1.7461-1.6094 1.3242-2.6016 3.1992-2.8008 5.2695-0.19531 2.0703 0.42188 4.0977 1.7461 5.7031l27.594 33.441zm1.2773-96.309-13.078-15.848c-1.1914-1.4453-2.9219-2.1875-4.6602-2.1875-1.3516 0-2.7148 0.44922-3.8359 1.3789-2.5664 2.1172-2.9336 5.9297-0.81641 8.5l22.141 26.832zm26.738 286.52-4.4844-338.58c-0.042969-3.125-2.6172-5.668-5.7422-5.668s-5.6992 2.543-5.7422 5.668l-4.4844 338.58zm6.5273-267.85 22.141-26.828c2.1211-2.5664 1.7539-6.3789-0.8125-8.5-2.5664-2.1211-6.3789-1.75-8.4961 0.8125l-13.078 15.848zm27.887 57.34c-3.3164-2.7344-8.2344-2.2539-10.977 1.0547l-15.879 19.25 0.32031 24.258 27.586-33.586c2.7383-3.3203 2.2656-8.2422-1.0508-10.977zm379.12 215.55c0 2.7852-2.2539 5.0391-5.0391 5.0391-34.074 0-61.801-31.211-61.801-69.574l0.003907-81.688c0-1.6016-0.12891-3.1641-0.32812-4.6992h-6.9219c-5.5547 0-10.078-4.5234-10.078-10.078v-12.172c0-0.36328 0.089844-0.70312 0.10547-1.0625-0.80859-0.25391-1.6328-0.45703-2.4727-0.59375l2.1875 30.836 0.007813 76.461c1.7969 1.8203 2.9141 4.3164 2.9141 7.0703v24.59c10.668 3.7305 18.352 13.867 18.352 25.793 0 8.3359-6.7812 15.113-15.113 15.113l-63.539 0.003907c-2.7852 0-5.0391-2.2539-5.0391-5.0391v-60.457c0-1.8359 0.53125-3.5391 1.3945-5.0234l-2.6445-65.012c-0.054688-1.3125-1.0391-2.3438-2.2422-2.3438-1.207 0-2.1875 1.0273-2.2422 2.3359l-2.6406 65.02c0.86328 1.4844 1.3945 3.1836 1.3945 5.0195v60.457c0 2.7852-2.2539 5.0391-5.0391 5.0391l-63.559 0.003907c-8.3359 0-15.113-6.7812-15.113-15.113 0-11.926 7.6875-22.062 18.355-25.793v-24.59c0-2.7461 1.1133-5.2383 2.9023-7.0586v-76.121l2.2266-31.457h-2.5859c0.0625 0.64453 0.19531 1.2656 0.19531 1.9219v12.172c0 5.5547-4.5234 10.078-10.078 10.078h-29.406c-5.5586 0-10.078-4.5234-10.078-10.078v-12.172c0-0.66016 0.13281-1.2812 0.19531-1.9219h-8.6172c-5.5586 0-10.078-4.5234-10.078-10.078v-10.078c0-5.5547 4.5195-10.078 10.078-10.078h23.91l26.051-60.797c5.4648-11.484 13.375-21.047 22.863-27.969 0.14062-5.4336 4.582-9.8164 10.051-9.8164h13.27c1.5039 0 2.918 0.35547 4.2031 0.94922v-7.8125c-1.6094-1.0195-3.1758-2.1211-4.6953-3.3203h-23.191c-8.1875 0-15.012-6.2109-15.543-14.141l-1.6758-25.273c-0.21484-0.48438-0.46484-0.9375-0.65234-1.4414-1.8359-4.9492-1.8984-10.195-0.42578-14.82l-1.5977-24.09c-13.117-5.1484-21.52-12.105-21.52-20.844 0-11.855 15.383-20.453 37.191-25.652 8.5938-20.246 30.555-34.57 55.844-34.57 25.285 0 47.246 14.324 55.84 34.57 21.805 5.1992 37.188 13.801 37.188 25.652 0 8.7422-8.4023 15.699-21.527 20.848l-1.5938 24.07c1.4805 4.625 1.418 9.8789-0.41797 14.836v0.003906c-0.1875 0.51172-0.44141 0.97266-0.66016 1.4609l-1.6719 25.254c-0.52344 7.9297-7.3438 14.141-15.539 14.141h-23.191c-1.5156 1.1992-3.082 2.3008-4.6953 3.3203v7.8086c1.2812-0.59375 2.6953-0.94531 4.1953-0.94531h13.27c5.4648 0 9.9062 4.3789 10.051 9.8125 9.4844 6.9102 17.379 16.441 22.785 27.793l32.766 76.457c5.3359 3.6289 8.8516 9.7461 8.8516 16.676v12.172c0 2.5586-0.98828 4.8711-2.5664 6.6523 0.32812 2.6641 0.55859 5.3594 0.55859 8.125v81.688c0 21.695 14.164 39.344 31.57 39.344 2.7852 0 5.0391 2.2539 5.0391 5.0391 0 2.7852-2.2539 5.0391-5.0391 5.0391-22.965 0-41.648-22.172-41.648-49.422l0.015624-81.691c0-1.5859-0.078124-3.1523-0.20703-4.6992h-10.129c0.15625 1.543 0.26172 3.1055 0.26172 4.6992v81.688c0 32.805 23.203 59.496 51.723 59.496 2.7852 0 5.0352 2.2539 5.0352 5.0391zm-98.98-259.43c3.8633 1.1602 6.7812 4.4922 7.0664 8.5742l2.6133 36.879 4.0508 8.8906c10.316 0.91016 19.781 5.1523 27.59 11.762h1.7539l-29.492-68.824c-3.4414-7.2148-8.0977-13.57-13.586-18.812zm-23.344-0.47266h13.27v-33.93h-13.27zm30.055-82.305c-2.3242 1.0664-4.7812 1.6953-7.2539 1.6953-0.67188 0-1.3477-0.085938-2.0156-0.17188-2.7578 5.9727-6.1914 11.559-10.199 16.516h13.109c2.8984 0 5.3086-2.0781 5.4805-4.7305zm2.0078-25.629c-0.55469-1.2031-1.625-2.7852-3.5469-3.4844-0.0625-0.023438-0.12891-0.011719-0.19141-0.035156-0.26953 6.8242-1.5 13.75-3.6016 20.457 3.0156-0.86328 5.9492-3.6719 7.3906-7.5508 1.1953-3.2266 1.1758-6.7383-0.050781-9.3867zm1.1914-22.609c-2.2227 0.62109-4.5156 1.2031-6.8945 1.7461 0.52344 0.94531 0.89844 1.9922 1.0898 3.1133 0.22656 1.3281 0.36328 2.6445 0.51172 3.9648 1.3516 0.11328 2.6953 0.35547 4.0078 0.83594 0.21875 0.078125 0.41016 0.21484 0.625 0.30469zm-110.7-34c6.582 4.7422 24.43 9.5703 49.516 9.5703s42.934-4.8281 49.496-9.6094c-1.75-22.613-23.504-40.359-49.496-40.359-25.992-0.003906-47.746 17.742-49.516 40.398zm49.516 31.195c50.637 0 82.953-12.707 82.953-21.453 0-4.5078-8.6445-10.059-23.902-14.387 0.20703 1.2734 0.41016 2.5508 0.51172 3.8555 0.26562 3.4375-1.3203 6.8398-4.1328 8.8906-9.7656 7.1211-31.008 11.543-55.43 11.543s-45.664-4.4219-55.43-11.543c-2.8242-2.0547-4.4023-5.4648-4.1328-8.8945 0.10156-1.3008 0.30859-2.5742 0.51172-3.8477-15.262 4.3281-23.906 9.8789-23.906 14.391 0 8.7383 32.312 21.445 82.957 21.445zm-61.199 2.8008 0.66406 9.9688c0.21484-0.089844 0.40625-0.22656 0.62891-0.30469 1.3125-0.48047 2.6523-0.72266 4.0039-0.83984 0.20312-1.7852 0.42969-3.5742 0.77344-5.3789 0.11719-0.61328 0.34375-1.1875 0.57812-1.7539-2.293-0.52734-4.5039-1.0898-6.6484-1.6914zm1.1523 32.004c1.4414 3.8789 4.3789 6.6758 7.3867 7.5391-2.0977-6.707-3.332-13.629-3.5977-20.449-0.0625 0.019531-0.13281 0.011718-0.19531 0.035156-1.9219 0.69922-2.9922 2.2852-3.5469 3.4883-1.2227 2.6484-1.2422 6.1562-0.046875 9.3867zm21.531 34.277c-4.0117-4.9609-7.4453-10.547-10.199-16.52-0.67188 0.085938-1.3477 0.17188-2.0234 0.17188-2.4766 0-4.9297-0.62891-7.2578-1.6953l0.88281 13.309c0.17578 2.6523 2.5898 4.7305 5.4844 4.7305zm38.516 10.543c26.074 0 46.301-32.52 46.301-60.496 0-3.0859-0.27734-6.3008-0.81641-9.5508-3.8164-0.24219-7.9023-0.73438-12.113-1.4414-10.699 1.2852-22.047 1.9453-33.375 1.9453-14.398 0-28.848-1.0508-41.922-3.125-1.125 0.51953-2.2539 1.0352-3.4688 1.5195-0.55078 3.3984-0.91016 7.0977-0.91016 10.652 0 27.973 20.227 60.496 46.305 60.496zm-17.859 24.387v29.336h35.715v-29.328c-11.887 1.7773-23.898 1.7695-35.715-0.007813zm31.516-9.6055v-7.0898c-4.3516 1.4883-8.9023 2.3789-13.656 2.3789-4.7578 0-9.3086-0.89453-13.656-2.3789v7.0898c9.0703 1.1406 18.238 1.1406 27.312 0zm-54.863 38.941h13.27v-33.93h-13.27zm-10.277 54.582h14.121v-21.539c0-5.5547 4.5234-10.078 10.078-10.078h54.574c5.5547 0 10.078 4.5234 10.078 10.078v21.539h14.113l-3.1602-44.48-96.648-0.023437zm78.77-21.543h-54.574v21.539h54.574zm-116.5 21.543h24.312l3.9414-8.6484 2.6133-36.891c0.29297-4.0781 3.2109-7.4062 7.0664-8.5664v-21.52c-5.5 5.2617-10.176 11.66-13.656 18.98zm13.035 32.152c0-5.5547-4.5234-10.078-10.074-10.078h-9.2578c-5.5586 0-10.078 4.5234-10.078 10.078v12.172h29.406zm62.609 163.09c0-9.5195-7.7422-17.266-17.266-17.266h-29.023c-9.5195 0-17.266 7.7422-17.266 17.266 0 2.7812 2.2617 5.0391 5.0391 5.0391h58.516zm0-50.383h-45.195v23.039h27.93c6.543 0 12.555 2.3164 17.266 6.1641zm25.879-70.445 2.4531 60.367h41.094v-73.102l-2.2344-31.457h-107.25l-2.2539 31.812 0.007812 72.746h41.105l2.4531-60.375c0.26953-6.7305 5.6758-12.004 12.309-12.004 6.6328 0.003906 12.043 5.2773 12.312 12.012zm1.2578 70.445v29.203c4.7109-3.8477 10.719-6.1602 17.258-6.1602h27.938v-23.039zm46.285 33.117h-29.023c-9.5156 0-17.258 7.7422-17.258 17.266v5.0391h58.508c2.7812 0 5.0391-2.2578 5.0391-5.0391-0.003907-9.5234-7.7461-17.266-17.266-17.266zm17.754-163.96c-5.1562-2.5352-10.828-3.9453-16.785-3.9453l-184.9-0.003907v10.078h12.477c3.6797-4.918 9.4961-8.1523 16.094-8.1523h9.2578c6.6016 0 12.418 3.2344 16.094 8.1523h130.98c2.9023 0 5.707 0.49609 8.3867 1.3477 2.0312-3.2305 4.9375-5.8203 8.4023-7.4766zm27.973 30.301v-12.172c0-5.5547-4.5234-10.078-10.078-10.078h-9.2539c-5.5547 0-10.078 4.5234-10.078 10.078v12.172zm-91.301-179.8c0-2.3633-1.9141-4.2812-4.2812-4.2812-2.2305 0-4.0625 1.7031-4.2656 3.8828-0.11328 0.10937-0.32422 0.25391-0.57812 0.40234-0.89453 0.52344-2.6133 1.1602-5.1562 1.1602-2.543 0-4.2617-0.63672-5.1562-1.1602-0.25-0.14844-0.46484-0.28906-0.57812-0.40234-0.20312-2.1758-2.0352-3.8828-4.2656-3.8828-2.3672 0-4.2812 1.918-4.2812 4.2812 0 5.543 6.1367 9.7227 14.277 9.7227 8.1484 0.003907 14.285-4.1797 14.285-9.7227zm-37.906-34.445c-3.9336 0-6.9023 3.4727-6.9023 8.0781 0 4.6055 2.9688 8.082 6.9023 8.082s6.9023-3.4766 6.9023-8.082c0-4.6055-2.9648-8.0781-6.9023-8.0781zm-181.81 219.77-4.5938 2.0664c-2.5391 1.1406-3.6719 4.1211-2.5273 6.6602 0.83984 1.8711 2.6758 2.9727 4.5977 2.9727 0.69141 0 1.3945-0.14453 2.0625-0.44141l4.5938-2.0664c2.5391-1.1406 3.6719-4.1211 2.5273-6.6602-1.1406-2.5469-4.1289-3.668-6.6602-2.5312zm-4.5938-71.52 4.5938 2.0664c0.67188 0.30078 1.3711 0.44141 2.0625 0.44141 1.9219 0 3.7578-1.1055 4.5977-2.9727 1.1406-2.5391 0.011719-5.5195-2.5273-6.6602l-4.5938-2.0664c-2.543-1.1289-5.5234-0.003906-6.6602 2.5273-1.1406 2.543-0.007812 5.5234 2.5273 6.6641zm57.594 41.832h5.0391c2.7812 0 5.0391-2.2539 5.0391-5.0391s-2.2539-5.0391-5.0391-5.0391h-5.0391c-2.7812 0-5.0391 2.2539-5.0391 5.0391s2.2578 5.0391 5.0391 5.0391zm2.9727 4.5039-4.5938 2.0664c-2.5391 1.1406-3.6719 4.1211-2.5273 6.6602 0.83984 1.8633 2.6758 2.9727 4.5977 2.9727 0.69141 0 1.3906-0.14453 2.0625-0.44141l4.5938-2.0664c2.5391-1.1406 3.6719-4.1211 2.5273-6.6602-1.1445-2.5352-4.1211-3.668-6.6602-2.5312zm4.1328-28.277-4.5938-2.0664c-2.5312-1.1328-5.5195-0.003906-6.6602 2.5273-1.1406 2.5391-0.011718 5.5195 2.5273 6.6602l4.5938 2.0664c0.66797 0.30078 1.3711 0.44141 2.0625 0.44141 1.9219 0 3.7578-1.1055 4.5977-2.9727 1.1406-2.5352 0.007813-5.5156-2.5273-6.6562zm-25.145-11.312-10.277-4.625c-2.5391-1.1367-5.5195-0.015625-6.6641 2.5273-1.1406 2.5352-0.011719 5.5195 2.5273 6.6602l10.277 4.625c0.67188 0.30078 1.375 0.44141 2.0664 0.44141 1.9219 0 3.7578-1.1016 4.5977-2.9727 1.1406-2.5273 0.011719-5.5156-2.5273-6.6562zm-4.1328 50.902-10.277 4.6211c-2.5352 1.1406-3.6719 4.1211-2.5273 6.6602 0.83984 1.8633 2.6758 2.9727 4.5977 2.9727 0.69141 0 1.3906-0.14453 2.0625-0.44141l10.277-4.6211c2.5352-1.1406 3.6719-4.1211 2.5273-6.6602-1.1406-2.543-4.1289-3.6641-6.6602-2.5312zm-8.1211-15.816h10.098c2.7812 0 5.0391-2.2539 5.0391-5.0391s-2.2539-5.0391-5.0391-5.0391h-10.098c-2.7812 0-5.0391 2.2539-5.0391 5.0391s2.2578 5.0391 5.0391 5.0391zm-20.195-10.078h-5.0391c-2.7812 0-5.0391 2.2539-5.0391 5.0391s2.2539 5.0391 5.0391 5.0391h5.0391c2.7812 0 5.0391-2.2539 5.0391-5.0391s-2.2578-5.0391-5.0391-5.0391z"/>
</svg>