<?xml version="1.0" encoding="UTF-8"?>
<!-- The Best Svg Icon site in the world: iconSvg.co, Visit us! https://iconsvg.co -->
<svg fill="#000000" width="800px" height="800px" version="1.1" viewBox="144 144 512 512" xmlns="http://www.w3.org/2000/svg">
 <g>
  <path d="m449.22 386.14c2.7812 0 5.0391-2.2539 5.0391-5.0391 0-45.352-6-97.402-52.777-97.402-2.7812 0-5.0391 2.2539-5.0391 5.0391 0 2.7812 2.2539 5.0391 5.0391 5.0391 29.93 0 42.699 26.117 42.699 87.328 0 2.7773 2.2578 5.0352 5.0391 5.0352z"/>
  <path d="m501.73 259.05c-16.078-2.6719-30.082-1.9766-42.805 2.1328-0.070312 0.023437-0.11719 0.078124-0.18359 0.10547-10.285-10.699-22.977-17.461-38.199-20.535l2.6172-19.934c0.027344-0.21875 0.042969-0.4375 0.042969-0.65625 0-11.957-10.422-21.684-23.23-21.684s-23.23 9.7266-23.23 21.684c0 0.20703 0.011718 0.41016 0.035156 0.61328l2.4648 19.996c-15.027 3.0547-27.586 9.6992-37.793 20.191-12.52-3.8984-26.27-4.5352-42.039-1.9141-24.738 4.1133-42.562 14.309-54.484 31.172-18.965 26.82-22.434 69.633-10.922 134.73 19.605 110.84 61.883 174.89 114.38 174.89 3.6328 0 7.3203-0.30859 11.043-0.92578 4.6328-0.76953 9.1055-1.9961 13.301-3.6367 8.3867 4.0898 17.465 6.2422 27.219 6.2422 10.016 0 19.32-2.2695 27.895-6.582 0.17188 0.089844 0.29688 0.23828 0.48047 0.3125 4.2227 1.6562 8.7266 2.8945 13.395 3.668 3.7305 0.62109 7.4102 0.92578 11.043 0.92578 52.488 0 94.773-64.062 114.38-174.89 11.516-65.102 8.0469-107.91-10.922-134.73-11.922-16.867-29.746-27.062-54.484-31.176zm-101.76-50.496c7.1406 0 12.969 5.0469 13.148 11.309l-2.5508 19.422c-3.4336-0.32031-6.9648-0.5-10.625-0.5-3.6992 0-7.2656 0.18359-10.734 0.51172l-2.3906-19.41c0.16797-6.2773 6.0039-11.332 13.152-11.332zm-42.199 380.43c-60.551 10.023-98.504-79.043-113.84-165.78-10.867-61.426-7.8477-103.02 9.2266-127.16 10.289-14.555 25.961-23.398 47.91-27.051 12.406-2.0586 23.273-1.7852 33.176 0.57422-18.797 25.82-27.629 68.414-27.629 129.88 0 95.469 19.871 161.89 54.723 188.76-1.1836 0.27344-2.3516 0.57812-3.5625 0.78125zm42.172 2.4648c-61.383 0-83.258-99.184-83.258-192 0-105.55 24.902-150.59 83.258-150.59 58.355 0 83.258 45.035 83.258 150.59-0.003906 92.82-21.875 192-83.258 192zm157.27-168.25c-15.344 86.742-53.309 175.81-113.84 165.78-1.5391-0.25781-3.0352-0.62109-4.5234-0.98828 34.676-27.012 54.434-93.34 54.434-188.55 0-61.262-8.7734-103.77-27.441-129.62 10.188-2.6133 21.391-2.9727 34.242-0.83594 21.949 3.6523 37.621 12.5 47.91 27.051 17.074 24.141 20.09 65.738 9.2227 127.16z"/>
 </g>
</svg>