<?xml version="1.0" encoding="UTF-8"?>
<!-- The Best Svg Icon site in the world: iconSvg.co, Visit us! https://iconsvg.co -->
<svg fill="#000000" width="800px" height="800px" version="1.1" viewBox="144 144 512 512" xmlns="http://www.w3.org/2000/svg">
 <g>
  <path d="m185.61 513.51c1.2852 2.7852 4.0742 4.5664 7.1367 4.5664h128.54v73.109c0.003906 3.832 2.7656 7.1055 6.543 7.7539 23.527 3.9062 47.344 5.8242 71.195 5.7305h0.98438c53.742 0 129.1-8.9727 182.94-51.719 29.125-23.137 38.281-55.711 45.137-87.098 11.844-53.969 8.9258-110.13-8.4453-162.58-9.3516-61.289-102.41-107.95-219.63-107.95-116.91 0-211.5 46.516-220.7 108.34-17.289 52.336-20.184 108.36-8.3828 162.2 3.1602 16.371 8.082 32.348 14.684 47.656zm12.277-11.176c-5.0039-12.922-8.8789-26.254-11.57-39.848-10.816-49.41-8.6172-100.78 6.3828-149.08h192.86l-10.125 15.742h-164.77c-3.6328 0.003906-6.7891 2.4922-7.6445 6.0234-1.6836 6.9414-3.1016 14.035-4.2266 21.074-5.4062 34.176-4.418 69.062 2.9141 102.88 1.332 6.0859 3.1484 14.066 5.4062 21.805 0.98438 3.3555 4.0625 5.6602 7.5586 5.6602h106.61v15.742zm124.65-90.852c-0.13281 0.21094-0.20312 0.44922-0.32422 0.66797-0.11719 0.21875-0.16406 0.33203-0.23438 0.50391-0.40234 0.91016-0.62109 1.8867-0.64844 2.8828 0 0.070313-0.046875 0.13281-0.046875 0.20313v55.105h-100.62c-1.4336-5.4336-2.6289-10.754-3.582-15.09h0.003906c-6.9141-31.895-7.8438-64.793-2.7422-97.023 0.73828-4.6133 1.5742-9.25 2.5977-13.84h148.43zm290.17 51.004c-6.5273 29.805-14.445 58.207-39.559 78.137-50.277 39.926-121.9 48.301-173.14 48.301h-0.98438c-20.746 0.066407-41.469-1.418-61.992-4.4453v-159.25c1.5742 0.28516 3.1094 0.50391 4.6758 0.78906 2.2578 0.39453 4.5664 0.78906 6.8008 1.125 3.5039 0.55859 7.0234 1.0391 10.5 1.5039 2.1406 0.28516 4.3047 0.58203 6.4453 0.78906 3.7617 0.42578 7.582 0.73828 11.391 1.0391 1.8594 0.14062 3.707 0.33984 5.5898 0.44922 5.7148 0.33984 11.523 0.54297 17.57 0.54297 5.9102 0 11.738-0.15625 17.523-0.38672 1.0078-0.046875 2.0156-0.070313 3.0156-0.125 5.5156-0.26172 10.961-0.62891 16.336-1.0938 1.0547-0.085937 2.1016-0.19531 3.1484-0.29297 5.5117-0.51953 10.879-1.1094 16.184-1.8359 0.43359-0.054688 0.85938-0.13281 1.2891-0.1875 5.0977-0.71875 10.109-1.5273 15.035-2.4258 0.82812-0.14844 1.668-0.28516 2.4883-0.44141 4.9922-0.9375 9.8711-1.9766 14.672-3.0938l2.9844-0.71484c4.793-1.1562 9.5078-2.3633 14.098-3.7227 0.62891-0.17969 1.2266-0.37891 1.8516-0.56641 4.3594-1.2969 8.625-2.668 12.793-4.1172 0.59766-0.21094 1.2188-0.41016 1.8203-0.62109 4.3047-1.5273 8.4766-3.1484 12.555-4.8398l2.6133-1.0938c3.9922-1.707 7.8711-3.4727 11.637-5.3203 0.66797-0.33203 1.3086-0.66797 1.9688-1.0078 3.5977-1.8203 7.0859-3.6914 10.461-5.6445 0.34766-0.20312 0.70703-0.39453 1.0547-0.59766 3.4961-2.0547 6.8086-4.1953 10.012-6.375 0.67578-0.46484 1.3555-0.92188 2.0156-1.3867 3.0781-2.1641 6.0312-4.3828 8.8242-6.668 0.55859-0.45703 1.0938-0.92188 1.6445-1.3867 2.8242-2.3633 5.5117-4.8008 8.0547-7.2969l0.25-0.26172c2.4883-2.4961 4.7227-5.0547 6.918-7.6602 0.41797-0.50391 0.85156-1 1.25-1.5039h0.007812c2.0039-2.5117 3.8789-5.1211 5.6172-7.8164 0.35547-0.55078 0.69141-1.1094 1.0312-1.668v-0.003906c1.6797-2.6914 3.1992-5.4766 4.5508-8.3438l0.10156-0.1875c0.72266 3.6406 1.3789 7.2969 1.9688 10.965 5.8125 36.121 4.7695 73.012-3.0703 108.75zm-212.7-251.42c108.2 0 197 42.203 204.15 95.41-0.003906 0.039062-0.003906 0.078125 0 0.11719 0.14844 1.1328 0.25 2.1484 0.33984 3.1484 0.085937 1.2266 0.1875 2.4492 0.1875 3.6836 0 56.426-91.812 102.34-204.67 102.34-5.6914 0-11.117-0.19531-16.461-0.50391-1.7695-0.09375-3.4961-0.26953-5.2422-0.40234-3.5664-0.26953-7.0859-0.57422-10.637-0.96875-2.0312-0.22656-4.0703-0.48828-6.1016-0.78906-3.2891-0.42969-6.6094-0.90625-9.957-1.4336-2.0938-0.33203-4.2031-0.66016-6.3438-1.0312-1.0156-0.17188-2.0859-0.37891-3.1094-0.55859l64.473-100.3-0.003906 0.003906c1.5547-2.4219 1.6641-5.5 0.28125-8.0273-1.3789-2.5273-4.0273-4.0977-6.9062-4.0938h-203.19c15.707-48.5 103.26-86.594 203.19-86.594z"/>
  <path d="m250.43 360.64c-6.2617 0-12.27 2.4883-16.699 6.918-4.4297 4.4297-6.918 10.438-6.918 16.699 0 6.2656 2.4883 12.27 6.918 16.699 4.4297 4.4297 10.438 6.918 16.699 6.918 6.2656 0 12.27-2.4883 16.699-6.918 4.4297-4.4297 6.918-10.434 6.918-16.699 0-6.2617-2.4883-12.27-6.918-16.699-4.4297-4.4297-10.434-6.918-16.699-6.918zm0 31.488c-3.1836 0-6.0547-1.918-7.2734-4.8594s-0.54297-6.3242 1.707-8.5781c2.25-2.25 5.6367-2.9258 8.5781-1.707s4.8594 4.0898 4.8594 7.2734c0 2.0898-0.82812 4.0898-2.3047 5.5664-1.4766 1.4766-3.4766 2.3047-5.5664 2.3047z"/>
  <path d="m281.92 423.61h15.742v15.742h-15.742z"/>
  <path d="m305.54 368.51h15.742v15.742h-15.742z"/>
 </g>
</svg>