<?xml version="1.0" encoding="UTF-8"?>
<!-- The Best Svg Icon site in the world: iconSvg.co, Visit us! https://iconsvg.co -->
<svg fill="#000000" width="800px" height="800px" version="1.1" viewBox="144 144 512 512" xmlns="http://www.w3.org/2000/svg">
 <path d="m594.7 275.83-62.977-41.984c-1.707-1.1484-3.7148-1.7695-5.7734-1.7852h-94.461v-20.992c0-2.7852-1.1094-5.4531-3.0742-7.4219-1.9688-1.9688-4.6406-3.0742-7.4219-3.0742h-41.984c-5.7969 0-10.496 4.6992-10.496 10.496v20.992h-115.46c-5.7969 0-10.496 4.6992-10.496 10.496v83.969c0 2.7812 1.1055 5.4531 3.0742 7.4219s4.6367 3.0742 7.4219 3.0742h115.46v20.992h-94.465c-2.0586 0.015625-4.0664 0.63672-5.7734 1.7812l-62.977 41.984c-2.9023 1.9531-4.6406 5.2188-4.6406 8.7148 0 3.4922 1.7383 6.7617 4.6406 8.7109l62.977 41.984c1.707 1.1484 3.7148 1.7656 5.7734 1.7852h94.465v73.473l-20.992-0.003907c-5.7969 0-10.496 4.6992-10.496 10.496v31.488h-52.48c-5.7969 0-10.496 4.6992-10.496 10.496s4.6992 10.496 10.496 10.496h230.91c5.7969 0 10.496-4.6992 10.496-10.496s-4.6992-10.496-10.496-10.496h-52.477v-31.488c0-2.7812-1.1094-5.4531-3.0742-7.4219-1.9688-1.9648-4.6406-3.0742-7.4219-3.0742h-20.992v-73.469h115.45c2.7852 0 5.4531-1.1094 7.4219-3.0742 1.9688-1.9688 3.0742-4.6406 3.0742-7.4219v-83.969c0-2.7852-1.1055-5.4531-3.0742-7.4219s-4.6367-3.0742-7.4219-3.0742h-115.45v-20.992h94.465-0.003906c2.0586-0.015626 4.0664-0.63672 5.7734-1.7852l62.977-41.984c2.9023-1.9492 4.6406-5.2148 4.6406-8.7109 0-3.4961-1.7383-6.7617-4.6406-8.7109zm-205.2-54.266h20.992v10.496h-20.992zm52.48 356.86h-83.969v-20.992h83.969zm-31.488-41.984h-20.992v-73.469h20.992zm125.95-94.465-259.25 0.003906-47.234-31.488 47.23-31.488h259.25zm-125.95-83.965h-20.992v-20.992h20.992zm112.31-41.984h-259.25v-62.977h259.25l47.23 31.488z"/>
</svg>