<?xml version="1.0" encoding="UTF-8"?>
<!-- The Best Svg Icon site in the world: iconSvg.co, Visit us! https://iconsvg.co -->
<svg fill="#000000" width="800px" height="800px" version="1.1" viewBox="144 144 512 512" xmlns="http://www.w3.org/2000/svg">
 <g>
  <path d="m596.47 591.45h-191.45l0.003906-120.48c72.832-2.6641 131.27-62.707 131.27-136.18 0-75.164-61.145-136.31-136.31-136.31-75.156 0-136.3 61.145-136.3 136.31 0 73.469 58.438 133.51 131.27 136.18v120.48h-191.45c-2.7852 0-5.0391 2.2539-5.0391 5.0391s2.2539 5.0391 5.0391 5.0391h392.97c2.7852 0 5.0391-2.2539 5.0391-5.0391s-2.2539-5.0391-5.0391-5.0391zm-322.71-256.66c0-69.605 56.625-126.23 126.23-126.23 69.602 0 126.23 56.629 126.23 126.23 0 69.602-56.629 126.23-126.23 126.23-69.602 0-126.23-56.625-126.23-126.23z"/>
  <path d="m399.99 361.36c14.656 0 26.578-11.922 26.578-26.574 0-14.656-11.922-26.578-26.578-26.578s-26.578 11.922-26.578 26.578c0 14.652 11.922 26.574 26.578 26.574zm0-43.074c9.0977 0 16.5 7.4062 16.5 16.5 0 9.0977-7.4062 16.496-16.5 16.496-9.0977 0-16.5-7.3984-16.5-16.496 0-9.0938 7.4023-16.5 16.5-16.5z"/>
  <path d="m399.99 287.79c14.656 0 26.578-11.922 26.578-26.578s-11.922-26.578-26.578-26.578-26.578 11.922-26.578 26.578 11.922 26.578 26.578 26.578zm0-43.078c9.0977 0 16.5 7.4062 16.5 16.5 0 9.0977-7.4062 16.5-16.5 16.5-9.0977 0-16.5-7.4062-16.5-16.5 0-9.0977 7.4023-16.5 16.5-16.5z"/>
  <path d="m349.57 274.98c-6.1445-3.5469-13.312-4.4961-20.168-2.6523-6.8594 1.8359-12.586 6.2344-16.137 12.383-3.5469 6.1445-4.4922 13.309-2.6562 20.164 1.8398 6.8594 6.2344 12.59 12.383 16.141 4.1758 2.4062 8.7344 3.5508 13.238 3.5508 9.1914 0 18.148-4.7656 23.066-13.285 7.3242-12.684 2.9609-28.973-9.7266-36.301zm0.99609 31.266c-4.543 7.875-14.656 10.598-22.539 6.043-3.8164-2.2031-6.5469-5.7617-7.6836-10.016-1.1406-4.2617-0.55469-8.7031 1.6484-12.52 2.2031-3.8164 5.7617-6.5469 10.016-7.6914 1.4219-0.38281 2.8672-0.57031 4.3008-0.57031 2.8594 0 5.6758 0.75391 8.2227 2.2188 3.8164 2.2031 6.5469 5.7617 7.6836 10.016 1.1406 4.2539 0.55469 8.7031-1.6484 12.52z"/>
  <path d="m322.99 348.55c-12.688 7.3242-17.055 23.617-9.7266 36.305 4.9219 8.5156 13.871 13.285 23.059 13.285 4.5078 0 9.0742-1.1445 13.246-3.5586 12.688-7.3242 17.055-23.617 9.7266-36.305-7.332-12.688-23.621-17.055-36.305-9.7266zm29.223 27.285c-1.1367 4.2539-3.8672 7.8125-7.6836 10.016-3.8164 2.2109-8.2617 2.8008-12.52 1.6484-4.2539-1.1367-7.8125-3.8672-10.016-7.6836s-2.7891-8.2656-1.6484-12.52c1.1367-4.2539 3.8672-7.8125 7.6836-10.016 2.543-1.4727 5.3672-2.2188 8.2266-2.2188 1.4336 0 2.875 0.1875 4.2969 0.57031 4.2539 1.1367 7.8125 3.8672 10.016 7.6836 2.1992 3.8164 2.7852 8.2656 1.6445 12.52z"/>
  <path d="m426.57 408.35c0-14.656-11.922-26.578-26.578-26.578s-26.578 11.922-26.578 26.578 11.922 26.578 26.578 26.578 26.578-11.922 26.578-26.578zm-43.078 0c0-9.0977 7.4062-16.5 16.5-16.5 9.0977 0 16.5 7.4062 16.5 16.5 0 9.0977-7.4062 16.5-16.5 16.5-9.0977 0-16.5-7.4023-16.5-16.5z"/>
  <path d="m450.41 394.58c4.0977 2.3672 8.6406 3.5703 13.25 3.5703 2.3086 0 4.6289-0.30469 6.918-0.91406 6.8594-1.8398 12.59-6.2344 16.141-12.383 7.3203-12.695 2.957-28.98-9.7305-36.305s-28.98-2.9609-36.305 9.7266c-7.3281 12.688-2.9648 28.973 9.7266 36.305zm-1-31.266c2.2031-3.8164 5.7617-6.5469 10.016-7.6836 4.2617-1.1523 8.707-0.55469 12.52 1.6484 7.875 4.5469 10.586 14.66 6.043 22.539-2.2031 3.8164-5.7617 6.5469-10.023 7.6836-4.2422 1.1523-8.7031 0.5625-12.52-1.6484-7.875-4.5547-10.586-14.664-6.0352-22.539z"/>
  <path d="m463.75 324.57c4.5 0 9.0664-1.1445 13.238-3.5508 12.688-7.3242 17.059-23.609 9.7305-36.305-3.5508-6.1484-9.2852-10.547-16.141-12.383-6.8477-1.8438-14.023-0.89453-20.168 2.6523-12.688 7.332-17.055 23.617-9.7266 36.305 4.9219 8.5117 13.871 13.281 23.066 13.281zm-8.3008-40.859c2.543-1.4727 5.3633-2.2188 8.2227-2.2188 1.4375 0 2.8789 0.1875 4.3008 0.57031 4.2617 1.1406 7.8164 3.8711 10.023 7.6914 4.5469 7.875 1.8359 17.992-6.043 22.539-7.8828 4.5469-17.992 1.8438-22.539-6.043-4.5508-7.8789-1.8398-17.988 6.0352-22.539z"/>
 </g>
</svg>