<?xml version="1.0" encoding="UTF-8"?>
<!-- The Best Svg Icon site in the world: iconSvg.co, Visit us! https://iconsvg.co -->
<svg fill="#000000" width="800px" height="800px" version="1.1" viewBox="144 144 512 512" xmlns="http://www.w3.org/2000/svg">
 <path d="m625.59 367.11-29.75-83.535 12.691-33.812 0.40234-31.281-26.949 30.219 0.38672-30.219-56.566 63.414-69.172 30.445h-239.07c-24.449 0-44.27 19.82-44.27 44.27v97.395h21.25l0.097656-91.977c0.011719-7.8047 6.2734-14.156 14.07-14.277v42.5l14.168 63.754-14.168 35.418 13.281 92.086h29.844l-9.4805-21.25-0.03125-58.473 53.156-60.172c24.094 8.418 49.43 12.715 74.953 12.715h49.172v105.76l3.8711 18.363h31.031l-9.3438-18.363 18.254-105.76 90.012-85.723 37.77 25.441c7.1484 4.8164 16.617 4.3633 23.27-1.1133l5.1484-4.2305c6.3359-5.2188 8.7266-13.855 5.9766-21.594zm-32.793-36.988c-8.3438 0.046875-16.176-3.9531-21.07-10.699h17.27l4.207 10.695z"/>
</svg>