<?xml version="1.0" encoding="UTF-8"?>
<!-- The Best Svg Icon site in the world: iconSvg.co, Visit us! https://iconsvg.co -->
<svg fill="#000000" width="800px" height="800px" version="1.1" viewBox="144 144 512 512" xmlns="http://www.w3.org/2000/svg">
 <path d="m486.59 348.17v-15.082h-239.03l-0.42578 7.8711h-26.48c-31.379 0-56.82 25.441-56.82 56.82v77.004c0 8.6914 7.0547 15.742 15.742 15.742 8.6914 0 15.742-7.0547 15.742-15.742v-77.004c0-13.996 11.336-25.332 25.332-25.332h24.719l-10.66 192c-0.25 4.3125 1.3086 8.5508 4.2812 11.684 2.9609 3.1484 7.1016 4.9297 11.43 4.9297h220.42c8.6914 0 15.742-7.0547 15.742-15.742v-100.95l63.59-35.41c-0.15625-0.66016-0.28516-1.3242-0.37891-2l-13.113-91.773-50.098 12.988zm133.82 91.191c8.6914 0 15.742-7.0547 15.742-15.742v-110.21c0-8.6914-7.0547-15.742-15.742-15.742h-62.977c-4.5664 0-8.9102 1.9844-11.887 5.4336-2.9922 3.4492-4.3438 8.0156-3.6992 12.531l15.742 110.21c1.1016 7.7617 7.7461 13.523 15.586 13.523h47.23zm-118.08-204.67c0-8.6914-7.0547-15.742-15.742-15.742h-244.03c-8.6914 0-15.742 7.0547-15.742 15.742v74.785c0 8.6914 7.0547 15.742 15.742 15.742h244.03c8.6914 0 15.742-7.0547 15.742-15.742z" fill-rule="evenodd"/>
</svg>