<?xml version="1.0" encoding="UTF-8"?>
<!-- The Best Svg Icon site in the world: iconSvg.co, Visit us! https://iconsvg.co -->
<svg fill="#000000" width="800px" height="800px" version="1.1" viewBox="144 144 512 512" xmlns="http://www.w3.org/2000/svg">
 <path d="m199.25 446.57c8.5 82.992 89.285 149.46 187.91 154.61 4.2891 0.22266 8.5664 0.33203 12.816 0.33203 57.73 0 112.07-20.461 150.67-57.09 32.812-31.129 50.875-71.254 50.875-112.98 0-70.332-52.34-134.28-130.25-159.14-13.141-4.1914-24.777-10.469-34.363-18.273l-0.29297-0.27344c-0.082032-0.074218-0.1875-0.10156-0.27344-0.17187-12.426-10.273-21.301-23.148-25.332-37.422l-2.9023-10.273c-1.3047-4.6133-5.8086-7.8242-10.922-7.5156-5.1836 0.10938-9.3945 3.2891-10.484 7.9102l-2.0312 8.6367c-6.1562 26.148-28.496 48.09-59.766 58.672-82.883 28.082-133.38 97.598-125.66 172.98zm161.03-179.35c-24.535 64.469-56.125 213.57 22.566 323.55-2.8398-0.21094-5.668-0.47266-8.4727-0.78516-61.559-45.781-94.594-96.051-98.133-149.44-4.7109-71.109 42.953-133.4 84.039-173.32zm160.52 167.28c-2.7578 54.473-36.668 106.98-100.77 156.07-2.332 0.20312-4.6797 0.33203-7.0312 0.46484 79.223-110.4 47.082-260.37 22.488-324.5 27.004 25.699 89.293 89.336 85.309 167.96zm70.645-3.0625c0 38.938-16.949 76.473-47.727 105.68-27.816 26.398-64.32 43.938-104.35 50.906 57.988-47.988 88.77-99.402 91.492-153.02 3.3594-66.246-37.059-121.66-67.742-154.88 1.6758 0.61328 3.3711 1.2227 5.0938 1.7734 73.707 23.516 123.23 83.605 123.23 149.54zm-196.96-214.21 1.9688-8.5234c0.1875-0.17969 0.64453-0.27344 1.0781-0.27344 0.38281 0 0.74219 0.070312 0.88281 0.19141l2.9023 10.273c2.5078 8.8789 6.6445 17.266 12.156 24.934 0.03125 0.039063 0.035157 0.089844 0.066407 0.125 18.168 23.199 87.098 215.73-12.535 346.58-0.20703 0.26563-0.28125 0.58594-0.42187 0.875-1.7148 0.003907-3.4297-0.035156-5.1484-0.070312-0.13672-0.26562-0.20312-0.55859-0.39453-0.80469-99.633-130.84-30.703-323.38-12.535-346.58 0.035157-0.046875 0.039063-0.10156 0.074219-0.14453 5.6055-8.1875 9.6797-17.129 11.906-26.582zm-66.348 65.91c1.5352-0.51953 3.0273-1.0977 4.5234-1.668-36.359 40.809-70.66 96.707-66.484 159.74 3.4492 52.035 32.98 100.91 87.688 145.54-77.781-16.211-137.59-72.746-144.6-141.2-7.2266-70.602 40.543-135.87 118.87-162.41z"/>
</svg>