<?xml version="1.0" encoding="UTF-8"?>
<!-- The Best Svg Icon site in the world: iconSvg.co, Visit us! https://iconsvg.co -->
<svg fill="#000000" width="800px" height="800px" version="1.1" viewBox="144 144 512 512" xmlns="http://www.w3.org/2000/svg">
 <path d="m288.57 424.43c-0.83984 1.8633-2.6758 2.9727-4.5977 2.9727-0.69141 0-1.3945-0.14453-2.0625-0.44141l-4.5938-2.0664c-2.5391-1.1406-3.6719-4.1211-2.5273-6.6602 1.1445-2.5352 4.1367-3.6641 6.6602-2.5273l4.5938 2.0664c2.5352 1.1367 3.668 4.1172 2.5273 6.6562zm-27.672-17.977-10.277-4.625c-2.543-1.1328-5.5195-0.015625-6.6641 2.5273-1.1406 2.5352-0.011719 5.5195 2.5273 6.6602l10.277 4.625c0.67188 0.30078 1.375 0.44141 2.0664 0.44141 1.9219 0 3.7578-1.1016 4.5977-2.9727 1.1406-2.5273 0.007813-5.5156-2.5273-6.6562zm-39.555-6.7383 4.5938 2.0664c0.67188 0.30078 1.3711 0.44141 2.0625 0.44141 1.9219 0 3.7578-1.1055 4.5977-2.9727 1.1406-2.5391 0.011719-5.5195-2.5273-6.6602l-4.5938-2.0664c-2.5352-1.1328-5.5195-0.003907-6.6602 2.5273-1.1445 2.5391-0.011718 5.5195 2.5273 6.6641zm60.562 46.332-4.5938 2.0664c-2.5391 1.1406-3.6719 4.1211-2.5273 6.6602 0.83984 1.8633 2.6758 2.9727 4.5977 2.9727 0.69141 0 1.3906-0.14453 2.0625-0.44141l4.5938-2.0664c2.5391-1.1406 3.6719-4.1211 2.5273-6.6602-1.1406-2.5391-4.125-3.6641-6.6602-2.5312zm-25.145 11.309-10.273 4.625c-2.5352 1.1406-3.668 4.1289-2.5234 6.6602 0.83984 1.8711 2.6758 2.9727 4.5938 2.9727 0.69141 0 1.3945-0.14453 2.0664-0.44141l10.273-4.625c2.5352-1.1406 3.668-4.1289 2.5234-6.6602-1.1406-2.5469-4.1211-3.668-6.6602-2.5312zm-30.824 13.871-4.5938 2.0664c-2.5391 1.1406-3.6719 4.1211-2.5273 6.6602 0.83984 1.8711 2.6758 2.9727 4.5977 2.9727 0.69141 0 1.3945-0.14453 2.0625-0.44141l4.5938-2.0664c2.5391-1.1406 3.6719-4.1211 2.5273-6.6602-1.1445-2.5469-4.1328-3.6641-6.6602-2.5312zm2.5117-39.766h-5.0391c-2.7812 0-5.0391 2.2539-5.0391 5.0391s2.2539 5.0391 5.0391 5.0391h5.0391c2.7812 0 5.0391-2.2539 5.0391-5.0391s-2.2578-5.0391-5.0391-5.0391zm20.191 10.078h10.098c2.7812 0 5.0391-2.2539 5.0391-5.0391s-2.2539-5.0391-5.0391-5.0391h-10.098c-2.7812 0-5.0391 2.2539-5.0391 5.0391 0.003907 2.7852 2.2578 5.0391 5.0391 5.0391zm30.293 0h5.0391c2.7812 0 5.0391-2.2539 5.0391-5.0391s-2.2539-5.0391-5.0391-5.0391h-5.0391c-2.7812 0-5.0391 2.2539-5.0391 5.0391 0.003907 2.7852 2.2578 5.0391 5.0391 5.0391zm166.71-155.63c0-2.3633-1.918-4.2812-4.2812-4.2812-2.2305 0-4.0625 1.7031-4.2617 3.8828-0.11328 0.10938-0.32422 0.25391-0.57422 0.39844-0.89062 0.52344-2.6133 1.1602-5.1602 1.1602-2.543 0-4.2617-0.63672-5.1562-1.1602-0.25-0.14844-0.46484-0.28906-0.57812-0.40234-0.20312-2.1758-2.0312-3.8828-4.2617-3.8828-2.3633 0-4.2812 1.918-4.2812 4.2812 0 5.543 6.1406 9.7227 14.281 9.7227 8.1328 0.007813 14.273-4.1758 14.273-9.7188zm-37.902-34.445c-3.9336 0-6.9023 3.4727-6.9023 8.0781s2.9688 8.082 6.9023 8.082 6.9023-3.4766 6.9023-8.082-2.9688-8.0781-6.9023-8.0781zm47.25 16.164c3.9336 0 6.9023-3.4766 6.9023-8.082s-2.9688-8.0781-6.9023-8.0781-6.9023 3.4727-6.9023 8.0781 2.9648 8.082 6.9023 8.082zm126.63 359.08c0 2.7852-2.2539 5.0391-5.0391 5.0391-34.074 0-61.801-31.211-61.801-69.574l0.003906-81.691c0-1.6016-0.12891-3.1641-0.32812-4.6992h-6.918c-5.5586 0-10.078-4.5234-10.078-10.078v-12.172c0-0.36328 0.089844-0.70312 0.10547-1.0625-0.80859-0.25391-1.6289-0.45703-2.4688-0.59375l2.1875 30.84 0.007813 76.461c1.8008 1.8281 2.9141 4.3203 2.9141 7.0742v24.59c10.668 3.7305 18.352 13.871 18.352 25.793 0 8.3359-6.7812 15.113-15.113 15.113h-63.547c-2.7812 0-5.0391-2.2539-5.0391-5.0391v-60.457c0-1.8398 0.53125-3.543 1.3984-5.0312l-2.6406-65.012c-0.054688-1.3086-1.0391-2.3359-2.2461-2.3359s-2.1914 1.0234-2.2461 2.332l-2.6406 65.023c0.85938 1.4883 1.3906 3.1875 1.3906 5.0234v60.457c0 2.7852-2.2539 5.0391-5.0391 5.0391h-63.547c-8.3359 0-15.113-6.7812-15.113-15.113 0-11.922 7.6836-22.062 18.352-25.793l-0.003906-24.59c0-2.75 1.1133-5.2422 2.9062-7.0625v-76.113l2.2266-31.465h-2.582c0.0625 0.64453 0.19531 1.2656 0.19531 1.9219v12.172c0 5.5547-4.5195 10.078-10.078 10.078h-29.41c-5.5586 0-10.078-4.5234-10.078-10.078v-12.172c0-0.66016 0.13281-1.2812 0.19531-1.9219h-8.6172c-5.5586 0-10.078-4.5234-10.078-10.078v-10.078c0-5.5547 4.5195-10.078 10.078-10.078h23.906l26.051-60.793c5.4688-11.484 13.379-21.047 22.867-27.969 0.14062-5.4375 4.582-9.8203 10.051-9.8203h13.27c1.5039 0 2.918 0.35156 4.1992 0.94531v-7.8086c-1.6094-1.0195-3.1758-2.1211-4.6953-3.3203l-23.184 0.007813c-8.1875 0-15.016-6.2109-15.543-14.145l-1.6758-25.266c-0.21484-0.48438-0.46875-0.94141-0.65234-1.4453-1.832-4.9453-1.8984-10.191-0.42578-14.816l-1.8867-28.465c-0.007812-33.367 29.211-60.238 65.125-60.238h13.352c35.918 0 65.137 26.871 65.137 59.902l-1.9023 28.781c1.4805 4.625 1.4141 9.8789-0.41797 14.832h-0.003906c-0.1875 0.50781-0.44141 0.96484-0.65625 1.4531l-1.6719 25.262c-0.52734 7.9336-7.3516 14.145-15.543 14.145h-23.191c-1.5156 1.1992-3.0859 2.3008-4.6953 3.3203v7.8086c1.2812-0.59375 2.6953-0.94531 4.1992-0.94531h13.273c5.4688 0 9.9102 4.3828 10.051 9.8164 9.4805 6.9141 17.379 16.438 22.785 27.789l32.762 76.453c5.3398 3.6289 8.8594 9.7461 8.8594 16.676v12.172c0 2.5625-0.99219 4.875-2.5703 6.6562 0.32812 2.6602 0.55859 5.3594 0.55859 8.1211v81.691c0 21.695 14.164 39.344 31.574 39.344 2.7852 0 5.0391 2.2539 5.0391 5.0391s-2.2539 5.0391-5.0391 5.0391c-22.965 0-41.648-22.168-41.648-49.422v-81.695c0-1.5859-0.078125-3.1523-0.20703-4.6992h-10.129c0.15625 1.543 0.26172 3.1055 0.26172 4.6992v81.691c-0.003907 32.809 23.199 59.5 51.723 59.5 2.7852 0 5.0352 2.2539 5.0352 5.0352zm-98.973-259.43c3.8594 1.1641 6.7773 4.4922 7.0664 8.5742l2.6172 36.895 4.0391 8.8711c10.316 0.91016 19.785 5.1523 27.594 11.762h1.7539l-29.488-68.824c-3.4414-7.2148-8.0938-13.566-13.582-18.805zm-23.348-0.47266h13.273v-33.93h-13.273zm30.055-82.305c-2.3242 1.0664-4.7812 1.6953-7.2578 1.6953-0.67578 0-1.3477-0.085938-2.0195-0.17188-2.7578 5.9727-6.1875 11.559-10.199 16.52h13.109c2.8984 0 5.3125-2.0781 5.4844-4.7344zm2.0078-25.629c-0.55859-1.2031-1.625-2.7852-3.5469-3.4844-0.0625-0.023437-0.13281-0.011719-0.19531-0.035156-0.26953 6.8281-1.5 13.754-3.6016 20.465 3.0156-0.85937 5.9531-3.6719 7.3906-7.5547 1.1914-3.2344 1.1758-6.7422-0.046874-9.3906zm-121.73-30.727 1.2031 18.082c0.21484-0.089844 0.41016-0.22656 0.62891-0.30859 1.3125-0.48047 2.6523-0.72266 4-0.83594 0.20312-1.7852 0.43359-3.5781 0.77734-5.3789 0.60937-3.207 2.8555-5.875 6.0039-7.1328 10.734-4.2812 17.02-10.062 24.242-18.602 1.7305-2.043 4.2617-3.293 6.9414-3.4258 2.6445-0.12109 5.1953 0.83594 7.0586 2.6406 11.066 10.742 38.309 18.641 57.199 19.805h0.003906c4.5625 0.28125 8.2891 3.625 9.0625 8.125 0.22656 1.3281 0.36328 2.6484 0.51172 3.9727 1.3516 0.11328 2.6953 0.35547 4.0117 0.83594 0.21875 0.078125 0.40625 0.21484 0.62109 0.30078l1.2188-18.41c-0.011719-27.141-24.711-49.492-55.07-49.492h-13.352c-30.359 0-55.062 22.352-55.062 49.824zm1.6953 40.117c1.4375 3.8789 4.3789 6.6914 7.3867 7.5547-2.1016-6.7109-3.332-13.637-3.6016-20.465-0.0625 0.019531-0.13281 0.011719-0.19531 0.035156-1.9219 0.69922-2.9883 2.2812-3.5469 3.4883-1.2227 2.6445-1.2383 6.1523-0.042969 9.3867zm21.527 34.281c-4.0117-4.9609-7.4414-10.547-10.199-16.52-0.67188 0.085937-1.3477 0.17188-2.0234 0.17188-2.4727 0-4.9297-0.62891-7.2539-1.6953l0.88281 13.305c0.17578 2.6562 2.5859 4.7344 5.4844 4.7344zm38.516 10.539c26.074 0 46.301-32.52 46.301-60.5 0-3.1094-0.27344-6.3203-0.8125-9.5508-20.898-1.332-49.906-9.957-62.965-22.215-7.9375 9.3359-15.43 16.137-27.914 21.113-0.55078 3.3984-0.91406 7.0938-0.91406 10.652 0 27.98 20.227 60.5 46.305 60.5zm-17.859 24.387v29.336h35.715v-29.324c-11.883 1.7734-23.895 1.7695-35.715-0.011719zm31.516-9.6055v-7.0859c-4.3516 1.4883-8.9023 2.3789-13.656 2.3789-4.7578 0-9.3086-0.89453-13.656-2.3789v7.0859c9.0703 1.1406 18.238 1.1406 27.312 0zm-54.859 38.941h13.27v-33.93h-13.27zm-10.277 54.578h14.121v-21.539c0-5.5547 4.5195-10.078 10.078-10.078h54.57c5.5586 0 10.078 4.5234 10.078 10.078v21.539h14.117l-3.1602-44.48-96.656-0.023438zm78.766-21.539h-54.57v21.539h54.574zm-116.5 21.539h24.316l3.9375-8.6484 2.6094-36.883c0.28516-4.0781 3.2031-7.4102 7.0664-8.5742v-21.52c-5.5 5.2617-10.176 11.66-13.664 18.977zm13.039 32.152c0-5.5547-4.5195-10.078-10.078-10.078h-9.2578c-5.5586 0-10.078 4.5234-10.078 10.078v12.172h29.41zm62.602 163.1c0-9.5195-7.7422-17.266-17.266-17.266h-29.023c-9.5195 0-17.262 7.7422-17.262 17.266 0 2.7812 2.2617 5.0391 5.0391 5.0391h58.512zm0-50.383h-45.199v23.039h27.934c6.543 0 12.555 2.3164 17.266 6.1641zm25.883-70.453 2.4531 60.379h41.094v-73.102l-2.2344-31.465h-107.25l-2.2539 31.816 0.007812 72.75h41.105l2.4492-60.379c0.27344-6.7266 5.6797-12 12.312-12 6.6289 0 12.039 5.2695 12.312 12zm1.2539 70.453v29.203c4.7109-3.8477 10.719-6.1641 17.262-6.1641h27.938v-23.039zm46.289 33.117h-29.027c-9.5195 0-17.262 7.7422-17.262 17.266v5.0391h58.512c2.7773 0 5.0391-2.2578 5.0391-5.0391 0-9.5195-7.7422-17.266-17.262-17.266zm17.75-163.96c-5.1562-2.5352-10.828-3.9492-16.785-3.9492h-184.9v10.078h12.477c3.6797-4.918 9.4961-8.1523 16.094-8.1523h9.2578c6.6016 0 12.418 3.2344 16.094 8.1523h130.97c2.9062 0 5.707 0.5 8.3906 1.3516 2.0312-3.2344 4.9375-5.8242 8.3984-7.4805zm27.973 30.301v-12.172c0-5.5547-4.5195-10.078-10.078-10.078h-9.2539c-5.5586 0-10.078 4.5234-10.078 10.078v12.172z"/>
</svg>