<?xml version="1.0" encoding="UTF-8"?>
<!-- The Best Svg Icon site in the world: iconSvg.co, Visit us! https://iconsvg.co -->
<svg fill="#000000" width="800px" height="800px" version="1.1" viewBox="144 144 512 512" xmlns="http://www.w3.org/2000/svg">
 <path d="m600.14 540.29c7.5586 4.957 13.523 8.8711 26.574 8.8711v19.145c-18.773 0-28.5-6.3789-37.082-12.012-7.5508-4.957-13.523-8.8711-26.574-8.8711-13.055 0-19.02 3.9141-26.574 8.8711-8.5781 5.6289-18.305 12.012-37.074 12.012-18.773 0-28.496-6.3789-37.074-12.012-7.5508-4.957-13.516-8.8711-26.57-8.8711-13.055 0-19.02 3.9141-26.57 8.8711-8.5781 5.6328-18.305 12.012-37.074 12.012-18.773 0-28.496-6.3789-37.074-12.012-7.5508-4.957-13.516-8.8711-26.57-8.8711-13.047 0-19.02 3.9141-26.57 8.8711-8.5781 5.6328-18.305 12.012-37.07 12.012-18.773 0-28.492-6.3828-37.07-12.012-7.5508-4.957-13.516-8.8711-26.566-8.8711v-19.145c18.773 0 28.492 6.3828 37.07 12.012 7.5508 4.957 13.516 8.8711 26.566 8.8711 13.047 0 19.016-3.9141 26.57-8.8711 8.5781-5.6328 18.305-12.012 37.074-12.012 18.773 0 28.496 6.3789 37.074 12.012 7.5508 4.957 13.516 8.8711 26.57 8.8711 13.047 0 19.02-3.9141 26.57-8.8711 8.5781-5.6328 18.305-12.012 37.074-12.012 18.773 0 28.496 6.3789 37.074 12.012 7.5508 4.957 13.516 8.8711 26.57 8.8711 13.055 0 19.02-3.9141 26.574-8.8711 8.5781-5.6289 18.305-12.012 37.074-12.012 18.773 0 28.5 6.3789 37.078 12.012zm26.574-30.211v19.145c-18.773 0-28.5-6.3828-37.082-12.012-7.5508-4.957-13.523-8.8711-26.574-8.8711-13.055 0-19.02 3.9141-26.574 8.8711-8.5781 5.6289-18.305 12.012-37.074 12.012-18.773 0-28.496-6.3828-37.074-12.012-7.5508-4.957-13.516-8.8711-26.57-8.8711-13.055 0-19.02 3.9141-26.57 8.8711-8.5781 5.6328-18.305 12.012-37.074 12.012-18.773 0-28.496-6.3828-37.074-12.012-7.5508-4.957-13.516-8.8711-26.57-8.8711-13.047 0-19.02 3.9141-26.57 8.8711-8.5781 5.6328-18.305 12.012-37.07 12.012-18.773 0-28.492-6.3828-37.07-12.012-7.5508-4.957-13.516-8.8711-26.566-8.8711v-19.145c18.773 0 28.492 6.3828 37.07 12.012 7.5508 4.957 13.516 8.8711 26.566 8.8711 13.047 0 19.016-3.9141 26.57-8.8711 3.0039-1.9688 6.1562-4.0312 9.7773-5.8789-33.32-14.113-62.367-37.777-83.012-68.789l-0.046875-0.066406 27.164-6.6406c35.875 21.219 77.23 32.902 120.06 32.902 36.301 0 71.656-8.375 103.55-23.965v-15.629c-31.578 16.668-67.059 25.668-103.55 25.668-66.945 0-130.06-30.305-172.05-81.797h289.54l-17.562-27.02c-16.141-24.832-12.707-57.57 8.2383-78.516 12.664-12.664 29.844-19.781 47.758-19.781 25.539 0 48.895 14.402 60.355 37.223 5.8984 11.738 10.902 21.73 10.902 21.828 8.4531 8.5742 17.781 14.555 28.547 17.984 8.8867 2.832 14.914 11.094 14.914 20.426l-83.543 0.003906 56.246 46.871c17.297 14.414 27.297 35.762 27.297 58.277 0 24.129-11.273 45.605-28.832 59.5 5.0391 2.1875 9.1406 4.8672 12.992 7.3945 7.5586 4.9609 13.523 8.875 26.574 8.875zm-109.72-224.32c0 0.55859 0.054688 1.0977 0.14062 1.6328h20.383c0.085937-0.53516 0.14062-1.0742 0.14062-1.6328 0-5.707-4.625-10.332-10.332-10.332-5.7031 0-10.332 4.625-10.332 10.332z"/>
</svg>