<?xml version="1.0" encoding="UTF-8"?>
<!-- The Best Svg Icon site in the world: iconSvg.co, Visit us! https://iconsvg.co -->
<svg fill="#000000" width="800px" height="800px" version="1.1" viewBox="144 144 512 512" xmlns="http://www.w3.org/2000/svg">
 <g>
  <path d="m530.99 340.8h-0.31641c-6.9258-2.5195-14.484-3.7773-22.355-3.7773h-105.48c-30.859 0-57.625 20.469-65.809 49.75l-20.152 59.199h-32.434v-98.246h2.5195c19.523 0 35.266-15.742 35.266-34.953v-58.25c0-6.2969-5.0391-11.336-11.336-11.336s-11.336 5.0391-11.336 11.336v58.254c0 6.9258-5.668 12.594-12.91 12.594h-2.5195v-70.848c0-6.2969-5.0391-11.336-11.336-11.336s-11.336 5.0391-11.336 11.336v70.535h-2.5195c-6.9258 0-12.91-5.668-12.91-12.594l0.003907-57.941c0-6.2969-5.0391-11.336-11.336-11.336s-11.336 5.0391-11.336 11.336v58.254c0 19.207 15.742 34.953 35.266 34.953h2.5195v101.08c-10.391 4.7227-17.949 15.113-17.949 27.395s7.2422 22.672 17.949 27.395v99.504c0 6.2969 5.0391 11.336 11.336 11.336s11.336-5.0391 11.336-11.336v-96.984h42.195c18.578 0 34.953-10.391 43.453-25.82v122.8c0 6.2969 5.0391 11.336 11.336 11.336s11.336-5.0391 11.336-11.336l-0.003906-189.56v-52.902c3.4648-0.62891 6.9258-1.2578 10.391-1.2578h8.1875v39.359c0 6.2969 5.0391 11.336 11.336 11.336h63.293c6.2969 0 11.336-5.0391 11.336-11.336v-39.359h11.02c2.5195 0 5.0391 0.31641 7.5586 0.62891v242.77c0 6.2969 5.0391 11.336 11.336 11.336s11.336-5.0391 11.336-11.336v-20.148c2.5195 0.62891 5.0391 0.94531 7.5586 0.94531 16.688 0 30.23-13.539 30.23-29.914l-0.003906-149.57c0.3125-28.973-18.578-54.16-44.715-63.293zm-178.85 123.43c-3.1484 11.336-13.855 18.895-25.504 18.895h-52.586c-4.0938 0-7.5586-3.4648-7.5586-7.5586s3.4648-7.5586 7.5586-7.5586h50.695c4.7227 0 9.1328-3.1484 10.707-7.5586l22.984-66.754c0-0.31641 0-0.62891 0.31641-0.62891 1.8906-7.5586 5.9844-14.168 11.02-19.523v38.418zm122.17-76.832h-40.617v-28.023h40.621zm79.352 166.57c0 4.0938-3.4648 7.5586-7.5586 7.5586s-7.5586-3.4648-7.5586-7.5586l0.003906-183.26c9.4453 8.1875 15.43 20.152 15.43 33.379v149.88z"/>
  <path d="m348.67 264.91h37.785c5.3516 32.117 33.691 56.68 67.699 56.68s62.031-24.562 67.699-56.68h35.582c6.2969 0 11.336-5.0391 11.336-11.336s-5.0352-11.02-11.336-11.02h-35.895c-5.3516-32.117-33.691-56.68-67.699-56.68s-62.031 24.562-67.699 56.68h-37.785c-6.2969 0-11.336 5.0391-11.336 11.336s5.3516 11.02 11.648 11.02zm105.17 34.008c-21.41 0-39.359-14.484-44.398-34.008h89.109c-5.0352 19.523-23.301 34.008-44.711 34.008zm0-90.371c21.41 0 39.359 14.484 44.398 34.008h-88.797c5.0391-19.523 22.984-34.008 44.398-34.008z"/>
 </g>
</svg>