<?xml version="1.0" encoding="UTF-8"?>
<!-- The Best Svg Icon site in the world: iconSvg.co, Visit us! https://iconsvg.co -->
<svg fill="#000000" width="800px" height="800px" version="1.1" viewBox="144 144 512 512" xmlns="http://www.w3.org/2000/svg">
 <g>
  <path d="m407.87 352.29v-26.766c19.523-3.7773 34.164-20.941 34.164-41.406 0-2.0469-0.15625-4.0938-0.47266-6.1406h-83.133c-0.31641 2.0469-0.47266 4.0938-0.47266 6.1406 0 20.469 14.641 37.629 34.164 41.406v26.766c-22.355-2.0469-40.148-12.594-44.871-26.137l-59.191 0.003906v69.902h55.891l-13.855 125.95h139.8l-13.855-125.95h55.891v-69.902h-59.199c-4.7148 13.539-22.508 24.086-44.863 26.133z"/>
  <path d="m447.7 270.11h8.3438v-14.012l-56.047-69.902-56.051 69.902v14.012z"/>
  <path d="m211.39 308.05c-2.3633 3.7773-1.1016 8.5 2.6758 10.863l45.5 27.238-27.555-0.003906c-4.25 0-7.8711 3.6211-7.8711 7.8711 0 4.4102 3.6211 7.8711 7.8711 7.8711h37.156l-42.668 42.668c-3.1484 2.9922-3.1484 8.0312 0 11.02 1.5742 1.5742 3.6211 2.3633 5.5117 2.3633 2.0469 0 4.0938-0.78906 5.668-2.3633l42.508-42.508v-22.199l0.003906-10.703-58.098-34.797c-3.7773-2.2031-8.5-1.1016-10.703 2.6797z"/>
  <path d="m588.61 308.05c-2.2031-3.7773-7.0859-4.8789-10.707-2.6758l-58.094 34.793v32.906l42.508 42.508c1.5742 1.5742 3.6211 2.3633 5.668 2.3633 1.8906 0 3.9375-0.78906 5.5117-2.3633 3.1484-2.9922 3.1484-8.0312 0-11.02l-42.508-42.668h37c4.25 0 7.8711-3.4648 7.8711-7.8711 0-4.25-3.6211-7.8711-7.8711-7.8711h-27.551l45.5-27.238c3.7734-2.3633 5.0312-7.0859 2.6719-10.863z"/>
  <path d="m392.12 605.93c0 4.4102 3.4648 7.8711 7.8711 7.8711 4.4102 0 7.8711-3.4648 7.8711-7.8711v-76.043h-15.742z"/>
 </g>
</svg>