<?xml version="1.0" encoding="UTF-8"?>
<!-- The Best Svg Icon site in the world: iconSvg.co, Visit us! https://iconsvg.co -->
<svg fill="#000000" width="800px" height="800px" version="1.1" viewBox="144 144 512 512" xmlns="http://www.w3.org/2000/svg">
 <path d="m204.02 601.52h392.97c3.0234 0 5.0391-2.0156 5.0391-5.0391s-2.0156-5.0391-5.0391-5.0391h-19.145c-2.5195-24.184-22.672-42.824-47.359-42.824s-44.84 18.641-47.359 42.824h-35.266c-2.5195-33.754-29.727-60.961-63.48-63.48v-72.043c3.5273 0.50391 10.078 1.0078 19.145 1.0078 19.145 0 47.359-3.5273 65.496-21.664 29.223-29.223 20.656-84.137 20.152-86.656-0.50391-2.0156-2.0156-4.0312-4.0312-4.0312-2.5195-0.50391-57.434-9.0703-86.656 20.152-6.0469 6.0469-10.578 13.602-14.105 21.16v-35.266c9.0703-7.0547 45.344-37.281 45.344-74.562 0-41.816-45.344-75.066-47.359-76.578-1.5117-1.0078-4.0312-1.0078-6.0469 0-2.0156 1.5117-47.359 34.258-47.359 76.578 0 37.281 36.273 67.512 45.344 74.562v34.762c-3.0234-7.5586-7.5586-14.609-13.602-20.656-29.223-29.223-84.137-20.656-86.656-20.152-2.0156 0.50391-4.0312 2.0156-4.0312 4.0312-0.50391 2.5195-9.0703 57.434 20.152 86.656 18.137 18.137 46.352 21.664 65.496 21.664 8.5664 0 15.113-0.50391 18.641-1.0078v72.043c-27.711 2.0156-50.383 20.152-59.449 45.344-8.0625-14.609-23.68-24.688-41.816-24.688-24.688 0-44.84 18.641-47.359 42.824h-20.656c-3.0234 0-5.0391 2.0156-5.0391 5.0391 0.003906 3.0234 1.5156 5.0391 4.0352 5.0391zm201.02-229.74c21.664-21.664 61.969-19.145 74.059-18.137 1.5117 12.09 4.0312 52.395-18.137 74.059-21.664 21.664-61.969 19.145-74.059 18.137-1.0078-12.09-3.5273-52.395 18.137-74.059zm-33.754 74.059c-12.09 1.5117-52.395 3.5273-74.059-18.137-21.664-21.664-19.145-61.969-18.137-74.059 12.09-1.5117 52.395-3.5273 74.059 18.137 21.664 21.664 19.145 61.969 18.137 74.059zm159.2 112.86c19.145 0 34.762 14.105 37.281 32.746h-75.066c2.5195-18.641 18.641-32.746 37.785-32.746zm-191.95-283.14c0-31.234 30.73-57.938 40.305-66 9.5742 7.5586 40.305 34.762 40.305 66 0 31.234-30.73 57.938-40.305 66-9.5742-7.5586-40.305-34.766-40.305-66zm40.809 262.48c30.73 0 55.922 23.68 58.441 53.402h-116.88c2.5156-30.227 27.707-53.402 58.441-53.402zm-106.81 20.656c19.145 0 34.762 14.105 37.281 32.746h-74.562c2.5195-18.641 18.137-32.746 37.281-32.746z"/>
</svg>