<?xml version="1.0" encoding="UTF-8"?>
<!-- The Best Svg Icon site in the world: iconSvg.co, Visit us! https://iconsvg.co -->
<svg fill="#000000" width="800px" height="800px" version="1.1" viewBox="144 144 512 512" xmlns="http://www.w3.org/2000/svg">
 <g>
  <path d="m253.14 601.46c30.719 0 55.711-24.992 55.711-55.711 0-4.625-0.62891-9.0938-1.6953-13.395h106.59c11.594 39.863 48.379 69.105 91.934 69.105 52.82 0 95.789-42.973 95.789-95.789 0-38.07-22.379-70.93-54.625-86.363v-59.512c0-11.828-7.8633-21.75-18.594-25.117v-77.434h13.559c2.7812 0 5.0391-2.2539 5.0391-5.0391v-48.758c0-2.7812-2.2539-5.0391-5.0391-5.0391l-187.38 0.003906c-2.7812 0-5.0391 2.2539-5.0391 5.0391v48.758c0 2.7812 2.2539 5.0391 5.0391 5.0391h10.359l-14.641 76.711-96.211 14.887c-13.77 1.9766-24.148 13.957-24.148 27.863v81.086h-11.012c-2.7812 0-5.0391 2.2539-5.0391 5.0391v43.574c-10.066 10.086-16.301 23.996-16.301 39.336-0.003906 30.723 24.988 55.715 55.707 55.715zm0-10.078c-25.164 0-45.637-20.473-45.637-45.637 0-25.164 20.473-45.633 45.637-45.633s45.633 20.469 45.633 45.633c0 25.164-20.469 45.637-45.633 45.637zm338.25-85.715c0 47.262-38.453 85.715-85.715 85.715s-85.715-38.453-85.715-85.715c0-47.266 38.453-85.715 85.715-85.715 47.266 0 85.715 38.453 85.715 85.715zm-231.93-297.18h177.3v38.68h-177.3zm158.71 48.758v76.109h-71.488c-2.7812 0-5.0391 2.2539-5.0391 5.0391v49.648c0 10.07-8.1914 18.262-18.262 18.262h-45.656c-10.07 0-18.262-8.1914-18.262-18.262v-49.168l15.582-81.629zm-278.32 119.46c0-8.9297 6.668-16.621 15.559-17.898l93.969-14.543v43.77c0 15.625 12.715 28.34 28.34 28.34h45.656c15.625 0 28.34-12.715 28.34-28.34v-44.609h68.68c9.0234 0 16.363 7.3398 16.363 16.363v55.359c-9.7656-3.3633-20.195-5.2812-31.09-5.2812-35.375 0-66.254 19.324-82.844 47.922l-182.97 0.003907zm177.84 91.164c-5.0039 11.605-7.8008 24.375-7.8008 37.797 0 5.6719 0.58984 11.203 1.5391 16.609l-107.62-0.003906c-0.070312 0-0.12891 0.039062-0.19922 0.039062-8.8711-19.027-28.129-32.277-50.473-32.277-10.77 0-20.801 3.1211-29.332 8.4375v-30.602z"/>
  <path d="m500.64 445.64v26.926c0 2.7812 2.2539 5.0391 5.0391 5.0391 2.7812 0 5.0391-2.2539 5.0391-5.0391v-26.926c0-2.7812-2.2539-5.0391-5.0391-5.0391-2.7852 0-5.0391 2.2578-5.0391 5.0391z"/>
  <path d="m479.53 484.75-23.32-13.465c-2.4102-1.3906-5.4922-0.56641-6.8828 1.8438s-0.56641 5.4922 1.8438 6.8828l23.32 13.465c0.79297 0.45703 1.6602 0.67578 2.5156 0.67578 1.7422 0 3.4336-0.90234 4.3672-2.5195 1.3906-2.4062 0.56641-5.4883-1.8438-6.8828z"/>
  <path d="m474.49 517.85-23.32 13.465c-2.4102 1.3906-3.2344 4.4766-1.8438 6.8828 0.93359 1.6172 2.6289 2.5195 4.3672 2.5195 0.85547 0 1.7227-0.21484 2.5156-0.67578l23.32-13.465c2.4102-1.3906 3.2344-4.4766 1.8438-6.8828-1.3945-2.4102-4.4766-3.2422-6.8828-1.8438z"/>
  <path d="m505.68 533.73c-2.7812 0-5.0391 2.2539-5.0391 5.0391v26.926c0 2.7812 2.2539 5.0391 5.0391 5.0391 2.7812 0 5.0391-2.2539 5.0391-5.0391l-0.003906-26.926c0-2.7812-2.2539-5.0391-5.0352-5.0391z"/>
  <path d="m531.82 526.58 23.32 13.465c0.79297 0.45703 1.6602 0.67578 2.5156 0.67578 1.7422 0 3.4336-0.90234 4.3672-2.5195 1.3906-2.4102 0.56641-5.4922-1.8438-6.8828l-23.32-13.465c-2.4141-1.3984-5.4922-0.56641-6.8828 1.8438-1.3906 2.4062-0.56641 5.4922 1.8438 6.8828z"/>
  <path d="m534.35 494.15c0.85547 0 1.7227-0.21484 2.5156-0.67578l23.32-13.465c2.4102-1.3906 3.2344-4.4766 1.8438-6.8828-1.3945-2.4102-4.4805-3.2383-6.8828-1.8438l-23.32 13.465c-2.4102 1.3906-3.2344 4.4766-1.8438 6.8828 0.93359 1.6172 2.6289 2.5195 4.3672 2.5195z"/>
  <path d="m253.14 517.18c-2.7812 0-5.0391 2.2539-5.0391 5.0391v9.8242c0 2.7812 2.2539 5.0391 5.0391 5.0391 2.7812 0 5.0391-2.2539 5.0391-5.0391v-9.8242c0-2.7812-2.2578-5.0391-5.0391-5.0391z"/>
  <path d="m239.43 540.71h-9.8242c-2.7812 0-5.0391 2.2539-5.0391 5.0391 0 2.7812 2.2539 5.0391 5.0391 5.0391h9.8242c2.7812 0 5.0391-2.2539 5.0391-5.0391s-2.2578-5.0391-5.0391-5.0391z"/>
  <path d="m253.14 554.41c-2.7812 0-5.0391 2.2539-5.0391 5.0391v9.8242c0 2.7812 2.2539 5.0391 5.0391 5.0391 2.7812 0 5.0391-2.2539 5.0391-5.0391v-9.8242c0-2.7812-2.2578-5.0391-5.0391-5.0391z"/>
  <path d="m276.67 540.71h-9.8242c-2.7812 0-5.0391 2.2539-5.0391 5.0391 0 2.7812 2.2539 5.0391 5.0391 5.0391h9.8242c2.7812 0 5.0391-2.2539 5.0391-5.0391s-2.2578-5.0391-5.0391-5.0391z"/>
 </g>
</svg>