<?xml version="1.0" encoding="UTF-8"?>
<!-- The Best Svg Icon site in the world: iconSvg.co, Visit us! https://iconsvg.co -->
<svg fill="#000000" width="800px" height="800px" version="1.1" viewBox="144 144 512 512" xmlns="http://www.w3.org/2000/svg">
 <path d="m261.43 421.39 74.996 16.328-21.32 25.891v15.988c0 2.9922-2.4219 5.4141-5.4141 5.4141-2.9922 0-5.4141-2.4297-5.4141-5.4141v-15.836h-13.922v15.836c0 2.9922-2.4297 5.4141-5.4141 5.4141-2.9883 0-5.4141-2.4297-5.4141-5.4141v-15.836h-16.137l9.0977 70.852h-17.672l-17.348-70.781-0.32422-10.926zm152.2 17.562-12.281 95.652h17.672l18.227-78.457-9.2031-17.207zm213.08-3.5352-44.281 0.14453-78.645-151.16c-6.0977-11.695-18.188-19.027-31.379-19.027l-270.78-0.003906c-15.656 0.007813-28.34 12.699-28.34 28.348v134.61h14.172v-134.61c0-7.8086 6.3594-14.172 14.172-14.172v64.207l7.082 49.152-7.082 42.512 7.082 99.191h17.715v-85.023l30.695-40.012 86.207 18.758 92.621-0.019532 18.574 35.441 7.4766 70.852h17.715v-106.28l100.96 106.27h14.762c6.5195 0 11.809-5.2852 11.809-11.809l0.003906-67.898z"/>
</svg>