<?xml version="1.0" encoding="UTF-8"?>
<!-- The Best Svg Icon site in the world: iconSvg.co, Visit us! https://iconsvg.co -->
<svg fill="#000000" width="800px" height="800px" version="1.1" viewBox="144 144 512 512" xmlns="http://www.w3.org/2000/svg">
 <g>
  <path d="m510.59 325.27h58.422c2.7852 0 5.0391-2.2539 5.0391-5.0391 0-2.7812-2.2539-5.0391-5.0391-5.0391l-58.422 0.003906c-2.7852 0-5.0391 2.2539-5.0391 5.0391 0.003906 2.7812 2.2578 5.0352 5.0391 5.0352z"/>
  <path d="m510.59 353.16h58.422c2.7852 0 5.0391-2.2539 5.0391-5.0391 0-2.7812-2.2539-5.0391-5.0391-5.0391h-58.422c-2.7852 0-5.0391 2.2539-5.0391 5.0391 0.003906 2.7812 2.2578 5.0391 5.0391 5.0391z"/>
  <path d="m596.48 198.48h-113.36c-2.7852 0-5.0391 2.2539-5.0391 5.0391v332.52c0 1.2773 0.48828 2.5117 1.3633 3.4453l56.68 60.457c0.95313 1.0117 2.2812 1.5898 3.6719 1.5898 1.3906 0 2.7227-0.57422 3.6758-1.5898l56.68-60.457c0.875-0.9375 1.3633-2.1719 1.3633-3.4492v-332.52c0-2.7812-2.2539-5.0352-5.0391-5.0352zm-5.0391 335.56-51.641 55.082-51.641-55.082v-325.48h103.28z"/>
  <path d="m539.8 291.05c17.977 0 32.602-14.621 32.602-32.598 0-17.973-14.621-32.598-32.602-32.598-17.977 0-32.602 14.625-32.602 32.602 0.003906 17.973 14.625 32.594 32.602 32.594zm0-55.121c12.418 0 22.523 10.102 22.523 22.523 0 12.418-10.105 22.52-22.523 22.52-12.418 0-22.523-10.102-22.523-22.52s10.105-22.523 22.523-22.523z"/>
  <path d="m198.84 482.61c5.8555 63.645 58.727 114.65 122.99 118.64 2.8789 0.17969 5.7422 0.26953 8.5938 0.26953 33.895 0 65.785-12.562 90.578-35.863 26.66-25.055 41.34-58.93 41.34-95.379 0-29.184-9.4453-56.812-27.312-79.906-9.3438-12.082-14.188-26.301-13.621-40.035 0.21484-5.3008-0.050781-10.68-0.78906-15.988-5.2031-37.398-34.164-68.082-70.777-76.074l4.3125-35.434c0.019531-0.20312 0.035156-0.40234 0.035156-0.60938 0-13.105-10.715-23.762-23.887-23.762-13.172 0-23.883 10.66-23.883 23.766 0 0.17578 0.011719 0.35156 0.03125 0.52734l0.57812 5.4766c-4.5586-7.5078-10.41-14.43-18.363-19.32-25.387-15.609-60.355-3.6172-61.828-3.1016-2.2383 0.78906-3.625 3.0273-3.332 5.3789 0.19141 1.543 5.0117 38.027 30.414 53.645 7.6094 4.6758 16.184 6.7266 24.508 7.3164-24.418 16.352-39.297 43.246-39.297 74.543 0 2 0.070313 3.9844 0.19531 5.957 0.85156 12.586-2.9453 24.633-10.695 33.922-22.434 26.879-33.012 60.98-29.793 96.027zm131.46-274.06c7.5234 0 13.656 5.9883 13.805 13.406l-4.1953 34.469c-4.5195-0.54688-11.488-0.89844-19.77 0.15234l-3.6484-34.582c0.13672-7.4375 6.2773-13.445 13.809-13.445zm-71.105 47.711c-16.695-10.262-22.992-32.793-24.945-42.133 9.2695-2.4492 32.359-6.9414 49.141 3.3789 14.406 8.8555 21.27 27.012 25.719 40.941-9.7617 2.8398-33.336 8.0039-49.914-2.1875zm-9.8125 95.727c-0.11719-1.7461-0.17578-3.5078-0.17578-5.2812 0-39.953 27.344-71.91 68.047-79.523 14.574-2.7227 25.703-0.0625 26.199 0.042968 34.75 5.7852 62.383 33.961 67.188 68.512 0.65625 4.7148 0.89062 9.4883 0.69922 14.188-0.66406 16.102 4.9219 32.66 15.719 46.613 16.492 21.312 25.207 46.816 25.207 73.746 0 33.645-13.555 64.906-38.164 88.039-24.832 23.332-57.359 35.027-91.645 32.879-59.355-3.6914-108.19-50.77-113.58-109.51-2.9766-32.363 6.7891-63.844 27.492-88.652 9.418-11.289 14.039-25.871 13.016-41.055z"/>
  <path d="m405.63 492.66c0.44141 0.12109 0.89063 0.17969 1.3281 0.17969 2.2148 0 4.2461-1.4766 4.8555-3.7188 2.0703-7.625 3.125-15.523 3.125-23.473 0-2.7812-2.2539-5.0391-5.0391-5.0391s-5.0391 2.2539-5.0391 5.0391c0 7.0586-0.92969 14.066-2.7695 20.832-0.72656 2.6836 0.85547 5.4531 3.5391 6.1797z"/>
  <path d="m319.25 555c1.9375 0.12109 3.8555 0.17969 5.7773 0.17969 32.152 0 61.617-16.781 77.867-44.738 1.4023-2.4062 0.58594-5.4883-1.8203-6.8867-2.4023-1.3906-5.4844-0.57813-6.8867 1.8242-15.297 26.309-43.777 41.449-74.309 39.566-2.9336-0.21094-5.1719 1.9375-5.3438 4.7148s1.9414 5.168 4.7148 5.3398z"/>
 </g>
</svg>