<?xml version="1.0" encoding="UTF-8"?>
<!-- The Best Svg Icon site in the world: iconSvg.co, Visit us! https://iconsvg.co -->
<svg fill="#000000" width="800px" height="800px" version="1.1" viewBox="144 144 512 512" xmlns="http://www.w3.org/2000/svg">
 <path d="m620.41 431.49h-41.984v-10.496h20.992c2.7852 0 5.4531-1.1094 7.4219-3.0742 1.9688-1.9688 3.0742-4.6406 3.0742-7.4219v-52.48c0-2.7852-1.1055-5.4531-3.0742-7.4219s-4.6367-3.0742-7.4219-3.0742h-20.992v-10.496h20.992c2.7852 0 5.4531-1.1055 7.4219-3.0742s3.0742-4.6406 3.0742-7.4219v-52.48c0-2.7852-1.1055-5.4531-3.0742-7.4219s-4.6367-3.0742-7.4219-3.0742h-20.992v-20.992c0-2.7852-1.1055-5.4531-3.0742-7.4219s-4.6367-3.0742-7.4219-3.0742h-31.488c-5.7969 0-10.496 4.6992-10.496 10.496v20.992h-241.41v-20.992c0-2.7852-1.1055-5.4531-3.0742-7.4219s-4.6406-3.0742-7.4219-3.0742h-31.488c-5.7969 0-10.496 4.6992-10.496 10.496v20.992h-31.488c-5.7969 0-10.496 4.6992-10.496 10.496v52.48c0 2.7812 1.1055 5.4531 3.0742 7.4219s4.6367 3.0742 7.4219 3.0742h31.488v10.496h-31.488c-5.7969 0-10.496 4.6992-10.496 10.496v52.48c0 2.7812 1.1055 5.4531 3.0742 7.4219 1.9688 1.9648 4.6367 3.0742 7.4219 3.0742h31.488v10.496h-52.48c-5.7969 0-10.496 4.6992-10.496 10.496v31.488c0 2.7812 1.1055 5.4531 3.0742 7.418 1.9688 1.9688 4.6367 3.0742 7.4219 3.0742h52.48v73.473c0 2.7852 1.1055 5.4531 3.0742 7.4219s4.6367 3.0742 7.4219 3.0742h31.488c2.7812 0 5.4531-1.1055 7.4219-3.0742s3.0742-4.6367 3.0742-7.4219v-73.473h241.41v73.473c0 2.7852 1.1094 5.4531 3.0742 7.4219 1.9688 1.9688 4.6406 3.0742 7.4219 3.0742h31.488c2.7852 0 5.4531-1.1055 7.4219-3.0742s3.0742-4.6367 3.0742-7.4219v-73.473h41.984c2.7852 0 5.4531-1.1055 7.4219-3.0742 1.9688-1.9648 3.0742-4.6367 3.0742-7.418v-31.488c0-2.7852-1.1055-5.457-3.0742-7.4219-1.9688-1.9688-4.6367-3.0742-7.4219-3.0742zm-62.977 0h-10.496v-10.496h10.496zm-272.89 0v-10.496h241.41v10.496zm272.9-83.969h-10.5v-10.496h10.496zm-272.9 0v-10.496h241.41v10.496zm262.4-94.465h10.496v10.496h-10.5zm-293.89 0h10.496v10.496h-10.496zm-41.984 31.488h377.86v31.488h-377.86zm41.984 52.48h10.496v10.496h-10.496zm-41.984 31.488h377.86v31.488h-377.86zm41.984 52.48h10.496v10.496h-10.496zm10.496 125.95-10.496-0.003906v-62.977h10.496zm293.89 0-10.5-0.003906v-62.977h10.496zm52.48-83.969h-419.84v-10.496h419.84z"/>
</svg>