<?xml version="1.0" encoding="UTF-8"?>
<!-- The Best Svg Icon site in the world: iconSvg.co, Visit us! https://iconsvg.co -->
<svg fill="#000000" width="800px" height="800px" version="1.1" viewBox="144 144 512 512" xmlns="http://www.w3.org/2000/svg">
 <g>
  <path d="m487.4 377.14c-1.8516-9.1719-10.215-15.305-19.477-14.297-0.60156 0.066406-1.2656 0.17188-1.8789 0.25l-2.4727-12.246c-1.832-9.0664-10.414-15.379-19.586-14.359-0.60156 0.070313-1.1836 0.15234-1.7891 0.22656l-2.4648-12.219c-1.8359-9.0898-10.18-15.277-19.273-14.348-0.68359 0.0625-1.3945 0.14062-2.1016 0.21484l-2.5039-12.398c-0.003907 0-0.003907-0.003906-0.003907-0.003906-1.7969-8.8945-9.9023-15.102-18.797-14.367-0.85547 0.0625-1.7188 0.13281-2.582 0.20703l-2.4961-12.367c-1.7344-8.6016-9.4922-14.832-18.215-14.41-7.5859 0.39062-14.621 0.95312-21.387 1.6953l-1.3594-6.7305c-2.2656-11.223-11.922-19.32-22.98-19.32h-0.18359c-12.305 0.035156-24.641 2.7148-37.715 8.1875-10.445 4.3945-16.383 15.73-14.117 26.961l1.3086 6.4766c-7.2461 2.207-13.895 4.3867-20.137 6.6211-8.2734 2.9727-13.188 11.789-11.43 20.5l2.4961 12.363c-0.011718 0.003906-0.023437 0.007812-0.035156 0.011718l-2.2383 0.72656c-8.6094 2.793-13.742 11.66-11.934 20.629l2.4688 12.227c-0.70312 0.22266-1.418 0.43359-2.1172 0.65625-8.7227 2.7344-13.918 11.645-12.09 20.723l2.4766 12.281-1.793 0.52734c-8.7969 2.5664-14.254 11.703-12.418 20.801l2.4609 12.18c-0.54297 0.16016-1.1016 0.30469-1.6406 0.46484-9.0312 2.6641-14.434 11.652-12.566 20.902l3.6953 18.316c1.7031 8.4414 9.1914 14.441 17.559 14.441 0.71484 0 1.4375-0.042968 2.1641-0.13281 4.418-0.54688 8.8281-1.1875 13.242-1.7695l2.2422 11.105c1.7891 8.8672 9.4531 15.094 18.242 15.094 0.58594 0 1.1758-0.03125 1.7695-0.082032l0.68359-0.070312c0.66016-0.066406 1.2695-0.14062 1.918-0.21094l2.668 13.215c1.7812 8.8203 9.4414 15.039 18.215 15.039 0.55078 0 1.1055-0.023437 1.6641-0.074218l2.4336-0.21875c0.10547-0.007813 0.20312-0.023438 0.30859-0.03125l2.6992 13.375c1.7695 8.7617 9.5195 15.086 18.277 15.086 0.34375 0 0.69531-0.011719 1.043-0.03125 7.0977-0.41797 14.566-1.0625 22.641-1.9297l1.4414 7.1289c2.375 11.75 12.668 20.25 24.516 20.25h0.10156c14.773-0.082031 28.266-2.6602 40.078-7.6445 10.797-4.4883 16.898-16.328 14.516-28.148l-1.5117-7.4844c7.0234-2.1133 14.195-4.457 21.91-7.2812 8.4453-3.1523 13.445-12.297 11.633-21.273l-2.707-13.41c0.96094-0.31641 1.9297-0.63672 2.8398-0.94922 8.875-2.9805 14.156-12.219 12.285-21.492l-2.7148-13.453c0.79297-0.23828 1.5938-0.46094 2.375-0.70703 9.1797-2.8945 14.66-12.211 12.754-21.664l-2.2344-11.062c4.2812-1.1914 8.5859-2.3242 12.855-3.5508 8.9414-2.5625 14.496-11.742 12.648-20.898zm-193.36-126.99c11.82-4.9531 22.891-7.3711 33.871-7.4062h0.10156c6.2969 0 11.809 4.707 13.125 11.234l1.2031 5.9609c-2.4258 0.32812-4.8711 0.74609-7.3047 1.125-1.6328 0.25391-3.2617 0.48047-4.8984 0.75391-4.8984 0.82422-9.8047 1.7305-14.727 2.7461-0.19141 0.039063-0.38672 0.070313-0.57812 0.10938-5.1094 1.0625-10.223 2.25-15.344 3.5156-1.6367 0.40625-3.2695 0.85938-4.9062 1.2852-2.5156 0.65234-5.0273 1.2695-7.543 1.9727l-1.1406-5.6211c-1.3203-6.543 2.1055-13.141 8.1406-15.676zm-33.441 40.25c7.3125-2.6172 15.164-5.1641 23.996-7.7773 8.4023-2.4609 16.82-4.5625 25.223-6.4648 7.75-1.7539 15.488-3.3555 23.18-4.625 5.1758-0.85156 10.328-1.5859 15.453-2.2109 0.17188-0.019531 0.34766-0.054688 0.51953-0.074219 7.9453-0.98828 16.223-1.6953 25.273-2.1602 0.10938-0.003906 0.21484-0.007813 0.32422-0.007813 3.5859 0 6.793 2.6758 7.5312 6.3438h0.003907l2.2734 11.266c-2.1484 0.21484-4.3086 0.49219-6.4609 0.73047-2.3047 0.25391-4.6094 0.5-6.9219 0.78125-3.2422 0.39844-6.4922 0.85156-9.7422 1.3047-2.2305 0.3125-4.4609 0.60156-6.6953 0.9375-3.4688 0.52344-6.9453 1.1133-10.426 1.6953-2.0273 0.33984-4.0469 0.64844-6.0781 1.0117-4.3477 0.77734-8.707 1.6289-13.066 2.5-1.1641 0.23438-2.3242 0.43359-3.4883 0.67188-5.4453 1.1211-10.898 2.3242-16.359 3.5977-2.1094 0.49219-4.2266 1.0391-6.3359 1.5547-3.4141 0.83203-6.832 1.6562-10.25 2.543-2.3672 0.61719-4.7305 1.2812-7.0977 1.9258-3.1953 0.86719-6.3867 1.7305-9.582 2.6523-2.3633 0.67969-4.7227 1.3984-7.0859 2.1055-2.2852 0.68359-4.5742 1.332-6.8594 2.0391l-2.2812-11.32c-0.77734-3.8438 1.3555-7.7266 4.9531-9.0195zm-11.535 33.715 2.3008-0.74219c1.3672-0.44922 2.7266-0.89844 4.2656-1.3398 45.418-14.5 90.922-23.863 135.24-27.836h0.003906c1.1484-0.082031 2.3086-0.17969 3.4648-0.27734l3.4648-0.27734c0.19531-0.015625 0.39453-0.023437 0.58984-0.023437 3.6328 0 6.832 2.6328 7.5859 6.3398l2.3281 11.531c-3.2148 0.36719-6.3984 0.80469-9.6016 1.2031-3.1094 0.38672-6.2266 0.75-9.3242 1.168-4.3281 0.57812-8.625 1.2188-12.93 1.8555-2.875 0.42578-5.7656 0.82031-8.6328 1.2695-4.7852 0.75-9.5352 1.5703-14.289 2.3867-2.3516 0.40625-4.7227 0.77344-7.0664 1.1953-7.0625 1.2695-14.09 2.6055-21.074 4.0273-0.89062 0.17969-1.7695 0.38672-2.6602 0.57031-6.0977 1.2578-12.172 2.5547-18.203 3.9258-2.5039 0.57031-4.9727 1.1875-7.4648 1.7773-4.3945 1.0391-8.7891 2.0664-13.148 3.1641-2.832 0.71484-5.625 1.4766-8.4414 2.2148-3.9766 1.043-7.9609 2.082-11.906 3.1758-2.9062 0.80469-5.7812 1.6562-8.668 2.4922-2.8984 0.83594-5.8203 1.6367-8.6953 2.5l-2.2695-11.25c-0.79688-3.957 1.4219-7.8477 5.1289-9.0508zm-11.613 33.523c2.1016-0.67578 4.2031-1.3477 6.3906-1.9844 54.016-16.594 111.56-28.289 171.04-34.762 0.015626-0.003906 0.51563-0.0625 0.52734-0.0625 1.9727-0.23438 3.9922-0.47266 6.0078-0.65625 0.25-0.023437 0.49609-0.035156 0.74219-0.035156 3.6523 0 6.9531 2.668 7.6953 6.3477l2.3164 11.465c-4.1094 0.50781-8.1914 1.0938-12.289 1.6406-3.7461 0.5-7.5 0.96875-11.23 1.5-5.207 0.73828-10.379 1.5469-15.559 2.3398-3.5078 0.53906-7.0312 1.043-10.527 1.6094-5.7539 0.93359-11.473 1.9414-17.191 2.9492-2.8789 0.50391-5.7773 0.97266-8.6445 1.4961-8.5586 1.5625-17.074 3.2031-25.543 4.9258-0.98438 0.19922-1.9531 0.42578-2.9375 0.62891-7.4922 1.543-14.961 3.1328-22.379 4.8047-2.9258 0.65625-5.8125 1.3711-8.7227 2.0508-5.4414 1.2656-10.883 2.5234-16.281 3.8594-3.3711 0.83203-6.707 1.7227-10.059 2.582-4.8867 1.2539-9.7773 2.4922-14.625 3.8008-3.543 0.95703-7.0469 1.9648-10.57 2.9492-3.6992 1.0352-7.4297 2.0312-11.105 3.0977l-2.3047-11.426c-0.80078-3.9414 1.4922-7.9453 5.25-9.1211zm-11.621 33.594 6.25-1.832c57.285-16.938 117.68-29.898 179.95-38.625 8.8828-1.2461 17.801-2.4023 26.75-3.4727 0.003906 0 0.003906-0.003907 0.007813-0.003907 0.039062-0.003906 0.074219-0.011719 0.11328-0.015625 2.0547-0.29688 4.1758-0.54688 6.2148-0.78125 0.28125-0.03125 0.5625-0.046875 0.83984-0.046875 3.6758 0 6.9844 2.668 7.7344 6.3828l2.3398 11.582c-5.0664 0.67188-10.07 1.4258-15.109 2.1367-4.543 0.64062-9.1055 1.2539-13.625 1.9258-6.3516 0.94531-12.637 1.9609-18.938 2.9648-4.0234 0.64062-8.0781 1.2461-12.078 1.9141-7.2148 1.1992-14.359 2.4805-21.504 3.7578-3.0273 0.54297-6.0938 1.0469-9.1094 1.6016-10.133 1.8672-20.191 3.8125-30.164 5.8398-1.4219 0.28906-2.8086 0.60547-4.2266 0.89844-8.5234 1.7539-17.008 3.543-25.406 5.4102-3.4922 0.77734-6.9219 1.6094-10.395 2.4062-6.2617 1.4375-12.535 2.8633-18.723 4.3633-3.9336 0.95312-7.7969 1.9609-11.699 2.9414-5.6562 1.418-11.324 2.8242-16.914 4.293-4 1.0547-7.9375 2.1562-11.902 3.2383-4.4961 1.2227-9.0391 2.4102-13.488 3.668l-2.3008-11.406c-0.80078-4.0117 1.5586-8.0234 5.3789-9.1406zm166.71 166.24c-10.758 4.543-22.613 6.7891-36.23 6.8633h-0.0625c-7.0547 0-13.207-5.1094-14.633-12.168l-1.2734-6.3086c2.8555-0.37109 5.6758-0.82812 8.5117-1.2539 1.7461-0.26172 3.5039-0.49219 5.2422-0.77344 5.5469-0.89453 11.059-1.8672 16.508-2.957 0.23047-0.046875 0.45703-0.10156 0.69141-0.14844 5.2109-1.0508 10.367-2.2031 15.477-3.4297 1.7461-0.42188 3.4609-0.88672 5.1953-1.3281 2.5898-0.65625 5.207-1.2812 7.7656-1.9844l1.3359 6.6289c1.4414 7.1133-2.1367 14.203-8.5273 16.859zm35.316-43.074c-9.0781 3.3242-17.465 6.0781-25.656 8.4219-5.4453 1.5742-10.969 3.0469-16.559 4.4062-5.5898 1.3633-11.25 2.6172-16.969 3.7617-11.434 2.2891-23.102 4.1367-34.918 5.5312-9.7031 1.1211-18.434 1.8984-26.676 2.3828-4.2422 0.28516-8.0039-2.7656-8.8594-6.9883l-2.4961-12.367c2.5742-0.26172 5.1211-0.58594 7.6875-0.87109 2.5859-0.28906 5.1758-0.5625 7.7539-0.87891 3.7148-0.45703 7.4023-0.96875 11.094-1.4766 2.3555-0.32812 4.7227-0.62891 7.0703-0.97656 4.1914-0.62109 8.3516-1.3125 12.508-2.0078 1.8086-0.30078 3.6328-0.57031 5.4336-0.88672 5.9727-1.043 11.91-2.1562 17.805-3.3477 0.37109-0.074219 0.73047-0.16016 1.1016-0.23828 5.5078-1.1211 10.984-2.3047 16.422-3.5586 1.7969-0.41406 3.5703-0.87109 5.3594-1.2969 3.9883-0.95312 7.9727-1.9102 11.918-2.9297 2.125-0.55078 4.2227-1.1406 6.3359-1.7109 3.5703-0.96094 7.1406-1.9297 10.672-2.9492 2.2617-0.65234 4.5039-1.3398 6.75-2.0156 2.332-0.69922 4.6836-1.3633 6.9961-2.0898l2.4766 12.262c0.84375 4.168-1.4258 8.3984-5.25 9.8242zm12.012-35.719c-1.1406 0.39453-2.3008 0.77734-3.457 1.1602-1.207 0.39453-2.4141 0.79297-3.5039 1.1719-44.977 14.555-93.324 24.328-143.84 29.059-1.5391 0.1875-3.0664 0.32031-4.5977 0.44922l-2.5 0.22266c-4.3203 0.39062-8.2031-2.5938-9.0742-6.9258l-2.4805-12.297c3.8008-0.42188 7.6172-0.93359 11.426-1.4023 2.4766-0.30469 4.9531-0.58594 7.4336-0.91406 4.6797-0.61719 9.3711-1.3086 14.062-2.0039 2.8125-0.41406 5.6211-0.79688 8.4375-1.2383 4.3125-0.67578 8.6367-1.4297 12.957-2.168 3.168-0.53906 6.332-1.043 9.5039-1.6172 3.7422-0.67578 7.4961-1.4375 11.242-2.1602 8.6055-1.6602 17.223-3.4375 25.848-5.3438 2.2656-0.5 4.5273-0.95703 6.793-1.4727 4.1758-0.95312 8.3516-1.9922 12.527-3 3.2969-0.79688 6.5898-1.5586 9.8867-2.3867 3.75-0.94531 7.5039-1.9648 11.254-2.9531 3.7734-0.99609 7.5469-1.9727 11.324-3.0156 3.3203-0.91797 6.6367-1.8906 9.9531-2.8438 3.3086-0.94922 6.6211-1.8516 9.9258-2.8359l2.5312 12.547c0.87109 4.3125-1.543 8.5898-5.6523 9.9688zm18.066-45.789c0.875 4.3203-1.7227 8.7422-5.9141 10.066-1.9766 0.625-4.0117 1.2109-6.0039 1.7852l-0.63281 0.18359c-4.0898 1.2422-8.1875 2.3867-12.281 3.5742-39.609 11.473-79.273 20.441-118.54 26.785-17.016 2.7422-33.969 5.0547-50.812 6.8086-2.0898 0.26172-4.1875 0.47266-6.3281 0.6875l-0.65234 0.066406c-4.2539 0.42188-8.2812-2.6562-9.1523-6.9727l-2.1094-10.445c70.801-9.7734 141.34-24.164 210.34-42.902zm17.719-26.289c-83.148 23.848-168.82 41.32-254.64 51.934-3.9766 0.46875-7.793-2.2695-8.6094-6.3008l-3.6992-18.316c-0.82813-4.0977 1.5547-8.0703 5.5469-9.2461 1.9492-0.58203 3.9102-1.1523 6.0352-1.7148 65.594-18.816 136.22-33.855 210.57-44.832 10.539-1.5547 21.148-3.0273 31.824-4.418 0.003906 0 0.003906 0 0.007812-0.003907 0.10938-0.015625 0.21484-0.03125 0.32031-0.042969 1.9883-0.28516 4.0312-0.58203 6.0156-0.80078 0.29297-0.035156 0.58203-0.050781 0.86719-0.050781 3.6758 0 6.8672 2.5898 7.625 6.3203l3.6836 18.25c0.81641 4.043-1.6172 8.0977-5.5469 9.2227z"/>
  <path d="m354.41 401.32c-3.8086-2.5234-8.3789-3.4141-12.855-2.5039-9.2578 1.8906-15.262 10.984-13.387 20.27 0.91406 4.5156 3.5234 8.4023 7.3555 10.941 2.832 1.8789 6.0859 2.8516 9.4062 2.8516 1.1445 0 2.3008-0.11719 3.4453-0.34766 9.2578-1.8867 15.262-10.98 13.387-20.273-0.91016-4.5156-3.5195-8.4023-7.3516-10.938zm-8.043 21.336c-1.8359 0.375-3.707 0.011719-5.2734-1.0273-1.5859-1.0469-2.668-2.6602-3.0469-4.5352-0.77734-3.8516 1.6992-7.6211 5.5195-8.4023 0.47266-0.097656 0.94531-0.14453 1.4141-0.14453 1.3633 0 2.6992 0.40234 3.8633 1.1719 1.5859 1.0508 2.6641 2.6602 3.0391 4.5312 0.78125 3.8555-1.6953 7.625-5.5156 8.4062z"/>
  <path d="m593.15 281.22c3.9766-3.9258 6.6406-9.0312 7.5-14.707v-0.003907c2.168-14.348-7.6914-27.793-21.973-29.973-3.1719-0.48828-6.3672-0.34766-9.4258 0.32812-4.9688-5.8828-11.789-9.7227-19.574-10.91-8.5-1.293-17.012 0.79688-23.938 5.8906-6.9648 5.1289-11.512 12.688-12.812 21.285-0.042969 0.28516-0.019532 0.57031-0.054688 0.85547-2.6953-2.2031-5.9375-3.7969-9.6133-4.3594-5.3125-0.80859-10.621 0.5-14.953 3.6914-4.3555 3.207-7.2031 7.9258-8.0117 13.285-1.668 11.027 5.9141 21.371 16.902 23.051 1.0195 0.15625 2.0352 0.23047 3.0508 0.23047 0.40234 0 0.79688-0.070312 1.1953-0.09375-0.74219 16.723 18.508 32.555 45.273 36.645 4.168 0.63281 8.2891 0.94531 12.293 0.94531 1.2227 0 2.4219-0.054687 3.6211-0.11328 0.007813 0 0.015626 0.003906 0.027344 0.003906 0.015625 0 0.035156-0.007812 0.050782-0.007812 11.227-0.55078 21.305-3.5977 28.465-8.8711 5.7109-4.2031 9.207-9.6055 10.117-15.613 1.125-7.4609-1.7812-14.945-8.1406-21.559zm-15.996-34.719c8.8008 1.3398 14.871 9.6445 13.531 18.504-0.57812 3.8164-2.4609 7.2305-5.3008 9.7188-0.15234-0.10156-0.32812-0.1875-0.48047-0.28906-1.0039-0.66016-2.0664-1.2734-3.1406-1.8828-0.53125-0.30078-1.0312-0.625-1.5781-0.91406-1.4961-0.79297-3.0469-1.5352-4.6445-2.2305-0.15234-0.066406-0.28906-0.14844-0.44141-0.21094 0.019532-0.050781 0.03125-0.10547 0.050782-0.16016 0.23438-0.64453 0.42188-1.3086 0.61328-1.9648 0.10547-0.35937 0.23438-0.71484 0.32422-1.0781 0.26172-1.0312 0.47656-2.0742 0.63672-3.1328 0.19141-1.2617 0.28125-2.5234 0.32422-3.7852 0.011719-0.35938 0.011719-0.71875 0.011719-1.0781 0-0.99609-0.042969-1.9883-0.13281-2.9766-0.027344-0.28516-0.035157-0.56641-0.070313-0.85156-0.14453-1.2422-0.36328-2.4727-0.64844-3.6836-0.054688-0.22266-0.125-0.44141-0.18359-0.66406-0.26562-1.0195-0.58203-2.0273-0.94922-3.0156-0.058594-0.16016-0.09375-0.33203-0.15625-0.49219 0.74219 0.007812 1.4883 0.070312 2.2344 0.1875zm-54.262 8.1328c0.89453-5.9336 4.0312-11.145 8.8242-14.676 4.7539-3.5 10.594-4.9453 16.441-4.043 6.2109 0.94531 11.531 4.3359 15.023 9.5938 2.3672 3.4609 3.6758 7.4922 3.8242 11.652 0.050782 1.3867-0.03125 2.7891-0.24219 4.1875-0.22656 1.4922-0.61719 2.9414-1.1328 4.3477-0.023437 0.058594-0.058593 0.11328-0.082031 0.17188-0.55078-0.15234-1.1094-0.26953-1.6602-0.41016-0.53516-0.13672-1.0664-0.26953-1.6016-0.39453-2.0312-0.47656-4.0703-0.90234-6.1094-1.2109l-0.89844-0.13672h-0.003906l-0.035156-0.003906c-1.7734-0.25391-3.5352-0.43359-5.2891-0.57031-0.61328-0.046875-1.2188-0.0625-1.8281-0.09375-1.1406-0.0625-2.2773-0.11328-3.4062-0.125-0.25391-0.003906-0.51172-0.027344-0.76172-0.027344-0.46094 0-0.91016 0.039063-1.3672 0.046875-0.96484 0.015625-1.9258 0.046875-2.875 0.10156-0.70312 0.039062-1.3984 0.09375-2.0938 0.15234-0.95703 0.082032-1.9062 0.1875-2.8438 0.30859-0.65234 0.085938-1.3008 0.17188-1.9453 0.27344-0.97656 0.15625-1.9336 0.34375-2.8828 0.54297-0.57812 0.12109-1.1562 0.23047-1.7227 0.36719-1.0234 0.24609-2.0195 0.53125-3.0078 0.82812-0.37891 0.11328-0.77734 0.19531-1.1484 0.31641-1.3359-3.5234-1.7539-7.3906-1.1758-11.199zm-24.172 25.055c-5.5039-0.84375-9.3008-6.0391-8.4609-11.586 0.41016-2.6953 1.8359-5.0664 4.0234-6.6758 1.75-1.2852 3.8125-1.9609 5.9336-1.9609 0.50781 0 1.0156 0.039062 1.5273 0.11719 5.5039 0.83984 9.2969 6.0391 8.4609 11.586v0.003906c-0.13672 0.91797-0.41797 1.8438-0.82031 2.7266-0.79688 0.70703-1.5234 1.4336-2.1953 2.1836-0.066406 0.074219-0.11719 0.15234-0.17969 0.22656-0.58203 0.66797-1.1367 1.3438-1.6328 2.0547-2.0078 1.207-4.3398 1.668-6.6562 1.3242zm12.844 9.3867c0.23438-1.5547 0.78125-2.9727 1.7109-4.4062 0.82422-1.3125 1.9258-2.5312 3.4922-3.832 1.6992-1.5039 4.0312-2.8984 6.8086-4.0547 1.832-0.79297 3.8438-1.4219 5.9258-1.9688 0.32812-0.085938 0.66406-0.15625 0.99609-0.23828-4.832 10.102-6.3672 21.602-4.5703 34.383-9.5898-5.4609-15.426-12.852-14.363-19.883zm25.496 24.746c-3.6992-16.207-1.7656-29.578 5.8789-40.711 0.72656-0.011719 1.4297-0.09375 2.1641-0.082031 0.39844 0.007812 0.80078 0.03125 1.2031 0.042968 2.4688 0.082032 4.9648 0.25781 7.4688 0.61719l0.89844 0.13672c2.5273 0.38672 5.0586 0.97266 7.5781 1.6523-6.8672 11.875-8.793 25.871-5.832 41.723-2.6953-0.097657-5.4258-0.30469-8.1875-0.72266-3.9102-0.60547-7.6562-1.5117-11.172-2.6562zm54.262-12.547c-0.50781 3.3555-2.5664 6.3828-6.125 9.0039-4.625 3.4062-11.172 5.5938-18.582 6.5039-3.0977-14.91-1.3164-27.383 5.4219-37.895 3.8164 1.707 7.3047 3.7227 10.219 6 0.003907 0 0.003907 0.003906 0.007813 0.003906 6.6523 5.2031 9.8711 11.02 9.0586 16.383z"/>
 </g>
</svg>