<?xml version="1.0" encoding="UTF-8"?>
<!-- The Best Svg Icon site in the world: iconSvg.co, Visit us! https://iconsvg.co -->
<svg fill="#000000" width="800px" height="800px" version="1.1" viewBox="144 144 512 512" xmlns="http://www.w3.org/2000/svg">
 <g>
  <path d="m382.95 421.54c0.015625-0.015625 0.03125-0.046875 0.046875-0.0625l36.527 39.832 41.25-37.785-23.93-26.293c8.9727-17.633 13.539-37.473 12.281-58.254-3.7773-65.652-63.293-115.88-132.88-111.94-69.59 3.9375-122.96 60.613-119.18 126.27 0.94531 15.902 5.0391 31.172 11.809 44.555-10.707-33.062-3.4648-71.637 22.199-100.61 37.785-42.352 101.23-47.391 141.7-11.336 32.117 28.496 40.305 74.312 23.301 113.2-1.5742 3.7617-3.4492 7.4453-5.5117 11.02 2.0781-3.6055 3.9531-7.2891 5.4961-11.082zm6.0117-8.9414c0.41016-0.66016 0.92969-1.2891 1.3242-1.9688-0.39453 0.69531-0.91406 1.3086-1.3242 1.9688z"/>
  <path d="m594.89 559.55-90.055-98.086-24.402-0.15625-9.2891-36.684-5.0391 4.7227-41.406 37.785-6.4531 5.9844 35.738 12.438-2.0469 24.402 90.055 98.086c12.438 13.539 34.32 13.699 48.965 0.31641 14.48-13.383 16.371-35.266 3.9336-48.809zm-23.301 27.711c-1.5742 1.418-3.4648 2.2031-5.3516 2.2031-2.0469 0-4.25-0.94531-5.8242-2.6758l-72.738-79.191c-2.832-3.3047-2.6758-8.1875 0.47266-11.18 3.3047-2.9922 8.1875-2.6758 11.18 0.47266l72.738 79.352c2.9844 3.1484 2.6719 8.1875-0.47656 11.02z"/>
 </g>
</svg>