<?xml version="1.0" encoding="UTF-8"?>
<!-- The Best Svg Icon site in the world: iconSvg.co, Visit us! https://iconsvg.co -->
<svg fill="#000000" width="800px" height="800px" version="1.1" viewBox="144 144 512 512" xmlns="http://www.w3.org/2000/svg">
 <path d="m584.91 477.73h-48.527l-5.125-7.543c23.398-2.9492 42.629-20.746 46.926-44.461l2.9922-16.559h19.836c15.234 0 24.289-17.02 15.77-29.652l-18.988-28.156c-7.2109-11.195-19.609-17.961-32.926-17.961h-19.91l-39.363-58.457c-2.1445-3.1875-7.0547-5.8008-10.898-5.8008-3.3555 0-5.6562 2.7109-5.1172 6.0195l6.5664 40.273-43.977-17.695c-3.4727-1.4141-7.457-0.21094-9.5977 2.8711-2.1953 3.1875-1.8086 7.4922 0.92188 10.238l29.668 29.648c5.793 5.8086 13.66 9.0469 21.84 9.0469h26.957v19.48l-11.195 16.594-252.46 0.007813c0 15.652 12.688 28.34 28.34 28.34l-17.715 63.762h-48.297c-7.1992 0-13.93 3.5781-17.957 9.5469l-29.387 43.594h19.699c6.5078 0 12.594-3.2344 16.238-8.6367l13.289-19.703h78.742c12.402 0 24.52-3.7539 34.754-10.77l30.793-21.113 118.24-0.015625 15.281 22.676c3.8828 5.7617 10.379 9.2188 17.324 9.2188h66.941l12.016 17.715h30.109l-21.375-31.656c-4.5859-6.7812-12.238-10.852-20.43-10.852zm-9.0273-117.29c3.5781 0 6.6055 2.6211 7.1172 6.1602l0.79688 5.4922h-7.1172c-3.5781 0-6.6055-2.6211-7.1172-6.1602l-0.79688-5.4922z"/>
</svg>