<?xml version="1.0" encoding="UTF-8"?>
<!-- The Best Svg Icon site in the world: iconSvg.co, Visit us! https://iconsvg.co -->
<svg fill="#000000" width="800px" height="800px" version="1.1" viewBox="144 144 512 512" xmlns="http://www.w3.org/2000/svg">
 <path d="m634.86 240.71-34.824-34.824c-2.9648-2.9648-7.4102-2.9648-10.371 0-2.9648 2.9648-2.9648 7.4102 0 10.371l29.637 29.637c-8.8906 8.8906-20.004 13.336-32.598 13.336s-23.707-4.4453-32.598-13.336-13.336-20.004-13.336-32.598 4.4453-23.707 13.336-32.598l11.113 11.113c2.9648 2.9648 7.4102 2.9648 10.371 0 2.9648-2.9648 2.9648-7.4102 0-10.371l-16.301-16.301c-1.4844-1.4844-2.9648-2.2266-5.1875-2.2266-2.2227 0-3.7031 0.74219-5.1875 2.2227l-5.1875 5.1875c-11.855 11.855-17.781 26.672-17.781 42.973 0 8.1484 1.4805 16.301 5.1875 23.707l-128.18 128.18c-2.9648 2.9648-2.9648 7.4102 0 10.371 1.4805 1.4805 3.7031 2.2227 5.1875 2.2227 1.4805 0 3.7031-0.74219 5.1875-2.2227l125.21-125.21c1.4805 2.2227 2.9648 4.4453 5.1875 5.9258 2.2227 2.2227 3.7031 3.7031 5.9258 5.1875l-190.41 190.41-11.113-11.113 37.785-37.785c2.9648-2.9648 2.9648-7.4102 0-10.371-2.9648-2.9648-7.4102-2.9648-10.371 0l-39.266 39.266c-8.1484-4.4453-18.523-2.9648-25.93 3.7031l-11.113 11.113-37.785-37.785c-14.816-14.816-39.266-14.816-53.344 0l-42.98 42.973c-2.9648 2.9648-2.9648 7.4102 0 10.371 2.9648 2.9648 7.4102 2.9648 10.371 0l27.414-27.414 18.523 18.523-27.414 27.414c-2.9648 2.9648-2.9648 7.4102 0 10.371 1.4805 1.4805 3.7031 2.2227 5.1875 2.2227 1.4805 0 3.7031-0.74219 5.1875-2.2227l27.414-27.414 18.523 18.523-27.414 27.414c-2.9648 2.9648-2.9648 7.4102 0 10.371 1.4805 1.4805 3.7031 2.2227 5.1875 2.2227 1.4805 0 3.7031-0.74219 5.1875-2.2227l27.414-27.414 18.523 18.523-27.418 26.676c-2.9648 2.9648-2.9648 7.4102 0 10.371 1.4805 1.4805 3.7031 2.2227 5.1875 2.2227 1.4805 0 3.7031-0.74219 5.1875-2.2227l27.414-27.414 18.523 18.523-27.414 27.414c-2.9648 2.9648-2.9648 7.4102 0 10.371 1.4805 1.4805 3.7031 2.2227 5.1875 2.2227 1.4805 0 3.7031-0.74219 5.1875-2.2227l27.414-27.414 18.523 18.523-27.414 27.414c-2.9648 2.9648-2.9648 7.4102 0 10.371 1.4805 1.4805 3.7031 2.2227 5.1875 2.2227 1.4805 0 3.7031-0.74219 5.1875-2.2227l27.414-27.414 18.523 18.523-27.414 27.414c-2.9648 2.9648-2.9648 7.4102 0 10.371 1.4805 1.4805 3.7031 2.2227 5.1875 2.2227 1.4805 0 3.7031-0.74219 5.1875-2.2227l42.973-42.973c14.816-14.816 14.816-39.266 0-53.344-2.9648-2.9648-7.4102-2.9648-10.371 0-2.9648 2.9648-2.9648 7.4102 0 10.371 8.8906 8.8906 8.8906 23.707 0 32.598l-5.9258 5.9258-23.727-24.441-138.55-138.55 5.9258-5.9258c8.8906-8.8906 23.707-8.8906 32.598 0l108.91 108.91c1.4805 1.4805 3.7031 2.2227 5.1875 2.2227 1.4805 0 3.7031-0.74219 5.1875-2.2227 2.9648-2.9648 2.9648-7.4102 0-10.371l-17.781-17.781 11.113-11.113c6.668-6.668 8.1484-17.039 3.7031-25.93l193.38-193.38c7.4102 2.9648 15.559 5.1875 23.707 5.1875 16.301 0 31.859-6.668 42.973-17.781l5.1875-5.1875c4.4453-2.9727 4.4453-7.418 1.4805-10.379zm-280.06 237.83-11.113 11.113-32.598-32.598 11.113-11.113c2.9648-2.9648 7.4102-2.9648 10.371 0l22.227 22.227c1.4805 1.4805 2.2227 2.9648 2.2227 5.1875 0 1.4766-0.74219 3.6992-2.2227 5.1836z"/>
</svg>