<?xml version="1.0" encoding="UTF-8"?>
<!-- The Best Svg Icon site in the world: iconSvg.co, Visit us! https://iconsvg.co -->
<svg fill="#000000" width="800px" height="800px" version="1.1" viewBox="144 144 512 512" xmlns="http://www.w3.org/2000/svg">
 <path d="m493.8 445.49c-1.9883-1.793-5.043-1.707-6.9336 0.17969l-4.75 4.7578-40.32-40.32 45.641-45.641c18.57-18.574 18.57-48.789 0.27344-67.066-1.1875-1.3945-120.91-139.19-275.42-88.062-1.4766 0.48828-2.6445 1.6328-3.168 3.1016-0.5 1.4062-12.133 35.102-7.0195 85.961 4.6953 46.734 25.156 117.3 95.945 188.09 9.2852 9.2852 21.484 13.926 33.68 13.926 12.203 0 24.398-4.6406 33.684-13.926l45.637-45.641 40.324 40.324-4.7578 4.7578c-1.8945 1.8945-1.9766 4.9375-0.17969 6.9336l86.383 95.926c7.8477 7.8477 18.156 11.77 28.461 11.77s20.609-3.918 28.457-11.77c15.695-15.695 15.695-41.227-0.19141-57.102zm-135.52 33.887c-14.637 14.637-38.465 14.637-53.113 0-121.44-121.45-92.496-243.11-87.262-261.27 146.82-46.668 260.99 84.492 262.4 86.125 14.637 14.641 14.637 38.473 0 53.113l-45.641 45.641-31.043-31.039c-4.1016-4.1055-9.5625-6.375-15.375-6.375s-11.27 2.2617-15.383 6.375c-8.4805 8.4805-8.4805 22.273 0 30.754l31.039 31.039zm21.715-83.805c-4.543-4.5508-4.5508-11.957 0-16.504 4.4023-4.4102 12.09-4.4102 16.504 0l78.488 78.484-16.504 16.512zm202.61 186.1c-11.77 11.758-30.914 11.766-42.492 0.19141l-83-92.18 33.5-33.504 91.996 82.82c11.762 11.766 11.762 30.91-0.003906 42.672z"/>
</svg>