<?xml version="1.0" encoding="UTF-8"?>
<!-- The Best Svg Icon site in the world: iconSvg.co, Visit us! https://iconsvg.co -->
<svg fill="#000000" width="800px" height="800px" version="1.1" viewBox="144 144 512 512" xmlns="http://www.w3.org/2000/svg">
 <g>
  <path d="m439.1 263.95h-15.742v-11.156c0-12.875-10.477-23.355-23.355-23.355-12.875 0-23.355 10.477-23.355 23.355v11.156h-15.742v-11.156c0-21.555 17.543-39.098 39.098-39.098s39.098 17.543 39.098 39.098z"/>
  <path d="m400 586.3c-21.555 0-39.098-17.543-39.098-39.098l-0.003906-217.4h15.742v217.4c0 12.875 10.477 23.355 23.355 23.355 12.875 0 23.355-10.477 23.355-23.355v-217.4h15.742v217.4c0.003906 21.555-17.539 39.098-39.094 39.098z"/>
  <path d="m439.36 337.02h-78.723c-13.023 0-23.617-10.594-23.617-23.617v-31.488c0-3.6211 0.80859-7.082 2.3984-10.285 3.8398-8.0508 12.195-13.332 21.219-13.332h78.719c9.0234 0 17.383 5.2812 21.27 13.453 1.543 3.0859 2.3516 6.543 2.3516 10.164v31.488c0 13.023-10.594 23.617-23.617 23.617zm-78.723-62.977c-2.9922 0-5.7656 1.7617-7.0664 4.4883-0.55078 1.1211-0.80469 2.2148-0.80469 3.3828v31.488c0 4.3438 3.5273 7.8711 7.8711 7.8711h78.719c4.3438 0 7.8711-3.5273 7.8711-7.8711v-31.488c0-1.168-0.25391-2.2617-0.75391-3.2578-1.3477-2.8555-4.125-4.6133-7.1133-4.6133z"/>
  <path d="m218.94 347.96v-10.938c0-17.129 6.1641-31.535 18.336-42.828 34.641-32.148 106.76-27.176 109.81-26.93l-1.168 15.699c-0.64453-0.023438-68.371-4.6875-97.945 22.785-6.1719 5.7344-10.148 12.375-12.023 20.133 37.285-11.078 74.086-15.273 109.57-12.453l-1.2461 15.699c-37.047-2.9688-75.723 2.2305-114.96 15.359z"/>
  <path d="m581.05 347.96-10.371-3.4766c-39.238-13.137-77.914-18.336-114.96-15.359l-1.2461-15.699c35.469-2.8203 72.293 1.3672 109.57 12.453-1.875-7.7578-5.8516-14.406-12.023-20.133-29.582-27.492-97.27-22.809-97.938-22.785l-1.168-15.699c3.0586-0.25391 75.176-5.2109 109.8 26.93 12.172 11.297 18.336 25.703 18.336 42.832z"/>
 </g>
</svg>