<?xml version="1.0" encoding="UTF-8"?>
<!-- The Best Svg Icon site in the world: iconSvg.co, Visit us! https://iconsvg.co -->
<svg fill="#000000" width="800px" height="800px" version="1.1" viewBox="144 144 512 512" xmlns="http://www.w3.org/2000/svg">
 <g>
  <path d="m503.68 213.9c-0.74609-2.3555-3.0859-3.832-5.5312-3.4648l-132.15 19.297 0.003906-12.051c0-10.59-8.6328-19.207-19.25-19.207h-7.5586c-10.613 0-19.25 8.6172-19.25 19.207v18.777l-25.676 3.75c-2.0625 0.30078-3.7305 1.8516-4.1836 3.8867-8.1016 36.285-8.1016 73.082 0 109.37 0.45703 2.0352 2.1211 3.5859 4.1836 3.8867l25.676 3.75v221.21c0 10.59 8.6328 19.207 19.25 19.207h7.5586c10.613 0 19.25-8.5898 19.25-19.148v-214.55l132.15 19.297c0.24609 0.035156 0.48828 0.050781 0.73438 0.050781 2.2539 0 4.2812-1.5195 4.8672-3.7617 16.336-62.332 16.316-117.78-0.074218-169.51zm-173.66 3.7812c0-5.0352 4.1172-9.1328 9.1719-9.1328h7.5586c5.0586 0 9.1719 4.0977 9.1719 9.1328v13.508l-25.902 3.7695zm25.902 364.69c0 5.0039-4.1133 9.0703-9.1719 9.0703h-7.5586c-5.0586 0-9.1719-4.0977-9.1719-9.1328v-219.71l25.902 3.7695zm95.164-212.31-151.9-22.18c-6.8008-32.605-6.8008-65.613 0-98.219l152.93-22.328c9.4531 44.414 9.125 91.18-1.0273 142.73zm44.039 6.4336-34.062-4.9727c10.273-52.469 10.605-100.2 1.0273-145.64l33.242-4.8555c14.164 47.492 14.098 98.441-0.20703 155.47z"/>
  <path d="m340.49 560.16c2.7812 0 5.0391-2.2539 5.0391-5.0391v-165.46c0-2.7812-2.2539-5.0391-5.0391-5.0391-2.7812 0-5.0391 2.2539-5.0391 5.0391v165.46c0.003906 2.7852 2.2578 5.0391 5.0391 5.0391z"/>
  <path d="m493.1 259.71c-0.375-2.7578-2.9141-4.6641-5.668-4.3203-2.7578 0.375-4.6914 2.9102-4.3203 5.668 4.3672 32.395 2.1797 65.605-6.6953 101.53-0.66797 2.6992 0.98047 5.4336 3.6836 6.0977 0.40625 0.10156 0.8125 0.14844 1.2109 0.14844 2.2617 0 4.3203-1.5352 4.8867-3.832 9.1875-37.172 11.445-71.617 6.9023-105.29z"/>
  <path d="m480.56 245.88c0.48438 2.3906 2.5859 4.043 4.9336 4.043 0.32812 0 0.66797-0.03125 1-0.097657 2.7266-0.55078 4.4922-3.207 3.9453-5.9375-0.71484-3.5312-1.5039-7.0508-2.3711-10.555-0.66797-2.7031-3.4141-4.3555-6.0977-3.6836-2.6992 0.66797-4.3516 3.3984-3.6836 6.0977 0.83203 3.3672 1.5898 6.7422 2.2734 10.133z"/>
 </g>
</svg>