<?xml version="1.0" encoding="UTF-8"?>
<!-- The Best Svg Icon site in the world: iconSvg.co, Visit us! https://iconsvg.co -->
<svg fill="#000000" width="800px" height="800px" version="1.1" viewBox="144 144 512 512" xmlns="http://www.w3.org/2000/svg">
 <path d="m539.23 257.85 1.0469-0.60547c2.2344-1.2891 3.6953-3.5898 3.9102-6.1602 0.21484-2.5703-0.84375-5.082-2.832-6.7266l-56.426-46.57 0.60547-1.0469c1.293-2.2344 1.4102-4.9609 0.30859-7.293-1.0977-2.3359-3.2734-3.9844-5.8164-4.4102l-72.156-12.117v-1.2109c0-2.582-1.2656-5-3.3828-6.4688-2.1211-1.4727-4.8281-1.8125-7.2461-0.91016l-68.543 25.586-0.60547-1.0469c-1.2891-2.2344-3.5898-3.6953-6.1602-3.9102-2.5703-0.21484-5.082 0.84375-6.7266 2.832l-46.57 56.426-1.0469-0.60547c-2.2344-1.293-4.957-1.4102-7.293-0.30859-2.3359 1.0977-3.9844 3.2734-4.4102 5.8203l-12.117 72.152h-1.2109c-2.582 0-5 1.2656-6.4688 3.3828-1.4727 2.1211-1.8125 4.8281-0.90625 7.2461l25.586 68.543-1.0469 0.60547h-0.003906c-2.2344 1.2891-3.6953 3.5898-3.9102 6.1602-0.21484 2.5703 0.84375 5.082 2.832 6.7266l56.426 46.57-0.60547 1.0469c-1.293 2.2344-1.4062 4.9609-0.30859 7.293 1.0977 2.3359 3.2734 3.9844 5.8203 4.4102l44.082 7.4062-25.719 139.75h-17.059v15.742l157.44 0.003906v-15.746h-17.059l-25.586-138.89 35.219-13.145 0.60547 1.0469h0.003906c1.2812 2.2461 3.5859 3.7148 6.1641 3.9375 0.21484 0.011718 0.43359 0.011718 0.65234 0 2.3477 0 4.5742-1.0508 6.0703-2.8594l46.57-56.426 1.0469 0.60547c1.1953 0.69141 2.5547 1.0547 3.9375 1.0547 1.1641-0.007813 2.3125-0.27344 3.3594-0.78516 2.332-1.1016 3.9805-3.2695 4.4102-5.8125l12.113-72.121h1.2109c2.582 0 5-1.2656 6.4688-3.3828 1.4727-2.1211 1.8125-4.8281 0.91016-7.2461zm6.8711 63.426h-99.555c-0.51172-2.9141-1.3008-5.7773-2.3633-8.5391l81.23-46.902zm-138.23 257.42v-21.258h26.176l9.3672 50.852zm25.48 41.719h-25.48v-21.254zm-41.227-54.859-9.7344-8.1172h9.7344zm15.746-23.859v-9.5898l10.785 9.5898zm-15.742 0h-23.281l7.0078-38.047 16.27 14.43zm-12.934-56.137 0.41797-2.2812 12.516 2.1016v11.676zm12.93-186.82v22.543h-22.543c0.75-2.7227 1.8555-5.3359 3.2812-7.7773 2.7578-4.7656 6.7188-8.7266 11.484-11.484 2.4414-1.4258 5.0547-2.5312 7.7773-3.2812zm23.523 3.2812c4.7656 2.7578 8.7266 6.7188 11.484 11.484 1.4258 2.4414 2.5312 5.0547 3.2812 7.7773h-22.543v-22.543c2.7227 0.75 5.3359 1.8555 7.7773 3.2812zm-28.875 55.473c-0.78906-0.39453-1.6289-0.78906-2.4258-1.2188-4.7656-2.7578-8.7266-6.7188-11.484-11.484-1.4258-2.4375-2.5273-5.043-3.2812-7.7617h20.969zm-3.1875 15.824c2.7617 1.0625 5.625 1.8516 8.5391 2.3633v93.676l-58.363-9.8008zm29.637-15.824-3.7773-20.465h20.965-0.003906c-0.75 2.7227-1.8555 5.3359-3.2812 7.7773-2.7578 4.7656-6.7188 8.7266-11.484 11.484-0.78906 0.46484-1.6055 0.82812-2.418 1.2031zm63.727-145.88 45.656 37.668-86.395 49.852c-1.875-2.2656-3.9609-4.3516-6.2266-6.2266l23.449-40.629zm-10.715-12.926-49.824 86.285c-2.7617-1.0625-5.6211-1.8516-8.5391-2.3633v-93.723zm-74.109-15.641v99.555c-2.9141 0.51172-5.7773 1.3008-8.5391 2.3633l-46.902-81.223zm-109.66 69.156 37.668-45.656 49.855 86.391c-2.2695 1.875-4.3555 3.9609-6.2305 6.2266l-40.629-23.449zm-12.926 10.715 86.285 49.82c-1.0625 2.7617-1.8516 5.625-2.3594 8.5391h-93.676zm-15.641 74.105h99.559c0.50781 2.9141 1.2969 5.7773 2.3594 8.5391l-81.223 46.902zm69.156 109.66-45.656-37.668 86.395-49.852c1.8711 2.2656 3.957 4.3516 6.2266 6.2266l-23.449 40.629zm41.816 116.66 27.258 22.719v34.352h-37.785zm64.086-33.551-21.082-18.742v-18.996l13.227-4.9375zm-21.082-54.539v-99.555c2.918-0.51172 5.7773-1.3008 8.5391-2.3633l46.902 81.23zm109.66-69.156-37.668 45.656-49.852-86.391c2.2656-1.875 4.3516-3.9609 6.2266-6.2266l40.629 23.449zm12.926-10.715-86.285-49.82c1.0625-2.7617 1.8516-5.625 2.3633-8.5391h93.723z"/>
</svg>