<?xml version="1.0" encoding="UTF-8"?>
<!-- The Best Svg Icon site in the world: iconSvg.co, Visit us! https://iconsvg.co -->
<svg fill="#000000" width="800px" height="800px" version="1.1" viewBox="144 144 512 512" xmlns="http://www.w3.org/2000/svg">
 <g>
  <path d="m297.7 344.11-7.5273 75.289-91.699 68.77c-1.8281 1.3711-2.9688 3.4648-3.1289 5.7422-0.16406 2.2734 0.67188 4.5078 2.2852 6.1211l62.977 62.977c1.4766 1.4766 3.4766 2.3086 5.5664 2.3086h0.55859c2.2773-0.16797 4.3711-1.3164 5.7383-3.1484l7.5664-10.086-5.9922 83.523c-0.15625 2.1797 0.60547 4.332 2.0977 5.9297 1.4922 1.6016 3.5859 2.5039 5.7734 2.5h236.16c2.1875 0.003906 4.2812-0.89844 5.7734-2.5 1.4961-1.5977 2.2539-3.75 2.0977-5.9297l-5.9688-83.523 7.543 10.086c1.3672 1.832 3.4609 2.9805 5.7422 3.1484h0.55859c2.0859 0 4.0898-0.83203 5.5625-2.3086l62.977-62.977c1.6133-1.6133 2.4492-3.8477 2.2891-6.1211-0.16406-2.2773-1.3047-4.3711-3.1289-5.7422l-91.703-68.77-7.4844-75.289c-0.22266-2.1875-1.3477-4.1875-3.1094-5.5078l-19.16-14.367 121.46-91.117c1.8242-1.3711 2.9648-3.4648 3.1289-5.7422 0.16016-2.2734-0.67578-4.5078-2.2891-6.1211l-62.977-62.977c-1.6016-1.6328-3.8398-2.4766-6.1211-2.3086-2.2812 0.16797-4.375 1.3164-5.7422 3.1484l-96.352 128.47-26.449-19.836c-2.8008-2.1016-6.6484-2.1016-9.4492 0l-26.449 19.836-96.352-128.47c-1.3672-1.832-3.4609-2.9805-5.7383-3.1484-2.2812-0.17188-4.5195 0.66797-6.125 2.293l-62.977 62.977c-1.6211 1.6133-2.457 3.8516-2.2969 6.1289 0.16406 2.2812 1.3086 4.3789 3.1406 5.75l121.5 91.117-19.16 14.367c-1.7617 1.3203-2.8906 3.3203-3.1094 5.5078zm76.16 56.633-17.453 23.262-4.3203-4.3203 20.355-20.359zm-78.176 104.23-14.445-14.445 24.293-24.293 10.973 10.973zm-25.578-25.578-14.445-14.445 27.766-20.82 10.973 10.973zm55.938-14.91-9.3828-9.3828 24.293-24.293 5.9102 5.9102zm14.91-55.938-4.3203-4.3203 23.262-17.453 1.418 1.418zm-17.043 5.2188 5.9102 5.9102-24.289 24.297-9.3828-9.3828zm-80.969 60.727 16.035 16.035-24.293 24.293-19.508-19.508zm22.379 70.965-19.508-19.508 24.293-24.293 16.035 16.035zm150.42 82.832h-31.488v-23.617c0-5.625 3-10.824 7.8711-13.637s10.875-2.8125 15.746 0 7.8711 8.0117 7.8711 13.637zm15.742 0 0.003906-23.617c0-11.25-6.0039-21.645-15.746-27.27-9.7422-5.625-21.746-5.625-31.488 0-9.7422 5.625-15.742 16.02-15.742 27.27v23.617h-78.141l4.4961-62.977h210.26l4.4961 62.977zm72.516-78.719-208.01-0.003906 1.4805-20.742 93.078-124.1c2.3516-3.1367 2.0391-7.5195-0.73047-10.289l-6.2422-6.2422 6.2969-6.2969c6.375 3.1562 13.859 3.1562 20.23 0l6.2969 6.2969-6.2422 6.2422c-2.7656 2.7734-3.0703 7.1562-0.71484 10.289l93.078 124.1zm-96.129-188.93c0 3.1875-1.918 6.0547-4.8594 7.2734-2.9414 1.2188-6.3281 0.54688-8.5781-1.707-2.2539-2.25-2.9258-5.6367-1.707-8.5781s4.0898-4.8594 7.2734-4.8594c2.0859 0 4.0898 0.83203 5.5664 2.3047 1.4766 1.4766 2.3047 3.4805 2.3047 5.5664zm75.617 116.57 10.973-10.973 24.297 24.293-14.445 14.445zm-30.363-40.484 5.9102-5.9102 24.297 24.289-9.3828 9.3828zm52.469 18.379 10.973-10.973 27.766 20.82-14.445 14.445zm-11.133-11.129-24.293-24.293 5.9102-5.9102 27.766 20.82zm-35.426-35.426-20.355-20.355 1.418-1.418 23.262 17.453zm-11.129 11.133-4.3203 4.3203-17.453-23.262 1.418-1.418zm86.766 125.78-20.82-27.766 16.035-16.035 24.293 24.293zm30.641-30.637-24.293-24.293 16.035-16.035 27.766 20.82zm-83.973-169.93h-26.238v15.742h33.062l4.5898 45.926-48.672-36.477c-3.1328-2.3516-7.5195-2.0391-10.289 0.73047l-6.2422 6.2422-6.2969-6.2969c3.1602-6.375 3.1602-13.859 0-20.23l6.2969-6.2969 6.2422 6.2422c2.7734 2.7656 7.1602 3.0703 10.289 0.71484l22.828-17.121zm-55.207-24.355 17.453-23.262 4.3203 4.3203-20.355 20.359zm79.461-54.363 24.293-24.293 14.445 14.445-27.766 20.82zm-1.7461 20.516-27.766 20.82-5.9102-5.9102 24.289-24.297zm-9.3867-31.648-10.973-10.973 20.82-27.766 14.449 14.445zm-11.129 11.133-24.293 24.293-5.9102-5.9102 20.82-27.766zm-24.293 46.555 4.3203 4.3203-23.262 17.453-1.418-1.418zm98.016-65.945-16.035-16.035 24.293-24.293 19.508 19.508zm-22.383-70.965 19.508 19.504-24.293 24.293-16.035-16.035zm-134.67 108.07 21.727 16.297-12.281 16.371c-2.3516 3.1328-2.0391 7.5195 0.73047 10.289l6.2422 6.2422-6.2969 6.2969c-6.3711-3.1602-13.855-3.1602-20.23 0l-6.2969-6.2969 6.2422-6.2422c2.7656-2.7734 3.0703-7.1602 0.71484-10.289l-12.281-16.375zm-94.465-28.844-24.293-24.293 14.445-14.445 20.82 27.766zm20.516 1.7461 20.82 27.766-5.9102 5.9102-24.297-24.289zm-31.648 9.3867-10.973 10.973-27.766-20.82 14.445-14.445zm11.133 11.129 24.293 24.293-5.9102 5.9102-27.766-20.82zm31.102 39.746 4.3203-4.3203 20.359 20.355-1.418 1.418zm15.453-15.453 4.3203-4.3203 17.453 23.262-1.418 1.418zm-86.766-125.78 20.82 27.766-16.035 16.031-24.293-24.293zm-30.637 30.637 24.293 24.293-16.035 16.035-27.766-20.82zm121.23 144.73c3.1367 2.3516 7.5195 2.0391 10.289-0.73047l6.2422-6.2422 6.2969 6.2969c-3.1562 6.3711-3.1562 13.855 0 20.23l-6.2969 6.2969-6.2422-6.2422c-2.7734-2.7656-7.1562-3.0703-10.289-0.71484l-48.633 36.48 4.5898-45.93h33.023v-15.742h-26.238l14.43-10.824z"/>
  <path d="m415.74 486.59h-31.488c-4.3477 0-7.8711 3.5234-7.8711 7.8711v31.488c0 2.0898 0.82813 4.0898 2.3047 5.5664s3.4805 2.3086 5.5664 2.3086h31.488c2.0898 0 4.0898-0.83203 5.5664-2.3086 1.4766-1.4766 2.3047-3.4766 2.3047-5.5664v-31.488c0-2.0859-0.82812-4.0898-2.3047-5.5664-1.4766-1.4727-3.4766-2.3047-5.5664-2.3047zm-7.8711 31.488h-15.746v-15.742h15.742z"/>
  <path d="m376.38 431.49v31.488c0 2.0859 0.82813 4.0898 2.3047 5.5664 1.4766 1.4727 3.4805 2.3047 5.5664 2.3047h31.488c2.0898 0 4.0898-0.83203 5.5664-2.3047 1.4766-1.4766 2.3047-3.4805 2.3047-5.5664v-31.488c0-2.0898-0.82812-4.0898-2.3047-5.5664-1.4766-1.4766-3.4766-2.3086-5.5664-2.3086h-31.488c-4.3477 0-7.8711 3.5273-7.8711 7.875zm15.742 7.8711h15.742v15.742h-15.742z"/>
 </g>
</svg>