<?xml version="1.0" encoding="UTF-8"?>
<!-- The Best Svg Icon site in the world: iconSvg.co, Visit us! https://iconsvg.co -->
<svg fill="#000000" width="800px" height="800px" version="1.1" viewBox="144 144 512 512" xmlns="http://www.w3.org/2000/svg">
 <g>
  <path d="m206.46 498.49c0.85547 0 1.6641-0.30078 2.3164-0.80469l57.383-44.941-3.5273-0.90625-0.20312-6.3477-0.15234 0.75391-0.55469 0.40234-57.586 45.09c-0.80469 0.60547-1.3086 1.5117-1.4102 2.5195-0.15234 1.0078 0.15234 1.9648 0.75391 2.7695 0.71484 0.91016 1.8203 1.4648 2.9805 1.4648z"/>
  <path d="m206.46 541.52c0.85547 0 1.6641-0.25 2.3164-0.80469l98.594-76.934-9.168-2.418-94.059 73.406c-1.6641 1.2578-1.9648 3.6758-0.65625 5.2891 0.70703 0.90625 1.8125 1.4609 2.9727 1.4609z"/>
  <path d="m339.32 472.34-135.12 102.68c-1.6641 1.2578-2.0156 3.6289-0.75391 5.2891 0.75391 0.95703 1.8125 1.5117 3.0234 1.5117 0.85547 0 1.6133-0.25 2.2656-0.75391l139.81-106.2z"/>
  <path d="m294.78 595.23c-1.6133 1.3086-1.8633 3.6758-0.60547 5.3398 0.75391 0.90625 1.8125 1.4102 2.9727 1.4102 0.85547 0 1.6641-0.30078 2.3672-0.80469l131.64-104.24-9.168-2.418z"/>
  <path d="m380.63 483.43-146.26 111.75c-1.6133 1.3086-1.9648 3.6758-0.70703 5.3398 0.75391 0.90625 1.8125 1.4609 3.0234 1.4609 0.85547 0 1.6133-0.25 2.3164-0.75391l150.84-115.32z"/>
  <path d="m430.81 342.36-88.52-98.395-66.754 40.605v149.93l35.57 9.5742-0.003906-86.203c0-1.1602 0.50391-2.2656 1.4102-2.9727 0.65625-0.50391 1.5117-0.80469 2.3672-0.80469 0.25 0 0.55469 0.050782 0.85547 0.10156l68.922 16.375c1.7109 0.40234 2.9219 1.9141 2.9219 3.6797v90.281l44.133 11.84 0.003906-133.31-0.45312-0.40234zm-58.594 2.5703c0 1.1602-0.50391 2.2656-1.4102 2.9727-0.65625 0.50391-1.5117 0.80469-2.3672 0.80469-0.25 0-0.55469-0.050782-0.85547-0.10156l-38.238-9.0703c-1.7109-0.45312-2.9219-1.9648-2.9219-3.6758v-19.801c0-1.1602 0.55469-2.2148 1.4609-2.9727 0.65625-0.50391 1.4609-0.80469 2.3164-0.80469 0.30078 0 0.60547 0.050782 0.85547 0.10156l38.289 9.1172c1.7148 0.40234 2.8711 1.9141 2.8711 3.6758z"/>
  <path d="m439.28 476.43 141.77-36.879v-134.77l-141.77 37.535zm33.047-86.703c0-6.3477 4.1836-11.84 10.176-13.352 1.1094-0.30078 2.168-0.45312 3.2734-0.45312 2.9727 0 5.7422 1.0078 8.1094 2.8203 3.375 2.6211 5.3398 6.6484 5.3398 10.984v18.438l-26.902 6.8516zm58.895-11.086c0-4.9883 3.2734-9.3203 8.0117-10.531 0.85547-0.20312 1.7109-0.30078 2.5703-0.30078 2.3164 0 4.5352 0.75391 6.3984 2.2148 2.6719 2.0664 4.1836 5.1875 4.1836 8.6172v14.914l-21.16 5.3906z"/>
  <path d="m493.18 198.02-143.39 43.027 85.398 94.516 162.12-42.875z"/>
  <path d="m267.98 291.23-26.301 24.738h26.301z"/>
  <path d="m333.98 332.84 30.68 7.3047v-11.988l-30.68-7.3047z"/>
  <path d="m318.66 436.98 23.227-23.676-23.227-40.66z"/>
  <path d="m347.43 407.66 30.383-30.934-55.723-13.25z"/>
  <path d="m320.83 445.49 45.797 10.883-20.805-36.273z"/>
  <path d="m380.03 459.6v-74.359l-28.719 29.27 25.395 44.285z"/>
 </g>
</svg>