<?xml version="1.0" encoding="UTF-8"?>
<!-- The Best Svg Icon site in the world: iconSvg.co, Visit us! https://iconsvg.co -->
<svg fill="#000000" width="800px" height="800px" version="1.1" viewBox="144 144 512 512" xmlns="http://www.w3.org/2000/svg">
 <path d="m605.98 629.18h-94.883v-23.117l19.695-9.9102c8.8008-4.4375 14.316-12.164 14.75-20.664l1.457-28.473c0.089844-1.7891-0.77734-3.5-2.2812-4.4766-1.5-0.97266-3.4141-1.082-5.0117-0.28125l-22.98 11.566c-2.0742 1.043-3.9375 2.2852-5.625 3.6602v-7.8477l19.691-9.9141c8.8086-4.4336 14.32-12.152 14.754-20.66l1.457-28.477c0.089844-1.7891-0.77734-3.5-2.2812-4.4766-1.5-0.98047-3.4062-1.082-5.0195-0.28125l-22.977 11.57c-2.0742 1.043-3.9375 2.2852-5.625 3.6602v-7.8477l19.695-9.9141c8.8008-4.4375 14.316-12.164 14.75-20.664l1.457-28.473c0.089844-1.7891-0.77734-3.5-2.2812-4.4766-1.5-0.98047-3.4062-1.082-5.0195-0.28125l-22.977 11.57c-2.0742 1.043-3.9375 2.2852-5.625 3.6602v-7.8555l19.695-9.9062c8.8008-4.4375 14.316-12.164 14.75-20.664l1.457-28.469c0.089844-1.793-0.77734-3.5-2.2812-4.4805-1.5-0.97656-3.4141-1.0859-5.0117-0.27734l-22.98 11.57c-2.0742 1.043-3.9375 2.2852-5.625 3.6602v-7.0742c4.9883-6.8359 9.3477-13.492 13.578-20.809 3.9453-6.8125 3.9453-15.273 0-22.086-4.5156-7.8086-9.1445-14.855-14.566-22.184-1.8984-2.5664-6.1992-2.5703-8.0977 0.003906-5.4414 7.3555-10.066 14.402-14.574 22.184-3.9375 6.8086-3.9375 15.273 0.003906 22.082 4.2188 7.2891 8.5742 13.941 13.578 20.805v7.0742c-1.6836-1.375-3.5469-2.6133-5.6172-3.6562l-22.98-11.57c-1.5938-0.80859-3.5078-0.69922-5.0117 0.27734-1.5039 0.98047-2.3711 2.6875-2.2812 4.4766l1.4531 28.477c0.4375 8.5 5.957 16.223 14.762 20.66l19.684 9.9062v7.8516c-1.6836-1.3711-3.5469-2.6133-5.6133-3.6562l-22.98-11.57c-1.6055-0.80078-3.5117-0.69922-5.0195 0.28125-1.5039 0.98047-2.3711 2.6875-2.2812 4.4766l1.4531 28.477c0.4375 8.5 5.957 16.223 14.762 20.66l19.684 9.9102v7.8477c-1.6836-1.3711-3.5469-2.6133-5.6133-3.6562l-22.98-11.57c-1.6055-0.80078-3.5117-0.69922-5.0195 0.28125-1.5039 0.98047-2.3711 2.6875-2.2812 4.4766l1.4531 28.48c0.44141 8.5 5.957 16.227 14.762 20.652l19.684 9.9102v7.8477c-1.6836-1.375-3.5469-2.6172-5.6172-3.6562l-22.98-11.566c-1.5938-0.80078-3.5078-0.69531-5.0117 0.28125-1.5039 0.98047-2.3711 2.6875-2.2812 4.4766l1.4531 28.477c0.4375 8.5 5.957 16.223 14.762 20.66l19.684 9.9062v23.121l-107.75 0.003906v-30.996l25.344-12.758c10.609-5.3438 17.258-14.613 17.777-24.801l1.8242-35.645c0.089844-1.7891-0.77734-3.5-2.2812-4.4766-1.4961-0.97266-3.4102-1.082-5.0117-0.28125l-28.777 14.484c-3.4102 1.7188-6.3555 3.875-8.875 6.3008v-13.078l25.344-12.758c10.609-5.3438 17.258-14.613 17.777-24.801l1.8242-35.645c0.089844-1.7891-0.77734-3.5-2.2812-4.4766-1.4961-0.97266-3.4102-1.082-5.0117-0.28125l-28.777 14.484c-3.4102 1.7188-6.3555 3.875-8.875 6.3008v-13.082l25.344-12.758c10.609-5.3438 17.258-14.613 17.777-24.801l1.8242-35.645c0.089844-1.793-0.77734-3.5-2.2812-4.4805-1.4961-0.97266-3.4102-1.0859-5.0117-0.27734l-28.777 14.488c-3.4102 1.7148-6.3555 3.8711-8.875 6.2969v-13.082l25.344-12.762c10.609-5.3398 17.258-14.609 17.777-24.793l1.8242-35.652c0.089844-1.793-0.77734-3.5-2.2812-4.4805-1.4961-0.97266-3.4102-1.0859-5.0117-0.27734l-28.777 14.488c-3.4102 1.7148-6.3555 3.8711-8.875 6.3008v-10.602c6.0547-8.9766 11.297-17.668 16.387-27.215 4.4688-8.3789 4.4727-18.387 0.003906-26.77-5.3438-10.02-10.828-19.086-17.262-28.535-1.8789-2.7539-6.4492-2.7539-8.3281 0-6.4336 9.4453-11.918 18.516-17.262 28.535-4.4688 8.3828-4.4688 18.387 0 26.77 5.0938 9.5508 10.34 18.242 16.387 27.215v10.602c-2.5195-2.4258-5.4648-4.582-8.875-6.3008l-28.773-14.488c-1.6055-0.8125-3.5195-0.70312-5.0195 0.27734-1.5039 0.98047-2.375 2.6875-2.2812 4.4805l1.8242 35.652c0.52344 10.184 7.1641 19.453 17.777 24.793l25.348 12.762v13.082c-2.5195-2.4258-5.4648-4.582-8.875-6.2969l-28.773-14.488c-1.6055-0.81641-3.5195-0.70312-5.0195 0.27344-1.5039 0.98047-2.375 2.6875-2.2812 4.4805l1.8242 35.645c0.52344 10.188 7.1641 19.457 17.777 24.801l25.348 12.762v13.078c-2.5195-2.4297-5.4648-4.582-8.875-6.3008l-28.773-14.484c-1.6055-0.80859-3.5117-0.69922-5.0195 0.28125-1.5039 0.98047-2.3711 2.6875-2.2773 4.4766l1.8203 35.645c0.52344 10.188 7.1641 19.457 17.777 24.801l25.348 12.762v13.078c-2.5195-2.4258-5.4648-4.582-8.875-6.3008l-28.773-14.484c-1.6055-0.80078-3.5117-0.69922-5.0195 0.28125-1.5039 0.98047-2.3711 2.6875-2.2773 4.4766l1.8242 35.645c0.52344 10.188 7.1641 19.457 17.777 24.801l25.348 12.762v30.992h-107.73v-23.117l19.691-9.9102c8.8008-4.4336 14.316-12.156 14.754-20.664l1.457-28.473c0.09375-1.7891-0.77344-3.5-2.2773-4.4766-1.5039-0.97266-3.4141-1.082-5.0195-0.28125l-22.98 11.566c-2.0703 1.043-3.9375 2.2852-5.6211 3.6602v-7.8516l19.688-9.9102c8.8047-4.4297 14.32-12.152 14.754-20.66l1.457-28.477c0.09375-1.7891-0.77344-3.5-2.2812-4.4766-1.5-0.98047-3.4102-1.0859-5.0156-0.28125l-22.98 11.57c-2.0703 1.043-3.9375 2.2852-5.6211 3.6602v-7.8516l19.691-9.9102c8.8008-4.4336 14.316-12.156 14.754-20.664l1.457-28.473c0.09375-1.7891-0.77344-3.5-2.2812-4.4766-1.5-0.97266-3.4102-1.082-5.0156-0.28125l-22.98 11.57c-2.0703 1.043-3.9375 2.2852-5.6211 3.6602v-7.8516l19.691-9.9102c8.8008-4.4336 14.316-12.156 14.754-20.664l1.457-28.469c0.09375-1.793-0.77344-3.5-2.2773-4.4805-1.5039-0.97656-3.4141-1.0859-5.0195-0.27734l-22.98 11.57c-2.0703 1.043-3.9375 2.2852-5.6211 3.6602v-7.0703c4.9961-6.8477 9.3516-13.508 13.578-20.809 3.9453-6.8125 3.9453-15.273 0-22.086-4.5078-7.7891-9.1406-14.84-14.566-22.184-1.9102-2.5742-6.2109-2.5703-8.1016 0.003906-5.4375 7.3555-10.066 14.402-14.566 22.18-3.9375 6.8125-3.9375 15.273 0.003907 22.086 4.2266 7.3008 8.5859 13.957 13.578 20.809v7.0703c-1.6836-1.375-3.5508-2.6133-5.6172-3.6562l-22.98-11.57c-1.6055-0.80859-3.5156-0.69922-5.0156 0.27734-1.5039 0.98047-2.375 2.6875-2.2812 4.4766l1.4531 28.477c0.4375 8.5 5.9531 16.227 14.754 20.66l19.688 9.9062v7.8516c-1.6836-1.375-3.5508-2.6172-5.6172-3.6602l-22.98-11.57c-1.6055-0.80078-3.5156-0.69531-5.0156 0.28125-1.5039 0.98047-2.375 2.6875-2.2812 4.4766l1.4531 28.477c0.4375 8.5 5.9531 16.227 14.754 20.66l19.688 9.9141v7.8477c-1.6836-1.375-3.5508-2.6172-5.6172-3.6602l-22.98-11.57c-1.6055-0.80859-3.5156-0.69922-5.0156 0.28125-1.5039 0.98047-2.375 2.6875-2.2812 4.4766l1.4531 28.48c0.4375 8.5078 5.957 16.227 14.754 20.652l19.688 9.9141v7.8477c-1.6836-1.375-3.5508-2.6172-5.6172-3.6602l-22.98-11.566c-1.6055-0.80078-3.5117-0.69531-5.0195 0.28125-1.5039 0.98047-2.3711 2.6875-2.2773 4.4766l1.4531 28.477c0.4375 8.5 5.9531 16.227 14.754 20.66l19.688 9.9102v23.117l-94.895 0.003906c-2.7812 0-5.0391 2.2539-5.0391 5.0391s2.2539 5.0391 5.0391 5.0391h435.45c2.7852 0 5.0391-2.2539 5.0391-5.0391s-2.2539-5.0391-5.0391-5.0391zm-340.56-34.398-15.156-7.6328c-5.5234-2.7812-8.9727-7.3359-9.2266-12.172l-1.0117-19.824 15.242 7.6758c5.5273 2.7812 8.9766 7.332 9.2227 12.172l0.92578 18.09zm0-56.426-15.16-7.6328c-5.5234-2.7812-8.9727-7.3242-9.2227-12.168l-1.0117-19.824 15.242 7.6758c5.5273 2.7812 8.9766 7.332 9.2227 12.172l0.92578 18.09zm0-56.426-15.156-7.6328c-5.5234-2.7812-8.9727-7.3359-9.2266-12.172l-1.0117-19.816 15.242 7.6758c5.5273 2.7812 8.9766 7.332 9.2227 12.168l0.92578 18.098zm0-56.426-15.156-7.6289c-5.5234-2.7812-8.9727-7.3359-9.2266-12.172l-1.0117-19.82 15.242 7.6719c5.5273 2.7852 8.9766 7.332 9.2227 12.172l0.92578 18.09zm11.004 149.5c0.24609-4.8398 3.6953-9.3906 9.2227-12.172l15.242-7.6758-1.0117 19.824c-0.25 4.8398-3.6992 9.3906-9.2227 12.172l-15.16 7.6328v-1.5938zm0-56.422c0.24609-4.8398 3.6953-9.3906 9.2227-12.172l15.242-7.6758-1.0117 19.824c-0.25 4.8398-3.6953 9.3867-9.2227 12.168l-15.16 7.6328v-1.5898zm0-56.43c0.24609-4.8359 3.6953-9.3867 9.2227-12.168l15.242-7.6758-1.0117 19.816c-0.25 4.8398-3.6953 9.3906-9.2227 12.172l-15.16 7.6328v-1.5898zm0-56.422c0.24609-4.8398 3.6953-9.3867 9.2227-12.172l15.242-7.6719-1.0117 19.82c-0.25 4.8398-3.6992 9.3906-9.2227 12.172l-15.16 7.6328v-1.5938zm-15.863-50.441c-2.1719-3.7539-2.1719-8.2344-0.003906-11.988 3.1484-5.4375 6.3633-10.508 9.8984-15.59 3.5312 5.0742 6.7461 10.145 9.8984 15.59 2.1719 3.7539 2.1719 8.2344 0 11.988-3.1523 5.4453-6.3672 10.516-9.8984 15.59-3.5234-5.0703-6.7422-10.141-9.8945-15.59zm122.66 231.62-20.816-10.48c-7.332-3.6914-11.91-9.7891-12.246-16.309l-1.3789-26.996 21.035 10.594c7.332 3.6914 11.91 9.7852 12.242 16.305l1.1641 22.75zm0-70.258-20.816-10.48c-7.332-3.6914-11.91-9.7891-12.246-16.309l-1.3789-26.996 21.035 10.594c7.332 3.6914 11.91 9.7891 12.242 16.309l1.1641 22.742zm0-70.258-20.816-10.48c-7.332-3.6914-11.91-9.7891-12.246-16.309l-1.3789-26.996 21.035 10.59c7.332 3.6914 11.91 9.7891 12.242 16.309l1.1641 22.75zm0-70.258-20.816-10.48c-7.332-3.6914-11.91-9.7891-12.246-16.309l-1.3789-26.996 21.035 10.59c7.332 3.6914 11.91 9.7891 12.242 16.312l1.1641 22.746zm11.238 183.88c0.33203-6.5195 4.9102-12.613 12.242-16.305l21.031-10.586-1.3789 26.992c-0.33594 6.5195-4.9102 12.621-12.242 16.309l-20.812 10.48v-4.1406zm0-70.25c0.33203-6.5234 4.9102-12.621 12.242-16.309l21.031-10.586-1.3828 26.992c-0.33594 6.5195-4.9102 12.621-12.242 16.309l-20.812 10.48v-4.1406zm0-70.266c0.33203-6.5195 4.9102-12.613 12.242-16.309l21.031-10.59-1.3828 26.996c-0.33594 6.5195-4.9102 12.621-12.242 16.309l-20.812 10.48v-4.1406zm0-70.254c0.33203-6.5195 4.9102-12.617 12.242-16.309l21.031-10.59-1.3828 26.996c-0.33594 6.5195-4.9102 12.617-12.242 16.309l-20.812 10.48v-4.1367zm-18.738-61.566c-2.8438-5.332-2.8438-11.953 0-17.285 3.9766-7.4609 8.0391-14.375 12.535-21.332 4.4961 6.957 8.5586 13.871 12.535 21.332 2.8398 5.332 2.8398 11.957-0.003906 17.289-3.9766 7.457-8.0352 14.371-12.535 21.332-4.4922-6.9609-8.5508-13.875-12.531-21.336zm125.3 307.1-15.152-7.6328c-5.5312-2.7812-8.9805-7.3359-9.2266-12.172l-1.0117-19.824 15.246 7.6758c5.5234 2.7812 8.9688 7.332 9.2148 12.176l0.92969 18.09zm0-56.422-15.16-7.6328c-5.5234-2.7812-8.9727-7.332-9.2188-12.168l-1.0117-19.824 15.246 7.6758c5.5234 2.7812 8.9688 7.332 9.2148 12.176l0.92969 18.09zm0-56.426-15.152-7.6328c-5.5312-2.7812-8.9805-7.3359-9.2266-12.172l-1.0117-19.816 15.246 7.6758c5.5234 2.7812 8.9688 7.332 9.2148 12.172l0.92969 18.098zm0-56.426-15.152-7.6289c-5.5312-2.7812-8.9805-7.3359-9.2266-12.172l-1.0117-19.82 15.246 7.6719c5.5234 2.7812 8.9688 7.332 9.2148 12.176l0.92969 18.09zm11.008 149.5c0.24609-4.8398 3.6914-9.3906 9.2148-12.172l15.242-7.6758-1.0117 19.824c-0.24609 4.8359-3.6914 9.3906-9.2148 12.172l-15.164 7.6328v-1.4961zm0-56.422c0.24609-4.8398 3.6914-9.3906 9.2148-12.172h0.003906l15.238-7.6758-1.0117 19.824c-0.24609 4.8398-3.6914 9.3867-9.2148 12.168l-15.164 7.6328v-1.4961zm0-56.43c0.24609-4.8359 3.6914-9.3867 9.2148-12.168h0.003906l15.238-7.6758-1.0117 19.816c-0.24609 4.8359-3.6914 9.3906-9.2148 12.172l-15.164 7.6328v-1.4961zm0-56.422c0.24609-4.8398 3.6914-9.3906 9.2148-12.172l15.242-7.6719-1.0117 19.82c-0.24609 4.8359-3.6914 9.3906-9.2148 12.172l-15.164 7.6328v-1.5zm-15.863-50.438c-2.1758-3.7578-2.1758-8.2383-0.003906-11.992 3.1484-5.4375 6.3672-10.508 9.8984-15.594 3.5273 5.0703 6.7422 10.137 9.8984 15.594 2.1758 3.7539 2.1758 8.2344 0 11.988-3.1602 5.457-6.3711 10.523-9.8984 15.594-3.5352-5.082-6.7539-10.152-9.8945-15.59zm73.324-97.055c17.922 0 32.508-14.582 32.508-32.504s-14.582-32.504-32.508-32.504c-17.922 0-32.5 14.582-32.5 32.504s14.578 32.504 32.5 32.504zm0-54.934c12.367 0 22.43 10.062 22.43 22.43s-10.062 22.43-22.43 22.43c-12.363 0-22.426-10.062-22.426-22.43 0.003907-12.367 10.062-22.43 22.426-22.43zm-5.0352-21.477v-16.051c0-2.7812 2.2539-5.0391 5.0391-5.0391s5.0391 2.2539 5.0391 5.0391v16.051c0 2.7812-2.2539 5.0391-5.0391 5.0391s-5.0391-2.2578-5.0391-5.0391zm5.0352 82.777c2.7852 0 5.0391 2.2539 5.0391 5.0391v16.051c0 2.7812-2.2539 5.0391-5.0391 5.0391s-5.0391-2.2539-5.0391-5.0391v-16.051c0.003907-2.7852 2.2578-5.0391 5.0391-5.0391zm65-38.871c0 2.7812-2.2539 5.0391-5.0391 5.0391h-16.047c-2.7852 0-5.0391-2.2539-5.0391-5.0391 0-2.7812 2.2539-5.0391 5.0391-5.0391h16.051c2.7812 0 5.0352 2.2578 5.0352 5.0391zm-129.99 0c0-2.7812 2.2539-5.0391 5.0391-5.0391h16.051c2.7852 0 5.0391 2.2539 5.0391 5.0391 0 2.7812-2.2539 5.0391-5.0391 5.0391h-16.051c-2.7852 0-5.0391-2.2578-5.0391-5.0391zm110.96 38.836c1.9688 1.9688 1.9688 5.1562 0 7.125-0.98438 0.98438-2.2734 1.4766-3.5625 1.4766-1.2891 0-2.5781-0.49219-3.5625-1.4766l-11.352-11.352c-1.9688-1.9688-1.9688-5.1562 0-7.125s5.1562-1.9688 7.125 0zm-91.922-77.672c-1.9688-1.9648-1.9688-5.1562 0-7.125s5.1562-1.9688 7.125 0l11.352 11.348c1.9688 1.9648 1.9688 5.1562 0 7.125-0.98438 0.98438-2.2734 1.4766-3.5625 1.4766s-2.5781-0.49219-3.5625-1.4766zm18.477 66.32c1.9688 1.9688 1.9688 5.1562 0 7.125l-11.352 11.352c-0.98437 0.98438-2.2734 1.4766-3.5625 1.4766-1.2891 0-2.5781-0.49219-3.5625-1.4766-1.9688-1.9688-1.9688-5.1562 0-7.125l11.352-11.352c1.9688-1.9688 5.1562-1.9688 7.125 0zm54.969-54.969c-1.9688-1.9688-1.9688-5.1602 0-7.125l11.352-11.348c1.9688-1.9688 5.1562-1.9688 7.125 0s1.9688 5.1602 0 7.125l-11.352 11.348c-0.98438 0.98438-2.2734 1.4766-3.5625 1.4766-1.2891-0.003906-2.5781-0.49609-3.5625-1.4766z"/>
</svg>