<?xml version="1.0" encoding="UTF-8"?>
<!-- The Best Svg Icon site in the world: iconSvg.co, Visit us! https://iconsvg.co -->
<svg fill="#000000" width="800px" height="800px" version="1.1" viewBox="144 144 512 512" xmlns="http://www.w3.org/2000/svg">
 <path d="m606.02 478.72c-7.9961-0.023438-15.668 3.1523-21.309 8.8242l-43.02 43.02-80.469-80.465c-14.309-14.312-33.199-23.129-53.355-24.91v-96.039h39.359c20.871-0.023438 40.879-8.3242 55.637-23.082 14.758-14.758 23.059-34.766 23.082-55.637v-7.8711h-55.102c-24.82 0.023437-48.168 11.773-62.977 31.691v-47.438h15.742c14.609-0.015625 28.617-5.8242 38.949-16.156 10.328-10.332 16.141-24.336 16.156-38.945v-7.875h-31.488c-11.285 0.023437-22.293 3.5078-31.535 9.9844-9.2422 6.4766-16.277 15.629-20.152 26.23-10.434-12.934-26.156-20.457-42.777-20.469h-31.488v7.8711c0.019531 14.609 5.8281 28.617 16.16 38.945 10.328 10.332 24.336 16.145 38.945 16.16h15.742v47.438c-14.805-19.918-38.156-31.668-62.977-31.695h-55.102v7.875c0.023437 20.867 8.3242 40.875 23.082 55.633 14.758 14.758 34.766 23.062 55.637 23.086h39.359v80.293c-20.16 1.793-39.051 10.625-53.355 24.949l-28.621 28.582h-42.621c-7.9961-0.023438-15.672 3.1523-21.309 8.8242l-49.934 49.934c-2.6953 2.707-6.3633 4.2266-10.184 4.2188h-22.266v94.465h352.41c8.3633-0.019531 16.344-3.5117 22.039-9.6367l89.82-96.637c5.3672-5.8047 8.2695-13.469 8.0898-21.375-0.17578-7.9023-3.418-15.43-9.0391-20.988-5.625-5.5586-13.188-8.7148-21.09-8.8047zm-135.18-220.42h38.863c-1.9375 15.211-9.3477 29.195-20.848 39.336-11.5 10.145-26.301 15.75-41.633 15.77h-38.871c1.9375-15.211 9.3477-29.195 20.852-39.34 11.5-10.141 26.301-15.746 41.637-15.766zm-23.617-78.719h14.957c-1.8281 8.8828-6.6602 16.867-13.688 22.602-7.0273 5.7383-15.816 8.875-24.887 8.8867h-14.957c1.8281-8.8828 6.6641-16.867 13.688-22.602 7.0273-5.7383 15.816-8.875 24.887-8.8867zm-70.848 47.23c-9.0703-0.011719-17.859-3.1484-24.887-8.8828-7.0273-5.7383-11.859-13.719-13.688-22.605h14.957c9.0703 0.011719 17.859 3.1523 24.887 8.8867 7.0273 5.7344 11.859 13.719 13.688 22.602zm-23.617 102.34c-15.332-0.015626-30.137-5.6211-41.637-15.766-11.5-10.141-18.914-24.125-20.852-39.336h38.871c15.336 0.019531 30.137 5.625 41.633 15.766 11.5 10.145 18.914 24.129 20.848 39.336zm-2.8672 132.08h0.003906c13.297-13.27 31.312-20.723 50.102-20.723 18.785 0 36.805 7.4531 50.102 20.723l80.457 80.469-27.277 27.277h0.003906c-2.707 2.6875-6.3672 4.1992-10.18 4.2109h-170.48c-3.8164-0.011719-7.4727-1.5234-10.18-4.2109l-1.3555-1.3555h0.003906c-0.68359-0.68359-1.2969-1.4375-1.8281-2.2422-0.10156-0.14844-0.15625-0.32422-0.25-0.48047-0.41406-0.64844-0.76953-1.3281-1.0742-2.0312-0.046875-0.11719-0.0625-0.25-0.10938-0.37109-0.28906-0.74609-0.51562-1.5156-0.67578-2.2969 0-0.1875 0-0.38672-0.054687-0.58203-0.22266-1.4531-0.22266-2.9297 0-4.3789 0-0.17969 0-0.37891 0.054687-0.55859 0.16406-0.78516 0.39063-1.5586 0.68359-2.3047 0.046875-0.11719 0.0625-0.25 0.10938-0.37109 0.30469-0.71484 0.66406-1.4023 1.082-2.0547 0.085938-0.14844 0.14844-0.30859 0.24219-0.45703 0.53125-0.80859 1.1445-1.5586 1.8281-2.2422l1.3555-1.3555h-0.003906c2.707-2.6797 6.3633-4.1875 10.172-4.1953h99.629c7.9961 0.023438 15.672-3.1523 21.309-8.8242l1.3555-1.3555c5.6445-5.6562 8.8125-13.32 8.8125-21.309 0-7.9922-3.168-15.656-8.8125-21.309l-1.3555-1.3555c-5.6367-5.6719-13.312-8.8477-21.309-8.8242h-89.852zm266.67 57.891-89.793 96.699c-2.7227 2.9297-6.5352 4.5938-10.531 4.5977h-336.66v-62.977h6.5195c8 0.023438 15.676-3.1562 21.316-8.832l49.934-49.934-0.003906 0.003906c2.707-2.6914 6.3672-4.2031 10.18-4.2148h154.73c3.8125 0.011718 7.4688 1.5234 10.176 4.2148l1.3555 1.3555v-0.003906c2.6953 2.7031 4.207 6.3633 4.207 10.18 0 3.8164-1.5117 7.4766-4.207 10.18l-1.3555 1.3555v-0.003907c-2.707 2.6875-6.3633 4.2031-10.176 4.2109h-99.629c-7.9961-0.023438-15.672 3.1562-21.309 8.8281l-1.3555 1.3555v-0.003906c-5.6445 5.6562-8.8164 13.32-8.8164 21.309 0 7.9922 3.1719 15.656 8.8164 21.312l1.3555 1.3555v-0.003907c5.6367 5.6719 13.312 8.8516 21.309 8.8242h170.48c7.9961 0.027344 15.672-3.1523 21.309-8.8242l81.43-81.43v0.003906c2.7383-2.7422 6.4688-4.2578 10.34-4.2148 3.875 0.042968 7.5664 1.6484 10.246 4.4453 2.6758 2.8008 4.1133 6.5625 3.9805 10.434 0.007813 3.6328-1.3633 7.1289-3.8398 9.7852z"/>
</svg>