<?xml version="1.0" encoding="UTF-8"?>
<!-- The Best Svg Icon site in the world: iconSvg.co, Visit us! https://iconsvg.co -->
<svg fill="#000000" width="800px" height="800px" version="1.1" viewBox="144 144 512 512" xmlns="http://www.w3.org/2000/svg">
 <g>
  <path d="m368.28 364.55c-2.7266-0.55078-5.3867 1.1992-5.9453 3.9297-3.8789 19.055-5.9297 40.82-5.9297 62.938 0 18.016 1.3125 35.426 3.9062 51.742 0.39844 2.4805 2.5391 4.25 4.9688 4.25 0.26172 0 0.53125-0.019531 0.79688-0.0625 2.7461-0.43359 4.6211-3.0156 4.1875-5.7656-2.5117-15.793-3.7852-32.668-3.7852-50.16 0-21.453 1.9805-42.523 5.7305-60.93 0.55469-2.7305-1.2031-5.3906-3.9297-5.9414z"/>
  <path d="m527.68 292.59c-5.2266 0-10.402 1.0508-15.449 3.0195-14.227-17.129-31.277-27.137-49.602-27.137-9.0234 0-17.863 2.3711-26.352 7.0117 5.6602-42.496-18.184-73.711-19.242-75.066-0.95312-1.2266-2.418-1.9375-3.9688-1.9375h-28.199c-1.4258 0-2.7852 0.60547-3.7383 1.668-0.95703 1.0586-1.418 2.4766-1.2734 3.8906 0.03125 0.30469 2.918 30.781-11.527 69.551-1.0586 0.85937-2.1055 1.7695-3.1406 2.7148-8.9297-5.1836-18.27-7.832-27.812-7.832-18.324 0-35.375 10.008-49.602 27.137-5.0469-1.9727-10.223-3.0195-15.449-3.0195-41.406 0-73.844 60.98-73.844 138.84s32.438 138.84 73.848 138.84c5.2188 0 10.395-1.0508 15.445-3.0234 14.227 17.129 31.281 27.141 49.605 27.141 9.5469 0 18.883-2.6484 27.816-7.832 10.543 9.6133 22.309 14.977 34.809 14.977s24.262-5.3633 34.812-14.977c8.9297 5.1836 18.27 7.832 27.816 7.832 18.324 0 35.375-10.012 49.605-27.141 5.0508 1.9727 10.227 3.0234 15.445 3.0234 41.406 0 73.844-60.984 73.844-138.84s-32.438-138.84-73.848-138.84zm-137.49-84.035h20.277c4.582 6.7969 18.852 30.797 16.305 61.418-8.3711-5.5898-17.359-8.6523-26.766-8.6523-6.2773 0-12.359 1.3828-18.207 3.9336 7.9648-26.137 8.6367-47.133 8.3906-56.699zm-117.86 351.63c-34.566 0-63.77-58.965-63.77-128.76s29.203-128.76 63.77-128.76c3.0391 0 6.0664 0.50391 9.0664 1.3984-20.648 29.883-33.918 75.855-33.918 127.36s13.266 97.48 33.918 127.36c-3 0.89453-6.0312 1.3984-9.0664 1.3984zm21.293-0.99219c-0.023437-0.050781-0.015625-0.10156-0.039062-0.14844-0.33984-0.69922-0.83594-1.25-1.4062-1.707-20.895-27.598-34.625-73.734-34.625-125.91 0-52.188 13.734-98.328 34.629-125.93 0.5625-0.44922 1.0586-1 1.3945-1.6914 0.023438-0.050782 0.015625-0.10156 0.039063-0.15234 12.578-15.852 27.609-25.109 43.758-25.109 6.957 0 13.832 1.8398 20.516 5.3086-24.945 29.102-41.422 83.68-41.422 147.57s16.477 118.47 41.422 147.57c-6.6836 3.4688-13.559 5.3125-20.52 5.3125-16.137-0.003907-31.168-9.2617-43.746-25.113zm106.39 32.254c-39.816 0-73.457-73.285-73.457-160.02 0-86.746 33.637-160.03 73.457-160.03 39.816 0 73.457 73.285 73.457 160.03-0.003906 86.742-33.641 160.02-73.457 160.02zm62.625-7.1445c-6.9609 0-13.832-1.8398-20.52-5.3125 24.949-29.102 41.422-83.68 41.422-147.57s-16.477-118.47-41.422-147.57c6.6836-3.4688 13.559-5.3086 20.516-5.3086 16.148 0 31.184 9.2578 43.758 25.109 0.023438 0.050781 0.015625 0.10547 0.039063 0.15234 0.33984 0.69531 0.83203 1.2422 1.3984 1.6953 20.898 27.598 34.629 73.738 34.629 125.92 0 52.18-13.73 98.316-34.625 125.91-0.56641 0.45312-1.0664 1.0039-1.4062 1.7031-0.023437 0.046875-0.015624 0.10156-0.039062 0.14844-12.57 15.859-27.602 25.117-43.75 25.117zm65.051-24.117c-3.0352 0-6.0625-0.50391-9.0664-1.3984 20.648-29.883 33.918-75.855 33.918-127.36s-13.27-97.48-33.918-127.36c3-0.89453 6.0273-1.3984 9.0664-1.3984 34.566 0 63.77 58.969 63.77 128.76 0 69.797-29.203 128.76-63.77 128.76z"/>
 </g>
</svg>