<?xml version="1.0" encoding="UTF-8"?>
<!-- The Best Svg Icon site in the world: iconSvg.co, Visit us! https://iconsvg.co -->
<svg fill="#000000" width="800px" height="800px" version="1.1" viewBox="144 144 512 512" xmlns="http://www.w3.org/2000/svg">
 <g>
  <path d="m362.27 423.79c-17.492 0-29.938-4.6602-38.051-14.246-11.395-13.461-14.172-36.512-8.4844-70.461 10.934-65.391 45.07-66.555 46.523-66.574 1.4727 0.015625 35.508 1.1797 46.422 66.574 5.6562 33.996 2.8711 57.062-8.5234 70.512-8.0898 9.5508-20.484 14.195-37.887 14.195zm-0.019532-148.77c-0.29688 0.003906-33.477 1.3203-44.031 64.469-5.5586 33.176-2.9688 55.555 7.918 68.418 7.6094 8.9883 19.426 13.355 36.129 13.355 16.617 0 28.379-4.3516 35.961-13.305 10.887-12.852 13.492-35.25 7.957-68.473-10.531-63.145-43.598-64.457-43.934-64.465z"/>
  <path d="m349.18 289.29s-0.83594 0.97266-2.0625 2.7773c-0.67188 0.84766-1.3672 1.9766-2.1055 3.3047-0.71094 1.3516-1.7227 2.7109-2.4922 4.4102-0.81641 1.668-1.6992 3.4727-2.6367 5.375-0.94531 1.8945-1.543 4.0977-2.457 6.2109-0.78516 2.1758-1.8672 4.3125-2.4531 6.6914-0.69531 2.332-1.3945 4.6992-2.1016 7.0703-0.78516 2.3438-1.5 4.7109-1.9102 7.1289-0.52734 2.3828-1.0469 4.7266-1.5586 6.9961-0.45312 2.2812-1.1523 4.4453-1.5078 6.5547-0.32422 2.1172-0.62891 4.1172-0.91797 5.9648-1.2031 7.3906-2.3125 12.348-2.3125 12.348s-0.10547-5.0195 0.20703-12.594c0.097656-1.8945 0.19531-3.9492 0.30078-6.1172 0.13672-2.1719 0.57812-4.4219 0.96094-6.7656 0.41406-2.3359 0.83984-4.7578 1.2734-7.2148 0.37891-2.4727 1.0586-4.918 1.832-7.3438 0.76562-2.4219 1.5352-4.8477 2.293-7.2344 0.625-2.4297 1.9336-4.5859 2.8398-6.7852 1.0195-2.1602 1.8945-4.2969 3.0625-6.1562 1.1602-1.8594 2.2578-3.6133 3.2695-5.2344 0.92188-1.668 2.2266-2.918 3.168-4.1328 0.96875-1.2031 1.8594-2.2148 2.6953-2.9727 1.5742-1.5742 2.6133-2.2812 2.6133-2.2812z"/>
  <path d="m436.72 423.79c-2.6484 0-5.5273-0.21094-8.5312-0.62891-13.566-1.8906-22.695-6.957-27.918-15.504l-0.44141-0.72656 0.50781-0.68359c9.793-13.145 11.984-34.969 6.6914-66.715l-0.066406-0.38672 0.082031-0.73438c12.93-27.398 29.871-29.527 34.754-29.527 0.80469 0 1.25 0.058594 1.25 0.058594 1.1328 0.17188 26.988 4.6719 28.863 55.176 0.92188 24.938-2.9922 41.586-11.961 50.895-5.6992 5.8984-13.297 8.7773-23.23 8.7773zm-33.852-16.742c4.8711 7.4375 13.281 11.891 25.664 13.609 13.418 1.8984 22.973-0.51953 29.598-7.4023 8.4727-8.793 12.152-24.836 11.254-49.051-1.7852-48.262-26.445-52.734-26.691-52.773-0.011718 0-0.33203-0.035156-0.90234-0.035156-4.4883 0-20.02 2.0039-32.289 27.695l0.011719 0.03125c5.3164 31.906 3.1484 54.145-6.6445 67.926z"/>
  <path d="m450.36 326.7s2.8633 2.207 5.9141 6.6914c1.5156 2.2305 3.0742 5.0078 4.3086 8.168 0.64453 1.5703 1.2383 3.2227 1.6914 4.9492 0.55078 1.6992 0.79687 3.5 1.1992 5.2695 0.28906 1.7891 0.40234 3.5977 0.60547 5.3672 0.085937 1.7773 0.019531 3.5312 0.035156 5.2188-0.10156 1.6875-0.30859 3.3086-0.46875 4.8398-0.13672 1.5352-0.55078 2.9531-0.8125 4.2656-0.48047 2.6406-1.4062 4.7148-1.8633 6.1914-0.52344 1.4648-0.87109 2.2773-0.87109 2.2773s0.023438-0.90234 0.15234-2.4375c0.14062-1.5352 0.38672-3.7148 0.43359-6.3242 0.015625-1.3047 0.17969-2.6992 0.14453-4.1797-0.015625-1.4766-0.03125-3.0312-0.046875-4.6406-0.10938-1.5977-0.22656-3.25-0.34375-4.9258-0.23828-1.6641-0.39453-3.3594-0.69531-5.0312-0.34375-1.6641-0.52344-3.3672-1.0039-4.9727-0.40625-1.6211-0.76562-3.2383-1.2891-4.75-0.92188-3.0664-2.0312-5.8555-3.0664-8.2266-2.0547-4.7656-4.0234-7.75-4.0234-7.75z"/>
  <path d="m441.63 310.25c-2.75-52.898-30.203-52.98-31.367-53.016-21.23 5.9336-27.305 25.875-27.367 26.078l-2.4141-0.71094c0.058594-0.21094 6.5391-21.492 29.422-27.84 0.51562-0.070313 31.355-0.1875 34.242 55.355z"/>
  <path d="m412.29 266.36s0.57812-0.035156 1.6016 0.22266c0.53516 0.082031 1.125 0.31641 1.7891 0.60937 0.66406 0.29297 1.5078 0.53906 2.1914 1.1289 0.73437 0.52734 1.543 1.1094 2.3867 1.7188 0.71875 0.73438 1.4844 1.5156 2.2266 2.3789 0.80078 0.82031 1.5312 1.7383 2.0625 2.7969 0.59766 1.0195 1.2031 2.0547 1.8086 3.0938 0.66016 1.0195 0.92578 2.1914 1.3672 3.2734 0.37891 1.1094 0.74609 2.1953 1.1133 3.25 0.83594 2.0742 0.89844 4.1875 1.2344 5.9102 0.50781 3.5 0.62891 5.8281 0.62891 5.8281s-0.93359-2.1953-2-5.4805c-0.55078-1.6406-1.0195-3.6055-1.9648-5.5352-0.40625-0.98438-0.83203-2-1.2578-3.0312-0.44922-1.0195-0.73047-2.1523-1.3672-3.0781-0.53906-0.98438-1.0898-1.9648-1.6172-2.9336-0.48828-1.0078-1.0469-1.9258-1.7383-2.7109-0.64844-0.81641-1.2148-1.6641-1.7852-2.4531-0.68359-0.66406-1.3398-1.293-1.9414-1.8789-0.57813-0.62891-1.2383-1.0117-1.7852-1.4414-0.55469-0.42188-1.0547-0.78125-1.5078-0.96875-0.86328-0.50781-1.4453-0.69922-1.4453-0.69922z"/>
  <path d="m361.77 479.14-13.43-42.602-82.137 22.375 29.363-42.859-53.562 8.332 44.977-43.934-42.297-15.145 69.422-2.4453 0.089844 2.5156-56.297 1.9883 33.727 12.07-42.23 41.246 51.543-8.0156-28.781 42.02 77.855-21.219 12.609 39.992 29.156-42.41 62.18 34.426-12.934-32.934 88.816 2.2578-38.348-37.086 57.52-17.48-78.594-14.84 0.45703-2.4727 88.688 16.738-63.238 19.219 39.914 38.605-91.484-2.3203 14.105 35.902-66.301-36.699z"/>
  <path d="m396.13 525.33c-3.5273 0-5.6133-0.16797-5.7539-0.17969-85.375 0.003906-106.75-71.496-106.95-72.223l2.418-0.69141c0.20312 0.70703 21.098 70.398 104.64 70.398 1.0781 0.10938 94.949 7.707 114.54-87.43l2.4688 0.51562c-17.18 83.441-90.219 89.609-111.37 89.609z"/>
 </g>
</svg>