<?xml version="1.0" encoding="UTF-8"?>
<!-- The Best Svg Icon site in the world: iconSvg.co, Visit us! https://iconsvg.co -->
<svg fill="#000000" width="800px" height="800px" version="1.1" viewBox="144 144 512 512" xmlns="http://www.w3.org/2000/svg">
 <path d="m536.79 585.16 6.2539 6.2773c6.4688 6.5 15.074 10.082 24.227 10.082 9.1523 0 17.758-3.582 24.227-10.082 12.809-12.859 13.32-33.477 1.5312-46.957 0.4375-16.18 1.8516-115.53-26.965-182.98 10.25-2.8594 17.832-12.18 17.832-23.332v-37.477c0-12.957-10.215-23.48-23-24.18-6.6016-27.227-31.602-46.691-60.715-46.691-7.9844 0-15.754 1.4648-23.164 4.375-13.418-22.152-37.645-35.719-64.328-35.719-26.277 0-50.246 13.23-63.773 34.859-11.195-6.168-23.805-9.4062-36.777-9.4062-33.461 0-62.559 21.461-71.727 52.453-13.406 0-24.316 10.91-24.316 24.312v37.477c0 11.152 7.582 20.473 17.832 23.332-28.816 67.457-27.406 166.8-26.965 182.98-11.785 13.48-11.273 34.094 1.5312 46.957 6.4688 6.4961 15.074 10.078 24.23 10.078 9.1523 0 17.758-3.582 24.223-10.078l6.2812-6.3086c20.379 4.7695 146.84 31.754 273.56 0.027343zm-224.65-351.16c12.812 0 25.211 3.6367 35.852 10.508 1.1875 0.76562 2.6406 1 4.0078 0.64453 1.3672-0.35938 2.5195-1.2695 3.1797-2.5195 11.129-21.023 33.164-34.086 57.512-34.086 24.52 0 46.629 13.18 57.695 34.402 1.2539 2.4023 4.1914 3.3867 6.6367 2.2148 7.3242-3.5 15.113-5.2695 23.152-5.2695 23.543 0 43.883 15.066 50.281 36.48h-299.52c8.8008-25.191 33.254-42.375 61.199-42.375zm-85.965 104.16v-37.477c0-7.8516 6.3867-14.238 14.242-14.238h319.16c7.8516 0 14.242 6.3867 14.242 14.238v37.477c0 7.8516-6.3867 14.242-14.242 14.242l-318.11 0.003906h-0.019531-1.0312c-7.8516 0-14.242-6.3945-14.242-14.246zm36.75 236.53c-1.7227-0.44922-3.5703 0.054687-4.832 1.3203l-8.2812 8.3203c-4.5664 4.5781-10.633 7.1055-17.086 7.1055-6.4531 0-12.52-2.5273-17.086-7.1094-9.4336-9.4805-9.4336-24.906 0-34.387 0.98828-0.98828 1.5195-2.3477 1.4648-3.7422-0.042969-1.1445-3.8555-113.88 27.43-183.72h310.93c31.285 69.84 27.473 182.57 27.43 183.72-0.050781 1.3984 0.48047 2.7539 1.4648 3.7422 9.4336 9.4805 9.4336 24.906 0 34.387-4.5664 4.582-10.633 7.1094-17.086 7.1094-6.4531 0-12.52-2.5273-17.086-7.1133l-8.2852-8.3164c-1.2578-1.2578-3.082-1.75-4.8242-1.3242-135.99 34.988-272.79 0.35938-274.15 0.007813z"/>
</svg>