<?xml version="1.0" encoding="UTF-8"?>
<!-- The Best Svg Icon site in the world: iconSvg.co, Visit us! https://iconsvg.co -->
<svg fill="#000000" width="800px" height="800px" version="1.1" viewBox="144 144 512 512" xmlns="http://www.w3.org/2000/svg">
 <path d="m357.68 494.71 117.14-27.207c52.898-12.344 76.328-51.641 76.328-84.387s-22.168-63.48-66.754-91.945l-78.09-49.121c-22.672-13.352-42.066 8.8164-20.152 26.449l34.008 26.449c13.855 11.082-0.25 26.953-13.855 24.688l-112.1-20.152c-20.906-3.5273-25.945 22.418-7.5586 26.449l85.648 18.391c13.602 4.0312 13.855 16.121 0 16.121h-104.54c-12.594 0-18.895 8.3125-18.895 16.375s6.2969 16.375 18.895 16.375h104.54c13.855 0 14.609 12.848 1.0078 15.367l-86.656 17.633c-22.922 4.5352-16.879 29.727 7.5586 26.449l91.945-14.105c12.594-1.7617 16.375 10.328 4.7852 14.609l-44.586 16.375c-18.137 6.5508-10.832 30.48 11.336 25.191zm135.27-69.273c-23.93 15.871-53.402 9.3203-64.488-14.609 20.152-17.129 55.672-9.0703 64.488 14.609zm1.5078 109.83c26.449-2.5195 42.824-28.215 36.023-55.922-25.695 0.50391-45.09 30.73-36.023 55.922zm-24.434 40.305c8.5664-24.938-7.8086-50.633-35.77-55.922-10.328 23.426 8.8164 53.402 35.77 55.922z"/>
</svg>