<?xml version="1.0" encoding="UTF-8"?>
<!-- The Best Svg Icon site in the world: iconSvg.co, Visit us! https://iconsvg.co -->
<svg fill="#000000" width="800px" height="800px" version="1.1" viewBox="144 144 512 512" xmlns="http://www.w3.org/2000/svg">
 <g>
  <path d="m504.65 575.78c0.3125-1.457 0.46875-2.9453 0.46875-4.4375 0-14.496-14.496-26.297-32.324-26.297s-32.324 11.809-32.324 26.297c0 0.36719 0.035156 0.72266 0.054688 1.0859h-7.5039c-2.1758 0-3.9375 1.7656-3.9375 3.9375 0 2.1758 1.7617 3.9375 3.9375 3.9375h9.3516c4.4141 8.8672 12.855 15.047 22.645 16.57-0.30859 1.457-0.46484 2.9453-0.46484 4.4336 0 13.414 12.418 24.492 28.391 26.078v10.789c0 2.1719 1.7617 3.9336 3.9336 3.9336 2.1758 0 3.9375-1.7617 3.9375-3.9336v-10.785c15.969-1.5742 28.387-12.668 28.387-26.078 0-12.363-10.254-22.711-24.551-25.531zm-7.7734 43.953c-13.484 0-24.453-8.2656-24.453-18.426 0.015625-2.0898 0.49219-4.1523 1.3984-6.0391 0.54688-1.1758 0.48047-2.543-0.17578-3.6602-0.66016-1.1172-1.8242-1.8398-3.1172-1.9297-12.441-0.87109-22.184-8.9219-22.184-18.332 0-10.16 10.969-18.426 24.449-18.426s24.449 8.2656 24.449 18.426l0.003906-0.003906c-0.015625 2.0898-0.49219 4.1523-1.3945 6.0391-0.54688 1.1758-0.48438 2.543 0.17188 3.6602 0.65625 1.1172 1.8242 1.8398 3.1172 1.9336 12.441 0.875 22.188 8.9258 22.188 18.332-0.003906 10.16-10.973 18.426-24.453 18.426z"/>
  <path d="m610.93 575.78c0.3125-1.457 0.46875-2.9453 0.46875-4.4375 0-14.496-14.496-26.297-32.324-26.297-17.828 0-32.324 11.809-32.324 26.297 0 0.36719 0.035156 0.72266 0.054687 1.0859h-7.5078c-2.1719 0-3.9336 1.7656-3.9336 3.9375 0 2.1758 1.7617 3.9375 3.9336 3.9375h9.3516c4.418 8.8672 12.859 15.047 22.648 16.57-0.30859 1.457-0.46484 2.9453-0.46875 4.4336 0 13.414 12.418 24.492 28.391 26.078v10.789c0 2.1719 1.7617 3.9336 3.9375 3.9336 2.1719 0 3.9336-1.7617 3.9336-3.9336v-10.785c15.969-1.5742 28.387-12.668 28.387-26.078 0-12.363-10.25-22.711-24.547-25.531zm-7.7734 43.953c-13.484 0-24.453-8.2656-24.453-18.426 0.015625-2.0898 0.49219-4.1523 1.3945-6.0391 0.54688-1.1758 0.48438-2.543-0.17578-3.6602-0.65625-1.1172-1.8203-1.8398-3.1133-1.9297-12.441-0.87109-22.184-8.9219-22.184-18.332 0-10.16 10.969-18.426 24.449-18.426 13.48 0 24.449 8.2656 24.449 18.426l0.003907-0.003906c-0.015626 2.0898-0.49219 4.1523-1.3945 6.0391-0.55078 1.1758-0.48438 2.543 0.17188 3.6602 0.65625 1.1172 1.8203 1.8398 3.1133 1.9336 12.441 0.875 22.188 8.9258 22.188 18.332 0 10.16-10.969 18.426-24.449 18.426z"/>
  <path d="m265.26 263.71c-6.3203-3.6523-14.105-3.6602-20.434-0.023438l-0.046875 0.027344c-1.875 1.1016-2.5 3.5156-1.3984 5.3867 1.1055 1.875 3.5156 2.5 5.3906 1.3984 3.8789-2.2383 8.6562-2.2383 12.535 0 0.90625 0.57422 2.0078 0.75781 3.0469 0.5 1.043-0.25391 1.9375-0.92188 2.4727-1.8516 0.53516-0.92969 0.67188-2.0352 0.37109-3.0664-0.29687-1.0312-1.0039-1.8945-1.9531-2.3906z"/>
  <path d="m302.11 269.09c0.52344-0.90234 0.66797-1.9766 0.40234-2.9844-0.26953-1.0117-0.92578-1.8711-1.832-2.3945-6.3164-3.6523-14.102-3.6602-20.43-0.023438l-0.046875 0.027344c-1.875 1.1016-2.5 3.5156-1.3984 5.3867 1.1016 1.875 3.5156 2.5 5.3867 1.3984 3.8828-2.2383 8.6602-2.2383 12.539 0 0.90234 0.52344 1.9766 0.66797 2.9844 0.39844 1.0117-0.26562 1.8711-0.92578 2.3945-1.8281z"/>
  <path d="m408.13 401.37-2.7539-6.0195c0.92578-3.2383 1.7031-8.4883-1.7266-11.277v0.003907c-2.9492-1.8906-6.5039-2.5938-9.9531-1.9688-0.90625 0.089843-1.8203 0.10156-2.7305 0.042969-1.2852-0.10938-2.5195-0.54297-3.5938-1.2578-13.254-10.609-25.445-22.48-36.398-35.449-6.3906-7.5312-10.047-12.691-10.047-12.691h-0.003906c-5.5547-8.1406-13.277-14.57-22.289-18.562 6.1523-1.2695 11.754-4.4258 16.027-9.0234 1.7305-2.0586 2.5586-4.7305 2.2969-7.4062v-55.688c13.699 21.91 15.32 49.281 4.3047 72.66-0.92969 1.9648-0.089844 4.3125 1.8789 5.2422 1.9648 0.92969 4.3125 0.085938 5.2422-1.8789 7.1094-15.066 9.5625-31.914 7.0469-48.383-2.5117-16.473-9.8828-31.816-21.164-44.078-2.0898-5.9102-5.5078-11.262-9.9922-15.641-18.469-18.105-50.246-17.711-51.445-17.711-1.3906 0-33.129-0.39453-51.602 17.711h0.003907c-4.4609 4.3594-7.8672 9.6797-9.9648 15.555-0.066406 0.0625-0.15234 0.085937-0.21094 0.15625-13.23 14.379-21.004 32.945-21.965 52.461-0.96094 19.516 4.9492 38.754 16.707 54.363-1.3945 2.1914-2.875 4.6289-4.5977 7.4766-2.0078 3.3125-4.3281 7.1289-7.0859 11.562v0.003906c-0.03125 0.070313-0.058593 0.14453-0.082031 0.21875-0.039062 0.070313-0.10938 0.11328-0.14453 0.19141l-10.691 22.52c-3.918 8.2422-4.7578 17.617-2.3633 26.426 2.3906 8.8047 7.8555 16.469 15.406 21.594l28.926 17.711v4.543c0 0.50781 0.097657 1.0078 0.29297 1.4727 0.40625 0.91016 0.98828 1.7266 1.7188 2.4023-0.86719 1.3398-1.4922 2.8203-1.8438 4.375-2.7812 12.43-7.4414 43.172-7.4375 109.52l0.023438 1.0781v0.019531c0.27344 12.895-1.8594 36.301-11.59 42.219h-0.003906c-4.707 2.7148-7.2578 8.0469-6.418 13.414 0.83984 5.3711 4.8945 9.668 10.203 10.82 6.0703 1.4375 12.289 2.1602 18.527 2.1445 8.582-0.023438 17.113-1.293 25.332-3.7656 5.25-1.5781 9.1055-6.0586 9.8789-11.484l7.5703-52.863 3.6367-25.422 3.6406 25.422 7.5508 52.855c0.77734 5.4258 4.6328 9.9062 9.8828 11.484 8.2227 2.4688 16.758 3.7344 25.348 3.7539 6.2344 0.015625 12.453-0.70703 18.52-2.1445 5.3125-1.1523 9.3672-5.4492 10.207-10.82 0.83594-5.3672-1.7109-10.699-6.418-13.414-9.082-5.5117-11.918-26.191-11.586-42.215l0.03125-1.2305c0-66.246-4.668-96.977-7.4492-109.39h-0.003906c-0.55859-2.4492-1.7969-4.6914-3.5742-6.4688 1.4766-1.7578 2.5312-3.832 3.0781-6.0586 1.6562-6.9023 1.6914-14.094 0.10156-21.012-2.1055-9.2539-2.4727-29.844-2.4805-42.332 0.33594 0.28516 0.68359 0.5625 1.0508 0.84766 1.6055 1.2461 3.8984 1.0664 5.2891-0.41797 6.6406-7.0859 13.324-15.352 19.824-23.465 10.469 11.984 21.984 23.012 34.418 32.945 2.1445 1.5859 4.6719 2.5742 7.3242 2.8633 1.4375 0.15625 2.8906 0.16406 4.3281 0.027344 1.3711-0.13672 2.7539-0.11328 4.1172 0.0625-0.046875 1.457-0.32422 2.8984-0.82031 4.2695-0.34766 0.96875-0.30078 2.0312 0.125 2.9688l3.2539 7.0469c0.87109 2.6406 0.25391 5.543-1.6133 7.6016-2.6055 3.0547-7.1602 3.5234-10.332 1.0586l-16.207-12.449c-2.1797-1.6758-4.5586-3.0664-7.0859-4.1367-9.1172-4.2969-17.762-9.5234-25.797-15.605-1.7656-1.1758-4.1484-0.74219-5.3828 0.98438-1.2383 1.7266-0.88281 4.1211 0.80078 5.4141 8.5117 6.4336 17.676 11.957 27.34 16.484 1.918 0.81641 3.7227 1.875 5.3672 3.1484l16.137 12.41h0.003907c2.6719 2.0781 5.957 3.2031 9.3438 3.2031 4.625-0.019531 9.0117-2.0742 11.992-5.6133 1.7773-2.0977 2.9688-4.6289 3.4531-7.3359 0.48047-2.707 0.24219-5.4922-0.70312-8.0781zm-191.76-103.29v-56.105c-0.35938-9.832 3.3828-19.371 10.332-26.336 16.086-15.816 45.613-15.473 46.102-15.473 0.26562 0 29.879-0.33203 45.957 15.473 6.9531 6.9648 10.695 16.504 10.332 26.336v56.105c-0.027344 0.23047-0.007812 0.46484 0.054688 0.6875 0 0.035156 0.019531 0.88281-1.2539 2.2109-2.0547 2.1367-8.4062 6.2969-26.973 8.4844 3.2773-2.5781 6.168-5.6172 8.582-9.0195 2.7188-3.8672 4.1641-8.4844 4.1367-13.211v-28.391c0.050781-6.1406-3.0117-11.887-8.1406-15.266-8.5508-4.7461-17.984-7.6797-27.715-8.6172-3.3555-0.42188-6.7539-0.42188-10.113 0-9.7305 0.94141-19.164 3.8711-27.711 8.6172-5.125 3.3789-8.1875 9.1289-8.1367 15.266v28.391c-0.03125 4.7266 1.4102 9.3438 4.125 13.211 2.4102 3.4062 5.3008 6.4453 8.5781 9.0273-18.566-2.1914-24.922-6.3477-26.973-8.4844h-0.003907c-0.55469-0.55469-0.99219-1.2109-1.293-1.9375v0.023437c0.078126-0.32422 0.11719-0.65625 0.11328-0.99219zm17.945 154.27c3.4688 1.2109 7.0703 2.0156 10.73 2.3906 9.4922 0.98438 19.031 1.4961 28.578 1.5312 13.793 0.42969 27.566-1.2969 40.824-5.1172 1.3438 0.78125 2.3047 2.0859 2.6484 3.6055 0.56641 2.543 1.2188 5.9336 1.8906 10.234-35.715 11.312-76.223 2.7188-87.836-0.19531 0.66016-4.1914 1.3008-7.5234 1.8633-10.023l-0.003906-0.003907c0.22656-0.90625 0.67188-1.7383 1.3047-2.4219zm-1.2773-14.34-0.003906-50.977c0-2.1758 1.7656-3.9375 3.9375-3.9375h33.852c1.043 0 2.043 0.41406 2.7812 1.1523 0.73828 0.73828 1.1523 1.7383 1.1523 2.7852v50.965c0 1.043-0.41406 2.0469-1.1523 2.7852s-1.7383 1.1523-2.7812 1.1523h-33.852c-2.1719 0-3.9375-1.7617-3.9375-3.9375zm54.953 9.8711c-3.5195 0.26172-7.3711 0.44531-11.648 0.49219 3.8438-2.0312 6.2539-6.0156 6.2695-10.363v-50.977c0-6.5234-5.2852-11.809-11.805-11.809h-13.434v-56.82c4.7891 0.23438 9.8828 0.36719 15.352 0.36719s10.5-0.12891 15.262-0.35938zm-15.262-136.97c-12.008 0.48047-23.441-5.168-30.359-14.996-1.7656-2.5391-2.7031-5.5664-2.6758-8.6602v-28.41c-0.042968-3.4727 1.6758-6.7305 4.5664-8.6562 7.5703-4.0508 15.863-6.5625 24.402-7.3984 2.7148-0.33594 5.457-0.33594 8.168 0 8.543 0.83594 16.836 3.3477 24.402 7.3984 2.8906 1.9258 4.6094 5.1836 4.5703 8.6562v28.391c0.027343 3.0977-0.91016 6.1211-2.6797 8.6602-6.9219 9.8438-18.371 15.496-30.395 15.004zm-75.891-28.594c-0.007813-14.293 4.0352-28.297 11.66-40.387v55.812c-0.26562 2.6758 0.5625 5.3477 2.293 7.4062 4.5625 4.8398 10.547 8.0938 17.082 9.2969-6.418 2.6758-12.258 6.5703-17.199 11.469-8.9766-12.77-13.805-27.988-13.836-43.598zm28.34 148.67-24.637-15.074 0.003906-0.003906c-5.9609-4.082-10.266-10.164-12.137-17.141-1.875-6.9766-1.1914-14.395 1.9219-20.914l8.7656-18.523 17.812 11.074-5.3516 12.746c-2.418 5.6914-0.29297 12.297 4.9922 15.512l8.6133 5.2734zm0-36.285-4.5234-2.7539v-0.003906c-1.9492-1.1992-2.7344-3.6445-1.8398-5.7539l6.3633-15.164zm0.45312-41.051-5.2812 9.6641-17.512-10.898c1.9062-3.0859 3.5742-5.8398 5.0742-8.3242 2.5508-4.2188 4.5664-7.5508 6.4609-10.332 4.7578-6.9844 14.914-11.668 22.043-14.238l-0.003907 39.828c0 2.1719 1.7617 3.9375 3.9375 3.9375 2.1719 0 3.9336-1.7656 3.9336-3.9375v-41.961c1.6875 0.19141 3.4297 0.36719 5.2344 0.51562v57.32h-12.547c-1.3438 0.011719-2.6758 0.25781-3.9375 0.72266v-20.422c0-1.7969-1.2188-3.3672-2.9609-3.8086-1.7422-0.44531-3.5625 0.34375-4.4258 1.9219zm30.406 262.22v-0.003906c-0.33594 2.3828-2.0273 4.3555-4.3281 5.0508-12.895 4.0078-26.617 4.5312-39.777 1.5156-1.793-0.36719-3.2852-1.6055-3.9766-3.2969-0.92188-2.4883 0.11719-5.2773 2.4453-6.5547 13.293-8.0898 15.246-33.062 15.383-45.09h37.18zm83.637-3.2852v-0.003907c2.3281 1.2773 3.3672 4.0664 2.4453 6.5547-0.69531 1.6914-2.1836 2.9297-3.9766 3.2969-13.16 3.0117-26.883 2.4922-39.777-1.5156-2.3047-0.69531-3.9922-2.668-4.3281-5.0508l-6.9219-48.379h37.18c0.16016 12.043 2.1172 37.016 15.395 45.094zm-15.352-52.965h-38.32l-7.0547-49.266c-0.27344-1.9375-1.9375-3.3789-3.8945-3.3789-1.9609 0-3.6211 1.4414-3.8984 3.3789l-7.0508 49.262-38.344 0.003906c-0.32031-29.055 1.1094-58.105 4.2812-86.988 15.844 3.8945 32.094 5.9023 48.41 5.9766 14.09 0.125 28.121-1.8164 41.645-5.7617 3.1562 28.812 4.5781 57.789 4.2578 86.773zm0.69141-190.21v-0.003906c-1.3438-1.2266-2.5039-2.6484-3.4336-4.2188-0.76953-1.6641-2.5859-2.582-4.3828-2.2031-1.7969 0.375-3.0938 1.9453-3.1289 3.7773-0.03125 1.6211-0.72266 39.84 2.6094 54.461v0.003906c1.3164 5.7266 1.2891 11.68-0.078126 17.395-0.5625 2.3672-2.3125 4.2734-4.625 5.0273-0.88281 0.28906-1.9141 0.59375-3.043 0.90234v-116.98c0-2.1719-1.7617-3.9336-3.9336-3.9336-2.1758 0-3.9375 1.7617-3.9375 3.9336v118.71c-1.6016 0.28125-3.3477 0.54297-5.2305 0.78906v-129.16c2.2188-0.18359 4.3281-0.39453 6.3555-0.65234v-0.003907c12.941 2.1328 24.516 9.2969 32.199 19.926 0.13672 0.19531 3.1055 4.3828 8.4492 10.836-5.8125 7.3086-11.852 14.805-17.785 21.387z"/>
  <path d="m419.12 426.14c0 3.2695-2.6484 5.918-5.918 5.918-3.2656 0-5.9141-2.6484-5.9141-5.918 0-3.2656 2.6484-5.9141 5.9141-5.9141 3.2695 0 5.918 2.6484 5.918 5.9141"/>
  <path d="m453.64 450.86c0 3.2656-2.6484 5.918-5.9141 5.918s-5.9141-2.6523-5.9141-5.918 2.6484-5.9141 5.9141-5.9141 5.9141 2.6484 5.9141 5.9141"/>
  <path d="m413.22 483.61c0 3.2695-2.6484 5.918-5.9141 5.918-3.2695 0-5.918-2.6484-5.918-5.918 0-3.2656 2.6484-5.9141 5.918-5.9141 3.2656 0 5.9141 2.6484 5.9141 5.9141"/>
  <path d="m502.64 468.54c0 3.2695-2.6484 5.918-5.9141 5.918-3.2695 0-5.918-2.6484-5.918-5.918 0-3.2656 2.6484-5.9141 5.918-5.9141 3.2656 0 5.9141 2.6484 5.9141 5.9141"/>
  <path d="m467.22 492.15c0 3.2656-2.6484 5.9141-5.918 5.9141-3.2656 0-5.9141-2.6484-5.9141-5.9141s2.6484-5.9141 5.9141-5.9141c3.2695 0 5.918 2.6484 5.918 5.9141"/>
  <path d="m474.81 566.82c0 3.2656-2.6484 5.9141-5.9141 5.9141-3.2656 0-5.9141-2.6484-5.9141-5.9141 0-3.2695 2.6484-5.918 5.9141-5.918 3.2656 0 5.9141 2.6484 5.9141 5.918"/>
  <path d="m581.12 566.83c0 3.2656-2.6484 5.9141-5.9141 5.9141-3.2695 0-5.918-2.6484-5.918-5.9141 0-3.2695 2.6484-5.918 5.918-5.918 3.2656 0 5.9141 2.6484 5.9141 5.918"/>
 </g>
</svg>