<?xml version="1.0" encoding="UTF-8"?>
<!-- The Best Svg Icon site in the world: iconSvg.co, Visit us! https://iconsvg.co -->
<svg fill="#000000" width="800px" height="800px" version="1.1" viewBox="144 144 512 512" xmlns="http://www.w3.org/2000/svg">
 <g>
  <path d="m203.51 601.52h392.97c2.7812 0 5.0391-2.2539 5.0391-5.0391v-37.785c0-2.7852-2.2539-5.0391-5.0391-5.0391h-1.5742v-307.32h1.5742c2.7812 0 5.0391-2.2539 5.0391-5.0391v-37.785c0-2.7852-2.2539-5.0391-5.0391-5.0391l-392.97 0.003906c-2.7812 0-5.0391 2.2539-5.0391 5.0391v37.785c0 2.7852 2.2539 5.0391 5.0391 5.0391h1.5742v307.32l-1.5742-0.003906c-2.7812 0-5.0391 2.2539-5.0391 5.0391l0.003906 37.785c0 2.7852 2.2539 5.0391 5.0352 5.0391zm387.93-10.078h-382.89v-27.711h382.89zm-382.89-382.89h382.89v27.711h-382.89zm6.6133 37.785h369.67v307.32h-369.67z"/>
  <path d="m456.01 410.99c-11.801-11.188-27.406-18.297-44.324-20.574l3.9883-12.367c2.6445 2.0312 5.5938 3.6523 8.8438 4.6992 2.9883 0.96094 6.0508 1.4375 9.0977 1.4375 4.6211 0 9.207-1.0977 13.438-3.2617 7.0234-3.6016 12.223-9.7188 14.641-17.227 2.0234-6.2617 1.8555-13.023-0.38281-19.16 5.3984-3.6758 9.4805-9.0625 11.5-15.324 3.6641-11.359 0.14453-23.547-8.582-31.203 0.56641-1.1562 1.0508-2.3477 1.4453-3.5664 4.5625-14.148-3.2383-29.383-17.395-33.949-14.152-4.5469-29.379 3.2422-33.945 17.402-0.39062 1.2188-0.69531 2.4648-0.90625 3.7344-4.8984 0.47656-9.4727 2.2148-13.441 4.8633-4.0391-2.6875-8.6094-4.3867-13.406-4.8555-0.21094-1.2695-0.51562-2.5195-0.91016-3.7422-4.5625-14.156-19.793-21.949-33.945-17.398-14.152 4.5664-21.957 19.797-17.391 33.953 0.39453 1.2188 0.875 2.4102 1.4453 3.5625-8.7266 7.6562-12.246 19.844-8.582 31.203 2.0195 6.2617 6.1016 11.652 11.5 15.324-2.2344 6.1367-2.4023 12.895-0.38281 19.16 2.4219 7.5078 7.6172 13.625 14.641 17.227 4.2305 2.1641 8.8164 3.2617 13.438 3.2617 3.0469 0 6.1094-0.47656 9.0938-1.4375 3.2188-1.0391 6.168-2.6094 8.793-4.6133l3.6758 12.293c-33.805 4.7148-60.582 29.168-63.598 59.238-2.9336 29.32 16.148 56.316 47.484 67.172 8.2344 2.8594 13.043 6.9805 15.594 13.367 1.9375 4.8398 6.8594 8.0781 12.273 8.0781h0.09375c5.3906-0.035156 10.156-3.168 12.148-7.9805 2.7305-6.5977 7.1523-10.477 14.785-12.969 29.43-9.6094 49.207-34.434 49.207-61.777-0.003906-16.555-7.0781-32.383-19.934-44.57zm-57.758-21.281-5.1758-17.301c0.99609 0.44922 2.0234 0.85938 3.0859 1.2031 3.25 1.043 6.5898 1.4531 9.9219 1.3477l-4.75 14.738c-1.0273-0.019531-2.0547-0.007812-3.082 0.011719zm19.477-98.086c1.3984 0.11719 2.8047-0.39453 3.832-1.3672s1.5977-2.3359 1.5703-3.7539c-0.039062-1.9023 0.23047-3.7578 0.79297-5.5156 2.8594-8.8594 12.398-13.762 21.262-10.895 8.8672 2.8594 13.754 12.398 10.898 21.258-0.56641 1.7578-1.4336 3.418-2.5742 4.9453-0.84766 1.1328-1.1836 2.5742-0.91797 3.9648 0.26562 1.3867 1.1055 2.6016 2.3086 3.3438 7.6562 4.707 11.078 13.969 8.3203 22.52-1.6992 5.2578-5.4258 9.4258-10.508 11.734-1.293 0.58594-2.2773 1.6875-2.7109 3.0391-0.43359 1.3516-0.28125 2.8242 0.42578 4.0547 2.7344 4.7617 3.3438 10.465 1.6719 15.656-1.5938 4.9453-5.0195 8.9727-9.6445 11.344-4.6328 2.3672-9.9023 2.793-14.848 1.1992-3.3438-1.0781-6.2344-3.0391-8.5352-5.6523l18.512-57.41c0.85547-2.6484-0.60156-5.4844-3.25-6.3438-2.6406-0.83203-5.4844 0.60547-6.3398 3.2539l-18.508 57.406c-3.3945 0.77734-6.8828 0.68359-10.234-0.39844-5.9805-1.9297-10.32-6.5234-12.285-12.031l-0.61328-2.0547c-0.78906-3.3398-0.77734-6.9062 0.34766-10.406 1.6992-5.25 5.4258-9.418 10.508-11.723 1.293-0.58594 2.2773-1.6875 2.7109-3.0391 0.43359-1.3516 0.28125-2.8242-0.42578-4.0547-2.7344-4.7617-3.3438-10.465-1.6719-15.656 2.7578-8.5547 11.016-14.035 19.906-13.418zm-45.336 81.535c-4.9531 1.5938-10.219 1.168-14.848-1.1992-4.625-2.3711-8.0508-6.4023-9.6445-11.344-1.6719-5.1914-1.0625-10.895 1.6719-15.656 0.70703-1.2305 0.85938-2.6992 0.42578-4.0547-0.43359-1.3516-1.418-2.457-2.7109-3.0391-5.0781-2.3086-8.8086-6.4766-10.508-11.734-2.7578-8.5508 0.66797-17.809 8.3203-22.52 1.207-0.74219 2.043-1.957 2.3086-3.3438 0.26562-1.3906-0.070312-2.832-0.91797-3.9648-1.1406-1.5234-2.0117-3.1875-2.5742-4.9414-2.8555-8.8672 2.0312-18.406 10.895-21.266 8.8672-2.875 18.41 2.0312 21.262 10.887 0.56641 1.7617 0.83203 3.6172 0.79297 5.5195-0.027343 1.418 0.54297 2.7812 1.5703 3.7539s2.3867 1.4844 3.832 1.3672c3.5547-0.26172 7.0469 0.48828 10.176 2.0781-1.7852 2.4688-3.2383 5.2227-4.2148 8.25-2.0234 6.2617-1.8555 13.023 0.38281 19.16-5.3984 3.6758-9.4805 9.0625-11.5 15.324-1.6133 5.0078-1.7969 10.133-0.80469 14.953 0.015624 0.054687 0 0.10938 0.015624 0.16406l0.12109 0.40234c0.31641 1.3984 0.71484 2.7734 1.2266 4.1016l3.3789 11.297c-2.3164 2.6914-5.25 4.707-8.6562 5.8047zm51.211 134.61c-10.434 3.4062-17.098 9.3438-20.965 18.688-0.43359 1.0469-1.5977 1.75-2.8984 1.7617-0.015625-0.003907-0.027343 0-0.035156 0-1.3086 0-2.5039-0.71484-2.9141-1.7422-3.6328-9.0938-10.715-15.355-21.652-19.148-26.84-9.2969-43.219-32.07-40.758-56.648 2.7344-27.293 29.109-49.172 61.352-50.887 1.4258-0.078125 2.8398-0.11719 4.25-0.11719 18.773 0 36.473 6.6797 49.094 18.641 10.828 10.258 16.785 23.488 16.785 37.254 0.003906 22.969-16.98 43.941-42.258 52.199z"/>
  <path d="m436.31 444.53c0.86328 1.8164 2.668 2.875 4.5508 2.875 0.72656 0 1.4648-0.15625 2.1641-0.48828 2.5117-1.1953 3.5781-4.2031 2.3828-6.7148-4.4102-9.2695-12.457-16.941-22.66-21.598-2.5352-1.1406-5.5195-0.042969-6.6758 2.4961-1.1562 2.5273-0.039063 5.5195 2.4883 6.6758 8.0547 3.668 14.355 9.6172 17.75 16.754z"/>
  <path d="m444.12 451.67c-2.7812 0-5.0391 2.2539-5.0391 5.0391 0 10.055-5.3828 19.434-14.766 25.727-2.3086 1.5508-2.9258 4.6797-1.3789 6.9883 0.97266 1.4531 2.5664 2.2344 4.1875 2.2344 0.96484 0 1.9414-0.27734 2.8008-0.85547 12.219-8.1914 19.227-20.621 19.227-34.09 0.007812-2.7891-2.2461-5.043-5.0312-5.043z"/>
 </g>
</svg>