<?xml version="1.0" encoding="UTF-8"?>
<!-- The Best Svg Icon site in the world: iconSvg.co, Visit us! https://iconsvg.co -->
<svg fill="#000000" width="800px" height="800px" version="1.1" viewBox="144 144 512 512" xmlns="http://www.w3.org/2000/svg">
 <path d="m400 295.64c-8.1406 0-14.281-4.1836-14.281-9.7227 0-2.3633 1.918-4.2812 4.2812-4.2812 2.2305 0 4.0625 1.7031 4.2617 3.8828 0.11328 0.10938 0.32812 0.25391 0.57812 0.39844 0.89453 0.52344 2.6133 1.1602 5.1562 1.1602 2.543 0 4.2617-0.63672 5.1562-1.1602 0.25-0.14453 0.46094-0.28906 0.57812-0.39844 0.20312-2.1758 2.0352-3.8828 4.2617-3.8828 2.3633 0 4.2812 1.918 4.2812 4.2812 0.007812 5.5391-6.1328 9.7227-14.273 9.7227zm-23.625-44.172c-3.9336 0-6.9023 3.4727-6.9023 8.0781s2.9688 8.082 6.9023 8.082 6.9023-3.4766 6.9023-8.082-2.9688-8.0781-6.9023-8.0781zm47.25 16.164c3.9336 0 6.9023-3.4766 6.9023-8.082s-2.9688-8.0781-6.9023-8.0781-6.9023 3.4727-6.9023 8.0781 2.9648 8.082 6.9023 8.082zm-59.629 144.61c-6.8789-1.3945-5.5703 6.2812-5.5703 6.2812-0.98438 18.844 25.223 6.9805 21.621-2.4414-1.6797-4.3945-6.2227-4.5352-9.5-2.4414-3.2734 2.0938-3.582-0.79688-6.5508-1.3984zm-4.5859-37.336c8.5156 0.34766 12.613-7.1523 10.809-12.215-1.3242-3.7188-8.5156-9.2461-12.777 0.69922 0 0-4.9062 1.9492-3.6016 7.5039 0.65625 2.7891 2.4844 3.8867 5.5703 4.0117zm76.836-0.85547c6.8789 1.3945 5.5703-6.2812 5.5703-6.2812 0.98438-18.844-25.223-6.9805-21.621 2.4414 1.6797 4.3945 6.2227 4.5352 9.5 2.4414 3.2734-2.0938 3.5859 0.79688 6.5508 1.3984zm-6.2227 49.551c1.3242 3.7188 8.5156 9.2461 12.777-0.69922 0 0 4.9062-1.9492 3.6016-7.5039-0.65625-2.793-2.4805-3.8867-5.5703-4.0117-8.5156-0.34766-12.613 7.1523-10.809 12.215zm80.035 27.441v12.09c0 5.5547-4.5234 10.078-10.078 10.078h-34.734l0.67578 9.5156 0.007813 76.465c1.7969 1.8203 2.9102 4.3164 2.9102 7.0664v24.59c10.668 3.7305 18.355 13.867 18.355 25.793 0 8.3359-6.7812 15.113-15.113 15.113l-63.555-0.003906c-2.7812 0-5.0391-2.2539-5.0391-5.0391v-60.457c0-1.8438 0.53516-3.5469 1.3984-5.0352l-2.6406-65c-0.054688-1.3125-1.0391-2.3438-2.2461-2.3438s-2.1914 1.0273-2.2461 2.3359l-2.6406 65.023c0.85938 1.4844 1.3906 3.1836 1.3906 5.0195v60.457c0 2.7852-2.2539 5.0391-5.0391 5.0391h-63.547c-8.3359 0-15.113-6.7812-15.113-15.113 0-11.922 7.6836-22.062 18.352-25.793v-24.59c0-2.75 1.1133-5.2461 2.9062-7.0664v-76.109l0.69922-9.8711h-34.746c-5.5586 0-10.078-4.5234-10.078-10.078v-12.09c0-4.8672 1.8047-9.2773 4.6875-12.762-0.37109-1.9375-0.24219-3.957 0.55469-5.832l36.375-85.387c2.0273-4.7539 5.5898-8.582 10.02-11.168v-1.0938c0-5.5586 4.5195-10.078 10.078-10.078h24.613v-8.7852c-1.6094-1.0195-3.1758-2.1211-4.6953-3.3203h-23.191c-8.1875 0-15.012-6.2148-15.539-14.145l-1.6758-25.266c-0.21484-0.48438-0.46484-0.94141-0.65234-1.4453-1.832-4.9492-1.8984-10.195-0.42578-14.82l-1.8867-28.461c-0.011719-33.359 29.207-60.23 65.121-60.23h13.352c35.918 0 65.137 26.871 65.137 59.902l-1.9023 28.781c1.4805 4.6289 1.4141 9.8828-0.42188 14.836-0.1875 0.50781-0.4375 0.96484-0.65625 1.4531l-1.6719 25.262c-0.52734 7.9297-7.3516 14.145-15.543 14.145h-23.188c-1.5156 1.1992-3.0859 2.3008-4.6953 3.3203v8.7852h24.613c5.5586 0 10.078 4.5195 10.078 10.078v1.0898c4.4297 2.5859 7.9961 6.4141 10.023 11.172l36.367 85.387c0.79688 1.875 0.92969 3.8906 0.55859 5.8281 2.8828 3.4805 4.6875 7.8906 4.6875 12.758zm-57.309-102.22 5.7539 14.594c2.6094 6.6133 3.9336 13.578 3.9336 20.688v36.066c0 3.6875-1.0664 7.1016-2.8047 10.078h2.0312l2.3867-8.3242c1.1406-3.9805 4.8242-6.7539 8.9609-6.7539h5.8711c5.1406 0 9.3203 4.1836 9.3203 9.3203v6.4062h1.7031c1.1797 0 2.3164 0.15234 3.4414 0.34766l-34.168-80.223c-0.74219-1.7383-1.9023-3.2656-3.3242-4.5547-0.87109 0.96875-1.918 1.7734-3.1055 2.3555zm-65.496 0 5.7539 14.594c0.16406 0.41406 0.27344 0.83594 0.42578 1.2539h13.129c0.15234-0.41406 0.26562-0.83984 0.42578-1.2539l5.7539-14.594c-2.4219-1.1875-4.2734-3.3008-5.1289-5.8906l-15.316 0.25781c-0.88672 2.4727-2.7031 4.4844-5.043 5.6328zm5.5078-15.703 14.504-0.23828c0.67188-3.4727 3.1406-6.2891 6.3945-7.5v-4.6055c-4.3516 1.4883-8.9023 2.3789-13.656 2.3789-4.7578 0-9.3086-0.89453-13.656-2.3789v4.6055c3.3203 1.2383 5.8047 4.1602 6.4141 7.7383zm4.1797 50.98v36.066c0 3.6875-1.0664 7.1016-2.8047 10.078h11.727c-1.7344-2.9766-2.8047-6.3906-2.8047-10.078v-36.066c0-3.1562 0.30469-6.2773 0.82031-9.3594h-7.7656c0.52344 3.082 0.82812 6.2031 0.82812 9.3594zm-20.152 56.219h-42.242c-2.2461 0-4.2227-1.4844-4.8438-3.6445l-3.2812-11.434h-4.543v21.207h156.25l-0.003906-21.207h-4.543l-3.2773 11.43c-0.62109 2.1602-2.5938 3.6523-4.8438 3.6523h-23.18l-19.07-0.003907zm72.34-73.211-6.793-17.23h-19.176l-6.7969 17.23c-1.8008 4.5703-2.8086 9.3438-3.0977 14.219 0.76953-0.14062 1.6445-0.042969 2.6719 0.39844 9.6641 4.1875 3.2773 4.8867 10.156 17.449 5.7852 10.562-8.3086 18.387-12.953 20.621v0.375c0 5.5547 4.5195 10.078 10.078 10.078h19.07c5.5586 0 10.078-4.5234 10.078-10.078v-18.566c-2.0898 0.57812-4.4922-0.074219-6.2617-4.4961-4.0312-10.066 1.5195-15.156 6.0352-17.523-0.42578-4.2695-1.4258-8.4492-3.0117-12.477zm-31.984-32.309v5h31.211l-0.007813-5zm40.844-50.297c-2.3242 1.0664-4.7773 1.6953-7.25 1.6953-0.67578 0-1.3477-0.085938-2.0234-0.17188-2.7578 5.9727-6.1875 11.559-10.199 16.52h13.105c2.8984 0 5.3125-2.0781 5.4844-4.7344zm2.0078-25.629c-0.55469-1.207-1.625-2.7891-3.543-3.4883-0.0625-0.023438-0.13281-0.011719-0.19531-0.035157-0.26953 6.8242-1.5 13.746-3.5977 20.457 3.0078-0.86719 5.9453-3.6719 7.3828-7.5469h0.003906c1.1914-3.2266 1.1719-6.7383-0.050781-9.3867zm-121.73-30.727 1.2031 18.082c0.21484-0.089844 0.41016-0.22656 0.62891-0.30859 1.3125-0.47656 2.6523-0.72266 4-0.83594 0.20312-1.7852 0.42969-3.5742 0.77344-5.3789 0.61328-3.2148 2.8594-5.8828 6.0117-7.1328 10.727-4.2773 17.012-10.059 24.242-18.602 1.7305-2.0469 4.2617-3.2969 6.9453-3.4258 2.6094-0.11719 5.1914 0.83203 7.0547 2.6445 11.059 10.734 38.301 18.637 57.199 19.801 4.5664 0.28125 8.2969 3.625 9.0625 8.1289 0.22656 1.3242 0.36328 2.6445 0.51172 3.9609 1.3516 0.11328 2.6953 0.35938 4.0117 0.83594 0.21875 0.078125 0.40625 0.21484 0.62109 0.30078l1.2227-18.41c-0.011719-27.141-24.711-49.492-55.07-49.492h-13.352c-30.367 0.007813-55.066 22.359-55.066 49.832zm1.6953 40.117c1.4375 3.8789 4.375 6.6914 7.3867 7.5547-2.1016-6.7148-3.3359-13.637-3.6016-20.465-0.0625 0.019531-0.13281 0.011719-0.19531 0.035156-1.9219 0.69922-2.9883 2.2812-3.543 3.4883-1.2227 2.6445-1.2422 6.1562-0.046875 9.3867zm21.531 34.277c-4.0117-4.9609-7.4414-10.547-10.199-16.516-0.67187 0.085937-1.3438 0.17188-2.0195 0.17188-2.4766 0-4.9297-0.62891-7.2578-1.6953l0.88281 13.305c0.17578 2.6562 2.582 4.7344 5.4844 4.7344zm38.512 10.543c26.074 0 46.301-32.52 46.301-60.496 0-3.1016-0.27734-6.3164-0.81641-9.5508-20.898-1.332-49.906-9.9609-62.961-22.215-7.9414 9.3359-15.438 16.137-27.914 21.113-0.55078 3.3984-0.91406 7.0977-0.91406 10.652 0.003907 27.973 20.227 60.496 46.305 60.496zm-48.348 26.715h31.211l-0.007812-5h-31.203zm-4.0117 80.367c0 5.5547 4.5195 10.078 10.078 10.078h19.07c5.5586 0 10.078-4.5234 10.078-10.078v-15.184c-0.74219 0.10938-1.582 0.003906-2.5547-0.41797-9.6641-4.1875-3.2773-4.8867-10.156-17.449-4.7734-8.7148 4.0078-15.574 9.8398-18.965-0.12891-0.34766-0.22266-0.69922-0.35547-1.043l-6.793-17.23h-19.176l-6.7969 17.23c-2.1406 5.4375-3.2266 11.152-3.2266 16.992v0.66016c2.1445-0.69922 4.668-0.17188 6.5039 4.4219 4.1719 10.422-1.918 15.504-6.5039 17.762zm-40.992 11.07c1.125-0.19531 2.2617-0.34766 3.4414-0.34766h1.707v-6.4062c0-5.1367 4.1797-9.3203 9.3203-9.3203h5.875c4.1328 0 7.8164 2.7734 8.957 6.75l2.3906 8.3281h2.0273c-1.7344-2.9766-2.8047-6.3906-2.8047-10.078v-36.066c0-7.1094 1.3203-14.07 3.9297-20.688l5.7539-14.594c-1.1875-0.58203-2.2344-1.3828-3.1016-2.3594-1.4219 1.2891-2.582 2.8125-3.3242 4.5508zm28.66 31.895-0.003906-6.6094h-18.469c-2.7812 0-5.0391-2.2539-5.0391-5.0391v-10.52h-1.707c-5.5586 0-10.078 4.5234-10.078 10.078v12.09zm51.121 153.5c0-9.5195-7.7422-17.266-17.262-17.266h-29.023c-9.5195 0-17.266 7.7422-17.266 17.266 0 2.7812 2.2617 5.0391 5.0391 5.0391h58.512zm0-50.383h-45.199v23.039h27.938c6.543 0 12.551 2.3164 17.262 6.1641zm25.887-70.449 2.4531 60.375h41.094l-0.003906-73.102-1.8867-26.555h-107.94l-1.9102 26.906 0.007812 72.746h41.105l2.4492-60.375c0.27344-6.7305 5.6797-12.004 12.312-12.004 6.6289 0.003906 12.039 5.2773 12.316 12.008zm1.25 70.449v29.203c4.7109-3.8477 10.723-6.1641 17.266-6.1641h27.934v-23.039zm46.289 33.117h-29.023c-9.5195 0-17.266 7.7422-17.266 17.266v5.0391l58.516-0.003906c2.7773 0 5.0391-2.2578 5.0391-5.0391-0.003906-9.5195-7.7461-17.262-17.266-17.262zm40.137-136.24-0.011719-12.09c0-5.5547-4.5234-10.078-10.078-10.078h-1.7031v10.52c0 2.7852-2.2578 5.0391-5.0391 5.0391h-18.469v6.6094z"/>
</svg>