<?xml version="1.0" encoding="UTF-8"?>
<!-- The Best Svg Icon site in the world: iconSvg.co, Visit us! https://iconsvg.co -->
<svg fill="#000000" width="800px" height="800px" version="1.1" viewBox="144 144 512 512" xmlns="http://www.w3.org/2000/svg">
 <g>
  <path d="m202.5 389.92c1.0078 0.50391 1.5117 0.50391 2.5195 0.50391 1.5117 0 3.5273-1.0078 4.5352-2.5195l14.609-25.191v215.12c0 3.0234 2.0156 5.0391 5.0391 5.0391h341.08c3.0234 0 5.0391-2.0156 5.0391-5.0391v-211.6l11.586 21.664c1.0078 1.5117 2.5195 2.5195 4.5352 2.5195 1.0078 0 1.5117 0 2.5195-0.50391 2.5195-1.5117 3.5273-4.5352 2.0156-7.0547l-21.16-39.297-50.383-88.672c-0.50391-1.0078-1.5117-1.5117-2.5195-2.0156l-119.91-55.418c-1.5117-0.50391-3.0234-0.50391-4.0312 0l-119.91 55.418c-1.0078 0.50391-1.5117 1.0078-2.0156 2.0156l-50.383 87.16-24.184 41.312c-2.0117 2.0195-1.0039 5.043 1.0117 6.5547zm202.53 75.066 22.672 45.344-22.672 43.328zm-10.074 89.176-23.176-43.832 23.176-45.344zm-1.5117 18.641h-54.41l26.699-51.891zm39.801-51.891 25.695 51.387h-52.398zm30.73 38.793-24.688-49.879 24.688-48.367zm-30.73-60.961-24.688-49.375h50.383zm-67.512 0.50391-26.195-49.879h52.395zm-5.5391 11.082-24.184 46.855v-92.703zm113.86 62.473v-128.47c0-3.0234-2.0156-5.0391-5.0391-5.0391l-138.04 0.003906h-1.0078c-0.50391 0-0.50391 0-1.0078 0.50391l-0.50391 0.50391c-0.50391 0-0.50391 0.50391-1.0078 0.50391 0 0-0.50391 0.50391-0.50391 1.0078s-0.50391 0.50391-0.50391 1.0078v1.0078 0.50391 128.47l-92.195-0.003906v-171.3h331v171.3zm-190.95-311.36 116.89-53.906 116.38 53.906 48.871 86.152v43.832h-331v-45.848z"/>
  <path d="m325.94 341.05v5.0391c0 3.0234 2.0156 5.0391 5.0391 5.0391h138.04c3.0234 0 5.0391-2.0156 5.0391-5.0391v-62.98c0-3.0234-2.0156-5.0391-5.0391-5.0391l-138.04 0.003906c-3.0234 0-5.0391 2.0156-5.0391 5.0391zm10.078-48.367 49.879 20.656-49.879 20.152zm127.96 42.32-51.387-21.16 51.387-20.656zm-11.586 6.0469h-107.82l54.914-22.168zm-52.898-33.254-47.863-20.152h97.738z"/>
 </g>
</svg>