<?xml version="1.0" encoding="UTF-8"?>
<!-- The Best Svg Icon site in the world: iconSvg.co, Visit us! https://iconsvg.co -->
<svg fill="#000000" width="800px" height="800px" version="1.1" viewBox="144 144 512 512" xmlns="http://www.w3.org/2000/svg">
 <g>
  <path d="m259.34 333.21v225.73c-0.011719 0.74609-0.13672 18.434 12.203 30.965 7.7734 7.8906 18.559 11.895 32.062 11.895h192.76c13.504 0 24.289-4.0039 32.062-11.895 12.34-12.531 12.211-30.223 12.203-30.891v-225.8c0-23.82-16.629-37.801-29.281-45 9.9609-5.0898 16.809-15.426 16.809-27.359v-31.371c0-16.945-13.785-30.727-30.73-30.727h-194.89c-16.945 0-30.73 13.785-30.73 30.727v31.371c0 11.883 6.7891 22.188 16.684 27.297-12.586 7.2148-29.156 21.223-29.156 45.062zm22.547-72.359v-31.371c0-11.387 9.2656-20.652 20.652-20.652h194.89c11.391 0 20.652 9.2656 20.652 20.652v31.371c0 11.387-9.2656 20.652-20.652 20.652h-194.88c-11.391 0-20.656-9.2656-20.656-20.652zm23.184 30.727h189.4c0.85156 0.26562 36.086 11.605 36.086 41.633v225.87c0 0.14453 0.019531 14.352-9.3672 23.824-5.8047 5.8555-14.156 8.8242-24.82 8.8242l-192.76-0.003906c-10.668 0-19.016-2.9688-24.82-8.8242-9.3867-9.4727-9.3672-23.68-9.3672-23.883l-0.003906-225.8c0-29.363 32.648-40.652 35.656-41.633z"/>
  <path d="m308.27 271.51c2.7852 0 5.0391-2.2539 5.0391-5.0391v-40.598c0-2.7812-2.2539-5.0391-5.0391-5.0391-2.7852 0-5.0391 2.2539-5.0391 5.0391v40.598c0.003906 2.7812 2.2539 5.0391 5.0391 5.0391z"/>
  <path d="m334.47 271.51c2.7852 0 5.0391-2.2539 5.0391-5.0391v-40.598c0-2.7812-2.2539-5.0391-5.0391-5.0391s-5.0391 2.2539-5.0391 5.0391v40.598c0.003906 2.7812 2.2539 5.0391 5.0391 5.0391z"/>
  <path d="m360.68 271.51c2.7852 0 5.0391-2.2539 5.0391-5.0391v-40.598c0-2.7812-2.2539-5.0391-5.0391-5.0391-2.7852 0-5.0391 2.2539-5.0391 5.0391v40.598c0 2.7812 2.2539 5.0391 5.0391 5.0391z"/>
  <path d="m386.88 271.51c2.7852 0 5.0391-2.2539 5.0391-5.0391v-40.598c0-2.7812-2.2539-5.0391-5.0391-5.0391-2.7852 0-5.0391 2.2539-5.0391 5.0391v40.598c0 2.7812 2.2539 5.0391 5.0391 5.0391z"/>
  <path d="m413.09 271.51c2.7852 0 5.0391-2.2539 5.0391-5.0391v-40.598c0-2.7812-2.2539-5.0391-5.0391-5.0391-2.7852 0-5.0391 2.2539-5.0391 5.0391v40.598c0 2.7812 2.2539 5.0391 5.0391 5.0391z"/>
  <path d="m439.29 271.51c2.7852 0 5.0391-2.2539 5.0391-5.0391v-40.598c0-2.7812-2.2539-5.0391-5.0391-5.0391s-5.0391 2.2539-5.0391 5.0391v40.598c0 2.7812 2.2539 5.0391 5.0391 5.0391z"/>
  <path d="m465.49 271.51c2.7852 0 5.0391-2.2539 5.0391-5.0391v-40.598c0-2.7812-2.2539-5.0391-5.0391-5.0391-2.7852 0-5.0391 2.2539-5.0391 5.0391v40.598c0 2.7812 2.2539 5.0391 5.0391 5.0391z"/>
  <path d="m491.69 271.51c2.7852 0 5.0391-2.2539 5.0391-5.0391v-40.598c0-2.7812-2.2539-5.0391-5.0391-5.0391s-5.0391 2.2539-5.0391 5.0391v40.598c0.003906 2.7812 2.2539 5.0391 5.0391 5.0391z"/>
  <path d="m313.26 546.77h173.45c2.7852 0 5.0391-2.2539 5.0391-5.0391 0-2.7812-2.2539-5.0391-5.0391-5.0391l-173.45 0.003906c-2.7852 0-5.0391 2.2539-5.0391 5.0391 0 2.7812 2.2539 5.0352 5.0391 5.0352z"/>
  <path d="m313.26 350.37h173.45c2.7852 0 5.0391-2.2539 5.0391-5.0391 0-2.7812-2.2539-5.0391-5.0391-5.0391l-173.45 0.003906c-2.7852 0-5.0391 2.2539-5.0391 5.0391 0 2.7812 2.2539 5.0352 5.0391 5.0352z"/>
 </g>
</svg>