<?xml version="1.0" encoding="UTF-8"?>
<!-- The Best Svg Icon site in the world: iconSvg.co, Visit us! https://iconsvg.co -->
<svg fill="#000000" width="800px" height="800px" version="1.1" viewBox="144 144 512 512" xmlns="http://www.w3.org/2000/svg">
 <path d="m312.58 334.49c-0.73438 5.3086-0.99219 10.688-0.77734 15.984 0.55859 13.738-4.2539 27.961-13.543 40.043-17.75 23.09-27.137 50.719-27.137 79.895 0 36.082 15.09 70.957 41.402 95.668 24.602 23.113 56.195 35.574 89.734 35.574 2.832 0 5.6797-0.089844 8.5352-0.26562 63.871-3.9961 116.43-55.008 122.25-118.65 3.1992-35.035-7.3164-69.133-29.605-96.016-7.7031-9.2852-11.477-21.336-10.629-33.938 0.125-1.9688 0.19531-3.9492 0.19531-5.9492 0-33.152-16.605-61.355-43.488-77.324 7.582-0.78516 15.277-2.8867 22.172-7.1523 25.25-15.625 30.039-52.098 30.23-53.641 0.29297-2.3477-1.0898-4.5781-3.3203-5.3711-1.4727-0.51562-36.238-12.508-61.496 3.1016-6.2266 3.8477-11.098 9.0039-15.145 14.66l0.22266-2.1367c0.015624-0.17578 0.023437-0.34766 0.023437-0.52344 0-10.938-8.9023-19.84-19.84-19.84s-19.84 8.9023-19.84 19.84c0 0.21094 0.011718 0.41797 0.039062 0.62891l4.8281 38.406c-38.707 6.5938-69.449 38.219-74.809 77.008zm129.81-119.47c16.594-10.273 39.562-5.8047 48.777-3.3672-1.918 9.3242-8.1406 31.832-24.793 42.133-16.383 10.148-39.816 5.0039-49.543 2.1758 4.4219-13.922 11.246-32.09 25.559-40.941zm-40.031-6.3398c5.3047 0 9.6328 4.2539 9.7578 9.5273l-3.0664 29.262c-1.0391 3.0312-1.9805 5.9414-2.8164 8.6523-3.3086-0.17188-6.293-0.125-8.8555 0.023437l-4.7695-37.988c0.14062-5.25 4.457-9.4766 9.75-9.4766zm-12.652 58.598c0.070312-0.019532 4.8711-1.1992 12.344-1.1992 3.8125 0 8.3281 0.3125 13.266 1.2344 40.438 7.6133 67.602 39.57 67.602 79.527 0 1.7734-0.058594 3.5352-0.17578 5.2812-1.0195 15.184 3.5703 29.762 12.934 41.039 20.574 24.812 30.285 56.301 27.328 88.664-5.3711 58.742-53.883 105.82-112.84 109.52-33.906 2.1523-66.109-9.457-90.742-32.59-24.652-23.16-38.223-54.523-38.223-88.328 0-26.938 8.6602-52.438 25.051-73.758 10.73-13.957 16.277-30.5 15.625-46.598-0.19141-4.6992 0.039062-9.4766 0.69531-14.191 4.7695-34.555 32.215-62.727 67.141-68.598z"/>
</svg>