<?xml version="1.0" encoding="UTF-8"?>
<!-- The Best Svg Icon site in the world: iconSvg.co, Visit us! https://iconsvg.co -->
<svg fill="#000000" width="800px" height="800px" version="1.1" viewBox="144 144 512 512" xmlns="http://www.w3.org/2000/svg">
 <g>
  <path d="m415.74 312.78v-11.965l-29.125-29.125c-3.1484-2.9922-3.1484-8.0312 0-11.02 2.9922-3.1484 8.0312-3.1484 11.02 0l18.105 18.102v-44.082c0-4.4102 3.4648-7.875 7.8711-7.875 4.4102 0 7.875 3.4648 7.875 7.875v18.734l20.152-10.078c3.9375-1.8906 8.5-0.31641 10.547 3.6211 1.8906 3.7773 0.31641 8.5-3.6211 10.547l-27.078 13.543v41.723c26.609-3.7773 47.23-26.766 47.23-54.473 0-30.387-24.719-55.105-55.105-55.105-30.383 0-55.102 24.719-55.102 55.102 0 27.711 20.625 50.695 47.23 54.477z"/>
  <path d="m541.7 312.78v-11.965l-29.125-29.125c-3.1484-2.9922-3.1484-8.0312 0-11.02 2.9922-3.1484 8.0312-3.1484 11.02 0l18.105 18.102v-44.082c0-4.4102 3.4648-7.875 7.8711-7.875 4.4102 0 7.8711 3.4648 7.8711 7.875v18.734l20.152-10.078c3.7773-1.8906 8.5-0.31641 10.547 3.6211 1.8906 3.7773 0.31641 8.5-3.6211 10.547l-27.078 13.543v41.723c26.609-3.7773 47.23-26.766 47.23-54.473 0-30.387-24.719-55.105-55.105-55.105-30.383 0-55.102 24.719-55.102 55.102 0 27.711 20.625 50.695 47.234 54.477z"/>
  <path d="m423.3 502.65c-20.941 0-38.102 22.828-38.102 51.012s17.16 51.012 38.102 51.012c21.098 0 38.102-22.828 38.102-51.012-0.003906-28.18-17.004-51.012-38.102-51.012zm0 70.691c-9.4453 0-17.004-8.8164-17.004-19.68 0-10.863 7.5586-19.68 17.004-19.68 9.4453 0 17.16 8.8164 17.16 19.68 0 10.863-7.7148 19.68-17.16 19.68z"/>
  <path d="m504.22 604.67h38.73c5.0391 0 9.918-1.2578 14.641-3.9375 14.168-8.0312 23.457-26.609 23.457-47.074 0-13.699-4.0938-26.449-11.02-35.895 2.9922 5.8242 5.3516 12.438 6.7695 19.363 0.15625 1.2578 0.31641 2.3633 0.62891 3.4648v1.2578c0 3.7773-2.6758 7.0859-6.6133 7.7148-4.25 0.62891-8.3438-2.2031-8.9727-6.4531-3.7773-23.457-19.363-40.461-37.312-40.461h-20.469c6.4531 6.6133 11.492 14.957 14.801 24.875 0.31641 0.78906 0.47266 1.7305 0.47266 2.5195 0 3.3047-2.0469 6.2969-5.3516 7.3984-3.9375 1.418-8.5-0.78906-9.918-4.8789-6.2969-18.262-19.836-29.914-34.793-29.914h-11.18c7.2422 7.5586 12.91 17.633 16.059 29.125 0.47266 1.418 0.78906 2.832 1.1016 4.25 0.31641 1.418 0.62891 2.832 0.78906 4.25 0.31641 2.2031 0.62891 4.4102 0.78906 6.6133 0.15625 2.2031 0.31641 4.4102 0.31641 6.7695 0 2.3633-0.15625 4.5664-0.31641 6.7695-0.15625 2.3633-0.47266 4.5664-0.78906 6.6133-0.15625 1.2578-0.47266 2.5195-0.78906 3.7773-0.31641 1.5742-0.62891 3.1484-1.1016 4.7227-1.2578 4.7227-2.9922 9.2891-5.1953 13.383-0.62891 1.5742-1.5742 3.1484-2.5195 4.5664-2.3633 4.0938-5.1953 7.8711-8.3438 11.18h11.18c14.957 0 28.496-11.809 34.793-30.07 1.418-4.0938 5.9844-6.1406 9.918-4.8789 3.3047 1.1016 5.3516 4.25 5.3516 7.3984 0 0.94531-0.15625 1.7305-0.31641 2.6758-3.4609 9.7617-8.4961 18.262-14.797 24.875zm25.508-93.207c3.6211-2.2031 8.5-0.94531 10.707 2.832 6.7695 11.492 10.391 25.031 10.391 39.359 0 8.9727-1.418 17.789-4.25 26.137-1.1016 3.1484-4.25 5.1953-7.5586 5.1953-0.78906 0-1.5742 0-2.5195-0.31641-3.1484-1.1016-5.3516-4.25-5.3516-7.5586 0-0.78906 0.15625-1.5742 0.47266-2.5195 2.2031-6.6133 3.4648-13.699 3.4648-20.941 0-11.492-2.832-22.355-8.1875-31.488-0.78906-1.2578-1.1016-2.5195-1.1016-3.9375-0.003906-2.668 1.4141-5.3438 3.9336-6.7617z"/>
  <path d="m485.02 459.36c-0.78906-1.2578-1.7305-2.2031-2.832-2.9922l-5.668 30.543h8.0312l2.9922-15.742c0.78516-4.0977-0.16016-8.3477-2.5234-11.809z"/>
  <path d="m466.75 453.37c-1.2578 0.47266-2.5195 1.1016-3.6211 1.8906-3.4648 2.3633-5.8242 5.9844-6.6133 10.078l-4.0938 21.57h8.1875z"/>
  <path d="m222.25 533.51c18.895 0 34.953-23.301 34.953-51.012-0.003906-27.707-16.062-51.008-34.953-51.008-19.207 0-34.793 22.828-34.793 51.012-0.003906 27.707 15.898 51.008 34.793 51.008zm0-70.691c9.2891 0 16.531 8.6602 16.531 19.68 0 11.02-7.2422 19.68-16.531 19.68-9.1328 0-16.375-8.6602-16.375-19.68 0-11.02 7.2422-19.68 16.375-19.68z"/>
  <path d="m262.39 441.72c1.1016 1.8906 2.0469 3.9375 2.9922 5.9844 0.78906 1.5742 1.5742 3.1484 2.2031 4.8789 0.31641 0.78906 0.47266 1.5742 0.78906 2.2031 0.62891 1.8906 1.2578 3.7773 1.7305 5.8242 0.47266 1.7305 0.94531 3.6211 1.2578 5.5117 0.15625 0.94531 0.31641 2.0469 0.47266 2.9922 0.47266 2.2031 0.62891 4.4102 0.78906 6.6133 0.15625 2.2031 0.31641 4.4102 0.31641 6.7695 0 2.3633-0.15625 4.5664-0.31641 6.7695-0.15625 2.3633-0.31641 4.5664-0.78906 6.6133-0.15625 1.2578-0.31641 2.5195-0.62891 3.6211-0.31641 1.7305-0.62891 3.3047-1.1016 4.8789-0.47266 2.0508-1.1016 3.9375-1.7305 5.8281-1.5742 4.7227-3.6211 9.1328-5.9844 13.066-1.1016 1.7305-2.2031 3.4648-3.3047 5.0391-1.2578 1.8906-2.6758 3.6211-4.0938 5.1953h10.078c13.539 0 25.977-11.652 31.645-29.758 1.2578-4.25 5.8242-6.4531 9.918-5.1953 3.3047 1.1016 5.5117 4.25 5.5117 7.5586 0 0.78906-0.15625 1.5742-0.47266 2.3633-3.1484 9.918-7.8711 18.422-13.855 25.031h35.582c4.5664 0 8.8164-1.2578 13.066-3.6211 13.227-8.1875 21.883-26.766 21.883-47.391 0-10.863-2.5195-21.254-6.6133-29.758 1.8906 5.3516 3.3047 10.863 4.25 16.848 0 0.31641 0.15625 0.78906 0.15625 1.1016 0 3.9375-2.832 7.2422-6.7695 7.8711-4.4102 0.47266-8.3438-2.3633-8.9727-6.6133-3.4609-23.457-17.789-40.457-34.004-40.457h-18.578c5.9844 6.6133 10.707 15.113 13.855 25.031 0.31641 0.78906 0.47266 1.5742 0.47266 2.3633 0 3.4648-2.2031 6.4531-5.5117 7.5586-4.25 1.2578-8.6602-0.94531-9.918-5.1953-5.8281-18.109-18.266-29.758-31.648-29.758h-10.074c1.418 1.5742 2.832 3.3047 4.0938 5.1953 1.1016 1.5742 2.2031 3.3047 3.3047 5.0352zm58.727-1.4141c3.7773-2.2031 8.5-0.78906 10.707 2.9922 6.1406 11.492 9.4453 25.031 9.4453 39.203 0 8.9727-1.2578 17.789-3.9375 25.977-1.1016 3.3047-4.0938 5.5117-7.3984 5.5117-0.78906 0-1.7305-0.15625-2.5195-0.47266-3.3047-0.94531-5.3516-4.0938-5.3516-7.3984 0-0.78906 0-1.5742 0.31641-2.3633 2.0469-6.7695 3.1484-13.855 3.1484-21.254 0-11.492-2.6758-22.516-7.5586-31.645-0.62891-1.1016-0.94531-2.3633-0.94531-3.7773 0-2.6797 1.418-5.3594 4.0938-6.7734z"/>
  <path d="m187.45 376.38v-7.8711h31.488v15.742h15.742v-7.8711l0.003906-7.8711h31.488v15.742h15.742v-15.742h31.488v15.742h15.742v-15.742h31.488v15.742h15.742v-7.8711l0.003906-7.8711h23.617c4.4102 0 7.8711-3.4648 7.8711-7.8711 0-4.4102-3.4648-7.8711-7.8711-7.8711h-23.617v-15.742l23.617-0.003906c4.3438 0 7.8711-3.5273 7.8711-7.8711 0-4.3477-3.5273-7.875-7.8711-7.875h-23.617v-7.8711c0-4.4102-3.4648-7.8711-7.8711-7.8711-4.4102 0-7.8711 3.4648-7.8711 7.8711l-0.003906 7.8711h-31.488v-7.8711c0-4.4102-3.4648-7.8711-7.8711-7.8711-4.4102 0-7.8711 3.4648-7.8711 7.8711v7.8711h-31.488v-7.8711c0-4.4102-3.4648-7.8711-7.8711-7.8711-4.4102 0-7.8711 3.4648-7.8711 7.8711v7.8711h-31.488v-7.8711c0-4.4102-3.4648-7.8711-7.875-7.8711s-7.8711 3.4648-7.8711 7.8711v7.8711h-31.488v-7.8711c0-4.4102-3.4648-7.8711-7.8711-7.8711-4.4102 0-7.8711 3.4648-7.8711 7.8711v70.848h15.742zm173.18-39.359v15.742h-31.488v-15.742zm-47.23 0v15.742h-31.488v-15.742zm-47.23 0v15.742h-31.488v-15.742zm-47.234 0v15.742h-31.488v-15.742z"/>
  <path d="m415.74 392.12h-244.03v90.375c0-13.066 2.832-25.348 7.8711-35.582 2.2031-4.7227 4.8789-8.9727 7.8711-12.754 8.6602-10.863 20.309-17.789 33.219-18.262 0.47266-0.16016 1.1055-0.16016 1.5781-0.16016h111.15c7.2422 0 14.484 2.0469 21.098 5.9844 0.62891 0.31641 1.2578 0.78906 1.7305 1.2578 17.004 11.18 27.867 34.48 27.867 59.512 0 25.977-11.652 49.91-29.441 60.773-6.7695 3.9375-14.012 5.9844-21.254 5.9844h-111.15c-0.47266 0-1.1016 0-1.5742-0.15625-12.91-0.47656-24.562-7.4023-33.223-18.266-2.9922-3.7773-5.668-8.0312-7.8711-12.754-5.0391-10.234-7.8711-22.355-7.8711-35.582v137.92h242.62c-5.9844-1.2578-10.078-5.0391-16.375-7.8711h0.10938c-3.3359-2.1562-6.5039-4.832-9.5547-7.8711-11.652-12.281-19.051-30.543-19.051-51.012 0-36.211 23.301-65.652 52.27-66.598 0.47266-0.15625 1.1016-0.15625 1.5742-0.15625h13.227c0-0.47266 0-0.78906 0.15625-1.2578l4.4102-23.145c1.5742-8.3438 6.1406-15.43 13.066-20.152 4.8789-3.1484 10.234-5.0391 15.742-5.3516l6.9258-37 1.418-7.8711-46.758-0.003906zm-188.93 181.06h47.23c4.4102 0 7.8711 3.4648 7.8711 7.8711 0.003907 4.4102-3.4609 7.8711-7.8672 7.8711h-47.234c-4.4102 0-7.8711-3.4648-7.8711-7.8711s3.4648-7.8711 7.8711-7.8711zm188.93-141.7h-15.742c-4.4102 0-7.8711-3.4648-7.8711-7.8711 0-4.4102 3.4648-7.8711 7.8711-7.8711h15.742c4.4102 0 7.8711 3.4648 7.8711 7.8711s-3.4609 7.8711-7.8711 7.8711z"/>
  <path d="m497.14 376.38 13.066-68.961v-0.15625c0.78906-4.25-2.0469-8.3438-6.2969-9.1328-1.1016-0.15625-2.0469-0.15625-2.9922 0.15625-3.1484 0.47266-5.8242 2.832-6.2969 6.1406l-13.539 71.949-1.418 7.875-1.418 7.8711h16.059z"/>
  <path d="m620.41 392.12h-126.11l-1.418 7.875-7.5586 39.832c5.0391 2.3633 9.4453 5.9844 12.594 10.707 4.8789 6.9258 6.6133 15.273 5.0391 23.617l-2.3633 12.754h42.352c7.5586 0 15.273 1.8906 22.199 5.8242 19.207 10.863 31.645 34.793 31.645 60.93 0 19.836-7.2422 38.414-19.051 51.012-2.832 2.9922-6.1406 5.8242-9.6055 7.8711-0.94531 0.78906-1.8906 1.418-2.9922 2.0469-7.0742 3.7734-14.633 5.8203-22.191 5.8203h85.332l0.003906-220.41v-7.8711zm-47.23 86.594h-15.742c-4.4102 0-7.8711-3.4648-7.8711-7.8711 0-4.4102 3.4648-7.8711 7.8711-7.8711h15.742c4.4102 0 7.8711 3.4648 7.8711 7.8711s-3.4648 7.8711-7.8711 7.8711zm15.742-47.23h-62.977c-4.4102 0-7.8711-3.4648-7.8711-7.8711 0-4.4102 3.4648-7.8711 7.8711-7.8711h62.977c4.4102 0 7.8711 3.4648 7.8711 7.8711 0.003906 4.4062-3.4609 7.8711-7.8711 7.8711z"/>
  <path d="m541.7 320.8v63.449h15.742v-71.477h-15.742z"/>
  <path d="m415.74 320.8v63.449h15.746v-71.477h-15.746z"/>
 </g>
</svg>