<?xml version="1.0" encoding="UTF-8"?>
<!-- The Best Svg Icon site in the world: iconSvg.co, Visit us! https://iconsvg.co -->
<svg fill="#000000" width="800px" height="800px" version="1.1" viewBox="144 144 512 512" xmlns="http://www.w3.org/2000/svg">
 <g>
  <path d="m528.81 486-3.2422-0.75391c-0.27734-0.0625-0.55859-0.09375-0.83594-0.09375-1.7812 0-3.3008 1.2031-3.7031 2.9258-0.46875 2.0312 0.80469 4.0625 2.8359 4.5312l3.2109 0.74609c0.28125 0.066406 0.57422 0.10156 0.87109 0.10156 1.7578 0 3.2695-1.1992 3.6758-2.9141 0.23047-0.98438 0.0625-1.9961-0.46875-2.8555s-1.3633-1.4609-2.3438-1.6875z"/>
  <path d="m509.36 481.78c-0.25391-0.050781-0.50391-0.074219-0.75-0.074219-1.7852 0-3.332 1.2852-3.6797 3.0586-0.39844 2.0469 0.94141 4.0352 2.9883 4.4336l0.64062 0.12891c0.23828 0.046875 0.47656 0.070313 0.70703 0.070313 1.7383 0 3.1992-1.2656 3.5586-3.0742 0.39844-2.0078-1.0312-4.0547-3.4648-4.543z"/>
  <path d="m471.6 332.31c-2.543-16.387-16.98-28.746-33.578-28.746-16.602 0-31.035 12.359-33.578 28.746l-0.22656 1.4531h67.27z"/>
  <path d="m334.7 327.06-52.434 48.066h109.27z"/>
  <path d="m283.3 471.95v-52.219l-1.1992-0.058593-0.53516-0.054688c-0.32031-0.039062-0.64453-0.078125-0.98047-0.078125-17.242 0-31.273 14.031-31.273 31.273 0 8.8711 3.7969 17.363 10.422 23.293 9.4805-0.99609 16.746-1.6016 16.746-1.6016z"/>
  <path d="m599.61 480.36c-0.55469-0.85547-1.4102-1.4102-2.418-1.6133-17.281-3.2734-35.621-5.793-54.816-7.6094l-0.050781-0.046874s-1.5117-0.15234-3.8789-0.35156h-0.20312-0.050782c-4.1328-0.40234-10.68-0.95703-15.871-1.3594l-9.5742-0.40234 0.35156-0.35156c5.0898-4.9375 8.0117-11.738 8.0117-18.691 0-14.359-11.688-26.047-26.047-26.047-2.0664 0-4.1836 0.30078-6.6484 0.95703l-1.1094 0.30078 3.9805 25.594c0.30078 2.0664-1.1094 3.9805-3.1758 4.2812-0.20312 0.050781-0.35156 0.050781-0.55469 0.050781-1.9141 0-3.4766-1.3086-3.7266-3.1758l-17.074-110.59h-57.535l-19.496 126.91h-6.1953l-0.003906-85.547h-92.648v85.547l-7.5586 3.7266-23.578 2.168-9.4727 1.0078-2.1172 0.20312c-26.652 3.0742-43.48 6.0977-45.344 6.3984-0.95703 0.20312-1.8633 0.75391-2.418 1.6133-0.55469 0.80469-0.75391 1.8125-0.60547 2.8203 0.35547 1.7617 1.918 3.0703 3.7305 3.0703 0.20312 0 0.45312 0 0.75391-0.050781 1.8633-0.35156 16.375-2.9219 39.449-5.6914 1.2109-0.15234 24.789-2.6211 36.828-3.7266 13.656-1.1094 27.512-2.0195 41.215-2.6211l0.25391 2.5195c-3.4258 0.55469-6.6484 1.0586-9.6211 1.5117-1.0078 0.20313-1.8633 0.70703-2.4688 1.5625-0.60938 0.80469-0.80859 1.8125-0.66016 2.7695 0.30078 1.8633 1.8633 3.1758 3.7266 3.1758 0.20312 0 0.40234 0 0.60547-0.050781 21.965-3.5781 56.629-8.4141 97.336-11.082 29.07 1.5078 56.73 4.5312 82.273 8.9141 0.20312 0.050781 0.40234 0.050781 0.65625 0.050781 1.8125 0 3.375-1.3086 3.6758-3.125 0.35156-2.0664-1.0078-3.9805-3.0742-4.332l-4.7852-0.80469 0.20312-2.4688h0.70703l0.35156-0.10156h0.20312c8.9688 0.20312 17.836 0.55469 26.551 1.0586 0 0 16.777 1.2109 20.203 1.5625 20.152 1.7617 39.598 4.4336 57.887 7.9102 0.25 0.046875 0.5 0.046875 0.70312 0.046875 1.8125 0 3.375-1.2578 3.7266-3.0742 0.15234-1.0078-0.050782-1.9648-0.60156-2.8203zm-245.71-12.141h-7.5586v-24.688c0-2.418-1.0078-4.7852-2.6719-6.4492-1.7617-1.7617-4.082-2.6719-6.5-2.6719-5.0391 0-9.1211 4.082-9.1211 9.1211v24.688h-7.5586v-24.688c0-9.2188 7.457-16.676 16.676-16.676 4.4336 0 8.6133 1.7148 11.789 4.8359 3.125 3.125 4.9375 7.457 4.9375 11.84zm102.43-0.20312-7.5586 0.050781v-24.535c0-2.418-0.95703-4.7852-2.6719-6.4492-1.7148-1.7148-4.082-2.6719-6.5-2.6719-5.0391 0-9.1172 4.082-9.1172 9.1211v24.688h-7.5586v-24.688c0-9.2188 7.457-16.676 16.676-16.676 4.4844 0 8.6641 1.7148 11.84 4.8867 3.0742 3.0742 4.8867 7.4062 4.8867 11.789z"/>
  <path d="m299.39 483.48c-0.22266 0-0.44922 0.019531-0.66797 0.058593l-1.9297 0.34766c-0.99219 0.18359-1.8555 0.73828-2.4258 1.5703-0.57422 0.83203-0.78906 1.8359-0.60547 2.8281 0.32813 1.793 1.8906 3.0938 3.7109 3.0938 0.22656 0 0.45703-0.019531 0.69141-0.0625l1.9102-0.34375c0.99219-0.17969 1.8555-0.73438 2.4297-1.5664 0.57422-0.82812 0.79297-1.832 0.60938-2.8281-0.32031-1.7969-1.8906-3.0977-3.7227-3.0977z"/>
  <path d="m281.98 486.79c-0.25391 0-0.50781 0.027344-0.76172 0.082032-6.4023 1.2969-9.8789 2.1055-9.8906 2.1094-2.0312 0.46875-3.2969 2.5078-2.8242 4.5352 0.40234 1.7188 1.9102 2.9219 3.6758 2.9219 0.28906 0 0.58203-0.03125 0.85938-0.097656 0.042969-0.011719 3.4375-0.80078 9.6797-2.0664 0.98828-0.19922 1.8438-0.77344 2.3984-1.6172 0.55859-0.83984 0.75391-1.8477 0.55469-2.8359-0.35938-1.7539-1.9102-3.0312-3.6914-3.0312z"/>
 </g>
</svg>