<?xml version="1.0" encoding="UTF-8"?>
<!-- The Best Svg Icon site in the world: iconSvg.co, Visit us! https://iconsvg.co -->
<svg fill="#000000" width="800px" height="800px" version="1.1" viewBox="144 144 512 512" xmlns="http://www.w3.org/2000/svg">
 <g>
  <path d="m511.07 372.55c-7.1523 9.0469-15.098 17.441-23.738 25.082-1.0039 0.85156-2.5664 2.168-2.9219 0.66797-0.25391-1.0781-3.9141-0.56641-1.1562-3.9453 2.9961-3.668 6.7031-6.3086 9.832-9.6445l0.003906 0.003906c3.5-3.6406 5.9961-8.125 7.2461-13.02-2.5859 2.9961-5.1523 6.0117-7.7656 8.9883h0.003907c-1.3398 1.2188-2.5664 2.5586-3.6602 4.0039-1.9766 3.3828-4.8047 2.207-7.4688 1.668-0.46875-0.078125-0.83203-0.44531-0.89844-0.91406-0.070313-0.46875 0.17188-0.92969 0.59766-1.1367 5.4531-2.2656 7.5-7.6484 11.074-11.637v0.003906c2.5391-3.5352 5.8711-6.4219 9.7344-8.4258-3.0742 2.793 2.2109 4.0312 0.73828 6.6523-1.2148 2.3438-2.0742 4.8555-2.5547 7.4531 4.7773-6.4844 10.039-12.738 9.8125-21.508 0.09375-1.4336-0.45312-2.8359-1.4961-3.8281-1.0391-0.99219-2.4648-1.4688-3.8906-1.3086-3.4922 0.003907-6.9141 0.95312-9.9102 2.7422-2.9961 1.793-5.4531 4.3594-7.1094 7.4297-4.2227 7.832-11.922 12.953-17.816 19.523-1.3594 1.5156-1.9258 2.1953-0.23437 3.9609 6.3789 6.043 10.664 13.957 12.242 22.602 1.1367 7.4922 3.5039 14.816 4.3906 22.324 0.75 6.6953 0.82031 13.449 0.20312 20.156-0.55078 6.293-0.71484 12.621-1.6641 18.91-0.84766 5.6172-1.7734 11.199-2.957 16.754-1.8242 8.5742-1.8281 17.453-4.2578 25.938 0.003906 0.25781-0.019531 0.51562-0.066407 0.76953-0.9375 1.6445-0.55469 4.7422-2.5391 4.8594-2.2266 0.12891-0.72266-3.0938-2-4.3828v0.003906c-0.29688-0.52734-0.50391-1.1016-0.61719-1.6953-2.6641 3.0742-5.0469 6.3828-7.1094 9.8867-1.8359 2.1758-3.5039 4.4961-5.2383 6.7578-0.29297 0.75391-1.0977 1.1836-1.8867 1.0039-0.69141-0.42188-0.96094-1.293-0.63281-2.0312 0.30078-4.3633 0.6875-8.7188 1.0742-13.379-4.3398 1.9805-8.1367 4.9844-11.059 8.75-1.9141 2.0977-4.1172 3.9062-6.5469 5.375-0.88672 0.5-1.6875 1.625-2.668 0.73828v-0.003906c-0.57422-0.88672-0.61328-2.0156-0.10547-2.9414 1.8125-5.2695 4.5195-10.188 8.0039-14.535 0.14453-0.21484 0.27344-0.44531 1.0586-1.7305v0.003906c-5.8086 3.3672-12.434 5.0586-19.148 4.8906-2.8594 0.27734-3.8789 3.2422-3.3633 6.9141v0.003907c1.4609 5.1055 1.7539 10.477 0.84766 15.711-0.023437 1.125-0.62109 2.1562-1.5781 2.7422-0.96094 0.58594-2.1484 0.64063-3.1602 0.14844-2.9219-0.76172-5.9922-0.76953-8.918-0.023438-2.3438 0.51953-2.8125-0.18359-2.8516-2.125-0.11719-6.1289-2.125-11.988-2.5938-18.066 0.10938-0.71484-0.125-1.4414-0.63281-1.9609s-1.2266-0.76953-1.9453-0.67578c-9.3125 0.054687-18.52-1.9219-26.988-5.793 0.98047 5.7461 1.9023 11.145 2.9102 17.066 2.4727-3.5039 1.4023-7.4727 3.3047-10.746 3.7812 2.2148 1.3398 6.0039 2.8906 8.8828-0.21875-2.7188 3.2305-4.3828 1.6875-7.5117-0.34766-0.70703-0.52344-2.0586 0.12891-2.0469v0.003906c1.4961 0.125 2.9609 0.50781 4.3281 1.1328 0.75391 0.29688 0.51562 1.0352 0.089844 1.6289h0.003906c-1.5273 2.2109-1.8711 5.0312-0.91797 7.543 1.125 3.2227-0.75 6.0898-0.32031 9.1641-0.058594 0.95312-0.84375 1.6992-1.7969 1.7109-2.9609-1.1562-5.4961 0.92188-8.3359 0.77344-2.875-0.15234-4.2852-0.94141-4.0664-4.1172v0.003906c-0.074218-7.6289-0.60156-15.246-1.5742-22.809-1.1406-2.1758-3.3203-3.6133-5.7656-3.8164-8.5-2.2617-14.918-8.0898-22.238-12.352-2.4141-1.2656-4.6445-2.8594-6.6172-4.7383-0.84766 4.9023 0.39062 9.9414 3.4219 13.891 2.9766 4.8516 5.0547 10.199 6.1445 15.785 0.44531 1.1992 0.17188 2.5469-0.70312 3.4805-1.375 0.61328-2.9883 0.18359-3.875-1.0273-1.832-1.9766-3.5273-4.0742-5.8711-6.8164h-0.003906c-0.042969 1.5352 0.089844 3.0703 0.40234 4.5742 0.48828 1.3477 0.94141 2.6211-0.42188 3.4453-1.1367 0.30469-2.3438-0.097657-3.0664-1.0273-5.4844-4.1797-9.7461-9.7578-12.336-16.148-2.4336-3.793-4.4414-7.8438-5.9844-12.082-0.79688 0.65625-1.1445 1.7148-0.89062 2.7188-0.48438 1.7344-0.52344 3.6016-3.1484 3.6758h-0.003906c-0.95312 0.13281-1.918-0.14062-2.6602-0.75781-0.74219-0.61328-1.1914-1.5078-1.2422-2.4727-2.7617-10.348-5.1523-20.785-7.7695-31.156-2.2695-9.0625-3.3516-18.383-3.2227-27.727-0.30469-11.977 1.5391-23.906 5.4531-35.23 2.1953-4.8086 5.3789-9.1016 9.3438-12.602 0.9375-0.95312 2.7539-1.5469 2.0039-3.3203-0.80078-1.8867-2.1719-0.21484-3.2773-0.21094-5.168 0.011718-10.324-0.44531-15.41-1.3672-9.7227-1.1367-19.336-3.0781-28.734-5.8086-10.078-3.6758-19.258-9.4609-26.926-16.965-4.0039-3.8398-2.7773-8.7539 1.5977-12.324h0.003906c4.9258-4.125 10.941-6.7344 17.324-7.5195-0.36328-1.2383-1.2891-2.2383-2.5-2.6914-5.4258-4.5-9.3125-10.582-11.117-17.395-0.55078-1.6836-1.2461-3.3828-1.668-5.0312v-0.003906c-1.0156-2.4297-0.10938-5.2422 2.1367-6.6211 5.1094-3.2695 10.035-6.5508 17.098-3.6172h-0.003906c-3.3164-6.4844-4.7812-13.762-4.2305-21.023 0.91406-4.6758 3.7539-8.7539 7.8203-11.23 4.0703-2.4805 8.9922-3.1328 13.566-1.7969 1.6875 0.59766 3.4258 1.0547 5.6523 1.7305-2.2656-6.5977-2.3203-13.75-0.16016-20.383 0.10938-1.0312 0.52734-2.0039 1.1992-2.7969 3.7656-2.9805 6.7695-6.7344 10.312-9.9141 1.6758-1.3594 4.0312-1.4883 5.8477-0.32812 2.1602 1.1211 4.2773 2.3164 6.6875 3.625 0.72656-3.7188 1.4766-7.4297 2.168-11.156v0.003906c1.543-6.1523 4.6797-11.789 9.1016-16.336 1.0469-1.1289 2.5703-1.6953 4.1016-1.5273 1.5312 0.16406 2.8945 1.0469 3.6758 2.375 4.1484 3.7227 7.6094 8.1445 10.23 13.059 0.94531-6.6094 3.6328-12.848 7.7812-18.078 0.078125-0.10156 0.10938-0.23828 0.19141-0.33984 6.9805-6.6211 16.766-9.3984 26.188-7.4258 3.5156 1.7188 6.2148 4.75 7.5195 8.4414 0.85937 1.7227 1.5898 3.5117 2.6172 5.7969 1.5117-4.0312 2.5234-7.7578 3.9492-11.332 4.4609-11.191 14.891-15.621 27.309-12.086h-0.003907c0.49219 0.16406 1.0078 0.26562 1.5273 0.29297 6.9961 0.023438 9.0391 4.3789 10.238 10.477 1.2031 6.1016 1.082 12.32 2.5078 18.707 2.793-4.6328 3.9727-9.7461 6.918-14.027h0.003906c2.4062-4.7148 7.7695-7.1211 12.895-5.7852 0.51172 0.097656 1.0312 0.16406 1.5508 0.19531 10.168 0.51563 10.105 5.2227 11.066 12.648v-0.003906c0.28125 3.625 0.36719 7.2617 0.25781 10.895 2.6758-1.2734 3.9141-3.8789 6.3398-5.0859h0.003906c6.3828-1.8359 13.25-0.80078 18.809 2.8398 8.6992 6.1133 9.7266 14.746 9.6523 24.031-0.015624 2.1719 0.87891 2.7617 2.4922 1.8047 6.9766-4.1328 12.328 0.49609 17.75 3.4609v0.003906c2.8984 2.1406 4.5117 5.6133 4.2812 9.2109 0.46484 3.3438 0.33203 6.7461-0.39453 10.043-0.77734 2.7148 0.30859 4.0352 3.1953 2.4023 2.3555-1.1406 5.1562-0.84766 7.2188 0.75781 6.5977 2.8555 11.512 8.582 13.328 15.531 1.0273 4.3203 4.5 8.082 2.4844 13.012-0.27734 0.67578 0.35547 1.0156 0.87109 1.4766v0.003906c5.6836 5.6797 9.0742 13.262 9.5195 21.285 0.19531 4.3867-1.8828 8.5625-5.5039 11.047-2.875 2.9531-5.2773 6.3281-7.1289 10.012-0.82422 1.0938 0.25391 1.6797 0.94141 2.1406 2.7695 2.1055 5.7188 3.9648 8.8125 5.5586 3.2773 1.1328 5.3281 4.3906 4.9375 7.8359 0.28125 5.0391-0.44141 10.086-2.1172 14.852-1.5352 2.6094-1.207 5.9141 0.8125 8.1758 1.8594 5.1172 0.62891 10.852-3.1719 14.758-2.1875 1.25-4.543 2.1719-7 2.7344-3.1641 1.1914-6.6055 1.457-9.9141 0.76562-1.5-0.48828-3.1172-0.49219-4.6211-0.015625-9.8477 3.3516-19.379 1.0312-29.027-1.0586v-0.003906c-5.5078-1.9531-11.152-3.5078-16.883-4.6523-2.1758-0.44141-3.9766-1.957-4.7773-4.0273 1.4023 0.60156 2.8477 1.1133 4.3203 1.5234 1.0938 0.53906 2.418 0.19531 3.1094-0.80859 2.332-1.6289 5.3984-1.7656 7.8633-0.34766 5.0977 1.5039 10.422 2.0859 15.723 1.7188 4.2383-0.066406 8.5117 0.70703 12.641 0.91016 8.2852 1.0586 16.668-0.98828 23.531-5.7539 3.4336-2.7148 3.0977-4.6133 0.23438-7.9531-6.2266-7.2695-14.801-6.1445-22.852-7.0273-1.0859-0.1875-2.1406 0.46094-2.4688 1.5117-2.0273-0.039062-4.0508 0.14844-6.0352 0.55859 1.7266 3.0234 4.3828 3.5859 9.4453 2.2031-1.3477-0.73828-2.5508-1.7227-3.543-2.8984 2.1172 1.457 4.4883 2.5117 6.9883 3.1055 2.5938 0.53906 4.8086 2.2148 6.0391 4.5625 2.3086 2.1289 1.457 2.8867-1.2031 4.2227h-0.003906c-6.2656 2.6094-13.324 2.5508-19.547-0.16016-6.625-2.4375-13.965-1.9961-20.25 1.2188-0.71484 0.375-1.9688 1.6523-2.6641 0.28516-0.82031-1.6094 1.0586-1.9219 1.918-2.2227 3.1562-1.1055 6.4062-1.9492 9.6797-2.9062 0.039063-0.16797 0.042969-0.33984 0.003907-0.50781-0.53125-1.3594-3.5117-1.9414-2.2227-3.4141 1.2188-1.3906 2.5117 1.1367 3.6328 1.8828 6.418 3.7539 13.863 5.3672 21.262 4.6133-1.5391-0.6875-3.0391-1.4883-4.625-2.043-3.7812-1.5898-6.7695-4.625-8.293-8.4297-1.3008-1.418-2.9062-2.5273-4.6992-3.2344-0.62891-0.53516-1.8789-0.47266-1.6719-1.7812 0.28516-0.89063 1.0859-1.5117 2.0156-1.5703 1.0039-0.25391 2.0625-0.22266 3.0469 0.09375 8.7188 1.875 17.656 2.1328 26.453 3.6562h0.003906c3.8477 0.53125 7.6836-1.0586 10.027-4.1562 2.3398-3.1016 2.8242-7.2266 1.2578-10.785-0.0625-0.24219-0.19531-0.46484-0.37891-0.63672-5.793-3.6055-10.207-9.6719-17.887-9.9258h0.003906c-3.082 0.13281-6.0742 1.0664-8.6875 2.7109 6.25 3.7461 13.543 3.5898 19.27 7.4219v-0.003906c-4.0469-0.35938-8.0469-1.1562-11.922-2.3828l0.15234 0.13672v0.003907c-4.2305-2.3398-8.8633-3.8672-13.656-4.5039-0.90625-0.074219-2.043 0.09375-2.1211-1.1445-0.10547-1.6758 1.2422-1.1875 2.2266-1.2617 6.1953-1.0859 12.293-2.668 18.238-4.7266 6.5352-1.5625 10.148-7.8828 13.344-13.672v-0.003906c1.2344-1.9062 1.0234-4.4102-0.51562-6.0859-1.3008-1.7656-2.3984-3.6758-3.2695-5.6875-4.1719-3.9375-9.582-6.3125-15.305-6.7148-0.12891 0.027344-0.25 0.082032-0.35547 0.15625-3.1328 2.8281-7.5 3.3828-10.82 5.8711-3.2109 2.4062-6.4023 4.8555-9.7188 7.1094-1.2266 1.3477-3.2539 1.6055-4.7812 0.60938 4.8281-4.1523 9.957-7.9414 15.348-11.336 6.5117-3.7656 13.93-6.125 18.445-12.977h-0.003906c1.6836-1.8789 2.457-4.3984 2.1211-6.8984-0.33594-2.5-1.7539-4.7266-3.875-6.0938-1.7383-0.875-3.1445-2.2891-4.0156-4.0273-0.42969-1.332-1.4141-2.4102-2.6992-2.957-1.2891-0.54688-2.7461-0.51172-4.0039 0.10156-3.1602 0.75-6.4102 1.0391-9.6484 0.85938-1.4062-0.125-2.8125 0.15625-4.0625 0.80859-8.1914 5.6641-15.688 12.266-22.34 19.676-1.3203 0.89844-1.8945 2.5547-1.418 4.0781 2.1055 4.0391 2.5742 8.7344 1.3086 13.109-0.097656 0.80859-0.63672 1.7969 0.94141 2.3203 8.9375 2.9688 10.746 5.5781 10.871 14.742 0.011719 0.85938-0.62109 2.4297 1.3945 2.5469v0.003906c1.9297-0.22266 3.8477 0.45703 5.2109 1.8359 1.3633 1.3789 2.0195 3.3047 1.7773 5.2305 0.63672 6.0469 0.19141 12.156-1.3086 18.051zm-45.293-76.691c-0.074219-2.2227-1.043-4.3242-2.6875-5.8242-1.7461-2.1992-4.3984-3.4883-7.207-3.5039-2.8086-0.015625-5.4727 1.2422-7.2461 3.4219-0.44922 0.85938-1.5234 1.7656-0.54688 2.7539 0.82422 0.83594 1.6836-0.15234 2.4648-0.47266 5.9453-2.4141 11.32-2.457 15.297 3.5586-0.082031 4.6875 2.5547 8.9414 1.8203 14.285v0.003906c2.0273-4.7266 1.2969-10.188-1.8945-14.223zm-33.496-25.031c11.762 5.3008 11.91 15.219 10.199 26.066 0.82812-0.48047 1.5195-1.168 2.0078-1.9922 2.5508-6.5703 1.5039-13.992-2.7617-19.602-1.9961-3.2539-5.7578-4.9805-9.5234-4.3633-0.5625-1.4062-2.0664-2.1875-3.5352-1.8398-3.7656 0.32031-7.2891 1.9766-9.9375 4.6719-2.6445 2.6953-4.2383 6.25-4.4844 10.02 3.2539-3.8438 6.8203-7.4141 10.664-10.672 1.8711-2.0195 4.6797-2.8945 7.3711-2.2891zm-110.5 83.953c-0.85938-4.1367-2.3672-8.1094-4.4727-11.77-1.7695-3.3203-3.0469-6.8867-3.7852-10.578 6.3984 11.605 12.574 23.289 19.734 35.559 1.1289-2.2461 1.1016-4.8984-0.074218-7.1172-3.2734-9.2266-9.7305-16.648-13.969-25.297v-0.003906c-1.6602-3.0898-3.9727-5.7891-6.7734-7.9062-5.9062-4.9062-10.949-3.7227-12.5 3.0508h0.003906c-1.1602 4.2617-1.1602 8.7539-0.007812 13.016 2.7773 7.9258 6.8047 15.355 11.93 22.008 3.8281 5.3164 8.7891 9.7148 14.523 12.883-5.6094-9.4531-10.766-18.152-15.941-26.844-0.78125-1.3125-2.1172-2.5234-0.44531-4.0898 1.1719-0.15234 1.3789 0.62891 1.7969 1.5234v0.003906c2.3359 5.7031 5.2383 11.156 8.6641 16.281 2.582 3.3594 4.9258 6.8945 7.0117 10.582 2.2812 4.2344 2.043 4.3672 5.8359 0.70312 0.93359-0.90234 1.8281-1.8477 2.7695-2.7422 4.332-4.1328 4.332-4.1719-0.16797-8.1758-1.918 2.1055-4.7617 3.9922-2.0742 7.6289l-0.003907 0.003906c-4.8203-5.6875-8.8711-11.98-12.055-18.719zm168.2-62.496c0.71484 1.7031-1.5898 2.7344-1.1641 4.5742 4.3711-2.8164 7.1953-7.0195 11.215-9.875 0.67578-0.48047 1.1719-1.6953 2.1641-0.73828v0.003906c0.46875 0.66406 0.41406 1.5664-0.13672 2.168-0.48828 0.60156-0.89844 1.2617-1.2227 1.9648-0.91016 2.9883-3.8203 5.1562-3.1445 9.043l-0.003906 0.003907c0.73047-0.53516 1.3086-1.2422 1.6875-2.0625 5.5-7.6523 11.203-15.164 16.461-22.977h-0.003907c2.0078-2.4062 2.0391-5.8984 0.070313-8.3359-2.1055-3.293-6.1953-4.7031-9.8828-3.4141-1.3672 0.29297-2.6875 0.76172-3.9375 1.3906-2.8438 2.2734-6.3008-0.30859-9.1406 1.6719v0.003906c-6.5625 4.8203-12.293 10.684-16.961 17.355-5.1602 6.9609-8.3555 13.988-4.5 22.594 0.10547 0.23438 0.16406 0.48828 0.24609 0.73438 2.4727-0.67188 5.0781-0.67969 7.5508-0.015625 2.4727 0.66016 4.7266 1.9648 6.5312 3.7812 1.8867 2.1523 2.6406 1.8516 4.0664-0.56641 3.3047-5.6055 4.7031-12.086 8.3047-17.527-0.18359-0.25391-0.39063-0.48438-0.62109-0.69141-0.36328 0.33594-0.72266 0.66016-1.0742 0.99609-2.8242 2.6875-5.6641 5.3555-8.4648 8.0703-1.0703 1.0352-2.4531 2.2188-3.6602 1.1367-1.1367-1.0234 0.30859-2.375 1.0195-3.2969v-0.003906c1.1016-2.2969 2.6992-4.3203 4.6836-5.9219zm-91.793-39.395c-0.57812 2.7812-0.58594 5.6523-0.027344 8.4375 4.2344-12.891 4.9766-26.598 9.6094-39.461 2.3438 5.1914-0.64062 10.219-0.78125 15.332-0.79688 5.5586-0.94531 11.191-0.44531 16.785 3.7227-7.4102 2.8906-15.547 6.0469-22.746-0.29688 11.965-2.9258 23.984 2.2969 35.57-3.668-4.9922-3.3828-11.059-4.7461-16.824-2.207 2.5508-1.2617 6.5664-5.1328 7.8086-1.6445-6.168 0.99219-12.125-0.046874-19.262-1.6836 7.7695-3.0703 14.422-4.5898 21.039-0.43359 1.8867 0.21094 2.2852 1.9297 2.2109v-0.003906c2.6328-0.0625 5.0547 1.4258 6.1875 3.8047 2.043 3.2148 3.8672 6.5625 5.4648 10.023 2.1758-1.8359 3.4688-4.5156 3.5508-7.3633 0.9375-10.688 2.4375-21.32 4.4883-31.852 1.9141-8.6641 1.082-17.711-2.3906-25.879-1.3398-3.582-4.625-6.0742-8.4336-6.3984-4.793 2.2383-8.7539 5.9375-11.309 10.57-0.17188 0.33203-0.066406 0.73828 0.24219 0.94922 1.0469 1.1953 1.3633 2.8633 0.83203 4.3594-0.0625 2.3398-0.26953 4.6758-0.61719 6.9922 0.48047 2.1875 0.0625 4.4766-1.1602 6.3555-1.2969-4.6211 1.0312-9.2148-0.18359-14.152-2.2617 1.1562-4.2773 2.7422-5.9297 4.6719-4.2344 7.5469-6.6797 15.969-7.1484 24.613-0.035156 6.2383-0.4375 12.473-1.207 18.668 2.0781-1.5391 4.3672-2.7695 6.7969-3.6484 4.5664-0.41406 5.2383-3.5391 5.5039-7.2266 0.082031-1.125-1.1836-3.0273 1.2617-3.3477zm-93.727 54.762c-0.86328 0.86328-1.3711-0.023438-1.9453-0.42188-4.6367-3.2266-9.2656-6.457-13.895-9.6992h-0.003906c0.082031 1.0039 0.48437 1.9531 1.1523 2.7031 2.2383 2.6992 4.5312 5.3516 6.7773 8.0469 0.62891 0.75391 1.8906 1.5781 0.92969 2.6172-1.1328 1.2266-2.0586-0.16797-2.9062-0.79688-0.9375-0.69922-1.7539-1.5586-2.6406-2.3281-3.2266-2.793-6.457-5.582-9.6914-8.3633l-0.003906-0.003906c3.4844 6.5625 8.0781 12.469 13.574 17.465 0.64062 0.54297 1.3594 2.1797 2.3633 0.65625 2.1055-3.1797 4.5117-2.1367 7.4492-1.3828 2.582 0.66016 4.7969 2.2383 6.9336 2.6367h-0.003907c1.4492-4.7461 0.56641-9.8984-2.375-13.895-2.4883-3.6094-4.1133-7.7461-4.7461-12.086 1.1836 2.7109 2.6953 5.2656 4.5 7.6133-6.1094-13.129-7.5781-27.582-12.285-41.156 5.9961 10.172 9.0781 21.715 16.25 32.496v0.003906c-1.1602-5.3789-1.9883-10.824-2.4727-16.305 4.0938 5.3984 7.6719 11.176 10.676 17.25-3.0312-2.8672-5.6641-6.1289-7.832-9.6953 0.34375 4.8906 1.4609 9.6914 3.3047 14.23 0.17188 1.1562 0.91406 2.1484 1.9766 2.6367s2.3008 0.40234 3.2891-0.22266c4.6484-2.3828 10.305-1.4844 13.988 2.2227 1.5234 1.3906 2.4414 0.91016 2.5312-0.81641 0.34766-6.6602 4.5664-11.66 7.293-17.277 0.82812-1.3711 0.94922-3.0586 0.32812-4.5352-2.793-7.625-6.4453-14.898-8.9883-22.629-1.2109-3.8242-3.2617-7.3281-6-10.258-0.36328 3.6289 0.050781 7.2969 1.2031 10.762 2.3164 8.582 4.6758 17.152 6.8945 25.758 0.28516 1.1016 0.96094 2.9102-0.67969 3.4102-1.6445 0.5-1.9414-1.1211-2.332-2.4141-3.0508-10.133-6.3477-20.195-8.4531-30.594-0.050782-1.4492-0.76172-2.793-1.9297-3.6484 1.1094 12.895 3.625 25.629 7.5039 37.977-5.5234-12.629-11.676-24.82-18.449-37.738 0.011718 2.6289 0.85156 5.1836 2.3945 7.3125 0.38672 1.207 1.1367 3.2305-0.082031 3.2773-3.0391 0.11328-1.2812 1.3711-0.98828 2.4492 1.8008 6.668 6.3945 12.055 8.4922 18.613l-0.003906-0.003907c0.71094 2.625 1.9297 5.0859 3.5898 7.2422 0.88672 1.0586 1.8867 2.5195 0.11328 3.668-1.6719 1.0859-2.6211-0.38672-3.5352-1.4336-0.48047-0.60938-0.85547-1.3008-1.1055-2.0352-2.7891-7.1875-5.7305-14.32-8.2539-21.602-1.2539-5.0391-4.5547-9.3242-9.1016-11.828-2.4141-1.4727-5.3594-1.7852-8.0234-0.84766-2.6641 0.94141-4.7656 3.0273-5.7227 5.6875-1.8672 5.9688-2.0898 12.332-0.64844 18.418 0.0625 2.168 0.69141 4.2812 1.8203 6.1328 6.3242 8.3281 10.609 17.879 16.129 26.688 0.44531 0.71484 1.7539 1.7695 0.36719 2.6406-1.1211 0.70312-1.8867-0.48828-2.5938-1.1953-0.88672-2.1133-2.3203-3.957-4.1562-5.332-0.37109-2.3047-1.2461-4.5039-2.5625-6.4336-3.5898-4.375-6.543-9.2383-8.7695-14.438-0.21875-0.47656-0.56641-0.875-1-1.1641-5.668-4.7031-20.309-2.7812-24.715 3.25h-0.003906c-0.32031 0.39453-0.53125 0.85938-0.61719 1.3594-0.71484 5.3672 0.30469 10.82 2.9102 15.566 2.9219 5.1055 8.4883 6.8125 11.863 11.289v-0.003906c2.8789 2.7969 6.1562 5.1523 9.7227 6.9961 0.92188 0.64453 2.0352 1.9609 2.6367 0.11719 0.51562-1.582 3.3867-3 1.1328-4.8906-1.8711-1.5703-3.4258-3.4336-5.4336-4.918-5.6406-4.1602-10.973-8.7383-16.355-13.242-0.57812-0.48438-2.3594-1.0898-0.96484-2.2852 0.94531-0.80859 1.5117 0.61328 2.0703 1.1523h-0.003906c3.3711 3.3711 7.1602 6.3008 11.273 8.707-1.6562-2.9688-3.5703-5.6758-5.3516-8.4688-0.92188-1.4453-3.0273-3.3281-1.2891-4.6836 1.6602-1.2969 3.0469 1.2148 4.3594 2.3281 1.7031 1.4453 3.2852 3.0352 5.668 5.2617h-0.003906c-0.98438-2.3438-2.3398-4.5078-4.0234-6.4102-0.5-0.92188-1.8008-1.9922-0.78906-3.0078 1.0039-0.72266 2.3945-0.55859 3.1992 0.38281 5.9766 4.1133 11.676 8.6133 17.07 13.465zm32.289 23.004 0.015625 0.003906c-3.3633-0.71875-2.6055-4.8633-5.5312-6.418 0.085937 1.6953 0.33203 3.375 0.73828 5.0234 4.0156 11.418 9.5859 22.18 14.258 33.32 0.625 1.4883 1.1172 2.2188 2.6055 0.67187 1.543-1.5703 3.2148-3.0117 5-4.3086 8.3984-6.9375 17.559-12.902 27.301-17.777 0.63672-0.1875 1.1641-0.63672 1.4453-1.2383 0.28125-0.59766 0.29688-1.293 0.035157-1.9023-1.1758-3.3867-0.58594-6.9688-1.5586-10.438-2.6016-9.2773-1.7852-19-3.0742-28.488v0.003906c-0.76172-6.3398-4.3672-11.984-9.8008-15.34-2.043-1.9141-4.8359-2.8008-7.6094-2.4219-2.7695 0.37891-5.2227 1.9883-6.6758 4.3828-2.7812 3.582-4.9023 7.625-6.2773 11.945-2.8203 7.4844-1.7266 15.879 2.9141 22.391 5.3359 8.1875 9.4883 17.09 12.336 26.438 0.28125 0.43359 0.37109 0.96484 0.25 1.4688-0.125 0.50391-0.44922 0.93359-0.89844 1.1875-0.98438 0.48438-2.1719 0.12891-2.7305-0.8125-1.4883-1.7969-2.5547-3.9062-3.1172-6.1719-3.5-10.188-7.9688-20.02-13.348-29.359-2.7617-3.6562-6.8008-6.1445-11.309-6.9688-1.9336-0.26172-3.8633 0.50391-5.0898 2.0156-3.8516 2.5977-6.6211 6.5195-7.7773 11.02s-0.625 9.2695 1.4961 13.402c7.3789 10.746 14.141 21.902 20.246 33.418 0.5 1.1133 0.69922 3.0625 2.3008 2.0898v0.003906c0.88672-0.26562 1.6133-0.91016 1.9844-1.7578 0.37109-0.84766 0.35156-1.8164-0.054687-2.6523-5.5117-11.055-9.0977-22.965-15.016-33.867v0.003907c-2.3477-2.9141-3.7344-6.4883-3.9688-10.223 1.9922 1.9922 1.6445 4.7695 3.875 6.25-0.019532-0.41797-0.074219-0.83594-0.16016-1.2461-0.37109-1.1133-0.95313-2.4727 0.29297-3.1367 1.5312-0.81641 1.7734 1.0664 2.543 1.7812h-0.003906c1.8047 2.3555 3.2734 4.9492 4.3633 7.707zm111.06 42.867c-0.30859 1.5234-1.0742 2.9141-2.1992 3.9844-1.125 1.0469-1.668 3.3906-3.8789 1.8672-1.9766-1.3594-2.9336-0.089844-4.1836 1.1289h-0.003906c-1.7617 2.1875-4.0742 3.8711-6.7031 4.8672s-5.4727 1.2734-8.2461 0.80078c3.7578 5.5703 4.4688 12.648 1.9023 18.855-0.13672 1.125-0.84766 2.1016-1.8789 2.5781-1.0273 0.48047-2.2305 0.39062-3.1797-0.23047-1.0195-0.49219-2.1133-0.83203-3.5898-1.3984v-0.003906c0.49609 4.3086-0.5 8.6523-2.832 12.309-0.078125 0.98047-0.57031 1.8828-1.3516 2.4805-0.78516 0.59375-1.7852 0.82812-2.75 0.64062-1.9727-0.49609-3.2266-2.4258-2.8828-4.4297-0.16406-3.9766-1.0352-7.8945-2.5742-11.562-1.2773-2.9102-2.8398-2.3711-4.125-0.17969-1.5 2.5547-2.6562 5.3086-3.9961 7.9609-0.44531 0.88281-0.71094 2.2578-2.0039 2-1.1484-0.30859-2.0234-1.2422-2.2578-2.4102-1.1641-4.8047-1.3594-9.793-0.57812-14.676 0.28906-1.9688 0.30078-3.9688 0.039062-5.9414-1.6367 0.17969-1.2422 1.457-1.75 2.125-2.2383 2.1602-5.5156 2.8477-8.4336 1.7734-1.3672-0.62891-2.2891-1.9414-2.4258-3.4375-0.13281-1.5 0.54297-2.9531 1.7734-3.8164 5.4297-6.1133 6.4453-13.875 9.0547-21.066 0.78906-2.0781 0.88281-4.3555 0.26953-6.4922-1.9258-6.4062-3.0039-13.035-3.2109-19.719-5.2305 1.6523-10.152 4.1602-14.562 7.4219-2.918 1.6836-5.1484 4.3516-6.2891 7.5234-2.6641 6.2031-0.30859 10.184 6.4219 10.332l0.003907-0.003906c0.57812 0.17969 1.1094 0.48047 1.5625 0.88281-6.7227 6.4453-5.9219 8.7148 5.8047 16.434-1.668-0.26172-3.0078-0.37891-4.3008-0.69141h-0.003906c-3.0977-1.0391-5.7656-3.082-7.5781-5.8047-0.85156-2.0352-0.60156-4.3633 0.66797-6.168 0.50781-0.97266 0.1875-2.1758-0.73828-2.7656-5.6875-3.1523-5.8867-7.9141-3.3711-13.785-5.0234 3.7305-9.5352 6.9805-13.941 10.371v-0.003906c-11.035 7.4883-20.469 17.105-27.738 28.289-6.4453 9.7461-9.6797 21.266-9.2539 32.941 0.54688 10.949 3.0117 21.723 7.2812 31.82 2.5625 5.0586 5.4492 9.9453 8.6367 14.637 5.3984 8.6602 12.633 16.027 21.191 21.582 7.4766 5.2344 15.555 9.543 24.066 12.84 6.2539 2.7344 12.789 4.7695 19.488 6.0664 4.4766 0.54688 8.9336 0.31641 13.367 0.62891h-0.003906c6.5898 0.53906 13.223-0.13672 19.566-1.9961 2.1914-0.80078 4.5078-1.207 6.8398-1.1953 4.6406-0.015625 9.1719-1.3828 13.047-3.9336 3.8867-2.0859 6.6602-5.4922 10.566-7.4844h-0.003907c3.4922-2.2812 6.2734-5.4922 8.0352-9.2734 3.9375-6.4219 5.9844-13.715 9.3555-20.348v0.003906c4.3359-8.9414 6.5117-18.777 6.3477-28.715 0.52344-11.363-1.5508-22.695-6.0586-33.141-2.1992-4.6211-3.7617-9.5977-6.3125-14.051-3.5859-6.2617-8.8438-11.363-12.531-17.621-3.2266-5.4766-4.4883-5.6367-7.7109-2.6641h0.003907c0.93359-2.2422 0.76953-4.793-0.44531-6.8984-4.0391-5.0117-8.4531-9.7109-13.207-14.059-2.9141-3.2305-6.5-5.7852-10.508-7.4805-4.2383-1.25-5.1953-0.98047-5.3203 3.3867v-0.003906c-0.12891 4.1406-0.55859 8.2695-1.2812 12.348-0.57812 1.8438-0.47266 3.8359 0.30078 5.6094 3.0547 1.8945 1.7969 4.6016 2.1016 6.9258v0.003907c0.32812 2.7031 0.92188 5.3672 1.7695 7.9531 0.26172 1.0039 1.0117 1.8047 1.9922 2.1367 6.1055 1.8672 12.629-1.2031 15.082-7.1016 0.75391-2.75 1.7812-2.5234 2.8516-0.58594 1.625 2.9414 3.082 1.3398 4.5078 0.078125l-0.003907 0.003906c0.51563-1.0234 1.3125-1.875 2.3008-2.4531zm33.332-37.645v0.003906c3.457-5.1758 5.6367-11.098 6.3672-17.273-0.31641-2.7148-1.75-5.1758-3.9531-6.7891-2.207-1.6133-4.9844-2.2344-7.6641-1.7109-5.8672 1.8164-10.75 5.9258-13.543 11.395-4.3398 9.3125-8.8633 18.539-14.059 27.426-0.89844 1.5391-1.8867 2.7773-3.5352 1.8516v0.003906c-0.33984-1.2578-0.19531-2.5938 0.40234-3.7461 2.5625-6.0195 5.5508-11.844 8.9492-17.434 1.375-1.75 2.0508-3.9492 1.8906-6.168-0.10547-0.85156-2.5781-1.3438-0.20703-2.5781 1.8594-0.96875 1.457 1.2109 2.5078 1.5391h0.003906c0.55469-1 1.2148-1.9453 1.9688-2.8086 7.0547-6.6602 6.1367-14.391 3.0547-22.383-0.79688-3.0586-3.8555-4.9453-6.9453-4.293-7.1914 0.59766-13.555 4.8867-16.805 11.332-4.2734 9.0898-8.4922 18.203-12.84 27.258h-0.003906c-0.17969 1.25-1.043 2.293-2.2344 2.7109-0.22266-1.0781 0.039062-2.1992 0.71094-3.0703 4.3242-9.5859 8.9102-19.059 13.008-28.738 3.5039-8.2734 5.7227-16.734-0.78125-24.824-2.207-2.7461-7.5703-5.375-9.3398-4.1133v-0.003906c-6.2812 4.1523-11.422 9.8125-14.957 16.461-1.4727 4.4023-2.1328 9.0391-1.9492 13.68-0.37891 3.3359-0.69141 6.6758-1.2891 9.9805 0.003906 0.32812-0.12891 0.64453-0.36328 0.875-0.23438 0.23047-0.55469 0.35547-0.88281 0.34766-0.85156-0.042969-0.96875-0.66797-0.94531-1.375 0.14844-4.293-0.023437-8.6211 0.5-12.867 0.79297-7.2891 0.60547-14.648-0.55469-21.887-0.72266-5.0273-4.7461-6.375-8.6133-7.918h0.003907c-3.4883-1.625-7.6367-0.50781-9.8359 2.6445-3.1367 3.7812-5.957 7.8125-8.4336 12.055-1.6016 2.7344-1.8438 6.0586-0.64844 8.9961 2.7227 7.4844 3.9648 15.426 3.6562 23.387 0.085938 6.8867 0.70312 13.762 1.8477 20.555 0.82422-3.3281 0.55469-6.7461 1.5703-10 1.1758-1.8164 1.8125-3.9297 1.8438-6.0898-1.8945-9.7305-2.7227-19.637-2.4688-29.547-0.73828-2.4688-0.18359-5.1445 1.4766-7.1172l0.37891 21.5 0.95703 0.046875c0.11719-7.1484 3.4531-13.703 3.4219-20.895-0.003906-0.84375-0.66406-2.4219 1.0742-2.3477 1.5 0.0625 1.125 1.4648 1.1484 2.4531 0.03125 1.4297-0.015625 2.8633 0.039062 4.293 0.24609 6.5703 0.51953 13.145 0.8125 19.715h-0.003906c0.24609 0.26562 0.55469 0.46875 0.89453 0.59766 0.97266-4.0039 1.6914-8.0625 2.1523-12.156 0.40625 5.1484 0.027344 10.328-1.1211 15.359-0.074219 0.95312-0.53516 1.9375 0.74219 2.0625h0.003906c2.0039 0.38281 4.0664 0.38672 6.0742 0.011718 1.7148-0.63281 3.6445-0.19531 4.9141 1.1211 5.2461 4.7461 8.5273 11.285 9.2031 18.328-0.1875 1.7109 0.31641 3.4258 1.3984 4.7617 1.082 1.3359 2.6562 2.1836 4.3672 2.3555 2.2852 0.46094 4.3867 1.582 6.043 3.2266 9.3555 7.7461 16.883 17.344 25.961 25.383 3.6523 3.2344 6.6133 7.2344 10.32 10.23 1.6328-2.3516 3.2734-4.6602 4.8359-7.0195 0.38672-0.58594 1.707-1.8125 0.007812-1.9414-4.2656-0.32031-1.8242-2.1562-0.95312-3.5469 2.832-4.5234 5.7422-8.9961 8.6211-13.492v0.003906c-1.5273 0.89453-2.8516 2.0938-3.8984 3.5195-2.9414 3.4688-6.1328 6.7344-9.3516 9.9609-0.55078 0.55078-1.6211 1.5938-2.6289 0.35938-0.81641-1.0039 0.070312-1.6836 0.61719-2.3555l0.003907-0.003907c0.92969-0.76172 1.5273-1.8594 1.6602-3.0547-2.7344-0.47656-3.0195 2.8672-5.668 3.0312 0.050781-3.9414 1.2695-7.7812 3.5039-11.031 3.6055-5.9648 7.8789-11.496 12.738-16.492 2.2188-2.3789 3.543-5.457 3.75-8.7031-2.8281 3.1406-5.5547 4.918-7.6562 7.6484-3.0938 4.0156-5.8828 8.2031-8.7031 12.395-0.75391 1.1211-1.9727 2.6719-3.4727 1.6992-1.2773-0.82812-0.27344-2.332 0.20312-3.5234v-0.003906c3.043-6.2852 6.5-12.363 10.348-18.195 0.19531-0.44141 0.36328-0.89453 0.5-1.3594l-3.0898 1.6602c2.2305-4.1523 5.4961-7.6562 9.4844-10.172-4.0742 8.8164-10.523 16.301-14.234 26.152h-0.003907c1.5898-1.4922 3.0469-3.1211 4.3594-4.8633 2.9023-4.0859 6.2227-7.8594 9.9102-11.254 1.0078-0.91016 2.3789-2.6992 3.9648-1.4453 1.2344 0.97656-0.34766 2.3398-0.59766 3.5391-0.40625 0.85156-0.38281 1.8477 0.058594 2.6797zm-105.37-55.266c1.3672-4.4648 3.832-8.5156 7.168-11.789 0.66406-0.42969 0.90625-1.2891 0.56641-2.0039-1.3828-5.3867-1.4375-11.027-0.16406-16.441 2.1133-10.609 0.38672-21.625-4.8711-31.082-1.8242-3.1641-5.1055-5.2148-8.75-5.457-3.6484-0.24219-7.1719 1.3516-9.3984 4.25-4.1758 6.5469-7.1484 13.793-8.7734 21.387-2.3867 9.8359-1.7891 20.164 1.7266 29.66 0.29297 0.875 0.49219 1.4102-0.3125 1.8672-0.29297 0.17188-0.64844 0.17969-0.94531 0.019532-0.29688-0.16016-0.48828-0.46484-0.50391-0.80078-1.875-4.5078-3.2305-9.2109-4.043-14.027-0.12109-4.5664 0.56641-10.566-6.1133-12.359-0.48047-0.21484-0.82031-0.65234-0.91406-1.168-0.20703-4.6133-4.0664-6.4258-6.875-8.9883-6.3438-5.7734-6.3242-5.6875-11.566 0.98437-2.3789 2.375-3.9258 5.457-4.4141 8.7852-0.48828 3.3281 0.10937 6.7227 1.7031 9.6836 2.6094 4.8867 4.6953 10.055 7.3516 14.914 0.015625 1.6836 0.88672 3.25 2.3086 4.1562-1.7344-9.8125-4.8906-19.195-4.1758-29.359 3.5859 0.66406 3.0234 3.9688 4.3672 6.1055 0.36719-0.40234 0.67969-0.85547 0.92578-1.3398 0.45312-1.375-0.65625-3.6758 1.4062-3.9844v-0.003906c1.7148 0.26953 3.0703 1.5898 3.375 3.2969 3 5.5703 5.5117 11.387 7.5117 17.387 1.7266 5.3086 4.4805 10.254 6.0312 16.176 2.8984-2.6094 5.3477-4.7109 7.6758-6.9336h-0.003906c1.9492-2.3359 4.9102-3.5781 7.9414-3.3281 3.0312 0.24609 5.75 1.957 7.293 4.5781 1.1094 2.2031 2.625 4.1797 4.4727 5.8164zm-104.91 74c10.66 9.3477 24.777 11.34 36.125 19.066-12.262-4.4258-24.848-7.5156-37.262-11.211l-0.39453 1.1094 40.363 15.824c-14.105-3.7852-28.07-7.8789-42.223-11.426 4.2656 3.75 9.3984 6.375 14.93 7.6406 9.7422 2.3164 19.355 5.1445 28.797 8.4805 5.9258 2.0234 10.523 2.3906 15-2.1289 0.074219-0.23828 0.097657-0.49219 0.070313-0.73828-0.41016-0.22656-0.86719-0.34375-1.3359-0.35156-2.5703 2.5234-4.3477 0.90625-6.2188-1.0039v-0.003906c-6.3086-6.3555-11.465-13.762-15.242-21.883-3.2148-9.1211-9.9336-16.59-18.668-20.746-2.0195-1.2109-4.1992-2.1367-6.4727-2.75 9.8711 7.4375 13.41 11.539 13.328 15.703-9.4648-5.2695-18.742-10.434-28.023-15.602 8.7383 3.4766 17.16 7.6953 25.176 12.613-1.082-2.4414-2.7266-4.5938-4.8047-6.2773-4.7266-4.6797-10.57-7.9336-15.633-12.18-0.58594-0.49219-1.9375-0.78516-1.3242-1.9453 0.77734-1.4648 1.7617-0.39063 2.6094 0.070312 2.7656 1.5 5.5156 3.0273 8.8516 4.8672-2.5469-4.5469-7.0156-5.9766-9.5469-9.5703 8.0039 3.4531 15.621 7.7344 22.727 12.781-3.1602-0.6875-6.1953-1.8711-8.9883-3.5078 3.6836 3.4961 7.6641 6.668 11.898 9.4805-0.76953-3.0195-1.3359-6.0898-1.6953-9.1875-0.003906-1.7656-0.82812-3.4258-2.2305-4.5-6.5859-5.4688-14.367-9.3125-22.711-11.219-4.168-0.6875-8.4219 0.59375-11.52 3.4648-0.76953 0.53906-1.1133 1.5039-0.86328 2.4062 0.48828 5.5703 2.6406 10.859 6.1758 15.188 3.5391 4.3281 8.2969 7.4883 13.656 9.0742 8.6758 2.4219 16.824 6.4336 24.031 11.832 1.0391 0.80078 3.2109 1.1016 2.0469 2.9375-1.0117 1.5898-2.582 0.15234-3.8359-0.29688v-0.003906c-8.0547-3.6562-16.297-6.8828-24.695-9.6602-5.9883-1.543-12.168-2.2188-18.348-2.0078-1.3984-0.17969-2.7539 0.54297-3.3789 1.8047-0.625 1.2617-0.38281 2.7773 0.60547 3.7812 2.2188 2.8555 4.5898 5.5898 7.1055 8.1875 0.41797 0.49219 1.0312 0.77734 1.6758 0.78125 0.76172-0.32422 1.1211-1.1953 0.8125-1.9609-0.94531-2.9375 1.1328-2.6641 2.7617-2.543h-0.003906c1.2695 0.19531 2.5156 0.52734 3.7109 0.99219 4.5312 1.4023 9.0625 2.8125 13.586 4.2344-4.5-3.5-9.7812-5.4648-13.984-9.1797-0.83203-0.73438-2.5391-1.2344-1.8477-2.582 0.79297-1.5547 2.1133-0.5 3.3203-0.007812 12.004 4.9023 23.891 10.051 35.516 15.793l-0.41797 1.0547zm207.22-97.82c-5.3438 6.6211-9.8398 13.887-13.375 21.625-0.65625 1.582-1.8711 3.6211-3.3398 3.0391-1.4102-1.1602-1.8711-3.1211-1.1211-4.7852 0.19531-0.47656 0.34766-0.97266 0.56641-1.4375 4.1406-8.7305 8.25-17.48 12.492-26.16 0.46875-0.96094 0.90625-3.0508 2.4375-2.3008 2.0195 0.98828 0.39453 2.3477-0.34766 3.4961l-0.003906-0.003906c-3.6953 6.5859-6.8789 13.445-9.5195 20.523 0.89062-0.34766 1.6094-1.0352 1.9922-1.9102 3.3008-6.3047 7.3477-12.188 12.047-17.531 0.64062-0.62109 1.0703-2.0859 2.2695-1.4023 1.4336 0.82031 0.54297 2.0977 0.046875 3.0938-2.25 4.4961-4.5039 8.9961-6.8711 13.43v0.003906c-2.5898 3.7578-4.1875 8.1094-4.6445 12.652 0.41406-0.48047 0.76953-0.85156 1.0742-1.2578 4.3438-5.7852 6.5352-13.438 14.184-16.367v-0.003906c0.17188-0.18359 0.28906-0.41016 0.35156-0.65234 2.2305-3.6406 4.0859-7.5 5.5352-11.516 1.0938-3.6875 0.19141-7.6719-2.3789-10.531-2.2734-2.3086-5.8203-2.8047-8.6406-1.207-11.613 5.2734-21.367 13.918-28 24.809-2.8047 4.1133-2.082 10.012-6.9883 12.891-0.63281 0.37109-0.20703 1.0664 0.039062 1.3672v-0.003906c1.4414 2.7227 2.1172 5.7812 1.9531 8.8555 6.5703-4.6133 14.188-2.0977 20.457 6.8633 3.9727-9.0586 9.7344-16.859 14.719-25.816h0.003906c-1.5898 0.16016-2.9844 1.1172-3.6992 2.543-2.1562 3.5352-4.3633 7.0391-6.4688 10.602-0.97266 1.6445-2.1484 3.5547-4.1328 2.6055-1.9766-0.94141-0.63281-2.9688-0.082032-4.418 2.7305-7.1875 6.0508-14.109 9.4453-21.094zm-33.473 17.297v-0.003906c0.76953-0.38672 1.2852-1.1445 1.3633-2.0039 2.1367-9.6406 5.7422-18.863 8.3633-28.379 2.1953-8.4609 1.9414-17.371-0.73438-25.691-1.0742-3.8398-2.7656-4.5469-6.1484-2.3477-2.082 1.3125-4.0781 2.7617-5.9766 4.3281-5.3516 4.5625-10.723 9.1602-10.977 17.027-0.054688 1.6836-0.070313 3.3711-0.16797 5.0508 0.058594 0.32813-0.035156 0.66406-0.26172 0.90625-0.22266 0.24609-0.54688 0.375-0.87891 0.34375-0.92578-0.085937-0.91797-0.76953-0.75391-1.4336 0.43359-1.5039 0.41797-3.0977-0.039063-4.5938-0.37891 0.10938-0.73438 0.29688-1.0352 0.55469-5.9258 9.0977-6.1016 19.656-7.4062 29.895-0.29688 2.3359 1.4922 1.5312 2.5703 0.74219 2.332-1.7734 5.3438-2.375 8.1758-1.6367 5.3945 0.53125 10.375 3.125 13.906 7.2383zm-42.398 65.754c-2.4258 2.8477-4.4727 5.0781-7.1172 1.3086-2.168-2.4609-2.4336-6.0625-0.65234-8.8125 0.91016-1.457 1.5195-1.7148 3.3594-0.89844v-0.003906c4.1914 2.1719 6.8477 6.4727 6.9141 11.191 0.78906 3.4883 1.2539 7.043 1.3828 10.617 0.44531 2.0469 1.9258 3.7148 3.9023 4.3984 0.26953 0.20312 0.62109 0.25781 0.94141 0.14844s0.5625-0.36719 0.65234-0.69141c0.97266-3.6641 4.1641-6.168 4.9766-9.9375v-0.003906c1.1992-5.5703 0.82031-11.367-1.1016-16.73-3.0195-8.8281-6.7266-11.641-16.008-11.461-0.64844 0.066406-1.3008 0.074219-1.9531 0.019531-1.7305-0.30469-3.457 0.57422-4.2305 2.1523-1.9922 3.0078-3.5 6.3086-4.4766 9.7852-1.9023 9.9375-1.3242 20.191 1.6797 29.852 0.19531 0.66406 0.53125 1.2773 0.98828 1.8008 3.7344-1.3086 2.9688 2.043 3.4297 3.5547 1.1211 3.3711 3.6758 6.0742 6.9766 7.3867 1.9453 0.85547 4.168 0.79688 6.0703-0.15234 0.82422-1.0547 0.92969-2.5 0.26953-3.6641-1.1289-3.8164-2.4727-7.5664-3.7031-11.355h-0.003906c-0.90625-1.5039-1.3828-3.2344-1.375-4.9922 2.3281-4.6953-1.2305-8.5273-0.92188-13.512zm-3.6992 42.051h0.003907c-0.32031 0.03125-0.62891 0.11719-0.91797 0.26172-0.58203 0.96094-1.5391 1.6328-2.6406 1.8594-1.0977 0.22266-2.2422-0.023437-3.1562-0.67578-2.3711-1.4688-0.63672-3.1797-0.35156-4.8008 0.10547-0.51172 0.27734-1.0039 0.50391-1.4727 0.58203-1.2734-0.94922-4.0156 1.0352-3.7539 2.1797 0.28906 0.027344 2.8906 0.55078 4.4102l0.003906 0.003906c-0.003906 0.38281-0.12891 0.75781-0.35547 1.0703-0.54688 0.78125-0.46484 1.8398 0.19531 2.5234 1.0586 0.9375 1.8672-0.078124 2.7422-0.57812 1.0586-0.60547 1.9961-2.1562 3.3945-1.1445 1.0469 1.0234 1.3984 2.5625 0.91016 3.9414-0.33594 4.2188-1.1289 8.3867-2.3594 12.438-0.35156 0.85938-0.27734 1.8398 0.19531 2.6406 0.47266 0.80469 1.2969 1.3398 2.2227 1.4453 1.832 0.73828 2.4727-0.85156 3-2.2109v0.003907c0.52734-1.1719 0.93359-2.3906 1.207-3.6445 0.375-2.3633 1.3906-1.8438 2.4375-0.60156 1.3086 1.5508 2.4492 3.2461 3.7227 4.957h-0.003906c1.5898-2.2891 1.9102-5.2266 0.85547-7.8047-0.30078-1.2773-0.55078-2.6055 0.69922-2.8477 1.2734-0.24609 1.7227 1.25 1.7969 2.4297l0.003906 0.003906c0.34375 2.1797 0.19922 4.4141-0.42188 6.5352-0.3125 0.80859-0.66797 2.1211 0.41797 2.3359 1.7891 0.71875 3.1523 2.2109 3.6992 4.0586 0.46484 1.0938 1.5742 1.7695 2.7617 1.6797 1.1875-0.085937 2.1836-0.91797 2.4844-2.0703 1.0859-2.2266 1.3984-4.75 0.88281-7.1719-1.5742-6.7461-5.0508-12.824-6.3906-19.703-1.8711 0.91797-1.1289 2.1953-1.0391 3.2695 0.13281 1.6094 0.74219 3.793-1.1523 4.2266-1.8906 0.43359-2.4414-1.7773-3.0586-3.3047-0.24219-0.59766-0.58984-1.1523-0.85547-1.7383v-0.003906c-0.21484-1.0156-0.86719-1.8828-1.7812-2.375-0.91406-0.49219-1.9961-0.55859-2.9648-0.18359-5.125 0.99219-10.293-1.5195-12.676-6.1641-0.62109-0.99609 0.027344-3.3008-2.2969-2.9414l-0.003906 0.003906c-1.4102 0.59766-2.3516 1.9531-2.4141 3.4883-2.3398 4.4609-1.2422 10.137-4.9922 14.043-1.5352 1.7344-2.8125 3.6836-3.793 5.7852-0.69141 0.88281-0.75391 2.1055-0.15625 3.0547 0.59375 0.94922 1.7227 1.4258 2.8164 1.1875 1.8672 0.15625 3.6367-0.84375 4.4648-2.5234 0.64844-1.543 1.4844-3.0078 2.2383-4.5078 0.40625-0.80469 0.72656-1.8359 1.9141-1.4844l0.003906 0.003906c0.72266 0.33594 1.1602 1.082 1.1094 1.8789 0.33203 2.8477 0.066406 5.7344-0.78516 8.4766-0.76953 4.3281-0.88672 8.75-0.35547 13.117-0.046875 1.0938 0.66016 2.0781 1.7109 2.3867 1.3281 0.23828 1.457-1.293 1.8867-2.0898 0.94922-1.8164 1.7617-3.7031 2.4375-5.6367 0.33203-0.91797 1.5078-1.7734-0.089843-2.9766-1.7461-1.6602-2.2812-4.2227-1.3438-6.4414 1.4102-4.0742 2.1016-8.3594 2.0508-12.668zm116.51-121.72c-4.2812-2.3672-8.0977-6.6953-13.711-2.457h0.003906c-1.3359 0.49219-2.7383 0.77734-4.1602 0.85156-2.332 0.6875-2.6016-0.75-2.168-2.2656 1.3867-5.7656 1.0156-11.816-1.0664-17.367-0.32422-1.9102-1.5273-3.5586-3.2461-4.4492-1.7617-0.83984-3.3477-2.0078-4.6719-3.4414-5.543-4.8789-13.898-4.7109-19.242 0.38672-2.4375 2.6797-4.1367 5.9492-4.918 9.4883-0.23828 0.88672-0.45312 2.0078-1.6445 1.7266-1.1875-0.28125-0.98437-1.4258-0.66016-2.25l-0.003906-0.003907c0.51172-2.9258 0.85547-5.8789 1.0312-8.8438 1.1875-4.7578 1.1055-9.7461-0.24219-14.461-1.2617-4.707-2.6992-6.9219-7.6641-6.125 10.34 16.32 3.9922 32.473-0.86719 48.641 11.25-12.52 11.09-15.77 27.938-24.027 7.1094-3.4844 11.766-1.3633 13.891 5.7773 1.3359 4.0742 0.73437 8.5391-1.6406 12.109-3.3555 5.2344-5.2188 11.277-9.1992 17.328 10.156-7.6133 19.453-14.539 32.246-10.617zm-91.324-20.258c2.375-2.6602 3.9219-5.957 4.4531-9.4883 0.36328-8.0938-0.68359-16.188-3.0938-23.926-0.019532-1.9727-1.2148-3.7422-3.0391-4.4961-5.5977-0.875-10.734-3.7617-16.902-2.3398h0.003907c-5.9453 0.98438-11.055 4.7539-13.754 10.141-2.3555 4.5742-2.6055 9.8164-4.7734 14.238h0.003906c-1.9375 3.5273-2.125 7.7539-0.50781 11.438 0.73047-1.7656 1.418-3.2539 1.9727-4.793 4-10.285 10.305-19.516 18.43-26.984 1.3516-1.625 3.3398-2.582 5.4492-2.6211 2.1094-0.042969 4.1328 0.83594 5.543 2.4062 4.2969 4.2188 6.8086 9.9219 7.0156 15.938 0.46875 6.8398 0.19922 13.711-0.80078 20.488zm-114.57 145.9c-3.5625-1.1094-6.9805-2.9141-10.391-3.707h0.003906c-12.09-2.5938-23.816-6.6641-34.914-12.117-0.42188-0.21484-0.98047-1.2656-1.3438-0.16406-0.21484 0.64844 0.74609 1.8906-0.83203 1.6875-0.94141-0.22656-1.582-1.0977-1.5234-2.0625-0.22656-2.1523-1.3867-4.0938-3.168-5.3164-2.6133-2.6992-5.0625-5.5586-7.6758-8.2578-1.0469-1.082-0.96094-3.7461-3.1328-3.1211h0.003906c-1.6016 0.87109-2.8477 2.2695-3.5234 3.9609-0.74219 1.9688-0.19141 4.1875 1.3789 5.582 2.5469 3.4844 5.9531 6.2461 9.8828 8.0156 7.6914 5.6719 16.48 9.6719 25.812 11.738 7.4492 1.3242 14.949 2.3594 22.387 3.7305 2.3047 0.60156 4.7266 0.60938 7.0352 0.03125zm12.031 3.2578h0.003906c-2.168 0.95312-4.0703 2.4219-5.543 4.2734-5.3906 4.6055-9.1875 10.793-10.852 17.688-1.5117 5.9141-1.9062 12.062-1.1562 18.121 0.17578 2.7578-0.5 5.5039-1.9375 7.8633-0.47656 2.8086-0.48047 5.6758-0.015625 8.4844 1.293-2.9609-0.27344-5.4141 1.9336-8.3477-0.17578 6.4961 0.73828 12.973 2.7109 19.164 0.25-11.883-0.11719-23.766-1.1055-35.609-0.23828-1.2891-0.089843-2.6211 0.42969-3.8281 0.050781-0.32031 0.23047-0.60937 0.49219-0.79687 0.26562-0.1875 0.59766-0.26172 0.91797-0.20313 0.65625 0.14453 1.0898 0.77734 0.98047 1.4414-0.17578 9.8594 0.28516 19.719 1.3789 29.52 0.86719 7.4609 2.4844 14.82 4.8242 21.961 0.61328-4.0742 0.34375-8.2305-0.78516-12.191-2.1172-6.6484-1.0703-13.555-2.1797-20.219-1.4961-7.8711-1.6367-15.938-0.41406-23.855 0.3125-2.8047 1.1602-5.5234 2.4922-8.0117 2.8281-4.7695 5.0586-9.8906 7.8281-15.453zm151.68-19.98c1.8398 0.60938 3.8398-0.30469 4.5859-2.0977 3.418-4.0234 7.1523-7.7695 11.16-11.203 5.2578-5.0742 8.0625-12.172 7.6953-19.465 0.015625-1.8945-1.1914-3.2383-3.0078-2.3945h-0.003907c-3.043 0.96875-6.1367 1.7812-9.2695 2.4297-2.1914 0.54688-3.7617 2.4688-3.8555 4.7266 2.1328 3.9023-0.45312 6.0742-2.0977 8.5742h0.003906c-1.6055 2.2188-3.3398 4.3398-5.1914 6.3555-0.35938 0.28516-0.57031 0.71875-0.56641 1.1797 0 0.46094 0.21484 0.89453 0.57812 1.1758 0.73828 0.48438 1.2812-0.39453 1.8281-0.98828 3.0938-3.3359 6.2109-6.6484 9.4141-9.8789 0.69531-0.70312 1.3711-2.5195 2.6055-1.4297 1.1172 0.98828-0.35156 1.9727-0.96875 2.9219v0.003906c-4.7734 6.3789-9.0898 13.094-12.91 20.09zm-124.53-120.77c1.3398-6.2656 2.3672-11.445 3.5664-16.586v-0.003906c1.6797-5.1484 3.8711-10.113 6.543-14.82 1.5039-3.2305 4.6562-5.3789 8.2148-5.5898 5.9961-0.86328 11.855 2.2852 14.449 7.7578-0.45703-2.8633-1.9531-5.4609-4.1992-7.293-2.8984-2.7188-6.918-3.8945-10.824-3.1719-5.9219 0.87891-11.434 3.5352-15.809 7.6172-4 4.6328-6.6797 10.254-7.7539 16.277-1.5117 6.5234 3.9609 9.8477 5.8125 15.809zm206.65 141.3c1.8516 3.1172 0.98828 7.1367-1.9805 9.2188-8.0078 5.7773-18.078 7.918-27.742 5.8945-2.2656-0.38281-4.5625-0.5-6.8555-0.35547-5.2852 0.70312-10.656 0.39453-15.828-0.90234-2.4727-1.2695-5.3594-1.4727-7.9844-0.5625 7.0781 4.4062 15.316 4.4336 22.824 6.9688 1.5391 0.22266 3.1055 0.22266 4.6484-0.003906 4.5859 0.0625 9.0352-1.2188 13.535-1.5312 6.0234 0.042969 11.996-1.0625 17.605-3.2539 2.7227-1.3828 4.6094-3.9922 5.0703-7.0117 0.88672-3.2383-0.45312-6.6719-3.293-8.4609zm-12.852-94.312c0.44531-0.71094 0.45703-1.6133 0.023437-2.3359-2.0508-4.0586-5.3984-7.3125-9.5156-9.2461-2.8242-1.6836-6.3281-1.7383-9.1992-0.13672-2.6484 0.98438-4.6211 0.52734-3.9062-3.1562-0.16406-1.4023-0.12109-2.8164 0.125-4.207 0.35547-0.71875 0.84375-1.4648-0.082031-2.0156-1.207-0.72266-1.5703 0.41797-2.0117 1.1328-3.5586 5.7656-8.2383 10.691-12.121 16.211-1.6719 2.375-3.2773 4.793-5.2188 7.6289h0.003906c1.0391-0.11719 1.9766-0.67578 2.5781-1.5352 6.1641-5.4688 12.098-11.418 21.504-9.918v0.003907c1.4297 0.066406 2.8594-0.15625 4.2031-0.65234 2.918-1.1367 6.2227 0.09375 7.6836 2.8594 1.4258 2.3203 3.4844 4.1836 5.9336 5.3672zm-195.14 225.45c0.61719-1.3438 0.60938-2.8945-0.023437-4.2305-1.3359-3.7578-3.0625-7.3633-5.1562-10.758-3.3555-3.8945-4.7031-9.1289-3.6367-14.156 0.40625-0.61328 0.54297-1.3633 0.375-2.0781-0.16797-0.71484-0.62891-1.3281-1.2656-1.6914-4.3672-3.6328-7.9805-8.0859-10.645-13.105-3.1758-4.9453-6.2422-9.9609-9.3594-14.945 0.74609 8.7344 3.5391 17.164 8.1562 24.617 0.45312-1.9727 0.20312-4.043-0.71094-5.8516-0.25781-0.95703-1.2891-2.1055-0.003906-2.7031 1.2383-0.57422 1.7969 0.94141 2.125 1.7617l-0.003906 0.003906c2.7344 7.8359 6.293 15.359 10.617 22.441 2.6797 4.7188 5.0469 9.6094 7.082 14.641 0.49219 0.60547 0.63672 1.418 0.38672 2.1523-1.1289 2.1406 0.73047 2.582 2.0625 3.9023zm26.668-236.48c-1.0352-3.6289-3.0664-6.8984-5.8555-9.4414-1.8789-2.3281-5.1992-2.8906-7.7383-1.3125-9.293 6.375-15.898 15.957-18.551 26.91-0.84766 3.4102 0.11328 7.0156 2.543 9.5508 0.35156-1.7461 0.30469-3.5508-0.14062-5.2812 1.1602-9.1172 5.418-17.562 12.062-23.922 1.6406-1.7383 4.1484-2.3672 6.418-1.6055 4.0469 0.96094 7.8711 2.6953 11.262 5.1016zm85.367 217.47c-8.3086 5.6758-14.746 13.688-18.492 23.023 1.8047-0.33984 3.4141-1.3672 4.4805-2.8633 3.8789-4.3555 8.3203-8.1758 13.203-11.363 0.65625-0.80078 1.7148-1.1602 2.7266-0.92578 1.3789 0.67188 0.375 1.7188 0.30469 2.6836-0.69922 3.7383-1.0156 7.5391-0.93359 11.344 3.6836-2.5273 5.5234-6.9922 4.6914-11.379 0.11719-4.375-0.14062-8.75-0.76562-13.082-3.5078 5.0977-7.6133 9.7578-12.23 13.875-0.75781 0.53516-1.5977 2.0664-2.7695 0.48828-1.3945-1.875 0.69922-1.7852 1.4375-2.2578 3.5117-2.4648 6.375-5.7383 8.3477-9.543zm76.805-185.23c3.7891 4.4609 10.859 1.4375 13.148 7.2852 1.7969 4.582 6.8906 7.7578 5.1953 14.367 2.2969-2.207 3.2734-5.457 2.5703-8.5664-0.86719-3.5703-2.8555-6.7227-3.5273-10.188-1.1953-6.168-7.3359-5.6992-10.715-8.832v0.003906c-0.35547 0.089844-0.68359 0.27734-0.94141 0.54297-1.9648 1.8242-3.9102 3.6719-5.7305 5.3867zm-274.19 24.539c-3.5234-6.4336-7.625-11.281-8.2422-18.098-0.75-3.3438 1.1406-6.7148 4.3828-7.8203 5.25-2.0938 11.086-2.1992 16.406-0.29688-0.85156-1.2227-1.9375-2.2578-3.1953-3.0508-1.1094 0.40234-2.3242 0.40625-3.4336 0.019531-5.0312-3.6719-11.91-2.7031-18.109 2.1562-4.3867 3.4414 0.082031 6.7812 0.375 10.172h-0.003906c0.054687 0.50781 0.16406 1.0078 0.32422 1.4922 1.918 6.3242 5.9844 11.777 11.496 15.426zm72.938 157.88c-0.78516 1.332-0.91797 2.9531-0.35938 4.3984 0.65625 1.543 0.67578 3.2852 0.046875 4.8438-0.47266 0.69531 0.33984 2.1055-1.0547 2.1602-1.0859 0.042969-1.2031-1.0469-1.6523-1.8359-4.375-7.3867-8.0195-15.184-10.875-23.277-2.3125 2.918-2.457 6.9961-0.35938 10.074 2.375 3.6484 4.0664 7.7344 6.2734 11.508v-0.003907c2.5273 5.7422 6.5586 10.695 11.672 14.336-0.67969-3.6172-1.6211-7.1758-2.8242-10.656-0.25-0.29688-0.36719-0.68359-0.32031-1.0703 0.046875-0.38672 0.25391-0.73438 0.57031-0.96094 0.32812-0.33203 0.78906-0.49609 1.2539-0.44922 0.46484 0.050781 0.88281 0.30859 1.1367 0.69922 0.91797 1.3438 1.7344 2.7578 2.5977 4.1445h-0.003907c-1.4414-4.875-3.4922-9.5508-6.1016-13.91zm-20.973-242.36c-0.16016-2.0703-0.875-4.0586-2.0664-5.7617-4.4883-6.9258-10.59-7.2656-15.617-0.9375-0.28906 0.57812-0.69922 1.0898-1.1992 1.4961-6.625 2.7461-6.3203 8.9531-6.9531 14.449-0.69531 3.5117 0.35547 7.1445 2.8164 9.7461 0.17188-2.5547 0.10156-5.1172-0.21094-7.6562-1.3477-5.7031 1.1055-11.629 6.0898-14.711 4.6602-3.7891 8.3438-1.7617 12.332 0.69141 1.5117 0.92969 3.0977 1.7344 4.8086 2.6836zm169.05 192.98c0.26953-0.20312 0.49219-0.46094 0.66797-0.75 1.2891-7.8477 1.2461-15.859-0.12891-23.691-2.1172-7.918-2.5703-16.238-5.3633-24.043-2.2266-5.8086-6.1914-10.785-11.352-14.254 11.852 18.691 17.512 40.645 16.18 62.738zm-216.66-144.8c-0.62109-1.7773-1.0234-3.625-1.1992-5.5-2.5469-12.598 4.5547-17.812 16.32-18.855 3.1953 0.046875 6.3828 0.43359 9.4961 1.1562-2.9727-2.8828-6.8555-4.6484-10.984-4.9922-4.125-0.34375-8.2461 0.75391-11.656 3.1055-7.6875 5.7344-7.5859 13.773-1.9766 25.086zm140.45 92.164c-1.9062 1.9609-2.457 4.8672-1.4102 7.3906 1.7031 3.8828 2.5469 8.0859 2.4805 12.324 0 1.0625 0.69141 2 1.7031 2.3164 0.77734 0.24609 1.6172-0.085937 2.0195-0.78906 3.25-5.0859 4.0781-11.348 2.2617-17.102-0.16797-0.31641-0.21094-0.75391-0.73047-0.49219-3.625 1.8359-4.4805-1.4844-6.3242-3.6484zm-89.395 70.93c-1.4492 2.5391 0.23438 5.5156-1.5469 5.7109-2.4492 0.26953-2.1602-2.9531-3.0586-4.6641-0.30469-0.71484-0.51953-1.4609-0.64453-2.2266-1-4.0898-1.9922-8.1797-2.9766-12.273-0.011719 4.9023 0.37891 9.793 1.1758 14.629 0.38281 6.4102 1.9961 12.684 4.7617 18.48 0.32031 0.58203-0.30078 1.8047 0.90625 1.7148 0.92578-0.14063 1.6055-0.95313 1.5781-1.8906 0.17578-2.1797 0.68359-4.3203 1.5117-6.3477 2.5312-4.793-1.2148-8.1602-1.707-13.133zm-2.957-223.03c2.3125-5.4219 5.2227-10.566 8.6758-15.344 3.1016-4.1367 5.1602-4.5312 9.0703-0.99609 2.0312 1.8359 4.0625 3.6719 6.0938 5.5039-1.8711-4.7227-4.9766-8.8594-8.9922-11.973-0.95312-1.0273-2.3477-1.5312-3.7383-1.3477s-2.6094 1.0234-3.2695 2.2617c-0.67578 0.9375-1.418 1.8359-2.0312 2.8125v0.003906c-3.7188 5.6719-5.7383 12.293-5.8086 19.078zm240.27 118.46c2.3281 8.2852 1.9023 14.078-5.7461 18.781-0.84766 0.51953-2.0156 0.91797-0.67969 1.7031v-0.003906c2.543 0.97656 5.3242 1.125 7.9531 0.42969 1.9023-0.15625 1.3359-2.168 1.6445-3.4805h0.003906c0.85938-3.9023 1.2969-7.8906 1.3008-11.887 0.25-1.3477-0.10156-2.7383-0.96094-3.8047-0.86328-1.0664-2.1445-1.7031-3.5156-1.7383zm-218.46-58.426c-1.5273-2.2617-3.9375-3.7695-6.6367-4.1562-2.6992-0.39062-5.4375 0.38281-7.5391 2.1172-6.0195 3.7461-8.4805 10.145-5.332 19.902 0.83203-3.3398 1.5156-6.7266 2.5312-10.008h-0.003907c1.0195-3.4336 3.4648-6.2656 6.7148-7.7695s6.9922-1.5352 10.266-0.085938zm-21.508 2.8945c1.1172-2.875 3.5703-4.332 2.1758-7.0195-3.8125-7.3516-7.6406-14.695-11.484-22.031 2.3125 9.9219 5.4258 19.637 9.3086 29.051zm-17.824 28.895c0.18359-2.8516 0.63281-5.6758 1.3438-8.4453 0.17188-2.3672 1.5664-4.4766 3.6836-5.5586 2.1133-1.0859 4.6406-0.98437 6.6641 0.26172 1.668 0.68359 3.375 1.2617 5.7266 2.1328h-0.003907c-2.0273-4.207-6.3281-6.8438-11-6.7461-3.0898-0.56641-3.8281 2.4648-5.1406 4.3594-3.168 4-3.668 9.4922-1.2734 13.996zm81.488-51.492c2.5078-3.2852 4.5273-5.875 6.4805-8.5195v0.003906c2.2188-4.25 5.8359-7.6055 10.238-9.5 0.32812-0.070312 0.59766-0.29297 0.73047-0.60156 0.13281-0.30469 0.10938-0.65625-0.066406-0.94141-0.48047-0.93359-1.2617-0.50781-1.9961-0.21094h0.003906c-4.5273 1.5938-8.5469 4.3633-11.648 8.0273-2.8086 3.2344-4.1602 7.4805-3.7422 11.742zm14.961 11.59c-2.082 6.6562-3.0352 13.613-2.8242 20.586 0.03125 0.88672 0.25781 2.5 0.94531 2.1289 1.7617-0.70703 3.2188-2.0156 4.1133-3.6914-1.4062-6.2734-1.1211-12.695-2.2344-19.023zm-61.625 206.91c0.058593-1.5234 0.22656-3.043 0.50781-4.543 0.98047-3.4805-1.5742-6.168-1.9219-9.2148-0.53125-4.6602-4.1445-2.8164-7.125-4.6602 1.793 6.5742 4.6797 12.801 8.5391 18.418zm79.781-218.98c2.1797-7.6523-1.3047-13.355-5.5586-18.789-1.5352-1.2383-3.6055-1.5781-5.457-0.90625-0.96875 0.070312-1.707 0.89453-1.6602 1.8633 0.27734 2.0234 2.3047 1.6445 3.6484 2.2109l-0.003906 0.003906c3.7734 1.5078 6.5938 4.7305 7.5898 8.668-0.18359 2.4062 0.31641 4.8164 1.4414 6.9492zm-102.96 191.39c-0.94141 6.5391 3.5938 21.328 6.9883 22.793 0.19531-8.582-5.3906-15.078-6.9883-22.793zm190.69-139.84c-0.79297 4.9141-2.125 9.7266-3.9766 14.352 1.5273-0.085937 3.0469-0.28125 4.5469-0.58984 1.0039-0.28906 2.5703-0.4375 2.4766-1.9531-0.23438-3.8477 0.90625-8.0508-3.0469-11.809zm-63.016-114.4c4.6523-3.9844 9.6484-7.5391 14.934-10.629-7.2422-2.7773-10.383-0.56641-14.934 10.629zm-52.234 304.43v-0.003907c-0.51953 0.085938-0.97656 0.38672-1.2578 0.83203-0.28125 0.44141-0.35938 0.98438-0.21875 1.4883 0.34766 1.6172-0.62891 3.2227-2.2227 3.6523-1.75 0.44531-1.5703 1.0312-1.1367 2.418h-0.003906c0.058594 0.58984 0.40234 1.1211 0.91797 1.418s1.1445 0.32812 1.6875 0.078125c1.7188-0.55859 3.5078-0.87891 5.3164-0.94141 0.59375 0.058594 1.1836-0.13672 1.6289-0.53125 0.44531-0.39453 0.70312-0.96094 0.71875-1.5547 0.007813-2.4258-0.070312-4.8477-0.125-7.7812h0.003907c-1.0664 1.5664-1.5508 3.4609-1.3672 5.3477 0 1.2266-0.90625 2.2617-2.1211 2.4219-0.58594-0.085938-1.1133-0.41797-1.4453-0.91016-0.33203-0.49219-0.44141-1.1016-0.30078-1.6797-0.023437-1.3633-0.046874-2.7266-0.074218-4.2578zm99.254-67.656c-2.5742 9.1016-3.9805 18.492-4.1836 27.949 3.043-8.9961 4.457-18.457 4.1836-27.949zm38.512-69.523c4.6445 2.5078 9.6953 4.1914 14.918 4.9766 0.77734 0.28125 1.6406-0.074218 1.9961-0.82422 0.375-0.92969-0.57422-1.3164-1.0586-1.8281h-0.003907c-1.418-2.1055-3.9961-3.1094-6.4648-2.5195-3.0977 0.58203-6.2695 0.64844-9.3867 0.19531zm-41.68 74.223c-1.3125 2.8359-2.793 5.5859-4.4336 8.2461-1.3789 2.7266-2.4961 5.582-3.3359 8.5234-0.32812 0.73437-0.066406 1.5938 0.61328 2.0195 0.65625 0.55859 1.1992 0.26953 1.4219-0.47266 0.79297-2.6523 2.875-4.7227 3.7617-7.1484 1.0078-3.6523 1.668-7.3906 1.9727-11.168zm-62.012 67.773c0.75-1.0391 1.2031-2.2617 1.3164-3.5352 1.4609-3.0508-1.5039-7.3945 2.8906-9.5938 0.46484-0.23438 0.19531-2.1797-1-1.8203-1.9961 0.59766-5.3281-0.55859-4.7266 4.0117 0.48047 3.625 0.77344 7.2812 1.5195 10.938zm-2.4102 1.5898c0.28125 1.668-0.67969 4.1367 1.4102 4.2656 2.1992 0.13672 4.9961 1.6289 6.7422-0.39062 1.8633-4.4492 1.3203-9.5391-1.4375-13.492-0.47266 3.3945-0.027344 6.8555 1.2891 10.02 0.75391 1.1797-0.72266 2.707-1.5625 2.2344-2.0312-1.1523-5.4141 1.1992-6.4414-2.6367zm52.625-26.469v-0.003907c0.21484-6.5586 1.1719-13.074 2.8477-19.418-6.9375 5.7266-4.3398 12.648-2.8477 19.418zm21.727-187.51v-0.003907c-1.293 4.875-3.0039 9.6289-5.1094 14.215 3.6094 0.046875 4.918-0.21094 4.9023-1.6367-0.035157-4.0078 3.082-7.8828 0.20703-12.578zm-15.371 169.87c-1.4531 3.8047-2.4727 7.7656-3.0312 11.805-0.57812 0.88281-0.44922 2.0547 0.3125 2.7891 0.59766 0.21094 1.2578 0.097657 1.75-0.30078 0.84766-1.0352 3.1562-1.6406 2.4141-3.082-1.7773-3.4648-0.41406-7.1328-1.4453-11.211zm-66.238 29.129c3.7578 2.2734 5.7227 6.625 4.9453 10.945-0.082031 0.37109-0.015625 0.76172 0.1875 1.082 0.20312 0.32422 0.52734 0.55078 0.89844 0.63672 1.1172-0.019531 1.1484-0.94531 1.0938-1.9961-0.13281-2.5664-1.3125-5.1719-1.1562-7.4766 0.36719-5.4453-2.7305-3.1602-5.9688-3.1914zm-105.63-68.172c-0.41797 6.8984 0.98828 13.785 4.0703 19.969-0.9375-6.7305-3.2422-13.176-4.0703-19.969zm105.99-88.348c0.97266 3.1016 1.8398 5.8789 2.9805 9.5234 1.9258-7.6836 1.2578-9.5078-2.9805-9.5234zm80.691 19.484c3.3711-3.0078 6.1914-6.5859 8.3242-10.57-3.6289 2.7578-6.4922 6.3945-8.3242 10.57zm5.332 7.0781v-0.003907c3.5742-2.8398 6.707-6.1953 9.293-9.9609-3.9844 2.3633-7.2109 5.8203-9.293 9.9609zm-80.004-18.184c-3.5273 5.5859-3.5273 5.5859-0.125 8.4297 1.1992-2.7891-0.78125-5.5703 0.125-8.4297zm40.305-35.336-1.0312-0.65234c-2.5312 2.8242-4.0977 6.3828-4.4727 10.156zm60.176 45.465c2.6328 4.2148 6.2891 1.9062 9.6172 1.5625zm-37.797 124.06c-1.5391 0.47656-2.707 1.7344-3.0703 3.3047-0.35938 1.5703 0.14453 3.2109 1.3203 4.3086zm14.113-114.73c-2.9492 1.7266-5.3477 4.2578-6.9102 7.2969 3.1562-2.2031 6.0234-3.0508 6.9102-7.2969zm-109.88-83.664c-1.1133 3.5938-1.0469 7.4492 0.19531 11.004zm128.19 61.523-4.0234 7.7617 0.99609 0.48828c1.9922-2.2812 3.0703-5.2227 3.0273-8.25z"/>
  <path d="m388.68 592.33c-0.066406 1.5156-0.23438 3.0195-0.50391 4.5117-0.37891 1.4414 0.90234 4.2031-1.5664 3.9375-1.0781-0.097656-2.0625-0.64844-2.7109-1.5156-0.64844-0.86719-0.89453-1.9688-0.67969-3.0312 0.11719-1.0039 0.10938-2.0156-0.015625-3.0156-3.168 1.3555-6.1523 3.1016-8.8828 5.2031-0.95703 0.65625-1.9492 1.2539-2.9727 1.7969-0.78125 0.51562-1.7617 0.63672-2.6445 0.32812-0.88672-0.30859-1.5781-1.0117-1.8711-1.8984-0.84375-1.6992 0.86328-2.5273 1.9766-3.1914 2.4297-1.457 5.0508-2.5977 7.4922-4.0391v-0.003906c2.9102-1.6602 5.1914-4.2227 6.5078-7.3008 1.3125-3.0781 1.582-6.5039 0.76953-9.75-1.0938-9.1992-0.78516-18.566-1.1172-27.855v-0.003906c0.19141-1.5508-0.019532-3.1289-0.61719-4.5781-0.26953-0.39062-0.33203-0.88672-0.16016-1.332 0.16797-0.44141 0.54297-0.77344 1.0039-0.88672 0.92578-0.24609 0.91016 0.93359 1.3359 1.5v-0.003906c3.2734 5.0469 4.5234 11.141 3.5117 17.07-0.23437 3.8789-0.023437 7.7734 0.625 11.605 0.32031 4.1094 0.21094 8.2422-0.32812 12.332-0.15625 1.6641 0.5625 3.2852 1.9023 4.2852 4.0586 2.9492 7.8594 6.2344 11.367 9.8203 1.3789 1.6992 3.6914 2.6172 4.9922 0.64844 2.8398-4.3008 7.8125-6.4414 10.348-11.008 1.7148-1.8047 1.9922-4.5391 0.67578-6.6523-0.47266-1.0703-0.63672-2.25-0.48047-3.4102 0.042969-10.586 0.76562-21.164 0.24609-31.754-0.058594-1.1953-0.089844-2.707 1.332-2.832 1.7891-0.16016 1.7852 1.4688 1.8125 2.7891 0.16797 8.8477 0.33594 17.699 0.50391 26.547-0.12109 1.0391-0.082031 2.0898 0.125 3.1133 1.375 3.4531 1.6992 7.2344 0.92188 10.871-0.28125 0.98047-0.13281 2.0352 0.40234 2.9023 0.53906 0.86719 1.4219 1.4648 2.4258 1.6445 4.0469 2.0117 8.293 3.5977 12.668 4.7266 0.65625 0.13281 2.1445-0.50391 1.8672 1.1562-0.09375 0.53125-0.43359 0.98828-0.91406 1.2266-0.48438 0.23828-1.0547 0.23047-1.5312-0.019531-4.1211-0.42578-8.2656-0.60547-12.414-0.53906-2.6992-0.28516-3.9922 0.30469-3.8633 3.082 0.054688 1.1562-0.21094 2.3906-1.3867 2.4141-1.5625 0.03125-0.77344-1.5938-1.1094-2.4453h0.003907c-0.14844-0.50391-0.17969-1.0352-0.09375-1.5508 0.20312-1.1758-0.22656-2.3711-1.125-3.1523-1.2773-0.19531-2.5547 0.35938-3.2773 1.4297-2.5156 1.8477-4.7812 4.0156-6.7383 6.4453-0.58984 0.78516-1.8086 1.7461-2.0781 1.0312-1.7812-4.7148-7.2031-3.4648-10.039-6.4258-1.7812-1.5586-3.6836-2.9727-5.6953-4.2227z"/>
  <path d="m533.5 363.51c1.3047 1.6055 3.1836 2.6445 5.2422 2.8828 3.5273 1.0664 2.8555 3.6602 2.7344 5.9883-0.14453 2.8281-2.5234 1.9219-4.1992 2.125-5.1133 1.3555-10.34 2.2383-15.617 2.6328-0.78125-0.046875-1.5664 0.015625-2.3477 0v0.003906c-1.0469-0.12109-1.9688-0.75-2.4648-1.6797-0.066406-0.34766 0.042969-0.70312 0.29297-0.95312 0.98438-0.78125 1.6211 0.25 2.4219 0.53125 3.1328 0.91797 6.4844 0.72266 9.4883-0.55078-0.097657-1.2305-1.7383-0.046876-1.8672-1.3125 3.0703 0.30078 6.168-0.070313 9.082-1.082 0.64453-0.35547 1.5508-0.66406 1.2383-1.6406-0.24609-0.76562-1.043-0.53516-1.6797-0.55078l-0.003906 0.003906c-5.3047 0.089844-10.57 0.92188-15.645 2.4727-2.25 0.58203-4.4805 1.2617-6.7578 1.6953-1.0391 0.19922-2.543 0.46875-2.3516-1.5273l-0.10937 0.11719c9.4258-1.8438 18.609-5.3711 29.309-3.5195-3.0156-2.7539-6.3516-2.9922-8.6406-5.3555l2.0195-0.14453z"/>
  <path d="m347.61 370.22c-3.2891 9.7383 1.6797 15.836 6.8906 21.688h-0.003906c2.0234 2.5039 5.3633 3.5273 8.4414 2.5859 2.6602-0.88281 2.0508 0.61328 1.6875 1.8047-1.0781 3.6836 0.035156 7.6602 2.875 10.246 2.6016 4.0156 6.5117 7.0078 11.07 8.4727 3.5039 0.74219 3.9961 4.8398 6.1367 7.207 2.25 2.6758 5.5742 4.2188 9.0742 4.2031 4.6914 0.10547 9.375 0.49609 14.023 1.1602-6.1445-0.47656-12.309 1.3203-18.422-0.33594-3.4883-0.72266-6.3906-3.125-7.7617-6.4102-0.58594-1.9961-2.1055-3.5781-4.0742-4.2461-7.0898-1.0977-9.793-7.0547-13.703-11.684-1.5938-1.5547-2.3477-3.7773-2.0352-5.9844 0.23047-1.2617-0.1875-1.8711-1.9062-2.0469v0.003907c-3.6836-0.32031-6.9805-2.4062-8.8438-5.5977-1.7539-2.8633-3.6484-5.6445-5.3125-8.5586h-0.003906c-2.3477-4.0977-1.5742-9.2734 1.8672-12.508z"/>
  <path d="m326.02 439.01c10.812 20.445 33.359 22.312 48.992 20.078-3.6914 3.6758-20.406 2.7109-31.027-1.3711-8.543-3.1484-15.168-10.043-17.965-18.707z"/>
  <path d="m408.89 484.48c-5.4062 2.3945-11.418 3.082-17.23 1.9648-7.7031-1.1953-15.281-3.082-22.641-5.6484-0.69531-0.19531-1.668-0.33984-1.3867-1.3516v0.003906c0.13281-0.37891 0.42188-0.67578 0.79688-0.82031 0.37109-0.14453 0.78906-0.11328 1.1367 0.078126 2.4492 0.73437 4.9414 1.3477 7.3438 2.2188 10.215 3.7695 21.191 4.9883 31.98 3.5547z"/>
  <path d="m385.07 447.02c-11.664 1.4961-24.457-2.9961-38.383-13.473 6.3594 2.1641 11.531 6.8281 18.031 8.8047v0.003906c6.6875 1.9492 13.48 3.5078 20.352 4.6641z"/>
  <path d="m338.86 400.16c0.35938-0.042969 0.71875 0.011719 1.0508 0.15625 5.9688 6.8555 14.074 10.973 21.07 16.504 2.1641 1.7109 5.0742 1.7656 7.4688 3.7109-2.1523 0.18359-4.3086-0.32031-6.1562-1.4375-7.1094-3.8438-13.824-8.3633-20.059-13.504-1.8086-1.3125-2.9922-3.3203-3.2617-5.5391z"/>
  <path d="m415.83 426.64c11.16-6.3828 23.816-8.043 33.984-15.387h0.003906c-9.8008 7.9922-21.516 13.293-33.988 15.387z"/>
  <path d="m452.29 484.98c-2.3398 3.0352-5.6523 5.1758-9.3828 6.0664-4.1992 1.5938-8.5234 2.8594-12.812 4.2188-1.1484 0.36328-2.6641 0.54688-2.8789-0.95312-0.23828-1.6367 1.4648-0.85938 2.2969-1.1875 7.5039-2.9453 16-3.0586 22.777-8.1445z"/>
  <path d="m458.74 393.3c0.23828 4.3555-1.1797 8.6367-3.9766 11.984-2.793 3.3477-6.75 5.5117-11.074 6.0547-0.79688 0.078125-1.6445 0.125-1.793-0.92969-0.14453-1.0156 0.57422-1.1836 1.4102-1.3867 1.6211-0.39453 3.1758-1.0703 4.8008-1.4414l-0.003906 0.003906c4.2344-0.52734 7.4805-4.0117 7.7031-8.2695 0.28516-2.2734 1.3164-4.3906 2.9336-6.0156z"/>
  <path d="m440.27 458.86c10.715 1.4922 18.156-3.3438 25.391-8.7227-4.5898 6.418-18.312 13.609-25.391 8.7227z"/>
  <path d="m461.49 433.17c-7.7539 4.5273-15.32 9.5469-24.785 9.5859 8.625-2.1641 16.949-5.3867 24.785-9.5859z"/>
  <path d="m453.05 390.61c-5.6133 2.1602-10.828 5.2422-15.426 9.1211-0.23047 0.32031-0.58203 0.51953-0.97266 0.55859-0.38672 0.035157-0.77344-0.097656-1.0586-0.36328-0.15234-0.21875-0.20312-0.49219-0.13281-0.75 0.070312-0.25781 0.25-0.46875 0.48828-0.58203 5.5742-2.9375 10.27-7.7031 17.102-7.9844z"/>
  <path d="m338.98 400.05c-2.1836-0.15234-2.0312-2.043-2.4844-3.4258-0.6875-3.5664-0.92188-7.207-0.6875-10.832-0.042969-0.65234 0.046874-1.3711 0.9375-1.3438 0.33594 0.078126 0.60937 0.31641 0.73437 0.63281-0.1875 5.0625 0.28125 10.129 1.3945 15.07z"/>
  <path d="m435.14 443.18c-4.8633 1.9531-10.297 1.9375-15.148-0.046875 5.0508 0.23438 10.09-0.16406 15.148 0.046875z"/>
  <path d="m416.76 317.3c5.2344-10.906 8.5312-22.641 9.7422-34.68 0.85156 2.1484 0.93359 4.5234 0.23828 6.7305 1.7227-0.81641 3.0078-2.332 3.5391-4.1602 0.32812-0.55859 0.39844-1.3359 1.2578-1.0781v0.003906c0.38281 0.089844 0.70313 0.35547 0.86328 0.71484 0.16406 0.35937 0.15234 0.77344-0.03125 1.1211-0.66016 2.3242-1.2227 4.6797-1.8945 7.3047 2.4922-1.332 1.5977-4.7031 5.1523-5.9062-3.4648 12.258-9.332 23.082-11.504 35.113-1.4492-4.9531 1.1406-9.5195 1.25-14.5l-0.003906-0.003906c-2.6328 1.4688-4.125 4.3828-3.7695 7.3789-0.48437 3.9336-3.4375 3.6133-5.9062 4.0273-1.6094 0.26953-1.2227-1.3359-1.2656-2.2656l0.003906 0.003906c0-3.6289 0.76953-7.2188 2.25-10.531 1.9766-3.2969 3.293-6.9492 3.875-10.746-0.17188-2.5117 0.25-5.0234 1.2344-7.3398 0.28906-0.90234 1.0703-1.5586 2.0117-1.6836 0.74609 3.1406 0.14453 6.4531-1.6641 9.125-2.2852 5.3281-4.2227 10.797-5.7969 16.375-0.49609 1.6562-0.34766 3.4453 0.41797 4.9961z"/>
  <path d="m440.39 322.2c-2.6484 5.1992-6.5078 9.6875-11.25 13.086 3.8086-11.766 13.445-19.336 17.27-30.141h-0.003906c0.21875 0.0625 0.41797 0.17578 0.58594 0.32812 0.9375 0.92578-1.1133 2.5273 0.57422 3.1836 1.9922 0.77344 2.75-1.1445 3.6758-2.2227 1.8047-2.1016 3.3633-4.4141 5.3711-6.4414-4.1016 12.375-8.8477 24.527-14.223 36.406 1.25-1.4883 2.7539-2.7461 4.4414-3.7148-2.7812 4.1953-5.5312 8.4141-8.3828 12.562-0.375 0.89844-1.3945 1.3281-2.2969 0.96875-1.2188-0.64062-0.4375-1.5508-0.15234-2.3516 2.7812-7.8789 5.5742-15.754 8.375-23.625l-0.003906 0.003906c0.59375-0.71094 0.74219-1.6914 0.39062-2.5469-0.875 0.44922-1.6445 1.0781-2.2578 1.8477-0.003906-3.0312 3.6016-4.4023 3.4375-7.5469-3.293 5.1133-8.6484 8.7422-11.023 15.598 1.7109-1.9102 3.5391-3.7109 5.4727-5.3945z"/>
  <path d="m402.52 282.99c2.2227 9.418-0.79688 19.371 3.6953 29.336v-0.003906c-2.957-2.8359-4.3789-6.918-3.8242-10.977-0.0625-3.8398-0.13281-7.6836-0.20703-11.906-2.7227 1.9492-0.87109 5.0039-2.5078 6.6328-0.42969-4.5508 0.5625-9.1211 2.8438-13.082z"/>
  <path d="m460.68 335.45c-1 5.293-5.1992 9.4062-5.3594 15.441 3.6094-3.457 4.5586-8.3008 8.4258-12.27v-0.003906c-1.9141 4.9727-4.4023 9.7031-7.4141 14.102-0.44922 0.83594-1.4258 1.2461-2.3359 0.97656-0.69531-0.63281-0.90234-1.6406-0.50781-2.4883 1.082-5.7617 3.5508-11.168 7.1914-15.758z"/>
  <path d="m432.51 341.36c-0.49609-3.418 0.41406-6.8945 2.5234-9.6289 0.26562-0.55859 0.69141-0.85547 0.85547 0.015625 0.17188 0.91016 2.1719 0.03125 1.4727 1.4258h-0.003906c-0.82422 3.125-2.5039 5.9609-4.8477 8.1875z"/>
  <path d="m358.57 297.22c-1.2578 16.465 4.3984 31.957 7.5859 47.781l-1.1602 0.18359c-2.0312-8.4688-3.6484-17.07-6.2617-25.359-1.1445-4.4258-1.6875-8.9844-1.6094-13.555-0.16797-3.8867-0.16406-7.7773-0.21875-11.668l-0.003906 0.003907c-0.1875-0.92969 0.375-1.8477 1.2891-2.0977 0.87109-0.17969 1.0117 0.72656 1.1758 1.2852 2.1836 7.375 4.3359 14.758 6.457 22.152l0.003906-0.003906c-0.058593 0.32812-0.18359 0.63672-0.36719 0.91797-2.9414-6.457-4.375-13.199-6.8906-19.641z"/>
  <path d="m371.5 332.71c-0.80078-12.195-4.7656-23.672-5.1953-35.723-0.066406-1.8242-0.12891-3.6523-0.042969-5.4688 0.042969-0.88281-0.69141-2.2695 0.98438-2.4688 0.96094-0.03125 1.793 0.65625 1.9531 1.6055 1.7109 4.8125 2.9375 9.7812 3.6641 14.836-2.4531-4.6094-2.1758-9.1133-4.6484-12.555l-0.003907-0.003906c-0.34375 0.019531-0.66016 0.19141-0.86719 0.46875-0.20703 0.27344-0.28125 0.62891-0.20312 0.96484 0.97266 9.3906 2.5391 18.711 4.6875 27.906 0.8125 3.6562 1.2461 7.3984 1.8438 11.102v0.003906c0.3125 0.90234-0.082031 1.8945-0.92578 2.3398-1.0391 0.33594-1.4375-0.69531-1.8672-1.543h-0.003906c-1.4922-3.1211-2.4414-6.4766-2.8047-9.918z"/>
  <path d="m344.42 345.04c0.98047 0.45312 1.832 1.1484 2.4727 2.0156l-5.0977-16.121c3.5586 6.668 6.0117 13.863 7.2617 21.316-2.1172-1.9922-3.6953-4.4883-4.5859-7.2578z"/>
  <path d="m340.59 327.68c-1.6641-3.3828-2.8867-6.9688-3.6367-10.664-0.20312-0.41406-0.23047-0.89453-0.074219-1.332 0.15234-0.43359 0.47656-0.79297 0.89453-0.98828 0.44141-0.13281 0.92187-0.078124 1.3242 0.15234 0.39844 0.23047 0.6875 0.61719 0.79297 1.0664 1.2539 2.4531 2.3633 4.9766 3.3203 7.5586-2.2695-1.4609-2.1992-4.4922-4.4922-6.0234-1.0234 3.5156 2.5703 6.0469 1.8711 10.23z"/>
  <path d="m356.12 310.76c-2.4141-3.5078-3.2891-7.7812-5.8438-11.191v-0.003906c-0.19141-0.17969-0.28516-0.44531-0.24609-0.70703 0.035156-0.26172 0.19531-0.49219 0.42969-0.61719 0.30078-0.12891 0.64453-0.125 0.94141 0.015625 0.30078 0.14062 0.52344 0.40234 0.61328 0.71875 1.8438 3.7461 3.2227 7.7031 4.1055 11.785z"/>
  <path d="m344.47 344.99c-3.6445-4.1172-6.2812-9.0195-7.7031-14.328l-0.011719-0.003906h-0.003906c3.1211 4.4688 5.6953 9.2969 7.668 14.379z"/>
  <path d="m520.16 340.59c-1.3281-0.0625-2.6523-0.21094-3.9648-0.4375-0.32422-0.066406-0.60547-0.26953-0.77734-0.55469-0.16797-0.28516-0.21484-0.625-0.125-0.94531 0.19922-0.50391 0.76172-0.75391 1.2695-0.5625 5.9688-0.30078 11.73-2.2812 16.629-5.7109 0.67969-0.375 1.3789-0.71484 2.0977-1.0195 0.99219-0.40234 2.2852-1.6211 2.9609-0.09375 0.5625 1.2734-0.94922 1.957-1.9609 2.4883-5.0039 2.6328-10.043 5.1992-15.043 7.8359-1.6797 0.88672-3.2891 1.9102-5.332 3.1016 1.7969 0.63281 3.7773 0.47656 5.4531-0.42578 5.9727-2.7344 11.965-5.4297 17.945-8.1445 1.0117-0.46094 2.1836-1.6211 3.0625-0.3125l-0.003906-0.003906c0.50391 1.1211 0.16406 2.4375-0.81641 3.1758-0.74219 0.90625-1.5859 1.7227-2.5117 2.4336-1.0703 0.64844-2.2227 0.83203-0.56641 2.1875 0.60156 0.49219-0.14844 1.3047-0.66406 1.5547-4.3008 2.1172-8.957 5.2148-13.531 3.4141l0.003906 0.003907c-3.3008-1.0117-6.7656-1.3828-10.207-1.0898-0.72266-0.015625-1.6875 0.28125-1.9297-0.76953-0.082032-0.80859 0.38672-1.5742 1.1406-1.8711 2.043-1.3008 4.1172-2.5547 6.8711-4.2539zm3.2461 4.793h-0.003906c3.1602 0.21484 6.3164-0.41797 9.1484-1.8359 2.8281-1.4141 5.2305-3.5586 6.957-6.2148-5.2266 2.9609-10.602 5.6484-16.105 8.0508z"/>
  <path d="m497.15 321.33c7.7695-7.832 16.164-15.023 25.102-21.496 1.0391-0.81641 2.3086-1.8594 3.3984-0.5625 1.3008 1.543-0.48828 2.0898-1.3984 2.9102-5.3281 4.7656-11.648 8.1641-17.219 12.594v-0.003907c-1.9336 1.3242-3.6172 2.9844-4.9688 4.8984 1.418 0.90625 3.2969 0.57812 4.3164-0.76172 5.5938-4.5547 11.43-8.8008 17.484-12.723 0.88672-0.60547 1.8906-1.9492 2.957-0.75781v-0.003906c0.57422 1.0781 0.3125 2.4102-0.62891 3.1875-0.73437 1.0195-1.1172 0.91406-3.3164 0.83594v0.003907c-1.1562 0.16016-2.2383 0.65625-3.1172 1.4219-2.9219 1.9062-5.7305 3.9727-8.4219 6.1875-4.043 3.5391-7.9922 6.8945-14.188 4.2695z"/>
  <path d="m516.26 317.75c-0.82812 1.3945-1.5586 2.8438-2.1875 4.3398 4.9023-1.8945 9.4844-4.5234 13.598-7.793 0.64453-0.48828 1.2148-1.7812 2.1758-0.71875 1.1016 1.2227-0.51562 1.5195-1.0547 1.9219-6.9414 5.1758-14.16 9.9648-21.625 14.348-0.93359 0.45313-1.9062 0.82031-2.9062 1.0977-0.28516 0.16406-0.625 0.20312-0.94141 0.10547-0.3125-0.10156-0.57031-0.32813-0.70312-0.62891-0.35156-0.60156-0.15625-1.3711 0.4375-1.7305 4.6875-3.293 9.1016-6.9531 13.207-10.941z"/>
  <path d="m512.09 299c-1.4805 1.8789-3.2422 3.5156-5.2188 4.8594-2 1.832-3.4531 4.1875-4.1875 6.8008-0.17578 0.91016-0.50391 2.0391-1.6562 1.6211-1.1016-0.39844-0.69922-1.6094-0.32422-2.3633 1.75-3.3398 4.2695-6.2148 7.3555-8.3906 1.0312-1.2578 2.4492-2.1484 4.0312-2.5273z"/>
  <path d="m361.76 254.17c-0.1875 3.7305-0.42578 7.4609-0.52344 11.191l0.003906 0.003907c0.10547 0.92187-0.34375 1.8203-1.1484 2.2891-1.0312 0.5-1.4062-0.57812-1.582-1.1953-1.6523-6.2227-2.3672-12.652-2.125-19.086l0.98047-0.09375c0.51562 4.7734 1.0273 9.5469 1.5547 14.445v0.003907c0.51562-0.14062 0.94531-0.49609 1.1797-0.97656 0.23438-0.48047 0.24609-1.0391 0.039063-1.5312-0.16016-6.7383 0.51562-13.473 2.0156-20.047 0.11328-0.67578-0.29688-1.7461 0.91016-1.7227 0.39844 0.035156 0.76562 0.23438 1.0117 0.55078 0.25 0.3125 0.35938 0.71875 0.30078 1.1133-0.074219 2.8008-0.34766 5.5977-0.41797 8.3984-0.019531 5.7266 0.30859 11.449 0.98438 17.137 1.2188-1.2656 1.7656-3.0312 1.4844-4.7617 0.73828-6.8203 1.3945-13.648 2.0391-20.477h-0.003906c-0.18359-1.0078 0.36328-2.0039 1.3125-2.3828 0.94141 0.14062 1.6562 0.92188 1.7109 1.8711 1.2422 8.2578 2.457 16.523 3.6445 24.789-0.039062 0.63281-0.14062 1.2578-0.30469 1.8711-3.1523-7.75-1.5664-15.836-5.293-23.145-0.75781 7.7109-1.5156 15.035-2.1758 22.371-0.12109 1.3555-0.03125 2.8398-1.7344 2.957-1.9609 0.13281-2.1172-1.5117-2.2109-2.9688-0.22266-3.6055-1.2266-7.1172-1.6523-10.605z"/>
  <path d="m358.18 236.23c1.6758 3.1875 1.1523 7.0859-1.3047 9.7188-0.66016-3.293-0.19922-6.7148 1.3047-9.7188z"/>
  <path d="m301.93 283.8c-2.4961-3.3906-3.8555-7.4844-3.8828-11.695 1.8789 3.6797 3.1875 7.6211 3.8828 11.695z"/>
  <path d="m398.25 252.92c-1.0703-4.8125-0.94922-9.8164 0.35938-14.57 0.39844 4.8438 0.25 9.7148-0.44531 14.523z"/>
  <path d="m490.06 292.35c1.5078-3.8008 3.5117-7.3828 5.9609-10.656 1.3867-1.8828 2.4648-3.9727 3.1992-6.1914-10.133 8.1719-15.781 19.262-24.414 27.723v-0.003906c2.6562-5.543 6.0117-10.727 9.9805-15.426 3.4414-4.6992 7.4922-8.957 10.926-13.66 1.9336-1.8633 4.4922-2.9453 7.1758-3.0273-2.8945 7.8281-7.2773 15.02-12.91 21.176z"/>
  <path d="m445.95 265.21c-0.24609-6.3477 0.50781-12.695 2.2266-18.809-3.1094 4.2695-5.8477 8.793-8.1953 13.523-0.75391 1.7031-1.2852 4.8711-3.5898 4.2617-2.3555-0.62109-0.30859-3.1484-0.18359-4.7695 0.49219-6.3945 3.0938-12.438 3.3516-19.91-4.9102 8.5391-5.1133 18.172-10.742 26.336l0.003906-0.007812c-0.80469-3.2188-0.35156-6.625 1.2695-9.5195 2.0781-7.4102 4.9102-14.609 7.082-21.996 0.81641-2.2031 2.7852-3.7734 5.1172-4.0781 1.8086-0.52734 1.3867 2.1406 1.0547 3.2031-1.707 5.4336-2.3594 11.086-3.668 16.598l-0.003906 0.003906c-0.94141 2.7305-1.293 5.6328-1.0273 8.5078 3.0469-5.8047 6.4062-11.434 10.07-16.871 0.52344-0.75391 0.69141-2.3555 2.1328-1.6172 0.85156 0.68359 1.082 1.8906 0.53516 2.8398-2.4141 7.2734-4.2344 14.734-5.4336 22.305z"/>
  <path d="m314.71 345.58c-2.6836 0.37109-2.293-3.2266-4.5234-3.4961-1.1172 1.2812 0.96875 3.293-0.98047 4.375-0.83203-3.3125-1.6914-6.6211-2.4648-9.9453h0.003906c-0.15234-0.28516-0.1875-0.61719-0.09375-0.92578s0.30859-0.57031 0.59375-0.71875c0.66016-0.15625 1.3281 0.22656 1.5312 0.875 2.0078 3.2617 3.9648 6.5547 5.9336 9.8359z"/>
 </g>
</svg>