<?xml version="1.0" encoding="UTF-8"?>
<!-- The Best Svg Icon site in the world: iconSvg.co, Visit us! https://iconsvg.co -->
<svg fill="#000000" width="800px" height="800px" version="1.1" viewBox="144 144 512 512" xmlns="http://www.w3.org/2000/svg">
 <g>
  <path d="m573.18 415.74c16.695-0.019532 32.703-6.6602 44.508-18.465 11.809-11.809 18.449-27.812 18.469-44.512 0-2.0859-0.83203-4.0898-2.3047-5.5664-1.4766-1.4766-3.4805-2.3047-5.5664-2.3047h-15.746c-18.102 0.011719-35.316 7.832-47.23 21.457v-21.457h7.8711c16.695-0.019531 32.703-6.6602 44.508-18.465 11.809-11.809 18.449-27.816 18.469-44.512 0-2.0859-0.83203-4.0898-2.3047-5.5664-1.4766-1.4766-3.4805-2.3047-5.5664-2.3047h-15.746c-8.9648 0.007813-17.824 1.9414-25.977 5.6758 1.5352-4.3555 2.332-8.9336 2.3594-13.547 0-24.535-24.664-51.453-25.719-52.586h0.003907c-1.5273-1.543-3.6055-2.4102-5.7734-2.4102s-4.2461 0.86719-5.7695 2.4102c-1.0547 1.1328-25.719 28.047-25.719 52.586 0.03125 4.6133 0.82812 9.1914 2.3633 13.547-8.1523-3.7344-17.012-5.668-25.977-5.6758h-15.746c-4.3477 0-7.8711 3.5234-7.8711 7.8711 0.019531 16.695 6.6602 32.703 18.465 44.512 11.809 11.805 27.816 18.445 44.512 18.465h7.8711v21.461-0.003907c-11.914-13.625-29.129-21.445-47.23-21.457h-15.746c-4.3477 0-7.8711 3.5234-7.8711 7.8711 0.019531 16.699 6.6602 32.703 18.465 44.512 11.809 11.805 27.816 18.445 44.512 18.465h7.8711v21.461c-11.914-13.629-29.129-21.449-47.23-21.461h-15.746c-4.3477 0-7.8711 3.5234-7.8711 7.8711 0.019531 16.699 6.6602 32.707 18.465 44.512 11.809 11.805 27.816 18.445 44.512 18.465h7.8711v7.8711h-141.7v-39.359h7.8711c16.695-0.019531 32.703-6.6602 44.512-18.465 11.805-11.805 18.445-27.812 18.465-44.512 0-2.0859-0.82812-4.0898-2.3047-5.5664-1.4766-1.4766-3.4805-2.3047-5.5664-2.3047h-15.746c-18.102 0.011719-35.316 7.832-47.23 21.461v-21.461h7.8711c16.695-0.019531 32.703-6.6602 44.512-18.465 11.805-11.809 18.445-27.812 18.465-44.512 0-2.0859-0.82812-4.0898-2.3047-5.5664-1.4766-1.4766-3.4805-2.3047-5.5664-2.3047h-15.746c-18.102 0.011719-35.316 7.832-47.23 21.461v-21.461h7.8711c16.695-0.019531 32.703-6.6602 44.512-18.465 11.805-11.809 18.445-27.816 18.465-44.512 0-2.0859-0.82812-4.0898-2.3047-5.5664-1.4766-1.4766-3.4805-2.3047-5.5664-2.3047h-15.746c-8.9648 0.007812-17.824 1.9414-25.977 5.6758 1.5352-4.3555 2.332-8.9336 2.3633-13.547 0-24.535-24.664-51.453-25.719-52.586-1.5234-1.543-3.6016-2.4102-5.7695-2.4102s-4.2461 0.86719-5.7734 2.4102c-1.0547 1.1328-25.715 28.047-25.715 52.586 0.027343 4.6133 0.82422 9.1914 2.3594 13.547-8.1523-3.7344-17.012-5.668-25.977-5.6758h-15.746c-4.3477 0-7.8711 3.5234-7.8711 7.8711 0.019531 16.695 6.6602 32.703 18.469 44.512 11.805 11.805 27.812 18.445 44.508 18.465h7.8711v21.461c-11.914-13.629-29.129-21.449-47.23-21.461h-15.746c-4.3477 0-7.8711 3.5234-7.8711 7.8711 0.019531 16.699 6.6602 32.703 18.469 44.512 11.805 11.805 27.812 18.445 44.508 18.465h7.8711v21.461c-11.914-13.629-29.129-21.449-47.23-21.461h-15.746c-4.3477 0-7.8711 3.5234-7.8711 7.8711 0.019531 16.699 6.6602 32.707 18.469 44.512 11.805 11.805 27.812 18.445 44.508 18.465h7.8711v39.359h-141.7v-7.8711h7.8711c16.699-0.019532 32.707-6.6602 44.512-18.465s18.445-27.812 18.465-44.512c0-2.0859-0.82812-4.0898-2.3047-5.5664-1.4766-1.4766-3.4805-2.3047-5.5664-2.3047h-15.742c-18.102 0.011718-35.32 7.832-47.234 21.461v-21.461h7.8711c16.699-0.019532 32.707-6.6602 44.512-18.465 11.805-11.809 18.445-27.812 18.465-44.512 0-2.0859-0.82812-4.0898-2.3047-5.5664-1.4766-1.4766-3.4805-2.3047-5.5664-2.3047h-15.742c-18.102 0.011719-35.32 7.832-47.234 21.457v-21.457h7.8711c16.699-0.019531 32.707-6.6602 44.512-18.465 11.805-11.809 18.445-27.816 18.465-44.512 0-2.0859-0.82812-4.0898-2.3047-5.5664-1.4766-1.4766-3.4805-2.3047-5.5664-2.3047h-15.742c-8.9688 0.007813-17.828 1.9414-25.98 5.6758 1.5352-4.3555 2.332-8.9336 2.3633-13.547 0-24.535-24.664-51.453-25.719-52.586-1.5234-1.543-3.6016-2.4102-5.7695-2.4102-2.168 0-4.2461 0.86719-5.7695 2.4102-1.0547 1.1328-25.719 28.047-25.719 52.586 0.027344 4.6133 0.82813 9.1914 2.3594 13.547-8.1484-3.7344-17.008-5.668-25.977-5.6758h-15.742c-4.3477 0-7.875 3.5234-7.875 7.8711 0.019531 16.695 6.6602 32.703 18.469 44.512 11.805 11.805 27.812 18.445 44.508 18.465h7.8711v21.461l0.003906-0.003907c-11.918-13.625-29.133-21.445-47.234-21.457h-15.742c-4.3477 0-7.875 3.5234-7.875 7.8711 0.019531 16.699 6.6602 32.703 18.469 44.512 11.805 11.805 27.812 18.445 44.508 18.465h7.8711v21.461h0.003906c-11.918-13.629-29.133-21.449-47.234-21.461h-15.742c-4.3477 0-7.875 3.5234-7.875 7.8711 0.019531 16.699 6.6602 32.707 18.469 44.512 11.805 11.805 27.812 18.445 44.508 18.465h7.8711v7.8711h-70.848v15.742l472.32 0.003906v-15.746h-70.848v-7.8711h7.8711c16.695-0.019532 32.703-6.6602 44.508-18.465 11.809-11.805 18.449-27.812 18.469-44.512 0-2.0859-0.83203-4.0898-2.3047-5.5664-1.4766-1.4766-3.4805-2.3047-5.5664-2.3047h-15.746c-18.102 0.011718-35.316 7.832-47.23 21.461v-21.461zm-118.08-15.742h7.2188c-1.875 11-7.5781 20.98-16.102 28.184s-19.316 11.16-30.477 11.176h-7.2188c1.875-11 7.5781-20.984 16.102-28.188s19.32-11.16 30.477-11.172zm0-70.848h7.2188v-0.003906c-1.875 11.004-7.5781 20.984-16.102 28.188-8.5234 7.2031-19.316 11.16-30.477 11.176h-7.2188c1.875-11 7.5781-20.984 16.102-28.188s19.32-11.16 30.477-11.176zm7.2188-70.848v-0.003907c-1.875 11-7.5781 20.984-16.102 28.188s-19.316 11.16-30.477 11.176h-7.2188c1.875-11.004 7.5781-20.984 16.102-28.188 8.5234-7.2031 19.32-11.16 30.477-11.176zm-62.32-58.523c6.9102 9.1016 15.742 23.371 15.742 34.906-1.3867 11.297-7.0117 21.648-15.742 28.953-8.7305-7.3047-14.359-17.656-15.746-28.953 0-11.488 8.8398-25.789 15.746-34.906zm-15.746 97.883c-11.16-0.015624-21.953-3.9727-30.477-11.176-8.5234-7.2031-14.227-17.188-16.102-28.188h7.2188c11.16 0.015625 21.953 3.9727 30.477 11.176 8.5234 7.2031 14.227 17.184 16.102 28.188zm0 70.848c-11.16-0.015625-21.953-3.9727-30.477-11.176-8.5234-7.2031-14.227-17.184-16.102-28.188h7.2188c11.16 0.015624 21.953 3.9727 30.477 11.176 8.5234 7.2031 14.227 17.188 16.102 28.188zm0 70.848c-11.16-0.015625-21.953-3.9727-30.477-11.176-8.5234-7.2031-14.227-17.184-16.102-28.184h7.2188c11.16 0.011719 21.953 3.9688 30.477 11.172 8.5234 7.2031 14.227 17.188 16.102 28.188zm-86.59-7.8711h7.2188-0.003906c-1.875 11-7.5781 20.98-16.102 28.184-8.5234 7.2031-19.316 11.16-30.477 11.176h-7.2188c1.875-11 7.5781-20.984 16.102-28.188 8.5234-7.2031 19.32-11.16 30.48-11.172zm0-70.848h7.2188l-0.003906-0.003906c-1.875 11-7.5781 20.984-16.102 28.188-8.5234 7.2031-19.316 11.16-30.477 11.176h-7.2188c1.875-11 7.5781-20.984 16.102-28.188 8.5234-7.2031 19.32-11.16 30.48-11.176zm7.2188-70.848-0.003906-0.003907c-1.875 11-7.5781 20.984-16.102 28.188-8.5234 7.2031-19.316 11.16-30.477 11.172h-7.2188c1.875-11 7.5781-20.98 16.102-28.184 8.5234-7.2031 19.32-11.16 30.48-11.176zm-62.324-58.523c6.9102 9.1016 15.742 23.371 15.742 34.906-1.3828 11.297-7.0117 21.648-15.742 28.953-8.7305-7.3047-14.359-17.656-15.746-28.953 0-11.488 8.8398-25.789 15.746-34.906zm-15.746 97.879c-11.156-0.011719-21.953-3.9688-30.477-11.172-8.5234-7.2031-14.227-17.188-16.102-28.188h7.2188c11.16 0.015626 21.953 3.9727 30.477 11.176 8.5234 7.2031 14.227 17.184 16.102 28.184zm0 70.848v0.003906c-11.156-0.015625-21.953-3.9727-30.477-11.176-8.5234-7.2031-14.227-17.188-16.102-28.188h7.2188c11.16 0.015625 21.953 3.9727 30.477 11.176 8.5234 7.2031 14.227 17.188 16.102 28.188zm0 70.848v0.003906c-11.156-0.015625-21.953-3.9727-30.477-11.176-8.5234-7.2031-14.227-17.184-16.102-28.184h7.2188c11.16 0.011719 21.953 3.9688 30.477 11.172 8.5234 7.2031 14.227 17.188 16.102 28.188zm385.73-110.21h7.2188c-1.875 11-7.5781 20.984-16.102 28.188-8.5234 7.2031-19.316 11.16-30.477 11.176h-7.2188c1.875-11 7.5781-20.984 16.102-28.188 8.5234-7.2031 19.316-11.16 30.477-11.176zm7.2188-70.848c-1.875 11-7.5781 20.984-16.102 28.188-8.5234 7.2031-19.316 11.16-30.477 11.172h-7.2188c1.875-11 7.5781-20.98 16.102-28.184 8.5234-7.2031 19.316-11.16 30.477-11.176zm-62.324-58.52c6.9102 9.1016 15.742 23.371 15.742 34.906h0.003906c-1.3867 11.297-7.0156 21.648-15.746 28.953-8.7305-7.3047-14.355-17.656-15.742-28.953 0-11.488 8.8398-25.789 15.742-34.906zm-15.742 97.879c-11.16-0.011719-21.953-3.9688-30.477-11.172-8.5234-7.2031-14.227-17.188-16.102-28.188h7.2188c11.156 0.015626 21.953 3.9727 30.477 11.176s14.227 17.184 16.102 28.184zm0 70.848v0.003906c-11.16-0.015625-21.953-3.9727-30.477-11.176s-14.227-17.188-16.102-28.188h7.2188c11.156 0.015625 21.953 3.9727 30.477 11.176s14.227 17.188 16.102 28.188zm0 70.848v0.003906c-11.16-0.015625-21.953-3.9727-30.477-11.176s-14.227-17.184-16.102-28.184h7.2188c11.156 0.011719 21.953 3.9688 30.477 11.172s14.227 17.188 16.102 28.188zm70.848-39.359h7.2188v0.003906c-1.875 11-7.5781 20.98-16.102 28.184-8.5234 7.2031-19.316 11.16-30.477 11.176h-7.2188c1.875-11 7.5781-20.984 16.102-28.188 8.5234-7.2031 19.316-11.16 30.477-11.172z"/>
  <path d="m179.58 525.95h47.23v15.742h-47.23z"/>
  <path d="m203.2 557.44h55.105v15.742h-55.105z"/>
  <path d="m289.79 525.95h31.488v15.742h-31.488z"/>
  <path d="m305.54 557.44h23.617v15.742h-23.617z"/>
  <path d="m384.25 525.95h39.359v15.742h-39.359z"/>
  <path d="m360.64 557.44h39.359v15.742h-39.359z"/>
  <path d="m455.1 557.44h31.488v15.742h-31.488z"/>
  <path d="m470.85 525.95h39.359v15.742h-39.359z"/>
  <path d="m518.08 549.57h31.488v15.742h-31.488z"/>
  <path d="m581.05 525.95h47.23v15.742h-47.23z"/>
  <path d="m163.84 588.93h472.32v15.742h-472.32z"/>
 </g>
</svg>