<?xml version="1.0" encoding="UTF-8"?>
<!-- The Best Svg Icon site in the world: iconSvg.co, Visit us! https://iconsvg.co -->
<svg fill="#000000" width="800px" height="800px" version="1.1" viewBox="144 144 512 512" xmlns="http://www.w3.org/2000/svg">
 <g>
  <path d="m286.09 273.04 1.3086-0.35156c1.7109-0.50391 3.4766-0.95703 5.1875-1.4102 0 0 6.1484-1.6133 7.2031-1.8633 5.0898-1.2578 10.227-2.418 15.316-3.4766l0.55469-0.15234c4.8867-1.0078 9.8242-1.9141 14.66-2.7188 1.0586-0.15234 7.1562-1.1094 7.1562-1.1094 1.6641-0.25 3.375-0.55469 5.0391-0.75391l1.3086-0.20312-1.4609-7.2539c-1.4102-7.1055-7.457-12.242-14.359-12.242l-0.10156-0.003906c-11.133 0-22.371 2.4688-34.359 7.5078-6.5977 2.7695-10.328 9.9258-8.8672 17.078z"/>
  <path d="m431.59 490.68-1.3086 0.40234c-1.4609 0.45312-2.9219 0.90625-4.3828 1.3594 0 0-7.707 2.2656-9.3711 2.7695-3.5273 1.0078-7.0547 1.9648-10.629 2.9219 0 0-4.9375 1.3594-6.3477 1.7148-3.9297 1.0078-7.9102 1.9648-11.891 2.9219 0 0-4.2305 1.0586-5.3398 1.3086-5.4414 1.2578-10.883 2.418-16.375 3.5273l-1.1094 0.25c-5.8945 1.2109-11.84 2.3164-17.785 3.3242-1.0586 0.20703-5.4414 0.91406-5.4414 0.91406-4.1328 0.70703-8.2617 1.3594-12.445 2.0156-1.5625 0.20312-7.0547 0.95703-7.0547 0.95703-3.7266 0.50391-7.4062 1.0078-11.082 1.4609-1.8633 0.25-3.7266 0.45312-5.5938 0.65625 0 0-8.2617 0.95703-9.8242 1.1094l-1.4102 0.15234 2.7695 13.703c0.95703 4.6836 4.9883 8.0117 9.5742 8.0117h0.60547c8.2617-0.50391 17.027-1.2578 26.754-2.3672 11.789-1.4102 23.578-3.2734 35.016-5.543 5.6914-1.1602 11.438-2.418 17.027-3.7773 5.5938-1.3594 11.133-2.8711 16.625-4.4336 8.2109-2.3672 16.625-5.1406 25.746-8.4648 4.3828-1.6133 7.0039-6.5 6.0469-11.234z"/>
  <path d="m400.7 532.4-1.3086 0.35156c-1.7617 0.50391-3.5781 0.95703-5.3906 1.4102 0 0-6.3984 1.6641-7.5078 1.9141-5.0898 1.2109-10.227 2.3672-15.418 3.4258l-0.70703 0.15234c-5.4414 1.0586-10.934 2.0664-16.477 2.9219-1.0586 0.20312-7.6562 1.1602-7.6562 1.1602-2.0156 0.30078-4.0312 0.60547-6.0469 0.85547l-1.3594 0.20312 1.5664 7.6094c1.5117 7.6562 8.2109 13.199 15.871 13.199 13.855-0.10156 25.844-2.3672 36.777-6.9531 6.9023-2.8711 10.832-10.578 9.2695-18.289z"/>
  <path d="m443.98 454.56-1.3594 0.40234c-2.1172 0.65625-4.2305 1.2578-6.3984 1.8125l-5.9961 1.7617c-2.5195 0.70703-4.9883 1.4102-7.457 2.1172-2.8711 0.75391-5.7422 1.5117-8.6172 2.2656l-5.7422 1.5117c-2.7188 0.75391-5.4414 1.4609-8.1602 2.168-2.2656 0.55469-4.5352 1.1094-6.75 1.6133l-6.4492 1.5625c-3.0742 0.75391-6.1445 1.5117-9.2188 2.2148-1.2578 0.30078-6.75 1.4609-6.75 1.4609-8.4648 1.8633-17.129 3.6797-25.844 5.3398l-3.2227 0.60547c-2.6719 0.55469-5.3398 1.0586-8.0117 1.5625-2.0156 0.35156-4.082 0.70703-6.0977 1.0078l-5.6914 1.0078c-3.5273 0.60547-7.1055 1.2109-10.629 1.7617-1.8633 0.25-3.6797 0.55469-5.543 0.80469l-2.8711 0.40234c-4.9883 0.75391-9.5234 1.4102-14.055 2.0156-1.6172 0.20312-7.4141 0.91016-7.4141 0.91016l-3.4766 0.45312c-2.6719 0.30078-5.2891 0.65625-7.9609 0.95703l-1.3594 0.15234 2.7695 13.652c0.90625 4.5859 4.9375 7.9609 9.5234 7.9609 0.30078 0 0.60547 0 0.90625-0.050781l2.4688-0.20312c1.5625-0.15234 3.0742-0.30078 4.6367-0.45312 50.531-4.7344 99-14.559 144.09-29.121 1.1094-0.40234 5.8438-1.9648 7.0039-2.3672 4.6836-1.5625 7.457-6.4492 6.4492-11.387z"/>
  <path d="m256.96 312.39 1.3594-0.45312c1.4102-0.40234 2.8203-0.85547 4.2812-1.2578 0 0 7.8086-2.3164 9.6211-2.8711 2.9219-0.85547 5.8945-1.6641 8.8672-2.418l2.8711-0.80469c1.6133-0.45312 3.2734-0.90625 4.8867-1.3086 3.125-0.80469 6.1953-1.5625 9.2695-2.3164 0 0 5.9961-1.5117 7.3047-1.8125 5.4414-1.2578 10.883-2.4688 16.324-3.5781l3.4766-0.65625c4.332-0.90625 8.7148-1.7617 13.047-2.5195 1.2578-0.20312 6.0469-1.0078 6.0469-1.0078 3.7773-0.60547 7.1055-1.2109 10.43-1.7148 1.5117-0.20312 6.6484-0.90625 6.6484-0.90625 3.2734-0.45312 6.5-0.90625 9.7227-1.3086 1.7617-0.20312 6.9531-0.75391 6.9531-0.75391s5.0898-0.60547 6.3984-0.75391l1.4102-0.15234-2.5703-12.594c-0.85547-4.2812-4.5352-7.3555-8.7656-7.3555h-0.35156c-9.0703 0.45312-17.383 1.1602-25.391 2.168l-0.50391 0.050781c-5.1406 0.65625-10.328 1.4102-15.516 2.2656-6.9531 1.1094-14.359 2.6211-23.227 4.6367-9.4219 2.1172-17.684 4.2305-25.34 6.4492-8.8164 2.6211-16.676 5.1875-24.031 7.8086-4.1836 1.5117-6.6992 5.9961-5.793 10.48z"/>
  <path d="m233.54 379.8 1.3086-0.40234c2.3672-0.65625 4.7344-1.3594 7.1562-2.0156l7.1055-1.9648c2.4688-0.70703 4.9375-1.4102 7.4062-2.0664 4.1797-1.1094 8.4648-2.2148 12.695-3.3242l5.543-1.4102c2.1172-0.55469 4.2812-1.1094 6.3984-1.6133 5.0898-1.2578 10.176-2.4688 15.266-3.6289 0 0 7.9609-1.9141 9.7227-2.3164 7.4062-1.6641 14.863-3.2227 22.371-4.7852l2.9219-0.60547c8.4648-1.7617 16.977-3.375 25.543-4.9375 1.7109-0.30078 9.6211-1.6641 9.6211-1.6641 5.3906-0.95703 10.73-1.9141 16.172-2.7695 2.168-0.35156 4.3828-0.70703 6.6016-1.0078l6.4492-1.0078c4.332-0.65625 8.6641-1.3086 13-1.9141 2.5195-0.40234 5.0391-0.70703 7.6094-1.0586l7.9609-1.0586c2.6641-0.35156 5.2812-0.70312 7.9531-1.0586l1.3086-0.15234-2.5703-12.797c-0.85547-4.2812-4.6367-7.3555-8.918-7.3555-0.30078 0-0.55469 0-0.85547 0.050782-2.0156 0.15234-4.082 0.40234-6.0469 0.65625l-0.55469 0.050781c-59.5 6.5-117.14 18.188-171.25 34.812-2.168 0.60547-4.2305 1.3086-6.3477 1.9648-4.3828 1.3594-7.0547 6.0469-6.1445 10.582z"/>
  <path d="m221.8 413.35 1.3086-0.35156c2.9219-0.80469 5.8438-1.6133 8.7656-2.418l8.5664-2.3164c2.6719-0.70703 5.3438-1.4609 8.0117-2.168 4.7852-1.2578 9.5742-2.4688 14.359-3.6289l6.6016-1.7148c2.5703-0.60547 5.0898-1.2578 7.6562-1.9141 5.4414-1.3086 10.984-2.5703 16.523-3.8281l6.3984-1.5117c2.0664-0.45312 4.082-0.95703 6.1445-1.4102 8.4141-1.8633 16.879-3.6289 25.391-5.3906l4.2305-0.90625c9.9766-2.0156 20-3.9805 30.129-5.8438 1.7148-0.30078 9.1172-1.5625 9.1172-1.5625 7.2031-1.3086 14.309-2.5703 21.461-3.7773 2.5195-0.40234 5.0391-0.80469 7.5078-1.2109l7.4062-1.1602c5.3398-0.85547 10.73-1.7148 16.121-2.5195 3.0234-0.45312 6.0469-0.85547 9.0703-1.2578l9.6719-1.4102c3.2734-0.45312 6.6016-0.95703 9.9766-1.3594l1.3086-0.20312-2.6211-12.898c-0.85547-4.2812-4.6367-7.4062-8.9688-7.4062-0.30078 0-0.65625 0.050781-0.95703 0.050781-2.0664 0.25-4.1836 0.50391-6.2461 0.80469-9.0703 1.0586-17.984 2.2148-26.902 3.4766-62.27 8.7148-122.88 21.766-180.11 38.691l-6.2461 1.8125c-4.4336 1.3086-7.2031 5.9453-6.2461 10.582z"/>
  <path d="m245.23 345.99 1.3594-0.35156c1.8125-0.55469 3.6289-1.1094 5.4414-1.6133l5.5938-1.6133c2.1172-0.60547 4.1836-1.2109 6.2969-1.7617 3.5781-1.0078 7.2031-1.9648 10.883-2.9219 0 0 7.5586-2.0156 9.4219-2.4688 4.082-1.0586 8.1602-2.0156 12.242-2.9727 0 0 6.8008-1.6133 8.3633-1.9648 5.9961-1.3594 12.09-2.6719 18.137-3.9297l2.6719-0.55469c7-1.4102 14.004-2.7695 21.055-4.0273 1.4102-0.25 7.9609-1.3594 7.9609-1.3594 4.4336-0.75391 8.8672-1.5117 13.352-2.2148 1.8125-0.30078 3.6758-0.55469 5.4922-0.80469l4.8359-0.70703c3.7266-0.55469 7.457-1.1094 11.234-1.6133 2.168-0.30078 4.3828-0.55469 6.6016-0.85547l6.2461-0.75391c2.0156-0.25 4.0312-0.50391 6.0469-0.75391l1.3594-0.15234-2.6211-12.898c-0.85547-4.2305-4.5352-7.3047-8.8164-7.3047h-0.70703l-6.8984 0.54688c-44.438 3.9805-90.031 13.352-135.52 27.91-1.5117 0.40234-2.9219 0.85547-4.2812 1.3086l-2.3164 0.75391c-4.332 1.4102-6.8516 5.8945-5.9453 10.48z"/>
  <path d="m456.82 420.96-1.3086 0.35156c-68.82 18.691-139.55 33.102-210.19 42.875l-1.3086 0.20312 2.3672 11.738c0.90625 4.5859 5.0391 8.0117 9.6211 8.0117 0.30078 0 0.60547 0 0.90625-0.050781l0.65625-0.050782c2.168-0.20312 4.2305-0.40234 6.3477-0.70703 16.121-1.6641 33.203-3.9805 50.836-6.8008 39.145-6.2969 79.098-15.367 118.7-26.801l3.6289-1.0586c2.9219-0.80469 5.793-1.6641 8.6641-2.5195l0.60547-0.20313c2.1133-0.60547 4.1289-1.1562 6.043-1.7617 4.7852-1.5117 7.7578-6.6016 6.8008-11.539z"/>
  <path d="m478.74 378.89c-0.85547-4.332-4.4844-7.3555-8.8164-7.3555-0.35156 0-0.70703 0.050782-1.0586 0.10156-1.9141 0.20312-3.9297 0.45312-5.8438 0.75391-11.184 1.4609-21.816 2.9219-32.344 4.4844-74.262 10.984-145.2 26.047-210.74 44.891-2.1172 0.55469-4.082 1.1094-6.0469 1.7109-4.5859 1.3594-7.3555 5.9453-6.3984 10.68l3.6797 18.34c0.85547 4.2812 4.6367 7.3555 8.9688 7.3555 0.35156 0 0.70703 0 1.0078-0.050781 85.898-10.629 171.65-28.113 254.88-51.992 4.5352-1.3086 7.3555-5.9961 6.3984-10.68zm-130.64 52.395c-1.0586 0.25391-2.1172 0.35156-3.1758 0.35156-3.0742 0-6.0977-0.90625-8.7148-2.6719-3.5273-2.3164-5.9453-5.9453-6.8008-10.125-1.7617-8.6172 3.8281-17.027 12.395-18.793 1.0586-0.20312 2.1172-0.30078 3.1758-0.30078 3.125 0 6.1445 0.90625 8.7148 2.6211 3.5781 2.3672 5.9961 5.9453 6.8516 10.125 1.7148 8.6172-3.8281 17.078-12.445 18.793z"/>
  <path d="m349.51 408.66c-1.3594-0.90625-2.9219-1.3594-4.5352-1.3594-0.55469 0-1.1094 0.050781-1.6641 0.15234-4.4844 0.90625-7.4062 5.3398-6.5 9.875 0.45312 2.2148 1.7109 4.1328 3.5781 5.3398 1.3594 0.90625 2.9219 1.4102 4.5352 1.4102 0.55469 0 1.1094-0.050781 1.6641-0.20312 4.5352-0.90625 7.457-5.3398 6.5508-9.875-0.45312-2.2148-1.7617-4.082-3.6289-5.3398z"/>
  <path d="m564.19 274.7-1.6133-0.45312c-2.9219-0.80469-5.3906-1.3086-7.707-1.6641l-0.90625-0.15234c-2.3164-0.30078-4.7852-0.55469-7.6094-0.60547l-1.3594-0.050781c-0.40234 0-2.0664 0.050781-2.0664 0.050781l-0.65625 0.050781-0.35156 0.50391c-7.9102 11.488-9.875 25.141-6.0977 41.715l0.15234 0.70703 0.70703 0.20312c3.6758 1.2109 7.5078 2.1172 11.387 2.7188 2.4688 0.35156 5.2383 0.60547 8.3125 0.70703l1.5625 0.10156-0.30078-1.5625c-2.8711-15.566-0.95703-29.32 5.6914-40.859z"/>
  <path d="m583.03 283.92c-2.9258-2.3203-6.4492-4.3828-10.48-6.1992l-1.0078-0.45312-0.55469 0.95703c-6.9531 10.832-8.7656 23.527-5.5938 38.793l0.20312 1.1602 1.1602-0.15234c7.8594-0.95703 14.508-3.2734 19.195-6.75 3.8281-2.8203 6.0469-6.0977 6.6016-9.8242 0.90234-5.8438-2.4727-12.039-9.5234-17.531z"/>
  <path d="m574.82 250.11 0.15234 0.65625c0.30078 1.1602 0.50391 2.3672 0.65625 3.5273l0.050781 0.80469c0.10156 0.95703 0.15234 1.9141 0.10156 2.8711v1.0586c-0.054688 1.2109-0.10547 2.418-0.30469 3.6289-0.15234 1.0078-0.35156 2.0156-0.60547 3.0234l-0.35156 1.2109c-0.20312 0.55469-0.35156 1.1602-0.55469 1.7148l-0.40234 1.1094 1.0586 0.65625c1.9648 0.85547 3.5273 1.6133 4.9883 2.3672 0.30078 0.20312 1.5625 0.90625 1.5625 0.90625 1.0078 0.60547 2.0664 1.2109 3.0742 1.8633l0.75391 0.50391 1.2109-0.35156c3.0742-2.6719 5.0898-6.3984 5.7422-10.48 1.4102-9.5234-5.1367-18.488-14.609-19.902-0.80859-0.15234-1.6172-0.20312-2.4219-0.20312l-1.8633-0.050781 0.75391 1.9141c0.45312 1.2578 0.75781 2.2148 1.0078 3.1719z"/>
  <path d="m523.07 275.61c-2.8711 1.2109-5.3398 2.6719-7.1523 4.2812-1.6133 1.3594-2.8203 2.6719-3.7266 4.1328-1.0078 1.5117-1.6133 3.125-1.8633 4.8867-1.1094 7.2539 4.4844 15.164 14.965 21.16l2.2148 1.2578-0.35156-2.5703c-1.7109-12.445-0.25-23.781 4.4844-33.656l1.1094-2.3672-3.5781 0.85547c-2.4219 0.65625-4.3867 1.3125-6.1016 2.0195z"/>
  <path d="m537.74 264.47c0.65625-0.10156 1.3594-0.10156 2.0664-0.15234 0.90625-0.050781 1.8633-0.10156 2.8203-0.10156l1.3086-0.050781h0.35156c1.5117 0.050781 2.6719 0.10156 3.7773 0.15234l1.8125 0.10156c1.7148 0.10156 3.4258 0.30078 5.1875 0.55469l0.90625 0.10156c2.0156 0.35156 4.0312 0.75391 6.0469 1.2109l3.1758 0.80469 1.1602 0.30078 0.35156-1.1094c0.65625-1.7109 1.0586-3.2227 1.3086-4.7344 0.20312-1.4609 0.30078-2.9727 0.25391-4.4336-0.15234-4.4336-1.5625-8.6641-4.0312-12.293-3.6758-5.543-9.3203-9.168-15.871-10.125-1.2109-0.20312-2.418-0.30078-3.6289-0.30078-4.9883 0-9.7227 1.5625-13.754 4.5352-5.0898 3.7266-8.4141 9.2695-9.3203 15.516-0.60547 3.9805-0.20312 8.0625 1.2109 11.84l0.45312 1.1094 1.1094-0.35156 1.1094-0.30078c1.0078-0.30078 1.9648-0.55469 2.9727-0.80469l1.2109-0.25391c1.4102-0.30078 2.3672-0.50391 3.3242-0.65625 0.60547-0.10156 1.2578-0.20312 1.8633-0.25 0.95703-0.15625 1.8672-0.25781 2.8242-0.30859z"/>
  <path d="m510.43 274.65 0.10156-0.25c0.45312-0.95703 0.75391-2.0156 0.90625-3.0234 0.95703-6.2461-3.3242-12.09-9.5234-13.047-0.55469-0.050781-1.1602-0.10156-1.7109-0.10156-2.418 0-4.6836 0.75391-6.6484 2.168-2.4688 1.8125-4.082 4.4844-4.5352 7.5078-0.95703 6.2461 3.3242 12.09 9.5234 13.047 0.55469 0.050781 1.1094 0.10156 1.6641 0.10156 2.0664 0 4.082-0.55469 5.793-1.6133l0.25391-0.15234 0.14453-0.20312c0.45312-0.65625 1.0078-1.3086 1.5625-1.9648 0.80469-0.90625 1.5117-1.6133 2.2656-2.2656z"/>
 </g>
</svg>