<?xml version="1.0" encoding="UTF-8"?>
<!-- The Best Svg Icon site in the world: iconSvg.co, Visit us! https://iconsvg.co -->
<svg fill="#000000" width="800px" height="800px" version="1.1" viewBox="144 144 512 512" xmlns="http://www.w3.org/2000/svg">
 <g>
  <path d="m633.85 496.77-62.977-62.977c-1.4727-1.4766-3.4766-2.3047-5.5625-2.3047h-118.08v-173.19c0.035156-8.6953-3.543-17.02-9.8828-22.977s-14.867-9.0117-23.547-8.4336c-8.6797 0.57422-16.73 4.7305-22.227 11.473-13.238-33.457-41.023-59.039-75.461-69.473-34.434-10.434-71.746-4.5781-101.33 15.906-29.582 20.48-48.195 53.348-50.547 89.25h-0.40234v362.11h440.84v-125.95h23.617c3.1797 0 6.0508-1.918 7.2695-4.8594s0.54297-6.3281-1.707-8.5781zm-202.36-65.281h-31.488v-141.7h31.488zm-31.488-173.19c0-5.625 3-10.82 7.8711-13.633s10.871-2.8125 15.742 0c4.8711 2.8125 7.875 8.0078 7.875 13.633v15.742l-31.488 0.003906zm-118.08-78.719c25.77 0.03125 50.582 9.7695 69.492 27.277 18.91 17.504 30.531 41.496 32.547 67.188h-204.07c2.0117-25.691 13.633-49.684 32.543-67.188 18.91-17.508 43.723-27.246 69.492-27.277zm-70.848 409.34v-15.742h31.488v15.742zm0-31.488v-15.742h31.488v15.742zm0-31.488v-15.742h31.488v15.742zm0-31.488v-15.742h31.488v15.742zm0-31.488v-15.742h31.488v15.742zm0-31.488v-15.742h31.488v15.742zm0-31.488v-15.742h31.488v15.742zm0-31.488v-15.742h31.488v15.742zm0-31.488v-15.742h31.488v15.742zm0-31.488v-15.742h31.488v15.742zm173.18 314.88h-204.67v-330.62h15.742v314.88h62.977v-314.88h125.95zm47.23 0 0.003906-31.488h15.742v31.488zm47.23-47.23h-15.738v-31.488h15.742zm-31.488 0h-15.738v-31.488h15.742zm15.742 47.23 0.007812-31.488h15.742v31.488zm125.95 0h-94.461v-94.465h-78.719v94.465h-15.742v-110.21h188.93zm15.742-125.95h-204.66v-47.23h162.05l47.23 47.23z"/>
  <path d="m573.18 525.95h-62.977v47.23h62.977zm-15.742 31.488h-31.492v-15.742h31.488z"/>
 </g>
</svg>