<?xml version="1.0" encoding="UTF-8"?>
<!-- The Best Svg Icon site in the world: iconSvg.co, Visit us! https://iconsvg.co -->
<svg fill="#000000" width="800px" height="800px" version="1.1" viewBox="144 144 512 512" xmlns="http://www.w3.org/2000/svg">
 <g>
  <path d="m473.51 460.43c0.98047 5.8789 1.9648 11.758 2.9688 17.766 2.0156 0.58203 1.8555-3.875 4.3398-2.1328 2.3555 1.6484 0.60547 3.8984 0.65234 5.8867 0.085938 3.5859 0.19141 7.1719 0.28906 10.824l0.003906 0.003906c0.92188 0.30859 1.9414-0.0625 2.4453-0.89453 3.4102-2.7617 4.7969-0.48438 5.2422 2.4102 0.20703 3.9688 0.73438 7.9141 1.582 11.793 0.84766-0.35156 1.4062-1.168 1.4297-2.082 0.046875-0.41016 0.27344-0.77344 0.61719-1 0.34766-0.22266 0.77344-0.28516 1.1641-0.16406 0.41406 0.011719 0.80078 0.21094 1.0508 0.54297s0.33203 0.76172 0.22656 1.1602c-0.30469 9.3086 2.9531 18.445 1.375 27.801v0.003906c-0.42578 0.89063-0.33594 1.9414 0.23047 2.7539 6.4258 4.6992 4.375 12.016 5.6055 18.23 2.5195 12.734 2.5977 25.773 4.2344 39.496 0.83203-1.7422 0.77344-3.8984 2.2461-3.5547 2.7695 0.64062 2.2578 4.0742 4.1914 5.9062 5.3281-7.3555 4.1445 1.8633 7.3672 2.9766-2.2344-6.0703-0.70703-11.703-1.5898-17.492-1.1758-5.3555-1.6445-10.84-1.3945-16.312-0.003906-3.7305-0.58594-7.4336-1.7305-10.984-0.26562-1.3477 0-4.6367-3.8594-2.418-2.1719 1.2461-1.6445-2.0781-1.6914-3.3633-0.42578-12.266-0.66406-24.539-1.0742-36.809l0.003906-0.003906c0.35156-2.5898 0.050781-5.2305-0.87891-7.6797-0.44141-0.78906-0.82812-2.1016 0.43359-2.4336 0.57812-0.11328 1.1797 0.066407 1.6016 0.47656 0.42578 0.41016 0.62109 1.0039 0.52734 1.5898 0.22266 3.5898 0.33203 7.1875 0.4375 10.781 0.26172 8.9727 0.57031 17.941 0.69922 26.918 0.042969 2.9375 2.6289 3.7305 4.457 7.0312 0.53906-7.668 1.75-13.996 1.6992-20.152-0.11719-13.57 3.9492-26.699 3.4062-40.262h-0.007812c-0.13281-2.8008 0.76562-5.5508 2.5312-7.7305 1.207-1.7266 1.8984-3.7578 2.0039-5.8594 0.21484-1.3672-0.85938-3.7773 1.7031-3.9141 2.8984-0.15234 1.543 2.6875 2.5 4.2656 2.3047-1.543 3.5195-4.2695 3.1328-7.0195 0.035156-5.6875 0.88672-11.34 2.5312-16.781 1.25-4.4375 1.7422-4.6836 5.8242-1.4688-0.38281-6.2031-1.5859-12.402 3.0273-17.793v-0.003906c0.76562 1.8828 0.70312 3.9922-0.16016 5.8281-0.5625 3.0078-0.54297 6.0977 0.050781 9.0977 1.2266 4.5781-0.32422 6.457-4.9453 6.2031-2.3438-0.12891-1.9961 1.5352-2.0742 2.3359v0.003907c-0.65625 3.5234-1.0898 7.0898-1.293 10.668 0.61328 4.9961-1.7148 9.8945-5.9688 12.578-1.3633 1.1875-1.9844 3.0117-1.6328 4.7812-0.35156 2.7812 0.98438 6.4414-3.5156 7.4258-0.99219 0.21875-0.87891 1.6641-0.80469 2.6211 0.97656 12.609-3.7539 24.625-3.7734 37.164-0.023438 13.398-0.96875 26.797 0.16016 40.191h0.003906c-0.015625 0.64062 0.19141 1.2656 0.58984 1.7695 5.1094 3.832 2.0664 8.8125 1.9375 13.359-0.23047 8.1094-0.59375 16.215-0.72656 24.324-0.039062 2.4609-0.3125 4.1172-3.3281 4.1836-3.9844 0.089844-7.9648 0.44141-11.941 0.76953-0.64453 0.14844-1.3242-0.035156-1.8125-0.48828-0.48438-0.44922-0.71484-1.1133-0.61719-1.7695-1.1016-13.434-2.4805-26.852-3.2383-40.305 0.22266-10.414-1.332-20.789-4.5977-30.676-3.6328-8.4805-1.0312-17.105-4.0156-25.164-0.49609-1.3359 0.37891-3.3086-2.6484-2.7031-1.5234 0.30469-1.8086-2.2188-1.9805-3.7969h-0.003906c-1.207-4.7812-1.7891-9.6992-1.7305-14.629-0.47266-0.070313-0.95312-0.050781-1.4219 0.058594-1.4961 1.3281-2.2969 4.1797-4.8008 3.3711-2.1055-0.67578-1.2812-3.4062-2-5.1445-0.98047-2.3711 1.1016-6.0508-3.7305-6.8008-1.4844-0.23047-0.36328-4.0469-2.3047-5.8008v0.003906c-0.87109 2.1172-2.3086 3.957-4.1602 5.3125-3.2344 1.125-4.0508-1.7227-5.8633-3.3516-1.6797 4.2734-4.6523 7.9141-8.5039 10.418-5.8633 3.3281-9.707 1.2344-10.301-5.4805-0.054687-0.63281-0.14062-1.2578-0.25-2.2656v-0.003907c-3.6875 3.2773-7.0859 6.8633-10.156 10.723-2.2969 2.2383-4.832 5.6797-7.9648 0.76953-0.98828-1.5508-1.4688-0.35547-2.0352 0.35547-1.4062 1.9844-2.9336 3.8789-4.5742 5.6758-4.4336 4.3242-7.6211 3.457-9.5117-2.4023-0.32812-1.0156-0.62891-2.0352-0.97266-3.1406-6.8984 8.2266-10.582 10.562-15.594 6.1133-0.87109 1.1406-1.7344 2.2969-2.6211 3.4336-4.6367 5.9492-8.4609 5.7031-12.238-0.74219-0.52344-0.89453-0.22656-2.5508-2.4922-1.6641-8.1836 3.207-10.242 2.0781-12.488-6.1758v0.003906c-0.30469 0.039062-0.59375 0.16016-0.83984 0.34766-0.79688 3.7969-3.9102 6.6758-7.7578 7.1719-4.5625 0.039063-6.6914-4.5664-8.1836-8.1562-1.1914-2.8594-2.0312-1.5625-4.0547-1.7695-8.1445-0.82812-5.1992 4.6719-6.1328 8.6055v0.003906c-1.6406 7.707-2.6094 15.543-2.8906 23.418-0.17188 3.8359-0.14062 7.6836 0.089844 11.52 0.09375 14.996-0.63281 29.984-2.168 44.902 0.25391 3.8477 0.25781 7.7109 0.007813 11.562-0.33203 5.4297-4.5312 9.8281-9.9375 10.41-2.4688-0.25781-4.9492-0.3125-7.4258-0.16406-3.1523 1.3125-6.5703 1.8555-9.9727 1.5898-6.0977 0.24609-7.6914-2.043-7.3516-8.2422 0.71875-15.332 0.66016-30.691-0.17969-46.016-0.27734-5.9102 0.75391-11.711 0.54297-17.586l-0.003907-0.003906c-0.38672-14.191-1.832-28.332-4.3164-42.309-1.4609-7.8086-3.8125-15.426-7.0078-22.703-0.96484-4.3008-5.1289-7.0938-9.4727-6.3516-2.5312 0.48047-5.4414-3.5117-7.6602-5.6641-2.9297-2.8398-5.0039-6.0234-9.7148-5.6484v-0.003907c-1.0586-0.42969-1.9062-1.2578-2.3594-2.3047-0.92969-1.5859-1.4688-2.3047-3.6914-1.3398v0.003907c-2.5273 0.42578-4.9922-1.0273-5.8398-3.4453-2.9141-4.2656-6.2422-8.2305-9.9453-11.832-2.793-3.7305-4.2305-8.3008-4.0664-12.961 0.10547-0.95312-0.035156-1.918-0.41016-2.8047-8.9141-5.2891-5.3828-13.738-5.3281-21.184-0.25391-2.582-0.019531-5.1914 0.69922-7.6875 0.64062-1.6562-0.14453-3.6094-3.0078-2.3086-3.1719 1.4375-3.9766-0.37109-3.8125-3.25 0.09375-1.6289 0.41406-3.1953 0.65625-4.7891l-0.003907 0.003906c1.5781-12.523 4.0859-24.914 7.5-37.066 0.48438-1.5703 2.4609-4.543-2.0703-4.1914-0.83984 0.066407-0.95312-1.5039-0.81641-2.8359h-0.003906c0.94531-11.355 4-22.434 9.0039-32.672 1.0703-2.0977 1.8555-4.3398 2.9375-6.9023h0.003906c-2.0078 0.97656-3.7461 2.4297-5.0703 4.2266-0.74609 0.58203-1.3555 1.6094-2.418 0.62891-0.55469-0.625-0.56641-1.5664-0.027344-2.207 4.918-11.617 8.9492-23.59 12.062-35.816 1.0156-3.9453 1.707-7.9609 2.0664-12.016 1.0312-3.1719-0.19531-6.6406-2.9922-8.4531-1.5898-1.1719-2.6211-2.9492-2.8398-4.9102-0.48047-6.8203-2.1523-13.93 0.26562-20.453h-0.003906c3.25-8.8398 7.457-17.301 12.551-25.223 1.0625-1.457 2.2969-2.7773 3.6797-3.9336 1.9844-1.832 3.2773-1.168 3.5664 1.3555 0.96484 8.4219 2.1953 16.836 2.6211 25.289 0.24609 4.9062 1.3828 9.6875 1.3945 14.59h0.003906c-0.058594 0.64453 0.0625 1.293 0.34766 1.875 4.1836 1.2344 8.6211 1.3711 12.871 0.38672 5.1094-5.4297 9.6289-11.383 13.477-17.77 3.543-4.9805 7.9766-9.5273 7.9609-16.305 0.20312-1.3672 1.4219-2.3477 2.8008-2.25 1.6133-0.44531 3.3242 0.25781 4.1562 1.7148 5.4922 9.3789 7.9258 18.727 0.8125 28.656-2.4609 3.4336-4.875 6.9023-7.4258 10.27-0.59766 0.78906-1.2578 2.418-2.5938 1.543-1.3672-0.89453-0.023437-1.7188 0.42188-2.7344h-0.003906c1.6562-2.9844 3.6445-5.7695 5.9297-8.3047 2.918-3.6484 4.5195-8.1758 4.543-12.848s-1.5273-9.2188-4.4062-12.898c0.84375 12.715-5.8477 23.598-8.1602 35.523-0.32812 1.6836-0.55469 3.0156-2.4883 2.75-2.5078-0.34766-1.3125-1.9961-0.95703-3.3281 2.2656-8.5234 4.5156-17.055 7.0781-26.766-3.9023 4.2773-7.4023 8.9062-10.445 13.828-3.4297 4.9531-7.4609 9.4648-11.992 13.43-1.207 1.0039-2.3945 2.168-3.8008 0.89844-2.4609-1.9375-5.8008-2.3281-8.6445-1.0156-3.293 0.67578-6.5742-1.2227-7.6328-4.4141-3.3086-5.8477-4.6328-12.613-3.7773-19.277 0.53125-1.9062 0.25391-3.9492-0.76563-5.6484-2.3164 2.9062-3.5352 6.5312-3.4453 10.246 0.63672 6.8047 1.0156 13.688 1.2578 20.461 0.0625 9.2891-1.1562 18.547-3.6211 27.504-2.3047 9.375-5.207 18.562-8.6328 28.723 1.4375-0.98438 1.9219-1.3008 2.3867-1.6406 1.0195-0.75 2.1367-2.1094 3.3555-0.98828h-0.003906c0.78906 1.0938 0.80469 2.5703 0.042968 3.6836-1.7422 3.8281-3.4219 7.6875-5.1758 11.512-3.168 6.4023-5.3047 13.262-6.3398 20.332-0.28906 2.457-4.2852 6.457 2.3281 6.9297 1.293 0.09375 0.53906 1.7891 0.3125 2.918-2.4961 12.25-3.2266 24.855-7.625 36.727v-0.003907c-1.2109 3.6641-1.7031 7.5273-1.4531 11.375 1.4492 1.0469 1.7227-0.56641 2.5195-0.76953 2.7617-0.69531 5.0195-0.94922 4.0742 3.2773v0.003906c-1.1758 7.582-1.4414 15.277-0.79297 22.926-0.19531 1.1914 0.28516 2.3945 1.25 3.1211 0.23047 0 0.45703-0.058594 0.66016-0.17188 1.1562-1.0625 0.54688-3.9531 2.3906-3.707 2.3008 0.30859 1.5039 2.7734 1.5469 4.5039 0.29688 2.2656 0.39062 4.5508 0.28125 6.8359-0.50391 5.7109 1.8281 11.301 6.2344 14.969 2.9531 4.1797 6.3164 8.0586 10.039 11.57 1.9766-3.1875 3.8398-3.918 5.4648 0.81641 1.4062 4.1016 6.5391 2.418 9.1719 5.1211 0.92188 0.78906 1.7852 1.6445 2.582 2.5586 2.0039 3.4297 5.4688 5.7578 9.3984 6.3164 4.5273 0.91797 8.1992 4.2266 9.5781 8.6328 6.5 16.023 10.016 33.094 10.375 50.379 0.54688 20.016 1.0703 40.035 1.5742 60.051 0.058593 2.2734-0.40234 4.957 3.5898 3.4961 0.65625-0.16016 1.3516 0.019531 1.8516 0.47656s0.73828 1.1328 0.63281 1.8008c0.042969 1.1836-0.34766 3.0938 1.6797 2.8047 2.2852-0.32422 1.2227-2.3711 1.0898-3.5781-0.79688-7.2695-1.5742-14.547-2.7305-21.766v0.003906c-0.99609-9.1484-1.0977-18.371-0.30078-27.535 0.65625-13.293 2.0117-26.543 4.0586-39.695 1.2148-7.4414 1.2188-15.031 0.019531-22.477-0.21484-1.207 0.27734-2.7305-1.7383-3.1875v-0.003906c0 4.0078-0.22266 8.0078-0.66797 11.988-0.03125 1.6875-1.3203 3.0859-3 3.25-1.7656 0.019531-3.5625-1.3555-4.7852 1.6953-0.50781 1.2656-2.5156-0.70703-3.4102-2.1875-3.0664-5.0547-3.3281-11.098-7.0117-16.898l-0.003906 0.003906c3.1797 0.21094 5.6133 2.9102 5.4883 6.0938 0.74219 5.3867 5.5586 5.8672 8.8438 8.0234 1.5742 1.0352 2.6562-0.99219 2.4492-2.5234-0.73438-5.4844 2.0977-11.008-0.25781-16.465v0.003906c-0.23437-0.33984-0.32031-0.76562-0.23047-1.168 0.085937-0.40234 0.33984-0.75391 0.69531-0.96484 0.47266-0.17578 1-0.125 1.4336 0.12891 0.43359 0.25781 0.72656 0.69922 0.80078 1.1992 0.80078 2.8984 2.5195 5.457 4.8984 7.2969-2.3164-9.332-4.6016-18.426-6.8203-27.535-0.60547-2.4883-1.7734-5.2617 2.1914-6.2539 0.41016-0.085938 0.76172-0.34375 0.97266-0.71094 0.20703-0.36328 0.24609-0.79688 0.11328-1.1953-2.0938-4.7969-2.9844-10.035-2.5938-15.254-0.52734-2.3477-1.6211-4.5352-3.1875-6.3633-1.7539-3.5078-4.1523-7.0781 1.1992-9.8281 1.4023-0.72266 0.15625-1.6328-0.41406-2.3008-1.6992-1.9844-3.4023-3.9648-5.1836-5.875v0.003906c-0.48047-0.3125-0.81641-0.80469-0.93359-1.3672-0.11719-0.55859-0.003907-1.1445 0.3125-1.6211 1.0078-0.95703 2.0352-0.058594 2.6758 1.0352 3.5703 5.2891 7.8633 10.047 12.758 14.141 0.75781 0.72266 2.1758 1.3945 1.0625 2.7539-1.3828 1.6914-2.25-0.13281-3.1406-0.73047-2.1797-1.457-4.2031-5.4219-6.7109-3.2734-2.1992 1.8789-0.011719 5.4023 1.5039 7.9648l0.003906 0.003906c1.4922 4.1328 4.0469 7.8008 7.4062 10.637-5.3047-0.046875-5.1836 2.0703-3.7969 4.9688h-0.003907c1.1172 4.0391 2.5234 7.9922 4.2188 11.824 0.65625 0.98438 1.7266 2.5391 0.10156 3.4258-1.7773 0.97266-1.668-1.3086-2.5078-2.0117-0.61328-0.51562-1.1211-1.1562-2.1211-2.2148-0.52734 4.0664-0.058594 8.1992 1.3633 12.047 1.1055 5.8828 2.5977 11.684 4.4648 17.371 0.65625 1.0156 0.51172 2.3555-0.34766 3.207-5.1953 3.7734-3.0859 8.043-0.99219 12.363 0.32031 0.88281 0.58203 1.7852 0.77734 2.6992 1.1641-2.9492 2.1133-5.332 3.043-7.7266l-0.003906 0.003906c0.14844-1.3398 1.1445-2.4297 2.4648-2.6953 2.2266-0.14844 1.3867 1.793 1.7383 2.832 1.5625 4.5977 0.49609 9.8398 3.3828 14.105 0.57031 0.84375 0.57813 2.582 2.0547 2.2422h0.003906c0.76172-0.55469 1.3477-1.3203 1.6836-2.207 1.0352-1.6172 1.5859-3.4688 2.5312-5.1641 2.168-3.8828 3.6055-2.5625 5.5664 0.027344 1.1484 1.5195 0.58594 5.0195 3.6055 4.3164 2.6484-0.61719 1.8164-3.4141 1.8867-5.4766 0.035156-1.0312-0.49609-2.4453 1.4023-2.5v0.003906c1.1953 0.10547 2.0898 1.1445 2.0195 2.3477 0.27734 3.5508 1.1719 7.0312 2.6367 10.277 0.75 2.3516 2.5625 4.2109 4.8945 5.0195 2.6211-0.54297 4.6875-2.5664 5.2852-5.1797 0.0625-0.14844 0.14453-0.29297 0.24609-0.42188 2.0078-2.0117 0.19531-7.3359 3.918-6.8086 2.8711 0.40625 1.2461 5.1289 2.1758 7.8281 0.94531 2.7461 0.75781 6.3281 5.0117 5.7969h-0.003907c1.6836 0.074219 3.2969-0.66406 4.332-1.9922 1.0391-1.3281 1.3672-3.0742 0.88281-4.6875-0.21875-1.1992-0.42969-2.957 1.4531-3.0352 1.6094-0.066407 1.293 1.6094 1.4844 2.6406 0.41797 2.2344 0.75781 4.4805 1.0625 6.7344l0.003906 0.003906c0.21875 2.1914 1.7812 4.0156 3.9141 4.5625 1.7969-0.050782 3.4453-1.0039 4.3828-2.5352 3.207-3.3281 3.1953-7.9805 4.9062-12.5 1.3711 1.9102 2.1328 4.1875 2.1836 6.5352 0.71484 3.2109 2.1602 3.2656 4.4141 1.8984 4.2266-2.5 7.4453-6.3945 9.1133-11.016 0.45703-1.2422 0.71484-2.8984 2.457-2.2188 1.2344 0.48047 0.79688 2.0273 0.50391 3.0664l-0.003906 0.003907c-0.89453 2.9766-0.78906 6.168 0.30859 9.082 1.0742 2.9219 2.7266 2.6797 4.3281 1.0977h-0.003906c3.8906-3.0117 6.5469-7.3438 7.4688-12.176-0.12891-2.2461 1.0898-4.3516 3.1016-5.3516 1.8242 2.3672-0.48438 4.5664-0.25391 6.8242v-0.003906c-0.10547 1.6289 0.52344 3.2188 1.7109 4.3359 1.5586 0.875 2.4258-1.1719 3.3789-2.168 5.082-4.0664 9.4492-8.9492 12.922-14.453 0.14453-0.48047 0.5-0.875 0.96484-1.0664 0.46484-0.19141 0.99219-0.16406 1.4336 0.074219 1.3516 0.70703 0.19531 1.668-0.003906 2.5039l0.003906 0.003906c-0.20703 0.4375-0.36719 0.89453-0.48828 1.3672-0.058594 3.4062-1.9883 7.2656 1.7656 9.8477 2.1094 1.4531 7.4297-1.4531 9.5898-5.1016h0.003906c2.4023-4.125 3.2852-8.9609 2.4883-13.664-0.19531-1.3984-0.88672-3.8594 1.1602-4.1406 2.2578-0.30859 2.4883 2.2734 2.8203 3.9062l-0.003906-0.003907c-0.011719 2.9297 0.40234 5.8477 1.2344 8.6602 0.36719 0.71094 0.47656 1.8125 1.4688 1.5234 0.73047-0.30469 1.2695-0.94922 1.4336-1.7266 0.52734-2.8789 0.84766-5.793 0.94922-8.7188 0.14062-4.043 0.82031-8.0469 2.0312-11.91zm-145.02 131.04c-0.19141-6.0391-0.058594-12.086 0.39453-18.113 1.9219-13.527 1.4023-27.215 2.0234-40.828l0.003907 0.003906c-0.35156-7.5703 0.15234-15.156 1.4961-22.613 1.5312-4.2539 1.1602-8.957-1.0195-12.918-3.6875 3.9375-5.5859 1.5352-7.5664-1.9336-1.9023-3.3281-1.707-7.2695-3.4297-10.77l-0.003907 0.003907c-1.1523 1.8438-1.8867 3.918-2.1445 6.0781-0.41406 0.89453-0.75781 2.4453-1.5117 2.1836-4.4336-1.543-3.2344 1.9766-3.5742 3.8828h0.003907c-0.76172 4.1016-1.2695 8.2461-1.5234 12.406-0.44141 8.1055-0.042969 16.238-1.0859 24.336-0.65625 5.1016-3.2695 10.266-1.3984 15.348 2.0117 5.8516 2.4961 12.117 1.4062 18.207-0.75 5.1836 1.9805 9.8555 1.6836 14.941-0.10156 1.7617-1.7227 4.7695 2.6797 3.8516 1.0781-0.22266 1.6875 1.793 1.7773 3.0977 0.15234 2.1523 0.14062 4.3203 0.19922 6.4805l0.003906-0.003907c1.0078-1.1523 1.6758-2.5664 1.9219-4.0781-0.18359-1.6602 0.90234-3.1914 2.5273-3.5664 1.8516 0.007812 1.1523 2.3711 1.9375 3.5195 1.207-1.457 0.5-4.6406 2.6133-4.6719 2.7578-0.039062 1.2227 3.2148 2.5859 5.1562zm-69.684-375.7c0.73828-7.0938-2.0547-13.727-2.8398-20.609-0.27734-0.73828-0.70703-1.4062-1.2578-1.9688-0.67188 0.41406-1.3125 0.875-1.9141 1.3867-0.61719 0.59375-0.98828 1.3828 0.042969 1.9453 2.1562 1.168 1 2.7656 0.93359 4.4727-0.32031 7.9961-1.7422 16.133 1.6328 23.844 0.42188 0.96094-0.011718 3.1719 1.9141 2.8086l-0.003907-0.003906c1.4219-0.55859 2.168-2.1211 1.7148-3.5781zm-16.078 0.36719v0.003907c-2.4961 7.0508-2.0781 14.809 1.168 21.551 0.37891-7.2188-1.3281-14.285-1.168-21.551zm265.75 393.47c3.0977 0.8125 6.3438 0.91406 9.4844 0.28906 1.332-0.29688 2.2461-0.23438 1.8555-1.7344-0.30078-1.1484-0.92188-1.6641-2.4766-1.0625h0.003906c-2.9141 0.98438-5.8711 1.8203-8.8672 2.5078z"/>
  <path d="m471.56 322.13c0.49609-2.8125 3.4766-2.7539 5.1641-4.1445 2.3906-1.9727 3.625 0.37109 4.7656 2.5898 1.1484 0.97266 2.7422 1.2305 4.1406 0.66797 3.4102 0.082031 6.8203-0.23828 10.16-0.95703 0.42969-0.19922 0.91797-0.23828 1.375-0.10938 2.6953 4.1836 7.9922 3.6055 11.352 6.1484 5.0273 3.8047 9.6016 7.7695 16.527 5.5469h-0.003907c0.97656-0.36719 2.0664 0.11719 2.4453 1.0859 3.9102 8.3438 12.621 8.6562 19.645 11.941 9.3398 4.3711 17.699 9.6133 20.641 20.938v0.003906c1.3242 6.0703 3.6484 11.883 6.8789 17.191 1.75 3.0977 3.1641 6.375 4.2188 9.7734 0.61328 1.0273 0.41016 2.3477-0.48438 3.1406-1.3477 0.9375-1.7461-1.1602-3.3359-1.1094 3.582 12.82-3.6602 23.012-8.2539 33.844h-0.003907c-1.4688 2.1367-2.3086 4.6445-2.4219 7.2344 0.39062 2.918-2.7148 2.7305-3.707 4.4531-1.668 2.957-2.9023 6.1367-3.6719 9.4453-0.015625 0.57812-0.26562 1.125-0.6875 1.5195s-0.98438 0.60547-1.5625 0.58594c-1.3945-0.23438-0.94531-1.5742-1.1875-2.6641-2.2852-10.211 1.25-20.602-1.0547-30.805-0.074219-1.4609 0.11719-2.9258 0.57031-4.3164 2.0273-11.699 0.51172-23.504 1.1562-35.207 0.77344-6.4141-1.0938-12.867-5.168-17.883-0.55078-0.66406-2.6406-1.9766-0.45703-3.0234 1.3008-0.32422 2.6289 0.41797 3.0352 1.6914 4.3164 5.8711 6.1914 13.184 5.2344 20.406-0.50391 6.9648-0.23828 13.965 0.79687 20.867-0.28906 4.332-0.84375 8.6445-1.6719 12.906-0.27734 7.8086 1.5273 15.629-0.19141 23.414-0.14062 0.39453-0.11328 0.83203 0.082031 1.2031 0.19531 0.37109 0.53906 0.64453 0.94531 0.75 0.40234 0.011719 0.79688-0.14062 1.0859-0.41797 0.29297-0.27734 0.46484-0.66016 0.47266-1.0664 0.75-2.9648 1.375-5.9688 1.8945-8.9805 0.21484-1.25 0.99219-2.8477 1.8398-2.3398 4.1094 2.4531 3.6328-1.4062 3.8555-2.9688 0.48828-3.457 3.6602-5.4414 4.332-8.5469v0.003906c2.6016-7.9492 3.1055-16.43 1.4727-24.629-0.88672-1.9414-0.96094-4.1562-0.21484-6.1562 0.4375-0.9375 0.13281-2.0469-0.71875-2.6328-4.3125-3.7344-4.5273-9.1211-5.5547-14.105-0.125-5.0039-3.3984-9.3828-8.1602-10.926-0.97656-0.125-1.8672-0.60938-2.5039-1.3594-2.5234-7.2227-9.6523-7.2773-15.133-9.7031-4.7383-1.6758-9.0664-4.3438-12.688-7.8242-1.2148-1.582-3.0781-2.5312-5.0703-2.5898-5.5469 0.12891-9.5625-3.6758-14.312-5.2773-6.9414-2.3398-12.617-9.4883-21.465-5.9727-3.2031 0.88672-6.6328 0.37891-9.4453-1.3984-1.4297-1.125-3.4141-1.2266-4.9531-0.26172z"/>
  <path d="m291.73 308.74c-5.125-0.10938-10.172-1.293-14.809-3.4844-5.3086-2.2812-11.082-3.1992-16.363-6.0195v0.003906c-2.6758-0.98828-4.5898-3.375-4.9688-6.2031-0.14844-1.9297-0.59766-3.8242-1.3359-5.6133-0.85547-1.6836-0.32812-2.7109 0.98047-3.0664 0.65625-0.16406 1.3477 0.035156 1.8203 0.51953s0.65234 1.1836 0.47266 1.8359c-0.53516 8.6758 5.875 11.055 12.191 13.172 6.0547 2.2539 12.305 3.9453 18.672 5.0508 4.7305 1.2109 9.7578 0.089844 13.523-3.0195 1.5664-0.91406 2.3555-2.7422 1.9492-4.5117-0.72266-2.3594-2.582-0.25-3.6445-0.82812-4.8008-2.6289-9.1289-0.16797-13.551 1.1055-3.4531 0.99609-5.8828-2.2812-9.1602-2.0195h0.003906c-0.3125-0.10156-0.5625-0.33203-0.69141-0.63281-0.12891-0.30078-0.125-0.64062 0.015625-0.9375 0.097656-0.49219 0.39844-0.91797 0.82812-1.1758 0.42969-0.25781 0.94531-0.32422 1.4258-0.1875 4.0195 0.69922 8.1562 0.11719 11.832-1.6562 1.5156-0.41797 3.043-0.60156 3-2.5 0.30469-1.9766-0.82812-3.8867-2.707-4.5664-3.3984-1.2227-6.2148-3.668-7.8984-6.8594-0.72656-0.91797-1.0586-2.0859-0.92187-3.25 0.13672-1.1602 0.72656-2.2227 1.6484-2.9453 1.0156-0.39062 2.1484-0.32812 3.1172 0.16406 0.96875 0.49609 1.6836 1.3789 1.9609 2.4297 1.3477 3.5859 2.7188 1.6445 4.2148 0.51562h0.003906c1.3477-1.8242 3.1406-3.2695 5.207-4.1992 1.4648-0.3125 1.1484-2.5 0.41797-3.3281l-0.003906 0.003906c-0.98438-1.4609-2.1289-2.8047-3.4141-4.0078-5.0273-3.6914-6-6.5117-3.0625-11.527 1.7188-2.9297 1.4961-4.1055-1.3359-5.6211-1.1758-0.62891-3.5117-1.6523-2.2656-3.6289 1.3242-2.0977 2.9492-0.33984 4.082 0.625 4.3008 3.6602 8.2461 4.3789 11.867-0.875 0.17578-0.47266 0.57031-0.82812 1.0586-0.94922 0.48828-0.12109 1.0039 0.007813 1.3828 0.33984 0.61719 0.58984 0.65625 1.5664 0.082031 2.2031-0.19922 0.44141-0.44922 0.85938-0.73828 1.25-5.3477 5.6719-5.0391 13.363-4.9844 19.898v-0.003907c-0.49609 7.4883 0.85938 14.984 3.9453 21.824 1.1133 2.3438 1.8711 4.8359 2.25 7.4023 0.875 6.3594-3.1602 12.367-9.3828 13.961-2.2109 0.56641-4.4531 1.0039-6.7148 1.3125zm6.9023-34.277c0.15625 3.4219-6.9453 7.0273 0.61328 10.223 0.94141 0.39844 0.66406 1.7617 0.16406 2.6562-0.41406 1.2305-0.55859 2.5391-0.42187 3.832-0.32813 2.9609 1.707 2.5547 3.457 2.4609 2.8281-0.15234 1.3672-2.1133 1.0742-3.1719-2.1055-5.1758-3.7422-10.531-4.8828-16.004z"/>
  <path d="m471.56 322.11c-6.6406 0.89062-13.367 0.93359-20.02 0.12891-12.289-1.5742-24.73-1.5391-37.012 0.10938-5.0039 0.77344-9.9453 1.8906-14.797 3.3398-2.7617 0.70312-5.3555-0.53906-8.1953 0.37891-3.4648 1.1211-6.957 1.8984-10.418 3.3125-3.7539 1.6328-7.9297 2.0273-11.922 1.1328-5.6719-0.58594-11.406-0.050781-16.871 1.5742-2.4297 0.83984-5.0195 1.0938-7.5664 0.73828-3.9648-1.2656-5.6523 2.8008-8.9766 3.5312-6.1992 1.3555-12.375 0.38672-18.5 1.1875-1.5039-0.45312-2.8398-1.3398-3.8359-2.5547-0.19141 0.21875-0.32422 0.48438-0.38281 0.77344 0.75391 2.1758 2.8984 4.8945 0.16406 6.418-2.8047 1.5625-4.7422-1.1406-6.0898-3.4375-1.9492-3.3203-3.7305-6.7383-5.582-10.113l-0.011719 0.039062c2.4766-1.3906 2.6719 0.35547 3.6328 2.1133 1.9883 3.6367 2.082 8.7031 7.2734 10.547-0.050781-2.1055-0.83594-4.125-2.2188-5.7148-0.84766-2.4727-0.58203-3.8633 2.6602-4.0781 4.2969-0.28516 7.4453 2.7188 11.516 3.25 3.7656 0.48828 7.2734-0.0625 10.773 0.17969 0.64453-2.2148-2.0391-2.5703-1.4297-4.3125 2.5742-1.6484 5.2695 0.14844 7.9609-0.13281 2.6367-0.27344 5.7305 1.8125 7.0938-2.3945l-0.003906-0.003906c0.80469-0.50391 1.8008-0.60938 2.6914-0.28125 3.4883 2.3984 7.0469-0.14453 10.484 0.58594 0.89453-1.6992-2.207-2.4258-0.78906-3.7969 1.1836-0.57031 2.582-0.44531 3.6445 0.32422 4.5664 1.1289 8.125 5.7109 13.535 3.957 0.61328-0.19922 1.2852-0.21094 1.9219-0.34766v-0.003906c0.09375-0.14453 0.15234-0.30859 0.16797-0.48047 0.085937-1.2305-0.90234-0.99219-1.6328-1.1562h0.003906c-0.57812-0.003907-1.125-0.26953-1.4883-0.71875-0.36328-0.45312-0.50391-1.043-0.38672-1.6055 0.34766-1.2461 1.6328-0.57812 2.5391-0.625 3-0.16406 6.1328 2 8.8594-1.9297 1.1367-1.6367 4.8242 0.33984 7.3594 0.76172 2.4258 0.40625 6.1875 3.1719 6.6406-2.418v-0.003906c0.22656-0.39062 0.58984-0.68359 1.0234-0.81641 4.1602 3.4219 7.6289-1.6523 11.875-0.86719 5.332 0.98828 12.023 2.207 16.195-0.12891 4.8867-2.7383 8.8164-0.92969 13.141-1.3711 2.7812 0.375 5.4492 1.3203 7.8438 2.7812 4.9844 1.3594 10.168 1.8633 15.32 1.4844 1.3086-0.19531 2.6445 0.039062 3.8047 0.66797z"/>
  <path d="m280.8 368.57c-3.0664-6.6523-3.5742-13.934-6.3711-21.125-2.3008 4.8477-3.9258 9.9883-4.832 15.273-0.89453 3.0859-1.2188 6.3359-2 9.4609l0.003906 0.003906c-0.17187 1.5234-1.3789 2.7188-2.9023 2.8789-1.1797-0.17969-2.0039-1.2578-1.8672-2.4453-1.6211-7.9219-2.2344-16.016-1.8281-24.09-1.6328-0.082032-1.4961 1.0586-1.7227 2.1016-2.2148 9.9297-4.9688 19.73-8.25 29.363-0.074219 2.0156-1.5469 3.7031-3.5352 4.0547-1.7734-0.92969-2.6758-2.9531-2.1875-4.8984-0.39453-7.9805-0.29297-15.98 0.3125-23.949 0.25781-0.95703 0.21094-1.9648-0.14062-2.8906-3.7383-4.6289-0.55859-8.4727 1.5352-12.523 1.1133 13.465-0.71484 26.977 1.0234 40.566 6.5547-12.648 8.5391-26.758 12.918-40.273 3.6914 9.8867-0.15234 20.789 4.8555 30.715 1.1484-4.1367 2.3242-8.3828 3.5078-12.629 1.168-4.1797 2.3594-8.3555 3.5039-12.539 0.29688-1.0859 0.33203-2.5078 1.8242-2.418l0.003906-0.003906c1.1758 0.20703 2.0625 1.1836 2.1602 2.375 0.67578 3.3164 1.2461 6.6562 1.8164 9.9922 0.74219 4.3281 1.4492 8.668 2.1719 13z"/>
  <path d="m251.48 247.91c0.10156-2.4648-1.0898-4.625 1.7812-5.0234 0.94141-0.41016 2.0156-0.38281 2.9336 0.082031 0.91406 0.46094 1.5781 1.3086 1.8086 2.3086 2.4922 4.9297 6.2539 9.1055 10.895 12.102 1.5234 1.1953 2.9844 2.4727 4.3789 3.8203 1.0078 0.75391 1.5391 1.9844 1.3945 3.2383-0.14062 1.25-0.9375 2.332-2.0859 2.8398-3.5156 2.125-7.8086 2.5312-11.66 1.1016-3.9844-1.3555-6.5039-5.2812-6.0703-9.4688 0.54297-4.4961-4.0859-7.3867-3.375-11z"/>
  <path d="m301.56 328.63c-1.4414-1.6914-3.4727-2.7656-5.6797-3.0039 0.55469 8.6914 4.2656 16.887 10.434 23.035 0.69531 0.75 2.5312 0.74219 1.9102 2.3594-0.54297 1.2773-1.9648 1.9336-3.2891 1.5156-5.1484-1.0508-4.4531 1.5469-2.9727 4.6523 2.7109 5.6914 5.5234 11.336 8.1055 17.086 0.58594 1.3047 1.9766 2.9492 0.17969 4.4414v0.003906c-1.3203 0.70703-2.9453 0.51172-4.0586-0.49609-0.625-0.23047-1.2031-1.3164-2.043-0.32422-0.67969 0.75391-0.81641 1.8477-0.34375 2.7461 1.6953 4.2148 4.3398 7.9844 7.7305 11.008 1.2578 0.86719 2.9414 1.75 1.8047 3.3008-1.3398 1.8242-2.3906-0.16797-3.4961-0.94141-3.8047-3.082-6.668-7.168-8.2656-11.793-2.2188-5.0508 0.15625-7.5 6.1758-6.5625-1.6367-4.543-3.707-8.9141-6.1836-13.059-1.2734-2.4453-2.3633-4.9805-3.2656-7.582-1.4805-4.1406-0.44922-6.1602 5.4727-5.5547-6.7773-5.9688-8.0391-13.461-10.398-20.438-0.80469-2.3789-2.9062-5.2422 1.4062-6.793 1.5156-0.54297 0.082031-1.6719-0.15625-2.2773-0.76562-1.9414-1.8945-3.7344-2.8125-5.6172-0.41406-0.85156-2.0586-1.7852-0.17969-2.6953 1.0469-0.50781 1.6875 0.16797 2.25 1.1758h-0.003906c1.8789 4.3008 4.6172 8.1719 8.0391 11.383 1.7695 1.3906-0.55469 2.9258-0.36719 4.4609z"/>
  <path d="m485.96 375.2c-1.1602 5.9766-2.1758 11.984-3.5625 17.906 0.0625 2.4062-1.7109 4.4688-4.0977 4.7695-2.6055-0.074219-2.5352-2.7812-2.8242-4.5195-1.2148-7.3438-2.0938-14.746-3.2461-22.102v0.003906c-0.40625-5.0586-1.375-10.055-2.8867-14.902-3.0273 6.9805-4.957 14.383-5.7148 21.953-1.6836 8.4219-2.7969 16.953-3.3281 25.523 0.035157 1.5391-1.0117 2.8867-2.5078 3.2383-1.5039 0.23047-1.2578-1.5703-1.457-2.6094-2.9688-15.609-7.0312-31.012-8.8945-46.824l0.003906-0.003907c-0.92578-2.4844-0.32422-5.2773 1.543-7.1641 0.42578 17.926 5.5391 34.445 8.9062 52.562 1.3711-7.9961 2.8672-14.758 3.6211-21.598h-0.003906c1.0039-8.1914 2.832-16.266 5.4492-24.094 0.39062-1.2227 0.46875-3.0352 1.8828-3.0312 1.6914 0.14844 3.0078 1.5273 3.0781 3.2227 0.76562 4.6484 1.5625 9.2891 2.2969 13.941 0.94531 8.25 2.4023 16.438 4.3633 24.508 4.6016-6.9766 3.9766-14.578 7.3789-20.781z"/>
  <path d="m505.45 463.13c1.9336-3.625 0.75391-7.8711 3.0664-11.191 0.71875-1.0312 0.87891-2.6953 2.5117-2.5234 1.2891 0.39062 2.25 1.4648 2.4961 2.7891 1.7891 6.8164 2.0625 13.941 0.80078 20.875-2.4883-6.7305 0.51562-13.77-3.5312-20.035h-0.003907c-1.4531 3.3711-2.4023 6.9336-2.8086 10.582-0.26562 1.7891-0.45312 4.332-3.0312 4.3594-2.957 0.027344-2.2773-2.8672-2.5312-4.4727-0.8125-5.1367-1.1914-10.34-1.793-16.039-2.0508 3.9883-3.1445 8.4023-3.1875 12.891-0.58594 4.1953-0.84375 8.4258-0.76562 12.66-0.054687 2.2734-0.33203 4.7773-2.8242 4.9102-2.332 0.12109-1.8633-2.4961-2.1445-4.1953h-0.003906c-0.91016-4.75-1.5703-9.5469-1.9805-14.367 3.1406 3.207 1.2969 8.0078 4.1562 11.984 1.2148-4.0859 1.8711-8.3164 1.9453-12.578 0.69531-5.9727 1.9336-11.867 3.6992-17.613 0.33203-1.0859-0.37109-3.0625 1.6602-2.8906 0.64844 0.17969 1.1914 0.62109 1.5039 1.2188 0.3125 0.59375 0.36719 1.293 0.14844 1.9297 0.16406 7.125 0.75781 14.234 1.7812 21.289 0.25781 0.17578 0.53906 0.31641 0.83594 0.41797z"/>
  <path d="m272.57 428.88c2.4766-1.0117 0.74609-3.5938 2.4375-4.8477 0.62109 1.3242 0.64844 2.8516 0.070312 4.1953 0.14453 0.82812-0.0625 1.6797-0.57031 2.3477-0.50781 0.66797-1.2734 1.0938-2.1094 1.1719-0.82422-0.039063-1.5938-0.41016-2.1367-1.0273-0.54297-0.61719-0.8125-1.4258-0.75-2.2461-1.3945-6.8203-2.7461-13.668-3.6328-20.57-0.33594-2.6133-1.9141-4.8789-2.418-7.7422-0.82031 4.4219-1.5977 8.8516-2.4727 13.262-0.53516 2.6953-1.1172 5.3867-1.8516 8.0312-0.070313 1.0312-0.75781 1.9141-1.7383 2.2383-0.98047 0.32031-2.0586 0.015625-2.7266-0.77344-2.7969-2.1367-6.4531-17.891-5.0352-21.367 2.5625 5.1484 2.4766 10.91 4.5898 16.016 0.58984 1.4258 0.81641 3.8867 2.457 3.7617 1.9336-0.14453 2.0742-2.6484 2.3594-4.3086 1-5.8789 1.6641-11.816 2.8008-17.668 0.27734-1.4297 0.11719-4.168 2.6406-3.9375 1.9688 0.17969 1.8281 2.3125 2.1055 3.9375 1.4922 8.793 3.043 17.574 4.6523 26.348v0.003907c0.32812 1.1016 0.77344 2.168 1.3281 3.1758z"/>
  <path d="m374.76 368.95c-1.0859 5.7539-2.168 11.504-3.2539 17.258l-1.2773-0.24609c1.1953-6.168 2.3711-12.336 3.6016-18.496 0.19141-0.96484 0.71094-2.0078 1.918-1.6094h0.003906c1.0703 0.44922 1.8359 1.4141 2.0312 2.5586 1.3555 5.5078 2.125 11.148 2.3008 16.82 1.375 15.531 3.5898 30.977 6.6367 46.27 2.4141-0.003906 0.79688-2.457 2.293-2.7773 0.09375 0.13281 0.15625 0.28125 0.1875 0.4375-0.058594 2 1.2539 5.0586-1.3047 5.5742-3.2969 0.66406-3-3.2227-3.3047-4.9492-2.7695-15.641-5.1953-31.344-6.4883-47.199-0.042968-4.7422-1.1875-9.4141-3.3438-13.641z"/>
  <path d="m405.82 427.07c-5.2539-14.441-6.0469-29.16-9.3203-43.781h-0.003906c-1.5938 5.4609-2.7031 11.055-3.3125 16.711-0.8125-10.75 2.9258-21.105 2.3789-32.145v-0.003906c1.9648 0.76953 3.1562 2.7812 2.8828 4.875 0.61328 17.844 3.3828 35.551 8.25 52.73-0.20312 0.58203-0.5 1.125-0.875 1.6133z"/>
  <path d="m357.3 364.44c-1.0781 7.9492-1.2891 15.996-0.62891 23.992 1.1289 15.523 3.5469 30.93 7.2305 46.055 0.33203 1.3984 1.2031 2.6641 1.668 4.043 0.29297 0.87109 2.3594 1.7109 0.52734 2.6602-1.6523 0.85547-2.1953-0.75391-2.5742-2.0195h-0.003906c-1.0625-3.043-1.9492-6.1484-2.6641-9.293-3.9375-18.941-6.1406-38.199-6.5859-57.543-0.375-2.9727 0.76172-5.9375 3.0312-7.8945z"/>
  <path d="m239.73 324.89c-0.47266 14.578-0.10547 29.172 1.0938 43.707l0.40234-3.7617c1.5781 4.9023-0.58203 9.6211 0.11719 14.406 0.14844 0.57031 0.019531 1.1758-0.34375 1.6367-0.36719 0.46484-0.92578 0.72656-1.5156 0.71484-1.418-0.035156-1.0039-1.4414-1.0195-2.2891-0.24609-13.488-0.57812-26.977-0.53906-40.465 0.007813-2.5859-0.070312-5.1641-0.10547-7.7461h-0.003906c-0.45312-2.2578 0.26562-4.5938 1.9141-6.2031z"/>
  <path d="m346.71 432.77c-4.8359-7.4648-13.621-64.973-11.102-72.859 1.9453 24.52 5.6562 48.871 11.102 72.859z"/>
  <path d="m502.01 393.74c-6.0859-0.45313-9.4062-9.6328-11.582-31.391-2.9531 3.1367-2.2812 7.332-4.4219 11.504 0.19141-6.8984 1.6367-13.707 4.2734-20.086 1.6758 2.7891 2.5039 6.0078 2.3828 9.2578-0.089844 7.4922 1.125 14.941 3.5859 22.016 0.84766 3.4844 2.8867 6.5586 5.7617 8.6992z"/>
  <path d="m416.91 367.96c-1.0469 0.89844-1.8008 2.0977-2.1602 3.4336-0.28516-0.11328-0.50391-0.34375-0.60547-0.63281-0.10156-0.28906-0.070313-0.60938 0.085937-0.87109 0.59766-2.2734-0.49219-6.2227 2.4766-6.2695 2.4414-0.039062 2.1758 3.8242 2.3672 6.1172 1.0078 12.102 2.9023 24.129 3.0391 36.305l0.003906-0.003906c0.074218 1.1992-0.003906 2.4023-0.23047 3.582-2.4883-13.711-2.4844-27.695-4.9766-41.66z"/>
  <path d="m510.36 363.15c1.2227 9.3789 3.1094 18.66 5.6406 27.773 0.28125 1.918 1.1172 3.7109 2.4062 5.1602 0.34375 0.37109 0.49219 0.87891 0.40625 1.375-0.085938 0.49609-0.39844 0.92578-0.84375 1.1602-0.37891 0.34375-0.91406 0.45312-1.3984 0.28906-0.48437-0.16406-0.83984-0.57812-0.93359-1.082-2.6055-10.832-6.5391-21.418-6.2734-32.797h0.003907c0.25391-0.66016 0.58594-1.293 0.99219-1.8789z"/>
 </g>
</svg>