<?xml version="1.0" encoding="UTF-8"?>
<!-- The Best Svg Icon site in the world: iconSvg.co, Visit us! https://iconsvg.co -->
<svg fill="#000000" width="800px" height="800px" version="1.1" viewBox="144 144 512 512" xmlns="http://www.w3.org/2000/svg">
 <path d="m302.3 526.5c19.945 0 39.043-5.6094 55.68-16.195 14.324 52.492 62.5 91.215 119.59 91.215 68.344 0 123.95-55.473 123.95-123.66 0-66.5-52.895-120.88-118.91-123.53v-22.961c12.742-0.47266 46.844-3.6719 66.375-24.004 24.031-25.02 16.93-71.516 16.613-73.484-0.3125-1.957-1.7461-3.5508-3.6562-4.0703-1.8008-0.48828-44.34-11.645-68.695 13.715-6.1836 6.4375-10.535 14.98-13.609 24.141-2.8203-23.605-8.0938-49.262-17.926-66.641-1.3672-2.4219-4.4453-3.2812-6.8633-1.9023-2.4219 1.3672-3.2734 4.4414-1.9023 6.8633 6.4766 11.449 10.84 27.195 13.777 43.523-1.4766-2.1367-3.0703-4.1523-4.8242-5.9805-24.363-25.359-66.891-14.199-68.691-13.715-1.9102 0.51953-3.3438 2.1094-3.6562 4.0703-0.31641 1.9688-7.418 48.465 16.613 73.484 19.531 20.336 53.633 23.535 66.375 24.004v22.961c-28.246 1.1328-54.086 11.73-74.414 28.707-15.457-37.012-50.98-61.801-91.336-63.531v-14.922c10.816-0.51172 36.582-3.4062 51.621-19.066 19.172-19.965 13.539-56.863 13.285-58.426-0.3125-1.957-1.7461-3.5508-3.6562-4.0703-1.4414-0.38672-35.316-9.2773-54.816 11.031-0.38672 0.40234-0.71094 0.875-1.0781 1.2969 2.2461-11.078 5.3984-21.535 9.832-29.371 1.3672-2.4219 0.51562-5.4961-1.9062-6.8672-2.4141-1.3672-5.4922-0.51562-6.8672 1.9062-7.1641 12.668-11.266 30.875-13.602 48.219-2.3164-5.7266-5.3164-11.016-9.3242-15.188-19.5-20.297-53.375-11.406-54.816-11.023-1.9102 0.51953-3.3438 2.1094-3.6562 4.0703-0.25 1.5625-5.8828 38.461 13.285 58.426 15.043 15.66 40.809 18.551 51.625 19.062v15.027c-54.648 2.9219-98.242 48.066-98.242 103.3 0 57.121 46.574 103.59 103.82 103.59zm289.14-48.641c0 62.633-51.082 113.58-113.87 113.58-62.793 0-113.88-50.949-113.88-113.58 0-62.625 51.086-113.58 113.88-113.58 62.789 0 113.87 50.953 113.87 113.58zm-90.93-227.35c16.734-17.426 45.824-13.578 55.543-11.684 1.0742 10.594 2.8398 43.672-14.34 61.559-16.531 17.215-46.977 20.32-58.883 20.871-0.007813-2.2852-0.039063-5.2422-0.11719-8.7266 0.50391-17.426 3.5508-47.188 17.797-62.02zm-87.09 49.875c-17.18-17.887-15.414-50.965-14.336-61.559 9.7109-1.8945 38.805-5.7344 55.539 11.684 15.883 16.535 17.852 51.668 17.887 67.52v0.69141c0 0.91406-0.007813 1.7812-0.019531 2.543-11.773-0.52344-42.457-3.582-59.07-20.879zm-92.93-59.344c7.8359-8.1602 19.305-10.164 28.695-10.164 5.3438 0 10.012 0.64844 12.953 1.1875 0.82031 8.9062 1.7227 33.238-10.992 46.48-12.234 12.742-34.574 15.398-44.348 15.941-0.09375-11.477 1.0234-40.258 13.691-53.445zm-79.125-8.9766c8.1094-1.4844 29.348-3.8242 41.645 8.9805 10.875 11.324 13.227 34.195 13.621 47.684-0.050781 2.1992-0.078125 4.1445-0.085938 5.75-9.8516-0.56641-32.012-3.2578-44.184-15.934-12.719-13.246-11.82-37.574-10.996-46.48zm60.93 97.344c39.332 0 74.199 24.371 87.82 60.906-22.531 22.402-36.5 53.375-36.5 87.543 0 7.4805 0.70703 14.793 1.9883 21.91-15.707 10.867-34.07 16.652-53.309 16.652-51.695 0.003907-93.75-41.945-93.75-93.504s42.055-93.508 93.75-93.508z"/>
</svg>