<?xml version="1.0" encoding="UTF-8"?>
<!-- The Best Svg Icon site in the world: iconSvg.co, Visit us! https://iconsvg.co -->
<svg fill="#000000" width="800px" height="800px" version="1.1" viewBox="144 144 512 512" xmlns="http://www.w3.org/2000/svg">
 <path d="m292.05 402.66c-10.902 0-19.125-5.4648-19.125-12.707 0-2.7812 2.2539-5.0391 5.0391-5.0391 2.7812 0 5.0391 2.2539 5.0391 5.0391 0.33594 0.58203 3.5859 2.6328 9.0469 2.6328 5.0586 0 8.1133-1.7227 8.8516-2.6328 0.058594-0.074219 0.21484-0.17578 0.24219-0.23438 0-2.7812 2.2344-4.9219 5.0195-4.9219 2.7852 0 5.0195 2.375 5.0195 5.1562-0.003906 7.2422-8.2266 12.707-19.133 12.707zm248.96 120.17v73.512h56.859c2.7852 0 5.0391 2.2539 5.0391 5.0391 0 2.7852-2.2539 5.0391-5.0391 5.0391l-138.2-0.003906c-2.7852 0-5.0391-2.2539-5.0391-5.0391 0-2.7852 2.2539-5.0391 5.0391-5.0391h56.867l-0.003906-73.504-17.133-17.133c-2.5156 0.26953-6.6641 0.60156-11.801 0.60156-14.582 0-36.988-2.6992-51.602-17.312-22.711-22.707-16.66-64.234-16.387-65.988 0.32812-2.1758 2.043-3.8828 4.2148-4.2148 1.7656-0.26953 43.281-6.3125 65.988 16.391 19.758 19.758 17.742 53.754 16.711 63.402l10.012 10.012-0.003906-95.172-14.535-14.535c-2.2109 0.22656-5.6719 0.48828-9.918 0.48828-12.723 0-32.309-2.3633-45.113-15.16-19.863-19.863-14.594-56.082-14.355-57.617 0.32812-2.1797 2.043-3.8867 4.2148-4.2188 1.5352-0.23047 37.75-5.5117 57.617 14.355 17.086 17.086 15.578 46.211 14.672 55.02l7.4141 7.4141 0.003907-72.539c0-0.26172 0.10938-0.48828 0.14844-0.74219-8.8008-9.9453-20.973-27.324-20.973-47.59 0-31.039 28.602-55.43 29.816-56.453 1.8789-1.5742 4.6055-1.5742 6.4844 0 1.2148 1.0234 29.809 25.418 29.809 56.453 0 20.262-12.168 37.645-20.965 47.59 0.039063 0.25391 0.14844 0.48047 0.14844 0.74219v72.543l7.4102-7.4102c-0.90625-8.8008-2.418-37.934 14.668-55.023 19.867-19.871 56.082-14.586 57.617-14.355 2.1758 0.33203 3.8867 2.0391 4.2148 4.2148 0.23438 1.5312 5.5117 37.754-14.355 57.617-12.797 12.797-32.383 15.16-45.113 15.16-4.2422 0-7.7031-0.26172-9.9141-0.48828l-14.531 14.531 0.007813 95.168 10.012-10.008c-1.0312-9.6523-3.0469-43.641 16.711-63.398 22.707-22.711 64.223-16.66 65.988-16.391 2.1758 0.33203 3.8867 2.0391 4.2148 4.2188 0.26953 1.7578 6.3125 43.281-16.387 65.988-14.609 14.609-37.02 17.312-51.602 17.312-5.1406 0-9.2891-0.33203-11.805-0.60156zm19.551-33.797 43.289-43.285c1.9688-1.9688 5.1562-1.9688 7.125 0s1.9688 5.1562 0 7.125l-43.293 43.289c12.727 0.25 33.949-1.5078 46.742-14.297 15.539-15.543 14.82-43.398 13.969-53.527-10.156-0.83984-38.047-1.5312-53.535 13.961-12.789 12.789-14.543 34.008-14.297 46.734zm-2.5156-106.89 36.266-36.266c1.9688-1.9688 5.1562-1.9688 7.125 0s1.9688 5.1562 0 7.125l-36.27 36.27c10.992 0.03125 27.922-1.8203 38.281-12.176 12.91-12.906 12.605-36.035 11.91-45.145-9.1016-0.6875-32.234-0.98828-45.141 11.914-10.355 10.355-12.203 27.281-12.172 38.277zm-101.93-36.266c1.9688-1.9688 5.1562-1.9688 7.125 0l36.266 36.266c0.03125-10.992-1.8125-27.918-12.172-38.277-12.906-12.91-36.051-12.594-45.141-11.914-0.69531 9.1055-0.99219 32.234 11.91 45.145 10.398 10.395 27.324 12.234 38.301 12.191l-36.289-36.285c-1.9688-1.9688-1.9688-5.1562 0-7.125zm-9.5352 99.875c1.9688-1.9688 5.1562-1.9688 7.125 0l43.289 43.289c0.25-12.727-1.5078-33.949-14.293-46.738-15.539-15.535-43.398-14.816-53.527-13.969-0.83984 10.137-1.5391 38.035 13.957 53.535 12.793 12.797 34.016 14.551 46.742 14.297l-43.293-43.293c-1.9688-1.9648-1.9688-5.1523 0-7.1211zm84.359-114.08h-4.3203v264.68h4.3203zm2.8789-58.562v45.488c7.6836-8.8594 17.938-23.762 17.938-40.297 0-20.621-15.957-38.734-22.977-45.703-7.0195 6.9648-22.98 25.082-22.98 45.703 0 16.594 10.258 31.484 17.941 40.324v-45.516c0-2.7812 2.2539-5.0391 5.0391-5.0391 2.7852 0.003907 5.0391 2.2578 5.0391 5.0391zm-168.75 179c32.309 31.047 53.16 84.82 55.105 144.05 0.089844 2.7109-0.90625 5.2734-2.793 7.2266-1.875 1.9336-4.4883 3.0391-7.1719 3.0391h-33.633c-1.832 1.6289-4.1836 2.5898-6.6602 2.5898l-155.72 0.003907c-2.4766 0-4.8242-0.96094-6.6562-2.5898h-33.637c-2.6875 0-5.3008-1.1133-7.1719-3.0469-1.8906-1.9531-2.8828-4.5156-2.793-7.2227 1.9492-59.223 22.801-113 55.105-144.05v-1.418c0-5.5547 4.5195-10.078 10.078-10.078h24.246c2.8867 0 5.4727 1.2344 7.3125 3.1836v-12.547c-2.8008-1.7031-5.5-3.6211-8.1016-5.7188h-33.258c-10.457 0-19.172-7.9102-19.844-18.004l-2.3828-35.953c-0.34766-0.75391-0.73047-1.4766-1.0234-2.2695-2.4727-6.6836-2.5234-13.758-0.44531-19.926l-2.6836-40.488c0-1.7305 0.16797-3.4219 0.28125-5.125-19.449-7.0781-32.074-16.73-32.074-28.789 0-15.906 21.969-27.629 52.609-34.77 11.629-28.754 42.57-49.219 78.309-49.219 35.742 0 66.684 20.465 78.312 49.219 30.645 7.1406 52.613 18.863 52.613 34.77 0 12.051-12.617 21.699-32.055 28.777 0.10156 1.5977 0.26562 3.1797 0.26562 4.8008l-2.6992 40.805c2.082 6.1719 2.0312 13.254-0.44531 19.941-0.29297 0.79297-0.67969 1.5195-1.0273 2.2734l-2.3789 35.953c-0.67578 10.098-9.3867 18.004-19.848 18.004h-33.254c-2.6016 2.0977-5.3008 4.0156-8.1016 5.7188v12.551c1.8398-1.9492 4.4258-3.1836 7.3125-3.1836h24.242c5.5547 0 10.078 4.5234 10.078 10.078zm-34.316 44.086h24.188c0.019531 0 0.039062 0.003906 0.0625 0.003906l-0.007812-45.508h-24.242zm45.32-111.8c-3.875 2.4766-8.1797 3.918-12.512 3.918-1.3398 0-2.6758-0.17578-4-0.44531-4.5117 10.156-10.43 19.602-17.496 27.598h22.727c5.1719 0 9.4727-3.7773 9.7891-8.5938zm2.3984-33.395c-0.94531-2.0508-2.7852-4.7539-6.1602-5.9844-0.94922-0.34375-1.9219-0.50781-2.9062-0.5625-0.16797 11.238-2.2773 22.754-6.0391 33.742 6.0352 0.18359 12.402-4.7461 15.23-12.383 1.9023-5.1328 1.8594-10.527-0.125-14.812zm2.6523-42.77c0-0.42188-0.0625-0.83203-0.070313-1.25-12.418 3.6094-26.801 6.3477-42.051 8.1836 6.3711 1.1445 12.551 1.9375 18.195 2.2852 5.4766 0.33984 9.9414 4.3438 10.867 9.7383 0.41016 2.4023 0.69531 4.7891 0.92188 7.168 2.2852 0.007813 4.5664 0.38672 6.7773 1.1953 1.207 0.44141 2.3438 1.0156 3.4375 1.6758zm-162.07-47.363c-0.054687 0.69922 0.29297 1.4141 0.91016 1.8633 9.6719 7.0547 35.711 14.168 72.09 14.168 36.375 0 62.422-7.1133 72.094-14.164 0.60547-0.44141 0.96484-1.1758 0.91016-1.8672-2.6211-33.531-34.688-59.797-73.004-59.797-38.312 0-70.379 26.266-73 59.797zm73 46.973c69.164 0 120.85-17.344 120.85-32.855 0-8.293-14.785-17.109-39.113-23.52 0.60156 2.8242 1.082 5.6875 1.3125 8.6172 0.32422 4.168-1.6055 8.3008-5.0234 10.793-13.418 9.7773-44.043 16.098-78.027 16.098s-64.605-6.3203-78.023-16.098c-3.418-2.4883-5.3438-6.625-5.0234-10.793 0.23047-2.9297 0.71094-5.793 1.3125-8.6211-24.324 6.4102-39.109 15.227-39.109 23.52 0 15.516 51.68 32.859 120.84 32.859zm-89.059 0.72266 1.9062 28.668c1.0938-0.66016 2.2383-1.2383 3.4453-1.6797 2.2031-0.80469 4.4766-1.1836 6.75-1.1914 0.28906-3.0156 0.71875-6.0625 1.3008-9.1211 0.73047-3.8281 3.4219-7.0117 7.2031-8.5195 2.75-1.0977 5.2383-2.2891 7.625-3.5273-10.07-1.6484-19.578-3.7148-28.141-6.2031-0.015625 0.52734-0.089843 1.043-0.089843 1.5742zm17.742 69.629c-3.7578-10.988-5.8711-22.504-6.0391-33.742-0.98437 0.058594-1.957 0.21875-2.9023 0.5625-3.375 1.2305-5.2109 3.9336-6.1641 5.9844-1.9805 4.2812-2.0273 9.6836-0.125 14.812 2.832 7.6445 9.1875 12.562 15.23 12.383zm21.305 37.27c-7.0703-7.9922-12.984-17.438-17.496-27.594-1.3242 0.26953-2.6602 0.44531-4 0.44531-4.332 0-8.6367-1.4375-12.516-3.918l1.4922 22.473c0.31641 4.8203 4.6172 8.5938 9.7852 8.5938zm50.016 14.859c37.902 0 67.305-46.938 67.305-87.316 0-4.5898-0.41406-9.3398-1.2266-14.117-0.13672-0.78906-0.74609-1.332-1.5586-1.3828-14.758-0.90625-32.453-4.4336-48.672-9.9062-5.2852 0.20703-10.582 0.32031-15.855 0.32031-15.199 0-30.621-0.87109-45.297-2.5703-5.582 4.1211-11.812 7.6914-19.43 10.727-0.53906 0.21484-0.95312 0.63672-1.0312 1.0469-1.0273 5.3906-1.5508 10.734-1.5508 15.879 0.003907 40.383 29.406 87.32 67.316 87.32zm-28.621 29.887v35.988h57.242v-35.992c-18.98 4.9453-38.266 4.9453-57.242 0.003907zm49.93-8.6484v-15.297c-6.7188 2.6445-13.852 4.1328-21.309 4.1328-7.4609 0-14.59-1.4883-21.312-4.1328v15.301c14.156 2.9883 28.465 2.9844 42.621-0.003907zm-84.254 44.645c0.019531 0 0.039063-0.003906 0.054687-0.003906h24.195l-0.003906-45.5h-24.246zm-14.961 13.41c0.42969-3.793 2.2383-7.1172 4.8867-9.5117v-33.438c-26.457 30.016-43.316 77.594-45.031 129.83l30.324-0.019531zm155.77 89.328-9.9727-88.195c-0.28516-2.5469-2.4336-4.4727-5.0039-4.4727h-125.77c-2.5664 0-4.7188 1.9219-5.0078 4.4727l-9.9727 88.195zm-4.8477-132.29v33.441c2.6523 2.3945 4.4609 5.7188 4.8906 9.5156l9.8086 86.758 30.434-0.019531c-1.7969-52.129-18.668-99.688-45.133-129.7zm-22.426 71.102v46.234c0 5.5547-4.5234 10.078-10.078 10.078l-81.023-0.003906c-5.5586 0-10.078-4.5234-10.078-10.078v-46.234c0-5.5547 4.5195-10.078 10.078-10.078h81.023c5.5586 0.003906 10.078 4.5273 10.078 10.082zm-10.074 0h-81.027v46.234h81.02zm0.003906 46.234h-0.003906v5.0352zm-9.3281-219.8c5.1953 0 9.1172-4.5859 9.1172-10.672 0-6.082-3.9219-10.668-9.1172-10.668-5.1953 0-9.1094 4.5859-9.1094 10.668-0.003906 6.0859 3.9141 10.672 9.1094 10.672zm-62.379-21.336c-5.1953 0-9.1133 4.5859-9.1133 10.668s3.9219 10.672 9.1133 10.672c5.1953 0 9.1094-4.5859 9.1094-10.672 0-6.082-3.9141-10.668-9.1094-10.668z"/>
</svg>