<?xml version="1.0" encoding="UTF-8"?>
<!-- The Best Svg Icon site in the world: iconSvg.co, Visit us! https://iconsvg.co -->
<svg width="800px" height="800px" version="1.1" viewBox="144 144 512 512" xmlns="http://www.w3.org/2000/svg">
 <defs>
  <clipPath id="b">
   <path d="m148.09 400h503.81v251.9h-503.81z"/>
  </clipPath>
  <clipPath id="a">
   <path d="m392 148.09h16v31.906h-16z"/>
  </clipPath>
 </defs>
 <g clip-path="url(#b)">
  <path d="m644.03 636.16h-15.742v-7.8711c0-21.703-17.656-39.359-39.359-39.359h-55.105v-62.977h39.359c39.07 0 70.848-31.781 70.848-70.848v-47.23c0-4.3516-3.5195-7.8711-7.8711-7.8711h-47.23c-27.426 0-51.207 15.688-62.977 38.535-11.77-22.852-35.551-38.539-62.977-38.539h-47.23c-4.3516 0-7.8711 3.5195-7.8711 7.8711v47.23c0 39.07 31.781 70.848 70.848 70.848h39.359v62.977h-236.16v-62.977h39.359c39.062 0 70.848-31.781 70.848-70.848v-47.23c0-4.3516-3.5273-7.8711-7.8711-7.8711h-47.23c-27.418 0-51.207 15.688-62.977 38.543-11.77-22.855-35.559-38.543-62.977-38.543h-47.234c-4.3438 0-7.8711 3.5195-7.8711 7.8711v47.23c0 39.07 31.789 70.848 70.848 70.848h39.359v62.977h-55.102c-21.703 0-39.359 17.656-39.359 39.359v7.8711l-15.746 0.003906c-4.3438 0-7.8711 3.5195-7.8711 7.8711s3.5273 7.8711 7.8711 7.8711h488.07c4.3516 0 7.8711-3.5195 7.8711-7.8711s-3.5195-7.8711-7.8711-7.8711zm-55.105-220.42h39.359v39.359c0 30.379-24.727 55.105-55.105 55.105h-39.359v-39.359c0.003907-30.379 24.73-55.105 55.105-55.105zm-165.31 39.359v-39.359h39.359c30.379 0 55.105 24.727 55.105 55.105v39.359h-39.359c-30.379 0-55.105-24.727-55.105-55.105zm-86.59-39.359h39.359v39.359c0 30.379-24.719 55.105-55.105 55.105h-39.359v-39.359c0-30.379 24.719-55.105 55.105-55.105zm-165.31 39.359v-39.359h39.359c30.387 0 55.105 24.727 55.105 55.105v39.359h-39.359c-30.387 0-55.105-24.727-55.105-55.105zm15.742 181.06v-7.8711c0-13.02 10.598-23.617 23.617-23.617h377.86c13.02 0 23.617 10.598 23.617 23.617v7.8711z"/>
 </g>
 <path d="m400 266.18c21.703 0 39.359-17.656 39.359-39.359s-17.656-39.359-39.359-39.359-39.359 17.656-39.359 39.359c-0.003906 21.699 17.656 39.359 39.359 39.359zm0-62.977c13.02 0 23.617 10.598 23.617 23.617 0 13.02-10.598 23.617-23.617 23.617s-23.617-10.598-23.617-23.617c0-13.023 10.594-23.617 23.617-23.617z"/>
 <g clip-path="url(#a)">
  <path d="m400 179.58c4.3438 0 7.8711-3.5195 7.8711-7.8711v-15.746c0-4.3516-3.5273-7.8711-7.8711-7.8711s-7.8711 3.5195-7.8711 7.8711v15.742c-0.003906 4.3555 3.5234 7.875 7.8711 7.875z"/>
 </g>
 <path d="m392.12 281.92v15.742c0 4.3516 3.5273 7.8711 7.8711 7.8711s7.8711-3.5195 7.8711-7.8711v-15.742c0-4.3516-3.5273-7.8711-7.8711-7.8711s-7.8711 3.5195-7.8711 7.8711z"/>
 <path d="m447.23 226.81c0 4.3516 3.5195 7.8711 7.8711 7.8711h15.742c4.3516 0 7.8711-3.5195 7.8711-7.8711s-3.5195-7.8711-7.8711-7.8711h-15.742c-4.3516 0-7.8711 3.5195-7.8711 7.8711z"/>
 <path d="m329.15 234.69h15.742c4.3438 0 7.8711-3.5195 7.8711-7.8711 0-4.3516-3.5273-7.8711-7.8711-7.8711h-15.742c-4.3438 0-7.8711 3.5195-7.8711 7.8711 0 4.3516 3.5273 7.8711 7.8711 7.8711z"/>
 <path d="m438.96 195.72c2.0156 0 4.0312-0.76953 5.5664-2.3047l11.133-11.133c3.0781-3.0781 3.0781-8.0547 0-11.133-3.0781-3.0781-8.0547-3.0781-11.133 0l-11.133 11.133c-3.0781 3.0781-3.0781 8.0547 0 11.133 1.5352 1.5352 3.5508 2.3047 5.5664 2.3047z"/>
 <path d="m355.46 260.21-11.133 11.133c-3.0781 3.0781-3.0781 8.0547 0 11.133 1.5352 1.5352 3.5508 2.3047 5.5664 2.3047 2.0156 0 4.0312-0.76953 5.5664-2.3047l11.133-11.133c3.0781-3.0781 3.0781-8.0547 0-11.133s-8.0547-3.0703-11.133 0z"/>
 <path d="m355.46 193.41c1.5352 1.5352 3.5508 2.3047 5.5664 2.3047s4.0312-0.76953 5.5664-2.3047c3.0781-3.0781 3.0781-8.0547 0-11.133l-11.133-11.133c-3.0781-3.0781-8.0547-3.0781-11.133 0-3.0781 3.0781-3.0781 8.0547 0 11.133z"/>
 <path d="m433.4 260.21c-3.0781 3.0781-3.0781 8.0547 0 11.133l11.133 11.133c1.5352 1.5352 3.5508 2.3047 5.5664 2.3047s4.0312-0.76953 5.5664-2.3047c3.0781-3.0781 3.0781-8.0547 0-11.133l-11.133-11.133c-3.0703-3.0703-8.0547-3.0703-11.133 0z"/>
</svg>