<?xml version="1.0" encoding="UTF-8"?>
<!-- The Best Svg Icon site in the world: iconSvg.co, Visit us! https://iconsvg.co -->
<svg width="800px" height="800px" version="1.1" viewBox="144 144 512 512" xmlns="http://www.w3.org/2000/svg">
 <defs>
  <clipPath id="a">
   <path d="m163 148.09h474v503.81h-474z"/>
  </clipPath>
 </defs>
 <g clip-path="url(#a)">
  <path d="m541.7 226.81c-10.484 0-20.664 3.4883-30.348 10.375-17.113-17.113-36.43-26.117-56.246-26.117-20.176 0-34.824 8.7539-47.23 20.066v-27.938c0-21.703 17.656-39.359 39.359-39.359 4.3438 0 7.8711-3.5195 7.8711-7.8711s-3.5273-7.8711-7.8711-7.8711c-30.387 0-55.105 24.727-55.105 55.105v27.938c-12.406-11.316-27.055-20.07-47.23-20.07-19.812 0-39.133 9.0039-56.246 26.121-9.6836-6.8906-19.859-10.379-30.348-10.379-52.969 0-94.465 89.906-94.465 204.68 0 114.77 41.492 204.67 94.465 204.67 10.484 0 20.664-3.4883 30.348-10.375 17.113 17.113 36.434 26.117 56.246 26.117 19.355 0 38.273-8.6133 55.105-25.008 16.828 16.398 35.746 25.008 55.102 25.008 19.812 0 39.133-9.0039 56.246-26.121 9.6836 6.8906 19.863 10.379 30.348 10.379 52.973 0 94.465-89.906 94.465-204.67 0-114.77-41.496-204.68-94.465-204.68zm0 393.6c-8.7305 0-17.461-3.7695-25.938-11.211-3.2578-2.8516-8.2109-2.5508-11.074 0.69141-15.258 17.188-32.402 26.266-49.582 26.266-17.043 0-34.07-8.9492-49.238-25.883-1.4883-1.668-3.6211-2.6211-5.8633-2.6211s-4.3672 0.95312-5.8633 2.6211c-15.172 16.93-32.199 25.883-49.242 25.883-17.176 0-34.32-9.0781-49.578-26.262-2.875-3.2422-7.832-3.543-11.074-0.69141-8.4805 7.4375-17.211 11.207-25.941 11.207-42.664 0-78.719-86.512-78.719-188.93 0-102.41 36.055-188.93 78.719-188.93 8.7305 0 17.461 3.7695 25.938 11.211 3.25 2.8438 8.2031 2.543 11.074-0.69141 15.262-17.188 32.406-26.266 49.582-26.266 19.555 0 32.859 10.586 49.238 28.867 0.039063 0.046874 0.10938 0.0625 0.15625 0.10937 1.4414 1.5273 3.4414 2.5117 5.7109 2.5117 2.2656 0 4.2656-0.98438 5.707-2.5117 0.046875-0.046874 0.10938-0.0625 0.15625-0.10937 16.383-18.277 29.684-28.867 49.238-28.867 17.176 0 34.32 9.0781 49.578 26.262 2.8594 3.2344 7.8242 3.5352 11.074 0.69141 8.4805-7.4375 17.211-11.207 25.941-11.207 42.668 0 78.719 86.512 78.719 188.93 0 102.41-36.055 188.93-78.719 188.93z"/>
 </g>
 <path d="m293.56 337.98c-3.8086-2.0859-8.5977-0.66797-10.684 3.1406-30.859 56.586-30.859 124.14 0 180.72 1.4336 2.6289 4.125 4.1055 6.918 4.1055 1.2734 0 2.5664-0.30859 3.7617-0.96094 3.8164-2.0859 5.2266-6.8633 3.1406-10.676-28.285-51.859-28.285-113.79 0-165.65 2.0898-3.8125 0.67969-8.5898-3.1367-10.676z"/>
 <path d="m506.44 337.98c-3.8164 2.0859-5.2266 6.8633-3.1406 10.676 28.285 51.859 28.285 113.79 0 165.65-2.0859 3.8086-0.67578 8.5977 3.1406 10.676 1.1953 0.65625 2.4844 0.96094 3.7617 0.96094 2.7852 0 5.4883-1.4805 6.918-4.1016 30.859-56.586 30.859-124.14 0-180.72-2.0781-3.8164-6.8555-5.2305-10.68-3.1445z"/>
 <path d="m400 337.02c-4.3438 0-7.8711 3.5195-7.8711 7.8711v173.18c0 4.3516 3.5273 7.8711 7.8711 7.8711s7.8711-3.5195 7.8711-7.8711v-173.18c0-4.3516-3.5273-7.8711-7.8711-7.8711z"/>
</svg>