<?xml version="1.0" encoding="UTF-8"?>
<!-- The Best Svg Icon site in the world: iconSvg.co, Visit us! https://iconsvg.co -->
<svg width="800px" height="800px" version="1.1" viewBox="144 144 512 512" xmlns="http://www.w3.org/2000/svg">
 <defs>
  <clipPath id="a">
   <path d="m258 148.09h284v503.81h-284z"/>
  </clipPath>
 </defs>
 <g clip-path="url(#a)">
  <path d="m533.82 636.16h-45.594l46.957-246.52c3.9609-20.812-1.5117-42.109-15.012-58.426-13.203-15.957-32.52-25.191-53.168-25.602l42.562-99.312c1.3164-3.0547 0.55859-6.5977-1.8672-8.8555-2.4258-2.2656-6.0078-2.7695-8.9727-1.2422l-68.109 35.02-23.082-77.5c-0.99219-3.3398-4.0625-5.6289-7.5391-5.6289-3.4805 0-6.5508 2.2891-7.543 5.6211l-23.082 77.508-68.109-35.023c-2.9609-1.5273-6.5508-1.0234-8.9727 1.2422-2.4258 2.2656-3.1719 5.8086-1.8672 8.8555l42.562 99.312c-20.648 0.41016-39.965 9.6523-53.168 25.602-13.5 16.32-18.98 37.613-15.012 58.426l46.961 246.52h-45.594c-4.3438 0-7.8711 3.5273-7.8711 7.8711s3.5273 7.8711 7.8711 7.8711h267.65c4.3438 0 7.8711-3.5273 7.8711-7.8711s-3.5273-7.8711-7.8711-7.8711zm-163.21-386.61c2.0859 1.0703 4.5273 1.1484 6.6914 0.24219 2.1484-0.92188 3.7852-2.7539 4.457-4.9922l18.238-61.262 18.238 61.262c0.66797 2.2422 2.2969 4.0781 4.457 4.9922 2.1562 0.90625 4.5977 0.82812 6.6914-0.24219l57.098-29.355-36.57 85.336h-99.832l-36.566-85.332zm-57.812 307.88h39.965c4.3438 0 7.8711-3.5273 7.8711-7.8711s-3.5273-7.8711-7.8711-7.8711h-42.965l-26.984-141.7h77.82c4.3438 0 7.8711-3.5273 7.8711-7.8711s-3.5273-7.8711-7.8711-7.8711l-80.688-0.003906c-2.2266-15.398 2.0234-30.953 12.004-43.004 10.5-12.691 25.977-19.973 42.453-19.973h10.516 0.03125 110.13 0.015625 0.023438 10.469c16.477 0 31.945 7.2812 42.453 19.973 10.508 12.691 14.762 29.262 11.676 45.445l-14.527 76.281h-65.832c-4.3438 0-7.8711 3.5273-7.8711 7.8711s3.5273 7.8711 7.8711 7.8711h62.836l-20.996 110.21h-49.711c-4.3438 0-7.8711 3.5273-7.8711 7.8711s3.5273 7.8711 7.8711 7.8711h46.711l-6 31.488-144.4 0.003906z"/>
 </g>
 <path d="m376.38 462.98h-47.23c-4.3438 0-7.8711 3.5273-7.8711 7.8711s3.5273 7.8711 7.8711 7.8711h47.23c4.3438 0 7.8711-3.5273 7.8711-7.8711 0-4.3477-3.5273-7.8711-7.8711-7.8711z"/>
 <path d="m439.36 400h47.23c4.3438 0 7.8711-3.5273 7.8711-7.8711s-3.5273-7.8711-7.8711-7.8711h-47.23c-4.3438 0-7.8711 3.5273-7.8711 7.8711s3.5234 7.8711 7.8711 7.8711z"/>
 <path d="m447.23 518.08c0-4.3438-3.5273-7.8711-7.8711-7.8711h-47.23c-4.3438 0-7.8711 3.5273-7.8711 7.8711s3.5273 7.8711 7.8711 7.8711h47.23c4.3438 0 7.8711-3.5234 7.8711-7.8711z"/>
</svg>