<?xml version="1.0" encoding="UTF-8"?>
<!-- The Best Svg Icon site in the world: iconSvg.co, Visit us! https://iconsvg.co -->
<svg fill="#000000" width="800px" height="800px" version="1.1" viewBox="144 144 512 512" xmlns="http://www.w3.org/2000/svg">
 <g>
  <path d="m581.05 435.42h-24.102l-8.5352-40.969c-0.76172-3.6445-3.9805-6.2617-7.707-6.2617h-68.879v-15.742h2.9922c11.371-0.003907 20.621-9.2539 20.621-20.629v-21.727c0-2.4766-0.50781-4.8203-1.3125-7.0234 14.453-4.9727 24.93-18.555 24.93-34.676v-5.082c0-20.301-16.516-36.82-36.82-36.82h-115.29c-20.301 0-36.82 16.52-36.82 36.82v5.082c0 20.305 16.52 36.82 36.82 36.82h10.414v62.977h-57.07c-2.7148 0-5.2344 1.3984-6.6758 3.7031l-27.211 43.527h-21.441l-28.863-173.18h14.324c4.3477 0 7.8711-3.5234 7.8711-7.8711v-47.23c0-4.3477-3.5234-7.8711-7.8711-7.8711l-78.719-0.003906c-4.3477 0-7.8711 3.5234-7.8711 7.8711v47.23c0 4.3477 3.5234 7.8711 7.8711 7.8711h16.949l29.422 176.54c-13.379 5.9727-22.758 19.344-22.758 34.91v79.824c0 4.3477 3.5234 7.8711 7.8711 7.8711h47.941c3.7656 22.301 23.164 39.359 46.52 39.359 23.359 0 42.754-17.059 46.52-39.359h151c3.7656 22.301 23.164 39.359 46.52 39.359 23.359 0 42.754-17.059 46.52-39.359h40.074c4.3477 0 7.8711-3.5234 7.8711-7.8711v-62.977c0-30.387-24.719-55.105-55.105-55.105zm-101.35-83.602c0 2.6445-2.2383 4.8828-4.8828 4.8828h-21.727c-2.6406 0-4.8789-2.2383-4.8789-4.8828v-21.727c0-2.6406 2.2383-4.8789 4.8828-4.8789h21.727c2.6445 0 4.8828 2.2383 4.8828 4.8828zm-46.648 4.8828h-8.457v-31.488h8.457c-0.027344 0.10547-0.015626 0.22266-0.039063 0.32812-0.33203 1.4688-0.54688 2.9844-0.54688 4.5547v21.727c0 1.5703 0.21094 3.0859 0.54297 4.5547 0.027343 0.10156 0.019531 0.21875 0.042969 0.32422zm-87.176-68.309v-5.082c0-11.617 9.457-21.074 21.074-21.074h115.29c11.621 0 21.074 9.457 21.074 21.074v5.082c0.003906 11.621-9.4531 21.074-21.074 21.074h-115.29c-11.617 0-21.074-9.4531-21.074-21.074zm47.23 36.82h15.742v39.359c0 4.3477 3.5234 7.8711 7.8711 7.8711h39.363v15.742h-62.977zm-68.453 78.719h209.65l6.5586 31.488h-235.89zm-145.07-188.93h62.977v31.488h-15.742l-31.492-0.003906h-15.742zm53.902 220.41-28.863-173.18h15.523l28.863 173.18zm64.18 149.57c-17.363 0-31.488-14.125-31.488-31.488 0-17.363 14.125-31.488 31.488-31.488 17.363 0 31.488 14.125 31.488 31.488-0.003906 17.363-14.129 31.488-31.488 31.488zm244.03 0c-17.363 0-31.488-14.125-31.488-31.488 0-17.363 14.125-31.488 31.488-31.488 17.363 0 31.488 14.125 31.488 31.488 0 17.363-14.125 31.488-31.488 31.488zm78.719-39.359h-32.145c-0.027343-0.16797-0.097656-0.32422-0.12891-0.49219-0.43359-2.4219-1.0586-4.7695-1.8477-7.0469-0.13672-0.39062-0.28125-0.77344-0.42578-1.1602-0.85547-2.2695-1.8555-4.4648-3.0352-6.5547-0.15625-0.28125-0.33594-0.54297-0.5-0.82031-1.2773-2.1602-2.6836-4.2344-4.2773-6.1562-0.027344-0.035156-0.0625-0.0625-0.089844-0.097656-1.6016-1.918-3.375-3.6836-5.2539-5.3281-0.19922-0.17578-0.38672-0.36328-0.58984-0.53516-1.8359-1.5508-3.8047-2.9375-5.8672-4.1992-0.33984-0.20703-0.67578-0.42188-1.0195-0.62109-2.0508-1.1875-4.1953-2.2148-6.4258-3.0898-0.38672-0.15234-0.77734-0.28906-1.168-0.42969-2.2891-0.82422-4.6445-1.5-7.0781-1.9648-0.30859-0.058594-0.62891-0.089844-0.94141-0.14453-2.582-0.44141-5.2188-0.72266-7.9258-0.72266-2.707 0-5.3438 0.28125-7.9297 0.71875-0.3125 0.054688-0.62891 0.085938-0.94141 0.14453-2.4375 0.46484-4.7891 1.1406-7.0781 1.9648-0.39062 0.14062-0.78125 0.27734-1.168 0.42969-2.2305 0.87109-4.375 1.9023-6.4258 3.0898-0.34766 0.19922-0.67969 0.41406-1.0195 0.62109-2.0586 1.2617-4.0312 2.6484-5.8672 4.1992-0.20312 0.17188-0.38672 0.35938-0.58984 0.53516-1.8828 1.6445-3.6523 3.4102-5.2539 5.3281-0.027344 0.035157-0.0625 0.0625-0.089844 0.097657-1.5938 1.9219-3 3.9961-4.2773 6.1562-0.16406 0.27734-0.33984 0.53906-0.5 0.82031-1.1797 2.0898-2.1797 4.2852-3.0352 6.5547-0.14453 0.38672-0.28906 0.76953-0.42578 1.1602-0.78906 2.2773-1.4141 4.625-1.8477 7.0469-0.027344 0.17188-0.097656 0.32422-0.125 0.49609h-150.88c-0.027343-0.16797-0.097656-0.32422-0.12891-0.49219-0.43359-2.4219-1.0586-4.7695-1.8477-7.0469-0.13672-0.39062-0.28125-0.77344-0.42578-1.1602-0.85547-2.2695-1.8555-4.4648-3.0352-6.5547-0.15625-0.28125-0.33594-0.54297-0.5-0.82031-1.2773-2.1602-2.6836-4.2344-4.2773-6.1562-0.027344-0.035156-0.0625-0.0625-0.089844-0.097656-1.6016-1.918-3.375-3.6836-5.2539-5.3281-0.19922-0.17578-0.38672-0.36328-0.58984-0.53516-1.8359-1.5508-3.8047-2.9375-5.8672-4.1992-0.33984-0.20703-0.67578-0.42188-1.0195-0.62109-2.0508-1.1875-4.1953-2.2148-6.4258-3.0898-0.38672-0.15234-0.77734-0.28906-1.168-0.42969-2.2891-0.82422-4.6445-1.5-7.0781-1.9648-0.30859-0.058594-0.62891-0.089844-0.94141-0.14453-2.582-0.44141-5.2188-0.72266-7.9258-0.72266-2.707 0-5.3438 0.28125-7.9297 0.71875-0.3125 0.054688-0.62891 0.085938-0.94141 0.14453-2.4375 0.46484-4.7891 1.1406-7.0781 1.9648-0.39062 0.14062-0.78125 0.27734-1.168 0.42969-2.2305 0.87109-4.375 1.9023-6.4258 3.0898-0.34766 0.19922-0.67969 0.41406-1.0195 0.62109-2.0586 1.2617-4.0312 2.6484-5.8672 4.1992-0.20312 0.17188-0.38672 0.35938-0.58984 0.53516-1.8828 1.6445-3.6523 3.4102-5.2539 5.3281-0.027344 0.035157-0.0625 0.0625-0.089844 0.097657-1.5938 1.9219-3 3.9961-4.2773 6.1562-0.16406 0.27734-0.33984 0.53906-0.5 0.82031-1.1797 2.0898-2.1797 4.2852-3.0352 6.5547-0.14453 0.38672-0.28906 0.76953-0.42578 1.1602-0.78906 2.2773-1.4141 4.625-1.8477 7.0469-0.027344 0.17188-0.097656 0.32422-0.12891 0.49609h-40.016v-71.953c0-12.414 10.098-22.512 22.512-22.512h347.47c21.703 0 39.359 17.66 39.359 39.359z"/>
  <path d="m424.6 297.66c6.5117 0 11.809-5.2969 11.809-11.809s-5.2969-11.809-11.809-11.809c-6.5117 0-11.809 5.2969-11.809 11.809s5.2969 11.809 11.809 11.809zm0-15.746c2.1719 0 3.9375 1.7656 3.9375 3.9375s-1.7656 3.9375-3.9375 3.9375-3.9375-1.7656-3.9375-3.9375c0.003906-2.1719 1.7656-3.9375 3.9375-3.9375z"/>
  <path d="m393.11 285.86c0-6.5117-5.2969-11.809-11.809-11.809s-11.809 5.2969-11.809 11.809 5.2969 11.809 11.809 11.809 11.809-5.2969 11.809-11.809zm-11.809 3.9336c-2.1719 0-3.9375-1.7656-3.9375-3.9375 0-2.1719 1.7656-3.9375 3.9375-3.9375s3.9375 1.7656 3.9375 3.9375c0 2.1758-1.7656 3.9375-3.9375 3.9375z"/>
  <path d="m467.89 297.66c6.5117 0 11.809-5.2969 11.809-11.809s-5.2969-11.809-11.809-11.809-11.809 5.2969-11.809 11.809 5.2969 11.809 11.809 11.809zm0-15.746c2.1719 0 3.9375 1.7656 3.9375 3.9375s-1.7656 3.9375-3.9375 3.9375-3.9375-1.7656-3.9375-3.9375 1.7656-3.9375 3.9375-3.9375z"/>
  <path d="m463.96 329.15c-4.3477 0-7.8711 3.5234-7.8711 7.8711v7.8711c0 4.3477 3.5234 7.8711 7.8711 7.8711 4.3477 0 7.8711-3.5234 7.8711-7.8711v-7.8711c0.003906-4.3438-3.5234-7.8711-7.8711-7.8711z"/>
 </g>
</svg>