<?xml version="1.0" encoding="UTF-8"?>
<!-- The Best Svg Icon site in the world: iconSvg.co, Visit us! https://iconsvg.co -->
<svg width="800px" height="800px" version="1.1" viewBox="144 144 512 512" xmlns="http://www.w3.org/2000/svg">
 <defs>
  <clipPath id="a">
   <path d="m211 148.09h378v503.81h-378z"/>
  </clipPath>
 </defs>
 <g clip-path="url(#a)">
  <path d="m581.05 636.16h-15.742v-7.8711c0-21.703-17.656-39.359-39.359-39.359h-0.55859c-3.8242-26.672-26.828-47.23-54.547-47.23-8.2891 0-16.398 1.8594-23.805 5.4219-10.141-11.398-24.098-18.703-39.172-20.617v-220.97h55.105c47.742 0 86.594-38.848 86.594-86.594l-0.003906-62.977c0-4.3438-3.5195-7.8711-7.8711-7.8711h-62.977c-47.742 0-86.594 38.848-86.594 86.594v52.703c-15.68-22.312-41.562-36.961-70.848-36.961h-62.977c-4.3516 0-7.8711 3.5273-7.8711 7.8711v62.977c0 47.742 38.848 86.594 86.594 86.594h55.105v118.63c-15.074 1.9141-29.031 9.2188-39.172 20.617-0.30078-0.14062-0.60547-0.23438-0.90625-0.37891-1.1875-0.54297-2.3945-1.0391-3.6211-1.4961-0.61328-0.22656-1.2188-0.46484-1.8359-0.67578-1.2656-0.42578-2.5664-0.78125-3.8711-1.1172-0.59766-0.14844-1.1875-0.33203-1.793-0.46484-1.4023-0.30859-2.8242-0.52734-4.2656-0.72266-0.52734-0.070313-1.0391-0.17969-1.5664-0.24219-1.957-0.20313-3.9414-0.32813-5.9492-0.32813-27.719 0-50.711 20.562-54.547 47.23h-0.55469c-21.703 0-39.359 17.656-39.359 39.359v7.8711l-15.746 0.003906c-4.3516 0-7.8711 3.5273-7.8711 7.8711s3.5195 7.8711 7.8711 7.8711h362.11c4.3516 0 7.8711-3.5273 7.8711-7.8711s-3.5156-7.8711-7.8711-7.8711zm-102.34-472.32h55.105v55.105c0 39.062-31.781 70.848-70.848 70.848h-43.973l81.023-81.027c3.0781-3.0781 3.0781-8.0547 0-11.133s-8.0547-3.0781-11.133 0l-81.023 81.031v-43.973c0-39.062 31.777-70.852 70.848-70.852zm-212.54 157.44v-55.105h55.105c39.07 0 70.848 31.789 70.848 70.848v43.973l-81.027-81.023c-3.0781-3.0781-8.0547-3.0781-11.133 0s-3.0781 8.0547 0 11.133l81.027 81.023h-43.973c-39.07 0-70.848-31.785-70.848-70.848zm-15.746 307.01c0-13.02 10.598-23.617 23.617-23.617h7.8711c4.3516 0 7.8711-3.5273 7.8711-7.8711 0-21.703 17.656-39.359 39.359-39.359 2.4102 0 4.7383 0.29297 7.0312 0.70703 0.69922 0.125 1.3945 0.29297 2.0859 0.46484 1.6602 0.39453 3.2734 0.90625 4.8477 1.5117 0.62891 0.24219 1.2734 0.44141 1.8984 0.71484 13.809 6.1172 23.5 19.91 23.5 35.961 0 4.3438 3.5195 7.8711 7.8711 7.8711 4.3516 0 7.8711-3.5273 7.8711-7.8711 0-16.121-7-30.598-18.074-40.684 8.8398-9.1016 20.996-14.422 33.82-14.422 15.312 0 29.75 7.5195 38.613 20.098 2.4492 3.4648 7.1797 4.3828 10.738 2.0625 6.4297-4.1953 13.852-6.418 21.496-6.418 21.703 0 39.359 17.656 39.359 39.359 0 4.3438 3.5195 7.8711 7.8711 7.8711h7.8711c13.02 0 23.617 10.598 23.617 23.617v7.8711l-299.14 0.003906z"/>
 </g>
</svg>