<?xml version="1.0" encoding="UTF-8"?>
<!-- The Best Svg Icon site in the world: iconSvg.co, Visit us! https://iconsvg.co -->
<svg fill="#000000" width="800px" height="800px" version="1.1" viewBox="144 144 512 512" xmlns="http://www.w3.org/2000/svg">
 <g>
  <path d="m345.38 260.71c13.438 7.6328 23.094 20.035 27.191 34.914 4.0977 14.875 2.1523 30.469-5.4805 43.906-2.1523 3.7812-0.83203 8.5859 2.9531 10.734 1.2305 0.69531 2.5664 1.0273 3.8828 1.0273 2.7383 0 5.4062-1.4297 6.8477-3.9805 9.7188-17.098 12.191-36.934 6.9805-55.867-5.2109-18.93-17.496-34.711-34.594-44.422-3.7969-2.1523-8.5938-0.82422-10.73 2.957-2.1562 3.7773-0.83203 8.582 2.9492 10.73z"/>
  <path d="m470.09 171.64h-7.4961c-31.012 0-59.035 17.695-72.914 44.5-21.375-32.41-42.234-49.711-43.223-50.523-2.9062-2.375-7.082-2.375-9.9727 0-3.6289 2.9648-88.746 74.066-88.746 201.21 0 44.09 22.227 82.945 56.117 100.06l-13.164 160.76c-0.17578 2.1914 0.57031 4.3594 2.0586 5.9766 1.4922 1.6172 3.5898 2.5352 5.7891 2.5352h85.855c2.2695 0 4.4219-0.97656 5.9102-2.6758 1.5-1.7031 2.1836-3.9648 1.8984-6.207l-20.363-157.19c9.8125-3.8984 19.047-9.7617 27.191-17.207 7.8398 7.2266 17.488 12.254 27.969 14.316l-7.5508 160.72c-0.10156 2.1484 0.68359 4.2461 2.168 5.8047s3.543 2.4375 5.6953 2.4375h78.051c2.207 0 4.3125-0.92578 5.8047-2.5547 1.4922-1.625 2.2305-3.8047 2.0391-6.0039l-14.012-159.43c29.66-2.3828 53.066-27.285 53.066-57.555v-156.8c0-45.309-36.863-82.176-82.172-82.176zm-206.6 195.19c0-102.15 60.078-167.33 77.996-184.5 8.5039 8.1055 26.461 26.906 42.895 55.07 23.262 40.027 35.062 83.574 35.062 129.43 0 26.578-9.4648 51.926-26.023 69.594-8.3086 9.0352-18.359 15.879-29.168 19.828-0.33984 0.12891-0.70703 0.26172-1.082 0.39453-0.34766 0-0.67187-0.11328-1.0234-0.0625-1.2539 0.16406-2.3516 0.67578-3.332 1.3398-12.996 3.7578-27.238 3.2188-40.238-1.707-32.945-12.059-55.086-47.977-55.086-89.387zm43.594 253.59 12.082-147.45c7.2422 2.1016 14.711 3.1992 22.305 3.1992 5.1641 0 10.242-0.55469 15.082-1.5l18.887 145.75zm229.43-209.8c0 23.16-18.844 42-41.996 42h-3.9062c-2.207 0-4.3125 0.92578-5.8047 2.5547-1.4922 1.625-2.2305 3.8047-2.0391 6.0039l14 159.24h-61.207l7.5039-159.71c0.19922-4.3047-3.0977-7.9727-7.3945-8.2266-9.6641-0.57422-18.797-4.4727-25.859-10.91 0.36719-0.45703 0.68359-0.96484 1.0469-1.4258 0.86328-1.1055 1.6758-2.2578 2.4961-3.4023 1.1602-1.6211 2.2969-3.2539 3.3711-4.9453 0.78906-1.2422 1.543-2.5117 2.2852-3.793 0.98828-1.6992 1.9336-3.4219 2.8359-5.1797 0.69141-1.3477 1.3555-2.7031 1.9961-4.0859 0.82812-1.7891 1.6016-3.6055 2.3438-5.4492 0.57031-1.4141 1.1367-2.8281 1.6562-4.2734 0.68359-1.9062 1.2891-3.8398 1.8828-5.7891 0.4375-1.4375 0.89062-2.8672 1.2734-4.3242 0.54297-2.0625 0.98438-4.1562 1.4258-6.2539 0.29297-1.4023 0.625-2.7852 0.87109-4.2031 0.40625-2.3398 0.68359-4.7148 0.96094-7.0898 0.14062-1.2109 0.34375-2.4062 0.44531-3.625 0.3125-3.6094 0.48828-7.2422 0.48828-10.902 0-6.0156-0.19922-11.988-0.57812-17.926-0.125-1.9258-0.38672-3.8242-0.55078-5.7461-0.33984-3.9922-0.65625-7.9922-1.1719-11.945-0.29688-2.2734-0.74219-4.5156-1.0938-6.7773-0.55469-3.5586-1.0664-7.1289-1.7656-10.656-0.47266-2.3906-1.0938-4.7461-1.6328-7.1172-0.76172-3.3594-1.4766-6.7266-2.3672-10.055-0.64453-2.4141-1.4375-4.793-2.1523-7.1914-0.96484-3.2383-1.8867-6.4883-2.9766-9.6953-0.81641-2.4062-1.7773-4.7773-2.6641-7.168-1.1719-3.1523-2.3047-6.3086-3.5977-9.4297-0.99219-2.3906-2.1172-4.7422-3.1797-7.1133-1.3711-3.0586-2.7109-6.1289-4.2031-9.1562-1.168-2.3711-2.4609-4.6992-3.6992-7.0508-1.2852-2.4336-2.4727-4.8984-3.8359-7.3086 9.0117-26.723 34.41-45.113 62.875-45.113h7.4961c36.633 0 66.43 29.801 66.43 66.434z"/>
  <path d="m505.43 226.34c0-4.3477-3.5195-7.8711-7.8711-7.8711h-62.438c-4.3516 0-7.8711 3.5234-7.8711 7.8711s3.5195 7.8711 7.8711 7.8711h62.438c4.3477 0 7.8711-3.5234 7.8711-7.8711z"/>
  <path d="m505.36 265.3h-46.832c-4.3516 0-7.8711 3.5234-7.8711 7.8711 0 4.3477 3.5195 7.8711 7.8711 7.8711h46.832c4.3516 0 7.8711-3.5234 7.8711-7.8711 0-4.3438-3.5195-7.8711-7.8711-7.8711z"/>
 </g>
</svg>