<?xml version="1.0" encoding="UTF-8"?>
<!-- The Best Svg Icon site in the world: iconSvg.co, Visit us! https://iconsvg.co -->
<svg fill="#000000" width="800px" height="800px" version="1.1" viewBox="144 144 512 512" xmlns="http://www.w3.org/2000/svg">
 <g>
  <path d="m519.96 228.73h-239.93c-12.664 0-22.969 10.305-22.969 22.973v37.332c0 11.738 8.8828 21.336 20.262 22.695v72.184c0 50.812 37.93 94.547 88.227 101.73l6.3164 0.90234v106.86l-25.898 0.003906c-4.3477 0-7.8711 3.5234-7.8711 7.8711v27.016c0 4.3477 3.5234 7.8711 7.8711 7.8711h108.05c4.3477 0 7.8711-3.5234 7.8711-7.8711v-27.016c0-4.3477-3.5234-7.8711-7.8711-7.8711h-25.891v-106.86l6.3164-0.90234c50.297-7.1797 88.227-50.914 88.227-101.73v-72.184c11.379-1.3594 20.262-10.961 20.262-22.695v-37.332c-0.003906-12.664-10.309-22.973-22.977-22.973zm-73.809 391.68h-92.305v-11.27h92.301zm60.777-236.5c0 43.027-32.117 80.059-74.711 86.141l-13.074 1.8672c-3.8789 0.55469-6.7578 3.875-6.7578 7.793v113.68h-24.777v-113.68c0-3.918-2.8789-7.2383-6.7578-7.793l-13.074-1.8672c-42.594-6.0859-74.711-43.117-74.711-86.141v-71.91h24.773v52.91c0 45.301 36.855 82.156 82.156 82.156 45.301 0 82.156-36.855 82.156-82.156v-52.91h24.773zm-40.52-71.91v52.91c0 36.621-29.793 66.414-66.414 66.414s-66.414-29.793-66.414-66.414v-52.91zm60.777-22.973c0 3.9844-3.2422 7.2266-7.2266 7.2266h-239.93c-3.9844 0-7.2266-3.2422-7.2266-7.2266v-37.332c0-3.9844 3.2422-7.2305 7.2266-7.2305h239.93c3.9844 0 7.2266 3.2422 7.2266 7.2305z"/>
  <path d="m400 259.12c-6.1992 0-11.246 5.0469-11.246 11.25 0 6.1992 5.0469 11.246 11.246 11.246s11.246-5.0469 11.246-11.246c0-6.2031-5.0469-11.25-11.246-11.25zm0 15.742c-2.4805 0-4.4961-2.0156-4.4961-4.4922-0.003906-2.4805 2.0156-4.4961 4.4961-4.4961s4.4961 2.0195 4.4961 4.4961c0 2.4805-2.0195 4.4922-4.4961 4.4922z"/>
  <path d="m322.34 259.12c-6.2031 0-11.25 5.0469-11.25 11.25 0 6.1992 5.0469 11.246 11.25 11.246 6.1992 0 11.246-5.0469 11.246-11.246 0-6.2031-5.0469-11.25-11.246-11.25zm0 15.742c-2.4805 0-4.4961-2.0156-4.4961-4.4922 0-2.4805 2.0195-4.4961 4.4961-4.4961 2.4805 0 4.4922 2.0195 4.4922 4.4961 0 2.4805-2.0117 4.4922-4.4922 4.4922z"/>
  <path d="m477.66 259.12c-6.1992 0-11.246 5.0469-11.246 11.25 0 6.1992 5.0469 11.246 11.246 11.246 6.2031 0 11.25-5.0469 11.25-11.246 0.003906-6.2031-5.043-11.25-11.25-11.25zm0 15.742c-2.4805 0-4.4922-2.0156-4.4922-4.4922 0-2.4805 2.0156-4.4961 4.4922-4.4961 2.4805 0 4.4961 2.0195 4.4961 4.4961 0.003906 2.4805-2.0156 4.4922-4.4961 4.4922z"/>
  <path d="m186.86 243.41c-3.0742-3.0742-8.0547-3.0742-11.133 0-3.0742 3.0742-3.0742 8.0547 0 11.133l23.773 23.773c1.5391 1.5391 3.5508 2.3047 5.5664 2.3047s4.0273-0.76953 5.5664-2.3047c3.0742-3.0742 3.0742-8.0547 0-11.133z"/>
  <path d="m200.36 179.65c-3.0742-3.0742-8.0547-3.0742-11.133 0-3.0742 3.0742-3.0742 8.0547 0 11.133l23.773 23.773c1.5391 1.5391 3.5508 2.3047 5.5664 2.3047s4.0273-0.76953 5.5664-2.3047c3.0742-3.0742 3.0742-8.0547 0-11.133z"/>
  <path d="m282.32 203.36c2.0156 0 4.0273-0.76953 5.5664-2.3047 3.0742-3.0742 3.0742-8.0547 0-11.133l-23.773-23.773c-3.0742-3.0742-8.0547-3.0742-11.133 0-3.0742 3.0742-3.0742 8.0547 0 11.133l23.773 23.773c1.5391 1.5352 3.5547 2.3047 5.5664 2.3047z"/>
  <path d="m624.27 243.41c-3.0742-3.0742-8.0547-3.0742-11.133 0l-23.773 23.773c-3.0742 3.0742-3.0742 8.0547 0 11.133 1.5391 1.5391 3.5508 2.3047 5.5664 2.3047s4.0273-0.76953 5.5664-2.3047l23.773-23.773c3.0742-3.0742 3.0742-8.0547 0-11.133z"/>
  <path d="m610.77 179.65c-3.0742-3.0742-8.0547-3.0742-11.133 0l-23.773 23.773c-3.0742 3.0742-3.0742 8.0547 0 11.133 1.5391 1.5391 3.5508 2.3047 5.5664 2.3047 2.0156 0 4.0273-0.76953 5.5664-2.3047l23.773-23.773c3.0781-3.0781 3.0781-8.0586 0-11.133z"/>
  <path d="m535.88 166.14-23.773 23.773c-3.0742 3.0742-3.0742 8.0547 0 11.133 1.5391 1.5391 3.5508 2.3047 5.5664 2.3047s4.0273-0.76953 5.5664-2.3047l23.773-23.773c3.0742-3.0742 3.0742-8.0547 0-11.133-3.0742-3.0742-8.0586-3.0742-11.133 0z"/>
 </g>
</svg>