<?xml version="1.0" encoding="UTF-8"?>
<!-- The Best Svg Icon site in the world: iconSvg.co, Visit us! https://iconsvg.co -->
<svg fill="#000000" width="800px" height="800px" version="1.1" viewBox="144 144 512 512" xmlns="http://www.w3.org/2000/svg">
 <g>
  <path d="m340.66 350.48c-6.6797 0-12.117 5.3945-12.117 12.023s5.4336 12.023 12.117 12.023c6.6719 0 12.105-5.3945 12.105-12.023 0-6.6328-5.4336-12.023-12.105-12.023zm0 15.742c-2.0078 0-3.6367-1.668-3.6367-3.7188s1.6289-3.7227 3.6367-3.7227c2 0 3.6289 1.668 3.6289 3.7227-0.003906 2.0508-1.6328 3.7188-3.6289 3.7188z"/>
  <path d="m340.66 412.76c-6.6797 0-12.117 5.3984-12.117 12.023s5.4336 12.023 12.117 12.023c6.6719-0.003906 12.105-5.3984 12.105-12.027 0-6.625-5.4336-12.02-12.105-12.02zm0 15.742c-2.0078 0-3.6367-1.668-3.6367-3.7227 0-2.0508 1.6289-3.7227 3.6367-3.7227 2 0 3.6289 1.668 3.6289 3.7227-0.003906 2.0547-1.6328 3.7227-3.6289 3.7227z"/>
  <path d="m340.66 479.2c-6.6797 0-12.117 5.3984-12.117 12.023s5.4336 12.023 12.117 12.023c6.6719 0 12.105-5.3984 12.105-12.023s-5.4336-12.023-12.105-12.023zm0 15.742c-2.0078 0-3.6367-1.668-3.6367-3.7188s1.6289-3.7227 3.6367-3.7227c2 0 3.6289 1.668 3.6289 3.7227-0.003906 2.0508-1.6328 3.7188-3.6289 3.7188z"/>
  <path d="m459.34 350.48c-6.6758 0-12.109 5.3906-12.109 12.023 0 6.6289 5.4336 12.023 12.109 12.023 6.6797 0 12.117-5.3945 12.117-12.023-0.003906-6.6328-5.4375-12.023-12.117-12.023zm0 15.742c-2 0-3.6289-1.668-3.6289-3.7227 0-2.0508 1.6289-3.7227 3.6289-3.7227 2.0039 0.003906 3.6367 1.6719 3.6367 3.7266 0 2.0508-1.6328 3.7188-3.6367 3.7188z"/>
  <path d="m459.34 412.76c-6.6758 0-12.109 5.3945-12.109 12.02s5.4336 12.023 12.109 12.023c6.6797 0 12.117-5.3984 12.117-12.023-0.003906-6.625-5.4375-12.02-12.117-12.02zm0 15.742c-2 0-3.6289-1.668-3.6289-3.7227 0-2.0508 1.6289-3.7227 3.6289-3.7227 2.0039 0.003906 3.6367 1.6719 3.6367 3.7227 0 2.0547-1.6328 3.7227-3.6367 3.7227z"/>
  <path d="m459.34 479.2c-6.6758 0-12.109 5.3984-12.109 12.023s5.4336 12.023 12.109 12.023c6.6797 0 12.117-5.3984 12.117-12.023-0.003906-6.625-5.4375-12.023-12.117-12.023zm0 15.742c-2 0-3.6289-1.668-3.6289-3.7227 0-2.0508 1.6289-3.7227 3.6289-3.7227 2.0039 0.003906 3.6367 1.6758 3.6367 3.7266s-1.6328 3.7188-3.6367 3.7188z"/>
  <path d="m634.14 406.54c-2.4531-2.7188-6.4258-3.3867-9.6172-1.6445l-74.723 40.758c2.6133-76.695 26.309-157.51 29.059-164.58 1.3828-3.0547 0.67578-6.6562-1.7617-8.9648-2.4453-2.3125-6.0742-2.8125-9.0391-1.2695-0.40234 0.21094-39.289 21.254-72.82 56.062-1.5508-1.9219-3.2617-3.7383-4.9688-5.5664 1.4492-6.1602 2.3828-12.488 2.3828-18.996 0-34.539-20.684-64.469-50.75-79.176 1.2383-22.055 19.969-39.641 42.879-39.641 4.3516 0 7.8711-3.5234 7.8711-7.8711 0-4.3477-3.5195-7.8711-7.8711-7.8711-29.539 0-53.988 21.551-58.074 49.477-8.4648-2.4531-17.418-3.8047-26.703-3.8047s-18.242 1.3516-26.703 3.8008c-4.0859-27.922-28.539-49.477-58.078-49.477-4.3516 0-7.8711 3.5234-7.8711 7.8711 0 4.3477 3.5195 7.8711 7.8711 7.8711 22.91 0 41.637 17.586 42.875 39.645-30.066 14.707-50.75 44.637-50.75 79.176 0 6.5117 0.93359 12.84 2.3828 19-1.7109 1.8281-3.4219 3.6484-4.9688 5.5625-33.531-34.809-72.418-55.855-72.82-56.062-2.8984-1.5078-6.4023-0.96484-8.8477 1.2227-2.4375 2.1875-3.2305 5.7539-2.0391 8.8086 2.8281 7.2617 26.531 88.086 29.145 164.78l-74.723-40.758c-3.1992-1.7422-7.1719-1.0742-9.6172 1.6445-2.4375 2.707-2.6992 6.7422-0.62109 9.7383 0.67578 0.99219 67.75 100.21 22.855 204.97-1.0469 2.4297-0.79297 5.2188 0.66016 7.4336 1.4648 2.2148 3.9297 3.543 6.5742 3.543h409.34c2.6445 0 5.1133-1.3281 6.5742-3.5352 1.4531-2.2148 1.707-5.0039 0.66016-7.4336-44.895-104.77 22.18-203.98 22.855-204.97 2.0781-3 1.8164-7.0352-0.62109-9.7422zm-242.52 134.94 8.3867-98.586 8.3867 98.586zm32.816 2.8477-16.59-194.96c-0.34766-4.0742-3.75-7.2031-7.8398-7.2031s-7.4961 3.1289-7.8398 7.2031l-16.59 194.96c-44.125-6.9766-77.906-43.465-77.906-87.41v-66.129c0-2.0898 0.078126-4.1758 0.23047-6.2461 1.0781-14.52 5.9141-28.574 14.16-41.016 3.2812-5.0273 7.2344-9.832 11.777-14.297 17.367-17.211 41.797-27.082 67.035-27.082h18.266c25.238 0 49.668 9.8711 67.059 27.102 4.5195 4.4453 8.4727 9.25 11.793 14.324 9.3828 14.168 14.352 30.496 14.352 47.215v66.129c0 43.945-33.785 80.434-77.906 87.41zm-24.43-315.14c42.406 0 76.906 32.812 76.906 73.148 0 2.168-0.10156 4.3164-0.30078 6.4414-1.3945-1.0625-2.8555-2.0117-4.2969-3-0.76953-0.52734-1.5117-1.0938-2.293-1.6016-5.6523-3.6758-11.625-6.8008-17.859-9.3672-0.64844-0.26562-1.3125-0.49219-1.9648-0.74609-2.5195-0.98047-5.0742-1.8828-7.668-2.6797-0.78906-0.24219-1.582-0.46094-2.3789-0.6875-2.582-0.73047-5.1953-1.3633-7.8398-1.9102-0.73047-0.14844-1.457-0.30859-2.1914-0.44531-3.0039-0.55469-6.0391-0.99219-9.1094-1.3086-0.35547-0.035156-0.70703-0.09375-1.0625-0.12891-3.5625-0.33203-7.1484-0.54688-10.781-0.54688h-18.312c-3.6328 0-7.2188 0.21875-10.781 0.54688-0.35547 0.03125-0.70703 0.089844-1.0625 0.12891-3.0703 0.31641-6.1055 0.75-9.1094 1.3086-0.73438 0.13672-1.4609 0.29297-2.1914 0.44531-2.6406 0.54297-5.25 1.1797-7.8281 1.9062-0.80469 0.22656-1.6055 0.44922-2.4023 0.69531-2.5781 0.79297-5.1094 1.6836-7.6133 2.6602-0.67188 0.26172-1.3555 0.49219-2.0195 0.76562-6.2188 2.5625-12.184 5.6797-17.828 9.3477-0.79297 0.51563-1.5508 1.0898-2.332 1.6289-1.4297 0.98438-2.8867 1.9297-4.2734 2.9844-0.19922-2.125-0.30078-4.2734-0.30078-6.4414-0.011719-40.328 34.488-73.145 76.895-73.145zm193.09 387.29h-386.18c28.191-77.281 3.1289-148.43-14.684-184.52l62.309 33.988c2.4297 1.3164 5.3984 1.2695 7.7891-0.13672 2.3828-1.4258 3.8516-4.0039 3.8516-6.7773 0-63.016-15.391-130.53-24.43-163.75 14.238 9.4297 35.141 24.867 53.883 44.855-0.082031 0.14062-0.13672 0.29688-0.21875 0.44141-1.9453 3.3906-3.6484 6.8789-5.1836 10.434-0.27734 0.64453-0.5625 1.2852-0.82812 1.9375-1.4336 3.5234-2.6641 7.1133-3.6875 10.762-0.1875 0.66797-0.35547 1.3398-0.53125 2.0117-0.96484 3.7305-1.75 7.5039-2.2773 11.324-0.070313 0.50391-0.10547 1.0117-0.16797 1.5156-0.50391 4.043-0.81641 8.1172-0.81641 12.223v66.129c0 57.594 48.879 104.46 108.95 104.46h18.266c60.07 0 108.95-46.863 108.95-104.46v-66.129c0-4.1094-0.3125-8.1836-0.8125-12.23-0.0625-0.50391-0.097656-1.0078-0.16797-1.5078-0.53125-3.8359-1.3164-7.6211-2.2852-11.359-0.16797-0.64844-0.33203-1.2969-0.51172-1.9453-1.0312-3.6797-2.2734-7.3008-3.7188-10.855-0.24609-0.60156-0.50781-1.1953-0.76562-1.7891-1.5508-3.6016-3.2773-7.1367-5.25-10.566-0.074218-0.12891-0.12109-0.26562-0.19531-0.39062 18.742-19.988 39.645-35.43 53.883-44.855-9.0391 33.223-24.43 100.73-24.43 163.75 0 2.7734 1.4688 5.3516 3.8516 6.7734 2.3984 1.4141 5.3516 1.4609 7.7891 0.13672l62.309-33.988c-17.816 36.086-42.879 107.23-14.688 184.52z"/>
 </g>
</svg>