<?xml version="1.0" encoding="UTF-8"?>
<!-- The Best Svg Icon site in the world: iconSvg.co, Visit us! https://iconsvg.co -->
<svg fill="#000000" width="800px" height="800px" version="1.1" viewBox="144 144 512 512" xmlns="http://www.w3.org/2000/svg">
 <g>
  <path d="m573.18 470.85h14.738c1.207 0 2.5078-0.03125 2.9922-0.14062 25.371-1.5117 45.246-22.637 45.246-48.098v-85.586c0-3.4375-2.2305-6.4727-5.5039-7.5078-3.2383-1.0273-6.8438 0.16797-8.8086 2.9883l-13.609 19.438c-11.699-10.531-26.836-16.492-42.926-16.492-16.094 0-31.23 5.9648-42.93 16.496l-13.605-19.441c-1.9688-2.8086-5.5664-4-8.8086-2.9883-3.2773 1.0352-5.5078 4.0703-5.5078 7.5078v85.586c0 25.207 19.488 46.137 44.504 48.016 0.003906 0 0.007812 0.003906 0.011718 0.003906 0.015626 0.003906 0.03125 0 0.050782 0.003906 0.23047 0.015626 0.44922 0.058594 0.67969 0.074219 0.15234 0.011719 0.31641 0.015625 0.46875 0.015625 0.039063 0 0.078125-0.015625 0.12109-0.015625 0.80859 0.058594 1.6211 0.14062 2.4023 0.14062h14.738v100.41c-42.723-32.66-94.688-51.316-149.57-52.953l0.003906-173.41h20.387c1.4141 0 2.9375-0.03125 3.6211-0.17188 30.68-1.832 54.711-27.379 54.711-58.16v-106.98c0-3.4375-2.2305-6.4727-5.5039-7.5078-3.2422-1.0391-6.8438 0.16797-8.8086 2.9883l-18.273 26.094c-14.465-13.781-33.629-21.574-54.004-21.574-20.379 0-39.547 7.7969-54.016 21.578l-18.266-26.102c-1.9688-2.8125-5.5664-4.0117-8.8086-2.9883-3.2734 1.0391-5.5039 4.0781-5.5039 7.5117v106.98c0 30.527 23.648 55.875 53.969 58.078 0.003906 0 0.007812 0.003906 0.015625 0.003906 0.015625 0.003907 0.035156 0 0.050781 0.003907 0.23047 0.015624 0.44922 0.058593 0.67969 0.074218 0.15234 0.011719 0.31641 0.015625 0.46875 0.015625 0.042968 0 0.085937-0.015625 0.13281-0.015625 1.0156 0.082032 2.0391 0.17188 3.0195 0.17188h20.383v173.41c-51.535 1.5352-100.54 18.004-141.7 47.062v-94.516h14.738c1.207 0 2.5078-0.03125 2.9922-0.14062 25.375-1.5117 45.246-22.637 45.246-48.098v-85.586c0-3.4375-2.2305-6.4727-5.5039-7.5078-3.25-1.0273-6.8359 0.16797-8.8086 2.9883l-13.609 19.438c-11.699-10.531-26.836-16.492-42.926-16.492-16.094 0-31.23 5.9648-42.93 16.496l-13.605-19.441c-1.9688-2.8086-5.5664-4-8.8086-2.9883-3.2773 1.0352-5.5039 4.0703-5.5039 7.5078v85.586c0 25.207 19.488 46.137 44.504 48.016 0.003906 0 0.007812 0.003906 0.011718 0.003906 0.015626 0.003906 0.03125 0 0.050782 0.003906 0.23047 0.015626 0.44922 0.058594 0.67969 0.074219 0.15234 0.011719 0.31641 0.015625 0.46875 0.015625 0.039063 0 0.078125-0.015625 0.12109-0.015625 0.80859 0.058594 1.6211 0.14062 2.4023 0.14062h14.738v106.68c-12.609 10.438-24.328 22.129-34.977 35.023l-28-0.003906c-4.3516 0-7.8711 3.5234-7.8711 7.8711 0 4.3477 3.5195 7.8711 7.8711 7.8711h424.93l31.645 0.003906c4.3516 0 7.8711-3.5234 7.8711-7.8711 0-4.3477-3.5195-7.8711-7.8711-7.8711h-28c-8.5664-10.375-17.781-20.035-27.641-28.828 0.30078-0.83984 0.53516-1.7188 0.53516-2.6641zm-7.8711-119.66c12.801 0 24.848 4.9258 33.84 13.676l-17.059 24.402-16.797 23.988-33.824-48.391c8.9922-8.75 21.039-13.676 33.84-13.676zm-55.105 71.418v-60.652l45.477 65.027-19.242 27.477c-15.008-2.8906-26.234-16.145-26.234-31.852zm49.883 25.562 11.672-16.641c0.003906-0.007812 0.007812-0.019531 0.011719-0.027344l27.086-38.746 21.555-30.801v60.652c0 17.141-13.367 31.363-31.172 32.461-0.42969 0.066407-0.89063 0.035157-1.3203 0.035157h-32.68zm-160.09-252.84c17.09 0 33.141 6.8008 44.863 18.836l-21.898 31.324-22.984 32.824-44.848-64.152c11.727-12.031 27.777-18.832 44.867-18.832zm-70.852 91.234v-82.047l61.215 87.523-25.559 36.5c-20.305-3.2773-35.656-20.953-35.656-41.977zm62.355 31.34 14.945-21.312c0.003906-0.007813 0.007812-0.019532 0.011719-0.027344l27.32-39.082 37.066-52.965v82.051c0 22.465-17.527 41.109-40.637 42.523-0.62891 0.097656-1.3086 0.066406-1.9531 0.066406h-44.625zm-148.95 33.289c12.801 0 24.848 4.9258 33.84 13.676l-17.059 24.402-16.797 23.988-33.824-48.391c8.9922-8.75 21.039-13.676 33.84-13.676zm-55.105 71.418v-60.652l45.477 65.027-19.238 27.48c-15.012-2.8945-26.238-16.148-26.238-31.855zm49.883 25.562 11.672-16.641c0.003907-0.007812 0.007813-0.019531 0.011719-0.027344l27.086-38.746 21.559-30.801v60.652c0 17.141-13.367 31.363-31.172 32.461-0.42969 0.066407-0.88281 0.035157-1.3203 0.035157h-32.68zm-16.848 164.37c46.188-50.23 110.71-78.719 179.51-78.719s133.32 28.488 179.51 78.719z"/>
  <path d="m400 545.63c-6.5117 0-11.809 5.2969-11.809 11.809 0 6.5117 5.2969 11.809 11.809 11.809s11.809-5.2969 11.809-11.809c-0.003906-6.5117-5.2969-11.809-11.809-11.809zm0 15.742c-2.168 0-3.9375-1.7656-3.9375-3.9375s1.7695-3.9375 3.9375-3.9375 3.9375 1.7656 3.9375 3.9375c-0.003906 2.1758-1.7695 3.9375-3.9375 3.9375z"/>
  <path d="m325.21 573.18c-6.5117 0-11.809 5.2969-11.809 11.809 0 6.5117 5.2969 11.809 11.809 11.809 6.5117 0 11.809-5.2969 11.809-11.809 0-6.5117-5.2969-11.809-11.809-11.809zm0 15.746c-2.168 0-3.9375-1.7656-3.9375-3.9375 0-2.1719 1.7695-3.9375 3.9375-3.9375 2.168 0 3.9375 1.7656 3.9375 3.9375-0.003906 2.1719-1.7695 3.9375-3.9375 3.9375z"/>
  <path d="m474.78 573.18c-6.5117 0-11.809 5.2969-11.809 11.809 0 6.5117 5.2969 11.809 11.809 11.809s11.809-5.2969 11.809-11.809c0-6.5117-5.2969-11.809-11.809-11.809zm0 15.746c-2.168 0-3.9375-1.7656-3.9375-3.9375 0-2.1719 1.7695-3.9375 3.9375-3.9375s3.9375 1.7656 3.9375 3.9375c0 2.1719-1.7695 3.9375-3.9375 3.9375z"/>
 </g>
</svg>