<?xml version="1.0" encoding="UTF-8"?>
<!-- The Best Svg Icon site in the world: iconSvg.co, Visit us! https://iconsvg.co -->
<svg fill="#000000" width="800px" height="800px" version="1.1" viewBox="144 144 512 512" xmlns="http://www.w3.org/2000/svg">
 <path d="m611.21 523.06c0.78906-4.3242 1.3281-8.6484 1.3281-12.918 0-31.582-20.676-58.996-50.625-67.832-9.7461-14.793-26.086-24.047-43.84-24.695v-1.9375c0-4.3516-3.5234-7.8711-7.8711-7.8711v-9.0508c0-10.359-6.1836-19.582-15.719-23.488-2.8086-1.1641-5.0977-2.9922-7.7461-5.1094-5.5117-4.4102-12.375-9.8984-25.348-9.8984-13.039 0-19.926 5.5-25.461 9.9219-3.918 3.1328-7.0742 5.4297-12.32 6.1367v-81.695c8.4414 1.9805 16.875 3.0078 25.156 3.0078 26.141 0 50.711-9.7031 68.91-27.902 24.539-24.539 33.633-60.652 24.324-96.602-0.71875-2.7695-2.8789-4.9297-5.6484-5.6484-35.922-9.2852-72.055-0.21875-96.602 24.324-0.22266 0.22266-0.39453 0.48047-0.61328 0.70312-22.91-17.965-55.375-17.965-78.285 0-0.21875-0.22266-0.39062-0.48047-0.61328-0.70312-24.543-24.539-60.672-33.621-96.602-24.324-2.7695 0.71875-4.9297 2.8789-5.6484 5.6484-9.3086 35.949-0.21484 72.062 24.324 96.602 18.199 18.199 42.766 27.902 68.91 27.902 8.2773 0 16.719-1.0234 25.156-3.0078v65.801c-10.961 0.80078-17.195 5.6992-22.238 9.7422-4.6836 3.7539-8.0664 6.4688-15.543 6.4688-5.2617 0-8.2422-1.3477-10.41-2.6406-7.6953-4.6602-17.055-4.75-25.051-0.25391-8.2344 4.6367-13.352 13.348-13.352 22.73v11.336c-4.3477 0-7.8711 3.5195-7.8711 7.8711v1.9375c-17.828 0.64844-34.23 9.9727-43.91 24.801-11.094 3.2891-21.375 9.2344-29.848 17.621-13.352 13.449-20.707 31.238-20.707 50.105 0 4.2344 0.53516 8.5391 1.3203 12.859-2.2461 1.6953-4.4336 3.5195-6.4961 5.582-11.891 11.902-18.441 27.715-18.441 44.535 0 34.723 28.25 62.977 62.977 62.977h346.37c16.82 0 32.637-6.5508 44.539-18.441 11.891-11.902 18.441-27.715 18.441-44.535 0-19.98-9.2773-38.262-24.945-50.059zm-313.55-99.512h204.67v31.488h-204.67zm110.11-51.098c-0.93359-0.6875-1.8867-1.4414-2.9102-2.2617-0.96875-0.77344-2.0117-1.5859-3.1055-2.4023-0.34766-0.26172-0.71094-0.50391-1.0781-0.76562-0.89844-0.63672-1.8555-1.2461-2.8672-1.8516-0.42578-0.25391-0.83203-0.50781-1.2852-0.75391-1.3555-0.72656-2.793-1.4219-4.4023-2.0078v-88.426h15.742l0.003906 98.535c-0.03125-0.023437-0.066406-0.042969-0.097656-0.066406zm120.06-190.8c6.0391 28.945-1.7617 57.422-21.281 76.949-17.336 17.344-41.738 25.367-67.266 22.73l32.629-32.629c3.0742-3.0742 3.0742-8.0547 0-11.133-3.0742-3.0742-8.0547-3.0742-11.133 0l-32.629 32.629c-2.6367-25.52 5.3945-49.926 22.734-67.266 19.523-19.52 48.02-27.305 76.945-21.281zm-98.742 23.215c-10.738 15.52-16.594 33.934-17.055 53.375h-24.074c-0.46094-19.445-6.3203-37.855-17.055-53.375 17.129-13.246 41.047-13.246 58.184 0zm-135.65 53.734c-19.523-19.527-27.32-48.004-21.281-76.949 28.934-6.0352 57.418 1.7539 76.949 21.281 17.34 17.34 25.371 41.75 22.734 67.266l-32.629-32.629c-3.0742-3.0742-8.0547-3.0742-11.133 0-3.0742 3.0742-3.0742 8.0547 0 11.133l32.625 32.625c-25.523 2.6289-49.93-5.3906-67.266-22.727zm12.09 137.88c0-3.7617 1.9961-7.1328 5.3359-9.0117 1.4258-0.8125 5.168-2.418 9.2188 0.035156 5.6016 3.332 11.48 4.8867 18.512 4.8867 13.008 0 19.875-5.5039 25.391-9.9297 4.6719-3.7422 8.043-6.4453 15.465-6.4453 1.293 0 2.4688 0.12109 3.6953 0.31641 5.0625 0.71875 7.9258 3.0039 11.891 6.1719 4.5508 3.6367 10.219 8.1641 19.422 9.4688 0.03125 0.003906 0.066406 0 0.097656 0.007812 0.03125 0.003906 0.050781 0.015625 0.082031 0.019532 0.36719 0.050781 0.73828 0.078124 1.1016 0.078124 0.019531 0 0.035156-0.007812 0.050781-0.007812 1.4688 0.17188 2.957 0.32422 4.5898 0.32422 12.98 0 19.852-5.4883 25.375-9.8984 4.707-3.7578 8.1094-6.4766 15.637-6.4766 7.4492 0 10.832 2.707 15.516 6.4492 3.125 2.5039 6.6719 5.3359 11.574 7.3672 3.6289 1.4805 5.9727 4.9883 5.9727 8.9297v9.0508h-188.93zm-23.617 36.891v29.551c0 4.3516 3.5234 7.8711 7.8711 7.8711h220.42c4.3477 0 7.8711-3.5195 7.8711-7.8711v-29.551c13.254 0.67578 25.422 8.0117 32.109 19.703 3.457 5.8477 5.2852 12.598 5.2852 19.523v6.0664c0 13.246-6.6172 25.5-17.781 32.832-6.3438 4.2695-13.805 6.5273-21.582 6.5273h-232.23c-7.7773 0-15.238-2.2617-21.656-6.582-11.082-7.2773-17.699-19.531-17.699-32.777v-6.0664c0-6.9258 1.8242-13.676 5.3398-19.617 6.6328-11.602 18.797-18.934 32.051-19.609zm-62.633 37.82c3.1523-3.1211 6.6211-5.8359 10.328-8.0938-0.050781 0.29688-0.03125 0.60938-0.078125 0.90625-0.45312 2.832-0.75391 5.6953-0.75391 8.5938v6.0664c0 18.566 9.2734 35.738 24.73 45.887 8.9531 6.0352 19.453 9.2188 30.375 9.2188h232.23c10.922 0 21.422-3.1836 30.297-9.1641 15.531-10.203 24.805-27.375 24.805-45.941v-6.0664c0-2.9023-0.30078-5.7695-0.75-8.6055-0.050782-0.30859-0.027344-0.63281-0.082032-0.94141 16.094 9.7539 26.418 27.398 26.418 47.102 0 4.7266-0.62891 9.5703-1.8516 14.32-2.4922 9.2266-7.4336 17.766-14.242 24.645-10.484 10.41-24.336 16.141-39.012 16.141h-283.39c-3.1094 0-6.1719-0.26172-9.1641-0.76562-20.934-3.5352-38.398-18.984-44.074-39.984-1.2344-4.8242-1.8633-9.6484-1.8633-14.355 0-14.676 5.7305-28.535 16.086-38.961zm387.3 135.34c-8.9219 8.918-20.785 13.828-33.402 13.828h-346.37c-26.047 0-47.23-21.188-47.23-47.23 0-12.613 4.9141-24.477 13.828-33.402 0.10938-0.10938 0.21875-0.21484 0.32812-0.32422 0.019531 0.039063 0.042969 0.074219 0.0625 0.11328 1.2773 2.8008 2.7734 5.4688 4.3828 8.0469 0.26172 0.41797 0.50781 0.84375 0.78125 1.2578 1.6016 2.4453 3.3516 4.7695 5.2305 6.9883 0.35547 0.42188 0.71875 0.83203 1.0859 1.2461 1.9375 2.1836 3.9844 4.2578 6.168 6.1836 0.31641 0.28125 0.65234 0.53516 0.97656 0.8125 2.2734 1.9336 4.6445 3.75 7.1445 5.3828 0.082032 0.054688 0.15625 0.11719 0.23828 0.16797 2.5352 1.6406 5.2031 3.0781 7.9336 4.3906 0.42578 0.20312 0.84375 0.42578 1.2734 0.62109 2.6484 1.207 5.3828 2.2344 8.1797 3.1094 0.52734 0.16406 1.0547 0.32422 1.5898 0.47656 2.8359 0.81641 5.7305 1.4805 8.6836 1.9375 0.44141 0.070313 0.88672 0.10547 1.3281 0.16797 3.1172 0.42188 6.2852 0.69531 9.5039 0.69531h283.39c18.859 0 36.648-7.3477 50.152-20.758 1.9609-1.9844 3.7539-4.1055 5.4648-6.2812 0.42969-0.54688 0.83984-1.0977 1.2539-1.6562 1.5039-2.0352 2.9141-4.125 4.1914-6.2969 0.12891-0.21484 0.27344-0.41797 0.39844-0.63672 1.125-1.957 2.168-3.9531 3.1016-6 8.9961 8.7344 14.156 20.789 14.156 33.758 0 12.613-4.9102 24.477-13.828 33.402z"/>
</svg>