<?xml version="1.0" encoding="UTF-8"?>
<!-- The Best Svg Icon site in the world: iconSvg.co, Visit us! https://iconsvg.co -->
<svg fill="#000000" width="800px" height="800px" version="1.1" viewBox="144 144 512 512" xmlns="http://www.w3.org/2000/svg">
 <g>
  <path d="m510.12 457.3h-86.594v-47.402l62.438-64.676c4.0977 1.0234 8.3047 1.7148 12.672 1.7148 18.648 0 39.004-9.125 54.754-25.438v-0.003906c26.164-27.098 35.191-105.05 35.559-108.36 0.26953-2.3906-0.57031-4.7734-2.2812-6.4688-1.707-1.6953-4.0781-2.5117-6.4844-2.2266-3.2031 0.38281-78.672 9.7539-104.91 36.934-19.449 20.145-28.086 47.457-22.727 69.645l-29.023 30.059v-71.195c28.449-14.156 47.23-46.492 47.23-82.324 0-14.23-6.2031-19.926-11.41-22.195-18.25-7.9883-51.566 18.207-67.312 32.055-15.742-13.84-49.051-40.043-67.312-32.055-5.2031 2.2695-11.41 7.9648-11.41 22.195 0 35.832 18.781 68.168 47.23 82.324l0.015625 99.781-16.352-16.973c2.9648-18.035-4.0352-38.715-18.785-53.988v-0.003906c-21.043-21.793-79.547-28.223-86.145-28.883-2.3438-0.25391-4.668 0.59375-6.332 2.25-1.668 1.6562-2.5117 3.9727-2.2891 6.3164 0.63281 6.8164 6.8203 67.199 27.781 88.906 12.613 13.066 29.082 20.391 44.574 20.391 2.6562 0 5.2617-0.29297 7.8359-0.73047l49.711 51.559v18.793h-86.594c-2.3477 0-4.5742 1.0508-6.0703 2.8594-1.5 1.8125-2.1055 4.1992-1.6602 6.5039l31.488 163.06c0.71484 3.707 3.9609 6.3789 7.7305 6.3789h173.18c3.7695 0 7.0156-2.6758 7.7305-6.3789l31.488-163.06c0.44531-2.3047-0.16016-4.6875-1.6602-6.5039-1.4961-1.8125-3.7188-2.8594-6.0703-2.8594zm-23.52-204.99c16.035-16.605 60.48-26.754 85.355-30.785-3.8711 25.762-13.715 72.285-29.887 89.035v-0.003906c-16.719 17.324-39.145 24.758-55.859 18.488-1.6641-0.61328-3.1758-1.4492-4.6641-2.3242l38.445-39.82c3.0195-3.1289 2.9336-8.1133-0.19141-11.133-3.1289-3.0117-8.1133-2.9258-11.133 0.19141l-37.938 39.293c-0.75391-1.4414-1.5195-2.875-2.0742-4.4844-6.125-17.5 1.0859-40.996 17.945-58.457zm-27.395 74.484c1.4766 2.2109 3.0898 4.3164 4.9336 6.2305 0.050781 0.054688 0.11328 0.097656 0.16406 0.15234 0.011718 0.011718 0.015625 0.027344 0.027344 0.039062 0.015624 0.015625 0.035156 0.019532 0.050781 0.03125 1.9141 1.9531 4.0078 3.668 6.2188 5.2188l-47.078 48.762v-23.484zm-130.14-139.24c0-4.7734 0.98438-7.3359 1.9609-7.7656 0.5625-0.24609 1.2539-0.36328 2.0586-0.36328 9.0469 0 32.688 14.98 53.605 34.363 3.0117 2.7969 7.6875 2.7969 10.699 0 22.781-21.113 48.816-37.016 55.664-34 0.97656 0.42578 1.9609 2.9922 1.9609 7.7656 0 31.531-17.012 59.664-42.332 70.004-1.6523 0.67188-3.332 1.2617-5.0312 1.7695-5.0938 1.5156-10.355 2.2734-15.617 2.2734-3.5078 0-7.0156-0.33594-10.473-1.0117-3.457-0.67188-6.8633-1.6836-10.168-3.0312-25.316-10.34-42.328-38.473-42.328-70.004zm-59.309 168.79c-12.281-12.719-19.41-48.586-22.277-69.629 20.285 2.9961 54.461 10.332 66.617 22.918v-0.003906c12.258 12.703 17.77 29.824 14.047 43.59-0.41406 1.5039-1.0742 2.832-1.6953 4.1875l-32.195-33.344c-3.0156-3.1211-7.9961-3.2148-11.133-0.19141-3.125 3.0156-3.2148 8.0039-0.19141 11.133l32.719 33.887c-1.3945 0.71484-2.793 1.4297-4.3828 1.8945-0.03125 0.007813-0.058593 0.03125-0.089843 0.039063-13.062 3.7266-29.305-1.9336-41.418-14.48zm57.008 24.43c0.33203-0.21875 0.58594-0.53516 0.90625-0.76562 1.9727-1.4023 3.8594-2.918 5.543-4.6602 1.5742-1.6328 2.957-3.457 4.2461-5.3594 0.21094-0.30859 0.49609-0.56641 0.69922-0.88281l22.391 23.242v23.465zm49.531 54.551v-159.75c0.32812 0.074218 0.66406 0.097656 0.98828 0.16797 1.6914 0.36328 3.3984 0.63672 5.1094 0.875 0.72656 0.10156 1.4453 0.24219 2.1797 0.32031 2.4727 0.26562 4.9609 0.42578 7.4648 0.42578 2.5078 0 4.9922-0.16016 7.4648-0.42578 0.73047-0.078125 1.4453-0.21875 2.1758-0.32031 1.7148-0.23828 3.4219-0.50781 5.1172-0.875 0.32812-0.070312 0.66016-0.09375 0.98828-0.16797v181.72h-31.488zm95.84 185.03h-160.19l-28.449-147.32h217.09z"/>
  <path d="m352.69 559.22c-4.3477 0-7.8711 3.5234-7.8711 7.8711 0 4.6523-3.5312 8.4375-7.8711 8.4375-4.3398 0-7.8711-3.7852-7.8711-8.4375 0-4.3477-3.5234-7.8711-7.8711-7.8711s-7.8711 3.5234-7.8711 7.8711c0 13.336 10.594 24.18 23.617 24.18 13.023 0 23.617-10.848 23.617-24.18-0.007812-4.3477-3.5312-7.8711-7.8789-7.8711z"/>
  <path d="m407.79 559.22c-4.3477 0-7.8711 3.5234-7.8711 7.8711 0 4.6523-3.5312 8.4375-7.8711 8.4375s-7.8711-3.7852-7.8711-8.4375c0-4.3477-3.5234-7.8711-7.8711-7.8711-4.3477 0-7.8711 3.5234-7.8711 7.8711 0 13.336 10.594 24.18 23.617 24.18 13.023 0 23.617-10.848 23.617-24.18-0.003907-4.3477-3.5312-7.8711-7.8789-7.8711z"/>
  <path d="m447.15 591.27c13.023 0 23.617-10.848 23.617-24.18 0-4.3477-3.5234-7.8711-7.8711-7.8711-4.3477 0-7.8711 3.5234-7.8711 7.8711 0 4.6523-3.5312 8.4375-7.8711 8.4375s-7.8711-3.7852-7.8711-8.4375c0-4.3477-3.5234-7.8711-7.8711-7.8711s-7.8711 3.5234-7.8711 7.8711c-0.003906 13.332 10.59 24.18 23.609 24.18z"/>
  <path d="m560.78 401.02c-3.9219-1.9062-8.6172-0.25391-10.508 3.668l-5.7266 11.859h-18.672c-4.3477 0-7.8711 3.5234-7.8711 7.8711 0 4.3477 3.5234 7.8711 7.8711 7.8711h23.617c3.0195 0 5.7773-1.7305 7.0898-4.4492l7.8711-16.309c1.8828-3.9141 0.24219-8.625-3.6719-10.512z"/>
  <path d="m221.25 211.27 21.125 10.938c1.1406 0.58984 2.3828 0.87891 3.6211 0.87891 1.7148 0 3.4219-0.5625 4.832-1.6562l14.078-10.938c3.4336-2.668 4.0508-7.6094 1.3828-11.047-2.6758-3.4297-7.6094-4.043-11.047-1.3828l-10.102 7.8477-16.652-8.625c-3.8516-2-8.6133-0.48438-10.609 3.3711-2 3.8633-0.48828 8.6133 3.3711 10.613z"/>
  <path d="m242.36 414.89c-0.75-4.2773-4.8086-7.1484-9.1133-6.3906-4.2812 0.75-7.1445 4.832-6.3906 9.1133l2.3281 13.27-15.148 11.77c-3.4375 2.668-4.0547 7.6094-1.3867 11.043 1.5508 2 3.875 3.043 6.2188 3.043 1.6875 0 3.3906-0.53906 4.8242-1.6562l18.891-14.676c2.3047-1.7891 3.4297-4.7031 2.9258-7.5742z"/>
 </g>
</svg>