<?xml version="1.0" encoding="UTF-8"?>
<!-- The Best Svg Icon site in the world: iconSvg.co, Visit us! https://iconsvg.co -->
<svg width="800px" height="800px" version="1.1" viewBox="144 144 512 512" xmlns="http://www.w3.org/2000/svg">
 <defs>
  <clipPath id="b">
   <path d="m248 148.09h183v182.91h-183z"/>
  </clipPath>
  <clipPath id="a">
   <path d="m195 429h223v222.9h-223z"/>
  </clipPath>
 </defs>
 <path d="m602.92 412.23c-5.1406-21.812-20.906-39.07-42.18-46.16l-6.2578-2.0781c-2.3398-0.78906-4.1953-2.6445-4.9844-5l-2.0938-6.25c-7.0781-21.262-24.34-37.031-46.145-42.18-21.844-5.1562-44.305 1.2422-60.148 17.09-17.312 17.293-23.254 42.477-15.508 65.699 14.793 44.398 50.129 79.734 94.535 94.535 6.7305 2.2422 13.617 3.3359 20.445 3.3359 16.703 0 32.969-6.5586 45.258-18.852 15.844-15.844 22.234-38.332 17.078-60.141zm-28.211 49.004c-13.066 13.066-32.062 17.547-49.586 11.707-39.73-13.242-71.344-44.855-84.586-84.578-5.8398-17.531-1.3555-36.527 11.707-49.586 9.2422-9.2422 21.461-14.219 34.133-14.219 3.7383 0 7.5117 0.43359 11.266 1.3164 16.469 3.8906 29.488 15.793 34.84 31.852l2.0938 6.25c2.3398 7.0234 7.918 12.602 14.934 14.941l6.2578 2.0781c16.051 5.3594 27.953 18.383 31.836 34.848 3.8867 16.461-0.92969 33.434-12.895 45.391z"/>
 <path d="m544.53 393.86c-11.684-3.8906-20.996-13.195-24.891-24.875-1.3789-4.1172-5.8242-6.3594-9.957-4.9766-4.1172 1.3789-6.3516 5.8242-4.9766 9.957 5.4492 16.359 18.484 29.379 34.84 34.84 0.82812 0.26953 1.668 0.40234 2.4883 0.40234 3.2969 0 6.375-2.0859 7.4688-5.3828 1.3828-4.1328-0.84766-8.5898-4.9727-9.9648z"/>
 <g clip-path="url(#b)">
  <path d="m312.55 330.5c6.8242 0 13.723-1.0938 20.461-3.3438 44.398-14.793 79.727-50.129 94.527-94.535 7.7383-23.207 1.8008-48.383-15.508-65.699-15.855-15.863-38.352-22.254-60.148-17.082-21.812 5.1484-39.062 20.914-46.152 42.172l-2.0938 6.2734c-0.78125 2.332-2.6367 4.1875-4.9766 4.9766l-6.2656 2.0938c-21.262 7.0781-37.031 24.34-42.18 46.145-5.1484 21.812 1.2344 44.305 17.082 60.148 12.297 12.293 28.551 18.852 45.254 18.852zm-47.012-75.375c3.8906-16.469 15.793-29.488 31.836-34.84l6.2656-2.0938c7.0234-2.3398 12.602-7.9258 14.934-14.926l2.0938-6.2656c5.3516-16.051 18.367-27.953 34.832-31.836 3.7578-0.88281 7.5352-1.3242 11.273-1.3242 12.668 0 24.891 4.9844 34.125 14.219 13.066 13.066 17.555 32.07 11.715 49.586-13.25 39.73-44.863 71.344-84.586 84.586-17.523 5.832-36.527 1.3633-49.586-11.707-11.965-11.965-16.781-28.93-12.902-45.398z"/>
 </g>
 <path d="m311.12 248.46c0.82812 0 1.6602-0.13281 2.4883-0.41016 16.383-5.457 29.402-18.5 34.848-34.875 1.3711-4.125-0.85938-8.582-4.9844-9.957-4.125-1.3477-8.582 0.86719-9.9492 4.9922-3.8906 11.691-13.195 21.004-24.891 24.906-4.125 1.3789-6.3516 5.832-4.9766 9.957 1.0938 3.3008 4.1719 5.3867 7.4648 5.3867z"/>
 <g clip-path="url(#a)">
  <path d="m322.24 431.42c-26.434 6.2422-47.344 25.348-55.93 51.121l-0.69922 2.1094c-2.3398 7.0234-7.9258 12.602-14.918 14.934l-2.1328 0.70703c-25.758 8.5898-44.871 29.488-51.113 55.922-6.2422 26.426 1.4961 53.68 20.703 72.895 14.895 14.895 34.59 22.828 54.828 22.828 8.2656 0 16.625-1.3242 24.781-4.0469 54.555-18.184 97.977-61.605 116.16-116.16 9.375-28.133 2.1719-58.641-18.797-79.609-19.203-19.195-46.434-26.934-72.883-20.699zm76.746 95.348c-16.625 49.879-56.332 89.582-106.2 106.21-22.457 7.4766-46.777 1.7305-63.504-14.988-15.32-15.32-21.492-37.062-16.516-58.152 4.9844-21.082 20.223-37.762 40.754-44.602l2.1328-0.70703c11.684-3.8984 20.996-13.203 24.891-24.898l0.69922-2.1094c6.8477-20.555 23.531-35.793 44.609-40.777 21.074-4.9766 42.809 1.1953 58.145 16.523 16.73 16.723 22.469 41.059 14.992 63.5z"/>
 </g>
 <path d="m301.69 500.85c-4.1328-1.3867-8.5898 0.85156-9.957 4.9766-3.1172 9.3516-10.562 16.801-19.918 19.918-4.125 1.3789-6.3516 5.832-4.9766 9.957 1.1016 3.2969 4.1719 5.3828 7.4688 5.3828 0.82031 0 1.6602-0.13281 2.4883-0.41016 14.027-4.6758 25.191-15.848 29.867-29.867 1.3828-4.1328-0.84766-8.5977-4.9727-9.957z"/>
</svg>