<?xml version="1.0" encoding="UTF-8"?>
<!-- The Best Svg Icon site in the world: iconSvg.co, Visit us! https://iconsvg.co -->
<svg width="800px" height="800px" version="1.1" viewBox="144 144 512 512" xmlns="http://www.w3.org/2000/svg">
 <defs>
  <clipPath id="a">
   <path d="m148.09 203h503.81v394h-503.81z"/>
  </clipPath>
 </defs>
 <g clip-path="url(#a)">
  <path d="m644.03 407.87h-27.355l3.5508-35.441c1.1016-11.043-2.5352-22.098-9.9805-30.332-5.4648-6.0391-12.648-10.133-20.469-11.91l17.082-28.473c1.4648-2.4336 1.4961-5.4648 0.10156-7.9258-1.4062-2.4727-4.0234-4-6.8633-4h-19.406l-13.406-20.113c-2.9219-4.3828-10.18-4.3828-13.098 0l-13.406 20.113h-19.406c-2.832 0-5.457 1.5273-6.8477 3.9922-1.4023 2.4648-1.3633 5.4961 0.10156 7.9258l17.082 28.473c-7.8164 1.7852-15.004 5.8789-20.469 11.91-7.4453 8.2266-11.082 19.285-9.9805 30.332l3.543 35.449h-71.586l7.1641-35.824c5.2266-2.8008 10.027-6.9023 14.043-12.105 6.5742-8.543 8.5664-16.32 8.5742-22.891 6.5664 0 14.328-1.9922 22.859-8.5508 10.637-8.1797 16.633-19.617 16.477-31.387-0.21875-15.648-9.6367-29.387-23.617-35.465-0.32422-14.926-12.555-26.961-27.551-26.961-2.2188 0-4.4102 0.26953-6.5273 0.79688-6.2344-18.992-23.875-32.285-44.641-32.285s-38.406 13.297-44.641 32.281c-2.1211-0.52734-4.3086-0.79297-6.5273-0.79297-14.996 0-27.23 12.035-27.543 26.961-13.988 6.0781-23.402 19.805-23.617 35.457-0.16406 11.777 5.8398 23.215 16.469 31.387 8.5352 6.5664 16.297 8.5508 22.867 8.5586 0 6.5742 1.9922 14.344 8.5742 22.891 4.0156 5.2031 8.8086 9.3047 14.043 12.113l7.1523 35.816h-29.754c0-41.004-31.527-74.746-71.605-78.359-3.5273-18.121-19.477-31.848-38.605-31.848-4.3438 0-7.8711 3.5273-7.8711 7.8711s3.5273 7.8711 7.8711 7.8711c10.461 0 19.246 6.8789 22.348 16.32-39.113 4.5469-69.578 37.832-69.578 78.145h-23.617c-4.3438 0-7.8711 3.5273-7.8711 7.8711v173.18c0 4.3438 3.5273 7.8711 7.8711 7.8711h488.07c4.3438 0 7.8711-3.5273 7.8711-7.8711v-173.18c0-4.3438-3.5273-7.8711-7.8711-7.8711zm-99.039-102.34c2.6289 0 5.0859-1.3164 6.5508-3.5039l9.1953-13.793 9.1953 13.793c1.4609 2.1875 3.918 3.5039 6.5469 3.5039h9.7148l-14.168 23.617h-22.578l-14.168-23.617zm-28.062 65.32c-0.66797-6.7227 1.457-13.188 5.9922-18.199 4.5312-5 10.75-7.7617 17.504-7.7617h40.629c6.7539 0 12.973 2.7617 17.516 7.7695 4.5352 5.0156 6.6602 11.477 5.9922 18.199l-3.7188 37.008h-80.215zm-162.92-40.934c0.89062-2.8008 0.14062-5.8711-1.9375-7.9492-2.0859-2.0859-5.1641-2.832-7.9492-1.9375-6.4453 2.0469-12.375 2.1484-20.387-4.0234-6.5586-5.0469-10.414-12.027-10.328-18.688 0.14844-10.809 7.6367-20.098 18.215-22.586 2.0547-0.48828 3.832-1.7773 4.9297-3.582 1.0938-1.8008 1.418-3.9766 0.89844-6.0234-0.28906-1.1484-0.42969-2.0664-0.42969-2.8945 0-6.5117 5.2969-11.809 11.809-11.809 3.2812 0 5.7695 1.4258 7.2734 2.6133 2.2578 1.8008 5.3359 2.2109 7.9883 1.0703 2.6602-1.1406 4.4805-3.6445 4.7461-6.5273 1.4805-16.332 14.879-28.645 31.16-28.645s29.676 12.312 31.156 28.645c0.26953 2.8828 2.0859 5.3828 4.7461 6.5273 2.6523 1.1406 5.7305 0.73047 7.9883-1.0703 1.5039-1.1875 3.9922-2.6133 7.2773-2.6133 6.5117 0 11.809 5.2969 11.809 11.809 0 0.83594-0.13281 1.7539-0.42578 2.8828-0.52734 2.0469-0.20312 4.2266 0.89062 6.0312 1.0938 1.8125 2.875 3.1094 4.9297 3.5898 10.578 2.4805 18.066 11.777 18.215 22.586 0.09375 6.6602-3.7695 13.641-10.328 18.688-8.0234 6.1641-13.949 6.0703-20.387 4.0234-2.7852-0.88281-5.8633-0.14844-7.9492 1.9375-2.0781 2.0781-2.8242 5.1484-1.9375 7.9492 2.0469 6.4453 2.1406 12.383-4.0312 20.402-5.0391 6.5352-11.691 10.297-18.27 10.312h-0.078125c-6.793 0-13.074-2.8984-17.68-8.1719-1.4961-1.707-3.6523-2.6914-5.9258-2.6914s-4.4336 0.98438-5.9258 2.6914c-4.625 5.2891-10.805 8.168-17.762 8.168-6.5742-0.015625-13.234-3.7773-18.262-10.312-6.1836-8.0273-6.0859-13.957-4.0391-20.402zm22.527 46.445c8.5-0.03125 16.711-2.875 23.457-7.9961 6.7461 5.125 14.965 7.9648 23.465 8.0039l-6.3008 31.496h-34.324zm-118.24-31.473c34.723 0 62.977 28.254 62.977 62.977h-125.95c0-34.723 28.254-62.977 62.977-62.977zm377.86 236.16h-472.32v-157.44h472.32z"/>
 </g>
 <path d="m211.07 439.36h-23.617c-4.3438 0-7.8711 3.5273-7.8711 7.8711s3.5273 7.8711 7.8711 7.8711h23.617c4.3438 0 7.8711-3.5273 7.8711-7.8711s-3.5273-7.8711-7.8711-7.8711z"/>
 <path d="m588.93 455.1h23.617c4.3438 0 7.8711-3.5273 7.8711-7.8711s-3.5273-7.8711-7.8711-7.8711h-23.617c-4.3438 0-7.8711 3.5273-7.8711 7.8711s3.5273 7.8711 7.8711 7.8711z"/>
</svg>