<?xml version="1.0" encoding="UTF-8"?>
<!-- The Best Svg Icon site in the world: iconSvg.co, Visit us! https://iconsvg.co -->
<svg fill="#000000" width="800px" height="800px" version="1.1" viewBox="144 144 512 512" xmlns="http://www.w3.org/2000/svg">
 <g>
  <path d="m422.4 407.28v-45.051h2.9219c10.648 0 20.09-6.2891 24.07-16.047 1-2.4805 2.0938-5.3477 3.2031-8.3945 15.441-3.5156 29.367-10.922 40.48-21.668l0.003906-0.003907c22.523-21.824 30.441-54.906 20.668-86.336-0.78125-2.5078-2.7578-4.457-5.2734-5.207-13.082-3.8945-26.637-4.8359-39.715-3.1211-3.6914-21.918-12.289-40.422-25.672-55.043-1.4453-1.5742-3.4688-2.4961-5.6016-2.5508-2.0859-0.15234-4.2031 0.76172-5.7266 2.2578-11.25 11.055-27.164 22.895-32.914 22.895-5.7031 0-21.582-11.84-32.832-22.895-1.5234-1.5-3.6484-2.457-5.7188-2.2578-2.1328 0.054687-4.1562 0.97266-5.5977 2.5391-13.324 14.508-21.855 32.809-25.492 54.43-11.156-0.70703-22.594 0.49609-33.516 3.7422-2.5156 0.75-4.4922 2.7031-5.2734 5.207-9.7734 31.43-1.8555 64.516 20.664 86.332 9.2773 9.0039 20.773 15.617 33.273 19.555 1.4414 3.9297 2.8125 7.543 3.9922 10.34 3.8438 9.8555 13.309 16.219 24.105 16.219h1.0117v45.051c-52.488 11.355-91.316 58.75-91.316 113.11 0 63.844 51.945 115.79 115.79 115.79s115.79-51.945 115.79-115.79c-0.007812-54.352-38.836-101.75-91.324-113.1zm77.461-168.73c6.1445 24.457-0.46875 49.523-17.738 66.254-9.9219 9.5898-22.637 15.965-36.777 18.426-1.7734 0.30859-3.6172 0.48828-5.4531 0.67188-2.7188 0.25-5.5352 0.39062-8.4844 0.38281-0.38281-0.003906-0.75 0.035156-1.1328 0.023438-0.18359-0.003907-0.34766-0.03125-0.52734-0.035157-2.1406-0.070312-4.1367-0.24609-6.1055-0.44141l38.359-37.879c3.0938-3.0508 3.125-8.0391 0.070312-11.133-3.0508-3.1016-8.043-3.1172-11.133-0.070312l-39.352 38.867c-0.011719-0.10547-0.042969-0.20312-0.054688-0.30859-0.60547-4.2266-0.72656-8.5742-0.49609-12.805 0.035156-0.59766 0-1.2188 0.054688-1.8125 0.070312-1.0195 0.25391-2 0.36719-3.0078 0.61328-5.3867 1.8359-10.574 3.6562-15.531 1.1992-3.2422 2.5625-6.4141 4.2812-9.4375 1.5625-2.7812 3.2812-5.3867 5.1836-7.8516 0.35938-0.46094 0.80078-0.85938 1.1719-1.3125 1.6094-1.9727 3.2539-3.9102 5.1289-5.7266 9-8.7148 20.391-14.812 32.949-17.648 0.039063-0.007813 0.070313-0.039063 0.10938-0.046875 11.598-2.6367 23.93-2.4883 35.922 0.42188zm-138.67-55.371c9.6641 8.6719 26 21.57 37.645 21.57 11.699 0 28.047-12.891 37.715-21.559 8.543 11.441 14.18 25.352 16.816 41.516-0.74219 0.23438-1.4414 0.57031-2.1758 0.82422-1.4961 0.51562-2.9609 1.0781-4.4219 1.6719-1.9492 0.79297-3.8516 1.6641-5.7305 2.5977-1.3555 0.67188-2.7031 1.3359-4.0195 2.0742-1.957 1.1055-3.8281 2.3281-5.6875 3.582-1.1055 0.74609-2.2461 1.4336-3.3164 2.2344-2.7773 2.0742-5.4453 4.293-7.9492 6.7031-0.054687 0.054687-0.12109 0.09375-0.17578 0.14844-5.625 5.4648-10.414 11.652-14.246 18.422-0.61719 1.1016-1.0938 2.2578-1.6602 3.3828-0.64062 1.2617-1.3398 2.5-1.9102 3.793-0.61719-1.3945-1.3633-2.7344-2.0586-4.0898-0.52344-1.0312-0.95703-2.0977-1.5273-3.1133-3.8164-6.7422-8.6055-12.93-14.242-18.406-2.5312-2.4492-5.2344-4.668-8.0234-6.7656-0.39062-0.29297-0.77344-0.60156-1.168-0.89062-2.6797-1.9375-5.4727-3.6992-8.3594-5.3047-0.55078-0.30469-1.1055-0.59766-1.6602-0.89062-2.9102-1.5352-5.8945-2.9414-8.9844-4.1367-0.44141-0.17187-0.90234-0.30469-1.3477-0.47266-2.8711-1.0547-5.8086-1.957-8.8086-2.7109-0.39062-0.097657-0.75391-0.26172-1.1445-0.35156 2.6562-15.426 8.168-28.77 16.441-39.828zm-56.902 55.371c10.055-2.4297 20.492-2.9219 30.453-1.418 8.4922 1.2422 16.406 4.0508 23.652 7.9883 5.375 2.9258 10.43 6.4102 14.871 10.703 4.6016 4.4531 8.3555 9.3242 11.504 14.922 1.4219 2.5039 2.6094 5.1133 3.6758 7.7773 2.0586 5.1797 3.418 10.648 4.1367 16.348 0.16797 1.332 0.39453 2.6367 0.48828 4 0.011719 0.12891 0 0.27344 0.011719 0.40234 0.21094 2.7266 0.18359 5.5508 0.023438 8.3945-0.11328 1.9062-0.23438 3.8164-0.51953 5.8633 0 0.019531-0.003907 0.039062-0.007813 0.058594 0 0.011718-0.003906 0.027343-0.007813 0.039062l-39.367-38.871c-3.0898-3.0469-8.0781-3.0312-11.133 0.070313-3.0547 3.0938-3.0234 8.0781 0.070313 11.133l38.367 37.887c-2.0781 0.20703-4.1797 0.39453-6.4727 0.46094-0.066406 0-0.125 0.011718-0.19141 0.011718-0.16016 0.003906-0.30469-0.023437-0.46484-0.019531-7.293 0.13672-14.258-0.68359-20.918-2.5-11.57-3.0117-22.09-8.8867-30.438-16.988-17.266-16.734-23.879-41.797-17.734-66.262zm58.633 101.54c-0.0625-0.14844-0.125-0.30078-0.1875-0.44922 1.6797 0.16016 3.4375 0.11328 5.1523 0.1875 1.3438 0.058593 2.6484 0.25781 4.0039 0.25781 0.76953 0 1.5391-0.011719 2.3086-0.027343h0.011719 0.023437c0.26172-0.007813 0.47266-0.042969 0.73047-0.050782 6.6094-0.1875 12.668-0.91406 17.945-2.1914 0.86719-0.14062 1.7266-0.43359 2.5938-0.64062 1.418-0.32422 2.8398-0.60156 4.2266-1.0273 0.20703-0.0625 0.36719-0.20312 0.5625-0.28125 0.48438-0.19531 0.95312-0.41016 1.3828-0.69141 0.12109-0.078125 0.27734-0.11328 0.39453-0.19922 0.125 0.089844 0.28516 0.125 0.41406 0.20703 0.42188 0.27344 0.88281 0.48437 1.3555 0.67578 0.20312 0.082031 0.36719 0.22266 0.57812 0.28906 1.1328 0.34766 2.2852 0.66406 3.375 0.92969 1.0547 0.27344 2.043 0.5 2.8906 0.62891 5.5977 1.3359 11.465 2.0312 17.777 2.25 0.50391 0.019531 0.9375 0.089844 1.4531 0.10547 0.03125 0 0.066407 0.003906 0.10156 0.003906 0.125 0 0.24219-0.003906 0.36719-0.003906 0.60156 0.011718 1.207 0.023437 1.8047 0.023437 0.31641 0 0.62109-0.035156 0.93359-0.039062 0.58984-0.007813 1.1875 0.003906 1.7695-0.011719-0.03125 0.078125-0.0625 0.15234-0.09375 0.23047-1.543 3.7773-5.2656 6.2227-9.4844 6.2227h-52.879c-4.2578-0.003906-7.9609-2.4375-9.5117-6.3984zm35.004 280.34c-55.164 0-100.05-44.879-100.05-100.05 0-45.828 31.902-86.008 75.57-97.043v97.043c0 4.3516 3.5234 7.8711 7.8711 7.8711 4.3477 0 7.8711-3.5195 7.8711-7.8711l0.003906-158.15h17.457v158.16c0 4.3516 3.5234 7.8711 7.8711 7.8711 4.3477 0 7.8711-3.5195 7.8711-7.8711l0.003907-97.047c43.672 11.035 75.57 51.215 75.57 97.043 0 55.168-44.879 100.05-100.04 100.05z"/>
  <path d="m359.11 447.48c-5.0898 2.6914-9.9141 5.9492-14.332 9.6719-3.3242 2.7969-3.75 7.7656-0.95312 11.086 1.5586 1.8516 3.7852 2.8047 6.0273 2.8047 1.793 0 3.5898-0.60547 5.0664-1.8516 3.5664-3 7.457-5.6211 11.559-7.7969 3.8438-2.0391 5.3086-6.7969 3.2734-10.641-2.0352-3.8359-6.7969-5.3125-10.641-3.2734z"/>
  <path d="m402.55 587.07c-1.4648 0.10156-2.9297 0.15234-4.4258 0.15234-3.2188 0.039063-6.3906-0.19922-9.5273-0.64453-4.2969-0.60547-8.2891 2.3984-8.8906 6.6953-0.60547 4.3047 2.3945 8.2891 6.6992 8.8945 3.8828 0.54688 7.918 0.80859 11.742 0.80078 1.8398 0 3.6797-0.070312 5.5078-0.19922 4.3359-0.30078 7.6016-4.0664 7.3008-8.4023-0.30078-4.3438-4.0547-7.6445-8.4062-7.2969z"/>
  <path d="m462.78 536.62c-1.125 4.5039-2.7422 8.918-4.8008 13.113-1.9141 3.9062-0.30078 8.6172 3.6016 10.531 1.1172 0.55469 2.2969 0.80859 3.4609 0.80859 2.9102 0 5.707-1.6133 7.0781-4.4062 2.543-5.1875 4.543-10.648 5.9375-16.219 1.0547-4.2188-1.5078-8.4961-5.7266-9.5469-4.2031-1.0625-8.4961 1.5039-9.5508 5.7188z"/>
  <path d="m332.1 531.98c-0.76172-4.2734-4.8164-7.1406-9.1289-6.3711-4.2773 0.76172-7.1328 4.8438-6.375 9.125 1.0078 5.6719 2.6094 11.254 4.7578 16.582 1.2344 3.0664 4.1875 4.9258 7.3047 4.9258 0.98047 0 1.9766-0.18359 2.9414-0.57031 4.0312-1.6289 5.9805-6.2109 4.3555-10.246-1.7461-4.3203-3.043-8.8398-3.8555-13.445z"/>
  <path d="m455.39 461.04c-4.1172-3.9805-8.6875-7.5586-13.402-10.508-0.066406-0.046875-0.3125-0.19922-0.375-0.23828-3.6836-2.3281-8.4492-1.1211-10.75 2.5508-2.3047 3.6836-1.1016 8.5938 2.5781 10.91 3.9727 2.4922 7.6797 5.3906 11.012 8.6016 1.5273 1.4766 3.4961 2.2148 5.4688 2.2148 2.0586 0 4.1172-0.80078 5.6602-2.3984 3.0234-3.1289 2.9375-8.1094-0.19141-11.133z"/>
 </g>
</svg>