<?xml version="1.0" encoding="UTF-8"?>
<!-- The Best Svg Icon site in the world: iconSvg.co, Visit us! https://iconsvg.co -->
<svg fill="#000000" width="800px" height="800px" version="1.1" viewBox="144 144 512 512" xmlns="http://www.w3.org/2000/svg">
 <path d="m542.97 461.55h-119.22v-29.055c8.0312 4.3984 16.969 6.7461 25.977 6.7461 5.1211 0 10.254-0.74609 15.254-2.2773 18.336-5.6172 32.266-21.035 36.355-40.246 0.57031-2.6797-0.30078-5.4609-2.2812-7.3438-14.27-13.551-34.5-18.492-52.836-12.883-8.6875 2.6602-16.332 7.5781-22.465 14v-50.133c12.887 13.344 30.621 20.82 48.871 20.82 4.4805 0 8.9961-0.44531 13.461-1.3633 2.7891-0.57031 5.0586-2.6055 5.9258-5.3203 7.4023-23.219 2.0664-47.938-14.23-66.062-6.3242-7.1484-14.219-12.773-23.023-16.691 0.47656-2.9453 0.76953-5.8945 0.76953-8.832 0-2.9297-0.29297-5.8789-0.76953-8.832 8.8008-3.9141 16.688-9.5352 23.012-16.668 16.32-18.176 21.641-42.879 14.246-66.086-0.86719-2.7148-3.1367-4.75-5.9258-5.3203-23.492-4.832-48.109 3.3398-64.129 21.258-5.5938 6.1914-9.9688 13.336-12.922 20.949-6.0742-0.97656-12.125-1.0352-17.84-0.13281-2.9297-7.8047-7.375-15.164-13.125-21.582-16.051-17.945-40.645-26.109-64.152-21.285-2.7969 0.57031-5.0586 2.6055-5.9258 5.3203-7.3125 22.941-1.8359 48.277 14.262 66.098 6.4766 7.2422 14.395 12.891 23.125 16.746-0.55078 3.1523-0.90234 6.3359-0.90234 9.543s0.35156 6.3906 0.90234 9.5391c-8.7305 3.8555-16.645 9.4961-23.102 16.715-16.121 17.852-21.594 43.188-14.285 66.129 0.86719 2.7148 3.1289 4.75 5.9258 5.3203 4.4648 0.91797 8.9805 1.3633 13.461 1.3633 18.262 0 36-7.4805 48.871-20.816v49.332c-6.1328-6.4219-13.777-11.34-22.465-14-18.344-5.625-38.566-0.66797-52.836 12.883-1.9844 1.8828-2.8516 4.668-2.2812 7.3438 4.0898 19.211 18.02 34.633 36.355 40.246 4.9961 1.5312 10.133 2.2773 15.254 2.2773 9.0078 0 17.945-2.3477 25.977-6.7461v29.055l-119.23-0.007812c-4.3516 0-7.8711 3.5234-7.8711 7.8711v47.656c0 4.3477 3.5195 7.8711 7.8711 7.8711h24.941l14.918 104.44c0.55469 3.8789 3.875 6.7578 7.7969 6.7578h190.64c3.9219 0 7.2422-2.8789 7.7969-6.7578l14.918-104.44h24.941c4.3516 0 7.8711-3.5234 7.8711-7.8711v-47.656c-0.003906-4.3477-3.5273-7.8711-7.875-7.8711zm-92.145-70.012c11.648-3.5664 24.039-1.2109 33.918 6.2969-3.875 11.664-12.73 20.512-24.379 24.078-11.676 3.5586-24.055 1.2031-33.918-6.2969 3.875-11.664 12.734-20.508 24.379-24.078zm-111.2 30.375c-11.648-3.5664-20.504-12.41-24.379-24.078 9.8711-7.5117 22.23-9.8633 33.918-6.2969 11.648 3.5664 20.504 12.406 24.379 24.078-9.8711 7.5117-22.25 9.8555-33.918 6.2969zm138.62-76.785c-16.613 1.8203-33.324-4.5-44.617-17.133-4.1211-4.5469-7.332-9.6133-9.5781-15.082 0.070312-0.03125 0.125-0.082031 0.19531-0.11328 2.5078-1.2148 4.8789-2.6523 7.1562-4.2188 0.60156-0.41406 1.168-0.85156 1.7539-1.2891 1.8125-1.3516 3.5352-2.8086 5.1641-4.3672 0.4375-0.41797 0.90234-0.80469 1.3242-1.2383 1.8945-1.9375 3.6406-4.0117 5.2422-6.2109 0.42188-0.57812 0.78906-1.1914 1.1875-1.7852 1.1953-1.7852 2.2852-3.6367 3.2734-5.5586 0.23047-0.44922 0.54688-0.83984 0.76172-1.2969 6.0586 2.9648 11.469 7.0547 15.922 12.078 11.484 12.777 15.898 29.758 12.215 46.215zm-44.586-147.35c11.277-12.609 28.02-18.93 44.586-17.094 3.6836 16.457-0.73047 33.438-12.223 46.223-0.007813 0.015626-0.023438 0.03125-0.039063 0.046876-4.4141 4.9844-9.8086 9.0625-15.867 12.023-0.21094-0.4375-0.51172-0.81641-0.73047-1.2461-1-1.957-2.1016-3.8398-3.3164-5.6523-0.43359-0.64844-0.85156-1.3008-1.3125-1.9297-1.6289-2.2266-3.3711-4.3633-5.3125-6.3203-0.23438-0.23828-0.50391-0.43359-0.74219-0.66406-1.7422-1.6953-3.6055-3.2617-5.5625-4.7188-0.72656-0.54297-1.4727-1.0508-2.2266-1.5586-1.7305-1.1641-3.5273-2.2227-5.3906-3.1953-0.49219-0.25781-0.92188-0.60156-1.4219-0.84375 2.2539-5.4453 5.4883-10.566 9.5586-15.07zm-33.664 25.34c3.9531 0 8.0039 0.60938 11.914 1.7773 12.613 4.0039 22.414 13.953 26.215 26.609 1.1094 3.8516 1.6523 7.582 1.6523 11.402 0 3.8398-0.54688 7.5898-1.6523 11.398-3.6445 12.141-12.938 21.879-25.359 26.25-0.28906 0.125-0.5625 0.24219-0.81641 0.33984-8.2539 2.4414-16.355 2.2656-23.906 0.070312-0.42188-0.24609-0.86719-0.44922-1.3281-0.60938-1.4648-0.51172-2.8945-1.1133-4.2734-1.7891-8.2891-4.0586-14.953-10.93-18.727-19.332-0.625-1.3945-1.1758-2.832-1.6367-4.3047v-0.003906c0-0.003906-0.003906-0.011719-0.007812-0.015625-1.2305-3.8984-1.8516-7.9375-1.8516-12.004 0-4.0664 0.62109-8.1094 1.8516-11.996 0.49219-1.5547 1.0781-3.0625 1.7461-4.5273 4.6836-10.238 13.527-18.105 24.453-21.496 3.6445-1.1719 7.5898-1.7695 11.727-1.7695zm-66.047 2.9766c-11.316-12.527-15.797-29.863-12.199-46.207 16.621-1.8008 33.309 4.4961 44.578 17.098 4.2422 4.7344 7.5703 10.102 9.8164 15.77-0.39453 0.1875-0.73438 0.45703-1.1211 0.65625-2.0078 1.0117-3.9336 2.1406-5.793 3.3789-0.65625 0.4375-1.3047 0.87109-1.9375 1.3359-2.0664 1.5117-4.043 3.125-5.875 4.9023-0.14844 0.14453-0.32031 0.26562-0.46875 0.41406-1.9414 1.9219-3.6914 4.0273-5.3359 6.2188-0.47266 0.62891-0.90234 1.2773-1.3438 1.9258-1.207 1.7656-2.3125 3.6016-3.3164 5.5078-0.23047 0.43359-0.53906 0.81641-0.75781 1.2578-6.0977-2.9297-11.625-7.0898-16.246-12.258zm32.383 102.73c-11.27 12.602-27.969 18.945-44.578 17.094-3.5977-16.344 0.88281-33.68 12.223-46.238 4.6055-5.1445 10.125-9.293 16.215-12.223 0.18359 0.37109 0.44922 0.69141 0.64063 1.0586 1.0625 2.0391 2.2461 4 3.5508 5.8828 0.32031 0.46094 0.60547 0.94141 0.94141 1.3906 1.6133 2.1836 3.3867 4.2383 5.2969 6.1602 0.42578 0.42969 0.88281 0.81641 1.3242 1.2305 1.6562 1.5586 3.4023 3.0117 5.2422 4.3633 0.50781 0.375 0.99609 0.76172 1.5156 1.1211 2.2461 1.5352 4.6016 2.918 7.0703 4.1133 0.14453 0.070313 0.26953 0.17188 0.41406 0.24219-2.2773 5.7812-5.582 11.082-9.8555 15.805zm25.652-10.957c2.5859 0.36719 5.2305 0.55859 7.9219 0.55859 0.03125 0 0.058594 0.007812 0.089844 0.007812 1.0469 0 2.1133-0.17969 3.1641-0.24219 1.6133-0.09375 3.2109-0.11328 4.8438-0.34766v143.7h-16.02zm96.5 302.54h-176.98l-13.629-95.457h204.24zm46.609-111.2h-270.2v-31.91h270.2z"/>
</svg>