<?xml version="1.0" encoding="UTF-8"?>
<!-- The Best Svg Icon site in the world: iconSvg.co, Visit us! https://iconsvg.co -->
<svg width="800px" height="800px" version="1.1" viewBox="144 144 512 512" xmlns="http://www.w3.org/2000/svg">
 <defs>
  <clipPath id="a">
   <path d="m211 148.09h378v503.81h-378z"/>
  </clipPath>
 </defs>
 <g clip-path="url(#a)">
  <path d="m581.05 636.16h-173.18v-47.23h55.105c47.742 0 86.594-38.848 86.594-86.594v-62.977c0-4.3516-3.5195-7.8711-7.8711-7.8711h-62.977c-29.285 0-55.168 14.648-70.848 36.961v-37.699c13.281-2.2578 24.418-10.125 30.836-21.82 14.391 6.8008 31.055 5.3281 44.578-4.5039 13.523-9.8242 20.074-25.207 18.051-41.004 15.648-2.9609 28.262-13.941 33.426-29.836 5.1641-15.895 1.418-32.195-9.5-43.785 10.918-11.594 14.664-27.891 9.5-43.785s-17.773-26.875-33.426-29.836c2.0234-15.801-4.5273-31.18-18.051-41.004-13.523-9.8477-30.188-11.312-44.578-4.5039-7.6562-13.973-21.992-22.578-38.711-22.578s-31.055 8.6055-38.707 22.562c-14.391-6.8008-31.055-5.3281-44.578 4.5039-13.523 9.8242-20.074 25.207-18.051 41.004-15.648 2.9609-28.262 13.941-33.426 29.836-5.1641 15.895-1.418 32.195 9.5 43.785-10.918 11.594-14.664 27.891-9.5 43.785 5.1641 15.895 17.773 26.875 33.426 29.836-2.0234 15.801 4.5273 31.18 18.051 41.004 13.523 9.8398 30.188 11.312 44.578 4.5039 6.4141 11.707 17.555 19.562 30.836 21.82v37.699c-15.684-22.297-41.566-36.945-70.852-36.945h-62.977c-4.3516 0-7.8711 3.5195-7.8711 7.8711v62.977c0 47.742 38.848 86.594 86.594 86.594h55.105v47.23h-173.19c-4.3516 0-7.8711 3.5195-7.8711 7.8711s3.5195 7.8711 7.8711 7.8711h362.11c4.3516 0 7.8711-3.5195 7.8711-7.8711s-3.5156-7.8711-7.8711-7.8711zm-102.34-188.93h55.105v55.105c0 39.07-31.781 70.848-70.848 70.848h-43.973l81.027-81.027c3.0781-3.0781 3.0781-8.0547 0-11.133-3.0781-3.0781-8.0547-3.0781-11.133 0l-81.027 81.027v-43.973c0-39.066 31.777-70.848 70.848-70.848zm-106.14-51.996c-0.73047-2.4883-2.6445-4.457-5.1094-5.2656-0.80469-0.26172-1.6211-0.38672-2.4414-0.38672-1.7148 0-3.4102 0.55859-4.793 1.6289-12.516 9.6445-25.891 6.5508-34.258 0.48047-8.3594-6.0781-15.422-17.871-10.133-32.723 0.86719-2.4492 0.48047-5.1641-1.0547-7.2656-1.5195-2.1016-4.0234-3.1953-6.582-3.2422-0.32422 0.015624-0.64453 0.015624-0.96094 0.015624-15.168 0-23.898-10.125-27.031-19.758-3.1953-9.832-1.9766-23.516 11.035-32.426 2.1406-1.4727 3.4258-3.9062 3.4258-6.5039 0-2.5977-1.2812-5.0312-3.4258-6.4961-13.012-8.9102-14.242-22.594-11.035-32.426 3.2031-9.832 12.234-20.43 27.992-19.742 2.5742 0.007812 5.0625-1.1484 6.582-3.2422 1.5273-2.1016 1.9219-4.8164 1.0547-7.2656-5.2891-14.863 1.7695-26.648 10.133-32.723 8.3594-6.0703 21.742-9.1484 34.258 0.48047 2.0547 1.5742 4.7461 2.0547 7.2344 1.2422 2.4648-0.8125 4.3828-2.7773 5.1094-5.2656 4.4531-15.121 17.09-20.516 27.426-20.516s22.969 5.3906 27.426 20.508c0.73047 2.4883 2.6445 4.457 5.1094 5.2656 2.4805 0.8125 5.1797 0.33203 7.2344-1.2422 12.516-9.6367 25.891-6.5508 34.258-0.48047 8.3594 6.0781 15.422 17.871 10.133 32.723-0.86719 2.4492-0.48047 5.1641 1.0547 7.2656 1.5195 2.1094 4.0625 3.2344 6.582 3.2422 15.934-0.78125 24.789 9.9102 27.992 19.742 3.2031 9.832 1.9766 23.516-11.035 32.426-2.1445 1.4766-3.4258 3.9062-3.4258 6.5039 0 2.5977 1.2812 5.0312 3.4258 6.4961 13.012 8.9102 14.242 22.594 11.035 32.426-3.125 9.6367-11.855 19.758-27.031 19.758-0.31641 0-0.63672 0-0.96094-0.015625-2.5039 0.0625-5.0625 1.1484-6.582 3.2422-1.5273 2.1016-1.9219 4.8164-1.0547 7.2656 5.2891 14.863-1.7695 26.648-10.133 32.723-8.3594 6.0703-21.734 9.1562-34.258-0.48047-2.0547-1.5742-4.7539-2.0703-7.2344-1.2422-2.4648 0.8125-4.3828 2.7773-5.1094 5.2656-4.457 15.125-17.09 20.516-27.426 20.516s-22.973-5.3906-27.426-20.508zm-106.4 107.1v-55.105h55.105c39.07 0 70.848 31.781 70.848 70.848v43.973l-81.027-81.027c-3.0781-3.0781-8.0547-3.0781-11.133 0-3.0781 3.0781-3.0781 8.0547 0 11.133l81.027 81.027h-43.973c-39.07 0-70.848-31.781-70.848-70.848z"/>
 </g>
 <path d="m446.91 289.79c0-25.867-21.051-46.918-46.918-46.918-25.867 0-46.918 21.051-46.918 46.918 0 25.867 21.051 46.918 46.918 46.918 25.871 0 46.918-21.051 46.918-46.918zm-78.09 0c0-17.191 13.98-31.172 31.172-31.172s31.172 13.98 31.172 31.172c0 17.191-13.98 31.172-31.172 31.172-17.191 0.003906-31.172-13.977-31.172-31.172z"/>
</svg>