<?xml version="1.0" encoding="UTF-8"?>
<!-- The Best Svg Icon site in the world: iconSvg.co, Visit us! https://iconsvg.co -->
<svg fill="#000000" width="800px" height="800px" version="1.1" viewBox="144 144 512 512" xmlns="http://www.w3.org/2000/svg">
 <path d="m536.51 431.76-59.812-37.387-19.285-33.734h13.434c4.3477 0 7.8711-3.5234 7.8711-7.8711v-47.23c0-4.3477-3.5234-7.8711-7.8711-7.8711h-23.402c1.0508-11.871 8.3477-22.5 19.305-27.57l78.246-36.133c2.7891-1.2852 4.5742-4.0742 4.5742-7.1484v-55.102c0-4.3477-3.5234-7.8711-7.8711-7.8711h-153.5c-19.648 0-38.488 6.0312-54.48 17.441l-87.852 62.742c-2.5352 1.8125-3.7656 4.9531-3.1328 8.0078 0.62891 3.0508 3.0078 5.4453 6.0586 6.1016l103.98 22.281-0.003906 17.25h-23.617c-4.3477 0-7.8711 3.5234-7.8711 7.8711v47.23c0 4.3477 3.5234 7.8711 7.8711 7.8711h1.5508l-25.574 22.359c-9.7461 8.6016-15.336 20.938-15.336 33.844 0 0.88281 0.14844 1.7617 0.44141 2.5977l6.5977 18.875c-4.3359 4.2852-7.0391 10.223-7.0391 16.789v157.44c0 13.023 10.594 23.617 23.617 23.617h220.42c13.023 0 23.617-10.594 23.617-23.617l-0.003906-157.44c0-12.102-9.1836-21.992-20.93-23.344zm-2.6836-252.18v42.195l-31.488 14.539v-56.734zm-171.54 86.766-92.77-19.875 73.34-52.375c13.309-9.4961 28.984-14.516 45.336-14.516h98.398v62.977c0 0.33203 0.14844 0.61719 0.19141 0.94141l-26.641 12.301c-16.52 7.6406-27.492 23.859-28.566 41.863h-63.066v-23.617c0.003907-3.7148-2.5938-6.918-6.2227-7.6992zm-25.262 47.059h125.95v31.488h-125.95zm-25.902 118.08-5.5625-15.906c0.34766-7.9297 3.9414-15.449 9.957-20.758l39.102-34.188h84.66l24.734 43.266c0.64453 1.1289 1.5625 2.0781 2.6641 2.7695l39.699 24.816zm230.57 181.05c0 4.3438-3.5312 7.8711-7.8711 7.8711h-220.42c-4.3398 0-7.8711-3.5273-7.8711-7.8711v-157.44c0-4.3438 3.5312-7.8711 7.8711-7.8711h220.42c4.3398 0 7.8711 3.5273 7.8711 7.8711z"/>
</svg>