<?xml version="1.0" encoding="UTF-8"?>
<!-- The Best Svg Icon site in the world: iconSvg.co, Visit us! https://iconsvg.co -->
<svg width="800px" height="800px" version="1.1" viewBox="144 144 512 512" xmlns="http://www.w3.org/2000/svg">
 <defs>
  <clipPath id="a">
   <path d="m148.09 179h503.81v442h-503.81z"/>
  </clipPath>
 </defs>
 <g clip-path="url(#a)">
  <path d="m612.54 179.58h-267.65c-21.703 0-39.359 17.656-39.359 39.359v24.016c-13.32 1.9297-23.617 13.312-23.617 27.152 0 13.578 9.9023 24.828 22.844 27.078l-8.9648 90.727-32.109-39.242c6.25-4.2578 10.359-11.414 10.359-19.523 0-13.02-10.598-23.617-23.617-23.617l-78.719 0.003906c-13.02 0-23.617 10.598-23.617 23.617 0 13.02 10.598 23.617 23.617 23.617h2.8594l102.91 220.54-0.42578 4.3359c-0.95313 10.965 2.7695 21.898 10.203 30.008 7.4297 8.1055 18.008 12.766 29.008 12.766h246.18c10.996 0 21.578-4.6523 29.016-12.762s11.156-19.051 10.195-30.102l-12.883-130.32h23.766c21.703 0 39.359-17.656 39.359-39.359v-188.93c0-21.703-17.656-39.359-39.359-39.359zm-314.88 90.527c0-6.5117 5.2969-11.809 11.809-11.809h259.78c6.5117 0 11.809 5.2969 11.809 11.809-0.003906 6.5117-5.3008 11.809-11.812 11.809h-259.78c-6.5078 0-11.805-5.2969-11.805-11.809zm-133.83 59.039c0-4.3438 3.5273-7.8711 7.8711-7.8711h78.719c4.3438 0 7.8711 3.5273 7.8711 7.8711s-3.5273 7.8711-7.8711 7.8711l-78.715 0.003907c-4.3477 0-7.875-3.5273-7.875-7.875zm28.105 23.617h54.758l46.91 57.332-13.09 132.48zm387.93 244.25c-4.5352 4.9375-10.715 7.6602-17.414 7.6602h-246.19c-6.707 0-12.887-2.7227-17.414-7.6602-4.5273-4.9375-6.6992-11.328-6.125-17.91l27.812-281.44h237.64l27.805 281.35c0.57422 6.6719-1.5898 13.062-6.1172 18zm56.293-189.14c0 13.02-10.598 23.617-23.617 23.617h-25.316l-13.273-134.3c12.941-2.2539 22.848-13.504 22.848-27.082 0-15.191-12.359-27.551-27.551-27.551h-247.97v-23.617c0-13.02 10.598-23.617 23.617-23.617h267.65c13.02 0 23.617 10.598 23.617 23.617z"/>
 </g>
</svg>