<?xml version="1.0" encoding="UTF-8"?>
<!-- The Best Svg Icon site in the world: iconSvg.co, Visit us! https://iconsvg.co -->
<svg width="800px" height="800px" version="1.1" viewBox="144 144 512 512" xmlns="http://www.w3.org/2000/svg">
 <defs>
  <clipPath id="a">
   <path d="m148.09 148.09h503.81v503.81h-503.81z"/>
  </clipPath>
 </defs>
 <g clip-path="url(#a)">
  <path d="m648.4 385.58-45.113-30.078-42.133-112.35c-3.3945-9.0469-9.9727-16.508-18.523-21.012l-138.96-73.141c-2.2969-1.2031-5.0391-1.2031-7.3359 0l-138.96 73.137c-8.5508 4.5039-15.129 11.965-18.523 21.012l-42.133 112.35-45.113 30.078c-3.6133 2.4102-4.5898 7.2969-2.1797 10.918 2.4102 3.6133 7.2891 4.5898 10.918 2.1797l34.98-23.328v268.69c0 4.3438 3.5273 7.8711 7.8711 7.8711h393.6c4.3438 0 7.8711-3.5273 7.8711-7.8711l0.003906-268.69 34.992 23.332c1.3438 0.89844 2.8633 1.3242 4.3594 1.3242 2.543 0 5.0391-1.2266 6.5586-3.5039 2.4062-3.6211 1.4297-8.5117-2.1836-10.918zm-153.94 239.45-83.332-83.332 83.332-83.332zm-11.129 11.133h-166.67l83.336-83.336zm-83.332-105.6-83.336-83.332h166.67zm-11.133 11.133-83.332 83.332v-166.66zm121.34 94.465v-196.8c0-1.0234-0.21094-2.0469-0.60547-3.0078-0.79687-1.9219-2.332-3.457-4.2578-4.2578-0.96094-0.39453-1.9844-0.60547-3.0078-0.60547h-204.67c-1.0234 0-2.0469 0.21094-3.0078 0.60547-1.9219 0.79688-3.457 2.332-4.2578 4.2578-0.39453 0.96094-0.60938 1.9844-0.60938 3.0078v196.8h-78.719v-274.09l42.523-113.4c2.0312-5.4219 5.9844-9.9023 11.117-12.609l135.29-71.203 135.3 71.203c5.1328 2.6992 9.0781 7.1797 11.117 12.609l42.512 113.4v274.09z"/>
 </g>
 <path d="m447.23 242.56h-94.465c-4.3438 0-7.8711 3.5273-7.8711 7.8711v94.465c0 4.3438 3.5273 7.8711 7.8711 7.8711h94.465c4.3438 0 7.8711-3.5273 7.8711-7.8711v-94.465c0-4.3438-3.5273-7.8711-7.8711-7.8711zm-7.8711 94.465h-78.723v-78.723h78.719z"/>
</svg>