<?xml version="1.0" encoding="UTF-8"?>
<!-- The Best Svg Icon site in the world: iconSvg.co, Visit us! https://iconsvg.co -->
<svg width="800px" height="800px" version="1.1" viewBox="144 144 512 512" xmlns="http://www.w3.org/2000/svg">
 <defs>
  <clipPath id="a">
   <path d="m163 148.09h474v503.81h-474z"/>
  </clipPath>
 </defs>
 <g clip-path="url(#a)">
  <path d="m607.44 442.43c-2.1484-15.121-13.004-27.742-27.664-32.141l-116.39-34.922c19.035-17.289 31.078-42.148 31.078-69.832 17.367 0 31.488-14.121 31.488-31.488 0-5.7617-1.668-11.09-4.375-15.742l51.609-0.003907c4.3516 0 7.8711-3.5273 7.8711-7.8711s-3.5195-7.8711-7.8711-7.8711h-80.453l-22.121-88.504c-0.87891-3.5039-4.0195-5.9609-7.6328-5.9609h-125.95c-3.6133 0-6.7617 2.457-7.6367 5.9609l-22.129 88.504h-80.445c-4.3438 0-7.8711 3.5273-7.8711 7.8711s3.5273 7.8711 7.8711 7.8711h51.609c-2.707 4.6523-4.375 9.9844-4.375 15.746 0 17.367 14.121 31.488 31.488 31.488 0 26.836 11.305 51.035 29.332 68.242l-115.15 36.367c-14.344 4.5352-24.977 17.074-27.109 31.969l-28.688 200.8c-0.32422 2.2578 0.34766 4.5508 1.8438 6.2734 1.5 1.7227 3.6641 2.7148 5.9492 2.7148h456.58c2.2812 0 4.4492-0.99219 5.9531-2.7148 1.4883-1.7227 2.1641-4.0156 1.8438-6.2734zm-294.04 67.777h173.18c4.3516 0 7.8711-3.5273 7.8711-7.8711v-101.2l31.488 9.4453v225.58h-251.9v-226.66l31.488-9.9414v102.78c0 4.3438 3.5273 7.8711 7.8711 7.8711zm196.8-236.16c0 8.6836-7.0625 15.742-15.742 15.742v-31.488c8.6797 0 15.742 7.0625 15.742 15.746zm-167.04-110.21h113.66l19.688 78.719-153.02 0.003906zm-53.383 110.21c0-8.6836 7.0625-15.742 15.742-15.742v31.488c-8.6797-0.003907-15.742-7.0625-15.742-15.746zm31.488 31.488v-47.23h157.44v47.23c0 43.406-35.312 78.719-78.719 78.719s-78.723-35.312-78.723-78.719zm78.723 94.465c17.336 0 33.535-4.7695 47.516-12.949l31.203 9.3594v98.051h-157.44v-99.879l28.695-9.0625c14.531 9.1172 31.645 14.48 50.027 14.48zm-191.81 44.332c1.2812-8.9336 7.668-16.461 16.27-19.184l33.844-10.68v221.69h-77.516zm333.51 191.83v-220.86l33.566 10.066c8.7852 2.6367 15.297 10.203 16.586 19.277l27.363 191.52z"/>
 </g>
 <path d="m289.79 533.82c0 4.3438 3.5273 7.8711 7.8711 7.8711h15.742c4.3438 0 7.8711-3.5273 7.8711-7.8711s-3.5273-7.8711-7.8711-7.8711h-15.742c-4.3438-0.003906-7.8711 3.5234-7.8711 7.8711z"/>
 <path d="m486.59 541.7h15.742c4.3516 0 7.8711-3.5273 7.8711-7.8711s-3.5195-7.8711-7.8711-7.8711h-15.742c-4.3516 0-7.8711 3.5273-7.8711 7.8711s3.5195 7.8711 7.8711 7.8711z"/>
</svg>