<?xml version="1.0" encoding="UTF-8"?>
<!-- The Best Svg Icon site in the world: iconSvg.co, Visit us! https://iconsvg.co -->
<svg width="800px" height="800px" version="1.1" viewBox="144 144 512 512" xmlns="http://www.w3.org/2000/svg">
 <defs>
  <clipPath id="a">
   <path d="m148.09 148.09h503.81v503.81h-503.81z"/>
  </clipPath>
 </defs>
 <g clip-path="url(#a)">
  <path d="m612.54 573.18c-4.3359 0-7.8711-3.5352-7.8711-7.8711v-212.55h7.8711c13.02 0 23.617-10.598 23.617-23.617v-62.977c0-13.02-10.598-23.617-23.617-23.617h-7.9414c-0.40234-24.051-18.5-43.871-41.848-46.848-6.4648-18.777-24.375-31.871-44.676-31.871-9.9961 0-19.562 3.1172-27.551 8.8945-13.633-9.8477-32.551-11.602-47.816-4.2891-10.398-12.863-25.875-20.348-42.711-20.348-16.84 0-32.316 7.4844-42.715 20.348-15.258-7.3203-34.172-5.5742-47.816 4.2891-7.9883-5.7734-17.555-8.8945-27.551-8.8945-20.301 0-38.211 13.09-44.672 31.875-23.352 2.9766-41.449 22.797-41.848 46.848h-7.9453c-13.02 0-23.617 10.598-23.617 23.617v62.977c0 13.02 10.598 23.617 23.617 23.617h7.8711v212.54c0 4.3359-3.5352 7.8711-7.8711 7.8711-21.703 0-39.359 17.656-39.359 39.359s17.656 39.359 39.359 39.359h425.09c21.703 0 39.359-17.656 39.359-39.359s-17.656-39.359-39.359-39.359zm-369.19-362.11c3.7461 0 6.9648-2.6367 7.7148-6.3047 2.9609-14.598 15.934-25.184 30.852-25.184 8.2734 0 16.098 3.2109 22.035 9.0469 3.0703 3.0078 7.9648 3.0078 11.027 0 10.57-10.375 27.844-11.879 40.062-3.3047 1.7852 1.25 4.0078 1.707 6.1484 1.2578 2.1328-0.45703 3.9922-1.7695 5.1172-3.6367 7.207-11.969 19.805-19.109 33.691-19.109s26.48 7.1406 33.691 19.105c1.125 1.8672 2.9766 3.1797 5.1172 3.6367 2.1328 0.44922 4.3594-0.007813 6.1484-1.2578 12.219-8.5742 29.496-7.0703 40.062 3.3047 3.0703 3.0078 7.9648 3.0078 11.027 0 5.9336-5.832 13.758-9.043 22.031-9.043 14.918 0 27.891 10.586 30.852 25.184 0.74609 3.668 3.9766 6.3047 7.7148 6.3047 17.531 0 31.773 14.059 32.195 31.488h-377.69c0.43359-17.43 14.672-31.488 32.203-31.488zm-63.77 118.08v-23.617h118.08c4.3438 0 7.8711-3.5273 7.8711-7.8711s-3.5273-7.8711-7.8711-7.8711h-118.08v-23.617c0-4.3359 3.5352-7.8711 7.8711-7.8711h425.09c4.3359 0 7.8711 3.5352 7.8711 7.8711v23.617h-118.08c-4.3438 0-7.8711 3.5273-7.8711 7.8711s3.5273 7.8711 7.8711 7.8711h118.08v23.617c0 4.3359-3.5352 7.8711-7.8711 7.8711l-425.09 0.003907c-4.3359 0-7.8711-3.5352-7.8711-7.875zm432.96 307.01h-425.09c-13.02 0-23.617-10.598-23.617-23.617s10.598-23.617 23.617-23.617 23.617-10.598 23.617-23.617v-212.54h377.86v212.54c0 13.02 10.598 23.617 23.617 23.617s23.617 10.598 23.617 23.617-10.598 23.617-23.617 23.617z"/>
 </g>
 <path d="m510.21 400h-47.23c-27.418 0-51.207 15.688-62.977 38.543-11.77-22.855-35.559-38.543-62.977-38.543h-47.23c-4.3438 0-7.8711 3.5273-7.8711 7.8711v47.23c0 39.062 31.789 70.848 70.848 70.848h39.359v23.617c0 4.3438 3.5273 7.8711 7.8711 7.8711s7.8711-3.5273 7.8711-7.8711v-23.617h39.359c39.062 0 70.848-31.789 70.848-70.848v-47.23c0-4.3477-3.5273-7.8711-7.8711-7.8711zm-212.54 55.102v-39.359h39.359c30.387 0 55.105 24.719 55.105 55.105v39.359h-39.359c-30.391 0-55.105-24.719-55.105-55.105zm204.67 0c0 30.387-24.719 55.105-55.105 55.105h-39.359v-39.359c0-30.387 24.719-55.105 55.105-55.105h39.359z"/>
</svg>