<?xml version="1.0" encoding="UTF-8"?>
<!-- The Best Svg Icon site in the world: iconSvg.co, Visit us! https://iconsvg.co -->
<svg fill="#000000" width="800px" height="800px" version="1.1" viewBox="144 144 512 512" xmlns="http://www.w3.org/2000/svg">
 <g>
  <path d="m620.37 383.43c-0.39062-3.7773-3.4375-6.7344-7.2188-7.0273l-102.95-7.918v-38.961l61.668-14.844c4.2188-1.0156 6.8203-5.2578 5.8125-9.4844l-7.3203-30.625c-0.48438-2.0352-1.7617-3.7891-3.543-4.8828-1.7773-1.0898-3.9297-1.4258-5.957-0.94141l-91.867 22.121c-3.5352 0.84766-6.0273 4.0156-6.0273 7.6523v66.328l-48.309-3.7148-30.512-190.68c-0.60547-3.8125-3.9023-6.625-7.7695-6.625h-188.93c-4.3516 0-7.8711 3.5234-7.8711 7.8711v297.63c-10.273 17.016-15.742 36.512-15.742 56.609 0 60.77 49.438 110.21 110.21 110.21 54.84 0 101.31-41.008 108.97-94.465h89.926c7.0352 27.348 32.062 47.23 60.883 47.23 28.926 0 54.035-20.02 60.918-47.23h33.547c2.2305 0 4.3594-0.94531 5.8516-2.6055 1.4922-1.6602 2.2148-3.875 1.9766-6.0898zm-141.65-78.707 78.168-18.824 3.6602 15.309-60.055 14.457c-3.5352 0.84766-6.0273 4.0156-6.0273 7.6523v43.945l-4.8477-0.36328-10.895-0.83984zm-204.67 315.69c-52.09 0-94.465-42.375-94.465-94.465 0-17.91 5.0195-35.293 14.531-50.277 17.434-27.664 47.316-44.184 79.934-44.184 52.09 0 94.465 42.375 94.465 94.465 0 2.4297-0.070313 4.7891-0.29297 7.2734-3.7109 48.891-45.078 87.188-94.172 87.188zm259.78-47.23c-23.363 0-43.426-17.398-46.738-40.82-0.33203-1.7617-0.49219-3.8516-0.49219-6.4102 0-26.047 21.188-47.23 47.23-47.23 26.047 0 47.23 21.188 47.23 47.23 0 2.5586-0.16016 4.6523-0.55469 6.7734-3.25 23.059-23.312 40.457-46.676 40.457zm62.977-47.234c0-34.723-28.25-62.977-62.977-62.977-34.723 0-62.977 28.25-62.977 62.977h-86.594c0-60.77-49.438-110.21-110.21-110.21-3.3594 0-6.6836 0.20312-9.9844 0.5-0.72656 0.066406-1.4492 0.12891-2.1719 0.20703-3.2188 0.35156-6.4062 0.82031-9.5508 1.4453-0.47656 0.09375-0.94141 0.21875-1.4141 0.31641-2.8672 0.60937-5.6953 1.3359-8.4883 2.168-0.56641 0.16797-1.1367 0.32031-1.6992 0.49609-3.0352 0.95703-6.0195 2.0508-8.9492 3.2656-0.59375 0.24609-1.1719 0.51172-1.7617 0.76562-2.7812 1.2109-5.5156 2.5117-8.1836 3.9492-0.23438 0.125-0.47266 0.23438-0.70703 0.36328-2.8242 1.5469-5.5586 3.25-8.2383 5.043-0.5625 0.375-1.1172 0.75391-1.6719 1.1406-2.6562 1.8477-5.2539 3.7852-7.7461 5.8711-0.16797 0.14062-0.32422 0.29297-0.49219 0.43359-2.3672 2.0039-4.6328 4.1328-6.8359 6.3477-0.26562 0.26953-0.5625 0.49609-0.82812 0.76953l0.003906-269.24h174.34l30.426 190.18c0.57812 3.5898 3.5352 6.3242 7.1641 6.6055l62.805 4.832c0.066406 0.007813 0.12109 0.046876 0.1875 0.050782l18.477 1.3828 116.67 8.9727 14.148 134.35z"/>
  <path d="m274.05 478.72c-26.047 0-47.23 21.188-47.23 47.23 0 26.047 21.188 47.23 47.23 47.23 26.047 0 47.23-21.188 47.23-47.23s-21.184-47.23-47.23-47.23zm0 78.719c-17.367 0-31.488-14.121-31.488-31.488 0-17.367 14.121-31.488 31.488-31.488s31.488 14.121 31.488 31.488c0 17.367-14.121 31.488-31.488 31.488z"/>
  <path d="m533.82 494.46c-17.367 0-31.488 14.121-31.488 31.488 0 17.367 14.121 31.488 31.488 31.488 17.367 0 31.488-14.121 31.488-31.488 0-17.363-14.121-31.488-31.488-31.488zm0 47.234c-8.6797 0-15.742-7.0664-15.742-15.742 0-8.6797 7.0664-15.742 15.742-15.742 8.6797 0 15.742 7.0664 15.742 15.742s-7.0625 15.742-15.742 15.742z"/>
  <path d="m337.02 211.07h-110.21c-4.3516 0-7.8711 3.5234-7.8711 7.8711v125.95c0 4.3477 3.5195 7.8711 7.8711 7.8711h125.95c2.2617 0 4.4062-0.96875 5.9023-2.6641 1.4922-1.6914 2.1914-3.9453 1.9062-6.1836l-15.742-125.95c-0.49609-3.9375-3.8477-6.8945-7.8125-6.8945zm-102.34 125.95v-110.21h95.387l13.777 110.21z"/>
 </g>
</svg>