<?xml version="1.0" encoding="UTF-8"?>
<!-- The Best Svg Icon site in the world: iconSvg.co, Visit us! https://iconsvg.co -->
<svg width="800px" height="800px" version="1.1" viewBox="144 144 512 512" xmlns="http://www.w3.org/2000/svg">
 <defs>
  <clipPath id="a">
   <path d="m148.09 242h503.81v316h-503.81z"/>
  </clipPath>
 </defs>
 <g clip-path="url(#a)">
  <path d="m612.54 360.64h-26.16l-41.289-103.23c-3.6133-9.0195-12.215-14.844-21.93-14.844h-99.551c-4.3516 0-7.8711 3.5273-7.8711 7.8711v102.34h-39.359v-55.105c0-4.3438-3.5195-7.8711-7.8711-7.8711h-141.7c-4.3516 0-7.8711 3.5273-7.8711 7.8711v55.105h-62.977c-4.3516 0-7.8711 3.5273-7.8711 7.8711v141.7c0 4.3438 3.5195 7.8711 7.8711 7.8711h39.988c3.8398 26.664 26.773 47.23 54.473 47.23 27.703 0 50.633-20.57 54.473-47.23l118.71 0.003906h55.734c3.8398 26.664 26.773 47.23 54.473 47.23 27.703 0 50.633-20.57 54.473-47.23h55.738c4.3516 0 7.8711-3.5273 7.8711-7.8711v-102.34c0-21.703-17.656-39.363-39.359-39.363zm-43.113 0h-74.969v-70.848h46.625zm-334.74-55.102h125.95v47.23h-125.95zm-70.852 62.977h251.91v31.488h-251.91zm0 47.23h251.91v78.719h-110.84c-3.8398-26.664-26.773-47.23-54.473-47.23-27.703 0-50.633 20.57-54.473 47.23h-32.125zm86.594 125.95c-21.703 0-39.359-17.656-39.359-39.359 0-21.703 17.656-39.359 39.359-39.359 21.703 0 39.359 17.656 39.359 39.359 0 21.703-17.656 39.359-39.359 39.359zm283.39 0c-21.703 0-39.359-17.656-39.359-39.359 0-21.703 17.656-39.359 39.359-39.359s39.359 17.656 39.359 39.359c0 21.703-17.656 39.359-39.359 39.359zm102.34-47.234h-47.863c-3.8398-26.664-26.773-47.23-54.473-47.23-27.703 0-50.633 20.57-54.473 47.23h-47.863v-236.16h91.676c3.2344 0 6.1094 1.9453 7.3125 4.9531l4.3164 10.793h-48.203c-4.3516 0-7.8711 3.5273-7.8711 7.8711v86.594c0 4.3438 3.5195 7.8711 7.8711 7.8711h125.95c13.02 0 23.617 10.598 23.617 23.617z"/>
 </g>
</svg>