<?xml version="1.0" encoding="UTF-8"?>
<!-- The Best Svg Icon site in the world: iconSvg.co, Visit us! https://iconsvg.co -->
<svg fill="#000000" width="800px" height="800px" version="1.1" viewBox="144 144 512 512" xmlns="http://www.w3.org/2000/svg">
 <path d="m521.25 283.84c-2.9102-1.2344-5.9141-2.1367-8.9727-2.7852 7.7734-50.867 20.805-101.48 22.34-107.35 0.92578-3.5547-0.73047-7.2852-3.9961-8.9766-3.2695-1.6992-7.2695-0.89062-9.6406 1.9141-0.31641 0.375-29.707 35.984-51.004 83.984-26.293-37.691-55.723-64.086-61.91-69.449-2.8047-2.4336-6.9297-2.5781-9.8984-0.33984s-3.9648 6.2422-2.3945 9.6094c0.21094 0.45312 20.156 43.578 36.918 90.691-0.78906 0.17188-1.5977 0.27344-2.375 0.48047-22.359 5.8945-37.117 25.273-35.086 46.078l5.6719 57.691c-11.848 11.184-21.906 23.645-29.883 37.344-22.84-55.434-68.195-79.082-70.309-80.148-3.0234-1.5312-6.6914-0.94922-9.0898 1.4336-2.4102 2.3867-3.0156 6.043-1.5195 9.082 0.22656 0.45312 21.23 43.246 32.195 88.574-40.445 3.9102-72.414 45.895-72.414 97.055 0 51.113 31.969 93.609 72.867 96.992 2.168 0.38672 4.082 0.44141 5.6836 0.44141h80.043c9.2305 0 18.375-2.2422 26.824-6.3008 5.6055 4.0234 12.605 6.3008 20.012 6.3008h34.602c17.387 0 31.586-12.27 32.297-27.531l27.715-280.93c1.8438-18.66-9.7461-36.309-28.676-43.859zm-24.719-4.0312h-21.262c0.67969-1.9531 1.4609-3.9648 2.2148-5.957 0.48438-1.2812 0.91016-2.5273 1.4297-3.8359 9.0938-23.41 20.785-44.418 30.969-60.539-4.4375 19.969-9.543 45.148-13.352 70.332zm-33.746-11.754c-0.39062 1.0312-0.69922 2.0234-1.0703 3.0469-0.78906 2.1562-1.5586 4.3281-2.2734 6.457-0.25 0.74609-0.55078 1.5078-0.79297 2.25h-9.7305c-7.4219-21.188-15.602-41.801-22.535-58.461 11.367 12.461 24.469 28.387 36.402 46.707zm-48.414 126.1c0.67187-0.60156 1.3359-1.1953 1.9961-1.7695-2.5977 6.3594-5.4258 13.621-8.2539 21.52-0.94531 2.6367-1.8906 5.3398-2.8281 8.1094v0.015625c-3.8242 11.047-7.1133 21.996-9.8008 32.617-0.125 0.027344-0.24609 0.078125-0.375 0.10547-2.2539 0.5-4.4805 1.1094-6.6602 1.8594-0.21875 0.074219-0.42578 0.17969-0.64062 0.25781-1.957 0.69922-3.8828 1.4922-5.7773 2.3945-0.15625 0.074219-0.32422 0.12109-0.48047 0.19922-0.10156-0.62109-0.29297-1.2344-0.39844-1.8516-0.54688-3.0898-1.2773-6.1875-2-9.2617-0.40234-1.707-0.65234-3.4219-1.1094-5.1328 8.5-18.504 20.711-35 36.328-49.062zm-52.246 50.582c0.66797 2.3438 1.1133 4.6797 1.6641 7.0156-1.0508-0.66406-2.1289-1.2188-3.1953-1.8203-0.62109-0.35156-1.2344-0.73047-1.8633-1.0625-2.5352-1.332-5.1016-2.5039-7.7109-3.4844-0.50781-0.19141-1.0234-0.32422-1.5312-0.50391-2.1641-0.75391-4.3555-1.3867-6.5664-1.9023-0.78125-0.17969-1.5625-0.35156-2.3477-0.50391-0.67578-0.12891-1.3359-0.32422-2.0156-0.43359-5.9453-26.094-15.148-51.301-22.535-69.324 15.977 13.973 36.293 37.453 46.102 72.02zm-33.688 175.68c-1.0859 0-2.0703-0.027343-3.1055-0.23437-0.3125-0.0625-0.625-0.10547-0.94531-0.125-32.945-2.4922-58.754-38.215-58.754-81.332 0-45.047 28.176-81.695 62.809-81.695h0.38281c0.89063 0 1.8242 0.003906 2.7617 0.0625 9.3672 0.58594 18.43 3.9727 26.953 10.082 1.9766 1.4102 3.8242 2.8945 5.582 4.4648 0.25781 0.23047 0.48047 0.49609 0.73047 0.72656-23.59 30.059-21.68 73.98 5.8125 101.75 1.5391 1.5547 3.5625 2.332 5.5938 2.332 2.0039 0 4.0039-0.75781 5.5391-2.2812 3.0898-3.0547 3.1133-8.043 0.054687-11.133-22.953-23.188-23.457-60.516-1.6445-84.406 0.046875-0.03125 0.10156-0.046875 0.14844-0.082032 6.8828-5.1172 14.457-8.207 22.926-9.25 3.8242-0.67969 7.7305-0.45312 11.926 0.1875 29.324 4.4297 51.438 36.758 51.438 75.203 0 3.7031-0.21094 7.3672-0.61719 10.969-2.8555 25.203-15.414 47.289-33.625 58.055-7.4648 4.4492-15.512 6.707-23.914 6.707zm178.08-12.934c-0.33594 7.1328-7.7852 12.934-16.598 12.934h-34.602c-1.5898 0-3.1406-0.17578-4.6133-0.51953 2.5039-2.1367 4.8789-4.4492 7.1211-6.918 0.27734-0.30469 0.50781-0.65625 0.78125-0.96484 2.1055-2.3867 4.1016-4.9023 5.9531-7.5586 0.70312-1.0078 1.3203-2.0898 1.9844-3.1367 1.3203-2.0703 2.6016-4.168 3.7695-6.375 0.66797-1.2656 1.2734-2.5703 1.8906-3.875 1.0117-2.1328 1.957-4.3008 2.8242-6.5391 0.54297-1.4023 1.0586-2.8125 1.543-4.25 0.77734-2.3008 1.4531-4.6484 2.0781-7.0352 0.37891-1.4453 0.76953-2.8711 1.0898-4.3477 0.57031-2.625 0.99609-5.3086 1.3789-8.0117 0.18359-1.3008 0.43359-2.5664 0.57422-3.8828 0.42969-4.043 0.69531-8.1445 0.69531-12.32 0-2.8086-0.11328-5.5859-0.3125-8.3359-0.066406-0.91797-0.20312-1.8125-0.29297-2.7227-0.17969-1.8203-0.35156-3.6367-0.61719-5.4258-0.15625-1.0664-0.37891-2.1016-0.56641-3.1523-0.28125-1.5938-0.55469-3.1953-0.90625-4.7578-0.24609-1.1055-0.55078-2.1836-0.83203-3.2734-0.37891-1.4688-0.74609-2.9375-1.1836-4.375-0.33203-1.1016-0.71484-2.1719-1.082-3.2539-0.46484-1.375-0.92969-2.7539-1.4492-4.0938-0.41406-1.0742-0.87109-2.1172-1.3164-3.168-0.55078-1.293-1.1055-2.582-1.707-3.8398-0.49219-1.0352-1.0156-2.043-1.543-3.0508-0.62891-1.2109-1.2695-2.4141-1.9453-3.5859-0.56641-0.98438-1.1562-1.9453-1.7539-2.9023-0.70703-1.1289-1.4258-2.2422-2.1719-3.3281-0.63672-0.92969-1.293-1.832-1.957-2.7305-0.77344-1.0391-1.5664-2.0547-2.3828-3.0508-0.70312-0.86328-1.418-1.7109-2.1523-2.5391-0.83984-0.94922-1.7031-1.8672-2.582-2.7695-0.76562-0.78906-1.5352-1.5703-2.3281-2.3203-0.90234-0.85547-1.832-1.6719-2.7695-2.4766-0.82422-0.70703-1.6445-1.4102-2.4883-2.0781-0.96484-0.76172-1.957-1.4648-2.957-2.1719-0.87109-0.61719-1.7383-1.2422-2.6328-1.8164-1.0273-0.66016-2.082-1.2539-3.1406-1.8555-0.91406-0.51953-1.8125-1.0547-2.7461-1.5273-1.0977-0.55859-2.2227-1.0352-3.3477-1.5312-0.9375-0.41016-1.8594-0.85156-2.8164-1.2188-1.1875-0.45312-2.4023-0.81641-3.6133-1.1953-0.93359-0.29297-1.8516-0.62891-2.7969-0.87891-0.11719-0.03125-0.22656-0.078125-0.34375-0.10938l-2.9062-29.66c0.33203-0.96875 0.66797-1.9375 1-2.8906 0.1875-0.53516 0.375-1.0781 0.5625-1.6055 0.45703-1.2891 0.91406-2.5547 1.3711-3.8086 0.19141-0.52734 0.38281-1.0625 0.57422-1.582 0.4375-1.1953 0.875-2.3594 1.3125-3.5195 0.21094-0.56641 0.42578-1.1406 0.63672-1.6992 0.41016-1.0742 0.8125-2.1172 1.2148-3.1562 0.23828-0.60938 0.47656-1.2305 0.71094-1.8281 0.37109-0.94531 0.73438-1.8594 1.1016-2.7773 0.25781-0.64453 0.51563-1.3047 0.76953-1.9336 0.33594-0.83203 0.66016-1.625 0.98828-2.4258 0.27344-0.66797 0.55078-1.3477 0.81641-1.9922 0.30469-0.73828 0.59766-1.4375 0.89844-2.1445 0.26953-0.64062 0.54297-1.3008 0.80469-1.918 0.28125-0.66406 0.54688-1.2812 0.82031-1.918 0.26953-0.62891 0.54688-1.2812 0.80859-1.8828 0.21094-0.48438 0.40625-0.92969 0.60938-1.3984 0.30078-0.69141 0.60937-1.3984 0.89453-2.043 0.12109-0.26953 0.22656-0.51172 0.34375-0.77344 3.0938-6.9648 5.1367-11.117 5.1836-11.215 1.5-3.0312 0.89063-6.6875-1.5117-9.0742-2.3984-2.3789-6.0547-2.9648-9.0859-1.4453-0.050781 0.027344-0.25 0.12891-0.53125 0.27734-0.13281 0.070312-0.24219 0.13281-0.42969 0.23047-0.27734 0.15234-0.61328 0.33594-1.0078 0.55859-0.22656 0.125-0.40234 0.22656-0.66406 0.375-0.64453 0.37109-1.3828 0.80469-2.2305 1.3203-0.22656 0.14062-0.48047 0.30078-0.72266 0.44922-0.70312 0.43359-1.4492 0.91016-2.2617 1.4336-0.35938 0.23438-0.71094 0.46484-1.0938 0.71484-0.96094 0.63281-1.9766 1.3242-3.0508 2.0781-0.22266 0.15625-0.42188 0.28906-0.65234 0.44922-1.0938 0.77344-2.2383 1.6016-3.4297 2.4961l-4.5938-46.699c-1.2734-13.074 8.5781-25.406 23.453-29.328 2.9609-0.79297 6.0312-1.2227 8.9648-1.2852h57.441c0.38672 0 0.77344-0.03125 1.1484 0.027343 0.38672 0.074219 0.78125 0.11328 1.1758 0.12109 4.1406 0.12109 8.1836 1.0039 12.172 2.6953 12.512 4.9922 20.148 16.148 19.004 27.758l-6.1445 62.293c-0.44531-0.078125-0.85156-0.26562-1.3203-0.26562l-46.449 0.027344c-4.3477 0-7.8711 3.5234-7.8711 7.8711 0 4.3477 3.5234 7.8711 7.8711 7.8711h46.242l-6.082 61.668-40.16 0.003906c-4.3477 0-7.8711 3.5234-7.8711 7.8711s3.5234 7.8711 7.8711 7.8711h38.609z"/>
</svg>