<?xml version="1.0" encoding="UTF-8"?>
<!-- The Best Svg Icon site in the world: iconSvg.co, Visit us! https://iconsvg.co -->
<svg width="800px" height="800px" version="1.1" viewBox="144 144 512 512" xmlns="http://www.w3.org/2000/svg">
 <defs>
  <clipPath id="b">
   <path d="m148.09 163h503.81v488.9h-503.81z"/>
  </clipPath>
  <clipPath id="a">
   <path d="m234 148.09h17v31.906h-17z"/>
  </clipPath>
 </defs>
 <g clip-path="url(#b)">
  <path d="m644.03 321.28h-62.977v-32.031c31.016-3.8984 55.105-30.379 55.105-62.434 0-34.723-28.254-62.977-62.977-62.977s-62.977 28.254-62.977 62.977c0 32.055 24.09 58.535 55.105 62.434v32.031h-409.35c-4.3516 0-7.8711 3.5195-7.8711 7.8711v314.88c0 4.3516 3.5195 7.8711 7.8711 7.8711h488.06c4.3516 0 7.8711-3.5195 7.8711-7.8711l0.003906-78.711v-236.16c0-4.3516-3.5195-7.8711-7.8711-7.8711zm-480.2 15.746h116.81l-9.4453 62.977h-107.37zm0 78.719h105l-9.4453 62.977h-95.559zm71.938 220.42h-71.938v-62.977h81.391zm-71.938-78.723v-62.977h93.195l-9.4453 62.977zm150.32 78.723h-62.457l44.871-299.14h47.492zm77.973 0h-62.148l29.914-299.14h32.234zm133.82-409.35c0-26.047 21.184-47.23 47.23-47.23 26.047 0 47.23 21.184 47.23 47.23 0 23.355-17.059 42.754-39.359 46.523l0.003907-22.906c0-4.3516-3.5195-7.8711-7.8711-7.8711-4.3516 0-7.8711 3.5195-7.8711 7.8711v22.906c-22.305-3.7695-39.363-23.164-39.363-46.523zm-118.08 409.35v-299.14h32.234l29.914 299.14zm77.973 0-29.914-299.14h47.492l44.871 299.14zm150.32 0h-71.934l-9.4453-62.977h81.379zm0-78.723h-83.742l-9.4453-62.977h93.188zm0-78.719h-95.551l-9.4453-62.977h105zm0-78.719h-107.36l-9.4453-62.977h116.8z"/>
 </g>
 <path d="m242.56 266.18c21.703 0 39.359-17.656 39.359-39.359s-17.656-39.359-39.359-39.359-39.359 17.656-39.359 39.359c0 21.699 17.656 39.359 39.359 39.359zm0-62.977c13.02 0 23.617 10.598 23.617 23.617 0 13.02-10.598 23.617-23.617 23.617-13.02 0-23.617-10.598-23.617-23.617 0-13.023 10.598-23.617 23.617-23.617z"/>
 <g clip-path="url(#a)">
  <path d="m242.56 179.58c4.3516 0 7.8711-3.5195 7.8711-7.8711v-15.746c0-4.3516-3.5195-7.8711-7.8711-7.8711-4.3516 0-7.8711 3.5195-7.8711 7.8711v15.742c0 4.3555 3.5156 7.875 7.8711 7.875z"/>
 </g>
 <path d="m234.69 281.92v15.742c0 4.3516 3.5195 7.8711 7.8711 7.8711 4.3516 0 7.8711-3.5195 7.8711-7.8711v-15.742c0-4.3516-3.5195-7.8711-7.8711-7.8711-4.3555 0-7.8711 3.5195-7.8711 7.8711z"/>
 <path d="m289.79 226.81c0 4.3516 3.5195 7.8711 7.8711 7.8711h15.742c4.3516 0 7.8711-3.5195 7.8711-7.8711s-3.5195-7.8711-7.8711-7.8711h-15.742c-4.3516 0-7.8711 3.5195-7.8711 7.8711z"/>
 <path d="m171.71 234.69h15.742c4.3516 0 7.8711-3.5195 7.8711-7.8711 0-4.3555-3.5156-7.875-7.8711-7.875h-15.742c-4.3516 0-7.8711 3.5195-7.8711 7.8711-0.003906 4.3555 3.5156 7.875 7.8711 7.875z"/>
 <path d="m281.52 195.72c2.0156 0 4.0312-0.76953 5.5664-2.3047l11.133-11.133c3.0781-3.0781 3.0781-8.0547 0-11.133-3.0781-3.0781-8.0547-3.0781-11.133 0l-11.133 11.133c-3.0781 3.0781-3.0781 8.0547 0 11.133 1.5352 1.5352 3.5508 2.3047 5.5664 2.3047z"/>
 <path d="m198.03 260.21-11.133 11.133c-3.0781 3.0781-3.0781 8.0547 0 11.133 1.5352 1.5352 3.5508 2.3047 5.5664 2.3047 2.0156 0 4.0312-0.76953 5.5664-2.3047l11.133-11.133c3.0781-3.0781 3.0781-8.0547 0-11.133-3.082-3.0781-8.0625-3.0703-11.133 0z"/>
 <path d="m198.03 193.41c1.5352 1.5352 3.5508 2.3047 5.5625 2.3047 2.0156 0 4.0312-0.76953 5.5664-2.3047 3.0781-3.0781 3.0781-8.0547 0-11.133l-11.129-11.129c-3.0781-3.0781-8.0547-3.0781-11.133 0s-3.0781 8.0547 0 11.133z"/>
 <path d="m275.96 260.21c-3.0781 3.0781-3.0781 8.0547 0 11.133l11.133 11.133c1.5352 1.5352 3.5508 2.3047 5.5664 2.3047s4.0312-0.76953 5.5664-2.3047c3.0781-3.0781 3.0781-8.0547 0-11.133l-11.133-11.133c-3.0742-3.0703-8.0586-3.0703-11.133 0z"/>
</svg>