<?xml version="1.0" encoding="UTF-8"?>
<!-- The Best Svg Icon site in the world: iconSvg.co, Visit us! https://iconsvg.co -->
<svg fill="#000000" width="800px" height="800px" version="1.1" viewBox="144 144 512 512" xmlns="http://www.w3.org/2000/svg">
 <g>
  <path d="m632.36 342.33-228.29-138c-2.5-1.5156-5.6445-1.5156-8.1406 0l-228.29 138c-3.582 2.168-4.8477 6.7578-2.8711 10.449l22.828 42.715c1.0156 1.9023 2.7617 3.3008 4.8398 3.8789 2.0742 0.55859 4.2891 0.26562 6.1445-0.83594l3.3047-1.9805v192.37c0 4.3477 3.5234 7.8711 7.8711 7.8711h45.656c4.3477 0 7.8711-3.5234 7.8711-7.8711l0.003906-229.2 136.71-81.984 136.71 81.984v229.2c0 4.3477 3.5234 7.8711 7.8711 7.8711h45.656c4.3477 0 7.8711-3.5234 7.8711-7.8711v-192.38l3.3047 1.9805c1.2344 0.73828 2.6328 1.1172 4.043 1.1172 0.70312 0 1.4102-0.097656 2.1016-0.28516 2.0742-0.57813 3.8242-1.9766 4.8398-3.8789l22.828-42.715c1.9766-3.6836 0.71484-8.2734-2.8672-10.441zm-384.82 238.72h-29.91v-193.93l29.914-17.918zm334.82 0h-29.914v-211.85l29.914 17.918zm20.043-200.27-198.36-118.96c-2.5-1.5-5.6055-1.5-8.1016 0l-198.36 118.96-15.414-28.84 217.83-131.68 217.82 131.68z"/>
  <path d="m501.16 395.91c-29.617-8.9062-60.895-1.75-81.648 18.711-5.2188 5.1484-9.625 10.945-13.086 17.234-2.707 4.9023-4.8477 10.055-6.4258 15.395-1.5781-5.3477-3.7148-10.492-6.418-15.391-3.4648-6.293-7.8672-12.094-13.09-17.242-20.758-20.457-52.051-27.613-81.648-18.707-2.5156 0.75781-4.4844 2.7188-5.2539 5.2266-8.9922 29.316-1.7031 60.215 19.016 80.641v0.003906c14.75 14.535 34.594 22.469 56.016 22.469 0.70703 0 1.418-0.011718 2.1289-0.027344 2.0703-0.03125 4.082-0.23828 6.1055-0.41406v69.367c0 4.3477 3.5234 7.8711 7.8711 7.8711h30.551c4.3477 0 7.8711-3.5234 7.8711-7.8711v-69.371c2.0078 0.17578 4.0078 0.38672 6.0312 0.41406 0.71484 0.019532 1.4297 0.027344 2.1406 0.027344 21.488 0 41.328-7.9336 56.078-22.465v-0.003906c20.719-20.426 28.004-51.324 19.016-80.641-0.76953-2.5078-2.7422-4.4688-5.2539-5.2266zm-130.72 92.578c-18.109 0.33984-34.613-5.9258-46.777-17.918v0.003906c-15.57-15.352-21.578-38.293-16.148-60.699 22.809-5.4531 46.223 0.47656 61.926 15.961 4.1367 4.082 7.6172 8.6641 10.355 13.629 4.3516 7.8906 6.8906 16.598 7.5586 25.949 0.32031 4.0078 0.17188 8.0781-0.34375 12.281l-34.879-35.008c-3.0664-3.0742-8.0508-3.0859-11.137-0.019531-3.0781 3.0703-3.0859 8.0508-0.019532 11.137l34.242 34.367c-1.5859 0.125-3.1562 0.28906-4.7773 0.31641zm22.156 76.82v-64.328c0.58203-0.16406 1.1602-0.25781 1.7422-0.44141 2.4609-0.77344 4.3867-2.6992 5.1562-5.1562 0.20312-0.64844 0.32422-1.2969 0.50781-1.9453 0.18359 0.64453 0.30469 1.3008 0.50781 1.9453 0.76953 2.457 2.6953 4.3828 5.1562 5.1562 0.58984 0.18359 1.1602 0.33594 1.7422 0.5v64.266zm83.746-94.742c-12.164 11.996-28.871 18.453-46.852 17.914-1.5742-0.023437-3.1367-0.19141-4.6992-0.32422l34.238-34.359c3.0664-3.082 3.0586-8.0625-0.019532-11.137-3.0859-3.0703-8.0703-3.0586-11.137 0.019532l-34.887 35.016c-0.51562-4.0781-0.66016-8.2031-0.32812-12.359 0.65625-9.2773 3.1992-17.984 7.5547-25.879 2.7344-4.9609 6.2148-9.543 10.352-13.621 15.699-15.484 39.094-21.434 61.926-15.965 5.4297 22.41-0.57812 45.348-16.148 60.695z"/>
 </g>
</svg>