<?xml version="1.0" encoding="UTF-8"?>
<!-- The Best Svg Icon site in the world: iconSvg.co, Visit us! https://iconsvg.co -->
<svg fill="#000000" width="800px" height="800px" version="1.1" viewBox="144 144 512 512" xmlns="http://www.w3.org/2000/svg">
 <path d="m603.55 471.12v-26.559h8.4336c4.0117 0 7.3789-3.0156 7.8242-7.0039l16.305-146.75c0.24609-2.2266-0.46875-4.4492-1.9609-6.1211-1.4922-1.668-3.6289-2.6211-5.8672-2.6211l-226.21-0.003906-10.738-42.957c-0.875-3.5-4.0195-5.9609-7.6328-5.9609h-155.2v-4.3594c0-4.3477-3.5195-7.8711-7.8711-7.8711h-48.914c-4.3516 0-7.8711 3.5234-7.8711 7.8711v73.379c0 4.3477 3.5195 7.8711 7.8711 7.8711h48.914c4.3516 0 7.8711-3.5234 7.8711-7.8711v-4.3555h128.67l35.199 140.79c0.019531 0.074219 0.070313 0.13281 0.089844 0.21094-0.046875 0.17969-0.15625 0.32422-0.19141 0.51172l-24.461 130.45c-0.4375 2.2969 0.17578 4.6758 1.6758 6.4766 1.5 1.8047 3.7148 2.8438 6.0586 2.8438h65.23c3.4453 0 6.4883-2.2383 7.5117-5.5234l40.316-129h66.594v26.559c-19.672 9.207-32.609 29.016-32.609 51.176 0 31.316 25.477 56.793 56.797 56.793 31.312 0 56.789-25.477 56.789-56.793-0.003906-22.156-12.945-41.969-32.617-51.172zm15.945-173.32-14.559 131.01h-166.18l-32.75-131.01zm-406.74-3.5156h-33.172v-57.637h33.172zm158.18-6.2656c-0.875-3.5-4.0195-5.9609-7.6328-5.9609h-134.81v-33.176h149.05l44.988 179.93h-16.391zm35.594 160.61h23.988l-29.969 112.39c-0.20703 0.77734-0.17188 1.5469-0.14453 2.3086h-15.387zm28.445 114.71h-18.754l30.586-114.71h24.012zm152.83-114.71v65.785h-16.875v-65.785zm-8.4336 114.71c-22.633 0-41.051-18.414-41.051-41.047 0-13.359 6.4883-25.555 16.867-33.102v33.102c0 4.3477 3.5195 7.8711 7.8711 7.8711h32.617c4.3516 0 7.8711-3.5234 7.8711-7.8711v-33.102c10.379 7.5469 16.867 19.742 16.867 33.102 0 22.629-18.41 41.047-41.043 41.047z"/>
</svg>