<?xml version="1.0" encoding="UTF-8"?>
<!-- The Best Svg Icon site in the world: iconSvg.co, Visit us! https://iconsvg.co -->
<svg width="800px" height="800px" version="1.1" viewBox="144 144 512 512" xmlns="http://www.w3.org/2000/svg">
 <defs>
  <clipPath id="b">
   <path d="m148.09 148.09h503.81v409.91h-503.81z"/>
  </clipPath>
  <clipPath id="a">
   <path d="m368 573h64v78.902h-64z"/>
  </clipPath>
 </defs>
 <g clip-path="url(#b)">
  <path d="m651.9 155.96c0-4.3516-3.5195-7.8711-7.8711-7.8711h-488.07c-4.3516 0-7.8711 3.5195-7.8711 7.8711v15.742c0 65.676 24.953 127.5 70.391 174.66l-35.566 97.742c-10.383 28.551 4.3945 60.23 32.938 70.629 6.1953 2.2578 12.547 3.3281 18.789 3.3281 22.516 0 43.707-13.918 51.836-36.258l26.781-73.594c10.344 3.8008 20.914 6.8789 31.637 9.2734l0.003906 84.844c0 30.379 24.727 55.105 55.105 55.105 30.379 0 55.105-24.727 55.105-55.105l-0.003906-84.855c11.352-2.5273 22.547-5.8164 33.465-9.9258l27.031 74.25c10.391 28.551 42.074 43.312 70.629 32.938 28.551-10.391 43.328-42.082 32.938-70.629l-36.156-99.344c44.453-46.98 68.887-108.24 68.887-173.06zm-212.54 346.37c0 21.703-17.656 39.359-39.359 39.359s-39.359-17.656-39.359-39.359l-0.003906-81.91c26.055 4.0859 52.68 4.0781 78.719 0zm196.8-330.62c0 62.332-24.098 121.14-67.848 165.61-2.1328 2.1562-2.8164 5.3594-1.7852 8.2109l37.84 103.96c7.4141 20.395-3.125 43.027-23.523 50.453-20.414 7.3984-43.035-3.1406-50.453-23.523l-29.789-81.844c-0.73047-2.0234-2.2578-3.6523-4.2188-4.5117-1.9688-0.86719-4.2031-0.89062-6.1797-0.070313-28.691 11.852-59.039 17.867-90.203 17.867-30.48 0-60.23-5.7773-88.434-17.184-1.9766-0.80469-4.2031-0.75391-6.1484 0.10156-1.9531 0.86719-3.4648 2.4961-4.1953 4.5039l-29.539 81.137c-7.4219 20.387-30.047 30.922-50.453 23.523-20.387-7.4219-30.945-30.055-23.523-50.453l37.266-102.41c1.0469-2.875 0.33203-6.0938-1.8281-8.2656-44.691-44.613-69.309-103.98-69.309-167.12v-7.875h472.32z"/>
 </g>
 <g clip-path="url(#a)">
  <path d="m394.15 575.79c-4.2812 4.7617-25.637 29.387-25.637 47.246 0 15.918 14.121 28.867 31.488 28.867s31.488-12.949 31.488-28.867c0-17.863-21.355-42.484-25.641-47.246-2.9844-3.3242-8.7148-3.3242-11.699 0zm5.8516 60.371c-8.6836 0-15.742-5.8867-15.742-13.121 0-6.9492 7.9727-19.734 15.742-29.691 7.7695 9.9648 15.742 22.75 15.742 29.691 0 7.2305-7.0625 13.121-15.742 13.121z"/>
 </g>
 <path d="m220.96 544.3c-4.2812 4.7617-25.641 29.387-25.641 47.246 0 15.918 14.125 28.867 31.488 28.867 17.367 0 31.488-12.949 31.488-28.867 0-17.863-21.355-42.484-25.641-47.246-2.9805-3.3203-8.7109-3.3203-11.695 0zm5.8477 60.371c-8.6836 0-15.742-5.8867-15.742-13.121 0-6.9492 7.9727-19.734 15.742-29.691 7.7695 9.9648 15.742 22.75 15.742 29.691 0.003906 7.2305-7.0586 13.121-15.742 13.121z"/>
 <path d="m567.34 544.3c-4.2852 4.7617-25.641 29.387-25.641 47.246 0 15.918 14.121 28.867 31.488 28.867 17.367 0 31.488-12.949 31.488-28.867 0-17.863-21.355-42.484-25.641-47.246-2.9844-3.3203-8.7148-3.3203-11.695 0zm5.8477 60.371c-8.6836 0-15.742-5.8867-15.742-13.121 0-6.9492 7.9727-19.734 15.742-29.691 7.7695 9.9648 15.742 22.75 15.742 29.691 0 7.2305-7.0586 13.121-15.742 13.121z"/>
</svg>