<?xml version="1.0" encoding="UTF-8"?>
<!-- The Best Svg Icon site in the world: iconSvg.co, Visit us! https://iconsvg.co -->
<svg fill="#000000" width="800px" height="800px" version="1.1" viewBox="144 144 512 512" xmlns="http://www.w3.org/2000/svg">
 <g>
  <path d="m284.37 209.69c-1.1289-4.2031-5.4336-6.6953-9.6406-5.5664l-47.332 12.684c-4.1992 1.125-6.6875 5.4414-5.5664 9.6406 0.94531 3.5156 4.1211 5.8398 7.5938 5.8398 0.67578 0 1.3594-0.089843 2.043-0.27344l47.332-12.684c4.1992-1.1289 6.6914-5.4453 5.5703-9.6406z"/>
  <path d="m612.43 558.68-0.875-0.21094c4.5234-10.074 6.8945-21.004 6.8945-32.125 0-25.508-12.141-48.793-32.551-63.539 0.63281-3.3711 1.0625-6.7344 1.0625-10.145 0-30.387-24.723-55.105-55.105-55.105-30.383 0-55.105 24.719-55.105 55.105 0 4.2852 0.55469 8.5391 1.5312 12.691-8.0156-3.0625-16.484-4.8203-25.145-4.8203-17.535 0-33.914 6.3594-46.723 17.68-0.60938-0.77734-1.3516-1.457-2.2227-1.9648-1.8203-1.0625-3.9805-1.3398-5.9961-0.80078l-47.656 12.762-12.762-47.582-47.438-177.21c20.766-14.152 31.438-40.352 24.574-65.961l-7.4414-27.762c-1.1289-4.2031-5.4258-6.6875-9.6406-5.5664l-110.45 29.59c-2.0117 0.53906-3.7344 1.8594-4.7812 3.668-1.043 1.8047-1.3203 3.957-0.78125 5.9727l7.4414 27.762c6.8555 25.605 29.215 42.824 54.277 44.699l47.461 177.3v0.003907l12.77 47.574-47.586 12.762c-2.0234 0.54297-3.7344 1.8594-4.7812 3.6719-1.0469 1.8086-1.3203 3.9609-0.78516 5.9766 1.418 5.2812 3.0039 10.41 4.7305 15.348l-52.277-12.531c-4.2656-0.99219-8.4805 1.5898-9.4922 5.8242-1.0156 4.2227 1.5898 8.4766 5.8203 9.4922l63.395 15.199c34.277 73.512 96.887 79.477 99.586 79.691 0.20703 0.015625 0.41406 0.023438 0.62109 0.023438 1.5898 0 3.1523-0.48438 4.4727-1.3945 1.5078-1.043 35.844-25.441 44.922-78.277l61.758-14.801 39.023 9.3203h0.007813l84.844 20.387 10.691 2.5898c0.62109 0.15234 1.2461 0.22266 1.8594 0.22266 3.5508 0 6.7734-2.418 7.6406-6.0195 1.0273-4.2227-1.5625-8.4766-5.793-9.5zm-80.57-145.38c21.703 0 39.359 17.66 39.359 39.359 0 0.51562-0.007813 1.0312-0.03125 1.543-2.918-1.2734-5.918-2.3125-8.957-3.2188-0.875-0.26172-1.7578-0.46484-2.6406-0.69531-2.3789-0.625-4.7812-1.1328-7.2148-1.5312-0.94141-0.15234-1.875-0.32031-2.8242-0.44141-3.25-0.41016-6.5195-0.6875-9.8203-0.6875-2.3672 0-4.7109 0.13281-7.043 0.33594-0.75 0.066407-1.4844 0.17578-2.2305 0.26172-1.5859 0.18359-3.1602 0.40234-4.7266 0.68359-0.84766 0.15234-1.6914 0.32031-2.5312 0.5-1.4648 0.3125-2.9102 0.66797-4.3516 1.0625-0.82812 0.22656-1.6602 0.44141-2.4805 0.69531-1.5586 0.48047-3.0898 1.0352-4.6133 1.6133-0.63672 0.24219-1.2891 0.44531-1.918 0.70312-2.0234 0.83203-4.0117 1.7539-5.957 2.7539-0.82812 0.42188-1.6211 0.90625-2.4336 1.3594-1.1758 0.65625-2.3477 1.3242-3.4883 2.043-0.87891 0.55469-1.7383 1.1406-2.5977 1.7305-0.53906 0.37109-1.1016 0.70312-1.6328 1.0859-0.81641-3.1914-1.2305-6.4883-1.2305-9.7969 0.003906-21.699 17.66-39.359 39.363-39.359zm-327.39-186.26-5.4023-20.16 95.238-25.516 5.4062 20.16c6.4258 23.996-7.8633 48.75-31.863 55.184l-8.1875 2.1953c-23.988 6.4258-48.758-7.8633-55.191-31.863zm59.102 47.102c0.054688-0.015625 0.10938-0.019531 0.16406-0.03125l8.1875-2.1953c0.035156-0.007812 0.066406-0.023437 0.097656-0.03125l4.0078-1.0703 44.512 166.27-16.359 4.3672-44.512-166.27zm97.18 345.91c-12.199-1.9883-58.895-13.391-85.332-73.609-2.7539-6.1836-5.2344-12.84-7.4102-19.855l47.441-12.719c2.0234-0.54297 3.7344-1.8594 4.7812-3.668 1.0469-1.8086 1.3203-3.9609 0.78516-5.9766l-12.762-47.566 16.359-4.3672 12.762 47.59c1.1289 4.2031 5.4336 6.6992 9.6406 5.5664l47.5-12.723c0.19141 0.83984 0.36719 1.6797 0.54688 2.5234 4.0508 18.84 4.9414 36.91 2.6445 53.719v0.027344c-5.5625 41.812-29.516 64.82-36.957 71.059zm111.57-94.125-57.91 13.879c0.03125-0.55078 0.015625-1.1211 0.042969-1.6719 0.0625-1.25 0.066406-2.5195 0.097656-3.7812 0.082031-3.1992 0.070313-6.4258-0.039063-9.6836-0.046874-1.3594-0.085937-2.7109-0.16406-4.0781-0.23828-4.1016-0.59766-8.2344-1.1328-12.418-0.042969-0.34375-0.0625-0.68359-0.10547-1.0273-0.51172-3.8086-1.1406-7.6484-1.8984-11.516 10.516-12.344 25.605-19.352 41.93-19.352 10.625 0 20.988 3.0742 29.973 8.8984 15.738 10.156 25.129 27.43 25.129 46.207 0 0.73438-0.074219 1.4883-0.10547 2.2305l-32.152-7.6797c-1.1992-0.29297-2.4531-0.29297-3.6641-0.007813zm51.668 5.4492c0-2.832-0.19922-5.6289-0.52344-8.3945-0.10547-0.89453-0.29297-1.7617-0.42969-2.6484-0.29297-1.8633-0.61328-3.7148-1.0508-5.5352-0.24219-1.0156-0.54297-2.0039-0.82812-3.0039-0.47656-1.6602-0.99219-3.2969-1.582-4.9102-0.37109-1.0078-0.76172-1.9961-1.1797-2.9844-0.66016-1.5742-1.3828-3.1094-2.1562-4.625-0.47656-0.93359-0.94141-1.8672-1.457-2.7773-0.88672-1.5625-1.8594-3.0664-2.8633-4.5625-0.52344-0.77734-1.0078-1.5781-1.5625-2.3359-1.3359-1.8242-2.7852-3.5703-4.3008-5.2656-0.31641-0.35547-0.58984-0.73828-0.91016-1.0859-1.7422-1.875-3.5898-3.6641-5.5469-5.3516 0.18359-0.15234 0.35547-0.32812 0.53906-0.47656 0.52734-0.42969 1.0742-0.82031 1.6133-1.2305 1-0.76562 2.0117-1.5156 3.0508-2.2148 0.60156-0.40625 1.2227-0.78125 1.8398-1.1641 1.0195-0.63281 2.0469-1.2461 3.0977-1.8164 0.66016-0.35938 1.3281-0.69922 2-1.0352 1.043-0.51953 2.1016-1.0117 3.1758-1.4727 0.70312-0.30078 1.4102-0.59766 2.1211-0.87109 1.0859-0.41797 2.1875-0.79688 3.293-1.1523 0.72266-0.23438 1.4414-0.47266 2.1758-0.67969 1.1523-0.32812 2.3203-0.59766 3.4922-0.85547 0.70703-0.15625 1.4102-0.33203 2.125-0.46875 1.293-0.23828 2.6055-0.41016 3.918-0.56641 0.61328-0.074219 1.2188-0.18359 1.8359-0.23828 1.9375-0.17969 3.8867-0.28125 5.8555-0.28125 11.746 0 23.23 3.2891 33.25 9.5234 18.613 11.535 29.727 31.52 29.727 53.453 0 9.8789-2.3281 19.578-6.7734 28.352l-72.195-17.352c0.16406-2.0078 0.25-3.9961 0.25-5.9727z"/>
 </g>
</svg>