<?xml version="1.0" encoding="UTF-8"?>
<!-- The Best Svg Icon site in the world: iconSvg.co, Visit us! https://iconsvg.co -->
<svg fill="#000000" width="800px" height="800px" version="1.1" viewBox="144 144 512 512" xmlns="http://www.w3.org/2000/svg">
 <g>
  <path d="m318.5 300.72-13.336-48.16c-0.74219-2.9648-3.7031-5.1875-7.4102-5.1875h-42.973c-2.9609-10.371-11.852-17.777-22.965-17.777h-44.453c-13.34 0-24.453 11.113-24.453 25.188 0 14.078 11.113 24.449 24.449 24.449h44.453c11.113 0 20.004-7.4102 22.969-17.039h37.043l11.855 42.973c0.74219 2.9648 3.7031 5.1875 7.4102 5.1875h2.2227c3.707-1.4844 5.9297-5.9297 5.1875-9.6328zm-86.684-36.305h-44.453c-5.1875 0-9.6328-4.4453-9.6328-9.6328 0-5.1836 4.4453-10.371 9.6289-10.371h44.453c5.1875 0 9.6328 4.4453 9.6328 9.6328 0 5.1836-3.7031 10.371-9.6289 10.371z"/>
  <path d="m580.78 436.3 36.305-128.18c0.74219-2.2227 0-4.4453-1.4805-6.668-1.4805-2.2227-3.7031-2.9648-5.9258-2.9648l-254.13 0.003906c-2.2227 0-4.4453 0.74219-5.9258 2.9648-1.4805 1.4805-2.2227 4.4453-1.4805 6.668l29.637 110.39c0.74219 2.9648 2.9648 4.4453 5.1875 5.1875l55.566 13.336c3.7031 0.74219 8.1484-1.4805 8.8906-5.1875 0.74219-3.7031-1.4805-8.1484-5.1875-8.8906l-51.121-12.594-25.93-97.059 234.86-0.003906-34.82 122.25c-11.113 0.74219-20.746 3.7031-29.637 8.8906l-60.012-14.078c-3.7031-0.74219-8.1484 1.4805-8.8906 5.1875-0.74219 3.7031 1.4805 8.1484 5.1875 8.8906l48.898 11.855c-5.9258 5.9258-10.371 13.336-14.078 21.484l-151.14-40.746-28.152-103.73c-0.74219-3.7031-5.1875-5.9258-8.8906-5.1875-3.7031 0.74219-5.9258 5.1875-5.1875 8.8906l29.637 107.43 14.078 54.086c0.74219 2.9648 3.7031 5.1875 7.4102 5.1875h2.2227c3.7031-0.74219 6.668-5.1875 5.1875-8.8906l-11.113-42.23 81.5 22.227-19.27 80.758h-35.562l-8.1484-32.598c-0.74219-3.7031-5.1875-6.668-8.8906-5.1875-3.7031 0.74219-6.668 5.1875-5.1875 8.8906l9.6328 37.785c0.74219 2.9648 3.7031 5.1875 7.4102 5.1875h47.418c3.7031 0 6.668-2.2227 7.4102-5.9258l20.746-84.461 46.676 12.594c-0.74219 3.7031-0.74219 6.668-0.74219 10.371 0 37.043 30.375 67.422 67.422 67.422 37.043 0 67.422-30.375 67.422-67.422-1.4844-32.598-25.934-60.754-57.793-65.941zm-11.113 119.29c-28.895 0-52.605-23.707-52.605-52.605 0-28.895 23.707-52.605 52.605-52.605 28.895 0.003906 52.602 23.715 52.602 52.609s-23.707 52.602-52.602 52.602z"/>
  <path d="m569.66 469.64c-18.523 0-33.34 14.816-33.34 33.34s14.816 33.34 33.34 33.34c18.523 0 33.34-14.816 33.34-33.34s-14.816-33.34-33.34-33.34zm0 51.121c-10.371 0-18.523-8.1484-18.523-18.523 0-10.371 8.1484-18.523 18.523-18.523 10.371 0 18.523 8.1484 18.523 18.523 0 10.371-8.1523 18.523-18.523 18.523z"/>
 </g>
</svg>